# https://github.com/mikedh/trimesh
v -0.02217355 -0.02730754 -0.03295101
v -0.02217355 -0.02730754 -0.02372992
v -0.02217355 -0.02312653 -0.03295101
v -0.00018895 -0.02729444 -0.03295101
v -0.02047134 -0.02729444 -0.02286568
v -0.02217355 -0.02730672 -0.02370427
v -0.00018895 -0.02729444 -0.02286568
v -0.02133428 -0.02312612 -0.03295101
v -0.02217355 -0.02340731 -0.02372992
v -0.02047134 -0.02340935 -0.02286568
v -0.00018895 -0.02312612 -0.03295101
v -0.02047134 -0.02695513 -0.02207505
v -0.02217355 -0.02727111 -0.02286568
v -0.00018895 -0.02712662 -0.02247427
v -0.02217355 -0.02344824 -0.02286568
v -0.02217355 -0.02376463 -0.02203602
v -0.02047134 -0.02371756 -0.02208063
v -0.00018895 -0.02340935 -0.02286568
v -0.02217355 -0.02688432 -0.02196911
v -0.00018895 -0.02695513 -0.02207505
v -0.02217355 -0.02379041 -0.02197134
v -0.00018895 -0.02371756 -0.02208063
v -0.02217355 -0.02629165 -0.02163011
v -0.00018895 -0.02618360 -0.02171151
v -0.02217355 -0.02445757 -0.02161115
v -0.00018895 -0.02445757 -0.02171820
v -0.02217355 -0.02618360 -0.02161004
v -0.00018895 -0.02575628 -0.02170929
v -0.02217355 -0.02532038 -0.02155874
v -0.02217355 -0.02474245 -0.02159108
v -0.00018895 -0.02489348 -0.02171263
v -0.00018895 -0.02532038 -0.02170817
f 1 2 6
f 1 6 13
f 1 13 19
f 1 19 23
f 1 23 27
f 1 27 29
f 1 29 30
f 1 30 25
f 1 25 21
f 1 21 16
f 1 16 15
f 1 15 9
f 1 9 3
f 1 3 8
f 1 8 11
f 1 11 4
f 1 4 7
f 1 7 2
f 2 5 6
f 2 7 5
f 3 9 10
f 3 10 8
f 4 11 18
f 4 18 22
f 4 22 26
f 4 26 31
f 4 31 32
f 4 32 28
f 4 28 24
f 4 24 20
f 4 20 14
f 4 14 7
f 5 12 13
f 5 13 6
f 5 7 14
f 5 14 12
f 8 10 18
f 8 18 11
f 9 15 10
f 10 15 16
f 10 16 17
f 10 17 22
f 10 22 18
f 12 19 13
f 12 14 20
f 12 20 19
f 16 21 17
f 17 21 22
f 19 20 23
f 20 24 23
f 21 25 22
f 22 25 26
f 23 24 27
f 24 28 29
f 24 29 27
f 25 30 26
f 26 30 29
f 26 29 31
f 28 32 29
f 29 32 31

