# https://github.com/mikedh/trimesh
v 0.02528267 0.00015103 -0.00323844
v 0.02528267 0.02161723 -0.00325551
v 0.02614582 0.00015103 -0.00323844
v 0.02484672 0.00015103 -0.00323503
v 0.02441952 0.00015103 -0.00323161
v 0.02441952 0.02043213 -0.00323161
v 0.02441952 0.02161723 -0.00321454
v 0.02582571 0.02161723 -0.00323844
v 0.02614582 0.02043213 -0.00323844
v 0.02691865 0.00015103 -0.00290728
v 0.02404797 0.00015103 -0.00306433
v 0.02368404 0.02043213 -0.00290046
v 0.02371605 0.02161723 -0.00287656
v 0.02614582 0.02161723 -0.00322137
v 0.02691865 0.02043213 -0.00290728
v 0.02708899 0.00015103 -0.00253175
v 0.02368404 0.00015103 -0.00290046
v 0.02360286 0.02161723 -0.00260685
v 0.02338031 0.02043213 -0.00214597
v 0.02341194 0.02161723 -0.00214597
v 0.02661912 0.02161723 -0.00301312
v 0.02689464 0.02161723 -0.00288339
v 0.02724181 0.02161723 -0.00214597
v 0.02726277 0.02043213 -0.00214597
v 0.02726277 0.00015103 -0.00214597
v 0.02338031 0.00015103 -0.00214597
v 0.02337917 0.02161723 -0.00128223
v 0.02339403 0.02161723 -0.00182505
v 0.02727192 0.02161723 -0.00128223
v 0.02726429 0.00015103 -0.00171922
v 0.02338031 0.00015103 0.02979191
v 0.02337917 0.02161723 0.02979191
v 0.02726544 0.00015103 -0.00128223
v 0.02727192 0.02161723 0.02979191
v 0.02338641 0.00015103 0.03022890
v 0.02339251 0.00015103 0.03065565
v 0.02339251 0.02043213 0.03065565
v 0.02340775 0.02161723 0.03065565
v 0.02726544 0.00015103 0.02979191
v 0.02725324 0.02161723 0.03033815
v 0.02724638 0.02043213 0.03065565
v 0.02724638 0.00015103 0.03065565
v 0.02354609 0.00015103 0.03101070
v 0.02369623 0.02043213 0.03135552
v 0.02371224 0.02161723 0.03133845
v 0.02723876 0.02161723 0.03065565
v 0.02690227 0.02043213 0.03135552
v 0.02690227 0.00015103 0.03135552
v 0.02369623 0.00015103 0.03135552
v 0.02441952 0.02043213 0.03162181
v 0.02397213 0.02161723 0.03143746
v 0.02702231 0.02161723 0.03108923
v 0.02614582 0.02161723 0.03160133
v 0.02614582 0.02043213 0.03162181
v 0.02689160 0.02161723 0.03133845
v 0.02614582 0.00015103 0.03162181
v 0.02441952 0.00015103 0.03162181
v 0.02528267 0.02161723 0.03161157
v 0.02473963 0.02161723 0.03160816
v 0.02441952 0.02161723 0.03160133
f 1 2 3
f 1 3 10
f 1 10 16
f 1 16 25
f 1 25 30
f 1 30 33
f 1 33 39
f 1 39 42
f 1 42 48
f 1 48 56
f 1 56 57
f 1 57 49
f 1 49 43
f 1 43 36
f 1 36 35
f 1 35 31
f 1 31 26
f 1 26 17
f 1 17 11
f 1 11 5
f 1 5 4
f 1 4 2
f 2 4 5
f 2 5 6
f 2 6 7
f 2 7 13
f 2 13 18
f 2 18 20
f 2 20 28
f 2 28 27
f 2 27 32
f 2 32 38
f 2 38 45
f 2 45 51
f 2 51 60
f 2 60 59
f 2 59 58
f 2 58 53
f 2 53 55
f 2 55 52
f 2 52 46
f 2 46 40
f 2 40 34
f 2 34 29
f 2 29 23
f 2 23 22
f 2 22 21
f 2 21 14
f 2 14 8
f 2 8 9
f 2 9 3
f 3 9 15
f 3 15 10
f 5 11 6
f 6 11 12
f 6 12 7
f 7 12 13
f 8 14 9
f 9 14 15
f 10 15 16
f 11 17 12
f 12 18 13
f 12 17 26
f 12 26 19
f 12 19 20
f 12 20 18
f 14 21 15
f 15 21 22
f 15 22 23
f 15 23 24
f 15 24 16
f 16 24 25
f 19 27 28
f 19 28 20
f 19 26 27
f 23 29 24
f 24 29 25
f 25 29 30
f 26 31 32
f 26 32 27
f 29 33 30
f 29 34 39
f 29 39 33
f 31 35 32
f 32 35 36
f 32 36 37
f 32 37 38
f 34 40 41
f 34 41 42
f 34 42 39
f 36 43 37
f 37 43 44
f 37 44 38
f 38 44 45
f 40 46 41
f 41 46 47
f 41 47 48
f 41 48 42
f 43 49 44
f 44 50 51
f 44 51 45
f 44 49 57
f 44 57 50
f 46 52 47
f 47 53 54
f 47 54 56
f 47 56 48
f 47 52 55
f 47 55 53
f 50 58 59
f 50 59 60
f 50 60 51
f 50 57 56
f 50 56 54
f 50 54 58
f 53 58 54

