# https://github.com/mikedh/trimesh
v 0.02234975 -0.02526074 0.01142213
v 0.02234975 -0.02445710 0.01143209
v 0.02234975 -0.02526074 0.03176610
v -0.00018675 -0.02526074 0.01156551
v -0.00018675 -0.02445710 0.01156551
v 0.02234975 -0.02360221 0.01168698
v -0.00018675 -0.02526074 0.03162670
v 0.02234975 -0.02456769 0.03175813
v -0.00018675 -0.02445710 0.03162670
v -0.00018675 -0.02373072 0.01183236
v 0.02234975 -0.02354960 0.01180249
v 0.02234975 -0.02445710 0.03175415
v -0.00018675 -0.02372995 0.03135787
v 0.02234975 -0.02372263 0.03154506
v -0.00018675 -0.02342244 0.01252934
v 0.02234975 -0.02331319 0.01252934
v -0.00018675 -0.02357735 0.03101137
v 0.02234975 -0.02360278 0.03149925
v -0.00018675 -0.02341570 0.01296545
v 0.02234975 -0.02329258 0.01339360
v 0.02234975 -0.02331011 0.01259705
v -0.00018675 -0.02342167 0.03065690
v 0.02234975 -0.02331377 0.03065690
v -0.00018675 -0.02340934 0.01339360
v 0.02234975 -0.02329258 0.02979463
v -0.00018675 -0.02341550 0.03023074
v -0.00018675 -0.02340934 0.02979463
f 1 2 6
f 1 6 11
f 1 11 16
f 1 16 21
f 1 21 20
f 1 20 25
f 1 25 23
f 1 23 18
f 1 18 14
f 1 14 12
f 1 12 8
f 1 8 3
f 1 3 7
f 1 7 4
f 1 4 5
f 1 5 2
f 2 5 6
f 3 8 9
f 3 9 7
f 4 7 9
f 4 9 13
f 4 13 17
f 4 17 22
f 4 22 26
f 4 26 27
f 4 27 24
f 4 24 19
f 4 19 15
f 4 15 10
f 4 10 5
f 5 10 6
f 6 10 11
f 8 12 9
f 9 12 14
f 9 14 13
f 10 15 11
f 11 15 16
f 13 14 18
f 13 18 17
f 15 19 20
f 15 20 21
f 15 21 16
f 17 18 22
f 18 23 22
f 19 24 20
f 20 24 27
f 20 27 25
f 22 23 25
f 22 25 26
f 25 27 26

