# https://github.com/mikedh/trimesh
v -0.02431932 -0.02132585 0.04837798
v -0.02438235 -0.02132585 0.04837798
v -0.02417904 -0.02132585 0.04816745
v -0.02412528 -0.01582419 0.04765512
v -0.02415554 -0.01496015 0.04761984
v -0.02420183 -0.01409611 0.04757968
v -0.02425523 -0.00460222 0.04668159
v -0.02431185 -0.00394421 0.04664995
v -0.02696977 -0.01270440 0.04750058
v -0.02699220 -0.02132585 0.04830131
v -0.02438448 -0.00394421 0.04664995
v -0.02697796 -0.00403671 0.04664143
v -0.02408041 -0.02132585 0.04796666
v -0.02387746 -0.01582419 0.04706005
v -0.02390773 -0.01496015 0.04706005
v -0.02390310 -0.00632819 0.04619726
v -0.02412243 -0.00719223 0.04679598
v -0.02415056 -0.00632819 0.04676069
v -0.02419506 -0.00546626 0.04672175
v -0.02410925 0.00015103 0.04599160
v -0.02702495 -0.01323418 0.04752491
v -0.02722221 -0.02132585 0.04795936
v -0.02710044 -0.01409611 0.04756264
v -0.02715420 -0.01496015 0.04759915
v -0.02718731 -0.01582419 0.04763079
v -0.02452477 0.00015103 0.04599160
v -0.02720405 0.00015103 0.04596117
v -0.02703564 -0.00460222 0.04666699
v -0.02390666 -0.02132585 0.04738254
v -0.02386393 -0.01668612 0.04706005
v -0.02387497 -0.00719223 0.04619726
v -0.02386144 0.00015103 0.04533324
v -0.02398392 0.00015103 0.04565937
v -0.02748533 -0.02132585 0.04706005
v -0.02744509 -0.01582419 0.04706005
v -0.02745934 -0.01668612 0.04706005
v -0.02710863 -0.00546626 0.04670471
v -0.02715954 -0.00632819 0.04674000
v -0.02719016 -0.00719223 0.04677164
v -0.02741732 -0.00632819 0.04619726
v -0.02741162 -0.01496015 0.04706005
v -0.02733151 0.00015103 0.04565086
v -0.02385005 -0.02132585 0.04706005
v -0.02386322 -0.00805627 0.04619726
v -0.02386144 0.00015103 0.04101804
v -0.02384898 -0.02132585 0.04619726
v -0.02748604 -0.02132585 0.04673878
v -0.02746005 -0.00805627 0.04619726
v -0.02746147 0.00015103 0.04533324
v -0.02744794 -0.00719223 0.04619726
v -0.02386215 0.00015103 0.04058238
v -0.02384898 -0.02132585 0.04047651
v -0.02384934 -0.02132585 0.03875092
v -0.02385005 -0.02132585 0.03788690
v -0.02385076 -0.02132585 0.03702411
v -0.02386144 -0.00115028 0.04015524
v -0.02748640 -0.02132585 0.04619726
v -0.02746183 0.00015103 0.04404331
v -0.02386287 0.00015103 0.04015524
v -0.02385325 -0.02132585 0.03670162
v -0.02748640 -0.02132585 0.04188205
v -0.02746218 0.00015103 0.04145491
v -0.02392375 -0.00891820 0.03842843
v -0.02398784 0.00015103 0.03983032
v -0.02386678 -0.02014016 0.03670162
v -0.02390132 -0.01927613 0.03670162
v -0.02391165 -0.01409611 0.03756563
v -0.02410783 -0.02132585 0.03594591
v -0.02748604 -0.02132585 0.04015524
v -0.02746218 0.00015103 0.04101804
v -0.02411032 0.00015103 0.03951271
v -0.02411459 -0.02014016 0.03607612
v -0.02414878 -0.01927613 0.03613210
v -0.02423031 -0.01841419 0.03619903
v -0.02454079 -0.02132585 0.03594591
v -0.02430757 -0.01783607 0.03624649
v -0.02748462 -0.02132585 0.03842843
v -0.02746112 0.00015103 0.04015524
v -0.02748390 -0.02132585 0.03756563
v -0.02417121 -0.00891820 0.03788082
v -0.02418474 -0.00374029 0.03875578
v -0.02426948 -0.00302131 0.03881298
v -0.02452370 0.00015103 0.03951271
v -0.02415946 -0.01409611 0.03700585
v -0.02424918 -0.01323418 0.03707400
v -0.02720725 -0.02132585 0.03597268
v -0.02698330 -0.01789073 0.03625623
v -0.02438733 -0.01783607 0.03624649
v -0.02432324 -0.01270440 0.03711781
v -0.02733329 0.00015103 0.03985101
v -0.02744367 -0.00460222 0.03929244
v -0.02741875 -0.01927613 0.03670162
v -0.02745293 -0.01496015 0.03756563
v -0.02745613 -0.02014016 0.03670162
v -0.02748177 -0.02132585 0.03670162
v -0.02433962 -0.00757695 0.03798912
v -0.02441190 -0.00302131 0.03881298
v -0.02720298 0.00015103 0.03954191
v -0.02703029 -0.00307597 0.03882393
v -0.02737210 -0.02132585 0.03638644
v -0.02719871 -0.02014016 0.03610289
v -0.02716132 -0.01927613 0.03615279
v -0.02706554 -0.01841419 0.03621485
v -0.02696443 -0.01275906 0.03712633
v -0.02437736 -0.01270440 0.03711781
v -0.02740700 -0.01409611 0.03756563
v -0.02436739 -0.00757695 0.03798912
v -0.02712002 -0.00374029 0.03877404
v -0.02713569 -0.00891820 0.03790029
v -0.02714922 -0.01409611 0.03702654
v -0.02704418 -0.00820553 0.03795261
f 1 2 10
f 1 10 22
f 1 22 34
f 1 34 47
f 1 47 57
f 1 57 61
f 1 61 69
f 1 69 77
f 1 77 79
f 1 79 95
f 1 95 100
f 1 100 86
f 1 86 75
f 1 75 68
f 1 68 60
f 1 60 55
f 1 55 54
f 1 54 53
f 1 53 52
f 1 52 46
f 1 46 43
f 1 43 29
f 1 29 13
f 1 13 3
f 1 3 4
f 1 4 5
f 1 5 6
f 1 6 7
f 1 7 8
f 1 8 11
f 1 11 2
f 2 9 10
f 2 11 12
f 2 12 9
f 3 13 4
f 4 14 15
f 4 15 16
f 4 16 17
f 4 17 18
f 4 18 5
f 4 13 14
f 5 18 19
f 5 19 6
f 6 19 7
f 7 19 20
f 7 20 8
f 8 20 26
f 8 26 11
f 9 21 10
f 9 12 21
f 10 21 23
f 10 23 24
f 10 24 25
f 10 25 22
f 11 26 12
f 12 26 27
f 12 27 28
f 12 28 21
f 13 29 30
f 13 30 14
f 14 30 31
f 14 31 16
f 14 16 15
f 16 32 33
f 16 33 20
f 16 20 17
f 16 31 32
f 17 20 18
f 18 20 19
f 20 33 32
f 20 32 45
f 20 45 51
f 20 51 59
f 20 59 64
f 20 64 71
f 20 71 83
f 20 83 98
f 20 98 90
f 20 90 78
f 20 78 70
f 20 70 62
f 20 62 58
f 20 58 49
f 20 49 42
f 20 42 27
f 20 27 26
f 21 28 23
f 22 25 35
f 22 35 36
f 22 36 34
f 23 28 37
f 23 37 24
f 24 37 38
f 24 38 25
f 25 38 39
f 25 39 40
f 25 40 41
f 25 41 35
f 27 42 40
f 27 40 39
f 27 39 38
f 27 38 37
f 27 37 28
f 29 43 30
f 30 43 44
f 30 44 31
f 31 44 32
f 32 44 43
f 32 43 46
f 32 46 52
f 32 52 45
f 34 36 48
f 34 48 49
f 34 49 47
f 35 41 40
f 35 40 50
f 35 50 36
f 36 50 48
f 40 42 49
f 40 49 50
f 45 52 53
f 45 53 54
f 45 54 55
f 45 55 56
f 45 56 51
f 47 49 57
f 48 50 49
f 49 58 57
f 51 56 59
f 55 60 59
f 55 59 56
f 57 58 62
f 57 62 70
f 57 70 61
f 59 63 64
f 59 60 65
f 59 65 66
f 59 66 67
f 59 67 63
f 60 68 65
f 61 70 69
f 63 71 64
f 63 67 71
f 65 68 66
f 66 68 72
f 66 72 73
f 66 73 71
f 66 71 67
f 68 74 73
f 68 73 72
f 68 75 88
f 68 88 76
f 68 76 74
f 69 70 77
f 70 78 79
f 70 79 77
f 71 80 81
f 71 81 82
f 71 82 97
f 71 97 83
f 71 73 84
f 71 84 80
f 73 74 84
f 74 76 85
f 74 85 81
f 74 81 80
f 74 80 84
f 75 86 87
f 75 87 88
f 76 88 105
f 76 105 89
f 76 89 82
f 76 82 85
f 78 90 91
f 78 91 92
f 78 92 93
f 78 93 94
f 78 94 95
f 78 95 79
f 81 85 82
f 82 96 107
f 82 107 97
f 82 89 96
f 83 97 99
f 83 99 98
f 86 100 94
f 86 94 92
f 86 92 101
f 86 101 102
f 86 102 103
f 86 103 87
f 87 104 88
f 87 103 99
f 87 99 104
f 88 104 105
f 89 105 107
f 89 107 96
f 90 98 106
f 90 106 91
f 91 106 92
f 92 102 101
f 92 94 93
f 92 106 98
f 92 98 102
f 94 100 95
f 97 107 99
f 98 99 108
f 98 108 109
f 98 109 110
f 98 110 102
f 99 107 104
f 99 103 111
f 99 111 108
f 102 110 103
f 103 110 109
f 103 109 108
f 103 108 111
f 104 107 105

