# https://github.com/mikedh/trimesh
v -0.02217355 -0.02532068 -0.01821665
v -0.02217355 -0.02564030 -0.01820529
v -0.02217355 -0.02445727 -0.01817249
v -0.00018895 -0.02445727 -0.01802233
v -0.00018895 -0.02488459 -0.01802738
v -0.00018895 -0.02532068 -0.01803243
v -0.00018895 -0.02574761 -0.01802990
v -0.00018895 -0.02618370 -0.01802611
v -0.02217355 -0.02618370 -0.01817375
v -0.02217355 -0.02422854 -0.01811823
v -0.00018895 -0.02371760 -0.01763369
v -0.00018895 -0.02656519 -0.01783432
v -0.02217355 -0.02690963 -0.01774221
v -0.00018895 -0.02695507 -0.01763747
v -0.02217355 -0.02376418 -0.01774094
v -0.00018895 -0.02356179 -0.01722359
v -0.02047134 -0.02371760 -0.01763369
v -0.02047134 -0.02695507 -0.01763747
v -0.02217355 -0.02691612 -0.01772706
v -0.00018895 -0.02729455 -0.01682234
v -0.02217355 -0.02344227 -0.01682234
v -0.02047134 -0.02340943 -0.01682234
v -0.00018895 -0.02340943 -0.01682234
v -0.02047134 -0.02729455 -0.01682234
v -0.02217355 -0.02727623 -0.01682234
v -0.00018895 -0.02729455 -0.00732710
v -0.02217355 -0.02730716 -0.01595925
v -0.02217355 -0.02340714 -0.01598322
v -0.02217355 -0.02340637 -0.01595925
v -0.00018895 -0.02340943 -0.00646401
v -0.00018895 -0.02729303 -0.00646401
v -0.02217355 -0.02730716 -0.00732710
v -0.02217355 -0.02340637 -0.00732710
v -0.00018895 -0.02356523 -0.00608042
v -0.02047134 -0.02340943 -0.00646401
v -0.00018895 -0.02712500 -0.00608546
v -0.02047134 -0.02729303 -0.00646401
v -0.02217355 -0.02730677 -0.00730186
v -0.02217355 -0.02345411 -0.00646401
v -0.00018895 -0.02371760 -0.00570566
v -0.02047134 -0.02371760 -0.00570566
v -0.00018895 -0.02695316 -0.00569935
v -0.02047134 -0.02695316 -0.00569935
v -0.02217355 -0.02726477 -0.00646401
v -0.02217355 -0.02375464 -0.00575234
v -0.00018895 -0.02409145 -0.00553783
v -0.02217355 -0.02376380 -0.00573215
v -0.02217355 -0.02443704 -0.00538894
v -0.02217355 -0.02445727 -0.00537884
v -0.02047134 -0.02445727 -0.00537379
v -0.00018895 -0.02618370 -0.00536749
v -0.02047134 -0.02618370 -0.00536749
v -0.02217355 -0.02618370 -0.00537379
v -0.02217355 -0.02691841 -0.00572710
v -0.02217355 -0.02725484 -0.00644256
v -0.00018895 -0.02445727 -0.00537379
v -0.02217355 -0.02529586 -0.00532711
v -0.02217355 -0.02532068 -0.00532584
v -0.00018895 -0.02532068 -0.00536749
f 1 2 9
f 1 9 13
f 1 13 19
f 1 19 25
f 1 25 27
f 1 27 32
f 1 32 38
f 1 38 44
f 1 44 55
f 1 55 54
f 1 54 53
f 1 53 58
f 1 58 57
f 1 57 49
f 1 49 48
f 1 48 47
f 1 47 45
f 1 45 39
f 1 39 33
f 1 33 29
f 1 29 28
f 1 28 21
f 1 21 15
f 1 15 10
f 1 10 3
f 1 3 4
f 1 4 5
f 1 5 6
f 1 6 7
f 1 7 8
f 1 8 2
f 2 8 9
f 3 10 4
f 4 11 16
f 4 16 23
f 4 23 30
f 4 30 34
f 4 34 40
f 4 40 46
f 4 46 56
f 4 56 59
f 4 59 51
f 4 51 42
f 4 42 36
f 4 36 31
f 4 31 26
f 4 26 20
f 4 20 14
f 4 14 12
f 4 12 8
f 4 8 7
f 4 7 6
f 4 6 5
f 4 10 11
f 8 12 9
f 9 12 14
f 9 14 13
f 10 15 11
f 11 15 17
f 11 17 16
f 13 18 19
f 13 14 18
f 14 20 24
f 14 24 18
f 15 21 22
f 15 22 17
f 16 17 22
f 16 22 23
f 18 24 19
f 19 24 25
f 20 26 32
f 20 32 27
f 20 27 24
f 21 28 22
f 22 28 29
f 22 29 23
f 23 29 33
f 23 33 30
f 24 27 25
f 26 31 32
f 30 33 35
f 30 35 34
f 31 36 37
f 31 37 38
f 31 38 32
f 33 39 35
f 34 35 41
f 34 41 40
f 35 39 41
f 36 42 43
f 36 43 37
f 37 43 44
f 37 44 38
f 39 45 41
f 40 41 46
f 41 45 47
f 41 47 48
f 41 48 49
f 41 49 50
f 41 50 46
f 42 51 52
f 42 52 43
f 43 52 53
f 43 53 54
f 43 54 55
f 43 55 44
f 46 50 56
f 49 57 50
f 50 57 56
f 51 58 52
f 51 59 58
f 52 58 53
f 56 57 58
f 56 58 59

