# https://github.com/mikedh/trimesh
v -0.02217355 -0.02532068 -0.00325411
v -0.02047134 -0.02618370 -0.00323269
v -0.02217355 -0.02534550 -0.00325285
v -0.02217355 -0.02445727 -0.00320245
v -0.02047134 -0.02445727 -0.00322891
v -0.00018895 -0.02445727 -0.00322891
v -0.00018895 -0.02532068 -0.00323269
v -0.00018895 -0.02618370 -0.00323269
v -0.02047134 -0.02695240 -0.00290511
v -0.02217355 -0.02618370 -0.00320749
v -0.00018895 -0.02656404 -0.00307142
v -0.02217355 -0.02376457 -0.00286353
v -0.02047134 -0.02371760 -0.00290007
v -0.00018895 -0.02371760 -0.00290007
v -0.02047134 -0.02729188 -0.00214538
v -0.02217355 -0.02726400 -0.00214538
v -0.02217355 -0.02691803 -0.00286983
v -0.00018895 -0.02695240 -0.00290511
v -0.00018895 -0.02712042 -0.00252966
v -0.02217355 -0.02346404 -0.00216680
v -0.02217355 -0.02345487 -0.00214538
v -0.02047134 -0.02340943 -0.00214538
v -0.00018895 -0.02356179 -0.00251958
v -0.02217355 -0.02730716 -0.00128233
v -0.00018895 -0.02729188 -0.00214538
v -0.02217355 -0.02340714 -0.00130753
v -0.02217355 -0.02340637 -0.00128233
v -0.00018895 -0.02340943 -0.00214538
v -0.02217355 -0.02730716 0.00734938
v -0.00018895 -0.02729341 -0.00171827
v -0.00018895 -0.02729455 -0.00128233
v -0.02217355 -0.02340637 0.00734938
v -0.00018895 -0.02340943 0.00821243
v -0.02047134 -0.02729455 0.00821243
v -0.02217355 -0.02730677 0.00737332
v -0.00018895 -0.02729455 0.00821243
v -0.02217355 -0.02344151 0.00821243
v -0.02047134 -0.02340943 0.00821243
v -0.00018895 -0.02371760 0.00902759
v -0.02217355 -0.02691230 0.00913595
v -0.02217355 -0.02727699 0.00821243
v -0.00018895 -0.02712653 0.00861812
v -0.02217355 -0.02376151 0.00913469
v -0.02047134 -0.02371760 0.00902759
v -0.00018895 -0.02409145 0.00922666
v -0.02217355 -0.02445727 0.00957566
v -0.02217355 -0.02642657 0.00951644
v -0.00018895 -0.02695507 0.00903137
v -0.00018895 -0.02445727 0.00942069
v -0.02217355 -0.02502893 0.00960590
v -0.02217355 -0.02618370 0.00957566
v -0.00018895 -0.02657321 0.00922666
v -0.00018895 -0.02618370 0.00942447
v -0.00018895 -0.02532068 0.00943077
v -0.02217355 -0.02532068 0.00961724
f 1 2 3
f 1 3 10
f 1 10 17
f 1 17 16
f 1 16 24
f 1 24 29
f 1 29 35
f 1 35 41
f 1 41 40
f 1 40 47
f 1 47 51
f 1 51 55
f 1 55 50
f 1 50 46
f 1 46 43
f 1 43 37
f 1 37 32
f 1 32 27
f 1 27 26
f 1 26 21
f 1 21 20
f 1 20 12
f 1 12 4
f 1 4 5
f 1 5 6
f 1 6 7
f 1 7 8
f 1 8 2
f 2 9 10
f 2 10 3
f 2 8 11
f 2 11 9
f 4 12 13
f 4 13 5
f 5 13 14
f 5 14 6
f 6 14 23
f 6 23 28
f 6 28 33
f 6 33 39
f 6 39 45
f 6 45 49
f 6 49 54
f 6 54 53
f 6 53 52
f 6 52 48
f 6 48 42
f 6 42 36
f 6 36 31
f 6 31 30
f 6 30 25
f 6 25 19
f 6 19 18
f 6 18 11
f 6 11 8
f 6 8 7
f 9 15 16
f 9 16 17
f 9 17 10
f 9 11 18
f 9 18 19
f 9 19 15
f 12 20 13
f 13 20 21
f 13 21 22
f 13 22 23
f 13 23 14
f 15 24 16
f 15 19 25
f 15 25 24
f 21 26 22
f 22 26 27
f 22 27 28
f 22 28 23
f 24 25 30
f 24 30 31
f 24 31 36
f 24 36 29
f 27 32 33
f 27 33 28
f 29 34 35
f 29 36 34
f 32 37 38
f 32 38 33
f 33 38 44
f 33 44 39
f 34 40 41
f 34 41 35
f 34 36 40
f 36 42 40
f 37 43 38
f 38 43 44
f 39 44 43
f 39 43 46
f 39 46 45
f 40 42 48
f 40 48 47
f 45 46 49
f 46 50 49
f 47 48 52
f 47 52 53
f 47 53 51
f 49 50 55
f 49 55 54
f 51 53 55
f 53 54 55

