# https://github.com/mikedh/trimesh
v 0.02234975 -0.02526074 -0.00335643
v 0.02234975 -0.02445710 -0.00333022
v 0.02234975 -0.02526074 0.01002925
v -0.00018675 -0.02526074 -0.00323326
v -0.00018675 -0.02445710 -0.00322802
v 0.02234975 -0.02360124 -0.00301707
v -0.00018675 -0.02526074 0.00942915
v 0.02234975 -0.02462839 0.01000435
v -0.00018675 -0.02445710 0.00942128
v -0.00018675 -0.02408370 -0.00306293
v 0.02234975 -0.02355982 -0.00292142
v -0.00018675 -0.02371742 -0.00290046
v 0.02234975 -0.02445710 0.00999256
v -0.00018675 -0.02371742 0.00902820
v 0.02234975 -0.02385711 0.00983140
v 0.02234975 -0.02374555 0.00978685
v 0.02234975 -0.02331955 -0.00214574
v -0.00018675 -0.02356174 -0.00251917
v -0.00018675 -0.02340934 -0.00214574
v -0.00018675 -0.02356502 0.00862464
v 0.02234975 -0.02344383 0.00908324
v 0.02234975 -0.02331570 -0.00207761
v -0.00018675 -0.02340934 0.00821191
v 0.02234975 -0.02329258 -0.00128228
v 0.02234975 -0.02331204 0.00821191
v 0.02234975 -0.02329258 0.00734844
f 1 2 6
f 1 6 11
f 1 11 17
f 1 17 22
f 1 22 24
f 1 24 26
f 1 26 25
f 1 25 21
f 1 21 16
f 1 16 15
f 1 15 13
f 1 13 8
f 1 8 3
f 1 3 7
f 1 7 4
f 1 4 5
f 1 5 2
f 2 5 6
f 3 8 9
f 3 9 7
f 4 7 9
f 4 9 14
f 4 14 20
f 4 20 23
f 4 23 19
f 4 19 18
f 4 18 12
f 4 12 10
f 4 10 5
f 5 10 6
f 6 10 12
f 6 12 11
f 8 13 9
f 9 13 15
f 9 15 16
f 9 16 14
f 11 12 18
f 11 18 19
f 11 19 17
f 14 16 21
f 14 21 20
f 17 19 22
f 19 23 26
f 19 26 24
f 19 24 22
f 20 21 23
f 21 25 23
f 23 25 26

