# https://github.com/mikedh/trimesh
v -0.02565120 0.02216185 -0.02155090
v -0.02478828 0.02216185 -0.02160483
v -0.02618059 0.02216185 -0.02157852
v -0.02651464 0.00015103 -0.02171138
v -0.02565120 0.00015103 -0.02170743
v -0.02521497 0.00015103 -0.02171269
v -0.02478828 0.00015103 -0.02171796
v -0.02466281 0.02216185 -0.02162851
v -0.02651464 0.02216185 -0.02160352
v -0.02728809 0.00015103 -0.02207442
v -0.02405030 0.00015103 -0.02208100
v -0.02412548 0.02216185 -0.02196788
v -0.02721450 0.02216185 -0.02196525
v -0.02762955 0.00015103 -0.02286628
v -0.02728809 0.02043175 -0.02207442
v -0.02374325 0.00015103 -0.02286628
v -0.02405030 0.02043175 -0.02208100
v -0.02374325 0.02043175 -0.02286628
v -0.02378243 0.02215969 -0.02286628
v -0.02379196 0.02216185 -0.02284260
v -0.02723409 0.02216185 -0.02200997
v -0.02762955 0.00015103 -0.03322489
v -0.02762955 0.02043175 -0.02286628
v -0.02764384 0.02215969 -0.02372917
v -0.02760784 0.02216185 -0.02286628
v -0.02223607 0.00015103 -0.03305257
v -0.02223607 0.02216185 -0.03305257
v -0.02378243 0.02216185 -0.02286891
v -0.02759990 0.00015103 -0.03408777
v -0.02764384 0.02215969 -0.03322489
v -0.02764384 0.02216185 -0.02372917
v -0.02223607 0.00015103 -0.03498749
v -0.02223607 0.02216185 -0.03498749
v -0.02725791 0.00015103 -0.03475335
v -0.02761049 0.02215969 -0.03408777
v -0.02764384 0.02216185 -0.03322489
v -0.02651464 0.00015103 -0.03498749
v -0.02651623 0.02216185 -0.03498749
v -0.02689051 0.00015103 -0.03486911
v -0.02726268 0.02216185 -0.03475204
v -0.02726162 0.02215969 -0.03475335
v -0.02761049 0.02216185 -0.03408777
f 1 2 8
f 1 8 12
f 1 12 20
f 1 20 28
f 1 28 27
f 1 27 33
f 1 33 38
f 1 38 40
f 1 40 42
f 1 42 36
f 1 36 31
f 1 31 25
f 1 25 21
f 1 21 13
f 1 13 9
f 1 9 3
f 1 3 4
f 1 4 5
f 1 5 6
f 1 6 7
f 1 7 2
f 2 7 8
f 3 9 4
f 4 10 14
f 4 14 22
f 4 22 29
f 4 29 34
f 4 34 39
f 4 39 37
f 4 37 32
f 4 32 26
f 4 26 16
f 4 16 11
f 4 11 7
f 4 7 6
f 4 6 5
f 4 9 10
f 7 11 8
f 8 11 12
f 9 13 10
f 10 13 15
f 10 15 23
f 10 23 14
f 11 16 18
f 11 18 17
f 11 17 12
f 12 17 18
f 12 18 19
f 12 19 20
f 13 21 15
f 14 23 31
f 14 31 24
f 14 24 30
f 14 30 22
f 15 21 25
f 15 25 23
f 16 26 27
f 16 27 18
f 18 27 19
f 19 27 28
f 19 28 20
f 22 30 29
f 23 25 31
f 24 31 36
f 24 36 30
f 26 32 33
f 26 33 27
f 29 30 35
f 29 35 34
f 30 36 42
f 30 42 35
f 32 37 38
f 32 38 33
f 34 35 40
f 34 40 41
f 34 41 39
f 35 42 40
f 37 39 41
f 37 41 38
f 38 41 40

