# https://github.com/mikedh/trimesh
v 0.02234975 -0.02526074 -0.01863018
v 0.02234975 -0.02445710 -0.01859458
v 0.02234975 -0.02526074 -0.00516004
v -0.00018675 -0.02526074 -0.01803151
v -0.00018675 -0.02488445 -0.01802755
v -0.00018675 -0.02445710 -0.01802228
v 0.02234975 -0.02375172 -0.01839018
v -0.00018675 -0.02526074 -0.00536839
v 0.02234975 -0.02520622 -0.00516136
v -0.00018675 -0.02445710 -0.00537366
v -0.00018675 -0.02371742 -0.01763327
v 0.02234975 -0.02366425 -0.01834535
v 0.02234975 -0.02445710 -0.00520487
v -0.00018675 -0.02371742 -0.00570596
v 0.02234975 -0.02439679 -0.00521806
v 0.02234975 -0.02368370 -0.00553718
v -0.00018675 -0.02340934 -0.01682229
v 0.02234975 -0.02340857 -0.01757789
v -0.00018675 -0.02356502 -0.00608046
v 0.02234975 -0.02359874 -0.00558069
v -0.00018675 -0.02340934 -0.00646420
v 0.02234975 -0.02329258 -0.01595857
v 0.02234975 -0.02330972 -0.01675372
v 0.02234975 -0.02331262 -0.01682229
v 0.02234975 -0.02331897 -0.00646420
v 0.02234975 -0.02329258 -0.00732660
f 1 2 7
f 1 7 12
f 1 12 18
f 1 18 24
f 1 24 23
f 1 23 22
f 1 22 26
f 1 26 25
f 1 25 20
f 1 20 16
f 1 16 15
f 1 15 13
f 1 13 9
f 1 9 3
f 1 3 8
f 1 8 4
f 1 4 5
f 1 5 6
f 1 6 2
f 2 6 7
f 3 9 10
f 3 10 8
f 4 8 10
f 4 10 14
f 4 14 19
f 4 19 21
f 4 21 17
f 4 17 11
f 4 11 6
f 4 6 5
f 6 11 12
f 6 12 7
f 9 13 10
f 10 13 15
f 10 15 16
f 10 16 14
f 11 17 12
f 12 17 18
f 14 16 20
f 14 20 19
f 17 21 26
f 17 26 22
f 17 22 23
f 17 23 24
f 17 24 18
f 19 20 21
f 20 25 21
f 21 25 26

