# https://github.com/mikedh/trimesh
v -0.04700447 -0.05471037 0.00019805
v -0.05569454 -0.05524177 0.00019805
v -0.04700447 -0.05663236 0.00019805
v -0.04700447 -0.05147672 -0.01621320
v -0.05569454 -0.05672561 0.00019805
v -0.05569454 -0.05147672 -0.01901663
v -0.04801672 -0.05687902 0.00019805
v -0.04700447 -0.05663180 0.00016604
v -0.04700447 -0.05147672 -0.02095799
v -0.05529899 -0.05679900 0.00019805
v -0.05569454 -0.05670354 -0.00078749
v -0.05569454 -0.05147672 -0.02240773
v -0.04947300 -0.05702525 0.00019805
v -0.04801672 -0.05686577 -0.00032102
v -0.04700447 -0.05662021 -0.00032102
v -0.04700447 -0.05156335 -0.02082079
v -0.04759311 -0.05187623 -0.02105861
v -0.04791720 -0.05147672 -0.02209217
v -0.05529899 -0.05678355 -0.00032102
v -0.05478181 -0.05687902 0.00019805
v -0.05569454 -0.05661470 -0.00231726
v -0.05566646 -0.05147672 -0.02241459
v -0.05569454 -0.05236735 -0.02074991
v -0.05093014 -0.05711354 0.00019805
v -0.04947300 -0.05701200 -0.00032102
v -0.04801672 -0.05682163 -0.00177532
v -0.04702999 -0.05658490 -0.00177532
v -0.04700447 -0.05659483 -0.00120595
v -0.04700447 -0.05184698 -0.02027886
v -0.04720862 -0.05209806 -0.02008678
v -0.04856453 -0.05213503 -0.02165999
v -0.04800736 -0.05147672 -0.02219050
v -0.05529899 -0.05669692 -0.00177532
v -0.05384186 -0.05697835 0.00019805
v -0.05569454 -0.05651150 -0.00361607
v -0.05431141 -0.05147672 -0.02267755
v -0.05525646 -0.05236680 -0.02082308
v -0.05384186 -0.05252572 -0.02070875
v -0.05569454 -0.05372262 -0.01768352
v -0.05238557 -0.05708209 0.00019805
v -0.05093014 -0.05708816 -0.00032102
v -0.04947300 -0.05689943 -0.00323192
v -0.04947300 -0.05696731 -0.00177532
v -0.04801672 -0.05676424 -0.00323192
v -0.04710399 -0.05654627 -0.00323192
v -0.04700447 -0.05656724 -0.00177532
v -0.04700447 -0.05218746 -0.01958143
v -0.04947300 -0.05255607 -0.02070875
v -0.04947300 -0.05218856 -0.02177661
v -0.04947300 -0.05185361 -0.02250376
v -0.04947300 -0.05147672 -0.02316232
v -0.04714142 -0.05358135 -0.01579475
v -0.04714057 -0.05506353 -0.01150043
v -0.04803543 -0.05518935 -0.01198062
v -0.04854241 -0.05358577 -0.01728107
v -0.05384186 -0.05693696 -0.00032102
v -0.05332552 -0.05701587 0.00019805
v -0.05238557 -0.05704015 -0.00032102
v -0.05569454 -0.05644860 -0.00431579
v -0.05457255 -0.05642929 -0.00542024
v -0.05093014 -0.05675210 -0.00468851
v -0.05387078 -0.05147672 -0.02274844
v -0.05384186 -0.05211296 -0.02153880
v -0.05474268 -0.05207433 -0.02146563
v -0.05238557 -0.05217311 -0.02165771
v -0.05093014 -0.05220346 -0.02174917
v -0.05238557 -0.05258532 -0.02070875
v -0.05093014 -0.05259525 -0.02070875
v -0.05529899 -0.05371654 -0.01768580
v -0.05569454 -0.05515900 -0.01327258
v -0.05093014 -0.05688233 -0.00323192
v -0.05093014 -0.05699711 -0.00177532
v -0.04947300 -0.05681556 -0.00468851
v -0.04801672 -0.05669581 -0.00468851
v -0.04700447 -0.05647288 -0.00323192
v -0.04718650 -0.05649661 -0.00468851
v -0.04700447 -0.05361280 -0.01552492
v -0.04853391 -0.05502877 -0.01287242
v -0.04947300 -0.05363101 -0.01742055
v -0.05238557 -0.05367406 -0.01755318
v -0.05030918 -0.05147672 -0.02314631
v -0.04700447 -0.05492613 -0.01162391
v -0.04700447 -0.05516893 -0.01088075
v -0.04754717 -0.05633823 -0.00760170
v -0.04855517 -0.05647122 -0.00846376
v -0.05569454 -0.05579083 -0.01051488
v -0.05201555 -0.05645412 -0.00715580
v -0.05092163 -0.05648943 -0.00762685
v -0.04947300 -0.05658766 -0.00760170
v -0.05238557 -0.05147672 -0.02296338
v -0.05164637 -0.05147672 -0.02304113
v -0.05093014 -0.05181167 -0.02247861
v -0.05238557 -0.05511044 -0.01312395
v -0.05238557 -0.05548457 -0.01196919
v -0.05384186 -0.05552706 -0.01196919
v -0.05569454 -0.05545533 -0.01233734
v -0.04947300 -0.05671623 -0.00614510
v -0.04827531 -0.05653082 -0.00760170
v -0.04790103 -0.05657772 -0.00620227
v -0.04724860 -0.05645577 -0.00575637
v -0.04700447 -0.05635755 -0.00468851
v -0.04947300 -0.05398197 -0.01633897
v -0.05093014 -0.05402501 -0.01633897
v -0.05093014 -0.05147672 -0.02310058
v -0.04700447 -0.05525943 -0.01051488
v -0.04700447 -0.05595196 -0.00765886
v -0.04733792 -0.05640335 -0.00672591
v -0.04947300 -0.05647233 -0.00848434
v -0.05529899 -0.05556017 -0.01196919
v -0.04947300 -0.05539904 -0.01196919
v -0.05569454 -0.05573399 -0.01091047
v -0.05042997 -0.05644529 -0.00839974
v -0.05569454 -0.05556017 -0.01196919
v -0.04700447 -0.05618207 -0.00646066
v -0.04700447 -0.05624553 -0.00594845
f 1 2 5
f 1 5 10
f 1 10 20
f 1 20 34
f 1 34 57
f 1 57 40
f 1 40 24
f 1 24 13
f 1 13 7
f 1 7 3
f 1 3 8
f 1 8 15
f 1 15 28
f 1 28 46
f 1 46 75
f 1 75 101
f 1 101 115
f 1 115 114
f 1 114 106
f 1 106 105
f 1 105 83
f 1 83 82
f 1 82 77
f 1 77 47
f 1 47 29
f 1 29 16
f 1 16 9
f 1 9 4
f 1 4 2
f 2 4 6
f 2 6 12
f 2 12 23
f 2 23 39
f 2 39 70
f 2 70 96
f 2 96 113
f 2 113 111
f 2 111 86
f 2 86 59
f 2 59 35
f 2 35 21
f 2 21 11
f 2 11 5
f 3 7 8
f 4 9 18
f 4 18 32
f 4 32 51
f 4 51 81
f 4 81 104
f 4 104 91
f 4 91 90
f 4 90 62
f 4 62 36
f 4 36 22
f 4 22 12
f 4 12 6
f 5 11 10
f 7 13 25
f 7 25 14
f 7 14 15
f 7 15 8
f 9 16 17
f 9 17 18
f 10 19 20
f 10 11 19
f 11 21 19
f 12 22 23
f 13 24 25
f 14 25 26
f 14 26 27
f 14 27 15
f 15 27 28
f 16 29 17
f 17 29 30
f 17 30 31
f 17 31 32
f 17 32 18
f 19 21 33
f 19 33 20
f 20 33 34
f 21 35 33
f 22 36 23
f 23 36 37
f 23 37 38
f 23 38 39
f 24 40 41
f 24 41 42
f 24 42 43
f 24 43 25
f 25 43 26
f 26 43 44
f 26 44 45
f 26 45 27
f 27 45 46
f 27 46 28
f 29 47 30
f 30 47 31
f 31 48 49
f 31 49 50
f 31 50 51
f 31 51 32
f 31 47 52
f 31 52 53
f 31 53 54
f 31 54 55
f 31 55 48
f 33 35 56
f 33 56 34
f 34 56 57
f 35 58 56
f 35 59 60
f 35 60 61
f 35 61 58
f 36 62 63
f 36 63 64
f 36 64 37
f 37 64 63
f 37 63 65
f 37 65 38
f 38 65 66
f 38 66 67
f 38 67 39
f 39 67 66
f 39 66 68
f 39 68 69
f 39 69 70
f 40 57 58
f 40 58 71
f 40 71 72
f 40 72 41
f 41 72 73
f 41 73 42
f 42 44 43
f 42 73 74
f 42 74 44
f 44 74 45
f 45 75 46
f 45 74 76
f 45 76 75
f 47 77 52
f 48 68 49
f 48 55 78
f 48 78 79
f 48 79 80
f 48 80 69
f 48 69 68
f 49 68 66
f 49 66 50
f 50 81 51
f 50 66 81
f 52 77 53
f 53 77 82
f 53 82 83
f 53 83 84
f 53 84 85
f 53 85 54
f 54 78 55
f 54 85 78
f 56 58 57
f 58 61 71
f 59 86 60
f 60 86 87
f 60 87 88
f 60 88 61
f 61 88 89
f 61 89 71
f 62 90 65
f 62 65 63
f 65 90 91
f 65 91 66
f 66 91 92
f 66 92 81
f 69 80 93
f 69 93 70
f 70 93 94
f 70 94 95
f 70 95 96
f 71 89 97
f 71 97 72
f 72 97 73
f 73 97 98
f 73 98 74
f 74 98 99
f 74 99 100
f 74 100 76
f 75 76 101
f 76 100 101
f 78 85 79
f 79 85 102
f 79 102 80
f 80 102 103
f 80 103 93
f 81 92 104
f 83 105 84
f 84 105 106
f 84 106 107
f 84 107 98
f 84 98 85
f 85 98 97
f 85 97 89
f 85 89 108
f 85 108 109
f 85 109 95
f 85 95 94
f 85 94 110
f 85 110 102
f 86 111 112
f 86 112 87
f 87 112 88
f 88 112 89
f 89 112 108
f 91 104 92
f 93 110 94
f 93 103 110
f 95 109 96
f 96 109 113
f 98 107 99
f 99 107 100
f 100 107 114
f 100 114 115
f 100 115 101
f 102 110 103
f 106 114 107
f 108 112 113
f 108 113 109
f 111 113 112

