# https://github.com/mikedh/trimesh
v -0.04598485 -0.04216188 -0.02856216
v -0.04312323 -0.03385255 -0.02856216
v -0.04356435 -0.04216188 -0.02856216
v -0.04136341 -0.04216188 -0.01682290
v -0.04088547 -0.03385255 -0.01682290
v -0.04145244 -0.03385255 -0.02856216
v -0.04350143 -0.04208867 -0.02856216
v -0.04351549 -0.04216188 -0.02848401
v -0.03980039 -0.04216188 -0.01682290
v -0.03931040 -0.03385255 -0.01682290
v -0.04125229 -0.03385255 -0.02808064
v -0.04127505 -0.03531024 -0.02778184
v -0.04197724 -0.03817844 -0.02856216
v -0.04334211 -0.04189751 -0.02856216
v -0.04334814 -0.04216188 -0.02821050
v -0.03943156 -0.03676631 -0.01925464
v -0.03946369 -0.03919769 -0.01682290
v -0.03994297 -0.04216188 -0.01809968
v -0.03958485 -0.03676631 -0.02071070
v -0.03941282 -0.03531024 -0.02071070
v -0.03930973 -0.03385336 -0.01682290
v -0.03929166 -0.03385336 -0.01779743
v -0.03929233 -0.03385255 -0.01779858
v -0.03980977 -0.03385255 -0.02390897
v -0.04137010 -0.03676631 -0.02753016
v -0.04215329 -0.03910902 -0.02856216
v -0.04144240 -0.03760903 -0.02733134
v -0.04309511 -0.04160060 -0.02856216
v -0.04306432 -0.04165998 -0.02843000
v -0.04303821 -0.04216188 -0.02760831
v -0.03935659 -0.03822237 -0.01682290
v -0.03997443 -0.04216188 -0.01835136
v -0.03998380 -0.04059274 -0.02010621
v -0.03993962 -0.04110114 -0.01919718
v -0.03976625 -0.03822237 -0.02071070
v -0.03941148 -0.03385336 -0.02216676
v -0.03928028 -0.03531024 -0.01925464
v -0.03930572 -0.03774162 -0.01682290
v -0.03918188 -0.03482868 -0.01682290
v -0.03926890 -0.03385255 -0.01925579
v -0.03977830 -0.03385255 -0.02379750
v -0.03977094 -0.03394528 -0.02374119
v -0.04106352 -0.03676631 -0.02653609
v -0.04227645 -0.03971260 -0.02856216
v -0.04138483 -0.03939536 -0.02607180
v -0.03996105 -0.03629532 -0.02304706
v -0.04267407 -0.04091568 -0.02856216
v -0.04283472 -0.04200081 -0.02745891
v -0.04273766 -0.04216188 -0.02700267
v -0.04007819 -0.04216188 -0.01885357
v -0.03999050 -0.04197641 -0.01867429
v -0.04062775 -0.04216188 -0.02114051
v -0.04063445 -0.04113531 -0.02216676
v -0.04100529 -0.04113531 -0.02362282
v -0.03998849 -0.03905208 -0.02149907
v -0.03941215 -0.03385255 -0.02216906
v -0.03928898 -0.03385336 -0.02071070
v -0.03976157 -0.03385255 -0.02373429
v -0.03918723 -0.03531024 -0.01779743
v -0.03923342 -0.03676631 -0.01682290
v -0.03914707 -0.03531024 -0.01682290
v -0.03928965 -0.03385255 -0.02071185
v -0.03987603 -0.03531024 -0.02334011
v -0.04257968 -0.04063342 -0.02856216
v -0.04149193 -0.04036661 -0.02578335
v -0.04145244 -0.04188205 -0.02437671
v -0.04120343 -0.03980045 -0.02520989
v -0.04173893 -0.04216188 -0.02465482
v -0.04130785 -0.04216188 -0.02358260
v -0.04131388 -0.04214724 -0.02362282
v -0.04135337 -0.04113531 -0.02471688
v -0.03919794 -0.03628556 -0.01682290
v -0.04132258 -0.04216188 -0.02362282
f 1 2 6
f 1 6 13
f 1 13 26
f 1 26 44
f 1 44 64
f 1 64 47
f 1 47 28
f 1 28 14
f 1 14 7
f 1 7 3
f 1 3 8
f 1 8 15
f 1 15 30
f 1 30 49
f 1 49 68
f 1 68 73
f 1 73 69
f 1 69 52
f 1 52 50
f 1 50 32
f 1 32 18
f 1 18 9
f 1 9 4
f 1 4 5
f 1 5 2
f 2 5 10
f 2 10 23
f 2 23 40
f 2 40 62
f 2 62 56
f 2 56 58
f 2 58 41
f 2 41 24
f 2 24 11
f 2 11 6
f 3 7 8
f 4 9 17
f 4 17 31
f 4 31 38
f 4 38 60
f 4 60 72
f 4 72 61
f 4 61 39
f 4 39 21
f 4 21 10
f 4 10 5
f 6 11 12
f 6 12 13
f 7 14 15
f 7 15 8
f 9 16 17
f 9 18 19
f 9 19 20
f 9 20 16
f 10 21 22
f 10 22 23
f 11 24 12
f 12 25 13
f 12 24 25
f 13 25 27
f 13 27 26
f 14 28 15
f 15 28 29
f 15 29 30
f 16 31 17
f 16 20 31
f 18 32 33
f 18 33 34
f 18 34 19
f 19 35 36
f 19 36 20
f 19 34 33
f 19 33 35
f 20 36 37
f 20 37 38
f 20 38 31
f 21 39 22
f 22 39 40
f 22 40 23
f 24 41 42
f 24 42 25
f 25 42 43
f 25 43 27
f 26 27 45
f 26 45 44
f 27 43 46
f 27 46 45
f 28 47 29
f 29 47 48
f 29 48 30
f 30 48 49
f 32 50 51
f 32 51 33
f 33 52 53
f 33 53 54
f 33 54 55
f 33 55 36
f 33 36 35
f 33 51 50
f 33 50 52
f 36 56 57
f 36 57 37
f 36 55 42
f 36 42 58
f 36 58 56
f 37 59 38
f 37 57 59
f 38 59 60
f 39 61 40
f 40 57 62
f 40 61 57
f 41 58 42
f 42 55 63
f 42 63 43
f 43 63 46
f 44 45 65
f 44 65 66
f 44 66 64
f 45 67 65
f 45 46 55
f 45 55 67
f 46 63 55
f 47 64 66
f 47 66 48
f 48 66 68
f 48 68 49
f 52 69 70
f 52 70 54
f 52 54 53
f 54 70 66
f 54 66 71
f 54 71 65
f 54 65 67
f 54 67 55
f 56 62 57
f 57 61 59
f 59 61 72
f 59 72 60
f 65 71 66
f 66 70 73
f 66 73 68
f 69 73 70

