# https://github.com/mikedh/trimesh
v -0.03677876 0.02499004 0.02843443
v -0.03842251 0.02499004 0.02843443
v -0.03671879 0.02480372 0.02843443
v -0.03674540 0.02499004 0.02825717
v -0.03782634 0.02499004 0.01989318
v -0.04008204 0.01129819 0.01989318
v -0.03862544 0.01129819 0.02540925
v -0.03833142 0.01129819 0.02613753
v -0.03736862 0.01129953 0.02843443
v -0.03659748 0.02440698 0.02843443
v -0.03561168 0.02230662 0.02679642
v -0.03659252 0.02499004 0.02735079
v -0.03629263 0.02499004 0.01989318
v -0.03814021 0.01129819 0.01989318
v -0.03777809 0.01129819 0.02735497
v -0.03702769 0.01129819 0.02843443
v -0.03558147 0.02106008 0.02843443
v -0.03554359 0.02054404 0.02843443
v -0.03547549 0.01904551 0.02843443
v -0.03561168 0.02230662 0.02636581
v -0.03626783 0.02499004 0.02240330
v -0.03629038 0.02499004 0.02385987
v -0.03637877 0.02499004 0.02531560
v -0.03651676 0.02499004 0.02677217
v -0.03626873 0.02458658 0.01989318
v -0.03627640 0.02499004 0.02094673
v -0.03812803 0.01134376 0.01989318
v -0.03812217 0.01129819 0.01992244
v -0.03554088 0.01129819 0.02843443
v -0.03561168 0.02193936 0.02636581
v -0.03550706 0.01421215 0.02843443
v -0.03626602 0.02440698 0.01989318
v -0.03626693 0.02447936 0.01989318
v -0.03719455 0.01524021 0.01989318
v -0.03810053 0.01129819 0.01996509
v -0.03559500 0.01129819 0.02800048
v -0.03628948 0.02313095 0.01989318
v -0.03553006 0.01194023 0.02843443
v -0.03551292 0.01337308 0.02843443
v -0.03551743 0.01275651 0.02843443
v -0.03700515 0.01603505 0.01989318
v -0.03706107 0.01469736 0.02068083
v -0.03681304 0.01730571 0.01989318
v -0.03664979 0.01858040 0.01989318
v -0.03649917 0.02003738 0.01989318
v -0.03648068 0.02021699 0.01989318
v -0.03636929 0.02149436 0.01989318
v -0.03635441 0.02167397 0.01989318
v -0.03629579 0.02295000 0.01989318
f 1 2 9
f 1 9 16
f 1 16 29
f 1 29 38
f 1 38 40
f 1 40 39
f 1 39 31
f 1 31 19
f 1 19 18
f 1 18 17
f 1 17 10
f 1 10 3
f 1 3 4
f 1 4 12
f 1 12 24
f 1 24 23
f 1 23 22
f 1 22 21
f 1 21 26
f 1 26 13
f 1 13 5
f 1 5 2
f 2 5 6
f 2 6 7
f 2 7 8
f 2 8 9
f 3 10 11
f 3 11 4
f 4 11 12
f 5 13 25
f 5 25 33
f 5 33 32
f 5 32 37
f 5 37 49
f 5 49 48
f 5 48 47
f 5 47 46
f 5 46 45
f 5 45 44
f 5 44 43
f 5 43 41
f 5 41 34
f 5 34 27
f 5 27 14
f 5 14 6
f 6 14 28
f 6 28 35
f 6 35 36
f 6 36 29
f 6 29 16
f 6 16 15
f 6 15 8
f 6 8 7
f 8 15 9
f 9 15 16
f 10 17 11
f 11 17 18
f 11 18 19
f 11 19 20
f 11 20 21
f 11 21 22
f 11 22 23
f 11 23 24
f 11 24 12
f 13 26 20
f 13 20 25
f 14 27 28
f 19 30 20
f 19 31 30
f 20 30 32
f 20 32 33
f 20 33 25
f 20 26 21
f 27 34 28
f 28 34 35
f 29 36 37
f 29 37 32
f 29 32 38
f 30 31 39
f 30 39 40
f 30 40 32
f 32 40 38
f 34 41 35
f 35 41 42
f 35 42 36
f 36 42 41
f 36 41 43
f 36 43 44
f 36 44 45
f 36 45 46
f 36 46 47
f 36 47 48
f 36 48 49
f 36 49 37

