# https://github.com/mikedh/trimesh
v 0.04364016 0.01744756 -0.01674213
v 0.04470029 0.01744756 -0.03368824
v 0.04215626 0.01744756 -0.01674213
v 0.04628380 0.01265899 -0.01674213
v 0.04295248 0.01744756 -0.03368824
v 0.04685179 0.01161044 -0.01674213
v 0.04695884 0.01134604 -0.01674213
v 0.04760042 0.00965569 -0.01674213
v 0.04903673 0.00531909 -0.01674213
v 0.04934451 0.00400613 -0.01674213
v 0.04944190 0.00256211 -0.01779722
v 0.04965453 0.00110452 -0.01779722
v 0.04958761 -0.00035306 -0.01925377
v 0.04960249 -0.00180839 -0.01925377
v 0.04916163 -0.00180839 -0.02057429
v 0.04383791 -0.00563879 -0.03368824
v 0.04217485 0.01712440 -0.01674213
v 0.04215403 0.01744756 -0.01747538
v 0.04233320 -0.00563879 -0.03368824
v 0.04286624 0.01744756 -0.03349248
v 0.04285211 0.01704531 -0.03368824
v 0.04957869 0.00256211 -0.01674213
v 0.04966419 0.00110452 -0.01674213
v 0.04970508 -0.00035306 -0.01779722
v 0.04973630 -0.00472130 -0.01779722
v 0.04972589 -0.00563879 -0.01779722
v 0.04956160 -0.00326597 -0.01925377
v 0.04950287 -0.00472130 -0.01925377
v 0.04944934 -0.00563879 -0.01925377
v 0.04220830 0.01672215 -0.01674213
v 0.04237037 -0.00563879 -0.03327682
v 0.04245363 -0.00563879 -0.03236108
v 0.04250865 -0.00563879 -0.03182027
v 0.04214139 0.01744756 -0.02944798
v 0.04216816 0.01566682 -0.03090453
v 0.04219418 0.01421149 -0.03236108
v 0.04225514 0.01288272 -0.03368824
v 0.04281569 0.01744756 -0.03334318
v 0.04278892 0.01676735 -0.03368824
v 0.04263206 0.01603291 -0.03368824
v 0.04968055 -0.00035306 -0.01674213
v 0.04969096 -0.00472130 -0.01674213
v 0.04969170 -0.00538569 -0.01674213
v 0.04969764 -0.00563879 -0.01688148
v 0.04963966 -0.00563879 -0.01833804
v 0.04240011 0.01566682 -0.01674213
v 0.04261273 -0.00563879 -0.03090453
v 0.04269079 -0.00563879 -0.03036372
v 0.04283427 -0.00563879 -0.02944798
v 0.04298965 -0.00563879 -0.02862680
v 0.04215626 0.01744756 -0.03058270
v 0.04216890 0.01712440 -0.03090453
v 0.04223878 0.01566682 -0.03236108
v 0.04233914 0.01434030 -0.03368824
v 0.04249898 0.01744756 -0.03237933
v 0.04242910 0.01712440 -0.03236108
v 0.04969170 -0.00563879 -0.01674213
v 0.04325357 -0.00563879 -0.02789853
v 0.04384906 -0.00563879 -0.02653487
v 0.04821375 -0.00563879 -0.01674213
v 0.04219641 0.01744756 -0.03090453
v 0.04239936 0.01744756 -0.03203925
f 1 2 5
f 1 5 20
f 1 20 38
f 1 38 55
f 1 55 62
f 1 62 61
f 1 61 51
f 1 51 34
f 1 34 18
f 1 18 3
f 1 3 17
f 1 17 30
f 1 30 46
f 1 46 60
f 1 60 57
f 1 57 43
f 1 43 42
f 1 42 41
f 1 41 23
f 1 23 22
f 1 22 10
f 1 10 9
f 1 9 8
f 1 8 7
f 1 7 6
f 1 6 4
f 1 4 2
f 2 4 6
f 2 6 7
f 2 7 8
f 2 8 9
f 2 9 10
f 2 10 11
f 2 11 12
f 2 12 13
f 2 13 14
f 2 14 15
f 2 15 16
f 2 16 19
f 2 19 37
f 2 37 54
f 2 54 40
f 2 40 39
f 2 39 21
f 2 21 5
f 3 18 19
f 3 19 17
f 5 21 20
f 10 22 11
f 11 22 12
f 12 22 23
f 12 23 24
f 12 24 13
f 13 24 14
f 14 25 26
f 14 26 27
f 14 27 15
f 14 24 25
f 15 27 28
f 15 28 29
f 15 29 16
f 16 29 45
f 16 45 26
f 16 26 44
f 16 44 57
f 16 57 60
f 16 60 59
f 16 59 58
f 16 58 50
f 16 50 49
f 16 49 48
f 16 48 47
f 16 47 33
f 16 33 32
f 16 32 31
f 16 31 19
f 17 19 31
f 17 31 32
f 17 32 33
f 17 33 30
f 18 34 19
f 19 34 35
f 19 35 36
f 19 36 37
f 20 21 39
f 20 39 40
f 20 40 38
f 23 41 24
f 24 41 25
f 25 42 43
f 25 43 44
f 25 44 26
f 25 41 42
f 26 45 27
f 27 45 28
f 28 45 29
f 30 33 47
f 30 47 48
f 30 48 49
f 30 49 50
f 30 50 46
f 34 51 35
f 35 51 36
f 36 51 52
f 36 52 37
f 37 52 53
f 37 53 54
f 38 40 55
f 40 56 55
f 40 54 56
f 43 57 44
f 46 50 58
f 46 58 59
f 46 59 60
f 51 61 52
f 52 61 53
f 53 61 62
f 53 62 54
f 54 62 56
f 55 56 62

