# https://github.com/mikedh/trimesh
v 0.05436984 0.03665561 -0.02856172
v 0.05393992 0.03665561 -0.02852995
v 0.05436984 0.03721102 -0.02785418
v 0.05436984 0.03665561 -0.02587595
v 0.05385966 0.03665561 -0.02852128
v 0.05393992 0.03719322 -0.02783685
v 0.05436984 0.03793970 -0.02682897
v 0.04625145 0.03665561 -0.01832695
v 0.05436984 0.04465518 0.00094122
v 0.04625145 0.04230898 0.00094122
v 0.05248328 0.03665561 -0.02835667
v 0.05248328 0.03711830 -0.02773577
v 0.05393992 0.03792191 -0.02680009
v 0.05436984 0.03845296 -0.02610121
v 0.04625145 0.03665561 -0.02246822
v 0.05436984 0.04600109 0.00094122
v 0.04625145 0.04401080 0.00094122
v 0.05222104 0.03665561 -0.02830469
v 0.05102664 0.03701527 -0.02758560
v 0.05034720 0.03823661 -0.02579798
v 0.05131829 0.03829374 -0.02587595
v 0.05102664 0.04002740 -0.02335769
v 0.05248328 0.04010233 -0.02346743
v 0.05393992 0.03843049 -0.02607233
v 0.05436984 0.03987473 -0.02405368
v 0.04625145 0.03668839 -0.02241912
v 0.04723923 0.03665561 -0.02422407
v 0.05393992 0.04601794 0.00094122
v 0.05436984 0.04608445 -0.00032080
v 0.05393992 0.04611161 -0.00032080
v 0.04680375 0.04434610 0.00094122
v 0.04625145 0.04392369 -0.00323182
v 0.05102664 0.03665561 -0.02806788
v 0.05065235 0.03665561 -0.02792637
v 0.05016204 0.03689632 -0.02741521
v 0.04902009 0.03955910 -0.02269636
v 0.04999118 0.03989347 -0.02316709
v 0.05020574 0.04120284 -0.02150365
v 0.05102664 0.04075515 -0.02230649
v 0.05102664 0.04124593 -0.02157874
v 0.05436984 0.03998900 -0.02388041
v 0.04625145 0.03730562 -0.02148055
v 0.04726704 0.03838459 -0.02165094
v 0.04712559 0.03709488 -0.02335769
v 0.04740055 0.03677456 -0.02433092
v 0.04752849 0.03665561 -0.02463704
v 0.05248328 0.04603949 0.00094122
v 0.05248328 0.04616218 -0.00032080
v 0.05436984 0.04607133 -0.00177631
v 0.05393992 0.04611348 -0.00177631
v 0.05248328 0.04622306 -0.00177631
v 0.04980205 0.04574633 0.00094122
v 0.04988390 0.04571729 -0.00614572
v 0.04690308 0.04430957 -0.00323182
v 0.04702944 0.04428522 -0.00469021
v 0.04625145 0.04383097 -0.00412418
v 0.05001582 0.03665561 -0.02755384
v 0.04888659 0.03820008 -0.02429915
v 0.04865136 0.03992531 -0.02172602
v 0.04879282 0.04120472 -0.02006836
v 0.04923465 0.04089657 -0.02103870
v 0.04966060 0.04137612 -0.02061706
v 0.05006430 0.04270891 -0.01736527
v 0.05102664 0.04163930 -0.02070948
v 0.05248328 0.04124593 -0.02160473
v 0.05436984 0.04067366 -0.02267326
v 0.05436984 0.04008922 -0.02370424
v 0.04625145 0.03935023 -0.01837027
v 0.04713671 0.03999462 -0.01896806
v 0.04842727 0.04041797 -0.02061706
v 0.04789324 0.03665561 -0.02507889
v 0.05122293 0.04602169 0.00094122
v 0.05436984 0.04604885 -0.00220661
v 0.05436984 0.04598985 -0.00323182
v 0.05393992 0.04602918 -0.00323182
v 0.05248328 0.04615094 -0.00323182
v 0.05102664 0.04591492 -0.00614572
v 0.05102664 0.04598516 -0.00469021
v 0.05102664 0.04604979 -0.00323182
v 0.05102664 0.04607882 -0.00177631
v 0.05102664 0.04605541 -0.00032080
v 0.05102664 0.04600764 0.00094122
v 0.04995940 0.04579035 0.00094122
v 0.05002377 0.04565735 -0.00760412
v 0.04724718 0.04417002 -0.00614572
v 0.04630072 0.04380006 -0.00469021
v 0.04625145 0.04377664 -0.00462379
v 0.04929585 0.04524618 -0.00760412
v 0.04898592 0.03665561 -0.02637268
v 0.04877613 0.03684949 -0.02588462
v 0.04866011 0.03665561 -0.02599436
v 0.04757537 0.04096588 -0.01815078
v 0.04732982 0.04120097 -0.01718044
v 0.04858302 0.04135926 -0.01925108
v 0.04880553 0.04263773 -0.01569317
v 0.04909320 0.04247382 -0.01666351
v 0.04625145 0.04000024 -0.01734506
v 0.04625145 0.04017913 -0.01704182
v 0.05102664 0.04274637 -0.01748656
v 0.04957557 0.04283442 -0.01624187
v 0.05020416 0.04557493 -0.00848493
v 0.05013979 0.04414192 -0.01292655
v 0.05248328 0.04160465 -0.02070948
v 0.05393992 0.04120472 -0.02154697
v 0.05393992 0.04087690 -0.02227473
v 0.05436984 0.04088440 -0.02221119
v 0.04625145 0.03956285 -0.01803527
v 0.05436984 0.04596081 -0.00366212
v 0.05436984 0.04587652 -0.00469021
v 0.05393992 0.04591023 -0.00469021
v 0.05248328 0.04601420 -0.00469021
v 0.05248328 0.04587090 -0.00614572
v 0.05102664 0.04576600 -0.00760412
v 0.04625145 0.04344508 -0.00614572
v 0.04625145 0.04351533 -0.00584538
v 0.04625145 0.04376634 -0.00468444
v 0.04805695 0.04443414 -0.00747994
v 0.04737353 0.04407917 -0.00691391
v 0.04867679 0.04418407 -0.01017148
v 0.04846461 0.04434048 -0.00905963
v 0.04625145 0.04055003 -0.01634006
v 0.04640482 0.04070270 -0.01634006
v 0.04625145 0.04065961 -0.01611769
v 0.04625145 0.04086754 -0.01566429
v 0.04625145 0.04110637 -0.01505783
v 0.04625145 0.04130868 -0.01444559
v 0.04713354 0.04133022 -0.01634006
v 0.04808238 0.04152410 -0.01771760
v 0.04830171 0.04297397 -0.01342904
v 0.05436984 0.04302548 -0.01634006
v 0.05248328 0.04272764 -0.01742592
v 0.05102664 0.04416908 -0.01301030
v 0.05248328 0.04415035 -0.01295254
v 0.05102664 0.04558991 -0.00853114
v 0.05393992 0.04152129 -0.02070948
v 0.05436984 0.04148289 -0.02074702
v 0.05436984 0.04137799 -0.02103003
v 0.05436984 0.04119254 -0.02152098
v 0.05393992 0.04270891 -0.01736238
v 0.05436984 0.04270423 -0.01733928
v 0.05436984 0.04111761 -0.02169137
v 0.05436984 0.04583718 -0.00512051
v 0.05436984 0.04573696 -0.00614572
v 0.05436984 0.04570606 -0.00645762
v 0.05436984 0.04559554 -0.00756658
v 0.05400429 0.04560771 -0.00769653
v 0.05248328 0.04570699 -0.00760412
v 0.05356166 0.04554964 -0.00840407
v 0.05248328 0.04557118 -0.00847338
v 0.04625145 0.04282317 -0.00871019
v 0.04697460 0.04290934 -0.01051514
v 0.04719552 0.04274637 -0.01169052
v 0.04625145 0.04138736 -0.01417124
v 0.05436984 0.04433205 -0.01222767
v 0.05248328 0.04446130 -0.01197353
v 0.05393992 0.04442384 -0.01197353
v 0.05436984 0.04548502 -0.00826834
v 0.05436984 0.04441260 -0.01197353
v 0.04625145 0.04237079 -0.01051514
v 0.04625145 0.04198304 -0.01205151
v 0.04625145 0.04159997 -0.01342904
f 1 2 3
f 1 3 7
f 1 7 14
f 1 14 25
f 1 25 41
f 1 41 67
f 1 67 66
f 1 66 106
f 1 106 141
f 1 141 138
f 1 138 137
f 1 137 136
f 1 136 140
f 1 140 130
f 1 130 154
f 1 154 158
f 1 158 157
f 1 157 145
f 1 145 144
f 1 144 143
f 1 143 142
f 1 142 109
f 1 109 108
f 1 108 74
f 1 74 73
f 1 73 49
f 1 49 29
f 1 29 16
f 1 16 9
f 1 9 4
f 1 4 8
f 1 8 15
f 1 15 27
f 1 27 46
f 1 46 71
f 1 71 91
f 1 91 89
f 1 89 57
f 1 57 34
f 1 34 33
f 1 33 18
f 1 18 11
f 1 11 5
f 1 5 2
f 2 5 6
f 2 6 3
f 3 6 7
f 4 9 10
f 4 10 8
f 5 11 6
f 6 11 12
f 6 12 13
f 6 13 14
f 6 14 7
f 8 10 17
f 8 17 32
f 8 32 56
f 8 56 87
f 8 87 116
f 8 116 115
f 8 115 114
f 8 114 150
f 8 150 159
f 8 159 160
f 8 160 161
f 8 161 153
f 8 153 126
f 8 126 125
f 8 125 124
f 8 124 123
f 8 123 121
f 8 121 98
f 8 98 97
f 8 97 107
f 8 107 68
f 8 68 42
f 8 42 26
f 8 26 15
f 9 16 28
f 9 28 47
f 9 47 72
f 9 72 82
f 9 82 83
f 9 83 52
f 9 52 31
f 9 31 17
f 9 17 10
f 11 18 19
f 11 19 12
f 12 19 20
f 12 20 21
f 12 21 22
f 12 22 23
f 12 23 13
f 13 24 14
f 13 23 24
f 14 24 23
f 14 23 25
f 15 26 27
f 16 29 30
f 16 30 28
f 17 31 32
f 18 33 19
f 19 33 20
f 20 33 34
f 20 34 35
f 20 35 36
f 20 36 37
f 20 37 38
f 20 38 22
f 20 22 21
f 22 38 39
f 22 39 23
f 23 39 40
f 23 40 25
f 25 40 41
f 26 42 43
f 26 43 44
f 26 44 45
f 26 45 27
f 27 45 46
f 28 30 48
f 28 48 47
f 29 49 50
f 29 50 51
f 29 51 30
f 30 51 48
f 31 52 53
f 31 53 54
f 31 54 32
f 32 54 55
f 32 55 56
f 34 57 35
f 35 57 58
f 35 58 36
f 36 59 60
f 36 60 61
f 36 61 37
f 36 58 45
f 36 45 59
f 37 61 38
f 38 40 39
f 38 61 60
f 38 60 62
f 38 62 63
f 38 63 64
f 38 64 40
f 40 65 66
f 40 66 67
f 40 67 41
f 40 64 65
f 42 68 43
f 43 45 44
f 43 68 69
f 43 69 70
f 43 70 45
f 45 70 60
f 45 60 59
f 45 58 71
f 45 71 46
f 47 48 72
f 48 51 72
f 49 73 50
f 50 73 74
f 50 74 75
f 50 75 76
f 50 76 51
f 51 76 77
f 51 77 78
f 51 78 79
f 51 79 80
f 51 80 81
f 51 81 82
f 51 82 72
f 52 83 80
f 52 80 53
f 53 55 54
f 53 80 79
f 53 79 78
f 53 78 77
f 53 77 84
f 53 84 55
f 55 85 86
f 55 86 87
f 55 87 56
f 55 84 88
f 55 88 85
f 57 89 58
f 58 89 90
f 58 90 91
f 58 91 71
f 60 92 93
f 60 93 94
f 60 94 95
f 60 95 96
f 60 96 63
f 60 63 62
f 60 70 69
f 60 69 97
f 60 97 98
f 60 98 92
f 63 99 64
f 63 96 100
f 63 100 101
f 63 101 102
f 63 102 99
f 64 99 103
f 64 103 65
f 65 104 105
f 65 105 66
f 65 103 104
f 66 105 106
f 68 107 69
f 69 107 97
f 74 108 75
f 75 108 76
f 76 108 109
f 76 109 110
f 76 110 111
f 76 111 77
f 77 112 113
f 77 113 84
f 77 111 112
f 80 83 81
f 81 83 82
f 84 113 101
f 84 101 88
f 85 114 115
f 85 115 116
f 85 116 86
f 85 88 117
f 85 117 118
f 85 118 114
f 86 116 87
f 88 101 119
f 88 119 120
f 88 120 117
f 89 91 90
f 92 98 121
f 92 121 122
f 92 122 93
f 93 122 123
f 93 123 124
f 93 124 125
f 93 125 126
f 93 126 127
f 93 127 95
f 93 95 128
f 93 128 94
f 94 128 95
f 95 127 126
f 95 126 129
f 95 129 119
f 95 119 101
f 95 101 96
f 96 101 100
f 99 130 131
f 99 131 103
f 99 102 101
f 99 101 132
f 99 132 133
f 99 133 130
f 101 113 134
f 101 134 132
f 103 135 136
f 103 136 137
f 103 137 138
f 103 138 104
f 103 131 139
f 103 139 140
f 103 140 135
f 104 138 141
f 104 141 106
f 104 106 105
f 109 142 110
f 110 142 143
f 110 143 111
f 111 143 112
f 112 143 144
f 112 144 145
f 112 145 146
f 112 146 147
f 112 147 113
f 113 147 148
f 113 148 149
f 113 149 134
f 114 118 150
f 117 120 151
f 117 151 118
f 118 151 150
f 119 152 120
f 119 129 126
f 119 126 152
f 120 152 151
f 121 123 122
f 126 153 152
f 130 140 139
f 130 139 131
f 130 133 154
f 132 134 155
f 132 155 133
f 133 155 156
f 133 156 154
f 134 149 155
f 135 140 136
f 145 157 148
f 145 148 146
f 146 148 147
f 148 157 158
f 148 158 149
f 149 158 156
f 149 156 155
f 150 151 159
f 151 152 160
f 151 160 159
f 152 153 161
f 152 161 160
f 154 156 158

