# https://github.com/mikedh/trimesh
v 0.04416354 0.02235706 0.04257858
v 0.04412538 0.02231315 0.04257858
v 0.04416354 0.01913460 0.04257858
v 0.04416354 0.02381458 0.04146815
v 0.04379086 0.02192338 0.04257858
v 0.03978265 0.00694469 0.04257858
v 0.04416354 0.03276556 0.03019420
v 0.04416354 0.02392163 0.04138208
v 0.04309437 0.02110815 0.04257858
v 0.03978222 0.02331227 0.03019420
v 0.03978222 0.00838574 0.04257858
v 0.03978222 0.00838574 0.04203306
v 0.04416354 0.03498341 0.03019420
v 0.04416354 0.02556031 0.04004860
v 0.04415497 0.02554110 0.04005588
v 0.04294727 0.02090504 0.04257858
v 0.04416354 0.02727859 0.03863148
v 0.04416354 0.02789893 0.03811749
v 0.04324748 0.02333698 0.04088870
v 0.03978222 0.02735545 0.03019420
v 0.03978222 0.01419111 0.04257858
v 0.04378056 0.03485440 0.03019420
v 0.04416354 0.03398428 0.03207198
v 0.04293055 0.02236804 0.04131904
v 0.04136089 0.02111913 0.04003163
v 0.04283920 0.02071015 0.04257858
v 0.04416354 0.02865651 0.03746772
v 0.04416354 0.02947448 0.03676219
v 0.03978222 0.02789893 0.03020027
v 0.03978651 0.02791266 0.03019420
v 0.04015491 0.01509692 0.04257858
v 0.03982468 0.01567059 0.04164393
v 0.03978222 0.01543179 0.04171909
v 0.04374497 0.03483244 0.03019420
v 0.04299874 0.03389919 0.03102945
v 0.04416354 0.03273263 0.03375702
v 0.04131028 0.02263978 0.03865209
v 0.04001553 0.02236804 0.03695373
v 0.04033932 0.02179711 0.03792474
v 0.04318401 0.02485214 0.03948248
v 0.04300131 0.03244167 0.03247566
v 0.04007085 0.02082818 0.03832963
v 0.04246780 0.02004040 0.04257858
v 0.04416354 0.03145352 0.03502139
v 0.03978222 0.02668571 0.03172528
v 0.03991517 0.02697940 0.03172528
v 0.04141707 0.03125589 0.03026936
v 0.04140377 0.03128334 0.03019420
v 0.04062023 0.01613996 0.04257858
v 0.04002325 0.01657639 0.04131904
v 0.03978222 0.01567059 0.04155180
v 0.03989116 0.02004040 0.03861693
v 0.03978222 0.02004040 0.03839388
v 0.04290053 0.03417916 0.03019420
v 0.04149427 0.02816518 0.03401280
v 0.04416354 0.03246912 0.03406493
v 0.04287308 0.03411054 0.03026936
v 0.04282119 0.03405839 0.03019420
v 0.04143723 0.03134922 0.03019420
v 0.04155903 0.03096219 0.03099914
v 0.04138962 0.03014423 0.03158102
v 0.04026556 0.02626574 0.03350487
v 0.04002582 0.02529406 0.03407947
v 0.03999108 0.02388595 0.03555115
v 0.03978222 0.02288682 0.03607120
v 0.03983755 0.02138538 0.03748348
v 0.04402759 0.03166762 0.03463711
v 0.04416354 0.03212327 0.03439830
v 0.04160620 0.01833036 0.04257858
v 0.04174301 0.01892050 0.04236643
v 0.04143208 0.01956006 0.04139542
v 0.04206981 0.01927733 0.04257858
v 0.03978222 0.02582382 0.03280418
v 0.03987872 0.02581284 0.03308421
v 0.04007214 0.02665551 0.03253385
v 0.04105596 0.01711164 0.04257858
v 0.04137075 0.01781158 0.04257858
v 0.04147325 0.01803940 0.04257858
v 0.03978222 0.02122618 0.03749075
v 0.04286450 0.03413525 0.03019420
v 0.03980238 0.02438551 0.03459468
v 0.03978222 0.02290604 0.03605302
v 0.03978222 0.02139362 0.03735256
v 0.04185109 0.01885463 0.04257858
v 0.03978222 0.02438551 0.03453649
v 0.03978222 0.02433611 0.03459589
f 1 2 5
f 1 5 9
f 1 9 16
f 1 16 26
f 1 26 43
f 1 43 72
f 1 72 84
f 1 84 69
f 1 69 78
f 1 78 77
f 1 77 76
f 1 76 49
f 1 49 31
f 1 31 21
f 1 21 11
f 1 11 6
f 1 6 3
f 1 3 7
f 1 7 13
f 1 13 23
f 1 23 36
f 1 36 56
f 1 56 68
f 1 68 44
f 1 44 28
f 1 28 27
f 1 27 18
f 1 18 17
f 1 17 14
f 1 14 8
f 1 8 4
f 1 4 2
f 2 4 5
f 3 6 7
f 4 8 9
f 4 9 5
f 6 10 7
f 6 11 12
f 6 12 10
f 7 10 20
f 7 20 30
f 7 30 48
f 7 48 59
f 7 59 58
f 7 58 80
f 7 80 54
f 7 54 34
f 7 34 22
f 7 22 13
f 8 14 15
f 8 15 9
f 9 15 17
f 9 17 18
f 9 18 19
f 9 19 16
f 10 12 11
f 10 11 21
f 10 21 33
f 10 33 51
f 10 51 53
f 10 53 79
f 10 79 83
f 10 83 65
f 10 65 82
f 10 82 86
f 10 86 85
f 10 85 73
f 10 73 45
f 10 45 29
f 10 29 20
f 13 22 23
f 14 17 15
f 16 19 24
f 16 24 25
f 16 25 26
f 18 27 19
f 19 27 28
f 19 28 24
f 20 29 30
f 21 31 32
f 21 32 33
f 22 34 35
f 22 35 23
f 23 35 36
f 24 37 38
f 24 38 39
f 24 39 25
f 24 28 40
f 24 40 41
f 24 41 37
f 25 42 43
f 25 43 26
f 25 39 42
f 28 44 40
f 29 45 46
f 29 46 30
f 30 46 47
f 30 47 48
f 31 49 50
f 31 50 32
f 32 51 33
f 32 50 52
f 32 52 53
f 32 53 51
f 34 54 35
f 35 55 41
f 35 41 56
f 35 56 36
f 35 54 57
f 35 57 58
f 35 58 59
f 35 59 48
f 35 48 47
f 35 47 60
f 35 60 61
f 35 61 62
f 35 62 63
f 35 63 64
f 35 64 55
f 37 41 38
f 38 65 66
f 38 66 42
f 38 42 39
f 38 41 55
f 38 55 64
f 38 64 65
f 40 44 67
f 40 67 41
f 41 67 68
f 41 68 56
f 42 52 69
f 42 69 70
f 42 70 71
f 42 71 43
f 42 66 52
f 43 71 72
f 44 68 67
f 45 73 46
f 46 73 74
f 46 74 75
f 46 75 47
f 47 61 60
f 47 75 61
f 49 76 50
f 50 76 77
f 50 77 78
f 50 78 52
f 52 66 53
f 52 78 69
f 53 66 79
f 54 80 57
f 57 80 58
f 61 75 74
f 61 74 62
f 62 74 63
f 63 74 81
f 63 81 64
f 64 81 82
f 64 82 65
f 65 83 66
f 66 83 79
f 69 84 70
f 70 84 72
f 70 72 71
f 73 85 81
f 73 81 74
f 81 85 86
f 81 86 82

