# https://github.com/mikedh/trimesh
v -0.04442904 -0.00515677 0.01989234
v -0.04441604 -0.00472191 0.01989234
v -0.04238771 -0.00515677 0.01989234
v -0.03648940 -0.00515677 0.03692023
v -0.03719337 0.01129685 0.03692023
v -0.04432781 -0.00410345 0.01989234
v -0.03840256 0.01023710 0.01989234
v -0.04157415 -0.00515677 0.02090742
v -0.03498208 -0.00515677 0.03692023
v -0.04008169 0.01129685 0.01989234
v -0.04386345 -0.00196783 0.01989234
v -0.04388945 -0.00206769 0.01989234
v -0.04419314 -0.00326595 0.01989234
v -0.03556532 0.01129685 0.03692023
v -0.03814067 0.01129685 0.01989234
v -0.04026837 -0.00515677 0.02262754
v -0.04099648 -0.00515677 0.02163580
v -0.03496165 -0.00515677 0.03652687
v -0.03494401 -0.00472191 0.03609350
v -0.03498765 -0.00472191 0.03692023
v -0.03537958 0.00692898 0.03692023
v -0.03538236 0.00984089 0.03609350
v -0.03544459 0.01129685 0.03609350
v -0.03812302 0.01129685 0.01992235
v -0.03684974 -0.00515677 0.02768790
v -0.03718687 -0.00515677 0.02717786
v -0.03793449 -0.00515677 0.02605278
v -0.03872762 -0.00515677 0.02486936
v -0.03975850 -0.00515677 0.02335592
v -0.03494215 -0.00515677 0.03609350
v -0.03506567 0.00256110 0.03463673
v -0.03519940 0.01129685 0.03317996
v -0.03508146 0.00401545 0.03463673
v -0.03496722 -0.00326595 0.03609350
v -0.03499787 -0.00409218 0.03692023
v -0.03528299 0.00464679 0.03692023
v -0.03525884 0.00692898 0.03609350
v -0.03523841 0.01129685 0.03463673
v -0.03810166 0.01129685 0.01996568
v -0.03574921 -0.00515677 0.02975971
v -0.03607611 -0.00515677 0.02911967
v -0.03623493 -0.00515677 0.02881131
v -0.03667979 -0.00515677 0.02799459
v -0.03503316 -0.00515677 0.03507010
v -0.03549381 0.01129685 0.02881131
v -0.03539165 0.01129685 0.03026809
v -0.03519197 0.00984089 0.03317996
v -0.03519940 0.00984089 0.03463673
v -0.03513997 0.00692898 0.03463673
v -0.03511025 0.00547141 0.03463673
v -0.03499694 -0.00180838 0.03609350
v -0.03503038 -0.00263461 0.03692023
v -0.03505638 0.00110353 0.03609350
v -0.03522169 0.00318923 0.03692023
v -0.03513625 0.00401545 0.03609350
v -0.03508889 0.00256110 0.03609350
v -0.03559504 0.01129685 0.02800126
v -0.03559504 -0.00180838 0.02945636
v -0.03562011 -0.00281821 0.02950803
v -0.03567212 -0.00378939 0.02960804
v -0.03567212 -0.00515677 0.02997640
v -0.03521612 -0.00515677 0.03317996
v -0.03535729 -0.00515677 0.03172319
v -0.03544366 0.00110353 0.03026809
v -0.03545759 -0.00035243 0.03026809
v -0.03507124 -0.00117865 0.03692023
v -0.03516597 0.00173488 0.03692023
v -0.03511675 0.00027892 0.03692023
v -0.03557089 -0.00035243 0.02940136
v -0.03548081 -0.00515677 0.03082979
v -0.03553189 -0.00515677 0.03048810
f 1 2 6
f 1 6 13
f 1 13 12
f 1 12 11
f 1 11 10
f 1 10 15
f 1 15 7
f 1 7 3
f 1 3 8
f 1 8 17
f 1 17 16
f 1 16 29
f 1 29 28
f 1 28 27
f 1 27 26
f 1 26 25
f 1 25 43
f 1 43 42
f 1 42 41
f 1 41 40
f 1 40 61
f 1 61 71
f 1 71 70
f 1 70 63
f 1 63 62
f 1 62 44
f 1 44 30
f 1 30 18
f 1 18 9
f 1 9 4
f 1 4 5
f 1 5 2
f 2 5 6
f 3 7 8
f 4 9 20
f 4 20 35
f 4 35 52
f 4 52 66
f 4 66 68
f 4 68 67
f 4 67 54
f 4 54 36
f 4 36 21
f 4 21 14
f 4 14 5
f 5 10 11
f 5 11 12
f 5 12 13
f 5 13 6
f 5 14 23
f 5 23 38
f 5 38 32
f 5 32 46
f 5 46 45
f 5 45 57
f 5 57 39
f 5 39 24
f 5 24 15
f 5 15 10
f 7 15 16
f 7 16 17
f 7 17 8
f 9 18 19
f 9 19 20
f 14 21 22
f 14 22 23
f 15 24 25
f 15 25 26
f 15 26 27
f 15 27 28
f 15 28 29
f 15 29 16
f 18 30 19
f 19 30 31
f 19 31 32
f 19 32 33
f 19 33 34
f 19 34 20
f 20 34 35
f 21 36 37
f 21 37 22
f 22 37 38
f 22 38 23
f 24 39 40
f 24 40 41
f 24 41 42
f 24 42 43
f 24 43 25
f 30 44 45
f 30 45 46
f 30 46 31
f 31 47 32
f 31 46 47
f 32 38 48
f 32 48 49
f 32 49 50
f 32 50 33
f 32 47 46
f 33 50 34
f 34 51 35
f 34 50 49
f 34 49 51
f 35 51 53
f 35 53 56
f 35 56 52
f 36 54 55
f 36 55 37
f 37 55 38
f 38 55 56
f 38 56 48
f 39 57 58
f 39 58 59
f 39 59 60
f 39 60 40
f 40 60 61
f 44 62 45
f 45 62 63
f 45 63 64
f 45 64 65
f 45 65 57
f 48 56 53
f 48 53 51
f 48 51 49
f 52 56 66
f 54 67 55
f 55 67 68
f 55 68 56
f 56 68 66
f 57 65 69
f 57 69 58
f 58 69 63
f 58 63 70
f 58 70 71
f 58 71 59
f 59 71 61
f 59 61 60
f 63 69 65
f 63 65 64

