# https://github.com/mikedh/trimesh
v 0.04410166 -0.01055081 0.05134951
v 0.04355977 -0.01055081 0.05092992
v 0.04410166 -0.01200709 0.05134275
v 0.04410166 -0.00909236 0.05133733
v 0.04359570 -0.00561118 0.05093804
v 0.04358030 -0.00763608 0.05093533
v 0.04356930 -0.00909236 0.05093263
v 0.04276856 -0.01055081 0.05020173
v 0.04355463 -0.01200709 0.05086224
v 0.04274729 -0.00561118 0.05020985
v 0.04275023 -0.00763608 0.05020714
v 0.04275242 -0.00909236 0.05020444
v 0.04410166 -0.01322897 0.05116408
v 0.04410166 -0.00617981 0.05131026
v 0.04410166 -0.00578481 0.05130620
v 0.04410166 -0.00561118 0.05130349
v 0.04284922 -0.01200709 0.05013405
v 0.04132253 -0.00763608 0.04871963
v 0.03989850 -0.00617981 0.04723618
v 0.04135919 -0.00909236 0.04869933
v 0.04294894 -0.01310093 0.05002307
v 0.04159238 -0.00561118 0.04900793
v 0.04059145 -0.00561118 0.04796572
v 0.04059219 -0.00617981 0.04796437
v 0.04312933 -0.01491965 0.04979432
v 0.04331119 -0.01637592 0.04961024
v 0.04306700 -0.02569307 0.04698036
v 0.04410166 -0.01669496 0.05018955
v 0.04410166 -0.00561118 0.04912974
v 0.03995570 -0.00763608 0.04719151
v 0.03855147 -0.00617981 0.04567557
v 0.03717584 -0.01863522 0.04121573
v 0.03989557 -0.00561118 0.04723753
v 0.03916742 -0.00561118 0.04643218
v 0.03852287 -0.00561118 0.04570399
v 0.03861747 -0.02018048 0.04268565
v 0.04295188 -0.01891085 0.04856262
v 0.04295335 -0.02472077 0.04709541
v 0.04257497 -0.02656987 0.04614389
v 0.04274583 -0.02778308 0.04593409
v 0.04286902 -0.02778308 0.04605591
v 0.04331265 -0.02656987 0.04687208
v 0.04404080 -0.02656987 0.04719286
v 0.04410166 -0.02674567 0.04716444
v 0.03802791 -0.00561118 0.03752333
v 0.04410166 -0.02778308 0.04458464
v 0.03821489 -0.00561118 0.04519101
v 0.03804771 -0.00617981 0.04483233
v 0.03824129 -0.00755795 0.04492437
v 0.03715824 -0.01783003 0.04125092
v 0.03704458 -0.01783003 0.04046453
v 0.03710764 -0.01918648 0.04043746
v 0.03713844 -0.02048432 0.03993530
v 0.03719710 -0.02145445 0.03971739
v 0.03741489 -0.02087932 0.04043746
v 0.03842314 -0.02219887 0.04158389
v 0.03885358 -0.02219887 0.04231208
v 0.03872819 -0.02115278 0.04256113
v 0.03802424 -0.00561118 0.04483233
v 0.04116634 -0.02511360 0.04463742
v 0.04184683 -0.02656987 0.04507596
v 0.04140613 -0.02656987 0.04434912
v 0.04202648 -0.02778308 0.04474435
v 0.04374456 -0.02778308 0.04663657
v 0.04397041 -0.02778308 0.04674755
v 0.04410166 -0.02764852 0.04685990
v 0.03661121 -0.00561118 0.03752333
v 0.04001509 -0.02778308 0.03752333
v 0.04410166 -0.02778308 0.04677056
v 0.03714651 -0.01637592 0.04129423
v 0.03701965 -0.01637592 0.04046453
v 0.03731516 -0.01200709 0.04225388
v 0.03692066 -0.01783003 0.03900815
v 0.03695439 -0.01928631 0.03900815
v 0.03684146 -0.01346337 0.03900815
v 0.03686713 -0.01491965 0.03900815
v 0.03707538 -0.02087932 0.03914214
v 0.03782186 -0.02219887 0.04046453
v 0.03714211 -0.02194494 0.03874691
v 0.03719784 -0.02291724 0.03826642
v 0.03787245 -0.02659592 0.03752333
v 0.03787392 -0.02656987 0.03755176
v 0.03818116 -0.02778308 0.03752333
v 0.03820683 -0.02778308 0.03760455
v 0.03829776 -0.02778308 0.03781976
v 0.03838428 -0.02656987 0.03876857
v 0.03858007 -0.02312342 0.04131724
v 0.03997770 -0.02475332 0.04288191
v 0.03979071 -0.02365732 0.04313502
v 0.03775806 -0.00561118 0.04394577
v 0.04153958 -0.02735553 0.04414203
v 0.04192602 -0.02778308 0.04457380
v 0.03661121 -0.00562203 0.03752333
v 0.03661268 -0.00561118 0.03755176
v 0.03713844 -0.01200709 0.04152569
v 0.03698812 -0.01346337 0.04046453
v 0.03674907 -0.00561118 0.03900815
v 0.03677107 -0.00763608 0.03900815
v 0.03680333 -0.01055081 0.03900815
v 0.03681946 -0.01200709 0.03900815
v 0.03712671 -0.00561118 0.04161231
v 0.03713037 -0.00763608 0.04158795
v 0.03713624 -0.01055081 0.04155276
v 0.03683266 -0.01783003 0.03752333
v 0.03686126 -0.01928631 0.03755176
v 0.03686053 -0.01931453 0.03752333
v 0.03692432 -0.02074259 0.03752333
v 0.03692652 -0.02074259 0.03755176
v 0.03662148 -0.00620802 0.03752333
v 0.03667427 -0.00912058 0.03752333
v 0.03678133 -0.01491965 0.03755176
v 0.03706291 -0.02232475 0.03752333
v 0.03707904 -0.02233777 0.03768982
v 0.03692652 -0.02077080 0.03752333
v 0.03831609 -0.02362910 0.04049972
v 0.03715824 -0.02325798 0.03752333
v 0.03727483 -0.02387218 0.03752333
v 0.03843048 -0.02778308 0.03807693
v 0.03855440 -0.02757039 0.03845185
v 0.03848474 -0.02486184 0.04003817
v 0.04136433 -0.02778308 0.04354513
v 0.03697712 -0.01200709 0.04046453
v 0.03695292 -0.00561118 0.04046453
v 0.03697125 -0.01055081 0.04046453
v 0.03685979 -0.01928631 0.03752333
v 0.03710764 -0.02276966 0.03752333
v 0.03980391 -0.02778308 0.04064049
v 0.03988751 -0.02778308 0.04079614
f 1 2 3
f 1 3 13
f 1 13 28
f 1 28 44
f 1 44 66
f 1 66 69
f 1 69 46
f 1 46 29
f 1 29 16
f 1 16 15
f 1 15 14
f 1 14 4
f 1 4 5
f 1 5 6
f 1 6 7
f 1 7 2
f 2 8 9
f 2 9 3
f 2 7 10
f 2 10 11
f 2 11 12
f 2 12 8
f 3 9 13
f 4 14 5
f 5 14 15
f 5 15 16
f 5 16 29
f 5 29 45
f 5 45 67
f 5 67 94
f 5 94 97
f 5 97 123
f 5 123 101
f 5 101 90
f 5 90 59
f 5 59 47
f 5 47 35
f 5 35 34
f 5 34 33
f 5 33 23
f 5 23 22
f 5 22 10
f 5 10 6
f 6 10 7
f 8 17 9
f 8 12 18
f 8 18 19
f 8 19 20
f 8 20 17
f 9 17 21
f 9 21 13
f 10 22 11
f 11 22 23
f 11 23 12
f 12 23 24
f 12 24 18
f 13 21 25
f 13 25 26
f 13 26 27
f 13 27 28
f 17 20 30
f 17 30 31
f 17 31 32
f 17 32 21
f 18 24 19
f 19 24 33
f 19 33 34
f 19 34 35
f 19 35 20
f 20 35 30
f 21 32 36
f 21 36 37
f 21 37 25
f 23 33 24
f 25 37 38
f 25 38 27
f 25 27 26
f 27 38 39
f 27 39 40
f 27 40 41
f 27 41 42
f 27 42 28
f 28 42 43
f 28 43 44
f 29 46 45
f 30 35 31
f 31 35 47
f 31 47 48
f 31 48 49
f 31 49 32
f 32 50 51
f 32 51 52
f 32 52 53
f 32 53 54
f 32 54 55
f 32 55 56
f 32 56 57
f 32 57 58
f 32 58 39
f 32 39 36
f 32 49 48
f 32 48 59
f 32 59 50
f 36 39 37
f 37 39 38
f 39 60 40
f 39 58 60
f 40 60 61
f 40 61 62
f 40 62 63
f 40 63 92
f 40 92 121
f 40 121 128
f 40 128 127
f 40 127 118
f 40 118 85
f 40 85 84
f 40 84 83
f 40 83 68
f 40 68 46
f 40 46 69
f 40 69 65
f 40 65 64
f 40 64 41
f 41 64 42
f 42 64 65
f 42 65 66
f 42 66 44
f 42 44 43
f 45 46 68
f 45 68 83
f 45 83 81
f 45 81 117
f 45 117 116
f 45 116 126
f 45 126 112
f 45 112 114
f 45 114 107
f 45 107 106
f 45 106 125
f 45 125 104
f 45 104 110
f 45 110 109
f 45 109 93
f 45 93 67
f 47 59 48
f 50 70 71
f 50 71 51
f 50 59 72
f 50 72 70
f 51 73 74
f 51 74 52
f 51 71 75
f 51 75 76
f 51 76 73
f 52 74 77
f 52 77 53
f 53 77 54
f 54 78 56
f 54 56 55
f 54 77 79
f 54 79 80
f 54 80 81
f 54 81 82
f 54 82 83
f 54 83 84
f 54 84 85
f 54 85 86
f 54 86 78
f 56 78 87
f 56 87 88
f 56 88 57
f 57 88 62
f 57 62 89
f 57 89 61
f 57 61 58
f 58 61 60
f 59 90 72
f 61 89 62
f 62 91 92
f 62 92 63
f 62 88 91
f 65 69 66
f 67 93 94
f 70 72 95
f 70 95 96
f 70 96 71
f 71 96 97
f 71 97 98
f 71 98 99
f 71 99 100
f 71 100 75
f 72 90 101
f 72 101 102
f 72 102 103
f 72 103 95
f 73 104 105
f 73 105 74
f 73 76 104
f 74 105 106
f 74 106 107
f 74 107 108
f 74 108 77
f 75 100 94
f 75 94 76
f 76 94 109
f 76 109 110
f 76 110 111
f 76 111 104
f 77 112 113
f 77 113 79
f 77 108 114
f 77 114 112
f 78 86 115
f 78 115 87
f 79 113 116
f 79 116 80
f 80 116 117
f 80 117 81
f 81 83 82
f 85 118 86
f 86 118 119
f 86 119 120
f 86 120 115
f 87 115 120
f 87 120 119
f 87 119 121
f 87 121 91
f 87 91 88
f 91 121 92
f 93 109 94
f 94 98 97
f 94 100 99
f 94 99 98
f 95 103 122
f 95 122 96
f 96 122 97
f 97 122 124
f 97 124 123
f 101 123 102
f 102 123 124
f 102 124 103
f 103 124 122
f 104 125 105
f 104 111 110
f 105 125 106
f 107 114 108
f 112 126 113
f 113 126 116
f 118 127 119
f 119 127 128
f 119 128 121

