# https://github.com/mikedh/trimesh
v -0.04424419 0.03126894 -0.00614380
v -0.04424419 0.03083119 -0.00614380
v -0.04424564 0.03130066 -0.00905517
v -0.04424784 0.03131795 -0.01051263
v -0.04510436 0.03175771 -0.01051263
v -0.04424711 0.03123839 -0.00323420
v -0.04424564 0.03082834 -0.00468811
v -0.04424491 0.03083505 -0.00759948
v -0.04510363 0.03048711 0.00404956
v -0.04424564 0.03083975 -0.00905517
v -0.04424784 0.03084512 -0.01051263
v -0.04429019 0.03121707 -0.01197009
v -0.04425003 0.03122311 -0.00177674
v -0.04510436 0.03158935 -0.01197009
v -0.04656110 0.03169795 -0.01197009
v -0.04656110 0.03181914 -0.01051263
v -0.04656110 0.03177801 0.00113641
v -0.04656110 0.03176811 0.00259388
v -0.04656110 0.03175435 0.00404956
v -0.04510363 0.03157005 0.00404956
v -0.04425806 0.03119206 0.00113641
v -0.04425368 0.03120767 -0.00031927
v -0.04424711 0.03082666 -0.00323420
v -0.04656110 0.03021184 0.00404956
v -0.04510363 0.03049583 0.00259388
v -0.04425003 0.03082565 -0.00177674
v -0.04425368 0.03082565 -0.00031927
v -0.04425514 0.03082599 0.00023105
v -0.04425806 0.03082683 0.00113641
v -0.04426390 0.03082884 0.00259388
v -0.04426974 0.03083220 0.00404956
v -0.04430698 0.03087685 0.00490167
v -0.04510363 0.03072276 0.00508629
v -0.04510363 0.03050557 0.00113641
v -0.04510363 0.03051228 0.00023105
v -0.04510436 0.03051631 -0.00031927
v -0.04510436 0.03052840 -0.00177674
v -0.04510436 0.03054115 -0.00323420
v -0.04510436 0.03055508 -0.00468811
v -0.04510436 0.03056986 -0.00614380
v -0.04510436 0.03058546 -0.00759948
v -0.04510436 0.03060208 -0.00905517
v -0.04510436 0.03061954 -0.01051263
v -0.04429019 0.03088524 -0.01197009
v -0.04434568 0.03105896 -0.01272634
v -0.04510436 0.03118568 -0.01278315
v -0.04656110 0.03126759 -0.01285593
v -0.04801566 0.03126642 -0.01289854
v -0.04947168 0.03124695 -0.01292339
v -0.04801566 0.03167865 -0.01197009
v -0.04801566 0.03178439 -0.01051263
v -0.04801566 0.03178070 -0.00905517
v -0.04801566 0.03177281 -0.00759948
v -0.04801566 0.03175972 -0.00614380
v -0.04947168 0.03171104 -0.01051263
v -0.04947168 0.03169762 -0.00905517
v -0.04801566 0.03170567 -0.00031927
v -0.04801566 0.03169124 0.00113641
v -0.04801566 0.03167126 0.00259388
v -0.04801566 0.03164743 0.00404956
v -0.04947241 0.03121992 0.00512002
v -0.04801566 0.03129864 0.00518571
v -0.04656110 0.03135470 0.00521234
v -0.04510363 0.03126138 0.00508629
v -0.04430698 0.03108816 0.00490167
v -0.04426974 0.03115967 0.00404956
v -0.04426390 0.03117595 0.00259388
v -0.04425514 0.03120163 0.00023105
v -0.04801566 0.03013933 0.00404956
v -0.04801566 0.03014302 0.00259388
v -0.04801566 0.03015041 0.00113641
v -0.04801566 0.03015829 0.00022927
v -0.04801566 0.03016316 -0.00031927
v -0.04656110 0.03022510 0.00259388
v -0.04656110 0.03058362 0.00521234
v -0.04656110 0.03024255 0.00113641
v -0.04656110 0.03025648 0.00022927
v -0.04656110 0.03026505 -0.00031927
v -0.04656110 0.03043188 -0.01051263
v -0.04510436 0.03070833 -0.01197009
v -0.04434568 0.03093576 -0.01272634
v -0.04510436 0.03087533 -0.01278315
v -0.04656110 0.03079309 -0.01285593
v -0.04801566 0.03072696 -0.01289854
v -0.05061371 0.03114238 -0.01285061
v -0.04947168 0.03162494 -0.01197009
v -0.04947168 0.03067174 -0.01292339
v -0.05087220 0.03127229 -0.01197009
v -0.05107228 0.03123990 -0.01056056
v -0.05092843 0.03130586 -0.00905517
v -0.05092843 0.03130267 -0.00759948
v -0.05092843 0.03129831 -0.00614380
v -0.05092843 0.03129277 -0.00468811
v -0.05092843 0.03128589 -0.00323420
v -0.05092843 0.03127800 -0.00177674
v -0.05092843 0.03126894 -0.00031927
v -0.05092916 0.03126524 0.00023105
v -0.05092916 0.03125903 0.00113641
v -0.05092916 0.03124796 0.00259388
v -0.05092916 0.03123604 0.00404956
v -0.04947168 0.03167999 -0.00759948
v -0.04947168 0.03165700 -0.00614380
v -0.04947241 0.03155260 0.00023105
v -0.04947241 0.03148999 0.00404956
v -0.05092916 0.03109572 0.00496913
v -0.04947241 0.03053142 0.00512002
v -0.04801566 0.03054988 0.00518571
v -0.04947241 0.03010442 0.00404956
v -0.04947168 0.03014520 -0.00759948
v -0.04947168 0.03015477 -0.00905517
v -0.04801566 0.03021721 -0.00614380
v -0.04801566 0.03023131 -0.00759948
v -0.04801566 0.03025078 -0.00905517
v -0.04801566 0.03027444 -0.01051263
v -0.04656110 0.03053377 -0.01197009
v -0.04801566 0.03038925 -0.01197009
v -0.04947168 0.03027831 -0.01197009
v -0.05061371 0.03075230 -0.01285061
v -0.05166082 0.03096681 -0.01010788
v -0.05166593 0.03097369 -0.00905517
v -0.05167323 0.03098259 -0.00759948
v -0.05167907 0.03099014 -0.00614380
v -0.05168491 0.03099635 -0.00468811
v -0.05169003 0.03100156 -0.00323420
v -0.05169368 0.03100542 -0.00177674
v -0.05169733 0.03100844 -0.00031927
v -0.05169879 0.03100911 0.00022927
v -0.05170098 0.03101028 0.00113641
v -0.05170317 0.03101129 0.00259388
v -0.05170390 0.03101129 0.00404956
v -0.05168856 0.03099467 0.00482889
v -0.05092916 0.03066418 0.00496913
v -0.05092916 0.03037482 0.00404956
v -0.04947168 0.03016853 -0.01051263
v -0.05087220 0.03060007 -0.01197009
v -0.05166082 0.03095473 -0.01010788
v -0.05167323 0.03092720 -0.00759948
v -0.05168491 0.03089665 -0.00468811
v -0.05169003 0.03088188 -0.00323420
v -0.05169879 0.03084882 0.00022927
v -0.05170098 0.03084059 0.00113641
v -0.05170317 0.03082750 0.00259388
v -0.05170390 0.03081491 0.00404956
v -0.05168856 0.03085989 0.00482889
v -0.05092916 0.03041946 0.00023105
v -0.05169733 0.03085385 -0.00031927
v -0.05169368 0.03086761 -0.00177674
v -0.05092843 0.03046025 -0.00323420
v -0.05092843 0.03047754 -0.00468811
v -0.05092843 0.03051279 -0.00759948
v -0.05092843 0.03053075 -0.00905517
v -0.05107228 0.03062944 -0.01056056
v -0.05166593 0.03094298 -0.00905517
v -0.05167907 0.03091176 -0.00614380
f 1 2 8
f 1 8 10
f 1 10 3
f 1 3 4
f 1 4 5
f 1 5 6
f 1 6 7
f 1 7 2
f 2 7 9
f 2 9 8
f 3 10 11
f 3 11 4
f 4 11 44
f 4 44 12
f 4 12 5
f 5 13 6
f 5 12 14
f 5 14 15
f 5 15 16
f 5 16 17
f 5 17 18
f 5 18 19
f 5 19 20
f 5 20 21
f 5 21 22
f 5 22 13
f 6 13 26
f 6 26 23
f 6 23 7
f 7 23 9
f 8 9 10
f 9 24 25
f 9 25 11
f 9 11 10
f 9 23 26
f 9 26 27
f 9 27 28
f 9 28 29
f 9 29 30
f 9 30 31
f 9 31 32
f 9 32 33
f 9 33 24
f 11 25 34
f 11 34 35
f 11 35 36
f 11 36 37
f 11 37 38
f 11 38 39
f 11 39 40
f 11 40 41
f 11 41 42
f 11 42 43
f 11 43 44
f 12 44 81
f 12 81 45
f 12 45 14
f 13 22 27
f 13 27 26
f 14 45 46
f 14 46 47
f 14 47 15
f 15 47 48
f 15 48 49
f 15 49 50
f 15 50 16
f 16 50 51
f 16 51 52
f 16 52 17
f 17 52 53
f 17 53 18
f 18 53 54
f 18 54 55
f 18 55 56
f 18 56 57
f 18 57 19
f 19 57 58
f 19 58 59
f 19 59 60
f 19 60 61
f 19 61 62
f 19 62 63
f 19 63 64
f 19 64 20
f 20 64 65
f 20 65 66
f 20 66 67
f 20 67 21
f 21 67 30
f 21 30 29
f 21 29 28
f 21 28 68
f 21 68 22
f 22 68 28
f 22 28 27
f 24 69 70
f 24 70 71
f 24 71 72
f 24 72 73
f 24 73 74
f 24 74 38
f 24 38 37
f 24 37 36
f 24 36 35
f 24 35 34
f 24 34 25
f 24 33 75
f 24 75 69
f 30 67 66
f 30 66 31
f 31 66 65
f 31 65 32
f 32 65 64
f 32 64 33
f 33 64 63
f 33 63 75
f 38 74 39
f 39 74 40
f 40 74 41
f 41 74 42
f 42 74 76
f 42 76 43
f 43 76 77
f 43 77 78
f 43 78 79
f 43 79 80
f 43 80 44
f 44 80 81
f 45 81 82
f 45 82 46
f 46 82 83
f 46 83 47
f 47 83 84
f 47 84 48
f 48 84 87
f 48 87 49
f 49 85 86
f 49 86 50
f 49 87 118
f 49 118 85
f 50 86 51
f 51 55 52
f 51 86 55
f 52 55 53
f 53 55 54
f 55 86 88
f 55 88 89
f 55 89 90
f 55 90 91
f 55 91 92
f 55 92 93
f 55 93 94
f 55 94 95
f 55 95 96
f 55 96 97
f 55 97 98
f 55 98 99
f 55 99 100
f 55 100 56
f 56 100 101
f 56 101 58
f 56 58 57
f 58 101 59
f 59 101 102
f 59 102 103
f 59 103 60
f 60 103 104
f 60 104 61
f 61 104 105
f 61 105 132
f 61 132 106
f 61 106 107
f 61 107 62
f 62 107 75
f 62 75 63
f 69 75 108
f 69 108 70
f 70 108 109
f 70 109 71
f 71 109 110
f 71 110 72
f 72 110 73
f 73 110 74
f 74 110 111
f 74 111 112
f 74 112 76
f 75 107 108
f 76 112 113
f 76 113 77
f 77 113 78
f 78 113 114
f 78 114 79
f 79 114 115
f 79 115 80
f 80 115 81
f 81 115 116
f 81 116 82
f 82 116 117
f 82 117 83
f 83 117 84
f 84 117 87
f 85 88 86
f 85 118 136
f 85 136 119
f 85 119 88
f 87 117 118
f 88 119 89
f 89 119 120
f 89 120 121
f 89 121 122
f 89 122 123
f 89 123 124
f 89 124 125
f 89 125 90
f 90 125 126
f 90 126 127
f 90 127 128
f 90 128 129
f 90 129 130
f 90 130 91
f 91 130 92
f 92 130 93
f 93 130 94
f 94 130 95
f 95 130 96
f 96 130 97
f 97 130 98
f 98 130 99
f 99 130 100
f 100 130 131
f 100 131 104
f 100 104 103
f 100 103 102
f 100 102 101
f 104 131 105
f 105 131 144
f 105 144 132
f 106 132 108
f 106 108 107
f 108 132 133
f 108 133 109
f 109 133 110
f 110 134 111
f 110 133 134
f 111 134 112
f 112 134 113
f 113 134 114
f 114 134 117
f 114 117 116
f 114 116 115
f 117 135 118
f 117 134 135
f 118 135 136
f 119 136 137
f 119 137 121
f 119 121 120
f 121 137 154
f 121 154 138
f 121 138 123
f 121 123 122
f 123 138 139
f 123 139 124
f 124 139 140
f 124 140 127
f 124 127 125
f 125 127 126
f 127 140 141
f 127 141 128
f 128 141 142
f 128 142 129
f 129 142 143
f 129 143 130
f 130 143 144
f 130 144 131
f 132 144 133
f 133 145 134
f 133 144 143
f 133 143 142
f 133 142 141
f 133 141 140
f 133 140 146
f 133 146 147
f 133 147 139
f 133 139 145
f 134 145 148
f 134 148 149
f 134 149 150
f 134 150 151
f 134 151 135
f 135 151 152
f 135 152 136
f 136 153 137
f 136 152 153
f 137 153 152
f 137 152 154
f 138 149 139
f 138 154 152
f 138 152 151
f 138 151 150
f 138 150 149
f 139 148 145
f 139 147 140
f 139 149 148
f 140 147 146

