# https://github.com/mikedh/trimesh
v 0.05411479 -0.05262186 0.01876874
v 0.04692438 -0.05146735 0.01876874
v 0.05411479 -0.05415876 0.01876874
v 0.05411479 -0.05569961 0.00094122
v 0.04692438 -0.05393702 0.00094122
v 0.04692438 -0.05312869 0.01876874
v 0.05409226 -0.05415762 0.01876874
v 0.05411479 -0.05508700 0.01541474
v 0.05411479 -0.05724498 0.00094122
v 0.04692438 -0.05616344 0.00094122
v 0.04692438 -0.05326219 0.01876351
v 0.04693706 -0.05326332 0.01876874
v 0.05261421 -0.05404393 0.01876874
v 0.05248329 -0.05407673 0.01861518
v 0.05248329 -0.05502647 0.01518264
v 0.05411479 -0.05539076 0.01424555
v 0.05393953 -0.05724555 0.00094122
v 0.05411479 -0.05724498 0.00096565
v 0.04729390 -0.05651246 0.00094122
v 0.04692438 -0.05616514 0.00104069
v 0.04692438 -0.05347714 0.01835342
v 0.04767467 -0.05348845 0.01876874
v 0.05119809 -0.05390591 0.01876874
v 0.05102635 -0.05393532 0.01861518
v 0.04692720 -0.05500894 0.01364874
v 0.05150988 -0.05499027 0.01504304
v 0.04957081 -0.05510736 0.01403963
v 0.04811458 -0.05505362 0.01382499
v 0.05248329 -0.05558421 0.01278842
v 0.05411479 -0.05565152 0.01296468
v 0.05411479 -0.05724216 0.00113841
v 0.05228622 -0.05724611 0.00094122
v 0.04811458 -0.05688749 0.00094122
v 0.04729179 -0.05651359 0.00113841
v 0.04692438 -0.05616627 0.00113841
v 0.04692438 -0.05367059 0.01785084
v 0.04708486 -0.05360893 0.01819462
v 0.04811458 -0.05357047 0.01876874
v 0.05102635 -0.05388893 0.01876874
v 0.04947087 -0.05373508 0.01876874
v 0.04811458 -0.05369152 0.01846684
v 0.04811458 -0.05408182 0.01715805
v 0.04692438 -0.05500724 0.01365223
v 0.04692438 -0.05500950 0.01364350
v 0.04692438 -0.05514017 0.01288964
v 0.04811458 -0.05525952 0.01278842
v 0.05102635 -0.05547617 0.01278842
v 0.04957081 -0.05560910 0.01133305
v 0.05411479 -0.05647682 0.00802267
v 0.05393953 -0.05567415 0.01278842
v 0.05411479 -0.05568207 0.01278842
v 0.05411479 -0.05716296 0.00259554
v 0.05248329 -0.05724216 0.00113841
v 0.05082998 -0.05723650 0.00094122
v 0.04957081 -0.05720030 0.00094122
v 0.04811458 -0.05687787 0.00113841
v 0.04732205 -0.05647569 0.00405091
v 0.04729249 -0.05650510 0.00259554
v 0.04692438 -0.05616175 0.00259554
v 0.04692438 -0.05616571 0.00187308
v 0.04839048 -0.05361855 0.01876874
v 0.04692438 -0.05534155 0.01133305
v 0.04736288 -0.05644401 0.00487982
v 0.04811458 -0.05648304 0.00512587
v 0.04811458 -0.05550050 0.01133305
v 0.05411479 -0.05661936 0.00713269
v 0.05393953 -0.05647286 0.00796683
v 0.05411479 -0.05714656 0.00277004
v 0.05393953 -0.05716296 0.00259554
v 0.05102635 -0.05722745 0.00113841
v 0.05248329 -0.05715221 0.00259554
v 0.04957081 -0.05718559 0.00113841
v 0.04692438 -0.05612045 0.00405091
v 0.04692438 -0.05614648 0.00336162
v 0.04692438 -0.05601637 0.00529514
v 0.04957081 -0.05700458 0.00259554
v 0.05102635 -0.05664821 0.00550804
v 0.05102635 -0.05710017 0.00259554
v 0.05393953 -0.05684563 0.00550804
v 0.05411479 -0.05683036 0.00568254
v 0.05411479 -0.05700232 0.00422717
f 1 2 6
f 1 6 12
f 1 12 22
f 1 22 38
f 1 38 61
f 1 61 40
f 1 40 39
f 1 39 23
f 1 23 13
f 1 13 7
f 1 7 3
f 1 3 8
f 1 8 16
f 1 16 30
f 1 30 51
f 1 51 49
f 1 49 66
f 1 66 80
f 1 80 81
f 1 81 68
f 1 68 52
f 1 52 31
f 1 31 18
f 1 18 9
f 1 9 4
f 1 4 5
f 1 5 2
f 2 5 10
f 2 10 20
f 2 20 35
f 2 35 60
f 2 60 59
f 2 59 74
f 2 74 73
f 2 73 75
f 2 75 62
f 2 62 45
f 2 45 44
f 2 44 43
f 2 43 36
f 2 36 21
f 2 21 11
f 2 11 6
f 3 7 8
f 4 9 17
f 4 17 32
f 4 32 54
f 4 54 55
f 4 55 33
f 4 33 19
f 4 19 10
f 4 10 5
f 6 11 12
f 7 13 14
f 7 14 15
f 7 15 8
f 8 15 16
f 9 18 17
f 10 19 20
f 11 21 12
f 12 21 22
f 13 23 24
f 13 24 14
f 14 24 25
f 14 25 26
f 14 26 15
f 15 26 27
f 15 27 16
f 16 27 28
f 16 28 25
f 16 25 29
f 16 29 30
f 17 18 31
f 17 31 32
f 19 33 34
f 19 34 20
f 20 34 35
f 21 36 37
f 21 37 22
f 22 37 38
f 23 39 24
f 24 39 40
f 24 40 41
f 24 41 42
f 24 42 25
f 25 43 44
f 25 44 45
f 25 45 46
f 25 46 47
f 25 47 29
f 25 28 26
f 25 42 41
f 25 41 37
f 25 37 43
f 26 28 27
f 29 47 48
f 29 48 49
f 29 49 50
f 29 50 30
f 30 50 51
f 31 52 69
f 31 69 53
f 31 53 32
f 32 53 54
f 33 55 56
f 33 56 57
f 33 57 58
f 33 58 34
f 34 58 59
f 34 59 60
f 34 60 35
f 36 43 37
f 37 41 38
f 38 41 61
f 40 61 41
f 45 62 63
f 45 63 64
f 45 64 65
f 45 65 46
f 46 65 48
f 46 48 47
f 48 65 66
f 48 66 67
f 48 67 49
f 49 67 66
f 49 51 50
f 52 68 69
f 53 70 54
f 53 69 71
f 53 71 70
f 54 70 55
f 55 70 72
f 55 72 63
f 55 63 56
f 56 63 57
f 57 73 58
f 57 63 73
f 58 73 74
f 58 74 59
f 62 75 63
f 63 75 73
f 63 72 76
f 63 76 64
f 64 76 65
f 65 76 77
f 65 77 66
f 66 77 76
f 66 76 78
f 66 78 79
f 66 79 80
f 68 81 69
f 69 81 71
f 70 71 72
f 71 78 72
f 71 81 80
f 71 80 79
f 71 79 78
f 72 78 76

