# https://github.com/mikedh/trimesh
v -0.05569454 -0.05271807 -0.01588077
v -0.06680072 -0.04980875 -0.01588077
v -0.05569454 -0.05425735 -0.01588077
v -0.05569454 -0.04436267 -0.03086826
v -0.06680072 -0.05190887 -0.01588077
v -0.06680072 -0.04562855 -0.02519074
v -0.05821234 -0.05432045 -0.01588077
v -0.05569454 -0.05414619 -0.01634143
v -0.05569454 -0.04639068 -0.03086826
v -0.05966911 -0.04410829 -0.03086826
v -0.06680072 -0.04428856 -0.02827156
v -0.06680072 -0.04441074 -0.02796348
v -0.06680072 -0.04478930 -0.02709645
v -0.06643653 -0.05212519 -0.01588077
v -0.06680072 -0.05066101 -0.01866525
v -0.06648545 -0.05075716 -0.01887064
v -0.05963541 -0.05433747 -0.01588077
v -0.05821234 -0.05418424 -0.01634143
v -0.05675558 -0.05416522 -0.01634143
v -0.05569454 -0.05372155 -0.01768525
v -0.05675558 -0.04639368 -0.03086826
v -0.05569454 -0.04658096 -0.03062620
v -0.05675558 -0.04658497 -0.03062620
v -0.05971042 -0.04410629 -0.03086826
v -0.06680072 -0.04421245 -0.02933812
v -0.06505695 -0.05220731 -0.01745199
v -0.06349691 -0.05375160 -0.01588077
v -0.06477321 -0.05060694 -0.02144827
v -0.06657025 -0.04935007 -0.02189425
v -0.06680072 -0.04778174 -0.02507924
v -0.06659199 -0.04790793 -0.02507924
v -0.06112587 -0.05432746 -0.01588077
v -0.05675558 -0.05373758 -0.01768085
v -0.05569454 -0.05236654 -0.02075288
v -0.05821234 -0.04635062 -0.03086826
v -0.05821234 -0.04658196 -0.03059539
v -0.05569454 -0.04730904 -0.02963446
v -0.05675558 -0.04731305 -0.02964620
v -0.05821234 -0.04731004 -0.02964473
v -0.06090409 -0.04413433 -0.03086826
v -0.06102911 -0.04545128 -0.03086826
v -0.06680072 -0.04423247 -0.02933812
v -0.06342081 -0.05378966 -0.01588077
v -0.06316751 -0.05199599 -0.01991078
v -0.06259677 -0.05415520 -0.01588077
v -0.06628324 -0.04772666 -0.02587732
v -0.06680072 -0.04718286 -0.02639079
v -0.06112587 -0.05413617 -0.01634143
v -0.05966911 -0.05373057 -0.01749014
v -0.05821234 -0.05375160 -0.01759576
v -0.06112587 -0.05367348 -0.01737130
v -0.05675558 -0.05236955 -0.02057536
v -0.05675558 -0.04938712 -0.02626756
v -0.05569454 -0.05092340 -0.02350655
v -0.05966911 -0.04621942 -0.03086826
v -0.05966911 -0.04651987 -0.03051763
v -0.05569454 -0.04781780 -0.02890680
v -0.05675558 -0.04782481 -0.02891854
v -0.05821234 -0.04781780 -0.02891560
v -0.05915924 -0.04776672 -0.02884372
v -0.06102585 -0.04546330 -0.03086826
v -0.06680072 -0.04507272 -0.02925743
v -0.06047141 -0.04920385 -0.02591106
v -0.06219670 -0.05212118 -0.02009710
v -0.06213799 -0.05360038 -0.01723047
v -0.06680072 -0.04646779 -0.02759818
v -0.06056926 -0.04638767 -0.03037240
v -0.06112587 -0.05218227 -0.02021593
v -0.05966911 -0.05075415 -0.02318526
v -0.05966911 -0.05224537 -0.02033770
v -0.05821234 -0.05081624 -0.02330410
v -0.05821234 -0.04932503 -0.02615019
v -0.05569454 -0.04943319 -0.02632331
v -0.05569454 -0.04931101 -0.02652136
v -0.05966911 -0.04926294 -0.02602696
v -0.06680072 -0.04596304 -0.02821582
f 1 2 5
f 1 5 14
f 1 14 27
f 1 27 43
f 1 43 45
f 1 45 32
f 1 32 17
f 1 17 7
f 1 7 3
f 1 3 8
f 1 8 20
f 1 20 34
f 1 34 54
f 1 54 73
f 1 73 74
f 1 74 57
f 1 57 37
f 1 37 22
f 1 22 9
f 1 9 4
f 1 4 2
f 2 4 6
f 2 6 13
f 2 13 12
f 2 12 11
f 2 11 25
f 2 25 42
f 2 42 62
f 2 62 76
f 2 76 66
f 2 66 47
f 2 47 30
f 2 30 15
f 2 15 5
f 3 7 8
f 4 9 21
f 4 21 35
f 4 35 55
f 4 55 61
f 4 61 41
f 4 41 40
f 4 40 24
f 4 24 10
f 4 10 11
f 4 11 12
f 4 12 13
f 4 13 6
f 5 15 16
f 5 16 14
f 7 17 18
f 7 18 19
f 7 19 8
f 8 19 20
f 9 22 23
f 9 23 21
f 10 24 11
f 11 24 25
f 14 26 27
f 14 16 28
f 14 28 26
f 15 29 16
f 15 30 31
f 15 31 29
f 16 29 31
f 16 31 28
f 17 32 33
f 17 33 18
f 18 33 19
f 19 33 20
f 20 33 34
f 21 23 36
f 21 36 35
f 22 37 38
f 22 38 23
f 23 38 39
f 23 39 36
f 24 40 25
f 25 40 41
f 25 41 42
f 26 28 27
f 27 28 43
f 28 44 45
f 28 45 43
f 28 31 46
f 28 46 44
f 30 47 31
f 31 47 46
f 32 45 48
f 32 48 49
f 32 49 50
f 32 50 33
f 33 50 34
f 34 50 49
f 34 49 51
f 34 51 52
f 34 52 53
f 34 53 54
f 35 36 56
f 35 56 55
f 36 39 56
f 37 57 58
f 37 58 38
f 38 58 39
f 39 58 59
f 39 59 60
f 39 60 56
f 41 61 42
f 42 61 62
f 44 46 63
f 44 63 64
f 44 64 65
f 44 65 45
f 45 65 51
f 45 51 48
f 46 47 66
f 46 66 67
f 46 67 60
f 46 60 63
f 48 51 49
f 51 65 64
f 51 64 68
f 51 68 69
f 51 69 70
f 51 70 52
f 52 70 69
f 52 69 71
f 52 71 72
f 52 72 53
f 53 72 59
f 53 59 73
f 53 73 54
f 55 56 67
f 55 67 62
f 55 62 61
f 56 60 67
f 57 74 58
f 58 74 59
f 59 74 73
f 59 72 75
f 59 75 60
f 60 75 63
f 62 67 76
f 63 75 64
f 64 75 68
f 66 76 67
f 68 75 69
f 69 75 72
f 69 72 71

