# https://github.com/mikedh/trimesh
v -0.03497630 -0.00515677 0.03680654
v -0.03648492 -0.00515677 0.03680654
v -0.03497277 -0.00543577 0.03680654
v -0.03496159 -0.00515677 0.03652772
v -0.03860430 -0.00515677 0.02787724
v -0.03868962 -0.00568967 0.02787724
v -0.03878494 -0.00628953 0.02787724
v -0.04094138 -0.03365730 0.03680654
v -0.03496453 -0.00689219 0.03680654
v -0.03494158 -0.00515677 0.03609419
v -0.03674441 -0.00515677 0.02787724
v -0.03898381 -0.00763714 0.02787724
v -0.03792118 -0.03365730 0.02787724
v -0.03872021 -0.03365730 0.03680654
v -0.03493629 -0.00618072 0.03609419
v -0.03496218 -0.00763714 0.03680654
v -0.03493099 -0.00763714 0.03609419
v -0.03503337 -0.00515677 0.03507155
v -0.03526990 -0.02511132 0.02881247
v -0.03532286 -0.02657053 0.02787724
v -0.03528520 -0.02365491 0.02881247
v -0.03534404 -0.02511132 0.02787724
v -0.03667968 -0.00515677 0.02799436
v -0.03570414 -0.01388410 0.02787724
v -0.03633312 -0.03365730 0.02787724
v -0.03855664 -0.03342293 0.03680654
v -0.03863666 -0.03365730 0.03667893
v -0.03499277 -0.01200638 0.03463715
v -0.03496806 -0.00909355 0.03680654
v -0.03493099 -0.00909355 0.03609419
v -0.03499101 -0.01346280 0.03463715
v -0.03507515 -0.00515677 0.03463715
v -0.03536934 -0.02365491 0.02787724
v -0.03526814 -0.02657053 0.02881247
v -0.03506044 -0.01637563 0.03318098
v -0.03533110 -0.02802694 0.02787724
v -0.03623427 -0.00515677 0.02881247
v -0.03561117 -0.01401244 0.02801884
v -0.03560940 -0.01491921 0.02787724
v -0.03574532 -0.03176842 0.02787724
v -0.03570590 -0.03157870 0.02800310
v -0.03645610 -0.03365730 0.02862980
v -0.03834541 -0.03365730 0.03615887
v -0.03846603 -0.03328064 0.03680654
v -0.03500454 -0.01054997 0.03680654
v -0.03495159 -0.01054997 0.03609419
v -0.03500925 -0.01491921 0.03463715
v -0.03507044 -0.01783204 0.03318098
v -0.03513575 -0.02074208 0.03172481
v -0.03520165 -0.02365491 0.03026864
v -0.03517400 -0.00515677 0.03361451
v -0.03545113 -0.01980741 0.02787724
v -0.03535757 -0.00515677 0.03172481
v -0.03531521 -0.00515677 0.03215921
v -0.03521989 -0.02511132 0.03026864
v -0.03531815 -0.02802694 0.02881247
v -0.03540347 -0.02950568 0.02787724
v -0.03607600 -0.00515677 0.02912101
v -0.03558881 -0.01491921 0.02792706
v -0.03558528 -0.01525681 0.02787724
v -0.03574944 -0.00515677 0.02976082
v -0.03567177 -0.00515677 0.02997758
v -0.03553233 -0.00515677 0.03048890
v -0.03565648 -0.03145594 0.02787724
v -0.03700741 -0.03192467 0.03433473
v -0.03663850 -0.03239619 0.03172481
v -0.03556469 -0.03060776 0.02845411
v -0.03655024 -0.03093977 0.03318098
v -0.03677265 -0.03365730 0.03028962
v -0.03826539 -0.03365730 0.03599018
v -0.03768877 -0.03239619 0.03609419
v -0.03837895 -0.03310486 0.03680654
v -0.03506103 -0.01200638 0.03680654
v -0.03504396 -0.01346280 0.03609419
v -0.03499101 -0.01200638 0.03609419
v -0.03505455 -0.01637563 0.03463715
v -0.03512869 -0.02074208 0.03318098
v -0.03509633 -0.01928845 0.03318098
v -0.03546231 -0.01928845 0.02787724
v -0.03547996 -0.00515677 0.03083066
v -0.03550526 -0.01782925 0.02787724
v -0.03519459 -0.02365491 0.03172481
v -0.03529932 -0.02657053 0.03026864
v -0.03552056 -0.03085328 0.02787724
v -0.03688091 -0.03104859 0.03474728
v -0.03700624 -0.03063845 0.03580400
v -0.03713921 -0.03160939 0.03530579
v -0.03779409 -0.03365730 0.03465201
v -0.03706978 -0.03319136 0.03256477
v -0.03698388 -0.03344804 0.03172481
v -0.03692563 -0.03365730 0.03109112
v -0.03557116 -0.02911507 0.02987619
v -0.03656083 -0.02948336 0.03463715
v -0.03528697 -0.02365491 0.03318098
v -0.03548996 -0.02659564 0.03175977
v -0.03549643 -0.02511691 0.03319496
v -0.03722453 -0.03104859 0.03621131
v -0.03745694 -0.03100115 0.03680654
v -0.03800238 -0.03232923 0.03680654
v -0.03512457 -0.01346280 0.03680654
v -0.03510104 -0.01491921 0.03609419
v -0.03521342 -0.02074208 0.03463715
v -0.03515988 -0.01928845 0.03463715
v -0.03510692 -0.01783204 0.03463715
v -0.03517753 -0.02219849 0.03318098
v -0.03528697 -0.02511132 0.03172481
v -0.03689209 -0.02959496 0.03621131
v -0.03712744 -0.03015576 0.03677507
v -0.03738045 -0.03365730 0.03301666
v -0.03558469 -0.02612691 0.03271861
v -0.03559116 -0.02463422 0.03412408
v -0.03532109 -0.02219849 0.03463715
v -0.03551467 -0.02360469 0.03462054
v -0.03715275 -0.03018646 0.03680654
v -0.03518988 -0.01491921 0.03680654
v -0.03516870 -0.01637563 0.03609419
v -0.03541465 -0.02074208 0.03609419
v -0.03524284 -0.01783204 0.03609419
v -0.03531756 -0.01928845 0.03609419
v -0.03541583 -0.01931078 0.03680654
v -0.03697858 -0.02931316 0.03680654
v -0.03711627 -0.03005811 0.03680654
v -0.03659201 -0.02802694 0.03609419
v -0.03675264 -0.02801857 0.03680654
v -0.03713509 -0.03013344 0.03680654
v -0.03552938 -0.02074208 0.03680654
v -0.03562470 -0.02154562 0.03680654
v -0.03555527 -0.02207852 0.03602426
v -0.03560940 -0.02308574 0.03549284
v -0.03526108 -0.01637563 0.03680654
v -0.03529756 -0.01708988 0.03680654
v -0.03533580 -0.01783204 0.03680654
f 1 2 8
f 1 8 14
f 1 14 26
f 1 26 44
f 1 44 72
f 1 72 99
f 1 99 98
f 1 98 114
f 1 114 125
f 1 125 122
f 1 122 121
f 1 121 124
f 1 124 127
f 1 127 126
f 1 126 120
f 1 120 132
f 1 132 131
f 1 131 130
f 1 130 115
f 1 115 100
f 1 100 73
f 1 73 45
f 1 45 29
f 1 29 16
f 1 16 9
f 1 9 3
f 1 3 4
f 1 4 10
f 1 10 18
f 1 18 32
f 1 32 51
f 1 51 54
f 1 54 53
f 1 53 80
f 1 80 63
f 1 63 62
f 1 62 61
f 1 61 58
f 1 58 37
f 1 37 23
f 1 23 11
f 1 11 5
f 1 5 2
f 2 5 6
f 2 6 7
f 2 7 8
f 3 9 10
f 3 10 4
f 5 11 24
f 5 24 39
f 5 39 60
f 5 60 81
f 5 81 79
f 5 79 52
f 5 52 33
f 5 33 22
f 5 22 20
f 5 20 36
f 5 36 57
f 5 57 84
f 5 84 64
f 5 64 40
f 5 40 25
f 5 25 13
f 5 13 12
f 5 12 7
f 5 7 6
f 7 12 8
f 8 13 25
f 8 25 42
f 8 42 69
f 8 69 91
f 8 91 109
f 8 109 88
f 8 88 70
f 8 70 43
f 8 43 27
f 8 27 14
f 8 12 13
f 9 15 10
f 9 16 17
f 9 17 15
f 10 15 19
f 10 19 20
f 10 20 21
f 10 21 22
f 10 22 18
f 11 23 24
f 14 27 26
f 15 17 28
f 15 28 19
f 16 29 30
f 16 30 17
f 17 30 31
f 17 31 28
f 18 22 33
f 18 33 32
f 19 34 20
f 19 28 35
f 19 35 34
f 20 22 21
f 20 34 36
f 23 37 38
f 23 38 24
f 24 38 39
f 25 40 41
f 25 41 42
f 26 27 43
f 26 43 44
f 28 31 35
f 29 45 46
f 29 46 30
f 30 46 47
f 30 47 31
f 31 47 48
f 31 48 49
f 31 49 50
f 31 50 34
f 31 34 35
f 32 33 51
f 33 52 53
f 33 53 54
f 33 54 51
f 34 50 55
f 34 55 56
f 34 56 36
f 36 56 57
f 37 58 38
f 38 59 60
f 38 60 39
f 38 58 61
f 38 61 62
f 38 62 63
f 38 63 59
f 40 64 41
f 41 65 66
f 41 66 42
f 41 64 67
f 41 67 68
f 41 68 65
f 42 66 69
f 43 70 71
f 43 71 44
f 44 71 72
f 45 73 74
f 45 74 75
f 45 75 46
f 46 75 47
f 47 75 76
f 47 76 77
f 47 77 78
f 47 78 48
f 48 78 55
f 48 55 49
f 49 55 50
f 52 79 53
f 53 79 81
f 53 81 80
f 55 77 82
f 55 82 56
f 55 78 77
f 56 82 83
f 56 83 84
f 56 84 57
f 59 63 80
f 59 80 60
f 60 80 81
f 64 84 67
f 65 68 85
f 65 85 86
f 65 86 87
f 65 87 88
f 65 88 89
f 65 89 90
f 65 90 66
f 66 90 91
f 66 91 69
f 67 92 93
f 67 93 68
f 67 84 94
f 67 94 95
f 67 95 96
f 67 96 92
f 68 93 86
f 68 86 85
f 70 88 71
f 71 88 87
f 71 87 97
f 71 97 98
f 71 98 99
f 71 99 72
f 73 100 101
f 73 101 74
f 74 101 102
f 74 102 103
f 74 103 104
f 74 104 75
f 75 104 76
f 76 104 105
f 76 105 77
f 77 105 82
f 82 105 83
f 83 105 106
f 83 106 84
f 84 106 94
f 86 93 107
f 86 107 108
f 86 108 87
f 87 108 97
f 88 109 89
f 89 109 91
f 89 91 90
f 92 96 110
f 92 110 93
f 93 110 96
f 93 96 111
f 93 111 107
f 94 106 105
f 94 105 112
f 94 112 113
f 94 113 96
f 94 96 95
f 96 113 111
f 97 108 98
f 98 108 114
f 100 115 101
f 101 115 116
f 101 116 102
f 102 117 112
f 102 112 105
f 102 105 103
f 102 116 118
f 102 118 119
f 102 119 120
f 102 120 117
f 103 105 104
f 107 121 122
f 107 122 108
f 107 111 123
f 107 123 124
f 107 124 121
f 108 122 125
f 108 125 114
f 111 113 123
f 112 117 126
f 112 126 127
f 112 127 128
f 112 128 113
f 113 128 127
f 113 127 129
f 113 129 123
f 115 130 116
f 116 130 118
f 117 120 126
f 118 130 131
f 118 131 119
f 119 131 132
f 119 132 120
f 123 129 127
f 123 127 124

