# https://github.com/mikedh/trimesh
v 0.04416354 -0.00561118 0.05134968
v 0.04416354 -0.00472141 0.05134109
v 0.04364247 -0.00035197 0.05094701
v 0.04361545 -0.00326493 0.05094272
v 0.04360301 -0.00472141 0.05094014
v 0.04359615 -0.00561118 0.05093843
v 0.04416354 -0.00561118 0.04917064
v 0.04416354 -0.00035197 0.05129731
v 0.04274099 -0.00035197 0.05021895
v 0.04416354 0.00066647 0.05128271
v 0.04416354 0.00110451 0.05127327
v 0.04365919 0.00110451 0.05092555
v 0.04274142 -0.00180845 0.05021637
v 0.04274614 -0.00472141 0.05021208
v 0.04274742 -0.00561118 0.05021036
v 0.03978222 -0.00561118 0.04460136
v 0.04416354 0.01913259 0.04257858
v 0.04201320 -0.00180845 0.04945826
v 0.04277873 0.00110451 0.05019748
v 0.04201277 -0.00035197 0.04943164
v 0.03989159 -0.00326493 0.04724145
v 0.03978222 -0.00348395 0.04712725
v 0.04058807 -0.00326493 0.04796951
v 0.04416354 0.00164385 0.05124579
v 0.04286493 0.00256100 0.05010819
v 0.04201920 -0.00561118 0.04945225
v 0.03978222 0.00693044 0.04258373
v 0.03978265 0.00694413 0.04257858
v 0.03978222 -0.00561118 0.04710837
v 0.04416354 0.02235766 0.04257858
v 0.04205051 0.00110451 0.04934493
v 0.03993233 -0.00180845 0.04721053
v 0.03978222 -0.00209318 0.04706114
v 0.04058850 -0.00180845 0.04793860
v 0.03978222 -0.00326493 0.04712210
v 0.03978222 -0.00472141 0.04712554
v 0.04416354 0.00217497 0.05115478
v 0.04294770 0.00353016 0.05000516
v 0.03991174 0.00693044 0.04579562
v 0.04041052 0.00547396 0.04664302
v 0.04151442 0.00217224 0.04852929
v 0.04144280 0.00110451 0.04861687
v 0.04008243 0.00918087 0.04558355
v 0.04001639 0.00838419 0.04566512
v 0.04087584 -0.00561118 0.04826142
v 0.03978222 0.00838419 0.04257858
v 0.03989544 -0.00561118 0.04723715
v 0.04353997 0.02163215 0.04257858
v 0.04304291 0.01927221 0.04407677
v 0.04357556 0.01873014 0.04494821
v 0.04416354 0.02203460 0.04283100
v 0.03978222 -0.00068871 0.04688170
v 0.04062795 -0.00035197 0.04784673
v 0.03978222 -0.00178107 0.04702852
v 0.04059193 -0.00561118 0.04796521
v 0.04416354 0.00569298 0.05009617
v 0.04409921 0.00547396 0.05013223
v 0.04311754 0.00449932 0.04984719
v 0.04272898 0.00693044 0.04873707
v 0.03978222 0.00670321 0.04566426
v 0.03978222 0.00541921 0.04588405
v 0.03978222 0.00500307 0.04595360
v 0.03978222 0.00415710 0.04609182
v 0.04002025 -0.00035197 0.04711867
v 0.03978222 0.00959701 0.04506841
v 0.04025140 0.01015004 0.04542644
v 0.03978222 0.01129715 0.04449661
v 0.03978222 0.00838419 0.04533285
v 0.03978222 0.00799816 0.04541614
v 0.03978222 0.01418821 0.04257858
v 0.04309437 0.02110650 0.04257858
v 0.04206981 0.01927495 0.04257858
v 0.04185109 0.01885334 0.04257858
v 0.04279245 0.01830031 0.04446141
v 0.04313683 0.01764873 0.04543245
v 0.04298287 0.02082452 0.04269792
v 0.04276457 0.02003604 0.04302847
v 0.04246780 0.02003878 0.04257858
v 0.04410822 0.01818807 0.04577416
v 0.04416354 0.02006616 0.04435323
v 0.04416354 0.01454960 0.04717104
v 0.04405890 0.01421012 0.04722685
v 0.04333068 0.01421012 0.04681731
v 0.04337099 0.00547396 0.04969437
v 0.04308365 0.01333677 0.04695383
v 0.04289538 0.01236761 0.04712811
v 0.04291039 0.00795710 0.04857050
v 0.04118248 0.01129715 0.04590723
v 0.04139434 0.01249355 0.04571320
v 0.04156889 0.01346545 0.04555436
v 0.04045426 0.01129715 0.04521437
v 0.03978222 0.01131358 0.04449060
v 0.03978222 0.01409513 0.04265585
v 0.04015491 0.01509441 0.04257858
v 0.04294727 0.02090117 0.04257858
v 0.04160620 0.01832769 0.04257858
v 0.04151742 0.01794441 0.04271595
v 0.04133258 0.01712308 0.04301129
v 0.04138448 0.01532712 0.04436868
v 0.04367120 0.01714772 0.04596562
v 0.03997564 0.01230738 0.04426308
v 0.04289709 0.01667683 0.04568658
v 0.04283920 0.02070679 0.04257858
v 0.04416354 0.01819902 0.04578016
v 0.04416354 0.01823735 0.04575784
v 0.04416354 0.01528605 0.04691605
v 0.04416354 0.01496026 0.04703110
v 0.04380973 0.01562827 0.04658979
v 0.04269639 0.01566660 0.04586602
v 0.03978222 0.01134643 0.04447515
v 0.03989030 0.01395551 0.04298897
v 0.03978222 0.01329845 0.04323796
v 0.04062023 0.01613749 0.04257858
v 0.04147325 0.01803749 0.04257858
v 0.03978222 0.01263317 0.04368956
v 0.03978222 0.01205551 0.04404243
v 0.04105596 0.01710939 0.04257858
f 1 2 3
f 1 3 4
f 1 4 5
f 1 5 6
f 1 6 15
f 1 15 26
f 1 26 45
f 1 45 55
f 1 55 47
f 1 47 29
f 1 29 16
f 1 16 7
f 1 7 17
f 1 17 30
f 1 30 51
f 1 51 80
f 1 80 105
f 1 105 104
f 1 104 106
f 1 106 107
f 1 107 81
f 1 81 56
f 1 56 37
f 1 37 24
f 1 24 11
f 1 11 10
f 1 10 8
f 1 8 2
f 2 8 3
f 3 9 4
f 3 8 10
f 3 10 11
f 3 11 12
f 3 12 9
f 4 9 5
f 5 9 6
f 6 9 13
f 6 13 14
f 6 14 15
f 7 16 17
f 9 18 13
f 9 12 19
f 9 19 20
f 9 20 21
f 9 21 22
f 9 22 23
f 9 23 18
f 11 24 12
f 12 24 25
f 12 25 19
f 13 18 14
f 14 26 15
f 14 18 26
f 16 27 28
f 16 28 17
f 16 29 36
f 16 36 22
f 16 22 35
f 16 35 33
f 16 33 54
f 16 54 52
f 16 52 63
f 16 63 62
f 16 62 61
f 16 61 60
f 16 60 69
f 16 69 68
f 16 68 65
f 16 65 67
f 16 67 92
f 16 92 110
f 16 110 116
f 16 116 115
f 16 115 112
f 16 112 93
f 16 93 70
f 16 70 46
f 16 46 27
f 17 28 46
f 17 46 70
f 17 70 94
f 17 94 113
f 17 113 117
f 17 117 114
f 17 114 96
f 17 96 73
f 17 73 72
f 17 72 78
f 17 78 103
f 17 103 95
f 17 95 71
f 17 71 48
f 17 48 30
f 18 23 26
f 19 25 31
f 19 31 32
f 19 32 33
f 19 33 34
f 19 34 20
f 20 34 35
f 20 35 21
f 21 35 22
f 22 36 23
f 23 36 26
f 24 37 38
f 24 38 25
f 25 39 40
f 25 40 41
f 25 41 42
f 25 42 31
f 25 38 43
f 25 43 44
f 25 44 39
f 26 36 45
f 27 46 28
f 29 47 36
f 30 48 49
f 30 49 50
f 30 50 51
f 31 42 52
f 31 52 53
f 31 53 32
f 32 53 54
f 32 54 33
f 33 35 34
f 36 47 55
f 36 55 45
f 37 56 57
f 37 57 58
f 37 58 38
f 38 58 59
f 38 59 43
f 39 60 61
f 39 61 62
f 39 62 40
f 39 44 60
f 40 62 42
f 40 42 41
f 42 62 63
f 42 63 64
f 42 64 52
f 43 65 44
f 43 59 66
f 43 66 67
f 43 67 65
f 44 65 68
f 44 68 69
f 44 69 60
f 48 71 49
f 49 72 73
f 49 73 74
f 49 74 75
f 49 75 50
f 49 71 76
f 49 76 77
f 49 77 78
f 49 78 72
f 50 75 79
f 50 79 51
f 51 79 80
f 52 54 53
f 52 64 63
f 56 81 82
f 56 82 83
f 56 83 57
f 57 83 84
f 57 84 58
f 58 84 85
f 58 85 86
f 58 86 87
f 58 87 59
f 59 87 86
f 59 86 88
f 59 88 66
f 66 88 89
f 66 89 90
f 66 90 91
f 66 91 92
f 66 92 67
f 70 93 94
f 71 95 76
f 73 96 74
f 74 96 97
f 74 97 98
f 74 98 99
f 74 99 75
f 75 100 79
f 75 99 101
f 75 101 102
f 75 102 100
f 76 95 103
f 76 103 78
f 76 78 77
f 79 104 105
f 79 105 80
f 79 100 106
f 79 106 104
f 81 107 83
f 81 83 82
f 83 107 106
f 83 106 108
f 83 108 102
f 83 102 85
f 83 85 84
f 85 102 109
f 85 109 86
f 86 89 88
f 86 109 89
f 89 109 90
f 90 109 102
f 90 102 92
f 90 92 91
f 92 101 110
f 92 102 101
f 93 111 94
f 93 112 111
f 94 111 113
f 96 114 97
f 97 114 111
f 97 111 98
f 98 111 99
f 99 111 101
f 100 102 108
f 100 108 106
f 101 115 116
f 101 116 110
f 101 111 115
f 111 114 117
f 111 117 113
f 111 112 115

