# https://github.com/mikedh/trimesh
v -0.03835065 0.02499181 0.01243273
v -0.04325878 0.04094818 0.01243273
v -0.03688547 0.02499181 0.01243273
v -0.04161361 0.02499181 0.03692023
v -0.04325878 0.02758337 0.03692023
v -0.04325878 0.04314870 0.01243273
v -0.03687794 0.02520689 0.01243273
v -0.03675955 0.02499181 0.01366490
v -0.03977751 0.02499181 0.03692023
v -0.04325878 0.03007361 0.03692023
v -0.04325878 0.04307226 0.01278512
v -0.04291592 0.04261545 0.01352826
v -0.04282833 0.04269722 0.01279232
v -0.04278590 0.04273632 0.01243273
v -0.03685536 0.02586455 0.01243273
v -0.03661447 0.02499181 0.01512240
v -0.03991712 0.02537575 0.03692023
v -0.03829317 0.02499181 0.03305593
v -0.04252927 0.02986209 0.03692023
v -0.04325878 0.03092324 0.03619148
v -0.04303157 0.04250347 0.01449913
v -0.04325878 0.04241637 0.01570492
v -0.04319856 0.04237016 0.01570492
v -0.04210018 0.04201822 0.01279232
v -0.04286323 0.04121303 0.01959559
v -0.04256828 0.04148321 0.01716003
v -0.04223705 0.04222441 0.01243273
v -0.03684646 0.02622538 0.01243273
v -0.03647144 0.02499181 0.01657751
v -0.04073081 0.02737185 0.03692023
v -0.03840335 0.02552683 0.03283299
v -0.03976109 0.02583433 0.03606682
v -0.03992875 0.02679772 0.03556341
v -0.03778675 0.02499181 0.03170150
v -0.04210566 0.02944794 0.03692023
v -0.04268461 0.03124318 0.03564251
v -0.04325878 0.03136583 0.03575758
v -0.04325878 0.04127346 0.02033633
v -0.04300010 0.04108149 0.02056647
v -0.04132003 0.04128946 0.01279232
v -0.04142473 0.04119170 0.01367449
v -0.04000061 0.03970573 0.01353545
v -0.04154381 0.04107261 0.01464536
v -0.04205707 0.04205377 0.01243273
v -0.03681977 0.02732208 0.01243273
v -0.03640163 0.02586455 0.01716003
v -0.03641806 0.02499181 0.01716003
v -0.03653577 0.02586455 0.01570492
v -0.04123790 0.02845433 0.03692023
v -0.04013885 0.02776822 0.03508876
v -0.03992396 0.02819837 0.03411789
v -0.03839856 0.02699502 0.03138747
v -0.03975356 0.02729897 0.03461651
v -0.03732824 0.02499181 0.03042858
v -0.03818025 0.02741629 0.03036386
v -0.04178880 0.02911733 0.03692023
v -0.04279753 0.03259051 0.03410830
v -0.04325878 0.03272559 0.03423296
v -0.04163483 0.02929685 0.03649832
v -0.04325878 0.04091263 0.02132878
v -0.04304389 0.03958131 0.02351743
v -0.04280848 0.03987637 0.02254416
v -0.04264561 0.04013943 0.02153014
v -0.04059189 0.04050026 0.01279232
v -0.04129265 0.04132679 0.01243273
v -0.03852448 0.03248564 0.02246026
v -0.03980694 0.03897874 0.01411078
v -0.03965775 0.03897163 0.01279232
v -0.03996092 0.03977150 0.01279232
v -0.04074381 0.04073133 0.01243273
v -0.04140420 0.03978927 0.01808056
v -0.04140010 0.03834596 0.02100995
v -0.03999651 0.03825887 0.01646244
v -0.03970908 0.03462216 0.02287738
v -0.03843551 0.02971278 0.02841493
v -0.03860044 0.03091613 0.02652353
v -0.03847657 0.03112054 0.02555266
v -0.03681430 0.02768113 0.01243273
v -0.03678487 0.02732208 0.01279232
v -0.03633936 0.02586455 0.01861753
v -0.03635168 0.02499181 0.01803501
v -0.03665279 0.02732208 0.01424742
v -0.03657409 0.02732208 0.01570492
v -0.04139120 0.02961146 0.03552745
v -0.04291045 0.03388806 0.03246861
v -0.03864150 0.02937861 0.02938580
v -0.04000129 0.02951193 0.03246142
v -0.03839445 0.02840811 0.02994195
v -0.03715647 0.02499181 0.02994195
v -0.03706340 0.02499181 0.02967586
v -0.04325878 0.03402848 0.03260285
v -0.04325878 0.03984259 0.02331367
v -0.04325878 0.03791404 0.02649237
v -0.04325878 0.03543091 0.03055084
v -0.04306237 0.03516606 0.03072824
v -0.04296314 0.03673735 0.02800261
v -0.04287418 0.03830864 0.02527458
v -0.04270104 0.03856637 0.02444275
v -0.03983568 0.03268471 0.02705331
v -0.04139599 0.03689555 0.02389859
v -0.03998281 0.03391295 0.02523623
v -0.04125433 0.03713017 0.02298765
v -0.03834039 0.03177642 0.02296128
v -0.03851353 0.03398049 0.01818364
v -0.03839582 0.03136939 0.02444275
v -0.03842525 0.03430577 0.01570492
v -0.03847863 0.03511096 0.01243273
v -0.03966733 0.03900363 0.01243273
v -0.03974740 0.03922048 0.01243273
v -0.03995749 0.03977683 0.01243273
v -0.03847041 0.03413335 0.01716003
v -0.03999171 0.03681023 0.01938944
v -0.03986374 0.03410847 0.02444275
v -0.03821720 0.02884715 0.02886321
v -0.03699428 0.02544151 0.02881047
v -0.03789077 0.02877783 0.02735297
v -0.03832875 0.02999007 0.02735297
v -0.04015390 0.03365521 0.02620710
v -0.03970292 0.03141204 0.02881047
v -0.03990412 0.03111343 0.02977175
v -0.03984184 0.02975188 0.03172308
v -0.03684646 0.02877783 0.01243273
v -0.03629077 0.02499181 0.01949252
v -0.03632704 0.02499181 0.01861753
v -0.03654809 0.02732208 0.01716003
v -0.03634552 0.02586455 0.02007264
v -0.03626750 0.02499181 0.02240513
v -0.03627640 0.02499181 0.02094762
v -0.03682798 0.02877783 0.01279232
v -0.03686904 0.02906756 0.01243273
v -0.04129471 0.03121475 0.03284018
v -0.04140694 0.03250164 0.03112138
v -0.04275031 0.03412447 0.03172308
v -0.04282696 0.03546646 0.02975737
v -0.04325878 0.03506475 0.03113097
v -0.03708598 0.02515889 0.02956079
v -0.03684920 0.02499181 0.02881047
v -0.04274962 0.03703774 0.02703174
v -0.04220146 0.03604236 0.02732659
v -0.04145142 0.03534559 0.02665058
v -0.03813577 0.03169111 0.02153014
v -0.03706477 0.02667508 0.02685195
v -0.03700591 0.02684571 0.02589786
v -0.03666922 0.02586455 0.02589786
v -0.03691763 0.02710523 0.02444275
v -0.03705587 0.02816105 0.02257772
v -0.03825416 0.03035267 0.02598176
v -0.03809129 0.03314686 0.01570492
v -0.03838556 0.03444441 0.01424742
v -0.03841087 0.03487634 0.01243273
v -0.03701686 0.02829969 0.02153014
v -0.03673217 0.02732208 0.02153014
v -0.03674586 0.02499181 0.02825671
v -0.03688478 0.02594987 0.02734338
v -0.04117289 0.03457772 0.02722352
v -0.04122627 0.03277003 0.03026797
v -0.03657683 0.02732208 0.01861753
v -0.03637289 0.02586455 0.02153014
v -0.03699154 0.02988697 0.01243273
v -0.03699086 0.02986564 0.01279232
v -0.03629009 0.02499181 0.02386023
v -0.03651661 0.02586455 0.02444275
v -0.03659257 0.02499181 0.02735057
v -0.03651661 0.02499181 0.02677044
v -0.03801190 0.03314686 0.01424742
v -0.03835681 0.03468792 0.01243273
v -0.03706819 0.02959191 0.01570492
v -0.03702918 0.02972878 0.01424742
v -0.03665279 0.02732208 0.02007264
v -0.03642422 0.02586455 0.02298765
v -0.03637905 0.02499181 0.02531534
f 1 2 6
f 1 6 14
f 1 14 27
f 1 27 44
f 1 44 65
f 1 65 70
f 1 70 110
f 1 110 109
f 1 109 108
f 1 108 107
f 1 107 150
f 1 150 166
f 1 166 159
f 1 159 130
f 1 130 122
f 1 122 78
f 1 78 45
f 1 45 28
f 1 28 15
f 1 15 7
f 1 7 3
f 1 3 8
f 1 8 16
f 1 16 29
f 1 29 47
f 1 47 81
f 1 81 124
f 1 124 123
f 1 123 128
f 1 128 127
f 1 127 161
f 1 161 171
f 1 171 164
f 1 164 163
f 1 163 153
f 1 153 137
f 1 137 90
f 1 90 89
f 1 89 54
f 1 54 34
f 1 34 18
f 1 18 9
f 1 9 4
f 1 4 5
f 1 5 2
f 2 5 10
f 2 10 20
f 2 20 37
f 2 37 58
f 2 58 91
f 2 91 135
f 2 135 94
f 2 94 93
f 2 93 92
f 2 92 60
f 2 60 38
f 2 38 22
f 2 22 11
f 2 11 6
f 3 7 8
f 4 9 17
f 4 17 30
f 4 30 49
f 4 49 56
f 4 56 35
f 4 35 19
f 4 19 10
f 4 10 5
f 6 11 12
f 6 12 13
f 6 13 14
f 7 15 8
f 8 15 16
f 9 18 17
f 10 19 20
f 11 21 12
f 11 22 23
f 11 23 21
f 12 24 13
f 12 21 25
f 12 25 26
f 12 26 24
f 13 24 14
f 14 24 27
f 15 28 29
f 15 29 16
f 17 18 31
f 17 31 32
f 17 32 33
f 17 33 30
f 18 34 31
f 19 35 36
f 19 36 20
f 20 36 37
f 21 23 25
f 22 38 39
f 22 39 25
f 22 25 23
f 24 40 27
f 24 26 41
f 24 41 40
f 25 39 42
f 25 42 43
f 25 43 41
f 25 41 26
f 27 40 44
f 28 45 29
f 29 46 47
f 29 45 48
f 29 48 46
f 30 33 50
f 30 50 51
f 30 51 49
f 31 34 52
f 31 52 33
f 31 33 32
f 33 52 53
f 33 53 51
f 33 51 50
f 34 54 55
f 34 55 52
f 35 56 36
f 36 57 58
f 36 58 37
f 36 56 59
f 36 59 57
f 38 60 39
f 39 60 61
f 39 61 62
f 39 62 63
f 39 63 42
f 40 42 64
f 40 64 65
f 40 65 44
f 40 41 42
f 41 43 42
f 42 66 67
f 42 67 68
f 42 68 69
f 42 69 70
f 42 70 64
f 42 63 71
f 42 71 72
f 42 72 73
f 42 73 74
f 42 74 75
f 42 75 76
f 42 76 77
f 42 77 66
f 45 78 79
f 45 79 48
f 46 80 81
f 46 81 47
f 46 48 79
f 46 79 82
f 46 82 83
f 46 83 80
f 49 84 85
f 49 85 57
f 49 57 59
f 49 59 56
f 49 51 86
f 49 86 87
f 49 87 84
f 51 53 88
f 51 88 86
f 52 55 88
f 52 88 53
f 54 89 55
f 55 89 90
f 55 90 88
f 57 85 91
f 57 91 58
f 60 92 61
f 61 92 93
f 61 93 94
f 61 94 95
f 61 95 96
f 61 96 97
f 61 97 62
f 62 97 98
f 62 98 99
f 62 99 100
f 62 100 63
f 63 72 71
f 63 100 101
f 63 101 102
f 63 102 72
f 64 70 65
f 66 103 104
f 66 104 67
f 66 77 105
f 66 105 103
f 67 104 68
f 68 106 107
f 68 107 108
f 68 108 109
f 68 109 110
f 68 110 69
f 68 104 111
f 68 111 106
f 69 110 70
f 72 112 73
f 72 102 112
f 73 112 74
f 74 112 113
f 74 113 75
f 75 86 88
f 75 88 114
f 75 114 115
f 75 115 116
f 75 116 117
f 75 117 77
f 75 77 76
f 75 113 101
f 75 101 100
f 75 100 118
f 75 118 99
f 75 99 119
f 75 119 120
f 75 120 121
f 75 121 87
f 75 87 86
f 77 117 105
f 78 122 82
f 78 82 79
f 80 123 124
f 80 124 81
f 80 83 125
f 80 125 126
f 80 126 127
f 80 127 128
f 80 128 123
f 82 122 83
f 83 122 129
f 83 129 130
f 83 130 125
f 84 87 131
f 84 131 85
f 85 131 132
f 85 132 133
f 85 133 134
f 85 134 96
f 85 96 95
f 85 95 135
f 85 135 91
f 87 121 131
f 88 90 136
f 88 136 114
f 90 137 136
f 94 135 95
f 96 134 97
f 97 134 138
f 97 138 98
f 98 138 139
f 98 139 140
f 98 140 119
f 98 119 99
f 99 118 100
f 101 113 102
f 102 113 112
f 103 141 104
f 103 105 142
f 103 142 143
f 103 143 141
f 104 141 144
f 104 144 145
f 104 145 146
f 104 146 111
f 105 117 147
f 105 147 142
f 106 148 149
f 106 149 150
f 106 150 107
f 106 111 151
f 106 151 152
f 106 152 148
f 111 146 151
f 114 136 115
f 115 136 137
f 115 137 153
f 115 153 154
f 115 154 116
f 116 154 142
f 116 142 147
f 116 147 117
f 119 140 155
f 119 155 139
f 119 139 134
f 119 134 156
f 119 156 120
f 120 156 133
f 120 133 132
f 120 132 121
f 121 132 131
f 122 130 129
f 125 157 158
f 125 158 126
f 125 130 159
f 125 159 160
f 125 160 157
f 126 158 161
f 126 161 127
f 133 156 134
f 134 139 138
f 139 155 140
f 141 143 144
f 142 154 144
f 142 144 143
f 144 162 146
f 144 146 145
f 144 154 163
f 144 163 164
f 144 164 162
f 146 162 151
f 148 165 150
f 148 150 149
f 148 152 169
f 148 169 165
f 150 160 166
f 150 165 167
f 150 167 168
f 150 168 160
f 151 162 152
f 152 162 170
f 152 170 169
f 153 163 154
f 157 169 170
f 157 170 158
f 157 160 169
f 158 170 161
f 159 166 160
f 160 168 169
f 161 170 171
f 162 164 171
f 162 171 170
f 165 169 167
f 167 169 168

