# https://github.com/mikedh/trimesh
v -0.06712567 0.04316882 0.00023084
v -0.06712567 0.04323989 -0.00437740
v -0.06773976 0.04266662 -0.00031879
v -0.06773419 0.04266188 0.00023084
v -0.06712567 0.04043037 0.00023084
v -0.06712567 0.04324463 -0.00583677
v -0.06777143 0.04269504 -0.00468877
v -0.06776329 0.04268557 -0.00323211
v -0.06775259 0.04267609 -0.00177545
v -0.06849978 0.04196542 -0.00468877
v -0.06804788 0.04217388 0.00023084
v -0.06918491 0.04122633 -0.00359221
v -0.06712567 0.03426176 -0.02742943
v -0.06816256 -0.00515677 0.00023084
v -0.06712567 0.04323515 -0.00614543
v -0.06774703 0.04267609 -0.00614543
v -0.06919347 0.04123580 -0.00468877
v -0.06821006 0.04188488 0.00023084
v -0.06963596 0.03897113 -0.00760209
v -0.06932956 0.04042564 -0.00468877
v -0.06923455 0.04049196 -0.00315901
v -0.06914340 0.03973865 -0.00094424
v -0.06910489 0.04102260 -0.00262291
v -0.07066558 0.03549358 -0.02216597
v -0.07063220 0.03544620 -0.02070931
v -0.06712567 0.03633691 -0.02742943
v -0.06832176 -0.00515677 -0.00468877
v -0.06835728 -0.00515677 -0.00571222
v -0.06837268 -0.00515677 -0.00614543
v -0.06844243 -0.00515677 -0.00716888
v -0.06847239 -0.00515677 -0.00760209
v -0.06855156 -0.00515677 -0.00862554
v -0.06881089 -0.00515677 -0.01197206
v -0.06892472 -0.00515677 -0.01342872
v -0.06904198 -0.00515677 -0.01488267
v -0.06911901 -0.00515677 -0.01581136
v -0.07010541 -0.00515677 -0.02742943
v -0.06946906 -0.00515677 0.00023084
v -0.06712567 0.04318777 -0.00720137
v -0.06770638 0.04263819 -0.00707412
v -0.06916394 0.04119316 -0.00570681
v -0.07064119 0.03541778 -0.02362263
v -0.06858451 0.04095627 0.00023084
v -0.06953582 0.03897113 -0.00614543
v -0.07060225 0.03537040 -0.01983748
v -0.07106357 0.03314364 -0.02507928
v -0.07129765 0.03022988 -0.02653594
v -0.07129936 0.02586163 -0.02362263
v -0.07126641 0.02440712 -0.02216597
v -0.06915966 0.03897113 -0.00070597
v -0.06915795 0.03719919 0.00023084
v -0.06908092 0.03794303 0.00023084
v -0.06905781 0.03816570 0.00023084
v -0.06893029 0.03924119 0.00023084
v -0.06878179 0.04035457 0.00023084
v -0.07106571 0.02440712 -0.01925265
v -0.07077385 0.03462183 -0.02495474
v -0.07081023 0.03460288 -0.02362263
v -0.07078455 0.03460288 -0.02216597
v -0.06712567 0.03888111 -0.02211182
v -0.06748171 0.03610476 -0.02742943
v -0.07146070 -0.00515677 -0.02742943
v -0.07133488 0.01712512 -0.02216597
v -0.06951357 -0.00515677 -0.00031879
v -0.06946564 0.02877538 0.00023084
v -0.06951272 0.02877538 -0.00031879
v -0.07098226 0.02294788 -0.01779599
v -0.07122576 0.02149337 -0.02070931
v -0.06712567 0.04316882 -0.00742339
v -0.06712567 0.04296984 -0.00899106
v -0.06712567 0.04286561 -0.00979791
v -0.06712567 0.04276611 -0.01051540
v -0.06712567 0.04264293 -0.01139265
v -0.06738029 0.04228285 -0.01197206
v -0.06804659 0.04155797 -0.01197206
v -0.06814331 0.04166220 -0.01051540
v -0.06794988 0.04144900 -0.01342872
v -0.06785274 0.04133529 -0.01488267
v -0.06887123 0.04077149 -0.01051540
v -0.06914811 0.03971970 -0.01427077
v -0.06945708 0.03881005 -0.01633933
v -0.07060353 0.03534197 -0.02438615
v -0.06938390 0.03867265 -0.01779599
v -0.07116627 0.02440712 -0.02070931
v -0.07091464 0.03321944 -0.02660634
v -0.07120907 0.03168913 -0.02653594
v -0.07131477 0.03022988 -0.02742943
v -0.07136441 0.02933918 -0.02742943
v -0.07135328 0.02877538 -0.02653594
v -0.07132761 0.02731613 -0.02507928
v -0.07135457 0.02440712 -0.02362263
v -0.07132204 0.02294788 -0.02216597
v -0.07069854 0.02586163 -0.01488267
v -0.06959659 0.03022988 -0.00177545
v -0.06939289 0.03168913 0.00023084
v -0.07095872 0.02440712 -0.01779599
v -0.07075460 0.03414805 -0.02617042
v -0.06798325 0.03844050 -0.02185460
v -0.06712567 0.04029298 -0.01914164
v -0.06937492 0.03548411 -0.02613523
v -0.06817497 0.03564993 -0.02742943
v -0.07141191 -0.00515677 -0.02507928
v -0.07146113 -0.00498621 -0.02742943
v -0.07136612 -0.00472089 -0.02362263
v -0.07136526 -0.00515677 -0.02362263
v -0.07133103 0.01567062 -0.02216597
v -0.07134301 0.02149337 -0.02216597
v -0.07126641 -0.00515677 -0.02216597
v -0.06946179 0.02932496 0.00023084
v -0.06963168 0.02877538 -0.00177545
v -0.07063434 0.02440712 -0.01365886
v -0.07110123 0.02294788 -0.01925265
v -0.06712567 0.04255765 -0.01197206
v -0.06867780 0.04051566 -0.01342872
v -0.06877495 0.04064357 -0.01197206
v -0.06712567 0.04235866 -0.01313089
v -0.06776287 0.04123580 -0.01584114
v -0.06887979 0.03939754 -0.01779599
v -0.06900218 0.03953493 -0.01633933
v -0.07034591 0.03511930 -0.02535545
v -0.06930816 0.03849735 -0.01925265
v -0.06922471 0.03834100 -0.02020029
v -0.07080638 0.03286410 -0.02742943
v -0.07094503 0.03238559 -0.02742943
v -0.07128053 0.03079368 -0.02742943
v -0.07138580 0.02877538 -0.02742943
v -0.07137553 0.02586163 -0.02507928
v -0.07139051 0.02294788 -0.02362263
v -0.07121378 0.02294788 -0.02070931
v -0.06948961 0.03022988 -0.00031879
v -0.06942969 0.03077947 0.00023084
v -0.07084660 0.02440712 -0.01633933
v -0.06994022 0.03469289 -0.02663612
v -0.07050554 0.03375955 -0.02713973
v -0.06793062 0.03987605 -0.01889525
v -0.06712567 0.04091837 -0.01779599
v -0.06902058 0.03523774 -0.02710453
v -0.06930944 0.03691966 -0.02317588
v -0.06895425 0.03811359 -0.02116959
v -0.06890247 0.03513825 -0.02742943
v -0.07146155 -0.00472089 -0.02742943
v -0.07137939 -0.00515677 -0.02405583
v -0.07140207 0.01567062 -0.02362263
v -0.07149664 0.01858436 -0.02742943
v -0.07139693 0.01275687 -0.02362263
v -0.07129637 -0.00515677 -0.02259917
v -0.07140549 0.02149337 -0.02362263
v -0.07140549 0.02003413 -0.02362263
v -0.07140378 0.01712512 -0.02362263
v -0.06944724 0.03022988 0.00023084
v -0.06974466 0.02877538 -0.00323211
v -0.06712567 0.04229707 -0.01342872
v -0.06712567 0.04192278 -0.01490704
v -0.06712567 0.04152481 -0.01626081
v -0.06755018 0.04105576 -0.01681315
v -0.07041866 0.03358898 -0.02742943
v -0.07140506 0.02731613 -0.02742943
v -0.07140934 0.02586163 -0.02653594
v -0.07139008 0.02731613 -0.02653594
v -0.07149322 0.02059793 -0.02742943
v -0.07140207 0.02440712 -0.02507928
v -0.06967618 0.03442284 -0.02742943
v -0.06722922 0.04084730 -0.01779599
v -0.06712567 0.04146795 -0.01642868
v -0.07149707 0.01914343 -0.02742943
v -0.07149622 0.02003413 -0.02742943
f 1 2 3
f 1 3 4
f 1 4 11
f 1 11 18
f 1 18 43
f 1 43 55
f 1 55 54
f 1 54 53
f 1 53 52
f 1 52 51
f 1 51 95
f 1 95 131
f 1 131 150
f 1 150 109
f 1 109 65
f 1 65 38
f 1 38 14
f 1 14 5
f 1 5 13
f 1 13 26
f 1 26 60
f 1 60 99
f 1 99 136
f 1 136 164
f 1 164 154
f 1 154 153
f 1 153 152
f 1 152 116
f 1 116 113
f 1 113 73
f 1 73 72
f 1 72 71
f 1 71 70
f 1 70 69
f 1 69 39
f 1 39 15
f 1 15 6
f 1 6 2
f 2 6 7
f 2 7 8
f 2 8 9
f 2 9 3
f 3 9 10
f 3 10 4
f 4 10 12
f 4 12 11
f 5 14 13
f 6 15 16
f 6 16 7
f 7 16 10
f 7 10 8
f 8 10 9
f 10 16 17
f 10 17 12
f 11 12 18
f 12 19 20
f 12 20 21
f 12 21 22
f 12 22 23
f 12 23 18
f 12 17 24
f 12 24 25
f 12 25 19
f 13 14 27
f 13 27 28
f 13 28 29
f 13 29 30
f 13 30 31
f 13 31 32
f 13 32 33
f 13 33 34
f 13 34 35
f 13 35 36
f 13 36 37
f 13 37 62
f 13 62 103
f 13 103 141
f 13 141 144
f 13 144 165
f 13 165 166
f 13 166 160
f 13 160 157
f 13 157 126
f 13 126 88
f 13 88 87
f 13 87 125
f 13 125 124
f 13 124 123
f 13 123 156
f 13 156 162
f 13 162 140
f 13 140 101
f 13 101 61
f 13 61 26
f 14 38 64
f 14 64 108
f 14 108 146
f 14 146 105
f 14 105 142
f 14 142 102
f 14 102 62
f 14 62 37
f 14 37 36
f 14 36 35
f 14 35 34
f 14 34 33
f 14 33 32
f 14 32 31
f 14 31 30
f 14 30 29
f 14 29 28
f 14 28 27
f 15 39 16
f 16 39 40
f 16 40 41
f 16 41 17
f 17 41 42
f 17 42 24
f 18 23 43
f 19 44 22
f 19 22 21
f 19 21 20
f 19 25 45
f 19 45 46
f 19 46 47
f 19 47 48
f 19 48 49
f 19 49 84
f 19 84 44
f 22 50 51
f 22 51 52
f 22 52 53
f 22 53 54
f 22 54 55
f 22 55 23
f 22 44 56
f 22 56 50
f 23 55 43
f 24 42 57
f 24 57 58
f 24 58 46
f 24 46 25
f 25 46 59
f 25 59 45
f 26 61 60
f 38 63 64
f 38 65 66
f 38 66 67
f 38 67 68
f 38 68 63
f 39 69 40
f 40 69 70
f 40 70 71
f 40 71 72
f 40 72 73
f 40 73 74
f 40 74 75
f 40 75 76
f 40 76 41
f 41 76 75
f 41 75 77
f 41 77 78
f 41 78 79
f 41 79 80
f 41 80 81
f 41 81 42
f 42 82 57
f 42 81 83
f 42 83 82
f 44 84 56
f 45 59 46
f 46 58 57
f 46 57 85
f 46 85 86
f 46 86 47
f 47 86 87
f 47 87 88
f 47 88 89
f 47 89 90
f 47 90 48
f 48 90 91
f 48 91 92
f 48 92 49
f 49 92 84
f 50 56 93
f 50 93 94
f 50 94 95
f 50 95 51
f 56 84 92
f 56 92 96
f 56 96 93
f 57 97 85
f 57 82 97
f 60 98 99
f 60 61 100
f 60 100 98
f 61 101 100
f 62 102 103
f 63 104 105
f 63 105 106
f 63 106 64
f 63 68 107
f 63 107 104
f 64 106 108
f 65 109 66
f 66 109 110
f 66 110 111
f 66 111 67
f 67 111 112
f 67 112 68
f 68 112 107
f 73 113 74
f 74 113 78
f 74 78 77
f 74 77 75
f 78 114 115
f 78 115 79
f 78 113 116
f 78 116 117
f 78 117 118
f 78 118 119
f 78 119 114
f 79 115 80
f 80 119 83
f 80 83 81
f 80 115 114
f 80 114 119
f 82 120 97
f 82 83 121
f 82 121 122
f 82 122 120
f 83 119 121
f 85 97 123
f 85 123 124
f 85 124 125
f 85 125 86
f 86 125 87
f 88 126 89
f 89 126 127
f 89 127 91
f 89 91 90
f 91 127 128
f 91 128 92
f 92 129 96
f 92 128 107
f 92 107 129
f 93 96 130
f 93 130 94
f 94 130 131
f 94 131 95
f 96 129 132
f 96 132 130
f 97 120 133
f 97 133 134
f 97 134 123
f 98 135 99
f 98 100 135
f 99 135 136
f 100 101 137
f 100 137 120
f 100 120 138
f 100 138 139
f 100 139 135
f 101 140 137
f 102 141 103
f 102 142 143
f 102 143 144
f 102 144 141
f 104 142 105
f 104 107 145
f 104 145 142
f 105 146 106
f 106 146 108
f 107 112 129
f 107 128 147
f 107 147 148
f 107 148 149
f 107 149 143
f 107 143 145
f 109 150 110
f 110 150 151
f 110 151 112
f 110 112 111
f 112 132 129
f 112 151 132
f 116 152 117
f 117 152 153
f 117 153 154
f 117 154 155
f 117 155 122
f 117 122 118
f 118 122 121
f 118 121 119
f 120 122 139
f 120 139 138
f 120 137 133
f 122 155 135
f 122 135 139
f 123 134 156
f 126 157 158
f 126 158 159
f 126 159 127
f 127 159 128
f 128 160 147
f 128 159 161
f 128 161 160
f 130 150 131
f 130 132 150
f 132 151 150
f 133 162 134
f 133 137 140
f 133 140 162
f 134 162 156
f 135 155 163
f 135 163 136
f 136 163 155
f 136 155 164
f 142 145 143
f 143 149 144
f 144 149 165
f 147 160 166
f 147 166 165
f 147 165 148
f 148 165 149
f 154 164 155
f 157 160 158
f 158 160 161
f 158 161 159

