# https://github.com/mikedh/trimesh
v 0.05411479 0.02152113 0.04293786
v 0.05982744 0.02152113 0.04309938
v 0.05411479 0.02152113 0.04468594
v 0.05411479 0.03648333 0.02763755
v 0.05994064 0.02152113 0.04311789
v 0.05830892 0.02152113 0.04481549
v 0.05830892 0.02267680 0.04433094
v 0.05411479 0.02162220 0.04464220
v 0.05411479 0.03648333 0.03083591
v 0.05829921 0.03648333 0.02869077
v 0.06064087 0.02218465 0.04262324
v 0.06120931 0.02152113 0.04349308
v 0.05976599 0.02152113 0.04482222
v 0.05830892 0.02549640 0.04287057
v 0.05685347 0.02547883 0.04285206
v 0.05411479 0.02252154 0.04424513
v 0.05976599 0.02264165 0.04432421
v 0.05502121 0.03648333 0.03109838
v 0.05411479 0.03601169 0.03162330
v 0.05831943 0.03648333 0.02869918
v 0.06210522 0.03076650 0.03520190
v 0.06228068 0.02927687 0.03661349
v 0.06220063 0.02619215 0.03938618
v 0.06122467 0.02152113 0.04349812
v 0.05979510 0.02152113 0.04481717
v 0.05943285 0.02534847 0.04279149
v 0.05830892 0.02622438 0.04236414
v 0.05685347 0.02620680 0.04236414
v 0.05539720 0.02532357 0.04276625
v 0.05411479 0.02338427 0.04378583
v 0.05411479 0.02324951 0.04385817
v 0.06080663 0.02243952 0.04422158
v 0.05411479 0.03550489 0.03246285
v 0.05582171 0.03648333 0.03130868
v 0.05837441 0.03648333 0.02873620
v 0.06210522 0.03133920 0.03520190
v 0.06229281 0.03026263 0.03611548
v 0.05927275 0.03648333 0.02935030
v 0.06237529 0.02878765 0.03753380
v 0.06210280 0.02474500 0.04083310
v 0.06199929 0.02343114 0.04237255
v 0.06126025 0.02152113 0.04433262
v 0.06121982 0.02152113 0.04438478
v 0.06040396 0.02508921 0.04258791
v 0.05985736 0.02584647 0.04222955
v 0.05976599 0.02686593 0.04144215
v 0.05830892 0.02703583 0.04163564
v 0.05685347 0.02703290 0.04163564
v 0.05976599 0.02759390 0.04079272
v 0.05539720 0.02605154 0.04227497
v 0.05539720 0.02697431 0.04154647
v 0.05411479 0.02690547 0.04146403
v 0.05446491 0.02519906 0.04268886
v 0.05411479 0.02459560 0.04302703
v 0.06199929 0.02377974 0.04272083
v 0.06122224 0.02408294 0.04294627
v 0.05411479 0.03543019 0.03256885
v 0.05682031 0.03648333 0.03150553
v 0.06213109 0.03128940 0.03609529
v 0.05934471 0.03648333 0.02987522
v 0.06225966 0.03012788 0.03744126
v 0.06223379 0.02877740 0.03864590
v 0.06220063 0.02702851 0.04007599
v 0.06210280 0.02542024 0.04140850
v 0.06199929 0.02343114 0.04272083
v 0.06161765 0.02639135 0.04104677
v 0.06064653 0.02667551 0.04125540
v 0.06088911 0.02822666 0.03990102
v 0.05830892 0.02776380 0.04089199
v 0.05976599 0.02837606 0.04006422
v 0.05685347 0.02776087 0.04088862
v 0.05539720 0.02770229 0.04083983
v 0.05411479 0.02763491 0.04078599
v 0.06204862 0.02957274 0.03834306
v 0.05411479 0.02471717 0.04294627
v 0.06186022 0.02799963 0.03967389
v 0.05539720 0.03547706 0.03261259
v 0.05830892 0.03648333 0.03164349
v 0.05411479 0.03483990 0.03320987
v 0.06203649 0.03101989 0.03688268
v 0.06061824 0.03409582 0.03318126
v 0.05932369 0.03648333 0.03104117
v 0.06059317 0.03395960 0.03400231
v 0.06125297 0.02733757 0.04047474
v 0.05976599 0.02910256 0.03931720
v 0.05976599 0.02979978 0.03858870
v 0.05976599 0.03052921 0.03782318
v 0.05976599 0.03264281 0.03560233
v 0.05976599 0.03337078 0.03483681
v 0.05830892 0.02845515 0.04016348
v 0.06122224 0.02967527 0.03845074
v 0.05685347 0.02845076 0.04016012
v 0.05411479 0.02978513 0.03857524
v 0.05539720 0.02840829 0.04011133
v 0.05411479 0.02836727 0.04005749
v 0.05685347 0.03552393 0.03265802
v 0.05830892 0.03627095 0.03188408
v 0.05859677 0.03648333 0.03160984
v 0.05411479 0.03411633 0.03398212
v 0.06122224 0.03110631 0.03697353
v 0.06122224 0.03040324 0.03770204
v 0.05976599 0.03406213 0.03410830
v 0.05923313 0.03648333 0.03134401
v 0.05931803 0.03547120 0.03260081
v 0.05830892 0.03270726 0.03567299
v 0.05830892 0.03554297 0.03267821
v 0.05685347 0.03269408 0.03565953
v 0.05411479 0.03334295 0.03480316
v 0.05411479 0.03201005 0.03621642
v 0.05411479 0.02909378 0.03930374
f 1 2 5
f 1 5 12
f 1 12 24
f 1 24 42
f 1 42 43
f 1 43 25
f 1 25 13
f 1 13 6
f 1 6 3
f 1 3 8
f 1 8 16
f 1 16 31
f 1 31 30
f 1 30 54
f 1 54 75
f 1 75 52
f 1 52 73
f 1 73 95
f 1 95 110
f 1 110 93
f 1 93 109
f 1 109 108
f 1 108 99
f 1 99 79
f 1 79 57
f 1 57 33
f 1 33 19
f 1 19 9
f 1 9 4
f 1 4 2
f 2 4 5
f 3 6 7
f 3 7 8
f 4 9 18
f 4 18 34
f 4 34 58
f 4 58 78
f 4 78 98
f 4 98 103
f 4 103 82
f 4 82 60
f 4 60 38
f 4 38 35
f 4 35 20
f 4 20 10
f 4 10 11
f 4 11 5
f 5 11 12
f 6 13 7
f 7 14 15
f 7 15 16
f 7 16 8
f 7 13 17
f 7 17 14
f 9 19 18
f 10 20 21
f 10 21 22
f 10 22 23
f 10 23 11
f 11 23 24
f 11 24 12
f 13 25 17
f 14 26 27
f 14 27 28
f 14 28 15
f 14 17 26
f 15 28 29
f 15 29 30
f 15 30 31
f 15 31 16
f 17 25 32
f 17 32 26
f 18 19 33
f 18 33 34
f 20 35 21
f 21 36 37
f 21 37 22
f 21 35 38
f 21 38 36
f 22 37 39
f 22 39 23
f 23 40 24
f 23 39 40
f 24 41 42
f 24 40 41
f 25 43 32
f 26 44 45
f 26 45 46
f 26 46 27
f 26 32 44
f 27 47 48
f 27 48 28
f 27 46 49
f 27 49 47
f 28 50 29
f 28 48 51
f 28 51 52
f 28 52 50
f 29 53 54
f 29 54 30
f 29 50 53
f 32 43 55
f 32 55 56
f 32 56 44
f 33 57 58
f 33 58 34
f 36 59 37
f 36 38 60
f 36 60 59
f 37 59 61
f 37 61 39
f 39 61 62
f 39 62 63
f 39 63 64
f 39 64 65
f 39 65 40
f 40 65 41
f 41 65 42
f 42 65 55
f 42 55 43
f 44 56 66
f 44 66 67
f 44 67 45
f 45 67 46
f 46 67 68
f 46 68 49
f 47 69 48
f 47 49 70
f 47 70 69
f 48 69 71
f 48 71 72
f 48 72 73
f 48 73 51
f 49 68 74
f 49 74 70
f 50 52 53
f 51 73 52
f 52 75 53
f 53 75 54
f 55 65 64
f 55 64 76
f 55 76 66
f 55 66 56
f 57 77 78
f 57 78 58
f 57 79 77
f 59 80 61
f 59 60 81
f 59 81 82
f 59 82 83
f 59 83 80
f 60 82 81
f 61 80 74
f 61 74 62
f 62 74 63
f 63 74 64
f 64 74 76
f 66 76 84
f 66 84 67
f 67 84 68
f 68 84 74
f 69 70 85
f 69 85 86
f 69 86 87
f 69 87 88
f 69 88 89
f 69 89 102
f 69 102 90
f 69 90 71
f 70 74 91
f 70 91 85
f 71 90 92
f 71 92 93
f 71 93 94
f 71 94 95
f 71 95 72
f 72 95 73
f 74 84 76
f 74 80 91
f 77 79 96
f 77 96 78
f 78 96 97
f 78 97 98
f 79 99 96
f 80 100 101
f 80 101 91
f 80 83 102
f 80 102 100
f 82 103 83
f 83 103 98
f 83 98 104
f 83 104 102
f 85 91 101
f 85 101 100
f 85 100 86
f 86 100 87
f 87 100 88
f 88 100 89
f 89 100 102
f 90 105 92
f 90 102 105
f 92 105 106
f 92 106 107
f 92 107 108
f 92 108 109
f 92 109 93
f 93 110 94
f 94 110 95
f 96 106 97
f 96 99 108
f 96 108 107
f 96 107 106
f 97 106 102
f 97 102 98
f 98 102 104
f 102 106 105

