# https://github.com/mikedh/trimesh
v -0.07416926 0.00377017 0.04760846
v -0.07416926 0.00377017 0.04916133
v -0.07416882 0.00426048 0.04760846
v -0.07315323 0.00377017 0.04760846
v -0.07416082 0.00377017 0.05012746
v -0.07416082 0.00426048 0.05012746
v -0.07416882 0.00426048 0.04916133
v -0.07411553 0.00464036 0.04760846
v -0.06963310 0.00377017 0.05006525
v -0.06963310 0.00857900 0.04760846
v -0.07392547 0.00377017 0.05083760
v -0.07392547 0.00426048 0.05083760
v -0.07383665 0.00522728 0.05074853
v -0.07400362 0.00522728 0.05012746
v -0.07403249 0.00522728 0.04916133
v -0.07403249 0.00522728 0.04760846
v -0.06963310 0.00377017 0.05108066
v -0.06963310 0.00990049 0.04760846
v -0.07321584 0.00377017 0.05107250
v -0.07321584 0.00426048 0.05107250
v -0.07321584 0.00522728 0.05091511
v -0.07375761 0.00581301 0.05066933
v -0.07380734 0.00594924 0.05012746
v -0.07382821 0.00603386 0.04916133
v -0.07382821 0.00603386 0.04760846
v -0.07224910 0.00377017 0.05108066
v -0.06963310 0.00426048 0.05108066
v -0.06987023 0.00989569 0.04760846
v -0.07031696 0.00973305 0.04793447
v -0.06963310 0.00974325 0.04793889
v -0.07273980 0.00377017 0.05107658
v -0.07224910 0.00426048 0.05108066
v -0.07224910 0.00522728 0.05094366
v -0.07224910 0.00603326 0.05073969
v -0.07321584 0.00594924 0.05071930
v -0.07283439 0.00774662 0.04974604
v -0.07289611 0.00783664 0.04916133
v -0.07325981 0.00715970 0.04916133
v -0.07290721 0.00787445 0.04819487
v -0.07290721 0.00787445 0.04760846
v -0.06963310 0.00494462 0.05098378
v -0.07031696 0.00985068 0.04760846
v -0.07094443 0.00967124 0.04785628
v -0.07128325 0.00888027 0.04896586
v -0.07031696 0.00938017 0.04841787
v -0.06963310 0.00964063 0.04807997
v -0.06963310 0.00522728 0.05094366
v -0.06963310 0.00603326 0.05073969
v -0.07128325 0.00787385 0.04981878
v -0.07224910 0.00715970 0.05017097
v -0.07224910 0.00783604 0.04980791
v -0.07195691 0.00877885 0.04886898
v -0.07205371 0.00888027 0.04819487
v -0.07253731 0.00835756 0.04819487
v -0.07253819 0.00835756 0.04760846
v -0.07069664 0.00979546 0.04760846
v -0.07097552 0.00969584 0.04760846
v -0.07031696 0.00889707 0.04896722
v -0.07128325 0.00835695 0.04944859
v -0.06963310 0.00938017 0.04842195
v -0.06963310 0.00923914 0.04858275
v -0.06963310 0.00787385 0.04981878
v -0.06963310 0.00821592 0.04955805
v -0.07031696 0.00835695 0.04945029
v -0.07172155 0.00918393 0.04760846
v -0.07205460 0.00889107 0.04760846
v -0.06963310 0.00873924 0.04910864
v -0.06963310 0.00889707 0.04896722
v -0.06963310 0.00835695 0.04945029
f 1 2 7
f 1 7 3
f 1 3 8
f 1 8 16
f 1 16 25
f 1 25 40
f 1 40 55
f 1 55 66
f 1 66 65
f 1 65 57
f 1 57 56
f 1 56 42
f 1 42 28
f 1 28 18
f 1 18 10
f 1 10 4
f 1 4 9
f 1 9 17
f 1 17 26
f 1 26 31
f 1 31 19
f 1 19 11
f 1 11 5
f 1 5 2
f 2 5 6
f 2 6 7
f 3 7 8
f 4 10 9
f 5 11 12
f 5 12 6
f 6 12 13
f 6 13 14
f 6 14 15
f 6 15 7
f 7 15 8
f 8 15 16
f 9 10 18
f 9 18 30
f 9 30 46
f 9 46 60
f 9 60 61
f 9 61 68
f 9 68 67
f 9 67 69
f 9 69 63
f 9 63 62
f 9 62 48
f 9 48 47
f 9 47 41
f 9 41 27
f 9 27 17
f 11 19 20
f 11 20 12
f 12 20 13
f 13 21 22
f 13 22 14
f 13 20 21
f 14 22 23
f 14 23 24
f 14 24 15
f 15 24 25
f 15 25 16
f 17 27 32
f 17 32 26
f 18 28 29
f 18 29 30
f 19 31 20
f 20 31 32
f 20 32 33
f 20 33 21
f 21 33 34
f 21 34 35
f 21 35 22
f 22 35 36
f 22 36 23
f 23 36 37
f 23 37 38
f 23 38 24
f 24 38 39
f 24 39 40
f 24 40 25
f 26 32 31
f 27 41 32
f 28 42 29
f 29 42 43
f 29 43 44
f 29 44 45
f 29 45 46
f 29 46 30
f 32 41 33
f 33 41 47
f 33 47 48
f 33 48 34
f 34 48 62
f 34 62 49
f 34 49 50
f 34 50 35
f 35 50 51
f 35 51 36
f 36 51 44
f 36 44 52
f 36 52 53
f 36 53 37
f 37 53 54
f 37 54 39
f 37 39 38
f 39 54 55
f 39 55 40
f 42 56 43
f 43 56 57
f 43 57 53
f 43 53 52
f 43 52 44
f 44 58 45
f 44 51 59
f 44 59 58
f 45 60 46
f 45 58 61
f 45 61 60
f 49 62 63
f 49 63 64
f 49 64 59
f 49 59 51
f 49 51 50
f 53 65 66
f 53 66 54
f 53 57 65
f 54 66 55
f 58 59 64
f 58 64 67
f 58 67 68
f 58 68 61
f 63 69 64
f 64 69 67

