# https://github.com/mikedh/trimesh
v -0.06963265 0.00928784 0.04300892
v -0.06963265 0.00377028 0.05006488
v -0.06963265 0.01041694 0.04300892
v -0.05045488 0.00994725 0.04300892
v -0.05045488 0.00377028 0.05006488
v -0.06963265 0.00377028 0.05108021
v -0.06963265 0.01041694 0.04432924
v -0.06918024 0.01066706 0.04300892
v -0.05045488 0.01094631 0.04300892
v -0.05045488 0.00377028 0.05108021
v -0.06963265 0.00426057 0.05108021
v -0.06963265 0.01041480 0.04529559
v -0.06918024 0.01066706 0.04432924
v -0.06838242 0.01086531 0.04300892
v -0.05045488 0.01099676 0.04336290
v -0.06644887 0.01101737 0.04300892
v -0.05045488 0.00426057 0.05108021
v -0.06963265 0.00494414 0.05098382
v -0.06963265 0.01026488 0.04654480
v -0.06917649 0.01066350 0.04529559
v -0.06838242 0.01086459 0.04432924
v -0.06838242 0.01086531 0.04336290
v -0.06741565 0.01099818 0.04300892
v -0.05045488 0.01099747 0.04379748
v -0.06644887 0.01102874 0.04336290
v -0.05045488 0.00479279 0.05100515
v -0.06963265 0.00522695 0.05094352
v -0.05045488 0.00522695 0.05094352
v -0.06963265 0.01005668 0.04722827
v -0.06907136 0.01062087 0.04598459
v -0.06838242 0.01082480 0.04529559
v -0.06741565 0.01096763 0.04432924
v -0.06741565 0.01099818 0.04336290
v -0.05045488 0.01099818 0.04432924
v -0.06644887 0.01099818 0.04432924
v -0.06963265 0.00603344 0.05073966
v -0.05045488 0.00603344 0.05073966
v -0.06963265 0.00998207 0.04743450
v -0.06838242 0.01066350 0.04608968
v -0.06741565 0.01086388 0.04529559
v -0.05045488 0.01093849 0.04476382
v -0.06644887 0.01086459 0.04529559
v -0.06963265 0.00787381 0.04981836
v -0.05045488 0.00787381 0.04981836
v -0.06963265 0.00974332 0.04793861
v -0.06741565 0.01066635 0.04609205
v -0.06934919 0.00974758 0.04794019
v -0.05045488 0.01086459 0.04529559
v -0.05045488 0.01077577 0.04565431
v -0.06963265 0.00835700 0.04945015
v -0.05045488 0.00813957 0.04961608
v -0.06963265 0.00964029 0.04807925
v -0.05045488 0.01066635 0.04609205
v -0.06963265 0.00938022 0.04842138
v -0.06934919 0.00938022 0.04842297
v -0.05045488 0.00958273 0.04815748
v -0.05045488 0.00974758 0.04794019
v -0.06963265 0.00873929 0.04910802
v -0.05045488 0.00835700 0.04945015
v -0.06963265 0.00923881 0.04858258
v -0.05045488 0.00938022 0.04842297
v -0.06963265 0.00889703 0.04896658
v -0.05045488 0.00889703 0.04896658
v -0.05045488 0.00916278 0.04866791
f 1 2 6
f 1 6 11
f 1 11 18
f 1 18 27
f 1 27 36
f 1 36 43
f 1 43 50
f 1 50 58
f 1 58 62
f 1 62 60
f 1 60 54
f 1 54 52
f 1 52 45
f 1 45 38
f 1 38 29
f 1 29 19
f 1 19 12
f 1 12 7
f 1 7 3
f 1 3 8
f 1 8 14
f 1 14 23
f 1 23 16
f 1 16 9
f 1 9 4
f 1 4 5
f 1 5 2
f 2 5 10
f 2 10 6
f 3 7 13
f 3 13 8
f 4 9 15
f 4 15 24
f 4 24 34
f 4 34 41
f 4 41 48
f 4 48 49
f 4 49 53
f 4 53 57
f 4 57 56
f 4 56 61
f 4 61 64
f 4 64 63
f 4 63 59
f 4 59 51
f 4 51 44
f 4 44 37
f 4 37 28
f 4 28 26
f 4 26 17
f 4 17 10
f 4 10 5
f 6 10 17
f 6 17 11
f 7 12 13
f 8 13 22
f 8 22 14
f 9 16 15
f 11 17 18
f 12 19 20
f 12 20 13
f 13 20 21
f 13 21 22
f 14 22 33
f 14 33 23
f 15 16 25
f 15 25 24
f 16 23 25
f 17 26 18
f 18 26 28
f 18 28 27
f 19 29 30
f 19 30 20
f 20 30 31
f 20 31 21
f 21 31 32
f 21 32 33
f 21 33 22
f 23 33 25
f 24 25 34
f 25 33 32
f 25 32 35
f 25 35 34
f 27 28 37
f 27 37 36
f 29 38 30
f 30 38 39
f 30 39 31
f 31 39 40
f 31 40 32
f 32 40 35
f 34 35 41
f 35 40 42
f 35 42 41
f 36 37 44
f 36 44 43
f 38 45 39
f 39 46 40
f 39 45 47
f 39 47 46
f 40 46 42
f 41 42 48
f 42 46 49
f 42 49 48
f 43 44 51
f 43 51 50
f 45 52 47
f 46 47 57
f 46 57 53
f 46 53 49
f 47 52 54
f 47 54 55
f 47 55 56
f 47 56 57
f 50 51 59
f 50 59 58
f 54 60 55
f 55 60 61
f 55 61 56
f 58 59 63
f 58 63 62
f 60 62 63
f 60 63 64
f 60 64 61

