# https://github.com/mikedh/trimesh
v -0.06645014 0.01101524 -0.03837687
v -0.06686156 0.01101524 -0.03837687
v -0.06741612 0.01099822 -0.03200452
v -0.06645014 0.01099680 -0.03200452
v -0.05815675 0.01093794 -0.03837687
v -0.06741612 0.01099822 -0.03837687
v -0.06743614 0.01099609 -0.03200452
v -0.06548316 0.01085782 -0.03200452
v -0.05815675 0.01085852 -0.03782229
v -0.05815675 0.00993954 -0.03837687
v -0.06782853 0.01094149 -0.03837687
v -0.06838209 0.01086491 -0.03837687
v -0.06838209 0.01086491 -0.03200514
v -0.06838209 0.01084151 -0.03200452
v -0.06470137 0.01066211 -0.03200452
v -0.05815675 0.01066211 -0.03704002
v -0.05815675 0.00377252 -0.03305816
v -0.06838209 0.00987855 -0.03837687
v -0.06838209 0.00987855 -0.03200452
v -0.06285350 0.00973815 -0.03200452
v -0.05815675 0.00973815 -0.03519101
v -0.05815675 0.00377252 -0.03205817
v -0.05968530 0.00377252 -0.03306065
v -0.06006268 0.00377252 -0.03292466
v -0.06044707 0.00377252 -0.03278555
v -0.06072235 0.00377252 -0.03202448
v -0.06072235 0.00377252 -0.03200452
v -0.06237001 0.00936871 -0.03200452
v -0.05815675 0.00833911 -0.03368136
v -0.05815675 0.00865678 -0.03396208
v -0.05815675 0.00888582 -0.03416482
v -0.05815675 0.00916662 -0.03448110
v -0.05815675 0.00936871 -0.03470879
v -0.05815675 0.00426038 -0.03205817
v -0.05883444 0.00377252 -0.03200452
v -0.06183647 0.00889575 -0.03200452
v -0.05815675 0.00785550 -0.03331392
v -0.05815675 0.00522688 -0.03219416
v -0.05976638 0.00615509 -0.03200452
v -0.05928689 0.00544812 -0.03200452
v -0.05914875 0.00522688 -0.03200452
v -0.05883444 0.00426038 -0.03200452
v -0.06182646 0.00888582 -0.03200452
v -0.05815675 0.00599980 -0.03238879
v -0.05815675 0.00567645 -0.03230520
v -0.06134297 0.00833911 -0.03200452
v -0.06096960 0.00785550 -0.03200452
v -0.06181645 0.00887518 -0.03200452
f 1 2 3
f 1 3 4
f 1 4 5
f 1 5 10
f 1 10 18
f 1 18 12
f 1 12 11
f 1 11 6
f 1 6 2
f 2 6 3
f 3 6 7
f 3 7 14
f 3 14 19
f 3 19 27
f 3 27 35
f 3 35 42
f 3 42 41
f 3 41 40
f 3 40 39
f 3 39 47
f 3 47 46
f 3 46 48
f 3 48 43
f 3 43 36
f 3 36 28
f 3 28 20
f 3 20 15
f 3 15 8
f 3 8 4
f 4 8 9
f 4 9 5
f 5 9 16
f 5 16 21
f 5 21 33
f 5 33 32
f 5 32 31
f 5 31 30
f 5 30 29
f 5 29 37
f 5 37 44
f 5 44 45
f 5 45 38
f 5 38 34
f 5 34 22
f 5 22 17
f 5 17 10
f 6 11 7
f 7 11 12
f 7 12 13
f 7 13 14
f 8 15 16
f 8 16 9
f 10 17 18
f 12 18 19
f 12 19 14
f 12 14 13
f 15 20 21
f 15 21 16
f 17 22 35
f 17 35 27
f 17 27 26
f 17 26 25
f 17 25 24
f 17 24 23
f 17 23 18
f 18 23 24
f 18 24 25
f 18 25 26
f 18 26 27
f 18 27 19
f 20 28 29
f 20 29 30
f 20 30 31
f 20 31 32
f 20 32 33
f 20 33 21
f 22 34 42
f 22 42 35
f 28 36 37
f 28 37 29
f 34 38 39
f 34 39 40
f 34 40 41
f 34 41 42
f 36 43 37
f 37 43 44
f 38 45 46
f 38 46 47
f 38 47 39
f 43 48 44
f 44 48 46
f 44 46 45

