# https://github.com/mikedh/trimesh
v -0.00006054 -0.01656917 0.16764584
v 0.00048695 -0.01656917 0.16764584
v -0.00006054 -0.01651894 0.16786649
v -0.00006054 -0.01512879 0.16764584
v 0.00160527 -0.01648653 0.16764584
v 0.00047867 -0.01651894 0.16786649
v -0.00006054 -0.01636340 0.16828372
v 0.00763290 -0.01293825 0.16764584
v -0.00006054 -0.00002022 0.17350430
v 0.00518088 -0.00002022 0.17264990
v 0.00634514 -0.00002022 0.17246225
v 0.00173480 -0.01647195 0.16764584
v 0.00083638 -0.01627590 0.16831053
v 0.00005996 -0.01632775 0.16837789
v -0.00006054 -0.01632775 0.16837789
v 0.00763290 -0.01467189 0.16764584
v 0.00693028 -0.00002022 0.17240726
v 0.00750940 -0.00002022 0.17235296
v 0.00763290 -0.00002022 0.17234471
v -0.00006054 -0.00002022 0.17466734
v 0.00285312 -0.01632613 0.16764584
v 0.00285312 -0.01614791 0.16804589
v 0.00168886 -0.01622082 0.16821086
v 0.00401662 -0.01545769 0.16861985
v 0.00285312 -0.01556463 0.16871745
v 0.00168886 -0.01369003 0.17044138
v 0.00052536 -0.01318290 0.17100021
v 0.00052536 -0.01191589 0.17207663
v -0.00006054 -0.01191589 0.17207663
v 0.00763290 -0.01465244 0.16772627
v 0.00736255 -0.01482743 0.16764584
v 0.00763290 -0.00002022 0.17354074
v -0.00005978 -0.00002022 0.17466734
v -0.00006054 -0.00059863 0.17466734
v 0.00393153 -0.01611064 0.16764584
v 0.00401436 -0.01604584 0.16773451
v 0.00498508 -0.01530863 0.16849200
v 0.00285312 -0.01429761 0.16979456
v 0.00371615 -0.01293177 0.17078575
v 0.00285312 -0.01302736 0.17086755
v 0.00168886 -0.01183974 0.17201202
v 0.00228906 -0.01049819 0.17302383
v 0.00052536 -0.01112846 0.17265884
v -0.00006054 -0.01112846 0.17265884
v 0.00742957 -0.01476586 0.16771183
v 0.00763290 -0.01456981 0.16790086
v 0.00634514 -0.01526165 0.16764584
v 0.00634514 -0.01502833 0.16812975
v 0.00358662 -0.00002022 0.17421023
v 0.00763290 -0.00059863 0.17354074
v 0.00052536 -0.00059863 0.17466665
v 0.00052536 -0.00002022 0.17466665
v -0.00006054 -0.00176357 0.17451131
v 0.00052536 -0.00176357 0.17451131
v 0.00529685 -0.01554032 0.16789880
v 0.00605294 -0.01537344 0.16764584
v 0.00576150 -0.01514985 0.16836415
v 0.00473882 -0.01404324 0.16957529
v 0.00346989 -0.01167123 0.17186836
v 0.00285312 -0.01232256 0.17144907
v 0.00285312 -0.01173928 0.17192679
v 0.00168886 -0.00991167 0.17314550
v 0.00052536 -0.00991167 0.17317299
v 0.00168886 -0.01051602 0.17303414
v 0.00392098 -0.01110416 0.17216393
v 0.00515452 -0.00982418 0.17267121
v 0.00474937 -0.00937862 0.17304377
v 0.00401662 -0.00874673 0.17321698
v 0.00285312 -0.00874673 0.17328984
v 0.00168886 -0.00874673 0.17334002
v 0.00052536 -0.01054518 0.17304858
v -0.00006054 -0.01083844 0.17285268
v 0.00763290 -0.01417124 0.16851262
v 0.00321836 -0.00002022 0.17427004
v 0.00358662 -0.00059863 0.17421023
v 0.00763290 -0.00176357 0.17350912
v 0.00168886 -0.00059863 0.17451131
v 0.00110447 -0.00002022 0.17458967
v 0.00165874 -0.00296092 0.17425492
v 0.00168886 -0.00176357 0.17441095
v 0.00288776 -0.00173279 0.17425492
v -0.00006054 -0.00234847 0.17441989
v 0.00052536 -0.00292689 0.17432915
v 0.00124982 -0.00357660 0.17419649
v 0.00750940 -0.01419878 0.16853461
v 0.00634514 -0.01312943 0.16977257
v 0.00518088 -0.01073475 0.17204845
v -0.00006054 -0.00991167 0.17317299
v -0.00006054 -0.01023086 0.17311044
v 0.00052536 -0.00758503 0.17356067
v -0.00006054 -0.00816993 0.17346375
v 0.00589555 -0.01057434 0.17192129
v 0.00552504 -0.00915503 0.17295922
v 0.00692425 -0.00816345 0.17302040
v 0.00515452 -0.00875807 0.17311044
v 0.00518088 -0.00758503 0.17328916
v 0.00401662 -0.00758503 0.17339158
v 0.00285312 -0.00758503 0.17347269
v 0.00168886 -0.00758503 0.17352905
v 0.00052536 -0.00366086 0.17421023
v -0.00006054 -0.01054518 0.17304858
v 0.00763290 -0.01240357 0.16980006
v 0.00692877 -0.01165827 0.17069433
v 0.00285312 -0.00002022 0.17432915
v 0.00285312 -0.00059863 0.17432915
v 0.00350302 -0.00132449 0.17419649
v 0.00750940 -0.00176357 0.17352905
v 0.00763290 -0.00292689 0.17345344
v 0.00168886 -0.00002022 0.17451131
v 0.00252252 -0.00259637 0.17421917
v 0.00750940 -0.00409183 0.17339158
v 0.00750940 -0.00525515 0.17328916
v -0.00006054 -0.00292689 0.17432915
v -0.00006054 -0.00329630 0.17426935
v -0.00006054 -0.00758503 0.17356067
v 0.00630824 -0.00991815 0.17217493
v 0.00755458 -0.00880830 0.17229384
v 0.00763290 -0.00877590 0.17227185
v 0.00762462 -0.00770007 0.17290767
v 0.00763290 -0.00768711 0.17290973
v 0.00763290 -0.00722858 0.17305408
v 0.00731284 -0.00738737 0.17307676
v 0.00645961 -0.00770007 0.17313862
v 0.00719611 -0.00953578 0.17199759
v 0.00518088 -0.00642009 0.17344519
v -0.00006054 -0.00366086 0.17421023
v 0.00763290 -0.01138769 0.17051080
v 0.00763290 -0.01128076 0.17058435
v 0.00667197 -0.01031187 0.17173364
v 0.00763290 -0.00409183 0.17337302
v 0.00750940 -0.00292689 0.17347269
v 0.00634514 -0.00642009 0.17331665
v 0.00634514 -0.00525515 0.17344519
v 0.00763290 -0.00513364 0.17328160
v 0.00763290 -0.00525353 0.17327060
v 0.00762462 -0.00653513 0.17313862
v 0.00763290 -0.00654323 0.17313656
v 0.00763290 -0.00888931 0.17219693
v 0.00763290 -0.01088867 0.17085037
v 0.00763290 -0.00769845 0.17290354
f 1 2 6
f 1 6 3
f 1 3 7
f 1 7 15
f 1 15 29
f 1 29 44
f 1 44 72
f 1 72 101
f 1 101 89
f 1 89 88
f 1 88 91
f 1 91 115
f 1 115 126
f 1 126 114
f 1 114 113
f 1 113 82
f 1 82 53
f 1 53 34
f 1 34 20
f 1 20 9
f 1 9 4
f 1 4 8
f 1 8 16
f 1 16 31
f 1 31 47
f 1 47 56
f 1 56 35
f 1 35 21
f 1 21 12
f 1 12 5
f 1 5 2
f 2 5 6
f 3 6 7
f 4 9 10
f 4 10 11
f 4 11 8
f 5 12 6
f 6 12 13
f 6 13 14
f 6 14 7
f 7 14 15
f 8 11 17
f 8 17 18
f 8 18 19
f 8 19 32
f 8 32 50
f 8 50 76
f 8 76 108
f 8 108 130
f 8 130 134
f 8 134 135
f 8 135 137
f 8 137 121
f 8 121 120
f 8 120 140
f 8 140 118
f 8 118 138
f 8 138 139
f 8 139 128
f 8 128 127
f 8 127 102
f 8 102 73
f 8 73 46
f 8 46 30
f 8 30 16
f 9 20 33
f 9 33 52
f 9 52 78
f 9 78 109
f 9 109 104
f 9 104 74
f 9 74 49
f 9 49 32
f 9 32 19
f 9 19 18
f 9 18 17
f 9 17 11
f 9 11 10
f 12 21 22
f 12 22 23
f 12 23 13
f 13 23 24
f 13 24 25
f 13 25 14
f 14 25 26
f 14 26 27
f 14 27 28
f 14 28 29
f 14 29 15
f 16 30 31
f 20 34 33
f 21 35 22
f 22 35 36
f 22 36 37
f 22 37 24
f 22 24 23
f 24 38 25
f 24 37 39
f 24 39 40
f 24 40 38
f 25 38 26
f 26 38 41
f 26 41 28
f 26 28 27
f 28 41 42
f 28 42 43
f 28 43 44
f 28 44 29
f 30 45 31
f 30 46 45
f 31 45 48
f 31 48 47
f 32 49 75
f 32 75 50
f 33 34 51
f 33 51 52
f 34 53 54
f 34 54 51
f 35 55 36
f 35 56 55
f 36 55 57
f 36 57 37
f 37 57 58
f 37 58 59
f 37 59 39
f 38 40 41
f 39 59 60
f 39 60 40
f 40 60 41
f 41 60 61
f 41 61 42
f 42 62 63
f 42 63 64
f 42 64 43
f 42 61 59
f 42 59 65
f 42 65 66
f 42 66 67
f 42 67 68
f 42 68 69
f 42 69 70
f 42 70 62
f 43 64 71
f 43 71 72
f 43 72 44
f 45 46 48
f 46 73 48
f 47 48 57
f 47 57 56
f 48 73 57
f 49 74 75
f 50 75 76
f 51 77 78
f 51 78 52
f 51 54 79
f 51 79 80
f 51 80 81
f 51 81 77
f 53 82 54
f 54 82 83
f 54 83 84
f 54 84 79
f 55 56 57
f 57 73 85
f 57 85 86
f 57 86 58
f 58 86 59
f 59 87 65
f 59 61 60
f 59 86 87
f 62 70 63
f 63 88 89
f 63 89 71
f 63 71 64
f 63 70 90
f 63 90 91
f 63 91 88
f 65 87 66
f 66 87 92
f 66 92 93
f 66 93 67
f 67 93 94
f 67 94 95
f 67 95 68
f 68 95 96
f 68 96 97
f 68 97 84
f 68 84 98
f 68 98 69
f 69 98 84
f 69 84 99
f 69 99 70
f 70 99 100
f 70 100 90
f 71 89 101
f 71 101 72
f 73 102 103
f 73 103 92
f 73 92 87
f 73 87 85
f 74 104 105
f 74 105 75
f 75 105 106
f 75 106 76
f 76 107 108
f 76 106 107
f 77 81 106
f 77 106 105
f 77 105 104
f 77 104 109
f 77 109 78
f 79 110 80
f 79 84 97
f 79 97 96
f 79 96 110
f 80 110 81
f 81 111 106
f 81 110 112
f 81 112 111
f 82 113 83
f 83 113 114
f 83 114 100
f 83 100 84
f 84 100 99
f 85 87 86
f 90 100 126
f 90 126 115
f 90 115 91
f 92 103 116
f 92 116 93
f 93 116 94
f 94 117 118
f 94 118 119
f 94 119 120
f 94 120 121
f 94 121 122
f 94 122 123
f 94 123 96
f 94 96 95
f 94 116 124
f 94 124 117
f 96 123 125
f 96 125 110
f 100 114 126
f 102 127 103
f 103 127 128
f 103 128 124
f 103 124 129
f 103 129 116
f 106 111 130
f 106 130 131
f 106 131 108
f 106 108 107
f 108 131 130
f 110 125 132
f 110 132 133
f 110 133 112
f 111 112 134
f 111 134 130
f 112 135 134
f 112 133 136
f 112 136 137
f 112 137 135
f 116 129 124
f 117 138 118
f 117 124 139
f 117 139 138
f 118 140 119
f 119 140 120
f 121 137 136
f 121 136 122
f 122 136 132
f 122 132 123
f 123 132 125
f 124 128 139
f 132 136 133

