# https://github.com/mikedh/trimesh
v -0.01898341 -0.00001094 0.13518379
v -0.01898341 -0.00001094 0.13634229
v -0.01898341 0.00056619 0.13518379
v -0.01883373 -0.00001094 0.13433693
v -0.01793913 -0.00001094 0.13634229
v -0.01898341 0.00056619 0.13634229
v -0.01883285 0.00172519 0.13634229
v -0.01883197 0.00173150 0.13518379
v -0.01870869 0.00249312 0.13455056
v -0.01875888 0.00173150 0.13445714
v -0.01883373 0.00056619 0.13433693
v -0.01469886 -0.00001094 0.12851991
v -0.01531522 -0.00001094 0.13332697
v -0.01792680 -0.00000779 0.13634229
v -0.01872102 0.00257827 0.13634229
v -0.01872014 0.00258143 0.13518379
v -0.01817775 0.00522426 0.13518379
v -0.01766001 0.00638799 0.13439206
v -0.01786517 0.00522426 0.13413555
v -0.01445232 0.00289522 0.12851991
v -0.01456150 0.00205318 0.12851991
v -0.01459144 0.00173150 0.12851991
v -0.01469886 0.00056619 0.12851991
v -0.01347055 -0.00001094 0.12851991
v -0.01490050 -0.00001094 0.13274427
v -0.00998815 0.01452463 0.13634229
v -0.01814869 0.00521795 0.13634229
v -0.01814693 0.00522426 0.13634229
v -0.01780001 0.00638799 0.13634229
v -0.01780001 0.00638799 0.13518379
v -0.01753322 0.00700139 0.13457506
v -0.01326011 0.00638799 0.12851991
v -0.01421106 0.00398484 0.12851991
v -0.01643610 0.00942189 0.13446097
v -0.01659019 0.00871545 0.13426648
v -0.01349785 -0.00001094 0.12877719
v -0.00998815 0.00898194 0.12851991
v -0.00998815 0.00911597 0.12936295
v -0.01386502 -0.00001094 0.13036525
v -0.00998815 0.01113121 0.13288210
v -0.00998815 0.01583974 0.13634229
v -0.01754114 0.00701243 0.13634229
v -0.01753938 0.00701558 0.13518379
v -0.01682441 0.00871545 0.13518379
v -0.01316062 0.00661979 0.12851991
v -0.01647573 0.00948338 0.13518379
v -0.01606189 0.01006525 0.13518379
v -0.01547987 0.01083634 0.13518379
v -0.01399270 0.01275696 0.13518379
v -0.01538390 0.01071176 0.13435683
v -0.01196929 0.00853411 0.12851991
v -0.01240074 0.00792701 0.12851991
v -0.01256715 0.00769206 0.12851991
v -0.01294577 0.00711020 0.12851991
v -0.01356125 -0.00001094 0.12936295
v -0.00998815 0.01082688 0.12851991
v -0.00998815 0.00967261 0.13058270
v -0.01371181 -0.00001094 0.12986142
v -0.00998815 0.01050992 0.13203753
v -0.00998815 0.01110440 0.13285071
v -0.00998815 0.01111229 0.13286066
v -0.00998815 0.01609677 0.13548700
v -0.00998903 0.01609519 0.13634229
v -0.01753850 0.00701874 0.13634229
v -0.01682705 0.00870914 0.13634229
v -0.01647749 0.00947865 0.13634229
v -0.01647309 0.00948654 0.13634229
v -0.01606189 0.01006525 0.13634229
v -0.01548252 0.01083318 0.13634229
v -0.01398741 0.01275696 0.13634229
v -0.01283131 0.01391281 0.13634229
v -0.01283131 0.01391754 0.13518379
v -0.01323194 0.01315749 0.13424198
v -0.01430351 0.01199218 0.13429405
v -0.01444352 0.01217037 0.13634229
v -0.01097608 0.00982083 0.12851991
v -0.01163734 0.00896617 0.12851991
v -0.00998815 0.00970572 0.13065468
v -0.00998815 0.01029705 0.13169144
v -0.01032010 0.01056038 0.12851991
v -0.01206614 0.01422818 0.13429405
v -0.01078589 0.01530991 0.13435683
v -0.00998815 0.01559690 0.13406434
v -0.00998815 0.01609677 0.13518379
v -0.01014047 0.01598797 0.13634229
v -0.01225193 0.01436379 0.13634229
v -0.01091444 0.01540453 0.13634229
v -0.01091092 0.01540610 0.13518379
v -0.01063532 0.01024501 0.12851991
v -0.01014047 0.01598797 0.13518379
f 1 2 6
f 1 6 3
f 1 3 11
f 1 11 4
f 1 4 12
f 1 12 24
f 1 24 36
f 1 36 55
f 1 55 58
f 1 58 39
f 1 39 25
f 1 25 13
f 1 13 5
f 1 5 2
f 2 5 14
f 2 14 26
f 2 26 41
f 2 41 63
f 2 63 85
f 2 85 87
f 2 87 86
f 2 86 71
f 2 71 70
f 2 70 75
f 2 75 69
f 2 69 68
f 2 68 67
f 2 67 66
f 2 66 65
f 2 65 64
f 2 64 42
f 2 42 29
f 2 29 28
f 2 28 27
f 2 27 15
f 2 15 7
f 2 7 6
f 3 6 7
f 3 7 8
f 3 8 9
f 3 9 10
f 3 10 11
f 4 11 23
f 4 23 12
f 5 13 14
f 7 15 8
f 8 15 16
f 8 16 9
f 9 16 17
f 9 17 18
f 9 18 19
f 9 19 20
f 9 20 10
f 10 20 11
f 11 20 21
f 11 21 22
f 11 22 23
f 12 23 22
f 12 22 21
f 12 21 20
f 12 20 33
f 12 33 32
f 12 32 45
f 12 45 54
f 12 54 53
f 12 53 52
f 12 52 51
f 12 51 77
f 12 77 76
f 12 76 89
f 12 89 80
f 12 80 56
f 12 56 37
f 12 37 24
f 13 25 26
f 13 26 14
f 15 27 17
f 15 17 16
f 17 27 28
f 17 28 29
f 17 29 30
f 17 30 31
f 17 31 18
f 18 32 33
f 18 33 19
f 18 31 34
f 18 34 35
f 18 35 32
f 19 33 20
f 24 37 38
f 24 38 36
f 25 39 40
f 25 40 26
f 26 40 61
f 26 61 60
f 26 60 59
f 26 59 79
f 26 79 78
f 26 78 57
f 26 57 38
f 26 38 37
f 26 37 56
f 26 56 83
f 26 83 84
f 26 84 62
f 26 62 41
f 29 42 30
f 30 42 43
f 30 43 31
f 31 43 44
f 31 44 34
f 32 35 34
f 32 34 45
f 34 44 46
f 34 46 47
f 34 47 48
f 34 48 49
f 34 49 50
f 34 50 51
f 34 51 52
f 34 52 53
f 34 53 54
f 34 54 45
f 36 38 55
f 38 57 55
f 39 58 59
f 39 59 60
f 39 60 61
f 39 61 40
f 41 62 63
f 42 64 43
f 43 64 44
f 44 65 46
f 44 64 65
f 46 65 66
f 46 66 67
f 46 67 68
f 46 68 47
f 47 68 69
f 47 69 48
f 48 69 49
f 49 70 71
f 49 71 72
f 49 72 73
f 49 73 74
f 49 74 50
f 49 69 75
f 49 75 70
f 50 74 76
f 50 76 77
f 50 77 51
f 55 57 78
f 55 78 79
f 55 79 59
f 55 59 58
f 56 80 81
f 56 81 82
f 56 82 83
f 62 84 90
f 62 90 85
f 62 85 63
f 71 86 72
f 72 86 87
f 72 87 88
f 72 88 82
f 72 82 81
f 72 81 73
f 73 81 80
f 73 80 89
f 73 89 74
f 74 89 76
f 82 88 90
f 82 90 84
f 82 84 83
f 85 90 87
f 87 90 88

