# https://github.com/mikedh/trimesh
v -0.02259733 -0.00001231 0.05759505
v -0.02259733 0.00056750 0.05759505
v -0.02250861 0.00289625 0.05747160
v -0.02204955 -0.00001231 0.05759505
v -0.02294084 -0.00001231 0.05834563
v -0.02294084 0.00056750 0.05834563
v -0.02246838 0.00405968 0.05746172
v -0.02189585 0.00289625 0.05747160
v -0.01240323 0.01830024 0.05758518
v -0.01240323 0.01779457 0.05827650
v -0.02178650 -0.00001231 0.05834563
v -0.02286347 -0.00001231 0.05893325
v -0.02278610 0.00056750 0.05951101
v -0.02275619 0.00289625 0.05834563
v -0.02239720 0.00522310 0.05750617
v -0.02010399 0.01104403 0.05753086
v -0.01578992 0.01571485 0.05751604
v -0.02184633 0.00405968 0.05746172
v -0.01240323 0.01912908 0.05755555
v -0.01831110 -0.00001231 0.07348068
v -0.01843902 -0.00001231 0.07288812
v -0.01857106 -0.00001231 0.07228074
v -0.01240323 0.01776605 0.05837032
v -0.01510804 -0.00001231 0.09202296
v -0.01585078 -0.00001231 0.08744541
v -0.01604678 -0.00001231 0.08628497
v -0.01745902 -0.00001231 0.07817180
v -0.02278610 -0.00001231 0.05951101
v -0.01564240 0.00056750 0.10790859
v -0.02263962 0.00405968 0.05834563
v -0.02229817 0.00613940 0.05760987
v -0.02120159 0.00871718 0.05756542
v -0.01994822 0.01176832 0.05764443
v -0.01888466 0.01304961 0.05758024
v -0.01779944 0.01433090 0.05756049
v -0.01669668 0.01569964 0.05757530
v -0.01577547 0.01662164 0.05757530
v -0.01440553 0.01772423 0.05756049
v -0.01312534 0.01881161 0.05758024
v -0.01240323 0.01940853 0.05834563
v -0.01240323 0.01742577 0.05951101
v -0.01240323 0.00879893 0.09073414
v -0.01240323 0.00874760 0.09092672
v -0.01506987 -0.00001231 0.09258096
v -0.01240323 0.01381763 0.07202890
v -0.01240323 0.01347164 0.07324365
v -0.01564240 -0.00001231 0.10790859
v -0.01555678 0.00123286 0.10790859
v -0.02249107 0.00522310 0.05834563
v -0.02105820 0.00940725 0.05796047
v -0.02105820 0.00940725 0.05769875
v -0.02229610 0.00613179 0.05834563
v -0.01992656 0.01173791 0.05834563
v -0.01948814 0.01231962 0.05834563
v -0.01643878 0.01636310 0.05806416
v -0.01643878 0.01636310 0.05766912
v -0.01315319 0.01883253 0.05834563
v -0.01240323 0.00940345 0.10790859
v -0.01240323 0.00850997 0.09210691
v -0.01502345 -0.00001231 0.09326734
v -0.01450972 -0.00001231 0.10790859
v -0.01549179 0.00173092 0.10790859
v -0.01533912 0.00289625 0.10790859
v -0.01528238 0.00327836 0.10790859
v -0.01522771 0.00360913 0.10790859
v -0.01422398 0.00636752 0.10790859
v -0.01409193 0.00663556 0.10790859
v -0.01364732 0.00750813 0.10790859
v -0.01336260 0.00804992 0.10790859
v -0.01312122 0.00847005 0.10790859
v -0.01890633 0.01307813 0.05834563
v -0.01240323 0.00715834 0.10790859
v -0.01480888 -0.00001231 0.09792390
v -0.01499663 -0.00001231 0.09384509
v -0.01240323 0.00836930 0.09328709
v -0.01460669 -0.00001231 0.10258046
v -0.01464899 -0.00001231 0.10142002
v -0.01467581 -0.00001231 0.10083240
v -0.01452932 -0.00001231 0.10607658
v -0.01453861 -0.00001231 0.10548895
v -0.01454789 -0.00001231 0.10491120
v -0.01240323 0.00827234 0.09443272
v -0.01456233 -0.00001231 0.10432358
v -0.01457678 -0.00001231 0.10374583
f 1 2 3
f 1 3 8
f 1 8 4
f 1 4 11
f 1 11 22
f 1 22 21
f 1 21 20
f 1 20 27
f 1 27 26
f 1 26 25
f 1 25 24
f 1 24 44
f 1 44 60
f 1 60 74
f 1 74 73
f 1 73 78
f 1 78 77
f 1 77 76
f 1 76 84
f 1 84 83
f 1 83 81
f 1 81 80
f 1 80 79
f 1 79 61
f 1 61 47
f 1 47 28
f 1 28 12
f 1 12 5
f 1 5 6
f 1 6 2
f 2 6 3
f 3 7 18
f 3 18 8
f 3 6 7
f 4 8 9
f 4 9 10
f 4 10 11
f 5 12 6
f 6 12 13
f 6 13 14
f 6 14 15
f 6 15 7
f 7 15 16
f 7 16 17
f 7 17 18
f 8 18 19
f 8 19 9
f 9 19 40
f 9 40 58
f 9 58 72
f 9 72 82
f 9 82 75
f 9 75 59
f 9 59 43
f 9 43 42
f 9 42 46
f 9 46 45
f 9 45 41
f 9 41 23
f 9 23 10
f 10 20 21
f 10 21 22
f 10 22 11
f 10 23 24
f 10 24 25
f 10 25 26
f 10 26 27
f 10 27 20
f 12 28 13
f 13 28 47
f 13 47 29
f 13 29 14
f 14 30 15
f 14 29 30
f 15 31 32
f 15 32 16
f 15 30 31
f 16 32 33
f 16 33 34
f 16 34 35
f 16 35 17
f 17 19 18
f 17 35 36
f 17 36 37
f 17 37 38
f 17 38 19
f 19 38 39
f 19 39 40
f 23 41 24
f 24 42 43
f 24 43 44
f 24 41 45
f 24 45 46
f 24 46 42
f 29 47 61
f 29 61 72
f 29 72 58
f 29 58 70
f 29 70 69
f 29 69 68
f 29 68 67
f 29 67 66
f 29 66 65
f 29 65 64
f 29 64 63
f 29 63 62
f 29 62 48
f 29 48 49
f 29 49 30
f 30 49 31
f 31 50 51
f 31 51 32
f 31 49 52
f 31 52 50
f 32 51 33
f 33 51 50
f 33 50 53
f 33 53 54
f 33 54 55
f 33 55 56
f 33 56 34
f 34 56 35
f 35 56 36
f 36 56 37
f 37 56 38
f 38 56 39
f 39 56 40
f 40 56 55
f 40 55 57
f 40 57 58
f 43 59 60
f 43 60 44
f 48 62 49
f 49 62 63
f 49 63 64
f 49 64 65
f 49 65 52
f 50 52 66
f 50 66 53
f 52 65 66
f 53 66 67
f 53 67 68
f 53 68 69
f 53 69 70
f 53 70 54
f 54 71 55
f 54 70 71
f 55 71 70
f 55 70 58
f 55 58 57
f 59 73 74
f 59 74 60
f 59 75 76
f 59 76 77
f 59 77 78
f 59 78 73
f 61 79 72
f 72 79 80
f 72 80 81
f 72 81 82
f 75 82 81
f 75 81 83
f 75 83 84
f 75 84 76

