# https://github.com/mikedh/trimesh
v -0.01240323 0.00715731 0.10790859
v -0.00003138 0.01460097 0.10086202
v -0.00003138 0.01457636 0.10142002
v -0.00003138 0.01455329 0.10202740
v -0.00003138 0.01453484 0.10258045
v -0.00003138 0.01451792 0.10319277
v -0.00003138 0.01448870 0.10435814
v -0.00003138 0.01447486 0.10491120
v -0.00003138 0.01445640 0.10607658
v -0.00003138 0.01443641 0.10784933
v -0.00003138 0.01443641 0.10790859
v -0.01240323 0.00940271 0.10790859
v -0.01240323 0.00827232 0.09443271
v -0.00003138 0.01503313 0.09202295
v -0.00003138 0.01495162 0.09326734
v -0.00003138 0.01492240 0.09387965
v -0.00003138 0.01486857 0.09504009
v -0.00003138 0.01556834 0.10790859
v -0.01208955 0.00981027 0.10790859
v -0.01240323 0.01940706 0.05834561
v -0.01240323 0.00836921 0.09328709
v -0.01240323 0.00851070 0.09210690
v -0.00003138 0.01577596 0.08744540
v -0.00064059 0.01556834 0.10790859
v -0.00003138 0.02271364 0.05951098
v -0.01189213 0.01005941 0.10790859
v -0.01239354 0.01941475 0.05834561
v -0.01184247 0.01987459 0.05764441
v -0.01240323 0.01913023 0.05755552
v -0.01162326 0.01039315 0.10790859
v -0.01046419 0.01155122 0.10790859
v -0.01013112 0.01182036 0.10790859
v -0.00003138 0.01597282 0.08628497
v -0.00003138 0.01586978 0.08689234
v -0.01240323 0.00874754 0.09092671
v -0.00003138 0.01823822 0.07348066
v -0.00003138 0.01738466 0.07817179
v -0.00064059 0.02271364 0.05951098
v -0.00296841 0.02268288 0.05834561
v -0.00413353 0.02256600 0.05834561
v -0.00529744 0.02241836 0.05834561
v -0.00130672 0.01548222 0.10790859
v -0.00003138 0.02286744 0.05834561
v -0.01181098 0.01985306 0.05834561
v -0.00988284 0.01201722 0.10790859
v -0.00854210 0.01304918 0.10790859
v -0.00878917 0.02112802 0.05756541
v -0.01111700 0.02002993 0.05753083
v -0.00948074 0.02098499 0.05796045
v -0.00948074 0.02098499 0.05769873
v -0.01225063 0.01919636 0.05755059
v -0.01240323 0.01829973 0.05758516
v -0.01240323 0.00879830 0.09073413
v -0.00003138 0.02171244 0.05834561
v -0.00003138 0.02085580 0.06205901
v -0.00003138 0.01849813 0.07228072
v -0.00064059 0.02286744 0.05834561
v -0.00529744 0.02232300 0.05750614
v -0.00621307 0.02222458 0.05760985
v -0.00620580 0.02222304 0.05834561
v -0.00368298 0.01515309 0.10790859
v -0.00335234 0.01520692 0.10790859
v -0.00296841 0.01526383 0.10790859
v -0.00247063 0.01532996 0.10790859
v -0.00180450 0.01541762 0.10790859
v -0.00003138 0.02252447 0.05759503
v -0.01111700 0.02017142 0.05834561
v -0.00812062 0.01329064 0.10790859
v -0.00757924 0.01357516 0.10790859
v -0.00670964 0.01401809 0.10790859
v -0.00643955 0.01415035 0.10790859
v -0.01119209 0.01919020 0.05754072
v -0.00413353 0.02239529 0.05746170
v -0.00413353 0.02177242 0.05746170
v -0.00296841 0.02182317 0.05747158
v -0.01228091 0.01833511 0.05758516
v -0.01240323 0.01779529 0.05827648
v -0.01240323 0.01347366 0.07324364
v -0.01240323 0.01381969 0.07202888
v -0.01240323 0.01742464 0.05951098
v -0.01240323 0.01776607 0.05837030
v -0.00003138 0.02197543 0.05759503
v -0.00064059 0.02252447 0.05759503
v -0.00296841 0.02243527 0.05747158
f 1 2 3
f 1 3 4
f 1 4 5
f 1 5 6
f 1 6 7
f 1 7 8
f 1 8 9
f 1 9 10
f 1 10 11
f 1 11 18
f 1 18 24
f 1 24 42
f 1 42 65
f 1 65 64
f 1 64 63
f 1 63 62
f 1 62 61
f 1 61 71
f 1 71 70
f 1 70 69
f 1 69 68
f 1 68 46
f 1 46 45
f 1 45 32
f 1 32 31
f 1 31 30
f 1 30 26
f 1 26 19
f 1 19 12
f 1 12 20
f 1 20 29
f 1 29 52
f 1 52 77
f 1 77 81
f 1 81 80
f 1 80 79
f 1 79 78
f 1 78 53
f 1 53 35
f 1 35 22
f 1 22 21
f 1 21 13
f 1 13 14
f 1 14 15
f 1 15 16
f 1 16 17
f 1 17 2
f 2 17 16
f 2 16 15
f 2 15 14
f 2 14 23
f 2 23 34
f 2 34 33
f 2 33 37
f 2 37 36
f 2 36 56
f 2 56 55
f 2 55 54
f 2 54 82
f 2 82 66
f 2 66 43
f 2 43 25
f 2 25 18
f 2 18 11
f 2 11 10
f 2 10 9
f 2 9 8
f 2 8 7
f 2 7 6
f 2 6 5
f 2 5 4
f 2 4 3
f 12 19 20
f 13 21 14
f 14 21 22
f 14 22 23
f 18 25 38
f 18 38 24
f 19 26 20
f 20 27 28
f 20 28 29
f 20 26 30
f 20 30 31
f 20 31 32
f 20 32 27
f 22 33 34
f 22 34 23
f 22 35 36
f 22 36 37
f 22 37 33
f 24 38 39
f 24 39 40
f 24 40 41
f 24 41 42
f 25 43 57
f 25 57 38
f 27 44 28
f 27 32 45
f 27 45 46
f 27 46 44
f 28 47 48
f 28 48 29
f 28 44 49
f 28 49 50
f 28 50 47
f 29 48 51
f 29 51 52
f 35 53 54
f 35 54 55
f 35 55 56
f 35 56 36
f 38 57 39
f 39 57 58
f 39 58 40
f 40 58 59
f 40 59 41
f 41 59 60
f 41 60 61
f 41 61 62
f 41 62 63
f 41 63 64
f 41 64 65
f 41 65 42
f 43 66 83
f 43 83 57
f 44 67 49
f 44 46 68
f 44 68 69
f 44 69 70
f 44 70 71
f 44 71 67
f 47 58 48
f 47 50 59
f 47 59 58
f 48 72 51
f 48 58 73
f 48 73 74
f 48 74 72
f 49 60 59
f 49 59 50
f 49 67 71
f 49 71 60
f 51 72 52
f 52 72 75
f 52 75 76
f 52 76 77
f 53 78 54
f 54 78 79
f 54 79 80
f 54 80 81
f 54 81 77
f 54 77 82
f 57 83 84
f 57 84 73
f 57 73 58
f 60 71 61
f 66 82 75
f 66 75 84
f 66 84 83
f 72 74 75
f 73 84 75
f 73 75 74
f 75 82 76
f 76 82 77

