# https://github.com/mikedh/trimesh
v 0.02653665 -0.03285914 -0.13815686
v 0.02653665 -0.03252808 -0.14030647
v 0.02758390 -0.03175345 -0.14023979
v 0.02777502 -0.03190773 -0.13815686
v 0.02653665 -0.03001133 -0.13815686
v 0.02653665 -0.03185630 -0.14196589
v 0.02731975 -0.03154773 -0.14147135
v 0.02863270 -0.03094667 -0.14023979
v 0.02882848 -0.03109774 -0.13815686
v 0.02653665 -0.02193715 -0.14700476
v 0.04050517 -0.00003210 -0.13815686
v 0.03453087 -0.00002246 -0.14700476
v 0.02679457 -0.03114595 -0.14286748
v 0.02653665 -0.03082453 -0.14376908
v 0.02820852 -0.03038097 -0.14230713
v 0.02954477 -0.02961597 -0.14174677
v 0.02718147 -0.02934598 -0.14547613
v 0.02982912 -0.02989883 -0.14023979
v 0.02997983 -0.03005311 -0.13815686
v 0.02653665 -0.02787386 -0.14700476
v 0.04053003 -0.00002246 -0.13815686
v 0.03844796 -0.00002246 -0.14700476
v 0.02653665 -0.03038097 -0.14453816
v 0.02770043 -0.02975097 -0.14407913
v 0.02909728 -0.02916920 -0.14314290
v 0.03030924 -0.02827885 -0.14230713
v 0.03147768 -0.02739172 -0.14147135
v 0.03087637 -0.02870313 -0.14023979
v 0.02653665 -0.03018811 -0.14486987
v 0.02653665 -0.02866456 -0.14642102
v 0.02658171 -0.02785136 -0.14700476
v 0.02720944 -0.02728244 -0.14700476
v 0.02787912 -0.02795100 -0.14603735
v 0.02927597 -0.02725029 -0.14547526
v 0.03102864 -0.02889920 -0.13815686
v 0.02653665 -0.02796707 -0.14694673
v 0.04240856 -0.00002246 -0.13815686
v 0.03879135 -0.00002246 -0.14669990
v 0.03844796 -0.00106387 -0.14700476
v 0.02967840 -0.02777100 -0.14407913
v 0.03338884 -0.02508390 -0.14110327
v 0.03107525 -0.02686780 -0.14286748
v 0.03388449 -0.02360534 -0.14233484
v 0.03584537 -0.02138109 -0.14183684
v 0.03168123 -0.02765529 -0.14023979
v 0.03361103 -0.02534425 -0.13970628
v 0.02777967 -0.02665245 -0.14700476
v 0.02839342 -0.02641781 -0.14669990
v 0.02981047 -0.02585531 -0.14596546
v 0.03174493 -0.02354749 -0.14584768
v 0.03367784 -0.02123966 -0.14570650
v 0.03314178 -0.02263786 -0.14491144
v 0.03368406 -0.02544068 -0.13815686
v 0.04240856 -0.00106709 -0.13815686
v 0.04211489 -0.00002246 -0.14040781
v 0.03987278 -0.00002246 -0.14565281
v 0.03879135 -0.00106387 -0.14669990
v 0.03757318 -0.00790378 -0.14700476
v 0.03536525 -0.02282750 -0.14023979
v 0.03499234 -0.02205287 -0.14245523
v 0.03610951 -0.02177966 -0.14023979
v 0.03399326 -0.02196930 -0.14429999
v 0.03545226 -0.02080574 -0.14323297
v 0.03620119 -0.02003111 -0.14245523
v 0.03784043 -0.01722186 -0.14165930
v 0.03749083 -0.01861684 -0.14087463
v 0.03715832 -0.01980611 -0.14020168
v 0.03549888 -0.02302357 -0.13815686
v 0.02863115 -0.02561746 -0.14700476
v 0.02914079 -0.02498104 -0.14700476
v 0.03099756 -0.02257357 -0.14700476
v 0.03287609 -0.02002789 -0.14700476
v 0.03405541 -0.01991861 -0.14607199
v 0.03543673 -0.01863291 -0.14527779
v 0.03512908 -0.02003111 -0.14451911
v 0.03128501 -0.02219429 -0.14700476
v 0.04213975 -0.00315956 -0.13815686
v 0.04189736 -0.00459311 -0.13942827
v 0.04199214 -0.00315956 -0.13984139
v 0.04211489 -0.00119244 -0.14040781
v 0.04191911 -0.00002246 -0.14144277
v 0.03987278 -0.00106387 -0.14565281
v 0.03824597 -0.00944661 -0.14615254
v 0.03735410 -0.00944661 -0.14700476
v 0.03623382 -0.02197573 -0.13815686
v 0.03772234 -0.01903148 -0.13947763
v 0.03728107 -0.02016289 -0.13815686
v 0.03580808 -0.01941076 -0.14388080
v 0.03802067 -0.01788078 -0.14020168
v 0.03778449 -0.01499118 -0.14363916
v 0.03802533 -0.01353191 -0.14437447
v 0.03981529 -0.01274442 -0.14141679
v 0.03294135 -0.01991861 -0.14700476
v 0.03352402 -0.01891577 -0.14700476
v 0.03575214 -0.01723793 -0.14571776
v 0.03772700 -0.01276050 -0.14557486
v 0.04192378 -0.00479561 -0.13815686
v 0.04178704 -0.00197672 -0.14121846
v 0.04072114 -0.01154230 -0.13815686
v 0.04091848 -0.00944661 -0.14023979
v 0.04191911 -0.00058173 -0.14144277
v 0.04046477 -0.00106387 -0.14442903
v 0.03978888 -0.00239457 -0.14553242
v 0.03941441 -0.00735093 -0.14484908
v 0.03936780 -0.00961697 -0.14432770
v 0.03797405 -0.01154230 -0.14585634
v 0.03726864 -0.00975197 -0.14700476
v 0.03775653 -0.01911505 -0.13815686
v 0.03997688 -0.01313335 -0.14023979
v 0.04010585 -0.01344513 -0.13815686
v 0.03878979 -0.01154230 -0.14442903
v 0.04003437 -0.01154230 -0.14189401
v 0.04051915 -0.01154230 -0.14023979
v 0.03389692 -0.01814435 -0.14700476
v 0.03494573 -0.01581081 -0.14700476
v 0.03605358 -0.01573045 -0.14602609
v 0.04023326 -0.00961697 -0.14253318
v 0.04014935 -0.00311777 -0.14456674
v 0.03994581 -0.00735093 -0.14380112
v 0.03983393 -0.00903197 -0.14356208
v 0.03972362 -0.01042696 -0.14336288
v 0.03660362 -0.01173837 -0.14700476
f 1 2 3
f 1 3 4
f 1 4 9
f 1 9 19
f 1 19 35
f 1 35 53
f 1 53 68
f 1 68 85
f 1 85 87
f 1 87 108
f 1 108 110
f 1 110 99
f 1 99 97
f 1 97 77
f 1 77 54
f 1 54 37
f 1 37 21
f 1 21 11
f 1 11 5
f 1 5 10
f 1 10 20
f 1 20 36
f 1 36 30
f 1 30 29
f 1 29 23
f 1 23 14
f 1 14 6
f 1 6 2
f 2 6 7
f 2 7 3
f 3 7 8
f 3 8 9
f 3 9 4
f 5 11 12
f 5 12 10
f 6 13 7
f 6 14 13
f 7 15 16
f 7 16 8
f 7 13 14
f 7 14 17
f 7 17 15
f 8 16 18
f 8 18 9
f 9 18 19
f 10 12 22
f 10 22 39
f 10 39 58
f 10 58 84
f 10 84 107
f 10 107 122
f 10 122 115
f 10 115 114
f 10 114 94
f 10 94 93
f 10 93 72
f 10 72 76
f 10 76 71
f 10 71 70
f 10 70 69
f 10 69 47
f 10 47 32
f 10 32 31
f 10 31 20
f 11 21 12
f 12 21 37
f 12 37 55
f 12 55 81
f 12 81 56
f 12 56 38
f 12 38 22
f 14 23 17
f 15 24 25
f 15 25 16
f 15 17 24
f 16 25 26
f 16 26 27
f 16 27 28
f 16 28 18
f 17 25 24
f 17 23 29
f 17 29 30
f 17 30 31
f 17 31 32
f 17 32 33
f 17 33 34
f 17 34 25
f 18 28 35
f 18 35 19
f 20 31 36
f 22 38 57
f 22 57 39
f 25 34 40
f 25 40 26
f 26 40 34
f 26 34 27
f 27 41 28
f 27 34 42
f 27 42 43
f 27 43 44
f 27 44 41
f 28 41 45
f 28 45 46
f 28 46 35
f 30 36 31
f 32 47 34
f 32 34 33
f 34 47 48
f 34 48 49
f 34 49 50
f 34 50 51
f 34 51 52
f 34 52 42
f 35 46 53
f 37 54 80
f 37 80 55
f 38 56 82
f 38 82 57
f 39 57 58
f 41 46 45
f 41 44 59
f 41 59 46
f 42 52 43
f 43 52 60
f 43 60 44
f 44 61 59
f 44 60 62
f 44 62 63
f 44 63 64
f 44 64 65
f 44 65 66
f 44 66 67
f 44 67 61
f 46 59 68
f 46 68 53
f 47 69 48
f 48 69 70
f 48 70 49
f 49 70 50
f 50 71 51
f 50 70 71
f 51 72 73
f 51 73 74
f 51 74 75
f 51 75 63
f 51 63 62
f 51 62 52
f 51 71 76
f 51 76 72
f 52 62 60
f 54 77 78
f 54 78 79
f 54 79 80
f 55 80 101
f 55 101 81
f 56 81 101
f 56 101 82
f 57 82 58
f 58 83 84
f 58 82 83
f 59 61 68
f 61 85 68
f 61 67 86
f 61 86 87
f 61 87 85
f 63 75 74
f 63 74 88
f 63 88 64
f 64 88 65
f 65 89 66
f 65 88 74
f 65 74 90
f 65 90 91
f 65 91 92
f 65 92 89
f 66 89 86
f 66 86 67
f 72 93 73
f 73 93 94
f 73 94 95
f 73 95 74
f 74 95 96
f 74 96 91
f 74 91 90
f 77 97 78
f 78 98 79
f 78 97 99
f 78 99 100
f 78 100 98
f 79 98 80
f 80 98 101
f 82 101 102
f 82 102 103
f 82 103 83
f 83 104 105
f 83 105 106
f 83 106 84
f 83 103 104
f 84 106 107
f 86 108 87
f 86 89 109
f 86 109 110
f 86 110 108
f 89 92 109
f 91 96 111
f 91 111 92
f 92 111 112
f 92 112 113
f 92 113 109
f 94 114 95
f 95 114 115
f 95 115 116
f 95 116 106
f 95 106 96
f 96 106 111
f 98 100 117
f 98 117 101
f 99 110 113
f 99 113 100
f 100 113 117
f 101 118 103
f 101 103 102
f 101 117 118
f 103 118 119
f 103 119 120
f 103 120 105
f 103 105 104
f 105 120 121
f 105 121 106
f 106 121 111
f 106 116 115
f 106 115 122
f 106 122 107
f 109 113 110
f 111 121 112
f 112 121 117
f 112 117 113
f 117 121 120
f 117 120 119
f 117 119 118

