# https://github.com/mikedh/trimesh
v -0.00006421 -0.03879863 0.00147255
v -0.02753655 -0.02746378 0.00147255
v -0.00006421 -0.04097406 0.00147255
v -0.00006421 -0.04062931 -0.11243638
v -0.02948813 -0.02746378 -0.11243638
v -0.03052302 -0.02746378 0.00147255
v -0.00110548 -0.04097406 0.00147255
v -0.00006421 -0.04198274 -0.00460422
v -0.00006421 -0.04255784 -0.11243638
v -0.03234045 -0.02746378 -0.11243638
v -0.02998322 -0.02816233 0.00147255
v -0.03075938 -0.02746378 0.00011225
v -0.02929010 -0.02924930 0.00069205
v -0.00187206 -0.04093492 0.00147255
v -0.00055610 -0.04198274 -0.00460422
v -0.00006421 -0.04263763 -0.01033535
v -0.00110548 -0.04255784 -0.11243638
v -0.00006421 -0.04255935 -0.11195693
v -0.03199230 -0.02791694 -0.11243638
v -0.03234684 -0.02746378 -0.11089767
v -0.02919108 -0.02915144 0.00147255
v -0.02942425 -0.02938329 -0.00070171
v -0.03150360 -0.02746378 -0.00443698
v -0.02589479 -0.03197875 0.00013455
v -0.02639626 -0.03134494 0.00147255
v -0.02820091 -0.02994483 0.00147255
v -0.00396738 -0.04073319 0.00147255
v -0.00529612 -0.04075727 0.00013455
v -0.00739144 -0.04049080 0.00013455
v -0.00262906 -0.04198274 -0.00670043
v -0.00119492 -0.04208662 -0.00606488
v -0.00110548 -0.04263763 -0.01033535
v -0.00006421 -0.04280776 -0.01243156
v -0.00320080 -0.04228836 -0.11243638
v -0.00110548 -0.04260000 -0.09833156
v -0.00006421 -0.04261204 -0.09413914
v -0.03117461 -0.02896325 -0.11243638
v -0.03201146 -0.02793952 -0.10252398
v -0.03255446 -0.02746378 -0.05343030
v -0.03203382 -0.02796963 -0.08994672
v -0.03164414 -0.02746378 -0.00530668
v -0.03090631 -0.02859742 -0.00615408
v -0.03107240 -0.02881270 -0.00823914
v -0.03121933 -0.02902799 -0.01033535
v -0.03002474 -0.02998548 -0.00823914
v -0.02906651 -0.03118084 -0.01033535
v -0.02885251 -0.03103180 -0.00823914
v -0.02863531 -0.03086620 -0.00615408
v -0.02780485 -0.03183724 -0.00823914
v -0.02369725 -0.03399611 -0.00196167
v -0.02348006 -0.03383051 0.00013455
v -0.02332674 -0.03371157 0.00147255
v -0.00529612 -0.04056608 0.00147255
v -0.00606270 -0.04046822 0.00147255
v -0.00938455 -0.04003163 0.00147255
v -0.00948676 -0.04021530 0.00013455
v -0.00327746 -0.04208361 -0.00817224
v -0.00320080 -0.04236664 -0.01033535
v -0.00676221 -0.04197522 -0.01094860
v -0.00110548 -0.04280776 -0.01243156
v -0.00006421 -0.04284087 -0.01452777
v -0.00641725 -0.04193005 -0.08994672
v -0.00512045 -0.04203544 -0.11243638
v -0.00320080 -0.04255333 -0.02081640
v -0.00006421 -0.04261505 -0.09310219
v -0.00110548 -0.04272646 -0.05434461
v -0.03040803 -0.02978525 -0.11243638
v -0.03125766 -0.02909122 -0.05851473
v -0.03216797 -0.02814728 -0.01452777
v -0.03215839 -0.02813222 -0.02081640
v -0.03211687 -0.02807803 -0.04386356
v -0.03269499 -0.02746378 -0.01452777
v -0.03187731 -0.02776488 -0.00823914
v -0.03243947 -0.02746378 -0.01033535
v -0.03204021 -0.02798017 -0.01033535
v -0.03214881 -0.02811867 -0.01243156
v -0.03130237 -0.02916649 -0.01243156
v -0.03017167 -0.03013302 -0.01033535
v -0.02920705 -0.03126364 -0.01243156
v -0.02815939 -0.03210822 -0.01243156
v -0.02801885 -0.03200284 -0.01033535
v -0.02323730 -0.03573646 -0.01074790
v -0.02233018 -0.03504393 -0.00196167
v -0.02111963 -0.03571087 -0.00036721
v -0.02191495 -0.03499877 0.00025719
v -0.02087688 -0.03553924 0.00147255
v -0.02096312 -0.03558441 0.00102655
v -0.01056637 -0.03986904 0.00147255
v -0.00948676 -0.04048026 -0.00196167
v -0.01064622 -0.03986452 0.00141680
v -0.01158208 -0.04090933 -0.01033535
v -0.00711356 -0.04202189 -0.01243156
v -0.00320080 -0.04253676 -0.01243156
v -0.00948676 -0.04074071 -0.00405787
v -0.01158208 -0.04072415 -0.00823914
v -0.00320080 -0.04257139 -0.01452777
v -0.00110548 -0.04284087 -0.01452777
v -0.00006421 -0.04283787 -0.01558702
v -0.00653223 -0.04194511 -0.07947683
v -0.01158208 -0.04084459 -0.11243638
v -0.00636934 -0.04192403 -0.09413914
v -0.00635337 -0.04192102 -0.09558865
v -0.00110548 -0.04279872 -0.02920124
v -0.00724451 -0.04203845 -0.01452777
v -0.00687720 -0.04199027 -0.04805598
v -0.00006421 -0.04275355 -0.04492281
v -0.03012695 -0.03008635 -0.11243638
v -0.03130876 -0.02918004 -0.02081640
v -0.03126405 -0.02910025 -0.05434461
v -0.03131834 -0.02919359 -0.01452777
v -0.03265028 -0.02746378 -0.01243156
v -0.03025471 -0.03021582 -0.01243156
v -0.02923261 -0.03128021 -0.01452777
v -0.02818494 -0.03212930 -0.01452777
v -0.02682107 -0.03317713 -0.01452777
v -0.02440953 -0.03502888 -0.01452777
v -0.02438079 -0.03500780 -0.01243156
v -0.02333313 -0.03581023 -0.01243156
v -0.02205549 -0.03659610 -0.01243156
v -0.02062454 -0.03746928 -0.01243156
v -0.02225672 -0.03627994 -0.01016810
v -0.02193092 -0.03625887 -0.00823914
v -0.02171373 -0.03612186 -0.00615408
v -0.02149972 -0.03597282 -0.00405787
v -0.02128252 -0.03582528 -0.00196167
v -0.02040415 -0.03741358 -0.01033535
v -0.02014224 -0.03609778 0.00025719
v -0.01986116 -0.03603003 0.00147255
v -0.01062066 -0.03985849 0.00147255
v -0.01069413 -0.03983290 0.00147255
v -0.01529361 -0.03796459 0.00147255
v -0.01554914 -0.03806997 0.00013455
v -0.01276390 -0.03987957 -0.00469342
v -0.01088258 -0.03995033 0.00013455
v -0.01158208 -0.04049983 -0.00615408
v -0.01367741 -0.04044865 -0.01243156
v -0.01158208 -0.04103127 -0.01243156
v -0.01382433 -0.04020476 -0.01032420
v -0.00006421 -0.04282582 -0.01977945
v -0.01359116 -0.04022283 -0.11089767
v -0.01304498 -0.04038843 -0.11243638
v -0.01158208 -0.04105386 -0.01452777
v -0.01367741 -0.04048629 -0.01452777
v -0.02982351 -0.03036938 -0.11243638
v -0.02913040 -0.03121848 -0.05851473
v -0.02914637 -0.03122601 -0.05224840
v -0.02921983 -0.03126967 -0.02081640
v -0.03020680 -0.03016765 -0.06061094
v -0.02818175 -0.03212629 -0.01662398
v -0.02336187 -0.03583131 -0.01452777
v -0.02815301 -0.03210371 -0.02920124
v -0.02436482 -0.03499576 -0.03338251
v -0.02066926 -0.03747982 -0.01452777
v -0.01962160 -0.03802330 -0.01452777
v -0.01957688 -0.03800373 -0.01243156
v -0.01935649 -0.03791340 -0.01033535
v -0.01909458 -0.03780501 -0.00874089
v -0.01701203 -0.03780952 -0.00241881
v -0.01596118 -0.03816482 -0.00181671
v -0.01334522 -0.04012045 -0.00823914
v -0.01495504 -0.03992022 -0.01243156
v -0.01484644 -0.03987505 -0.01101550
v -0.01362311 -0.04023637 -0.10252398
v -0.01926067 -0.03787426 -0.11089767
v -0.01358478 -0.04021981 -0.11243638
v -0.01499337 -0.03993528 -0.01662398
v -0.01497740 -0.03992926 -0.02081640
v -0.01367102 -0.04025595 -0.08994672
v -0.02900263 -0.03113417 -0.11243638
v -0.02331716 -0.03579818 -0.03338251
v -0.02205549 -0.03635823 -0.11243638
v -0.02205549 -0.03636274 -0.11089767
v -0.02205549 -0.03638081 -0.10460904
v -0.02799011 -0.03197875 -0.09833156
v -0.02419234 -0.03486328 -0.10670525
v -0.02313509 -0.03565817 -0.11089767
v -0.02035624 -0.03740003 -0.09833156
v -0.01956730 -0.03800072 -0.02920124
v -0.02034027 -0.03739551 -0.10252398
v -0.02030833 -0.03738648 -0.11089767
v -0.02030194 -0.03738497 -0.11243638
v -0.01804692 -0.03815578 -0.00811649
v -0.01925428 -0.03787125 -0.11243638
v -0.01941079 -0.03793598 -0.07109199
v -0.01487519 -0.03988710 -0.04805598
v -0.02823925 -0.03173185 -0.11243638
v -0.02284124 -0.03584486 -0.11243638
v -0.02158596 -0.03663373 -0.11243638
v -0.02795497 -0.03195316 -0.11243638
v -0.02659109 -0.03300098 -0.11243638
v -0.02554344 -0.03380492 -0.11243638
v -0.02341298 -0.03543837 -0.11243638
v -0.02312871 -0.03565516 -0.11243638
f 1 2 6
f 1 6 11
f 1 11 21
f 1 21 26
f 1 26 25
f 1 25 52
f 1 52 86
f 1 86 128
f 1 128 131
f 1 131 130
f 1 130 129
f 1 129 88
f 1 88 55
f 1 55 54
f 1 54 53
f 1 53 27
f 1 27 14
f 1 14 7
f 1 7 3
f 1 3 8
f 1 8 16
f 1 16 33
f 1 33 61
f 1 61 98
f 1 98 139
f 1 139 106
f 1 106 65
f 1 65 36
f 1 36 18
f 1 18 9
f 1 9 4
f 1 4 5
f 1 5 2
f 2 5 10
f 2 10 20
f 2 20 39
f 2 39 72
f 2 72 111
f 2 111 74
f 2 74 41
f 2 41 23
f 2 23 12
f 2 12 6
f 3 7 15
f 3 15 8
f 4 9 17
f 4 17 34
f 4 34 63
f 4 63 100
f 4 100 141
f 4 141 165
f 4 165 183
f 4 183 181
f 4 181 188
f 4 188 171
f 4 171 187
f 4 187 193
f 4 193 192
f 4 192 191
f 4 191 190
f 4 190 189
f 4 189 186
f 4 186 169
f 4 169 144
f 4 144 107
f 4 107 67
f 4 67 37
f 4 37 19
f 4 19 10
f 4 10 5
f 6 12 13
f 6 13 11
f 7 14 15
f 8 15 32
f 8 32 16
f 9 18 17
f 10 19 20
f 11 13 21
f 12 22 13
f 12 23 22
f 13 22 24
f 13 24 25
f 13 25 26
f 13 26 21
f 14 27 15
f 15 27 28
f 15 28 29
f 15 29 30
f 15 30 31
f 15 31 32
f 16 32 60
f 16 60 33
f 17 18 35
f 17 35 34
f 18 36 35
f 19 37 38
f 19 38 20
f 20 38 40
f 20 40 39
f 22 23 41
f 22 41 42
f 22 42 43
f 22 43 44
f 22 44 45
f 22 45 46
f 22 46 47
f 22 47 48
f 22 48 24
f 24 48 47
f 24 47 49
f 24 49 50
f 24 50 51
f 24 51 52
f 24 52 25
f 27 53 28
f 28 53 29
f 29 53 54
f 29 54 55
f 29 55 56
f 29 56 30
f 30 56 57
f 30 57 58
f 30 58 32
f 30 32 31
f 32 58 59
f 32 59 60
f 33 60 97
f 33 97 61
f 34 62 63
f 34 35 64
f 34 64 62
f 35 36 65
f 35 65 66
f 35 66 64
f 37 40 38
f 37 67 68
f 37 68 69
f 37 69 70
f 37 70 71
f 37 71 40
f 39 40 72
f 40 71 72
f 41 73 43
f 41 43 42
f 41 74 73
f 43 73 74
f 43 74 75
f 43 75 44
f 44 75 76
f 44 76 77
f 44 77 78
f 44 78 45
f 45 78 46
f 46 78 79
f 46 79 80
f 46 80 81
f 46 81 47
f 47 81 49
f 49 81 82
f 49 82 50
f 50 83 51
f 50 82 83
f 51 83 84
f 51 84 85
f 51 85 52
f 52 85 87
f 52 87 86
f 55 88 56
f 56 89 57
f 56 88 90
f 56 90 89
f 57 89 59
f 57 59 58
f 59 91 92
f 59 92 93
f 59 93 60
f 59 89 94
f 59 94 95
f 59 95 91
f 60 93 96
f 60 96 97
f 61 97 98
f 62 99 100
f 62 100 101
f 62 101 63
f 62 64 99
f 63 101 102
f 63 102 100
f 64 66 103
f 64 103 97
f 64 97 96
f 64 96 104
f 64 104 105
f 64 105 99
f 65 106 66
f 66 106 139
f 66 139 103
f 67 107 68
f 68 107 108
f 68 108 109
f 68 109 69
f 69 110 77
f 69 77 76
f 69 76 72
f 69 72 70
f 69 109 110
f 70 72 71
f 72 76 111
f 74 111 76
f 74 76 75
f 77 110 112
f 77 112 78
f 78 112 79
f 79 112 113
f 79 113 114
f 79 114 80
f 80 114 115
f 80 115 116
f 80 116 117
f 80 117 82
f 80 82 81
f 82 117 118
f 82 118 119
f 82 119 120
f 82 120 121
f 82 121 122
f 82 122 123
f 82 123 124
f 82 124 125
f 82 125 84
f 82 84 83
f 84 125 126
f 84 126 127
f 84 127 87
f 84 87 85
f 86 87 128
f 87 127 128
f 88 129 90
f 89 90 94
f 90 129 130
f 90 130 131
f 90 131 132
f 90 132 133
f 90 133 134
f 90 134 135
f 90 135 94
f 91 136 137
f 91 137 92
f 91 95 136
f 92 137 104
f 92 104 96
f 92 96 93
f 94 135 95
f 95 135 138
f 95 138 136
f 97 103 139
f 97 139 98
f 99 105 100
f 100 140 141
f 100 102 101
f 100 105 104
f 100 104 142
f 100 142 143
f 100 143 140
f 104 137 142
f 107 144 145
f 107 145 146
f 107 146 147
f 107 147 113
f 107 113 148
f 107 148 110
f 107 110 108
f 108 110 109
f 110 113 112
f 110 148 113
f 113 147 146
f 113 146 145
f 113 145 149
f 113 149 114
f 114 149 115
f 115 149 116
f 116 150 118
f 116 118 117
f 116 149 151
f 116 151 152
f 116 152 170
f 116 170 150
f 118 150 119
f 119 150 153
f 119 153 120
f 120 153 154
f 120 154 155
f 120 155 126
f 120 126 121
f 121 126 122
f 122 126 123
f 123 126 124
f 124 126 125
f 126 155 156
f 126 156 127
f 127 132 128
f 127 156 157
f 127 157 158
f 127 158 132
f 128 132 131
f 132 158 159
f 132 159 133
f 133 160 135
f 133 135 134
f 133 159 160
f 135 160 138
f 136 161 143
f 136 143 137
f 136 138 162
f 136 162 161
f 137 143 142
f 138 160 162
f 140 163 164
f 140 164 183
f 140 183 165
f 140 165 141
f 140 143 163
f 143 161 154
f 143 154 166
f 143 166 167
f 143 167 168
f 143 168 163
f 144 169 145
f 145 169 149
f 149 169 151
f 150 170 171
f 150 171 172
f 150 172 173
f 150 173 153
f 151 169 174
f 151 174 175
f 151 175 152
f 152 175 176
f 152 176 170
f 153 173 172
f 153 172 171
f 153 171 177
f 153 177 154
f 154 178 167
f 154 167 166
f 154 161 155
f 154 177 179
f 154 179 180
f 154 180 181
f 154 181 178
f 155 161 162
f 155 162 156
f 156 162 182
f 156 182 159
f 156 159 157
f 157 159 158
f 159 182 160
f 160 182 162
f 163 168 164
f 164 181 183
f 164 168 184
f 164 184 181
f 167 178 184
f 167 184 185
f 167 185 168
f 168 185 184
f 169 186 174
f 170 176 171
f 171 176 187
f 171 188 177
f 174 186 189
f 174 189 190
f 174 190 175
f 175 190 191
f 175 191 176
f 176 191 192
f 176 192 193
f 176 193 187
f 177 188 179
f 178 181 184
f 179 188 180
f 180 188 181

