# https://github.com/mikedh/trimesh
v -0.04091987 -0.00110904 -0.14365742
v -0.04057991 -0.00106503 -0.14443024
v -0.04076389 -0.00237333 -0.14365742
v -0.04091987 -0.00000880 -0.14365742
v -0.03998797 -0.00106503 -0.14565351
v -0.03990398 -0.00239333 -0.14553352
v -0.04026394 -0.00312149 -0.14456816
v -0.04057991 -0.00000880 -0.14443024
v -0.04005996 -0.00735044 -0.14380250
v -0.04012395 -0.00735044 -0.14365742
v -0.03830815 -0.00000880 -0.14365742
v -0.03998797 -0.00000880 -0.14565351
v -0.03890408 -0.00106503 -0.14670126
v -0.03744424 -0.00735044 -0.14731110
v -0.03836014 -0.00944691 -0.14615410
v -0.03952802 -0.00735044 -0.14485024
v -0.03948002 -0.00961495 -0.14432905
v -0.03989198 -0.00910283 -0.14365742
v -0.03999197 -0.00837067 -0.14365742
v -0.00006821 -0.00000880 -0.15059405
v -0.00006821 -0.03826536 -0.14365742
v -0.03890408 -0.00000880 -0.14670126
v -0.03838414 -0.00000880 -0.14716334
v -0.03785619 -0.00106503 -0.14763170
v -0.03778420 -0.00220929 -0.14758155
v -0.03639635 -0.00735044 -0.14806065
v -0.03726026 -0.00944691 -0.14720185
v -0.03808817 -0.01154338 -0.14585679
v -0.03972799 -0.01017907 -0.14365742
v -0.00006821 -0.00000880 -0.15280417
v -0.00006821 -0.04087795 -0.14365742
v -0.03785619 -0.00000880 -0.14763170
v -0.03407660 -0.00316150 -0.14999943
v -0.03421258 -0.00106503 -0.15008181
v -0.03393661 -0.00525797 -0.14990898
v -0.03380063 -0.00735044 -0.14981585
v -0.03653634 -0.00525797 -0.14815378
v -0.03484851 -0.00735044 -0.14910750
v -0.03368064 -0.00871875 -0.14973525
v -0.03621237 -0.00944691 -0.14792721
v -0.03596040 -0.01117930 -0.14775170
v -0.03668432 -0.01174342 -0.14703439
v -0.03501650 -0.01573232 -0.14707469
v -0.03616838 -0.01573232 -0.14602784
v -0.03586441 -0.01724065 -0.14571889
v -0.03784020 -0.01275965 -0.14557560
v -0.03890408 -0.01154338 -0.14443024
v -0.03958001 -0.01073520 -0.14365742
v -0.00110810 -0.00000880 -0.15280507
v -0.00006821 -0.00106503 -0.15280417
v -0.00115209 -0.04088195 -0.14365742
v -0.00006821 -0.04053787 -0.14443024
v -0.03421258 -0.00000880 -0.15008181
v -0.03253276 -0.00735044 -0.15039703
v -0.03253276 -0.00106503 -0.15066658
v -0.03253276 -0.00316150 -0.15058240
v -0.03253276 -0.00525797 -0.15049106
v -0.03266475 -0.00943091 -0.15014092
v -0.03212480 -0.01154338 -0.15005227
v -0.03176484 -0.01327177 -0.14984540
v -0.03396861 -0.01573232 -0.14781796
v -0.03369264 -0.01705661 -0.14764513
v -0.03566843 -0.01257561 -0.14756632
v -0.03544845 -0.01363585 -0.14741230
v -0.03338867 -0.01845293 -0.14743827
v -0.03416859 -0.01992125 -0.14607351
v -0.03555244 -0.01863697 -0.14527919
v -0.03814016 -0.01353182 -0.14437562
v -0.03928404 -0.01154338 -0.14365742
v -0.03849613 -0.01352782 -0.14365742
v -0.00320388 -0.00000880 -0.15269850
v -0.00110810 -0.00106503 -0.15280507
v -0.00006821 -0.00210527 -0.15275223
v -0.00241596 -0.04072591 -0.14365742
v -0.00110810 -0.04053787 -0.14443024
v -0.00006821 -0.03994574 -0.14565262
v -0.03253276 -0.00000880 -0.15066658
v -0.03043698 -0.00944691 -0.15079553
v -0.03043698 -0.01154338 -0.15063524
v -0.03043698 -0.00106503 -0.15084568
v -0.03043698 -0.00525797 -0.15084031
v -0.03043698 -0.00735044 -0.15083763
v -0.03020901 -0.01573232 -0.15013823
v -0.03147687 -0.01466808 -0.14965466
v -0.03186883 -0.01992125 -0.14779558
v -0.03291672 -0.01992125 -0.14712036
v -0.02979305 -0.01740869 -0.14991704
v -0.03378863 -0.02124155 -0.14570725
v -0.03524447 -0.02003728 -0.14452069
v -0.03546045 -0.02055340 -0.14365742
v -0.03580041 -0.01990125 -0.14365742
v -0.03592040 -0.01941314 -0.14388219
v -0.03790419 -0.01496014 -0.14365742
v -0.00425576 -0.00000880 -0.15263671
v -0.00320388 -0.00106503 -0.15269850
v -0.00110810 -0.00316150 -0.15269850
v -0.00320388 -0.00525797 -0.15252746
v -0.00320388 -0.00316150 -0.15263044
v -0.00529565 -0.00316150 -0.15252746
v -0.00006821 -0.00316150 -0.15269850
v -0.00739143 -0.04008177 -0.14365742
v -0.00739143 -0.04001776 -0.14380160
v -0.00315988 -0.04022180 -0.14456816
v -0.00243196 -0.03986172 -0.14553352
v -0.00110810 -0.03994574 -0.14565262
v -0.00006821 -0.03940162 -0.14618007
v -0.03043698 -0.00000880 -0.15084568
v -0.02834121 -0.01363585 -0.15083046
v -0.02834121 -0.01573232 -0.15072300
v -0.01720639 -0.00525797 -0.15178597
v -0.01695841 -0.00663828 -0.15177074
v -0.01758635 -0.00106503 -0.15181016
v -0.01745036 -0.00316150 -0.15180209
v -0.02852119 -0.01799682 -0.15024659
v -0.02786126 -0.01992125 -0.14995913
v -0.02740531 -0.02111352 -0.14972719
v -0.03148887 -0.02097349 -0.14757618
v -0.03095293 -0.02236980 -0.14724573
v -0.03237278 -0.02180568 -0.14647649
v -0.03185683 -0.02354607 -0.14584963
v -0.02938909 -0.02725090 -0.14547710
v -0.03132089 -0.02494638 -0.14519501
v -0.03325269 -0.02263786 -0.14491292
v -0.03410459 -0.02196971 -0.14430040
v -0.03498850 -0.02126956 -0.14365742
v -0.03598439 -0.01951316 -0.14365742
v -0.00529565 -0.00000880 -0.15257491
v -0.00529565 -0.00106503 -0.15257491
v -0.00739143 -0.00316150 -0.15241104
v -0.00948721 -0.00316150 -0.15228746
v -0.00110810 -0.00525797 -0.15257491
v -0.00320388 -0.00944691 -0.15228746
v -0.00320388 -0.00735044 -0.15241014
v -0.00529565 -0.01154338 -0.15211732
v -0.00529565 -0.00944691 -0.15223462
v -0.00739143 -0.01154338 -0.15205374
v -0.00948721 -0.01363585 -0.15187194
v -0.00529565 -0.00735044 -0.15234567
v -0.00739143 -0.00944691 -0.15216299
v -0.00529565 -0.00525797 -0.15244685
v -0.00948721 -0.00735044 -0.15216299
v -0.00739143 -0.00525797 -0.15234567
v -0.01158299 -0.00735044 -0.15205374
v -0.00948721 -0.00525797 -0.15223462
v -0.00006821 -0.00525797 -0.15257491
v -0.00840732 -0.03994974 -0.14365742
v -0.00914324 -0.03984972 -0.14365742
v -0.00965519 -0.03944162 -0.14432816
v -0.00739143 -0.03948563 -0.14484934
v -0.00948721 -0.03831738 -0.14615410
v -0.00110810 -0.03886149 -0.14670036
v -0.00739143 -0.03740117 -0.14731110
v -0.00006821 -0.03886149 -0.14670036
v -0.01758635 -0.00000880 -0.15181016
v -0.01589453 -0.00734244 -0.15181553
v -0.01521860 -0.00944691 -0.15179045
v -0.01483464 -0.01063918 -0.15176806
v -0.02624543 -0.01782879 -0.15079106
v -0.02414965 -0.02201372 -0.15064599
v -0.02624543 -0.01992125 -0.15053584
v -0.01577454 -0.00316150 -0.15190597
v -0.01367876 -0.00316150 -0.15203403
v -0.01577454 -0.00525797 -0.15187194
v -0.01367876 -0.00525797 -0.15199553
v -0.01158299 -0.00106503 -0.15218716
v -0.01263887 -0.00000880 -0.15212089
v -0.00948721 -0.00106503 -0.15231791
v -0.02620143 -0.02189370 -0.15002003
v -0.02547351 -0.02341804 -0.14981585
v -0.03032900 -0.02180968 -0.14785826
v -0.02955708 -0.02328201 -0.14766393
v -0.02902113 -0.02467832 -0.14736304
v -0.02992104 -0.02585458 -0.14596605
v -0.02850519 -0.02641871 -0.14670126
v -0.02702534 -0.02698284 -0.14743558
v -0.02799324 -0.02795105 -0.14603858
v -0.02729332 -0.02934736 -0.14547710
v -0.02860118 -0.02855919 -0.14477860
v -0.02901713 -0.02897528 -0.14365742
v -0.02952908 -0.02840315 -0.14365742
v -0.02979305 -0.02777101 -0.14408010
v -0.03172485 -0.02547050 -0.14379802
v -0.03248877 -0.02405418 -0.14435592
v -0.03373663 -0.02294993 -0.14365742
v -0.03445655 -0.02199772 -0.14365742
v -0.00739143 -0.00000880 -0.15244775
v -0.00739143 -0.00106503 -0.15244775
v -0.01158299 -0.00525797 -0.15211732
v -0.00110810 -0.00735044 -0.15244775
v -0.00320388 -0.01363585 -0.15203403
v -0.00529565 -0.01716464 -0.15178597
v -0.00529565 -0.01573232 -0.15187194
v -0.00529565 -0.01363585 -0.15199553
v -0.00738343 -0.01585234 -0.15181553
v -0.00739143 -0.01363585 -0.15194090
v -0.00948721 -0.01517619 -0.15179045
v -0.01067908 -0.01479611 -0.15176806
v -0.01145900 -0.01359184 -0.15179851
v -0.01290285 -0.01286367 -0.15177613
v -0.01363077 -0.01141935 -0.15179851
v -0.01367876 -0.00944691 -0.15187194
v -0.01367876 -0.00735044 -0.15194090
v -0.00006821 -0.00735044 -0.15244775
v -0.01022313 -0.03968568 -0.14365742
v -0.01158299 -0.03804531 -0.14585679
v -0.00948721 -0.03722113 -0.14720095
v -0.00225198 -0.03774124 -0.14758155
v -0.00110810 -0.03781326 -0.14763170
v -0.00006821 -0.03833738 -0.14716872
v -0.00739143 -0.03635694 -0.14806065
v -0.02414965 -0.01992125 -0.15083225
v -0.02205387 -0.02201372 -0.15083942
v -0.02205387 -0.02411019 -0.15064599
v -0.02415365 -0.02411419 -0.15007734
v -0.01158299 -0.00000880 -0.15218716
v -0.00948721 -0.00000880 -0.15231791
v -0.00844732 -0.00000880 -0.15238239
v -0.02345772 -0.02543049 -0.14981585
v -0.02485358 -0.02481435 -0.14948093
v -0.02762528 -0.02558652 -0.14775170
v -0.02562949 -0.02758297 -0.14775170
v -0.02472159 -0.02897928 -0.14736304
v -0.02646141 -0.02846717 -0.14670036
v -0.02589747 -0.02988348 -0.14596605
v -0.02358971 -0.03181592 -0.14584963
v -0.02128196 -0.03374835 -0.14570725
v -0.02267781 -0.03321223 -0.14491292
v -0.02335374 -0.03342028 -0.14365742
v -0.02543351 -0.03182392 -0.14365742
v -0.02781326 -0.02975146 -0.14408010
v -0.02844519 -0.02948740 -0.14365742
v -0.02994104 -0.02789104 -0.14365742
v -0.03027700 -0.02745494 -0.14365742
v -0.03164085 -0.02568254 -0.14365742
v -0.03346066 -0.02331001 -0.14365742
v -0.00110810 -0.00944691 -0.15231791
v -0.00320388 -0.01573232 -0.15190597
v -0.00667951 -0.01691658 -0.15177074
v -0.00320388 -0.01740869 -0.15180209
v -0.00739143 -0.03039560 -0.15083763
v -0.00948721 -0.03039560 -0.15079553
v -0.01367876 -0.02829913 -0.15083046
v -0.01787032 -0.02620266 -0.15079106
v -0.01996609 -0.02411019 -0.15083225
v -0.00006821 -0.00944691 -0.15231791
v -0.01077507 -0.03953765 -0.14365742
v -0.01280286 -0.03780126 -0.14557560
v -0.01728238 -0.03582482 -0.14571889
v -0.01577454 -0.03612488 -0.14602694
v -0.01577454 -0.03497262 -0.14707469
v -0.01178296 -0.03664100 -0.14703439
v -0.01158299 -0.03886149 -0.14443024
v -0.01121902 -0.03591684 -0.14775170
v -0.00948721 -0.03617289 -0.14792721
v -0.00529565 -0.03389638 -0.14990898
v -0.00320388 -0.03403241 -0.14999943
v -0.00006821 -0.03781326 -0.14763170
v -0.00110810 -0.03416844 -0.15008181
v -0.00876328 -0.03364033 -0.14973525
v -0.00739143 -0.03375635 -0.14981585
v -0.01577454 -0.02829913 -0.15072300
v -0.01996609 -0.02620266 -0.15053495
v -0.02193389 -0.02615865 -0.15002003
v -0.01996609 -0.02782302 -0.14995823
v -0.02115397 -0.02736292 -0.14972719
v -0.02184990 -0.03028758 -0.14785826
v -0.02101398 -0.03144784 -0.14757618
v -0.02241384 -0.03091172 -0.14724573
v -0.02184590 -0.03233203 -0.14647649
v -0.01996609 -0.03412843 -0.14607262
v -0.01867823 -0.03550874 -0.14527919
v -0.02007808 -0.03520068 -0.14452069
v -0.02059403 -0.03542072 -0.14365742
v -0.02130995 -0.03494462 -0.14365742
v -0.02200988 -0.03406442 -0.14430040
v -0.01996609 -0.03287615 -0.14712036
v -0.02203788 -0.03441250 -0.14365742
v -0.02298977 -0.03369634 -0.14365742
v -0.02668138 -0.03086370 -0.14365742
v -0.02749729 -0.03023556 -0.14365742
v -0.02793325 -0.02989949 -0.14365742
v -0.00006821 -0.01258361 -0.15212179
v -0.00110810 -0.01363585 -0.15205552
v -0.00110810 -0.01754472 -0.15181016
v -0.00320388 -0.03039560 -0.15084300
v -0.00110810 -0.03249207 -0.15066658
v -0.00320388 -0.03249207 -0.15058240
v -0.00529565 -0.03249207 -0.15049106
v -0.00739143 -0.03249207 -0.15039703
v -0.01158299 -0.03039560 -0.15063524
v -0.01158299 -0.03924158 -0.14365742
v -0.01357077 -0.03809732 -0.14437562
v -0.01849425 -0.03334826 -0.14743827
v -0.01367876 -0.03540872 -0.14741230
v -0.01261888 -0.03562877 -0.14756543
v -0.01357077 -0.03845340 -0.14365742
v -0.01709840 -0.03365233 -0.14764513
v -0.01367876 -0.03436049 -0.14809110
v -0.01331080 -0.03172390 -0.14984540
v -0.01158299 -0.03208398 -0.15005227
v -0.00006821 -0.03416844 -0.15008181
v -0.00006821 -0.03332425 -0.15037644
v -0.00947121 -0.03262410 -0.15014092
v -0.01577454 -0.03016755 -0.15013823
v -0.01803830 -0.02847917 -0.15024659
v -0.01745036 -0.02975146 -0.14991704
v -0.01996609 -0.03182792 -0.14779558
v -0.01505062 -0.03784127 -0.14365742
v -0.01945415 -0.03588083 -0.14388219
v -0.01994210 -0.03575680 -0.14365742
v -0.00006821 -0.01663252 -0.15186747
v -0.00006821 -0.01754472 -0.15181016
v -0.00110810 -0.03039560 -0.15084568
v -0.00006821 -0.03249207 -0.15066658
v -0.01500262 -0.03786127 -0.14365742
v -0.01471065 -0.03143583 -0.14965466
v -0.01923017 -0.03608087 -0.14365742
v -0.01955414 -0.03594084 -0.14365742
v -0.00006821 -0.03039560 -0.15084568
f 1 2 3
f 1 3 10
f 1 10 19
f 1 19 18
f 1 18 29
f 1 29 48
f 1 48 69
f 1 69 70
f 1 70 93
f 1 93 126
f 1 126 91
f 1 91 90
f 1 90 125
f 1 125 185
f 1 185 184
f 1 184 235
f 1 235 234
f 1 234 233
f 1 233 232
f 1 232 180
f 1 180 179
f 1 179 231
f 1 231 281
f 1 281 280
f 1 280 279
f 1 279 229
f 1 229 228
f 1 228 278
f 1 278 277
f 1 277 274
f 1 274 273
f 1 273 310
f 1 310 318
f 1 318 317
f 1 317 308
f 1 308 315
f 1 315 296
f 1 296 291
f 1 291 246
f 1 246 204
f 1 204 147
f 1 147 146
f 1 146 101
f 1 101 74
f 1 74 51
f 1 51 31
f 1 31 21
f 1 21 11
f 1 11 4
f 1 4 8
f 1 8 2
f 2 5 6
f 2 6 7
f 2 7 3
f 2 8 12
f 2 12 5
f 3 7 9
f 3 9 10
f 4 11 20
f 4 20 30
f 4 30 49
f 4 49 71
f 4 71 94
f 4 94 127
f 4 127 186
f 4 186 217
f 4 217 216
f 4 216 215
f 4 215 166
f 4 166 154
f 4 154 107
f 4 107 77
f 4 77 53
f 4 53 32
f 4 32 23
f 4 23 22
f 4 22 12
f 4 12 8
f 5 12 22
f 5 22 13
f 5 13 14
f 5 14 15
f 5 15 6
f 6 15 16
f 6 16 17
f 6 17 18
f 6 18 19
f 6 19 7
f 7 19 9
f 9 19 10
f 11 21 20
f 13 22 23
f 13 23 24
f 13 24 25
f 13 25 14
f 14 26 27
f 14 27 15
f 14 25 26
f 15 27 28
f 15 28 17
f 15 17 16
f 17 28 29
f 17 29 18
f 20 21 31
f 20 31 52
f 20 52 76
f 20 76 106
f 20 106 153
f 20 153 209
f 20 209 257
f 20 257 301
f 20 301 302
f 20 302 314
f 20 314 319
f 20 319 312
f 20 312 311
f 20 311 282
f 20 282 245
f 20 245 203
f 20 203 145
f 20 145 100
f 20 100 73
f 20 73 50
f 20 50 30
f 23 32 24
f 24 33 25
f 24 32 53
f 24 53 34
f 24 34 33
f 25 33 35
f 25 35 36
f 25 36 37
f 25 37 26
f 26 37 38
f 26 38 39
f 26 39 40
f 26 40 27
f 27 40 41
f 27 41 42
f 27 42 28
f 28 42 43
f 28 43 44
f 28 44 45
f 28 45 46
f 28 46 47
f 28 47 48
f 28 48 29
f 30 50 72
f 30 72 49
f 31 51 52
f 33 34 54
f 33 54 35
f 34 53 77
f 34 77 55
f 34 55 56
f 34 56 57
f 34 57 54
f 35 54 36
f 36 38 37
f 36 54 58
f 36 58 39
f 36 39 38
f 39 58 59
f 39 59 41
f 39 41 40
f 41 59 60
f 41 60 61
f 41 61 62
f 41 62 63
f 41 63 42
f 42 63 64
f 42 64 43
f 43 45 44
f 43 64 65
f 43 65 45
f 45 65 66
f 45 66 67
f 45 67 46
f 46 68 47
f 46 67 68
f 47 69 48
f 47 68 70
f 47 70 69
f 49 72 95
f 49 95 71
f 50 73 72
f 51 74 75
f 51 75 52
f 52 75 105
f 52 105 76
f 54 78 79
f 54 79 58
f 54 57 78
f 55 80 81
f 55 81 82
f 55 82 78
f 55 78 56
f 55 77 107
f 55 107 80
f 56 78 57
f 58 79 59
f 59 79 83
f 59 83 60
f 60 83 84
f 60 84 62
f 60 62 61
f 62 64 63
f 62 84 83
f 62 83 65
f 62 65 64
f 65 85 86
f 65 86 66
f 65 83 87
f 65 87 85
f 66 86 88
f 66 88 67
f 67 88 89
f 67 89 90
f 67 90 91
f 67 91 92
f 67 92 93
f 67 93 68
f 68 93 70
f 71 95 94
f 72 73 96
f 72 96 97
f 72 97 98
f 72 98 99
f 72 99 95
f 73 100 96
f 74 101 102
f 74 102 103
f 74 103 75
f 75 103 104
f 75 104 105
f 76 105 106
f 78 108 109
f 78 109 79
f 78 82 110
f 78 110 111
f 78 111 108
f 79 109 83
f 80 112 81
f 80 107 154
f 80 154 112
f 81 112 82
f 82 112 113
f 82 113 110
f 83 109 114
f 83 114 87
f 85 115 116
f 85 116 117
f 85 117 86
f 85 87 115
f 86 117 118
f 86 118 119
f 86 119 88
f 87 114 115
f 88 119 120
f 88 120 121
f 88 121 122
f 88 122 123
f 88 123 124
f 88 124 125
f 88 125 90
f 88 90 89
f 91 126 92
f 92 126 93
f 94 95 128
f 94 128 127
f 95 99 129
f 95 129 130
f 95 130 128
f 96 100 145
f 96 145 131
f 96 131 132
f 96 132 133
f 96 133 97
f 97 133 134
f 97 134 135
f 97 135 136
f 97 136 137
f 97 137 138
f 97 138 98
f 98 138 139
f 98 139 140
f 98 140 141
f 98 141 142
f 98 142 99
f 99 142 201
f 99 201 143
f 99 143 144
f 99 144 129
f 101 146 102
f 102 146 104
f 102 104 103
f 104 146 147
f 104 147 148
f 104 148 149
f 104 149 150
f 104 150 105
f 105 151 106
f 105 150 152
f 105 152 151
f 106 151 153
f 108 111 155
f 108 155 156
f 108 156 157
f 108 157 158
f 108 158 109
f 109 158 159
f 109 159 160
f 109 160 114
f 110 113 161
f 110 161 162
f 110 162 130
f 110 130 163
f 110 163 111
f 111 163 164
f 111 164 155
f 112 165 113
f 112 154 166
f 112 166 165
f 113 165 167
f 113 167 161
f 114 160 168
f 114 168 115
f 115 168 169
f 115 169 116
f 116 170 117
f 116 169 170
f 117 170 171
f 117 171 172
f 117 172 118
f 118 172 120
f 118 120 119
f 120 172 173
f 120 173 121
f 121 174 175
f 121 175 176
f 121 176 177
f 121 177 178
f 121 178 179
f 121 179 180
f 121 180 181
f 121 181 182
f 121 182 122
f 121 173 174
f 122 182 183
f 122 183 123
f 123 184 185
f 123 185 124
f 123 183 184
f 124 185 125
f 127 128 187
f 127 187 186
f 128 130 162
f 128 162 187
f 129 144 188
f 129 188 164
f 129 164 163
f 129 163 130
f 131 145 203
f 131 203 189
f 131 189 190
f 131 190 132
f 132 190 191
f 132 191 192
f 132 192 193
f 132 193 133
f 133 193 134
f 134 193 194
f 134 194 195
f 134 195 135
f 135 195 196
f 135 196 136
f 136 196 137
f 137 196 197
f 137 197 139
f 137 139 138
f 139 197 198
f 139 198 199
f 139 199 140
f 140 199 141
f 141 199 200
f 141 200 201
f 141 201 142
f 143 201 156
f 143 156 144
f 144 156 202
f 144 202 188
f 147 204 148
f 148 204 205
f 148 205 150
f 148 150 149
f 150 205 206
f 150 206 152
f 151 152 207
f 151 207 208
f 151 208 209
f 151 209 153
f 152 206 210
f 152 210 207
f 155 164 188
f 155 188 202
f 155 202 156
f 156 201 157
f 157 201 200
f 157 200 199
f 157 199 211
f 157 211 158
f 158 211 159
f 159 168 160
f 159 211 212
f 159 212 213
f 159 213 214
f 159 214 168
f 161 167 187
f 161 187 162
f 165 166 215
f 165 215 216
f 165 216 167
f 167 216 217
f 167 217 187
f 168 214 169
f 169 214 218
f 169 218 219
f 169 219 175
f 169 175 220
f 169 220 170
f 170 220 171
f 171 220 172
f 172 220 175
f 172 175 174
f 172 174 173
f 175 221 222
f 175 222 223
f 175 223 177
f 175 177 176
f 175 219 218
f 175 218 221
f 177 224 225
f 177 225 226
f 177 226 227
f 177 227 228
f 177 228 229
f 177 229 230
f 177 230 231
f 177 231 179
f 177 179 178
f 177 223 224
f 180 232 181
f 181 232 233
f 181 233 182
f 182 233 234
f 182 234 235
f 182 235 184
f 182 184 183
f 186 187 217
f 189 203 245
f 189 245 236
f 189 236 237
f 189 237 190
f 190 237 191
f 191 238 192
f 191 237 239
f 191 239 240
f 191 240 241
f 191 241 238
f 192 238 193
f 193 238 194
f 194 238 242
f 194 242 196
f 194 196 195
f 196 242 197
f 197 199 198
f 197 242 243
f 197 243 244
f 197 244 199
f 199 244 212
f 199 212 211
f 204 246 205
f 205 247 248
f 205 248 249
f 205 249 250
f 205 250 251
f 205 251 206
f 205 246 252
f 205 252 247
f 206 251 253
f 206 253 254
f 206 254 210
f 207 210 255
f 207 255 256
f 207 256 208
f 208 257 209
f 208 256 258
f 208 258 301
f 208 301 257
f 210 254 259
f 210 259 260
f 210 260 255
f 212 244 213
f 213 244 243
f 213 243 261
f 213 261 262
f 213 262 263
f 213 263 214
f 214 263 218
f 218 263 264
f 218 264 265
f 218 265 266
f 218 266 221
f 221 266 267
f 221 267 222
f 222 267 268
f 222 268 225
f 222 225 224
f 222 224 223
f 225 269 226
f 225 268 269
f 226 270 271
f 226 271 272
f 226 272 273
f 226 273 274
f 226 274 275
f 226 275 227
f 226 269 276
f 226 276 270
f 227 275 277
f 227 277 278
f 227 278 228
f 229 279 230
f 230 279 280
f 230 280 281
f 230 281 231
f 236 245 282
f 236 282 283
f 236 283 239
f 236 239 237
f 238 241 242
f 239 283 284
f 239 284 240
f 240 285 286
f 240 286 241
f 240 284 285
f 241 286 287
f 241 287 288
f 241 288 289
f 241 289 290
f 241 290 261
f 241 261 242
f 242 261 243
f 246 291 252
f 247 252 292
f 247 292 271
f 247 271 248
f 248 250 249
f 248 271 270
f 248 270 293
f 248 293 250
f 250 294 251
f 250 293 294
f 251 294 295
f 251 295 253
f 252 291 296
f 252 296 292
f 253 295 297
f 253 297 298
f 253 298 299
f 253 299 300
f 253 300 259
f 253 259 254
f 255 260 289
f 255 289 256
f 256 289 258
f 258 289 288
f 258 288 287
f 258 287 286
f 258 286 302
f 258 302 301
f 259 300 303
f 259 303 260
f 260 303 289
f 261 290 304
f 261 304 305
f 261 305 262
f 262 305 263
f 263 305 264
f 264 305 306
f 264 306 307
f 264 307 265
f 265 307 267
f 265 267 266
f 267 307 276
f 267 276 268
f 268 276 269
f 270 276 293
f 271 292 308
f 271 308 309
f 271 309 310
f 271 310 273
f 271 273 272
f 274 277 275
f 276 307 293
f 282 311 284
f 282 284 283
f 284 311 312
f 284 312 319
f 284 319 313
f 284 313 285
f 285 313 286
f 286 314 302
f 286 313 319
f 286 319 314
f 289 303 290
f 290 303 300
f 290 300 304
f 292 296 315
f 292 315 308
f 293 297 294
f 293 307 306
f 293 306 304
f 293 304 297
f 294 297 295
f 297 304 316
f 297 316 299
f 297 299 298
f 299 316 304
f 299 304 300
f 304 306 305
f 308 317 309
f 309 317 318
f 309 318 310

