# https://github.com/mikedh/trimesh
v 0.03844902 -0.00002246 -0.14700477
v 0.03844525 -0.00106635 -0.14700477
v 0.03774028 -0.00106635 -0.14763158
v 0.03774028 -0.00002246 -0.14763158
v 0.03452834 -0.00002246 -0.14700477
v 0.03757064 -0.00790628 -0.14700477
v 0.03732936 -0.00735230 -0.14731136
v 0.03766865 -0.00221199 -0.14758161
v 0.03395908 -0.00316166 -0.14999916
v 0.03409480 -0.00106635 -0.15008206
v 0.03409480 -0.00002246 -0.15008263
v -0.00006044 -0.00002246 -0.15059475
v -0.00006421 -0.03460273 -0.14700477
v 0.03735198 -0.00944762 -0.14700477
v 0.03714841 -0.00944762 -0.14720122
v 0.03628133 -0.00735230 -0.14806081
v 0.03642082 -0.00525698 -0.14815393
v 0.03487139 -0.00525698 -0.14920145
v 0.03382336 -0.00525698 -0.14990888
v 0.03241720 -0.00735230 -0.15039660
v 0.03241720 -0.00525698 -0.15049085
v 0.03241720 -0.00316166 -0.15058225
v 0.03241720 -0.00106635 -0.15066628
v 0.03326165 -0.00002246 -0.15037275
v -0.00006421 -0.00002246 -0.15063619
v -0.00006421 -0.00002623 -0.15059475
v -0.00006421 -0.03852203 -0.14700477
v 0.03726905 -0.00975287 -0.14700477
v 0.03656785 -0.01174267 -0.14703372
v 0.03584403 -0.01117738 -0.14775138
v 0.03610038 -0.00944762 -0.14792738
v 0.03356324 -0.00872028 -0.14973572
v 0.03473191 -0.00735230 -0.14910833
v 0.03368388 -0.00735230 -0.14981634
v 0.03254914 -0.00942877 -0.15014110
v 0.03032113 -0.01154293 -0.15063506
v 0.03032113 -0.00944762 -0.15079573
v 0.03032113 -0.00735230 -0.15083775
v 0.03032113 -0.00525698 -0.15084059
v 0.03032113 -0.00106635 -0.15084570
v 0.03137670 -0.00002246 -0.15075543
v 0.03241720 -0.00002246 -0.15066628
v -0.00006421 -0.00002246 -0.15280449
v -0.00006421 -0.03833737 -0.14716885
v 0.00099136 -0.03781354 -0.14763158
v 0.00099136 -0.03851826 -0.14700477
v 0.03660178 -0.01173890 -0.14700477
v 0.03490155 -0.01573357 -0.14707460
v 0.03533509 -0.01363825 -0.14741242
v 0.03555375 -0.01257552 -0.14756572
v 0.03357832 -0.01705633 -0.14764464
v 0.03385352 -0.01573357 -0.14781724
v 0.03165191 -0.01326893 -0.14984587
v 0.03201005 -0.01154293 -0.15005197
v 0.03009494 -0.01573357 -0.15013883
v 0.02822507 -0.01573357 -0.15072306
v 0.02822507 -0.01363825 -0.15083037
v 0.01684376 -0.00663627 -0.15177059
v 0.01708881 -0.00525698 -0.15178649
v 0.01733385 -0.00316166 -0.15180181
v 0.01747334 -0.00106635 -0.15181089
v 0.03032113 -0.00002246 -0.15084570
v -0.00006421 -0.00106635 -0.15280449
v 0.00099136 -0.00002246 -0.15280449
v -0.00006421 -0.03781354 -0.14763158
v 0.00099136 -0.03416935 -0.15008206
v 0.00308742 -0.03403368 -0.14999916
v 0.00213741 -0.03774194 -0.14758161
v 0.00782995 -0.03764396 -0.14700477
v 0.00727954 -0.03740277 -0.14731136
v 0.03497695 -0.01573357 -0.14700477
v 0.03389499 -0.01814544 -0.14700477
v 0.03327296 -0.01845070 -0.14743797
v 0.03136162 -0.01466707 -0.14965509
v 0.02967648 -0.01741058 -0.14991683
v 0.02840603 -0.01799470 -0.15024728
v 0.02613278 -0.01992043 -0.15053570
v 0.02403672 -0.02201575 -0.15064641
v 0.02613278 -0.01782889 -0.15079119
v 0.01472131 -0.01063848 -0.15176832
v 0.01510584 -0.00944762 -0.15179102
v 0.01577688 -0.00734099 -0.15181601
v 0.01356396 -0.00525698 -0.15199599
v 0.01566002 -0.00525698 -0.15187221
v 0.00937183 -0.00316166 -0.15228782
v 0.01356396 -0.00316166 -0.15203403
v 0.01566002 -0.00316166 -0.15190628
v 0.00937183 -0.00106635 -0.15231791
v 0.01566002 -0.00106635 -0.15192445
v 0.01252347 -0.00002246 -0.15212090
v 0.01747334 -0.00002246 -0.15181089
v -0.00006421 -0.00210647 -0.15275225
v 0.00099136 -0.00106635 -0.15280449
v 0.00308742 -0.00002246 -0.15269889
v -0.00006421 -0.03416935 -0.15008206
v 0.00099136 -0.03249234 -0.15066628
v 0.00308742 -0.03249234 -0.15058225
v 0.00518348 -0.03249234 -0.15049085
v 0.00727954 -0.03249234 -0.15039660
v -0.00006421 -0.03332519 -0.15037616
v 0.00518348 -0.03389424 -0.14990888
v 0.00727954 -0.03375858 -0.14981634
v 0.00518348 -0.03649455 -0.14815393
v 0.00727954 -0.03635511 -0.14806081
v 0.00937183 -0.03722188 -0.14720122
v 0.00937183 -0.03742538 -0.14700477
v 0.03352177 -0.01891800 -0.14700477
v 0.03294121 -0.01992043 -0.14700477
v 0.03280172 -0.01992043 -0.14712002
v 0.03175369 -0.01992043 -0.14779510
v 0.02774629 -0.01992043 -0.14995885
v 0.02608754 -0.02189139 -0.15002074
v 0.02194066 -0.02411107 -0.15064641
v 0.02194066 -0.02201575 -0.15083945
v 0.02403672 -0.01992043 -0.15083264
v 0.02404049 -0.02411484 -0.15007751
v 0.01278736 -0.01286193 -0.15177626
v 0.01351872 -0.01141857 -0.15179841
v 0.01146789 -0.00944762 -0.15197726
v 0.00937183 -0.00735230 -0.15216291
v 0.01356396 -0.00944762 -0.15187165
v 0.01146789 -0.00735230 -0.15205447
v 0.00937183 -0.00525698 -0.15223445
v 0.01356396 -0.00735230 -0.15194091
v 0.01146789 -0.00525698 -0.15211693
v 0.00727954 -0.00316166 -0.15241046
v 0.00308742 -0.00106635 -0.15269889
v 0.00518348 -0.00106635 -0.15257511
v 0.00727954 -0.00106635 -0.15244793
v 0.00833134 -0.00002246 -0.15238264
v 0.00937183 -0.00002246 -0.15231791
v 0.01042740 -0.00002246 -0.15225206
v -0.00006421 -0.00316166 -0.15269889
v 0.00099136 -0.00316166 -0.15269889
v 0.00518348 -0.00316166 -0.15252742
v 0.00308742 -0.00316166 -0.15263075
v 0.00308742 -0.00525698 -0.15252742
v 0.00518348 -0.00002246 -0.15257511
v 0.00099136 -0.03039702 -0.15084570
v 0.00518348 -0.03039702 -0.15084059
v 0.00727954 -0.03039702 -0.15083775
v 0.00937183 -0.03039702 -0.15079573
v -0.00006421 -0.03249234 -0.15066628
v 0.01146789 -0.03039702 -0.15063562
v 0.00935675 -0.03262424 -0.15014167
v 0.00864801 -0.03363798 -0.14973572
v 0.00727954 -0.03480623 -0.14910833
v 0.00937183 -0.03617422 -0.14792738
v 0.01110598 -0.03591796 -0.14775138
v 0.01167147 -0.03664152 -0.14703372
v 0.00967720 -0.03734247 -0.14700477
v 0.03287335 -0.02002595 -0.14700477
v 0.03128246 -0.02219287 -0.14700477
v 0.03083761 -0.02237000 -0.14724550
v 0.03137670 -0.02097563 -0.14757594
v 0.02729014 -0.02111130 -0.14972833
v 0.02535618 -0.02341766 -0.14981634
v 0.02182002 -0.02616116 -0.15002074
v 0.01984460 -0.02620639 -0.15053570
v 0.01566002 -0.02830170 -0.15072306
v 0.01775231 -0.02620639 -0.15079119
v 0.01984460 -0.02411107 -0.15083264
v 0.02334306 -0.02543006 -0.14981634
v 0.01056312 -0.01479520 -0.15176832
v 0.01134349 -0.01358926 -0.15179841
v 0.00937183 -0.01154293 -0.15197726
v 0.00727954 -0.00944762 -0.15216291
v 0.00518348 -0.00525698 -0.15244737
v 0.00727954 -0.00525698 -0.15234573
v 0.00727954 -0.00002246 -0.15244793
v -0.00006421 -0.00420178 -0.15263757
v 0.00099136 -0.00525698 -0.15257511
v 0.00308742 -0.00735230 -0.15241046
v 0.00308742 -0.00944762 -0.15228782
v 0.00518348 -0.00735230 -0.15234573
v 0.00727954 -0.01154293 -0.15205447
v 0.00518348 -0.00944762 -0.15223445
v -0.00006421 -0.03039702 -0.15084570
v 0.00099136 -0.01754624 -0.15181089
v 0.00308742 -0.01740681 -0.15180181
v 0.00518348 -0.01716185 -0.15178649
v 0.00656326 -0.01691690 -0.15177059
v 0.01356396 -0.02830170 -0.15083037
v 0.01146789 -0.03208157 -0.15005197
v 0.01566002 -0.03016714 -0.15013883
v 0.01319828 -0.03172355 -0.14984587
v 0.01566002 -0.03392816 -0.14781724
v 0.01698325 -0.03365306 -0.14764464
v 0.01250085 -0.03562778 -0.14756572
v 0.01356396 -0.03540920 -0.14741242
v 0.01566002 -0.03497582 -0.14707460
v 0.01566002 -0.03505119 -0.14700477
v 0.01166393 -0.03667544 -0.14700477
v 0.03099594 -0.02257350 -0.14700477
v 0.02890742 -0.02467635 -0.14736303
v 0.02944275 -0.02328199 -0.14766394
v 0.02474169 -0.02481202 -0.14948193
v 0.02750879 -0.02558458 -0.14775195
v 0.02690938 -0.02698271 -0.14743513
v 0.01984460 -0.02782310 -0.14995885
v 0.01792195 -0.02847883 -0.15024671
v 0.02395755 -0.02829040 -0.14801482
v 0.02173708 -0.03028773 -0.14785812
v 0.02103965 -0.02736333 -0.14972833
v 0.02551075 -0.02758191 -0.14775195
v 0.00937183 -0.01517959 -0.15179102
v 0.00937183 -0.01363825 -0.15187165
v -0.00006421 -0.00525698 -0.15257511
v 0.00099136 -0.00735230 -0.15244793
v -0.00006421 -0.00629710 -0.15251209
v 0.00308742 -0.01363825 -0.15203403
v 0.00518348 -0.01154293 -0.15211693
v 0.00518348 -0.01363825 -0.15199599
v 0.00518348 -0.01573357 -0.15187221
v 0.00727954 -0.01363825 -0.15194091
v -0.00006421 -0.01754624 -0.15181089
v 0.00099136 -0.01573357 -0.15192445
v -0.00006421 -0.01048774 -0.15225319
v 0.00099136 -0.00944762 -0.15231791
v 0.00308742 -0.01573357 -0.15190628
v 0.00726823 -0.01585039 -0.15181601
v 0.01459314 -0.03143715 -0.14965509
v 0.01733762 -0.02974883 -0.14991683
v 0.01837811 -0.03334780 -0.14743854
v 0.01807275 -0.03396962 -0.14700477
v 0.01595784 -0.03491929 -0.14700477
v 0.02957469 -0.02441255 -0.14700477
v 0.02913739 -0.02497784 -0.14700477
v 0.02862845 -0.02561849 -0.14700477
v 0.02777646 -0.02665108 -0.14700477
v 0.02720720 -0.02728043 -0.14700477
v 0.02657763 -0.02784948 -0.14700477
v 0.02554468 -0.02870117 -0.14700477
v 0.02460597 -0.02898004 -0.14736303
v 0.01984460 -0.03182907 -0.14779510
v 0.02090017 -0.03144845 -0.14757594
v 0.02320734 -0.02951518 -0.14766394
v -0.00006421 -0.00735230 -0.15244793
v -0.00006421 -0.00944762 -0.15231791
v 0.01984460 -0.03287673 -0.14712059
v 0.01884558 -0.03359276 -0.14700477
v 0.02490757 -0.02920993 -0.14700477
v 0.02433831 -0.02965085 -0.14700477
v 0.02229880 -0.03091331 -0.14724550
v 0.01995392 -0.03294834 -0.14700477
v 0.01984460 -0.03301240 -0.14700477
v 0.02295476 -0.03071735 -0.14700477
v 0.02212161 -0.03135800 -0.14700477
f 1 2 3
f 1 3 4
f 1 4 11
f 1 11 24
f 1 24 42
f 1 42 41
f 1 41 62
f 1 62 91
f 1 91 90
f 1 90 132
f 1 132 131
f 1 131 130
f 1 130 170
f 1 170 138
f 1 138 94
f 1 94 64
f 1 64 43
f 1 43 25
f 1 25 12
f 1 12 5
f 1 5 13
f 1 13 27
f 1 27 46
f 1 46 69
f 1 69 106
f 1 106 151
f 1 151 193
f 1 193 192
f 1 192 226
f 1 226 225
f 1 225 241
f 1 241 246
f 1 246 245
f 1 245 248
f 1 248 247
f 1 247 243
f 1 243 242
f 1 242 233
f 1 233 232
f 1 232 231
f 1 231 230
f 1 230 229
f 1 229 228
f 1 228 227
f 1 227 194
f 1 194 153
f 1 153 152
f 1 152 108
f 1 108 107
f 1 107 72
f 1 72 71
f 1 71 47
f 1 47 28
f 1 28 14
f 1 14 6
f 1 6 2
f 2 6 7
f 2 7 8
f 2 8 3
f 3 8 9
f 3 9 10
f 3 10 11
f 3 11 4
f 5 12 26
f 5 26 13
f 6 14 15
f 6 15 7
f 7 15 16
f 7 16 8
f 8 16 17
f 8 17 18
f 8 18 19
f 8 19 9
f 9 19 20
f 9 20 10
f 10 20 21
f 10 21 22
f 10 22 23
f 10 23 11
f 11 23 24
f 12 25 26
f 13 26 25
f 13 25 43
f 13 43 63
f 13 63 92
f 13 92 133
f 13 133 171
f 13 171 208
f 13 208 210
f 13 210 238
f 13 238 239
f 13 239 218
f 13 218 216
f 13 216 178
f 13 178 143
f 13 143 100
f 13 100 95
f 13 95 65
f 13 65 44
f 13 44 27
f 14 28 15
f 15 28 29
f 15 29 30
f 15 30 31
f 15 31 16
f 16 31 32
f 16 32 33
f 16 33 18
f 16 18 17
f 18 33 34
f 18 34 19
f 19 34 20
f 20 34 35
f 20 35 36
f 20 36 37
f 20 37 21
f 21 37 22
f 22 37 23
f 23 37 38
f 23 38 39
f 23 39 40
f 23 40 41
f 23 41 42
f 23 42 24
f 27 44 45
f 27 45 46
f 28 47 29
f 29 47 48
f 29 48 49
f 29 49 50
f 29 50 30
f 30 32 31
f 30 50 51
f 30 51 52
f 30 52 53
f 30 53 54
f 30 54 32
f 32 35 34
f 32 34 33
f 32 54 35
f 35 54 36
f 36 54 55
f 36 55 56
f 36 56 37
f 37 56 57
f 37 57 58
f 37 58 59
f 37 59 38
f 38 59 60
f 38 60 61
f 38 61 39
f 39 61 40
f 40 62 41
f 40 61 91
f 40 91 62
f 43 64 93
f 43 93 63
f 44 65 45
f 45 66 67
f 45 67 68
f 45 68 46
f 45 65 95
f 45 95 66
f 46 68 70
f 46 70 69
f 47 71 48
f 48 71 72
f 48 72 73
f 48 73 49
f 49 73 51
f 49 51 50
f 51 73 55
f 51 55 74
f 51 74 53
f 51 53 52
f 53 74 55
f 53 55 54
f 55 75 76
f 55 76 56
f 55 73 75
f 56 76 77
f 56 77 78
f 56 78 79
f 56 79 57
f 57 79 80
f 57 80 81
f 57 81 82
f 57 82 58
f 58 82 83
f 58 83 84
f 58 84 59
f 59 84 85
f 59 85 86
f 59 86 87
f 59 87 60
f 60 87 88
f 60 88 89
f 60 89 61
f 61 89 90
f 61 90 91
f 63 93 92
f 64 94 127
f 64 127 93
f 66 96 97
f 66 97 98
f 66 98 99
f 66 99 67
f 66 95 100
f 66 100 96
f 67 101 102
f 67 102 68
f 67 99 101
f 68 102 103
f 68 103 104
f 68 104 70
f 69 70 105
f 69 105 106
f 70 104 105
f 72 107 73
f 73 107 108
f 73 108 109
f 73 109 110
f 73 110 75
f 75 110 111
f 75 111 76
f 76 111 112
f 76 112 77
f 77 112 78
f 78 113 114
f 78 114 115
f 78 115 79
f 78 112 116
f 78 116 113
f 79 115 80
f 80 117 118
f 80 118 119
f 80 119 120
f 80 120 121
f 80 121 81
f 80 115 117
f 81 121 122
f 81 122 123
f 81 123 124
f 81 124 82
f 82 124 125
f 82 125 83
f 83 125 126
f 83 126 85
f 83 85 84
f 85 126 127
f 85 127 128
f 85 128 86
f 86 128 129
f 86 129 87
f 87 129 88
f 88 129 130
f 88 130 131
f 88 131 132
f 88 132 90
f 88 90 89
f 92 93 134
f 92 134 133
f 93 127 135
f 93 135 136
f 93 136 137
f 93 137 134
f 94 138 128
f 94 128 127
f 96 139 140
f 96 140 141
f 96 141 142
f 96 142 97
f 96 100 143
f 96 143 178
f 96 178 139
f 97 142 98
f 98 142 99
f 99 142 144
f 99 144 145
f 99 145 102
f 99 102 101
f 102 145 146
f 102 146 147
f 102 147 103
f 103 147 104
f 104 147 146
f 104 146 148
f 104 148 105
f 105 148 149
f 105 149 150
f 105 150 151
f 105 151 106
f 108 152 109
f 109 152 153
f 109 153 154
f 109 154 155
f 109 155 110
f 110 155 156
f 110 156 111
f 111 156 157
f 111 157 112
f 112 157 116
f 113 116 158
f 113 158 159
f 113 159 160
f 113 160 161
f 113 161 162
f 113 162 114
f 114 162 117
f 114 117 115
f 116 157 163
f 116 163 158
f 117 164 165
f 117 165 166
f 117 166 167
f 117 167 168
f 117 168 120
f 117 120 119
f 117 119 118
f 117 162 164
f 120 169 121
f 120 168 136
f 120 136 169
f 121 169 122
f 122 169 135
f 122 135 123
f 123 126 124
f 123 135 126
f 124 126 125
f 126 135 127
f 128 138 170
f 128 170 129
f 129 170 130
f 133 134 171
f 134 172 171
f 134 137 173
f 134 173 174
f 134 174 172
f 135 169 136
f 136 168 167
f 136 167 175
f 136 175 137
f 137 175 176
f 137 176 177
f 137 177 173
f 139 178 216
f 139 216 179
f 139 179 140
f 140 179 141
f 141 179 180
f 141 180 181
f 141 181 142
f 142 181 182
f 142 182 183
f 142 183 160
f 142 160 144
f 144 184 145
f 144 160 185
f 144 185 184
f 145 184 146
f 146 184 149
f 146 149 148
f 149 184 186
f 149 186 187
f 149 187 188
f 149 188 189
f 149 189 150
f 150 189 190
f 150 190 191
f 150 191 192
f 150 192 193
f 150 193 151
f 153 194 154
f 154 194 195
f 154 195 155
f 155 195 196
f 155 196 157
f 155 157 156
f 157 197 163
f 157 196 198
f 157 198 199
f 157 199 197
f 158 163 200
f 158 200 201
f 158 201 159
f 159 201 160
f 160 183 161
f 160 201 185
f 161 183 164
f 161 164 162
f 163 202 203
f 163 203 204
f 163 204 200
f 163 197 199
f 163 199 205
f 163 205 202
f 164 206 207
f 164 207 167
f 164 167 166
f 164 166 165
f 164 183 206
f 167 207 176
f 167 176 175
f 171 172 208
f 172 209 210
f 172 210 208
f 172 174 211
f 172 211 209
f 173 177 215
f 173 215 212
f 173 212 213
f 173 213 174
f 174 213 214
f 174 214 181
f 174 181 211
f 176 207 206
f 176 206 215
f 176 215 177
f 179 217 180
f 179 216 218
f 179 218 217
f 180 217 219
f 180 219 220
f 180 220 181
f 181 220 211
f 181 214 182
f 182 221 183
f 182 214 213
f 182 213 221
f 183 221 206
f 184 185 186
f 185 222 186
f 185 201 223
f 185 223 224
f 185 224 188
f 185 188 222
f 186 222 188
f 186 188 187
f 188 224 190
f 188 190 189
f 190 224 191
f 191 224 225
f 191 225 226
f 191 226 192
f 194 227 195
f 195 228 229
f 195 229 199
f 195 199 198
f 195 198 196
f 195 227 228
f 199 229 230
f 199 230 231
f 199 231 232
f 199 232 233
f 199 233 234
f 199 234 205
f 200 235 223
f 200 223 201
f 200 204 235
f 202 205 203
f 203 236 204
f 203 205 237
f 203 237 236
f 204 236 235
f 205 234 237
f 206 221 215
f 209 219 239
f 209 239 238
f 209 238 210
f 209 211 220
f 209 220 219
f 212 215 221
f 212 221 213
f 217 218 219
f 218 239 219
f 223 235 224
f 224 235 240
f 224 240 241
f 224 241 225
f 233 242 234
f 234 242 243
f 234 243 244
f 234 244 236
f 234 236 237
f 235 236 240
f 236 244 240
f 240 245 246
f 240 246 241
f 240 244 245
f 243 247 244
f 244 247 248
f 244 248 245

