# https://github.com/mikedh/trimesh
v -0.00006421 0.04085382 -0.14364872
v -0.00006421 0.03823791 -0.14364872
v -0.00006421 0.04050583 -0.14443027
v -0.00110819 0.04050583 -0.14443027
v -0.00115219 0.04084982 -0.14364872
v -0.00006421 -0.00000480 -0.15059395
v -0.03831141 -0.00000480 -0.14364872
v -0.00006421 0.03991385 -0.14565279
v -0.00110819 0.03991385 -0.14565279
v -0.00243616 0.03982985 -0.14553359
v -0.00316014 0.04018985 -0.14456829
v -0.00766805 0.04002185 -0.14364872
v -0.00006821 -0.00000480 -0.15280417
v -0.00006421 0.00103517 -0.15280417
v -0.04092335 -0.00000480 -0.14364872
v -0.00006421 0.03882989 -0.14670053
v -0.00110819 0.03882989 -0.14670053
v -0.00739206 0.03736994 -0.14731180
v -0.00948801 0.03828591 -0.14615380
v -0.00739206 0.03945387 -0.14484973
v -0.00965601 0.03940987 -0.14432899
v -0.00914002 0.03982186 -0.14364872
v -0.00846803 0.03991385 -0.14364872
v -0.00110819 -0.00000480 -0.15280507
v -0.00006421 0.00208713 -0.15275129
v -0.00110819 0.00103517 -0.15280507
v -0.04092736 0.00107917 -0.14364872
v -0.04057936 -0.00000480 -0.14443027
v -0.00006421 0.03830991 -0.14716301
v -0.00110819 0.03778193 -0.14763176
v -0.00225216 0.03770993 -0.14758157
v -0.00739206 0.03632198 -0.14806108
v -0.00948801 0.03718994 -0.14720155
v -0.01158397 0.03801392 -0.14585714
v -0.01022800 0.03965786 -0.14364872
v -0.00320414 -0.00000480 -0.15269841
v -0.00006421 0.00312710 -0.15269841
v -0.00110819 0.00312710 -0.15269841
v -0.00320414 0.00103517 -0.15269841
v -0.00529610 0.00312710 -0.15252722
v -0.00320414 0.00312710 -0.15263029
v -0.00320414 0.00522303 -0.15252722
v -0.04057936 0.00103517 -0.14443027
v -0.04009537 0.00759495 -0.14364872
v -0.04026337 0.00308710 -0.14456829
v -0.03998737 -0.00000480 -0.14565368
v -0.00006421 0.03778193 -0.14763176
v -0.00110819 0.03413805 -0.15008218
v -0.00320414 0.03400205 -0.14999883
v -0.00529610 0.03386206 -0.14990920
v -0.00739206 0.03372606 -0.14981599
v -0.00529610 0.03646197 -0.14815429
v -0.00739206 0.03477402 -0.14910793
v -0.00876003 0.03360607 -0.14973532
v -0.00948801 0.03614198 -0.14792754
v -0.01121998 0.03588599 -0.14775187
v -0.01178396 0.03660996 -0.14703484
v -0.01158397 0.03882989 -0.14443027
v -0.01577188 0.03494202 -0.14707517
v -0.01577188 0.03609398 -0.14602743
v -0.01728385 0.03579399 -0.14571911
v -0.01280394 0.03776992 -0.14557571
v -0.01158397 0.03921388 -0.14364872
v -0.00425612 -0.00000480 -0.15263657
v -0.00006421 0.00418306 -0.15263657
v -0.00320414 0.00731896 -0.15241070
v -0.00110819 0.00522303 -0.15257473
v -0.00529610 0.00103517 -0.15257473
v -0.00948801 0.00312710 -0.15228702
v -0.00739206 0.00312710 -0.15241070
v -0.01367992 0.00731896 -0.15194105
v -0.01158397 0.00731896 -0.15205399
v -0.00739206 0.00522303 -0.15234617
v -0.00529610 0.00522303 -0.15244745
v -0.00529610 0.00731896 -0.15234617
v -0.00739206 0.01151081 -0.15205399
v -0.00739206 0.01360674 -0.15194105
v -0.03990337 0.00236312 -0.14553359
v -0.03998737 0.00103517 -0.14565368
v -0.04005937 0.00731896 -0.14380288
v -0.03998737 0.00839492 -0.14364872
v -0.03945138 -0.00000480 -0.14617352
v -0.00006421 0.03413805 -0.15008218
v -0.00110819 0.03245811 -0.15066655
v -0.00320414 0.03245811 -0.15058230
v -0.00529610 0.03245811 -0.15049089
v -0.00739206 0.03245811 -0.15039677
v -0.00947201 0.03259010 -0.15014133
v -0.01158397 0.03205012 -0.15005171
v -0.01331193 0.03169413 -0.14984467
v -0.01367992 0.03433004 -0.14809066
v -0.01709585 0.03362206 -0.14764521
v -0.01261995 0.03559400 -0.14756633
v -0.01367992 0.03537801 -0.14741307
v -0.01357193 0.03806592 -0.14437559
v -0.01356793 0.03842590 -0.14364872
v -0.01849582 0.03331408 -0.14743817
v -0.01996379 0.03409405 -0.14607314
v -0.01867982 0.03547800 -0.14527904
v -0.00529610 -0.00000480 -0.15257473
v -0.00006421 0.00522303 -0.15257473
v -0.00529610 0.01151081 -0.15211673
v -0.00529610 0.01360674 -0.15199573
v -0.00320414 0.00941488 -0.15228702
v -0.00110819 0.00731896 -0.15244745
v -0.00006421 0.00627899 -0.15251108
v -0.00320414 0.01360674 -0.15203427
v -0.00635208 -0.00000480 -0.15251108
v -0.00739206 0.00103517 -0.15244745
v -0.01367992 0.00312710 -0.15203427
v -0.01720385 0.00522303 -0.15178600
v -0.01577188 0.00522303 -0.15187204
v -0.01367992 0.00522303 -0.15199573
v -0.01158397 0.00522303 -0.15211673
v -0.01589188 0.00731096 -0.15181558
v -0.01521989 0.00941488 -0.15179049
v -0.01367992 0.00941488 -0.15187204
v -0.00948801 0.00731896 -0.15216244
v -0.01290394 0.01283077 -0.15177614
v -0.00739206 0.00941488 -0.15216244
v -0.00948801 0.01360674 -0.15187204
v -0.00948801 0.01514669 -0.15179049
v -0.00738406 0.01581867 -0.15181558
v -0.03989537 0.00906690 -0.14364872
v -0.03948339 0.00958288 -0.14432899
v -0.03952738 0.00731896 -0.14485062
v -0.03835941 0.00941488 -0.14615380
v -0.03744342 0.00731896 -0.14731180
v -0.03890340 0.00103517 -0.14670053
v -0.03890340 -0.00000480 -0.14670053
v -0.00006421 0.03245811 -0.15066655
v -0.00110819 0.03036218 -0.15084581
v -0.00320414 0.03036218 -0.15084312
v -0.00739206 0.03036218 -0.15083774
v -0.00948801 0.03036218 -0.15079562
v -0.01158397 0.03036218 -0.15063519
v -0.01577188 0.03013418 -0.15013865
v -0.01470790 0.03140214 -0.14965466
v -0.01504390 0.03781792 -0.14364872
v -0.01996379 0.03179413 -0.14779488
v -0.01996379 0.03284209 -0.14712089
v -0.01745184 0.02971820 -0.14991727
v -0.02128376 0.03371806 -0.14570746
v -0.02007979 0.03517002 -0.14452079
v -0.02059978 0.03539001 -0.14364872
v -0.01945580 0.03584999 -0.14388264
v -0.00529610 0.01569867 -0.15187204
v -0.00668007 0.01688663 -0.15177077
v -0.00529610 0.01713062 -0.15178600
v -0.00320414 0.01569867 -0.15190611
v -0.00110819 0.00941488 -0.15231838
v -0.00006421 0.00731896 -0.15244745
v -0.00739206 -0.00000480 -0.15244745
v -0.00948801 0.00103517 -0.15231838
v -0.01577188 0.00312710 -0.15190611
v -0.01695986 0.00660698 -0.15177077
v -0.01745184 0.00312710 -0.15180214
v -0.03043557 0.00731896 -0.15083774
v -0.03043557 0.00941488 -0.15079562
v -0.02833962 0.01360674 -0.15083057
v -0.01483590 0.01060684 -0.15176807
v -0.01363192 0.01138682 -0.15179854
v -0.01158397 0.00941488 -0.15197691
v -0.01067999 0.01476270 -0.15176807
v -0.01145997 0.01355874 -0.15179854
v -0.00948801 0.01151081 -0.15197691
v -0.02415170 0.01989053 -0.15083236
v -0.02205575 0.02198246 -0.15083953
v -0.01996379 0.02407839 -0.15083236
v -0.01367992 0.02826625 -0.15083057
v -0.03973138 0.01015486 -0.14364872
v -0.03808742 0.01151081 -0.14585714
v -0.03726343 0.00941488 -0.14720155
v -0.03778342 0.00217913 -0.14758157
v -0.03639545 0.00731896 -0.14806108
v -0.03785542 0.00103517 -0.14763176
v -0.03838341 -0.00000480 -0.14716301
v -0.00006421 0.03036218 -0.15084581
v -0.00110819 0.01751461 -0.15181019
v -0.00320414 0.01737861 -0.15180214
v -0.01577188 0.02826625 -0.15072302
v -0.01803583 0.02844624 -0.15024709
v -0.01955580 0.03591399 -0.14364872
v -0.01996379 0.02779026 -0.14995849
v -0.02101577 0.03141814 -0.14757619
v -0.02241174 0.03088216 -0.14724637
v -0.02358772 0.03178213 -0.14584907
v -0.02729164 0.02931421 -0.14547712
v -0.02267974 0.03318208 -0.14491336
v -0.02201175 0.03403405 -0.14430120
v -0.02203975 0.03438604 -0.14364872
v -0.00110819 0.01360674 -0.15205578
v -0.00006421 0.00941488 -0.15231838
v -0.00948801 -0.00000480 -0.15231838
v -0.01367992 0.00103517 -0.15205578
v -0.01758784 0.00103517 -0.15181019
v -0.03043557 0.00103517 -0.15084581
v -0.03253153 0.00103517 -0.15066655
v -0.03253153 0.00312710 -0.15058230
v -0.03253153 0.00522303 -0.15049089
v -0.03253153 0.00731896 -0.15039677
v -0.03043557 0.01151081 -0.15063519
v -0.02833962 0.01569867 -0.15072302
v -0.02624766 0.01779460 -0.15079113
v -0.01786784 0.02617432 -0.15079113
v -0.02415170 0.02198246 -0.15064594
v -0.02205575 0.02407839 -0.15064594
v -0.03928739 0.01151081 -0.14364872
v -0.03890340 0.01151081 -0.14443027
v -0.03784342 0.01273077 -0.14557571
v -0.03586746 0.01721062 -0.14571911
v -0.03616745 0.01569867 -0.14602743
v -0.03501548 0.01569867 -0.14707517
v -0.03668344 0.01171081 -0.14703484
v -0.03595946 0.01114683 -0.14775187
v -0.03621545 0.00941488 -0.14792754
v -0.03653545 0.00522303 -0.14815429
v -0.03379950 0.00731896 -0.14981599
v -0.03407550 0.00312710 -0.14999883
v -0.03367950 0.00868691 -0.14973532
v -0.03484748 0.00731896 -0.14910793
v -0.03785542 -0.00000480 -0.14763176
v -0.03421150 0.00103517 -0.15008218
v -0.00006421 0.01751461 -0.15181019
v -0.01996379 0.02617432 -0.15053570
v -0.02193175 0.02612632 -0.15002034
v -0.02345972 0.02539834 -0.14981509
v -0.02115177 0.02733028 -0.14972725
v -0.02185175 0.03025418 -0.14785852
v -0.02562767 0.02755027 -0.14775187
v -0.02471969 0.02894622 -0.14736288
v -0.02415570 0.03036618 -0.14660642
v -0.02589567 0.02985019 -0.14596649
v -0.02781163 0.02971820 -0.14407982
v -0.02721564 0.03042617 -0.14364872
v -0.02640366 0.03048217 -0.14463731
v -0.02645966 0.02843424 -0.14670053
v -0.02702365 0.02695029 -0.14743548
v -0.02799162 0.02791826 -0.14603818
v -0.02938759 0.02721828 -0.14547712
v -0.02902360 0.02895022 -0.14364872
v -0.02315573 0.03354607 -0.14364872
v -0.00006421 0.01360674 -0.15205578
v -0.01367992 -0.00000480 -0.15205578
v -0.01758784 -0.00000480 -0.15181019
v -0.03043557 -0.00000480 -0.15084581
v -0.03253153 -0.00000480 -0.15066655
v -0.03266353 0.00939888 -0.15014133
v -0.03212354 0.01151081 -0.15005171
v -0.03020758 0.01569867 -0.15013865
v -0.02851961 0.01796260 -0.15024709
v -0.02624766 0.01989053 -0.15053570
v -0.02619966 0.02185846 -0.15002034
v -0.02415570 0.02408239 -0.15007681
v -0.03849940 0.01349475 -0.14364872
v -0.03813941 0.01349875 -0.14437559
v -0.03555147 0.01860657 -0.14527994
v -0.03416750 0.01989053 -0.14607314
v -0.03338751 0.01842258 -0.14743906
v -0.03545147 0.01360674 -0.14741307
v -0.03566746 0.01254278 -0.14756633
v -0.03369551 0.01702263 -0.14764521
v -0.03440349 0.01360674 -0.14809066
v -0.03176755 0.01323876 -0.14984467
v -0.03421150 -0.00000480 -0.15008218
v -0.02547168 0.02338641 -0.14981509
v -0.02485569 0.02478237 -0.14948078
v -0.02793562 0.02987019 -0.14364872
v -0.02551168 0.03165013 -0.14379839
v -0.02762363 0.02555434 -0.14775187
v -0.02902360 0.02464637 -0.14736288
v -0.02850761 0.02638631 -0.14670053
v -0.02992358 0.02582233 -0.14596649
v -0.03185554 0.02351441 -0.14584907
v -0.03379150 0.02121049 -0.14570746
v -0.03325551 0.02260644 -0.14491336
v -0.03055557 0.02633031 -0.14463731
v -0.03049957 0.02714228 -0.14364872
v -0.02979159 0.02773826 -0.14407982
v -0.02994358 0.02786226 -0.14364872
v -0.03147555 0.01463471 -0.14965466
v -0.02979159 0.01737861 -0.14991727
v -0.02786363 0.01989053 -0.14995849
v -0.03789142 0.01497070 -0.14364872
v -0.03592346 0.01938255 -0.14388264
v -0.03546347 0.02052651 -0.14364872
v -0.03524347 0.02000653 -0.14452079
v -0.03291552 0.01989053 -0.14712089
v -0.03187154 0.01989053 -0.14779488
v -0.02740364 0.02107849 -0.14972725
v -0.02955959 0.02325042 -0.14766403
v -0.03149155 0.02094249 -0.14757619
v -0.03095556 0.02233845 -0.14724637
v -0.03043957 0.02408239 -0.14660642
v -0.03410750 0.02193846 -0.14430120
v -0.03445949 0.02196646 -0.14364872
v -0.03361951 0.02307842 -0.14364872
v -0.03301552 0.02386640 -0.14364872
v -0.03172355 0.02543834 -0.14379839
v -0.03598746 0.01948254 -0.14364872
f 1 2 6
f 1 6 14
f 1 14 25
f 1 25 37
f 1 37 65
f 1 65 101
f 1 101 106
f 1 106 152
f 1 152 193
f 1 193 243
f 1 243 224
f 1 224 178
f 1 178 131
f 1 131 83
f 1 83 47
f 1 47 29
f 1 29 16
f 1 16 8
f 1 8 3
f 1 3 4
f 1 4 5
f 1 5 12
f 1 12 23
f 1 23 22
f 1 22 35
f 1 35 63
f 1 63 96
f 1 96 139
f 1 139 183
f 1 183 145
f 1 145 191
f 1 191 242
f 1 242 235
f 1 235 268
f 1 268 241
f 1 241 280
f 1 280 278
f 1 278 298
f 1 298 297
f 1 297 296
f 1 296 286
f 1 286 300
f 1 300 284
f 1 284 255
f 1 255 208
f 1 208 171
f 1 171 124
f 1 124 81
f 1 81 44
f 1 44 27
f 1 27 15
f 1 15 7
f 1 7 2
f 2 7 6
f 3 8 9
f 3 9 4
f 4 9 10
f 4 10 11
f 4 11 5
f 5 11 12
f 6 13 14
f 6 7 15
f 6 15 28
f 6 28 46
f 6 46 82
f 6 82 130
f 6 130 177
f 6 177 222
f 6 222 265
f 6 265 247
f 6 247 246
f 6 246 245
f 6 245 244
f 6 244 194
f 6 194 153
f 6 153 108
f 6 108 100
f 6 100 64
f 6 64 36
f 6 36 24
f 6 24 13
f 8 16 17
f 8 17 9
f 9 17 18
f 9 18 19
f 9 19 10
f 10 20 21
f 10 21 22
f 10 22 23
f 10 23 12
f 10 12 11
f 10 19 20
f 13 24 14
f 14 24 26
f 14 26 25
f 15 27 28
f 16 29 17
f 17 30 31
f 17 31 18
f 17 29 30
f 18 31 32
f 18 32 33
f 18 33 19
f 19 33 34
f 19 34 21
f 19 21 20
f 21 34 35
f 21 35 22
f 24 36 39
f 24 39 26
f 25 26 37
f 26 38 37
f 26 39 40
f 26 40 41
f 26 41 42
f 26 42 38
f 27 43 28
f 27 44 45
f 27 45 43
f 28 43 79
f 28 79 46
f 29 47 30
f 30 48 49
f 30 49 31
f 30 47 83
f 30 83 48
f 31 49 50
f 31 50 51
f 31 51 52
f 31 52 32
f 32 52 53
f 32 53 54
f 32 54 55
f 32 55 33
f 33 55 56
f 33 56 57
f 33 57 34
f 34 58 35
f 34 57 59
f 34 59 60
f 34 60 61
f 34 61 62
f 34 62 58
f 35 58 63
f 36 64 39
f 37 38 65
f 38 42 66
f 38 66 104
f 38 104 67
f 38 67 65
f 39 64 68
f 39 68 69
f 39 69 70
f 39 70 40
f 40 70 71
f 40 71 72
f 40 72 73
f 40 73 41
f 41 73 74
f 41 74 75
f 41 75 42
f 42 75 76
f 42 76 77
f 42 77 66
f 43 45 78
f 43 78 79
f 44 80 45
f 44 81 80
f 45 80 78
f 46 79 82
f 48 84 85
f 48 85 86
f 48 86 87
f 48 87 49
f 48 83 131
f 48 131 84
f 49 87 50
f 50 87 51
f 51 87 88
f 51 88 54
f 51 54 53
f 51 53 52
f 54 88 89
f 54 89 56
f 54 56 55
f 56 89 90
f 56 90 91
f 56 91 92
f 56 92 93
f 56 93 57
f 57 93 94
f 57 94 59
f 58 62 95
f 58 95 96
f 58 96 63
f 59 61 60
f 59 94 97
f 59 97 61
f 61 97 98
f 61 98 99
f 61 99 62
f 62 99 95
f 64 100 68
f 65 67 101
f 66 102 103
f 66 103 104
f 66 77 102
f 67 105 106
f 67 106 101
f 67 104 107
f 67 107 105
f 68 100 108
f 68 108 109
f 68 109 110
f 68 110 69
f 69 110 111
f 69 111 112
f 69 112 113
f 69 113 70
f 70 113 114
f 70 114 71
f 71 114 115
f 71 115 116
f 71 116 72
f 72 116 117
f 72 117 73
f 73 117 118
f 73 118 74
f 74 118 119
f 74 119 120
f 74 120 75
f 75 120 121
f 75 121 76
f 76 121 122
f 76 122 77
f 77 122 123
f 77 123 102
f 78 80 81
f 78 81 124
f 78 124 125
f 78 125 126
f 78 126 127
f 78 127 79
f 79 127 128
f 79 128 129
f 79 129 82
f 82 129 130
f 84 132 133
f 84 133 134
f 84 134 135
f 84 135 85
f 84 131 178
f 84 178 132
f 85 135 86
f 86 135 87
f 87 135 136
f 87 136 88
f 88 136 89
f 89 136 137
f 89 137 90
f 90 137 138
f 90 138 92
f 90 92 91
f 92 94 93
f 92 138 137
f 92 137 97
f 92 97 94
f 95 139 96
f 95 99 139
f 97 140 141
f 97 141 98
f 97 137 142
f 97 142 140
f 98 141 143
f 98 143 99
f 99 143 144
f 99 144 145
f 99 145 146
f 99 146 139
f 102 123 103
f 103 147 104
f 103 123 148
f 103 148 147
f 104 147 149
f 104 149 107
f 105 107 150
f 105 150 151
f 105 151 193
f 105 193 152
f 105 152 106
f 107 149 150
f 108 153 109
f 109 153 194
f 109 194 154
f 109 154 155
f 109 155 110
f 110 155 111
f 111 156 112
f 111 155 157
f 111 157 158
f 111 158 159
f 111 159 156
f 112 156 113
f 113 156 115
f 113 115 114
f 115 156 160
f 115 160 116
f 116 161 117
f 116 160 161
f 117 161 162
f 117 162 163
f 117 163 118
f 118 163 119
f 119 164 165
f 119 165 166
f 119 166 120
f 119 163 162
f 119 162 161
f 119 161 167
f 119 167 168
f 119 168 169
f 119 169 164
f 120 166 121
f 121 166 165
f 121 165 164
f 121 164 122
f 122 164 170
f 122 170 123
f 123 170 148
f 124 171 125
f 125 171 172
f 125 172 127
f 125 127 126
f 127 172 173
f 127 173 128
f 128 174 129
f 128 173 175
f 128 175 174
f 129 174 176
f 129 176 177
f 129 177 130
f 132 179 133
f 132 178 224
f 132 224 179
f 133 179 134
f 134 179 180
f 134 180 149
f 134 149 135
f 135 170 181
f 135 181 136
f 135 149 148
f 135 148 170
f 136 181 137
f 137 181 182
f 137 182 142
f 139 146 183
f 140 184 185
f 140 185 141
f 140 142 184
f 141 185 186
f 141 186 143
f 142 182 184
f 143 186 187
f 143 187 188
f 143 188 189
f 143 189 190
f 143 190 145
f 143 145 144
f 145 190 191
f 145 183 146
f 147 148 149
f 149 180 150
f 150 180 151
f 151 180 192
f 151 192 243
f 151 243 193
f 154 194 244
f 154 244 195
f 154 195 157
f 154 157 155
f 156 159 160
f 157 195 196
f 157 196 158
f 158 197 198
f 158 198 159
f 158 196 197
f 159 198 199
f 159 199 200
f 159 200 201
f 159 201 202
f 159 202 203
f 159 203 160
f 160 203 204
f 160 204 161
f 161 204 167
f 164 169 205
f 164 205 170
f 167 204 206
f 167 206 168
f 168 206 207
f 168 207 169
f 169 207 205
f 170 205 181
f 171 208 209
f 171 209 172
f 172 209 210
f 172 210 211
f 172 211 212
f 172 212 213
f 172 213 214
f 172 214 173
f 173 214 215
f 173 215 216
f 173 216 175
f 174 175 217
f 174 217 218
f 174 218 219
f 174 219 176
f 175 216 220
f 175 220 221
f 175 221 217
f 176 222 177
f 176 219 223
f 176 223 265
f 176 265 222
f 179 192 180
f 179 224 243
f 179 243 192
f 181 205 207
f 181 207 225
f 181 225 182
f 182 225 226
f 182 226 184
f 184 226 227
f 184 227 228
f 184 228 185
f 185 228 227
f 185 227 229
f 185 229 230
f 185 230 231
f 185 231 186
f 186 231 232
f 186 232 187
f 187 232 233
f 187 233 188
f 188 234 235
f 188 235 236
f 188 236 189
f 188 233 237
f 188 237 238
f 188 238 239
f 188 239 240
f 188 240 241
f 188 241 234
f 189 242 191
f 189 191 190
f 189 236 242
f 195 244 245
f 195 245 196
f 196 245 246
f 196 246 197
f 197 246 247
f 197 247 198
f 198 247 265
f 198 265 223
f 198 223 199
f 199 223 200
f 200 223 201
f 201 223 219
f 201 219 218
f 201 218 248
f 201 248 202
f 202 248 249
f 202 249 250
f 202 250 203
f 203 250 251
f 203 251 252
f 203 252 206
f 203 206 204
f 206 252 253
f 206 253 254
f 206 254 207
f 207 226 225
f 207 254 226
f 208 255 209
f 209 255 256
f 209 256 210
f 210 256 257
f 210 257 211
f 211 213 212
f 211 257 258
f 211 258 259
f 211 259 213
f 213 260 214
f 213 259 260
f 214 260 261
f 214 261 215
f 215 261 262
f 215 262 263
f 215 263 264
f 215 264 249
f 215 249 220
f 215 220 216
f 217 221 218
f 218 220 248
f 218 221 220
f 220 249 248
f 226 254 227
f 227 254 266
f 227 266 267
f 227 267 238
f 227 238 230
f 227 230 229
f 230 238 231
f 231 238 237
f 231 237 233
f 231 233 232
f 234 268 235
f 234 241 268
f 235 269 236
f 235 242 269
f 236 269 242
f 238 270 271
f 238 271 272
f 238 272 240
f 238 240 239
f 238 267 266
f 238 266 270
f 240 273 274
f 240 274 275
f 240 275 276
f 240 276 277
f 240 277 278
f 240 278 279
f 240 279 241
f 240 272 273
f 241 279 280
f 249 264 250
f 250 264 281
f 250 281 262
f 250 262 259
f 250 259 282
f 250 282 251
f 251 283 253
f 251 253 252
f 251 282 283
f 253 266 254
f 253 283 266
f 255 284 256
f 256 284 257
f 257 284 285
f 257 285 286
f 257 286 287
f 257 287 275
f 257 275 258
f 258 275 288
f 258 288 259
f 259 262 260
f 259 288 289
f 259 289 282
f 260 262 261
f 262 281 264
f 262 264 263
f 266 283 290
f 266 290 292
f 266 292 291
f 266 291 270
f 270 291 271
f 271 291 292
f 271 292 293
f 271 293 294
f 271 294 273
f 271 273 272
f 273 294 274
f 274 294 293
f 274 293 275
f 275 287 286
f 275 286 295
f 275 295 276
f 275 293 288
f 276 295 296
f 276 296 297
f 276 297 298
f 276 298 299
f 276 299 277
f 277 299 278
f 278 280 279
f 278 299 298
f 282 289 283
f 283 289 292
f 283 292 290
f 284 300 285
f 285 300 286
f 286 296 295
f 288 293 292
f 288 292 289

