# https://github.com/mikedh/trimesh
v 0.02840397 -0.03185996 -0.01452989
v 0.02904233 -0.03123017 -0.04805786
v 0.02912107 -0.03127694 -0.01452989
v 0.02909294 -0.03126135 -0.01243189
v 0.02840397 -0.03181631 -0.01243189
v 0.02840397 -0.03170407 -0.05852786
v 0.02889047 -0.03113041 -0.11243637
v 0.02889328 -0.03113352 -0.11089785
v 0.02900296 -0.03120523 -0.06480187
v 0.02901280 -0.03121147 -0.06062586
v 0.03001251 -0.03008284 -0.11243637
v 0.03120627 -0.02919117 -0.01452989
v 0.03014328 -0.03021379 -0.01243189
v 0.03009407 -0.03016390 -0.06062586
v 0.03008141 -0.03011402 -0.01037385
v 0.03006173 -0.03013273 -0.01037385
v 0.02895656 -0.03118029 -0.01037385
v 0.02840397 -0.03161365 -0.01037385
v 0.02840397 -0.03170095 -0.05940702
v 0.02840397 -0.03151389 -0.11202677
v 0.02860785 -0.03135176 -0.11243637
v 0.02919278 -0.03084981 -0.11243637
v 0.03077882 -0.02926288 -0.11243637
v 0.03114721 -0.02909452 -0.05642987
v 0.03120205 -0.02918805 -0.01662788
v 0.03205272 -0.02814049 -0.01662788
v 0.03205553 -0.02814361 -0.01452989
v 0.03119080 -0.02916311 -0.01243189
v 0.03110925 -0.02902905 -0.01037385
v 0.02840397 -0.02845850 -0.01037385
v 0.02840397 -0.03151077 -0.11243637
v 0.03106003 -0.02896046 -0.11243637
v 0.03390451 -0.02572736 -0.01662788
v 0.03310446 -0.02677804 -0.01452989
v 0.03128219 -0.02867986 -0.11243637
v 0.03198101 -0.02804696 -0.05642987
v 0.03306649 -0.02673127 -0.03547988
v 0.03203444 -0.02811555 -0.01243189
v 0.03193039 -0.02798149 -0.01037385
v 0.04055662 -0.00000912 -0.01037385
v 0.02840397 -0.02839303 -0.11243637
v 0.03495203 -0.02436179 -0.01662788
v 0.03489157 -0.02428385 -0.05014587
v 0.03495485 -0.02436491 -0.01452989
v 0.03493375 -0.02433685 -0.01243189
v 0.03388623 -0.02570242 -0.01243189
v 0.03187977 -0.02791289 -0.11243637
v 0.03188962 -0.02792849 -0.10671185
v 0.03195429 -0.02801266 -0.07109586
v 0.03293010 -0.02655356 -0.11089785
v 0.03566210 -0.02319264 -0.01074350
v 0.03378218 -0.02556835 -0.01037385
v 0.04055662 -0.00000912 -0.11243637
v 0.04256730 -0.00000912 -0.01037385
v 0.03574646 -0.02330487 -0.02081388
v 0.03575349 -0.02331423 -0.01662788
v 0.03575771 -0.02331735 -0.01452989
v 0.03570147 -0.02324564 -0.04595987
v 0.03478190 -0.02414043 -0.11089785
v 0.03558476 -0.02309287 -0.11089785
v 0.03573662 -0.02328929 -0.01243189
v 0.03314383 -0.02626673 -0.11243637
v 0.03652261 -0.02201413 -0.01243189
v 0.03600518 -0.02257844 -0.01037385
v 0.03522059 -0.02368836 -0.01037385
v 0.04248575 -0.00000912 -0.11243637
v 0.04256730 -0.00106603 -0.01037385
v 0.04273322 -0.00000912 -0.01243189
v 0.03628358 -0.02201413 -0.11243637
v 0.03629483 -0.02201413 -0.10880984
v 0.03740703 -0.02062674 -0.01452989
v 0.03499562 -0.02385360 -0.11243637
v 0.03558195 -0.02308663 -0.11243637
v 0.03739437 -0.02058309 -0.01243189
v 0.03623577 -0.02219808 -0.01037385
v 0.04248715 -0.00000912 -0.11195683
v 0.04248575 -0.00106603 -0.11243637
v 0.04230155 -0.00312062 -0.01037385
v 0.04190223 -0.00671850 -0.01095330
v 0.04273322 -0.00106603 -0.01243189
v 0.04276696 -0.00000912 -0.01452989
v 0.03703582 -0.02072962 -0.11243637
v 0.03731563 -0.02027443 -0.10880984
v 0.03732407 -0.02030561 -0.10042784
v 0.03794977 -0.01957918 -0.01452989
v 0.03793008 -0.01953553 -0.01243189
v 0.03733954 -0.02036485 -0.01037385
v 0.03631873 -0.02206090 -0.01037385
v 0.04250543 -0.00000912 -0.10567283
v 0.04223125 -0.00316115 -0.10671185
v 0.04221438 -0.00316115 -0.11243637
v 0.04252652 -0.00106603 -0.09832985
v 0.04226781 -0.00316115 -0.09413385
v 0.04224953 -0.00316115 -0.10042784
v 0.04198941 -0.00550569 -0.01037385
v 0.04194722 -0.00706768 -0.01243189
v 0.04218625 -0.00525628 -0.01243189
v 0.04246184 -0.00316115 -0.01243189
v 0.04083783 -0.01154164 -0.01037385
v 0.04249700 -0.00316115 -0.01452989
v 0.04276696 -0.00106603 -0.01452989
v 0.04275290 -0.00000912 -0.01977488
v 0.03731142 -0.02025884 -0.11243637
v 0.03789775 -0.01945447 -0.04805786
v 0.03986483 -0.01495868 -0.01452989
v 0.04037524 -0.01363676 -0.01243189
v 0.03744359 -0.01997825 -0.11243637
v 0.03980156 -0.01480280 -0.01102323
v 0.03784150 -0.01931729 -0.01037385
v 0.03783166 -0.01933911 -0.01037385
v 0.04256589 -0.00000912 -0.08471285
v 0.04270790 -0.00106603 -0.03547988
v 0.04196409 -0.00509727 -0.11089785
v 0.04197956 -0.00521263 -0.10042784
v 0.04196128 -0.00508168 -0.11243637
v 0.04238873 -0.00316115 -0.05224386
v 0.04095735 -0.01154164 -0.01243189
v 0.04196550 -0.00719863 -0.01452989
v 0.04222140 -0.00525628 -0.01452989
v 0.04013761 -0.01377706 -0.01037385
v 0.04249137 -0.00316115 -0.01662788
v 0.04276134 -0.00106603 -0.01662788
v 0.04275009 -0.00106603 -0.02081388
v 0.04275009 -0.00000912 -0.02081388
v 0.03780354 -0.01922687 -0.10880984
v 0.03975798 -0.01469991 -0.08366386
v 0.04039914 -0.01363676 -0.01871589
v 0.04041179 -0.01363676 -0.01452989
v 0.03779791 -0.01921128 -0.11243637
v 0.04010668 -0.01385500 -0.01037385
v 0.04270790 -0.00000912 -0.03547988
v 0.04272900 -0.00000912 -0.02815687
v 0.04186286 -0.00641919 -0.08576185
v 0.04185020 -0.00632878 -0.09413385
v 0.04188395 -0.00658132 -0.07109586
v 0.04186567 -0.00644414 -0.08366386
v 0.04184739 -0.00631319 -0.09560245
v 0.04077034 -0.01154164 -0.11243637
v 0.04194441 -0.00703962 -0.02919588
v 0.04097985 -0.01154164 -0.01452989
v 0.04097563 -0.01154164 -0.01662788
v 0.03821692 -0.01820113 -0.11243637
v 0.04014745 -0.01354323 -0.11243637
v 0.04016292 -0.01358064 -0.10251585
v 0.04019807 -0.01363676 -0.08366386
v 0.04060302 -0.01208101 -0.11243637
f 1 2 3
f 1 3 4
f 1 4 5
f 1 5 18
f 1 18 30
f 1 30 41
f 1 41 31
f 1 31 20
f 1 20 19
f 1 19 6
f 1 6 7
f 1 7 8
f 1 8 9
f 1 9 10
f 1 10 2
f 2 10 11
f 2 11 3
f 3 12 13
f 3 13 4
f 3 11 14
f 3 14 12
f 4 13 15
f 4 15 16
f 4 16 17
f 4 17 5
f 5 17 18
f 6 19 7
f 7 20 21
f 7 21 31
f 7 31 41
f 7 41 53
f 7 53 66
f 7 66 77
f 7 77 91
f 7 91 115
f 7 115 138
f 7 138 146
f 7 146 143
f 7 143 142
f 7 142 129
f 7 129 107
f 7 107 103
f 7 103 82
f 7 82 69
f 7 69 73
f 7 73 72
f 7 72 62
f 7 62 47
f 7 47 35
f 7 35 32
f 7 32 23
f 7 23 11
f 7 11 22
f 7 22 9
f 7 9 8
f 7 19 20
f 9 22 11
f 9 11 10
f 11 23 24
f 11 24 25
f 11 25 12
f 11 12 14
f 12 25 26
f 12 26 27
f 12 27 28
f 12 28 13
f 13 28 15
f 15 29 39
f 15 39 52
f 15 52 65
f 15 65 64
f 15 64 75
f 15 75 88
f 15 88 87
f 15 87 110
f 15 110 109
f 15 109 130
f 15 130 120
f 15 120 99
f 15 99 95
f 15 95 78
f 15 78 67
f 15 67 54
f 15 54 40
f 15 40 30
f 15 30 18
f 15 18 17
f 15 17 16
f 15 28 29
f 20 31 21
f 23 32 24
f 24 26 25
f 24 32 26
f 26 33 34
f 26 34 27
f 26 32 35
f 26 35 36
f 26 36 37
f 26 37 33
f 27 34 38
f 27 38 28
f 28 38 29
f 29 38 39
f 30 40 41
f 33 42 34
f 33 37 43
f 33 43 42
f 34 42 44
f 34 44 45
f 34 45 46
f 34 46 38
f 35 47 48
f 35 48 49
f 35 49 36
f 36 49 37
f 37 49 50
f 37 50 43
f 38 46 51
f 38 51 39
f 39 51 52
f 40 53 41
f 40 54 68
f 40 68 81
f 40 81 102
f 40 102 124
f 40 124 132
f 40 132 131
f 40 131 111
f 40 111 89
f 40 89 76
f 40 76 66
f 40 66 53
f 42 55 56
f 42 56 57
f 42 57 44
f 42 43 55
f 43 58 55
f 43 50 59
f 43 59 60
f 43 60 58
f 44 57 61
f 44 61 45
f 45 61 51
f 45 51 46
f 47 62 50
f 47 50 48
f 48 50 49
f 50 62 72
f 50 72 59
f 51 61 63
f 51 63 64
f 51 64 65
f 51 65 52
f 54 67 80
f 54 80 68
f 55 58 69
f 55 69 70
f 55 70 56
f 56 70 57
f 57 71 63
f 57 63 61
f 57 70 71
f 58 60 69
f 59 72 60
f 60 72 73
f 60 73 69
f 63 74 64
f 63 71 74
f 64 74 75
f 66 76 77
f 67 78 79
f 67 79 80
f 68 80 101
f 68 101 81
f 69 82 83
f 69 83 84
f 69 84 71
f 69 71 70
f 71 85 74
f 71 84 85
f 74 86 87
f 74 87 88
f 74 88 75
f 74 85 86
f 76 89 77
f 77 90 91
f 77 89 92
f 77 92 93
f 77 93 94
f 77 94 90
f 78 95 79
f 79 96 97
f 79 97 98
f 79 98 80
f 79 95 99
f 79 99 96
f 80 98 100
f 80 100 101
f 81 101 122
f 81 122 102
f 82 103 83
f 83 103 85
f 83 85 84
f 85 104 105
f 85 105 106
f 85 106 86
f 85 103 107
f 85 107 104
f 86 106 108
f 86 108 109
f 86 109 110
f 86 110 87
f 89 111 112
f 89 112 92
f 90 113 91
f 90 94 114
f 90 114 113
f 91 113 115
f 92 112 116
f 92 116 93
f 93 114 94
f 93 116 114
f 96 99 117
f 96 117 118
f 96 118 97
f 97 118 119
f 97 119 100
f 97 100 98
f 99 120 106
f 99 106 117
f 100 119 121
f 100 121 122
f 100 122 101
f 102 122 123
f 102 123 124
f 104 107 125
f 104 125 126
f 104 126 105
f 105 127 128
f 105 128 106
f 105 126 127
f 106 120 108
f 106 128 117
f 107 129 125
f 108 120 130
f 108 130 109
f 111 131 112
f 112 131 132
f 112 132 123
f 112 123 121
f 112 121 116
f 113 114 133
f 113 133 134
f 113 134 115
f 114 135 136
f 114 136 133
f 114 116 135
f 115 134 137
f 115 137 138
f 116 121 139
f 116 139 135
f 117 128 140
f 117 140 118
f 118 139 119
f 118 140 141
f 118 141 138
f 118 138 139
f 119 139 121
f 121 123 122
f 123 132 124
f 125 129 142
f 125 142 143
f 125 143 126
f 126 143 144
f 126 144 145
f 126 145 127
f 127 145 144
f 127 144 143
f 127 143 128
f 128 141 140
f 128 143 146
f 128 146 138
f 128 138 141
f 133 136 134
f 134 138 137
f 134 136 138
f 135 138 136
f 135 139 138

