# https://github.com/mikedh/trimesh
v 0.02840397 -0.02846142 -0.01037385
v -0.00006421 -0.04063055 -0.01037385
v 0.02840397 -0.03161507 -0.01037385
v 0.02840397 -0.02839637 -0.11243637
v -0.00006421 -0.04264012 -0.01037385
v -0.00006421 -0.04062914 -0.11243637
v 0.02790795 -0.03200397 -0.01037385
v 0.02804171 -0.03210862 -0.01243189
v 0.02840397 -0.03181871 -0.01243189
v 0.02840397 -0.03151466 -0.11243637
v 0.00099192 -0.04264012 -0.01037385
v -0.00006421 -0.04272356 -0.01139288
v -0.00006421 -0.04255809 -0.11243637
v 0.02654250 -0.03305189 -0.01037385
v 0.02312053 -0.03573603 -0.01074350
v 0.02563128 -0.03395980 -0.01243189
v 0.02807236 -0.03212984 -0.01452989
v 0.02840397 -0.03186114 -0.01452989
v 0.02788008 -0.03198276 -0.09623185
v 0.02784943 -0.03196013 -0.10880984
v 0.02784107 -0.03195306 -0.11243637
v 0.02840397 -0.03170558 -0.05852786
v 0.02804728 -0.03211145 -0.02500987
v 0.00308747 -0.04237001 -0.01037385
v 0.00099192 -0.04280699 -0.01243189
v 0.00664599 -0.04197545 -0.01095330
v -0.00006421 -0.04280699 -0.01243189
v 0.00099192 -0.04255809 -0.11243637
v -0.00006421 -0.04256658 -0.10985884
v 0.02549473 -0.03385515 -0.01037385
v 0.02050946 -0.03746841 -0.01243189
v 0.02194178 -0.03659586 -0.01243189
v 0.02321806 -0.03580957 -0.01243189
v 0.02426583 -0.03500772 -0.01243189
v 0.02361654 -0.03529480 -0.01037385
v 0.02250468 -0.03607826 -0.01037385
v 0.02198916 -0.03639221 -0.01037385
v 0.02670691 -0.03317775 -0.01452989
v 0.02655922 -0.03306462 -0.07737986
v 0.02408749 -0.03487054 -0.10251585
v 0.02649513 -0.03301512 -0.10461384
v 0.02660381 -0.03309856 -0.05852786
v 0.02619418 -0.03321735 -0.11243637
v 0.00543381 -0.04206313 -0.01037385
v 0.00308747 -0.04253688 -0.01243189
v 0.00099192 -0.04284093 -0.01452989
v 0.00699710 -0.04202070 -0.01243189
v 0.01146685 -0.04091198 -0.01037385
v -0.00006421 -0.04284093 -0.01452989
v 0.00155482 -0.04248597 -0.11243637
v 0.00099192 -0.04256941 -0.10880984
v -0.00006421 -0.04273628 -0.05120486
v 0.02029210 -0.03741326 -0.01037385
v 0.01946168 -0.03800439 -0.01243189
v 0.01950627 -0.03802278 -0.01452989
v 0.02055404 -0.03747973 -0.01452989
v 0.02194178 -0.03662980 -0.01452989
v 0.02324592 -0.03583078 -0.01452989
v 0.02429369 -0.03502893 -0.01452989
v 0.02425468 -0.03499923 -0.03129387
v 0.02312331 -0.03573744 -0.06689987
v 0.02307873 -0.03570350 -0.08576185
v 0.02303414 -0.03566956 -0.10461384
v 0.02378096 -0.03506853 -0.11243637
v 0.00308747 -0.04257082 -0.01452989
v 0.00518301 -0.04229506 -0.01452989
v 0.00712807 -0.04203909 -0.01452989
v 0.00099192 -0.04283528 -0.01662788
v 0.01146685 -0.04103077 -0.01243189
v 0.01356240 -0.04044812 -0.01243189
v 0.01370451 -0.04021053 -0.01037385
v -0.00006421 -0.04282679 -0.01977488
v 0.00308747 -0.04228799 -0.11243637
v 0.00308747 -0.04243789 -0.06062586
v 0.00099192 -0.04282397 -0.02081388
v -0.00006421 -0.04277871 -0.03653887
v 0.01924433 -0.03791530 -0.01037385
v 0.01472721 -0.03987537 -0.01102323
v 0.01356240 -0.04048630 -0.01452989
v 0.01949791 -0.03801995 -0.01662788
v 0.02019178 -0.03738781 -0.11089785
v 0.02021686 -0.03739346 -0.10461384
v 0.02194178 -0.03635827 -0.11243637
v 0.02194178 -0.03638656 -0.10251585
v 0.02324035 -0.03582795 -0.01662788
v 0.02322642 -0.03581664 -0.02291188
v 0.02223159 -0.03616877 -0.11243637
v 0.02301463 -0.03565542 -0.11243637
v 0.00308747 -0.04256517 -0.01662788
v 0.00518301 -0.04228940 -0.01662788
v 0.01146685 -0.04105481 -0.01452989
v 0.00710578 -0.04203626 -0.01662788
v 0.01146685 -0.04084409 -0.11243637
v 0.01378254 -0.04018084 -0.01037385
v -0.00006421 -0.04282397 -0.02081388
v 0.00500466 -0.04203484 -0.11243637
v 0.00502138 -0.04203767 -0.11089785
v 0.00504646 -0.04204050 -0.10880984
v 0.00630045 -0.04193020 -0.08994785
v 0.00646207 -0.04195141 -0.07528186
v -0.00006421 -0.04279992 -0.02919588
v 0.01921368 -0.03792803 -0.01037385
v 0.01938923 -0.03797470 -0.04595987
v 0.01946726 -0.03800722 -0.02500987
v 0.01347044 -0.04022043 -0.11243637
v 0.01347601 -0.04022326 -0.11089785
v 0.01353174 -0.04024589 -0.09623185
v 0.01931121 -0.03794217 -0.06689987
v 0.01990476 -0.03751650 -0.11243637
v 0.02018621 -0.03738498 -0.11243637
v 0.00623914 -0.04192171 -0.09557248
v 0.01812689 -0.03829147 -0.11243637
v 0.01917745 -0.03788702 -0.10251585
v 0.01913844 -0.03787146 -0.11243637
f 1 2 5
f 1 5 11
f 1 11 24
f 1 24 44
f 1 44 48
f 1 48 71
f 1 71 94
f 1 94 102
f 1 102 77
f 1 77 53
f 1 53 37
f 1 37 36
f 1 36 35
f 1 35 30
f 1 30 14
f 1 14 7
f 1 7 3
f 1 3 9
f 1 9 18
f 1 18 22
f 1 22 10
f 1 10 4
f 1 4 2
f 2 4 6
f 2 6 13
f 2 13 29
f 2 29 52
f 2 52 76
f 2 76 101
f 2 101 95
f 2 95 72
f 2 72 49
f 2 49 27
f 2 27 12
f 2 12 5
f 3 7 8
f 3 8 9
f 4 10 21
f 4 21 43
f 4 43 64
f 4 64 88
f 4 88 87
f 4 87 83
f 4 83 110
f 4 110 109
f 4 109 114
f 4 114 112
f 4 112 105
f 4 105 93
f 4 93 96
f 4 96 73
f 4 73 50
f 4 50 28
f 4 28 13
f 4 13 6
f 5 12 11
f 7 14 15
f 7 15 8
f 8 15 16
f 8 16 17
f 8 17 9
f 9 17 18
f 10 19 20
f 10 20 21
f 10 22 17
f 10 17 23
f 10 23 19
f 11 12 25
f 11 25 26
f 11 26 24
f 12 27 25
f 13 28 29
f 14 30 15
f 15 31 32
f 15 32 33
f 15 33 34
f 15 34 16
f 15 30 35
f 15 35 36
f 15 36 37
f 15 37 31
f 16 34 38
f 16 38 17
f 17 38 23
f 17 22 18
f 19 39 40
f 19 40 41
f 19 41 20
f 19 23 42
f 19 42 39
f 20 41 43
f 20 43 21
f 23 38 42
f 24 26 44
f 25 45 26
f 25 27 49
f 25 49 46
f 25 46 65
f 25 65 45
f 26 45 47
f 26 47 48
f 26 48 44
f 28 50 51
f 28 51 29
f 29 51 52
f 31 37 53
f 31 53 54
f 31 54 55
f 31 55 56
f 31 56 32
f 32 56 57
f 32 57 58
f 32 58 33
f 33 58 59
f 33 59 34
f 34 59 38
f 38 59 60
f 38 60 42
f 39 42 40
f 40 61 62
f 40 62 63
f 40 63 64
f 40 64 43
f 40 43 41
f 40 42 60
f 40 60 61
f 45 65 66
f 45 66 67
f 45 67 47
f 46 49 72
f 46 72 68
f 46 68 89
f 46 89 65
f 47 69 48
f 47 67 69
f 48 69 70
f 48 70 71
f 50 73 51
f 51 73 74
f 51 74 89
f 51 89 75
f 51 75 76
f 51 76 52
f 53 77 54
f 54 77 78
f 54 78 70
f 54 70 79
f 54 79 55
f 55 79 80
f 55 80 81
f 55 81 82
f 55 82 56
f 56 82 83
f 56 83 84
f 56 84 57
f 57 84 58
f 58 85 59
f 58 84 83
f 58 83 85
f 59 85 86
f 59 86 60
f 60 86 61
f 61 87 62
f 61 86 87
f 62 87 63
f 63 87 88
f 63 88 64
f 65 89 90
f 65 90 66
f 66 90 67
f 67 91 69
f 67 90 92
f 67 92 93
f 67 93 91
f 68 72 75
f 68 75 89
f 69 91 79
f 69 79 70
f 70 78 94
f 70 94 71
f 72 95 75
f 73 96 97
f 73 97 98
f 73 98 99
f 73 99 100
f 73 100 74
f 74 100 89
f 75 95 101
f 75 101 76
f 77 102 78
f 78 102 94
f 79 103 104
f 79 104 80
f 79 91 93
f 79 93 105
f 79 105 106
f 79 106 107
f 79 107 108
f 79 108 103
f 80 104 81
f 81 109 110
f 81 110 83
f 81 83 82
f 81 104 109
f 83 87 86
f 83 86 85
f 89 100 90
f 90 100 92
f 92 100 93
f 93 100 99
f 93 99 111
f 93 111 96
f 96 111 97
f 97 111 99
f 97 99 98
f 103 108 109
f 103 109 104
f 105 112 106
f 106 112 107
f 107 112 113
f 107 113 108
f 108 113 109
f 109 113 114
f 112 114 113

