# https://github.com/mikedh/trimesh
v 0.03380609 -0.04413056 -0.04180628
v 0.03380609 -0.03388715 -0.04180628
v 0.03414288 -0.04399181 -0.04180628
v 0.03380609 -0.04413056 0.05314664
v 0.04155467 -0.02783966 -0.04180628
v 0.03380609 -0.03388715 0.05209118
v 0.03733182 -0.04267131 -0.04180628
v 0.03414288 -0.04399181 0.05314664
v 0.03520561 -0.04355164 0.05421160
v 0.03380609 -0.04412418 0.05373617
v 0.04155467 -0.03980546 -0.04180628
v 0.04155467 -0.02783966 0.05319418
v 0.03380609 -0.03388874 0.05314664
v 0.03803955 -0.04235714 -0.04180628
v 0.03733182 -0.04267131 0.05421160
v 0.03574494 -0.04332837 0.05421160
v 0.03574190 -0.04332678 0.05474408
v 0.03380609 -0.04411780 0.05421160
v 0.04108740 -0.04016429 -0.04180628
v 0.04155467 -0.03980546 0.05421160
v 0.04155467 -0.02784126 0.05424013
v 0.03380609 -0.03390309 0.05421160
v 0.03857053 -0.04204296 -0.04180628
v 0.03803955 -0.04235714 0.05421160
v 0.03798038 -0.04232524 0.05482966
v 0.03520561 -0.04343841 0.05486770
v 0.03380609 -0.04393440 0.05464900
v 0.04029775 -0.04077031 -0.04180628
v 0.04108740 -0.04016429 0.05421160
v 0.04155467 -0.03980227 0.05427816
v 0.04107526 -0.04015472 0.05477261
v 0.03679098 -0.03162731 0.05475359
v 0.04101003 -0.02841220 0.05478212
v 0.04155467 -0.02807091 0.05488671
v 0.03380609 -0.03433688 0.05504836
v 0.03445009 -0.03358892 0.05490573
v 0.03562054 -0.03260812 0.05484868
v 0.03933136 -0.04151189 -0.04180628
v 0.03857053 -0.04204296 0.05421160
v 0.03919634 -0.04140664 0.05492474
v 0.03835814 -0.04174952 0.05501983
v 0.03733182 -0.04246718 0.05495327
v 0.03933136 -0.04151189 0.05421160
v 0.03414288 -0.04364414 0.05501033
v 0.03380609 -0.04373186 0.05501983
v 0.04155467 -0.03952637 0.05493425
v 0.04155467 -0.02810918 0.05491524
v 0.03380609 -0.03457770 0.05513393
v 0.04149095 -0.03955986 0.05494376
v 0.03951265 -0.04073044 0.05508639
v 0.03733182 -0.04173038 0.05524804
v 0.03414288 -0.04279411 0.05530509
v 0.03380609 -0.04315613 0.05521951
v 0.04155467 -0.03950085 0.05494376
v 0.03947397 -0.03002932 0.05503885
v 0.04155467 -0.02897835 0.05521000
v 0.03380609 -0.03535437 0.05531460
v 0.04052001 -0.03004049 0.05527657
v 0.04155467 -0.03884698 0.05517197
v 0.04052001 -0.03960451 0.05520050
v 0.04155467 -0.03856948 0.05526706
v 0.03839379 -0.04066824 0.05531460
v 0.03626834 -0.04173038 0.05532411
v 0.03380609 -0.04279411 0.05531460
v 0.04155467 -0.03006760 0.05533362
v 0.03380609 -0.03569087 0.05533362
v 0.03414288 -0.03535437 0.05533362
v 0.03945652 -0.03110263 0.05531460
v 0.04155467 -0.03750735 0.05533362
v 0.04052001 -0.03854237 0.05533362
v 0.03945652 -0.03960451 0.05533362
v 0.03520561 -0.04173038 0.05533362
v 0.03733182 -0.04066824 0.05533362
v 0.03380609 -0.04206688 0.05533362
v 0.03839379 -0.03216636 0.05533362
f 1 2 5
f 1 5 11
f 1 11 19
f 1 19 28
f 1 28 38
f 1 38 23
f 1 23 14
f 1 14 7
f 1 7 3
f 1 3 8
f 1 8 4
f 1 4 10
f 1 10 18
f 1 18 27
f 1 27 45
f 1 45 53
f 1 53 64
f 1 64 74
f 1 74 66
f 1 66 57
f 1 57 48
f 1 48 35
f 1 35 22
f 1 22 13
f 1 13 6
f 1 6 2
f 2 6 12
f 2 12 5
f 3 7 15
f 3 15 8
f 4 8 9
f 4 9 10
f 5 12 21
f 5 21 34
f 5 34 47
f 5 47 56
f 5 56 65
f 5 65 69
f 5 69 61
f 5 61 59
f 5 59 54
f 5 54 46
f 5 46 30
f 5 30 20
f 5 20 11
f 6 13 12
f 7 14 24
f 7 24 15
f 8 15 16
f 8 16 9
f 9 16 17
f 9 17 18
f 9 18 10
f 11 20 29
f 11 29 19
f 12 13 21
f 13 22 21
f 14 23 39
f 14 39 24
f 15 24 25
f 15 25 17
f 15 17 16
f 17 25 26
f 17 26 18
f 18 26 27
f 19 29 28
f 20 30 31
f 20 31 29
f 21 22 32
f 21 32 33
f 21 33 34
f 22 35 36
f 22 36 37
f 22 37 32
f 23 38 43
f 23 43 39
f 24 39 25
f 25 31 40
f 25 40 41
f 25 41 42
f 25 42 26
f 25 39 43
f 25 43 31
f 26 42 44
f 26 44 45
f 26 45 27
f 28 29 43
f 28 43 38
f 29 31 43
f 30 46 31
f 31 46 40
f 32 37 34
f 32 34 33
f 34 37 36
f 34 36 47
f 35 48 47
f 35 47 36
f 40 46 49
f 40 49 50
f 40 50 41
f 41 50 51
f 41 51 42
f 42 51 44
f 44 51 52
f 44 52 53
f 44 53 45
f 46 54 49
f 47 48 55
f 47 55 56
f 48 57 58
f 48 58 56
f 48 56 55
f 49 54 59
f 49 59 60
f 49 60 50
f 50 60 51
f 51 61 62
f 51 62 63
f 51 63 52
f 51 60 61
f 52 64 53
f 52 63 64
f 56 58 65
f 57 66 67
f 57 67 68
f 57 68 58
f 58 68 65
f 59 61 60
f 61 69 70
f 61 70 71
f 61 71 62
f 62 71 63
f 63 72 64
f 63 71 73
f 63 73 72
f 64 72 74
f 65 68 75
f 65 75 67
f 65 67 66
f 65 66 74
f 65 74 72
f 65 72 73
f 65 73 71
f 65 71 70
f 65 70 69
f 67 75 68

