# https://github.com/mikedh/trimesh
v 0.01501001 0.04694971 -0.04180628
v 0.01537037 0.04690363 -0.04180628
v 0.01501001 0.04694971 -0.04994993
v 0.01447230 0.04694971 -0.04180628
v 0.01607411 0.04681291 -0.04180628
v 0.01607411 0.04681291 -0.04994993
v 0.01501001 0.04694539 -0.05026025
v 0.01447230 0.04694971 -0.04994993
v 0.01447230 0.03750149 -0.04180628
v 0.01819853 0.04653354 -0.04180628
v 0.01744574 0.04663002 -0.05026025
v 0.01819853 0.04653354 -0.04994993
v 0.02163421 0.04608136 -0.05026025
v 0.01850984 0.04649177 -0.05026025
v 0.01447230 0.04694539 -0.05026025
v 0.01447230 0.03705795 -0.05026025
v 0.03374493 0.03230144 -0.04180628
v 0.01962110 0.04634633 -0.04180628
v 0.02457557 0.04569398 -0.04994993
v 0.02223418 0.04600215 -0.05026025
v 0.02457557 0.04569398 -0.04180628
v 0.03347701 0.03229424 -0.05026025
v 0.03374493 0.03224096 -0.05026025
v 0.03374493 0.04254025 -0.04180628
v 0.02493405 0.04564646 -0.04180628
v 0.02563778 0.04555286 -0.04994993
v 0.02563778 0.04554998 -0.05026025
v 0.03374493 0.04253593 -0.05026025
v 0.03374493 0.04254025 -0.04994993
v 0.03226387 0.04315372 -0.05026025
v 0.02764334 0.04506755 -0.04180628
v 0.02563778 0.04555286 -0.04180628
v 0.02599626 0.04548805 -0.04180628
v 0.02594720 0.04549669 -0.05026025
v 0.03324306 0.04274762 -0.05026025
v 0.02764334 0.04506755 -0.05026025
v 0.02701885 0.04526196 -0.04180628
v 0.02669999 0.04535989 -0.04180628
v 0.02669999 0.04535989 -0.05026025
v 0.02697545 0.04527492 -0.05026025
f 1 2 3
f 1 3 8
f 1 8 4
f 1 4 9
f 1 9 17
f 1 17 24
f 1 24 31
f 1 31 37
f 1 37 38
f 1 38 33
f 1 33 32
f 1 32 25
f 1 25 21
f 1 21 18
f 1 18 10
f 1 10 5
f 1 5 2
f 2 5 6
f 2 6 3
f 3 7 15
f 3 15 8
f 3 6 7
f 4 8 15
f 4 15 16
f 4 16 9
f 5 10 12
f 5 12 6
f 6 11 7
f 6 12 13
f 6 13 14
f 6 14 11
f 7 11 14
f 7 14 13
f 7 13 20
f 7 20 27
f 7 27 34
f 7 34 39
f 7 39 40
f 7 40 36
f 7 36 30
f 7 30 35
f 7 35 28
f 7 28 23
f 7 23 22
f 7 22 16
f 7 16 15
f 9 16 17
f 10 18 12
f 12 18 13
f 13 19 20
f 13 18 21
f 13 21 19
f 16 22 17
f 17 22 23
f 17 23 28
f 17 28 29
f 17 29 24
f 19 21 25
f 19 25 26
f 19 26 27
f 19 27 20
f 24 29 30
f 24 30 31
f 25 32 26
f 26 32 33
f 26 33 34
f 26 34 27
f 28 35 29
f 29 35 30
f 30 36 31
f 31 36 37
f 33 38 39
f 33 39 34
f 36 40 37
f 37 40 39
f 37 39 38

