# https://github.com/mikedh/trimesh
v 0.05278770 -0.00080484 -0.04180628
v 0.04755047 0.01852750 -0.04180628
v 0.06223715 -0.00080484 -0.04180628
v 0.05278770 -0.00080484 0.05314664
v 0.05779779 0.01852750 -0.04180628
v 0.04755047 0.01852750 0.05209118
v 0.06223571 -0.00027687 -0.04180628
v 0.06223715 -0.00080484 0.05314664
v 0.05280064 -0.00080484 0.05421160
v 0.04755191 0.01852750 0.05314664
v 0.05797030 0.01811118 -0.04180628
v 0.05779779 0.01852750 0.05314664
v 0.06218971 0.00008267 -0.04180628
v 0.06223571 -0.00027687 0.05314664
v 0.06221990 -0.00027687 0.05421160
v 0.06221990 -0.00080484 0.05421160
v 0.05319742 -0.00080484 0.05499131
v 0.05272732 0.00012431 0.05477261
v 0.04756484 0.01852750 0.05421160
v 0.05986365 0.01354114 -0.04180628
v 0.05797030 0.01811118 0.05314664
v 0.05779204 0.01852750 0.05362206
v 0.05819026 0.01757943 0.05421160
v 0.06209914 0.00078663 -0.04180628
v 0.06209914 0.00078663 0.05314664
v 0.06167935 0.00397526 0.05421160
v 0.06127394 0.00684218 0.05479163
v 0.06132282 0.00610227 0.05485819
v 0.06139327 0.00503876 0.05493425
v 0.06146227 0.00397526 0.05499131
v 0.06152697 0.00291364 0.05502934
v 0.06172392 -0.00027687 0.05503885
v 0.06172392 -0.00080484 0.05503885
v 0.04800475 0.01852750 0.05504836
v 0.05433889 -0.00080484 0.05533362
v 0.06013392 0.01288827 -0.04180628
v 0.05986365 0.01354114 0.05314664
v 0.05778485 0.01852750 0.05421160
v 0.05914771 0.01520074 0.05478212
v 0.06035387 0.01235652 0.05421160
v 0.06195969 0.00185014 -0.04180628
v 0.06195969 0.00185014 0.05314664
v 0.06128832 0.00694626 0.05421160
v 0.06041569 0.01141412 0.05499131
v 0.06082685 0.01035062 0.05421160
v 0.06064715 0.01141412 0.05421160
v 0.06049907 0.01035062 0.05503885
v 0.06158160 0.00185014 0.05503885
v 0.06071471 0.00397526 0.05528607
v 0.06071471 0.00291364 0.05531460
v 0.06071471 0.00185014 0.05533362
v 0.06071471 -0.00080484 0.05533362
v 0.04902402 0.01779138 0.05528607
v 0.04902402 0.01852750 0.05531460
v 0.05008786 0.01672976 0.05533362
v 0.06035387 0.01235652 -0.04180628
v 0.06013392 0.01288827 0.05314664
v 0.05740101 0.01852750 0.05501983
v 0.05814570 0.01747346 0.05485819
v 0.06029637 0.01221838 0.05487720
v 0.06107268 0.00858694 -0.04180628
v 0.06083979 0.01035062 0.05314664
v 0.05829377 0.01672976 0.05497229
v 0.05948124 0.01354114 0.05501983
v 0.05858992 0.01460275 0.05520050
v 0.05965231 0.01141412 0.05528607
v 0.06064715 0.01141412 -0.04180628
v 0.05965231 0.01035062 0.05532411
v 0.05965231 0.00928900 0.05533362
v 0.05008786 0.01852750 0.05533362
v 0.05646368 0.01852750 0.05531460
v 0.05752608 0.01672976 0.05526706
v 0.05927135 0.01460275 0.05490573
v 0.06083979 0.01035062 -0.04180628
v 0.05858992 0.01354114 0.05531460
v 0.05752608 0.01566626 0.05533362
v 0.05858992 0.01247763 0.05533362
v 0.05539985 0.01852750 0.05533362
v 0.05646368 0.01779138 0.05533362
f 1 2 5
f 1 5 11
f 1 11 20
f 1 20 36
f 1 36 56
f 1 56 67
f 1 67 74
f 1 74 61
f 1 61 41
f 1 41 24
f 1 24 13
f 1 13 7
f 1 7 3
f 1 3 8
f 1 8 16
f 1 16 33
f 1 33 52
f 1 52 35
f 1 35 17
f 1 17 9
f 1 9 4
f 1 4 6
f 1 6 2
f 2 6 10
f 2 10 19
f 2 19 34
f 2 34 54
f 2 54 70
f 2 70 78
f 2 78 71
f 2 71 58
f 2 58 38
f 2 38 22
f 2 22 12
f 2 12 5
f 3 7 14
f 3 14 8
f 4 9 19
f 4 19 10
f 4 10 6
f 5 12 21
f 5 21 11
f 7 13 14
f 8 14 15
f 8 15 16
f 9 17 18
f 9 18 19
f 11 21 37
f 11 37 20
f 12 22 23
f 12 23 21
f 13 24 25
f 13 25 14
f 14 25 26
f 14 26 15
f 15 26 27
f 15 27 28
f 15 28 29
f 15 29 30
f 15 30 31
f 15 31 32
f 15 32 33
f 15 33 16
f 17 34 18
f 17 35 34
f 18 34 19
f 20 37 57
f 20 57 36
f 21 23 37
f 22 38 23
f 23 38 39
f 23 39 40
f 23 40 37
f 24 41 42
f 24 42 25
f 25 42 26
f 26 43 27
f 26 42 43
f 27 44 28
f 27 43 45
f 27 45 46
f 27 46 44
f 28 44 29
f 29 44 47
f 29 47 30
f 30 47 31
f 31 48 32
f 31 47 49
f 31 49 48
f 32 48 50
f 32 50 51
f 32 51 52
f 32 52 33
f 34 35 53
f 34 53 54
f 35 52 51
f 35 51 69
f 35 69 77
f 35 77 76
f 35 76 79
f 35 79 78
f 35 78 70
f 35 70 55
f 35 55 54
f 35 54 53
f 36 57 40
f 36 40 56
f 37 40 57
f 38 58 59
f 38 59 39
f 39 59 60
f 39 60 40
f 40 60 46
f 40 46 67
f 40 67 56
f 41 61 42
f 42 61 43
f 43 62 45
f 43 61 62
f 44 63 64
f 44 64 65
f 44 65 66
f 44 66 47
f 44 46 60
f 44 60 63
f 45 62 46
f 46 62 74
f 46 74 67
f 47 66 49
f 48 49 50
f 49 66 68
f 49 68 50
f 50 68 51
f 51 68 69
f 54 55 70
f 58 63 59
f 58 71 72
f 58 72 63
f 59 73 60
f 59 63 73
f 60 73 63
f 61 74 62
f 63 72 65
f 63 65 64
f 65 72 66
f 66 72 75
f 66 75 68
f 68 75 76
f 68 76 77
f 68 77 69
f 71 78 79
f 71 79 76
f 71 76 75
f 71 75 72

