# https://github.com/mikedh/trimesh
v -0.06958105 -0.00289251 -0.03837687
v -0.06958105 -0.00289251 -0.03200452
v -0.06958105 -0.00176422 -0.03837687
v -0.06938758 -0.00299965 -0.03837687
v -0.06958105 -0.00176422 -0.03200452
v -0.06919077 -0.00310802 -0.03200452
v -0.06301006 -0.00094553 -0.03299078
v -0.06300224 -0.00094553 -0.03395272
v -0.06282219 -0.00094553 -0.03481422
v -0.06273832 -0.00094553 -0.03507623
v -0.06247553 -0.00094553 -0.03516106
v -0.06161446 -0.00094553 -0.03534010
v -0.06065274 -0.00094553 -0.03534821
v -0.05815675 -0.00094553 -0.03534821
v -0.05815675 -0.00238637 -0.03837687
v -0.06918070 -0.00311343 -0.03837687
v -0.06253815 -0.00094553 -0.03200452
v -0.06301006 -0.00094553 -0.03200826
v -0.06918070 -0.00311343 -0.03200452
v -0.05815675 -0.00094553 -0.03382234
v -0.05815675 -0.00338436 -0.03837687
v -0.06916505 -0.00311738 -0.03200452
v -0.06838337 -0.00331195 -0.03837687
v -0.06148362 -0.00094553 -0.03200452
v -0.06182581 -0.00133271 -0.03200452
v -0.06236929 -0.00181594 -0.03200452
v -0.06285239 -0.00218490 -0.03200452
v -0.05815675 -0.00133271 -0.03416420
v -0.05815675 -0.00330530 -0.03782229
v -0.06644988 -0.00344298 -0.03200452
v -0.06644988 -0.00346170 -0.03837687
v -0.06838337 -0.00331195 -0.03200452
v -0.06741607 -0.00344495 -0.03837687
v -0.06469978 -0.00310851 -0.03200452
v -0.05815675 -0.00218490 -0.03519101
v -0.05815675 -0.00181594 -0.03470817
v -0.05815675 -0.00310876 -0.03703877
v -0.06548369 -0.00330505 -0.03200452
v -0.06643087 -0.00344027 -0.03200452
v -0.06739706 -0.00344495 -0.03200452
v -0.06741607 -0.00344495 -0.03200452
f 1 2 5
f 1 5 3
f 1 3 15
f 1 15 21
f 1 21 31
f 1 31 33
f 1 33 23
f 1 23 16
f 1 16 4
f 1 4 2
f 2 4 6
f 2 6 19
f 2 19 22
f 2 22 32
f 2 32 41
f 2 41 40
f 2 40 30
f 2 30 39
f 2 39 38
f 2 38 34
f 2 34 27
f 2 27 26
f 2 26 25
f 2 25 24
f 2 24 17
f 2 17 5
f 3 5 18
f 3 18 7
f 3 7 8
f 3 8 9
f 3 9 10
f 3 10 11
f 3 11 12
f 3 12 13
f 3 13 14
f 3 14 15
f 4 16 6
f 5 17 18
f 6 16 19
f 7 18 17
f 7 17 24
f 7 24 20
f 7 20 14
f 7 14 13
f 7 13 12
f 7 12 11
f 7 11 10
f 7 10 9
f 7 9 8
f 14 20 28
f 14 28 36
f 14 36 35
f 14 35 37
f 14 37 29
f 14 29 21
f 14 21 15
f 16 22 19
f 16 23 22
f 20 24 25
f 20 25 26
f 20 26 27
f 20 27 28
f 21 29 30
f 21 30 31
f 22 23 32
f 23 33 41
f 23 41 32
f 27 34 35
f 27 35 36
f 27 36 28
f 29 37 38
f 29 38 39
f 29 39 30
f 30 40 31
f 31 40 41
f 31 41 33
f 34 38 37
f 34 37 35

