# https://github.com/mikedh/trimesh
v -0.03068327 0.11615135 -0.00066062
v -0.02931612 0.11615135 -0.00109524
v -0.03068327 0.11615135 0.00020862
v -0.03051730 0.11972431 -0.00064371
v -0.03058536 0.11814303 -0.00066062
v -0.02931612 0.11972431 -0.00107833
v -0.02931612 0.11814303 -0.00109524
v -0.02615317 0.11615135 -0.00109524
v -0.01848519 0.14344044 -0.00382341
v -0.01848519 0.14185916 -0.00378255
v -0.02968745 0.11615135 0.00053124
v -0.02931612 0.11814303 0.00064324
v -0.02931612 0.11972431 0.00062633
v -0.03058536 0.11814303 0.00020862
v -0.03051730 0.11972431 0.00019171
v -0.03043491 0.12130558 -0.00059793
v -0.02756211 0.14698020 -0.00073458
v -0.02773404 0.14185916 -0.00092125
v -0.02615317 0.14698020 -0.00145801
v -0.02604093 0.14192555 -0.00162707
v -0.02543914 0.14144272 -0.00182994
v -0.02477288 0.11615135 -0.00066062
v -0.01848519 0.14064604 -0.00354376
v -0.01848519 0.14502171 -0.00373043
v -0.02931612 0.11615135 0.00064324
v -0.01848519 0.14344044 0.00337141
v -0.02543914 0.14144272 0.00137794
v -0.02604093 0.14192555 0.00117507
v -0.02615317 0.14698020 0.00100601
v -0.03043491 0.12130558 0.00014593
v -0.02773404 0.14185916 0.00046925
v -0.02756211 0.14698020 0.00028258
v -0.03035014 0.12288686 -0.00053101
v -0.02875254 0.13869661 -0.00051692
v -0.02882896 0.13711533 -0.00058173
v -0.02867732 0.14027788 -0.00043873
v -0.02860568 0.14185916 -0.00034786
v -0.02855672 0.14300890 -0.00027531
v -0.01848519 0.14698020 -0.00359377
v -0.01848519 0.14660299 -0.00362054
v -0.01848519 0.13544050 -0.00232443
v -0.01848519 0.13452916 -0.00190460
v -0.01848519 0.13398295 -0.00160030
v -0.01848519 0.13391656 -0.00156296
v -0.01848519 0.13263706 -0.00079868
v -0.01848519 0.13253144 -0.00071275
v -0.02477288 0.11615135 0.00020862
v -0.02615317 0.11615135 0.00064324
v -0.01848519 0.14185916 0.00333055
v -0.01848519 0.14313565 0.00336929
v -0.01848519 0.14471692 0.00329745
v -0.01848519 0.14502171 0.00327843
v -0.01848519 0.14698020 0.00314459
v -0.02723853 0.14698020 0.00045164
v -0.02882896 0.13711533 0.00012973
v -0.02875254 0.13869661 0.00006492
v -0.03035014 0.12288686 0.00007901
v -0.02855672 0.14300890 -0.00017669
v -0.02860568 0.14185916 -0.00010414
v -0.02867732 0.14027788 -0.00001327
v -0.03026417 0.12446814 -0.00044366
v -0.03017820 0.12604941 -0.00033377
v -0.03012566 0.12701508 -0.00025699
v -0.01848519 0.13253144 0.00026075
v -0.02511079 0.11615135 0.00032062
v -0.01848519 0.13398295 0.00114830
v -0.01848519 0.13529264 0.00180128
v -0.01848519 0.13544050 0.00187243
v -0.01848519 0.14064604 0.00309176
v -0.01848519 0.14164188 0.00330449
v -0.03026417 0.12446814 -0.00000834
v -0.03012566 0.12701508 -0.00019501
v -0.03017820 0.12604941 -0.00011823
f 1 2 8
f 1 8 22
f 1 22 47
f 1 47 65
f 1 65 48
f 1 48 25
f 1 25 11
f 1 11 3
f 1 3 15
f 1 15 4
f 1 4 5
f 1 5 6
f 1 6 7
f 1 7 2
f 2 7 9
f 2 9 10
f 2 10 8
f 3 11 12
f 3 12 13
f 3 13 14
f 3 14 15
f 4 6 5
f 4 15 30
f 4 30 16
f 4 16 17
f 4 17 18
f 4 18 19
f 4 19 6
f 6 19 20
f 6 20 21
f 6 21 9
f 6 9 7
f 8 10 23
f 8 23 22
f 9 21 19
f 9 19 24
f 9 24 40
f 9 40 39
f 9 39 53
f 9 53 52
f 9 52 51
f 9 51 26
f 9 26 50
f 9 50 49
f 9 49 70
f 9 70 69
f 9 69 68
f 9 68 67
f 9 67 66
f 9 66 64
f 9 64 46
f 9 46 45
f 9 45 44
f 9 44 43
f 9 43 42
f 9 42 41
f 9 41 23
f 9 23 10
f 11 25 12
f 12 25 26
f 12 26 13
f 13 15 14
f 13 26 27
f 13 27 28
f 13 28 29
f 13 29 15
f 15 29 31
f 15 31 32
f 15 32 30
f 16 30 57
f 16 57 33
f 16 33 34
f 16 34 35
f 16 35 17
f 17 32 54
f 17 54 29
f 17 29 53
f 17 53 39
f 17 39 19
f 17 19 18
f 17 35 34
f 17 34 36
f 17 36 37
f 17 37 38
f 17 38 58
f 17 58 32
f 19 39 40
f 19 40 24
f 19 21 20
f 22 41 42
f 22 42 43
f 22 43 44
f 22 44 45
f 22 45 46
f 22 46 64
f 22 64 47
f 22 23 41
f 25 48 49
f 25 49 50
f 25 50 26
f 26 51 29
f 26 29 27
f 27 29 28
f 29 51 52
f 29 52 53
f 29 54 31
f 30 55 56
f 30 56 57
f 30 32 55
f 31 54 32
f 32 58 59
f 32 59 60
f 32 60 56
f 32 56 55
f 33 57 71
f 33 71 73
f 33 73 62
f 33 62 61
f 33 61 38
f 33 38 37
f 33 37 36
f 33 36 34
f 38 61 62
f 38 62 63
f 38 63 72
f 38 72 58
f 47 64 66
f 47 66 67
f 47 67 68
f 47 68 69
f 47 69 70
f 47 70 65
f 48 65 70
f 48 70 49
f 56 60 57
f 57 60 59
f 57 59 58
f 57 58 71
f 58 72 73
f 58 73 71
f 62 73 72
f 62 72 63

