# https://github.com/mikedh/trimesh
v -0.02756250 0.14698020 -0.00073519
v -0.02615201 0.14818895 -0.00143071
v -0.02615201 0.14698020 -0.00145894
v -0.02756250 0.14698020 -0.00022510
v -0.02734598 0.15293465 -0.00065306
v -0.02739753 0.15134817 -0.00068258
v -0.02615201 0.15134817 -0.00135435
v -0.02615201 0.14976856 -0.00139349
v -0.02299078 0.19245930 -0.00150193
v -0.00839303 0.14698020 -0.00667788
v -0.02252474 0.14698020 -0.00022510
v -0.02536222 0.19326971 -0.00022446
v -0.02734598 0.15293465 -0.00022510
v -0.02695624 0.16340130 -0.00024691
v -0.02728618 0.15451426 -0.00061328
v -0.02536222 0.19326971 -0.00022767
v -0.02538078 0.19245930 -0.00025526
v -0.02541377 0.19087282 -0.00030723
v -0.02544677 0.18929321 -0.00035535
v -0.02471059 0.19389469 -0.00065370
v -0.02457243 0.19245930 -0.00079871
v -0.02457243 0.19087282 -0.00085902
v -0.02457243 0.18929321 -0.00091548
v -0.02457243 0.18771359 -0.00096810
v -0.02457243 0.18613398 -0.00101686
v -0.02457243 0.18296789 -0.00111439
v -0.02457243 0.18139514 -0.00116251
v -0.02299078 0.19403891 -0.00144546
v -0.00697223 0.15293465 -0.00672921
v -0.00718050 0.14976856 -0.00677541
v -0.00718050 0.14818895 -0.00677926
v -0.00718050 0.14698020 -0.00677862
v -0.00649588 0.14698020 -0.00483258
v -0.00649588 0.20157984 -0.00022510
v -0.00649588 0.21106439 -0.00022510
v -0.00949626 0.21545983 -0.00022510
v -0.01096449 0.21714246 -0.00022510
v -0.01192338 0.21712186 -0.00022510
v -0.01259357 0.21702570 -0.00022510
v -0.01274410 0.21699824 -0.00022510
v -0.01594245 0.21232121 -0.00022510
v -0.01904594 0.20749309 -0.00022510
v -0.02071626 0.20448496 -0.00022510
v -0.02235152 0.20143562 -0.00022510
v -0.02395173 0.19832447 -0.00022510
v -0.02695624 0.16340130 -0.00022510
v -0.02710677 0.15925997 -0.00045352
v -0.02716657 0.15767349 -0.00051511
v -0.02722638 0.15609388 -0.00056773
v -0.02395173 0.19832447 -0.00042336
v -0.02421568 0.19719814 -0.00060815
v -0.02446107 0.19561853 -0.00072364
v -0.02299078 0.19561853 -0.00134729
v -0.01590121 0.18384011 -0.00339535
v -0.00718050 0.17191060 -0.00567888
v -0.00677633 0.15451426 -0.00667211
v -0.00649588 0.15609388 -0.00662655
v -0.00649588 0.15451426 -0.00669649
v -0.00649588 0.15293465 -0.00674397
v -0.00965505 0.17614122 -0.00499170
v -0.00649588 0.14976856 -0.00674974
v -0.00649588 0.14698020 -0.00669200
v -0.00649588 0.14818895 -0.00672600
v -0.00649588 0.21106439 -0.00051832
v -0.00949626 0.21545983 -0.00029568
v -0.01096449 0.21714246 -0.00040475
v -0.01192338 0.21712186 -0.00038871
v -0.01274410 0.21699824 -0.00026488
v -0.01594245 0.21232121 -0.00031172
v -0.01904594 0.20749309 -0.00023986
v -0.02071626 0.20448496 -0.00035086
v -0.02235152 0.20143562 -0.00040604
v -0.02262166 0.20036423 -0.00059339
v -0.02299078 0.19719814 -0.00116828
v -0.02140913 0.19878462 -0.00134280
v -0.02140913 0.19719814 -0.00147049
v -0.02140913 0.19561853 -0.00159753
v -0.02138233 0.19414193 -0.00171943
v -0.01511348 0.18444449 -0.00347619
v -0.00718050 0.17349022 -0.00559226
v -0.00649588 0.17349022 -0.00567824
v -0.00649588 0.21069352 -0.00066589
v -0.00713720 0.21142838 -0.00073904
v -0.00763623 0.21267834 -0.00051511
v -0.01039947 0.21605733 -0.00057799
v -0.01034173 0.21459448 -0.00107781
v -0.01192338 0.21617409 -0.00086736
v -0.01303074 0.21617409 -0.00047982
v -0.01453609 0.21415493 -0.00046250
v -0.01766845 0.20940236 -0.00044838
v -0.01928515 0.20668955 -0.00045159
v -0.02097609 0.20352345 -0.00054719
v -0.02147718 0.20195758 -0.00072428
v -0.02140913 0.20036423 -0.00114711
v -0.01995740 0.19414193 -0.00194336
v -0.02056985 0.19473257 -0.00180028
v -0.01982749 0.20194384 -0.00132035
v -0.01982749 0.20036423 -0.00145316
v -0.01982749 0.19878462 -0.00158469
v -0.01433194 0.18699247 -0.00339471
v -0.01982749 0.19245930 -0.00209799
v -0.01350503 0.18296789 -0.00384705
v -0.00718050 0.17506983 -0.00546458
v -0.00649588 0.17506983 -0.00556082
v -0.00884051 0.17665631 -0.00508089
v -0.00649588 0.20916885 -0.00116379
v -0.00718050 0.20984877 -0.00124592
v -0.00864255 0.21312475 -0.00082694
v -0.00876009 0.21143525 -0.00137424
v -0.01034173 0.21301486 -0.00141595
v -0.01192338 0.21459448 -0.00127415
v -0.01350503 0.21301486 -0.00120550
v -0.01358133 0.21464255 -0.00075636
v -0.01507224 0.21291184 -0.00061520
v -0.01622290 0.21143525 -0.00051704
v -0.01674668 0.20989685 -0.00075059
v -0.01986254 0.20505499 -0.00067552
v -0.01982749 0.20352345 -0.00108680
v -0.01824584 0.20510993 -0.00128057
v -0.01455465 0.18613398 -0.00342935
v -0.01824584 0.20194384 -0.00155454
v -0.01760452 0.19982854 -0.00182979
v -0.01789941 0.19878462 -0.00187407
v -0.01869126 0.19878462 -0.00175601
v -0.01824584 0.20352345 -0.00141980
v -0.01895315 0.19784372 -0.00179515
v -0.01298743 0.18898415 -0.00343000
v -0.00807134 0.17919742 -0.00498464
v -0.00718050 0.17664944 -0.00533048
v -0.00649588 0.17596952 -0.00548447
v -0.00649588 0.20743128 -0.00151668
v -0.00733104 0.20811807 -0.00158790
v -0.00795792 0.20749309 -0.00180990
v -0.00837241 0.20855074 -0.00173227
v -0.00884464 0.20978696 -0.00163731
v -0.00942615 0.20921693 -0.00183108
v -0.00787338 0.19653882 -0.00340626
v -0.01192338 0.21301486 -0.00143905
v -0.01350503 0.21143525 -0.00138002
v -0.00811877 0.19653882 -0.00340626
v -0.01508667 0.20984877 -0.00131072
v -0.01666626 0.20826916 -0.00119331
v -0.01508667 0.21143525 -0.00104188
v -0.01824584 0.20668955 -0.00096874
v -0.01666626 0.20668955 -0.00137168
v -0.01673018 0.20035736 -0.00191192
v -0.01666626 0.20510993 -0.00151027
v -0.01654047 0.20342043 -0.00167516
v -0.01698176 0.20194384 -0.00173932
v -0.01508667 0.19878462 -0.00228470
v -0.01592802 0.20281606 -0.00181504
v -0.01131093 0.19195108 -0.00341396
v -0.00720319 0.17976059 -0.00505651
v -0.00718050 0.17822905 -0.00519381
v -0.00649588 0.17754913 -0.00534844
v -0.00649588 0.17664944 -0.00542608
v -0.00649588 0.20566623 -0.00178616
v -0.00876009 0.20668955 -0.00207938
v -0.00649588 0.19489053 -0.00338829
v -0.00649588 0.19019290 -0.00399783
v -0.00649588 0.18929321 -0.00410049
v -0.00649588 0.18084571 -0.00505073
v -0.01137898 0.20940923 -0.00183942
v -0.01192338 0.21143525 -0.00158534
v -0.01243272 0.20866063 -0.00177141
v -0.01279772 0.20760297 -0.00181889
v -0.01339780 0.20818675 -0.00168671
v -0.00869204 0.19548117 -0.00344347
v -0.00669178 0.18106549 -0.00501095
v -0.01389477 0.20668955 -0.00175408
v -0.01420409 0.20575551 -0.00179515
v -0.01508667 0.20668955 -0.00159175
v -0.01559808 0.20387371 -0.00176884
v -0.01350503 0.19878462 -0.00250799
v -0.01350503 0.20036423 -0.00236876
v -0.01040566 0.19247303 -0.00349223
v -0.01191307 0.20990372 -0.00172585
v -0.01034173 0.20352345 -0.00250606
v -0.00876009 0.19403891 -0.00356987
v -0.00957256 0.19485619 -0.00339150
v -0.00984476 0.19403891 -0.00342871
v -0.01350503 0.20194384 -0.00222888
v -0.01454434 0.20470473 -0.00184198
f 1 2 3
f 1 3 10
f 1 10 32
f 1 32 62
f 1 62 33
f 1 33 11
f 1 11 4
f 1 4 13
f 1 13 5
f 1 5 6
f 1 6 7
f 1 7 8
f 1 8 2
f 2 8 9
f 2 9 3
f 3 9 10
f 4 11 12
f 4 12 13
f 5 13 46
f 5 46 14
f 5 14 15
f 5 15 16
f 5 16 17
f 5 17 18
f 5 18 19
f 5 19 20
f 5 20 21
f 5 21 22
f 5 22 6
f 6 22 23
f 6 23 7
f 7 23 24
f 7 24 25
f 7 25 26
f 7 26 27
f 7 27 9
f 7 9 8
f 9 27 26
f 9 26 25
f 9 25 24
f 9 24 23
f 9 23 22
f 9 22 28
f 9 28 10
f 10 29 30
f 10 30 31
f 10 31 32
f 10 28 29
f 11 33 34
f 11 34 12
f 12 34 35
f 12 35 36
f 12 36 37
f 12 37 38
f 12 38 39
f 12 39 40
f 12 40 41
f 12 41 42
f 12 42 43
f 12 43 44
f 12 44 45
f 12 45 50
f 12 50 16
f 12 16 14
f 12 14 46
f 12 46 13
f 14 47 48
f 14 48 49
f 14 49 15
f 14 16 47
f 15 49 16
f 16 50 51
f 16 51 52
f 16 52 20
f 16 20 17
f 16 49 48
f 16 48 47
f 17 20 18
f 18 20 19
f 20 52 21
f 21 52 28
f 21 28 22
f 28 52 53
f 28 53 54
f 28 54 29
f 29 55 56
f 29 56 57
f 29 57 58
f 29 58 59
f 29 59 30
f 29 54 60
f 29 60 55
f 30 59 31
f 31 59 61
f 31 61 32
f 32 61 63
f 32 63 62
f 33 62 63
f 33 63 61
f 33 61 59
f 33 59 58
f 33 58 57
f 33 57 81
f 33 81 104
f 33 104 130
f 33 130 156
f 33 156 155
f 33 155 162
f 33 162 161
f 33 161 160
f 33 160 159
f 33 159 157
f 33 157 131
f 33 131 106
f 33 106 82
f 33 82 64
f 33 64 35
f 33 35 34
f 35 64 65
f 35 65 36
f 36 65 66
f 36 66 37
f 37 66 67
f 37 67 38
f 38 67 39
f 39 67 68
f 39 68 40
f 40 68 69
f 40 69 41
f 41 69 70
f 41 70 42
f 42 70 71
f 42 71 43
f 43 71 72
f 43 72 44
f 44 72 50
f 44 50 45
f 50 72 73
f 50 73 51
f 51 74 52
f 51 73 74
f 52 74 53
f 53 74 75
f 53 75 76
f 53 76 77
f 53 77 78
f 53 78 79
f 53 79 54
f 54 79 60
f 55 80 81
f 55 81 57
f 55 57 56
f 55 60 80
f 60 79 80
f 64 82 83
f 64 83 84
f 64 84 65
f 65 84 66
f 66 85 86
f 66 86 87
f 66 87 67
f 66 84 85
f 67 87 68
f 68 87 88
f 68 88 89
f 68 89 69
f 69 89 90
f 69 90 70
f 70 91 71
f 70 90 91
f 71 91 92
f 71 92 72
f 72 92 73
f 73 92 93
f 73 93 94
f 73 94 74
f 74 94 75
f 75 95 96
f 75 96 76
f 75 94 97
f 75 97 98
f 75 98 99
f 75 99 100
f 75 100 95
f 76 96 77
f 77 96 78
f 78 96 101
f 78 101 102
f 78 102 79
f 79 102 80
f 80 103 104
f 80 104 81
f 80 102 105
f 80 105 103
f 82 106 83
f 83 106 107
f 83 107 86
f 83 86 108
f 83 108 84
f 84 108 85
f 85 108 86
f 86 107 109
f 86 109 110
f 86 110 111
f 86 111 87
f 87 111 112
f 87 112 113
f 87 113 88
f 88 113 89
f 89 114 115
f 89 115 90
f 89 113 114
f 90 115 116
f 90 116 117
f 90 117 91
f 91 117 92
f 92 117 93
f 93 117 118
f 93 118 94
f 94 118 119
f 94 119 97
f 95 100 120
f 95 120 102
f 95 102 96
f 96 102 101
f 97 121 122
f 97 122 123
f 97 123 124
f 97 124 98
f 97 119 125
f 97 125 121
f 98 124 126
f 98 126 99
f 99 126 100
f 100 105 120
f 100 126 103
f 100 103 105
f 102 120 105
f 103 126 124
f 103 124 127
f 103 127 128
f 103 128 129
f 103 129 130
f 103 130 104
f 106 131 107
f 107 131 109
f 109 131 132
f 109 132 133
f 109 133 134
f 109 134 135
f 109 135 136
f 109 136 110
f 110 136 137
f 110 137 111
f 111 138 139
f 111 139 112
f 111 137 140
f 111 140 138
f 112 139 141
f 112 141 142
f 112 142 143
f 112 143 113
f 113 143 114
f 114 143 116
f 114 116 115
f 116 143 144
f 116 144 117
f 117 144 118
f 118 144 142
f 118 142 119
f 119 145 125
f 119 142 141
f 119 141 145
f 121 125 122
f 122 125 146
f 122 146 128
f 122 128 127
f 122 127 123
f 123 127 124
f 125 145 147
f 125 147 148
f 125 148 149
f 125 149 146
f 128 146 149
f 128 149 150
f 128 150 151
f 128 151 152
f 128 152 153
f 128 153 154
f 128 154 129
f 129 154 155
f 129 155 156
f 129 156 130
f 131 157 132
f 132 157 133
f 133 158 134
f 133 157 159
f 133 159 137
f 133 137 158
f 134 136 135
f 134 158 136
f 136 158 137
f 137 159 160
f 137 160 161
f 137 161 162
f 137 162 140
f 138 163 164
f 138 164 139
f 138 140 163
f 139 165 166
f 139 166 167
f 139 167 141
f 139 164 165
f 140 168 163
f 140 162 169
f 140 169 168
f 141 167 170
f 141 170 171
f 141 171 172
f 141 172 145
f 142 144 143
f 145 172 173
f 145 173 147
f 147 173 151
f 147 151 148
f 148 151 150
f 148 150 149
f 151 173 152
f 152 173 174
f 152 174 175
f 152 175 153
f 153 155 154
f 153 175 176
f 153 176 169
f 153 169 155
f 155 169 162
f 163 177 164
f 163 168 178
f 163 178 179
f 163 179 180
f 163 180 177
f 164 177 165
f 165 177 180
f 165 180 166
f 166 180 181
f 166 181 167
f 167 181 170
f 168 169 179
f 168 179 178
f 169 176 170
f 169 170 181
f 169 181 180
f 169 180 179
f 170 176 171
f 171 182 183
f 171 183 172
f 171 176 182
f 172 183 173
f 173 183 174
f 174 183 175
f 175 183 182
f 175 182 176

