# https://github.com/mikedh/trimesh
v -0.00759783 0.11615135 0.00409094
v 0.01182258 0.11649839 -0.00022755
v 0.01231350 0.11615135 -0.00022755
v -0.00759783 0.11615135 0.00624537
v -0.00759783 0.14698020 0.00442328
v 0.00717203 0.14648831 -0.00022755
v 0.00717203 0.14513940 -0.00022755
v 0.01936587 0.11615135 -0.00022755
v -0.00706996 0.11615135 0.00623959
v -0.00759783 0.11771150 0.00625050
v -0.00759783 0.14698020 0.00629605
v 0.00811956 0.14698020 -0.00022755
v 0.01936587 0.11615135 0.00013046
v 0.01906499 0.12446814 -0.00022755
v 0.00664416 0.11615135 0.00336980
v -0.00605644 0.14698020 0.00619917
v -0.00688520 0.14698020 0.00630375
v -0.00717817 0.14344044 0.00632171
v -0.00759783 0.14297873 0.00631722
v -0.00717817 0.14698020 0.00632685
v -0.00759783 0.14612317 0.00631145
v 0.01579218 0.14698020 -0.00022755
v 0.01812010 0.11615135 0.00073996
v 0.01906499 0.12446814 -0.00003315
v 0.01812010 0.12288686 0.00056481
v 0.00788994 0.11615135 0.00308494
v 0.00818290 0.11656176 0.00302463
v 0.01337717 0.14502171 0.00110374
v 0.01337717 0.14660299 0.00091511
v 0.01337453 0.14698020 0.00077781
v 0.01563910 0.12130558 0.00133150
v 0.01653912 0.12288686 0.00108449
v -0.00717817 0.14502171 0.00632428
v -0.00759783 0.14456302 0.00631851
v 0.01579218 0.14698020 -0.00016146
v 0.01651536 0.11615135 0.00111079
v 0.01812010 0.12446814 0.00047755
v 0.01582385 0.14660299 -0.00011655
v 0.01495814 0.14502171 0.00053850
v 0.01495814 0.14660299 0.00039158
v 0.01495814 0.14698020 0.00025364
v 0.01395255 0.14698020 0.00058662
v 0.01533293 0.14698020 0.00010800
f 1 2 3
f 1 3 8
f 1 8 13
f 1 13 23
f 1 23 36
f 1 36 26
f 1 26 15
f 1 15 9
f 1 9 4
f 1 4 10
f 1 10 19
f 1 19 34
f 1 34 21
f 1 21 11
f 1 11 5
f 1 5 6
f 1 6 7
f 1 7 2
f 2 7 6
f 2 6 12
f 2 12 22
f 2 22 14
f 2 14 8
f 2 8 3
f 4 9 10
f 5 11 20
f 5 20 17
f 5 17 16
f 5 16 30
f 5 30 42
f 5 42 41
f 5 41 43
f 5 43 35
f 5 35 22
f 5 22 12
f 5 12 6
f 8 14 24
f 8 24 13
f 9 15 16
f 9 16 17
f 9 17 18
f 9 18 10
f 10 18 19
f 11 21 20
f 13 24 25
f 13 25 23
f 14 22 35
f 14 35 24
f 15 26 27
f 15 27 16
f 16 28 29
f 16 29 30
f 16 27 31
f 16 31 32
f 16 32 28
f 17 20 33
f 17 33 18
f 18 33 19
f 19 33 20
f 19 20 34
f 20 21 34
f 23 25 32
f 23 32 31
f 23 31 36
f 24 37 25
f 24 35 38
f 24 38 39
f 24 39 37
f 25 37 39
f 25 39 28
f 25 28 32
f 26 36 27
f 27 36 31
f 28 39 40
f 28 40 29
f 29 40 41
f 29 41 42
f 29 42 30
f 35 43 40
f 35 40 38
f 38 40 39
f 40 43 41

