# https://github.com/mikedh/trimesh
v 0.02790496 0.05613957 0.02333672
v 0.02851384 0.05613957 0.02332372
v 0.02790496 0.05717508 0.02332697
v 0.02790496 0.05449592 0.02333672
v 0.03015565 0.05449592 0.02330096
v 0.03179632 0.05449592 0.02326846
v 0.03179632 0.05613957 0.02325221
v 0.02851384 0.05778323 0.02330746
v 0.02790496 0.05778323 0.02332047
v 0.02790496 0.05285775 0.02332047
v 0.03015565 0.05285775 0.02329121
v 0.03343813 0.05285775 0.02323921
v 0.03375116 0.05449592 0.02322296
v 0.03375116 0.05285775 0.02323271
v 0.03015565 0.06763418 0.02310920
v 0.02790496 0.05942140 0.02330096
v 0.02790496 0.05121410 0.02329447
v 0.03375116 0.04793227 0.02317096
v 0.03343813 0.05121410 0.02322621
v 0.03375116 0.05613957 0.02319371
v 0.03375116 0.05121410 0.02321971
v 0.02851384 0.06763418 0.02310270
v 0.03343813 0.06599053 0.02300195
v 0.03179632 0.06763418 0.02299870
v 0.02790496 0.06936002 0.02280043
v 0.02790496 0.06763418 0.02309620
v 0.02790496 0.04957593 0.02326196
v 0.03343813 0.04628862 0.02314496
v 0.03375116 0.04628862 0.02314171
v 0.03375116 0.04988822 0.02320021
v 0.03375116 0.06599053 0.02295644
v 0.03342096 0.06767801 0.02262818
v 0.03179632 0.06881213 0.02253717
v 0.03015565 0.06909155 0.02265093
v 0.02790496 0.07026402 0.02235516
v 0.03179632 0.04628862 0.02315796
v 0.02790496 0.04628862 0.02318396
v 0.03375116 0.02002854 0.02254692
v 0.03375116 0.06756296 0.02257617
v 0.03286187 0.06859298 0.02233566
v 0.02814473 0.07022568 0.02231941
v 0.02790496 0.07057084 0.02131184
v 0.02790496 0.03583499 0.02292719
v 0.02790496 0.03480497 0.02290119
v 0.02790496 0.03151766 0.02281669
v 0.02790496 0.02987949 0.02277443
v 0.02790496 0.02823584 0.02272893
v 0.02790496 0.02659219 0.02267693
v 0.02851384 0.02495401 0.02262818
v 0.02790496 0.02495401 0.02261517
v 0.03343813 0.02002854 0.02253392
v 0.03375116 0.01834105 0.02242666
v 0.03375116 0.06821494 0.02131834
v 0.03299577 0.06866969 0.02131834
v 0.03179632 0.06919017 0.02131834
v 0.02923947 0.07006131 0.02184163
v 0.02939169 0.07011610 0.02074956
v 0.02790496 0.07072425 0.01967699
v 0.02790496 0.02333776 0.02242016
v 0.02851384 0.02331036 0.02249166
v 0.03375116 0.01717406 0.02230640
v 0.03375116 0.06828617 0.01779838
v 0.03307017 0.06870256 0.01639429
v 0.03098142 0.07009966 -0.00986082
v 0.03179632 0.06922853 0.01967699
v 0.03375116 0.06834643 0.01475294
v 0.03375116 0.06837383 0.01311159
v 0.03026095 0.06982024 0.01967699
v 0.03002518 0.06983668 0.02130534
v 0.02851384 0.07061467 0.01311159
v 0.02850697 0.07104750 -0.00986082
v 0.02790496 0.07102011 0.00387127
v 0.03038170 0.06986955 0.01475294
v 0.02790496 0.02239540 0.02218940
v 0.03375116 0.01677410 0.02208214
v 0.03311481 0.06871899 0.01311159
v 0.03039772 0.07032429 -0.00986082
v 0.03096769 0.07009418 -0.00920753
v 0.03316173 0.06875186 0.00818429
v 0.03164810 0.06974902 -0.00986082
v 0.03375116 0.06841766 0.00938686
v 0.02984206 0.07029142 0.00326349
v 0.02790496 0.07127213 -0.00986082
v 0.02790496 0.07126118 -0.00913602
v 0.02790496 0.07124474 -0.00822922
v 0.02790496 0.07118447 -0.00494652
v 0.03004349 0.07036813 -0.00494652
v 0.02790496 0.02234608 0.02181562
v 0.03375116 0.01530577 0.01967699
v 0.03375116 0.01576052 0.02129234
v 0.03323956 0.06879570 -0.00001921
v 0.03333741 0.06884501 -0.00986082
v 0.03375116 0.06851628 -0.00001921
v 0.02790496 0.02383633 -0.00986082
v 0.03374772 0.01541535 -0.00986082
v 0.03375116 0.01542083 -0.00959755
v 0.03375116 0.06860942 -0.00901902
v 0.03375116 0.06861490 -0.00986082
v 0.03375116 0.01566738 -0.00986082
f 1 2 3
f 1 3 9
f 1 9 16
f 1 16 26
f 1 26 25
f 1 25 35
f 1 35 42
f 1 42 58
f 1 58 72
f 1 72 86
f 1 86 85
f 1 85 84
f 1 84 83
f 1 83 94
f 1 94 88
f 1 88 74
f 1 74 59
f 1 59 50
f 1 50 48
f 1 48 47
f 1 47 46
f 1 46 45
f 1 45 44
f 1 44 43
f 1 43 37
f 1 37 27
f 1 27 17
f 1 17 10
f 1 10 4
f 1 4 5
f 1 5 6
f 1 6 2
f 2 6 3
f 3 6 7
f 3 7 8
f 3 8 9
f 4 10 11
f 4 11 12
f 4 12 5
f 5 12 6
f 6 13 7
f 6 12 14
f 6 14 13
f 7 13 15
f 7 15 16
f 7 16 8
f 8 16 9
f 10 17 18
f 10 18 19
f 10 19 11
f 11 19 12
f 12 19 21
f 12 21 14
f 13 14 21
f 13 21 30
f 13 30 18
f 13 18 29
f 13 29 38
f 13 38 52
f 13 52 61
f 13 61 75
f 13 75 90
f 13 90 89
f 13 89 96
f 13 96 99
f 13 99 98
f 13 98 97
f 13 97 93
f 13 93 81
f 13 81 67
f 13 67 66
f 13 66 62
f 13 62 53
f 13 53 39
f 13 39 31
f 13 31 20
f 13 20 15
f 15 22 16
f 15 20 23
f 15 23 24
f 15 24 25
f 15 25 22
f 16 22 26
f 17 27 28
f 17 28 29
f 17 29 18
f 18 30 19
f 19 30 21
f 20 31 23
f 22 25 26
f 23 31 24
f 24 31 32
f 24 32 33
f 24 33 34
f 24 34 25
f 25 34 35
f 27 36 28
f 27 37 38
f 27 38 36
f 28 36 38
f 28 38 29
f 31 39 32
f 32 39 40
f 32 40 33
f 33 40 41
f 33 41 35
f 33 35 34
f 35 41 42
f 37 43 38
f 38 43 44
f 38 44 45
f 38 45 46
f 38 46 47
f 38 47 48
f 38 48 49
f 38 49 50
f 38 50 51
f 38 51 52
f 39 53 40
f 40 54 55
f 40 55 56
f 40 56 41
f 40 53 54
f 41 56 42
f 42 57 58
f 42 56 57
f 48 50 49
f 50 59 60
f 50 60 61
f 50 61 52
f 50 52 51
f 53 62 54
f 54 63 64
f 54 64 65
f 54 65 55
f 54 62 66
f 54 66 67
f 54 67 63
f 55 65 68
f 55 68 58
f 55 58 57
f 55 57 69
f 55 69 56
f 56 69 57
f 58 70 71
f 58 71 72
f 58 68 73
f 58 73 70
f 59 74 61
f 59 61 60
f 61 74 75
f 63 76 64
f 63 67 76
f 64 77 78
f 64 78 65
f 64 76 79
f 64 79 80
f 64 80 92
f 64 92 98
f 64 98 99
f 64 99 95
f 64 95 94
f 64 94 83
f 64 83 71
f 64 71 77
f 65 73 68
f 65 78 73
f 67 81 79
f 67 79 76
f 70 73 82
f 70 82 71
f 71 83 84
f 71 84 85
f 71 85 86
f 71 86 72
f 71 82 87
f 71 87 78
f 71 78 77
f 73 78 82
f 74 88 89
f 74 89 90
f 74 90 75
f 78 87 82
f 79 91 80
f 79 81 91
f 80 91 92
f 81 93 91
f 88 94 95
f 88 95 89
f 89 95 96
f 91 93 92
f 92 93 97
f 92 97 98
f 95 99 96

