# https://github.com/mikedh/trimesh
v 0.07819284 -0.03346222 0.01803366
v 0.07817779 -0.03346222 0.01720464
v 0.07783923 -0.03346222 0.01899573
v 0.07718470 -0.03542906 0.01934371
v 0.07795209 -0.03415216 0.01803366
v 0.07790695 -0.03415216 0.01639098
v 0.07808751 -0.03346222 0.01399092
v 0.07754583 -0.03346222 0.01972240
v 0.07685367 -0.03646396 0.01803366
v 0.07729756 -0.03564016 0.01803366
v 0.07735774 -0.03400800 0.01980428
v 0.07664302 -0.03446109 0.02043884
v 0.07546937 -0.03854922 0.01923113
v 0.07727498 -0.03560926 0.01639098
v 0.07789190 -0.03346222 0.00749694
v 0.07724489 -0.03556807 0.01475341
v 0.07770382 -0.03415216 0.00982535
v 0.07700414 -0.03346222 0.02039278
v 0.07683863 -0.03643307 0.01639098
v 0.07373148 -0.04167452 0.01905202
v 0.06711091 -0.05306362 0.01889339
v 0.07555213 -0.03868823 0.01803366
v 0.07553708 -0.03866249 0.01639098
v 0.07549194 -0.03858526 0.01146804
v 0.07691386 -0.03346222 0.02049513
v 0.06914222 -0.04892915 0.01936930
v 0.07057918 -0.04682330 0.01921578
v 0.07516844 -0.03642277 0.02047978
v 0.06462819 -0.05385653 0.02018809
v 0.06626829 -0.05221407 0.01991687
v 0.06624571 -0.05370721 0.01935907
v 0.06735917 -0.05221407 0.01919531
v 0.06884128 -0.04994346 0.01908273
v 0.07681606 -0.03639188 0.01475341
v 0.07679349 -0.03634039 0.01311072
v 0.07786181 -0.03346222 0.00653998
v 0.07718470 -0.03546510 0.01146804
v 0.07677092 -0.03628375 0.01146804
v 0.07529633 -0.03661327 -0.02869331
v 0.07753831 -0.03415216 0.00490242
v 0.07778657 -0.03346222 0.00421157
v 0.07780914 -0.03346222 0.00490242
v 0.07712452 -0.03535697 0.00818267
v 0.07698157 -0.03505835 -0.00002564
v 0.07360358 -0.04143768 -0.00002564
v 0.07034595 -0.04641140 -0.01807982
v 0.07358101 -0.04140164 -0.00166833
v 0.06568146 -0.05495837 0.01919020
v 0.06578679 -0.05507679 0.01803366
v 0.06660684 -0.05388742 0.01803366
v 0.06711091 -0.05306877 0.01803366
v 0.06954095 -0.04892915 0.01803366
v 0.06911964 -0.04908876 0.00003577
v 0.06999236 -0.04713223 -0.01489680
v 0.07361863 -0.04146857 0.00161705
v 0.07681606 -0.03346222 0.02050537
v 0.07554461 -0.03532608 0.02052072
v 0.07366377 -0.03827118 0.02050025
v 0.07176787 -0.04120084 0.02047466
v 0.06626829 -0.05057161 0.02031090
v 0.06463571 -0.05550414 0.01954330
v 0.06449277 -0.05208020 0.02039790
v 0.05806028 -0.06041607 0.02021879
v 0.05483275 -0.06539494 0.01958935
v 0.05646533 -0.06374733 0.01958423
v 0.05809790 -0.06209457 0.01957912
v 0.05973799 -0.06044697 0.01956888
v 0.07355844 -0.04135530 -0.00330589
v 0.07492769 -0.03921341 0.00325973
v 0.07571012 -0.03737529 -0.00330589
v 0.07546937 -0.03693250 -0.01807982
v 0.07530386 -0.03499141 -0.03039740
v 0.07547690 -0.03539816 -0.02956838
v 0.07665054 -0.03346222 -0.02793082
v 0.07559727 -0.03595938 -0.02805875
v 0.07695900 -0.03500686 -0.00128452
v 0.07492017 -0.03755550 -0.02464545
v 0.07364872 -0.03987760 -0.02513160
v 0.07329512 -0.04056239 -0.02460963
v 0.07362615 -0.03984156 -0.02628813
v 0.07402488 -0.03887874 -0.02793082
v 0.07352835 -0.03970254 -0.02793082
v 0.07388194 -0.03859556 -0.02924087
v 0.07750821 -0.03346222 -0.00396604
v 0.07762106 -0.03346222 -0.00071137
v 0.07723737 -0.03403374 -0.00494346
v 0.07735774 -0.03346222 -0.00822883
v 0.07038357 -0.04647833 -0.01442088
v 0.07036100 -0.04644744 -0.01643714
v 0.06986446 -0.04728669 -0.01643714
v 0.06981931 -0.04728669 -0.01807982
v 0.06975913 -0.04728669 -0.01971739
v 0.07031586 -0.04635991 -0.01971739
v 0.07244498 -0.04233357 -0.02136008
v 0.07167007 -0.04385760 -0.01984533
v 0.07253526 -0.04236446 -0.01807982
v 0.07350577 -0.04125747 -0.00658615
v 0.06409403 -0.05661113 0.01919531
v 0.06502693 -0.05589544 0.01803366
v 0.06390595 -0.05642062 0.00325973
v 0.06386833 -0.05638458 0.00161705
v 0.06575670 -0.05503045 0.01639098
v 0.06700558 -0.05289886 0.00818267
v 0.06702815 -0.05294005 0.00982535
v 0.06705072 -0.05296579 0.01146804
v 0.06872843 -0.04973751 -0.00047085
v 0.06866824 -0.04964483 -0.00658615
v 0.07610134 -0.03400800 0.02054119
v 0.07447629 -0.03346222 0.02071006
v 0.06790838 -0.03907954 0.02098640
v 0.06955600 -0.03907954 0.02083288
v 0.07283619 -0.03579462 0.02073565
v 0.06462819 -0.03907954 0.02128321
v 0.06298809 -0.04072200 0.02133438
v 0.06626829 -0.04236446 0.02091476
v 0.06462819 -0.04400177 0.02095569
v 0.06462819 -0.04728669 0.02072542
v 0.06726889 -0.04670488 0.02051560
v 0.06629838 -0.04902698 0.02044395
v 0.06246898 -0.05826903 0.01920554
v 0.05595373 -0.06488521 0.01923113
v 0.06298809 -0.04728669 0.02087894
v 0.06385328 -0.05144690 0.02050025
v 0.06332664 -0.05254359 0.02045931
v 0.06286020 -0.05373296 0.02040302
v 0.06536548 -0.04963453 0.02049001
v 0.06474104 -0.04902698 0.02059236
v 0.06122762 -0.05538057 0.02040814
v 0.05478009 -0.06370099 0.02022902
v 0.05313247 -0.06534345 0.02021879
v 0.05318513 -0.06704255 0.01956888
v 0.05432116 -0.06653797 0.01923625
v 0.07516091 -0.03799830 -0.00987152
v 0.07436344 -0.03564016 -0.03041787
v 0.07447629 -0.03415216 -0.03044346
v 0.07534900 -0.03415216 -0.03040764
v 0.07540919 -0.03346222 -0.03041276
v 0.07608629 -0.03346222 -0.02961444
v 0.07206129 -0.03997543 -0.03041276
v 0.07692139 -0.03492448 -0.00330589
v 0.07431077 -0.03907954 -0.01807982
v 0.07073717 -0.04547432 -0.02136008
v 0.07027072 -0.04629813 -0.02136008
v 0.07190329 -0.04300291 -0.02464545
v 0.07067698 -0.04531985 -0.02300276
v 0.07015787 -0.04614366 -0.02300276
v 0.07176035 -0.04280725 -0.02628813
v 0.07215157 -0.04174146 -0.02793082
v 0.07204624 -0.04159214 -0.02884683
v 0.07058670 -0.04349204 -0.02921528
v 0.06219061 -0.05472153 -0.03040764
v 0.06877357 -0.04489251 -0.03041276
v 0.06864567 -0.04961908 -0.00822883
v 0.06862310 -0.04957789 -0.00987152
v 0.06905194 -0.04855844 -0.01643714
v 0.06902936 -0.04850180 -0.01807982
v 0.06899175 -0.04844516 -0.01971739
v 0.06963876 -0.04728669 -0.02136008
v 0.05447163 -0.06669243 0.01803366
v 0.06004645 -0.05913403 -0.02464545
v 0.06190472 -0.05766662 -0.01479445
v 0.06383071 -0.05634339 -0.00002564
v 0.06571908 -0.05498411 0.01475341
v 0.06626829 -0.05385653 0.00818267
v 0.06737422 -0.05176098 -0.00166833
v 0.06955600 -0.03579462 0.02102223
v 0.07188073 -0.03346222 0.02093523
v 0.07119609 -0.03415216 0.02096081
v 0.06134047 -0.04236446 0.02138044
v 0.06298809 -0.03907954 0.02142650
v 0.06134047 -0.04072200 0.02147767
v 0.06134047 -0.04400177 0.02126274
v 0.05970038 -0.04564423 0.02127809
v 0.05680387 -0.05915462 0.02046443
v 0.05959505 -0.05702818 0.02040814
v 0.05632238 -0.06031824 0.02040814
v 0.05464467 -0.06192981 0.02041325
v 0.05313247 -0.06370099 0.02037231
v 0.05149237 -0.06534345 0.02034161
v 0.04985228 -0.06698076 0.02030067
v 0.05149237 -0.06698076 0.02016762
v 0.04985228 -0.06862322 0.01990663
v 0.05137200 -0.06861292 0.01938466
v 0.05266602 -0.06805685 0.01920554
v 0.05363654 -0.06751109 0.01803366
v 0.07447629 -0.03346222 -0.03044858
v 0.07224937 -0.03907954 -0.03042299
v 0.07119609 -0.03907954 -0.03045369
v 0.06462819 -0.04892915 -0.03045369
v 0.06881871 -0.04823921 -0.02262407
v 0.06927011 -0.04743085 -0.02310511
v 0.06871338 -0.04807445 -0.02371920
v 0.07021806 -0.04459388 -0.02793082
v 0.06544071 -0.05138512 -0.02872913
v 0.06874347 -0.04648863 -0.02879566
v 0.06398118 -0.05328502 -0.02915899
v 0.06728394 -0.04838853 -0.02918970
v 0.06065584 -0.05811971 -0.02910782
v 0.06012169 -0.05755850 -0.03020294
v 0.06058813 -0.05646181 -0.03041276
v 0.06122010 -0.05535997 -0.03042299
v 0.06450029 -0.05044289 -0.03042811
v 0.06844254 -0.04937709 -0.01643714
v 0.06838988 -0.04932561 -0.01807982
v 0.06747955 -0.05024209 -0.02136008
v 0.06829960 -0.04918144 -0.02136008
v 0.06891651 -0.04835763 -0.02136008
v 0.06733660 -0.05169919 -0.00330589
v 0.05997122 -0.05904650 -0.02793082
v 0.06084393 -0.05831022 -0.02464545
v 0.06079879 -0.05826903 -0.02628813
v 0.06075365 -0.05822269 -0.02793082
v 0.06380814 -0.05631764 -0.00084954
v 0.06562880 -0.05489143 0.01146804
v 0.06617800 -0.05385653 0.00653998
v 0.06682502 -0.05269290 0.00161705
v 0.06790838 -0.03346222 0.02127809
v 0.05970038 -0.04236446 0.02150326
v 0.05970038 -0.04400177 0.02139579
v 0.06462819 -0.03579462 0.02144185
v 0.06298809 -0.03743708 0.02149814
v 0.06134047 -0.03907954 0.02155443
v 0.05806028 -0.04892915 0.02114504
v 0.05642019 -0.05713630 0.02064865
v 0.05571299 -0.05971584 0.02050537
v 0.05401270 -0.06129136 0.02050025
v 0.05478009 -0.05549384 0.02086358
v 0.05313247 -0.05385653 0.02104781
v 0.05149237 -0.05221407 0.02123204
v 0.02030798 -0.07190814 0.02127809
v 0.04000418 -0.06862322 0.02062818
v 0.04412699 -0.06781486 0.02050025
v 0.04657208 -0.06862322 0.02032114
v 0.04492446 -0.07026568 0.02025461
v 0.04821218 -0.06862322 0.02022391
v 0.04163675 -0.06867471 0.02055142
v 0.04217843 -0.06925652 0.02048490
v 0.04328437 -0.07190814 0.02012668
v 0.04657208 -0.07026568 0.02006015
v 0.04164427 -0.07355060 0.01988104
v 0.04001170 -0.07526000 0.01949212
v 0.03836408 -0.07651630 0.01934371
v 0.04820466 -0.07032747 0.01951259
v 0.04657208 -0.07157347 0.01935907
v 0.05281649 -0.06817528 0.01803366
v 0.04764793 -0.07124395 0.01910320
v 0.05074004 -0.06948822 0.01893432
v 0.05270363 -0.06811864 0.01475341
v 0.05050681 -0.06765010 -0.02793082
v 0.05141714 -0.06683145 -0.02793082
v 0.05651799 -0.06222329 -0.02793082
v 0.05915117 -0.05983941 -0.02793082
v 0.07283619 -0.03579462 -0.03045369
v 0.07283619 -0.03346222 -0.03045369
v 0.03836408 -0.03346222 -0.03045881
v 0.06134047 -0.05385653 -0.03044858
v 0.05970038 -0.05549384 -0.03045369
v 0.06738927 -0.05015456 -0.02300276
v 0.06214547 -0.05628160 -0.02858585
v 0.06723880 -0.04996920 -0.02464545
v 0.06794600 -0.04892915 -0.02464545
v 0.06569651 -0.05175068 -0.02628813
v 0.06506454 -0.05214199 -0.02807922
v 0.06167903 -0.05701788 -0.02799223
v 0.05904585 -0.05974673 -0.02913852
v 0.05958752 -0.05867579 -0.02967073
v 0.05851168 -0.05923185 -0.03023365
v 0.05903080 -0.05813516 -0.03041276
v 0.05962514 -0.05706422 -0.03042811
v 0.06766763 -0.05047378 -0.01479445
v 0.06687768 -0.05112253 -0.01971739
v 0.06724632 -0.05158592 -0.00658615
v 0.06531282 -0.05285766 -0.02300276
v 0.06595982 -0.05203901 -0.02300276
v 0.06677988 -0.05097322 -0.02300276
v 0.06222071 -0.05638458 -0.02749072
v 0.06227337 -0.05645151 -0.02628813
v 0.06161884 -0.05727017 -0.02628813
v 0.06166398 -0.05733195 -0.02464545
v 0.06170912 -0.05738859 -0.02300276
v 0.06337178 -0.05576672 -0.01643714
v 0.06431221 -0.05563801 -0.00150457
v 0.06605010 -0.05378960 0.00325973
v 0.06626829 -0.03346222 0.02141114
v 0.05970038 -0.04072200 0.02158002
v 0.05806028 -0.04400177 0.02149302
v 0.05806028 -0.04564423 0.02138044
v 0.06531282 -0.03346222 0.02148791
v 0.06134047 -0.03743708 0.02161584
v 0.06298809 -0.03579462 0.02156467
v 0.05478009 -0.04892915 0.02130880
v 0.05642019 -0.04564423 0.02145720
v 0.03180370 -0.06205853 0.02143673
v 0.01374007 -0.07355060 0.02145720
v 0.04108002 -0.06957575 0.02051049
v 0.04328437 -0.07026568 0.02033649
v 0.03836408 -0.07355060 0.02026485
v 0.03672398 -0.07519306 0.02018297
v 0.04000418 -0.07355060 0.02016762
v 0.03836408 -0.07519306 0.02000898
v 0.03508389 -0.07683552 0.01996292
v 0.03680674 -0.07696424 0.01948700
v 0.03508389 -0.07799399 0.01929766
v 0.03631020 -0.07778804 0.01907761
v 0.03947754 -0.07618678 0.01910320
v 0.05157513 -0.06899393 0.01803366
v 0.05152999 -0.06896819 0.01639098
v 0.05034882 -0.06924622 0.00325973
v 0.04256212 -0.07443104 0.01895991
v 0.03960544 -0.07626401 0.01803366
v 0.04852816 -0.06914325 -0.02793082
v 0.04968676 -0.06832459 -0.02793082
v 0.04938583 -0.06808260 -0.02956838
v 0.05394499 -0.06450935 -0.02856538
v 0.05564528 -0.06292353 -0.02888777
v 0.05642019 -0.05877876 -0.03045369
v 0.04985228 -0.06534345 -0.03045369
v 0.04821218 -0.06698076 -0.03045369
v 0.03672398 -0.07355060 -0.03045369
v 0.03344379 -0.07519306 -0.03045369
v 0.02030798 -0.08011529 -0.03045369
v 0.01209997 -0.08175775 -0.03045369
v 0.00133402 -0.08175775 -0.03045369
v 0.00133402 -0.04236446 -0.03045369
v 0.02359569 -0.03415216 -0.03045369
v 0.02687588 -0.03346222 -0.03045369
v 0.05800009 -0.05872213 -0.03042811
v 0.06525263 -0.05276499 -0.02464545
v 0.06414669 -0.05353731 -0.02793082
v 0.06358996 -0.05435596 -0.02793082
v 0.05734556 -0.06133255 -0.02902594
v 0.04908489 -0.06784061 -0.03041276
v 0.05742079 -0.05973128 -0.03041276
v 0.06461314 -0.05385653 -0.02136008
v 0.05970038 -0.03907954 0.02163631
v 0.05806028 -0.04236446 0.02156467
v 0.05642019 -0.04400177 0.02154931
v 0.04821218 -0.05057161 0.02148791
v 0.06367272 -0.03346222 0.02160049
v 0.06134047 -0.03346222 0.02172842
v 0.06298809 -0.03346222 0.02164655
v 0.06203262 -0.03346222 0.02169772
v 0.02523579 -0.06534345 0.02149814
v 0.01209997 -0.07355060 0.02151349
v 0.01045988 -0.07519306 0.02147767
v 0.01538017 -0.07519306 0.02124739
v 0.03344379 -0.07190814 0.02066912
v 0.03672398 -0.07355060 0.02034673
v 0.03243566 -0.07427658 0.02049001
v 0.02917804 -0.07593449 0.02049001
v 0.03180370 -0.07683552 0.02026485
v 0.03344379 -0.07683552 0.02015738
v 0.01374007 -0.08360101 0.02038766
v 0.02030798 -0.08286474 0.01933860
v 0.01538017 -0.08448661 0.01935395
v 0.03135982 -0.07942021 0.01907761
v 0.03508389 -0.07838530 0.01803366
v 0.03650581 -0.07788072 0.01803366
v 0.03732586 -0.07756150 0.01803366
v 0.03836408 -0.07698998 0.01803366
v 0.05070994 -0.06946762 0.01639098
v 0.05052938 -0.06935950 0.00982535
v 0.05039396 -0.06927712 0.00490242
v 0.04952877 -0.06974565 0.00325973
v 0.03836408 -0.07693335 0.01639098
v 0.03955277 -0.07623311 0.01639098
v 0.04244175 -0.07435896 0.01267574
v 0.04657208 -0.07170734 0.00818267
v 0.04657208 -0.07176398 0.00982535
v 0.04657208 -0.07187210 0.01311072
v 0.04770059 -0.06962723 -0.02793082
v 0.03928946 -0.07443104 -0.02896965
v 0.04758022 -0.06955515 -0.02910782
v 0.03836408 -0.07679948 0.01311072
v 0.04971686 -0.06685204 -0.03042811
v 0.04150885 -0.07178972 -0.03042811
v 0.04000418 -0.07190814 -0.03044858
v 0.03766441 -0.07441560 -0.03041276
v 0.03672398 -0.07457006 -0.03042299
v 0.03344379 -0.07628460 -0.03042299
v 0.03127706 -0.07769536 -0.03041276
v 0.03015608 -0.07683552 -0.03044858
v 0.02194807 -0.08011529 -0.03044858
v 0.01374007 -0.08175775 -0.03044346
v 0.01209997 -0.08263819 -0.03042299
v 0.00389197 -0.08329724 -0.03042299
v 0.00225187 -0.08316852 -0.03042299
v 0.00133402 -0.08306039 -0.03042299
v 0.00133402 -0.04187018 -0.03043834
v 0.02359569 -0.03346222 -0.03043323
v 0.02519065 -0.03346222 -0.03044346
v 0.04087689 -0.07275254 -0.03040764
v 0.05970038 -0.03579462 0.02171819
v 0.01045988 -0.07355060 0.02155443
v 0.03344379 -0.05877876 0.02155443
v 0.04164427 -0.05385653 0.02153908
v 0.06039253 -0.03346222 0.02175401
v 0.02194807 -0.06698076 0.02152373
v 0.01702778 -0.07026568 0.02151861
v 0.00881978 -0.07519306 0.02153396
v 0.00881978 -0.07683552 0.02140091
v 0.01045988 -0.07683552 0.02132415
v 0.01702778 -0.07683552 0.02100175
v 0.03459487 -0.07290186 0.02051560
v 0.02359569 -0.07683552 0.02067424
v 0.02687588 -0.07847283 0.02033649
v 0.01702778 -0.08203064 0.02043372
v 0.01209997 -0.08389964 0.02044907
v 0.01374007 -0.08470800 0.01956888
v 0.01374007 -0.08518169 0.01803366
v 0.01647858 -0.08431155 0.01907249
v 0.02640191 -0.08105237 0.01907761
v 0.03344379 -0.07892592 0.01803366
v 0.03271403 -0.07932753 0.01596112
v 0.03279678 -0.07936357 0.01475341
v 0.03508389 -0.07845738 0.01639098
v 0.03728824 -0.07753576 0.01639098
v 0.03280430 -0.07937387 0.01311072
v 0.03646819 -0.07789617 0.01639098
v 0.04957391 -0.06977655 0.00490242
v 0.03722805 -0.07750486 0.01475341
v 0.03578356 -0.07759754 -0.00330589
v 0.03424879 -0.07764388 -0.02361173
v 0.04657208 -0.07028628 -0.02793082
v 0.04465362 -0.07140356 -0.02793082
v 0.03937221 -0.07447738 -0.02793082
v 0.03631772 -0.07625371 -0.02793082
v 0.03508389 -0.07696939 -0.02793082
v 0.03405319 -0.07755120 -0.02793082
v 0.03615973 -0.07616103 -0.02918970
v 0.03236795 -0.07741219 -0.03034111
v 0.03448202 -0.07607350 -0.03041276
v 0.02776364 -0.07931208 -0.03040252
v 0.02687588 -0.07934297 -0.03041276
v 0.02288849 -0.08095969 -0.03040764
v 0.02194807 -0.08099058 -0.03041787
v 0.01374007 -0.08260730 -0.03040764
v 0.00389197 -0.08411589 -0.03037693
v 0.00133402 -0.08342080 -0.03038717
v 0.00133402 -0.04147372 -0.03042299
v 0.02260261 -0.03346222 -0.03041276
v 0.05970038 -0.03346222 0.02176936
v 0.05875243 -0.03346222 0.02178983
v 0.05806028 -0.03415216 0.02178471
v 0.00881978 -0.07355060 0.02157490
v 0.00717216 -0.07519306 0.02155955
v 0.01866788 -0.06862322 0.02154420
v 0.05806028 -0.03346222 0.02180007
v 0.00717216 -0.07683552 0.02144697
v 0.00881978 -0.07847283 0.02121157
v 0.01045988 -0.08011529 0.02096081
v 0.01374007 -0.08278236 0.02052072
v 0.01209997 -0.08011529 0.02088917
v 0.01209997 -0.07847283 0.02106828
v 0.02135373 -0.07939961 0.02051049
v 0.01459021 -0.08259185 0.02050025
v 0.01209997 -0.08307584 0.02055654
v 0.01045988 -0.08409530 0.02047978
v 0.00951946 -0.08419312 0.02049513
v 0.00133402 -0.08551121 0.02014203
v 0.01209997 -0.08482642 0.01963029
v 0.00225187 -0.08594370 0.01921066
v 0.00389197 -0.08589222 0.01899573
v 0.00477220 -0.08586648 0.01887292
v 0.01209997 -0.08540823 0.01803366
v 0.01374007 -0.08514050 0.01639098
v 0.01538017 -0.08468225 0.01311072
v 0.01538017 -0.08475949 0.01639098
v 0.01538017 -0.08476464 0.01803366
v 0.01669676 -0.08437333 0.01803366
v 0.01752433 -0.08411589 0.01803366
v 0.01866788 -0.08374518 0.01803366
v 0.02169228 -0.08276176 0.01803366
v 0.02666523 -0.08113990 0.01803366
v 0.02838808 -0.08070740 0.01637051
v 0.02687588 -0.08144883 0.01311072
v 0.02889215 -0.08078978 0.01311072
v 0.02823762 -0.08111930 0.01146804
v 0.02906519 -0.08084127 0.01146804
v 0.03015608 -0.08042937 0.01146804
v 0.03180370 -0.07977032 0.01311072
v 0.02911033 -0.08085157 0.00982535
v 0.03588137 -0.07764388 -0.00051179
v 0.03180370 -0.07976003 0.01146804
v 0.03508389 -0.07839560 0.01311072
v 0.03508389 -0.07819995 0.00653998
v 0.03508389 -0.07810212 0.00325973
v 0.03428641 -0.07766447 -0.02252173
v 0.03359426 -0.07794766 -0.02304370
v 0.03323314 -0.07792706 -0.02793082
v 0.03412842 -0.07758724 -0.02628813
v 0.03300744 -0.07782409 -0.02924599
v 0.02839561 -0.07950773 -0.02953768
v 0.02471668 -0.08103177 -0.02908735
v 0.02349789 -0.08116564 -0.02960933
v 0.01808106 -0.08261760 -0.02890824
v 0.01702778 -0.08269998 -0.02918970
v 0.01461278 -0.08258671 -0.03039740
v 0.00553207 -0.08445056 -0.02944045
v 0.00389197 -0.08451750 -0.02955815
v 0.00225187 -0.08449175 -0.02952745
v 0.00133402 -0.08446601 -0.02948650
v 0.00225187 -0.08398717 -0.03034623
v 0.00133402 -0.08387905 -0.03031041
v 0.00133402 -0.04094340 -0.02956838
v 0.02184275 -0.03346222 -0.02956838
v 0.00389197 -0.07355060 0.02162607
v 0.05642019 -0.03346222 0.02182054
v 0.00225187 -0.07355060 0.02164143
v 0.00133402 -0.07355060 0.02164655
v 0.00389197 -0.07519306 0.02156978
v 0.00553207 -0.07683552 0.02145720
v 0.00717216 -0.07847283 0.02125762
v 0.00389197 -0.07847283 0.02130368
v 0.00389197 -0.08011529 0.02113481
v 0.01045988 -0.08327664 0.02058213
v 0.01045988 -0.08175775 0.02076635
v 0.00842104 -0.08425491 0.02051049
v 0.00133402 -0.08469256 0.02059748
v 0.00133402 -0.08514565 0.02039278
v 0.00717216 -0.08011529 0.02105804
v 0.00717216 -0.08340021 0.02065377
v 0.00225187 -0.08340021 0.02078171
v 0.00133402 -0.08596945 0.01932325
v 0.00133402 -0.08603123 0.01855564
v 0.01045988 -0.08551121 0.01803366
v 0.00133402 -0.08605698 0.01803366
v 0.00477220 -0.08586648 0.01867846
v 0.01045988 -0.08547517 0.01639098
v 0.01045988 -0.08533100 0.00982535
v 0.01209997 -0.08536704 0.01639098
v 0.01209997 -0.08516109 0.00982535
v 0.01374007 -0.08508901 0.01475341
v 0.01619269 -0.08421887 0.00251771
v 0.01625288 -0.08423431 0.00361283
v 0.01631306 -0.08424976 0.00490242
v 0.01638077 -0.08427035 0.00653998
v 0.01659895 -0.08432699 0.01146804
v 0.01756194 -0.08414678 0.01475341
v 0.01866788 -0.08385331 0.01475341
v 0.01677951 -0.08437848 0.01639098
v 0.01759956 -0.08415193 0.01639098
v 0.02300887 -0.08264849 0.01311072
v 0.02382892 -0.08240649 0.01311072
v 0.02194807 -0.08291108 0.01475341
v 0.02289602 -0.08261760 0.01475341
v 0.02279069 -0.08258671 0.01565407
v 0.02266279 -0.08254551 0.01674919
v 0.02523579 -0.08197400 0.01311072
v 0.02687588 -0.08154665 0.01146804
v 0.02829028 -0.08114504 0.00982535
v 0.02816238 -0.08110900 0.00653998
v 0.02898995 -0.08080523 0.00653998
v 0.03015608 -0.08036758 0.00818267
v 0.03015608 -0.08041392 0.00982535
v 0.03344379 -0.07816905 -0.01807982
v 0.03432403 -0.07768507 -0.02136008
v 0.03015608 -0.08026975 0.00490242
v 0.03246575 -0.07922970 0.00325973
v 0.03344379 -0.07851402 -0.00658615
v 0.03344379 -0.07806608 -0.02136008
v 0.03180370 -0.07869423 -0.02300276
v 0.03337608 -0.07798370 -0.02464545
v 0.03180370 -0.07852432 -0.02793082
v 0.02948650 -0.07935327 -0.02896965
v 0.02687588 -0.08043967 -0.02793082
v 0.02572481 -0.08083612 -0.02793082
v 0.02359569 -0.08150546 -0.02793082
v 0.02194807 -0.08197915 -0.02793082
v 0.02030798 -0.08232927 -0.02793082
v 0.00812763 -0.08424461 -0.02884171
v 0.00717216 -0.08432184 -0.02910782
v 0.00553207 -0.08471315 -0.02793082
v 0.00389197 -0.08484187 -0.02793082
v 0.00225187 -0.08479038 -0.02793082
v 0.00133402 -0.08459988 -0.02877519
v 0.00133402 -0.04046971 -0.02793082
v 0.02104527 -0.03346222 -0.02793082
v 0.02920813 -0.03346222 0.02170795
v 0.00133402 -0.04564423 0.02172331
v 0.00133402 -0.06041607 0.02174378
v 0.00133402 -0.06205853 0.02173866
v 0.00133402 -0.06296986 0.02173354
v 0.00133402 -0.06461233 0.02172331
v 0.00133402 -0.06534345 0.02171819
v 0.00133402 -0.06953456 0.02168749
v 0.00133402 -0.07190814 0.02166702
v 0.00133402 -0.07519306 0.02156467
v 0.00225187 -0.07519306 0.02156978
v 0.00389197 -0.07683552 0.02144697
v 0.00133402 -0.08266908 0.02088917
v 0.00225187 -0.07847283 0.02129345
v 0.00133402 -0.07938932 0.02120645
v 0.00133402 -0.08102662 0.02105804
v 0.00133402 -0.08415708 0.02068447
v 0.00133402 -0.08340021 0.02080218
v 0.00225187 -0.08600550 0.01803366
v 0.00457660 -0.08585618 0.01758333
v 0.00133402 -0.08602609 0.01639098
v 0.00553207 -0.08566567 0.01146804
v 0.00717216 -0.08538764 0.00325973
v 0.00389197 -0.08511990 -0.01807982
v 0.00133402 -0.08604154 0.01712277
v 0.00389197 -0.08508386 -0.01971739
v 0.00717216 -0.08513535 -0.00822883
v 0.00881978 -0.08521258 -0.00002564
v 0.01045988 -0.08524347 0.00653998
v 0.00717216 -0.08509416 -0.00987152
v 0.00717216 -0.08504782 -0.01150908
v 0.01045988 -0.08503752 -0.00002564
v 0.01209997 -0.08510445 0.00818267
v 0.01374007 -0.08497574 0.01146804
v 0.01607984 -0.08420342 0.00161705
v 0.02030798 -0.08239105 -0.02628813
v 0.02051111 -0.08245798 -0.02300276
v 0.02005218 -0.08271543 -0.01807982
v 0.02014246 -0.08274632 -0.01643714
v 0.02021017 -0.08277206 -0.01479445
v 0.01866788 -0.08340536 -0.00494346
v 0.02179008 -0.08239620 -0.01303407
v 0.02359569 -0.08206668 -0.00658615
v 0.02359569 -0.08221599 -0.00002564
v 0.02523579 -0.08196885 0.00818267
v 0.01866788 -0.08381726 0.01311072
v 0.02298630 -0.08263819 0.01146804
v 0.02687588 -0.08156724 0.00982535
v 0.02194807 -0.08294197 0.01311072
v 0.02523579 -0.08202549 0.01146804
v 0.02687588 -0.08149516 0.00653998
v 0.02687588 -0.08145397 0.00490242
v 0.02687588 -0.08127892 -0.00166833
v 0.02810220 -0.08108326 0.00490242
v 0.02885453 -0.08075374 0.00325973
v 0.03118678 -0.07938416 -0.00987152
v 0.02789154 -0.08101118 -0.00002564
v 0.03217986 -0.07910613 -0.00494346
v 0.03091594 -0.07927089 -0.01643714
v 0.03009589 -0.07959526 -0.01643714
v 0.02959182 -0.07939961 -0.02793082
v 0.02851598 -0.07982181 -0.02793082
v 0.02751537 -0.08088246 -0.00822883
v 0.02759813 -0.08090820 -0.00658615
v 0.02771098 -0.08094424 -0.00429867
v 0.02498752 -0.08111930 -0.02628813
v 0.02359569 -0.08160329 -0.02464545
v 0.02194807 -0.08203579 -0.02628813
v 0.02523579 -0.08134585 -0.01643714
v 0.01866788 -0.08285959 -0.02136008
v 0.01702778 -0.08292653 -0.02628813
v 0.01702778 -0.08285959 -0.02793082
v 0.00830067 -0.08427035 -0.02793082
v 0.00717216 -0.08484187 -0.01807982
v 0.00553207 -0.08476978 -0.02628813
v 0.00717216 -0.08465136 -0.02300276
v 0.00881978 -0.08484702 -0.01150908
v 0.00881978 -0.08490880 -0.00987152
v 0.00389197 -0.08499633 -0.02300276
v 0.00225187 -0.08514565 -0.01807982
v 0.00225187 -0.08504267 -0.02136008
v 0.00225187 -0.08485731 -0.02628813
v 0.00133402 -0.08476978 -0.02719903
v 0.00133402 -0.08473889 -0.02793082
v 0.00133402 -0.04045941 -0.02701480
v 0.02071424 -0.03346222 0.01967635
v 0.02851598 -0.03346222 0.02170284
v 0.00133402 -0.04400177 0.02170284
v 0.00133402 -0.07683552 0.02142650
v 0.00133402 -0.07774685 0.02134974
v 0.00133402 -0.08588708 0.01003517
v 0.00225187 -0.08543397 -0.00822883
v 0.00389197 -0.08504267 -0.02136008
v 0.00553207 -0.08501693 -0.01807982
v 0.00881978 -0.08511990 -0.00330589
v 0.00553207 -0.08492425 -0.02136008
v 0.01045988 -0.08497574 -0.00166833
v 0.00881978 -0.08496544 -0.00822883
v 0.01209997 -0.08504267 0.00653998
v 0.01374007 -0.08478008 0.00653998
v 0.02065405 -0.08247858 -0.02136008
v 0.02194807 -0.08208212 -0.02464545
v 0.02194807 -0.08212332 -0.02300276
v 0.02194807 -0.08220055 -0.01971739
v 0.02359569 -0.08195340 -0.01150908
v 0.02523579 -0.08181954 0.00161705
v 0.02523579 -0.08200489 0.00982535
v 0.02523579 -0.08170626 -0.00330589
v 0.02523579 -0.08166508 -0.00494346
v 0.02687588 -0.08123257 -0.00330589
v 0.02523579 -0.08157755 -0.00822883
v 0.02359569 -0.08174230 -0.01971739
v 0.02523579 -0.08144367 -0.01315177
v 0.02864388 -0.08067136 -0.00166833
v 0.02851598 -0.08050145 -0.00822883
v 0.03015608 -0.07979606 -0.00987152
v 0.03031407 -0.07956437 -0.01482004
v 0.02851598 -0.08044481 -0.00987152
v 0.02677808 -0.08116564 -0.00658615
v 0.00881978 -0.08458443 -0.01807982
v 0.01045988 -0.08491395 -0.00330589
v 0.00225187 -0.08539279 -0.00987152
v 0.00225187 -0.08534645 -0.01150908
v 0.00225187 -0.08519713 -0.01643714
v 0.00133402 -0.08539279 -0.00987152
v 0.00133402 -0.08510960 -0.01807982
v 0.00133402 -0.08505297 -0.01971739
v 0.00133402 -0.08480583 -0.02628813
v 0.00133402 -0.04045941 -0.02628813
v 0.02077443 -0.03346222 0.02029555
v 0.00133402 -0.04050060 0.01894456
v 0.00133402 -0.04050575 0.01967635
v 0.02756803 -0.03346222 0.02167213
v 0.00133402 -0.04236446 0.02162607
v 0.00133402 -0.04327579 0.02167213
v 0.00133402 -0.08577380 0.00488195
v 0.00133402 -0.08573776 0.00325973
v 0.00133402 -0.08571716 0.00234883
v 0.02359569 -0.08182983 -0.01643714
v 0.00133402 -0.08561418 -0.00166833
v 0.00133402 -0.08548547 -0.00658615
v 0.02090984 -0.03346222 0.02061795
v 0.00133402 -0.04076319 0.02043372
v 0.02687588 -0.03346222 0.02164143
v 0.00133402 -0.04174146 0.02137021
v 0.02592042 -0.03346222 0.02157490
v 0.02523579 -0.03346222 0.02152373
v 0.02428032 -0.03346222 0.02145209
v 0.02122583 -0.03346222 0.02074588
v 0.00133402 -0.04102578 0.02103246
v 0.02264022 -0.03346222 0.02118086
f 1 2 7
f 1 7 15
f 1 15 36
f 1 36 42
f 1 42 41
f 1 41 85
f 1 85 84
f 1 84 87
f 1 87 74
f 1 74 138
f 1 138 137
f 1 137 186
f 1 186 254
f 1 254 255
f 1 255 326
f 1 326 391
f 1 391 390
f 1 390 441
f 1 441 506
f 1 506 578
f 1 578 664
f 1 664 708
f 1 708 720
f 1 720 727
f 1 727 729
f 1 729 726
f 1 726 725
f 1 725 724
f 1 724 722
f 1 722 711
f 1 711 665
f 1 665 579
f 1 579 508
f 1 508 448
f 1 448 443
f 1 443 442
f 1 442 397
f 1 397 340
f 1 340 342
f 1 342 341
f 1 341 339
f 1 339 288
f 1 288 284
f 1 284 217
f 1 217 167
f 1 167 109
f 1 109 56
f 1 56 25
f 1 25 18
f 1 18 8
f 1 8 3
f 1 3 4
f 1 4 5
f 1 5 2
f 2 5 6
f 2 6 7
f 3 8 4
f 4 9 10
f 4 10 5
f 4 8 11
f 4 11 12
f 4 12 13
f 4 13 9
f 5 10 14
f 5 14 6
f 6 15 7
f 6 14 16
f 6 16 17
f 6 17 15
f 8 18 11
f 9 19 10
f 9 13 20
f 9 20 21
f 9 21 22
f 9 22 23
f 9 23 24
f 9 24 19
f 10 19 14
f 11 18 25
f 11 25 12
f 12 26 27
f 12 27 13
f 12 25 28
f 12 28 29
f 12 29 30
f 12 30 31
f 12 31 32
f 12 32 26
f 13 27 33
f 13 33 20
f 14 19 34
f 14 34 35
f 14 35 16
f 15 17 36
f 16 37 17
f 16 35 38
f 16 38 39
f 16 39 37
f 17 40 85
f 17 85 41
f 17 41 42
f 17 42 36
f 17 37 43
f 17 43 44
f 17 44 40
f 19 24 45
f 19 45 46
f 19 46 47
f 19 47 34
f 20 33 21
f 21 32 48
f 21 48 49
f 21 49 50
f 21 50 51
f 21 51 52
f 21 52 22
f 21 33 32
f 22 52 53
f 22 53 23
f 23 53 24
f 24 53 54
f 24 54 55
f 24 55 45
f 25 56 57
f 25 57 28
f 26 32 27
f 27 32 33
f 28 57 58
f 28 58 59
f 28 59 60
f 28 60 29
f 29 61 48
f 29 48 31
f 29 31 30
f 29 60 62
f 29 62 63
f 29 63 64
f 29 64 65
f 29 65 66
f 29 66 67
f 29 67 61
f 31 48 32
f 34 47 68
f 34 68 69
f 34 69 35
f 35 70 38
f 35 69 70
f 37 39 43
f 38 70 71
f 38 71 39
f 39 72 73
f 39 73 74
f 39 74 75
f 39 75 76
f 39 76 44
f 39 44 43
f 39 71 77
f 39 77 78
f 39 78 79
f 39 79 80
f 39 80 81
f 39 81 82
f 39 82 83
f 39 83 72
f 40 84 85
f 40 44 76
f 40 76 86
f 40 86 87
f 40 87 84
f 45 55 88
f 45 88 89
f 45 89 46
f 46 89 54
f 46 54 90
f 46 90 91
f 46 91 92
f 46 92 93
f 46 93 79
f 46 79 78
f 46 78 94
f 46 94 95
f 46 95 96
f 46 96 97
f 46 97 68
f 46 68 47
f 48 61 98
f 48 98 99
f 48 99 49
f 49 99 100
f 49 100 101
f 49 101 102
f 49 102 103
f 49 103 104
f 49 104 50
f 50 104 105
f 50 105 51
f 51 105 53
f 51 53 52
f 53 106 54
f 53 105 106
f 54 106 107
f 54 107 90
f 54 89 88
f 54 88 55
f 56 108 57
f 56 109 108
f 57 110 111
f 57 111 58
f 57 108 112
f 57 112 113
f 57 113 114
f 57 114 110
f 58 111 115
f 58 115 116
f 58 116 117
f 58 117 118
f 58 118 59
f 59 118 119
f 59 119 62
f 59 62 60
f 61 120 98
f 61 67 121
f 61 121 120
f 62 122 123
f 62 123 124
f 62 124 125
f 62 125 63
f 62 119 126
f 62 126 127
f 62 127 122
f 63 125 128
f 63 128 129
f 63 129 64
f 64 129 130
f 64 130 131
f 64 131 132
f 64 132 65
f 65 67 66
f 65 132 67
f 67 132 121
f 68 97 69
f 69 97 70
f 70 97 133
f 70 133 77
f 70 77 71
f 72 134 135
f 72 135 136
f 72 136 137
f 72 137 138
f 72 138 73
f 72 83 139
f 72 139 134
f 73 138 74
f 74 87 86
f 74 86 75
f 75 86 140
f 75 140 76
f 76 140 86
f 77 133 141
f 77 141 94
f 77 94 78
f 79 93 80
f 80 93 142
f 80 142 143
f 80 143 144
f 80 144 81
f 81 144 82
f 82 144 145
f 82 145 146
f 82 146 147
f 82 147 148
f 82 148 149
f 82 149 83
f 83 149 150
f 83 150 151
f 83 151 152
f 83 152 139
f 90 107 153
f 90 153 91
f 91 153 154
f 91 154 155
f 91 155 156
f 91 156 92
f 92 156 157
f 92 157 158
f 92 158 143
f 92 143 93
f 93 143 142
f 94 96 95
f 94 141 96
f 96 141 97
f 97 141 133
f 98 120 159
f 98 159 99
f 99 159 100
f 100 160 161
f 100 161 101
f 100 159 160
f 101 161 162
f 101 162 102
f 102 163 103
f 102 162 163
f 103 163 164
f 103 164 165
f 103 165 157
f 103 157 154
f 103 154 153
f 103 153 104
f 104 153 107
f 104 107 105
f 105 107 106
f 108 109 166
f 108 166 112
f 109 167 168
f 109 168 166
f 110 114 169
f 110 169 111
f 111 169 115
f 112 166 170
f 112 170 113
f 113 170 114
f 114 170 171
f 114 171 169
f 115 169 116
f 116 169 117
f 117 127 118
f 117 169 127
f 118 127 126
f 118 126 119
f 120 121 159
f 121 132 159
f 122 127 169
f 122 169 172
f 122 172 123
f 123 172 173
f 123 173 124
f 124 173 128
f 124 128 125
f 128 173 174
f 128 174 175
f 128 175 129
f 129 176 177
f 129 177 130
f 129 175 176
f 130 177 178
f 130 178 179
f 130 179 180
f 130 180 181
f 130 181 131
f 131 181 182
f 131 182 183
f 131 183 184
f 131 184 132
f 132 185 159
f 132 184 185
f 134 139 135
f 135 186 137
f 135 137 136
f 135 139 187
f 135 187 188
f 135 188 186
f 139 188 187
f 139 152 189
f 139 189 188
f 143 158 146
f 143 146 145
f 143 145 144
f 146 158 190
f 146 190 191
f 146 191 147
f 147 191 192
f 147 192 148
f 148 192 193
f 148 193 194
f 148 194 195
f 148 195 149
f 149 195 196
f 149 196 197
f 149 197 150
f 150 197 151
f 151 197 196
f 151 196 198
f 151 198 199
f 151 199 200
f 151 200 201
f 151 201 202
f 151 202 152
f 152 202 189
f 154 157 156
f 154 156 155
f 157 203 204
f 157 204 205
f 157 205 206
f 157 206 207
f 157 207 158
f 157 165 208
f 157 208 203
f 158 207 190
f 159 185 160
f 160 209 210
f 160 210 161
f 160 185 209
f 161 210 162
f 162 210 211
f 162 211 212
f 162 212 213
f 162 213 214
f 162 214 163
f 163 214 164
f 164 214 215
f 164 215 216
f 164 216 208
f 164 208 165
f 166 168 217
f 166 217 170
f 167 217 168
f 169 171 218
f 169 218 219
f 169 219 173
f 169 173 172
f 170 220 221
f 170 221 222
f 170 222 171
f 170 217 220
f 171 222 285
f 171 285 218
f 173 219 287
f 173 287 223
f 173 223 224
f 173 224 225
f 173 225 174
f 174 225 177
f 174 177 176
f 174 176 175
f 177 226 178
f 177 225 224
f 177 224 223
f 177 223 226
f 178 226 179
f 179 226 227
f 179 227 228
f 179 228 229
f 179 229 230
f 179 230 231
f 179 231 232
f 179 232 180
f 180 233 234
f 180 234 235
f 180 235 181
f 180 232 236
f 180 236 237
f 180 237 233
f 181 235 238
f 181 238 239
f 181 239 182
f 182 239 240
f 182 240 241
f 182 241 242
f 182 242 243
f 182 243 183
f 183 243 244
f 183 244 184
f 184 245 185
f 184 244 246
f 184 246 247
f 184 247 245
f 185 245 248
f 185 248 249
f 185 249 250
f 185 250 251
f 185 251 252
f 185 252 209
f 186 188 253
f 186 253 254
f 188 189 255
f 188 255 253
f 189 202 201
f 189 201 256
f 189 256 257
f 189 257 255
f 190 192 191
f 190 207 258
f 190 258 259
f 190 259 260
f 190 260 192
f 192 260 261
f 192 261 193
f 193 261 262
f 193 262 263
f 193 263 194
f 194 263 259
f 194 259 196
f 194 196 195
f 196 259 198
f 198 264 212
f 198 212 209
f 198 209 265
f 198 265 266
f 198 266 199
f 198 259 264
f 199 266 267
f 199 267 200
f 200 267 268
f 200 268 269
f 200 269 201
f 201 269 256
f 203 270 271
f 203 271 204
f 203 208 272
f 203 272 270
f 204 271 205
f 205 271 273
f 205 273 277
f 205 277 274
f 205 274 206
f 206 274 275
f 206 275 207
f 207 275 258
f 208 216 272
f 209 212 211
f 209 211 210
f 209 252 265
f 212 264 276
f 212 276 277
f 212 277 278
f 212 278 279
f 212 279 280
f 212 280 213
f 213 277 281
f 213 281 282
f 213 282 283
f 213 283 214
f 213 280 279
f 213 279 277
f 214 283 215
f 215 283 216
f 216 283 272
f 217 284 220
f 218 285 286
f 218 286 219
f 219 286 287
f 220 284 288
f 220 288 221
f 221 288 222
f 222 289 285
f 222 288 290
f 222 290 289
f 223 287 226
f 226 287 227
f 227 291 228
f 227 287 286
f 227 286 292
f 227 292 291
f 228 291 229
f 229 291 293
f 229 293 230
f 230 293 294
f 230 294 231
f 231 236 232
f 231 294 236
f 233 237 234
f 234 237 295
f 234 295 296
f 234 296 347
f 234 347 348
f 234 348 297
f 234 297 298
f 234 298 299
f 234 299 235
f 235 299 238
f 236 294 237
f 237 294 295
f 238 299 300
f 238 300 239
f 239 300 240
f 240 300 242
f 240 242 241
f 242 300 301
f 242 301 302
f 242 302 303
f 242 303 304
f 242 304 305
f 242 305 244
f 242 244 243
f 244 305 246
f 245 247 306
f 245 306 307
f 245 307 308
f 245 308 248
f 246 305 309
f 246 309 247
f 247 309 310
f 247 310 306
f 248 308 311
f 248 311 312
f 248 312 249
f 249 312 313
f 249 313 314
f 249 314 250
f 250 314 251
f 251 314 252
f 252 314 315
f 252 315 265
f 253 255 254
f 255 257 316
f 255 316 317
f 255 317 318
f 255 318 319
f 255 319 320
f 255 320 321
f 255 321 322
f 255 322 323
f 255 323 324
f 255 324 325
f 255 325 326
f 256 269 257
f 257 269 327
f 257 327 316
f 258 275 328
f 258 328 276
f 258 276 259
f 259 276 264
f 259 263 329
f 259 329 330
f 259 330 262
f 259 262 260
f 260 262 261
f 262 330 329
f 262 329 263
f 265 267 266
f 265 315 331
f 265 331 332
f 265 332 267
f 267 333 268
f 267 332 333
f 268 333 327
f 268 327 269
f 270 272 271
f 271 272 283
f 271 283 334
f 271 334 277
f 271 277 273
f 274 277 276
f 274 276 275
f 275 276 328
f 277 334 281
f 277 279 278
f 281 334 283
f 281 283 282
f 285 289 335
f 285 335 336
f 285 336 286
f 286 336 337
f 286 337 338
f 286 338 292
f 288 339 290
f 289 340 335
f 289 290 341
f 289 341 342
f 289 342 340
f 290 339 341
f 291 338 293
f 291 292 338
f 293 338 294
f 294 343 344
f 294 344 400
f 294 400 345
f 294 345 295
f 294 338 343
f 295 345 346
f 295 346 347
f 295 347 296
f 297 348 349
f 297 349 350
f 297 350 298
f 298 300 299
f 298 350 351
f 298 351 352
f 298 352 300
f 300 352 301
f 301 303 302
f 301 352 353
f 301 353 303
f 303 353 354
f 303 354 304
f 304 354 355
f 304 355 356
f 304 356 357
f 304 357 358
f 304 358 359
f 304 359 305
f 305 359 360
f 305 360 309
f 306 361 307
f 306 310 361
f 307 361 362
f 307 362 363
f 307 363 308
f 308 363 420
f 308 420 364
f 308 364 311
f 309 360 310
f 310 360 365
f 310 365 366
f 310 366 367
f 310 367 368
f 310 368 369
f 310 369 370
f 310 370 361
f 311 371 372
f 311 372 373
f 311 373 312
f 311 364 367
f 311 367 366
f 311 366 365
f 311 365 374
f 311 374 371
f 312 373 313
f 313 373 332
f 313 332 331
f 313 331 315
f 313 315 314
f 316 327 317
f 317 327 318
f 318 375 332
f 318 332 376
f 318 376 377
f 318 377 319
f 318 327 375
f 319 377 376
f 319 376 378
f 319 378 379
f 319 379 380
f 319 380 320
f 320 380 381
f 320 381 382
f 320 382 383
f 320 383 321
f 321 383 322
f 322 384 385
f 322 385 386
f 322 386 323
f 322 383 384
f 323 386 387
f 323 387 388
f 323 388 439
f 323 439 504
f 323 504 502
f 323 502 576
f 323 576 662
f 323 662 661
f 323 661 706
f 323 706 705
f 323 705 704
f 323 704 703
f 323 703 719
f 323 719 718
f 323 718 716
f 323 716 715
f 323 715 714
f 323 714 669
f 323 669 599
f 323 599 603
f 323 603 527
f 323 527 525
f 323 525 524
f 323 524 460
f 323 460 520
f 323 520 519
f 323 519 595
f 323 595 596
f 323 596 591
f 323 591 594
f 323 594 593
f 323 593 668
f 323 668 667
f 323 667 588
f 323 588 510
f 323 510 587
f 323 587 586
f 323 586 585
f 323 585 584
f 323 584 583
f 323 583 582
f 323 582 581
f 323 581 580
f 323 580 666
f 323 666 713
f 323 713 712
f 323 712 723
f 323 723 728
f 323 728 721
f 323 721 710
f 323 710 709
f 323 709 707
f 323 707 663
f 323 663 577
f 323 577 505
f 323 505 440
f 323 440 389
f 323 389 324
f 324 389 390
f 324 390 325
f 325 390 391
f 325 391 326
f 327 333 375
f 332 373 392
f 332 392 376
f 332 375 333
f 335 337 336
f 335 340 393
f 335 393 394
f 335 394 395
f 335 395 337
f 337 396 338
f 337 395 396
f 338 396 343
f 340 397 393
f 343 398 399
f 343 399 344
f 343 396 398
f 344 399 400
f 345 400 401
f 345 401 402
f 345 402 346
f 346 402 403
f 346 403 350
f 346 350 349
f 346 349 347
f 347 349 404
f 347 404 348
f 348 404 349
f 350 403 405
f 350 405 351
f 351 405 406
f 351 406 352
f 352 406 407
f 352 407 353
f 353 407 408
f 353 408 409
f 353 409 355
f 353 355 354
f 355 409 410
f 355 410 411
f 355 411 412
f 355 412 356
f 356 412 413
f 356 413 357
f 357 413 414
f 357 414 415
f 357 415 358
f 358 415 416
f 358 416 359
f 359 417 360
f 359 416 418
f 359 418 419
f 359 419 417
f 360 417 365
f 361 370 369
f 361 369 362
f 362 369 420
f 362 420 363
f 364 420 368
f 364 368 367
f 365 417 421
f 365 421 422
f 365 422 423
f 365 423 374
f 368 420 369
f 371 424 372
f 371 374 424
f 372 425 426
f 372 426 427
f 372 427 428
f 372 428 429
f 372 429 430
f 372 430 373
f 372 424 425
f 373 430 392
f 374 425 424
f 374 423 425
f 376 392 378
f 378 392 431
f 378 431 432
f 378 432 380
f 378 380 379
f 380 432 381
f 381 432 431
f 381 431 433
f 381 433 434
f 381 434 383
f 381 383 382
f 383 434 435
f 383 435 436
f 383 436 384
f 384 436 385
f 385 436 437
f 385 437 438
f 385 438 386
f 386 438 387
f 387 438 388
f 388 438 439
f 389 440 390
f 390 440 441
f 392 430 431
f 393 397 442
f 393 442 443
f 393 443 444
f 393 444 394
f 394 445 446
f 394 446 400
f 394 400 447
f 394 447 395
f 394 444 448
f 394 448 508
f 394 508 445
f 395 447 396
f 396 447 398
f 398 447 399
f 399 447 400
f 400 446 449
f 400 449 401
f 401 450 451
f 401 451 452
f 401 452 453
f 401 453 402
f 401 449 513
f 401 513 450
f 402 453 454
f 402 454 403
f 403 455 406
f 403 406 405
f 403 454 456
f 403 456 455
f 406 455 456
f 406 456 407
f 407 456 408
f 408 456 452
f 408 452 457
f 408 457 458
f 408 458 409
f 409 458 459
f 409 459 460
f 409 460 461
f 409 461 462
f 409 462 463
f 409 463 464
f 409 464 465
f 409 465 410
f 410 466 467
f 410 467 468
f 410 468 469
f 410 469 411
f 410 465 531
f 410 531 466
f 411 470 471
f 411 471 472
f 411 472 473
f 411 473 474
f 411 474 413
f 411 413 412
f 411 469 470
f 413 474 414
f 414 474 475
f 414 475 476
f 414 476 477
f 414 477 478
f 414 478 479
f 414 479 415
f 415 479 480
f 415 480 481
f 415 481 416
f 416 481 482
f 416 482 418
f 417 419 483
f 417 483 422
f 417 422 421
f 418 482 484
f 418 484 419
f 419 485 486
f 419 486 487
f 419 487 483
f 419 484 485
f 422 483 488
f 422 488 423
f 423 488 489
f 423 489 490
f 423 490 491
f 423 491 428
f 423 428 427
f 423 427 426
f 423 426 425
f 428 491 429
f 429 491 490
f 429 490 492
f 429 492 430
f 430 492 431
f 431 492 433
f 433 492 493
f 433 493 494
f 433 494 435
f 433 435 434
f 435 494 495
f 435 495 496
f 435 496 497
f 435 497 498
f 435 498 437
f 435 437 436
f 437 498 438
f 438 499 500
f 438 500 501
f 438 501 502
f 438 502 503
f 438 503 439
f 438 498 499
f 439 503 504
f 440 505 441
f 441 505 506
f 443 448 444
f 445 507 446
f 445 508 507
f 446 507 509
f 446 509 510
f 446 510 511
f 446 511 512
f 446 512 449
f 449 512 514
f 449 514 515
f 449 515 513
f 450 516 517
f 450 517 457
f 450 457 451
f 450 513 516
f 451 457 452
f 452 456 454
f 452 454 453
f 457 517 516
f 457 516 458
f 458 516 459
f 459 518 519
f 459 519 520
f 459 520 460
f 459 516 521
f 459 521 522
f 459 522 523
f 459 523 518
f 460 524 461
f 461 524 462
f 462 524 525
f 462 525 464
f 462 464 463
f 464 526 465
f 464 525 527
f 464 527 528
f 464 528 526
f 465 526 529
f 465 529 530
f 465 530 606
f 465 606 531
f 466 531 532
f 466 532 533
f 466 533 534
f 466 534 535
f 466 535 467
f 467 535 536
f 467 536 468
f 468 536 537
f 468 537 538
f 468 538 539
f 468 539 540
f 468 540 541
f 468 541 469
f 469 541 542
f 469 542 543
f 469 543 544
f 469 544 470
f 470 544 545
f 470 545 546
f 470 546 471
f 471 546 547
f 471 547 472
f 472 547 548
f 472 548 473
f 473 548 474
f 474 548 475
f 475 548 476
f 476 478 477
f 476 548 547
f 476 547 546
f 476 546 478
f 478 546 549
f 478 549 550
f 478 550 551
f 478 551 479
f 479 482 480
f 479 551 482
f 480 482 481
f 482 551 552
f 482 552 553
f 482 553 554
f 482 554 555
f 482 555 484
f 483 487 556
f 483 556 557
f 483 557 488
f 484 555 554
f 484 554 558
f 484 558 559
f 484 559 487
f 484 487 486
f 484 486 485
f 487 559 560
f 487 560 556
f 488 557 489
f 489 557 561
f 489 561 562
f 489 562 563
f 489 563 490
f 490 563 564
f 490 564 565
f 490 565 492
f 492 565 493
f 493 565 494
f 494 565 566
f 494 566 567
f 494 567 568
f 494 568 569
f 494 569 496
f 494 496 495
f 496 569 570
f 496 570 571
f 496 571 572
f 496 572 497
f 497 572 499
f 497 499 498
f 499 572 573
f 499 573 574
f 499 574 500
f 500 574 501
f 501 575 576
f 501 576 502
f 501 574 575
f 502 504 503
f 505 577 506
f 506 577 578
f 507 508 509
f 508 579 580
f 508 580 581
f 508 581 582
f 508 582 583
f 508 583 584
f 508 584 585
f 508 585 586
f 508 586 587
f 508 587 509
f 509 587 510
f 510 588 589
f 510 589 511
f 511 589 512
f 512 589 588
f 512 588 590
f 512 590 592
f 512 592 514
f 513 521 516
f 513 515 591
f 513 591 523
f 513 523 521
f 514 592 593
f 514 593 594
f 514 594 591
f 514 591 515
f 518 523 595
f 518 595 519
f 521 523 522
f 523 591 596
f 523 596 595
f 526 528 597
f 526 597 598
f 526 598 599
f 526 599 600
f 526 600 601
f 526 601 602
f 526 602 529
f 527 603 597
f 527 597 528
f 529 602 530
f 530 602 604
f 530 604 605
f 530 605 672
f 530 672 606
f 531 607 610
f 531 610 532
f 531 606 672
f 531 672 608
f 531 608 609
f 531 609 674
f 531 674 607
f 532 610 611
f 532 611 612
f 532 612 533
f 533 612 534
f 534 613 570
f 534 570 614
f 534 614 615
f 534 615 616
f 534 616 617
f 534 617 535
f 534 612 613
f 535 617 618
f 535 618 536
f 536 618 619
f 536 619 537
f 537 619 538
f 538 619 620
f 538 620 621
f 538 621 622
f 538 622 623
f 538 623 625
f 538 625 624
f 538 624 539
f 539 624 625
f 539 625 540
f 540 542 541
f 540 625 626
f 540 626 627
f 540 627 543
f 540 543 542
f 543 627 626
f 543 626 628
f 543 628 550
f 543 550 544
f 544 550 545
f 545 550 549
f 545 549 546
f 550 628 626
f 550 626 551
f 551 626 629
f 551 629 552
f 552 629 630
f 552 630 631
f 552 631 632
f 552 632 553
f 553 633 634
f 553 634 558
f 553 558 554
f 553 632 635
f 553 635 633
f 556 561 557
f 556 560 559
f 556 559 636
f 556 636 634
f 556 634 561
f 558 634 636
f 558 636 559
f 561 634 562
f 562 634 637
f 562 637 638
f 562 638 639
f 562 639 564
f 562 564 563
f 564 639 565
f 565 639 640
f 565 640 566
f 566 640 641
f 566 641 567
f 567 641 642
f 567 642 643
f 567 643 644
f 567 644 568
f 568 645 646
f 568 646 569
f 568 644 643
f 568 643 647
f 568 647 691
f 568 691 645
f 569 646 614
f 569 614 570
f 570 613 648
f 570 648 649
f 570 649 650
f 570 650 571
f 571 651 573
f 571 573 572
f 571 650 651
f 573 652 653
f 573 653 574
f 573 651 654
f 573 654 655
f 573 655 656
f 573 656 610
f 573 610 652
f 574 653 674
f 574 674 657
f 574 657 702
f 574 702 658
f 574 658 659
f 574 659 660
f 574 660 575
f 575 660 661
f 575 661 662
f 575 662 576
f 577 663 578
f 578 663 664
f 579 665 666
f 579 666 580
f 588 667 590
f 590 667 668
f 590 668 592
f 592 668 593
f 597 603 598
f 598 603 599
f 599 669 670
f 599 670 600
f 600 670 601
f 601 670 602
f 602 670 604
f 604 671 672
f 604 672 605
f 604 670 700
f 604 700 671
f 607 673 610
f 607 674 673
f 608 672 674
f 608 674 609
f 610 675 677
f 610 677 611
f 610 673 676
f 610 676 653
f 610 653 652
f 610 656 675
f 611 677 612
f 612 677 678
f 612 678 613
f 613 649 648
f 613 678 649
f 614 646 615
f 615 646 679
f 615 679 616
f 616 679 646
f 616 646 617
f 617 646 680
f 617 680 618
f 618 680 681
f 618 681 682
f 618 682 620
f 618 620 619
f 620 682 683
f 620 683 621
f 621 683 686
f 621 686 684
f 621 684 622
f 622 684 623
f 623 684 629
f 623 629 626
f 623 626 685
f 623 685 625
f 625 685 626
f 629 684 686
f 629 686 687
f 629 687 630
f 630 687 689
f 630 689 631
f 631 688 635
f 631 635 632
f 631 689 690
f 631 690 691
f 631 691 688
f 633 692 693
f 633 693 694
f 633 694 634
f 633 635 643
f 633 643 692
f 634 694 637
f 635 688 643
f 637 694 693
f 637 693 695
f 637 695 638
f 638 695 693
f 638 693 639
f 639 693 696
f 639 696 640
f 640 696 643
f 640 643 642
f 640 642 641
f 643 696 693
f 643 693 692
f 643 688 697
f 643 697 647
f 645 691 690
f 645 690 680
f 645 680 646
f 647 697 691
f 649 678 698
f 649 698 651
f 649 651 650
f 651 698 654
f 653 676 673
f 653 673 674
f 654 698 699
f 654 699 655
f 655 699 675
f 655 675 656
f 657 674 672
f 657 672 671
f 657 671 700
f 657 700 701
f 657 701 702
f 658 702 703
f 658 703 659
f 659 703 704
f 659 704 705
f 659 705 706
f 659 706 660
f 660 706 661
f 663 707 664
f 664 707 709
f 664 709 710
f 664 710 708
f 665 711 712
f 665 712 713
f 665 713 666
f 669 714 670
f 670 714 715
f 670 715 716
f 670 716 700
f 675 699 677
f 677 699 678
f 678 699 698
f 680 690 717
f 680 717 687
f 680 687 686
f 680 686 681
f 681 686 683
f 681 683 682
f 687 717 689
f 688 691 697
f 689 717 690
f 700 716 718
f 700 718 719
f 700 719 703
f 700 703 701
f 701 703 702
f 708 710 720
f 710 721 720
f 711 722 712
f 712 722 724
f 712 724 725
f 712 725 726
f 712 726 723
f 720 721 728
f 720 728 727
f 723 726 729
f 723 729 728
f 727 728 729

