# https://github.com/mikedh/trimesh
v 0.02617711 0.05026634 -0.01037177
v 0.02455563 0.05026634 -0.01036776
v 0.02617711 0.05185655 -0.01037177
v 0.03914532 0.05026634 -0.01037177
v 0.02293776 0.05026634 -0.01031554
v 0.02779859 0.05347750 -0.01036977
v 0.03428450 0.05834036 -0.01037177
v 0.05049566 0.06320461 -0.01037177
v 0.05373140 0.06454189 -0.01031554
v 0.05536010 0.06454189 -0.01015285
v 0.05663850 0.06454189 -0.00991585
v 0.04050678 0.05026634 -0.01004841
v 0.02455563 0.05185655 -0.01025327
v 0.03104154 0.05672080 -0.01028541
v 0.02942006 0.05509845 -0.01034366
v 0.02135240 0.05026634 -0.01006448
v 0.03590598 0.05996131 -0.01032558
v 0.04076680 0.06320461 -0.01033763
v 0.03914532 0.06158366 -0.01037177
v 0.05049566 0.06454189 -0.01037177
v 0.05211714 0.06454189 -0.01035771
v 0.05724881 0.06454189 -0.00891362
v 0.05623042 0.06398015 -0.00976321
v 0.04115682 0.05026634 -0.00891362
v 0.02778775 0.05513199 -0.01009059
v 0.02949952 0.05669146 -0.01002230
v 0.03429172 0.05999065 -0.01007653
v 0.02041707 0.05026634 -0.00891362
v 0.02189410 0.05122075 -0.00987568
v 0.02831862 0.05613251 -0.00990380
v 0.03752745 0.06158366 -0.01021712
v 0.04076680 0.06454189 -0.01001628
v 0.04400975 0.06454189 -0.01036977
v 0.03913088 0.06324373 -0.01008456
v 0.04238828 0.06320461 -0.01037177
v 0.04563123 0.06454189 -0.01037177
v 0.05725242 0.06454189 -0.00871077
v 0.04125794 0.05026634 -0.00729078
v 0.04125433 0.05026634 -0.00734902
v 0.03104154 0.05799241 -0.00996205
v 0.03296637 0.05946804 -0.00993995
v 0.03483703 0.06094646 -0.00987970
v 0.03966174 0.06420792 -0.00989577
v 0.02038818 0.05026634 -0.00804797
v 0.02095155 0.05068835 -0.00891362
v 0.02367086 0.05272432 -0.00978128
v 0.03009177 0.05763608 -0.00982547
v 0.04074152 0.06454189 -0.01001226
v 0.05725965 0.06454189 -0.00729078
v 0.04125071 0.05026634 0.00729876
v 0.03670408 0.06240252 -0.00973308
v 0.03984953 0.06454189 -0.00890559
v 0.02036651 0.05026634 -0.00729078
v 0.02093349 0.05071071 -0.00729078
v 0.02176409 0.05132416 -0.00891362
v 0.02361669 0.05276624 -0.00891362
v 0.03000510 0.05770316 -0.00891362
v 0.03187937 0.05912428 -0.00891362
v 0.05692741 0.06454189 0.00729876
v 0.04124710 0.05026634 0.00747149
v 0.03668963 0.06241370 -0.00891362
v 0.03949923 0.06431971 -0.00891362
v 0.03981341 0.06454189 -0.00729078
v 0.02038457 0.05026634 -0.00566994
v 0.02093710 0.05070232 -0.00566994
v 0.02175687 0.05133394 -0.00404910
v 0.02546568 0.05420972 0.00081341
v 0.02360225 0.05277742 -0.00404910
v 0.02360225 0.05277742 -0.00729078
v 0.02546207 0.05421532 -0.00080542
v 0.02731828 0.05565321 -0.00729078
v 0.02917811 0.05709111 -0.00729078
v 0.02999065 0.05771713 -0.00729078
v 0.03104154 0.05852201 -0.00729078
v 0.03186131 0.05914524 -0.00729078
v 0.05668906 0.06454189 0.00892161
v 0.04114237 0.05026634 0.00896981
v 0.03949201 0.06433229 -0.00729078
v 0.03996870 0.06454189 0.00729876
v 0.02040624 0.05026634 -0.00404910
v 0.02095877 0.05068555 -0.00242626
v 0.02098044 0.05066739 0.00081341
v 0.02362752 0.05275925 0.00081341
v 0.02361669 0.05276764 -0.00080542
v 0.02732551 0.05564343 0.00405709
v 0.02999787 0.05771433 0.00729876
v 0.02813805 0.05627924 0.00405709
v 0.02731828 0.05565321 0.00081341
v 0.02999065 0.05771713 0.00567793
v 0.02813083 0.05628063 0.00243424
v 0.02917811 0.05709111 0.00243424
v 0.03104154 0.05852201 0.00567793
v 0.03186131 0.05914524 0.00729876
v 0.05638932 0.06454189 0.00927510
v 0.04049234 0.05026634 0.00992384
v 0.04112432 0.05026634 0.00902002
v 0.03267024 0.05968463 0.00729876
v 0.04006620 0.06454189 0.00831103
v 0.03964368 0.06422190 0.00892161
v 0.02052902 0.05026634 0.00481227
v 0.02183632 0.05127245 0.00729876
v 0.02733634 0.05563504 0.00567793
v 0.02918533 0.05707713 0.00729876
v 0.03006649 0.05765984 0.00892161
v 0.03104154 0.05851922 0.00729876
v 0.02917811 0.05708971 0.00405709
v 0.03195159 0.05905302 0.00892161
v 0.03477564 0.06098139 0.00892161
v 0.05533482 0.06454189 0.00995597
v 0.05495202 0.06378312 0.00986961
v 0.04046345 0.05026634 0.00993990
v 0.04015288 0.06454189 0.00892161
v 0.03979897 0.06411709 0.00981538
v 0.02056514 0.05026634 0.00729876
v 0.02370336 0.05270196 0.00842752
v 0.02734717 0.05562526 0.00729876
v 0.02191215 0.05121236 0.00892161
v 0.03016400 0.05758158 0.00977521
v 0.03493453 0.06087659 0.00981538
v 0.05520120 0.06454189 0.00997606
v 0.03918504 0.05026634 0.01014276
v 0.04030816 0.06454189 0.00934540
v 0.03921394 0.06318225 0.00994794
v 0.04076680 0.06439657 0.00989773
v 0.04120377 0.06454189 0.00992183
v 0.04088597 0.06454189 0.00977320
v 0.02073848 0.05026634 0.00892161
v 0.02202772 0.05112014 0.00979128
v 0.02381170 0.05260135 0.00950808
v 0.02841973 0.05605705 0.00983747
v 0.03306027 0.05938559 0.00986961
v 0.03434950 0.05994035 0.00994794
v 0.05345333 0.06454189 0.01013874
v 0.03914532 0.05026634 0.01014678
v 0.04076680 0.06320461 0.01010460
v 0.04197659 0.06454189 0.01000618
v 0.02085404 0.05026634 0.00920079
v 0.02147880 0.05026634 0.00990777
v 0.02784553 0.05507610 0.00995999
v 0.02954285 0.05664674 0.00990375
v 0.02152935 0.05026634 0.00991781
v 0.03104154 0.05672080 0.01007447
v 0.03590598 0.05996131 0.01010460
v 0.05183185 0.06454189 0.01014678
v 0.02458813 0.05026634 0.01014678
v 0.04372446 0.06454189 0.01014477
v 0.03914532 0.06158366 0.01014477
v 0.02942006 0.05509845 0.01012066
v 0.02296305 0.05026634 0.01008652
v 0.03428450 0.05834036 0.01014477
v 0.04534594 0.06454189 0.01014678
v 0.02617711 0.05185655 0.01014678
v 0.04238828 0.06320461 0.01014678
v 0.03266302 0.05672080 0.01014678
v 0.02779859 0.05347750 0.01014477
f 1 2 3
f 1 3 7
f 1 7 19
f 1 19 35
f 1 35 36
f 1 36 20
f 1 20 8
f 1 8 4
f 1 4 12
f 1 12 24
f 1 24 39
f 1 39 38
f 1 38 50
f 1 50 60
f 1 60 77
f 1 77 96
f 1 96 95
f 1 95 111
f 1 111 121
f 1 121 134
f 1 134 145
f 1 145 149
f 1 149 141
f 1 141 138
f 1 138 137
f 1 137 127
f 1 127 114
f 1 114 100
f 1 100 80
f 1 80 64
f 1 64 53
f 1 53 44
f 1 44 28
f 1 28 16
f 1 16 5
f 1 5 2
f 2 5 3
f 3 5 6
f 3 6 7
f 4 8 9
f 4 9 10
f 4 10 11
f 4 11 12
f 5 13 14
f 5 14 15
f 5 15 6
f 5 16 13
f 6 15 7
f 7 17 18
f 7 18 19
f 7 15 17
f 8 20 21
f 8 21 9
f 9 21 20
f 9 20 36
f 9 36 33
f 9 33 32
f 9 32 48
f 9 48 52
f 9 52 63
f 9 63 79
f 9 79 98
f 9 98 112
f 9 112 122
f 9 122 126
f 9 126 125
f 9 125 136
f 9 136 146
f 9 146 151
f 9 151 144
f 9 144 133
f 9 133 120
f 9 120 109
f 9 109 94
f 9 94 76
f 9 76 59
f 9 59 49
f 9 49 37
f 9 37 22
f 9 22 11
f 9 11 10
f 11 22 23
f 11 23 12
f 12 23 24
f 13 16 25
f 13 25 14
f 14 25 26
f 14 26 27
f 14 27 17
f 14 17 15
f 16 28 29
f 16 29 30
f 16 30 26
f 16 26 25
f 17 27 31
f 17 31 18
f 18 32 33
f 18 33 19
f 18 31 34
f 18 34 32
f 19 33 35
f 22 37 38
f 22 38 39
f 22 39 24
f 22 24 23
f 26 30 40
f 26 40 41
f 26 41 27
f 27 41 42
f 27 42 43
f 27 43 34
f 27 34 31
f 28 44 45
f 28 45 46
f 28 46 29
f 29 46 47
f 29 47 30
f 30 47 41
f 30 41 40
f 32 34 48
f 33 36 35
f 34 43 48
f 37 49 38
f 38 49 50
f 41 47 42
f 42 51 43
f 42 47 51
f 43 51 52
f 43 52 48
f 44 53 54
f 44 54 45
f 45 54 55
f 45 55 46
f 46 55 56
f 46 56 57
f 46 57 47
f 47 57 58
f 47 58 51
f 49 59 60
f 49 60 50
f 51 61 62
f 51 62 52
f 51 58 61
f 52 62 63
f 53 64 65
f 53 65 66
f 53 66 67
f 53 67 54
f 54 68 69
f 54 69 56
f 54 56 55
f 54 67 70
f 54 70 68
f 56 69 71
f 56 71 72
f 56 72 57
f 57 72 73
f 57 73 74
f 57 74 75
f 57 75 58
f 58 75 61
f 59 76 77
f 59 77 60
f 61 78 62
f 61 75 78
f 62 78 63
f 63 78 79
f 64 80 66
f 64 66 65
f 66 80 81
f 66 81 82
f 66 82 83
f 66 83 84
f 66 84 85
f 66 85 67
f 67 85 86
f 67 86 87
f 67 87 70
f 68 70 88
f 68 88 71
f 68 71 69
f 70 87 89
f 70 89 90
f 70 90 88
f 71 88 91
f 71 91 72
f 72 91 89
f 72 89 73
f 73 89 92
f 73 92 74
f 74 92 93
f 74 93 75
f 75 93 78
f 76 94 95
f 76 95 96
f 76 96 77
f 78 93 97
f 78 97 79
f 79 97 99
f 79 99 98
f 80 100 82
f 80 82 81
f 82 101 83
f 82 100 101
f 83 101 102
f 83 102 84
f 84 102 103
f 84 103 85
f 85 103 86
f 86 89 87
f 86 103 104
f 86 104 105
f 86 105 89
f 88 90 89
f 88 89 106
f 88 106 91
f 89 91 106
f 89 105 92
f 92 105 93
f 93 107 108
f 93 108 97
f 93 105 104
f 93 104 107
f 94 109 110
f 94 110 95
f 95 110 111
f 97 108 99
f 98 99 112
f 99 108 113
f 99 113 112
f 100 114 101
f 101 114 115
f 101 115 116
f 101 116 102
f 102 116 103
f 103 116 115
f 103 115 104
f 104 115 117
f 104 117 118
f 104 118 107
f 107 119 108
f 107 118 119
f 108 119 113
f 109 120 121
f 109 121 111
f 109 111 110
f 112 113 122
f 113 119 123
f 113 123 124
f 113 124 125
f 113 125 126
f 113 126 122
f 114 127 115
f 115 127 117
f 117 127 128
f 117 128 129
f 117 129 118
f 118 129 128
f 118 128 130
f 118 130 131
f 118 131 119
f 119 131 132
f 119 132 123
f 120 133 134
f 120 134 121
f 123 132 135
f 123 135 136
f 123 136 125
f 123 125 124
f 127 137 128
f 128 137 138
f 128 138 130
f 130 139 140
f 130 140 131
f 130 138 141
f 130 141 139
f 131 140 132
f 132 142 143
f 132 143 135
f 132 140 139
f 132 139 142
f 133 144 134
f 134 144 151
f 134 151 153
f 134 153 154
f 134 154 152
f 134 152 145
f 135 146 136
f 135 143 150
f 135 150 147
f 135 147 146
f 139 148 142
f 139 141 149
f 139 149 148
f 142 148 143
f 143 148 150
f 145 152 149
f 146 153 151
f 146 147 153
f 147 150 154
f 147 154 153
f 148 149 155
f 148 155 150
f 149 152 155
f 150 155 154
f 152 154 155

