# https://github.com/mikedh/trimesh
v 0.11859595 -0.04218295 0.01037977
v 0.12021757 -0.04218295 0.01034764
v 0.11697434 -0.04218295 0.01037977
v 0.11859595 -0.05515956 0.01037977
v 0.12021757 -0.05353671 0.01035567
v 0.12021757 -0.05029411 0.01035367
v 0.12132619 -0.04543174 0.01002630
v 0.12132463 -0.04380889 0.01002429
v 0.12132151 -0.04218913 0.01002228
v 0.12132307 -0.04218295 0.01002028
v 0.12133710 -0.05353671 0.01003233
v 0.12133243 -0.05029411 0.01003032
v 0.11535273 -0.04218295 0.01028136
v 0.10630911 -0.06420115 0.01036773
v 0.10630911 -0.06488429 0.01037977
v 0.10886939 -0.06812690 0.01037977
v 0.11049100 -0.06650714 0.01037777
v 0.11535273 -0.06002193 0.01037576
v 0.11697434 -0.05839908 0.01033157
v 0.11859595 -0.05677932 0.01024722
v 0.12029397 -0.05522757 0.01011065
v 0.12123419 -0.05473608 0.00993191
v 0.12170197 -0.05191695 0.00892170
v 0.12167858 -0.04380889 0.00892170
v 0.12167390 -0.04218913 0.00892170
v 0.12167390 -0.04218295 0.00891768
v 0.12169729 -0.05029411 0.00892170
v 0.12169885 -0.05353671 0.00892170
v 0.11432207 -0.04218295 0.00995802
v 0.10630911 -0.06323981 0.01020706
v 0.10630911 -0.07068636 0.01037977
v 0.10724778 -0.06974975 0.01037977
v 0.10886939 -0.06974975 0.01027333
v 0.11211106 -0.06488429 0.01033961
v 0.11373267 -0.06326453 0.01026128
v 0.11698993 -0.06000029 0.01008053
v 0.12086621 -0.05577161 0.00892170
v 0.12136050 -0.05496173 0.00892170
v 0.11795822 -0.05944698 0.00988371
v 0.11944574 -0.05764484 0.00977325
v 0.12178928 -0.05191695 0.00729893
v 0.12175810 -0.04218913 0.00729893
v 0.12176902 -0.04543174 0.00729893
v 0.12175810 -0.04218295 0.00729491
v 0.12175810 -0.05353671 0.00729893
v 0.11408506 -0.04218295 0.00892170
v 0.10630911 -0.06215172 0.00992789
v 0.10630911 -0.06259375 0.01006446
v 0.10630911 -0.07136951 0.01032957
v 0.10724778 -0.07136951 0.01026128
v 0.10875557 -0.07126750 0.00994195
v 0.11006533 -0.06974975 0.00994998
v 0.11213601 -0.06650096 0.01008856
v 0.11311209 -0.06595382 0.00989576
v 0.11645979 -0.06124602 0.00994396
v 0.12020822 -0.05677932 0.00729893
v 0.12090052 -0.05577470 0.00729893
v 0.11948784 -0.05770357 0.00892170
v 0.11952370 -0.05775303 0.00729893
v 0.12137609 -0.05496173 0.00729893
v 0.10975348 -0.07065854 0.00980538
v 0.10981585 -0.07073582 0.00892170
v 0.12189220 -0.05191695 0.00405741
v 0.12186101 -0.04218913 0.00405741
v 0.12182047 -0.04543174 0.00567817
v 0.12186101 -0.04218295 0.00405340
v 0.12176278 -0.05353671 0.00567817
v 0.12216195 -0.05191695 -0.00729191
v 0.12215415 -0.05191695 -0.00566914
v 0.12213232 -0.05191695 -0.00404838
v 0.12209490 -0.05191695 -0.00242763
v 0.12204500 -0.05191695 -0.00080486
v 0.11408194 -0.04218295 0.00729893
v 0.10630911 -0.06185806 0.00838948
v 0.10630911 -0.06186424 0.00892170
v 0.10630911 -0.06205281 0.00971701
v 0.10630911 -0.07236176 0.01016488
v 0.10724778 -0.07249159 0.00993793
v 0.10813811 -0.07223503 0.00979132
v 0.11161210 -0.06775596 0.00994597
v 0.11952682 -0.05776539 0.00567817
v 0.12086310 -0.05570978 0.00567817
v 0.12129345 -0.05477008 0.00243465
v 0.12132775 -0.05483499 0.00405741
v 0.12135582 -0.05489991 0.00567817
v 0.11620563 -0.06251338 -0.00080486
v 0.11288288 -0.06725520 -0.00729191
v 0.11339899 -0.06644532 -0.00729191
v 0.11062666 -0.06974975 0.00729893
v 0.11126439 -0.06889041 0.00729893
v 0.11267706 -0.06698627 0.00729893
v 0.11273164 -0.06706045 0.00405741
v 0.11417082 -0.06519340 0.00243465
v 0.11221241 -0.06812690 -0.00404838
v 0.11286729 -0.06724283 -0.00404838
v 0.11620875 -0.06251338 0.00081389
v 0.12163336 -0.05353671 -0.00566914
v 0.12167858 -0.05353671 -0.00404838
v 0.12170664 -0.05353671 -0.00242763
v 0.12176122 -0.05353671 0.00405741
v 0.10901284 -0.07154879 0.00892170
v 0.10985327 -0.07077601 0.00729893
v 0.12219469 -0.05029411 -0.00566914
v 0.12197951 -0.04705150 0.00081389
v 0.12196392 -0.04218913 0.00081389
v 0.12196392 -0.04218295 0.00080987
v 0.12157411 -0.05353671 -0.00729191
v 0.12136205 -0.05360781 -0.00875802
v 0.12194989 -0.05191695 -0.00891267
v 0.12223835 -0.05029411 -0.00729191
v 0.11423319 -0.04218295 -0.00729191
v 0.10630911 -0.06187043 0.00729893
v 0.10630911 -0.07281925 0.01003233
v 0.10630911 -0.07342821 0.00906630
v 0.10630911 -0.07348385 0.00892170
v 0.10820204 -0.07228139 0.00892170
v 0.11289224 -0.06727374 -0.00566914
v 0.12117338 -0.05457843 -0.00242763
v 0.12125446 -0.05470516 0.00081389
v 0.11945666 -0.05766957 0.00243465
v 0.11228102 -0.06812690 -0.00729191
v 0.11146553 -0.06914697 -0.00891267
v 0.11464327 -0.06423206 -0.00891267
v 0.11783816 -0.05929551 -0.00850898
v 0.12102994 -0.05434968 -0.00811333
v 0.11972485 -0.05647330 -0.00729191
v 0.11925240 -0.05734809 -0.00566914
v 0.11071865 -0.06977448 0.00405741
v 0.11145617 -0.06914697 -0.00404838
v 0.11226386 -0.06812690 -0.00566914
v 0.10904247 -0.07158589 0.00729893
v 0.11150919 -0.06920261 -0.00729191
v 0.11148268 -0.06917789 -0.00566914
v 0.11074360 -0.06981157 0.00243465
v 0.10990785 -0.07081310 0.00405741
v 0.12207619 -0.04543174 -0.00242763
v 0.12202005 -0.04380889 -0.00080486
v 0.12200602 -0.04218913 -0.00080486
v 0.12200602 -0.04218295 -0.00080888
v 0.12105020 -0.05438368 -0.00729191
v 0.11963597 -0.05633729 -0.00891267
v 0.11773213 -0.05915641 -0.00958949
v 0.11951435 -0.05614872 -0.00981242
v 0.12087713 -0.05419512 -0.00919384
v 0.12124199 -0.05311631 -0.00986062
v 0.12138232 -0.05191695 -0.00992890
v 0.12201849 -0.05029411 -0.00891267
v 0.12220716 -0.04867435 -0.00729191
v 0.12215883 -0.04705150 -0.00566914
v 0.12211049 -0.04543174 -0.00404838
v 0.12205904 -0.04380889 -0.00242763
v 0.11430492 -0.04218295 -0.00891267
v 0.10630911 -0.06238356 -0.00862949
v 0.10630911 -0.06229700 -0.00729191
v 0.10630911 -0.07356112 0.00747567
v 0.10630911 -0.07357040 0.00729893
v 0.10724778 -0.07295835 0.00729893
v 0.10823166 -0.07230612 0.00729893
v 0.11137509 -0.06903260 -0.00978631
v 0.11456999 -0.06412078 -0.00975016
v 0.11074984 -0.07001250 -0.00729191
v 0.11067499 -0.06995685 -0.00891267
v 0.10905182 -0.07160443 0.00567817
v 0.10993280 -0.07082855 0.00243465
v 0.10994683 -0.07082855 0.00081389
v 0.12202162 -0.04218295 -0.00242964
v 0.11631322 -0.06108219 -0.00983652
v 0.12021757 -0.05191695 -0.01013577
v 0.11664222 -0.06002193 -0.00991083
v 0.11858036 -0.05672368 -0.00994095
v 0.11859595 -0.05515956 -0.01009962
v 0.12028773 -0.05360781 -0.00997108
v 0.12140571 -0.05029411 -0.00993091
v 0.12132463 -0.04218913 -0.00993091
v 0.12197795 -0.04867435 -0.00891267
v 0.12181423 -0.04218295 -0.00891468
v 0.12216350 -0.04705150 -0.00729191
v 0.12206995 -0.04380889 -0.00404838
v 0.11446084 -0.04218295 -0.00980037
v 0.10630911 -0.06254430 -0.00956740
v 0.10630911 -0.07360131 0.00567817
v 0.10724778 -0.07298617 0.00567817
v 0.10630911 -0.07368786 0.00085406
v 0.10630911 -0.07371877 -0.00088520
v 0.10633094 -0.07373114 -0.00242763
v 0.10824102 -0.07231848 0.00567817
v 0.11049100 -0.06812690 -0.01008154
v 0.11160742 -0.06812690 -0.00987468
v 0.11311053 -0.06602183 -0.00985259
v 0.10975816 -0.07062454 -0.00977426
v 0.11037562 -0.06964465 -0.00987468
v 0.10993903 -0.07077292 -0.00729191
v 0.10994995 -0.07080692 -0.00242763
v 0.10995151 -0.07079455 -0.00404838
v 0.10994839 -0.07078219 -0.00566914
v 0.10986419 -0.07071109 -0.00891267
v 0.10904558 -0.07162298 0.00405741
v 0.10903155 -0.07163844 0.00243465
v 0.12201849 -0.04218295 -0.00405240
v 0.12202005 -0.04218913 -0.00404838
v 0.12021757 -0.05029411 -0.01013778
v 0.11535273 -0.06002193 -0.01011769
v 0.11211106 -0.06488429 -0.01012974
v 0.11697434 -0.05677932 -0.01013778
v 0.11368278 -0.06474828 -0.00989878
v 0.11536052 -0.06162932 -0.00995702
v 0.12021757 -0.04218913 -0.01013778
v 0.12132151 -0.04218295 -0.00993091
v 0.12201070 -0.04218295 -0.00729392
v 0.12206215 -0.04380889 -0.00729191
v 0.11535117 -0.04218295 -0.01000924
v 0.11446240 -0.04218913 -0.00980238
v 0.10630911 -0.06334490 -0.00994497
v 0.10630911 -0.07374350 -0.00238545
v 0.10630911 -0.07376205 -0.00404838
v 0.10634498 -0.07373732 -0.00404838
v 0.10823634 -0.07231848 0.00405741
v 0.11215004 -0.06653805 -0.00996706
v 0.10886939 -0.06974975 -0.01007150
v 0.10724778 -0.06974975 -0.01013778
v 0.11049100 -0.06650714 -0.01013778
v 0.10799777 -0.07212065 -0.00952924
v 0.10691722 -0.07251632 -0.00986062
v 0.10886939 -0.07096766 -0.00986464
v 0.10810692 -0.07221957 -0.00844873
v 0.10901752 -0.07163844 0.00081389
v 0.10900349 -0.07162916 -0.00080486
v 0.10818020 -0.07228139 -0.00242763
v 0.10724778 -0.07299854 -0.00566914
v 0.10724778 -0.07297381 -0.00729191
v 0.12201538 -0.04218295 -0.00567316
v 0.12021445 -0.04218295 -0.01013778
v 0.11697122 -0.04218295 -0.01013577
v 0.11697434 -0.04218913 -0.01013778
v 0.11535273 -0.04543174 -0.01013577
v 0.10630911 -0.06488429 -0.01013175
v 0.10630911 -0.07375278 -0.00566914
v 0.10634185 -0.07373114 -0.00566914
v 0.10822231 -0.07231230 0.00243465
v 0.10630911 -0.07141896 -0.01007150
v 0.10630911 -0.07276670 -0.00991485
v 0.10630911 -0.06974975 -0.01013778
v 0.10630911 -0.07353948 -0.00891668
v 0.10633094 -0.07371877 -0.00729191
v 0.10630911 -0.07369713 -0.00761727
v 0.10820827 -0.07230303 0.00081389
v 0.11859284 -0.04218295 -0.01013778
v 0.10630911 -0.06650714 -0.01013778
v 0.10630911 -0.07373423 -0.00729191
f 1 2 10
f 1 10 26
f 1 26 44
f 1 44 66
f 1 66 106
f 1 106 139
f 1 139 166
f 1 166 199
f 1 199 231
f 1 231 209
f 1 209 176
f 1 176 208
f 1 208 232
f 1 232 247
f 1 247 233
f 1 233 211
f 1 211 179
f 1 179 152
f 1 152 111
f 1 111 73
f 1 73 46
f 1 46 29
f 1 29 13
f 1 13 3
f 1 3 15
f 1 15 31
f 1 31 32
f 1 32 16
f 1 16 4
f 1 4 5
f 1 5 6
f 1 6 2
f 2 7 8
f 2 8 9
f 2 9 10
f 2 6 11
f 2 11 12
f 2 12 7
f 3 13 14
f 3 14 15
f 4 16 17
f 4 17 18
f 4 18 5
f 5 18 19
f 5 19 20
f 5 20 21
f 5 21 22
f 5 22 11
f 5 11 6
f 7 12 8
f 8 10 9
f 8 12 11
f 8 11 23
f 8 23 10
f 10 24 25
f 10 25 26
f 10 23 27
f 10 27 24
f 11 22 28
f 11 28 23
f 13 29 14
f 14 30 48
f 14 48 47
f 14 47 76
f 14 76 75
f 14 75 74
f 14 74 112
f 14 112 154
f 14 154 153
f 14 153 180
f 14 180 213
f 14 213 236
f 14 236 248
f 14 248 242
f 14 242 240
f 14 240 241
f 14 241 243
f 14 243 245
f 14 245 249
f 14 249 237
f 14 237 215
f 14 215 214
f 14 214 184
f 14 184 183
f 14 183 181
f 14 181 156
f 14 156 155
f 14 155 115
f 14 115 114
f 14 114 113
f 14 113 77
f 14 77 49
f 14 49 31
f 14 31 15
f 14 29 30
f 16 32 33
f 16 33 17
f 17 33 34
f 17 34 18
f 18 34 19
f 19 34 33
f 19 33 35
f 19 35 20
f 20 35 36
f 20 36 21
f 21 36 22
f 22 37 38
f 22 38 28
f 22 36 39
f 22 39 40
f 22 40 37
f 23 28 41
f 23 41 27
f 24 27 41
f 24 41 25
f 25 42 44
f 25 44 26
f 25 41 43
f 25 43 42
f 28 38 45
f 28 45 41
f 29 46 47
f 29 47 48
f 29 48 30
f 31 49 33
f 31 33 32
f 33 49 50
f 33 50 51
f 33 51 52
f 33 52 53
f 33 53 35
f 35 53 36
f 36 53 54
f 36 54 55
f 36 55 39
f 37 56 57
f 37 57 38
f 37 40 58
f 37 58 59
f 37 59 56
f 38 57 60
f 38 60 45
f 39 55 54
f 39 54 61
f 39 61 40
f 40 61 62
f 40 62 58
f 41 45 63
f 41 63 65
f 41 65 43
f 42 64 66
f 42 66 44
f 42 43 65
f 42 65 64
f 45 60 67
f 45 67 68
f 45 68 69
f 45 69 70
f 45 70 71
f 45 71 72
f 45 72 63
f 46 73 74
f 46 74 75
f 46 75 76
f 46 76 47
f 49 77 50
f 50 77 78
f 50 78 51
f 51 61 52
f 51 78 79
f 51 79 61
f 52 61 80
f 52 80 53
f 53 80 54
f 54 80 61
f 56 59 81
f 56 81 57
f 57 82 83
f 57 83 84
f 57 84 85
f 57 85 60
f 57 81 86
f 57 86 87
f 57 87 88
f 57 88 82
f 58 62 89
f 58 89 90
f 58 90 91
f 58 91 59
f 59 91 92
f 59 92 93
f 59 93 94
f 59 94 95
f 59 95 96
f 59 96 81
f 60 85 97
f 60 97 98
f 60 98 99
f 60 99 68
f 60 68 100
f 60 100 67
f 61 79 101
f 61 101 62
f 62 101 102
f 62 102 89
f 63 72 103
f 63 103 104
f 63 104 65
f 64 105 106
f 64 106 66
f 64 65 105
f 65 104 105
f 67 100 68
f 68 99 98
f 68 98 97
f 68 97 107
f 68 107 108
f 68 108 109
f 68 109 110
f 68 110 69
f 69 110 70
f 70 110 71
f 71 110 103
f 71 103 72
f 73 111 112
f 73 112 74
f 77 113 78
f 78 113 79
f 79 113 114
f 79 114 115
f 79 115 116
f 79 116 101
f 81 96 117
f 81 117 86
f 82 118 119
f 82 119 83
f 82 88 120
f 82 120 118
f 83 119 107
f 83 107 84
f 84 107 85
f 85 107 97
f 86 117 87
f 87 117 121
f 87 121 122
f 87 122 123
f 87 123 124
f 87 124 125
f 87 125 88
f 88 125 126
f 88 126 127
f 88 127 118
f 88 118 120
f 89 102 128
f 89 128 90
f 90 128 91
f 91 128 92
f 92 128 129
f 92 129 93
f 93 129 94
f 94 129 130
f 94 130 95
f 95 130 96
f 96 130 117
f 101 131 102
f 101 116 131
f 102 132 133
f 102 133 129
f 102 129 134
f 102 134 128
f 102 131 135
f 102 135 132
f 103 110 136
f 103 136 137
f 103 137 105
f 103 105 104
f 105 137 138
f 105 138 139
f 105 139 106
f 107 119 118
f 107 118 140
f 107 140 125
f 107 125 108
f 108 125 141
f 108 141 142
f 108 142 143
f 108 143 144
f 108 144 145
f 108 145 109
f 109 146 147
f 109 147 110
f 109 145 146
f 110 147 148
f 110 148 149
f 110 149 150
f 110 150 151
f 110 151 138
f 110 138 136
f 111 152 153
f 111 153 154
f 111 154 112
f 115 155 116
f 116 155 156
f 116 156 157
f 116 157 158
f 116 158 131
f 117 130 132
f 117 132 121
f 118 127 140
f 121 132 122
f 122 159 160
f 122 160 123
f 122 132 161
f 122 161 162
f 122 162 159
f 123 160 124
f 124 160 141
f 124 141 125
f 125 140 126
f 126 140 127
f 128 134 129
f 129 133 130
f 130 133 132
f 131 163 164
f 131 164 135
f 131 158 163
f 132 135 164
f 132 164 165
f 132 165 161
f 136 138 137
f 138 151 139
f 139 151 166
f 141 160 142
f 142 160 143
f 143 145 144
f 143 160 159
f 143 159 167
f 143 167 145
f 145 168 146
f 145 167 169
f 145 169 170
f 145 170 171
f 145 171 172
f 145 172 168
f 146 168 173
f 146 173 147
f 147 173 174
f 147 174 175
f 147 175 148
f 148 175 176
f 148 176 177
f 148 177 178
f 148 178 166
f 148 166 149
f 149 166 150
f 150 166 151
f 152 179 180
f 152 180 153
f 156 181 157
f 157 182 158
f 157 181 183
f 157 183 184
f 157 184 185
f 157 185 182
f 158 182 185
f 158 185 186
f 158 186 163
f 159 187 188
f 159 188 189
f 159 189 167
f 159 162 190
f 159 190 191
f 159 191 187
f 161 192 162
f 161 165 193
f 161 193 194
f 161 194 195
f 161 195 192
f 162 192 196
f 162 196 190
f 163 197 164
f 163 186 197
f 164 197 165
f 165 197 198
f 165 198 193
f 166 178 200
f 166 200 199
f 167 189 169
f 168 201 173
f 168 172 171
f 168 171 202
f 168 202 203
f 168 203 204
f 168 204 201
f 169 189 205
f 169 205 206
f 169 206 170
f 170 206 187
f 170 187 171
f 171 187 202
f 173 201 207
f 173 207 174
f 174 207 232
f 174 232 208
f 174 208 176
f 174 176 175
f 176 209 210
f 176 210 177
f 177 210 200
f 177 200 178
f 179 211 212
f 179 212 213
f 179 213 180
f 184 214 185
f 185 214 215
f 185 215 216
f 185 216 186
f 186 216 217
f 186 217 198
f 186 198 197
f 187 206 205
f 187 205 218
f 187 218 189
f 187 189 188
f 187 191 219
f 187 219 220
f 187 220 221
f 187 221 203
f 187 203 202
f 189 218 205
f 190 196 222
f 190 222 223
f 190 223 224
f 190 224 191
f 191 224 219
f 192 225 196
f 192 195 226
f 192 226 227
f 192 227 228
f 192 228 229
f 192 229 230
f 192 230 225
f 193 198 194
f 194 198 226
f 194 226 195
f 196 225 222
f 198 217 226
f 199 200 231
f 200 210 231
f 201 204 221
f 201 221 220
f 201 220 242
f 201 242 248
f 201 248 234
f 201 234 247
f 201 247 232
f 201 232 207
f 203 221 204
f 209 231 210
f 211 233 234
f 211 234 235
f 211 235 236
f 211 236 212
f 212 236 213
f 215 237 238
f 215 238 216
f 216 238 217
f 217 238 239
f 217 239 226
f 219 240 220
f 219 224 241
f 219 241 240
f 220 240 242
f 222 225 243
f 222 243 223
f 223 243 241
f 223 241 224
f 225 230 244
f 225 244 245
f 225 245 243
f 226 239 246
f 226 246 227
f 227 246 228
f 228 246 229
f 229 246 239
f 229 239 238
f 229 238 244
f 229 244 230
f 233 247 234
f 234 248 236
f 234 236 235
f 237 249 238
f 238 249 244
f 244 249 245

