# https://github.com/mikedh/trimesh
v 0.04171960 -0.05239448 0.00729893
v 0.04171960 -0.05256736 0.00234427
v 0.04171960 -0.05244346 0.00892170
v 0.07655211 -0.07224275 0.00892170
v 0.07655211 -0.07226292 0.00725474
v 0.07655211 -0.07264899 -0.00729191
v 0.04171960 -0.05312341 -0.00729191
v 0.04171960 -0.05268836 0.00981743
v 0.07583609 -0.07216208 0.00975718
v 0.07655211 -0.07256832 0.00946998
v 0.07655211 -0.07266051 -0.00740438
v 0.04171960 -0.05318392 -0.00789442
v 0.04171960 -0.05360745 0.01006848
v 0.07655211 -0.07289677 0.01001023
v 0.07655211 -0.07283339 0.00990982
v 0.07655211 -0.07281898 -0.00891267
v 0.04171960 -0.05332510 -0.00891267
v 0.04171960 -0.05516039 0.01031952
v 0.04239129 -0.05516039 0.01027534
v 0.07655211 -0.07461394 0.01037977
v 0.07655211 -0.07285067 -0.00898296
v 0.04171960 -0.05369388 -0.00956941
v 0.04171960 -0.05677960 0.01037977
v 0.04239129 -0.05677960 0.01037977
v 0.07655211 -0.07623603 0.01037977
v 0.07655211 -0.07340673 -0.00992890
v 0.04171960 -0.05394743 -0.00986664
v 0.04171960 -0.06326507 0.01037977
v 0.07655211 -0.07774287 0.01035768
v 0.06346605 -0.07623603 0.01037977
v 0.06670858 -0.07785524 0.01036773
v 0.07655211 -0.07348165 -0.00994296
v 0.04171960 -0.05444298 -0.00996506
v 0.04171960 -0.06488716 0.01032957
v 0.04239129 -0.06488716 0.01037977
v 0.07655211 -0.07785524 0.01035567
v 0.06508902 -0.07785524 0.01035768
v 0.04725679 -0.06812846 0.01037977
v 0.07481662 -0.07947733 0.01024320
v 0.07655211 -0.07936496 0.01024923
v 0.07655211 -0.07461394 -0.01013577
v 0.04171960 -0.05611117 -0.01013376
v 0.04171960 -0.06634503 0.01003634
v 0.04235037 -0.06656688 0.01010061
v 0.04401426 -0.06650925 0.01035567
v 0.06184649 -0.07623603 0.01035567
v 0.06184649 -0.07754119 0.01003233
v 0.06383429 -0.07886652 0.00992387
v 0.06508902 -0.07901058 0.01003233
v 0.07319706 -0.07947733 0.01021308
v 0.04887635 -0.06974767 0.01032756
v 0.05211889 -0.07136976 0.01033559
v 0.05536483 -0.07299185 0.01034362
v 0.07481662 -0.08056064 0.00993994
v 0.07655211 -0.08063843 0.00994195
v 0.07655211 -0.07947733 0.01024120
v 0.07655211 -0.07472630 -0.01013778
v 0.07643960 -0.07461394 -0.01013778
v 0.04239129 -0.05677960 -0.01013778
v 0.04171960 -0.05677960 -0.01013778
v 0.04171960 -0.06701922 0.00892170
v 0.04286522 -0.06753495 0.00991584
v 0.04413700 -0.06809677 0.01000019
v 0.04563382 -0.06812846 0.01025124
v 0.06062244 -0.07725019 0.00991584
v 0.05211889 -0.07260001 0.01001224
v 0.06277731 -0.07857841 0.00892170
v 0.06358880 -0.07898465 0.00892170
v 0.06508902 -0.07943123 0.00892170
v 0.07060576 -0.08031286 0.00975919
v 0.07157409 -0.08037913 0.00982747
v 0.07319706 -0.08048285 0.00990982
v 0.04724656 -0.06979953 0.01007852
v 0.04887635 -0.07095487 0.01000421
v 0.07655211 -0.08122618 0.00892170
v 0.07655211 -0.07947733 -0.01013778
v 0.04171960 -0.06421586 -0.01013778
v 0.04171960 -0.06709701 0.00729893
v 0.04266747 -0.06766748 0.00892170
v 0.04475755 -0.06898128 0.00977726
v 0.04778187 -0.07070998 0.00987969
v 0.04563382 -0.06923482 0.00992789
v 0.05741059 -0.07561658 0.00990781
v 0.06039059 -0.07737120 0.00892170
v 0.06275003 -0.07861874 0.00729893
v 0.06356152 -0.07900482 0.00729893
v 0.06508902 -0.07950902 0.00729893
v 0.06670858 -0.07982306 0.00729893
v 0.07034322 -0.08035608 0.00892170
v 0.07157409 -0.08054911 0.00892170
v 0.07655211 -0.08148837 0.00729893
v 0.07319706 -0.08078825 0.00892170
v 0.07481662 -0.08100145 0.00892170
v 0.05098349 -0.07234359 0.00988973
v 0.05419875 -0.07398009 0.00989977
v 0.07655211 -0.07960121 -0.01012171
v 0.07481662 -0.07947733 -0.01013778
v 0.04171960 -0.06488716 -0.01009761
v 0.04239129 -0.06488716 -0.01013778
v 0.04171960 -0.06709989 0.00714629
v 0.04467231 -0.06903602 0.00729893
v 0.04470300 -0.06901874 0.00892170
v 0.04680673 -0.07032390 0.00892170
v 0.04761821 -0.07079929 0.00892170
v 0.05079596 -0.07244155 0.00892170
v 0.05399417 -0.07408669 0.00892170
v 0.06184649 -0.07815488 0.00729893
v 0.06273981 -0.07862451 0.00405741
v 0.06355470 -0.07900482 0.00567817
v 0.06508902 -0.07951190 0.00567817
v 0.06272276 -0.07863603 -0.00404838
v 0.06271253 -0.07863891 -0.00729191
v 0.06670858 -0.07984035 0.00567817
v 0.06904416 -0.08030710 0.00405741
v 0.06909190 -0.08029845 0.00517809
v 0.06833156 -0.08010542 0.00729893
v 0.06927602 -0.08026676 0.00729893
v 0.07157409 -0.08065284 0.00729893
v 0.07481662 -0.08119737 0.00729893
v 0.07655211 -0.08153447 0.00579064
v 0.07655211 -0.08087180 -0.00993091
v 0.07319706 -0.07947733 -0.01012573
v 0.06670858 -0.07785524 -0.01013778
v 0.04171960 -0.06581778 -0.00998916
v 0.04401426 -0.06650925 -0.01010765
v 0.04725679 -0.06812846 -0.01013577
v 0.05049933 -0.06974767 -0.01013778
v 0.04171960 -0.06713446 0.00405741
v 0.04466890 -0.06903602 0.00567817
v 0.04563382 -0.06964971 0.00729893
v 0.04171960 -0.06714599 0.00243465
v 0.04679309 -0.07036135 0.00729893
v 0.04760457 -0.07081369 0.00729893
v 0.04887635 -0.07148501 0.00729893
v 0.05076869 -0.07245883 0.00729893
v 0.05396689 -0.07410397 0.00729893
v 0.06035990 -0.07739137 0.00729893
v 0.05953137 -0.07698513 0.00081389
v 0.06032922 -0.07740866 -0.00404838
v 0.06184649 -0.07819233 -0.00566914
v 0.06355129 -0.07900482 0.00405741
v 0.06508902 -0.07950614 0.00243465
v 0.06670858 -0.07983747 0.00243465
v 0.06670858 -0.07984035 0.00405741
v 0.06354447 -0.07900193 0.00081389
v 0.06353083 -0.07899617 -0.00404838
v 0.06352401 -0.07899041 -0.00729191
v 0.06281141 -0.07854095 -0.00891267
v 0.06362289 -0.07892990 -0.00891267
v 0.06184649 -0.07819521 -0.00729191
v 0.06042468 -0.07734815 -0.00891267
v 0.06903052 -0.08030998 0.00243465
v 0.07655211 -0.08182835 -0.00566914
v 0.06823609 -0.08014863 0.00405741
v 0.07655211 -0.08182258 -0.00449625
v 0.07655211 -0.08181682 -0.00404838
v 0.07655211 -0.08178801 -0.00269072
v 0.07655211 -0.08177360 -0.00211432
v 0.07655211 -0.08173039 -0.00064419
v 0.07157409 -0.08075079 0.00405741
v 0.06981473 -0.08040506 0.00570227
v 0.07643960 -0.08161802 0.00243465
v 0.07655211 -0.08095824 -0.00986865
v 0.07319706 -0.08055199 -0.00991886
v 0.07157409 -0.07947733 -0.01006748
v 0.06508902 -0.07785524 -0.01012372
v 0.06184649 -0.07623603 -0.01012573
v 0.06346605 -0.07623603 -0.01013778
v 0.04242538 -0.06650637 -0.00994899
v 0.04171960 -0.06625283 -0.00990079
v 0.04887635 -0.06974767 -0.01007552
v 0.05211889 -0.07136976 -0.01010765
v 0.06022352 -0.07461394 -0.01013778
v 0.04563382 -0.06961514 0.00405741
v 0.04563382 -0.06963531 0.00567817
v 0.04171960 -0.06714599 0.00233423
v 0.04179120 -0.06718632 0.00081389
v 0.04682377 -0.07032678 0.00243465
v 0.04764890 -0.07081081 0.00081389
v 0.04763526 -0.07081369 0.00243465
v 0.04995038 -0.07204395 -0.00729191
v 0.04887635 -0.07148501 0.00081389
v 0.04887635 -0.07148788 0.00243465
v 0.04887635 -0.07148788 0.00567817
v 0.04995379 -0.07204395 0.00567817
v 0.05211889 -0.07315895 0.00567817
v 0.06508902 -0.07949461 -0.00242763
v 0.06670858 -0.07982594 -0.00242763
v 0.06904075 -0.08030998 0.00081389
v 0.06821904 -0.08014575 0.00243465
v 0.06508902 -0.07948021 -0.00729191
v 0.06508902 -0.07948597 -0.00566914
v 0.06390930 -0.07880314 -0.00984254
v 0.06069063 -0.07720410 -0.00984455
v 0.06508902 -0.07932462 -0.00891267
v 0.06032922 -0.07741154 -0.00729191
v 0.05085393 -0.07240985 -0.00891267
v 0.05748561 -0.07557048 -0.00983853
v 0.05106532 -0.07229749 -0.00982246
v 0.07481662 -0.08147396 -0.00566914
v 0.06828041 -0.08013423 -0.00729191
v 0.07655211 -0.08182258 -0.00729191
v 0.07655211 -0.08165259 -0.00888053
v 0.07157409 -0.08044251 -0.00986263
v 0.06508902 -0.07891838 -0.00991685
v 0.06184649 -0.07745476 -0.00991886
v 0.04735567 -0.06971886 -0.00992288
v 0.04401426 -0.06772222 -0.00990280
v 0.04298797 -0.06744275 -0.00982447
v 0.04171960 -0.06678008 -0.00911150
v 0.05051637 -0.07138705 -0.00994698
v 0.05211889 -0.07250493 -0.00990079
v 0.04683741 -0.07031526 0.00081389
v 0.04171960 -0.06707684 -0.00423717
v 0.04773755 -0.07076472 -0.00729191
v 0.04171960 -0.06714022 0.00070142
v 0.04766594 -0.07080217 -0.00080486
v 0.04887635 -0.07143891 -0.00729191
v 0.04782620 -0.07070709 -0.00891267
v 0.05076187 -0.07246460 -0.00729191
v 0.05211889 -0.07316760 -0.00729191
v 0.05211889 -0.07316760 -0.00566914
v 0.05076187 -0.07246460 0.00081389
v 0.06670858 -0.07981730 -0.00566914
v 0.06995112 -0.08047996 -0.00566914
v 0.06911236 -0.08029557 -0.00818162
v 0.07043869 -0.08034743 -0.00978430
v 0.06992043 -0.08039641 -0.00879819
v 0.04796258 -0.07062354 -0.00978028
v 0.04887635 -0.07083098 -0.00986865
v 0.07655211 -0.08181682 -0.00758915
v 0.07157409 -0.08069894 -0.00891267
v 0.04603275 -0.06915704 -0.00986062
v 0.04279021 -0.06756664 -0.00891267
v 0.04171960 -0.06685788 -0.00891267
v 0.04770345 -0.07078489 -0.00404838
v 0.04171960 -0.06705379 -0.00588203
v 0.04171960 -0.06703362 -0.00729191
v 0.04482234 -0.06894095 -0.00812338
v 0.04171960 -0.06701057 -0.00752488
f 1 2 7
f 1 7 12
f 1 12 17
f 1 17 22
f 1 22 27
f 1 27 33
f 1 33 42
f 1 42 60
f 1 60 77
f 1 77 98
f 1 98 124
f 1 124 170
f 1 170 210
f 1 210 235
f 1 235 240
f 1 240 238
f 1 238 237
f 1 237 214
f 1 214 216
f 1 216 176
f 1 176 131
f 1 131 128
f 1 128 100
f 1 100 78
f 1 78 61
f 1 61 43
f 1 43 34
f 1 34 28
f 1 28 23
f 1 23 18
f 1 18 13
f 1 13 8
f 1 8 3
f 1 3 4
f 1 4 5
f 1 5 6
f 1 6 2
f 2 6 7
f 3 8 4
f 4 9 10
f 4 10 15
f 4 15 14
f 4 14 20
f 4 20 25
f 4 25 29
f 4 29 36
f 4 36 40
f 4 40 56
f 4 56 55
f 4 55 75
f 4 75 91
f 4 91 120
f 4 120 159
f 4 159 158
f 4 158 157
f 4 157 156
f 4 156 155
f 4 155 153
f 4 153 202
f 4 202 231
f 4 231 203
f 4 203 163
f 4 163 121
f 4 121 96
f 4 96 76
f 4 76 57
f 4 57 41
f 4 41 32
f 4 32 26
f 4 26 21
f 4 21 16
f 4 16 11
f 4 11 6
f 4 6 5
f 4 8 9
f 6 11 12
f 6 12 7
f 8 13 14
f 8 14 9
f 9 14 15
f 9 15 10
f 11 16 12
f 12 16 17
f 13 18 19
f 13 19 20
f 13 20 14
f 16 21 17
f 17 21 22
f 18 23 24
f 18 24 20
f 18 20 19
f 20 24 23
f 20 23 28
f 20 28 35
f 20 35 38
f 20 38 30
f 20 30 25
f 21 26 22
f 22 26 27
f 25 30 31
f 25 31 29
f 26 32 33
f 26 33 27
f 28 34 35
f 29 31 36
f 30 37 31
f 30 38 37
f 31 37 39
f 31 39 40
f 31 40 36
f 32 41 33
f 33 41 42
f 34 43 44
f 34 44 45
f 34 45 35
f 35 45 38
f 37 46 47
f 37 47 48
f 37 48 49
f 37 49 50
f 37 50 39
f 37 38 46
f 38 45 51
f 38 51 52
f 38 52 53
f 38 53 46
f 39 50 54
f 39 54 55
f 39 55 56
f 39 56 40
f 41 57 58
f 41 58 42
f 42 59 60
f 42 58 59
f 43 61 62
f 43 62 44
f 44 62 63
f 44 63 64
f 44 64 45
f 45 64 51
f 46 53 47
f 47 65 48
f 47 53 52
f 47 52 51
f 47 51 66
f 47 66 65
f 48 65 67
f 48 67 68
f 48 68 69
f 48 69 70
f 48 70 49
f 49 70 71
f 49 71 72
f 49 72 50
f 50 72 54
f 51 64 73
f 51 73 74
f 51 74 66
f 54 75 55
f 54 72 75
f 57 76 97
f 57 97 123
f 57 123 168
f 57 168 173
f 57 173 127
f 57 127 99
f 57 99 77
f 57 77 60
f 57 60 59
f 57 59 58
f 61 78 79
f 61 79 80
f 61 80 62
f 62 80 81
f 62 81 82
f 62 82 63
f 63 82 81
f 63 81 73
f 63 73 64
f 65 83 84
f 65 84 67
f 65 66 74
f 65 74 83
f 67 85 68
f 67 84 85
f 68 86 87
f 68 87 69
f 68 85 86
f 69 87 88
f 69 88 89
f 69 89 70
f 70 89 90
f 70 90 91
f 70 91 92
f 70 92 93
f 70 93 75
f 70 75 71
f 71 75 72
f 73 81 74
f 74 81 94
f 74 94 95
f 74 95 83
f 75 93 91
f 76 96 97
f 77 99 98
f 78 100 101
f 78 101 102
f 78 102 79
f 79 102 80
f 80 102 103
f 80 103 104
f 80 104 81
f 81 104 105
f 81 105 106
f 81 106 84
f 81 84 94
f 83 95 94
f 83 94 84
f 84 107 85
f 84 106 107
f 85 108 86
f 85 107 108
f 86 109 110
f 86 110 87
f 86 108 111
f 86 111 112
f 86 112 109
f 87 110 113
f 87 113 88
f 88 113 114
f 88 114 115
f 88 115 116
f 88 116 89
f 89 116 117
f 89 117 118
f 89 118 119
f 89 119 91
f 89 91 90
f 91 93 92
f 91 119 120
f 96 121 97
f 97 121 122
f 97 122 123
f 98 99 125
f 98 125 124
f 99 126 125
f 99 127 126
f 100 128 101
f 101 129 130
f 101 130 102
f 101 128 131
f 101 131 129
f 102 130 103
f 103 130 132
f 103 132 104
f 104 133 134
f 104 134 105
f 104 132 133
f 105 134 135
f 105 135 136
f 105 136 106
f 106 136 137
f 106 137 107
f 107 137 108
f 108 112 111
f 108 137 138
f 108 138 139
f 108 139 140
f 108 140 112
f 109 141 110
f 109 112 141
f 110 142 143
f 110 143 144
f 110 144 113
f 110 141 145
f 110 145 146
f 110 146 147
f 110 147 142
f 112 148 149
f 112 149 147
f 112 147 146
f 112 146 141
f 112 140 150
f 112 150 151
f 112 151 148
f 113 152 153
f 113 153 154
f 113 154 114
f 113 144 152
f 114 154 155
f 114 155 156
f 114 156 115
f 115 156 157
f 115 157 158
f 115 158 159
f 115 159 160
f 115 160 161
f 115 161 117
f 115 117 116
f 117 161 160
f 117 160 159
f 117 159 162
f 117 162 118
f 118 162 119
f 119 162 120
f 120 162 159
f 121 163 164
f 121 164 122
f 122 164 165
f 122 165 166
f 122 166 123
f 123 166 167
f 123 167 168
f 124 169 170
f 124 125 171
f 124 171 169
f 125 126 172
f 125 172 171
f 126 127 167
f 126 167 172
f 127 173 167
f 129 174 175
f 129 175 130
f 129 131 176
f 129 176 177
f 129 177 174
f 130 175 132
f 132 175 178
f 132 178 179
f 132 179 180
f 132 180 133
f 133 180 181
f 133 181 182
f 133 182 183
f 133 183 184
f 133 184 134
f 134 184 185
f 134 185 186
f 134 186 135
f 135 186 136
f 136 186 137
f 137 186 138
f 138 186 139
f 139 150 140
f 139 186 185
f 139 185 150
f 141 146 145
f 142 187 188
f 142 188 143
f 142 147 187
f 143 188 189
f 143 189 190
f 143 190 144
f 144 190 152
f 147 149 191
f 147 191 192
f 147 192 187
f 148 193 149
f 148 151 194
f 148 194 193
f 149 193 195
f 149 195 191
f 150 185 184
f 150 184 196
f 150 196 197
f 150 197 151
f 151 198 194
f 151 197 199
f 151 199 198
f 152 190 153
f 153 200 201
f 153 201 202
f 153 155 154
f 153 190 189
f 153 189 200
f 163 203 204
f 163 204 164
f 164 204 205
f 164 205 165
f 165 205 166
f 166 205 193
f 166 193 206
f 166 206 167
f 167 173 168
f 167 206 172
f 169 207 208
f 169 208 209
f 169 209 170
f 169 171 207
f 170 209 210
f 171 172 211
f 171 211 207
f 172 212 211
f 172 206 212
f 174 213 175
f 174 177 214
f 174 214 215
f 174 215 213
f 175 213 178
f 176 216 177
f 177 216 214
f 178 213 217
f 178 217 179
f 179 217 218
f 179 218 181
f 179 181 180
f 181 183 182
f 181 218 219
f 181 219 197
f 181 197 220
f 181 220 183
f 183 220 221
f 183 221 222
f 183 222 184
f 184 222 223
f 184 223 196
f 187 192 224
f 187 224 188
f 188 224 201
f 188 201 225
f 188 225 200
f 188 200 189
f 191 195 226
f 191 226 201
f 191 201 192
f 192 201 224
f 193 194 206
f 193 205 227
f 193 227 195
f 194 198 212
f 194 212 206
f 195 227 228
f 195 228 226
f 196 223 222
f 196 222 221
f 196 221 197
f 197 221 220
f 197 219 229
f 197 229 199
f 198 199 212
f 199 229 230
f 199 230 207
f 199 207 211
f 199 211 212
f 200 225 201
f 201 226 202
f 202 226 231
f 203 231 232
f 203 232 227
f 203 227 204
f 204 227 205
f 207 233 209
f 207 209 208
f 207 230 229
f 207 229 233
f 209 234 235
f 209 235 210
f 209 233 229
f 209 229 234
f 213 215 236
f 213 236 217
f 214 237 215
f 215 219 218
f 215 218 236
f 215 237 238
f 215 238 239
f 215 239 219
f 217 236 218
f 219 239 234
f 219 234 229
f 226 228 231
f 227 232 228
f 228 232 231
f 234 239 238
f 234 238 240
f 234 240 235

