# https://github.com/mikedh/trimesh
v 0.11048963 -0.01948872 0.01037977
v 0.10930587 -0.01948872 0.01037977
v 0.11211155 -0.02110877 0.01037977
v 0.11048963 -0.01786597 0.01026329
v 0.10930587 -0.01786597 0.01034764
v 0.10930587 -0.02273152 0.01037977
v 0.11373347 -0.02273152 0.01037777
v 0.11859549 -0.02921444 0.01037977
v 0.11041121 -0.01636183 0.00997207
v 0.10930587 -0.01627826 0.01021308
v 0.11535414 -0.02435158 0.01036773
v 0.11697481 -0.02597433 0.01034161
v 0.11859549 -0.02759438 0.01030546
v 0.11697979 -0.02436775 0.01008254
v 0.11539770 -0.02269648 0.01011065
v 0.10930587 -0.02435158 0.01031952
v 0.11535414 -0.04056290 0.01036371
v 0.11535414 -0.03894284 0.01037977
v 0.11859549 -0.04218025 0.01037977
v 0.12021740 -0.04218025 0.01034764
v 0.12021740 -0.03245724 0.01033961
v 0.12021740 -0.03083449 0.01033760
v 0.10981871 -0.01527820 0.00985358
v 0.11644205 -0.02321134 0.00993191
v 0.10930587 -0.01579845 0.01009860
v 0.12021740 -0.02921444 0.01023919
v 0.11855814 -0.02604172 0.01003233
v 0.10930587 -0.02564816 0.01001224
v 0.11432348 -0.04218025 0.00995802
v 0.11535414 -0.04218025 0.01028136
v 0.11697481 -0.04218025 0.01037977
v 0.12132274 -0.04218025 0.01002028
v 0.12132025 -0.04056290 0.01002228
v 0.12130656 -0.03083449 0.01001425
v 0.11136470 -0.01698182 0.00979333
v 0.10990833 -0.01518116 0.00892170
v 0.10930587 -0.01473369 0.00892170
v 0.10930587 -0.01509759 0.00992387
v 0.11799302 -0.02491765 0.00989776
v 0.11954025 -0.02662666 0.00984956
v 0.12120698 -0.02921444 0.00991584
v 0.12108251 -0.02833837 0.00978931
v 0.12013524 -0.02771568 0.00996605
v 0.10930587 -0.02616841 0.00892170
v 0.11408449 -0.04218025 0.00892170
v 0.12167501 -0.04218025 0.00891768
v 0.12131154 -0.03407729 0.01001626
v 0.12167003 -0.04056290 0.00892170
v 0.12165136 -0.03407729 0.00892170
v 0.12164638 -0.03245724 0.00892170
v 0.12163518 -0.03083449 0.00892170
v 0.11290072 -0.01869891 0.00943584
v 0.11071867 -0.01611114 0.00892170
v 0.10993447 -0.01515420 0.00729893
v 0.11074605 -0.01608418 0.00729893
v 0.10930587 -0.01471482 0.00825491
v 0.12141984 -0.02921444 0.00892170
v 0.12112109 -0.02828715 0.00892170
v 0.12043897 -0.02747577 0.00892170
v 0.10930587 -0.02622502 0.00729893
v 0.11408200 -0.04218025 0.00729893
v 0.10930587 -0.02656197 -0.00729191
v 0.12175841 -0.04218025 0.00729491
v 0.12173351 -0.03407729 0.00729893
v 0.12175343 -0.04056290 0.00729893
v 0.12168870 -0.03083449 0.00729893
v 0.12171982 -0.03245724 0.00729893
v 0.11141449 -0.01692251 0.00892170
v 0.11293184 -0.01866656 0.00835533
v 0.11078588 -0.01603566 0.00243465
v 0.11083941 -0.01597366 -0.00404838
v 0.11085186 -0.01595749 -0.00566914
v 0.11086555 -0.01594940 -0.00729191
v 0.10996186 -0.01514072 0.00405741
v 0.10930587 -0.01467978 0.00664219
v 0.10930587 -0.01468786 0.00729893
v 0.11143938 -0.01689286 0.00729893
v 0.12144971 -0.02921444 0.00729893
v 0.12112856 -0.02827637 0.00729893
v 0.12046262 -0.02746499 0.00729893
v 0.11965104 -0.02649458 0.00729893
v 0.11814986 -0.02473705 0.00729893
v 0.11423261 -0.04218025 -0.00729191
v 0.10930587 -0.02656466 -0.00798078
v 0.10930587 -0.02656466 -0.00895685
v 0.12186172 -0.04218025 0.00405340
v 0.12190778 -0.04056290 0.00243465
v 0.12178953 -0.03570004 0.00567817
v 0.12168994 -0.03083449 0.00567817
v 0.12177335 -0.03407729 0.00567817
v 0.12182563 -0.03570004 0.00405741
v 0.12187541 -0.03732010 0.00243465
v 0.12178704 -0.03407729 0.00405741
v 0.12184429 -0.03732010 0.00405741
v 0.12200611 -0.04218025 -0.00080888
v 0.11745653 -0.02392567 0.00729893
v 0.11150660 -0.01681469 -0.00080486
v 0.11154519 -0.01676886 -0.00566914
v 0.11448903 -0.02036209 0.00243465
v 0.11451517 -0.02033244 -0.00080486
v 0.10999546 -0.01516498 -0.00891267
v 0.11005521 -0.01510838 -0.00729191
v 0.11000169 -0.01512455 -0.00080486
v 0.10997555 -0.01513533 0.00243465
v 0.11303391 -0.01854526 -0.00404838
v 0.11154892 -0.01675808 -0.00729191
v 0.11149166 -0.01682278 -0.00891267
v 0.11080580 -0.01601410 -0.00891267
v 0.10930587 -0.01467169 0.00502947
v 0.12168123 -0.03083449 0.00243465
v 0.12165510 -0.03083449 -0.00729191
v 0.12142606 -0.02921444 0.00243465
v 0.12112358 -0.02828176 0.00567817
v 0.12046262 -0.02747038 0.00567817
v 0.11965228 -0.02648919 0.00567817
v 0.11816231 -0.02472087 0.00567817
v 0.11452140 -0.02032705 -0.00242763
v 0.11430605 -0.04218025 -0.00891267
v 0.10930587 -0.02612259 -0.00968388
v 0.11446290 -0.04218025 -0.00980037
v 0.12196379 -0.04218025 0.00080987
v 0.12178330 -0.03407729 0.00243465
v 0.12202230 -0.04218025 -0.00242964
v 0.12188040 -0.03732010 0.00081389
v 0.11746898 -0.02390950 0.00567817
v 0.10984609 -0.01529437 -0.00983652
v 0.10930587 -0.01479299 -0.00891267
v 0.10930587 -0.01468517 -0.00792053
v 0.10930587 -0.01464743 -0.00729191
v 0.10930587 -0.01464473 -0.00626764
v 0.10930587 -0.01464743 -0.00465291
v 0.10930587 -0.01465012 -0.00304018
v 0.10930587 -0.01466091 0.00180201
v 0.11303391 -0.01854257 -0.00566914
v 0.11302769 -0.01854796 -0.00729191
v 0.11297665 -0.01860996 -0.00891267
v 0.11292687 -0.01867196 -0.00972807
v 0.11138959 -0.01694677 -0.00979233
v 0.12153809 -0.03083449 -0.00891267
v 0.12124184 -0.02910392 -0.00892873
v 0.12137752 -0.02921444 -0.00729191
v 0.12171484 -0.03245724 -0.00404838
v 0.12192272 -0.03894284 -0.00242763
v 0.12186297 -0.03732010 -0.00566914
v 0.12196006 -0.04056290 -0.00729191
v 0.12111238 -0.02829793 0.00243465
v 0.12108873 -0.02832758 -0.00404838
v 0.12042528 -0.02751621 -0.00404838
v 0.11964606 -0.02649188 0.00405741
v 0.11451766 -0.02032975 -0.00404838
v 0.10930587 -0.02569668 -0.00987870
v 0.11535165 -0.04218025 -0.01000924
v 0.10930587 -0.02486105 -0.01002531
v 0.10930587 -0.02435158 -0.01007150
v 0.12201981 -0.04218025 -0.00405240
v 0.10930587 -0.01517846 -0.00987870
v 0.10930587 -0.01488734 -0.00932639
v 0.11042864 -0.01634026 -0.00991485
v 0.10930587 -0.01627287 -0.01006146
v 0.11960249 -0.02654579 -0.00729191
v 0.12105886 -0.02836802 -0.00839852
v 0.11954648 -0.02661318 -0.00891267
v 0.11946432 -0.02671292 -0.00977024
v 0.11792456 -0.02499043 -0.00982246
v 0.12162273 -0.03407729 -0.00891267
v 0.12122565 -0.03083449 -0.00990079
v 0.12115346 -0.02957025 -0.00983853
v 0.12200985 -0.04218025 -0.00729392
v 0.12095803 -0.02848932 -0.00947903
v 0.12107628 -0.02834376 -0.00729191
v 0.12041283 -0.02753238 -0.00729191
v 0.11535414 -0.04056290 -0.01008757
v 0.11697108 -0.04218025 -0.01013577
v 0.10930587 -0.02316821 -0.01013778
v 0.11048963 -0.01786597 -0.01008556
v 0.10930587 -0.01668260 -0.01010966
v 0.11637733 -0.02327064 -0.00985459
v 0.11693996 -0.02441088 -0.00994497
v 0.11980290 -0.02759438 -0.00986263
v 0.11851706 -0.02609293 -0.00989476
v 0.12170239 -0.03732010 -0.00891267
v 0.12021740 -0.03083449 -0.01010765
v 0.12181442 -0.04218025 -0.00891468
v 0.12124308 -0.03245724 -0.00991083
v 0.12033814 -0.02910392 -0.00995702
v 0.11535414 -0.03894284 -0.01013577
v 0.11859299 -0.04218025 -0.01013778
v 0.11535414 -0.03732010 -0.01013778
v 0.11697481 -0.04056290 -0.01013778
v 0.10930587 -0.01830535 -0.01013778
v 0.11697481 -0.02597433 -0.01010765
v 0.11535414 -0.02435158 -0.01013175
v 0.11373347 -0.02273152 -0.01013778
v 0.11211155 -0.02110877 -0.01013778
v 0.11859549 -0.02759438 -0.01006949
v 0.11859549 -0.02921444 -0.01013778
v 0.12125926 -0.03407729 -0.00991886
v 0.12127420 -0.03570004 -0.00992489
v 0.12021740 -0.03407729 -0.01012372
v 0.12132274 -0.04218025 -0.00993091
v 0.12131278 -0.04056290 -0.00993091
v 0.12128789 -0.03732010 -0.00992890
v 0.12021367 -0.04218025 -0.01013778
v 0.12021740 -0.03570004 -0.01012974
v 0.12021740 -0.03732010 -0.01013376
v 0.12021740 -0.04056290 -0.01013778
f 1 2 6
f 1 6 18
f 1 18 31
f 1 31 19
f 1 19 8
f 1 8 3
f 1 3 4
f 1 4 5
f 1 5 2
f 2 5 10
f 2 10 25
f 2 25 38
f 2 38 37
f 2 37 56
f 2 56 76
f 2 76 75
f 2 75 109
f 2 109 133
f 2 133 132
f 2 132 131
f 2 131 130
f 2 130 129
f 2 129 128
f 2 128 127
f 2 127 157
f 2 157 156
f 2 156 159
f 2 159 176
f 2 176 190
f 2 190 174
f 2 174 154
f 2 154 153
f 2 153 151
f 2 151 119
f 2 119 85
f 2 85 84
f 2 84 62
f 2 62 60
f 2 60 44
f 2 44 28
f 2 28 16
f 2 16 6
f 3 7 4
f 3 8 7
f 4 9 10
f 4 10 5
f 4 7 11
f 4 11 12
f 4 12 13
f 4 13 14
f 4 14 15
f 4 15 9
f 6 16 17
f 6 17 18
f 7 8 11
f 8 19 20
f 8 20 21
f 8 21 22
f 8 22 13
f 8 13 12
f 8 12 11
f 9 23 10
f 9 15 14
f 9 14 24
f 9 24 23
f 10 23 25
f 13 22 26
f 13 26 14
f 14 26 27
f 14 27 24
f 16 28 29
f 16 29 30
f 16 30 17
f 17 30 31
f 17 31 18
f 19 31 30
f 19 30 29
f 19 29 45
f 19 45 61
f 19 61 83
f 19 83 118
f 19 118 120
f 19 120 152
f 19 152 173
f 19 173 187
f 19 187 203
f 19 203 200
f 19 200 183
f 19 183 168
f 19 168 155
f 19 155 123
f 19 123 95
f 19 95 121
f 19 121 86
f 19 86 63
f 19 63 46
f 19 46 32
f 19 32 20
f 20 32 33
f 20 33 21
f 21 33 22
f 22 34 26
f 22 33 34
f 23 35 36
f 23 36 37
f 23 37 38
f 23 38 25
f 23 24 39
f 23 39 40
f 23 40 35
f 24 27 39
f 26 34 41
f 26 41 42
f 26 42 43
f 26 43 27
f 27 43 39
f 28 44 45
f 28 45 29
f 32 46 33
f 33 46 47
f 33 47 34
f 34 47 46
f 34 46 48
f 34 48 49
f 34 49 50
f 34 50 51
f 34 51 41
f 35 52 53
f 35 53 36
f 35 40 42
f 35 42 52
f 36 54 37
f 36 53 55
f 36 55 54
f 37 54 56
f 39 43 40
f 40 43 42
f 41 57 42
f 41 51 57
f 42 57 58
f 42 58 59
f 42 59 52
f 44 60 45
f 45 60 62
f 45 62 61
f 46 63 49
f 46 49 48
f 49 64 50
f 49 63 65
f 49 65 64
f 50 64 51
f 51 66 57
f 51 64 67
f 51 67 66
f 52 59 68
f 52 68 53
f 53 68 69
f 53 69 55
f 54 55 70
f 54 70 71
f 54 71 72
f 54 72 73
f 54 73 74
f 54 74 75
f 54 75 76
f 54 76 56
f 55 77 70
f 55 69 77
f 57 78 58
f 57 66 78
f 58 79 80
f 58 80 81
f 58 81 59
f 58 78 79
f 59 81 82
f 59 82 69
f 59 69 68
f 61 62 84
f 61 84 85
f 61 85 83
f 63 86 65
f 64 65 86
f 64 86 87
f 64 87 88
f 64 88 67
f 66 89 78
f 66 67 90
f 66 90 91
f 66 91 92
f 66 92 93
f 66 93 89
f 67 88 94
f 67 94 95
f 67 95 90
f 69 82 96
f 69 96 77
f 70 77 97
f 70 97 71
f 71 97 72
f 72 98 73
f 72 97 99
f 72 99 100
f 72 100 98
f 73 101 102
f 73 102 103
f 73 103 104
f 73 104 74
f 73 98 105
f 73 105 106
f 73 106 107
f 73 107 108
f 73 108 101
f 74 104 75
f 75 104 103
f 75 103 102
f 75 102 109
f 77 99 97
f 77 96 99
f 78 89 110
f 78 110 111
f 78 111 112
f 78 112 113
f 78 113 79
f 79 113 114
f 79 114 80
f 80 114 115
f 80 115 81
f 81 116 82
f 81 115 117
f 81 117 105
f 81 105 100
f 81 100 116
f 82 116 125
f 82 125 96
f 83 85 118
f 85 119 120
f 85 120 118
f 86 121 87
f 87 121 88
f 88 121 94
f 89 93 124
f 89 124 122
f 89 122 110
f 90 95 91
f 91 95 92
f 92 95 123
f 92 123 93
f 93 123 124
f 94 121 95
f 96 125 99
f 98 100 105
f 99 125 100
f 100 125 116
f 101 108 126
f 101 126 127
f 101 127 128
f 101 128 129
f 101 129 102
f 102 129 130
f 102 130 131
f 102 131 132
f 102 132 133
f 102 133 109
f 105 117 106
f 106 117 134
f 106 134 135
f 106 135 136
f 106 136 107
f 107 136 137
f 107 137 108
f 108 137 138
f 108 138 126
f 110 122 111
f 111 139 140
f 111 140 141
f 111 141 112
f 111 122 142
f 111 142 143
f 111 143 144
f 111 144 145
f 111 145 139
f 112 141 113
f 113 141 146
f 113 146 147
f 113 147 114
f 114 148 149
f 114 149 150
f 114 150 134
f 114 134 115
f 114 147 148
f 115 134 117
f 119 151 120
f 120 151 153
f 120 153 154
f 120 154 152
f 122 124 155
f 122 155 143
f 122 143 142
f 123 155 124
f 126 156 157
f 126 157 127
f 126 138 158
f 126 158 159
f 126 159 156
f 134 150 135
f 135 150 160
f 135 160 161
f 135 161 136
f 136 161 137
f 137 161 162
f 137 162 163
f 137 163 138
f 138 163 164
f 138 164 158
f 139 165 166
f 139 166 167
f 139 167 140
f 139 145 168
f 139 168 165
f 140 169 161
f 140 161 141
f 140 167 169
f 141 161 170
f 141 170 147
f 141 147 146
f 143 155 144
f 144 155 145
f 145 155 168
f 147 170 171
f 147 171 148
f 148 171 160
f 148 160 149
f 149 160 150
f 152 172 173
f 152 154 174
f 152 174 172
f 158 175 176
f 158 176 159
f 158 164 177
f 158 177 178
f 158 178 175
f 160 171 161
f 161 169 162
f 161 171 170
f 162 169 163
f 163 179 180
f 163 180 164
f 163 169 167
f 163 167 179
f 164 180 178
f 164 178 177
f 165 168 181
f 165 181 166
f 166 182 167
f 166 181 183
f 166 183 184
f 166 184 182
f 167 185 179
f 167 182 185
f 168 183 181
f 172 186 173
f 172 174 186
f 173 186 188
f 173 188 189
f 173 189 187
f 174 190 194
f 174 194 193
f 174 193 196
f 174 196 206
f 174 206 203
f 174 203 187
f 174 187 189
f 174 189 188
f 174 188 186
f 175 178 191
f 175 191 176
f 176 191 192
f 176 192 193
f 176 193 194
f 176 194 190
f 178 180 195
f 178 195 191
f 179 195 180
f 179 185 195
f 182 196 191
f 182 191 195
f 182 195 185
f 182 184 197
f 182 197 198
f 182 198 199
f 182 199 196
f 183 200 201
f 183 201 202
f 183 202 198
f 183 198 197
f 183 197 184
f 191 196 192
f 192 196 193
f 196 199 204
f 196 204 205
f 196 205 206
f 198 202 199
f 199 202 204
f 200 203 206
f 200 206 201
f 201 206 205
f 201 205 202
f 202 205 204

