# https://github.com/mikedh/trimesh
v -0.00461432 0.01915043 0.02431196
v -0.00461432 0.00445855 0.02431196
v -0.00461432 0.02097432 0.02145947
v -0.00559443 0.02097432 0.02431196
v -0.00628842 0.00038554 0.02431196
v -0.00461432 0.00038554 0.02134650
v -0.00461432 0.02097432 -0.01663164
v -0.02498760 0.02097432 0.02431196
v -0.02533459 0.00038554 0.02431196
v -0.00461432 0.00038554 -0.01656305
v -0.01920637 0.00038554 -0.01687776
v -0.00637973 0.02097432 -0.01666796
v -0.02499165 0.02081107 0.02431196
v -0.02502615 0.02097432 0.01503631
v -0.02507891 0.01601455 0.02431196
v -0.02534474 0.00038554 0.02377536
v -0.02236383 0.00038554 -0.01686969
v -0.02095150 0.00436182 -0.01690600
v -0.01859964 0.02097432 -0.01688583
v -0.02497948 0.02097432 0.00355370
v -0.02486990 0.02097432 -0.01030532
v -0.02507282 0.00038554 -0.00460032
v -0.02356309 0.00038554 -0.01686162
v -0.02347786 0.00424291 -0.01688179
v -0.02224207 0.02097432 -0.01683741
v -0.02486787 0.02097432 -0.01046670
v -0.02495716 0.00038554 -0.01170534
v -0.02436260 0.00718935 -0.01604258
v -0.02369093 0.01473077 -0.01664375
v -0.02472380 0.00038554 -0.01557860
v -0.02326074 0.02097432 -0.01677286
v -0.02309637 0.02008152 -0.01682531
v -0.02465886 0.02097432 -0.01551001
v -0.02474206 0.00038554 -0.01544546
v -0.02457972 0.01940033 -0.01572788
f 1 2 6
f 1 6 10
f 1 10 7
f 1 7 3
f 1 3 4
f 1 4 8
f 1 8 13
f 1 13 15
f 1 15 9
f 1 9 5
f 1 5 2
f 2 5 6
f 3 7 12
f 3 12 19
f 3 19 25
f 3 25 31
f 3 31 33
f 3 33 26
f 3 26 21
f 3 21 20
f 3 20 14
f 3 14 8
f 3 8 4
f 5 9 16
f 5 16 22
f 5 22 27
f 5 27 34
f 5 34 30
f 5 30 23
f 5 23 17
f 5 17 11
f 5 11 10
f 5 10 6
f 7 10 11
f 7 11 12
f 8 14 13
f 9 15 16
f 11 17 18
f 11 18 19
f 11 19 12
f 13 14 15
f 14 20 16
f 14 16 15
f 16 20 21
f 16 21 22
f 17 23 18
f 18 23 24
f 18 24 19
f 19 24 25
f 21 26 22
f 22 26 27
f 23 28 29
f 23 29 24
f 23 30 28
f 24 29 31
f 24 31 32
f 24 32 25
f 25 32 31
f 26 33 27
f 27 33 34
f 28 30 35
f 28 35 29
f 29 35 31
f 30 34 33
f 30 33 35
f 31 35 33

