# https://github.com/mikedh/trimesh
v -0.00501321 -0.01946575 0.02173265
v -0.00467247 -0.01946575 0.02173265
v -0.00501321 -0.01946575 0.02180881
v -0.00501321 -0.00140108 0.02173265
v -0.00501321 -0.01810418 0.02448186
v -0.00494095 -0.01946575 0.02179266
v 0.00066538 -0.01627048 0.02173265
v 0.00066538 -0.01566573 0.02448186
v -0.00501321 -0.00309862 0.02448186
v 0.00066538 -0.00533902 0.02448186
v 0.00066538 -0.00448848 0.02173265
f 1 2 6
f 1 6 3
f 1 3 5
f 1 5 9
f 1 9 4
f 1 4 11
f 1 11 7
f 1 7 2
f 2 5 6
f 2 7 8
f 2 8 5
f 3 6 5
f 4 9 10
f 4 10 11
f 5 8 10
f 5 10 9
f 7 11 10
f 7 10 8

