# https://github.com/mikedh/trimesh
v 0.02518732 -0.02387706 0.02391379
v 0.00540172 -0.02387706 0.02391379
v 0.02496886 -0.03156664 0.02391379
v 0.02514891 -0.02387706 0.01816110
v 0.00066538 -0.02635842 0.02391379
v 0.00066538 -0.02387706 0.02130455
v 0.02488964 -0.03373037 0.02391379
v 0.02473121 -0.03671660 0.01268460
v 0.02502888 -0.02696731 0.01377118
v 0.02511290 -0.02387706 0.01286267
v 0.00066538 -0.03801761 0.02391379
v 0.00066538 -0.02387706 -0.01321158
v 0.02470960 -0.03738375 0.02391379
v 0.02454156 -0.03748500 0.00570361
v 0.02437592 -0.03715489 -0.00825111
v 0.02433511 -0.03556677 -0.01321158
v 0.02495446 -0.02387706 0.00554734
v 0.02065982 -0.03804674 0.02391379
v 0.00066538 -0.03754742 -0.01121649
v 0.00985240 -0.03762093 -0.01160534
v 0.02433751 -0.02387706 -0.01321158
v 0.00066538 -0.03730885 -0.01321158
v 0.02439993 -0.03783869 0.02391379
v 0.02463278 -0.03769860 0.02236205
v 0.02447194 -0.03743368 0.00056507
v 0.02422709 -0.03786781 0.01848090
v 0.02341329 -0.03746836 -0.01321158
v 0.02456077 -0.02387706 -0.00764059
v 0.02462558 -0.02387706 -0.00550014
v 0.02489205 -0.02387706 0.00330877
v 0.02176169 -0.03804258 0.02391379
v 0.00938429 -0.03758902 -0.01321158
v 0.02308441 -0.03750997 -0.01321158
f 1 2 5
f 1 5 11
f 1 11 18
f 1 18 31
f 1 31 23
f 1 23 13
f 1 13 7
f 1 7 3
f 1 3 4
f 1 4 10
f 1 10 17
f 1 17 30
f 1 30 29
f 1 29 28
f 1 28 21
f 1 21 12
f 1 12 6
f 1 6 2
f 2 6 5
f 3 7 8
f 3 8 9
f 3 9 10
f 3 10 4
f 5 6 12
f 5 12 22
f 5 22 19
f 5 19 11
f 7 13 8
f 8 14 15
f 8 15 10
f 8 10 9
f 8 13 14
f 10 15 16
f 10 16 17
f 11 19 20
f 11 20 18
f 12 21 16
f 12 16 27
f 12 27 33
f 12 33 32
f 12 32 22
f 13 23 24
f 13 24 14
f 14 25 15
f 14 24 26
f 14 26 25
f 15 25 27
f 15 27 16
f 16 21 28
f 16 28 29
f 16 29 30
f 16 30 17
f 18 20 31
f 19 22 32
f 19 32 20
f 20 32 33
f 20 33 31
f 23 31 26
f 23 26 24
f 25 26 27
f 26 31 33
f 26 33 27

