# https://github.com/mikedh/trimesh
v -0.02608780 0.07873281 0.02356042
v -0.02797005 0.07897213 0.00065425
v -0.03296361 0.07838180 0.02356042
v -0.01515253 0.07863707 0.02356042
v -0.01806017 0.07937100 -0.10890678
v -0.02959945 0.07913168 -0.07988084
v -0.03259840 0.07898808 -0.05303581
v -0.03189607 0.07882853 -0.00483107
v -0.00035444 0.07847752 0.02356042
v -0.03318133 0.07834989 0.02303172
v -0.03319538 0.07833394 0.02356042
v -0.02973992 0.07913168 -0.10910504
v 0.02085592 0.07791910 0.02356042
v 0.02624981 0.07782338 -0.00879636
v 0.00991362 0.07846157 -0.10820625
v -0.00241227 0.07801484 -0.10903896
v -0.00850147 0.07570138 -0.11020211
v -0.03178369 0.07890831 -0.09748674
v -0.03262649 0.07764787 -0.10827233
v -0.03429101 0.06678261 -0.10276058
v -0.03490906 0.05697036 -0.08330420
v -0.03414352 0.06142177 0.02356042
v -0.01721738 0.07032458 -0.11004350
v -0.01798994 0.03527173 -0.11067794
v -0.03120778 0.06387881 -0.10930331
v 0.02226058 0.07785529 0.02356042
v 0.02712772 0.07764787 0.01306562
v 0.02759126 0.07737665 -0.04810563
v 0.02424817 0.07787124 -0.10683161
v 0.01741450 0.07244659 -0.10909183
v 0.00749058 0.07507915 -0.10934296
v 0.00070608 0.07225513 -0.11067794
v -0.03106732 0.05440163 -0.10946192
v -0.03072318 -0.04788508 -0.10958088
v -0.03199439 -0.07687509 -0.10695057
v -0.03327966 -0.05745800 -0.10302493
v -0.03459301 0.02593813 -0.10048714
v -0.03550604 0.03030976 -0.09551731
v -0.03507060 0.04832282 -0.09710342
v -0.03580804 0.04031347 -0.08260367
v -0.03510572 0.03402725 0.02356042
v -0.01171111 0.05824675 -0.11058542
v -0.00971650 0.01730654 -0.11133883
v -0.02602459 0.01729058 -0.11041359
v 0.02724009 0.07737665 0.02356042
v 0.02813205 0.07713732 -0.05496558
v 0.02815312 0.07697778 -0.09286056
v 0.02829359 0.07533442 -0.10644830
v 0.00760295 0.03876585 -0.11131239
v 0.00773640 0.05368365 -0.11102160
v 0.00706918 0.06858550 -0.11075725
v 0.02917852 -0.08110313 -0.10931653
v -0.02691655 -0.01149201 -0.11045324
v -0.02922721 -0.07124301 -0.11029463
v -0.02996466 -0.08102336 -0.10989810
v -0.03139742 -0.08043302 -0.09632358
v -0.03254923 -0.07858226 -0.07415760
v -0.03334287 -0.06786058 -0.09317778
v -0.03431208 -0.04526848 -0.09809475
v -0.03445255 -0.01573601 -0.09923146
v -0.03565353 0.00845158 -0.09167097
v -0.03625754 0.00602644 -0.08400474
v -0.03622242 0.02009864 -0.07908778
v -0.03622242 0.01816810 -0.05907627
v -0.03530939 0.02654441 0.02356042
v 0.00559429 0.02247592 -0.11147100
v -0.01064357 -0.07518387 -0.11141813
v -0.01666956 -0.00392940 -0.11115378
v 0.03349083 -0.00078629 -0.05657813
v 0.03323799 0.02242805 -0.05602299
v 0.03521856 0.02375231 -0.09044173
v 0.03507107 0.03492072 -0.09560983
v 0.03358213 0.05436972 -0.10314388
v 0.03210022 0.06284175 -0.09916538
v 0.03070258 0.06879293 -0.10254909
v 0.02575115 -0.07695486 0.02356042
v 0.02844108 0.07675440 -0.08413692
v 0.03006346 0.06518711 -0.10580063
v 0.02958587 0.02056133 -0.10714883
v 0.02945946 0.00551589 -0.10753214
v 0.00837552 -0.02939338 -0.11132561
v 0.02982467 -0.00563657 -0.10758501
v 0.02980360 -0.05133133 -0.10835164
v 0.03243733 -0.06838709 -0.10294562
v 0.02744377 -0.08198065 -0.01113588
v 0.02541404 -0.08317726 0.01964800
v 0.02515417 -0.08317726 0.01245761
v 0.02065926 -0.08359209 0.01713665
v 0.01372727 -0.08145414 -0.10886712
v -0.00490554 -0.08150200 -0.10943548
v 0.00600164 -0.07441804 -0.11128595
v 0.00739928 -0.05937258 -0.11133883
v -0.02299053 -0.03352569 -0.11078369
v -0.02646004 -0.05827170 -0.11055899
v -0.03348333 -0.08020965 -0.00113013
v -0.01841836 -0.08134245 -0.10955444
v 0.01641719 -0.08362400 0.02304494
v -0.03083555 -0.08135840 0.02356042
v -0.03282314 -0.07984269 -0.04488052
v -0.03285124 -0.07866203 -0.05867974
v -0.03443850 -0.05950023 -0.05315477
v -0.03452981 -0.05115583 -0.08765281
v -0.03408734 -0.07537533 0.00391901
v -0.03570972 -0.02294761 -0.08654253
v -0.03629265 -0.01090168 -0.06938603
v -0.03639800 -0.01056663 -0.03738612
v -0.03604684 0.00594667 -0.01470465
v -0.03599767 -0.01653375 -0.00222719
v -0.03556925 -0.01972472 0.02356042
v 0.00749058 -0.03832811 -0.11137848
v 0.03404567 -0.01548073 -0.06598909
v 0.03535200 0.00572330 -0.09422198
v 0.03423530 0.03372410 -0.10040784
v 0.03441088 -0.03258435 -0.09776431
v 0.02558962 -0.08147009 0.02356042
v 0.03285171 -0.03480208 -0.05829643
v 0.03381390 -0.05630925 -0.09830623
v 0.02682572 -0.08214019 0.00214785
v 0.02548427 -0.08304962 0.02356042
v -0.03389068 -0.07989056 0.02356042
v 0.01678240 -0.08357613 0.02356042
v 0.01630482 -0.08359209 0.02356042
v 0.01537774 -0.08356018 0.02356042
v -0.03501441 -0.05672407 -0.02067902
v -0.03497930 -0.04818822 -0.06641206
v -0.03587828 -0.03256840 -0.06728442
v -0.03437529 -0.07280659 0.02356042
v -0.03597660 -0.03705172 -0.02587355
v -0.03545688 -0.04589072 0.01712344
v -0.03537260 -0.04547589 0.02356042
v 0.03401055 -0.03133987 -0.07372142
v 0.03486740 -0.03038258 -0.09067965
v 0.03521856 -0.00708846 -0.09360075
v 0.03445302 0.01650880 -0.09890102
v 0.03441790 -0.04201368 -0.09371971
v 0.03362427 -0.04619386 -0.08285480
v -0.03526725 -0.05082077 0.02356042
f 1 2 3
f 1 3 11
f 1 11 22
f 1 22 41
f 1 41 65
f 1 65 109
f 1 109 130
f 1 130 137
f 1 137 127
f 1 127 120
f 1 120 98
f 1 98 123
f 1 123 122
f 1 122 121
f 1 121 119
f 1 119 115
f 1 115 76
f 1 76 45
f 1 45 26
f 1 26 13
f 1 13 9
f 1 9 4
f 1 4 2
f 2 5 6
f 2 6 7
f 2 7 8
f 2 8 3
f 2 4 9
f 2 9 5
f 3 10 11
f 3 8 10
f 5 12 6
f 5 9 13
f 5 13 14
f 5 14 15
f 5 15 16
f 5 16 17
f 5 17 12
f 6 12 7
f 7 11 10
f 7 10 8
f 7 12 18
f 7 18 19
f 7 19 11
f 11 19 20
f 11 20 21
f 11 21 22
f 12 17 23
f 12 23 24
f 12 24 25
f 12 25 19
f 12 19 18
f 13 26 14
f 14 26 27
f 14 27 28
f 14 28 29
f 14 29 15
f 15 29 30
f 15 30 31
f 15 31 32
f 15 32 17
f 15 17 16
f 17 32 23
f 19 25 33
f 19 33 34
f 19 34 35
f 19 35 20
f 20 35 36
f 20 36 37
f 20 37 38
f 20 38 39
f 20 39 40
f 20 40 21
f 21 40 22
f 22 40 41
f 23 32 42
f 23 42 24
f 24 42 43
f 24 43 44
f 24 44 25
f 25 44 33
f 26 45 27
f 27 45 46
f 27 46 28
f 28 46 47
f 28 47 29
f 29 47 48
f 29 48 30
f 30 49 50
f 30 50 51
f 30 51 32
f 30 32 31
f 30 48 52
f 30 52 49
f 32 51 49
f 32 49 43
f 32 43 42
f 33 44 53
f 33 53 54
f 33 54 34
f 34 54 55
f 34 55 35
f 35 55 56
f 35 56 57
f 35 57 58
f 35 58 59
f 35 59 36
f 36 59 60
f 36 60 37
f 37 60 38
f 38 60 59
f 38 59 61
f 38 61 62
f 38 62 40
f 38 40 39
f 40 62 63
f 40 63 64
f 40 64 41
f 41 64 65
f 43 49 66
f 43 66 67
f 43 67 68
f 43 68 44
f 44 68 53
f 45 69 70
f 45 70 71
f 45 71 72
f 45 72 73
f 45 73 74
f 45 74 75
f 45 75 46
f 45 76 69
f 46 77 47
f 46 75 77
f 47 77 75
f 47 75 48
f 48 75 73
f 48 73 78
f 48 78 79
f 48 79 80
f 48 80 52
f 49 51 50
f 49 52 81
f 49 81 66
f 52 82 83
f 52 83 73
f 52 73 84
f 52 84 85
f 52 85 86
f 52 86 87
f 52 87 88
f 52 88 89
f 52 89 90
f 52 90 55
f 52 55 67
f 52 67 91
f 52 91 92
f 52 92 81
f 52 80 82
f 53 68 93
f 53 93 94
f 53 94 54
f 54 94 67
f 54 67 55
f 55 95 56
f 55 90 96
f 55 96 97
f 55 97 98
f 55 98 95
f 56 95 99
f 56 99 57
f 57 99 100
f 57 100 58
f 58 101 102
f 58 102 59
f 58 100 103
f 58 103 101
f 59 102 104
f 59 104 61
f 61 104 62
f 62 104 105
f 62 105 106
f 62 106 63
f 63 106 64
f 64 107 65
f 64 106 107
f 65 107 108
f 65 108 109
f 66 81 110
f 66 110 67
f 67 110 92
f 67 92 91
f 67 94 93
f 67 93 68
f 69 71 70
f 69 76 111
f 69 111 71
f 71 111 112
f 71 112 72
f 72 112 113
f 72 113 73
f 73 75 74
f 73 113 114
f 73 114 84
f 73 83 82
f 73 82 78
f 76 115 116
f 76 116 111
f 78 82 79
f 79 82 80
f 81 92 110
f 84 114 117
f 84 117 85
f 85 118 119
f 85 119 86
f 85 117 118
f 86 119 88
f 86 88 87
f 88 90 89
f 88 119 97
f 88 97 96
f 88 96 90
f 95 120 100
f 95 100 99
f 95 98 120
f 97 119 121
f 97 121 122
f 97 122 123
f 97 123 98
f 100 120 103
f 101 103 124
f 101 124 125
f 101 125 102
f 102 125 126
f 102 126 104
f 103 120 127
f 103 127 124
f 104 126 105
f 105 126 128
f 105 128 106
f 106 128 108
f 106 108 107
f 108 128 129
f 108 129 130
f 108 130 109
f 111 116 131
f 111 131 132
f 111 132 133
f 111 133 112
f 112 134 113
f 112 133 114
f 112 114 134
f 113 134 114
f 114 133 132
f 114 132 135
f 114 135 117
f 115 119 118
f 115 118 131
f 115 131 116
f 117 135 136
f 117 136 118
f 118 136 131
f 124 128 126
f 124 126 125
f 124 127 128
f 127 137 128
f 128 137 129
f 129 137 130
f 131 136 135
f 131 135 132

