# https://github.com/mikedh/trimesh
v 0.03675800 -0.00794839 -0.02309568
v 0.03724849 -0.00795120 -0.02309568
v 0.03714870 -0.00737660 -0.02331557
v 0.03688760 -0.00737660 -0.02331557
v 0.03675712 -0.00794614 -0.02310010
v 0.03656154 -0.00878750 -0.02309568
v 0.03742375 -0.00801311 -0.02394269
v 0.03724894 -0.00794614 -0.02310010
v 0.03732040 -0.00878750 -0.02309568
v 0.03733256 -0.00687347 -0.02419997
v 0.03721632 -0.00687347 -0.02399375
v 0.03688404 -0.00687347 -0.02399375
v 0.03661314 -0.00801311 -0.02394269
v 0.03654657 -0.00879031 -0.02316522
v 0.03682502 -0.00716500 -0.02387516
v 0.03617796 -0.01047584 -0.02309568
v 0.03755690 -0.00687347 -0.02511372
v 0.03756327 -0.01169933 -0.02309568
v 0.03680738 -0.00687347 -0.02471373
v 0.03673132 -0.00723647 -0.02471976
v 0.03606765 -0.01112135 -0.02309568
v 0.03679314 -0.00687347 -0.02549643
v 0.03755749 -0.00687347 -0.02720212
v 0.03756327 -0.01262230 -0.02309568
v 0.03756327 -0.01169877 -0.02706584
v 0.03606765 -0.01112135 -0.02720212
v 0.03604852 -0.01189856 -0.02309568
v 0.03679314 -0.00687347 -0.02720212
v 0.03756327 -0.01169877 -0.02720212
v 0.03738757 -0.01260035 -0.02309568
v 0.03756327 -0.01262286 -0.02314954
v 0.03604852 -0.01189856 -0.02720212
v 0.03607002 -0.01198466 -0.02720212
v 0.03614890 -0.01230038 -0.02309568
v 0.03756327 -0.01262230 -0.02720212
v 0.03668031 -0.01247541 -0.02309568
v 0.03738757 -0.01260035 -0.02720212
v 0.03756327 -0.01262286 -0.02376702
v 0.03615883 -0.01233978 -0.02720212
v 0.03615883 -0.01233978 -0.02309568
v 0.03661048 -0.01246303 -0.02720212
v 0.03661048 -0.01246303 -0.02309568
v 0.03619946 -0.01235103 -0.02309568
f 1 2 3
f 1 3 4
f 1 4 5
f 1 5 6
f 1 6 16
f 1 16 21
f 1 21 27
f 1 27 34
f 1 34 40
f 1 40 43
f 1 43 42
f 1 42 36
f 1 36 30
f 1 30 24
f 1 24 18
f 1 18 9
f 1 9 2
f 2 7 8
f 2 8 3
f 2 9 7
f 3 8 10
f 3 10 11
f 3 11 12
f 3 12 4
f 4 12 5
f 5 13 14
f 5 14 6
f 5 12 15
f 5 15 13
f 6 14 16
f 7 17 8
f 7 9 18
f 7 18 17
f 8 17 10
f 10 17 23
f 10 23 28
f 10 28 22
f 10 22 19
f 10 19 12
f 10 12 11
f 12 19 15
f 13 15 19
f 13 19 20
f 13 20 16
f 13 16 14
f 16 20 22
f 16 22 21
f 17 18 23
f 18 24 31
f 18 31 38
f 18 38 35
f 18 35 29
f 18 29 25
f 18 25 23
f 19 22 20
f 21 22 28
f 21 28 26
f 21 26 32
f 21 32 27
f 23 25 29
f 23 29 35
f 23 35 37
f 23 37 41
f 23 41 39
f 23 39 33
f 23 33 32
f 23 32 26
f 23 26 28
f 24 30 31
f 27 32 33
f 27 33 34
f 30 36 37
f 30 37 38
f 30 38 31
f 33 39 34
f 34 39 40
f 35 38 37
f 36 41 37
f 36 42 41
f 39 43 40
f 39 41 43
f 41 42 43

