# https://github.com/mikedh/trimesh
v 0.04714352 -0.00281820 0.04748163
v 0.04714352 -0.00335990 0.04753882
v 0.04714352 -0.00281820 0.04622534
v 0.04681534 -0.00281820 0.04731959
v 0.04714352 -0.00412024 0.04761253
v 0.04714352 -0.01115178 0.04729671
v 0.04663152 -0.01115178 0.04700567
v 0.03732821 -0.01115178 0.04195130
v 0.04677380 -0.00281820 0.04602962
v 0.03929003 -0.00281820 0.04330481
v 0.04664398 -0.00410719 0.04734627
v 0.04707809 -0.00826868 0.04795631
v 0.04714352 -0.00822054 0.04798427
v 0.04714352 -0.01115178 0.04818888
v 0.03653372 -0.01115178 0.04209808
v 0.03697303 -0.00931619 0.04171681
v 0.03702392 -0.00931619 0.04171681
v 0.03780594 -0.00468969 0.04171427
v 0.03947385 -0.00281820 0.04242916
v 0.04462712 -0.00625524 0.04646618
v 0.03791603 -0.00281820 0.04257086
v 0.03777478 -0.00294465 0.04250732
v 0.03733132 -0.00728072 0.04266681
v 0.04598242 -0.00801251 0.04734945
v 0.04683403 -0.01112078 0.04808594
v 0.04714352 -0.00857379 0.04801604
v 0.04714352 -0.01075611 0.04817046
v 0.04686000 -0.01115178 0.04809611
v 0.03667600 -0.01115178 0.04265982
v 0.03699380 -0.00756871 0.04251049
v 0.03699899 -0.00684344 0.04173588
v 0.03699899 -0.00684344 0.04172762
v 0.03698030 -0.00723585 0.04171364
v 0.03695226 -0.00801251 0.04169712
v 0.03695122 -0.00878917 0.04170283
v 0.03705611 -0.00878917 0.04170283
v 0.03783918 -0.00412840 0.04170093
v 0.03894315 -0.00281820 0.04217180
v 0.03776232 -0.00281820 0.04219849
v 0.03703534 -0.00705148 0.04225441
v 0.03669158 -0.01112078 0.04267253
v 0.03811751 -0.01115178 0.04343889
v 0.03951954 -0.01115178 0.04418681
v 0.04683195 -0.01115178 0.04808657
v 0.04714352 -0.01002513 0.04812470
v 0.04714352 -0.00930640 0.04807450
v 0.04532606 -0.01115178 0.04728400
v 0.03669158 -0.01115178 0.04267253
v 0.03775609 -0.00281820 0.04211715
v 0.03775194 -0.00281820 0.04170982
v 0.03773324 -0.00335093 0.04169839
v 0.03707896 -0.00801251 0.04169712
v 0.03785579 -0.00335093 0.04169839
v 0.03824525 -0.00335093 0.04186996
v 0.03783190 -0.00281820 0.04170982
f 1 2 5
f 1 5 13
f 1 13 26
f 1 26 46
f 1 46 45
f 1 45 27
f 1 27 14
f 1 14 6
f 1 6 3
f 1 3 9
f 1 9 19
f 1 19 38
f 1 38 55
f 1 55 50
f 1 50 49
f 1 49 39
f 1 39 21
f 1 21 10
f 1 10 4
f 1 4 2
f 2 4 5
f 3 6 7
f 3 7 8
f 3 8 9
f 4 10 11
f 4 11 5
f 5 12 13
f 5 11 12
f 6 14 28
f 6 28 44
f 6 44 47
f 6 47 43
f 6 43 42
f 6 42 48
f 6 48 29
f 6 29 15
f 6 15 8
f 6 8 7
f 8 15 16
f 8 16 17
f 8 17 18
f 8 18 9
f 9 18 19
f 10 20 11
f 10 21 22
f 10 22 23
f 10 23 20
f 11 20 24
f 11 24 12
f 12 25 26
f 12 26 13
f 12 24 25
f 14 27 28
f 15 29 30
f 15 30 31
f 15 31 32
f 15 32 33
f 15 33 34
f 15 34 35
f 15 35 16
f 16 35 36
f 16 36 17
f 17 36 18
f 18 36 37
f 18 37 19
f 19 37 38
f 20 23 24
f 21 39 22
f 22 39 31
f 22 31 40
f 22 40 30
f 22 30 23
f 23 30 41
f 23 41 42
f 23 42 24
f 24 42 43
f 24 43 25
f 25 44 28
f 25 28 27
f 25 27 45
f 25 45 46
f 25 46 26
f 25 43 47
f 25 47 44
f 29 48 41
f 29 41 30
f 30 40 31
f 31 39 49
f 31 49 50
f 31 50 32
f 32 50 33
f 33 50 51
f 33 51 34
f 34 51 53
f 34 53 52
f 34 52 36
f 34 36 35
f 36 52 37
f 37 53 54
f 37 54 38
f 37 52 53
f 38 54 53
f 38 53 55
f 41 48 42
f 50 55 53
f 50 53 51

