# https://github.com/mikedh/trimesh
v 0.04377450 -0.01244467 -0.02858501
v 0.04377450 -0.01267628 -0.02857961
v 0.04377450 -0.01244467 -0.02760498
v 0.04438216 -0.01244467 -0.02848093
v 0.04377450 -0.01281870 -0.02855032
v 0.04438216 -0.01267628 -0.02847237
v 0.04502085 -0.01323684 -0.02826960
v 0.04377450 -0.01282349 -0.02398223
v 0.04524087 -0.01244467 -0.02715078
v 0.04494636 -0.01244467 -0.02836107
v 0.04523190 -0.01272088 -0.02829033
v 0.04377450 -0.01332364 -0.02839351
v 0.04438216 -0.01333227 -0.02833764
v 0.04553883 -0.01300979 -0.02821418
v 0.04749008 -0.01345335 -0.02778251
v 0.04872953 -0.01390865 -0.02746620
v 0.04826741 -0.01398586 -0.02752117
v 0.04377450 -0.01357730 -0.02398223
v 0.04904473 -0.01372380 -0.02398223
v 0.05082010 -0.01244467 -0.02587291
v 0.04520707 -0.01244467 -0.02830565
v 0.04558298 -0.01249166 -0.02822409
v 0.04826741 -0.01345335 -0.02761759
v 0.04377450 -0.01340036 -0.02828132
v 0.04749008 -0.01403836 -0.02760363
v 0.04671413 -0.01401559 -0.02765274
v 0.04879229 -0.01345335 -0.02748692
v 0.05065870 -0.01342769 -0.02678175
v 0.05082010 -0.01355764 -0.02670650
v 0.05047316 -0.01423017 -0.02675336
v 0.05033108 -0.01464880 -0.02669569
v 0.04377450 -0.01362070 -0.02764553
v 0.04471392 -0.01385135 -0.02398223
v 0.04958341 -0.01381587 -0.02398223
v 0.05082010 -0.01414026 -0.02398223
v 0.05082010 -0.01244467 -0.02678445
v 0.04826741 -0.01244467 -0.02765454
v 0.04377450 -0.01361231 -0.02781856
v 0.04593681 -0.01395109 -0.02766220
v 0.04982206 -0.01465095 -0.02670605
v 0.04935787 -0.01463177 -0.02668758
v 0.04886609 -0.01244467 -0.02750540
v 0.05059869 -0.01244467 -0.02686961
v 0.05059869 -0.01267628 -0.02685429
v 0.05082010 -0.01329822 -0.02672858
v 0.05082010 -0.01423017 -0.02661638
v 0.05082010 -0.01475022 -0.02626132
v 0.05082010 -0.01480344 -0.02607793
v 0.04473254 -0.01384823 -0.02749053
v 0.04471323 -0.01385159 -0.02705075
v 0.04513672 -0.01392376 -0.02398223
v 0.05082010 -0.01489383 -0.02398223
v 0.04515948 -0.01388468 -0.02758966
v 0.05082010 -0.01489167 -0.02549666
v 0.04932062 -0.01463825 -0.02627393
v 0.04671413 -0.01419109 -0.02705075
v 0.04593681 -0.01406042 -0.02705075
v 0.05059869 -0.01485667 -0.02471984
v 0.05055938 -0.01484996 -0.02398223
v 0.05059869 -0.01485667 -0.02398223
v 0.05082010 -0.01489407 -0.02471984
v 0.05082010 -0.01489383 -0.02527587
v 0.05059869 -0.01485643 -0.02549666
f 1 2 5
f 1 5 12
f 1 12 24
f 1 24 38
f 1 38 32
f 1 32 18
f 1 18 8
f 1 8 3
f 1 3 9
f 1 9 20
f 1 20 36
f 1 36 43
f 1 43 42
f 1 42 37
f 1 37 21
f 1 21 10
f 1 10 4
f 1 4 2
f 2 4 6
f 2 6 7
f 2 7 5
f 3 8 9
f 4 10 11
f 4 11 6
f 5 7 13
f 5 13 12
f 6 11 14
f 6 14 7
f 7 14 15
f 7 15 16
f 7 16 17
f 7 17 13
f 8 18 33
f 8 33 51
f 8 51 59
f 8 59 60
f 8 60 52
f 8 52 35
f 8 35 34
f 8 34 19
f 8 19 20
f 8 20 9
f 10 21 22
f 10 22 11
f 11 22 23
f 11 23 14
f 12 13 25
f 12 25 26
f 12 26 24
f 13 17 25
f 14 23 15
f 15 23 16
f 16 23 27
f 16 27 28
f 16 28 29
f 16 29 30
f 16 30 31
f 16 31 17
f 17 31 25
f 18 32 33
f 19 34 20
f 20 34 35
f 20 35 52
f 20 52 61
f 20 61 62
f 20 62 54
f 20 54 48
f 20 48 47
f 20 47 46
f 20 46 29
f 20 29 45
f 20 45 36
f 21 37 22
f 22 37 23
f 23 37 27
f 24 26 39
f 24 39 38
f 25 31 40
f 25 40 26
f 26 40 41
f 26 41 39
f 27 37 42
f 27 42 43
f 27 43 44
f 27 44 28
f 28 44 43
f 28 43 45
f 28 45 29
f 29 46 30
f 30 46 31
f 31 46 47
f 31 47 48
f 31 48 40
f 32 38 49
f 32 49 50
f 32 50 33
f 33 50 51
f 36 45 43
f 38 53 49
f 38 39 53
f 39 41 53
f 40 48 41
f 41 48 54
f 41 54 55
f 41 55 56
f 41 56 49
f 41 49 53
f 49 56 57
f 49 57 50
f 50 57 55
f 50 55 58
f 50 58 59
f 50 59 51
f 52 60 61
f 54 62 63
f 54 63 55
f 55 63 58
f 55 57 56
f 58 63 61
f 58 61 60
f 58 60 59
f 61 63 62

