# https://github.com/mikedh/trimesh
v 0.05082083 -0.01489419 -0.02243831
v 0.05082083 -0.01489443 -0.02161069
v 0.05082083 -0.01414114 -0.02243831
v 0.05392687 -0.01542507 -0.02243831
v 0.05082083 -0.01489443 -0.02061229
v 0.05526191 -0.01565340 -0.02083360
v 0.05448559 -0.01552074 -0.02083360
v 0.05082083 -0.01364897 -0.02029491
v 0.05137661 -0.01417591 -0.02243831
v 0.05526191 -0.01565315 -0.02243831
v 0.05448559 -0.01552049 -0.01850234
v 0.05392981 -0.01542507 -0.01850234
v 0.05137661 -0.01498813 -0.02005580
v 0.05082083 -0.01488975 -0.02005580
v 0.05448559 -0.01552074 -0.01927871
v 0.05526191 -0.01565340 -0.01850234
v 0.05832972 -0.01616776 -0.01654182
v 0.05082083 -0.01364897 -0.01915276
v 0.05094140 -0.01364897 -0.02024936
v 0.05215367 -0.01425506 -0.02243831
v 0.05832972 -0.01614926 -0.02243831
v 0.05832972 -0.01615296 -0.02238778
v 0.05526191 -0.01565143 -0.01772525
v 0.05082083 -0.01484734 -0.01980531
v 0.05398715 -0.01541545 -0.01803409
v 0.05832972 -0.01616776 -0.01617107
v 0.05082083 -0.01423040 -0.01911789
v 0.05147218 -0.01423040 -0.01874002
v 0.05151629 -0.01364897 -0.01876492
v 0.05162950 -0.01364897 -0.01988644
v 0.05832972 -0.01493635 -0.02243831
v 0.05082083 -0.01476449 -0.01939115
v 0.05472231 -0.01545712 -0.01725202
v 0.05814520 -0.01612781 -0.01617107
v 0.05832972 -0.01587359 -0.01538971
v 0.05082083 -0.01450312 -0.01923602
v 0.05155305 -0.01474057 -0.01877987
v 0.05564934 -0.01539646 -0.01655890
v 0.05564934 -0.01538931 -0.01655890
v 0.05832972 -0.01500737 -0.01516911
v 0.05306674 -0.01364897 -0.01798712
v 0.05832972 -0.01421487 -0.01526446
v 0.05751811 -0.01364897 -0.01671759
v 0.05832972 -0.01364897 -0.01626714
v 0.05832972 -0.01583734 -0.01535413
v 0.05719243 -0.01541077 -0.01577612
v 0.05772395 -0.01364897 -0.01565230
v 0.05832972 -0.01364897 -0.01535057
f 1 2 5
f 1 5 14
f 1 14 24
f 1 24 32
f 1 32 36
f 1 36 27
f 1 27 18
f 1 18 8
f 1 8 3
f 1 3 9
f 1 9 20
f 1 20 31
f 1 31 21
f 1 21 10
f 1 10 4
f 1 4 2
f 2 4 6
f 2 6 7
f 2 7 15
f 2 15 5
f 3 8 9
f 4 10 6
f 5 11 12
f 5 12 13
f 5 13 14
f 5 15 16
f 5 16 11
f 6 10 17
f 6 17 26
f 6 26 16
f 6 16 15
f 6 15 7
f 8 18 29
f 8 29 41
f 8 41 47
f 8 47 48
f 8 48 44
f 8 44 43
f 8 43 30
f 8 30 19
f 8 19 9
f 9 19 20
f 10 21 22
f 10 22 17
f 11 16 23
f 11 23 12
f 12 14 13
f 12 23 14
f 14 23 25
f 14 25 24
f 16 26 23
f 17 22 21
f 17 21 31
f 17 31 44
f 17 44 48
f 17 48 42
f 17 42 40
f 17 40 45
f 17 45 35
f 17 35 26
f 18 27 28
f 18 28 29
f 19 30 31
f 19 31 20
f 23 26 25
f 24 25 32
f 25 33 32
f 25 26 34
f 25 34 33
f 26 35 34
f 27 36 37
f 27 37 28
f 28 37 38
f 28 38 39
f 28 39 40
f 28 40 29
f 29 40 42
f 29 42 41
f 30 43 31
f 31 43 44
f 32 37 36
f 32 33 37
f 33 34 35
f 33 35 38
f 33 38 37
f 35 45 38
f 38 45 46
f 38 46 40
f 38 40 39
f 40 46 45
f 41 42 47
f 42 48 47

