# https://github.com/mikedh/trimesh
v 0.04714352 -0.00282594 0.03995906
v 0.04714352 -0.00323970 0.04650473
v 0.04714352 -0.00173791 0.03995906
v 0.04900643 -0.00334494 0.03995906
v 0.04714352 -0.00182897 0.04650473
v 0.05364812 -0.00412669 0.03995906
v 0.05448362 -0.00422547 0.03995906
v 0.05449454 -0.00422671 0.03995906
v 0.05511317 -0.00396820 0.04650473
v 0.04714352 -0.00171925 0.04600171
v 0.04749145 -0.00177075 0.03995906
v 0.04726522 -0.00181156 0.04650473
v 0.05511317 -0.00426080 0.03995906
v 0.05511317 -0.00313570 0.04650473
v 0.04749145 -0.00177946 0.04650473
v 0.04749145 -0.00175906 0.04600171
v 0.04826844 -0.00186878 0.03995906
v 0.05511317 -0.00310659 0.03995906
v 0.05463184 -0.00298642 0.04650473
v 0.04826844 -0.00186928 0.04650473
v 0.04826844 -0.00186903 0.04444715
v 0.04826844 -0.00186878 0.04056204
v 0.04961180 -0.00209818 0.03995906
v 0.05476914 -0.00301179 0.03995906
v 0.05438065 -0.00291302 0.04650473
v 0.04930210 -0.00204568 0.04650473
v 0.05438143 -0.00291302 0.04289387
v 0.05438143 -0.00291302 0.04133932
v 0.05353344 -0.00276821 0.03995906
v 0.05438065 -0.00291302 0.03995906
f 1 2 5
f 1 5 10
f 1 10 3
f 1 3 11
f 1 11 17
f 1 17 23
f 1 23 29
f 1 29 30
f 1 30 24
f 1 24 18
f 1 18 13
f 1 13 8
f 1 8 7
f 1 7 6
f 1 6 4
f 1 4 2
f 2 4 6
f 2 6 7
f 2 7 8
f 2 8 9
f 2 9 14
f 2 14 19
f 2 19 25
f 2 25 26
f 2 26 20
f 2 20 15
f 2 15 12
f 2 12 5
f 3 10 11
f 5 12 10
f 8 13 9
f 9 13 18
f 9 18 14
f 10 12 15
f 10 15 16
f 10 16 11
f 11 16 17
f 14 18 19
f 15 20 16
f 16 21 22
f 16 22 17
f 16 20 21
f 17 22 23
f 18 24 25
f 18 25 19
f 20 26 21
f 21 26 22
f 22 26 25
f 22 25 23
f 23 25 27
f 23 27 28
f 23 28 29
f 24 30 28
f 24 28 27
f 24 27 25
f 28 30 29

