# https://github.com/mikedh/trimesh
v -0.04768773 0.01652765 -0.03039847
v -0.04760809 0.01670351 -0.03039847
v -0.04233766 0.01652765 -0.03039847
v -0.04768773 0.01652765 0.04657821
v -0.04697229 0.01808768 -0.03039847
v -0.04745703 0.01703064 0.04657821
v -0.04687204 0.01830513 0.04657821
v -0.03366027 0.02887547 -0.03039847
v -0.04233766 0.01652765 0.04657821
v -0.04768636 0.01652765 0.04675572
v -0.04708077 0.01784942 0.04748890
v -0.04536424 0.02158591 -0.03039847
v -0.04536424 0.02158591 0.04748890
v -0.03366027 0.03584547 -0.03039847
v -0.03366027 0.02887547 0.04751977
v -0.04234453 0.01652765 0.04748118
v -0.04767675 0.01652765 0.04748890
v -0.04511294 0.02208512 0.04796740
v -0.04452658 0.02340688 -0.03039847
v -0.04452658 0.02340688 0.04748890
v -0.03401593 0.03559398 -0.03039847
v -0.03366027 0.03584547 0.04728824
v -0.03366027 0.02903431 0.04803686
v -0.04235826 0.01652765 0.04793653
v -0.04234590 0.01652765 0.04752749
v -0.04762319 0.01652765 0.04762010
v -0.04702584 0.01772840 0.04806773
v -0.04422722 0.02395904 0.04799827
v -0.04424919 0.02400820 0.04748890
v -0.04424919 0.02400820 -0.03039847
v -0.03430431 0.03538975 -0.03039847
v -0.03401593 0.03559398 0.04657821
v -0.03556905 0.03449345 0.04748890
v -0.03366027 0.03584358 0.04748890
v -0.04237749 0.01652765 0.04796740
v -0.04235277 0.01654845 0.04795196
v -0.03366027 0.02908159 0.04806002
v -0.04256150 0.01652765 0.04811404
v -0.04731422 0.01652765 0.04818350
v -0.04435355 0.02340688 0.04811404
v -0.04522830 0.02158591 0.04808317
v -0.04717415 0.01703064 0.04816034
v -0.04347194 0.02504822 0.04810632
v -0.04357493 0.02518814 0.04748890
v -0.04403084 0.02446392 0.04748890
v -0.04403359 0.02446392 0.04657821
v -0.04413658 0.02424646 -0.03039847
v -0.03556905 0.03449345 -0.03039847
v -0.03617189 0.03403773 0.04748890
v -0.03510215 0.03480545 0.04796740
v -0.03366027 0.03575092 0.04786707
v -0.03366027 0.02978501 0.04831470
v -0.03366027 0.02982851 0.04833013
v -0.04279632 0.01652765 0.04821437
v -0.04700387 0.01652765 0.04829154
v -0.04630215 0.01885350 0.04817578
v -0.04372736 0.02340688 0.04836100
v -0.04375620 0.02428428 0.04817578
v -0.04645870 0.01703064 0.04840731
v -0.04463781 0.02158591 0.04833013
v -0.03981505 0.02954676 0.04809860
v -0.04067332 0.02857292 0.04806773
v -0.04153158 0.02760098 0.04802914
v -0.04239122 0.02662715 0.04797512
v -0.04289107 0.02530160 0.04824524
v -0.04098366 0.02792622 0.04816806
v -0.04323437 0.02564197 0.04748890
v -0.04323850 0.02564386 0.04657821
v -0.04357768 0.02518814 0.04657821
v -0.04403359 0.02446392 -0.03039847
v -0.03617189 0.03403773 -0.03039847
v -0.03662780 0.03358013 0.04748890
v -0.03611010 0.03398479 0.04805230
v -0.03462152 0.03497186 0.04808317
v -0.03366027 0.03544648 0.04818350
v -0.04331952 0.01652765 0.04838416
v -0.03366027 0.03073994 0.04844590
v -0.04645870 0.01652765 0.04843046
v -0.04554826 0.01885350 0.04842275
v -0.04372736 0.02249545 0.04844590
v -0.04281692 0.02431642 0.04844590
v -0.03698484 0.03307146 0.04803686
v -0.04010480 0.02887358 0.04820665
v -0.03642594 0.03339481 0.04816806
v -0.03784448 0.03209952 0.04798284
v -0.03748469 0.03257604 0.04748890
v -0.04036297 0.02910995 0.04748890
v -0.04202731 0.02710177 0.04748890
v -0.04240495 0.02664606 0.04748890
v -0.04282378 0.02613929 0.04748890
v -0.04190509 0.02613929 0.04834557
v -0.04282790 0.02613929 0.04657821
v -0.04304350 0.02588023 -0.03039847
v -0.04323850 0.02564386 -0.03039847
v -0.04340054 0.02542640 -0.03039847
v -0.04357768 0.02518814 -0.03039847
v -0.03662780 0.03358013 -0.03039847
v -0.03702878 0.03312441 0.04748890
v -0.03545644 0.03430625 0.04812176
v -0.03366027 0.03535950 0.04822209
v -0.04372736 0.01652765 0.04844590
v -0.03366027 0.03433272 0.04844590
v -0.04605223 0.01652765 0.04844590
v -0.04554826 0.01794207 0.04844590
v -0.03826468 0.02977934 0.04844590
v -0.03917513 0.02886980 0.04843046
v -0.04008558 0.02795837 0.04841503
v -0.04099465 0.02704694 0.04838416
v -0.03922319 0.02982283 0.04823752
v -0.03735286 0.03160032 0.04834557
v -0.03644242 0.03251175 0.04838416
v -0.03553197 0.03342318 0.04839959
v -0.03748469 0.03257604 -0.03039847
v -0.04036297 0.02910995 -0.03039847
v -0.03702878 0.03312441 -0.03039847
v -0.03462152 0.03433272 0.04833785
v -0.03371108 0.03433272 0.04844590
v -0.03366027 0.03438378 0.04843818
v -0.03462152 0.03342318 0.04844590
f 1 2 5
f 1 5 12
f 1 12 19
f 1 19 30
f 1 30 47
f 1 47 70
f 1 70 96
f 1 96 95
f 1 95 94
f 1 94 93
f 1 93 114
f 1 114 113
f 1 113 115
f 1 115 97
f 1 97 71
f 1 71 48
f 1 48 31
f 1 31 21
f 1 21 14
f 1 14 8
f 1 8 3
f 1 3 9
f 1 9 16
f 1 16 25
f 1 25 24
f 1 24 35
f 1 35 38
f 1 38 54
f 1 54 76
f 1 76 101
f 1 101 103
f 1 103 78
f 1 78 55
f 1 55 39
f 1 39 26
f 1 26 17
f 1 17 10
f 1 10 4
f 1 4 2
f 2 4 6
f 2 6 7
f 2 7 5
f 3 8 15
f 3 15 9
f 4 10 11
f 4 11 6
f 5 7 13
f 5 13 12
f 6 11 7
f 7 11 13
f 8 14 22
f 8 22 34
f 8 34 51
f 8 51 75
f 8 75 100
f 8 100 118
f 8 118 102
f 8 102 77
f 8 77 53
f 8 53 52
f 8 52 37
f 8 37 23
f 8 23 15
f 9 15 16
f 10 17 11
f 11 17 18
f 11 18 13
f 12 13 20
f 12 20 19
f 13 18 20
f 14 21 32
f 14 32 22
f 15 23 24
f 15 24 25
f 15 25 16
f 17 26 27
f 17 27 18
f 18 27 28
f 18 28 29
f 18 29 20
f 19 20 29
f 19 29 30
f 21 31 32
f 22 32 33
f 22 33 34
f 23 35 36
f 23 36 24
f 23 37 38
f 23 38 35
f 24 36 35
f 26 39 27
f 27 40 41
f 27 41 28
f 27 39 42
f 27 42 40
f 28 41 40
f 28 40 43
f 28 43 44
f 28 44 45
f 28 45 29
f 29 45 46
f 29 46 47
f 29 47 30
f 31 48 33
f 31 33 32
f 33 49 50
f 33 50 34
f 33 48 71
f 33 71 49
f 34 50 51
f 37 52 38
f 38 52 53
f 38 53 54
f 39 55 42
f 40 42 56
f 40 56 57
f 40 57 58
f 40 58 43
f 42 55 59
f 42 59 60
f 42 60 57
f 42 57 56
f 43 61 62
f 43 62 63
f 43 63 64
f 43 64 44
f 43 58 65
f 43 65 66
f 43 66 61
f 44 64 67
f 44 67 68
f 44 68 69
f 44 69 46
f 44 46 45
f 46 69 96
f 46 96 70
f 46 70 47
f 49 72 73
f 49 73 50
f 49 71 97
f 49 97 72
f 50 73 74
f 50 74 75
f 50 75 51
f 53 76 54
f 53 77 76
f 55 78 59
f 57 65 58
f 57 60 59
f 57 59 79
f 57 79 80
f 57 80 81
f 57 81 65
f 59 78 79
f 61 82 62
f 61 66 83
f 61 83 84
f 61 84 82
f 62 82 63
f 63 82 85
f 63 85 64
f 64 85 86
f 64 86 87
f 64 87 88
f 64 88 89
f 64 89 90
f 64 90 67
f 65 83 66
f 65 81 91
f 65 91 83
f 67 90 68
f 68 90 89
f 68 89 88
f 68 88 92
f 68 92 93
f 68 93 94
f 68 94 95
f 68 95 69
f 69 95 96
f 72 98 82
f 72 82 73
f 72 97 115
f 72 115 98
f 73 82 84
f 73 84 99
f 73 99 74
f 74 99 75
f 75 99 100
f 76 77 101
f 77 102 117
f 77 117 119
f 77 119 105
f 77 105 81
f 77 81 80
f 77 80 104
f 77 104 103
f 77 103 101
f 78 103 104
f 78 104 80
f 78 80 79
f 81 105 106
f 81 106 107
f 81 107 108
f 81 108 91
f 82 98 85
f 83 91 109
f 83 109 84
f 84 109 110
f 84 110 111
f 84 111 112
f 84 112 99
f 85 98 86
f 86 98 115
f 86 115 113
f 86 113 114
f 86 114 87
f 87 92 88
f 87 114 93
f 87 93 92
f 91 108 111
f 91 111 110
f 91 110 109
f 99 112 116
f 99 116 100
f 100 116 117
f 100 117 118
f 102 118 117
f 105 119 112
f 105 112 106
f 106 112 111
f 106 111 107
f 107 111 108
f 112 119 117
f 112 117 116

