# https://github.com/mikedh/trimesh
v 0.03136871 0.02521986 -0.03039846
v 0.03248165 0.02364953 -0.03039846
v 0.03136871 0.02521986 -0.03818809
v 0.02532040 0.02521986 -0.03039846
v 0.03310218 0.02277262 -0.03039846
v 0.03310218 0.02277262 -0.03818809
v 0.03262862 0.02344150 -0.03818809
v 0.03196663 0.02437602 -0.03818809
v 0.02821957 0.01794214 -0.03818885
v 0.02366607 0.02521986 -0.03818809
v 0.02370878 0.02435895 -0.03818809
v 0.03120415 0.01432249 -0.03039846
v 0.03341370 0.02231709 -0.03039846
v 0.03341370 0.02231709 -0.03818809
v 0.02969679 0.01432249 -0.03818809
v 0.02929482 0.01446437 -0.03818809
v 0.03376040 0.02164074 -0.03818809
v 0.03378929 0.02158314 -0.03818809
v 0.03403800 0.02096546 -0.03818809
v 0.03407192 0.02087905 -0.03818809
v 0.03422768 0.02045873 -0.03818809
v 0.03518863 0.01786320 -0.03818809
v 0.03547251 0.01709617 -0.03818809
v 0.03615585 0.01524954 -0.03818809
v 0.03649878 0.01432249 -0.03818809
v 0.03649878 0.01432249 -0.03039846
v 0.03378929 0.02158314 -0.03039846
v 0.03405810 0.02091425 -0.03039846
v 0.03414729 0.02067529 -0.03039846
v 0.03422768 0.02045873 -0.03039846
v 0.03464597 0.01932898 -0.03039846
v 0.03518863 0.01786320 -0.03039846
v 0.03564712 0.01662464 -0.03039846
f 1 2 3
f 1 3 10
f 1 10 4
f 1 4 12
f 1 12 26
f 1 26 33
f 1 33 32
f 1 32 31
f 1 31 30
f 1 30 29
f 1 29 28
f 1 28 27
f 1 27 13
f 1 13 5
f 1 5 2
f 2 5 6
f 2 6 7
f 2 7 8
f 2 8 3
f 3 8 9
f 3 9 10
f 4 10 11
f 4 11 12
f 5 13 14
f 5 14 6
f 6 14 9
f 6 9 7
f 7 9 8
f 9 15 16
f 9 16 11
f 9 11 10
f 9 14 17
f 9 17 18
f 9 18 19
f 9 19 20
f 9 20 21
f 9 21 22
f 9 22 23
f 9 23 24
f 9 24 25
f 9 25 15
f 11 16 12
f 12 16 15
f 12 15 25
f 12 25 26
f 13 27 17
f 13 17 14
f 17 27 18
f 18 27 19
f 19 27 28
f 19 28 20
f 20 28 29
f 20 29 30
f 20 30 21
f 21 30 31
f 21 31 22
f 22 31 32
f 22 32 33
f 22 33 23
f 23 33 24
f 24 26 25
f 24 33 26

