# https://github.com/mikedh/trimesh
v -0.05051011 0.00109679 -0.03818806
v -0.05051011 0.00109679 -0.03039847
v -0.04374075 0.00109679 -0.03818806
v -0.05046080 0.00056562 -0.03818806
v -0.04518561 0.00109679 -0.03039847
v -0.05046731 0.00063624 -0.03039847
v -0.04116177 -0.01227668 -0.03818806
v -0.05020681 -0.00216676 -0.03818806
v -0.04248103 -0.01393494 -0.03039847
v -0.05038265 -0.00027455 -0.03039847
v -0.04103152 -0.01305799 -0.03818806
v -0.04986816 -0.00580845 -0.03818806
v -0.04987467 -0.00573782 -0.03039847
v -0.04769854 -0.01393494 -0.03039847
v -0.04100640 -0.01393494 -0.03818806
v -0.04100640 -0.01393347 -0.03818806
v -0.04970162 -0.00759913 -0.03818806
v -0.04970534 -0.00755793 -0.03039847
v -0.04769854 -0.01393494 -0.03818806
v -0.04819721 -0.01258862 -0.03039847
v -0.04965510 -0.00808322 -0.03818806
v -0.04967929 -0.00783308 -0.03039847
v -0.04861867 -0.01144976 -0.03818806
v -0.04892197 -0.01063020 -0.03039847
v -0.04960021 -0.00853788 -0.03818806
v -0.04962905 -0.00829951 -0.03039847
v -0.04965510 -0.00808322 -0.03039847
v -0.04904757 -0.01029031 -0.03818806
v -0.04938436 -0.00937952 -0.03039847
v -0.04935831 -0.00945014 -0.03818806
v -0.04958346 -0.00860409 -0.03818806
v -0.04960021 -0.00853788 -0.03039847
v -0.04938436 -0.00937952 -0.03818806
f 1 2 5
f 1 5 3
f 1 3 7
f 1 7 11
f 1 11 16
f 1 16 15
f 1 15 19
f 1 19 23
f 1 23 28
f 1 28 30
f 1 30 33
f 1 33 31
f 1 31 25
f 1 25 21
f 1 21 17
f 1 17 12
f 1 12 8
f 1 8 4
f 1 4 2
f 2 4 6
f 2 6 10
f 2 10 13
f 2 13 18
f 2 18 22
f 2 22 27
f 2 27 26
f 2 26 32
f 2 32 29
f 2 29 24
f 2 24 20
f 2 20 14
f 2 14 9
f 2 9 5
f 3 5 7
f 4 8 10
f 4 10 6
f 5 9 7
f 7 9 11
f 8 12 13
f 8 13 10
f 9 14 19
f 9 19 15
f 9 15 16
f 9 16 11
f 12 17 13
f 13 17 18
f 14 20 19
f 17 21 22
f 17 22 18
f 19 20 23
f 20 24 23
f 21 25 26
f 21 26 27
f 21 27 22
f 23 24 28
f 24 29 30
f 24 30 28
f 25 31 32
f 25 32 26
f 29 33 30
f 29 32 31
f 29 31 33

