# https://github.com/mikedh/trimesh
v -0.08065880 -0.01010161 -0.00367981
v -0.08065880 -0.01443497 -0.00367981
v -0.08065880 -0.01018697 -0.00359577
v -0.05439635 -0.01450481 0.00119848
v -0.05439635 -0.01521207 -0.00367981
v -0.08065880 -0.02142554 -0.00300079
v -0.07295103 -0.01638382 -0.00367981
v -0.08065880 -0.01144740 -0.00300604
v -0.06117599 -0.01523202 0.00119848
v -0.05439635 -0.01750790 0.00119848
v -0.05439635 -0.01707445 -0.00367981
v -0.07968954 -0.02142554 -0.00298360
v -0.08065880 -0.02142554 -0.00098185
v -0.06781166 -0.01718752 -0.00367981
v -0.06612768 -0.01717976 -0.00367981
v -0.08065880 -0.01354147 -0.00208635
v -0.07279677 -0.01853442 0.00119848
v -0.05439635 -0.01751344 0.00117938
v -0.07035178 -0.02142554 0.00119848
v -0.05439635 -0.01751344 -0.00268563
v -0.07182495 -0.02142554 -0.00113800
v -0.07551943 -0.02142554 -0.00243302
v -0.07620588 -0.02142554 -0.00261352
v -0.07799270 -0.02142554 -0.00291579
v -0.07784616 -0.02142554 0.00119848
v -0.08065880 -0.01653347 -0.00135670
v -0.08065880 -0.01483848 -0.00164990
v -0.05439635 -0.01752896 0.00112446
v -0.06998671 -0.02142554 0.00030744
v -0.05439635 -0.01774624 0.00030744
v -0.05439635 -0.01777284 -0.00138774
v -0.07121049 -0.02142554 -0.00073164
f 1 2 6
f 1 6 13
f 1 13 26
f 1 26 27
f 1 27 16
f 1 16 8
f 1 8 3
f 1 3 4
f 1 4 5
f 1 5 11
f 1 11 15
f 1 15 14
f 1 14 7
f 1 7 2
f 2 7 6
f 3 8 9
f 3 9 4
f 4 9 17
f 4 17 25
f 4 25 19
f 4 19 10
f 4 10 18
f 4 18 28
f 4 28 30
f 4 30 31
f 4 31 20
f 4 20 11
f 4 11 5
f 6 12 24
f 6 24 23
f 6 23 22
f 6 22 21
f 6 21 32
f 6 32 29
f 6 29 19
f 6 19 25
f 6 25 13
f 6 7 14
f 6 14 15
f 6 15 11
f 6 11 12
f 8 16 17
f 8 17 9
f 10 19 18
f 11 20 21
f 11 21 22
f 11 22 23
f 11 23 24
f 11 24 12
f 13 25 26
f 16 27 25
f 16 25 17
f 18 19 28
f 19 29 30
f 19 30 28
f 20 31 29
f 20 29 32
f 20 32 21
f 25 27 26
f 29 31 30

