# https://github.com/mikedh/trimesh
v -0.03080467 -0.00340647 0.00347967
v -0.03072157 -0.00466583 0.00348568
v -0.03080467 -0.00340647 0.00268284
v -0.03221253 -0.00340647 0.00413634
v -0.03084866 -0.00636085 0.00327007
v -0.03072157 -0.00466583 0.00258297
v -0.03221253 -0.00466583 0.00415563
v -0.03108820 -0.00804176 0.00119848
v -0.03124463 -0.00705579 0.00119848
v -0.03221253 -0.00340647 0.00254011
v -0.04917036 -0.00340647 0.00542268
v -0.04917036 -0.00466583 0.00547711
v -0.03116152 -0.00741031 0.00297903
v -0.03110286 -0.00940166 0.00147709
v -0.03221253 -0.00636085 0.00379815
v -0.03113219 -0.00952865 0.00119848
v -0.03110775 -0.00879490 0.00119848
v -0.03390880 -0.00636085 0.00396446
v -0.04917036 -0.00636085 0.00526837
v -0.05256290 -0.00975265 0.00497004
v -0.05321306 -0.01236662 0.00457098
v -0.03144994 -0.00700640 0.00119848
v -0.08065648 -0.00340647 0.00238237
v -0.05086663 -0.00340647 0.00548354
v -0.05764682 -0.00340647 0.00557741
v -0.05086663 -0.00466583 0.00549769
v -0.05425917 -0.00805587 0.00527351
v -0.05256290 -0.00805587 0.00524179
v -0.03288223 -0.01096792 0.00119848
v -0.03263293 -0.01081270 0.00119848
v -0.03214898 -0.00988141 0.00164683
v -0.03180190 -0.01025534 0.00119848
v -0.03130329 -0.00991669 0.00119848
v -0.03221253 -0.00764314 0.00312691
v -0.03585438 -0.01266647 0.00119848
v -0.03595215 -0.01254300 0.00129278
v -0.05425917 -0.01333848 0.00427951
v -0.05261178 -0.01301570 0.00414320
v -0.05425917 -0.01144767 0.00479730
v -0.05425917 -0.01249009 0.00460398
v -0.07779678 -0.02142554 0.00377243
v -0.07629604 -0.02142554 0.00358598
v -0.07610050 -0.02142554 0.00356111
v -0.03174324 -0.00700640 0.00119848
v -0.06117135 -0.01523105 0.00119848
v -0.07279595 -0.01853466 0.00119848
v -0.07784566 -0.02142554 0.00119848
v -0.08065648 -0.02142554 0.00197645
v -0.08065648 -0.00340647 0.00389416
v -0.05808189 -0.00340647 0.00556841
v -0.06273075 -0.00466583 0.00544239
v -0.06103448 -0.00636085 0.00543596
v -0.05933821 -0.00636085 0.00543596
v -0.05595055 -0.00975265 0.00508320
v -0.05425917 -0.00975265 0.00505448
v -0.05595055 -0.00805587 0.00528294
v -0.08065648 -0.01660329 0.00452726
v -0.08065648 -0.02142554 0.00393660
v -0.03730134 -0.01308625 0.00119848
v -0.07022466 -0.02081527 0.00287916
v -0.05256290 -0.01455551 0.00327907
v -0.06781957 -0.01955238 0.00318049
v -0.05595055 -0.01144767 0.00484959
v -0.07361231 -0.02142554 0.00307504
v -0.07035176 -0.02142554 0.00119848
v -0.08065648 -0.01189392 0.00455598
v -0.06273075 -0.00340647 0.00544239
v -0.08065648 -0.01310213 0.00457098
v -0.08065648 -0.01483772 0.00457055
v -0.08065648 -0.01558910 0.00456198
v -0.08065648 -0.01611824 0.00455383
v -0.05933821 -0.00805587 0.00528894
v -0.05764682 -0.01144767 0.00488602
v -0.04772828 -0.01594362 0.00119848
v -0.07310392 -0.02142554 0.00295374
v -0.07191604 -0.02142554 0.00255854
v -0.05328149 -0.01735820 0.00119848
v -0.07035664 -0.02142554 0.00121520
v -0.07109968 -0.02142554 0.00210033
v -0.07094814 -0.02142554 0.00200560
f 1 2 6
f 1 6 3
f 1 3 10
f 1 10 23
f 1 23 49
f 1 49 67
f 1 67 50
f 1 50 25
f 1 25 24
f 1 24 11
f 1 11 4
f 1 4 2
f 2 5 6
f 2 4 7
f 2 7 5
f 3 6 8
f 3 8 9
f 3 9 10
f 4 11 12
f 4 12 7
f 5 13 14
f 5 14 6
f 5 7 15
f 5 15 13
f 6 14 16
f 6 16 17
f 6 17 8
f 7 18 15
f 7 12 19
f 7 19 20
f 7 20 21
f 7 21 18
f 8 17 16
f 8 16 33
f 8 33 32
f 8 32 30
f 8 30 29
f 8 29 35
f 8 35 59
f 8 59 74
f 8 74 77
f 8 77 65
f 8 65 47
f 8 47 46
f 8 46 45
f 8 45 44
f 8 44 22
f 8 22 9
f 9 22 10
f 10 22 23
f 11 24 12
f 12 24 25
f 12 25 26
f 12 26 27
f 12 27 28
f 12 28 19
f 13 29 30
f 13 30 31
f 13 31 32
f 13 32 33
f 13 33 14
f 13 15 34
f 13 34 35
f 13 35 29
f 14 33 16
f 15 36 34
f 15 18 21
f 15 21 37
f 15 37 38
f 15 38 36
f 19 28 20
f 20 28 39
f 20 39 21
f 21 39 40
f 21 40 41
f 21 41 42
f 21 42 43
f 21 43 37
f 22 44 23
f 23 45 46
f 23 46 47
f 23 47 48
f 23 48 58
f 23 58 57
f 23 57 71
f 23 71 70
f 23 70 69
f 23 69 68
f 23 68 66
f 23 66 49
f 23 44 45
f 25 50 51
f 25 51 52
f 25 52 53
f 25 53 26
f 26 53 27
f 27 54 55
f 27 55 28
f 27 53 56
f 27 56 57
f 27 57 58
f 27 58 54
f 28 55 39
f 30 32 31
f 34 36 35
f 35 36 60
f 35 60 59
f 36 38 37
f 36 37 61
f 36 61 60
f 37 43 62
f 37 62 61
f 39 55 63
f 39 63 58
f 39 58 40
f 40 58 41
f 41 58 48
f 41 48 47
f 41 47 65
f 41 65 78
f 41 78 80
f 41 80 79
f 41 79 76
f 41 76 75
f 41 75 64
f 41 64 43
f 41 43 42
f 43 64 60
f 43 60 62
f 49 66 67
f 50 67 51
f 51 67 68
f 51 68 69
f 51 69 70
f 51 70 71
f 51 71 52
f 52 72 53
f 52 71 57
f 52 57 72
f 53 72 56
f 54 73 55
f 54 58 73
f 55 73 63
f 56 72 57
f 58 63 73
f 59 60 74
f 60 64 75
f 60 75 76
f 60 76 74
f 60 61 62
f 65 77 78
f 66 68 67
f 74 76 77
f 76 79 77
f 77 79 80
f 77 80 78

