# https://github.com/mikedh/trimesh
v -0.08234603 -0.00969600 -0.00367981
v -0.08312042 -0.00969600 -0.00351678
v -0.08066137 -0.01018626 -0.00359578
v -0.08138822 -0.00992448 -0.00367981
v -0.09429485 -0.00969600 -0.00367981
v -0.08138822 -0.01009326 -0.00352972
v -0.08915258 -0.00969600 -0.00257080
v -0.08066137 -0.01010130 -0.00367981
v -0.08066137 -0.01144808 -0.00300626
v -0.09827553 -0.00969600 -0.00356910
v -0.09355442 -0.01011967 -0.00367981
v -0.13394539 -0.02142554 -0.00316613
v -0.13564363 -0.02142554 -0.00314552
v -0.13734188 -0.02142554 -0.00310007
v -0.08986584 -0.00969600 -0.00246114
v -0.08066137 -0.01443558 -0.00367981
v -0.08066137 -0.01354117 -0.00208671
v -0.08885369 -0.01054793 -0.00221618
v -0.11021756 -0.00969600 -0.00323668
v -0.09127198 -0.01107378 -0.00367981
v -0.13055570 -0.02142554 -0.00317274
v -0.08477791 -0.01360432 -0.00367981
v -0.08308646 -0.01404980 -0.00367981
v -0.13903333 -0.02142554 -0.00304907
v -0.09030059 -0.00969600 -0.00240617
v -0.08066137 -0.02142554 -0.00300098
v -0.08138822 -0.02142554 -0.00301657
v -0.08308646 -0.02142554 -0.00303322
v -0.09834346 -0.02142554 -0.00316190
v -0.10004170 -0.02142554 -0.00317221
v -0.10023870 -0.02142554 -0.00317247
v -0.10173994 -0.02142554 -0.00317379
v -0.10343139 -0.02142554 -0.00317432
v -0.10682108 -0.02142554 -0.00317459
v -0.11021756 -0.02142554 -0.00317485
v -0.11210601 -0.02142554 -0.00317485
v -0.11718715 -0.02142554 -0.00317459
v -0.12566477 -0.02142554 -0.00317406
v -0.12886425 -0.02142554 -0.00317379
v -0.08066137 -0.01483858 -0.00164992
v -0.08986584 -0.01039293 -0.00215647
v -0.09156408 -0.01013459 -0.00205658
v -0.14073157 -0.02142554 -0.00297614
v -0.14412126 -0.02142554 -0.00277083
v -0.14581950 -0.02142554 -0.00266064
v -0.11190901 -0.00969600 -0.00309531
v -0.09156408 -0.00969600 -0.00226692
v -0.08066137 -0.02142554 -0.00098165
v -0.08066137 -0.01653326 -0.00135714
v -0.08986584 -0.01144808 -0.00181850
v -0.09156408 -0.01144808 -0.00168744
v -0.11156257 -0.00969600 -0.00098033
v -0.09336422 -0.00969600 -0.00208380
v -0.10004170 -0.00969600 -0.00159311
v -0.14607084 -0.02142554 -0.00263553
v -0.12305627 -0.01225294 -0.00227537
v -0.11796154 -0.01056630 -0.00226480
v -0.11363443 -0.00969600 -0.00265403
v -0.14703544 -0.02066776 -0.00232664
v -0.11188863 -0.01003815 -0.00098033
v -0.11357329 -0.01137690 -0.00098033
v -0.11363443 -0.01142512 -0.00098033
v -0.11715997 -0.01296824 -0.00098033
v -0.11868839 -0.01358709 -0.00098033
v -0.13225394 -0.01874116 -0.00098033
v -0.13734188 -0.02048750 -0.00098033
v -0.14051419 -0.02142554 -0.00098033
v -0.10004170 -0.00975226 -0.00157831
v -0.10173994 -0.00975226 -0.00148212
v -0.11641275 -0.00969600 -0.00098033
v -0.10173994 -0.00969600 -0.00149639
v -0.14750415 -0.02142554 -0.00247778
v -0.11627010 -0.00969600 -0.00139572
v -0.14816307 -0.02089969 -0.00200268
v -0.14837365 -0.02066776 -0.00098033
v -0.11531229 -0.00969600 -0.00189143
v -0.14766719 -0.02142554 -0.00241727
v -0.15005831 -0.02142554 -0.00098033
v -0.11635841 -0.00969600 -0.00114125
v -0.14918202 -0.02142554 -0.00176169
v -0.14998358 -0.02142554 -0.00140391
v -0.14852989 -0.02072287 -0.00098033
v -0.14868613 -0.02079176 -0.00098033
f 1 2 3
f 1 3 4
f 1 4 8
f 1 8 16
f 1 16 23
f 1 23 22
f 1 22 20
f 1 20 11
f 1 11 5
f 1 5 10
f 1 10 19
f 1 19 46
f 1 46 58
f 1 58 76
f 1 76 73
f 1 73 79
f 1 79 70
f 1 70 52
f 1 52 71
f 1 71 54
f 1 54 53
f 1 53 47
f 1 47 25
f 1 25 15
f 1 15 7
f 1 7 2
f 2 6 3
f 2 7 6
f 3 8 4
f 3 6 9
f 3 9 17
f 3 17 40
f 3 40 49
f 3 49 48
f 3 48 26
f 3 26 16
f 3 16 8
f 5 11 12
f 5 12 13
f 5 13 14
f 5 14 10
f 6 7 15
f 6 15 9
f 9 15 18
f 9 18 17
f 10 14 19
f 11 20 12
f 12 21 39
f 12 39 38
f 12 38 37
f 12 37 36
f 12 36 35
f 12 35 34
f 12 34 33
f 12 33 32
f 12 32 31
f 12 31 30
f 12 30 29
f 12 29 28
f 12 28 27
f 12 27 26
f 12 26 48
f 12 48 67
f 12 67 78
f 12 78 81
f 12 81 80
f 12 80 77
f 12 77 72
f 12 72 55
f 12 55 45
f 12 45 44
f 12 44 43
f 12 43 24
f 12 24 14
f 12 14 13
f 12 20 22
f 12 22 23
f 12 23 16
f 12 16 21
f 14 24 19
f 15 25 18
f 16 26 27
f 16 27 28
f 16 28 29
f 16 29 30
f 16 30 31
f 16 31 32
f 16 32 33
f 16 33 34
f 16 34 35
f 16 35 36
f 16 36 37
f 16 37 38
f 16 38 39
f 16 39 21
f 17 18 41
f 17 41 42
f 17 42 40
f 18 25 41
f 19 24 43
f 19 43 44
f 19 44 45
f 19 45 46
f 25 47 42
f 25 42 41
f 40 42 50
f 40 50 51
f 40 51 52
f 40 52 49
f 42 51 50
f 42 47 53
f 42 53 54
f 42 54 51
f 45 55 46
f 46 56 57
f 46 57 58
f 46 55 59
f 46 59 56
f 48 49 52
f 48 52 60
f 48 60 61
f 48 61 62
f 48 62 63
f 48 63 64
f 48 64 65
f 48 65 66
f 48 66 67
f 51 54 68
f 51 68 69
f 51 69 52
f 52 70 75
f 52 75 82
f 52 82 83
f 52 83 78
f 52 78 67
f 52 67 66
f 52 66 65
f 52 65 64
f 52 64 63
f 52 63 62
f 52 62 61
f 52 61 60
f 52 69 71
f 54 71 68
f 55 72 59
f 56 73 57
f 56 59 74
f 56 74 75
f 56 75 73
f 57 73 76
f 57 76 58
f 59 72 77
f 59 77 74
f 68 71 69
f 70 79 75
f 73 75 79
f 74 77 80
f 74 80 81
f 74 81 82
f 74 82 75
f 78 83 81
f 81 83 82

