# https://github.com/mikedh/trimesh
v -0.04108375 0.01371900 -0.00040717
v -0.03409308 0.01352251 0.00224648
v -0.03098612 0.01356345 0.00194553
v -0.03098612 0.01332603 -0.00230974
v -0.04140592 0.01256737 -0.00534025
v -0.06740910 0.01103096 -0.00243012
v -0.04608402 0.01306132 0.00137502
v -0.03914190 0.01275294 0.00453114
v -0.03098612 0.01269290 0.00454684
v -0.03098612 0.01187967 -0.00619601
v -0.03724418 0.01022591 -0.00868218
v -0.05814999 0.00895148 -0.00658595
v -0.07213574 0.00863492 -0.00447925
v -0.07195038 0.01003488 0.00157914
v -0.06455810 0.01047698 0.00425635
v -0.03098612 0.01055339 0.00838339
v -0.04633117 0.01097365 0.00676084
v -0.03098612 0.00948909 -0.00927624
v -0.04386413 0.00710669 -0.01048268
v -0.06288988 0.00597143 -0.00891247
v -0.06870661 0.00554844 -0.00835243
v -0.07245350 0.00001135 -0.00764846
v -0.07606800 -0.00251295 -0.00173661
v -0.07548545 0.00365180 0.00389259
v -0.07158408 0.00856942 0.00482948
v -0.06910822 0.00592504 0.00860322
v -0.03592460 0.00905245 0.00979134
v -0.03098612 0.00796359 0.01079104
v -0.03098612 0.00414575 -0.01219683
v -0.04261076 0.00363270 -0.01184877
v -0.06599684 -0.00607973 -0.00543184
v -0.06908615 -0.00705397 -0.00400819
v -0.07300075 -0.00730504 -0.00207683
v -0.04274316 -0.00227826 -0.01153472
v -0.07168118 -0.00844575 0.00371986
v -0.07418793 -0.00180069 0.00969975
v -0.07037925 0.00056806 0.01007136
v -0.04306091 0.00033610 0.01310187
v -0.04050561 0.00397655 0.01220162
v -0.04438932 0.00661002 0.01094283
v -0.03098612 0.00141131 0.01369332
v -0.03098612 0.00382919 -0.01229104
v -0.03614527 0.00283038 -0.01224917
v -0.04243422 -0.00735416 -0.00860890
v -0.04730209 -0.01081996 -0.00285146
v -0.06583796 -0.00988938 0.00052449
v -0.03902274 -0.01076265 -0.00505237
v -0.03098612 -0.00280768 -0.01171792
v -0.03098612 -0.00571404 -0.01086215
v -0.04250042 -0.01275480 0.00205282
v -0.03098612 -0.01411929 0.00290859
v -0.05195371 -0.01070534 0.00510688
v -0.06597036 -0.00841300 0.00660120
v -0.07093533 -0.00419673 0.00989341
v -0.06595713 -0.00279677 0.01067066
v -0.03098612 -0.00333438 0.01444440
v -0.03098612 -0.00169153 0.01431616
v -0.03607907 -0.00765435 -0.00873190
v -0.03098612 -0.01185151 -0.00402127
v -0.03098612 -0.01416023 0.00244276
v -0.03098612 -0.01175600 -0.00413119
v -0.03098612 -0.01185151 0.00845666
v -0.03813125 -0.01078448 0.00953487
v -0.04605313 -0.01050886 0.00846975
v -0.04424368 -0.00677835 0.01246855
v -0.03098612 -0.00562672 0.01403091
v -0.03098612 -0.00957828 0.01167559
f 1 2 3
f 1 3 4
f 1 4 5
f 1 5 6
f 1 6 7
f 1 7 2
f 2 7 8
f 2 8 9
f 2 9 3
f 3 9 16
f 3 16 28
f 3 28 41
f 3 41 57
f 3 57 56
f 3 56 66
f 3 66 67
f 3 67 62
f 3 62 51
f 3 51 60
f 3 60 59
f 3 59 61
f 3 61 49
f 3 49 48
f 3 48 42
f 3 42 29
f 3 29 18
f 3 18 10
f 3 10 4
f 4 10 5
f 5 10 11
f 5 11 12
f 5 12 13
f 5 13 6
f 6 13 14
f 6 14 7
f 7 14 15
f 7 15 8
f 8 16 9
f 8 15 17
f 8 17 16
f 10 18 11
f 11 18 19
f 11 19 20
f 11 20 12
f 12 20 21
f 12 21 13
f 13 21 22
f 13 22 23
f 13 23 24
f 13 24 14
f 14 24 25
f 14 25 15
f 15 25 26
f 15 26 17
f 16 17 27
f 16 27 28
f 17 26 27
f 18 29 19
f 19 29 30
f 19 30 20
f 20 30 21
f 21 30 22
f 22 31 32
f 22 32 33
f 22 33 23
f 22 30 34
f 22 34 31
f 23 33 35
f 23 35 36
f 23 36 24
f 24 36 25
f 25 36 26
f 26 36 37
f 26 37 38
f 26 38 39
f 26 39 40
f 26 40 27
f 27 40 28
f 28 40 41
f 29 42 30
f 30 42 43
f 30 43 34
f 31 34 44
f 31 44 32
f 32 45 46
f 32 46 33
f 32 44 47
f 32 47 45
f 33 46 35
f 34 43 48
f 34 48 49
f 34 49 44
f 35 46 50
f 35 50 51
f 35 51 52
f 35 52 53
f 35 53 54
f 35 54 36
f 36 54 55
f 36 55 37
f 37 55 38
f 38 55 56
f 38 56 57
f 38 57 41
f 38 41 39
f 39 41 40
f 42 48 43
f 44 49 58
f 44 58 47
f 45 47 59
f 45 59 60
f 45 60 46
f 46 60 50
f 47 58 59
f 49 61 58
f 50 60 51
f 51 62 63
f 51 63 64
f 51 64 52
f 52 64 53
f 53 64 54
f 54 64 65
f 54 65 55
f 55 65 56
f 56 65 66
f 58 61 59
f 62 67 63
f 63 67 65
f 63 65 64
f 65 67 66

