# https://github.com/mikedh/trimesh
v 0.02968420 0.02970036 0.01132221
v 0.02855469 0.03095656 0.01133833
v 0.02545977 0.03316308 0.01163808
v 0.01583045 0.03882021 0.01218600
v -0.00092348 0.02970036 0.00897903
v 0.02930370 0.02970036 -0.00774876
v 0.02462687 0.03386795 0.00811847
v 0.02778471 0.03131807 -0.00416147
v 0.02508227 0.03354755 -0.00974062
v 0.02114545 0.03619053 0.01160585
v 0.01091693 0.04106300 0.01216666
v -0.00092348 0.04203991 0.01141891
v 0.01763707 0.03804763 0.00908862
v -0.00092348 0.02970036 -0.01839137
v 0.02884231 0.02970036 -0.01611588
v 0.02218209 0.03553402 0.00280039
v 0.02875243 0.02970036 -0.01766940
v 0.02177762 0.03555820 -0.01690231
v 0.00716287 0.04172797 0.01165742
v 0.01891639 0.03718437 -0.00644986
v 0.01481479 0.03878999 -0.01663479
v 0.00664755 0.04074139 -0.01813675
v -0.00080064 0.04205200 0.01140279
v -0.00092348 0.04203266 0.01109015
v -0.00092348 0.03565976 -0.02010928
v 0.02256858 0.02970036 -0.02068298
v 0.02868652 0.02970036 -0.01820444
v 0.02377599 0.03254888 -0.02005126
v 0.01894036 0.03576616 -0.01989011
v 0.00246806 0.04151156 -0.01607720
v 0.00011616 0.04182228 -0.00164102
v 0.01247188 0.03850465 -0.01966449
v 0.00401702 0.04019853 -0.02006093
v -0.00092348 0.04173402 -0.00152821
v -0.00092348 0.03807060 -0.02062497
v 0.01789174 0.03346776 -0.02074100
v 0.02331759 0.02970036 -0.02057662
v 0.02854271 0.02970036 -0.01843327
v -0.00092348 0.04125886 -0.01673793
v -0.00092348 0.04166390 -0.00433229
v 0.00554800 0.03753862 -0.02069588
v -0.00092348 0.03939572 -0.02030266
f 1 2 3
f 1 3 4
f 1 4 5
f 1 5 14
f 1 14 26
f 1 26 37
f 1 37 38
f 1 38 27
f 1 27 17
f 1 17 15
f 1 15 6
f 1 6 2
f 2 7 3
f 2 6 8
f 2 8 9
f 2 9 7
f 3 10 4
f 3 7 10
f 4 11 12
f 4 12 5
f 4 10 13
f 4 13 11
f 5 12 24
f 5 24 34
f 5 34 40
f 5 40 39
f 5 39 42
f 5 42 35
f 5 35 25
f 5 25 14
f 6 15 8
f 7 9 16
f 7 16 10
f 8 15 9
f 9 15 17
f 9 17 18
f 9 18 16
f 10 16 18
f 10 18 13
f 11 19 12
f 11 13 20
f 11 20 21
f 11 21 22
f 11 22 19
f 12 19 23
f 12 23 24
f 13 18 20
f 14 25 26
f 17 27 18
f 18 21 20
f 18 27 28
f 18 28 29
f 18 29 21
f 19 22 30
f 19 30 31
f 19 31 23
f 21 29 32
f 21 32 22
f 22 32 33
f 22 33 30
f 23 31 34
f 23 34 24
f 25 35 26
f 26 35 36
f 26 36 37
f 27 38 28
f 28 37 36
f 28 36 29
f 28 38 37
f 29 36 33
f 29 33 32
f 30 33 39
f 30 39 40
f 30 40 31
f 31 40 34
f 33 36 41
f 33 41 42
f 33 42 39
f 35 42 41
f 35 41 36

