# https://github.com/mikedh/trimesh
v -0.01899686 -0.03782230 0.01166008
v -0.01899686 -0.03732964 0.01164728
v -0.03121870 -0.02810926 0.01207600
v -0.02133524 -0.03685854 0.01158969
v -0.01899686 -0.03744203 -0.01176268
v -0.01899686 -0.02209577 0.00899818
v -0.03520068 -0.02209577 0.01118017
v -0.03618145 -0.02209577 0.01007638
v -0.03289258 -0.02675753 0.01098501
v -0.02495722 -0.03418126 0.01021395
v -0.02422205 -0.03436754 -0.01583870
v -0.01899686 -0.03738969 -0.01456535
v -0.01899686 -0.02209577 -0.01815826
v -0.03574911 -0.02209577 -0.00717795
v -0.03569191 -0.02220507 -0.00708516
v -0.03394401 -0.02423112 -0.01715685
v -0.03063494 -0.02875125 -0.01107801
v -0.02530545 -0.03370092 -0.00538629
v -0.02853881 -0.03041397 -0.01759517
v -0.02467122 -0.03289573 -0.01923646
v -0.02012736 -0.03542522 -0.01990193
v -0.01899686 -0.03681389 -0.01678892
v -0.01899686 -0.03054021 -0.02026027
v -0.02854218 -0.02209577 -0.02022827
v -0.03528311 -0.02209577 -0.01525002
v -0.03421149 -0.02209577 -0.01980275
v -0.03417953 -0.02214965 -0.01981235
v -0.03044485 -0.02499166 -0.02058980
v -0.02553929 -0.02929164 -0.02060900
v -0.01899686 -0.03340070 -0.02059620
v -0.01899686 -0.03483095 -0.02023147
v -0.01899686 -0.03588246 -0.01989554
v -0.01899686 -0.03088353 -0.02031785
v -0.02917303 -0.02209577 -0.02032425
v -0.03419131 -0.02209577 -0.01981875
v -0.03222303 -0.02209577 -0.02057061
f 1 2 3
f 1 3 4
f 1 4 5
f 1 5 12
f 1 12 22
f 1 22 32
f 1 32 31
f 1 31 30
f 1 30 33
f 1 33 23
f 1 23 13
f 1 13 6
f 1 6 2
f 2 6 3
f 3 6 7
f 3 7 8
f 3 8 9
f 3 9 10
f 3 10 4
f 4 10 11
f 4 11 12
f 4 12 5
f 6 13 24
f 6 24 34
f 6 34 36
f 6 36 35
f 6 35 26
f 6 26 25
f 6 25 14
f 6 14 8
f 6 8 7
f 8 14 15
f 8 15 9
f 9 15 16
f 9 16 17
f 9 17 10
f 10 17 18
f 10 18 11
f 11 18 17
f 11 17 19
f 11 19 20
f 11 20 21
f 11 21 22
f 11 22 12
f 13 23 24
f 14 25 15
f 15 25 16
f 16 25 26
f 16 26 27
f 16 27 19
f 16 19 17
f 19 27 20
f 20 27 28
f 20 28 29
f 20 29 21
f 21 29 30
f 21 30 31
f 21 31 32
f 21 32 22
f 23 33 34
f 23 34 24
f 26 35 27
f 27 35 36
f 27 36 28
f 28 36 29
f 29 36 30
f 30 36 34
f 30 34 33

