# https://github.com/mikedh/trimesh
v 0.00064645 -0.03765118 0.03726680
v -0.02517028 -0.03136944 0.03726680
v 0.00064645 -0.04077039 0.03726680
v 0.00064645 -0.03792327 0.00740910
v -0.02517028 -0.03470614 0.03726680
v -0.02517028 -0.03180818 0.00752893
v -0.00875432 -0.04098788 0.03726680
v -0.00523661 -0.04088714 0.01741038
v -0.00406404 -0.04083065 0.01271661
v -0.00406404 -0.04078734 0.00740910
v 0.00064645 -0.04040791 0.01154463
v 0.00064645 -0.04030623 0.00740910
v -0.02517028 -0.03181006 0.00740910
v -0.01935798 -0.03791292 0.03726680
v -0.02517028 -0.03445193 0.00741202
v -0.00992689 -0.04091256 0.03726680
v -0.00523661 -0.04083441 0.00920068
v -0.00523661 -0.04084477 0.01037266
v -0.00523661 -0.04081841 0.00802578
v -0.00523661 -0.04080899 0.00740910
v 0.00062876 -0.04030811 0.00740910
v 0.00064645 -0.04032223 0.00802578
v 0.00064645 -0.04035236 0.00921529
v 0.00064645 -0.04038155 0.01037266
v -0.02517028 -0.03389174 0.00740910
v -0.01813487 -0.03844016 0.03726680
v -0.02236016 -0.03596494 0.00740910
v -0.02048001 -0.03697612 0.00740910
v -0.02004282 -0.03720584 0.00740910
v -0.01955762 -0.03745534 0.00740910
v -0.01897639 -0.03774250 0.00802578
v -0.01813487 -0.03813982 0.00920068
v -0.01813487 -0.03815300 0.01037266
v -0.02466487 -0.03472309 0.00740910
v -0.02380566 -0.03518631 0.00740910
v -0.01000523 -0.04089279 0.03726680
v -0.01644677 -0.03882147 0.00740910
v -0.01578973 -0.03898624 0.00740910
v -0.01461464 -0.03923762 0.00740910
v -0.01405868 -0.03934871 0.00740910
v -0.01179693 -0.03979781 0.00740910
v -0.01131679 -0.03989291 0.00740910
v -0.01073050 -0.04000777 0.00740910
v -0.01037165 -0.04007650 0.00740910
v -0.00992689 -0.04015653 0.00740910
v -0.00937093 -0.04025633 0.00740910
v -0.00875432 -0.04035895 0.00740910
v -0.00819836 -0.04045028 0.00740910
v -0.00758175 -0.04054913 0.00740910
v -0.00702326 -0.04062446 0.00740910
v -0.00640918 -0.04070260 0.00740910
v -0.00585070 -0.04075533 0.00740910
v -0.01668685 -0.03891280 0.03726680
v -0.01672476 -0.03870661 0.00740910
v -0.01645183 -0.03882335 0.00802578
v -0.01897134 -0.03773591 0.00740910
v -0.01813487 -0.03811816 0.00802578
v -0.01109946 -0.04061033 0.03726680
v -0.01226950 -0.04025538 0.03726680
v -0.01813487 -0.03810404 0.00740910
v -0.01856953 -0.03791386 0.00740910
f 1 2 5
f 1 5 14
f 1 14 26
f 1 26 53
f 1 53 59
f 1 59 58
f 1 58 36
f 1 36 16
f 1 16 7
f 1 7 3
f 1 3 11
f 1 11 24
f 1 24 23
f 1 23 22
f 1 22 12
f 1 12 4
f 1 4 2
f 2 4 6
f 2 6 13
f 2 13 25
f 2 25 15
f 2 15 5
f 3 7 8
f 3 8 9
f 3 9 10
f 3 10 11
f 4 12 21
f 4 21 10
f 4 10 20
f 4 20 52
f 4 52 51
f 4 51 50
f 4 50 49
f 4 49 48
f 4 48 47
f 4 47 46
f 4 46 45
f 4 45 44
f 4 44 43
f 4 43 42
f 4 42 41
f 4 41 40
f 4 40 39
f 4 39 38
f 4 38 37
f 4 37 54
f 4 54 60
f 4 60 61
f 4 61 56
f 4 56 30
f 4 30 29
f 4 29 28
f 4 28 27
f 4 27 35
f 4 35 34
f 4 34 25
f 4 25 13
f 4 13 6
f 5 15 14
f 7 16 17
f 7 17 18
f 7 18 8
f 8 18 9
f 9 18 10
f 10 19 20
f 10 21 22
f 10 22 23
f 10 23 24
f 10 24 11
f 10 18 17
f 10 17 19
f 12 22 21
f 14 15 27
f 14 27 28
f 14 28 29
f 14 29 30
f 14 30 31
f 14 31 32
f 14 32 33
f 14 33 26
f 15 25 34
f 15 34 35
f 15 35 27
f 16 36 37
f 16 37 38
f 16 38 39
f 16 39 40
f 16 40 41
f 16 41 42
f 16 42 43
f 16 43 44
f 16 44 45
f 16 45 46
f 16 46 47
f 16 47 48
f 16 48 49
f 16 49 50
f 16 50 51
f 16 51 52
f 16 52 20
f 16 20 19
f 16 19 17
f 26 33 54
f 26 54 37
f 26 37 55
f 26 55 53
f 30 56 31
f 31 56 32
f 32 56 57
f 32 57 54
f 32 54 33
f 36 58 37
f 37 58 59
f 37 59 55
f 53 55 59
f 54 57 60
f 56 61 57
f 57 61 60

