# https://github.com/mikedh/trimesh
v 0.03120506 -0.02813570 0.04086351
v 0.03108242 -0.02813570 0.04024611
v 0.03107644 -0.02813570 0.04124224
v 0.03070851 -0.02845795 0.04165163
v 0.03083415 -0.02864418 0.04086351
v 0.02943125 -0.03067972 0.04038438
v 0.02943125 -0.03067972 0.04009161
v 0.03096576 -0.02813570 0.03966659
v 0.03085508 -0.02813570 0.04171235
v 0.02355045 -0.03649486 0.04032246
v 0.02473798 -0.03533863 0.04033448
v 0.02592550 -0.03417917 0.04034290
v 0.02711004 -0.03301646 0.04034951
v 0.02828560 -0.03185538 0.04036454
v 0.03059485 -0.02813570 0.04183018
v 0.02993677 -0.02883850 0.04184821
v 0.02116044 -0.03880083 0.04028579
v 0.02235694 -0.03764785 0.04030623
v 0.02828560 -0.03185538 0.04004292
v 0.02873130 -0.03114933 0.03967621
v 0.02917998 -0.03034451 0.03930950
v 0.03054399 -0.02825391 0.03909969
v 0.03058886 -0.02813570 0.03908346
v 0.02355045 -0.03649486 0.04019321
v 0.02473798 -0.03533863 0.04015954
v 0.02592550 -0.03417917 0.04012648
v 0.02711004 -0.03301646 0.04008981
v 0.02994275 -0.02813570 0.04205501
v 0.02946714 -0.02813570 0.04220470
v 0.02877617 -0.02882393 0.04221552
v 0.02760360 -0.02999797 0.04217886
v 0.02294323 -0.03472327 0.04182778
v 0.02257530 -0.03552000 0.04158971
v 0.02212662 -0.03630215 0.04135706
v 0.02173775 -0.03701791 0.04111059
v 0.02056518 -0.03820491 0.04093865
v 0.02056518 -0.03899192 0.04044149
v 0.01891700 -0.04000564 0.04033388
v 0.02116044 -0.03880083 0.04026415
v 0.02235694 -0.03764785 0.04022808
v 0.02794460 -0.03161895 0.03926080
v 0.02839628 -0.03083680 0.03903176
v 0.02671220 -0.02813570 0.03618465
v 0.02643103 -0.02999797 0.04225039
v 0.02525845 -0.03117039 0.04231832
v 0.02829158 -0.02813570 0.04208147
v 0.00064645 -0.04172378 0.04211693
v 0.02408589 -0.03234281 0.04232614
v 0.02291032 -0.03351523 0.04230991
v 0.02173775 -0.03468927 0.04225460
v 0.02173775 -0.03589083 0.04172618
v 0.02134291 -0.03661631 0.04152479
v 0.01934176 -0.03941619 0.04061823
v 0.02056518 -0.03743895 0.04136007
v 0.01948833 -0.03819843 0.04128252
v 0.01176792 -0.04230676 0.04144423
v 0.01891700 -0.04000564 0.04019501
v 0.00855831 -0.04359739 0.04156506
v 0.00876470 -0.04367026 0.04086351
v 0.02056518 -0.03899192 0.04006336
v 0.02185142 -0.03257275 0.03618465
v 0.02185740 -0.03256790 0.03618465
v 0.02256932 -0.03198169 0.03618465
v 0.02560245 -0.02918828 0.03618465
v 0.02623360 -0.02860045 0.03618465
v 0.02278469 -0.02813570 0.03618465
v 0.00064645 -0.04288001 0.04226001
v 0.00064645 -0.04289621 0.04226182
v 0.02706517 -0.02813570 0.04171536
v 0.00064645 -0.03993277 0.04148691
v 0.00064645 -0.04054327 0.04176706
v 0.00064645 -0.04055136 0.04177066
v 0.01939261 -0.03586169 0.04223536
v 0.02056518 -0.03586169 0.04206403
v 0.01118761 -0.04055136 0.04211032
v 0.01001504 -0.04172378 0.04198949
v 0.01130128 -0.04183876 0.04172858
v 0.02056518 -0.03685274 0.04162879
v 0.00890529 -0.04297879 0.04174722
v 0.01822004 -0.04013195 0.04001707
v 0.01934176 -0.03941619 0.03984573
v 0.01549202 -0.04121045 0.04011025
v 0.01206106 -0.04241364 0.03999783
v 0.01151665 -0.04218530 0.03921632
v 0.00766691 -0.04374313 0.04167147
v 0.00766691 -0.04395203 0.04086351
v 0.00863010 -0.04361682 0.03993531
v 0.02127112 -0.03300674 0.03618465
v 0.01588089 -0.03679768 0.03618465
v 0.01593473 -0.03676529 0.03618465
v 0.02281460 -0.02813570 0.03734609
v 0.00064645 -0.03773043 0.03618465
v 0.00064645 -0.03772072 0.03631510
v 0.00064645 -0.03764461 0.03734609
v 0.00064645 -0.04405243 0.04191735
v 0.00649434 -0.04385487 0.04173159
v 0.00766691 -0.04289621 0.04195642
v 0.02665537 -0.02813570 0.04158310
v 0.00064645 -0.03992629 0.04147790
v 0.02638915 -0.02813570 0.04149533
v 0.02603618 -0.02813570 0.04136247
v 0.01477113 -0.03741951 0.03618465
v 0.00894717 -0.04330591 0.03960286
v 0.01073294 -0.04234724 0.03908346
v 0.01475917 -0.03742437 0.03618465
v 0.00127760 -0.04465969 0.04145505
v 0.00649434 -0.04406377 0.04086351
v 0.00766691 -0.04369293 0.03978802
v 0.00127760 -0.04465969 0.04143401
v 0.00766691 -0.04332048 0.03920189
v 0.02302997 -0.02813570 0.03792862
v 0.00064645 -0.03764785 0.03762984
v 0.00064645 -0.04034571 0.03618465
v 0.00064645 -0.04407187 0.04191074
v 0.00064645 -0.04467751 0.04148331
v 0.00064645 -0.03791180 0.03847388
v 0.02532426 -0.02813570 0.04080279
v 0.00064645 -0.03788913 0.03843480
v 0.00064645 -0.03790370 0.03846005
v 0.01417288 -0.03763651 0.03618465
v 0.00604565 -0.04004450 0.03618465
v 0.00064645 -0.04456091 0.04072284
v 0.00064645 -0.04397470 0.03976879
v 0.00064645 -0.04467751 0.04130957
v 0.00064645 -0.04456415 0.04073786
v 0.00414920 -0.04030846 0.03618465
v 0.00535169 -0.04022749 0.03618465
v 0.02318253 -0.02813570 0.03821057
v 0.00100241 -0.03757011 0.03804044
v 0.00066140 -0.04034571 0.03618465
v 0.02489352 -0.02813570 0.04031524
f 1 2 8
f 1 8 23
f 1 23 43
f 1 43 66
f 1 66 91
f 1 91 111
f 1 111 128
f 1 128 131
f 1 131 117
f 1 117 101
f 1 101 100
f 1 100 98
f 1 98 69
f 1 69 46
f 1 46 29
f 1 29 28
f 1 28 15
f 1 15 9
f 1 9 3
f 1 3 4
f 1 4 5
f 1 5 6
f 1 6 7
f 1 7 2
f 2 7 8
f 3 9 4
f 4 10 11
f 4 11 12
f 4 12 13
f 4 13 14
f 4 14 6
f 4 6 5
f 4 9 15
f 4 15 16
f 4 16 17
f 4 17 18
f 4 18 10
f 6 14 19
f 6 19 7
f 7 19 20
f 7 20 21
f 7 21 22
f 7 22 8
f 8 22 23
f 10 24 25
f 10 25 11
f 10 18 40
f 10 40 24
f 11 25 26
f 11 26 12
f 12 26 27
f 12 27 13
f 13 27 19
f 13 19 14
f 15 28 16
f 16 28 29
f 16 29 30
f 16 30 31
f 16 31 32
f 16 32 33
f 16 33 34
f 16 34 17
f 17 34 35
f 17 35 36
f 17 36 37
f 17 37 38
f 17 38 57
f 17 57 39
f 17 39 40
f 17 40 18
f 19 27 26
f 19 26 41
f 19 41 20
f 20 41 21
f 21 41 42
f 21 42 43
f 21 43 22
f 22 43 23
f 24 41 25
f 24 40 41
f 25 41 26
f 29 44 45
f 29 45 30
f 29 46 47
f 29 47 44
f 30 45 48
f 30 48 49
f 30 49 31
f 31 49 50
f 31 50 32
f 32 50 51
f 32 51 33
f 33 51 52
f 33 52 34
f 34 52 35
f 35 52 36
f 36 53 37
f 36 52 54
f 36 54 55
f 36 55 56
f 36 56 53
f 37 53 38
f 38 53 56
f 38 56 58
f 38 58 59
f 38 59 57
f 39 57 60
f 39 60 61
f 39 61 62
f 39 62 63
f 39 63 41
f 39 41 40
f 41 63 64
f 41 64 65
f 41 65 42
f 42 65 43
f 43 65 64
f 43 64 63
f 43 63 62
f 43 62 61
f 43 61 88
f 43 88 90
f 43 90 89
f 43 89 102
f 43 102 105
f 43 105 120
f 43 120 121
f 43 121 127
f 43 127 126
f 43 126 130
f 43 130 113
f 43 113 92
f 43 92 66
f 44 47 67
f 44 67 45
f 45 67 68
f 45 68 48
f 46 69 70
f 46 70 71
f 46 71 72
f 46 72 47
f 47 72 71
f 47 71 70
f 47 70 99
f 47 99 116
f 47 116 119
f 47 119 118
f 47 118 112
f 47 112 94
f 47 94 93
f 47 93 92
f 47 92 113
f 47 113 123
f 47 123 122
f 47 122 125
f 47 125 124
f 47 124 115
f 47 115 114
f 47 114 95
f 47 95 68
f 47 68 67
f 48 68 49
f 49 73 50
f 49 68 73
f 50 74 52
f 50 52 51
f 50 73 75
f 50 75 76
f 50 76 77
f 50 77 74
f 52 74 78
f 52 78 54
f 54 78 56
f 54 56 55
f 56 77 79
f 56 79 58
f 56 78 74
f 56 74 77
f 57 80 81
f 57 81 60
f 57 59 82
f 57 82 83
f 57 83 84
f 57 84 80
f 58 79 85
f 58 85 86
f 58 86 59
f 59 86 87
f 59 87 83
f 59 83 82
f 60 88 61
f 60 81 89
f 60 89 90
f 60 90 88
f 66 92 93
f 66 93 94
f 66 94 91
f 68 95 96
f 68 96 97
f 68 97 75
f 68 75 73
f 69 98 70
f 70 98 100
f 70 100 101
f 70 101 99
f 75 97 76
f 76 97 79
f 76 79 77
f 79 97 85
f 80 84 102
f 80 102 81
f 81 102 89
f 83 87 84
f 84 87 103
f 84 103 104
f 84 104 105
f 84 105 102
f 85 97 96
f 85 96 106
f 85 106 86
f 86 107 108
f 86 108 87
f 86 106 109
f 86 109 107
f 87 108 110
f 87 110 103
f 91 94 112
f 91 112 111
f 95 114 96
f 96 114 115
f 96 115 106
f 99 101 116
f 101 117 118
f 101 118 119
f 101 119 116
f 103 110 104
f 104 120 105
f 104 110 121
f 104 121 120
f 106 115 124
f 106 124 109
f 107 109 122
f 107 122 108
f 108 122 123
f 108 123 110
f 109 124 125
f 109 125 122
f 110 123 126
f 110 126 127
f 110 127 121
f 111 112 129
f 111 129 128
f 112 118 129
f 113 130 123
f 117 131 129
f 117 129 118
f 123 130 126
f 128 129 131

