# https://github.com/mikedh/trimesh
v 0.03094977 0.01791651 0.00348850
v 0.02291235 0.01791651 0.00123444
v 0.02408387 0.01574248 0.00120806
v 0.02643138 0.01222463 0.00127591
v 0.02732119 0.01222463 0.00150960
v 0.02813276 0.01160314 0.00158499
v 0.02760289 0.00870678 0.00088767
v 0.02810593 0.00593706 0.00042781
v 0.02879230 0.00593706 0.00055973
v 0.02991687 0.00593706 0.00050319
v 0.03038860 0.00593706 0.00039388
v 0.03076420 0.00593706 0.00030342
v 0.03094977 0.00593706 0.00025819
v 0.03094977 0.01791651 -0.03501896
v 0.02172965 0.01791651 0.00086882
v 0.02291235 0.01691510 0.00106482
v 0.02525762 0.01339725 0.00113267
v 0.02643138 0.01105201 0.00105352
v 0.02795837 0.00636155 0.00048058
v 0.02371274 0.00593706 -0.00081984
v 0.03094977 0.00593706 -0.03501896
v 0.02847482 0.01791651 -0.03501896
v 0.02159328 0.01791651 0.00081605
v 0.02408387 0.01456986 0.00098567
v 0.01598609 0.01791651 -0.00179233
v 0.01529972 0.01791651 -0.00212026
v 0.01376154 0.01791651 -0.00294574
v 0.02334161 0.00593706 -0.00104977
v 0.02086890 0.01791651 0.00053335
v 0.02010876 0.01791651 0.00017149
v 0.02960387 0.00593706 -0.03501896
v 0.02197782 0.01791651 -0.03091793
v 0.02946972 0.00707567 -0.03501896
v 0.01301034 0.01791651 -0.00371468
v 0.02223940 0.00593706 -0.00185264
v 0.02287658 0.00593706 -0.00134001
v 0.02951667 0.00667112 -0.03501896
v 0.02367026 0.00593706 -0.02994921
v 0.01972198 0.01791651 -0.02921419
v 0.02051119 0.01791651 -0.02987005
v 0.02096504 0.01791651 -0.03022437
v 0.02177660 0.01791651 -0.03078977
v 0.01215182 0.01791651 -0.00483794
v 0.01768523 0.00593706 -0.00674145
v 0.01826876 0.00593706 -0.00607805
v 0.02306662 0.00593706 -0.02936119
v 0.01350220 0.01791651 -0.02375243
v 0.01405219 0.01791651 -0.02428014
v 0.01472738 0.01791651 -0.02487946
v 0.01601515 0.01791651 -0.02600272
v 0.01730516 0.01791651 -0.02712598
v 0.01859517 0.01791651 -0.02824547
v 0.01010838 0.01791651 -0.00751794
v 0.00866186 0.01791651 -0.00951945
v 0.00810964 0.01791651 -0.01072187
v 0.01766735 0.00593706 -0.00678669
v 0.02247862 0.00593706 -0.02872418
v 0.01290526 0.01791651 -0.02308149
v 0.00822590 0.01791651 -0.01189413
v 0.01589889 0.00593706 -0.01308900
v 0.01590784 0.00593706 -0.01233891
v 0.01593467 0.00593706 -0.01187905
v 0.01626108 0.00593706 -0.01080856
v 0.01706370 0.00593706 -0.00839619
v 0.01746613 0.00593706 -0.00731062
v 0.02164246 0.00593706 -0.02766123
v 0.01257661 0.01791651 -0.02262917
v 0.02113719 0.00593706 -0.02701290
v 0.02097398 0.00593706 -0.02680182
v 0.00923644 0.01791651 -0.01660202
v 0.01727833 0.00593706 -0.02012257
v 0.01713748 0.00593706 -0.01944786
v 0.01248718 0.01791651 -0.02250102
v 0.02054919 0.00593706 -0.02619873
v 0.00935717 0.01791651 -0.01709203
v 0.01737894 0.00593706 -0.02051081
v 0.01192378 0.01791651 -0.02164538
v 0.02000815 0.00593706 -0.02535063
v 0.01011732 0.01791651 -0.01886361
v 0.01092889 0.01791651 -0.02012257
v 0.01174269 0.01791651 -0.02137022
v 0.00955615 0.01791651 -0.01777428
v 0.01753544 0.00593706 -0.02089151
v 0.00961428 0.01791651 -0.01791751
v 0.01981141 0.00593706 -0.02500385
v 0.01876285 0.00593706 -0.02313426
v 0.01840290 0.00593706 -0.02248594
v 0.01809661 0.00593706 -0.02193185
f 1 2 3
f 1 3 4
f 1 4 5
f 1 5 6
f 1 6 7
f 1 7 8
f 1 8 9
f 1 9 10
f 1 10 11
f 1 11 12
f 1 12 13
f 1 13 21
f 1 21 14
f 1 14 22
f 1 22 32
f 1 32 42
f 1 42 41
f 1 41 40
f 1 40 39
f 1 39 52
f 1 52 51
f 1 51 50
f 1 50 49
f 1 49 48
f 1 48 47
f 1 47 58
f 1 58 67
f 1 67 73
f 1 73 77
f 1 77 81
f 1 81 80
f 1 80 79
f 1 79 84
f 1 84 82
f 1 82 75
f 1 75 70
f 1 70 59
f 1 59 55
f 1 55 54
f 1 54 53
f 1 53 43
f 1 43 34
f 1 34 27
f 1 27 26
f 1 26 25
f 1 25 30
f 1 30 29
f 1 29 23
f 1 23 15
f 1 15 2
f 2 15 16
f 2 16 3
f 3 16 17
f 3 17 4
f 4 17 18
f 4 18 5
f 5 18 7
f 5 7 6
f 7 19 8
f 7 18 20
f 7 20 19
f 8 19 20
f 8 20 28
f 8 28 36
f 8 36 35
f 8 35 45
f 8 45 44
f 8 44 56
f 8 56 65
f 8 65 64
f 8 64 63
f 8 63 62
f 8 62 61
f 8 61 60
f 8 60 72
f 8 72 71
f 8 71 76
f 8 76 83
f 8 83 88
f 8 88 87
f 8 87 86
f 8 86 85
f 8 85 78
f 8 78 74
f 8 74 69
f 8 69 68
f 8 68 66
f 8 66 57
f 8 57 46
f 8 46 38
f 8 38 31
f 8 31 21
f 8 21 13
f 8 13 12
f 8 12 11
f 8 11 10
f 8 10 9
f 14 21 31
f 14 31 37
f 14 37 33
f 14 33 22
f 15 23 20
f 15 20 16
f 16 24 17
f 16 20 24
f 17 24 18
f 18 24 20
f 20 25 26
f 20 26 27
f 20 27 28
f 20 23 29
f 20 29 30
f 20 30 25
f 22 33 32
f 27 34 35
f 27 35 36
f 27 36 28
f 31 38 39
f 31 39 40
f 31 40 41
f 31 41 42
f 31 42 37
f 32 33 42
f 33 37 42
f 34 43 44
f 34 44 45
f 34 45 35
f 38 46 47
f 38 47 48
f 38 48 49
f 38 49 50
f 38 50 51
f 38 51 52
f 38 52 39
f 43 53 44
f 44 53 54
f 44 54 55
f 44 55 56
f 46 57 47
f 47 57 58
f 55 59 60
f 55 60 61
f 55 61 62
f 55 62 63
f 55 63 64
f 55 64 65
f 55 65 56
f 57 66 58
f 58 66 68
f 58 68 69
f 58 69 67
f 59 70 71
f 59 71 72
f 59 72 60
f 67 69 74
f 67 74 73
f 70 75 71
f 71 75 76
f 73 74 77
f 74 78 79
f 74 79 80
f 74 80 81
f 74 81 77
f 75 82 76
f 76 82 84
f 76 84 83
f 78 85 79
f 79 85 86
f 79 86 87
f 79 87 88
f 79 88 83
f 79 83 84

