# https://github.com/mikedh/trimesh
v 0.00064645 -0.04020583 0.00326582
v 0.00394100 -0.03993082 0.00326582
v 0.00064645 -0.03771894 0.00326582
v 0.00064645 -0.04014965 -0.02481223
v 0.00525394 -0.03981845 0.00326582
v 0.01378351 -0.03349625 0.00326582
v 0.01378351 -0.01777649 -0.00197567
v 0.00064645 -0.02999508 0.00067720
v 0.00064645 -0.04014373 -0.02715899
v 0.00532209 -0.03981254 0.00326582
v 0.01378351 -0.03653907 0.00326582
v 0.01378351 -0.01735658 -0.00224776
v 0.00064645 -0.02449494 -0.00181317
v 0.00064645 -0.02528743 -0.00144283
v 0.00064645 -0.02998621 0.00067342
v 0.00064645 -0.04014077 -0.02833049
v 0.00649486 -0.03954345 0.00326582
v 0.00064645 -0.04013190 -0.03067725
v 0.00064645 -0.04011712 -0.03302024
v 0.00200439 -0.03990421 -0.03302024
v 0.00532209 -0.03939559 -0.03184874
v 0.00649486 -0.03922113 -0.03067725
v 0.00766634 -0.03897273 -0.03067725
v 0.01092489 -0.03772781 0.00326582
v 0.00828102 -0.03880418 -0.03067725
v 0.00886740 -0.03854987 -0.03067725
v 0.01138782 -0.03745280 -0.03067725
v 0.01378351 -0.03640304 -0.03184874
v 0.01378351 -0.01705792 -0.00246316
v 0.00064645 -0.02390944 -0.00226287
v 0.00759819 -0.03910876 0.00326582
v 0.00064645 -0.04010233 -0.03340948
v 0.00134342 -0.03998405 -0.03376848
v 0.00649486 -0.03918564 -0.03184874
v 0.00827202 -0.03880122 -0.03131968
v 0.00767277 -0.03907919 0.00326582
v 0.01235742 -0.03702403 -0.03184874
v 0.01378351 -0.03627293 -0.03302024
v 0.01378351 -0.01636892 -0.00299978
v 0.01378351 -0.01626247 -0.00308670
v 0.01378351 -0.01438473 -0.00465121
v 0.01378351 -0.01380515 -0.00513870
v 0.01378351 -0.01307771 -0.00576224
v 0.01378351 -0.01234731 -0.00640089
v 0.01378351 -0.01075050 -0.00791627
v 0.00064645 -0.02330028 -0.00284862
v 0.00064645 -0.04007276 -0.03417283
v 0.00067988 -0.04006685 -0.03417283
v 0.00110424 -0.03993378 -0.03454696
v 0.00768820 -0.03890768 -0.03176561
v 0.00532209 -0.03925365 -0.03302024
v 0.00731142 -0.03886332 -0.03265745
v 0.00809327 -0.03873912 -0.03210194
v 0.01070628 -0.03766275 -0.03256675
v 0.01136596 -0.03744985 -0.03184874
v 0.01296566 -0.03645331 -0.03363244
v 0.01378351 -0.03604228 -0.03379494
v 0.01378351 -0.01026554 -0.00845667
v 0.00064645 -0.02097899 -0.00524829
v 0.00064645 -0.04006980 -0.03419929
v 0.00064645 -0.04006389 -0.03424842
v 0.00064645 -0.03979184 -0.03533299
v 0.00183207 -0.03950205 -0.03534055
v 0.00414932 -0.03924774 -0.03419551
v 0.00297655 -0.03955232 -0.03419551
v 0.00649357 -0.03896977 -0.03303913
v 0.00688321 -0.03873617 -0.03343971
v 0.00649486 -0.03822459 -0.03534055
v 0.00768692 -0.03785200 -0.03534055
v 0.00768820 -0.03861788 -0.03303913
v 0.00883911 -0.03821572 -0.03302024
v 0.00999002 -0.03779582 -0.03298245
v 0.01227769 -0.03655977 -0.03409348
v 0.01261589 -0.03631433 -0.03441469
v 0.01342603 -0.03609551 -0.03409348
v 0.01378351 -0.03593582 -0.03411993
v 0.01378351 -0.00999644 -0.00877411
v 0.00064645 -0.02039940 -0.00590962
v 0.00064645 -0.03976523 -0.03534055
v 0.00065159 -0.03978593 -0.03534055
v 0.00297655 -0.03920043 -0.03534055
v 0.00610136 -0.03884558 -0.03377226
v 0.00355522 -0.03904074 -0.03534055
v 0.00649357 -0.03860605 -0.03417662
v 0.00584675 -0.03840497 -0.03534055
v 0.00773064 -0.03783722 -0.03534055
v 0.00829773 -0.03763614 -0.03534055
v 0.00923389 -0.03754743 -0.03456585
v 0.00845205 -0.03769232 -0.03500422
v 0.00886226 -0.03742619 -0.03534055
v 0.01004017 -0.03697967 -0.03534055
v 0.01183404 -0.03646810 -0.03483794
v 0.01108435 -0.03657751 -0.03534055
v 0.01159486 -0.03635573 -0.03534055
v 0.01378351 -0.03551001 -0.03503445
v 0.01332829 -0.00999644 -0.00954125
v 0.00064645 -0.01960395 -0.00722471
v 0.00064645 -0.01992036 -0.00650670
v 0.00064645 -0.01992627 -0.00649536
v 0.01378351 -0.00999644 -0.01972190
v 0.00064645 -0.03116017 -0.03534055
v 0.01346203 -0.03550114 -0.03534055
v 0.01378351 -0.03544199 -0.03517049
v 0.01325757 -0.00999644 -0.00966218
v 0.00064645 -0.01959804 -0.00723983
v 0.01262103 -0.00999644 -0.01075431
v 0.01259917 -0.00999644 -0.01079210
v 0.01378351 -0.00999940 -0.02018672
v 0.01377580 -0.00999644 -0.02016782
v 0.00414546 -0.02968163 -0.03534055
v 0.00064645 -0.02321157 -0.02804706
v 0.01378351 -0.01442317 -0.02632383
v 0.01378351 -0.01500867 -0.02679621
v 0.01378351 -0.03534441 -0.03534055
v 0.00064645 -0.01923432 -0.00839621
v 0.01225454 -0.00999644 -0.01173685
v 0.01378351 -0.01390864 -0.02574564
v 0.00064645 -0.02014805 -0.02407154
v 0.00064645 -0.01974589 -0.02348580
v 0.00064645 -0.01936147 -0.02248814
v 0.00064645 -0.01935556 -0.02246546
v 0.00064645 -0.01916630 -0.02129397
v 0.01350061 -0.00999644 -0.01894720
v 0.00523336 -0.02933270 -0.03534055
v 0.00064645 -0.02262607 -0.02738951
v 0.01378351 -0.02676596 -0.03502689
v 0.01378351 -0.02729824 -0.03534055
v 0.00064645 -0.01831467 -0.01191447
v 0.01223525 -0.00999644 -0.01186912
v 0.00064645 -0.01805445 -0.01308596
v 0.00064645 -0.01830876 -0.01193714
v 0.00064645 -0.01808698 -0.01426123
v 0.01231627 -0.00999644 -0.01309729
v 0.01378351 -0.02699957 -0.03517805
v 0.01229183 -0.00999644 -0.01290457
v 0.00064645 -0.01805445 -0.01310863
f 1 2 5
f 1 5 10
f 1 10 17
f 1 17 31
f 1 31 36
f 1 36 24
f 1 24 11
f 1 11 6
f 1 6 3
f 1 3 8
f 1 8 15
f 1 15 14
f 1 14 13
f 1 13 30
f 1 30 46
f 1 46 59
f 1 59 78
f 1 78 99
f 1 99 98
f 1 98 97
f 1 97 105
f 1 105 115
f 1 115 128
f 1 128 131
f 1 131 130
f 1 130 136
f 1 136 132
f 1 132 122
f 1 122 121
f 1 121 120
f 1 120 119
f 1 119 118
f 1 118 125
f 1 125 111
f 1 111 101
f 1 101 79
f 1 79 62
f 1 62 61
f 1 61 60
f 1 60 47
f 1 47 32
f 1 32 19
f 1 19 18
f 1 18 16
f 1 16 9
f 1 9 4
f 1 4 2
f 2 4 5
f 3 6 7
f 3 7 8
f 4 9 10
f 4 10 5
f 6 11 28
f 6 28 38
f 6 38 57
f 6 57 76
f 6 76 95
f 6 95 103
f 6 103 114
f 6 114 127
f 6 127 134
f 6 134 126
f 6 126 113
f 6 113 112
f 6 112 117
f 6 117 108
f 6 108 100
f 6 100 77
f 6 77 58
f 6 58 45
f 6 45 44
f 6 44 43
f 6 43 42
f 6 42 41
f 6 41 40
f 6 40 39
f 6 39 29
f 6 29 12
f 6 12 7
f 7 12 13
f 7 13 14
f 7 14 15
f 7 15 8
f 9 16 10
f 10 16 18
f 10 18 19
f 10 19 20
f 10 20 21
f 10 21 22
f 10 22 23
f 10 23 17
f 11 24 25
f 11 25 26
f 11 26 27
f 11 27 28
f 12 29 13
f 13 29 30
f 17 23 25
f 17 25 31
f 19 32 33
f 19 33 20
f 20 33 21
f 21 33 34
f 21 34 22
f 22 34 23
f 23 34 35
f 23 35 25
f 24 36 25
f 25 35 37
f 25 37 26
f 25 36 31
f 26 37 27
f 27 37 28
f 28 37 38
f 29 39 30
f 30 39 40
f 30 40 41
f 30 41 42
f 30 42 43
f 30 43 44
f 30 44 45
f 30 45 46
f 32 47 33
f 33 47 48
f 33 48 49
f 33 49 34
f 34 50 35
f 34 49 51
f 34 51 52
f 34 52 50
f 35 50 53
f 35 53 54
f 35 54 55
f 35 55 37
f 37 55 54
f 37 54 38
f 38 56 57
f 38 54 56
f 45 58 59
f 45 59 46
f 47 60 48
f 48 60 61
f 48 61 49
f 49 61 62
f 49 62 63
f 49 63 64
f 49 64 65
f 49 65 66
f 49 66 52
f 49 52 51
f 50 52 53
f 52 66 67
f 52 67 68
f 52 68 69
f 52 69 70
f 52 70 71
f 52 71 53
f 53 71 54
f 54 71 72
f 54 72 56
f 56 72 73
f 56 73 74
f 56 74 75
f 56 75 76
f 56 76 57
f 58 77 78
f 58 78 59
f 62 79 80
f 62 80 63
f 63 80 79
f 63 79 101
f 63 101 110
f 63 110 124
f 63 124 127
f 63 127 114
f 63 114 102
f 63 102 94
f 63 94 93
f 63 93 91
f 63 91 90
f 63 90 87
f 63 87 86
f 63 86 69
f 63 69 68
f 63 68 85
f 63 85 83
f 63 83 81
f 63 81 64
f 64 82 67
f 64 67 66
f 64 66 65
f 64 81 83
f 64 83 82
f 67 82 84
f 67 84 68
f 68 84 85
f 69 86 70
f 70 86 87
f 70 87 71
f 71 88 72
f 71 87 89
f 71 89 90
f 71 90 88
f 72 88 73
f 73 88 90
f 73 90 91
f 73 91 92
f 73 92 74
f 74 92 93
f 74 93 76
f 74 76 75
f 76 93 94
f 76 94 95
f 77 96 97
f 77 97 98
f 77 98 99
f 77 99 78
f 77 100 109
f 77 109 123
f 77 123 133
f 77 133 135
f 77 135 129
f 77 129 116
f 77 116 107
f 77 107 106
f 77 106 104
f 77 104 96
f 82 83 84
f 83 85 84
f 87 90 89
f 91 93 92
f 94 102 103
f 94 103 95
f 96 104 97
f 97 104 106
f 97 106 107
f 97 107 105
f 100 108 109
f 101 111 112
f 101 112 113
f 101 113 110
f 102 114 103
f 105 107 115
f 107 116 115
f 108 117 118
f 108 118 119
f 108 119 109
f 109 119 120
f 109 120 121
f 109 121 122
f 109 122 123
f 110 113 124
f 111 125 112
f 112 125 117
f 113 126 124
f 115 116 128
f 116 129 130
f 116 130 131
f 116 131 128
f 117 125 118
f 122 132 123
f 123 132 133
f 124 126 134
f 124 134 127
f 129 135 132
f 129 132 136
f 129 136 130
f 132 135 133

