# https://github.com/mikedh/trimesh
v 0.01169678 0.03897075 0.00732126
v 0.01083145 0.03937761 0.00732126
v 0.01169678 0.03642361 0.00732126
v 0.01169678 0.03861246 -0.01777369
v 0.01028088 0.03963624 0.00732126
v 0.00064645 0.03902059 0.00732126
v 0.00064645 0.03534243 0.00168059
v 0.00144905 0.03534243 0.00191683
v 0.00263672 0.03534243 0.00222767
v 0.00387090 0.03534243 0.00251364
v 0.00472542 0.03534243 0.00270428
v 0.00497096 0.03534243 0.00275816
v 0.00607427 0.03534243 0.00294881
v 0.00718081 0.03534243 0.00311459
v 0.00963729 0.03534243 0.00346273
v 0.01106293 0.03534243 0.00364923
v 0.01118407 0.03534243 0.00366166
v 0.01126952 0.03534243 0.00366995
v 0.01169678 0.03534243 0.00370311
v 0.01169678 0.03861120 -0.01784415
v 0.00969461 0.03990937 0.00732126
v 0.00992934 0.03980025 0.00732126
v 0.00064645 0.04178598 0.00732126
v 0.00064645 0.03534243 -0.03203077
v 0.01169678 0.03534243 -0.03501896
v 0.01169678 0.03856389 -0.02016507
v 0.00883901 0.04017178 0.00732126
v 0.01169678 0.03849261 -0.02363816
v 0.01169678 0.03838979 -0.02864471
v 0.01169678 0.03837213 -0.02950263
v 0.00649287 0.04031686 -0.03302131
v 0.00649287 0.04034084 -0.03184841
v 0.00649287 0.04036291 -0.03067552
v 0.00649287 0.04037994 -0.02950263
v 0.00532142 0.04069408 -0.03302131
v 0.00766648 0.04042347 0.00732126
v 0.00442256 0.04090035 -0.02950263
v 0.00384603 0.04101452 -0.02832973
v 0.00383629 0.04100947 -0.02950263
v 0.00064645 0.04161188 -0.01779027
v 0.00064645 0.03657248 -0.03501896
v 0.00649287 0.03558276 -0.03501896
v 0.00791419 0.03534243 -0.03501896
v 0.01169678 0.03779180 -0.03501896
v 0.00532142 0.04070859 -0.03184841
v 0.00532142 0.04071679 -0.03067552
v 0.01169678 0.03832356 -0.03184841
v 0.00883901 0.03940726 -0.03302131
v 0.00649287 0.04026009 -0.03419420
v 0.00532142 0.04065182 -0.03419420
v 0.00430357 0.04090350 -0.03184841
v 0.00407534 0.04091107 -0.03307933
v 0.00437821 0.04090161 -0.03067552
v 0.00379194 0.04099497 -0.03067552
v 0.00180275 0.04135515 -0.02481105
v 0.00064645 0.04156584 -0.02130895
v 0.00064645 0.04158476 -0.02013606
v 0.00064645 0.04159927 -0.01896316
v 0.00064645 0.04046384 -0.03501896
v 0.01169678 0.03806998 -0.03419006
v 0.00966325 0.03870329 -0.03501896
v 0.01169678 0.03828571 -0.03302131
v 0.01132793 0.03843584 -0.03302131
v 0.01074167 0.03866860 -0.03302131
v 0.01068326 0.03864590 -0.03373002
v 0.00720677 0.03984251 -0.03488219
v 0.00673841 0.03994596 -0.03501896
v 0.00640093 0.04005130 -0.03501896
v 0.00532142 0.04031056 -0.03501896
v 0.00414889 0.04083664 -0.03419420
v 0.00353451 0.04095586 -0.03351036
v 0.00363510 0.04096658 -0.03273119
v 0.00297636 0.04111860 -0.02950263
v 0.00180275 0.04133055 -0.02598394
v 0.00064645 0.04153808 -0.02246526
v 0.00132465 0.04048781 -0.03501896
v 0.00064645 0.04080573 -0.03452161
v 0.01111809 0.03833618 -0.03414861
v 0.00964594 0.03871087 -0.03501896
v 0.00733657 0.03970184 -0.03501896
v 0.00504019 0.04035471 -0.03501896
v 0.00180275 0.04084042 -0.03445530
v 0.00064645 0.04109400 -0.03392066
v 0.00180275 0.04103849 -0.03386678
v 0.00064645 0.04124413 -0.03303374
v 0.00064645 0.04124539 -0.03302131
v 0.00414889 0.04043482 -0.03501896
v 0.00180275 0.04113500 -0.03302131
v 0.00180275 0.04116780 -0.03184841
v 0.00297636 0.04105552 -0.03184841
v 0.00297636 0.04108770 -0.03067552
v 0.00064645 0.04147311 -0.02482763
v 0.00064645 0.04150591 -0.02363816
v 0.00064645 0.04131099 -0.03067552
v 0.00064645 0.04140814 -0.02717342
v 0.00180275 0.04048529 -0.03501896
v 0.00064645 0.04081393 -0.03450918
v 0.00064645 0.04109085 -0.03392895
v 0.00386117 0.04044366 -0.03501896
v 0.00240524 0.04047772 -0.03501896
f 1 2 5
f 1 5 22
f 1 22 21
f 1 21 27
f 1 27 36
f 1 36 23
f 1 23 6
f 1 6 3
f 1 3 19
f 1 19 25
f 1 25 44
f 1 44 60
f 1 60 62
f 1 62 47
f 1 47 30
f 1 30 29
f 1 29 28
f 1 28 26
f 1 26 20
f 1 20 4
f 1 4 2
f 2 4 5
f 3 6 7
f 3 7 8
f 3 8 9
f 3 9 10
f 3 10 11
f 3 11 12
f 3 12 13
f 3 13 14
f 3 14 15
f 3 15 16
f 3 16 17
f 3 17 18
f 3 18 19
f 4 20 21
f 4 21 22
f 4 22 5
f 6 23 40
f 6 40 58
f 6 58 57
f 6 57 56
f 6 56 75
f 6 75 93
f 6 93 92
f 6 92 95
f 6 95 94
f 6 94 86
f 6 86 85
f 6 85 83
f 6 83 98
f 6 98 97
f 6 97 77
f 6 77 59
f 6 59 41
f 6 41 24
f 6 24 7
f 7 24 43
f 7 43 25
f 7 25 19
f 7 19 18
f 7 18 17
f 7 17 16
f 7 16 15
f 7 15 14
f 7 14 13
f 7 13 12
f 7 12 11
f 7 11 10
f 7 10 9
f 7 9 8
f 20 26 21
f 21 26 28
f 21 28 29
f 21 29 30
f 21 30 31
f 21 31 32
f 21 32 33
f 21 33 34
f 21 34 35
f 21 35 27
f 23 36 37
f 23 37 38
f 23 38 39
f 23 39 40
f 24 41 42
f 24 42 43
f 25 43 42
f 25 42 41
f 25 41 59
f 25 59 76
f 25 76 96
f 25 96 100
f 25 100 99
f 25 99 87
f 25 87 81
f 25 81 69
f 25 69 68
f 25 68 67
f 25 67 80
f 25 80 79
f 25 79 61
f 25 61 44
f 27 35 45
f 27 45 46
f 27 46 36
f 30 47 48
f 30 48 31
f 31 48 49
f 31 49 50
f 31 50 35
f 31 35 32
f 32 35 33
f 33 35 34
f 35 51 45
f 35 50 52
f 35 52 51
f 36 46 37
f 37 46 53
f 37 53 39
f 37 39 38
f 39 53 51
f 39 51 54
f 39 54 55
f 39 55 56
f 39 56 57
f 39 57 58
f 39 58 40
f 44 61 60
f 45 51 53
f 45 53 46
f 47 62 63
f 47 63 64
f 47 64 48
f 48 64 49
f 49 65 66
f 49 66 50
f 49 64 65
f 50 66 67
f 50 67 68
f 50 68 69
f 50 69 70
f 50 70 52
f 51 52 54
f 52 70 71
f 52 71 72
f 52 72 73
f 52 73 54
f 54 73 55
f 55 73 56
f 56 73 74
f 56 74 75
f 59 77 76
f 60 61 66
f 60 66 78
f 60 78 65
f 60 65 62
f 61 79 66
f 62 65 63
f 63 65 64
f 65 78 66
f 66 79 80
f 66 80 67
f 69 81 70
f 70 82 83
f 70 83 84
f 70 84 85
f 70 85 86
f 70 86 71
f 70 81 87
f 70 87 82
f 71 86 88
f 71 88 89
f 71 89 90
f 71 90 74
f 71 74 91
f 71 91 72
f 72 91 73
f 73 91 74
f 74 92 93
f 74 93 75
f 74 90 94
f 74 94 95
f 74 95 92
f 76 77 97
f 76 97 96
f 82 97 98
f 82 98 83
f 82 87 99
f 82 99 100
f 82 100 96
f 82 96 97
f 83 85 84
f 86 94 89
f 86 89 88
f 89 94 90

