# https://github.com/mikedh/trimesh
v -0.01690649 -0.03549772 -0.03527877
v -0.01690649 -0.03194270 -0.03527877
v -0.00851869 -0.03549772 -0.03527877
v -0.01690649 -0.03549772 0.00239883
v -0.01210584 -0.03133284 -0.03527877
v -0.01690649 -0.02899753 -0.03459540
v -0.00851869 -0.03204894 -0.03527877
v -0.00851869 -0.03549772 -0.00009085
v -0.01690157 -0.03549772 0.00245423
v -0.01690649 -0.03549560 0.00245793
v -0.01074126 -0.03143058 -0.03527877
v -0.01690649 -0.02887853 -0.03456215
v -0.00937257 -0.03178757 -0.03527877
v -0.01690649 -0.02702133 -0.03363869
v -0.01690649 -0.02089512 -0.02914323
v -0.00851869 -0.02351518 -0.02894007
v -0.00851869 -0.03226569 0.00048909
v -0.00851869 -0.03214882 0.00049648
v -0.00851869 -0.03117772 0.00052972
v -0.00851869 -0.03101410 0.00052603
v -0.01690649 -0.03116922 0.00205899
v -0.01461660 -0.02958613 -0.03474315
v -0.01690649 -0.02760144 -0.03401546
v -0.01690649 -0.02035114 -0.02871843
v -0.00851869 -0.02313694 -0.02862609
v -0.00851869 -0.03043186 0.00044107
v -0.01690649 -0.02647735 0.00115399
v -0.01293838 -0.02602048 0.00038566
v -0.01690649 -0.02030651 -0.02867780
v -0.00851869 -0.02228271 -0.02786515
v -0.00851869 -0.02294994 -0.02846725
v -0.00851869 -0.02647735 -0.00033834
v -0.01690649 -0.02642635 0.00113921
v -0.01372084 -0.02578036 0.00045215
v -0.00851869 -0.02633922 -0.00037897
v -0.00851869 -0.02568474 -0.00060061
v -0.01690649 -0.01969028 -0.02809417
v -0.01690649 -0.01905705 -0.02725935
v -0.01690649 -0.01904642 -0.02724457
v -0.01690649 -0.01819645 -0.02583721
v -0.01690649 -0.01780758 -0.02519078
v -0.01690649 -0.01749947 -0.02466255
v -0.01690649 -0.01694061 -0.02359871
v -0.01690649 -0.01633925 -0.02240559
v -0.00851869 -0.02199372 -0.02728890
v -0.01690649 -0.02519601 0.00075874
v -0.01690649 -0.02508126 0.00070333
v -0.00851869 -0.02508338 -0.00125812
v -0.01690649 -0.01858106 -0.00396204
v -0.01690649 -0.01912292 -0.00341904
v -0.01690649 -0.01916755 -0.00337841
v -0.01690649 -0.01972428 -0.00295361
v -0.01690649 -0.01975828 -0.00292775
v -0.01690649 -0.02421216 0.00016772
v -0.01638841 -0.02472427 0.00039674
v -0.01690649 -0.01464142 -0.01901091
v -0.00851869 -0.02192997 -0.02715592
v -0.01690649 -0.01459042 -0.01890748
v -0.01615852 -0.01875531 -0.00417628
v -0.00851869 -0.01968603 -0.00748600
v -0.00939146 -0.01888068 -0.00784800
v -0.01164769 -0.01883818 -0.00661425
v -0.01390311 -0.01879568 -0.00539526
v -0.01690649 -0.01685348 -0.00603431
v -0.01461660 -0.01862994 -0.00519210
v -0.00851869 -0.01980503 -0.02251641
v -0.01690649 -0.01409743 -0.01777346
v -0.00851869 -0.01912080 -0.00817306
v -0.00851869 -0.01896568 -0.00844272
v -0.00851869 -0.01877018 -0.00880102
v -0.01179302 -0.01773321 -0.00792927
v -0.01497786 -0.01641787 -0.00768178
v -0.01257465 -0.01755472 -0.00764853
v -0.01690649 -0.01590364 -0.00717941
v -0.01017309 -0.01869793 -0.00761898
v -0.00851869 -0.01936729 -0.02150428
v -0.00851869 -0.01902730 -0.02053279
v -0.00851869 -0.01928229 -0.02129373
v -0.01690649 -0.01401456 -0.01751489
v -0.01690649 -0.01525553 -0.00839470
v -0.00851869 -0.01860656 -0.00956935
v -0.01690649 -0.01495166 -0.00956935
v -0.01690649 -0.01495804 -0.00954349
v -0.01690649 -0.01589939 -0.00718680
v -0.00851869 -0.01895505 -0.02027422
v -0.01690649 -0.01378932 -0.01663944
v -0.00851869 -0.01856194 -0.00985747
v -0.01690649 -0.01395719 -0.01437140
v -0.01690649 -0.01396569 -0.01432707
v -0.00851869 -0.01884880 -0.01981249
v -0.01690649 -0.01379569 -0.01550542
v -0.00851869 -0.01799033 -0.01449330
v -0.00851869 -0.01806258 -0.01543154
v -0.00851869 -0.01808382 -0.01566795
v -0.00851869 -0.01821982 -0.01660250
v -0.00851869 -0.01841744 -0.01777346
v -0.00851869 -0.01865756 -0.01894812
v -0.00851869 -0.01821982 -0.01214768
v -0.01690649 -0.01379782 -0.01543154
v -0.00851869 -0.01805620 -0.01332233
f 1 2 5
f 1 5 11
f 1 11 13
f 1 13 7
f 1 7 3
f 1 3 8
f 1 8 9
f 1 9 4
f 1 4 10
f 1 10 21
f 1 21 27
f 1 27 33
f 1 33 46
f 1 46 47
f 1 47 54
f 1 54 53
f 1 53 52
f 1 52 51
f 1 51 50
f 1 50 49
f 1 49 64
f 1 64 74
f 1 74 84
f 1 84 80
f 1 80 83
f 1 83 82
f 1 82 89
f 1 89 88
f 1 88 99
f 1 99 91
f 1 91 86
f 1 86 79
f 1 79 67
f 1 67 58
f 1 58 56
f 1 56 44
f 1 44 43
f 1 43 42
f 1 42 41
f 1 41 40
f 1 40 39
f 1 39 38
f 1 38 37
f 1 37 29
f 1 29 24
f 1 24 15
f 1 15 14
f 1 14 23
f 1 23 12
f 1 12 6
f 1 6 2
f 2 6 5
f 3 7 16
f 3 16 25
f 3 25 31
f 3 31 30
f 3 30 45
f 3 45 57
f 3 57 66
f 3 66 76
f 3 76 78
f 3 78 77
f 3 77 85
f 3 85 90
f 3 90 97
f 3 97 96
f 3 96 95
f 3 95 94
f 3 94 93
f 3 93 92
f 3 92 100
f 3 100 98
f 3 98 87
f 3 87 81
f 3 81 70
f 3 70 69
f 3 69 68
f 3 68 60
f 3 60 48
f 3 48 36
f 3 36 35
f 3 35 32
f 3 32 26
f 3 26 20
f 3 20 19
f 3 19 18
f 3 18 17
f 3 17 8
f 4 9 10
f 5 6 12
f 5 12 11
f 7 13 14
f 7 14 15
f 7 15 16
f 8 17 10
f 8 10 9
f 10 17 18
f 10 18 19
f 10 19 20
f 10 20 21
f 11 12 22
f 11 22 23
f 11 23 13
f 12 23 22
f 13 23 14
f 15 24 16
f 16 24 25
f 20 26 21
f 21 26 28
f 21 28 27
f 24 29 30
f 24 30 31
f 24 31 25
f 26 32 28
f 27 28 34
f 27 34 33
f 28 32 35
f 28 35 36
f 28 36 34
f 29 37 30
f 30 37 38
f 30 38 39
f 30 39 40
f 30 40 41
f 30 41 42
f 30 42 43
f 30 43 44
f 30 44 45
f 33 34 46
f 34 47 46
f 34 36 47
f 36 48 49
f 36 49 50
f 36 50 51
f 36 51 52
f 36 52 53
f 36 53 54
f 36 54 55
f 36 55 47
f 44 56 45
f 45 56 58
f 45 58 57
f 47 55 54
f 48 59 49
f 48 60 61
f 48 61 62
f 48 62 63
f 48 63 59
f 49 59 63
f 49 63 65
f 49 65 64
f 57 58 66
f 58 67 66
f 60 68 61
f 61 68 69
f 61 69 70
f 61 70 71
f 61 71 72
f 61 72 73
f 61 73 74
f 61 74 75
f 61 75 62
f 62 75 74
f 62 74 64
f 62 64 65
f 62 65 63
f 66 67 76
f 67 77 78
f 67 78 76
f 67 79 77
f 70 80 72
f 70 72 71
f 70 81 82
f 70 82 83
f 70 83 80
f 72 80 84
f 72 84 74
f 72 74 73
f 77 79 85
f 79 86 85
f 81 87 88
f 81 88 89
f 81 89 82
f 85 86 90
f 86 91 92
f 86 92 93
f 86 93 94
f 86 94 95
f 86 95 96
f 86 96 97
f 86 97 90
f 87 98 99
f 87 99 88
f 91 99 92
f 92 99 100
f 98 100 99

