# https://github.com/mikedh/trimesh
v 0.00064645 -0.03976171 -0.03538193
v 0.00065340 -0.03978857 -0.03534066
v 0.00064645 -0.03976171 -0.03534066
v 0.00064645 -0.03914852 -0.03624026
v 0.00180496 -0.03904110 -0.03623279
v 0.00180496 -0.03949764 -0.03537007
v 0.00183627 -0.03950211 -0.03534066
v 0.00064645 -0.00183755 -0.03508031
v 0.00613284 -0.03767595 -0.03720615
v 0.00361752 -0.03880387 -0.03599044
v 0.00064645 -0.03830705 -0.03682638
v 0.00414981 -0.03780127 -0.03726806
v 0.00532571 -0.03775204 -0.03726367
v 0.00300522 -0.03919327 -0.03534066
v 0.00064645 -0.00067830 -0.03507284
v 0.00649466 -0.03822201 -0.03534066
v 0.00652597 -0.03821306 -0.03534066
v 0.00769144 -0.03785051 -0.03534066
v 0.00773319 -0.03783708 -0.03534066
v 0.00830375 -0.03763567 -0.03534066
v 0.00886734 -0.03742530 -0.03534066
v 0.01004673 -0.03697771 -0.03534066
v 0.01109043 -0.03657489 -0.03534066
v 0.01160184 -0.03635557 -0.03534066
v 0.01346659 -0.03549620 -0.03534066
v 0.01403019 -0.03522317 -0.03534066
v 0.01468425 -0.03490538 -0.03534066
v 0.01581840 -0.03433694 -0.03534066
v 0.01636809 -0.03405496 -0.03534066
v 0.00691214 -0.03756853 -0.03698487
v 0.00651206 -0.03711647 -0.03758637
v 0.00767057 -0.03684344 -0.03755256
v 0.00298086 -0.03779233 -0.03723864
v 0.00064645 -0.03565285 -0.03853690
v 0.00414981 -0.03703143 -0.03776066
v 0.00532571 -0.03703143 -0.03778525
v 0.00649466 -0.03625710 -0.03822957
v 0.00651206 -0.03781470 -0.03657349
v 0.00180496 0.00518511 -0.03504913
v 0.00180496 0.00593706 -0.03504606
v 0.00064645 0.00051229 -0.03506801
v 0.01701170 -0.03367899 -0.03534066
v 0.01790929 -0.03310608 -0.03534066
v 0.01998278 -0.03175436 -0.03534066
v 0.02141961 -0.03075624 -0.03534066
v 0.02198321 -0.03025494 -0.03534066
v 0.02224065 -0.02998638 -0.03534066
v 0.00731571 -0.03769833 -0.03620294
v 0.00809848 -0.03755958 -0.03578760
v 0.00769144 -0.03743426 -0.03657349
v 0.01068339 -0.03648089 -0.03602513
v 0.01382145 -0.03512470 -0.03570067
v 0.01588103 -0.03310160 -0.03742480
v 0.01650377 -0.03294494 -0.03716181
v 0.01617326 -0.03395202 -0.03570287
v 0.01761357 -0.03173198 -0.03827962
v 0.00883951 -0.03658831 -0.03731372
v 0.00944138 -0.03644956 -0.03713854
v 0.00767057 -0.03608701 -0.03813912
v 0.01001542 -0.03510232 -0.03820629
v 0.01274296 -0.03401468 -0.03823791
v 0.00064645 -0.03564390 -0.03854216
v 0.00532571 -0.03631976 -0.03823747
v 0.00532571 -0.03573789 -0.03852241
v 0.00414981 -0.03468159 -0.03905672
v 0.00532571 -0.03468159 -0.03895618
v 0.00649466 -0.03567076 -0.03845348
v 0.00767057 -0.03550067 -0.03838279
v 0.00929874 -0.03522764 -0.03828357
v 0.02254681 -0.02965069 -0.03534066
v 0.02330523 -0.02880923 -0.03534066
v 0.02365313 -0.02841982 -0.03534066
v 0.02474902 -0.02716210 -0.03534066
v 0.02521868 -0.02660709 -0.03534066
v 0.02583447 -0.02587752 -0.03534066
v 0.02637024 -0.02523747 -0.03534066
v 0.02690948 -0.02459294 -0.03534066
v 0.02836023 -0.02285630 -0.03534066
v 0.02954657 -0.02141954 -0.03534066
v 0.03015888 -0.02060493 -0.03534066
v 0.03055200 -0.02005440 -0.03534066
v 0.03110169 -0.01927559 -0.03534066
v 0.03160266 -0.01855498 -0.03534066
v 0.03223237 -0.01763742 -0.03534066
v 0.03259070 -0.01710032 -0.03534066
v 0.03291773 -0.01658559 -0.03534066
v 0.00255294 0.00593706 -0.03505747
v 0.00138400 0.00593706 -0.03505001
v 0.03320301 -0.01603058 -0.03534066
v 0.03377009 -0.01477286 -0.03534066
v 0.03402405 -0.01403881 -0.03534066
v 0.03414930 -0.01357780 -0.03534066
v 0.03419453 -0.01340771 -0.03534066
v 0.03501557 -0.00999709 -0.03534066
v 0.00064645 0.00403033 -0.03506230
v 0.01765532 -0.03293599 -0.03597771
v 0.01903301 -0.03190206 -0.03623630
v 0.01871642 -0.03168722 -0.03701824
v 0.01981230 -0.03164246 -0.03575380
v 0.02113085 -0.03055930 -0.03593424
v 0.01996190 -0.03056377 -0.03711351
v 0.01793712 -0.03194682 -0.03749768
v 0.01523045 -0.03289571 -0.03827215
v 0.01682732 -0.03191101 -0.03842494
v 0.01715086 -0.03127096 -0.03859265
v 0.01801018 -0.03094870 -0.03846709
v 0.01878600 -0.03056377 -0.03828840
v 0.01196018 -0.03415343 -0.03833142
v 0.01445115 -0.03303894 -0.03837840
v 0.00064645 -0.03469949 -0.03909141
v 0.00180496 -0.03468159 -0.03909580
v 0.00298086 -0.03468159 -0.03909053
v 0.00298086 -0.03350890 -0.03942552
v 0.00416373 -0.03341044 -0.03940445
v 0.00524570 -0.03341044 -0.03933683
v 0.00649466 -0.03350890 -0.03918931
v 0.00767057 -0.03350890 -0.03907165
v 0.00883951 -0.03350890 -0.03894872
v 0.01001542 -0.03350890 -0.03881525
v 0.00649466 -0.03468159 -0.03881744
v 0.00888126 -0.03477558 -0.03849782
v 0.01119132 -0.03350890 -0.03867519
v 0.01119132 -0.03429666 -0.03838235
v 0.02226849 -0.02934633 -0.03590131
v 0.02303039 -0.02895246 -0.03549169
v 0.02454028 -0.02692040 -0.03581746
v 0.02566400 -0.02567611 -0.03574546
v 0.02749048 -0.02282497 -0.03640973
v 0.02820715 -0.02239529 -0.03597991
v 0.02709735 -0.02247137 -0.03722811
v 0.02931348 -0.02113309 -0.03589780
v 0.02818976 -0.02120022 -0.03712976
v 0.03064246 -0.01900704 -0.03607781
v 0.03148438 -0.01826852 -0.03570331
v 0.03169312 -0.01766428 -0.03594346
v 0.03238892 -0.01723459 -0.03548466
v 0.03274030 -0.01625437 -0.03580780
v 0.00297738 0.00593706 -0.03506625
v 0.00064645 0.00593706 -0.03505923
v 0.03323084 -0.01588735 -0.03539817
v 0.03374225 -0.01479523 -0.03536612
v 0.03389881 -0.01357780 -0.03576389
v 0.03400666 -0.01281242 -0.03590131
v 0.03499470 -0.00999709 -0.03538500
v 0.03598621 -0.00307290 -0.03629294
v 0.03610798 -0.00226724 -0.03629294
v 0.03615669 -0.00185098 -0.03629294
v 0.03618800 -0.00130492 -0.03629294
v 0.03618452 -0.00067830 -0.03629294
v 0.03612538 0.00012288 -0.03629294
v 0.03559656 0.00493446 -0.03629294
v 0.03545741 0.00593706 -0.03629294
v 0.02031676 -0.02978049 -0.03746958
v 0.02372619 -0.02614160 -0.03735938
v 0.02376098 -0.02735009 -0.03622094
v 0.01588103 -0.03214376 -0.03851889
v 0.01588103 -0.03116802 -0.03883676
v 0.01704997 -0.02999534 -0.03892501
v 0.01822240 -0.02882265 -0.03897594
v 0.01833025 -0.03009828 -0.03863085
v 0.01913390 -0.02978049 -0.03846533
v 0.02025762 -0.02855410 -0.03844118
v 0.02250506 -0.02609684 -0.03839070
v 0.02474902 -0.02363511 -0.03834020
v 0.02586926 -0.02240424 -0.03831474
v 0.02103692 -0.02810651 -0.03821464
v 0.02598754 -0.02372015 -0.03728606
v 0.02486035 -0.02492864 -0.03732250
v 0.01235679 -0.03357604 -0.03849694
v 0.01353617 -0.03324035 -0.03845216
v 0.00064645 -0.03468159 -0.03909975
v 0.00180496 -0.03350890 -0.03942684
v 0.00480386 -0.03294942 -0.03947908
v 0.01001542 -0.03233622 -0.03913092
v 0.01119132 -0.03233622 -0.03901457
v 0.01353617 -0.03233622 -0.03878144
v 0.02632153 -0.02282945 -0.03764739
v 0.02753570 -0.02167019 -0.03739977
v 0.02667639 -0.02178657 -0.03805307
v 0.02839502 -0.02061388 -0.03729264
v 0.02924042 -0.01981270 -0.03699498
v 0.03295948 -0.01547109 -0.03600844
v 0.02947699 -0.01902942 -0.03720747
v 0.00064645 0.00593706 -0.03782081
v 0.03310907 -0.01475495 -0.03611250
v 0.03355439 -0.01241407 -0.03633685
v 0.03410407 -0.01202914 -0.03599747
v 0.03568006 -0.00445594 -0.03629294
v 0.03330738 -0.01357780 -0.03626440
v 0.03573921 -0.00419634 -0.03629294
v 0.03571485 -0.00419634 -0.03631621
v 0.03419800 -0.00536902 -0.03722898
v 0.03489381 -0.00419634 -0.03690277
v 0.03430585 -0.00419634 -0.03728913
v 0.03581226 -0.00185098 -0.03652081
v 0.03524866 0.00312620 -0.03714644
v 0.03527302 0.00401243 -0.03717191
v 0.03527998 0.00518511 -0.03718683
v 0.03525910 0.00593706 -0.03716752
v 0.03527302 0.00593706 -0.03712449
v 0.01478514 -0.03243917 -0.03856982
v 0.00883951 -0.03233622 -0.03923937
v 0.01470512 -0.03116802 -0.03894345
v 0.01588103 -0.02999534 -0.03901765
v 0.01937743 -0.02524195 -0.03939610
v 0.02117955 -0.02358587 -0.03947952
v 0.01353617 -0.03116802 -0.03904004
v 0.01939134 -0.02764550 -0.03899877
v 0.02241460 -0.02248928 -0.03950235
v 0.02056377 -0.02647282 -0.03898648
v 0.01947136 -0.02889427 -0.03862909
v 0.02061248 -0.02768578 -0.03860451
v 0.02175707 -0.02648177 -0.03856060
v 0.02552832 -0.02318752 -0.03806712
v 0.02440807 -0.02441838 -0.03810400
v 0.02173968 -0.02530013 -0.03894389
v 0.02290862 -0.02413193 -0.03887145
v 0.02408453 -0.02295925 -0.03879593
v 0.02608844 -0.02178657 -0.03838981
v 0.02692688 -0.02103462 -0.03826206
v 0.00064645 -0.03350890 -0.03941366
v 0.00456381 -0.03294942 -0.03947908
v 0.01001542 -0.03116802 -0.03931664
v 0.02056377 -0.02295925 -0.03951991
v 0.00848465 -0.03069805 -0.03948743
v 0.01447551 -0.02725162 -0.03949708
v 0.01076688 -0.02950299 -0.03948699
v 0.02966486 -0.01826852 -0.03732470
v 0.03043720 -0.01745391 -0.03706434
v 0.03135217 -0.01592763 -0.03690760
v 0.02905255 0.00593706 -0.03945055
v 0.00064645 -0.03233622 -0.03936713
v 0.03218366 -0.01465201 -0.03672716
v 0.03243763 -0.01357780 -0.03685141
v 0.03266376 -0.01240959 -0.03698707
v 0.03280292 -0.01155022 -0.03707576
v 0.03171399 -0.00950474 -0.03830684
v 0.03336652 -0.01119215 -0.03672408
v 0.03359961 -0.00999709 -0.03678511
v 0.03451807 -0.00888707 -0.03630875
v 0.03484858 -0.00769201 -0.03629294
v 0.03545045 -0.00536902 -0.03629294
v 0.03410407 -0.00614335 -0.03716620
v 0.03252808 -0.00771439 -0.03803990
v 0.03194013 -0.00771439 -0.03846313
v 0.03263941 -0.00654171 -0.03813825
v 0.03495991 -0.00302366 -0.03696687
v 0.03205146 -0.00654171 -0.03851802
v 0.03346741 -0.00419634 -0.03780545
v 0.03521735 0.00234292 -0.03712361
v 0.03463984 0.00401243 -0.03756924
v 0.03463984 0.00518511 -0.03761798
v 0.03410059 0.00593706 -0.03797360
v 0.03493903 0.00593706 -0.03739626
v 0.01897386 -0.02481226 -0.03948699
v 0.02056377 -0.02376938 -0.03950235
v 0.02163531 -0.02291001 -0.03950762
v 0.02256072 -0.02178657 -0.03951552
v 0.02377837 -0.01944120 -0.03951552
v 0.02358703 -0.02024238 -0.03949796
v 0.02456115 -0.01865792 -0.03946108
v 0.02436633 -0.01944120 -0.03940181
v 0.02401842 -0.02062284 -0.03931883
v 0.02408453 -0.02178657 -0.03908833
v 0.02525347 -0.02178657 -0.03868178
v 0.02284948 -0.02291001 -0.03924068
v 0.02824194 -0.01781198 -0.03833318
v 0.02869073 -0.01822824 -0.03794726
v 0.02649200 -0.02063179 -0.03849431
v 0.02760180 -0.01592763 -0.03897023
v 0.02877423 -0.01357780 -0.03896760
v 0.02994666 -0.01123691 -0.03893511
v 0.02839502 -0.01709584 -0.03841616
v 0.00456381 -0.03283752 -0.03947908
v 0.02941437 0.00593706 -0.03946986
v 0.02993274 0.00593706 -0.03949357
v 0.02290862 -0.01944120 -0.03953045
v 0.01937743 -0.02416774 -0.03950850
v 0.01672990 -0.02603865 -0.03949445
v 0.03060419 -0.01667511 -0.03717235
v 0.02935870 -0.01533682 -0.03830025
v 0.03081989 -0.01123691 -0.03847982
v 0.03155396 -0.01497875 -0.03703317
v 0.03140784 -0.01123691 -0.03811278
v 0.03158875 -0.01028802 -0.03822605
v 0.03116779 -0.00996128 -0.03856807
v 0.03111908 -0.00888707 -0.03881042
v 0.03179401 -0.00888707 -0.03836786
v 0.03455286 -0.00653723 -0.03674867
v 0.03111908 -0.00771439 -0.03895311
v 0.03270551 -0.00536902 -0.03819576
v 0.03111908 -0.00654171 -0.03902204
v 0.03212104 -0.00536902 -0.03854919
v 0.03276465 -0.00419634 -0.03823044
v 0.03289686 -0.00143025 -0.03831035
v 0.03293164 -0.00067830 -0.03833186
v 0.03298731 0.00049438 -0.03836347
v 0.03375269 0.00518511 -0.03814659
v 0.03378052 0.00593706 -0.03816459
v 0.02408453 -0.01709584 -0.03953133
v 0.02413671 -0.01826852 -0.03951684
v 0.02516302 -0.01592763 -0.03950894
v 0.02491253 -0.01709584 -0.03949752
v 0.02575097 -0.01592763 -0.03946679
v 0.02877423 -0.01123691 -0.03930039
v 0.02877423 -0.01240959 -0.03916780
v 0.02760180 -0.01475495 -0.03916385
v 0.02642938 -0.01709584 -0.03915288
v 0.02525347 -0.01944120 -0.03913136
v 0.02525347 -0.02061388 -0.03891930
v 0.02973096 -0.01357780 -0.03852021
v 0.02642938 -0.01944120 -0.03873315
v 0.02994666 -0.01006423 -0.03914321
v 0.03008582 0.00518511 -0.03950499
v 0.03060419 0.00593706 -0.03949577
v 0.02995014 -0.00999709 -0.03914936
v 0.02995014 -0.00888707 -0.03926966
v 0.03111908 -0.00536902 -0.03906638
v 0.03229499 0.00049438 -0.03871339
v 0.03303602 0.00166706 -0.03838938
v 0.03217670 -0.00419634 -0.03857685
v 0.02995014 -0.00771439 -0.03932849
v 0.03307776 0.00283974 -0.03840826
v 0.03229499 0.00166706 -0.03875554
v 0.03316822 0.00518511 -0.03844031
v 0.03319605 0.00593706 -0.03845041
v 0.03063202 0.00518511 -0.03950499
v 0.02642938 -0.01006423 -0.03951991
v 0.02537176 -0.01486685 -0.03951201
v 0.02624847 -0.01240959 -0.03950235
v 0.02583795 -0.01533682 -0.03947381
v 0.02749396 -0.00771439 -0.03950718
v 0.02877423 -0.01006423 -0.03936888
v 0.03065290 0.00593706 -0.03947908
v 0.03111908 -0.00419634 -0.03910590
v 0.02995014 -0.00654171 -0.03935395
v 0.03049286 0.00121052 -0.03947074
v 0.03229499 0.00283974 -0.03879022
v 0.03229499 0.00593706 -0.03884642
v 0.03229499 0.00518511 -0.03885564
v 0.03121997 0.00518511 -0.03930171
v 0.03060767 0.00401243 -0.03949796
v 0.02980750 0.00049438 -0.03950235
v 0.02775140 -0.01006423 -0.03944352
v 0.02666943 -0.01357780 -0.03945011
v 0.02857245 -0.00419634 -0.03950060
v 0.02877423 -0.00888707 -0.03939435
v 0.03054852 0.00199380 -0.03947865
v 0.03111908 -0.00302366 -0.03914058
v 0.03023541 -0.00067830 -0.03945186
v 0.02877423 -0.00771439 -0.03941762
v 0.02964746 -0.00067830 -0.03949357
v 0.03111908 -0.00185098 -0.03917088
v 0.03119562 0.00401243 -0.03928546
v 0.03057288 0.00283974 -0.03948699
f 1 2 3
f 1 3 8
f 1 8 15
f 1 15 41
f 1 41 95
f 1 95 139
f 1 139 184
f 1 184 232
f 1 232 221
f 1 221 171
f 1 171 110
f 1 110 62
f 1 62 34
f 1 34 11
f 1 11 4
f 1 4 5
f 1 5 2
f 2 6 7
f 2 7 8
f 2 8 3
f 2 5 9
f 2 9 10
f 2 10 6
f 4 11 12
f 4 12 13
f 4 13 5
f 5 13 9
f 6 10 7
f 7 10 14
f 7 14 8
f 8 14 16
f 8 16 17
f 8 17 18
f 8 18 19
f 8 19 20
f 8 20 21
f 8 21 22
f 8 22 23
f 8 23 24
f 8 24 25
f 8 25 26
f 8 26 27
f 8 27 28
f 8 28 29
f 8 29 15
f 9 30 10
f 9 13 31
f 9 31 32
f 9 32 30
f 10 30 14
f 11 33 12
f 11 34 33
f 12 33 35
f 12 35 36
f 12 36 13
f 13 36 37
f 13 37 31
f 14 30 38
f 14 38 16
f 15 39 40
f 15 40 41
f 15 29 42
f 15 42 43
f 15 43 44
f 15 44 45
f 15 45 46
f 15 46 47
f 15 47 39
f 16 38 30
f 16 30 17
f 17 30 48
f 17 48 18
f 18 48 19
f 19 48 20
f 20 48 49
f 20 49 21
f 21 49 22
f 22 49 50
f 22 50 51
f 22 51 23
f 23 51 24
f 24 51 25
f 25 51 26
f 26 51 27
f 27 51 52
f 27 52 53
f 27 53 54
f 27 54 55
f 27 55 28
f 28 55 29
f 29 55 56
f 29 56 42
f 30 32 57
f 30 57 58
f 30 58 51
f 30 51 50
f 30 50 48
f 31 37 59
f 31 59 32
f 32 59 60
f 32 60 61
f 32 61 57
f 33 34 35
f 34 62 63
f 34 63 35
f 35 63 36
f 36 63 37
f 37 64 65
f 37 65 66
f 37 66 67
f 37 67 68
f 37 68 69
f 37 69 59
f 37 63 64
f 39 47 70
f 39 70 71
f 39 71 72
f 39 72 73
f 39 73 74
f 39 74 75
f 39 75 76
f 39 76 77
f 39 77 78
f 39 78 79
f 39 79 80
f 39 80 81
f 39 81 82
f 39 82 83
f 39 83 84
f 39 84 85
f 39 85 86
f 39 86 40
f 40 87 138
f 40 138 152
f 40 152 200
f 40 200 199
f 40 199 254
f 40 254 253
f 40 253 299
f 40 299 326
f 40 326 339
f 40 339 334
f 40 334 315
f 40 315 276
f 40 276 275
f 40 275 231
f 40 231 184
f 40 184 139
f 40 139 88
f 40 88 41
f 40 86 89
f 40 89 90
f 40 90 91
f 40 91 92
f 40 92 93
f 40 93 94
f 40 94 87
f 41 88 95
f 42 56 96
f 42 96 43
f 43 96 97
f 43 97 44
f 44 97 98
f 44 98 99
f 44 99 45
f 45 99 98
f 45 98 56
f 45 56 100
f 45 100 46
f 46 100 47
f 47 100 101
f 47 101 70
f 48 50 49
f 51 58 52
f 52 58 53
f 53 56 54
f 53 58 56
f 54 56 55
f 56 98 102
f 56 102 96
f 56 58 103
f 56 103 104
f 56 104 105
f 56 105 106
f 56 106 107
f 56 107 101
f 56 101 100
f 57 61 103
f 57 103 58
f 59 69 60
f 60 69 108
f 60 108 61
f 61 108 109
f 61 109 103
f 62 110 63
f 63 110 111
f 63 111 112
f 63 112 64
f 64 112 65
f 65 112 113
f 65 113 114
f 65 114 115
f 65 115 66
f 66 115 116
f 66 116 117
f 66 117 118
f 66 118 119
f 66 119 120
f 66 120 68
f 66 68 67
f 68 120 121
f 68 121 122
f 68 122 69
f 69 122 123
f 69 123 108
f 70 101 124
f 70 124 125
f 70 125 71
f 71 125 126
f 71 126 72
f 72 126 73
f 73 126 127
f 73 127 74
f 74 127 75
f 75 127 76
f 76 127 77
f 77 127 128
f 77 128 78
f 78 128 129
f 78 129 79
f 79 129 130
f 79 130 131
f 79 131 80
f 80 131 81
f 81 131 82
f 82 131 132
f 82 132 133
f 82 133 134
f 82 134 83
f 83 134 135
f 83 135 136
f 83 136 84
f 84 136 85
f 85 136 86
f 86 136 137
f 86 137 89
f 87 94 138
f 88 139 95
f 89 137 140
f 89 140 90
f 90 140 141
f 90 141 142
f 90 142 91
f 91 142 92
f 92 142 93
f 93 142 143
f 93 143 144
f 93 144 94
f 94 144 145
f 94 145 146
f 94 146 147
f 94 147 148
f 94 148 149
f 94 149 150
f 94 150 151
f 94 151 152
f 94 152 138
f 96 102 97
f 97 102 98
f 101 107 153
f 101 153 154
f 101 154 155
f 101 155 124
f 103 109 104
f 104 156 105
f 104 109 156
f 105 156 157
f 105 157 158
f 105 158 159
f 105 159 160
f 105 160 106
f 106 160 161
f 106 161 107
f 107 161 162
f 107 162 163
f 107 163 164
f 107 164 165
f 107 165 166
f 107 166 167
f 107 167 168
f 107 168 154
f 107 154 153
f 108 123 169
f 108 169 170
f 108 170 156
f 108 156 109
f 110 171 111
f 111 171 113
f 111 113 112
f 113 172 173
f 113 173 114
f 113 171 172
f 114 173 115
f 115 173 174
f 115 174 116
f 116 174 175
f 116 175 176
f 116 176 117
f 117 176 118
f 118 176 119
f 119 122 120
f 119 176 122
f 120 122 121
f 122 169 123
f 122 176 169
f 124 155 125
f 125 155 126
f 126 155 167
f 126 167 127
f 127 167 130
f 127 130 128
f 128 130 129
f 130 167 177
f 130 177 178
f 130 178 132
f 130 132 131
f 132 178 179
f 132 179 180
f 132 180 181
f 132 181 135
f 132 135 133
f 133 135 134
f 135 137 136
f 135 181 137
f 137 182 140
f 137 181 183
f 137 183 182
f 140 182 141
f 141 182 142
f 142 182 185
f 142 185 143
f 143 186 187
f 143 187 188
f 143 188 144
f 143 185 189
f 143 189 186
f 144 188 190
f 144 190 145
f 145 190 191
f 145 191 192
f 145 192 193
f 145 193 146
f 146 193 194
f 146 194 195
f 146 195 147
f 147 195 196
f 147 196 197
f 147 197 148
f 148 197 198
f 148 198 149
f 149 198 199
f 149 199 150
f 150 199 200
f 150 200 151
f 151 200 152
f 154 168 155
f 155 168 167
f 156 170 201
f 156 201 176
f 156 176 157
f 157 176 175
f 157 175 174
f 157 174 202
f 157 202 203
f 157 203 158
f 158 204 205
f 158 205 206
f 158 206 159
f 158 203 207
f 158 207 204
f 159 208 160
f 159 206 209
f 159 209 208
f 160 208 210
f 160 210 211
f 160 211 161
f 161 211 212
f 161 212 162
f 162 212 163
f 163 212 213
f 163 213 164
f 164 213 165
f 165 177 214
f 165 214 215
f 165 215 166
f 165 213 216
f 165 216 217
f 165 217 218
f 165 218 209
f 165 209 219
f 165 219 220
f 165 220 179
f 165 179 177
f 166 215 167
f 167 214 177
f 167 215 214
f 169 176 201
f 169 201 170
f 171 221 172
f 172 221 222
f 172 222 173
f 173 223 207
f 173 207 203
f 173 203 202
f 173 202 174
f 173 222 224
f 173 224 225
f 173 225 226
f 173 226 227
f 173 227 223
f 177 179 178
f 179 220 180
f 180 220 183
f 180 183 181
f 182 183 228
f 182 228 229
f 182 229 230
f 182 230 185
f 183 220 228
f 184 231 232
f 185 233 234
f 185 234 235
f 185 235 189
f 185 230 233
f 186 236 237
f 186 237 238
f 186 238 187
f 186 189 236
f 187 238 239
f 187 239 240
f 187 240 241
f 187 241 242
f 187 242 188
f 188 242 191
f 188 191 190
f 189 235 236
f 191 242 243
f 191 243 192
f 192 243 244
f 192 244 245
f 192 245 246
f 192 246 193
f 193 246 194
f 194 247 195
f 194 246 248
f 194 248 291
f 194 291 247
f 195 247 249
f 195 249 250
f 195 250 196
f 196 250 251
f 196 251 197
f 197 251 252
f 197 252 198
f 198 252 253
f 198 253 254
f 198 254 199
f 204 227 255
f 204 255 205
f 204 207 223
f 204 223 227
f 205 255 206
f 206 256 209
f 206 255 256
f 208 209 210
f 209 256 257
f 209 257 258
f 209 258 259
f 209 259 260
f 209 260 261
f 209 261 262
f 209 262 263
f 209 263 264
f 209 264 265
f 209 265 219
f 209 218 266
f 209 266 216
f 209 216 210
f 210 216 211
f 211 216 212
f 212 216 213
f 216 266 217
f 217 266 218
f 219 265 220
f 220 267 268
f 220 268 228
f 220 265 264
f 220 264 269
f 220 269 270
f 220 270 271
f 220 271 272
f 220 272 273
f 220 273 267
f 221 274 222
f 221 232 231
f 221 231 275
f 221 275 276
f 221 276 274
f 222 274 277
f 222 277 224
f 224 258 257
f 224 257 256
f 224 256 278
f 224 278 226
f 224 226 225
f 224 277 258
f 226 278 256
f 226 256 227
f 227 256 279
f 227 279 255
f 228 268 229
f 229 280 230
f 229 268 280
f 230 281 282
f 230 282 283
f 230 283 233
f 230 280 268
f 230 268 281
f 233 282 284
f 233 284 234
f 233 283 282
f 234 284 285
f 234 285 235
f 235 285 236
f 236 285 237
f 237 239 238
f 237 285 286
f 237 286 287
f 237 287 288
f 237 288 243
f 237 243 239
f 239 243 289
f 239 289 240
f 240 289 241
f 241 289 242
f 242 289 243
f 243 288 244
f 244 288 245
f 245 288 287
f 245 287 290
f 245 290 248
f 245 248 246
f 247 291 249
f 248 292 293
f 248 293 291
f 248 290 292
f 249 294 295
f 249 295 250
f 249 291 294
f 250 295 251
f 251 295 296
f 251 296 297
f 251 297 298
f 251 298 299
f 251 299 253
f 251 253 252
f 255 279 256
f 258 277 300
f 258 300 259
f 259 301 302
f 259 302 303
f 259 303 304
f 259 304 260
f 259 300 301
f 260 304 261
f 261 304 305
f 261 305 306
f 261 306 307
f 261 307 262
f 262 307 308
f 262 308 263
f 263 308 309
f 263 309 264
f 264 309 310
f 264 310 269
f 267 273 311
f 267 311 282
f 267 282 281
f 267 281 268
f 269 310 312
f 269 312 270
f 270 308 307
f 270 307 306
f 270 306 271
f 270 312 309
f 270 309 308
f 271 306 313
f 271 313 272
f 272 286 282
f 272 282 311
f 272 311 273
f 272 313 287
f 272 287 286
f 274 276 314
f 274 314 300
f 274 300 277
f 276 315 314
f 282 286 284
f 284 286 285
f 287 313 290
f 290 313 316
f 290 316 317
f 290 317 292
f 291 293 294
f 292 318 319
f 292 319 320
f 292 320 297
f 292 297 321
f 292 321 293
f 292 317 322
f 292 322 318
f 293 321 297
f 293 297 296
f 293 296 295
f 293 295 294
f 297 320 298
f 298 320 299
f 299 320 323
f 299 323 324
f 299 324 325
f 299 325 326
f 300 314 327
f 300 327 328
f 300 328 329
f 300 329 302
f 300 302 301
f 302 330 331
f 302 331 304
f 302 304 303
f 302 329 332
f 302 332 330
f 304 331 333
f 304 333 317
f 304 317 305
f 305 313 306
f 305 317 313
f 309 312 310
f 313 317 316
f 314 315 327
f 315 334 327
f 317 333 322
f 318 322 335
f 318 335 324
f 318 324 319
f 319 324 320
f 320 324 323
f 322 336 337
f 322 337 335
f 322 333 336
f 324 338 326
f 324 326 325
f 324 335 349
f 324 349 338
f 326 338 340
f 326 340 339
f 327 334 341
f 327 341 342
f 327 342 343
f 327 343 328
f 328 343 332
f 328 332 329
f 330 344 331
f 330 332 344
f 331 344 345
f 331 345 333
f 332 343 346
f 332 346 344
f 333 345 347
f 333 347 336
f 334 339 341
f 335 337 348
f 335 348 349
f 336 347 350
f 336 350 337
f 337 350 351
f 337 351 352
f 337 352 343
f 337 343 348
f 338 349 340
f 339 340 341
f 340 349 353
f 340 353 354
f 340 354 341
f 341 354 348
f 341 348 355
f 341 355 342
f 342 355 343
f 343 355 348
f 343 352 346
f 344 346 351
f 344 351 347
f 344 347 345
f 346 352 351
f 347 351 350
f 348 354 353
f 348 353 349

