# https://github.com/mikedh/trimesh
v 0.03807574 -0.00999644 0.04244967
v 0.03716243 -0.00999644 0.04229341
v 0.03815903 -0.00999644 0.04242489
v 0.03933261 -0.00654023 0.04229018
v 0.03933261 -0.00536737 0.04233113
v 0.03933261 0.00049540 0.04239471
v 0.03933261 0.00166826 0.04240333
v 0.03933261 0.00401400 0.04240118
v 0.03933261 0.00518686 0.04239795
v 0.03933261 0.00593706 0.04239579
v 0.03707914 -0.00999644 0.04226647
v 0.03890860 0.00593706 0.04229557
v 0.03815903 0.00593706 0.04211559
v 0.03695989 0.00593706 0.04176212
v 0.03933261 -0.00999644 0.04191191
v 0.03933261 -0.00888597 0.04204770
v 0.03933261 -0.00771310 0.04218672
v 0.04050524 -0.00302164 0.04200783
v 0.04050524 -0.00185033 0.04210482
v 0.04050524 -0.00067747 0.04214469
v 0.04050524 0.00166826 0.04217487
v 0.04050524 0.00401400 0.04220073
v 0.04050524 0.00518686 0.04221258
v 0.04050524 0.00593706 0.04221905
v 0.04008124 0.00593706 0.04228587
v 0.03619233 -0.00999644 0.04165651
v 0.03630590 0.00593706 0.04152288
v 0.04001215 -0.00999644 0.04150994
v 0.04011626 -0.00888597 0.04157784
v 0.04022226 -0.00771310 0.04165004
v 0.04032353 -0.00654023 0.04172117
v 0.04042196 -0.00536737 0.04179122
v 0.04060841 -0.00422726 0.04179768
v 0.04120277 -0.00302164 0.04152934
v 0.04129836 -0.00185033 0.04159077
v 0.04136366 -0.00067747 0.04162418
v 0.04139111 0.00049540 0.04163388
v 0.04140720 0.00166826 0.04164465
v 0.04142329 0.00284113 0.04165435
v 0.04142613 0.00401400 0.04166405
v 0.04139205 0.00518686 0.04167483
v 0.04135514 0.00593706 0.04168022
v 0.03615542 -0.00999644 0.04163064
v 0.03574372 0.00593706 0.04085149
v 0.03360383 -0.00999644 0.03950224
v 0.03363790 -0.00999644 0.03953349
v 0.03427485 -0.00999644 0.04008958
v 0.03486070 -0.00999644 0.04059177
v 0.03556958 -0.00999644 0.04117910
v 0.04004338 -0.00999644 0.04148516
v 0.04080810 -0.00771310 0.04122867
v 0.04090937 -0.00654023 0.04131381
v 0.04100780 -0.00536737 0.04138709
v 0.04106837 -0.00464057 0.04143235
v 0.04113368 -0.00385918 0.04147977
v 0.04188515 -0.00185033 0.04118018
v 0.04195045 -0.00067747 0.04124268
v 0.04197695 0.00049540 0.04127286
v 0.04199399 0.00166826 0.04126855
v 0.04201008 0.00284113 0.04122436
v 0.04269530 0.00049540 0.04068660
v 0.04261958 0.00166826 0.04068229
v 0.04249749 0.00284113 0.04063811
v 0.04184067 0.00593706 0.04083963
v 0.03529132 0.00593706 0.04024583
v 0.03309086 -0.00999644 0.03861532
v 0.03524400 0.00593706 0.04016824
v 0.04068317 -0.00999644 0.04084825
v 0.04070210 -0.00888597 0.04110690
v 0.04244449 -0.00302164 0.04050125
v 0.04254955 -0.00185033 0.04059392
v 0.04178956 -0.00302164 0.04108750
v 0.04265649 -0.00067747 0.04065535
v 0.04269530 0.00049540 0.03985141
v 0.04261958 0.00166826 0.03989236
v 0.04229022 0.00471740 0.04035576
v 0.04236783 0.00401400 0.04049909
v 0.04249749 0.00284113 0.03996672
v 0.04168167 0.00593706 0.04019734
v 0.04229022 0.00471740 0.04022752
v 0.03305584 -0.00999644 0.03853773
v 0.03502632 0.00593706 0.03964557
v 0.04074658 -0.00999644 0.04078144
v 0.04125671 -0.00888597 0.04052064
v 0.04232903 -0.00419450 0.04036546
v 0.04244449 -0.00302164 0.04003030
v 0.04265649 -0.00067747 0.03986219
v 0.03868241 0.00049540 0.03144126
v 0.03868430 0.00406390 0.03144126
v 0.03860858 0.00509484 0.03144126
v 0.04236783 0.00401400 0.04011113
v 0.04159838 0.00593706 0.03988913
v 0.03835872 0.00593706 0.03144126
v 0.03302745 -0.00999644 0.03728116
v 0.03494966 0.00593706 0.03850647
v 0.04088476 -0.00999644 0.04063488
v 0.04116112 -0.00980149 0.04039132
v 0.04226751 -0.00479653 0.04028248
v 0.04232903 -0.00419450 0.04017902
v 0.03780790 -0.00642482 0.03144126
v 0.03849123 -0.00182538 0.03144126
v 0.03849880 -0.00176767 0.03144126
v 0.04254955 -0.00185033 0.03993116
v 0.03860575 -0.00067747 0.03144126
v 0.03863603 -0.00034682 0.03144126
v 0.03513327 0.00593706 0.03144126
v 0.03362560 -0.00999644 0.03154472
v 0.04084502 -0.00999644 0.04003030
v 0.04116112 -0.00980149 0.04018764
v 0.04226751 -0.00479653 0.04027062
v 0.03754384 -0.00766319 0.03144126
v 0.03363695 -0.00999644 0.03144126
v 0.03685862 -0.00999644 0.03144126
v 0.03724193 -0.00886101 0.03144126
f 1 2 11
f 1 11 26
f 1 26 43
f 1 43 49
f 1 49 48
f 1 48 47
f 1 47 46
f 1 46 45
f 1 45 66
f 1 66 81
f 1 81 94
f 1 94 107
f 1 107 112
f 1 112 113
f 1 113 108
f 1 108 96
f 1 96 83
f 1 83 68
f 1 68 50
f 1 50 28
f 1 28 15
f 1 15 3
f 1 3 4
f 1 4 5
f 1 5 6
f 1 6 7
f 1 7 8
f 1 8 9
f 1 9 10
f 1 10 2
f 2 10 12
f 2 12 13
f 2 13 14
f 2 14 11
f 3 15 16
f 3 16 17
f 3 17 4
f 4 18 19
f 4 19 5
f 4 17 18
f 5 19 20
f 5 20 21
f 5 21 22
f 5 22 6
f 6 22 23
f 6 23 24
f 6 24 7
f 7 24 25
f 7 25 8
f 8 25 9
f 9 25 10
f 10 25 24
f 10 24 42
f 10 42 64
f 10 64 79
f 10 79 92
f 10 92 93
f 10 93 106
f 10 106 95
f 10 95 82
f 10 82 67
f 10 67 65
f 10 65 44
f 10 44 27
f 10 27 14
f 10 14 13
f 10 13 12
f 11 14 27
f 11 27 26
f 15 28 16
f 16 28 17
f 17 28 29
f 17 29 30
f 17 30 31
f 17 31 18
f 18 31 32
f 18 32 33
f 18 33 34
f 18 34 35
f 18 35 19
f 19 35 36
f 19 36 20
f 20 36 37
f 20 37 38
f 20 38 39
f 20 39 21
f 21 39 22
f 22 39 23
f 23 39 40
f 23 40 24
f 24 40 41
f 24 41 42
f 26 27 43
f 27 44 45
f 27 45 46
f 27 46 47
f 27 47 48
f 27 48 49
f 27 49 43
f 28 50 51
f 28 51 52
f 28 52 29
f 29 52 30
f 30 52 53
f 30 53 31
f 31 53 54
f 31 54 55
f 31 55 33
f 31 33 32
f 33 55 34
f 34 55 56
f 34 56 35
f 35 56 57
f 35 57 36
f 36 57 58
f 36 58 37
f 37 58 38
f 38 58 39
f 39 58 40
f 40 58 59
f 40 59 41
f 41 59 60
f 41 60 42
f 42 60 61
f 42 61 62
f 42 62 63
f 42 63 64
f 44 65 45
f 45 65 67
f 45 67 66
f 50 68 69
f 50 69 51
f 51 69 70
f 51 70 71
f 51 71 72
f 51 72 56
f 51 56 52
f 52 56 53
f 53 56 54
f 54 56 55
f 56 71 73
f 56 73 57
f 56 72 71
f 57 73 61
f 57 61 58
f 58 61 59
f 59 61 60
f 61 73 87
f 61 87 74
f 61 74 75
f 61 75 62
f 62 75 78
f 62 78 63
f 63 76 77
f 63 77 64
f 63 78 80
f 63 80 76
f 64 77 76
f 64 76 80
f 64 80 79
f 66 67 81
f 67 82 81
f 68 83 69
f 69 83 84
f 69 84 70
f 70 84 85
f 70 85 99
f 70 99 86
f 70 86 87
f 70 87 73
f 70 73 71
f 74 87 88
f 74 88 89
f 74 89 90
f 74 90 75
f 75 90 78
f 78 90 91
f 78 91 80
f 79 80 92
f 80 91 90
f 80 90 93
f 80 93 92
f 81 82 95
f 81 95 94
f 83 96 97
f 83 97 84
f 84 97 98
f 84 98 85
f 85 98 110
f 85 110 99
f 86 99 100
f 86 100 101
f 86 101 102
f 86 102 103
f 86 103 87
f 87 103 102
f 87 102 104
f 87 104 105
f 87 105 88
f 88 105 104
f 88 104 102
f 88 102 101
f 88 101 100
f 88 100 111
f 88 111 114
f 88 114 113
f 88 113 112
f 88 112 106
f 88 106 93
f 88 93 90
f 88 90 89
f 94 95 106
f 94 106 107
f 96 108 109
f 96 109 97
f 97 109 110
f 97 110 98
f 99 110 100
f 100 110 111
f 106 112 107
f 108 113 109
f 109 113 114
f 109 114 111
f 109 111 110

