# https://github.com/mikedh/trimesh
v 0.03094977 0.00593706 -0.03501896
v 0.03094977 0.01791651 -0.03501896
v 0.03569499 0.00593706 -0.03501896
v 0.03094977 0.00593706 0.00025903
v 0.03217441 0.01791651 -0.03501896
v 0.03094977 0.01791651 0.00348759
v 0.03564457 0.00623490 -0.03501896
v 0.03810226 0.00593706 -0.02363816
v 0.03496048 0.00593706 0.00732126
v 0.03143710 0.01791651 0.00732126
v 0.03270026 0.01791651 -0.03298815
v 0.03252661 0.01691744 -0.03501896
v 0.03562287 0.00636155 -0.03501896
v 0.03547933 0.00718589 -0.03501896
v 0.03541141 0.00755879 -0.03501896
v 0.03527347 0.00826588 -0.03501896
v 0.03526997 0.00828229 -0.03501896
v 0.03485265 0.00987940 -0.03501896
v 0.03452636 0.01105201 -0.03501896
v 0.03409504 0.01411606 -0.03262343
v 0.03405163 0.01514327 -0.03123917
v 0.03355940 0.01791651 -0.02949434
v 0.03373234 0.01791651 -0.02832973
v 0.03374915 0.01791651 -0.02807692
v 0.03379536 0.01791651 -0.02715684
v 0.03641199 0.01166529 0.00589969
v 0.03672357 0.01073775 0.00732126
v 0.03699315 0.00987940 0.00732126
v 0.03724032 0.00870678 0.00732126
v 0.03741537 0.00753416 0.00732126
v 0.03753440 0.00661952 0.00732126
v 0.03757641 0.00626774 0.00732126
v 0.03760652 0.00600976 0.00732126
v 0.03761492 0.00593706 0.00732126
v 0.03345927 0.01791651 0.00732126
v 0.03305105 0.01692096 -0.03298815
v 0.03401452 0.01269485 -0.03501896
v 0.03300344 0.01791651 -0.03181526
v 0.03421058 0.01209447 -0.03501896
v 0.03413776 0.01307009 -0.03397039
v 0.03401172 0.01385222 -0.03340675
v 0.03362661 0.01691510 -0.03067552
v 0.03326881 0.01791651 -0.03076670
v 0.03379816 0.01791651 -0.02689988
v 0.03407964 0.01754831 -0.00839469
v 0.03408034 0.01755066 -0.00722179
v 0.03641199 0.01166529 0.00664985
v 0.03659544 0.01112354 0.00732126
v 0.03380796 0.01791651 -0.02571870
v 0.03426519 0.01619980 0.00732126
v 0.03346837 0.01791651 0.00704358
v 0.03404883 0.01279100 -0.03475371
v 0.03410135 0.01244156 -0.03501896
v 0.03334724 0.01691510 -0.03184841
v 0.03387728 0.01791651 -0.00766526
v 0.03388008 0.01791651 -0.00646335
v 0.03381567 0.01791651 -0.02454166
v 0.03383667 0.01791651 -0.02100226
v 0.03384227 0.01791651 -0.01982107
v 0.03384647 0.01791651 -0.01863989
v 0.03387238 0.01791651 -0.00604890
v 0.03385418 0.01791651 -0.00509152
v 0.03406844 0.01752838 -0.00604890
v 0.03640219 0.01164301 0.00732126
v 0.03350618 0.01791651 0.00587897
v 0.03381287 0.01791651 -0.00370726
v 0.03405793 0.01750727 -0.00538164
f 1 2 5
f 1 5 12
f 1 12 37
f 1 37 53
f 1 53 39
f 1 39 19
f 1 19 18
f 1 18 17
f 1 17 16
f 1 16 15
f 1 15 14
f 1 14 13
f 1 13 7
f 1 7 3
f 1 3 8
f 1 8 34
f 1 34 9
f 1 9 4
f 1 4 6
f 1 6 2
f 2 6 10
f 2 10 35
f 2 35 51
f 2 51 65
f 2 65 66
f 2 66 62
f 2 62 61
f 2 61 56
f 2 56 55
f 2 55 60
f 2 60 59
f 2 59 58
f 2 58 57
f 2 57 49
f 2 49 44
f 2 44 25
f 2 25 24
f 2 24 23
f 2 23 22
f 2 22 43
f 2 43 38
f 2 38 11
f 2 11 5
f 3 7 8
f 4 9 10
f 4 10 6
f 5 11 12
f 7 13 8
f 8 13 14
f 8 14 15
f 8 15 16
f 8 16 17
f 8 17 18
f 8 18 19
f 8 19 20
f 8 20 21
f 8 21 22
f 8 22 23
f 8 23 24
f 8 24 25
f 8 25 26
f 8 26 27
f 8 27 28
f 8 28 29
f 8 29 30
f 8 30 31
f 8 31 32
f 8 32 33
f 8 33 34
f 9 34 33
f 9 33 32
f 9 32 31
f 9 31 30
f 9 30 29
f 9 29 28
f 9 28 27
f 9 27 48
f 9 48 64
f 9 64 50
f 9 50 35
f 9 35 10
f 11 36 37
f 11 37 12
f 11 38 36
f 19 39 40
f 19 40 20
f 20 40 41
f 20 41 42
f 20 42 22
f 20 22 21
f 22 42 43
f 25 44 26
f 26 45 46
f 26 46 47
f 26 47 48
f 26 48 27
f 26 44 49
f 26 49 45
f 35 50 51
f 36 38 37
f 37 52 53
f 37 38 54
f 37 54 52
f 38 43 54
f 39 53 40
f 40 52 41
f 40 53 52
f 41 52 43
f 41 43 42
f 43 52 54
f 45 55 56
f 45 56 46
f 45 49 57
f 45 57 58
f 45 58 59
f 45 59 60
f 45 60 55
f 46 56 61
f 46 61 62
f 46 62 63
f 46 63 47
f 47 64 48
f 47 63 64
f 50 65 51
f 50 64 66
f 50 66 65
f 62 66 63
f 63 66 67
f 63 67 64
f 64 67 66

