# https://github.com/mikedh/trimesh
v -0.04660826 0.00611300 0.01514672
v -0.04702613 0.00614601 0.01514672
v -0.04660826 0.00372949 0.01514672
v -0.04660826 0.00658867 0.01378574
v -0.04737646 0.00616931 0.01514672
v -0.05580874 0.00329394 0.01514672
v -0.04660826 0.00397606 0.01248334
v -0.04660826 0.00667539 0.01353337
v -0.05004403 0.00584119 0.01514672
v -0.04737646 0.00666762 0.01350032
v -0.04660826 0.00412944 0.01099166
v -0.05580874 0.00501800 0.01514672
v -0.05580874 0.00715817 -0.00019667
v -0.04660826 0.00587808 -0.00019667
v -0.04660826 0.00817034 0.00758168
v -0.05184972 0.00561145 0.01514672
v -0.05184972 0.00704169 0.00950148
v -0.04876248 0.00672587 0.01249085
v -0.05483249 0.00549755 0.01397501
v -0.05580874 0.00514160 0.01484328
v -0.05474694 0.00521473 0.01514672
v -0.05337983 0.00540565 0.01514672
v -0.04660826 0.00966465 0.00162999
v -0.04737646 0.00842015 0.00651963
v -0.04822483 0.00959670 0.00135810
v -0.05009086 0.00815805 0.00604193
v -0.05580874 0.00813928 0.00290986
v -0.05483249 0.00519985 0.01514672
v -0.05580874 0.00513902 0.01485079
v -0.05580874 0.00870167 -0.00019667
v -0.04660826 0.00982968 -0.00019667
v -0.05580874 0.00534999 0.01401407
v -0.04660826 0.00982968 0.00055442
v -0.04737646 0.00990540 0.00055442
v -0.04737646 0.00965624 0.00159544
v -0.04878049 0.00970542 0.00056344
v -0.05004493 0.00964265 0.00007222
v -0.05580874 0.00834443 0.00209117
v -0.05004493 0.00964265 -0.00019667
v -0.05580874 0.00870232 0.00003917
v -0.04681630 0.00985039 -0.00019667
v -0.04737646 0.00990475 -0.00019667
v -0.05580874 0.00870232 0.00055442
f 1 2 5
f 1 5 9
f 1 9 16
f 1 16 22
f 1 22 21
f 1 21 28
f 1 28 12
f 1 12 6
f 1 6 3
f 1 3 7
f 1 7 11
f 1 11 14
f 1 14 31
f 1 31 33
f 1 33 23
f 1 23 15
f 1 15 8
f 1 8 4
f 1 4 2
f 2 4 5
f 3 6 7
f 4 8 5
f 5 8 10
f 5 10 9
f 6 11 7
f 6 12 29
f 6 29 20
f 6 20 32
f 6 32 27
f 6 27 38
f 6 38 43
f 6 43 40
f 6 40 30
f 6 30 13
f 6 13 14
f 6 14 11
f 8 15 10
f 9 10 16
f 10 17 18
f 10 18 19
f 10 19 20
f 10 20 21
f 10 21 22
f 10 22 16
f 10 15 23
f 10 23 24
f 10 24 25
f 10 25 26
f 10 26 27
f 10 27 17
f 12 28 29
f 13 30 39
f 13 39 42
f 13 42 41
f 13 41 31
f 13 31 14
f 17 19 18
f 17 27 19
f 19 32 20
f 19 27 32
f 20 29 21
f 21 29 28
f 23 33 34
f 23 34 35
f 23 35 24
f 24 35 25
f 25 35 34
f 25 34 36
f 25 36 37
f 25 37 38
f 25 38 27
f 25 27 26
f 30 40 39
f 31 41 33
f 33 41 34
f 34 37 36
f 34 41 42
f 34 42 39
f 34 39 37
f 37 39 40
f 37 40 43
f 37 43 38

