# https://github.com/mikedh/trimesh
v 0.07140621 -0.02249580 0.02144893
v 0.07135971 -0.02249580 0.02292517
v 0.07124665 -0.02363555 0.02292517
v 0.07136288 -0.02281096 0.02036635
v 0.07140621 -0.02249580 0.02036635
v 0.07135865 -0.02249580 0.02293426
v 0.07122763 -0.02350018 0.02374279
v 0.06994165 -0.03292198 0.02292517
v 0.07015087 -0.03142987 0.02590795
v 0.06992368 -0.03305011 0.02036635
v 0.06980850 -0.02249580 0.02036635
v 0.07125087 -0.02249580 0.02376096
v 0.06974933 -0.03305011 0.02821997
v 0.06985711 -0.03305011 0.02749775
v 0.06992263 -0.03305011 0.02606238
v 0.06838199 -0.03305011 0.02036635
v 0.06980111 -0.02251336 0.02036635
v 0.06061221 -0.02249580 0.02577471
v 0.06606997 -0.02249580 0.03337245
v 0.06561771 -0.02397448 0.03448076
v 0.06972186 -0.03210049 0.02816849
v 0.06975039 -0.03292198 0.02821997
v 0.06525421 -0.02953373 0.03563753
v 0.06418485 -0.03096694 0.03577835
v 0.06969016 -0.03305011 0.02827448
v 0.06061221 -0.02486623 0.02659989
v 0.06061221 -0.02447047 0.02645302
v 0.06893991 -0.02844771 0.02036635
v 0.06061221 -0.03305011 0.02970682
v 0.06061221 -0.03286515 0.02961748
v 0.06061221 -0.03258098 0.02948424
v 0.06965740 -0.02291119 0.02036635
v 0.06061221 -0.02249580 0.02763553
v 0.06956335 -0.02357561 0.02036635
v 0.06912272 -0.02695767 0.02036635
v 0.06899169 -0.02802405 0.02036635
v 0.06551944 -0.02249580 0.03429756
v 0.06523202 -0.02766342 0.03560725
v 0.06525209 -0.02844771 0.03563299
v 0.06460118 -0.02999355 0.03580711
v 0.06319051 -0.02993879 0.03583285
v 0.06328667 -0.03096694 0.03577835
v 0.06061221 -0.03305011 0.03147679
v 0.06092922 -0.03305011 0.03138141
v 0.06598966 -0.03305011 0.02979312
v 0.06734855 -0.03305011 0.02933435
v 0.06744471 -0.03305011 0.02930104
v 0.06881628 -0.03305011 0.02876808
v 0.06061221 -0.02402511 0.02822906
v 0.06363432 -0.02249580 0.03422639
v 0.06550993 -0.02249580 0.03430059
v 0.06447861 -0.02397448 0.03479872
v 0.06447861 -0.02746502 0.03564965
v 0.06447861 -0.02844771 0.03577532
v 0.06344200 -0.02844771 0.03574201
v 0.06348744 -0.02397448 0.03442777
v 0.06061221 -0.03294058 0.03143743
v 0.06362164 -0.02742473 0.03565873
v 0.06447861 -0.02249580 0.03441566
f 1 2 3
f 1 3 4
f 1 4 5
f 1 5 11
f 1 11 18
f 1 18 33
f 1 33 50
f 1 50 59
f 1 59 51
f 1 51 37
f 1 37 19
f 1 19 12
f 1 12 6
f 1 6 2
f 2 6 7
f 2 7 3
f 3 8 4
f 3 7 9
f 3 9 8
f 4 10 16
f 4 16 28
f 4 28 36
f 4 36 35
f 4 35 34
f 4 34 32
f 4 32 17
f 4 17 11
f 4 11 5
f 4 8 10
f 6 12 7
f 7 12 13
f 7 13 14
f 7 14 9
f 8 9 15
f 8 15 10
f 9 14 15
f 10 15 14
f 10 14 13
f 10 13 25
f 10 25 48
f 10 48 47
f 10 47 46
f 10 46 45
f 10 45 44
f 10 44 43
f 10 43 29
f 10 29 16
f 11 17 18
f 12 19 20
f 12 20 21
f 12 21 22
f 12 22 13
f 13 22 23
f 13 23 24
f 13 24 25
f 16 26 27
f 16 27 18
f 16 18 28
f 16 29 30
f 16 30 31
f 16 31 26
f 17 32 18
f 18 32 34
f 18 34 35
f 18 35 36
f 18 36 28
f 18 27 26
f 18 26 31
f 18 31 30
f 18 30 29
f 18 29 43
f 18 43 57
f 18 57 49
f 18 49 33
f 19 37 20
f 20 37 38
f 20 38 22
f 20 22 21
f 22 38 39
f 22 39 23
f 23 39 40
f 23 40 24
f 24 40 41
f 24 41 42
f 24 42 43
f 24 43 44
f 24 44 45
f 24 45 46
f 24 46 47
f 24 47 48
f 24 48 25
f 33 49 50
f 37 51 38
f 38 52 53
f 38 53 54
f 38 54 39
f 38 51 52
f 39 54 40
f 40 54 41
f 41 54 55
f 41 55 50
f 41 50 56
f 41 56 43
f 41 43 42
f 43 56 50
f 43 50 57
f 49 57 50
f 50 55 58
f 50 58 59
f 51 59 52
f 52 59 58
f 52 58 53
f 53 58 54
f 54 58 55

