# https://github.com/mikedh/trimesh
v -0.07045366 -0.03362530 0.02769679
v -0.07045366 -0.03294306 0.02738203
v -0.06390348 -0.03362530 0.02995499
v -0.07045366 -0.03362530 0.02967361
v -0.07045366 -0.02980499 0.02620643
v -0.06390348 -0.02843733 0.02797102
v -0.06403749 -0.03258919 0.02948165
v -0.06390348 -0.03273265 0.02959134
v -0.06390348 -0.03362530 0.03172077
v -0.07012025 -0.03362530 0.02977853
v -0.06779858 -0.03106638 0.03584013
v -0.06792810 -0.02993888 0.03586875
v -0.06915850 -0.02546609 0.03439984
v -0.06924506 -0.02397410 0.03440461
v -0.06958552 -0.02276902 0.03336375
v -0.07045366 -0.03359661 0.02966288
v -0.07045366 -0.02276902 0.02384212
v -0.06686055 -0.02276902 0.02491875
v -0.06390348 -0.02386677 0.02626843
v -0.06390348 -0.02429821 0.02642223
v -0.06390348 -0.03225126 0.02940296
v -0.06390348 -0.03289205 0.03146204
v -0.06591547 -0.02993888 0.03575309
v -0.06590778 -0.03090592 0.03576979
v -0.06676437 -0.03113652 0.03590690
v -0.06468827 -0.03362530 0.03148350
v -0.06512235 -0.03362530 0.03134877
v -0.06676437 -0.02993888 0.03602255
v -0.06771779 -0.02844795 0.03569110
v -0.06825509 -0.02397410 0.03481715
v -0.06923800 -0.02276902 0.03433427
v -0.07045366 -0.02276902 0.02559121
v -0.07045366 -0.02586141 0.02676919
v -0.07045366 -0.02620146 0.02689677
v -0.06390348 -0.02276902 0.02589166
v -0.06390348 -0.03286230 0.03145131
v -0.06599177 -0.02907812 0.03563506
v -0.06390348 -0.02428015 0.02832870
v -0.06750108 -0.02769239 0.03560167
v -0.06751839 -0.02769239 0.03560167
v -0.06744915 -0.02276902 0.03443084
v -0.06825509 -0.02276902 0.03460015
v -0.06390348 -0.02276902 0.02771706
v -0.06722473 -0.02276902 0.03437481
v -0.06390348 -0.02352246 0.02803182
f 1 2 3
f 1 3 9
f 1 9 26
f 1 26 27
f 1 27 10
f 1 10 4
f 1 4 16
f 1 16 34
f 1 34 33
f 1 33 32
f 1 32 17
f 1 17 5
f 1 5 2
f 2 5 6
f 2 6 7
f 2 7 3
f 3 7 8
f 3 8 21
f 3 21 6
f 3 6 20
f 3 20 19
f 3 19 35
f 3 35 43
f 3 43 45
f 3 45 38
f 3 38 36
f 3 36 22
f 3 22 9
f 4 10 11
f 4 11 12
f 4 12 13
f 4 13 14
f 4 14 15
f 4 15 16
f 5 17 18
f 5 18 19
f 5 19 20
f 5 20 6
f 6 21 7
f 7 21 8
f 9 22 23
f 9 23 24
f 9 24 25
f 9 25 11
f 9 11 26
f 10 27 11
f 11 27 26
f 11 25 28
f 11 28 12
f 12 28 29
f 12 29 30
f 12 30 31
f 12 31 14
f 12 14 13
f 14 31 15
f 15 32 33
f 15 33 34
f 15 34 16
f 15 31 42
f 15 42 41
f 15 41 44
f 15 44 43
f 15 43 35
f 15 35 18
f 15 18 17
f 15 17 32
f 18 35 19
f 22 36 23
f 23 37 28
f 23 28 24
f 23 36 38
f 23 38 37
f 24 28 25
f 28 39 40
f 28 40 29
f 28 37 41
f 28 41 42
f 28 42 39
f 29 40 30
f 30 42 31
f 30 40 42
f 37 44 41
f 37 38 45
f 37 45 43
f 37 43 44
f 39 42 40

