# https://github.com/mikedh/trimesh
v 0.04392145 0.00591651 -0.01633148
v 0.04410769 0.00590111 -0.01633148
v 0.04392145 0.00549044 -0.01745428
v 0.04392145 0.00375537 -0.01633148
v 0.04725771 0.00554306 -0.01633148
v 0.04807328 0.00525816 -0.01690817
v 0.04658246 0.00536339 -0.01709285
v 0.04509080 0.00546862 -0.01725487
v 0.04392145 0.00512469 -0.01811141
v 0.04392145 0.00286987 -0.01734211
v 0.05260952 0.00291094 -0.01633148
v 0.04872642 0.00536852 -0.01633148
v 0.04928516 0.00517346 -0.01673936
v 0.04807328 0.00483594 -0.01765368
v 0.04430159 0.00509517 -0.01808195
v 0.05260952 0.00377077 -0.01826097
v 0.04807328 0.00409032 -0.01861333
v 0.04392145 0.00370789 -0.01968174
v 0.04392145 -0.00596074 -0.02790498
v 0.04517329 -0.00617762 -0.02790498
v 0.04885909 -0.00668326 -0.02790498
v 0.05260271 -0.00719274 -0.02790498
v 0.05260952 0.00466526 -0.01633148
v 0.05260952 -0.00660626 -0.02726711
v 0.05003099 0.00519399 -0.01633148
v 0.05027932 0.00509004 -0.01658074
v 0.05260952 0.00427256 -0.01734438
v 0.05260952 0.00235012 -0.01983016
v 0.04392145 0.00214094 -0.02141295
v 0.04392145 -0.00373929 -0.02790498
v 0.05260952 -0.00599924 -0.02790498
v 0.05116717 0.00497839 -0.01633148
v 0.05105577 0.00500021 -0.01633148
v 0.05114932 0.00498224 -0.01633148
v 0.05260952 0.00167509 -0.02057567
v 0.04392145 -0.00264974 -0.02670401
v 0.04392145 -0.00354166 -0.02768858
v 0.04443426 -0.00380987 -0.02790498
v 0.05260952 -0.00498797 -0.02790498
v 0.05260952 -0.00191183 -0.02453547
v 0.04658246 -0.00411274 -0.02790498
v 0.04658246 -0.00283711 -0.02649668
v 0.04509080 -0.00390227 -0.02790498
v 0.04992383 -0.00458757 -0.02790498
v 0.05260952 -0.00476852 -0.02766592
v 0.05260952 -0.00336327 -0.02613412
v 0.04928090 -0.00377394 -0.02710962
v 0.04796783 -0.00430909 -0.02790498
v 0.04620062 -0.00405884 -0.02790498
v 0.04966275 -0.00455036 -0.02790498
v 0.04833777 -0.00436171 -0.02790498
f 1 2 3
f 1 3 9
f 1 9 18
f 1 18 29
f 1 29 36
f 1 36 37
f 1 37 30
f 1 30 19
f 1 19 10
f 1 10 4
f 1 4 11
f 1 11 23
f 1 23 32
f 1 32 34
f 1 34 33
f 1 33 25
f 1 25 12
f 1 12 5
f 1 5 2
f 2 5 6
f 2 6 7
f 2 7 8
f 2 8 3
f 3 8 9
f 4 10 11
f 5 12 13
f 5 13 6
f 6 13 14
f 6 14 7
f 7 14 15
f 7 15 8
f 8 15 9
f 9 15 16
f 9 16 17
f 9 17 18
f 10 19 20
f 10 20 21
f 10 21 22
f 10 22 11
f 11 22 24
f 11 24 31
f 11 31 39
f 11 39 45
f 11 45 46
f 11 46 40
f 11 40 35
f 11 35 28
f 11 28 16
f 11 16 27
f 11 27 23
f 12 25 26
f 12 26 13
f 13 26 16
f 13 16 14
f 14 16 15
f 16 18 17
f 16 26 27
f 16 28 29
f 16 29 18
f 19 30 38
f 19 38 43
f 19 43 49
f 19 49 41
f 19 41 48
f 19 48 51
f 19 51 50
f 19 50 44
f 19 44 39
f 19 39 31
f 19 31 22
f 19 22 21
f 19 21 20
f 22 31 24
f 23 27 26
f 23 26 32
f 25 33 26
f 26 33 34
f 26 34 32
f 28 35 36
f 28 36 29
f 30 37 38
f 35 40 41
f 35 41 42
f 35 42 36
f 36 42 43
f 36 43 37
f 37 43 38
f 39 44 45
f 40 46 44
f 40 44 47
f 40 47 41
f 41 47 48
f 41 49 42
f 42 49 43
f 44 50 47
f 44 46 45
f 47 50 51
f 47 51 48

