# https://github.com/mikedh/trimesh
v 0.03981442 -0.05903504 0.00240442
v 0.03988400 -0.05903504 0.00240442
v 0.03981442 -0.05903504 0.00292460
v 0.03946509 -0.05841594 0.00196612
v 0.03940540 -0.05791315 -0.00242649
v 0.03943472 -0.05781747 -0.00391959
v 0.03959967 -0.05768239 -0.00508999
v 0.03992321 -0.05888495 0.00229846
v 0.03988400 -0.05903504 0.00292460
v 0.03999985 -0.05768239 -0.00508999
v 0.04007156 -0.05781747 -0.00391959
v 0.04038450 -0.05678375 -0.00391959
v 0.03976144 -0.05757921 0.01037566
v 0.03955940 -0.05771616 0.00950388
v 0.03940928 -0.05786249 0.00801078
v 0.03946509 -0.05836716 0.00346886
v 0.03940611 -0.05816454 0.00055490
v 0.03897978 -0.05678375 0.00801078
v 0.03897590 -0.05678375 0.00651768
v 0.03897590 -0.05678375 -0.00036504
v 0.03897625 -0.05678375 -0.00242649
v 0.03900556 -0.05678375 -0.00391959
v 0.03918429 -0.05529227 -0.00839408
v 0.03944567 -0.05655862 -0.00690098
v 0.03959508 -0.05626408 -0.00839408
v 0.03978369 -0.05609148 -0.00926586
v 0.04004542 -0.05841594 0.00196612
v 0.03992321 -0.05888495 0.00268859
v 0.03992073 -0.05888495 0.00304501
v 0.04039156 -0.05678375 0.00801078
v 0.04007932 -0.05786249 0.00801078
v 0.04001575 -0.05771616 0.00950388
v 0.03992533 -0.05757921 0.01037566
v 0.03994016 -0.05609148 -0.00926586
v 0.04007897 -0.05626408 -0.00839408
v 0.04049364 -0.05529227 -0.00839408
v 0.04059749 -0.05529227 -0.00690098
v 0.04039192 -0.05678375 -0.00242649
v 0.03967243 -0.05617778 0.01355934
v 0.03950712 -0.05637101 0.01248527
v 0.03912990 -0.05678375 0.00950388
v 0.03909669 -0.05529227 0.01248527
v 0.03903100 -0.05529227 0.01099217
v 0.03903065 -0.05529227 -0.00036504
v 0.03903065 -0.05529227 -0.00541270
v 0.03903524 -0.05529227 -0.00690098
v 0.03915462 -0.05380079 -0.00988719
v 0.03959719 -0.05486828 -0.01101905
v 0.03949017 -0.05533730 -0.00981012
v 0.04004542 -0.05836716 0.00346886
v 0.04039192 -0.05678375 -0.00036504
v 0.04164935 -0.04784050 0.01844323
v 0.04145296 -0.04923630 0.01695495
v 0.04059854 -0.05529227 0.01099217
v 0.04055687 -0.05529227 0.01248527
v 0.04032905 -0.05678375 0.00950388
v 0.04014184 -0.05637101 0.01248527
v 0.04002422 -0.05617778 0.01355934
v 0.04014714 -0.05486828 -0.01101905
v 0.04024428 -0.05533730 -0.00981012
v 0.04142223 -0.04879542 -0.01528162
v 0.04145261 -0.04906370 -0.01435686
v 0.04164864 -0.04783862 -0.01435686
v 0.04145261 -0.04923067 -0.01286376
v 0.04206791 -0.04485566 -0.01584996
v 0.04164935 -0.04784050 0.01248527
v 0.03982713 -0.05459249 0.01624693
v 0.03963322 -0.05488329 0.01546184
v 0.03942341 -0.05538607 0.01402172
v 0.03932769 -0.05379891 0.01546184
v 0.03915497 -0.05379891 0.01396874
v 0.03915427 -0.05379891 0.00651768
v 0.03915427 -0.05380079 -0.00839408
v 0.03915427 -0.05379891 -0.00036504
v 0.04083025 -0.04187270 -0.01883135
v 0.04104218 -0.04038122 -0.02032446
v 0.03937467 -0.05230931 -0.01137547
v 0.03976991 -0.05081783 -0.01387040
v 0.03963463 -0.05223614 -0.01286376
v 0.03947074 -0.05386082 -0.01145735
v 0.03968126 -0.05340494 -0.01236766
v 0.04206861 -0.04485566 0.01695495
v 0.04185880 -0.04634714 0.01993633
v 0.04145296 -0.04916501 0.01844323
v 0.04142223 -0.04892487 0.01955583
v 0.04029443 -0.05538607 0.01402172
v 0.04011606 -0.05488329 0.01546184
v 0.03992144 -0.05459249 0.01624693
v 0.04014644 -0.05340494 -0.01236766
v 0.04151301 -0.04581996 -0.01825819
v 0.04149111 -0.04736210 -0.01680844
v 0.04203117 -0.04485566 -0.01733825
v 0.04185739 -0.04634714 -0.01584996
v 0.04258183 -0.03987093 -0.02032446
v 0.04258253 -0.03987093 -0.01965015
v 0.04258430 -0.03987093 0.01315476
v 0.04206861 -0.04485566 0.01396874
v 0.04128837 -0.04271881 0.02523444
v 0.03985292 -0.05011055 0.01921387
v 0.03974413 -0.05186843 0.01789416
v 0.03968549 -0.05379891 0.01650702
v 0.03985292 -0.04969781 0.01921387
v 0.03936478 -0.05230743 0.01546184
v 0.04111176 -0.03987093 0.02492137
v 0.04106726 -0.04018611 -0.00036504
v 0.04111176 -0.03987093 -0.01883135
v 0.04111317 -0.03987093 -0.02032446
v 0.04123221 -0.03987093 -0.02180311
v 0.04129508 -0.03987093 -0.02239554
v 0.03962121 -0.05081783 -0.01286376
v 0.03980064 -0.05169020 -0.01370182
v 0.04128448 -0.04419528 -0.01964052
v 0.04258430 -0.03987093 0.01762443
v 0.04206791 -0.04485566 0.02142462
v 0.04168008 -0.04642406 0.02148242
v 0.04149217 -0.04751969 0.02102004
v 0.04156175 -0.04597943 0.02246979
v 0.04157129 -0.04438289 0.02387620
v 0.04147946 -0.04271881 0.02523444
v 0.04144448 -0.04419528 -0.01964052
v 0.04225828 -0.03987093 -0.02180792
v 0.04252178 -0.03987093 -0.02110472
v 0.04131804 -0.03987093 0.02680943
v 0.04128943 -0.03990470 0.02679016
v 0.03980912 -0.04945205 0.01844323
v 0.03957988 -0.05081595 0.01695495
v 0.04129013 -0.03987093 0.02679016
v 0.04123044 -0.03987093 0.02625553
v 0.04171469 -0.03987093 -0.02239554
v 0.04258253 -0.03987093 0.02441083
v 0.04240699 -0.03987093 0.02592801
v 0.04215020 -0.04336418 0.02292254
v 0.04176980 -0.04487067 0.02294662
v 0.04177580 -0.03987093 0.02680943
v 0.04199867 -0.03987093 -0.02211136
f 1 2 9
f 1 9 3
f 1 3 4
f 1 4 5
f 1 5 6
f 1 6 7
f 1 7 10
f 1 10 2
f 2 8 28
f 2 28 9
f 2 10 11
f 2 11 12
f 2 12 8
f 3 9 33
f 3 33 13
f 3 13 14
f 3 14 15
f 3 15 16
f 3 16 4
f 4 17 5
f 4 16 18
f 4 18 19
f 4 19 20
f 4 20 21
f 4 21 22
f 4 22 17
f 5 22 6
f 5 17 22
f 6 22 23
f 6 23 24
f 6 24 25
f 6 25 7
f 7 25 26
f 7 26 34
f 7 34 10
f 8 27 28
f 8 12 27
f 9 29 30
f 9 30 31
f 9 31 32
f 9 32 33
f 9 28 29
f 10 34 35
f 10 35 36
f 10 36 11
f 11 36 12
f 12 36 37
f 12 37 38
f 12 38 27
f 13 33 58
f 13 58 39
f 13 39 14
f 14 39 40
f 14 40 41
f 14 41 15
f 15 41 18
f 15 18 16
f 18 41 42
f 18 42 43
f 18 43 19
f 19 43 44
f 19 44 45
f 19 45 20
f 20 45 21
f 21 45 46
f 21 46 22
f 22 46 23
f 23 46 47
f 23 47 48
f 23 48 49
f 23 49 25
f 23 25 24
f 25 49 48
f 25 48 26
f 26 48 59
f 26 59 34
f 27 30 50
f 27 50 29
f 27 29 28
f 27 38 51
f 27 51 30
f 29 50 30
f 30 52 53
f 30 53 54
f 30 54 55
f 30 55 56
f 30 56 31
f 30 51 52
f 31 56 32
f 32 56 55
f 32 55 57
f 32 57 33
f 33 57 58
f 34 59 60
f 34 60 35
f 35 60 36
f 36 60 61
f 36 61 62
f 36 62 37
f 37 62 63
f 37 63 64
f 37 64 38
f 38 64 63
f 38 63 65
f 38 65 66
f 38 66 52
f 38 52 51
f 39 58 88
f 39 88 67
f 39 67 68
f 39 68 69
f 39 69 40
f 40 69 42
f 40 42 41
f 42 69 70
f 42 70 71
f 42 71 43
f 43 71 72
f 43 72 44
f 44 72 74
f 44 74 45
f 45 73 47
f 45 47 46
f 45 74 73
f 47 75 76
f 47 76 77
f 47 77 78
f 47 78 79
f 47 79 80
f 47 80 48
f 47 73 75
f 48 80 81
f 48 81 89
f 48 89 59
f 52 82 83
f 52 83 84
f 52 84 54
f 52 54 53
f 52 66 97
f 52 97 82
f 54 84 55
f 55 84 85
f 55 85 86
f 55 86 57
f 57 86 58
f 58 86 87
f 58 87 88
f 59 89 90
f 59 90 91
f 59 91 61
f 59 61 60
f 61 91 92
f 61 92 62
f 62 92 93
f 62 93 63
f 63 93 65
f 65 93 92
f 65 92 94
f 65 94 95
f 65 95 96
f 65 96 97
f 65 97 66
f 67 88 119
f 67 119 98
f 67 98 99
f 67 99 100
f 67 100 101
f 67 101 68
f 68 101 70
f 68 70 69
f 70 101 100
f 70 100 99
f 70 99 102
f 70 102 71
f 71 102 103
f 71 103 104
f 71 104 72
f 72 104 105
f 72 105 74
f 73 74 75
f 74 105 75
f 75 106 107
f 75 107 76
f 75 105 106
f 76 107 108
f 76 108 109
f 76 109 110
f 76 110 77
f 77 110 78
f 78 111 79
f 78 110 109
f 78 109 111
f 79 111 80
f 80 111 81
f 81 111 112
f 81 112 120
f 81 120 89
f 82 113 114
f 82 114 83
f 82 97 96
f 82 96 113
f 83 114 84
f 84 114 85
f 85 114 115
f 85 115 116
f 85 116 88
f 85 88 87
f 85 87 86
f 88 116 117
f 88 117 118
f 88 118 119
f 89 120 90
f 90 120 121
f 90 121 122
f 90 122 91
f 91 122 92
f 92 122 94
f 94 122 121
f 94 121 135
f 94 135 129
f 94 129 109
f 94 109 108
f 94 108 107
f 94 107 106
f 94 106 104
f 94 104 128
f 94 128 127
f 94 127 123
f 94 123 134
f 94 134 131
f 94 131 130
f 94 130 113
f 94 113 96
f 94 96 95
f 98 119 134
f 98 134 123
f 98 123 124
f 98 124 99
f 99 124 102
f 102 125 126
f 102 126 103
f 102 124 127
f 102 127 128
f 102 128 104
f 102 104 125
f 103 126 104
f 104 106 105
f 104 126 125
f 109 129 120
f 109 120 112
f 109 112 111
f 113 130 114
f 114 130 131
f 114 131 132
f 114 132 115
f 115 132 133
f 115 133 116
f 116 133 117
f 117 133 131
f 117 131 118
f 118 131 119
f 119 131 134
f 120 129 135
f 120 135 121
f 123 127 124
f 131 133 132

