# https://github.com/mikedh/trimesh
v 0.06061221 -0.06828703 -0.00066354
v 0.06294698 -0.06813184 -0.00066354
v 0.06061221 -0.06673511 -0.00066354
v 0.06061221 -0.06828543 -0.00097492
v 0.06297585 -0.06812864 -0.00066354
v 0.06061221 -0.06657511 -0.00095636
v 0.06561159 -0.05194384 -0.00066354
v 0.06061221 -0.06799905 -0.00175851
v 0.06087842 -0.06798465 -0.00172139
v 0.06142358 -0.06817664 -0.00102234
v 0.06298711 -0.06812704 -0.00066354
v 0.06311532 -0.06677990 -0.00406598
v 0.06369865 -0.06647112 -0.00465779
v 0.06061221 -0.06636073 -0.00139764
v 0.06561159 -0.06373206 -0.00066354
v 0.06561159 -0.05194224 -0.00690546
v 0.06061221 -0.05755476 -0.02172977
v 0.06061221 -0.06665191 -0.00509908
v 0.06061221 -0.06500399 -0.00918406
v 0.06298711 -0.06516718 -0.00809941
v 0.06370599 -0.06798465 -0.00066354
v 0.06447821 -0.06208574 -0.01530845
v 0.06516381 -0.06494799 -0.00757976
v 0.06525875 -0.06202974 -0.01516822
v 0.06533020 -0.06573196 -0.00066354
v 0.06561159 -0.06373206 -0.00443097
v 0.06561159 -0.05242382 -0.02172977
v 0.06061221 -0.05983625 -0.02172977
v 0.06061221 -0.06082180 -0.01954396
v 0.06255157 -0.06054821 -0.01966769
v 0.06418655 -0.06769026 -0.00066354
v 0.06302381 -0.06078340 -0.01895008
v 0.06447821 -0.06073701 -0.01864696
v 0.06529399 -0.06509039 -0.00658584
v 0.06519318 -0.06640552 -0.00269882
v 0.06532384 -0.06359766 -0.01091415
v 0.06538892 -0.06063461 -0.01838920
v 0.06539969 -0.06218493 -0.01435989
v 0.06522450 -0.06648072 -0.00066354
v 0.06533020 -0.06573196 -0.00093986
v 0.06561159 -0.06373046 -0.00592391
v 0.06561159 -0.05861871 -0.02172977
v 0.06067436 -0.05982985 -0.02172977
v 0.06061221 -0.06066021 -0.01994401
v 0.06158067 -0.05973065 -0.02172977
v 0.06447821 -0.05939147 -0.02165553
v 0.06447821 -0.05999144 -0.02032549
v 0.06522450 -0.06647912 -0.00170489
v 0.06522450 -0.06648072 -0.00093986
v 0.06540409 -0.06374166 -0.00988723
v 0.06561159 -0.06210974 -0.01328761
v 0.06561159 -0.06308889 -0.00988723
v 0.06561159 -0.06322648 -0.00932428
v 0.06555482 -0.06083620 -0.01734166
v 0.06561159 -0.06070981 -0.01734166
v 0.06553133 -0.06244412 -0.01286900
v 0.06551078 -0.05923948 -0.02139159
v 0.06561159 -0.05938667 -0.02071316
v 0.06561159 -0.06345687 -0.00779010
v 0.06553965 -0.06424083 -0.00541252
v 0.06516577 -0.05908589 -0.02172977
v 0.06561159 -0.05884590 -0.02157924
v 0.06149600 -0.05974025 -0.02172977
v 0.06411804 -0.05940107 -0.02172977
v 0.06440530 -0.05935627 -0.02172977
v 0.06447821 -0.05933067 -0.02172977
f 1 2 5
f 1 5 11
f 1 11 21
f 1 21 31
f 1 31 39
f 1 39 25
f 1 25 15
f 1 15 7
f 1 7 3
f 1 3 6
f 1 6 14
f 1 14 17
f 1 17 28
f 1 28 44
f 1 44 29
f 1 29 19
f 1 19 18
f 1 18 8
f 1 8 4
f 1 4 2
f 2 4 5
f 3 7 6
f 4 8 9
f 4 9 10
f 4 10 5
f 5 10 9
f 5 9 12
f 5 12 13
f 5 13 11
f 6 7 14
f 7 15 26
f 7 26 41
f 7 41 59
f 7 59 53
f 7 53 52
f 7 52 51
f 7 51 55
f 7 55 58
f 7 58 62
f 7 62 42
f 7 42 27
f 7 27 16
f 7 16 17
f 7 17 14
f 8 18 9
f 9 18 19
f 9 19 20
f 9 20 12
f 11 13 21
f 12 20 22
f 12 22 13
f 13 23 21
f 13 22 24
f 13 24 23
f 15 25 40
f 15 40 26
f 16 27 17
f 17 27 42
f 17 42 61
f 17 61 66
f 17 66 65
f 17 65 64
f 17 64 45
f 17 45 63
f 17 63 43
f 17 43 28
f 19 29 30
f 19 30 22
f 19 22 20
f 21 23 31
f 22 30 32
f 22 32 33
f 22 33 24
f 23 34 35
f 23 35 31
f 23 24 36
f 23 36 34
f 24 33 37
f 24 37 38
f 24 38 36
f 25 39 49
f 25 49 40
f 26 40 41
f 28 43 44
f 29 44 30
f 30 33 32
f 30 44 45
f 30 45 46
f 30 46 47
f 30 47 33
f 31 48 49
f 31 49 39
f 31 35 48
f 33 47 37
f 34 36 50
f 34 50 51
f 34 51 52
f 34 52 53
f 34 53 35
f 35 53 48
f 36 38 54
f 36 54 55
f 36 55 56
f 36 56 51
f 36 51 50
f 37 47 46
f 37 46 57
f 37 57 58
f 37 58 54
f 37 54 38
f 40 49 41
f 41 49 60
f 41 60 59
f 42 62 57
f 42 57 61
f 43 63 44
f 44 63 45
f 45 64 46
f 46 64 65
f 46 65 66
f 46 66 61
f 46 61 57
f 48 60 49
f 48 53 60
f 51 56 55
f 53 59 60
f 54 58 55
f 57 62 58

