# https://github.com/mikedh/trimesh
v 0.05017665 -0.07704343 0.00055377
v 0.04997413 -0.07617227 0.00055377
v 0.04997413 -0.07617227 -0.00036876
v 0.05009925 -0.07670962 -0.00036876
v 0.05017665 -0.07704139 -0.00036876
v 0.05053036 -0.07704343 0.00055377
v 0.05027804 -0.07694369 0.00140867
v 0.05021664 -0.07553316 0.00625128
v 0.05013950 -0.07565121 0.00502845
v 0.05001051 -0.07468032 0.00353779
v 0.05000973 -0.07468032 0.00204714
v 0.05023728 -0.07404935 0.01099379
v 0.05004172 -0.07468032 0.00502845
v 0.05000973 -0.07468032 -0.00036876
v 0.05053036 -0.07704139 -0.00036876
v 0.05037144 -0.07694369 0.00140867
v 0.05099861 -0.07617227 -0.00036876
v 0.05099887 -0.07617227 0.00055377
v 0.05163043 -0.07380510 0.01099379
v 0.05186082 -0.07254519 0.01636666
v 0.05027778 -0.07397608 0.01194338
v 0.05023728 -0.07326165 0.01099379
v 0.05021277 -0.07323926 0.00950313
v 0.05021251 -0.07323926 0.00801248
v 0.05179632 -0.06196925 0.02590579
v 0.05021251 -0.07323926 -0.00036876
v 0.05179632 -0.06196925 0.02441513
v 0.05147719 -0.06424279 0.01397511
v 0.05064620 -0.07397608 0.01194338
v 0.05170138 -0.07382749 -0.00036876
v 0.05170138 -0.07382749 0.00801248
v 0.05170112 -0.07382749 0.00950313
v 0.05189100 -0.07263271 0.01546577
v 0.05193099 -0.07119776 0.01803046
v 0.05185979 -0.06801439 0.02222919
v 0.05138586 -0.07254519 0.01636666
v 0.05208527 -0.07169643 0.01546577
v 0.05229528 -0.07020651 0.01695643
v 0.05250477 -0.06871457 0.01844979
v 0.05247561 -0.06722262 0.02143111
v 0.05224446 -0.06885297 0.02007301
v 0.05117457 -0.07169643 0.01689961
v 0.05067096 -0.07169643 0.01546577
v 0.05176846 -0.06355279 0.02670928
v 0.05137090 -0.06573474 0.02292177
v 0.05106698 -0.06722262 0.01994045
v 0.05027778 -0.07350183 0.01194338
v 0.05126770 -0.06573474 0.02143111
v 0.05147693 -0.06424279 0.02292177
v 0.05179813 -0.06198146 0.02674446
v 0.05260952 -0.05627216 0.02726929
v 0.05260952 -0.05625181 0.02644145
v 0.05126873 -0.06573474 0.00950313
v 0.05106724 -0.06722262 0.00651911
v 0.05111342 -0.06722262 0.00502845
v 0.05094598 -0.06871457 0.00204714
v 0.05108298 -0.06871457 -0.00036876
v 0.05260952 -0.05625181 0.02590579
v 0.05179658 -0.06197128 0.01994045
v 0.05168694 -0.06275084 0.01695643
v 0.05168668 -0.06275084 0.01994045
v 0.05260952 -0.07040802 -0.00036876
v 0.05260952 -0.07041005 0.00045367
v 0.05189100 -0.07305811 0.01099379
v 0.05189100 -0.07292581 0.01248445
v 0.05200091 -0.06983200 0.01966721
v 0.05260952 -0.06376651 0.02585168
v 0.05192429 -0.06656315 0.02376043
v 0.05174885 -0.06801439 0.02222919
v 0.05204735 -0.06836244 0.02143111
v 0.05260952 -0.06263889 0.02726929
v 0.05260952 -0.07040395 0.00076209
v 0.05260952 -0.06732439 0.01994857
v 0.05260952 -0.06722262 0.02017041
v 0.05155433 -0.06836244 0.02143111
v 0.05172641 -0.06656315 0.02376043
v 0.05173595 -0.06507730 0.02525650
v 0.05205793 -0.06355279 0.02670928
v 0.05250554 -0.06267350 0.02726929
v 0.05206386 -0.06148279 0.02726929
v 0.05177414 -0.06275084 0.02676339
v 0.05206618 -0.06143190 0.02726929
v 0.05254398 -0.05678508 0.02726929
v 0.05126950 -0.06835227 -0.00036876
v 0.05260952 -0.06746483 -0.00036876
v 0.05258552 -0.06746687 -0.00036876
v 0.05254708 -0.06747094 -0.00036876
v 0.05157136 -0.06776810 -0.00036876
v 0.05197898 -0.06507730 0.02525650
v 0.05252438 -0.06267350 0.02726929
f 1 2 3
f 1 3 4
f 1 4 5
f 1 5 15
f 1 15 6
f 1 6 16
f 1 16 7
f 1 7 8
f 1 8 9
f 1 9 2
f 2 10 11
f 2 11 14
f 2 14 3
f 2 9 12
f 2 12 13
f 2 13 10
f 3 14 26
f 3 26 57
f 3 57 84
f 3 84 88
f 3 88 87
f 3 87 86
f 3 86 85
f 3 85 62
f 3 62 30
f 3 30 17
f 3 17 15
f 3 15 5
f 3 5 4
f 6 15 17
f 6 17 18
f 6 18 19
f 6 19 20
f 6 20 16
f 7 16 29
f 7 29 21
f 7 21 8
f 8 21 9
f 9 21 12
f 10 13 22
f 10 22 23
f 10 23 11
f 11 23 24
f 11 24 25
f 11 25 27
f 11 27 14
f 12 22 13
f 12 21 47
f 12 47 22
f 14 27 28
f 14 28 26
f 16 20 29
f 17 30 18
f 18 30 31
f 18 31 32
f 18 32 19
f 19 32 33
f 19 33 20
f 20 34 35
f 20 35 69
f 20 69 36
f 20 36 21
f 20 21 29
f 20 33 37
f 20 37 38
f 20 38 39
f 20 39 40
f 20 40 41
f 20 41 34
f 21 36 42
f 21 42 43
f 21 43 44
f 21 44 45
f 21 45 46
f 21 46 47
f 22 47 46
f 22 46 23
f 23 46 48
f 23 48 49
f 23 49 25
f 23 25 24
f 25 50 51
f 25 51 52
f 25 52 58
f 25 58 27
f 25 49 48
f 25 48 50
f 26 53 54
f 26 54 55
f 26 55 56
f 26 56 57
f 26 28 53
f 27 58 59
f 27 59 60
f 27 60 61
f 27 61 28
f 28 61 60
f 28 60 53
f 30 62 63
f 30 63 31
f 31 63 32
f 32 64 65
f 32 65 33
f 32 63 64
f 33 65 37
f 34 66 35
f 34 41 67
f 34 67 66
f 35 68 76
f 35 76 69
f 35 66 70
f 35 70 71
f 35 71 68
f 36 69 42
f 37 65 72
f 37 72 38
f 38 72 39
f 39 73 74
f 39 74 40
f 39 72 73
f 40 74 67
f 40 67 41
f 42 69 75
f 42 75 43
f 43 75 76
f 43 76 77
f 43 77 44
f 44 77 89
f 44 89 78
f 44 78 90
f 44 90 79
f 44 79 80
f 44 80 81
f 44 81 45
f 45 81 46
f 46 81 50
f 46 50 48
f 50 81 80
f 50 80 82
f 50 82 83
f 50 83 51
f 51 83 82
f 51 82 80
f 51 80 79
f 51 79 90
f 51 90 71
f 51 71 67
f 51 67 74
f 51 74 73
f 51 73 72
f 51 72 63
f 51 63 62
f 51 62 85
f 51 85 58
f 51 58 52
f 53 60 58
f 53 58 54
f 54 58 55
f 55 57 56
f 55 58 57
f 57 58 84
f 58 85 86
f 58 86 87
f 58 87 88
f 58 88 84
f 58 60 59
f 63 72 64
f 64 72 65
f 66 67 70
f 67 71 70
f 68 71 89
f 68 89 77
f 68 77 76
f 69 76 75
f 71 90 78
f 71 78 89

