# https://github.com/mikedh/trimesh
v -0.05781550 -0.00817182 0.02830167
v -0.05580845 -0.00817182 0.02847980
v -0.05904743 -0.00817182 0.02880193
v -0.06011954 -0.00243759 0.02206999
v -0.05865055 -0.00535875 0.02513090
v -0.05580845 0.00329243 0.01514952
v -0.04660959 0.00329243 0.01552212
v -0.04660959 -0.00707410 0.02841449
v -0.05580845 -0.00817182 0.03031457
v -0.05892890 -0.00817182 0.02971189
v -0.06006760 -0.00259200 0.02369248
v -0.06011421 -0.00259902 0.02292354
v -0.06019679 -0.00156728 0.02151777
v -0.06019945 -0.00115739 0.02068946
v -0.05994640 -0.00128092 0.02068946
v -0.05930580 -0.00138900 0.02068946
v -0.05580845 0.00501621 0.01514952
v -0.04660959 0.00372899 0.01514952
v -0.06021410 -0.00019162 0.02068946
v -0.04660959 -0.00445755 0.02841449
v -0.05580845 -0.00749522 0.03001768
v -0.05781550 -0.00774368 0.03002511
v -0.05781550 -0.00817182 0.03021214
v -0.05886763 -0.00817182 0.02992565
v -0.06006760 -0.00232669 0.02369248
v -0.06011688 -0.00173853 0.02279439
v -0.05483223 0.00519729 0.01514952
v -0.06005828 0.00063236 0.02068946
v -0.06005295 0.00064219 0.02068946
v -0.05580845 0.00447717 0.01658349
v -0.05392526 0.00503586 0.01612332
v -0.04660959 0.00611111 0.01514952
v -0.06015950 -0.00024497 0.02128769
v -0.04660959 -0.00425963 0.02819776
v -0.04677074 -0.00447861 0.02841449
v -0.05580845 -0.00683968 0.02961688
v -0.05580845 -0.00706428 0.02976236
v -0.05580845 -0.00727484 0.02989447
v -0.05781550 -0.00699690 0.02945953
v -0.05884499 -0.00796828 0.02988260
v -0.06007692 -0.00083032 0.02221101
v -0.05889427 -0.00650980 0.02848574
v -0.05474566 0.00521273 0.01514952
v -0.05293173 0.00515377 0.01631778
v -0.06005695 0.00063657 0.02069391
v -0.05930580 0.00069413 0.02075626
v -0.05930447 0.00075449 0.02068946
v -0.05580845 0.00378373 0.01789277
v -0.05580845 0.00398306 0.01754244
v -0.05580845 0.00430030 0.01695906
v -0.05781550 -0.00630626 0.02871286
v -0.05781550 -0.00488148 0.02714677
v -0.04702645 0.00614480 0.01514952
v -0.04660959 0.00602127 0.01546868
v -0.04660959 -0.00192382 0.02562819
v -0.04737671 -0.00455862 0.02841449
v -0.04886835 -0.00476637 0.02841449
v -0.05185029 -0.00513555 0.02835808
v -0.05425955 -0.00530541 0.02816955
v -0.05338055 0.00540363 0.01514952
v -0.05339387 0.00530116 0.01556368
v -0.05185029 0.00554120 0.01546868
v -0.05185029 0.00480845 0.01721735
v -0.05185029 0.00523098 0.01647216
v -0.05035998 0.00573491 0.01546868
v -0.05781550 0.00096785 0.02068946
v -0.05781550 -0.00413610 0.02632439
v -0.04695986 0.00515237 0.01775769
v -0.05035998 0.00490250 0.01740884
v -0.05580845 0.00125141 0.02068946
v -0.04886835 0.00217787 0.02074735
v -0.04737671 0.00616726 0.01514952
v -0.04737671 0.00608164 0.01546868
v -0.04660959 0.00548365 0.01701992
v -0.05185029 -0.00371358 0.02678902
v -0.04886835 -0.00417961 0.02776727
v -0.04660959 -0.00117845 0.02480433
v -0.05185029 -0.00438877 0.02753421
v -0.05185029 0.00560998 0.01514952
v -0.05035998 0.00533485 0.01666365
v -0.05004434 0.00583879 0.01514952
v -0.05580845 0.00026739 0.02177607
v -0.04660959 0.00515096 0.01775620
v -0.04742333 0.00547101 0.01708969
v -0.04886835 0.00544153 0.01683288
v -0.04660959 0.00091451 0.02249008
v -0.04660959 0.00165989 0.02166325
v -0.04660959 0.00232947 0.02091806
f 1 2 9
f 1 9 23
f 1 23 24
f 1 24 10
f 1 10 3
f 1 3 4
f 1 4 5
f 1 5 6
f 1 6 7
f 1 7 2
f 2 8 9
f 2 7 8
f 3 10 11
f 3 11 12
f 3 12 4
f 4 12 13
f 4 13 14
f 4 14 15
f 4 15 5
f 5 15 16
f 5 16 6
f 6 17 27
f 6 27 43
f 6 43 60
f 6 60 79
f 6 79 81
f 6 81 72
f 6 72 53
f 6 53 32
f 6 32 18
f 6 18 7
f 6 16 15
f 6 15 14
f 6 14 19
f 6 19 17
f 7 18 32
f 7 32 54
f 7 54 74
f 7 74 83
f 7 83 88
f 7 88 87
f 7 87 86
f 7 86 77
f 7 77 55
f 7 55 34
f 7 34 20
f 7 20 8
f 8 20 9
f 9 21 22
f 9 22 23
f 9 20 21
f 10 24 25
f 10 25 11
f 11 25 12
f 12 25 13
f 13 19 14
f 13 25 26
f 13 26 19
f 17 19 28
f 17 28 29
f 17 29 30
f 17 30 31
f 17 31 27
f 19 26 33
f 19 33 28
f 20 34 35
f 20 35 36
f 20 36 37
f 20 37 38
f 20 38 21
f 21 38 22
f 22 38 37
f 22 37 36
f 22 36 39
f 22 39 40
f 22 40 23
f 23 40 24
f 24 40 25
f 25 41 33
f 25 33 26
f 25 40 42
f 25 42 41
f 27 31 44
f 27 44 43
f 28 33 45
f 28 45 29
f 29 46 47
f 29 47 48
f 29 48 49
f 29 49 50
f 29 50 30
f 29 45 39
f 29 39 51
f 29 51 52
f 29 52 46
f 30 50 44
f 30 44 31
f 32 53 54
f 33 41 45
f 34 55 56
f 34 56 35
f 35 56 36
f 36 51 39
f 36 56 57
f 36 57 58
f 36 58 59
f 36 59 52
f 36 52 51
f 39 45 41
f 39 41 42
f 39 42 40
f 43 44 61
f 43 61 62
f 43 62 60
f 44 50 49
f 44 49 48
f 44 48 63
f 44 63 64
f 44 64 65
f 44 65 62
f 44 62 61
f 46 66 48
f 46 48 47
f 46 52 67
f 46 67 66
f 48 68 69
f 48 69 63
f 48 66 70
f 48 70 71
f 48 71 68
f 52 59 67
f 53 72 73
f 53 73 54
f 54 73 74
f 55 75 76
f 55 76 57
f 55 57 56
f 55 77 68
f 55 68 71
f 55 71 75
f 57 76 58
f 58 76 78
f 58 78 59
f 59 78 67
f 60 62 79
f 62 65 79
f 63 80 64
f 63 69 80
f 64 73 65
f 64 80 73
f 65 72 81
f 65 81 79
f 65 73 72
f 66 67 75
f 66 75 82
f 66 82 70
f 67 78 75
f 68 83 84
f 68 84 85
f 68 85 69
f 68 77 86
f 68 86 87
f 68 87 88
f 68 88 83
f 69 85 80
f 70 82 75
f 70 75 71
f 73 80 85
f 73 85 84
f 73 84 74
f 74 84 83
f 75 78 76

