# https://github.com/mikedh/trimesh
v 0.05260952 -0.07040886 0.00026573
v 0.06061143 -0.06828628 0.00026573
v 0.05260952 -0.07040886 0.00045194
v 0.05260952 -0.06746455 0.00026573
v 0.06061143 -0.06674158 0.00026573
v 0.06061143 -0.06828628 0.00058868
v 0.05260952 -0.07040521 0.00076034
v 0.05853790 -0.06679401 0.00026573
v 0.05260952 -0.05795499 0.02402472
v 0.05282572 -0.05795499 0.02323624
v 0.05288918 -0.05795499 0.02308786
v 0.05403913 -0.05795499 0.02250305
v 0.05408143 -0.05795499 0.02249141
v 0.06061143 -0.06636120 0.00101347
v 0.06061143 -0.06810096 0.00109785
v 0.05260952 -0.06732557 0.01994851
v 0.05708636 -0.05795499 0.02168548
v 0.05851205 -0.05795499 0.02142071
v 0.06061143 -0.05795499 0.02107739
v 0.05260952 -0.05795499 0.02890395
v 0.06061143 -0.06799977 0.00137425
v 0.06061143 -0.06066156 0.01955863
v 0.06061143 -0.05979716 0.02143235
v 0.05260952 -0.06722316 0.02016963
v 0.06061143 -0.06665259 0.00471436
v 0.06061143 -0.06365707 0.01213940
v 0.06061143 -0.05795499 0.02315478
v 0.05260952 -0.05795621 0.02916872
v 0.05261030 -0.05795499 0.02916872
v 0.06061143 -0.05928876 0.02244777
v 0.05334038 -0.06208677 0.02821731
v 0.05260952 -0.06376558 0.02585189
v 0.06061143 -0.05827685 0.02301221
v 0.05360359 -0.05795499 0.02998920
v 0.05357617 -0.05827685 0.02993101
v 0.05340931 -0.05928876 0.02973898
v 0.05260952 -0.05827685 0.02909598
v 0.05294479 -0.05795499 0.02998920
v 0.05267610 -0.05795499 0.02933165
v 0.05291581 -0.06208677 0.02821731
v 0.05260952 -0.06252446 0.02750739
v 0.05295106 -0.05827685 0.02993101
v 0.05311478 -0.05928876 0.02973898
v 0.05260952 -0.06129065 0.02815912
v 0.05276932 -0.06125895 0.02841806
f 1 2 6
f 1 6 3
f 1 3 7
f 1 7 16
f 1 16 24
f 1 24 32
f 1 32 41
f 1 41 44
f 1 44 37
f 1 37 28
f 1 28 20
f 1 20 9
f 1 9 4
f 1 4 8
f 1 8 5
f 1 5 2
f 2 5 14
f 2 14 19
f 2 19 27
f 2 27 33
f 2 33 30
f 2 30 23
f 2 23 22
f 2 22 26
f 2 26 25
f 2 25 21
f 2 21 15
f 2 15 6
f 3 6 7
f 4 9 10
f 4 10 11
f 4 11 12
f 4 12 13
f 4 13 8
f 5 8 14
f 6 15 16
f 6 16 7
f 8 13 17
f 8 17 18
f 8 18 19
f 8 19 14
f 9 20 29
f 9 29 39
f 9 39 38
f 9 38 34
f 9 34 27
f 9 27 19
f 9 19 18
f 9 18 17
f 9 17 13
f 9 13 12
f 9 12 11
f 9 11 10
f 15 21 16
f 16 22 23
f 16 23 24
f 16 21 25
f 16 25 26
f 16 26 22
f 20 28 29
f 23 30 24
f 24 30 31
f 24 31 32
f 27 34 35
f 27 35 36
f 27 36 33
f 28 37 38
f 28 38 39
f 28 39 29
f 30 33 36
f 30 36 31
f 31 36 43
f 31 43 40
f 31 40 32
f 32 40 41
f 34 38 42
f 34 42 35
f 35 42 43
f 35 43 36
f 37 42 38
f 37 44 42
f 40 43 45
f 40 45 44
f 40 44 41
f 42 44 45
f 42 45 43

