# https://github.com/mikedh/trimesh
v -0.06061982 -0.01237438 -0.02901601
v -0.05580920 -0.01237438 -0.03073213
v -0.06061982 -0.01237438 -0.03033337
v -0.06061982 -0.02713127 -0.02944430
v -0.05580920 -0.01237438 -0.03232862
v -0.06004293 -0.02922835 -0.03000994
v -0.05580920 -0.03164038 -0.03413261
v -0.05878270 -0.01237438 -0.03175190
v -0.06061982 -0.01244982 -0.03036439
v -0.06061982 -0.02844761 -0.02965106
v -0.05594813 -0.01237438 -0.03232419
v -0.05580920 -0.01417349 -0.03304194
v -0.06061982 -0.02962061 -0.02991542
v -0.06061982 -0.03164038 -0.03071588
v -0.05981546 -0.03164038 -0.03119586
v -0.05580920 -0.03164038 -0.03627850
v -0.06061982 -0.02099278 -0.03342667
v -0.06061982 -0.02001968 -0.03307813
v -0.05853357 -0.01237438 -0.03189073
v -0.06061982 -0.02450615 -0.03467314
v -0.06061982 -0.02435339 -0.03462072
v -0.05632441 -0.01237438 -0.03231164
v -0.05580920 -0.01449221 -0.03315862
v -0.05632441 -0.01420933 -0.03302865
v -0.06061982 -0.03164038 -0.03625782
v -0.05581344 -0.03164038 -0.03633905
v -0.05580920 -0.03142916 -0.03634939
v -0.05778808 -0.01237438 -0.03215140
v -0.05715702 -0.01861471 -0.03454539
v -0.05711700 -0.02307666 -0.03602964
v -0.06061982 -0.02546417 -0.03495596
v -0.05746737 -0.01237438 -0.03219644
v -0.05709204 -0.01426779 -0.03300724
v -0.05580920 -0.01502591 -0.03335356
v -0.05632441 -0.01502591 -0.03332698
v -0.06049314 -0.03164038 -0.03655984
v -0.06061982 -0.03108593 -0.03621204
v -0.05966806 -0.03164038 -0.03655984
v -0.05580920 -0.02597901 -0.03651036
v -0.05632441 -0.01950106 -0.03495744
v -0.05632441 -0.02285979 -0.03611087
v -0.05632441 -0.02397245 -0.03633019
v -0.06040319 -0.02993933 -0.03618398
v -0.05632441 -0.01849212 -0.03459044
v -0.05580920 -0.01845441 -0.03460373
v -0.05580920 -0.02448918 -0.03645794
v -0.05580920 -0.02546417 -0.03650077
v -0.05580920 -0.01950106 -0.03498402
v -0.05580920 -0.02279378 -0.03613819
v -0.05580920 -0.02324450 -0.03625708
v -0.05580920 -0.02397245 -0.03640034
f 1 2 5
f 1 5 11
f 1 11 22
f 1 22 32
f 1 32 28
f 1 28 19
f 1 19 8
f 1 8 3
f 1 3 9
f 1 9 18
f 1 18 17
f 1 17 21
f 1 21 20
f 1 20 31
f 1 31 37
f 1 37 25
f 1 25 14
f 1 14 13
f 1 13 10
f 1 10 4
f 1 4 2
f 2 4 6
f 2 6 7
f 2 7 16
f 2 16 27
f 2 27 39
f 2 39 47
f 2 47 46
f 2 46 51
f 2 51 50
f 2 50 49
f 2 49 48
f 2 48 45
f 2 45 34
f 2 34 23
f 2 23 12
f 2 12 5
f 3 8 9
f 4 10 6
f 5 12 11
f 6 10 13
f 6 13 14
f 6 14 15
f 6 15 7
f 7 15 14
f 7 14 25
f 7 25 36
f 7 36 38
f 7 38 26
f 7 26 16
f 8 17 18
f 8 18 9
f 8 19 20
f 8 20 21
f 8 21 17
f 11 12 22
f 12 23 24
f 12 24 22
f 16 26 27
f 19 28 29
f 19 29 30
f 19 30 20
f 20 30 31
f 22 24 33
f 22 33 32
f 23 34 35
f 23 35 24
f 24 35 33
f 25 37 36
f 26 38 27
f 27 38 39
f 28 32 33
f 28 33 29
f 29 33 40
f 29 40 41
f 29 41 30
f 30 41 42
f 30 42 36
f 30 36 43
f 30 43 31
f 31 43 36
f 31 36 37
f 33 35 44
f 33 44 40
f 34 45 35
f 35 45 44
f 36 42 46
f 36 46 47
f 36 47 39
f 36 39 38
f 40 44 45
f 40 45 48
f 40 48 49
f 40 49 41
f 41 50 42
f 41 49 50
f 42 50 51
f 42 51 46

