# https://github.com/mikedh/trimesh
v -0.02936387 0.09092575 0.01776419
v -0.02936387 0.08400834 0.01776419
v -0.02936387 0.09161450 0.01770091
v -0.03143694 0.09092575 0.01776419
v -0.04664793 0.06879899 0.01776419
v -0.04941414 0.06603202 0.01775716
v -0.05079725 0.06464854 0.01774661
v -0.05218036 0.06283272 0.01756729
v -0.02936387 0.08321522 0.01746884
v -0.03282005 0.09092575 0.01775013
v -0.02936387 0.09236588 0.01739500
v -0.03420316 0.08954226 0.01776419
v -0.05218036 0.06464854 0.01776419
v -0.05218036 0.06326506 0.01768333
v -0.05261596 0.06283272 0.01759191
v -0.05120106 0.06283272 0.01721920
v -0.02936387 0.08265169 0.01715239
v -0.03420316 0.09092575 0.01760597
v -0.03558626 0.08954226 0.01766926
v -0.03696937 0.08815878 0.01770091
v -0.03835247 0.08677530 0.01772552
v -0.03973558 0.08539182 0.01774310
v -0.02936387 0.09285487 0.01703636
v -0.03282005 0.09201404 0.01706801
v -0.04111869 0.08400834 0.01775365
v -0.04250180 0.08262486 0.01776068
v -0.04526800 0.07986087 0.01776419
v -0.05632968 0.06741550 0.01776419
v -0.05494657 0.06603202 0.01775716
v -0.05356347 0.06464854 0.01773607
v -0.05494657 0.06464854 0.01766223
v -0.05356347 0.06326506 0.01760597
v -0.05356347 0.06283272 0.01754268
v -0.05091808 0.06283272 0.01705746
v -0.04982431 0.06369442 0.01683243
v -0.03895659 0.07355768 0.01661443
v -0.02936387 0.08213885 0.01592528
v -0.03420316 0.09183216 0.01692385
v -0.03501394 0.09169799 0.01666366
v -0.03551949 0.09087506 0.01702582
v -0.03692803 0.08951245 0.01709262
v -0.03833340 0.08814984 0.01713833
v -0.03973876 0.08679021 0.01717349
v -0.05218036 0.07432993 0.01762707
v -0.05356347 0.07294645 0.01766926
v -0.05494657 0.07156297 0.01770091
v -0.05632968 0.07018247 0.01772903
v -0.05771278 0.06879899 0.01774310
v -0.02936387 0.09314409 0.01679024
v -0.05494657 0.07018247 0.01776419
v -0.05632968 0.06879899 0.01776419
v -0.05771278 0.06741550 0.01773958
v -0.05632968 0.06603202 0.01771145
v -0.05771278 0.06603202 0.01761300
v -0.05632968 0.06464854 0.01754971
v -0.05494657 0.06283272 0.01740555
v -0.05041253 0.06283272 0.01575650
v -0.04179911 0.07086228 0.01643863
v -0.04037785 0.07220998 0.01653356
v -0.02936387 0.08205834 0.01571080
v -0.02974542 0.09309638 0.01669882
v -0.03420316 0.09204982 0.01571080
v -0.03507117 0.09173973 0.01571080
v -0.03576114 0.09114340 0.01571080
v -0.03651787 0.09045166 0.01571080
v -0.04872736 0.07917212 0.01641753
v -0.03643838 0.09038010 0.01672695
v -0.03785964 0.08903240 0.01677266
v -0.05490524 0.07291961 0.01709262
v -0.03928091 0.08768470 0.01680430
v -0.05631060 0.07155700 0.01713833
v -0.05771596 0.07019439 0.01717349
v -0.05912450 0.06881986 0.01717349
v -0.05909589 0.06741550 0.01763058
v -0.02936387 0.09322757 0.01635072
v -0.05909589 0.06603202 0.01747236
v -0.05909589 0.06464854 0.01726491
v -0.05909589 0.06326506 0.01705043
v -0.05771278 0.06283272 0.01712427
v -0.05039981 0.06283272 0.01571080
v -0.05038709 0.06283272 0.01438874
v -0.02936387 0.08205536 0.01453642
v -0.03282005 0.09241060 0.01571080
v -0.03420316 0.09204982 -0.01609580
v -0.03507117 0.09173973 -0.01609580
v -0.03576114 0.09114340 -0.01609580
v -0.04153203 0.08582416 0.01571080
v -0.03651787 0.09045166 -0.01609580
v -0.05015180 0.07782740 0.01651598
v -0.05806890 0.07056114 0.01571080
v -0.05881609 0.06986939 0.01571080
v -0.05157306 0.07647969 0.01660037
v -0.05299432 0.07513199 0.01667069
v -0.05441558 0.07378429 0.01672695
v -0.05583685 0.07243659 0.01677266
v -0.05725811 0.07108889 0.01680430
v -0.05867937 0.06974118 0.01682891
v -0.05996709 0.06837261 0.01680782
v -0.06015786 0.06741550 0.01697307
v -0.06135655 0.06326506 0.01657224
v -0.06135337 0.06283272 0.01655466
v -0.06075244 0.06283272 0.01675156
v -0.06047900 0.06326506 0.01686056
v -0.02936387 0.09329019 0.01571080
v -0.06047900 0.06283272 0.01680782
v -0.05953149 0.06283272 0.01693791
v -0.05038709 0.06283272 -0.01471397
v -0.02936387 0.08205536 -0.01471397
v -0.03282005 0.09241060 -0.01609580
v -0.02974542 0.09309638 -0.01708382
v -0.03501394 0.09169799 -0.01704866
v -0.04153203 0.08582416 -0.01609580
v -0.04872736 0.07917212 -0.01680253
v -0.05806890 0.07056114 -0.01609580
v -0.05950923 0.06919554 0.01571080
v -0.05881609 0.06986939 -0.01609580
v -0.06127389 0.06435336 0.01651950
v -0.06005930 0.06850380 0.01571080
v -0.06052669 0.06741550 0.01571080
v -0.06150281 0.06283272 0.01630150
v -0.02936387 0.09329019 -0.01609580
v -0.05039981 0.06283272 -0.01609580
v -0.02936387 0.08205834 -0.01609580
v -0.02936387 0.09314409 -0.01717524
v -0.03420316 0.09183216 -0.01730885
v -0.03420316 0.09092575 -0.01799097
v -0.03551949 0.09087506 -0.01741082
v -0.03643838 0.09038010 -0.01711195
v -0.05015180 0.07782740 -0.01690098
v -0.05950923 0.06919554 -0.01609580
v -0.05157306 0.07647969 -0.01698537
v -0.05299432 0.07513199 -0.01705569
v -0.05441558 0.07378429 -0.01711195
v -0.05583685 0.07243659 -0.01715766
v -0.05725811 0.07108889 -0.01718930
v -0.05867937 0.06974118 -0.01721391
v -0.06114352 0.06525083 0.01571080
v -0.06133430 0.06455909 0.01571080
v -0.06163000 0.06326506 0.01571080
v -0.06169041 0.06283272 0.01571080
v -0.06005930 0.06850380 -0.01609580
v -0.06134701 0.06456506 0.01432897
v -0.06184303 0.06283272 0.01432897
v -0.06052669 0.06741550 -0.01609580
v -0.05091808 0.06283272 -0.01744246
v -0.04982431 0.06369442 -0.01721743
v -0.04179911 0.07086228 -0.01682363
v -0.04037785 0.07220998 -0.01691856
v -0.03895659 0.07355768 -0.01699943
v -0.02936387 0.08265169 -0.01753739
v -0.02936387 0.09236588 -0.01778000
v -0.03282005 0.09201404 -0.01745301
v -0.03558626 0.08954226 -0.01805426
v -0.03833340 0.08814984 -0.01752333
v -0.03692803 0.08951245 -0.01747762
v -0.03282005 0.09092575 -0.01813513
v -0.03785964 0.08903240 -0.01715766
v -0.05996709 0.06837261 -0.01719282
v -0.03928091 0.08768470 -0.01718930
v -0.05490524 0.07291961 -0.01747762
v -0.05631060 0.07155700 -0.01752333
v -0.05771596 0.07019439 -0.01755849
v -0.05912450 0.06881986 -0.01755849
v -0.06178261 0.06283272 0.01527832
v -0.06134701 0.06456506 -0.01471397
v -0.06184303 0.06283272 -0.01471397
v -0.06127389 0.06435336 -0.01690450
v -0.06114352 0.06525083 -0.01609580
v -0.05218036 0.06283272 -0.01795229
v -0.02936387 0.08400834 -0.01814919
v -0.02936387 0.09092575 -0.01814919
v -0.03143694 0.09092575 -0.01814919
v -0.05356347 0.07294645 -0.01805426
v -0.05218036 0.07432993 -0.01801207
v -0.03973876 0.08679021 -0.01755849
v -0.03696937 0.08815878 -0.01808591
v -0.03420316 0.08954226 -0.01814919
v -0.03973558 0.08539182 -0.01812810
v -0.03835247 0.08677530 -0.01811052
v -0.05909589 0.06741550 -0.01801558
v -0.06015786 0.06741550 -0.01735807
v -0.05494657 0.07156297 -0.01808591
v -0.05632968 0.07018247 -0.01811403
v -0.05771278 0.06879899 -0.01812810
v -0.06133430 0.06455909 -0.01609580
v -0.06163000 0.06326506 -0.01609580
v -0.06169041 0.06283272 -0.01609580
v -0.06135655 0.06326506 -0.01695724
v -0.05356347 0.06283272 -0.01792768
v -0.05218036 0.06326506 -0.01806833
v -0.05079725 0.06464854 -0.01813161
v -0.04941414 0.06603202 -0.01814216
v -0.04664793 0.06879899 -0.01814919
v -0.04250180 0.08262486 -0.01814568
v -0.04111869 0.08400834 -0.01813865
v -0.04526800 0.07986087 -0.01814919
v -0.05771278 0.06603202 -0.01799800
v -0.05909589 0.06603202 -0.01785736
v -0.06047900 0.06326506 -0.01724556
v -0.06135337 0.06283272 -0.01693966
v -0.05771278 0.06741550 -0.01812458
v -0.05494657 0.07018247 -0.01814919
v -0.05632968 0.06879899 -0.01814919
v -0.05632968 0.06741550 -0.01814919
v -0.05632968 0.06464854 -0.01793471
v -0.05356347 0.06326506 -0.01799097
v -0.05494657 0.06283272 -0.01779055
v -0.05356347 0.06464854 -0.01812107
v -0.05218036 0.06464854 -0.01814919
v -0.05494657 0.06464854 -0.01804723
v -0.05632968 0.06603202 -0.01809645
v -0.05909589 0.06464854 -0.01764991
v -0.06047900 0.06283272 -0.01719282
v -0.05494657 0.06603202 -0.01814216
v -0.05771278 0.06283272 -0.01750927
v -0.05909589 0.06326506 -0.01743543
v -0.05909589 0.06283272 -0.01736511
v -0.05866347 0.06283272 -0.01741082
f 1 2 9
f 1 9 17
f 1 17 37
f 1 37 60
f 1 60 82
f 1 82 108
f 1 108 123
f 1 123 150
f 1 150 170
f 1 170 171
f 1 171 151
f 1 151 124
f 1 124 121
f 1 121 104
f 1 104 75
f 1 75 49
f 1 49 23
f 1 23 11
f 1 11 3
f 1 3 4
f 1 4 12
f 1 12 27
f 1 27 50
f 1 50 51
f 1 51 28
f 1 28 13
f 1 13 5
f 1 5 2
f 2 5 6
f 2 6 7
f 2 7 8
f 2 8 9
f 3 10 4
f 3 11 10
f 4 10 12
f 5 13 6
f 6 13 7
f 7 13 14
f 7 14 8
f 8 14 15
f 8 15 33
f 8 33 56
f 8 56 79
f 8 79 106
f 8 106 105
f 8 105 102
f 8 102 101
f 8 101 120
f 8 120 140
f 8 140 164
f 8 164 143
f 8 143 166
f 8 166 187
f 8 187 200
f 8 200 213
f 8 213 217
f 8 217 218
f 8 218 215
f 8 215 207
f 8 207 189
f 8 189 169
f 8 169 145
f 8 145 122
f 8 122 107
f 8 107 81
f 8 81 80
f 8 80 57
f 8 57 34
f 8 34 16
f 8 16 9
f 9 16 17
f 10 11 18
f 10 18 19
f 10 19 20
f 10 20 21
f 10 21 22
f 10 22 12
f 11 23 24
f 11 24 18
f 12 22 25
f 12 25 26
f 12 26 27
f 13 28 29
f 13 29 30
f 13 30 14
f 14 31 32
f 14 32 33
f 14 33 15
f 14 30 31
f 16 34 17
f 17 34 35
f 17 35 36
f 17 36 37
f 18 24 38
f 18 38 39
f 18 39 40
f 18 40 41
f 18 41 42
f 18 42 19
f 19 42 43
f 19 43 44
f 19 44 45
f 19 45 46
f 19 46 20
f 20 46 47
f 20 47 21
f 21 47 22
f 22 47 48
f 22 48 25
f 23 49 24
f 24 49 38
f 25 48 26
f 26 48 27
f 27 48 50
f 28 51 48
f 28 48 52
f 28 52 29
f 29 52 30
f 30 52 53
f 30 53 31
f 31 54 32
f 31 53 54
f 32 55 33
f 32 54 55
f 33 55 56
f 34 57 35
f 35 57 58
f 35 58 59
f 35 59 36
f 36 59 37
f 37 59 58
f 37 58 60
f 38 49 61
f 38 61 39
f 39 61 62
f 39 62 63
f 39 63 64
f 39 64 65
f 39 65 66
f 39 66 67
f 39 67 40
f 40 67 68
f 40 68 41
f 41 69 71
f 41 71 42
f 41 68 70
f 41 70 69
f 42 71 43
f 43 71 72
f 43 72 44
f 44 72 45
f 45 72 46
f 46 72 47
f 47 72 48
f 48 51 50
f 48 72 73
f 48 73 74
f 48 74 52
f 49 75 61
f 52 74 54
f 52 54 53
f 54 74 76
f 54 76 55
f 55 76 77
f 55 77 78
f 55 78 79
f 55 79 56
f 57 80 58
f 58 80 60
f 60 80 81
f 60 81 82
f 61 75 83
f 61 83 62
f 62 83 109
f 62 109 84
f 62 84 85
f 62 85 63
f 63 85 86
f 63 86 64
f 64 86 88
f 64 88 65
f 65 87 66
f 65 88 112
f 65 112 87
f 66 89 67
f 66 87 90
f 66 90 91
f 66 91 89
f 67 89 92
f 67 92 93
f 67 93 94
f 67 94 95
f 67 95 68
f 68 95 96
f 68 96 70
f 69 70 96
f 69 96 97
f 69 97 71
f 71 97 72
f 72 97 73
f 73 97 98
f 73 98 74
f 74 98 99
f 74 99 100
f 74 100 101
f 74 101 102
f 74 102 103
f 74 103 76
f 75 104 83
f 76 103 105
f 76 105 106
f 76 106 77
f 77 106 78
f 78 106 79
f 81 107 108
f 81 108 82
f 83 104 121
f 83 121 109
f 84 109 110
f 84 110 111
f 84 111 85
f 85 111 86
f 86 111 88
f 87 112 114
f 87 114 90
f 88 111 113
f 88 113 112
f 89 91 92
f 90 114 116
f 90 116 91
f 91 115 97
f 91 97 96
f 91 96 95
f 91 95 94
f 91 94 93
f 91 93 92
f 91 116 130
f 91 130 115
f 97 115 98
f 98 117 99
f 98 115 118
f 98 118 119
f 98 119 117
f 99 117 100
f 100 117 120
f 100 120 101
f 102 105 103
f 107 122 123
f 107 123 108
f 109 121 110
f 110 124 125
f 110 125 111
f 110 121 124
f 111 125 126
f 111 126 127
f 111 127 128
f 111 128 113
f 112 113 114
f 113 128 129
f 113 129 116
f 113 116 114
f 115 130 141
f 115 141 118
f 116 129 131
f 116 131 132
f 116 132 133
f 116 133 134
f 116 134 135
f 116 135 136
f 116 136 130
f 117 119 137
f 117 137 138
f 117 138 139
f 117 139 140
f 117 140 120
f 118 141 144
f 118 144 119
f 119 142 143
f 119 143 137
f 119 144 165
f 119 165 142
f 122 145 146
f 122 146 147
f 122 147 123
f 123 147 148
f 123 148 149
f 123 149 150
f 124 151 152
f 124 152 125
f 125 152 126
f 126 153 154
f 126 154 155
f 126 155 127
f 126 152 151
f 126 151 156
f 126 156 153
f 127 155 157
f 127 157 128
f 128 157 134
f 128 134 133
f 128 133 132
f 128 132 131
f 128 131 129
f 130 136 158
f 130 158 141
f 134 157 159
f 134 159 135
f 135 159 160
f 135 160 136
f 136 160 161
f 136 161 162
f 136 162 163
f 136 163 158
f 137 143 138
f 138 143 164
f 138 164 139
f 139 164 140
f 141 158 144
f 142 165 166
f 142 166 143
f 144 158 167
f 144 167 168
f 144 168 166
f 144 166 165
f 145 169 170
f 145 170 150
f 145 150 146
f 146 149 148
f 146 148 147
f 146 150 149
f 151 171 172
f 151 172 156
f 153 173 174
f 153 174 175
f 153 175 154
f 153 156 176
f 153 176 182
f 153 182 173
f 154 175 161
f 154 161 160
f 154 160 155
f 155 160 159
f 155 159 157
f 156 172 177
f 156 177 178
f 156 178 179
f 156 179 176
f 158 163 180
f 158 180 181
f 158 181 167
f 161 175 162
f 162 175 174
f 162 174 173
f 162 173 182
f 162 182 183
f 162 183 184
f 162 184 163
f 163 184 180
f 166 168 185
f 166 185 186
f 166 186 187
f 167 181 188
f 167 188 187
f 167 187 186
f 167 186 185
f 167 185 168
f 169 189 190
f 169 190 191
f 169 191 170
f 170 191 192
f 170 192 193
f 170 193 209
f 170 209 204
f 170 204 203
f 170 203 202
f 170 202 196
f 170 196 177
f 170 177 172
f 170 172 171
f 176 179 183
f 176 183 182
f 177 194 195
f 177 195 178
f 177 196 194
f 178 195 184
f 178 184 183
f 178 183 179
f 180 197 198
f 180 198 199
f 180 199 200
f 180 200 188
f 180 188 181
f 180 184 201
f 180 201 197
f 184 195 194
f 184 194 196
f 184 196 202
f 184 202 203
f 184 203 204
f 184 204 201
f 187 188 200
f 189 205 206
f 189 206 190
f 189 207 205
f 190 208 209
f 190 209 191
f 190 206 210
f 190 210 208
f 191 209 192
f 192 209 193
f 197 201 211
f 197 211 210
f 197 210 206
f 197 206 205
f 197 205 198
f 198 205 212
f 198 212 213
f 198 213 199
f 199 213 200
f 201 204 214
f 201 214 208
f 201 208 211
f 204 209 214
f 205 207 215
f 205 215 216
f 205 216 212
f 208 210 211
f 208 214 209
f 212 216 213
f 213 216 217
f 215 218 216
f 216 218 217

