# https://github.com/mikedh/trimesh
v -0.00126712 0.09784103 0.01776419
v -0.00126712 0.09092637 0.01776419
v -0.00126712 0.09922467 0.01734930
v -0.00239198 0.09922467 0.01738094
v -0.00377537 0.09784103 0.01776419
v -0.02936387 0.08401171 0.01776419
v -0.02866805 0.08401171 0.01776068
v -0.01760372 0.08677722 0.01776068
v -0.00654214 0.08954450 0.01776068
v -0.00515875 0.08954450 0.01769739
v -0.00126712 0.08945614 0.01701527
v -0.00126712 0.09985729 0.01679727
v -0.00239198 0.10001279 0.01669882
v -0.00654214 0.09880586 0.01699769
v -0.00654214 0.09784103 0.01767981
v -0.00515875 0.09784103 0.01775716
v -0.01483970 0.09507552 0.01776419
v -0.02936387 0.09092637 0.01776419
v -0.02936387 0.08321651 0.01746884
v -0.02728467 0.08401171 0.01772200
v -0.02175388 0.08539535 0.01771849
v -0.01622034 0.08677722 0.01771145
v -0.02590128 0.08401171 0.01751455
v -0.02728467 0.08298502 0.01704340
v -0.02590128 0.08316173 0.01683243
v -0.02502395 0.08327306 0.01657224
v -0.00126712 0.08933951 0.01669882
v -0.00126712 0.10000396 0.01666717
v -0.00239198 0.10010998 0.01571080
v -0.00314005 0.09992974 0.01645621
v -0.00792552 0.09863092 0.01668475
v -0.01207293 0.09741339 0.01699065
v -0.02313726 0.09369188 0.01764817
v -0.01760372 0.09507552 0.01765871
v -0.02728467 0.09230824 0.01775013
v -0.02175388 0.09369188 0.01775365
v -0.01622034 0.09507552 0.01775716
v -0.02590128 0.09230824 0.01776419
v -0.02936387 0.09161554 0.01770091
v -0.02936387 0.08265458 0.01715239
v -0.02936387 0.08214212 0.01592528
v -0.02936387 0.08206083 0.01571080
v -0.00126712 0.08897726 0.01571080
v -0.00126712 0.10009408 0.01571080
v -0.00316756 0.09993681 0.01571080
v -0.00239198 0.10010998 -0.01609580
v -0.01414938 0.09715009 0.01640347
v -0.02423462 0.09448707 0.01671288
v -0.01873133 0.09587601 0.01672695
v -0.02313726 0.09462668 0.01696604
v -0.01760372 0.09601915 0.01698011
v -0.02866805 0.09230824 0.01763410
v -0.02936387 0.09236832 0.01739500
v -0.02936387 0.08205730 0.01432897
v -0.00126712 0.08897549 0.01432897
v -0.00126712 0.10009408 -0.01609580
v -0.00385788 0.09976187 0.01571080
v -0.00316756 0.09993681 -0.01609580
v -0.00126712 0.10002339 -0.01686934
v -0.00239198 0.10001279 -0.01708382
v -0.00314005 0.09992974 -0.01684121
v -0.02936387 0.09322713 0.01635072
v -0.01069230 0.09802834 0.01571080
v -0.01484245 0.09697515 0.01571080
v -0.02866805 0.09346569 0.01571080
v -0.02936387 0.09328898 0.01571080
v -0.02936387 0.09314408 0.01679024
v -0.02866805 0.09323243 0.01695549
v -0.02936387 0.09285604 0.01703636
v -0.02936387 0.08205730 -0.01471397
v -0.00126712 0.08897549 -0.01479836
v -0.00385788 0.09976187 -0.01609580
v -0.01414938 0.09715009 -0.01678847
v -0.00126712 0.10000396 -0.01705217
v -0.00654214 0.09880586 -0.01738269
v -0.00792552 0.09863092 -0.01706975
v -0.00126712 0.09937134 -0.01760772
v -0.00239198 0.09922467 -0.01776594
v -0.02423462 0.09448707 -0.01709788
v -0.01069230 0.09802834 -0.01609580
v -0.01484245 0.09697515 -0.01609580
v -0.02866805 0.09346569 -0.01609580
v -0.02936387 0.09328898 -0.01609580
v -0.02936387 0.08206083 -0.01609580
v -0.00126712 0.08897726 -0.01609580
v -0.02936387 0.09314408 -0.01717524
v -0.01207293 0.09741339 -0.01737565
v -0.00654214 0.09784103 -0.01806481
v -0.01760372 0.09507552 -0.01804371
v -0.02313726 0.09369188 -0.01803317
v -0.01873133 0.09587601 -0.01711195
v -0.00126712 0.09922467 -0.01773430
v -0.00515875 0.09784103 -0.01814216
v -0.00126712 0.09810079 -0.01807887
v -0.00377537 0.09784103 -0.01814919
v -0.02866805 0.09323243 -0.01734049
v -0.02936387 0.08265458 -0.01753739
v -0.02728467 0.08298502 -0.01742840
v -0.02590128 0.08316173 -0.01721743
v -0.02502395 0.08327306 -0.01695724
v -0.00126712 0.08900023 -0.01616260
v -0.02936387 0.09236832 -0.01778000
v -0.01760372 0.09601915 -0.01736511
v -0.02313726 0.09462668 -0.01735104
v -0.02866805 0.09230824 -0.01801910
v -0.01622034 0.09507552 -0.01814216
v -0.02175388 0.09369188 -0.01813865
v -0.02728467 0.09230824 -0.01813513
v -0.01483970 0.09507552 -0.01814919
v -0.00126712 0.09784103 -0.01814919
v -0.02866805 0.08401171 -0.01814568
v -0.02728467 0.08401171 -0.01810700
v -0.02590128 0.08401171 -0.01789955
v -0.02936387 0.08401171 -0.01814919
v -0.00126712 0.08945614 -0.01740027
v -0.02936387 0.09092637 -0.01814919
v -0.02590128 0.09230824 -0.01814919
v -0.00126712 0.09092637 -0.01814919
v -0.01760372 0.08677722 -0.01814568
v -0.00654214 0.08954450 -0.01814568
v -0.02175388 0.08539535 -0.01810349
v -0.01622034 0.08677722 -0.01809645
v -0.00515875 0.08954450 -0.01808239
v -0.00126712 0.08978129 -0.01756904
f 1 2 11
f 1 11 27
f 1 27 43
f 1 43 55
f 1 55 71
f 1 71 85
f 1 85 101
f 1 101 115
f 1 115 124
f 1 124 118
f 1 118 110
f 1 110 94
f 1 94 92
f 1 92 77
f 1 77 74
f 1 74 59
f 1 59 56
f 1 56 44
f 1 44 28
f 1 28 12
f 1 12 3
f 1 3 4
f 1 4 5
f 1 5 17
f 1 17 38
f 1 38 18
f 1 18 6
f 1 6 2
f 2 6 7
f 2 7 8
f 2 8 9
f 2 9 10
f 2 10 11
f 3 12 13
f 3 13 4
f 4 13 14
f 4 14 15
f 4 15 16
f 4 16 5
f 5 16 17
f 6 18 39
f 6 39 53
f 6 53 69
f 6 69 67
f 6 67 62
f 6 62 66
f 6 66 83
f 6 83 86
f 6 86 102
f 6 102 116
f 6 116 114
f 6 114 97
f 6 97 84
f 6 84 70
f 6 70 54
f 6 54 42
f 6 42 41
f 6 41 40
f 6 40 19
f 6 19 7
f 7 20 8
f 7 19 20
f 8 20 9
f 9 20 21
f 9 21 22
f 9 22 10
f 10 22 23
f 10 23 11
f 11 23 24
f 11 24 25
f 11 25 26
f 11 26 27
f 12 28 13
f 13 28 29
f 13 29 30
f 13 30 31
f 13 31 14
f 14 31 32
f 14 32 33
f 14 33 34
f 14 34 15
f 15 34 35
f 15 35 36
f 15 36 37
f 15 37 16
f 16 37 17
f 17 37 38
f 18 38 35
f 18 35 39
f 19 40 20
f 20 40 23
f 20 23 21
f 21 23 22
f 23 40 24
f 24 41 25
f 24 40 41
f 25 41 42
f 25 42 26
f 26 43 27
f 26 42 43
f 28 44 29
f 29 45 30
f 29 44 56
f 29 56 46
f 29 46 58
f 29 58 45
f 30 45 47
f 30 47 48
f 30 48 31
f 31 48 49
f 31 49 32
f 32 49 50
f 32 50 68
f 32 68 51
f 32 51 52
f 32 52 33
f 33 52 35
f 33 35 34
f 35 38 36
f 35 52 39
f 36 38 37
f 39 52 53
f 42 54 43
f 43 54 55
f 45 57 47
f 45 58 72
f 45 72 57
f 46 56 59
f 46 59 60
f 46 60 61
f 46 61 58
f 47 62 48
f 47 57 63
f 47 63 64
f 47 64 65
f 47 65 66
f 47 66 62
f 48 67 68
f 48 68 49
f 48 62 67
f 49 68 50
f 51 68 52
f 52 68 53
f 53 68 69
f 54 70 71
f 54 71 55
f 57 72 80
f 57 80 63
f 58 61 73
f 58 73 72
f 59 74 60
f 60 75 76
f 60 76 61
f 60 74 77
f 60 77 78
f 60 78 75
f 61 76 79
f 61 79 73
f 63 80 81
f 63 81 64
f 64 81 82
f 64 82 65
f 65 82 83
f 65 83 66
f 67 69 68
f 70 84 85
f 70 85 71
f 72 73 80
f 73 83 82
f 73 82 81
f 73 81 80
f 73 79 86
f 73 86 83
f 75 87 76
f 75 78 88
f 75 88 89
f 75 89 90
f 75 90 87
f 76 87 91
f 76 91 79
f 77 92 78
f 78 93 88
f 78 92 94
f 78 94 95
f 78 95 93
f 79 91 96
f 79 96 86
f 84 97 98
f 84 98 99
f 84 99 100
f 84 100 85
f 85 100 101
f 86 96 102
f 87 103 96
f 87 96 104
f 87 104 91
f 87 90 105
f 87 105 103
f 88 93 106
f 88 106 107
f 88 107 108
f 88 108 89
f 89 108 90
f 90 108 105
f 91 104 96
f 93 95 109
f 93 109 106
f 94 110 95
f 95 110 118
f 95 118 114
f 95 114 116
f 95 116 117
f 95 117 109
f 96 103 105
f 96 105 102
f 97 111 112
f 97 112 113
f 97 113 98
f 97 114 111
f 98 115 99
f 98 113 115
f 99 115 100
f 100 115 101
f 102 105 116
f 105 108 116
f 106 109 117
f 106 117 107
f 107 117 108
f 108 117 116
f 111 118 119
f 111 119 112
f 111 114 118
f 112 119 120
f 112 120 121
f 112 121 113
f 113 121 122
f 113 122 123
f 113 123 115
f 115 123 124
f 118 124 123
f 118 123 120
f 118 120 119
f 120 123 122
f 120 122 121

