# https://github.com/mikedh/trimesh
v 0.05360307 0.01563112 0.04607166
v 0.06514965 0.01563112 0.04291864
v 0.05360307 0.01563112 0.04786440
v 0.05360307 0.02728507 0.03890599
v 0.06514965 0.01563112 0.04536968
v 0.06514965 0.02528513 0.03735504
v 0.05374323 0.01563112 0.04786760
v 0.05360307 0.01597338 0.04768865
v 0.05360307 0.02728507 0.04124412
v 0.05973239 0.02728507 0.03815821
v 0.06514965 0.02727937 0.03737102
v 0.06514965 0.02619098 0.03705359
v 0.06514965 0.01591519 0.04529512
v 0.05939670 0.01563112 0.04762473
v 0.05532104 0.01563112 0.04790168
v 0.05393536 0.02057564 0.04532601
v 0.05360307 0.02053799 0.04533772
v 0.05385060 0.02728507 0.04122708
v 0.05360307 0.02671350 0.04178206
v 0.06120396 0.02728507 0.03828497
v 0.06150348 0.02728507 0.03842771
v 0.06201322 0.02728507 0.03877071
v 0.06213755 0.02728507 0.03887723
v 0.06514965 0.02727937 0.03745198
v 0.06514965 0.01602586 0.04524932
v 0.06512478 0.01602586 0.04526955
v 0.05826307 0.01563112 0.04793471
v 0.06021839 0.01817981 0.04644554
v 0.05679262 0.01563112 0.04793045
v 0.05532104 0.01749644 0.04694087
v 0.05448241 0.02117801 0.04502669
v 0.05360307 0.02330345 0.04389969
v 0.05505996 0.02728507 0.04107795
v 0.05385060 0.02670437 0.04177353
v 0.05360307 0.02597878 0.04237431
v 0.05385060 0.02596965 0.04237218
v 0.06201887 0.02728507 0.03920105
v 0.06514965 0.02711166 0.03776728
v 0.06187420 0.02728507 0.03932994
v 0.06120396 0.02728507 0.03980503
v 0.06514965 0.02157161 0.04233597
v 0.06489308 0.01676856 0.04503201
v 0.06201096 0.02271248 0.04358758
v 0.05826307 0.01749644 0.04693980
v 0.05679262 0.02041477 0.04540590
v 0.05532104 0.02328519 0.04389756
v 0.05679262 0.01903661 0.04614089
v 0.05476948 0.02117801 0.04502669
v 0.05679262 0.01616162 0.04765349
v 0.05923960 0.01825397 0.04650733
v 0.05973239 0.02036229 0.04537821
v 0.06120396 0.02290186 0.04372713
v 0.05385060 0.02330459 0.04390182
v 0.05532104 0.02728507 0.04103854
v 0.05532104 0.02657888 0.04166382
v 0.05532104 0.02584416 0.04230081
v 0.05679262 0.02325895 0.04388372
v 0.05826307 0.02320419 0.04386987
v 0.05973239 0.02310950 0.04385602
v 0.05826307 0.02393891 0.04340757
v 0.05973239 0.02384536 0.04333300
v 0.06514965 0.02589322 0.03946522
v 0.05994148 0.02728507 0.04027904
v 0.06120396 0.02606435 0.04103428
v 0.06267441 0.02576316 0.04077437
v 0.06344411 0.02559773 0.04063163
v 0.06514965 0.02581678 0.03957068
v 0.06514965 0.02440438 0.04055600
v 0.06380466 0.02311178 0.04237644
v 0.06269476 0.02340270 0.04283981
v 0.06239750 0.02432452 0.04232531
v 0.06120396 0.02363772 0.04323180
v 0.05826307 0.01827907 0.04652118
v 0.05672368 0.02728507 0.04081591
v 0.05679262 0.02570954 0.04219429
v 0.05774090 0.02562397 0.04211866
v 0.06120396 0.02453558 0.04249575
v 0.05973239 0.02470215 0.04259801
v 0.05970526 0.02728507 0.04032272
v 0.06337855 0.02409179 0.04206114
v 0.05826307 0.02728507 0.04056878
v 0.05907911 0.02707059 0.04062630
v 0.05927803 0.02728507 0.04040154
f 1 2 5
f 1 5 14
f 1 14 27
f 1 27 29
f 1 29 15
f 1 15 7
f 1 7 3
f 1 3 8
f 1 8 17
f 1 17 32
f 1 32 35
f 1 35 19
f 1 19 9
f 1 9 4
f 1 4 2
f 2 4 6
f 2 6 12
f 2 12 11
f 2 11 24
f 2 24 38
f 2 38 62
f 2 62 67
f 2 67 68
f 2 68 41
f 2 41 25
f 2 25 13
f 2 13 5
f 3 7 8
f 4 9 18
f 4 18 33
f 4 33 54
f 4 54 74
f 4 74 81
f 4 81 83
f 4 83 79
f 4 79 63
f 4 63 40
f 4 40 39
f 4 39 37
f 4 37 23
f 4 23 22
f 4 22 21
f 4 21 20
f 4 20 10
f 4 10 11
f 4 11 12
f 4 12 6
f 5 13 14
f 7 15 8
f 8 15 16
f 8 16 17
f 9 19 18
f 10 20 11
f 11 20 21
f 11 21 22
f 11 22 23
f 11 23 24
f 13 25 26
f 13 26 14
f 14 26 28
f 14 28 27
f 15 29 30
f 15 30 16
f 16 31 17
f 16 30 31
f 17 31 32
f 18 19 34
f 18 34 33
f 19 35 36
f 19 36 34
f 23 37 24
f 24 37 39
f 24 39 40
f 24 40 38
f 25 41 26
f 26 41 42
f 26 42 43
f 26 43 28
f 27 44 45
f 27 45 46
f 27 46 47
f 27 47 48
f 27 48 31
f 27 31 49
f 27 49 29
f 27 28 50
f 27 50 51
f 27 51 44
f 28 51 50
f 28 43 52
f 28 52 51
f 29 49 31
f 29 31 30
f 31 48 53
f 31 53 32
f 32 53 35
f 33 34 55
f 33 55 54
f 34 36 56
f 34 56 55
f 35 53 46
f 35 46 57
f 35 57 36
f 36 57 58
f 36 58 59
f 36 59 60
f 36 60 61
f 36 61 56
f 38 40 62
f 40 63 64
f 40 64 65
f 40 65 66
f 40 66 67
f 40 67 62
f 41 68 69
f 41 69 42
f 42 69 43
f 43 69 70
f 43 70 71
f 43 71 72
f 43 72 52
f 44 51 73
f 44 73 45
f 45 73 46
f 46 53 48
f 46 48 47
f 46 73 57
f 51 52 59
f 51 59 58
f 51 58 57
f 51 57 73
f 52 72 59
f 54 55 74
f 55 56 75
f 55 75 76
f 55 76 74
f 56 61 75
f 59 72 61
f 59 61 60
f 61 72 77
f 61 77 78
f 61 78 75
f 63 79 77
f 63 77 71
f 63 71 64
f 64 71 65
f 65 71 66
f 66 71 80
f 66 80 67
f 67 80 68
f 68 80 69
f 69 80 70
f 70 80 71
f 71 77 72
f 74 76 81
f 75 78 76
f 76 82 81
f 76 78 82
f 77 79 83
f 77 83 82
f 77 82 78
f 81 82 83

