# https://github.com/mikedh/trimesh
v 0.05360307 -0.00856208 0.05230511
v 0.05360307 -0.00897968 0.05226864
v 0.05360307 -0.00856208 0.05075317
v 0.05339029 -0.00856208 0.05229257
v 0.04649602 -0.01192348 0.05175133
v 0.04796698 -0.01339391 0.05169436
v 0.04943684 -0.01339391 0.05174449
v 0.05360307 -0.01339391 0.05185160
v 0.04245527 -0.00856208 0.04832499
v 0.05360307 -0.03590034 0.04066442
v 0.04649602 -0.00856208 0.05174335
v 0.04649602 -0.01045011 0.05175019
v 0.04502616 -0.01192348 0.05142887
v 0.04649602 -0.01339391 0.05162941
v 0.04502616 -0.00856208 0.05151888
v 0.04502616 -0.01045011 0.05147103
v 0.05090779 -0.01486435 0.05160092
v 0.05360307 -0.01486435 0.05170917
v 0.04245527 -0.00856208 0.05029282
v 0.04245527 -0.02962454 0.04066442
v 0.05360307 -0.03860300 0.04066442
v 0.04409209 -0.01192348 0.05100612
v 0.04419030 -0.01287044 0.05095827
v 0.04495633 -0.01337333 0.05121237
v 0.04388585 -0.00856208 0.05110526
v 0.04399934 -0.01045011 0.05105056
v 0.04542009 -0.01486435 0.05106993
v 0.04566670 -0.01573778 0.05094915
v 0.04649602 -0.01486435 0.05130580
v 0.04796698 -0.01486435 0.05143570
v 0.04943684 -0.01486435 0.05153255
v 0.05360307 -0.01633478 0.05141747
v 0.04245527 -0.00995016 0.05026206
v 0.04245527 -0.03417994 0.04066442
v 0.05360307 -0.03817363 0.04102905
v 0.05090779 -0.03811188 0.04098917
v 0.04943684 -0.03807953 0.04096524
v 0.04796698 -0.03804423 0.04094017
v 0.05090779 -0.03848243 0.04066442
v 0.04245527 -0.01192348 0.05016293
v 0.04245527 -0.01287926 0.05000682
v 0.04245527 -0.01333216 0.04993048
v 0.04245527 -0.01465554 0.04961257
v 0.04349520 -0.01629655 0.04975386
v 0.04394587 -0.01780521 0.04961827
v 0.04417611 -0.01878452 0.04949748
v 0.04245527 -0.01045011 0.05023699
v 0.04420121 -0.02468977 0.04803328
v 0.04649602 -0.01592600 0.05100385
v 0.04465188 -0.02566908 0.04788971
v 0.04509491 -0.02516913 0.04811532
v 0.04563179 -0.02592788 0.04798429
v 0.04796698 -0.01616127 0.05107107
v 0.04980130 -0.01718763 0.05094118
v 0.05090779 -0.01734056 0.05098106
v 0.05090779 -0.01633478 0.05124655
v 0.05237874 -0.01633478 0.05133999
v 0.05237874 -0.01752877 0.05102777
v 0.05360307 -0.01767581 0.05106651
v 0.04274663 -0.03487399 0.04066442
v 0.04245527 -0.03397702 0.04081597
v 0.05360307 -0.03734137 0.04164094
v 0.05090779 -0.03711492 0.04172412
v 0.04943684 -0.03707963 0.04170133
v 0.04796698 -0.03704728 0.04167512
v 0.04649602 -0.03800601 0.04091282
v 0.04796698 -0.03834714 0.04066442
v 0.04943684 -0.03841478 0.04066442
v 0.04273572 -0.01578190 0.04948153
v 0.04245527 -0.01486435 0.04955446
v 0.04357486 -0.02511620 0.04722427
v 0.04392186 -0.02662780 0.04690067
v 0.04415974 -0.02759829 0.04662150
v 0.04266261 -0.02046081 0.04811191
v 0.04283829 -0.02144012 0.04794668
v 0.04649602 -0.02515737 0.04830675
v 0.04661278 -0.02081078 0.04958978
v 0.04796698 -0.02162539 0.04947925
v 0.05263408 -0.02310759 0.04948267
v 0.05360307 -0.02224003 0.04982451
v 0.04509491 -0.02650135 0.04754674
v 0.04422194 -0.03041858 0.04508893
v 0.04429615 -0.03324474 0.04355294
v 0.04649602 -0.02803059 0.04687902
v 0.04649602 -0.02674544 0.04761397
v 0.04649602 -0.02601022 0.04802759
v 0.04943684 -0.02515737 0.04856769
v 0.04796698 -0.02515737 0.04844349
v 0.04527714 -0.03339767 0.04364182
v 0.04567107 -0.03621208 0.04209899
v 0.04420012 -0.03778250 0.04066442
v 0.04420776 -0.03775897 0.04070544
v 0.04275754 -0.03485046 0.04070088
v 0.04245527 -0.03364176 0.04104842
v 0.05360307 -0.03717374 0.04176400
v 0.05237874 -0.03714727 0.04174577
v 0.05090779 -0.03637971 0.04221066
v 0.04796698 -0.03631207 0.04216622
v 0.04649602 -0.03699435 0.04164891
v 0.04502616 -0.03789719 0.04082508
v 0.04649602 -0.03826774 0.04066442
v 0.04245527 -0.01927564 0.04829194
v 0.04276627 -0.02456626 0.04655883
v 0.04294959 -0.02554557 0.04633777
v 0.04318638 -0.02662780 0.04604493
v 0.04245527 -0.02059021 0.04782249
v 0.04245527 -0.02114309 0.04761169
v 0.04261132 -0.02368694 0.04674456
v 0.05360307 -0.02326051 0.04952711
v 0.04348101 -0.03266540 0.04290915
v 0.04312309 -0.03398290 0.04170589
v 0.04411282 -0.03505926 0.04226422
v 0.04469116 -0.03603857 0.04199530
v 0.04649602 -0.03078324 0.04530087
v 0.05237874 -0.02927458 0.04674798
v 0.05360307 -0.02672485 0.04830448
v 0.04796698 -0.02613962 0.04809595
v 0.05237874 -0.02652193 0.04829878
v 0.04511892 -0.03679143 0.04161245
v 0.04649602 -0.03625913 0.04213090
v 0.04943684 -0.03375057 0.04386516
v 0.05090779 -0.03189195 0.04509690
v 0.04993879 -0.03181549 0.04504905
v 0.04796698 -0.03365941 0.04379451
v 0.04649602 -0.03353589 0.04372158
v 0.04502616 -0.03805012 0.04066442
v 0.04398842 -0.03692377 0.04098347
v 0.04355194 -0.03544451 0.04134809
v 0.04255457 -0.03398290 0.04096980
v 0.04245527 -0.03272127 0.04160561
v 0.05360307 -0.03656204 0.04216850
v 0.05237874 -0.03641206 0.04223231
v 0.05360307 -0.03293007 0.04456934
v 0.05360307 -0.03213016 0.04509690
v 0.05360307 -0.03200664 0.04517781
v 0.05237874 -0.03197135 0.04515274
v 0.04245527 -0.02496915 0.04599024
v 0.04245527 -0.02370458 0.04654857
v 0.04245527 -0.02516913 0.04589794
v 0.04245527 -0.02663956 0.04513679
v 0.04258840 -0.02662780 0.04530998
v 0.04301070 -0.02842761 0.04479153
v 0.04320493 -0.02968924 0.04429701
v 0.04267242 -0.03208899 0.04226422
v 0.04291031 -0.03306829 0.04198163
v 0.04245527 -0.03223015 0.04190073
v 0.04796698 -0.03090970 0.04537380
v 0.05360307 -0.02936869 0.04680837
v 0.04245527 -0.02938339 0.04355750
v 0.04261132 -0.02927752 0.04381046
v 0.04245527 -0.03115379 0.04253313
f 1 2 8
f 1 8 18
f 1 18 32
f 1 32 59
f 1 59 80
f 1 80 109
f 1 109 116
f 1 116 148
f 1 148 135
f 1 135 134
f 1 134 133
f 1 133 131
f 1 131 95
f 1 95 62
f 1 62 35
f 1 35 21
f 1 21 10
f 1 10 3
f 1 3 9
f 1 9 19
f 1 19 25
f 1 25 15
f 1 15 11
f 1 11 4
f 1 4 5
f 1 5 6
f 1 6 7
f 1 7 2
f 2 7 8
f 3 10 9
f 4 11 12
f 4 12 5
f 5 13 14
f 5 14 6
f 5 12 15
f 5 15 16
f 5 16 13
f 6 14 17
f 6 17 18
f 6 18 7
f 7 18 8
f 9 10 20
f 9 20 34
f 9 34 61
f 9 61 94
f 9 94 130
f 9 130 146
f 9 146 151
f 9 151 149
f 9 149 140
f 9 140 139
f 9 139 137
f 9 137 138
f 9 138 107
f 9 107 106
f 9 106 102
f 9 102 70
f 9 70 43
f 9 43 42
f 9 42 41
f 9 41 40
f 9 40 47
f 9 47 33
f 9 33 19
f 10 21 39
f 10 39 68
f 10 68 67
f 10 67 101
f 10 101 126
f 10 126 91
f 10 91 60
f 10 60 34
f 10 34 20
f 11 15 12
f 13 22 23
f 13 23 24
f 13 24 14
f 13 16 25
f 13 25 26
f 13 26 22
f 14 24 27
f 14 27 28
f 14 28 29
f 14 29 30
f 14 30 31
f 14 31 17
f 15 25 16
f 17 31 32
f 17 32 18
f 19 33 25
f 21 35 36
f 21 36 37
f 21 37 38
f 21 38 39
f 22 40 23
f 22 26 40
f 23 40 41
f 23 41 42
f 23 42 43
f 23 43 44
f 23 44 45
f 23 45 46
f 23 46 24
f 24 46 27
f 25 33 47
f 25 47 40
f 25 40 26
f 27 46 48
f 27 48 28
f 28 49 29
f 28 48 50
f 28 50 51
f 28 51 52
f 28 52 49
f 29 49 53
f 29 53 30
f 30 53 54
f 30 54 55
f 30 55 56
f 30 56 31
f 31 56 57
f 31 57 32
f 32 57 58
f 32 58 59
f 34 60 61
f 35 62 63
f 35 63 36
f 36 63 37
f 37 63 64
f 37 64 65
f 37 65 38
f 38 66 67
f 38 67 68
f 38 68 39
f 38 65 66
f 43 69 46
f 43 46 45
f 43 45 44
f 43 70 48
f 43 48 69
f 46 69 48
f 48 71 72
f 48 72 73
f 48 73 50
f 48 70 74
f 48 74 75
f 48 75 71
f 49 52 76
f 49 76 77
f 49 77 78
f 49 78 79
f 49 79 80
f 49 80 53
f 50 81 52
f 50 52 51
f 50 73 82
f 50 82 83
f 50 83 81
f 52 84 85
f 52 85 86
f 52 86 87
f 52 87 88
f 52 88 76
f 52 81 83
f 52 83 89
f 52 89 90
f 52 90 84
f 53 80 54
f 54 80 55
f 55 80 58
f 55 58 56
f 56 58 57
f 58 80 59
f 60 91 92
f 60 92 93
f 60 93 61
f 61 93 94
f 62 95 96
f 62 96 63
f 63 96 132
f 63 132 97
f 63 97 98
f 63 98 64
f 64 98 65
f 65 98 99
f 65 99 66
f 66 100 101
f 66 101 67
f 66 99 100
f 70 102 74
f 71 75 103
f 71 103 104
f 71 104 72
f 72 105 82
f 72 82 73
f 72 104 105
f 74 102 106
f 74 106 75
f 75 106 107
f 75 107 108
f 75 108 103
f 76 88 79
f 76 79 78
f 76 78 77
f 79 109 80
f 79 88 109
f 82 105 83
f 83 110 111
f 83 111 112
f 83 112 92
f 83 92 113
f 83 113 90
f 83 90 89
f 83 105 110
f 84 114 115
f 84 115 85
f 84 90 114
f 85 116 117
f 85 117 86
f 85 115 116
f 86 117 87
f 87 117 118
f 87 118 109
f 87 109 88
f 90 113 119
f 90 119 100
f 90 100 99
f 90 99 120
f 90 120 121
f 90 121 122
f 90 122 123
f 90 123 124
f 90 124 125
f 90 125 114
f 91 126 92
f 92 126 100
f 92 100 119
f 92 119 113
f 92 112 127
f 92 127 93
f 93 127 128
f 93 128 111
f 93 111 129
f 93 129 94
f 94 129 111
f 94 111 130
f 95 131 132
f 95 132 96
f 97 132 133
f 97 133 98
f 98 120 99
f 98 133 134
f 98 134 135
f 98 135 136
f 98 136 120
f 100 126 101
f 103 137 104
f 103 108 138
f 103 138 137
f 104 137 139
f 104 139 140
f 104 140 141
f 104 141 105
f 105 141 142
f 105 142 143
f 105 143 110
f 107 138 108
f 109 118 116
f 110 144 145
f 110 145 111
f 110 143 144
f 111 145 144
f 111 144 146
f 111 146 130
f 111 128 112
f 112 128 127
f 114 147 115
f 114 125 147
f 115 148 116
f 115 147 123
f 115 123 122
f 115 122 148
f 116 118 117
f 120 136 121
f 121 136 122
f 122 136 148
f 123 125 124
f 123 147 125
f 131 133 132
f 135 148 136
f 140 149 141
f 141 149 150
f 141 150 142
f 142 150 144
f 142 144 143
f 144 150 149
f 144 149 151
f 144 151 146

