# https://github.com/mikedh/trimesh
v 0.06925640 0.03684439 -0.00010167
v 0.06415397 0.04386859 -0.00009898
v 0.06415397 0.04387690 -0.00010167
v 0.07086954 0.03684439 -0.00010167
v 0.06415397 0.03684439 0.02465587
v 0.06415397 0.04533778 -0.00010167
v 0.07087152 0.03687931 -0.00010167
v 0.07079070 0.03695498 0.00134007
v 0.07080064 0.03684439 0.00105981
v 0.06415397 0.03684439 0.02741808
v 0.06440439 0.04527792 -0.00010167
v 0.06415397 0.04533778 0.00016512
v 0.07088146 0.03711545 -0.00010167
v 0.07078276 0.03684439 0.00127809
v 0.07092121 0.03808826 -0.00010167
v 0.07090001 0.03808826 0.00016512
v 0.07079998 0.03808826 0.00136702
v 0.06997453 0.03684439 0.01023575
v 0.06433748 0.03684439 0.02742886
v 0.06415397 0.03763013 0.02683600
v 0.06556572 0.04499855 -0.00010167
v 0.06556506 0.04499855 0.00016512
v 0.06415397 0.04531866 0.00163650
v 0.06554452 0.04499190 0.00163650
v 0.07084966 0.03925231 -0.00010167
v 0.07083774 0.03916916 0.00016512
v 0.07078540 0.03892139 0.00108406
v 0.06995002 0.03684439 0.01046212
v 0.06471046 0.03722853 0.02716207
v 0.06560547 0.03684439 0.02671203
v 0.06415397 0.03791449 0.02662310
v 0.06630107 0.04461524 -0.00010167
v 0.06630041 0.04461358 0.00016512
v 0.06415397 0.04522969 0.00309981
v 0.06538553 0.04494533 0.00310789
v 0.06627988 0.04455870 0.00163650
v 0.06787115 0.04326994 0.00576770
v 0.07063237 0.03997651 -0.00010167
v 0.06929615 0.03883242 0.01415945
v 0.06981156 0.03808826 0.01046212
v 0.06978771 0.03684439 0.01193351
v 0.06981354 0.03684439 0.01170444
v 0.06560481 0.03688264 0.02665813
v 0.06510662 0.03750707 0.02618115
v 0.06415397 0.03798350 0.02650184
v 0.06565184 0.03684439 0.02665813
v 0.06644351 0.04452461 -0.00010167
v 0.06808182 0.04343540 -0.00010167
v 0.06415397 0.04522886 0.00310789
v 0.06489264 0.04471419 0.00683216
v 0.06497677 0.04476906 0.00605066
v 0.06807189 0.04342875 0.00016512
v 0.06792084 0.04330735 0.00457927
v 0.06932265 0.04180739 0.00407264
v 0.06936968 0.04187058 0.00310789
v 0.06870588 0.04260560 0.00310789
v 0.06875556 0.04267877 0.00163650
v 0.06880724 0.04274196 0.00016512
v 0.06881718 0.04275277 -0.00010167
v 0.06669724 0.04203771 0.01487089
v 0.06811760 0.04209924 0.01046212
v 0.06824810 0.04229130 0.00899073
v 0.07011166 0.04100836 -0.00010167
v 0.06981156 0.04102998 0.00310789
v 0.06960155 0.04113557 0.00456849
v 0.06956313 0.04083541 0.00605066
v 0.06937631 0.04046042 0.00899073
v 0.06931735 0.04034236 0.00991507
v 0.06934053 0.03897543 0.01340489
v 0.06903513 0.03971044 0.01340489
v 0.06886421 0.03941694 0.01473884
v 0.06783074 0.03736572 0.02151637
v 0.06824479 0.03684439 0.02075643
v 0.06830773 0.03684439 0.02051928
v 0.06919346 0.03836181 0.01514037
v 0.06929747 0.03738069 0.01563892
v 0.06933391 0.03795772 0.01473884
v 0.06947303 0.03808826 0.01340489
v 0.06964461 0.03684439 0.01317583
v 0.06608709 0.03714871 0.02555864
v 0.06518612 0.03903280 0.02333809
v 0.06415397 0.03801260 0.02644794
v 0.06526231 0.04052029 0.02049503
v 0.06648326 0.03684439 0.02528915
v 0.06415397 0.04507088 0.00457927
v 0.06415397 0.04489295 0.00605066
v 0.06415397 0.04475327 0.00716363
v 0.06609504 0.04171926 0.01697825
v 0.06650247 0.04189220 0.01600003
v 0.06898346 0.04119461 0.00899073
v 0.06942997 0.04194375 0.00163650
v 0.06948429 0.04200611 0.00016512
v 0.06949357 0.04201775 -0.00010167
v 0.06795926 0.04191049 0.01162360
v 0.06829978 0.04086285 0.01340489
v 0.06889204 0.04091108 0.01042709
v 0.06809639 0.04059595 0.01487089
v 0.06826466 0.03961566 0.01632341
v 0.06805466 0.03913341 0.01781366
v 0.06788043 0.03889727 0.01868409
v 0.06643224 0.03743224 0.02457772
v 0.06666610 0.03684439 0.02497116
v 0.06763001 0.03697327 0.02249460
v 0.06773137 0.03684439 0.02237603
v 0.06792084 0.03684439 0.02187748
v 0.06865023 0.03684439 0.01905598
v 0.06932000 0.03684439 0.01598655
v 0.06947502 0.03684439 0.01464452
v 0.06624277 0.04020101 0.01985096
v 0.06415397 0.03814646 0.02619732
v 0.06415397 0.03917748 0.02399024
v 0.06415397 0.03869190 0.02516789
v 0.06511457 0.04179243 0.01719923
v 0.06456935 0.04179243 0.01719923
v 0.06649982 0.04045627 0.01887003
v 0.06673765 0.04074977 0.01781366
v 0.06710069 0.04106157 0.01639886
v 0.06791752 0.04040222 0.01581947
v 0.06743325 0.04133097 0.01487089
v 0.06708280 0.03954914 0.01926887
v 0.06769891 0.04014364 0.01680039
v 0.06747300 0.03986842 0.01781366
v 0.06668664 0.03921074 0.02075643
v 0.06755581 0.03684439 0.02283415
f 1 2 3
f 1 3 6
f 1 6 11
f 1 11 21
f 1 21 32
f 1 32 47
f 1 47 48
f 1 48 59
f 1 59 93
f 1 93 63
f 1 63 38
f 1 38 25
f 1 25 15
f 1 15 13
f 1 13 7
f 1 7 4
f 1 4 9
f 1 9 14
f 1 14 18
f 1 18 28
f 1 28 42
f 1 42 41
f 1 41 79
f 1 79 108
f 1 108 107
f 1 107 106
f 1 106 74
f 1 74 73
f 1 73 105
f 1 105 104
f 1 104 124
f 1 124 102
f 1 102 84
f 1 84 46
f 1 46 30
f 1 30 19
f 1 19 10
f 1 10 5
f 1 5 2
f 2 5 10
f 2 10 20
f 2 20 31
f 2 31 45
f 2 45 82
f 2 82 110
f 2 110 112
f 2 112 111
f 2 111 87
f 2 87 86
f 2 86 85
f 2 85 49
f 2 49 34
f 2 34 23
f 2 23 12
f 2 12 6
f 2 6 3
f 4 7 8
f 4 8 9
f 6 12 11
f 7 13 8
f 8 14 9
f 8 13 15
f 8 15 16
f 8 16 17
f 8 17 18
f 8 18 14
f 10 19 20
f 11 12 22
f 11 22 21
f 12 23 24
f 12 24 22
f 15 25 26
f 15 26 27
f 15 27 16
f 16 27 17
f 17 27 18
f 18 27 28
f 19 29 20
f 19 30 29
f 20 29 31
f 21 22 32
f 22 33 32
f 22 24 33
f 23 34 35
f 23 35 24
f 24 36 33
f 24 35 37
f 24 37 36
f 25 38 39
f 25 39 26
f 26 39 27
f 27 39 40
f 27 40 41
f 27 41 42
f 27 42 28
f 29 30 43
f 29 43 44
f 29 44 45
f 29 45 31
f 30 46 43
f 32 33 47
f 33 36 48
f 33 48 47
f 34 49 50
f 34 50 51
f 34 51 35
f 35 51 50
f 35 50 37
f 36 52 48
f 36 37 53
f 36 53 52
f 37 54 55
f 37 55 56
f 37 56 57
f 37 57 58
f 37 58 59
f 37 59 53
f 37 50 60
f 37 60 61
f 37 61 62
f 37 62 54
f 38 63 64
f 38 64 65
f 38 65 66
f 38 66 67
f 38 67 68
f 38 68 69
f 38 69 39
f 39 70 71
f 39 71 72
f 39 72 73
f 39 73 74
f 39 74 75
f 39 75 76
f 39 76 77
f 39 77 78
f 39 78 40
f 39 69 68
f 39 68 70
f 40 78 41
f 41 78 79
f 43 46 80
f 43 80 44
f 44 80 81
f 44 81 45
f 45 81 83
f 45 83 82
f 46 84 80
f 48 52 53
f 48 53 59
f 49 85 50
f 50 85 86
f 50 86 87
f 50 87 88
f 50 88 89
f 50 89 60
f 54 65 64
f 54 64 63
f 54 63 55
f 54 62 90
f 54 90 68
f 54 68 67
f 54 67 65
f 55 63 91
f 55 91 56
f 56 91 57
f 57 91 92
f 57 92 93
f 57 93 58
f 58 93 59
f 60 89 61
f 61 89 94
f 61 94 95
f 61 95 96
f 61 96 90
f 61 90 62
f 63 93 92
f 63 92 91
f 65 67 66
f 68 90 96
f 68 96 70
f 70 96 95
f 70 95 97
f 70 97 71
f 71 97 98
f 71 98 99
f 71 99 72
f 72 100 101
f 72 101 102
f 72 102 103
f 72 103 104
f 72 104 105
f 72 105 73
f 72 99 100
f 74 106 75
f 75 106 76
f 76 107 78
f 76 78 77
f 76 106 107
f 78 107 108
f 78 108 79
f 80 84 101
f 80 101 109
f 80 109 81
f 81 109 83
f 82 83 110
f 83 111 112
f 83 112 110
f 83 109 88
f 83 88 113
f 83 113 111
f 84 102 101
f 87 111 114
f 87 114 113
f 87 113 88
f 88 109 89
f 89 109 115
f 89 115 116
f 89 116 117
f 89 117 118
f 89 118 119
f 89 119 94
f 94 119 97
f 94 97 95
f 97 119 118
f 97 118 98
f 98 118 99
f 99 118 100
f 100 120 101
f 100 118 121
f 100 121 122
f 100 122 120
f 101 120 123
f 101 123 115
f 101 115 109
f 102 124 103
f 103 124 104
f 111 113 114
f 115 123 116
f 116 122 121
f 116 121 118
f 116 118 117
f 116 123 120
f 116 120 122

