# https://github.com/mikedh/trimesh
v 0.05715478 0.03684439 0.02984422
v 0.05715478 0.03706134 0.02953169
v 0.05679087 0.03694664 0.02972757
v 0.05679087 0.03684439 0.02987284
v 0.05715478 0.03684439 0.02698956
v 0.05715478 0.03744366 0.02897704
v 0.05679087 0.03745433 0.02899245
v 0.05532014 0.03749612 0.02905407
v 0.05532014 0.03698043 0.02978920
v 0.05532014 0.03684439 0.02997408
v 0.04685762 0.03684439 0.02498448
v 0.05384940 0.04238360 0.00753517
v 0.05715478 0.04381331 0.00753517
v 0.05715478 0.03914632 0.02643272
v 0.05384940 0.03753879 0.02910030
v 0.05384940 0.03698665 0.02983542
v 0.05384940 0.03684439 0.03001810
v 0.04685762 0.03684439 0.02833436
v 0.04685762 0.04208308 0.00753517
v 0.05715478 0.04524657 0.00753517
v 0.05715478 0.03929747 0.02613118
v 0.05679087 0.03914454 0.02644592
v 0.05237867 0.03754857 0.02910470
v 0.05237867 0.03684439 0.02999609
v 0.05237867 0.03696976 0.02984202
v 0.04758643 0.03684439 0.02865790
v 0.04703403 0.03740009 0.02746057
v 0.04685762 0.03723916 0.02765206
v 0.04685762 0.04428543 0.00753517
v 0.05500361 0.04592763 0.00753517
v 0.05715478 0.04489270 0.01048447
v 0.05715478 0.04199595 0.02052531
v 0.05679087 0.04200306 0.02051651
v 0.05532014 0.03910987 0.02648554
v 0.05384940 0.03866620 0.02719425
v 0.05384940 0.03906719 0.02645693
v 0.05237867 0.03902451 0.02636229
v 0.05090894 0.03896227 0.02619941
v 0.05090894 0.03745344 0.02898365
v 0.05090894 0.03694486 0.02972097
v 0.05073153 0.03684439 0.02983322
v 0.05090894 0.03684439 0.02985743
v 0.05213674 0.03684439 0.02998729
v 0.04952994 0.03684439 0.02946786
v 0.05012670 0.03736364 0.02886479
v 0.04685762 0.03750145 0.02719866
v 0.04989989 0.03888937 0.02602334
v 0.04685762 0.03893204 0.02462792
v 0.04685762 0.04419474 0.00982198
v 0.04790397 0.04555331 0.00753517
v 0.05715478 0.04475755 0.01148812
v 0.04824670 0.04592763 0.00753517
v 0.05384940 0.04592763 0.00789393
v 0.05715478 0.04397513 0.01487541
v 0.05715478 0.04327717 0.01719744
v 0.05679087 0.04328962 0.01723045
v 0.05532014 0.04333941 0.01736031
v 0.05384940 0.04337853 0.01739773
v 0.05237867 0.04335630 0.01730529
v 0.05090894 0.04369772 0.01634566
v 0.04869730 0.04029506 0.02296399
v 0.04685762 0.04046044 0.02186790
v 0.04685762 0.04410494 0.01136486
v 0.04943821 0.04592763 0.00796876
v 0.04685762 0.04383820 0.01303760
v 0.04685762 0.04357502 0.01440881
v 0.04685762 0.04328428 0.01575800
v 0.04692717 0.04329317 0.01580202
v 0.04796747 0.04375374 0.01487541
v 0.05001077 0.04473621 0.01277789
v 0.05099059 0.04592763 0.00795336
v 0.05090894 0.04475400 0.01288133
v 0.05237867 0.04473888 0.01284392
v 0.05384940 0.04379197 0.01634566
v 0.05532014 0.04370750 0.01634566
v 0.05715478 0.04368794 0.01598250
v 0.05715478 0.04357236 0.01637427
v 0.05679087 0.04360792 0.01634566
v 0.05237867 0.04380619 0.01634566
v 0.04943821 0.04397957 0.01487541
v 0.04796747 0.04339187 0.01603973
v 0.04955514 0.04347544 0.01642710
v 0.04685762 0.04194971 0.01893401
v 0.04949567 0.04592763 0.00796876
v 0.04685762 0.04324872 0.01587906
v 0.04685762 0.04257121 0.01756060
f 1 2 3
f 1 3 4
f 1 4 10
f 1 10 17
f 1 17 24
f 1 24 43
f 1 43 42
f 1 42 41
f 1 41 44
f 1 44 26
f 1 26 18
f 1 18 11
f 1 11 5
f 1 5 13
f 1 13 20
f 1 20 31
f 1 31 51
f 1 51 54
f 1 54 76
f 1 76 77
f 1 77 55
f 1 55 32
f 1 32 21
f 1 21 14
f 1 14 6
f 1 6 2
f 2 6 7
f 2 7 8
f 2 8 3
f 3 9 4
f 3 8 9
f 4 9 10
f 5 11 12
f 5 12 13
f 6 14 7
f 7 14 8
f 8 15 9
f 8 14 15
f 9 15 10
f 10 15 16
f 10 16 17
f 11 18 28
f 11 28 46
f 11 46 48
f 11 48 62
f 11 62 83
f 11 83 86
f 11 86 85
f 11 85 67
f 11 67 66
f 11 66 65
f 11 65 63
f 11 63 49
f 11 49 29
f 11 29 19
f 11 19 12
f 12 19 29
f 12 29 50
f 12 50 52
f 12 52 30
f 12 30 20
f 12 20 13
f 14 21 22
f 14 22 15
f 15 23 16
f 15 22 23
f 16 23 17
f 17 23 25
f 17 25 24
f 18 26 27
f 18 27 28
f 20 30 31
f 21 32 33
f 21 33 22
f 22 33 34
f 22 34 23
f 23 35 36
f 23 36 37
f 23 37 38
f 23 38 39
f 23 39 40
f 23 40 41
f 23 41 42
f 23 42 43
f 23 43 25
f 23 34 35
f 24 25 43
f 26 44 45
f 26 45 27
f 27 46 28
f 27 45 47
f 27 47 48
f 27 48 46
f 29 49 50
f 30 51 31
f 30 52 64
f 30 64 84
f 30 84 71
f 30 71 53
f 30 53 54
f 30 54 51
f 32 55 56
f 32 56 57
f 32 57 58
f 32 58 33
f 33 58 34
f 34 36 35
f 34 58 36
f 36 58 59
f 36 59 37
f 37 59 60
f 37 60 38
f 38 47 39
f 38 60 61
f 38 61 47
f 39 45 44
f 39 44 41
f 39 41 40
f 39 47 45
f 47 61 48
f 48 61 62
f 49 63 50
f 50 63 52
f 52 63 65
f 52 65 66
f 52 66 67
f 52 67 68
f 52 68 69
f 52 69 70
f 52 70 64
f 53 71 72
f 53 72 73
f 53 73 74
f 53 74 54
f 54 74 75
f 54 75 76
f 55 77 78
f 55 78 75
f 55 75 56
f 56 75 57
f 57 75 74
f 57 74 58
f 58 74 79
f 58 79 59
f 59 79 60
f 60 79 70
f 60 70 80
f 60 80 81
f 60 81 82
f 60 82 83
f 60 83 61
f 61 83 62
f 64 70 72
f 64 72 84
f 67 85 68
f 68 85 86
f 68 86 81
f 68 81 69
f 69 81 70
f 70 81 80
f 70 79 72
f 71 84 72
f 72 79 74
f 72 74 73
f 75 78 76
f 76 78 77
f 81 86 82
f 82 86 83

