# https://github.com/mikedh/trimesh
v 0.03791625 -0.00855914 0.03536063
v 0.04092151 -0.00855914 0.02781720
v 0.03661955 -0.00855914 0.03536063
v 0.04245527 -0.03596297 0.03536063
v 0.03900674 -0.00855914 0.02781720
v 0.04245527 -0.03598472 0.03533258
v 0.04245527 -0.04258194 0.02781720
v 0.03676807 -0.00855914 0.03294313
v 0.03672123 -0.02221756 0.03105284
v 0.03662241 -0.01791124 0.03536063
v 0.04245527 -0.03951170 0.03536063
v 0.03862515 -0.00855914 0.02837395
v 0.03788426 -0.01515636 0.02781720
v 0.04245527 -0.04559056 0.02781720
v 0.03679720 -0.00855914 0.03252299
v 0.03679492 -0.02516093 0.02958196
v 0.03672923 -0.02368925 0.03105284
v 0.03670524 -0.02221756 0.03252299
v 0.03666068 -0.01937930 0.03536063
v 0.04193145 -0.03860911 0.03536063
v 0.04245527 -0.03977631 0.03506158
v 0.03835210 -0.00855914 0.02878081
v 0.03792139 -0.00855914 0.02948966
v 0.03767234 -0.01662805 0.02781720
v 0.04245527 -0.04557244 0.02784674
v 0.04238501 -0.04550719 0.02781720
v 0.03685947 -0.00855914 0.03190200
v 0.03691088 -0.02693711 0.02781720
v 0.03691088 -0.02697698 0.02781720
v 0.03693144 -0.02740471 0.02781720
v 0.03688003 -0.02671599 0.02945496
v 0.03681263 -0.02516093 0.03105284
v 0.03676007 -0.02085099 0.03536063
v 0.03679435 -0.02368925 0.03252299
v 0.04181606 -0.03840974 0.03536063
v 0.04156643 -0.04021492 0.03282425
v 0.04135622 -0.04206359 0.03031002
v 0.04245527 -0.04104500 0.03357151
v 0.03717993 -0.00855914 0.03091181
v 0.03689146 -0.00855914 0.03164651
v 0.03709025 -0.00855914 0.03112151
v 0.04245527 -0.04540207 0.02811330
v 0.04162070 -0.04451036 0.02781720
v 0.03693202 -0.02740109 0.02811108
v 0.03769404 -0.03398018 0.02781720
v 0.03693487 -0.02736847 0.02888049
v 0.03763178 -0.03251212 0.03105284
v 0.03769061 -0.03251212 0.03252299
v 0.03690517 -0.02621214 0.03105284
v 0.03693316 -0.02592940 0.03182520
v 0.03690231 -0.02507394 0.03239894
v 0.03692116 -0.02312377 0.03492793
v 0.03688175 -0.02228643 0.03536063
v 0.04136822 -0.03762315 0.03536063
v 0.04125511 -0.03782252 0.03491317
v 0.04111973 -0.04100151 0.03105284
v 0.03998755 -0.04187510 0.02781720
v 0.04036227 -0.04251669 0.02781720
v 0.04063190 -0.04276318 0.02806235
v 0.04110431 -0.04247682 0.02932943
v 0.04105347 -0.04367302 0.02781720
v 0.04115401 -0.04383614 0.02781720
v 0.04120484 -0.04391226 0.02781720
v 0.04245527 -0.04261094 0.03166571
v 0.04245527 -0.04437261 0.02947490
v 0.04245527 -0.04419500 0.02969937
v 0.04245527 -0.04325254 0.03087194
v 0.03773117 -0.03427379 0.02781720
v 0.03769918 -0.03398018 0.02811108
v 0.03775573 -0.03398018 0.02958196
v 0.03784428 -0.03398018 0.03105284
v 0.03809790 -0.03404180 0.03255621
v 0.03802878 -0.03259912 0.03408174
v 0.03764377 -0.03104043 0.03399387
v 0.03688746 -0.02235168 0.03536063
v 0.03980418 -0.03485739 0.03536063
v 0.03971621 -0.03499876 0.03504829
v 0.03978019 -0.03782977 0.03197953
v 0.03981218 -0.03924346 0.03044588
v 0.04039255 -0.03978718 0.03098270
v 0.03976134 -0.04143649 0.02781720
v 0.03984474 -0.04065715 0.02891076
v 0.03823443 -0.03359232 0.03364978
v 0.04054564 -0.04282480 0.02781720
v 0.03792425 -0.03545187 0.02781720
v 0.03794081 -0.03545187 0.02811108
v 0.03805735 -0.03545187 0.02958196
v 0.03832754 -0.03647045 0.02958196
v 0.03837952 -0.03627471 0.03042595
v 0.03823043 -0.03546274 0.03097088
v 0.03829898 -0.03497701 0.03208807
v 0.03822186 -0.03216776 0.03506454
v 0.03810818 -0.03145366 0.03536063
v 0.03804535 -0.03123980 0.03536063
v 0.03800594 -0.03106943 0.03536063
v 0.03768662 -0.02967387 0.03536063
v 0.03952599 -0.03434267 0.03536063
v 0.03848977 -0.03314647 0.03463036
v 0.03957626 -0.03834812 0.03098270
v 0.03972821 -0.04135312 0.02781720
v 0.03799794 -0.03580710 0.02781720
v 0.03824014 -0.03683294 0.02781720
v 0.03825099 -0.03676407 0.02811108
v 0.03927864 -0.04015692 0.02781720
v 0.03831440 -0.03199014 0.03536063
v 0.03936090 -0.03403093 0.03536063
v 0.03854804 -0.03244687 0.03536063
f 1 2 5
f 1 5 12
f 1 12 22
f 1 22 23
f 1 23 39
f 1 39 41
f 1 41 40
f 1 40 27
f 1 27 15
f 1 15 8
f 1 8 3
f 1 3 10
f 1 10 19
f 1 19 33
f 1 33 53
f 1 53 75
f 1 75 96
f 1 96 95
f 1 95 94
f 1 94 93
f 1 93 105
f 1 105 107
f 1 107 106
f 1 106 97
f 1 97 76
f 1 76 54
f 1 54 35
f 1 35 20
f 1 20 11
f 1 11 4
f 1 4 2
f 2 4 6
f 2 6 7
f 2 7 14
f 2 14 26
f 2 26 43
f 2 43 63
f 2 63 62
f 2 62 61
f 2 61 84
f 2 84 58
f 2 58 57
f 2 57 81
f 2 81 100
f 2 100 104
f 2 104 102
f 2 102 101
f 2 101 85
f 2 85 68
f 2 68 45
f 2 45 30
f 2 30 29
f 2 29 28
f 2 28 24
f 2 24 13
f 2 13 5
f 3 8 9
f 3 9 10
f 4 11 21
f 4 21 38
f 4 38 64
f 4 64 67
f 4 67 66
f 4 66 65
f 4 65 42
f 4 42 25
f 4 25 14
f 4 14 7
f 4 7 6
f 5 13 12
f 8 15 9
f 9 16 17
f 9 17 10
f 9 15 16
f 10 17 18
f 10 18 19
f 11 20 21
f 12 13 22
f 13 23 22
f 13 24 23
f 14 25 26
f 15 27 28
f 15 28 16
f 16 28 29
f 16 29 30
f 16 30 31
f 16 31 17
f 17 31 32
f 17 32 18
f 18 32 19
f 19 32 34
f 19 34 33
f 20 35 36
f 20 36 21
f 21 36 37
f 21 37 38
f 23 24 39
f 24 40 41
f 24 41 39
f 24 28 40
f 25 42 26
f 26 42 43
f 27 40 28
f 30 44 31
f 30 45 44
f 31 44 46
f 31 46 47
f 31 47 48
f 31 48 49
f 31 49 32
f 32 49 50
f 32 50 34
f 33 34 51
f 33 51 52
f 33 52 53
f 34 50 51
f 35 54 55
f 35 55 56
f 35 56 36
f 36 56 37
f 37 56 57
f 37 57 58
f 37 58 59
f 37 59 60
f 37 60 61
f 37 61 62
f 37 62 38
f 38 62 63
f 38 63 64
f 42 65 43
f 43 65 66
f 43 66 67
f 43 67 63
f 44 45 46
f 45 68 69
f 45 69 46
f 46 69 47
f 47 69 70
f 47 70 48
f 48 70 71
f 48 71 72
f 48 72 73
f 48 73 74
f 48 74 49
f 49 74 50
f 50 52 51
f 50 74 52
f 52 75 53
f 52 74 75
f 54 76 77
f 54 77 55
f 55 78 79
f 55 79 80
f 55 80 56
f 55 77 78
f 56 80 79
f 56 79 57
f 57 79 82
f 57 82 83
f 57 83 81
f 58 84 59
f 59 84 61
f 59 61 60
f 63 67 64
f 68 70 69
f 68 85 70
f 70 85 86
f 70 86 71
f 71 86 87
f 71 87 88
f 71 88 89
f 71 89 90
f 71 90 72
f 72 83 73
f 72 90 91
f 72 91 83
f 73 83 92
f 73 92 93
f 73 93 94
f 73 94 74
f 74 94 95
f 74 95 96
f 74 96 75
f 76 97 98
f 76 98 77
f 77 98 83
f 77 83 78
f 78 99 79
f 78 83 99
f 79 99 82
f 81 83 91
f 81 91 89
f 81 89 100
f 82 99 83
f 83 98 92
f 85 101 86
f 86 101 87
f 87 101 102
f 87 102 103
f 87 103 88
f 88 103 104
f 88 104 89
f 89 91 90
f 89 104 100
f 92 105 93
f 92 98 106
f 92 106 107
f 92 107 105
f 97 106 98
f 102 104 103

