# https://github.com/mikedh/trimesh
v 0.01921561 0.08515308 0.00763997
v 0.01707889 0.08662490 0.00763255
v 0.01854941 0.08515308 0.00764183
v 0.01921561 0.08221282 0.00761583
v 0.01921561 0.08665180 0.00743013
v 0.01854941 0.08662490 0.00757869
v 0.01119685 0.08809559 0.00760283
v 0.00972633 0.08809559 0.00760655
v 0.01266736 0.08662490 0.00762326
v 0.01854941 0.08221282 0.00761583
v 0.01921561 0.08074212 0.00754527
v 0.01921561 0.08754745 0.00701974
v 0.01854941 0.08767860 0.00713301
v 0.01707889 0.08792297 0.00721101
v 0.01413659 0.08809559 0.00742642
v 0.01266736 0.08809559 0.00754527
v 0.01119685 0.08918965 0.00718315
v 0.00615235 0.08962234 0.00719987
v 0.00678403 0.08809559 0.00758983
v 0.00825454 0.08662490 0.00758983
v 0.00972633 0.08515308 0.00758798
v 0.01119685 0.08368351 0.00758612
v 0.01707889 0.08221282 0.00760655
v 0.00825454 0.08368351 0.00754341
v 0.00678403 0.08368351 0.00748584
v 0.00615235 0.08368351 0.00744128
v 0.01854941 0.08074212 0.00748584
v 0.01921561 0.07953821 0.00708844
v 0.01921561 0.08774810 0.00604667
v 0.01854941 0.08801377 0.00604667
v 0.01707889 0.08849466 0.00604667
v 0.01520943 0.08888251 0.00687489
v 0.01413659 0.08896658 0.00699188
v 0.01266736 0.08907979 0.00711259
v 0.00615235 0.09032181 0.00681547
v 0.00615235 0.08809559 0.00758426
v 0.00678403 0.08662490 0.00757498
v 0.00972633 0.08368351 0.00756941
v 0.00615235 0.08515308 0.00754155
v 0.00615235 0.08268586 0.00706987
v 0.01921561 0.07920641 0.00601881
v 0.01921561 0.08776828 0.00523701
v 0.01764792 0.08874351 -0.00865893
v 0.01636921 0.08883655 0.00267250
v 0.01616078 0.08876593 0.00604667
v 0.00616897 0.09032069 0.00681361
v 0.01542553 0.08891614 0.00604667
v 0.00615235 0.09035656 0.00604667
v 0.00615235 0.08662490 0.00756569
v 0.00678403 0.08515308 0.00755084
v 0.00615235 0.08243140 0.00604667
v 0.01921561 0.07922883 0.00515902
v 0.00615235 0.08245494 0.00457592
v 0.00615235 0.08249754 0.00247380
v 0.00615235 0.08254462 0.00016369
v 0.00615235 0.08266456 -0.00571744
v 0.00615235 0.08270828 -0.00784556
v 0.00615235 0.08272509 -0.00865893
v 0.01921561 0.08810905 -0.00865893
v 0.01854941 0.08838032 -0.00865893
v 0.01921561 0.08804067 -0.00930145
v 0.01743693 0.08864150 -0.01012967
v 0.01670168 0.08890605 -0.01012967
v 0.01691266 0.08895200 -0.00865893
v 0.01574009 0.08892734 0.00314046
v 0.01552271 0.08893183 0.00457592
v 0.01560838 0.08918853 -0.00865893
v 0.01560838 0.08909885 -0.00424669
v 0.01413659 0.08911679 0.00604667
v 0.01266736 0.08934546 0.00604667
v 0.00627766 0.09033751 0.00604667
v 0.00615235 0.09041710 0.00310518
v 0.01921561 0.07959090 -0.00865893
v 0.00615235 0.08275648 -0.00942030
v 0.01921561 0.08792745 -0.01013153
v 0.01641525 0.08884440 -0.01087804
v 0.00760496 0.09031397 -0.01087990
v 0.00783896 0.09035096 -0.01012967
v 0.01560838 0.08897891 0.00163443
v 0.01413659 0.08941720 -0.00865893
v 0.00788500 0.09035881 -0.00718818
v 0.00678403 0.09043952 -0.00277595
v 0.00615235 0.09062784 -0.00718818
v 0.00615235 0.08279011 -0.01012967
v 0.01921561 0.07967609 -0.00970627
v 0.01921561 0.08773913 -0.01063106
v 0.01921561 0.08753512 -0.01095418
v 0.01854941 0.08764049 -0.01098018
v 0.01560838 0.08889708 -0.01092447
v 0.00678403 0.09037226 -0.01093561
v 0.00615235 0.09052135 -0.01059021
v 0.00615235 0.09059981 -0.01012967
v 0.00678403 0.09050901 -0.01012967
v 0.00615235 0.09062896 -0.00949829
v 0.00615235 0.09065698 -0.00865893
v 0.00678403 0.09055946 -0.00865893
v 0.00798218 0.09037338 -0.00865893
v 0.00615235 0.09064465 -0.00802755
v 0.00615235 0.08284055 -0.01063663
v 0.01921561 0.07971981 -0.01012967
v 0.01921561 0.08664956 -0.01106374
v 0.01854941 0.08662490 -0.01111017
v 0.01413659 0.08809559 -0.01113431
v 0.01560838 0.08809559 -0.01106189
v 0.01413659 0.08898115 -0.01098389
v 0.00615235 0.09041373 -0.01097089
v 0.00615235 0.08289324 -0.01092632
v 0.01921561 0.07986889 -0.01083162
v 0.01921561 0.08595905 -0.01111202
v 0.01707889 0.08662490 -0.01113431
v 0.01266736 0.08809559 -0.01117331
v 0.00615235 0.08956629 -0.01116774
v 0.00615235 0.08995414 -0.01108046
v 0.00678403 0.08285064 -0.01097089
v 0.01921561 0.07991485 -0.01093932
v 0.01909925 0.07993167 -0.01093190
v 0.00615235 0.08317011 -0.01101917
v 0.01921561 0.08448948 -0.01113988
v 0.01921561 0.08368351 -0.01115474
v 0.01854941 0.08221282 -0.01119188
v 0.01413659 0.08515308 -0.01120673
v 0.00678403 0.08809559 -0.01126616
v 0.01119685 0.08809559 -0.01119745
v 0.00615235 0.08872669 -0.01124573
v 0.00825454 0.08275872 -0.01104517
v 0.00678403 0.08368351 -0.01120302
v 0.00825454 0.08368351 -0.01126801
v 0.01921561 0.08032064 -0.01102103
v 0.00615235 0.08364203 -0.01115102
v 0.01921561 0.08221282 -0.01118073
v 0.01921561 0.08154809 -0.01117516
v 0.01119685 0.08368351 -0.01127730
v 0.00615235 0.08515308 -0.01132929
v 0.00615235 0.08809559 -0.01127544
v 0.00615235 0.08431461 -0.01126244
v 0.00972633 0.08368351 -0.01128844
v 0.01921561 0.08073539 -0.01109160
f 1 2 3
f 1 3 4
f 1 4 11
f 1 11 28
f 1 28 41
f 1 41 52
f 1 52 73
f 1 73 85
f 1 85 100
f 1 100 108
f 1 108 115
f 1 115 128
f 1 128 137
f 1 137 131
f 1 131 130
f 1 130 119
f 1 119 118
f 1 118 109
f 1 109 101
f 1 101 87
f 1 87 86
f 1 86 75
f 1 75 61
f 1 61 59
f 1 59 42
f 1 42 29
f 1 29 12
f 1 12 5
f 1 5 6
f 1 6 2
f 2 7 8
f 2 8 9
f 2 9 3
f 2 6 7
f 3 9 10
f 3 10 4
f 4 10 11
f 5 12 13
f 5 13 6
f 6 13 14
f 6 14 15
f 6 15 16
f 6 16 7
f 7 16 17
f 7 17 18
f 7 18 8
f 8 18 19
f 8 19 9
f 9 19 20
f 9 20 21
f 9 21 22
f 9 22 10
f 10 22 23
f 10 23 11
f 11 23 24
f 11 24 25
f 11 25 26
f 11 26 27
f 11 27 28
f 12 29 30
f 12 30 31
f 12 31 32
f 12 32 13
f 13 32 14
f 14 32 33
f 14 33 34
f 14 34 15
f 15 34 16
f 16 34 17
f 17 34 35
f 17 35 18
f 18 36 19
f 18 35 48
f 18 48 72
f 18 72 83
f 18 83 98
f 18 98 95
f 18 95 94
f 18 94 92
f 18 92 91
f 18 91 106
f 18 106 113
f 18 113 112
f 18 112 124
f 18 124 134
f 18 134 133
f 18 133 135
f 18 135 129
f 18 129 117
f 18 117 107
f 18 107 99
f 18 99 84
f 18 84 74
f 18 74 58
f 18 58 57
f 18 57 56
f 18 56 55
f 18 55 54
f 18 54 53
f 18 53 51
f 18 51 40
f 18 40 26
f 18 26 39
f 18 39 49
f 18 49 36
f 19 36 20
f 20 36 37
f 20 37 21
f 21 37 22
f 22 37 38
f 22 38 23
f 23 38 24
f 24 38 39
f 24 39 25
f 25 39 26
f 26 40 27
f 27 40 28
f 28 40 41
f 29 42 43
f 29 43 30
f 30 44 31
f 30 43 44
f 31 45 32
f 31 44 45
f 32 46 33
f 32 45 47
f 32 47 46
f 33 46 35
f 33 35 34
f 35 46 48
f 36 49 37
f 37 49 39
f 37 39 50
f 37 50 38
f 38 50 39
f 40 51 41
f 41 51 53
f 41 53 54
f 41 54 55
f 41 55 56
f 41 56 57
f 41 57 58
f 41 58 52
f 42 59 60
f 42 60 43
f 43 60 61
f 43 61 62
f 43 62 63
f 43 63 64
f 43 64 44
f 44 65 66
f 44 66 47
f 44 47 45
f 44 64 67
f 44 67 68
f 44 68 65
f 46 47 69
f 46 69 70
f 46 70 71
f 46 71 48
f 47 66 69
f 48 71 72
f 52 58 73
f 58 74 73
f 59 61 60
f 61 75 62
f 62 75 76
f 62 76 63
f 63 76 77
f 63 77 78
f 63 78 67
f 63 67 64
f 65 68 79
f 65 79 66
f 66 70 69
f 66 79 70
f 67 78 80
f 67 80 81
f 67 81 68
f 68 81 79
f 70 79 81
f 70 81 82
f 70 82 71
f 71 82 83
f 71 83 72
f 73 74 84
f 73 84 85
f 75 86 76
f 76 86 87
f 76 87 88
f 76 88 89
f 76 89 90
f 76 90 77
f 77 91 92
f 77 92 93
f 77 93 78
f 77 90 91
f 78 93 94
f 78 94 95
f 78 95 96
f 78 96 97
f 78 97 80
f 80 97 81
f 81 83 82
f 81 97 96
f 81 96 83
f 83 96 98
f 84 99 85
f 85 99 100
f 87 101 102
f 87 102 88
f 88 102 103
f 88 103 104
f 88 104 89
f 89 104 105
f 89 105 106
f 89 106 90
f 90 106 91
f 92 94 93
f 95 98 96
f 99 107 100
f 100 107 108
f 101 109 102
f 102 109 110
f 102 110 123
f 102 123 111
f 102 111 103
f 103 111 112
f 103 112 105
f 103 105 104
f 105 112 113
f 105 113 106
f 107 114 115
f 107 115 116
f 107 116 108
f 107 117 114
f 108 116 115
f 109 118 110
f 110 118 119
f 110 119 120
f 110 120 121
f 110 121 122
f 110 122 123
f 111 123 124
f 111 124 112
f 114 117 125
f 114 125 115
f 115 125 126
f 115 126 127
f 115 127 128
f 117 129 125
f 119 130 120
f 120 130 131
f 120 131 132
f 120 132 133
f 120 133 121
f 121 133 122
f 122 133 134
f 122 134 124
f 122 124 123
f 125 129 126
f 126 129 135
f 126 135 127
f 127 135 133
f 127 133 136
f 127 136 137
f 127 137 128
f 131 137 136
f 131 136 132
f 132 136 133

