# https://github.com/mikedh/trimesh
v 0.06964466 -0.03917077 0.00079592
v 0.06964121 -0.01339163 0.00079592
v 0.07102485 -0.03917077 0.00079592
v 0.06927948 -0.03917077 0.00220974
v 0.06964121 -0.01256072 0.00079592
v 0.07102542 -0.03901970 0.00079592
v 0.07095296 -0.03917077 0.00164042
v 0.06927948 -0.01256072 0.00220974
v 0.06574735 -0.03917077 0.03462814
v 0.06515214 -0.03545380 0.03836672
v 0.07102312 -0.01256072 0.00079592
v 0.07102600 -0.03839456 0.00079592
v 0.07076491 -0.03779807 0.00384656
v 0.06933066 -0.03917077 0.02046615
v 0.06515214 -0.03534440 0.03838096
v 0.06515214 -0.01256072 0.04554023
v 0.06572779 -0.03917077 0.03618430
v 0.06515214 -0.03639933 0.03881744
v 0.07102370 -0.01401937 0.00079592
v 0.07095181 -0.01256072 0.00164042
v 0.07102657 -0.02956969 0.00079592
v 0.06933987 -0.02221650 0.02056578
v 0.06933987 -0.02368818 0.02056103
v 0.06995003 -0.02956969 0.01340650
v 0.06957335 -0.02662893 0.01781878
v 0.06844332 -0.01780406 0.03105088
v 0.06856293 -0.02368818 0.02958011
v 0.06856063 -0.02515986 0.02958011
v 0.06855373 -0.02809801 0.02958011
v 0.06854625 -0.03104137 0.02958011
v 0.06853476 -0.03545380 0.02958011
v 0.06852670 -0.03839456 0.02958011
v 0.06851923 -0.03917077 0.02958011
v 0.06515214 -0.01256072 0.04925509
v 0.06599636 -0.03917077 0.03660655
v 0.06515214 -0.03624044 0.03919224
v 0.07102427 -0.01633499 0.00079592
v 0.07076549 -0.01780406 0.00385605
v 0.07082702 -0.01256072 0.00311118
v 0.07076491 -0.01339163 0.00384656
v 0.07102657 -0.02809801 0.00079592
v 0.07082932 -0.02368818 0.00311118
v 0.06995117 -0.01633499 0.01340650
v 0.06982581 -0.01339163 0.01487726
v 0.06944913 -0.01486331 0.01928954
v 0.06844504 -0.01486331 0.03105088
v 0.06844447 -0.01633499 0.03105088
v 0.06831795 -0.01633499 0.03252164
v 0.06831278 -0.01927574 0.03252164
v 0.06842952 -0.02515986 0.03105088
v 0.06830530 -0.02221650 0.03252164
v 0.06828632 -0.02956969 0.03252164
v 0.06815060 -0.03104137 0.03399239
v 0.06813910 -0.03545380 0.03399239
v 0.06839904 -0.03692288 0.03105088
v 0.06839501 -0.03839456 0.03105088
v 0.06826217 -0.03839456 0.03252164
v 0.06836971 -0.03917077 0.03105088
v 0.06515214 -0.01339163 0.04913174
v 0.06539655 -0.01339163 0.04870000
v 0.06546268 -0.01256072 0.04870000
v 0.06672843 -0.03917077 0.03657334
v 0.06651508 -0.03788142 0.03783060
v 0.06603776 -0.03788142 0.03783060
v 0.06515214 -0.03493285 0.04056337
v 0.07102600 -0.02368818 0.00079592
v 0.07082932 -0.02221650 0.00311118
v 0.06995117 -0.01256072 0.01340650
v 0.07079999 -0.01256072 0.00342905
v 0.06982581 -0.01256072 0.01487726
v 0.06977117 -0.01256072 0.01551775
v 0.06844504 -0.01256072 0.03105088
v 0.06831853 -0.01486331 0.03252164
v 0.06818453 -0.01486331 0.03399239
v 0.06818281 -0.01633499 0.03399239
v 0.06817993 -0.01780406 0.03399239
v 0.06816153 -0.02662893 0.03399239
v 0.06815808 -0.02809801 0.03399239
v 0.06800511 -0.03545380 0.03546316
v 0.06813508 -0.03692288 0.03399239
v 0.06799763 -0.03692288 0.03546316
v 0.06810287 -0.03839456 0.03399239
v 0.06799533 -0.03917077 0.03399239
v 0.06515214 -0.01463670 0.04888977
v 0.06515214 -0.01927574 0.04797885
v 0.06550926 -0.01927574 0.04722923
v 0.06579681 -0.01256072 0.04798834
v 0.06520792 -0.01473828 0.04877116
v 0.06699412 -0.03917077 0.03623175
v 0.06760600 -0.03872275 0.03581424
v 0.06706025 -0.03830079 0.03686275
v 0.06785444 -0.03774337 0.03626021
v 0.06674454 -0.03692288 0.03814373
v 0.06653981 -0.03518030 0.03940574
v 0.06515789 -0.03251044 0.04238047
v 0.06515214 -0.03253389 0.04237099
v 0.06515214 -0.03313037 0.04199618
v 0.06515214 -0.03348201 0.04175896
v 0.06838926 -0.01256072 0.03169137
v 0.06831737 -0.01339163 0.03252164
v 0.06831565 -0.01256072 0.03252164
v 0.06825584 -0.01256072 0.03316213
v 0.06817993 -0.01339163 0.03399239
v 0.06789814 -0.01256072 0.03693392
v 0.06782568 -0.01256072 0.03769302
v 0.06804191 -0.01486331 0.03546316
v 0.06803961 -0.01633499 0.03546316
v 0.06803271 -0.02074742 0.03546316
v 0.06803041 -0.02221650 0.03546316
v 0.06802063 -0.02809801 0.03546316
v 0.06801143 -0.03251044 0.03546316
v 0.06788377 -0.03104137 0.03681056
v 0.06788261 -0.03251044 0.03677735
v 0.06788147 -0.03398212 0.03662553
v 0.06787457 -0.03692288 0.03634561
v 0.06791712 -0.03829818 0.03538250
v 0.06786939 -0.03917077 0.03486062
v 0.06515214 -0.02059895 0.04761353
v 0.06638223 -0.01298789 0.04657451
v 0.06640121 -0.01256072 0.04662670
v 0.06628792 -0.01256072 0.04688764
v 0.06609930 -0.01256072 0.04731464
v 0.06526600 -0.02078128 0.04732413
v 0.06650300 -0.02809801 0.04242792
v 0.06638568 -0.02479259 0.04364248
v 0.06738862 -0.03917077 0.03564819
v 0.06698262 -0.01486331 0.04428772
v 0.06690038 -0.01633499 0.04428772
v 0.06677731 -0.01780406 0.04428772
v 0.06678249 -0.02368818 0.04281696
v 0.06691245 -0.02809801 0.04134620
v 0.06656856 -0.02662893 0.04266513
v 0.06643112 -0.02918158 0.04222391
v 0.06645814 -0.03251044 0.04077687
v 0.06635463 -0.03325280 0.04061556
v 0.06515214 -0.03073140 0.04333410
v 0.06707520 -0.01256072 0.04428772
v 0.06782511 -0.01339163 0.03768828
v 0.06789929 -0.01339163 0.03693392
v 0.06789297 -0.01927574 0.03690545
v 0.06788837 -0.02515986 0.03685801
v 0.06782338 -0.01563692 0.03766929
v 0.06515214 -0.02269577 0.04684494
v 0.06521022 -0.02221650 0.04694457
v 0.06643227 -0.01780406 0.04524608
v 0.06659156 -0.01344372 0.04588183
v 0.06669335 -0.01256072 0.04581066
v 0.06659789 -0.02523279 0.04294505
v 0.06659501 -0.01933826 0.04441582
v 0.06594632 -0.02963220 0.04275528
v 0.06515214 -0.02662893 0.04516068
v 0.06515214 -0.02963220 0.04383700
v 0.06515214 -0.03037195 0.04350015
f 1 2 5
f 1 5 11
f 1 11 19
f 1 19 37
f 1 37 66
f 1 66 41
f 1 41 21
f 1 21 12
f 1 12 6
f 1 6 3
f 1 3 7
f 1 7 14
f 1 14 33
f 1 33 58
f 1 58 83
f 1 83 117
f 1 117 126
f 1 126 89
f 1 89 62
f 1 62 35
f 1 35 17
f 1 17 9
f 1 9 4
f 1 4 2
f 2 4 8
f 2 8 5
f 3 6 7
f 4 9 10
f 4 10 8
f 5 8 16
f 5 16 34
f 5 34 61
f 5 61 87
f 5 87 122
f 5 122 121
f 5 121 120
f 5 120 147
f 5 147 137
f 5 137 105
f 5 105 104
f 5 104 102
f 5 102 101
f 5 101 99
f 5 99 72
f 5 72 71
f 5 71 70
f 5 70 68
f 5 68 69
f 5 69 39
f 5 39 20
f 5 20 11
f 6 12 7
f 7 12 13
f 7 13 14
f 8 10 15
f 8 15 16
f 9 17 18
f 9 18 10
f 10 18 36
f 10 36 65
f 10 65 98
f 10 98 97
f 10 97 96
f 10 96 136
f 10 136 153
f 10 153 152
f 10 152 151
f 10 151 143
f 10 143 118
f 10 118 85
f 10 85 84
f 10 84 59
f 10 59 34
f 10 34 16
f 10 16 15
f 11 20 19
f 12 21 22
f 12 22 23
f 12 23 24
f 12 24 13
f 13 24 25
f 13 25 26
f 13 26 14
f 14 26 27
f 14 27 28
f 14 28 29
f 14 29 30
f 14 30 31
f 14 31 32
f 14 32 33
f 17 35 36
f 17 36 18
f 19 20 38
f 19 38 37
f 20 39 40
f 20 40 38
f 21 41 67
f 21 67 42
f 21 42 43
f 21 43 22
f 22 43 44
f 22 44 45
f 22 45 46
f 22 46 23
f 23 25 24
f 23 46 47
f 23 47 25
f 25 47 26
f 26 47 48
f 26 48 27
f 27 48 28
f 28 48 49
f 28 49 29
f 29 49 50
f 29 50 30
f 30 50 51
f 30 51 52
f 30 52 53
f 30 53 54
f 30 54 31
f 31 54 55
f 31 55 56
f 31 56 32
f 32 56 33
f 33 56 57
f 33 57 58
f 34 59 60
f 34 60 61
f 35 62 63
f 35 63 64
f 35 64 65
f 35 65 36
f 37 38 66
f 38 67 66
f 38 40 68
f 38 68 67
f 39 69 40
f 40 69 68
f 41 66 67
f 42 67 70
f 42 70 44
f 42 44 43
f 44 70 71
f 44 71 45
f 45 71 46
f 46 72 73
f 46 73 48
f 46 48 47
f 46 71 72
f 48 73 74
f 48 74 75
f 48 75 49
f 49 75 76
f 49 76 77
f 49 77 78
f 49 78 53
f 49 53 51
f 49 51 50
f 51 53 52
f 53 78 79
f 53 79 54
f 54 79 80
f 54 80 56
f 54 56 55
f 56 80 57
f 57 80 81
f 57 81 82
f 57 82 58
f 58 82 83
f 59 84 60
f 60 85 86
f 60 86 87
f 60 87 61
f 60 84 88
f 60 88 85
f 62 89 90
f 62 90 91
f 62 91 63
f 63 65 64
f 63 91 92
f 63 92 93
f 63 93 94
f 63 94 95
f 63 95 96
f 63 96 97
f 63 97 98
f 63 98 65
f 67 68 70
f 72 99 73
f 73 99 100
f 73 100 74
f 74 100 101
f 74 101 102
f 74 102 103
f 74 103 104
f 74 104 105
f 74 105 139
f 74 139 106
f 74 106 75
f 75 106 107
f 75 107 108
f 75 108 109
f 75 109 110
f 75 110 76
f 76 110 111
f 76 111 77
f 77 111 79
f 77 79 78
f 79 111 112
f 79 112 113
f 79 113 81
f 79 81 80
f 81 113 114
f 81 114 115
f 81 115 92
f 81 92 82
f 82 92 116
f 82 116 83
f 83 116 117
f 84 85 88
f 85 118 86
f 86 119 120
f 86 120 121
f 86 121 122
f 86 122 87
f 86 118 123
f 86 123 124
f 86 124 125
f 86 125 119
f 89 126 90
f 90 92 91
f 90 126 117
f 90 117 92
f 92 115 127
f 92 127 128
f 92 128 129
f 92 129 130
f 92 130 131
f 92 131 132
f 92 132 124
f 92 124 133
f 92 133 134
f 92 134 135
f 92 135 94
f 92 94 93
f 92 117 116
f 94 135 136
f 94 136 95
f 95 136 96
f 99 101 100
f 102 104 103
f 105 137 138
f 105 138 139
f 106 139 138
f 106 138 107
f 107 138 108
f 108 138 109
f 109 138 140
f 109 140 141
f 109 141 112
f 109 112 110
f 110 112 111
f 112 141 138
f 112 138 142
f 112 142 137
f 112 137 113
f 113 137 114
f 114 137 115
f 115 137 127
f 118 143 144
f 118 144 133
f 118 133 123
f 119 145 146
f 119 146 120
f 119 125 145
f 120 146 147
f 123 133 124
f 124 132 125
f 125 132 131
f 125 131 148
f 125 148 130
f 125 130 149
f 125 149 145
f 127 137 147
f 127 147 128
f 128 147 129
f 129 147 146
f 129 146 149
f 129 149 130
f 130 148 131
f 133 144 143
f 133 143 150
f 133 150 134
f 134 150 135
f 135 150 151
f 135 151 152
f 135 152 153
f 135 153 136
f 137 142 138
f 138 141 140
f 143 151 150
f 145 149 146

