# https://github.com/mikedh/trimesh
v 0.00898119 -0.07187348 0.00172489
v 0.00898119 -0.07162186 0.00525932
v 0.00898119 -0.07159849 -0.00153168
v 0.01176980 -0.07076812 -0.00440027
v 0.01274716 -0.07118151 0.00299023
v 0.00898119 -0.07152839 0.00542703
v 0.00898119 -0.07067287 -0.00665184
v 0.02014460 -0.06449184 -0.00466436
v 0.01789757 -0.06758864 -0.00160678
v 0.01734702 -0.06813324 0.00469361
v 0.00898119 -0.07143313 0.00547083
v 0.01483279 -0.06735859 0.00575494
v 0.00898119 -0.07058659 -0.00674196
v 0.01384646 -0.06737656 -0.00638776
v 0.02119549 -0.06073543 -0.00590591
v 0.02587067 -0.05373303 -0.00543031
v 0.02560526 -0.05671480 -0.00264933
v 0.02302467 -0.06184977 0.00144830
v 0.02144655 -0.06308094 0.00531189
v 0.00898119 -0.06883420 0.00585131
v 0.02559629 -0.05351196 0.00546458
v 0.00898119 -0.06807392 -0.00693470
v 0.02592267 -0.05351196 -0.00542906
v 0.02598365 -0.05351196 -0.00537399
v 0.02673684 -0.05351196 -0.00321880
v 0.02692873 -0.05351196 -0.00178450
v 0.02716365 -0.05351196 0.00118046
v 0.02730174 -0.05351196 0.00405156
v 0.02546717 -0.05778062 0.00399023
v 0.02624727 -0.05351196 0.00513416
v 0.00898119 -0.06648329 0.00389887
v 0.02185722 -0.05351196 0.00314667
v 0.00898119 -0.06694880 -0.00545535
v 0.02324884 -0.05351196 -0.00532393
v 0.02363978 -0.05351196 -0.00543532
v 0.00898119 -0.06611124 0.00342577
v 0.02096594 -0.05351196 0.00210036
v 0.00898119 -0.06629277 -0.00404858
v 0.02120445 -0.05351375 -0.00274570
v 0.00898119 -0.06532221 -0.00192217
f 1 2 6
f 1 6 11
f 1 11 20
f 1 20 31
f 1 31 36
f 1 36 40
f 1 40 38
f 1 38 33
f 1 33 22
f 1 22 13
f 1 13 7
f 1 7 3
f 1 3 4
f 1 4 5
f 1 5 2
f 2 5 6
f 3 7 4
f 4 7 8
f 4 8 9
f 4 9 5
f 5 9 10
f 5 10 6
f 6 10 12
f 6 12 11
f 7 13 8
f 8 13 14
f 8 14 15
f 8 15 16
f 8 16 17
f 8 17 18
f 8 18 9
f 9 18 10
f 10 18 19
f 10 19 12
f 11 12 20
f 12 19 21
f 12 21 20
f 13 22 14
f 14 22 15
f 15 23 16
f 15 22 23
f 16 23 24
f 16 24 17
f 17 24 25
f 17 25 26
f 17 26 27
f 17 27 28
f 17 28 29
f 17 29 18
f 18 29 19
f 19 29 30
f 19 30 21
f 20 21 32
f 20 32 31
f 21 30 28
f 21 28 27
f 21 27 26
f 21 26 25
f 21 25 24
f 21 24 23
f 21 23 35
f 21 35 34
f 21 34 37
f 21 37 32
f 22 33 34
f 22 34 35
f 22 35 23
f 28 30 29
f 31 32 37
f 31 37 36
f 33 38 39
f 33 39 34
f 34 39 37
f 36 37 40
f 37 39 40
f 38 40 39

