# https://github.com/mikedh/trimesh
v -0.03323518 -0.05240393 0.00127191
v -0.03252260 -0.05231090 0.00125246
v -0.03323518 -0.05226278 0.00186668
v -0.03323518 -0.05221787 0.00029223
v -0.03323518 -0.05121701 -0.00280240
v -0.02922720 -0.04993707 -0.00290272
v -0.02674495 -0.04969648 0.00018679
v -0.02774641 -0.04987291 0.00394171
v -0.03323518 -0.05144798 0.00388336
v -0.03323518 -0.05013275 -0.00463481
v -0.03289708 -0.04986329 -0.00491735
v -0.02495816 -0.04647255 -0.00383838
v -0.02151510 -0.04544603 -0.00066083
v -0.02357794 -0.04798026 0.00268154
v -0.01755634 -0.04093896 0.00451600
v -0.01697001 -0.03608222 0.00464499
v -0.01253192 -0.02711298 0.00494800
v -0.01137425 -0.02226908 0.00492036
v -0.01137425 -0.01963541 0.00483949
v -0.01484726 -0.01963541 0.00447301
v -0.01572889 -0.01963541 0.00437985
v -0.03323518 -0.04681259 0.00365302
v -0.03323518 -0.04992744 -0.00489381
v -0.03323518 -0.04977026 -0.00496444
v -0.02860236 -0.04564492 -0.00517737
v -0.02156004 -0.03989960 -0.00495625
v -0.02112778 -0.04296313 -0.00356505
v -0.01699355 -0.03923236 -0.00133647
v -0.01904141 -0.04361112 0.00295486
v -0.01137425 -0.03216219 0.00004143
v -0.01382226 -0.03419919 0.00453852
v -0.01137425 -0.02688201 0.00402156
v -0.01137425 -0.02581058 0.00424779
v -0.01137425 -0.01963541 -0.00382302
v -0.01644360 -0.01963541 0.00417613
v -0.03323518 -0.04139769 0.00175714
v -0.03323518 -0.04659766 -0.00546708
v -0.01657628 -0.03322400 -0.00497775
v -0.01137425 -0.02963758 -0.00249017
v -0.01137425 -0.03128002 -0.00091368
v -0.01137425 -0.02398530 -0.00373191
v -0.01219168 -0.01963541 -0.00504429
v -0.01983102 -0.01963541 0.00190455
v -0.03323518 -0.04103519 0.00040484
v -0.03323518 -0.04154845 -0.00310029
v -0.01509976 -0.01963541 -0.00539337
v -0.01402769 -0.01963541 -0.00551007
v -0.01297701 -0.02523957 -0.00469316
v -0.01137425 -0.02723488 -0.00339307
v -0.01797575 -0.01963541 -0.00258845
v -0.03323518 -0.04108972 -0.00099251
f 1 2 3
f 1 3 9
f 1 9 22
f 1 22 36
f 1 36 44
f 1 44 51
f 1 51 45
f 1 45 37
f 1 37 24
f 1 24 23
f 1 23 10
f 1 10 5
f 1 5 4
f 1 4 2
f 2 4 5
f 2 5 6
f 2 6 7
f 2 7 8
f 2 8 9
f 2 9 3
f 5 10 11
f 5 11 6
f 6 11 12
f 6 12 7
f 7 12 13
f 7 13 14
f 7 14 8
f 8 14 15
f 8 15 9
f 9 15 16
f 9 16 17
f 9 17 18
f 9 18 19
f 9 19 20
f 9 20 21
f 9 21 22
f 10 23 11
f 11 23 24
f 11 24 25
f 11 25 12
f 12 25 26
f 12 26 27
f 12 27 13
f 13 27 28
f 13 28 29
f 13 29 14
f 14 29 15
f 15 29 30
f 15 30 31
f 15 31 17
f 15 17 16
f 17 31 32
f 17 32 33
f 17 33 18
f 18 33 32
f 18 32 30
f 18 30 40
f 18 40 39
f 18 39 49
f 18 49 41
f 18 41 34
f 18 34 19
f 19 34 42
f 19 42 47
f 19 47 46
f 19 46 50
f 19 50 43
f 19 43 35
f 19 35 21
f 19 21 20
f 21 35 22
f 22 35 36
f 24 37 25
f 25 37 38
f 25 38 26
f 26 38 27
f 27 38 39
f 27 39 28
f 28 39 40
f 28 40 30
f 28 30 29
f 30 32 31
f 34 41 42
f 35 43 36
f 36 43 44
f 37 45 46
f 37 46 47
f 37 47 38
f 38 47 42
f 38 42 48
f 38 48 49
f 38 49 39
f 41 49 42
f 42 49 48
f 43 50 45
f 43 45 51
f 43 51 44
f 45 50 46

