# https://github.com/mikedh/trimesh
v -0.03365902 0.02887701 -0.03039847
v -0.03365902 0.03584551 -0.03039847
v -0.02093879 0.03765201 -0.03039847
v -0.03365902 0.02887701 0.04748890
v -0.03291685 0.03637144 -0.03039847
v -0.03365902 0.03584551 0.04748890
v -0.02093879 0.04286743 -0.03039847
v -0.02093879 0.03765201 0.04675572
v -0.02093879 0.03765338 0.04748890
v -0.03365902 0.02887838 0.04751977
v -0.03216099 0.03690695 -0.03039847
v -0.03291685 0.03637144 0.04748890
v -0.03365902 0.03575238 0.04786707
v -0.03242124 0.03666590 0.04800599
v -0.02870791 0.03934757 0.04794425
v -0.02142444 0.04268802 -0.03039847
v -0.02093879 0.04286743 0.04673256
v -0.02093879 0.03766023 0.04758151
v -0.02134225 0.03748081 0.04799827
v -0.03365902 0.02903588 0.04803686
v -0.02824467 0.03968038 -0.03039847
v -0.03188828 0.03710006 0.04657821
v -0.02824467 0.03968038 0.04657821
v -0.02871040 0.03935031 0.04748890
v -0.03365902 0.03544833 0.04818350
v -0.03345729 0.03584551 0.04808317
v -0.02974271 0.03852581 0.04804458
v -0.02706542 0.04037751 0.04806773
v -0.02715882 0.04043914 0.04748890
v -0.02761209 0.04012413 0.04748890
v -0.02369328 0.04184845 -0.03039847
v -0.02369328 0.04184845 0.04657821
v -0.02460356 0.04151154 0.04748890
v -0.02270331 0.04221414 0.04748890
v -0.02093879 0.04286059 0.04748890
v -0.02093879 0.03797661 0.04817578
v -0.03365902 0.02908381 0.04806002
v -0.02761209 0.04012824 -0.03039847
v -0.02761209 0.04012824 0.04657821
v -0.03365902 0.03536068 0.04822209
v -0.03077876 0.03770269 0.04809860
v -0.03275497 0.03615093 0.04816806
v -0.03005402 0.03799441 0.04819893
v -0.02735432 0.03983652 0.04822209
v -0.02642536 0.04052132 0.04816034
v -0.02521996 0.04122392 0.04802143
v -0.02642536 0.04080345 0.04748890
v -0.02642536 0.04081578 0.04657821
v -0.02715882 0.04043914 -0.03039847
v -0.02460356 0.04151154 -0.03039847
v -0.02575542 0.04108422 0.04657821
v -0.02529966 0.04125268 0.04748890
v -0.02553875 0.04116503 -0.03039847
v -0.02093879 0.04285785 0.04756608
v -0.02093879 0.03802454 0.04819122
v -0.03365902 0.02983162 0.04833013
v -0.03365902 0.02978642 0.04831470
v -0.03188828 0.03615504 0.04836872
v -0.03365902 0.03438415 0.04843818
v -0.03279855 0.03524563 0.04842275
v -0.02824467 0.03888739 0.04832241
v -0.02642536 0.03979817 0.04841503
v -0.02460356 0.04070895 0.04837644
v -0.02460356 0.04133760 0.04812176
v -0.02575542 0.04107189 0.04748890
v -0.02257754 0.04216757 0.04805230
v -0.02607420 0.04095685 -0.03039847
v -0.02642536 0.04081578 -0.03039847
v -0.02575542 0.04108422 -0.03039847
v -0.02093879 0.04254421 0.04815263
v -0.02093879 0.03890793 0.04844590
v -0.02095996 0.03888739 0.04844590
v -0.03365902 0.03074240 0.04844590
v -0.03365902 0.03433485 0.04844590
v -0.03006648 0.03706582 0.04843818
v -0.02733440 0.03888739 0.04844590
v -0.02551384 0.03979817 0.04844590
v -0.02369328 0.04070895 0.04843818
v -0.02187148 0.04161973 0.04839959
v -0.02187148 0.04229084 0.04815263
v -0.02093879 0.04251134 0.04816806
v -0.02093879 0.04161973 0.04844590
v -0.02095996 0.04161973 0.04844590
f 1 2 5
f 1 5 11
f 1 11 21
f 1 21 38
f 1 38 49
f 1 49 68
f 1 68 67
f 1 67 69
f 1 69 53
f 1 53 50
f 1 50 31
f 1 31 16
f 1 16 7
f 1 7 3
f 1 3 8
f 1 8 4
f 1 4 10
f 1 10 20
f 1 20 37
f 1 37 57
f 1 57 56
f 1 56 73
f 1 73 74
f 1 74 59
f 1 59 40
f 1 40 25
f 1 25 13
f 1 13 6
f 1 6 2
f 2 6 12
f 2 12 5
f 3 7 17
f 3 17 35
f 3 35 54
f 3 54 70
f 3 70 81
f 3 81 82
f 3 82 71
f 3 71 55
f 3 55 36
f 3 36 18
f 3 18 9
f 3 9 8
f 4 8 9
f 4 9 10
f 5 12 11
f 6 13 14
f 6 14 15
f 6 15 12
f 7 16 17
f 9 18 10
f 10 18 19
f 10 19 20
f 11 12 22
f 11 22 23
f 11 23 21
f 12 15 24
f 12 24 23
f 12 23 22
f 13 25 26
f 13 26 14
f 14 27 15
f 14 26 27
f 15 27 28
f 15 28 29
f 15 29 30
f 15 30 24
f 16 31 32
f 16 32 17
f 17 32 33
f 17 33 34
f 17 34 35
f 18 36 19
f 19 36 20
f 20 36 37
f 21 23 39
f 21 39 38
f 23 24 39
f 24 30 39
f 25 40 26
f 26 41 28
f 26 28 27
f 26 40 42
f 26 42 43
f 26 43 41
f 28 41 43
f 28 43 44
f 28 44 45
f 28 45 46
f 28 46 47
f 28 47 29
f 29 39 30
f 29 47 48
f 29 48 68
f 29 68 49
f 29 49 38
f 29 38 39
f 31 50 33
f 31 33 32
f 33 51 52
f 33 52 46
f 33 46 34
f 33 50 53
f 33 53 51
f 34 46 54
f 34 54 35
f 36 55 56
f 36 56 57
f 36 57 37
f 40 58 43
f 40 43 42
f 40 59 60
f 40 60 58
f 43 58 61
f 43 61 44
f 44 61 62
f 44 62 45
f 45 62 63
f 45 63 64
f 45 64 46
f 46 52 65
f 46 65 47
f 46 64 66
f 46 66 54
f 47 65 51
f 47 51 48
f 48 51 67
f 48 67 68
f 51 65 52
f 51 53 69
f 51 69 67
f 54 66 70
f 55 71 72
f 55 72 56
f 56 72 73
f 58 60 62
f 58 62 61
f 59 74 60
f 60 74 75
f 60 75 62
f 62 75 76
f 62 76 77
f 62 77 78
f 62 78 79
f 62 79 63
f 63 79 80
f 63 80 64
f 64 80 66
f 66 80 70
f 70 80 81
f 71 82 83
f 71 83 77
f 71 77 76
f 71 76 74
f 71 74 73
f 71 73 72
f 74 76 75
f 77 83 78
f 78 83 79
f 79 81 80
f 79 83 81
f 81 83 82

