# https://github.com/mikedh/trimesh
v -0.02151068 -0.03324014 -0.03818806
v -0.02151068 -0.04059658 -0.03818806
v -0.02151068 -0.03524119 -0.03039847
v -0.02114455 -0.03324520 -0.03818806
v -0.02151068 -0.04059658 -0.03039847
v -0.02129100 -0.04069795 -0.03818806
v -0.00592590 -0.03815964 -0.03039847
v -0.00592590 -0.03671511 -0.03818806
v -0.02124218 -0.04072025 -0.03039847
v -0.02043518 -0.04109126 -0.03039847
v -0.02010567 -0.04124231 -0.03818806
v -0.00592590 -0.04348259 -0.03039847
v -0.00592590 -0.04348259 -0.03818806
v -0.02004770 -0.04126866 -0.03039847
v -0.02004770 -0.04126866 -0.03818806
v -0.00619440 -0.04350793 -0.03039847
v -0.00616083 -0.04350489 -0.03818806
v -0.01965411 -0.04142376 -0.03039847
v -0.01928493 -0.04156872 -0.03818806
v -0.00665053 -0.04354949 -0.03039847
v -0.00661544 -0.04354645 -0.03818806
v -0.01921934 -0.04159406 -0.03039847
v -0.01921934 -0.04159406 -0.03818806
v -0.00730040 -0.04359612 -0.03039847
v -0.00670087 -0.04355355 -0.03818806
v -0.00665053 -0.04354949 -0.03818806
v -0.01918425 -0.04160521 -0.03818806
v -0.01876473 -0.04173395 -0.03039847
v -0.00802503 -0.04357788 -0.03039847
v -0.00730040 -0.04359612 -0.03818806
v -0.01876473 -0.04173395 -0.03818806
v -0.01850844 -0.04178261 -0.03039847
v -0.00881525 -0.04344306 -0.03039847
v -0.00802503 -0.04357788 -0.03818806
v -0.01822622 -0.04183532 -0.03818806
v -0.01822622 -0.04183532 -0.03039847
v -0.00852998 -0.04349171 -0.03818806
v -0.01003262 -0.04323525 -0.03039847
v -0.01003262 -0.04323525 -0.03818806
v -0.01640627 -0.04214653 -0.03818806
v -0.01640627 -0.04214653 -0.03039847
v -0.01233006 -0.04284294 -0.03039847
v -0.01458479 -0.04245774 -0.03818806
v -0.01458479 -0.04245774 -0.03039847
f 1 2 5
f 1 5 3
f 1 3 4
f 1 4 8
f 1 8 13
f 1 13 17
f 1 17 21
f 1 21 26
f 1 26 25
f 1 25 30
f 1 30 34
f 1 34 37
f 1 37 39
f 1 39 43
f 1 43 40
f 1 40 35
f 1 35 31
f 1 31 27
f 1 27 23
f 1 23 19
f 1 19 15
f 1 15 11
f 1 11 6
f 1 6 2
f 2 6 5
f 3 5 9
f 3 9 10
f 3 10 14
f 3 14 18
f 3 18 22
f 3 22 28
f 3 28 32
f 3 32 36
f 3 36 41
f 3 41 44
f 3 44 42
f 3 42 38
f 3 38 33
f 3 33 29
f 3 29 24
f 3 24 20
f 3 20 16
f 3 16 12
f 3 12 7
f 3 7 4
f 4 7 8
f 5 6 9
f 6 10 9
f 6 11 10
f 7 12 13
f 7 13 8
f 10 11 14
f 11 15 14
f 12 16 17
f 12 17 13
f 14 15 18
f 15 19 18
f 16 20 21
f 16 21 17
f 18 19 22
f 19 23 22
f 20 24 25
f 20 25 26
f 20 26 21
f 22 23 27
f 22 27 28
f 24 29 34
f 24 34 30
f 24 30 25
f 27 31 28
f 28 31 32
f 29 33 34
f 31 35 32
f 32 35 36
f 33 37 34
f 33 38 39
f 33 39 37
f 35 40 41
f 35 41 36
f 38 42 39
f 39 42 43
f 40 43 44
f 40 44 41
f 42 44 43

