# https://github.com/mikedh/trimesh
v -0.00592590 0.00108987 -0.04210947
v -0.00592590 0.00108987 -0.03819947
v -0.00592590 0.00154922 -0.04362790
v -0.00592154 0.00108987 -0.04362790
v 0.03187305 0.00108987 -0.03818882
v -0.00592590 0.03889630 -0.03818882
v -0.00592590 0.04435159 -0.04362790
v 0.03732214 0.00108987 -0.04362790
v 0.03864405 0.00108987 -0.03818882
v -0.00592590 0.04566838 -0.03818882
v -0.00592590 0.04526591 -0.04335797
v -0.00456472 0.04526153 -0.04342718
v -0.00183363 0.04435159 -0.04362790
v 0.03781513 0.00108987 -0.04348415
v 0.03732214 0.00428342 -0.04362790
v 0.03864405 0.00108987 -0.04176074
v 0.03834738 0.00428342 -0.03818882
v -0.00569904 0.04569025 -0.03818882
v -0.00592590 0.04566838 -0.04176074
v -0.00592590 0.04546715 -0.04300551
v -0.00514933 0.04572963 -0.04314607
v -0.00456472 0.04574713 -0.04317641
v -0.00183363 0.04509529 -0.04337713
v -0.00092182 0.04435159 -0.04360979
v -0.00392776 0.04574713 -0.04317322
v -0.00363545 0.04533153 -0.04335530
v 0.00363290 0.04343727 -0.04362790
v 0.03823831 0.00108987 -0.04335797
v 0.03732214 0.00519337 -0.04361938
v 0.03816851 0.00154922 -0.04337713
v 0.03641468 0.01065741 -0.04362790
v 0.03641468 0.01156735 -0.04362151
v 0.03863096 0.00108987 -0.04267116
v 0.03826013 0.00519337 -0.04267116
v 0.03817724 0.00610331 -0.04267116
v 0.03792420 0.00883752 -0.04267116
v 0.03834738 0.00428342 -0.04176074
v 0.03792420 0.00883752 -0.03818882
v -0.00521477 0.04573400 -0.03818882
v -0.00521477 0.04573400 -0.04267116
v -0.00592590 0.04566401 -0.04234852
v -0.00592590 0.04565526 -0.04267116
v -0.00456472 0.04578212 -0.04267116
v -0.00566850 0.04568588 -0.04267116
v -0.00092182 0.04502967 -0.04335957
v -0.00001000 0.04435159 -0.04355975
v 0.00454036 0.04343727 -0.04360607
v -0.00384050 0.04576025 -0.04267116
v 0.00149079 0.04482843 -0.04316310
v 0.00636399 0.04395786 -0.04321475
v 0.00089745 0.04488093 -0.04322859
v -0.00001000 0.04495530 -0.04330952
v 0.00727581 0.04252732 -0.04362790
v 0.03805071 0.00428342 -0.04337713
v 0.03801581 0.00519337 -0.04336915
v 0.03732214 0.00610331 -0.04359809
v 0.03550286 0.01339161 -0.04362790
v 0.03459105 0.01612145 -0.04362790
v 0.03367923 0.01885565 -0.04362577
v 0.03550286 0.01430156 -0.04360660
v 0.03641468 0.01247730 -0.04354538
v 0.03718253 0.01156735 -0.04337075
v 0.03732214 0.00883752 -0.04348042
v 0.03732214 0.00792757 -0.04352834
v 0.03732214 0.00701326 -0.04356720
v 0.03797655 0.00610331 -0.04334785
v 0.03793728 0.00701326 -0.04331697
v 0.03789366 0.00792757 -0.04327811
v 0.03785003 0.00883752 -0.04323019
v 0.03778459 0.01025056 -0.04313542
v 0.03778895 0.01027243 -0.04267116
v 0.03778895 0.01027243 -0.03818882
v -0.00516242 0.04573838 -0.03818882
v -0.00456472 0.04578212 -0.03818882
v 0.00454036 0.04411098 -0.04335584
v 0.00545218 0.04343727 -0.04355016
v 0.00818326 0.04252732 -0.04358105
v -0.00384050 0.04576025 -0.03818882
v -0.00338678 0.04568588 -0.04176074
v 0.00156059 0.04484156 -0.04267116
v 0.00687443 0.04390974 -0.04315193
v 0.00818326 0.04320978 -0.04333082
v 0.00721473 0.04347664 -0.04334199
v 0.00545218 0.04403661 -0.04329940
v 0.01000690 0.04161738 -0.04359648
v 0.01182617 0.04070744 -0.04360926
v 0.01364980 0.03979749 -0.04361938
v 0.01546907 0.03888755 -0.04362790
v 0.03277178 0.02067554 -0.04362790
v 0.03459105 0.01703139 -0.04358690
v 0.03277178 0.02158549 -0.04360021
v 0.03367923 0.01976560 -0.04356028
v 0.03526291 0.01703139 -0.04333667
v 0.03621836 0.01430156 -0.04335637
v 0.03702547 0.01247730 -0.04329514
v 0.03780640 0.00974746 -0.04317163
v 0.03691640 0.01306351 -0.04319292
v 0.03750537 0.01156735 -0.04267116
v 0.03772351 0.01072740 -0.04267116
v 0.03773223 0.01072740 -0.04176074
v 0.03773223 0.01072740 -0.03818882
v 0.00636399 0.04343727 -0.04346498
v 0.01637652 0.03888755 -0.04354804
v -0.00338678 0.04568588 -0.03818882
v -0.00333442 0.04567713 -0.03818882
v -0.00274545 0.04557651 -0.04176074
v 0.00279089 0.04463157 -0.03818882
v 0.00545218 0.04417660 -0.04267116
v 0.00636399 0.04401911 -0.04267116
v 0.00690061 0.04391849 -0.04267116
v 0.00735870 0.04376975 -0.04267116
v 0.00818326 0.04344164 -0.04267116
v 0.00882895 0.04306979 -0.04323179
v 0.01070494 0.04218609 -0.04325202
v 0.01637652 0.03951313 -0.04329781
v 0.01000690 0.04233483 -0.04334572
v 0.01728834 0.03797323 -0.04362790
v 0.03185996 0.02249543 -0.04362790
v 0.03349599 0.02158549 -0.04334998
v 0.03003632 0.02522526 -0.04362098
v 0.02821706 0.02795509 -0.04360607
v 0.02639342 0.03068930 -0.04358690
v 0.03094814 0.02431532 -0.04357945
v 0.03185996 0.02340975 -0.04350757
v 0.03280668 0.02251730 -0.04340535
v 0.03431183 0.01976560 -0.04330952
v 0.03514075 0.01774010 -0.04323977
v 0.03419404 0.02038243 -0.04320676
v 0.03597404 0.01570585 -0.04314820
v 0.03717816 0.01247730 -0.04267116
v 0.03751846 0.01156735 -0.04176074
v 0.03751846 0.01156735 -0.03818882
v 0.01725344 0.03891380 -0.04336383
v 0.01827433 0.03804760 -0.04342718
v 0.00545218 0.04417660 -0.03818882
v 0.00636399 0.04401911 -0.03818882
v 0.00735870 0.04377850 -0.04176074
v 0.00690061 0.04391849 -0.03818882
v 0.00818326 0.04345477 -0.04176074
v 0.00892493 0.04311354 -0.04267116
v 0.01505897 0.04026996 -0.04315618
v 0.01693060 0.03938627 -0.04318760
v 0.01802128 0.03862944 -0.04329355
v 0.01910761 0.03706328 -0.04352940
v 0.02001943 0.03615334 -0.04356827
v 0.02093125 0.03524340 -0.04359702
v 0.02184306 0.03433345 -0.04361778
v 0.02275052 0.03342351 -0.04362790
v 0.02730524 0.02886941 -0.04362790
v 0.03335202 0.02222857 -0.04325734
v 0.02548597 0.03068930 -0.04362790
v 0.02548597 0.03159925 -0.04357200
v 0.02636724 0.03158175 -0.04334998
v 0.02695622 0.03126676 -0.04323924
v 0.02727906 0.03061493 -0.04330845
v 0.02730524 0.02977936 -0.04351982
v 0.02912887 0.02704515 -0.04355283
v 0.03096559 0.02521214 -0.04338299
v 0.03377521 0.02158549 -0.04267116
v 0.03404570 0.02091615 -0.04267116
v 0.03422457 0.02046118 -0.04267116
v 0.03518874 0.01786259 -0.04267116
v 0.03617037 0.01521150 -0.04267116
v 0.03677243 0.01358410 -0.04176074
v 0.03677243 0.01358410 -0.03818882
v 0.02090071 0.03614022 -0.04335530
v 0.02184743 0.03526089 -0.04339523
v 0.00735870 0.04377850 -0.03818882
v 0.00824434 0.04342852 -0.03818882
v 0.01318298 0.04115803 -0.04176074
v 0.00818326 0.04345477 -0.03818882
v 0.01456162 0.04052370 -0.04267116
v 0.01553887 0.04007310 -0.04267116
v 0.01697859 0.03940814 -0.04267116
v 0.01743231 0.03918940 -0.04267116
v 0.01815653 0.03873443 -0.04267116
v 0.01960060 0.03754888 -0.04316310
v 0.02057350 0.03669143 -0.04321422
v 0.02154639 0.03582961 -0.04325308
v 0.02457415 0.03250919 -0.04353473
v 0.03341310 0.02232044 -0.04267116
v 0.03067765 0.02593834 -0.04328450
v 0.02881475 0.02861568 -0.04326480
v 0.03149785 0.02490153 -0.04322912
v 0.03231805 0.02386472 -0.04313329
v 0.02604440 0.03214171 -0.04321954
v 0.02251929 0.03497216 -0.04328077
v 0.02655484 0.03178298 -0.04267116
v 0.02700857 0.03132801 -0.04267116
v 0.02778078 0.03026058 -0.04315033
v 0.02963931 0.02757887 -0.04319399
v 0.02912451 0.02791135 -0.04334998
v 0.02826068 0.02890004 -0.04341014
v 0.03378830 0.02158549 -0.04176074
v 0.03405879 0.02091615 -0.04176074
v 0.03482227 0.01885565 -0.04176074
v 0.03582571 0.01614332 -0.03818882
v 0.01007234 0.04258857 -0.03818882
v 0.01318298 0.04115803 -0.03818882
v 0.01550397 0.04009060 -0.03818882
v 0.01697859 0.03940814 -0.03818882
v 0.01743231 0.03919378 -0.04176074
v 0.01816089 0.03873881 -0.04176074
v 0.01861462 0.03839320 -0.04267116
v 0.02107958 0.03635458 -0.04267116
v 0.02509332 0.03302103 -0.04267116
v 0.02507151 0.03300354 -0.04316949
v 0.03341310 0.02232044 -0.03818882
v 0.03309898 0.02277541 -0.04267116
v 0.03312516 0.02274041 -0.03818882
v 0.02746666 0.03072868 -0.04267116
v 0.02609675 0.03218546 -0.04267116
v 0.02651558 0.03181798 -0.03818882
v 0.02655484 0.03178298 -0.03818882
v 0.02700857 0.03132801 -0.03818882
v 0.03378830 0.02158549 -0.03818882
v 0.03405879 0.02091615 -0.03818882
v 0.03407188 0.02088115 -0.03818882
v 0.03482227 0.01885565 -0.03818882
v 0.01743231 0.03919378 -0.03818882
v 0.01748903 0.03915878 -0.03818882
v 0.01816089 0.03873881 -0.03818882
v 0.01861462 0.03839758 -0.04176074
v 0.02363616 0.03423283 -0.04176074
v 0.01915124 0.03795573 -0.03818882
v 0.02509332 0.03302103 -0.03818882
v 0.03265398 0.02340975 -0.04176074
v 0.03265398 0.02340975 -0.03818882
v 0.02746666 0.03072868 -0.03818882
v 0.02609675 0.03218546 -0.03818882
v 0.01861462 0.03839758 -0.03818882
v 0.01865389 0.03836695 -0.03818882
v 0.02363616 0.03423283 -0.03818882
f 1 2 6
f 1 6 10
f 1 10 19
f 1 19 41
f 1 41 42
f 1 42 20
f 1 20 11
f 1 11 7
f 1 7 3
f 1 3 4
f 1 4 8
f 1 8 14
f 1 14 28
f 1 28 33
f 1 33 16
f 1 16 9
f 1 9 5
f 1 5 2
f 2 5 6
f 3 7 13
f 3 13 27
f 3 27 53
f 3 53 88
f 3 88 117
f 3 117 148
f 3 148 151
f 3 151 149
f 3 149 118
f 3 118 89
f 3 89 58
f 3 58 57
f 3 57 31
f 3 31 15
f 3 15 8
f 3 8 4
f 5 9 17
f 5 17 38
f 5 38 72
f 5 72 101
f 5 101 132
f 5 132 165
f 5 165 197
f 5 197 219
f 5 219 218
f 5 218 217
f 5 217 216
f 5 216 208
f 5 208 210
f 5 210 228
f 5 228 229
f 5 229 215
f 5 215 214
f 5 214 213
f 5 213 230
f 5 230 226
f 5 226 233
f 5 233 225
f 5 225 232
f 5 232 231
f 5 231 222
f 5 222 221
f 5 221 220
f 5 220 201
f 5 201 200
f 5 200 199
f 5 199 198
f 5 198 169
f 5 169 171
f 5 171 168
f 5 168 138
f 5 138 136
f 5 136 135
f 5 135 107
f 5 107 105
f 5 105 104
f 5 104 78
f 5 78 74
f 5 74 73
f 5 73 39
f 5 39 18
f 5 18 10
f 5 10 6
f 7 11 12
f 7 12 13
f 8 15 14
f 9 16 37
f 9 37 17
f 10 18 19
f 11 20 21
f 11 21 22
f 11 22 12
f 12 23 24
f 12 24 13
f 12 22 25
f 12 25 26
f 12 26 23
f 13 24 27
f 14 15 28
f 15 29 30
f 15 30 28
f 15 31 32
f 15 32 29
f 16 33 34
f 16 34 35
f 16 35 36
f 16 36 37
f 17 37 36
f 17 36 38
f 18 39 40
f 18 40 19
f 19 40 41
f 20 42 21
f 21 40 43
f 21 43 22
f 21 42 44
f 21 44 40
f 22 43 25
f 23 45 24
f 23 26 25
f 23 25 45
f 24 45 46
f 24 46 47
f 24 47 27
f 25 43 48
f 25 48 49
f 25 49 50
f 25 50 51
f 25 51 52
f 25 52 45
f 27 47 53
f 28 30 54
f 28 54 55
f 28 55 33
f 29 56 55
f 29 55 54
f 29 54 30
f 29 32 56
f 31 57 32
f 32 57 58
f 32 58 59
f 32 59 60
f 32 60 61
f 32 61 62
f 32 62 63
f 32 63 64
f 32 64 65
f 32 65 56
f 33 55 66
f 33 66 67
f 33 67 68
f 33 68 69
f 33 69 70
f 33 70 34
f 34 70 35
f 35 70 36
f 36 70 71
f 36 71 72
f 36 72 38
f 39 73 40
f 40 73 43
f 40 44 41
f 41 44 42
f 43 73 74
f 43 74 78
f 43 78 48
f 45 52 75
f 45 75 46
f 46 75 76
f 46 76 47
f 47 76 77
f 47 77 53
f 48 78 104
f 48 104 79
f 48 79 80
f 48 80 49
f 49 80 81
f 49 81 50
f 50 81 82
f 50 82 83
f 50 83 84
f 50 84 51
f 51 84 52
f 52 84 75
f 53 77 85
f 53 85 86
f 53 86 87
f 53 87 88
f 55 56 65
f 55 65 66
f 58 89 59
f 59 90 60
f 59 89 91
f 59 91 90
f 60 90 61
f 61 90 92
f 61 92 93
f 61 93 94
f 61 94 62
f 62 94 95
f 62 95 70
f 62 70 96
f 62 96 69
f 62 69 68
f 62 68 67
f 62 67 63
f 63 67 64
f 64 67 66
f 64 66 65
f 69 96 70
f 70 95 97
f 70 97 98
f 70 98 99
f 70 99 71
f 71 99 100
f 71 100 101
f 71 101 72
f 75 84 102
f 75 102 76
f 76 102 77
f 77 102 82
f 77 82 103
f 77 103 85
f 79 105 106
f 79 106 80
f 79 104 105
f 80 106 105
f 80 105 107
f 80 107 108
f 80 108 81
f 81 108 109
f 81 109 110
f 81 110 111
f 81 111 112
f 81 112 113
f 81 113 82
f 82 102 83
f 82 113 114
f 82 114 115
f 82 115 116
f 82 116 103
f 83 102 84
f 85 103 86
f 86 103 87
f 87 103 88
f 88 103 117
f 89 118 91
f 90 91 92
f 91 119 92
f 91 118 120
f 91 120 121
f 91 121 122
f 91 122 123
f 91 123 124
f 91 124 125
f 91 125 119
f 92 119 126
f 92 126 93
f 93 95 94
f 93 126 95
f 95 126 127
f 95 127 97
f 97 127 128
f 97 128 129
f 97 129 98
f 98 129 130
f 98 130 131
f 98 131 99
f 99 131 100
f 100 131 132
f 100 132 101
f 103 115 133
f 103 133 134
f 103 134 117
f 103 116 115
f 107 135 108
f 108 135 136
f 108 136 109
f 109 136 138
f 109 138 110
f 110 137 111
f 110 138 168
f 110 168 137
f 111 137 139
f 111 139 112
f 112 139 140
f 112 140 113
f 113 140 141
f 113 141 142
f 113 142 114
f 114 142 115
f 115 142 143
f 115 143 133
f 117 134 144
f 117 144 145
f 117 145 146
f 117 146 147
f 117 147 148
f 118 149 120
f 119 125 150
f 119 150 128
f 119 128 126
f 120 149 121
f 121 149 122
f 122 151 148
f 122 148 147
f 122 147 152
f 122 152 153
f 122 153 154
f 122 154 155
f 122 155 156
f 122 156 157
f 122 157 123
f 122 149 151
f 123 157 124
f 124 157 156
f 124 156 158
f 124 158 125
f 125 158 150
f 126 128 127
f 128 150 159
f 128 159 160
f 128 160 161
f 128 161 129
f 129 162 163
f 129 163 130
f 129 161 162
f 130 163 131
f 131 163 164
f 131 164 165
f 131 165 132
f 133 143 134
f 134 143 166
f 134 166 167
f 134 167 144
f 137 168 171
f 137 171 139
f 139 169 170
f 139 170 140
f 139 171 169
f 140 170 172
f 140 172 141
f 141 172 173
f 141 173 174
f 141 174 142
f 142 174 175
f 142 175 176
f 142 176 143
f 143 176 177
f 143 177 178
f 143 178 179
f 143 179 166
f 144 167 180
f 144 180 145
f 145 180 152
f 145 152 146
f 146 152 147
f 150 181 159
f 150 158 182
f 150 182 183
f 150 183 184
f 150 184 185
f 150 185 181
f 152 180 153
f 153 186 154
f 153 180 167
f 153 167 187
f 153 187 186
f 154 186 188
f 154 188 189
f 154 189 190
f 154 190 191
f 154 191 183
f 154 183 155
f 155 183 192
f 155 192 193
f 155 193 156
f 156 193 158
f 158 193 192
f 158 192 182
f 159 181 194
f 159 194 195
f 159 195 160
f 160 195 161
f 161 195 162
f 162 196 163
f 162 195 196
f 163 196 164
f 164 196 197
f 164 197 165
f 166 179 187
f 166 187 167
f 169 198 170
f 170 199 200
f 170 200 172
f 170 198 199
f 172 200 173
f 173 200 174
f 174 201 220
f 174 220 202
f 174 202 175
f 174 200 201
f 175 202 203
f 175 203 176
f 176 203 204
f 176 204 177
f 177 204 205
f 177 205 206
f 177 206 207
f 177 207 178
f 178 207 186
f 178 186 179
f 179 186 187
f 181 208 216
f 181 216 194
f 181 185 209
f 181 209 210
f 181 210 208
f 182 192 183
f 183 191 184
f 184 191 185
f 185 191 190
f 185 190 211
f 185 211 209
f 186 207 212
f 186 212 188
f 188 212 213
f 188 213 214
f 188 214 215
f 188 215 189
f 189 215 229
f 189 229 211
f 189 211 190
f 194 216 217
f 194 217 195
f 195 217 218
f 195 218 196
f 196 219 197
f 196 218 219
f 202 221 203
f 202 220 221
f 203 222 231
f 203 231 223
f 203 223 204
f 203 221 222
f 204 223 205
f 205 224 206
f 205 223 225
f 205 225 224
f 206 226 230
f 206 230 212
f 206 212 207
f 206 224 233
f 206 233 226
f 209 227 210
f 209 211 227
f 210 227 228
f 211 229 228
f 211 228 227
f 212 230 213
f 223 231 232
f 223 232 225
f 224 225 233

