# https://github.com/mikedh/trimesh
v 0.02537940 -0.03067629 0.04748890
v 0.02533057 -0.03067629 0.04779761
v 0.02516219 -0.03094035 0.04748890
v 0.02537940 -0.03067629 -0.03039847
v 0.02522954 -0.03067629 0.04806002
v 0.02511841 -0.03088774 0.04803686
v 0.02475976 -0.03139563 0.04748890
v 0.02495171 -0.03117912 -0.03039847
v 0.02516219 -0.03094035 -0.03039847
v 0.01757832 -0.03067629 -0.03039847
v 0.02505779 -0.03067629 0.04813719
v 0.02424283 -0.03179931 0.04805230
v 0.02455770 -0.03121048 0.04816806
v 0.02430513 -0.03185293 0.04748890
v 0.02475976 -0.03139563 -0.03039847
v 0.00818436 -0.03581383 -0.03039847
v 0.00817931 -0.03581485 -0.03039075
v 0.01757832 -0.03067629 0.04657821
v 0.02456780 -0.03067629 0.04829926
v 0.02358783 -0.03212104 0.04812176
v 0.02159083 -0.03365886 0.04808317
v 0.02323423 -0.03262184 0.04796740
v 0.02422599 -0.03067629 0.04839188
v 0.02366528 -0.03123780 0.04839959
v 0.02275434 -0.03214835 0.04833785
v 0.02370233 -0.03230820 0.04748890
v 0.02430513 -0.03185293 -0.03039847
v 0.00817931 -0.03701475 -0.03039847
v 0.00817931 -0.03581485 0.04657821
v 0.00817931 -0.03581687 0.04748890
v 0.01760863 -0.03067629 0.04748890
v 0.02187371 -0.03310342 0.04822209
v 0.02088869 -0.03396541 0.04816806
v 0.01818786 -0.03580979 0.04819893
v 0.01891189 -0.03551841 0.04809860
v 0.01519910 -0.03819139 0.04806773
v 0.01787635 -0.03633993 0.04804458
v 0.02055529 -0.03448139 0.04800599
v 0.01684081 -0.03716145 0.04794425
v 0.02331505 -0.03067629 0.04844590
v 0.02002152 -0.03397047 0.04836872
v 0.02275434 -0.03123780 0.04844590
v 0.02184340 -0.03214835 0.04844590
v 0.02093247 -0.03305992 0.04842275
v 0.01638113 -0.03670112 0.04832241
v 0.01549040 -0.03765012 0.04822209
v 0.01904155 -0.03560947 0.04748890
v 0.01638113 -0.03749431 0.04657821
v 0.02275434 -0.03297999 0.04657821
v 0.02370233 -0.03230820 -0.03039847
v 0.00817931 -0.04101107 -0.03039847
v 0.00817931 -0.03603237 0.04816034
v 0.01774333 -0.03067629 0.04802143
v 0.01770461 -0.03067629 0.04795196
v 0.01335365 -0.03903719 0.04802143
v 0.01455925 -0.03861733 0.04748890
v 0.01529339 -0.03825412 0.04748890
v 0.01455925 -0.03833607 0.04816034
v 0.01574802 -0.03793846 0.04748890
v 0.01684418 -0.03716449 0.04748890
v 0.01730049 -0.03684175 0.04748890
v 0.01967298 -0.03067629 0.04844590
v 0.01455925 -0.03761167 0.04841503
v 0.01547019 -0.03670112 0.04844590
v 0.01819965 -0.03488102 0.04843818
v 0.01574802 -0.03794149 0.04657821
v 0.01604942 -0.03772903 -0.03039847
v 0.01638113 -0.03749431 -0.03039847
v 0.02275434 -0.03297999 -0.03039847
v 0.00818436 -0.04101006 -0.03039847
v 0.00817931 -0.04101107 0.04748118
v 0.00817931 -0.03670517 0.04840731
v 0.00818436 -0.03670112 0.04840731
v 0.01876204 -0.03067629 0.04836100
v 0.01793529 -0.03067629 0.04812947
v 0.01273737 -0.03915152 0.04812176
v 0.01071175 -0.03998214 0.04805230
v 0.00867771 -0.04081378 0.04795968
v 0.01343447 -0.03906754 0.04748890
v 0.01388910 -0.03888644 0.04748890
v 0.01455925 -0.03862947 0.04657821
v 0.01529339 -0.03825412 -0.03039847
v 0.01273737 -0.03852324 0.04837644
v 0.00909530 -0.03670112 0.04844590
v 0.01364831 -0.03761167 0.04844590
v 0.01182643 -0.03852324 0.04843818
v 0.01574802 -0.03794149 -0.03039847
v 0.00842851 -0.04092001 -0.03039847
v 0.00818436 -0.04101006 0.04748890
v 0.00817931 -0.04090686 0.04806002
v 0.00817931 -0.03761572 0.04844590
v 0.01000624 -0.04010558 0.04815263
v 0.00869624 -0.04082087 0.04748890
v 0.01083804 -0.04002868 0.04748890
v 0.01388910 -0.03889859 0.04657821
v 0.01343447 -0.03906754 -0.03039847
v 0.01367189 -0.03897952 -0.03039847
v 0.01420902 -0.03877111 -0.03039847
v 0.01455925 -0.03862947 -0.03039847
v 0.01000624 -0.03943379 0.04839959
v 0.00817931 -0.04034738 0.04831470
v 0.00909530 -0.03943379 0.04844590
v 0.00893534 -0.04073284 -0.03039847
v 0.00817931 -0.03852627 0.04844590
v 0.01083804 -0.04002868 -0.03039847
v 0.01388910 -0.03889859 -0.03039847
v 0.00818436 -0.03943379 0.04844590
v 0.00817931 -0.03943784 0.04843818
f 1 2 3
f 1 3 9
f 1 9 4
f 1 4 10
f 1 10 18
f 1 18 31
f 1 31 54
f 1 54 53
f 1 53 75
f 1 75 74
f 1 74 62
f 1 62 40
f 1 40 23
f 1 23 19
f 1 19 11
f 1 11 5
f 1 5 2
f 2 5 6
f 2 6 3
f 3 6 7
f 3 7 8
f 3 8 9
f 4 9 8
f 4 8 15
f 4 15 27
f 4 27 50
f 4 50 69
f 4 69 68
f 4 68 67
f 4 67 87
f 4 87 82
f 4 82 99
f 4 99 98
f 4 98 106
f 4 106 97
f 4 97 96
f 4 96 105
f 4 105 103
f 4 103 88
f 4 88 70
f 4 70 51
f 4 51 28
f 4 28 16
f 4 16 10
f 5 11 6
f 6 12 7
f 6 11 13
f 6 13 12
f 7 12 14
f 7 14 27
f 7 27 15
f 7 15 8
f 10 16 17
f 10 17 29
f 10 29 18
f 11 19 13
f 12 13 20
f 12 20 21
f 12 21 22
f 12 22 14
f 13 19 23
f 13 23 24
f 13 24 25
f 13 25 20
f 14 22 26
f 14 26 50
f 14 50 27
f 16 28 17
f 17 28 51
f 17 51 71
f 17 71 90
f 17 90 101
f 17 101 108
f 17 108 104
f 17 104 91
f 17 91 72
f 17 72 52
f 17 52 30
f 17 30 29
f 18 29 30
f 18 30 31
f 20 25 32
f 20 32 33
f 20 33 21
f 21 33 34
f 21 34 35
f 21 35 36
f 21 36 37
f 21 37 38
f 21 38 22
f 22 38 39
f 22 39 26
f 23 40 24
f 24 41 25
f 24 40 42
f 24 42 43
f 24 43 44
f 24 44 41
f 25 41 45
f 25 45 46
f 25 46 34
f 25 34 33
f 25 33 32
f 26 39 47
f 26 47 48
f 26 48 49
f 26 49 69
f 26 69 50
f 30 52 53
f 30 53 54
f 30 54 31
f 34 46 36
f 34 36 35
f 36 55 56
f 36 56 57
f 36 57 39
f 36 39 37
f 36 46 58
f 36 58 55
f 37 39 38
f 39 57 59
f 39 59 60
f 39 60 61
f 39 61 47
f 40 62 84
f 40 84 91
f 40 91 104
f 40 104 107
f 40 107 102
f 40 102 85
f 40 85 64
f 40 64 43
f 40 43 42
f 41 44 63
f 41 63 45
f 43 64 65
f 43 65 44
f 44 65 63
f 45 63 46
f 46 63 58
f 47 61 48
f 48 61 60
f 48 60 66
f 48 66 67
f 48 67 68
f 48 68 69
f 48 69 49
f 51 70 89
f 51 89 71
f 52 72 73
f 52 73 74
f 52 74 75
f 52 75 53
f 55 58 76
f 55 76 77
f 55 77 78
f 55 78 79
f 55 79 80
f 55 80 56
f 56 80 95
f 56 95 81
f 56 81 57
f 57 66 59
f 57 81 99
f 57 99 82
f 57 82 87
f 57 87 66
f 58 63 83
f 58 83 76
f 59 66 60
f 62 74 73
f 62 73 84
f 63 65 64
f 63 64 85
f 63 85 86
f 63 86 83
f 66 87 67
f 70 88 89
f 71 89 90
f 72 91 84
f 72 84 73
f 76 92 90
f 76 90 77
f 76 83 92
f 77 90 78
f 78 90 89
f 78 89 93
f 78 93 94
f 78 94 79
f 79 95 80
f 79 94 105
f 79 105 96
f 79 96 97
f 79 97 95
f 81 95 98
f 81 98 99
f 83 100 101
f 83 101 92
f 83 86 100
f 85 102 86
f 86 102 100
f 88 103 89
f 89 103 93
f 90 92 101
f 93 103 94
f 94 103 105
f 95 97 106
f 95 106 98
f 100 102 101
f 101 102 107
f 101 107 108
f 104 108 107

