# https://github.com/mikedh/trimesh
v 0.01016644 0.04070970 0.04844590
v 0.01016644 0.03888859 0.04844590
v 0.01016644 0.04163081 0.04837644
v 0.01000419 0.04161983 0.04840731
v 0.00909372 0.04161983 0.04844590
v 0.00909372 0.03888859 0.04844590
v 0.01016644 0.03797762 0.04833785
v 0.01016644 0.04230032 0.04813719
v 0.01000419 0.04233493 0.04816034
v 0.00818167 0.04252996 0.04839188
v 0.00727120 0.04252996 0.04844590
v -0.00592433 0.04161983 0.04844590
v 0.00818167 0.03888859 0.04843046
v -0.00592433 0.04120867 0.04832241
v -0.00592433 0.04077977 0.04819122
v 0.01016644 0.03733259 0.04808317
v 0.00882593 0.04307199 0.04804458
v 0.00818167 0.04321045 0.04814491
v 0.01016644 0.04253418 0.04748890
v 0.00636073 0.04344094 0.04827611
v 0.00545026 0.04344094 0.04836100
v 0.00453979 0.04344094 0.04842275
v 0.00362932 0.04344094 0.04844590
v -0.00592433 0.04435191 0.04844590
v -0.00592433 0.04036946 0.04748890
v 0.01016644 0.03716204 0.04748890
v 0.00687110 0.04391205 0.04796740
v 0.00892045 0.04311589 0.04748890
v 0.00818167 0.04344516 0.04748890
v 0.00721292 0.04347809 0.04816034
v 0.01016644 0.04254263 0.04657821
v 0.00545026 0.04403700 0.04811404
v 0.00453979 0.04411383 0.04816806
v -0.00001257 0.04435191 0.04837644
v -0.00092304 0.04435191 0.04842275
v -0.00183351 0.04435191 0.04844590
v -0.00456650 0.04526289 0.04823752
v -0.00592433 0.04526627 0.04817578
v -0.00592433 0.04035679 0.04704127
v -0.00592433 0.04034497 0.04657821
v 0.01016644 0.03715782 0.04676344
v 0.00148861 0.04483062 0.04797512
v 0.00636073 0.04395848 0.04802914
v 0.00735311 0.04377105 0.04748890
v 0.00689788 0.04391964 0.04748890
v 0.00636073 0.04402096 0.04748890
v 0.00545026 0.04417715 0.04748890
v 0.00089791 0.04495473 0.04748890
v 0.00818167 0.04345529 0.04657821
v 0.01000419 0.04261777 0.04657821
v 0.00913783 0.04301627 -0.03039847
v 0.01016644 0.04254263 -0.03039847
v 0.00089791 0.04488043 0.04804458
v -0.00001257 0.04495895 0.04812176
v -0.00092304 0.04503325 0.04817578
v -0.00183351 0.04509741 0.04819122
v -0.00363870 0.04533297 0.04816806
v -0.00393169 0.04574835 0.04799055
v -0.00456650 0.04575004 0.04799055
v -0.00515090 0.04572978 0.04795968
v -0.00592433 0.04565717 0.04748890
v -0.00592433 0.04034497 -0.03039847
v 0.01016644 0.03715782 -0.03039847
v -0.00384190 0.04576355 0.04748890
v 0.00735311 0.04378034 0.04657821
v 0.00711526 0.04385379 -0.03039847
v 0.00689788 0.04391964 -0.03039847
v 0.00664269 0.04396861 -0.03039847
v 0.00636073 0.04402096 -0.03039847
v 0.00545026 0.04417715 -0.03039847
v 0.00177372 0.04480529 -0.03039847
v -0.00338666 0.04568587 0.04657821
v -0.00044575 0.04518437 -0.03039847
v 0.00818167 0.04345529 -0.03039847
v 0.00778787 0.04360980 -0.03039847
v 0.01000419 0.04261777 -0.03039847
v -0.00456650 0.04578212 0.04748890
v -0.00521548 0.04573569 0.04748890
v -0.00567072 0.04568587 0.04748890
v -0.00592433 0.04566983 0.04657821
v -0.00592433 0.04566983 -0.03039847
v -0.00304957 0.04562846 -0.03039847
v -0.00384190 0.04576355 -0.03039847
v 0.00735311 0.04378034 -0.03039847
v -0.00456650 0.04578212 -0.03039847
v -0.00487524 0.04576017 -0.03039847
v -0.00567072 0.04569347 0.04657821
v -0.00521548 0.04573569 -0.03039847
v -0.00545491 0.04571373 -0.03039847
f 1 2 7
f 1 7 16
f 1 16 26
f 1 26 41
f 1 41 63
f 1 63 52
f 1 52 31
f 1 31 19
f 1 19 8
f 1 8 3
f 1 3 4
f 1 4 5
f 1 5 11
f 1 11 23
f 1 23 36
f 1 36 24
f 1 24 12
f 1 12 6
f 1 6 2
f 2 6 7
f 3 8 9
f 3 9 4
f 4 9 10
f 4 10 11
f 4 11 5
f 6 12 13
f 6 13 7
f 7 13 12
f 7 12 14
f 7 14 15
f 7 15 16
f 8 17 18
f 8 18 9
f 8 19 17
f 9 18 10
f 10 20 21
f 10 21 22
f 10 22 11
f 10 18 20
f 11 22 23
f 12 24 38
f 12 38 61
f 12 61 80
f 12 80 81
f 12 81 62
f 12 62 40
f 12 40 39
f 12 39 25
f 12 25 15
f 12 15 14
f 15 25 16
f 16 25 26
f 17 27 18
f 17 19 28
f 17 28 29
f 17 29 27
f 18 30 20
f 18 27 30
f 19 31 28
f 20 30 32
f 20 32 33
f 20 33 21
f 21 33 22
f 22 33 34
f 22 34 35
f 22 35 36
f 22 36 23
f 24 36 37
f 24 37 38
f 25 39 26
f 26 39 40
f 26 40 41
f 27 42 43
f 27 43 30
f 27 29 44
f 27 44 45
f 27 45 46
f 27 46 47
f 27 47 48
f 27 48 42
f 28 49 29
f 28 31 50
f 28 50 51
f 28 51 49
f 29 49 44
f 30 43 32
f 31 52 76
f 31 76 50
f 32 43 53
f 32 53 54
f 32 54 33
f 33 54 55
f 33 55 34
f 34 55 35
f 35 55 56
f 35 56 37
f 35 37 36
f 37 56 57
f 37 57 58
f 37 58 59
f 37 59 38
f 38 59 60
f 38 60 61
f 40 62 63
f 40 63 41
f 42 58 43
f 42 48 64
f 42 64 58
f 43 58 53
f 44 49 65
f 44 65 45
f 45 65 66
f 45 66 67
f 45 67 68
f 45 68 46
f 46 68 69
f 46 69 70
f 46 70 47
f 47 70 71
f 47 71 48
f 48 72 64
f 48 71 73
f 48 73 72
f 49 51 74
f 49 74 75
f 49 75 65
f 50 76 51
f 51 76 52
f 51 52 63
f 51 63 62
f 51 62 81
f 51 81 89
f 51 89 88
f 51 88 86
f 51 86 85
f 51 85 83
f 51 83 82
f 51 82 73
f 51 73 71
f 51 71 70
f 51 70 69
f 51 69 68
f 51 68 67
f 51 67 66
f 51 66 84
f 51 84 75
f 51 75 74
f 53 58 54
f 54 58 55
f 55 58 56
f 56 58 57
f 58 64 77
f 58 77 59
f 59 77 60
f 60 77 78
f 60 78 79
f 60 79 61
f 61 79 80
f 64 72 73
f 64 73 82
f 64 82 83
f 64 83 85
f 64 85 77
f 65 75 84
f 65 84 66
f 77 85 86
f 77 86 78
f 78 87 80
f 78 80 79
f 78 86 88
f 78 88 89
f 78 89 87
f 80 87 89
f 80 89 81

