# https://github.com/mikedh/trimesh
v -0.07668078 -0.05286555 -0.02939348
v -0.07668078 -0.05446642 -0.02903883
v -0.07668078 -0.04931781 -0.02939348
v 0.00065738 -0.05286555 -0.02939348
v -0.07668078 -0.05528477 -0.02780761
v 0.00065738 -0.05446642 -0.02903883
v 0.00065738 -0.05466252 -0.02874441
v -0.07668078 -0.04931781 -0.02767378
v 0.00065738 -0.04931781 -0.02939348
v -0.07668078 -0.05894848 0.02501479
v 0.00065738 -0.05528477 -0.02780761
v -0.07668078 -0.05162012 0.03558061
v -0.07665806 -0.04931781 -0.02767378
v 0.00065738 -0.04931781 -0.02768047
v -0.07668078 -0.05894848 0.03558061
v 0.00065738 -0.05894848 0.02501479
v -0.07668078 -0.05170686 0.03734046
v 0.00065738 -0.05184450 0.03734046
v -0.07668078 -0.05887965 0.03734046
v 0.00065738 -0.05894848 0.03558061
v -0.07668078 -0.05188881 0.03831741
v 0.00065738 -0.05192276 0.03830403
v 0.00065738 -0.05190390 0.03807652
v -0.07668078 -0.05861096 0.03774195
v 0.00065738 -0.05887965 0.03734046
v -0.07668078 -0.05286555 0.03868544
v 0.00065738 -0.05286555 0.03867875
v -0.07668078 -0.05803868 0.03859176
v 0.00065738 -0.05867790 0.03764158
v 0.00065738 -0.05803868 0.03859176
v -0.07668078 -0.05462575 0.03896649
v 0.00065738 -0.05462575 0.03896649
v -0.07668078 -0.05751071 0.03871221
v 0.00065738 -0.05638595 0.03896649
v -0.07668078 -0.05638595 0.03896649
f 1 2 5
f 1 5 10
f 1 10 15
f 1 15 19
f 1 19 24
f 1 24 28
f 1 28 33
f 1 33 35
f 1 35 31
f 1 31 26
f 1 26 21
f 1 21 17
f 1 17 12
f 1 12 8
f 1 8 3
f 1 3 9
f 1 9 4
f 1 4 6
f 1 6 2
f 2 6 7
f 2 7 5
f 3 8 13
f 3 13 14
f 3 14 9
f 4 9 14
f 4 14 18
f 4 18 23
f 4 23 22
f 4 22 27
f 4 27 32
f 4 32 34
f 4 34 30
f 4 30 29
f 4 29 25
f 4 25 20
f 4 20 16
f 4 16 11
f 4 11 7
f 4 7 6
f 5 7 11
f 5 11 16
f 5 16 10
f 8 12 13
f 10 16 20
f 10 20 15
f 12 17 18
f 12 18 14
f 12 14 13
f 15 20 25
f 15 25 19
f 17 21 22
f 17 22 23
f 17 23 18
f 19 25 24
f 21 26 27
f 21 27 22
f 24 25 29
f 24 29 30
f 24 30 28
f 26 31 32
f 26 32 27
f 28 30 33
f 30 34 33
f 31 35 34
f 31 34 32
f 33 34 35

