# https://github.com/mikedh/trimesh
v 0.01648305 -0.00017427 -0.11552793
v 0.01860226 -0.00017427 -0.11598281
v 0.01648305 -0.00017427 -0.11461068
v 0.01648305 0.04264052 -0.12089352
v 0.02297449 -0.00017427 -0.11687821
v 0.01728868 -0.00017427 -0.11472050
v 0.01648305 0.00557199 -0.11461068
v 0.01648305 0.04271864 -0.12090225
v 0.04205552 -0.00017427 -0.12078432
v 0.04045793 -0.00017427 -0.12045798
v 0.01817350 -0.00017427 -0.11490145
v 0.01728868 0.00557199 -0.11472050
v 0.01728868 0.00645302 -0.11472487
v 0.01648305 0.00564577 -0.11461130
v 0.01648305 0.04360402 -0.12098524
v 0.04249520 -0.00017427 -0.12084297
v 0.02171279 -0.00017427 -0.11562589
v 0.01817350 0.00645302 -0.11490145
v 0.01884258 0.00733840 -0.11505370
v 0.01817350 0.00733840 -0.11493390
v 0.01728868 0.00733840 -0.11478352
v 0.01648305 0.00733840 -0.11467370
v 0.01648305 0.00645302 -0.11461817
v 0.02171279 0.00822377 -0.11562776
v 0.03633148 0.01489880 -0.11862785
v 0.01648305 0.04415955 -0.12072192
v 0.01728868 0.04360402 -0.12098524
v 0.04382517 -0.00017427 -0.12098524
v 0.04337730 -0.00017427 -0.12094343
v 0.04294035 -0.00017427 -0.12090225
v 0.03497967 -0.00017427 -0.11834207
v 0.02171279 0.00733840 -0.11562589
v 0.03497967 0.01353168 -0.11834207
v 0.02613418 0.00999452 -0.11653191
v 0.01874973 0.00792865 -0.11507429
v 0.01648305 0.00822377 -0.11478602
v 0.03635060 0.01441705 -0.11862411
v 0.03579895 0.01523732 -0.11859728
v 0.02698896 0.01173055 -0.11681457
v 0.04382517 0.01706883 -0.12015348
v 0.04294035 0.01706883 -0.11998313
v 0.04382517 0.01795421 -0.12018904
v 0.04294035 0.01795421 -0.12003617
v 0.04007013 0.01706883 -0.11948332
v 0.03940105 0.01706883 -0.11938474
v 0.01648305 0.04415955 -0.12032320
v 0.01728868 0.04415955 -0.12072192
v 0.01817350 0.04360402 -0.12095342
v 0.04382517 0.01795421 -0.12095404
v 0.04382517 0.01706883 -0.12098524
v 0.04437955 -0.00017427 -0.12072192
v 0.03984620 -0.00017427 -0.11933856
v 0.01817350 0.00822377 -0.11503124
v 0.01728868 0.00822377 -0.11490270
v 0.01648305 0.00830189 -0.11479725
v 0.03491413 0.01612270 -0.11859728
v 0.01648305 0.00918727 -0.11492516
v 0.02171279 0.00999452 -0.11579936
v 0.03985712 0.01752454 -0.11951640
v 0.03755221 0.01964249 -0.11948894
v 0.04437955 0.01706883 -0.12032320
v 0.04436043 0.01795421 -0.12033630
v 0.04382517 -0.00017427 -0.12015348
v 0.04431673 0.01845765 -0.12036688
v 0.04377328 0.01878750 -0.12030947
v 0.04294035 0.01883958 -0.12015660
v 0.01728868 0.04415955 -0.12032320
v 0.01648305 0.04360402 -0.12015348
v 0.01817350 0.04413785 -0.12068074
v 0.01867873 0.04409445 -0.12056031
v 0.01900644 0.04355194 -0.12070507
v 0.02166091 0.04090015 -0.12070507
v 0.04111881 0.02144362 -0.12070570
v 0.04377328 0.01878750 -0.12070570
v 0.04431673 0.01845765 -0.12056094
v 0.04436043 0.01795421 -0.12068074
v 0.04437955 0.01706883 -0.12072192
v 0.04437955 -0.00017427 -0.12032320
v 0.01648305 0.01449517 -0.11569328
v 0.03578257 0.02141324 -0.11948894
v 0.02967347 0.02061033 -0.11848808
v 0.04205552 0.01883958 -0.12002681
v 0.04344284 0.01934303 -0.12036688
v 0.04167592 0.02111378 -0.12036688
v 0.04200363 0.02055825 -0.12030947
v 0.04117070 0.02061033 -0.12015660
v 0.01817350 0.04413785 -0.12033630
v 0.01728868 0.04360402 -0.12015348
v 0.01648305 0.04048351 -0.11953075
v 0.01867873 0.04409445 -0.12036688
v 0.01956355 0.04322209 -0.12056031
v 0.02133046 0.04145568 -0.12056031
v 0.04167592 0.02111378 -0.12056094
v 0.04344284 0.01934303 -0.12056094
v 0.01648305 0.02061033 -0.11657871
v 0.04028588 0.02061033 -0.12002681
v 0.02082797 0.04006686 -0.12002681
v 0.02605498 0.03113934 -0.11948894
v 0.02074604 0.03644724 -0.11948894
v 0.01648305 0.03460706 -0.11860539
v 0.02663940 0.03614778 -0.12036688
v 0.02166091 0.04090015 -0.12031010
v 0.02171279 0.04006686 -0.12015660
v 0.01817350 0.04360402 -0.12018904
v 0.01728868 0.04271864 -0.11998313
v 0.01648305 0.04004082 -0.11944339
v 0.01900644 0.04355194 -0.12031010
v 0.01956355 0.04322209 -0.12036688
v 0.02663940 0.03614778 -0.12056031
v 0.02133046 0.04145568 -0.12036688
v 0.01905833 0.04271864 -0.12015660
v 0.01905833 0.04183327 -0.12002681
v 0.01809157 0.03909903 -0.11948894
v 0.01728868 0.03918149 -0.11938474
v 0.01728868 0.03984986 -0.11948332
v 0.01648305 0.03837423 -0.11916135
v 0.01648305 0.03923791 -0.11930175
v 0.01817350 0.04271864 -0.12003679
f 1 2 5
f 1 5 10
f 1 10 9
f 1 9 16
f 1 16 30
f 1 30 29
f 1 29 28
f 1 28 51
f 1 51 78
f 1 78 63
f 1 63 52
f 1 52 31
f 1 31 17
f 1 17 11
f 1 11 6
f 1 6 3
f 1 3 7
f 1 7 14
f 1 14 23
f 1 23 22
f 1 22 36
f 1 36 55
f 1 55 57
f 1 57 79
f 1 79 95
f 1 95 100
f 1 100 116
f 1 116 117
f 1 117 106
f 1 106 89
f 1 89 68
f 1 68 46
f 1 46 26
f 1 26 15
f 1 15 8
f 1 8 4
f 1 4 2
f 2 4 5
f 3 6 12
f 3 12 7
f 4 8 9
f 4 9 10
f 4 10 5
f 6 11 18
f 6 18 12
f 7 12 13
f 7 13 14
f 8 15 9
f 9 15 16
f 11 17 32
f 11 32 18
f 12 18 13
f 13 19 20
f 13 20 21
f 13 21 22
f 13 22 23
f 13 23 14
f 13 18 24
f 13 24 25
f 13 25 19
f 15 26 47
f 15 47 27
f 15 27 50
f 15 50 28
f 15 28 29
f 15 29 30
f 15 30 16
f 17 31 33
f 17 33 32
f 18 32 33
f 18 33 34
f 18 34 24
f 19 25 20
f 20 25 35
f 20 35 21
f 21 35 36
f 21 36 22
f 24 34 37
f 24 37 25
f 25 38 39
f 25 39 35
f 25 37 40
f 25 40 41
f 25 41 42
f 25 42 43
f 25 43 44
f 25 44 45
f 25 45 38
f 26 46 67
f 26 67 47
f 27 47 48
f 27 48 49
f 27 49 50
f 28 50 77
f 28 77 51
f 31 52 33
f 33 37 34
f 33 52 40
f 33 40 37
f 35 39 53
f 35 53 54
f 35 54 36
f 36 54 55
f 38 56 57
f 38 57 55
f 38 55 58
f 38 58 54
f 38 54 39
f 38 45 59
f 38 59 60
f 38 60 80
f 38 80 56
f 39 54 53
f 40 61 62
f 40 62 42
f 40 42 41
f 40 52 63
f 40 63 78
f 40 78 61
f 42 62 64
f 42 64 65
f 42 65 66
f 42 66 43
f 43 66 44
f 44 66 45
f 45 66 59
f 46 68 88
f 46 88 67
f 47 67 87
f 47 87 69
f 47 69 48
f 48 69 70
f 48 70 71
f 48 71 72
f 48 72 73
f 48 73 49
f 49 73 74
f 49 74 75
f 49 75 76
f 49 76 77
f 49 77 50
f 51 77 61
f 51 61 78
f 54 58 55
f 56 79 57
f 56 80 81
f 56 81 79
f 59 66 82
f 59 82 60
f 60 82 96
f 60 96 80
f 61 77 76
f 61 76 62
f 62 76 75
f 62 75 64
f 64 75 94
f 64 94 83
f 64 83 65
f 65 83 84
f 65 84 85
f 65 85 86
f 65 86 66
f 66 86 96
f 66 96 82
f 67 88 87
f 68 89 88
f 69 87 90
f 69 90 70
f 70 90 108
f 70 108 91
f 70 91 71
f 71 91 72
f 72 91 92
f 72 92 93
f 72 93 73
f 73 93 74
f 74 94 75
f 74 93 94
f 79 81 95
f 80 96 97
f 80 97 98
f 80 98 81
f 81 98 99
f 81 99 100
f 81 100 95
f 83 94 93
f 83 93 84
f 84 93 109
f 84 109 101
f 84 101 102
f 84 102 85
f 85 102 103
f 85 103 86
f 86 103 97
f 86 97 96
f 87 88 104
f 87 104 90
f 88 105 104
f 88 89 106
f 88 106 105
f 90 104 107
f 90 107 108
f 91 108 110
f 91 110 92
f 92 109 93
f 92 110 101
f 92 101 109
f 97 103 111
f 97 111 112
f 97 112 113
f 97 113 99
f 97 99 98
f 99 113 100
f 100 113 114
f 100 114 115
f 100 115 116
f 101 110 102
f 102 110 108
f 102 108 107
f 102 107 111
f 102 111 103
f 104 105 106
f 104 106 117
f 104 117 118
f 104 118 111
f 104 111 107
f 111 118 115
f 111 115 114
f 111 114 112
f 112 114 113
f 115 118 116
f 116 118 117

