# https://github.com/mikedh/trimesh
v 0.10942019 0.06794178 -0.01138579
v 0.10942019 0.06794178 -0.01280293
v 0.10733391 0.06794178 -0.01138244
v 0.10733391 0.06535501 0.00356550
v 0.11148601 0.06793054 -0.01141095
v 0.11148601 0.06793054 -0.01278281
v 0.10942019 0.06595110 -0.01354253
v 0.10733391 0.06595110 -0.01354421
v -0.09192619 0.06794178 -0.01280293
v -0.08983991 0.06794178 -0.01138244
v 0.10880657 0.06515256 0.00356550
v -0.08983991 0.06535501 0.00356550
v 0.11289732 0.06761563 -0.01164742
v 0.11289732 0.06761563 -0.01253292
v 0.11148601 0.06595110 -0.01349557
v 0.10942019 0.06388167 -0.01355763
v 0.10733391 0.06388167 -0.01356098
v -0.08983991 0.06595110 -0.01354421
v -0.09192619 0.06595110 -0.01354253
v -0.09399201 0.06793054 -0.01278281
v -0.09192619 0.06794178 -0.01138579
v 0.10966563 0.06388167 0.00356550
v -0.09399201 0.06793054 -0.01141095
v -0.09131257 0.06515256 0.00356550
v 0.11310185 0.06595110 -0.01143275
v 0.11007470 0.06180100 0.00356550
v 0.11310185 0.06595110 -0.01276268
v 0.11148601 0.06388167 -0.01350061
v 0.10942019 0.06180100 -0.01356098
v 0.10733391 0.06180100 -0.01356769
v -0.08983991 0.06388167 -0.01356098
v -0.09192619 0.06388167 -0.01355763
v -0.09399201 0.06595110 -0.01349557
v -0.09540332 0.06761563 -0.01253292
v -0.09540332 0.06761563 -0.01164742
v -0.09213072 0.06394915 0.00356550
v 0.11322458 -0.04405447 0.00349170
v 0.11320413 -0.04405447 0.00356550
v 0.11320413 -0.04405447 -0.00896239
v 0.11318367 -0.04188382 -0.01094807
v 0.11310185 -0.03989312 -0.01276268
v 0.11148601 -0.03782370 -0.01350061
v 0.10942019 -0.03782370 -0.01356098
v 0.10733391 -0.03989312 -0.01356769
v -0.08983991 0.06180100 -0.01356769
v -0.09192619 0.06180100 -0.01356098
v -0.09399201 0.06388167 -0.01350061
v -0.09560785 0.06595110 -0.01276268
v -0.09560785 0.06595110 -0.01143275
v -0.09258070 0.06191347 0.00356550
v -0.09215118 0.06388167 0.00356550
v 0.11295868 -0.04550531 0.00356550
v 0.11304050 -0.04574149 0.00141546
v 0.11308140 -0.04595518 -0.00273702
v 0.11302004 -0.04564027 -0.00688615
v 0.11297913 -0.04405447 -0.01086086
v 0.11306095 -0.04197379 -0.01273250
v 0.11148601 -0.03989312 -0.01349557
v 0.10942019 -0.03989312 -0.01355427
v 0.10733391 -0.04197379 -0.01341172
v -0.08983991 -0.03989312 -0.01356769
v -0.09192619 -0.03782370 -0.01356098
v -0.09399201 -0.03782370 -0.01350061
v -0.09560785 -0.03989312 -0.01276268
v -0.09568967 -0.04190631 -0.01096149
v -0.09571013 -0.04405447 -0.00896239
v -0.09573058 -0.04405447 0.00349170
v -0.09571013 -0.04397574 0.00356550
v 0.11295868 -0.04551655 0.00349170
v 0.11154737 -0.04592144 0.00356550
v 0.11148601 -0.04647254 0.00141546
v 0.11148601 -0.04677621 -0.00066078
v 0.11304050 -0.04588770 -0.00066078
v 0.11302004 -0.04582022 -0.00481158
v 0.11148601 -0.04687743 -0.00273702
v 0.11148601 -0.04665249 -0.00481158
v 0.11281550 -0.04534785 -0.00896239
v 0.11287687 -0.04335715 -0.01249267
v 0.11148601 -0.04197379 -0.01337818
v 0.11148601 -0.04350337 -0.01267212
v -0.09399201 -0.04351462 -0.01268554
v -0.05247097 -0.04197379 -0.01341172
v -0.08983991 -0.04197379 -0.01341004
v -0.09399201 -0.04197379 -0.01339495
v -0.09192619 -0.03989312 -0.01355595
v -0.09399201 -0.03989312 -0.01349725
v -0.09558740 -0.04197379 -0.01273585
v -0.09548513 -0.04405447 -0.01086086
v -0.09552604 -0.04564027 -0.00688615
v -0.09556695 -0.04595518 -0.00273702
v -0.09552604 -0.04573024 0.00141546
v -0.09548513 -0.04547157 0.00356550
v -0.09571013 -0.04405447 0.00356550
v 0.11148601 -0.04593268 0.00356550
v 0.11148601 -0.04595518 0.00349170
v 0.10942019 -0.04655127 0.00141546
v 0.10942019 -0.04686618 -0.00066078
v 0.10942019 -0.04693366 -0.00273702
v 0.10942019 -0.04676496 -0.00481158
v 0.11148601 -0.04625884 -0.00688615
v 0.11257006 -0.04511167 -0.01004915
v 0.11148601 -0.04453808 -0.01111243
v -0.09399201 -0.04454933 -0.01111243
v -0.09507606 -0.04511167 -0.01005082
v -0.09538287 -0.04336840 -0.01249770
v -0.09532150 -0.04534785 -0.00896239
v -0.09399201 -0.04665249 -0.00481158
v -0.09399201 -0.04686618 -0.00273702
v -0.09552604 -0.04582022 -0.00481158
v -0.09399201 -0.04675371 -0.00066078
v -0.09550559 -0.04587645 -0.00066078
v -0.09546468 -0.04551655 0.00349170
v -0.09546468 -0.04550531 0.00356550
v 0.10950200 -0.04594393 0.00356550
v 0.10942019 -0.04596643 0.00349170
v 0.10733391 -0.04656252 0.00141546
v 0.10733391 -0.04687743 -0.00066078
v 0.10526808 -0.04695616 -0.00273702
v 0.10733391 -0.04677621 -0.00481158
v 0.10942019 -0.04633757 -0.00688615
v 0.11148601 -0.04560653 -0.00896239
v 0.11148601 -0.04512291 -0.01007430
v -0.09399201 -0.04512291 -0.01007430
v -0.09399201 -0.04560653 -0.00896239
v -0.09399201 -0.04625884 -0.00688615
v -0.09192619 -0.04676496 -0.00481158
v -0.09192619 -0.04693366 -0.00273702
v -0.09192619 -0.04686618 -0.00066078
v -0.09399201 -0.04646130 0.00141546
v -0.09399201 -0.04595518 0.00349170
v -0.09399201 -0.04593268 0.00356550
v -0.09192619 -0.04594393 0.00356550
v -0.09192619 -0.04596643 0.00349170
v -0.08983991 -0.04656252 0.00141546
v -0.08983991 -0.04687743 -0.00066078
v -0.08777408 -0.04695616 -0.00273702
v -0.08983991 -0.04677621 -0.00481158
v -0.09192619 -0.04633757 -0.00688615
v -0.09192619 -0.04655127 0.00141546
f 1 2 9
f 1 9 21
f 1 21 10
f 1 10 3
f 1 3 4
f 1 4 5
f 1 5 6
f 1 6 2
f 2 6 7
f 2 7 8
f 2 8 18
f 2 18 9
f 3 10 12
f 3 12 4
f 4 11 5
f 4 12 24
f 4 24 36
f 4 36 51
f 4 51 50
f 4 50 68
f 4 68 93
f 4 93 92
f 4 92 113
f 4 113 131
f 4 131 132
f 4 132 114
f 4 114 94
f 4 94 70
f 4 70 52
f 4 52 38
f 4 38 26
f 4 26 22
f 4 22 11
f 5 13 14
f 5 14 6
f 5 11 13
f 6 14 15
f 6 15 7
f 7 16 17
f 7 17 8
f 7 15 16
f 8 17 31
f 8 31 18
f 9 18 19
f 9 19 20
f 9 20 23
f 9 23 21
f 10 21 12
f 11 22 13
f 12 21 23
f 12 23 24
f 13 25 27
f 13 27 14
f 13 22 26
f 13 26 25
f 14 27 15
f 15 27 28
f 15 28 16
f 16 29 30
f 16 30 17
f 16 28 29
f 17 30 45
f 17 45 31
f 18 31 19
f 19 31 32
f 19 32 33
f 19 33 20
f 20 33 34
f 20 34 35
f 20 35 23
f 23 35 24
f 24 35 36
f 25 37 27
f 25 26 37
f 26 38 37
f 27 37 39
f 27 39 40
f 27 40 41
f 27 41 42
f 27 42 28
f 28 42 43
f 28 43 29
f 29 43 44
f 29 44 30
f 30 44 61
f 30 61 45
f 31 45 32
f 32 45 46
f 32 46 47
f 32 47 33
f 33 47 48
f 33 48 34
f 34 48 49
f 34 49 35
f 35 49 50
f 35 50 51
f 35 51 36
f 37 38 52
f 37 52 53
f 37 53 54
f 37 54 39
f 39 54 55
f 39 55 56
f 39 56 57
f 39 57 40
f 40 57 41
f 41 57 58
f 41 58 42
f 42 58 43
f 43 59 44
f 43 58 59
f 44 59 60
f 44 60 82
f 44 82 61
f 45 61 62
f 45 62 46
f 46 62 63
f 46 63 47
f 47 63 64
f 47 64 48
f 48 64 65
f 48 65 66
f 48 66 67
f 48 67 49
f 49 67 50
f 50 67 68
f 52 69 53
f 52 70 71
f 52 71 69
f 53 69 72
f 53 72 73
f 53 73 54
f 54 74 55
f 54 73 75
f 54 75 74
f 55 74 75
f 55 75 76
f 55 76 77
f 55 77 56
f 56 77 78
f 56 78 57
f 57 78 79
f 57 79 58
f 58 79 59
f 59 79 60
f 60 79 80
f 60 80 81
f 60 81 82
f 61 82 83
f 61 83 84
f 61 84 85
f 61 85 62
f 62 85 86
f 62 86 63
f 63 86 64
f 64 87 65
f 64 86 87
f 65 87 66
f 66 87 88
f 66 88 89
f 66 89 90
f 66 90 67
f 67 90 91
f 67 91 92
f 67 92 93
f 67 93 68
f 69 71 72
f 70 94 95
f 70 95 71
f 71 95 96
f 71 96 97
f 71 97 72
f 72 75 73
f 72 97 75
f 75 97 98
f 75 98 99
f 75 99 76
f 76 100 77
f 76 99 100
f 77 101 78
f 77 100 101
f 78 101 80
f 78 80 79
f 80 101 102
f 80 102 81
f 81 103 104
f 81 104 105
f 81 105 84
f 81 84 83
f 81 83 82
f 81 102 103
f 84 105 87
f 84 87 86
f 84 86 85
f 87 105 88
f 88 105 106
f 88 106 89
f 89 106 107
f 89 107 108
f 89 108 109
f 89 109 90
f 90 108 110
f 90 110 111
f 90 111 91
f 90 109 108
f 91 112 92
f 91 111 110
f 91 110 112
f 92 112 113
f 94 114 95
f 95 114 115
f 95 115 96
f 96 115 116
f 96 116 117
f 96 117 97
f 97 117 118
f 97 118 98
f 98 118 99
f 99 118 119
f 99 119 120
f 99 120 100
f 100 121 101
f 100 120 121
f 101 121 122
f 101 122 102
f 102 122 103
f 103 123 104
f 103 122 123
f 104 106 105
f 104 123 124
f 104 124 125
f 104 125 106
f 106 125 107
f 107 125 126
f 107 126 108
f 108 127 128
f 108 128 110
f 108 126 127
f 110 129 112
f 110 128 129
f 112 129 113
f 113 129 130
f 113 130 131
f 114 132 133
f 114 133 115
f 115 133 134
f 115 134 116
f 116 134 135
f 116 135 117
f 117 135 136
f 117 136 118
f 118 136 137
f 118 137 119
f 119 137 138
f 119 138 120
f 120 138 124
f 120 124 121
f 121 124 123
f 121 123 122
f 124 138 125
f 125 138 126
f 126 138 137
f 126 137 136
f 126 136 127
f 127 136 128
f 128 136 135
f 128 135 134
f 128 134 139
f 128 139 129
f 129 139 130
f 130 139 133
f 130 133 132
f 130 132 131
f 133 139 134

