# https://github.com/mikedh/trimesh
v -0.06685267 0.01099757 -0.01834552
v -0.06741715 0.01099878 -0.01834552
v -0.06685267 0.00999400 -0.01834552
v -0.06685267 0.01099757 -0.03200452
v -0.06838392 0.01086481 -0.01834552
v -0.06741715 0.01099878 -0.03200452
v -0.07308815 0.00483371 -0.01834552
v -0.06685267 0.00999400 -0.03200452
v -0.06850644 0.01083464 -0.01834552
v -0.06838392 0.01086481 -0.03200452
v -0.06840021 0.01086119 -0.03200452
v -0.07408821 0.00483371 -0.01834552
v -0.07308815 0.00483371 -0.03200452
v -0.06918070 0.01066687 -0.01834552
v -0.06918070 0.01066687 -0.03200452
v -0.07403226 0.00522718 -0.01834552
v -0.07408821 0.00483371 -0.03200452
v -0.07102854 0.00974778 -0.01834552
v -0.07102854 0.00974778 -0.03200452
v -0.07400109 0.00535149 -0.01834552
v -0.07403226 0.00522718 -0.03200452
v -0.07151228 0.00938087 -0.01834552
v -0.07151228 0.00938087 -0.03200452
v -0.07382828 0.00603402 -0.01834552
v -0.07382828 0.00603402 -0.03200452
v -0.07205551 0.00889749 -0.01834552
v -0.07205551 0.00889749 -0.03200452
v -0.07290755 0.00787461 -0.01834552
v -0.07290755 0.00787461 -0.03200452
v -0.07246418 0.00844066 -0.01834552
v -0.07253855 0.00835738 -0.03200452
v -0.07253855 0.00835738 -0.01834552
f 1 2 5
f 1 5 9
f 1 9 14
f 1 14 18
f 1 18 22
f 1 22 26
f 1 26 30
f 1 30 32
f 1 32 28
f 1 28 24
f 1 24 20
f 1 20 16
f 1 16 12
f 1 12 7
f 1 7 3
f 1 3 8
f 1 8 4
f 1 4 6
f 1 6 2
f 2 6 10
f 2 10 5
f 3 7 13
f 3 13 8
f 4 8 13
f 4 13 17
f 4 17 21
f 4 21 25
f 4 25 29
f 4 29 31
f 4 31 27
f 4 27 23
f 4 23 19
f 4 19 15
f 4 15 11
f 4 11 10
f 4 10 6
f 5 10 11
f 5 11 9
f 7 12 17
f 7 17 13
f 9 11 14
f 11 15 14
f 12 16 21
f 12 21 17
f 14 15 19
f 14 19 18
f 16 20 21
f 18 19 23
f 18 23 22
f 20 24 25
f 20 25 21
f 22 23 27
f 22 27 26
f 24 28 29
f 24 29 25
f 26 27 30
f 27 31 30
f 28 32 31
f 28 31 29
f 30 31 32

