# https://github.com/mikedh/trimesh
v 0.01447042 -0.04066965 0.05533362
v -0.00411578 -0.03534877 0.05528162
v -0.00305876 -0.03641777 0.05533362
v 0.01447042 -0.04704597 0.05533362
v 0.01447042 -0.03952839 0.05499046
v -0.00411578 -0.03641777 0.05533362
v -0.00411578 -0.03455079 0.05498007
v 0.01181966 -0.04704597 0.05533362
v 0.01447042 -0.04805474 0.05503206
v 0.01447042 -0.03928447 0.05451213
v 0.01354256 -0.03905863 0.05477209
v -0.00411578 -0.04279409 0.05533362
v -0.00331892 -0.03471039 0.05487608
v -0.00411578 -0.03426774 0.05421057
v 0.00438046 -0.04598300 0.05533362
v 0.00331797 -0.04598300 0.05532322
v 0.01075718 -0.04704597 0.05531282
v 0.01394645 -0.04805474 0.05503206
v 0.01447042 -0.04830617 0.05461611
v 0.01447042 -0.03913241 0.05421057
v -0.00411578 -0.04391578 0.05505286
v -0.00305876 -0.04385706 0.05526083
v -0.00199627 -0.04385706 0.05533362
v 0.01447042 -0.03912488 0.05369064
v 0.01447042 -0.03768851 -0.05089879
v -0.00128674 -0.03358117 -0.05089879
v -0.00411578 -0.03425419 0.05314991
v 0.00012870 -0.04492002 0.05531282
v 0.00225549 -0.04598300 0.05528162
v 0.00969470 -0.04704597 0.05528162
v 0.01075718 -0.04785750 0.05502166
v 0.01181966 -0.04791321 0.05503206
v 0.01394645 -0.04855009 0.05421057
v 0.01447042 -0.04855009 0.05421057
v -0.00411578 -0.04396395 0.05503206
v -0.00305876 -0.04462342 0.05496967
v -0.00093379 -0.04492002 0.05519844
v 0.01447042 -0.04855159 -0.05089879
v -0.00408121 -0.03318821 -0.05089879
v -0.00411578 -0.03318821 -0.05089879
v 0.00863039 -0.04704597 0.05522963
v 0.00012870 -0.04581136 0.05502166
v 0.00225549 -0.04674635 0.05499046
v 0.00331797 -0.04682916 0.05503206
v 0.00969470 -0.04779426 0.05499046
v 0.00863039 -0.04772350 0.05492807
v 0.00756791 -0.04765424 0.05485529
v 0.00682562 -0.04760455 0.05478249
v 0.01075718 -0.04814507 0.05421057
v 0.01394645 -0.04856815 0.05314991
v 0.01447042 -0.04855912 0.05366984
v -0.00411578 -0.04443070 0.05421057
v -0.00380468 -0.04447587 0.05485529
v -0.00093379 -0.04560207 0.05490728
v 0.01394645 -0.04855159 -0.05089879
v 0.01447042 -0.04855912 -0.05048284
v -0.00411578 -0.04443220 -0.05089879
v 0.00144953 -0.04662740 0.05487608
v 0.00225549 -0.04697821 0.05421057
v 0.00331797 -0.04715738 0.05421057
v 0.00672010 -0.04761810 0.05421057
v 0.00863039 -0.04786955 0.05421057
v 0.00969470 -0.04800957 0.05421057
v 0.01447042 -0.04856665 0.05314991
v 0.01288215 -0.04842964 0.05314991
v 0.01394645 -0.04856815 -0.04994211
v -0.00411578 -0.04443522 0.05314991
v -0.00391020 -0.04452104 0.05421057
v -0.00153052 -0.04547861 0.05478249
v 0.01087180 -0.04816013 -0.05089879
v 0.01447042 -0.04856665 -0.04994211
v -0.00396842 -0.04449694 -0.05089879
v -0.00411578 -0.04443522 -0.05059723
v 0.00131308 -0.04668462 0.05421057
v 0.00331797 -0.04717093 0.05314991
v 0.00225549 -0.04697821 -0.05089879
v 0.00544294 -0.04745098 0.05314991
v 0.00768253 -0.04774608 -0.05089879
v 0.01288215 -0.04842964 -0.04994211
v 0.00980931 -0.04802462 -0.05089879
v -0.00093379 -0.04575414 0.05421057
v -0.00093379 -0.04575414 -0.05089879
v 0.00078183 -0.04646480 0.05314991
v 0.00131308 -0.04668462 -0.05089879
v 0.00331797 -0.04717093 -0.04994211
v 0.00237010 -0.04699779 -0.05089879
v 0.00544294 -0.04745098 -0.04994211
v 0.00672010 -0.04761810 -0.05089879
v 0.00125486 -0.04666053 -0.05089879
v 0.00078183 -0.04646480 -0.04994211
v 0.00331797 -0.04715889 -0.05089879
v 0.00666370 -0.04761058 -0.05089879
f 1 2 3
f 1 3 6
f 1 6 12
f 1 12 23
f 1 23 15
f 1 15 8
f 1 8 4
f 1 4 9
f 1 9 19
f 1 19 34
f 1 34 51
f 1 51 64
f 1 64 71
f 1 71 56
f 1 56 38
f 1 38 25
f 1 25 24
f 1 24 20
f 1 20 10
f 1 10 5
f 1 5 2
f 2 6 3
f 2 5 7
f 2 7 14
f 2 14 27
f 2 27 40
f 2 40 57
f 2 57 73
f 2 73 67
f 2 67 52
f 2 52 35
f 2 35 21
f 2 21 12
f 2 12 6
f 4 8 18
f 4 18 9
f 5 10 11
f 5 11 7
f 7 11 13
f 7 13 14
f 8 15 16
f 8 16 17
f 8 17 18
f 9 18 19
f 10 20 11
f 11 20 14
f 11 14 13
f 12 21 22
f 12 22 23
f 14 20 24
f 14 24 25
f 14 25 26
f 14 26 27
f 15 23 16
f 16 23 28
f 16 28 29
f 16 29 30
f 16 30 17
f 17 30 31
f 17 31 32
f 17 32 18
f 18 32 31
f 18 31 33
f 18 33 19
f 19 33 34
f 21 35 36
f 21 36 22
f 22 36 37
f 22 37 29
f 22 29 28
f 22 28 23
f 25 38 55
f 25 55 70
f 25 70 80
f 25 80 78
f 25 78 88
f 25 88 92
f 25 92 91
f 25 91 86
f 25 86 76
f 25 76 84
f 25 84 89
f 25 89 82
f 25 82 72
f 25 72 57
f 25 57 40
f 25 40 39
f 25 39 26
f 26 39 27
f 27 39 40
f 29 41 30
f 29 37 42
f 29 42 43
f 29 43 44
f 29 44 41
f 30 41 31
f 31 45 33
f 31 41 45
f 33 45 46
f 33 46 47
f 33 47 48
f 33 48 49
f 33 49 50
f 33 50 34
f 34 50 51
f 35 52 53
f 35 53 36
f 36 53 54
f 36 54 43
f 36 43 42
f 36 42 37
f 38 56 55
f 41 44 45
f 43 54 58
f 43 58 59
f 43 59 48
f 43 48 47
f 43 47 46
f 43 46 45
f 43 45 44
f 48 59 60
f 48 60 61
f 48 61 62
f 48 62 63
f 48 63 49
f 49 63 50
f 50 64 51
f 50 63 65
f 50 65 79
f 50 79 66
f 50 66 71
f 50 71 64
f 52 67 68
f 52 68 53
f 53 69 58
f 53 58 54
f 53 68 69
f 55 56 66
f 55 66 70
f 56 71 66
f 57 72 73
f 58 69 74
f 58 74 59
f 59 75 60
f 59 74 84
f 59 84 76
f 59 76 85
f 59 85 75
f 60 75 61
f 61 75 77
f 61 77 62
f 62 77 63
f 63 77 65
f 65 77 78
f 65 78 79
f 66 79 80
f 66 80 70
f 67 73 72
f 67 72 68
f 68 81 69
f 68 72 81
f 69 81 74
f 72 82 81
f 74 81 83
f 74 83 90
f 74 90 89
f 74 89 84
f 75 85 87
f 75 87 77
f 76 86 85
f 77 87 78
f 78 87 85
f 78 85 88
f 78 80 79
f 81 82 90
f 81 90 83
f 82 89 90
f 85 86 91
f 85 91 92
f 85 92 88

