# https://github.com/mikedh/trimesh
v 0.01447042 0.04542849 0.05533362
v 0.01447042 0.03905255 0.05533362
v 0.01447042 0.04592587 0.05518804
v 0.01182063 0.04542849 0.05533362
v -0.00305925 0.03480038 0.05533362
v -0.00442020 0.03373849 0.05529203
v -0.00412249 0.03373849 0.05528162
v -0.00442020 0.03341962 0.05521923
v 0.01447042 0.03848956 0.05516724
v 0.01447042 0.04643851 0.05503206
v 0.01394527 0.04643851 0.05503206
v 0.01075738 0.04542849 0.05531282
v 0.00331837 0.04436507 0.05532322
v 0.00438161 0.04436507 0.05533362
v -0.00442020 0.03450440 0.05533362
v -0.00442020 0.03284595 0.05501126
v 0.01447042 0.03791131 0.05499046
v 0.01447042 0.04668263 0.05462651
v 0.01394527 0.04693284 0.05421057
v 0.01075738 0.04624170 0.05502166
v 0.01182063 0.04629510 0.05503206
v 0.00969414 0.04542849 0.05528162
v 0.00225513 0.04436507 0.05528162
v 0.00012864 0.04330318 0.05531282
v -0.00199600 0.04223976 0.05533362
v 0.00119188 0.04330318 0.05533362
v -0.00442020 0.04088035 0.05533362
v -0.00442020 0.03266744 0.05466811
v 0.01354401 0.03744139 0.05477209
v 0.01447042 0.03765957 0.05450173
v 0.01447042 0.04693284 0.05421057
v 0.00682615 0.04598843 0.05478249
v 0.00756765 0.04603725 0.05485529
v 0.00863089 0.04610591 0.05492807
v 0.00969414 0.04617609 0.05499046
v 0.01447042 0.04694200 0.05369064
v 0.01394527 0.04694963 0.05314991
v 0.00969414 0.04639274 0.05421057
v 0.00331837 0.04521337 0.05503206
v 0.00863089 0.04542849 0.05522963
v -0.00093461 0.04330318 0.05519844
v -0.00305925 0.04223976 0.05526083
v 0.00225513 0.04512946 0.05499046
v 0.00012864 0.04419419 0.05502166
v -0.00442020 0.04117634 0.05532322
v -0.00412249 0.04117634 0.05533362
v -0.00442020 0.03249961 0.05421057
v 0.01447042 0.03751462 0.05421057
v 0.00863089 0.04625390 0.05421057
v 0.00672075 0.04600216 0.05421057
v 0.00331837 0.04554140 0.05421057
v 0.00225513 0.04535984 0.05421057
v 0.01447042 0.04694963 0.05314991
v 0.01288202 0.04681232 0.05314991
v 0.01394527 0.04694963 -0.04994211
v -0.00305925 0.04300719 0.05496967
v -0.00442020 0.04222755 0.05503206
v -0.00442020 0.04200327 0.05511525
v 0.00144891 0.04501045 0.05487608
v -0.00093461 0.04398517 0.05490728
v -0.00442020 0.03249351 0.05377383
v 0.01447042 0.03607283 -0.05089879
v 0.00438161 0.04569397 0.05314991
v 0.01182063 0.04667347 0.05314991
v 0.00863089 0.04625390 -0.05089879
v 0.00331837 0.04555360 0.05314991
v 0.00131207 0.04506690 0.05421057
v 0.00225513 0.04535984 -0.05089879
v 0.00215342 0.04532932 -0.05089879
v 0.01447042 0.04694963 -0.04994211
v 0.01288202 0.04681232 -0.04994211
v 0.01394527 0.04693590 -0.05089879
v 0.00969414 0.04639274 -0.05089879
v -0.00380444 0.04285920 0.05485529
v -0.00442020 0.04267611 0.05423136
v -0.00153187 0.04386159 0.05478249
v -0.00442020 0.03248588 0.05314991
v -0.00202004 0.03195798 -0.05089879
v 0.01447042 0.04693590 -0.05089879
v 0.00438161 0.04569397 -0.04994211
v 0.01182063 0.04667347 -0.04994211
v 0.00672075 0.04600216 -0.05089879
v 0.00331837 0.04555360 -0.04994211
v 0.00012864 0.04457715 0.05314991
v -0.00156516 0.04387532 0.05421057
v 0.00131207 0.04506690 -0.05089879
v 0.00331837 0.04554292 -0.05089879
v -0.00390984 0.04290344 0.05421057
v -0.00442020 0.04267916 0.05421057
v -0.00442020 0.03136601 -0.05089879
v -0.00442020 0.04269289 0.05319150
v 0.00012864 0.04457715 -0.04994211
v -0.00156516 0.04387532 -0.05089879
v -0.00442020 0.04268069 -0.05089879
v -0.00442020 0.04269289 -0.04994211
v -0.00390984 0.04290344 -0.05089879
f 1 2 9
f 1 9 17
f 1 17 30
f 1 30 48
f 1 48 62
f 1 62 79
f 1 79 70
f 1 70 53
f 1 53 36
f 1 36 31
f 1 31 18
f 1 18 10
f 1 10 3
f 1 3 4
f 1 4 14
f 1 14 26
f 1 26 25
f 1 25 46
f 1 46 27
f 1 27 15
f 1 15 5
f 1 5 2
f 2 5 6
f 2 6 7
f 2 7 8
f 2 8 9
f 3 10 11
f 3 11 4
f 4 11 12
f 4 12 13
f 4 13 14
f 5 15 6
f 6 15 27
f 6 27 45
f 6 45 58
f 6 58 57
f 6 57 75
f 6 75 89
f 6 89 91
f 6 91 95
f 6 95 94
f 6 94 90
f 6 90 77
f 6 77 61
f 6 61 47
f 6 47 28
f 6 28 16
f 6 16 8
f 6 8 7
f 8 16 17
f 8 17 9
f 10 18 11
f 11 18 19
f 11 19 20
f 11 20 21
f 11 21 12
f 12 22 13
f 12 21 20
f 12 20 22
f 13 22 23
f 13 23 24
f 13 24 25
f 13 25 26
f 13 26 14
f 16 28 29
f 16 29 17
f 17 29 30
f 18 31 19
f 19 32 33
f 19 33 34
f 19 34 35
f 19 35 20
f 19 31 36
f 19 36 37
f 19 37 38
f 19 38 32
f 20 39 40
f 20 40 22
f 20 35 39
f 22 40 23
f 23 41 42
f 23 42 24
f 23 40 39
f 23 39 43
f 23 43 44
f 23 44 41
f 24 42 25
f 25 42 45
f 25 45 46
f 27 46 45
f 28 47 29
f 29 47 48
f 29 48 30
f 32 38 49
f 32 49 50
f 32 50 51
f 32 51 52
f 32 52 43
f 32 43 33
f 33 43 34
f 34 43 35
f 35 43 39
f 36 53 37
f 37 54 38
f 37 53 70
f 37 70 55
f 37 55 71
f 37 71 54
f 38 54 49
f 41 44 56
f 41 56 42
f 42 56 57
f 42 57 58
f 42 58 45
f 43 52 59
f 43 59 60
f 43 60 56
f 43 56 44
f 47 61 48
f 48 61 62
f 49 63 50
f 49 54 64
f 49 64 81
f 49 81 65
f 49 65 80
f 49 80 63
f 50 63 66
f 50 66 51
f 51 66 52
f 52 67 59
f 52 66 83
f 52 83 68
f 52 68 69
f 52 69 67
f 54 71 81
f 54 81 64
f 55 70 79
f 55 79 72
f 55 72 73
f 55 73 71
f 56 60 74
f 56 74 57
f 57 74 75
f 59 67 76
f 59 76 74
f 59 74 60
f 61 77 62
f 62 78 90
f 62 90 94
f 62 94 96
f 62 96 93
f 62 93 86
f 62 86 69
f 62 69 68
f 62 68 87
f 62 87 82
f 62 82 65
f 62 65 73
f 62 73 72
f 62 72 79
f 62 77 78
f 63 80 83
f 63 83 66
f 65 81 71
f 65 71 73
f 65 82 80
f 67 84 85
f 67 85 76
f 67 69 86
f 67 86 92
f 67 92 84
f 68 83 87
f 74 76 88
f 74 88 89
f 74 89 75
f 76 85 88
f 77 90 78
f 80 82 83
f 82 87 83
f 84 91 85
f 84 92 95
f 84 95 91
f 85 91 88
f 86 93 92
f 88 91 89
f 92 93 95
f 93 96 95
f 94 95 96

