# https://github.com/mikedh/trimesh
v 0.04755123 0.01852750 -0.04180628
v 0.04155700 0.02622384 -0.04180628
v 0.05779867 0.01852750 -0.04180628
v 0.04755123 0.01852750 0.05314664
v 0.04155700 0.03818886 -0.04180628
v 0.04155700 0.02622384 0.05421160
v 0.05699891 0.02045977 -0.04180628
v 0.05779867 0.01852750 0.05314664
v 0.04756396 0.01852750 0.05421160
v 0.04606619 0.03472850 -0.04180628
v 0.04155700 0.03818886 0.05421160
v 0.04529664 0.02150481 0.05475359
v 0.04208169 0.02572538 0.05478212
v 0.04155700 0.02645479 0.05488671
v 0.05634066 0.02204561 -0.04180628
v 0.05699891 0.02045977 0.05421160
v 0.05722151 0.01991896 0.05421160
v 0.05699732 0.02045592 0.05474408
v 0.05779232 0.01852750 0.05362206
v 0.04800438 0.01852750 0.05504836
v 0.04725868 0.01916453 0.05490573
v 0.04627766 0.02033467 0.05484868
v 0.04728094 0.03379508 -0.04180628
v 0.04651616 0.03438207 0.05421160
v 0.04704721 0.03397406 0.05421160
v 0.04155700 0.03790980 0.05493425
v 0.04224705 0.03755761 0.05485819
v 0.04646686 0.03434358 0.05482966
v 0.04155700 0.02736126 0.05521000
v 0.05623413 0.02228618 -0.04180628
v 0.05634066 0.02204561 0.05421160
v 0.05599563 0.02269611 0.05482966
v 0.05710862 0.01991896 0.05486770
v 0.05778437 0.01852750 0.05421160
v 0.05602585 0.02275577 0.05421160
v 0.04902356 0.01852750 0.05531460
v 0.04773726 0.03344289 -0.04180628
v 0.04773726 0.03344289 0.05421160
v 0.04155700 0.03723043 0.05517197
v 0.04261911 0.03692827 0.05502934
v 0.04341728 0.03657608 0.05491524
v 0.04763391 0.03336398 0.05489622
v 0.04158403 0.02842169 0.05533362
v 0.04155700 0.02842169 0.05532411
v 0.05602585 0.02275577 -0.04180628
v 0.05382531 0.02579081 0.05477261
v 0.05507662 0.02391051 0.05492474
v 0.05541847 0.02307333 0.05501983
v 0.05613714 0.02204561 0.05495327
v 0.05571262 0.02328695 0.05421160
v 0.05518156 0.02404716 0.05421160
v 0.05731373 0.01885660 0.05501033
v 0.05739959 0.01852750 0.05501983
v 0.05008567 0.01852750 0.05533362
v 0.04902356 0.01885660 0.05533362
v 0.04826832 0.03298099 -0.04180628
v 0.04826832 0.03298099 0.05421160
v 0.04155700 0.03692442 0.05526706
v 0.04158403 0.03692442 0.05526706
v 0.04374640 0.03591210 0.05507688
v 0.04685164 0.03372580 0.05500082
v 0.04797735 0.03269038 0.05504836
v 0.04865150 0.03234588 0.05489622
v 0.04155700 0.02948405 0.05533362
v 0.05571262 0.02328695 -0.04180628
v 0.04967068 0.03122771 0.05421160
v 0.04926206 0.03175889 0.05421160
v 0.04873100 0.03244788 0.05421160
v 0.04963252 0.03117767 0.05482966
v 0.05284429 0.02696095 0.05485819
v 0.05289517 0.02702638 0.05421160
v 0.05186327 0.02813108 0.05491524
v 0.05221466 0.02733239 0.05502934
v 0.05439929 0.02422807 0.05508639
v 0.05540098 0.02204561 0.05524804
v 0.05518156 0.02404716 -0.04180628
v 0.05356455 0.02615455 -0.04180628
v 0.05646309 0.01885660 0.05530509
v 0.05646309 0.01852750 0.05531460
v 0.05540098 0.01852750 0.05533362
v 0.04873100 0.03244788 -0.04180628
v 0.04155700 0.03586207 0.05533362
v 0.04158403 0.03586207 0.05533362
v 0.04264614 0.03586207 0.05530509
v 0.04689775 0.03267306 0.05529558
v 0.04583564 0.03373542 0.05524804
v 0.04901402 0.03156451 0.05500082
v 0.04796145 0.03161070 0.05529558
v 0.04902356 0.03054641 0.05524804
v 0.04940038 0.03157991 -0.04180628
v 0.05119866 0.02845826 0.05507688
v 0.05327517 0.02523461 0.05520050
v 0.05433728 0.02310797 0.05531460
v 0.05540098 0.02098325 0.05532411
v 0.05540098 0.01991896 0.05533362
v 0.04370984 0.03479971 0.05533362
v 0.05008567 0.02842169 0.05533362
v 0.05114937 0.02736126 0.05530509
v 0.05221148 0.02629697 0.05526706
v 0.05327517 0.02417225 0.05533362
f 1 2 5
f 1 5 10
f 1 10 23
f 1 23 37
f 1 37 56
f 1 56 81
f 1 81 90
f 1 90 77
f 1 77 76
f 1 76 65
f 1 65 45
f 1 45 30
f 1 30 15
f 1 15 7
f 1 7 3
f 1 3 8
f 1 8 19
f 1 19 34
f 1 34 53
f 1 53 79
f 1 79 80
f 1 80 54
f 1 54 36
f 1 36 20
f 1 20 9
f 1 9 4
f 1 4 6
f 1 6 2
f 2 6 14
f 2 14 29
f 2 29 44
f 2 44 64
f 2 64 82
f 2 82 58
f 2 58 39
f 2 39 26
f 2 26 11
f 2 11 5
f 3 7 16
f 3 16 8
f 4 9 6
f 5 11 10
f 6 9 12
f 6 12 13
f 6 13 14
f 7 15 31
f 7 31 16
f 8 16 17
f 8 17 18
f 8 18 19
f 9 20 21
f 9 21 22
f 9 22 12
f 10 11 24
f 10 24 25
f 10 25 23
f 11 26 27
f 11 27 28
f 11 28 24
f 12 22 14
f 12 14 13
f 14 22 21
f 14 21 20
f 14 20 29
f 15 30 31
f 16 31 18
f 16 18 17
f 18 32 33
f 18 33 34
f 18 34 19
f 18 31 35
f 18 35 32
f 20 36 29
f 23 25 38
f 23 38 37
f 24 28 25
f 25 28 38
f 26 39 40
f 26 40 41
f 26 41 27
f 27 41 42
f 27 42 28
f 28 42 38
f 29 36 43
f 29 43 44
f 30 45 35
f 30 35 31
f 32 46 47
f 32 47 48
f 32 48 49
f 32 49 33
f 32 35 50
f 32 50 51
f 32 51 46
f 33 49 52
f 33 52 53
f 33 53 34
f 35 45 65
f 35 65 50
f 36 54 55
f 36 55 43
f 37 38 57
f 37 57 56
f 38 42 57
f 39 58 59
f 39 59 40
f 40 59 60
f 40 60 61
f 40 61 42
f 40 42 41
f 42 61 62
f 42 62 63
f 42 63 57
f 43 64 44
f 43 55 54
f 43 54 80
f 43 80 95
f 43 95 100
f 43 100 97
f 43 97 96
f 43 96 83
f 43 83 82
f 43 82 64
f 46 66 67
f 46 67 68
f 46 68 69
f 46 69 70
f 46 70 47
f 46 51 71
f 46 71 66
f 47 72 73
f 47 73 74
f 47 74 48
f 47 70 72
f 48 74 75
f 48 75 49
f 49 75 52
f 50 65 76
f 50 76 51
f 51 76 77
f 51 77 71
f 52 75 78
f 52 78 53
f 53 78 79
f 56 57 68
f 56 68 81
f 57 63 68
f 58 82 83
f 58 83 59
f 59 83 84
f 59 84 85
f 59 85 86
f 59 86 60
f 60 86 61
f 61 86 62
f 62 87 63
f 62 86 85
f 62 85 88
f 62 88 89
f 62 89 87
f 63 87 72
f 63 72 70
f 63 70 69
f 63 69 68
f 66 71 77
f 66 77 90
f 66 90 67
f 67 90 68
f 68 90 81
f 72 87 73
f 73 91 92
f 73 92 74
f 73 87 91
f 74 92 75
f 75 92 99
f 75 99 93
f 75 93 94
f 75 94 78
f 78 94 79
f 79 94 95
f 79 95 80
f 83 96 84
f 84 96 85
f 85 96 88
f 87 89 91
f 88 96 97
f 88 97 98
f 88 98 99
f 88 99 89
f 89 99 92
f 89 92 91
f 93 99 98
f 93 98 97
f 93 97 100
f 93 100 94
f 94 100 95

