# https://github.com/mikedh/trimesh
v 0.01447042 -0.04856319 -0.05026026
v 0.01447042 -0.04854450 -0.05101360
v 0.01470418 -0.04856319 -0.05026026
v 0.01447042 0.04694619 -0.05026026
v 0.01501274 -0.04854450 -0.05101360
v 0.01447042 -0.04804900 -0.05183721
v 0.01501274 -0.04855385 -0.05026026
v 0.01501274 0.04694619 -0.05026026
v 0.01447042 0.04692750 -0.05101360
v 0.01820122 -0.04814249 -0.05101360
v 0.01576545 -0.04846035 -0.05026026
v 0.01501274 -0.04804900 -0.05183721
v 0.01820122 -0.04785267 -0.05182623
v 0.01926249 -0.04778723 -0.05179110
v 0.02032844 -0.04772179 -0.05173328
v 0.02213306 -0.04760025 -0.05158817
v 0.01447042 -0.04703931 -0.05212944
v 0.01744852 0.04662833 -0.05026026
v 0.02223591 0.04600195 -0.05101360
v 0.01820122 0.04652549 -0.05101360
v 0.01501274 0.04692750 -0.05101360
v 0.01447042 0.04668442 -0.05141946
v 0.01895393 -0.04804900 -0.05026026
v 0.02223591 -0.04761895 -0.05101360
v 0.01713996 -0.04790877 -0.05183721
v 0.01713996 -0.04703931 -0.05212944
v 0.01820122 -0.04703931 -0.05211846
v 0.01926249 -0.04703931 -0.05208332
v 0.02563945 -0.04682428 -0.05183684
v 0.02138971 -0.04764699 -0.05165478
v 0.02670540 -0.04674014 -0.05179165
v 0.02670540 -0.04697387 -0.05101360
v 0.02563945 -0.04715150 -0.05101360
v 0.01447042 0.04542231 -0.05212944
v 0.02223591 0.04600195 -0.05026026
v 0.02213306 0.04598324 -0.05158817
v 0.02488675 0.04564668 -0.05026026
v 0.02563945 0.04554384 -0.05026026
v 0.02563945 0.04553449 -0.05101360
v 0.01501274 0.04643200 -0.05183721
v 0.02032844 0.04610479 -0.05173328
v 0.01926249 0.04617023 -0.05179110
v 0.01820122 0.04623567 -0.05182623
v 0.01447042 0.04643200 -0.05183721
v 0.02223591 -0.04761895 -0.05026026
v 0.02563945 -0.04716084 -0.05026026
v 0.02457819 -0.04598287 -0.05212944
v 0.02563945 -0.04598287 -0.05212907
v 0.02670540 -0.04598287 -0.05208406
v 0.02750953 -0.04662795 -0.05167966
v 0.02882794 -0.04580524 -0.05182386
v 0.03202109 -0.04461792 -0.05177463
v 0.02764511 -0.04668405 -0.05101360
v 0.02737395 -0.04676819 -0.05026026
v 0.02670540 -0.04697387 -0.05026026
v 0.02639216 -0.04702996 -0.05026026
v 0.01447042 0.04593650 -0.05198122
v 0.01713996 0.04542231 -0.05212944
v 0.02138971 0.04602999 -0.05165478
v 0.02670540 0.04535686 -0.05101360
v 0.02670540 0.04512314 -0.05179165
v 0.02595269 0.04549710 -0.05026026
v 0.01713996 0.04629176 -0.05183721
v 0.01820122 0.04542231 -0.05211846
v 0.02563945 0.04520728 -0.05183684
v 0.01926249 0.04542231 -0.05208332
v 0.03095515 -0.04385130 -0.05212944
v 0.02882794 -0.04491708 -0.05211608
v 0.03414363 -0.04278551 -0.05210455
v 0.03202109 -0.04385130 -0.05206704
v 0.02989388 -0.04491708 -0.05200007
v 0.03276445 -0.04446833 -0.05165642
v 0.03049231 -0.04547803 -0.05158506
v 0.03733211 -0.04245830 -0.05175414
v 0.03414363 -0.04364562 -0.05181232
v 0.02764511 -0.04668405 -0.05026026
v 0.03574255 -0.04332776 -0.05154810
v 0.03520957 -0.04355213 -0.05101360
v 0.02563945 0.04436587 -0.05212907
v 0.02457819 0.04436587 -0.05212944
v 0.02670540 0.04535686 -0.05026026
v 0.02764511 0.04506704 -0.05101360
v 0.02750953 0.04501095 -0.05167966
v 0.03202109 0.04300092 -0.05177463
v 0.02882794 0.04418824 -0.05182386
v 0.02670540 0.04436587 -0.05208406
v 0.03520957 -0.04172908 -0.05212944
v 0.03627084 -0.04172908 -0.05212907
v 0.03733211 -0.04172908 -0.05204636
v 0.03798196 -0.04231806 -0.05162952
v 0.03835598 -0.04174778 -0.05182019
v 0.03520957 -0.04355213 -0.05026026
v 0.03733211 -0.04266397 -0.05101360
v 0.03702822 -0.04279486 -0.05026026
v 0.03574722 -0.04332776 -0.05101360
v 0.03804274 -0.04235546 -0.05101360
v 0.02882794 0.04330008 -0.05211608
v 0.03095515 0.04223429 -0.05212944
v 0.02764511 0.04506704 -0.05026026
v 0.03520957 0.04193513 -0.05101360
v 0.03574255 0.04171075 -0.05154810
v 0.03049231 0.04386102 -0.05158506
v 0.03276445 0.04285133 -0.05165642
v 0.03733211 0.04084130 -0.05175414
v 0.03414363 0.04202862 -0.05181232
v 0.02989388 0.04330008 -0.05200007
v 0.03202109 0.04223429 -0.05206704
v 0.03414363 0.04116851 -0.05210455
v 0.03945465 -0.03959751 -0.05212944
v 0.03839338 -0.04066329 -0.05211791
v 0.04051592 -0.03959751 -0.05200116
v 0.03951075 -0.04072874 -0.05188643
v 0.03919284 -0.04140186 -0.05172431
v 0.04107226 -0.04014910 -0.05156878
v 0.03932842 -0.04150470 -0.05101360
v 0.03857104 -0.04203759 -0.05101360
v 0.03783703 -0.04244895 -0.05026026
v 0.03804274 -0.04235546 -0.05026026
v 0.03627084 0.04011207 -0.05212907
v 0.03520957 0.04011207 -0.05212944
v 0.03520957 0.04193513 -0.05026026
v 0.03574722 0.04171075 -0.05101360
v 0.03733211 0.04104697 -0.05101360
v 0.03804274 0.04073846 -0.05101360
v 0.03798196 0.04070106 -0.05162952
v 0.03835598 0.04013077 -0.05182019
v 0.03733211 0.04011207 -0.05204636
v 0.04370440 -0.03640949 -0.05212944
v 0.04264313 -0.03747528 -0.05210876
v 0.04158186 -0.03854107 -0.05206594
v 0.04583161 -0.03535306 -0.05204911
v 0.04374180 -0.03752203 -0.05187912
v 0.04261508 -0.03854107 -0.05182825
v 0.04224574 -0.03916745 -0.05165496
v 0.04763156 -0.03497910 -0.05169778
v 0.04231119 -0.03922355 -0.05101360
v 0.04161459 -0.03975644 -0.05101360
v 0.04646276 -0.03596074 -0.05163263
v 0.04773442 -0.03505389 -0.05101360
v 0.04651419 -0.03599814 -0.05101360
v 0.03932842 -0.04150470 -0.05026026
v 0.03910868 -0.04166363 -0.05026026
v 0.04051592 -0.04059785 -0.05026026
v 0.03857104 -0.04203759 -0.05026026
v 0.03839338 0.03904629 -0.05211791
v 0.03945465 0.03798050 -0.05212944
v 0.03574722 0.04171075 -0.05026026
v 0.03753782 0.04096283 -0.05026026
v 0.03804274 0.04073846 -0.05026026
v 0.03857104 0.04042059 -0.05101360
v 0.03932842 0.03988770 -0.05101360
v 0.04107226 0.03853209 -0.05156878
v 0.03919284 0.03978486 -0.05172431
v 0.03951075 0.03911173 -0.05188643
v 0.04051592 0.03798050 -0.05200116
v 0.04477034 -0.03535306 -0.05212944
v 0.04689756 -0.03428727 -0.05209797
v 0.04797285 -0.03430597 -0.05184526
v 0.04685080 -0.03533436 -0.05180629
v 0.04865075 -0.03396005 -0.05169778
v 0.04826739 -0.03459579 -0.05101360
v 0.04231119 -0.03922355 -0.05026026
v 0.04788869 -0.03492301 -0.05026026
v 0.04773442 -0.03505389 -0.05026026
v 0.04753338 -0.03521282 -0.05026026
v 0.04651419 -0.03599814 -0.05026026
v 0.04158186 0.03692407 -0.05206594
v 0.04264313 0.03585828 -0.05210876
v 0.04370440 0.03479249 -0.05212944
v 0.03857104 0.04042059 -0.05026026
v 0.03879077 0.04027101 -0.05026026
v 0.03932842 0.03988770 -0.05026026
v 0.04005307 0.03933611 -0.05026026
v 0.04161459 0.03813943 -0.05101360
v 0.04224574 0.03755045 -0.05165496
v 0.04231119 0.03760654 -0.05101360
v 0.04651419 0.03438113 -0.05101360
v 0.04773442 0.03343689 -0.05101360
v 0.04646276 0.03434374 -0.05163263
v 0.04261508 0.03692407 -0.05182825
v 0.04763156 0.03336209 -0.05169778
v 0.04374180 0.03590502 -0.05187912
v 0.04583161 0.03373605 -0.05204911
v 0.04795882 -0.03216505 -0.05212944
v 0.05008604 -0.03003347 -0.05212944
v 0.04795882 -0.03322149 -0.05209797
v 0.04902009 -0.03216505 -0.05204929
v 0.04901074 -0.03317474 -0.05180629
v 0.04962787 -0.03279143 -0.05163263
v 0.04873023 -0.03406289 -0.05101360
v 0.05221325 -0.02894899 -0.05182825
v 0.05186261 -0.02974366 -0.05171205
v 0.05284440 -0.02857503 -0.05165514
v 0.04826739 -0.03459579 -0.05026026
v 0.04689756 0.03267027 -0.05209797
v 0.04477034 0.03373605 -0.05212944
v 0.04231119 0.03760654 -0.05026026
v 0.04651419 0.03438113 -0.05026026
v 0.04724352 0.03382020 -0.05026026
v 0.04773442 0.03343689 -0.05026026
v 0.04826739 0.03297878 -0.05101360
v 0.04685080 0.03371736 -0.05180629
v 0.04865075 0.03234305 -0.05169778
v 0.04797285 0.03268897 -0.05184526
v 0.05327452 -0.02577968 -0.05212944
v 0.05433579 -0.02472324 -0.05211809
v 0.05114730 -0.02896769 -0.05210876
v 0.05220857 -0.02791125 -0.05206594
v 0.05327452 -0.02684547 -0.05200135
v 0.05119873 -0.03007087 -0.05187912
v 0.05382152 -0.02739706 -0.05156895
v 0.05018889 -0.03216505 -0.05101360
v 0.04873023 -0.03406289 -0.05026026
v 0.05439656 -0.02583578 -0.05188643
v 0.05507447 -0.02552726 -0.05172449
v 0.04795882 0.03160448 -0.05209797
v 0.05008604 0.02841647 -0.05212944
v 0.04795882 0.03054805 -0.05212944
v 0.04826739 0.03297878 -0.05026026
v 0.04873023 0.03244589 -0.05101360
v 0.04901074 0.03155774 -0.05180629
v 0.04962787 0.03117443 -0.05163263
v 0.05284440 0.02695803 -0.05165514
v 0.05186261 0.02812666 -0.05171205
v 0.05221325 0.02733199 -0.05182825
v 0.04902009 0.03054805 -0.05204929
v 0.05539705 -0.02259167 -0.05212925
v 0.05752427 -0.01728144 -0.05212944
v 0.05539705 -0.02365746 -0.05204673
v 0.05599548 -0.02430254 -0.05162989
v 0.05517732 -0.02565815 -0.05101360
v 0.05342412 -0.02794865 -0.05101360
v 0.05248441 -0.02917337 -0.05101360
v 0.05018889 -0.03216505 -0.05026026
v 0.05506044 -0.02581708 -0.05026026
v 0.05541575 -0.02468585 -0.05182056
v 0.05220857 0.02629425 -0.05206594
v 0.05114730 0.02735069 -0.05210876
v 0.05433579 0.02310624 -0.05211809
v 0.05327452 0.02416268 -0.05212944
v 0.04873023 0.03244589 -0.05026026
v 0.04938008 0.03160448 -0.05026026
v 0.05018889 0.03054805 -0.05101360
v 0.05382152 0.02578005 -0.05156895
v 0.05119873 0.02845387 -0.05187912
v 0.05507447 0.02391026 -0.05172449
v 0.05439656 0.02421877 -0.05188643
v 0.05327452 0.02522847 -0.05200135
v 0.05858554 -0.01514987 -0.05211608
v 0.05646300 -0.02046945 -0.05210455
v 0.05965148 -0.01090542 -0.05212944
v 0.05965148 -0.01196186 -0.05212907
v 0.05613573 -0.02365746 -0.05175432
v 0.05752427 -0.01833788 -0.05206704
v 0.05858554 -0.01621565 -0.05200007
v 0.05829100 -0.01833788 -0.05177481
v 0.05731388 -0.02046945 -0.05181232
v 0.05699597 -0.02206813 -0.05154847
v 0.05634145 -0.02365746 -0.05101360
v 0.05602353 -0.02436798 -0.05101360
v 0.05571029 -0.02490088 -0.05101360
v 0.05814607 -0.01908580 -0.05165642
v 0.05533628 -0.02543377 -0.05026026
v 0.05517732 -0.02565815 -0.05026026
v 0.05539705 0.02204046 -0.05204673
v 0.05539705 0.02097467 -0.05212925
v 0.05752427 0.01566444 -0.05212944
v 0.05342412 0.02633164 -0.05101360
v 0.05248441 0.02755636 -0.05101360
v 0.05342412 0.02633164 -0.05026026
v 0.05517732 0.02404114 -0.05101360
v 0.05599548 0.02268554 -0.05162989
v 0.05541575 0.02306885 -0.05182056
v 0.05965148 -0.01302764 -0.05208388
v 0.06071275 -0.00346362 -0.05212944
v 0.06071275 -0.00452005 -0.05211846
v 0.06071275 -0.00558584 -0.05208314
v 0.06029666 -0.01383166 -0.05167948
v 0.05947850 -0.01514987 -0.05182386
v 0.06041354 -0.01302764 -0.05179165
v 0.05914656 -0.01681399 -0.05158506
v 0.06035276 -0.01397189 -0.05101360
v 0.05916059 -0.01685139 -0.05101360
v 0.05634145 -0.02365746 -0.05026026
v 0.05611703 -0.02416230 -0.05026026
v 0.05602353 -0.02436798 -0.05026026
v 0.05571029 -0.02490088 -0.05026026
v 0.05613573 0.02204046 -0.05175432
v 0.05731388 0.01885245 -0.05181232
v 0.05829100 0.01672087 -0.05177481
v 0.05858554 0.01459865 -0.05200007
v 0.05752427 0.01672087 -0.05206704
v 0.05646300 0.01885245 -0.05210455
v 0.05858554 0.01353287 -0.05211608
v 0.05965148 0.01034486 -0.05212907
v 0.05965148 0.00928842 -0.05212944
v 0.05477058 0.02457403 -0.05026026
v 0.05517732 0.02404114 -0.05026026
v 0.05571029 0.02328387 -0.05101360
v 0.05489213 0.02441510 -0.05026026
v 0.05602353 0.02275098 -0.05101360
v 0.05634145 0.02204046 -0.05101360
v 0.05699597 0.02045113 -0.05154847
v 0.05814607 0.01746879 -0.05165642
v 0.06049769 -0.01196186 -0.05183684
v 0.06172259 -0.00133205 -0.05183721
v 0.06071275 0.00184661 -0.05212944
v 0.06158234 -0.00346362 -0.05183721
v 0.06152623 -0.00452005 -0.05182623
v 0.06064262 -0.01302764 -0.05101360
v 0.06146078 -0.00558584 -0.05179092
v 0.06139065 -0.00665163 -0.05173309
v 0.06132052 -0.00771741 -0.05165441
v 0.06127377 -0.00845598 -0.05158799
v 0.06035276 -0.01397189 -0.05026026
v 0.05916059 -0.01685139 -0.05026026
v 0.06029666 0.01221466 -0.05167948
v 0.06041354 0.01141064 -0.05179165
v 0.05947850 0.01353287 -0.05182386
v 0.05965148 0.01141064 -0.05208388
v 0.06071275 0.00396884 -0.05208314
v 0.06071275 0.00290305 -0.05211846
v 0.05571029 0.02328387 -0.05026026
v 0.05580380 0.02312494 -0.05026026
v 0.05602353 0.02275098 -0.05026026
v 0.05634145 0.02204046 -0.05026026
v 0.05684169 0.02083444 -0.05026026
v 0.05916059 0.01523438 -0.05101360
v 0.06035276 0.01235489 -0.05101360
v 0.05914656 0.01519699 -0.05158506
v 0.06221816 -0.00133205 -0.05101360
v 0.06172259 -0.00028496 -0.05183721
v 0.06064262 -0.01302764 -0.05026026
v 0.06082495 -0.01196186 -0.05101360
v 0.06083430 -0.01196186 -0.05026026
v 0.06069872 -0.01271913 -0.05026026
v 0.06167584 -0.00558584 -0.05101360
v 0.06128780 -0.00855882 -0.05101360
v 0.06064262 0.01141064 -0.05101360
v 0.06049769 0.01034486 -0.05183684
v 0.06127377 0.00683898 -0.05158799
v 0.06132052 0.00610041 -0.05165441
v 0.06139065 0.00503462 -0.05173291
v 0.06146078 0.00396884 -0.05179092
v 0.06152623 0.00290305 -0.05182605
v 0.06158234 0.00184661 -0.05183721
v 0.05900630 0.01560834 -0.05026026
v 0.06035276 0.01235489 -0.05026026
v 0.06223219 -0.00133205 -0.05026026
v 0.06221816 -0.00028496 -0.05101360
v 0.06132052 -0.00831575 -0.05026026
v 0.06213401 -0.00208931 -0.05026026
v 0.06171792 -0.00527732 -0.05026026
v 0.06064262 0.01141064 -0.05026026
v 0.06078288 0.01065337 -0.05026026
v 0.06082495 0.01034486 -0.05101360
v 0.06128780 0.00694182 -0.05101360
v 0.06167584 0.00396884 -0.05101360
v 0.06222751 -0.00028496 -0.05026026
v 0.06083430 0.01034486 -0.05026026
v 0.06128780 0.00694182 -0.05026026
v 0.06136727 0.00634348 -0.05026026
v 0.06177869 0.00322092 -0.05026026
f 1 2 5
f 1 5 3
f 1 3 7
f 1 7 11
f 1 11 23
f 1 23 45
f 1 45 46
f 1 46 56
f 1 56 55
f 1 55 54
f 1 54 76
f 1 76 92
f 1 92 94
f 1 94 117
f 1 117 118
f 1 118 144
f 1 144 142
f 1 142 141
f 1 141 143
f 1 143 162
f 1 162 166
f 1 166 165
f 1 165 164
f 1 164 163
f 1 163 194
f 1 194 213
f 1 213 234
f 1 234 235
f 1 235 264
f 1 264 263
f 1 263 287
f 1 287 286
f 1 286 285
f 1 285 284
f 1 284 316
f 1 316 315
f 1 315 333
f 1 333 336
f 1 336 335
f 1 335 351
f 1 351 353
f 1 353 352
f 1 352 349
f 1 349 359
f 1 359 363
f 1 363 362
f 1 362 361
f 1 361 360
f 1 360 355
f 1 355 354
f 1 354 348
f 1 348 347
f 1 347 327
f 1 327 326
f 1 326 325
f 1 325 324
f 1 324 323
f 1 323 298
f 1 298 300
f 1 300 297
f 1 297 270
f 1 270 242
f 1 242 241
f 1 241 219
f 1 219 200
f 1 200 199
f 1 199 198
f 1 198 197
f 1 197 173
f 1 173 172
f 1 172 171
f 1 171 170
f 1 170 149
f 1 149 148
f 1 148 147
f 1 147 121
f 1 121 99
f 1 99 81
f 1 81 62
f 1 62 38
f 1 38 37
f 1 37 35
f 1 35 18
f 1 18 8
f 1 8 4
f 1 4 9
f 1 9 22
f 1 22 44
f 1 44 57
f 1 57 34
f 1 34 17
f 1 17 6
f 1 6 2
f 2 6 12
f 2 12 5
f 3 5 7
f 4 8 21
f 4 21 9
f 5 10 11
f 5 11 7
f 5 12 13
f 5 13 14
f 5 14 15
f 5 15 16
f 5 16 10
f 6 17 26
f 6 26 12
f 8 18 19
f 8 19 20
f 8 20 21
f 9 21 22
f 10 23 11
f 10 16 24
f 10 24 23
f 12 25 13
f 12 26 27
f 12 27 25
f 13 25 27
f 13 27 28
f 13 28 29
f 13 29 14
f 14 29 15
f 15 30 16
f 15 29 31
f 15 31 30
f 16 30 31
f 16 31 32
f 16 32 33
f 16 33 24
f 17 34 58
f 17 58 80
f 17 80 98
f 17 98 120
f 17 120 146
f 17 146 169
f 17 169 196
f 17 196 218
f 17 218 217
f 17 217 240
f 17 240 267
f 17 267 296
f 17 296 307
f 17 307 275
f 17 275 251
f 17 251 228
f 17 228 205
f 17 205 185
f 17 185 184
f 17 184 156
f 17 156 128
f 17 128 109
f 17 109 87
f 17 87 67
f 17 67 47
f 17 47 26
f 18 35 19
f 19 36 20
f 19 35 37
f 19 37 38
f 19 38 39
f 19 39 36
f 20 36 21
f 21 40 22
f 21 36 41
f 21 41 42
f 21 42 43
f 21 43 40
f 22 40 44
f 23 24 45
f 24 33 46
f 24 46 45
f 26 47 48
f 26 48 27
f 27 48 28
f 28 48 49
f 28 49 29
f 29 49 31
f 31 50 32
f 31 49 51
f 31 51 52
f 31 52 50
f 32 50 53
f 32 53 54
f 32 54 55
f 32 55 56
f 32 56 46
f 32 46 33
f 34 57 58
f 36 59 41
f 36 39 60
f 36 60 61
f 36 61 59
f 38 62 39
f 39 62 60
f 40 63 64
f 40 64 58
f 40 58 57
f 40 57 44
f 40 43 63
f 41 59 61
f 41 61 65
f 41 65 42
f 42 65 43
f 43 65 66
f 43 66 64
f 43 64 63
f 47 67 48
f 48 67 68
f 48 68 49
f 49 68 69
f 49 69 70
f 49 70 71
f 49 71 51
f 50 72 73
f 50 73 53
f 50 52 74
f 50 74 72
f 51 71 52
f 52 71 75
f 52 75 74
f 53 76 54
f 53 73 77
f 53 77 78
f 53 78 92
f 53 92 76
f 58 64 79
f 58 79 80
f 60 81 99
f 60 99 82
f 60 82 83
f 60 83 61
f 60 62 81
f 61 83 84
f 61 84 85
f 61 85 86
f 61 86 65
f 64 66 79
f 65 86 66
f 66 86 79
f 67 87 88
f 67 88 68
f 68 88 69
f 69 88 89
f 69 89 70
f 70 89 71
f 71 89 75
f 72 77 73
f 72 74 90
f 72 90 77
f 74 89 91
f 74 91 90
f 74 75 89
f 77 93 94
f 77 94 95
f 77 95 78
f 77 90 96
f 77 96 93
f 78 95 94
f 78 94 92
f 79 86 97
f 79 97 98
f 79 98 80
f 82 100 101
f 82 101 102
f 82 102 83
f 82 99 121
f 82 121 100
f 83 102 103
f 83 103 104
f 83 104 84
f 84 105 106
f 84 106 85
f 84 104 105
f 85 106 86
f 86 106 107
f 86 107 108
f 86 108 97
f 87 109 88
f 88 109 110
f 88 110 89
f 89 110 111
f 89 111 112
f 89 112 91
f 90 91 113
f 90 113 114
f 90 114 115
f 90 115 116
f 90 116 96
f 91 112 113
f 93 96 117
f 93 117 94
f 96 116 144
f 96 144 118
f 96 118 117
f 97 108 119
f 97 119 98
f 98 119 120
f 100 121 147
f 100 147 122
f 100 122 101
f 101 103 102
f 101 122 123
f 101 123 124
f 101 124 125
f 101 125 103
f 103 125 104
f 104 125 126
f 104 126 127
f 104 127 105
f 105 127 106
f 106 127 107
f 107 127 108
f 108 127 119
f 109 128 110
f 110 128 129
f 110 129 130
f 110 130 111
f 111 130 131
f 111 131 132
f 111 132 112
f 112 132 133
f 112 133 113
f 113 134 114
f 113 133 135
f 113 135 134
f 114 136 137
f 114 137 115
f 114 134 138
f 114 138 139
f 114 139 140
f 114 140 136
f 115 141 142
f 115 142 116
f 115 137 143
f 115 143 141
f 116 142 144
f 119 127 145
f 119 145 146
f 119 146 120
f 122 148 123
f 122 147 148
f 123 148 124
f 124 149 170
f 124 170 150
f 124 150 125
f 124 148 149
f 125 150 151
f 125 151 152
f 125 152 153
f 125 153 126
f 126 153 154
f 126 154 127
f 127 154 155
f 127 155 145
f 128 156 157
f 128 157 129
f 129 157 130
f 130 157 131
f 131 157 158
f 131 158 159
f 131 159 132
f 132 159 133
f 133 159 135
f 134 135 138
f 135 159 158
f 135 158 160
f 135 160 161
f 135 161 139
f 135 139 138
f 136 162 143
f 136 143 137
f 136 140 166
f 136 166 162
f 139 161 163
f 139 163 164
f 139 164 165
f 139 165 140
f 140 165 166
f 145 155 167
f 145 167 168
f 145 168 169
f 145 169 146
f 150 170 171
f 150 171 151
f 151 171 172
f 151 172 173
f 151 173 174
f 151 174 152
f 152 175 153
f 152 174 176
f 152 176 177
f 152 177 178
f 152 178 179
f 152 179 175
f 153 180 154
f 153 175 181
f 153 181 180
f 154 180 182
f 154 182 155
f 155 182 183
f 155 183 167
f 156 184 157
f 157 184 185
f 157 185 186
f 157 186 158
f 158 186 187
f 158 187 188
f 158 188 160
f 160 189 190
f 160 190 161
f 160 188 191
f 160 191 192
f 160 192 193
f 160 193 189
f 161 194 163
f 161 190 213
f 161 213 194
f 167 183 195
f 167 195 168
f 168 195 169
f 169 195 196
f 173 176 174
f 173 197 176
f 175 179 181
f 176 197 198
f 176 198 177
f 177 198 199
f 177 199 178
f 178 200 219
f 178 219 201
f 178 201 181
f 178 181 179
f 178 199 200
f 180 181 202
f 180 202 182
f 181 201 203
f 181 203 204
f 181 204 202
f 182 202 183
f 183 202 204
f 183 204 195
f 185 205 206
f 185 206 207
f 185 207 186
f 186 207 208
f 186 208 187
f 187 208 209
f 187 209 210
f 187 210 188
f 188 210 191
f 189 193 211
f 189 211 190
f 190 211 212
f 190 212 234
f 190 234 213
f 191 210 209
f 191 209 214
f 191 214 215
f 191 215 192
f 192 215 193
f 193 215 211
f 195 204 216
f 195 216 217
f 195 217 218
f 195 218 196
f 201 220 203
f 201 219 241
f 201 241 220
f 203 221 204
f 203 220 222
f 203 222 223
f 203 223 224
f 203 224 225
f 203 225 221
f 204 221 226
f 204 226 216
f 205 227 206
f 205 228 227
f 206 227 229
f 206 229 209
f 206 209 208
f 206 208 207
f 209 229 214
f 211 215 230
f 211 230 231
f 211 231 232
f 211 232 233
f 211 233 212
f 212 233 235
f 212 235 234
f 214 229 236
f 214 236 215
f 215 236 230
f 216 226 237
f 216 237 238
f 216 238 217
f 217 238 239
f 217 239 240
f 220 241 242
f 220 242 243
f 220 243 244
f 220 244 222
f 221 225 245
f 221 245 226
f 222 244 223
f 223 244 246
f 223 246 224
f 224 246 225
f 225 246 247
f 225 247 248
f 225 248 245
f 226 245 248
f 226 248 237
f 227 228 249
f 227 249 250
f 227 250 229
f 228 251 252
f 228 252 249
f 229 253 236
f 229 250 254
f 229 254 255
f 229 255 256
f 229 256 257
f 229 257 253
f 230 258 259
f 230 259 260
f 230 260 261
f 230 261 231
f 230 236 253
f 230 253 262
f 230 262 258
f 231 235 232
f 231 261 263
f 231 263 264
f 231 264 235
f 232 235 233
f 237 248 239
f 237 239 238
f 239 265 266
f 239 266 240
f 239 248 265
f 240 266 267
f 242 268 269
f 242 269 243
f 242 270 268
f 243 269 244
f 244 269 268
f 244 268 271
f 244 271 272
f 244 272 246
f 246 272 273
f 246 273 247
f 247 273 265
f 247 265 248
f 249 252 274
f 249 274 250
f 250 274 254
f 251 275 252
f 252 275 276
f 252 276 277
f 252 277 274
f 253 257 256
f 253 256 278
f 253 278 262
f 254 274 255
f 255 274 279
f 255 279 256
f 256 279 280
f 256 280 278
f 258 262 281
f 258 281 282
f 258 282 283
f 258 283 259
f 259 284 285
f 259 285 260
f 259 283 316
f 259 316 284
f 260 285 286
f 260 286 287
f 260 287 261
f 261 287 263
f 262 278 281
f 265 288 289
f 265 289 290
f 265 290 291
f 265 291 292
f 265 292 293
f 265 293 266
f 265 273 288
f 266 293 294
f 266 294 267
f 267 294 295
f 267 295 296
f 268 270 297
f 268 297 271
f 271 298 323
f 271 323 299
f 271 299 272
f 271 297 300
f 271 300 298
f 272 288 273
f 272 299 301
f 272 301 302
f 272 302 303
f 272 303 304
f 272 304 288
f 274 277 305
f 274 305 280
f 274 280 279
f 275 306 276
f 275 307 332
f 275 332 306
f 276 306 308
f 276 308 309
f 276 309 277
f 277 309 305
f 278 280 310
f 278 310 282
f 278 282 281
f 280 305 311
f 280 311 312
f 280 312 313
f 280 313 314
f 280 314 310
f 282 310 333
f 282 333 315
f 282 315 316
f 282 316 283
f 288 304 317
f 288 317 290
f 288 290 289
f 290 317 318
f 290 318 319
f 290 319 291
f 291 319 320
f 291 320 292
f 292 320 293
f 293 320 294
f 294 320 295
f 295 320 321
f 295 321 322
f 295 322 307
f 295 307 296
f 299 323 324
f 299 324 301
f 301 325 326
f 301 326 302
f 301 324 325
f 302 326 327
f 302 327 328
f 302 328 303
f 303 328 329
f 303 329 330
f 303 330 304
f 304 330 317
f 305 309 311
f 306 331 309
f 306 309 308
f 306 332 350
f 306 350 331
f 307 322 332
f 309 331 311
f 310 314 334
f 310 334 335
f 310 335 336
f 310 336 333
f 311 331 312
f 312 331 313
f 313 331 314
f 314 331 337
f 314 337 338
f 314 338 334
f 317 330 329
f 317 329 339
f 317 339 318
f 318 340 320
f 318 320 319
f 318 339 341
f 318 341 342
f 318 342 343
f 318 343 344
f 318 344 340
f 320 340 321
f 321 345 322
f 321 340 345
f 322 345 346
f 322 346 332
f 327 347 328
f 328 347 329
f 329 348 354
f 329 354 339
f 329 347 348
f 331 349 337
f 331 350 349
f 332 346 345
f 332 345 350
f 334 338 335
f 335 338 351
f 337 349 352
f 337 352 353
f 337 353 338
f 338 353 351
f 339 354 355
f 339 355 356
f 339 356 341
f 340 344 345
f 341 357 358
f 341 358 350
f 341 350 342
f 341 356 357
f 342 350 343
f 343 350 344
f 344 350 345
f 349 350 359
f 350 358 359
f 355 360 356
f 356 360 357
f 357 361 362
f 357 362 363
f 357 363 358
f 357 360 361
f 358 363 359

