# https://github.com/mikedh/trimesh
v 0.00003090 -0.04452355 -0.12072153
v 0.01648032 -0.04452355 -0.12072153
v 0.00003090 -0.04452355 -0.12032312
v 0.00003090 -0.04396793 -0.12098524
v 0.01648032 -0.04452355 -0.12032312
v 0.01648032 -0.04396793 -0.12098524
v 0.00003090 -0.04425008 -0.12023954
v 0.00003090 -0.04351650 -0.12094305
v 0.01648032 -0.04396793 -0.12015353
v 0.01648032 -0.04308242 -0.12090247
v 0.00003090 -0.04396793 -0.12015353
v 0.00003090 -0.04308242 -0.12090166
v 0.01648032 -0.04080788 -0.11952061
v 0.01640304 -0.04086865 -0.11952386
v 0.01551745 -0.03954472 -0.11924798
v 0.01551745 -0.04042589 -0.11942811
v 0.00003090 -0.03557295 -0.11843411
v 0.01648032 -0.00017860 -0.11552839
v 0.00003090 -0.04219691 -0.12078482
v 0.01648032 -0.04040419 -0.11944353
v 0.01640304 -0.04042589 -0.11943947
v 0.01511330 -0.03647583 -0.11862805
v 0.01463347 -0.03649319 -0.11862399
v 0.01374788 -0.03600703 -0.11852337
v 0.01197992 -0.03069831 -0.11743687
v 0.00313530 -0.01027081 -0.11325396
v 0.00578884 -0.01743302 -0.11472021
v 0.00003090 -0.01743302 -0.11472021
v 0.01640304 -0.00017860 -0.11551947
v 0.01648032 -0.00017860 -0.11461148
v 0.00003090 -0.00017860 -0.11347467
v 0.01648032 -0.03954472 -0.11929260
v 0.01640304 -0.03954472 -0.11928449
v 0.01640304 -0.03865922 -0.11914006
v 0.01648032 -0.03865922 -0.11914979
v 0.01545304 -0.03594192 -0.11859721
v 0.00466495 -0.01011889 -0.11329697
v 0.00401927 -0.00947212 -0.11313225
v 0.00401927 -0.01024477 -0.11326776
v 0.00313530 -0.00858661 -0.11292047
v 0.00490486 -0.01300982 -0.11382115
v 0.00313530 -0.00947212 -0.11309087
v 0.00003090 -0.01027081 -0.11325396
v 0.00401927 -0.01300982 -0.11381466
v 0.00003090 -0.01300982 -0.11381466
v 0.01449499 -0.00017860 -0.11414897
v 0.01648032 -0.00593442 -0.11461148
v 0.00003090 -0.00017860 -0.11269651
v 0.01648032 -0.03496959 -0.11860533
v 0.01599888 -0.03560334 -0.11862723
v 0.01648032 -0.03423166 -0.11849822
v 0.01514228 -0.03032501 -0.11773872
v 0.00578884 -0.00770544 -0.11310953
v 0.00493868 -0.00950684 -0.11324747
v 0.00490486 -0.00858661 -0.11310953
v 0.00490486 -0.00770544 -0.11298214
v 0.00401927 -0.00858661 -0.11298619
v 0.00224971 -0.00858661 -0.11291398
v 0.00401927 -0.00770544 -0.11287503
v 0.00313530 -0.00770544 -0.11281985
v 0.00224971 -0.00770544 -0.11280768
v 0.00003090 -0.00903804 -0.11300404
v 0.00003090 -0.00947212 -0.11309087
v 0.01286390 -0.00017860 -0.11381466
v 0.01449499 -0.00504891 -0.11414897
v 0.01648032 -0.00674180 -0.11461797
v 0.00401927 -0.00416340 -0.11269570
v 0.00578884 -0.00239672 -0.11269570
v 0.00578884 -0.00017860 -0.11269651
v 0.00003090 -0.00593442 -0.11269651
v 0.00224971 -0.00593442 -0.11269570
v 0.01648032 -0.01644334 -0.11592275
v 0.01648032 -0.01028383 -0.11503099
v 0.00759223 -0.00685465 -0.11324747
v 0.00755841 -0.00593442 -0.11310953
v 0.00755841 -0.00504891 -0.11298214
v 0.00755841 -0.00416340 -0.11287503
v 0.00003090 -0.00858661 -0.11291398
v 0.00490486 -0.00593442 -0.11281174
v 0.00401927 -0.00681993 -0.11281174
v 0.00313530 -0.00681993 -0.11276549
v 0.00224971 -0.00681993 -0.11274114
v 0.00003090 -0.00770544 -0.11280768
v 0.00972730 -0.00017860 -0.11317282
v 0.01286390 -0.00416340 -0.11381466
v 0.01374788 -0.00504891 -0.11399642
v 0.01446923 -0.00593442 -0.11416114
v 0.01648032 -0.00681993 -0.11461878
v 0.00490486 -0.00328223 -0.11269570
v 0.00578884 -0.00328223 -0.11271355
v 0.00667282 -0.00239672 -0.11274114
v 0.00667282 -0.00017860 -0.11274114
v 0.00003090 -0.00681993 -0.11274114
v 0.00313530 -0.00593442 -0.11271355
v 0.01648032 -0.00858661 -0.11478594
v 0.01640304 -0.00858661 -0.11477458
v 0.01376559 -0.00683729 -0.11413923
v 0.01197992 -0.00681993 -0.11387795
v 0.00936018 -0.00508363 -0.11324747
v 0.00844078 -0.00504891 -0.11310953
v 0.00997205 -0.00481017 -0.11329697
v 0.00844078 -0.00416340 -0.11298619
v 0.00844078 -0.00328223 -0.11292047
v 0.00755841 -0.00328223 -0.11281985
v 0.00667282 -0.00416340 -0.11281174
v 0.00490486 -0.00504891 -0.11276143
v 0.00401927 -0.00593442 -0.11276143
v 0.00932476 -0.00017860 -0.11309087
v 0.00932476 -0.00328223 -0.11309087
v 0.01012340 -0.00328223 -0.11325396
v 0.01286390 -0.00504891 -0.11382115
v 0.01374788 -0.00593442 -0.11403293
v 0.01435974 -0.00655080 -0.11418548
v 0.01648032 -0.00770544 -0.11467396
v 0.01648032 -0.00762731 -0.11466828
v 0.01009764 -0.00416340 -0.11326776
v 0.00578884 -0.00416340 -0.11276143
v 0.00667282 -0.00328223 -0.11276549
v 0.00755841 -0.00239672 -0.11280768
v 0.00711884 -0.00017860 -0.11277441
v 0.01648032 -0.00851282 -0.11477539
v 0.00932476 -0.00416340 -0.11313225
v 0.00844078 -0.00239672 -0.11291398
v 0.00844078 -0.00017860 -0.11291398
v 0.00755841 -0.00017860 -0.11280768
f 1 2 5
f 1 5 3
f 1 3 7
f 1 7 11
f 1 11 17
f 1 17 28
f 1 28 45
f 1 45 43
f 1 43 63
f 1 63 62
f 1 62 78
f 1 78 83
f 1 83 93
f 1 93 70
f 1 70 48
f 1 48 31
f 1 31 19
f 1 19 12
f 1 12 8
f 1 8 4
f 1 4 6
f 1 6 2
f 2 6 10
f 2 10 18
f 2 18 30
f 2 30 47
f 2 47 66
f 2 66 88
f 2 88 115
f 2 115 114
f 2 114 121
f 2 121 95
f 2 95 73
f 2 73 72
f 2 72 51
f 2 51 49
f 2 49 35
f 2 35 32
f 2 32 20
f 2 20 13
f 2 13 9
f 2 9 5
f 3 5 7
f 4 8 10
f 4 10 6
f 5 9 7
f 7 9 11
f 8 12 10
f 9 13 14
f 9 14 15
f 9 15 16
f 9 16 17
f 9 17 11
f 10 12 18
f 12 19 18
f 13 20 14
f 14 20 21
f 14 21 22
f 14 22 23
f 14 23 15
f 15 24 16
f 15 23 25
f 15 25 26
f 15 26 24
f 16 24 27
f 16 27 17
f 17 27 28
f 18 19 29
f 18 29 31
f 18 31 48
f 18 48 69
f 18 69 92
f 18 92 120
f 18 120 125
f 18 125 124
f 18 124 108
f 18 108 84
f 18 84 64
f 18 64 46
f 18 46 30
f 19 31 29
f 20 32 33
f 20 33 21
f 21 33 22
f 22 33 32
f 22 32 34
f 22 34 35
f 22 35 36
f 22 36 37
f 22 37 38
f 22 38 39
f 22 39 40
f 22 40 41
f 22 41 42
f 22 42 23
f 23 42 25
f 24 26 27
f 25 42 26
f 26 42 63
f 26 63 43
f 26 43 45
f 26 45 44
f 26 44 27
f 27 44 45
f 27 45 28
f 30 46 65
f 30 65 47
f 32 35 34
f 35 49 50
f 35 50 36
f 36 50 51
f 36 51 52
f 36 52 53
f 36 53 54
f 36 54 37
f 37 54 55
f 37 55 56
f 37 56 57
f 37 57 38
f 38 57 40
f 38 40 39
f 40 58 42
f 40 42 41
f 40 57 59
f 40 59 60
f 40 60 61
f 40 61 58
f 42 58 62
f 42 62 63
f 46 64 85
f 46 85 65
f 47 65 66
f 48 67 68
f 48 68 69
f 48 70 71
f 48 71 67
f 49 51 50
f 51 72 52
f 52 72 73
f 52 73 74
f 52 74 53
f 53 74 75
f 53 75 56
f 53 56 55
f 53 55 54
f 56 75 76
f 56 76 77
f 56 77 59
f 56 59 57
f 58 78 62
f 58 61 83
f 58 83 78
f 59 79 80
f 59 80 60
f 59 77 79
f 60 80 81
f 60 81 82
f 60 82 61
f 61 82 93
f 61 93 83
f 64 84 85
f 65 85 86
f 65 86 87
f 65 87 88
f 65 88 66
f 67 71 89
f 67 89 68
f 68 89 90
f 68 90 91
f 68 91 92
f 68 92 69
f 70 93 71
f 71 93 82
f 71 82 94
f 71 94 89
f 73 95 96
f 73 96 97
f 73 97 98
f 73 98 74
f 74 98 99
f 74 99 75
f 75 99 100
f 75 100 76
f 76 100 101
f 76 101 102
f 76 102 77
f 77 102 103
f 77 103 104
f 77 104 105
f 77 105 79
f 79 106 107
f 79 107 80
f 79 105 117
f 79 117 106
f 80 107 94
f 80 94 81
f 81 94 82
f 84 108 109
f 84 109 110
f 84 110 85
f 85 110 109
f 85 109 86
f 86 111 87
f 86 109 111
f 87 112 113
f 87 113 114
f 87 114 115
f 87 115 88
f 87 111 116
f 87 116 112
f 89 94 90
f 90 117 105
f 90 105 118
f 90 118 91
f 90 94 107
f 90 107 106
f 90 106 117
f 91 118 104
f 91 104 119
f 91 119 120
f 91 120 92
f 95 121 96
f 96 121 97
f 97 113 101
f 97 101 99
f 97 99 98
f 97 121 113
f 99 101 100
f 101 122 102
f 101 113 122
f 102 122 103
f 103 122 116
f 103 116 111
f 103 111 109
f 103 109 123
f 103 123 119
f 103 119 104
f 104 118 105
f 108 124 123
f 108 123 109
f 112 116 122
f 112 122 113
f 113 121 114
f 119 123 124
f 119 124 125
f 119 125 120

