# https://github.com/mikedh/trimesh
v -0.01221526 0.00736973 -0.01913227
v -0.00308064 0.00736973 -0.02465415
v -0.01221526 0.00736973 -0.02225452
v -0.01221526 -0.00772127 -0.01914269
v -0.00308064 0.00736973 -0.02879979
v -0.00308064 -0.00771536 -0.02466977
v -0.01221526 0.00734018 -0.02227405
v -0.00308064 0.00679942 -0.03242331
v -0.00310299 0.00679499 -0.03243243
v -0.00421442 0.00618479 -0.03243243
v -0.00423051 0.00617592 -0.03243243
v -0.00527667 0.00513134 -0.03243243
v -0.00630762 0.00410006 -0.03243243
v -0.00632193 0.00408381 -0.03243243
v -0.00633087 0.00406904 -0.03243243
v -0.00693978 0.00295649 -0.03243243
v -0.01221526 -0.00772127 -0.02226233
v -0.00310299 -0.00772127 -0.02466066
v -0.00308064 -0.00772127 -0.02535724
v -0.01221526 0.00727074 -0.02231832
v -0.00308064 0.00625571 -0.03243243
v -0.00694783 0.00292694 -0.03243243
v -0.01221526 0.00576666 -0.02323364
v -0.01221526 0.00643301 -0.02284434
v -0.00316647 -0.00772127 -0.02877114
v -0.01221526 -0.00763410 -0.02231832
v -0.00693978 -0.00332133 -0.03243243
v -0.00632193 -0.00444865 -0.03243243
v -0.00529187 -0.00547993 -0.03243243
v -0.00423051 -0.00654076 -0.03243243
v -0.00310299 -0.00715835 -0.03243243
v -0.00308064 -0.00716426 -0.03243112
v -0.00308064 -0.00772127 -0.02880499
v -0.00308064 -0.00663532 -0.03243243
v -0.00747806 0.00086438 -0.03243243
v -0.01221526 0.00515646 -0.02344196
v -0.01221526 -0.00651564 -0.02302792
v -0.00747806 -0.00122774 -0.03243243
v -0.01221526 -0.00613150 -0.02323364
v -0.01221526 0.00295649 -0.02387814
v -0.01221526 0.00376467 -0.02377789
v -0.01221526 0.00484028 -0.02354092
v -0.01221526 -0.00520364 -0.02354092
v -0.01221526 -0.00332133 -0.02387814
f 1 2 5
f 1 5 3
f 1 3 7
f 1 7 20
f 1 20 24
f 1 24 23
f 1 23 36
f 1 36 42
f 1 42 41
f 1 41 40
f 1 40 44
f 1 44 43
f 1 43 39
f 1 39 37
f 1 37 26
f 1 26 17
f 1 17 4
f 1 4 2
f 2 4 6
f 2 6 19
f 2 19 33
f 2 33 32
f 2 32 34
f 2 34 21
f 2 21 8
f 2 8 5
f 3 5 8
f 3 8 9
f 3 9 10
f 3 10 11
f 3 11 12
f 3 12 13
f 3 13 14
f 3 14 15
f 3 15 16
f 3 16 7
f 4 17 25
f 4 25 33
f 4 33 19
f 4 19 18
f 4 18 6
f 6 18 19
f 7 16 20
f 8 21 9
f 9 21 34
f 9 34 31
f 9 31 30
f 9 30 29
f 9 29 28
f 9 28 27
f 9 27 38
f 9 38 35
f 9 35 22
f 9 22 16
f 9 16 15
f 9 15 14
f 9 14 13
f 9 13 12
f 9 12 11
f 9 11 10
f 16 22 23
f 16 23 24
f 16 24 20
f 17 26 27
f 17 27 28
f 17 28 29
f 17 29 30
f 17 30 31
f 17 31 32
f 17 32 25
f 22 35 23
f 23 35 36
f 25 32 33
f 26 37 27
f 27 37 39
f 27 39 38
f 31 34 32
f 35 40 41
f 35 41 42
f 35 42 36
f 35 38 44
f 35 44 40
f 38 39 43
f 38 43 44

