# https://github.com/mikedh/trimesh
v 0.01573632 0.04291089 0.03024743
v 0.01783581 0.04253178 0.03024743
v 0.01573632 0.04263288 0.02829715
v 0.00761989 0.04263288 0.02829715
v 0.00761989 0.04288000 0.03013349
v 0.00761989 0.04289404 0.03024743
v 0.01695639 0.04176515 0.02476493
v 0.01911150 0.04191118 0.03024743
v 0.01790881 0.04209652 0.02838725
v 0.01573632 0.04217234 0.02620378
v 0.00761989 0.04257671 0.02804012
v 0.00761989 0.04072332 0.03024743
v 0.01692858 0.03969553 0.01635171
v 0.01492641 0.03758378 0.00591402
v 0.01573632 0.04181008 0.02456884
v 0.01893770 0.04173988 0.02914775
v 0.02027943 0.04074578 0.03024743
v 0.01987621 0.04058572 0.02844819
v 0.01821122 0.03892047 0.01783031
v 0.00761989 0.04217234 0.02620378
v 0.00761989 0.03419993 0.00317674
v 0.04091287 0.01422539 0.03024743
v 0.01697029 0.03766803 0.00991526
v 0.01672349 0.03744618 0.00851880
v 0.01567027 0.03697441 0.00524096
v 0.01583364 0.03609826 0.00317674
v 0.01381410 0.03667112 0.00317674
v 0.01364377 0.03672167 0.00318204
v 0.01364377 0.03762871 0.00570998
v 0.01639328 0.03726926 0.00736878
v 0.01364377 0.03799658 0.00736878
v 0.01364377 0.03985278 0.01573960
v 0.00761989 0.04025997 0.01757593
v 0.00761989 0.04181008 0.02456884
v 0.02312626 0.03755570 0.02914775
v 0.02103371 0.03964779 0.02914775
v 0.03899413 0.02203211 0.03024743
v 0.02057141 0.03918725 0.02620378
v 0.01729008 0.03590449 0.00527541
v 0.03379405 0.01422539 0.00317674
v 0.00761989 0.03668517 0.00317674
v 0.04312012 0.01422539 0.03024743
v 0.01701200 0.03562648 0.00379415
v 0.01592054 0.03604771 0.00317674
v 0.01364377 0.03671886 0.00317674
v 0.00761989 0.03668797 0.00318204
v 0.00761989 0.03762871 0.00570998
v 0.00761989 0.03795165 0.00716474
v 0.02449232 0.03264139 0.01783031
v 0.02338348 0.03571915 0.02411042
v 0.04120833 0.01981646 0.03024743
v 0.03809385 0.01903860 0.01783031
v 0.03572322 0.02294758 0.02273515
v 0.01938262 0.03381240 0.00527541
v 0.03671040 0.01422539 0.00317674
v 0.04285247 0.01422539 0.02829715
v 0.04313055 0.01551715 0.03024743
v 0.01775934 0.03452287 0.00317674
v 0.01910454 0.03353439 0.00379415
v 0.01800266 0.03428137 0.00317674
v 0.02984534 0.02334915 0.00527541
v 0.04212946 0.01889257 0.03024743
v 0.04195914 0.01871847 0.02914775
v 0.04012382 0.01897682 0.02411042
v 0.03914012 0.01799115 0.01783031
v 0.03612296 0.01707007 0.00527541
v 0.03631762 0.01561263 0.00317674
v 0.03780186 0.01470559 0.00591402
v 0.03781924 0.01422539 0.00583717
v 0.04285247 0.01551715 0.02829715
v 0.04239364 0.01422539 0.02620378
v 0.04275166 0.01761766 0.03024743
v 0.02428028 0.02800510 0.00317674
v 0.02956726 0.02307114 0.00379415
v 0.04231716 0.01768787 0.02838725
v 0.04198695 0.01673590 0.02476493
v 0.03991526 0.01670781 0.01635171
v 0.03788876 0.01674994 0.00991526
v 0.03766630 0.01650282 0.00852145
v 0.03584488 0.01679206 0.00379415
v 0.03626548 0.01569968 0.00317674
v 0.03719357 0.01544975 0.00524096
v 0.03748902 0.01617145 0.00736878
v 0.03981793 0.01458203 0.01464257
v 0.03981793 0.01422539 0.01463462
v 0.04239364 0.01551715 0.02620378
v 0.04225460 0.01422539 0.02557842
v 0.03055791 0.02172602 0.00317674
v 0.04202866 0.01551715 0.02456619
v 0.03474300 0.01753903 0.00317674
f 1 2 3
f 1 3 4
f 1 4 5
f 1 5 6
f 1 6 12
f 1 12 22
f 1 22 42
f 1 42 57
f 1 57 72
f 1 72 62
f 1 62 51
f 1 51 37
f 1 37 17
f 1 17 8
f 1 8 2
f 2 7 3
f 2 8 9
f 2 9 7
f 3 7 10
f 3 10 11
f 3 11 4
f 4 11 20
f 4 20 34
f 4 34 33
f 4 33 48
f 4 48 47
f 4 47 46
f 4 46 41
f 4 41 21
f 4 21 12
f 4 12 6
f 4 6 5
f 7 13 14
f 7 14 15
f 7 15 10
f 7 9 8
f 7 8 16
f 7 16 13
f 8 17 18
f 8 18 19
f 8 19 16
f 10 15 34
f 10 34 20
f 10 20 11
f 12 21 22
f 13 23 24
f 13 24 14
f 13 16 23
f 14 25 26
f 14 26 27
f 14 27 28
f 14 28 29
f 14 29 15
f 14 24 30
f 14 30 25
f 15 29 31
f 15 31 32
f 15 32 33
f 15 33 34
f 16 19 23
f 17 35 36
f 17 36 18
f 17 37 35
f 18 36 38
f 18 38 19
f 19 38 39
f 19 39 23
f 21 40 22
f 21 41 45
f 21 45 27
f 21 27 26
f 21 26 44
f 21 44 58
f 21 58 60
f 21 60 73
f 21 73 88
f 21 88 90
f 21 90 81
f 21 81 67
f 21 67 55
f 21 55 40
f 22 40 55
f 22 55 69
f 22 69 85
f 22 85 87
f 22 87 71
f 22 71 56
f 22 56 42
f 23 39 24
f 24 39 43
f 24 43 30
f 25 30 43
f 25 43 44
f 25 44 26
f 27 45 28
f 28 45 41
f 28 41 46
f 28 46 47
f 28 47 29
f 29 47 48
f 29 48 31
f 31 48 32
f 32 48 33
f 35 49 50
f 35 50 38
f 35 38 36
f 35 37 49
f 37 51 52
f 37 52 53
f 37 53 49
f 38 50 49
f 38 49 39
f 39 49 54
f 39 54 59
f 39 59 43
f 42 56 57
f 43 58 44
f 43 59 73
f 43 73 60
f 43 60 58
f 49 53 52
f 49 52 61
f 49 61 54
f 51 62 63
f 51 63 64
f 51 64 52
f 52 64 65
f 52 65 66
f 52 66 61
f 54 61 74
f 54 74 59
f 55 67 68
f 55 68 69
f 56 70 57
f 56 71 86
f 56 86 70
f 57 70 72
f 59 74 73
f 61 66 80
f 61 80 74
f 62 72 75
f 62 75 76
f 62 76 63
f 63 76 77
f 63 77 78
f 63 78 65
f 63 65 64
f 65 78 66
f 66 78 79
f 66 79 80
f 67 81 80
f 67 80 82
f 67 82 68
f 68 82 83
f 68 83 79
f 68 79 77
f 68 77 76
f 68 76 84
f 68 84 69
f 69 84 85
f 70 86 76
f 70 76 72
f 71 87 86
f 72 76 75
f 73 74 80
f 73 80 88
f 76 86 89
f 76 89 84
f 77 79 78
f 79 83 80
f 80 83 82
f 80 81 90
f 80 90 88
f 84 89 85
f 85 89 86
f 85 86 87

