# https://github.com/mikedh/trimesh
v 0.03220700 0.02098112 0.06379137
v 0.03220700 0.02173949 0.06749951
v 0.03220700 0.02695484 0.06379137
v 0.03825349 0.00121570 0.06379137
v 0.03220700 0.02249534 0.06779406
v 0.03860258 0.00121570 0.06675163
v 0.03895261 0.00121570 0.06781922
v 0.03895543 0.00121570 0.06782660
v 0.03220700 0.02666258 0.06675163
v 0.03368051 0.02468226 0.06751859
v 0.03381601 0.02485862 0.06379137
v 0.03876536 0.00121570 0.06379137
v 0.03220700 0.02387602 0.06800662
v 0.04001399 0.00121570 0.06821658
v 0.03220700 0.02633757 0.06767043
v 0.03237260 0.02624434 0.06762531
v 0.03463369 0.02379036 0.06379137
v 0.03458946 0.02384831 0.06379137
v 0.03534786 0.02217536 0.06770947
v 0.03549559 0.02236937 0.06675163
v 0.03549371 0.02266163 0.06379137
v 0.04181872 0.00121822 0.06379137
v 0.04178767 0.00121570 0.06391630
v 0.03292494 0.02391381 0.06808904
v 0.03220700 0.02527686 0.06794805
v 0.03292494 0.02249534 0.06807126
v 0.04115347 0.00121570 0.06785349
v 0.04001399 0.00264425 0.06822265
v 0.03576093 0.01823992 0.06818404
v 0.03434293 0.02107686 0.06814847
v 0.03287695 0.02522395 0.06775024
v 0.03443891 0.02258604 0.06792203
v 0.03579669 0.02099876 0.06780534
v 0.03668494 0.01965839 0.06769081
v 0.03651557 0.02047470 0.06752640
v 0.03620506 0.02123811 0.06675163
v 0.03631139 0.02145731 0.06379137
v 0.03555863 0.02257596 0.06379137
v 0.04162394 0.00121570 0.06675163
v 0.04181872 0.00122578 0.06379137
v 0.03576093 0.01965839 0.06808036
v 0.04116100 0.00121570 0.06785089
v 0.04116100 0.00122578 0.06785089
v 0.04108949 0.00264425 0.06783310
v 0.04001399 0.00406273 0.06817147
v 0.03859599 0.01115258 0.06819446
v 0.03717799 0.01540548 0.06817971
v 0.03696534 0.01823992 0.06783657
v 0.03825820 0.01540548 0.06779623
v 0.03957081 0.01257105 0.06773419
v 0.03804743 0.01649894 0.06764787
v 0.03817445 0.01705071 0.06379137
v 0.03709425 0.01965083 0.06379137
v 0.03663601 0.02075185 0.06379137
v 0.03634150 0.02139684 0.06379137
v 0.03938450 0.01347051 0.06756805
v 0.03983616 0.01257105 0.06675163
v 0.04162112 0.00121570 0.06675944
v 0.04162394 0.00122578 0.06675163
v 0.04180461 0.00135679 0.06379137
v 0.03859599 0.01257105 0.06812418
v 0.04100104 0.00406273 0.06778148
v 0.03977217 0.01115258 0.06784872
v 0.04001399 0.00548120 0.06809165
v 0.04075357 0.00783441 0.06750818
v 0.04026146 0.01115258 0.06675163
v 0.04002811 0.01256854 0.06379137
v 0.04146116 0.00264425 0.06675163
v 0.04081473 0.00689968 0.06759321
v 0.04090789 0.00548120 0.06770166
v 0.04127485 0.00548120 0.06379137
v 0.04088060 0.00847688 0.06379137
v 0.04066513 0.01000873 0.06379137
v 0.04048823 0.01101401 0.06379137
f 1 2 5
f 1 5 13
f 1 13 25
f 1 25 15
f 1 15 9
f 1 9 3
f 1 3 11
f 1 11 18
f 1 18 17
f 1 17 21
f 1 21 38
f 1 38 37
f 1 37 55
f 1 55 54
f 1 54 53
f 1 53 52
f 1 52 67
f 1 67 74
f 1 74 73
f 1 73 72
f 1 72 71
f 1 71 60
f 1 60 40
f 1 40 22
f 1 22 12
f 1 12 4
f 1 4 2
f 2 4 6
f 2 6 7
f 2 7 8
f 2 8 5
f 3 9 10
f 3 10 11
f 4 12 23
f 4 23 39
f 4 39 58
f 4 58 42
f 4 42 27
f 4 27 14
f 4 14 8
f 4 8 7
f 4 7 6
f 5 8 13
f 8 14 13
f 9 15 16
f 9 16 10
f 10 17 18
f 10 18 11
f 10 16 19
f 10 19 20
f 10 20 21
f 10 21 17
f 12 22 23
f 13 24 25
f 13 14 26
f 13 26 24
f 14 27 28
f 14 28 29
f 14 29 30
f 14 30 26
f 15 25 24
f 15 24 31
f 15 31 19
f 15 19 16
f 19 31 32
f 19 32 33
f 19 33 34
f 19 34 35
f 19 35 20
f 20 35 36
f 20 36 37
f 20 37 38
f 20 38 21
f 22 39 23
f 22 40 59
f 22 59 39
f 24 26 30
f 24 30 41
f 24 41 32
f 24 32 31
f 27 42 43
f 27 43 28
f 28 43 44
f 28 44 45
f 28 45 46
f 28 46 29
f 29 47 41
f 29 41 30
f 29 46 47
f 32 41 33
f 33 41 34
f 34 41 48
f 34 48 49
f 34 49 50
f 34 50 51
f 34 51 35
f 35 52 53
f 35 53 54
f 35 54 55
f 35 55 36
f 35 51 56
f 35 56 57
f 35 57 52
f 36 55 37
f 39 59 58
f 40 60 59
f 41 47 61
f 41 61 49
f 41 49 48
f 42 58 43
f 43 59 44
f 43 58 59
f 44 59 62
f 44 62 63
f 44 63 64
f 44 64 45
f 45 64 63
f 45 63 61
f 45 61 46
f 46 61 47
f 49 61 50
f 50 61 63
f 50 63 65
f 50 65 66
f 50 66 56
f 50 56 51
f 52 57 67
f 56 66 57
f 57 66 67
f 59 60 68
f 59 68 65
f 59 65 69
f 59 69 70
f 59 70 62
f 60 71 65
f 60 65 68
f 62 70 63
f 63 70 69
f 63 69 65
f 65 72 73
f 65 73 66
f 65 71 72
f 66 74 67
f 66 73 74

