# https://github.com/mikedh/trimesh
v 0.00031123 0.04269474 0.06400450
v -0.00040672 0.04269474 0.06400450
v 0.00031123 0.04253986 0.06675184
v 0.00172851 0.04237728 0.06675184
v 0.00314785 0.04219587 0.06675184
v 0.00447616 0.04216079 0.06400450
v -0.00040672 0.04253986 0.06675184
v -0.00040672 0.03924459 0.06400450
v -0.00040672 0.04230626 0.06730725
v 0.00031123 0.04207693 0.06785069
v 0.00172851 0.04200505 0.06783294
v 0.00314785 0.04191692 0.06778173
v 0.00456513 0.04182365 0.06770161
v 0.00598241 0.04173038 0.06759383
v 0.00691968 0.04166877 0.06750836
v 0.00589551 0.04197339 0.06400450
v 0.01880827 0.03395385 0.06400450
v 0.01961105 0.03395385 0.06675184
v -0.00040672 0.03951927 0.06675184
v -0.00040672 0.04207693 0.06785069
v 0.00172851 0.04093030 0.06822317
v 0.00314785 0.04093030 0.06817155
v 0.00456513 0.04093030 0.06809185
v 0.01023425 0.04068729 0.06784862
v 0.01165359 0.04048620 0.06773424
v 0.01023425 0.04117760 0.06675184
v 0.00881904 0.04141120 0.06675184
v 0.00991148 0.04141206 0.06400450
v 0.00893283 0.04155924 0.06400450
v 0.00740797 0.04176803 0.06400450
v 0.02073039 0.03395385 0.06400450
v 0.02016968 0.03395385 0.06771359
v -0.00040672 0.03969297 0.06728330
v -0.00040672 0.04093030 0.06821656
v 0.01732478 0.03667666 0.06818435
v 0.01023425 0.03951157 0.06819426
v 0.01165359 0.03951157 0.06812406
v 0.01449022 0.03917357 0.06779619
v 0.01874412 0.03760081 0.06769088
v 0.01558473 0.03896307 0.06764794
v 0.01255362 0.04029966 0.06756823
v 0.01165359 0.04075147 0.06675184
v 0.01011838 0.04137612 0.06400450
v 0.02073039 0.03704632 0.06400450
v 0.02073039 0.03395385 0.06783624
v 0.02027727 0.03395385 0.06774250
v -0.00040672 0.03987096 0.06782674
v -0.00040672 0.04039464 0.06801958
v 0.02016141 0.03525878 0.06814843
v 0.01874412 0.03667666 0.06808070
v 0.01449022 0.03809454 0.06817981
v 0.01732478 0.03788147 0.06783665
v 0.02008485 0.03671260 0.06780526
v 0.02073039 0.03646616 0.06775283
v 0.01955932 0.03743138 0.06752653
v 0.01165359 0.04089779 0.06400450
v 0.01156463 0.04092603 0.06400450
v 0.01264879 0.04033988 0.06675184
v 0.01276259 0.04043999 0.06400450
v 0.02073039 0.03686577 0.06675184
v 0.02049452 0.03720377 0.06400450
v 0.02073039 0.03529472 0.06806336
v 0.02032279 0.03712077 0.06675184
v 0.01961518 0.03745363 0.06675184
v 0.01874412 0.03781558 0.06675184
v 0.01577922 0.03904350 0.06675184
v 0.01282466 0.04041432 0.06400450
v 0.01983036 0.03750754 0.06400450
v 0.01978484 0.03752807 0.06400450
v 0.01973105 0.03755118 0.06400450
v 0.01874412 0.03796277 0.06400450
f 1 2 7
f 1 7 3
f 1 3 4
f 1 4 5
f 1 5 6
f 1 6 16
f 1 16 30
f 1 30 29
f 1 29 28
f 1 28 43
f 1 43 57
f 1 57 56
f 1 56 59
f 1 59 67
f 1 67 71
f 1 71 70
f 1 70 69
f 1 69 68
f 1 68 61
f 1 61 44
f 1 44 31
f 1 31 17
f 1 17 8
f 1 8 2
f 2 8 19
f 2 19 33
f 2 33 47
f 2 47 48
f 2 48 34
f 2 34 20
f 2 20 9
f 2 9 7
f 3 7 9
f 3 9 10
f 3 10 11
f 3 11 12
f 3 12 13
f 3 13 14
f 3 14 15
f 3 15 4
f 4 15 5
f 5 15 6
f 6 15 16
f 8 17 18
f 8 18 19
f 9 20 10
f 10 20 21
f 10 21 11
f 11 21 22
f 11 22 23
f 11 23 24
f 11 24 12
f 12 24 13
f 13 24 14
f 14 24 15
f 15 24 25
f 15 25 26
f 15 26 27
f 15 27 28
f 15 28 29
f 15 29 30
f 15 30 16
f 17 31 45
f 17 45 46
f 17 46 32
f 17 32 18
f 18 32 19
f 19 32 33
f 20 34 21
f 21 34 35
f 21 35 36
f 21 36 22
f 22 36 37
f 22 37 24
f 22 24 23
f 24 37 25
f 25 37 38
f 25 38 39
f 25 39 40
f 25 40 41
f 25 41 26
f 26 41 42
f 26 42 43
f 26 43 28
f 26 28 27
f 31 44 60
f 31 60 54
f 31 54 62
f 31 62 45
f 32 46 47
f 32 47 33
f 34 48 45
f 34 45 49
f 34 49 35
f 35 49 50
f 35 50 51
f 35 51 36
f 36 51 37
f 37 51 50
f 37 50 38
f 38 50 52
f 38 52 39
f 39 52 50
f 39 50 53
f 39 53 54
f 39 54 55
f 39 55 40
f 40 55 41
f 41 55 42
f 42 56 57
f 42 57 43
f 42 55 58
f 42 58 67
f 42 67 59
f 42 59 56
f 44 61 60
f 45 62 49
f 45 48 47
f 45 47 46
f 49 62 50
f 50 62 54
f 50 54 53
f 54 60 55
f 55 60 63
f 55 63 64
f 55 64 65
f 55 65 66
f 55 66 58
f 58 66 67
f 60 61 63
f 61 68 64
f 61 64 63
f 64 68 69
f 64 69 70
f 64 70 71
f 64 71 65
f 65 71 67
f 65 67 66

