# https://github.com/mikedh/trimesh
v 0.01238702 -0.01906163 0.06319509
v 0.01166100 -0.01906163 0.06533364
v 0.01238702 -0.02146360 0.06319509
v 0.01238702 -0.01906163 -0.06802210
v 0.01123523 -0.01906163 0.06624450
v 0.01166100 -0.02004540 0.06533364
v 0.01165971 -0.02146360 0.06533364
v 0.01238702 -0.03080255 0.06291786
v 0.01238702 -0.03080255 -0.06837852
v -0.00083398 -0.01906163 -0.06802210
v 0.01092851 -0.01906163 0.06631050
v 0.01123523 -0.02146360 0.06624450
v 0.01114075 -0.02288179 0.06619169
v 0.01101263 -0.02376213 0.06609929
v 0.00955284 -0.02646061 0.06605969
v 0.00822246 -0.02795236 0.06612569
v 0.00670313 -0.02927057 0.06604648
v 0.00391683 -0.03070371 0.06605969
v 0.00323352 -0.03080255 0.06615209
v -0.00083398 -0.03080255 -0.06802210
v -0.00083398 -0.01906163 0.06291786
v 0.01023615 -0.01906163 0.06645571
v 0.01023615 -0.02146360 0.06645571
v 0.01023615 -0.02288179 0.06640291
v 0.01025815 -0.02426092 0.06624450
v 0.00975214 -0.02571704 0.06616529
v 0.00874400 -0.02701341 0.06619169
v 0.00739938 -0.02713409 0.06641611
v 0.00726479 -0.02847643 0.06617849
v 0.00598099 -0.02944411 0.06615209
v 0.00314681 -0.03080255 0.06616529
v -0.00083398 -0.03080255 0.06628410
v -0.00083398 -0.02758460 0.06624450
v 0.00793257 -0.01906163 0.06620490
v 0.00881776 -0.01906163 0.06641611
v -0.00083398 -0.02855228 0.06645571
v 0.00881776 -0.02429999 0.06645571
v 0.00881776 -0.02571704 0.06637651
v 0.00456520 -0.02855228 0.06645571
v 0.00598099 -0.02855228 0.06636331
v 0.00445908 -0.02996933 0.06621809
v 0.00314681 -0.02997048 0.06637651
v 0.00192902 -0.03080255 0.06625770
v 0.00057405 -0.03080255 0.06628410
v -0.00083398 -0.03064165 0.06632370
v -0.00083398 -0.02836725 0.06641611
v 0.00854082 -0.01906163 0.06635010
v -0.00083398 -0.02997048 0.06645571
v 0.00172843 -0.02997048 0.06645571
v 0.00172843 -0.03080255 0.06627090
f 1 2 6
f 1 6 3
f 1 3 8
f 1 8 9
f 1 9 4
f 1 4 10
f 1 10 21
f 1 21 34
f 1 34 47
f 1 47 35
f 1 35 22
f 1 22 11
f 1 11 5
f 1 5 2
f 2 5 12
f 2 12 6
f 3 6 7
f 3 7 8
f 4 9 10
f 5 11 12
f 6 12 7
f 7 12 8
f 8 12 13
f 8 13 14
f 8 14 15
f 8 15 16
f 8 16 17
f 8 17 18
f 8 18 19
f 8 19 31
f 8 31 43
f 8 43 50
f 8 50 44
f 8 44 32
f 8 32 20
f 8 20 9
f 9 20 10
f 10 20 32
f 10 32 45
f 10 45 48
f 10 48 36
f 10 36 46
f 10 46 33
f 10 33 21
f 11 22 23
f 11 23 12
f 12 23 24
f 12 24 13
f 13 24 25
f 13 25 14
f 14 25 26
f 14 26 15
f 15 26 27
f 15 27 16
f 16 27 28
f 16 28 29
f 16 29 17
f 17 29 30
f 17 30 18
f 18 30 19
f 19 30 31
f 21 33 34
f 22 35 36
f 22 36 48
f 22 48 49
f 22 49 39
f 22 39 37
f 22 37 23
f 23 37 24
f 24 37 38
f 24 38 25
f 25 38 26
f 26 38 27
f 27 38 28
f 28 38 37
f 28 37 39
f 28 39 40
f 28 40 29
f 29 40 30
f 30 40 41
f 30 41 31
f 31 41 42
f 31 42 43
f 32 44 45
f 33 46 35
f 33 35 47
f 33 47 34
f 35 46 36
f 39 49 42
f 39 42 40
f 40 42 41
f 42 50 43
f 42 49 50
f 44 50 49
f 44 49 45
f 45 49 48

