# https://github.com/mikedh/trimesh
v 0.02749130 -0.03813712 -0.05802223
v 0.02749130 -0.03813491 -0.05943902
v 0.03030805 -0.03597463 -0.05943902
v 0.02749130 -0.03813712 0.04453379
v 0.02749130 -0.03796518 -0.06051915
v 0.02796381 -0.03777119 -0.06015444
v 0.03194020 -0.03472035 -0.05943902
v 0.03030805 -0.03597463 0.04547364
v 0.02796381 -0.03777119 0.04618904
v 0.02749130 -0.03813491 0.04547364
v 0.02952608 -0.03646180 -0.06040693
v 0.02749130 -0.03776899 -0.06093998
v 0.02767931 -0.03755076 -0.06110831
v 0.03356736 -0.03344843 -0.05943902
v 0.03285860 -0.03401275 -0.05943902
v 0.03194020 -0.03472035 0.04547364
v 0.02749130 -0.03798942 0.04656779
v 0.02749130 -0.03813271 0.04571210
v 0.03285860 -0.03401054 0.04547364
v 0.03356736 -0.03344843 0.04547364
v 0.03268390 -0.03387607 0.04689043
v 0.02952608 -0.03646180 0.04648363
v 0.02939132 -0.02927115 0.06746896
v 0.03101681 -0.03510170 -0.06086984
v 0.03172558 -0.03455722 -0.06086984
v 0.03264564 -0.03384742 -0.06086984
v 0.02923992 -0.03624356 -0.06134678
v 0.02749130 -0.03744715 -0.06159928
v 0.02749130 -0.03709886 -0.06230066
v 0.03335440 -0.03323460 -0.06086984
v 0.03396666 -0.03252700 -0.06086984
v 0.03658043 -0.02940562 -0.06040693
v 0.03788815 -0.02784492 -0.06015444
v 0.03413138 -0.03273862 -0.05943902
v 0.03285860 -0.03401275 0.04405685
v 0.02749130 -0.03065990 0.06704814
v 0.03413138 -0.03273862 0.04547364
v 0.03788815 -0.02784492 0.04618904
v 0.03399661 -0.03256447 0.04689043
v 0.03339267 -0.03327428 0.04689043
v 0.03368050 -0.02365222 0.06751104
v 0.03237278 -0.02521291 0.06762326
v 0.03106506 -0.02677360 0.06769341
v 0.02966251 -0.02855253 0.06766535
v 0.02867091 -0.02954229 0.06766535
v 0.03658043 -0.02940562 0.04648363
v 0.03080053 -0.03493638 -0.06157123
v 0.03236113 -0.03362698 -0.06178164
v 0.02822003 -0.03654997 -0.06228664
v 0.02749130 -0.03654556 -0.06336676
v 0.03230789 -0.03218753 -0.06458717
v 0.03374705 -0.03224043 -0.06178164
v 0.03467543 -0.03160557 -0.06086984
v 0.03505476 -0.03068195 -0.06157123
v 0.03521948 -0.03089797 -0.06086984
v 0.03952197 -0.02529226 -0.06086984
v 0.04092119 -0.02387265 -0.05943902
v 0.04039544 -0.02458246 -0.05943902
v 0.03968668 -0.02550609 -0.05943902
v 0.03484014 -0.03182160 -0.05943902
v 0.04028397 -0.02427164 -0.06091193
v 0.04085464 -0.02377786 -0.06047707
v 0.02749130 -0.02998316 0.06787576
v 0.03484014 -0.03182160 0.04547364
v 0.03968668 -0.02550609 0.04547364
v 0.04039544 -0.02458246 0.04547364
v 0.04085464 -0.02377786 0.04656779
v 0.03534759 -0.02114364 0.06770743
v 0.03152592 -0.02569787 0.06784771
v 0.03016663 -0.02720125 0.06790382
v 0.02867091 -0.02855253 0.06804409
v 0.03004019 -0.03522515 -0.06214636
v 0.03142111 -0.03415823 -0.06216039
v 0.03204169 -0.03338009 -0.06273552
v 0.03109667 -0.03374381 -0.06343690
v 0.02749130 -0.03422436 -0.06782755
v 0.03152759 -0.03255125 -0.06507813
v 0.03072067 -0.03060259 -0.06997378
v 0.03350081 -0.03192300 -0.06273552
v 0.03427779 -0.03130137 -0.06216039
v 0.03636082 -0.02912125 -0.06134678
v 0.03934062 -0.02505419 -0.06164136
v 0.04144361 -0.02288289 -0.05943902
v 0.04144527 -0.02288289 -0.05802223
v 0.04092119 -0.02387265 0.04547364
v 0.03914263 -0.02621590 -0.05802223
v 0.04064833 -0.02345603 -0.06141692
v 0.04110753 -0.02294241 -0.06091193
v 0.04221393 -0.02092982 -0.06035082
v 0.02749130 -0.02985751 0.06791785
v 0.03914263 -0.02621590 0.04405685
v 0.04144028 -0.02288289 0.04547364
v 0.04221393 -0.02092982 0.04641349
v 0.04112583 -0.02298650 0.04697459
v 0.03651388 -0.01944408 0.06752508
v 0.03668359 -0.01862846 0.06767938
v 0.03579680 -0.01996872 0.06779160
v 0.03576186 -0.01862846 0.06807216
v 0.03443917 -0.02155586 0.06791785
v 0.03292515 -0.02288289 0.06808618
v 0.03150763 -0.02430030 0.06814229
v 0.03009010 -0.02571771 0.06815632
v 0.02749130 -0.02855253 0.06808618
v 0.03048607 -0.03185687 -0.06795380
v 0.02945787 -0.03073926 -0.07161501
v 0.02868256 -0.03252700 -0.06932850
v 0.02749130 -0.03270335 -0.07074530
v 0.02941794 -0.02929981 -0.07437845
v 0.03085876 -0.02933728 -0.07161501
v 0.03264730 -0.02856355 -0.06932850
v 0.03534426 -0.02992144 -0.06214636
v 0.03553060 -0.02575077 -0.06793977
v 0.03945708 -0.02378889 -0.06328259
v 0.03965506 -0.02427605 -0.06217441
v 0.04195438 -0.02172560 -0.05943902
v 0.04195605 -0.02172560 -0.05802223
v 0.04144527 -0.02288289 0.04405685
v 0.03788981 -0.02217529 -0.06866921
v 0.03655215 -0.02088132 -0.07310194
v 0.03930401 -0.02217308 -0.06582160
v 0.04088459 -0.02251035 -0.06193594
v 0.04180964 -0.02142801 -0.06084179
v 0.04401745 -0.01593252 -0.06101012
v 0.04374626 -0.01695314 -0.06063137
v 0.04448497 -0.01561950 -0.05943902
v 0.04354661 -0.01788779 -0.05943902
v 0.04224887 -0.02101799 -0.05943902
v 0.04202593 -0.02047572 -0.06129067
v 0.04195106 -0.02172560 0.04547364
v 0.04184790 -0.02142801 0.04689043
v 0.04224887 -0.02101799 0.04547364
v 0.04354661 -0.01788779 0.04547364
v 0.04448330 -0.01561950 0.04547364
v 0.04429197 -0.01561950 0.04665196
v 0.04425038 -0.01561950 0.04690445
v 0.03800961 -0.01561950 0.06749702
v 0.03777335 -0.01561950 0.06772146
v 0.03696476 -0.01721105 0.06783368
v 0.03726923 -0.01561950 0.06793188
v 0.03576186 -0.01721105 0.06818437
v 0.03434434 -0.02004587 0.06814229
v 0.02749130 -0.02831445 0.06808618
v 0.02819175 -0.03085609 -0.07325624
v 0.02866758 -0.03026091 -0.07369110
v 0.02913843 -0.03049237 -0.07255486
v 0.02749130 -0.03133444 -0.07336846
v 0.02787230 -0.03060038 -0.07419610
v 0.02867091 -0.02958637 -0.07456081
v 0.02970577 -0.02855253 -0.07456081
v 0.03109168 -0.02680887 -0.07457484
v 0.03239940 -0.02524818 -0.07450470
v 0.03370712 -0.02368528 -0.07442054
v 0.03500818 -0.02212459 -0.07426623
v 0.03072067 -0.02775234 -0.07419610
v 0.03037959 -0.02854812 -0.07369110
v 0.03061252 -0.02901765 -0.07255486
v 0.03097522 -0.02807197 -0.07325624
v 0.03262401 -0.02571991 -0.07356485
v 0.03550731 -0.02290493 -0.07217612
v 0.04195605 -0.02172560 0.04405685
v 0.03579181 -0.02150296 -0.07367707
v 0.03631923 -0.02044486 -0.07404179
v 0.03672851 -0.02000178 -0.07359291
v 0.03950034 -0.02122741 -0.06627048
v 0.04049693 -0.02153382 -0.06375953
v 0.04067329 -0.02205185 -0.06287579
v 0.04112084 -0.02153382 -0.06235677
v 0.04415721 -0.01561950 -0.06098206
v 0.04355825 -0.01649904 -0.06157123
v 0.04444837 -0.01561950 -0.05962138
v 0.04448663 -0.01561950 -0.05802223
v 0.04222059 -0.01953005 -0.06175359
v 0.04448663 -0.01561950 0.04405685
v 0.04448497 -0.01561950 0.04523517
v 0.03745724 -0.01561950 0.06786174
v 0.03569531 -0.01561950 0.06790382
v 0.03564540 -0.01561950 0.06788979
v 0.02749130 -0.02709764 0.06770743
v 0.02749130 -0.03108314 -0.07384540
v 0.02749130 -0.03021682 -0.07461692
v 0.02749130 -0.03001182 -0.07475720
v 0.02867091 -0.02855253 -0.07495359
v 0.03154090 -0.02571991 -0.07474317
v 0.03537587 -0.02117891 -0.07458887
v 0.03203670 -0.02619385 -0.07398568
v 0.03653718 -0.01949919 -0.07442054
v 0.03786819 -0.01647038 -0.07430831
v 0.03740400 -0.01848959 -0.07349471
v 0.04171148 -0.01561950 -0.06652298
v 0.04294432 -0.01721105 -0.06228664
v 0.03925244 -0.01561950 -0.07202181
v 0.04379950 -0.01561950 -0.06183775
v 0.04341517 -0.01561950 -0.06270746
v 0.04369634 -0.01561950 -0.06207622
v 0.02749130 -0.01561950 0.06290998
v 0.03487175 -0.01606258 0.06765132
v 0.02749130 -0.02855253 -0.07509387
v 0.02867091 -0.02713291 -0.07512192
v 0.03009010 -0.02571771 -0.07509387
v 0.03150763 -0.02430030 -0.07505178
v 0.03292515 -0.02288289 -0.07498164
v 0.03445914 -0.02157791 -0.07479928
v 0.03581344 -0.02000178 -0.07468706
v 0.03671852 -0.01862846 -0.07457484
v 0.03788815 -0.01561950 -0.07458887
v 0.03813772 -0.01561950 -0.07433637
v 0.03848378 -0.01561950 -0.07373318
v 0.04296429 -0.01561950 -0.06371745
v 0.02749130 -0.01561950 -0.06803796
v 0.02749130 -0.02713291 -0.07512192
v 0.03292515 -0.02146328 -0.07512192
v 0.03434434 -0.02004587 -0.07510789
v 0.03576186 -0.01862846 -0.07496762
v 0.03700802 -0.01721105 -0.07471512
v 0.03728254 -0.01561950 -0.07482734
v 0.03047110 -0.01561950 -0.07464497
v 0.02787064 -0.01921703 -0.07444859
v 0.02749130 -0.02004587 -0.07444859
v 0.02749130 -0.02288289 -0.07512192
v 0.03434434 -0.01862846 -0.07512192
v 0.03576186 -0.01721105 -0.07510789
v 0.03576186 -0.01579144 -0.07512192
v 0.03576186 -0.01561950 -0.07512192
v 0.03149598 -0.01561950 -0.07502372
v 0.02749130 -0.02024867 -0.07464497
v 0.02755785 -0.02004587 -0.07461692
v 0.02749130 -0.02136629 -0.07486942
v 0.02867091 -0.02004587 -0.07499567
v 0.03150763 -0.01579144 -0.07505178
v 0.03150763 -0.01721105 -0.07512192
v 0.03292515 -0.01561950 -0.07512192
f 1 2 3
f 1 3 8
f 1 8 4
f 1 4 10
f 1 10 18
f 1 18 17
f 1 17 36
f 1 36 63
f 1 63 90
f 1 90 103
f 1 103 142
f 1 142 178
f 1 178 195
f 1 195 209
f 1 209 218
f 1 218 225
f 1 225 227
f 1 227 219
f 1 219 210
f 1 210 197
f 1 197 181
f 1 181 180
f 1 180 179
f 1 179 146
f 1 146 107
f 1 107 76
f 1 76 50
f 1 50 29
f 1 29 28
f 1 28 12
f 1 12 5
f 1 5 2
f 2 5 6
f 2 6 3
f 3 6 7
f 3 7 16
f 3 16 8
f 4 8 9
f 4 9 10
f 5 11 6
f 5 12 13
f 5 13 11
f 6 14 15
f 6 15 7
f 6 11 14
f 7 15 35
f 7 35 16
f 8 16 9
f 9 17 18
f 9 18 10
f 9 16 19
f 9 19 20
f 9 20 21
f 9 21 22
f 9 22 23
f 9 23 17
f 11 24 25
f 11 25 26
f 11 26 14
f 11 13 27
f 11 27 24
f 12 28 13
f 13 28 29
f 13 29 27
f 14 26 30
f 14 30 31
f 14 31 32
f 14 32 33
f 14 33 34
f 14 34 37
f 14 37 20
f 14 20 35
f 14 35 15
f 16 35 19
f 17 23 36
f 19 35 20
f 20 37 38
f 20 38 39
f 20 39 40
f 20 40 21
f 21 40 23
f 21 23 22
f 23 41 42
f 23 42 43
f 23 43 44
f 23 44 45
f 23 45 36
f 23 40 39
f 23 39 46
f 23 46 38
f 23 38 41
f 24 27 25
f 25 27 47
f 25 47 26
f 26 47 48
f 26 48 30
f 27 29 49
f 27 49 47
f 29 50 49
f 30 48 51
f 30 51 52
f 30 52 31
f 31 53 32
f 31 52 54
f 31 54 53
f 32 53 55
f 32 55 56
f 32 56 33
f 33 57 58
f 33 58 59
f 33 59 60
f 33 60 34
f 33 56 61
f 33 61 62
f 33 62 57
f 34 60 64
f 34 64 37
f 36 45 63
f 37 64 38
f 38 46 39
f 38 64 65
f 38 65 66
f 38 66 67
f 38 67 41
f 41 68 42
f 41 67 68
f 42 68 43
f 43 68 69
f 43 69 70
f 43 70 44
f 44 70 71
f 44 71 45
f 45 71 63
f 47 49 72
f 47 72 73
f 47 73 48
f 48 73 74
f 48 74 51
f 49 75 73
f 49 73 72
f 49 50 76
f 49 76 75
f 51 74 77
f 51 77 78
f 51 78 79
f 51 79 52
f 52 79 80
f 52 80 54
f 53 54 81
f 53 81 55
f 54 80 82
f 54 82 81
f 55 81 56
f 56 81 82
f 56 82 61
f 57 62 83
f 57 83 84
f 57 84 117
f 57 117 85
f 57 85 66
f 57 66 58
f 58 86 59
f 58 66 91
f 58 91 86
f 59 86 60
f 60 86 91
f 60 91 64
f 61 82 87
f 61 87 62
f 62 87 88
f 62 88 89
f 62 89 83
f 63 71 90
f 64 91 65
f 65 91 66
f 66 85 67
f 67 85 92
f 67 92 93
f 67 93 94
f 67 94 95
f 67 95 68
f 68 95 96
f 68 96 97
f 68 97 98
f 68 98 99
f 68 99 69
f 69 99 100
f 69 100 71
f 69 71 70
f 71 100 101
f 71 101 102
f 71 102 103
f 71 103 90
f 73 75 74
f 74 75 104
f 74 104 105
f 74 105 77
f 75 76 106
f 75 106 105
f 75 105 104
f 76 107 106
f 77 105 78
f 78 105 108
f 78 108 109
f 78 109 79
f 79 110 80
f 79 109 110
f 80 111 82
f 80 110 112
f 80 112 111
f 82 111 112
f 82 112 113
f 82 113 114
f 82 114 87
f 83 115 116
f 83 116 84
f 83 89 115
f 84 116 160
f 84 160 117
f 85 117 92
f 87 114 113
f 87 113 118
f 87 118 119
f 87 119 120
f 87 120 121
f 87 121 88
f 88 122 89
f 88 121 122
f 89 123 124
f 89 124 125
f 89 125 126
f 89 126 127
f 89 127 115
f 89 122 128
f 89 128 123
f 92 117 160
f 92 160 129
f 92 129 93
f 93 130 94
f 93 129 131
f 93 131 132
f 93 132 133
f 93 133 134
f 93 134 135
f 93 135 95
f 93 95 130
f 94 130 95
f 95 136 96
f 95 135 136
f 96 137 138
f 96 138 98
f 96 98 97
f 96 136 137
f 98 138 139
f 98 139 140
f 98 140 141
f 98 141 100
f 98 100 99
f 100 141 101
f 101 141 140
f 101 140 102
f 102 140 142
f 102 142 103
f 105 107 143
f 105 143 144
f 105 144 145
f 105 145 108
f 105 106 107
f 107 146 143
f 108 144 147
f 108 147 148
f 108 148 149
f 108 149 150
f 108 150 151
f 108 151 152
f 108 152 153
f 108 153 154
f 108 154 155
f 108 155 156
f 108 156 109
f 108 145 144
f 109 156 155
f 109 155 157
f 109 157 158
f 109 158 110
f 110 158 112
f 112 158 159
f 112 159 113
f 113 159 118
f 115 127 116
f 116 127 126
f 116 126 132
f 116 132 160
f 118 159 161
f 118 161 119
f 119 161 162
f 119 162 163
f 119 163 120
f 120 164 165
f 120 165 166
f 120 166 121
f 120 163 164
f 121 166 167
f 121 167 128
f 121 128 122
f 123 168 124
f 123 128 169
f 123 169 168
f 124 168 170
f 124 170 125
f 125 171 126
f 125 170 168
f 125 168 192
f 125 192 194
f 125 194 193
f 125 193 208
f 125 208 189
f 125 189 191
f 125 191 207
f 125 207 206
f 125 206 205
f 125 205 215
f 125 215 223
f 125 223 231
f 125 231 224
f 125 224 216
f 125 216 209
f 125 209 195
f 125 195 177
f 125 177 176
f 125 176 139
f 125 139 175
f 125 175 137
f 125 137 136
f 125 136 135
f 125 135 134
f 125 134 133
f 125 133 174
f 125 174 173
f 125 173 171
f 126 171 173
f 126 173 132
f 128 167 172
f 128 172 169
f 129 160 131
f 131 160 132
f 132 173 174
f 132 174 133
f 137 175 138
f 138 175 139
f 139 176 140
f 140 176 142
f 142 176 177
f 142 177 178
f 143 146 179
f 143 179 144
f 144 179 147
f 147 179 180
f 147 180 148
f 148 180 181
f 148 181 182
f 148 182 149
f 149 182 183
f 149 183 150
f 150 183 184
f 150 184 151
f 151 184 152
f 152 184 153
f 153 184 162
f 153 162 161
f 153 161 159
f 153 159 158
f 153 158 185
f 153 185 154
f 154 185 155
f 155 185 158
f 155 158 157
f 162 184 186
f 162 186 163
f 163 186 187
f 163 187 188
f 163 188 164
f 164 188 165
f 165 189 190
f 165 190 169
f 165 169 172
f 165 172 167
f 165 167 166
f 165 188 191
f 165 191 189
f 168 169 192
f 169 190 193
f 169 193 194
f 169 194 192
f 177 195 196
f 177 196 178
f 178 196 195
f 181 197 182
f 182 197 198
f 182 198 199
f 182 199 200
f 182 200 201
f 182 201 183
f 183 201 202
f 183 202 184
f 184 202 203
f 184 203 186
f 186 203 204
f 186 204 187
f 187 204 205
f 187 205 206
f 187 206 207
f 187 207 188
f 188 207 191
f 189 208 190
f 190 208 193
f 197 210 198
f 198 210 219
f 198 219 230
f 198 230 231
f 198 231 223
f 198 223 222
f 198 222 220
f 198 220 211
f 198 211 212
f 198 212 199
f 199 212 200
f 200 212 201
f 201 212 202
f 202 212 213
f 202 213 203
f 203 213 204
f 204 213 214
f 204 214 205
f 205 214 215
f 209 216 217
f 209 217 218
f 211 220 212
f 212 221 213
f 212 220 221
f 213 215 214
f 213 221 215
f 215 221 222
f 215 222 223
f 216 224 225
f 216 225 226
f 216 226 217
f 217 226 218
f 218 226 225
f 219 227 228
f 219 228 229
f 219 229 230
f 220 222 221
f 224 231 229
f 224 229 228
f 224 228 225
f 225 228 227
f 229 231 230

