# https://github.com/mikedh/trimesh
v 0.04965456 0.00276599 0.06389361
v 0.04957366 0.00501082 0.06553695
v 0.04945737 0.00276599 0.06550624
v 0.04815286 0.00276599 0.01963604
v 0.04832477 0.00527407 0.02092614
v 0.04595846 0.01978169 0.06233730
v 0.04691914 0.01493784 0.06563934
v 0.03147239 0.03886034 0.06604378
v 0.04766241 0.00893089 0.01388179
v 0.00725311 0.04964892 0.06618200
v -0.00199978 0.00276599 0.06406767
v 0.04814780 0.00276599 0.01957973
v 0.04756634 0.00276599 0.01388179
v 0.04170618 0.02821535 0.06526562
v 0.04529610 0.01713959 0.01388179
v 0.04512419 0.01770439 0.01388179
v 0.04505340 0.01785755 0.01388179
v 0.04292979 0.02369219 0.06556767
v 0.03596232 0.03451906 0.06579293
v 0.01872061 0.04709297 0.06614105
v 0.02934373 0.04165561 0.06137997
v 0.01297169 0.04947183 0.06306939
v -0.00005313 0.05166400 0.06374003
v -0.00199978 0.05032380 0.06585436
v -0.00199978 0.00276599 0.01388179
v 0.03874829 0.02994804 0.01388179
v 0.03841458 0.03040275 0.01388179
v 0.03576007 0.03412179 0.03086810
v 0.02061669 0.04531722 0.01388179
v 0.01907455 0.04602560 0.01388179
v 0.03098194 0.03849179 0.01388179
v 0.02752349 0.04159338 0.02529303
v 0.01400821 0.04786838 0.01388179
v 0.00646939 0.04977815 0.01388179
v -0.00199978 0.05139596 0.06313082
v -0.00199978 0.05136724 0.06397041
v -0.00199978 0.05100826 0.06484583
v 0.00630759 0.04980209 0.01388179
v -0.00137786 0.05075937 0.02680326
v -0.00199978 0.05071151 0.02502170
v -0.00199978 0.05021850 0.01388179
f 1 2 3
f 1 3 11
f 1 11 25
f 1 25 13
f 1 13 12
f 1 12 4
f 1 4 5
f 1 5 2
f 2 6 7
f 2 7 8
f 2 8 3
f 2 5 9
f 2 9 6
f 3 8 10
f 3 10 11
f 4 12 5
f 5 12 13
f 5 13 9
f 6 14 7
f 6 9 15
f 6 15 16
f 6 16 17
f 6 17 14
f 7 18 19
f 7 19 8
f 7 14 18
f 8 20 10
f 8 19 21
f 8 21 20
f 9 13 25
f 9 25 41
f 9 41 38
f 9 38 34
f 9 34 33
f 9 33 30
f 9 30 29
f 9 29 31
f 9 31 27
f 9 27 26
f 9 26 17
f 9 17 16
f 9 16 15
f 10 20 22
f 10 22 23
f 10 23 24
f 10 24 11
f 11 24 37
f 11 37 36
f 11 36 35
f 11 35 40
f 11 40 41
f 11 41 25
f 14 19 18
f 14 17 26
f 14 26 27
f 14 27 28
f 14 28 19
f 19 28 21
f 20 21 29
f 20 29 30
f 20 30 22
f 21 28 31
f 21 31 32
f 21 32 29
f 22 30 33
f 22 33 34
f 22 34 23
f 23 35 36
f 23 36 37
f 23 37 24
f 23 34 38
f 23 38 39
f 23 39 40
f 23 40 35
f 27 31 28
f 29 32 31
f 38 41 39
f 39 41 40

