# https://github.com/mikedh/trimesh
v 0.01159979 -0.00667373 0.00637905
v 0.01159979 -0.00668822 -0.00641772
v 0.01159979 -0.00668580 0.00641373
v 0.01377674 -0.00756495 0.00808773
v 0.01590805 -0.00784270 0.00776218
v 0.01710834 -0.00800211 0.00751946
v 0.01377674 -0.00708915 0.00637905
v 0.01377674 -0.00708190 0.00424658
v 0.01377674 -0.00707949 0.00211411
v 0.01159979 -0.00733309 -0.00798962
v 0.01377674 -0.00708673 -0.00001837
v 0.01377674 -0.00710364 -0.00215084
v 0.01377674 -0.00713021 -0.00428332
v 0.01377674 -0.00717851 -0.00641772
v 0.01549731 -0.00785478 -0.00769489
v 0.01377674 -0.00762533 -0.00789716
v 0.01159979 -0.00748283 0.00856739
v 0.02145768 -0.01013959 0.00960570
v 0.02287703 -0.01029175 0.00942077
v 0.03001944 -0.01222153 0.00965000
v 0.02403625 -0.00998985 0.00799912
v 0.05822396 -0.01853979 0.00670461
v 0.05822396 -0.01849873 0.00654279
v 0.05822396 -0.01846492 0.00640024
v 0.05822396 -0.01805916 0.00459332
v 0.05822396 -0.01799153 0.00424658
v 0.05822396 -0.01784420 0.00211411
v 0.01159979 -0.00735000 -0.00802623
v 0.05822396 -0.01803742 -0.00180410
v 0.05822396 -0.01817267 -0.00393657
v 0.05822396 -0.01820649 -0.00428332
v 0.05822396 -0.01848665 -0.00598429
v 0.05822396 -0.01896970 -0.00702452
v 0.05572754 -0.01862674 -0.00758124
v 0.01377674 -0.00910346 -0.00851937
v 0.01164087 -0.00735966 -0.00802623
v 0.05822396 -0.02000584 -0.00799733
v 0.05430362 -0.01976673 -0.00837490
v 0.01159979 -0.00770262 0.00882167
v 0.02870962 -0.01207903 0.00973284
v 0.01201510 -0.00827503 0.00937454
v 0.01159979 -0.00881846 0.00986190
v 0.01159979 -0.00906723 0.01005454
v 0.02017524 -0.01004057 0.00968468
v 0.02017524 -0.01123611 0.01022021
v 0.03510356 -0.01550384 0.01040128
v 0.05430362 -0.02010728 0.01008536
v 0.05811899 -0.02066520 0.00969816
v 0.05284320 -0.01882237 0.00944966
v 0.05822396 -0.01969669 0.00856932
v 0.05822396 -0.01933923 0.00813011
v 0.05764435 -0.01867263 0.00750597
v 0.01164087 -0.00910346 -0.00865807
v 0.01159979 -0.00906240 -0.00864459
v 0.05822396 -0.01977156 -0.00781625
v 0.05216775 -0.01976673 -0.00854827
v 0.05822396 -0.02152985 -0.00853093
v 0.05822396 -0.02189938 -0.00864266
v 0.01804393 -0.01123611 0.01042055
v 0.01159979 -0.01079654 0.01062474
v 0.01164087 -0.01123611 0.01076922
v 0.01377674 -0.01123611 0.01067290
v 0.01590805 -0.01123611 0.01055732
v 0.01377674 -0.00954303 0.01007188
v 0.01590805 -0.00970727 0.00994281
v 0.01804393 -0.00987392 0.00981374
v 0.04790056 -0.01976673 0.01062474
v 0.05003644 -0.01976673 0.01043018
v 0.03297681 -0.01550384 0.01055924
v 0.05643494 -0.02189938 0.01051108
v 0.05822396 -0.02174481 0.01025488
v 0.05822396 -0.02084151 0.00978100
v 0.05643494 -0.02042609 0.00987346
v 0.05822396 -0.02047198 0.00944581
v 0.01377674 -0.01123611 -0.00874861
v 0.01159979 -0.01119505 -0.00875824
v 0.01159979 -0.00910346 -0.00865807
v 0.05003644 -0.01976673 -0.00866000
v 0.05430362 -0.02189938 -0.00876980
v 0.05822396 -0.02368666 -0.00874668
v 0.01159979 -0.01123611 0.01076922
v 0.02870962 -0.01763649 0.01083857
v 0.01804393 -0.01336877 0.01079041
v 0.05822396 -0.02403204 0.01085398
v 0.05216775 -0.02189938 0.01081352
v 0.04576925 -0.01976673 0.01075958
v 0.03937075 -0.01763649 0.01066519
v 0.05430362 -0.02189938 0.01069601
v 0.05216775 -0.02189938 -0.00878328
v 0.01159979 -0.01546278 -0.00877943
v 0.04363794 -0.02189938 -0.00881218
v 0.05822396 -0.02403204 -0.00875824
v 0.01159979 -0.01336877 0.01077885
v 0.01590805 -0.01336877 0.01079041
v 0.03084093 -0.01763649 0.01083086
v 0.01159979 -0.01340983 0.01077885
v 0.01159979 -0.01550384 0.01077500
v 0.05643494 -0.02616711 0.01086746
v 0.05822396 -0.02437983 0.01085976
v 0.01159979 -0.01550384 -0.00877943
v 0.05430362 -0.02616711 -0.00876209
v 0.04576925 -0.02403204 -0.00877943
v 0.01159979 -0.01763649 -0.00875439
v 0.05822396 -0.02616711 -0.00874090
v 0.01159979 -0.01763649 0.01069794
v 0.05430362 -0.02616711 0.01080582
v 0.05822396 -0.02829976 0.01051108
v 0.05822396 -0.02616711 0.01086168
v 0.05822396 -0.02795196 -0.00871393
v 0.05822396 -0.02829976 -0.00870623
v 0.05643494 -0.02829976 -0.00870430
v 0.01159979 -0.01956626 -0.00818611
v 0.05430362 -0.02829976 -0.00864266
v 0.01159979 -0.01767755 0.01069216
v 0.05643494 -0.02829976 0.01042440
v 0.05822396 -0.02993246 0.00984264
v 0.05822396 -0.03021504 -0.00816300
v 0.01159979 -0.01979330 -0.00811676
v 0.05822396 -0.03049280 -0.00806668
v 0.05643494 -0.03010153 -0.00807824
v 0.05430362 -0.02983827 -0.00799348
v 0.01159979 -0.01993821 0.01013930
v 0.05430362 -0.02829976 0.01026258
v 0.01159979 -0.02008312 0.01009114
v 0.01159979 -0.02035122 0.00999097
v 0.05822396 -0.03090339 0.00851923
v 0.05318548 -0.02937696 0.00958836
v 0.01159979 -0.02068452 -0.00641772
v 0.05216775 -0.02955085 -0.00772571
v 0.05102222 -0.02938903 -0.00752152
v 0.05822396 -0.03132122 -0.00665466
v 0.01159979 -0.02097676 0.00942077
v 0.05822396 -0.03096860 0.00812241
v 0.01159979 -0.02120138 0.00851346
v 0.01159979 -0.02116032 0.00637905
v 0.05822396 -0.03134779 -0.00641772
v 0.05822396 -0.03119804 0.00637905
v 0.05822396 -0.03120046 0.00624614
f 1 2 10
f 1 10 28
f 1 28 54
f 1 54 77
f 1 77 76
f 1 76 90
f 1 90 100
f 1 100 103
f 1 103 112
f 1 112 118
f 1 118 128
f 1 128 135
f 1 135 134
f 1 134 132
f 1 132 125
f 1 125 124
f 1 124 122
f 1 122 114
f 1 114 105
f 1 105 97
f 1 97 96
f 1 96 93
f 1 93 81
f 1 81 60
f 1 60 43
f 1 43 42
f 1 42 39
f 1 39 17
f 1 17 3
f 1 3 4
f 1 4 5
f 1 5 6
f 1 6 7
f 1 7 8
f 1 8 9
f 1 9 2
f 2 9 11
f 2 11 12
f 2 12 13
f 2 13 14
f 2 14 15
f 2 15 16
f 2 16 10
f 3 17 4
f 4 17 18
f 4 18 19
f 4 19 5
f 5 19 6
f 6 19 20
f 6 20 21
f 6 21 22
f 6 22 23
f 6 23 24
f 6 24 25
f 6 25 26
f 6 26 7
f 7 26 27
f 7 27 8
f 8 27 9
f 9 27 11
f 10 16 28
f 11 27 12
f 12 27 13
f 13 27 14
f 14 27 29
f 14 29 30
f 14 30 31
f 14 31 32
f 14 32 15
f 15 32 33
f 15 33 34
f 15 34 16
f 16 35 36
f 16 36 28
f 16 34 37
f 16 37 38
f 16 38 35
f 17 39 18
f 18 40 20
f 18 20 19
f 18 39 41
f 18 41 42
f 18 42 43
f 18 43 44
f 18 44 45
f 18 45 40
f 20 40 46
f 20 46 47
f 20 47 48
f 20 48 49
f 20 49 50
f 20 50 51
f 20 51 52
f 20 52 21
f 21 52 22
f 22 52 51
f 22 51 50
f 22 50 74
f 22 74 72
f 22 72 71
f 22 71 84
f 22 84 99
f 22 99 108
f 22 108 107
f 22 107 116
f 22 116 126
f 22 126 133
f 22 133 137
f 22 137 138
f 22 138 136
f 22 136 131
f 22 131 119
f 22 119 117
f 22 117 110
f 22 110 109
f 22 109 104
f 22 104 92
f 22 92 80
f 22 80 58
f 22 58 57
f 22 57 37
f 22 37 55
f 22 55 33
f 22 33 32
f 22 32 31
f 22 31 30
f 22 30 29
f 22 29 27
f 22 27 26
f 22 26 25
f 22 25 24
f 22 24 23
f 28 36 35
f 28 35 53
f 28 53 54
f 33 55 34
f 34 55 37
f 35 38 56
f 35 56 53
f 37 57 38
f 38 57 58
f 38 58 56
f 39 42 41
f 40 45 59
f 40 59 46
f 43 60 61
f 43 61 62
f 43 62 63
f 43 63 59
f 43 59 64
f 43 64 65
f 43 65 66
f 43 66 44
f 44 66 45
f 45 66 65
f 45 65 64
f 45 64 59
f 46 67 68
f 46 68 47
f 46 59 69
f 46 69 67
f 47 68 70
f 47 70 71
f 47 71 72
f 47 72 73
f 47 73 48
f 48 73 72
f 48 72 74
f 48 74 49
f 49 74 50
f 53 75 76
f 53 76 77
f 53 77 54
f 53 56 58
f 53 58 78
f 53 78 79
f 53 79 75
f 58 80 79
f 58 79 78
f 59 63 69
f 60 81 61
f 61 81 82
f 61 82 83
f 61 83 84
f 61 84 85
f 61 85 86
f 61 86 62
f 62 86 87
f 62 87 69
f 62 69 63
f 67 88 70
f 67 70 68
f 67 69 87
f 67 87 86
f 67 86 88
f 70 84 71
f 70 88 84
f 75 79 89
f 75 89 76
f 76 89 91
f 76 91 90
f 79 80 92
f 79 92 89
f 81 93 94
f 81 94 82
f 82 95 83
f 82 94 93
f 82 93 96
f 82 96 97
f 82 97 98
f 82 98 99
f 82 99 84
f 82 84 95
f 83 95 84
f 84 88 85
f 85 88 86
f 89 92 91
f 90 91 100
f 91 92 101
f 91 101 102
f 91 102 103
f 91 103 100
f 92 104 101
f 97 105 98
f 98 106 107
f 98 107 108
f 98 108 99
f 98 105 106
f 101 104 109
f 101 109 110
f 101 110 111
f 101 111 102
f 102 111 103
f 103 111 113
f 103 113 112
f 105 114 106
f 106 114 107
f 107 114 115
f 107 115 116
f 110 117 111
f 111 117 113
f 112 113 118
f 113 117 119
f 113 119 120
f 113 120 121
f 113 121 118
f 114 122 115
f 115 123 116
f 115 122 124
f 115 124 125
f 115 125 123
f 116 123 125
f 116 125 127
f 116 127 126
f 118 121 129
f 118 129 130
f 118 130 128
f 119 131 121
f 119 121 120
f 121 131 129
f 125 132 127
f 126 127 132
f 126 132 134
f 126 134 133
f 128 130 131
f 128 131 136
f 128 136 135
f 129 131 130
f 133 134 137
f 134 136 138
f 134 138 137
f 134 135 136

