# https://github.com/mikedh/trimesh
v 0.00502024 -0.03462038 0.00638091
v 0.00493391 -0.03462038 0.00091708
v 0.00472274 -0.03462038 0.00867506
v 0.01327744 -0.04501998 0.00638091
v 0.01342752 -0.04501998 0.00424861
v 0.01352315 -0.04501998 0.00091708
v 0.00280487 -0.03462038 0.00091708
v 0.00465500 -0.03462038 0.00885251
v 0.01295735 -0.04501998 0.00848104
v 0.00997562 -0.04501998 0.00091708
v 0.00280752 -0.03470080 0.00091708
v -0.00004404 -0.04501998 0.00723598
v -0.00004404 -0.03462038 0.00859219
v 0.00445046 -0.03513445 0.00987430
v 0.00345700 -0.03462038 0.01021457
v 0.01101823 -0.04393787 0.00988795
v 0.01155613 -0.04501998 0.01017070
v 0.00987070 -0.04492836 0.00091708
v 0.00321261 -0.03683447 0.00091708
v -0.00004404 -0.04501998 0.01051682
v 0.00390591 -0.03829729 0.00091708
v 0.00422467 -0.03876454 0.00091708
v 0.00466562 -0.03936311 0.00091708
v 0.00573214 -0.04070683 0.00091708
v 0.00612793 -0.04117510 0.00091708
v 0.00667513 -0.04177367 0.00091708
v 0.00727281 -0.04240990 0.00091708
v 0.00880285 -0.04394297 0.00091708
v 0.00940186 -0.04451507 0.00091708
v -0.00004404 -0.03462038 0.01082394
v 0.00328301 -0.03462038 0.01028867
v 0.00950014 -0.04501998 0.01068647
v -0.00004404 -0.04323242 0.01084831
v 0.00097466 -0.04501998 0.01079956
v 0.00097466 -0.03462038 0.01083759
v -0.00004404 -0.03465906 0.01082491
v 0.00737375 -0.04501998 0.01081321
v 0.00310769 -0.04501998 0.01086489
v 0.00097466 -0.04323242 0.01087756
v 0.00097466 -0.03470080 0.01083856
v 0.00345434 -0.04501998 0.01086586
f 1 2 7
f 1 7 13
f 1 13 30
f 1 30 35
f 1 35 31
f 1 31 15
f 1 15 8
f 1 8 3
f 1 3 4
f 1 4 5
f 1 5 6
f 1 6 2
f 2 6 10
f 2 10 18
f 2 18 29
f 2 29 28
f 2 28 27
f 2 27 26
f 2 26 25
f 2 25 24
f 2 24 23
f 2 23 22
f 2 22 21
f 2 21 19
f 2 19 11
f 2 11 7
f 3 8 9
f 3 9 4
f 4 9 17
f 4 17 32
f 4 32 37
f 4 37 41
f 4 41 38
f 4 38 34
f 4 34 20
f 4 20 12
f 4 12 10
f 4 10 6
f 4 6 5
f 7 11 12
f 7 12 13
f 8 14 9
f 8 15 14
f 9 16 17
f 9 14 16
f 10 12 18
f 11 19 12
f 12 20 33
f 12 33 36
f 12 36 30
f 12 30 13
f 12 19 21
f 12 21 22
f 12 22 23
f 12 23 24
f 12 24 25
f 12 25 26
f 12 26 27
f 12 27 28
f 12 28 29
f 12 29 18
f 14 15 17
f 14 17 16
f 15 31 17
f 17 31 32
f 20 34 33
f 30 36 35
f 31 35 32
f 32 35 37
f 33 34 38
f 33 38 39
f 33 39 36
f 35 36 40
f 35 40 37
f 36 39 40
f 37 40 41
f 38 41 39
f 39 41 40

