# https://github.com/mikedh/trimesh
v 0.05505143 0.10196182 0.00638025
v 0.05505143 0.10187718 0.00424709
v 0.05449032 0.10151908 0.00638025
v 0.05505143 0.10184463 0.00851341
v 0.05505143 0.10183812 0.00343084
v 0.05452496 0.10146048 0.00424709
v 0.05342352 0.10055546 0.00638025
v 0.05463579 0.10149955 0.00851341
v 0.04684261 0.09435050 -0.00641675
v 0.05505143 0.10132376 0.00975629
v 0.05505143 0.10172743 0.00139509
v 0.05459423 0.10139537 0.00211394
v 0.05239136 0.09931838 -0.00215043
v 0.05018848 0.09723486 -0.00641675
v 0.05232901 0.09937697 -0.00001727
v 0.05122757 0.09849148 0.00638025
v 0.04683568 0.09435701 -0.00532777
v 0.04680797 0.09437654 -0.00001727
v 0.04679412 0.09439608 0.00424709
v 0.04680104 0.09438306 0.00538283
v 0.05498216 0.10121958 0.00985759
v -0.01131880 0.03944346 0.00638025
v -0.01519807 0.03544573 0.00851341
v -0.01493484 0.03544573 0.00928096
v 0.04242301 0.09022905 -0.00428359
v 0.04468823 0.09223443 -0.00749989
v 0.01057832 0.06023300 -0.00748625
v 0.00394199 0.05406059 -0.00641675
v 0.05505143 0.10125213 0.00986344
v 0.05505143 0.10161023 -0.00061339
v 0.05246756 0.09925326 -0.00428359
v 0.05383916 0.10025595 -0.00641675
v 0.05505143 0.10101123 -0.00749989
v -0.00808376 0.04265988 0.00424709
v 0.04134235 0.08923938 -0.00215043
v 0.04238837 0.09025510 0.00211394
v 0.05428250 0.09965043 0.01014201
v 0.05505143 0.09966346 0.01033682
v -0.01305754 0.03690418 0.00972707
v -0.01425596 0.03544573 0.00999591
v -0.01406200 0.03544573 0.01006409
v -0.00920598 0.04159208 0.00424709
v -0.01027278 0.04055684 0.00424709
v -0.01238560 0.03840170 0.00638025
v -0.01527427 0.03544573 0.00792119
v 0.05505143 0.10092658 -0.00776093
v 0.05280006 0.09897329 -0.00785249
v 0.05052099 0.09696791 -0.00793821
v 0.04826963 0.09492347 -0.00794600
v 0.04576888 0.09275531 -0.00785444
v 0.00400434 0.05398898 -0.00770054
v 0.00619336 0.05607249 -0.00763820
v 0.00838238 0.05814948 -0.00756807
v -0.01564834 0.03544573 -0.00641675
v -0.01571069 0.03544573 -0.00428359
v -0.01467160 0.03642888 -0.00215043
v -0.01247565 0.03850588 -0.00001727
v 0.03578668 0.08404363 -0.00001727
v 0.03798955 0.08611412 -0.00001727
v 0.05505143 0.10136282 -0.00463425
v 0.05490596 0.10113494 -0.00641675
v 0.05474663 0.10126515 -0.00215043
v 0.05505143 0.10125213 -0.00641675
v 0.05430328 0.09755390 0.01073618
v 0.05505143 0.09830917 0.01071670
v -0.01207387 0.03544573 0.01058423
v -0.01358402 0.03743808 -0.00001727
v -0.01465081 0.03639633 -0.00001727
v -0.01457461 0.03632471 0.00424709
v -0.01539204 0.03544573 0.00638025
v 0.05505143 0.09968950 -0.00829081
v 0.05434485 0.09968950 -0.00812717
v 0.05212119 0.09763203 -0.00826743
v 0.04989753 0.09554851 -0.00834341
v 0.02009640 0.06778573 -0.00832977
v 0.00322156 0.05267376 -0.00802977
v 0.00183610 0.05189895 -0.00772586
v -0.01328615 0.03711904 -0.00775703
v -0.01467160 0.03544573 -0.00800639
v -0.01568298 0.03544573 -0.00215043
v 0.05430328 0.09541830 0.01083943
v 0.05505143 0.09617357 0.01083358
v 0.05505143 0.09755390 0.01076540
v -0.00542368 0.03996434 0.01081021
v 0.00311072 0.04636463 0.01100891
v -0.00994027 0.03544573 0.01076930
v -0.00755729 0.03782874 0.01080826
v -0.01561371 0.03544573 -0.00001727
v -0.01555137 0.03544573 0.00181588
v 0.05505143 0.09755390 -0.00875446
v 0.05430328 0.09755390 -0.00876420
v 0.05216968 0.09541830 -0.00889277
v 0.04576888 0.09115361 -0.00856354
v 0.00524432 0.05276491 -0.00864536
v 0.00311072 0.05062931 -0.00867264
v -0.01397887 0.03575174 -0.00813886
v -0.01397887 0.03544573 -0.00822458
v 0.05505143 0.09541830 0.01081605
v -0.00755729 0.03544573 0.01078293
v -0.00542368 0.03544573 0.01079462
v -0.00329009 0.03544573 0.01078488
v -0.00140587 0.03544573 0.01070696
v 0.05505143 0.09328921 0.01072449
v 0.05505143 0.09541830 -0.00876030
v 0.05505143 0.09466954 -0.00873497
v 0.05003608 0.08688893 -0.00866679
v 0.02870007 0.06556549 -0.00880316
v 0.00097712 0.03782874 -0.00883238
v 0.02017260 0.06556549 -0.00888303
v 0.02230620 0.06769458 -0.00886744
v 0.02443287 0.06982366 -0.00884212
v -0.01182449 0.03569965 -0.00862978
v -0.01182449 0.03544573 -0.00864147
v -0.00115649 0.03544573 0.01069137
v 0.05505143 0.09190888 0.01051215
v 0.00072773 0.03544573 0.01043228
v 0.05505143 0.09328921 -0.00867848
v 0.05430328 0.09115361 -0.00862978
v 0.05216968 0.08902452 -0.00864926
v 0.05505143 0.09115361 -0.00858692
v 0.05430328 0.08902452 -0.00851094
v 0.00117801 0.03544573 -0.00826159
v -0.00115649 0.03544573 -0.00875446
v -0.00755729 0.03544573 -0.00871939
v -0.00969088 0.03544573 -0.00870381
v -0.00969088 0.03569965 -0.00870575
v 0.00311072 0.04209994 -0.00883433
v 0.01804592 0.06342989 -0.00887329
v 0.05505143 0.09109501 0.01030370
v 0.00097712 0.03544573 0.01038552
v 0.05505143 0.08901801 -0.00833756
v 0.00249419 0.03607729 -0.00789730
v 0.00251497 0.03544573 -0.00641675
v 0.05422708 0.08692799 -0.00797912
v 0.05505143 0.08733818 -0.00784275
v 0.05505143 0.08978631 0.00990045
v 0.00220325 0.03544573 0.00992772
v 0.05347201 0.08561277 -0.00768690
v 0.00254961 0.03544573 -0.00208615
v 0.05505143 0.08680428 -0.00641675
v 0.05505143 0.08940867 0.00975045
v 0.00235565 0.03544573 0.00986928
v 0.00262581 0.03544573 0.00851341
v 0.05505143 0.08681079 -0.00570180
v 0.05505143 0.08876409 0.00939784
v 0.00261195 0.03544573 0.00866146
v 0.05505143 0.08707123 0.00705429
v 0.05505143 0.08750747 0.00807898
v 0.05505143 0.08794370 0.00856796
v 0.05505143 0.08850365 0.00914459
v 0.05505143 0.08682381 -0.00428359
v 0.05505143 0.08691497 0.00504971
v 0.05505143 0.08695403 0.00638025
f 1 2 3
f 1 3 4
f 1 4 10
f 1 10 29
f 1 29 38
f 1 38 65
f 1 65 83
f 1 83 82
f 1 82 98
f 1 98 103
f 1 103 115
f 1 115 129
f 1 129 136
f 1 136 141
f 1 141 145
f 1 145 150
f 1 150 149
f 1 149 148
f 1 148 147
f 1 147 153
f 1 153 152
f 1 152 151
f 1 151 144
f 1 144 140
f 1 140 135
f 1 135 131
f 1 131 120
f 1 120 117
f 1 117 105
f 1 105 104
f 1 104 90
f 1 90 71
f 1 71 46
f 1 46 33
f 1 33 63
f 1 63 60
f 1 60 30
f 1 30 11
f 1 11 5
f 1 5 2
f 2 5 6
f 2 6 3
f 3 7 8
f 3 8 4
f 3 6 9
f 3 9 7
f 4 8 10
f 5 11 6
f 6 11 12
f 6 12 13
f 6 13 14
f 6 14 15
f 6 15 9
f 7 16 8
f 7 9 17
f 7 17 18
f 7 18 19
f 7 19 20
f 7 20 16
f 8 21 10
f 8 16 22
f 8 22 23
f 8 23 24
f 8 24 21
f 9 25 17
f 9 15 14
f 9 14 26
f 9 26 27
f 9 27 28
f 9 28 25
f 10 21 29
f 11 30 12
f 12 30 13
f 13 31 14
f 13 30 31
f 14 31 32
f 14 32 33
f 14 33 26
f 16 20 34
f 16 34 22
f 17 25 35
f 17 35 18
f 18 35 36
f 18 36 19
f 19 36 28
f 19 28 34
f 19 34 20
f 21 37 38
f 21 38 29
f 21 24 39
f 21 39 40
f 21 40 41
f 21 41 37
f 22 34 42
f 22 42 43
f 22 43 44
f 22 44 45
f 22 45 23
f 23 45 70
f 23 70 89
f 23 89 88
f 23 88 80
f 23 80 55
f 23 55 54
f 23 54 79
f 23 79 97
f 23 97 113
f 23 113 125
f 23 125 124
f 23 124 123
f 23 123 122
f 23 122 133
f 23 133 139
f 23 139 143
f 23 143 146
f 23 146 142
f 23 142 137
f 23 137 130
f 23 130 116
f 23 116 114
f 23 114 102
f 23 102 101
f 23 101 100
f 23 100 99
f 23 99 86
f 23 86 66
f 23 66 41
f 23 41 40
f 23 40 24
f 24 40 39
f 25 28 35
f 26 33 46
f 26 46 47
f 26 47 48
f 26 48 49
f 26 49 50
f 26 50 51
f 26 51 52
f 26 52 53
f 26 53 27
f 27 53 28
f 28 53 52
f 28 52 51
f 28 51 54
f 28 54 55
f 28 55 56
f 28 56 57
f 28 57 34
f 28 36 58
f 28 58 59
f 28 59 35
f 30 60 61
f 30 61 62
f 30 62 31
f 31 62 32
f 32 62 61
f 32 61 33
f 33 61 63
f 34 57 42
f 35 59 36
f 36 59 58
f 37 64 38
f 37 41 64
f 38 64 65
f 41 66 64
f 42 57 56
f 42 56 67
f 42 67 43
f 43 67 68
f 43 68 69
f 43 69 70
f 43 70 44
f 44 70 45
f 46 71 72
f 46 72 47
f 47 72 73
f 47 73 48
f 48 73 74
f 48 74 49
f 49 74 75
f 49 75 76
f 49 76 50
f 50 76 51
f 51 76 77
f 51 77 54
f 54 78 79
f 54 77 78
f 55 80 56
f 56 80 67
f 60 63 61
f 64 81 82
f 64 82 83
f 64 83 65
f 64 66 84
f 64 84 85
f 64 85 81
f 66 86 87
f 66 87 84
f 67 80 68
f 68 80 88
f 68 88 89
f 68 89 70
f 68 70 69
f 71 90 91
f 71 91 73
f 71 73 72
f 73 91 92
f 73 92 74
f 74 92 93
f 74 93 75
f 75 94 76
f 75 93 94
f 76 94 95
f 76 95 96
f 76 96 79
f 76 79 77
f 77 79 78
f 79 96 97
f 81 98 82
f 81 85 98
f 84 87 85
f 85 87 86
f 85 86 99
f 85 99 100
f 85 100 101
f 85 101 102
f 85 102 103
f 85 103 98
f 90 104 92
f 90 92 91
f 92 104 105
f 92 105 106
f 92 106 107
f 92 107 108
f 92 108 109
f 92 109 110
f 92 110 111
f 92 111 93
f 93 111 94
f 94 111 95
f 95 112 97
f 95 97 96
f 95 111 110
f 95 110 109
f 95 109 112
f 97 112 113
f 102 114 103
f 103 114 116
f 103 116 115
f 105 117 118
f 105 118 119
f 105 119 106
f 106 119 120
f 106 120 121
f 106 121 107
f 107 121 108
f 108 122 123
f 108 123 124
f 108 124 125
f 108 125 126
f 108 126 127
f 108 127 109
f 108 121 122
f 109 127 128
f 109 128 112
f 112 128 113
f 113 126 125
f 113 128 126
f 115 116 130
f 115 130 129
f 117 120 118
f 118 120 119
f 120 131 121
f 121 131 122
f 122 132 133
f 122 131 134
f 122 134 135
f 122 135 132
f 126 128 127
f 129 130 136
f 130 137 136
f 131 135 134
f 132 135 138
f 132 138 133
f 133 138 140
f 133 140 139
f 135 140 138
f 136 137 142
f 136 142 141
f 139 140 143
f 140 144 143
f 141 142 145
f 142 146 147
f 142 147 148
f 142 148 149
f 142 149 150
f 142 150 145
f 143 144 151
f 143 151 152
f 143 152 153
f 143 153 146
f 146 153 147

