# https://github.com/mikedh/trimesh
v -0.00751393 -0.00065032 -0.00872942
v -0.00751393 -0.00065032 -0.00778983
v -0.00751393 -0.00056905 -0.00873060
v 0.01011813 0.01801603 -0.00890499
v 0.00097500 0.00583326 -0.00876618
v -0.00542363 -0.00056905 -0.00870825
v -0.00542363 -0.00065032 -0.00870590
v -0.00550476 -0.00065032 -0.00674202
v -0.00751393 -0.00064679 -0.00674584
v -0.00751393 0.01009793 -0.00876089
v 0.00950709 0.01862728 -0.00891558
v 0.01011813 0.01223204 -0.00864737
v 0.00950709 0.01223204 -0.00868061
v 0.00524018 0.00796383 -0.00871854
v 0.00310673 0.00583326 -0.00871560
v 0.01011813 0.01862728 -0.00890117
v 0.01011813 0.00747270 -0.00801481
v 0.01011813 0.00657525 -0.00773013
v 0.00000494 0.00034960 -0.00757721
v -0.00358879 -0.00065032 -0.00808274
v 0.00737364 0.00796383 -0.00855033
v 0.00950709 0.00796383 -0.00827389
v 0.01011813 0.00793556 -0.00816008
v -0.00335232 -0.00065032 -0.00660616
v -0.00249617 -0.00036766 -0.00591153
v -0.00283794 -0.00026873 -0.00591153
v -0.00298121 0.00128592 -0.00591153
v -0.00751393 -0.00056905 -0.00674526
v -0.00751393 0.01223204 -0.00876030
v -0.00751393 0.03544572 -0.00872090
v -0.00115845 0.03544572 -0.00875530
v 0.01011813 0.01009793 -0.00848534
v 0.00950709 0.01009793 -0.00854062
v 0.01011813 0.02020313 -0.00842034
v 0.00117351 0.03544572 -0.00826242
v 0.01011813 0.00611945 -0.00641824
v 0.00008607 0.00019413 -0.00641824
v -0.00312792 -0.00065032 -0.00665291
v -0.00123440 -0.00016626 -0.00591153
v -0.00147778 0.03355895 -0.00591153
v -0.00751393 0.03544572 -0.00658116
v -0.00751393 0.03147078 -0.00657675
v -0.00751393 0.03142838 -0.00657675
v 0.01011813 0.02065539 -0.00819831
v 0.00250950 0.03544572 -0.00641824
v 0.01011813 0.00608059 -0.00591153
v 0.00008952 0.00018353 -0.00591153
v -0.00147605 0.03357308 -0.00591153
v -0.00121196 0.03544572 -0.00591153
v 0.01011813 0.02129845 -0.00662704
v 0.01011813 0.02135145 -0.00641824
v 0.00250778 0.03544572 -0.00591153
v 0.01011813 0.02130198 -0.00591153
f 1 2 9
f 1 9 28
f 1 28 43
f 1 43 42
f 1 42 41
f 1 41 30
f 1 30 29
f 1 29 10
f 1 10 3
f 1 3 4
f 1 4 5
f 1 5 6
f 1 6 7
f 1 7 20
f 1 20 38
f 1 38 24
f 1 24 8
f 1 8 2
f 2 8 9
f 3 10 11
f 3 11 4
f 4 12 13
f 4 13 14
f 4 14 15
f 4 15 5
f 4 11 16
f 4 16 34
f 4 34 44
f 4 44 50
f 4 50 51
f 4 51 53
f 4 53 46
f 4 46 36
f 4 36 18
f 4 18 17
f 4 17 23
f 4 23 32
f 4 32 12
f 5 15 7
f 5 7 6
f 7 17 18
f 7 18 19
f 7 19 20
f 7 15 21
f 7 21 22
f 7 22 23
f 7 23 17
f 8 24 9
f 9 24 25
f 9 25 26
f 9 26 27
f 9 27 28
f 10 29 11
f 11 30 31
f 11 31 16
f 11 29 30
f 12 32 33
f 12 33 14
f 12 14 13
f 14 33 21
f 14 21 15
f 16 31 35
f 16 35 34
f 18 36 19
f 19 37 20
f 19 36 37
f 20 37 38
f 21 33 32
f 21 32 22
f 22 32 23
f 24 38 25
f 25 39 47
f 25 47 46
f 25 46 53
f 25 53 52
f 25 52 49
f 25 49 48
f 25 48 40
f 25 40 27
f 25 27 26
f 25 38 39
f 27 40 41
f 27 41 42
f 27 42 43
f 27 43 28
f 30 41 49
f 30 49 52
f 30 52 45
f 30 45 35
f 30 35 31
f 34 35 44
f 35 45 44
f 36 46 37
f 37 47 38
f 37 46 47
f 38 47 39
f 40 48 41
f 41 48 49
f 44 45 50
f 45 51 50
f 45 52 51
f 51 52 53

