# https://github.com/mikedh/trimesh
v 0.01159873 -0.01765475 0.00791938
v 0.01159873 -0.01798858 -0.00305849
v 0.01153816 -0.01767136 0.00791938
v 0.01159873 -0.02118739 0.00791938
v 0.01092288 -0.01832241 -0.00305849
v 0.00906005 -0.01874427 0.00791938
v 0.01014715 -0.01826595 0.00791938
v 0.01151691 -0.01767966 0.00791938
v 0.01159873 -0.02069245 -0.00305849
v 0.01159873 -0.02116414 0.00638059
v 0.00481263 -0.03462038 0.00791938
v 0.00501985 -0.03462038 0.00638059
v 0.01040325 -0.01858649 -0.00305849
v 0.00716641 -0.01969760 0.00791938
v 0.00492102 -0.03462038 -0.00305849
v 0.00211030 -0.03462038 0.00791938
v 0.00933634 -0.01932723 -0.00305849
v 0.00587847 -0.02039848 0.00791938
v 0.00256087 -0.03462038 -0.00305849
v 0.00122617 -0.03241808 0.00791938
v 0.00845540 -0.01994008 -0.00305849
v 0.00530358 -0.02224701 -0.00305849
v 0.00423667 -0.02303094 -0.00305849
v 0.00172669 -0.02485622 0.00791938
v 0.00250773 -0.03256590 -0.00305849
v 0.00080643 -0.03043336 0.00791938
v 0.00074373 -0.02829916 0.00791938
v 0.00345137 -0.02409721 -0.00305849
v 0.00114860 -0.02611514 0.00791938
v 0.00249073 -0.03153285 -0.00305849
v 0.00111035 -0.02626794 0.00791938
v 0.00261400 -0.02624469 -0.00305849
v 0.00257681 -0.02713325 -0.00305849
v 0.00253536 -0.02829916 -0.00305849
v 0.00251305 -0.02934716 -0.00305849
v 0.00249605 -0.03043336 -0.00305849
v 0.00306988 -0.02497746 -0.00305849
f 1 2 3
f 1 3 8
f 1 8 7
f 1 7 6
f 1 6 14
f 1 14 18
f 1 18 24
f 1 24 29
f 1 29 31
f 1 31 27
f 1 27 26
f 1 26 20
f 1 20 16
f 1 16 11
f 1 11 4
f 1 4 10
f 1 10 9
f 1 9 2
f 2 5 6
f 2 6 7
f 2 7 8
f 2 8 3
f 2 9 15
f 2 15 19
f 2 19 25
f 2 25 30
f 2 30 36
f 2 36 35
f 2 35 34
f 2 34 33
f 2 33 32
f 2 32 37
f 2 37 28
f 2 28 23
f 2 23 22
f 2 22 21
f 2 21 17
f 2 17 13
f 2 13 5
f 4 11 12
f 4 12 10
f 5 13 14
f 5 14 6
f 9 10 15
f 10 12 15
f 11 16 19
f 11 19 15
f 11 15 12
f 13 17 18
f 13 18 14
f 16 20 19
f 17 21 18
f 18 21 22
f 18 22 23
f 18 23 24
f 19 20 26
f 19 26 27
f 19 27 25
f 23 28 24
f 24 28 29
f 25 27 30
f 27 31 32
f 27 32 33
f 27 33 34
f 27 34 35
f 27 35 36
f 27 36 30
f 28 37 29
f 29 37 32
f 29 32 31

