# https://github.com/mikedh/trimesh
v 0.05283705 -0.07846519 0.00078702
v 0.05283705 -0.07842796 0.00007414
v 0.05323234 -0.07828899 0.00078702
v 0.05283705 -0.07012178 0.00078702
v 0.05283705 -0.07838825 -0.00048228
v 0.05320275 -0.07826417 0.00007414
v 0.05363502 -0.07808549 0.00078702
v 0.05621714 -0.07675779 -0.00125699
v 0.05624426 -0.07677516 0.00007414
v 0.05283705 -0.06989098 0.00007414
v 0.06123179 -0.05311483 0.00078702
v 0.05563201 -0.06376868 -0.00002150
v 0.05567639 -0.06281571 -0.00125699
v 0.05525234 -0.06373890 -0.00125699
v 0.05283705 -0.07832621 -0.00125699
v 0.05288225 -0.07830636 -0.00125699
v 0.05308934 -0.07821206 -0.00125699
v 0.05524330 -0.07721194 -0.00125699
v 0.05617687 -0.07674290 0.00078702
v 0.05688280 -0.07605548 -0.00125699
v 0.06123179 -0.07287148 -0.00058032
v 0.06123179 -0.07291615 -0.00054851
v 0.06123179 -0.07382196 0.00017958
v 0.06123179 -0.07384182 0.00022180
v 0.06123179 -0.07395101 0.00075941
v 0.06123179 -0.07395597 0.00078702
v 0.05283705 -0.06981901 -0.00055631
v 0.06123179 -0.05440282 0.00031783
v 0.05614153 -0.06281571 -0.00125699
v 0.05283705 -0.06976442 -0.00125699
v 0.05697648 -0.07595621 -0.00125699
v 0.05961941 -0.07245704 -0.00125699
v 0.06013222 -0.07173735 -0.00125699
v 0.06035904 -0.07124350 -0.00125699
v 0.06123179 -0.07117897 -0.00079901
v 0.05756079 -0.07519681 -0.00125699
v 0.06123179 -0.06006849 -0.00037804
v 0.06123179 -0.06069636 -0.00043986
v 0.06123179 -0.06221515 -0.00057912
v 0.06123179 -0.06373393 -0.00069256
v 0.05977966 -0.06990587 -0.00125699
v 0.06123179 -0.06525272 -0.00075559
v 0.06123179 -0.06670450 -0.00077900
v 0.06123179 -0.06980909 -0.00082342
f 1 2 3
f 1 3 7
f 1 7 19
f 1 19 26
f 1 26 11
f 1 11 4
f 1 4 10
f 1 10 27
f 1 27 30
f 1 30 15
f 1 15 5
f 1 5 2
f 2 5 6
f 2 6 3
f 3 6 8
f 3 8 9
f 3 9 7
f 4 11 12
f 4 12 13
f 4 13 14
f 4 14 10
f 5 15 16
f 5 16 17
f 5 17 6
f 6 17 18
f 6 18 8
f 7 9 19
f 8 18 17
f 8 17 16
f 8 16 15
f 8 15 30
f 8 30 14
f 8 14 13
f 8 13 29
f 8 29 41
f 8 41 34
f 8 34 33
f 8 33 32
f 8 32 36
f 8 36 31
f 8 31 20
f 8 20 21
f 8 21 22
f 8 22 23
f 8 23 24
f 8 24 25
f 8 25 26
f 8 26 9
f 9 26 19
f 10 14 27
f 11 28 13
f 11 13 12
f 11 26 25
f 11 25 24
f 11 24 23
f 11 23 22
f 11 22 21
f 11 21 35
f 11 35 44
f 11 44 43
f 11 43 42
f 11 42 40
f 11 40 39
f 11 39 38
f 11 38 37
f 11 37 28
f 13 28 29
f 14 30 27
f 20 31 21
f 21 32 33
f 21 33 34
f 21 34 35
f 21 31 36
f 21 36 32
f 28 37 29
f 29 37 38
f 29 38 39
f 29 39 40
f 29 40 41
f 34 41 40
f 34 40 42
f 34 42 43
f 34 43 44
f 34 44 35

