# https://github.com/mikedh/trimesh
v 0.04860989 -0.03361719 -0.01232135
v 0.04857025 -0.03361719 -0.01266551
v 0.04685686 -0.03361719 -0.01232135
v 0.04870058 -0.03483596 -0.01232135
v 0.05047342 -0.03985085 -0.01522111
v 0.05047342 -0.03990218 -0.01628045
v 0.04847955 -0.03361719 -0.01298973
v 0.04698415 -0.03387711 -0.01232135
v 0.04682714 -0.03361719 -0.01236557
v 0.04403755 -0.04477400 -0.01760853
v 0.04479668 -0.04477400 -0.01698783
v 0.04866934 -0.03563537 -0.01232135
v 0.05047342 -0.04090144 -0.01523498
v 0.05047342 -0.04070050 -0.01661680
v 0.04586907 -0.03362374 -0.02117752
v 0.04589041 -0.03361719 -0.02092959
v 0.04786904 -0.03543115 -0.01232135
v 0.04683628 -0.04477400 -0.01584353
v 0.04672805 -0.03361719 -0.01251380
v 0.04355509 -0.04477400 -0.01836792
v 0.04841477 -0.03563537 -0.01232135
v 0.04843916 -0.03718942 -0.01281548
v 0.04863961 -0.03640093 -0.01258662
v 0.04703979 -0.04477400 -0.01583920
v 0.04852604 -0.04343291 -0.01577158
v 0.04852604 -0.04343291 -0.01611140
v 0.05047342 -0.04085339 -0.01661073
v 0.04441178 -0.03361719 -0.02117752
v 0.04435309 -0.04477400 -0.02117752
v 0.04814724 -0.03640093 -0.01258662
v 0.04692393 -0.04477400 -0.01583920
v 0.04838733 -0.03718942 -0.01281548
v 0.04666784 -0.03361719 -0.01263083
v 0.04318009 -0.04477400 -0.01907271
v 0.04739801 -0.04477400 -0.01665841
v 0.04712820 -0.04477400 -0.01753224
v 0.04437139 -0.03361719 -0.02117752
v 0.04269458 -0.04477400 -0.02117752
v 0.04559317 -0.03361719 -0.01472698
v 0.04287827 -0.04477400 -0.01973588
v 0.04516787 -0.03361719 -0.01556873
v 0.04384776 -0.03404857 -0.01898688
v 0.04406804 -0.03361719 -0.01941513
v 0.04390416 -0.03563865 -0.02117752
v 0.04381804 -0.03539512 -0.02067732
v 0.04268772 -0.04477400 -0.02113504
v 0.04309244 -0.04095495 -0.02117752
v 0.04278376 -0.04477400 -0.02033577
v 0.04462748 -0.03361719 -0.01687340
v 0.04384776 -0.03404857 -0.01888459
v 0.04328680 -0.03943585 -0.02117752
v 0.04406804 -0.03361719 -0.01938912
v 0.04374335 -0.03638455 -0.02117752
v 0.04409547 -0.03361719 -0.01843814
f 1 2 7
f 1 7 16
f 1 16 28
f 1 28 37
f 1 37 43
f 1 43 52
f 1 52 54
f 1 54 49
f 1 49 41
f 1 41 39
f 1 39 33
f 1 33 19
f 1 19 9
f 1 9 3
f 1 3 8
f 1 8 17
f 1 17 21
f 1 21 12
f 1 12 4
f 1 4 5
f 1 5 6
f 1 6 2
f 2 6 7
f 3 9 10
f 3 10 11
f 3 11 8
f 4 12 13
f 4 13 5
f 5 13 27
f 5 27 14
f 5 14 6
f 6 14 15
f 6 15 7
f 7 15 16
f 8 11 18
f 8 18 17
f 9 19 10
f 10 20 34
f 10 34 40
f 10 40 48
f 10 48 46
f 10 46 38
f 10 38 29
f 10 29 36
f 10 36 35
f 10 35 24
f 10 24 31
f 10 31 18
f 10 18 11
f 10 19 20
f 12 21 32
f 12 32 22
f 12 22 23
f 12 23 13
f 13 24 25
f 13 25 26
f 13 26 27
f 13 23 22
f 13 22 24
f 14 27 15
f 15 28 16
f 15 27 29
f 15 29 38
f 15 38 47
f 15 47 51
f 15 51 53
f 15 53 44
f 15 44 37
f 15 37 28
f 17 30 21
f 17 18 30
f 18 31 32
f 18 32 30
f 19 33 34
f 19 34 20
f 21 30 32
f 22 32 31
f 22 31 24
f 24 35 25
f 25 35 26
f 26 35 27
f 27 35 36
f 27 36 29
f 33 39 34
f 34 39 41
f 34 41 40
f 37 42 43
f 37 44 45
f 37 45 42
f 38 46 47
f 40 41 49
f 40 49 50
f 40 50 48
f 42 50 52
f 42 52 43
f 42 45 51
f 42 51 47
f 42 47 50
f 44 53 45
f 45 53 51
f 46 48 50
f 46 50 47
f 49 54 50
f 50 54 52

