# https://github.com/mikedh/trimesh
v 0.04199751 -0.06865633 -0.01652428
v 0.04074610 -0.06618148 -0.01604134
v 0.04060268 -0.06530707 -0.01652428
v 0.04395381 -0.06865633 -0.01652428
v 0.04064890 -0.06865633 -0.01330299
v 0.04074814 -0.06769569 -0.01451966
v 0.04057141 -0.06823536 -0.01353852
v 0.04057685 -0.06672022 -0.01505852
v 0.04013366 -0.06828729 -0.01207276
v 0.04057277 -0.06520600 -0.01652428
v 0.04420395 -0.05918438 -0.01652428
v 0.04546487 -0.05918438 -0.01310134
v 0.04580474 -0.05918438 -0.01207276
v 0.04692496 -0.05997348 -0.00836005
v 0.04692496 -0.05997348 -0.00820754
v 0.04244886 -0.06789876 -0.00296297
v 0.04217968 -0.06865633 -0.00431012
v 0.04024377 -0.06865633 -0.01205920
v 0.04001470 -0.06865633 -0.01055446
v 0.03998072 -0.06828729 -0.01055446
v 0.04018396 -0.06676843 -0.01359106
v 0.04025057 -0.06525051 -0.01510935
v 0.04034641 -0.06373258 -0.01652428
v 0.04194109 -0.05918438 -0.01652428
v 0.04625745 -0.05918438 -0.01055446
v 0.04692496 -0.05985015 -0.00836005
v 0.04692496 -0.05985015 -0.00820754
v 0.04551109 -0.06163883 -0.00495235
v 0.04242982 -0.06650973 0.00078702
v 0.04153732 -0.06865633 -0.00335610
v 0.04002830 -0.06865633 -0.00903616
v 0.04007996 -0.06676843 -0.01207276
v 0.04006840 -0.06828729 -0.00903616
v 0.04021659 -0.06525051 -0.01359106
v 0.04036341 -0.06373258 -0.01510935
v 0.04058705 -0.06207279 -0.01652428
v 0.04189963 -0.05922703 -0.01652428
v 0.04234962 -0.06299449 -0.00223941
v 0.04295255 -0.05918438 -0.01344702
v 0.04626017 -0.05918438 -0.01054429
v 0.04625473 -0.05918438 -0.00998001
v 0.04624182 -0.05918438 -0.00894127
v 0.04623774 -0.05918438 -0.00893280
v 0.04607596 -0.05960813 -0.00762970
v 0.04553217 -0.05985293 -0.00660113
v 0.04551109 -0.06122620 -0.00495235
v 0.04408840 -0.06337930 -0.00181069
v 0.04265686 -0.06517633 0.00078702
v 0.04214569 -0.06651158 0.00078702
v 0.04137147 -0.06865633 -0.00335610
v 0.04016560 -0.06865633 -0.00751956
v 0.04023562 -0.06828729 -0.00751956
v 0.04021183 -0.06676843 -0.01055446
v 0.04058977 -0.06207001 -0.01648870
v 0.04217968 -0.06426298 0.00078702
v 0.04060336 -0.06199768 -0.01652428
v 0.04188739 -0.05924650 -0.01652428
v 0.04498905 -0.05959144 -0.00751956
v 0.04461656 -0.05918438 -0.00907175
v 0.04298042 -0.05918438 -0.01336568
v 0.04099285 -0.06067912 -0.01652428
v 0.04523852 -0.05985293 -0.00660113
v 0.04408840 -0.06270704 -0.00181069
v 0.04265414 -0.06479337 0.00078702
v 0.04200227 -0.06517633 0.00078702
v 0.04074338 -0.06865633 -0.00362214
v 0.04083039 -0.06865633 -0.00356622
v 0.04035457 -0.06865633 -0.00600126
v 0.04050480 -0.06865633 -0.00490999
v 0.04256305 -0.06426298 0.00078702
v 0.04336243 -0.06270704 -0.00181069
v 0.04097518 -0.06073290 -0.01652428
v 0.04083175 -0.06146729 -0.01589053
v 0.04072571 -0.06865633 -0.00369331
f 1 2 3
f 1 3 10
f 1 10 23
f 1 23 36
f 1 36 56
f 1 56 72
f 1 72 61
f 1 61 57
f 1 57 37
f 1 37 24
f 1 24 11
f 1 11 4
f 1 4 17
f 1 17 30
f 1 30 50
f 1 50 67
f 1 67 66
f 1 66 74
f 1 74 69
f 1 69 68
f 1 68 51
f 1 51 31
f 1 31 19
f 1 19 18
f 1 18 5
f 1 5 6
f 1 6 2
f 2 6 7
f 2 7 8
f 2 8 3
f 3 8 9
f 3 9 10
f 4 11 12
f 4 12 13
f 4 13 14
f 4 14 15
f 4 15 16
f 4 16 17
f 5 18 7
f 5 7 6
f 7 18 9
f 7 9 8
f 9 18 19
f 9 19 20
f 9 20 21
f 9 21 10
f 10 22 23
f 10 21 22
f 11 24 39
f 11 39 60
f 11 60 59
f 11 59 43
f 11 43 42
f 11 42 41
f 11 41 40
f 11 40 25
f 11 25 13
f 11 13 12
f 13 25 26
f 13 26 14
f 14 26 27
f 14 27 15
f 15 27 46
f 15 46 28
f 15 28 29
f 15 29 16
f 16 29 17
f 17 29 30
f 19 31 20
f 20 32 22
f 20 22 21
f 20 31 33
f 20 33 32
f 22 32 23
f 23 32 34
f 23 34 35
f 23 35 36
f 24 37 38
f 24 38 39
f 25 40 26
f 26 40 27
f 27 40 41
f 27 41 42
f 27 42 43
f 27 43 44
f 27 44 45
f 27 45 46
f 28 46 63
f 28 63 47
f 28 47 29
f 29 47 48
f 29 48 64
f 29 64 70
f 29 70 55
f 29 55 65
f 29 65 49
f 29 49 30
f 30 49 50
f 31 51 33
f 32 33 34
f 33 51 52
f 33 52 53
f 33 53 34
f 34 53 35
f 35 54 36
f 35 53 55
f 35 55 54
f 36 54 56
f 37 57 38
f 38 55 58
f 38 58 59
f 38 59 60
f 38 60 39
f 38 57 61
f 38 61 55
f 43 59 58
f 43 58 62
f 43 62 45
f 43 45 44
f 45 62 71
f 45 71 63
f 45 63 46
f 47 63 48
f 48 63 64
f 49 65 66
f 49 66 67
f 49 67 50
f 51 68 52
f 52 68 55
f 52 55 53
f 54 55 56
f 55 68 69
f 55 69 65
f 55 70 63
f 55 63 71
f 55 71 62
f 55 62 58
f 55 61 72
f 55 72 73
f 55 73 56
f 56 73 72
f 63 70 64
f 65 69 74
f 65 74 66

