# https://github.com/mikedh/trimesh
v 0.04810437 -0.04702937 0.03491993
v 0.04810437 -0.04505781 0.03471128
v 0.04765084 -0.04551154 0.03463677
v 0.04765084 -0.04702937 0.03478207
v 0.04810437 -0.04853460 0.03489881
v 0.04810437 -0.04469231 0.03465788
v 0.04762633 -0.04469231 0.03451133
v 0.04684390 -0.04469231 0.03425426
v 0.04668524 -0.04551154 0.03431387
v 0.04592597 -0.04551154 0.03401457
v 0.04662532 -0.04702937 0.03436106
v 0.04677036 -0.04807907 0.03431635
v 0.04755279 -0.04857061 0.03463180
v 0.04810437 -0.05007044 0.03463553
v 0.04810437 -0.04469231 0.03298874
v 0.04681462 -0.04469231 0.03424308
v 0.04461443 -0.04469231 0.03336256
v 0.04461443 -0.04551154 0.03341720
v 0.04586604 -0.04702937 0.03395247
v 0.04794434 -0.05006684 0.03453866
v 0.04380000 -0.04643881 0.03277140
v 0.04454702 -0.04697896 0.03312908
v 0.04497466 -0.04854901 0.03300489
v 0.04520687 -0.04973555 0.03284219
v 0.04683574 -0.05400997 0.03276023
v 0.04810437 -0.05646047 0.03292044
v 0.04810437 -0.05083026 0.03443558
v 0.04611528 -0.04469231 0.02223247
v 0.04810437 -0.06308636 0.02828559
v 0.04372033 -0.04469231 0.03286579
v 0.04370126 -0.04551154 0.03288318
v 0.04233117 -0.05236610 0.02969020
v 0.04376323 -0.05105712 0.03127613
v 0.04492767 -0.05310431 0.03156053
v 0.04659059 -0.05765781 0.03144503
v 0.04795251 -0.06069528 0.03156426
v 0.04810437 -0.06037118 0.03176793
v 0.04810437 -0.05738593 0.03264845
v 0.04609893 -0.04489216 0.02223247
v 0.04450752 -0.04469231 0.02223247
v 0.04810437 -0.06308636 0.03073590
v 0.04305912 -0.06308636 0.02223247
v 0.04603084 -0.04551154 0.02223247
v 0.04606761 -0.04517845 0.02223247
v 0.04359639 -0.04469231 0.03244105
v 0.04232572 -0.05077624 0.02970386
v 0.04232436 -0.05158467 0.02970386
v 0.04134104 -0.05765781 0.02588868
v 0.04174758 -0.05613817 0.02740755
v 0.04206423 -0.05462034 0.02854142
v 0.04189875 -0.05756238 0.02747834
v 0.04217523 -0.05613817 0.02833278
v 0.04230120 -0.05699342 0.02819617
v 0.04373803 -0.05567364 0.02977838
v 0.04519121 -0.05917564 0.02983054
v 0.04583131 -0.05765781 0.03083277
v 0.04679147 -0.05866970 0.03128234
v 0.04535191 -0.05997687 0.02970013
v 0.04810437 -0.06140468 0.03144503
v 0.04810437 -0.06070968 0.03166485
v 0.04378093 -0.04469231 0.02769071
v 0.04172647 -0.05613817 0.02223247
v 0.04810437 -0.06262903 0.03096068
v 0.04667162 -0.06221311 0.02987525
v 0.04688749 -0.06297833 0.02968772
v 0.04702504 -0.06308636 0.02975726
v 0.04124367 -0.06308636 0.02223247
v 0.04349221 -0.04469231 0.03196167
v 0.04347859 -0.04469231 0.03126123
v 0.04347518 -0.04469231 0.03044280
v 0.04232572 -0.05077624 0.02958091
v 0.04154874 -0.05613817 0.02588868
v 0.04135467 -0.05827539 0.02223247
v 0.04119940 -0.05979502 0.02223247
v 0.04114765 -0.06069528 0.02223247
v 0.04114969 -0.06131285 0.02223247
v 0.04117149 -0.06221311 0.02223247
v 0.04131858 -0.06069528 0.02436981
v 0.04141868 -0.05917564 0.02588868
v 0.04196004 -0.05917564 0.02703249
v 0.04250004 -0.05800531 0.02803224
v 0.04351604 -0.05917564 0.02844580
v 0.04374552 -0.06012991 0.02826323
v 0.04810437 -0.06196284 0.03124260
v 0.04371420 -0.04469231 0.02826199
v 0.04161343 -0.05675755 0.02223247
v 0.04363793 -0.04469231 0.02892394
v 0.04676219 -0.06308636 0.02951633
v 0.04591235 -0.06221311 0.02918474
v 0.04310814 -0.06067367 0.02739637
v 0.04509043 -0.06221311 0.02842717
v 0.04120077 -0.06283249 0.02223247
v 0.04154397 -0.06308636 0.02349799
v 0.04118783 -0.06256781 0.02223247
v 0.04159641 -0.06221311 0.02436981
v 0.04187764 -0.06070428 0.02595575
v 0.04275677 -0.05917564 0.02779130
v 0.04209419 -0.06221311 0.02548009
v 0.04224604 -0.06308636 0.02525406
v 0.04219974 -0.06020374 0.02678783
v 0.04539073 -0.06308636 0.02825081
v 0.04375574 -0.06308636 0.02673940
v 0.04186811 -0.06308636 0.02436733
v 0.04230529 -0.06308636 0.02532237
v 0.04298148 -0.06308636 0.02600294
v 0.04328179 -0.06308636 0.02628982
f 1 2 3
f 1 3 4
f 1 4 5
f 1 5 14
f 1 14 27
f 1 27 26
f 1 26 38
f 1 38 37
f 1 37 60
f 1 60 59
f 1 59 84
f 1 84 63
f 1 63 41
f 1 41 29
f 1 29 15
f 1 15 6
f 1 6 2
f 2 6 7
f 2 7 3
f 3 7 8
f 3 8 9
f 3 9 4
f 4 9 10
f 4 10 11
f 4 11 5
f 5 12 13
f 5 13 14
f 5 11 12
f 6 15 28
f 6 28 40
f 6 40 61
f 6 61 85
f 6 85 87
f 6 87 70
f 6 70 69
f 6 69 68
f 6 68 45
f 6 45 30
f 6 30 17
f 6 17 16
f 6 16 8
f 6 8 7
f 8 16 9
f 9 16 10
f 10 16 17
f 10 17 18
f 10 18 11
f 11 18 19
f 11 19 12
f 12 20 14
f 12 14 13
f 12 19 21
f 12 21 22
f 12 22 23
f 12 23 24
f 12 24 25
f 12 25 26
f 12 26 20
f 14 20 27
f 15 29 28
f 17 30 18
f 18 30 31
f 18 31 19
f 19 31 21
f 20 26 27
f 21 31 32
f 21 32 33
f 21 33 34
f 21 34 35
f 21 35 36
f 21 36 24
f 21 24 23
f 21 23 22
f 24 36 25
f 25 36 37
f 25 37 38
f 25 38 26
f 28 39 44
f 28 44 43
f 28 43 42
f 28 42 67
f 28 67 92
f 28 92 94
f 28 94 77
f 28 77 76
f 28 76 75
f 28 75 74
f 28 74 73
f 28 73 86
f 28 86 62
f 28 62 40
f 28 29 39
f 29 41 66
f 29 66 88
f 29 88 101
f 29 101 102
f 29 102 106
f 29 106 105
f 29 105 104
f 29 104 99
f 29 99 103
f 29 103 93
f 29 93 67
f 29 67 42
f 29 42 43
f 29 43 44
f 29 44 39
f 30 45 46
f 30 46 31
f 31 46 47
f 31 47 32
f 32 47 48
f 32 48 49
f 32 49 50
f 32 50 51
f 32 51 52
f 32 52 53
f 32 53 33
f 33 53 54
f 33 54 55
f 33 55 56
f 33 56 34
f 34 56 35
f 35 56 55
f 35 55 57
f 35 57 36
f 36 58 59
f 36 59 60
f 36 60 37
f 36 57 55
f 36 55 58
f 40 62 61
f 41 63 64
f 41 64 65
f 41 65 66
f 45 68 46
f 46 68 69
f 46 69 70
f 46 70 71
f 46 71 72
f 46 72 48
f 46 48 47
f 48 72 73
f 48 73 74
f 48 74 75
f 48 75 76
f 48 76 77
f 48 77 78
f 48 78 79
f 48 79 49
f 49 79 51
f 49 51 50
f 51 79 80
f 51 80 52
f 52 80 53
f 53 80 81
f 53 81 55
f 53 55 54
f 55 81 58
f 58 82 83
f 58 83 84
f 58 84 59
f 58 81 82
f 61 62 85
f 62 86 71
f 62 71 70
f 62 70 87
f 62 87 85
f 63 84 83
f 63 83 64
f 64 83 65
f 65 88 66
f 65 83 89
f 65 89 90
f 65 90 91
f 65 91 88
f 67 93 78
f 67 78 92
f 71 86 72
f 72 86 73
f 77 94 78
f 78 94 92
f 78 93 95
f 78 95 79
f 79 95 96
f 79 96 80
f 80 97 81
f 80 96 98
f 80 98 99
f 80 99 100
f 80 100 97
f 81 97 82
f 82 97 83
f 83 97 100
f 83 100 90
f 83 90 89
f 88 91 101
f 90 100 102
f 90 102 101
f 90 101 91
f 93 103 95
f 95 103 99
f 95 99 98
f 95 98 96
f 99 104 100
f 100 104 105
f 100 105 106
f 100 106 102

