# https://github.com/mikedh/trimesh
v 0.05922303 -0.07418997 0.00159328
v 0.05922303 -0.07417768 0.00311108
v 0.05922303 -0.07406947 0.00078772
v 0.06283633 -0.07400306 0.00025641
v 0.06131828 -0.07412357 0.00159328
v 0.06290875 -0.07406701 0.00169004
v 0.05922303 -0.07397109 0.00421093
v 0.06123342 -0.07287178 -0.00058007
v 0.06123342 -0.07291359 -0.00054801
v 0.06123342 -0.07382107 0.00017969
v 0.05922303 -0.06879669 0.00078772
v 0.06123342 -0.06980747 -0.00082340
v 0.06123342 -0.07117731 -0.00079878
v 0.06286339 -0.07402766 0.00078715
v 0.06283633 -0.07283981 -0.00042548
v 0.06435290 -0.07385550 0.00053523
v 0.06435290 -0.07385796 0.00078772
v 0.06435290 -0.07385796 0.00114728
v 0.06245297 -0.07384075 0.00261641
v 0.06071546 -0.07371040 0.00398019
v 0.05922303 -0.07284227 0.00461457
v 0.06123342 -0.06069816 -0.00043980
v 0.06123342 -0.06221064 -0.00057892
v 0.06123342 -0.06373050 -0.00069229
v 0.06123342 -0.06524790 -0.00075526
v 0.06123342 -0.06670381 -0.00077874
v 0.05922303 -0.06790396 0.00156409
v 0.06053988 -0.05518192 0.00079631
v 0.06053476 -0.05527783 0.00078772
v 0.06149533 -0.06524790 -0.00082855
v 0.06160873 -0.06373050 -0.00083370
v 0.06435290 -0.05462365 -0.00112913
v 0.06435290 -0.05614351 -0.00113428
v 0.06435290 -0.05766091 -0.00113486
v 0.06435290 -0.05917831 -0.00110280
v 0.06435290 -0.06069816 -0.00103123
v 0.06435290 -0.06221064 -0.00094821
v 0.06435290 -0.06373050 -0.00086405
v 0.06444874 -0.06531430 -0.00076328
v 0.06514667 -0.06485441 -0.00070832
v 0.06501791 -0.06586519 -0.00065679
v 0.06268489 -0.07116993 -0.00059667
v 0.06435290 -0.07283981 0.00011327
v 0.06499304 -0.07364892 0.00078772
v 0.06507717 -0.07356285 0.00078715
v 0.06511960 -0.07360711 0.00082780
v 0.06511960 -0.07360711 0.00083753
v 0.06348671 -0.07284227 0.00227689
v 0.06272951 -0.07284227 0.00281164
v 0.06164750 -0.07284227 0.00357083
v 0.06088811 -0.07284227 0.00409871
v 0.06107174 -0.07132241 0.00420978
v 0.05922303 -0.07206512 0.00467926
v 0.06123342 -0.06006858 -0.00037796
v 0.06270464 -0.05158640 -0.00041174
v 0.06242956 -0.05462365 -0.00053369
v 0.06208279 -0.05845035 -0.00068255
v 0.06187941 -0.06069816 -0.00075126
v 0.06174187 -0.06221064 -0.00079706
v 0.05922303 -0.06801955 0.00300688
v 0.06053988 -0.05518192 0.00114613
v 0.06128463 -0.05006654 0.00159328
v 0.06153776 -0.05006654 0.00078772
v 0.06165043 -0.05006900 0.00042989
v 0.06153995 -0.05158640 0.00034687
v 0.06435290 -0.05158640 -0.00102779
v 0.06435290 -0.05310626 -0.00109936
v 0.06587167 -0.05158640 -0.00107417
v 0.06575316 -0.05462365 -0.00099172
v 0.06519203 -0.07283981 0.00072990
v 0.06669617 -0.05158640 -0.00077530
v 0.06665374 -0.05261685 -0.00071633
v 0.06514960 -0.07328986 0.00078715
v 0.06519203 -0.07284227 0.00078772
v 0.06519203 -0.07284227 0.00089822
v 0.06516423 -0.06481998 0.00240686
v 0.06448093 -0.06529462 0.00282825
v 0.06370179 -0.07101991 0.00242804
v 0.06402369 -0.06828515 0.00265477
v 0.06209157 -0.06910902 0.00388057
v 0.06183112 -0.07132241 0.00369622
v 0.06218814 -0.06828515 0.00394870
v 0.06236738 -0.06676530 0.00407180
v 0.06254589 -0.06525036 0.00417944
v 0.06419634 -0.05766091 0.00422581
v 0.06272439 -0.06373050 0.00425501
v 0.06131828 -0.06676530 0.00449319
v 0.06131828 -0.06525036 0.00460426
v 0.06283633 -0.05766091 0.00464949
v 0.05922303 -0.07056248 0.00471419
v 0.06355328 -0.05073302 -0.00069858
v 0.06346329 -0.05158640 -0.00072893
v 0.06304995 -0.05614351 -0.00086863
v 0.05922303 -0.06834664 0.00439070
v 0.06058450 -0.05547950 0.00215781
v 0.06107028 -0.05158640 0.00159328
v 0.06145143 -0.05006654 0.00311108
v 0.06183844 -0.04910003 0.00311108
v 0.06175065 -0.04906560 0.00159328
v 0.06181942 -0.04912954 0.00078715
v 0.06183551 -0.04914676 0.00060108
v 0.06122830 -0.05158640 0.00311108
v 0.06444142 -0.05016491 -0.00081653
v 0.06579047 -0.05005424 -0.00086176
v 0.06669544 -0.05054857 -0.00077416
v 0.06669617 -0.05158640 -0.00019532
v 0.06665374 -0.05261685 -0.00047243
v 0.06659302 -0.05158640 0.00056386
v 0.06592069 -0.05918077 0.00159328
v 0.06601872 -0.05158640 0.00311108
v 0.06533176 -0.06221310 0.00261526
v 0.06523958 -0.06373050 0.00249560
v 0.06539980 -0.05310380 0.00411818
v 0.06527324 -0.05462365 0.00400882
v 0.06517374 -0.05570329 0.00392294
v 0.06369813 -0.06189585 0.00394355
v 0.06384006 -0.06069570 0.00404031
v 0.06401857 -0.05918077 0.00414852
v 0.06550369 -0.05158640 0.00419719
v 0.06435290 -0.05462365 0.00440101
v 0.06283633 -0.06069570 0.00446055
v 0.06283633 -0.05918077 0.00457334
v 0.06435290 -0.05158640 0.00459854
v 0.06283633 -0.05614105 0.00467755
v 0.05922303 -0.06980501 0.00470903
v 0.06283633 -0.05310380 0.00469300
v 0.06500621 -0.04929432 -0.00070545
v 0.05922303 -0.06900819 0.00458651
v 0.06181723 -0.05006654 0.00418116
v 0.06053402 -0.05821917 0.00391092
v 0.06050842 -0.05649273 0.00264160
v 0.06195184 -0.04918856 0.00403058
v 0.06283633 -0.04913938 0.00409985
v 0.06281364 -0.04907790 0.00316147
v 0.06281364 -0.04910003 0.00147133
v 0.06522934 -0.04929432 -0.00070545
v 0.06669544 -0.05054857 -0.00024456
v 0.06520008 -0.04926234 0.00343514
v 0.06652571 -0.05191595 0.00078715
v 0.06619211 -0.05462365 0.00159328
v 0.06627917 -0.05310380 0.00159328
v 0.06539614 -0.05006654 0.00409756
v 0.06435290 -0.05310380 0.00451494
v 0.06435290 -0.05006654 0.00440845
v 0.06283633 -0.05006654 0.00449262
v 0.06283633 -0.05158640 0.00467812
v 0.06169798 -0.05158640 0.00427677
v 0.06435290 -0.04919348 0.00402829
v 0.06435290 -0.04919348 0.00341739
v 0.06520008 -0.04926234 0.00393496
f 1 2 7
f 1 7 21
f 1 21 53
f 1 53 90
f 1 90 125
f 1 125 128
f 1 128 94
f 1 94 60
f 1 60 27
f 1 27 11
f 1 11 3
f 1 3 4
f 1 4 5
f 1 5 2
f 2 5 6
f 2 6 7
f 3 8 9
f 3 9 10
f 3 10 4
f 3 11 12
f 3 12 13
f 3 13 8
f 4 14 5
f 4 10 9
f 4 9 8
f 4 8 15
f 4 15 16
f 4 16 14
f 5 14 6
f 6 14 16
f 6 16 17
f 6 17 18
f 6 18 19
f 6 19 7
f 7 19 20
f 7 20 21
f 8 13 15
f 11 22 23
f 11 23 24
f 11 24 25
f 11 25 26
f 11 26 12
f 11 27 28
f 11 28 29
f 11 29 22
f 12 26 30
f 12 30 31
f 12 31 32
f 12 32 33
f 12 33 34
f 12 34 13
f 13 34 35
f 13 35 36
f 13 36 37
f 13 37 38
f 13 38 39
f 13 39 40
f 13 40 41
f 13 41 42
f 13 42 15
f 15 43 16
f 15 42 41
f 15 41 43
f 16 44 17
f 16 43 45
f 16 45 46
f 16 46 44
f 17 44 18
f 18 44 47
f 18 47 19
f 19 47 20
f 20 47 48
f 20 48 49
f 20 49 50
f 20 50 51
f 20 51 21
f 21 51 52
f 21 52 53
f 22 29 54
f 22 54 55
f 22 55 23
f 23 55 56
f 23 56 57
f 23 57 24
f 24 31 25
f 24 57 58
f 24 58 59
f 24 59 31
f 25 31 30
f 25 30 26
f 27 60 61
f 27 61 28
f 28 61 62
f 28 62 63
f 28 63 64
f 28 64 29
f 29 64 65
f 29 65 54
f 31 59 66
f 31 66 67
f 31 67 32
f 32 67 68
f 32 68 33
f 33 68 34
f 34 68 35
f 35 40 36
f 35 68 69
f 35 69 40
f 36 40 37
f 37 40 38
f 38 40 39
f 40 70 41
f 40 69 71
f 40 71 72
f 40 72 70
f 41 70 43
f 43 70 45
f 44 46 47
f 45 70 73
f 45 73 46
f 46 73 74
f 46 74 75
f 46 75 47
f 47 75 76
f 47 76 48
f 48 76 77
f 48 77 78
f 48 78 49
f 49 78 79
f 49 79 80
f 49 80 81
f 49 81 50
f 50 81 51
f 51 81 80
f 51 80 82
f 51 82 83
f 51 83 52
f 52 83 84
f 52 84 85
f 52 85 86
f 52 86 87
f 52 87 53
f 53 87 88
f 53 88 89
f 53 89 90
f 54 65 64
f 54 64 55
f 55 64 91
f 55 91 92
f 55 92 56
f 56 92 57
f 57 92 93
f 57 93 58
f 58 93 59
f 59 93 66
f 60 94 61
f 61 95 96
f 61 96 62
f 61 94 95
f 62 97 98
f 62 98 99
f 62 99 100
f 62 100 101
f 62 101 63
f 62 96 102
f 62 102 97
f 63 101 64
f 64 101 91
f 66 92 91
f 66 91 103
f 66 103 104
f 66 104 68
f 66 68 67
f 66 93 92
f 68 104 105
f 68 105 71
f 68 71 69
f 70 74 73
f 70 72 74
f 71 105 137
f 71 137 106
f 71 106 107
f 71 107 72
f 72 107 75
f 72 75 74
f 75 107 106
f 75 106 108
f 75 108 109
f 75 109 110
f 75 110 111
f 75 111 112
f 75 112 76
f 76 112 113
f 76 113 114
f 76 114 115
f 76 115 77
f 77 116 80
f 77 80 79
f 77 79 78
f 77 115 116
f 80 116 82
f 82 116 83
f 83 116 117
f 83 117 118
f 83 118 84
f 84 118 85
f 85 113 119
f 85 119 120
f 85 120 121
f 85 121 86
f 85 118 113
f 86 121 87
f 87 121 122
f 87 122 88
f 88 122 89
f 89 123 124
f 89 124 90
f 89 122 123
f 90 124 126
f 90 126 125
f 91 101 127
f 91 127 103
f 94 128 129
f 94 129 130
f 94 130 102
f 94 102 131
f 94 131 95
f 95 131 102
f 95 102 96
f 97 129 132
f 97 132 98
f 97 102 129
f 98 133 134
f 98 134 99
f 98 132 133
f 99 134 135
f 99 135 136
f 99 136 100
f 100 136 101
f 101 136 127
f 102 130 129
f 103 127 104
f 104 127 136
f 104 136 105
f 105 136 138
f 105 138 150
f 105 150 137
f 106 137 108
f 108 137 110
f 108 110 139
f 108 139 109
f 109 139 140
f 109 140 110
f 110 140 141
f 110 141 139
f 110 137 142
f 110 142 119
f 110 119 111
f 111 119 113
f 111 113 112
f 113 118 114
f 114 118 115
f 115 118 117
f 115 117 116
f 119 142 123
f 119 123 143
f 119 143 120
f 120 143 121
f 121 143 122
f 122 143 123
f 123 142 144
f 123 144 145
f 123 145 146
f 123 146 126
f 123 126 124
f 125 126 146
f 125 146 147
f 125 147 129
f 125 129 128
f 129 145 132
f 129 147 146
f 129 146 145
f 132 145 133
f 133 145 144
f 133 144 148
f 133 148 134
f 134 149 136
f 134 136 135
f 134 148 149
f 136 149 138
f 137 150 142
f 138 149 148
f 138 148 150
f 139 141 140
f 142 150 144
f 144 150 148

