# https://github.com/mikedh/trimesh
v -0.04212809 -0.06980659 0.00462970
v -0.04215103 -0.06980659 0.00615050
v -0.04240345 -0.07141448 0.00260101
v -0.04216709 -0.06980659 0.00311179
v -0.04238739 -0.06864175 0.00462970
v -0.04243558 -0.06828814 0.00766841
v -0.04262833 -0.06739579 0.00889486
v -0.04227036 -0.06980659 0.00766841
v -0.04269258 -0.07210507 0.01150936
v -0.04246771 -0.07132296 0.00766841
v -0.04265587 -0.07219867 0.00260101
v -0.04220611 -0.06980659 0.00260101
v -0.04268341 -0.07213211 0.01070423
v -0.04292206 -0.07289133 0.01070423
v -0.04246082 -0.06858767 0.00311179
v -0.04230019 -0.06939682 0.00260101
v -0.04434707 -0.05985971 0.01831688
v -0.04258244 -0.06819662 0.00931618
v -0.04447329 -0.05985971 0.01981170
v -0.04461327 -0.05985971 0.02133250
v -0.04476013 -0.05985971 0.02285041
v -0.04469817 -0.06069589 0.02285041
v -0.04493682 -0.05985971 0.02436832
v -0.04246771 -0.06980659 0.00918632
v -0.04269258 -0.07196570 0.01150936
v -0.04292436 -0.07270413 0.01209806
v -0.04305056 -0.07132296 0.01374294
v -0.04319284 -0.07284141 0.01374294
v -0.04421398 -0.07664170 0.00542040
v -0.04421398 -0.07664170 0.00516645
v -0.04376881 -0.07534997 0.00260101
v -0.04344525 -0.07435986 0.00918632
v -0.04249524 -0.06858767 0.00260101
v -0.04435626 -0.06028196 0.01677876
v -0.04457196 -0.05985971 0.01673259
v -0.04528332 -0.05985971 0.02590066
v -0.04491617 -0.06069589 0.02436832
v -0.04421628 -0.06448786 0.02057354
v -0.04420481 -0.06525124 0.02059374
v -0.04354852 -0.07435986 0.01070423
v -0.04420251 -0.06605207 0.02059952
v -0.04339477 -0.07132296 0.01526085
v -0.04379635 -0.07408737 0.01374294
v -0.04380094 -0.07282061 0.01528971
v -0.04400058 -0.07384817 0.01480490
v -0.04427365 -0.07654393 0.00643330
v -0.04534987 -0.07848256 0.00311179
v -0.04531774 -0.07852208 0.00260101
v -0.04454672 -0.07735516 0.00260101
v -0.04397304 -0.07546230 0.00918632
v -0.04422546 -0.07661050 0.00260101
v -0.04294042 -0.06782845 0.00260101
v -0.04319513 -0.06756220 0.00260101
v -0.05124729 -0.05985971 0.00260101
v -0.04560688 -0.05985971 0.02689337
v -0.04377340 -0.07444930 0.01214423
v -0.04432643 -0.06882272 0.01889980
v -0.04411072 -0.06780973 0.01924898
v -0.04563900 -0.06015092 0.02679236
v -0.04448705 -0.07484660 0.01374294
v -0.04432643 -0.07501508 0.01260018
v -0.04418415 -0.07515445 0.01158728
v -0.04408318 -0.07527509 0.01070423
v -0.04563900 -0.07522517 0.01615833
v -0.04547149 -0.07538326 0.01526085
v -0.04410843 -0.07229851 0.01616987
v -0.04436314 -0.07331151 0.01581781
v -0.04551968 -0.07832655 0.00462970
v -0.04440904 -0.07639833 0.00766841
v -0.04649493 -0.07900049 0.00311179
v -0.04649493 -0.07907538 0.00260101
v -0.04573309 -0.07873009 0.00260101
v -0.05283065 -0.05985971 0.00260101
v -0.04616679 -0.05985971 0.02769849
v -0.04440674 -0.07132296 0.01727223
v -0.04577439 -0.06289869 0.02507534
v -0.04588913 -0.06116183 0.02644030
v -0.04624022 -0.07614248 0.01526085
v -0.04501943 -0.07583671 0.01206920
v -0.04516859 -0.07719083 0.00766841
v -0.04524661 -0.07559542 0.01374294
v -0.04738528 -0.07656681 0.01737323
v -0.04715581 -0.07672074 0.01636321
v -0.04539118 -0.07435986 0.01650462
v -0.04700206 -0.07555382 0.01788690
v -0.04592584 -0.07435986 0.01726357
v -0.04573538 -0.07360064 0.01753483
v -0.04671293 -0.07438066 0.01835439
v -0.04566195 -0.07821423 0.00564837
v -0.04801404 -0.07935827 0.00311179
v -0.04736233 -0.07813311 0.00980099
v -0.04847298 -0.07953507 0.00260101
v -0.05883822 -0.06486227 0.00260101
v -0.06245699 -0.05985971 0.01581203
v -0.04657525 -0.05985971 0.02819773
v -0.04730956 -0.06135736 0.02809673
v -0.04693093 -0.06221434 0.02704343
v -0.04722007 -0.07214459 0.02061395
v -0.04595338 -0.07013108 0.02026765
v -0.04601763 -0.07299326 0.01835439
v -0.04580881 -0.06738331 0.02198757
v -0.04710992 -0.07388769 0.01924609
v -0.04602681 -0.07635465 0.01374294
v -0.04585700 -0.07651897 0.01255112
v -0.04794060 -0.07690587 0.01683359
v -0.04738299 -0.07490068 0.01889980
v -0.04839496 -0.07542070 0.01943944
v -0.04839725 -0.07673738 0.01771375
v -0.04801404 -0.07730316 0.01526085
v -0.04912468 -0.07959955 0.00311179
v -0.04801404 -0.07911282 0.00462970
v -0.04770195 -0.07805614 0.01070423
v -0.04913386 -0.07807902 0.01250206
v -0.04792684 -0.07834527 0.00925269
v -0.04801404 -0.07759021 0.01374294
v -0.04988423 -0.07976388 0.00311179
v -0.05104995 -0.08001557 0.00311179
v -0.05408586 -0.08067079 0.00311179
v -0.04927383 -0.07970772 0.00260101
v -0.05967349 -0.06564438 0.00260101
v -0.06250518 -0.05985971 0.01589861
v -0.06556633 -0.07252940 0.00260101
v -0.04689192 -0.05985971 0.02854402
v -0.04702501 -0.06034436 0.02841705
v -0.04888832 -0.06428609 0.02802459
v -0.04754821 -0.06221434 0.02780527
v -0.04717876 -0.06311085 0.02673754
v -0.04860378 -0.06327518 0.02835068
v -0.05018254 -0.06620392 0.02828430
v -0.04719941 -0.06762876 0.02367574
v -0.04807370 -0.07273325 0.02125747
v -0.04750231 -0.07315758 0.02025900
v -0.04748166 -0.06864175 0.02332945
v -0.05014583 -0.07818719 0.01309653
v -0.04864508 -0.07230891 0.02224440
v -0.05020319 -0.07067398 0.02523117
v -0.04851428 -0.07395841 0.02088809
v -0.04953084 -0.07545606 0.01950870
v -0.05011829 -0.07221739 0.02377386
v -0.04911091 -0.07673738 0.01771375
v -0.04953084 -0.07751324 0.01526085
v -0.04815401 -0.07791886 0.01208651
v -0.04959739 -0.07824543 0.01208651
v -0.05607997 -0.08110760 0.00260101
v -0.05408586 -0.08071239 0.00260101
v -0.05299357 -0.07974724 0.00721823
v -0.06556633 -0.05985971 0.02420095
v -0.06556633 -0.07434738 0.00260101
v -0.04769507 -0.05985971 0.02928566
v -0.04991636 -0.06525124 0.02853537
v -0.05046709 -0.06721691 0.02794955
v -0.04961116 -0.06662825 0.02730892
v -0.04849363 -0.06954658 0.02394989
v -0.05112567 -0.06663241 0.02888743
v -0.05147906 -0.06796781 0.02847765
v -0.04994848 -0.06980659 0.02554572
v -0.05049692 -0.07818719 0.01309653
v -0.05034547 -0.06896833 0.02659325
v -0.05077917 -0.07526677 0.01927495
v -0.04958362 -0.07626936 0.01825050
v -0.05076311 -0.07221739 0.02377386
v -0.05118074 -0.07265005 0.02299182
v -0.05104995 -0.07345087 0.02186637
v -0.05135744 -0.06937394 0.02708960
v -0.05256905 -0.06884144 0.02792936
v -0.05408586 -0.07523765 0.01773395
v -0.05485229 -0.07512117 0.01754061
v -0.05012518 -0.07658762 0.01741940
v -0.05104995 -0.07724908 0.01526085
v -0.05256905 -0.07829535 0.01179217
v -0.05490966 -0.07969524 0.00695274
v -0.05408586 -0.07948723 0.00793390
v -0.05613963 -0.08110760 0.00260101
v -0.06556633 -0.05985971 0.02558900
v -0.05656186 -0.08093912 0.00260101
v -0.06556633 -0.07421842 0.00375243
v -0.04818843 -0.05985971 0.02968101
v -0.04887915 -0.06126999 0.02960887
v -0.04915451 -0.06221434 0.02938667
v -0.05079523 -0.06525124 0.02929432
v -0.05178655 -0.06604791 0.02969544
v -0.05256905 -0.06683418 0.02936647
v -0.05256905 -0.06808221 0.02860751
v -0.05119222 -0.07479460 0.01979439
v -0.05560267 -0.07327199 0.02008008
v -0.05650219 -0.07364432 0.01911623
v -0.05179114 -0.07511493 0.01904409
v -0.05256905 -0.07018100 0.02606804
v -0.05864087 -0.07379616 0.01786093
v -0.05256905 -0.07499636 0.01886517
v -0.05256905 -0.06942178 0.02717040
v -0.05379672 -0.06783053 0.02844302
v -0.05371641 -0.06922001 0.02689914
v -0.05954958 -0.07365472 0.01763007
v -0.05864087 -0.07432034 0.01677876
v -0.05408586 -0.07568278 0.01677876
v -0.05104995 -0.07644825 0.01710486
v -0.05104995 -0.07677898 0.01634590
v -0.05245431 -0.07684346 0.01522911
v -0.05738566 -0.07648985 0.01264058
v -0.05592163 -0.07954339 0.00660356
v -0.05549023 -0.07987620 0.00611875
v -0.05656874 -0.07976180 0.00559354
v -0.05788591 -0.07816014 0.00843602
v -0.06136241 -0.05985971 0.03034474
v -0.06556633 -0.06074374 0.02545049
v -0.06556633 -0.07403537 0.00534248
v -0.06556633 -0.07213627 0.01309942
v -0.06555944 -0.07364432 0.00857742
v -0.06556633 -0.07364848 0.00854857
v -0.04847069 -0.05985971 0.02987436
v -0.05018713 -0.06315454 0.02974739
v -0.05048086 -0.06416545 0.02955116
v -0.05256905 -0.06607495 0.02970699
v -0.05067591 -0.06069589 0.03095941
v -0.05170623 -0.06163192 0.03126530
v -0.05263789 -0.05985971 0.03207908
v -0.05344563 -0.06606039 0.02970121
v -0.05445531 -0.06584822 0.02960310
v -0.05712177 -0.07228187 0.02087078
v -0.05751416 -0.07349039 0.01888826
v -0.05435434 -0.07040981 0.02490796
v -0.05864087 -0.07331359 0.01861988
v -0.05560267 -0.07073014 0.02385177
v -0.05480640 -0.06750604 0.02813713
v -0.05426025 -0.06840671 0.02751958
v -0.05653891 -0.06458770 0.02973584
v -0.05946926 -0.06301933 0.02971853
v -0.05472608 -0.06898497 0.02657593
v -0.05641729 -0.07059494 0.02364688
v -0.05935682 -0.07510453 0.01446438
v -0.05801441 -0.07214043 0.02065723
v -0.05856744 -0.07249404 0.01984056
v -0.05980659 -0.07231724 0.01934998
v -0.06018292 -0.07281437 0.01825339
v -0.05876708 -0.07492356 0.01530125
v -0.06130274 -0.06069589 0.03011965
v -0.06036879 -0.05985971 0.03092766
v -0.06556633 -0.06174425 0.02523982
v -0.06556633 -0.07363808 0.00858320
v -0.06081856 -0.07194698 0.01887960
v -0.06556633 -0.06909937 0.01760409
v -0.05043267 -0.05985971 0.03111235
v -0.05116927 -0.05985971 0.03157408
v -0.05143546 -0.06069589 0.03143556
v -0.05401472 -0.05985971 0.03205023
v -0.05870742 -0.05985971 0.03128839
v -0.06015768 -0.05985971 0.03103444
v -0.06015768 -0.06069589 0.03069392
v -0.05560267 -0.06482067 0.02982242
v -0.05560267 -0.06870624 0.02627581
v -0.06048124 -0.06269068 0.02937512
v -0.05864087 -0.06474579 0.02844014
v -0.05916407 -0.07041397 0.02192408
v -0.06004753 -0.06219770 0.02997825
v -0.05864087 -0.06324814 0.02983396
v -0.06110310 -0.06167977 0.02985705
v -0.05742926 -0.07027461 0.02329193
v -0.05815209 -0.07073430 0.02227903
v -0.05987084 -0.07087783 0.02091118
v -0.06093329 -0.06906817 0.02211454
v -0.06088281 -0.07051798 0.02051583
v -0.06556633 -0.06186073 0.02516480
v -0.06556633 -0.06536149 0.02210588
v -0.06556633 -0.06771820 0.01928361
v -0.06041927 -0.06416961 0.02781393
v -0.06015768 -0.06717323 0.02474059
v -0.06015768 -0.06571302 0.02632487
v -0.05994427 -0.06359551 0.02877200
v -0.06556633 -0.06408849 0.02361803
v -0.06096771 -0.06759340 0.02367863
v -0.06015768 -0.06787213 0.02398163
v -0.06556633 -0.06353311 0.02403357
v -0.06015768 -0.06932818 0.02239446
f 1 2 3
f 1 3 4
f 1 4 5
f 1 5 6
f 1 6 2
f 2 6 7
f 2 7 8
f 2 8 9
f 2 9 10
f 2 10 3
f 3 11 31
f 3 31 51
f 3 51 49
f 3 49 48
f 3 48 72
f 3 72 71
f 3 71 92
f 3 92 119
f 3 119 145
f 3 145 144
f 3 144 173
f 3 173 175
f 3 175 148
f 3 148 122
f 3 122 120
f 3 120 93
f 3 93 73
f 3 73 54
f 3 54 53
f 3 53 52
f 3 52 33
f 3 33 16
f 3 16 12
f 3 12 4
f 3 10 13
f 3 13 14
f 3 14 11
f 4 15 5
f 4 12 16
f 4 16 15
f 5 7 6
f 5 15 17
f 5 17 7
f 7 18 8
f 7 17 19
f 7 19 20
f 7 20 18
f 8 18 21
f 8 21 22
f 8 22 23
f 8 23 24
f 8 24 25
f 8 25 9
f 9 26 14
f 9 14 13
f 9 13 10
f 9 25 27
f 9 27 28
f 9 28 26
f 11 29 30
f 11 30 31
f 11 14 29
f 14 26 32
f 14 32 29
f 15 16 33
f 15 33 17
f 17 34 35
f 17 35 54
f 17 54 73
f 17 73 94
f 17 94 121
f 17 121 147
f 17 147 174
f 17 174 205
f 17 205 238
f 17 238 248
f 17 248 247
f 17 247 246
f 17 246 217
f 17 217 244
f 17 244 243
f 17 243 211
f 17 211 177
f 17 177 149
f 17 149 123
f 17 123 95
f 17 95 74
f 17 74 55
f 17 55 36
f 17 36 23
f 17 23 21
f 17 21 20
f 17 20 19
f 17 33 34
f 18 20 21
f 21 23 22
f 23 36 37
f 23 37 38
f 23 38 24
f 24 38 25
f 25 38 39
f 25 39 27
f 26 40 32
f 26 28 40
f 27 39 41
f 27 41 42
f 27 42 28
f 28 43 40
f 28 42 44
f 28 44 45
f 28 45 43
f 29 46 47
f 29 47 48
f 29 48 49
f 29 49 30
f 29 32 40
f 29 40 50
f 29 50 46
f 30 49 51
f 30 51 31
f 33 52 35
f 33 35 34
f 35 52 53
f 35 53 54
f 36 55 41
f 36 41 37
f 37 41 39
f 37 39 38
f 40 43 56
f 40 56 50
f 41 57 58
f 41 58 44
f 41 44 42
f 41 55 59
f 41 59 57
f 43 60 61
f 43 61 62
f 43 62 63
f 43 63 56
f 43 45 64
f 43 64 65
f 43 65 60
f 44 66 67
f 44 67 45
f 44 58 66
f 45 67 64
f 46 68 47
f 46 50 63
f 46 63 69
f 46 69 68
f 47 68 70
f 47 70 71
f 47 71 72
f 47 72 48
f 50 56 63
f 55 74 59
f 57 75 66
f 57 66 58
f 57 59 76
f 57 76 75
f 59 74 77
f 59 77 76
f 60 65 78
f 60 78 61
f 61 79 80
f 61 80 62
f 61 78 81
f 61 81 79
f 62 80 69
f 62 69 63
f 64 82 83
f 64 83 65
f 64 67 84
f 64 84 85
f 64 85 82
f 65 83 78
f 66 75 67
f 67 86 84
f 67 75 87
f 67 87 88
f 67 88 86
f 68 69 80
f 68 80 89
f 68 89 70
f 70 90 71
f 70 89 91
f 70 91 90
f 71 90 92
f 73 93 94
f 74 95 96
f 74 96 97
f 74 97 98
f 74 98 77
f 75 99 100
f 75 100 87
f 75 76 101
f 75 101 99
f 76 77 98
f 76 98 102
f 76 102 88
f 76 88 101
f 78 103 81
f 78 83 103
f 79 81 104
f 79 104 80
f 80 104 89
f 81 103 104
f 82 105 83
f 82 85 106
f 82 106 107
f 82 107 108
f 82 108 105
f 83 105 109
f 83 109 91
f 83 91 89
f 83 89 104
f 83 104 103
f 84 86 85
f 85 88 106
f 85 86 88
f 87 100 88
f 88 102 106
f 88 100 99
f 88 99 101
f 90 110 92
f 90 91 111
f 90 111 110
f 91 112 113
f 91 113 114
f 91 114 111
f 91 109 115
f 91 115 112
f 92 110 116
f 92 116 117
f 92 117 118
f 92 118 119
f 93 120 94
f 94 120 122
f 94 122 121
f 95 123 124
f 95 124 96
f 96 125 126
f 96 126 127
f 96 127 97
f 96 124 128
f 96 128 129
f 96 129 125
f 97 127 130
f 97 130 98
f 98 131 132
f 98 132 106
f 98 106 102
f 98 130 126
f 98 126 133
f 98 133 131
f 105 108 134
f 105 134 109
f 106 132 131
f 106 131 135
f 106 135 136
f 106 136 137
f 106 137 107
f 107 138 108
f 107 137 139
f 107 139 138
f 108 138 140
f 108 140 141
f 108 141 134
f 109 134 113
f 109 113 115
f 110 111 114
f 110 114 116
f 112 142 113
f 112 115 142
f 113 134 143
f 113 143 118
f 113 118 117
f 113 117 116
f 113 116 114
f 113 142 115
f 118 144 145
f 118 145 119
f 118 143 134
f 118 134 146
f 118 146 144
f 121 122 147
f 122 148 176
f 122 176 207
f 122 207 210
f 122 210 240
f 122 240 208
f 122 208 242
f 122 242 265
f 122 265 264
f 122 264 270
f 122 270 273
f 122 273 263
f 122 263 239
f 122 239 206
f 122 206 174
f 122 174 147
f 123 149 124
f 124 150 128
f 124 149 150
f 125 151 126
f 125 129 151
f 126 130 127
f 126 151 152
f 126 152 153
f 126 153 131
f 126 131 133
f 128 150 129
f 129 150 154
f 129 154 155
f 129 155 151
f 131 153 156
f 131 156 135
f 134 157 173
f 134 173 144
f 134 144 146
f 134 141 157
f 135 156 136
f 136 139 137
f 136 156 158
f 136 158 155
f 136 155 139
f 138 159 160
f 138 160 140
f 138 139 161
f 138 161 162
f 138 162 163
f 138 163 159
f 139 155 164
f 139 164 165
f 139 165 161
f 140 160 166
f 140 166 167
f 140 167 168
f 140 168 169
f 140 169 170
f 140 170 171
f 140 171 172
f 140 172 173
f 140 173 157
f 140 157 141
f 148 175 176
f 149 177 178
f 149 178 179
f 149 179 150
f 150 179 180
f 150 180 154
f 151 155 158
f 151 158 156
f 151 156 152
f 152 156 153
f 154 180 181
f 154 181 155
f 155 181 182
f 155 182 183
f 155 183 165
f 155 165 164
f 159 184 185
f 159 185 186
f 159 186 187
f 159 187 160
f 159 163 188
f 159 188 184
f 160 189 166
f 160 187 190
f 160 190 189
f 161 165 191
f 161 191 188
f 161 188 162
f 162 188 163
f 165 183 192
f 165 192 193
f 165 193 191
f 166 189 167
f 167 189 194
f 167 194 195
f 167 195 196
f 167 196 168
f 168 196 197
f 168 197 198
f 168 198 169
f 169 198 199
f 169 199 171
f 169 171 170
f 171 200 201
f 171 201 202
f 171 202 173
f 171 173 172
f 171 199 200
f 173 202 203
f 173 203 204
f 173 204 175
f 174 206 205
f 175 207 176
f 175 204 208
f 175 208 209
f 175 209 210
f 175 210 207
f 177 211 178
f 178 211 212
f 178 212 181
f 178 181 213
f 178 213 180
f 178 180 179
f 180 213 181
f 181 214 182
f 181 212 211
f 181 211 215
f 181 215 216
f 181 216 217
f 181 217 214
f 182 214 218
f 182 218 183
f 183 218 219
f 183 219 192
f 184 188 185
f 185 220 221
f 185 221 186
f 185 188 220
f 186 221 187
f 187 221 190
f 188 191 222
f 188 222 220
f 189 190 221
f 189 221 223
f 189 223 194
f 191 193 224
f 191 224 222
f 192 225 226
f 192 226 193
f 192 219 227
f 192 227 228
f 192 228 225
f 193 226 229
f 193 229 230
f 193 230 224
f 194 231 195
f 194 223 232
f 194 232 233
f 194 233 234
f 194 234 235
f 194 235 208
f 194 208 231
f 195 231 236
f 195 236 199
f 195 199 198
f 195 198 196
f 196 198 197
f 199 236 200
f 200 236 201
f 201 203 202
f 201 236 204
f 201 204 203
f 204 236 231
f 204 231 208
f 205 237 238
f 205 206 239
f 205 239 237
f 208 240 209
f 208 235 241
f 208 241 242
f 209 240 210
f 211 243 215
f 214 217 218
f 215 243 216
f 216 243 244
f 216 244 245
f 216 245 217
f 217 245 244
f 217 246 218
f 218 246 247
f 218 247 248
f 218 248 249
f 218 249 250
f 218 250 219
f 219 250 227
f 220 232 223
f 220 223 221
f 220 222 232
f 222 224 232
f 224 230 232
f 225 251 229
f 225 229 226
f 225 228 252
f 225 252 253
f 225 253 254
f 225 254 251
f 227 250 249
f 227 249 255
f 227 255 256
f 227 256 228
f 228 256 255
f 228 255 257
f 228 257 252
f 229 251 230
f 230 251 258
f 230 258 254
f 230 254 259
f 230 259 234
f 230 234 232
f 232 234 233
f 234 260 261
f 234 261 262
f 234 262 241
f 234 241 235
f 234 259 260
f 237 257 238
f 237 239 257
f 238 257 248
f 239 263 257
f 241 262 264
f 241 264 265
f 241 265 242
f 248 257 249
f 249 257 255
f 251 254 258
f 252 266 267
f 252 267 268
f 252 268 269
f 252 269 253
f 252 257 270
f 252 270 271
f 252 271 261
f 252 261 266
f 253 269 254
f 254 269 268
f 254 268 267
f 254 267 272
f 254 272 260
f 254 260 259
f 257 263 273
f 257 273 270
f 260 272 274
f 260 274 261
f 261 274 272
f 261 272 266
f 261 271 270
f 261 270 262
f 262 270 264
f 266 272 267

