# https://github.com/mikedh/trimesh
v 0.07202927 -0.04477400 0.00078702
v 0.07046750 -0.04477400 0.00078702
v 0.07200251 -0.04551219 0.00078702
v 0.07202927 -0.04477400 -0.02270132
v 0.07046750 -0.04477400 -0.02270132
v 0.06804802 -0.06382578 0.00007188
v 0.06806279 -0.06392180 0.00078702
v 0.07187701 -0.04703057 0.00078702
v 0.07200251 -0.04551219 -0.02270132
v 0.07157988 -0.04477400 -0.02417708
v 0.07159926 -0.04703057 -0.02422004
v 0.07085321 -0.04477400 -0.02417708
v 0.06964301 -0.05211984 -0.02351248
v 0.06963009 -0.05200581 -0.02270132
v 0.06915902 -0.05614085 -0.02118260
v 0.06809231 -0.06549720 -0.01359153
v 0.06790822 -0.06524814 0.00007188
v 0.06950506 -0.05310409 -0.02270132
v 0.06798850 -0.06467799 0.00078702
v 0.07162325 -0.04926313 0.00078702
v 0.07187701 -0.04703057 -0.02270132
v 0.07153790 -0.04553919 -0.02432870
v 0.07122878 -0.04606432 -0.02500593
v 0.07121539 -0.05259396 -0.02352006
v 0.07142255 -0.04852794 -0.02429585
v 0.07123477 -0.04800881 -0.02501604
v 0.07125415 -0.04703057 -0.02502868
v 0.07113880 -0.04606432 -0.02500593
v 0.07084214 -0.04553919 -0.02432870
v 0.06958719 -0.05310409 -0.02359082
v 0.06905798 -0.05765923 -0.02118260
v 0.06885728 -0.05917761 -0.01966388
v 0.06811215 -0.06566824 -0.01446335
v 0.06742839 -0.07132166 -0.00600047
v 0.06793452 -0.06524814 0.00078702
v 0.06742839 -0.07132166 0.00078702
v 0.07145024 -0.05078151 0.00078702
v 0.07122923 -0.05271999 -0.02270132
v 0.07153144 -0.05006733 -0.02270132
v 0.06975097 -0.05545968 -0.02348974
v 0.07030232 -0.06069299 -0.01966388
v 0.06983264 -0.06166824 -0.02060392
v 0.06985617 -0.05874250 -0.02208221
v 0.07111250 -0.04800881 -0.02501604
v 0.07109497 -0.04703057 -0.02502868
v 0.06958395 -0.05462247 -0.02357566
v 0.06939940 -0.05765923 -0.02226921
v 0.06882821 -0.06069299 -0.01966388
v 0.06811215 -0.06610335 -0.01446335
v 0.06733334 -0.07284004 -0.00448175
v 0.06731673 -0.07284004 -0.00296303
v 0.06736887 -0.07212886 0.00078702
v 0.06989308 -0.06444393 0.00078702
v 0.06980126 -0.06524814 -0.01359153
v 0.06997428 -0.06372976 -0.01511025
v 0.07032032 -0.06069299 -0.01814516
v 0.06963839 -0.05545968 -0.02348974
v 0.06969145 -0.06613336 -0.01359153
v 0.06968361 -0.06604334 -0.01441028
v 0.06992907 -0.06219037 -0.01959313
v 0.06975005 -0.06307259 -0.01903719
v 0.06941232 -0.06166824 -0.02060392
v 0.06950829 -0.05874250 -0.02208221
v 0.06926330 -0.06069299 -0.02085157
v 0.06807201 -0.06766074 -0.01299264
v 0.06766923 -0.07291206 -0.00605353
v 0.06733703 -0.07436142 -0.00296303
v 0.06733519 -0.07436142 -0.00144431
v 0.06731673 -0.07284004 0.00007188
v 0.06731858 -0.07284004 0.00078702
v 0.06969145 -0.06621138 0.00078702
v 0.06969145 -0.06621138 -0.01055662
v 0.06969145 -0.06620838 -0.01207534
v 0.06892234 -0.07284004 -0.00296303
v 0.06891080 -0.07284004 -0.00448175
v 0.06872763 -0.07436142 -0.00296303
v 0.06849787 -0.07437042 -0.00444637
v 0.06827825 -0.07527065 -0.00391823
v 0.06982756 -0.06337867 -0.01814516
v 0.06823442 -0.07061648 -0.00985918
v 0.06947922 -0.06307259 -0.01903719
v 0.06810062 -0.07061648 -0.00985918
v 0.06806509 -0.06915512 -0.01144865
v 0.06788146 -0.07245294 -0.00722353
v 0.06769322 -0.07437042 -0.00444637
v 0.06776658 -0.07542969 -0.00296303
v 0.06776473 -0.07541168 -0.00144431
v 0.06769876 -0.07430741 0.00078702
v 0.06751928 -0.07374327 0.00078702
v 0.06892141 -0.07284004 0.00078702
v 0.06892234 -0.07284004 0.00007188
v 0.06873040 -0.07436142 -0.00144431
v 0.06837791 -0.07542969 -0.00296303
v 0.06793821 -0.07527065 -0.00391823
v 0.06788654 -0.07386930 -0.00558352
v 0.06838067 -0.07541168 -0.00144431
v 0.06793545 -0.07524964 -0.00031980
v 0.06850433 -0.07430741 0.00078702
v 0.06828194 -0.07524964 -0.00031980
f 1 2 7
f 1 7 19
f 1 19 35
f 1 35 36
f 1 36 52
f 1 52 70
f 1 70 89
f 1 89 88
f 1 88 98
f 1 98 90
f 1 90 71
f 1 71 53
f 1 53 37
f 1 37 20
f 1 20 8
f 1 8 3
f 1 3 9
f 1 9 4
f 1 4 10
f 1 10 12
f 1 12 5
f 1 5 2
f 2 5 6
f 2 6 7
f 3 8 21
f 3 21 9
f 4 9 11
f 4 11 10
f 5 12 13
f 5 13 14
f 5 14 6
f 6 15 16
f 6 16 17
f 6 17 7
f 6 14 18
f 6 18 15
f 7 17 19
f 8 20 21
f 9 21 11
f 10 11 22
f 10 22 23
f 10 23 28
f 10 28 12
f 11 21 24
f 11 24 25
f 11 25 26
f 11 26 27
f 11 27 22
f 12 28 29
f 12 29 13
f 13 30 31
f 13 31 15
f 13 15 18
f 13 18 14
f 13 29 28
f 13 28 30
f 15 31 32
f 15 32 33
f 15 33 16
f 16 33 34
f 16 34 17
f 17 35 19
f 17 34 36
f 17 36 35
f 20 37 38
f 20 38 39
f 20 39 21
f 21 39 24
f 22 27 23
f 23 27 45
f 23 45 28
f 24 40 26
f 24 26 25
f 24 39 38
f 24 38 41
f 24 41 42
f 24 42 43
f 24 43 40
f 26 40 57
f 26 57 44
f 26 44 45
f 26 45 27
f 28 45 30
f 30 45 46
f 30 46 31
f 31 46 47
f 31 47 48
f 31 48 33
f 31 33 32
f 33 49 34
f 33 48 49
f 34 50 51
f 34 51 52
f 34 52 36
f 34 49 50
f 37 53 38
f 38 53 54
f 38 54 55
f 38 55 56
f 38 56 41
f 40 43 63
f 40 63 57
f 41 56 58
f 41 58 59
f 41 59 60
f 41 60 42
f 42 60 61
f 42 61 81
f 42 81 62
f 42 62 63
f 42 63 43
f 44 57 46
f 44 46 45
f 46 57 47
f 47 63 64
f 47 64 48
f 47 57 63
f 48 64 49
f 49 65 50
f 49 64 62
f 49 62 65
f 50 66 67
f 50 67 51
f 50 65 66
f 51 67 68
f 51 68 69
f 51 69 52
f 52 69 70
f 53 71 72
f 53 72 54
f 54 72 73
f 54 73 58
f 54 58 55
f 55 58 56
f 58 73 74
f 58 74 75
f 58 75 76
f 58 76 59
f 59 76 77
f 59 77 78
f 59 78 61
f 59 61 79
f 59 79 60
f 60 79 61
f 61 78 80
f 61 80 82
f 61 82 81
f 62 64 63
f 62 81 82
f 62 82 83
f 62 83 65
f 65 83 66
f 66 84 85
f 66 85 67
f 66 83 84
f 67 85 86
f 67 86 68
f 68 86 87
f 68 87 88
f 68 88 89
f 68 89 70
f 68 70 69
f 71 90 91
f 71 91 74
f 71 74 72
f 72 74 73
f 74 91 92
f 74 92 76
f 74 76 75
f 76 92 93
f 76 93 77
f 77 93 78
f 78 93 86
f 78 86 94
f 78 94 82
f 78 82 80
f 82 94 95
f 82 95 84
f 82 84 83
f 84 95 85
f 85 94 86
f 85 95 94
f 86 93 96
f 86 96 87
f 87 96 99
f 87 99 97
f 87 97 88
f 88 97 99
f 88 99 98
f 90 98 92
f 90 92 91
f 92 98 96
f 92 96 93
f 96 98 99

