# https://github.com/mikedh/trimesh
v 0.06234035 -0.01896973 0.01599111
v 0.06446925 -0.02121577 0.00766726
v 0.06258681 -0.01896973 0.01452964
v 0.06059658 -0.01896973 0.01599111
v 0.06374703 -0.02447356 0.01599111
v 0.06459282 -0.02121577 0.00614923
v 0.06413423 -0.01896973 0.00390195
v 0.06400997 -0.01896973 0.00541998
v 0.06391042 -0.01896973 0.00614625
v 0.06407725 -0.02577120 0.01599111
v 0.06455987 -0.02273425 0.00918380
v 0.06048880 -0.01896973 0.01598814
v 0.06049154 -0.01897144 0.01599111
v 0.06439511 -0.01969729 0.00078702
v 0.06424750 -0.01896973 0.00159366
v 0.06418915 -0.01896973 0.00311169
v 0.06467040 -0.02273425 0.00766726
v 0.06403949 -0.02663058 0.01599111
v 0.06413080 -0.02577120 0.01525740
v 0.06047987 -0.01896973 0.01539283
v 0.05765689 -0.02025709 0.00771340
v 0.05765689 -0.02031016 0.00815094
v 0.05765689 -0.02040261 0.00855278
v 0.05765689 -0.02156329 0.01124504
v 0.05765689 -0.02181323 0.01181058
v 0.05765689 -0.02196902 0.01212163
v 0.05765689 -0.02244835 0.01296250
v 0.05765689 -0.02340875 0.01464275
v 0.05765689 -0.02345497 0.01471865
v 0.05765689 -0.02385727 0.01535860
v 0.05765689 -0.02427498 0.01599111
v 0.06425162 -0.01896973 0.00078702
v 0.06447062 -0.02121577 0.00311169
v 0.06425918 -0.02055839 0.00078702
v 0.06446650 -0.02273425 0.00614923
v 0.06395024 -0.02722120 0.01599111
v 0.06394200 -0.02701577 0.01525740
v 0.06134420 -0.01896973 0.00843074
v 0.05765689 -0.02025367 0.00711065
v 0.05765689 -0.03645703 0.01599111
v 0.06269322 -0.01896973 0.00078702
v 0.06408411 -0.02121406 0.00078702
v 0.06405253 -0.02258873 0.00311169
v 0.06079087 -0.03463725 0.01599111
v 0.06145267 -0.01896973 0.00765535
v 0.05765689 -0.02030503 0.00675347
v 0.05765689 -0.02960933 0.00402250
v 0.05856722 -0.03098058 0.00700796
v 0.05923589 -0.03129558 0.00802147
v 0.06056981 -0.03413737 0.01446862
v 0.05979884 -0.03531517 0.01599111
v 0.06282091 -0.01969729 0.00078702
v 0.05765689 -0.02820555 0.00223510
v 0.05765689 -0.02773477 0.00222170
v 0.06315456 -0.02121406 0.00078702
v 0.06388159 -0.02230969 0.00186154
v 0.05897090 -0.02800868 0.00241667
v 0.05795828 -0.02820555 0.00223510
v 0.05765689 -0.02943985 0.00374271
f 1 2 3
f 1 3 9
f 1 9 8
f 1 8 7
f 1 7 16
f 1 16 15
f 1 15 32
f 1 32 41
f 1 41 45
f 1 45 38
f 1 38 20
f 1 20 12
f 1 12 4
f 1 4 13
f 1 13 31
f 1 31 40
f 1 40 51
f 1 51 44
f 1 44 36
f 1 36 18
f 1 18 10
f 1 10 5
f 1 5 2
f 2 6 7
f 2 7 8
f 2 8 9
f 2 9 3
f 2 5 10
f 2 10 11
f 2 11 6
f 4 12 13
f 6 14 15
f 6 15 16
f 6 16 7
f 6 11 17
f 6 17 14
f 10 18 19
f 10 19 11
f 11 19 17
f 12 20 21
f 12 21 22
f 12 22 23
f 12 23 24
f 12 24 25
f 12 25 26
f 12 26 27
f 12 27 28
f 12 28 29
f 12 29 30
f 12 30 31
f 12 31 13
f 14 32 15
f 14 17 33
f 14 33 34
f 14 34 42
f 14 42 55
f 14 55 52
f 14 52 41
f 14 41 32
f 17 35 33
f 17 19 18
f 17 18 36
f 17 36 37
f 17 37 35
f 20 38 39
f 20 39 21
f 21 39 46
f 21 46 54
f 21 54 53
f 21 53 59
f 21 59 47
f 21 47 40
f 21 40 31
f 21 31 30
f 21 30 29
f 21 29 28
f 21 28 27
f 21 27 26
f 21 26 25
f 21 25 24
f 21 24 23
f 21 23 22
f 33 42 34
f 33 35 43
f 33 43 42
f 35 37 44
f 35 44 43
f 36 44 37
f 38 45 39
f 39 45 41
f 39 41 46
f 40 47 48
f 40 48 49
f 40 49 50
f 40 50 51
f 41 52 53
f 41 53 54
f 41 54 46
f 42 43 56
f 42 56 57
f 42 57 58
f 42 58 53
f 42 53 55
f 43 44 56
f 44 51 50
f 44 50 56
f 47 59 49
f 47 49 48
f 49 59 57
f 49 57 50
f 50 57 56
f 52 55 53
f 53 58 59
f 57 59 58

