# https://github.com/mikedh/trimesh
v 0.05366992 -0.03361719 -0.03150617
v 0.05238929 -0.03361719 -0.03132180
v 0.05238929 -0.03360052 -0.03131663
v 0.05365287 -0.03324337 -0.03138297
v 0.05524338 -0.03229255 -0.03115726
v 0.05524338 -0.03336242 -0.03145362
v 0.05524338 -0.03361719 -0.03149669
v 0.05238929 -0.03361719 -0.02949454
v 0.05238929 -0.03355370 -0.03130113
v 0.05411117 -0.03245367 -0.03112193
v 0.05524338 -0.03153301 -0.03083850
v 0.05618204 -0.03233858 -0.03112280
v 0.05640568 -0.03336242 -0.03119516
v 0.05646986 -0.03361719 -0.03119947
v 0.05238929 -0.03354258 -0.02945147
v 0.05948340 -0.03361719 -0.02270584
v 0.05238929 -0.03079569 -0.02991410
v 0.05524338 -0.03032583 -0.03022166
v 0.05238929 -0.03058854 -0.02980641
v 0.05375817 -0.03024170 -0.02989428
v 0.05632244 -0.02933930 -0.02968235
v 0.05680180 -0.03029647 -0.02996234
v 0.05671756 -0.03183698 -0.03067481
v 0.05716483 -0.03336242 -0.03086090
v 0.05720695 -0.03361719 -0.03088502
v 0.05660223 -0.03361719 -0.03115123
v 0.05238929 -0.03330290 -0.02931362
v 0.06263433 -0.03361719 -0.02270584
v 0.05902510 -0.02550903 -0.02270584
v 0.05238929 -0.02550903 -0.02484066
v 0.05524338 -0.02934168 -0.02967718
v 0.05238929 -0.02776783 -0.02817901
v 0.05428667 -0.02949486 -0.02957725
v 0.05641971 -0.02550903 -0.02672220
v 0.05676269 -0.02773925 -0.02824880
v 0.05680180 -0.02882341 -0.02904828
v 0.05733531 -0.02977105 -0.02942734
v 0.05524338 -0.02858293 -0.02919301
v 0.05524338 -0.02741623 -0.02843402
v 0.05524338 -0.02550903 -0.02712194
v 0.05766525 -0.03078299 -0.02970475
v 0.05783974 -0.03184413 -0.02990376
v 0.05803630 -0.03336242 -0.03010104
v 0.05806538 -0.03361719 -0.03012947
v 0.06085127 -0.03361719 -0.02689278
v 0.06199351 -0.02728924 -0.02315813
v 0.06198048 -0.02577095 -0.02270584
v 0.06184509 -0.02550903 -0.02270584
v 0.05238929 -0.02550903 -0.02686262
v 0.05372508 -0.02752258 -0.02832030
v 0.05372508 -0.02550903 -0.02711936
v 0.05716081 -0.02550903 -0.02628369
v 0.05753688 -0.02803688 -0.02802653
v 0.06057048 -0.02651224 -0.02499487
v 0.05487634 -0.02550903 -0.02713917
v 0.05896292 -0.02980439 -0.02794210
v 0.06068781 -0.02728924 -0.02513185
v 0.06089841 -0.02880833 -0.02538083
v 0.05911034 -0.03081711 -0.02810062
v 0.05859889 -0.03184413 -0.02902071
v 0.05945231 -0.03336242 -0.02849950
v 0.05882854 -0.03361719 -0.02929812
v 0.05824589 -0.03361719 -0.02994597
v 0.06024255 -0.03361719 -0.02765177
v 0.06083523 -0.03336242 -0.02685401
v 0.06180899 -0.02577095 -0.02306078
v 0.06190025 -0.02561539 -0.02270584
v 0.06171171 -0.02550903 -0.02298238
v 0.05823285 -0.02550903 -0.02564359
v 0.05832411 -0.02573682 -0.02576679
v 0.05873628 -0.02676224 -0.02631901
v 0.05979829 -0.02620350 -0.02523523
v 0.05984542 -0.02550903 -0.02466147
v 0.06088537 -0.02550903 -0.02394383
v 0.06095958 -0.02591222 -0.02415145
v 0.06136473 -0.02728924 -0.02422123
v 0.06069082 -0.03210128 -0.02665673
v 0.06045315 -0.03032583 -0.02637846
v 0.05960575 -0.03031710 -0.02736489
v 0.05924873 -0.03184413 -0.02826172
v 0.05946735 -0.03361719 -0.02855894
v 0.06021146 -0.03336242 -0.02761214
v 0.06151515 -0.02550903 -0.02321154
v 0.05979829 -0.02550903 -0.02469076
f 1 2 3
f 1 3 4
f 1 4 5
f 1 5 6
f 1 6 7
f 1 7 14
f 1 14 26
f 1 26 25
f 1 25 44
f 1 44 63
f 1 63 62
f 1 62 81
f 1 81 64
f 1 64 45
f 1 45 28
f 1 28 16
f 1 16 8
f 1 8 2
f 2 8 15
f 2 15 27
f 2 27 30
f 2 30 49
f 2 49 32
f 2 32 19
f 2 19 17
f 2 17 9
f 2 9 3
f 3 9 4
f 4 9 10
f 4 10 5
f 5 10 11
f 5 11 12
f 5 12 6
f 6 12 7
f 7 12 13
f 7 13 14
f 8 16 15
f 9 17 10
f 10 18 11
f 10 17 19
f 10 19 20
f 10 20 18
f 11 18 21
f 11 21 12
f 12 21 22
f 12 22 23
f 12 23 24
f 12 24 25
f 12 25 26
f 12 26 13
f 13 26 14
f 15 16 27
f 16 28 47
f 16 47 67
f 16 67 48
f 16 48 29
f 16 29 30
f 16 30 27
f 18 31 21
f 18 20 31
f 19 32 33
f 19 33 20
f 20 33 31
f 21 34 35
f 21 35 36
f 21 36 37
f 21 37 22
f 21 31 38
f 21 38 39
f 21 39 40
f 21 40 34
f 22 37 41
f 22 41 23
f 23 41 24
f 24 41 42
f 24 42 43
f 24 43 25
f 25 43 44
f 28 45 46
f 28 46 47
f 29 48 68
f 29 68 83
f 29 83 74
f 29 74 73
f 29 73 84
f 29 84 69
f 29 69 52
f 29 52 34
f 29 34 40
f 29 40 55
f 29 55 51
f 29 51 49
f 29 49 30
f 31 33 50
f 31 50 51
f 31 51 38
f 32 49 50
f 32 50 33
f 34 52 53
f 34 53 35
f 35 53 36
f 36 53 37
f 37 53 54
f 37 54 41
f 38 51 39
f 39 51 55
f 39 55 40
f 41 54 56
f 41 56 42
f 42 56 57
f 42 57 58
f 42 58 59
f 42 59 60
f 42 60 61
f 42 61 62
f 42 62 63
f 42 63 43
f 43 63 44
f 45 64 65
f 45 65 46
f 46 66 47
f 46 65 66
f 47 66 67
f 48 67 68
f 49 51 50
f 52 69 70
f 52 70 71
f 52 71 53
f 53 71 54
f 54 71 72
f 54 72 73
f 54 73 74
f 54 74 75
f 54 75 66
f 54 66 57
f 54 57 56
f 57 66 76
f 57 76 58
f 58 76 65
f 58 65 77
f 58 77 78
f 58 78 79
f 58 79 59
f 59 79 78
f 59 78 60
f 60 80 61
f 60 78 80
f 61 81 62
f 61 80 78
f 61 78 82
f 61 82 81
f 64 82 77
f 64 77 65
f 64 81 82
f 65 76 66
f 66 75 83
f 66 83 68
f 66 68 67
f 69 84 70
f 70 84 72
f 70 72 71
f 72 84 73
f 74 83 75
f 77 82 78

