# https://github.com/mikedh/trimesh
v -0.07503884 -0.04213860 -0.02370599
v -0.07440815 -0.04213860 -0.02370599
v -0.07519166 -0.04213860 -0.02350438
v -0.07622358 -0.03791641 -0.02215067
v -0.07620033 -0.03680039 -0.02205946
v -0.07494585 -0.04095484 -0.02358118
v -0.07449554 -0.04095484 -0.02358118
v -0.07388552 -0.02576914 -0.02056175
v -0.07388552 -0.02667229 -0.02066736
v -0.07425059 -0.04213860 -0.02289473
v -0.07557567 -0.04213860 -0.02267871
v -0.07610907 -0.04024523 -0.02201626
v -0.07615556 -0.03943563 -0.02211707
v -0.07636220 -0.03791641 -0.02118099
v -0.07671866 -0.03488121 -0.01966408
v -0.07669024 -0.03336199 -0.01966408
v -0.07465526 -0.02030836 -0.01896802
v -0.07640697 -0.03488121 -0.02092177
v -0.07618914 -0.01088019 -0.01447008
v -0.07472974 -0.04015492 -0.02348037
v -0.07457088 -0.04015492 -0.02348037
v -0.07437371 -0.02030836 -0.01896802
v -0.07388552 -0.02112119 -0.01914564
v -0.07388552 -0.02682066 -0.01958247
v -0.07421873 -0.04213860 -0.02118099
v -0.07422519 -0.04213860 -0.02269791
v -0.07561872 -0.04213860 -0.02234748
v -0.07611208 -0.04027103 -0.02118099
v -0.07620765 -0.03943563 -0.02118099
v -0.07655377 -0.03639720 -0.01966408
v -0.07765027 -0.02677550 -0.01055298
v -0.07763692 -0.02666261 -0.01206989
v -0.07762314 -0.02654327 -0.01283315
v -0.07762314 -0.02652714 -0.01283315
v -0.07477193 -0.01714091 -0.01751831
v -0.07625328 -0.00946097 -0.01331319
v -0.07534449 -0.01004156 -0.01417725
v -0.07534449 -0.01080278 -0.01453728
v -0.07388552 -0.02046963 -0.01889122
v -0.07428718 -0.01714091 -0.01751831
v -0.07388552 -0.02346613 0.01680433
v -0.07421873 -0.04213860 0.02284800
v -0.07562088 -0.04213860 -0.02118099
v -0.07611208 -0.04027103 0.02284800
v -0.07672684 -0.03488121 -0.01814716
v -0.07620765 -0.03943563 0.02284800
v -0.07793783 -0.02425316 -0.00295879
v -0.07793741 -0.02425316 -0.00448051
v -0.07776134 -0.02576914 -0.00903606
v -0.07828224 -0.02121795 0.00310888
v -0.07769331 -0.02490148 -0.01016895
v -0.07630107 -0.00937065 -0.01206989
v -0.07534449 -0.00918680 -0.01206989
v -0.07534449 -0.00939001 -0.01341880
v -0.07818667 -0.02121795 0.00159196
v -0.07388552 -0.01050603 -0.01370202
v -0.07431172 -0.01108662 -0.01447968
v -0.07429880 -0.01410893 -0.01600620
v -0.07428589 -0.00961257 -0.01313558
v -0.07388552 -0.01733121 -0.01742711
v -0.07388552 -0.02273394 0.01732757
v -0.07422519 -0.04213860 0.02403369
v -0.07562088 -0.04213860 0.02284800
v -0.07610907 -0.04024523 0.02365446
v -0.07672684 -0.03488121 0.01981416
v -0.07655377 -0.03639720 0.02133108
v -0.07793783 -0.02425316 -0.00144187
v -0.07811047 -0.02273394 0.00007504
v -0.07828267 -0.02121795 0.00462579
v -0.07610476 -0.00981900 0.01146632
v -0.07546805 -0.00956741 0.01079907
v -0.07502765 -0.00923518 -0.00751434
v -0.07419290 -0.00923518 -0.00751434
v -0.07388552 -0.01063183 -0.01381243
v -0.07388552 -0.01036089 -0.01356761
v -0.07388552 -0.01128983 -0.01436447
v -0.07388552 -0.01194461 -0.01470530
v -0.07388552 -0.01495724 -0.01623181
v -0.07388552 -0.01023186 -0.01242032
v -0.07388552 -0.00944807 -0.00511416
v -0.07388552 -0.01981485 0.01671793
v -0.07423896 -0.04213860 0.02438892
v -0.07550464 -0.04213860 0.02436491
v -0.07500224 -0.04213860 0.02533459
v -0.07615556 -0.03943563 0.02374567
v -0.07670703 -0.03488121 0.02133108
v -0.07764941 -0.02677228 0.01221998
v -0.07811047 -0.02273394 0.00614751
v -0.07776478 -0.02576914 0.00918134
v -0.07763993 -0.02668841 0.01303604
v -0.07763993 -0.02648198 0.01303604
v -0.07653957 -0.03326523 0.02143669
v -0.07631355 -0.03370712 0.02231035
v -0.07483392 -0.01108662 0.01309365
v -0.07534449 -0.00958999 0.01168714
v -0.07440944 -0.00951903 0.01175914
v -0.07388552 -0.00949000 -0.00305000
v -0.07388552 -0.01848917 0.01626669
v -0.07448995 -0.04125482 0.02524338
v -0.07441848 -0.04213860 0.02533459
v -0.07489333 -0.04125482 0.02524338
v -0.07618053 -0.03690038 0.02369766
v -0.07620894 -0.03791641 0.02377447
v -0.07639535 -0.03488121 0.02252637
v -0.07688009 -0.03336199 0.01981416
v -0.07465181 -0.01428311 0.01453856
v -0.07410292 -0.01108662 0.01309365
v -0.07394493 -0.01058344 0.01224398
v -0.07388552 -0.01069957 0.01223918
v -0.07587014 -0.03690038 0.02369766
v -0.07388552 -0.01487337 0.01474017
v -0.07426566 -0.01428311 0.01453856
v -0.07388552 -0.01383153 0.01429374
v -0.07388552 -0.01154465 0.01325686
v -0.07388552 -0.01090277 0.01251280
f 1 2 10
f 1 10 26
f 1 26 25
f 1 25 42
f 1 42 62
f 1 62 82
f 1 82 100
f 1 100 84
f 1 84 83
f 1 83 63
f 1 63 43
f 1 43 27
f 1 27 11
f 1 11 3
f 1 3 4
f 1 4 5
f 1 5 6
f 1 6 7
f 1 7 2
f 2 7 8
f 2 8 9
f 2 9 10
f 3 11 12
f 3 12 13
f 3 13 4
f 4 13 14
f 4 14 15
f 4 15 16
f 4 16 5
f 5 17 6
f 5 16 18
f 5 18 19
f 5 19 17
f 6 20 21
f 6 21 7
f 6 17 8
f 6 8 20
f 7 21 8
f 8 21 20
f 8 17 22
f 8 22 23
f 8 23 39
f 8 39 60
f 8 60 78
f 8 78 77
f 8 77 76
f 8 76 74
f 8 74 56
f 8 56 75
f 8 75 79
f 8 79 80
f 8 80 97
f 8 97 109
f 8 109 115
f 8 115 114
f 8 114 113
f 8 113 111
f 8 111 98
f 8 98 81
f 8 81 61
f 8 61 41
f 8 41 24
f 8 24 9
f 9 24 25
f 9 25 26
f 9 26 10
f 11 27 12
f 12 27 28
f 12 28 29
f 12 29 15
f 12 15 14
f 12 14 13
f 15 29 30
f 15 30 31
f 15 31 32
f 15 32 33
f 15 33 34
f 15 34 16
f 16 34 19
f 16 19 18
f 17 35 40
f 17 40 22
f 17 19 35
f 19 34 36
f 19 36 37
f 19 37 38
f 19 38 35
f 22 39 23
f 22 40 39
f 24 41 42
f 24 42 25
f 27 43 28
f 28 43 63
f 28 63 44
f 28 44 46
f 28 46 29
f 29 45 30
f 29 46 65
f 29 65 45
f 30 45 31
f 31 45 47
f 31 47 48
f 31 48 49
f 31 49 32
f 32 49 33
f 33 49 50
f 33 50 34
f 34 51 36
f 34 50 51
f 35 38 40
f 36 52 53
f 36 53 54
f 36 54 37
f 36 51 55
f 36 55 50
f 36 50 52
f 37 56 57
f 37 57 58
f 37 58 40
f 37 40 38
f 37 54 59
f 37 59 56
f 39 40 60
f 40 58 60
f 41 61 62
f 41 62 42
f 44 63 64
f 44 64 46
f 45 65 67
f 45 67 47
f 46 64 66
f 46 66 65
f 47 67 88
f 47 88 68
f 47 68 48
f 48 68 50
f 48 50 49
f 50 55 51
f 50 68 69
f 50 69 52
f 52 69 70
f 52 70 71
f 52 71 53
f 53 59 54
f 53 71 72
f 53 72 73
f 53 73 59
f 56 74 57
f 56 59 75
f 57 74 76
f 57 76 77
f 57 77 58
f 58 78 60
f 58 77 78
f 59 79 75
f 59 73 80
f 59 80 79
f 61 81 82
f 61 82 62
f 63 83 64
f 64 83 84
f 64 84 85
f 64 85 86
f 64 86 66
f 65 66 87
f 65 87 88
f 65 88 89
f 65 89 67
f 66 86 87
f 67 89 88
f 68 88 69
f 69 88 87
f 69 87 90
f 69 90 91
f 69 91 70
f 70 91 92
f 70 92 93
f 70 93 94
f 70 94 95
f 70 95 71
f 71 95 96
f 71 96 72
f 72 96 73
f 73 96 97
f 73 97 80
f 81 98 99
f 81 99 100
f 81 100 82
f 84 100 99
f 84 99 101
f 84 101 102
f 84 102 103
f 84 103 85
f 85 103 86
f 86 103 104
f 86 104 92
f 86 92 105
f 86 105 87
f 87 105 90
f 90 105 91
f 91 105 92
f 92 104 93
f 93 104 102
f 93 102 106
f 93 106 94
f 94 96 95
f 94 106 112
f 94 112 107
f 94 107 96
f 96 107 108
f 96 108 109
f 96 109 97
f 98 106 102
f 98 102 110
f 98 110 99
f 98 111 112
f 98 112 106
f 99 110 102
f 99 102 101
f 102 104 103
f 107 112 113
f 107 113 114
f 107 114 108
f 108 114 115
f 108 115 109
f 111 113 112

