# https://github.com/mikedh/trimesh
v -0.05739665 -0.01545620 0.01485903
v -0.05712271 -0.01546446 0.01485903
v -0.05739665 -0.01492486 0.01373995
v -0.05739665 -0.03936661 0.01485903
v -0.05712271 -0.01493862 0.01373995
v -0.05739665 -0.01348775 0.01070268
v -0.05560356 -0.01572600 0.01485903
v -0.05739665 -0.03053201 -0.00124306
v -0.05530150 -0.04021181 -0.00124306
v -0.05626713 -0.04021181 0.01485903
v -0.05712271 -0.01351528 0.01070268
v -0.05739665 -0.01299771 0.00963562
v -0.05558267 -0.01573150 0.01485903
v -0.05485724 -0.01438801 0.01145294
v -0.05560356 -0.01522494 0.01373995
v -0.05586947 -0.01426137 0.01173349
v -0.05712271 -0.01301147 0.00960094
v -0.05739665 -0.01272515 -0.00124306
v -0.05389883 -0.04021181 -0.00124306
v -0.05346100 -0.04021181 0.01485903
v -0.05739665 -0.01266458 0.00887748
v -0.05494079 -0.01590495 0.01485903
v -0.05459133 -0.01419529 0.01044104
v -0.05628079 -0.01280774 0.00855752
v -0.05712271 -0.01267835 0.00884123
v -0.05473111 -0.01585264 0.01461157
v -0.05408521 -0.01506802 0.01222053
v -0.05739665 -0.01261778 -0.00052591
v -0.05670898 -0.01304176 -0.00124306
v -0.05053759 -0.02425501 -0.00124306
v -0.05027007 -0.02655382 0.00378175
v -0.05091838 -0.03598860 0.01485903
v -0.05109913 -0.03643459 0.01485903
v -0.05139156 -0.03707606 0.01485903
v -0.05739665 -0.01227640 0.00766541
v -0.05446681 -0.01617200 0.01485903
v -0.05311877 -0.01565442 0.01222053
v -0.05408521 -0.01464680 0.01084927
v -0.05295971 -0.01546996 0.01070268
v -0.05449894 -0.01411270 0.00918484
v -0.05625990 -0.01278847 0.00766541
v -0.05712271 -0.01219656 0.00614914
v -0.05712271 -0.01233697 0.00766541
v -0.05329310 -0.01586365 0.01305274
v -0.05416957 -0.01568195 0.01363119
v -0.05739665 -0.01254070 0.00014554
v -0.05733560 -0.01256272 0.00007461
v -0.05725606 -0.01244434 0.00159403
v -0.05657642 -0.01301147 0.00007461
v -0.05582689 -0.01369974 -0.00124306
v -0.05022750 -0.02107246 -0.00124306
v -0.04940887 -0.02728889 0.01222053
v -0.04929158 -0.02840664 0.01485903
v -0.05739665 -0.01209195 0.00614914
v -0.05396391 -0.01650237 0.01485903
v -0.05232024 -0.01674464 0.01219688
v -0.05173057 -0.01730351 0.01167518
v -0.05220054 -0.01648309 0.01070268
v -0.05219893 -0.01647759 0.00918484
v -0.05166068 -0.01724845 0.00007461
v -0.05295890 -0.01549474 0.00918484
v -0.05373977 -0.01473490 0.00918484
v -0.05456642 -0.01415400 0.00766541
v -0.05631372 -0.01282426 0.00614914
v -0.05699095 -0.01238102 0.00471326
v -0.05720063 -0.01234798 0.00311188
v -0.05739665 -0.01225438 0.00331835
v -0.05318625 -0.01721816 0.01485903
v -0.05057053 -0.02083019 0.01485903
v -0.05042110 -0.02064023 0.01421438
v -0.05020179 -0.02032087 0.01320248
v -0.05739665 -0.01238653 0.00174692
v -0.05649689 -0.01297568 0.00159403
v -0.05380725 -0.01478170 0.00766541
v -0.05570558 -0.01380160 -0.00124306
v -0.05022588 -0.02012265 -0.00124306
v -0.04919036 -0.02728889 0.01485903
v -0.04927953 -0.02728889 0.01373995
v -0.05105816 -0.01817898 0.01070268
v -0.05055687 -0.01933803 0.01222053
v -0.05041789 -0.01918936 0.01070268
v -0.05167273 -0.01722092 0.00462972
v -0.05103406 -0.01817898 0.00614914
v -0.05100996 -0.01817898 0.00159403
v -0.05100193 -0.01817898 0.00007461
v -0.05166871 -0.01722642 0.00311188
v -0.05166871 -0.01726772 -0.00124306
v -0.05100594 -0.01817898 -0.00124306
v -0.05297256 -0.01553879 0.00766541
v -0.05300229 -0.01559661 0.00614914
v -0.05177556 -0.01716861 -0.00124306
v -0.05304004 -0.01565167 0.00462972
v -0.05309307 -0.01570673 0.00311188
v -0.05009333 -0.02157077 0.01485903
v -0.04978324 -0.02232786 0.01485903
v -0.04999050 -0.02117432 0.01372104
v -0.05010940 -0.02009512 0.01222053
v -0.05264640 -0.01641151 -0.00124306
v -0.05038656 -0.01936280 -0.00124306
v -0.05020982 -0.02008411 0.00007461
v -0.04983385 -0.02121562 0.01070268
v -0.04957918 -0.02273532 0.01373995
v -0.04942253 -0.02385306 0.01485903
v -0.04938638 -0.02425501 0.01485903
v -0.04929319 -0.02537276 0.01485903
v -0.04921125 -0.02688695 0.01485903
v -0.05007405 -0.01994921 0.01070268
v -0.05040985 -0.01921689 0.00766541
v -0.05040584 -0.01923066 0.00614914
v -0.05040182 -0.01924718 0.00462972
v -0.05039780 -0.01926920 0.00311188
v -0.05092481 -0.01833040 -0.00124306
v -0.04967639 -0.02273532 0.01485903
v -0.04980814 -0.02121562 0.01222053
v -0.05038977 -0.01932701 0.00007461
v -0.05015278 -0.02000702 0.00462972
v -0.05017206 -0.02002629 0.00311188
v -0.05019054 -0.02005383 0.00159403
v -0.05039379 -0.01929398 0.00159403
f 1 2 3
f 1 3 6
f 1 6 12
f 1 12 21
f 1 21 35
f 1 35 54
f 1 54 67
f 1 67 72
f 1 72 46
f 1 46 28
f 1 28 18
f 1 18 8
f 1 8 4
f 1 4 10
f 1 10 20
f 1 20 34
f 1 34 33
f 1 33 32
f 1 32 53
f 1 53 77
f 1 77 106
f 1 106 105
f 1 105 104
f 1 104 103
f 1 103 113
f 1 113 95
f 1 95 94
f 1 94 69
f 1 69 68
f 1 68 55
f 1 55 36
f 1 36 22
f 1 22 13
f 1 13 7
f 1 7 2
f 2 5 6
f 2 6 3
f 2 7 5
f 4 8 9
f 4 9 10
f 5 7 11
f 5 11 6
f 6 11 12
f 7 13 14
f 7 14 15
f 7 15 16
f 7 16 17
f 7 17 11
f 8 18 29
f 8 29 50
f 8 50 75
f 8 75 98
f 8 98 91
f 8 91 87
f 8 87 88
f 8 88 112
f 8 112 99
f 8 99 76
f 8 76 51
f 8 51 30
f 8 30 19
f 8 19 9
f 9 19 20
f 9 20 10
f 11 17 12
f 12 17 21
f 13 22 14
f 14 23 24
f 14 24 25
f 14 25 17
f 14 17 16
f 14 16 15
f 14 22 26
f 14 26 27
f 14 27 23
f 17 25 21
f 18 28 29
f 19 30 31
f 19 31 32
f 19 32 33
f 19 33 34
f 19 34 20
f 21 25 35
f 22 36 26
f 23 27 37
f 23 37 38
f 23 38 39
f 23 39 40
f 23 40 24
f 24 41 42
f 24 42 43
f 24 43 25
f 24 40 41
f 25 43 35
f 26 36 44
f 26 44 45
f 26 45 27
f 27 45 44
f 27 44 37
f 28 46 47
f 28 47 29
f 29 47 48
f 29 48 49
f 29 49 50
f 30 51 52
f 30 52 31
f 31 52 53
f 31 53 32
f 35 43 54
f 36 55 44
f 37 39 38
f 37 44 56
f 37 56 57
f 37 57 39
f 39 57 58
f 39 58 59
f 39 59 60
f 39 60 61
f 39 61 62
f 39 62 40
f 40 62 63
f 40 63 64
f 40 64 41
f 41 64 42
f 42 54 43
f 42 64 65
f 42 65 66
f 42 66 67
f 42 67 54
f 44 55 68
f 44 68 69
f 44 69 70
f 44 70 71
f 44 71 56
f 46 72 47
f 47 72 48
f 48 72 67
f 48 67 66
f 48 66 49
f 49 66 65
f 49 65 64
f 49 64 73
f 49 73 50
f 50 73 64
f 50 64 63
f 50 63 62
f 50 62 74
f 50 74 75
f 51 76 77
f 51 77 78
f 51 78 52
f 52 78 53
f 53 78 77
f 56 71 57
f 57 79 58
f 57 71 80
f 57 80 81
f 57 81 79
f 58 82 59
f 58 79 83
f 58 83 84
f 58 84 85
f 58 85 82
f 59 82 86
f 59 86 60
f 60 87 61
f 60 86 85
f 60 85 88
f 60 88 87
f 61 87 89
f 61 89 62
f 62 89 90
f 62 90 91
f 62 91 92
f 62 92 93
f 62 93 74
f 69 94 70
f 70 94 71
f 71 94 95
f 71 95 96
f 71 96 97
f 71 97 80
f 74 93 75
f 75 93 98
f 76 99 100
f 76 100 101
f 76 101 102
f 76 102 103
f 76 103 104
f 76 104 105
f 76 105 106
f 76 106 77
f 79 81 83
f 80 97 81
f 81 97 107
f 81 107 108
f 81 108 85
f 81 85 84
f 81 84 83
f 82 85 86
f 85 108 109
f 85 109 88
f 87 91 90
f 87 90 89
f 88 109 110
f 88 110 111
f 88 111 112
f 91 98 93
f 91 93 92
f 95 113 114
f 95 114 97
f 95 97 96
f 97 114 107
f 99 112 115
f 99 115 107
f 99 107 116
f 99 116 117
f 99 117 118
f 99 118 100
f 100 118 114
f 100 114 101
f 101 114 102
f 102 113 103
f 102 114 113
f 107 115 119
f 107 119 111
f 107 111 110
f 107 110 109
f 107 109 108
f 107 114 116
f 111 119 112
f 112 119 115
f 114 118 117
f 114 117 116

