# https://github.com/mikedh/trimesh
v 0.05524164 -0.01657865 0.02136100
v 0.05521651 -0.01657952 0.02136100
v 0.05444880 -0.01740215 0.02362924
v 0.05452316 -0.01740215 0.02362924
v 0.05511491 -0.01720021 0.02278298
v 0.05664509 -0.01709093 0.02136100
v 0.05372822 -0.01663897 0.02136100
v 0.05372508 -0.02000466 0.02546832
v 0.05372508 -0.02177406 0.02679690
v 0.05439748 -0.02347439 0.02817862
v 0.05385600 -0.01720633 0.02277573
v 0.05282959 -0.01734358 0.02221934
v 0.05343706 -0.01770375 0.02323228
v 0.05265154 -0.01871608 0.02386034
v 0.05237714 -0.01914881 0.02415262
v 0.05237714 -0.02024420 0.02528956
v 0.05248501 -0.02021710 0.02531050
v 0.05237714 -0.02193928 0.02666887
v 0.05268296 -0.02189819 0.02670430
v 0.05617169 -0.01733309 0.02223142
v 0.05450954 -0.02347439 0.02817862
v 0.05474101 -0.02178280 0.02678965
v 0.05511491 -0.01823352 0.02392395
v 0.05619473 -0.01877553 0.02372989
v 0.05903200 -0.01894425 0.02208648
v 0.05956615 -0.01870472 0.02136100
v 0.05667546 -0.01710317 0.02136100
v 0.05369680 -0.01665033 0.02136100
v 0.05237714 -0.02534781 0.02924631
v 0.05382458 -0.02415190 0.02859169
v 0.05372508 -0.02550954 0.02958691
v 0.05237714 -0.01717835 0.02144796
v 0.05237714 -0.01749307 0.02200838
v 0.05237714 -0.01799311 0.02268072
v 0.05237714 -0.01813910 0.02287397
v 0.05237714 -0.01837427 0.02317914
v 0.05237714 -0.01881312 0.02374439
v 0.05237714 -0.02047411 0.02547879
v 0.05718343 -0.01761196 0.02178292
v 0.05741385 -0.01748607 0.02136100
v 0.05530762 -0.02550954 0.02917948
v 0.05510653 -0.02433636 0.02845077
v 0.05552128 -0.02388701 0.02787667
v 0.05575379 -0.02218231 0.02649414
v 0.05613503 -0.02489935 0.02824706
v 0.05676239 -0.02157212 0.02542403
v 0.05720752 -0.01920564 0.02341506
v 0.05979761 -0.02002914 0.02240534
v 0.06062083 -0.02038669 0.02214365
v 0.05979761 -0.01926945 0.02180547
v 0.06016523 -0.01909636 0.02136100
v 0.05237714 -0.01714164 0.02136100
v 0.05237714 -0.02550954 0.02936629
v 0.05341925 -0.02550954 0.02953779
v 0.05554537 -0.02550954 0.02903857
v 0.05650579 -0.02550954 0.02845319
v 0.05714677 -0.02533295 0.02793223
v 0.05859525 -0.02235103 0.02485315
v 0.06037994 -0.02219717 0.02347948
v 0.06074337 -0.02320950 0.02377740
v 0.06088476 -0.02121456 0.02241178
v 0.06168808 -0.02112627 0.02136100
v 0.06092770 -0.01987441 0.02136100
v 0.05915349 -0.02336337 0.02522354
v 0.05237714 -0.01939534 0.02136100
v 0.05237714 -0.02550954 0.02725747
v 0.05697815 -0.02550954 0.02816171
v 0.05761703 -0.02550954 0.02770999
v 0.05890841 -0.02518084 0.02654728
v 0.05961014 -0.02550954 0.02612939
v 0.05991806 -0.02550954 0.02586045
v 0.06003117 -0.02550954 0.02575900
v 0.06050981 -0.02508293 0.02507860
v 0.06102511 -0.02425156 0.02407693
v 0.06138854 -0.02550954 0.02441270
v 0.06145661 -0.02550954 0.02433621
v 0.06178444 -0.02425156 0.02322020
v 0.06134350 -0.02276978 0.02282807
v 0.06194258 -0.02233093 0.02184573
v 0.06171845 -0.02118134 0.02136100
v 0.06170169 -0.02115075 0.02136100
v 0.05820459 -0.02550954 0.02728324
v 0.05856174 -0.02550954 0.02702235
v 0.06118012 -0.02550954 0.02136100
v 0.06121887 -0.02550954 0.02458743
v 0.06157916 -0.02550954 0.02419691
v 0.06200752 -0.02516947 0.02351249
v 0.06211959 -0.02334238 0.02217586
v 0.06205466 -0.02196638 0.02136100
v 0.06307582 -0.02550954 0.02136100
v 0.06228507 -0.02550954 0.02315740
v 0.06242437 -0.02550954 0.02287719
v 0.06225365 -0.02425156 0.02246090
f 1 2 3
f 1 3 4
f 1 4 5
f 1 5 6
f 1 6 27
f 1 27 40
f 1 40 26
f 1 26 51
f 1 51 63
f 1 63 62
f 1 62 81
f 1 81 80
f 1 80 89
f 1 89 90
f 1 90 84
f 1 84 65
f 1 65 52
f 1 52 28
f 1 28 7
f 1 7 2
f 2 7 3
f 3 8 9
f 3 9 10
f 3 10 21
f 3 21 4
f 3 7 11
f 3 11 12
f 3 12 13
f 3 13 14
f 3 14 15
f 3 15 16
f 3 16 17
f 3 17 18
f 3 18 19
f 3 19 8
f 4 20 5
f 4 21 22
f 4 22 23
f 4 23 24
f 4 24 25
f 4 25 26
f 4 26 20
f 5 20 6
f 6 20 27
f 7 28 11
f 8 19 29
f 8 29 9
f 9 30 10
f 9 29 30
f 10 30 31
f 10 31 21
f 11 28 12
f 12 28 32
f 12 32 33
f 12 33 34
f 12 34 13
f 13 34 35
f 13 35 36
f 13 36 14
f 14 36 37
f 14 37 15
f 15 37 36
f 15 36 35
f 15 35 34
f 15 34 33
f 15 33 32
f 15 32 52
f 15 52 65
f 15 65 66
f 15 66 53
f 15 53 29
f 15 29 18
f 15 18 38
f 15 38 16
f 16 38 17
f 17 38 18
f 18 29 19
f 20 26 39
f 20 39 40
f 20 40 27
f 21 31 41
f 21 41 42
f 21 42 43
f 21 43 44
f 21 44 24
f 21 24 22
f 22 24 23
f 24 44 45
f 24 45 46
f 24 46 47
f 24 47 25
f 25 47 48
f 25 48 49
f 25 49 50
f 25 50 51
f 25 51 26
f 26 40 39
f 28 52 32
f 29 53 54
f 29 54 30
f 30 54 31
f 31 54 53
f 31 53 66
f 31 66 84
f 31 84 90
f 31 90 92
f 31 92 91
f 31 91 86
f 31 86 76
f 31 76 75
f 31 75 85
f 31 85 72
f 31 72 71
f 31 71 70
f 31 70 83
f 31 83 82
f 31 82 68
f 31 68 67
f 31 67 56
f 31 56 55
f 31 55 41
f 41 55 42
f 42 55 45
f 42 45 43
f 43 45 44
f 45 55 56
f 45 56 57
f 45 57 58
f 45 58 46
f 46 58 47
f 47 58 48
f 48 58 49
f 49 59 60
f 49 60 61
f 49 61 62
f 49 62 63
f 49 63 51
f 49 51 50
f 49 58 57
f 49 57 64
f 49 64 59
f 56 67 57
f 57 67 68
f 57 68 64
f 59 64 69
f 59 69 60
f 60 70 71
f 60 71 72
f 60 72 73
f 60 73 74
f 60 74 75
f 60 75 76
f 60 76 77
f 60 77 78
f 60 78 61
f 60 69 70
f 61 78 77
f 61 77 79
f 61 79 80
f 61 80 81
f 61 81 62
f 64 68 82
f 64 82 83
f 64 83 69
f 65 84 66
f 69 83 70
f 72 85 73
f 73 85 75
f 73 75 74
f 76 86 87
f 76 87 77
f 77 87 79
f 79 87 88
f 79 88 89
f 79 89 80
f 86 91 87
f 87 91 92
f 87 92 93
f 87 93 88
f 88 93 90
f 88 90 89
f 90 93 92

