# https://github.com/mikedh/trimesh
v -0.07301636 0.01424648 -0.01355741
v -0.07382176 0.01424648 -0.01312964
v -0.07528586 0.01931620 -0.01305689
v -0.07558526 0.02320412 -0.01337117
v -0.07436967 0.02320412 -0.01384841
v -0.07301636 0.02320412 -0.01387460
v -0.07301636 0.01424648 0.01546093
v -0.07576662 0.01424648 -0.01183179
v -0.07541203 0.02021643 -0.01310054
v -0.07553009 0.02170960 -0.01321985
v -0.07651385 0.01424648 -0.01127307
v -0.07666398 0.01923227 -0.01153497
v -0.07666398 0.01983874 -0.01153497
v -0.07550399 0.02469863 -0.01334207
v -0.07436967 0.02469863 -0.01382513
v -0.07301636 0.02469863 -0.01391243
v -0.07301636 0.02807484 0.01570537
v -0.07329095 0.01424648 0.01557733
v -0.07679187 0.01424648 -0.01052230
v -0.07683550 0.01573423 -0.01054267
v -0.07718752 0.01722740 -0.00920117
v -0.07610922 0.02320412 -0.01218972
v -0.07663917 0.02560428 -0.00852314
v -0.07538424 0.02619315 -0.01324895
v -0.07436967 0.02619315 -0.01369127
v -0.07301636 0.02768767 -0.01376402
v -0.07301636 0.02619315 -0.01384259
v -0.07301636 0.02807484 -0.01373201
v -0.07398301 0.02807484 0.01581304
v -0.07436925 0.01424648 0.01573738
v -0.07696852 0.01424648 -0.00920117
v -0.07711009 0.01573423 -0.00920117
v -0.07735133 0.01424648 -0.00023551
v -0.07722430 0.01722740 -0.00770544
v -0.07722344 0.01872191 -0.00471689
v -0.07687998 0.02469863 -0.00621262
v -0.07679444 0.02469863 -0.00770544
v -0.07591504 0.02469863 -0.01218972
v -0.07523239 0.02807484 -0.01308599
v -0.07526362 0.02768767 -0.01312382
v -0.07669178 0.02613900 -0.00762687
v -0.07662977 0.02699998 -0.00707688
v -0.07653139 0.02660063 -0.00807500
v -0.07436967 0.02768767 -0.01353122
v -0.07440004 0.02807484 -0.01346720
v -0.07436967 0.02768767 0.01581595
v -0.07436967 0.02807484 0.01580140
v -0.07586371 0.01424648 0.01572283
v -0.07738555 0.01424648 0.00125731
v -0.07720335 0.02320412 0.00873014
v -0.07675423 0.02619315 -0.00621262
v -0.07719094 0.02469863 0.01321151
v -0.07637912 0.02757396 -0.00762687
v -0.07623626 0.02807484 -0.00765306
v -0.07629357 0.02807484 -0.00621262
v -0.07691634 0.02619315 0.01321151
v -0.07667297 0.02716378 0.01171869
v -0.07641162 0.02807484 0.01022296
v -0.07586371 0.01722740 0.01571701
v -0.07524309 0.02807484 0.01568209
v -0.07554805 0.02768767 0.01565299
v -0.07593428 0.02622970 0.01563553
v -0.07675295 0.02170960 0.01557151
v -0.07674953 0.02021643 0.01557151
v -0.07674568 0.01872191 0.01557151
v -0.07673028 0.01424648 0.01556569
v -0.07736502 0.01424648 0.00275304
v -0.07735133 0.01573423 0.00424586
v -0.07726750 0.02021643 0.01171869
v -0.07723970 0.02021643 0.01321151
v -0.07706818 0.02170960 0.01470725
v -0.07697322 0.02469863 0.01470725
v -0.07679444 0.02622970 0.01468397
v -0.07664730 0.02706902 0.01417181
v -0.07666826 0.02714347 0.01321151
v -0.07641462 0.02807484 0.01191075
v -0.07646252 0.02790968 0.01171869
v -0.07641590 0.02807484 0.01171869
v -0.07548132 0.02807484 0.01563262
v -0.07670462 0.02575454 0.01553659
v -0.07674098 0.01722740 0.01556860
v -0.07705535 0.02021643 0.01470725
v -0.07703824 0.01872191 0.01470725
v -0.07702027 0.01722740 0.01470725
v -0.07700145 0.01573423 0.01470725
v -0.07698264 0.01424648 0.01470725
v -0.07730001 0.01424648 0.00723441
v -0.07732995 0.01573423 0.00574159
v -0.07727819 0.01424648 0.00873014
v -0.07725852 0.01872191 0.01171869
v -0.07724483 0.01722740 0.01171869
v -0.07722130 0.01872191 0.01321151
v -0.07647921 0.02675089 0.01516993
v -0.07614301 0.02807484 0.01469270
v -0.07640478 0.02807484 0.01321151
v -0.07600101 0.02807484 0.01494295
v -0.07719821 0.01722740 0.01321151
v -0.07717169 0.01573423 0.01321151
v -0.07714474 0.01424648 0.01321151
v -0.07724997 0.01424648 0.01022296
v -0.07726365 0.01573423 0.01022296
v -0.07722644 0.01573423 0.01171869
v -0.07720335 0.01424648 0.01171869
f 1 2 3
f 1 3 4
f 1 4 5
f 1 5 6
f 1 6 16
f 1 16 27
f 1 27 26
f 1 26 28
f 1 28 17
f 1 17 7
f 1 7 18
f 1 18 30
f 1 30 48
f 1 48 66
f 1 66 86
f 1 86 99
f 1 99 103
f 1 103 100
f 1 100 89
f 1 89 87
f 1 87 67
f 1 67 49
f 1 49 33
f 1 33 31
f 1 31 19
f 1 19 11
f 1 11 8
f 1 8 2
f 2 8 3
f 3 9 10
f 3 10 4
f 3 8 11
f 3 11 9
f 4 12 13
f 4 13 14
f 4 14 15
f 4 15 5
f 4 10 11
f 4 11 12
f 5 15 16
f 5 16 6
f 7 17 18
f 9 11 10
f 11 19 12
f 12 19 20
f 12 20 21
f 12 21 13
f 13 22 14
f 13 21 23
f 13 23 22
f 14 24 25
f 14 25 15
f 14 22 24
f 15 26 27
f 15 27 16
f 15 25 28
f 15 28 26
f 17 29 30
f 17 30 18
f 17 28 45
f 17 45 39
f 17 39 54
f 17 54 55
f 17 55 58
f 17 58 78
f 17 78 76
f 17 76 95
f 17 95 94
f 17 94 96
f 17 96 79
f 17 79 60
f 17 60 47
f 17 47 29
f 19 31 32
f 19 32 21
f 19 21 20
f 21 32 33
f 21 33 34
f 21 34 35
f 21 35 36
f 21 36 37
f 21 37 23
f 22 23 38
f 22 38 39
f 22 39 40
f 22 40 24
f 23 37 41
f 23 41 42
f 23 42 43
f 23 43 39
f 23 39 38
f 24 40 44
f 24 44 25
f 25 44 28
f 28 44 45
f 29 46 30
f 29 47 46
f 30 46 48
f 31 33 32
f 33 49 34
f 34 49 35
f 35 49 50
f 35 50 36
f 36 51 41
f 36 41 37
f 36 50 52
f 36 52 51
f 39 45 40
f 39 43 42
f 39 42 53
f 39 53 54
f 40 45 44
f 41 51 42
f 42 55 54
f 42 54 53
f 42 51 52
f 42 52 56
f 42 56 57
f 42 57 58
f 42 58 55
f 46 59 48
f 46 47 60
f 46 60 61
f 46 61 62
f 46 62 59
f 48 59 63
f 48 63 64
f 48 64 65
f 48 65 66
f 49 67 68
f 49 68 69
f 49 69 52
f 49 52 50
f 52 69 70
f 52 70 71
f 52 71 72
f 52 72 73
f 52 73 56
f 56 73 74
f 56 74 75
f 56 75 57
f 57 75 76
f 57 76 77
f 57 77 58
f 58 77 78
f 59 62 63
f 60 79 61
f 61 79 80
f 61 80 62
f 62 80 63
f 63 80 71
f 63 71 64
f 64 71 65
f 65 71 81
f 65 81 66
f 66 81 71
f 66 71 82
f 66 82 83
f 66 83 84
f 66 84 85
f 66 85 86
f 67 87 88
f 67 88 68
f 68 88 69
f 69 88 87
f 69 87 89
f 69 89 90
f 69 90 70
f 70 90 91
f 70 91 92
f 70 92 84
f 70 84 83
f 70 83 82
f 70 82 71
f 71 80 72
f 72 80 73
f 73 80 93
f 73 93 74
f 74 93 94
f 74 94 95
f 74 95 75
f 75 95 76
f 76 78 77
f 79 96 80
f 80 96 93
f 84 92 85
f 85 92 86
f 86 92 97
f 86 97 98
f 86 98 99
f 89 100 101
f 89 101 90
f 90 101 91
f 91 102 92
f 91 101 100
f 91 100 102
f 92 102 97
f 93 96 94
f 97 102 103
f 97 103 98
f 98 103 99
f 100 103 102

