# https://github.com/mikedh/trimesh
v 0.01312194 0.06451703 -0.01069385
v -0.00208661 0.06612225 -0.01069385
v 0.01312194 0.06451956 -0.01117178
v 0.01312194 0.06451703 0.01321156
v -0.00208661 0.06613493 -0.01218922
v -0.00208661 0.06612225 0.01321156
v 0.01312194 0.06452971 -0.01218922
v 0.01312194 0.06460071 0.01414103
v -0.00208661 0.06672073 -0.01345295
v 0.00236013 0.06577230 -0.01298675
v 0.00329950 0.06571651 0.01473918
v 0.00377142 0.06576723 0.01548687
v -0.00208661 0.06634795 0.01470693
v 0.00334119 0.06571904 -0.01308058
v 0.00483584 0.06564043 -0.01320373
v 0.00632603 0.06555675 -0.01329462
v 0.01312194 0.06470975 -0.01259385
v 0.01312194 0.06468440 0.01470693
v 0.00931534 0.06539445 -0.01340897
v 0.00782068 0.06547560 -0.01336206
v -0.00208661 0.06803940 -0.01396900
v 0.00632603 0.06654575 -0.01381067
v 0.00483584 0.06571904 0.01553378
v -0.00208661 0.06693121 0.01564227
v -0.00208661 0.06656096 0.01504998
v 0.01312194 0.06509521 -0.01343243
v 0.01312194 0.06524990 0.01562761
v 0.00632603 0.06565311 0.01558949
v 0.00782068 0.06654575 -0.01387811
v 0.01080999 0.06531583 -0.01343829
v -0.00208661 0.08596823 -0.01412147
v -0.00114129 0.08596823 -0.01412440
v 0.01230316 0.06654575 -0.01396900
v 0.01080999 0.06654575 -0.01395434
v 0.00931534 0.06654575 -0.01392502
v 0.00782068 0.06559732 0.01562467
v 0.00632603 0.06654575 0.01577421
v 0.00782068 0.06654575 0.01580940
v -0.00208661 0.06803940 0.01582992
v 0.01312194 0.06570129 -0.01367286
v 0.00931534 0.06554914 0.01563934
v 0.01312194 0.06654575 0.01582992
v 0.01080999 0.06654575 0.01582992
v 0.00931534 0.06654575 0.01582699
v -0.00208661 0.08746188 -0.01396314
v -0.00114129 0.08746188 -0.01397780
v 0.00035188 0.08746188 -0.01398366
v 0.00035188 0.08596823 -0.01412147
v 0.01230316 0.08447459 -0.01411561
v 0.01312194 0.06654575 -0.01396900
v -0.00208661 0.08148476 0.01582992
v 0.01312194 0.07998857 0.01582992
v -0.00208661 0.08895806 -0.01362008
v -0.00114129 0.08895806 -0.01365234
v 0.00035188 0.08895806 -0.01366993
v 0.00184653 0.08746188 -0.01397780
v 0.00184653 0.08596823 -0.01411561
v 0.00483584 0.08596823 -0.01409508
v 0.00782068 0.08596823 -0.01407456
v 0.00931534 0.08596823 -0.01405990
v 0.01312194 0.08447459 -0.01410681
v -0.00114129 0.08297840 0.01581819
v -0.00208661 0.08297840 0.01581526
v 0.00632603 0.08148476 0.01582992
v 0.00782068 0.08148476 0.01582699
v 0.01312194 0.08596823 0.01577128
v -0.00208661 0.08959457 -0.01333567
v -0.00114129 0.08996228 -0.01317734
v 0.00035188 0.08993692 -0.01318027
v 0.00184653 0.08895806 -0.01364354
v 0.00483584 0.08746188 -0.01395727
v 0.00632603 0.08746188 -0.01393089
v 0.01080999 0.08596823 -0.01401005
v 0.01312194 0.08515167 -0.01401298
v 0.00334119 0.08447459 0.01580353
v -0.00208661 0.08352870 0.01580060
v 0.01312194 0.08713982 0.01559535
v -0.00208661 0.08776111 0.01542236
v 0.01080999 0.08596823 0.01574782
v -0.00114129 0.08447459 0.01578008
v -0.00208661 0.08996482 -0.01315974
v -0.00208661 0.09020826 -0.01254987
v -0.00208661 0.09032745 -0.01218922
v 0.00184653 0.08988620 -0.01315681
v 0.00334119 0.08895806 -0.01358197
v 0.00782068 0.08746188 -0.01385465
v 0.01230316 0.08596823 -0.01390743
v 0.01297456 0.08529875 -0.01399539
v 0.01312194 0.08529875 -0.01398073
v -0.00208661 0.08447459 0.01576835
v 0.01312194 0.08791834 0.01489751
v 0.01230316 0.08790566 0.01512329
v 0.01080999 0.08790313 0.01525523
v -0.00208661 0.08888198 0.01504705
v -0.00208661 0.08803499 0.01533440
v 0.00632603 0.08596823 0.01570091
v -0.00208661 0.09040353 -0.01124215
v -0.00114129 0.09028687 -0.01218922
v 0.00334119 0.08982027 -0.01310110
v 0.00632603 0.08883127 -0.01339138
v 0.00931534 0.08746188 -0.01373443
v 0.01312194 0.08596823 -0.01383120
v 0.01312194 0.08828098 0.01422899
v 0.01230316 0.08833423 0.01437560
v 0.01080999 0.08843060 0.01450461
v -0.00208661 0.08981773 0.01429057
v -0.00208661 0.09042381 -0.01069092
v 0.00035188 0.09018798 -0.01218922
v 0.00444878 0.08975941 -0.01302194
v 0.00782068 0.08867404 -0.01331808
v 0.01080999 0.08746188 -0.01357024
v 0.01312194 0.08673407 -0.01353799
v 0.01312194 0.08836213 0.01321156
v 0.00931534 0.08885409 0.01321156
v 0.00782068 0.08904682 0.01321156
v 0.00632603 0.08922941 0.01321156
v 0.00104115 0.08969854 0.01386835
v 0.00004521 0.08973912 0.01405307
v -0.00208661 0.08988113 0.01393285
v -0.00114129 0.08995721 0.01321156
v -0.00114129 0.09034266 -0.01069092
v 0.00184653 0.09006372 -0.01218922
v -0.00208661 0.09041113 -0.00974971
v 0.01191461 0.08827844 -0.01299848
v 0.01080999 0.08837988 -0.01308937
v 0.00334119 0.08992678 -0.01218922
v 0.00462445 0.08977970 -0.01218922
v 0.00537177 0.08966558 -0.01218922
v 0.01312194 0.08841791 -0.01127440
v 0.01312194 0.08833677 -0.01200450
v 0.01291055 0.08815925 -0.01283135
v 0.00931534 0.08852189 -0.01320666
v 0.01236866 0.08758107 -0.01327996
v 0.01312194 0.08741116 -0.01323891
v 0.01312194 0.08843313 0.00791325
v 0.00931534 0.08903161 -0.00023505
v 0.00453512 0.08975941 -0.00919848
v 0.00428353 0.08972898 -0.00471530
v 0.00282461 0.08972644 0.00573764
v 0.00035188 0.08989381 0.01171912
v 0.00483584 0.08937902 0.01321156
v 0.00413169 0.08970869 -0.00210866
v 0.00046651 0.08979998 0.01330832
v -0.00208661 0.08999778 0.01321156
v -0.00114129 0.09003075 0.01171912
v -0.00208661 0.09002568 0.01266032
v 0.00334119 0.08990649 -0.01069092
v -0.00208661 0.09005103 0.01171912
v 0.01312194 0.08794623 -0.01291931
v 0.00459765 0.08976955 -0.01069092
v 0.00931534 0.08904935 -0.00172749
v 0.00931534 0.08906204 -0.00322286
v 0.00931534 0.08906964 -0.00471530
v 0.00931534 0.08906964 -0.00621067
v 0.00931534 0.08905950 -0.01069092
v 0.01312194 0.08845849 -0.01069092
v 0.01312194 0.08812121 -0.01275511
v 0.01312194 0.08845849 0.00573764
v 0.01230316 0.08858529 0.00424520
v 0.01080999 0.08881859 0.00125739
v 0.00334119 0.08988620 -0.00919848
v 0.01080999 0.08883127 -0.00023505
v 0.01080999 0.08883887 -0.00172749
v 0.01080999 0.08884141 -0.00322286
v 0.01312194 0.08848131 -0.00023505
v 0.01312194 0.08847370 0.00424520
v 0.01230316 0.08860050 0.00274983
v 0.01230316 0.08860811 0.00125739
v 0.01230316 0.08861064 -0.00023505
v 0.01312194 0.08848385 0.00125739
v 0.01312194 0.08848131 0.00274983
f 1 2 3
f 1 3 7
f 1 7 17
f 1 17 26
f 1 26 40
f 1 40 50
f 1 50 61
f 1 61 74
f 1 74 89
f 1 89 102
f 1 102 112
f 1 112 134
f 1 134 149
f 1 149 157
f 1 157 130
f 1 130 129
f 1 129 156
f 1 156 165
f 1 165 170
f 1 170 171
f 1 171 166
f 1 166 158
f 1 158 135
f 1 135 113
f 1 113 103
f 1 103 91
f 1 91 77
f 1 77 66
f 1 66 52
f 1 52 42
f 1 42 27
f 1 27 18
f 1 18 8
f 1 8 4
f 1 4 6
f 1 6 2
f 2 5 3
f 2 6 13
f 2 13 25
f 2 25 24
f 2 24 39
f 2 39 51
f 2 51 63
f 2 63 76
f 2 76 90
f 2 90 78
f 2 78 95
f 2 95 94
f 2 94 106
f 2 106 119
f 2 119 144
f 2 144 146
f 2 146 148
f 2 148 123
f 2 123 107
f 2 107 97
f 2 97 83
f 2 83 82
f 2 82 81
f 2 81 67
f 2 67 53
f 2 53 45
f 2 45 31
f 2 31 21
f 2 21 9
f 2 9 5
f 3 5 7
f 4 8 6
f 5 9 10
f 5 10 7
f 6 8 11
f 6 11 12
f 6 12 13
f 7 10 14
f 7 14 15
f 7 15 16
f 7 16 17
f 8 18 12
f 8 12 11
f 9 19 20
f 9 20 16
f 9 16 15
f 9 15 14
f 9 14 10
f 9 21 22
f 9 22 19
f 12 23 24
f 12 24 25
f 12 25 13
f 12 18 23
f 16 20 26
f 16 26 17
f 18 27 28
f 18 28 23
f 19 22 29
f 19 29 30
f 19 30 26
f 19 26 20
f 21 31 32
f 21 32 33
f 21 33 34
f 21 34 35
f 21 35 29
f 21 29 22
f 23 28 24
f 24 28 36
f 24 36 37
f 24 37 38
f 24 38 39
f 26 30 29
f 26 29 35
f 26 35 40
f 27 41 36
f 27 36 28
f 27 42 43
f 27 43 44
f 27 44 41
f 31 45 46
f 31 46 47
f 31 47 32
f 32 47 48
f 32 48 49
f 32 49 33
f 33 50 40
f 33 40 34
f 33 49 50
f 34 40 35
f 36 41 38
f 36 38 37
f 38 44 39
f 38 41 44
f 39 44 43
f 39 43 42
f 39 42 52
f 39 52 64
f 39 64 51
f 45 53 54
f 45 54 46
f 46 54 55
f 46 55 47
f 47 55 56
f 47 56 57
f 47 57 48
f 48 57 49
f 49 57 58
f 49 58 59
f 49 59 60
f 49 60 61
f 49 61 50
f 51 62 63
f 51 64 62
f 52 65 64
f 52 66 65
f 53 67 54
f 54 67 68
f 54 68 55
f 55 68 69
f 55 69 70
f 55 70 71
f 55 71 56
f 56 71 58
f 56 58 57
f 58 71 59
f 59 71 60
f 60 71 72
f 60 72 73
f 60 73 61
f 61 73 74
f 62 75 63
f 62 64 75
f 63 75 76
f 64 65 66
f 64 66 75
f 66 77 78
f 66 78 79
f 66 79 80
f 66 80 75
f 67 81 68
f 68 81 82
f 68 82 69
f 69 82 83
f 69 83 84
f 69 84 70
f 70 72 71
f 70 84 85
f 70 85 72
f 72 85 86
f 72 86 73
f 73 86 87
f 73 87 88
f 73 88 74
f 74 88 89
f 75 80 76
f 76 80 90
f 77 91 92
f 77 92 93
f 77 93 94
f 77 94 95
f 77 95 78
f 78 96 79
f 78 90 80
f 78 80 96
f 79 96 80
f 83 97 98
f 83 98 84
f 84 99 85
f 84 98 99
f 85 99 100
f 85 100 101
f 85 101 86
f 86 101 87
f 87 101 102
f 87 102 88
f 88 102 89
f 91 103 104
f 91 104 92
f 92 104 105
f 92 105 106
f 92 106 93
f 93 106 94
f 97 107 108
f 97 108 98
f 98 108 99
f 99 108 109
f 99 109 100
f 100 109 110
f 100 110 101
f 101 110 111
f 101 111 102
f 102 111 112
f 103 113 114
f 103 114 115
f 103 115 116
f 103 116 117
f 103 117 104
f 104 117 118
f 104 118 105
f 105 118 106
f 106 118 120
f 106 120 119
f 107 121 122
f 107 122 108
f 107 123 121
f 108 122 109
f 109 124 125
f 109 125 110
f 109 122 126
f 109 126 127
f 109 127 128
f 109 128 129
f 109 129 130
f 109 130 131
f 109 131 124
f 110 125 132
f 110 132 111
f 111 132 125
f 111 125 124
f 111 124 133
f 111 133 112
f 112 133 134
f 113 135 114
f 114 135 136
f 114 136 115
f 115 136 137
f 115 137 138
f 115 138 116
f 116 139 140
f 116 140 141
f 116 141 117
f 116 138 142
f 116 142 139
f 117 141 143
f 117 143 120
f 117 120 118
f 119 120 144
f 120 143 140
f 120 140 145
f 120 145 146
f 120 146 144
f 121 123 145
f 121 145 140
f 121 140 147
f 121 147 126
f 121 126 122
f 123 148 145
f 124 134 133
f 124 131 149
f 124 149 134
f 126 147 138
f 126 138 137
f 126 137 150
f 126 150 127
f 127 150 151
f 127 151 152
f 127 152 153
f 127 153 154
f 127 154 128
f 128 155 156
f 128 156 129
f 128 154 155
f 130 157 131
f 131 157 149
f 135 158 159
f 135 159 160
f 135 160 136
f 136 160 151
f 136 151 150
f 136 150 137
f 138 147 161
f 138 161 142
f 139 142 140
f 140 143 141
f 140 142 161
f 140 161 147
f 145 148 146
f 151 160 162
f 151 162 152
f 152 162 163
f 152 163 153
f 153 163 164
f 153 164 154
f 154 164 155
f 155 164 156
f 156 164 165
f 158 166 159
f 159 166 167
f 159 167 160
f 160 167 162
f 162 167 168
f 162 168 163
f 163 168 169
f 163 169 164
f 164 169 165
f 165 169 170
f 166 171 168
f 166 168 167
f 168 171 170
f 168 170 169

