# https://github.com/mikedh/trimesh
v -0.02836464 0.06073896 -0.01069112
v -0.02836464 0.06074186 -0.01218928
v -0.00209067 0.06612542 -0.01069112
v -0.02836464 0.06073896 0.01321201
v -0.00209067 0.06613997 -0.01218341
v -0.00209067 0.06613124 -0.01163114
v -0.02836464 0.06102996 -0.01328500
v -0.02804056 0.06108234 -0.01324975
v -0.00209067 0.06612542 0.01320907
v -0.02836464 0.06082335 0.01438411
v -0.00209067 0.06672489 -0.01344657
v -0.02836464 0.06206302 -0.01379908
v -0.00209067 0.06620691 0.01376134
v -0.02836464 0.06086118 0.01470724
v -0.00209067 0.06755716 -0.01377852
v -0.02836464 0.06355586 -0.01396946
v -0.02654617 0.06355586 -0.01396946
v -0.00209067 0.06804022 -0.01396652
v -0.00209067 0.06634950 0.01470430
v -0.02722263 0.06129477 0.01547689
v -0.02836464 0.06104160 0.01537701
v -0.02836464 0.08148166 -0.01416334
v -0.02804056 0.08148166 -0.01416334
v -0.02057119 0.08298032 -0.01417215
v -0.01459364 0.08447026 -0.01417215
v -0.01309925 0.08447026 -0.01416628
v -0.00209067 0.08596601 -0.01411928
v -0.00209067 0.06656484 0.01505094
v -0.02804056 0.06118419 0.01555914
v -0.00209067 0.06693441 0.01564139
v -0.02836464 0.06114636 0.01557677
v -0.02654617 0.08298032 -0.01412221
v -0.02505178 0.08298032 -0.01416334
v -0.02355997 0.08298032 -0.01417215
v -0.02836464 0.08298032 -0.01394890
v -0.02804056 0.08298032 -0.01400765
v -0.01608288 0.08447026 -0.01416040
v -0.00712426 0.08596601 -0.01411047
v -0.00562988 0.08596601 -0.01411634
v -0.00209067 0.08746177 -0.01396065
v -0.00209067 0.06804022 0.01582646
v -0.02836464 0.06206302 0.01576477
v -0.02836464 0.06183895 0.01572365
v -0.02355997 0.08447316 -0.01397240
v -0.01993845 0.08447316 -0.01406934
v -0.01757984 0.08447026 -0.01412809
v -0.02505178 0.08447316 -0.01385490
v -0.02836464 0.08416470 -0.01333200
v -0.02804056 0.08423163 -0.01338488
v -0.01011047 0.08596601 -0.01407521
v -0.00861608 0.08596601 -0.01409578
v -0.00264110 0.08746177 -0.01395477
v -0.00209067 0.08895461 -0.01361695
v -0.00209067 0.08148166 0.01582646
v -0.01993588 0.07998590 0.01583234
v -0.01993845 0.06654447 0.01582940
v -0.02206558 0.06505162 0.01582940
v -0.02654617 0.06355586 0.01582940
v -0.02505178 0.06355586 0.01582352
v -0.02836464 0.06323576 0.01582646
v -0.02057119 0.08596601 -0.01367276
v -0.01993845 0.08596601 -0.01370802
v -0.01757984 0.08596601 -0.01383433
v -0.01608288 0.08596601 -0.01390777
v -0.01459364 0.08596601 -0.01396359
v -0.01309925 0.08596601 -0.01400765
v -0.01160743 0.08596601 -0.01404290
v -0.02662076 0.08458957 -0.01347888
v -0.02505178 0.08558771 -0.01324388
v -0.02298124 0.08677791 -0.01300006
v -0.02206558 0.08690304 -0.01309700
v -0.02206558 0.08596601 -0.01354645
v -0.02617064 0.08536073 -0.01308525
v -0.02836464 0.08479327 -0.01220985
v -0.02716862 0.08516575 -0.01273861
v -0.00562988 0.08746177 -0.01390483
v -0.00712426 0.08746177 -0.01386665
v -0.00264110 0.08895461 -0.01359933
v -0.00264110 0.08996439 -0.01314987
v -0.00209067 0.08959191 -0.01333200
v -0.00209067 0.08297741 0.01581177
v -0.01011047 0.08297741 0.01582352
v -0.01145568 0.08312291 0.01582352
v -0.01459364 0.08148166 0.01582940
v -0.01993845 0.07998881 0.01583234
v -0.02654617 0.07849596 0.01583234
v -0.02836464 0.06355586 0.01582940
v -0.02057119 0.08705436 -0.01317925
v -0.01459364 0.08746177 -0.01347595
v -0.01309925 0.08746177 -0.01357289
v -0.01145568 0.08746177 -0.01366395
v -0.01011047 0.08746177 -0.01373445
v -0.00861608 0.08746177 -0.01381083
v -0.02744640 0.08527925 -0.01174277
v -0.02320502 0.08686230 -0.01218928
v -0.02206558 0.08722896 -0.01218928
v -0.01679792 0.08819510 -0.01288255
v -0.01579995 0.08827367 -0.01300006
v -0.02836464 0.08485147 -0.01184559
v -0.00413549 0.08895461 -0.01353470
v -0.00413549 0.08992075 -0.01311462
v -0.00209067 0.08996439 -0.01315869
v -0.00264110 0.09034852 -0.01218635
v -0.01011047 0.08447316 0.01580590
v -0.01145568 0.08429275 0.01581177
v -0.01309925 0.08429275 0.01581471
v -0.00209067 0.08352450 0.01579709
v -0.01327672 0.08429275 0.01581471
v -0.01608288 0.08297450 0.01582352
v -0.02057119 0.08148166 0.01582940
v -0.02654617 0.07998881 0.01583234
v -0.02836464 0.07998881 0.01582940
v -0.01459364 0.08835224 -0.01307056
v -0.00562988 0.08895461 -0.01344363
v -0.00562988 0.08983344 -0.01305587
v -0.02836464 0.08500570 -0.01069112
v -0.02336706 0.08692632 -0.01069112
v -0.02206558 0.08737447 -0.01069112
v -0.02057119 0.08772949 -0.01069112
v -0.02057119 0.08755780 -0.01218928
v -0.01708600 0.08824748 -0.01188671
v -0.00807337 0.08973450 -0.01178977
v -0.00721172 0.08982471 -0.01224804
v -0.00776729 0.08967339 -0.01278855
v -0.00676932 0.08975778 -0.01299124
v -0.00413549 0.09027286 -0.01218635
v -0.00209067 0.09020593 -0.01254767
v -0.00209067 0.09032815 -0.01218635
v -0.00413549 0.09040963 -0.01069112
v -0.00264110 0.09046783 -0.01069112
v -0.01145568 0.08447316 0.01580884
v -0.00209067 0.08447316 0.01576477
v -0.01309925 0.08596601 0.01576184
v -0.01608288 0.08596601 0.01577065
v -0.01309925 0.08447026 0.01581177
v -0.01459364 0.08447026 0.01581177
v -0.01757984 0.08429275 0.01580884
v -0.02112676 0.08242160 0.01582059
v -0.02710174 0.08242160 0.01580884
v -0.02836464 0.08148166 0.01581471
v -0.02836464 0.08509882 -0.00745390
v -0.02779621 0.08545967 -0.00620542
v -0.02772676 0.08542184 -0.00770065
v -0.02654617 0.08592236 -0.00620542
v -0.02355997 0.08714748 0.00125604
v -0.02355997 0.08721733 0.00424356
v -0.02355997 0.08725225 0.00573880
v -0.02355997 0.08734537 0.01022155
v -0.02206558 0.08759272 0.00125604
v -0.01459364 0.08871017 -0.01069112
v -0.02206558 0.08761891 0.00275127
v -0.02206558 0.08764219 0.00424356
v -0.02206558 0.08771203 0.00872632
v -0.02206558 0.08775277 0.01171678
v -0.00820197 0.08975778 -0.01069112
v -0.00562988 0.09017683 -0.01069112
v -0.00562988 0.09006625 -0.01218635
v -0.00209067 0.09040090 -0.01124044
v -0.00562988 0.09018847 -0.00919589
v -0.00562988 0.09019429 -0.00770065
v -0.00562988 0.09019429 0.00274540
v -0.00562988 0.09018847 0.00573880
v -0.00413549 0.09040672 -0.00919589
v -0.00413549 0.09034270 -0.00321790
v -0.00413549 0.09027868 0.00274540
v -0.00413549 0.09024376 0.00573880
v -0.00264110 0.09044746 -0.00919589
v -0.00209067 0.09040963 -0.00974521
v -0.00209067 0.09042127 -0.01069112
v -0.01907423 0.08596601 0.01577652
v -0.02057119 0.08596601 0.01577946
v -0.00712426 0.08746177 0.01563846
v -0.00712426 0.08596601 0.01572365
v -0.00861608 0.08596601 0.01573540
v -0.01145568 0.08596601 0.01575302
v -0.00209067 0.08775859 0.01542401
v -0.00228872 0.08784007 0.01542989
v -0.00328670 0.08824457 0.01545633
v -0.00413549 0.08844245 0.01547689
v -0.00562988 0.08868398 0.01550627
v -0.01309925 0.08746177 0.01567371
v -0.02206558 0.08596601 0.01577946
v -0.01925170 0.08429275 0.01580590
v -0.02804056 0.08242160 0.01580590
v -0.02505178 0.08447316 0.01579121
v -0.02836464 0.08265731 0.01580002
v -0.02836464 0.08511919 -0.00620542
v -0.02836464 0.08520940 0.00026901
v -0.02836464 0.08523560 0.00275127
v -0.02836464 0.08524724 0.00424356
v -0.02789138 0.08548877 0.00424356
v -0.02475085 0.08691177 0.01171678
v -0.02474313 0.08689722 0.01022155
v -0.02355997 0.08736865 0.01171678
v -0.00712426 0.08995276 -0.00919589
v -0.02355997 0.08738611 0.01321201
v -0.02206558 0.08776441 0.01321201
v -0.01309925 0.08907974 -0.00023331
v -0.00836402 0.08978106 -0.00620836
v -0.00840517 0.08978398 -0.00471019
v -0.00842575 0.08978398 -0.00321790
v -0.00842317 0.08978398 -0.00023038
v -0.01993845 0.08808742 0.01321201
v -0.01459364 0.08887313 0.01320907
v -0.00712426 0.08997021 0.01320614
v -0.00562988 0.09017683 0.00722815
v -0.00562988 0.09013318 0.01171678
v -0.00413549 0.09021757 0.00722815
v -0.00562988 0.09011281 0.01320614
v -0.00209067 0.09005169 0.01171678
v -0.01145568 0.08746177 0.01566489
v -0.00712426 0.08865779 0.01552095
v -0.00209067 0.08803214 0.01533295
v -0.00209067 0.08887896 0.01504213
v -0.00413549 0.08918742 0.01526538
v -0.00562988 0.08943186 0.01535645
v -0.01459364 0.08746177 0.01567371
v -0.01608288 0.08746177 0.01564727
v -0.01459364 0.08832023 0.01553564
v -0.02206558 0.08699616 0.01561202
v -0.02355997 0.08596601 0.01573246
v -0.02804056 0.08298032 0.01579709
v -0.02654617 0.08447316 0.01574421
v -0.02836464 0.08298032 0.01578827
v -0.02836464 0.08525305 0.00573880
v -0.02789909 0.08548877 0.00573880
v -0.02549933 0.08657421 0.01171678
v -0.02473541 0.08691759 0.01321201
v -0.02460166 0.08685648 0.01470430
v -0.02355997 0.08722024 0.01470430
v -0.02206558 0.08752579 0.01470430
v -0.01858553 0.08824748 0.01423723
v -0.02057119 0.08799430 0.01321201
v -0.00823284 0.08975487 0.01420198
v -0.00712426 0.08983635 0.01446930
v -0.00413549 0.09012445 0.01171678
v -0.00413549 0.09008953 0.01320614
v -0.00562988 0.08990328 0.01460736
v -0.00209067 0.09002259 0.01265681
v -0.01309925 0.08835224 0.01554152
v -0.00209067 0.08981308 0.01428717
v -0.00712426 0.08940276 0.01521838
v -0.01701398 0.08822710 0.01547101
v -0.01608288 0.08826785 0.01550333
v -0.00413549 0.08988582 0.01451630
v -0.02355997 0.08688267 0.01556795
v -0.02654617 0.08542766 0.01557383
v -0.02836464 0.08433058 0.01560908
v -0.02836464 0.08408904 0.01565021
v -0.02836464 0.08525305 0.00723403
v -0.02789138 0.08549168 0.00723403
v -0.02786566 0.08549168 0.00872632
v -0.02548132 0.08655966 0.01321201
v -0.02761102 0.08537237 0.01470430
v -0.02442162 0.08676918 0.01550039
v -0.02836464 0.08514247 0.01321201
v -0.01753869 0.08830858 0.01472193
v -0.00209067 0.08999641 0.01320614
v -0.00209067 0.08988000 0.01393172
v -0.02742583 0.08528215 0.01550627
v -0.02836464 0.08493586 0.01470430
v -0.02836464 0.08524724 0.00776867
v -0.02782965 0.08548295 0.01022155
v -0.02836464 0.08511919 0.01343527
f 1 2 3
f 1 3 9
f 1 9 4
f 1 4 10
f 1 10 14
f 1 14 21
f 1 21 31
f 1 31 43
f 1 43 42
f 1 42 60
f 1 60 87
f 1 87 112
f 1 112 140
f 1 140 186
f 1 186 224
f 1 224 249
f 1 249 248
f 1 248 261
f 1 261 264
f 1 264 256
f 1 256 262
f 1 262 250
f 1 250 225
f 1 225 190
f 1 190 189
f 1 189 188
f 1 188 187
f 1 187 141
f 1 141 116
f 1 116 99
f 1 99 74
f 1 74 48
f 1 48 35
f 1 35 22
f 1 22 16
f 1 16 12
f 1 12 7
f 1 7 2
f 2 5 6
f 2 6 3
f 2 7 8
f 2 8 5
f 3 6 5
f 3 5 11
f 3 11 15
f 3 15 18
f 3 18 27
f 3 27 40
f 3 40 53
f 3 53 80
f 3 80 102
f 3 102 127
f 3 127 128
f 3 128 158
f 3 158 169
f 3 169 168
f 3 168 210
f 3 210 239
f 3 239 258
f 3 258 259
f 3 259 241
f 3 241 214
f 3 214 213
f 3 213 176
f 3 176 132
f 3 132 107
f 3 107 81
f 3 81 54
f 3 54 41
f 3 41 30
f 3 30 28
f 3 28 19
f 3 19 13
f 3 13 9
f 4 9 10
f 5 8 11
f 7 12 11
f 7 11 8
f 9 13 14
f 9 14 10
f 11 12 15
f 12 16 17
f 12 17 18
f 12 18 15
f 13 19 14
f 14 19 20
f 14 20 21
f 16 22 23
f 16 23 17
f 17 23 24
f 17 24 18
f 18 24 25
f 18 25 26
f 18 26 27
f 19 28 20
f 20 29 21
f 20 28 30
f 20 30 29
f 21 29 31
f 22 32 33
f 22 33 34
f 22 34 24
f 22 24 23
f 22 35 36
f 22 36 32
f 24 34 25
f 25 34 33
f 25 33 37
f 25 37 38
f 25 38 39
f 25 39 27
f 25 27 26
f 27 39 40
f 29 30 31
f 30 41 42
f 30 42 43
f 30 43 31
f 32 36 44
f 32 44 33
f 33 44 45
f 33 45 46
f 33 46 37
f 35 47 36
f 35 48 49
f 35 49 47
f 36 47 44
f 37 46 67
f 37 67 50
f 37 50 51
f 37 51 38
f 38 51 40
f 38 40 39
f 40 51 52
f 40 52 53
f 41 54 55
f 41 55 56
f 41 56 57
f 41 57 58
f 41 58 59
f 41 59 42
f 42 59 60
f 44 47 61
f 44 61 62
f 44 62 63
f 44 63 64
f 44 64 65
f 44 65 66
f 44 66 45
f 45 66 46
f 46 66 67
f 47 49 68
f 47 68 69
f 47 69 70
f 47 70 71
f 47 71 72
f 47 72 61
f 48 73 70
f 48 70 49
f 48 74 75
f 48 75 73
f 49 70 69
f 49 69 68
f 50 67 76
f 50 76 52
f 50 52 51
f 52 76 53
f 53 76 77
f 53 77 78
f 53 78 79
f 53 79 80
f 54 81 82
f 54 82 83
f 54 83 84
f 54 84 85
f 54 85 55
f 55 85 111
f 55 111 86
f 55 86 58
f 55 58 57
f 55 57 56
f 58 86 87
f 58 87 60
f 58 60 59
f 61 72 88
f 61 88 89
f 61 89 90
f 61 90 62
f 62 90 91
f 62 91 63
f 63 91 92
f 63 92 93
f 63 93 64
f 64 93 65
f 65 93 77
f 65 77 66
f 66 77 76
f 66 76 67
f 70 73 75
f 70 75 94
f 70 94 95
f 70 95 96
f 70 96 97
f 70 97 71
f 71 97 98
f 71 98 88
f 71 88 72
f 74 99 94
f 74 94 75
f 77 93 78
f 78 93 100
f 78 100 101
f 78 101 79
f 79 102 80
f 79 101 103
f 79 103 102
f 81 104 105
f 81 105 106
f 81 106 82
f 81 107 104
f 82 106 83
f 83 106 108
f 83 108 109
f 83 109 110
f 83 110 84
f 84 110 111
f 84 111 85
f 86 111 112
f 86 112 87
f 88 98 113
f 88 113 89
f 89 114 90
f 89 113 115
f 89 115 114
f 90 114 100
f 90 100 91
f 91 100 92
f 92 100 93
f 94 116 117
f 94 117 95
f 94 99 116
f 95 117 118
f 95 118 96
f 96 118 119
f 96 119 120
f 96 120 97
f 97 120 119
f 97 119 121
f 97 121 122
f 97 122 123
f 97 123 124
f 97 124 125
f 97 125 98
f 98 125 113
f 100 114 101
f 101 114 115
f 101 115 126
f 101 126 103
f 102 103 127
f 103 128 127
f 103 126 129
f 103 129 130
f 103 130 128
f 104 131 105
f 104 107 132
f 104 132 133
f 104 133 134
f 104 134 131
f 105 131 106
f 106 131 135
f 106 135 136
f 106 136 108
f 108 136 109
f 109 136 137
f 109 137 138
f 109 138 110
f 110 138 111
f 111 138 112
f 112 138 139
f 112 139 140
f 113 125 115
f 115 125 126
f 116 141 142
f 116 142 143
f 116 143 117
f 117 143 142
f 117 142 144
f 117 144 145
f 117 145 118
f 118 145 146
f 118 146 147
f 118 147 148
f 118 148 149
f 118 149 119
f 119 150 122
f 119 122 121
f 119 149 151
f 119 151 152
f 119 152 153
f 119 153 154
f 119 154 150
f 122 150 155
f 122 155 156
f 122 156 129
f 122 129 157
f 122 157 123
f 123 157 124
f 124 157 126
f 124 126 125
f 126 157 129
f 128 130 158
f 129 156 159
f 129 159 160
f 129 160 161
f 129 161 162
f 129 162 163
f 129 163 130
f 130 163 164
f 130 164 165
f 130 165 166
f 130 166 167
f 130 167 168
f 130 168 169
f 130 169 158
f 131 134 170
f 131 170 171
f 131 171 135
f 132 172 173
f 132 173 174
f 132 174 175
f 132 175 133
f 132 176 177
f 132 177 178
f 132 178 179
f 132 179 180
f 132 180 172
f 133 175 211
f 133 211 181
f 133 181 134
f 134 181 170
f 135 171 182
f 135 182 136
f 136 182 137
f 137 183 138
f 137 182 183
f 138 183 139
f 139 184 140
f 139 183 185
f 139 185 184
f 140 184 186
f 141 187 142
f 142 187 188
f 142 188 189
f 142 189 190
f 142 190 191
f 142 191 192
f 142 192 193
f 142 193 148
f 142 148 144
f 144 148 147
f 144 147 146
f 144 146 145
f 148 193 194
f 148 194 153
f 148 153 152
f 148 152 151
f 148 151 149
f 150 195 155
f 150 154 195
f 153 194 154
f 154 194 196
f 154 196 197
f 154 197 198
f 154 198 195
f 155 195 156
f 156 195 199
f 156 199 159
f 159 199 200
f 159 200 160
f 160 200 201
f 160 201 161
f 161 201 202
f 161 202 203
f 161 203 204
f 161 204 205
f 161 205 162
f 162 206 163
f 162 205 206
f 163 206 207
f 163 207 164
f 164 207 165
f 165 207 166
f 166 208 167
f 166 207 209
f 166 209 208
f 167 208 210
f 167 210 168
f 170 181 171
f 171 181 217
f 171 217 182
f 172 211 175
f 172 175 174
f 172 174 173
f 172 180 212
f 172 212 211
f 176 213 177
f 177 213 178
f 178 213 214
f 178 214 215
f 178 215 216
f 178 216 179
f 179 216 180
f 180 216 212
f 181 211 212
f 181 212 217
f 182 217 218
f 182 218 219
f 182 219 220
f 182 220 221
f 182 221 223
f 182 223 185
f 182 185 183
f 184 185 222
f 184 222 186
f 185 223 224
f 185 224 222
f 186 222 224
f 190 225 191
f 191 225 226
f 191 226 192
f 192 194 193
f 192 226 227
f 192 227 228
f 192 228 196
f 192 196 194
f 195 198 199
f 196 228 229
f 196 229 230
f 196 230 197
f 197 230 231
f 197 231 232
f 197 232 233
f 197 233 200
f 197 200 198
f 198 200 199
f 200 233 201
f 201 233 202
f 202 233 203
f 203 233 232
f 203 232 204
f 204 232 205
f 205 232 234
f 205 234 235
f 205 235 209
f 205 209 207
f 205 207 206
f 208 209 236
f 208 236 210
f 209 237 236
f 209 235 238
f 209 238 237
f 210 236 237
f 210 237 239
f 212 216 240
f 212 240 217
f 214 241 215
f 215 241 216
f 216 238 242
f 216 242 243
f 216 243 244
f 216 244 219
f 216 219 240
f 216 241 245
f 216 245 238
f 217 240 219
f 217 219 218
f 219 244 220
f 220 246 221
f 220 244 243
f 220 243 246
f 221 246 247
f 221 247 223
f 223 247 248
f 223 248 249
f 223 249 224
f 225 250 226
f 226 250 251
f 226 251 227
f 227 251 252
f 227 252 228
f 228 253 229
f 228 252 253
f 229 254 255
f 229 255 230
f 229 253 256
f 229 256 254
f 230 255 231
f 231 255 243
f 231 243 232
f 232 243 257
f 232 257 234
f 234 257 243
f 234 243 235
f 235 243 242
f 235 242 238
f 237 258 239
f 237 238 245
f 237 245 258
f 241 259 245
f 243 255 246
f 245 259 258
f 246 255 247
f 247 255 260
f 247 260 248
f 248 260 261
f 250 262 252
f 250 252 251
f 252 262 263
f 252 263 253
f 253 263 256
f 254 261 260
f 254 260 255
f 254 256 264
f 254 264 261
f 256 263 262

