# https://github.com/mikedh/trimesh
v -0.05588942 0.04068899 0.01020886
v -0.06622102 0.04068899 0.01020886
v -0.06421544 0.02807484 0.01020886
v -0.05588942 0.04068899 -0.01069499
v -0.06624761 0.04068529 0.01020886
v -0.07018739 0.04068899 -0.00951727
v -0.07013561 0.02807484 0.01020886
v -0.06421544 0.02807484 -0.01069499
v -0.06421684 0.02807484 -0.01218914
v -0.05590201 0.04068652 -0.01218914
v -0.05590061 0.04068899 -0.01218438
v -0.06625041 0.04067665 0.01020886
v -0.06979411 0.02918364 0.01020886
v -0.06656951 0.03964316 0.01020886
v -0.07018739 0.04068899 -0.01377370
v -0.07018739 0.02807484 -0.00992888
v -0.06444217 0.02807484 -0.01320507
v -0.05717002 0.03887392 -0.01296239
v -0.05690550 0.03964316 -0.01320031
v -0.05652622 0.04068899 -0.01340492
v -0.05590481 0.04068899 -0.01219628
v -0.06988508 0.04068899 -0.01388790
v -0.07018739 0.03964316 -0.01383556
v -0.07018739 0.02807484 -0.01402590
v -0.06530850 0.02807484 -0.01363571
v -0.05793138 0.03964316 -0.01371898
v -0.05793138 0.04068899 -0.01390932
v -0.06839175 0.04068899 -0.01397356
v -0.06988508 0.03814789 -0.01393073
v -0.07018739 0.03665385 -0.01391408
v -0.07018739 0.03814789 -0.01388553
v -0.06988508 0.03665385 -0.01395452
v -0.06988508 0.02807484 -0.01405683
v -0.06689701 0.02807484 -0.01402352
v -0.06540227 0.02918364 -0.01392835
v -0.05942612 0.03814789 -0.01390694
v -0.05942612 0.03964316 -0.01403066
v -0.05942612 0.04068899 -0.01405207
v -0.06839175 0.03814789 -0.01400449
v -0.06241559 0.04068899 -0.01405921
v -0.06241559 0.03964316 -0.01407348
v -0.06839175 0.02918364 -0.01409490
v -0.06839175 0.02807484 -0.01407824
v -0.06689701 0.02918364 -0.01406635
v -0.06390753 0.03366576 -0.01406635
v -0.06092086 0.03814789 -0.01406397
v -0.06092086 0.03665385 -0.01398545
v -0.06092086 0.03964316 -0.01408776
v -0.06092086 0.04068899 -0.01408062
v -0.06540227 0.03366576 -0.01409728
v -0.06241559 0.03814789 -0.01409014
v -0.06689701 0.03067768 -0.01409252
v -0.06390753 0.03515981 -0.01409252
f 1 2 5
f 1 5 12
f 1 12 14
f 1 14 13
f 1 13 7
f 1 7 3
f 1 3 8
f 1 8 4
f 1 4 11
f 1 11 21
f 1 21 20
f 1 20 27
f 1 27 38
f 1 38 49
f 1 49 40
f 1 40 28
f 1 28 22
f 1 22 15
f 1 15 6
f 1 6 2
f 2 6 5
f 3 7 16
f 3 16 24
f 3 24 33
f 3 33 43
f 3 43 34
f 3 34 25
f 3 25 17
f 3 17 9
f 3 9 8
f 4 8 9
f 4 9 10
f 4 10 11
f 5 6 12
f 6 7 13
f 6 13 14
f 6 14 12
f 6 15 23
f 6 23 31
f 6 31 30
f 6 30 24
f 6 24 16
f 6 16 7
f 9 17 18
f 9 18 10
f 10 18 19
f 10 19 20
f 10 20 21
f 10 21 11
f 15 22 23
f 17 25 20
f 17 20 19
f 17 19 18
f 20 25 26
f 20 26 27
f 22 28 29
f 22 29 30
f 22 30 31
f 22 31 23
f 24 30 32
f 24 32 33
f 25 34 35
f 25 35 36
f 25 36 26
f 26 36 27
f 27 36 37
f 27 37 38
f 28 39 32
f 28 32 29
f 28 40 41
f 28 41 39
f 29 32 30
f 32 39 33
f 33 42 43
f 33 39 42
f 34 43 44
f 34 44 45
f 34 45 46
f 34 46 37
f 34 37 47
f 34 47 35
f 35 47 36
f 36 47 37
f 37 46 38
f 38 46 48
f 38 48 49
f 39 41 50
f 39 50 42
f 40 49 41
f 41 49 51
f 41 51 50
f 42 50 52
f 42 52 43
f 43 52 44
f 44 52 53
f 44 53 45
f 45 53 46
f 46 53 48
f 48 53 50
f 48 50 51
f 48 51 49
f 50 53 52

