# https://github.com/mikedh/trimesh
v 0.06908297 0.02919370 -0.01377105
v 0.06759866 0.03217134 -0.01376529
v 0.06759866 0.03366490 -0.01376817
v 0.06909329 0.02919370 -0.01377105
v 0.06669135 0.02919370 -0.01357239
v 0.06669135 0.03606664 -0.01372498
v 0.06759866 0.03515931 -0.01370195
v 0.06669135 0.03756105 -0.01369331
v 0.06909329 0.03067692 -0.01370195
v 0.07056999 0.02919370 -0.01327295
v 0.06669135 0.02919370 -0.01199748
v 0.06909329 0.03217134 -0.01360406
v 0.06669135 0.03798717 -0.01366452
v 0.06759866 0.03798717 -0.01350041
v 0.07063573 0.02919370 -0.01324704
v 0.06793986 0.02919370 0.01467227
v 0.06669135 0.03068037 0.01486517
v 0.06773123 0.03798717 -0.01345722
v 0.06909329 0.03366490 -0.01344858
v 0.06999898 0.03366490 -0.01308293
v 0.07013535 0.03217134 -0.01317218
v 0.06669135 0.03798717 0.01563391
v 0.07125835 0.02919370 -0.01263954
v 0.06800940 0.02919370 0.01475001
v 0.06824846 0.02978165 0.01551011
v 0.06669135 0.03127693 0.01525098
v 0.06865050 0.03798717 -0.01313475
v 0.06989847 0.03469016 -0.01299655
v 0.06669135 0.03724082 0.01562240
v 0.06909329 0.03067692 0.01561664
v 0.07058738 0.02919370 0.01563679
v 0.06743730 0.03798717 0.01561088
v 0.07032550 0.03366490 -0.01219038
v 0.07141157 0.02919370 -0.01198596
v 0.06908351 0.02919370 0.01552738
v 0.06915740 0.02919370 0.01556769
v 0.06913458 0.02924277 0.01557057
v 0.06796485 0.03067692 0.01553890
v 0.06669135 0.03250965 0.01550723
v 0.06693909 0.03151796 0.01539782
v 0.06669135 0.03169444 0.01534024
v 0.06872221 0.03798717 -0.01302822
v 0.06974363 0.03568701 -0.01257331
v 0.06997833 0.03517739 -0.01212129
v 0.06913676 0.03798717 -0.01218175
v 0.06669135 0.03515931 0.01558497
v 0.07033745 0.02919370 0.01562815
v 0.06669135 0.03370191 0.01555042
v 0.06759866 0.03798717 0.01560512
v 0.07148980 0.02919370 0.01553314
v 0.07140341 0.03030418 0.01550147
v 0.06855922 0.03798717 0.01551587
v 0.07167072 0.02919370 -0.01070473
v 0.06985609 0.03596506 -0.01157712
v 0.07192281 0.02919370 -0.00921620
v 0.07167235 0.02919370 -0.01069610
v 0.06932854 0.03798717 -0.01069610
v 0.07194781 0.02919370 0.01470682
v 0.07158271 0.03075268 0.01481623
v 0.07120620 0.03130103 0.01538918
v 0.06979035 0.03581613 0.01544677
v 0.06930518 0.03798717 0.01462620
v 0.07134800 0.03146804 -0.00855975
v 0.07192499 0.02919370 -0.00919893
v 0.07161096 0.03067692 -0.00770752
v 0.06966593 0.03798717 0.00573821
v 0.06985718 0.03745948 0.00723537
v 0.07143928 0.03181409 0.01439299
v 0.07224119 0.02919370 0.01321253
v 0.06999789 0.03665373 0.01439299
v 0.06985881 0.03745603 0.01404749
v 0.06934104 0.03798717 0.01456574
v 0.07200974 0.02919370 -0.00770752
v 0.06987348 0.03750510 0.00872966
v 0.07061889 0.03515931 0.01321253
v 0.07102962 0.03366490 0.01321253
v 0.07148654 0.03198712 0.01321253
v 0.07224119 0.02919370 0.01320101
v 0.06969419 0.03798717 0.00723537
v 0.07015545 0.03665373 0.01321253
v 0.06987130 0.03749219 0.01321253
v 0.06969908 0.03798717 0.01321253
v 0.06971320 0.03798717 0.00872966
v 0.06988108 0.03752232 0.01022395
v 0.06987782 0.03751027 0.01171824
v 0.06970342 0.03798717 0.01269428
v 0.06972080 0.03798717 0.01022395
v 0.06971157 0.03798717 0.01171824
f 1 2 3
f 1 3 4
f 1 4 10
f 1 10 15
f 1 15 23
f 1 23 34
f 1 34 53
f 1 53 56
f 1 56 55
f 1 55 64
f 1 64 73
f 1 73 78
f 1 78 69
f 1 69 58
f 1 58 50
f 1 50 31
f 1 31 47
f 1 47 36
f 1 36 35
f 1 35 24
f 1 24 16
f 1 16 11
f 1 11 5
f 1 5 2
f 2 6 3
f 2 5 6
f 3 7 4
f 3 6 8
f 3 8 7
f 4 7 9
f 4 9 10
f 5 11 17
f 5 17 26
f 5 26 41
f 5 41 39
f 5 39 48
f 5 48 46
f 5 46 29
f 5 29 22
f 5 22 13
f 5 13 8
f 5 8 6
f 7 12 9
f 7 8 13
f 7 13 14
f 7 14 12
f 9 12 10
f 10 12 15
f 11 16 17
f 12 14 18
f 12 18 19
f 12 19 20
f 12 20 21
f 12 21 15
f 13 22 32
f 13 32 49
f 13 49 52
f 13 52 62
f 13 62 72
f 13 72 82
f 13 82 86
f 13 86 88
f 13 88 87
f 13 87 83
f 13 83 79
f 13 79 66
f 13 66 57
f 13 57 45
f 13 45 42
f 13 42 27
f 13 27 18
f 13 18 14
f 15 21 20
f 15 20 23
f 16 24 17
f 17 24 25
f 17 25 26
f 18 27 19
f 19 27 20
f 20 27 28
f 20 28 23
f 22 29 30
f 22 30 31
f 22 31 32
f 23 28 33
f 23 33 34
f 24 35 25
f 25 35 36
f 25 36 37
f 25 37 38
f 25 38 39
f 25 39 40
f 25 40 26
f 26 40 41
f 27 42 28
f 28 43 44
f 28 44 33
f 28 42 45
f 28 45 43
f 29 46 30
f 30 47 31
f 30 46 48
f 30 48 38
f 30 38 37
f 30 37 47
f 31 49 32
f 31 50 51
f 31 51 52
f 31 52 49
f 33 44 53
f 33 53 34
f 36 47 37
f 38 48 39
f 39 41 40
f 43 45 54
f 43 54 44
f 44 54 55
f 44 55 56
f 44 56 53
f 45 57 54
f 50 58 51
f 51 58 59
f 51 59 60
f 51 60 61
f 51 61 52
f 52 61 62
f 54 57 63
f 54 63 64
f 54 64 55
f 57 65 63
f 57 66 67
f 57 67 65
f 58 68 59
f 58 69 68
f 59 68 60
f 60 68 70
f 60 70 61
f 61 70 71
f 61 71 72
f 61 72 62
f 63 65 64
f 64 65 73
f 65 67 74
f 65 74 75
f 65 75 76
f 65 76 77
f 65 77 78
f 65 78 73
f 66 79 74
f 66 74 67
f 68 71 70
f 68 69 77
f 68 77 76
f 68 76 75
f 68 75 71
f 69 78 77
f 71 75 80
f 71 80 81
f 71 81 82
f 71 82 72
f 74 79 83
f 74 83 84
f 74 84 75
f 75 84 80
f 80 84 85
f 80 85 81
f 81 85 82
f 82 85 86
f 83 87 84
f 84 87 85
f 85 87 88
f 85 88 86

