# https://github.com/mikedh/trimesh
v -0.07138781 0.01424648 -0.01395132
v -0.07288069 0.01424648 -0.01362927
v -0.07301593 0.02320412 -0.01387520
v -0.07301593 0.02469863 -0.01391034
v -0.07138006 0.02469863 -0.01401573
v -0.06988547 0.02619315 -0.01407722
v -0.06839260 0.02807484 -0.01408015
v -0.06839260 0.02768767 -0.01407429
v -0.06689800 0.02807484 -0.01402452
v -0.06689800 0.02768767 -0.01400988
v -0.06689800 0.02619315 -0.01394547
v -0.06689800 0.02469863 -0.01378444
v -0.07008618 0.01424648 -0.01345653
v -0.07301593 0.01424648 -0.01355607
v -0.07138006 0.02807484 -0.01391619
v -0.06988547 0.02807484 -0.01405672
v -0.06988547 0.02768767 -0.01406551
v -0.07301593 0.02619315 -0.01384300
v -0.07287466 0.02619315 -0.01385764
v -0.06531037 0.02807484 -0.01363512
v -0.06558431 0.02619315 -0.01343018
v -0.06444376 0.02807484 -0.01320474
v -0.06446702 0.02797737 -0.01319010
v -0.06607447 0.02376321 -0.01306714
v -0.06953486 0.01424648 -0.01219466
v -0.07301593 0.01424648 0.01546102
v -0.07287466 0.02807484 -0.01376980
v -0.07301593 0.02768767 -0.01376395
v -0.06421721 0.02807484 -0.01218881
v -0.06421634 0.02807484 -0.01069565
v -0.06421548 0.02807484 -0.00919956
v -0.06421548 0.02807484 0.01287288
v -0.06421634 0.02807484 0.01321250
v -0.06975797 0.01424648 0.01171934
v -0.07138006 0.01424648 0.01506870
v -0.07055653 0.01494501 0.01548737
v -0.06988547 0.01722740 0.01567475
v -0.06988547 0.01872191 0.01575380
v -0.07301593 0.02807484 0.01570403
v -0.07301593 0.02807484 -0.01373174
v -0.06430335 0.02807484 0.01445680
v -0.06980880 0.01424648 0.01321250
v -0.07040060 0.01424648 0.01461490
v -0.06912740 0.01645171 0.01546688
v -0.06998970 0.01586554 0.01553129
v -0.07032997 0.01424648 0.01457098
v -0.06900422 0.01722740 0.01555471
v -0.06876732 0.01872191 0.01563962
v -0.06839260 0.02170960 0.01580357
v -0.06839260 0.02320412 0.01582992
v -0.06839260 0.02768767 0.01582992
v -0.06839260 0.02807484 0.01582114
v -0.06433005 0.02807484 0.01470566
v -0.06607447 0.02376050 0.01470566
v -0.06908433 0.01634747 0.01470566
v -0.06612529 0.02388504 0.01547859
v -0.06754149 0.02068212 0.01554300
v -0.06739419 0.02170960 0.01561619
v -0.06689800 0.02469863 0.01575380
v -0.06689800 0.02619315 0.01582699
v -0.06689800 0.02768767 0.01582992
v -0.06800581 0.02807484 0.01582992
v -0.06454972 0.02807484 0.01551958
v -0.06460916 0.02807484 0.01556057
v -0.06505883 0.02807484 0.01565133
v -0.06535861 0.02807484 0.01570403
v -0.06651121 0.02807484 0.01582407
v -0.06689800 0.02807484 0.01582992
f 1 2 3
f 1 3 4
f 1 4 5
f 1 5 6
f 1 6 7
f 1 7 8
f 1 8 9
f 1 9 10
f 1 10 11
f 1 11 12
f 1 12 13
f 1 13 25
f 1 25 34
f 1 34 42
f 1 42 46
f 1 46 43
f 1 43 35
f 1 35 26
f 1 26 14
f 1 14 2
f 2 14 3
f 3 14 26
f 3 26 39
f 3 39 40
f 3 40 28
f 3 28 18
f 3 18 4
f 4 15 16
f 4 16 17
f 4 17 5
f 4 18 19
f 4 19 15
f 5 17 6
f 6 17 7
f 7 17 16
f 7 16 15
f 7 15 27
f 7 27 40
f 7 40 39
f 7 39 52
f 7 52 62
f 7 62 68
f 7 68 67
f 7 67 66
f 7 66 65
f 7 65 64
f 7 64 63
f 7 63 53
f 7 53 41
f 7 41 33
f 7 33 32
f 7 32 31
f 7 31 30
f 7 30 29
f 7 29 22
f 7 22 20
f 7 20 9
f 7 9 8
f 9 20 10
f 10 20 11
f 11 20 12
f 12 20 13
f 13 21 22
f 13 22 23
f 13 23 24
f 13 24 25
f 13 20 21
f 15 19 27
f 18 28 27
f 18 27 19
f 20 22 21
f 22 29 23
f 23 25 24
f 23 29 25
f 25 29 30
f 25 30 31
f 25 31 32
f 25 32 33
f 25 33 34
f 26 35 36
f 26 36 37
f 26 37 38
f 26 38 39
f 27 28 40
f 33 41 42
f 33 42 34
f 35 43 36
f 36 44 45
f 36 45 37
f 36 43 46
f 36 46 44
f 37 45 47
f 37 47 48
f 37 48 49
f 37 49 38
f 38 49 50
f 38 50 39
f 39 50 51
f 39 51 52
f 41 53 54
f 41 54 42
f 42 54 55
f 42 55 44
f 42 44 46
f 44 55 54
f 44 54 53
f 44 53 56
f 44 56 57
f 44 57 47
f 44 47 45
f 47 57 58
f 47 58 48
f 48 58 49
f 49 59 60
f 49 60 50
f 49 58 59
f 50 61 68
f 50 68 62
f 50 62 51
f 50 60 61
f 51 62 52
f 53 63 56
f 56 63 64
f 56 64 57
f 57 64 58
f 58 65 59
f 58 64 65
f 59 66 60
f 59 65 66
f 60 66 67
f 60 67 61
f 61 67 68

