# https://github.com/mikedh/trimesh
v 0.03829155 0.05332559 -0.01176433
v 0.03829155 0.05332559 0.01321099
v 0.03829155 0.05332960 -0.01218759
v 0.05401737 0.03798898 -0.01218759
v 0.03829155 0.05343783 0.01468802
v 0.05401737 0.03798898 0.01321099
v 0.05411889 0.03798898 0.01461504
v 0.03829155 0.05350197 -0.01302828
v 0.05403891 0.03798898 -0.01233938
v 0.03829155 0.05369839 0.01555790
v 0.05458340 0.03798898 0.01559001
v 0.03829155 0.05356610 -0.01320926
v 0.05434961 0.03798898 -0.01324137
v 0.03829155 0.05458427 0.01571552
v 0.05564779 0.03798898 0.01577390
v 0.03829155 0.05398299 -0.01342818
v 0.05446958 0.03798898 -0.01331142
v 0.03920827 0.05459229 0.01580601
v 0.03829155 0.05608747 0.01582937
v 0.05564779 0.03815734 0.01579142
v 0.05713977 0.03798898 0.01582645
v 0.03829155 0.05453617 -0.01366463
v 0.05563856 0.03798898 -0.01382226
v 0.05713977 0.03815734 0.01582937
v 0.06460277 0.04712040 0.01583229
v 0.03829155 0.06653769 0.01582937
v 0.05862560 0.03798898 0.01582937
v 0.03829155 0.05550623 -0.01394194
v 0.05580775 0.03798898 -0.01387772
v 0.06012067 0.03798898 0.01582937
v 0.06161265 0.03798898 0.01582353
v 0.06609476 0.04263486 0.01573888
v 0.06609476 0.04413004 0.01573596
v 0.06460277 0.04861157 0.01576807
v 0.03920827 0.07699993 0.01579142
v 0.03829155 0.07699993 0.01582645
v 0.04070333 0.06653769 0.01582937
v 0.03829155 0.05608747 -0.01396821
v 0.05713977 0.03798898 -0.01396529
v 0.06759289 0.03798898 0.01560460
v 0.06759289 0.03815734 0.01560752
v 0.06759289 0.03964851 0.01561336
v 0.06843271 0.03964851 0.01551119
v 0.06837426 0.04054241 0.01548200
v 0.06700840 0.04413004 0.01556373
v 0.06574098 0.04712040 0.01564547
v 0.06551027 0.04861157 0.01557249
v 0.06451356 0.04997848 0.01558709
v 0.04597604 0.07180890 0.01547324
v 0.04450866 0.07332813 0.01548784
v 0.04207842 0.07539652 0.01556957
v 0.04056490 0.07687567 0.01557249
v 0.03920827 0.07797801 0.01559292
v 0.03829155 0.07830270 0.01565131
v 0.06012067 0.05160193 -0.01398864
v 0.05730281 0.03798898 -0.01396821
v 0.03829155 0.06653769 -0.01396821
v 0.06854961 0.03798898 0.01551411
v 0.06852192 0.03815734 0.01551703
v 0.06930021 0.03798898 0.01462672
v 0.06933405 0.03798898 0.01456542
v 0.06849424 0.04087111 0.01470554
v 0.06691304 0.04510411 0.01551119
v 0.06537799 0.04939724 0.01547616
v 0.06396291 0.05100065 0.01552287
v 0.05971768 0.05726998 0.01434066
v 0.05644146 0.06136669 0.01406043
v 0.05499870 0.06291799 0.01415384
v 0.05355901 0.06446528 0.01423557
v 0.05211317 0.06601658 0.01430855
v 0.05066733 0.06756788 0.01436693
v 0.04922456 0.06911517 0.01441363
v 0.04778180 0.07062237 0.01444574
v 0.04301360 0.07482331 0.01549951
v 0.04150316 0.07630245 0.01548784
v 0.03997426 0.07776155 0.01547032
v 0.03829155 0.07885187 0.01470554
v 0.05862560 0.05459229 -0.01396237
v 0.05862560 0.05607945 -0.01393026
v 0.06012374 0.05309711 -0.01394777
v 0.06161265 0.05010675 -0.01394194
v 0.06161265 0.04861157 -0.01394777
v 0.06012067 0.03798898 -0.01396821
v 0.03920827 0.06653769 -0.01396821
v 0.04219532 0.07251840 -0.01391275
v 0.05116261 0.06355535 -0.01393902
v 0.05169172 0.06355535 -0.01393026
v 0.03829155 0.06745564 -0.01395945
v 0.04070333 0.07251840 -0.01391858
v 0.06969090 0.03798898 0.01321099
v 0.06701148 0.04533661 0.01470554
v 0.06700225 0.04536467 0.01470262
v 0.06542413 0.04946539 0.01470262
v 0.06239710 0.05389080 0.01407794
v 0.06105585 0.05560243 0.01431730
v 0.06579328 0.04861157 0.01470262
v 0.05788423 0.05981539 0.01395826
v 0.04872929 0.07006118 0.01321099
v 0.04797868 0.07080276 0.01321099
v 0.04001425 0.07779763 0.01470554
v 0.03920827 0.07830270 0.01470554
v 0.04717578 0.07154834 0.01321099
v 0.03829155 0.07894006 0.01321099
v 0.05265767 0.06355134 -0.01390983
v 0.06012374 0.05459229 -0.01385437
v 0.06154190 0.05167408 -0.01388356
v 0.05564163 0.06056499 -0.01390107
v 0.05414657 0.06355134 -0.01384853
v 0.05713670 0.05906981 -0.01386312
v 0.06311079 0.04712040 -0.01386020
v 0.06609476 0.03815734 -0.01375804
v 0.06161265 0.05160193 -0.01387772
v 0.06609476 0.03798898 -0.01375512
v 0.04070333 0.07400957 -0.01384561
v 0.04219532 0.07400957 -0.01378431
v 0.04369038 0.07251440 -0.01383393
v 0.03829155 0.07251840 -0.01388647
v 0.03829155 0.07342834 -0.01386020
v 0.03829155 0.07400957 -0.01383977
v 0.06970935 0.03798898 0.01116766
v 0.06681152 0.04627059 0.01321099
v 0.06833427 0.04187725 0.01355835
v 0.06651312 0.04712040 0.01321099
v 0.06590403 0.04861157 0.01321099
v 0.06544874 0.04950547 0.01321099
v 0.06060671 0.05650836 0.01321099
v 0.05988072 0.05751851 0.01321099
v 0.05933007 0.05826810 0.01321099
v 0.05939467 0.05834827 0.01125815
v 0.05599541 0.06235279 0.01171352
v 0.05510944 0.06303424 0.01321099
v 0.04877236 0.07011730 0.01171352
v 0.05609077 0.06245701 0.01022189
v 0.05534324 0.06325070 0.01022189
v 0.04879697 0.07015738 0.01021897
v 0.04079562 0.07717230 0.01321099
v 0.04004809 0.07782569 0.01321099
v 0.03920827 0.07839089 0.01321099
v 0.05044276 0.06880250 0.00424661
v 0.03829155 0.07889997 0.01142745
v 0.03920827 0.07836684 0.01171644
v 0.03920827 0.07833477 0.01022189
v 0.06161572 0.05309711 -0.01365003
v 0.06161265 0.05167408 -0.01386896
v 0.05862868 0.05757463 -0.01374636
v 0.05265767 0.06504251 -0.01379307
v 0.05414350 0.06505854 -0.01340775
v 0.05565086 0.06349522 -0.01336105
v 0.05564163 0.06205616 -0.01375220
v 0.06311079 0.04861157 -0.01379307
v 0.06460277 0.04712040 -0.01362668
v 0.06460277 0.04562522 -0.01369382
v 0.06626087 0.03798898 -0.01374052
v 0.06311079 0.05010675 -0.01367047
v 0.03829155 0.07492352 -0.01376096
v 0.03829155 0.07550475 -0.01370549
v 0.03920827 0.07550475 -0.01369674
v 0.03829155 0.07641870 -0.01357706
v 0.03829155 0.07700795 -0.01340775
v 0.04070333 0.07550475 -0.01353911
v 0.04205689 0.07547268 -0.01324429
v 0.04313358 0.07402962 -0.01355078
v 0.06971551 0.03798898 0.01022189
v 0.06839272 0.04204561 -0.00023412
v 0.06866958 0.04114369 0.00424369
v 0.06720836 0.04562522 -0.00770686
v 0.06688535 0.04646701 -0.00471777
v 0.06656850 0.04712040 0.00573532
v 0.06686997 0.04644697 -0.00172867
v 0.06690688 0.04650309 -0.01069596
v 0.06657773 0.04714445 0.00274914
v 0.06657773 0.04716449 0.00125459
v 0.06650082 0.04724867 -0.01069596
v 0.06575637 0.04850334 -0.01069596
v 0.06406750 0.05119707 -0.01219051
v 0.06239402 0.05389080 -0.01218759
v 0.06071131 0.05658051 -0.01218467
v 0.05948388 0.05848857 -0.01218467
v 0.05900091 0.05923416 -0.01218467
v 0.05653990 0.06303023 -0.01218467
v 0.05653375 0.06302221 -0.01069304
v 0.05652145 0.06297812 -0.00770394
v 0.05940390 0.05836431 0.01022189
v 0.05649991 0.06293803 -0.00620940
v 0.05042738 0.06879449 0.00521573
v 0.05524787 0.06466972 -0.01069304
v 0.05519866 0.06462963 -0.00919849
v 0.05362669 0.06602459 -0.00471485
v 0.05374974 0.06608873 -0.01069304
v 0.05375897 0.06609675 -0.01218467
v 0.04005424 0.07782569 0.01171644
v 0.04892617 0.07027764 -0.01268383
v 0.04408106 0.07445051 -0.01218759
v 0.04005424 0.07782168 0.01022189
v 0.05207625 0.06743960 -0.00172575
v 0.05450342 0.06544336 -0.01218467
v 0.03829155 0.07886390 0.01022189
v 0.03920827 0.07829068 0.00872734
v 0.04003579 0.07780565 0.00872734
v 0.06306156 0.05167408 -0.01336689
v 0.06556872 0.04825481 -0.01310709
v 0.06607937 0.04698010 -0.01316547
v 0.05980073 0.05650435 -0.01353911
v 0.06020988 0.05613156 -0.01346613
v 0.06159112 0.05446401 -0.01328223
v 0.05862868 0.05898964 -0.01334937
v 0.04524081 0.07258254 -0.01344570
v 0.05364514 0.06599654 -0.01314796
v 0.05515866 0.06456950 -0.01319174
v 0.04369653 0.07403763 -0.01340483
v 0.04477937 0.07355661 -0.01319758
v 0.05649068 0.06295807 -0.01307206
v 0.05677677 0.06205616 -0.01327348
v 0.06609476 0.04562522 -0.01334645
v 0.06609476 0.04533661 -0.01337272
v 0.06609476 0.04413004 -0.01348073
v 0.06759289 0.03798898 -0.01350116
v 0.03829155 0.07765332 -0.01320050
v 0.03917136 0.07702799 -0.01327056
v 0.04313665 0.07498365 -0.01315963
v 0.04313358 0.07453068 -0.01335229
v 0.03865147 0.07785776 -0.01304287
v 0.06970935 0.03798898 0.00872734
v 0.06838964 0.04204160 -0.00172575
v 0.06720836 0.04562522 -0.00920141
v 0.06719606 0.04562522 -0.01069596
v 0.06688535 0.04645498 -0.01219051
v 0.06646698 0.04720458 -0.01219051
v 0.06571637 0.04848330 -0.01219051
v 0.06238479 0.05387877 -0.01296406
v 0.05945004 0.05843646 -0.01304287
v 0.05602617 0.06377982 -0.01218467
v 0.05599541 0.06376379 -0.01069304
v 0.05367591 0.06605666 -0.00620940
v 0.05449419 0.06541931 -0.01069304
v 0.05527863 0.06469777 -0.01218467
v 0.05447881 0.06537922 -0.00919849
v 0.04892617 0.07027764 -0.01293779
v 0.04169389 0.07644676 -0.00023412
v 0.04320126 0.07495158 -0.01315379
v 0.04333353 0.07505580 -0.01218759
v 0.04168773 0.07643072 -0.00172575
v 0.05207010 0.06742357 -0.01309541
v 0.03829155 0.07881579 0.00872734
v 0.04146624 0.07625835 -0.01294654
v 0.03869454 0.07788582 -0.01218759
v 0.06399367 0.05107681 -0.01307790
v 0.06685459 0.04639486 -0.01294654
v 0.06694996 0.04562522 -0.01303120
v 0.06008375 0.05650435 -0.01341359
v 0.06107738 0.05567058 -0.01316547
v 0.05813340 0.06020021 -0.01319758
v 0.05972383 0.05757463 -0.01325596
v 0.05049506 0.06884660 -0.01302536
v 0.06709761 0.04413004 -0.01313628
v 0.06759289 0.03964851 -0.01336397
v 0.06759289 0.03815734 -0.01348948
v 0.06772210 0.03798898 -0.01345737
v 0.03829155 0.07793793 -0.01308374
v 0.03829155 0.07806219 -0.01271886
v 0.06969090 0.03798898 0.00723571
v 0.06864497 0.04114369 -0.00172575
v 0.06765749 0.04413004 -0.00920141
v 0.06914640 0.03964851 0.00275206
v 0.06762673 0.04413004 -0.01069304
v 0.06712222 0.04562522 -0.01219051
v 0.04313665 0.07518808 -0.01217008
v 0.03829155 0.07809025 -0.01218759
v 0.06844809 0.04080297 -0.01218759
v 0.06838349 0.04057047 -0.01298157
v 0.06847885 0.03964851 -0.01305747
v 0.06862344 0.03815734 -0.01313044
v 0.06864190 0.03798898 -0.01313336
v 0.06966014 0.03798898 0.00569445
v 0.06911871 0.03964851 0.00125459
v 0.06908795 0.03964851 -0.00023412
v 0.06927868 0.03815734 -0.01069304
v 0.06850039 0.04097533 -0.01069304
v 0.06873726 0.03964851 -0.01218759
v 0.06932175 0.03798898 -0.01069304
v 0.06913102 0.03798898 -0.01218175
v 0.06871265 0.03798898 -0.01302828
f 1 2 5
f 1 5 10
f 1 10 14
f 1 14 19
f 1 19 26
f 1 26 36
f 1 36 54
f 1 54 77
f 1 77 103
f 1 103 140
f 1 140 197
f 1 197 244
f 1 244 268
f 1 268 260
f 1 260 259
f 1 259 218
f 1 218 159
f 1 159 158
f 1 158 156
f 1 156 155
f 1 155 119
f 1 119 118
f 1 118 117
f 1 117 88
f 1 88 57
f 1 57 38
f 1 38 28
f 1 28 22
f 1 22 16
f 1 16 12
f 1 12 8
f 1 8 3
f 1 3 4
f 1 4 6
f 1 6 2
f 2 6 7
f 2 7 5
f 3 8 9
f 3 9 4
f 4 9 13
f 4 13 17
f 4 17 23
f 4 23 29
f 4 29 39
f 4 39 56
f 4 56 83
f 4 83 113
f 4 113 153
f 4 153 217
f 4 217 258
f 4 258 273
f 4 273 282
f 4 282 281
f 4 281 280
f 4 280 274
f 4 274 261
f 4 261 223
f 4 223 163
f 4 163 120
f 4 120 90
f 4 90 61
f 4 61 60
f 4 60 58
f 4 58 40
f 4 40 31
f 4 31 30
f 4 30 27
f 4 27 21
f 4 21 15
f 4 15 11
f 4 11 7
f 4 7 6
f 5 7 10
f 7 11 10
f 8 12 13
f 8 13 9
f 10 11 14
f 11 15 14
f 12 16 17
f 12 17 13
f 14 18 19
f 14 15 20
f 14 20 18
f 15 21 20
f 16 22 23
f 16 23 17
f 18 20 19
f 19 20 21
f 19 21 24
f 19 24 25
f 19 25 26
f 21 27 24
f 22 28 29
f 22 29 23
f 24 27 25
f 25 27 30
f 25 30 31
f 25 31 32
f 25 32 33
f 25 33 34
f 25 34 35
f 25 35 36
f 25 36 37
f 25 37 26
f 26 37 36
f 28 38 39
f 28 39 29
f 31 40 41
f 31 41 32
f 32 41 42
f 32 42 33
f 33 42 43
f 33 43 44
f 33 44 45
f 33 45 46
f 33 46 34
f 34 46 47
f 34 47 48
f 34 48 49
f 34 49 35
f 35 49 50
f 35 50 51
f 35 51 52
f 35 52 53
f 35 53 54
f 35 54 36
f 38 55 56
f 38 56 39
f 38 57 55
f 40 58 41
f 41 58 42
f 42 58 59
f 42 59 43
f 43 59 58
f 43 58 60
f 43 60 44
f 44 60 61
f 44 61 62
f 44 62 63
f 44 63 45
f 45 63 46
f 46 63 47
f 47 64 48
f 47 63 64
f 48 64 65
f 48 65 49
f 49 66 67
f 49 67 68
f 49 68 69
f 49 69 70
f 49 70 71
f 49 71 72
f 49 72 73
f 49 73 50
f 49 65 66
f 50 73 74
f 50 74 51
f 51 74 52
f 52 74 75
f 52 75 76
f 52 76 53
f 53 76 54
f 54 76 77
f 55 78 79
f 55 79 80
f 55 80 81
f 55 81 82
f 55 82 83
f 55 83 56
f 55 57 84
f 55 84 85
f 55 85 86
f 55 86 87
f 55 87 78
f 57 88 89
f 57 89 84
f 61 90 62
f 62 91 63
f 62 90 91
f 63 91 92
f 63 92 64
f 64 93 94
f 64 94 95
f 64 95 66
f 64 66 65
f 64 92 96
f 64 96 93
f 66 97 67
f 66 95 97
f 67 97 98
f 67 98 68
f 68 98 69
f 69 98 70
f 70 98 71
f 71 98 72
f 72 98 73
f 73 98 99
f 73 99 75
f 73 75 74
f 75 99 76
f 76 100 101
f 76 101 77
f 76 99 102
f 76 102 100
f 77 101 138
f 77 138 103
f 78 87 104
f 78 104 79
f 79 105 106
f 79 106 80
f 79 104 107
f 79 107 108
f 79 108 109
f 79 109 105
f 80 106 81
f 81 110 111
f 81 111 82
f 81 106 112
f 81 112 110
f 82 111 83
f 83 111 113
f 84 89 85
f 85 89 114
f 85 114 115
f 85 115 116
f 85 116 108
f 85 108 104
f 85 104 87
f 85 87 86
f 88 117 89
f 89 117 118
f 89 118 119
f 89 119 114
f 90 120 121
f 90 121 122
f 90 122 91
f 91 122 92
f 92 122 123
f 92 123 96
f 93 96 124
f 93 124 125
f 93 125 94
f 94 126 127
f 94 127 128
f 94 128 95
f 94 125 129
f 94 129 126
f 95 128 97
f 96 123 124
f 97 128 130
f 97 130 131
f 97 131 98
f 98 132 99
f 98 131 130
f 98 130 133
f 98 133 134
f 98 134 132
f 99 132 135
f 99 135 102
f 100 136 137
f 100 137 138
f 100 138 101
f 100 102 136
f 102 135 139
f 102 139 136
f 103 138 141
f 103 141 142
f 103 142 140
f 104 108 107
f 105 143 144
f 105 144 112
f 105 112 106
f 105 109 145
f 105 145 143
f 108 146 147
f 108 147 148
f 108 148 149
f 108 149 109
f 108 116 115
f 108 115 146
f 109 149 145
f 110 112 150
f 110 150 151
f 110 151 152
f 110 152 153
f 110 153 111
f 111 153 113
f 112 144 154
f 112 154 151
f 112 151 150
f 114 119 155
f 114 155 156
f 114 156 157
f 114 157 115
f 115 157 158
f 115 158 159
f 115 159 160
f 115 160 161
f 115 161 162
f 115 162 146
f 120 163 164
f 120 164 165
f 120 165 121
f 121 165 164
f 121 164 166
f 121 166 123
f 121 123 122
f 123 167 168
f 123 168 124
f 123 166 169
f 123 169 167
f 124 170 125
f 124 168 171
f 124 171 172
f 124 172 170
f 125 170 173
f 125 173 174
f 125 174 175
f 125 175 176
f 125 176 177
f 125 177 178
f 125 178 179
f 125 179 180
f 125 180 181
f 125 181 182
f 125 182 183
f 125 183 129
f 126 129 127
f 127 129 128
f 128 129 133
f 128 133 130
f 129 183 182
f 129 182 184
f 129 184 133
f 132 134 185
f 132 185 135
f 133 184 186
f 133 186 187
f 133 187 188
f 133 188 185
f 133 185 134
f 135 185 139
f 136 139 189
f 136 189 190
f 136 190 137
f 137 191 138
f 137 190 192
f 137 192 193
f 137 193 191
f 138 191 194
f 138 194 141
f 139 185 195
f 139 195 196
f 139 196 189
f 140 142 198
f 140 198 197
f 141 194 199
f 141 199 142
f 142 199 198
f 143 200 201
f 143 201 202
f 143 202 154
f 143 154 144
f 143 145 203
f 143 203 204
f 143 204 205
f 143 205 200
f 145 149 148
f 145 148 206
f 145 206 203
f 146 162 207
f 146 207 147
f 147 208 209
f 147 209 148
f 147 207 210
f 147 210 211
f 147 211 208
f 148 212 213
f 148 213 206
f 148 209 212
f 151 154 202
f 151 202 214
f 151 214 215
f 151 215 216
f 151 216 217
f 151 217 153
f 151 153 152
f 156 158 157
f 159 218 160
f 160 218 219
f 160 219 161
f 161 220 221
f 161 221 162
f 161 219 222
f 161 222 220
f 162 210 207
f 162 221 210
f 163 223 224
f 163 224 164
f 164 224 225
f 164 225 166
f 166 225 170
f 166 170 167
f 166 167 169
f 167 170 171
f 167 171 168
f 170 225 226
f 170 226 227
f 170 227 173
f 170 172 171
f 173 227 228
f 173 228 229
f 173 229 174
f 174 229 175
f 175 230 176
f 175 229 230
f 176 230 177
f 177 231 178
f 177 230 231
f 178 231 179
f 179 231 180
f 180 231 212
f 180 212 232
f 180 232 181
f 181 232 182
f 182 232 233
f 182 233 184
f 184 233 186
f 185 188 234
f 185 234 235
f 185 235 195
f 186 233 236
f 186 236 237
f 186 237 234
f 186 234 188
f 186 188 187
f 189 196 190
f 190 196 238
f 190 238 192
f 191 239 194
f 191 193 239
f 192 238 193
f 193 238 240
f 193 240 241
f 193 241 239
f 194 239 241
f 194 241 242
f 194 242 199
f 195 235 196
f 196 235 236
f 196 236 209
f 196 209 208
f 196 208 243
f 196 243 238
f 197 198 244
f 198 199 245
f 198 245 246
f 198 246 244
f 199 242 245
f 200 205 247
f 200 247 201
f 201 247 248
f 201 248 202
f 202 248 249
f 202 249 214
f 203 206 204
f 204 206 250
f 204 250 205
f 205 250 251
f 205 251 247
f 206 252 253
f 206 253 250
f 206 213 252
f 208 211 243
f 209 236 232
f 209 232 212
f 210 221 220
f 210 220 240
f 210 240 211
f 211 240 254
f 211 254 243
f 212 231 252
f 212 252 213
f 214 249 255
f 214 255 215
f 215 255 216
f 216 255 256
f 216 256 257
f 216 257 217
f 217 257 258
f 218 259 222
f 218 222 219
f 220 222 240
f 222 259 260
f 222 260 246
f 222 246 245
f 222 245 240
f 223 261 224
f 224 262 263
f 224 263 226
f 224 226 225
f 224 261 264
f 224 264 262
f 226 263 265
f 226 265 227
f 227 265 266
f 227 266 248
f 227 248 228
f 228 248 229
f 229 248 230
f 230 247 251
f 230 251 231
f 230 248 247
f 231 251 252
f 232 236 233
f 234 237 235
f 235 237 236
f 238 243 254
f 238 254 240
f 240 245 241
f 241 245 267
f 241 267 242
f 242 267 245
f 244 246 268
f 246 260 268
f 248 266 269
f 248 269 270
f 248 270 249
f 249 270 271
f 249 271 255
f 250 253 251
f 251 253 252
f 255 271 256
f 256 271 257
f 257 271 272
f 257 272 258
f 258 272 273
f 261 274 275
f 261 275 264
f 262 265 263
f 262 264 275
f 262 275 276
f 262 276 277
f 262 277 278
f 262 278 265
f 265 278 266
f 266 278 277
f 266 277 269
f 269 279 270
f 269 277 280
f 269 280 279
f 270 279 281
f 270 281 271
f 271 281 282
f 271 282 272
f 272 282 273
f 274 280 277
f 274 277 275
f 275 277 276
f 279 280 281

