# https://github.com/mikedh/trimesh
v 0.06013420 -0.05390271 0.02245055
v 0.06013420 -0.04469231 0.02110232
v 0.06717718 -0.04469231 0.02645145
v 0.06680235 -0.05390271 0.02794395
v 0.06013420 -0.05390271 0.02907825
v 0.06013420 -0.04469231 0.03126626
v 0.06731783 -0.04469231 0.02660667
v 0.06731783 -0.04803622 0.02771809
v 0.06681150 -0.05390271 0.02867030
v 0.06474396 -0.05390271 0.02973197
v 0.06013420 -0.04741684 0.03070408
v 0.06013420 -0.04592385 0.03106328
v 0.06535508 -0.05390271 0.02973495
v 0.06585297 -0.05317875 0.02984838
v 0.06685580 -0.05272256 0.02985535
v 0.06690714 -0.05158388 0.02987624
v 0.06677422 -0.05039562 0.02976878
v 0.06730517 -0.04469231 0.02839767
v 0.06731783 -0.04469231 0.02838076
v 0.06731783 -0.04803622 0.02872602
v 0.06634665 -0.05373502 0.02955287
v 0.06626789 -0.05390271 0.02943446
v 0.06479108 -0.05390271 0.02973495
v 0.06548870 -0.05390271 0.02970311
v 0.06731783 -0.04712744 0.02867428
v 0.06731783 -0.04576247 0.02854294
v 0.06731783 -0.04474640 0.02840066
f 1 2 3
f 1 3 4
f 1 4 9
f 1 9 22
f 1 22 24
f 1 24 13
f 1 13 23
f 1 23 10
f 1 10 5
f 1 5 11
f 1 11 12
f 1 12 6
f 1 6 2
f 2 6 18
f 2 18 19
f 2 19 7
f 2 7 3
f 3 7 4
f 4 8 9
f 4 7 8
f 5 10 11
f 6 12 13
f 6 13 14
f 6 14 15
f 6 15 16
f 6 16 17
f 6 17 18
f 7 19 27
f 7 27 26
f 7 26 25
f 7 25 20
f 7 20 8
f 8 20 9
f 9 20 15
f 9 15 21
f 9 21 22
f 10 23 12
f 10 12 11
f 12 23 13
f 13 15 14
f 13 24 15
f 15 24 21
f 15 20 16
f 16 20 25
f 16 25 26
f 16 26 27
f 16 27 17
f 17 27 18
f 18 27 19
f 21 24 22

