# https://github.com/mikedh/trimesh
v 0.06731783 -0.04803778 0.02872643
v 0.07119784 -0.05088172 0.02665614
v 0.07127307 -0.05006709 0.02673545
v 0.07140692 -0.04854801 0.02687493
v 0.07149645 -0.04703182 0.02694603
v 0.07150014 -0.04551273 0.02689681
v 0.06731783 -0.04712749 0.02867173
v 0.06731783 -0.04803778 0.02771726
v 0.06731830 -0.07284179 0.00078975
v 0.06732060 -0.07284179 0.00159380
v 0.06747152 -0.07132271 0.00615009
v 0.06767644 -0.06980362 0.01070365
v 0.06781489 -0.06828743 0.01374209
v 0.06798935 -0.06820916 0.01519704
v 0.06807888 -0.06765255 0.01614877
v 0.06812042 -0.06607548 0.01760372
v 0.06937345 -0.06185451 0.02238427
v 0.06954975 -0.06011510 0.02369154
v 0.06965729 -0.05692328 0.02513828
v 0.06968867 -0.05692328 0.02513828
v 0.07121538 -0.05259504 0.02526409
v 0.07166583 -0.04854801 0.02588764
v 0.06977267 -0.06011510 0.02369154
v 0.06985666 -0.06185451 0.02238427
v 0.07184121 -0.04703182 0.02588764
v 0.07190767 -0.04551273 0.02588764
v 0.07187674 -0.04469231 0.02588764
v 0.07168890 -0.04469231 0.02635257
v 0.07145399 -0.04469231 0.02683664
v 0.06731783 -0.04576205 0.02854320
v 0.06731783 -0.04469231 0.02660691
v 0.06736906 -0.07212864 0.00078975
v 0.06751906 -0.07374339 0.00078975
v 0.06744752 -0.07284179 0.00311166
v 0.06790766 -0.07084727 0.01070365
v 0.06795935 -0.06939486 0.01374209
v 0.06805027 -0.06917743 0.01465553
v 0.06934945 -0.06324894 0.02094026
v 0.07122923 -0.05271970 0.02436705
v 0.07035557 -0.05917871 0.02284920
v 0.07032049 -0.06069490 0.02133135
v 0.06979897 -0.06324894 0.02094026
v 0.06997297 -0.06230096 0.02139972
v 0.07187721 -0.04703182 0.02436705
v 0.07200228 -0.04551273 0.02436705
v 0.07135845 -0.05158618 0.02436705
v 0.07153153 -0.05006709 0.02436705
v 0.07203274 -0.04469231 0.02436705
v 0.07198889 -0.04469231 0.02506718
v 0.06731783 -0.04469231 0.02837910
v 0.06731783 -0.04474739 0.02840098
v 0.06751352 -0.04559100 0.02844748
v 0.07047510 -0.04469231 0.00078975
v 0.06806273 -0.06392151 0.00078975
v 0.06798842 -0.06467815 0.00078975
v 0.06793443 -0.06524926 0.00078975
v 0.06742814 -0.07132271 0.00078975
v 0.06769905 -0.07430870 0.00078975
v 0.06772489 -0.07411156 0.00159380
v 0.06785181 -0.07385355 0.00311166
v 0.06778951 -0.07250261 0.00615009
v 0.06803781 -0.07067043 0.01174016
v 0.06838072 -0.06917743 0.01465553
v 0.06968267 -0.06603779 0.01757364
v 0.06969052 -0.06612187 0.01677506
v 0.06997435 -0.06373017 0.01829564
v 0.06980128 -0.06524926 0.01525720
v 0.07023926 -0.06140806 0.00078975
v 0.06974128 -0.06464336 0.01925832
v 0.07187721 -0.04703182 0.00078975
v 0.07194366 -0.04622589 0.00078975
v 0.07200228 -0.04551273 0.00078975
v 0.07145030 -0.05078025 0.00078975
v 0.07153153 -0.05006709 0.00078975
v 0.07203274 -0.04469231 0.00078975
v 0.06850441 -0.07430870 0.00078975
v 0.06803319 -0.07367961 0.00407980
v 0.06798842 -0.07223300 0.00766795
v 0.06814626 -0.07208515 0.00843371
v 0.06833133 -0.07067043 0.01174016
v 0.06850395 -0.07084727 0.01070365
v 0.06853625 -0.07250261 0.00615009
v 0.06840056 -0.07385355 0.00311166
v 0.06882239 -0.07284179 0.00311166
v 0.06892070 -0.07284179 0.00159380
v 0.06969144 -0.06620304 0.01525720
v 0.06980036 -0.06524926 0.01677506
v 0.06969144 -0.06621174 0.01374209
v 0.06980128 -0.06524926 0.00078975
v 0.06892162 -0.07284179 0.00078975
v 0.06849887 -0.07411156 0.00159380
v 0.06825242 -0.07367961 0.00407980
v 0.06815550 -0.07208515 0.00843371
v 0.06832903 -0.07223300 0.00766795
v 0.06969144 -0.06621174 0.00078975
f 1 2 3
f 1 3 4
f 1 4 5
f 1 5 6
f 1 6 7
f 1 7 30
f 1 30 51
f 1 51 50
f 1 50 31
f 1 31 8
f 1 8 9
f 1 9 10
f 1 10 11
f 1 11 12
f 1 12 13
f 1 13 14
f 1 14 15
f 1 15 16
f 1 16 17
f 1 17 18
f 1 18 19
f 1 19 20
f 1 20 2
f 2 21 22
f 2 22 3
f 2 20 23
f 2 23 24
f 2 24 21
f 3 22 25
f 3 25 4
f 4 25 5
f 5 25 26
f 5 26 6
f 6 26 27
f 6 27 28
f 6 28 29
f 6 29 30
f 6 30 7
f 8 31 9
f 9 32 57
f 9 57 56
f 9 56 55
f 9 55 54
f 9 54 53
f 9 53 75
f 9 75 72
f 9 72 71
f 9 71 70
f 9 70 74
f 9 74 73
f 9 73 68
f 9 68 89
f 9 89 95
f 9 95 90
f 9 90 76
f 9 76 58
f 9 58 33
f 9 33 10
f 9 31 32
f 10 33 34
f 10 34 11
f 11 34 35
f 11 35 12
f 12 35 36
f 12 36 13
f 13 36 14
f 14 36 37
f 14 37 15
f 15 37 17
f 15 17 16
f 17 37 38
f 17 38 42
f 17 42 24
f 17 24 23
f 17 23 18
f 18 23 20
f 18 20 19
f 21 39 22
f 21 24 40
f 21 40 41
f 21 41 39
f 22 39 25
f 24 42 43
f 24 43 40
f 25 44 45
f 25 45 26
f 25 39 46
f 25 46 47
f 25 47 44
f 26 45 48
f 26 48 49
f 26 49 27
f 27 49 48
f 27 48 75
f 27 75 53
f 27 53 31
f 27 31 50
f 27 50 29
f 27 29 28
f 29 50 51
f 29 51 52
f 29 52 30
f 30 52 51
f 31 53 54
f 31 54 55
f 31 55 56
f 31 56 57
f 31 57 32
f 33 58 34
f 34 58 59
f 34 59 60
f 34 60 61
f 34 61 35
f 35 61 62
f 35 62 37
f 35 37 36
f 37 62 80
f 37 80 63
f 37 63 42
f 37 42 38
f 39 41 46
f 40 43 41
f 41 43 64
f 41 64 65
f 41 65 66
f 41 66 67
f 41 67 68
f 41 68 46
f 42 63 69
f 42 69 43
f 43 69 64
f 44 70 71
f 44 71 45
f 44 47 74
f 44 74 70
f 45 71 72
f 45 72 75
f 45 75 48
f 46 73 47
f 46 68 73
f 47 73 74
f 58 76 92
f 58 92 77
f 58 77 60
f 58 60 59
f 60 77 78
f 60 78 62
f 60 62 61
f 62 78 79
f 62 79 93
f 62 93 80
f 63 80 64
f 63 64 69
f 64 80 81
f 64 81 82
f 64 82 83
f 64 83 84
f 64 84 85
f 64 85 65
f 65 86 87
f 65 87 66
f 65 85 86
f 66 87 88
f 66 88 67
f 67 88 95
f 67 95 89
f 67 89 68
f 76 90 85
f 76 85 84
f 76 84 91
f 76 91 83
f 76 83 92
f 77 92 93
f 77 93 79
f 77 79 78
f 80 93 92
f 80 92 94
f 80 94 81
f 81 94 83
f 81 83 82
f 83 91 84
f 83 94 92
f 85 90 86
f 86 88 87
f 86 90 88
f 88 90 95

