# https://github.com/mikedh/trimesh
v 0.06467756 -0.04468580 0.02889737
v 0.06587350 -0.04468580 0.02888759
v 0.06467756 -0.04453810 0.02888270
v 0.06467756 -0.04468580 0.02604492
v 0.06655848 -0.04468580 0.02866429
v 0.06587350 -0.04398995 0.02877350
v 0.06523744 -0.03998881 0.02820626
v 0.06467756 -0.03970325 0.02821279
v 0.06467756 -0.04398995 0.02882240
v 0.06467756 -0.02580920 0.01836123
v 0.07046710 -0.01317229 0.01224721
v 0.07151764 -0.01319198 0.01224721
v 0.06592732 -0.04468580 0.02604655
v 0.06714352 -0.04398995 0.02835785
v 0.06730567 -0.04468580 0.02839697
v 0.06685764 -0.04285427 0.02824049
v 0.06597834 -0.04239474 0.02843935
v 0.06552751 -0.04095381 0.02830243
v 0.06467756 -0.03900083 0.02808728
v 0.06739165 -0.03943081 0.02736357
v 0.06715610 -0.03639795 0.02682405
v 0.06587350 -0.03639795 0.02725762
v 0.06467756 -0.03639795 0.02755428
v 0.06467756 -0.02454223 0.01833515
v 0.06494457 -0.01252239 0.01335070
v 0.06495785 -0.01335282 0.01335070
v 0.07046710 -0.01169853 0.01224721
v 0.07181820 -0.01213180 0.01224721
v 0.06823600 -0.04351730 0.02656488
v 0.06717847 -0.04468580 0.02645079
v 0.06829122 -0.03817697 0.02674744
v 0.06814584 -0.03716273 0.02664149
v 0.06770758 -0.04468580 0.02784441
v 0.06845268 -0.04095381 0.02699031
v 0.06841563 -0.03943081 0.02687621
v 0.06754053 -0.03776668 0.02697238
v 0.06682898 -0.03531151 0.02671158
v 0.06594479 -0.03483557 0.02689414
v 0.06467756 -0.03486839 0.02721524
v 0.06467756 -0.02462429 0.01934737
v 0.06492779 -0.01236156 0.01374189
v 0.06494457 -0.01237797 0.01335070
v 0.07068657 -0.01135389 0.01224721
v 0.07181750 -0.01210554 0.01224721
v 0.07137086 -0.01666139 0.01632214
v 0.07123316 -0.01877848 0.01760004
v 0.07123316 -0.01932007 0.01760004
v 0.07123316 -0.01932007 0.01739629
v 0.06975695 -0.03137601 0.02345816
v 0.06823600 -0.04351730 0.02687132
v 0.06772506 -0.04468580 0.02739780
v 0.06748391 -0.04468580 0.02678819
v 0.06872807 -0.03336181 0.02544020
v 0.06735740 -0.03483557 0.02638885
v 0.06835692 -0.04247024 0.02700660
v 0.06975695 -0.03137601 0.02375807
v 0.06974297 -0.03032239 0.02372873
v 0.06649907 -0.03430055 0.02655999
v 0.06548697 -0.03395919 0.02675559
v 0.06467756 -0.03461566 0.02714189
v 0.06467756 -0.02513305 0.01994557
v 0.06494806 -0.01249285 0.01475247
v 0.06587350 -0.01223683 0.01490895
v 0.07081728 -0.01115695 0.01224721
v 0.07148829 -0.01115695 0.01224721
v 0.07136178 -0.01124885 0.01322845
v 0.07149458 -0.01209241 0.01373863
v 0.07148759 -0.01362525 0.01486494
v 0.07132333 -0.01561105 0.01616240
v 0.06967867 -0.02954120 0.02361952
v 0.06847714 -0.03243292 0.02524624
v 0.06970103 -0.02648864 0.02211506
v 0.07046640 -0.01239766 0.01471336
v 0.07042726 -0.01238782 0.01471499
v 0.06467756 -0.03386072 0.02683546
v 0.06467756 -0.02596347 0.02079478
v 0.06467756 -0.02680046 0.02152827
v 0.06467756 -0.02761448 0.02217374
v 0.06467756 -0.02777531 0.02229925
v 0.06467756 -0.03286946 0.02610197
v 0.06739165 -0.01218103 0.01488450
v 0.07086621 -0.01124885 0.01322845
v 0.06890911 -0.01225981 0.01477693
v 0.07136667 -0.01259132 0.01463838
f 1 2 3
f 1 3 9
f 1 9 8
f 1 8 19
f 1 19 23
f 1 23 39
f 1 39 60
f 1 60 75
f 1 75 80
f 1 80 79
f 1 79 78
f 1 78 77
f 1 77 76
f 1 76 61
f 1 61 40
f 1 40 24
f 1 24 10
f 1 10 4
f 1 4 13
f 1 13 30
f 1 30 52
f 1 52 51
f 1 51 33
f 1 33 15
f 1 15 5
f 1 5 2
f 2 5 6
f 2 6 7
f 2 7 8
f 2 8 9
f 2 9 3
f 4 10 11
f 4 11 12
f 4 12 13
f 5 14 6
f 5 15 14
f 6 14 16
f 6 16 17
f 6 17 18
f 6 18 7
f 7 19 8
f 7 18 16
f 7 16 20
f 7 20 21
f 7 21 22
f 7 22 23
f 7 23 19
f 10 24 25
f 10 25 26
f 10 26 11
f 11 26 25
f 11 25 42
f 11 42 27
f 11 27 43
f 11 43 64
f 11 64 65
f 11 65 44
f 11 44 28
f 11 28 12
f 12 28 29
f 12 29 30
f 12 30 13
f 14 15 31
f 14 31 32
f 14 32 16
f 15 33 34
f 15 34 35
f 15 35 31
f 16 18 17
f 16 32 20
f 20 32 36
f 20 36 21
f 21 36 32
f 21 32 37
f 21 37 22
f 22 37 38
f 22 38 23
f 23 38 39
f 24 40 41
f 24 41 42
f 24 42 25
f 27 42 43
f 28 44 45
f 28 45 46
f 28 46 47
f 28 47 48
f 28 48 29
f 29 49 56
f 29 56 50
f 29 50 51
f 29 51 52
f 29 52 30
f 29 48 49
f 31 35 53
f 31 53 32
f 32 53 54
f 32 54 37
f 33 51 50
f 33 50 55
f 33 55 34
f 34 55 56
f 34 56 57
f 34 57 35
f 35 57 53
f 37 54 58
f 37 58 38
f 38 58 59
f 38 59 39
f 39 59 60
f 40 61 62
f 40 62 41
f 41 62 63
f 41 63 64
f 41 64 42
f 42 64 43
f 44 65 66
f 44 66 67
f 44 67 68
f 44 68 45
f 45 68 46
f 46 68 69
f 46 69 70
f 46 70 57
f 46 57 56
f 46 56 47
f 47 56 49
f 47 49 48
f 50 56 55
f 53 57 70
f 53 70 71
f 53 71 58
f 53 58 54
f 58 71 59
f 59 71 70
f 59 70 72
f 59 72 73
f 59 73 74
f 59 74 75
f 59 75 60
f 61 76 62
f 62 76 77
f 62 77 78
f 62 78 79
f 62 79 80
f 62 80 75
f 62 75 63
f 63 81 82
f 63 82 64
f 63 75 81
f 64 82 66
f 64 66 65
f 66 82 81
f 66 81 83
f 66 83 74
f 66 74 73
f 66 73 84
f 66 84 67
f 67 84 68
f 68 84 69
f 69 84 72
f 69 72 70
f 72 84 73
f 74 83 81
f 74 81 75

