# https://github.com/mikedh/trimesh
v -0.06753070 -0.07522947 -0.00362623
v -0.06673348 -0.07521395 -0.00362623
v -0.06835904 -0.07492087 -0.00362623
v -0.06737876 -0.07520390 -0.00391610
v -0.06675515 -0.07520390 -0.00391610
v -0.06556862 -0.07464332 -0.00362623
v -0.06556862 -0.07466249 -0.00446291
v -0.06838467 -0.07490809 -0.00362623
v -0.06866627 -0.07376136 -0.00560098
v -0.06779461 -0.07395126 -0.00606544
v -0.06731683 -0.07369380 -0.00693670
v -0.06623373 -0.07383166 -0.00720187
v -0.06556862 -0.07387822 -0.00738798
v -0.06556862 -0.07437581 -0.00600120
v -0.06556862 -0.07303917 -0.00362788
v -0.06557015 -0.07303917 -0.00362623
v -0.06839443 -0.07490079 -0.00362623
v -0.06865193 -0.07422516 -0.00362623
v -0.06868549 -0.07394396 -0.00448267
v -0.06855217 -0.06611130 -0.01966471
v -0.06853294 -0.06604009 -0.02045197
v -0.06855491 -0.06758854 -0.01751702
v -0.06774976 -0.07240281 -0.00906627
v -0.06770644 -0.07085162 -0.01206710
v -0.06710021 -0.06907948 -0.01592931
v -0.06623373 -0.07228321 -0.01018129
v -0.06556862 -0.07270410 -0.00963942
v -0.06556862 -0.06879918 -0.01379974
v -0.06691288 -0.06592322 -0.01871933
v -0.06775190 -0.06591135 -0.01868968
v -0.06775190 -0.06741507 -0.01563944
v -0.06854423 -0.06596522 -0.01880497
v -0.06769606 -0.07338064 -0.00362623
v -0.06859061 -0.07355411 -0.00362623
v -0.06868549 -0.07341259 -0.00448267
v -0.06855217 -0.06594240 -0.01966471
v -0.06853294 -0.06596431 -0.02045197
v -0.06829436 -0.06604009 -0.02045197
v -0.06668650 -0.06780401 -0.01784807
v -0.06766433 -0.06929494 -0.01506958
v -0.06672646 -0.06907948 -0.01592931
v -0.06556862 -0.07073840 -0.01314589
v -0.06623373 -0.07073475 -0.01314424
v -0.06556862 -0.07235533 -0.01027352
v -0.06556862 -0.06868688 -0.01491312
v -0.06691288 -0.06592322 -0.01926778
v -0.06777356 -0.06590405 -0.01973059
v -0.06854820 -0.06748081 -0.01576297
v -0.06856773 -0.07354772 -0.00362623
v -0.06855095 -0.06899822 -0.01272590
v -0.06829436 -0.06596431 -0.02045197
v -0.06691288 -0.06638977 -0.01926778
v -0.06556862 -0.06938807 -0.01491312
v -0.06556862 -0.07056676 -0.01342423
f 1 2 6
f 1 6 16
f 1 16 33
f 1 33 49
f 1 49 34
f 1 34 18
f 1 18 17
f 1 17 8
f 1 8 3
f 1 3 4
f 1 4 5
f 1 5 2
f 2 5 7
f 2 7 6
f 3 8 9
f 3 9 10
f 3 10 4
f 4 10 11
f 4 11 12
f 4 12 13
f 4 13 5
f 5 13 14
f 5 14 7
f 6 15 16
f 6 7 14
f 6 14 13
f 6 13 27
f 6 27 44
f 6 44 42
f 6 42 54
f 6 54 53
f 6 53 45
f 6 45 28
f 6 28 15
f 8 17 9
f 9 17 18
f 9 18 19
f 9 19 20
f 9 20 21
f 9 21 22
f 9 22 10
f 10 22 23
f 10 23 11
f 11 23 24
f 11 24 25
f 11 25 12
f 12 26 13
f 12 25 26
f 13 26 27
f 15 28 29
f 15 29 16
f 16 30 31
f 16 31 32
f 16 32 33
f 16 29 30
f 18 34 35
f 18 35 19
f 19 35 36
f 19 36 20
f 20 36 37
f 20 37 21
f 21 37 51
f 21 51 38
f 21 38 39
f 21 39 25
f 21 25 40
f 21 40 22
f 22 40 24
f 22 24 23
f 24 40 25
f 25 39 41
f 25 41 42
f 25 42 43
f 25 43 26
f 26 43 27
f 27 43 44
f 28 45 29
f 29 45 46
f 29 46 47
f 29 47 30
f 30 47 36
f 30 36 32
f 30 32 31
f 32 48 33
f 32 36 35
f 32 35 34
f 32 34 48
f 33 48 50
f 33 50 49
f 34 49 50
f 34 50 48
f 36 47 37
f 37 47 51
f 38 51 46
f 38 46 52
f 38 52 39
f 39 52 53
f 39 53 54
f 39 54 41
f 41 54 42
f 42 44 43
f 45 53 52
f 45 52 46
f 46 51 47

