# https://github.com/mikedh/trimesh
v -0.06927012 -0.01219946 -0.00000049
v -0.07008432 -0.01251350 -0.00000049
v -0.06923033 -0.01220517 -0.00000049
v -0.06849304 -0.01284086 -0.00704964
v -0.06927012 -0.01283325 -0.00712089
v -0.07004233 -0.01284657 -0.00694949
v -0.07005692 -0.01282183 -0.00599955
v -0.07004189 -0.01433492 -0.01054892
v -0.07008432 -0.01339281 -0.00000049
v -0.06845503 -0.01255157 -0.00000049
v -0.06845017 -0.01413698 -0.01054892
v -0.06927321 -0.01408750 -0.01054892
v -0.06556906 -0.01404753 -0.00000049
v -0.06556906 -0.01426260 -0.00144502
v -0.06556906 -0.01429115 -0.00160196
v -0.06556906 -0.01562913 -0.00749880
v -0.06556906 -0.01633525 -0.01054892
v -0.07004189 -0.01440153 -0.01054892
v -0.06934438 -0.02273210 -0.00144502
v -0.06932670 -0.02273210 -0.00000049
v -0.06556906 -0.02784806 -0.00000049
v -0.06556906 -0.03164315 -0.01054892
v -0.06858631 -0.02819255 -0.01054892
v -0.06912601 -0.02425090 -0.00448172
v -0.06854078 -0.02808787 -0.00970430
v -0.06930327 -0.02279300 -0.00000049
v -0.06596379 -0.02737224 -0.00000049
v -0.06727350 -0.02986741 -0.01054892
v -0.06657157 -0.03062872 -0.01054892
v -0.06581527 -0.03141096 -0.01054892
v -0.06802892 -0.02895575 -0.01054892
v -0.06880997 -0.02386073 -0.00000049
f 1 2 9
f 1 9 20
f 1 20 26
f 1 26 32
f 1 32 27
f 1 27 21
f 1 21 13
f 1 13 10
f 1 10 3
f 1 3 4
f 1 4 5
f 1 5 6
f 1 6 2
f 2 6 7
f 2 7 8
f 2 8 18
f 2 18 9
f 3 10 4
f 4 11 12
f 4 12 5
f 4 10 13
f 4 13 14
f 4 14 15
f 4 15 16
f 4 16 17
f 4 17 11
f 5 12 6
f 6 12 8
f 6 8 7
f 8 12 11
f 8 11 17
f 8 17 22
f 8 22 30
f 8 30 29
f 8 29 28
f 8 28 31
f 8 31 23
f 8 23 18
f 9 18 19
f 9 19 20
f 13 21 22
f 13 22 17
f 13 17 16
f 13 16 15
f 13 15 14
f 18 23 24
f 18 24 19
f 19 24 23
f 19 23 20
f 20 23 25
f 20 25 26
f 21 27 25
f 21 25 28
f 21 28 29
f 21 29 30
f 21 30 22
f 23 31 25
f 25 31 28
f 25 27 32
f 25 32 26

