# https://github.com/mikedh/trimesh
v 0.06425078 -0.01896717 0.00078702
v 0.06410395 -0.01817767 0.00078702
v 0.06410195 -0.01817767 0.00159366
v 0.06424778 -0.01896717 0.00159366
v 0.06269358 -0.01896717 0.00078702
v 0.06375036 -0.01700189 0.00078702
v 0.06375835 -0.01695191 0.00159366
v 0.06374237 -0.01686974 0.00311169
v 0.06404801 -0.01817767 0.00311169
v 0.06418885 -0.01896717 0.00311169
v 0.05404760 -0.01265964 0.00078702
v 0.06145202 -0.01896717 0.00765535
v 0.05404760 -0.01624882 0.01599111
v 0.06359054 -0.01664611 0.00078702
v 0.06346469 -0.01610989 0.00311169
v 0.06346769 -0.01617935 0.00462971
v 0.06369042 -0.01693920 0.00462971
v 0.06413391 -0.01896717 0.00390195
v 0.05404760 -0.01102134 0.00078702
v 0.06134415 -0.01896717 0.00843074
v 0.06047915 -0.01896717 0.01539283
v 0.06048814 -0.01896717 0.01598814
v 0.06059601 -0.01896717 0.01599111
v 0.05404760 -0.01427422 0.01599111
v 0.06340076 -0.01624289 0.00078702
v 0.06299623 -0.01514080 0.00462971
v 0.06288136 -0.01514080 0.00614923
v 0.06363050 -0.01717639 0.00563429
v 0.06401006 -0.01896717 0.00541998
v 0.05443715 -0.01090275 0.00078702
v 0.05404760 -0.01100525 0.00113081
v 0.06233999 -0.01896717 0.01599111
v 0.05411852 -0.01424288 0.01599111
v 0.05404760 -0.01421407 0.01585717
v 0.06262566 -0.01507558 0.00078702
v 0.06289535 -0.01514080 0.00311169
v 0.06236296 -0.01412344 0.00462971
v 0.06231702 -0.01417934 0.00614923
v 0.06252678 -0.01506033 0.00764642
v 0.06243088 -0.01547117 0.00918380
v 0.06224710 -0.01717131 0.01373937
v 0.06287837 -0.01665966 0.00918380
v 0.06391017 -0.01896717 0.00614625
v 0.06255774 -0.01817767 0.01373937
v 0.05524421 -0.01066217 0.00078702
v 0.05404760 -0.01099000 0.00155199
v 0.05524421 -0.01063252 0.00159366
v 0.06233200 -0.01893074 0.01599111
v 0.06258671 -0.01896717 0.01452964
v 0.05449208 -0.01413275 0.01599111
v 0.05549992 -0.01268251 0.01338219
v 0.05448809 -0.01286888 0.01297738
v 0.05404760 -0.01321195 0.01341642
v 0.06210626 -0.01435300 0.00078702
v 0.06226508 -0.01419798 0.00311169
v 0.06147599 -0.01343898 0.00311169
v 0.06071687 -0.01272402 0.00311169
v 0.05908576 -0.01130851 0.00194340
v 0.05908576 -0.01130851 0.00257889
v 0.06145202 -0.01336443 0.00462971
v 0.05957220 -0.01248683 0.00766726
v 0.06217518 -0.01429963 0.00712702
v 0.06069290 -0.01275706 0.00462971
v 0.06060101 -0.01283414 0.00557030
v 0.06224610 -0.01571599 0.01039971
v 0.06213523 -0.01734412 0.01468442
v 0.06221713 -0.01844620 0.01599111
v 0.05604928 -0.01048682 0.00078702
v 0.05404760 -0.01100355 0.00275450
v 0.05676246 -0.01031486 0.00159366
v 0.05404760 -0.01101880 0.00317866
v 0.05524421 -0.01068928 0.00311169
v 0.05524421 -0.01396672 0.01599111
v 0.05676246 -0.01272741 0.01328396
v 0.05635493 -0.01128225 0.01013778
v 0.05581855 -0.01128225 0.01013778
v 0.05509439 -0.01241906 0.01237166
v 0.05404760 -0.01263846 0.01197132
v 0.05404760 -0.01295020 0.01276307
v 0.06056805 -0.01286379 0.00078702
v 0.06061898 -0.01280534 0.00159366
v 0.05902683 -0.01136357 0.00093138
v 0.05888899 -0.01126701 0.00078702
v 0.05831566 -0.01082651 0.00078702
v 0.05842453 -0.01086209 0.00149990
v 0.05848246 -0.01172783 0.00766726
v 0.05839257 -0.01093663 0.00309532
v 0.05808892 -0.01097052 0.00462971
v 0.05790613 -0.01109081 0.00614923
v 0.05759549 -0.01129665 0.00873137
v 0.05817282 -0.01182863 0.00921654
v 0.05929152 -0.01267235 0.00918380
v 0.05909275 -0.01281890 0.01005592
v 0.06194045 -0.01450124 0.00813904
v 0.06204833 -0.01592946 0.01141173
v 0.06124626 -0.01672150 0.01510560
v 0.06107046 -0.01692735 0.01599111
v 0.06185755 -0.01774988 0.01599111
v 0.05676246 -0.01033773 0.00078702
v 0.05676246 -0.01044023 0.00311169
v 0.05752857 -0.01056730 0.00078702
v 0.05404760 -0.01112977 0.00445559
v 0.05524421 -0.01082651 0.00462971
v 0.05656768 -0.01407430 0.01599111
v 0.05752357 -0.01286294 0.01298185
v 0.05676246 -0.01226066 0.01222134
v 0.05736675 -0.01139322 0.00974339
v 0.05682139 -0.01120940 0.00921654
v 0.05676246 -0.01100271 0.00766726
v 0.05676246 -0.01080618 0.00614923
v 0.05676246 -0.01060965 0.00462971
v 0.05682139 -0.01160839 0.01066760
v 0.05554387 -0.01121279 0.00918380
v 0.05404760 -0.01173291 0.00881173
v 0.05404760 -0.01180237 0.00918380
v 0.05404760 -0.01219035 0.01069587
v 0.05404760 -0.01250123 0.01160371
v 0.05901584 -0.01137459 0.00078702
v 0.05832165 -0.01240043 0.01061849
v 0.05885503 -0.01302390 0.01106943
v 0.06069090 -0.01426744 0.01022856
v 0.06074684 -0.01573632 0.01373937
v 0.06031134 -0.01609888 0.01552826
v 0.06013055 -0.01618274 0.01599111
v 0.05920363 -0.01424033 0.01333159
v 0.05404760 -0.01114587 0.00462971
v 0.05513933 -0.01116027 0.00769405
v 0.05524421 -0.01097814 0.00614923
v 0.05835161 -0.01500442 0.01599111
v 0.05792511 -0.01415732 0.01490319
v 0.05944934 -0.01565415 0.01599111
v 0.05893793 -0.01445974 0.01434361
v 0.05776429 -0.01266218 0.01222134
v 0.05437322 -0.01131614 0.00720441
v 0.05404760 -0.01149403 0.00748718
v 0.05404760 -0.01122973 0.00546612
v 0.05417545 -0.01126362 0.00614923
v 0.05404760 -0.01128988 0.00596320
f 1 2 3
f 1 3 4
f 1 4 10
f 1 10 18
f 1 18 29
f 1 29 43
f 1 43 49
f 1 49 32
f 1 32 23
f 1 23 22
f 1 22 21
f 1 21 20
f 1 20 12
f 1 12 5
f 1 5 11
f 1 11 19
f 1 19 30
f 1 30 45
f 1 45 68
f 1 68 99
f 1 99 101
f 1 101 84
f 1 84 83
f 1 83 118
f 1 118 80
f 1 80 54
f 1 54 35
f 1 35 25
f 1 25 14
f 1 14 6
f 1 6 2
f 2 6 7
f 2 7 8
f 2 8 3
f 3 8 9
f 3 9 4
f 4 9 10
f 5 12 13
f 5 13 11
f 6 14 15
f 6 15 7
f 7 15 8
f 8 15 16
f 8 16 17
f 8 17 9
f 9 17 18
f 9 18 10
f 11 13 24
f 11 24 34
f 11 34 53
f 11 53 79
f 11 79 78
f 11 78 117
f 11 117 116
f 11 116 115
f 11 115 114
f 11 114 135
f 11 135 138
f 11 138 136
f 11 136 126
f 11 126 102
f 11 102 71
f 11 71 69
f 11 69 46
f 11 46 31
f 11 31 19
f 12 20 13
f 13 20 21
f 13 21 22
f 13 22 23
f 13 23 32
f 13 32 48
f 13 48 67
f 13 67 98
f 13 98 97
f 13 97 124
f 13 124 131
f 13 131 129
f 13 129 104
f 13 104 73
f 13 73 50
f 13 50 33
f 13 33 24
f 14 25 15
f 15 26 16
f 15 25 26
f 16 26 27
f 16 27 28
f 16 28 17
f 17 28 29
f 17 29 18
f 19 31 30
f 24 33 34
f 25 35 36
f 25 36 26
f 26 36 37
f 26 37 38
f 26 38 27
f 27 38 39
f 27 39 40
f 27 40 41
f 27 41 42
f 27 42 28
f 28 43 29
f 28 42 44
f 28 44 43
f 30 31 45
f 31 46 47
f 31 47 45
f 32 49 44
f 32 44 48
f 33 50 51
f 33 51 52
f 33 52 34
f 34 52 53
f 35 54 55
f 35 55 37
f 35 37 36
f 37 55 56
f 37 56 57
f 37 57 58
f 37 58 59
f 37 59 60
f 37 60 38
f 38 61 62
f 38 62 39
f 38 60 63
f 38 63 64
f 38 64 61
f 39 62 40
f 40 65 66
f 40 66 41
f 40 62 65
f 41 66 44
f 41 44 42
f 43 44 49
f 44 66 67
f 44 67 48
f 45 47 68
f 46 69 47
f 47 70 68
f 47 69 71
f 47 71 72
f 47 72 70
f 50 73 51
f 51 73 74
f 51 74 75
f 51 75 76
f 51 76 77
f 51 77 52
f 52 77 76
f 52 76 78
f 52 78 79
f 52 79 53
f 54 80 81
f 54 81 55
f 55 81 56
f 56 81 82
f 56 82 58
f 56 58 57
f 58 82 83
f 58 83 84
f 58 84 85
f 58 85 59
f 59 86 64
f 59 64 63
f 59 63 60
f 59 85 87
f 59 87 88
f 59 88 89
f 59 89 90
f 59 90 86
f 61 64 90
f 61 90 91
f 61 91 62
f 62 91 92
f 62 92 93
f 62 93 94
f 62 94 95
f 62 95 66
f 62 66 65
f 64 86 90
f 66 96 97
f 66 97 98
f 66 98 67
f 66 95 96
f 68 70 99
f 70 72 100
f 70 100 88
f 70 88 87
f 70 87 85
f 70 85 101
f 70 101 99
f 71 102 72
f 72 102 103
f 72 103 100
f 73 104 74
f 74 105 106
f 74 106 75
f 74 104 105
f 75 107 108
f 75 108 109
f 75 109 110
f 75 110 111
f 75 111 76
f 75 106 112
f 75 112 107
f 76 113 114
f 76 114 115
f 76 115 116
f 76 116 117
f 76 117 78
f 76 111 100
f 76 100 113
f 80 118 82
f 80 82 81
f 82 118 83
f 84 101 85
f 88 111 89
f 88 100 111
f 89 111 90
f 90 108 107
f 90 107 91
f 90 111 108
f 91 107 119
f 91 119 92
f 92 119 93
f 93 119 120
f 93 120 121
f 93 121 94
f 94 121 122
f 94 122 97
f 94 97 96
f 94 96 95
f 97 123 124
f 97 122 125
f 97 125 123
f 100 103 113
f 102 126 103
f 103 126 127
f 103 127 128
f 103 128 113
f 104 129 130
f 104 130 105
f 105 130 129
f 105 129 131
f 105 131 132
f 105 132 133
f 105 133 107
f 105 107 106
f 106 107 112
f 107 133 119
f 108 111 110
f 108 110 109
f 113 127 134
f 113 134 135
f 113 135 114
f 113 128 127
f 119 133 132
f 119 132 125
f 119 125 120
f 120 125 122
f 120 122 121
f 123 131 124
f 123 125 132
f 123 132 131
f 126 136 137
f 126 137 134
f 126 134 127
f 134 137 138
f 134 138 135
f 136 138 137

