# https://github.com/mikedh/trimesh
v 0.07126838 -0.00977371 0.00078702
v 0.07109365 -0.00977371 0.00078702
v 0.07142071 -0.01006608 0.00078702
v 0.07131946 -0.00973848 0.00007344
v 0.07140772 -0.00965746 -0.00144659
v 0.07042786 -0.00897409 -0.00751938
v 0.07042786 -0.00910442 -0.00600179
v 0.07016352 -0.00959758 -0.00292752
v 0.07069803 -0.01052754 0.00078702
v 0.07016352 -0.00918544 -0.00573542
v 0.07016352 -0.00937566 -0.00422028
v 0.07162995 -0.01052754 0.00078702
v 0.07170343 -0.01058742 0.00007344
v 0.07147314 -0.00957997 -0.00296418
v 0.07016352 -0.00905510 -0.00725545
v 0.07016352 -0.00916078 -0.00600179
v 0.07151614 -0.00950951 -0.00448176
v 0.07042786 -0.00880852 -0.01055699
v 0.07016352 -0.01223951 0.00078702
v 0.07448664 -0.02011598 0.00078702
v 0.07177332 -0.01058742 -0.00144659
v 0.07016352 -0.00897409 -0.00877303
v 0.07152824 -0.00945315 -0.00600179
v 0.07145970 -0.00917135 -0.01207213
v 0.07181991 -0.01058742 -0.00296418
v 0.07042786 -0.00878739 -0.01207213
v 0.07016352 -0.00889659 -0.01029062
v 0.07016352 -0.01725213 0.00078702
v 0.07184411 -0.01058742 -0.00448176
v 0.07474068 -0.02121855 0.00078702
v 0.07136292 -0.00934395 -0.01307652
v 0.07468109 -0.02121855 0.00007344
v 0.07425993 -0.02495952 -0.01140987
v 0.07016352 -0.00891772 -0.01205258
v 0.07016352 -0.00887898 -0.01180820
v 0.07042786 -0.00932282 -0.01310829
v 0.07016352 -0.00941088 -0.01306675
v 0.07016352 -0.01762905 0.00078213
v 0.07046774 -0.04477400 0.00078702
v 0.07464480 -0.02273678 0.00078702
v 0.07464480 -0.02273678 -0.00144659
v 0.07460941 -0.02273678 -0.00296418
v 0.07334325 -0.03336086 -0.01966494
v 0.07297854 -0.03336086 -0.02073776
v 0.07285488 -0.03244499 -0.02054715
v 0.07273571 -0.03556599 -0.02197187
v 0.07154885 -0.03998330 -0.02355543
v 0.07425993 -0.02547382 -0.01140987
v 0.07112232 -0.03998330 -0.02355543
v 0.07016352 -0.01032323 -0.01335511
v 0.07016352 -0.01842163 -0.00066214
v 0.07046774 -0.04477400 -0.02270256
v 0.07203004 -0.04477400 0.00078702
v 0.07016352 -0.02023575 -0.00412986
v 0.07016352 -0.02562529 -0.01519772
v 0.07439345 -0.02494543 0.00078702
v 0.07447096 -0.02425501 -0.00600179
v 0.07430474 -0.02572392 -0.00903696
v 0.07429129 -0.02571335 -0.01055699
v 0.07343465 -0.03336086 -0.01814491
v 0.07326170 -0.03487909 -0.01966494
v 0.07280963 -0.03791555 -0.02217470
v 0.07280157 -0.03639732 -0.02207451
v 0.07169895 -0.04095201 -0.02368251
v 0.07104212 -0.04095201 -0.02368251
v 0.07016352 -0.01058742 -0.01341865
v 0.07086470 -0.04399199 -0.02402219
v 0.07085350 -0.04477400 -0.02417860
v 0.07016352 -0.02425501 -0.01627298
v 0.07016352 -0.01427908 -0.01425198
v 0.07203004 -0.04477400 -0.02270256
v 0.07276707 -0.03921890 0.00078702
v 0.07318061 -0.03559417 0.00078702
v 0.07308876 -0.03639732 -0.01966494
v 0.07276707 -0.03921890 -0.02118253
v 0.07291492 -0.03791555 -0.02118253
v 0.07274646 -0.03903925 -0.02210383
v 0.07158021 -0.04477400 -0.02417860
v 0.07284592 -0.03852848 0.00078702
f 1 2 9
f 1 9 19
f 1 19 28
f 1 28 39
f 1 39 53
f 1 53 72
f 1 72 79
f 1 79 73
f 1 73 56
f 1 56 40
f 1 40 30
f 1 30 20
f 1 20 12
f 1 12 3
f 1 3 4
f 1 4 5
f 1 5 6
f 1 6 7
f 1 7 2
f 2 8 9
f 2 7 10
f 2 10 11
f 2 11 8
f 3 5 4
f 3 12 5
f 5 12 13
f 5 13 14
f 5 14 6
f 6 15 16
f 6 16 7
f 6 14 17
f 6 17 18
f 6 18 15
f 7 16 10
f 8 11 10
f 8 10 16
f 8 16 15
f 8 15 22
f 8 22 27
f 8 27 35
f 8 35 34
f 8 34 37
f 8 37 50
f 8 50 66
f 8 66 70
f 8 70 69
f 8 69 55
f 8 55 54
f 8 54 51
f 8 51 38
f 8 38 28
f 8 28 19
f 8 19 9
f 12 20 13
f 13 21 14
f 13 20 21
f 14 21 17
f 15 18 22
f 17 23 24
f 17 24 18
f 17 21 25
f 17 25 23
f 18 26 27
f 18 27 22
f 18 24 26
f 20 24 29
f 20 29 25
f 20 25 21
f 20 30 24
f 23 25 29
f 23 29 24
f 24 31 26
f 24 30 32
f 24 32 33
f 24 33 31
f 26 34 35
f 26 35 27
f 26 31 36
f 26 36 37
f 26 37 34
f 28 38 39
f 30 40 41
f 30 41 42
f 30 42 33
f 30 33 32
f 31 33 43
f 31 43 44
f 31 44 45
f 31 45 46
f 31 46 47
f 31 47 36
f 33 42 48
f 33 48 43
f 36 47 49
f 36 49 37
f 37 49 50
f 38 51 39
f 39 52 68
f 39 68 78
f 39 78 71
f 39 71 53
f 39 51 54
f 39 54 55
f 39 55 52
f 40 56 41
f 41 57 42
f 41 56 58
f 41 58 57
f 42 57 59
f 42 59 48
f 43 60 61
f 43 61 62
f 43 62 63
f 43 63 44
f 43 48 60
f 44 63 46
f 44 46 45
f 46 63 64
f 46 64 47
f 47 64 65
f 47 65 49
f 48 59 60
f 49 65 50
f 50 65 67
f 50 67 68
f 50 68 66
f 52 55 69
f 52 69 70
f 52 70 66
f 52 66 68
f 53 71 75
f 53 75 72
f 56 73 58
f 57 58 59
f 58 73 61
f 58 61 60
f 58 60 59
f 61 73 74
f 61 74 75
f 61 75 76
f 61 76 62
f 62 76 77
f 62 77 78
f 62 78 63
f 63 78 64
f 64 78 68
f 64 68 65
f 65 68 67
f 71 78 77
f 71 77 75
f 72 75 79
f 73 79 75
f 73 75 74
f 75 77 76

