# https://github.com/mikedh/trimesh
v 0.05511475 -0.01562813 0.04066775
v 0.05511475 -0.01482741 0.04066775
v 0.05513363 -0.01563165 0.04066775
v 0.05511475 -0.01562845 0.04196723
v 0.05511475 -0.01475278 0.04652207
v 0.06991252 -0.01475278 0.04066775
v 0.05526266 -0.01565375 0.04133956
v 0.06774415 -0.01778558 0.04066775
v 0.05511475 -0.01562845 0.04444774
v 0.05511475 -0.01475278 0.04818432
v 0.07118711 -0.01475278 0.04066775
v 0.05526266 -0.01565375 0.04677887
v 0.05853252 -0.01621233 0.04289365
v 0.05914936 -0.01631771 0.04367070
v 0.06847271 -0.01790986 0.04066775
v 0.06774415 -0.01778558 0.04133956
v 0.06458759 -0.01724654 0.04444774
v 0.05511475 -0.01562813 0.04677887
v 0.05511475 -0.01500773 0.04816372
v 0.05516353 -0.01475278 0.04818138
v 0.07117609 -0.01475278 0.04067952
v 0.07114777 -0.01500773 0.04066775
v 0.05511475 -0.01558745 0.04755592
v 0.05914936 -0.01631771 0.04444774
v 0.05853252 -0.01621233 0.04600183
v 0.06381025 -0.01711362 0.04522479
v 0.05992670 -0.01644998 0.04600183
v 0.05858917 -0.01619920 0.04677887
v 0.06847271 -0.01790954 0.04133956
v 0.06925477 -0.01802452 0.04066775
v 0.05511475 -0.01547151 0.04802317
v 0.05526266 -0.01547599 0.04802465
v 0.05526266 -0.01500773 0.04815342
v 0.05526266 -0.01475278 0.04817475
v 0.07103604 -0.01475278 0.04080682
v 0.07101401 -0.01500773 0.04078916
v 0.07088184 -0.01656177 0.04066922
v 0.07101559 -0.01578475 0.04066775
v 0.05868201 -0.01618190 0.04717770
v 0.06774573 -0.01778430 0.04211661
v 0.06458759 -0.01722092 0.04522479
v 0.06323275 -0.01698262 0.04572736
v 0.06785902 -0.01776445 0.04258018
v 0.07007774 -0.01796046 0.04066775
v 0.06928624 -0.01790313 0.04138739
v 0.06818632 -0.01776445 0.04258018
v 0.05587792 -0.01544748 0.04798785
v 0.05914936 -0.01618126 0.04717623
v 0.05954904 -0.01617550 0.04716887
v 0.05639563 -0.01522617 0.04793340
v 0.05609822 -0.01498339 0.04800772
v 0.05608091 -0.01475278 0.04802096
v 0.07064737 -0.01475278 0.04115928
v 0.06913675 -0.01475278 0.04252353
v 0.06790151 -0.01475278 0.04363906
v 0.07049317 -0.01656177 0.04102021
v 0.07088184 -0.01656177 0.04066775
v 0.06964029 -0.01695540 0.04172882
v 0.07044439 -0.01711875 0.04097680
v 0.07074179 -0.01735960 0.04066775
v 0.06381025 -0.01703195 0.04580021
v 0.06458759 -0.01707294 0.04578991
v 0.07013439 -0.01792427 0.04066775
v 0.07039718 -0.01763697 0.04092970
v 0.06987790 -0.01785445 0.04116002
v 0.06905178 -0.01780993 0.04188114
v 0.06509270 -0.01703707 0.04571265
v 0.06458759 -0.01656177 0.04604083
v 0.06303448 -0.01631707 0.04644039
v 0.06344833 -0.01620528 0.04639624
v 0.05638776 -0.01475278 0.04795768
v 0.06225714 -0.01578475 0.04666997
v 0.06811866 -0.01559321 0.04331308
v 0.06737122 -0.01475278 0.04411735
v 0.06600851 -0.01656177 0.04506731
v 0.07074021 -0.01736569 0.04066775
v 0.06557579 -0.01656177 0.04545584
v 0.06518712 -0.01656177 0.04578770
v 0.06525635 -0.01578475 0.04582964
v 0.06458759 -0.01578475 0.04610558
v 0.06349554 -0.01578475 0.04640580
v 0.06303448 -0.01578475 0.04650441
v 0.05914936 -0.01500773 0.04736092
v 0.05643969 -0.01475278 0.04794664
v 0.06655769 -0.01475278 0.04485098
v 0.06573157 -0.01475278 0.04558829
v 0.06532087 -0.01500773 0.04584877
v 0.06557736 -0.01475278 0.04570087
v 0.06458759 -0.01475278 0.04611147
v 0.06358366 -0.01475278 0.04642493
v 0.06356163 -0.01500773 0.04642052
v 0.06536335 -0.01475278 0.04584068
v 0.06303448 -0.01500773 0.04653310
v 0.06251206 -0.01475278 0.04665378
v 0.05981812 -0.01475278 0.04722773
f 1 2 6
f 1 6 11
f 1 11 22
f 1 22 38
f 1 38 57
f 1 57 60
f 1 60 76
f 1 76 63
f 1 63 44
f 1 44 30
f 1 30 15
f 1 15 8
f 1 8 3
f 1 3 4
f 1 4 9
f 1 9 18
f 1 18 23
f 1 23 31
f 1 31 19
f 1 19 10
f 1 10 5
f 1 5 2
f 2 5 6
f 3 7 4
f 3 8 7
f 4 7 12
f 4 12 9
f 5 10 20
f 5 20 34
f 5 34 52
f 5 52 71
f 5 71 84
f 5 84 95
f 5 95 94
f 5 94 90
f 5 90 89
f 5 89 92
f 5 92 88
f 5 88 86
f 5 86 85
f 5 85 74
f 5 74 55
f 5 55 54
f 5 54 53
f 5 53 35
f 5 35 21
f 5 21 11
f 5 11 6
f 7 8 13
f 7 13 14
f 7 14 24
f 7 24 12
f 8 15 16
f 8 16 17
f 8 17 14
f 8 14 13
f 9 12 18
f 10 19 20
f 11 21 22
f 12 23 18
f 12 24 25
f 12 25 26
f 12 26 27
f 12 27 28
f 12 28 23
f 14 17 24
f 15 29 16
f 15 30 29
f 16 29 17
f 17 29 26
f 17 26 25
f 17 25 24
f 19 31 32
f 19 32 33
f 19 33 34
f 19 34 20
f 21 35 22
f 22 35 36
f 22 36 37
f 22 37 38
f 23 28 39
f 23 39 31
f 26 29 40
f 26 40 41
f 26 41 42
f 26 42 39
f 26 39 28
f 26 28 27
f 29 43 40
f 29 30 43
f 30 44 45
f 30 45 46
f 30 46 43
f 31 39 32
f 32 47 33
f 32 39 48
f 32 48 49
f 32 49 47
f 33 47 50
f 33 50 51
f 33 51 34
f 34 51 52
f 35 53 36
f 36 53 54
f 36 54 55
f 36 55 56
f 36 56 37
f 37 57 38
f 37 56 58
f 37 58 59
f 37 59 60
f 37 60 57
f 39 42 61
f 39 61 62
f 39 62 48
f 40 43 41
f 41 62 61
f 41 61 42
f 41 43 46
f 41 46 62
f 44 63 64
f 44 64 65
f 44 65 66
f 44 66 45
f 45 66 46
f 46 66 67
f 46 67 62
f 47 49 50
f 48 62 49
f 49 62 68
f 49 68 69
f 49 69 70
f 49 70 50
f 50 71 51
f 50 70 72
f 50 72 71
f 51 71 52
f 55 73 56
f 55 74 75
f 55 75 73
f 56 73 75
f 56 75 58
f 58 75 59
f 59 75 60
f 60 64 76
f 60 75 64
f 62 67 68
f 63 76 64
f 64 66 65
f 64 75 77
f 64 77 67
f 64 67 66
f 67 77 78
f 67 78 68
f 68 78 79
f 68 79 80
f 68 80 70
f 68 70 69
f 70 81 82
f 70 82 72
f 70 80 81
f 71 72 83
f 71 83 84
f 72 82 83
f 74 85 75
f 75 85 77
f 77 85 86
f 77 86 78
f 78 86 79
f 79 87 80
f 79 86 88
f 79 88 87
f 80 89 90
f 80 90 91
f 80 91 81
f 80 87 92
f 80 92 89
f 81 91 82
f 82 91 93
f 82 93 83
f 83 93 94
f 83 94 95
f 83 95 84
f 87 88 92
f 90 94 93
f 90 93 91

