# https://github.com/mikedh/trimesh
v 0.04377450 -0.01357726 -0.02398178
v 0.04377450 -0.01362265 -0.02238780
v 0.04377450 -0.01282355 -0.02398178
v 0.04471392 -0.01385142 -0.02398178
v 0.04377450 -0.01336798 -0.02174935
v 0.04471323 -0.01385142 -0.02238780
v 0.04473254 -0.01384822 -0.02197216
v 0.04377450 -0.01255283 -0.02264394
v 0.04501326 -0.01255283 -0.02243303
v 0.04517948 -0.01255283 -0.02240113
v 0.04826741 -0.01255283 -0.02142513
v 0.04907232 -0.01372856 -0.02398178
v 0.04515948 -0.01392776 -0.02238780
v 0.04667413 -0.01418633 -0.02398178
v 0.04377450 -0.01319216 -0.02168222
v 0.04551607 -0.01385074 -0.02121374
v 0.05010071 -0.01466749 -0.01960595
v 0.05082010 -0.01423034 -0.01911795
v 0.04982206 -0.01472434 -0.02083381
v 0.04932545 -0.01463838 -0.02083381
v 0.05082010 -0.01488961 -0.02005682
v 0.05059869 -0.01485042 -0.02005682
v 0.04936546 -0.01463196 -0.02040151
v 0.04983378 -0.01469018 -0.02010824
v 0.04377450 -0.01255283 -0.02151844
v 0.04869642 -0.01255283 -0.02124373
v 0.04958341 -0.01381589 -0.02398178
v 0.05059869 -0.01485706 -0.02083381
v 0.05055938 -0.01484996 -0.02398178
v 0.04377450 -0.01267616 -0.02150701
v 0.05082010 -0.01484721 -0.01980591
v 0.05082010 -0.01476422 -0.01939123
v 0.05082010 -0.01450290 -0.01923697
v 0.05082010 -0.01345325 -0.01916032
v 0.05082010 -0.01489420 -0.02061290
v 0.05082010 -0.01255283 -0.01923031
v 0.05082010 -0.01255283 -0.02016013
v 0.05082010 -0.01414026 -0.02398178
v 0.05061456 -0.01485936 -0.02398178
v 0.05082010 -0.01489443 -0.02083381
v 0.05082010 -0.01489397 -0.02398178
f 1 2 5
f 1 5 15
f 1 15 30
f 1 30 25
f 1 25 8
f 1 8 3
f 1 3 12
f 1 12 27
f 1 27 38
f 1 38 41
f 1 41 39
f 1 39 29
f 1 29 14
f 1 14 4
f 1 4 2
f 2 4 6
f 2 6 7
f 2 7 5
f 3 8 9
f 3 9 10
f 3 10 11
f 3 11 12
f 4 13 6
f 4 14 13
f 5 7 16
f 5 16 17
f 5 17 18
f 5 18 15
f 6 13 19
f 6 19 20
f 6 20 21
f 6 21 7
f 7 21 22
f 7 22 23
f 7 23 24
f 7 24 17
f 7 17 16
f 8 25 36
f 8 36 37
f 8 37 26
f 8 26 11
f 8 11 10
f 8 10 9
f 11 26 27
f 11 27 12
f 13 14 28
f 13 28 19
f 14 29 28
f 15 18 30
f 17 24 22
f 17 22 31
f 17 31 32
f 17 32 33
f 17 33 18
f 18 33 32
f 18 32 31
f 18 31 21
f 18 21 35
f 18 35 40
f 18 40 41
f 18 41 38
f 18 38 37
f 18 37 36
f 18 36 34
f 18 34 30
f 19 28 35
f 19 35 21
f 19 21 20
f 21 31 22
f 22 24 23
f 25 30 36
f 26 37 27
f 27 37 38
f 28 29 39
f 28 39 40
f 28 40 35
f 30 34 36
f 39 41 40

