# https://github.com/mikedh/trimesh
v 0.07418650 -0.01656186 0.03594343
v 0.07369522 -0.01733907 0.03658999
v 0.07405494 -0.01733989 0.03594343
v 0.07321038 -0.01656186 0.03594343
v 0.07209993 -0.01656186 0.03954020
v 0.07289620 -0.01656207 0.03824477
v 0.07361886 -0.01811607 0.03645356
v 0.07403056 -0.01746481 0.03594343
v 0.07286905 -0.01733907 0.03805700
v 0.06948759 -0.01728861 0.03594343
v 0.06953313 -0.01656186 0.04066774
v 0.07170111 -0.01656186 0.03992915
v 0.07209993 -0.01656207 0.03954020
v 0.07245827 -0.01656207 0.03897828
v 0.07204013 -0.01733907 0.03947637
v 0.07199643 -0.01778972 0.03942689
v 0.07355860 -0.01853575 0.03634672
v 0.07388520 -0.01811607 0.03594343
v 0.06948759 -0.01665806 0.04066774
v 0.06948759 -0.01807238 0.03594343
v 0.07088323 -0.01656186 0.04066774
v 0.07124617 -0.01733907 0.04022005
v 0.07163487 -0.01733907 0.03986486
v 0.07120661 -0.01774644 0.04018444
v 0.07151251 -0.01789720 0.03972519
v 0.07211557 -0.01796448 0.03900741
v 0.07283272 -0.01854929 0.03724210
v 0.07365704 -0.01858908 0.03594343
v 0.07387370 -0.01815730 0.03594343
v 0.06948759 -0.01800079 0.04066774
v 0.07196377 -0.01850580 0.03594343
v 0.06948759 -0.01807423 0.03846630
v 0.07074109 -0.01736594 0.04066774
v 0.07080549 -0.01785310 0.04036019
v 0.07158289 -0.01825494 0.03900741
v 0.07313494 -0.01865739 0.03594343
v 0.07198079 -0.01850539 0.03789929
v 0.06948759 -0.01801925 0.04059190
v 0.07007823 -0.01796038 0.04066774
v 0.07198631 -0.01850970 0.03594343
v 0.07196377 -0.01850580 0.03745345
v 0.06948759 -0.01807423 0.03978439
v 0.07013527 -0.01792449 0.04066774
v 0.07235937 -0.01857349 0.03594343
v 0.07196607 -0.01850539 0.03789929
v 0.07235937 -0.01857308 0.03667648
v 0.06948759 -0.01802212 0.04057987
v 0.07002855 -0.01814684 0.03978439
f 1 2 3
f 1 3 8
f 1 8 18
f 1 18 29
f 1 29 28
f 1 28 36
f 1 36 44
f 1 44 40
f 1 40 31
f 1 31 20
f 1 20 10
f 1 10 4
f 1 4 11
f 1 11 21
f 1 21 12
f 1 12 5
f 1 5 6
f 1 6 2
f 2 7 8
f 2 8 3
f 2 6 9
f 2 9 7
f 4 10 11
f 5 12 13
f 5 13 14
f 5 14 6
f 6 14 15
f 6 15 16
f 6 16 9
f 7 17 18
f 7 18 8
f 7 9 16
f 7 16 17
f 10 19 11
f 10 20 32
f 10 32 42
f 10 42 47
f 10 47 38
f 10 38 30
f 10 30 19
f 11 19 30
f 11 30 39
f 11 39 43
f 11 43 33
f 11 33 21
f 12 21 22
f 12 22 23
f 12 23 15
f 12 15 13
f 13 15 14
f 15 23 16
f 16 23 24
f 16 24 25
f 16 25 26
f 16 26 27
f 16 27 17
f 17 27 28
f 17 28 29
f 17 29 18
f 20 31 32
f 21 33 22
f 22 24 23
f 22 33 24
f 24 33 34
f 24 34 25
f 25 34 35
f 25 35 27
f 25 27 26
f 27 36 28
f 27 35 37
f 27 37 36
f 30 38 37
f 30 37 39
f 31 40 41
f 31 41 42
f 31 42 32
f 33 43 34
f 34 43 39
f 34 39 35
f 35 39 37
f 36 37 45
f 36 45 46
f 36 46 44
f 37 38 47
f 37 47 45
f 40 44 41
f 41 44 46
f 41 46 45
f 41 45 42
f 42 48 47
f 42 45 48
f 45 47 48

