# https://github.com/mikedh/trimesh
v 0.07004034 -0.00689878 -0.00500489
v 0.06885399 -0.00689878 -0.00500489
v 0.06836914 -0.01634477 -0.00500489
v 0.06830724 -0.01634477 -0.00526204
v 0.06983746 -0.00689878 -0.00561738
v 0.06562850 -0.00592695 -0.01101525
v 0.06877261 -0.00730974 -0.00500489
v 0.06420488 -0.00592695 -0.01101525
v 0.05833046 -0.00629814 -0.01598063
v 0.06722978 -0.01634477 -0.00500489
v 0.06765733 -0.01634477 -0.00689496
v 0.06916691 -0.00689878 -0.00685289
v 0.06534882 -0.00592695 -0.01139397
v 0.06727793 -0.01606026 -0.00500489
v 0.06420488 -0.00592695 -0.01237115
v 0.05833046 -0.00629814 -0.01691223
v 0.05833046 -0.00638278 -0.01597011
v 0.06420374 -0.01634477 -0.00910180
v 0.05833046 -0.01500686 -0.01516710
v 0.05833046 -0.01514554 -0.01520099
v 0.06737994 -0.01634477 -0.00728069
v 0.06449259 -0.01634477 -0.01101525
v 0.06862704 -0.00689878 -0.00750044
v 0.06530182 -0.00592695 -0.01143955
v 0.06449946 -0.00592695 -0.01219582
v 0.06042576 -0.00629814 -0.01586258
v 0.05892420 -0.00629814 -0.01663988
v 0.05833046 -0.01514554 -0.01694613
v 0.06420374 -0.01634477 -0.01101525
v 0.05835567 -0.01514554 -0.01693210
v 0.05867891 -0.01514554 -0.01672170
v 0.06081548 -0.00629814 -0.01551776
f 1 2 7
f 1 7 14
f 1 14 10
f 1 10 3
f 1 3 4
f 1 4 5
f 1 5 6
f 1 6 8
f 1 8 2
f 2 8 9
f 2 9 7
f 3 10 18
f 3 18 29
f 3 29 22
f 3 22 21
f 3 21 11
f 3 11 4
f 4 11 5
f 5 11 12
f 5 12 6
f 6 12 13
f 6 13 24
f 6 24 25
f 6 25 15
f 6 15 8
f 7 9 14
f 8 15 16
f 8 16 9
f 9 16 28
f 9 28 20
f 9 20 19
f 9 19 17
f 9 17 10
f 9 10 14
f 10 17 19
f 10 19 20
f 10 20 18
f 11 21 12
f 12 21 22
f 12 22 23
f 12 23 13
f 13 22 24
f 13 23 22
f 15 25 26
f 15 26 27
f 15 27 16
f 16 27 28
f 18 20 28
f 18 28 29
f 22 29 28
f 22 28 30
f 22 30 31
f 22 31 24
f 24 31 25
f 25 31 32
f 25 32 26
f 26 32 31
f 26 31 30
f 26 30 28
f 26 28 27

