# https://github.com/mikedh/trimesh
v 0.06420441 -0.00568193 -0.02163262
v 0.06420441 -0.00609670 -0.02158735
v 0.06420441 -0.00498560 -0.02147456
v 0.06443652 -0.00507556 -0.02137438
v 0.06587061 -0.00520119 -0.02052177
v 0.06452124 -0.00568193 -0.02142930
v 0.06433414 -0.00787383 -0.02130834
v 0.06420441 -0.00696980 -0.02149089
v 0.06420441 -0.00468762 -0.02085495
v 0.06674342 -0.00519141 -0.01981237
v 0.06589797 -0.00568193 -0.02053884
v 0.06807778 -0.00530188 -0.01885735
v 0.07053912 -0.00597738 -0.01741851
v 0.07057089 -0.00645876 -0.01743855
v 0.06919505 -0.00645876 -0.01832752
v 0.06859317 -0.00645876 -0.01871636
v 0.06820487 -0.00645876 -0.01896717
v 0.07045529 -0.00785237 -0.01736211
v 0.06670459 -0.00787383 -0.01977897
v 0.06422471 -0.00787383 -0.02137661
v 0.06420441 -0.00784542 -0.02139145
v 0.06420441 -0.00464911 -0.02005576
v 0.06614331 -0.00492373 -0.01927883
v 0.06816339 -0.00528010 -0.01833940
v 0.07080476 -0.00572107 -0.01617112
v 0.07157344 -0.00594677 -0.01611398
v 0.07130868 -0.00597928 -0.01669798
v 0.07095920 -0.00645876 -0.01714172
v 0.07050824 -0.00723590 -0.01739551
v 0.07089654 -0.00723590 -0.01709201
v 0.07048441 -0.00787383 -0.01733392
v 0.07042087 -0.00787383 -0.01738067
v 0.06896648 -0.00787383 -0.01831936
v 0.06420441 -0.00787383 -0.02138774
v 0.06420441 -0.00469520 -0.01405257
v 0.06614331 -0.00492373 -0.01405257
v 0.06691992 -0.00505441 -0.01850191
v 0.06820222 -0.00527348 -0.01772572
v 0.07080476 -0.00571823 -0.01539420
v 0.07158226 -0.00585081 -0.01461653
v 0.07256538 -0.00602473 -0.01405257
v 0.07277101 -0.00606198 -0.01405257
v 0.07276042 -0.00606356 -0.01425589
v 0.07199263 -0.00605093 -0.01581716
v 0.07135545 -0.00645876 -0.01675289
v 0.07131221 -0.00723590 -0.01670317
v 0.07118336 -0.00787383 -0.01670985
v 0.07078535 -0.00787383 -0.01707865
v 0.06420441 -0.00787383 -0.02037113
v 0.06420441 -0.00547297 -0.01405257
v 0.06691992 -0.00505473 -0.01405257
v 0.06691992 -0.00505441 -0.01461653
v 0.07158226 -0.00585081 -0.01405257
v 0.07294840 -0.00624348 -0.01405257
v 0.07174464 -0.00645876 -0.01622529
v 0.07304194 -0.00645591 -0.01405257
v 0.07286103 -0.00645876 -0.01439317
v 0.07318844 -0.00702567 -0.01405257
v 0.07321933 -0.00723590 -0.01405257
v 0.07200763 -0.00645876 -0.01583646
v 0.07199793 -0.00700421 -0.01582013
v 0.07125749 -0.00787383 -0.01664010
v 0.07199881 -0.00787383 -0.01405257
v 0.06713349 -0.00509103 -0.01405257
v 0.06769742 -0.00518730 -0.01405257
v 0.07310372 -0.00787383 -0.01405257
v 0.07286721 -0.00787383 -0.01439465
v 0.07292104 -0.00723590 -0.01447108
v 0.07219208 -0.00787383 -0.01533780
f 1 2 8
f 1 8 21
f 1 21 34
f 1 34 49
f 1 49 50
f 1 50 35
f 1 35 22
f 1 22 9
f 1 9 3
f 1 3 4
f 1 4 5
f 1 5 6
f 1 6 2
f 2 6 7
f 2 7 8
f 3 9 10
f 3 10 5
f 3 5 4
f 5 11 6
f 5 10 12
f 5 12 13
f 5 13 14
f 5 14 11
f 6 11 14
f 6 14 15
f 6 15 16
f 6 16 17
f 6 17 18
f 6 18 7
f 7 19 33
f 7 33 32
f 7 32 31
f 7 31 48
f 7 48 47
f 7 47 62
f 7 62 69
f 7 69 67
f 7 67 66
f 7 66 63
f 7 63 49
f 7 49 34
f 7 34 20
f 7 20 8
f 7 18 19
f 8 20 21
f 9 22 23
f 9 23 12
f 9 12 10
f 12 24 25
f 12 25 26
f 12 26 27
f 12 27 13
f 12 23 24
f 13 27 28
f 13 28 14
f 14 28 29
f 14 29 15
f 15 29 16
f 16 29 17
f 17 29 18
f 18 29 28
f 18 28 30
f 18 30 31
f 18 31 32
f 18 32 33
f 18 33 19
f 20 34 21
f 22 35 36
f 22 36 23
f 23 36 52
f 23 52 37
f 23 37 38
f 23 38 25
f 23 25 24
f 25 39 40
f 25 40 41
f 25 41 42
f 25 42 43
f 25 43 26
f 25 38 39
f 26 43 44
f 26 44 27
f 27 44 45
f 27 45 28
f 28 45 46
f 28 46 30
f 30 46 47
f 30 47 48
f 30 48 31
f 35 50 63
f 35 63 66
f 35 66 59
f 35 59 58
f 35 58 56
f 35 56 54
f 35 54 42
f 35 42 41
f 35 41 53
f 35 53 65
f 35 65 64
f 35 64 51
f 35 51 36
f 36 51 52
f 37 52 53
f 37 53 40
f 37 40 38
f 38 40 39
f 40 53 41
f 42 54 43
f 43 54 44
f 44 55 45
f 44 54 56
f 44 56 57
f 44 57 58
f 44 58 59
f 44 59 60
f 44 60 55
f 45 55 61
f 45 61 46
f 46 62 47
f 46 61 62
f 49 63 50
f 51 64 52
f 52 64 65
f 52 65 53
f 55 60 59
f 55 59 61
f 56 58 57
f 59 66 67
f 59 67 68
f 59 68 61
f 61 68 67
f 61 67 69
f 61 69 62

