# https://github.com/mikedh/trimesh
v -0.00796318 -0.00624041 -0.06597967
v -0.00786335 -0.00642548 -0.06597967
v -0.00794344 -0.00624041 -0.06590972
v -0.00678817 -0.00624041 -0.06597967
v -0.00788419 -0.00624041 -0.06570115
v -0.00764502 -0.00682728 -0.06597967
v -0.00504704 -0.00624041 -0.06277013
v 0.00324280 -0.00651472 -0.05930103
v 0.00324280 -0.00662947 -0.05981819
v 0.00324280 -0.00669051 -0.06002872
v 0.00324280 -0.00835376 -0.06568938
v 0.00324280 -0.00843334 -0.06584695
v 0.00324280 -0.00850096 -0.06597967
v -0.00778326 -0.00643320 -0.06571554
v -0.00771523 -0.00624041 -0.06514280
v -0.00762527 -0.00686205 -0.06597967
v -0.00481774 -0.00624041 -0.06218759
v 0.00324280 -0.00754860 -0.05930103
v -0.00392688 -0.00624041 -0.05980185
v -0.00374256 -0.00624041 -0.05930495
v -0.00374805 -0.00624041 -0.05930103
v 0.00324280 -0.00944906 -0.06597967
v -0.00751995 -0.00672915 -0.06544813
v -0.00761211 -0.00624041 -0.06485643
v -0.00664664 -0.00624041 -0.06236085
v -0.00759126 -0.00689142 -0.06597967
v -0.00446008 -0.00702664 -0.05930103
v -0.00471900 -0.00679483 -0.05930103
v -0.00506020 -0.00648420 -0.05930103
v -0.00532571 -0.00624041 -0.05930103
v 0.00279188 -0.00781595 -0.05930103
v 0.00324280 -0.00858132 -0.06252234
v 0.00324280 -0.00864970 -0.06278452
v 0.00289940 -0.00884597 -0.06317680
v 0.00121971 -0.00993702 -0.06597967
v -0.00699114 -0.00624041 -0.06316569
v -0.00719739 -0.00721634 -0.06597967
v -0.00668723 -0.00761312 -0.06597967
v -0.00426150 -0.00768923 -0.06099962
v -0.00410790 -0.00761003 -0.06043996
v -0.00382046 -0.00737320 -0.05930103
v 0.00205901 -0.00804429 -0.05930103
v 0.00262293 -0.00855118 -0.06170966
v 0.00118241 -0.00829001 -0.05930103
v 0.00089167 -0.01001275 -0.06597967
v -0.00626594 -0.00788241 -0.06597967
v -0.00365918 -0.00947340 -0.06597967
v -0.00357141 -0.00944559 -0.06569592
v -0.00343976 -0.00936793 -0.06521406
v -0.00354728 -0.00771937 -0.06005160
v -0.00337064 -0.00754319 -0.05930103
v 0.00009955 -0.00836380 -0.05930103
v 0.00017525 -0.01016652 -0.06597967
v -0.00297787 -0.00967392 -0.06597967
v -0.00217807 -0.00794306 -0.05930103
v -0.00256206 -0.00783411 -0.05930103
v -0.00281659 -0.00775221 -0.05930103
v -0.00101074 -0.01013136 -0.06597967
v -0.00107437 -0.00940850 -0.06337294
v -0.00096137 -0.00852916 -0.06016863
v -0.00128721 -0.00818647 -0.05930103
v -0.00081764 -0.01016459 -0.06597967
v -0.00045998 -0.01018738 -0.06597967
f 1 2 3
f 1 3 5
f 1 5 15
f 1 15 24
f 1 24 36
f 1 36 25
f 1 25 30
f 1 30 21
f 1 21 20
f 1 20 19
f 1 19 17
f 1 17 7
f 1 7 4
f 1 4 13
f 1 13 22
f 1 22 35
f 1 35 45
f 1 45 53
f 1 53 63
f 1 63 62
f 1 62 58
f 1 58 54
f 1 54 47
f 1 47 46
f 1 46 38
f 1 38 37
f 1 37 26
f 1 26 16
f 1 16 6
f 1 6 2
f 2 5 3
f 2 6 5
f 4 7 8
f 4 8 9
f 4 9 10
f 4 10 11
f 4 11 12
f 4 12 13
f 5 6 14
f 5 14 15
f 6 16 15
f 6 15 14
f 7 17 8
f 8 18 32
f 8 32 33
f 8 33 22
f 8 22 13
f 8 13 12
f 8 12 11
f 8 11 10
f 8 10 9
f 8 17 19
f 8 19 20
f 8 20 21
f 8 21 30
f 8 30 29
f 8 29 28
f 8 28 27
f 8 27 41
f 8 41 51
f 8 51 57
f 8 57 56
f 8 56 55
f 8 55 61
f 8 61 52
f 8 52 44
f 8 44 42
f 8 42 31
f 8 31 18
f 15 16 23
f 15 23 24
f 16 25 23
f 16 26 27
f 16 27 28
f 16 28 29
f 16 29 30
f 16 30 25
f 18 31 32
f 22 33 34
f 22 34 35
f 23 25 36
f 23 36 24
f 26 37 27
f 27 37 38
f 27 38 39
f 27 39 40
f 27 40 41
f 31 42 43
f 31 43 32
f 32 43 33
f 33 43 34
f 34 43 35
f 35 44 45
f 35 43 44
f 38 46 39
f 39 47 48
f 39 48 40
f 39 46 47
f 40 48 49
f 40 49 50
f 40 50 41
f 41 50 51
f 42 44 43
f 44 52 53
f 44 53 45
f 47 54 48
f 48 54 49
f 49 55 56
f 49 56 57
f 49 57 50
f 49 54 58
f 49 58 59
f 49 59 60
f 49 60 61
f 49 61 55
f 50 57 51
f 52 61 60
f 52 60 62
f 52 62 63
f 52 63 53
f 58 62 59
f 59 62 60

