# https://github.com/mikedh/trimesh
v 0.00037326 0.04199847 -0.09873826
v 0.00037326 0.04145439 -0.09841142
v 0.00121506 0.04145439 -0.09841826
v 0.00121506 0.04199022 -0.09874261
v 0.00037326 0.04199847 -0.09905889
v -0.00178074 0.04188305 -0.09885756
v -0.00129382 0.04190779 -0.09882650
v -0.00885346 0.04107517 -0.09882090
v -0.00801166 0.04111639 -0.09877306
v -0.00716987 0.04115761 -0.09873391
v -0.00716987 0.04061353 -0.09840397
v 0.00037326 0.04082786 -0.09812062
v -0.00633633 0.04061353 -0.09835612
v -0.00213561 0.04069596 -0.09817965
v -0.00045203 0.04078664 -0.09813864
v 0.00121506 0.04081962 -0.09812373
v 0.00205685 0.04076191 -0.09814858
v 0.00289864 0.04069596 -0.09817654
v 0.00541577 0.04061353 -0.09831635
v 0.00625757 0.04061353 -0.09837663
v 0.00709111 0.04061353 -0.09845181
v 0.00625757 0.04118234 -0.09871651
v 0.00205685 0.04193252 -0.09879791
v 0.00121506 0.04199022 -0.09905330
v 0.00709111 0.04112464 -0.09876622
v 0.00121506 0.04145439 -0.09935031
v 0.00037326 0.04145439 -0.09935652
v -0.00633633 0.04119883 -0.09909555
v -0.00716987 0.04115761 -0.09906386
v -0.00801166 0.04111639 -0.09901291
v -0.00045203 0.04194901 -0.09900607
v -0.00129382 0.04190779 -0.09893337
v -0.00178074 0.04188305 -0.09888366
v -0.00937339 0.04104220 -0.09885384
v -0.00967049 0.04067948 -0.09864754
v -0.00885346 0.04061353 -0.09853010
v -0.00801166 0.04061353 -0.09846175
v -0.00885346 0.03990457 -0.09815728
v 0.00037326 0.04040743 -0.09793421
v -0.00549454 0.02898164 -0.09311796
v -0.00801166 0.03995403 -0.09813677
v 0.00121506 0.04039919 -0.09793731
v 0.00205685 0.03809919 -0.09696922
v 0.00282437 0.03885761 -0.09735633
v 0.00877469 0.03983037 -0.09819083
v 0.01045003 0.03977267 -0.09828715
v 0.01129182 0.03977267 -0.09835239
v 0.01129182 0.04036621 -0.09869849
v 0.00260154 0.04189130 -0.09884327
v 0.00205685 0.04193252 -0.09897687
v 0.00778435 0.04107517 -0.09881904
v 0.00709111 0.04112464 -0.09902223
v 0.00625757 0.04118234 -0.09908250
v 0.00457398 0.04061353 -0.09942550
v 0.00373218 0.04061353 -0.09943792
v 0.00289864 0.04061353 -0.09944849
v 0.00205685 0.04061353 -0.09945781
v 0.00709111 0.04061353 -0.09931738
v 0.00625757 0.04061353 -0.09938138
v 0.00541577 0.04061353 -0.09941058
v 0.00121506 0.04061353 -0.09946340
v 0.00037326 0.04061353 -0.09946464
v -0.00045203 0.04061353 -0.09946029
v -0.00129382 0.04061353 -0.09945408
v -0.00213561 0.04061353 -0.09944724
v -0.00297741 0.04061353 -0.09943979
v -0.00381095 0.04061353 -0.09943171
v -0.00465274 0.04061353 -0.09942239
v -0.00549454 0.04061353 -0.09941120
v -0.00633633 0.04061353 -0.09939443
v -0.00716987 0.04061353 -0.09936212
v -0.00801166 0.04061353 -0.09930744
v -0.00885346 0.04061353 -0.09923101
v -0.00967049 0.04067948 -0.09910487
v -0.00885346 0.04107517 -0.09894269
v -0.00937339 0.04104220 -0.09889050
v -0.01189877 0.04023432 -0.09882215
v -0.01137059 0.04032500 -0.09874323
v -0.01052879 0.04048163 -0.09865375
v -0.00969525 0.03983037 -0.09818338
v -0.00885346 0.03948414 -0.09797025
v 0.00037326 0.02945154 -0.09311796
v 0.00079416 0.02946803 -0.09311796
v 0.00121506 0.02947627 -0.09311796
v 0.00121506 0.03903073 -0.09733272
v -0.00465274 0.02905584 -0.09311796
v -0.00885346 0.03893181 -0.09772605
v -0.00889472 0.03803324 -0.09733148
v -0.00633633 0.02884150 -0.09311796
v 0.00205685 0.02940207 -0.09311796
v 0.00958348 0.03969847 -0.09819083
v 0.00877469 0.03809919 -0.09742530
v 0.00961649 0.03809919 -0.09748434
v 0.01045003 0.03885761 -0.09787828
v 0.01045003 0.03809919 -0.09754709
v 0.01045003 0.03705224 -0.09709474
v 0.01000437 0.03347447 -0.09551148
v 0.01129182 0.03918736 -0.09810136
v 0.01213362 0.03903898 -0.09815790
v 0.01290113 0.03885761 -0.09822190
v 0.01219964 0.03984686 -0.09857484
v 0.01196856 0.04029202 -0.09876622
v 0.00260154 0.04189130 -0.09890727
v 0.00778435 0.04107517 -0.09894456
v 0.01129182 0.04036621 -0.09909928
v 0.01045003 0.03977267 -0.09941866
v 0.00961649 0.03977267 -0.09943233
v 0.00877469 0.03977267 -0.09944352
v 0.00793290 0.03977267 -0.09945346
v 0.00709111 0.03977267 -0.09946154
v 0.01129182 0.03977267 -0.09939816
v 0.00625757 0.03977267 -0.09946526
v -0.00633633 0.03977267 -0.09946526
v -0.00716987 0.03977267 -0.09946464
v -0.00801166 0.03977267 -0.09946091
v -0.00885346 0.03977267 -0.09945470
v -0.00969525 0.03977267 -0.09944600
v -0.01052879 0.03977267 -0.09942425
v -0.01052879 0.04048163 -0.09912538
v -0.01137059 0.04032500 -0.09904273
v -0.01189877 0.04023432 -0.09894021
v -0.01853409 0.03768701 -0.09885570
v -0.01613250 0.03856909 -0.09880785
v -0.01373916 0.03945116 -0.09877119
v -0.01557130 0.03866801 -0.09872770
v -0.01305417 0.03957482 -0.09868544
v -0.01137059 0.03977267 -0.09842385
v -0.01045452 0.03969023 -0.09822004
v -0.01012440 0.03936048 -0.09802679
v -0.00920008 0.03766228 -0.09719353
v -0.00642711 0.02881677 -0.09311796
v 0.00231269 0.02936086 -0.09311796
v 0.00877469 0.03762106 -0.09721404
v 0.00378170 0.02911355 -0.09311796
v 0.00617504 0.02868487 -0.09311796
v 0.00803193 0.02833864 -0.09311796
v 0.00877469 0.02817376 -0.09311796
v 0.01088743 0.03516443 -0.09634599
v 0.01129182 0.03809919 -0.09763782
v 0.01129182 0.03876693 -0.09792116
v 0.01213362 0.03809919 -0.09777141
v 0.01432888 0.03771998 -0.09801126
v 0.00959998 0.02788523 -0.09311796
v 0.01380895 0.03893181 -0.09844995
v 0.01807569 0.03640099 -0.09814672
v 0.01969325 0.03570027 -0.09815107
v 0.01885146 0.03641747 -0.09829585
v 0.01717613 0.03725833 -0.09834369
v 0.01549254 0.03809919 -0.09839527
v 0.01297541 0.03965725 -0.09865313
v 0.01196856 0.04029202 -0.09901291
v 0.01380895 0.03947589 -0.09875877
v 0.01604548 0.03856909 -0.09880785
v 0.01428762 0.03937697 -0.09884017
v 0.01213362 0.03893181 -0.09945346
v 0.01129182 0.03893181 -0.09946526
v 0.01297541 0.03965725 -0.09912538
v 0.01380895 0.03893181 -0.09931179
v 0.01549254 0.03809919 -0.09935777
v 0.01717613 0.03725833 -0.09939256
v 0.01297541 0.03893181 -0.09942425
v -0.01052879 0.03893181 -0.09946526
v -0.01137059 0.03893181 -0.09945967
v -0.01389597 0.03809919 -0.09945470
v -0.01221238 0.03893181 -0.09944103
v -0.01472951 0.03809919 -0.09942922
v -0.01725489 0.03725833 -0.09941183
v -0.01305417 0.03893181 -0.09940251
v -0.01137059 0.03977267 -0.09933602
v -0.01305417 0.03957482 -0.09910363
v -0.01557130 0.03866801 -0.09906138
v -0.01373916 0.03945116 -0.09900794
v -0.01613250 0.03856909 -0.09896071
v -0.01853409 0.03768701 -0.09888739
v -0.02030846 0.03690386 -0.09879481
v -0.01808843 0.03776945 -0.09877927
v -0.01977202 0.03701102 -0.09871341
v -0.01808843 0.03725833 -0.09847853
v -0.01557130 0.03809919 -0.09839962
v -0.01305417 0.03893181 -0.09832816
v -0.01725489 0.03725833 -0.09830703
v -0.01389597 0.03820636 -0.09815542
v -0.01137059 0.03912141 -0.09812870
v -0.00801166 0.02829742 -0.09311796
v -0.00775583 0.02838810 -0.09311796
v -0.00698005 0.02866014 -0.09311796
v -0.01137059 0.03870098 -0.09795098
v -0.01112300 0.03690386 -0.09716060
v -0.01305417 0.02648380 -0.09311796
v 0.00945968 0.02793469 -0.09311796
v 0.01635084 0.03647518 -0.09786524
v 0.01130008 0.02708559 -0.09311796
v 0.01929712 0.03349096 -0.09718359
v 0.02071661 0.03504902 -0.09807464
v 0.02015542 0.03517267 -0.09801996
v 0.01969325 0.03527984 -0.09797832
v 0.02046903 0.03550242 -0.09821445
v 0.02136859 0.03557662 -0.09844187
v 0.01969325 0.03641747 -0.09848785
v 0.01717613 0.03788486 -0.09869352
v 0.01428762 0.03937697 -0.09891162
v 0.01604548 0.03856909 -0.09896133
v 0.01779509 0.03776120 -0.09899675
v 0.01380895 0.03947589 -0.09902036
v 0.01549254 0.03867625 -0.09906324
v 0.01779509 0.03776120 -0.09878051
v 0.01969325 0.03692859 -0.09878424
v 0.02184726 0.03603002 -0.09882836
v 0.02011415 0.03683790 -0.09886502
v 0.01465074 0.03809919 -0.09943357
v 0.01633433 0.03725833 -0.09944165
v 0.01800967 0.03641747 -0.09944911
v 0.01969325 0.03557662 -0.09945532
v 0.01380895 0.03809919 -0.09945719
v 0.01549254 0.03725833 -0.09946091
v 0.01717613 0.03641747 -0.09946402
v 0.01885146 0.03557662 -0.09946526
v 0.01717613 0.03788486 -0.09909493
v 0.02136859 0.03557662 -0.09932546
v 0.01885146 0.03641747 -0.09941555
v 0.02053505 0.03557662 -0.09942736
v -0.01305417 0.03809919 -0.09946526
v -0.01557130 0.03725833 -0.09946154
v -0.01808843 0.03641747 -0.09945656
v -0.01641310 0.03725833 -0.09944476
v -0.01893023 0.03641747 -0.09943295
v -0.01977202 0.03641747 -0.09937082
v -0.01557130 0.03809919 -0.09935590
v -0.01977202 0.03701102 -0.09907753
v -0.01808843 0.03776945 -0.09899427
v -0.02030846 0.03690386 -0.09897873
v -0.02275956 0.03519741 -0.09882960
v -0.02125754 0.03615368 -0.09874882
v -0.02059731 0.03642572 -0.09863698
v -0.01977202 0.03641747 -0.09838408
v -0.01890547 0.03635153 -0.09819767
v -0.01890547 0.03561783 -0.09788947
v -0.01645436 0.03722536 -0.09816163
v -0.01467999 0.03729131 -0.09789941
v -0.01223714 0.03815690 -0.09786399
v -0.01196479 0.03858557 -0.09799945
v -0.01620677 0.03692034 -0.09799324
v -0.01746947 0.03255117 -0.09638078
v -0.01373916 0.02617054 -0.09311796
v 0.01468376 0.02548631 -0.09311796
v 0.02053505 0.03389490 -0.09758811
v 0.02119528 0.03448845 -0.09795968
v 0.01549254 0.02509061 -0.09311796
v 0.01562458 0.02502466 -0.09311796
v 0.02136859 0.03612895 -0.09874634
v 0.02143461 0.03475224 -0.09812808
v 0.02221038 0.03473576 -0.09833126
v 0.02216087 0.03555189 -0.09868979
v 0.01885146 0.03710170 -0.09866742
v 0.02011415 0.03683790 -0.09887186
v 0.02184726 0.03603002 -0.09893089
v 0.02136859 0.03612895 -0.09903714
v 0.02275507 0.03525511 -0.09878300
v 0.02604797 0.03268307 -0.09882525
v 0.02136859 0.03473576 -0.09945470
v 0.02053505 0.03473576 -0.09946526
v 0.01885146 0.03710170 -0.09911668
v 0.02216087 0.03555189 -0.09909244
v 0.02304392 0.03474400 -0.09915210
v 0.02221038 0.03473576 -0.09939443
v 0.02305218 0.03389490 -0.09942612
v -0.01725489 0.03641747 -0.09946526
v -0.01977202 0.03557662 -0.09946029
v -0.02061381 0.03557662 -0.09943109
v -0.02313094 0.03389490 -0.09940375
v -0.02228915 0.03473576 -0.09933291
v -0.02059731 0.03642572 -0.09914588
v -0.01808843 0.03725833 -0.09928445
v -0.02125754 0.03615368 -0.09902782
v -0.02370039 0.03442250 -0.09900359
v -0.02275956 0.03519741 -0.09892902
v -0.02370039 0.03442250 -0.09877430
v -0.02859435 0.03096014 -0.09886626
v -0.02614324 0.03269132 -0.09881407
v -0.02307317 0.03471927 -0.09868544
v -0.02055604 0.03551891 -0.09821320
v -0.02397274 0.03391963 -0.09861647
v -0.02228915 0.03473576 -0.09841764
v -0.01977202 0.03575798 -0.09811875
v -0.01916131 0.03592285 -0.09806221
v -0.01893023 0.03473576 -0.09754088
v -0.01831951 0.03423289 -0.09721963
v -0.01977202 0.03533755 -0.09795409
v -0.01397024 0.02602215 -0.09311796
v -0.01977202 0.03473576 -0.09772916
v 0.02143461 0.03396085 -0.09783479
v 0.02175647 0.03429060 -0.09804046
v 0.01625180 0.02463721 -0.09311796
v 0.01633433 0.02457950 -0.09311796
v 0.02304392 0.03474400 -0.09863449
v 0.02298615 0.03382895 -0.09822252
v 0.02641110 0.03138057 -0.09833499
v 0.02604797 0.03268307 -0.09893461
v 0.02275507 0.03525511 -0.09899365
v 0.02636158 0.03218845 -0.09868979
v 0.02694754 0.03189168 -0.09878486
v 0.03023218 0.02931964 -0.09882774
v 0.02221038 0.03389490 -0.09945967
v 0.02389397 0.03305404 -0.09944041
v 0.02472751 0.03221318 -0.09944849
v 0.02556931 0.03138057 -0.09945470
v 0.02305218 0.03305404 -0.09946402
v 0.02389397 0.03221318 -0.09946526
v 0.02636158 0.03218845 -0.09909307
v 0.02723639 0.03138057 -0.09914961
v 0.02977002 0.02885799 -0.09933167
v 0.02556931 0.03221318 -0.09933851
v 0.02641110 0.03138057 -0.09939194
v 0.02725289 0.03053971 -0.09942488
v 0.02808643 0.02969885 -0.09943979
v -0.02061381 0.03473576 -0.09946526
v -0.02648986 0.03053971 -0.09946278
v -0.02564807 0.03138057 -0.09945656
v -0.02480628 0.03221318 -0.09944911
v -0.02144735 0.03473576 -0.09944662
v -0.02397274 0.03305404 -0.09943544
v -0.02733166 0.03053971 -0.09943917
v -0.02648986 0.03138057 -0.09941493
v -0.02564807 0.03221318 -0.09935404
v -0.02397274 0.03391963 -0.09916452
v -0.02307317 0.03471927 -0.09909742
v -0.02708407 0.03192465 -0.09901477
v -0.02614324 0.03269132 -0.09895201
v -0.02859435 0.03096014 -0.09886999
v -0.02708407 0.03192465 -0.09876436
v -0.02946915 0.03016050 -0.09882712
v -0.02892446 0.03048200 -0.09874696
v -0.02644860 0.03220494 -0.09866618
v -0.02024243 0.03519741 -0.09801374
v -0.02313094 0.03389490 -0.09831449
v -0.02640734 0.03129813 -0.09823868
v -0.02313094 0.03288092 -0.09794104
v -0.02564807 0.03221318 -0.09839154
v -0.01472126 0.02551929 -0.09311796
v 0.02221038 0.03368881 -0.09795533
v 0.01673872 0.02424975 -0.09311796
v 0.02806168 0.02885799 -0.09790811
v 0.02718687 0.03046551 -0.09822439
v 0.02723639 0.03138057 -0.09863636
v 0.02977002 0.02885799 -0.09842323
v 0.02694754 0.03189168 -0.09899178
v 0.03023218 0.02931964 -0.09893089
v 0.02977002 0.02950100 -0.09872521
v 0.03055405 0.02877555 -0.09874882
v 0.03103271 0.02843756 -0.09886751
v 0.02641110 0.03053971 -0.09945967
v 0.02892823 0.02885799 -0.09944849
v 0.02725289 0.02969885 -0.09946402
v 0.02808643 0.02885799 -0.09946526
v 0.02785535 0.03110028 -0.09902285
v 0.02977002 0.02950100 -0.09904771
v 0.02977002 0.02801713 -0.09945097
v 0.03055405 0.02877555 -0.09901353
v 0.03061181 0.02801713 -0.09927823
v 0.03144536 0.02633541 -0.09941431
v 0.03061181 0.02717627 -0.09943917
v -0.02733166 0.02969885 -0.09946526
v -0.02816520 0.02969885 -0.09945097
v -0.02900699 0.02969885 -0.09933291
v -0.02816520 0.03053971 -0.09928010
v -0.02734816 0.03140530 -0.09917446
v -0.02644860 0.03220494 -0.09911916
v -0.02892446 0.03048200 -0.09901602
v -0.02946915 0.03016050 -0.09893213
v -0.02734816 0.03140530 -0.09860280
v -0.02816520 0.03053971 -0.09847542
v -0.03282808 0.02597269 -0.09882463
v -0.03204405 0.02687950 -0.09878424
v -0.02965897 0.02969885 -0.09872397
v -0.02900699 0.02969885 -0.09842198
v -0.02061381 0.03303755 -0.09733148
v -0.01969774 0.02204868 -0.09311796
v -0.01893023 0.02259277 -0.09311796
v -0.01723839 0.02377986 -0.09311796
v -0.01487806 0.02541212 -0.09311796
v -0.02730690 0.03049849 -0.09819021
v -0.02730690 0.02970709 -0.09790190
v 0.02048553 0.02110065 -0.09311796
v 0.02721163 0.02715978 -0.09708728
v 0.02867239 0.02856946 -0.09798143
v 0.02894473 0.02885799 -0.09815914
v 0.02977827 0.02804186 -0.09815231
v 0.03061181 0.02801713 -0.09847729
v 0.02923358 0.02833039 -0.09806407
v 0.03103271 0.02843756 -0.09886813
v 0.03117301 0.02801713 -0.09876871
v 0.03199005 0.02692896 -0.09876498
v 0.03276582 0.02599742 -0.09881469
v 0.03526644 0.02260925 -0.09883022
v 0.02977002 0.02717627 -0.09946526
v 0.03228715 0.02466194 -0.09944911
v 0.03397074 0.02213936 -0.09945470
v 0.03144536 0.02550280 -0.09945656
v 0.03061181 0.02633541 -0.09946278
v 0.03199005 0.02692896 -0.09901415
v 0.03147837 0.02720100 -0.09917384
v 0.03228715 0.02550280 -0.09935280
v 0.03397074 0.02298022 -0.09940313
v 0.03564607 0.02045764 -0.09943047
v 0.03312894 0.02382108 -0.09943544
v 0.03480428 0.02129850 -0.09944662
v -0.02900699 0.02801713 -0.09946526
v -0.02984879 0.02717627 -0.09946402
v -0.02900699 0.02885799 -0.09944849
v -0.02984879 0.02801713 -0.09943979
v -0.03069058 0.02717627 -0.09942488
v -0.03152412 0.02633541 -0.09939256
v -0.03236592 0.02550280 -0.09933975
v -0.03153237 0.02716803 -0.09915085
v -0.02965897 0.02969885 -0.09904895
v -0.03204405 0.02687950 -0.09899240
v -0.03282808 0.02597269 -0.09893586
v -0.02818996 0.02970709 -0.09815169
v -0.03617874 0.02177664 -0.09882774
v -0.03540297 0.02268345 -0.09878238
v -0.03234116 0.02628595 -0.09868917
v -0.03153237 0.02716803 -0.09863573
v -0.02900699 0.02887448 -0.09815852
v -0.02848706 0.02916301 -0.09806407
v -0.03236592 0.02550280 -0.09840831
v -0.03152412 0.02633541 -0.09833375
v -0.02981577 0.02799240 -0.09819021
v -0.01985455 0.02190029 -0.09311796
v -0.02528494 0.02681355 -0.09632859
v -0.02264402 0.02418380 -0.09468630
v -0.02757099 0.02998738 -0.09807712
v -0.02792587 0.02942681 -0.09797398
v 0.02125305 0.02044116 -0.09311796
v 0.02894473 0.02804186 -0.09788326
v 0.03005887 0.02742358 -0.09807774
v 0.03057055 0.02715154 -0.09819146
v 0.02949768 0.02776982 -0.09797398
v 0.03144536 0.02633541 -0.09829212
v 0.03228715 0.02550280 -0.09839278
v 0.03227890 0.02630244 -0.09866680
v 0.03147837 0.02720100 -0.09860342
v 0.02688151 0.02514007 -0.09632921
v 0.03526644 0.02260925 -0.09892716
v 0.03276582 0.02599742 -0.09895077
v 0.03449892 0.02354904 -0.09877492
v 0.03622377 0.02110065 -0.09874882
v 0.03697479 0.02015263 -0.09879543
v 0.03228715 0.02382108 -0.09946526
v 0.03564607 0.01961679 -0.09946029
v 0.03312894 0.02298022 -0.09946154
v 0.03480428 0.02045764 -0.09946526
v 0.03227890 0.02630244 -0.09911792
v 0.03449892 0.02354904 -0.09900297
v 0.03398724 0.02382108 -0.09916390
v 0.03480428 0.02213936 -0.09933167
v 0.03648787 0.01961679 -0.09937019
v 0.03648787 0.01878417 -0.09943295
v -0.03236592 0.02382108 -0.09946526
v -0.03320771 0.02298022 -0.09946402
v -0.03069058 0.02633541 -0.09945967
v -0.03152412 0.02550280 -0.09945470
v -0.03236592 0.02466194 -0.09944911
v -0.03320771 0.02382108 -0.09944041
v -0.03404950 0.02298022 -0.09942612
v -0.03488304 0.02213936 -0.09939505
v -0.03489129 0.02297198 -0.09915272
v -0.03234116 0.02628595 -0.09909431
v -0.03540297 0.02268345 -0.09899427
v -0.03617874 0.02177664 -0.09893151
v -0.03698753 0.02004546 -0.09886440
v -0.03872063 0.01597306 -0.09880723
v -0.03791185 0.01772898 -0.09877989
v -0.03707831 0.01961679 -0.09878362
v -0.03627778 0.02129850 -0.09874572
v -0.03572484 0.02129850 -0.09844063
v -0.03570008 0.02208990 -0.09868917
v -0.03489129 0.02297198 -0.09863325
v -0.02872639 0.02860243 -0.09798081
v -0.02053128 0.02123255 -0.09311796
v -0.03488304 0.02213936 -0.09833002
v -0.03061630 0.02711032 -0.09822377
v -0.03317470 0.02379635 -0.09818835
v -0.03007161 0.02734939 -0.09809763
v -0.02039099 0.02138094 -0.09311796
v 0.02136034 0.02034223 -0.09311796
v 0.02977827 0.02715154 -0.09790314
v 0.03026519 0.02686301 -0.09800132
v 0.02888696 0.02631068 -0.09735695
v 0.03397074 0.02298022 -0.09831573
v 0.03558830 0.02040818 -0.09821382
v 0.03480428 0.02213936 -0.09841950
v 0.03649612 0.02044940 -0.09863760
v 0.03478777 0.02292252 -0.09868607
v 0.02173997 0.01997951 -0.09311796
v 0.02207834 0.01960030 -0.09311796
v 0.03697479 0.02015263 -0.09897811
v 0.03708207 0.01961679 -0.09871403
v 0.03775881 0.01838023 -0.09885694
v 0.03648787 0.01961679 -0.09838532
v 0.03564607 0.01878417 -0.09946526
v 0.03648787 0.01794331 -0.09945656
v 0.03648787 0.01710245 -0.09946526
v 0.03478777 0.02292252 -0.09909555
v 0.03649612 0.02044940 -0.09914526
v 0.03622377 0.02110065 -0.09902782
v 0.03708207 0.01961679 -0.09907629
v 0.03732966 0.01794331 -0.09928258
v 0.03816320 0.01542073 -0.09935466
v 0.03900499 0.01289816 -0.09940188
v 0.03732966 0.01710245 -0.09941120
v 0.03984679 0.01038383 -0.09942425
v 0.03900499 0.01206554 -0.09944103
v 0.03732966 0.01626159 -0.09944476
v -0.03488304 0.02045764 -0.09946526
v -0.03404950 0.02213936 -0.09945967
v -0.03488304 0.02129850 -0.09945470
v -0.03572484 0.02045764 -0.09942798
v -0.03572484 0.02129850 -0.09932608
v -0.03570008 0.02208990 -0.09909307
v -0.03698753 0.02004546 -0.09887310
v -0.03627778 0.02129850 -0.09903776
v -0.03791185 0.01772898 -0.09899737
v -0.03872063 0.01597306 -0.09896196
v -0.03952941 0.01421715 -0.09883954
v -0.04044549 0.01190067 -0.09876560
v -0.03882792 0.01542073 -0.09872335
v -0.03725162 0.01878417 -0.09866680
v -0.03656663 0.01961679 -0.09848661
v -0.03565056 0.02039994 -0.09821382
v -0.03519665 0.02064725 -0.09807402
v -0.03463546 0.02112539 -0.09795968
v -0.03490780 0.02136445 -0.09812745
v -0.03656663 0.01878417 -0.09829523
v -0.02475676 0.01622038 -0.09311796
v -0.02398924 0.01714367 -0.09311796
v -0.03443739 0.02168596 -0.09803984
v -0.03397523 0.02291427 -0.09822190
v -0.03343054 0.02315334 -0.09809701
v -0.03411552 0.02136445 -0.09783479
v 0.03506012 0.02065549 -0.09808831
v 0.02216087 0.01949313 -0.09311796
v 0.03526644 0.02009492 -0.09801436
v 0.03540674 0.01961679 -0.09795471
v 0.03582764 0.01961679 -0.09811938
v 0.03775881 0.01838023 -0.09888553
v 0.03864187 0.01598131 -0.09896009
v 0.03783308 0.01794331 -0.09899302
v 0.03732966 0.01794331 -0.09848039
v 0.03874090 0.01542073 -0.09872832
v 0.03952493 0.01358239 -0.09877181
v 0.03864187 0.01598131 -0.09880848
v 0.03783308 0.01794331 -0.09878051
v 0.04030895 0.01174404 -0.09882277
v 0.03599269 0.01901499 -0.09806221
v 0.03642184 0.01875120 -0.09819829
v 0.03732966 0.01710245 -0.09830765
v 0.03816320 0.01373902 -0.09945470
v 0.03900499 0.01122468 -0.09945967
v 0.03732966 0.01542073 -0.09946091
v 0.03816320 0.01289816 -0.09946526
v 0.03952493 0.01358239 -0.09900732
v 0.03874090 0.01542073 -0.09906013
v 0.03964047 0.01289816 -0.09910301
v 0.03984679 0.01122468 -0.09933478
v 0.04068858 0.00870211 -0.09934223
v 0.04152212 0.00618778 -0.09933664
v 0.04068858 0.00786125 -0.09939567
v 0.03984679 0.00954297 -0.09944414
v -0.03572484 0.01878417 -0.09946526
v -0.03572484 0.01961679 -0.09945532
v -0.03656663 0.01794331 -0.09944973
v -0.03740842 0.01626159 -0.09944227
v -0.03908376 0.01289816 -0.09942425
v -0.03656663 0.01878417 -0.09941618
v -0.03725162 0.01878417 -0.09911668
v -0.03740842 0.01710245 -0.09939319
v -0.03824196 0.01542073 -0.09935839
v -0.03908376 0.01373902 -0.09931241
v -0.03803564 0.01710245 -0.09909555
v -0.03952941 0.01421715 -0.09891349
v -0.03882792 0.01542073 -0.09906386
v -0.04044549 0.01190067 -0.09901353
v -0.04122951 0.00772111 -0.09881842
v -0.04051976 0.01122468 -0.09869787
v -0.03992555 0.01122468 -0.09835115
v -0.03999983 0.01213149 -0.09857422
v -0.03908376 0.01373902 -0.09844870
v -0.03981001 0.01289816 -0.09865251
v -0.03740842 0.01710245 -0.09834245
v -0.03532870 0.02008668 -0.09801996
v -0.03490780 0.02039994 -0.09790997
v -0.03404950 0.02045764 -0.09758748
v -0.02524368 0.01542073 -0.09311796
v -0.03655013 0.01800926 -0.09814610
v -0.03900948 0.01283221 -0.09822128
v 0.02257351 0.01890783 -0.09311796
v 0.02447992 0.01619564 -0.09311796
v 0.02594894 0.01405228 -0.09311796
v 0.02619652 0.01368956 -0.09311796
v 0.03480428 0.01878417 -0.09754150
v 0.04030895 0.01174404 -0.09893896
v 0.03816320 0.01542073 -0.09840086
v 0.03984679 0.01122468 -0.09842509
v 0.04039973 0.01122468 -0.09874385
v 0.04203380 0.00685552 -0.09877989
v 0.03609998 0.01845442 -0.09801312
v 0.03430911 0.01816589 -0.09721963
v 0.03568734 0.01875120 -0.09789009
v 0.03661991 0.01794331 -0.09814734
v 0.03827874 0.01373902 -0.09815604
v 0.03809718 0.01453041 -0.09820948
v 0.03976426 0.01030139 -0.09822066
v 0.03900499 0.01289816 -0.09832878
v 0.03699129 0.01605550 -0.09799324
v 0.03900499 0.01038383 -0.09946526
v 0.03984679 0.00870211 -0.09945097
v 0.04039973 0.01122468 -0.09904211
v 0.04054828 0.01038383 -0.09912538
v 0.04210807 0.00618778 -0.09908809
v 0.04152212 0.00534692 -0.09935466
v 0.04068858 0.00534692 -0.09942363
v 0.04068858 0.00450606 -0.09943109
v -0.03656663 0.01710245 -0.09946402
v -0.03908376 0.01122468 -0.09946526
v -0.03740842 0.01542073 -0.09946091
v -0.03824196 0.01373902 -0.09945781
v -0.03908376 0.01206554 -0.09945408
v -0.03992555 0.01122468 -0.09939878
v -0.03999983 0.01213149 -0.09918503
v -0.03981001 0.01289816 -0.09912538
v -0.04051976 0.01122468 -0.09909990
v -0.04122951 0.00772111 -0.09894518
v -0.04204654 0.00253581 -0.09884265
v -0.04208781 0.00198348 -0.09879729
v -0.04127903 0.00702039 -0.09876498
v -0.04133680 0.00618778 -0.09871651
v -0.04076735 0.00702039 -0.09845119
v -0.03891870 0.01122468 -0.09792054
v -0.03919105 0.01206554 -0.09815728
v -0.04076735 0.00618778 -0.09837600
v -0.03992555 0.01038383 -0.09828590
v -0.03900948 0.01038383 -0.09787828
v -0.03762300 0.01038383 -0.09727618
v -0.03720210 0.01038383 -0.09709474
v -0.03362035 0.00993867 -0.09551086
v -0.03787059 0.01425837 -0.09801064
v -0.02804966 0.00946877 -0.09311796
v -0.02724913 0.01119171 -0.09311796
v -0.03350481 0.01978166 -0.09723579
v -0.02563156 0.01462110 -0.09311796
v 0.02629556 0.01349171 -0.09311796
v 0.03261727 0.01731679 -0.09638140
v 0.04203380 0.00685552 -0.09900172
v 0.04054828 0.01038383 -0.09865375
v 0.04210807 0.00618778 -0.09872086
v 0.03474651 0.01791034 -0.09735820
v 0.02655965 0.01288167 -0.09311796
v 0.03822922 0.01208203 -0.09786461
v 0.03896373 0.01208203 -0.09817406
v 0.03942589 0.00997164 -0.09802679
v 0.03902975 0.01030139 -0.09791308
v 0.03984679 0.00534692 -0.09946526
v 0.04068858 0.00030176 -0.09946029
v 0.04068858 -0.00052261 -0.09946464
v 0.04211633 0.00534692 -0.09909804
v 0.04152212 -0.00052261 -0.09935652
v -0.03992555 0.00618778 -0.09946526
v -0.03992555 0.00702039 -0.09946154
v -0.03992555 0.00786125 -0.09945346
v -0.03992555 0.00870211 -0.09944352
v -0.03992555 0.00954297 -0.09943233
v -0.03992555 0.01038383 -0.09941928
v -0.04076735 0.00534692 -0.09940313
v -0.04076735 0.00618778 -0.09938200
v -0.04076735 0.00702039 -0.09931800
v -0.04133680 0.00618778 -0.09908250
v -0.04127903 0.00702039 -0.09902285
v -0.04208781 0.00198348 -0.09897749
v -0.04204654 0.00253581 -0.09890852
v -0.04213733 0.00114262 -0.09874199
v -0.04160089 0.00114262 -0.09841764
v -0.03531219 0.01082074 -0.09634536
v -0.04091590 0.00198348 -0.09814796
v -0.04084988 0.00282434 -0.09817654
v -0.03985128 0.00950999 -0.09819021
v -0.03947990 0.00977379 -0.09804357
v -0.03952116 0.00921322 -0.09802182
v -0.03777155 0.00870211 -0.09721342
v -0.02955168 0.00198348 -0.09311796
v -0.02945265 0.00258527 -0.09311796
v -0.02927108 0.00366520 -0.09311796
v -0.02912253 0.00450606 -0.09311796
v -0.02851182 0.00786125 -0.09311796
v -0.02832200 0.00871860 -0.09311796
v 0.04211633 0.00534692 -0.09871341
v 0.03773405 0.00904010 -0.09719353
v 0.02871365 0.00694620 -0.09311796
v 0.02891172 0.00618778 -0.09311796
v 0.02894473 0.00605588 -0.09311796
v 0.02905202 0.00534692 -0.09311796
v 0.02919232 0.00366520 -0.09311796
v 0.02952243 -0.00052261 -0.09311796
v 0.03697479 0.01096913 -0.09716122
v 0.03984679 -0.00640862 -0.09946526
v 0.04068858 -0.00136347 -0.09946340
v 0.04206681 -0.00052261 -0.09905889
v 0.04152212 -0.00136347 -0.09935031
v -0.03992555 -0.00556776 -0.09946526
v -0.04076735 0.00030176 -0.09946464
v -0.04076735 0.00114262 -0.09946402
v -0.04076735 0.00198348 -0.09945719
v -0.04160089 0.00114262 -0.09935093
v -0.04213733 0.00114262 -0.09905392
v -0.04214558 0.00030176 -0.09873764
v -0.04219509 -0.00556776 -0.09871341
v -0.04160089 0.00030176 -0.09841080
v -0.04097367 0.00114262 -0.09812310
v -0.03988429 0.00450606 -0.09786213
v -0.02959295 0.00158778 -0.09311796
v 0.03984679 -0.00052261 -0.09765708
v 0.04089491 -0.00052261 -0.09812062
v 0.04152212 -0.00052261 -0.09841142
v 0.04152212 -0.00136347 -0.09841826
v 0.04206681 -0.00052261 -0.09873826
v 0.02954719 -0.00136347 -0.09311796
v 0.03984679 -0.00724124 -0.09946154
v 0.03900499 -0.01144553 -0.09946526
v 0.04068858 -0.00220433 -0.09945719
v 0.04205856 -0.00136347 -0.09905330
v 0.04124978 -0.00640862 -0.09908188
v 0.04068858 -0.00724124 -0.09931614
v 0.04068858 -0.00640862 -0.09938076
v 0.04068858 -0.00556776 -0.09940313
v -0.03992555 -0.00892295 -0.09945097
v -0.03908376 -0.01060467 -0.09946526
v -0.04076735 -0.00052261 -0.09946029
v -0.04160089 -0.00556776 -0.09935466
v -0.04160089 0.00030176 -0.09935715
v -0.04219509 -0.00556776 -0.09909804
v -0.04214558 0.00030176 -0.09905951
v -0.04056103 0.00030176 -0.09793421
v -0.04097367 0.00030176 -0.09812062
v -0.04218684 -0.00640862 -0.09872086
v -0.02963421 0.00114262 -0.09311796
v -0.04055277 0.00114262 -0.09793731
v 0.04047401 -0.00136347 -0.09793731
v 0.04089491 -0.00136347 -0.09812373
v 0.04205856 -0.00136347 -0.09874261
v 0.04083713 -0.00220433 -0.09814858
v 0.04068858 -0.00640862 -0.09837725
v 0.04068858 -0.00724124 -0.09845305
v 0.02947292 -0.00220433 -0.09311796
v 0.03984679 -0.00808209 -0.09945284
v 0.03984679 -0.00892295 -0.09944352
v 0.03900499 -0.01228639 -0.09945346
v 0.03732966 -0.01564158 -0.09946091
v 0.03648787 -0.01732330 -0.09946402
v 0.03564607 -0.01900502 -0.09946526
v 0.03984679 -0.01060467 -0.09941866
v 0.03984679 -0.00976381 -0.09943171
v 0.04200905 -0.00220433 -0.09897625
v 0.04119201 -0.00724124 -0.09902099
v 0.04044100 -0.01144553 -0.09909866
v 0.03984679 -0.01144553 -0.09939753
v -0.03992555 -0.00976381 -0.09944414
v -0.04076735 -0.00472690 -0.09943109
v -0.03908376 -0.01144553 -0.09945967
v -0.03824196 -0.01311900 -0.09946526
v -0.04160089 -0.00640862 -0.09933726
v -0.04218684 -0.00640862 -0.09908872
v -0.04076735 -0.00556776 -0.09942363
v -0.04076735 -0.00808209 -0.09939567
v -0.04211256 -0.00707636 -0.09877927
v -0.03984302 -0.01052223 -0.09822004
v -0.03950466 -0.01019248 -0.09802679
v -0.03781281 -0.00926919 -0.09719353
v -0.02879242 -0.00716704 -0.09311796
v -0.02899874 -0.00640862 -0.09311796
v -0.02902350 -0.00628496 -0.09311796
v -0.02913904 -0.00552654 -0.09311796
v -0.02920506 -0.00473515 -0.09311796
v -0.02927108 -0.00393551 -0.09311796
v -0.02957644 -0.00003623 -0.09311796
v -0.02960120 0.00030176 -0.09311796
v 0.04200905 -0.00220433 -0.09879791
v 0.04124978 -0.00640862 -0.09871713
v 0.03944240 -0.00942582 -0.09802244
v 0.03977251 -0.00973084 -0.09819146
v 0.04077111 -0.00304518 -0.09817716
v 0.03984679 -0.01060467 -0.09828839
v 0.03984679 -0.01144553 -0.09835301
v 0.04044100 -0.01144553 -0.09869974
v 0.02937388 -0.00281436 -0.09311796
v 0.03900499 -0.01311900 -0.09942363
v 0.03816320 -0.01480072 -0.09943357
v 0.03732966 -0.01648244 -0.09944165
v 0.03648787 -0.01816416 -0.09944911
v 0.03564607 -0.01983763 -0.09945532
v 0.03480428 -0.02067849 -0.09946526
v 0.04196778 -0.00275665 -0.09890727
v 0.04114249 -0.00793371 -0.09894331
v 0.04036672 -0.01212151 -0.09901229
v 0.03992107 -0.01235234 -0.09918441
v 0.03900499 -0.01395986 -0.09931054
v 0.03816320 -0.01564158 -0.09935715
v 0.03732966 -0.01732330 -0.09939194
v -0.03992555 -0.01060467 -0.09942425
v -0.03908376 -0.01228639 -0.09944103
v -0.03740842 -0.01564158 -0.09946154
v -0.03656663 -0.01816416 -0.09945656
v -0.03824196 -0.01395986 -0.09945470
v -0.03656663 -0.01732330 -0.09946526
v -0.04076735 -0.00892295 -0.09934348
v -0.04211256 -0.00707636 -0.09900297
v -0.03992555 -0.01144553 -0.09933602
v -0.04063530 -0.01060467 -0.09912538
v -0.04038771 -0.01196488 -0.09882215
v -0.04047850 -0.01144553 -0.09874323
v -0.04063530 -0.01060467 -0.09865313
v -0.03992555 -0.01144553 -0.09842385
v -0.03908376 -0.01311900 -0.09832754
v -0.03740842 -0.01732330 -0.09830703
v -0.03873714 -0.01203908 -0.09799945
v -0.03885268 -0.01144553 -0.09795098
v -0.03910852 -0.01052223 -0.09791246
v -0.02663842 -0.01311900 -0.09311921
v -0.02724087 -0.01146202 -0.09311796
v 0.04196778 -0.00275665 -0.09884327
v 0.04119201 -0.00724124 -0.09876684
v 0.04114249 -0.00793371 -0.09881966
v 0.03761851 -0.00976381 -0.09724449
v 0.03892247 -0.01060467 -0.09787891
v 0.03926083 -0.01144553 -0.09810136
v 0.03911228 -0.01228639 -0.09815790
v 0.03992107 -0.01235234 -0.09857546
v 0.04036672 -0.01212151 -0.09876684
v 0.03754424 -0.01060467 -0.09727742
v 0.03712334 -0.01060467 -0.09709536
v 0.02919232 -0.00388604 -0.09311796
v 0.03648787 -0.01900502 -0.09941555
v 0.03564607 -0.02067849 -0.09942798
v 0.03480428 -0.02151935 -0.09945470
v 0.03397074 -0.02236021 -0.09945967
v 0.03312894 -0.02320107 -0.09946402
v 0.03228715 -0.02404192 -0.09946526
v 0.03972300 -0.01311900 -0.09912476
v 0.03945065 -0.01443800 -0.09891100
v 0.03864187 -0.01619391 -0.09896071
v 0.03783308 -0.01794982 -0.09899675
v 0.03874916 -0.01564158 -0.09906262
v 0.03795688 -0.01732330 -0.09909493
v 0.03717285 -0.01900502 -0.09911668
v 0.03564607 -0.02151935 -0.09932546
v -0.03824196 -0.01480072 -0.09942922
v -0.03656663 -0.01900502 -0.09943295
v -0.03740842 -0.01732330 -0.09941183
v -0.03908376 -0.01311900 -0.09940251
v -0.03740842 -0.01648244 -0.09944476
v -0.03572484 -0.01983763 -0.09946029
v -0.03572484 -0.01900502 -0.09946526
v -0.04047850 -0.01144553 -0.09904336
v -0.04038771 -0.01196488 -0.09894021
v -0.03971923 -0.01311900 -0.09910363
v -0.03824196 -0.01564158 -0.09935590
v -0.03740842 -0.01816416 -0.09928445
v -0.03716084 -0.01983763 -0.09907753
v -0.03783757 -0.01860932 -0.09885570
v -0.03872063 -0.01620215 -0.09880785
v -0.03960369 -0.01381148 -0.09877119
v -0.03881967 -0.01564158 -0.09872770
v -0.03740842 -0.01816416 -0.09847853
v -0.03824196 -0.01564158 -0.09839962
v -0.03656663 -0.01983763 -0.09838408
v -0.03650061 -0.01897204 -0.09819767
v -0.03628603 -0.01816416 -0.09797087
v -0.02637432 -0.01371255 -0.09311796
v -0.02663842 -0.01311076 -0.09311796
v -0.03482527 -0.01813118 -0.09735758
v -0.03438787 -0.01838674 -0.09721963
v 0.03883994 -0.01144553 -0.09792178
v 0.03354159 -0.01015127 -0.09551148
v 0.03524993 -0.02030752 -0.09801996
v 0.03648787 -0.01900502 -0.09829585
v 0.03732966 -0.01732330 -0.09834369
v 0.03892247 -0.01304481 -0.09822252
v 0.03900499 -0.01395986 -0.09845057
v 0.03523343 -0.01103334 -0.09634599
v 0.02797089 -0.00968962 -0.09311796
v 0.03945065 -0.01443800 -0.09884079
v 0.03874916 -0.01564158 -0.09872459
v 0.03783308 -0.01794982 -0.09878051
v 0.03864187 -0.01619391 -0.09880785
v 0.02842480 -0.00808209 -0.09311796
v 0.03480428 -0.02236021 -0.09939443
v 0.03397074 -0.02320107 -0.09942612
v 0.03312894 -0.02404192 -0.09944041
v 0.03228715 -0.02488278 -0.09944849
v 0.03144536 -0.02572364 -0.09945470
v 0.03061181 -0.02655626 -0.09945967
v 0.02977002 -0.02739712 -0.09946402
v 0.02892823 -0.02823797 -0.09946526
v 0.03690876 -0.02026630 -0.09887186
v 0.03609998 -0.02199748 -0.09893089
v 0.03619901 -0.02151935 -0.09903714
v 0.03562131 -0.02231074 -0.09909244
v 0.03481253 -0.02319282 -0.09915210
v -0.03572484 -0.02067849 -0.09943109
v -0.03656663 -0.01983763 -0.09937082
v -0.03488304 -0.02067849 -0.09946526
v -0.03320771 -0.02320107 -0.09946154
v -0.03152412 -0.02572364 -0.09945656
v -0.03404950 -0.02236021 -0.09945470
v -0.03488304 -0.02151935 -0.09944662
v -0.03881967 -0.01564158 -0.09906138
v -0.03960369 -0.01381148 -0.09900794
v -0.03872063 -0.01620215 -0.09896133
v -0.03783757 -0.01860932 -0.09888739
v -0.03657488 -0.02067025 -0.09914588
v -0.03705355 -0.02038172 -0.09897873
v -0.03792010 -0.01816416 -0.09899489
v -0.03705355 -0.02038172 -0.09879481
v -0.03792010 -0.01816416 -0.09877927
v -0.03716084 -0.01983763 -0.09871278
v -0.03657488 -0.02067025 -0.09863698
v -0.03566707 -0.02062903 -0.09821320
v -0.03590640 -0.01983763 -0.09811875
v -0.03607146 -0.01923584 -0.09806221
v -0.03576610 -0.01897204 -0.09788947
v -0.02627529 -0.01391864 -0.09311796
v -0.03269603 -0.01754588 -0.09638078
v -0.03488304 -0.01900502 -0.09754088
v 0.02824324 -0.00893120 -0.09311796
v 0.03482904 -0.02062078 -0.09790997
v 0.03511789 -0.02085985 -0.09807402
v 0.03557180 -0.02062078 -0.09821445
v 0.03564607 -0.02151935 -0.09844187
v 0.03648787 -0.01983763 -0.09848785
v 0.03795688 -0.01732330 -0.09869352
v 0.03717285 -0.01900502 -0.09866742
v 0.02636158 -0.01312725 -0.09311796
v 0.03690876 -0.02026630 -0.09886502
v 0.03619901 -0.02151935 -0.09874572
v 0.03609998 -0.02199748 -0.09882836
v 0.03228715 -0.02572364 -0.09933851
v 0.03144536 -0.02655626 -0.09939194
v 0.03061181 -0.02739712 -0.09942488
v 0.02977002 -0.02823797 -0.09943979
v 0.02892823 -0.02907884 -0.09944849
v 0.02808643 -0.02991969 -0.09945097
v 0.02725289 -0.02991969 -0.09946526
v 0.03274931 -0.02619354 -0.09893461
v 0.03532421 -0.02290429 -0.09899365
v 0.03226239 -0.02650680 -0.09909307
v 0.03145361 -0.02738887 -0.09914961
v -0.03320771 -0.02404192 -0.09943544
v -0.03152412 -0.02655626 -0.09941493
v -0.03404950 -0.02320107 -0.09940375
v -0.03488304 -0.02236021 -0.09933229
v -0.03236592 -0.02404192 -0.09946526
v -0.03069058 -0.02655626 -0.09946278
v -0.02984879 -0.02823797 -0.09945097
v -0.03236592 -0.02488278 -0.09944911
v -0.03069058 -0.02739712 -0.09943917
v -0.03406601 -0.02405017 -0.09916452
v -0.03235766 -0.02652328 -0.09911916
v -0.03486654 -0.02315160 -0.09909679
v -0.03457769 -0.02376988 -0.09900359
v -0.03630254 -0.02132150 -0.09902782
v -0.03534520 -0.02283010 -0.09892840
v -0.03534520 -0.02283010 -0.09882960
v -0.03630254 -0.02132150 -0.09874882
v -0.03457769 -0.02376988 -0.09877430
v -0.03486654 -0.02315160 -0.09868544
v -0.03488304 -0.02236021 -0.09841826
v -0.03534520 -0.02031577 -0.09801374
v -0.03549376 -0.01983763 -0.09795471
v -0.03404950 -0.02320107 -0.09831449
v -0.03064932 -0.02738063 -0.09819083
v -0.03090515 -0.02670465 -0.09810136
v -0.02456694 -0.01641649 -0.09311796
v 0.03397074 -0.02067849 -0.09758811
v 0.03455669 -0.02134623 -0.09795968
v 0.02558581 -0.01476775 -0.09311796
v 0.02515666 -0.01564158 -0.09311796
v 0.03482904 -0.02158530 -0.09812808
v 0.03480428 -0.02236021 -0.09833064
v 0.03562131 -0.02231074 -0.09868979
v 0.03532421 -0.02290429 -0.09878300
v 0.03274931 -0.02619354 -0.09882587
v 0.02892823 -0.02991969 -0.09933105
v 0.02725289 -0.03076055 -0.09943917
v 0.02472751 -0.03244227 -0.09944911
v 0.02556931 -0.03160141 -0.09945656
v 0.02641110 -0.03076055 -0.09946278
v 0.02389397 -0.03244227 -0.09946526
v 0.02939039 -0.03038134 -0.09893027
v 0.03196529 -0.02710034 -0.09899116
v 0.03117301 -0.02800715 -0.09902285
v 0.02957195 -0.02991969 -0.09904708
v -0.02984879 -0.02907884 -0.09933291
v -0.03069058 -0.02823797 -0.09927948
v -0.03236592 -0.02572364 -0.09935404
v -0.02984879 -0.02739712 -0.09946526
v -0.02816520 -0.02907884 -0.09946526
v -0.02733166 -0.02991969 -0.09946402
v -0.02900699 -0.02907884 -0.09944849
v -0.03155713 -0.02742185 -0.09917384
v -0.03206881 -0.02714981 -0.09901477
v -0.03284458 -0.02621826 -0.09895201
v -0.03111148 -0.02865840 -0.09886999
v -0.03111148 -0.02865840 -0.09886626
v -0.03284458 -0.02621826 -0.09881407
v -0.03235766 -0.02652328 -0.09866618
v -0.03406601 -0.02405017 -0.09861709
v -0.02224788 -0.01971398 -0.09311796
v -0.03236592 -0.02572364 -0.09839154
v -0.03144159 -0.02647382 -0.09823868
v -0.02985704 -0.02826271 -0.09815169
v -0.03013764 -0.02764443 -0.09807712
v -0.02985704 -0.02738063 -0.09790190
v -0.03069058 -0.02823797 -0.09847542
v 0.03403676 -0.02158530 -0.09783479
v 0.03435862 -0.02190680 -0.09804046
v 0.02466974 -0.01644122 -0.09311796
v 0.03481253 -0.02319282 -0.09863387
v 0.03389646 -0.02313512 -0.09822252
v 0.03053754 -0.02733117 -0.09822501
v 0.03144536 -0.02655626 -0.09833499
v 0.03228715 -0.02572364 -0.09841018
v 0.03196529 -0.02710034 -0.09878486
v 0.02939039 -0.03038134 -0.09882836
v 0.02884570 -0.03070285 -0.09901353
v 0.02808643 -0.03076055 -0.09927761
v 0.02641110 -0.03160141 -0.09941431
v 0.02136859 -0.03495660 -0.09944662
v 0.02053505 -0.03579746 -0.09943047
v 0.01969325 -0.03579746 -0.09946029
v 0.02053505 -0.03495660 -0.09946526
v 0.02850733 -0.03118098 -0.09886813
v -0.02816520 -0.02991969 -0.09943979
v -0.02733166 -0.03076055 -0.09942488
v -0.02648986 -0.03160141 -0.09939256
v -0.02564807 -0.03244227 -0.09933975
v -0.02731515 -0.03160141 -0.09915023
v -0.02984879 -0.02973009 -0.09904833
v -0.03031095 -0.02954048 -0.09893213
v -0.03063281 -0.02899640 -0.09901539
v -0.02397274 -0.03244227 -0.09946526
v -0.02648986 -0.03076055 -0.09945967
v -0.02313094 -0.03327489 -0.09946402
v -0.02564807 -0.03160141 -0.09945470
v -0.02480628 -0.03244227 -0.09944911
v -0.03125178 -0.02823797 -0.09899551
v -0.03031095 -0.02954048 -0.09882712
v -0.03063281 -0.02899640 -0.09874696
v -0.03125178 -0.02823797 -0.09876747
v -0.03206881 -0.02714981 -0.09876436
v -0.03155713 -0.02742185 -0.09860280
v -0.02696028 -0.02536092 -0.09632921
v -0.02215710 -0.01982114 -0.09311796
v -0.02984879 -0.02907884 -0.09842198
v -0.02931235 -0.02855124 -0.09806407
v -0.02957644 -0.02799066 -0.09797398
v 0.03021568 -0.02700966 -0.09801996
v 0.03335177 -0.02337418 -0.09809701
v 0.02457071 -0.01656488 -0.09311796
v 0.03145361 -0.02738887 -0.09863698
v 0.03226239 -0.02650680 -0.09869041
v 0.03309593 -0.02401719 -0.09818897
v 0.02892823 -0.02909532 -0.09815914
v 0.02892823 -0.02991969 -0.09842385
v 0.02957195 -0.02991969 -0.09872521
v 0.02884570 -0.03070285 -0.09874882
v 0.02850733 -0.03118098 -0.09886751
v 0.02700531 -0.03214550 -0.09901415
v 0.02726940 -0.03162614 -0.09917384
v 0.02556931 -0.03244227 -0.09935280
v 0.02305218 -0.03411574 -0.09940313
v 0.01969325 -0.03663832 -0.09937019
v 0.01885146 -0.03663832 -0.09943295
v 0.01800967 -0.03663832 -0.09945656
v 0.01717613 -0.03663832 -0.09946526
v 0.02268080 -0.03541825 -0.09892716
v 0.02606448 -0.03291216 -0.09895077
v -0.02397274 -0.03327489 -0.09944041
v -0.02313094 -0.03411574 -0.09942612
v -0.02228915 -0.03495660 -0.09939443
v -0.02312269 -0.03496485 -0.09915272
v -0.02644035 -0.03240930 -0.09909369
v -0.02703455 -0.03211252 -0.09899240
v -0.02612674 -0.03290392 -0.09893586
v -0.02061381 -0.03495660 -0.09946526
v -0.02228915 -0.03411574 -0.09945967
v -0.02144735 -0.03495660 -0.09945470
v -0.02984879 -0.02973009 -0.09872397
v -0.02612674 -0.03290392 -0.09882463
v -0.02703455 -0.03211252 -0.09878424
v -0.02902350 -0.02826271 -0.09788263
v -0.02181873 -0.02020035 -0.09311796
v -0.02731515 -0.03160141 -0.09863573
v -0.02648986 -0.03160141 -0.09833375
v -0.02726563 -0.03068636 -0.09822439
v -0.02902350 -0.02907884 -0.09815852
v -0.02875115 -0.02879030 -0.09798081
v 0.02892823 -0.02821324 -0.09790873
v 0.02391048 -0.01735627 -0.09311796
v 0.02863938 -0.02882328 -0.09798143
v 0.02840004 -0.02938385 -0.09806469
v 0.02811119 -0.02992794 -0.09815231
v 0.02808643 -0.03076055 -0.09847729
v 0.02700531 -0.03214550 -0.09876498
v 0.02606448 -0.03291216 -0.09881469
v 0.02268080 -0.03541825 -0.09883022
v 0.02362163 -0.03464334 -0.09900297
v 0.02299441 -0.03494012 -0.09909555
v 0.02636983 -0.03242578 -0.09911792
v 0.02389397 -0.03414048 -0.09916390
v 0.02221038 -0.03495660 -0.09933105
v 0.02051854 -0.03664656 -0.09914526
v 0.01969325 -0.03723187 -0.09907629
v 0.01800967 -0.03747918 -0.09928320
v 0.01549254 -0.03832004 -0.09935528
v 0.01297541 -0.03915265 -0.09940188
v 0.01717613 -0.03747918 -0.09941120
v 0.01465074 -0.03832004 -0.09942860
v 0.01633433 -0.03747918 -0.09944476
v 0.01380895 -0.03832004 -0.09945470
v 0.01129182 -0.03915265 -0.09945967
v 0.01297541 -0.03832004 -0.09946526
v 0.02022969 -0.03712470 -0.09897811
v -0.02061381 -0.03579746 -0.09942798
v -0.02144735 -0.03579746 -0.09932608
v -0.02223963 -0.03577273 -0.09909307
v -0.02283384 -0.03547596 -0.09899427
v -0.02192602 -0.03625087 -0.09893151
v -0.01893023 -0.03579746 -0.09946526
v -0.01977202 -0.03579746 -0.09945532
v -0.02644035 -0.03240930 -0.09868917
v -0.02192602 -0.03625087 -0.09882774
v -0.02283384 -0.03547596 -0.09878238
v -0.02312269 -0.03496485 -0.09863387
v -0.02729039 -0.02738063 -0.09708666
v -0.02143910 -0.02056308 -0.09311796
v -0.02228915 -0.03495660 -0.09833002
v -0.02306492 -0.03404980 -0.09822190
v -0.02749672 -0.03014227 -0.09809763
v -0.02814044 -0.02907884 -0.09790811
v -0.01641310 -0.02480035 -0.09311796
v -0.01681749 -0.02446235 -0.09311796
v 0.02749223 -0.02761145 -0.09724759
v 0.02045252 -0.02145340 -0.09311796
v 0.02811119 -0.02909532 -0.09788326
v 0.02784710 -0.02964765 -0.09797398
v 0.02749223 -0.03020822 -0.09807774
v 0.02722813 -0.03071933 -0.09819146
v 0.02641110 -0.03160141 -0.09829212
v 0.02556931 -0.03244227 -0.09839340
v 0.02636983 -0.03242578 -0.09866742
v 0.02726940 -0.03162614 -0.09860342
v 0.02299441 -0.03494012 -0.09868669
v 0.02362163 -0.03464334 -0.09877492
v 0.02117052 -0.03637452 -0.09874882
v 0.02022969 -0.03712470 -0.09879543
v 0.02117052 -0.03637452 -0.09902782
v 0.01800967 -0.03799029 -0.09899302
v 0.01366040 -0.03967201 -0.09900732
v 0.01549254 -0.03888885 -0.09906075
v 0.01297541 -0.03979566 -0.09910301
v 0.01129182 -0.03999351 -0.09933540
v 0.01045003 -0.03999351 -0.09942425
v 0.01213362 -0.03915265 -0.09944103
v 0.00961649 -0.03999351 -0.09944600
v 0.00877469 -0.03999351 -0.09945470
v 0.00793290 -0.03999351 -0.09946091
v 0.01045003 -0.03915265 -0.09946526
v 0.01845532 -0.03790785 -0.09888553
v -0.01808843 -0.03663832 -0.09944973
v -0.01641310 -0.03747918 -0.09944227
v -0.01472951 -0.03832004 -0.09943357
v -0.01305417 -0.03915265 -0.09942425
v -0.01893023 -0.03663832 -0.09941555
v -0.01725489 -0.03747918 -0.09939256
v -0.01557130 -0.03832004 -0.09935777
v -0.01389597 -0.03915265 -0.09931241
v -0.01725489 -0.03810570 -0.09909555
v -0.01893023 -0.03732255 -0.09911668
v -0.02144735 -0.03634979 -0.09903776
v -0.01787386 -0.03798205 -0.09899737
v -0.01612425 -0.03878993 -0.09896133
v -0.02019292 -0.03705875 -0.09887310
v -0.01137059 -0.03915265 -0.09946526
v -0.01725489 -0.03663832 -0.09946402
v -0.01389597 -0.03832004 -0.09945781
v -0.01221238 -0.03915265 -0.09945408
v -0.02019292 -0.03705875 -0.09886440
v -0.01612425 -0.03878993 -0.09880723
v -0.01977202 -0.03714943 -0.09878424
v -0.02144735 -0.03634979 -0.09874572
v -0.02144735 -0.03579746 -0.09844125
v -0.02223963 -0.03577273 -0.09868917
v -0.01947492 -0.02223655 -0.09311796
v -0.01968949 -0.02205519 -0.09311796
v -0.02056430 -0.02131326 -0.09311796
v -0.02151338 -0.03497309 -0.09812745
v -0.02127404 -0.03470929 -0.09795968
v -0.02183524 -0.03451144 -0.09803984
v -0.02228915 -0.03390965 -0.09795471
v -0.02483104 -0.03163439 -0.09787083
v -0.02041574 -0.03301933 -0.09712581
v -0.01570335 -0.02524551 -0.09311796
v -0.02151338 -0.03418169 -0.09783479
v 0.02031222 -0.02160178 -0.09311796
v 0.02520618 -0.02703439 -0.09632921
v 0.02722813 -0.02992794 -0.09790314
v 0.02072487 -0.03521216 -0.09808831
v 0.02047728 -0.03573976 -0.09821382
v 0.02305218 -0.03411574 -0.09831573
v 0.02221038 -0.03495660 -0.09841950
v 0.02389397 -0.03414048 -0.09861772
v 0.02051854 -0.03664656 -0.09863760
v 0.01969325 -0.03663832 -0.09838532
v 0.01969325 -0.03723187 -0.09871403
v 0.01800967 -0.03799029 -0.09878051
v 0.01845532 -0.03790785 -0.09885632
v 0.01605373 -0.03878993 -0.09896009
v 0.01182001 -0.04045516 -0.09893896
v 0.01129182 -0.04054584 -0.09904211
v 0.01045003 -0.04070247 -0.09912538
v 0.00877469 -0.04083437 -0.09922977
v 0.00793290 -0.04083437 -0.09930682
v 0.00709111 -0.04083437 -0.09936150
v 0.00625757 -0.04083437 -0.09939381
v 0.00541577 -0.04083437 -0.09941120
v 0.00457398 -0.04083437 -0.09942239
v 0.00373218 -0.04083437 -0.09943171
v 0.00289864 -0.04083437 -0.09943979
v 0.00205685 -0.04083437 -0.09944724
v 0.00121506 -0.04083437 -0.09945408
v 0.00709111 -0.03999351 -0.09946464
v 0.00037326 -0.04083437 -0.09946029
v -0.00045203 -0.04083437 -0.09946464
v 0.00625757 -0.03999351 -0.09946526
v -0.01137059 -0.03999351 -0.09939816
v -0.01228666 -0.04007595 -0.09918503
v -0.01305417 -0.03987810 -0.09912538
v -0.01557130 -0.03889710 -0.09906386
v -0.01389597 -0.03969674 -0.09902099
v -0.01204732 -0.04051287 -0.09901353
v -0.01436638 -0.03959781 -0.09891287
v -0.00633633 -0.03999351 -0.09946526
v -0.00716987 -0.03999351 -0.09946154
v -0.00801166 -0.03999351 -0.09945346
v -0.00885346 -0.03999351 -0.09944352
v -0.00969525 -0.03999351 -0.09943233
v -0.01052879 -0.03999351 -0.09941866
v -0.01436638 -0.03959781 -0.09883954
v -0.01787386 -0.03798205 -0.09878051
v -0.01204732 -0.04051287 -0.09876622
v -0.01389597 -0.03969674 -0.09875814
v -0.01725489 -0.03810570 -0.09869290
v -0.01893023 -0.03732255 -0.09866680
v -0.01977202 -0.03663832 -0.09848723
v -0.01893023 -0.03663832 -0.09829523
v -0.02055604 -0.03572327 -0.09821382
v -0.02079538 -0.03526986 -0.09807402
v -0.02061381 -0.03411574 -0.09758748
v -0.01557130 -0.02531146 -0.09311796
v -0.01993708 -0.03357990 -0.09723579
v 0.01977578 -0.02212114 -0.09311796
v 0.02256526 -0.02439640 -0.09468693
v 0.01961073 -0.02226953 -0.09311796
v 0.02016367 -0.03541825 -0.09801436
v 0.01969325 -0.03555839 -0.09795471
v 0.01969325 -0.03597882 -0.09811938
v 0.01908254 -0.03614370 -0.09806221
v 0.01881845 -0.03657237 -0.09819767
v 0.01717613 -0.03747918 -0.09830765
v 0.01549254 -0.03832004 -0.09840086
v 0.01800967 -0.03747918 -0.09847977
v 0.01297541 -0.03979566 -0.09868607
v 0.01549254 -0.03888885 -0.09872832
v 0.01366040 -0.03967201 -0.09877181
v 0.01605373 -0.03878993 -0.09880848
v 0.01182001 -0.04045516 -0.09882277
v 0.00928637 -0.04126304 -0.09888988
v 0.00877469 -0.04129602 -0.09894145
v 0.00958348 -0.04090032 -0.09910425
v 0.00793290 -0.04133724 -0.09901229
v 0.00709111 -0.04137846 -0.09906324
v 0.00625757 -0.04141967 -0.09909493
v -0.00045203 -0.04167523 -0.09935652
v -0.00129382 -0.04083437 -0.09946402
v -0.01137059 -0.04058706 -0.09909928
v -0.00549454 -0.04083437 -0.09941058
v -0.00633633 -0.04083437 -0.09938138
v -0.00716987 -0.04083437 -0.09931738
v -0.00787137 -0.04129602 -0.09894456
v -0.00213561 -0.04083437 -0.09945781
v -0.00297741 -0.04083437 -0.09944849
v -0.00381095 -0.04083437 -0.09943792
v -0.00465274 -0.04083437 -0.09942550
v -0.00787137 -0.04129602 -0.09881904
v -0.01137059 -0.04058706 -0.09869849
v -0.01137059 -0.03999351 -0.09835177
v -0.01228666 -0.04007595 -0.09857422
v -0.01389597 -0.03915265 -0.09844932
v -0.01557130 -0.03832004 -0.09839464
v -0.01725489 -0.03747918 -0.09834307
v -0.01977202 -0.03592112 -0.09815107
v -0.01297990 -0.03907846 -0.09822190
v -0.01977202 -0.03550069 -0.09797832
v -0.02023418 -0.03539352 -0.09801996
v -0.00967875 -0.02810608 -0.09311796
v -0.02055604 -0.03497309 -0.09790997
v -0.01476252 -0.02570715 -0.09311796
v -0.01129631 -0.02734765 -0.09311796
v -0.01307893 -0.02650680 -0.09311796
v 0.01885146 -0.02281361 -0.09311796
v 0.01969325 -0.03495660 -0.09773040
v 0.01715962 -0.02400071 -0.09311796
v 0.01470026 -0.02569891 -0.09311796
v 0.01389148 -0.02624300 -0.09311796
v 0.01739070 -0.03277202 -0.09638140
v 0.01885146 -0.03495660 -0.09754150
v 0.01366040 -0.02639138 -0.09311796
v 0.01881845 -0.03583868 -0.09789009
v 0.01852135 -0.03625087 -0.09801312
v 0.01612801 -0.03714119 -0.09799324
v 0.01637560 -0.03744620 -0.09816225
v 0.01188603 -0.03880642 -0.09800007
v 0.01129182 -0.03934226 -0.09812932
v 0.01037575 -0.03991108 -0.09822066
v 0.01297541 -0.03915265 -0.09832878
v 0.01129182 -0.03999351 -0.09842509
v 0.01129182 -0.04054584 -0.09874385
v 0.00928637 -0.04126304 -0.09885384
v 0.00170198 -0.04210390 -0.09888304
v 0.00121506 -0.04212863 -0.09893275
v 0.00037326 -0.04216986 -0.09900607
v -0.00045203 -0.04221931 -0.09905889
v -0.00129382 -0.04167523 -0.09935031
v -0.00633633 -0.04140319 -0.09908250
v -0.00716987 -0.04134548 -0.09902223
v -0.00213561 -0.04215337 -0.09897687
v -0.00268856 -0.04211214 -0.09890790
v -0.00268856 -0.04211214 -0.09884265
v -0.00213561 -0.04215337 -0.09879729
v -0.00716987 -0.04134548 -0.09876560
v -0.00633633 -0.04140319 -0.09871651
v -0.00716987 -0.04083437 -0.09845181
v -0.01052879 -0.03999351 -0.09828715
v -0.01052879 -0.03907846 -0.09787828
v -0.01052879 -0.03832004 -0.09754709
v -0.01052879 -0.03727309 -0.09709474
v -0.01008314 -0.03369532 -0.09551148
v -0.01137059 -0.03940821 -0.09810073
v -0.01221238 -0.03925982 -0.09815728
v -0.00633633 -0.04083437 -0.09837663
v -0.01440765 -0.03794083 -0.09801064
v -0.01221238 -0.03832004 -0.09777079
v -0.01096620 -0.03538528 -0.09634536
v -0.00953845 -0.02815554 -0.09311796
v 0.01297541 -0.02670465 -0.09312045
v 0.01297541 -0.02669640 -0.09311796
v 0.01717613 -0.03579746 -0.09760364
v 0.01129182 -0.03892183 -0.09795161
v 0.01003738 -0.03958133 -0.09802679
v 0.00961649 -0.04005122 -0.09818400
v 0.01045003 -0.04070247 -0.09865375
v 0.00958348 -0.04090032 -0.09864816
v 0.00877469 -0.04129602 -0.09882152
v 0.00170198 -0.04210390 -0.09885819
v -0.00045203 -0.04221931 -0.09873826
v -0.00129382 -0.04221107 -0.09905330
v -0.00129382 -0.04221107 -0.09874261
v -0.00129382 -0.04167523 -0.09841826
v -0.00885346 -0.04005122 -0.09819083
v -0.00966224 -0.03991932 -0.09819083
v -0.00935688 -0.03958957 -0.09802182
v -0.00969525 -0.03832004 -0.09748434
v -0.00386047 -0.02933439 -0.09311796
v -0.00625380 -0.02890572 -0.09311796
v -0.00811070 -0.02855948 -0.09311796
v -0.00885346 -0.02839461 -0.09311796
v -0.01137059 -0.03832004 -0.09763719
v -0.01137059 -0.03898778 -0.09792116
v -0.00549454 -0.04083437 -0.09831635
v 0.01127532 -0.02731468 -0.09311796
v 0.01073063 -0.02751253 -0.09311796
v 0.00793290 -0.02851826 -0.09311796
v 0.00689304 -0.02888099 -0.09311796
v 0.00911306 -0.03788312 -0.09719353
v 0.00880771 -0.03825409 -0.09733210
v 0.00877469 -0.03915265 -0.09772667
v 0.00877469 -0.03970498 -0.09797087
v 0.00877469 -0.04012541 -0.09815728
v 0.00793290 -0.04083437 -0.09846300
v 0.00877469 -0.04083437 -0.09853072
v 0.00121506 -0.04212863 -0.09882712
v 0.00793290 -0.04133724 -0.09877368
v 0.00709111 -0.04137846 -0.09873453
v 0.00709111 -0.04083437 -0.09840459
v -0.00045203 -0.04167523 -0.09841142
v -0.00045203 -0.04104871 -0.09812062
v -0.00129382 -0.04104046 -0.09812373
v -0.00213561 -0.04098276 -0.09814796
v -0.00386047 -0.04077667 -0.09817281
v -0.00801166 -0.03969674 -0.09797646
v -0.00213561 -0.02962292 -0.09311796
v -0.00885346 -0.03832004 -0.09742530
v -0.00885346 -0.03784190 -0.09721404
v -0.00239145 -0.02958170 -0.09311796
v 0.00634835 -0.02903762 -0.09311796
v 0.00625757 -0.02906235 -0.09311796
v 0.00541577 -0.02920249 -0.09311796
v 0.00793290 -0.04017487 -0.09813677
v 0.00625757 -0.04083437 -0.09835674
v 0.00205685 -0.04091681 -0.09818027
v 0.00037326 -0.04100749 -0.09813926
v -0.00045203 -0.04062828 -0.09793483
v -0.00129382 -0.04062003 -0.09793731
v 0.00037326 -0.04058706 -0.09795223
v -0.00213561 -0.03832004 -0.09696860
v -0.00129382 -0.03925158 -0.09733272
v -0.00129382 -0.02969711 -0.09311796
v 0.00457398 -0.02927668 -0.09311796
v -0.00045203 -0.02967238 -0.09311796
v -0.00087292 -0.02968887 -0.09311796
f 1 2 3
f 1 3 4
f 1 4 24
f 1 24 5
f 1 5 33
f 1 33 6
f 1 6 7
f 1 7 8
f 1 8 9
f 1 9 10
f 1 10 11
f 1 11 2
f 2 12 3
f 2 11 13
f 2 13 14
f 2 14 15
f 2 15 12
f 3 12 16
f 3 16 17
f 3 17 18
f 3 18 19
f 3 19 20
f 3 20 21
f 3 21 22
f 3 22 4
f 4 23 50
f 4 50 24
f 4 22 25
f 4 25 23
f 5 24 26
f 5 26 27
f 5 27 28
f 5 28 29
f 5 29 30
f 5 30 31
f 5 31 32
f 5 32 33
f 6 33 76
f 6 76 34
f 6 34 8
f 6 8 7
f 8 34 35
f 8 35 36
f 8 36 9
f 9 36 37
f 9 37 10
f 10 37 11
f 11 37 38
f 11 38 13
f 12 39 42
f 12 42 16
f 12 15 40
f 12 40 39
f 13 38 41
f 13 41 14
f 14 41 40
f 14 40 15
f 16 42 17
f 17 42 43
f 17 43 44
f 17 44 45
f 17 45 18
f 18 45 19
f 19 45 20
f 20 45 46
f 20 46 47
f 20 47 21
f 21 47 48
f 21 48 22
f 22 48 25
f 23 49 103
f 23 103 50
f 23 25 51
f 23 51 49
f 24 50 52
f 24 52 53
f 24 53 26
f 25 48 51
f 26 54 55
f 26 55 56
f 26 56 57
f 26 57 27
f 26 53 58
f 26 58 59
f 26 59 60
f 26 60 54
f 27 57 61
f 27 61 62
f 27 62 63
f 27 63 64
f 27 64 65
f 27 65 66
f 27 66 67
f 27 67 68
f 27 68 69
f 27 69 70
f 27 70 71
f 27 71 28
f 28 71 72
f 28 72 29
f 29 72 30
f 30 72 73
f 30 73 74
f 30 74 75
f 30 75 31
f 31 75 32
f 32 75 33
f 33 75 76
f 34 76 121
f 34 121 77
f 34 77 78
f 34 78 79
f 34 79 35
f 35 80 36
f 35 79 80
f 36 80 37
f 37 80 38
f 38 80 81
f 38 81 40
f 38 40 41
f 39 82 83
f 39 83 84
f 39 84 85
f 39 85 42
f 39 40 86
f 39 86 82
f 40 81 87
f 40 87 88
f 40 88 89
f 40 89 131
f 40 131 186
f 40 186 185
f 40 185 184
f 40 184 189
f 40 189 244
f 40 244 289
f 40 289 339
f 40 339 380
f 40 380 379
f 40 379 378
f 40 378 377
f 40 377 428
f 40 428 484
f 40 484 479
f 40 479 535
f 40 535 534
f 40 534 593
f 40 593 650
f 40 650 648
f 40 648 647
f 40 647 694
f 40 694 693
f 40 693 692
f 40 692 691
f 40 691 690
f 40 690 689
f 40 689 719
f 40 719 744
f 40 744 784
f 40 784 783
f 40 783 782
f 40 782 781
f 40 781 780
f 40 780 779
f 40 779 778
f 40 778 777
f 40 777 827
f 40 827 877
f 40 877 876
f 40 876 929
f 40 929 980
f 40 980 1015
f 40 1015 1060
f 40 1060 1099
f 40 1099 1143
f 40 1143 1203
f 40 1203 1202
f 40 1202 1201
f 40 1201 1149
f 40 1149 1148
f 40 1148 1210
f 40 1210 1267
f 40 1267 1315
f 40 1315 1317
f 40 1317 1316
f 40 1316 1313
f 40 1313 1362
f 40 1362 1384
f 40 1384 1383
f 40 1383 1382
f 40 1382 1381
f 40 1381 1412
f 40 1412 1409
f 40 1409 1425
f 40 1425 1428
f 40 1428 1427
f 40 1427 1426
f 40 1426 1415
f 40 1415 1414
f 40 1414 1413
f 40 1413 1391
f 40 1391 1390
f 40 1390 1389
f 40 1389 1388
f 40 1388 1364
f 40 1364 1325
f 40 1325 1322
f 40 1322 1321
f 40 1321 1320
f 40 1320 1318
f 40 1318 1271
f 40 1271 1269
f 40 1269 1212
f 40 1212 1151
f 40 1151 1106
f 40 1106 1066
f 40 1066 1024
f 40 1024 984
f 40 984 983
f 40 983 940
f 40 940 888
f 40 888 932
f 40 932 893
f 40 893 839
f 40 839 793
f 40 793 752
f 40 752 725
f 40 725 702
f 40 702 701
f 40 701 700
f 40 700 699
f 40 699 698
f 40 698 697
f 40 697 657
f 40 657 651
f 40 651 599
f 40 599 598
f 40 598 597
f 40 597 596
f 40 596 541
f 40 541 495
f 40 495 494
f 40 494 485
f 40 485 433
f 40 433 383
f 40 383 341
f 40 341 294
f 40 294 293
f 40 293 249
f 40 249 248
f 40 248 245
f 40 245 192
f 40 192 143
f 40 143 190
f 40 190 137
f 40 137 136
f 40 136 135
f 40 135 134
f 40 134 132
f 40 132 90
f 40 90 84
f 40 84 83
f 40 83 82
f 40 82 86
f 42 85 90
f 42 90 43
f 43 90 44
f 44 90 45
f 45 91 46
f 45 90 92
f 45 92 93
f 45 93 94
f 45 94 91
f 46 94 47
f 46 91 94
f 47 94 95
f 47 95 96
f 47 96 97
f 47 97 98
f 47 98 99
f 47 99 100
f 47 100 101
f 47 101 102
f 47 102 48
f 48 102 51
f 49 51 104
f 49 104 103
f 50 103 104
f 50 104 52
f 51 102 151
f 51 151 104
f 52 104 105
f 52 105 53
f 53 105 58
f 54 60 106
f 54 106 107
f 54 107 55
f 55 107 108
f 55 108 56
f 56 108 109
f 56 109 57
f 57 109 110
f 57 110 61
f 58 105 111
f 58 111 59
f 59 111 60
f 60 111 106
f 61 110 112
f 61 112 62
f 62 112 113
f 62 113 114
f 62 114 115
f 62 115 63
f 63 115 116
f 63 116 64
f 64 116 65
f 65 116 66
f 66 116 67
f 67 116 117
f 67 117 68
f 68 117 69
f 69 117 70
f 70 117 118
f 70 118 71
f 71 118 72
f 72 118 73
f 73 118 119
f 73 119 74
f 74 119 75
f 75 119 76
f 76 119 120
f 76 120 121
f 77 121 174
f 77 174 122
f 77 122 123
f 77 123 124
f 77 124 78
f 78 124 125
f 78 125 126
f 78 126 127
f 78 127 79
f 79 128 80
f 79 127 128
f 80 128 129
f 80 129 130
f 80 130 88
f 80 88 81
f 81 88 87
f 84 90 85
f 88 130 89
f 89 130 131
f 90 132 133
f 90 133 92
f 92 133 93
f 93 133 132
f 93 132 134
f 93 134 94
f 94 134 95
f 95 134 135
f 95 135 136
f 95 136 96
f 96 136 97
f 97 136 137
f 97 137 138
f 97 138 139
f 97 139 140
f 97 140 98
f 98 140 99
f 99 141 142
f 99 142 100
f 99 140 139
f 99 139 138
f 99 138 143
f 99 143 141
f 100 144 101
f 100 142 145
f 100 145 146
f 100 146 147
f 100 147 148
f 100 148 149
f 100 149 144
f 101 144 150
f 101 150 102
f 102 150 152
f 102 152 153
f 102 153 154
f 102 154 201
f 102 201 151
f 104 151 105
f 105 151 111
f 106 111 155
f 106 155 107
f 107 155 156
f 107 156 108
f 108 156 109
f 109 156 110
f 110 156 112
f 111 151 157
f 111 157 158
f 111 158 159
f 111 159 160
f 111 160 161
f 111 161 155
f 112 156 217
f 112 217 261
f 112 261 308
f 112 308 354
f 112 354 395
f 112 395 448
f 112 448 451
f 112 451 500
f 112 500 502
f 112 502 560
f 112 560 615
f 112 615 662
f 112 662 704
f 112 704 727
f 112 727 758
f 112 758 799
f 112 799 845
f 112 845 901
f 112 901 950
f 112 950 995
f 112 995 1038
f 112 1038 1082
f 112 1082 1129
f 112 1129 1175
f 112 1175 1242
f 112 1242 1250
f 112 1250 1191
f 112 1191 1136
f 112 1136 1092
f 112 1092 1048
f 112 1048 1004
f 112 1004 1003
f 112 1003 959
f 112 959 909
f 112 909 860
f 112 860 812
f 112 812 768
f 112 768 735
f 112 735 708
f 112 708 667
f 112 667 624
f 112 624 569
f 112 569 514
f 112 514 458
f 112 458 407
f 112 407 362
f 112 362 316
f 112 316 267
f 112 267 222
f 112 222 162
f 112 162 113
f 113 162 114
f 114 162 115
f 115 162 163
f 115 163 116
f 116 163 117
f 117 163 164
f 117 164 165
f 117 165 118
f 118 165 166
f 118 166 167
f 118 167 168
f 118 168 169
f 118 169 119
f 119 169 120
f 120 169 170
f 120 170 171
f 120 171 172
f 120 172 121
f 121 172 173
f 121 173 174
f 122 174 231
f 122 231 175
f 122 175 176
f 122 176 123
f 123 176 124
f 124 176 177
f 124 177 125
f 125 177 126
f 126 177 178
f 126 178 179
f 126 179 127
f 127 179 180
f 127 180 128
f 128 180 181
f 128 181 182
f 128 182 183
f 128 183 129
f 129 184 185
f 129 185 186
f 129 186 130
f 129 183 187
f 129 187 188
f 129 188 189
f 129 189 184
f 130 186 131
f 137 190 138
f 138 190 143
f 141 143 142
f 142 143 191
f 142 191 146
f 142 146 145
f 143 192 193
f 143 193 194
f 143 194 195
f 143 195 196
f 143 196 191
f 144 149 150
f 146 196 195
f 146 195 197
f 146 197 147
f 146 191 196
f 147 197 198
f 147 198 199
f 147 199 148
f 148 199 149
f 149 199 200
f 149 200 150
f 150 200 152
f 151 201 202
f 151 202 203
f 151 203 204
f 151 204 205
f 151 205 157
f 152 200 206
f 152 206 153
f 153 206 207
f 153 207 208
f 153 208 209
f 153 209 154
f 154 209 255
f 154 255 201
f 155 161 210
f 155 210 211
f 155 211 212
f 155 212 213
f 155 213 214
f 155 214 156
f 156 214 215
f 156 215 216
f 156 216 217
f 157 205 218
f 157 218 158
f 158 218 159
f 159 218 219
f 159 219 160
f 160 220 161
f 160 219 220
f 161 220 221
f 161 221 210
f 162 222 163
f 163 222 223
f 163 223 164
f 164 223 224
f 164 224 225
f 164 225 165
f 165 225 166
f 166 225 226
f 166 226 167
f 167 226 227
f 167 227 168
f 168 227 228
f 168 228 169
f 169 228 170
f 170 228 229
f 170 229 171
f 171 229 172
f 172 229 230
f 172 230 173
f 173 230 174
f 174 230 231
f 175 231 276
f 175 276 232
f 175 232 233
f 175 233 234
f 175 234 235
f 175 235 177
f 175 177 176
f 177 235 178
f 178 235 179
f 179 235 181
f 179 181 180
f 181 235 236
f 181 236 237
f 181 237 238
f 181 238 182
f 182 238 239
f 182 239 240
f 182 240 241
f 182 241 183
f 183 241 187
f 187 241 240
f 187 240 189
f 187 189 188
f 189 240 239
f 189 239 242
f 189 242 237
f 189 237 243
f 189 243 244
f 192 245 193
f 193 245 194
f 194 246 247
f 194 247 198
f 194 198 197
f 194 197 195
f 194 245 248
f 194 248 249
f 194 249 246
f 198 208 250
f 198 250 199
f 198 247 251
f 198 251 252
f 198 252 253
f 198 253 208
f 199 254 200
f 199 250 254
f 200 254 250
f 200 250 206
f 201 255 202
f 202 255 256
f 202 256 203
f 203 205 204
f 203 256 257
f 203 257 205
f 205 257 218
f 206 250 207
f 207 250 208
f 208 256 255
f 208 255 209
f 208 253 258
f 208 258 259
f 208 259 298
f 208 298 256
f 210 221 211
f 211 221 212
f 212 221 213
f 213 217 216
f 213 216 215
f 213 215 214
f 213 221 260
f 213 260 261
f 213 261 217
f 218 257 262
f 218 262 219
f 219 221 220
f 219 262 257
f 219 257 263
f 219 263 264
f 219 264 265
f 219 265 221
f 221 265 266
f 221 266 260
f 222 267 223
f 223 267 268
f 223 268 224
f 224 268 226
f 224 226 225
f 226 268 269
f 226 269 227
f 227 269 270
f 227 270 271
f 227 271 272
f 227 272 229
f 227 229 273
f 227 273 228
f 228 273 229
f 229 272 231
f 229 231 230
f 231 272 274
f 231 274 275
f 231 275 276
f 232 277 233
f 232 276 329
f 232 329 278
f 232 278 279
f 232 279 277
f 233 277 280
f 233 280 234
f 234 281 235
f 234 280 282
f 234 282 283
f 234 283 281
f 235 281 284
f 235 284 285
f 235 285 236
f 236 285 237
f 237 242 238
f 237 285 286
f 237 286 287
f 237 287 243
f 238 242 239
f 243 287 286
f 243 286 288
f 243 288 244
f 244 288 290
f 244 290 289
f 246 249 247
f 247 291 292
f 247 292 252
f 247 252 251
f 247 249 293
f 247 293 294
f 247 294 291
f 252 295 253
f 252 292 296
f 252 296 297
f 252 297 295
f 253 295 258
f 256 298 299
f 256 299 263
f 256 263 257
f 258 295 300
f 258 300 301
f 258 301 259
f 259 301 302
f 259 302 347
f 259 347 298
f 260 303 261
f 260 266 304
f 260 304 305
f 260 305 352
f 260 352 306
f 260 306 351
f 260 351 303
f 261 303 307
f 261 307 308
f 263 299 264
f 264 299 309
f 264 309 310
f 264 310 311
f 264 311 312
f 264 312 265
f 265 312 313
f 265 313 314
f 265 314 266
f 266 314 315
f 266 315 304
f 267 316 268
f 268 316 317
f 268 317 318
f 268 318 363
f 268 363 319
f 268 319 320
f 268 320 269
f 269 320 321
f 269 321 322
f 269 322 323
f 269 323 270
f 270 323 324
f 270 324 271
f 271 324 325
f 271 325 272
f 272 325 326
f 272 326 274
f 274 326 275
f 275 326 327
f 275 327 328
f 275 328 276
f 276 328 329
f 277 279 330
f 277 330 280
f 278 329 369
f 278 369 331
f 278 331 332
f 278 332 330
f 278 330 279
f 280 330 333
f 280 333 282
f 281 334 288
f 281 288 284
f 281 283 335
f 281 335 336
f 281 336 337
f 281 337 334
f 282 338 283
f 282 333 338
f 283 338 335
f 284 288 286
f 284 286 285
f 288 334 290
f 289 290 339
f 290 334 339
f 291 340 292
f 291 294 340
f 292 340 296
f 294 341 342
f 294 342 343
f 294 343 340
f 295 297 344
f 295 344 300
f 296 340 343
f 296 343 297
f 297 343 345
f 297 345 344
f 298 346 299
f 298 347 346
f 299 346 309
f 300 344 348
f 300 348 302
f 300 302 301
f 302 349 350
f 302 350 390
f 302 390 347
f 302 348 345
f 302 345 349
f 303 351 353
f 303 353 307
f 304 315 352
f 304 352 305
f 306 352 351
f 307 353 308
f 308 353 354
f 309 346 310
f 310 346 355
f 310 355 356
f 310 356 311
f 311 357 352
f 311 352 315
f 311 315 314
f 311 314 313
f 311 313 312
f 311 356 347
f 311 347 358
f 311 358 359
f 311 359 360
f 311 360 361
f 311 361 357
f 316 362 317
f 317 362 363
f 317 363 318
f 319 363 322
f 319 322 320
f 320 322 321
f 322 363 364
f 322 364 323
f 323 364 365
f 323 365 324
f 324 365 366
f 324 366 325
f 325 366 367
f 325 367 326
f 326 367 327
f 327 367 366
f 327 366 368
f 327 368 329
f 327 329 328
f 329 368 369
f 330 370 333
f 330 332 371
f 330 371 370
f 331 369 417
f 331 417 372
f 331 372 373
f 331 373 374
f 331 374 375
f 331 375 332
f 332 375 371
f 333 370 371
f 333 371 338
f 334 337 376
f 334 376 377
f 334 377 378
f 334 378 379
f 334 379 380
f 334 380 339
f 335 338 336
f 336 338 371
f 336 371 381
f 336 381 382
f 336 382 337
f 337 382 377
f 337 377 376
f 341 383 384
f 341 384 385
f 341 385 342
f 342 385 386
f 342 386 343
f 343 386 345
f 344 345 348
f 345 387 388
f 345 388 349
f 345 386 389
f 345 389 387
f 346 347 356
f 346 356 355
f 347 390 358
f 349 388 391
f 349 391 350
f 350 391 392
f 350 392 393
f 350 393 394
f 350 394 443
f 350 443 390
f 351 352 353
f 352 357 353
f 353 357 354
f 354 357 395
f 357 361 396
f 357 396 397
f 357 397 398
f 357 398 399
f 357 399 395
f 358 390 400
f 358 400 401
f 358 401 359
f 359 401 402
f 359 402 360
f 360 402 403
f 360 403 404
f 360 404 405
f 360 405 361
f 361 405 406
f 361 406 396
f 362 407 363
f 363 407 408
f 363 408 409
f 363 409 364
f 364 368 365
f 364 409 410
f 364 410 411
f 364 411 412
f 364 412 413
f 364 413 414
f 364 414 415
f 364 415 369
f 364 369 368
f 365 368 366
f 369 415 416
f 369 416 417
f 371 375 418
f 371 418 381
f 372 417 469
f 372 469 419
f 372 419 420
f 372 420 373
f 373 420 421
f 373 421 422
f 373 422 374
f 374 422 375
f 375 423 424
f 375 424 418
f 375 422 425
f 375 425 426
f 375 426 427
f 375 427 423
f 377 382 429
f 377 429 430
f 377 430 428
f 381 431 382
f 381 418 431
f 382 431 432
f 382 432 429
f 383 433 384
f 384 433 434
f 384 434 385
f 385 434 389
f 385 389 386
f 387 435 436
f 387 436 388
f 387 389 437
f 387 437 435
f 388 436 438
f 388 438 439
f 388 439 440
f 388 440 441
f 388 441 391
f 389 434 442
f 389 442 437
f 390 443 444
f 390 444 400
f 391 441 440
f 391 440 392
f 392 440 393
f 393 440 445
f 393 445 394
f 394 446 447
f 394 447 496
f 394 496 443
f 394 445 446
f 395 399 448
f 396 406 397
f 397 406 449
f 397 449 398
f 398 449 450
f 398 450 399
f 399 450 451
f 399 451 448
f 400 452 401
f 400 444 453
f 400 453 452
f 401 452 402
f 402 454 455
f 402 455 403
f 402 452 454
f 403 455 456
f 403 456 404
f 404 456 457
f 404 457 449
f 404 449 406
f 404 406 405
f 407 458 459
f 407 459 408
f 408 459 515
f 408 515 460
f 408 460 409
f 409 460 461
f 409 461 462
f 409 462 463
f 409 463 410
f 410 463 464
f 410 464 411
f 411 464 465
f 411 465 412
f 412 465 413
f 413 465 466
f 413 466 414
f 414 466 467
f 414 467 416
f 414 416 415
f 416 467 468
f 416 468 417
f 417 468 469
f 418 424 432
f 418 432 431
f 419 469 520
f 419 520 470
f 419 470 471
f 419 471 472
f 419 472 473
f 419 473 474
f 419 474 475
f 419 475 476
f 419 476 420
f 420 476 477
f 420 477 421
f 421 477 422
f 422 477 425
f 423 478 424
f 423 427 478
f 424 430 429
f 424 429 432
f 424 478 479
f 424 479 430
f 425 477 480
f 425 480 426
f 426 480 481
f 426 481 427
f 427 481 537
f 427 537 482
f 427 482 483
f 427 483 478
f 428 430 484
f 430 479 484
f 433 485 434
f 434 485 442
f 435 437 486
f 435 486 487
f 435 487 436
f 436 487 438
f 437 442 488
f 437 488 486
f 438 489 439
f 438 487 490
f 438 490 489
f 439 489 440
f 440 489 491
f 440 491 492
f 440 492 493
f 440 493 445
f 442 485 494
f 442 494 495
f 442 495 488
f 443 496 453
f 443 453 444
f 445 493 492
f 445 492 446
f 446 492 447
f 447 497 498
f 447 498 545
f 447 545 496
f 447 492 499
f 447 499 497
f 449 500 451
f 449 451 450
f 449 457 501
f 449 501 502
f 449 502 500
f 452 453 503
f 452 503 504
f 452 504 454
f 453 496 505
f 453 505 504
f 453 504 503
f 454 504 455
f 455 504 456
f 456 504 506
f 456 506 507
f 456 507 508
f 456 508 509
f 456 509 510
f 456 510 457
f 457 510 511
f 457 511 512
f 457 512 513
f 457 513 501
f 458 514 459
f 459 514 515
f 460 515 461
f 461 515 516
f 461 516 462
f 462 516 463
f 463 516 464
f 464 516 517
f 464 517 465
f 465 517 518
f 465 518 466
f 466 518 519
f 466 519 468
f 466 468 467
f 468 519 469
f 469 519 521
f 469 521 522
f 469 522 523
f 469 523 520
f 470 520 580
f 470 580 524
f 470 524 471
f 471 524 525
f 471 525 472
f 472 525 526
f 472 526 527
f 472 527 474
f 472 474 473
f 474 527 528
f 474 528 475
f 475 529 530
f 475 530 531
f 475 531 532
f 475 532 480
f 475 480 476
f 475 528 533
f 475 533 529
f 476 480 477
f 478 483 534
f 478 534 535
f 478 535 479
f 480 532 531
f 480 531 536
f 480 536 537
f 480 537 481
f 482 537 538
f 482 538 483
f 483 538 539
f 483 539 534
f 486 488 487
f 487 540 490
f 487 488 541
f 487 541 540
f 488 495 541
f 489 490 491
f 490 540 542
f 490 542 543
f 490 543 544
f 490 544 499
f 490 499 492
f 490 492 491
f 496 545 546
f 496 546 547
f 496 547 506
f 496 506 504
f 496 504 505
f 497 499 548
f 497 548 549
f 497 549 550
f 497 550 551
f 497 551 552
f 497 552 498
f 498 552 551
f 498 551 553
f 498 553 601
f 498 601 545
f 499 544 554
f 499 554 555
f 499 555 556
f 499 556 548
f 501 513 557
f 501 557 558
f 501 558 559
f 501 559 502
f 502 559 560
f 506 547 546
f 506 546 561
f 506 561 562
f 506 562 563
f 506 563 564
f 506 564 507
f 507 564 508
f 508 564 509
f 509 564 511
f 509 511 510
f 511 564 565
f 511 565 566
f 511 566 567
f 511 567 568
f 511 568 512
f 512 558 557
f 512 557 513
f 512 568 558
f 514 569 570
f 514 570 516
f 514 516 515
f 516 570 517
f 517 570 571
f 517 571 572
f 517 572 573
f 517 573 574
f 517 574 518
f 518 575 521
f 518 521 519
f 518 574 576
f 518 576 577
f 518 577 578
f 518 578 579
f 518 579 575
f 520 523 580
f 521 575 579
f 521 579 581
f 521 581 522
f 522 581 582
f 522 582 523
f 523 582 580
f 524 580 582
f 524 582 525
f 525 582 632
f 525 632 583
f 525 583 584
f 525 584 585
f 525 585 586
f 525 586 587
f 525 587 588
f 525 588 526
f 526 588 587
f 526 587 527
f 527 587 528
f 528 587 589
f 528 589 533
f 529 590 530
f 529 533 590
f 530 590 591
f 530 591 592
f 530 592 531
f 531 539 536
f 531 592 593
f 531 593 534
f 531 534 539
f 533 594 590
f 533 589 595
f 533 595 594
f 536 539 537
f 537 539 538
f 540 541 542
f 541 596 542
f 542 596 597
f 542 597 598
f 542 598 599
f 542 599 543
f 543 600 544
f 543 599 600
f 544 600 554
f 545 601 546
f 546 601 561
f 548 556 602
f 548 602 603
f 548 603 549
f 549 603 604
f 549 604 550
f 550 604 553
f 550 553 551
f 553 604 605
f 553 605 653
f 553 653 601
f 554 606 555
f 554 600 607
f 554 607 608
f 554 608 606
f 555 606 609
f 555 609 556
f 556 610 611
f 556 611 612
f 556 612 613
f 556 613 603
f 556 603 602
f 556 609 614
f 556 614 610
f 558 615 560
f 558 560 559
f 558 568 616
f 558 616 615
f 561 601 617
f 561 617 562
f 562 617 563
f 563 617 564
f 564 617 618
f 564 618 619
f 564 619 565
f 565 619 566
f 566 619 620
f 566 620 567
f 567 620 621
f 567 621 568
f 568 621 622
f 568 622 616
f 569 623 570
f 569 624 623
f 570 623 625
f 570 625 626
f 570 626 627
f 570 627 571
f 571 627 572
f 572 627 573
f 573 627 628
f 573 628 576
f 573 576 574
f 576 628 577
f 577 628 578
f 578 628 629
f 578 629 630
f 578 630 579
f 579 630 581
f 581 630 582
f 582 630 629
f 582 629 628
f 582 628 631
f 582 631 632
f 583 632 679
f 583 679 633
f 583 633 634
f 583 634 635
f 583 635 584
f 584 635 636
f 584 636 637
f 584 637 585
f 585 638 639
f 585 639 595
f 585 595 586
f 585 637 640
f 585 640 641
f 585 641 642
f 585 642 643
f 585 643 644
f 585 644 645
f 585 645 638
f 586 595 587
f 587 595 589
f 590 594 646
f 590 646 647
f 590 647 648
f 590 648 591
f 591 649 592
f 591 648 650
f 591 650 593
f 591 593 649
f 592 649 593
f 594 595 646
f 595 639 646
f 599 651 607
f 599 607 652
f 599 652 600
f 600 652 607
f 601 653 617
f 603 612 605
f 603 605 654
f 603 654 604
f 603 613 612
f 604 654 605
f 605 655 619
f 605 619 653
f 605 612 655
f 606 614 609
f 606 608 656
f 606 656 614
f 607 656 608
f 607 651 657
f 607 657 656
f 610 658 659
f 610 659 612
f 610 612 611
f 610 614 658
f 612 660 655
f 612 659 658
f 612 658 661
f 612 661 660
f 614 656 657
f 614 657 658
f 615 616 662
f 616 622 663
f 616 663 664
f 616 664 662
f 617 653 618
f 618 653 619
f 619 655 695
f 619 695 665
f 619 665 620
f 620 665 666
f 620 666 664
f 620 664 663
f 620 663 622
f 620 622 621
f 623 624 625
f 624 667 668
f 624 668 669
f 624 669 670
f 624 670 671
f 624 671 627
f 624 627 626
f 624 626 625
f 627 671 672
f 627 672 628
f 628 672 673
f 628 673 674
f 628 674 675
f 628 675 631
f 631 675 676
f 631 676 677
f 631 677 632
f 632 677 678
f 632 678 679
f 633 679 678
f 633 678 634
f 634 678 713
f 634 713 680
f 634 680 635
f 635 680 636
f 636 680 681
f 636 681 637
f 637 681 640
f 638 682 639
f 638 645 682
f 639 682 647
f 639 647 646
f 640 681 683
f 640 683 684
f 640 684 641
f 641 684 685
f 641 685 686
f 641 686 642
f 642 686 687
f 642 687 688
f 642 688 689
f 642 689 690
f 642 690 691
f 642 691 692
f 642 692 693
f 642 693 643
f 643 693 644
f 644 693 645
f 645 693 694
f 645 694 682
f 647 682 694
f 655 660 696
f 655 696 697
f 655 697 698
f 655 698 699
f 655 699 700
f 655 700 701
f 655 701 702
f 655 702 695
f 657 697 660
f 657 660 661
f 657 661 703
f 657 703 658
f 658 703 661
f 660 697 696
f 662 664 704
f 664 666 705
f 664 705 704
f 665 695 724
f 665 724 706
f 665 706 707
f 665 707 666
f 666 707 728
f 666 728 705
f 667 708 709
f 667 709 710
f 667 710 668
f 668 710 711
f 668 711 669
f 669 711 670
f 670 711 671
f 671 711 672
f 672 711 673
f 673 711 712
f 673 712 674
f 674 712 675
f 675 712 676
f 676 712 713
f 676 713 677
f 677 713 678
f 680 713 740
f 680 740 714
f 680 714 681
f 681 714 715
f 681 715 716
f 681 716 717
f 681 717 683
f 683 718 687
f 683 687 685
f 683 685 684
f 683 717 689
f 683 689 718
f 685 687 686
f 687 718 689
f 687 689 688
f 689 717 719
f 695 720 721
f 695 721 722
f 695 722 723
f 695 723 724
f 695 702 725
f 695 725 720
f 704 705 726
f 704 726 727
f 705 728 726
f 706 724 748
f 706 748 729
f 706 729 707
f 707 729 730
f 707 730 731
f 707 731 732
f 707 732 733
f 707 733 728
f 708 734 709
f 708 735 734
f 709 736 737
f 709 737 738
f 709 738 710
f 709 734 736
f 710 738 712
f 710 712 711
f 712 738 739
f 712 739 740
f 712 740 713
f 714 740 739
f 714 739 715
f 715 741 742
f 715 742 716
f 715 739 770
f 715 770 743
f 715 743 744
f 715 744 741
f 716 742 717
f 717 742 741
f 717 741 745
f 717 745 719
f 719 745 744
f 720 746 721
f 720 725 746
f 721 747 722
f 721 746 747
f 722 747 723
f 723 748 724
f 723 747 749
f 723 749 750
f 723 750 751
f 723 751 748
f 725 752 746
f 726 728 753
f 726 753 727
f 727 753 754
f 727 754 760
f 727 760 755
f 727 755 756
f 727 756 757
f 727 757 758
f 728 733 759
f 728 759 760
f 728 760 754
f 728 754 753
f 729 748 785
f 729 785 761
f 729 761 762
f 729 762 730
f 730 762 763
f 730 763 731
f 731 763 764
f 731 764 732
f 732 764 733
f 733 764 759
f 734 765 766
f 734 766 736
f 734 735 767
f 734 767 765
f 735 768 767
f 736 766 737
f 737 769 770
f 737 770 739
f 737 739 738
f 737 766 771
f 737 771 772
f 737 772 769
f 741 744 745
f 743 770 814
f 743 814 773
f 743 773 774
f 743 774 775
f 743 775 776
f 743 776 777
f 743 777 778
f 743 778 779
f 743 779 780
f 743 780 781
f 743 781 782
f 743 782 783
f 743 783 784
f 743 784 744
f 746 749 747
f 746 752 749
f 748 751 786
f 748 786 785
f 749 787 788
f 749 788 789
f 749 789 750
f 749 752 787
f 750 789 788
f 750 788 790
f 750 790 791
f 750 791 751
f 751 791 792
f 751 792 786
f 752 793 787
f 755 760 759
f 755 759 764
f 755 764 794
f 755 794 795
f 755 795 796
f 755 796 797
f 755 797 798
f 755 798 756
f 756 798 757
f 757 798 758
f 758 798 799
f 761 785 828
f 761 828 800
f 761 800 801
f 761 801 762
f 762 801 763
f 763 802 764
f 763 801 802
f 764 802 803
f 764 803 804
f 764 804 805
f 764 805 806
f 764 806 794
f 765 807 772
f 765 772 771
f 765 771 766
f 765 767 808
f 765 808 807
f 767 768 809
f 767 809 810
f 767 810 811
f 767 811 808
f 768 812 809
f 769 772 807
f 769 807 813
f 769 813 770
f 770 813 815
f 770 815 816
f 770 816 814
f 773 817 818
f 773 818 819
f 773 819 820
f 773 820 774
f 773 814 862
f 773 862 817
f 774 820 821
f 774 821 822
f 774 822 823
f 774 823 824
f 774 824 825
f 774 825 775
f 775 825 826
f 775 826 827
f 775 827 777
f 775 777 776
f 785 786 829
f 785 829 830
f 785 830 828
f 786 792 829
f 787 831 832
f 787 832 790
f 787 790 788
f 787 793 831
f 790 832 791
f 791 833 834
f 791 834 835
f 791 835 836
f 791 836 792
f 791 832 837
f 791 837 838
f 791 838 833
f 792 836 830
f 792 830 829
f 793 839 831
f 794 806 840
f 794 840 841
f 794 841 795
f 795 841 796
f 796 841 797
f 797 841 798
f 798 841 842
f 798 842 799
f 799 842 843
f 799 843 844
f 799 844 845
f 800 828 830
f 800 830 801
f 801 830 836
f 801 836 802
f 802 846 804
f 802 804 803
f 802 836 889
f 802 889 847
f 802 847 848
f 802 848 849
f 802 849 850
f 802 850 846
f 804 850 851
f 804 851 852
f 804 852 853
f 804 853 805
f 804 846 850
f 805 853 806
f 806 853 840
f 807 815 813
f 807 808 854
f 807 854 855
f 807 855 856
f 807 856 857
f 807 857 815
f 808 811 858
f 808 858 855
f 808 855 854
f 809 812 810
f 810 812 859
f 810 859 855
f 810 855 858
f 810 858 811
f 812 860 859
f 814 816 861
f 814 861 862
f 815 863 861
f 815 861 816
f 815 857 864
f 815 864 865
f 815 865 866
f 815 866 863
f 817 862 917
f 817 917 867
f 817 867 868
f 817 868 869
f 817 869 818
f 818 820 819
f 818 869 870
f 818 870 871
f 818 871 820
f 820 871 872
f 820 872 822
f 820 822 821
f 822 872 871
f 822 871 873
f 822 873 874
f 822 874 875
f 822 875 823
f 823 875 824
f 824 875 826
f 824 826 825
f 826 876 877
f 826 877 827
f 826 875 878
f 826 878 879
f 826 879 876
f 831 837 832
f 831 839 837
f 833 880 834
f 833 838 881
f 833 881 880
f 834 882 883
f 834 883 884
f 834 884 885
f 834 885 886
f 834 886 835
f 834 880 887
f 834 887 888
f 834 888 882
f 835 886 836
f 836 886 890
f 836 890 891
f 836 891 892
f 836 892 889
f 837 839 893
f 837 893 838
f 838 893 881
f 840 853 841
f 841 853 894
f 841 894 895
f 841 895 842
f 842 895 896
f 842 896 897
f 842 897 898
f 842 898 843
f 843 898 899
f 843 899 900
f 843 900 844
f 844 900 901
f 844 901 845
f 847 889 941
f 847 941 902
f 847 902 848
f 848 902 903
f 848 903 849
f 849 903 904
f 849 904 850
f 850 904 851
f 851 904 852
f 852 904 853
f 853 904 905
f 853 905 906
f 853 906 894
f 855 859 907
f 855 907 908
f 855 908 856
f 856 908 857
f 857 908 864
f 859 860 909
f 859 909 910
f 859 910 911
f 859 911 912
f 859 912 913
f 859 913 907
f 861 863 914
f 861 914 915
f 861 915 862
f 862 915 916
f 862 916 917
f 863 866 914
f 864 908 865
f 865 908 866
f 866 908 918
f 866 918 919
f 866 919 920
f 866 920 915
f 866 915 914
f 867 921 922
f 867 922 868
f 867 917 919
f 867 919 921
f 868 922 869
f 869 922 923
f 869 923 870
f 870 923 871
f 871 923 873
f 873 923 921
f 873 921 924
f 873 924 925
f 873 925 926
f 873 926 927
f 873 927 874
f 874 927 875
f 875 927 928
f 875 928 878
f 876 879 930
f 876 930 929
f 878 928 879
f 879 928 927
f 879 927 931
f 879 931 930
f 880 881 887
f 881 893 932
f 881 932 887
f 882 933 934
f 882 934 935
f 882 935 883
f 882 888 933
f 883 935 936
f 883 936 937
f 883 937 884
f 884 937 886
f 884 886 885
f 886 938 890
f 886 937 939
f 886 939 938
f 887 932 888
f 888 940 933
f 889 892 941
f 890 938 891
f 891 938 939
f 891 939 942
f 891 942 943
f 891 943 892
f 892 943 941
f 894 906 944
f 894 944 945
f 894 945 946
f 894 946 895
f 895 946 947
f 895 947 896
f 896 947 948
f 896 948 897
f 897 948 898
f 898 948 899
f 899 948 900
f 900 948 949
f 900 949 901
f 901 949 950
f 902 941 943
f 902 943 903
f 903 943 989
f 903 989 951
f 903 951 952
f 903 952 905
f 903 905 904
f 905 952 906
f 906 952 953
f 906 953 954
f 906 954 944
f 907 913 955
f 907 955 956
f 907 956 957
f 907 957 908
f 908 957 958
f 908 958 918
f 909 959 960
f 909 960 910
f 910 960 911
f 911 960 961
f 911 961 912
f 912 961 962
f 912 962 913
f 913 962 963
f 913 963 955
f 915 920 916
f 916 920 917
f 917 920 919
f 918 958 964
f 918 964 965
f 918 965 966
f 918 966 967
f 918 967 968
f 918 968 919
f 919 968 967
f 919 967 969
f 919 969 970
f 919 970 921
f 921 923 922
f 921 970 971
f 921 971 924
f 924 971 972
f 924 972 973
f 924 973 974
f 924 974 925
f 925 975 976
f 925 976 926
f 925 974 977
f 925 977 978
f 925 978 979
f 925 979 975
f 926 976 931
f 926 931 927
f 929 930 976
f 929 976 975
f 929 975 980
f 930 931 976
f 933 981 982
f 933 982 934
f 933 940 983
f 933 983 984
f 933 984 981
f 934 936 935
f 934 982 936
f 936 982 985
f 936 985 986
f 936 986 987
f 936 987 943
f 936 943 942
f 936 942 937
f 937 942 939
f 943 987 988
f 943 988 989
f 944 954 990
f 944 990 945
f 945 990 946
f 946 990 947
f 947 990 948
f 948 990 949
f 949 990 991
f 949 991 992
f 949 992 993
f 949 993 994
f 949 994 950
f 950 994 995
f 951 989 1031
f 951 1031 996
f 951 996 997
f 951 997 952
f 952 997 953
f 953 997 954
f 954 997 998
f 954 998 999
f 954 999 990
f 955 963 956
f 956 963 1000
f 956 1000 1001
f 956 1001 1002
f 956 1002 957
f 957 1002 958
f 958 1002 964
f 959 1003 960
f 960 1003 961
f 961 1003 1004
f 961 1004 1005
f 961 1005 1006
f 961 1006 1000
f 961 1000 963
f 961 963 962
f 964 1002 965
f 965 1007 1008
f 965 1008 967
f 965 967 966
f 965 1002 1007
f 967 1008 1009
f 967 1009 969
f 969 1009 1010
f 969 1010 1011
f 969 1011 970
f 970 1011 1012
f 970 1012 972
f 970 972 971
f 972 1012 1013
f 972 1013 973
f 973 1013 1014
f 973 1014 974
f 974 1014 977
f 975 979 1015
f 975 1015 980
f 977 1014 1016
f 977 1016 1017
f 977 1017 978
f 978 1018 1019
f 978 1019 1020
f 978 1020 979
f 978 1017 1021
f 978 1021 1018
f 979 1020 1015
f 981 984 982
f 982 1022 1023
f 982 1023 986
f 982 986 985
f 982 984 1024
f 982 1024 1022
f 986 1025 987
f 986 1023 1026
f 986 1026 1027
f 986 1027 1028
f 986 1028 1029
f 986 1029 1025
f 987 1025 988
f 988 1025 1030
f 988 1030 989
f 989 1030 1031
f 990 1032 1033
f 990 1033 1034
f 990 1034 991
f 990 999 996
f 990 996 1032
f 991 1035 992
f 991 1034 1036
f 991 1036 1035
f 992 1035 1037
f 992 1037 993
f 993 1037 994
f 994 1037 1038
f 994 1038 995
f 996 999 998
f 996 998 997
f 996 1031 1074
f 996 1074 1039
f 996 1039 1032
f 1000 1006 1040
f 1000 1040 1041
f 1000 1041 1042
f 1000 1042 1043
f 1000 1043 1044
f 1000 1044 1045
f 1000 1045 1046
f 1000 1046 1047
f 1000 1047 1001
f 1001 1047 1007
f 1001 1007 1002
f 1004 1048 1005
f 1005 1049 1006
f 1005 1048 1050
f 1005 1050 1093
f 1005 1093 1049
f 1006 1049 1051
f 1006 1051 1052
f 1006 1052 1040
f 1007 1047 1008
f 1008 1047 1053
f 1008 1053 1010
f 1008 1010 1009
f 1010 1053 1047
f 1010 1047 1046
f 1010 1046 1054
f 1010 1054 1011
f 1011 1054 1055
f 1011 1055 1056
f 1011 1056 1057
f 1011 1057 1012
f 1012 1057 1013
f 1013 1057 1056
f 1013 1056 1058
f 1013 1058 1021
f 1013 1021 1016
f 1013 1016 1014
f 1015 1059 1060
f 1015 1020 1059
f 1016 1021 1017
f 1018 1021 1061
f 1018 1061 1062
f 1018 1062 1063
f 1018 1063 1019
f 1019 1063 1020
f 1020 1063 1059
f 1021 1055 1061
f 1021 1058 1056
f 1021 1056 1055
f 1022 1064 1065
f 1022 1065 1026
f 1022 1026 1023
f 1022 1024 1066
f 1022 1066 1064
f 1025 1029 1067
f 1025 1067 1068
f 1025 1068 1030
f 1026 1065 1069
f 1026 1069 1027
f 1027 1069 1064
f 1027 1064 1070
f 1027 1070 1071
f 1027 1071 1028
f 1028 1067 1029
f 1028 1071 1067
f 1030 1068 1067
f 1030 1067 1072
f 1030 1072 1031
f 1031 1072 1071
f 1031 1071 1073
f 1031 1073 1074
f 1032 1039 1075
f 1032 1075 1076
f 1032 1076 1033
f 1033 1076 1077
f 1033 1077 1034
f 1034 1077 1078
f 1034 1078 1036
f 1035 1036 1037
f 1036 1079 1080
f 1036 1080 1037
f 1036 1078 1079
f 1037 1080 1081
f 1037 1081 1082
f 1037 1082 1038
f 1039 1074 1113
f 1039 1113 1083
f 1039 1083 1084
f 1039 1084 1075
f 1040 1052 1085
f 1040 1085 1086
f 1040 1086 1041
f 1041 1086 1087
f 1041 1087 1042
f 1042 1087 1043
f 1043 1087 1088
f 1043 1088 1044
f 1044 1088 1089
f 1044 1089 1090
f 1044 1090 1045
f 1045 1090 1046
f 1046 1090 1091
f 1046 1091 1096
f 1046 1096 1054
f 1048 1092 1050
f 1049 1093 1094
f 1049 1094 1051
f 1050 1092 1093
f 1051 1094 1052
f 1052 1094 1085
f 1054 1095 1061
f 1054 1061 1055
f 1054 1096 1097
f 1054 1097 1095
f 1059 1063 1098
f 1059 1098 1099
f 1059 1099 1060
f 1061 1095 1100
f 1061 1100 1101
f 1061 1101 1102
f 1061 1102 1103
f 1061 1103 1062
f 1062 1103 1104
f 1062 1104 1098
f 1062 1098 1063
f 1064 1069 1065
f 1064 1066 1105
f 1064 1105 1070
f 1066 1106 1107
f 1066 1107 1105
f 1067 1071 1072
f 1070 1105 1107
f 1070 1107 1108
f 1070 1108 1071
f 1071 1108 1109
f 1071 1109 1110
f 1071 1110 1073
f 1073 1110 1111
f 1073 1111 1074
f 1074 1111 1112
f 1074 1112 1113
f 1075 1084 1114
f 1075 1114 1115
f 1075 1115 1116
f 1075 1116 1076
f 1076 1116 1117
f 1076 1117 1077
f 1077 1117 1118
f 1077 1118 1078
f 1078 1118 1079
f 1079 1118 1119
f 1079 1119 1120
f 1079 1120 1121
f 1079 1121 1122
f 1079 1122 1123
f 1079 1123 1124
f 1079 1124 1080
f 1080 1124 1125
f 1080 1125 1126
f 1080 1126 1081
f 1081 1126 1127
f 1081 1127 1128
f 1081 1128 1129
f 1081 1129 1082
f 1083 1114 1084
f 1083 1113 1163
f 1083 1163 1130
f 1083 1130 1114
f 1085 1094 1086
f 1086 1094 1131
f 1086 1131 1087
f 1087 1131 1132
f 1087 1132 1088
f 1088 1132 1133
f 1088 1133 1134
f 1088 1134 1090
f 1088 1090 1089
f 1090 1134 1091
f 1091 1134 1135
f 1091 1135 1139
f 1091 1139 1096
f 1092 1094 1093
f 1092 1136 1137
f 1092 1137 1094
f 1094 1137 1131
f 1095 1097 1138
f 1095 1138 1100
f 1096 1139 1140
f 1096 1140 1097
f 1097 1140 1141
f 1097 1141 1138
f 1098 1104 1142
f 1098 1142 1143
f 1098 1143 1099
f 1100 1138 1141
f 1100 1141 1101
f 1101 1141 1144
f 1101 1144 1145
f 1101 1145 1102
f 1102 1146 1103
f 1102 1145 1146
f 1103 1146 1147
f 1103 1147 1104
f 1104 1147 1148
f 1104 1148 1149
f 1104 1149 1142
f 1106 1150 1107
f 1106 1151 1150
f 1107 1150 1152
f 1107 1152 1108
f 1108 1152 1153
f 1108 1153 1109
f 1109 1153 1154
f 1109 1154 1155
f 1109 1155 1110
f 1110 1155 1156
f 1110 1156 1157
f 1110 1157 1158
f 1110 1158 1159
f 1110 1159 1111
f 1111 1159 1158
f 1111 1158 1160
f 1111 1160 1161
f 1111 1161 1112
f 1112 1161 1113
f 1113 1161 1162
f 1113 1162 1163
f 1114 1130 1164
f 1114 1164 1115
f 1115 1117 1116
f 1115 1164 1119
f 1115 1119 1117
f 1117 1119 1118
f 1119 1130 1120
f 1119 1164 1130
f 1120 1130 1165
f 1120 1165 1166
f 1120 1166 1167
f 1120 1167 1168
f 1120 1168 1122
f 1120 1122 1121
f 1122 1168 1169
f 1122 1169 1123
f 1123 1169 1170
f 1123 1170 1124
f 1124 1170 1125
f 1125 1171 1126
f 1125 1170 1171
f 1126 1171 1127
f 1127 1171 1172
f 1127 1172 1128
f 1128 1172 1173
f 1128 1173 1174
f 1128 1174 1175
f 1128 1175 1129
f 1130 1163 1224
f 1130 1224 1176
f 1130 1176 1165
f 1131 1137 1177
f 1131 1177 1178
f 1131 1178 1179
f 1131 1179 1180
f 1131 1180 1181
f 1131 1181 1132
f 1132 1181 1182
f 1132 1182 1183
f 1132 1183 1184
f 1132 1184 1185
f 1132 1185 1186
f 1132 1186 1187
f 1132 1187 1133
f 1133 1187 1135
f 1133 1135 1134
f 1135 1187 1188
f 1135 1188 1189
f 1135 1189 1190
f 1135 1190 1195
f 1135 1195 1139
f 1136 1191 1192
f 1136 1192 1137
f 1137 1192 1193
f 1137 1193 1194
f 1137 1194 1177
f 1139 1195 1196
f 1139 1196 1197
f 1139 1197 1198
f 1139 1198 1199
f 1139 1199 1200
f 1139 1200 1140
f 1140 1200 1141
f 1141 1200 1144
f 1142 1149 1201
f 1142 1201 1202
f 1142 1202 1203
f 1142 1203 1143
f 1144 1200 1199
f 1144 1199 1204
f 1144 1204 1205
f 1144 1205 1206
f 1144 1206 1145
f 1145 1206 1207
f 1145 1207 1208
f 1145 1208 1146
f 1146 1208 1148
f 1146 1148 1147
f 1148 1209 1210
f 1148 1208 1207
f 1148 1207 1206
f 1148 1206 1211
f 1148 1211 1209
f 1150 1151 1152
f 1151 1212 1213
f 1151 1213 1152
f 1152 1213 1153
f 1153 1214 1154
f 1153 1213 1214
f 1154 1214 1155
f 1155 1214 1156
f 1156 1214 1215
f 1156 1215 1216
f 1156 1216 1217
f 1156 1217 1157
f 1157 1217 1218
f 1157 1218 1219
f 1157 1219 1158
f 1158 1219 1160
f 1160 1162 1161
f 1160 1219 1220
f 1160 1220 1162
f 1162 1220 1163
f 1163 1220 1221
f 1163 1221 1222
f 1163 1222 1223
f 1163 1223 1224
f 1165 1225 1166
f 1165 1176 1225
f 1166 1226 1227
f 1166 1227 1167
f 1166 1225 1226
f 1167 1227 1168
f 1168 1227 1169
f 1169 1227 1228
f 1169 1228 1170
f 1170 1228 1229
f 1170 1229 1230
f 1170 1230 1231
f 1170 1231 1232
f 1170 1232 1172
f 1170 1172 1171
f 1172 1232 1233
f 1172 1233 1234
f 1172 1234 1235
f 1172 1235 1173
f 1173 1235 1236
f 1173 1236 1237
f 1173 1237 1238
f 1173 1238 1240
f 1173 1240 1174
f 1174 1239 1175
f 1174 1240 1241
f 1174 1241 1239
f 1175 1239 1242
f 1176 1224 1284
f 1176 1284 1226
f 1176 1226 1225
f 1177 1194 1178
f 1178 1194 1179
f 1179 1194 1180
f 1180 1194 1243
f 1180 1243 1182
f 1180 1182 1181
f 1182 1243 1183
f 1183 1243 1184
f 1184 1243 1244
f 1184 1244 1245
f 1184 1245 1185
f 1185 1245 1246
f 1185 1246 1187
f 1185 1187 1186
f 1187 1246 1188
f 1188 1246 1247
f 1188 1247 1189
f 1189 1247 1248
f 1189 1248 1249
f 1189 1249 1190
f 1190 1249 1256
f 1190 1256 1195
f 1191 1194 1193
f 1191 1193 1192
f 1191 1250 1251
f 1191 1251 1252
f 1191 1252 1253
f 1191 1253 1254
f 1191 1254 1194
f 1194 1254 1255
f 1194 1255 1243
f 1195 1256 1196
f 1196 1257 1197
f 1196 1256 1258
f 1196 1258 1259
f 1196 1259 1257
f 1197 1257 1198
f 1198 1257 1259
f 1198 1259 1260
f 1198 1260 1261
f 1198 1261 1262
f 1198 1262 1199
f 1199 1262 1263
f 1199 1263 1264
f 1199 1264 1265
f 1199 1265 1205
f 1199 1205 1204
f 1205 1211 1206
f 1205 1265 1266
f 1205 1266 1210
f 1205 1210 1209
f 1205 1209 1211
f 1210 1266 1268
f 1210 1268 1267
f 1212 1269 1270
f 1212 1270 1213
f 1213 1270 1269
f 1213 1269 1271
f 1213 1271 1214
f 1214 1271 1215
f 1215 1271 1272
f 1215 1272 1216
f 1216 1272 1273
f 1216 1273 1274
f 1216 1274 1221
f 1216 1221 1220
f 1216 1220 1218
f 1216 1218 1217
f 1218 1220 1219
f 1221 1274 1275
f 1221 1275 1276
f 1221 1276 1277
f 1221 1277 1278
f 1221 1278 1279
f 1221 1279 1222
f 1222 1279 1280
f 1222 1280 1281
f 1222 1281 1282
f 1222 1282 1223
f 1223 1283 1224
f 1223 1282 1283
f 1224 1283 1284
f 1226 1284 1336
f 1226 1336 1285
f 1226 1285 1227
f 1227 1285 1228
f 1228 1285 1286
f 1228 1286 1287
f 1228 1287 1229
f 1229 1287 1288
f 1229 1288 1230
f 1230 1288 1289
f 1230 1289 1290
f 1230 1290 1231
f 1231 1290 1291
f 1231 1291 1232
f 1232 1291 1233
f 1233 1291 1234
f 1234 1291 1235
f 1235 1291 1236
f 1236 1291 1237
f 1237 1291 1238
f 1238 1291 1240
f 1239 1241 1242
f 1240 1291 1241
f 1241 1291 1292
f 1241 1292 1250
f 1241 1250 1242
f 1243 1293 1248
f 1243 1248 1244
f 1243 1255 1294
f 1243 1294 1295
f 1243 1295 1296
f 1243 1296 1293
f 1244 1248 1245
f 1245 1248 1246
f 1246 1248 1247
f 1248 1293 1297
f 1248 1297 1302
f 1248 1302 1258
f 1248 1258 1256
f 1248 1256 1249
f 1250 1292 1251
f 1251 1292 1298
f 1251 1298 1252
f 1252 1298 1299
f 1252 1299 1253
f 1253 1299 1300
f 1253 1300 1254
f 1254 1300 1301
f 1254 1301 1255
f 1255 1301 1294
f 1258 1302 1303
f 1258 1303 1304
f 1258 1304 1305
f 1258 1305 1259
f 1259 1305 1306
f 1259 1306 1262
f 1259 1262 1260
f 1260 1262 1261
f 1262 1306 1307
f 1262 1307 1308
f 1262 1308 1263
f 1263 1309 1264
f 1263 1308 1310
f 1263 1310 1309
f 1264 1309 1311
f 1264 1311 1312
f 1264 1312 1265
f 1265 1312 1313
f 1265 1313 1314
f 1265 1314 1268
f 1265 1268 1266
f 1267 1268 1315
f 1268 1314 1313
f 1268 1313 1316
f 1268 1316 1317
f 1268 1317 1315
f 1271 1318 1272
f 1272 1319 1273
f 1272 1318 1320
f 1272 1320 1321
f 1272 1321 1322
f 1272 1322 1319
f 1273 1323 1324
f 1273 1324 1274
f 1273 1319 1325
f 1273 1325 1323
f 1274 1324 1275
f 1275 1326 1276
f 1275 1324 1323
f 1275 1323 1326
f 1276 1326 1327
f 1276 1327 1277
f 1277 1327 1328
f 1277 1328 1329
f 1277 1329 1330
f 1277 1330 1331
f 1277 1331 1332
f 1277 1332 1333
f 1277 1333 1278
f 1278 1333 1334
f 1278 1334 1280
f 1278 1280 1279
f 1280 1334 1335
f 1280 1335 1281
f 1281 1335 1282
f 1282 1335 1284
f 1282 1284 1283
f 1284 1335 1336
f 1285 1336 1372
f 1285 1372 1337
f 1285 1337 1286
f 1286 1288 1287
f 1286 1337 1338
f 1286 1338 1339
f 1286 1339 1288
f 1288 1339 1340
f 1288 1340 1289
f 1289 1340 1290
f 1290 1340 1291
f 1291 1340 1341
f 1291 1341 1298
f 1291 1298 1292
f 1293 1296 1342
f 1293 1342 1343
f 1293 1343 1297
f 1294 1301 1341
f 1294 1341 1295
f 1295 1341 1296
f 1296 1341 1342
f 1297 1343 1344
f 1297 1344 1345
f 1297 1345 1346
f 1297 1346 1302
f 1298 1341 1299
f 1299 1341 1300
f 1300 1341 1301
f 1302 1346 1347
f 1302 1347 1348
f 1302 1348 1303
f 1303 1348 1349
f 1303 1349 1350
f 1303 1350 1304
f 1304 1351 1352
f 1304 1352 1353
f 1304 1353 1354
f 1304 1354 1355
f 1304 1355 1356
f 1304 1356 1357
f 1304 1357 1305
f 1304 1350 1358
f 1304 1358 1351
f 1305 1357 1310
f 1305 1310 1306
f 1306 1310 1307
f 1307 1310 1308
f 1309 1310 1359
f 1309 1359 1311
f 1310 1357 1359
f 1311 1359 1313
f 1311 1313 1312
f 1313 1359 1360
f 1313 1360 1357
f 1313 1357 1361
f 1313 1361 1362
f 1319 1322 1325
f 1323 1325 1363
f 1323 1363 1326
f 1325 1364 1363
f 1326 1363 1327
f 1327 1365 1328
f 1327 1363 1365
f 1328 1365 1363
f 1328 1363 1366
f 1328 1366 1330
f 1328 1330 1329
f 1330 1366 1331
f 1331 1366 1332
f 1332 1367 1368
f 1332 1368 1369
f 1332 1369 1334
f 1332 1334 1333
f 1332 1366 1367
f 1334 1369 1335
f 1335 1369 1336
f 1336 1369 1370
f 1336 1370 1371
f 1336 1371 1372
f 1337 1372 1373
f 1337 1373 1340
f 1337 1340 1338
f 1338 1340 1339
f 1340 1373 1375
f 1340 1375 1374
f 1340 1374 1341
f 1341 1374 1342
f 1342 1374 1343
f 1343 1374 1344
f 1344 1374 1375
f 1344 1375 1347
f 1344 1347 1346
f 1344 1346 1345
f 1347 1375 1348
f 1348 1375 1349
f 1349 1375 1376
f 1349 1376 1350
f 1350 1376 1358
f 1351 1358 1377
f 1351 1377 1378
f 1351 1378 1352
f 1352 1378 1377
f 1352 1377 1379
f 1352 1379 1380
f 1352 1380 1381
f 1352 1381 1353
f 1353 1381 1382
f 1353 1382 1383
f 1353 1383 1354
f 1354 1383 1355
f 1355 1383 1384
f 1355 1384 1361
f 1355 1361 1385
f 1355 1385 1386
f 1355 1386 1356
f 1356 1386 1357
f 1357 1360 1359
f 1357 1386 1385
f 1357 1385 1361
f 1358 1376 1387
f 1358 1387 1377
f 1361 1384 1362
f 1363 1364 1388
f 1363 1388 1389
f 1363 1389 1367
f 1363 1367 1366
f 1367 1390 1391
f 1367 1391 1392
f 1367 1392 1368
f 1367 1389 1390
f 1368 1370 1369
f 1368 1392 1393
f 1368 1393 1394
f 1368 1394 1395
f 1368 1395 1396
f 1368 1396 1397
f 1368 1397 1398
f 1368 1398 1370
f 1370 1398 1371
f 1371 1399 1372
f 1371 1398 1400
f 1371 1400 1373
f 1371 1373 1399
f 1372 1399 1373
f 1373 1400 1401
f 1373 1401 1402
f 1373 1402 1403
f 1373 1403 1376
f 1373 1376 1375
f 1376 1403 1404
f 1376 1404 1405
f 1376 1405 1406
f 1376 1406 1387
f 1377 1387 1407
f 1377 1407 1408
f 1377 1408 1409
f 1377 1409 1410
f 1377 1410 1379
f 1379 1410 1380
f 1380 1410 1411
f 1380 1411 1412
f 1380 1412 1381
f 1387 1406 1407
f 1391 1413 1392
f 1392 1413 1414
f 1392 1414 1393
f 1393 1414 1415
f 1393 1415 1394
f 1394 1415 1395
f 1395 1415 1396
f 1396 1415 1416
f 1396 1416 1417
f 1396 1417 1402
f 1396 1402 1397
f 1397 1402 1401
f 1397 1401 1400
f 1397 1400 1398
f 1402 1417 1403
f 1403 1417 1418
f 1403 1418 1419
f 1403 1419 1404
f 1404 1420 1421
f 1404 1421 1405
f 1404 1419 1422
f 1404 1422 1415
f 1404 1415 1420
f 1405 1421 1406
f 1406 1421 1423
f 1406 1423 1407
f 1407 1423 1409
f 1407 1409 1408
f 1409 1423 1421
f 1409 1421 1424
f 1409 1424 1425
f 1409 1412 1411
f 1409 1411 1410
f 1415 1422 1419
f 1415 1419 1418
f 1415 1418 1416
f 1415 1426 1420
f 1416 1418 1417
f 1420 1427 1428
f 1420 1428 1425
f 1420 1425 1424
f 1420 1424 1421
f 1420 1426 1427

