# https://github.com/mikedh/trimesh
v -0.00004924 -0.00328853 -0.03819004
v -0.00197349 -0.00237195 -0.03827159
v -0.00216279 -0.00237195 -0.03823664
v -0.00133853 -0.00303860 -0.03818421
v -0.00045988 -0.00329186 -0.03818810
v -0.00004924 -0.00373020 -0.03819004
v -0.00004924 -0.00323256 -0.03849876
v -0.00004924 -0.00317493 -0.03882302
v -0.00186468 -0.00237195 -0.03880748
v -0.00282979 -0.00237195 -0.03826770
v -0.00129978 -0.00365760 -0.03818421
v -0.00212329 -0.00302198 -0.03822887
v -0.00045988 -0.00373241 -0.03818810
v -0.00004924 -0.00432204 -0.03917445
v -0.00185723 -0.00237195 -0.03889486
v -0.00004924 -0.00652704 -0.05801816
v -0.00614469 -0.00237195 -0.05801622
v -0.00264124 -0.00272329 -0.03830654
v -0.00183264 -0.00355674 -0.03828130
v -0.00314205 -0.00237195 -0.03882302
v -0.00129978 -0.00389811 -0.03882302
v -0.00008352 -0.00432204 -0.03917445
v -0.00040175 -0.00412088 -0.03886573
v -0.00004924 -0.00803325 -0.05801816
v -0.00646366 -0.00237195 -0.05801816
v -0.00236624 -0.00325251 -0.03882302
v -0.00273738 -0.00283301 -0.03882302
v -0.00194592 -0.00364541 -0.03882302
v -0.00402965 -0.00237195 -0.04212382
v -0.00422118 -0.00261578 -0.04348103
v -0.00510133 -0.00349690 -0.04922832
v -0.00589130 -0.00427715 -0.05443194
v -0.00180730 -0.00435086 -0.04156268
v -0.00188108 -0.00520038 -0.04571587
v -0.00172756 -0.00599117 -0.04930792
v -0.00175737 -0.00684070 -0.05346111
v -0.00178718 -0.00768967 -0.05761430
v -0.00129605 -0.00788474 -0.05801816
v -0.00097932 -0.00768745 -0.05678910
v -0.00045988 -0.00798892 -0.05801816
v -0.00766278 -0.00237195 -0.05801816
v -0.00259056 -0.00433866 -0.04332376
v -0.00595092 -0.00518099 -0.05761042
v -0.00601203 -0.00523973 -0.05801816
v -0.00337383 -0.00597399 -0.05187867
v -0.00259131 -0.00516990 -0.04670223
v -0.00426814 -0.00237195 -0.04302281
v -0.00507003 -0.00262354 -0.04681679
v -0.00592409 -0.00348138 -0.05264950
v -0.00606718 -0.00375015 -0.05393876
v -0.00691305 -0.00387539 -0.05801816
v -0.00596508 -0.00436859 -0.05499308
v -0.00215235 -0.00525691 -0.04640710
v -0.00297884 -0.00707511 -0.05645708
v -0.00217024 -0.00611419 -0.05057582
v -0.00186916 -0.00603606 -0.04973897
v -0.00191983 -0.00773123 -0.05801816
v -0.00604706 -0.00237195 -0.05066708
v -0.00696075 -0.00310566 -0.05643960
v -0.00689218 -0.00288954 -0.05561829
v -0.00681617 -0.00274324 -0.05493288
v -0.00556190 -0.00565701 -0.05801816
v -0.00605079 -0.00518819 -0.05801816
v -0.00520716 -0.00598175 -0.05801816
v -0.00513859 -0.00604437 -0.05801816
v -0.00508568 -0.00609258 -0.05801816
v -0.00462437 -0.00651042 -0.05801816
v -0.00425621 -0.00684125 -0.05801816
v -0.00341705 -0.00683737 -0.05599497
v -0.00492545 -0.00237195 -0.04564209
v -0.00509761 -0.00237195 -0.04638186
v -0.00594496 -0.00268339 -0.05087484
v -0.00600607 -0.00279976 -0.05141850
v -0.00679530 -0.00354234 -0.05670755
v -0.00686088 -0.00366813 -0.05729781
v -0.00687057 -0.00395131 -0.05801816
v -0.00670289 -0.00424169 -0.05801816
v -0.00649869 -0.00455977 -0.05801816
v -0.00641447 -0.00468612 -0.05801816
v -0.00296990 -0.00691606 -0.05567654
v -0.00297884 -0.00736216 -0.05801816
v -0.00387017 -0.00703687 -0.05801816
v -0.00351468 -0.00688558 -0.05645708
f 1 2 3
f 1 3 4
f 1 4 5
f 1 5 13
f 1 13 6
f 1 6 14
f 1 14 24
f 1 24 16
f 1 16 8
f 1 8 7
f 1 7 2
f 2 7 8
f 2 8 9
f 2 9 15
f 2 15 17
f 2 17 25
f 2 25 41
f 2 41 58
f 2 58 71
f 2 71 70
f 2 70 47
f 2 47 29
f 2 29 20
f 2 20 10
f 2 10 3
f 3 10 4
f 4 11 5
f 4 10 12
f 4 12 11
f 5 11 13
f 6 13 14
f 8 15 9
f 8 16 17
f 8 17 15
f 10 18 19
f 10 19 12
f 10 20 18
f 11 12 19
f 11 19 21
f 11 21 22
f 11 22 23
f 11 23 13
f 13 23 22
f 13 22 14
f 14 22 24
f 16 24 40
f 16 40 38
f 16 38 57
f 16 57 81
f 16 81 82
f 16 82 68
f 16 68 67
f 16 67 66
f 16 66 65
f 16 65 64
f 16 64 62
f 16 62 44
f 16 44 63
f 16 63 79
f 16 79 78
f 16 78 77
f 16 77 76
f 16 76 51
f 16 51 41
f 16 41 25
f 16 25 17
f 18 26 19
f 18 20 27
f 18 27 26
f 19 26 28
f 19 28 21
f 20 29 30
f 20 30 31
f 20 31 32
f 20 32 27
f 21 28 33
f 21 33 22
f 22 33 34
f 22 34 35
f 22 35 36
f 22 36 37
f 22 37 38
f 22 38 39
f 22 39 40
f 22 40 24
f 26 42 28
f 26 27 32
f 26 32 43
f 26 43 44
f 26 44 42
f 28 42 45
f 28 45 46
f 28 46 33
f 29 47 30
f 30 47 31
f 31 47 48
f 31 48 32
f 32 49 50
f 32 50 51
f 32 51 52
f 32 52 44
f 32 44 43
f 32 48 49
f 33 46 53
f 33 53 34
f 34 53 54
f 34 54 55
f 34 55 56
f 34 56 35
f 35 56 36
f 36 54 37
f 36 56 55
f 36 55 54
f 37 54 57
f 37 57 38
f 38 40 39
f 41 51 59
f 41 59 60
f 41 60 61
f 41 61 58
f 42 44 62
f 42 62 45
f 44 52 63
f 45 62 64
f 45 64 65
f 45 65 66
f 45 66 67
f 45 67 68
f 45 68 69
f 45 69 46
f 46 69 53
f 47 70 48
f 48 70 71
f 48 71 72
f 48 72 73
f 48 73 49
f 49 73 51
f 49 51 50
f 51 74 75
f 51 75 60
f 51 60 59
f 51 76 52
f 51 73 74
f 52 76 77
f 52 77 78
f 52 78 79
f 52 79 63
f 53 69 80
f 53 80 54
f 54 80 69
f 54 69 81
f 54 81 57
f 58 61 71
f 60 75 61
f 61 73 72
f 61 72 71
f 61 75 74
f 61 74 73
f 68 82 69
f 69 82 83
f 69 83 81
f 81 83 82

