# https://github.com/mikedh/trimesh
v 0.02532807 -0.02381422 0.08084384
v 0.02532807 -0.02381422 0.08079767
v 0.00009618 -0.03471151 0.08113009
v 0.02499711 -0.02396261 0.08112855
v 0.02532807 -0.02383515 0.08119781
v 0.02532807 -0.02405583 0.08031290
v 0.00009618 -0.04108856 0.06562957
v 0.00009618 -0.03471151 0.08102236
v 0.00009618 -0.03532601 0.08119165
v 0.02532807 -0.02397403 0.08126091
v 0.02532807 -0.02426700 0.07992200
v 0.00009618 -0.04279316 0.06562957
v 0.02532807 -0.03227446 0.06562957
v 0.00009618 -0.03598616 0.08116548
v 0.00055557 -0.03600899 0.08119473
v 0.00175098 -0.03606987 0.08125936
v 0.00294391 -0.03613075 0.08131323
v 0.00294391 -0.03556191 0.08131323
v 0.02532807 -0.02462086 0.08130092
v 0.00652765 -0.03441663 0.08135017
v 0.00344776 -0.04309375 0.06562957
v 0.00009618 -0.04211208 0.06725472
v 0.02532807 -0.03438809 0.06562957
v 0.00009618 -0.03628865 0.08053605
v 0.00055557 -0.03635143 0.08049757
v 0.00175098 -0.03644465 0.08049757
v 0.00294391 -0.03652646 0.08049757
v 0.00413931 -0.03723227 0.07894629
v 0.00413931 -0.03646178 0.08049757
v 0.00413931 -0.03607748 0.08125474
v 0.00652765 -0.03505966 0.08135017
v 0.02532807 -0.02488911 0.08131015
v 0.01010891 -0.03321047 0.08134708
v 0.01368771 -0.03199860 0.08134401
v 0.00373673 -0.04311849 0.06562957
v 0.00009618 -0.04101246 0.06978941
v 0.00055557 -0.04213111 0.06729935
v 0.02532807 -0.03081718 0.07182855
v 0.02435989 -0.03522898 0.06562957
v 0.00009618 -0.03736544 0.07815218
v 0.00081985 -0.03715808 0.07878162
v 0.00175098 -0.03719993 0.07888165
v 0.00294391 -0.03725130 0.07899862
v 0.00483581 -0.03953996 0.07399388
v 0.00486544 -0.03836233 0.07640699
v 0.00486297 -0.03716759 0.07879239
v 0.00485803 -0.03597284 0.08114702
v 0.00772058 -0.03488273 0.08124244
v 0.01368771 -0.03264354 0.08134401
v 0.01010891 -0.03384970 0.08134708
v 0.01727145 -0.03143357 0.08133785
v 0.02060326 -0.02905550 0.08129476
v 0.02532807 -0.02517258 0.08125783
v 0.00510749 -0.04323073 0.06562957
v 0.00405040 -0.03975113 0.07344908
v 0.00009618 -0.03962176 0.07299201
v 0.02532807 -0.03012849 0.07302279
v 0.02532807 -0.02853422 0.07576985
v 0.02304841 -0.03632099 0.06562957
v 0.00009618 -0.03850692 0.07555901
v 0.00047407 -0.03737306 0.07821990
v 0.00438877 -0.03953996 0.07399388
v 0.00533224 -0.04318317 0.06578039
v 0.00609049 -0.04322693 0.06562957
v 0.00622880 -0.04316985 0.06574807
v 0.00624855 -0.04200745 0.06818118
v 0.00624361 -0.04081461 0.07056659
v 0.00841460 -0.04074041 0.06922307
v 0.00623374 -0.03603563 0.08010975
v 0.00528779 -0.03616309 0.08050373
v 0.01548082 -0.03235056 0.08109469
v 0.01194154 -0.03355672 0.08111316
v 0.01488312 -0.03245329 0.08120242
v 0.01804945 -0.03127757 0.08122397
v 0.01932636 -0.03018176 0.08126706
v 0.02523175 -0.02535141 0.08123936
v 0.02532807 -0.02531146 0.08118857
v 0.00533224 -0.04324785 0.06562957
v 0.02532807 -0.02712069 0.07819989
v 0.02398942 -0.03128138 0.07295353
v 0.02159120 -0.03604704 0.06816425
v 0.02233215 -0.03690886 0.06562957
v 0.01962521 -0.03053181 0.08044987
v 0.01936834 -0.03141074 0.07930333
v 0.00629301 -0.04320790 0.06562957
v 0.00664373 -0.04310136 0.06562957
v 0.00694999 -0.04300624 0.06562957
v 0.00714264 -0.04294346 0.06562957
v 0.00772058 -0.04205311 0.06707466
v 0.00977549 -0.03482756 0.08008205
v 0.01684417 -0.03241334 0.08002665
v 0.01595750 -0.03250846 0.08045294
v 0.00884436 -0.03494551 0.08048680
v 0.01627857 -0.03220026 0.08082230
v 0.01725416 -0.03203094 0.08045294
v 0.01763946 -0.03224402 0.07972501
v 0.01807909 -0.03245710 0.07892936
v 0.01890155 -0.03346540 0.07619307
v 0.01926955 -0.03367277 0.07539742
v 0.01887685 -0.03223641 0.07851230
v 0.01920534 -0.03246090 0.07771665
v 0.01884474 -0.03097698 0.08078844
v 0.02012412 -0.02985073 0.08090540
v 0.02267793 -0.02760202 0.08112394
v 0.02395484 -0.02647576 0.08118857
v 0.02532807 -0.02580229 0.08046526
v 0.02532807 -0.02660323 0.07908942
v 0.02167024 -0.03727983 0.06588811
v 0.02203824 -0.03713905 0.06562957
v 0.01912630 -0.03120908 0.07999279
v 0.02043778 -0.03487132 0.07180238
v 0.02532807 -0.02597351 0.08017131
v 0.00772058 -0.04274180 0.06562957
v 0.00840472 -0.04193325 0.06683304
v 0.01725416 -0.03260549 0.07931718
v 0.01249478 -0.04101626 0.06562957
v 0.01810626 -0.03363282 0.07650702
v 0.02055387 -0.03724559 0.06702234
v 0.02135163 -0.03706676 0.06668376
v 0.02145042 -0.03751003 0.06562957
v 0.02177644 -0.03733501 0.06562957
v 0.00819232 -0.04257628 0.06562957
v 0.00883695 -0.04234799 0.06562957
v 0.01493004 -0.04009548 0.06562957
v 0.01840017 -0.03876375 0.06562957
v 0.01932142 -0.03602801 0.07055428
v 0.02090952 -0.03776496 0.06562957
f 1 2 8
f 1 8 3
f 1 3 4
f 1 4 5
f 1 5 10
f 1 10 19
f 1 19 32
f 1 32 53
f 1 53 77
f 1 77 106
f 1 106 112
f 1 112 107
f 1 107 79
f 1 79 58
f 1 58 57
f 1 57 38
f 1 38 23
f 1 23 13
f 1 13 11
f 1 11 6
f 1 6 2
f 2 6 7
f 2 7 8
f 3 8 7
f 3 7 12
f 3 12 22
f 3 22 36
f 3 36 56
f 3 56 60
f 3 60 40
f 3 40 24
f 3 24 14
f 3 14 9
f 3 9 10
f 3 10 5
f 3 5 4
f 6 11 7
f 7 11 13
f 7 13 23
f 7 23 39
f 7 39 59
f 7 59 82
f 7 82 109
f 7 109 121
f 7 121 120
f 7 120 127
f 7 127 125
f 7 125 124
f 7 124 116
f 7 116 123
f 7 123 122
f 7 122 113
f 7 113 88
f 7 88 87
f 7 87 86
f 7 86 85
f 7 85 64
f 7 64 78
f 7 78 54
f 7 54 35
f 7 35 21
f 7 21 12
f 9 14 15
f 9 15 16
f 9 16 17
f 9 17 18
f 9 18 10
f 10 18 20
f 10 20 19
f 12 21 22
f 14 24 25
f 14 25 15
f 15 25 26
f 15 26 16
f 16 26 17
f 17 27 28
f 17 28 29
f 17 29 30
f 17 30 31
f 17 31 20
f 17 20 18
f 17 26 27
f 19 20 32
f 20 31 50
f 20 50 33
f 20 33 34
f 20 34 32
f 21 35 22
f 22 35 37
f 22 37 36
f 23 38 39
f 24 40 41
f 24 41 25
f 25 41 42
f 25 42 43
f 25 43 26
f 26 43 27
f 27 43 28
f 28 43 44
f 28 44 45
f 28 45 29
f 29 45 46
f 29 46 30
f 30 46 47
f 30 47 48
f 30 48 49
f 30 49 31
f 31 49 50
f 32 51 52
f 32 52 53
f 32 34 51
f 33 50 49
f 33 49 34
f 34 49 51
f 35 54 55
f 35 55 37
f 36 37 43
f 36 43 56
f 37 55 43
f 38 57 39
f 39 57 58
f 39 58 59
f 40 60 61
f 40 61 41
f 41 61 42
f 42 61 60
f 42 60 43
f 43 55 62
f 43 62 44
f 43 60 56
f 44 63 64
f 44 64 65
f 44 65 66
f 44 66 45
f 44 62 63
f 45 66 67
f 45 67 68
f 45 68 69
f 45 69 46
f 46 69 70
f 46 70 47
f 47 70 71
f 47 71 72
f 47 72 73
f 47 73 48
f 48 73 51
f 48 51 49
f 51 73 74
f 51 74 75
f 51 75 52
f 52 75 76
f 52 76 53
f 53 76 77
f 54 78 63
f 54 63 55
f 55 63 62
f 58 79 80
f 58 80 59
f 59 81 82
f 59 80 83
f 59 83 84
f 59 84 81
f 63 78 64
f 64 85 65
f 65 85 66
f 66 85 86
f 66 86 87
f 66 87 88
f 66 88 89
f 66 89 68
f 66 68 67
f 68 90 69
f 68 89 91
f 68 91 92
f 68 92 90
f 69 90 92
f 69 92 71
f 69 71 93
f 69 93 70
f 70 93 71
f 71 92 91
f 71 91 94
f 71 94 74
f 71 74 73
f 71 73 72
f 74 94 95
f 74 95 96
f 74 96 97
f 74 97 98
f 74 98 99
f 74 99 100
f 74 100 101
f 74 101 102
f 74 102 103
f 74 103 104
f 74 104 75
f 75 104 105
f 75 105 76
f 76 105 77
f 77 105 106
f 79 107 80
f 80 107 83
f 81 108 109
f 81 109 82
f 81 84 110
f 81 110 101
f 81 101 111
f 81 111 108
f 83 103 102
f 83 102 110
f 83 110 84
f 83 107 112
f 83 112 106
f 83 106 103
f 88 113 114
f 88 114 89
f 89 114 91
f 91 115 96
f 91 96 95
f 91 95 94
f 91 114 116
f 91 116 115
f 96 115 97
f 97 115 98
f 98 115 117
f 98 117 118
f 98 118 119
f 98 119 99
f 99 101 100
f 99 119 101
f 101 110 102
f 101 119 111
f 103 106 104
f 104 106 105
f 108 111 119
f 108 119 120
f 108 120 121
f 108 121 109
f 113 122 114
f 114 122 123
f 114 123 116
f 115 116 124
f 115 124 125
f 115 125 117
f 117 125 126
f 117 126 118
f 118 126 125
f 118 125 127
f 118 127 119
f 119 127 120

