# https://github.com/mikedh/trimesh
v -0.02170293 -0.03758463 0.06524310
v -0.02170293 -0.03519967 0.06524310
v -0.02099230 -0.03796646 0.06524310
v -0.02170293 -0.03729080 0.06587981
v -0.02170293 -0.02829685 0.07936280
v 0.00009405 -0.04102709 0.06524310
v -0.01964146 -0.03855711 0.06524310
v -0.01937470 -0.03841392 0.06576921
v -0.01936190 -0.03722815 0.06815962
v -0.02059964 -0.03725053 0.06700312
v -0.02170293 -0.03604984 0.06818332
v -0.02170293 -0.02782403 0.08042608
v 0.00009405 -0.03471343 0.08102329
v 0.00009405 -0.04302873 0.06524310
v -0.02170293 -0.02779271 0.08049718
v -0.01773363 -0.03934912 0.06524310
v -0.01761840 -0.03937447 0.06529050
v -0.01811776 -0.03719982 0.06930664
v -0.01347198 -0.04083021 0.06582767
v -0.01606482 -0.03728931 0.07088498
v -0.01686508 -0.03716998 0.07044418
v -0.01681814 -0.03596035 0.07279351
v -0.01354667 -0.03609310 0.07545725
v -0.01100291 -0.03484319 0.08009588
v -0.01849122 -0.03616469 0.07090710
v -0.02088773 -0.03434800 0.07208571
v -0.02125265 -0.03460007 0.07129101
v -0.02167519 -0.03481634 0.07049474
v -0.02170293 -0.03603194 0.06821650
v 0.00009405 -0.03471343 0.08113073
v 0.00009405 -0.03850789 0.07555995
v -0.00298322 -0.04282588 0.06524310
v -0.02170293 -0.02821780 0.08127133
v -0.02093468 -0.02836993 0.08131715
v -0.01995943 -0.02858322 0.08127133
v -0.01374087 -0.04100024 0.06524310
v -0.01230039 -0.03606327 0.07659163
v -0.01354240 -0.03727737 0.07305104
v -0.01258422 -0.04147306 0.06524310
v -0.01220863 -0.04080038 0.06696047
v -0.01471398 -0.03490733 0.07662955
v -0.01017704 -0.03500875 0.08049560
v -0.01056329 -0.03460902 0.08089058
v -0.01340369 -0.03365742 0.08010852
v -0.01820952 -0.03128290 0.08013380
v -0.02061031 -0.03009564 0.08014644
v -0.02154928 -0.03235830 0.07513969
v -0.02161757 -0.03358732 0.07281879
v -0.02170293 -0.03349335 0.07290411
v -0.02170293 -0.03478502 0.07052318
v -0.00064006 -0.03467614 0.08118128
v 0.00009405 -0.03532645 0.08119234
v 0.00009405 -0.03736686 0.07815258
v -0.00409932 -0.04274832 0.06524310
v -0.00302804 -0.04282290 0.06524310
v -0.02170293 -0.02890241 0.08122394
v -0.02093468 -0.02906946 0.08131715
v -0.00660894 -0.03441065 0.08137877
v -0.00541602 -0.03444197 0.08138193
v -0.00422096 -0.03449566 0.08135507
v -0.00302804 -0.03455533 0.08131083
v -0.00183298 -0.03461499 0.08125237
v -0.01103705 -0.03603343 0.07772443
v -0.01227905 -0.03724754 0.07418384
v -0.01169220 -0.04180567 0.06524310
v -0.01092395 -0.04075414 0.06806957
v -0.01096663 -0.03958478 0.07050264
v -0.01099010 -0.03840199 0.07291043
v -0.00976944 -0.03599615 0.07884933
v -0.00976730 -0.03481784 0.08118602
v -0.01216809 -0.03363505 0.08119234
v -0.01456887 -0.03244928 0.08119866
v -0.02017070 -0.02984655 0.08094271
v -0.02170293 -0.02932452 0.08053036
v -0.02170293 -0.03015083 0.07905155
v -0.02170293 -0.03219572 0.07529452
v -0.00302804 -0.03513404 0.08131083
v -0.00422096 -0.03510570 0.08135507
v 0.00009405 -0.03598570 0.08116548
v -0.00540321 -0.04263944 0.06524310
v 0.00009405 -0.03628849 0.08053667
v -0.00071048 -0.03617961 0.08060619
v -0.00618853 -0.04256635 0.06524310
v -0.01615872 -0.03144100 0.08131557
v -0.01854670 -0.03025523 0.08131715
v -0.01937470 -0.03007476 0.08120972
v -0.01138276 -0.03381403 0.08131083
v -0.00660894 -0.03504455 0.08137877
v -0.00541602 -0.03508333 0.08138193
v -0.01128460 -0.04193394 0.06524310
v -0.01107760 -0.04199808 0.06524310
v -0.01082151 -0.04191008 0.06559542
v -0.00968194 -0.03715059 0.07637676
v -0.00899692 -0.03605879 0.07898994
v -0.00899692 -0.03531004 0.08049718
v -0.00899692 -0.03490733 0.08127765
v -0.01697179 -0.03126202 0.08120498
v -0.00035836 -0.03596333 0.08113705
v -0.00780399 -0.03498638 0.08134559
v -0.00609250 -0.03593798 0.07991893
v -0.00422096 -0.03603493 0.08013064
v -0.00302804 -0.03609608 0.08026651
v -0.00183298 -0.03615723 0.08040238
v -0.00654492 -0.04253055 0.06524310
v -0.01019197 -0.04214127 0.06524310
v -0.01019197 -0.04080933 0.06819122
v -0.00780399 -0.03611995 0.07912739
v -0.00541602 -0.03567994 0.08059197
f 1 2 6
f 1 6 14
f 1 14 32
f 1 32 55
f 1 55 54
f 1 54 80
f 1 80 83
f 1 83 104
f 1 104 105
f 1 105 91
f 1 91 90
f 1 90 65
f 1 65 39
f 1 39 36
f 1 36 16
f 1 16 7
f 1 7 3
f 1 3 4
f 1 4 11
f 1 11 29
f 1 29 50
f 1 50 49
f 1 49 76
f 1 76 75
f 1 75 74
f 1 74 56
f 1 56 33
f 1 33 15
f 1 15 12
f 1 12 5
f 1 5 2
f 2 5 6
f 3 7 8
f 3 8 9
f 3 9 10
f 3 10 4
f 4 10 11
f 5 12 6
f 6 13 30
f 6 30 52
f 6 52 79
f 6 79 81
f 6 81 53
f 6 53 31
f 6 31 14
f 6 12 15
f 6 15 13
f 7 16 17
f 7 17 8
f 8 18 9
f 8 17 19
f 8 19 20
f 8 20 21
f 8 21 18
f 9 22 10
f 9 18 23
f 9 23 24
f 9 24 22
f 10 22 25
f 10 25 26
f 10 26 27
f 10 27 28
f 10 28 29
f 10 29 11
f 13 15 30
f 14 31 32
f 15 33 34
f 15 34 35
f 15 35 30
f 16 36 17
f 17 36 19
f 18 21 37
f 18 37 23
f 19 38 20
f 19 36 39
f 19 39 40
f 19 40 64
f 19 64 38
f 20 38 37
f 20 37 21
f 22 41 26
f 22 26 25
f 22 24 41
f 23 37 42
f 23 42 24
f 24 42 43
f 24 43 44
f 24 44 41
f 26 45 46
f 26 46 47
f 26 47 27
f 26 41 44
f 26 44 45
f 27 47 48
f 27 48 28
f 28 48 49
f 28 49 50
f 28 50 29
f 30 51 52
f 30 35 34
f 30 34 51
f 31 53 54
f 31 54 55
f 31 55 32
f 33 56 57
f 33 57 34
f 34 57 88
f 34 88 58
f 34 58 59
f 34 59 60
f 34 60 61
f 34 61 62
f 34 62 51
f 37 38 64
f 37 64 63
f 37 63 42
f 39 65 40
f 40 65 66
f 40 66 67
f 40 67 68
f 40 68 64
f 42 69 70
f 42 70 43
f 42 63 69
f 43 70 71
f 43 71 72
f 43 72 73
f 43 73 46
f 43 46 45
f 43 45 44
f 46 73 74
f 46 74 75
f 46 75 47
f 47 75 48
f 48 75 76
f 48 76 49
f 51 62 52
f 52 77 78
f 52 78 79
f 52 62 61
f 52 61 77
f 53 80 54
f 53 81 82
f 53 82 83
f 53 83 80
f 56 84 85
f 56 85 57
f 56 74 73
f 56 73 86
f 56 86 87
f 56 87 84
f 57 85 88
f 58 88 89
f 58 89 59
f 59 89 78
f 59 78 60
f 60 78 77
f 60 77 61
f 63 68 69
f 63 64 68
f 65 90 66
f 66 90 91
f 66 91 92
f 66 92 93
f 66 93 69
f 66 69 67
f 67 69 68
f 69 93 94
f 69 94 95
f 69 95 70
f 70 87 71
f 70 95 96
f 70 96 87
f 71 87 72
f 72 97 73
f 72 87 97
f 73 97 86
f 78 89 79
f 79 98 81
f 79 89 88
f 79 88 99
f 79 99 98
f 81 98 82
f 82 98 100
f 82 100 101
f 82 101 102
f 82 102 103
f 82 103 104
f 82 104 83
f 84 87 88
f 84 88 85
f 86 97 87
f 87 96 99
f 87 99 88
f 91 105 92
f 92 105 106
f 92 106 94
f 92 94 93
f 94 104 107
f 94 107 100
f 94 100 95
f 94 106 105
f 94 105 104
f 95 100 108
f 95 108 96
f 96 108 98
f 96 98 99
f 98 108 100
f 100 107 101
f 101 107 104
f 101 104 102
f 102 104 103

