# https://github.com/mikedh/trimesh
v -0.00411831 0.01218010 0.06471257
v -0.00411831 -0.00426204 0.06471257
v -0.00411831 0.01218010 0.06365168
v -0.03923067 0.01218010 0.06524320
v -0.00411831 -0.00426204 0.06365168
v -0.04095404 -0.00426204 0.06524320
v -0.04134025 0.01218010 0.06145235
v -0.04134025 0.01218010 0.06524320
v -0.04134025 -0.00426204 0.06340492
v -0.04134025 -0.00426204 0.06524320
f 1 2 5
f 1 5 3
f 1 3 7
f 1 7 8
f 1 8 4
f 1 4 2
f 2 4 6
f 2 6 10
f 2 10 9
f 2 9 5
f 3 5 7
f 4 8 10
f 4 10 6
f 5 9 7
f 7 9 10
f 7 10 8

