# https://github.com/mikedh/trimesh
v 0.00403526 0.00048594 0.00288794
v 0.00370533 0.00160463 0.00288794
v 0.00365048 0.00143081 0.00371945
v 0.00378722 0.00048594 0.00390239
v 0.00378165 -0.00070779 0.00388992
v 0.00402413 -0.00070779 0.00288794
v 0.00402652 -0.00070779 0.00049733
v 0.00402890 -0.00070779 -0.00308235
v 0.00403288 -0.00070779 -0.00905265
v 0.00403367 -0.00070779 -0.01025003
v 0.00403447 -0.00070779 -0.01263648
v 0.00403526 0.00048594 -0.01979584
v 0.00350737 0.00220188 -0.00188913
v 0.00350658 0.00220188 0.00049733
v 0.00350578 0.00220188 0.00169055
v 0.00350022 0.00220188 0.00288794
v 0.00370533 0.00160463 -0.00427974
v 0.00271316 0.00257554 0.00376519
v 0.00314087 0.00048594 0.00390239
v -0.00063782 -0.00393982 0.00389823
v 0.00055549 -0.00393446 0.00388992
v 0.00174881 0.00269116 0.00385665
v 0.00268692 -0.00283950 0.00376103
v 0.00364332 -0.00160749 0.00370698
v 0.00369500 -0.00176063 0.00288794
v 0.00369579 -0.00176369 0.00169055
v 0.00370215 -0.00178130 -0.00666619
v 0.00370295 -0.00178360 -0.00785942
v 0.00370533 -0.00179432 -0.01263648
v 0.00370533 -0.00179891 -0.01502294
v 0.00370533 -0.00182342 -0.02815259
v 0.00370533 -0.00182648 -0.03054320
v 0.00403447 -0.00070779 -0.03770672
v 0.00403367 0.00048594 -0.02218230
v 0.00350737 0.00220188 -0.00308235
v 0.00246909 0.00355334 -0.03770672
v 0.00290873 0.00276543 0.00169055
v 0.00290316 0.00274399 0.00288794
v 0.00246352 0.00354874 -0.03651349
v 0.00245239 0.00353879 -0.03412288
v 0.00244683 0.00353343 -0.03292965
v 0.00243411 0.00352348 -0.03054320
v 0.00242059 0.00351352 -0.02815259
v 0.00370533 0.00160157 -0.00547296
v 0.00350737 0.00220111 -0.00427974
v 0.00174881 0.00312684 0.00288794
v -0.00063782 -0.00329280 0.00389823
v -0.00189712 0.00174399 0.00387329
v -0.00284557 -0.00190152 0.00385665
v -0.00273029 -0.00286554 0.00376519
v -0.00158229 -0.00380275 0.00371530
v -0.00063782 -0.00418790 0.00288794
v 0.00145465 -0.00379510 0.00370698
v 0.00055549 -0.00417642 0.00288794
v -0.00183193 0.00273404 0.00382755
v -0.00183193 0.00321030 0.00288794
v 0.00220435 -0.00361745 0.00288794
v 0.00286818 -0.00302021 0.00288794
v 0.00346524 -0.00235788 0.00288794
v 0.00347637 -0.00236017 0.00169055
v 0.00350419 -0.00242066 -0.02815259
v 0.00350499 -0.00242219 -0.02934997
v 0.00350578 -0.00242296 -0.03054320
v 0.00350658 -0.00242296 -0.03292965
v 0.00370533 -0.00182648 -0.03770672
v 0.00365048 -0.00165266 -0.03844261
v 0.00378722 -0.00070779 -0.03857150
v 0.00376814 0.00048594 -0.03854655
v 0.00399790 0.00048594 -0.03770672
v 0.00400108 0.00048594 -0.03651349
v 0.00400744 0.00048594 -0.03412288
v 0.00402254 0.00048594 -0.02815259
v 0.00403208 0.00048594 -0.02337968
v 0.00293179 0.00287340 -0.03651349
v 0.00290078 0.00287340 -0.03770672
v 0.00242934 0.00352730 -0.03838857
v 0.00174881 0.00362531 -0.03770672
v 0.00350578 0.00219805 -0.00547296
v 0.00240549 0.00350357 -0.02576613
v 0.00238959 0.00349361 -0.02337968
v 0.00237130 0.00348366 -0.02098907
v 0.00235143 0.00347371 -0.01860262
v 0.00234666 0.00347064 -0.01798314
v 0.00370533 0.00151351 -0.02098907
v 0.00174881 0.00315288 0.00169055
v -0.00288929 0.00167967 0.00382755
v -0.00337982 0.00167967 0.00288794
v -0.00329077 -0.00190152 0.00288794
v -0.00290360 -0.00305620 0.00288794
v -0.00235425 -0.00365268 0.00288794
v -0.00175720 -0.00385788 0.00288794
v -0.00063782 -0.00419173 0.00049733
v -0.00176117 -0.00385942 0.00169055
v -0.00177230 -0.00386324 -0.00188913
v -0.00178025 -0.00386554 -0.00427974
v -0.00178661 -0.00386784 -0.00666619
v 0.00160730 -0.00384640 0.00288794
v 0.00160968 -0.00384793 0.00169055
v -0.00063782 -0.00419709 -0.00308235
v 0.00055549 -0.00418407 -0.00308235
v 0.00162797 -0.00385406 -0.00666619
v -0.00277322 0.00261918 0.00375272
v -0.00296482 0.00280525 0.00288794
v -0.00183193 0.00323634 0.00169055
v -0.00239798 0.00346988 -0.01820349
v -0.00299264 0.00282516 0.00169055
v 0.00220673 -0.00362894 0.00169055
v 0.00287931 -0.00303169 0.00169055
v 0.00347716 -0.00236324 0.00049733
v 0.00348034 -0.00237089 -0.00308235
v 0.00290873 -0.00306002 -0.02934997
v 0.00350658 -0.00242296 -0.03651349
v 0.00348829 -0.00242296 -0.03770672
v 0.00269726 -0.00282113 -0.03844677
v 0.00055549 -0.00387550 -0.03852161
v -0.00063782 -0.00388775 -0.03852576
v 0.00316154 -0.00070779 -0.03857150
v -0.00183193 0.00287340 -0.03852992
v 0.00260742 0.00287340 -0.03849250
v 0.00362424 0.00129605 -0.03841351
v 0.00366797 0.00140631 -0.03770672
v 0.00367433 0.00142239 -0.03531611
v 0.00368705 0.00145302 -0.03054320
v 0.00369579 0.00147599 -0.02695936
v 0.00370454 0.00150738 -0.02218230
v 0.00342787 0.00205027 -0.03054320
v 0.00341118 0.00201122 -0.03651349
v 0.00337540 0.00200356 -0.03770672
v 0.00174881 0.00354951 -0.03842182
v 0.00174881 0.00359009 -0.03173643
v 0.00055549 0.00353649 -0.03840519
v -0.00063782 0.00352348 -0.03838440
v -0.00183193 0.00350969 -0.03836361
v 0.00055549 0.00360081 -0.03770672
v 0.00055549 0.00358473 -0.03292965
v 0.00055549 0.00357248 -0.02934997
v -0.00129291 0.00347217 -0.01166777
v -0.00107031 0.00347217 -0.01166777
v 0.00135846 0.00347447 -0.01621616
v 0.00119945 0.00347141 -0.01551769
v 0.00195551 0.00345916 -0.01621616
v 0.00217573 0.00346528 -0.01718904
v 0.00174881 0.00357554 -0.02934997
v 0.00174881 0.00356712 -0.02815259
v 0.00174881 0.00351735 -0.02218230
v 0.00174881 0.00348749 -0.01860262
v 0.00004271 0.00347217 -0.01304808
v -0.00362388 0.00227845 -0.00124470
v -0.00362388 0.00222485 -0.00124470
v -0.00362627 0.00089942 -0.00231736
v -0.00361832 -0.00234256 -0.00501979
v -0.00362786 -0.00250795 -0.00581804
v -0.00293381 -0.00306385 0.00169055
v -0.00235822 -0.00366110 0.00169055
v -0.00364853 -0.00254011 -0.00785942
v -0.00366045 -0.00255619 -0.00905265
v -0.00367079 -0.00256998 -0.01025003
v -0.00368033 -0.00257993 -0.01144326
v -0.00368907 -0.00258835 -0.01263648
v -0.00236220 -0.00366340 0.00049733
v -0.00238128 -0.00367029 -0.00547296
v -0.00238367 -0.00367182 -0.00666619
v -0.00178264 -0.00386860 -0.00785942
v 0.00223535 -0.00363889 -0.01144326
v -0.00063782 -0.00417335 -0.02457291
v 0.00055549 -0.00417029 -0.01025003
v 0.00224648 -0.00365651 -0.03054320
v 0.00225125 -0.00365727 -0.02934997
v 0.00164228 -0.00385252 -0.01382971
v 0.00164069 -0.00385406 -0.01263648
v 0.00163830 -0.00385482 -0.01144326
v 0.00163274 -0.00385482 -0.00905265
v -0.00063782 -0.00417182 -0.02576613
v 0.00225046 -0.00365651 -0.02815259
v -0.00183193 0.00344001 -0.01025003
v -0.00196469 0.00345533 -0.01263648
v -0.00174686 0.00345609 -0.01133932
v -0.00183193 0.00349208 -0.02098907
v -0.00183193 0.00352041 -0.02934997
v -0.00183193 0.00353649 -0.03412288
v -0.00243057 0.00347141 -0.01899759
v -0.00300854 0.00283205 0.00049733
v 0.00221230 -0.00363047 -0.00069590
v 0.00223774 -0.00363966 -0.01263648
v 0.00224012 -0.00364196 -0.01502294
v 0.00290873 -0.00305926 -0.03054320
v 0.00290952 -0.00304394 -0.03651349
v 0.00290952 -0.00305620 -0.03173643
v 0.00289124 -0.00301255 -0.03770672
v 0.00144034 -0.00376447 -0.03840519
v 0.00218606 -0.00360980 -0.03770672
v 0.00055549 -0.00406156 -0.03770672
v -0.00063782 -0.00408913 -0.03770672
v -0.00137082 -0.00378131 -0.03840935
v -0.00277720 -0.00272541 -0.03850913
v -0.00384569 -0.00070779 -0.03855071
v -0.00283285 0.00167967 -0.03854239
v -0.00262614 0.00287340 -0.03848003
v -0.00245919 0.00349132 -0.03833451
v -0.00183193 0.00354645 -0.03770672
v -0.00063782 0.00357478 -0.03770672
v -0.00063782 0.00355870 -0.03292965
v 0.00055549 0.00350893 -0.01860262
v 0.00055549 0.00351735 -0.01979584
v -0.00314131 0.00272638 -0.00078737
v -0.00244488 0.00347907 -0.02337968
v -0.00245442 0.00348519 -0.02695936
v -0.00246794 0.00349515 -0.03292965
v -0.00247191 0.00349821 -0.03531611
v -0.00247430 0.00350127 -0.03770672
v -0.00362388 0.00227845 -0.00145674
v -0.00408658 -0.00070779 -0.03531611
v -0.00408340 -0.00070779 -0.03412288
v -0.00407863 -0.00070779 -0.03292965
v -0.00405876 -0.00070779 -0.02815259
v -0.00405319 -0.00070779 -0.02695936
v -0.00404603 -0.00070779 -0.02576613
v -0.00403570 -0.00070779 -0.02457291
v -0.00401901 -0.00070779 -0.02337968
v -0.00380197 0.00048594 -0.01144326
v -0.00362706 -0.00032341 -0.00348148
v -0.00375427 0.00048594 -0.00905265
v -0.00362786 -0.00154700 -0.00464976
v -0.00363660 -0.00192755 -0.00543970
v -0.00370895 -0.00190152 -0.00905265
v -0.00373201 -0.00190152 -0.01025003
v -0.00379243 -0.00190152 -0.01382971
v -0.00380992 -0.00190152 -0.01502294
v -0.00382582 -0.00190152 -0.01621616
v -0.00363660 -0.00252174 -0.00666619
v -0.00369623 -0.00259371 -0.01382971
v -0.00370180 -0.00259754 -0.01502294
v -0.00384013 -0.00190152 -0.01740939
v -0.00385285 -0.00190152 -0.01860262
v -0.00386398 -0.00190152 -0.01979584
v -0.00387272 -0.00190152 -0.02098907
v -0.00370577 -0.00259831 -0.01621616
v -0.00370816 -0.00259831 -0.01740939
v -0.00370816 -0.00259601 -0.01860262
v -0.00370736 -0.00259141 -0.01979584
v -0.00237969 -0.00366952 -0.00785942
v -0.00157593 -0.00388698 -0.02695936
v -0.00176992 -0.00387014 -0.00905265
v 0.00055549 -0.00416799 -0.01144326
v 0.00165420 -0.00381960 -0.02934997
v 0.00164943 -0.00381730 -0.03054320
v 0.00163989 -0.00381501 -0.03173643
v 0.00159934 -0.00380505 -0.03651349
v 0.00222661 -0.00365038 -0.03292965
v 0.00055549 -0.00416187 -0.01382971
v -0.00158547 -0.00388698 -0.02576613
v -0.00063782 -0.00416876 -0.02695936
v -0.00183193 0.00354338 -0.03651349
v -0.00243296 0.00347294 -0.01979584
v 0.00219640 -0.00364119 -0.03651349
v 0.00158901 -0.00380199 -0.03770672
v 0.00055549 -0.00406692 -0.03651349
v -0.00063782 -0.00416263 -0.02815259
v -0.00063782 -0.00415498 -0.02934997
v -0.00063782 -0.00412971 -0.03292965
v -0.00063782 -0.00412052 -0.03412288
v -0.00063782 -0.00411057 -0.03531611
v -0.00063782 -0.00409985 -0.03651349
v -0.00144635 -0.00382955 -0.03770672
v -0.00150518 -0.00386018 -0.03292965
v -0.00147576 -0.00384640 -0.03531611
v -0.00295925 -0.00284410 -0.03770672
v -0.00355631 -0.00243368 -0.03770672
v -0.00204340 -0.00344134 -0.03770672
v -0.00382900 -0.00165496 -0.03851329
v -0.00407307 -0.00070779 -0.03770672
v -0.00371372 0.00019957 -0.03842182
v -0.00283285 0.00287340 -0.03770672
v -0.00371452 0.00139789 -0.01621616
v -0.00372088 0.00142163 -0.01502294
v -0.00372644 0.00144536 -0.01382971
v -0.00408261 -0.00070779 -0.03651349
v -0.00342911 0.00170570 -0.03054320
v -0.00362547 0.00109161 -0.03136640
v -0.00365886 0.00120493 -0.02576613
v -0.00366602 0.00122867 -0.02457291
v -0.00370100 0.00134965 -0.01860262
v -0.00393632 -0.00185098 -0.03651349
v -0.00393314 -0.00186400 -0.03531611
v -0.00388544 -0.00190152 -0.02337968
v -0.00387988 -0.00190152 -0.02218230
v -0.00399515 -0.00070779 -0.02218230
v -0.00373201 -0.00070779 -0.00905265
v -0.00394745 -0.00070779 -0.01979584
v -0.00389339 -0.00190152 -0.02576613
v -0.00370418 -0.00258605 -0.02098907
v -0.00236697 -0.00366263 -0.00905265
v -0.00153380 -0.00387243 -0.03054320
v -0.00154890 -0.00387779 -0.02934997
v -0.00156321 -0.00388315 -0.02815259
v -0.00369941 -0.00257840 -0.02218230
v -0.00369305 -0.00256921 -0.02337968
v -0.00368510 -0.00256002 -0.02457291
v -0.00366840 -0.00254088 -0.02695936
v 0.00055549 -0.00411746 -0.02457291
v 0.00055549 -0.00414732 -0.01740939
v -0.00207282 -0.00346049 -0.03531611
v -0.00210144 -0.00347963 -0.03292965
v -0.00298867 -0.00286324 -0.03531611
v -0.00362229 -0.00249800 -0.03230186
v -0.00393394 -0.00183643 -0.03770672
v -0.00384013 0.00048594 -0.02815259
v -0.00377653 0.00041549 -0.03531611
v -0.00376222 0.00036726 -0.03770672
v -0.00345534 0.00156558 -0.03175306
v -0.00364932 -0.00252174 -0.02934997
v -0.00363899 -0.00251255 -0.03054320
v -0.00367715 -0.00255007 -0.02576613
v -0.00363024 -0.00250412 -0.03150360
f 1 2 3
f 1 3 4
f 1 4 5
f 1 5 6
f 1 6 7
f 1 7 8
f 1 8 9
f 1 9 10
f 1 10 11
f 1 11 33
f 1 33 12
f 1 12 17
f 1 17 2
f 2 13 14
f 2 14 15
f 2 15 16
f 2 16 3
f 2 17 35
f 2 35 13
f 3 16 18
f 3 18 4
f 4 19 20
f 4 20 21
f 4 21 5
f 4 18 22
f 4 22 19
f 5 21 23
f 5 23 24
f 5 24 6
f 6 24 25
f 6 25 26
f 6 26 27
f 6 27 28
f 6 28 29
f 6 29 7
f 7 29 8
f 8 29 9
f 9 29 10
f 10 29 30
f 10 30 31
f 10 31 32
f 10 32 11
f 11 32 65
f 11 65 33
f 12 33 34
f 12 34 17
f 13 35 36
f 13 36 14
f 14 36 15
f 15 36 16
f 16 37 38
f 16 38 18
f 16 36 39
f 16 39 40
f 16 40 41
f 16 41 42
f 16 42 43
f 16 43 37
f 17 44 45
f 17 45 35
f 17 34 44
f 18 38 46
f 18 46 22
f 19 47 20
f 19 22 48
f 19 48 47
f 20 47 49
f 20 49 50
f 20 50 51
f 20 51 52
f 20 52 21
f 21 53 23
f 21 52 54
f 21 54 53
f 22 55 48
f 22 46 56
f 22 56 55
f 23 53 57
f 23 57 58
f 23 58 59
f 23 59 24
f 24 59 25
f 25 59 60
f 25 60 61
f 25 61 26
f 26 61 27
f 27 61 28
f 28 61 29
f 29 61 62
f 29 62 63
f 29 63 30
f 30 63 31
f 31 63 32
f 32 63 64
f 32 64 112
f 32 112 65
f 33 65 66
f 33 66 67
f 33 67 68
f 33 68 69
f 33 69 70
f 33 70 71
f 33 71 72
f 33 72 73
f 33 73 34
f 34 73 44
f 35 45 36
f 36 74 75
f 36 75 76
f 36 76 77
f 36 77 39
f 36 45 78
f 36 78 74
f 37 43 79
f 37 79 80
f 37 80 81
f 37 81 82
f 37 82 83
f 37 83 38
f 38 83 46
f 39 77 40
f 40 77 43
f 40 43 42
f 40 42 41
f 43 77 79
f 44 73 84
f 44 84 45
f 45 84 78
f 46 83 85
f 46 85 104
f 46 104 56
f 47 48 49
f 48 55 86
f 48 86 49
f 49 86 87
f 49 87 88
f 49 88 50
f 50 88 89
f 50 89 90
f 50 90 51
f 51 90 91
f 51 91 52
f 52 92 54
f 52 91 93
f 52 93 94
f 52 94 95
f 52 95 96
f 52 96 92
f 53 54 97
f 53 97 57
f 54 98 97
f 54 92 99
f 54 99 100
f 54 100 101
f 54 101 98
f 55 102 86
f 55 56 102
f 56 103 102
f 56 104 105
f 56 105 106
f 56 106 103
f 57 97 107
f 57 107 108
f 57 108 58
f 58 108 59
f 59 108 60
f 60 108 109
f 60 109 110
f 60 110 61
f 61 110 108
f 61 108 62
f 62 108 111
f 62 111 63
f 63 111 64
f 64 111 112
f 65 112 113
f 65 113 66
f 66 114 67
f 66 113 114
f 67 114 115
f 67 115 116
f 67 116 117
f 67 117 118
f 67 118 68
f 68 118 119
f 68 119 120
f 68 120 69
f 69 120 121
f 69 121 122
f 69 122 123
f 69 123 124
f 69 124 125
f 69 125 70
f 70 125 71
f 71 125 72
f 72 125 84
f 72 84 73
f 74 126 127
f 74 127 75
f 74 78 126
f 75 128 76
f 75 127 128
f 76 120 119
f 76 119 129
f 76 129 77
f 76 128 120
f 77 130 83
f 77 83 82
f 77 82 81
f 77 81 80
f 77 80 79
f 77 129 131
f 77 131 132
f 77 132 133
f 77 133 134
f 77 134 135
f 77 135 136
f 77 136 137
f 77 137 138
f 77 138 130
f 78 84 125
f 78 125 124
f 78 124 123
f 78 123 122
f 78 122 121
f 78 121 127
f 78 127 126
f 83 139 140
f 83 140 141
f 83 141 142
f 83 142 85
f 83 130 143
f 83 143 144
f 83 144 145
f 83 145 146
f 83 146 139
f 85 142 141
f 85 141 147
f 85 147 138
f 85 138 104
f 86 102 87
f 87 102 103
f 87 103 148
f 87 148 149
f 87 149 88
f 88 149 150
f 88 150 151
f 88 151 152
f 88 152 89
f 89 153 90
f 89 152 153
f 90 154 91
f 90 153 155
f 90 155 156
f 90 156 157
f 90 157 158
f 90 158 159
f 90 159 154
f 91 154 160
f 91 160 93
f 92 96 99
f 93 160 161
f 93 161 94
f 94 161 95
f 95 161 162
f 95 162 96
f 96 162 163
f 96 163 99
f 97 98 107
f 98 101 164
f 98 164 107
f 99 163 165
f 99 165 100
f 100 166 167
f 100 167 168
f 100 168 169
f 100 169 170
f 100 170 171
f 100 171 172
f 100 172 101
f 100 165 173
f 100 173 166
f 101 172 174
f 101 174 164
f 103 106 148
f 104 138 137
f 104 137 175
f 104 175 105
f 105 175 176
f 105 176 177
f 105 177 137
f 105 137 178
f 105 178 179
f 105 179 180
f 105 180 181
f 105 181 106
f 106 182 148
f 106 181 182
f 107 183 108
f 107 164 183
f 108 110 109
f 108 183 164
f 108 164 184
f 108 184 185
f 108 185 174
f 108 174 111
f 111 174 168
f 111 168 186
f 111 186 112
f 112 187 113
f 112 186 188
f 112 188 187
f 113 189 114
f 113 187 189
f 114 190 115
f 114 189 191
f 114 191 190
f 115 190 192
f 115 192 193
f 115 193 116
f 116 194 195
f 116 195 196
f 116 196 117
f 116 193 194
f 117 196 197
f 117 197 118
f 118 197 198
f 118 198 199
f 118 199 133
f 118 133 132
f 118 132 131
f 118 131 129
f 118 129 119
f 120 128 121
f 121 128 127
f 130 138 143
f 133 199 200
f 133 200 201
f 133 201 134
f 134 201 202
f 134 202 135
f 135 202 178
f 135 178 137
f 135 137 136
f 137 177 175
f 138 147 203
f 138 203 204
f 138 204 143
f 139 147 140
f 139 146 147
f 140 147 141
f 143 204 144
f 144 204 203
f 144 203 147
f 144 147 145
f 145 147 146
f 148 182 205
f 148 205 206
f 148 206 207
f 148 207 208
f 148 208 209
f 148 209 210
f 148 210 211
f 148 211 212
f 148 212 213
f 148 213 214
f 148 214 215
f 148 215 216
f 148 216 217
f 148 217 218
f 148 218 219
f 148 219 149
f 149 219 220
f 149 220 150
f 150 221 151
f 150 220 222
f 150 222 221
f 151 221 223
f 151 223 224
f 151 224 225
f 151 225 226
f 151 226 152
f 152 227 228
f 152 228 229
f 152 229 230
f 152 230 153
f 152 226 219
f 152 219 227
f 153 230 155
f 154 159 231
f 154 231 232
f 154 232 160
f 155 233 156
f 155 230 233
f 156 233 234
f 156 234 157
f 157 234 235
f 157 235 158
f 158 235 159
f 159 235 236
f 159 236 231
f 160 232 161
f 161 232 237
f 161 237 162
f 162 237 238
f 162 238 239
f 162 239 240
f 162 240 241
f 162 241 242
f 162 242 243
f 162 243 163
f 163 243 173
f 163 173 165
f 164 174 184
f 166 244 167
f 166 173 244
f 167 245 246
f 167 246 247
f 167 247 248
f 167 248 249
f 167 249 187
f 167 187 168
f 167 244 250
f 167 250 245
f 168 187 188
f 168 188 186
f 168 174 172
f 168 172 171
f 168 171 170
f 168 170 169
f 173 251 242
f 173 242 252
f 173 252 250
f 173 250 244
f 173 243 251
f 174 185 184
f 175 177 176
f 178 202 179
f 179 202 180
f 180 202 201
f 180 201 253
f 180 253 181
f 181 253 200
f 181 200 254
f 181 254 206
f 181 206 205
f 181 205 182
f 187 255 191
f 187 191 189
f 187 249 255
f 190 191 256
f 190 256 192
f 191 255 256
f 192 256 248
f 192 248 257
f 192 257 252
f 192 252 258
f 192 258 259
f 192 259 260
f 192 260 261
f 192 261 262
f 192 262 263
f 192 263 193
f 193 264 194
f 193 263 265
f 193 265 266
f 193 266 264
f 194 267 268
f 194 268 195
f 194 264 269
f 194 269 267
f 195 270 196
f 195 268 270
f 196 270 271
f 196 271 272
f 196 272 198
f 196 198 197
f 198 272 199
f 199 272 273
f 199 273 210
f 199 210 200
f 200 253 201
f 200 210 209
f 200 209 208
f 200 208 207
f 200 207 206
f 200 206 254
f 210 273 211
f 211 274 275
f 211 275 276
f 211 276 271
f 211 271 277
f 211 277 212
f 211 273 278
f 211 278 279
f 211 279 280
f 211 280 281
f 211 281 282
f 211 282 274
f 212 277 283
f 212 283 284
f 212 284 213
f 213 284 285
f 213 285 214
f 214 285 215
f 215 285 286
f 215 286 216
f 216 286 236
f 216 236 217
f 217 236 235
f 217 235 218
f 218 235 234
f 218 234 233
f 218 233 229
f 218 229 228
f 218 228 219
f 219 228 227
f 219 226 225
f 219 225 224
f 219 224 287
f 219 287 220
f 220 287 222
f 221 222 223
f 222 288 223
f 222 287 289
f 222 289 288
f 223 288 224
f 224 288 289
f 224 289 287
f 229 233 230
f 231 236 286
f 231 286 232
f 232 286 285
f 232 285 237
f 237 285 290
f 237 290 284
f 237 284 238
f 238 284 239
f 239 284 283
f 239 283 240
f 240 283 291
f 240 291 241
f 241 292 293
f 241 293 294
f 241 294 295
f 241 295 242
f 241 291 296
f 241 296 297
f 241 297 298
f 241 298 299
f 241 299 292
f 242 295 259
f 242 259 258
f 242 258 252
f 242 251 243
f 245 250 246
f 246 250 247
f 247 300 248
f 247 250 301
f 247 301 300
f 248 256 255
f 248 255 249
f 248 300 257
f 250 252 301
f 252 257 300
f 252 300 301
f 259 295 260
f 260 295 261
f 261 295 294
f 261 294 262
f 262 294 293
f 262 293 265
f 262 265 263
f 264 302 269
f 264 266 303
f 264 303 302
f 265 293 292
f 265 292 266
f 266 292 303
f 267 269 302
f 267 302 304
f 267 304 305
f 267 305 268
f 268 306 270
f 268 305 306
f 270 306 271
f 271 307 308
f 271 308 309
f 271 309 272
f 271 306 277
f 271 276 275
f 271 275 274
f 271 274 307
f 272 309 273
f 273 309 310
f 273 310 278
f 274 282 307
f 277 306 283
f 278 310 309
f 278 309 279
f 279 309 308
f 279 308 280
f 280 308 281
f 281 308 282
f 282 308 307
f 283 306 296
f 283 296 291
f 284 290 285
f 292 299 311
f 292 311 312
f 292 312 305
f 292 305 303
f 296 306 297
f 297 306 298
f 298 306 313
f 298 313 299
f 299 313 306
f 299 306 311
f 302 303 305
f 302 305 304
f 305 312 314
f 305 314 306
f 306 314 312
f 306 312 311

