# https://github.com/mikedh/trimesh
v -0.03239211 -0.03710055 0.04228888
v -0.03369821 -0.03610155 0.04228888
v -0.03239211 -0.03705144 0.04178946
v -0.03239211 -0.03709774 0.04306428
v -0.03429545 -0.03563151 0.04228888
v -0.03359532 -0.03602438 0.04109583
v -0.03239211 -0.03701917 0.04157480
v -0.03347762 -0.03593318 0.04408793
v -0.03360753 -0.03603280 0.04348338
v -0.03420478 -0.03556557 0.04348338
v -0.03239211 -0.03597948 0.04644627
v -0.03249325 -0.03609313 0.04587093
v -0.03489183 -0.03496925 0.04348338
v -0.03496245 -0.03503520 0.04228888
v -0.03487090 -0.03493418 0.04109583
v -0.03419170 -0.03553190 0.04109583
v -0.03351162 -0.03596124 0.04035109
v -0.03239211 -0.03653651 0.03870829
v -0.03309050 -0.03563712 0.04587093
v -0.03373831 -0.03494540 0.04644627
v -0.03461021 -0.03467741 0.04513495
v -0.03475407 -0.03482473 0.04433910
v -0.03239211 -0.03425508 0.04644627
v -0.03556057 -0.03410776 0.04359728
v -0.03596426 -0.03368823 0.04327602
v -0.03555883 -0.03434488 0.04228888
v -0.03546815 -0.03428455 0.04109583
v -0.03591979 -0.03360825 0.04022405
v -0.03473838 -0.03480509 0.03990133
v -0.03467037 -0.03473774 0.03929386
v -0.03384468 -0.03505344 0.03751525
v -0.03239560 -0.03602999 0.03632074
v -0.03254905 -0.03616048 0.03751525
v -0.03239211 -0.03629377 0.03751525
v -0.03438439 -0.03434348 0.04644627
v -0.03445588 -0.03451746 0.04587093
v -0.03486480 -0.03379767 0.04644627
v -0.03511155 -0.03422281 0.04471293
v -0.04129938 -0.02294055 0.04644627
v -0.03239211 -0.03320837 0.03152813
v -0.03585614 -0.03353810 0.04407187
v -0.03835063 -0.03009211 0.04467788
v -0.03947886 -0.02881810 0.04420329
v -0.03600873 -0.03374857 0.04228888
v -0.03597472 -0.03368823 0.04109583
v -0.04075880 -0.02652965 0.03273869
v -0.03832709 -0.03005422 0.03632074
v -0.04069079 -0.02643845 0.03189758
v -0.03676989 -0.03203819 0.03751525
v -0.03562248 -0.03328274 0.03751525
v -0.03468606 -0.03356195 0.03444867
v -0.03434951 -0.03321399 0.03154419
v -0.03433992 -0.03321960 0.03152813
v -0.03375052 -0.03379767 0.03152813
v -0.03307655 -0.03439679 0.03154419
v -0.03299285 -0.03551927 0.03632074
v -0.03239211 -0.03602718 0.03629592
v -0.03239211 -0.03524426 0.03273869
v -0.04037778 -0.02673731 0.04644627
v -0.04074485 -0.02651703 0.04587093
v -0.04129850 -0.02276656 0.03152813
v -0.04129938 -0.02319310 0.03255324
v -0.04129938 -0.02554328 0.04644627
v -0.03239211 -0.03497767 0.03152813
v -0.04129938 -0.02580987 0.04584902
v -0.04129938 -0.02625605 0.04348338
v -0.03948933 -0.02883353 0.04348338
v -0.04129938 -0.02587581 0.04564750
v -0.04129938 -0.02616906 0.04467788
v -0.04129938 -0.02620694 0.04427923
v -0.03744299 -0.03170706 0.04228888
v -0.03982065 -0.02811234 0.03632074
v -0.04040133 -0.02724102 0.03512624
v -0.04080763 -0.02661103 0.03393320
v -0.03839684 -0.03015525 0.03751525
v -0.04034640 -0.02720875 0.03393320
v -0.04129938 -0.02579724 0.03273869
v -0.04129938 -0.02558958 0.03152813
v -0.04105873 -0.02589405 0.03152813
v -0.04019207 -0.02688323 0.03152813
v -0.03989737 -0.02720454 0.03152813
v -0.03918939 -0.02797624 0.03152813
v -0.03952856 -0.02766616 0.03175739
v -0.03963668 -0.02778402 0.03273869
v -0.03663823 -0.03189508 0.03632074
v -0.03551262 -0.03196944 0.03154419
v -0.03491363 -0.03261486 0.03152813
v -0.03435474 -0.03320416 0.03152813
v -0.03308352 -0.03438697 0.03152813
v -0.03247755 -0.03490471 0.03152813
v -0.04064720 -0.02639215 0.04644627
v -0.04129938 -0.02451762 0.03152813
v -0.04113720 -0.02575655 0.04644627
v -0.04129938 -0.02572147 0.04604908
v -0.04129938 -0.02577058 0.04593810
v -0.04129938 -0.02613118 0.03990133
v -0.03905600 -0.02941020 0.04228888
v -0.04129938 -0.02600630 0.03632074
v -0.04129938 -0.02596140 0.03504446
v -0.04082245 -0.02664331 0.03512624
v -0.04129938 -0.02594597 0.03469546
v -0.04129938 -0.02590809 0.03393320
v -0.03845613 -0.02877320 0.03152813
v -0.03835674 -0.02888545 0.03154419
v -0.03848926 -0.02902856 0.03273869
v -0.03665044 -0.03073192 0.03152813
f 1 2 3
f 1 3 7
f 1 7 18
f 1 18 34
f 1 34 57
f 1 57 58
f 1 58 64
f 1 64 40
f 1 40 23
f 1 23 11
f 1 11 4
f 1 4 2
f 2 5 6
f 2 6 3
f 2 4 5
f 3 6 7
f 4 8 9
f 4 9 10
f 4 10 5
f 4 11 12
f 4 12 8
f 5 10 13
f 5 13 14
f 5 14 15
f 5 15 16
f 5 16 6
f 6 16 17
f 6 17 18
f 6 18 7
f 8 12 11
f 8 11 19
f 8 19 20
f 8 20 9
f 9 20 10
f 10 20 21
f 10 21 22
f 10 22 13
f 11 23 39
f 11 39 63
f 11 63 93
f 11 93 91
f 11 91 59
f 11 59 37
f 11 37 35
f 11 35 20
f 11 20 19
f 13 24 25
f 13 25 26
f 13 26 14
f 13 22 24
f 14 26 27
f 14 27 15
f 15 27 28
f 15 28 29
f 15 29 16
f 16 29 30
f 16 30 17
f 17 30 31
f 17 31 32
f 17 32 33
f 17 33 34
f 17 34 18
f 20 35 36
f 20 36 21
f 21 36 35
f 21 35 37
f 21 37 38
f 21 38 22
f 22 38 24
f 23 40 39
f 24 41 42
f 24 42 43
f 24 43 25
f 24 38 41
f 25 43 44
f 25 44 26
f 26 44 45
f 26 45 27
f 27 45 28
f 28 30 29
f 28 45 46
f 28 46 47
f 28 47 48
f 28 48 49
f 28 49 50
f 28 50 30
f 30 50 51
f 30 51 52
f 30 52 53
f 30 53 54
f 30 54 55
f 30 55 31
f 31 55 56
f 31 56 32
f 32 57 34
f 32 34 33
f 32 56 55
f 32 55 58
f 32 58 57
f 37 59 60
f 37 60 42
f 37 42 38
f 38 42 41
f 39 61 62
f 39 62 92
f 39 92 78
f 39 78 77
f 39 77 102
f 39 102 101
f 39 101 99
f 39 99 98
f 39 98 96
f 39 96 66
f 39 66 70
f 39 70 69
f 39 69 68
f 39 68 65
f 39 65 95
f 39 95 94
f 39 94 63
f 39 40 61
f 40 64 90
f 40 90 89
f 40 89 54
f 40 54 53
f 40 53 88
f 40 88 87
f 40 87 106
f 40 106 103
f 40 103 82
f 40 82 81
f 40 81 80
f 40 80 79
f 40 79 78
f 40 78 92
f 40 92 61
f 42 60 65
f 42 65 43
f 43 66 67
f 43 67 44
f 43 65 68
f 43 68 69
f 43 69 70
f 43 70 66
f 44 67 71
f 44 71 72
f 44 72 73
f 44 73 74
f 44 74 75
f 44 75 45
f 45 75 46
f 46 75 76
f 46 76 74
f 46 74 77
f 46 77 78
f 46 78 48
f 46 48 47
f 48 78 79
f 48 79 80
f 48 80 81
f 48 81 82
f 48 82 83
f 48 83 84
f 48 84 49
f 49 84 85
f 49 85 50
f 50 85 86
f 50 86 87
f 50 87 51
f 51 87 52
f 52 87 88
f 52 88 53
f 54 89 55
f 55 89 90
f 55 90 64
f 55 64 58
f 59 91 60
f 60 91 65
f 61 92 62
f 63 94 93
f 65 91 95
f 66 96 97
f 66 97 67
f 67 97 71
f 71 97 72
f 72 98 99
f 72 99 100
f 72 100 73
f 72 97 98
f 73 100 74
f 74 100 101
f 74 101 102
f 74 102 77
f 74 76 75
f 82 103 104
f 82 104 83
f 83 105 85
f 83 85 84
f 83 104 106
f 83 106 105
f 85 105 106
f 85 106 86
f 86 106 87
f 91 93 95
f 93 94 95
f 96 98 97
f 99 101 100
f 103 106 104

