# https://github.com/mikedh/trimesh
v 0.00001009 0.04318211 0.06527041
v 0.00001009 0.04100513 0.06527041
v -0.00023569 0.04318211 0.06527041
v 0.00001009 0.03930358 0.07395842
v 0.00001009 0.03534833 0.07930271
v -0.02145108 0.02614164 0.08098167
v -0.02145108 0.02649029 0.08031954
v -0.02145108 0.03501969 0.06527041
v -0.00063904 0.04317877 0.06527041
v -0.00012645 0.03930358 0.07395842
v 0.00001009 0.03698815 0.07889597
v 0.00001009 0.03494963 0.08049768
v -0.02145108 0.02614164 0.08111882
v -0.02145108 0.03748693 0.06527041
v -0.00950627 0.04200270 0.06527041
v -0.00035754 0.03814587 0.07642720
v -0.01019111 0.04191095 0.06527041
v -0.01048941 0.04187091 0.06527041
v -0.00063904 0.03698314 0.07888494
v -0.00063904 0.03621912 0.08049768
v 0.00001009 0.03622579 0.08049768
v 0.00001009 0.03511979 0.08091230
v -0.02145108 0.02614831 0.08115508
v -0.02145108 0.03736849 0.06551003
v -0.02122840 0.03761372 0.06527041
v -0.01104401 0.04176582 0.06527041
v -0.01080452 0.04168241 0.06558255
v -0.00193309 0.03599391 0.08060961
v -0.00159907 0.03576704 0.08116769
v -0.00063904 0.03584378 0.08125124
v 0.00001009 0.03584878 0.08125597
v 0.00001009 0.03526492 0.08125597
v -0.02145108 0.02644024 0.08128120
v -0.02145108 0.03731845 0.06560778
v -0.02060448 0.03706489 0.06708337
v -0.02099312 0.03774384 0.06527041
v -0.01152298 0.04163236 0.06527041
v -0.01199144 0.03810082 0.07274610
v -0.00961130 0.03451924 0.08109832
v -0.00899789 0.03456929 0.08115981
v -0.00780256 0.03466437 0.08126385
v -0.00660934 0.03476113 0.08134111
v -0.00541612 0.03484120 0.08137579
v -0.00541612 0.03420729 0.08137579
v -0.00422080 0.03428069 0.08134583
v -0.02145108 0.02678055 0.08129539
v -0.02145108 0.03713495 0.06596248
v -0.01945328 0.03704987 0.06828623
v -0.02140066 0.03680798 0.06661515
v -0.02024946 0.03683801 0.06787949
v -0.01431696 0.03447754 0.07865950
v -0.02054146 0.03795236 0.06527041
v -0.01183389 0.04152560 0.06527041
v -0.01227714 0.04060643 0.06703922
v -0.01236748 0.03945038 0.06950958
v -0.01352078 0.03465937 0.07902367
v -0.01302291 0.03445251 0.07981979
v -0.01260486 0.03478115 0.07937365
v -0.01222673 0.03457262 0.08002158
v -0.01138433 0.03464769 0.08018712
v -0.01260486 0.03424065 0.08045039
v -0.01257755 0.03362343 0.08134426
v -0.01973898 0.02791658 0.08131746
v -0.02145108 0.02736108 0.08128750
v -0.02145108 0.03678963 0.06658835
v -0.01826846 0.03703319 0.06944652
v -0.01941126 0.03820592 0.06581745
v -0.01966545 0.03834605 0.06527041
v -0.01820964 0.03587214 0.07184908
v -0.01581059 0.03467772 0.07661165
v -0.01454594 0.03345160 0.08011144
v -0.01420983 0.03320305 0.08090599
v -0.01379598 0.03369850 0.08050399
v -0.01341364 0.03348330 0.08124336
v -0.01259435 0.04126370 0.06527041
v -0.01288846 0.04114692 0.06527041
v -0.01350818 0.04062311 0.06587893
v -0.01519087 0.03913677 0.06762252
v -0.01491567 0.03830101 0.06971768
v -0.01580639 0.03700316 0.07176553
v -0.01475392 0.03240732 0.08129223
v -0.02145108 0.02760296 0.08122917
v -0.01822854 0.02994342 0.08126228
v -0.01974108 0.02878737 0.08126228
v -0.02145108 0.03313632 0.07248283
v -0.02034609 0.03452091 0.07155270
v -0.01744707 0.03398709 0.07583129
v -0.01694499 0.03465436 0.07534573
v -0.01694709 0.03817589 0.06813646
v -0.01685886 0.03933194 0.06566611
v -0.01709414 0.03941368 0.06527041
v -0.01504802 0.03278433 0.08059543
v -0.01568034 0.03340823 0.07884553
v -0.01588622 0.03236562 0.08028328
v -0.01768655 0.03074081 0.08078145
v -0.02036500 0.02856550 0.08111567
v -0.01555010 0.03210872 0.08107941
v -0.01689037 0.03103108 0.08118819
v -0.01376447 0.04078993 0.06527041
v -0.02145108 0.02792659 0.08082875
v -0.02145108 0.02933453 0.07860905
v -0.02145108 0.02896253 0.07920812
v -0.02063179 0.02876068 0.08049768
v -0.02145108 0.02815847 0.08048665
f 1 2 8
f 1 8 14
f 1 14 25
f 1 25 36
f 1 36 52
f 1 52 68
f 1 68 91
f 1 91 99
f 1 99 76
f 1 76 75
f 1 75 53
f 1 53 37
f 1 37 26
f 1 26 18
f 1 18 17
f 1 17 15
f 1 15 9
f 1 9 3
f 1 3 10
f 1 10 4
f 1 4 11
f 1 11 21
f 1 21 31
f 1 31 32
f 1 32 22
f 1 22 12
f 1 12 5
f 1 5 2
f 2 5 6
f 2 6 7
f 2 7 8
f 3 9 10
f 4 10 16
f 4 16 11
f 5 12 6
f 6 13 23
f 6 23 33
f 6 33 46
f 6 46 64
f 6 64 82
f 6 82 100
f 6 100 104
f 6 104 102
f 6 102 101
f 6 101 85
f 6 85 65
f 6 65 47
f 6 47 34
f 6 34 24
f 6 24 14
f 6 14 8
f 6 8 7
f 6 12 13
f 9 15 10
f 10 15 17
f 10 17 18
f 10 18 16
f 11 16 19
f 11 19 20
f 11 20 21
f 12 22 23
f 12 23 13
f 14 24 25
f 16 18 19
f 18 26 27
f 18 27 19
f 19 28 20
f 19 27 28
f 20 28 29
f 20 29 30
f 20 30 31
f 20 31 21
f 22 32 23
f 23 32 33
f 24 34 35
f 24 35 25
f 25 35 36
f 26 37 38
f 26 38 27
f 27 38 28
f 28 38 39
f 28 39 29
f 29 39 40
f 29 40 30
f 30 40 41
f 30 41 42
f 30 42 43
f 30 43 31
f 31 43 44
f 31 44 32
f 32 44 45
f 32 45 33
f 33 45 44
f 33 44 46
f 34 47 35
f 35 48 36
f 35 47 49
f 35 49 50
f 35 50 51
f 35 51 48
f 36 48 52
f 37 53 54
f 37 54 38
f 38 54 55
f 38 55 56
f 38 56 57
f 38 57 58
f 38 58 59
f 38 59 60
f 38 60 39
f 39 60 59
f 39 59 61
f 39 61 62
f 39 62 40
f 40 62 41
f 41 62 42
f 42 62 43
f 43 62 63
f 43 63 44
f 44 63 46
f 46 63 64
f 47 65 49
f 48 66 67
f 48 67 68
f 48 68 52
f 48 51 66
f 49 65 69
f 49 69 50
f 50 69 51
f 51 70 71
f 51 71 72
f 51 72 73
f 51 73 74
f 51 74 56
f 51 56 66
f 51 69 70
f 53 75 54
f 54 75 76
f 54 76 77
f 54 77 55
f 55 77 78
f 55 78 79
f 55 79 56
f 56 79 80
f 56 80 67
f 56 67 66
f 56 74 57
f 57 74 61
f 57 61 59
f 57 59 58
f 61 74 62
f 62 74 81
f 62 81 64
f 62 64 63
f 64 81 83
f 64 83 84
f 64 84 82
f 65 85 86
f 65 86 87
f 65 87 88
f 65 88 70
f 65 70 69
f 67 80 89
f 67 89 79
f 67 79 78
f 67 78 90
f 67 90 91
f 67 91 68
f 70 88 71
f 71 92 72
f 71 88 87
f 71 87 93
f 71 93 94
f 71 94 92
f 72 74 73
f 72 92 95
f 72 95 96
f 72 96 97
f 72 97 74
f 74 97 98
f 74 98 83
f 74 83 81
f 76 99 77
f 77 99 91
f 77 91 90
f 77 90 78
f 79 89 80
f 82 84 83
f 82 83 96
f 82 96 100
f 83 98 96
f 85 101 95
f 85 95 87
f 85 87 86
f 87 95 93
f 92 94 95
f 93 95 94
f 95 101 102
f 95 102 103
f 95 103 96
f 96 103 104
f 96 104 100
f 96 98 97
f 102 104 103

