# https://github.com/mikedh/trimesh
v 0.03938561 -0.02397411 0.02233220
v 0.03937407 -0.02398896 0.02233220
v 0.03915101 -0.02397411 0.02213425
v 0.03662427 -0.02397411 0.02233220
v 0.03920100 -0.02419682 0.02233220
v 0.03451673 -0.02868705 0.02144999
v 0.03563973 -0.02740170 0.02150672
v 0.03675503 -0.02610999 0.02156049
v 0.03787033 -0.02481404 0.02161190
v 0.03880488 -0.02397411 0.02184648
v 0.00010003 -0.02397411 0.01739761
v 0.00010003 -0.04337521 0.02233220
v 0.03814339 -0.02538884 0.02233220
v 0.03338989 -0.02996391 0.02139386
v 0.03818569 -0.02401865 0.02138736
v 0.03820108 -0.02397411 0.02138322
v 0.00010003 -0.02397411 0.01629559
v 0.00010003 -0.04500841 0.02233220
v 0.03707809 -0.02656814 0.02233220
v 0.03302069 -0.03075506 0.02199185
v 0.03242458 -0.03140197 0.02199185
v 0.03127466 -0.03264702 0.02199185
v 0.03012475 -0.03388783 0.02199185
v 0.03222844 -0.03119411 0.02136608
v 0.02916713 -0.03408508 0.02114036
v 0.03034396 -0.03287185 0.02118645
v 0.03269379 -0.03044115 0.02128572
v 0.03363988 -0.02936578 0.02130168
v 0.03484363 -0.02789166 0.02130049
v 0.03595893 -0.02660419 0.02132945
v 0.03707423 -0.02531460 0.02135840
v 0.03595893 -0.02776864 0.02230266
v 0.03814339 -0.02397411 0.02136727
v 0.03278994 -0.02936578 0.02101804
v 0.02641733 -0.03381571 0.02014883
v 0.00184605 -0.02589789 0.01655381
v 0.00010003 -0.02412895 0.01631331
v 0.00113841 -0.02397411 0.01632513
v 0.01607962 -0.03055992 0.01740648
v 0.01488356 -0.03055992 0.01737457
v 0.01369134 -0.03055992 0.01734679
v 0.00647264 -0.04557049 0.02233220
v 0.00010003 -0.04483449 0.02199185
v 0.03596663 -0.02777713 0.02233220
v 0.03327836 -0.03069355 0.02233220
v 0.03138235 -0.03274671 0.02233220
v 0.03106698 -0.03242219 0.02133890
v 0.02984785 -0.03439900 0.02233220
v 0.02956709 -0.03448596 0.02199185
v 0.02874023 -0.03487199 0.02128454
v 0.02797875 -0.03529619 0.02110313
v 0.02801721 -0.03414023 0.02074328
v 0.03040550 -0.03175407 0.02087977
v 0.03159772 -0.03055992 0.02094832
v 0.02804413 -0.02397411 0.01870586
v 0.02282528 -0.03260672 0.01895817
v 0.02031393 -0.03004451 0.01779765
v 0.02167921 -0.02789378 0.01775274
v 0.02275606 -0.02654056 0.01778229
v 0.02383675 -0.02518734 0.01781301
v 0.02405212 -0.02458921 0.01775747
v 0.02682114 -0.03533225 0.02069778
v 0.02532895 -0.03492926 0.02012579
v 0.02568661 -0.03418477 0.02003006
v 0.00055769 -0.02578335 0.01651481
v 0.00010003 -0.02532309 0.01645099
v 0.01249912 -0.03055992 0.01732316
v 0.00587653 -0.02397411 0.01649413
v 0.01727184 -0.02936578 0.01734266
v 0.01727184 -0.03055992 0.01744193
v 0.01488356 -0.03175407 0.01752879
v 0.01369134 -0.03175407 0.01749511
v 0.01249912 -0.03175407 0.01746852
v 0.00652648 -0.04557473 0.02233220
v 0.00010003 -0.04468601 0.02171885
v 0.00010003 -0.04442725 0.02126918
v 0.00772254 -0.04529051 0.02166508
v 0.02966324 -0.03459201 0.02233220
v 0.02897098 -0.03510742 0.02199185
v 0.02839026 -0.03570555 0.02199185
v 0.02755955 -0.03603856 0.02127390
v 0.02427902 -0.02397411 0.01771374
v 0.01923709 -0.03134470 0.01776751
v 0.01964475 -0.03048781 0.01771611
v 0.02055237 -0.02936578 0.01773797
v 0.02093696 -0.02824375 0.01765288
v 0.02206380 -0.02695416 0.01769483
v 0.02682114 -0.03623157 0.02112382
v 0.02443286 -0.03652639 0.02064873
v 0.02443286 -0.03516045 0.02003479
v 0.02169844 -0.03366300 0.01896054
v 0.02207534 -0.03298214 0.01885654
v 0.00010003 -0.02578335 0.01650595
v 0.01130305 -0.03175407 0.01744547
v 0.00772254 -0.03175407 0.01737693
v 0.00891477 -0.03055992 0.01725461
v 0.00651879 -0.02397411 0.01651717
v 0.01727184 -0.02817164 0.01724516
v 0.01846791 -0.02817164 0.01730661
v 0.01846791 -0.02936578 0.01741061
v 0.01846791 -0.03055992 0.01752761
v 0.01727184 -0.03175407 0.01761211
v 0.01607962 -0.03175407 0.01756838
v 0.01369134 -0.03277216 0.01769247
v 0.00652648 -0.03394085 0.01769779
v 0.00055769 -0.03414023 0.01755125
v 0.00010003 -0.03414023 0.01753706
v 0.00652648 -0.03294609 0.01750456
v 0.00533426 -0.03294609 0.01747679
v 0.00681492 -0.04559594 0.02233220
v 0.00010003 -0.04415151 0.02112736
v 0.00652648 -0.04464147 0.02115927
v 0.00772254 -0.04561927 0.02226248
v 0.00772254 -0.04469238 0.02115277
v 0.00891477 -0.04469450 0.02117109
v 0.00891477 -0.04529051 0.02173126
v 0.02906713 -0.03520499 0.02233220
v 0.02867101 -0.03561223 0.02233220
v 0.02848641 -0.03579888 0.02233220
v 0.02779415 -0.03621884 0.02199185
v 0.02696344 -0.03688697 0.02233220
v 0.02681345 -0.03681485 0.02198653
v 0.02604428 -0.03702059 0.02158472
v 0.02524818 -0.03723270 0.02127922
v 0.02324064 -0.02458921 0.01759261
v 0.02324064 -0.02397411 0.01752111
v 0.01797179 -0.03239674 0.01779588
v 0.01841022 -0.03174770 0.01771433
v 0.01966013 -0.02936578 0.01755952
v 0.02047161 -0.03962098 0.02128809
v 0.01808332 -0.04081301 0.02129399
v 0.02443286 -0.03742571 0.02113386
v 0.02332525 -0.03650094 0.02039642
v 0.01569119 -0.04200290 0.02130168
v 0.01329521 -0.04318857 0.02131113
v 0.01089154 -0.04437422 0.02132177
v 0.02298681 -0.03608734 0.02013938
v 0.02332525 -0.03543830 0.01994497
v 0.02085235 -0.03386025 0.01888372
v 0.00010003 -0.02623089 0.01656031
v 0.00413819 -0.03294609 0.01745375
v 0.00055769 -0.03294609 0.01738520
v 0.00174991 -0.03175407 0.01726289
v 0.00728412 -0.02397411 0.01654613
v 0.01846791 -0.02697749 0.01721089
v 0.00869170 -0.02397411 0.01660049
v 0.01966013 -0.02697749 0.01731548
v 0.01966013 -0.02817164 0.01742538
v 0.01727184 -0.03247734 0.01777224
v 0.01607962 -0.03258339 0.01774270
v 0.01488356 -0.03267884 0.01771492
v 0.00010003 -0.03505227 0.01771906
v 0.00010003 -0.03294609 0.01737693
v 0.00772254 -0.04564048 0.02233220
v 0.00010003 -0.04369125 0.02089750
v 0.00174991 -0.04213441 0.02009270
v 0.00891477 -0.04557685 0.02233220
v 0.00294597 -0.04217047 0.02008206
v 0.00413819 -0.04217683 0.02009565
v 0.00891477 -0.04369125 0.02081537
v 0.01011083 -0.04369125 0.02088568
v 0.01011083 -0.04454391 0.02123550
v 0.00533426 -0.04213441 0.02012461
v 0.01003776 -0.04512719 0.02204975
v 0.00945319 -0.04546444 0.02233220
v 0.02785953 -0.03630793 0.02233220
v 0.02646348 -0.03717331 0.02233220
v 0.02639041 -0.03721149 0.02233220
v 0.02401366 -0.03840563 0.02233220
v 0.02365599 -0.03821474 0.02158472
v 0.02204457 -0.02578335 0.01753411
v 0.02085235 -0.02697749 0.01747797
v 0.02204457 -0.02458921 0.01740648
v 0.02204457 -0.02397411 0.01734975
v 0.01965244 -0.03420174 0.01880336
v 0.01311830 -0.04071756 0.02019611
v 0.01249912 -0.04085118 0.02014824
v 0.01249912 -0.04010882 0.01988943
v 0.01130305 -0.04105056 0.02008856
v 0.02126770 -0.03940464 0.02158472
v 0.01887942 -0.04059242 0.02158472
v 0.01648729 -0.04178020 0.02158472
v 0.01409131 -0.04296798 0.02158472
v 0.01129536 -0.04372943 0.02111554
v 0.01168764 -0.04415364 0.02158472
v 0.01129536 -0.04455663 0.02198653
v 0.01805640 -0.03840139 0.02016774
v 0.01846022 -0.03778205 0.01999638
v 0.00010003 -0.02654692 0.01659872
v 0.01846791 -0.02578335 0.01715121
v 0.01966013 -0.02458921 0.01715712
v 0.01966013 -0.02578335 0.01722152
v 0.01966013 -0.02397411 0.01713939
v 0.02085235 -0.02458921 0.01725757
v 0.01130305 -0.04010882 0.01979489
v 0.01369903 -0.03662820 0.01885536
v 0.01098000 -0.03358876 0.01780001
v 0.00891477 -0.03375208 0.01774979
v 0.00772254 -0.03384753 0.01772201
v 0.00055769 -0.03501622 0.01772911
v 0.00010003 -0.03885105 0.01887072
v 0.00010003 -0.04207290 0.02012047
v 0.00010003 -0.04178656 0.01998870
v 0.00010003 -0.04130296 0.01977302
v 0.00055769 -0.04130296 0.01976180
v 0.00010003 -0.04084270 0.01958453
v 0.00174991 -0.04130296 0.01975352
v 0.00294597 -0.04130296 0.01976711
v 0.00413819 -0.04130296 0.01980966
v 0.00772254 -0.04195836 0.02018251
v 0.00836865 -0.04190746 0.02019847
v 0.00652648 -0.04205381 0.02015356
v 0.00974932 -0.04537323 0.02233220
v 0.01199915 -0.04440816 0.02233220
v 0.01446436 -0.04318008 0.02233220
v 0.01214914 -0.04433392 0.02233220
v 0.02085235 -0.02397411 0.01721621
v 0.01011083 -0.04117146 0.02005961
v 0.01207223 -0.04437210 0.02233220
v 0.00772254 -0.04130296 0.01998338
v 0.00371130 -0.03476594 0.01780474
v 0.00055769 -0.03877257 0.01886895
v 0.00533426 -0.04130296 0.01986757
f 1 2 3
f 1 3 10
f 1 10 16
f 1 16 33
f 1 33 55
f 1 55 82
f 1 82 126
f 1 126 174
f 1 174 217
f 1 217 193
f 1 193 146
f 1 146 144
f 1 144 97
f 1 97 68
f 1 68 38
f 1 38 17
f 1 17 11
f 1 11 4
f 1 4 12
f 1 12 18
f 1 18 42
f 1 42 74
f 1 74 110
f 1 110 154
f 1 154 157
f 1 157 165
f 1 165 213
f 1 213 214
f 1 214 219
f 1 219 216
f 1 216 215
f 1 215 169
f 1 169 168
f 1 168 167
f 1 167 121
f 1 121 166
f 1 166 119
f 1 119 118
f 1 118 117
f 1 117 78
f 1 78 48
f 1 48 46
f 1 46 45
f 1 45 44
f 1 44 19
f 1 19 13
f 1 13 5
f 1 5 2
f 2 5 6
f 2 6 7
f 2 7 8
f 2 8 9
f 2 9 3
f 3 9 10
f 4 11 12
f 5 13 14
f 5 14 6
f 6 15 7
f 6 14 15
f 7 15 8
f 8 15 9
f 9 15 10
f 10 15 16
f 11 17 37
f 11 37 66
f 11 66 93
f 11 93 140
f 11 140 189
f 11 189 153
f 11 153 107
f 11 107 152
f 11 152 201
f 11 201 206
f 11 206 204
f 11 204 203
f 11 203 202
f 11 202 155
f 11 155 111
f 11 111 76
f 11 76 75
f 11 75 43
f 11 43 18
f 11 18 12
f 13 19 14
f 14 20 21
f 14 21 22
f 14 22 23
f 14 23 24
f 14 24 25
f 14 25 26
f 14 26 27
f 14 27 28
f 14 28 29
f 14 29 30
f 14 30 31
f 14 31 15
f 14 19 32
f 14 32 20
f 15 33 16
f 15 31 34
f 15 34 35
f 15 35 33
f 17 36 37
f 17 38 39
f 17 39 40
f 17 40 41
f 17 41 36
f 18 43 42
f 19 44 32
f 20 32 21
f 21 32 45
f 21 45 46
f 21 46 22
f 22 46 23
f 23 47 24
f 23 46 48
f 23 48 49
f 23 49 47
f 24 47 25
f 25 50 51
f 25 51 52
f 25 52 26
f 25 47 50
f 26 52 27
f 27 52 28
f 28 52 53
f 28 53 54
f 28 54 34
f 28 34 29
f 29 34 30
f 30 34 31
f 32 44 45
f 33 35 56
f 33 56 57
f 33 57 58
f 33 58 59
f 33 59 60
f 33 60 61
f 33 61 55
f 34 54 35
f 35 54 53
f 35 53 52
f 35 52 62
f 35 62 63
f 35 63 64
f 35 64 56
f 36 65 66
f 36 66 37
f 36 41 67
f 36 67 65
f 38 68 69
f 38 69 70
f 38 70 39
f 39 70 71
f 39 71 72
f 39 72 40
f 40 72 41
f 41 72 73
f 41 73 67
f 42 43 75
f 42 75 76
f 42 76 77
f 42 77 74
f 47 49 50
f 48 78 49
f 49 78 79
f 49 79 50
f 50 79 80
f 50 80 81
f 50 81 51
f 51 81 62
f 51 62 52
f 55 61 82
f 56 83 57
f 56 64 83
f 57 83 84
f 57 84 85
f 57 85 58
f 58 85 84
f 58 84 86
f 58 86 87
f 58 87 82
f 58 82 61
f 58 61 59
f 59 61 60
f 62 88 89
f 62 89 63
f 62 81 88
f 63 90 91
f 63 91 92
f 63 92 64
f 63 89 90
f 64 92 83
f 65 93 66
f 65 67 93
f 67 73 94
f 67 94 95
f 67 95 96
f 67 96 93
f 68 97 98
f 68 98 69
f 69 98 99
f 69 99 70
f 70 99 100
f 70 100 101
f 70 101 102
f 70 102 103
f 70 103 71
f 71 104 105
f 71 105 106
f 71 106 107
f 71 107 108
f 71 108 72
f 71 103 104
f 72 108 109
f 72 109 73
f 73 109 141
f 73 141 94
f 74 77 110
f 76 111 112
f 76 112 77
f 77 113 110
f 77 112 114
f 77 114 115
f 77 115 116
f 77 116 113
f 78 117 80
f 78 80 79
f 80 117 118
f 80 118 119
f 80 119 120
f 80 120 81
f 81 120 121
f 81 121 122
f 81 122 123
f 81 123 124
f 81 124 88
f 82 87 125
f 82 125 126
f 83 127 128
f 83 128 101
f 83 101 129
f 83 129 84
f 83 92 91
f 83 91 127
f 84 129 86
f 86 129 125
f 86 125 87
f 88 124 130
f 88 130 131
f 88 131 132
f 88 132 89
f 89 133 90
f 89 132 134
f 89 134 135
f 89 135 136
f 89 136 133
f 90 133 137
f 90 137 138
f 90 138 139
f 90 139 127
f 90 127 91
f 93 96 140
f 94 141 142
f 94 142 95
f 95 142 143
f 95 143 140
f 95 140 96
f 97 144 98
f 98 145 99
f 98 144 146
f 98 146 145
f 99 145 147
f 99 147 100
f 100 147 148
f 100 148 101
f 101 128 102
f 101 148 129
f 102 149 150
f 102 150 151
f 102 151 103
f 102 128 127
f 102 127 149
f 103 151 104
f 104 151 105
f 105 151 152
f 105 152 106
f 106 152 107
f 107 153 142
f 107 142 141
f 107 141 109
f 107 109 108
f 110 113 154
f 111 155 112
f 112 155 156
f 112 156 114
f 113 157 154
f 113 116 157
f 114 156 158
f 114 158 159
f 114 159 115
f 115 160 161
f 115 161 162
f 115 162 116
f 115 159 163
f 115 163 160
f 116 162 136
f 116 136 164
f 116 164 165
f 116 165 157
f 119 166 120
f 120 166 121
f 121 167 122
f 122 167 123
f 123 167 168
f 123 168 169
f 123 169 170
f 123 170 124
f 124 170 130
f 125 129 171
f 125 171 126
f 126 171 172
f 126 172 173
f 126 173 174
f 127 139 175
f 127 175 176
f 127 176 177
f 127 177 178
f 127 178 179
f 127 179 149
f 129 148 172
f 129 172 171
f 130 170 180
f 130 180 131
f 131 181 182
f 131 182 183
f 131 183 134
f 131 134 132
f 131 180 181
f 133 136 184
f 133 184 137
f 134 183 185
f 134 185 135
f 135 185 136
f 136 185 186
f 136 186 164
f 136 162 184
f 137 187 188
f 137 188 175
f 137 175 138
f 137 184 187
f 138 175 139
f 140 143 189
f 142 153 189
f 142 189 143
f 145 190 191
f 145 191 192
f 145 192 147
f 145 146 190
f 146 193 191
f 146 191 190
f 147 192 194
f 147 194 174
f 147 174 148
f 148 174 173
f 148 173 172
f 149 179 195
f 149 195 196
f 149 196 150
f 150 196 195
f 150 195 197
f 150 197 198
f 150 198 200
f 150 200 199
f 150 199 151
f 151 199 152
f 152 200 201
f 152 199 200
f 155 202 156
f 156 202 203
f 156 203 204
f 156 204 205
f 156 205 158
f 158 205 206
f 158 206 207
f 158 207 159
f 159 207 208
f 159 208 209
f 159 209 163
f 160 210 211
f 160 211 179
f 160 179 161
f 160 163 212
f 160 212 210
f 161 179 177
f 161 177 176
f 161 176 162
f 162 176 184
f 163 209 212
f 164 213 165
f 164 186 214
f 164 214 213
f 169 215 170
f 170 215 216
f 170 216 180
f 174 194 217
f 175 188 176
f 176 188 187
f 176 187 184
f 177 179 178
f 179 211 218
f 179 218 195
f 180 216 181
f 181 216 182
f 182 216 219
f 182 219 183
f 183 219 214
f 183 214 185
f 185 214 186
f 191 193 217
f 191 217 192
f 192 217 194
f 195 218 220
f 195 220 197
f 197 220 221
f 197 221 198
f 198 221 200
f 200 221 201
f 201 207 206
f 201 221 222
f 201 222 209
f 201 209 208
f 201 208 207
f 204 206 205
f 209 221 223
f 209 223 212
f 209 222 221
f 210 220 211
f 210 212 223
f 210 223 220
f 211 220 218
f 220 223 221

