# https://github.com/mikedh/trimesh
v -0.00411831 0.01218010 0.01728974
v -0.00411831 -0.00426204 0.01728974
v -0.00411831 0.01218010 0.01606818
v -0.02213944 0.01218010 0.01752868
v -0.00411831 -0.00426204 0.01607612
v -0.01615944 -0.00426204 0.01738955
v -0.01030998 -0.00426204 0.01393207
v -0.01141249 -0.00426204 0.01366666
v -0.01312005 0.00383027 0.01418840
v -0.01299834 0.01218010 0.01529427
v -0.02213944 0.01218010 0.01640013
v -0.02213944 0.00048745 0.01746478
v -0.02213944 -0.00070676 0.01745571
v -0.01735368 -0.00426204 0.01738955
v -0.01257850 -0.00426204 0.01370976
v -0.01257850 -0.00309519 0.01367536
v -0.01377097 -0.00070676 0.01374568
v -0.01339347 0.00383027 0.01418840
v -0.01381507 0.01218010 0.01528141
v -0.02213944 0.00048745 0.01601525
v -0.01377097 0.00048745 0.01387082
v -0.01496521 -0.00070676 0.01399332
v -0.01571491 -0.00070676 0.01418991
v -0.01631291 -0.00070676 0.01434908
v -0.01735368 -0.00070676 0.01463604
v -0.02213944 -0.00426204 0.01738199
v -0.01260673 -0.00426204 0.01371203
v -0.01377097 -0.00190098 0.01369161
v -0.01964160 -0.00070676 0.01528481
v -0.02213944 -0.00069872 0.01599899
v -0.01496521 -0.00190098 0.01397063
v -0.01572726 -0.00190098 0.01418576
v -0.02213944 -0.00426204 0.01610334
v -0.01377097 -0.00426204 0.01393547
v -0.01377097 -0.00309519 0.01377328
v -0.02213944 -0.00070676 0.01599899
f 1 2 5
f 1 5 3
f 1 3 10
f 1 10 19
f 1 19 11
f 1 11 4
f 1 4 2
f 2 4 6
f 2 6 14
f 2 14 26
f 2 26 33
f 2 33 34
f 2 34 27
f 2 27 15
f 2 15 8
f 2 8 7
f 2 7 5
f 3 5 7
f 3 7 8
f 3 8 9
f 3 9 10
f 4 11 20
f 4 20 30
f 4 30 36
f 4 36 33
f 4 33 26
f 4 26 13
f 4 13 12
f 4 12 6
f 6 12 13
f 6 13 14
f 8 15 16
f 8 16 17
f 8 17 9
f 9 17 18
f 9 18 19
f 9 19 10
f 11 19 18
f 11 18 21
f 11 21 17
f 11 17 22
f 11 22 23
f 11 23 24
f 11 24 25
f 11 25 20
f 13 26 14
f 15 27 28
f 15 28 16
f 16 28 17
f 17 21 18
f 17 28 22
f 20 29 30
f 20 25 29
f 22 28 31
f 22 31 23
f 23 31 24
f 24 31 25
f 25 31 32
f 25 32 29
f 27 34 35
f 27 35 28
f 28 35 31
f 29 36 30
f 29 32 36
f 31 35 33
f 31 33 32
f 32 33 36
f 33 35 34

