# https://github.com/mikedh/trimesh
v -0.04095752 0.02565236 0.03154127
v -0.04083010 0.02565236 0.03034988
v -0.03932781 0.02565236 0.03154127
v -0.03957193 0.02752338 0.03154127
v -0.03940427 0.02732070 0.02984319
v -0.04056183 0.02565236 0.02956383
v -0.03951962 0.02745582 0.03063928
v -0.03594097 0.03223470 0.03076436
v -0.03439577 0.02565236 0.02221461
v -0.02725456 0.03811661 0.03154127
v -0.03912662 0.02812039 0.03154127
v -0.03973692 0.02652514 0.02915575
v -0.04033381 0.02576267 0.02915575
v -0.04041965 0.02565236 0.02915575
v -0.03599731 0.03230777 0.03154127
v -0.03553857 0.03290479 0.03154127
v -0.03494303 0.03367829 0.03154127
v -0.03483170 0.03353352 0.03059820
v -0.03830304 0.02861400 0.02964052
v -0.03643592 0.02565236 0.02221461
v -0.02725456 0.03350043 0.02221461
v -0.02725456 0.03973669 0.03154127
v -0.03842779 0.02757577 0.02819259
v -0.03692550 0.02838374 0.02643790
v -0.03611803 0.02886632 0.02557426
v -0.03954108 0.02628109 0.02836696
v -0.03764982 0.02913932 0.02916031
v -0.03810989 0.02837133 0.02884443
v -0.03933854 0.02600395 0.02757087
v -0.03976911 0.02565236 0.02790501
v -0.03444808 0.03427669 0.03154127
v -0.03369962 0.03470549 0.03055347
v -0.03416506 0.03402161 0.03017733
v -0.03345550 0.03330188 0.02739467
v -0.03358427 0.03226503 0.02594674
v -0.03476731 0.03225262 0.02835418
v -0.03496181 0.03249667 0.02915575
v -0.03575721 0.03199755 0.02996827
v -0.03718974 0.02990731 0.02947710
v -0.03765518 0.02565236 0.02428152
v -0.03640105 0.02570476 0.02221461
v -0.02725456 0.03561135 0.02221461
v -0.02725456 0.03958502 0.03041470
v -0.02761806 0.03937407 0.03062194
v -0.02769317 0.03942784 0.03154127
v -0.03404434 0.03149705 0.02563086
v -0.03367950 0.03118958 0.02438012
v -0.03285995 0.03150808 0.02322342
v -0.03593426 0.02863882 0.02484846
v -0.03332003 0.03072631 0.02290663
v -0.03522739 0.03148464 0.02803739
v -0.03765787 0.02676504 0.02556421
v -0.03830841 0.02624524 0.02607090
v -0.03361512 0.02993074 0.02235155
v -0.03915880 0.02565236 0.02685056
v -0.03385387 0.03482958 0.03154127
v -0.03347025 0.03451108 0.02975738
v -0.03241731 0.03581128 0.03072236
v -0.03294446 0.03516049 0.03023941
v -0.03218661 0.03203340 0.02274321
v -0.03773432 0.02565236 0.02441573
v -0.03618107 0.02603153 0.02221461
v -0.02869917 0.03451522 0.02221461
v -0.02725456 0.03615598 0.02325355
v -0.02725456 0.03948161 0.03003948
v -0.03109074 0.03690466 0.03093873
v -0.02910425 0.03839237 0.03154127
v -0.03255547 0.03125300 0.02221461
v -0.03381095 0.02952952 0.02221461
v -0.03422408 0.02892561 0.02221461
v -0.03727827 0.02648791 0.02459923
v -0.03807368 0.02589917 0.02527481
v -0.03467879 0.02856299 0.02256975
v -0.03343270 0.03007414 0.02221461
v -0.03357353 0.02987421 0.02221461
v -0.03310944 0.03542797 0.03154127
v -0.03165947 0.03389890 0.02561260
v -0.03135365 0.03353214 0.02438012
v -0.03141267 0.03241119 0.02221461
v -0.02877696 0.03815936 0.02962591
v -0.03133487 0.03590503 0.02915575
v -0.02747722 0.03925687 0.02982585
v -0.03202297 0.03186380 0.02221461
v -0.03457416 0.02840856 0.02221461
v -0.03007134 0.03345906 0.02221461
v -0.02853016 0.03557964 0.02403868
v -0.02725456 0.03736655 0.02561625
v -0.02725456 0.03912175 0.02915575
v -0.03111087 0.03691844 0.03154127
v -0.03251389 0.03587884 0.03154127
v -0.03170641 0.03647723 0.03154127
v -0.03008341 0.03585954 0.02705871
v -0.03114038 0.03336255 0.02369632
v -0.02853552 0.03677367 0.02643243
v -0.03088955 0.03316676 0.02290115
v -0.03009414 0.03347699 0.02228400
v -0.02725456 0.03855920 0.02799904
v -0.02901303 0.03715146 0.02796161
v -0.02930276 0.03750581 0.02914388
v -0.02879038 0.03578095 0.02483477
v -0.02773878 0.03708804 0.02580706
v -0.02902243 0.03596432 0.02557426
f 1 2 6
f 1 6 14
f 1 14 30
f 1 30 55
f 1 55 61
f 1 61 40
f 1 40 20
f 1 20 9
f 1 9 3
f 1 3 10
f 1 10 22
f 1 22 45
f 1 45 67
f 1 67 89
f 1 89 91
f 1 91 90
f 1 90 76
f 1 76 56
f 1 56 31
f 1 31 17
f 1 17 16
f 1 16 15
f 1 15 11
f 1 11 4
f 1 4 2
f 2 5 6
f 2 4 7
f 2 7 8
f 2 8 5
f 3 9 10
f 4 11 7
f 5 12 13
f 5 13 14
f 5 14 6
f 5 8 12
f 7 11 15
f 7 15 8
f 8 15 16
f 8 16 17
f 8 17 18
f 8 18 19
f 8 19 12
f 9 20 41
f 9 41 62
f 9 62 84
f 9 84 70
f 9 70 69
f 9 69 75
f 9 75 74
f 9 74 68
f 9 68 83
f 9 83 79
f 9 79 85
f 9 85 63
f 9 63 42
f 9 42 21
f 9 21 10
f 10 21 42
f 10 42 64
f 10 64 87
f 10 87 97
f 10 97 88
f 10 88 65
f 10 65 43
f 10 43 22
f 12 23 24
f 12 24 25
f 12 25 26
f 12 26 13
f 12 19 27
f 12 27 28
f 12 28 23
f 13 26 14
f 14 26 29
f 14 29 30
f 17 31 18
f 18 31 32
f 18 32 33
f 18 33 34
f 18 34 35
f 18 35 36
f 18 36 37
f 18 37 38
f 18 38 19
f 19 39 27
f 19 38 39
f 20 40 41
f 22 43 44
f 22 44 45
f 23 28 46
f 23 46 47
f 23 47 24
f 24 47 48
f 24 48 25
f 25 49 26
f 25 48 50
f 25 50 49
f 26 49 29
f 27 39 38
f 27 38 51
f 27 51 28
f 28 51 46
f 29 52 53
f 29 53 30
f 29 49 54
f 29 54 52
f 30 53 55
f 31 56 32
f 32 57 34
f 32 34 33
f 32 56 58
f 32 58 59
f 32 59 57
f 34 60 48
f 34 48 35
f 34 57 60
f 35 48 46
f 35 46 51
f 35 51 36
f 36 51 38
f 36 38 37
f 40 61 62
f 40 62 41
f 42 63 64
f 43 65 66
f 43 66 44
f 44 66 45
f 45 66 67
f 46 48 47
f 48 68 50
f 48 60 68
f 49 50 68
f 49 68 54
f 52 54 69
f 52 69 70
f 52 70 53
f 53 71 72
f 53 72 55
f 53 70 73
f 53 73 71
f 54 68 74
f 54 74 75
f 54 75 69
f 55 72 61
f 56 76 58
f 57 77 78
f 57 78 79
f 57 79 60
f 57 59 80
f 57 80 81
f 57 81 77
f 58 76 66
f 58 66 82
f 58 82 80
f 58 80 59
f 60 79 83
f 60 83 68
f 61 72 71
f 61 71 62
f 62 71 84
f 63 85 86
f 63 86 64
f 64 86 87
f 65 88 82
f 65 82 66
f 66 89 67
f 66 76 90
f 66 90 91
f 66 91 89
f 70 84 73
f 71 73 84
f 77 81 92
f 77 92 78
f 78 93 79
f 78 92 94
f 78 94 93
f 79 93 95
f 79 95 96
f 79 96 85
f 80 82 88
f 80 88 97
f 80 97 98
f 80 98 99
f 80 99 81
f 81 99 98
f 81 98 92
f 85 96 86
f 86 100 101
f 86 101 87
f 86 96 100
f 87 101 97
f 92 98 94
f 93 94 95
f 94 98 97
f 94 97 100
f 94 100 102
f 94 102 95
f 95 102 100
f 95 100 96
f 97 101 100

