# https://github.com/mikedh/trimesh
v 0.04074054 0.02627137 0.04569342
v 0.04149930 0.02531194 0.04569342
v 0.04180432 0.02503421 0.04543975
v 0.04074054 0.02639901 0.04515003
v 0.04074054 0.02402569 0.04569342
v 0.04175643 0.02497670 0.04569342
v 0.04183772 0.02507910 0.04467735
v 0.04078339 0.02645372 0.04467735
v 0.04074054 0.02650842 0.04467735
v 0.04074054 0.02648878 0.04476606
v 0.04195557 0.02465268 0.04569342
v 0.04299919 0.02271138 0.04547024
v 0.04274585 0.02338887 0.04467735
v 0.04223790 0.02436514 0.04467735
v 0.04074054 0.02374094 0.03153359
v 0.04524019 0.01277343 0.03153359
v 0.04573427 0.01218010 0.04569342
v 0.04183268 0.02507208 0.04348385
v 0.04137579 0.02566962 0.04348385
v 0.04074054 0.02649860 0.04348385
v 0.04281202 0.02294843 0.04569342
v 0.04303259 0.02279274 0.04467735
v 0.04309687 0.02231863 0.04569342
v 0.04654093 0.01425886 0.04533162
v 0.04273703 0.02338046 0.04348385
v 0.04302944 0.02278292 0.04348385
v 0.04222404 0.02436514 0.04348385
v 0.04074054 0.02565419 0.03153359
v 0.04555845 0.01218010 0.03153359
v 0.04555845 0.01218010 0.03153497
v 0.04707598 0.01218010 0.04569342
v 0.04181000 0.02504263 0.04228896
v 0.04135499 0.02564017 0.04228896
v 0.04074054 0.02644390 0.04228896
v 0.04219442 0.02436514 0.04228896
v 0.04209674 0.02432446 0.03751495
v 0.04207972 0.02429360 0.03632007
v 0.04200914 0.02417297 0.03154468
v 0.04337038 0.02197778 0.04467735
v 0.04336345 0.02197778 0.04348385
v 0.04665374 0.01373146 0.04569342
v 0.04541476 0.01681173 0.04556727
v 0.04669470 0.01359961 0.04569342
v 0.04683020 0.01362065 0.04467735
v 0.04655417 0.01429113 0.04467735
v 0.04546265 0.01692675 0.04467735
v 0.04273072 0.02333838 0.04228896
v 0.04301179 0.02274084 0.04228896
v 0.04270362 0.02321073 0.03870707
v 0.04272253 0.02329489 0.04109546
v 0.04074054 0.02588704 0.03153913
v 0.04087918 0.02570188 0.03153359
v 0.04678293 0.01218431 0.03153359
v 0.04678419 0.01218010 0.03154468
v 0.04716421 0.01218010 0.04492270
v 0.04715601 0.01242697 0.04467735
v 0.04703943 0.01242697 0.04569342
v 0.04178731 0.02501317 0.04109546
v 0.04074054 0.02638639 0.04109546
v 0.04074054 0.02640042 0.04138517
v 0.04200788 0.02417157 0.03153359
v 0.04158312 0.02477051 0.03154468
v 0.04175139 0.02496548 0.03923104
v 0.04176462 0.02498231 0.03990196
v 0.04311200 0.02179964 0.03273818
v 0.04308805 0.02174354 0.03154468
v 0.04308742 0.02174213 0.03153359
v 0.04322291 0.02197778 0.03870707
v 0.04297650 0.02265668 0.03990196
v 0.04545951 0.01691693 0.04348385
v 0.04544186 0.01687485 0.04228896
v 0.04542421 0.01683277 0.04109546
v 0.04699090 0.01260371 0.04569342
v 0.04655039 0.01428131 0.04348385
v 0.04681822 0.01362065 0.04348385
v 0.04294751 0.02258654 0.03794328
v 0.04313468 0.02184593 0.03393306
v 0.04074054 0.02590667 0.03175399
v 0.04157682 0.02477612 0.03153359
v 0.04673252 0.01242697 0.03153359
v 0.04673315 0.01242697 0.03154468
v 0.04678041 0.01242697 0.03273818
v 0.04692221 0.01242697 0.03632007
v 0.04696947 0.01242697 0.03751495
v 0.04687809 0.01218010 0.03393306
v 0.04717807 0.01218010 0.04467735
v 0.04716358 0.01218010 0.04372920
v 0.04713711 0.01242697 0.04348385
v 0.04130961 0.02557985 0.03990196
v 0.04074054 0.02627137 0.03880549
v 0.04158186 0.02476911 0.03153359
v 0.04074054 0.02621246 0.03764941
v 0.04653589 0.01424624 0.04260501
v 0.04567251 0.01600940 0.03870707
v 0.04654850 0.01308483 0.03153359
v 0.04314288 0.02208719 0.03753297
v 0.04427976 0.01934075 0.03751495
v 0.04659765 0.01320686 0.03393306
v 0.04671928 0.01351124 0.03990196
v 0.04674323 0.01357296 0.04109546
v 0.04672621 0.01373286 0.04224044
v 0.04705266 0.01242697 0.03990196
v 0.04701611 0.01242697 0.03870707
v 0.04315359 0.02188941 0.03512657
v 0.04673063 0.01243539 0.03153359
v 0.04692347 0.01218010 0.03512657
v 0.04715853 0.01218010 0.04348385
v 0.04708417 0.01218010 0.03990196
v 0.04669470 0.01345092 0.03870707
v 0.04705140 0.01218010 0.03870707
v 0.04700918 0.01218010 0.03751495
v 0.04696632 0.01218010 0.03632007
f 1 2 3
f 1 3 4
f 1 4 10
f 1 10 9
f 1 9 20
f 1 20 34
f 1 34 60
f 1 60 59
f 1 59 90
f 1 90 92
f 1 92 78
f 1 78 51
f 1 51 28
f 1 28 15
f 1 15 5
f 1 5 17
f 1 17 31
f 1 31 57
f 1 57 73
f 1 73 43
f 1 43 41
f 1 41 23
f 1 23 21
f 1 21 11
f 1 11 6
f 1 6 2
f 2 6 3
f 3 7 8
f 3 8 9
f 3 9 10
f 3 10 4
f 3 6 11
f 3 11 12
f 3 12 13
f 3 13 14
f 3 14 7
f 5 15 16
f 5 16 17
f 7 18 19
f 7 19 20
f 7 20 8
f 7 14 18
f 8 20 9
f 11 21 12
f 12 22 13
f 12 21 23
f 12 23 24
f 12 24 22
f 13 25 14
f 13 22 26
f 13 26 25
f 14 25 27
f 14 27 18
f 15 28 52
f 15 52 79
f 15 79 91
f 15 91 61
f 15 61 67
f 15 67 95
f 15 95 105
f 15 105 80
f 15 80 53
f 15 53 29
f 15 29 16
f 16 29 30
f 16 30 17
f 17 30 29
f 17 29 54
f 17 54 85
f 17 85 106
f 17 106 112
f 17 112 111
f 17 111 110
f 17 110 108
f 17 108 107
f 17 107 87
f 17 87 86
f 17 86 55
f 17 55 31
f 18 32 33
f 18 33 34
f 18 34 19
f 18 27 35
f 18 35 36
f 18 36 37
f 18 37 38
f 18 38 32
f 19 34 20
f 22 24 39
f 22 39 40
f 22 40 26
f 23 41 42
f 23 42 24
f 24 41 43
f 24 43 44
f 24 44 45
f 24 45 46
f 24 46 39
f 24 42 41
f 25 26 47
f 25 47 27
f 26 40 48
f 26 48 49
f 26 49 50
f 26 50 47
f 27 47 35
f 28 51 52
f 29 53 54
f 31 55 56
f 31 56 57
f 32 58 33
f 32 38 58
f 33 59 60
f 33 60 34
f 33 58 59
f 35 47 36
f 36 47 50
f 36 50 49
f 36 49 37
f 37 49 38
f 38 61 91
f 38 91 62
f 38 62 63
f 38 63 64
f 38 64 58
f 38 49 65
f 38 65 66
f 38 66 67
f 38 67 61
f 39 46 40
f 40 68 69
f 40 69 48
f 40 46 70
f 40 70 71
f 40 71 72
f 40 72 68
f 43 73 44
f 44 74 45
f 44 73 57
f 44 57 56
f 44 56 75
f 44 75 74
f 45 74 70
f 45 70 46
f 48 69 49
f 49 69 76
f 49 76 77
f 49 77 65
f 51 78 62
f 51 62 52
f 52 62 79
f 53 80 81
f 53 81 82
f 53 82 83
f 53 83 84
f 53 84 85
f 53 85 54
f 55 86 56
f 56 86 87
f 56 87 88
f 56 88 75
f 58 64 89
f 58 89 90
f 58 90 59
f 62 91 79
f 62 78 63
f 63 78 92
f 63 92 64
f 64 92 90
f 64 90 89
f 65 77 93
f 65 93 66
f 66 93 94
f 66 94 95
f 66 95 67
f 68 96 69
f 68 72 97
f 68 97 96
f 69 96 76
f 70 74 71
f 71 74 72
f 72 74 97
f 74 75 93
f 74 93 97
f 75 95 98
f 75 98 99
f 75 99 100
f 75 100 101
f 75 101 93
f 75 88 102
f 75 102 103
f 75 103 95
f 76 96 104
f 76 104 77
f 77 104 97
f 77 97 93
f 80 105 81
f 81 105 82
f 82 105 83
f 83 105 84
f 84 103 85
f 84 105 95
f 84 95 103
f 85 103 106
f 87 107 88
f 88 107 108
f 88 108 102
f 93 101 94
f 94 101 98
f 94 98 95
f 96 97 104
f 98 101 109
f 98 109 99
f 99 109 101
f 99 101 100
f 102 108 110
f 102 110 103
f 103 110 111
f 103 111 112
f 103 112 106

