# https://github.com/mikedh/trimesh
v -0.02092995 -0.04054709 0.02241040
v -0.02092995 -0.04024764 0.02199208
v -0.02052037 -0.04082657 0.02240183
v -0.02053890 -0.04081858 0.02241040
v -0.02092995 -0.03837909 0.02241040
v -0.02092995 -0.04018775 0.02191236
v -0.01791269 -0.04186865 0.02141689
v -0.01832226 -0.04214414 0.02221324
v -0.01871331 -0.04200839 0.02241040
v 0.00009412 -0.04342977 0.02241040
v 0.00009412 -0.00426603 0.01729028
v -0.01613238 -0.00426603 0.01738972
v -0.01735287 -0.00426603 0.01738972
v -0.01854660 -0.00426603 0.01738286
v -0.02092995 -0.00426603 0.01733914
v -0.02092995 -0.04015980 0.02188065
v -0.02092995 -0.03963277 0.02133546
v -0.01929165 -0.04079463 0.02133289
v -0.01571458 -0.04317424 0.02132174
v -0.01692889 -0.04305845 0.02241040
v 0.00009412 -0.04505078 0.02241040
v 0.00009412 -0.00426603 0.01607647
v -0.02092995 -0.00426603 0.01599932
v -0.02092995 -0.03910175 0.02116145
v -0.01854660 -0.04104617 0.02124802
v -0.01613238 -0.04249150 0.02117430
v -0.01971152 -0.04009991 0.02120688
v -0.01496541 -0.04249549 0.02093600
v -0.01496541 -0.04324211 0.02126174
v -0.01496541 -0.04358548 0.02199123
v -0.01613238 -0.04328603 0.02204523
v -0.01674777 -0.04316226 0.02241040
v -0.00006435 -0.04504279 0.02241040
v -0.00183437 -0.04474334 0.02199123
v 0.00009412 -0.04483517 0.02199123
v 0.00009412 -0.01379245 0.01384601
v -0.01141097 -0.00426603 0.01366685
v -0.01460317 -0.00426603 0.01415975
v -0.02092995 -0.00907316 0.01608076
v -0.02092995 -0.03900992 0.02113573
v -0.01145419 -0.03780016 0.01880240
v -0.01385400 -0.04019973 0.01998878
v -0.01854660 -0.04010790 0.02095400
v -0.01351029 -0.04088247 0.02012679
v -0.01257795 -0.04099825 0.02007022
v -0.01377168 -0.04328603 0.02122917
v -0.00302810 -0.04434008 0.02134317
v -0.00394604 -0.04430814 0.02137232
v -0.00474254 -0.04427620 0.02140575
v -0.01121956 -0.04423628 0.02241040
v -0.01212721 -0.04414445 0.02241040
v -0.01138421 -0.04105415 0.02004021
v -0.01306367 -0.04402068 0.02241040
v -0.01454760 -0.04377313 0.02241040
v -0.01496541 -0.04367332 0.02241040
v -0.01614061 -0.04336588 0.02241040
v -0.00131777 -0.04497492 0.02241040
v -0.00302810 -0.04467547 0.02199123
v -0.00183437 -0.04437602 0.02130974
v 0.00009412 -0.04468346 0.02171863
v 0.00009412 -0.01453508 0.01378772
v -0.00183437 -0.01384436 0.01367200
v -0.00302810 -0.01265056 0.01366685
v -0.00541556 -0.01026296 0.01365828
v -0.00660929 -0.00906917 0.01365571
v -0.00780302 -0.00787537 0.01365399
v -0.00899675 -0.00668157 0.01365485
v -0.01019254 -0.00548778 0.01365914
v -0.01257795 -0.00426603 0.01370971
v -0.01379843 -0.00426603 0.01394287
v -0.02092995 -0.01026696 0.01613905
v -0.02092995 -0.02650100 0.01780118
v -0.02063975 -0.02661679 0.01774975
v -0.01934516 -0.02773073 0.01776946
v -0.01805264 -0.02884468 0.01779089
v -0.01337445 -0.03250592 0.01776946
v -0.01078735 -0.03473381 0.01781318
v -0.01019254 -0.03497337 0.01775318
v -0.00870038 -0.03608731 0.01774889
v -0.01110431 -0.03848290 0.01893698
v -0.01019254 -0.03859868 0.01888212
v -0.00302810 -0.04368929 0.02099429
v -0.00429592 -0.04453173 0.02187893
v -0.00541556 -0.04453173 0.02205380
v -0.00660929 -0.04448782 0.02214895
v -0.00899675 -0.04439598 0.02234868
v -0.00972534 -0.04436804 0.02241040
v -0.01019254 -0.04432811 0.02241040
v -0.01019254 -0.04109807 0.02001964
v -0.00302810 -0.04255538 0.02044910
v -0.00183437 -0.04368929 0.02094714
v -0.00899675 -0.03865058 0.01885212
v -0.00256090 -0.04490305 0.02241040
v -0.00063858 -0.04440796 0.02128231
v 0.00009412 -0.04442793 0.02126945
v 0.00009412 -0.01503815 0.01375943
v -0.00302810 -0.01384436 0.01381172
v -0.00780302 -0.00906917 0.01375772
v -0.01019254 -0.00668157 0.01373200
v -0.01257795 -0.00429398 0.01371057
v -0.00063858 -0.01503815 0.01378343
v -0.00780302 -0.03533271 0.01754830
v -0.00905850 -0.03540058 0.01766145
v -0.01019254 -0.03413891 0.01759888
v -0.01615914 -0.02936372 0.01760231
v -0.01260470 -0.00426603 0.01371228
v -0.01377168 -0.00426603 0.01393602
v -0.02092995 -0.01146075 0.01624791
v -0.02092995 -0.02599394 0.01768031
v -0.01974239 -0.02700008 0.01768888
v -0.01377168 -0.03177527 0.01768803
v -0.01466903 -0.03139198 0.01774975
v -0.00780302 -0.03617116 0.01771974
v -0.00660929 -0.04122983 0.01995878
v -0.00660929 -0.03873842 0.01881097
v -0.00063858 -0.04130169 0.01978991
v 0.00009412 -0.04207227 0.02012079
v -0.00063858 -0.04368929 0.02091457
v 0.00009412 -0.04415243 0.02112716
v 0.00009412 -0.03413891 0.01753716
v -0.00063858 -0.03510912 0.01770346
v -0.00660929 -0.03533271 0.01756287
v -0.01735287 -0.02816992 0.01756973
v -0.02092995 -0.02584621 0.01765545
v -0.02092995 -0.02459652 0.01748058
v -0.02092995 -0.02591009 0.01766574
v -0.02092995 -0.01497427 0.01657708
v -0.02092995 -0.01265056 0.01635935
v -0.00660929 -0.03615519 0.01773689
v -0.00122927 -0.03951299 0.01900642
v -0.00125808 -0.03951299 0.01900642
v -0.00422183 -0.03883026 0.01877583
v -0.00541556 -0.03878234 0.01879126
v 0.00009412 -0.04130169 0.01977276
v 0.00009412 -0.04178480 0.01998878
v 0.00009412 -0.04368929 0.02089742
v 0.00009412 -0.03504923 0.01771974
v -0.00541556 -0.03608731 0.01776518
v -0.00355704 -0.03593959 0.01780975
v 0.00009412 -0.03885022 0.01887012
v 0.00009412 -0.04084254 0.01958418
f 1 2 3
f 1 3 4
f 1 4 9
f 1 9 20
f 1 20 32
f 1 32 56
f 1 56 55
f 1 55 54
f 1 54 53
f 1 53 51
f 1 51 50
f 1 50 88
f 1 88 87
f 1 87 93
f 1 93 57
f 1 57 33
f 1 33 21
f 1 21 10
f 1 10 5
f 1 5 15
f 1 15 23
f 1 23 39
f 1 39 71
f 1 71 108
f 1 108 128
f 1 128 127
f 1 127 125
f 1 125 124
f 1 124 126
f 1 126 109
f 1 109 72
f 1 72 40
f 1 40 24
f 1 24 17
f 1 17 16
f 1 16 6
f 1 6 2
f 2 6 7
f 2 7 3
f 3 7 8
f 3 8 9
f 3 9 4
f 5 10 11
f 5 11 12
f 5 12 13
f 5 13 14
f 5 14 15
f 6 16 7
f 7 16 17
f 7 17 18
f 7 18 19
f 7 19 8
f 8 19 20
f 8 20 9
f 10 21 35
f 10 35 60
f 10 60 95
f 10 95 119
f 10 119 136
f 10 136 117
f 10 117 135
f 10 135 134
f 10 134 141
f 10 141 140
f 10 140 137
f 10 137 120
f 10 120 96
f 10 96 61
f 10 61 36
f 10 36 22
f 10 22 11
f 11 22 37
f 11 37 69
f 11 69 106
f 11 106 107
f 11 107 70
f 11 70 38
f 11 38 23
f 11 23 15
f 11 15 14
f 11 14 13
f 11 13 12
f 17 24 18
f 18 25 26
f 18 26 19
f 18 24 27
f 18 27 25
f 19 28 29
f 19 29 30
f 19 30 31
f 19 31 32
f 19 32 20
f 19 26 28
f 21 33 34
f 21 34 35
f 22 36 37
f 23 38 39
f 24 40 41
f 24 41 42
f 24 42 43
f 24 43 27
f 25 27 43
f 25 43 26
f 26 43 42
f 26 42 44
f 26 44 28
f 28 44 45
f 28 45 29
f 29 46 47
f 29 47 48
f 29 48 49
f 29 49 50
f 29 50 51
f 29 51 30
f 29 45 52
f 29 52 46
f 30 51 53
f 30 53 54
f 30 54 55
f 30 55 56
f 30 56 31
f 31 56 32
f 33 57 34
f 34 57 58
f 34 58 48
f 34 48 47
f 34 47 35
f 35 47 59
f 35 59 60
f 36 61 62
f 36 62 63
f 36 63 64
f 36 64 65
f 36 65 66
f 36 66 67
f 36 67 68
f 36 68 37
f 37 68 69
f 38 70 39
f 39 70 71
f 40 72 73
f 40 73 74
f 40 74 75
f 40 75 76
f 40 76 77
f 40 77 78
f 40 78 41
f 41 78 79
f 41 79 42
f 42 79 80
f 42 80 44
f 44 80 79
f 44 79 81
f 44 81 45
f 45 81 52
f 46 82 59
f 46 59 47
f 46 52 82
f 48 58 49
f 49 58 83
f 49 83 84
f 49 84 85
f 49 85 86
f 49 86 87
f 49 87 88
f 49 88 50
f 52 89 90
f 52 90 91
f 52 91 82
f 52 81 92
f 52 92 89
f 57 93 58
f 58 93 84
f 58 84 83
f 59 94 60
f 59 82 91
f 59 91 94
f 60 94 95
f 61 96 62
f 62 97 98
f 62 98 99
f 62 99 100
f 62 100 63
f 62 96 101
f 62 101 102
f 62 102 103
f 62 103 104
f 62 104 105
f 62 105 97
f 63 100 64
f 64 100 65
f 65 100 66
f 66 100 67
f 67 100 68
f 68 100 69
f 69 100 106
f 70 107 71
f 71 107 108
f 72 109 73
f 73 109 110
f 73 110 111
f 73 111 112
f 73 112 76
f 73 76 74
f 74 76 75
f 76 112 78
f 76 78 77
f 78 112 103
f 78 103 79
f 79 103 102
f 79 102 113
f 79 113 81
f 81 113 92
f 84 93 85
f 85 93 86
f 86 93 87
f 89 114 90
f 89 92 115
f 89 115 114
f 90 114 116
f 90 116 117
f 90 117 91
f 91 118 119
f 91 119 95
f 91 95 94
f 91 117 118
f 92 113 115
f 96 120 121
f 96 121 122
f 96 122 102
f 96 102 101
f 97 105 123
f 97 123 124
f 97 124 125
f 97 125 98
f 98 125 99
f 99 125 100
f 100 125 106
f 102 122 113
f 103 112 111
f 103 111 110
f 103 110 104
f 104 110 126
f 104 126 105
f 105 126 124
f 105 124 123
f 106 125 107
f 107 127 128
f 107 128 108
f 107 125 127
f 109 126 110
f 113 129 130
f 113 130 131
f 113 131 132
f 113 132 133
f 113 133 115
f 113 122 129
f 114 115 116
f 115 133 116
f 116 134 135
f 116 135 117
f 116 133 132
f 116 132 131
f 116 131 134
f 117 136 118
f 118 136 119
f 120 137 121
f 121 137 138
f 121 138 129
f 121 129 122
f 129 138 130
f 130 138 139
f 130 139 140
f 130 140 141
f 130 141 134
f 130 134 131
f 137 140 139
f 137 139 138

