# https://github.com/mikedh/trimesh
v -0.00008963 0.01218010 0.01606945
v 0.00538694 0.01218010 0.01389850
v -0.00008963 0.01218010 0.01729056
v -0.00008963 0.01410498 0.01415717
v 0.00559059 0.01218010 0.01382628
v 0.01010881 0.01218010 0.01739050
v 0.02030726 0.03794663 0.02220102
v -0.00008963 0.04327609 0.02220102
v -0.00008963 0.01452135 0.01415717
v 0.00652698 0.01218010 0.01362304
v 0.01130076 0.01218010 0.01739050
v 0.02030726 0.04007329 0.02220102
v 0.01249471 0.01218010 0.01738714
v 0.02030726 0.01218010 0.01735186
v -0.00008963 0.04489991 0.02220102
v 0.00055725 0.01466868 0.01411937
v 0.00413909 0.01481600 0.01386239
v 0.00533303 0.01362136 0.01372046
v -0.00008963 0.03510895 0.01744928
v 0.00652698 0.01242672 0.01362472
v 0.00677256 0.01218010 0.01364571
v 0.02030726 0.04002205 0.02210024
v 0.01942078 0.04060175 0.02220102
v 0.02030726 0.01218010 0.01623742
v 0.00652698 0.04461166 0.02220102
v -0.00008963 0.04480703 0.02199190
v 0.00533303 0.01481600 0.01389010
v 0.00055725 0.03510895 0.01745012
v 0.00652698 0.01362136 0.01377421
v -0.00008963 0.03582638 0.01758198
v 0.00772092 0.01242672 0.01382712
v 0.00772092 0.01218010 0.01380612
v 0.02030726 0.02730052 0.01742997
v 0.02030726 0.02675605 0.01736446
v 0.02030726 0.02610908 0.01729644
v 0.02030726 0.02556140 0.01724017
v 0.02030726 0.03993237 0.02193395
v 0.01896557 0.04042880 0.02145273
v 0.01917720 0.04073627 0.02220102
v 0.02030726 0.01229540 0.01624329
v 0.00749731 0.04456042 0.02220102
v 0.00772092 0.04445472 0.02199190
v 0.00652698 0.04451237 0.02199190
v -0.00008963 0.04460525 0.02159970
v 0.00175120 0.03510895 0.01750639
v 0.00533303 0.03391751 0.01754166
v 0.01130076 0.03152822 0.01752823
v 0.01488259 0.03033357 0.01756602
v 0.02030726 0.02847595 0.01761557
v 0.02030726 0.02795069 0.01751647
v 0.00049736 0.03637726 0.01768863
v -0.00008963 0.03638687 0.01768779
v 0.02030726 0.01773055 0.01661702
v 0.02030726 0.01716366 0.01657419
v 0.02030726 0.01601065 0.01648936
v 0.02030726 0.01481600 0.01640538
v 0.02030726 0.01362136 0.01632392
v 0.02030726 0.01242672 0.01625001
v 0.02030726 0.03961849 0.02144769
v 0.02030726 0.03946476 0.02127721
v 0.01663358 0.04165868 0.02140822
v 0.01501437 0.04302307 0.02220102
v 0.01585492 0.04256507 0.02220102
v 0.00995308 0.04442590 0.02220102
v 0.01130076 0.04432020 0.02212040
v 0.01010881 0.04435544 0.02205489
v 0.00892285 0.04432981 0.02188440
v 0.00853153 0.04408000 0.02138135
v 0.00772092 0.04410882 0.02135699
v 0.00652698 0.04414725 0.02132004
v 0.00413909 0.04422412 0.02124698
v -0.00008963 0.04434903 0.02111848
v 0.00175120 0.03607940 0.01770207
v 0.00772092 0.03373815 0.01769451
v 0.01130076 0.03245383 0.01771467
v 0.01368865 0.03139690 0.01768695
v 0.01727048 0.03010617 0.01770627
v 0.02030726 0.02897559 0.01771635
v 0.00006011 0.03691853 0.01780537
v -0.00008963 0.03691853 0.01780537
v 0.02030726 0.03916690 0.02114620
v 0.01965837 0.03964091 0.02120499
v 0.01617237 0.04118787 0.02115460
v 0.01419578 0.04283410 0.02141578
v 0.01346703 0.04379174 0.02220102
v 0.01476080 0.04315118 0.02220102
v 0.01488259 0.04309033 0.02220102
v 0.01965837 0.03869288 0.02084554
v 0.01120892 0.04435544 0.02220102
v 0.01010881 0.04398391 0.02145861
v 0.00932616 0.04403836 0.02141494
v 0.01130076 0.04434583 0.02220102
v 0.01192369 0.04426896 0.02220102
v 0.01130076 0.04388783 0.02152328
v 0.01010881 0.04338819 0.02117223
v 0.00892285 0.04357075 0.02117895
v 0.00652698 0.04346826 0.02098915
v 0.00533303 0.04346826 0.02092700
v -0.00008963 0.04346826 0.02067338
v 0.00294514 0.03585520 0.01776674
v 0.00533303 0.03479828 0.01772475
v 0.00413909 0.03861602 0.01881820
v 0.00533303 0.03844947 0.01889210
v 0.01488259 0.03116950 0.01773902
v 0.01846443 0.02988198 0.01776758
v 0.01911331 0.02975707 0.01780705
v 0.02030726 0.03210152 0.01870398
v -0.00008963 0.03916369 0.01875101
v 0.00055725 0.03869288 0.01858893
v 0.00175120 0.03869288 0.01866115
v 0.01130076 0.04329210 0.02122262
v 0.00772092 0.04095726 0.02001831
v 0.02030726 0.03872171 0.02097739
v 0.02030726 0.03618509 0.02006114
v 0.01846443 0.03715234 0.02011657
v 0.01375454 0.04236970 0.02119239
v 0.01340114 0.04298143 0.02135028
v 0.01249471 0.04373729 0.02167865
v 0.01249471 0.04416006 0.02220102
v 0.01249471 0.04313837 0.02129233
v 0.00265165 0.03933344 0.01898868
v 0.00600787 0.04168750 0.02019551
v 0.00413909 0.04182202 0.02013925
v 0.00772092 0.04346826 0.02106137
v 0.00055725 0.04207504 0.02003175
v -0.00008963 0.04211988 0.02001243
v 0.00891487 0.03351075 0.01775246
v 0.00533303 0.03749824 0.01858641
v 0.00891487 0.03716835 0.01892150
v 0.01014475 0.03639327 0.01882492
v 0.01569120 0.03101257 0.01778689
v 0.01226909 0.03226807 0.01776758
v 0.00891487 0.04080353 0.02009222
v 0.01249471 0.04227361 0.02099839
v 0.00989917 0.04063378 0.02015268
v 0.00891487 0.03988753 0.01979240
v 0.01846443 0.03272286 0.01867543
v 0.02030726 0.03261717 0.01887111
v 0.01846443 0.03353958 0.01893662
v 0.01924109 0.03338904 0.01898449
v 0.01607654 0.03825090 0.02015100
v 0.01673341 0.03811958 0.02019216
v 0.00055725 0.03948077 0.01892486
v 0.00175120 0.03939750 0.01896097
v 0.02030726 0.03568225 0.01989234
v 0.01964839 0.03636765 0.02002587
v 0.01846443 0.03630360 0.01983439
v 0.01332128 0.03937828 0.02017200
v 0.01488259 0.03848150 0.02007710
v 0.01581898 0.03464454 0.01896433
f 1 2 5
f 1 5 10
f 1 10 21
f 1 21 32
f 1 32 24
f 1 24 14
f 1 14 13
f 1 13 11
f 1 11 6
f 1 6 3
f 1 3 8
f 1 8 15
f 1 15 26
f 1 26 44
f 1 44 72
f 1 72 99
f 1 99 126
f 1 126 108
f 1 108 80
f 1 80 52
f 1 52 30
f 1 30 19
f 1 19 9
f 1 9 4
f 1 4 2
f 2 4 5
f 3 6 7
f 3 7 8
f 4 9 10
f 4 10 5
f 6 11 7
f 7 12 23
f 7 23 39
f 7 39 63
f 7 63 62
f 7 62 87
f 7 87 86
f 7 86 85
f 7 85 119
f 7 119 93
f 7 93 92
f 7 92 89
f 7 89 64
f 7 64 41
f 7 41 25
f 7 25 15
f 7 15 8
f 7 11 13
f 7 13 14
f 7 14 24
f 7 24 40
f 7 40 58
f 7 58 57
f 7 57 56
f 7 56 55
f 7 55 54
f 7 54 53
f 7 53 36
f 7 36 35
f 7 35 34
f 7 34 33
f 7 33 50
f 7 50 49
f 7 49 78
f 7 78 107
f 7 107 138
f 7 138 145
f 7 145 114
f 7 114 113
f 7 113 81
f 7 81 60
f 7 60 59
f 7 59 37
f 7 37 22
f 7 22 12
f 9 16 17
f 9 17 18
f 9 18 10
f 9 19 16
f 10 18 20
f 10 20 21
f 12 22 23
f 15 25 26
f 16 19 17
f 17 27 18
f 17 19 28
f 17 28 27
f 18 29 20
f 18 27 29
f 19 30 28
f 20 31 32
f 20 32 21
f 20 29 33
f 20 33 34
f 20 34 35
f 20 35 36
f 20 36 31
f 22 37 23
f 23 37 38
f 23 38 39
f 24 32 40
f 25 41 42
f 25 42 43
f 25 43 26
f 26 43 44
f 27 28 45
f 27 45 46
f 27 46 47
f 27 47 48
f 27 48 49
f 27 49 50
f 27 50 29
f 28 30 51
f 28 51 45
f 29 50 33
f 30 52 51
f 31 36 32
f 32 36 53
f 32 53 54
f 32 54 55
f 32 55 56
f 32 56 57
f 32 57 58
f 32 58 40
f 37 59 38
f 38 59 60
f 38 60 61
f 38 61 62
f 38 62 63
f 38 63 39
f 41 64 65
f 41 65 66
f 41 66 42
f 42 66 67
f 42 67 68
f 42 68 69
f 42 69 70
f 42 70 71
f 42 71 43
f 43 71 72
f 43 72 44
f 45 51 73
f 45 73 46
f 46 73 74
f 46 74 75
f 46 75 76
f 46 76 77
f 46 77 49
f 46 49 48
f 46 48 47
f 49 77 78
f 51 52 79
f 51 79 73
f 52 80 79
f 60 81 82
f 60 82 61
f 61 83 84
f 61 84 85
f 61 85 86
f 61 86 87
f 61 87 62
f 61 82 88
f 61 88 83
f 64 89 65
f 65 90 91
f 65 91 68
f 65 68 66
f 65 89 92
f 65 92 93
f 65 93 94
f 65 94 90
f 66 68 67
f 68 91 95
f 68 95 96
f 68 96 97
f 68 97 98
f 68 98 69
f 69 98 70
f 70 98 99
f 70 99 71
f 71 99 72
f 73 100 101
f 73 101 75
f 73 75 74
f 73 79 102
f 73 102 103
f 73 103 100
f 75 104 78
f 75 78 77
f 75 77 76
f 75 101 104
f 78 104 105
f 78 105 106
f 78 106 107
f 79 80 108
f 79 108 109
f 79 109 110
f 79 110 95
f 79 95 111
f 79 111 112
f 79 112 102
f 81 113 82
f 82 113 88
f 83 88 114
f 83 114 84
f 84 115 116
f 84 116 117
f 84 117 94
f 84 94 118
f 84 118 85
f 84 114 115
f 85 118 119
f 88 113 114
f 90 94 111
f 90 111 91
f 91 111 95
f 93 119 94
f 94 117 120
f 94 120 111
f 94 119 118
f 95 110 121
f 95 121 122
f 95 122 123
f 95 123 124
f 95 124 96
f 96 124 97
f 97 124 123
f 97 123 125
f 97 125 126
f 97 126 98
f 98 126 99
f 100 127 101
f 100 103 128
f 100 128 129
f 100 129 130
f 100 130 131
f 100 131 132
f 100 132 127
f 101 127 104
f 102 112 133
f 102 133 103
f 103 133 134
f 103 134 135
f 103 135 136
f 103 136 128
f 104 127 132
f 104 132 131
f 104 131 105
f 105 131 106
f 106 131 137
f 106 137 107
f 107 137 139
f 107 139 140
f 107 140 141
f 107 141 142
f 107 142 138
f 108 126 125
f 108 125 143
f 108 143 109
f 109 143 144
f 109 144 110
f 110 144 121
f 111 120 112
f 112 120 133
f 114 145 146
f 114 146 115
f 115 142 116
f 115 146 145
f 115 145 138
f 115 138 147
f 115 147 142
f 116 134 117
f 116 142 134
f 117 134 120
f 120 134 133
f 121 144 122
f 122 144 123
f 123 144 125
f 125 144 143
f 128 136 129
f 129 136 148
f 129 148 149
f 129 149 130
f 130 150 139
f 130 139 131
f 130 149 150
f 131 139 137
f 134 142 141
f 134 141 149
f 134 149 148
f 134 148 135
f 135 148 136
f 138 142 147
f 139 150 149
f 139 149 140
f 140 149 141

