# https://github.com/mikedh/trimesh
v 0.00001009 0.04125632 0.06616863
v 0.00001009 0.03549574 0.07898042
v 0.00001009 0.04275252 0.06616863
v 0.02751248 0.03070508 0.06616863
v 0.00001009 0.03535060 0.07930355
v 0.00001009 0.03930348 0.07395934
v 0.00018953 0.04275488 0.06616863
v 0.02910748 0.03070508 0.06616863
v 0.01518540 0.03070508 0.08058859
v 0.00001009 0.03495177 0.08049776
v 0.00001009 0.03698839 0.07889554
v 0.00055695 0.03699311 0.07890448
v 0.00006421 0.03930348 0.07395934
v 0.00055695 0.04182271 0.06828010
v 0.00055695 0.04275842 0.06616863
v 0.02910748 0.03129506 0.06616863
v 0.02910748 0.03070508 0.06719757
v 0.01520533 0.03070508 0.08125866
v 0.01488348 0.03078177 0.08123633
v 0.01427966 0.03092927 0.08110083
v 0.01427966 0.03092927 0.08108296
v 0.00207790 0.03447979 0.08114550
v 0.00001009 0.03512051 0.08091172
v 0.00001009 0.03622731 0.08049776
v 0.00055695 0.04068286 0.07078766
v 0.00055695 0.03623321 0.08049776
v 0.00175035 0.03610932 0.08049776
v 0.00290958 0.03592878 0.08057221
v 0.00141711 0.03693765 0.07878238
v 0.00175035 0.04174601 0.06811035
v 0.00290958 0.04189823 0.06744028
v 0.00175035 0.04207876 0.06736434
v 0.00658948 0.04199144 0.06616863
v 0.02910748 0.03121128 0.06633243
v 0.02772610 0.03236293 0.06616863
v 0.02906191 0.03070508 0.06726904
v 0.01607689 0.03070508 0.08131525
v 0.00001009 0.03526682 0.08125569
v 0.00001009 0.03605622 0.08084173
v 0.00055695 0.03585444 0.08126016
v 0.00175035 0.03577657 0.08117826
v 0.00248804 0.03572819 0.08111870
v 0.00249089 0.04169763 0.06800314
v 0.00179023 0.03715123 0.07820612
v 0.00625054 0.03575179 0.07999298
v 0.00533341 0.03581197 0.08012699
v 0.00414001 0.03589102 0.08029972
v 0.00414001 0.04186047 0.06716779
v 0.00660087 0.04194071 0.06627733
v 0.00713633 0.04191947 0.06616863
v 0.02879988 0.03107795 0.06703973
v 0.02748685 0.03217885 0.06686551
v 0.02568393 0.03392992 0.06616863
v 0.02485794 0.03438185 0.06651409
v 0.02877994 0.03070508 0.06770682
v 0.00652681 0.03420957 0.08137928
v 0.00533341 0.03426857 0.08135545
v 0.01701965 0.03070508 0.08121995
v 0.01607689 0.03122072 0.08131525
v 0.00001009 0.03584973 0.08125569
v 0.00652681 0.03484793 0.08137928
v 0.00772022 0.03478658 0.08135694
v 0.00891362 0.03469218 0.08128398
v 0.00891362 0.03510163 0.08049776
v 0.00660087 0.03547567 0.08043373
v 0.00891362 0.03584854 0.07901020
v 0.01010987 0.04059908 0.06821310
v 0.01010987 0.04151001 0.06616863
v 0.02852645 0.03085965 0.06783637
v 0.02709949 0.03070508 0.07022034
v 0.02525669 0.03110626 0.07214121
v 0.02300375 0.03598542 0.06616863
v 0.02300375 0.03598542 0.06617012
v 0.02833562 0.03070508 0.06839327
v 0.01758075 0.03070508 0.08099511
v 0.01768613 0.03081481 0.08093108
v 0.01688863 0.03104019 0.08120506
v 0.01369008 0.03240659 0.08131376
v 0.01130328 0.03359363 0.08131078
v 0.00968549 0.03459660 0.08118719
v 0.00968834 0.03577539 0.07885087
v 0.00960859 0.03693293 0.07638352
v 0.01084471 0.04053418 0.06807164
v 0.01023235 0.04149232 0.06616863
v 0.02523391 0.03070508 0.07293339
v 0.02370157 0.03082897 0.07492574
v 0.02202112 0.03665092 0.06616863
v 0.02274457 0.03578837 0.06691762
v 0.02265912 0.03213991 0.07395339
v 0.02291546 0.03353109 0.07094700
v 0.01818172 0.03070508 0.08067943
v 0.01449043 0.03222723 0.08119910
v 0.01812761 0.03106142 0.08013444
v 0.01288404 0.03319598 0.08090576
v 0.01208938 0.03341428 0.08119315
v 0.01009563 0.03478658 0.08049627
v 0.01048299 0.03438657 0.08089236
v 0.01092446 0.03462138 0.08009721
v 0.01095864 0.03581433 0.07772664
v 0.01091022 0.03818134 0.07291254
v 0.01088744 0.03936366 0.07050475
v 0.01212926 0.04057902 0.06696229
v 0.01126625 0.04071000 0.06736285
v 0.01121783 0.04127638 0.06616863
v 0.02392088 0.03070508 0.07483937
v 0.02287274 0.03230275 0.07333543
v 0.02325155 0.03070508 0.07580577
v 0.02327433 0.03070508 0.07577301
v 0.02243981 0.03557833 0.06771278
v 0.02153692 0.03695535 0.06616863
v 0.02262494 0.03091629 0.07630013
v 0.02290407 0.03112986 0.07550349
v 0.01843806 0.03070508 0.08045458
v 0.02215213 0.03070508 0.07710124
v 0.01936373 0.03108267 0.07897893
v 0.02080493 0.03412697 0.07208612
v 0.01696268 0.03226971 0.07896702
v 0.01332551 0.03343552 0.08010912
v 0.01346792 0.03587214 0.07545882
v 0.01222325 0.03584383 0.07659198
v 0.01216059 0.03464380 0.07894171
v 0.02051726 0.03702969 0.06700399
v 0.01928113 0.03700609 0.06815949
v 0.01346507 0.03705565 0.07305251
v 0.01215204 0.03939552 0.06937009
v 0.01255364 0.04078316 0.06616863
v 0.01251377 0.04078198 0.06620437
v 0.01251377 0.04079850 0.06616863
v 0.01676331 0.03813414 0.06803888
v 0.01720478 0.03829815 0.06732711
v 0.01844091 0.03835007 0.06616863
v 0.01607689 0.03932944 0.06616863
v 0.02318889 0.03070508 0.07589362
v 0.02099291 0.03722556 0.06616863
v 0.02164515 0.03582494 0.06817289
v 0.02159389 0.03459542 0.07049581
v 0.02153692 0.03336590 0.07281873
v 0.02183029 0.03112396 0.07666793
v 0.02059986 0.03110272 0.07782343
v 0.02146856 0.03213637 0.07514165
v 0.02085335 0.03228859 0.07541861
v 0.02109830 0.03314997 0.07361537
v 0.02116950 0.03437831 0.07129246
v 0.02044605 0.03580370 0.06932840
v 0.01920993 0.03578247 0.07048390
v 0.01869725 0.03433701 0.07360346
v 0.01803646 0.03697895 0.06930755
v 0.01678325 0.03694945 0.07044667
v 0.01598290 0.03706863 0.07088445
v 0.02089038 0.03727512 0.06616863
v 0.01905612 0.03808340 0.06616863
f 1 2 5
f 1 5 10
f 1 10 23
f 1 23 38
f 1 38 60
f 1 60 39
f 1 39 24
f 1 24 11
f 1 11 6
f 1 6 3
f 1 3 7
f 1 7 15
f 1 15 33
f 1 33 50
f 1 50 68
f 1 68 84
f 1 84 104
f 1 104 128
f 1 128 126
f 1 126 132
f 1 132 131
f 1 131 151
f 1 151 150
f 1 150 134
f 1 134 110
f 1 110 87
f 1 87 72
f 1 72 53
f 1 53 35
f 1 35 16
f 1 16 8
f 1 8 4
f 1 4 2
f 2 4 5
f 3 6 7
f 4 8 17
f 4 17 36
f 4 36 55
f 4 55 74
f 4 74 70
f 4 70 85
f 4 85 105
f 4 105 108
f 4 108 107
f 4 107 133
f 4 133 114
f 4 114 113
f 4 113 91
f 4 91 75
f 4 75 58
f 4 58 37
f 4 37 18
f 4 18 9
f 4 9 10
f 4 10 5
f 6 11 12
f 6 12 13
f 6 13 14
f 6 14 15
f 6 15 7
f 8 16 34
f 8 34 17
f 9 18 19
f 9 19 20
f 9 20 21
f 9 21 10
f 10 22 23
f 10 21 20
f 10 20 22
f 11 24 12
f 12 25 13
f 12 24 26
f 12 26 27
f 12 27 28
f 12 28 29
f 12 29 30
f 12 30 25
f 13 25 14
f 14 25 30
f 14 30 31
f 14 31 32
f 14 32 15
f 15 32 31
f 15 31 33
f 16 35 34
f 17 34 36
f 18 37 38
f 18 38 22
f 18 22 19
f 19 22 20
f 22 38 23
f 24 39 40
f 24 40 26
f 26 40 41
f 26 41 27
f 27 41 42
f 27 42 28
f 28 43 44
f 28 44 29
f 28 42 45
f 28 45 46
f 28 46 47
f 28 47 43
f 29 44 30
f 30 44 43
f 30 43 31
f 31 43 48
f 31 48 33
f 33 49 50
f 33 48 49
f 34 51 36
f 34 35 51
f 35 52 51
f 35 53 54
f 35 54 52
f 36 51 55
f 37 56 57
f 37 57 38
f 37 58 59
f 37 59 61
f 37 61 56
f 38 57 56
f 38 56 61
f 38 61 60
f 39 60 40
f 40 60 61
f 40 61 62
f 40 62 41
f 41 62 63
f 41 63 42
f 42 63 64
f 42 64 65
f 42 65 45
f 43 47 48
f 45 65 64
f 45 64 66
f 45 66 46
f 46 66 47
f 47 66 48
f 48 66 67
f 48 67 49
f 49 67 50
f 50 67 68
f 51 69 55
f 51 52 70
f 51 70 69
f 52 54 71
f 52 71 70
f 53 72 73
f 53 73 54
f 54 73 71
f 55 69 74
f 58 75 76
f 58 76 77
f 58 77 59
f 59 78 62
f 59 62 61
f 59 77 78
f 62 78 79
f 62 79 63
f 63 79 80
f 63 80 64
f 64 80 81
f 64 81 66
f 66 81 82
f 66 82 67
f 67 82 83
f 67 83 84
f 67 84 68
f 69 70 74
f 70 71 85
f 71 73 86
f 71 86 85
f 72 87 73
f 73 87 88
f 73 88 89
f 73 89 90
f 73 90 86
f 75 91 76
f 76 92 77
f 76 91 93
f 76 93 94
f 76 94 95
f 76 95 92
f 77 92 79
f 77 79 78
f 79 95 80
f 79 92 95
f 80 96 81
f 80 95 97
f 80 97 98
f 80 98 96
f 81 96 99
f 81 99 100
f 81 100 101
f 81 101 83
f 81 83 82
f 83 101 102
f 83 102 103
f 83 103 104
f 83 104 84
f 85 86 105
f 86 90 106
f 86 106 89
f 86 89 107
f 86 107 108
f 86 108 105
f 87 109 88
f 87 110 109
f 88 109 89
f 89 106 90
f 89 109 110
f 89 110 111
f 89 111 112
f 89 112 107
f 91 113 93
f 93 113 114
f 93 114 115
f 93 115 116
f 93 116 117
f 93 117 121
f 93 121 118
f 93 118 97
f 93 97 94
f 94 97 95
f 96 98 119
f 96 119 120
f 96 120 99
f 97 118 98
f 98 118 121
f 98 121 122
f 98 122 123
f 98 123 119
f 99 120 124
f 99 124 125
f 99 125 102
f 99 102 100
f 100 102 101
f 102 126 127
f 102 127 128
f 102 128 104
f 102 104 103
f 102 125 129
f 102 129 130
f 102 130 131
f 102 131 132
f 102 132 126
f 107 112 111
f 107 111 133
f 110 134 122
f 110 122 135
f 110 135 111
f 111 135 136
f 111 136 137
f 111 137 138
f 111 138 114
f 111 114 133
f 114 138 139
f 114 139 115
f 115 139 140
f 115 140 141
f 115 141 116
f 116 141 142
f 116 142 143
f 116 143 144
f 116 144 145
f 116 145 146
f 116 146 117
f 117 146 121
f 119 123 147
f 119 147 120
f 120 147 148
f 120 148 149
f 120 149 129
f 120 129 124
f 121 146 145
f 121 145 122
f 122 145 144
f 122 144 143
f 122 143 136
f 122 136 135
f 122 134 150
f 122 150 151
f 122 151 123
f 123 151 131
f 123 131 147
f 124 129 125
f 126 128 127
f 129 149 131
f 129 131 130
f 131 149 148
f 131 148 147
f 136 143 137
f 137 143 140
f 137 140 138
f 138 140 139
f 140 143 142
f 140 142 141

