# https://github.com/mikedh/trimesh
v -0.04129850 -0.02276816 0.03152813
v -0.04129938 -0.01372462 0.02241126
v -0.04129938 -0.02276400 0.03152099
v -0.04129938 -0.02451570 0.03152813
v -0.03239211 -0.03320764 0.03152813
v -0.04050334 -0.01512266 0.02241126
v -0.04129938 -0.01718018 0.02241126
v -0.04129938 -0.02558919 0.03152813
v -0.03239211 -0.03497807 0.03152813
v -0.03239211 -0.03011616 0.02241126
v -0.04075793 -0.01825367 0.02241126
v -0.04129938 -0.01828904 0.02351606
v -0.04129938 -0.02535410 0.03087845
v -0.04050770 -0.02619875 0.03034925
v -0.04105873 -0.02589293 0.03152813
v -0.03247755 -0.03490525 0.03152813
v -0.03240867 -0.03365285 0.02557485
v -0.03239211 -0.03392955 0.02676801
v -0.03239211 -0.03279156 0.02241126
v -0.03953815 -0.02058789 0.02241126
v -0.03811696 -0.02373971 0.02284229
v -0.04074921 -0.01943118 0.02356961
v -0.04129938 -0.02067943 0.02590237
v -0.04129938 -0.02502540 0.03033319
v -0.04095236 -0.02560167 0.03034925
v -0.04058791 -0.02633606 0.03109977
v -0.03711254 -0.02883671 0.02606122
v -0.03587794 -0.02997677 0.02494481
v -0.04019207 -0.02688112 0.03152813
v -0.03307306 -0.03439556 0.03152813
v -0.03256300 -0.03378391 0.02676801
v -0.03351772 -0.03358212 0.02957196
v -0.03239211 -0.03352178 0.02492429
v -0.03239211 -0.03363829 0.02544635
v -0.03239211 -0.03288310 0.02258974
v -0.03248453 -0.03273747 0.02241126
v -0.03833843 -0.02288050 0.02241126
v -0.03468955 -0.03000173 0.02254958
v -0.04075008 -0.02420780 0.02834222
v -0.04075008 -0.02181949 0.02595591
v -0.03666090 -0.02811689 0.02443346
v -0.04129938 -0.02306774 0.02828868
v -0.04075096 -0.02538531 0.02953537
v -0.04129938 -0.02485272 0.03007796
v -0.03991045 -0.02689777 0.03034925
v -0.03690503 -0.02847888 0.02526519
v -0.03569397 -0.02963766 0.02414878
v -0.03485608 -0.03024722 0.02318676
v -0.03380632 -0.03134568 0.02241126
v -0.03371652 -0.03146842 0.02241126
v -0.03389002 -0.03165150 0.02318676
v -0.03461370 -0.03109811 0.02396762
v -0.03338171 -0.03224857 0.02318676
v -0.03471571 -0.03120629 0.02476365
v -0.03595205 -0.03005791 0.02557485
v -0.03864184 -0.02799830 0.02915521
v -0.03936900 -0.02749484 0.03034925
v -0.03989737 -0.02720359 0.03152813
v -0.03375052 -0.03379640 0.03152813
v -0.03361102 -0.03366741 0.03034925
v -0.03315938 -0.03326381 0.02676801
v -0.03355260 -0.03242541 0.02462354
v -0.03345931 -0.03233387 0.02382751
v -0.03278446 -0.03277908 0.02318676
v -0.03239211 -0.03348642 0.02477347
v -0.03239211 -0.03311402 0.02318676
v -0.03260747 -0.03263137 0.02241126
v -0.03713783 -0.02517311 0.02241126
v -0.03593374 -0.02746780 0.02241126
v -0.03477674 -0.02966471 0.02241126
v -0.03451953 -0.03012656 0.02241126
v -0.03728431 -0.02811689 0.02562751
v -0.03811783 -0.02732009 0.02642264
v -0.04129938 -0.02426189 0.02948451
v -0.03363892 -0.03155788 0.02241126
v -0.03271210 -0.03253775 0.02241126
v -0.03425448 -0.03189907 0.02557485
v -0.03438700 -0.03204261 0.02676801
v -0.03470088 -0.03238380 0.02960498
v -0.03491363 -0.03261472 0.03152813
v -0.03551087 -0.03196772 0.03152813
v -0.03665044 -0.03073196 0.03152813
v -0.03681435 -0.02969800 0.02796116
v -0.03736365 -0.02910092 0.02796116
v -0.03918939 -0.02797542 0.03152813
v -0.03827739 -0.02879718 0.03082045
v -0.03433992 -0.03322013 0.03152813
v -0.03845613 -0.02877221 0.03152813
f 1 2 3
f 1 3 4
f 1 4 8
f 1 8 15
f 1 15 29
f 1 29 58
f 1 58 85
f 1 85 88
f 1 88 82
f 1 82 81
f 1 81 80
f 1 80 87
f 1 87 59
f 1 59 30
f 1 30 16
f 1 16 9
f 1 9 5
f 1 5 2
f 2 6 10
f 2 10 19
f 2 19 36
f 2 36 67
f 2 67 76
f 2 76 75
f 2 75 50
f 2 50 49
f 2 49 71
f 2 71 70
f 2 70 69
f 2 69 68
f 2 68 37
f 2 37 20
f 2 20 11
f 2 11 7
f 2 7 12
f 2 12 23
f 2 23 42
f 2 42 74
f 2 74 44
f 2 44 24
f 2 24 13
f 2 13 8
f 2 8 4
f 2 4 3
f 2 5 6
f 5 9 18
f 5 18 34
f 5 34 33
f 5 33 65
f 5 65 66
f 5 66 35
f 5 35 19
f 5 19 10
f 5 10 6
f 7 11 12
f 8 13 14
f 8 14 15
f 9 16 17
f 9 17 18
f 11 20 21
f 11 21 22
f 11 22 23
f 11 23 12
f 13 24 25
f 13 25 14
f 14 26 15
f 14 25 27
f 14 27 28
f 14 28 26
f 15 26 29
f 16 30 31
f 16 31 17
f 17 31 32
f 17 32 33
f 17 33 34
f 17 34 18
f 19 35 36
f 20 37 38
f 20 38 21
f 21 39 40
f 21 40 22
f 21 38 41
f 21 41 39
f 22 40 23
f 23 40 39
f 23 39 42
f 24 43 25
f 24 44 43
f 25 43 27
f 26 28 45
f 26 45 29
f 27 46 38
f 27 38 47
f 27 47 48
f 27 48 28
f 27 43 46
f 28 48 49
f 28 49 50
f 28 50 51
f 28 51 52
f 28 52 53
f 28 53 54
f 28 54 55
f 28 55 56
f 28 56 45
f 29 45 57
f 29 57 58
f 30 59 60
f 30 60 32
f 30 32 31
f 32 61 33
f 32 60 62
f 32 62 63
f 32 63 61
f 33 61 63
f 33 63 64
f 33 64 65
f 35 66 36
f 36 66 64
f 36 64 67
f 37 68 38
f 38 69 70
f 38 70 71
f 38 71 49
f 38 49 48
f 38 48 47
f 38 46 72
f 38 72 73
f 38 73 41
f 38 68 69
f 39 43 44
f 39 44 74
f 39 74 42
f 39 41 73
f 39 73 43
f 43 73 72
f 43 72 46
f 45 56 57
f 50 75 53
f 50 53 51
f 51 53 52
f 53 75 76
f 53 76 67
f 53 67 64
f 53 64 63
f 53 63 54
f 54 63 77
f 54 77 78
f 54 78 79
f 54 79 80
f 54 80 81
f 54 81 82
f 54 82 83
f 54 83 84
f 54 84 55
f 55 84 56
f 56 85 57
f 56 84 86
f 56 86 85
f 57 85 58
f 59 87 60
f 60 87 62
f 62 80 79
f 62 79 78
f 62 78 77
f 62 77 63
f 62 87 80
f 64 66 65
f 82 88 86
f 82 86 83
f 83 86 84
f 85 86 88

