# https://github.com/mikedh/trimesh
v -0.00012787 -0.00689128 -0.08174269
v -0.00059330 -0.00618412 -0.07904341
v -0.00027244 -0.00685049 -0.08174269
v -0.00010479 -0.00689128 -0.08174269
v 0.00032794 -0.00558006 -0.07622032
v 0.00032794 -0.00506976 -0.07412295
v 0.00031640 -0.00506880 -0.07412295
v -0.00094974 -0.00495640 -0.07412295
v -0.00097795 -0.00511055 -0.07476514
v -0.00097795 -0.00526726 -0.07541777
v -0.00141548 -0.00492364 -0.07427735
v -0.00210945 -0.00467058 -0.07412295
v -0.00075645 -0.00657817 -0.08174269
v 0.00012375 -0.00687747 -0.08174269
v 0.00002118 -0.00685114 -0.08158681
v 0.00074720 -0.00557524 -0.07624046
v 0.00096934 -0.00505531 -0.07412295
v -0.00104911 -0.00494130 -0.07412295
v -0.00131996 -0.00489988 -0.07412295
v -0.00158537 -0.00483115 -0.07412295
v -0.00210945 -0.00361081 -0.07412295
v -0.00210945 -0.00508325 -0.07785451
v -0.00093980 -0.00647219 -0.08174269
v 0.00044493 -0.00673039 -0.08174269
v 0.00116519 -0.00533952 -0.07585932
v 0.00116519 -0.00508935 -0.07450707
v 0.00116519 -0.00501260 -0.07412295
v 0.00098088 -0.00505435 -0.07412295
v -0.00210945 -0.00382469 -0.07672452
v 0.00116519 -0.00416189 -0.07412295
v 0.00116519 -0.00442073 -0.08064105
v 0.00116519 -0.00444674 -0.08129368
v -0.00210945 -0.00546220 -0.08174269
v 0.00093215 -0.00647123 -0.08174269
v 0.00116519 -0.00558070 -0.07726378
v -0.00210945 -0.00388186 -0.07737641
v 0.00116519 -0.00452831 -0.08174269
v -0.00210945 -0.00435297 -0.08174269
v -0.00210945 -0.00427686 -0.08129368
v -0.00210945 -0.00406459 -0.07939993
v -0.00210945 -0.00393998 -0.07802605
v 0.00116519 -0.00618669 -0.08174269
v 0.00116519 -0.00575668 -0.07838258
v 0.00116519 -0.00567126 -0.07781125
f 1 2 3
f 1 3 13
f 1 13 23
f 1 23 33
f 1 33 38
f 1 38 37
f 1 37 42
f 1 42 34
f 1 34 24
f 1 24 14
f 1 14 4
f 1 4 5
f 1 5 6
f 1 6 7
f 1 7 8
f 1 8 9
f 1 9 10
f 1 10 2
f 2 10 11
f 2 11 12
f 2 12 3
f 3 12 13
f 4 14 15
f 4 15 16
f 4 16 5
f 5 16 17
f 5 17 6
f 6 17 28
f 6 28 27
f 6 27 30
f 6 30 21
f 6 21 12
f 6 12 20
f 6 20 19
f 6 19 18
f 6 18 8
f 6 8 7
f 8 18 9
f 9 18 11
f 9 11 10
f 11 18 19
f 11 19 20
f 11 20 12
f 12 21 29
f 12 29 36
f 12 36 41
f 12 41 40
f 12 40 39
f 12 39 38
f 12 38 33
f 12 33 22
f 12 22 23
f 12 23 13
f 14 24 25
f 14 25 26
f 14 26 16
f 14 16 15
f 16 26 27
f 16 27 28
f 16 28 17
f 21 30 31
f 21 31 32
f 21 32 29
f 22 33 23
f 24 34 35
f 24 35 25
f 25 35 44
f 25 44 43
f 25 43 42
f 25 42 37
f 25 37 32
f 25 32 31
f 25 31 30
f 25 30 27
f 25 27 26
f 29 32 36
f 32 37 38
f 32 38 39
f 32 39 40
f 32 40 41
f 32 41 36
f 34 42 43
f 34 43 44
f 34 44 35

