# https://github.com/mikedh/trimesh
v -0.01105881 0.00880451 -0.08876134
v -0.01237122 0.00732919 -0.08947725
v -0.01141475 0.00880451 -0.08900599
v -0.01237797 0.00880451 -0.08876134
v -0.01269173 0.00003670 -0.08876134
v -0.01290428 0.00003670 -0.08891199
v -0.01304767 0.00354348 -0.08946298
v -0.01233073 0.00784843 -0.08949865
v -0.01193769 0.00880451 -0.08934254
v -0.01195962 0.00850155 -0.08932785
v -0.01243701 0.00856334 -0.08876134
v -0.02709618 0.00880451 -0.09189564
v -0.01407668 0.00003670 -0.08876134
v -0.01343903 0.00003670 -0.08926994
v -0.01302068 0.00393141 -0.08947725
v -0.01369881 0.00023582 -0.08946340
v -0.01228688 0.00850155 -0.08951669
v -0.01226326 0.00880451 -0.08952383
v -0.01273222 0.00784843 -0.08961237
v -0.01273222 0.00850155 -0.08964552
v -0.01249268 0.00880451 -0.08959055
v -0.01259727 0.00784843 -0.08876134
v -0.02766298 0.00880451 -0.09201649
v -0.01397209 0.00066665 -0.08876134
v -0.02829051 0.00012596 -0.09181381
v -0.02626623 0.00003670 -0.09137654
v -0.01346771 0.00003670 -0.08928799
v -0.01396534 0.00003670 -0.08951250
v -0.01399402 0.00003670 -0.08951921
v -0.01403788 0.00066665 -0.08956076
v -0.01338505 0.00458367 -0.08960314
v -0.01273222 0.00880451 -0.08965937
v -0.02829051 0.00880451 -0.09304839
v -0.02709618 0.00850155 -0.09188305
v -0.02829051 0.00880451 -0.09219064
v -0.02829051 0.00778492 -0.09212896
v -0.02808977 0.00760726 -0.09206475
v -0.02829051 0.00143135 -0.09186416
v -0.02829051 0.00077823 -0.09183857
v -0.02829051 0.00003670 -0.09181171
v -0.02829051 0.00003670 -0.09259896
v -0.02829051 0.00737897 -0.09211007
v -0.02829051 0.00533807 -0.09202237
v -0.02829051 0.00524795 -0.09201859
v -0.02829051 0.00466006 -0.09199467
v -0.02829051 0.00396574 -0.09196656
v -0.02829051 0.00197204 -0.09188598
f 1 2 3
f 1 3 9
f 1 9 18
f 1 18 21
f 1 21 32
f 1 32 33
f 1 33 35
f 1 35 23
f 1 23 12
f 1 12 4
f 1 4 11
f 1 11 22
f 1 22 24
f 1 24 13
f 1 13 5
f 1 5 6
f 1 6 7
f 1 7 2
f 2 8 9
f 2 9 10
f 2 10 3
f 2 7 8
f 3 10 9
f 4 12 11
f 5 13 26
f 5 26 40
f 5 40 41
f 5 41 29
f 5 29 28
f 5 28 27
f 5 27 14
f 5 14 6
f 6 14 7
f 7 15 8
f 7 14 16
f 7 16 15
f 8 17 18
f 8 18 9
f 8 15 19
f 8 19 20
f 8 20 21
f 8 21 17
f 11 12 22
f 12 23 22
f 13 24 25
f 13 25 26
f 14 27 16
f 15 16 19
f 16 27 28
f 16 28 29
f 16 29 30
f 16 30 31
f 16 31 20
f 16 20 19
f 17 21 18
f 20 32 21
f 20 31 33
f 20 33 32
f 22 23 34
f 22 34 24
f 23 35 36
f 23 36 37
f 23 37 38
f 23 38 39
f 23 39 34
f 24 34 39
f 24 39 25
f 25 39 38
f 25 38 47
f 25 47 46
f 25 46 45
f 25 45 44
f 25 44 43
f 25 43 42
f 25 42 36
f 25 36 35
f 25 35 33
f 25 33 41
f 25 41 40
f 25 40 26
f 29 41 33
f 29 33 30
f 30 33 31
f 36 42 37
f 37 42 43
f 37 43 44
f 37 44 45
f 37 45 46
f 37 46 47
f 37 47 38

