# https://github.com/mikedh/trimesh
v -0.00053235 0.01083185 -0.08689799
v -0.00053235 0.00958200 -0.08543684
v -0.00053235 0.01083185 -0.08778608
v -0.01046454 0.01083185 -0.08858698
v -0.00097891 0.00889074 -0.08483161
v -0.00053235 0.00914449 -0.08500248
v -0.01104879 0.01083185 -0.08869121
v -0.00053235 0.01042355 -0.08766557
v -0.01187120 0.00461544 -0.08876095
v -0.00131506 0.01083185 -0.08791898
v -0.00097891 0.00885849 -0.08480293
v -0.01133533 0.01083185 -0.08874623
v -0.01140604 0.01083185 -0.08876095
v -0.00053235 0.00891448 -0.08480293
v -0.00053235 0.00928992 -0.08729825
v -0.00794521 0.00461544 -0.08612964
v -0.01320468 0.00461544 -0.08876095
v -0.00663159 0.01083002 -0.08876095
v -0.00662290 0.01083185 -0.08876018
v -0.00359003 0.01083185 -0.08829172
v -0.00304300 0.01083185 -0.08820454
v -0.00053235 0.00915422 -0.08725408
v -0.00053235 0.00870637 -0.08710141
v -0.00053235 0.00846175 -0.08701268
v -0.00053235 0.00819097 -0.08690497
v -0.00053235 0.00811978 -0.08687397
v -0.00053235 0.00783318 -0.08671898
v -0.00053235 0.00731778 -0.08643922
v -0.00053235 0.00694112 -0.08623464
v -0.00053235 0.00678595 -0.08614436
v -0.00053235 0.00657055 -0.08601533
v -0.00053235 0.00624074 -0.08577239
v -0.00053235 0.00610748 -0.08566854
v -0.00053235 0.00589876 -0.08521210
v -0.00138205 0.00875505 -0.08480293
v -0.01166281 0.01070406 -0.08876095
v -0.00685115 0.01083185 -0.08876095
v -0.00053235 0.00577463 -0.08480293
v -0.00748377 0.00461544 -0.08577394
v -0.00781373 0.00461544 -0.08480293
v -0.01259686 0.00784839 -0.08876095
v -0.00205561 0.00840090 -0.08480293
v -0.01182407 0.01055498 -0.08876095
v -0.00726917 0.00546917 -0.08480293
v -0.00708807 0.00561764 -0.08480293
v -0.00685735 0.00574725 -0.08480293
v -0.00398945 0.00733238 -0.08480293
v -0.00218709 0.00832849 -0.08480293
v -0.00637978 0.00461544 -0.08480293
v -0.00684618 0.00461544 -0.08522063
v -0.00769836 0.00499636 -0.08480293
v -0.01199649 0.00980714 -0.08864704
v -0.01243560 0.00856337 -0.08876095
v -0.01194935 0.01038947 -0.08876095
v -0.01189973 0.01034688 -0.08871523
v -0.00751850 0.00523307 -0.08480293
v -0.01213914 0.00980714 -0.08876095
f 1 2 6
f 1 6 14
f 1 14 38
f 1 38 34
f 1 34 33
f 1 33 32
f 1 32 31
f 1 31 30
f 1 30 29
f 1 29 28
f 1 28 27
f 1 27 26
f 1 26 25
f 1 25 24
f 1 24 23
f 1 23 22
f 1 22 15
f 1 15 8
f 1 8 3
f 1 3 10
f 1 10 21
f 1 21 20
f 1 20 19
f 1 19 37
f 1 37 13
f 1 13 12
f 1 12 7
f 1 7 4
f 1 4 2
f 2 5 6
f 2 4 7
f 2 7 5
f 3 8 9
f 3 9 10
f 5 11 6
f 5 7 12
f 5 12 13
f 5 13 11
f 6 11 14
f 8 15 9
f 9 16 39
f 9 39 50
f 9 50 49
f 9 49 40
f 9 40 17
f 9 17 41
f 9 41 53
f 9 53 57
f 9 57 54
f 9 54 43
f 9 43 36
f 9 36 13
f 9 13 37
f 9 37 18
f 9 18 19
f 9 19 20
f 9 20 21
f 9 21 10
f 9 15 22
f 9 22 23
f 9 23 24
f 9 24 25
f 9 25 26
f 9 26 27
f 9 27 28
f 9 28 29
f 9 29 30
f 9 30 31
f 9 31 32
f 9 32 33
f 9 33 34
f 9 34 16
f 11 13 35
f 11 35 42
f 11 42 48
f 11 48 47
f 11 47 46
f 11 46 45
f 11 45 44
f 11 44 56
f 11 56 51
f 11 51 40
f 11 40 49
f 11 49 38
f 11 38 14
f 13 36 35
f 16 34 38
f 16 38 39
f 17 40 41
f 18 37 19
f 35 36 42
f 36 43 44
f 36 44 45
f 36 45 46
f 36 46 47
f 36 47 48
f 36 48 42
f 38 49 50
f 38 50 39
f 40 51 52
f 40 52 41
f 41 52 53
f 43 54 55
f 43 55 56
f 43 56 44
f 51 56 55
f 51 55 52
f 52 55 54
f 52 54 57
f 52 57 53

