# https://github.com/mikedh/trimesh
v -0.03004489 0.01234317 -0.09534977
v -0.03003866 0.01234317 -0.09565959
v -0.02894708 0.01234317 -0.09534977
v -0.02938603 0.01404592 -0.09534977
v -0.02975908 0.01234317 -0.09607830
v -0.02947328 0.01371706 -0.09560003
v -0.02941986 0.01349417 -0.09601142
v -0.02624929 0.01234317 -0.09684474
v -0.02121521 0.02286171 -0.09534977
v -0.02938246 0.01405322 -0.09534977
v -0.02833273 0.01241990 -0.09677069
v -0.02827219 0.01234317 -0.09681591
v -0.02930678 0.01392899 -0.09577799
v -0.02802200 0.01272927 -0.09684474
v -0.02818671 0.01240650 -0.09684474
v -0.02807453 0.01600931 -0.09598478
v -0.02821342 0.01234317 -0.09684474
v -0.02094899 0.01980213 -0.09684474
v -0.02094899 0.02332211 -0.09534977
v -0.02937712 0.01406297 -0.09534977
v -0.02739340 0.01726506 -0.09593180
v -0.02614156 0.01933077 -0.09600147
v -0.02491287 0.01879242 -0.09668771
v -0.02468850 0.01853298 -0.09684474
v -0.02094899 0.02215284 -0.09684474
v -0.02094899 0.02475812 -0.09534977
v -0.02746196 0.01738686 -0.09549656
v -0.02678084 0.01864138 -0.09534977
v -0.02678084 0.01864138 -0.09539367
v -0.02670694 0.01851471 -0.09582907
v -0.02621457 0.01944282 -0.09565959
v -0.02599999 0.01976924 -0.09565959
v -0.02556817 0.02003842 -0.09602796
v -0.02578809 0.01956949 -0.09608855
v -0.02477219 0.01922845 -0.09661394
v -0.02452645 0.01898608 -0.09678898
v -0.02445344 0.01889351 -0.09684474
v -0.02413291 0.01922967 -0.09684474
v -0.02094899 0.02221131 -0.09682659
v -0.02094899 0.02478613 -0.09565959
v -0.02101132 0.02470088 -0.09534977
v -0.02615046 0.01954757 -0.09534977
v -0.02577830 0.01997630 -0.09534977
v -0.02567323 0.02014438 -0.09565959
v -0.02535181 0.02047080 -0.09565959
v -0.02491999 0.02068639 -0.09602561
v -0.02513813 0.02025522 -0.09610479
v -0.02439290 0.01896902 -0.09684474
v -0.02426291 0.02133557 -0.09602415
v -0.02097571 0.02457786 -0.09601786
v -0.02094899 0.02455228 -0.09603586
v -0.02094899 0.02416374 -0.09617255
v -0.02094899 0.02266075 -0.09668024
v -0.02094899 0.02459126 -0.09602181
v -0.02107008 0.02467164 -0.09565959
v -0.02105584 0.02465824 -0.09534977
v -0.02565187 0.02012002 -0.09534977
v -0.02552811 0.02024547 -0.09534977
v -0.02512922 0.02064376 -0.09534977
v -0.02446947 0.02129416 -0.09534977
v -0.02163279 0.02392989 -0.09601888
f 1 2 5
f 1 5 12
f 1 12 17
f 1 17 8
f 1 8 3
f 1 3 9
f 1 9 19
f 1 19 26
f 1 26 41
f 1 41 56
f 1 56 60
f 1 60 59
f 1 59 58
f 1 58 57
f 1 57 43
f 1 43 42
f 1 42 28
f 1 28 20
f 1 20 10
f 1 10 4
f 1 4 2
f 2 4 6
f 2 6 7
f 2 7 5
f 3 8 9
f 4 10 6
f 5 11 12
f 5 7 11
f 6 10 13
f 6 13 7
f 7 14 15
f 7 15 11
f 7 13 16
f 7 16 14
f 8 17 15
f 8 15 14
f 8 14 24
f 8 24 37
f 8 37 48
f 8 48 38
f 8 38 25
f 8 25 18
f 8 18 9
f 9 18 19
f 10 20 13
f 11 15 17
f 11 17 12
f 13 20 21
f 13 21 16
f 14 16 22
f 14 22 23
f 14 23 24
f 16 21 22
f 18 25 39
f 18 39 53
f 18 53 52
f 18 52 51
f 18 51 54
f 18 54 40
f 18 40 26
f 18 26 19
f 20 27 21
f 20 28 29
f 20 29 27
f 21 27 29
f 21 29 30
f 21 30 22
f 22 30 31
f 22 31 32
f 22 32 33
f 22 33 34
f 22 34 23
f 23 34 35
f 23 35 36
f 23 36 37
f 23 37 24
f 25 38 39
f 26 40 41
f 28 42 32
f 28 32 29
f 29 32 31
f 29 31 30
f 32 43 44
f 32 44 33
f 32 42 43
f 33 44 45
f 33 45 46
f 33 46 47
f 33 47 35
f 33 35 34
f 35 38 48
f 35 48 36
f 35 47 46
f 35 46 38
f 36 48 37
f 38 46 49
f 38 49 50
f 38 50 51
f 38 51 52
f 38 52 53
f 38 53 39
f 40 54 50
f 40 50 55
f 40 55 41
f 41 55 56
f 43 57 44
f 44 57 45
f 45 57 58
f 45 58 59
f 45 59 60
f 45 60 56
f 45 56 55
f 45 55 50
f 45 50 61
f 45 61 49
f 45 49 46
f 49 61 50
f 50 54 51

