# https://github.com/mikedh/trimesh
v 0.00501018 0.00009350 -0.07412060
v 0.00432874 0.00009350 -0.07412295
v 0.00497324 0.00066606 -0.07412295
v 0.00459558 0.00009350 -0.05592895
v 0.00423785 0.00009350 -0.07412295
v 0.00497178 0.00067743 -0.07412295
v 0.00457225 0.00033999 -0.05614968
v 0.00444831 0.00009350 -0.05125834
v 0.00423250 0.00009350 -0.07403137
v 0.00004472 0.00391910 -0.07411121
v 0.00004472 0.00392001 -0.07412295
v 0.00483034 0.00131913 -0.07412295
v 0.00406093 0.00131913 -0.05060554
v 0.00425827 0.00066606 -0.05060554
v 0.00442547 0.00009350 -0.05063137
v 0.00443033 0.00009350 -0.05076052
v 0.00482645 0.00133095 -0.07412295
v 0.00416300 0.00009350 -0.07280091
v 0.00004472 0.00390091 -0.07374019
v 0.00004472 0.00461082 -0.07412295
v 0.00392970 0.00167476 -0.05060554
v 0.00392241 0.00165521 -0.05027444
v 0.00398365 0.00131913 -0.05021339
v 0.00408037 0.00066606 -0.05015703
v 0.00415814 0.00009350 -0.05017816
v 0.00464273 0.00180074 -0.07412295
v 0.00415911 0.00009350 -0.07271872
v 0.00413530 0.00009350 -0.07215045
v 0.00004472 0.00389363 -0.07345841
v 0.00004472 0.00473906 -0.05554619
v 0.00032808 0.00461946 -0.07412295
v 0.00354280 0.00262480 -0.05060554
v 0.00331874 0.00300454 -0.05022278
v 0.00339748 0.00262480 -0.05016642
v 0.00293913 0.00262662 -0.05013355
v 0.00375764 0.00066606 -0.05015703
v 0.00381596 0.00009350 -0.05017816
v 0.00401621 0.00316371 -0.07412295
v 0.00386457 0.00009350 -0.06032012
v 0.00004472 0.00388635 -0.07308739
v 0.00004472 0.00473861 -0.05489338
v 0.00293962 0.00461445 -0.07412295
v 0.00228734 0.00464220 -0.07345841
v 0.00229852 0.00464083 -0.07412295
v 0.00098133 0.00462855 -0.07412295
v 0.00335179 0.00304001 -0.05060554
v 0.00204383 0.00364168 -0.05023452
v 0.00293962 0.00309049 -0.05016877
v 0.00293962 0.00325012 -0.05060554
v 0.00210945 0.00367170 -0.05060554
v 0.00163409 0.00372536 -0.05017347
v 0.00004472 0.00441844 -0.05018286
v 0.00004472 0.00401687 -0.05018286
v 0.00004472 0.00383405 -0.05060554
v 0.00370466 0.00009350 -0.05060554
v 0.00363564 0.00393047 -0.07412295
v 0.00385193 0.00009350 -0.05966731
v 0.00004472 0.00388226 -0.07280325
v 0.00382714 0.00009350 -0.05836170
v 0.00377854 0.00009350 -0.05575049
v 0.00376687 0.00009350 -0.05509768
v 0.00374451 0.00009350 -0.05378972
v 0.00372361 0.00009350 -0.05256395
v 0.00370174 0.00009350 -0.05125834
v 0.00004472 0.00470859 -0.05359482
v 0.00032808 0.00471451 -0.05517752
v 0.00293962 0.00461400 -0.07411121
v 0.00294837 0.00461127 -0.07412295
v 0.00284824 0.00371763 -0.05713593
v 0.00281373 0.00369807 -0.05648313
v 0.00277533 0.00367897 -0.05583032
v 0.00273451 0.00365942 -0.05517752
v 0.00269222 0.00364032 -0.05452471
v 0.00262369 0.00360894 -0.05346332
v 0.00339018 0.00441890 -0.07412295
v 0.00069554 0.00427564 -0.05025565
v 0.00032808 0.00435477 -0.05018990
v 0.00073977 0.00429565 -0.05060554
v 0.00215465 0.00369216 -0.05125834
v 0.00004472 0.00460536 -0.05058206
v 0.00370174 0.00009350 -0.05117850
v 0.00004472 0.00388044 -0.07215045
v 0.00004472 0.00469040 -0.05292558
v 0.00004472 0.00465402 -0.05160823
v 0.00004472 0.00464038 -0.05125834
v 0.00004472 0.00462764 -0.05097186
v 0.00228734 0.00451395 -0.06627520
v 0.00264848 0.00427564 -0.06496959
v 0.00262466 0.00426291 -0.06454222
v 0.00234324 0.00437888 -0.06432149
v 0.00234178 0.00372400 -0.05323554
v 0.00219694 0.00371172 -0.05191115
v 0.00228734 0.00448120 -0.06562240
v 0.00268299 0.00429474 -0.06562240
v 0.00078448 0.00431612 -0.05125834
v 0.00082677 0.00433567 -0.05191115
v 0.00098133 0.00445801 -0.05517752
v 0.00163409 0.00446983 -0.06039996
v 0.00215805 0.00434704 -0.06235603
v 0.00196509 0.00425927 -0.05938553
v 0.00095411 0.00439343 -0.05386956
f 1 2 3
f 1 3 4
f 1 4 8
f 1 8 16
f 1 16 15
f 1 15 25
f 1 25 37
f 1 37 55
f 1 55 81
f 1 81 64
f 1 64 63
f 1 63 62
f 1 62 61
f 1 61 60
f 1 60 59
f 1 59 57
f 1 57 39
f 1 39 28
f 1 28 27
f 1 27 18
f 1 18 9
f 1 9 5
f 1 5 2
f 2 5 11
f 2 11 20
f 2 20 31
f 2 31 45
f 2 45 44
f 2 44 42
f 2 42 68
f 2 68 75
f 2 75 56
f 2 56 38
f 2 38 26
f 2 26 17
f 2 17 12
f 2 12 6
f 2 6 3
f 3 6 7
f 3 7 4
f 4 7 8
f 5 9 10
f 5 10 11
f 6 12 7
f 7 13 14
f 7 14 15
f 7 15 16
f 7 16 8
f 7 12 17
f 7 17 13
f 9 18 10
f 10 18 19
f 10 19 29
f 10 29 40
f 10 40 58
f 10 58 82
f 10 82 54
f 10 54 53
f 10 53 52
f 10 52 80
f 10 80 86
f 10 86 85
f 10 85 84
f 10 84 83
f 10 83 65
f 10 65 41
f 10 41 30
f 10 30 20
f 10 20 11
f 13 21 22
f 13 22 14
f 13 17 21
f 14 22 15
f 15 22 23
f 15 23 24
f 15 24 25
f 17 26 21
f 18 27 19
f 19 27 28
f 19 28 29
f 20 30 31
f 21 32 22
f 21 26 32
f 22 33 23
f 22 32 33
f 23 33 34
f 23 34 24
f 24 34 35
f 24 35 36
f 24 36 37
f 24 37 25
f 26 38 32
f 28 39 29
f 29 39 40
f 30 41 42
f 30 42 43
f 30 43 44
f 30 44 45
f 30 45 31
f 32 46 33
f 32 38 46
f 33 47 48
f 33 48 34
f 33 46 49
f 33 49 50
f 33 50 47
f 34 48 35
f 35 48 51
f 35 51 52
f 35 52 53
f 35 53 36
f 36 53 37
f 37 53 54
f 37 54 55
f 38 56 46
f 39 57 40
f 40 57 59
f 40 59 60
f 40 60 61
f 40 61 62
f 40 62 63
f 40 63 64
f 40 64 58
f 41 65 66
f 41 66 42
f 42 67 68
f 42 44 43
f 42 66 67
f 46 69 70
f 46 70 71
f 46 71 72
f 46 72 73
f 46 73 74
f 46 74 49
f 46 56 75
f 46 75 69
f 47 76 77
f 47 77 51
f 47 51 48
f 47 50 76
f 49 74 50
f 50 78 76
f 50 74 79
f 50 79 78
f 51 77 52
f 52 77 80
f 54 64 81
f 54 81 55
f 54 82 64
f 58 64 82
f 65 83 66
f 66 83 84
f 66 84 85
f 66 85 86
f 66 86 87
f 66 87 67
f 67 87 68
f 68 87 75
f 69 75 70
f 70 75 88
f 70 88 89
f 70 89 71
f 71 89 72
f 72 89 73
f 73 89 90
f 73 90 74
f 74 91 92
f 74 92 79
f 74 90 91
f 75 87 93
f 75 93 94
f 75 94 88
f 76 78 80
f 76 80 77
f 78 79 95
f 78 95 80
f 79 92 96
f 79 96 95
f 80 95 96
f 80 96 97
f 80 97 86
f 86 97 98
f 86 98 93
f 86 93 87
f 88 94 93
f 88 93 89
f 89 93 90
f 90 93 99
f 90 99 92
f 90 92 91
f 92 99 100
f 92 100 96
f 93 98 101
f 93 101 96
f 93 96 99
f 96 101 97
f 96 100 99
f 97 101 98

