# https://github.com/mikedh/trimesh
v -0.00792566 0.00327754 -0.08480293
v -0.00791166 0.00393079 -0.08480293
v -0.00781449 -0.00182313 -0.08480293
v -0.00621778 -0.00063962 -0.08174299
v -0.00790447 0.00393079 -0.08479185
v -0.00789687 0.00406365 -0.08480293
v -0.00688038 -0.00182313 -0.08480293
v -0.00657127 -0.00182313 -0.08274080
v -0.00609541 -0.00129867 -0.08174299
v -0.00612060 0.00003045 -0.08174299
v -0.00789207 0.00410252 -0.08480293
v -0.00495656 -0.00182313 -0.08245203
v -0.00676401 0.00410194 -0.08480293
v -0.00676361 0.00410252 -0.08480263
v -0.00636533 0.00410252 -0.08440093
v -0.00483739 0.00410252 -0.08282708
v -0.00385689 0.00410252 -0.08180200
v -0.00630295 -0.00182313 -0.08237145
v -0.00582869 -0.00182313 -0.08174299
v -0.00556637 0.00260979 -0.08174299
v -0.00761295 0.00410252 -0.08447941
v -0.00711590 0.00410252 -0.08480293
v -0.00473062 -0.00182313 -0.08195148
v -0.00384089 0.00410252 -0.08174299
v -0.00472903 -0.00182313 -0.08194729
v -0.00469703 -0.00182313 -0.08174299
v -0.00552439 0.00279080 -0.08174299
v -0.00728625 0.00410252 -0.08411905
v -0.00540442 0.00326420 -0.08174299
v -0.00510691 0.00410252 -0.08174299
f 1 2 6
f 1 6 11
f 1 11 22
f 1 22 13
f 1 13 7
f 1 7 3
f 1 3 4
f 1 4 2
f 2 5 6
f 2 4 5
f 3 7 12
f 3 12 23
f 3 23 25
f 3 25 26
f 3 26 19
f 3 19 18
f 3 18 8
f 3 8 9
f 3 9 4
f 4 9 19
f 4 19 26
f 4 26 24
f 4 24 30
f 4 30 29
f 4 29 27
f 4 27 20
f 4 20 10
f 4 10 11
f 4 11 6
f 4 6 5
f 7 13 14
f 7 14 15
f 7 15 16
f 7 16 17
f 7 17 12
f 8 18 9
f 9 18 19
f 10 20 21
f 10 21 11
f 11 21 28
f 11 28 30
f 11 30 24
f 11 24 17
f 11 17 16
f 11 16 15
f 11 15 14
f 11 14 22
f 12 17 23
f 13 22 14
f 17 24 25
f 17 25 23
f 20 27 21
f 21 27 29
f 21 29 28
f 24 26 25
f 28 29 30

