# https://github.com/mikedh/trimesh
v -0.02986750 -0.01050037 -0.09371638
v -0.02982744 -0.01063557 -0.09371638
v -0.02940135 -0.01148433 -0.09333958
v -0.02946144 -0.01108812 -0.09325537
v -0.02954703 -0.01050037 -0.09314758
v -0.02870213 -0.01050037 -0.09371638
v -0.02948876 -0.01176412 -0.09371638
v -0.02949422 -0.01171717 -0.09369665
v -0.02938315 -0.01209085 -0.09371638
v -0.02932488 -0.01191997 -0.09347625
v -0.02883141 -0.01291707 -0.09324911
v -0.02892610 -0.01239505 -0.09315913
v -0.02923747 -0.01050037 -0.09285404
v -0.01296594 -0.01050037 -0.09011062
v -0.01289857 -0.01062055 -0.09012939
v -0.01246337 -0.01081208 -0.09007597
v -0.01228128 -0.01124773 -0.09013324
v -0.01126522 -0.02879746 -0.09371638
v -0.02926661 -0.01242698 -0.09371638
v -0.02895888 -0.01310110 -0.09364901
v -0.02871306 -0.01335272 -0.09339685
v -0.02814311 -0.01413388 -0.09329675
v -0.02827786 -0.01370011 -0.09319618
v -0.02845813 -0.01310110 -0.09308791
v -0.02837983 -0.01241759 -0.09282564
v -0.02919377 -0.01050037 -0.09281794
v -0.01207916 -0.01050037 -0.08989359
v -0.01167856 -0.01193500 -0.09013709
v -0.01126522 -0.02968377 -0.09371638
v -0.01126522 -0.01261100 -0.09012506
v -0.02899165 -0.01310110 -0.09371638
v -0.02891153 -0.01326634 -0.09371638
v -0.02879682 -0.01349731 -0.09371638
v -0.02808120 -0.01469909 -0.09371638
v -0.02786998 -0.01501643 -0.09369665
v -0.02772795 -0.01526430 -0.09371638
v -0.02800290 -0.01456952 -0.09347673
v -0.02742568 -0.01533753 -0.09337038
v -0.02684663 -0.01610555 -0.09328954
v -0.02776983 -0.01435170 -0.09314036
v -0.02772431 -0.01370011 -0.09286366
v -0.02793917 -0.01304664 -0.09278330
v -0.02749123 -0.01348416 -0.09270005
v -0.02858741 -0.01174159 -0.09277415
v -0.02868756 -0.01133223 -0.09273614
v -0.02887147 -0.01050037 -0.09267695
v -0.01201361 -0.01050037 -0.08987242
v -0.01137447 -0.01050037 -0.08965828
v -0.01126522 -0.01050037 -0.08961689
v -0.01126522 -0.02928005 -0.09302920
v -0.01143821 -0.02921808 -0.09300851
v -0.01207916 -0.02913922 -0.09320388
v -0.01250161 -0.02907349 -0.09332130
v -0.01202818 -0.02944341 -0.09371638
v -0.02734556 -0.01587082 -0.09371638
v -0.02707607 -0.01628393 -0.09371638
v -0.02578141 -0.01825748 -0.09371204
v -0.02468705 -0.01971464 -0.09353255
v -0.02482908 -0.01927899 -0.09335209
v -0.02425186 -0.02004700 -0.09327606
v -0.02646971 -0.01631773 -0.09313170
v -0.02573589 -0.01691675 -0.09292141
v -0.02703601 -0.01495071 -0.09293199
v -0.02721810 -0.01435358 -0.09281313
v -0.02761141 -0.01304664 -0.09266780
v -0.02814676 -0.01221479 -0.09270149
v -0.02677926 -0.01469533 -0.09271737
v -0.02689216 -0.01435358 -0.09268080
v -0.02351803 -0.01665761 -0.09206388
v -0.02362547 -0.01631210 -0.09203212
v -0.02317753 -0.01631210 -0.09190026
v -0.02420451 -0.01541828 -0.09205522
v -0.02844356 -0.01110314 -0.09263508
v -0.02877861 -0.01089658 -0.09270293
v -0.02845631 -0.01050037 -0.09255953
v -0.01126522 -0.01050037 -0.08880075
v -0.01126522 -0.02910542 -0.09274865
v -0.01166218 -0.02899838 -0.09276501
v -0.01318991 -0.02844444 -0.09267021
v -0.01293680 -0.02898899 -0.09344449
v -0.01272376 -0.02919930 -0.09367740
v -0.01239782 -0.02932511 -0.09371638
v -0.02578687 -0.01825373 -0.09371638
v -0.02475807 -0.01982355 -0.09371638
v -0.02448311 -0.02022539 -0.09370242
v -0.02410801 -0.02047889 -0.09343679
v -0.02351986 -0.02122249 -0.09335594
v -0.02364186 -0.02088074 -0.09325008
v -0.02386765 -0.02024793 -0.09311486
v -0.02447401 -0.01952874 -0.09320099
v -0.02443395 -0.01888278 -0.09291274
v -0.02533893 -0.01710265 -0.09277127
v -0.02663723 -0.01513098 -0.09277463
v -0.02430830 -0.01500704 -0.09202682
v -0.02709610 -0.01304664 -0.09252585
v -0.02779350 -0.01241759 -0.09263219
v -0.02620204 -0.01546334 -0.09269235
v -0.02642965 -0.01495071 -0.09265674
v -0.02418448 -0.01863679 -0.09271208
v -0.02316478 -0.01691111 -0.09200373
v -0.02255842 -0.01763406 -0.09195753
v -0.02187194 -0.01827063 -0.09186898
v -0.02252565 -0.01696557 -0.09182038
v -0.02089594 -0.01729981 -0.09141423
v -0.02385490 -0.01564549 -0.09199121
v -0.02624028 -0.01108812 -0.09203404
v -0.02840532 -0.01050037 -0.09254558
v -0.02495290 -0.01370011 -0.09202923
v -0.01734520 -0.01050037 -0.08995567
v -0.01764200 -0.01143363 -0.09010677
v -0.01899857 -0.01477232 -0.09074919
v -0.02034967 -0.01808473 -0.09139210
v -0.01991994 -0.01828940 -0.09136226
v -0.01970690 -0.01867247 -0.09139980
v -0.01375621 -0.01927899 -0.09075689
v -0.01142728 -0.01957756 -0.09051677
v -0.01126522 -0.01957756 -0.09049944
v -0.01126522 -0.02901904 -0.09267262
v -0.01362510 -0.02833365 -0.09280158
v -0.01339931 -0.02855898 -0.09303016
v -0.01273286 -0.02850828 -0.09262835
v -0.01273286 -0.02806325 -0.09244933
v -0.01339931 -0.02809517 -0.09256771
v -0.01403845 -0.02786796 -0.09264663
v -0.01438078 -0.02774966 -0.09271111
v -0.01309704 -0.02907349 -0.09371638
v -0.01281480 -0.02918428 -0.09371638
v -0.01272558 -0.02921808 -0.09371638
v -0.02450132 -0.02021225 -0.09371638
v -0.02448857 -0.02023103 -0.09371638
v -0.02446672 -0.02026295 -0.09371638
v -0.02421726 -0.02061597 -0.09371638
v -0.02362183 -0.02132202 -0.09370050
v -0.02362547 -0.02132765 -0.09371638
v -0.02327950 -0.02166190 -0.09371638
v -0.02296084 -0.02196797 -0.09371638
v -0.02285341 -0.02186282 -0.09337134
v -0.02311380 -0.02147787 -0.09326596
v -0.02313383 -0.02084131 -0.09291804
v -0.02402971 -0.02085257 -0.09371638
v -0.02333595 -0.02022727 -0.09279725
v -0.02463060 -0.01827063 -0.09280255
v -0.02404063 -0.01907244 -0.09276982
v -0.02383123 -0.01500704 -0.09189738
v -0.02288619 -0.02059719 -0.09270967
v -0.02301001 -0.02022727 -0.09266877
v -0.02221974 -0.01862928 -0.09206099
v -0.02186466 -0.01887715 -0.09199747
v -0.02164069 -0.01936725 -0.09203645
v -0.02121824 -0.01892409 -0.09181557
v -0.02383123 -0.01435358 -0.09181268
v -0.02056636 -0.01755707 -0.09137189
v -0.02056636 -0.01696557 -0.09130789
v -0.02127833 -0.01571121 -0.09133532
v -0.02321213 -0.01173783 -0.09135216
v -0.02382941 -0.01050037 -0.09136082
v -0.02365278 -0.01108812 -0.09138247
v -0.02355081 -0.01151813 -0.09140461
v -0.02579051 -0.01050037 -0.09184107
v -0.02513681 -0.01174159 -0.09182520
v -0.02579051 -0.01108812 -0.09191374
v -0.02513681 -0.01239505 -0.09190700
v -0.02642601 -0.01050037 -0.09200757
v -0.01786051 -0.01050037 -0.09005913
v -0.01772394 -0.01108812 -0.09008896
v -0.02122006 -0.01958132 -0.09197774
v -0.02056636 -0.01957756 -0.09181750
v -0.01991448 -0.02022727 -0.09183674
v -0.01926260 -0.02088074 -0.09185840
v -0.01860890 -0.02153421 -0.09188631
v -0.01714125 -0.02330871 -0.09202875
v -0.01644021 -0.02391711 -0.09204463
v -0.01571731 -0.02451049 -0.09206003
v -0.01534403 -0.02463442 -0.09203549
v -0.01664961 -0.02283926 -0.09184300
v -0.01926260 -0.01881518 -0.09137093
v -0.01730332 -0.01957756 -0.09127180
v -0.01403845 -0.02479967 -0.09190026
v -0.01202089 -0.02347959 -0.09137622
v -0.01176597 -0.02382698 -0.09141327
v -0.01126522 -0.02073427 -0.09072850
v -0.01126522 -0.02022727 -0.09062745
v -0.01126522 -0.02874488 -0.09257782
v -0.01381448 -0.02845570 -0.09323660
v -0.01503266 -0.02774590 -0.09335931
v -0.01338474 -0.02741166 -0.09237474
v -0.01403845 -0.02741166 -0.09247772
v -0.01207916 -0.02806325 -0.09241902
v -0.01207916 -0.02653098 -0.09204415
v -0.01251436 -0.02647840 -0.09205666
v -0.01463570 -0.02738161 -0.09262979
v -0.01509639 -0.02714313 -0.09267839
v -0.02025317 -0.02382885 -0.09336268
v -0.01765111 -0.02579489 -0.09335450
v -0.01649302 -0.02655915 -0.09321543
v -0.01577012 -0.02715628 -0.09328088
v -0.01697191 -0.02577423 -0.09272315
v -0.01336289 -0.02892890 -0.09371638
v -0.02249287 -0.02237733 -0.09371638
v -0.02252565 -0.02198675 -0.09325922
v -0.02225980 -0.02257638 -0.09371638
v -0.02188469 -0.02287494 -0.09371638
v -0.02188651 -0.02285053 -0.09368702
v -0.02213233 -0.02246371 -0.09343679
v -0.02248195 -0.02148914 -0.09292526
v -0.02267132 -0.02103284 -0.09277945
v -0.02223613 -0.02124127 -0.09271111
v -0.02248195 -0.02084131 -0.09266492
v -0.01926260 -0.01304664 -0.09062408
v -0.01998732 -0.01050037 -0.09052254
v -0.02252565 -0.01239505 -0.09126939
v -0.02100338 -0.02000006 -0.09203982
v -0.02054997 -0.02021976 -0.09198977
v -0.02032054 -0.02062348 -0.09204800
v -0.01920433 -0.02149290 -0.09201912
v -0.01782773 -0.02268529 -0.09201864
v -0.01730332 -0.02479967 -0.09250130
v -0.01469033 -0.02675819 -0.09243634
v -0.01374528 -0.02580052 -0.09206388
v -0.01452098 -0.02522592 -0.09204800
v -0.01599773 -0.02349273 -0.09189016
v -0.01794609 -0.01959446 -0.09135793
v -0.01338474 -0.02591507 -0.09204030
v -0.01142728 -0.02349273 -0.09130981
v -0.01142728 -0.02283926 -0.09117266
v -0.01273286 -0.02545126 -0.09186369
v -0.01273286 -0.02613664 -0.09200565
v -0.01126522 -0.02283926 -0.09115919
v -0.01126522 -0.02806325 -0.09239880
v -0.01432069 -0.02836369 -0.09371638
v -0.01404573 -0.02853081 -0.09371638
v -0.01389824 -0.02861719 -0.09371638
v -0.01516922 -0.02783228 -0.09371638
v -0.01620531 -0.02699479 -0.09349887
v -0.01708481 -0.02650845 -0.09371638
v -0.01630910 -0.02706802 -0.09371638
v -0.01532582 -0.02674880 -0.09259803
v -0.01126522 -0.02660233 -0.09202682
v -0.01142728 -0.02658919 -0.09203019
v -0.01142728 -0.02610472 -0.09191470
v -0.01126522 -0.02379318 -0.09136467
v -0.01207916 -0.02610472 -0.09194454
v -0.01859069 -0.02537427 -0.09371638
v -0.01808630 -0.02562965 -0.09355902
v -0.01692821 -0.02639390 -0.09341995
v -0.01734702 -0.02626997 -0.09366248
v -0.01729603 -0.02635071 -0.09371638
v -0.01730332 -0.02530479 -0.09265674
v -0.01766567 -0.02515081 -0.09270582
v -0.01949568 -0.02373872 -0.09275587
v -0.02152415 -0.02314910 -0.09371638
v -0.02054451 -0.02389270 -0.09371638
v -0.02198666 -0.02167692 -0.09278811
v -0.02155147 -0.02186470 -0.09271930
v -0.02043162 -0.02267965 -0.09267262
v -0.01994544 -0.02287494 -0.09260621
v -0.01894941 -0.02187221 -0.09206484
v -0.01927170 -0.02350963 -0.09262113
v -0.01974696 -0.02330307 -0.09268128
v -0.01671334 -0.02551510 -0.09256675
v -0.01126522 -0.02333312 -0.09126265
v -0.01126522 -0.02610472 -0.09190796
v -0.01788418 -0.02590756 -0.09371638
f 1 2 3
f 1 3 4
f 1 4 5
f 1 5 13
f 1 13 26
f 1 26 46
f 1 46 75
f 1 75 107
f 1 107 163
f 1 163 159
f 1 159 156
f 1 156 210
f 1 210 164
f 1 164 109
f 1 109 76
f 1 76 49
f 1 49 48
f 1 48 47
f 1 47 27
f 1 27 14
f 1 14 6
f 1 6 18
f 1 18 29
f 1 29 54
f 1 54 82
f 1 82 128
f 1 128 127
f 1 127 126
f 1 126 198
f 1 198 232
f 1 232 231
f 1 231 230
f 1 230 233
f 1 233 236
f 1 236 235
f 1 235 247
f 1 247 263
f 1 263 243
f 1 243 252
f 1 252 251
f 1 251 202
f 1 202 201
f 1 201 199
f 1 199 136
f 1 136 135
f 1 135 134
f 1 134 140
f 1 140 132
f 1 132 131
f 1 131 130
f 1 130 129
f 1 129 84
f 1 84 83
f 1 83 56
f 1 56 55
f 1 55 36
f 1 36 34
f 1 34 33
f 1 33 32
f 1 32 31
f 1 31 19
f 1 19 9
f 1 9 7
f 1 7 2
f 2 7 8
f 2 8 3
f 3 8 7
f 3 7 9
f 3 9 10
f 3 10 11
f 3 11 4
f 4 11 12
f 4 12 5
f 5 12 13
f 6 14 15
f 6 15 16
f 6 16 17
f 6 17 18
f 9 19 10
f 10 19 11
f 11 19 20
f 11 20 21
f 11 21 22
f 11 22 23
f 11 23 24
f 11 24 25
f 11 25 12
f 12 25 26
f 12 26 13
f 14 27 15
f 15 27 16
f 16 27 28
f 16 28 17
f 17 28 18
f 18 28 30
f 18 30 49
f 18 49 76
f 18 76 117
f 18 117 182
f 18 182 181
f 18 181 228
f 18 228 261
f 18 261 241
f 18 241 262
f 18 262 238
f 18 238 229
f 18 229 183
f 18 183 118
f 18 118 77
f 18 77 50
f 18 50 29
f 19 31 20
f 20 31 32
f 20 32 21
f 21 32 33
f 21 33 34
f 21 34 35
f 21 35 36
f 21 36 37
f 21 37 22
f 22 37 38
f 22 38 39
f 22 39 23
f 23 39 40
f 23 40 41
f 23 41 24
f 24 41 25
f 25 41 42
f 25 42 43
f 25 43 44
f 25 44 26
f 26 45 46
f 26 44 45
f 27 47 28
f 28 47 48
f 28 48 49
f 28 49 30
f 29 50 51
f 29 51 52
f 29 52 53
f 29 53 54
f 34 36 35
f 36 55 37
f 37 55 38
f 38 55 56
f 38 56 57
f 38 57 58
f 38 58 59
f 38 59 39
f 39 59 60
f 39 60 40
f 40 61 62
f 40 62 63
f 40 63 41
f 40 60 61
f 41 63 64
f 41 64 43
f 41 43 42
f 43 65 66
f 43 66 44
f 43 64 67
f 43 67 68
f 43 68 69
f 43 69 70
f 43 70 71
f 43 71 72
f 43 72 65
f 44 66 45
f 45 73 74
f 45 74 46
f 45 66 73
f 46 74 73
f 46 73 75
f 50 77 51
f 51 77 78
f 51 78 52
f 52 78 79
f 52 79 53
f 53 80 81
f 53 81 54
f 53 79 80
f 54 81 82
f 56 83 57
f 57 83 84
f 57 84 58
f 58 84 85
f 58 85 86
f 58 86 59
f 59 86 60
f 60 86 87
f 60 87 88
f 60 88 89
f 60 89 90
f 60 90 61
f 61 90 89
f 61 89 91
f 61 91 62
f 62 64 63
f 62 91 64
f 64 91 92
f 64 92 93
f 64 93 67
f 65 72 94
f 65 94 95
f 65 95 66
f 66 95 94
f 66 94 96
f 66 96 73
f 67 97 98
f 67 98 68
f 67 93 92
f 67 92 99
f 67 99 97
f 68 98 69
f 69 100 70
f 69 98 101
f 69 101 102
f 69 102 100
f 70 100 103
f 70 103 71
f 71 103 104
f 71 104 105
f 71 105 72
f 72 105 94
f 73 106 107
f 73 107 75
f 73 96 94
f 73 94 108
f 73 108 106
f 76 109 110
f 76 110 111
f 76 111 112
f 76 112 113
f 76 113 114
f 76 114 115
f 76 115 116
f 76 116 117
f 77 118 79
f 77 79 78
f 79 119 120
f 79 120 80
f 79 118 121
f 79 121 122
f 79 122 123
f 79 123 124
f 79 124 125
f 79 125 119
f 80 126 81
f 80 120 126
f 81 126 127
f 81 127 128
f 81 128 82
f 84 129 85
f 85 129 130
f 85 130 131
f 85 131 132
f 85 132 86
f 86 132 87
f 87 133 134
f 87 134 135
f 87 135 136
f 87 136 137
f 87 137 138
f 87 138 139
f 87 139 88
f 87 132 140
f 87 140 133
f 88 139 89
f 89 139 91
f 91 139 141
f 91 141 142
f 91 142 92
f 92 142 141
f 92 141 143
f 92 143 99
f 94 105 104
f 94 104 144
f 94 144 108
f 97 99 101
f 97 101 98
f 99 143 145
f 99 145 146
f 99 146 147
f 99 147 101
f 100 102 103
f 101 147 148
f 101 148 102
f 102 148 149
f 102 149 150
f 102 150 112
f 102 112 103
f 103 112 104
f 104 151 144
f 104 112 152
f 104 152 153
f 104 153 154
f 104 154 155
f 104 155 156
f 104 156 157
f 104 157 158
f 104 158 159
f 104 159 160
f 104 160 161
f 104 161 162
f 104 162 151
f 106 162 163
f 106 163 107
f 106 108 162
f 108 144 162
f 109 164 165
f 109 165 110
f 110 165 153
f 110 153 152
f 110 152 111
f 111 152 112
f 112 150 166
f 112 166 167
f 112 167 168
f 112 168 169
f 112 169 114
f 112 114 113
f 114 169 170
f 114 170 171
f 114 171 172
f 114 172 173
f 114 173 174
f 114 174 175
f 114 175 176
f 114 176 116
f 114 116 115
f 116 176 177
f 116 177 178
f 116 178 179
f 116 179 180
f 116 180 181
f 116 181 182
f 116 182 117
f 118 183 122
f 118 122 121
f 119 184 126
f 119 126 120
f 119 125 185
f 119 185 184
f 122 186 187
f 122 187 123
f 122 183 188
f 122 188 189
f 122 189 190
f 122 190 186
f 123 187 124
f 124 187 191
f 124 191 192
f 124 192 125
f 125 193 194
f 125 194 195
f 125 195 196
f 125 196 185
f 125 192 197
f 125 197 137
f 125 137 193
f 126 184 198
f 133 140 134
f 136 199 137
f 137 200 138
f 137 199 201
f 137 201 202
f 137 202 203
f 137 203 204
f 137 204 193
f 137 197 200
f 138 200 205
f 138 205 139
f 139 145 141
f 139 205 206
f 139 206 145
f 141 145 143
f 144 151 162
f 145 206 207
f 145 207 208
f 145 208 166
f 145 166 149
f 145 149 148
f 145 148 146
f 146 148 147
f 149 166 150
f 153 165 209
f 153 209 210
f 153 210 154
f 154 210 211
f 154 211 155
f 155 211 210
f 155 210 156
f 156 159 158
f 156 158 157
f 159 163 161
f 159 161 160
f 161 163 162
f 164 210 165
f 165 210 209
f 166 208 207
f 166 207 212
f 166 212 168
f 166 168 167
f 168 212 213
f 168 213 169
f 169 213 214
f 169 214 215
f 169 215 216
f 169 216 171
f 169 171 170
f 171 216 217
f 171 217 218
f 171 218 172
f 172 218 187
f 172 187 173
f 173 187 186
f 173 186 219
f 173 219 220
f 173 220 174
f 174 220 221
f 174 221 175
f 175 221 176
f 176 222 177
f 176 221 220
f 176 220 222
f 177 222 178
f 178 220 223
f 178 223 179
f 178 222 220
f 179 223 180
f 180 224 225
f 180 225 181
f 180 223 226
f 180 226 227
f 180 227 190
f 180 190 224
f 181 225 228
f 183 229 188
f 184 230 231
f 184 231 232
f 184 232 198
f 184 185 233
f 184 233 230
f 185 196 234
f 185 234 235
f 185 235 236
f 185 236 233
f 186 190 227
f 186 227 223
f 186 223 219
f 187 218 237
f 187 237 191
f 188 229 238
f 188 238 239
f 188 239 189
f 189 239 240
f 189 240 241
f 189 241 242
f 189 242 190
f 190 242 241
f 190 241 224
f 191 237 197
f 191 197 192
f 193 204 243
f 193 243 194
f 194 244 245
f 194 245 195
f 194 243 244
f 195 245 196
f 196 245 246
f 196 246 247
f 196 247 235
f 196 235 234
f 197 237 248
f 197 248 249
f 197 249 250
f 197 250 200
f 200 250 205
f 202 251 203
f 203 251 204
f 204 251 252
f 204 252 243
f 205 250 253
f 205 253 206
f 206 253 207
f 207 214 212
f 207 253 254
f 207 254 255
f 207 255 256
f 207 256 214
f 212 214 213
f 214 257 215
f 214 256 257
f 215 257 216
f 216 256 258
f 216 258 217
f 216 257 256
f 217 258 259
f 217 259 260
f 217 260 218
f 218 260 237
f 219 223 220
f 223 227 226
f 224 241 261
f 224 261 225
f 225 261 228
f 237 260 248
f 238 262 239
f 239 262 240
f 240 262 241
f 243 263 245
f 243 245 244
f 245 263 246
f 246 263 247
f 248 259 249
f 248 260 259
f 249 259 250
f 250 259 254
f 250 254 253
f 254 259 255
f 255 259 256
f 256 259 258

