# https://github.com/mikedh/trimesh
v 0.02957758 0.01260346 0.01802174
v 0.01790564 0.02742867 0.01802174
v 0.03140051 0.01260346 0.01802174
v 0.02939910 0.01260346 0.03867145
v 0.01790564 0.02644940 0.03867145
v 0.01790564 0.02909375 0.01802174
v 0.02858164 0.01857473 0.01802174
v 0.03132013 0.01308661 0.01893537
v 0.03147272 0.01260346 0.01857760
v 0.03111032 0.01260346 0.03867145
v 0.01790564 0.02835768 0.03867145
v 0.01841382 0.02887812 0.01802174
v 0.01790564 0.02910510 0.01844824
v 0.02838954 0.01895087 0.01802174
v 0.02841679 0.01902545 0.01844824
v 0.03003400 0.01704908 0.02401492
v 0.03161442 0.01260346 0.02069593
v 0.03169480 0.01260346 0.02204213
v 0.03056807 0.01443716 0.03867145
v 0.03120024 0.01260346 0.03810144
v 0.01790564 0.02907754 0.03155037
v 0.02096429 0.02623863 0.03867145
v 0.02102015 0.02627592 0.03810144
v 0.02084849 0.02748055 0.02978779
v 0.01831300 0.02883597 0.03155037
v 0.01906915 0.02850035 0.01802174
v 0.01842200 0.02888460 0.01844824
v 0.01790564 0.02911807 0.01921431
v 0.02817292 0.01936106 0.01802174
v 0.02773012 0.02012307 0.01802174
v 0.02776146 0.02015226 0.01844824
v 0.03004898 0.01707178 0.02499930
v 0.03035826 0.01631625 0.02499930
v 0.03170842 0.01260346 0.02237968
v 0.03036916 0.01503380 0.03867145
v 0.03126018 0.01260346 0.03770526
v 0.03047679 0.01500624 0.03810144
v 0.01905961 0.02850360 0.03024056
v 0.01790564 0.02912131 0.03099451
v 0.02124904 0.02602787 0.03867145
v 0.02112915 0.02636348 0.03679163
v 0.02154060 0.02683365 0.02892873
v 0.02088527 0.02750974 0.02892873
v 0.02016046 0.02793614 0.02892873
v 0.02161962 0.02574252 0.03867145
v 0.02167548 0.02577170 0.03810144
v 0.02178311 0.02583493 0.03679163
v 0.02187031 0.02589167 0.03548182
v 0.02194524 0.02595166 0.03417201
v 0.02499709 0.02245775 0.03867145
v 0.02501752 0.02248694 0.03810144
v 0.01994656 0.02784373 0.01802174
v 0.01907733 0.02850522 0.01844824
v 0.02089072 0.02751298 0.02762094
v 0.01790564 0.02913428 0.02052412
v 0.01790564 0.02914888 0.02183393
v 0.01790564 0.02915374 0.02314374
v 0.01842063 0.02888785 0.01975804
v 0.01907596 0.02853278 0.02237968
v 0.01907596 0.02852792 0.02106988
v 0.01907596 0.02851819 0.01975804
v 0.02726417 0.02077808 0.01802174
v 0.02728189 0.02080726 0.01844824
v 0.02957350 0.01772841 0.02499930
v 0.02887457 0.01852285 0.02762094
v 0.03020157 0.01598226 0.03679163
v 0.03068388 0.01500624 0.03548182
v 0.03148226 0.01341574 0.03155037
v 0.03148635 0.01348059 0.03024056
v 0.03181197 0.01260346 0.02762094
v 0.03179153 0.01260346 0.02631113
v 0.03176701 0.01260346 0.02499930
v 0.03173976 0.01260346 0.02368949
v 0.03173295 0.01260346 0.02337619
v 0.03147272 0.01351302 0.02892873
v 0.03017024 0.01551695 0.03867145
v 0.03138553 0.01260346 0.03679163
v 0.03012255 0.01586391 0.03810144
v 0.03155856 0.01260346 0.03549597
v 0.03062665 0.01500624 0.03679163
v 0.01840429 0.02888298 0.03024056
v 0.01790564 0.02915698 0.03024056
v 0.02215778 0.02617865 0.02892873
v 0.02219184 0.02621270 0.02762094
v 0.02154605 0.02686932 0.02762094
v 0.01908141 0.02853440 0.02892873
v 0.02016046 0.02793938 0.02762094
v 0.02235261 0.02508751 0.03867145
v 0.02528047 0.02216430 0.03867145
v 0.02504614 0.02254368 0.03679163
v 0.02038935 0.02744651 0.01802174
v 0.02085530 0.02748542 0.02631113
v 0.02082805 0.02746434 0.02544197
v 0.02218912 0.02620621 0.02631113
v 0.02151063 0.02686122 0.02631113
v 0.01790564 0.02916509 0.02969683
v 0.01907869 0.02853440 0.02631113
v 0.01842608 0.02888785 0.02892873
v 0.02705164 0.02100182 0.01802174
v 0.02726554 0.02078619 0.01975804
v 0.02890727 0.01855041 0.02631113
v 0.02662656 0.02146714 0.01844824
v 0.02600256 0.02215781 0.01975804
v 0.02474913 0.02352457 0.02297193
v 0.02474913 0.02352457 0.02306895
v 0.02758843 0.01985069 0.03155037
v 0.02755710 0.01982151 0.03286018
v 0.02622055 0.02110558 0.03867145
v 0.02751486 0.01978422 0.03417201
v 0.02882824 0.01848231 0.02892873
v 0.02971791 0.01663727 0.03679163
v 0.03180107 0.01260346 0.03258326
v 0.03182287 0.01260346 0.03128962
v 0.03006261 0.01577474 0.03867145
v 0.03169889 0.01260346 0.03417201
v 0.03172205 0.01260346 0.03388094
v 0.03178745 0.01260346 0.03286018
v 0.02452024 0.02327003 0.03417201
v 0.02455294 0.02329759 0.03286018
v 0.02565106 0.02176059 0.03867145
v 0.02567286 0.02177518 0.03810144
v 0.02065502 0.02729897 0.01975804
v 0.02060189 0.02724871 0.01802174
v 0.02082396 0.02703632 0.01802174
v 0.02345754 0.02485404 0.02398461
v 0.02405156 0.02411311 0.02106988
v 0.02328996 0.02469191 0.01844824
v 0.02199293 0.02601489 0.01975804
v 0.02660884 0.02144768 0.01802174
v 0.02570147 0.02180275 0.03679163
v 0.02626960 0.02114774 0.03679163
v 0.02596305 0.02212214 0.01844824
v 0.02616061 0.02189030 0.01802174
v 0.02507066 0.02258584 0.03548182
v 0.02623826 0.02112018 0.03810144
v 0.02128446 0.02659370 0.01802174
v 0.02327634 0.02467894 0.01802174
v 0.02573008 0.02231021 0.01802174
v 0.02439898 0.02359753 0.01802174
f 1 2 6
f 1 6 12
f 1 12 26
f 1 26 52
f 1 52 91
f 1 91 123
f 1 123 124
f 1 124 136
f 1 136 137
f 1 137 139
f 1 139 138
f 1 138 133
f 1 133 129
f 1 129 99
f 1 99 62
f 1 62 30
f 1 30 29
f 1 29 14
f 1 14 7
f 1 7 3
f 1 3 9
f 1 9 17
f 1 17 18
f 1 18 34
f 1 34 74
f 1 74 73
f 1 73 72
f 1 72 71
f 1 71 70
f 1 70 113
f 1 113 112
f 1 112 117
f 1 117 116
f 1 116 115
f 1 115 79
f 1 79 77
f 1 77 36
f 1 36 20
f 1 20 10
f 1 10 4
f 1 4 5
f 1 5 2
f 2 5 11
f 2 11 21
f 2 21 39
f 2 39 82
f 2 82 96
f 2 96 57
f 2 57 56
f 2 56 55
f 2 55 28
f 2 28 13
f 2 13 6
f 3 7 8
f 3 8 9
f 4 10 19
f 4 19 35
f 4 35 76
f 4 76 114
f 4 114 108
f 4 108 120
f 4 120 89
f 4 89 50
f 4 50 88
f 4 88 45
f 4 45 40
f 4 40 22
f 4 22 11
f 4 11 5
f 6 13 12
f 7 14 15
f 7 15 16
f 7 16 8
f 8 17 9
f 8 16 18
f 8 18 17
f 10 20 19
f 11 22 23
f 11 23 24
f 11 24 25
f 11 25 21
f 12 13 27
f 12 27 26
f 13 28 27
f 14 29 15
f 15 29 30
f 15 30 31
f 15 31 16
f 16 32 33
f 16 33 34
f 16 34 18
f 16 31 32
f 19 20 36
f 19 36 37
f 19 37 35
f 21 25 38
f 21 38 39
f 22 40 23
f 23 40 41
f 23 41 24
f 24 42 43
f 24 43 44
f 24 44 38
f 24 38 25
f 24 41 45
f 24 45 46
f 24 46 47
f 24 47 48
f 24 48 49
f 24 49 50
f 24 50 51
f 24 51 42
f 26 27 53
f 26 53 54
f 26 54 52
f 27 28 55
f 27 55 56
f 27 56 57
f 27 57 58
f 27 58 59
f 27 59 60
f 27 60 61
f 27 61 53
f 30 62 31
f 31 62 63
f 31 63 64
f 31 64 32
f 32 64 65
f 32 65 66
f 32 66 67
f 32 67 68
f 32 68 69
f 32 69 33
f 33 70 71
f 33 71 72
f 33 72 73
f 33 73 74
f 33 74 34
f 33 69 75
f 33 75 70
f 35 37 76
f 36 77 37
f 37 78 76
f 37 77 79
f 37 79 80
f 37 80 78
f 38 81 39
f 38 44 81
f 39 81 82
f 40 45 41
f 42 51 83
f 42 83 84
f 42 84 43
f 43 84 85
f 43 85 54
f 43 54 44
f 44 86 81
f 44 54 87
f 44 87 86
f 45 88 46
f 46 88 47
f 47 88 48
f 48 88 49
f 49 88 50
f 50 89 51
f 51 89 90
f 51 90 83
f 52 54 92
f 52 92 93
f 52 93 91
f 53 61 54
f 54 85 94
f 54 94 95
f 54 95 92
f 54 61 60
f 54 60 87
f 57 96 58
f 58 97 59
f 58 96 98
f 58 98 86
f 58 86 97
f 59 97 87
f 59 87 60
f 62 99 63
f 63 100 101
f 63 101 64
f 63 99 129
f 63 129 102
f 63 102 103
f 63 103 104
f 63 104 105
f 63 105 100
f 64 101 65
f 65 101 106
f 65 106 107
f 65 107 108
f 65 108 109
f 65 109 110
f 65 110 66
f 66 110 111
f 66 111 108
f 66 108 78
f 66 78 80
f 66 80 67
f 67 80 112
f 67 112 68
f 68 112 69
f 69 112 113
f 69 113 75
f 70 75 113
f 76 78 114
f 78 108 114
f 79 115 80
f 80 115 116
f 80 116 117
f 80 117 112
f 81 86 82
f 82 86 96
f 83 90 84
f 84 105 104
f 84 104 94
f 84 94 85
f 84 90 118
f 84 118 119
f 84 119 105
f 86 98 96
f 86 87 97
f 89 120 121
f 89 121 90
f 90 121 118
f 91 122 123
f 91 93 122
f 92 95 93
f 93 95 124
f 93 124 122
f 94 104 103
f 94 103 125
f 94 125 95
f 95 125 126
f 95 126 127
f 95 127 128
f 95 128 124
f 100 105 130
f 100 130 131
f 100 131 106
f 100 106 101
f 102 132 103
f 102 129 133
f 102 133 132
f 103 132 125
f 105 119 134
f 105 134 130
f 106 131 135
f 106 135 107
f 107 135 108
f 108 135 121
f 108 121 120
f 108 111 109
f 109 111 110
f 118 121 134
f 118 134 119
f 121 135 131
f 121 131 130
f 121 130 134
f 122 124 123
f 124 128 127
f 124 127 136
f 125 132 126
f 126 132 127
f 127 132 137
f 127 137 136
f 132 133 138
f 132 138 139
f 132 139 137

