# https://github.com/mikedh/trimesh
v 0.01551864 -0.03052177 0.02971143
v 0.01592395 -0.03035696 0.03024009
v 0.01551864 -0.03052177 0.03024009
v 0.01551864 -0.03050607 0.02892957
v 0.01657823 -0.03006031 0.03024009
v 0.01655091 -0.03006501 0.03155061
v 0.01551864 -0.03049038 0.03155061
v 0.01587234 -0.03035068 0.02892957
v 0.01551864 -0.03049509 0.02844344
v 0.01753915 -0.02956274 0.03024009
v 0.01753915 -0.02958158 0.03155061
v 0.01652662 -0.03002421 0.02892957
v 0.01753915 -0.02950937 0.02892957
v 0.01753915 -0.02952664 0.03286113
v 0.01648108 -0.03003362 0.03286113
v 0.01551864 -0.03045114 0.03286113
v 0.01551864 -0.03042289 0.02721192
v 0.01579037 -0.03031301 0.02762108
v 0.01835131 -0.02900239 0.02762108
v 0.01838471 -0.02903221 0.02892957
v 0.01840140 -0.02905262 0.03024009
v 0.01840140 -0.02906518 0.03155061
v 0.01837256 -0.02904163 0.03286113
v 0.01644616 -0.02998496 0.02762108
v 0.01753915 -0.02943717 0.02762108
v 0.01829970 -0.02896158 0.02631056
v 0.01753915 -0.02940421 0.03417165
v 0.01637026 -0.02998967 0.03417165
v 0.01551864 -0.03036638 0.03417165
v 0.01551864 -0.03036795 0.02631056
v 0.01558391 -0.03020942 0.02426882
v 0.01971300 -0.02772002 0.01804435
v 0.01972818 -0.02773258 0.01844744
v 0.02063445 -0.02745162 0.03286113
v 0.01975702 -0.02775926 0.01975796
v 0.01980104 -0.02780321 0.02237900
v 0.01982533 -0.02782205 0.02368952
v 0.02059043 -0.02742337 0.03417165
v 0.01828755 -0.02896315 0.03417165
v 0.01764390 -0.02914837 0.02377661
v 0.01753915 -0.02935712 0.02631056
v 0.01820254 -0.02889880 0.02427084
v 0.01823897 -0.02892077 0.02500004
v 0.01761354 -0.02920487 0.03539710
v 0.01622908 -0.02956117 0.03810321
v 0.01551864 -0.02982173 0.03873720
v 0.01551864 -0.03022825 0.03542951
v 0.01551864 -0.03023767 0.02421008
v 0.01716420 -0.02903378 0.01804435
v 0.01991490 -0.02757562 0.01804435
v 0.02036879 -0.02723344 0.01804435
v 0.02038397 -0.02723815 0.01844744
v 0.02136311 -0.02679709 0.03286113
v 0.02134034 -0.02676727 0.03417165
v 0.02059346 -0.02741238 0.03024009
v 0.02115969 -0.02657892 0.01804435
v 0.02612826 -0.02240847 0.02237900
v 0.02041282 -0.02725542 0.01975796
v 0.02123863 -0.02666525 0.03548217
v 0.02044621 -0.02732134 0.03548217
v 0.01821317 -0.02890665 0.03490287
v 0.01731145 -0.02917662 0.03679269
v 0.01628677 -0.02944816 0.03873720
v 0.01551864 -0.02793035 0.03873720
v 0.01551864 -0.02985155 0.01844744
v 0.01551864 -0.02981231 0.01804435
v 0.02469370 -0.02360295 0.03417165
v 0.02403942 -0.02422137 0.03417165
v 0.02461173 -0.02352447 0.03548217
v 0.02395745 -0.02413661 0.03548217
v 0.02325308 -0.02479271 0.03548217
v 0.02259880 -0.02540172 0.03548217
v 0.02234680 -0.02554926 0.01804435
v 0.02324093 -0.02478486 0.01844744
v 0.02610093 -0.02238336 0.02146345
v 0.02673547 -0.02168802 0.02237900
v 0.02732448 -0.02098484 0.02368952
v 0.02672333 -0.02168802 0.02368952
v 0.02602199 -0.02230174 0.03286113
v 0.02176084 -0.02593224 0.03679269
v 0.02112326 -0.02615669 0.03873720
v 0.02097146 -0.02641725 0.03810321
v 0.02026708 -0.02719734 0.03679269
v 0.01951413 -0.02758818 0.03747935
v 0.01961129 -0.02764939 0.03679269
v 0.01979041 -0.02775769 0.03548217
v 0.02090618 -0.02635761 0.03873720
v 0.02062686 -0.02656165 0.03873720
v 0.01713991 -0.02906361 0.03810321
v 0.01705642 -0.02900867 0.03873720
v 0.02853891 -0.01448824 0.03873720
v 0.02845997 -0.01448824 0.01804435
v 0.01551864 -0.02813911 0.01804435
v 0.02534342 -0.02294842 0.03417165
v 0.02525083 -0.02286994 0.03548217
v 0.02447814 -0.02338320 0.03679269
v 0.02368420 -0.02388861 0.03810321
v 0.02382386 -0.02401261 0.03679269
v 0.02298590 -0.02454471 0.03810321
v 0.02233162 -0.02515372 0.03810321
v 0.02190353 -0.02543154 0.03873720
v 0.02322423 -0.02475504 0.01804435
v 0.02466334 -0.02356998 0.01975796
v 0.02369027 -0.02430142 0.01804435
v 0.02602655 -0.02230959 0.02059045
v 0.02651536 -0.02179947 0.02104417
v 0.02725313 -0.02088910 0.02106848
v 0.02731840 -0.02097542 0.02237900
v 0.02778444 -0.02032090 0.02237900
v 0.02776623 -0.02033032 0.02368952
v 0.02713472 -0.02068662 0.03286113
v 0.02599922 -0.02226564 0.03417165
v 0.02015475 -0.02689755 0.03873720
v 0.01875207 -0.02787541 0.03873720
v 0.03019813 -0.01448824 0.03873720
v 0.03027100 -0.01448824 0.01804435
v 0.02590662 -0.02214478 0.03548217
v 0.02510357 -0.02272710 0.03679269
v 0.02394986 -0.02347424 0.03873720
v 0.02361134 -0.02382269 0.03873720
v 0.02260487 -0.02477858 0.03873720
v 0.02226635 -0.02509407 0.03873720
v 0.02452520 -0.02339576 0.01804435
v 0.02457074 -0.02345069 0.01844744
v 0.02593698 -0.02220443 0.01975796
v 0.02649107 -0.02154990 0.01975796
v 0.02714686 -0.02075097 0.01975796
v 0.02774801 -0.02023457 0.02106848
v 0.02764478 -0.02009488 0.01975796
v 0.02844024 -0.01927868 0.02237900
v 0.02842050 -0.01930693 0.02368952
v 0.02840380 -0.01920020 0.02106848
v 0.02882127 -0.01864456 0.02500004
v 0.02839621 -0.01929908 0.02500004
v 0.03019662 -0.01610651 0.03286113
v 0.02975942 -0.01676103 0.03286113
v 0.02902013 -0.01787388 0.03276391
v 0.02757343 -0.02003209 0.03286113
v 0.02643946 -0.02161111 0.03417165
v 0.02635900 -0.02149026 0.03548217
v 0.03016170 -0.01457614 0.03873720
v 0.03030440 -0.01448824 0.03810321
v 0.03025127 -0.01453219 0.01804435
v 0.03031351 -0.01448824 0.01844744
v 0.03015563 -0.01484611 0.01844744
v 0.02877117 -0.01723662 0.03873720
v 0.02614647 -0.02115436 0.03810321
v 0.02609030 -0.02107745 0.03873720
v 0.02599770 -0.02118889 0.03873720
v 0.02575785 -0.02197369 0.03679269
v 0.02493962 -0.02256073 0.03810321
v 0.02486069 -0.02247283 0.03873720
v 0.02491382 -0.02294214 0.01804435
v 0.02508536 -0.02274123 0.01804435
v 0.02578669 -0.02202706 0.01844744
v 0.02612674 -0.02151851 0.01804435
v 0.02634382 -0.02137096 0.01844744
v 0.02651688 -0.02105233 0.01804435
v 0.02697836 -0.02049042 0.01804435
v 0.02747780 -0.01986728 0.01804435
v 0.02834308 -0.01896476 0.01978429
v 0.02759013 -0.01970090 0.01804435
v 0.02796661 -0.01909974 0.01804435
v 0.02818217 -0.01874972 0.01804435
v 0.02877724 -0.01862258 0.02237900
v 0.02881064 -0.01865084 0.02368952
v 0.02869831 -0.01845935 0.02023801
v 0.02873474 -0.01854410 0.02106848
v 0.02880305 -0.01860375 0.02631056
v 0.03020117 -0.01616929 0.03024009
v 0.03021331 -0.01614731 0.03155061
v 0.03070364 -0.01513492 0.03286113
v 0.03062015 -0.01513492 0.03417165
v 0.03014045 -0.01602332 0.03417165
v 0.02905201 -0.01766669 0.03417165
v 0.03010098 -0.01472054 0.03873720
v 0.03015715 -0.01483826 0.03810321
v 0.03087063 -0.01448824 0.03466386
v 0.03013134 -0.01479117 0.01804435
v 0.03038334 -0.01448824 0.01919486
v 0.03021483 -0.01499208 0.01975796
v 0.03005088 -0.01588833 0.03548217
v 0.02999775 -0.01580671 0.03620529
v 0.02901861 -0.01680812 0.03873720
v 0.02629676 -0.02131603 0.01804435
v 0.02853132 -0.01815798 0.01804435
v 0.02908541 -0.01775616 0.02106848
v 0.02916131 -0.01775616 0.02237900
v 0.02922962 -0.01775616 0.02368952
v 0.03016777 -0.01616929 0.02892957
v 0.02876358 -0.01770436 0.01804435
v 0.02886377 -0.01750346 0.01804435
v 0.03102547 -0.01448824 0.03286113
v 0.03093287 -0.01448824 0.03417165
v 0.03045317 -0.01513492 0.03548217
v 0.03100118 -0.01448824 0.03322370
v 0.02948314 -0.01595425 0.03873720
v 0.03022850 -0.01519613 0.03670154
v 0.03041825 -0.01448824 0.01975796
v 0.03045620 -0.01448824 0.02044866
v 0.03077651 -0.01448824 0.02631056
v 0.03024823 -0.01508626 0.02106848
v 0.03000686 -0.01583653 0.02265649
v 0.03010098 -0.01605314 0.02631056
v 0.03013438 -0.01613005 0.02762108
v 0.03099207 -0.01448824 0.03155061
v 0.03083116 -0.01448824 0.02762108
f 1 2 3
f 1 3 7
f 1 7 16
f 1 16 29
f 1 29 47
f 1 47 46
f 1 46 64
f 1 64 93
f 1 93 66
f 1 66 65
f 1 65 48
f 1 48 30
f 1 30 17
f 1 17 9
f 1 9 4
f 1 4 2
f 2 5 6
f 2 6 7
f 2 7 3
f 2 4 8
f 2 8 5
f 4 9 8
f 5 10 11
f 5 11 6
f 5 8 12
f 5 12 13
f 5 13 10
f 6 11 14
f 6 14 15
f 6 15 16
f 6 16 7
f 8 9 17
f 8 17 18
f 8 18 12
f 10 13 19
f 10 19 20
f 10 20 21
f 10 21 11
f 11 22 23
f 11 23 14
f 11 21 22
f 12 18 24
f 12 24 25
f 12 25 13
f 13 25 26
f 13 26 19
f 14 23 27
f 14 27 28
f 14 28 15
f 15 28 29
f 15 29 16
f 17 30 18
f 18 30 31
f 18 31 24
f 19 26 32
f 19 32 33
f 19 33 20
f 20 34 21
f 20 33 35
f 20 35 36
f 20 36 37
f 20 37 34
f 21 34 22
f 22 34 23
f 23 34 38
f 23 38 39
f 23 39 27
f 24 31 40
f 24 40 41
f 24 41 25
f 25 41 42
f 25 42 43
f 25 43 26
f 26 43 32
f 27 39 44
f 27 44 45
f 27 45 28
f 28 45 46
f 28 46 47
f 28 47 29
f 30 48 31
f 31 48 49
f 31 49 40
f 32 49 66
f 32 66 93
f 32 93 92
f 32 92 116
f 32 116 143
f 32 143 179
f 32 179 192
f 32 192 191
f 32 191 186
f 32 186 164
f 32 164 163
f 32 163 162
f 32 162 160
f 32 160 159
f 32 159 158
f 32 158 185
f 32 185 156
f 32 156 154
f 32 154 153
f 32 153 123
f 32 123 104
f 32 104 102
f 32 102 73
f 32 73 56
f 32 56 51
f 32 51 50
f 32 50 33
f 32 43 42
f 32 42 49
f 33 50 51
f 33 51 52
f 33 52 35
f 34 53 54
f 34 54 38
f 34 37 55
f 34 55 56
f 34 56 57
f 34 57 53
f 35 52 58
f 35 58 36
f 36 58 37
f 37 58 55
f 38 54 59
f 38 59 60
f 38 60 61
f 38 61 39
f 39 61 44
f 40 42 41
f 40 49 42
f 44 61 62
f 44 62 63
f 44 63 45
f 45 63 46
f 46 63 90
f 46 90 114
f 46 114 113
f 46 113 88
f 46 88 87
f 46 87 81
f 46 81 101
f 46 101 122
f 46 122 121
f 46 121 120
f 46 120 119
f 46 119 152
f 46 152 149
f 46 149 148
f 46 148 146
f 46 146 184
f 46 184 197
f 46 197 176
f 46 176 141
f 46 141 115
f 46 115 91
f 46 91 64
f 48 65 49
f 49 65 66
f 51 56 52
f 52 56 58
f 53 67 68
f 53 68 54
f 53 57 67
f 54 68 69
f 54 69 70
f 54 70 71
f 54 71 72
f 54 72 59
f 55 58 56
f 56 73 57
f 57 73 74
f 57 74 75
f 57 75 76
f 57 76 77
f 57 77 78
f 57 78 79
f 57 79 67
f 59 72 80
f 59 80 81
f 59 81 82
f 59 82 60
f 60 83 84
f 60 84 85
f 60 85 86
f 60 86 61
f 60 82 87
f 60 87 88
f 60 88 83
f 61 86 85
f 61 85 89
f 61 89 62
f 62 89 63
f 63 89 90
f 64 91 92
f 64 92 93
f 67 79 94
f 67 94 69
f 67 69 68
f 69 95 96
f 69 96 97
f 69 97 98
f 69 98 70
f 69 94 95
f 70 98 99
f 70 99 71
f 71 99 100
f 71 100 72
f 72 100 101
f 72 101 81
f 72 81 80
f 73 102 74
f 74 102 103
f 74 103 75
f 75 103 104
f 75 104 105
f 75 105 106
f 75 106 107
f 75 107 108
f 75 108 76
f 76 108 77
f 77 108 109
f 77 109 110
f 77 110 111
f 77 111 112
f 77 112 79
f 77 79 78
f 79 112 94
f 81 87 82
f 83 88 113
f 83 113 114
f 83 114 84
f 84 114 85
f 85 114 90
f 85 90 89
f 91 115 142
f 91 142 178
f 91 178 194
f 91 194 196
f 91 196 193
f 91 193 206
f 91 206 207
f 91 207 201
f 91 201 200
f 91 200 199
f 91 199 180
f 91 180 144
f 91 144 116
f 91 116 92
f 94 112 95
f 95 117 118
f 95 118 96
f 95 112 117
f 96 118 119
f 96 119 120
f 96 120 97
f 97 120 121
f 97 121 99
f 97 99 98
f 99 121 122
f 99 122 100
f 100 122 101
f 102 104 103
f 104 123 124
f 104 124 105
f 105 125 126
f 105 126 127
f 105 127 106
f 105 124 125
f 106 127 107
f 107 128 108
f 107 127 129
f 107 129 128
f 108 128 109
f 109 130 131
f 109 131 110
f 109 128 132
f 109 132 130
f 110 131 133
f 110 133 134
f 110 134 135
f 110 135 136
f 110 136 137
f 110 137 138
f 110 138 111
f 111 138 139
f 111 139 112
f 112 139 140
f 112 140 117
f 115 141 142
f 116 144 145
f 116 145 143
f 117 140 146
f 117 146 147
f 117 147 148
f 117 148 149
f 117 149 150
f 117 150 118
f 118 150 149
f 118 149 151
f 118 151 119
f 119 151 152
f 123 153 124
f 124 153 125
f 125 153 154
f 125 154 155
f 125 155 156
f 125 156 157
f 125 157 126
f 126 157 158
f 126 158 159
f 126 159 127
f 127 159 160
f 127 160 129
f 128 129 132
f 129 161 132
f 129 160 162
f 129 162 163
f 129 163 164
f 129 164 161
f 130 165 166
f 130 166 133
f 130 133 131
f 130 132 165
f 132 161 167
f 132 167 168
f 132 168 165
f 133 169 134
f 133 166 170
f 133 170 171
f 133 171 135
f 133 135 169
f 134 169 135
f 135 171 172
f 135 172 173
f 135 173 174
f 135 174 175
f 135 175 139
f 135 139 136
f 136 139 138
f 136 138 137
f 139 175 140
f 140 175 174
f 140 174 146
f 141 176 142
f 142 176 177
f 142 177 178
f 143 145 179
f 144 180 181
f 144 181 145
f 145 181 167
f 145 167 179
f 146 182 183
f 146 183 184
f 146 148 147
f 146 174 182
f 149 152 151
f 154 156 155
f 156 185 157
f 157 185 158
f 161 164 186
f 161 186 167
f 165 168 187
f 165 187 188
f 165 188 189
f 165 189 190
f 165 190 166
f 166 190 170
f 167 181 168
f 167 186 191
f 167 191 192
f 167 192 179
f 168 181 187
f 170 190 206
f 170 206 193
f 170 193 171
f 171 193 172
f 172 193 173
f 173 194 178
f 173 178 195
f 173 195 182
f 173 182 174
f 173 193 196
f 173 196 194
f 176 197 177
f 177 197 198
f 177 198 178
f 178 198 195
f 180 199 181
f 181 199 200
f 181 200 201
f 181 201 202
f 181 202 188
f 181 188 187
f 182 195 183
f 183 195 198
f 183 198 197
f 183 197 184
f 188 203 189
f 188 202 203
f 189 203 204
f 189 204 205
f 189 205 190
f 190 205 206
f 201 207 205
f 201 205 204
f 201 204 203
f 201 203 202
f 205 207 206

