# https://github.com/mikedh/trimesh
v 0.01790563 0.01577097 0.07888632
v 0.01790563 0.01585536 0.07965175
v 0.00699403 0.02297024 0.08003447
v 0.00699403 0.02422313 0.07217040
v 0.01790563 0.01582453 0.07862504
v 0.01790563 0.01636009 0.07978791
v 0.01440337 0.01949557 0.08072262
v 0.01388962 0.01949557 0.08072262
v 0.01122474 0.02075333 0.08076309
v 0.00870939 0.02205816 0.08079990
v 0.00699403 0.02319745 0.08087350
v 0.00699403 0.02451526 0.07074994
v 0.00699724 0.03059796 0.04329013
v 0.01790563 0.02569512 0.04329013
v 0.01790563 0.01746692 0.07979527
v 0.01440337 0.01965786 0.08072262
v 0.00705598 0.02318284 0.08088086
v 0.00967707 0.02178551 0.08082198
v 0.00699403 0.02395698 0.08087718
v 0.00699403 0.03058822 0.04334533
v 0.00699403 0.03063691 0.04329013
v 0.01790563 0.02766859 0.04329013
v 0.01710564 0.01851208 0.07971431
v 0.01790563 0.01815504 0.07872440
v 0.01047600 0.02229348 0.08075574
v 0.00799804 0.02368270 0.08082566
v 0.00967707 0.02247363 0.08082198
v 0.00705598 0.02394237 0.08088086
v 0.01574275 0.01969681 0.07962599
v 0.00699403 0.02458667 0.08018534
v 0.00699403 0.03234909 0.04329013
v 0.01766638 0.02786984 0.04329013
v 0.01790563 0.02711680 0.04585874
v 0.01732139 0.01872955 0.07872440
v 0.01661859 0.01938521 0.07872440
v 0.01790563 0.01822158 0.07851097
v 0.01679696 0.01952316 0.07784122
v 0.01050805 0.02362428 0.07703531
v 0.01412139 0.02082150 0.07909976
v 0.00840712 0.02383526 0.08000502
v 0.01596278 0.01984287 0.07872440
v 0.01434569 0.02227888 0.07430110
v 0.00699403 0.02461588 0.08009335
v 0.00705278 0.03233611 0.04329013
v 0.00699403 0.03233773 0.04334533
v 0.00705598 0.03232475 0.04334533
v 0.01672646 0.02863910 0.04329013
v 0.01790563 0.02709246 0.04596914
v 0.01790563 0.01873280 0.07684026
v 0.01694542 0.01964650 0.07696906
v 0.01422927 0.02349769 0.07014275
v 0.01449309 0.02239735 0.07348415
v 0.00753128 0.02471975 0.07872440
v 0.01161993 0.02350094 0.07539404
v 0.00699403 0.02498753 0.07872440
v 0.00711473 0.03231663 0.04329013
v 0.00967707 0.03057037 0.04858927
v 0.00967707 0.03080894 0.04727920
v 0.01072807 0.03024903 0.04858927
v 0.01098762 0.03063529 0.04596914
v 0.01607493 0.02907566 0.04329013
v 0.01606211 0.02907404 0.04334533
v 0.01671685 0.02863261 0.04334533
v 0.01566051 0.02751441 0.05081932
v 0.01790563 0.02331592 0.06037615
v 0.01790563 0.01903304 0.07583932
v 0.01790563 0.02065433 0.07035987
v 0.01790563 0.02089128 0.06955028
v 0.01790563 0.02115582 0.06858613
v 0.00769363 0.02481063 0.07803257
v 0.01438521 0.02361129 0.06927060
v 0.01565837 0.02881600 0.04553490
v 0.01048028 0.03013868 0.04950557
v 0.00842527 0.03190117 0.04329013
v 0.00836653 0.03191090 0.04334533
v 0.01491712 0.02958688 0.04334533
v 0.01108375 0.03035939 0.04733072
v 0.01491285 0.02959987 0.04329013
v 0.01229710 0.03057362 0.04334533
v 0.01151312 0.03086250 0.04329013
v 0.01087227 0.03109133 0.04329013
v 0.00966853 0.03149868 0.04329013
v 0.00908108 0.03169019 0.04329013
v 0.01582393 0.02892149 0.04465908
v 0.01790563 0.02200460 0.06536985
v 0.01790563 0.02224479 0.06445722
v 0.01235905 0.03055901 0.04329013
v 0.01229710 0.03058173 0.04329013
f 1 2 3
f 1 3 4
f 1 4 5
f 1 5 14
f 1 14 22
f 1 22 33
f 1 33 48
f 1 48 65
f 1 65 86
f 1 86 85
f 1 85 69
f 1 69 68
f 1 68 67
f 1 67 66
f 1 66 49
f 1 49 36
f 1 36 24
f 1 24 15
f 1 15 6
f 1 6 2
f 2 6 7
f 2 7 8
f 2 8 9
f 2 9 10
f 2 10 3
f 3 10 11
f 3 11 19
f 3 19 30
f 3 30 43
f 3 43 55
f 3 55 45
f 3 45 31
f 3 31 21
f 3 21 20
f 3 20 12
f 3 12 4
f 4 12 5
f 5 12 13
f 5 13 14
f 6 15 7
f 7 16 28
f 7 28 17
f 7 17 18
f 7 18 8
f 7 15 16
f 8 18 17
f 8 17 9
f 9 17 10
f 10 17 11
f 11 17 19
f 12 20 13
f 13 20 21
f 13 21 31
f 13 31 44
f 13 44 56
f 13 56 74
f 13 74 83
f 13 83 82
f 13 82 81
f 13 81 80
f 13 80 88
f 13 88 87
f 13 87 78
f 13 78 61
f 13 61 47
f 13 47 32
f 13 32 22
f 13 22 14
f 15 23 16
f 15 24 23
f 16 25 26
f 16 26 27
f 16 27 28
f 16 23 29
f 16 29 25
f 17 28 19
f 19 28 30
f 22 32 33
f 23 24 34
f 23 34 35
f 23 35 29
f 24 36 37
f 24 37 34
f 25 30 26
f 25 29 30
f 26 28 27
f 26 30 28
f 29 38 39
f 29 39 40
f 29 40 30
f 29 35 41
f 29 41 42
f 29 42 38
f 30 40 38
f 30 38 43
f 31 45 46
f 31 46 44
f 32 47 33
f 33 47 48
f 34 37 35
f 35 37 41
f 36 49 50
f 36 50 37
f 37 50 51
f 37 51 52
f 37 52 42
f 37 42 41
f 38 53 43
f 38 40 39
f 38 42 54
f 38 54 53
f 42 52 51
f 42 51 54
f 43 53 55
f 44 46 57
f 44 57 58
f 44 58 59
f 44 59 60
f 44 60 56
f 45 55 46
f 46 55 57
f 47 61 62
f 47 62 63
f 47 63 48
f 48 63 64
f 48 64 65
f 49 66 50
f 50 66 67
f 50 67 68
f 50 68 69
f 50 69 51
f 51 70 54
f 51 69 71
f 51 71 64
f 51 64 72
f 51 72 70
f 53 54 70
f 53 70 55
f 55 70 72
f 55 72 59
f 55 59 73
f 55 73 57
f 56 60 75
f 56 75 74
f 57 73 59
f 57 59 58
f 59 72 76
f 59 76 77
f 59 77 60
f 60 78 79
f 60 79 80
f 60 80 81
f 60 81 82
f 60 82 83
f 60 83 74
f 60 74 75
f 60 77 78
f 61 78 62
f 62 78 84
f 62 84 63
f 63 84 64
f 64 84 72
f 64 71 85
f 64 85 86
f 64 86 65
f 69 85 71
f 72 84 76
f 76 84 78
f 76 78 77
f 78 87 79
f 79 87 88
f 79 88 80

