# https://github.com/mikedh/trimesh
v 0.03234630 0.00013543 0.00979433
v 0.03003801 0.00013543 0.00979433
v 0.03234738 -0.00072172 0.00979433
v 0.03201270 -0.00072172 0.00927387
v 0.03200086 0.00013543 0.00927387
v 0.02135475 0.00013543 -0.00091048
v 0.02227269 -0.02066209 0.00979433
v 0.03209664 -0.00203085 0.00979433
v 0.03001326 -0.00669324 0.00726394
v 0.03008428 -0.00596233 0.00714494
v 0.02976144 -0.00465319 0.00636032
v 0.02872514 -0.00426636 0.00462108
v 0.03032103 -0.00203085 0.00684155
v 0.03143805 -0.00072172 0.00842517
v 0.03142298 0.00013543 0.00844610
v 0.02135475 0.00013543 -0.00305118
v 0.02135475 -0.02066209 0.00814140
v 0.02436037 -0.02066209 0.00979433
v 0.03118839 -0.00625754 0.00979433
v 0.02618763 -0.00818154 0.00189584
v 0.02636519 -0.00727350 0.00164215
v 0.02714538 -0.00596233 0.00244638
v 0.03091398 -0.00727350 0.00979433
v 0.03017145 -0.00718799 0.00800279
v 0.03005308 -0.00812250 0.00846702
v 0.02877787 -0.01345473 0.00979433
v 0.02877141 -0.01344251 0.00977079
v 0.02850884 -0.01415510 0.00979433
v 0.02739935 -0.01324095 0.00725478
v 0.02762318 -0.00465319 0.00302177
v 0.03094518 0.00013543 0.00779094
v 0.02873697 -0.00334202 0.00460408
v 0.02825917 -0.00334202 0.00394892
v 0.03030489 -0.00072172 0.00687294
v 0.02253419 0.00013543 -0.00216718
v 0.02135475 -0.00203085 -0.00356380
v 0.02135475 -0.02066209 0.00530239
v 0.02407520 -0.02066209 0.00921241
v 0.02493072 -0.01992099 0.00955372
v 0.02498883 -0.01998411 0.00979433
v 0.02540744 -0.00857856 0.00140153
v 0.02579592 -0.00727350 0.00098699
v 0.02748221 -0.01472110 0.00843956
v 0.02725515 -0.01559454 0.00875864
v 0.02593797 -0.00905498 0.00220445
v 0.02478006 -0.01060029 0.00203707
v 0.02598209 -0.00596233 0.00083530
v 0.02649110 -0.00596233 0.00149045
v 0.03076762 -0.00770920 0.00979433
v 0.03048998 -0.00853173 0.00979433
v 0.03024463 -0.00856838 0.00925687
v 0.03009397 -0.00954972 0.00968318
v 0.02990026 -0.00899593 0.00880964
v 0.03012302 -0.00960266 0.00979433
v 0.02807838 -0.01518734 0.00979433
v 0.02777492 -0.01514866 0.00922679
v 0.02714754 -0.00465319 0.00236661
v 0.02997667 0.00013543 0.00646493
v 0.02776954 0.00013543 0.00344415
v 0.02318847 0.00013543 -0.00167025
v 0.02326918 -0.00072172 -0.00171471
v 0.02194554 -0.00203085 -0.00303026
v 0.02270098 -0.00334202 -0.00237772
v 0.02135475 -0.00215912 -0.00356511
v 0.02177659 -0.02066209 0.00572216
v 0.02135475 -0.02051957 0.00519778
v 0.02433239 -0.02036484 0.00917971
v 0.02328747 -0.02066209 0.00778571
v 0.02470904 -0.01967260 0.00868017
v 0.02621992 -0.01858946 0.00979433
v 0.02487799 -0.00810214 0.00066006
v 0.02346288 -0.00796777 -0.00057571
v 0.02365658 -0.00727350 -0.00073525
v 0.02458636 -0.00596233 -0.00041879
v 0.02532673 -0.00596233 0.00023637
v 0.02756938 -0.01618497 0.00963218
v 0.02727129 -0.01694439 0.00979433
v 0.02705822 -0.01655145 0.00922679
v 0.02612414 -0.01721314 0.00853371
v 0.02629632 -0.01488195 0.00700632
v 0.02612199 -0.01196846 0.00460408
v 0.02603482 -0.01051070 0.00340361
v 0.02583036 -0.01120293 0.00366254
v 0.02498990 -0.01357892 0.00438046
v 0.02332944 -0.01693625 0.00480939
v 0.02216938 -0.01847748 0.00464593
v 0.02347472 -0.01453787 0.00334084
v 0.02135475 -0.01919007 0.00434646
v 0.02135475 -0.01898444 0.00421962
v 0.02135475 -0.01377845 0.00103014
v 0.02135475 -0.01238787 0.00020106
v 0.02199720 -0.01036208 -0.00044756
v 0.02649325 -0.00465319 0.00152445
v 0.02467029 -0.00465319 -0.00047894
v 0.02530090 -0.00465319 0.00017622
v 0.02595627 -0.00465319 0.00086930
v 0.02641039 0.00013543 0.00164868
v 0.03027583 -0.00915881 0.00979433
v 0.02763072 -0.01625623 0.00979433
v 0.02706467 0.00013543 0.00248038
v 0.02389764 0.00013543 -0.00101510
v 0.02392024 -0.00072172 -0.00105956
v 0.02332514 -0.00203085 -0.00175133
v 0.02266978 -0.00203085 -0.00237380
v 0.02335634 -0.00334202 -0.00178533
v 0.02135475 -0.00334202 -0.00355334
v 0.02401493 -0.00465319 -0.00107525
v 0.02233187 -0.02066209 0.00635247
v 0.02151294 -0.02043609 0.00529847
v 0.02229313 -0.02000243 0.00580847
v 0.02315619 -0.02066209 0.00758563
v 0.02351346 -0.01983955 0.00721032
v 0.02620485 -0.01857317 0.00973941
v 0.02262243 -0.02066209 0.00677878
v 0.02171956 -0.00858467 -0.00156564
v 0.02200581 -0.00772956 -0.00177487
v 0.02273219 -0.00728571 -0.00143095
v 0.02228668 -0.00949068 -0.00068163
v 0.02226300 -0.00685612 -0.00196318
v 0.02393100 -0.00596233 -0.00094187
v 0.02326380 -0.00465319 -0.00173041
v 0.02642868 -0.01769160 0.00929087
v 0.02586479 -0.01808658 0.00886587
v 0.02407843 -0.01642318 0.00535862
v 0.02374590 -0.01906588 0.00691740
v 0.02368456 -0.01751854 0.00568293
v 0.02322398 -0.01906588 0.00626224
v 0.02135475 -0.01234308 0.00017491
v 0.02135475 -0.01120293 -0.00048417
v 0.02135475 -0.01004650 -0.00109487
v 0.02398695 -0.00334202 -0.00113017
v 0.02457559 -0.00072172 -0.00037432
v 0.02523418 -0.00203085 0.00024683
v 0.02583359 0.00013543 0.00099353
v 0.02455300 0.00013543 -0.00035079
v 0.02395359 -0.00203085 -0.00109487
v 0.02135475 -0.00352119 -0.00351018
v 0.02135475 -0.00858467 -0.00183372
v 0.02135475 -0.00777435 -0.00220641
v 0.02135475 -0.00728368 -0.00243003
v 0.02307332 -0.00596233 -0.00159702
v 0.02135475 -0.00710655 -0.00249803
v 0.02135475 -0.00608449 -0.00282887
v 0.02135475 -0.00599898 -0.00285241
v 0.02476930 0.00013543 -0.00012455
v 0.02517823 0.00013543 0.00030437
f 1 2 7
f 1 7 18
f 1 18 40
f 1 40 70
f 1 70 77
f 1 77 99
f 1 99 55
f 1 55 28
f 1 28 26
f 1 26 54
f 1 54 98
f 1 98 50
f 1 50 49
f 1 49 23
f 1 23 19
f 1 19 8
f 1 8 3
f 1 3 4
f 1 4 5
f 1 5 15
f 1 15 31
f 1 31 58
f 1 58 59
f 1 59 100
f 1 100 97
f 1 97 134
f 1 134 146
f 1 146 145
f 1 145 135
f 1 135 101
f 1 101 60
f 1 60 35
f 1 35 16
f 1 16 6
f 1 6 2
f 2 6 7
f 3 8 9
f 3 9 10
f 3 10 11
f 3 11 12
f 3 12 4
f 4 13 14
f 4 14 5
f 4 12 13
f 5 14 15
f 6 16 36
f 6 36 64
f 6 64 106
f 6 106 137
f 6 137 144
f 6 144 143
f 6 143 142
f 6 142 140
f 6 140 139
f 6 139 138
f 6 138 130
f 6 130 129
f 6 129 128
f 6 128 91
f 6 91 90
f 6 90 89
f 6 89 88
f 6 88 66
f 6 66 37
f 6 37 17
f 6 17 7
f 7 17 37
f 7 37 65
f 7 65 108
f 7 108 114
f 7 114 111
f 7 111 68
f 7 68 38
f 7 38 18
f 8 19 9
f 9 20 21
f 9 21 22
f 9 22 10
f 9 19 23
f 9 23 24
f 9 24 25
f 9 25 26
f 9 26 27
f 9 27 28
f 9 28 29
f 9 29 20
f 10 22 12
f 10 12 11
f 12 22 30
f 12 30 13
f 13 30 14
f 14 31 15
f 14 30 32
f 14 32 33
f 14 33 34
f 14 34 31
f 16 35 36
f 18 38 39
f 18 39 40
f 20 41 42
f 20 42 21
f 20 29 43
f 20 43 44
f 20 44 45
f 20 45 46
f 20 46 41
f 21 42 47
f 21 47 48
f 21 48 22
f 22 48 30
f 23 49 24
f 24 49 50
f 24 50 51
f 24 51 52
f 24 52 25
f 25 52 53
f 25 53 26
f 26 28 27
f 26 53 52
f 26 52 54
f 28 55 56
f 28 56 29
f 29 56 43
f 30 48 57
f 30 57 32
f 31 34 58
f 32 57 33
f 33 59 34
f 33 57 59
f 34 59 58
f 35 60 36
f 36 60 61
f 36 61 62
f 36 62 63
f 36 63 64
f 37 66 65
f 38 67 39
f 38 68 69
f 38 69 67
f 39 69 70
f 39 70 40
f 39 67 69
f 41 71 42
f 41 46 71
f 42 71 72
f 42 72 73
f 42 73 74
f 42 74 75
f 42 75 47
f 43 56 76
f 43 76 44
f 44 76 77
f 44 77 78
f 44 78 79
f 44 79 80
f 44 80 81
f 44 81 82
f 44 82 45
f 45 82 83
f 45 83 84
f 45 84 85
f 45 85 46
f 46 85 86
f 46 86 87
f 46 87 88
f 46 88 89
f 46 89 90
f 46 90 91
f 46 91 92
f 46 92 71
f 47 93 48
f 47 75 94
f 47 94 95
f 47 95 96
f 47 96 97
f 47 97 93
f 48 93 57
f 50 98 51
f 51 98 52
f 52 98 54
f 55 99 76
f 55 76 56
f 57 93 100
f 57 100 59
f 60 101 61
f 61 102 103
f 61 103 104
f 61 104 62
f 61 101 102
f 62 104 105
f 62 105 63
f 63 106 64
f 63 105 107
f 63 107 106
f 65 66 109
f 65 109 86
f 65 86 110
f 65 110 108
f 66 88 86
f 66 86 109
f 68 111 69
f 69 112 113
f 69 113 70
f 69 111 114
f 69 114 108
f 69 108 112
f 70 113 77
f 71 92 72
f 72 115 116
f 72 116 117
f 72 117 73
f 72 92 118
f 72 118 115
f 73 117 119
f 73 119 120
f 73 120 74
f 74 106 121
f 74 121 107
f 74 107 75
f 74 120 106
f 75 107 94
f 76 99 77
f 77 122 123
f 77 123 79
f 77 79 78
f 77 113 122
f 79 124 83
f 79 83 81
f 79 81 80
f 79 123 125
f 79 125 124
f 81 83 82
f 83 124 84
f 84 124 85
f 85 124 126
f 85 126 127
f 85 127 110
f 85 110 86
f 86 88 87
f 91 128 92
f 92 128 129
f 92 129 130
f 92 130 118
f 93 97 100
f 94 105 131
f 94 131 95
f 94 107 105
f 95 131 132
f 95 132 133
f 95 133 134
f 95 134 96
f 96 134 97
f 101 135 102
f 102 135 132
f 102 132 136
f 102 136 103
f 103 136 131
f 103 131 105
f 103 105 104
f 106 107 121
f 106 120 137
f 108 110 127
f 108 127 112
f 112 127 125
f 112 125 123
f 112 123 113
f 113 123 122
f 115 138 116
f 115 118 130
f 115 130 138
f 116 138 139
f 116 139 140
f 116 140 119
f 116 119 117
f 119 141 120
f 119 140 142
f 119 142 143
f 119 143 144
f 119 144 137
f 119 137 141
f 120 141 137
f 124 125 126
f 125 127 126
f 131 136 132
f 132 135 145
f 132 145 146
f 132 146 133
f 133 146 134

