# https://github.com/mikedh/trimesh
v 0.00503162 0.01936904 -0.00481049
v 0.00503162 0.01936904 -0.00271424
v 0.00503162 0.02035073 -0.00396119
v 0.00574600 0.02379519 -0.00077706
v 0.00640820 0.02221643 -0.00186637
v 0.00801154 0.01974267 -0.00329937
v 0.00817208 0.01936904 -0.00354507
v 0.00503162 0.03026654 0.00969850
v 0.02355933 0.01936904 0.00969850
v 0.00503162 0.02389776 -0.00087079
v 0.00574600 0.02445088 -0.00020045
v 0.00654867 0.02359739 -0.00061657
v 0.00691589 0.02279641 -0.00114774
v 0.00836673 0.02314073 -0.00022459
v 0.00953261 0.02148504 -0.00114632
v 0.01076873 0.01981104 -0.00205242
v 0.01097140 0.01936904 -0.00234214
v 0.00503162 0.03184042 0.00969850
v 0.02553190 0.01936904 0.00969850
v 0.00503162 0.02455344 -0.00028566
v 0.00574600 0.02507725 0.00045427
v 0.00667911 0.02493806 0.00064174
v 0.00755201 0.02475857 0.00082637
v 0.00836673 0.02455710 0.00099964
v 0.01031923 0.02482695 0.00207333
v 0.01307641 0.02489654 0.00332312
v 0.00967308 0.02286601 0.00010348
v 0.01164163 0.01959126 -0.00186353
v 0.01144699 0.01936904 -0.00213621
v 0.00503162 0.03169268 0.00926817
v 0.00540887 0.03182333 0.00969850
v 0.02484762 0.01936904 0.00837201
v 0.02478340 0.01965475 0.00855096
v 0.02509645 0.02015903 0.00969850
v 0.00503162 0.02514563 0.00036906
v 0.00552125 0.02625553 0.00191568
v 0.00587242 0.02581230 0.00145127
v 0.00705636 0.02605040 0.00218837
v 0.00935201 0.02623355 0.00325779
v 0.01229782 0.02632757 0.00444936
v 0.01316270 0.02620546 0.00461126
v 0.01403561 0.02605406 0.00479021
v 0.01395133 0.02465845 0.00351485
v 0.01265501 0.02074634 -0.00042484
v 0.01228979 0.02155342 0.00010632
v 0.01229782 0.01940567 -0.00171583
v 0.01229782 0.01936904 -0.00174565
v 0.00503162 0.03134103 0.00866458
v 0.00574600 0.03170123 0.00939031
v 0.00574600 0.03180623 0.00969850
v 0.02439411 0.01936904 0.00773433
v 0.02482956 0.02061202 0.00969850
v 0.02493591 0.02015415 0.00939031
v 0.02442822 0.02052900 0.00903241
v 0.00503162 0.02550216 0.00082779
v 0.00644834 0.03008705 0.00729122
v 0.00509383 0.02745456 0.00337567
v 0.00639416 0.02614075 0.00206907
v 0.00705636 0.02720303 0.00370658
v 0.00836673 0.02636786 0.00307884
v 0.01098745 0.02716151 0.00507142
v 0.01098745 0.02650583 0.00420792
v 0.01191454 0.02753026 0.00589656
v 0.01278946 0.02738862 0.00609540
v 0.01463360 0.02634588 0.00566365
v 0.01550450 0.02608947 0.00607409
v 0.01510116 0.02563525 0.00517793
v 0.01556671 0.02482817 0.00469222
v 0.01469380 0.02518104 0.00438829
v 0.01456336 0.02378543 0.00316406
v 0.01329715 0.01987331 -0.00079410
v 0.01233193 0.01936904 -0.00172719
v 0.00503162 0.03021281 0.00712080
v 0.00574600 0.03129097 0.00873417
v 0.00673329 0.03159744 0.00969850
v 0.00680753 0.03155837 0.00963033
v 0.02423558 0.01936904 0.00754260
v 0.02400682 0.02013217 0.00808655
v 0.02441217 0.02113706 0.00969850
v 0.02368174 0.02198322 0.00969850
v 0.02408909 0.02151435 0.00969850
v 0.00503162 0.02745700 0.00337141
v 0.00574600 0.03015909 0.00719323
v 0.00695402 0.03041428 0.00791612
v 0.00732124 0.02996739 0.00744887
v 0.00836673 0.02916885 0.00677284
v 0.00967709 0.02783795 0.00549038
v 0.00503162 0.02750584 0.00343674
v 0.01098745 0.02765847 0.00572756
v 0.00967709 0.02849242 0.00635388
v 0.00967709 0.02898570 0.00701002
v 0.01053595 0.02885017 0.00718755
v 0.01328109 0.02759986 0.00696883
v 0.00911923 0.03011758 0.00854244
v 0.01456938 0.02759009 0.00829674
v 0.01585166 0.02758032 0.00963033
v 0.01501086 0.02657787 0.00656833
v 0.01691319 0.02486114 0.00596616
v 0.01622691 0.02514197 0.00565087
v 0.01584764 0.02632268 0.00694753
v 0.01672055 0.02602964 0.00751846
v 0.01821352 0.02484893 0.00728696
v 0.01493460 0.02288188 0.00270959
v 0.01443293 0.02236539 0.00194835
v 0.01622691 0.02452902 0.00499472
v 0.01692122 0.02355954 0.00465671
v 0.02002756 0.01936904 0.00355462
v 0.01967037 0.01936904 0.00329898
v 0.01350986 0.01936904 -0.00105400
v 0.00683563 0.03157180 0.00969850
v 0.00698011 0.03151685 0.00969850
v 0.00836673 0.03027142 0.00833935
v 0.02377203 0.01936904 0.00698587
v 0.02358541 0.01973534 0.00715488
v 0.02355531 0.02101618 0.00849699
v 0.02308776 0.02188920 0.00896424
v 0.02319612 0.02244964 0.00969850
v 0.00960485 0.03025677 0.00935765
v 0.01184431 0.02885383 0.00840610
v 0.00794934 0.03111026 0.00969850
v 0.01228779 0.02903088 0.00929089
v 0.01588176 0.02759375 0.00969850
v 0.01597808 0.02754735 0.00969850
v 0.01305233 0.02886116 0.00969850
v 0.02087439 0.02357175 0.00855806
v 0.02043893 0.02317248 0.00768462
v 0.01825566 0.02358152 0.00593491
v 0.02049914 0.02061080 0.00500040
v 0.01914864 0.02188920 0.00503023
v 0.01779413 0.02316271 0.00506147
v 0.01651587 0.02726530 0.00969850
v 0.01714396 0.02687702 0.00969850
v 0.01751520 0.02663282 0.00969850
v 0.01705567 0.02626407 0.00839189
v 0.01751118 0.02571096 0.00795873
v 0.01847640 0.02503330 0.00796299
v 0.02179545 0.02361815 0.00969850
v 0.01430250 0.02093681 0.00072980
v 0.01827372 0.02228847 0.00462263
v 0.02031853 0.01936904 0.00376481
v 0.01733861 0.01936904 0.00164726
v 0.01403561 0.01936904 -0.00068900
v 0.02312990 0.01936904 0.00630275
v 0.02311986 0.02060836 0.00762213
v 0.02266836 0.02145330 0.00807519
v 0.02221485 0.02229824 0.00852682
v 0.01015869 0.03015299 0.00969850
v 0.01188645 0.02938253 0.00969850
v 0.02135800 0.02145452 0.00676290
v 0.02182154 0.01936904 0.00499046
v 0.02175733 0.01936904 0.00492939
v 0.02096870 0.01973656 0.00455730
v 0.01962422 0.02101618 0.00458712
v 0.01804897 0.02626651 0.00969850
v 0.01840817 0.02601499 0.00969850
v 0.01884362 0.02548507 0.00927953
v 0.01975666 0.02501254 0.00959624
v 0.01991118 0.02495759 0.00969850
v 0.01632925 0.01936904 0.00093289
v 0.02112723 0.01936904 0.00437409
v 0.01980081 0.02503574 0.00969850
f 1 2 8
f 1 8 18
f 1 18 30
f 1 30 48
f 1 48 73
f 1 73 88
f 1 88 82
f 1 82 55
f 1 55 35
f 1 35 20
f 1 20 10
f 1 10 3
f 1 3 4
f 1 4 5
f 1 5 6
f 1 6 7
f 1 7 17
f 1 17 29
f 1 29 47
f 1 47 72
f 1 72 109
f 1 109 142
f 1 142 159
f 1 159 141
f 1 141 108
f 1 108 107
f 1 107 140
f 1 140 160
f 1 160 151
f 1 151 150
f 1 150 143
f 1 143 113
f 1 113 77
f 1 77 51
f 1 51 32
f 1 32 19
f 1 19 9
f 1 9 2
f 2 9 8
f 3 10 4
f 4 11 12
f 4 12 5
f 4 10 11
f 5 12 13
f 5 13 14
f 5 14 15
f 5 15 16
f 5 16 6
f 6 16 17
f 6 17 7
f 8 9 19
f 8 19 34
f 8 34 52
f 8 52 79
f 8 79 81
f 8 81 80
f 8 80 117
f 8 117 137
f 8 137 158
f 8 158 161
f 8 161 155
f 8 155 154
f 8 154 133
f 8 133 132
f 8 132 131
f 8 131 123
f 8 123 122
f 8 122 124
f 8 124 148
f 8 148 147
f 8 147 120
f 8 120 111
f 8 111 110
f 8 110 75
f 8 75 50
f 8 50 31
f 8 31 18
f 10 20 11
f 11 20 21
f 11 21 22
f 11 22 23
f 11 23 12
f 12 23 24
f 12 24 25
f 12 25 26
f 12 26 14
f 12 14 13
f 14 27 15
f 14 26 27
f 15 27 26
f 15 26 16
f 16 28 17
f 16 26 28
f 17 28 29
f 18 31 30
f 19 32 33
f 19 33 34
f 20 35 21
f 21 35 36
f 21 36 37
f 21 37 38
f 21 38 39
f 21 39 40
f 21 40 41
f 21 41 22
f 22 41 42
f 22 42 23
f 23 25 24
f 23 42 25
f 25 42 26
f 26 42 43
f 26 43 44
f 26 44 45
f 26 45 28
f 28 45 44
f 28 44 46
f 28 46 29
f 29 46 47
f 30 31 49
f 30 49 48
f 31 50 49
f 32 51 33
f 33 52 53
f 33 53 34
f 33 51 54
f 33 54 52
f 34 53 52
f 35 55 36
f 36 56 37
f 36 55 57
f 36 57 56
f 37 56 58
f 37 58 38
f 38 58 59
f 38 59 60
f 38 60 39
f 39 60 61
f 39 61 62
f 39 62 40
f 40 62 61
f 40 61 63
f 40 63 41
f 41 63 42
f 42 63 64
f 42 64 65
f 42 65 66
f 42 66 67
f 42 67 68
f 42 68 69
f 42 69 43
f 43 69 70
f 43 70 71
f 43 71 44
f 44 71 46
f 46 71 72
f 46 72 47
f 48 49 74
f 48 74 73
f 49 50 75
f 49 75 76
f 49 76 74
f 51 77 78
f 51 78 54
f 52 54 79
f 54 78 80
f 54 80 81
f 54 81 79
f 55 82 57
f 56 59 58
f 56 57 83
f 56 83 74
f 56 74 84
f 56 84 85
f 56 85 86
f 56 86 87
f 56 87 59
f 57 82 88
f 57 88 73
f 57 73 74
f 57 74 83
f 59 87 61
f 59 61 60
f 61 89 63
f 61 87 86
f 61 86 90
f 61 90 89
f 63 89 90
f 63 90 85
f 63 85 91
f 63 91 92
f 63 92 64
f 64 93 65
f 64 92 94
f 64 94 93
f 65 93 95
f 65 95 96
f 65 96 97
f 65 97 66
f 66 98 99
f 66 99 67
f 66 97 100
f 66 100 101
f 66 101 102
f 66 102 98
f 67 99 68
f 68 103 104
f 68 104 70
f 68 70 69
f 68 99 98
f 68 98 105
f 68 105 106
f 68 106 107
f 68 107 108
f 68 108 103
f 70 104 109
f 70 109 71
f 71 109 72
f 74 76 84
f 75 110 76
f 76 110 111
f 76 111 94
f 76 94 92
f 76 92 112
f 76 112 84
f 77 113 78
f 78 113 114
f 78 114 115
f 78 115 80
f 80 115 116
f 80 116 117
f 84 112 92
f 84 92 91
f 84 91 85
f 85 90 86
f 93 94 118
f 93 118 119
f 93 119 95
f 94 111 120
f 94 120 118
f 95 119 121
f 95 121 96
f 96 122 123
f 96 123 97
f 96 121 124
f 96 124 122
f 97 123 100
f 98 102 125
f 98 125 126
f 98 126 127
f 98 127 128
f 98 128 129
f 98 129 130
f 98 130 105
f 100 123 131
f 100 131 132
f 100 132 133
f 100 133 134
f 100 134 101
f 101 134 135
f 101 135 136
f 101 136 102
f 102 136 137
f 102 137 125
f 103 138 104
f 103 108 138
f 104 138 109
f 105 130 106
f 106 130 139
f 106 139 140
f 106 140 107
f 108 141 138
f 109 138 142
f 113 143 114
f 114 143 115
f 115 143 144
f 115 144 145
f 115 145 116
f 116 145 146
f 116 146 125
f 116 125 117
f 117 125 137
f 118 120 147
f 118 147 148
f 118 148 121
f 118 121 119
f 121 148 124
f 125 146 126
f 126 146 127
f 127 146 149
f 127 149 150
f 127 150 128
f 128 150 151
f 128 151 152
f 128 152 153
f 128 153 129
f 129 153 130
f 130 153 139
f 133 154 134
f 134 154 155
f 134 155 156
f 134 156 135
f 135 156 136
f 136 156 157
f 136 157 137
f 137 157 158
f 138 141 159
f 138 159 142
f 139 153 140
f 140 153 160
f 143 145 144
f 143 150 145
f 145 150 146
f 146 150 149
f 151 160 152
f 152 160 153
f 155 161 157
f 155 157 156
f 157 161 158

