# https://github.com/mikedh/trimesh
v -0.01723326 0.01285761 -0.00117466
v -0.01723326 0.00007140 -0.00487059
v -0.01723326 0.01285761 -0.00310507
v -0.02721716 0.01285761 0.01016797
v -0.03014111 0.00007140 0.01016797
v -0.01723326 0.00007140 -0.00684431
v -0.01723326 0.01276373 -0.00316670
v -0.01729951 0.01285761 -0.00306177
v -0.02919106 0.01285761 0.01016797
v -0.03261187 0.00007140 0.01016797
v -0.01735672 0.00007140 -0.00673105
v -0.01723326 0.00190140 -0.00645123
v -0.01830377 0.01285761 -0.00240386
v -0.01723326 0.01219045 -0.00353480
v -0.02913535 0.01285761 0.01006471
v -0.02911427 0.01238321 0.00967996
v -0.03048440 0.00952430 0.01016797
v -0.03261338 0.00017654 0.01016797
v -0.03259531 0.00007140 0.01006471
v -0.01777077 0.00007140 -0.00634963
v -0.01728295 0.00426587 -0.00588327
v -0.01723326 0.00714230 -0.00529365
v -0.02902543 0.00275882 0.00464156
v -0.01752686 0.01209406 -0.00339988
v -0.01971456 0.01285761 -0.00141784
v -0.01723326 0.01176862 -0.00378963
v -0.02902092 0.01285761 0.00985318
v -0.02780436 0.01207904 0.00706998
v -0.02908566 0.01069340 0.00843410
v -0.03036545 0.00930526 0.00979821
v -0.03089544 0.00841905 0.01016797
v -0.03260284 0.00042688 0.01016797
v -0.03255767 0.00148583 0.01016797
v -0.03241313 0.00007140 0.00927355
v -0.02368794 0.00007140 -0.00085820
v -0.02518304 0.00059086 0.00063250
v -0.02892305 0.00363251 0.00473983
v -0.01723326 0.00845159 -0.00500384
v -0.02902694 0.00190140 0.00463823
v -0.03026006 0.00321194 0.00604565
v -0.02950724 0.00320192 0.00524284
v -0.02946207 0.00452248 0.00549601
v -0.02495719 0.00007140 0.00033769
v -0.02560613 0.00007140 0.00098061
v -0.02649746 0.00059086 0.00191833
v -0.02626409 0.00007140 0.00165350
v -0.02689796 0.00007140 0.00233306
v -0.01723326 0.01048937 -0.00452582
v -0.02109071 0.01285761 -0.00038684
v -0.02661792 0.01285761 0.00547768
v -0.02795492 0.01101759 0.00664026
v -0.03052204 0.00845159 0.00952172
v -0.03059281 0.00579296 0.00794108
v -0.03139230 0.00702464 0.01016797
v -0.03238753 0.00279637 0.01016797
v -0.03238753 0.00059086 0.00927355
v -0.03222040 0.00007140 0.00878054
v -0.02416222 0.00007140 -0.00041515
v -0.02881465 0.00452248 0.00483977
v -0.01733414 0.00976213 -0.00461909
v -0.01723326 0.00952305 -0.00476566
v -0.02752582 0.00007140 0.00301762
v -0.02776070 0.00007140 0.00327578
v -0.03079456 0.00007140 0.00665858
v -0.03011702 0.00452248 0.00629715
v -0.03149017 0.00007140 0.00746140
v -0.03175366 0.00007140 0.00785781
v -0.03191928 0.00007140 0.00811764
v -0.03188916 0.00059086 0.00817427
v -0.03047687 0.00452248 0.00695173
v -0.02761616 0.00889845 0.00476481
v -0.02772757 0.00802601 0.00462990
v -0.01981393 0.01173858 -0.00186921
v -0.02103350 0.01275747 -0.00048011
v -0.02234943 0.01285761 0.00076075
v -0.02625205 0.01285761 0.00485309
v -0.02625807 0.01281129 0.00483144
v -0.02669320 0.01237820 0.00529780
v -0.02771553 0.01054445 0.00591573
v -0.03018779 0.00620227 0.00748971
v -0.03034588 0.00532858 0.00720989
v -0.03158201 0.00648390 0.01016797
v -0.03206984 0.00452248 0.01016797
v -0.03216319 0.00190140 0.00927355
v -0.02783899 0.00714230 0.00452997
v -0.02785856 0.00976213 0.00566756
v -0.02747613 0.00976213 0.00501299
v -0.02990172 0.00579296 0.00672521
v -0.03168440 0.00546877 0.00975158
v -0.02643573 0.01193885 0.00458160
v -0.02512131 0.01285761 0.00330909
v -0.02392583 0.01285761 0.00220814
v -0.02472533 0.01285761 0.00294433
v -0.02569195 0.01285761 0.00404695
v -0.03183195 0.00569658 0.01016797
f 1 2 6
f 1 6 12
f 1 12 22
f 1 22 38
f 1 38 61
f 1 61 48
f 1 48 26
f 1 26 14
f 1 14 7
f 1 7 3
f 1 3 8
f 1 8 13
f 1 13 25
f 1 25 49
f 1 49 75
f 1 75 92
f 1 92 93
f 1 93 91
f 1 91 94
f 1 94 76
f 1 76 50
f 1 50 27
f 1 27 15
f 1 15 9
f 1 9 4
f 1 4 5
f 1 5 2
f 2 5 10
f 2 10 19
f 2 19 34
f 2 34 57
f 2 57 68
f 2 68 67
f 2 67 66
f 2 66 64
f 2 64 63
f 2 63 62
f 2 62 47
f 2 47 46
f 2 46 44
f 2 44 43
f 2 43 58
f 2 58 35
f 2 35 20
f 2 20 11
f 2 11 6
f 3 7 8
f 4 9 17
f 4 17 31
f 4 31 54
f 4 54 82
f 4 82 95
f 4 95 83
f 4 83 55
f 4 55 33
f 4 33 32
f 4 32 18
f 4 18 10
f 4 10 5
f 6 11 12
f 7 13 8
f 7 14 13
f 9 15 16
f 9 16 17
f 10 18 19
f 11 20 12
f 12 21 22
f 12 20 23
f 12 23 21
f 13 14 24
f 13 24 25
f 14 26 24
f 15 27 16
f 16 27 28
f 16 28 29
f 16 29 17
f 17 29 30
f 17 30 31
f 18 32 19
f 19 32 33
f 19 33 34
f 20 35 36
f 20 36 23
f 21 23 37
f 21 37 22
f 22 37 38
f 23 39 40
f 23 40 41
f 23 41 42
f 23 42 37
f 23 36 43
f 23 43 44
f 23 44 45
f 23 45 46
f 23 46 47
f 23 47 39
f 24 26 48
f 24 48 25
f 25 48 49
f 27 50 28
f 28 50 51
f 28 51 29
f 29 51 30
f 30 52 31
f 30 51 52
f 31 52 53
f 31 53 54
f 33 55 56
f 33 56 34
f 34 56 57
f 35 58 36
f 36 58 43
f 37 42 59
f 37 59 60
f 37 60 61
f 37 61 38
f 39 62 63
f 39 63 64
f 39 64 40
f 39 47 62
f 40 65 42
f 40 42 41
f 40 64 66
f 40 66 67
f 40 67 68
f 40 68 69
f 40 69 70
f 40 70 65
f 42 71 72
f 42 72 59
f 42 65 71
f 44 46 45
f 48 61 60
f 48 60 73
f 48 73 74
f 48 74 49
f 49 74 75
f 50 76 77
f 50 77 78
f 50 78 51
f 51 78 79
f 51 79 80
f 51 80 53
f 51 53 52
f 53 80 81
f 53 81 65
f 53 65 70
f 53 70 82
f 53 82 54
f 55 83 84
f 55 84 56
f 56 84 69
f 56 69 57
f 57 69 68
f 59 72 85
f 59 85 60
f 60 85 73
f 65 86 87
f 65 87 71
f 65 81 88
f 65 88 86
f 69 84 89
f 69 89 70
f 70 89 82
f 71 87 90
f 71 90 91
f 71 91 72
f 72 91 85
f 73 92 74
f 73 85 91
f 73 91 93
f 73 93 92
f 74 92 75
f 76 94 77
f 77 90 78
f 77 94 90
f 78 90 86
f 78 86 79
f 79 86 80
f 80 88 81
f 80 86 88
f 82 89 95
f 83 95 89
f 83 89 84
f 86 90 87
f 90 94 91

