# https://github.com/mikedh/trimesh
v 0.00699403 0.02395658 0.08087825
v 0.00550099 0.02500267 0.08086416
v 0.00443419 0.02505381 0.08092400
v 0.00443419 0.02442558 0.08092400
v 0.00699403 0.02319711 0.08087472
v 0.00699403 0.02458771 0.08018486
v 0.00637457 0.02479519 0.08064946
v 0.00586049 0.02514163 0.08014263
v 0.00443419 0.02541376 0.08003351
v 0.00312383 0.02498143 0.08085360
v -0.00342800 0.02384175 0.08095920
v -0.00211646 0.02391798 0.08098032
v 0.00312383 0.02533077 0.08003351
v -0.00211646 0.02320773 0.08098032
v -0.00342800 0.02316237 0.08095920
v -0.00496906 0.02306973 0.08087472
v -0.00496906 0.02301376 0.08076209
v -0.00496906 0.02274162 0.08005111
v 0.00699403 0.02297033 0.08003351
v 0.00699403 0.02461762 0.08009335
v 0.00661462 0.02493897 0.07977658
v 0.00699403 0.03197590 0.04502292
v 0.00668723 0.03204539 0.04502292
v 0.00574456 0.03206082 0.04596621
v -0.00025338 0.02876914 0.06368093
v -0.00342800 0.02652064 0.07348333
v -0.00342800 0.02625816 0.07461668
v -0.00211646 0.02597444 0.07610551
v 0.00312383 0.03192379 0.04858839
v 0.00181346 0.03200968 0.04858839
v 0.00181346 0.03173947 0.04989773
v 0.00050427 0.03013078 0.05736656
v 0.00181346 0.02489555 0.08075858
v -0.00473837 0.02374138 0.08089232
v -0.00473837 0.02491388 0.07950556
v -0.00496906 0.02490327 0.07948444
v 0.00050427 0.02548904 0.07872418
v -0.00473837 0.02512426 0.07872418
v -0.00496906 0.02505188 0.07893536
v -0.00473837 0.02311991 0.08089232
v -0.00496906 0.02372208 0.08087825
v 0.00699403 0.02451726 0.07075203
v 0.00699403 0.02422486 0.07217047
v -0.00496906 0.03062584 0.04502292
v 0.00699403 0.02498915 0.07872418
v 0.00687576 0.02504802 0.07872418
v 0.00699403 0.03079182 0.04502292
v 0.00574456 0.03223067 0.04502292
v -0.00211646 0.02798168 0.06692962
v 0.00050427 0.03032282 0.05645143
v -0.00048056 0.03010183 0.05724337
v -0.00438238 0.02619543 0.07434918
v -0.00301698 0.02747987 0.06902385
v -0.00342800 0.02679278 0.07217399
v -0.00410602 0.02876721 0.06236455
v -0.00473837 0.02798651 0.06562029
v -0.00473837 0.02660267 0.07217399
v 0.00312383 0.03214768 0.04727906
v 0.00181346 0.03260027 0.04502292
v 0.00050427 0.03194020 0.04858839
v 0.00050427 0.03146348 0.05094660
v 0.00050427 0.03059592 0.05514210
v 0.00108626 0.02484440 0.08070226
v -0.00496906 0.02426153 0.08027285
v -0.00473837 0.02439663 0.08016022
v -0.00478638 0.02630351 0.07354668
v -0.00496906 0.02628518 0.07346573
v 0.00699169 0.03034309 0.04502292
v 0.00699403 0.03021185 0.04576910
v -0.00496906 0.03214092 0.04502292
v 0.00537686 0.03226541 0.04502292
v -0.00211646 0.02884441 0.06274820
v -0.00477818 0.03151076 0.04868694
v -0.00342800 0.02895925 0.06169229
v -0.00342800 0.02879423 0.06249830
v -0.00473837 0.03045889 0.05382925
v -0.00496906 0.03038265 0.05405099
v -0.00496906 0.02789001 0.06586315
v -0.00496906 0.02650906 0.07240630
v 0.00045157 0.03251439 0.04502292
v -0.00473837 0.03204539 0.04596621
v -0.00211646 0.03199713 0.04727906
v -0.00342800 0.03190160 0.04727906
v -0.00473837 0.03180027 0.04727906
v -0.00473837 0.03216601 0.04502292
v -0.00496906 0.03202030 0.04596621
v -0.00496906 0.03177518 0.04727906
v -0.00496906 0.03150208 0.04862359
v -0.00496906 0.03197783 0.04619851
f 1 2 3
f 1 3 4
f 1 4 5
f 1 5 19
f 1 19 43
f 1 43 42
f 1 42 69
f 1 69 47
f 1 47 22
f 1 22 45
f 1 45 20
f 1 20 6
f 1 6 7
f 1 7 2
f 2 7 8
f 2 8 9
f 2 9 3
f 3 10 11
f 3 11 12
f 3 12 14
f 3 14 4
f 3 9 13
f 3 13 10
f 4 14 5
f 5 14 15
f 5 15 16
f 5 16 17
f 5 17 18
f 5 18 19
f 6 20 7
f 7 20 21
f 7 21 8
f 8 21 22
f 8 22 23
f 8 23 24
f 8 24 9
f 9 25 26
f 9 26 27
f 9 27 28
f 9 28 13
f 9 24 29
f 9 29 30
f 9 30 31
f 9 31 32
f 9 32 25
f 10 33 34
f 10 34 11
f 10 13 35
f 10 35 36
f 10 36 33
f 11 15 14
f 11 14 12
f 11 34 40
f 11 40 15
f 13 28 37
f 13 37 38
f 13 38 39
f 13 39 36
f 13 36 35
f 15 40 16
f 16 40 41
f 16 41 64
f 16 64 36
f 16 36 39
f 16 39 67
f 16 67 79
f 16 79 78
f 16 78 77
f 16 77 88
f 16 88 87
f 16 87 89
f 16 89 86
f 16 86 70
f 16 70 44
f 16 44 18
f 16 18 17
f 18 42 43
f 18 43 19
f 18 44 42
f 20 45 21
f 21 45 46
f 21 46 22
f 22 47 68
f 22 68 44
f 22 44 70
f 22 70 85
f 22 85 80
f 22 80 59
f 22 59 71
f 22 71 48
f 22 48 23
f 22 46 45
f 23 48 24
f 24 48 29
f 25 49 26
f 25 32 50
f 25 50 51
f 25 51 49
f 26 52 27
f 26 49 53
f 26 53 54
f 26 54 55
f 26 55 56
f 26 56 57
f 26 57 52
f 27 52 39
f 27 39 38
f 27 38 28
f 28 38 37
f 29 48 58
f 29 58 30
f 30 58 59
f 30 59 60
f 30 60 61
f 30 61 31
f 31 61 62
f 31 62 50
f 31 50 32
f 33 63 41
f 33 41 34
f 33 36 63
f 34 41 40
f 36 64 65
f 36 65 63
f 39 52 66
f 39 66 67
f 41 63 64
f 42 44 68
f 42 68 69
f 47 69 68
f 48 71 58
f 49 51 72
f 49 72 53
f 50 62 51
f 51 62 61
f 51 61 73
f 51 73 74
f 51 74 75
f 51 75 72
f 52 57 66
f 53 72 75
f 53 75 55
f 53 55 54
f 55 75 74
f 55 74 73
f 55 73 76
f 55 76 77
f 55 77 56
f 56 78 79
f 56 79 57
f 56 77 78
f 57 79 66
f 58 71 59
f 59 80 81
f 59 81 82
f 59 82 60
f 60 82 83
f 60 83 61
f 61 83 84
f 61 84 73
f 63 65 64
f 66 79 67
f 70 86 81
f 70 81 85
f 73 84 87
f 73 87 88
f 73 88 76
f 76 88 77
f 80 85 81
f 81 86 89
f 81 89 84
f 81 84 83
f 81 83 82
f 84 89 87

