# https://github.com/mikedh/trimesh
v 0.04155541 0.02622268 -0.04180628
v 0.03381684 0.03226213 -0.04180628
v 0.04155541 0.03818837 -0.04180628
v 0.04155541 0.02622268 0.05314664
v 0.03381684 0.04251069 -0.04180628
v 0.03381684 0.03226213 0.05209118
v 0.03968364 0.03962490 -0.04180628
v 0.04155541 0.03818837 0.05421160
v 0.04155541 0.02622427 0.05421160
v 0.03627643 0.04149189 -0.04180628
v 0.03381684 0.04251069 0.05314664
v 0.03381684 0.03226372 0.05314664
v 0.03933140 0.03989434 -0.04180628
v 0.03933140 0.03989434 0.05421160
v 0.04107516 0.03853754 0.05477261
v 0.04155541 0.03790936 0.05493425
v 0.03381684 0.03227647 0.05421160
v 0.04155541 0.02645386 0.05488671
v 0.04101001 0.02679505 0.05478212
v 0.03679077 0.03001089 0.05475359
v 0.03733162 0.04105344 -0.04180628
v 0.03627643 0.04149189 0.05421160
v 0.03381684 0.04249634 0.05421160
v 0.03520533 0.04193513 0.05421160
v 0.03882767 0.04024670 -0.04180628
v 0.03857088 0.04042527 0.05421160
v 0.03798003 0.04070747 0.05482966
v 0.03919581 0.03979071 0.05492474
v 0.04149102 0.03794284 0.05494376
v 0.04155541 0.03723016 0.05517197
v 0.03562044 0.03099142 0.05484868
v 0.03445011 0.03197195 0.05490573
v 0.03381684 0.03271652 0.05504836
v 0.03947381 0.02841174 0.05503885
v 0.04155541 0.02736105 0.05521000
v 0.03757099 0.04094822 -0.04180628
v 0.03733162 0.04105344 0.05421160
v 0.03574239 0.04171032 0.05474408
v 0.03381684 0.04211210 0.05501983
v 0.03520533 0.04182193 0.05486770
v 0.03857088 0.04042527 -0.04180628
v 0.03803912 0.04073936 0.05421160
v 0.03839135 0.04053209 -0.04180628
v 0.03733162 0.04084937 0.05495327
v 0.03835802 0.04013190 0.05501983
v 0.03951320 0.03911310 0.05508639
v 0.04051991 0.03798748 0.05520050
v 0.04155541 0.03692564 0.05526706
v 0.03626885 0.03161163 0.05525755
v 0.03381684 0.03373851 0.05531460
v 0.04155541 0.02842290 0.05532411
v 0.04051991 0.02842290 0.05527657
v 0.03803912 0.04073936 -0.04180628
v 0.03414256 0.04202760 0.05501033
v 0.03381684 0.04117621 0.05531460
v 0.03414256 0.04117621 0.05530509
v 0.03733162 0.04011437 0.05524804
v 0.03839363 0.03905092 0.05531460
v 0.03945639 0.03798748 0.05533362
v 0.04051991 0.03692564 0.05533362
v 0.04155541 0.03586220 0.05533362
v 0.03945639 0.02948634 0.05531460
v 0.03414256 0.03373851 0.05533362
v 0.03381684 0.03479876 0.05533362
v 0.04155541 0.02948634 0.05533362
v 0.04051991 0.02948634 0.05533362
v 0.03839363 0.03054978 0.05533362
v 0.03381684 0.04011437 0.05533362
v 0.03520533 0.04011437 0.05533362
v 0.03626885 0.04011437 0.05532411
v 0.03733162 0.03905092 0.05533362
f 1 2 5
f 1 5 10
f 1 10 21
f 1 21 36
f 1 36 53
f 1 53 43
f 1 43 41
f 1 41 25
f 1 25 13
f 1 13 7
f 1 7 3
f 1 3 8
f 1 8 16
f 1 16 30
f 1 30 48
f 1 48 61
f 1 61 65
f 1 65 51
f 1 51 35
f 1 35 18
f 1 18 9
f 1 9 4
f 1 4 6
f 1 6 2
f 2 6 12
f 2 12 17
f 2 17 33
f 2 33 50
f 2 50 64
f 2 64 68
f 2 68 55
f 2 55 39
f 2 39 23
f 2 23 11
f 2 11 5
f 3 7 8
f 4 9 6
f 5 11 22
f 5 22 10
f 6 9 12
f 7 13 14
f 7 14 8
f 8 14 15
f 8 15 16
f 9 17 12
f 9 18 19
f 9 19 20
f 9 20 17
f 10 22 37
f 10 37 21
f 11 23 24
f 11 24 22
f 13 25 14
f 14 26 27
f 14 27 15
f 14 25 26
f 15 27 28
f 15 28 16
f 16 28 29
f 16 29 30
f 17 20 31
f 17 31 32
f 17 32 33
f 18 34 33
f 18 33 32
f 18 32 31
f 18 31 20
f 18 20 19
f 18 35 34
f 21 37 36
f 22 24 38
f 22 38 37
f 23 39 40
f 23 40 38
f 23 38 24
f 25 41 26
f 26 42 27
f 26 41 43
f 26 43 42
f 27 42 38
f 27 38 40
f 27 40 44
f 27 44 45
f 27 45 28
f 28 45 46
f 28 46 29
f 29 46 47
f 29 47 30
f 30 47 48
f 33 34 35
f 33 35 49
f 33 49 50
f 35 51 52
f 35 52 49
f 36 37 42
f 36 42 53
f 37 38 42
f 39 54 40
f 39 55 56
f 39 56 54
f 40 54 44
f 42 43 53
f 44 54 57
f 44 57 45
f 45 57 46
f 46 57 47
f 47 57 58
f 47 58 48
f 48 58 59
f 48 59 60
f 48 60 61
f 49 52 50
f 50 52 62
f 50 62 63
f 50 63 64
f 51 65 66
f 51 66 67
f 51 67 62
f 51 62 52
f 54 56 57
f 55 68 69
f 55 69 70
f 55 70 56
f 56 70 57
f 57 70 58
f 58 70 59
f 59 71 69
f 59 69 68
f 59 68 64
f 59 64 63
f 59 63 67
f 59 67 66
f 59 66 65
f 59 65 61
f 59 61 60
f 59 70 71
f 62 67 63
f 69 71 70

