# https://github.com/mikedh/trimesh
v -0.02914054 -0.01941543 -0.05089879
v -0.02921032 -0.01925474 -0.05089879
v -0.01787541 -0.01941543 -0.05089879
v -0.02914499 -0.01941543 -0.05057643
v -0.02927269 -0.01910518 -0.05089879
v -0.01829560 -0.01657229 -0.05089879
v -0.01896079 -0.01941543 0.05316031
v -0.03020662 -0.01685231 -0.05089879
v -0.02914499 -0.01941543 0.05314991
v -0.02236691 -0.00316165 -0.05089879
v -0.02356811 -0.00316165 0.05421057
v -0.01897415 -0.01941543 0.05421057
v -0.03051546 -0.01610612 -0.05089879
v -0.03020662 -0.01685231 0.05421057
v -0.02913905 -0.01941543 0.05421057
v -0.02923408 -0.01919746 0.05421057
v -0.03302328 -0.00316165 -0.05089879
v -0.02367798 -0.00316165 0.05489687
v -0.01942405 -0.01860560 0.05487608
v -0.01926220 -0.01940906 0.05499046
v -0.01926072 -0.01941543 0.05499046
v -0.03117768 -0.01450556 -0.04994211
v -0.03139743 -0.01397417 -0.05089879
v -0.03117768 -0.01450556 0.05314991
v -0.03019177 -0.01681889 0.05478249
v -0.03139743 -0.01397417 0.05421057
v -0.02865650 -0.01941543 0.05503206
v -0.02918954 -0.01909086 0.05485529
v -0.03287331 -0.00441537 -0.05089879
v -0.03302773 -0.00316165 -0.05070121
v -0.02431941 -0.00316165 0.05518804
v -0.02006845 -0.01940906 0.05528162
v -0.02006845 -0.01941543 0.05528162
v -0.03143009 -0.01387234 -0.05089879
v -0.03134100 -0.01383734 0.05487608
v -0.03169142 -0.01303229 0.05421057
v -0.02862977 -0.01941543 0.05505286
v -0.02933802 -0.01834627 0.05496967
v -0.03031650 -0.01622067 0.05490728
v -0.03273820 -0.00547816 -0.05089879
v -0.03300397 -0.00346712 -0.04994211
v -0.03304258 -0.00316165 -0.04994211
v -0.02538253 -0.00316165 0.05533362
v -0.02431941 -0.00346712 0.05520884
v -0.02431941 -0.00452992 0.05527123
v -0.02431941 -0.00559271 0.05531282
v -0.02431941 -0.00665551 0.05533362
v -0.02113156 -0.01834627 0.05533362
v -0.02113156 -0.01941543 0.05533362
v -0.03169142 -0.01303229 -0.05089879
v -0.03145979 -0.01303229 0.05499046
v -0.03231800 -0.00846131 0.05478249
v -0.03187256 -0.01196790 0.05421057
v -0.03188444 -0.01196790 0.05314991
v -0.02779086 -0.01941543 0.05526083
v -0.02750727 -0.01940906 0.05533362
v -0.02857038 -0.01834627 0.05527123
v -0.03052437 -0.01515788 0.05502166
v -0.03272335 -0.00559271 -0.05089879
v -0.03233285 -0.00856632 -0.05089879
v -0.03300397 -0.00346712 0.05314991
v -0.03304258 -0.00316165 0.05314991
v -0.03175972 -0.00316165 0.05533362
v -0.02644415 -0.01941543 0.05533362
v -0.03188444 -0.01196790 -0.04994211
v -0.03171220 -0.01291614 -0.05089879
v -0.03154294 -0.01196790 0.05503206
v -0.03250657 -0.00559271 0.05499046
v -0.03243678 -0.00665551 0.05492807
v -0.03236700 -0.00771831 0.05485529
v -0.03069660 -0.01303229 0.05528162
v -0.03301882 -0.00316165 0.05421057
v -0.03285847 -0.00452992 0.05421057
v -0.03272335 -0.00559271 0.05421057
v -0.03233285 -0.00856632 0.05421057
v -0.02750727 -0.01941543 0.05532322
v -0.02857038 -0.01728347 0.05533362
v -0.02963349 -0.01515788 0.05531282
v -0.02963349 -0.01622067 0.05519844
v -0.03188890 -0.01185335 -0.05089879
v -0.03264317 -0.00316165 0.05503206
v -0.03175972 -0.00346712 0.05533362
v -0.03187256 -0.01196790 -0.05089879
v -0.03257190 -0.00452992 0.05502166
v -0.03175972 -0.00665551 0.05522963
v -0.03069660 -0.01196790 0.05532322
v -0.03175972 -0.00559271 0.05528162
v -0.03069660 -0.01090669 0.05533362
v -0.03262535 -0.00346712 0.05503206
v -0.03175972 -0.00452992 0.05531282
f 1 2 5
f 1 5 8
f 1 8 13
f 1 13 23
f 1 23 34
f 1 34 50
f 1 50 66
f 1 66 83
f 1 83 80
f 1 80 60
f 1 60 59
f 1 59 40
f 1 40 29
f 1 29 17
f 1 17 10
f 1 10 6
f 1 6 3
f 1 3 7
f 1 7 12
f 1 12 21
f 1 21 33
f 1 33 49
f 1 49 64
f 1 64 76
f 1 76 55
f 1 55 37
f 1 37 27
f 1 27 15
f 1 15 9
f 1 9 4
f 1 4 2
f 2 4 5
f 3 6 7
f 4 8 5
f 4 9 14
f 4 14 8
f 6 10 11
f 6 11 12
f 6 12 7
f 8 14 13
f 9 15 16
f 9 16 14
f 10 17 30
f 10 30 42
f 10 42 62
f 10 62 72
f 10 72 81
f 10 81 63
f 10 63 43
f 10 43 31
f 10 31 18
f 10 18 11
f 11 18 12
f 12 18 19
f 12 19 20
f 12 20 21
f 13 22 23
f 13 14 24
f 13 24 22
f 14 16 25
f 14 25 26
f 14 26 24
f 15 27 28
f 15 28 25
f 15 25 16
f 17 29 30
f 18 20 19
f 18 31 20
f 20 31 32
f 20 32 21
f 21 32 33
f 22 24 26
f 22 26 23
f 23 26 34
f 25 28 35
f 25 35 26
f 26 35 36
f 26 36 34
f 27 37 28
f 28 37 38
f 28 38 39
f 28 39 35
f 29 40 41
f 29 41 42
f 29 42 30
f 31 43 44
f 31 44 32
f 32 44 45
f 32 45 46
f 32 46 47
f 32 47 48
f 32 48 49
f 32 49 33
f 34 36 50
f 35 39 51
f 35 51 36
f 36 51 52
f 36 52 53
f 36 53 54
f 36 54 65
f 36 65 50
f 37 55 56
f 37 56 57
f 37 57 38
f 38 57 58
f 38 58 51
f 38 51 39
f 40 59 41
f 41 59 60
f 41 60 75
f 41 75 61
f 41 61 62
f 41 62 42
f 43 63 82
f 43 82 88
f 43 88 77
f 43 77 56
f 43 56 64
f 43 64 49
f 43 49 48
f 43 48 47
f 43 47 46
f 43 46 45
f 43 45 44
f 50 65 66
f 51 67 68
f 51 68 69
f 51 69 70
f 51 70 52
f 51 58 71
f 51 71 67
f 52 70 72
f 52 72 73
f 52 73 74
f 52 74 75
f 52 75 53
f 53 75 54
f 54 75 60
f 54 60 65
f 55 76 56
f 56 76 64
f 56 77 57
f 57 77 78
f 57 78 71
f 57 71 79
f 57 79 58
f 58 79 71
f 60 80 65
f 61 75 74
f 61 74 73
f 61 73 62
f 62 73 72
f 63 81 82
f 65 80 83
f 65 83 66
f 67 84 68
f 67 71 85
f 67 85 84
f 68 84 72
f 68 72 69
f 69 72 70
f 71 78 86
f 71 86 87
f 71 87 85
f 72 84 81
f 77 86 78
f 77 88 86
f 81 84 89
f 81 89 90
f 81 90 82
f 82 90 86
f 82 86 88
f 84 85 87
f 84 87 90
f 84 90 89
f 86 90 87

