# https://github.com/mikedh/trimesh
v -0.02301949 -0.05857844 0.00545607
v -0.02298130 -0.05857578 -0.00654472
v -0.02381923 -0.05857578 -0.00004155
v -0.02600501 -0.05857844 0.00545607
v -0.02329356 -0.06009055 0.00545607
v -0.02349124 -0.06112880 0.00545607
v -0.02368556 -0.06210848 0.00545607
v -0.02397311 -0.06327983 0.00545607
v -0.02961729 -0.08526137 -0.00654472
v -0.02585787 -0.05857578 -0.00654472
v -0.02600276 -0.05857578 -0.00004155
v -0.02600838 -0.05857844 0.00539968
v -0.03442242 -0.08566336 0.00545607
v -0.02433141 -0.06470676 0.00545607
v -0.03149643 -0.08577251 0.00545607
v -0.03161886 -0.08577251 -0.00004155
v -0.03423372 -0.08526137 -0.00654472
v -0.02594773 -0.05857578 -0.00531245
v -0.02599827 -0.05857578 -0.00377476
v -0.02607128 -0.05857844 0.00391133
v -0.03423484 -0.08526137 -0.00637791
v -0.03443927 -0.08577251 0.00237482
v -0.03445162 -0.08577251 0.00473715
v -0.03445499 -0.08577251 0.00545607
v -0.03442467 -0.08577251 -0.00004155
v -0.02599715 -0.05857578 -0.00381940
v -0.03442691 -0.08577251 0.00029911
v -0.03443028 -0.08577251 0.00083713
f 1 2 3
f 1 3 11
f 1 11 4
f 1 4 13
f 1 13 24
f 1 24 15
f 1 15 14
f 1 14 8
f 1 8 7
f 1 7 6
f 1 6 5
f 1 5 2
f 2 5 6
f 2 6 7
f 2 7 8
f 2 8 9
f 2 9 17
f 2 17 10
f 2 10 18
f 2 18 26
f 2 26 19
f 2 19 11
f 2 11 3
f 4 11 12
f 4 12 13
f 8 14 9
f 9 14 15
f 9 15 16
f 9 16 25
f 9 25 17
f 10 17 18
f 11 19 20
f 11 20 12
f 12 20 13
f 13 21 22
f 13 22 23
f 13 23 24
f 13 20 21
f 15 24 23
f 15 23 22
f 15 22 28
f 15 28 27
f 15 27 25
f 15 25 16
f 17 25 21
f 17 21 20
f 17 20 19
f 17 19 26
f 17 26 18
f 21 25 27
f 21 27 28
f 21 28 22

