# https://github.com/mikedh/trimesh
v 0.01050288 -0.08535885 -0.00621519
v 0.01050288 -0.08635133 -0.00522907
v 0.01050288 -0.08635133 -0.00621519
v 0.00024651 -0.08630392 -0.00621519
v 0.00024651 -0.08635133 -0.00615505
v 0.00178408 -0.08635133 -0.00598225
v 0.00242517 -0.08635133 -0.00591496
v 0.00382729 -0.08635133 -0.00578010
v 0.00523045 -0.08635133 -0.00566030
v -0.00005956 -0.08635133 -0.00621519
f 1 2 3
f 1 3 10
f 1 10 4
f 1 4 5
f 1 5 6
f 1 6 7
f 1 7 8
f 1 8 9
f 1 9 2
f 2 9 8
f 2 8 7
f 2 7 6
f 2 6 5
f 2 5 10
f 2 10 3
f 4 10 5

