# https://github.com/mikedh/trimesh
v -0.03498537 -0.08774399 -0.00654472
v -0.03481109 -0.08868010 -0.00654472
v -0.03504900 -0.08774359 0.00698625
v -0.03458425 -0.08624013 0.00083881
v -0.03456489 -0.08629458 -0.00654472
v -0.03476683 -0.08891313 -0.00654472
v -0.03478343 -0.08892273 -0.00004029
v -0.03480003 -0.08893314 0.00698625
v -0.03464234 -0.08878540 0.00852429
v -0.03477790 -0.08774359 0.00852429
v -0.03448190 -0.08657966 0.00852429
v -0.03437954 -0.08577287 0.00764518
v -0.03444593 -0.08577287 0.00708218
v -0.03454829 -0.08606716 0.00686987
v -0.03454552 -0.08605555 0.00545765
v -0.03445700 -0.08577287 0.00569354
v -0.03436848 -0.08567878 -0.00654472
v -0.03476960 -0.08891513 -0.00531177
v -0.03452893 -0.08899360 -0.00654472
v -0.03358007 -0.08935435 0.00698625
v -0.03443763 -0.08859522 0.00934678
v -0.03358007 -0.08905886 0.00852429
v -0.03442657 -0.08774359 0.00934049
v -0.03436018 -0.08693720 0.00930274
v -0.03406971 -0.08577287 0.00852429
v -0.03425782 -0.08526438 -0.00004029
v -0.03445423 -0.08577287 0.00659623
v -0.03445700 -0.08577287 0.00583193
v -0.03423292 -0.08526438 -0.00654472
v -0.03426335 -0.08535727 -0.00654472
v -0.03357730 -0.08931431 -0.00654472
v -0.03358007 -0.08933594 0.00083881
v -0.03204197 -0.08935475 0.00698625
v -0.03204197 -0.08906006 0.00852429
v -0.03204197 -0.08933714 0.00083881
v -0.01636503 -0.08932512 -0.00654472
v -0.00898439 -0.08933794 -0.00377373
v -0.01051972 -0.08934595 -0.00070080
v -0.00898439 -0.08934674 -0.00070080
v -0.03358007 -0.08863725 0.00937351
v -0.03358007 -0.08774359 0.00942384
v -0.00898162 -0.08865127 0.00939396
v -0.01974552 -0.08864646 0.00938609
v -0.02896302 -0.08864046 0.00937823
v -0.03204197 -0.08863845 0.00937508
v -0.03302403 -0.08577287 0.00939553
v -0.03333939 -0.08577287 0.00936408
v -0.03404758 -0.08577287 0.00855260
v -0.03204197 -0.08577287 0.00946315
v -0.03160765 -0.08577287 0.00947259
v -0.03050388 -0.08577287 0.00947731
v -0.00678790 -0.08577287 0.00952134
v -0.03167958 -0.08526438 -0.00004029
v -0.02961588 -0.08526438 -0.00654472
v -0.02281617 -0.08932472 -0.00531177
v -0.03050388 -0.08935276 0.00698625
v -0.02896302 -0.08905766 0.00852429
v -0.03050388 -0.08905927 0.00852429
v -0.00744353 -0.08934554 -0.00070080
v -0.01666933 -0.08934875 0.00237370
v -0.00678790 -0.08865167 0.00939396
v -0.00744353 -0.08865167 0.00939396
v -0.00867732 -0.08932993 -0.00654472
v -0.00744353 -0.08933433 -0.00531177
v -0.00678790 -0.08933474 -0.00531177
v -0.00678790 -0.08934114 -0.00312109
v -0.00678790 -0.08934354 -0.00223727
v -0.00744353 -0.08774359 0.00950404
v -0.01051972 -0.08774359 0.00949932
v -0.02589236 -0.08774359 0.00947416
v -0.03204197 -0.08774359 0.00946315
v -0.03204197 -0.08620729 0.00946787
v -0.00678790 -0.08826529 0.00944271
v -0.00678790 -0.08620729 0.00951819
v -0.00678790 -0.08577287 0.00647357
v -0.00678790 -0.08637345 -0.00654472
v -0.02896302 -0.08935034 0.00698625
v -0.01205505 -0.08903444 0.00852429
v -0.01821019 -0.08904365 0.00852429
v -0.02127531 -0.08904766 0.00852429
v -0.00678790 -0.08934434 -0.00070080
v -0.00898162 -0.08934154 0.00083881
v -0.01051972 -0.08934434 0.00083881
v -0.01821019 -0.08934475 0.00391174
v -0.00678790 -0.08886748 0.00889386
v -0.00713923 -0.08933073 -0.00654472
v -0.00678790 -0.08933193 -0.00619559
v -0.00678790 -0.08774359 0.00950404
v -0.00678790 -0.08709015 0.00951033
v -0.00678790 -0.08933073 -0.00654472
v -0.02742769 -0.08934755 0.00698625
v -0.00744353 -0.08902724 0.00852429
v -0.00744353 -0.08933753 0.00083881
v -0.00678790 -0.08933474 0.00083881
v -0.00678790 -0.08902604 0.00852429
v -0.02589236 -0.08934274 0.00698625
v -0.00678790 -0.08929509 0.00456596
v -0.01974552 -0.08931912 0.00698625
v -0.00678790 -0.08916617 0.00764047
v -0.00678790 -0.08926907 0.00698625
f 1 2 3
f 1 3 4
f 1 4 5
f 1 5 17
f 1 17 30
f 1 30 29
f 1 29 54
f 1 54 76
f 1 76 90
f 1 90 86
f 1 86 63
f 1 63 36
f 1 36 31
f 1 31 19
f 1 19 6
f 1 6 2
f 2 6 3
f 3 6 7
f 3 7 8
f 3 8 9
f 3 9 10
f 3 10 11
f 3 11 12
f 3 12 13
f 3 13 14
f 3 14 15
f 3 15 4
f 4 15 16
f 4 16 17
f 4 17 5
f 6 18 7
f 6 19 20
f 6 20 18
f 7 18 20
f 7 20 8
f 8 20 9
f 9 21 10
f 9 20 22
f 9 22 21
f 10 21 23
f 10 23 24
f 10 24 11
f 11 24 25
f 11 25 12
f 12 26 13
f 12 25 26
f 13 27 14
f 13 26 27
f 14 27 28
f 14 28 15
f 15 28 16
f 16 28 26
f 16 26 29
f 16 29 30
f 16 30 17
f 19 31 32
f 19 32 20
f 20 33 34
f 20 34 22
f 20 32 31
f 20 31 35
f 20 35 36
f 20 36 37
f 20 37 38
f 20 38 39
f 20 39 33
f 21 22 40
f 21 40 41
f 21 41 23
f 22 34 42
f 22 42 43
f 22 43 44
f 22 44 45
f 22 45 40
f 23 41 46
f 23 46 47
f 23 47 24
f 24 47 48
f 24 48 25
f 25 48 26
f 26 28 27
f 26 48 47
f 26 47 46
f 26 46 49
f 26 49 50
f 26 50 51
f 26 51 52
f 26 52 53
f 26 53 54
f 26 54 29
f 31 36 55
f 31 55 35
f 33 56 57
f 33 57 58
f 33 58 34
f 33 39 59
f 33 59 60
f 33 60 56
f 34 58 61
f 34 61 62
f 34 62 42
f 35 55 36
f 36 63 37
f 37 63 64
f 37 64 65
f 37 65 66
f 37 66 38
f 38 66 39
f 39 66 67
f 39 67 59
f 40 45 68
f 40 68 69
f 40 69 70
f 40 70 71
f 40 71 41
f 41 71 72
f 41 72 49
f 41 49 46
f 42 62 73
f 42 73 43
f 43 73 68
f 43 68 44
f 44 68 45
f 49 72 50
f 50 72 71
f 50 71 51
f 51 71 52
f 52 71 70
f 52 70 74
f 52 74 89
f 52 89 88
f 52 88 73
f 52 73 61
f 52 61 85
f 52 85 95
f 52 95 99
f 52 99 100
f 52 100 97
f 52 97 94
f 52 94 81
f 52 81 67
f 52 67 66
f 52 66 65
f 52 65 87
f 52 87 90
f 52 90 76
f 52 76 75
f 52 75 54
f 52 54 53
f 54 75 76
f 56 77 78
f 56 78 79
f 56 79 80
f 56 80 57
f 56 60 77
f 57 80 61
f 57 61 58
f 59 67 81
f 59 81 82
f 59 82 83
f 59 83 60
f 60 83 84
f 60 84 77
f 61 80 79
f 61 79 85
f 61 73 62
f 63 86 65
f 63 65 64
f 65 86 87
f 68 73 88
f 68 88 89
f 68 89 74
f 68 74 69
f 69 74 70
f 77 91 92
f 77 92 78
f 77 84 91
f 78 92 85
f 78 85 79
f 81 93 82
f 81 94 93
f 82 93 84
f 82 84 83
f 84 93 91
f 85 92 95
f 86 90 87
f 91 96 95
f 91 95 92
f 91 93 96
f 93 94 97
f 93 97 98
f 93 98 96
f 95 96 99
f 96 98 99
f 97 100 98
f 98 100 99

