# https://github.com/mikedh/trimesh
v 0.01229334 -0.07050253 -0.00466260
v 0.01229899 -0.07050253 -0.00186267
v 0.01448944 -0.07050253 -0.00466260
v 0.01397086 -0.08634978 -0.00466260
v 0.01230401 -0.07050253 -0.00070061
v 0.01453904 -0.07050253 -0.00223820
v 0.01777166 -0.07813838 -0.00466260
v 0.01868263 -0.08634978 -0.00466260
v 0.01561386 -0.08634978 0.00016916
v 0.01232033 -0.07050253 0.00016916
v 0.01230903 -0.07050253 -0.00032177
v 0.01451016 -0.07050253 -0.00101655
v 0.01795059 -0.07858051 -0.00466260
v 0.01449949 -0.07050253 -0.00061311
v 0.01776099 -0.07818026 -0.00377532
v 0.01868514 -0.08620550 -0.00466260
v 0.01868639 -0.08634978 -0.00377532
v 0.01866442 -0.08634978 0.00016916
v 0.01441536 -0.07050253 0.00016916
v 0.01807364 -0.07890630 -0.00466260
v 0.01774090 -0.07826248 -0.00223820
v 0.01772270 -0.07835867 -0.00070061
v 0.01443796 -0.07050253 -0.00003752
v 0.01713820 -0.07698260 0.00016916
v 0.01866191 -0.08466809 -0.00466260
v 0.01867949 -0.08466809 -0.00377532
v 0.01869832 -0.08466809 -0.00223820
v 0.01868890 -0.08620550 -0.00377532
v 0.01868137 -0.08634978 -0.00223820
v 0.01868514 -0.08620550 -0.00223820
v 0.01867070 -0.08634978 -0.00070061
v 0.01866819 -0.08620550 0.00016916
v 0.01820800 -0.07937482 -0.00466260
v 0.01805230 -0.07894664 -0.00377532
v 0.01832477 -0.08005587 -0.00223820
v 0.01773274 -0.07849829 0.00016916
v 0.01801589 -0.07902886 -0.00223820
v 0.01861859 -0.08313069 -0.00466260
v 0.01867446 -0.08313069 -0.00223820
v 0.01870020 -0.08313069 -0.00070061
v 0.01870083 -0.08466809 -0.00070061
v 0.01870648 -0.08313069 0.00016916
v 0.01869581 -0.08466809 0.00016916
v 0.01837060 -0.08005587 -0.00377532
v 0.01838379 -0.08005587 -0.00466260
v 0.01797884 -0.07912504 -0.00070061
v 0.01795813 -0.07918710 0.00016916
v 0.01825508 -0.08005587 -0.00070061
v 0.01842836 -0.08092463 0.00016916
v 0.01857150 -0.08159328 0.00016916
v 0.01785454 -0.07886442 0.00016916
v 0.01859222 -0.08224330 -0.00466260
v 0.01857150 -0.08159328 -0.00466260
v 0.01858971 -0.08159328 -0.00377532
v 0.01859850 -0.08159328 -0.00223820
v 0.01865626 -0.08246204 0.00016916
v 0.01847670 -0.08070589 -0.00466260
v 0.01858343 -0.08159328 -0.00070061
v 0.01819105 -0.07997830 0.00016916
f 1 2 5
f 1 5 11
f 1 11 10
f 1 10 19
f 1 19 23
f 1 23 14
f 1 14 12
f 1 12 6
f 1 6 3
f 1 3 7
f 1 7 13
f 1 13 20
f 1 20 33
f 1 33 45
f 1 45 57
f 1 57 53
f 1 53 52
f 1 52 38
f 1 38 25
f 1 25 16
f 1 16 8
f 1 8 4
f 1 4 2
f 2 4 5
f 3 6 7
f 4 8 17
f 4 17 29
f 4 29 31
f 4 31 18
f 4 18 9
f 4 9 10
f 4 10 11
f 4 11 5
f 6 12 7
f 7 12 14
f 7 14 15
f 7 15 13
f 8 16 28
f 8 28 17
f 9 18 32
f 9 32 43
f 9 43 42
f 9 42 56
f 9 56 50
f 9 50 49
f 9 49 59
f 9 59 47
f 9 47 51
f 9 51 36
f 9 36 24
f 9 24 19
f 9 19 10
f 13 15 21
f 13 21 22
f 13 22 20
f 14 23 24
f 14 24 15
f 15 24 21
f 16 25 26
f 16 26 27
f 16 27 28
f 17 28 30
f 17 30 29
f 18 31 32
f 19 24 23
f 20 22 34
f 20 34 35
f 20 35 33
f 21 24 22
f 22 36 37
f 22 37 34
f 22 24 36
f 25 38 39
f 25 39 26
f 26 39 40
f 26 40 27
f 27 41 28
f 27 40 42
f 27 42 41
f 28 41 30
f 29 30 31
f 30 41 43
f 30 43 32
f 30 32 31
f 33 35 44
f 33 44 45
f 34 37 35
f 35 37 46
f 35 46 47
f 35 47 48
f 35 48 49
f 35 49 50
f 35 50 44
f 36 51 37
f 37 51 46
f 38 52 39
f 39 52 53
f 39 53 54
f 39 54 40
f 40 54 42
f 41 42 43
f 42 54 55
f 42 55 56
f 44 50 45
f 45 50 58
f 45 58 55
f 45 55 57
f 46 51 47
f 47 59 48
f 48 59 49
f 50 56 58
f 53 57 54
f 54 57 55
f 55 58 56

