# https://github.com/mikedh/trimesh
v -0.00169104 -0.01965602 0.05015730
v -0.00169104 -0.01951086 0.04699564
v -0.00068313 -0.01947948 0.04699564
v -0.00068313 -0.01960110 0.05015730
v -0.00068313 -0.01959717 0.05116614
v -0.00068313 -0.01957756 0.05331895
v -0.00169104 -0.01962464 0.05331895
v -0.00453243 -0.01927547 0.05015730
v -0.00656829 -0.01903615 0.04335658
v -0.00484903 -0.01923231 0.04335658
v -0.00217797 -0.01932255 0.04335658
v -0.00068313 -0.01930293 0.04335658
v -0.00068313 -0.01955794 0.05432780
v -0.00068313 -0.01947555 0.05748945
v -0.00169104 -0.01953833 0.05648061
v -0.00431201 -0.01922447 0.05331895
v -0.00544416 -0.01869875 0.05963326
v -0.00800902 -0.01671360 0.08174682
v -0.00800902 -0.01685484 0.07859417
v -0.00800902 -0.01713731 0.07227087
v -0.00800902 -0.01741193 0.06595656
v -0.00790282 -0.01842413 0.04335658
v -0.00408959 -0.01916954 0.05648061
v -0.00342232 -0.01900477 0.06595656
v -0.00330009 -0.01897338 0.06771304
v -0.00068313 0.02042370 0.04335658
v -0.00068313 -0.01929901 0.06384879
v -0.00169104 -0.01944809 0.05963326
v -0.00521973 -0.01863206 0.06279491
v -0.00484903 -0.01832605 0.07227087
v -0.00484903 -0.01802788 0.07859417
v -0.00484903 -0.01787880 0.08174682
v -0.00484903 -0.01771795 0.08490847
v -0.00782267 -0.01645467 0.08807013
v -0.00829156 -0.01641936 0.08495352
v -0.00964613 -0.01583872 0.08392665
v -0.00973429 -0.01588972 0.08174682
v -0.00985452 -0.01596426 0.07859417
v -0.01116100 -0.01669006 0.04335658
v -0.00997275 -0.01603488 0.07543252
v -0.01008696 -0.01610158 0.07227087
v -0.00455247 -0.01856144 0.06891104
v -0.00500132 -0.01856144 0.06595656
v -0.00169104 -0.01935393 0.06279491
v -0.00169104 -0.01924016 0.06595656
v -0.00293340 -0.01892630 0.06982081
v -0.00169104 -0.01832605 0.08490847
v -0.00169104 0.02035701 0.04335658
v -0.00169104 0.02019615 0.05331895
v -0.00169104 0.02014123 0.05648061
v -0.00068313 0.02025108 0.05231010
v -0.00068313 -0.01904007 0.07259513
v -0.00169104 -0.01814558 0.08807013
v -0.00484903 -0.01752963 0.08807013
v -0.00645808 -0.01582303 0.10885959
v -0.00761628 -0.01636051 0.09122277
v -0.00953391 -0.01577987 0.08603442
v -0.01131128 -0.01474806 0.08174682
v -0.01143151 -0.01485399 0.07859417
v -0.01154974 -0.01494814 0.07543252
v -0.01088648 -0.01485006 0.08495352
v -0.01166395 -0.01503053 0.07227087
v -0.01177617 -0.01511292 0.06910921
v -0.01267587 -0.01575241 0.04384299
v -0.01269391 -0.01576418 0.04335658
v -0.01247148 -0.01590934 0.04335658
v -0.00068313 -0.01902831 0.07298246
v -0.00083742 -0.01904792 0.07227087
v -0.00180325 -0.01909500 0.06891104
v -0.00241842 -0.01886745 0.07227087
v -0.00169104 -0.01863991 0.07859417
v -0.00068313 -0.01894199 0.07471191
v -0.00068313 -0.01834566 0.08591732
v -0.00068313 -0.01816912 0.08907897
v -0.00436211 0.01974499 0.04335658
v -0.00484903 0.01950567 0.05648061
v -0.00484903 0.01939974 0.06595656
v -0.00484903 0.01936051 0.06910921
v -0.00068313 0.02018831 0.05547176
v -0.00169104 0.01991761 0.06595656
v -0.00068313 -0.01802788 0.09122277
v -0.00169104 -0.01793765 0.09122277
v -0.00484903 -0.01629774 0.10701303
v -0.00484903 -0.01670968 0.10069873
v -0.00619558 -0.01575633 0.11095835
v -0.00800902 -0.01424981 0.11648899
v -0.00800902 -0.01453228 0.11333634
v -0.00897886 -0.01549347 0.09437542
v -0.00919728 -0.01561117 0.09122277
v -0.00940367 -0.01571710 0.08807013
v -0.01107684 -0.01378295 0.09753708
v -0.01116501 -0.01419488 0.09122277
v -0.01116501 -0.01442243 0.08807013
v -0.01316480 -0.01305322 0.08490847
v -0.01329104 -0.01316700 0.08174682
v -0.01341728 -0.01327685 0.07859417
v -0.01353550 -0.01337101 0.07543252
v -0.01364771 -0.01345339 0.07227087
v -0.01289228 -0.01554448 0.04335658
v -0.01375191 -0.01353186 0.06910921
v -0.01384609 -0.01361425 0.06595656
v -0.01392023 -0.01369271 0.06279491
v -0.01549922 -0.01219011 0.06279491
v -0.01554531 -0.01223719 0.05963326
v -0.01557938 -0.01227642 0.05648061
v -0.00659434 0.01916042 0.04335658
v -0.00703718 0.01908980 0.04699564
v -0.00685684 0.01906627 0.05331895
v -0.00677268 0.01905057 0.05648061
v -0.00644005 0.01894464 0.07097377
v -0.00637993 0.01892895 0.07308154
v -0.00513557 0.01923496 0.07212674
v -0.00169104 0.01983522 0.06910921
v -0.00068313 0.02010592 0.05862441
v -0.00068313 -0.01780426 0.09437542
v -0.00169104 -0.01750217 0.09753708
v -0.00169104 -0.01772187 0.09437542
v -0.00417976 -0.01596819 0.11333634
v -0.00502536 -0.01605450 0.11001256
v -0.00575876 -0.01567394 0.11333634
v -0.00775454 -0.01331216 0.12596495
v -0.00800902 -0.01391241 0.11965065
v -0.01003286 -0.01294337 0.11648899
v -0.00933353 -0.01249613 0.12596495
v -0.00951588 -0.01259813 0.12390221
v -0.00966416 -0.01270013 0.12179444
v -0.01025127 -0.01308461 0.11333634
v -0.01044765 -0.01322585 0.11017469
v -0.01061997 -0.01336316 0.10701303
v -0.01078228 -0.01350440 0.10385138
v -0.01093257 -0.01364171 0.10069873
v -0.01251356 -0.01242158 0.10069873
v -0.01265583 -0.01255890 0.09753708
v -0.01147359 -0.01370448 0.09460061
v -0.01273198 -0.01263344 0.09579861
v -0.01522671 -0.01189587 0.07227087
v -0.01533091 -0.01201357 0.06910921
v -0.01542508 -0.01211165 0.06595656
v -0.01406851 -0.01423412 0.04335658
v -0.01654321 -0.01043643 0.06910921
v -0.01659931 -0.01053059 0.06595656
v -0.01665341 -0.01060905 0.06279491
v -0.01670952 -0.01066005 0.05963326
v -0.01676563 -0.01069536 0.05648061
v -0.01681372 -0.01072675 0.05331895
v -0.01695198 -0.01080521 0.04335658
v -0.01560943 -0.01230389 0.05331895
v -0.00846589 0.01863471 0.04335658
v -0.00849194 0.01865040 0.04384299
v -0.00861617 0.01867002 0.04699564
v -0.00769843 0.01829339 0.07212674
v -0.00800902 0.01799522 0.07543252
v -0.00615952 0.01888580 0.07543252
v -0.01116501 0.01746559 0.04699564
v -0.00458052 0.01922319 0.07543252
v -0.00068313 0.01983522 0.06810937
v -0.00068313 0.01992938 0.06494772
v -0.00068313 0.02001961 0.06178606
v -0.00169104 0.01973714 0.07227087
v -0.00068313 -0.01757671 0.09753708
v -0.00169104 -0.01727070 0.10069873
v -0.00366278 -0.01587010 0.11563328
v -0.00476888 -0.01557194 0.11660609
v -0.00484903 -0.01519531 0.11965065
v -0.00740187 -0.01306107 0.12912660
v -0.00845988 -0.01216657 0.13228825
v -0.00898086 -0.01233527 0.12912660
v -0.01202464 -0.01196257 0.11017469
v -0.01036549 -0.01040897 0.13536884
v -0.01182826 -0.01177033 0.11333634
v -0.01219897 -0.01212342 0.10701303
v -0.01236127 -0.01227642 0.10385138
v -0.01337720 -0.01038150 0.11017469
v -0.01351146 -0.01054236 0.10701303
v -0.01499627 -0.01157809 0.07859417
v -0.01511450 -0.01174287 0.07543252
v -0.01638290 -0.01016180 0.07543252
v -0.01647508 -0.01031481 0.07227087
v -0.01537900 -0.01273937 0.04335658
v -0.01782764 -0.00790595 0.06910921
v -0.01771543 -0.00790595 0.07227087
v -0.01853298 -0.00818057 0.04335658
v -0.01568357 -0.01238628 0.04335658
v -0.01116501 0.01752051 0.04335658
v -0.01116501 0.01752836 0.04384299
v -0.01074421 0.01656324 0.07227087
v -0.01058992 0.01646909 0.07543252
v -0.00800902 0.01777160 0.07859417
v -0.01116501 0.01732435 0.05015730
v -0.00567460 0.01878379 0.07859417
v -0.00658632 0.01586099 0.11276887
v -0.00641600 0.01577860 0.11486764
v -0.01324695 0.01624939 0.04335658
v -0.01323894 0.01623762 0.04384299
v -0.01316279 0.01615523 0.04699564
v -0.00169104 0.01958021 0.07543252
v -0.00409360 0.01910550 0.07859417
v -0.00068313 0.01972537 0.07126202
v -0.00068313 0.01900349 0.08644877
v -0.00068313 0.01953705 0.07543252
v -0.00068313 0.01968614 0.07227087
v -0.00068313 -0.01733739 0.10069873
v -0.00169104 -0.01677637 0.10701303
v -0.00169104 -0.01651744 0.11017469
v -0.00286126 -0.01577595 0.11773204
v -0.00169104 -0.01528554 0.12281230
v -0.00484903 -0.01474806 0.12281230
v -0.00651819 -0.01267267 0.13403572
v -0.00687888 -0.01280998 0.13228825
v -0.00775654 -0.01201357 0.13536884
v -0.01323693 -0.01019319 0.11333634
v -0.01204868 -0.00768624 0.13536884
v -0.01214887 -0.00834927 0.13228825
v -0.01234524 -0.00876906 0.12912660
v -0.01252759 -0.00912215 0.12596495
v -0.01265984 -0.00935362 0.12365001
v -0.01278207 -0.00954193 0.12154224
v -0.01289028 -0.00969886 0.11965065
v -0.01307062 -0.00995780 0.11648899
v -0.01575371 -0.00925946 0.09122277
v -0.01584789 -0.00940070 0.08894386
v -0.01593205 -0.00953016 0.08683609
v -0.01601220 -0.00964394 0.08490847
v -0.01614044 -0.00982441 0.08174682
v -0.01626668 -0.00999703 0.07859417
v -0.01757115 -0.00790595 0.07543252
v -0.01718843 -0.00790595 0.08174682
v -0.01739081 -0.00790595 0.07859417
v -0.02102771 -0.00158954 0.04335658
v -0.01973526 -0.00506945 0.04335658
v -0.01916217 -0.00659951 0.04335658
v -0.01850092 -0.00474775 0.07859417
v -0.01872334 -0.00491252 0.07227087
v -0.01876742 -0.00518715 0.06910921
v -0.01232320 0.01548828 0.07227087
v -0.01298646 0.01598261 0.05331895
v -0.01288627 0.01589630 0.05648061
v -0.01280612 0.01582960 0.05892166
v -0.01216691 0.01537843 0.07543252
v -0.00954393 0.01258509 0.13536884
v -0.01040156 0.01634747 0.07859417
v -0.00822944 0.01328342 0.13536884
v -0.00701514 0.01608853 0.10701303
v -0.00678270 0.01596299 0.11017469
v -0.01307864 0.01606892 0.05015730
v -0.00484903 0.01799130 0.09122277
v -0.00169104 0.01697518 0.11333634
v -0.00169104 0.01746166 0.10701303
v -0.00169104 0.01770098 0.10385138
v -0.00474684 0.01871710 0.08201704
v -0.00362671 0.01901134 0.08114332
v -0.00484903 0.01750482 0.09753708
v -0.00810120 0.01333443 0.13536884
v -0.00484903 0.01441724 0.13536884
v -0.00613547 0.01571190 0.11648899
v -0.00320792 0.01577075 0.12423549
v -0.00358063 0.01585314 0.12212772
v -0.00400944 0.01595122 0.11965065
v -0.00455447 0.01607676 0.11648899
v -0.00484903 0.01650832 0.11017469
v -0.01479589 0.01420146 0.04335658
v -0.01479389 0.01420146 0.04384299
v -0.01592804 0.01265571 0.04951776
v -0.01587995 0.01258901 0.05331895
v -0.01583787 0.01253409 0.05648061
v -0.01579779 0.01247524 0.05963326
v -0.01575571 0.01241247 0.06279491
v -0.01570962 0.01233792 0.06595656
v -0.01398435 0.01390722 0.07227087
v -0.00320792 0.01893288 0.08324208
v -0.00068313 0.01897211 0.08700723
v -0.00068313 -0.01683130 0.10701303
v -0.00068313 -0.01648605 0.11118353
v -0.00068313 -0.01585441 0.11863279
v -0.00169104 -0.01624281 0.11333634
v -0.00068313 -0.01565433 0.12056041
v -0.00068313 -0.01528162 0.12382115
v -0.00068313 -0.01484222 0.12697380
v -0.00169104 -0.01483829 0.12596495
v -0.00484903 -0.01426550 0.12596495
v -0.00484903 -0.01326508 0.13228825
v -0.00587498 -0.01256674 0.13536884
v -0.01498224 -0.00759601 0.11304810
v -0.01495820 -0.00801972 0.11017469
v -0.01522470 -0.00843558 0.10385138
v -0.01535696 -0.00864351 0.10069873
v -0.01548921 -0.00885144 0.09753708
v -0.01562346 -0.00905545 0.09437542
v -0.01443320 -0.00790595 0.11648899
v -0.01273799 -0.00631311 0.13536884
v -0.01296642 -0.00676821 0.13228825
v -0.01320487 -0.00719192 0.12912660
v -0.01344132 -0.00754501 0.12596495
v -0.01581983 -0.00606987 0.11391283
v -0.01404647 -0.00790595 0.11965065
v -0.01590800 -0.00633665 0.11180506
v -0.01597212 -0.00644258 0.11017469
v -0.01609435 -0.00665051 0.10701303
v -0.01633080 -0.00706245 0.10069873
v -0.01644502 -0.00727038 0.09753708
v -0.01655723 -0.00747831 0.09437542
v -0.01784167 -0.00474775 0.09122277
v -0.01801800 -0.00474775 0.08807013
v -0.01819033 -0.00474775 0.08490847
v -0.01835264 -0.00474775 0.08174682
v -0.01764730 -0.00474775 0.09437542
v -0.01910005 -0.00030272 0.08101720
v -0.02115194 0.00156473 0.04335658
v -0.01832659 -0.00158954 0.09437542
v -0.01389819 0.01380129 0.07543252
v -0.01380201 0.01367182 0.07859417
v -0.01369781 0.01354236 0.08174682
v -0.01358960 0.01341289 0.08490847
v -0.01347338 0.01328342 0.08807013
v -0.01334915 0.01315396 0.09122277
v -0.01321890 0.01302841 0.09437542
v -0.01307864 0.01289895 0.09753708
v -0.01292835 0.01276948 0.10069873
v -0.01281614 0.01267925 0.10295963
v -0.01270192 0.01258901 0.10506740
v -0.01258570 0.01249485 0.10701303
v -0.01069812 0.01127081 0.13536884
v -0.00169104 0.01672802 0.11648899
v -0.00068313 0.01589237 0.12800066
v -0.00068313 0.01710857 0.11232749
v -0.00068313 0.01735181 0.10916584
v -0.00068313 0.01751659 0.10701303
v -0.00068313 0.01775198 0.10385138
v -0.00169104 0.01793245 0.10069873
v -0.00169104 0.01496649 0.13536884
v -0.00068313 0.01584137 0.12853211
v -0.00119811 0.01599438 0.12596495
v -0.00471878 0.01550789 0.12302849
v -0.00196957 0.01611992 0.12302849
v -0.00169104 0.01647301 0.11965065
v -0.01587393 0.01256940 0.04335658
v -0.01590399 0.01262040 0.04542833
v -0.01592804 0.01265571 0.04753610
v -0.01693194 0.01100795 0.05331895
v -0.01694797 0.01095302 0.05648061
v -0.01690188 0.01089810 0.05963326
v -0.01564550 0.01222807 0.06910921
v -0.01681572 0.01083533 0.06279491
v -0.00169104 0.01815608 0.09753708
v -0.00169104 0.01836793 0.09437542
v -0.00068313 -0.01450090 0.12912660
v -0.00169104 -0.01434004 0.12912660
v -0.00169104 -0.01381433 0.13228825
v -0.00460657 -0.01278645 0.13536884
v -0.01340926 -0.00495568 0.13536884
v -0.01396632 -0.00474775 0.13228825
v -0.01441717 -0.00474775 0.12912660
v -0.01568558 -0.00567363 0.11648899
v -0.01616449 -0.00409257 0.11648899
v -0.01623061 -0.00490860 0.11304810
v -0.01652317 -0.00474775 0.11017469
v -0.01677765 -0.00474775 0.10701303
v -0.01593205 -0.00325299 0.12152423
v -0.01700408 -0.00474775 0.10385138
v -0.01722249 -0.00474775 0.10069873
v -0.01743690 -0.00474775 0.09753708
v -0.01814023 -0.00158954 0.09753708
v -0.01887963 0.00156473 0.08490847
v -0.01910005 0.00096448 0.08101720
v -0.01907801 0.00633931 0.06169598
v -0.01910606 0.00642562 0.05963326
v -0.02026827 0.00423645 0.04335658
v -0.01906198 0.00306733 0.08010745
v -0.01910606 0.00334196 0.07799968
v -0.01890168 0.00555858 0.07227087
v -0.01896981 0.00585675 0.06910921
v -0.01901589 0.00608037 0.06595656
v -0.01904795 0.00622553 0.06379474
v -0.01869529 0.00156473 0.08807013
v -0.01556335 0.01209861 0.07227087
v -0.01547718 0.01196522 0.07543252
v -0.01538300 0.01182006 0.07859417
v -0.01527881 0.01167098 0.08174682
v -0.01516860 0.01151797 0.08490847
v -0.01505238 0.01135712 0.08807013
v -0.01453940 0.01104326 0.09753708
v -0.01385611 0.01091379 0.10701303
v -0.01371384 0.01072940 0.11017469
v -0.01249954 0.00915618 0.13536884
v -0.00160889 0.01497041 0.13536884
v -0.00068313 0.01501357 0.13536884
v -0.01836666 0.00825776 0.04335658
v -0.01666744 0.01135712 0.04668938
v -0.01670551 0.01135712 0.05040951
v -0.01842076 0.00830092 0.04699564
v -0.01846685 0.00826953 0.05015730
v -0.01851294 0.00821069 0.05331895
v -0.01852897 0.00812438 0.05648061
v -0.01848088 0.00800668 0.05963326
v -0.01672555 0.01075686 0.06595656
v -0.01663738 0.01065094 0.06910921
v -0.00068313 -0.01397518 0.13228825
v -0.00177320 -0.01324154 0.13536884
v -0.01469370 -0.00167193 0.13536884
v -0.01483396 -0.00474775 0.12596495
v -0.01548319 -0.00514007 0.11965065
v -0.01769138 -0.00158954 0.10385138
v -0.01792583 -0.00158954 0.10069873
v -0.01471975 -0.00158954 0.13536884
v -0.01523873 0.00148235 0.13536884
v -0.01715837 -0.00158954 0.11017469
v -0.01743690 -0.00158954 0.10701303
v -0.01811619 0.00156473 0.09753708
v -0.01832258 0.00156473 0.09437542
v -0.01915015 0.00654331 0.05648061
v -0.02008592 0.00472293 0.04335658
v -0.01919423 0.00662962 0.05331895
v -0.01924032 0.00668847 0.05015730
v -0.01835865 0.00472293 0.08490847
v -0.01856704 0.00472293 0.08174682
v -0.01878145 0.00452677 0.07886440
v -0.01481593 0.00472293 0.13536884
v -0.01697603 0.00788506 0.08807013
v -0.01718642 0.00788506 0.08490847
v -0.01739482 0.00788506 0.08174682
v -0.01759520 0.00788506 0.07859417
v -0.01778556 0.00788506 0.07543252
v -0.01644702 0.00760259 0.09753708
v -0.01796791 0.00788506 0.07227087
v -0.01812220 0.00788506 0.06910921
v -0.01654922 0.01052147 0.07227087
v -0.01645905 0.01038416 0.07543252
v -0.01636487 0.01023900 0.07859417
v -0.01627069 0.01008991 0.08174682
v -0.01617451 0.00993691 0.08490847
v -0.01608033 0.00977606 0.08807013
v -0.01598615 0.00961128 0.09122277
v -0.01592603 0.00950535 0.09316841
v -0.01492814 0.01118842 0.09122277
v -0.01586392 0.00936804 0.09527618
v -0.01499427 0.01075294 0.09428535
v -0.01578577 0.00918365 0.09753708
v -0.01351747 0.00757905 0.13536884
v -0.00068313 -0.01340632 0.13536884
v -0.01927238 0.00668063 0.04335658
v -0.01927438 0.00668847 0.04384299
v -0.01927639 0.00671986 0.04699564
v -0.01788174 0.00156473 0.10069873
v -0.01524474 0.00156473 0.13536884
v -0.01482996 0.00464447 0.13536884
v -0.01943469 0.00638246 0.04335658
v -0.01591401 0.00632361 0.11186811
v -0.01633080 0.00732404 0.10069873
v -0.01355153 0.00750843 0.13536884
v -0.01543510 0.00834015 0.10701303
v -0.01676362 0.00788506 0.09122277
v -0.01567155 0.00890510 0.10069873
v -0.01644702 0.00814399 0.09428535
f 1 2 3
f 1 3 4
f 1 4 5
f 1 5 6
f 1 6 7
f 1 7 8
f 1 8 9
f 1 9 10
f 1 10 2
f 2 10 11
f 2 11 12
f 2 12 3
f 3 12 26
f 3 26 51
f 3 51 79
f 3 79 114
f 3 114 158
f 3 158 157
f 3 157 156
f 3 156 198
f 3 198 201
f 3 201 200
f 3 200 199
f 3 199 271
f 3 271 328
f 3 328 327
f 3 327 326
f 3 326 325
f 3 325 324
f 3 324 331
f 3 331 386
f 3 386 439
f 3 439 397
f 3 397 346
f 3 346 278
f 3 278 277
f 3 277 276
f 3 276 274
f 3 274 273
f 3 273 272
f 3 272 202
f 3 202 160
f 3 160 115
f 3 115 81
f 3 81 74
f 3 74 73
f 3 73 72
f 3 72 67
f 3 67 52
f 3 52 27
f 3 27 14
f 3 14 13
f 3 13 6
f 3 6 5
f 3 5 4
f 6 13 7
f 7 13 14
f 7 14 15
f 7 15 16
f 7 16 8
f 8 16 9
f 9 17 18
f 9 18 19
f 9 19 20
f 9 20 21
f 9 21 22
f 9 22 39
f 9 39 66
f 9 66 65
f 9 65 99
f 9 99 139
f 9 139 179
f 9 179 183
f 9 183 146
f 9 146 182
f 9 182 231
f 9 231 230
f 9 230 229
f 9 229 308
f 9 308 367
f 9 367 411
f 9 411 446
f 9 446 440
f 9 440 387
f 9 387 336
f 9 336 261
f 9 261 193
f 9 193 184
f 9 184 148
f 9 148 106
f 9 106 75
f 9 75 48
f 9 48 26
f 9 26 12
f 9 12 11
f 9 11 10
f 9 16 23
f 9 23 24
f 9 24 25
f 9 25 17
f 14 27 15
f 15 23 16
f 15 27 28
f 15 28 25
f 15 25 24
f 15 24 23
f 17 29 30
f 17 30 18
f 17 25 29
f 18 30 31
f 18 31 32
f 18 32 33
f 18 33 34
f 18 34 35
f 18 35 36
f 18 36 19
f 19 36 20
f 20 36 21
f 21 36 37
f 21 37 38
f 21 38 22
f 22 38 40
f 22 40 41
f 22 41 39
f 25 30 42
f 25 42 43
f 25 43 29
f 25 28 44
f 25 44 45
f 25 45 46
f 25 46 47
f 25 47 33
f 25 33 32
f 25 32 31
f 25 31 30
f 26 48 49
f 26 49 50
f 26 50 51
f 27 52 28
f 28 52 44
f 29 43 30
f 30 43 42
f 33 47 53
f 33 53 54
f 33 54 55
f 33 55 56
f 33 56 34
f 34 56 57
f 34 57 35
f 35 57 36
f 36 58 59
f 36 59 60
f 36 60 37
f 36 57 61
f 36 61 58
f 37 60 62
f 37 62 63
f 37 63 38
f 38 63 64
f 38 64 65
f 38 65 66
f 38 66 40
f 39 41 66
f 40 66 41
f 44 52 67
f 44 67 68
f 44 68 45
f 45 68 69
f 45 69 46
f 46 69 68
f 46 68 70
f 46 70 47
f 47 71 68
f 47 68 72
f 47 72 73
f 47 73 74
f 47 74 53
f 47 70 71
f 48 75 76
f 48 76 77
f 48 77 78
f 48 78 49
f 49 78 50
f 50 79 51
f 50 78 80
f 50 80 79
f 53 74 81
f 53 81 82
f 53 82 83
f 53 83 84
f 53 84 54
f 54 84 85
f 54 85 55
f 55 85 86
f 55 86 87
f 55 87 88
f 55 88 89
f 55 89 90
f 55 90 56
f 56 90 57
f 57 90 91
f 57 91 92
f 57 92 93
f 57 93 61
f 58 61 93
f 58 93 94
f 58 94 95
f 58 95 96
f 58 96 59
f 59 96 97
f 59 97 60
f 60 97 62
f 62 97 98
f 62 98 63
f 63 98 65
f 63 65 64
f 65 98 100
f 65 100 101
f 65 101 102
f 65 102 103
f 65 103 104
f 65 104 105
f 65 105 99
f 67 72 68
f 68 71 70
f 75 106 107
f 75 107 76
f 76 107 108
f 76 108 77
f 77 108 109
f 77 109 78
f 78 110 111
f 78 111 112
f 78 112 113
f 78 113 80
f 78 109 110
f 79 80 113
f 79 113 114
f 81 115 116
f 81 116 117
f 81 117 82
f 82 117 83
f 83 117 116
f 83 116 118
f 83 118 119
f 83 119 85
f 83 85 84
f 85 119 120
f 85 120 121
f 85 121 122
f 85 122 86
f 86 123 87
f 86 122 124
f 86 124 125
f 86 125 126
f 86 126 123
f 87 123 127
f 87 127 128
f 87 128 88
f 88 128 89
f 89 128 129
f 89 129 130
f 89 130 90
f 90 130 131
f 90 131 91
f 91 131 132
f 91 132 133
f 91 133 134
f 91 134 92
f 92 134 135
f 92 135 93
f 93 135 94
f 94 136 95
f 94 135 136
f 95 136 96
f 96 136 137
f 96 137 97
f 97 137 98
f 98 137 138
f 98 138 100
f 99 105 139
f 100 138 101
f 101 138 103
f 101 103 102
f 103 138 140
f 103 140 141
f 103 141 142
f 103 142 143
f 103 143 144
f 103 144 104
f 104 144 145
f 104 145 105
f 105 145 146
f 105 146 147
f 105 147 139
f 106 148 149
f 106 149 150
f 106 150 107
f 107 150 108
f 108 150 109
f 109 150 110
f 110 150 111
f 111 151 152
f 111 152 153
f 111 153 112
f 111 150 154
f 111 154 151
f 112 153 155
f 112 155 113
f 113 156 157
f 113 157 158
f 113 158 114
f 113 155 159
f 113 159 156
f 115 160 116
f 116 160 161
f 116 161 118
f 118 162 120
f 118 120 119
f 118 161 162
f 120 162 163
f 120 163 164
f 120 164 165
f 120 165 121
f 121 165 166
f 121 166 167
f 121 167 122
f 122 167 124
f 123 168 127
f 123 126 168
f 124 167 169
f 124 169 125
f 125 169 170
f 125 170 168
f 125 168 126
f 127 168 171
f 127 171 128
f 128 171 172
f 128 172 129
f 129 172 130
f 130 172 132
f 130 132 131
f 132 172 173
f 132 173 174
f 132 174 175
f 132 175 133
f 133 135 134
f 133 175 176
f 133 176 135
f 135 176 136
f 136 176 177
f 136 177 178
f 136 178 137
f 137 178 138
f 138 178 140
f 139 147 179
f 140 180 141
f 140 178 181
f 140 181 180
f 141 180 182
f 141 182 142
f 142 182 143
f 143 182 144
f 144 182 145
f 145 182 146
f 146 183 147
f 147 183 179
f 148 184 149
f 149 184 150
f 150 184 185
f 150 185 154
f 151 154 152
f 152 186 187
f 152 187 188
f 152 188 153
f 152 154 189
f 152 189 186
f 153 190 155
f 153 188 191
f 153 191 192
f 153 192 190
f 154 185 193
f 154 193 194
f 154 194 195
f 154 195 189
f 155 196 159
f 155 190 197
f 155 197 196
f 156 159 198
f 159 196 199
f 159 199 200
f 159 200 201
f 159 201 198
f 160 202 161
f 161 202 203
f 161 203 162
f 162 203 204
f 162 204 205
f 162 205 163
f 163 205 164
f 164 205 206
f 164 206 207
f 164 207 208
f 164 208 209
f 164 209 165
f 165 209 210
f 165 210 166
f 166 210 169
f 166 169 167
f 168 170 211
f 168 211 171
f 169 210 282
f 169 282 349
f 169 349 398
f 169 398 439
f 169 439 386
f 169 386 385
f 169 385 330
f 169 330 254
f 169 254 253
f 169 253 242
f 169 242 240
f 169 240 322
f 169 322 384
f 169 384 438
f 169 438 449
f 169 449 417
f 169 417 445
f 169 445 444
f 169 444 405
f 169 405 404
f 169 404 399
f 169 399 350
f 169 350 290
f 169 290 212
f 169 212 213
f 169 213 214
f 169 214 215
f 169 215 216
f 169 216 217
f 169 217 218
f 169 218 219
f 169 219 170
f 170 219 211
f 171 211 173
f 171 173 172
f 173 211 220
f 173 220 221
f 173 221 222
f 173 222 223
f 173 223 224
f 173 224 225
f 173 225 174
f 174 225 175
f 175 225 176
f 176 225 177
f 177 226 178
f 177 225 227
f 177 227 228
f 177 228 226
f 178 226 181
f 180 181 229
f 180 229 230
f 180 230 231
f 180 231 182
f 181 226 232
f 181 232 233
f 181 233 234
f 181 234 229
f 184 193 185
f 186 235 187
f 186 189 236
f 186 236 237
f 186 237 238
f 186 238 235
f 187 235 239
f 187 239 240
f 187 240 241
f 187 241 188
f 188 241 240
f 188 240 242
f 188 242 243
f 188 243 244
f 188 244 191
f 189 195 245
f 189 245 236
f 190 246 247
f 190 247 248
f 190 248 249
f 190 249 250
f 190 250 251
f 190 251 197
f 190 192 252
f 190 252 246
f 191 244 242
f 191 242 192
f 192 242 253
f 192 253 254
f 192 254 255
f 192 255 256
f 192 256 257
f 192 257 258
f 192 258 259
f 192 259 260
f 192 260 252
f 193 261 262
f 193 262 263
f 193 263 264
f 193 264 265
f 193 265 266
f 193 266 267
f 193 267 268
f 193 268 194
f 194 268 195
f 195 268 269
f 195 269 245
f 196 197 251
f 196 251 270
f 196 270 271
f 196 271 199
f 202 272 203
f 203 272 204
f 204 273 274
f 204 274 275
f 204 275 205
f 204 272 273
f 205 275 274
f 205 274 276
f 205 276 277
f 205 277 206
f 206 277 278
f 206 278 279
f 206 279 207
f 207 279 280
f 207 280 208
f 208 280 281
f 208 281 282
f 208 282 210
f 208 210 209
f 211 283 284
f 211 284 285
f 211 285 286
f 211 286 287
f 211 287 288
f 211 288 220
f 211 219 289
f 211 289 283
f 212 290 291
f 212 291 292
f 212 292 213
f 213 292 293
f 213 293 214
f 214 293 294
f 214 294 295
f 214 295 215
f 215 295 289
f 215 289 216
f 216 289 217
f 217 289 218
f 218 289 219
f 220 288 296
f 220 296 221
f 221 296 297
f 221 297 298
f 221 298 223
f 221 223 222
f 223 298 299
f 223 299 300
f 223 300 224
f 224 300 301
f 224 301 225
f 225 301 227
f 226 228 302
f 226 302 303
f 226 303 304
f 226 304 305
f 226 305 232
f 227 301 300
f 227 300 299
f 227 299 228
f 228 299 306
f 228 306 302
f 229 307 308
f 229 234 233
f 229 233 232
f 229 232 305
f 229 305 304
f 229 304 309
f 229 309 307
f 235 310 311
f 235 311 312
f 235 312 313
f 235 313 314
f 235 314 315
f 235 315 316
f 235 316 239
f 235 238 310
f 236 245 269
f 236 269 237
f 237 269 238
f 238 269 310
f 239 316 317
f 239 317 318
f 239 318 319
f 239 319 240
f 240 319 320
f 240 320 321
f 240 321 322
f 242 244 243
f 246 252 247
f 247 323 324
f 247 324 325
f 247 325 326
f 247 326 248
f 247 252 323
f 248 326 327
f 248 327 249
f 249 327 328
f 249 328 329
f 249 329 251
f 249 251 250
f 251 329 270
f 252 260 323
f 254 330 331
f 254 331 332
f 254 332 256
f 254 256 333
f 254 333 255
f 255 333 256
f 256 332 334
f 256 334 335
f 256 335 323
f 256 323 257
f 257 323 258
f 258 323 260
f 258 260 259
f 261 336 337
f 261 337 338
f 261 338 263
f 261 263 262
f 263 338 339
f 263 339 340
f 263 340 264
f 264 340 265
f 265 340 266
f 266 340 341
f 266 341 267
f 267 341 268
f 268 342 269
f 268 341 343
f 268 343 342
f 269 342 310
f 270 329 344
f 270 344 345
f 270 345 271
f 271 345 344
f 271 344 329
f 271 329 328
f 278 346 347
f 278 347 279
f 279 347 280
f 280 347 281
f 281 348 282
f 281 347 348
f 282 348 349
f 283 296 284
f 283 289 296
f 284 296 285
f 285 296 286
f 286 296 287
f 287 296 288
f 289 295 294
f 289 294 296
f 290 350 351
f 290 351 291
f 291 351 352
f 291 352 292
f 292 352 353
f 292 353 293
f 293 353 294
f 294 354 355
f 294 355 356
f 294 356 357
f 294 357 296
f 294 353 358
f 294 358 354
f 296 357 359
f 296 359 360
f 296 360 361
f 296 361 306
f 296 306 297
f 297 306 298
f 298 306 299
f 302 306 362
f 302 362 309
f 302 309 303
f 303 309 304
f 306 361 362
f 307 363 364
f 307 364 308
f 307 309 363
f 308 365 366
f 308 366 367
f 308 364 363
f 308 363 368
f 308 368 369
f 308 369 370
f 308 370 371
f 308 371 372
f 308 372 373
f 308 373 365
f 309 362 374
f 309 374 363
f 310 342 375
f 310 375 376
f 310 376 311
f 311 376 312
f 312 376 377
f 312 377 313
f 313 377 314
f 314 377 378
f 314 378 315
f 315 378 316
f 316 378 379
f 316 379 317
f 317 379 380
f 317 380 318
f 318 380 381
f 318 381 319
f 319 381 382
f 319 382 320
f 320 382 383
f 320 383 384
f 320 384 321
f 321 384 322
f 323 335 324
f 324 335 332
f 324 332 331
f 330 385 331
f 331 385 386
f 332 335 334
f 336 387 337
f 337 388 338
f 337 387 388
f 338 388 389
f 338 389 339
f 339 389 390
f 339 390 391
f 339 391 392
f 339 392 340
f 340 392 393
f 340 393 341
f 341 393 394
f 341 394 343
f 342 343 395
f 342 395 396
f 342 396 375
f 343 394 395
f 346 397 348
f 346 348 347
f 348 397 398
f 348 398 349
f 350 399 351
f 351 399 352
f 352 400 353
f 352 399 400
f 353 401 358
f 353 400 401
f 354 402 357
f 354 357 356
f 354 356 355
f 354 358 402
f 357 402 403
f 357 403 359
f 358 400 399
f 358 399 404
f 358 404 405
f 358 405 406
f 358 406 407
f 358 407 402
f 358 401 400
f 359 403 360
f 360 403 362
f 360 362 361
f 362 408 409
f 362 409 374
f 362 403 408
f 363 374 368
f 365 394 366
f 365 373 394
f 366 394 393
f 366 393 410
f 366 410 367
f 367 410 412
f 367 412 413
f 367 413 411
f 368 414 415
f 368 415 416
f 368 416 370
f 368 370 369
f 368 374 409
f 368 409 408
f 368 408 417
f 368 417 414
f 370 418 419
f 370 419 420
f 370 420 421
f 370 421 422
f 370 422 371
f 370 416 415
f 370 415 414
f 370 414 423
f 370 423 418
f 371 422 424
f 371 424 425
f 371 425 372
f 372 425 394
f 372 394 373
f 375 426 376
f 375 396 426
f 376 426 427
f 376 427 428
f 376 428 377
f 377 428 429
f 377 429 430
f 377 430 431
f 377 431 432
f 377 432 378
f 378 432 433
f 378 433 379
f 379 433 380
f 380 434 381
f 380 433 435
f 380 435 436
f 380 436 434
f 381 436 435
f 381 435 382
f 381 434 436
f 382 435 383
f 383 435 437
f 383 437 438
f 383 438 384
f 387 440 388
f 388 390 389
f 388 440 390
f 390 440 441
f 390 441 391
f 391 441 442
f 391 442 392
f 392 442 393
f 393 442 413
f 393 413 412
f 393 412 410
f 394 425 395
f 395 425 396
f 396 425 424
f 396 424 426
f 397 439 398
f 402 443 403
f 402 407 444
f 402 444 443
f 403 443 408
f 405 444 407
f 405 407 406
f 408 443 445
f 408 445 417
f 411 413 442
f 411 442 446
f 414 417 447
f 414 447 448
f 414 448 423
f 417 449 450
f 417 450 447
f 418 423 451
f 418 451 435
f 418 435 419
f 419 435 420
f 420 435 421
f 421 435 433
f 421 433 422
f 422 433 432
f 422 432 424
f 423 448 452
f 423 452 437
f 423 437 453
f 423 453 451
f 424 432 431
f 424 431 430
f 424 430 429
f 424 429 428
f 424 428 427
f 424 427 426
f 435 451 453
f 435 453 437
f 437 452 438
f 438 452 449
f 440 446 441
f 441 446 442
f 443 444 445
f 447 450 452
f 447 452 448
f 449 452 450

