# https://github.com/mikedh/trimesh
v 0.00146979 0.01511654 0.13537099
v 0.00115755 0.01452451 0.14177125
v 0.00146979 0.01453867 0.14176912
v 0.00462965 0.01381067 0.13861160
v 0.00462965 0.01407128 0.13545196
v 0.00462965 0.01407694 0.13537099
v -0.00160576 0.01496924 0.13536886
v -0.00168695 0.01496641 0.13536886
v -0.00168695 0.01439704 0.14177125
v 0.00146979 0.01406561 0.14493090
v 0.00410509 0.01337443 0.14493090
v 0.00965045 0.00968059 0.15627624
v 0.00468897 0.01404578 0.13537099
v 0.00829533 0.01202607 0.13537099
v 0.01064962 0.01044825 0.13537099
v 0.01223267 0.00873163 0.13537099
v 0.00115755 0.01182494 0.13536886
v -0.00484680 0.01441403 0.13536886
v -0.00800666 0.01339709 0.14177125
v -0.00484680 0.01391548 0.14177125
v -0.00800666 0.01311949 0.14493090
v -0.00970524 0.01268042 0.14659915
v -0.00168695 0.01381067 0.14493090
v 0.00146979 0.01317614 0.14752808
v 0.00370230 0.01306567 0.14740025
v -0.00800666 0.01277107 0.14672485
v 0.01005012 0.00788182 0.15661288
v 0.01202971 0.00497830 0.15432889
v 0.01094312 0.00788182 0.15440346
v 0.01244811 0.00613971 0.15124381
v 0.00778638 0.00965793 0.15624216
v 0.00778638 0.00788182 0.15684724
v 0.01525826 0.00145726 0.14510135
v 0.01579844 0.00034117 0.14416389
v 0.01579844 0.00034117 0.14302191
v 0.01276660 0.00715099 0.13537099
v 0.01344415 0.00472336 0.13537099
v 0.01431218 0.00156490 0.13537099
v 0.01440897 -0.00158790 0.13537099
v 0.00115755 -0.01368353 0.13536886
v -0.00809721 0.01333194 0.13536886
v -0.00800666 0.01344242 0.13861160
v -0.00992693 0.01287021 0.14177125
v -0.00985824 0.01278523 0.14493090
v -0.01137572 0.01104312 0.14493090
v -0.01237176 0.00896675 0.14808416
v -0.01287447 0.00649097 0.15309528
v -0.01116340 0.00568648 0.15512360
v -0.00652353 0.00632950 0.15601419
v 0.00604721 0.00950496 0.15603548
v 0.01033738 0.00472336 0.15672793
v 0.01259799 -0.00264166 0.15609088
v 0.01266356 0.00409450 0.15322738
v 0.01300702 0.00456190 0.15124381
v 0.01467438 0.00156490 0.14808416
v -0.00168695 0.00694137 0.15661927
v 0.00116067 0.00723880 0.15673432
v 0.00146979 0.00726996 0.15674710
v -0.01116340 0.00156490 0.15709013
v -0.00800666 0.00156490 0.15713487
v 0.01394998 -0.00158790 0.15124381
v 0.01579844 -0.00024236 0.14416389
v 0.01579844 -0.00024236 0.14302191
v 0.01349411 -0.00466704 0.13537099
v -0.00168695 -0.01325296 0.13536886
v 0.01346913 -0.00474919 0.13537099
v 0.01271664 -0.00661877 0.13537099
v 0.01269166 -0.00667543 0.13537099
v 0.01267292 -0.00671509 0.13537099
v 0.01179553 -0.00825324 0.13537099
v 0.01021560 -0.01031828 0.13537099
v 0.00818917 -0.01189610 0.13537099
v 0.00661237 -0.01288188 0.13537099
v 0.00655616 -0.01290454 0.13537099
v 0.00462965 -0.01354190 0.13537099
v 0.00454534 -0.01355039 0.13537099
v 0.00146979 -0.01373169 0.13537099
v -0.00822523 0.01328095 0.13536886
v -0.00979267 0.01279656 0.13861160
v -0.01278704 0.00952762 0.13976638
v -0.01175041 0.01076551 0.14199070
v -0.01278704 0.00952762 0.14108521
v -0.01273708 0.00943981 0.14319235
v -0.01268088 0.00929251 0.14493090
v -0.01300561 0.00689038 0.15124381
v -0.01338029 0.00474602 0.15425006
v -0.01316485 0.00370642 0.15645095
v -0.00484680 0.00654196 0.15625280
v -0.01116340 0.00410583 0.15670875
v 0.01010008 -0.00679723 0.15643390
v 0.01106802 -0.00461605 0.15639768
v 0.01259799 -0.00347731 0.15609088
v 0.00149789 -0.00783117 0.15666188
v 0.01300078 -0.00158790 0.15458882
v 0.01284778 0.00156490 0.15375363
v 0.01371580 0.00156490 0.15124381
v -0.01306493 0.00156490 0.15634017
v -0.01275269 -0.00002141 0.15599074
v -0.01116340 -0.00079757 0.15636147
v -0.00746337 -0.00399569 0.15639982
v -0.00168070 -0.00796431 0.15655748
v 0.00146979 -0.01019648 0.15651913
v 0.01290086 -0.00394470 0.15440346
v 0.01324432 -0.00423647 0.15124381
v -0.00460638 -0.01278557 0.13536886
v -0.00484680 -0.01382233 0.14808416
v 0.01263858 -0.00654229 0.13791490
v 0.01209528 -0.00552535 0.15440346
v 0.01051535 -0.00720231 0.15440346
v 0.01020936 -0.01031262 0.13545196
v 0.00629076 -0.01270342 0.14066122
v 0.00818605 -0.01189043 0.13545196
v 0.00642814 -0.01278273 0.13861160
v 0.00383968 -0.01286771 0.14493090
v -0.00168695 -0.01358155 0.14808416
v -0.00953976 0.01258411 0.13536886
v -0.00964904 0.01268325 0.13661099
v -0.01159429 0.01076551 0.13867339
v -0.01266215 0.00933783 0.13766136
v -0.01351768 0.00757873 0.13536886
v -0.01355203 0.00751074 0.13536886
v -0.01481659 0.00472336 0.13536886
v -0.01481659 0.00472336 0.13545408
v -0.01466672 0.00472336 0.13861160
v -0.01447938 0.00472336 0.14177125
v -0.01547230 0.00133262 0.14509922
v -0.01323979 0.00771186 0.14493090
v -0.01407347 0.00472336 0.14808416
v -0.01313050 0.00738893 0.14808416
v -0.01382992 0.00472336 0.15124381
v -0.01475415 0.00156490 0.15124381
v -0.01391422 0.00156490 0.15440346
v 0.00754596 -0.00787366 0.15647439
v 0.00462965 -0.00998969 0.15642965
v 0.00633447 -0.00956478 0.15608235
v -0.01609990 -0.00345465 0.14690595
v -0.01067631 -0.00796714 0.15129920
v -0.00916195 -0.00905490 0.15238794
v -0.00705746 -0.01016248 0.15318690
v -0.00956786 -0.00315438 0.15597370
v -0.01339591 -0.00420815 0.15071756
v -0.00404123 -0.00694737 0.15630607
v -0.00061909 -0.00983956 0.15619955
v 0.00116067 -0.01014266 0.15647226
v -0.00378831 -0.01282522 0.15303136
v -0.00168695 -0.01278557 0.15299302
v -0.00587407 -0.01256745 0.13536886
v -0.00168695 -0.01321614 0.15124381
v -0.00484368 -0.01330962 0.15139721
v -0.00707619 -0.01316231 0.15044697
v -0.00729164 -0.01325013 0.14808416
v 0.00824538 -0.00878296 0.15440346
v 0.00877930 -0.00909739 0.15124381
v 0.00596603 -0.01255895 0.14276623
v 0.00329327 -0.01272325 0.14703165
v 0.00157907 -0.01298385 0.14808416
v -0.01069504 0.01126974 0.13536886
v -0.01069504 0.01129523 0.13551586
v -0.01249978 0.00915654 0.13536886
v -0.01482908 0.00464121 0.13536886
v -0.01595627 0.00017404 0.13999222
v -0.01597812 0.00023353 0.14177125
v -0.01595002 0.00013155 0.14415750
v -0.01588757 -0.00008373 0.14626038
v -0.01518504 0.00156490 0.14808416
v -0.01609990 -0.00219126 0.14690595
v 0.00116067 -0.01179979 0.15409026
v -0.00008516 -0.01265243 0.15284175
v 0.00462965 -0.01081401 0.15440346
v 0.00666857 -0.00977440 0.15440346
v -0.01273708 -0.00631568 0.14964375
v -0.01609990 -0.00345465 0.14580444
v -0.01333034 -0.00700685 0.14493090
v -0.01026415 -0.01031545 0.14808416
v -0.00996752 -0.00999819 0.15028292
v -0.00811907 -0.01113410 0.15141852
v -0.00589593 -0.01227001 0.15255412
v -0.00484368 -0.01115676 0.15365776
v -0.00499668 -0.00796431 0.15535583
v -0.00272670 -0.00905207 0.15574786
v -0.00775375 -0.01201507 0.13536886
v 0.00044252 -0.01277424 0.15124381
v 0.00116067 -0.01290737 0.14925172
v -0.00887156 -0.01189610 0.14808416
v -0.01036094 -0.01040610 0.13536886
v 0.00719937 -0.01011150 0.15124381
v 0.00541961 -0.01235216 0.14493090
v 0.00270626 -0.01256178 0.14913454
v 0.00462965 -0.01143153 0.15124381
v -0.01524436 0.00156490 0.13536886
v -0.01595627 -0.00011772 0.13999222
v 0.00116067 -0.01249663 0.15189790
v 0.00202245 -0.01238615 0.15124381
v -0.01471980 -0.00159073 0.13536886
v -0.01469170 -0.00167005 0.13536886
v -0.01340840 -0.00495598 0.13536886
v -0.01273708 -0.00631001 0.13536886
v -0.01204703 -0.00768387 0.13536886
v -0.01194712 -0.00858467 0.14493090
v -0.01037031 -0.01037210 0.14493090
v -0.01523812 0.00148275 0.13536886
f 1 2 3
f 1 3 4
f 1 4 5
f 1 5 6
f 1 6 7
f 1 7 8
f 1 8 9
f 1 9 2
f 2 10 3
f 2 9 10
f 3 10 11
f 3 11 4
f 4 11 12
f 4 12 5
f 5 12 13
f 5 13 6
f 6 13 7
f 7 13 14
f 7 14 15
f 7 15 16
f 7 16 17
f 7 17 40
f 7 40 65
f 7 65 105
f 7 105 147
f 7 147 181
f 7 181 185
f 7 185 198
f 7 198 197
f 7 197 196
f 7 196 195
f 7 195 194
f 7 194 201
f 7 201 190
f 7 190 160
f 7 160 122
f 7 122 121
f 7 121 120
f 7 120 159
f 7 159 157
f 7 157 116
f 7 116 78
f 7 78 41
f 7 41 18
f 7 18 8
f 8 18 19
f 8 19 20
f 8 20 9
f 9 20 21
f 9 21 22
f 9 22 23
f 9 23 10
f 10 24 12
f 10 12 25
f 10 25 11
f 10 23 22
f 10 22 26
f 10 26 24
f 11 25 12
f 12 27 28
f 12 28 29
f 12 29 30
f 12 30 16
f 12 16 15
f 12 15 14
f 12 14 13
f 12 24 31
f 12 31 32
f 12 32 27
f 16 30 33
f 16 33 34
f 16 34 35
f 16 35 36
f 16 36 17
f 17 36 37
f 17 37 38
f 17 38 39
f 17 39 40
f 18 41 42
f 18 42 43
f 18 43 19
f 19 43 44
f 19 44 22
f 19 22 21
f 19 21 20
f 22 44 45
f 22 45 46
f 22 46 47
f 22 47 48
f 22 48 49
f 22 49 50
f 22 50 31
f 22 31 26
f 24 26 31
f 27 32 51
f 27 51 52
f 27 52 28
f 28 52 53
f 28 53 29
f 29 53 30
f 30 53 54
f 30 54 55
f 30 55 33
f 31 50 56
f 31 56 57
f 31 57 58
f 31 58 32
f 32 58 59
f 32 59 60
f 32 60 51
f 33 55 34
f 34 55 61
f 34 61 62
f 34 62 63
f 34 63 35
f 35 63 39
f 35 39 38
f 35 38 37
f 35 37 36
f 39 63 64
f 39 64 40
f 40 64 66
f 40 66 67
f 40 67 68
f 40 68 69
f 40 69 70
f 40 70 71
f 40 71 72
f 40 72 73
f 40 73 74
f 40 74 75
f 40 75 76
f 40 76 77
f 40 77 65
f 41 78 79
f 41 79 43
f 41 43 42
f 43 79 80
f 43 80 81
f 43 81 44
f 44 81 45
f 45 81 82
f 45 82 83
f 45 83 84
f 45 84 46
f 46 84 85
f 46 85 47
f 47 85 86
f 47 86 87
f 47 87 48
f 48 87 49
f 49 88 50
f 49 87 89
f 49 89 88
f 50 88 56
f 51 90 91
f 51 91 92
f 51 92 52
f 51 60 93
f 51 93 90
f 52 92 61
f 52 61 94
f 52 94 95
f 52 95 53
f 53 95 96
f 53 96 55
f 53 55 54
f 55 96 94
f 55 94 61
f 56 88 89
f 56 89 58
f 56 58 57
f 58 89 59
f 59 89 87
f 59 87 97
f 59 97 98
f 59 98 99
f 59 99 100
f 59 100 101
f 59 101 102
f 59 102 60
f 60 102 93
f 61 92 62
f 62 92 103
f 62 103 104
f 62 104 69
f 62 69 63
f 63 69 68
f 63 68 67
f 63 67 66
f 63 66 64
f 65 77 106
f 65 106 105
f 69 104 107
f 69 107 70
f 70 107 104
f 70 104 108
f 70 108 71
f 71 108 109
f 71 109 110
f 71 110 111
f 71 111 112
f 71 112 72
f 72 112 111
f 72 111 113
f 72 113 73
f 73 113 74
f 74 113 75
f 75 113 111
f 75 111 114
f 75 114 115
f 75 115 76
f 76 115 106
f 76 106 77
f 78 116 117
f 78 117 79
f 79 117 118
f 79 118 80
f 80 82 81
f 80 118 119
f 80 119 120
f 80 120 121
f 80 121 122
f 80 122 123
f 80 123 82
f 82 123 83
f 83 123 124
f 83 124 125
f 83 125 126
f 83 126 127
f 83 127 84
f 84 127 128
f 84 128 129
f 84 129 85
f 85 129 130
f 85 130 86
f 86 130 131
f 86 131 87
f 87 131 132
f 87 132 97
f 90 109 108
f 90 108 92
f 90 92 91
f 90 93 133
f 90 133 134
f 90 134 135
f 90 135 109
f 92 108 103
f 93 102 133
f 94 96 95
f 97 132 136
f 97 136 98
f 98 137 138
f 98 138 139
f 98 139 140
f 98 140 99
f 98 136 141
f 98 141 137
f 99 140 100
f 100 140 142
f 100 142 101
f 101 142 143
f 101 143 144
f 101 144 102
f 102 144 143
f 102 143 145
f 102 145 146
f 102 146 134
f 102 134 133
f 103 108 104
f 105 106 147
f 106 115 148
f 106 148 149
f 106 149 150
f 106 150 151
f 106 151 147
f 109 135 152
f 109 152 153
f 109 153 110
f 110 153 111
f 111 153 154
f 111 154 114
f 114 154 155
f 114 155 156
f 114 156 115
f 115 156 148
f 116 157 117
f 117 157 158
f 117 158 118
f 118 158 159
f 118 159 119
f 119 159 120
f 122 160 161
f 122 161 162
f 122 162 123
f 123 162 163
f 123 163 124
f 124 163 125
f 125 163 126
f 126 163 164
f 126 164 165
f 126 165 127
f 127 165 128
f 128 130 129
f 128 165 130
f 130 165 131
f 131 165 164
f 131 164 166
f 131 166 132
f 132 166 136
f 134 146 167
f 134 167 168
f 134 168 169
f 134 169 135
f 135 170 152
f 135 169 170
f 136 171 141
f 136 166 172
f 136 172 173
f 136 173 174
f 136 174 175
f 136 175 171
f 137 141 171
f 137 171 175
f 137 175 138
f 138 175 176
f 138 176 177
f 138 177 139
f 139 177 140
f 140 177 178
f 140 178 179
f 140 179 180
f 140 180 142
f 142 180 143
f 143 180 178
f 143 178 177
f 143 177 145
f 145 177 150
f 145 150 149
f 145 149 146
f 146 149 148
f 146 148 168
f 146 168 167
f 147 151 181
f 148 182 168
f 148 156 183
f 148 183 182
f 150 177 176
f 150 176 175
f 150 175 184
f 150 184 151
f 151 184 185
f 151 185 181
f 152 170 186
f 152 186 153
f 153 186 154
f 154 187 188
f 154 188 155
f 154 186 170
f 154 170 169
f 154 169 189
f 154 189 187
f 155 188 156
f 156 188 183
f 157 159 158
f 160 190 161
f 161 191 172
f 161 172 166
f 161 166 162
f 161 190 191
f 162 166 163
f 163 166 164
f 168 182 188
f 168 188 192
f 168 192 169
f 169 192 193
f 169 193 188
f 169 188 189
f 172 191 194
f 172 194 195
f 172 195 196
f 172 196 197
f 172 197 198
f 172 198 185
f 172 185 173
f 173 185 199
f 173 199 174
f 174 184 175
f 174 199 184
f 178 180 179
f 182 183 188
f 184 199 200
f 184 200 185
f 185 200 199
f 187 189 188
f 188 193 192
f 190 201 191
f 191 201 194

