# https://github.com/mikedh/trimesh
v 0.01180019 0.01032824 0.00282693
v 0.01180019 0.01172173 0.00794700
v 0.01180019 0.01203429 -0.00210556
v 0.05282686 0.06344357 -0.01300915
v 0.05282686 0.06244729 -0.00867759
v 0.04365047 0.05747241 0.00439699
v 0.03935344 0.05513473 0.00795048
v 0.01180019 0.02041475 0.01433493
v 0.05282686 0.06417938 -0.00321711
v 0.05282686 0.06444636 -0.00267523
v 0.01180019 0.01606499 -0.00688174
v 0.05282686 0.06776077 -0.01425270
v 0.01180019 0.01980917 -0.01010871
v 0.01180019 0.02867800 -0.01290842
v 0.03512065 0.05671706 -0.01537119
v 0.05282686 0.06502589 -0.00215419
v 0.04463437 0.06102124 0.00585590
v 0.03685152 0.05570776 0.01079187
v 0.01180019 0.02682870 0.01722148
v 0.03869482 0.06509752 -0.01585055
v 0.05282686 0.06994868 -0.01419712
v 0.03244605 0.05893101 -0.01632990
v 0.01180019 0.03502684 -0.01472511
v 0.05282686 0.06780636 -0.00102875
v 0.04089153 0.06112543 0.00906550
v 0.03607243 0.05754403 0.01177490
v 0.03047021 0.05250404 0.01409873
v 0.02524951 0.04622683 0.01546385
v 0.01780801 0.03812637 0.01722843
v 0.01186043 0.03113940 0.01847197
v 0.01180019 0.03100916 0.01846503
v 0.02981160 0.06338496 -0.01638548
v 0.03751816 0.06866589 -0.01529478
v 0.05282686 0.07113379 -0.01384976
v 0.01180019 0.04110869 -0.01591307
v 0.02169141 0.05295985 -0.01651053
v 0.02200867 0.05703612 -0.01664600
v 0.05282686 0.06830775 -0.00116075
v 0.04288343 0.06695984 0.00669998
v 0.03878719 0.06646496 0.00946843
v 0.03373918 0.06141845 0.01248003
v 0.02298855 0.04635055 0.01667960
v 0.02751048 0.05815613 0.01483165
v 0.01180019 0.03494218 0.01883670
v 0.01180019 0.03108079 0.01847892
v 0.01196484 0.03520916 0.01882281
v 0.02899637 0.06576170 -0.01583318
v 0.01765942 0.05967333 -0.01580887
v 0.02857068 0.06849659 -0.01399218
v 0.03581942 0.07283332 -0.01173087
v 0.05282686 0.07362124 -0.01175172
v 0.01180019 0.04569288 -0.01639938
v 0.01180019 0.04678683 -0.01643411
v 0.01180019 0.05085659 -0.01630212
v 0.05282686 0.07307426 -0.00390488
v 0.04195575 0.07320449 0.00466446
v 0.03775108 0.07127705 0.00841246
v 0.03299623 0.06808635 0.01142406
v 0.02621334 0.06561845 0.01385210
v 0.01737429 0.04478125 0.01799262
v 0.02236608 0.05398869 0.01655803
v 0.01180019 0.03514404 0.01884017
v 0.01206122 0.04554311 0.01855534
v 0.01180019 0.04502218 0.01859355
v 0.02072357 0.06322217 -0.01524267
v 0.01180019 0.05220450 -0.01612496
v 0.01180019 0.05534310 -0.01547193
v 0.01180019 0.05877473 -0.01378724
v 0.01236643 0.05954961 -0.01364482
v 0.01803290 0.06450496 -0.01279727
v 0.02144644 0.06980542 -0.00908747
v 0.02922929 0.07320449 -0.00916737
v 0.03702018 0.07495612 -0.00903537
v 0.05282686 0.07372542 -0.01161625
v 0.05282686 0.07308728 -0.00392572
v 0.03905224 0.07538588 0.00403227
v 0.03463473 0.07491053 0.00722797
v 0.03181555 0.07230589 0.01019441
v 0.02178377 0.06684914 0.01406746
v 0.01820157 0.06065659 0.01608214
v 0.01687632 0.05378031 0.01747158
v 0.01180019 0.04547799 0.01856576
v 0.01180019 0.05467892 0.01748895
v 0.01180019 0.05129938 0.01788494
v 0.01180019 0.05919799 -0.01348851
v 0.01180019 0.06151612 -0.01121331
v 0.01180019 0.06334589 -0.00934105
v 0.01694057 0.07054124 -0.00471423
v 0.02473949 0.07460449 -0.00388404
v 0.03181153 0.07621286 -0.00558262
v 0.03888759 0.07618681 -0.00698248
v 0.05282686 0.07467612 -0.00949736
v 0.05282686 0.07465658 -0.00929242
v 0.04114855 0.07585472 -0.00054592
v 0.03359460 0.07685100 -0.00149421
v 0.03258259 0.07588728 0.00490067
v 0.02884377 0.07461100 0.00768996
v 0.02842611 0.07321100 0.00994779
v 0.02539409 0.07079519 0.01184784
v 0.02044246 0.06858124 0.01315044
v 0.01262345 0.06116449 0.01568963
v 0.01180019 0.05572078 0.01720759
v 0.01180019 0.05484171 0.01745769
v 0.01180019 0.06389938 -0.00867759
v 0.01730200 0.07188263 -0.00172694
v 0.01180019 0.06774775 -0.00370689
v 0.01180019 0.06793007 -0.00323100
v 0.02755465 0.07578309 -0.00119201
v 0.01969549 0.07307426 0.00156255
v 0.03954620 0.07633007 -0.00498864
v 0.02818917 0.07565937 0.00353902
v 0.02231388 0.07352356 0.00531055
v 0.02272752 0.07244914 0.00911413
v 0.01946659 0.06989659 0.01148659
v 0.01180019 0.06359984 0.01424809
v 0.01180019 0.06289007 0.01462671
v 0.01180019 0.06064356 0.01569658
v 0.01180019 0.05997938 0.01592236
v 0.01180019 0.06860078 -0.00101833
v 0.01180019 0.06885472 0.00120477
v 0.01315355 0.06975984 0.00196548
v 0.01676789 0.07037845 0.00790185
v 0.01286039 0.06741566 0.00963517
v 0.01180019 0.06424450 0.01335191
v 0.01180019 0.06365845 0.01418904
v 0.01180019 0.06873101 0.00304924
v 0.01180019 0.06810589 0.00564401
v 0.01180019 0.06733100 0.00796784
v 0.01180019 0.06675147 0.00955875
f 1 2 8
f 1 8 19
f 1 19 31
f 1 31 45
f 1 45 44
f 1 44 62
f 1 62 64
f 1 64 82
f 1 82 84
f 1 84 83
f 1 83 103
f 1 103 102
f 1 102 118
f 1 118 117
f 1 117 116
f 1 116 115
f 1 115 125
f 1 125 124
f 1 124 129
f 1 129 128
f 1 128 127
f 1 127 126
f 1 126 120
f 1 120 119
f 1 119 107
f 1 107 106
f 1 106 104
f 1 104 87
f 1 87 86
f 1 86 85
f 1 85 68
f 1 68 67
f 1 67 66
f 1 66 54
f 1 54 53
f 1 53 52
f 1 52 35
f 1 35 23
f 1 23 14
f 1 14 13
f 1 13 11
f 1 11 3
f 1 3 4
f 1 4 5
f 1 5 2
f 2 6 7
f 2 7 8
f 2 5 9
f 2 9 10
f 2 10 6
f 3 11 4
f 4 12 21
f 4 21 34
f 4 34 51
f 4 51 74
f 4 74 92
f 4 92 93
f 4 93 75
f 4 75 55
f 4 55 38
f 4 38 24
f 4 24 16
f 4 16 10
f 4 10 9
f 4 9 5
f 4 11 13
f 4 13 14
f 4 14 15
f 4 15 12
f 6 10 16
f 6 16 17
f 6 17 7
f 7 17 18
f 7 18 8
f 8 18 19
f 12 20 21
f 12 15 22
f 12 22 20
f 14 23 15
f 15 23 22
f 16 24 17
f 17 24 25
f 17 25 18
f 18 26 27
f 18 27 28
f 18 28 19
f 18 25 26
f 19 29 30
f 19 30 31
f 19 28 29
f 20 32 33
f 20 33 21
f 20 22 32
f 21 33 34
f 22 23 35
f 22 35 36
f 22 36 37
f 22 37 32
f 24 38 39
f 24 39 25
f 25 39 40
f 25 40 41
f 25 41 26
f 26 41 27
f 27 42 28
f 27 41 43
f 27 43 42
f 28 42 29
f 29 42 30
f 30 44 45
f 30 45 31
f 30 42 46
f 30 46 44
f 32 47 33
f 32 37 48
f 32 48 47
f 33 47 49
f 33 49 50
f 33 50 34
f 34 50 51
f 35 52 36
f 36 52 37
f 37 52 53
f 37 53 54
f 37 54 48
f 38 55 56
f 38 56 39
f 39 56 57
f 39 57 40
f 40 57 58
f 40 58 41
f 41 58 59
f 41 59 43
f 42 60 46
f 42 43 61
f 42 61 60
f 43 59 61
f 44 46 62
f 46 60 63
f 46 63 64
f 46 64 62
f 47 48 65
f 47 65 49
f 48 54 66
f 48 66 67
f 48 67 68
f 48 68 69
f 48 69 65
f 49 65 70
f 49 70 71
f 49 71 72
f 49 72 50
f 50 72 73
f 50 73 74
f 50 74 51
f 55 75 76
f 55 76 56
f 56 76 77
f 56 77 57
f 57 77 78
f 57 78 58
f 58 78 59
f 59 78 79
f 59 79 80
f 59 80 61
f 60 61 81
f 60 81 63
f 61 80 81
f 63 82 64
f 63 81 83
f 63 83 84
f 63 84 82
f 65 69 70
f 68 85 69
f 69 85 86
f 69 86 70
f 70 86 87
f 70 87 88
f 70 88 71
f 71 88 89
f 71 89 72
f 72 89 90
f 72 90 73
f 73 90 91
f 73 91 74
f 74 91 92
f 75 93 76
f 76 93 94
f 76 94 95
f 76 95 96
f 76 96 77
f 77 96 97
f 77 97 98
f 77 98 78
f 78 99 79
f 78 98 99
f 79 100 101
f 79 101 80
f 79 99 100
f 80 102 103
f 80 103 81
f 80 101 102
f 81 103 83
f 87 104 88
f 88 105 89
f 88 104 106
f 88 106 107
f 88 107 105
f 89 108 90
f 89 105 109
f 89 109 108
f 90 95 91
f 90 108 95
f 91 95 110
f 91 110 92
f 92 110 94
f 92 94 93
f 94 110 95
f 95 108 111
f 95 111 96
f 96 111 97
f 97 112 113
f 97 113 98
f 97 111 112
f 98 113 114
f 98 114 100
f 98 100 99
f 100 115 116
f 100 116 101
f 100 114 115
f 101 116 117
f 101 117 118
f 101 118 102
f 105 107 119
f 105 119 120
f 105 120 121
f 105 121 109
f 108 109 111
f 109 121 122
f 109 122 112
f 109 112 111
f 112 122 113
f 113 122 114
f 114 122 123
f 114 123 124
f 114 124 125
f 114 125 115
f 120 126 121
f 121 126 127
f 121 127 122
f 122 127 128
f 122 128 123
f 123 128 129
f 123 129 124

