# https://github.com/mikedh/trimesh
v -0.03394580 -0.01662770 0.00075622
v -0.03347115 -0.01662770 0.00425047
v -0.03319352 -0.01554828 0.00524480
v -0.03335472 -0.01249412 0.00104888
v -0.03203823 -0.00790870 -0.00127828
v -0.03321591 -0.01662770 -0.00184596
v -0.03334129 -0.01662770 0.00511787
v -0.03318008 -0.01662770 0.00564324
v -0.03141133 -0.01662770 0.01019176
v -0.03056948 -0.01248575 0.01094280
v -0.03163522 -0.00691296 0.00535763
v -0.02929329 0.00528695 0.00234997
v -0.03111131 -0.00218528 0.00029079
v -0.03011274 -0.01157369 -0.00660604
v -0.03113370 -0.01662770 -0.00630281
v -0.02824099 0.00766334 -0.00086221
v -0.02941419 -0.00091341 -0.00348202
v -0.03017543 -0.01662770 0.01240256
v -0.02732750 -0.00718072 0.01404567
v -0.02850966 -0.00113934 0.01030107
v -0.02927090 -0.01662770 0.01360492
v -0.02888580 0.00356323 0.00654589
v -0.02673195 0.01374656 0.00237817
v -0.02640953 -0.00340695 -0.00941273
v -0.02982616 -0.01662770 -0.00861233
v -0.02501244 0.01747013 -0.00089394
v -0.02529007 0.01048321 -0.00497704
v -0.02739019 -0.01662770 0.01560416
v -0.02735885 -0.01662770 0.01563589
v -0.02524977 -0.00673724 0.01596028
v -0.02339145 0.00201523 0.01591797
v -0.02379446 0.00766334 0.01361903
v -0.02443479 0.01349553 0.00983564
v -0.02418403 0.01832362 0.00657057
v -0.02412582 0.02064980 0.00302696
v -0.02164060 0.00781396 -0.01123919
v -0.02155104 0.00255076 -0.01324195
v -0.02656627 -0.01479520 -0.01265664
v -0.02753348 -0.01662770 -0.01187035
v -0.02074950 0.02890022 0.00113350
v -0.02166299 0.02570381 -0.00086926
v -0.02164060 0.02187983 -0.00407791
v -0.01956734 0.01967080 -0.00855592
v -0.02731855 -0.01662770 0.01565352
v -0.02313173 -0.00761583 0.01709565
v -0.02021215 0.00564676 0.01725784
v -0.01854638 0.01470883 0.01672895
v -0.02124207 0.01491802 0.01387642
v -0.01779410 0.02318517 0.01430307
v -0.01922702 0.02653220 0.01008246
v -0.01980467 0.03031434 0.00391198
v -0.01407746 0.02127737 -0.01397183
v -0.02286754 -0.00643601 -0.01424686
v -0.01675076 0.01048321 -0.01507194
v -0.02653044 -0.01662770 -0.01305508
v -0.01555068 0.03881578 0.00132743
v -0.01756573 0.03351911 -0.00174723
v -0.01620893 0.03145233 -0.00591495
v -0.01431927 0.02659914 -0.01127798
v -0.02360639 -0.01662770 0.01711681
v -0.01984944 -0.00858647 0.01813229
v -0.01704630 0.00355487 0.01842495
v -0.01502229 0.01464189 0.01818165
v -0.01158328 0.02721834 0.01771270
v -0.00830995 0.03848108 0.01635872
v -0.01336996 0.03268236 0.01452873
v -0.01513872 0.03677410 0.00804091
v -0.01148029 0.04559351 0.00260736
v -0.00941151 0.03007168 -0.01442669
v -0.00895477 0.02726855 -0.01557263
v -0.01855086 0.00240014 -0.01542102
v -0.02414373 -0.01662770 -0.01512483
v -0.01221019 0.01900139 -0.01565020
v -0.01023992 0.04725029 0.00051645
v -0.01423419 0.03798740 -0.00326341
v -0.01076831 0.03715901 -0.00907776
v -0.00591877 0.03847272 -0.01341473
v -0.02241527 -0.01662770 0.01748351
v -0.01423419 -0.00744848 0.01895032
v -0.01825532 -0.01662770 0.01831564
v -0.00890551 0.00917787 0.01950743
v -0.01007424 0.01888425 0.01902789
v -0.00816219 0.02981228 0.01831917
v -0.00583817 0.03884925 0.01746941
v 0.00045325 0.04863094 0.01694756
v -0.00350519 0.04768541 0.01523745
v -0.00818457 0.04407062 0.01269874
v -0.01002946 0.04580270 0.00719467
v -0.00569935 0.05220389 0.00579133
v -0.00518887 0.05379372 0.00127101
v -0.00018261 0.04522534 -0.01452542
v -0.00138716 0.04000398 -0.01568899
v -0.00404254 0.03177029 -0.01605569
v -0.02029723 -0.00819319 -0.01583708
v -0.02403626 -0.01662770 -0.01518125
v -0.01414463 0.00696046 -0.01604159
v -0.01028022 0.04377775 -0.00397566
v -0.00534560 0.05140897 -0.00310121
v -0.00384103 0.04626292 -0.01024839
v -0.01715376 -0.01662770 0.01847431
v -0.01222810 -0.01662770 0.01883749
v -0.01051307 -0.01662770 0.01889391
v -0.00785769 -0.00536496 0.01919361
v -0.00327682 0.01064219 0.01954621
v -0.00221109 0.02423112 0.01958500
v -0.00060353 0.03449812 0.01906315
v -0.00042441 0.04086584 0.01837558
v 0.00636853 0.05211185 0.01745178
v 0.00515502 0.05643787 0.01574167
v 0.00251755 0.05684788 0.01336163
v -0.00361266 0.05152611 0.01159511
v 0.00029205 0.05773485 0.00865443
v 0.00117419 0.06030369 0.00305164
v 0.00016667 0.05932468 -0.00031921
v 0.00433557 0.05451333 -0.01141197
v 0.00638644 0.05134203 -0.01516362
v 0.00978515 0.04963505 -0.01623552
v 0.00772980 0.04269834 -0.01635188
v -0.01869863 -0.01662770 -0.01625315
v -0.02163164 -0.01662770 -0.01604159
v -0.01993452 -0.01662770 -0.01617910
v 0.00023384 0.05518274 -0.00644385
v -0.00913836 -0.01662770 0.01873524
v 0.00320715 0.01728604 0.01925708
v 0.00530727 0.02457419 0.01940165
v 0.00565207 0.03278277 0.01944396
v 0.00678945 0.04419613 0.01871408
v 0.01164347 0.05470579 0.01749056
v 0.01179571 0.05997736 0.01592150
v 0.01179571 0.06064676 0.01569583
v 0.01179571 0.06288927 0.01462746
v 0.01153152 0.06344153 0.01428191
v 0.00577297 0.06126596 0.01168326
v 0.00840596 0.06462973 0.00931027
v 0.00517293 0.06380970 0.00399660
v 0.00857612 0.06667978 -0.00060481
v 0.00575954 0.06198557 -0.00499114
v 0.01129867 0.06324907 -0.00906366
v 0.01179571 0.06151699 -0.01121451
v 0.01179571 0.05919917 -0.01348877
v 0.01179571 0.05878079 -0.01378848
v 0.01179571 0.05534172 -0.01547391
v 0.01179571 0.05220389 -0.01612621
v 0.01179571 0.05085671 -0.01630251
v 0.01179571 0.04679008 -0.01643650
v -0.01397895 -0.01662770 -0.01581240
v 0.01179571 0.04569392 -0.01639772
v -0.00807711 -0.01662770 0.01858362
v -0.00770544 -0.01423458 0.01869997
v 0.01179571 0.03107579 0.01847784
v 0.01179571 0.03494160 0.01883749
v 0.01179571 0.03513406 0.01883749
v 0.01179571 0.04502452 0.01859067
v 0.01179571 0.04547636 0.01856246
v 0.01179571 0.05468069 0.01748704
v 0.01179571 0.05483967 0.01745530
v 0.01179571 0.05571826 0.01720496
v 0.01179571 0.05130019 0.01788547
v 0.01179571 0.06360051 0.01425018
v 0.01179571 0.06365908 0.01419024
v 0.01179571 0.06424481 0.01335105
v 0.01179571 0.06675508 0.00955709
v 0.00973141 0.06715673 0.00470533
v 0.01179571 0.06872983 0.00304811
v 0.01179571 0.06884697 0.00120755
v 0.01179571 0.06860431 -0.00102088
v 0.01078371 0.06719857 -0.00351023
v 0.01179571 0.06390174 -0.00867933
v 0.01179571 0.06334949 -0.00933869
v -0.00745468 -0.01662770 -0.01403883
v 0.01179571 0.04110013 -0.01591113
v -0.00492020 -0.01662770 0.01692993
v 0.01179571 0.03100048 0.01846726
v 0.01179571 0.06732407 0.00796687
v 0.01179571 0.06810226 0.00564324
v 0.01179571 0.06792654 -0.00323167
v 0.01179571 0.06775082 -0.00370768
v -0.00301263 -0.01662770 -0.01176456
v 0.01179571 0.03501691 -0.01472640
v -0.00457093 -0.01662770 0.01664080
v 0.01179571 0.02681670 0.01721906
v -0.00180360 -0.01662770 -0.01083370
v 0.01179571 0.02867430 -0.01291051
v 0.00066819 -0.01662770 -0.00892967
v -0.00042889 -0.01662770 0.01288562
v 0.01179571 0.02041551 0.01433480
v -0.00041098 -0.01662770 0.01286799
v 0.01179571 0.01981304 -0.01010735
v 0.00171601 -0.01662770 -0.00665188
v 0.00234292 -0.01662770 0.00908460
v 0.01179571 0.01172161 0.00794924
v 0.01179571 0.01606438 -0.00688107
v 0.00206081 -0.01662770 -0.00578801
v 0.00252651 -0.01662770 0.00859802
v 0.00360120 -0.01662770 0.00553393
v 0.01179571 0.01033260 0.00282950
v 0.01179571 0.01203958 -0.00210688
v 0.00318923 -0.01662770 -0.00150746
v 0.00384300 -0.01662770 0.00250864
f 1 2 3
f 1 3 4
f 1 4 5
f 1 5 6
f 1 6 15
f 1 15 25
f 1 25 39
f 1 39 55
f 1 55 72
f 1 72 95
f 1 95 120
f 1 120 121
f 1 121 119
f 1 119 146
f 1 146 170
f 1 170 178
f 1 178 182
f 1 182 184
f 1 184 189
f 1 189 193
f 1 193 198
f 1 198 199
f 1 199 195
f 1 195 194
f 1 194 190
f 1 190 187
f 1 187 185
f 1 185 180
f 1 180 172
f 1 172 148
f 1 148 123
f 1 123 102
f 1 102 101
f 1 101 100
f 1 100 80
f 1 80 78
f 1 78 60
f 1 60 44
f 1 44 29
f 1 29 28
f 1 28 21
f 1 21 18
f 1 18 9
f 1 9 8
f 1 8 7
f 1 7 2
f 2 7 3
f 3 7 8
f 3 8 9
f 3 9 10
f 3 10 11
f 3 11 4
f 4 11 12
f 4 12 13
f 4 13 5
f 5 14 15
f 5 15 6
f 5 13 16
f 5 16 17
f 5 17 14
f 9 18 10
f 10 19 20
f 10 20 11
f 10 18 21
f 10 21 19
f 11 20 22
f 11 22 12
f 12 22 23
f 12 23 16
f 12 16 13
f 14 17 24
f 14 24 25
f 14 25 15
f 16 23 26
f 16 26 27
f 16 27 17
f 17 27 24
f 19 21 28
f 19 28 29
f 19 29 30
f 19 30 31
f 19 31 32
f 19 32 20
f 20 32 33
f 20 33 22
f 22 33 34
f 22 34 23
f 23 34 35
f 23 35 26
f 24 27 36
f 24 36 37
f 24 37 38
f 24 38 39
f 24 39 25
f 26 35 40
f 26 40 41
f 26 41 42
f 26 42 27
f 27 42 43
f 27 43 36
f 29 44 45
f 29 45 30
f 30 45 46
f 30 46 31
f 31 46 47
f 31 47 48
f 31 48 32
f 32 48 33
f 33 48 49
f 33 49 50
f 33 50 34
f 34 50 51
f 34 51 35
f 35 51 40
f 36 43 52
f 36 52 37
f 37 53 38
f 37 52 54
f 37 54 53
f 38 55 39
f 38 53 55
f 40 51 56
f 40 56 57
f 40 57 41
f 41 57 58
f 41 58 42
f 42 58 43
f 43 58 59
f 43 59 52
f 44 60 45
f 45 61 62
f 45 62 46
f 45 60 61
f 46 62 63
f 46 63 47
f 47 63 64
f 47 64 65
f 47 65 66
f 47 66 49
f 47 49 48
f 49 66 50
f 50 66 67
f 50 67 51
f 51 67 68
f 51 68 56
f 52 59 69
f 52 69 70
f 52 70 54
f 53 54 71
f 53 71 72
f 53 72 55
f 54 70 73
f 54 73 71
f 56 68 74
f 56 74 57
f 57 74 75
f 57 75 58
f 58 75 76
f 58 76 59
f 59 76 77
f 59 77 69
f 60 78 61
f 61 79 62
f 61 78 80
f 61 80 79
f 62 81 82
f 62 82 63
f 62 79 81
f 63 82 64
f 64 82 83
f 64 83 84
f 64 84 65
f 65 84 85
f 65 85 86
f 65 86 87
f 65 87 66
f 66 87 67
f 67 87 88
f 67 88 68
f 68 88 89
f 68 89 90
f 68 90 74
f 69 77 91
f 69 91 92
f 69 92 70
f 70 92 93
f 70 93 73
f 71 94 95
f 71 95 72
f 71 73 94
f 73 93 96
f 73 96 94
f 74 97 75
f 74 90 98
f 74 98 97
f 75 97 76
f 76 97 99
f 76 99 77
f 77 99 91
f 79 80 100
f 79 100 101
f 79 101 81
f 81 101 102
f 81 102 103
f 81 103 104
f 81 104 105
f 81 105 82
f 82 105 106
f 82 106 83
f 83 106 107
f 83 107 84
f 84 107 85
f 85 108 109
f 85 109 86
f 85 107 108
f 86 109 110
f 86 110 111
f 86 111 87
f 87 111 88
f 88 111 89
f 89 111 112
f 89 112 113
f 89 113 90
f 90 113 114
f 90 114 98
f 91 99 115
f 91 115 116
f 91 116 92
f 92 116 117
f 92 117 93
f 93 117 118
f 93 118 119
f 93 119 96
f 94 96 120
f 94 120 95
f 96 119 121
f 96 121 120
f 97 98 99
f 98 114 122
f 98 122 99
f 99 122 115
f 102 123 124
f 102 124 104
f 102 104 103
f 104 124 125
f 104 125 126
f 104 126 105
f 105 126 106
f 106 126 127
f 106 127 107
f 107 127 108
f 108 127 128
f 108 128 129
f 108 129 130
f 108 130 109
f 109 130 131
f 109 131 132
f 109 132 110
f 110 132 133
f 110 133 112
f 110 112 111
f 112 133 134
f 112 134 135
f 112 135 113
f 113 135 136
f 113 136 114
f 114 136 137
f 114 137 122
f 115 122 137
f 115 137 138
f 115 138 139
f 115 139 140
f 115 140 141
f 115 141 116
f 116 141 142
f 116 142 143
f 116 143 117
f 117 143 144
f 117 144 145
f 117 145 118
f 118 145 119
f 119 145 147
f 119 147 146
f 123 148 149
f 123 149 124
f 124 150 151
f 124 151 125
f 124 149 148
f 124 148 150
f 125 151 126
f 126 151 152
f 126 152 153
f 126 153 154
f 126 154 127
f 127 154 128
f 128 155 156
f 128 156 157
f 128 157 129
f 128 154 158
f 128 158 155
f 129 157 156
f 129 156 155
f 129 155 158
f 129 158 154
f 129 154 153
f 129 153 152
f 129 152 151
f 129 151 150
f 129 150 173
f 129 173 181
f 129 181 186
f 129 186 191
f 129 191 196
f 129 196 197
f 129 197 192
f 129 192 188
f 129 188 183
f 129 183 179
f 129 179 171
f 129 171 147
f 129 147 145
f 129 145 144
f 129 144 143
f 129 143 142
f 129 142 141
f 129 141 140
f 129 140 139
f 129 139 169
f 129 169 168
f 129 168 177
f 129 177 176
f 129 176 166
f 129 166 165
f 129 165 164
f 129 164 175
f 129 175 174
f 129 174 162
f 129 162 161
f 129 161 160
f 129 160 159
f 129 159 131
f 129 131 130
f 131 159 132
f 132 159 160
f 132 160 161
f 132 161 133
f 133 161 134
f 134 161 162
f 134 162 163
f 134 163 135
f 135 163 136
f 136 163 164
f 136 164 165
f 136 165 166
f 136 166 167
f 136 167 137
f 137 167 138
f 138 167 168
f 138 168 169
f 138 169 139
f 146 147 171
f 146 171 170
f 148 172 173
f 148 173 150
f 162 174 163
f 163 174 175
f 163 175 164
f 166 176 167
f 167 176 177
f 167 177 168
f 170 171 179
f 170 179 178
f 172 180 181
f 172 181 173
f 178 179 182
f 179 183 184
f 179 184 182
f 180 185 181
f 181 185 187
f 181 187 186
f 183 188 184
f 184 188 189
f 186 187 190
f 186 190 191
f 188 192 193
f 188 193 189
f 190 194 191
f 191 194 195
f 191 195 196
f 192 197 198
f 192 198 193
f 195 199 196
f 196 199 197
f 197 199 198

