# https://github.com/mikedh/trimesh
v -0.03560000 -0.03091996 0.00036913
v -0.03491275 -0.02804827 0.00374511
v -0.03452666 -0.02073248 0.00046329
v -0.03400157 -0.02242074 -0.00221866
v -0.03501700 -0.03585232 -0.00241745
v -0.03531429 -0.04485636 -0.00005636
v -0.03492434 -0.04472395 0.00371721
v -0.03503630 -0.03702748 0.00436590
v -0.03308653 -0.02486209 0.00869051
v -0.03334135 -0.01662770 0.00511573
v -0.03346876 -0.01662770 0.00425081
v -0.03394366 -0.01662770 0.00075625
v -0.03321780 -0.01662770 -0.00184549
v -0.03266954 -0.02423314 -0.00584227
v -0.03279696 -0.03163995 -0.00724427
v -0.03430272 -0.04263018 -0.00414381
v -0.03354984 -0.04880391 -0.00531564
v -0.03449963 -0.05223008 -0.00114449
v -0.03401701 -0.05518453 0.00208153
v -0.03349578 -0.03991573 0.00872887
v -0.03294367 -0.05083975 0.00780815
v -0.03140316 -0.02874343 0.01226529
v -0.02989352 -0.01964836 0.01346502
v -0.03141088 -0.01662770 0.01019017
v -0.03317919 -0.01662770 0.00564585
v -0.03113289 -0.01662770 -0.00630263
v -0.02960781 -0.02056697 -0.01017734
v -0.02972750 -0.02861930 -0.01151657
v -0.02950743 -0.03595991 -0.01239893
v -0.03234522 -0.04205915 -0.00826265
v -0.03107497 -0.05161767 -0.00937170
v -0.03112517 -0.05923966 -0.00778485
v -0.03352667 -0.05743554 -0.00274878
v -0.03214446 -0.06750716 0.00024357
v -0.03200932 -0.06004241 0.00642707
v -0.03131049 -0.03655576 0.01278145
v -0.03128733 -0.04597359 0.01195140
v -0.02984719 -0.06422995 0.00907066
v -0.02985878 -0.05736106 0.01125737
v -0.02923716 -0.02794068 0.01491934
v -0.02739164 -0.01678494 0.01563081
v -0.02927192 -0.01662770 0.01360452
v -0.03017537 -0.01662770 0.01240130
v -0.02982789 -0.01662770 -0.00861490
v -0.02640709 -0.02281798 -0.01439383
v -0.02753063 -0.01662770 -0.01187230
v -0.02653064 -0.01662770 -0.01305460
v -0.02745727 -0.04118192 -0.01443219
v -0.02937616 -0.04795150 -0.01213736
v -0.02637621 -0.03051445 -0.01507042
v -0.02763487 -0.06607545 -0.01134917
v -0.03133365 -0.06739129 -0.00477855
v -0.03075838 -0.07285331 -0.00193268
v -0.02863486 -0.07867945 0.00072486
v -0.03054603 -0.07122298 0.00346959
v -0.02978156 -0.04024676 0.01407534
v -0.02865802 -0.07056092 0.00802787
v -0.02802483 -0.05365351 0.01324879
v -0.02636462 -0.06448650 0.01186073
v -0.02640323 -0.03173926 0.01612953
v -0.02360405 -0.01662770 0.01711652
v -0.02731828 -0.01662770 0.01565522
v -0.02735688 -0.01662770 0.01563429
v -0.02738777 -0.01662770 0.01560639
v -0.02383957 -0.02108007 0.01712698
v -0.02414458 -0.01662770 -0.01512622
v -0.02418705 -0.01697528 -0.01515761
v -0.02469283 -0.04315983 -0.01621086
v -0.02509823 -0.05142733 -0.01572609
v -0.02740707 -0.05655831 -0.01321154
v -0.02444573 -0.02931446 -0.01602253
v -0.02407508 -0.06932783 -0.01394393
v -0.02468125 -0.07747946 -0.01080510
v -0.02796691 -0.07602293 -0.00723381
v -0.02430674 -0.06209480 -0.01511925
v -0.02743796 -0.08102977 -0.00492503
v -0.02689743 -0.08297458 -0.00230236
v -0.02280869 -0.09082829 -0.00102591
v -0.02527584 -0.08482008 0.00174672
v -0.02731055 -0.07854704 0.00470071
v -0.02581637 -0.04316811 0.01563778
v -0.02660400 -0.07620499 0.00767213
v -0.02488588 -0.07454156 0.00984839
v -0.02302104 -0.05266042 0.01508326
v -0.02212917 -0.07496363 0.01093652
v -0.02148439 -0.06390719 0.01348594
v -0.02204423 -0.04389638 0.01651317
v -0.02002109 -0.03743299 0.01733972
v -0.02241874 -0.01662770 0.01748620
v -0.01932226 -0.02946342 0.01779311
v -0.01783194 -0.01876285 0.01836159
v -0.02403647 -0.01662770 -0.01518202
v -0.02163111 -0.01662770 -0.01603997
v -0.02225658 -0.02060007 -0.01613762
v -0.02191682 -0.04599014 -0.01673400
v -0.02228747 -0.05928104 -0.01636780
v -0.02110215 -0.06930300 -0.01573655
v -0.02120254 -0.07602293 -0.01420550
v -0.01960025 -0.08677316 -0.01156888
v -0.02283186 -0.08733591 -0.00805688
v -0.02030294 -0.09436204 -0.00649096
v -0.02336467 -0.08990968 -0.00457627
v -0.01967361 -0.09664615 -0.00340095
v -0.01855779 -0.09769718 -0.00095616
v -0.01944581 -0.09516479 0.00179555
v -0.02241488 -0.08675661 0.00513666
v -0.02114463 -0.08408353 0.00766516
v -0.01632231 -0.06771405 0.01373356
v -0.01665049 -0.05559832 0.01558896
v -0.01704817 -0.07517052 0.01206649
v -0.01687828 -0.08420767 0.00915436
v -0.01528371 -0.04124813 0.01738855
v -0.01269302 -0.02971170 0.01826393
v -0.01825278 -0.01662770 0.01831276
v -0.01140733 -0.02041800 0.01879056
v -0.01223357 -0.01662770 0.01883939
v -0.01715241 -0.01662770 0.01847319
v -0.01993615 -0.01662770 -0.01617947
v -0.02014850 -0.03370890 -0.01658054
v -0.01865046 -0.05923138 -0.01662240
v -0.01820645 -0.06734164 -0.01624574
v -0.01736090 -0.07744636 -0.01518900
v -0.01722191 -0.08299941 -0.01400322
v -0.01499028 -0.09277310 -0.01221060
v -0.01619104 -0.09607513 -0.00979370
v -0.01596324 -0.09904613 -0.00745353
v -0.01787441 -0.09871510 -0.00469485
v -0.01527599 -0.10091646 -0.00176528
v -0.01545746 -0.09882268 0.00184089
v -0.01821031 -0.09373308 0.00442868
v -0.01506364 -0.09322826 0.00593532
v -0.01152316 -0.07371399 0.01283376
v -0.01189767 -0.06530580 0.01428809
v -0.01249611 -0.05321489 0.01589238
v -0.01233009 -0.08095529 0.01095395
v -0.01136099 -0.03537233 0.01775126
v -0.00913709 -0.01662770 0.01873476
v -0.01051159 -0.01662770 0.01889519
v -0.01870065 -0.01662770 -0.01625271
v -0.01577792 -0.05065768 -0.01638524
v -0.01154632 -0.06336927 -0.01571213
v -0.01359262 -0.07325882 -0.01540174
v -0.01300962 -0.08640075 -0.01375909
v -0.01060811 -0.09371653 -0.01219665
v -0.01035329 -0.09815235 -0.01093065
v -0.01318722 -0.09915372 -0.00935775
v -0.01427215 -0.10092473 -0.00499129
v -0.01112162 -0.10116473 -0.00118982
v -0.01244978 -0.10005577 0.00164907
v -0.01267758 -0.09594271 0.00486114
v -0.01016024 -0.09317861 0.00646892
v -0.00898265 -0.07065195 0.01241176
v -0.01019113 -0.08834556 0.00830339
v -0.00800970 -0.07931668 0.01020063
v -0.01045367 -0.04364810 0.01654456
v -0.00978573 -0.02767586 0.01804771
v -0.00807533 -0.01662770 0.01858479
v -0.01398258 -0.01662770 -0.01580979
v -0.00745758 -0.01662770 -0.01404158
v -0.00647304 -0.06304652 -0.01411831
v -0.00805989 -0.07146297 -0.01443568
v -0.00944597 -0.08327251 -0.01349403
v -0.00660817 -0.09554548 -0.01040403
v -0.00549622 -0.08792349 -0.01135265
v -0.00763518 -0.09851648 -0.00896714
v -0.01078958 -0.10048611 -0.00637935
v -0.00620277 -0.09943509 -0.00423798
v -0.00680894 -0.09961716 0.00020870
v -0.00831857 -0.09821855 0.00316966
v -0.00605220 -0.09041450 0.00580279
v -0.00455029 -0.07767808 0.00825456
v -0.00589004 -0.06521477 0.01104114
v -0.00491708 -0.01662770 0.01692819
v -0.00301364 -0.01662770 -0.01176419
v -0.00348081 -0.06427133 -0.01244775
v -0.00460821 -0.07398709 -0.01275815
v -0.00333409 -0.09620754 -0.00649096
v -0.00304838 -0.09140759 -0.00904387
v -0.00317579 -0.09729167 -0.00234073
v -0.00451168 -0.09639788 0.00131775
v -0.00386690 -0.09171379 0.00348354
v -0.00214492 -0.08203114 0.00474256
v -0.00274337 -0.07242297 0.00756751
v -0.00456960 -0.01662770 0.01664221
v -0.00180516 -0.01662770 -0.01083649
v -0.00194029 -0.07386295 -0.01077720
v 0.00066971 -0.01662770 -0.00893227
v -0.00142293 -0.08913175 -0.00667929
v -0.00143065 -0.09166414 -0.00256045
v -0.00183605 -0.08232079 -0.00929846
v -0.00169319 -0.08967796 0.00135960
v -0.00045383 -0.08167528 0.00206758
v -0.00127621 -0.07191815 0.00580279
v -0.00041136 -0.01662770 0.01286864
v -0.00080518 -0.06983265 -0.00890437
v 0.00171602 -0.01662770 -0.00665139
v -0.00017584 -0.07836497 -0.00593992
v -0.00004843 -0.08276769 -0.00188385
v 0.00037627 -0.07589052 0.00162466
v 0.00234149 -0.01662770 0.00908461
v 0.00205965 -0.01662770 -0.00578646
v 0.00069287 -0.07195125 -0.00172691
v 0.00319090 -0.01662770 -0.00150719
v 0.00384340 -0.01662770 0.00251051
v 0.00360016 -0.01662770 0.00553424
v 0.00252682 -0.01662770 0.00859983
f 1 2 3
f 1 3 4
f 1 4 5
f 1 5 6
f 1 6 7
f 1 7 8
f 1 8 2
f 2 9 10
f 2 10 3
f 2 8 9
f 3 10 11
f 3 11 12
f 3 12 13
f 3 13 4
f 4 14 15
f 4 15 5
f 4 13 14
f 5 16 6
f 5 15 16
f 6 16 17
f 6 17 18
f 6 18 19
f 6 19 7
f 7 20 8
f 7 19 21
f 7 21 20
f 8 20 9
f 9 20 22
f 9 22 23
f 9 23 24
f 9 24 25
f 9 25 10
f 10 25 24
f 10 24 43
f 10 43 42
f 10 42 64
f 10 64 63
f 10 63 62
f 10 62 61
f 10 61 89
f 10 89 114
f 10 114 117
f 10 117 116
f 10 116 138
f 10 138 137
f 10 137 157
f 10 157 173
f 10 173 184
f 10 184 194
f 10 194 200
f 10 200 206
f 10 206 205
f 10 205 204
f 10 204 203
f 10 203 201
f 10 201 196
f 10 196 187
f 10 187 185
f 10 185 174
f 10 174 159
f 10 159 158
f 10 158 139
f 10 139 118
f 10 118 93
f 10 93 92
f 10 92 66
f 10 66 47
f 10 47 46
f 10 46 44
f 10 44 26
f 10 26 13
f 10 13 12
f 10 12 11
f 13 26 14
f 14 26 27
f 14 27 15
f 15 27 28
f 15 28 29
f 15 29 30
f 15 30 16
f 16 30 17
f 17 31 32
f 17 32 33
f 17 33 18
f 17 30 31
f 18 33 34
f 18 34 19
f 19 35 21
f 19 34 35
f 20 36 22
f 20 21 37
f 20 37 36
f 21 35 38
f 21 38 39
f 21 39 37
f 22 40 23
f 22 36 40
f 23 41 42
f 23 42 43
f 23 43 24
f 23 40 41
f 26 44 27
f 27 45 28
f 27 44 46
f 27 46 47
f 27 47 45
f 28 45 29
f 29 48 49
f 29 49 30
f 29 45 50
f 29 50 48
f 30 49 31
f 31 51 32
f 31 49 51
f 32 51 52
f 32 52 33
f 33 52 34
f 34 52 53
f 34 53 54
f 34 54 55
f 34 55 35
f 35 55 38
f 36 37 56
f 36 56 40
f 37 39 56
f 38 55 57
f 38 57 39
f 39 58 56
f 39 57 59
f 39 59 58
f 40 56 60
f 40 60 41
f 41 61 62
f 41 62 63
f 41 63 64
f 41 64 42
f 41 60 65
f 41 65 61
f 45 47 66
f 45 66 67
f 45 67 50
f 48 50 68
f 48 68 69
f 48 69 49
f 49 69 70
f 49 70 51
f 50 67 71
f 50 71 68
f 51 72 73
f 51 73 74
f 51 74 52
f 51 70 75
f 51 75 72
f 52 74 76
f 52 76 53
f 53 76 77
f 53 77 54
f 54 77 78
f 54 78 79
f 54 79 80
f 54 80 55
f 55 80 57
f 56 58 81
f 56 81 60
f 57 80 82
f 57 82 83
f 57 83 59
f 58 59 84
f 58 84 81
f 59 83 85
f 59 85 86
f 59 86 84
f 60 81 87
f 60 87 88
f 60 88 65
f 61 65 89
f 65 88 90
f 65 90 91
f 65 91 89
f 66 92 67
f 67 92 93
f 67 93 94
f 67 94 71
f 68 71 95
f 68 95 96
f 68 96 69
f 69 96 75
f 69 75 70
f 71 94 95
f 72 75 97
f 72 97 98
f 72 98 73
f 73 99 100
f 73 100 74
f 73 98 99
f 74 100 76
f 75 96 97
f 76 100 101
f 76 101 102
f 76 102 77
f 77 102 78
f 78 102 103
f 78 103 104
f 78 104 105
f 78 105 79
f 79 105 80
f 80 105 106
f 80 106 82
f 81 84 87
f 82 106 107
f 82 107 83
f 83 107 85
f 84 86 108
f 84 108 109
f 84 109 87
f 85 110 86
f 85 107 111
f 85 111 110
f 86 110 108
f 87 112 88
f 87 109 112
f 88 112 113
f 88 113 90
f 89 91 114
f 90 113 115
f 90 115 91
f 91 116 117
f 91 117 114
f 91 115 116
f 93 118 94
f 94 119 95
f 94 118 119
f 95 119 120
f 95 120 96
f 96 120 121
f 96 121 97
f 97 121 122
f 97 122 123
f 97 123 98
f 98 123 124
f 98 124 99
f 99 124 125
f 99 125 100
f 100 125 101
f 101 125 126
f 101 126 127
f 101 127 103
f 101 103 102
f 103 127 104
f 104 127 128
f 104 128 129
f 104 129 105
f 105 129 130
f 105 130 106
f 106 130 107
f 107 130 131
f 107 131 111
f 108 110 132
f 108 132 133
f 108 133 109
f 109 134 112
f 109 133 134
f 110 111 135
f 110 135 132
f 111 131 135
f 112 136 113
f 112 134 136
f 113 136 115
f 115 136 137
f 115 137 138
f 115 138 116
f 118 139 119
f 119 139 140
f 119 140 120
f 120 141 121
f 120 140 141
f 121 142 122
f 121 141 142
f 122 143 124
f 122 124 123
f 122 142 143
f 124 144 145
f 124 145 146
f 124 146 125
f 124 143 144
f 125 146 126
f 126 146 147
f 126 147 127
f 127 147 128
f 128 147 148
f 128 148 149
f 128 149 129
f 129 149 150
f 129 150 131
f 129 131 130
f 131 150 151
f 131 151 135
f 132 152 133
f 132 135 153
f 132 153 154
f 132 154 152
f 133 152 155
f 133 155 134
f 134 155 136
f 135 151 153
f 136 155 156
f 136 156 157
f 136 157 137
f 139 158 140
f 140 158 141
f 141 158 159
f 141 159 160
f 141 160 161
f 141 161 142
f 142 161 162
f 142 162 143
f 143 162 144
f 144 163 145
f 144 162 164
f 144 164 163
f 145 165 166
f 145 166 146
f 145 163 165
f 146 166 147
f 147 166 148
f 148 166 167
f 148 167 168
f 148 168 149
f 149 168 169
f 149 169 150
f 150 169 151
f 151 169 170
f 151 170 153
f 152 154 171
f 152 171 172
f 152 172 173
f 152 173 155
f 153 170 154
f 154 170 171
f 155 173 157
f 155 157 156
f 159 174 160
f 160 175 176
f 160 176 161
f 160 174 175
f 161 176 164
f 161 164 162
f 163 177 165
f 163 164 178
f 163 178 177
f 164 176 178
f 165 167 166
f 165 177 167
f 167 177 179
f 167 179 168
f 168 179 180
f 168 180 169
f 169 180 181
f 169 181 170
f 170 181 171
f 171 181 182
f 171 182 183
f 171 183 172
f 172 183 173
f 173 183 184
f 174 185 175
f 175 186 176
f 175 185 187
f 175 187 186
f 176 186 178
f 177 178 188
f 177 188 189
f 177 189 179
f 178 186 190
f 178 190 188
f 179 189 191
f 179 191 180
f 180 191 181
f 181 191 182
f 182 191 192
f 182 192 193
f 182 193 183
f 183 193 194
f 183 194 184
f 186 195 190
f 186 187 195
f 187 196 195
f 188 190 197
f 188 197 198
f 188 198 189
f 189 198 192
f 189 192 191
f 190 195 197
f 192 198 199
f 192 199 193
f 193 199 200
f 193 200 194
f 195 196 201
f 195 201 197
f 197 202 198
f 197 201 203
f 197 203 204
f 197 204 202
f 198 202 199
f 199 202 204
f 199 204 205
f 199 205 206
f 199 206 200

