# https://github.com/mikedh/trimesh
v 0.07171646 -0.00936523 -0.01240029
v 0.06660932 -0.00928534 -0.01240029
v 0.07001350 -0.00925949 -0.01347974
v 0.07171646 -0.00917961 -0.01338831
v 0.07261583 -0.00902923 -0.01329983
v 0.07270387 -0.00915846 -0.01240029
v 0.07273754 -0.00915376 -0.01069852
v 0.06576691 -0.00892350 0.00220774
v 0.06575310 -0.00892350 0.00220774
v 0.06554249 -0.00908092 -0.01240029
v 0.06561500 -0.00902453 -0.01337357
v 0.06660932 -0.00913261 -0.01347384
v 0.06831141 -0.00921485 -0.01350628
v 0.06573756 -0.00893759 0.00121971
v 0.06570994 -0.00895874 -0.00048205
v 0.06568319 -0.00897989 -0.00218381
v 0.06563054 -0.00901983 -0.00559029
v 0.06560378 -0.00903863 -0.00729205
v 0.06555372 -0.00907387 -0.01069852
v 0.06831141 -0.00807058 -0.01381301
v 0.07001350 -0.00807058 -0.01373928
v 0.07171646 -0.00807058 -0.01357117
v 0.07266762 -0.00807058 -0.01334702
v 0.07336330 -0.00125897 -0.01240029
v 0.07288772 -0.00807058 -0.01240029
v 0.07298267 -0.00807058 -0.01069852
v 0.07310609 -0.00636709 0.01143324
v 0.07281263 -0.00746672 0.01143324
v 0.07273667 -0.00738918 0.01257168
v 0.06757689 -0.00736803 0.01576875
v 0.06651956 -0.00752311 0.01492524
v 0.06564262 -0.00760065 0.01313795
v 0.06514805 -0.00807058 -0.01069852
v 0.06514200 -0.00807058 -0.01240029
v 0.06545791 -0.00807058 -0.01352103
v 0.06660932 -0.00807058 -0.01381301
v 0.06660932 -0.00636709 -0.01394868
v 0.06831141 -0.00636709 -0.01389855
v 0.07001350 -0.00125897 -0.01401357
v 0.07171646 0.00044452 -0.01398703
v 0.07171646 -0.00125897 -0.01391329
v 0.07292311 -0.00125897 -0.01355053
v 0.07342372 0.00044452 -0.01240029
v 0.07345135 -0.00125897 -0.01069852
v 0.07314062 -0.00636709 -0.00729205
v 0.07342718 -0.00296246 0.00292148
v 0.07370942 0.00044452 0.01313795
v 0.07284629 -0.00636709 0.01274864
v 0.07328476 -0.00466360 -0.00218381
v 0.07274617 -0.00068800 0.01580414
v 0.06918835 -0.00554941 0.01570977
v 0.07171387 -0.00125662 0.01587198
v 0.06821129 -0.00621671 0.01580120
v 0.06831141 -0.00466360 0.01587493
v 0.06690537 -0.00636709 0.01581299
v 0.06702707 -0.00736803 0.01576875
v 0.06568750 -0.00745027 0.01441501
v 0.06556753 -0.00636709 0.01313795
v 0.06552178 -0.00636709 0.01143324
v 0.06498232 -0.00636709 -0.01069852
v 0.06498664 -0.00636709 -0.01240029
v 0.06538454 -0.00636709 -0.01360066
v 0.06660932 -0.00466360 -0.01397228
v 0.06831141 0.00044452 -0.01408730
v 0.06831141 -0.00125897 -0.01405781
v 0.06831141 -0.00296246 -0.01401357
v 0.06831141 -0.00466360 -0.01396343
v 0.07001350 0.00044452 -0.01407255
v 0.07171646 0.00384680 -0.01411090
v 0.07295936 0.00044452 -0.01359181
v 0.07357132 0.00555029 -0.01240029
v 0.07350227 0.00044452 -0.01069852
v 0.07378624 0.00725143 -0.00559029
v 0.07372927 0.00214566 0.01143324
v 0.07371805 0.00384680 0.01143324
v 0.07364555 0.00214566 0.01313795
v 0.07313371 0.00059255 0.01500193
v 0.07379228 0.00725143 -0.00388557
v 0.07379487 0.00725143 -0.00218381
v 0.07274617 0.00012262 0.01580414
v 0.07001350 -0.00125897 0.01593391
v 0.06831141 -0.00125897 0.01585428
v 0.06715309 -0.00011704 0.01577465
v 0.06605433 -0.00636709 0.01531161
v 0.06567542 -0.00636709 0.01446220
v 0.06575396 -0.00038255 0.01401980
v 0.06578072 0.01463400 -0.00388557
v 0.06575224 0.01463400 -0.00559029
v 0.06568923 0.01463400 -0.01050387
v 0.06568923 0.01463400 -0.01069852
v 0.06569009 0.01463400 -0.01216434
v 0.06569182 0.01463400 -0.01240029
v 0.06575569 0.01463400 -0.01324969
v 0.06550279 0.00044452 -0.01353578
v 0.06546999 -0.00125897 -0.01355937
v 0.06543892 -0.00296246 -0.01357707
v 0.06541044 -0.00466360 -0.01359181
v 0.06660932 -0.00125897 -0.01396638
v 0.06660932 -0.00296246 -0.01397523
v 0.06831141 0.01065606 -0.01412270
v 0.06831141 0.00555029 -0.01410795
v 0.06831141 0.00384680 -0.01410205
v 0.06831141 0.00214566 -0.01409615
v 0.07001350 0.00555029 -0.01416988
v 0.07001350 0.00384680 -0.01414629
v 0.07171646 0.00555029 -0.01416398
v 0.07305517 0.00555029 -0.01368914
v 0.07308797 0.00725143 -0.01371569
v 0.07361448 0.00725143 -0.01240029
v 0.07375689 0.00725143 -0.00729205
v 0.07377329 0.00895492 -0.00729205
v 0.07379832 0.00895492 -0.00559029
v 0.07374653 0.00384680 0.00802971
v 0.07373359 0.00384680 0.00973148
v 0.07360412 0.01235955 0.00802971
v 0.07363174 0.00895492 0.00973148
v 0.07371460 0.00555029 0.00973148
v 0.07369216 0.00895492 0.00802971
v 0.07366971 0.01235955 0.00632500
v 0.07363951 0.01463400 0.00575283
v 0.07363519 0.01406304 0.00632500
v 0.07315960 0.01463400 0.01143324
v 0.07296885 0.01463400 0.01233279
v 0.07287219 0.01463400 0.01278698
v 0.07379918 0.00895492 -0.00388557
v 0.07378796 0.00725143 -0.00048205
v 0.07182003 0.00059255 0.01582479
v 0.07218168 0.01463400 0.01335325
v 0.07183125 0.01463400 0.01363934
v 0.07098021 0.01463400 0.01402275
v 0.07245702 0.00125750 0.01568027
v 0.06831141 0.00013437 0.01581004
v 0.07025086 0.01463400 0.01406109
v 0.06904162 0.01361661 0.01409648
v 0.06711684 0.00725143 0.01436487
v 0.06692954 0.00555029 0.01451824
v 0.06637369 0.00555029 0.01313795
v 0.06593177 0.01463400 -0.00215137
v 0.06615187 0.01463400 -0.01353873
v 0.06556925 0.00384680 -0.01347974
v 0.06553559 0.00214566 -0.01350923
v 0.06649798 0.01463400 -0.01367440
v 0.06660932 0.00044452 -0.01394574
v 0.06773830 0.01463400 -0.01401947
v 0.06831141 0.01235955 -0.01412564
v 0.07001350 0.00725143 -0.01417283
v 0.07171646 0.00895492 -0.01419643
v 0.07171646 0.00725143 -0.01419053
v 0.07310868 0.00895492 -0.01372454
v 0.07364296 0.00895492 -0.01240029
v 0.07364382 0.01065606 -0.01240029
v 0.07373273 0.01065606 -0.00729205
v 0.07368870 0.01406304 -0.00388557
v 0.07369129 0.01463400 -0.00218381
v 0.07369906 0.01463400 -0.00105422
v 0.07370165 0.01463400 -0.00048205
v 0.07371201 0.01406304 -0.00048205
v 0.07374567 0.00555029 0.00632500
v 0.07373013 0.00555029 0.00802971
v 0.07360930 0.01463400 0.00632500
v 0.07368180 0.01406304 0.00292148
v 0.07366626 0.01406304 0.00462324
v 0.07365936 0.01463400 0.00462324
v 0.07376552 0.01065606 -0.00218381
v 0.07378451 0.00895492 -0.00218381
v 0.07034494 0.01463400 0.01406109
v 0.07132201 0.00144312 0.01572451
v 0.07053311 0.00144312 0.01572451
v 0.06998502 0.00053146 0.01580120
v 0.06980722 0.01463400 0.01313795
v 0.06731277 0.00856958 0.01417317
v 0.06624249 0.01463400 -0.00048205
v 0.06832436 0.01463400 -0.01398997
v 0.06831141 0.01406304 -0.01410795
v 0.07001350 0.01235955 -0.01416104
v 0.07001350 0.01065606 -0.01417578
v 0.07171646 0.01065606 -0.01418463
v 0.07310523 0.01065606 -0.01371569
v 0.07291793 0.01187083 -0.01355347
v 0.07302323 0.01240654 -0.01227936
v 0.07337539 0.01463400 -0.00726256
v 0.07355578 0.01406304 -0.00729205
v 0.07364986 0.01406304 -0.00559029
v 0.07367144 0.01463400 -0.00388557
v 0.07369043 0.01463400 0.00121971
v 0.07372323 0.00895492 0.00462324
v 0.06952929 0.01463400 -0.01376288
v 0.07005925 0.01411003 -0.01377467
v 0.07176479 0.01240654 -0.01379532
v 0.07123051 0.01357197 -0.01354168
v 0.07236553 0.01300570 -0.01276600
v 0.07300252 0.01463400 -0.00877556
v 0.07357823 0.01463400 -0.00559029
v 0.06981498 0.01463400 -0.01366260
f 1 2 3
f 1 3 4
f 1 4 5
f 1 5 6
f 1 6 7
f 1 7 8
f 1 8 9
f 1 9 2
f 2 10 11
f 2 11 12
f 2 12 13
f 2 13 3
f 2 9 14
f 2 14 15
f 2 15 16
f 2 16 17
f 2 17 18
f 2 18 19
f 2 19 10
f 3 13 20
f 3 20 21
f 3 21 4
f 4 21 22
f 4 22 5
f 5 22 23
f 5 23 24
f 5 24 25
f 5 25 6
f 6 25 26
f 6 26 7
f 7 26 27
f 7 27 28
f 7 28 29
f 7 29 8
f 8 29 30
f 8 30 31
f 8 31 9
f 9 31 32
f 9 32 33
f 9 33 14
f 10 34 11
f 10 19 33
f 10 33 34
f 11 34 35
f 11 35 36
f 11 36 12
f 12 36 13
f 13 36 20
f 14 33 15
f 15 33 16
f 16 33 17
f 17 33 18
f 18 33 19
f 20 36 37
f 20 37 38
f 20 38 21
f 21 38 39
f 21 39 40
f 21 40 41
f 21 41 22
f 22 41 23
f 23 41 40
f 23 40 42
f 23 42 24
f 24 42 43
f 24 43 44
f 24 44 26
f 24 26 25
f 26 44 45
f 26 45 27
f 27 46 47
f 27 47 48
f 27 48 29
f 27 29 28
f 27 45 49
f 27 49 46
f 29 48 50
f 29 50 51
f 29 51 30
f 30 51 50
f 30 50 52
f 30 52 53
f 30 53 54
f 30 54 55
f 30 55 56
f 30 56 31
f 31 56 57
f 31 57 32
f 32 57 58
f 32 58 59
f 32 59 60
f 32 60 33
f 33 60 34
f 34 61 35
f 34 60 61
f 35 62 37
f 35 37 36
f 35 61 62
f 37 63 64
f 37 64 65
f 37 65 66
f 37 66 67
f 37 67 38
f 37 62 63
f 38 67 39
f 39 68 69
f 39 69 40
f 39 67 68
f 40 69 42
f 42 69 70
f 42 70 43
f 43 70 71
f 43 71 72
f 43 72 44
f 44 49 45
f 44 72 73
f 44 73 47
f 44 47 46
f 44 46 49
f 47 74 75
f 47 75 76
f 47 76 77
f 47 77 50
f 47 50 48
f 47 73 78
f 47 78 79
f 47 79 74
f 50 77 80
f 50 80 52
f 52 80 81
f 52 81 54
f 52 54 53
f 54 81 82
f 54 82 55
f 55 82 83
f 55 83 84
f 55 84 56
f 56 84 57
f 57 84 85
f 57 85 58
f 58 85 86
f 58 86 59
f 59 86 60
f 60 87 88
f 60 88 89
f 60 89 90
f 60 90 91
f 60 91 61
f 60 86 87
f 61 91 92
f 61 92 93
f 61 93 94
f 61 94 95
f 61 95 96
f 61 96 97
f 61 97 62
f 62 97 98
f 62 98 99
f 62 99 63
f 63 99 100
f 63 100 101
f 63 101 102
f 63 102 103
f 63 103 64
f 64 103 104
f 64 104 105
f 64 105 65
f 65 105 106
f 65 106 68
f 65 68 66
f 66 68 67
f 68 106 69
f 69 106 70
f 70 106 107
f 70 107 71
f 71 107 108
f 71 108 109
f 71 109 72
f 72 109 110
f 72 110 73
f 73 110 111
f 73 111 112
f 73 112 78
f 74 113 114
f 74 114 75
f 74 79 113
f 75 115 116
f 75 116 76
f 75 114 159
f 75 159 117
f 75 117 118
f 75 118 119
f 75 119 120
f 75 120 121
f 75 121 115
f 76 116 122
f 76 122 123
f 76 123 124
f 76 124 77
f 77 124 80
f 78 112 79
f 79 112 125
f 79 125 126
f 79 126 113
f 80 127 81
f 80 124 128
f 80 128 129
f 80 129 130
f 80 130 131
f 80 131 127
f 81 127 132
f 81 132 83
f 81 83 82
f 83 132 133
f 83 133 134
f 83 134 135
f 83 135 136
f 83 136 86
f 83 86 84
f 84 86 85
f 86 136 135
f 86 135 137
f 86 137 138
f 86 138 87
f 87 138 172
f 87 172 170
f 87 170 133
f 87 133 166
f 87 166 130
f 87 130 129
f 87 129 128
f 87 128 124
f 87 124 123
f 87 123 122
f 87 122 160
f 87 160 120
f 87 120 163
f 87 163 185
f 87 185 156
f 87 156 155
f 87 155 154
f 87 154 184
f 87 184 193
f 87 193 181
f 87 181 192
f 87 192 194
f 87 194 187
f 87 187 173
f 87 173 144
f 87 144 142
f 87 142 139
f 87 139 93
f 87 93 92
f 87 92 91
f 87 91 90
f 87 90 89
f 87 89 88
f 93 139 140
f 93 140 141
f 93 141 94
f 94 141 139
f 94 139 95
f 95 139 142
f 95 142 96
f 96 142 143
f 96 143 97
f 97 143 98
f 98 143 144
f 98 144 145
f 98 145 99
f 99 145 100
f 100 145 146
f 100 146 104
f 100 104 101
f 101 104 102
f 102 104 103
f 104 146 147
f 104 147 148
f 104 148 105
f 105 148 106
f 106 148 108
f 106 108 107
f 108 148 149
f 108 149 150
f 108 150 109
f 109 150 110
f 110 150 111
f 111 150 151
f 111 151 152
f 111 152 112
f 112 152 153
f 112 153 154
f 112 154 155
f 112 155 156
f 112 156 157
f 112 157 125
f 113 126 114
f 114 158 159
f 114 126 158
f 115 122 116
f 115 121 160
f 115 160 122
f 117 159 118
f 118 159 161
f 118 161 162
f 118 162 119
f 119 162 163
f 119 163 120
f 120 160 121
f 125 164 165
f 125 165 126
f 125 157 164
f 126 165 158
f 127 131 130
f 127 130 166
f 127 166 167
f 127 167 168
f 127 168 169
f 127 169 132
f 132 169 168
f 132 168 133
f 133 170 134
f 133 168 167
f 133 167 166
f 134 171 135
f 134 170 172
f 134 172 171
f 135 171 137
f 137 171 138
f 138 171 172
f 139 141 140
f 142 144 143
f 144 173 174
f 144 174 145
f 145 174 175
f 145 175 176
f 145 176 146
f 146 176 147
f 147 176 177
f 147 177 178
f 147 178 149
f 147 149 148
f 149 178 151
f 149 151 150
f 151 178 179
f 151 179 180
f 151 180 181
f 151 181 182
f 151 182 183
f 151 183 184
f 151 184 152
f 152 184 153
f 153 184 154
f 156 185 157
f 157 185 161
f 157 161 164
f 158 186 159
f 158 165 186
f 159 186 161
f 161 185 163
f 161 163 162
f 161 186 165
f 161 165 164
f 173 175 174
f 173 187 175
f 175 177 176
f 175 187 188
f 175 188 177
f 177 188 189
f 177 189 179
f 177 179 178
f 179 189 190
f 179 190 191
f 179 191 192
f 179 192 180
f 180 192 181
f 181 193 182
f 182 193 183
f 183 193 184
f 187 194 188
f 188 194 189
f 189 194 190
f 190 194 192
f 190 192 191

