# https://github.com/mikedh/trimesh
v -0.03279111 0.08042962 0.01590374
v -0.03279111 0.07975383 0.01586201
v -0.03279111 0.08157011 0.01590230
v -0.03384631 0.08046585 0.01596274
v -0.03554942 0.07765795 0.01594547
v -0.03495558 0.07765795 0.01590662
v -0.03385082 0.07765795 0.01580733
v -0.03279111 0.07926537 0.01579437
v -0.03279111 0.08201045 0.01585337
v -0.03725162 0.07876334 0.01594404
v -0.03835548 0.07765795 0.01595411
v -0.03665418 0.07765795 0.01597857
v -0.03279111 0.07921330 0.01563752
v -0.03385082 0.07765795 0.01473524
v -0.03279111 0.07921274 0.01482590
v -0.03499883 0.08144275 0.01577567
v -0.03384631 0.08167142 0.01582603
v -0.03279111 0.08278586 0.01524610
v -0.04004236 0.07765795 0.01588503
v -0.04169950 0.07799188 0.01574257
v -0.04190766 0.07765795 0.01576559
v -0.03959270 0.07765795 0.00127732
v -0.03279111 0.08082752 0.00127732
v -0.03835007 0.07971817 0.01575840
v -0.03279111 0.08279435 0.01523171
v -0.03893219 0.07985571 0.01469063
v -0.04199687 0.07806207 0.01522164
v -0.04199687 0.07788038 0.01558571
v -0.04199687 0.07765795 0.01570084
v -0.04199687 0.07765795 0.00127732
v -0.03279111 0.08343902 0.00127732
v -0.03279111 0.08296358 0.01473956
v -0.03555933 0.08157803 0.01471221
v -0.04199687 0.07827488 0.01468199
v -0.03981708 0.07962082 0.01402291
v -0.04199687 0.07885163 0.00127732
v -0.03279111 0.08343958 0.00292359
v -0.03336422 0.08318658 0.00127732
v -0.03279111 0.08311074 0.01428338
v -0.04199687 0.07834903 0.01437980
v -0.03302901 0.08303660 0.01410350
v -0.04072270 0.07923707 0.01313790
v -0.04199687 0.07859354 0.01313790
v -0.04107773 0.07934235 0.00127732
v -0.04199687 0.07883522 0.00245734
v -0.03334620 0.08318828 0.00292359
v -0.03279111 0.08342204 0.00462597
v -0.03418693 0.08280906 0.00127732
v -0.03279111 0.08316791 0.01384447
v -0.04078487 0.07928122 0.01143552
v -0.04199687 0.07861108 0.01274504
v -0.04103178 0.07936669 0.00127732
v -0.04199687 0.07866486 0.01143552
v -0.03331015 0.08317696 0.00462597
v -0.03279111 0.08338694 0.00632836
v -0.03554942 0.08214176 0.00127732
v -0.03279111 0.08319791 0.01313790
v -0.03279111 0.08321262 0.01262560
v -0.03279111 0.08324658 0.01143552
v -0.03279111 0.08334337 0.00803074
v -0.03679205 0.08151463 0.00127732
v -0.03899346 0.08040359 0.00127732
v -0.04018023 0.07980420 0.00127732
f 1 2 8
f 1 8 13
f 1 13 15
f 1 15 23
f 1 23 31
f 1 31 37
f 1 37 47
f 1 47 55
f 1 55 60
f 1 60 59
f 1 59 58
f 1 58 57
f 1 57 49
f 1 49 39
f 1 39 32
f 1 32 25
f 1 25 18
f 1 18 9
f 1 9 3
f 1 3 4
f 1 4 5
f 1 5 6
f 1 6 2
f 2 6 7
f 2 7 8
f 3 9 4
f 4 10 11
f 4 11 12
f 4 12 5
f 4 9 10
f 5 12 11
f 5 11 19
f 5 19 21
f 5 21 29
f 5 29 30
f 5 30 22
f 5 22 14
f 5 14 7
f 5 7 6
f 7 13 8
f 7 14 15
f 7 15 13
f 9 16 17
f 9 17 10
f 9 18 16
f 10 19 11
f 10 17 20
f 10 20 21
f 10 21 19
f 14 22 23
f 14 23 15
f 16 24 20
f 16 20 17
f 16 18 25
f 16 25 26
f 16 26 27
f 16 27 24
f 20 24 27
f 20 27 28
f 20 28 21
f 21 28 29
f 22 30 36
f 22 36 44
f 22 44 52
f 22 52 63
f 22 63 62
f 22 62 61
f 22 61 56
f 22 56 48
f 22 48 38
f 22 38 31
f 22 31 23
f 25 32 33
f 25 33 26
f 26 34 27
f 26 33 35
f 26 35 34
f 27 34 40
f 27 40 43
f 27 43 51
f 27 51 53
f 27 53 45
f 27 45 36
f 27 36 30
f 27 30 29
f 27 29 28
f 31 38 37
f 32 39 33
f 33 39 35
f 34 35 40
f 35 39 41
f 35 41 42
f 35 42 43
f 35 43 40
f 36 45 44
f 37 38 46
f 37 46 47
f 38 48 46
f 39 49 41
f 41 49 42
f 42 50 51
f 42 51 43
f 42 49 50
f 44 45 52
f 45 53 52
f 46 48 54
f 46 54 47
f 47 54 55
f 48 56 54
f 49 57 50
f 50 53 51
f 50 57 58
f 50 58 59
f 50 59 60
f 50 60 54
f 50 54 56
f 50 56 61
f 50 61 62
f 50 62 63
f 50 63 53
f 52 53 63
f 54 60 55

