# https://github.com/mikedh/trimesh
v -0.00389241 0.09014149 0.00877021
v -0.00490194 0.09013302 0.00877021
v -0.00389241 0.08797538 0.00877021
v -0.00389241 0.08912995 -0.01069672
v -0.00660440 0.09001022 0.00802904
v -0.00660440 0.09002763 0.00877021
v -0.01478301 0.08602664 0.00877021
v -0.00389241 0.08533503 -0.00687923
v -0.00389241 0.08861806 -0.01232194
v -0.01341422 0.08819933 -0.01332877
v -0.01478301 0.08818239 -0.01331538
v -0.01478301 0.08877191 -0.00388776
v -0.00772693 0.08987566 0.00672083
v -0.00781435 0.08989260 0.00802904
v -0.00776424 0.08988508 0.00877021
v -0.01478301 0.08858513 0.00877021
v -0.01478301 0.08548417 -0.01242686
v -0.01382571 0.08533503 -0.01250053
v -0.00389241 0.08533503 -0.01403422
v -0.00389241 0.08801349 -0.01317250
v -0.00736874 0.08813158 -0.01325510
v -0.00830685 0.08815464 -0.01327519
v -0.01000824 0.08818898 -0.01330868
v -0.01171177 0.08820403 -0.01332877
v -0.01478301 0.08727624 -0.01375517
v -0.01478301 0.08884154 -0.00218663
v -0.01341422 0.08905514 -0.00048328
v -0.01341422 0.08905938 0.00121785
v -0.01171177 0.08915535 0.00877021
v -0.01341422 0.08901138 0.00292121
v -0.01415405 0.08870228 0.00877021
v -0.01478301 0.08865711 0.00632569
v -0.01478301 0.08573023 -0.01368150
v -0.01336092 0.08533503 -0.01360783
v -0.00466315 0.08533503 -0.01403646
v -0.00389241 0.08557356 -0.01402083
v -0.00389241 0.08750960 -0.01341584
v -0.00389241 0.08716286 -0.01357880
v -0.01000824 0.08727624 -0.01369936
v -0.01171177 0.08727624 -0.01373731
v -0.01341422 0.08727624 -0.01375517
v -0.00490194 0.08557356 -0.01402306
v -0.00660440 0.08557356 -0.01400743
v -0.00830685 0.08557356 -0.01397172
v -0.00806913 0.08533503 -0.01398511
v -0.00977052 0.08533503 -0.01392260
v -0.01478301 0.08884577 -0.00048328
v -0.01478301 0.08880625 0.00121785
v -0.01341422 0.08883966 0.00877021
v -0.01341422 0.08896151 0.00462456
v -0.01341422 0.08891164 0.00632569
v -0.01478301 0.08875685 0.00292121
v -0.01478301 0.08871686 0.00428970
v -0.01147298 0.08533503 -0.01381991
v -0.01325432 0.08533503 -0.01362792
v -0.00636667 0.08533503 -0.01402083
v -0.00389241 0.08623412 -0.01384447
f 1 2 6
f 1 6 15
f 1 15 29
f 1 29 49
f 1 49 31
f 1 31 16
f 1 16 7
f 1 7 3
f 1 3 8
f 1 8 19
f 1 19 36
f 1 36 57
f 1 57 38
f 1 38 37
f 1 37 20
f 1 20 9
f 1 9 4
f 1 4 2
f 2 5 6
f 2 4 5
f 3 7 8
f 4 9 10
f 4 10 11
f 4 11 12
f 4 12 13
f 4 13 5
f 5 13 6
f 6 13 14
f 6 14 15
f 7 16 32
f 7 32 53
f 7 53 52
f 7 52 48
f 7 48 47
f 7 47 26
f 7 26 12
f 7 12 11
f 7 11 25
f 7 25 33
f 7 33 17
f 7 17 18
f 7 18 8
f 8 18 34
f 8 34 55
f 8 55 54
f 8 54 46
f 8 46 45
f 8 45 56
f 8 56 35
f 8 35 19
f 9 20 21
f 9 21 22
f 9 22 23
f 9 23 24
f 9 24 10
f 10 24 25
f 10 25 11
f 12 26 27
f 12 27 13
f 13 27 14
f 14 27 28
f 14 28 15
f 15 28 30
f 15 30 29
f 16 31 32
f 17 33 34
f 17 34 18
f 19 35 36
f 20 37 21
f 21 37 38
f 21 38 22
f 22 38 23
f 23 38 39
f 23 39 40
f 23 40 24
f 24 40 41
f 24 41 25
f 25 41 42
f 25 42 43
f 25 43 44
f 25 44 45
f 25 45 46
f 25 46 33
f 26 47 28
f 26 28 27
f 28 47 48
f 28 48 30
f 29 30 50
f 29 50 51
f 29 51 49
f 30 48 52
f 30 52 53
f 30 53 50
f 31 49 51
f 31 51 32
f 32 51 53
f 33 46 54
f 33 54 55
f 33 55 34
f 35 56 42
f 35 42 36
f 36 42 41
f 36 41 40
f 36 40 57
f 38 57 39
f 39 57 40
f 42 56 43
f 43 56 45
f 43 45 44
f 50 53 51

