# https://github.com/mikedh/trimesh
v -0.05272135 -0.03315471 0.01077199
v -0.06392459 -0.03315471 0.01077199
v -0.05295934 -0.03367555 0.01077199
v -0.05417344 -0.03528223 -0.00449122
v -0.05427653 -0.03315471 -0.00449122
v -0.06335429 -0.03358267 0.01077199
v -0.06367893 -0.03315471 0.01009967
v -0.05596661 -0.03528223 -0.00449122
v -0.05375887 -0.03528223 0.01077199
v -0.05626383 -0.03315471 -0.00449122
v -0.06287940 -0.03393899 0.01077199
v -0.06332358 -0.03315471 0.00913451
v -0.06222574 -0.03315471 0.00652590
v -0.05648647 -0.03528223 0.01076751
v -0.06108732 -0.03487780 0.01077199
v -0.06168504 -0.03472140 0.01077199
v -0.06206122 -0.03455272 0.01077199
v -0.06292765 -0.03315471 0.00807971
v -0.06265347 -0.03315471 0.00736854
v -0.05645247 -0.03528223 0.01077199
f 1 2 6
f 1 6 11
f 1 11 17
f 1 17 16
f 1 16 15
f 1 15 20
f 1 20 9
f 1 9 3
f 1 3 4
f 1 4 5
f 1 5 10
f 1 10 13
f 1 13 19
f 1 19 18
f 1 18 12
f 1 12 7
f 1 7 2
f 2 7 8
f 2 8 6
f 3 9 4
f 4 8 10
f 4 10 5
f 4 9 20
f 4 20 14
f 4 14 8
f 6 8 11
f 7 12 8
f 8 13 10
f 8 14 15
f 8 15 16
f 8 16 17
f 8 17 11
f 8 12 18
f 8 18 19
f 8 19 13
f 14 20 15

