# https://github.com/mikedh/trimesh
v -0.07466440 -0.03770338 -0.01747191
v -0.07193575 -0.03770338 -0.02266088
v -0.07646106 -0.03770338 -0.01747191
v -0.07384271 -0.04454623 -0.01747191
v -0.07193575 -0.03782513 -0.02270223
v -0.07193575 -0.03770338 -0.02466588
v -0.07334260 -0.04893420 -0.01747191
v -0.07211870 -0.05967802 -0.01747191
v -0.07198094 -0.06088807 -0.01747191
v -0.07194063 -0.06265966 -0.01747191
v -0.07646106 -0.03770338 -0.01921246
v -0.07639151 -0.03871962 -0.01747191
v -0.07193575 -0.03960168 -0.02338499
v -0.07193575 -0.03805620 -0.02485821
v -0.07565132 -0.03938552 -0.02354654
v -0.07594855 -0.03770338 -0.02236565
v -0.07194461 -0.06283607 -0.01747191
v -0.07193575 -0.04531152 -0.02722286
v -0.07193575 -0.04531152 -0.02667281
v -0.07193575 -0.03972841 -0.02345134
v -0.07193575 -0.03966132 -0.02341576
v -0.07646062 -0.03770338 -0.01989811
v -0.07639151 -0.03871962 -0.02091455
v -0.07406419 -0.05914878 -0.01747191
v -0.07193575 -0.03912960 -0.02538037
v -0.07193575 -0.04261562 -0.02703342
v -0.07223165 -0.04280197 -0.02695457
v -0.07575896 -0.04042164 -0.02367829
v -0.07623825 -0.03770338 -0.02160116
v -0.07197296 -0.06308454 -0.01747191
v -0.07214616 -0.06171548 -0.02007601
v -0.07225735 -0.04511771 -0.02707862
v -0.07193575 -0.04382815 -0.02729498
v -0.07372444 -0.05506394 -0.02354654
v -0.07394990 -0.05506394 -0.02354654
v -0.07413639 -0.05404025 -0.02372733
v -0.07641056 -0.03770338 -0.02091455
v -0.07607746 -0.04042164 -0.02261664
v -0.07599861 -0.04212365 -0.02261664
v -0.07580946 -0.04382815 -0.02261664
v -0.07406419 -0.05914878 -0.01921246
v -0.07391580 -0.06045076 -0.01747191
v -0.07193575 -0.04312747 -0.02718151
v -0.07228924 -0.04382815 -0.02708823
v -0.07577712 -0.04212365 -0.02375041
v -0.07274682 -0.06308454 -0.01747191
v -0.07222279 -0.06171548 -0.02007601
v -0.07364825 -0.05843071 -0.02182907
v -0.07430649 -0.05233823 -0.02389946
v -0.07561057 -0.04512516 -0.02357443
v -0.07568455 -0.04382815 -0.02367829
v -0.07391092 -0.05843071 -0.02182907
v -0.07452974 -0.05404025 -0.02261664
v -0.07563626 -0.04534630 -0.02261664
v -0.07445134 -0.05574227 -0.02091455
v -0.07391225 -0.06039610 -0.01921246
v -0.07391225 -0.06048058 -0.01750941
v -0.07391225 -0.06048058 -0.01747191
v -0.07252932 -0.06207078 -0.01921246
v -0.07365312 -0.06133035 -0.01747191
v -0.07365312 -0.06133035 -0.01750941
v -0.07389409 -0.06020975 -0.02016929
v -0.07476806 -0.05233823 -0.02261664
v -0.07422189 -0.05744428 -0.02091455
f 1 2 6
f 1 6 16
f 1 16 29
f 1 29 37
f 1 37 22
f 1 22 11
f 1 11 3
f 1 3 12
f 1 12 24
f 1 24 42
f 1 42 58
f 1 58 60
f 1 60 46
f 1 46 30
f 1 30 17
f 1 17 10
f 1 10 9
f 1 9 8
f 1 8 7
f 1 7 4
f 1 4 2
f 2 5 13
f 2 13 21
f 2 21 20
f 2 20 19
f 2 19 18
f 2 18 33
f 2 33 43
f 2 43 26
f 2 26 25
f 2 25 14
f 2 14 6
f 2 4 7
f 2 7 8
f 2 8 9
f 2 9 10
f 2 10 5
f 3 11 23
f 3 23 12
f 5 10 13
f 6 14 15
f 6 15 16
f 10 17 18
f 10 18 19
f 10 19 20
f 10 20 21
f 10 21 13
f 11 22 23
f 12 23 41
f 12 41 24
f 14 25 15
f 15 25 26
f 15 26 27
f 15 27 28
f 15 28 16
f 16 28 29
f 17 30 31
f 17 31 18
f 18 32 33
f 18 31 34
f 18 34 35
f 18 35 36
f 18 36 32
f 22 37 23
f 23 37 38
f 23 38 39
f 23 39 40
f 23 40 41
f 24 41 42
f 26 43 27
f 27 43 44
f 27 44 28
f 28 44 45
f 28 45 38
f 28 38 29
f 29 38 37
f 30 46 47
f 30 47 31
f 31 47 52
f 31 52 48
f 31 48 34
f 32 36 49
f 32 49 50
f 32 50 51
f 32 51 45
f 32 45 44
f 32 44 33
f 33 44 43
f 34 48 52
f 34 52 35
f 35 52 36
f 36 52 53
f 36 53 50
f 36 50 49
f 38 45 39
f 39 45 51
f 39 51 50
f 39 50 40
f 40 50 54
f 40 54 41
f 41 55 56
f 41 56 57
f 41 57 42
f 41 54 55
f 42 57 58
f 46 59 47
f 46 60 61
f 46 61 62
f 46 62 59
f 47 59 62
f 47 62 52
f 50 53 63
f 50 63 55
f 50 55 54
f 52 62 53
f 53 62 64
f 53 64 63
f 55 63 64
f 55 64 62
f 55 62 56
f 56 62 61
f 56 61 57
f 57 61 60
f 57 60 58

