# https://github.com/mikedh/trimesh
v -0.00006597 -0.00918974 0.12450936
v -0.00651351 -0.00666435 0.12450936
v -0.00006597 -0.01011968 0.12450936
v -0.00006597 -0.00872667 0.11845143
v -0.00787064 -0.00666435 0.12450936
v -0.00549991 -0.00666435 0.11877383
v -0.00115522 -0.01003601 0.12450936
v -0.00006597 -0.01017408 0.12433423
v -0.00545436 -0.00666435 0.11845143
v -0.00006597 -0.00869671 0.10815454
v -0.00749469 -0.00738737 0.12450936
v -0.00795247 -0.00666435 0.12433821
v -0.00189092 -0.00996130 0.12450936
v -0.00115522 -0.01008594 0.12433423
v -0.00041953 -0.01014550 0.12433423
v -0.00041953 -0.01017752 0.11551003
v -0.00041953 -0.01018027 0.11330100
v -0.00041953 -0.01018131 0.11109594
v -0.00006597 -0.01016306 0.11035960
v -0.00655365 -0.00666435 0.08384719
v -0.00006597 -0.00935535 0.08384719
v -0.00728935 -0.00759842 0.12450936
v -0.00763288 -0.00666435 0.08384719
v -0.00748234 -0.00686680 0.08384719
v -0.00713649 -0.00723450 0.08384719
v -0.00336153 -0.00979604 0.12450936
v -0.00189092 -0.01000159 0.12433423
v -0.00115522 -0.01010453 0.11330100
v -0.00115522 -0.01010453 0.11109594
v -0.00115522 -0.01007320 0.08384719
v -0.00041953 -0.01017993 0.11035960
v -0.00006597 -0.01012519 0.08384719
v -0.00651505 -0.00812656 0.12433423
v -0.00614682 -0.00837514 0.12433423
v -0.00520270 -0.00897662 0.12450936
v -0.00676903 -0.00758052 0.08384719
v -0.00555394 -0.00850529 0.08384719
v -0.00379693 -0.00973648 0.12450936
v -0.00336153 -0.00981360 0.12433423
v -0.00189092 -0.01000778 0.11551003
v -0.00189092 -0.01000778 0.10962325
v -0.00189092 -0.00997886 0.08384719
v -0.00045581 -0.01012278 0.08384719
v -0.00041953 -0.01012519 0.08384719
v -0.00503672 -0.00885474 0.08384719
v -0.00500970 -0.00887299 0.08384719
v -0.00520192 -0.00897628 0.12312026
v -0.00520270 -0.00897697 0.12359789
v -0.00483215 -0.00921350 0.12359789
v -0.00557093 -0.00874251 0.12433423
v -0.00483215 -0.00921350 0.12433423
v -0.00417442 -0.00957914 0.12433423
v -0.00380696 -0.00974027 0.12433423
v -0.00380387 -0.00973855 0.12212918
v -0.00262584 -0.00983460 0.08384719
v -0.00499195 -0.00888194 0.08384719
v -0.00417133 -0.00957432 0.12212918
v -0.00417133 -0.00957914 0.12286154
v -0.00490394 -0.00916495 0.12286950
v -0.00464224 -0.00905202 0.08384719
v -0.00302804 -0.00972443 0.08384719
f 1 2 5
f 1 5 11
f 1 11 22
f 1 22 35
f 1 35 38
f 1 38 26
f 1 26 13
f 1 13 7
f 1 7 3
f 1 3 8
f 1 8 19
f 1 19 32
f 1 32 21
f 1 21 10
f 1 10 4
f 1 4 2
f 2 4 6
f 2 6 9
f 2 9 20
f 2 20 23
f 2 23 12
f 2 12 5
f 3 7 8
f 4 9 6
f 4 10 9
f 5 12 11
f 7 13 14
f 7 14 15
f 7 15 8
f 8 15 16
f 8 16 17
f 8 17 18
f 8 18 19
f 9 10 20
f 10 21 20
f 11 12 23
f 11 23 24
f 11 24 25
f 11 25 22
f 13 26 14
f 14 26 27
f 14 27 28
f 14 28 16
f 14 16 15
f 16 28 17
f 17 28 18
f 18 28 29
f 18 29 30
f 18 30 31
f 18 31 32
f 18 32 19
f 20 21 32
f 20 32 44
f 20 44 43
f 20 43 30
f 20 30 42
f 20 42 55
f 20 55 61
f 20 61 60
f 20 60 56
f 20 56 46
f 20 46 45
f 20 45 37
f 20 37 36
f 20 36 25
f 20 25 24
f 20 24 23
f 22 33 34
f 22 34 35
f 22 25 36
f 22 36 37
f 22 37 33
f 26 38 39
f 26 39 27
f 27 39 28
f 28 40 41
f 28 41 29
f 28 39 40
f 29 41 42
f 29 42 30
f 30 43 31
f 31 43 44
f 31 44 32
f 33 37 45
f 33 45 46
f 33 46 34
f 34 47 48
f 34 48 49
f 34 49 50
f 34 50 35
f 34 46 47
f 35 50 51
f 35 51 52
f 35 52 38
f 38 52 53
f 38 53 39
f 39 53 54
f 39 54 42
f 39 42 41
f 39 41 40
f 42 54 55
f 46 56 57
f 46 57 58
f 46 58 49
f 46 49 59
f 46 59 47
f 47 59 49
f 47 49 48
f 49 58 52
f 49 52 51
f 49 51 50
f 52 58 53
f 53 58 54
f 54 58 57
f 54 57 60
f 54 60 61
f 54 61 55
f 56 60 57

