# https://github.com/mikedh/trimesh
v -0.01004987 -0.00013100 0.12450957
v -0.00987005 -0.00013100 0.12498354
v -0.00899148 -0.00013100 0.12450957
v -0.00990817 -0.00198777 0.12450957
v -0.00977330 -0.00198777 0.12492660
v -0.00944591 -0.00013100 0.12535133
v -0.00980946 -0.00125249 0.12495335
v -0.00006987 -0.00013100 0.12577039
v -0.00006597 -0.00013491 0.12577039
v -0.00006597 -0.00918994 0.12450957
v -0.00982705 -0.00272402 0.12450957
v -0.00967655 -0.00345929 0.12481717
v -0.00972541 -0.00272402 0.12487938
v -0.00932473 -0.00198777 0.12529419
v -0.00937262 -0.00125249 0.12532093
v -0.00927880 -0.00272402 0.12524717
v -0.00907845 -0.00013100 0.12551607
v -0.00885954 -0.00365973 0.12542914
v -0.00006597 -0.00013100 0.12584982
v -0.00006597 -0.01011979 0.12450957
v -0.00971955 -0.00345929 0.12450957
v -0.00963941 -0.00388951 0.12475557
v -0.00917618 -0.00343192 0.12522954
v -0.00699587 -0.00125249 0.12636007
v -0.00706916 -0.00013100 0.12637729
v -0.00877452 -0.00419457 0.12538254
v -0.00840706 -0.00419457 0.12555032
v -0.00681898 -0.00419457 0.12624679
v -0.00687664 -0.00345929 0.12628084
v -0.00691573 -0.00272402 0.12630758
v -0.00006597 -0.00013100 0.12657932
v -0.00006597 -0.00995846 0.12502488
v -0.00115563 -0.00990175 0.12497523
v -0.00189055 -0.00986264 0.12493511
v -0.00115563 -0.01003570 0.12450957
v -0.00963746 -0.00388462 0.12450957
v -0.00926316 -0.00415839 0.12498354
v -0.00906868 -0.00486629 0.12450957
v -0.00742099 -0.00751895 0.12473065
v -0.00822822 -0.00616866 0.12482589
v -0.00903057 -0.00480371 0.12488384
v -0.00630297 -0.00125249 0.12656230
v -0.00630297 -0.00419457 0.12644903
v -0.00630297 -0.00345929 0.12648307
v -0.00630297 -0.00272402 0.12650982
v -0.00630297 -0.00013100 0.12657932
v -0.00630297 -0.00051722 0.12657912
v -0.00797901 -0.00566512 0.12533228
v -0.00811095 -0.00524957 0.12541982
v -0.00826731 -0.00476069 0.12549601
v -0.00674373 -0.00467856 0.12620971
v -0.00006597 -0.00713567 0.12657932
v -0.00006597 -0.00981179 0.12520158
v -0.00006597 -0.00965242 0.12539267
v -0.00262644 -0.00981375 0.12487857
v -0.00115563 -0.00958104 0.12534282
v -0.00189055 -0.00953215 0.12530290
v -0.00189055 -0.00996139 0.12450957
v -0.00336136 -0.00976584 0.12480765
v -0.00824386 -0.00619311 0.12450957
v -0.00742099 -0.00751895 0.12461251
v -0.00520256 -0.00897679 0.12450957
v -0.00520158 -0.00897581 0.12470673
v -0.00607625 -0.00832951 0.12482690
v -0.00703789 -0.00764019 0.12485750
v -0.00704082 -0.00713273 0.12523279
v -0.00728710 -0.00661452 0.12538071
v -0.00754119 -0.00713567 0.12486378
v -0.00776303 -0.00639159 0.12510330
v -0.00556708 -0.00419457 0.12657932
v -0.00632252 -0.00492593 0.12632116
v -0.00556708 -0.00492984 0.12653393
v -0.00746496 -0.00612466 0.12546582
v -0.00115563 -0.00713567 0.12657932
v -0.00006597 -0.00790614 0.12638094
v -0.00006597 -0.00928478 0.12561780
v -0.00115563 -0.00921340 0.12557646
v -0.00189055 -0.00916452 0.12554809
v -0.00262644 -0.00947447 0.12524616
v -0.00262644 -0.00910683 0.12551121
v -0.00336136 -0.00979615 0.12450957
v -0.00378354 -0.00973064 0.12474665
v -0.00749428 -0.00738695 0.12450957
v -0.00728905 -0.00759815 0.12450957
v -0.00379723 -0.00973651 0.12450957
v -0.00483314 -0.00909412 0.12483804
v -0.00556708 -0.00803129 0.12532418
v -0.00647009 -0.00737620 0.12537240
v -0.00679748 -0.00688536 0.12548487
v -0.00704082 -0.00638181 0.12556349
v -0.00483314 -0.00492984 0.12657932
v -0.00609090 -0.00544219 0.12624902
v -0.00556122 -0.00567881 0.12632866
v -0.00483314 -0.00566512 0.12651387
v -0.00336136 -0.00640039 0.12657932
v -0.00189055 -0.00713567 0.12656696
v -0.00115563 -0.00783183 0.12637709
v -0.00048620 -0.00794427 0.12634710
v -0.00006597 -0.00827964 0.12619856
v -0.00028488 -0.00826791 0.12619228
v -0.00077547 -0.00823760 0.12617202
v -0.00189055 -0.00775459 0.12636473
v -0.00340534 -0.00930825 0.12522103
v -0.00318936 -0.00904034 0.12547231
v -0.00405621 -0.00936300 0.12497523
v -0.00409725 -0.00884479 0.12537889
v -0.00484976 -0.00859057 0.12523380
v -0.00510483 -0.00817894 0.12540827
v -0.00597950 -0.00753166 0.12545062
v -0.00409725 -0.00690003 0.12628530
v -0.00409725 -0.00640039 0.12648753
v -0.00262644 -0.00713567 0.12648895
v -0.00262644 -0.00763726 0.12628671
v -0.00367995 -0.00895137 0.12542793
v -0.00461521 -0.00833538 0.12547595
v -0.00332031 -0.00715816 0.12635521
f 1 2 6
f 1 6 17
f 1 17 25
f 1 25 46
f 1 46 31
f 1 31 19
f 1 19 8
f 1 8 3
f 1 3 10
f 1 10 20
f 1 20 35
f 1 35 58
f 1 58 81
f 1 81 85
f 1 85 62
f 1 62 84
f 1 84 83
f 1 83 60
f 1 60 38
f 1 38 36
f 1 36 21
f 1 21 11
f 1 11 4
f 1 4 5
f 1 5 2
f 2 5 7
f 2 7 6
f 3 8 9
f 3 9 10
f 4 11 12
f 4 12 13
f 4 13 5
f 5 14 15
f 5 15 6
f 5 6 7
f 5 13 16
f 5 16 14
f 6 15 18
f 6 18 17
f 8 19 9
f 9 19 31
f 9 31 52
f 9 52 75
f 9 75 99
f 9 99 76
f 9 76 54
f 9 54 53
f 9 53 32
f 9 32 20
f 9 20 10
f 11 21 22
f 11 22 12
f 12 22 23
f 12 23 16
f 12 16 13
f 14 16 18
f 14 18 15
f 16 23 18
f 17 24 25
f 17 18 24
f 18 23 26
f 18 26 27
f 18 27 28
f 18 28 29
f 18 29 30
f 18 30 24
f 20 32 33
f 20 33 34
f 20 34 35
f 21 36 22
f 22 37 26
f 22 26 23
f 22 36 38
f 22 38 39
f 22 39 40
f 22 40 41
f 22 41 37
f 24 42 25
f 24 30 43
f 24 43 44
f 24 44 45
f 24 45 42
f 25 42 47
f 25 47 46
f 26 37 41
f 26 41 48
f 26 48 49
f 26 49 50
f 26 50 51
f 26 51 27
f 27 51 28
f 28 43 29
f 28 51 43
f 29 43 30
f 31 46 70
f 31 70 91
f 31 91 95
f 31 95 74
f 31 74 52
f 32 53 33
f 33 53 54
f 33 54 34
f 34 55 35
f 34 54 56
f 34 56 57
f 34 57 55
f 35 55 59
f 35 59 58
f 38 60 61
f 38 61 39
f 39 61 62
f 39 62 63
f 39 63 64
f 39 64 65
f 39 65 66
f 39 66 67
f 39 67 68
f 39 68 40
f 40 68 69
f 40 69 48
f 40 48 41
f 42 45 70
f 42 70 47
f 43 70 44
f 43 51 71
f 43 71 72
f 43 72 70
f 44 70 45
f 46 47 70
f 48 69 67
f 48 67 49
f 49 67 73
f 49 73 50
f 50 73 51
f 51 73 71
f 52 74 75
f 54 76 77
f 54 77 78
f 54 78 56
f 55 57 79
f 55 79 59
f 56 78 57
f 57 78 80
f 57 80 79
f 58 59 82
f 58 82 81
f 59 79 82
f 60 83 61
f 61 83 84
f 61 84 62
f 62 85 63
f 63 85 82
f 63 82 86
f 63 86 64
f 64 87 88
f 64 88 65
f 64 86 87
f 65 88 66
f 66 89 67
f 66 88 89
f 67 89 90
f 67 90 73
f 67 69 68
f 70 72 91
f 71 92 72
f 71 73 90
f 71 90 92
f 72 92 93
f 72 93 94
f 72 94 95
f 72 95 91
f 74 95 96
f 74 96 75
f 75 97 98
f 75 98 99
f 75 96 97
f 76 99 100
f 76 100 77
f 77 100 101
f 77 101 78
f 78 101 102
f 78 102 80
f 79 103 82
f 79 80 104
f 79 104 103
f 80 102 104
f 81 82 85
f 82 103 105
f 82 105 86
f 86 106 107
f 86 107 87
f 86 105 106
f 87 107 106
f 87 106 108
f 87 108 88
f 88 108 109
f 88 109 110
f 88 110 89
f 89 110 111
f 89 111 93
f 89 93 92
f 89 92 90
f 93 111 94
f 94 111 95
f 95 111 112
f 95 112 96
f 96 112 102
f 96 102 97
f 97 102 101
f 97 101 100
f 97 100 99
f 97 99 98
f 102 113 114
f 102 114 104
f 102 112 113
f 103 104 114
f 103 114 105
f 105 114 106
f 106 115 108
f 106 114 116
f 106 116 110
f 106 110 115
f 108 115 110
f 108 110 109
f 110 116 111
f 111 116 112
f 112 116 113
f 113 116 114

