# https://github.com/mikedh/trimesh
v 0.00724597 -0.00571242 0.08384719
v -0.00005046 -0.00935510 0.08384719
v 0.00724597 -0.00700950 0.08384719
v 0.00724597 -0.00571242 0.07799742
v -0.00005046 -0.01012543 0.08384719
v -0.00005046 -0.00935510 0.07799742
v 0.00703385 -0.00723474 0.08384719
v 0.00724597 -0.01057591 0.05299369
v 0.00724597 -0.00571666 0.07775457
v -0.00005046 -0.00936428 0.07726273
v -0.00005046 -0.00935934 0.07762854
v 0.00031665 -0.01012543 0.08384719
v -0.00005046 -0.01292434 0.05299369
v 0.00668460 -0.00756377 0.08384719
v 0.00693529 -0.01080680 0.05299369
v 0.00724597 -0.01054908 0.05254796
v 0.00666603 -0.00758072 0.08384719
v 0.00545115 -0.00850639 0.08384719
v 0.00724597 -0.00572655 0.07726273
v -0.00005046 -0.00938052 0.07689386
v 0.00105229 -0.01007318 0.08384719
v 0.00031665 -0.01292434 0.05299369
v -0.00005046 -0.01281843 0.05244652
v 0.00031665 -0.01281843 0.05244344
v 0.00649676 -0.01113019 0.05299369
v 0.00607323 -0.01130106 0.05250492
v 0.00693529 -0.01066629 0.05250492
v 0.00724597 -0.01008307 0.05249878
v 0.00542472 -0.00852475 0.08384719
v -0.00005046 -0.00951820 0.07468674
v -0.00005046 -0.00939676 0.07652805
v 0.00724597 -0.00574208 0.07704448
v -0.00005046 -0.01017415 0.06476087
v -0.00005046 -0.01014944 0.06512975
v 0.00175079 -0.00998351 0.08384719
v 0.00238859 -0.01268286 0.05281540
v 0.00105229 -0.01277112 0.05248033
v 0.00178793 -0.01272240 0.05252952
v 0.00238859 -0.01268286 0.05258177
v -0.00005046 -0.01243926 0.05244652
v 0.00031665 -0.01243926 0.05244344
v 0.00546472 -0.01140909 0.05247111
v 0.00399343 -0.01209116 0.05246804
v 0.00612894 -0.01132860 0.05299369
v 0.00490763 -0.00887426 0.08384719
v 0.00454838 -0.01199443 0.05253259
v 0.00546472 -0.01101086 0.05247111
v 0.00697600 -0.01009154 0.05250185
v 0.00724597 -0.00967072 0.05257562
v 0.00724597 -0.00578091 0.07652805
v -0.00005046 -0.01020663 0.06439199
v 0.00178793 -0.00997857 0.08384719
v 0.00399343 -0.01221967 0.05299369
v 0.00325850 -0.01242655 0.05299369
v 0.00292639 -0.00972508 0.08384719
v 0.00252286 -0.00983523 0.08384719
v -0.00005046 -0.01220061 0.05299369
v 0.00456481 -0.01200079 0.05299369
v 0.00454052 -0.00905290 0.08384719
v 0.00724597 -0.00966577 0.05258792
v 0.00724597 -0.00579786 0.07636513
v -0.00005046 -0.01023982 0.06402619
v -0.00005046 -0.01185463 0.05444153
v 0.00724597 -0.00954998 0.05299061
v 0.00724597 -0.00705186 0.06436125
v 0.00724597 -0.00709564 0.06402619
v -0.00005046 -0.01036197 0.06322696
v -0.00005046 -0.01178967 0.05481655
v 0.00724597 -0.00715424 0.06371879
v -0.00005046 -0.01172400 0.05520080
v -0.00005046 -0.01097061 0.05961503
f 1 2 5
f 1 5 12
f 1 12 21
f 1 21 35
f 1 35 52
f 1 52 56
f 1 56 55
f 1 55 59
f 1 59 45
f 1 45 29
f 1 29 18
f 1 18 17
f 1 17 14
f 1 14 7
f 1 7 3
f 1 3 8
f 1 8 16
f 1 16 28
f 1 28 49
f 1 49 60
f 1 60 64
f 1 64 69
f 1 69 66
f 1 66 65
f 1 65 61
f 1 61 50
f 1 50 32
f 1 32 19
f 1 19 9
f 1 9 4
f 1 4 6
f 1 6 2
f 2 6 11
f 2 11 10
f 2 10 20
f 2 20 31
f 2 31 30
f 2 30 34
f 2 34 33
f 2 33 51
f 2 51 62
f 2 62 67
f 2 67 71
f 2 71 70
f 2 70 68
f 2 68 63
f 2 63 57
f 2 57 40
f 2 40 23
f 2 23 13
f 2 13 5
f 3 7 8
f 4 9 10
f 4 10 11
f 4 11 6
f 5 13 22
f 5 22 12
f 7 14 8
f 8 15 16
f 8 14 17
f 8 17 18
f 8 18 15
f 9 19 10
f 10 19 20
f 12 22 21
f 13 23 24
f 13 24 22
f 15 25 16
f 15 18 25
f 16 26 27
f 16 27 28
f 16 25 26
f 18 29 25
f 19 30 31
f 19 31 20
f 19 32 33
f 19 33 34
f 19 34 30
f 21 22 36
f 21 36 35
f 22 24 37
f 22 37 38
f 22 38 39
f 22 39 36
f 23 40 41
f 23 41 24
f 24 41 47
f 24 47 42
f 24 42 43
f 24 43 37
f 25 44 26
f 25 29 45
f 25 45 44
f 26 44 46
f 26 46 43
f 26 43 42
f 26 42 27
f 27 42 28
f 28 42 47
f 28 47 41
f 28 41 40
f 28 40 48
f 28 48 49
f 32 50 33
f 33 50 51
f 35 36 52
f 36 39 53
f 36 53 54
f 36 54 55
f 36 55 56
f 36 56 52
f 37 43 38
f 38 43 39
f 39 43 46
f 39 46 53
f 40 57 49
f 40 49 48
f 44 58 46
f 44 45 59
f 44 59 58
f 46 58 53
f 49 57 60
f 50 61 62
f 50 62 51
f 53 58 55
f 53 55 54
f 55 58 59
f 57 63 64
f 57 64 60
f 61 65 62
f 62 65 66
f 62 66 67
f 63 68 66
f 63 66 69
f 63 69 64
f 66 68 70
f 66 70 71
f 66 71 67

