# https://github.com/mikedh/trimesh
v 0.02459103 -0.01689470 -0.09689601
v 0.02459103 -0.01689470 -0.09396731
v 0.02459103 -0.01666807 -0.09703965
v 0.02543400 -0.01642667 -0.09635423
v 0.02531948 -0.01689470 -0.09613194
v 0.02514914 -0.01689470 -0.09202744
v 0.02459103 -0.00094557 -0.09203920
v 0.02459103 -0.01609166 -0.09740373
v 0.02712865 -0.01535430 -0.09505954
v 0.02688511 -0.01635769 -0.09471032
v 0.02572611 -0.01689470 -0.09569790
v 0.02566812 -0.01242460 -0.09811640
v 0.02726274 -0.01689470 -0.09202744
v 0.03050128 -0.00011789 -0.09202744
v 0.02459103 -0.00011789 -0.09203920
v 0.02459103 -0.01580099 -0.09753995
v 0.02837536 -0.01295175 -0.09472518
v 0.02865659 -0.01392066 -0.09365648
v 0.02710618 -0.00928306 -0.09804767
v 0.02813471 -0.00855228 -0.09723098
v 0.02901465 -0.00993994 -0.09550472
v 0.02876169 -0.01115025 -0.09520504
v 0.02997360 -0.00892342 -0.09486511
v 0.02737727 -0.01589952 -0.09421932
v 0.02717794 -0.01687006 -0.09370602
v 0.02714677 -0.01689470 -0.09372831
v 0.02662997 -0.01689470 -0.09452085
v 0.02595660 -0.01689470 -0.09542051
v 0.02588557 -0.01144585 -0.09827738
v 0.02729536 -0.00843404 -0.09819937
v 0.02459103 -0.01445766 -0.09811578
v 0.02459103 -0.01385497 -0.09829782
v 0.02726274 -0.01689470 -0.09273020
v 0.02774041 -0.01596521 -0.09273020
v 0.02750484 -0.01642338 -0.09202744
v 0.03199588 -0.00011789 -0.09202744
v 0.02459103 -0.00011789 -0.09489050
v 0.02976775 -0.00993994 -0.09452457
v 0.02870080 -0.01402740 -0.09273020
v 0.03023382 -0.00993994 -0.09377103
v 0.03007653 -0.01069864 -0.09348931
v 0.02874429 -0.00813023 -0.09671769
v 0.03014829 -0.00792003 -0.09508368
v 0.03042807 -0.00842747 -0.09431281
v 0.02719606 -0.01689470 -0.09340448
v 0.02751426 -0.00692813 -0.09835169
v 0.02826736 -0.00692813 -0.09764397
v 0.02459103 -0.01294026 -0.09831206
v 0.02486574 -0.01293697 -0.09831392
v 0.02773533 -0.01596521 -0.09202744
v 0.02870080 -0.01402740 -0.09202744
v 0.03199588 -0.00011789 -0.09273020
v 0.03199515 -0.00090287 -0.09202744
v 0.02510928 -0.00011789 -0.09561308
v 0.02459103 -0.01147705 -0.09828544
v 0.02914657 -0.01295175 -0.09273020
v 0.02893855 -0.01345427 -0.09202744
v 0.03083470 -0.00843404 -0.09273020
v 0.03039400 -0.00993994 -0.09273020
v 0.03007798 -0.01070357 -0.09273020
v 0.02888201 -0.00692813 -0.09689105
v 0.02963583 -0.00692813 -0.09594557
v 0.03023599 -0.00692813 -0.09519266
v 0.03162042 -0.00347128 -0.09357599
v 0.03072163 -0.00692813 -0.09423665
v 0.02652197 -0.00692813 -0.09835169
v 0.02759182 -0.00542223 -0.09835293
v 0.02867761 -0.00090287 -0.09811702
v 0.02860875 -0.00197030 -0.09804643
v 0.02471352 -0.01140644 -0.09830958
v 0.02664446 -0.00542223 -0.09835293
v 0.03199515 -0.00090287 -0.09273020
v 0.03178785 -0.00090287 -0.09391468
v 0.03178785 -0.00011789 -0.09391468
v 0.03180090 -0.00241042 -0.09202744
v 0.02628930 -0.00011789 -0.09724832
v 0.02660097 -0.00011789 -0.09767183
v 0.02694092 -0.00011789 -0.09813312
v 0.03007798 -0.01070357 -0.09202744
v 0.03082890 -0.00843404 -0.09202744
v 0.03062885 -0.00913526 -0.09202744
v 0.03039400 -0.00993994 -0.09202744
v 0.03164071 -0.00362565 -0.09273020
v 0.03164071 -0.00362565 -0.09202744
v 0.02898131 -0.00542223 -0.09701489
v 0.03053317 -0.00241042 -0.09556602
v 0.03136600 -0.00090287 -0.09466760
v 0.03128627 -0.00241042 -0.09447751
v 0.03169000 -0.00241042 -0.09372460
v 0.03180090 -0.00241042 -0.09273020
v 0.02781506 -0.00011789 -0.09824829
v 0.02867761 -0.00011789 -0.09811702
v 0.03007725 -0.00017865 -0.09649974
v 0.02512377 -0.00993994 -0.09831454
v 0.02674232 -0.00391632 -0.09829720
v 0.03136600 -0.00011789 -0.09466760
v 0.03172624 -0.00297698 -0.09202744
v 0.02735915 -0.00011789 -0.09818822
v 0.03050708 -0.00076985 -0.09584712
v 0.03007363 -0.00011789 -0.09650345
v 0.03007725 -0.00012282 -0.09649974
f 1 2 7
f 1 7 15
f 1 15 37
f 1 37 55
f 1 55 48
f 1 48 32
f 1 32 31
f 1 31 16
f 1 16 8
f 1 8 3
f 1 3 4
f 1 4 5
f 1 5 11
f 1 11 28
f 1 28 27
f 1 27 26
f 1 26 45
f 1 45 33
f 1 33 13
f 1 13 6
f 1 6 2
f 2 6 7
f 3 8 4
f 4 9 10
f 4 10 11
f 4 11 5
f 4 8 12
f 4 12 9
f 6 13 35
f 6 35 50
f 6 50 51
f 6 51 57
f 6 57 79
f 6 79 82
f 6 82 81
f 6 81 80
f 6 80 84
f 6 84 97
f 6 97 75
f 6 75 53
f 6 53 36
f 6 36 14
f 6 14 15
f 6 15 7
f 8 16 12
f 9 17 18
f 9 18 10
f 9 12 19
f 9 19 20
f 9 20 21
f 9 21 22
f 9 22 23
f 9 23 17
f 10 24 25
f 10 25 26
f 10 26 27
f 10 27 28
f 10 28 11
f 10 18 24
f 12 29 30
f 12 30 19
f 12 16 31
f 12 31 32
f 12 32 29
f 13 33 34
f 13 34 35
f 14 36 52
f 14 52 74
f 14 74 96
f 14 96 100
f 14 100 92
f 14 92 91
f 14 91 98
f 14 98 78
f 14 78 77
f 14 77 76
f 14 76 54
f 14 54 37
f 14 37 15
f 17 23 38
f 17 38 18
f 18 39 34
f 18 34 25
f 18 25 24
f 18 38 40
f 18 40 41
f 18 41 39
f 19 30 20
f 20 30 42
f 20 42 21
f 21 42 23
f 21 23 22
f 23 42 43
f 23 43 44
f 23 44 40
f 23 40 38
f 25 34 45
f 25 45 26
f 29 32 46
f 29 46 30
f 30 46 47
f 30 47 42
f 32 48 49
f 32 49 46
f 33 45 34
f 34 50 35
f 34 39 51
f 34 51 50
f 36 53 72
f 36 72 52
f 37 54 55
f 39 41 56
f 39 56 57
f 39 57 51
f 40 44 58
f 40 58 41
f 41 58 59
f 41 59 60
f 41 60 56
f 42 47 43
f 43 47 61
f 43 61 62
f 43 62 63
f 43 63 64
f 43 64 65
f 43 65 44
f 44 65 64
f 44 64 58
f 46 49 66
f 46 66 71
f 46 71 67
f 46 67 68
f 46 68 69
f 46 69 47
f 47 69 61
f 48 55 70
f 48 70 71
f 48 71 66
f 48 66 49
f 52 72 73
f 52 73 74
f 53 75 90
f 53 90 72
f 54 76 55
f 55 76 77
f 55 77 78
f 55 78 70
f 56 60 57
f 57 60 79
f 58 80 81
f 58 81 82
f 58 82 59
f 58 64 83
f 58 83 84
f 58 84 80
f 59 82 79
f 59 79 60
f 61 69 85
f 61 85 86
f 61 86 62
f 62 86 63
f 63 86 87
f 63 87 88
f 63 88 64
f 64 88 89
f 64 89 72
f 64 72 90
f 64 90 83
f 67 71 91
f 67 91 92
f 67 92 68
f 68 92 101
f 68 101 93
f 68 93 69
f 69 93 86
f 69 86 85
f 70 78 94
f 70 94 71
f 71 95 91
f 71 94 95
f 72 89 73
f 73 87 96
f 73 96 74
f 73 89 88
f 73 88 87
f 75 97 90
f 78 98 95
f 78 95 94
f 83 90 97
f 83 97 84
f 86 93 99
f 86 99 87
f 87 99 93
f 87 93 101
f 87 101 96
f 91 95 98
f 92 100 101
f 96 101 100

