# https://github.com/mikedh/trimesh
v 0.01976529 -0.00012059 -0.07787229
v 0.02386570 -0.01689469 -0.07828626
v 0.01976649 -0.01689469 -0.07787229
v 0.01976529 -0.00012059 -0.07656285
v 0.01976529 0.01450795 -0.07787229
v 0.02726215 -0.01689469 -0.07828626
v 0.02478395 0.01450180 -0.07801512
v 0.03061071 -0.00012059 -0.07828626
v 0.01976649 -0.01689469 -0.07656285
v 0.02476958 -0.01689469 -0.07553827
v 0.01976529 0.01450795 -0.07656285
v 0.02477317 0.01450795 -0.07801270
v 0.02726335 -0.01689469 -0.07766705
v 0.02776976 -0.01596331 -0.07828626
v 0.02778054 -0.01596331 -0.07766705
v 0.02537297 0.01450795 -0.07801512
v 0.03199587 -0.00012059 -0.07828626
v 0.02726215 -0.01689469 -0.07553827
v 0.03060712 -0.00012059 -0.07553827
v 0.02606854 0.01450795 -0.07556517
v 0.02726335 -0.01689469 -0.07624221
v 0.02834801 -0.01477987 -0.07828626
v 0.02835878 -0.01477987 -0.07766705
v 0.02869999 -0.01402678 -0.07553827
v 0.02848449 -0.01446634 -0.07553827
v 0.02774342 -0.01596331 -0.07553827
v 0.02753870 -0.01636906 -0.07553827
v 0.02834202 0.01450795 -0.07801512
v 0.02843900 0.01430508 -0.07801512
v 0.02870118 0.01372719 -0.07801512
v 0.03007796 0.01040434 -0.07801512
v 0.03032099 0.00981723 -0.07801512
v 0.03039402 0.00963894 -0.07801512
v 0.03082262 0.00813275 -0.07801512
v 0.03164031 0.00332522 -0.07801512
v 0.03180073 0.00211104 -0.07801512
v 0.03195038 0.00095219 -0.07801512
v 0.03199468 0.00060177 -0.07801512
v 0.03199587 -0.00012059 -0.07553827
v 0.03199468 -0.00090443 -0.07828626
v 0.02831090 0.01450795 -0.07556517
v 0.02869999 -0.01402678 -0.07828626
v 0.03026233 -0.01025514 -0.07553827
v 0.02834801 0.01450795 -0.07769906
v 0.02870118 0.01372719 -0.07556517
v 0.02939197 0.01206115 -0.07556517
v 0.02995465 0.01070250 -0.07556517
v 0.03039402 0.00963894 -0.07556517
v 0.03007796 0.01040434 -0.07556517
v 0.03056402 0.00904261 -0.07556517
v 0.03082262 0.00813275 -0.07556517
v 0.03164031 0.00332522 -0.07556517
v 0.03180073 0.00211104 -0.07556517
v 0.03199468 0.00060177 -0.07556517
v 0.03199468 -0.00090443 -0.07553827
v 0.03188094 -0.00178970 -0.07828626
v 0.02831209 0.01450795 -0.07557781
v 0.03039282 -0.00993853 -0.07828626
v 0.03039282 -0.00993853 -0.07553827
v 0.02834801 0.01450795 -0.07766705
v 0.02832287 0.01450795 -0.07619326
v 0.03180073 -0.00240755 -0.07553827
v 0.03180073 -0.00240755 -0.07828626
v 0.03056881 -0.00932068 -0.07828626
v 0.03064424 -0.00905633 -0.07553827
v 0.03173488 -0.00291167 -0.07553827
v 0.03164031 -0.00362480 -0.07828626
v 0.03082022 -0.00843233 -0.07828626
v 0.03082022 -0.00843233 -0.07553827
v 0.03164031 -0.00362480 -0.07553827
f 1 2 3
f 1 3 9
f 1 9 4
f 1 4 11
f 1 11 5
f 1 5 2
f 2 6 13
f 2 13 21
f 2 21 18
f 2 18 10
f 2 10 9
f 2 9 3
f 2 5 7
f 2 7 8
f 2 8 17
f 2 17 40
f 2 40 56
f 2 56 63
f 2 63 67
f 2 67 68
f 2 68 64
f 2 64 58
f 2 58 42
f 2 42 22
f 2 22 14
f 2 14 6
f 4 9 10
f 4 10 11
f 5 11 20
f 5 20 41
f 5 41 57
f 5 57 61
f 5 61 60
f 5 60 44
f 5 44 28
f 5 28 16
f 5 16 12
f 5 12 7
f 6 14 15
f 6 15 13
f 7 12 16
f 7 16 8
f 8 16 28
f 8 28 17
f 10 18 27
f 10 27 26
f 10 26 25
f 10 25 24
f 10 24 43
f 10 43 59
f 10 59 65
f 10 65 69
f 10 69 70
f 10 70 66
f 10 66 62
f 10 62 55
f 10 55 39
f 10 39 19
f 10 19 20
f 10 20 11
f 13 15 21
f 14 22 23
f 14 23 15
f 15 23 24
f 15 24 25
f 15 25 26
f 15 26 27
f 15 27 18
f 15 18 21
f 17 28 29
f 17 29 30
f 17 30 31
f 17 31 32
f 17 32 33
f 17 33 34
f 17 34 35
f 17 35 36
f 17 36 37
f 17 37 38
f 17 38 54
f 17 54 39
f 17 39 55
f 17 55 40
f 19 39 41
f 19 41 20
f 22 42 23
f 23 42 24
f 24 42 43
f 28 44 29
f 29 44 30
f 30 45 46
f 30 46 31
f 30 44 60
f 30 60 45
f 31 46 47
f 31 47 32
f 32 48 33
f 32 47 49
f 32 49 48
f 33 48 50
f 33 50 34
f 34 50 51
f 34 51 52
f 34 52 35
f 35 52 53
f 35 53 36
f 36 53 37
f 37 53 54
f 37 54 38
f 39 54 53
f 39 53 52
f 39 52 51
f 39 51 50
f 39 50 48
f 39 48 49
f 39 49 47
f 39 47 46
f 39 46 45
f 39 45 41
f 40 55 56
f 41 45 57
f 42 58 43
f 43 58 59
f 45 60 61
f 45 61 57
f 55 62 56
f 56 62 63
f 58 64 65
f 58 65 59
f 62 66 63
f 63 66 67
f 64 68 65
f 65 68 69
f 66 70 67
f 67 70 69
f 67 69 68

