# https://github.com/mikedh/trimesh
v 0.02726264 -0.01689470 -0.09130383
v 0.02726264 -0.01689470 -0.09272997
v 0.02726180 -0.01689470 -0.08218648
v 0.02726012 -0.01689877 -0.08207567
v 0.02723481 -0.01694763 -0.08207567
v 0.02723481 -0.01694763 -0.09272997
v 0.02719516 -0.01689470 -0.09340289
v 0.02702393 -0.01689470 -0.08207567
v 0.02665869 -0.01770090 -0.08207567
v 0.02665869 -0.01770090 -0.09272997
v 0.02262335 -0.02282313 -0.09361809
v 0.02714624 -0.01689470 -0.09372730
v 0.02520449 -0.01689470 -0.08207567
v 0.02590544 -0.01868219 -0.08207567
v 0.02590544 -0.01868219 -0.09272997
v 0.02258202 -0.02283710 -0.09364379
v 0.02217039 -0.02244330 -0.09462346
v 0.02271614 -0.02143933 -0.09516790
v 0.02296244 -0.02196109 -0.09416735
v 0.02435255 -0.02012823 -0.09423481
v 0.02578819 -0.01852979 -0.09389594
v 0.02457186 -0.02041500 -0.09272997
v 0.02263685 -0.02283710 -0.09332098
v 0.02633647 -0.01750895 -0.09430226
v 0.02662917 -0.01689470 -0.09451907
v 0.02001776 -0.02283710 -0.08207567
v 0.01864537 -0.01689470 -0.09258543
v 0.02457186 -0.02041500 -0.08207567
v 0.02190637 -0.02283710 -0.09435686
v 0.02116830 -0.02283710 -0.09507957
v 0.02209363 -0.02088790 -0.09617327
v 0.02267987 -0.01988393 -0.09663258
v 0.02368280 -0.01925630 -0.09606084
v 0.02410540 -0.01980540 -0.09505548
v 0.02548791 -0.01814704 -0.09489970
v 0.02268324 -0.02283710 -0.09272997
v 0.02588014 -0.01714249 -0.09534938
v 0.02595605 -0.01689470 -0.09542005
v 0.02268324 -0.02283710 -0.08207567
v 0.01864537 -0.02283710 -0.09426211
v 0.01864537 -0.01689470 -0.09574607
v 0.02115565 -0.02283710 -0.09508920
v 0.01945767 -0.02116478 -0.09793346
v 0.02263179 -0.01832097 -0.09808121
v 0.02315729 -0.01878863 -0.09707745
v 0.02406913 -0.01825175 -0.09652017
v 0.02434917 -0.01747172 -0.09681085
v 0.02572493 -0.01689470 -0.09569789
v 0.01864537 -0.02283710 -0.09691525
v 0.01871285 -0.01689470 -0.09581834
v 0.01864537 -0.01849314 -0.09735851
v 0.01895916 -0.02283710 -0.09668719
v 0.01864537 -0.02225658 -0.09750304
v 0.01864537 -0.02180113 -0.09791258
v 0.01864537 -0.02114384 -0.09828678
v 0.02002873 -0.02016022 -0.09825948
v 0.02178997 -0.01867055 -0.09825627
v 0.02290762 -0.01747172 -0.09826429
v 0.02382788 -0.01689470 -0.09776001
v 0.02366002 -0.01747172 -0.09756408
v 0.02013332 -0.01689470 -0.09730229
v 0.01864537 -0.01852222 -0.09738742
v 0.01864537 -0.02058659 -0.09831409
v 0.01888409 -0.02059125 -0.09833015
v 0.02178997 -0.01747172 -0.09848111
v 0.02309150 -0.01689470 -0.09828357
v 0.02091019 -0.01689470 -0.09808282
v 0.01864537 -0.01940870 -0.09819363
v 0.01877696 -0.01935402 -0.09822414
v 0.02181527 -0.01689470 -0.09838957
v 0.02066557 -0.01747172 -0.09821933
f 1 2 7
f 1 7 12
f 1 12 25
f 1 25 38
f 1 38 48
f 1 48 59
f 1 59 66
f 1 66 70
f 1 70 67
f 1 67 61
f 1 61 50
f 1 50 41
f 1 41 27
f 1 27 13
f 1 13 8
f 1 8 3
f 1 3 4
f 1 4 5
f 1 5 6
f 1 6 2
f 2 6 7
f 3 8 4
f 4 8 13
f 4 13 26
f 4 26 39
f 4 39 28
f 4 28 14
f 4 14 9
f 4 9 5
f 5 9 10
f 5 10 6
f 6 10 7
f 7 10 11
f 7 11 12
f 9 14 15
f 9 15 10
f 10 15 11
f 11 16 17
f 11 17 18
f 11 18 19
f 11 19 20
f 11 20 21
f 11 21 12
f 11 15 22
f 11 22 23
f 11 23 16
f 12 21 24
f 12 24 25
f 13 27 26
f 14 28 22
f 14 22 15
f 16 23 36
f 16 36 39
f 16 39 26
f 16 26 40
f 16 40 49
f 16 49 52
f 16 52 42
f 16 42 30
f 16 30 29
f 16 29 17
f 17 29 30
f 17 30 18
f 18 31 32
f 18 32 33
f 18 33 34
f 18 34 19
f 18 30 31
f 19 34 20
f 20 24 21
f 20 34 35
f 20 35 24
f 22 28 39
f 22 39 36
f 22 36 23
f 24 35 25
f 25 35 37
f 25 37 38
f 26 27 40
f 27 41 51
f 27 51 62
f 27 62 68
f 27 68 63
f 27 63 55
f 27 55 54
f 27 54 53
f 27 53 49
f 27 49 40
f 30 42 43
f 30 43 31
f 31 43 44
f 31 44 32
f 32 44 45
f 32 45 33
f 33 45 46
f 33 46 34
f 34 46 37
f 34 37 35
f 37 46 44
f 37 44 47
f 37 47 48
f 37 48 38
f 41 50 51
f 42 52 53
f 42 53 43
f 43 53 54
f 43 54 55
f 43 55 56
f 43 56 44
f 44 56 57
f 44 57 58
f 44 58 59
f 44 59 60
f 44 60 47
f 44 46 45
f 47 60 48
f 48 60 59
f 49 53 52
f 50 61 51
f 51 61 62
f 55 63 64
f 55 64 65
f 55 65 56
f 56 65 57
f 57 65 58
f 58 65 66
f 58 66 59
f 61 67 62
f 62 67 68
f 63 68 69
f 63 69 65
f 63 65 64
f 65 70 66
f 65 69 70
f 67 70 71
f 67 71 68
f 68 71 69
f 69 71 70

