# https://github.com/mikedh/trimesh
v 0.01976530 0.00060366 -0.08570831
v 0.01980489 0.00060366 -0.08573297
v 0.01976530 0.00126652 -0.08576132
v 0.01976530 -0.00011789 -0.08570831
v 0.01980489 -0.00011789 -0.08573297
v 0.02019712 -0.00011789 -0.08613609
v 0.02055805 0.00060366 -0.08650716
v 0.01976530 0.00211836 -0.08585624
v 0.01976530 -0.00011789 -0.08821705
v 0.02055805 -0.00011789 -0.08650716
v 0.02088123 -0.00011789 -0.08689919
v 0.02117863 0.00060366 -0.08726040
v 0.01976530 0.00361731 -0.08602883
v 0.02446797 -0.00011789 -0.09471760
v 0.01976530 0.01450795 -0.09505908
v 0.02117863 -0.00011789 -0.08726040
v 0.02430131 0.00060366 -0.09162451
v 0.02109945 0.00183489 -0.08737135
v 0.01976530 0.00480988 -0.08623471
v 0.02446797 0.01028026 -0.09802027
v 0.02446797 -0.00011789 -0.09186367
v 0.02161690 0.01450795 -0.09721402
v 0.02243360 0.01450795 -0.09808683
v 0.02390125 0.01158880 -0.09814231
v 0.01976530 0.01450795 -0.09192038
v 0.02430131 -0.00011789 -0.09162451
v 0.02446797 0.00062800 -0.09186367
v 0.02420371 0.00211120 -0.09176135
v 0.02281248 0.00361731 -0.09009337
v 0.02271304 0.00512342 -0.09023268
v 0.02102855 0.00283849 -0.08746381
v 0.02140697 0.00512342 -0.08845992
v 0.01998857 0.00509049 -0.08660579
v 0.01976530 0.00528376 -0.08637649
v 0.02446797 0.01125522 -0.09825573
v 0.02263155 0.01450795 -0.09817313
v 0.02366416 0.01265252 -0.09828778
v 0.02446797 0.01147283 -0.09830135
v 0.02446797 0.01450652 -0.09530318
v 0.02354631 0.01450795 -0.09530688
v 0.01976530 0.01374774 -0.09130275
v 0.02446797 0.00499600 -0.09267115
v 0.02410427 0.00361731 -0.09189942
v 0.02356564 0.00361731 -0.09114618
v 0.02262281 0.00608836 -0.09035966
v 0.02215967 0.00512342 -0.08948067
v 0.02405271 0.00440186 -0.09197216
v 0.02446797 0.00505899 -0.09268718
v 0.01976530 0.00639759 -0.08681536
v 0.02292849 0.01450795 -0.09827669
v 0.02322681 0.01415147 -0.09828532
v 0.02446797 0.01299898 -0.09829641
v 0.02325858 0.01450795 -0.09828655
v 0.02446797 0.01450795 -0.09662474
v 0.01976530 0.01307915 -0.09077881
v 0.01976530 0.01228458 -0.09018953
v 0.01976530 0.01077275 -0.08919096
v 0.01976530 0.00985792 -0.08865839
v 0.01976530 0.00964031 -0.08853758
v 0.01976530 0.00779633 -0.08754148
v 0.01976530 0.00707620 -0.08715438
v 0.01976530 0.00662952 -0.08692631
v 0.02414847 0.01450795 -0.09826930
v 0.02446797 0.01390236 -0.09826930
v 0.02446797 0.01450795 -0.09805232
v 0.02430592 0.01450795 -0.09820765
v 0.02438878 0.01416006 -0.09826313
v 0.02446797 0.01407845 -0.09822861
f 1 2 3
f 1 3 8
f 1 8 13
f 1 13 19
f 1 19 34
f 1 34 49
f 1 49 62
f 1 62 61
f 1 61 60
f 1 60 59
f 1 59 58
f 1 58 57
f 1 57 56
f 1 56 55
f 1 55 41
f 1 41 25
f 1 25 15
f 1 15 9
f 1 9 4
f 1 4 5
f 1 5 2
f 2 5 6
f 2 6 7
f 2 7 3
f 3 7 8
f 4 9 14
f 4 14 21
f 4 21 26
f 4 26 16
f 4 16 11
f 4 11 10
f 4 10 6
f 4 6 5
f 6 10 7
f 7 10 11
f 7 11 12
f 7 12 13
f 7 13 8
f 9 15 14
f 11 16 12
f 12 17 18
f 12 18 13
f 12 16 26
f 12 26 17
f 13 18 19
f 14 20 35
f 14 35 38
f 14 38 52
f 14 52 64
f 14 64 68
f 14 68 65
f 14 65 54
f 14 54 39
f 14 39 48
f 14 48 42
f 14 42 27
f 14 27 21
f 14 15 22
f 14 22 23
f 14 23 24
f 14 24 20
f 15 25 40
f 15 40 54
f 15 54 65
f 15 65 66
f 15 66 63
f 15 63 53
f 15 53 50
f 15 50 36
f 15 36 23
f 15 23 22
f 17 27 28
f 17 28 18
f 17 26 21
f 17 21 27
f 18 28 29
f 18 29 30
f 18 30 31
f 18 31 19
f 19 31 32
f 19 32 33
f 19 33 34
f 20 24 35
f 23 36 37
f 23 37 24
f 24 37 38
f 24 38 35
f 25 39 40
f 25 41 39
f 27 42 28
f 28 42 43
f 28 43 44
f 28 44 29
f 29 44 30
f 30 45 46
f 30 46 31
f 30 44 47
f 30 47 42
f 30 42 48
f 30 48 45
f 31 46 32
f 32 46 45
f 32 45 39
f 32 39 33
f 33 39 34
f 34 39 49
f 36 50 37
f 37 50 51
f 37 51 38
f 38 51 53
f 38 53 52
f 39 54 40
f 39 41 55
f 39 55 56
f 39 56 57
f 39 57 58
f 39 58 59
f 39 59 60
f 39 60 61
f 39 61 62
f 39 62 49
f 39 45 48
f 42 47 43
f 43 47 44
f 50 53 51
f 52 53 63
f 52 63 64
f 63 66 67
f 63 67 64
f 64 67 68
f 65 68 66
f 66 68 67

