# https://github.com/mikedh/trimesh
v 0.02268299 -0.02283710 -0.09126942
v 0.02268299 -0.02283710 -0.09272892
v 0.02268205 -0.02283710 -0.08207725
v 0.02266211 -0.02286410 -0.08207725
v 0.02266211 -0.02286410 -0.09272892
v 0.02263552 -0.02283710 -0.09332130
v 0.02001704 -0.02283710 -0.08207725
v 0.02021357 -0.02477356 -0.08207725
v 0.02021357 -0.02477356 -0.09272892
v 0.01667037 -0.02737813 -0.09368022
v 0.02258141 -0.02283710 -0.09364369
v 0.01923378 -0.02552705 -0.09272892
v 0.01298475 -0.02745976 -0.08207725
v 0.01298475 -0.02283710 -0.09414237
v 0.01917871 -0.02556975 -0.08207725
v 0.01847995 -0.02610661 -0.09272892
v 0.01750015 -0.02685947 -0.09272892
v 0.01674727 -0.02743652 -0.09272892
v 0.01576463 -0.02794199 -0.09272892
v 0.01372054 -0.02885748 -0.09366434
v 0.01571146 -0.02759538 -0.09420271
v 0.01517409 -0.02735615 -0.09509843
v 0.01617762 -0.02702775 -0.09468392
v 0.01726565 -0.02650847 -0.09425989
v 0.01832804 -0.02599045 -0.09383427
v 0.01785998 -0.02562564 -0.09483797
v 0.02190543 -0.02283710 -0.09435676
v 0.01298475 -0.02925118 -0.08207725
v 0.01298475 -0.02283710 -0.09707249
v 0.01744509 -0.02690217 -0.08207725
v 0.01674727 -0.02743652 -0.08207725
v 0.01382783 -0.02890206 -0.09272892
v 0.01576463 -0.02793006 -0.08207725
v 0.01382783 -0.02890206 -0.08207725
v 0.01298475 -0.02925118 -0.09272892
v 0.01298475 -0.02895543 -0.09401690
v 0.01298475 -0.02860945 -0.09462358
v 0.01302273 -0.02856864 -0.09466804
v 0.01425886 -0.02755959 -0.09533665
v 0.01425886 -0.02690154 -0.09608943
v 0.01425886 -0.02614868 -0.09694861
v 0.01521587 -0.02590505 -0.09666116
v 0.01569722 -0.02646640 -0.09567651
v 0.01685645 -0.02602373 -0.09525089
v 0.01950721 -0.02423105 -0.09496979
v 0.02116488 -0.02284275 -0.09507778
v 0.02116773 -0.02283710 -0.09508096
v 0.01384587 -0.02283710 -0.09769345
v 0.01298475 -0.02311275 -0.09739965
v 0.01298475 -0.02851150 -0.09476174
v 0.01298475 -0.02786538 -0.09559552
v 0.01319742 -0.02713450 -0.09634671
v 0.01335312 -0.02567210 -0.09793644
v 0.01425886 -0.02543601 -0.09770140
v 0.01520353 -0.02440875 -0.09812702
v 0.01571146 -0.02495880 -0.09720431
v 0.01620705 -0.02400940 -0.09774904
v 0.01770428 -0.02283710 -0.09769345
v 0.01462438 -0.02283710 -0.09820007
v 0.01298475 -0.02390266 -0.09823342
v 0.01298475 -0.02743150 -0.09610213
v 0.01298475 -0.02681992 -0.09680727
v 0.01298475 -0.02620519 -0.09750764
v 0.01298475 -0.02528468 -0.09815084
v 0.01425886 -0.02468252 -0.09825884
v 0.01682797 -0.02300538 -0.09819849
v 0.01691247 -0.02283710 -0.09822071
v 0.01577602 -0.02283710 -0.09827948
v 0.01427215 -0.02347380 -0.09830013
v 0.01298475 -0.02505298 -0.09825089
v 0.01572950 -0.02350331 -0.09828583
f 1 2 6
f 1 6 11
f 1 11 27
f 1 27 47
f 1 47 58
f 1 58 67
f 1 67 68
f 1 68 59
f 1 59 48
f 1 48 29
f 1 29 14
f 1 14 7
f 1 7 3
f 1 3 4
f 1 4 5
f 1 5 2
f 2 5 6
f 3 7 13
f 3 13 28
f 3 28 34
f 3 34 33
f 3 33 31
f 3 31 30
f 3 30 15
f 3 15 8
f 3 8 4
f 4 8 9
f 4 9 5
f 5 9 6
f 6 10 11
f 6 9 12
f 6 12 10
f 7 14 13
f 8 15 9
f 9 15 12
f 10 12 16
f 10 16 17
f 10 17 18
f 10 18 19
f 10 19 20
f 10 20 21
f 10 21 22
f 10 22 23
f 10 23 24
f 10 24 25
f 10 25 11
f 11 25 24
f 11 24 26
f 11 26 27
f 12 15 16
f 13 14 29
f 13 29 49
f 13 49 60
f 13 60 70
f 13 70 64
f 13 64 63
f 13 63 62
f 13 62 61
f 13 61 51
f 13 51 50
f 13 50 37
f 13 37 36
f 13 36 35
f 13 35 28
f 15 30 16
f 16 30 17
f 17 30 18
f 18 30 31
f 18 31 19
f 19 32 20
f 19 31 33
f 19 33 34
f 19 34 32
f 20 32 35
f 20 35 36
f 20 36 37
f 20 37 38
f 20 38 22
f 20 22 21
f 22 38 39
f 22 39 40
f 22 40 41
f 22 41 42
f 22 42 43
f 22 43 23
f 23 43 44
f 23 44 26
f 23 26 24
f 26 44 45
f 26 45 27
f 27 45 46
f 27 46 47
f 28 35 32
f 28 32 34
f 29 48 49
f 37 50 38
f 38 50 39
f 39 50 51
f 39 51 52
f 39 52 40
f 40 52 41
f 41 52 53
f 41 53 54
f 41 54 42
f 42 54 55
f 42 55 56
f 42 56 46
f 42 46 44
f 42 44 43
f 44 46 45
f 46 56 57
f 46 57 47
f 47 57 58
f 48 59 60
f 48 60 49
f 51 61 52
f 52 61 62
f 52 62 63
f 52 63 53
f 53 64 65
f 53 65 55
f 53 55 54
f 53 63 64
f 55 57 56
f 55 65 66
f 55 66 57
f 57 66 58
f 58 66 67
f 59 68 69
f 59 69 60
f 60 69 70
f 64 70 65
f 65 70 69
f 65 69 71
f 65 71 66
f 66 71 67
f 67 71 68
f 68 71 69

