# https://github.com/mikedh/trimesh
v 0.02113653 -0.02042065 -0.00057757
v -0.00004001 -0.02955370 -0.00057757
v 0.02113653 -0.02282178 -0.00057757
v 0.02113653 -0.02190651 -0.04089887
v -0.00004001 -0.03082632 -0.04089887
v -0.00004001 -0.03110182 -0.00057757
v 0.02050845 -0.02331399 -0.00057757
v 0.02113653 -0.02284022 -0.00058546
v 0.02113653 -0.02402061 -0.04089887
v -0.00004001 -0.03219576 -0.04089887
v 0.00070208 -0.03110182 -0.00057757
v -0.00004001 -0.03179806 -0.00302463
v 0.01692651 -0.02607132 -0.00057757
v 0.02113653 -0.02293936 -0.00096831
v 0.01971454 -0.02439295 -0.00235761
v 0.01996950 -0.02458776 -0.00386137
v 0.02021410 -0.02477450 -0.04089887
v 0.02113653 -0.02402061 -0.00687284
v 0.00070208 -0.03219691 -0.04089887
v -0.00004001 -0.03219576 -0.00687284
v 0.00220906 -0.03098424 -0.00057757
v 0.00009058 -0.03179806 -0.00302463
v -0.00004001 -0.03212313 -0.00536908
v 0.01582167 -0.02683327 -0.00057757
v 0.01659071 -0.02731741 -0.00439815
v 0.01823450 -0.02591916 -0.00386137
v 0.02113653 -0.02329901 -0.00235761
v 0.02015399 -0.02472954 -0.00536908
v 0.02113653 -0.02368517 -0.00390084
v 0.01892477 -0.02576584 -0.04089887
v 0.02021410 -0.02477450 -0.00687284
v 0.02113653 -0.02393647 -0.00536908
v 0.00220906 -0.03200210 -0.04089887
v 0.00070208 -0.03219691 -0.00687284
v 0.00371605 -0.03081940 -0.00057757
v 0.00070208 -0.03212313 -0.00536908
v 0.00063575 -0.03189950 -0.00384558
v 0.01573046 -0.02689321 -0.00057757
v 0.01572631 -0.02693125 -0.00071176
v 0.01584654 -0.02761712 -0.00388110
v 0.01576363 -0.02787533 -0.00536908
v 0.01668606 -0.02739119 -0.00536908
v 0.01842106 -0.02606209 -0.00536908
v 0.01556670 -0.02700041 -0.00057757
v 0.01520188 -0.02736929 -0.00111829
v 0.01544648 -0.02750646 -0.00235761
v 0.02113653 -0.02387998 -0.00502965
v 0.01749863 -0.02685978 -0.04089887
v 0.01847910 -0.02610705 -0.00687284
v 0.01749863 -0.02685978 -0.00687284
v 0.00270863 -0.03193639 -0.04089887
v 0.00220906 -0.03200210 -0.00687284
v 0.00327038 -0.03182112 -0.00570062
v 0.00520438 -0.03062459 -0.00057757
v 0.00189813 -0.03183841 -0.00433500
v 0.00232307 -0.03190411 -0.00526646
v 0.01359332 -0.02880558 -0.00444946
v 0.01448466 -0.02849896 -0.00536908
v 0.01382756 -0.02890126 -0.00687284
v 0.01576363 -0.02792951 -0.00687284
v 0.01674617 -0.02743615 -0.00687284
v 0.01453234 -0.02754796 -0.00057757
v 0.01674617 -0.02743615 -0.04089887
v 0.00342584 -0.03184187 -0.04089887
v 0.00342584 -0.03184187 -0.00687284
v 0.00823493 -0.03098193 -0.00536908
v 0.00672794 -0.03105225 -0.00386137
v 0.00552982 -0.03058194 -0.00057757
v 0.00672794 -0.03079173 -0.00235761
v 0.00671758 -0.03042517 -0.00057757
v 0.01279319 -0.02901769 -0.00391268
v 0.00936050 -0.03042863 -0.00386137
v 0.00982068 -0.03049779 -0.00550327
v 0.01275173 -0.02926898 -0.00536908
v 0.01373220 -0.02886322 -0.00536908
v 0.01440174 -0.02763326 -0.00071176
v 0.01436651 -0.02761828 -0.00057757
v 0.01204903 -0.02878945 -0.00150509
v 0.01113903 -0.02896005 -0.00057757
v 0.01050058 -0.03027762 -0.00609136
v 0.01275173 -0.02934737 -0.00687284
v 0.01382756 -0.02890126 -0.04089887
v 0.01576363 -0.02792951 -0.04089887
v 0.00823493 -0.03102343 -0.04089887
v 0.00823493 -0.03102343 -0.00687284
v 0.00973984 -0.03059462 -0.00687284
v 0.00823493 -0.03078712 -0.00386137
v 0.00777889 -0.03036177 -0.00118144
v 0.00680257 -0.03044822 -0.00074728
v 0.00696425 -0.03037445 -0.00057757
v 0.00910139 -0.03032142 -0.00289833
v 0.00973984 -0.02948569 -0.00057757
v 0.01050473 -0.03027877 -0.00687284
v 0.01275173 -0.02934737 -0.04089887
v 0.00973984 -0.03059462 -0.04089887
v 0.01005284 -0.03046551 -0.04089887
v 0.00826187 -0.03047012 -0.00238129
v 0.00843807 -0.02993871 -0.00057757
v 0.00799447 -0.03008050 -0.00057757
v 0.01050473 -0.03027877 -0.04089887
f 1 2 6
f 1 6 11
f 1 11 21
f 1 21 35
f 1 35 54
f 1 54 68
f 1 68 70
f 1 70 90
f 1 90 99
f 1 99 98
f 1 98 92
f 1 92 79
f 1 79 77
f 1 77 62
f 1 62 44
f 1 44 38
f 1 38 24
f 1 24 13
f 1 13 7
f 1 7 3
f 1 3 8
f 1 8 14
f 1 14 27
f 1 27 29
f 1 29 47
f 1 47 32
f 1 32 18
f 1 18 9
f 1 9 4
f 1 4 5
f 1 5 2
f 2 5 10
f 2 10 20
f 2 20 23
f 2 23 12
f 2 12 6
f 3 7 8
f 4 9 17
f 4 17 30
f 4 30 48
f 4 48 63
f 4 63 83
f 4 83 82
f 4 82 94
f 4 94 100
f 4 100 96
f 4 96 95
f 4 95 84
f 4 84 64
f 4 64 51
f 4 51 33
f 4 33 19
f 4 19 10
f 4 10 5
f 6 12 22
f 6 22 11
f 7 13 8
f 8 13 15
f 8 15 16
f 8 16 14
f 9 18 31
f 9 31 17
f 10 19 34
f 10 34 20
f 11 22 21
f 12 23 36
f 12 36 22
f 13 24 25
f 13 25 26
f 13 26 16
f 13 16 15
f 14 16 27
f 16 26 25
f 16 25 28
f 16 28 29
f 16 29 27
f 17 31 30
f 18 32 31
f 19 33 52
f 19 52 34
f 20 34 23
f 21 22 35
f 22 36 37
f 22 37 35
f 23 34 36
f 24 38 39
f 24 39 25
f 25 40 41
f 25 41 42
f 25 42 43
f 25 43 28
f 25 39 44
f 25 44 45
f 25 45 46
f 25 46 40
f 28 43 31
f 28 31 32
f 28 32 47
f 28 47 29
f 30 31 49
f 30 49 50
f 30 50 48
f 31 43 49
f 33 51 52
f 34 52 53
f 34 53 36
f 35 37 55
f 35 55 54
f 36 53 56
f 36 56 55
f 36 55 37
f 38 44 39
f 40 57 41
f 40 46 57
f 41 58 59
f 41 59 60
f 41 60 61
f 41 61 42
f 41 57 58
f 42 61 50
f 42 50 43
f 43 50 49
f 44 62 45
f 45 62 57
f 45 57 46
f 48 50 61
f 48 61 63
f 51 64 65
f 51 65 52
f 52 65 53
f 53 66 67
f 53 67 56
f 53 65 66
f 54 55 68
f 55 56 67
f 55 67 69
f 55 69 70
f 55 70 68
f 57 71 72
f 57 72 73
f 57 73 74
f 57 74 75
f 57 75 58
f 57 62 76
f 57 76 77
f 57 77 78
f 57 78 79
f 57 79 71
f 58 75 59
f 59 75 80
f 59 80 81
f 59 81 94
f 59 94 82
f 59 82 83
f 59 83 60
f 60 83 63
f 60 63 61
f 62 77 76
f 64 84 85
f 64 85 65
f 65 85 66
f 66 85 86
f 66 86 73
f 66 73 87
f 66 87 67
f 67 87 69
f 69 88 89
f 69 89 70
f 69 87 88
f 70 89 88
f 70 88 90
f 71 79 72
f 72 87 73
f 72 79 91
f 72 91 87
f 73 86 80
f 73 80 75
f 73 75 74
f 77 79 78
f 79 92 91
f 80 86 93
f 80 93 81
f 81 93 100
f 81 100 94
f 84 95 86
f 84 86 85
f 86 95 96
f 86 96 93
f 87 91 97
f 87 97 88
f 88 97 91
f 88 91 92
f 88 92 98
f 88 98 99
f 88 99 90
f 93 96 100

