# https://github.com/mikedh/trimesh
v 0.01426764 0.02381820 -0.09827773
v 0.01370543 0.02381820 -0.09827614
v 0.01124589 0.02583956 -0.09829524
v 0.01497348 0.02381820 -0.09827296
v 0.01079880 0.02480021 -0.09827455
v 0.01257653 0.02381820 -0.09821087
v 0.01079880 0.02596431 -0.09828729
v 0.01079880 0.02624041 -0.09810741
v 0.01236920 0.02561077 -0.09814243
v 0.01425758 0.02438754 -0.09826022
v 0.01521938 0.02411558 -0.09813128
v 0.01538984 0.02381820 -0.09818223
v 0.01223954 0.02381820 -0.09811537
v 0.01187852 0.02390097 -0.09805328
v 0.01079880 0.02417943 -0.09782884
v 0.01079880 0.02668500 -0.09768080
v 0.01337347 0.02537251 -0.09793708
v 0.01425758 0.02514075 -0.09770309
v 0.01522944 0.02560840 -0.09666363
v 0.01572627 0.02467783 -0.09722077
v 0.01617280 0.02381820 -0.09772060
v 0.01597664 0.02381820 -0.09786386
v 0.01194390 0.02381820 -0.09798802
v 0.01087480 0.02411322 -0.09779541
v 0.01079880 0.02412918 -0.09777472
v 0.01079880 0.02684522 -0.09749456
v 0.01278387 0.02622385 -0.09726375
v 0.01425758 0.02585198 -0.09695016
v 0.01570615 0.02617656 -0.09568785
v 0.01650756 0.02587977 -0.09540610
v 0.01623371 0.02524007 -0.09627682
v 0.01517859 0.02705747 -0.09509888
v 0.01650756 0.02438045 -0.09691991
v 0.01635610 0.02381820 -0.09757733
v 0.01080271 0.02381820 -0.09737199
v 0.01079880 0.02381820 -0.09730991
v 0.01079880 0.02730696 -0.09695653
v 0.01124589 0.02724015 -0.09681963
v 0.01201823 0.02847756 -0.09499859
v 0.01319799 0.02683635 -0.09634686
v 0.01425758 0.02726025 -0.09533606
v 0.01425758 0.02660519 -0.09608899
v 0.01618230 0.02674412 -0.09468978
v 0.01650756 0.02628061 -0.09495880
v 0.01650756 0.02513484 -0.09617176
v 0.01650756 0.02482031 -0.09648376
v 0.01302250 0.02826946 -0.09466909
v 0.01371996 0.02855856 -0.09366465
v 0.01571398 0.02729573 -0.09420746
v 0.01650756 0.02711600 -0.09377449
v 0.01650756 0.02381820 -0.09745795
v 0.01079880 0.02381820 -0.09449081
v 0.01079880 0.02808559 -0.09604601
v 0.01124589 0.02863719 -0.09518484
v 0.01079880 0.02894995 -0.09499064
v 0.01079880 0.02945248 -0.09418677
v 0.01650756 0.02658863 -0.09456722
v 0.01079880 0.02955062 -0.09401963
v 0.01079880 0.02968246 -0.09378723
v 0.01079880 0.02985568 -0.09318870
v 0.01382726 0.02860290 -0.09272867
v 0.01576427 0.02764218 -0.09272867
v 0.01650756 0.02718044 -0.09351343
v 0.01650756 0.02381820 -0.09481235
v 0.01650756 0.02523889 -0.08203327
v 0.01079880 0.02806490 -0.08203327
v 0.01079880 0.02872647 -0.09529308
v 0.01079880 0.02985805 -0.09272867
v 0.01275202 0.02904868 -0.09272867
v 0.01371828 0.02864843 -0.08203327
v 0.01382726 0.02860290 -0.08203327
v 0.01650756 0.02726025 -0.09272867
v 0.01576427 0.02763095 -0.08203327
v 0.01650756 0.02725730 -0.08203327
v 0.01079880 0.02985805 -0.08203327
f 1 2 3
f 1 3 4
f 1 4 12
f 1 12 22
f 1 22 21
f 1 21 34
f 1 34 51
f 1 51 64
f 1 64 52
f 1 52 36
f 1 36 35
f 1 35 23
f 1 23 13
f 1 13 6
f 1 6 2
f 2 5 3
f 2 6 5
f 3 7 8
f 3 8 9
f 3 9 10
f 3 10 4
f 3 5 7
f 4 10 11
f 4 11 12
f 5 6 13
f 5 13 14
f 5 14 15
f 5 15 25
f 5 25 36
f 5 36 52
f 5 52 66
f 5 66 75
f 5 75 68
f 5 68 60
f 5 60 59
f 5 59 58
f 5 58 56
f 5 56 55
f 5 55 67
f 5 67 53
f 5 53 37
f 5 37 26
f 5 26 16
f 5 16 8
f 5 8 7
f 8 16 9
f 9 16 17
f 9 17 11
f 9 11 10
f 11 17 18
f 11 18 19
f 11 19 20
f 11 20 21
f 11 21 22
f 11 22 12
f 13 23 14
f 14 23 24
f 14 24 15
f 15 24 25
f 16 26 27
f 16 27 17
f 17 27 28
f 17 28 18
f 18 28 19
f 19 29 30
f 19 30 31
f 19 31 20
f 19 28 32
f 19 32 29
f 20 31 33
f 20 33 21
f 21 33 34
f 23 35 24
f 24 35 25
f 25 35 36
f 26 37 38
f 26 38 27
f 27 38 39
f 27 39 40
f 27 40 41
f 27 41 42
f 27 42 28
f 28 42 32
f 29 32 43
f 29 43 44
f 29 44 30
f 30 45 31
f 30 44 57
f 30 57 50
f 30 50 63
f 30 63 72
f 30 72 74
f 30 74 65
f 30 65 64
f 30 64 51
f 30 51 33
f 30 33 46
f 30 46 45
f 31 45 46
f 31 46 33
f 32 39 47
f 32 47 48
f 32 48 49
f 32 49 50
f 32 50 43
f 32 42 41
f 32 41 39
f 33 51 34
f 37 53 38
f 38 53 54
f 38 54 39
f 39 41 40
f 39 54 55
f 39 55 56
f 39 56 47
f 43 57 44
f 43 50 57
f 47 56 58
f 47 58 48
f 48 58 59
f 48 59 60
f 48 60 61
f 48 61 62
f 48 62 63
f 48 63 50
f 48 50 49
f 52 64 65
f 52 65 66
f 53 67 54
f 54 67 55
f 60 68 69
f 60 69 61
f 61 69 70
f 61 70 71
f 61 71 62
f 62 72 63
f 62 71 73
f 62 73 74
f 62 74 72
f 65 74 73
f 65 73 71
f 65 71 70
f 65 70 75
f 65 75 66
f 68 75 70
f 68 70 69

