# https://github.com/mikedh/trimesh
v -0.02159218 -0.00018111 -0.07787252
v -0.01491856 0.00060440 -0.07790070
v -0.01491856 -0.00018111 -0.07789388
v -0.02159218 -0.00018111 -0.07656256
v -0.02159218 0.01603050 -0.07788012
v -0.01491856 0.00116140 -0.07790070
v -0.01491856 -0.00018111 -0.07656256
v -0.02159218 0.01603050 -0.07656203
v -0.02075014 0.01603050 -0.07788012
v -0.01491856 0.01603050 -0.07787252
v -0.01491856 0.01603050 -0.07656256
f 1 2 3
f 1 3 7
f 1 7 4
f 1 4 8
f 1 8 5
f 1 5 2
f 2 5 6
f 2 6 10
f 2 10 11
f 2 11 7
f 2 7 3
f 4 7 8
f 5 8 11
f 5 11 10
f 5 10 9
f 5 9 6
f 6 9 10
f 7 11 8

