# https://github.com/mikedh/trimesh
v 0.01650756 0.01450795 -0.07787242
v 0.02624742 0.01450795 -0.07962957
v 0.01650756 0.01450795 -0.07656292
v 0.01650756 0.02488192 -0.07962957
v 0.02831409 0.01450795 -0.07962957
v 0.02606892 0.01450795 -0.07556498
v 0.01650756 0.02468079 -0.07556498
v 0.01650756 0.02726304 -0.07962957
v 0.02814254 0.01485900 -0.07962957
v 0.02832220 0.01450795 -0.07917357
v 0.02831177 0.01450795 -0.07556498
v 0.01650756 0.02725679 -0.07556498
v 0.01650756 0.02726929 -0.07880710
v 0.01665128 0.02718808 -0.07962957
v 0.02774729 0.01566728 -0.07962957
v 0.02775540 0.01566728 -0.07917357
v 0.02778206 0.01566728 -0.07766711
v 0.02834770 0.01450795 -0.07769934
v 0.02832220 0.01450795 -0.07616144
v 0.02774497 0.01566728 -0.07556498
v 0.01674749 0.02713686 -0.07556498
v 0.01650756 0.02726304 -0.07616144
v 0.01674749 0.02713686 -0.07962957
v 0.01650756 0.02726929 -0.07766711
v 0.02759777 0.01596461 -0.07962957
v 0.02723497 0.01664921 -0.07962957
v 0.02723497 0.01664921 -0.07556498
v 0.02834770 0.01450795 -0.07766711
v 0.01749974 0.02656095 -0.07556498
v 0.01749974 0.02656095 -0.07962957
v 0.02665890 0.01740252 -0.07962957
v 0.02665890 0.01740252 -0.07556498
v 0.01848149 0.02580764 -0.07556498
v 0.01848149 0.02580764 -0.07962957
v 0.02643056 0.01769985 -0.07962957
v 0.02590549 0.01838320 -0.07556498
v 0.02021550 0.02447466 -0.07556498
v 0.02021550 0.02447466 -0.07766711
v 0.02021550 0.02447341 -0.07962957
v 0.02590549 0.01838320 -0.07962957
v 0.02567599 0.01868178 -0.07556498
v 0.02178955 0.02324662 -0.07766711
v 0.02266235 0.02256452 -0.07556498
v 0.02266235 0.02256452 -0.07962957
v 0.02457137 0.02011719 -0.07962957
v 0.02457253 0.02011719 -0.07766711
v 0.02457253 0.02011719 -0.07556498
v 0.02334505 0.02169128 -0.07766711
f 1 2 5
f 1 5 10
f 1 10 18
f 1 18 28
f 1 28 19
f 1 19 11
f 1 11 6
f 1 6 3
f 1 3 7
f 1 7 12
f 1 12 22
f 1 22 24
f 1 24 13
f 1 13 8
f 1 8 4
f 1 4 2
f 2 4 8
f 2 8 14
f 2 14 23
f 2 23 30
f 2 30 34
f 2 34 39
f 2 39 44
f 2 44 45
f 2 45 40
f 2 40 35
f 2 35 31
f 2 31 26
f 2 26 25
f 2 25 15
f 2 15 9
f 2 9 5
f 3 6 7
f 5 9 10
f 6 11 20
f 6 20 27
f 6 27 32
f 6 32 36
f 6 36 41
f 6 41 47
f 6 47 43
f 6 43 37
f 6 37 33
f 6 33 29
f 6 29 21
f 6 21 12
f 6 12 7
f 8 13 14
f 9 15 16
f 9 16 17
f 9 17 10
f 10 17 18
f 11 19 17
f 11 17 20
f 12 21 22
f 13 23 14
f 13 24 21
f 13 21 23
f 15 25 16
f 16 25 17
f 17 25 26
f 17 26 27
f 17 27 20
f 17 19 28
f 17 28 18
f 21 24 22
f 21 29 30
f 21 30 23
f 26 31 32
f 26 32 27
f 29 33 34
f 29 34 30
f 31 35 32
f 32 35 36
f 33 37 38
f 33 38 34
f 34 38 39
f 35 40 36
f 36 40 41
f 37 42 38
f 37 43 42
f 38 42 44
f 38 44 39
f 40 45 46
f 40 46 41
f 41 46 47
f 42 43 44
f 43 47 48
f 43 48 44
f 44 48 45
f 45 48 46
f 46 48 47

