# https://github.com/mikedh/trimesh
v 0.01976529 0.01450795 -0.09505972
v 0.01976529 0.01450795 -0.09191784
v 0.01976529 -0.00011789 -0.08821501
v -0.00004001 0.01450795 -0.08429931
v 0.01976529 0.01374774 -0.09130096
v 0.01929614 0.01450795 -0.09140506
v 0.01944735 0.01328675 -0.09055356
v 0.01976529 -0.00011789 -0.08570710
v 0.00672784 -0.00011789 -0.07919181
v -0.00004001 0.00647490 -0.07918559
v -0.00004001 0.01444066 -0.08425735
v -0.00004001 0.01450795 -0.08235700
v 0.01976529 0.01307915 -0.09077731
v 0.01526955 0.01450795 -0.08717704
v 0.01499620 0.01338839 -0.08596193
v 0.01686894 0.01234471 -0.08707759
v 0.01787317 0.01170190 -0.08761367
v 0.01821825 0.01069687 -0.08720656
v 0.01976529 0.01228458 -0.09018840
v 0.01194282 -0.00011789 -0.07918559
v 0.01976529 0.00060366 -0.08570710
v 0.00672784 -0.00011789 -0.07918559
v 0.00671814 -0.00011073 -0.07918559
v -0.00004001 0.01178207 -0.07918559
v 0.00021395 0.01450795 -0.08236477
v 0.01482754 0.01450795 -0.08673886
v 0.01673130 0.01069687 -0.08582364
v 0.01635520 0.01170047 -0.08607381
v 0.01730126 0.01119938 -0.08664096
v 0.01464530 0.01416006 -0.08627891
v 0.01373220 0.01450795 -0.08584073
v 0.00830978 0.00837758 -0.07918559
v 0.00838345 0.00829598 -0.07918559
v 0.00844161 0.00822869 -0.07918559
v 0.00977734 0.00664813 -0.07918559
v 0.01773552 0.00990373 -0.08620433
v 0.01802826 0.00889871 -0.08594795
v 0.01837722 0.00949714 -0.08670622
v 0.01961408 0.01055943 -0.08885364
v 0.01976529 0.01077275 -0.08919083
v 0.01194282 0.00060366 -0.07918559
v 0.01976529 0.00126652 -0.08576148
v 0.00026436 0.01175344 -0.07918559
v 0.00263921 0.01450795 -0.08255123
v 0.00220883 0.01450795 -0.08250617
v 0.00127440 0.01450795 -0.08242847
v 0.00070249 0.01450795 -0.08238186
v 0.01448827 0.01450795 -0.08644051
v 0.01309826 0.01450795 -0.08553928
v 0.00674528 0.00968898 -0.07918559
v 0.01067300 0.00512342 -0.07918559
v 0.01943378 0.00557153 -0.08603807
v 0.01976529 0.00662952 -0.08692532
v 0.01976529 0.00707620 -0.08715218
v 0.01964316 0.00765746 -0.08730756
v 0.01131857 0.00374330 -0.07918559
v 0.01132245 0.00373471 -0.07918559
v 0.01921665 0.00964031 -0.08784364
v 0.01976529 0.00964031 -0.08853666
v 0.01976529 0.00985792 -0.08865786
v 0.01177609 0.00175042 -0.07918559
v 0.01963153 0.00361731 -0.08586248
v 0.01957143 0.00456650 -0.08591376
v 0.01976529 0.00211836 -0.08585627
v 0.00070249 0.01170619 -0.07918559
v 0.00356589 0.01450795 -0.08266621
v 0.01275124 0.01450795 -0.08539166
v 0.00522150 0.01035470 -0.07918559
v 0.01176640 0.01450795 -0.08499854
v 0.01976529 0.00528376 -0.08637681
v 0.01976529 0.00639759 -0.08681655
v 0.01976529 0.00779633 -0.08754064
v 0.01171600 0.00211120 -0.07918559
v 0.01976529 0.00361731 -0.08602874
v 0.01976529 0.00480988 -0.08623541
v 0.00234260 0.01142559 -0.07918559
v 0.00394005 0.01450795 -0.08275012
v 0.00244728 0.01140411 -0.07918559
v 0.00376945 0.01097748 -0.07918559
v 0.01135541 0.01450795 -0.08485559
v 0.00522150 0.01450795 -0.08304691
v 0.00362211 0.01103331 -0.07918559
v 0.00948073 0.01450795 -0.08421385
v 0.00732300 0.01450795 -0.08360940
v 0.00679569 0.01450795 -0.08346178
v 0.00968429 0.01450795 -0.08427755
f 1 2 5
f 1 5 13
f 1 13 19
f 1 19 40
f 1 40 60
f 1 60 59
f 1 59 72
f 1 72 54
f 1 54 53
f 1 53 71
f 1 71 70
f 1 70 75
f 1 75 74
f 1 74 64
f 1 64 42
f 1 42 21
f 1 21 8
f 1 8 3
f 1 3 4
f 1 4 12
f 1 12 25
f 1 25 47
f 1 47 46
f 1 46 45
f 1 45 44
f 1 44 66
f 1 66 77
f 1 77 81
f 1 81 85
f 1 85 84
f 1 84 83
f 1 83 86
f 1 86 80
f 1 80 69
f 1 69 67
f 1 67 49
f 1 49 31
f 1 31 48
f 1 48 26
f 1 26 14
f 1 14 6
f 1 6 2
f 2 6 7
f 2 7 5
f 3 8 20
f 3 20 22
f 3 22 9
f 3 9 10
f 3 10 11
f 3 11 4
f 4 11 10
f 4 10 24
f 4 24 12
f 5 7 13
f 6 14 15
f 6 15 7
f 7 15 16
f 7 16 17
f 7 17 18
f 7 18 19
f 7 19 13
f 8 21 41
f 8 41 20
f 9 22 23
f 9 23 10
f 10 23 22
f 10 22 20
f 10 20 41
f 10 41 61
f 10 61 73
f 10 73 57
f 10 57 56
f 10 56 51
f 10 51 35
f 10 35 34
f 10 34 33
f 10 33 32
f 10 32 50
f 10 50 68
f 10 68 79
f 10 79 82
f 10 82 78
f 10 78 76
f 10 76 65
f 10 65 43
f 10 43 24
f 12 24 25
f 14 26 15
f 15 27 28
f 15 28 29
f 15 29 16
f 15 26 30
f 15 30 31
f 15 31 32
f 15 32 33
f 15 33 34
f 15 34 35
f 15 35 27
f 16 29 17
f 17 29 18
f 18 29 36
f 18 36 37
f 18 37 38
f 18 38 39
f 18 39 19
f 19 39 40
f 21 42 41
f 24 43 44
f 24 44 45
f 24 45 46
f 24 46 47
f 24 47 25
f 26 48 30
f 27 37 36
f 27 36 28
f 27 35 37
f 28 36 29
f 30 48 31
f 31 49 50
f 31 50 32
f 35 51 37
f 37 52 53
f 37 53 54
f 37 54 55
f 37 55 38
f 37 51 56
f 37 56 57
f 37 57 52
f 38 58 39
f 38 55 58
f 39 58 59
f 39 59 60
f 39 60 40
f 41 42 62
f 41 62 63
f 41 63 61
f 42 64 62
f 43 65 44
f 44 65 66
f 49 67 50
f 50 67 69
f 50 69 68
f 52 63 70
f 52 70 71
f 52 71 53
f 52 57 63
f 54 72 55
f 55 72 59
f 55 59 58
f 57 73 63
f 61 63 73
f 62 64 74
f 62 74 63
f 63 74 75
f 63 75 70
f 65 76 66
f 66 76 78
f 66 78 77
f 68 69 79
f 69 80 79
f 77 78 81
f 78 82 83
f 78 83 84
f 78 84 85
f 78 85 81
f 79 80 86
f 79 86 82
f 82 86 83

