# https://github.com/mikedh/trimesh
v -0.00762552 -0.02656142 -0.09829838
v -0.00700768 -0.02656142 -0.09826727
v -0.00982670 -0.02656142 -0.09827184
v -0.01134779 -0.02613784 -0.09829472
v -0.00984197 -0.02539833 -0.09828832
v -0.00577201 -0.02656142 -0.09818400
v -0.01087443 -0.02656142 -0.09809615
v -0.01142532 -0.02494900 -0.09826819
v -0.01203963 -0.02599665 -0.09820047
v -0.01203963 -0.02568383 -0.09827368
v -0.01203963 -0.02501180 -0.09825995
v -0.01203963 -0.02454102 -0.09823982
v -0.00020210 -0.02656142 -0.09766882
v -0.00159517 -0.02656142 -0.09780974
v -0.00298706 -0.02656142 -0.09793968
v -0.01172484 -0.02656142 -0.09776308
v -0.01203963 -0.02628605 -0.09792321
v -0.01203963 -0.02615968 -0.09804492
v -0.01203963 -0.02418530 -0.09806504
v -0.00004001 -0.02656142 -0.09765052
v -0.01203963 -0.02656142 -0.09761575
v -0.01203963 -0.02412407 -0.09799550
v -0.00004001 -0.02621897 -0.09719025
v -0.00004001 -0.02656142 -0.09442312
v -0.01203963 -0.02353706 -0.09726620
v -0.01203963 -0.02257678 -0.09606930
v -0.01203963 -0.02656142 -0.09482300
v -0.00004001 -0.02267819 -0.09207234
v -0.00004001 -0.02398404 -0.09084341
v -0.00088337 -0.02656142 -0.09444599
v -0.01203963 -0.02257678 -0.09302766
v -0.00004001 -0.02257678 -0.09191495
v -0.00652727 -0.02257678 -0.09013058
v -0.00833497 -0.02257678 -0.09096420
v -0.00861922 -0.02257678 -0.09110604
v -0.00957534 -0.02257678 -0.09158552
v -0.01027657 -0.02257678 -0.09198357
v -0.01171544 -0.02257678 -0.09281719
v -0.00004001 -0.02323088 -0.08979933
v -0.00080467 -0.02257678 -0.08898950
v -0.00381749 -0.02257678 -0.08948455
v -0.00416987 -0.02257678 -0.08954952
v -0.00532449 -0.02257678 -0.08977462
v -0.00578728 -0.02257678 -0.08988992
v -0.00004001 -0.02257678 -0.08895016
f 1 2 6
f 1 6 15
f 1 15 14
f 1 14 13
f 1 13 20
f 1 20 24
f 1 24 30
f 1 30 27
f 1 27 21
f 1 21 16
f 1 16 7
f 1 7 3
f 1 3 4
f 1 4 5
f 1 5 2
f 2 5 6
f 3 7 4
f 4 8 5
f 4 7 9
f 4 9 10
f 4 10 11
f 4 11 8
f 5 8 12
f 5 12 13
f 5 13 14
f 5 14 15
f 5 15 6
f 7 16 17
f 7 17 18
f 7 18 9
f 8 11 12
f 9 18 17
f 9 17 21
f 9 21 27
f 9 27 31
f 9 31 26
f 9 26 25
f 9 25 22
f 9 22 19
f 9 19 12
f 9 12 11
f 9 11 10
f 12 19 20
f 12 20 13
f 16 21 17
f 19 22 20
f 20 23 28
f 20 28 32
f 20 32 45
f 20 45 39
f 20 39 29
f 20 29 24
f 20 22 25
f 20 25 26
f 20 26 23
f 23 26 28
f 24 29 30
f 26 31 38
f 26 38 37
f 26 37 36
f 26 36 35
f 26 35 34
f 26 34 33
f 26 33 44
f 26 44 43
f 26 43 42
f 26 42 41
f 26 41 40
f 26 40 45
f 26 45 32
f 26 32 28
f 27 33 34
f 27 34 35
f 27 35 36
f 27 36 37
f 27 37 38
f 27 38 31
f 27 30 29
f 27 29 39
f 27 39 40
f 27 40 41
f 27 41 42
f 27 42 43
f 27 43 44
f 27 44 33
f 39 45 40

