# https://github.com/mikedh/trimesh
v 0.02113653 -0.02402056 -0.04089887
v 0.02113653 -0.02190569 -0.04089887
v 0.02266296 -0.02286147 -0.04089887
v 0.02113653 -0.02402056 -0.00687284
v 0.03062570 -0.00014704 -0.04089887
v 0.02113653 -0.02041944 -0.00057757
v 0.02935226 -0.00014704 -0.00057757
v 0.02457313 -0.02041476 -0.04089887
v 0.02266296 -0.02286147 -0.00687284
v 0.02261726 -0.02281707 -0.00536908
v 0.02113653 -0.02393410 -0.00536908
v 0.03199587 -0.00014704 -0.04089887
v 0.02113653 -0.02281941 -0.00057757
v 0.03090101 -0.00014704 -0.00057757
v 0.02590610 -0.01868080 -0.04089887
v 0.02457313 -0.02041476 -0.00687284
v 0.02452848 -0.02035634 -0.00536908
v 0.02256198 -0.02276099 -0.00454418
v 0.02113653 -0.02387801 -0.00502965
v 0.03199481 -0.00090419 -0.04089887
v 0.03199587 -0.00014704 -0.00687284
v 0.02113653 -0.02283810 -0.00058546
v 0.02114823 -0.02282876 -0.00057757
v 0.03090101 -0.00090419 -0.00057757
v 0.03159726 -0.00014704 -0.00302463
v 0.02665868 -0.01769931 -0.04089887
v 0.02590610 -0.01868080 -0.00687284
v 0.02586145 -0.01862238 -0.00536908
v 0.02239828 -0.02259741 -0.00353773
v 0.02144586 -0.02306011 -0.00235761
v 0.02113653 -0.02329847 -0.00235761
v 0.02113653 -0.02368405 -0.00390084
v 0.02711682 -0.01679027 -0.00439815
v 0.02438711 -0.02016939 -0.00386137
v 0.02266509 -0.02139391 -0.00084990
v 0.02263001 -0.02134718 -0.00057757
v 0.03191509 -0.00152113 -0.04089887
v 0.03199481 -0.00090419 -0.00687284
v 0.03192253 -0.00014704 -0.00536908
v 0.03192253 -0.00090419 -0.00536908
v 0.02113653 -0.02293859 -0.00096831
v 0.02165207 -0.02234970 -0.00057757
v 0.03078302 -0.00240914 -0.00057757
v 0.03159726 -0.00029193 -0.00302463
v 0.02723481 -0.01694684 -0.04089887
v 0.02665868 -0.01769931 -0.00687284
v 0.02661297 -0.01764089 -0.00536908
v 0.02214954 -0.02185194 -0.00057757
v 0.02190294 -0.02210199 -0.00057757
v 0.02571795 -0.01843543 -0.00386137
v 0.02719017 -0.01688608 -0.00536908
v 0.02767382 -0.01596302 -0.00536908
v 0.02741552 -0.01604714 -0.00388110
v 0.02730603 -0.01564754 -0.00235761
v 0.02716785 -0.01540217 -0.00111829
v 0.02680006 -0.01576672 -0.00057757
v 0.02669270 -0.01593264 -0.00057757
v 0.02663211 -0.01602378 -0.00057757
v 0.02586996 -0.01712678 -0.00057757
v 0.02590503 -0.01717352 -0.00084990
v 0.03180029 -0.00240914 -0.04089887
v 0.03180029 -0.00240914 -0.00687284
v 0.03162064 -0.00347242 -0.00570062
v 0.03169824 -0.00083876 -0.00384558
v 0.03163765 -0.00209833 -0.00433500
v 0.03170249 -0.00252365 -0.00526646
v 0.03061826 -0.00391642 -0.00057757
v 0.02752607 -0.01636730 -0.04089887
v 0.02723481 -0.01694684 -0.00687284
v 0.02772910 -0.01596302 -0.00687284
v 0.02870065 -0.01402808 -0.00687284
v 0.02829779 -0.01468708 -0.00536908
v 0.02860392 -0.01379440 -0.00444946
v 0.02734749 -0.01473382 -0.00057757
v 0.03164084 -0.00362665 -0.04089887
v 0.03164084 -0.00362665 -0.00687284
v 0.03085105 -0.00692866 -0.00386137
v 0.03078089 -0.00843594 -0.00536908
v 0.03058531 -0.00416881 -0.00057757
v 0.03042374 -0.00540501 -0.00057757
v 0.03059169 -0.00692866 -0.00235761
v 0.02772910 -0.01596302 -0.04089887
v 0.02976576 -0.01145752 -0.00687284
v 0.03007614 -0.01070037 -0.00609530
v 0.02866132 -0.01393227 -0.00536908
v 0.02870065 -0.01402808 -0.04089887
v 0.02951170 -0.01207212 -0.04089887
v 0.02906844 -0.01295078 -0.00536908
v 0.03029724 -0.01002034 -0.00550327
v 0.03022708 -0.00955998 -0.00386137
v 0.03012079 -0.00930059 -0.00289833
v 0.02875912 -0.01134301 -0.00057757
v 0.02741764 -0.01456790 -0.00057757
v 0.03082235 -0.00843594 -0.04089887
v 0.03082235 -0.00843594 -0.00687284
v 0.03058531 -0.00843594 -0.00386137
v 0.03039397 -0.00994089 -0.00687284
v 0.03022390 -0.00691931 -0.00057757
v 0.03024728 -0.00700344 -0.00074728
v 0.03016118 -0.00797791 -0.00118144
v 0.03039397 -0.00994089 -0.04089887
v 0.03026854 -0.00846165 -0.00238129
v 0.02928423 -0.00994089 -0.00057757
v 0.03017394 -0.00716468 -0.00057757
v 0.02987949 -0.00819524 -0.00057757
v 0.02973812 -0.00863925 -0.00057757
f 1 2 5
f 1 5 12
f 1 12 20
f 1 20 37
f 1 37 61
f 1 61 75
f 1 75 94
f 1 94 101
f 1 101 87
f 1 87 86
f 1 86 82
f 1 82 68
f 1 68 45
f 1 45 26
f 1 26 15
f 1 15 8
f 1 8 3
f 1 3 9
f 1 9 4
f 1 4 11
f 1 11 19
f 1 19 32
f 1 32 31
f 1 31 41
f 1 41 22
f 1 22 13
f 1 13 6
f 1 6 2
f 2 6 7
f 2 7 5
f 3 8 16
f 3 16 9
f 4 9 10
f 4 10 11
f 5 7 14
f 5 14 25
f 5 25 39
f 5 39 21
f 5 21 12
f 6 13 23
f 6 23 42
f 6 42 49
f 6 49 48
f 6 48 36
f 6 36 59
f 6 59 58
f 6 58 57
f 6 57 56
f 6 56 74
f 6 74 93
f 6 93 92
f 6 92 103
f 6 103 106
f 6 106 105
f 6 105 104
f 6 104 98
f 6 98 80
f 6 80 79
f 6 79 67
f 6 67 43
f 6 43 24
f 6 24 14
f 6 14 7
f 8 15 27
f 8 27 16
f 9 16 10
f 10 16 17
f 10 17 18
f 10 18 11
f 11 18 19
f 12 21 38
f 12 38 20
f 13 22 23
f 14 24 44
f 14 44 25
f 15 26 46
f 15 46 27
f 16 27 28
f 16 28 17
f 17 28 18
f 18 29 23
f 18 23 30
f 18 30 31
f 18 31 32
f 18 32 19
f 18 28 33
f 18 33 34
f 18 34 35
f 18 35 36
f 18 36 29
f 20 38 37
f 21 39 40
f 21 40 38
f 22 41 23
f 23 41 31
f 23 31 30
f 23 29 42
f 24 43 44
f 25 44 40
f 25 40 39
f 26 45 69
f 26 69 46
f 27 46 28
f 28 47 33
f 28 46 47
f 29 36 48
f 29 48 49
f 29 49 42
f 33 50 34
f 33 47 51
f 33 51 52
f 33 52 53
f 33 53 54
f 33 54 55
f 33 55 56
f 33 56 57
f 33 57 58
f 33 58 59
f 33 59 60
f 33 60 50
f 34 50 60
f 34 60 35
f 35 60 59
f 35 59 36
f 37 38 62
f 37 62 61
f 38 40 63
f 38 63 62
f 40 44 64
f 40 64 65
f 40 65 66
f 40 66 63
f 43 67 44
f 44 67 64
f 45 68 69
f 46 69 47
f 47 69 51
f 51 69 52
f 52 69 70
f 52 70 71
f 52 71 72
f 52 72 73
f 52 73 53
f 53 73 54
f 54 73 55
f 55 74 56
f 55 73 74
f 61 62 76
f 61 76 75
f 62 63 76
f 63 66 65
f 63 65 77
f 63 77 78
f 63 78 76
f 64 67 65
f 65 67 79
f 65 79 80
f 65 80 81
f 65 81 77
f 68 82 70
f 68 70 69
f 70 82 86
f 70 86 71
f 71 83 84
f 71 84 85
f 71 85 72
f 71 86 87
f 71 87 83
f 72 85 73
f 73 85 88
f 73 88 89
f 73 89 90
f 73 90 91
f 73 91 92
f 73 92 93
f 73 93 74
f 75 76 95
f 75 95 94
f 76 78 95
f 77 96 78
f 77 81 96
f 78 96 89
f 78 89 97
f 78 97 95
f 80 98 81
f 81 98 99
f 81 99 100
f 81 100 96
f 83 97 84
f 83 87 97
f 84 89 88
f 84 88 85
f 84 97 89
f 87 101 97
f 89 96 90
f 90 96 91
f 91 102 100
f 91 100 103
f 91 103 92
f 91 96 102
f 94 95 97
f 94 97 101
f 96 100 102
f 98 104 100
f 98 100 99
f 100 104 105
f 100 105 106
f 100 106 103

