# https://github.com/mikedh/trimesh
v 0.02113655 0.02254039 -0.00057769
v 0.01692653 0.02577280 -0.00057769
v 0.02113655 0.02013365 -0.00057769
v 0.02113655 0.02299986 -0.00235773
v 0.01996952 0.02428845 -0.00386149
v 0.01573048 0.02659501 -0.00057769
v 0.01807905 0.02550103 -0.00294187
v 0.01659072 0.02701878 -0.00439826
v -0.00004001 0.02925509 -0.00057769
v -0.00004001 0.03052756 -0.04089887
v 0.02113655 0.02160764 -0.04089887
v 0.02113655 0.02319562 -0.00313526
v 0.01823452 0.02561964 -0.00386149
v 0.02113655 0.02338563 -0.00390096
v 0.02015401 0.02443124 -0.00536919
v 0.01556672 0.02670210 -0.00057769
v 0.01842108 0.02576359 -0.00536919
v 0.01743853 0.02651555 -0.00536919
v 0.01668608 0.02709133 -0.00536919
v 0.01576364 0.02757613 -0.00536919
v 0.01584656 0.02731818 -0.00388122
v 0.01544649 0.02720763 -0.00235773
v 0.01520189 0.02707060 -0.00111841
v 0.01509203 0.02700496 -0.00057769
v -0.00004001 0.03080278 -0.00057769
v -0.00004001 0.03189676 -0.04089887
v 0.02113655 0.02372189 -0.04089887
v 0.02113655 0.02363782 -0.00536919
v 0.02021412 0.02447500 -0.00687294
v 0.01847912 0.02580850 -0.00687294
v 0.01749865 0.02656046 -0.00687294
v 0.01674619 0.02713739 -0.00687294
v 0.01382757 0.02860216 -0.00687294
v 0.01448468 0.02820027 -0.00536919
v 0.01359334 0.02850659 -0.00444957
v 0.01453235 0.02724909 -0.00057769
v 0.00070208 0.03080393 -0.00057769
v -0.00004001 0.03149947 -0.00302475
v -0.00004001 0.03189676 -0.00687294
v 0.00070208 0.03189791 -0.04089887
v 0.02021412 0.02447500 -0.04089887
v 0.02113655 0.02372189 -0.00687294
v 0.02113655 0.02365970 -0.00575993
v 0.01847912 0.02580850 -0.04089887
v 0.01749865 0.02656046 -0.04089887
v 0.01674619 0.02713739 -0.04089887
v 0.01050474 0.02997942 -0.00687294
v 0.01050060 0.02997827 -0.00609147
v 0.01373222 0.02856416 -0.00536919
v 0.01382757 0.02860216 -0.04089887
v 0.01338605 0.02878526 -0.04089887
v 0.01019174 0.03010955 -0.04089887
v 0.01275175 0.02897066 -0.00536919
v 0.00982069 0.03019937 -0.00550338
v 0.00936051 0.03013027 -0.00386149
v 0.01204904 0.02849046 -0.00150521
v 0.01436652 0.02731933 -0.00057769
v 0.01440176 0.02733431 -0.00071189
v 0.00193959 0.03071641 -0.00057769
v 0.00009058 0.03149947 -0.00302475
v -0.00004001 0.03182421 -0.00536919
v 0.00070208 0.03189791 -0.00687294
v 0.00159135 0.03178275 -0.04089887
v 0.00973985 0.03029610 -0.00687294
v 0.00973985 0.03029610 -0.04089887
v 0.00823494 0.03068302 -0.00536919
v 0.00823494 0.03048841 -0.00386149
v 0.00910140 0.03002203 -0.00289845
v 0.01113904 0.02866089 -0.00057769
v 0.00344450 0.03055635 -0.00057769
v 0.00063575 0.03160081 -0.00384570
v 0.00070208 0.03182421 -0.00536919
v 0.00327038 0.03152250 -0.00570073
v 0.00220907 0.03170214 -0.00687294
v 0.00220907 0.03170214 -0.04089887
v 0.00823494 0.03072448 -0.00687294
v 0.00912213 0.03047228 -0.04089887
v 0.00342585 0.03154208 -0.00687294
v 0.00672795 0.03075326 -0.00386149
v 0.00672795 0.03049301 -0.00235773
v 0.00777890 0.03006233 -0.00118157
v 0.00826188 0.03017058 -0.00238141
v 0.00973985 0.02918715 -0.00057769
v 0.01091724 0.02874956 -0.00057769
v 0.00660150 0.03014179 -0.00057769
v 0.00189813 0.03153977 -0.00433511
v 0.00232308 0.03160541 -0.00526657
v 0.00342585 0.03154208 -0.04089887
v 0.00823494 0.03072448 -0.04089887
v 0.00680257 0.03014985 -0.00074741
v 0.00671759 0.03012567 -0.00057769
v 0.00752394 0.02996445 -0.00057769
f 1 2 6
f 1 6 16
f 1 16 24
f 1 24 36
f 1 36 57
f 1 57 69
f 1 69 84
f 1 84 83
f 1 83 92
f 1 92 91
f 1 91 85
f 1 85 70
f 1 70 59
f 1 59 37
f 1 37 25
f 1 25 9
f 1 9 3
f 1 3 11
f 1 11 27
f 1 27 42
f 1 42 43
f 1 43 28
f 1 28 14
f 1 14 12
f 1 12 4
f 1 4 5
f 1 5 2
f 2 5 7
f 2 7 8
f 2 8 6
f 3 9 10
f 3 10 11
f 4 12 5
f 5 13 7
f 5 12 14
f 5 14 15
f 5 15 8
f 5 8 13
f 6 8 16
f 7 13 8
f 8 15 17
f 8 17 18
f 8 18 19
f 8 19 20
f 8 20 21
f 8 21 22
f 8 22 23
f 8 23 24
f 8 24 16
f 9 25 38
f 9 38 61
f 9 61 39
f 9 39 26
f 9 26 10
f 10 26 40
f 10 40 63
f 10 63 75
f 10 75 88
f 10 88 89
f 10 89 77
f 10 77 65
f 10 65 52
f 10 52 51
f 10 51 50
f 10 50 46
f 10 46 45
f 10 45 44
f 10 44 41
f 10 41 27
f 10 27 11
f 14 28 15
f 15 28 29
f 15 29 17
f 17 29 30
f 17 30 31
f 17 31 32
f 17 32 18
f 18 32 19
f 19 32 20
f 20 32 33
f 20 33 34
f 20 34 35
f 20 35 21
f 21 35 22
f 22 35 23
f 23 35 24
f 24 35 36
f 25 37 38
f 26 39 62
f 26 62 40
f 27 41 29
f 27 29 42
f 28 43 29
f 29 43 42
f 29 41 44
f 29 44 30
f 30 44 45
f 30 45 31
f 31 45 46
f 31 46 32
f 32 46 50
f 32 50 33
f 33 47 48
f 33 48 49
f 33 49 34
f 33 50 51
f 33 51 52
f 33 52 47
f 34 49 35
f 35 49 53
f 35 53 54
f 35 54 55
f 35 55 56
f 35 56 57
f 35 57 58
f 35 58 36
f 36 58 57
f 37 59 60
f 37 60 38
f 38 60 72
f 38 72 61
f 39 61 62
f 40 62 63
f 47 64 48
f 47 52 64
f 48 54 53
f 48 53 49
f 48 64 54
f 52 65 64
f 54 66 67
f 54 67 55
f 54 64 66
f 55 67 68
f 55 68 69
f 55 69 56
f 56 69 57
f 59 70 60
f 60 71 72
f 60 70 71
f 61 72 62
f 62 72 73
f 62 73 74
f 62 74 63
f 63 74 75
f 64 76 66
f 64 65 77
f 64 77 76
f 66 76 78
f 66 78 73
f 66 73 79
f 66 79 67
f 67 79 80
f 67 80 81
f 67 81 82
f 67 82 68
f 68 82 81
f 68 81 83
f 68 83 84
f 68 84 69
f 70 85 86
f 70 86 71
f 71 86 72
f 72 86 87
f 72 87 73
f 73 87 79
f 73 78 74
f 74 78 88
f 74 88 75
f 76 77 89
f 76 89 88
f 76 88 78
f 79 87 86
f 79 86 80
f 80 85 90
f 80 90 81
f 80 86 85
f 81 90 91
f 81 91 92
f 81 92 83
f 85 91 90

