# https://github.com/mikedh/trimesh
v 0.01577579 -0.02283710 -0.09827949
v 0.01583177 -0.02202508 -0.09827198
v 0.01730590 -0.02205125 -0.09833105
v 0.01691188 -0.02283710 -0.09822150
v 0.01462419 -0.02283710 -0.09820003
v 0.01864537 -0.02058659 -0.09831494
v 0.01478269 -0.02254975 -0.09815492
v 0.01739180 -0.02056391 -0.09823547
v 0.01864537 -0.02114384 -0.09828702
v 0.01845252 -0.02159056 -0.09825265
v 0.01783183 -0.02259454 -0.09783275
v 0.01770326 -0.02283710 -0.09769422
v 0.01384556 -0.02283710 -0.09769422
v 0.01864537 -0.01940870 -0.09819358
v 0.01298435 -0.02283710 -0.09707244
v 0.01637875 -0.02111999 -0.09810230
v 0.01864537 -0.02180113 -0.09791330
v 0.01864537 -0.02225658 -0.09750307
v 0.01864537 -0.02283710 -0.09691565
v 0.01797481 -0.01969023 -0.09803894
v 0.01864537 -0.01852222 -0.09738816
v 0.01864537 -0.01689470 -0.09574617
v 0.01298435 -0.02283710 -0.09414285
v 0.01298435 -0.01689470 -0.09058073
v 0.01864537 -0.02283710 -0.09426312
v 0.01864537 -0.01849314 -0.09735917
v 0.01864537 -0.01689470 -0.09258677
v 0.01298435 -0.02264049 -0.09388511
v 0.01298435 -0.01689470 -0.08736119
v 0.01669408 -0.01689470 -0.09058932
v 0.01652561 -0.01689470 -0.09042394
v 0.01624020 -0.01689470 -0.09017265
v 0.01532635 -0.01689470 -0.08937260
v 0.01494285 -0.01689470 -0.08904184
v 0.01462419 -0.01689470 -0.08876800
v 0.01331686 -0.01689470 -0.08764578
v 0.01298435 -0.01695752 -0.08742992
v 0.01298435 -0.01898582 -0.08969799
v 0.01298435 -0.01921035 -0.08994928
v 0.01298435 -0.01970245 -0.09050126
v 0.01298435 -0.02074713 -0.09167933
v 0.01298435 -0.02111824 -0.09210352
v 0.01298435 -0.02235489 -0.09354469
v 0.01298435 -0.02251601 -0.09373584
f 1 2 3
f 1 3 4
f 1 4 12
f 1 12 19
f 1 19 25
f 1 25 23
f 1 23 15
f 1 15 13
f 1 13 5
f 1 5 2
f 2 6 3
f 2 5 7
f 2 7 8
f 2 8 6
f 3 9 10
f 3 10 4
f 3 6 9
f 4 10 11
f 4 11 12
f 5 13 7
f 6 8 14
f 6 14 21
f 6 21 26
f 6 26 22
f 6 22 27
f 6 27 25
f 6 25 19
f 6 19 18
f 6 18 17
f 6 17 9
f 7 14 8
f 7 13 15
f 7 15 16
f 7 16 14
f 9 17 10
f 10 17 11
f 11 17 18
f 11 18 12
f 12 18 19
f 14 16 20
f 14 20 21
f 15 22 20
f 15 20 16
f 15 23 28
f 15 28 44
f 15 44 43
f 15 43 42
f 15 42 41
f 15 41 40
f 15 40 39
f 15 39 38
f 15 38 37
f 15 37 29
f 15 29 24
f 15 24 22
f 20 26 21
f 20 22 26
f 22 24 29
f 22 29 36
f 22 36 35
f 22 35 34
f 22 34 33
f 22 33 32
f 22 32 31
f 22 31 30
f 22 30 27
f 23 25 28
f 25 27 30
f 25 30 31
f 25 31 32
f 25 32 33
f 25 33 34
f 25 34 35
f 25 35 36
f 25 36 29
f 25 29 37
f 25 37 38
f 25 38 39
f 25 39 40
f 25 40 41
f 25 41 42
f 25 42 43
f 25 43 44
f 25 44 28

