# https://github.com/mikedh/trimesh
v 0.02125227 -0.02394093 -0.07553827
v 0.02125227 -0.02157612 -0.07553827
v 0.02130801 -0.02389896 -0.07553827
v 0.02125227 -0.02392927 -0.04089887
v 0.03060876 -0.00012022 -0.07553827
v 0.02125227 -0.02180234 -0.04089887
v 0.03062558 -0.00012022 -0.04089887
v 0.02215143 -0.02325761 -0.07553827
v 0.02266358 -0.02286348 -0.04089887
v 0.02130486 -0.02388963 -0.04089887
v 0.03199483 -0.00012022 -0.07553827
v 0.03199483 -0.00012022 -0.04089887
v 0.02266358 -0.02286348 -0.07553827
v 0.02457337 -0.02041470 -0.04089887
v 0.03199483 -0.00090383 -0.07553827
v 0.03199483 -0.00090383 -0.04089887
v 0.02457337 -0.02041470 -0.07553827
v 0.02590685 -0.01867957 -0.04089887
v 0.02634855 -0.01810586 -0.07553827
v 0.03191490 -0.00152652 -0.07553827
v 0.03180027 -0.00241041 -0.04089887
v 0.02665878 -0.01770007 -0.04089887
v 0.02723508 -0.01694678 -0.07553827
v 0.02723508 -0.01694678 -0.04089887
v 0.03180027 -0.00241041 -0.07553827
v 0.03173507 -0.00290949 -0.04089887
v 0.02754006 -0.01637073 -0.07553827
v 0.02772830 -0.01596494 -0.04089887
v 0.02774408 -0.01596494 -0.07553827
v 0.03164042 -0.00362546 -0.07553827
v 0.03164042 -0.00362546 -0.04089887
v 0.02870107 -0.01402691 -0.04089887
v 0.02848549 -0.01447002 -0.07553827
v 0.03082224 -0.00843438 -0.07553827
v 0.03082224 -0.00843438 -0.04089887
v 0.03007768 -0.01070591 -0.04089887
v 0.02870107 -0.01402691 -0.07553827
v 0.03039422 -0.00994096 -0.07553827
v 0.03039422 -0.00994096 -0.04089887
v 0.03007768 -0.01070591 -0.07553827
f 1 2 5
f 1 5 11
f 1 11 15
f 1 15 20
f 1 20 25
f 1 25 30
f 1 30 34
f 1 34 38
f 1 38 40
f 1 40 37
f 1 37 33
f 1 33 29
f 1 29 27
f 1 27 23
f 1 23 19
f 1 19 17
f 1 17 13
f 1 13 8
f 1 8 3
f 1 3 4
f 1 4 6
f 1 6 2
f 2 6 7
f 2 7 5
f 3 8 9
f 3 9 10
f 3 10 4
f 4 10 9
f 4 9 14
f 4 14 18
f 4 18 22
f 4 22 24
f 4 24 28
f 4 28 32
f 4 32 36
f 4 36 39
f 4 39 35
f 4 35 31
f 4 31 26
f 4 26 21
f 4 21 16
f 4 16 12
f 4 12 7
f 4 7 6
f 5 7 12
f 5 12 11
f 8 13 9
f 9 13 17
f 9 17 14
f 11 12 16
f 11 16 15
f 14 17 19
f 14 19 18
f 15 16 20
f 16 21 20
f 18 19 22
f 19 23 24
f 19 24 22
f 20 21 25
f 21 26 25
f 23 27 24
f 24 27 29
f 24 29 28
f 25 26 30
f 26 31 30
f 28 29 32
f 29 33 32
f 30 31 35
f 30 35 34
f 32 33 37
f 32 37 40
f 32 40 36
f 34 35 39
f 34 39 38
f 36 40 38
f 36 38 39

