# https://github.com/mikedh/trimesh
v 0.03090193 0.00060378 -0.00057770
v 0.03073645 0.00060378 0.00066007
v 0.03083810 -0.00014704 -0.00009518
v 0.03089957 -0.00014704 -0.00057770
v 0.03081446 0.00184071 -0.00057770
v 0.03073645 -0.00014704 0.00066007
v 0.03065371 0.00334706 -0.00057770
v 0.03056151 0.00211014 0.00066007
v 0.03044330 0.00060378 0.00216532
v 0.02935110 -0.00014704 -0.00057770
v 0.03044330 -0.00014704 0.00216532
v 0.03023999 0.00650203 -0.00057770
v 0.03011233 0.00165606 0.00310938
v 0.02870807 0.00661696 0.00673352
v 0.02899885 0.00211014 0.00819157
v 0.02858750 0.00151287 0.01055172
v 0.02888065 0.00060378 0.00969682
v 0.02762296 0.00947706 -0.00057770
v 0.01178128 -0.00014704 0.05178091
v 0.00675289 0.00947706 0.05189105
v 0.02888065 -0.00014704 0.00969682
v 0.03022344 0.00661790 -0.00057770
v 0.02863478 0.00757033 0.00626674
v 0.02715487 0.00651804 0.01414440
v 0.02707213 0.00594150 0.01501503
v 0.02735109 0.00512191 0.01421782
v 0.02754967 0.00361649 0.01421782
v 0.02864424 0.00060378 0.01082969
v 0.02933455 0.00947706 -0.00057770
v 0.01174582 -0.00014704 0.05292952
v 0.00693019 0.00947706 0.05285610
v 0.02864424 -0.00014704 0.01082969
v 0.03006269 0.00742525 -0.00057770
v 0.02889720 0.00826934 0.00379645
v 0.02866788 0.00913321 0.00337687
v 0.02708868 0.00745163 0.01359369
v 0.02712650 0.00512191 0.01520384
v 0.02756386 0.00060378 0.01572307
v 0.02691610 0.00694574 0.01460069
v 0.02621633 0.00813462 0.01572307
v 0.02577189 0.00805737 0.01715489
v 0.02615487 0.00662827 0.01722832
v 0.02582153 0.00515394 0.01884896
v 0.02704376 0.00283741 0.01646783
v 0.02772934 0.00211014 0.01421782
v 0.02924472 0.00947706 -0.00008993
v 0.01249996 -0.00014704 0.05292952
v 0.01163943 0.00211014 0.05300295
v 0.00820206 0.00947706 0.05289805
v 0.02756386 -0.00014704 0.01572307
v 0.02907450 0.00947706 0.00082791
v 0.02872935 0.00947706 0.00246428
v 0.02721161 0.00925285 0.00969682
v 0.02710523 0.00899567 0.01065137
v 0.02610049 0.00947706 0.01421257
v 0.02574588 0.00947706 0.01559195
v 0.02722579 0.00361649 0.01554475
v 0.02731090 0.00224485 0.01586993
v 0.02712177 0.00183317 0.01663566
v 0.02720215 0.00060378 0.01684021
v 0.02738419 -0.00014704 0.01627902
v 0.02560640 0.00901639 0.01660419
v 0.02560404 0.00750344 0.01810420
v 0.02571988 0.00662827 0.01840315
v 0.02252837 0.00584635 0.02700459
v 0.02285225 0.00525568 0.02640668
v 0.02422342 0.00512191 0.02295037
v 0.02559458 0.00467349 0.01959372
v 0.01246213 0.00211014 0.05300295
v 0.01287821 -0.00014704 0.05259386
v 0.00973871 0.00808564 0.05289805
v 0.00852121 0.00947706 0.05287707
v 0.02727780 0.00947706 0.00897829
v 0.02569624 0.00947706 0.01574930
v 0.02582390 0.00064335 0.02035945
v 0.02720215 -0.00014704 0.01684021
v 0.02559458 0.00016666 0.02109897
v 0.02520687 0.00947706 0.01706573
v 0.02430852 0.00947706 0.01923183
v 0.02268440 0.00947706 0.02311821
v 0.02204847 0.00947706 0.02463919
v 0.02254728 0.00889958 0.02402031
v 0.01821157 0.00652464 0.03670742
v 0.01356852 0.00452087 0.04976167
v 0.01520446 0.00483270 0.04555012
v 0.02111465 0.00607057 0.03021964
v 0.01662291 0.00463769 0.04234032
v 0.01802481 0.00437109 0.03906757
v 0.01519737 0.00211014 0.04707110
v 0.01679785 0.00217043 0.04295395
v 0.01233211 0.00361649 0.05295050
v 0.01325410 -0.00014704 0.05225819
v 0.01325410 0.00060378 0.05225819
v 0.01087347 0.00662827 0.05288231
v 0.00923280 0.00913415 0.05284036
v 0.00949522 0.00947706 0.05187007
v 0.01503661 0.00003760 0.04816202
v 0.01802717 -0.00014704 0.04056758
v 0.02559458 -0.00014704 0.02109897
v 0.02126595 0.00947706 0.02650109
v 0.01806263 0.00897400 0.03463574
v 0.01375055 0.00657174 0.04729663
v 0.01520683 0.00634471 0.04405011
v 0.01357088 0.00603194 0.04825642
v 0.01237230 0.00517937 0.05192777
v 0.01306970 0.00347330 0.05172322
v 0.01350942 0.00287603 0.05112532
v 0.01356143 0.00211014 0.05125644
v 0.01365835 0.00060378 0.05150294
v 0.01321627 0.00211014 0.05201168
v 0.01214298 0.00471588 0.05278792
v 0.01345741 -0.00014704 0.05188057
v 0.01062288 0.00755149 0.05275644
v 0.01028955 0.00862921 0.05187007
v 0.00953777 0.00943750 0.05187007
v 0.00957559 0.00947706 0.05172322
v 0.01503661 -0.00014704 0.04816202
v 0.01821630 0.00947706 0.03375462
v 0.01334866 0.00703618 0.04776341
v 0.01214535 0.00616289 0.05146623
v 0.01187584 0.00572012 0.05246798
v 0.01365835 -0.00014704 0.05150294
v 0.01162525 0.00664993 0.05192777
v 0.01187348 0.00716713 0.05085783
v 0.01087347 0.00787556 0.05187007
v 0.01072926 0.00919162 0.05009210
v 0.01087111 0.00947706 0.04933685
v 0.01676475 0.00947706 0.03701162
v 0.01663709 0.00909458 0.03784030
v 0.01357325 0.00749214 0.04675642
v 0.01211225 0.00753547 0.04985084
v 0.01371746 0.00916335 0.04401864
v 0.01222336 0.00917937 0.04705537
v 0.01186402 0.00947706 0.04731236
v 0.01532030 0.00947706 0.04016373
v 0.01519500 0.00914828 0.04098192
v 0.01494678 0.00880537 0.04198367
v 0.01385694 0.00947706 0.04322144
v 0.01333684 0.00947706 0.04429137
v 0.01480493 0.00947706 0.04127038
f 1 2 3
f 1 3 4
f 1 4 10
f 1 10 18
f 1 18 29
f 1 29 33
f 1 33 22
f 1 22 12
f 1 12 7
f 1 7 5
f 1 5 2
f 2 6 3
f 2 5 7
f 2 7 8
f 2 8 9
f 2 9 11
f 2 11 6
f 3 6 11
f 3 11 21
f 3 21 32
f 3 32 50
f 3 50 61
f 3 61 76
f 3 76 99
f 3 99 98
f 3 98 117
f 3 117 122
f 3 122 112
f 3 112 92
f 3 92 70
f 3 70 47
f 3 47 30
f 3 30 19
f 3 19 10
f 3 10 4
f 7 12 8
f 8 13 9
f 8 12 14
f 8 14 15
f 8 15 16
f 8 16 13
f 9 13 16
f 9 16 17
f 9 17 21
f 9 21 11
f 10 19 20
f 10 20 18
f 12 22 14
f 14 22 23
f 14 23 24
f 14 24 25
f 14 25 26
f 14 26 27
f 14 27 15
f 15 27 16
f 16 28 17
f 16 27 28
f 17 28 32
f 17 32 21
f 18 20 31
f 18 31 49
f 18 49 72
f 18 72 96
f 18 96 116
f 18 116 127
f 18 127 134
f 18 134 139
f 18 139 138
f 18 138 140
f 18 140 135
f 18 135 128
f 18 128 118
f 18 118 100
f 18 100 81
f 18 81 80
f 18 80 79
f 18 79 78
f 18 78 74
f 18 74 56
f 18 56 55
f 18 55 73
f 18 73 52
f 18 52 51
f 18 51 46
f 18 46 29
f 19 30 20
f 20 30 31
f 22 33 23
f 23 33 34
f 23 34 35
f 23 35 36
f 23 36 24
f 24 36 25
f 25 37 38
f 25 38 27
f 25 27 26
f 25 36 39
f 25 39 40
f 25 40 41
f 25 41 42
f 25 42 43
f 25 43 44
f 25 44 37
f 27 38 45
f 27 45 28
f 28 45 38
f 28 38 50
f 28 50 32
f 29 46 33
f 30 47 69
f 30 69 48
f 30 48 31
f 31 48 49
f 33 46 51
f 33 51 34
f 34 51 35
f 35 51 52
f 35 52 36
f 36 52 53
f 36 53 54
f 36 54 55
f 36 55 56
f 36 56 40
f 36 40 39
f 37 44 57
f 37 57 38
f 38 57 58
f 38 58 59
f 38 59 60
f 38 60 61
f 38 61 50
f 40 56 62
f 40 62 41
f 41 62 63
f 41 63 42
f 42 63 64
f 42 64 43
f 43 64 65
f 43 65 66
f 43 66 67
f 43 67 68
f 43 68 59
f 43 59 44
f 44 59 58
f 44 58 57
f 47 70 69
f 48 69 49
f 49 69 71
f 49 71 72
f 52 73 53
f 53 73 55
f 53 55 54
f 56 74 62
f 59 68 75
f 59 75 60
f 60 76 61
f 60 75 77
f 60 77 99
f 60 99 76
f 62 74 78
f 62 78 79
f 62 79 80
f 62 80 81
f 62 81 82
f 62 82 63
f 63 65 64
f 63 82 83
f 63 83 84
f 63 84 85
f 63 85 86
f 63 86 65
f 65 86 87
f 65 87 88
f 65 88 66
f 66 88 67
f 67 88 89
f 67 89 68
f 68 89 90
f 68 90 75
f 69 91 71
f 69 70 92
f 69 92 93
f 69 93 91
f 71 94 95
f 71 95 72
f 71 91 94
f 72 95 96
f 75 90 89
f 75 89 97
f 75 97 98
f 75 98 77
f 77 98 99
f 81 100 101
f 81 101 102
f 81 102 103
f 81 103 84
f 81 84 82
f 82 84 83
f 84 103 102
f 84 102 104
f 84 104 105
f 84 105 106
f 84 106 107
f 84 107 87
f 84 87 85
f 85 87 86
f 87 107 88
f 88 107 108
f 88 108 89
f 89 108 109
f 89 109 97
f 91 93 110
f 91 110 106
f 91 106 111
f 91 111 94
f 92 112 93
f 93 112 109
f 93 109 110
f 94 111 113
f 94 113 95
f 95 113 114
f 95 114 115
f 95 115 96
f 96 115 116
f 97 109 122
f 97 122 117
f 97 117 98
f 100 118 101
f 101 118 102
f 102 118 119
f 102 119 120
f 102 120 105
f 102 105 104
f 105 120 121
f 105 121 111
f 105 111 106
f 106 110 107
f 107 110 108
f 108 110 109
f 109 112 122
f 111 121 113
f 113 121 123
f 113 123 124
f 113 124 125
f 113 125 114
f 114 125 126
f 114 126 115
f 115 126 127
f 115 127 116
f 118 128 129
f 118 129 130
f 118 130 119
f 119 130 120
f 120 123 121
f 120 130 124
f 120 124 123
f 124 131 125
f 124 130 131
f 125 131 132
f 125 132 133
f 125 133 126
f 126 133 134
f 126 134 127
f 128 135 136
f 128 136 129
f 129 136 137
f 129 137 130
f 130 137 136
f 130 136 131
f 131 136 132
f 132 138 139
f 132 139 134
f 132 134 133
f 132 136 140
f 132 140 138
f 135 140 136

