# https://github.com/mikedh/trimesh
v 0.01258172 -0.02831549 -0.00057302
v 0.01258172 -0.02657380 -0.00057302
v 0.01295276 -0.02817368 -0.00057302
v 0.01258172 -0.02779371 0.00193239
v 0.02764168 -0.00974410 -0.00057302
v 0.01258172 -0.00974410 0.04131426
v 0.01436796 -0.02761736 -0.00057302
v 0.01287395 -0.02760827 0.00226433
v 0.01258172 -0.02773190 0.00222341
v 0.02935405 -0.00974410 -0.00057302
v 0.01258172 -0.00974410 0.04587039
v 0.01453542 -0.02754827 -0.00057302
v 0.01404125 -0.02748283 0.00065922
v 0.01372767 -0.02735374 0.00182781
v 0.01258172 -0.02749919 0.00330105
v 0.02928345 -0.00994045 -0.00057302
v 0.02915704 -0.00974410 0.00047280
v 0.02905196 -0.00994045 0.00065922
v 0.01258172 -0.00985864 0.04569760
v 0.01261455 -0.00974410 0.04580673
v 0.01556810 -0.02700104 -0.00057302
v 0.01500169 -0.02724830 -0.00011377
v 0.01358155 -0.02579022 0.00910307
v 0.01279186 -0.02599929 0.00963962
v 0.01258172 -0.02594657 0.01026711
v 0.02875809 -0.01134216 -0.00057302
v 0.02872361 -0.00974410 0.00255079
v 0.02875973 -0.00993863 0.00203243
v 0.01258172 -0.01039314 0.04487004
v 0.01361111 -0.00974410 0.04380149
v 0.01573227 -0.02689378 -0.00057302
v 0.01505422 -0.02578476 0.00605656
v 0.01365543 -0.02433760 0.01525975
v 0.01275246 -0.02494846 0.01421848
v 0.01258172 -0.02501755 0.01421848
v 0.02728213 -0.01424196 0.00065922
v 0.02734781 -0.01473647 -0.00057302
v 0.02715243 -0.01392925 0.00182781
v 0.02726900 -0.00974410 0.00908488
v 0.02564365 -0.01090947 0.01421848
v 0.02577171 -0.01146397 0.01261338
v 0.01258172 -0.01092583 0.04404248
v 0.01656629 -0.01075675 0.03615338
v 0.01805538 -0.01074221 0.03311596
v 0.01508542 -0.00974410 0.04075043
v 0.01479154 -0.01342020 0.03560318
v 0.01934417 -0.01798351 0.01911109
v 0.02030296 -0.01599092 0.02027968
v 0.02261294 -0.01530552 0.01662386
v 0.01582421 -0.02683196 -0.00057302
v 0.01692748 -0.02607020 -0.00057302
v 0.01502960 -0.02426306 0.01200862
v 0.01462244 -0.02396490 0.01421848
v 0.01386887 -0.02446668 0.01421848
v 0.01533004 -0.02298678 0.01572355
v 0.01419722 -0.02378309 0.01574628
v 0.01334021 -0.02415034 0.01626465
v 0.01280336 -0.02456485 0.01574628
v 0.01258172 -0.02466121 0.01572355
v 0.01258172 -0.02471575 0.01549620
v 0.02558947 -0.01378199 0.00910307
v 0.02679945 -0.01576912 -0.00057302
v 0.02704736 -0.01520189 -0.00011377
v 0.02579961 -0.01299296 0.00963962
v 0.02611319 -0.00974410 0.01420939
v 0.02603439 -0.00994045 0.01421848
v 0.02555828 -0.01070221 0.01498238
v 0.02557305 -0.01224574 0.01204500
v 0.02566663 -0.01247299 0.01120380
v 0.01258172 -0.01131308 0.04342863
v 0.01275903 -0.01145488 0.04284661
v 0.02125848 -0.01399652 0.02145281
v 0.01821463 -0.00984227 0.03368888
v 0.01818836 -0.00974410 0.03385258
v 0.01652689 -0.00974410 0.03760388
v 0.02273935 -0.01398197 0.01841539
v 0.02112549 -0.01234209 0.02422195
v 0.02090057 -0.01191121 0.02522230
v 0.01354051 -0.01374018 0.03763116
v 0.01959044 -0.01830167 0.01810620
v 0.01980387 -0.01857801 0.01722862
v 0.02122236 -0.01696358 0.01686031
v 0.01942133 -0.01962157 0.01625555
v 0.02005834 -0.01906161 0.01574174
v 0.02278697 -0.01553096 0.01572355
v 0.02358158 -0.01439831 0.01574628
v 0.02394934 -0.01354019 0.01626465
v 0.02294458 -0.01447467 0.01716496
v 0.02114684 -0.02282861 -0.00057302
v 0.02105654 -0.02275953 -0.00003192
v 0.01993357 -0.02305223 0.00216884
v 0.01819986 -0.02438305 0.00216884
v 0.01654331 -0.02426851 0.00751160
v 0.01651868 -0.02274316 0.01346367
v 0.01581436 -0.02311768 0.01406843
v 0.01634794 -0.02260317 0.01446857
v 0.01800613 -0.02120873 0.01491872
v 0.01886313 -0.02025789 0.01574174
v 0.01510512 -0.02281407 0.01662386
v 0.01258172 -0.02433032 0.01667388
v 0.01427274 -0.02314495 0.01716496
v 0.01378021 -0.02293952 0.01841539
v 0.01344693 -0.02268862 0.01942029
v 0.01258172 -0.02119600 0.02382182
v 0.01258172 -0.02286679 0.02006597
v 0.01258172 -0.02448122 0.01624646
v 0.02413814 -0.01385653 0.01525975
v 0.02669274 -0.01593456 -0.00057302
v 0.02558290 -0.01525461 0.00605656
v 0.02579305 -0.00974410 0.01546437
v 0.02571589 -0.00986773 0.01557804
v 0.02436307 -0.01300568 0.01574628
v 0.01258172 -0.01159669 0.04297393
v 0.02255219 -0.01222028 0.02102084
v 0.02132251 -0.01142398 0.02473577
v 0.02112385 -0.01090765 0.02572248
v 0.01966103 -0.00974410 0.03035136
v 0.01258172 -0.01217120 0.04201905
v 0.01258172 -0.01372381 0.03914532
v 0.01258172 -0.01401652 0.03857694
v 0.01321872 -0.01499281 0.03560318
v 0.01778285 -0.01954339 0.01911109
v 0.01810135 -0.01978883 0.01810620
v 0.01648585 -0.01668724 0.02696382
v 0.01809314 -0.01829439 0.02113452
v 0.01837717 -0.02000336 0.01722862
v 0.01676331 -0.02142326 0.01686031
v 0.01963312 -0.01983247 0.01525066
v 0.02100729 -0.01820713 0.01491872
v 0.02240279 -0.01654906 0.01446857
v 0.02376382 -0.01482373 0.01421848
v 0.02418740 -0.01253662 0.01681029
v 0.02165086 -0.02234865 -0.00057302
v 0.02102699 -0.02122873 0.00591105
v 0.01989252 -0.02151780 0.00819366
v 0.02043267 -0.02227774 0.00367391
v 0.01817687 -0.02135417 0.01391383
v 0.01803240 -0.02274862 0.00896666
v 0.01871866 -0.02081785 0.01433670
v 0.01541377 -0.02154507 0.01873823
v 0.01379663 -0.02145962 0.02145281
v 0.01258172 -0.01972884 0.02689107
v 0.01258172 -0.02021971 0.02587253
v 0.01258172 -0.02080876 0.02463574
v 0.02426620 -0.01406924 0.01421848
v 0.02663199 -0.01602547 -0.00057302
v 0.02559275 -0.01676905 0.00155954
v 0.02586857 -0.01712902 -0.00057302
v 0.02406098 -0.01523098 0.01200862
v 0.02416605 -0.01536733 0.01120380
v 0.02575857 -0.00974410 0.01559169
v 0.02569126 -0.00974410 0.01580994
v 0.02551231 -0.00974410 0.01634195
v 0.02254891 -0.01071130 0.02252136
v 0.02125355 -0.00974410 0.02656368
v 0.01258172 -0.01523643 0.03610336
v 0.01258172 -0.01821440 0.03000578
v 0.01377036 -0.01692358 0.03078332
v 0.01913402 -0.02092693 0.01270887
v 0.02072818 -0.01933250 0.01270887
v 0.02061818 -0.01891980 0.01433670
v 0.02115176 -0.01837802 0.01391383
v 0.02254234 -0.01671996 0.01346367
v 0.02291666 -0.01601456 0.01406843
v 0.02523649 -0.00974410 0.01703309
v 0.02418411 -0.01102401 0.01831081
v 0.02190205 -0.02210321 -0.00057302
v 0.02214832 -0.02185232 -0.00057302
v 0.02262936 -0.02134872 -0.00057302
v 0.02115833 -0.01988701 0.00941681
v 0.01968730 -0.02135781 0.00941681
v 0.02407247 -0.01825803 0.00301459
v 0.02436142 -0.01562186 0.00969873
v 0.02130937 -0.01858165 0.01270887
v 0.02267861 -0.00979682 0.02311248
v 0.02139474 -0.00974410 0.02622720
v 0.02429247 -0.00974410 0.01930661
v 0.02266547 -0.00974410 0.02319432
v 0.02209414 -0.00974410 0.02455844
f 1 2 5
f 1 5 10
f 1 10 16
f 1 16 26
f 1 26 37
f 1 37 62
f 1 62 108
f 1 108 146
f 1 146 148
f 1 148 169
f 1 169 168
f 1 168 167
f 1 167 133
f 1 133 89
f 1 89 51
f 1 51 50
f 1 50 31
f 1 31 21
f 1 21 12
f 1 12 7
f 1 7 3
f 1 3 4
f 1 4 9
f 1 9 15
f 1 15 25
f 1 25 35
f 1 35 60
f 1 60 59
f 1 59 106
f 1 106 100
f 1 100 105
f 1 105 104
f 1 104 144
f 1 144 143
f 1 143 142
f 1 142 157
f 1 157 156
f 1 156 120
f 1 120 119
f 1 119 118
f 1 118 113
f 1 113 70
f 1 70 42
f 1 42 29
f 1 29 19
f 1 19 11
f 1 11 6
f 1 6 2
f 2 6 5
f 3 7 4
f 4 8 9
f 4 7 8
f 5 6 11
f 5 11 20
f 5 20 30
f 5 30 45
f 5 45 75
f 5 75 74
f 5 74 117
f 5 117 155
f 5 155 176
f 5 176 179
f 5 179 178
f 5 178 177
f 5 177 165
f 5 165 153
f 5 153 152
f 5 152 151
f 5 151 110
f 5 110 65
f 5 65 39
f 5 39 27
f 5 27 17
f 5 17 10
f 7 12 13
f 7 13 8
f 8 13 14
f 8 14 15
f 8 15 9
f 10 17 18
f 10 18 16
f 11 19 20
f 12 21 22
f 12 22 13
f 13 22 23
f 13 23 14
f 14 23 24
f 14 24 25
f 14 25 15
f 16 18 26
f 17 27 18
f 18 27 28
f 18 28 26
f 19 29 30
f 19 30 20
f 21 31 32
f 21 32 22
f 22 32 33
f 22 33 23
f 23 33 25
f 23 25 24
f 25 33 34
f 25 34 35
f 26 36 37
f 26 28 38
f 26 38 36
f 27 39 28
f 28 39 40
f 28 40 41
f 28 41 38
f 29 42 30
f 30 43 44
f 30 44 45
f 30 42 46
f 30 46 47
f 30 47 48
f 30 48 49
f 30 49 43
f 31 50 32
f 32 50 51
f 32 51 52
f 32 52 53
f 32 53 54
f 32 54 33
f 33 54 53
f 33 53 55
f 33 55 56
f 33 56 57
f 33 57 58
f 33 58 59
f 33 59 60
f 33 60 35
f 33 35 34
f 36 38 61
f 36 61 37
f 37 61 63
f 37 63 62
f 38 41 64
f 38 64 61
f 39 65 66
f 39 66 67
f 39 67 40
f 40 67 68
f 40 68 69
f 40 69 41
f 41 69 64
f 42 70 71
f 42 71 46
f 43 49 72
f 43 72 44
f 44 73 74
f 44 74 75
f 44 75 45
f 44 72 76
f 44 76 77
f 44 77 78
f 44 78 73
f 46 71 79
f 46 79 80
f 46 80 47
f 47 80 48
f 48 80 49
f 49 80 81
f 49 81 82
f 49 82 83
f 49 83 84
f 49 84 85
f 49 85 86
f 49 86 87
f 49 87 88
f 49 88 76
f 49 76 72
f 51 89 90
f 51 90 91
f 51 91 92
f 51 92 93
f 51 93 52
f 52 93 138
f 52 138 94
f 52 94 95
f 52 95 53
f 53 95 96
f 53 96 55
f 55 96 97
f 55 97 98
f 55 98 99
f 55 99 56
f 56 99 57
f 57 100 58
f 57 99 101
f 57 101 102
f 57 102 103
f 57 103 104
f 57 104 105
f 57 105 100
f 58 100 106
f 58 106 59
f 61 64 69
f 61 69 68
f 61 68 107
f 61 107 63
f 62 63 109
f 62 109 108
f 63 107 109
f 65 110 67
f 65 67 66
f 67 107 68
f 67 110 111
f 67 111 112
f 67 112 107
f 70 113 79
f 70 79 71
f 73 78 114
f 73 114 74
f 74 114 115
f 74 115 116
f 74 116 117
f 76 88 87
f 76 87 77
f 77 87 114
f 77 114 78
f 79 113 118
f 79 118 119
f 79 119 120
f 79 120 121
f 79 121 122
f 79 122 123
f 79 123 124
f 79 124 80
f 80 125 81
f 80 124 125
f 81 83 82
f 81 125 83
f 83 126 127
f 83 127 99
f 83 99 98
f 83 98 128
f 83 128 84
f 83 125 126
f 84 128 129
f 84 129 85
f 85 129 130
f 85 130 131
f 85 131 107
f 85 107 86
f 86 107 87
f 87 107 112
f 87 112 132
f 87 132 114
f 89 133 134
f 89 134 90
f 90 134 135
f 90 135 136
f 90 136 91
f 91 136 137
f 91 137 138
f 91 138 92
f 92 138 93
f 94 137 96
f 94 96 95
f 94 138 137
f 96 137 97
f 97 137 139
f 97 139 128
f 97 128 98
f 99 127 126
f 99 126 123
f 99 123 122
f 99 122 140
f 99 140 141
f 99 141 102
f 99 102 101
f 102 141 142
f 102 142 143
f 102 143 144
f 102 144 104
f 102 104 103
f 107 131 145
f 107 145 109
f 108 109 146
f 109 147 148
f 109 148 146
f 109 145 131
f 109 131 149
f 109 149 150
f 109 150 147
f 110 151 111
f 111 151 152
f 111 152 112
f 112 152 153
f 112 153 132
f 114 154 116
f 114 116 115
f 114 132 154
f 116 154 155
f 116 155 117
f 120 156 121
f 121 156 157
f 121 157 158
f 121 158 122
f 122 158 140
f 123 126 125
f 123 125 124
f 128 139 159
f 128 159 134
f 128 134 160
f 128 160 161
f 128 161 129
f 129 161 162
f 129 162 130
f 130 162 163
f 130 163 164
f 130 164 131
f 131 164 149
f 132 153 165
f 132 165 166
f 132 166 154
f 133 167 134
f 134 167 168
f 134 168 169
f 134 169 170
f 134 170 160
f 134 159 171
f 134 171 135
f 135 171 136
f 136 171 137
f 137 171 159
f 137 159 139
f 140 158 141
f 141 158 157
f 141 157 142
f 147 172 169
f 147 169 148
f 147 150 173
f 147 173 163
f 147 163 174
f 147 174 172
f 149 164 163
f 149 163 150
f 150 163 173
f 154 175 176
f 154 176 155
f 154 166 175
f 160 170 174
f 160 174 162
f 160 162 161
f 162 174 163
f 165 177 166
f 166 177 175
f 169 172 174
f 169 174 170
f 175 178 179
f 175 179 176
f 175 177 178

