# https://github.com/mikedh/trimesh
v -0.02291275 0.00792767 0.01975682
v -0.02291275 0.00792767 0.02431833
v -0.02291275 0.01348099 0.01280071
v -0.00982226 0.02449636 0.01280071
v -0.00982226 0.00792767 0.04951266
v -0.02276410 0.00792767 0.02470697
v -0.02291275 0.00803147 0.02422412
v -0.02291275 0.01629434 0.01280071
v -0.00982226 0.02621086 0.01280071
v -0.00982226 0.00792767 0.05288473
v -0.02277691 0.00798852 0.02461668
v -0.02135060 0.00792767 0.02807903
v -0.02291275 0.00933076 0.02294831
v -0.02291275 0.01615653 0.01320504
v -0.02264492 0.01641961 0.01346413
v -0.02273078 0.01653236 0.01280071
v -0.01130110 0.02565785 0.01280071
v -0.00982226 0.02594957 0.01419036
v -0.00982226 0.00793304 0.05289650
v -0.00984404 0.00792767 0.05289650
v -0.02265261 0.01041351 0.02252042
v -0.02278588 0.01100768 0.02161361
v -0.01828783 0.00792767 0.03538060
v -0.02291275 0.01084661 0.02144874
v -0.02291275 0.01591851 0.01389202
v -0.02125577 0.01807684 0.01391557
v -0.02140058 0.01826655 0.01280071
v -0.02250523 0.01625139 0.01446907
v -0.01287734 0.02495988 0.01280071
v -0.01375773 0.02404000 0.01526204
v -0.01081157 0.02554510 0.01421784
v -0.00982226 0.02594420 0.01421784
v -0.00982226 0.00810663 0.05290043
v -0.00984020 0.00808695 0.05290043
v -0.00996450 0.00792767 0.05289650
v -0.02122758 0.01060858 0.02572369
v -0.02244372 0.01141751 0.02202187
v -0.02265517 0.01192040 0.02101693
v -0.02291275 0.01104526 0.02124853
v -0.01685383 0.00792767 0.03879585
v -0.02291275 0.01585229 0.01408044
v -0.02110968 0.01790503 0.01492051
v -0.02072011 0.01861911 0.01433561
v -0.02086107 0.01896451 0.01280071
v -0.02291275 0.01582724 0.01415110
v -0.02291275 0.01521696 0.01568993
v -0.02288968 0.01523307 0.01572526
v -0.01435619 0.02425118 0.01280071
v -0.01397174 0.02416885 0.01421784
v -0.01060397 0.02545920 0.01498332
v -0.01472526 0.02366596 0.01421784
v -0.01543393 0.02268880 0.01572526
v -0.01430109 0.02348341 0.01574488
v -0.01344248 0.02385029 0.01626306
v -0.01290682 0.02426549 0.01574488
v -0.00982226 0.02560774 0.01554075
v -0.00982226 0.00812632 0.05289650
v -0.01010290 0.00792767 0.05285724
v -0.02142493 0.01112579 0.02473837
v -0.01816352 0.00897462 0.03463866
v -0.02281792 0.01224791 0.02024359
v -0.02291275 0.01214948 0.02010620
v -0.02291275 0.01159290 0.02068718
v -0.02100204 0.01161258 0.02522907
v -0.02123014 0.01204389 0.02422412
v -0.01527887 0.00792767 0.04247803
v -0.01695379 0.00815316 0.03833263
v -0.01973464 0.01953363 0.01525026
v -0.02016009 0.01876407 0.01574096
v -0.02082391 0.01901105 0.01280071
v -0.02291275 0.01520085 0.01572526
v -0.02291275 0.01482324 0.01644364
v -0.02271540 0.01500578 0.01662029
v -0.01467529 0.02404358 0.01280071
v -0.01494824 0.02381808 0.01301269
v -0.01645016 0.02230402 0.01446907
v -0.01591706 0.02281766 0.01406474
v -0.01896446 0.01995957 0.01574096
v -0.01520711 0.02251520 0.01662029
v -0.01810713 0.02090988 0.01492051
v -0.01243907 0.02409011 0.01680871
v -0.01437542 0.02284629 0.01716594
v -0.01388332 0.02264048 0.01841428
v -0.01224429 0.02102800 0.02422412
v -0.01212254 0.02245435 0.02101693
v -0.00982226 0.02537508 0.01623166
v -0.00982226 0.02559521 0.01558001
v -0.00982226 0.00890303 0.05239403
v -0.01061038 0.00792767 0.05244898
v -0.01831602 0.00954373 0.03368868
v -0.02291275 0.01241077 0.01980393
v -0.02259109 0.01334855 0.01941922
v -0.02291275 0.01361342 0.01833576
v -0.01815840 0.01044214 0.03311554
v -0.02284227 0.01368322 0.01841428
v -0.01383078 0.00792767 0.04574803
v -0.01881965 0.02051973 0.01433561
v -0.01927330 0.02057342 0.01280071
v -0.01988329 0.01968217 0.01421784
v -0.02077393 0.01907189 0.01280071
v -0.01952319 0.01932245 0.01625521
v -0.02291275 0.01451541 0.01694219
v -0.02132626 0.01666480 0.01685975
v -0.02247063 0.01468722 0.01762523
v -0.01534423 0.02357826 0.01280071
v -0.01575431 0.02327223 0.01280071
v -0.01661932 0.02244362 0.01346413
v -0.01827886 0.02105484 0.01391557
v -0.01686408 0.02112464 0.01685975
v -0.01847877 0.01970365 0.01722875
v -0.01587605 0.02169733 0.01724445
v -0.01488801 0.02227002 0.01762523
v -0.01092562 0.02408653 0.01830828
v -0.00982226 0.02498673 0.01720912
v -0.01132673 0.02122486 0.02473837
v -0.00982226 0.02121949 0.02624187
v -0.00982226 0.02256353 0.02303467
v -0.01389870 0.02116043 0.02145267
v -0.01064370 0.01795694 0.03311554
v -0.01181370 0.02080071 0.02522907
v -0.00982226 0.00924307 0.05186801
v -0.01039252 0.00863100 0.05186801
v -0.01093460 0.00792767 0.05186801
v -0.02291275 0.01384966 0.01799031
v -0.01354629 0.00792767 0.04638790
v -0.01504948 0.00880639 0.04198734
v -0.01254672 0.00792767 0.04852341
v -0.01241729 0.00792767 0.04879821
v -0.01209051 0.00792767 0.04948910
v -0.01174066 0.00792767 0.05021534
v -0.01382053 0.00916432 0.04402078
v -0.01666801 0.01045825 0.03615393
v -0.01975899 0.01207074 0.02728607
v -0.01916565 0.02065932 0.01280071
v -0.01921307 0.02062174 0.01280071
v -0.02006526 0.01986471 0.01280071
v -0.01990508 0.01827728 0.01722875
v -0.01819556 0.01799452 0.02113470
v -0.01969235 0.01800168 0.01810415
v -0.01983203 0.01668091 0.01989814
v -0.02144672 0.01531539 0.01873617
v -0.02136086 0.01369754 0.02145267
v -0.01812764 0.01340940 0.02853048
v -0.01673209 0.02252952 0.01280071
v -0.01755737 0.02189777 0.01280071
v -0.01846724 0.02119980 0.01280071
v -0.01820197 0.01949068 0.01810415
v -0.01658728 0.01638740 0.02696809
v -0.01788415 0.01924549 0.01910910
v -0.01490339 0.02077565 0.02066363
v -0.00982226 0.02427802 0.01892460
v -0.00982226 0.01810190 0.03363765
v -0.01080901 0.02102620 0.02572369
v -0.01065907 0.01646794 0.03615393
v -0.00982226 0.01344520 0.04365963
v -0.00982226 0.01492346 0.04061339
v -0.00982226 0.01637308 0.03748470
v -0.00982226 0.01780302 0.03430499
v -0.00982226 0.00932897 0.05171883
v -0.01039765 0.01019696 0.04929675
v -0.01104224 0.00792767 0.05165210
v -0.01095510 0.00792767 0.05182874
v -0.01068983 0.01048867 0.04829181
v -0.01083079 0.00919296 0.05009364
v -0.01140362 0.00820685 0.05047442
v -0.01435747 0.01114369 0.03981257
v -0.01624512 0.01442593 0.03078768
v -0.01489442 0.01312127 0.03560435
v -0.01673722 0.01506663 0.02876993
v -0.01846980 0.01536192 0.02476192
v -0.01528015 0.01211727 0.03639340
v -0.01364240 0.01344162 0.03762995
v -0.01526734 0.01653773 0.02876993
v -0.01387307 0.01662364 0.03078768
v -0.01362574 0.01643393 0.03156494
v -0.00982226 0.01195620 0.04670980
v -0.00982226 0.01044572 0.04975212
v -0.01194057 0.01018443 0.04626621
v -0.00982226 0.01084482 0.04895915
v -0.00987480 0.01087166 0.04882176
v -0.01038483 0.01173965 0.04626621
f 1 2 7
f 1 7 13
f 1 13 24
f 1 24 39
f 1 39 63
f 1 63 62
f 1 62 91
f 1 91 93
f 1 93 124
f 1 124 102
f 1 102 72
f 1 72 71
f 1 71 46
f 1 46 45
f 1 45 41
f 1 41 25
f 1 25 14
f 1 14 8
f 1 8 3
f 1 3 4
f 1 4 5
f 1 5 10
f 1 10 20
f 1 20 35
f 1 35 58
f 1 58 89
f 1 89 123
f 1 123 162
f 1 162 161
f 1 161 130
f 1 130 129
f 1 129 128
f 1 128 127
f 1 127 125
f 1 125 96
f 1 96 66
f 1 66 40
f 1 40 23
f 1 23 12
f 1 12 6
f 1 6 2
f 2 6 7
f 3 8 16
f 3 16 27
f 3 27 44
f 3 44 70
f 3 70 100
f 3 100 136
f 3 136 98
f 3 98 135
f 3 135 134
f 3 134 146
f 3 146 145
f 3 145 144
f 3 144 106
f 3 106 105
f 3 105 74
f 3 74 48
f 3 48 29
f 3 29 17
f 3 17 9
f 3 9 4
f 4 9 18
f 4 18 32
f 4 32 56
f 4 56 87
f 4 87 86
f 4 86 114
f 4 114 151
f 4 151 117
f 4 117 116
f 4 116 152
f 4 152 158
f 4 158 157
f 4 157 156
f 4 156 155
f 4 155 176
f 4 176 179
f 4 179 177
f 4 177 159
f 4 159 121
f 4 121 88
f 4 88 57
f 4 57 33
f 4 33 19
f 4 19 10
f 4 10 5
f 6 11 7
f 6 12 11
f 7 11 13
f 8 14 15
f 8 15 16
f 9 17 18
f 10 19 20
f 11 21 22
f 11 22 13
f 11 12 21
f 12 23 21
f 13 22 24
f 14 25 15
f 15 26 27
f 15 27 16
f 15 25 28
f 15 28 26
f 17 29 30
f 17 30 31
f 17 31 32
f 17 32 18
f 19 33 34
f 19 34 20
f 20 34 35
f 21 36 22
f 21 23 36
f 22 36 37
f 22 37 38
f 22 38 39
f 22 39 24
f 23 40 36
f 25 41 28
f 26 28 42
f 26 42 43
f 26 43 44
f 26 44 27
f 28 41 45
f 28 45 46
f 28 46 47
f 28 47 42
f 29 48 49
f 29 49 30
f 30 50 31
f 30 49 51
f 30 51 52
f 30 52 53
f 30 53 54
f 30 54 55
f 30 55 50
f 31 50 32
f 32 50 56
f 33 57 34
f 34 57 58
f 34 58 35
f 36 59 37
f 36 40 60
f 36 60 59
f 37 59 38
f 38 61 62
f 38 62 63
f 38 63 39
f 38 59 64
f 38 64 65
f 38 65 61
f 40 66 67
f 40 67 60
f 42 68 43
f 42 47 69
f 42 69 68
f 43 68 70
f 43 70 44
f 46 71 47
f 47 71 72
f 47 72 73
f 47 73 69
f 48 74 75
f 48 75 49
f 49 75 51
f 50 55 56
f 51 76 52
f 51 75 77
f 51 77 76
f 52 78 79
f 52 79 53
f 52 76 80
f 52 80 78
f 53 79 54
f 54 81 55
f 54 79 82
f 54 82 83
f 54 83 84
f 54 84 85
f 54 85 81
f 55 81 86
f 55 86 87
f 55 87 56
f 57 88 58
f 58 88 89
f 59 60 64
f 60 67 90
f 60 90 64
f 61 91 62
f 61 65 92
f 61 92 93
f 61 93 91
f 64 90 94
f 64 94 65
f 65 95 92
f 65 94 95
f 66 96 94
f 66 94 67
f 67 94 90
f 68 80 97
f 68 97 98
f 68 98 99
f 68 99 100
f 68 100 70
f 68 69 101
f 68 101 78
f 68 78 80
f 69 73 101
f 72 102 73
f 73 103 101
f 73 102 95
f 73 95 104
f 73 104 103
f 74 105 75
f 75 105 106
f 75 106 77
f 76 77 107
f 76 107 108
f 76 108 80
f 77 106 107
f 78 101 79
f 79 101 109
f 79 109 110
f 79 110 111
f 79 111 112
f 79 112 83
f 79 83 82
f 80 108 97
f 81 113 114
f 81 114 86
f 81 85 115
f 81 115 116
f 81 116 117
f 81 117 113
f 83 112 118
f 83 118 119
f 83 119 84
f 84 120 85
f 84 119 120
f 85 120 115
f 88 121 122
f 88 122 89
f 89 122 123
f 92 95 93
f 93 95 124
f 94 96 125
f 94 125 126
f 94 126 127
f 94 127 128
f 94 128 129
f 94 129 130
f 94 130 131
f 94 131 132
f 94 132 133
f 94 133 95
f 95 102 124
f 95 133 104
f 97 108 134
f 97 134 135
f 97 135 98
f 98 136 99
f 99 136 100
f 101 110 109
f 101 103 137
f 101 137 138
f 101 138 110
f 103 139 137
f 103 104 140
f 103 140 139
f 104 141 140
f 104 133 142
f 104 142 131
f 104 131 143
f 104 143 141
f 106 144 107
f 107 144 145
f 107 145 108
f 108 145 146
f 108 146 134
f 110 147 111
f 110 138 148
f 110 148 147
f 111 147 149
f 111 149 150
f 111 150 112
f 112 150 118
f 113 117 151
f 113 151 114
f 115 120 152
f 115 152 153
f 115 153 116
f 116 153 152
f 118 150 154
f 118 154 119
f 119 154 155
f 119 155 156
f 119 156 157
f 119 157 158
f 119 158 152
f 119 152 120
f 121 159 160
f 121 160 122
f 122 161 162
f 122 162 123
f 122 160 163
f 122 163 164
f 122 164 161
f 125 127 126
f 130 161 131
f 131 161 165
f 131 165 166
f 131 166 143
f 131 142 132
f 132 142 133
f 137 139 138
f 138 139 148
f 139 140 167
f 139 167 168
f 139 168 169
f 139 169 148
f 140 170 167
f 140 141 170
f 141 143 170
f 143 166 171
f 143 171 170
f 147 148 149
f 148 169 168
f 148 168 172
f 148 172 173
f 148 173 149
f 149 173 174
f 149 174 150
f 150 174 175
f 150 175 154
f 154 175 176
f 154 176 155
f 159 177 160
f 160 177 163
f 161 164 178
f 161 178 165
f 163 177 179
f 163 179 180
f 163 180 181
f 163 181 172
f 163 172 164
f 164 172 168
f 164 168 178
f 165 178 168
f 165 168 166
f 166 168 171
f 167 170 168
f 168 170 171
f 172 181 173
f 173 181 176
f 173 176 175
f 173 175 174
f 176 181 179
f 179 181 180

