# https://github.com/mikedh/trimesh
v 0.01650871 0.02488168 -0.07962996
v 0.01650871 0.02726409 -0.07962996
v 0.01650871 0.02523880 -0.08851835
v 0.02650682 0.01450795 -0.08851835
v 0.02624679 0.01450795 -0.07962996
v 0.01674679 0.02713673 -0.07962996
v 0.01650871 0.02726409 -0.08031382
v 0.01650871 0.02725660 -0.08851835
v 0.02829587 0.01450795 -0.08851835
v 0.02831437 0.01450795 -0.07962996
v 0.01779734 0.02633261 -0.07962996
v 0.01734661 0.02667848 -0.08851835
v 0.01674679 0.02713673 -0.08851835
v 0.02818030 0.01474519 -0.08851835
v 0.02814217 0.01486007 -0.07962996
v 0.01848152 0.02580693 -0.07962996
v 0.01848152 0.02580693 -0.08851835
v 0.02772842 0.01566669 -0.08851835
v 0.02774691 0.01566669 -0.07962996
v 0.01923505 0.02522756 -0.07962996
v 0.01943499 0.02507397 -0.08851835
v 0.02762787 0.01586772 -0.08851835
v 0.02759782 0.01596387 -0.07962996
v 0.01953207 0.02499906 -0.07962996
v 0.02021510 0.02447338 -0.08851835
v 0.02021510 0.02447338 -0.07962996
v 0.02723493 0.01664938 -0.08851835
v 0.02723493 0.01664938 -0.07962996
v 0.02266175 0.02256420 -0.08851835
v 0.02266175 0.02256420 -0.07962996
v 0.02677611 0.01724872 -0.08851835
v 0.02665822 0.01740231 -0.07962996
v 0.02457215 0.02011686 -0.08851835
v 0.02457215 0.02011686 -0.07962996
v 0.02590585 0.01838374 -0.08851835
v 0.02643055 0.01769948 -0.07962996
v 0.02590585 0.01838374 -0.07962996
f 1 2 7
f 1 7 8
f 1 8 3
f 1 3 4
f 1 4 5
f 1 5 10
f 1 10 15
f 1 15 19
f 1 19 23
f 1 23 28
f 1 28 32
f 1 32 36
f 1 36 37
f 1 37 34
f 1 34 30
f 1 30 26
f 1 26 24
f 1 24 20
f 1 20 16
f 1 16 11
f 1 11 6
f 1 6 2
f 2 6 13
f 2 13 7
f 3 8 13
f 3 13 12
f 3 12 17
f 3 17 21
f 3 21 25
f 3 25 29
f 3 29 33
f 3 33 35
f 3 35 31
f 3 31 27
f 3 27 22
f 3 22 18
f 3 18 14
f 3 14 9
f 3 9 4
f 4 9 10
f 4 10 5
f 6 11 12
f 6 12 13
f 7 13 8
f 9 14 10
f 10 14 15
f 11 16 17
f 11 17 12
f 14 18 19
f 14 19 15
f 16 20 21
f 16 21 17
f 18 22 19
f 19 22 23
f 20 24 21
f 21 24 26
f 21 26 25
f 22 27 23
f 23 27 28
f 25 26 30
f 25 30 29
f 27 31 28
f 28 31 32
f 29 30 34
f 29 34 33
f 31 35 36
f 31 36 32
f 33 34 37
f 33 37 35
f 35 37 36

