# https://github.com/mikedh/trimesh
v 0.01103587 0.02988192 -0.09372355
v 0.01103587 0.02987935 -0.09371603
v 0.01106099 0.02987548 -0.09372355
v 0.01103587 0.02900934 -0.09372355
v 0.01103587 0.02951899 -0.09304858
v 0.01205953 0.02920625 -0.09303466
v 0.01142995 0.02976223 -0.09372355
v 0.01103587 0.01770692 -0.09081646
v 0.02574384 0.01673524 -0.09372355
v 0.01103587 0.02920882 -0.09260599
v 0.01142995 0.02915219 -0.09264435
v 0.01182716 0.02909170 -0.09269737
v 0.01306277 0.02906982 -0.09337347
v 0.01273464 0.02912131 -0.09327570
v 0.01273464 0.02934653 -0.09372355
v 0.01103587 0.01673524 -0.09053218
v 0.02707522 0.01673524 -0.09372355
v 0.01103587 0.02874293 -0.09242474
v 0.01142995 0.02874293 -0.09247513
v 0.01376300 0.02843791 -0.09270338
v 0.01349767 0.02900161 -0.09355735
v 0.01303765 0.02923842 -0.09372355
v 0.01103587 0.01673524 -0.08988240
v 0.02696532 0.01699135 -0.09372355
v 0.02682716 0.01673524 -0.09346710
v 0.01103587 0.02714448 -0.09206075
v 0.01273464 0.02809042 -0.09246385
v 0.01338777 0.02809042 -0.09254695
v 0.01400478 0.02807369 -0.09264623
v 0.01446166 0.02784589 -0.09268345
v 0.01489813 0.02764512 -0.09279777
v 0.01636296 0.02713547 -0.09334978
v 0.01518701 0.02788193 -0.09323321
v 0.01441299 0.02843920 -0.09332045
v 0.01400478 0.02853186 -0.09308054
v 0.01358873 0.02903250 -0.09372355
v 0.01334381 0.02912903 -0.09372355
v 0.01142995 0.01673524 -0.08992489
v 0.01103587 0.01699135 -0.08992752
v 0.02681146 0.01727320 -0.09372355
v 0.02614106 0.01799521 -0.09335091
v 0.02622741 0.01764386 -0.09327156
v 0.02669998 0.01699135 -0.09344943
v 0.02675336 0.01673524 -0.09339265
v 0.01103587 0.02613161 -0.09184754
v 0.01193707 0.02656147 -0.09204608
v 0.01273464 0.02600677 -0.09202540
v 0.01318366 0.02587678 -0.09205285
v 0.01404089 0.02743662 -0.09248942
v 0.01710401 0.02330922 -0.09203931
v 0.01535029 0.02678926 -0.09260561
v 0.01601598 0.02614963 -0.09259508
v 0.01648542 0.02594499 -0.09267142
v 0.01759228 0.02511231 -0.09274061
v 0.01692032 0.02574937 -0.09274700
v 0.01624521 0.02638000 -0.09275640
v 0.01557010 0.02701063 -0.09277069
v 0.01778540 0.02268632 -0.09202390
v 0.01601598 0.02678926 -0.09288839
v 0.01660945 0.02675065 -0.09322682
v 0.01876666 0.02547524 -0.09372355
v 0.01868502 0.02554731 -0.09372355
v 0.01834432 0.02583946 -0.09372355
v 0.01802247 0.02610587 -0.09372355
v 0.01762368 0.02643148 -0.09372355
v 0.01651211 0.02724872 -0.09370024
v 0.01602069 0.02758978 -0.09366715
v 0.01562348 0.02772491 -0.09342724
v 0.01425285 0.02867858 -0.09372355
v 0.01398908 0.02883044 -0.09372355
v 0.01575379 0.02781243 -0.09372355
v 0.01206424 0.01673524 -0.09000612
v 0.01142995 0.01699135 -0.08997716
v 0.01103587 0.01718311 -0.08996738
v 0.02660578 0.01763871 -0.09372355
v 0.02576582 0.01824617 -0.09321930
v 0.02579251 0.01764386 -0.09300233
v 0.02626195 0.01811490 -0.09372355
v 0.02480340 0.01995788 -0.09372355
v 0.02553032 0.01871722 -0.09330466
v 0.02637342 0.01699135 -0.09316853
v 0.02643151 0.01673524 -0.09314296
v 0.01103587 0.02080215 -0.09072621
v 0.01130906 0.02070048 -0.09073749
v 0.01273464 0.02547781 -0.09191409
v 0.01246302 0.02322685 -0.09140833
v 0.01339562 0.02550870 -0.09200246
v 0.01404089 0.02528991 -0.09203931
v 0.01440671 0.02517666 -0.09206300
v 0.01519486 0.02460652 -0.09204570
v 0.01600028 0.02402994 -0.09202954
v 0.01639593 0.02390124 -0.09205661
v 0.01968512 0.01870048 -0.09139931
v 0.01668324 0.02550999 -0.09258832
v 0.01715582 0.02531308 -0.09266766
v 0.01782151 0.02467730 -0.09266427
v 0.01958464 0.02318953 -0.09272406
v 0.02268073 0.02041734 -0.09278385
v 0.02201504 0.02105826 -0.09278987
v 0.02512525 0.01894115 -0.09319861
v 0.02489603 0.01935299 -0.09331782
v 0.01668324 0.02614963 -0.09286507
v 0.01845109 0.02204539 -0.09201825
v 0.01930518 0.02095144 -0.09192914
v 0.02176226 0.02208271 -0.09323509
v 0.02108715 0.02271463 -0.09324787
v 0.02422406 0.01998619 -0.09333248
v 0.02287384 0.02125260 -0.09336181
v 0.01771318 0.02587807 -0.09332045
v 0.01865048 0.02551385 -0.09367467
v 0.02251902 0.02207113 -0.09372355
v 0.01651996 0.02725773 -0.09372355
v 0.01608035 0.02758077 -0.09372355
v 0.01596103 0.02766571 -0.09372355
v 0.01262316 0.01673524 -0.09007794
v 0.01338777 0.02482531 -0.09185882
v 0.01142995 0.01747140 -0.09007719
v 0.01259961 0.01678286 -0.09008471
v 0.01665341 0.01742507 -0.09074013
v 0.01795967 0.01895016 -0.09122521
v 0.01665341 0.02286778 -0.09187160
v 0.01103587 0.02027834 -0.09061604
v 0.01142995 0.01960267 -0.09052203
v 0.02511269 0.01827191 -0.09287184
v 0.02576896 0.01701066 -0.09283236
v 0.02585531 0.01673524 -0.09281281
v 0.02532150 0.01764386 -0.09277821
v 0.02446741 0.02030022 -0.09372355
v 0.02621956 0.01673524 -0.09301850
v 0.01148804 0.02031695 -0.09067883
v 0.01208151 0.02286778 -0.09128650
v 0.01926279 0.01883948 -0.09137035
v 0.01730654 0.02221528 -0.09182159
v 0.01698469 0.01732211 -0.09076156
v 0.01926279 0.01829637 -0.09127071
v 0.01926279 0.01764386 -0.09117444
v 0.01990807 0.01826290 -0.09137299
v 0.02026760 0.01802224 -0.09140909
v 0.02187530 0.01829637 -0.09190168
v 0.02220972 0.01863099 -0.09206563
v 0.02128498 0.01901322 -0.09191033
v 0.02056905 0.01895016 -0.09170164
v 0.01734736 0.02486778 -0.09258192
v 0.01848720 0.02403638 -0.09266051
v 0.02024876 0.02254732 -0.09271880
v 0.02334642 0.01977642 -0.09277934
v 0.02446898 0.01892957 -0.09288124
v 0.02465896 0.01978928 -0.09347613
v 0.01996459 0.02030537 -0.09192199
v 0.02062557 0.01965930 -0.09191560
v 0.02423976 0.01869920 -0.09269699
v 0.02290995 0.01998233 -0.09270413
v 0.02381585 0.02089353 -0.09372355
v 0.01600028 0.01673524 -0.09053444
v 0.01600028 0.01699135 -0.09057279
v 0.01867089 0.01901194 -0.09132974
v 0.02487719 0.01803768 -0.09270301
v 0.02467622 0.01847269 -0.09277182
v 0.02553503 0.01680731 -0.09270000
v 0.02555230 0.01673524 -0.09269473
v 0.02499494 0.01764386 -0.09266992
v 0.01639750 0.01673524 -0.09059272
v 0.01693758 0.01673524 -0.09067620
v 0.01711971 0.01699135 -0.09073937
v 0.01991592 0.01673524 -0.09119061
v 0.01991592 0.01699135 -0.09121844
v 0.01991592 0.01764386 -0.09129402
v 0.01721391 0.01673524 -0.09072170
v 0.02058789 0.01696947 -0.09135907
v 0.02093015 0.01673653 -0.09140683
v 0.02252843 0.01699135 -0.09187912
v 0.02255983 0.01764386 -0.09198479
v 0.02187530 0.01878929 -0.09201562
v 0.02224583 0.02062326 -0.09270789
v 0.02401054 0.01913420 -0.09277558
v 0.02518177 0.01701066 -0.09262893
v 0.02547537 0.01673524 -0.09267217
v 0.02516450 0.01673524 -0.09258305
v 0.02302770 0.01699135 -0.09201938
v 0.02058004 0.01673524 -0.09133125
v 0.02093015 0.01673524 -0.09140683
v 0.02252843 0.01673524 -0.09184528
v 0.02310306 0.01673524 -0.09200321
f 1 2 3
f 1 3 7
f 1 7 15
f 1 15 22
f 1 22 37
f 1 37 36
f 1 36 70
f 1 70 69
f 1 69 71
f 1 71 114
f 1 114 113
f 1 113 112
f 1 112 65
f 1 65 64
f 1 64 63
f 1 63 62
f 1 62 61
f 1 61 111
f 1 111 153
f 1 153 128
f 1 128 79
f 1 79 78
f 1 78 75
f 1 75 40
f 1 40 24
f 1 24 17
f 1 17 9
f 1 9 4
f 1 4 8
f 1 8 16
f 1 16 23
f 1 23 39
f 1 39 74
f 1 74 122
f 1 122 83
f 1 83 45
f 1 45 26
f 1 26 18
f 1 18 10
f 1 10 5
f 1 5 2
f 2 5 6
f 2 6 7
f 2 7 3
f 4 9 8
f 5 10 11
f 5 11 12
f 5 12 6
f 6 12 13
f 6 13 14
f 6 14 7
f 7 14 13
f 7 13 15
f 8 9 16
f 9 17 25
f 9 25 44
f 9 44 82
f 9 82 129
f 9 129 126
f 9 126 160
f 9 160 177
f 9 177 178
f 9 178 183
f 9 183 182
f 9 182 181
f 9 181 180
f 9 180 165
f 9 165 168
f 9 168 163
f 9 163 162
f 9 162 154
f 9 154 115
f 9 115 72
f 9 72 38
f 9 38 23
f 9 23 16
f 10 18 19
f 10 19 20
f 10 20 11
f 11 20 12
f 12 20 13
f 13 20 21
f 13 21 15
f 15 21 22
f 17 24 25
f 18 26 27
f 18 27 28
f 18 28 19
f 19 28 20
f 20 28 29
f 20 29 30
f 20 30 31
f 20 31 32
f 20 32 33
f 20 33 34
f 20 34 35
f 20 35 21
f 21 35 34
f 21 34 36
f 21 36 37
f 21 37 22
f 23 38 39
f 24 40 41
f 24 41 42
f 24 42 43
f 24 43 25
f 25 43 44
f 26 45 46
f 26 46 27
f 27 46 47
f 27 47 48
f 27 48 49
f 27 49 28
f 28 49 29
f 29 49 50
f 29 50 30
f 30 51 52
f 30 52 53
f 30 53 54
f 30 54 55
f 30 55 56
f 30 56 57
f 30 57 31
f 30 50 58
f 30 58 51
f 31 57 59
f 31 59 60
f 31 60 32
f 32 60 61
f 32 61 62
f 32 62 63
f 32 63 64
f 32 64 65
f 32 65 66
f 32 66 67
f 32 67 68
f 32 68 33
f 33 68 34
f 34 69 70
f 34 70 36
f 34 68 71
f 34 71 69
f 38 72 73
f 38 73 39
f 39 73 74
f 40 75 41
f 41 76 77
f 41 77 42
f 41 75 78
f 41 78 79
f 41 79 80
f 41 80 76
f 42 77 81
f 42 81 44
f 42 44 43
f 44 81 82
f 45 83 84
f 45 84 46
f 46 85 47
f 46 84 85
f 47 85 48
f 48 85 86
f 48 86 87
f 48 87 49
f 49 87 88
f 49 88 89
f 49 89 90
f 49 90 91
f 49 91 92
f 49 92 50
f 50 93 58
f 50 92 93
f 51 58 52
f 52 58 94
f 52 94 95
f 52 95 53
f 53 95 54
f 54 95 96
f 54 96 97
f 54 97 98
f 54 98 99
f 54 99 100
f 54 100 55
f 55 100 101
f 55 101 102
f 55 102 56
f 56 59 57
f 56 102 59
f 58 103 94
f 58 93 104
f 58 104 103
f 59 102 60
f 60 102 105
f 60 105 106
f 60 106 107
f 60 107 108
f 60 108 109
f 60 109 110
f 60 110 61
f 61 110 111
f 65 112 66
f 66 112 67
f 67 112 113
f 67 113 114
f 67 114 71
f 67 71 68
f 72 115 73
f 73 88 116
f 73 116 117
f 73 117 74
f 73 115 118
f 73 118 119
f 73 119 120
f 73 120 121
f 73 121 88
f 74 117 86
f 74 86 123
f 74 123 122
f 76 80 124
f 76 124 77
f 77 125 126
f 77 126 81
f 77 124 127
f 77 127 125
f 79 128 80
f 80 128 101
f 80 101 100
f 80 100 124
f 81 126 129
f 81 129 82
f 83 122 84
f 84 122 123
f 84 123 130
f 84 130 86
f 84 86 131
f 84 131 85
f 85 131 86
f 86 130 123
f 86 117 116
f 86 116 87
f 87 116 88
f 88 90 89
f 88 121 90
f 90 121 91
f 91 121 132
f 91 132 133
f 91 133 92
f 92 133 93
f 93 133 132
f 93 132 134
f 93 134 135
f 93 135 136
f 93 136 137
f 93 137 138
f 93 138 139
f 93 139 140
f 93 140 141
f 93 141 142
f 93 142 104
f 94 103 143
f 94 143 95
f 95 143 96
f 96 143 144
f 96 144 145
f 96 145 97
f 97 145 146
f 97 146 98
f 98 146 147
f 98 147 99
f 99 147 100
f 100 147 124
f 101 128 148
f 101 148 107
f 101 107 105
f 101 105 102
f 103 144 143
f 103 104 149
f 103 149 150
f 103 150 140
f 103 140 151
f 103 151 152
f 103 152 144
f 104 142 149
f 105 107 106
f 107 148 108
f 108 148 111
f 108 111 109
f 109 111 110
f 111 148 153
f 115 154 155
f 115 155 134
f 115 134 118
f 118 134 119
f 119 134 132
f 119 132 156
f 119 156 120
f 120 156 121
f 121 156 132
f 124 157 127
f 124 147 158
f 124 158 157
f 125 127 126
f 126 127 159
f 126 159 160
f 127 157 161
f 127 161 159
f 128 153 148
f 134 155 154
f 134 154 162
f 134 162 163
f 134 163 164
f 134 164 136
f 134 136 135
f 136 165 166
f 136 166 167
f 136 167 137
f 136 164 163
f 136 163 168
f 136 168 165
f 137 167 138
f 138 167 166
f 138 166 169
f 138 169 170
f 138 170 171
f 138 171 172
f 138 172 139
f 139 172 161
f 139 161 157
f 139 157 140
f 140 157 151
f 140 150 173
f 140 173 141
f 141 150 142
f 141 173 150
f 142 150 149
f 144 152 174
f 144 174 145
f 145 174 146
f 146 174 152
f 146 152 151
f 146 151 175
f 146 175 147
f 147 175 158
f 151 157 158
f 151 158 175
f 159 161 176
f 159 176 177
f 159 177 160
f 161 178 176
f 161 172 179
f 161 179 178
f 165 180 166
f 166 180 169
f 169 180 170
f 170 180 181
f 170 181 182
f 170 182 171
f 171 182 183
f 171 183 179
f 171 179 172
f 176 178 177
f 178 179 183

