# https://github.com/mikedh/trimesh
v -0.00522691 0.00370772 -0.08174269
v -0.00477495 0.00370772 -0.07868167
v -0.00516597 0.00393107 -0.08174269
v -0.00429252 0.00370772 -0.08174269
v -0.00496589 0.00459186 -0.08174269
v -0.00467644 0.00370772 -0.07802904
v -0.00235265 0.00370772 -0.07412295
v 0.00475277 0.00372495 -0.08174269
v 0.00514887 0.00372495 -0.08174120
v -0.00470589 0.00497123 -0.08174269
v -0.00466425 0.00373612 -0.07802904
v -0.00461651 0.00431698 -0.07948944
v -0.00464495 0.00370772 -0.07786719
v -0.00357040 0.00370772 -0.07412295
v 0.00490918 0.00372495 -0.07978182
v 0.00482793 0.00372495 -0.07912919
v 0.00471926 0.00372495 -0.07849520
v 0.00462684 0.00372495 -0.07803575
v 0.00397378 0.00372495 -0.07509481
v 0.00392503 0.00372495 -0.07489119
v 0.00372901 0.00372495 -0.07412295
v 0.00512958 0.00393091 -0.08174269
v -0.00393095 0.00427455 -0.07699751
v -0.00330634 0.00429752 -0.07494042
v -0.00283711 0.00435368 -0.07412295
v -0.00442151 0.00509790 -0.08174269
v -0.00458198 0.00370772 -0.07762180
v -0.00440729 0.00406269 -0.07802904
v -0.00345970 0.00384077 -0.07412295
v -0.00386900 0.00370772 -0.07515299
v 0.00505747 0.00447476 -0.08174269
v 0.00503309 0.00458372 -0.08174269
v 0.00458012 0.00427582 -0.07896957
v 0.00401034 0.00380312 -0.07541777
v 0.00467762 0.00394447 -0.07872269
v 0.00389760 0.00422477 -0.07581233
v 0.00338978 0.00441924 -0.07412295
v 0.00363455 0.00393059 -0.07412295
v -0.00322712 0.00423418 -0.07450483
v -0.00282797 0.00435766 -0.07412295
v -0.00315297 0.00416766 -0.07412295
v -0.00421940 0.00517464 -0.08174269
v -0.00345056 0.00385082 -0.07412295
v 0.00485434 0.00494746 -0.08174269
v 0.00462074 0.00435862 -0.07933504
v 0.00395143 0.00431794 -0.07624717
v 0.00406925 0.00397654 -0.07604653
v 0.00294798 0.00461132 -0.07412295
v 0.00477410 0.00510141 -0.08174269
v -0.00228359 0.00447955 -0.07412295
v -0.00374205 0.00522553 -0.08174269
v 0.00293884 0.00461483 -0.07412295
v 0.00424495 0.00530354 -0.08174269
v -0.00227241 0.00448035 -0.07412295
v -0.00358868 0.00523845 -0.08174269
v 0.00229797 0.00464084 -0.07412295
v 0.00359190 0.00533736 -0.08174269
v -0.00097747 0.00456522 -0.07412295
v -0.00308797 0.00524547 -0.08174269
v -0.00032441 0.00459984 -0.07412295
v 0.00015294 0.00461419 -0.07412295
v 0.00032763 0.00461930 -0.07412295
v 0.00099186 0.00462855 -0.07412295
v 0.00020270 0.00529094 -0.08174269
f 1 2 3
f 1 3 5
f 1 5 10
f 1 10 26
f 1 26 42
f 1 42 51
f 1 51 55
f 1 55 59
f 1 59 64
f 1 64 57
f 1 57 53
f 1 53 49
f 1 49 44
f 1 44 32
f 1 32 31
f 1 31 22
f 1 22 8
f 1 8 4
f 1 4 7
f 1 7 14
f 1 14 30
f 1 30 27
f 1 27 13
f 1 13 6
f 1 6 2
f 2 5 3
f 2 6 5
f 4 8 9
f 4 9 7
f 5 6 11
f 5 11 12
f 5 12 10
f 6 13 11
f 7 9 15
f 7 15 16
f 7 16 17
f 7 17 18
f 7 18 19
f 7 19 20
f 7 20 21
f 7 21 38
f 7 38 37
f 7 37 48
f 7 48 52
f 7 52 56
f 7 56 63
f 7 63 62
f 7 62 61
f 7 61 60
f 7 60 58
f 7 58 54
f 7 54 50
f 7 50 40
f 7 40 25
f 7 25 41
f 7 41 43
f 7 43 29
f 7 29 14
f 8 22 9
f 9 22 15
f 10 12 23
f 10 23 24
f 10 24 25
f 10 25 26
f 11 13 12
f 12 13 27
f 12 27 28
f 12 28 23
f 14 29 30
f 15 22 16
f 16 22 31
f 16 31 32
f 16 32 17
f 17 32 18
f 18 33 34
f 18 34 19
f 18 32 35
f 18 35 33
f 19 34 36
f 19 36 20
f 20 36 37
f 20 37 38
f 20 38 21
f 23 28 29
f 23 29 24
f 24 39 25
f 24 29 39
f 25 40 26
f 25 39 41
f 26 40 42
f 27 30 28
f 28 30 29
f 29 43 39
f 32 44 45
f 32 45 35
f 33 35 45
f 33 45 46
f 33 46 47
f 33 47 34
f 34 47 46
f 34 46 36
f 36 46 37
f 37 46 49
f 37 49 48
f 39 43 41
f 40 50 42
f 42 50 51
f 44 49 46
f 44 46 45
f 48 49 52
f 49 53 52
f 50 54 55
f 50 55 51
f 52 53 57
f 52 57 56
f 54 58 55
f 55 58 60
f 55 60 61
f 55 61 62
f 55 62 59
f 56 57 63
f 57 64 63
f 59 62 63
f 59 63 64

