# https://github.com/mikedh/trimesh
v 0.00004420 -0.00400304 -0.05018318
v -0.00382170 0.00020149 -0.05018318
v -0.00411269 0.00020149 -0.05013617
v -0.00424237 0.00001252 -0.05012207
v -0.00032512 -0.00400612 -0.05016908
v 0.00004420 -0.00431576 -0.05018318
v 0.00004420 -0.00387107 -0.05041588
v 0.00004420 -0.00377094 -0.05060627
v -0.00378331 0.00020149 -0.05030776
v -0.00425533 0.00020149 -0.05013617
v -0.00452714 0.00020149 -0.05020199
v -0.00461998 0.00001252 -0.05021609
v -0.00424237 -0.00064013 -0.05011032
v -0.00032512 -0.00433220 -0.05016908
v 0.00004420 -0.00436609 -0.05037122
v 0.00004420 -0.00377351 -0.05125971
v -0.00372418 0.00020149 -0.05079431
v -0.00372418 0.00020149 -0.05060627
v -0.00461168 0.00020149 -0.05022549
v -0.00464851 0.00020149 -0.05045819
v -0.00468119 0.00001252 -0.05060627
v -0.00460183 -0.00064013 -0.05023724
v -0.00423925 -0.00123477 -0.05016203
v -0.00342748 -0.00259862 -0.05016673
v -0.00288907 -0.00255292 -0.05013617
v -0.00097816 -0.00433220 -0.05017143
v -0.00097816 -0.00444773 -0.05060627
v -0.00032512 -0.00444773 -0.05060627
v 0.00004420 -0.00441333 -0.05060627
v 0.00004420 -0.00382743 -0.05881184
v 0.00004420 -0.00382948 -0.05909390
v -0.00372781 0.00020149 -0.05125971
v -0.00466044 0.00020149 -0.05060627
v -0.00464436 -0.00064013 -0.05060627
v -0.00525125 -0.00001418 -0.07412295
v -0.00525436 -0.00061086 -0.07412295
v -0.00457537 -0.00097853 -0.05027015
v -0.00401984 -0.00178575 -0.05018553
v -0.00289270 -0.00322971 -0.05017848
v -0.00331648 -0.00299812 -0.05022314
v -0.00228426 -0.00369289 -0.05019023
v -0.00140246 -0.00428701 -0.05021844
v -0.00146419 -0.00432193 -0.05060627
v -0.00097816 -0.00447187 -0.05125971
v -0.00032512 -0.00447135 -0.05125971
v 0.00004420 -0.00442360 -0.05088833
v 0.00004420 -0.00397069 -0.07215089
v -0.00384556 0.00020149 -0.05713594
v -0.00467082 0.00020149 -0.05103876
v -0.00458264 -0.00099342 -0.05060627
v -0.00521234 -0.00089842 -0.07412295
v -0.00524865 0.00000225 -0.07412295
v -0.00440783 -0.00132001 -0.05060627
v -0.00408105 -0.00188229 -0.05060627
v -0.00264580 -0.00359840 -0.05025605
v -0.00334916 -0.00304331 -0.05060627
v -0.00300474 -0.00336990 -0.05060627
v -0.00148909 -0.00433374 -0.05125971
v -0.00097816 -0.00449087 -0.05191079
v -0.00267796 -0.00361740 -0.05060627
v -0.00228426 -0.00387723 -0.05125971
v -0.00181587 -0.00414888 -0.05125971
v -0.00329055 -0.00425774 -0.07345776
v -0.00330663 -0.00427622 -0.07411120
v -0.00032512 -0.00448933 -0.05191079
v 0.00004420 -0.00443490 -0.05125971
v 0.00004420 -0.00401383 -0.07280433
v -0.00419516 0.00020149 -0.07280433
v -0.00416145 0.00020149 -0.07215089
v -0.00415004 0.00020149 -0.07168784
v -0.00411943 0.00020149 -0.07038097
v -0.00410024 0.00020149 -0.06953949
v -0.00520352 0.00020149 -0.07412295
v -0.00442080 -0.00133490 -0.05125971
v -0.00509563 -0.00124452 -0.07412295
v -0.00503806 -0.00135595 -0.07412295
v -0.00475951 -0.00189051 -0.07412295
v -0.00409454 -0.00190078 -0.05125971
v -0.00303119 -0.00338633 -0.05125971
v -0.00326357 -0.00357889 -0.05809729
v -0.00325164 -0.00356554 -0.05766010
v -0.00323556 -0.00354911 -0.05713594
v -0.00151347 -0.00434401 -0.05191079
v -0.00097816 -0.00450884 -0.05256423
v -0.00270441 -0.00363281 -0.05125971
v -0.00275265 -0.00366105 -0.05256423
v -0.00330663 -0.00427622 -0.07412295
v -0.00293679 -0.00441590 -0.07412295
v -0.00032512 -0.00454324 -0.05387111
v 0.00004420 -0.00444260 -0.05154177
v 0.00004420 -0.00419201 -0.07411120
v -0.00433885 0.00020149 -0.07411825
v -0.00426208 0.00020149 -0.07345776
v -0.00458264 0.00020149 -0.07412295
v -0.00153733 -0.00435274 -0.05256423
v -0.00097816 -0.00452424 -0.05321767
v 0.00004420 -0.00504442 -0.07412295
v -0.00032512 -0.00455968 -0.05452454
v -0.00228426 -0.00461976 -0.07412295
v 0.00004420 -0.00419304 -0.07411825
v -0.00434455 0.00002433 -0.07412295
v -0.00158557 -0.00483080 -0.07412295
v -0.00132051 -0.00489961 -0.07412295
v -0.00095015 -0.00495610 -0.07412295
v 0.00004420 -0.00442206 -0.07412295
f 1 2 3
f 1 3 4
f 1 4 5
f 1 5 14
f 1 14 6
f 1 6 15
f 1 15 29
f 1 29 46
f 1 46 66
f 1 66 90
f 1 90 97
f 1 97 105
f 1 105 100
f 1 100 91
f 1 91 67
f 1 67 47
f 1 47 31
f 1 31 30
f 1 30 16
f 1 16 8
f 1 8 7
f 1 7 2
f 2 7 8
f 2 8 9
f 2 9 18
f 2 18 17
f 2 17 32
f 2 32 48
f 2 48 72
f 2 72 71
f 2 71 70
f 2 70 69
f 2 69 68
f 2 68 93
f 2 93 92
f 2 92 94
f 2 94 73
f 2 73 49
f 2 49 33
f 2 33 20
f 2 20 19
f 2 19 11
f 2 11 10
f 2 10 3
f 3 10 4
f 4 10 11
f 4 11 12
f 4 12 13
f 4 13 5
f 5 13 14
f 6 14 15
f 8 16 17
f 8 17 18
f 8 18 9
f 11 19 12
f 12 19 20
f 12 20 21
f 12 21 22
f 12 22 13
f 13 23 24
f 13 24 25
f 13 25 14
f 13 22 23
f 14 26 27
f 14 27 28
f 14 28 15
f 14 25 26
f 15 28 29
f 16 30 17
f 17 30 31
f 17 31 32
f 20 33 21
f 21 34 22
f 21 33 35
f 21 35 36
f 21 36 34
f 22 37 23
f 22 34 37
f 23 37 38
f 23 38 24
f 24 39 25
f 24 38 40
f 24 40 39
f 25 39 26
f 26 39 41
f 26 41 42
f 26 42 27
f 27 43 44
f 27 44 28
f 27 42 43
f 28 44 45
f 28 45 46
f 28 46 29
f 31 47 32
f 32 47 48
f 33 49 35
f 34 50 37
f 34 36 51
f 34 51 50
f 35 52 73
f 35 73 94
f 35 94 101
f 35 101 105
f 35 105 97
f 35 97 104
f 35 104 103
f 35 103 102
f 35 102 99
f 35 99 88
f 35 88 87
f 35 87 77
f 35 77 76
f 35 76 75
f 35 75 51
f 35 51 36
f 35 49 52
f 37 40 38
f 37 50 53
f 37 53 54
f 37 54 40
f 39 40 55
f 39 55 41
f 40 54 56
f 40 56 57
f 40 57 55
f 41 55 42
f 42 55 43
f 43 58 59
f 43 59 44
f 43 55 60
f 43 60 61
f 43 61 62
f 43 62 63
f 43 63 64
f 43 64 58
f 44 59 45
f 45 59 65
f 45 65 66
f 45 66 46
f 47 67 68
f 47 68 69
f 47 69 70
f 47 70 71
f 47 71 72
f 47 72 48
f 49 73 52
f 50 74 53
f 50 51 75
f 50 75 76
f 50 76 77
f 50 77 74
f 53 74 78
f 53 78 54
f 54 78 56
f 55 57 60
f 56 79 57
f 56 78 80
f 56 80 81
f 56 81 82
f 56 82 79
f 57 79 60
f 58 83 84
f 58 84 59
f 58 64 83
f 59 84 89
f 59 89 65
f 60 79 85
f 60 85 61
f 61 85 63
f 61 63 62
f 63 85 86
f 63 86 80
f 63 80 64
f 64 77 87
f 64 87 88
f 64 88 83
f 64 80 78
f 64 78 77
f 65 89 66
f 66 89 90
f 67 91 92
f 67 92 93
f 67 93 68
f 74 77 78
f 79 82 81
f 79 81 85
f 80 86 85
f 80 85 81
f 83 95 96
f 83 96 84
f 83 88 95
f 84 96 97
f 84 97 98
f 84 98 89
f 88 99 95
f 89 98 97
f 89 97 90
f 91 100 92
f 92 100 101
f 92 101 94
f 95 99 102
f 95 102 96
f 96 102 103
f 96 103 104
f 96 104 97
f 100 105 101

