# https://github.com/mikedh/trimesh
v 0.02680862 0.01099595 -0.09691140
v 0.02956175 0.00992749 -0.09541204
v 0.02944520 0.01099595 -0.09541204
v 0.02858485 0.01099595 -0.09691140
v 0.02726821 0.00734430 -0.09691140
v 0.02842158 0.00003670 -0.09691140
v 0.03148092 0.00003670 -0.09541204
v 0.03055954 0.01099595 -0.09541204
v 0.02902300 0.01099595 -0.09669784
v 0.02935450 0.01066339 -0.09661813
v 0.02862388 0.01090691 -0.09691140
v 0.03026213 0.00003670 -0.09691140
v 0.03226375 0.00003670 -0.09541204
v 0.03056119 0.01099595 -0.09542701
v 0.03071292 0.01082753 -0.09541204
v 0.03025168 0.01099595 -0.09608723
v 0.03041221 0.01047459 -0.09612980
v 0.02910546 0.01045206 -0.09677181
v 0.02882124 0.01044026 -0.09691140
v 0.03026982 0.00012038 -0.09691140
v 0.03086630 0.00197195 -0.09672367
v 0.03034349 0.00003670 -0.09687295
v 0.03226705 0.00003670 -0.09565966
v 0.03242483 0.00197195 -0.09565966
v 0.03242098 0.00197195 -0.09541204
v 0.03057988 0.01099595 -0.09560403
v 0.03071292 0.01082753 -0.09545989
v 0.03137536 0.00833337 -0.09541204
v 0.03034349 0.01099595 -0.09602543
v 0.03072282 0.01026648 -0.09600767
v 0.02940947 0.01022893 -0.09665043
v 0.03039957 0.00327856 -0.09691140
v 0.03046718 0.00249224 -0.09691140
v 0.03217195 0.00197195 -0.09608327
v 0.03167003 0.00003670 -0.09623885
v 0.03076405 0.00003670 -0.09667377
v 0.03047433 0.00262526 -0.09691140
v 0.03087455 0.00262526 -0.09673526
v 0.03207904 0.00003670 -0.09603820
v 0.03214226 0.00131972 -0.09606697
v 0.03214171 0.00262526 -0.09607006
v 0.03238415 0.00262526 -0.09565966
v 0.03239899 0.00262526 -0.09541204
v 0.03054855 0.01099595 -0.09571720
v 0.03066179 0.01070201 -0.09589524
v 0.03137536 0.00833337 -0.09546972
v 0.03096745 0.00980734 -0.09565966
v 0.03078549 0.01047459 -0.09567037
v 0.03202736 0.00506362 -0.09541204
v 0.03036438 0.00980734 -0.09623210
v 0.03130060 0.00796864 -0.09590507
v 0.03134513 0.00753310 -0.09598727
v 0.03080858 0.00327856 -0.09670606
v 0.03041111 0.00321849 -0.09691140
v 0.03199768 0.00426335 -0.09598668
v 0.03205980 0.00452296 -0.09567390
v 0.03202736 0.00506362 -0.09546576
v 0.03195205 0.00469889 -0.09590111
f 1 2 3
f 1 3 8
f 1 8 14
f 1 14 26
f 1 26 44
f 1 44 29
f 1 29 16
f 1 16 9
f 1 9 4
f 1 4 11
f 1 11 19
f 1 19 32
f 1 32 54
f 1 54 37
f 1 37 33
f 1 33 20
f 1 20 12
f 1 12 6
f 1 6 5
f 1 5 2
f 2 5 6
f 2 6 7
f 2 7 13
f 2 13 25
f 2 25 43
f 2 43 49
f 2 49 28
f 2 28 15
f 2 15 8
f 2 8 3
f 4 9 10
f 4 10 11
f 6 12 22
f 6 22 36
f 6 36 35
f 6 35 39
f 6 39 23
f 6 23 13
f 6 13 7
f 8 15 14
f 9 16 10
f 10 16 17
f 10 17 18
f 10 18 19
f 10 19 11
f 12 20 21
f 12 21 22
f 13 23 24
f 13 24 25
f 14 15 26
f 15 27 26
f 15 28 46
f 15 46 27
f 16 29 30
f 16 30 17
f 17 30 18
f 18 30 19
f 19 30 31
f 19 31 32
f 20 33 21
f 21 34 35
f 21 35 36
f 21 36 22
f 21 33 37
f 21 37 38
f 21 38 34
f 23 39 24
f 24 39 40
f 24 40 34
f 24 34 41
f 24 41 42
f 24 42 43
f 24 43 25
f 26 27 45
f 26 45 44
f 27 46 47
f 27 47 48
f 27 48 45
f 28 49 57
f 28 57 46
f 29 44 45
f 29 45 30
f 30 50 31
f 30 45 47
f 30 47 51
f 30 51 52
f 30 52 32
f 30 32 50
f 31 50 32
f 32 53 54
f 32 52 53
f 34 40 39
f 34 39 35
f 34 38 41
f 37 54 38
f 38 54 53
f 38 53 55
f 38 55 41
f 41 55 42
f 42 55 56
f 42 56 57
f 42 57 43
f 43 57 49
f 45 48 47
f 46 57 51
f 46 51 47
f 51 57 58
f 51 58 55
f 51 55 52
f 52 55 53
f 55 58 56
f 56 58 57

