# https://github.com/mikedh/trimesh
v 0.02471518 -0.01823163 -0.09371638
v 0.02563812 -0.01823163 -0.09542699
v 0.02597434 -0.01823163 -0.09371638
v 0.03088536 0.00003670 -0.09371638
v 0.03147947 0.00003670 -0.09542699
v 0.02664161 -0.01823163 -0.09542699
v 0.02597877 -0.01823163 -0.09372257
v 0.02626918 -0.01771663 -0.09371638
v 0.03169451 0.00003670 -0.09371638
v 0.03226349 0.00003670 -0.09542699
v 0.02674727 -0.01811003 -0.09542699
v 0.02681008 -0.01802420 -0.09524948
v 0.02661426 -0.01823163 -0.09504334
v 0.02613247 -0.01823163 -0.09397879
v 0.02618420 -0.01806354 -0.09388267
v 0.02692092 -0.01629858 -0.09371638
v 0.03171224 0.00003670 -0.09371738
v 0.03171150 0.00003492 -0.09371638
v 0.03225832 0.00003670 -0.09500650
v 0.03226349 0.00002776 -0.09542699
v 0.02681008 -0.01802420 -0.09542699
v 0.02744262 -0.01667231 -0.09529637
v 0.03071540 -0.00820515 -0.09396841
v 0.03017376 -0.00915468 -0.09371638
v 0.02626031 -0.01823163 -0.09425158
v 0.03206989 0.00003670 -0.09447498
v 0.03165091 -0.00061778 -0.09371638
v 0.03225684 0.00001167 -0.09500650
v 0.03201077 -0.00373105 -0.09542398
v 0.03201151 -0.00371674 -0.09542699
v 0.03201077 -0.00373105 -0.09529352
v 0.02744262 -0.01667231 -0.09542699
v 0.03070284 -0.00948193 -0.09530474
v 0.03078634 -0.00844477 -0.09439376
v 0.03143366 -0.00769730 -0.09514331
v 0.03077969 -0.00782426 -0.09384633
v 0.03070949 -0.00782426 -0.09371638
v 0.03049520 -0.00844477 -0.09371638
v 0.03050185 -0.00844477 -0.09373078
v 0.03033189 -0.00880598 -0.09371638
v 0.03158884 -0.00127405 -0.09371638
v 0.03158662 -0.00129551 -0.09371638
v 0.03203885 -0.00064103 -0.09456591
v 0.03211127 -0.00134022 -0.09494621
v 0.03219920 -0.00064103 -0.09500650
v 0.03201003 -0.00373463 -0.09542699
v 0.03201077 -0.00372747 -0.09542699
v 0.03154154 -0.00717156 -0.09542699
v 0.03203368 -0.00325360 -0.09523123
v 0.03201447 -0.00115245 -0.09463272
v 0.03158366 -0.00651708 -0.09500650
v 0.03150903 -0.00740761 -0.09542699
v 0.03070063 -0.00947656 -0.09542699
v 0.03070284 -0.00948193 -0.09540857
v 0.03143440 -0.00770266 -0.09542699
v 0.03148169 -0.00717514 -0.09495793
v 0.03131099 -0.00739509 -0.09470808
v 0.03081073 -0.00736290 -0.09371638
v 0.03188515 -0.00134022 -0.09439058
v 0.03147504 -0.00224684 -0.09371638
v 0.03148464 -0.00455541 -0.09430517
v 0.03158219 -0.00390629 -0.09435373
v 0.03209575 -0.00194642 -0.09506142
v 0.03146839 -0.00521169 -0.09443596
v 0.03142775 -0.00586438 -0.09451650
v 0.03138637 -0.00651708 -0.09459689
v 0.03135829 -0.00695877 -0.09465148
v 0.03085433 -0.00715189 -0.09371638
v 0.03142553 -0.00325360 -0.09386793
f 1 2 6
f 1 6 13
f 1 13 25
f 1 25 14
f 1 14 7
f 1 7 3
f 1 3 8
f 1 8 16
f 1 16 24
f 1 24 40
f 1 40 38
f 1 38 37
f 1 37 58
f 1 58 68
f 1 68 60
f 1 60 42
f 1 42 41
f 1 41 27
f 1 27 18
f 1 18 9
f 1 9 4
f 1 4 5
f 1 5 2
f 2 5 10
f 2 10 20
f 2 20 30
f 2 30 47
f 2 47 46
f 2 46 48
f 2 48 52
f 2 52 55
f 2 55 53
f 2 53 32
f 2 32 21
f 2 21 11
f 2 11 6
f 3 7 8
f 4 9 17
f 4 17 26
f 4 26 19
f 4 19 10
f 4 10 5
f 6 11 12
f 6 12 13
f 7 14 15
f 7 15 8
f 8 15 16
f 9 18 17
f 10 19 20
f 11 21 12
f 12 16 15
f 12 15 13
f 12 21 32
f 12 32 22
f 12 22 23
f 12 23 24
f 12 24 16
f 13 15 25
f 14 25 15
f 17 18 27
f 17 27 26
f 19 26 28
f 19 28 20
f 20 29 30
f 20 28 31
f 20 31 29
f 22 32 54
f 22 54 33
f 22 33 23
f 23 33 34
f 23 34 35
f 23 35 36
f 23 36 37
f 23 37 38
f 23 38 39
f 23 39 40
f 23 40 24
f 26 27 41
f 26 41 42
f 26 42 43
f 26 43 44
f 26 44 45
f 26 45 28
f 28 45 31
f 29 46 47
f 29 47 30
f 29 31 48
f 29 48 46
f 31 45 49
f 31 49 50
f 31 50 51
f 31 51 52
f 31 52 48
f 32 53 54
f 33 54 55
f 33 55 35
f 33 35 34
f 35 55 52
f 35 52 51
f 35 51 56
f 35 56 57
f 35 57 36
f 36 57 58
f 36 58 37
f 38 40 39
f 42 59 50
f 42 50 43
f 42 60 61
f 42 61 62
f 42 62 59
f 43 50 49
f 43 49 44
f 44 49 63
f 44 63 45
f 45 63 49
f 50 59 51
f 51 64 56
f 51 59 62
f 51 62 61
f 51 61 64
f 53 55 54
f 56 64 65
f 56 65 66
f 56 66 67
f 56 67 68
f 56 68 57
f 57 68 58
f 60 69 65
f 60 65 61
f 60 68 69
f 61 65 64
f 65 69 66
f 66 68 67
f 66 69 68

