# https://github.com/mikedh/trimesh
v -0.00210986 -0.00546249 -0.08174269
v -0.00223855 -0.00543079 -0.08174269
v -0.00210986 -0.00435287 -0.08174269
v -0.00210986 -0.00508259 -0.07785451
v -0.00275254 -0.00525041 -0.08174269
v -0.00293714 -0.00441573 -0.07412295
v -0.00485795 0.00012172 -0.08174269
v -0.00480164 0.00012172 -0.08129368
v -0.00210986 -0.00427634 -0.08129368
v -0.00210986 -0.00467045 -0.07412295
v -0.00228400 -0.00461961 -0.07412295
v -0.00293955 -0.00517224 -0.08174269
v -0.00330714 -0.00427634 -0.07412295
v -0.00608942 0.00012172 -0.08174269
v -0.00210986 -0.00406425 -0.07939993
v -0.00434155 0.00012172 -0.07412295
v -0.00210986 -0.00361056 -0.07412295
v -0.00304050 -0.00511321 -0.08174269
v -0.00475982 -0.00189037 -0.07412295
v -0.00551069 -0.00255232 -0.08174269
v -0.00352955 -0.00467755 -0.08174269
v -0.00327980 -0.00490057 -0.08174269
v -0.00612079 0.00002988 -0.08174269
v -0.00529431 0.00012172 -0.07464282
v -0.00210986 -0.00393963 -0.07802605
v -0.00447548 0.00012172 -0.07412295
v -0.00210986 -0.00382429 -0.07672452
v -0.00210986 -0.00388168 -0.07737641
v -0.00509604 -0.00124482 -0.07412295
v -0.00512379 -0.00138421 -0.07476514
v -0.00559796 -0.00238451 -0.08174269
v -0.00621812 -0.00064026 -0.08174269
v -0.00532287 0.00001294 -0.07476514
v -0.00525128 -0.00001384 -0.07412295
v -0.00524404 0.00012172 -0.07421320
v -0.00524847 0.00000201 -0.07412295
v -0.00522192 0.00012172 -0.07412519
v -0.00521227 -0.00089881 -0.07412295
v -0.00523318 -0.00099447 -0.07435268
v -0.00609546 -0.00129948 -0.08174269
v -0.00589718 -0.00100978 -0.07949168
v -0.00541939 -0.00064026 -0.07541777
v -0.00525450 -0.00061293 -0.07412594
v -0.00525410 -0.00061075 -0.07412295
v -0.00525369 -0.00061512 -0.07412295
v -0.00533453 -0.00064026 -0.07476514
f 1 2 5
f 1 5 12
f 1 12 18
f 1 18 22
f 1 22 21
f 1 21 20
f 1 20 31
f 1 31 40
f 1 40 32
f 1 32 23
f 1 23 14
f 1 14 7
f 1 7 3
f 1 3 9
f 1 9 15
f 1 15 25
f 1 25 28
f 1 28 27
f 1 27 17
f 1 17 10
f 1 10 4
f 1 4 2
f 2 4 6
f 2 6 5
f 3 7 8
f 3 8 9
f 4 10 11
f 4 11 6
f 5 6 13
f 5 13 12
f 6 11 10
f 6 10 17
f 6 17 16
f 6 16 26
f 6 26 36
f 6 36 34
f 6 34 44
f 6 44 45
f 6 45 38
f 6 38 29
f 6 29 19
f 6 19 13
f 7 14 24
f 7 24 35
f 7 35 37
f 7 37 26
f 7 26 16
f 7 16 8
f 8 15 9
f 8 16 15
f 12 13 18
f 13 19 20
f 13 20 21
f 13 21 22
f 13 22 18
f 14 23 24
f 15 16 25
f 16 17 27
f 16 27 28
f 16 28 25
f 19 29 30
f 19 30 20
f 20 30 31
f 23 32 24
f 24 32 33
f 24 33 34
f 24 34 35
f 26 37 36
f 29 38 39
f 29 39 30
f 30 39 40
f 30 40 31
f 32 40 41
f 32 41 42
f 32 42 34
f 32 34 33
f 34 42 43
f 34 43 44
f 34 36 35
f 35 36 37
f 38 45 43
f 38 43 39
f 39 43 46
f 39 46 42
f 39 42 41
f 39 41 40
f 42 46 43
f 43 45 44

