# https://github.com/mikedh/trimesh
v -0.00016402 0.00003670 -0.09822238
v -0.00016402 -0.00598032 -0.09792416
v -0.00016402 0.00003670 -0.09887330
v -0.02860448 0.00003670 -0.09686427
v -0.00016402 -0.02869577 -0.09686427
v -0.00016402 0.00001292 -0.09887369
v -0.00032793 0.00003670 -0.09887310
v -0.03054462 0.00003670 -0.09686427
v -0.00016402 -0.03033381 -0.09686427
v -0.00016402 -0.00015059 -0.09887113
v -0.00032793 0.00001292 -0.09887349
v -0.00034879 0.00003670 -0.09887271
v -0.02948961 0.00003670 -0.09734130
v -0.03054759 0.00001887 -0.09686427
v -0.00016402 -0.02925467 -0.09739500
v -0.00489664 -0.03028327 -0.09686427
v -0.00424397 -0.02931115 -0.09744398
v -0.00359130 -0.02842524 -0.09796547
v -0.00293862 -0.02840741 -0.09795465
v -0.00258099 -0.02839552 -0.09794737
v -0.00016402 -0.00064110 -0.09886209
v -0.00032793 -0.00064110 -0.09886169
v -0.00228595 0.00001292 -0.09882766
v -0.00228595 0.00003670 -0.09882746
v -0.00098060 -0.00129513 -0.09884242
v -0.01045182 -0.00423526 -0.09859810
v -0.02958498 -0.00129513 -0.09738025
v -0.02905449 0.00003670 -0.09752365
v -0.03058932 -0.00035274 -0.09686427
v -0.00016402 -0.02885333 -0.09752818
v -0.00401151 -0.02841930 -0.09796193
v -0.00554932 -0.03019111 -0.09686427
v -0.00359130 -0.02806256 -0.09805773
v -0.00293862 -0.02806256 -0.09801661
v -0.00293862 -0.02741151 -0.09808350
v -0.00245582 -0.02806256 -0.09796606
v -0.00016402 -0.02806256 -0.09765387
v -0.00016402 -0.02822309 -0.09763479
v -0.00016402 -0.02871658 -0.09757185
v -0.00016402 -0.00080164 -0.09885756
v -0.00124883 -0.01029391 -0.09860597
v -0.00137400 -0.01029391 -0.09860597
v -0.00293862 0.00001292 -0.09880937
v -0.02709647 -0.00325423 -0.09814743
v -0.00293862 0.00003670 -0.09880878
v -0.00398767 -0.00956556 -0.09860656
v -0.01077368 -0.02545241 -0.09814054
v -0.01664774 -0.02153421 -0.09815805
v -0.02121943 -0.01631093 -0.09816907
v -0.02513547 -0.01043660 -0.09815313
v -0.02578815 -0.01043660 -0.09813641
v -0.02774915 -0.00390528 -0.09812736
v -0.02959094 -0.00194618 -0.09740248
v -0.02829751 -0.00325423 -0.09802822
v -0.02840182 0.00003670 -0.09765820
v -0.02820512 -0.00260020 -0.09798140
v -0.03060124 -0.00064110 -0.09686427
v -0.01077368 -0.02651668 -0.09798671
v -0.01077368 -0.02610346 -0.09808114
v -0.01139655 -0.02857091 -0.09686427
v -0.01118794 -0.02776230 -0.09730589
v -0.00359130 -0.02741151 -0.09813759
v -0.00293862 -0.02545241 -0.09817103
v -0.00016402 -0.01843056 -0.09811713
v -0.00016402 -0.01973564 -0.09805871
v -0.00016402 -0.02038966 -0.09802940
v -0.00016402 -0.02088018 -0.09800737
v -0.00016402 -0.00129513 -0.09884281
v -0.00016402 -0.00471984 -0.09872537
v -0.00016402 -0.00521333 -0.09870668
v -0.00293862 -0.02479838 -0.09819897
v -0.00293862 -0.02414436 -0.09822159
v -0.02774915 -0.00325423 -0.09812520
v -0.00361514 0.00003670 -0.09878104
v -0.01730041 -0.02218526 -0.09810061
v -0.01664774 -0.02218526 -0.09812422
v -0.02187211 -0.01696198 -0.09813740
v -0.02252478 -0.01696198 -0.09808999
v -0.02578815 -0.01108765 -0.09810219
v -0.02630075 -0.01108765 -0.09802311
v -0.02827665 -0.00390528 -0.09803215
v -0.02958200 -0.00325423 -0.09739874
v -0.03060124 -0.00390528 -0.09686427
v -0.03060720 -0.00097703 -0.09686427
v -0.02862534 -0.00325423 -0.09787990
v -0.02811572 -0.00221373 -0.09795367
v -0.02227444 0.00003670 -0.09794895
v -0.01115217 -0.02646317 -0.09796094
v -0.01730041 -0.02268767 -0.09801032
v -0.01141443 -0.02744718 -0.09742057
v -0.01207903 -0.02830039 -0.09686427
v -0.00016402 -0.00537386 -0.09870019
v -0.00016402 -0.00586438 -0.09867855
v -0.00016402 -0.01565691 -0.09824106
v -0.00016402 -0.01647146 -0.09820467
v -0.02187211 0.00003670 -0.09796724
v -0.02056676 0.00003670 -0.09802586
v -0.01860576 0.00003670 -0.09811359
v -0.01797693 0.00003670 -0.09814172
v -0.01664774 0.00003670 -0.09820113
v -0.00688446 0.00003670 -0.09863705
v -0.00622583 0.00003670 -0.09866636
v -0.00557316 0.00003670 -0.09869527
v -0.00492048 0.00003670 -0.09872399
v -0.01769083 -0.02257173 -0.09797039
v -0.02248902 -0.01758628 -0.09800481
v -0.02289433 -0.01734548 -0.09796527
v -0.02677163 -0.01012743 -0.09794678
v -0.02619048 -0.01151872 -0.09797491
v -0.02741536 -0.01205680 -0.09728229
v -0.02750179 -0.01161979 -0.09733776
v -0.02860149 -0.00390528 -0.09787439
v -0.02957306 -0.00390528 -0.09739048
v -0.03045521 -0.00455930 -0.09686427
v -0.01887696 -0.02415030 -0.09686427
v -0.01795607 -0.02352601 -0.09744398
v -0.01848357 -0.02333277 -0.09737474
v -0.01925843 -0.02349331 -0.09701987
v -0.02429207 -0.01893892 -0.09686427
v -0.02349932 -0.01859110 -0.09728563
v -0.02368111 -0.01815706 -0.09737710
v -0.02450068 -0.01865650 -0.09686427
v -0.02474208 -0.01827003 -0.09686427
v -0.02387185 -0.01762790 -0.09744005
v -0.02810380 -0.01239570 -0.09686427
v -0.02833029 -0.01175952 -0.09686427
v -0.01924949 -0.02389464 -0.09686427
v -0.01966375 -0.02349033 -0.09686427
f 1 2 5
f 1 5 9
f 1 9 15
f 1 15 30
f 1 30 39
f 1 39 38
f 1 38 37
f 1 37 67
f 1 67 66
f 1 66 65
f 1 65 64
f 1 64 95
f 1 95 94
f 1 94 93
f 1 93 92
f 1 92 70
f 1 70 69
f 1 69 68
f 1 68 40
f 1 40 21
f 1 21 10
f 1 10 6
f 1 6 3
f 1 3 7
f 1 7 12
f 1 12 24
f 1 24 45
f 1 45 74
f 1 74 104
f 1 104 103
f 1 103 102
f 1 102 101
f 1 101 100
f 1 100 99
f 1 99 98
f 1 98 97
f 1 97 96
f 1 96 87
f 1 87 55
f 1 55 28
f 1 28 13
f 1 13 8
f 1 8 4
f 1 4 2
f 2 4 5
f 3 6 11
f 3 11 7
f 4 8 14
f 4 14 29
f 4 29 57
f 4 57 84
f 4 84 83
f 4 83 114
f 4 114 126
f 4 126 125
f 4 125 123
f 4 123 122
f 4 122 119
f 4 119 128
f 4 128 127
f 4 127 115
f 4 115 91
f 4 91 60
f 4 60 32
f 4 32 16
f 4 16 9
f 4 9 5
f 6 10 11
f 7 11 12
f 8 13 14
f 9 16 17
f 9 17 18
f 9 18 19
f 9 19 20
f 9 20 15
f 10 21 22
f 10 22 11
f 11 23 24
f 11 24 12
f 11 22 25
f 11 25 26
f 11 26 23
f 13 27 14
f 13 28 27
f 14 27 29
f 15 20 30
f 16 31 17
f 16 32 31
f 17 31 18
f 18 31 33
f 18 33 19
f 19 33 20
f 20 33 34
f 20 34 35
f 20 35 36
f 20 36 37
f 20 37 38
f 20 38 39
f 20 39 30
f 21 40 41
f 21 41 42
f 21 42 22
f 22 42 25
f 23 43 24
f 23 26 44
f 23 44 43
f 24 43 45
f 25 42 46
f 25 46 47
f 25 47 48
f 25 48 49
f 25 49 26
f 26 49 50
f 26 50 51
f 26 51 52
f 26 52 44
f 27 53 29
f 27 28 54
f 27 54 53
f 28 55 56
f 28 56 54
f 29 53 57
f 31 32 58
f 31 58 59
f 31 59 33
f 32 60 61
f 32 61 58
f 33 62 34
f 33 59 62
f 34 62 35
f 35 62 63
f 35 63 95
f 35 95 64
f 35 64 65
f 35 65 66
f 35 66 67
f 35 67 37
f 35 37 36
f 40 68 41
f 41 68 69
f 41 69 70
f 41 70 71
f 41 71 72
f 41 72 62
f 41 62 42
f 42 62 47
f 42 47 46
f 43 44 45
f 44 52 73
f 44 73 45
f 45 73 74
f 47 62 59
f 47 59 75
f 47 75 76
f 47 76 48
f 48 76 75
f 48 75 77
f 48 77 49
f 49 77 51
f 49 51 50
f 51 77 78
f 51 78 79
f 51 79 80
f 51 80 52
f 52 80 81
f 52 81 54
f 52 54 73
f 53 82 83
f 53 83 84
f 53 84 57
f 53 54 85
f 53 85 82
f 54 56 73
f 54 81 85
f 55 73 86
f 55 86 56
f 55 87 73
f 56 86 73
f 58 61 88
f 58 88 59
f 59 88 89
f 59 89 75
f 60 90 88
f 60 88 61
f 60 91 90
f 62 72 71
f 62 71 63
f 63 71 92
f 63 92 93
f 63 93 94
f 63 94 95
f 70 92 71
f 73 87 96
f 73 96 97
f 73 97 98
f 73 98 99
f 73 99 100
f 73 100 101
f 73 101 102
f 73 102 103
f 73 103 104
f 73 104 74
f 75 89 105
f 75 105 106
f 75 106 78
f 75 78 77
f 78 106 107
f 78 107 80
f 78 80 79
f 80 108 81
f 80 107 109
f 80 109 110
f 80 110 111
f 80 111 108
f 81 112 85
f 81 108 112
f 82 113 83
f 82 85 113
f 83 113 114
f 85 112 113
f 88 90 91
f 88 91 105
f 88 105 89
f 91 115 116
f 91 116 105
f 105 116 117
f 105 117 118
f 105 118 119
f 105 119 120
f 105 120 107
f 105 107 106
f 107 120 121
f 107 121 122
f 107 122 123
f 107 123 124
f 107 124 110
f 107 110 109
f 108 111 114
f 108 114 112
f 110 125 111
f 110 124 123
f 110 123 125
f 111 125 126
f 111 126 114
f 112 114 113
f 115 127 117
f 115 117 116
f 117 127 118
f 118 127 128
f 118 128 119
f 119 122 121
f 119 121 120

