# https://github.com/mikedh/trimesh
v -0.01756714 0.01988014 -0.08435091
v -0.02323023 0.01988014 -0.08435091
v -0.02658341 0.01988014 -0.07882108
v -0.03301109 0.00007201 -0.07875856
v -0.02459361 0.00008171 -0.08435091
v -0.02326478 0.01988014 -0.08433153
v -0.02598463 0.01517242 -0.08435091
v -0.02627480 0.01519568 -0.08422673
v -0.02722364 0.01470126 -0.08392377
v -0.03274164 0.01988014 -0.07535383
v -0.03881006 0.00007201 -0.07535383
v -0.02460973 0.00007201 -0.08434826
v -0.02460973 0.00007201 -0.08435091
v -0.02410998 0.01946327 -0.08399159
v -0.03197013 0.01941286 -0.07913901
v -0.03246298 0.01988014 -0.07861413
v -0.02690813 0.01355922 -0.08435091
v -0.02748849 0.01355922 -0.08411400
v -0.02877356 0.01155049 -0.08392465
v -0.03227413 0.01831542 -0.07935654
v -0.03590827 0.01988014 -0.07535383
v -0.04109464 0.00007201 -0.07535383
v -0.02964410 0.00007201 -0.08435091
v -0.03379181 0.01988014 -0.07776338
v -0.02784776 0.01147875 -0.08435091
v -0.02788000 0.01203716 -0.08423818
v -0.02899696 0.01038907 -0.08407085
v -0.03807310 0.01114719 -0.07740495
v -0.03486501 0.01899405 -0.07737324
v -0.03306637 0.01831542 -0.07882637
v -0.03592439 0.01985494 -0.07535383
v -0.03561809 0.01988014 -0.07588752
v -0.04109464 0.00009140 -0.07535383
v -0.04108773 0.00007201 -0.07537232
v -0.03054688 0.00007201 -0.08398718
v -0.02913744 0.00880496 -0.08414042
v -0.02858472 0.00880496 -0.08435091
v -0.03380793 0.01988014 -0.07775193
v -0.02831296 0.01038907 -0.08435091
v -0.03124929 0.00087861 -0.08351073
v -0.03653930 0.00834738 -0.07903157
v -0.03647021 0.00940409 -0.07895935
v -0.03550985 0.01038907 -0.07941643
v -0.03819746 0.01009047 -0.07751767
v -0.03890218 0.01051510 -0.07665460
v -0.03960920 0.01093779 -0.07566031
v -0.03859818 0.01197318 -0.07642650
v -0.03811686 0.01443950 -0.07587343
v -0.03661069 0.01781712 -0.07597383
v -0.03536476 0.01988014 -0.07634724
v -0.03534634 0.01988014 -0.07636661
v -0.03460017 0.01988014 -0.07714074
v -0.03629979 0.01920927 -0.07535383
v -0.03639651 0.01887384 -0.07553349
v -0.04109233 0.00087861 -0.07535383
v -0.04108773 0.00087861 -0.07537232
v -0.04061331 0.00007201 -0.07609448
v -0.03093609 0.00007201 -0.08378551
v -0.03133911 0.00007201 -0.08353099
v -0.03661299 0.00722086 -0.07908705
v -0.03968751 0.00027754 -0.07743224
v -0.03740523 0.00722086 -0.07848026
v -0.03715650 0.00884762 -0.07849788
v -0.03830340 0.00880496 -0.07760926
v -0.03909563 0.00880496 -0.07679639
v -0.03972205 0.00988301 -0.07590425
v -0.03975890 0.01064889 -0.07535383
v -0.03965526 0.01108127 -0.07535383
v -0.03820207 0.01464309 -0.07535383
v -0.03642415 0.01894170 -0.07535383
v -0.04109003 0.00089606 -0.07535383
v -0.04018265 0.00246466 -0.07649343
v -0.04018034 0.00083401 -0.07675324
v -0.04003756 0.00880496 -0.07535383
v -0.03979344 0.00880496 -0.07600377
v -0.04018034 0.00007201 -0.07675324
v -0.03968751 0.00007201 -0.07743224
v -0.03702063 0.00087861 -0.07935390
v -0.03691699 0.00246466 -0.07930370
v -0.03681566 0.00404876 -0.07923941
v -0.03671433 0.00563481 -0.07916455
v -0.03962302 0.00133426 -0.07737060
v -0.03771153 0.00246466 -0.07871628
v -0.03781286 0.00087861 -0.07877529
v -0.03954702 0.00246466 -0.07728605
v -0.03983259 0.01023396 -0.07535383
f 1 2 6
f 1 6 16
f 1 16 24
f 1 24 38
f 1 38 52
f 1 52 51
f 1 51 50
f 1 50 32
f 1 32 21
f 1 21 10
f 1 10 3
f 1 3 4
f 1 4 5
f 1 5 13
f 1 13 23
f 1 23 37
f 1 37 39
f 1 39 25
f 1 25 17
f 1 17 7
f 1 7 2
f 2 7 8
f 2 8 9
f 2 9 6
f 3 10 11
f 3 11 4
f 4 12 5
f 4 11 22
f 4 22 34
f 4 34 57
f 4 57 76
f 4 76 77
f 4 77 59
f 4 59 58
f 4 58 35
f 4 35 23
f 4 23 13
f 4 13 12
f 5 12 13
f 6 9 14
f 6 14 15
f 6 15 16
f 7 17 18
f 7 18 8
f 8 18 9
f 9 18 19
f 9 19 20
f 9 20 15
f 9 15 14
f 10 21 31
f 10 31 53
f 10 53 70
f 10 70 69
f 10 69 68
f 10 68 67
f 10 67 86
f 10 86 74
f 10 74 71
f 10 71 55
f 10 55 33
f 10 33 22
f 10 22 11
f 15 20 24
f 15 24 16
f 17 25 26
f 17 26 18
f 18 26 27
f 18 27 19
f 19 27 28
f 19 28 29
f 19 29 30
f 19 30 20
f 20 30 29
f 20 29 24
f 21 32 31
f 22 33 56
f 22 56 34
f 23 35 36
f 23 36 37
f 24 29 38
f 25 39 27
f 25 27 26
f 27 39 36
f 27 36 40
f 27 40 41
f 27 41 42
f 27 42 43
f 27 43 28
f 28 43 42
f 28 42 44
f 28 44 45
f 28 45 46
f 28 46 47
f 28 47 48
f 28 48 29
f 29 48 49
f 29 49 50
f 29 50 51
f 29 51 52
f 29 52 38
f 31 32 53
f 32 50 54
f 32 54 53
f 33 55 56
f 34 56 57
f 35 58 36
f 36 39 37
f 36 58 59
f 36 59 40
f 40 59 41
f 41 60 61
f 41 61 62
f 41 62 63
f 41 63 42
f 41 59 60
f 42 63 64
f 42 64 44
f 44 64 65
f 44 65 66
f 44 66 45
f 45 66 46
f 46 66 67
f 46 67 68
f 46 68 48
f 46 48 47
f 48 68 69
f 48 69 54
f 48 54 49
f 49 54 50
f 53 54 70
f 54 69 70
f 55 71 56
f 56 72 73
f 56 73 57
f 56 71 74
f 56 74 66
f 56 66 75
f 56 75 72
f 57 73 76
f 59 77 61
f 59 61 78
f 59 78 79
f 59 79 80
f 59 80 81
f 59 81 60
f 60 81 61
f 61 77 76
f 61 76 73
f 61 73 82
f 61 82 62
f 61 81 83
f 61 83 84
f 61 84 78
f 62 82 64
f 62 64 63
f 64 82 85
f 64 85 65
f 65 85 75
f 65 75 66
f 66 74 86
f 66 86 67
f 72 75 73
f 73 75 82
f 75 85 82
f 78 84 79
f 79 84 83
f 79 83 80
f 80 83 81

