# https://github.com/mikedh/trimesh
v -0.03307744 0.01618765 -0.07295960
v -0.03307744 0.01920970 -0.07535383
v -0.02791188 0.01618765 -0.07280919
v -0.03307744 0.01618765 0.04825571
v -0.03307744 0.02411316 -0.07535383
v -0.02791188 0.02604917 -0.07535383
v -0.02791188 0.01618765 0.04819303
v -0.03307744 0.01856338 0.05270570
v -0.03307744 0.02434188 -0.07485242
v -0.03281651 0.02458388 -0.07506552
v -0.03195179 0.02572306 -0.07502791
v -0.03303648 0.02416629 -0.07535383
v -0.02791188 0.03001562 -0.07535383
v -0.02791188 0.02574224 0.05270570
v -0.03307744 0.02221257 0.05270570
v -0.03307744 0.02494984 -0.07344848
v -0.03301069 0.02503690 -0.07344848
v -0.03221828 0.02606983 -0.07344848
v -0.03160994 0.02686223 -0.07344848
v -0.03075635 0.02794681 -0.07351116
v -0.03008834 0.02855623 -0.07407523
v -0.03053840 0.02753659 -0.07502791
v -0.03189009 0.02564337 -0.07535383
v -0.02815966 0.02981493 -0.07535383
v -0.02791188 0.03024139 -0.07502791
v -0.02791188 0.02863001 0.05270570
v -0.03291966 0.02242506 0.05270570
v -0.03307744 0.02231439 0.05259288
v -0.03307744 0.02540285 -0.07186905
v -0.03173838 0.02703045 -0.07262116
v -0.03027595 0.02877315 -0.07302228
v -0.02940668 0.02945488 -0.07354876
v -0.02850706 0.03013662 -0.07407523
v -0.02910023 0.02914943 -0.07502791
v -0.02989314 0.02832899 -0.07502791
v -0.03046305 0.02743772 -0.07535383
v -0.02901427 0.02906237 -0.07535383
v -0.02828052 0.02994184 -0.07502791
v -0.02791188 0.03079179 -0.07352369
v -0.02791188 0.02911992 0.05172796
v -0.02871439 0.02873478 0.05123908
v -0.02839531 0.02845737 0.05229204
v -0.02825827 0.02831866 0.05270570
v -0.03176670 0.02397151 0.05270570
v -0.03307744 0.02264345 0.05217922
v -0.03307744 0.02542646 -0.07159327
v -0.03180210 0.02711309 -0.07156820
v -0.03128681 0.02771661 -0.07199439
v -0.03038366 0.02891186 -0.07185651
v -0.02872501 0.03032402 -0.07302228
v -0.02965598 0.02970426 -0.07185651
v -0.02791188 0.03080064 -0.07348608
v -0.02791188 0.03065751 0.04859416
v -0.02872198 0.03032107 0.04803008
v -0.02941274 0.02944455 0.04868190
v -0.03010351 0.02856804 0.04932120
v -0.02864410 0.02791877 0.05270570
v -0.03023853 0.02596949 0.05270570
v -0.02994017 0.02675156 0.05220429
v -0.03206152 0.02428286 0.05179064
v -0.03307744 0.02296366 0.05175303
v -0.03307744 0.02552975 -0.07027708
v -0.03253130 0.02624247 -0.07027708
v -0.03183244 0.02715293 -0.07027708
v -0.03122410 0.02794533 -0.07027708
v -0.03043220 0.02897383 -0.07027708
v -0.02971818 0.02976624 -0.07027708
v -0.02886357 0.03043174 -0.07185651
v -0.02791188 0.03115184 -0.07196932
v -0.02791188 0.03069292 0.04851895
v -0.02791188 0.03109872 0.04736571
v -0.02791188 0.03114889 0.04714008
v -0.02886104 0.03042879 0.04702726
v -0.02965396 0.02976034 0.04702726
v -0.03040490 0.02884693 0.04826824
v -0.03100312 0.02788483 0.04869444
v -0.03051210 0.02747609 0.05019867
v -0.03024257 0.02714702 0.05113881
v -0.02901022 0.02751445 0.05270570
v -0.02975206 0.02660105 0.05270570
v -0.02934802 0.02711456 0.05270570
v -0.03199325 0.02579389 0.04987275
v -0.03307744 0.02369999 0.05068754
v -0.03307744 0.02553123 0.04420684
v -0.03185874 0.02722080 0.04702726
v -0.03127417 0.02801321 0.04702726
v -0.03048227 0.02896645 0.04702726
v -0.02892577 0.03048043 -0.07027708
v -0.02971818 0.02976624 0.04544782
v -0.02791188 0.03126103 -0.07027708
v -0.02791188 0.03125956 0.04547290
v -0.02892577 0.03048043 0.04544782
v -0.03183649 0.02720162 0.04805515
v -0.03160185 0.02685190 0.04910810
v -0.03307744 0.02380033 0.05053711
v -0.03307744 0.02553123 0.04544782
v -0.03307744 0.02552975 0.04579882
v -0.02791188 0.03126103 0.04544782
v -0.03307744 0.02545302 0.04702726
v -0.03307744 0.02539990 0.04722782
v -0.03307744 0.02494541 0.04861923
f 1 2 3
f 1 3 7
f 1 7 4
f 1 4 8
f 1 8 15
f 1 15 28
f 1 28 45
f 1 45 61
f 1 61 83
f 1 83 95
f 1 95 101
f 1 101 100
f 1 100 99
f 1 99 97
f 1 97 96
f 1 96 84
f 1 84 62
f 1 62 46
f 1 46 29
f 1 29 16
f 1 16 9
f 1 9 5
f 1 5 2
f 2 5 12
f 2 12 23
f 2 23 36
f 2 36 37
f 2 37 24
f 2 24 13
f 2 13 6
f 2 6 3
f 3 6 13
f 3 13 25
f 3 25 39
f 3 39 52
f 3 52 69
f 3 69 90
f 3 90 98
f 3 98 91
f 3 91 72
f 3 72 71
f 3 71 70
f 3 70 53
f 3 53 40
f 3 40 26
f 3 26 14
f 3 14 7
f 4 7 8
f 5 9 10
f 5 10 11
f 5 11 12
f 7 14 8
f 8 14 26
f 8 26 43
f 8 43 57
f 8 57 79
f 8 79 81
f 8 81 80
f 8 80 58
f 8 58 44
f 8 44 27
f 8 27 15
f 9 11 10
f 9 16 17
f 9 17 18
f 9 18 19
f 9 19 20
f 9 20 11
f 11 20 21
f 11 21 22
f 11 22 23
f 11 23 12
f 13 24 25
f 15 27 28
f 16 29 30
f 16 30 17
f 17 30 18
f 18 30 31
f 18 31 19
f 19 31 20
f 20 31 21
f 21 31 32
f 21 32 33
f 21 33 34
f 21 34 35
f 21 35 22
f 22 35 36
f 22 36 23
f 24 37 38
f 24 38 25
f 25 38 33
f 25 33 39
f 26 40 41
f 26 41 42
f 26 42 43
f 27 44 28
f 28 44 45
f 29 46 47
f 29 47 30
f 30 47 48
f 30 48 49
f 30 49 31
f 31 50 32
f 31 49 51
f 31 51 50
f 32 50 33
f 33 50 39
f 33 38 34
f 34 38 37
f 34 37 35
f 35 37 36
f 39 50 52
f 40 53 54
f 40 54 41
f 41 54 55
f 41 55 56
f 41 56 42
f 42 57 43
f 42 56 57
f 44 58 59
f 44 59 60
f 44 60 45
f 45 60 61
f 46 62 47
f 47 49 48
f 47 62 63
f 47 63 64
f 47 64 65
f 47 65 66
f 47 66 49
f 49 66 67
f 49 67 51
f 50 51 68
f 50 68 69
f 50 69 52
f 51 67 68
f 53 70 54
f 54 71 72
f 54 72 73
f 54 73 74
f 54 74 75
f 54 75 55
f 54 70 71
f 55 75 56
f 56 75 76
f 56 76 77
f 56 77 78
f 56 78 79
f 56 79 57
f 58 80 59
f 59 80 81
f 59 81 78
f 59 78 60
f 60 78 82
f 60 82 61
f 61 82 83
f 62 84 85
f 62 85 86
f 62 86 63
f 63 86 64
f 64 86 65
f 65 86 66
f 66 86 87
f 66 87 67
f 67 88 68
f 67 87 89
f 67 89 92
f 67 92 88
f 68 88 90
f 68 90 69
f 72 91 73
f 73 91 92
f 73 92 74
f 74 92 89
f 74 89 87
f 74 87 75
f 75 87 93
f 75 93 76
f 76 94 77
f 76 93 94
f 77 94 82
f 77 82 78
f 78 81 79
f 82 94 93
f 82 93 95
f 82 95 83
f 84 96 85
f 85 96 97
f 85 97 93
f 85 93 86
f 86 93 87
f 88 92 98
f 88 98 90
f 91 98 92
f 93 97 99
f 93 99 100
f 93 100 101
f 93 101 95

