# https://github.com/mikedh/trimesh
v 0.01064056 -0.04048296 -0.07027085
v 0.01064056 -0.04039804 -0.07186328
v 0.01185531 -0.04004514 -0.07186328
v 0.01185531 -0.04012785 -0.07027085
v 0.01064056 -0.04048296 0.04543769
v 0.01064056 -0.04011241 -0.07341810
v 0.01184693 -0.03977604 -0.07335541
v 0.01285538 -0.03963378 -0.07186328
v 0.01271925 -0.03957753 -0.07275354
v 0.01295487 -0.03967459 -0.07027085
v 0.01185531 -0.04012785 0.04543769
v 0.01185531 -0.04000764 0.04703013
v 0.01064056 -0.04045429 0.04581386
v 0.01064056 -0.03972642 -0.07491023
v 0.01131286 -0.03965032 -0.07459676
v 0.01914800 -0.03644329 -0.07447137
v 0.01610798 -0.03808320 -0.07309209
v 0.01635303 -0.03818466 -0.07186328
v 0.02065387 -0.03642454 -0.07152473
v 0.01374760 -0.03934704 -0.07027085
v 0.02055439 -0.03636829 -0.07257800
v 0.01295487 -0.03967459 0.04543769
v 0.01502518 -0.03874821 0.04703013
v 0.01364288 -0.03931175 0.04703013
v 0.01285015 -0.03963047 0.04703013
v 0.01271296 -0.03957313 0.04785769
v 0.01064056 -0.04034511 0.04703013
v 0.01064056 -0.03966135 -0.07516100
v 0.01098718 -0.03954114 -0.07529893
v 0.01454556 -0.03809092 -0.07529893
v 0.01884117 -0.03631315 -0.07529893
v 0.01919094 -0.03614993 -0.07529893
v 0.01971768 -0.03599554 -0.07501053
v 0.02028212 -0.03624037 -0.07344318
v 0.01949044 -0.03658445 -0.07344318
v 0.01992817 -0.03669142 -0.07197614
v 0.02125601 -0.03596356 -0.07197614
v 0.02133769 -0.03594591 -0.07136173
v 0.02133769 -0.03601429 -0.07027085
v 0.02069367 -0.03644770 -0.07027085
v 0.01978051 -0.03684803 -0.07027085
v 0.01724629 -0.03789792 -0.07027085
v 0.01374760 -0.03934704 0.04543769
v 0.02133769 -0.03578600 -0.07249023
v 0.02133769 -0.03590510 -0.07196360
v 0.02114082 -0.03518275 -0.07502307
v 0.02133769 -0.03530296 -0.07425821
v 0.02133769 -0.03552794 -0.07355603
v 0.01636769 -0.03819128 0.04703013
v 0.02055334 -0.03636940 0.04775738
v 0.01724629 -0.03789792 0.04543769
v 0.01978051 -0.03684803 0.04543769
v 0.01185531 -0.03971649 0.04802070
v 0.01064056 -0.04027673 0.04726836
v 0.01612788 -0.03809092 0.04814609
v 0.01505974 -0.03832141 0.04864764
v 0.01455289 -0.03808430 0.04973852
v 0.01545977 -0.03647417 0.05279800
v 0.01216737 -0.03774904 0.05279800
v 0.01147832 -0.03800600 0.05279800
v 0.01136941 -0.03804350 0.05279800
v 0.01064056 -0.03962385 -0.07529893
v 0.02105495 -0.03512320 -0.07529893
v 0.02133769 -0.03601429 0.04543769
v 0.02069367 -0.03644770 0.04543769
v 0.02133769 -0.03503828 -0.07502307
v 0.02065387 -0.03642454 0.04670412
v 0.01716042 -0.03786043 0.04703013
v 0.02125601 -0.03595032 0.04714298
v 0.02133769 -0.03589077 0.04714298
v 0.02133769 -0.03587202 0.04721821
v 0.02133769 -0.03394096 0.05171965
v 0.02060256 -0.03481110 0.05104256
v 0.01969883 -0.03503497 0.05165697
v 0.01911659 -0.03485962 0.05268515
v 0.01805054 -0.03584666 0.05164443
v 0.01742641 -0.03638704 0.05101749
v 0.01126887 -0.03806555 0.05279800
v 0.01064056 -0.03820231 0.05279800
v 0.01647345 -0.03653041 0.05164443
v 0.01585456 -0.03639256 0.05260992
v 0.01883279 -0.03492689 0.05279800
v 0.01064056 -0.03717777 -0.07529893
v 0.02133769 -0.03485852 -0.07529893
v 0.02133769 -0.03600546 0.04566339
v 0.02133769 -0.03333882 0.05274784
v 0.02017321 -0.03454531 0.05209582
v 0.01922235 -0.03471956 0.05279800
v 0.01691118 -0.03616317 0.05207074
v 0.01064056 -0.03634072 0.05279800
v 0.02133769 -0.03196248 -0.07529893
v 0.01064056 -0.02922305 -0.07280370
v 0.02133769 -0.03330242 0.05279800
v 0.02124554 -0.03337411 0.05279800
v 0.02079943 -0.03368731 0.05279800
v 0.02133769 -0.03075598 0.05279800
v 0.01064056 -0.02921643 0.04819624
v 0.02131152 -0.02921643 -0.07282878
v 0.02133769 -0.02921643 -0.07282878
v 0.01182808 -0.02921643 -0.07280370
v 0.01064056 -0.02921643 -0.07247769
v 0.02133769 -0.02921643 0.04820878
f 1 2 3
f 1 3 4
f 1 4 11
f 1 11 5
f 1 5 13
f 1 13 27
f 1 27 54
f 1 54 79
f 1 79 90
f 1 90 97
f 1 97 101
f 1 101 92
f 1 92 83
f 1 83 62
f 1 62 28
f 1 28 14
f 1 14 6
f 1 6 2
f 2 6 7
f 2 7 3
f 3 8 4
f 3 7 9
f 3 9 8
f 4 8 10
f 4 10 22
f 4 22 11
f 5 11 12
f 5 12 13
f 6 14 15
f 6 15 7
f 7 15 16
f 7 16 17
f 7 17 9
f 8 18 19
f 8 19 20
f 8 20 10
f 8 9 21
f 8 21 18
f 9 17 21
f 10 20 43
f 10 43 22
f 11 22 23
f 11 23 24
f 11 24 25
f 11 25 12
f 12 25 26
f 12 26 27
f 12 27 13
f 14 28 15
f 15 28 29
f 15 29 30
f 15 30 31
f 15 31 16
f 16 31 32
f 16 32 33
f 16 33 34
f 16 34 21
f 16 21 35
f 16 35 17
f 17 35 21
f 18 21 36
f 18 36 19
f 19 36 21
f 19 21 37
f 19 37 38
f 19 38 39
f 19 39 40
f 19 40 41
f 19 41 42
f 19 42 20
f 20 42 51
f 20 51 43
f 21 44 45
f 21 45 37
f 21 34 46
f 21 46 47
f 21 47 48
f 21 48 44
f 22 43 23
f 23 49 50
f 23 50 26
f 23 26 24
f 23 43 51
f 23 51 52
f 23 52 49
f 24 26 25
f 26 53 54
f 26 54 27
f 26 50 55
f 26 55 56
f 26 56 57
f 26 57 58
f 26 58 59
f 26 59 60
f 26 60 61
f 26 61 53
f 28 62 29
f 29 62 83
f 29 83 91
f 29 91 84
f 29 84 63
f 29 63 32
f 29 32 31
f 29 31 30
f 32 63 33
f 33 63 46
f 33 46 34
f 37 45 38
f 38 45 44
f 38 44 48
f 38 48 47
f 38 47 66
f 38 66 84
f 38 84 91
f 38 91 99
f 38 99 102
f 38 102 96
f 38 96 93
f 38 93 86
f 38 86 72
f 38 72 71
f 38 71 70
f 38 70 85
f 38 85 64
f 38 64 39
f 39 64 65
f 39 65 40
f 40 65 52
f 40 52 41
f 41 52 51
f 41 51 42
f 46 63 66
f 46 66 47
f 49 52 67
f 49 67 68
f 49 68 50
f 50 68 67
f 50 67 69
f 50 69 70
f 50 70 71
f 50 71 72
f 50 72 73
f 50 73 74
f 50 74 75
f 50 75 76
f 50 76 77
f 50 77 55
f 52 65 67
f 53 61 54
f 54 61 78
f 54 78 79
f 55 77 80
f 55 80 81
f 55 81 56
f 56 81 57
f 57 81 58
f 58 81 75
f 58 75 82
f 58 82 88
f 58 88 95
f 58 95 94
f 58 94 93
f 58 93 96
f 58 96 90
f 58 90 79
f 58 79 78
f 58 78 61
f 58 61 60
f 58 60 59
f 63 84 66
f 64 85 65
f 65 85 67
f 67 85 70
f 67 70 69
f 72 86 87
f 72 87 73
f 73 87 74
f 74 87 75
f 75 87 88
f 75 88 82
f 75 81 76
f 76 81 89
f 76 89 77
f 77 89 81
f 77 81 80
f 83 92 91
f 86 93 94
f 86 94 87
f 87 94 95
f 87 95 88
f 90 96 97
f 91 98 99
f 91 92 100
f 91 100 98
f 92 101 100
f 96 102 97
f 97 102 99
f 97 99 98
f 97 98 100
f 97 100 101

