# https://github.com/mikedh/trimesh
v 0.03244540 0.02626075 0.04544782
v 0.03115321 0.02794644 0.04544782
v 0.03237102 0.02626075 0.04700219
v 0.03244540 0.02626075 -0.07030214
v 0.03036025 0.02897470 0.04544782
v 0.03032116 0.02892460 0.04702726
v 0.03111413 0.02789587 0.04702726
v 0.03115321 0.02794644 -0.07027708
v 0.03236850 0.02626075 0.04702726
v 0.03233446 0.02626075 -0.07198186
v 0.03173060 0.02711436 -0.07156820
v 0.02964670 0.02976744 0.04544782
v 0.03036025 0.02897470 -0.07027708
v 0.02959628 0.02971734 0.04702726
v 0.03021653 0.02879021 0.04811783
v 0.03167891 0.02704694 0.04784205
v 0.03201299 0.02626075 0.04843120
v 0.03166630 0.02703055 -0.07262116
v 0.03205081 0.02626075 -0.07328552
v 0.03121498 0.02771699 -0.07199439
v 0.03031234 0.02891243 -0.07185651
v 0.02885374 0.03048105 0.04544782
v 0.02880331 0.03044171 0.04702726
v 0.02964670 0.02976744 -0.07027708
v 0.02866968 0.03033730 0.04811783
v 0.02931767 0.02943873 0.04864430
v 0.02894324 0.02906367 0.05019867
v 0.02868103 0.02880145 0.05127669
v 0.02973495 0.02817353 0.05019867
v 0.03034890 0.02738080 0.05019867
v 0.03198400 0.02626075 0.04850641
v 0.03200038 0.02626075 -0.07344848
v 0.03020392 0.02877382 -0.07302228
v 0.02958367 0.02970516 -0.07185651
v 0.02812255 0.03104388 0.04544782
v 0.02802169 0.03104388 0.04702726
v 0.02885374 0.03048105 -0.07027708
v 0.02879197 0.03043282 -0.07185651
v 0.02756281 0.03104388 0.04843120
v 0.02748338 0.03104388 0.04856909
v 0.02725646 0.03046794 0.05019867
v 0.02804943 0.02985641 0.05019867
v 0.02698290 0.03025722 0.05107613
v 0.02763214 0.02936475 0.05170289
v 0.02730185 0.02896300 0.05270570
v 0.02828265 0.02841421 0.05232965
v 0.02888021 0.02744073 0.05270570
v 0.02983959 0.02675475 0.05215415
v 0.03013963 0.02710734 0.05110120
v 0.03117968 0.02626075 0.05022374
v 0.03171925 0.02626075 -0.07427580
v 0.03068550 0.02794831 -0.07351116
v 0.03001608 0.02855656 -0.07407523
v 0.02933406 0.02945559 -0.07354876
v 0.02865329 0.03032512 -0.07302228
v 0.02812255 0.03104388 -0.07027708
v 0.02798261 0.03104388 -0.07195679
v 0.02808851 0.03104388 -0.07070327
v 0.02646098 0.03104388 0.05023627
v 0.02609034 0.03104388 0.05077528
v 0.02542218 0.03104388 0.05174049
v 0.02555077 0.03036633 0.05270570
v 0.02656561 0.02992805 0.05214162
v 0.02812885 0.02825548 0.05270570
v 0.02962905 0.02656324 0.05270570
v 0.02984211 0.02626075 0.05270570
v 0.03045858 0.02626075 0.05171542
v 0.03049010 0.02626075 0.05165274
v 0.03145955 0.02626075 -0.07502791
v 0.03046614 0.02753719 -0.07502791
v 0.02982068 0.02832993 -0.07502791
v 0.02902771 0.02914889 -0.07502791
v 0.02843519 0.03013689 -0.07407523
v 0.02782629 0.03080601 -0.07351116
v 0.02760441 0.03104388 -0.07329806
v 0.02790067 0.03104388 -0.07229524
v 0.02465317 0.03104388 0.05270570
v 0.02723503 0.02626075 0.05270570
v 0.03142299 0.02626075 -0.07512820
v 0.03137509 0.02626075 -0.07524101
v 0.03039050 0.02743839 -0.07535383
v 0.02995935 0.02796798 -0.07535383
v 0.02949416 0.02849241 -0.07535383
v 0.02894199 0.02906320 -0.07535383
v 0.02820827 0.02994163 -0.07502791
v 0.02837090 0.02961573 -0.07535383
v 0.02741531 0.03058734 -0.07502791
v 0.02682783 0.03104388 -0.07502791
v 0.02752373 0.03104388 -0.07348608
v 0.02145862 0.03104388 0.05270570
v 0.01956761 0.02626075 0.04819303
v 0.03129441 0.02626075 -0.07535383
v 0.03091998 0.02675709 -0.07535383
v 0.02784646 0.03008023 -0.07535383
v 0.02731697 0.03051148 -0.07535383
v 0.02663621 0.03104107 -0.07535383
v 0.02675219 0.03104388 -0.07515327
v 0.01978192 0.03104388 0.04821810
v 0.01956761 0.03103779 0.04821810
v 0.01956761 0.02626075 -0.07280919
v 0.02844024 0.02626075 -0.07535383
v 0.02621136 0.03104388 -0.07535383
v 0.02663369 0.03104388 -0.07534129
v 0.01956761 0.03104388 0.04693952
v 0.01956761 0.03099893 -0.07282172
v 0.02285166 0.03104388 -0.07535383
v 0.01956761 0.03104388 -0.07282172
f 1 2 3
f 1 3 9
f 1 9 17
f 1 17 31
f 1 31 50
f 1 50 68
f 1 68 67
f 1 67 66
f 1 66 78
f 1 78 91
f 1 91 100
f 1 100 101
f 1 101 92
f 1 92 80
f 1 80 79
f 1 79 69
f 1 69 51
f 1 51 32
f 1 32 19
f 1 19 10
f 1 10 4
f 1 4 8
f 1 8 2
f 2 5 6
f 2 6 7
f 2 7 3
f 2 8 13
f 2 13 5
f 3 7 9
f 4 10 11
f 4 11 8
f 5 12 6
f 5 13 24
f 5 24 12
f 6 14 15
f 6 15 16
f 6 16 7
f 6 12 14
f 7 16 9
f 8 11 13
f 9 16 17
f 10 18 11
f 10 19 18
f 11 18 20
f 11 20 21
f 11 21 13
f 12 22 23
f 12 23 14
f 12 24 37
f 12 37 22
f 13 21 24
f 14 23 25
f 14 25 15
f 15 25 26
f 15 26 27
f 15 27 28
f 15 28 29
f 15 29 30
f 15 30 31
f 15 31 16
f 16 31 17
f 18 21 20
f 18 19 32
f 18 32 33
f 18 33 21
f 21 33 34
f 21 34 24
f 22 35 36
f 22 36 23
f 22 37 56
f 22 56 35
f 23 36 25
f 24 34 38
f 24 38 37
f 25 36 39
f 25 39 40
f 25 40 41
f 25 41 42
f 25 42 28
f 25 28 27
f 25 27 26
f 28 42 43
f 28 43 44
f 28 44 45
f 28 45 46
f 28 46 47
f 28 47 48
f 28 48 49
f 28 49 29
f 29 49 30
f 30 49 31
f 31 49 50
f 32 51 52
f 32 52 33
f 33 52 53
f 33 53 54
f 33 54 55
f 33 55 34
f 34 55 38
f 35 56 58
f 35 58 57
f 35 57 76
f 35 76 75
f 35 75 89
f 35 89 88
f 35 88 97
f 35 97 103
f 35 103 102
f 35 102 106
f 35 106 107
f 35 107 104
f 35 104 98
f 35 98 90
f 35 90 77
f 35 77 61
f 35 61 60
f 35 60 59
f 35 59 40
f 35 40 39
f 35 39 36
f 37 38 56
f 38 57 58
f 38 58 56
f 38 55 57
f 40 59 41
f 41 59 43
f 41 43 42
f 43 59 60
f 43 60 61
f 43 61 62
f 43 62 63
f 43 63 44
f 44 63 45
f 45 64 46
f 45 63 62
f 45 62 77
f 45 77 90
f 45 90 78
f 45 78 66
f 45 66 65
f 45 65 47
f 45 47 64
f 46 64 47
f 47 65 48
f 48 65 66
f 48 66 67
f 48 67 49
f 49 67 68
f 49 68 50
f 51 69 52
f 52 69 53
f 53 69 70
f 53 70 71
f 53 71 72
f 53 72 73
f 53 73 54
f 54 73 55
f 55 73 74
f 55 74 75
f 55 75 76
f 55 76 57
f 61 77 62
f 69 79 70
f 70 79 80
f 70 80 81
f 70 81 82
f 70 82 71
f 71 82 83
f 71 83 84
f 71 84 72
f 72 85 73
f 72 84 86
f 72 86 85
f 73 85 87
f 73 87 88
f 73 88 74
f 74 89 75
f 74 88 89
f 78 90 91
f 80 92 93
f 80 93 81
f 81 93 92
f 81 92 101
f 81 101 106
f 81 106 102
f 81 102 96
f 81 96 95
f 81 95 94
f 81 94 86
f 81 86 84
f 81 84 83
f 81 83 82
f 85 86 94
f 85 94 95
f 85 95 87
f 87 95 96
f 87 96 88
f 88 96 97
f 90 98 99
f 90 99 91
f 91 99 104
f 91 104 107
f 91 107 105
f 91 105 100
f 96 102 103
f 96 103 97
f 98 104 99
f 100 105 106
f 100 106 101
f 105 107 106

