# https://github.com/mikedh/trimesh
v 0.04103875 0.00007201 -0.07529980
v 0.04104130 -0.00070928 -0.07529980
v 0.04101585 0.00007201 -0.07537198
v 0.03877418 0.00007201 -0.07529980
v 0.04101585 -0.00070928 -0.07537198
v 0.03998534 -0.00863442 -0.07529980
v 0.03965202 -0.00971356 -0.07590422
v 0.04055785 0.00007201 -0.07607119
v 0.03293463 0.00007201 -0.07876456
v 0.01504703 -0.02197681 -0.08418260
v 0.03136978 -0.02197681 -0.07529980
v 0.04011003 -0.00229344 -0.07649298
v 0.04011003 -0.00066395 -0.07675301
v 0.03972327 -0.00863442 -0.07600336
v 0.03977415 -0.01010204 -0.07529980
v 0.03971563 -0.01042794 -0.07529980
v 0.03953752 -0.01077111 -0.07566071
v 0.03883270 -0.01034593 -0.07665474
v 0.03812534 -0.00992291 -0.07751658
v 0.03902353 -0.00863442 -0.07679650
v 0.04011003 0.00007201 -0.07675301
v 0.02549715 0.00007201 -0.08418260
v 0.02075936 -0.02197681 -0.08418260
v 0.03440279 -0.02197681 -0.07529980
v 0.03955279 -0.00116035 -0.07736961
v 0.03961639 -0.00010496 -0.07743136
v 0.03947645 -0.00229344 -0.07728525
v 0.03959350 -0.01093945 -0.07529980
v 0.03804646 -0.01426749 -0.07587378
v 0.03852737 -0.01180492 -0.07642689
v 0.03800066 -0.01097830 -0.07740527
v 0.03823221 -0.00863442 -0.07760790
v 0.03019678 -0.00705026 -0.08418260
v 0.03027566 -0.00705026 -0.08412173
v 0.03961639 0.00007201 -0.07743136
v 0.03057591 0.00007201 -0.08418260
v 0.02709508 -0.01273513 -0.08418260
v 0.02769303 -0.01645382 -0.08259111
v 0.02715615 -0.01766460 -0.08242152
v 0.02569308 -0.01940848 -0.08252240
v 0.03189649 -0.01924229 -0.07913591
v 0.03044105 -0.02098833 -0.07920374
v 0.03013826 -0.02197681 -0.07891415
v 0.03517121 -0.02100560 -0.07529980
v 0.03375904 -0.02197681 -0.07635471
v 0.03500837 -0.02077034 -0.07602597
v 0.03044360 -0.00546393 -0.08418260
v 0.03052756 -0.00387977 -0.08418260
v 0.03058609 0.00006554 -0.08418260
v 0.03814061 -0.01449411 -0.07529980
v 0.03632895 -0.01870489 -0.07553287
v 0.03653759 -0.01764734 -0.07597379
v 0.03479209 -0.01882359 -0.07737483
v 0.02994234 -0.00774306 -0.08418260
v 0.03034691 -0.00616753 -0.08418260
v 0.02744113 -0.01218261 -0.08418260
v 0.02967517 -0.00830853 -0.08418260
v 0.03219928 -0.01814589 -0.07934724
v 0.03373105 -0.01973006 -0.07774618
v 0.03340790 -0.02073366 -0.07751832
v 0.03217383 -0.02197681 -0.07769487
v 0.03145375 -0.02197681 -0.07812883
v 0.03620172 -0.01914086 -0.07529980
v 0.03294226 -0.02197681 -0.07713654
v 0.03401094 -0.02127969 -0.07661561
v 0.03452238 -0.01973006 -0.07713654
v 0.03529080 -0.01973006 -0.07634427
v 0.03636457 -0.01879122 -0.07529980
v 0.03299061 -0.01814589 -0.07882109
v 0.03300842 -0.02179120 -0.07720524
f 1 2 3
f 1 3 8
f 1 8 21
f 1 21 35
f 1 35 36
f 1 36 22
f 1 22 9
f 1 9 4
f 1 4 11
f 1 11 24
f 1 24 44
f 1 44 63
f 1 63 68
f 1 68 50
f 1 50 28
f 1 28 16
f 1 16 15
f 1 15 6
f 1 6 2
f 2 5 3
f 2 6 7
f 2 7 5
f 3 5 8
f 4 9 10
f 4 10 11
f 5 12 13
f 5 13 8
f 5 7 14
f 5 14 12
f 6 15 7
f 7 15 16
f 7 16 17
f 7 17 18
f 7 18 19
f 7 19 20
f 7 20 14
f 8 13 21
f 9 22 10
f 10 22 36
f 10 36 49
f 10 49 48
f 10 48 47
f 10 47 55
f 10 55 33
f 10 33 54
f 10 54 57
f 10 57 56
f 10 56 37
f 10 37 23
f 10 23 43
f 10 43 62
f 10 62 61
f 10 61 64
f 10 64 45
f 10 45 24
f 10 24 11
f 12 14 13
f 13 14 25
f 13 25 26
f 13 26 35
f 13 35 21
f 14 27 25
f 14 20 27
f 16 28 17
f 17 28 29
f 17 29 30
f 17 30 31
f 17 31 18
f 18 31 19
f 19 32 20
f 19 31 33
f 19 33 34
f 19 34 32
f 20 32 27
f 23 37 38
f 23 38 39
f 23 39 40
f 23 40 41
f 23 41 42
f 23 42 43
f 24 45 46
f 24 46 44
f 25 27 32
f 25 32 47
f 25 47 26
f 26 47 48
f 26 48 49
f 26 49 35
f 28 50 29
f 29 31 30
f 29 50 51
f 29 51 52
f 29 52 53
f 29 53 31
f 31 53 54
f 31 54 33
f 32 34 55
f 32 55 47
f 33 55 34
f 35 49 36
f 37 56 38
f 38 56 57
f 38 57 58
f 38 58 41
f 38 41 39
f 39 41 40
f 41 58 59
f 41 59 60
f 41 60 61
f 41 61 42
f 42 61 62
f 42 62 43
f 44 46 63
f 45 64 65
f 45 65 46
f 46 65 60
f 46 60 66
f 46 66 67
f 46 67 52
f 46 52 51
f 46 51 63
f 50 68 51
f 51 68 63
f 52 67 53
f 53 67 66
f 53 66 60
f 53 60 59
f 53 59 58
f 53 58 69
f 53 69 54
f 54 69 57
f 57 69 58
f 60 65 70
f 60 70 61
f 61 70 64
f 64 70 65

