# https://github.com/mikedh/trimesh
v 0.02812348 0.03104485 0.04544782
v 0.02782490 0.03127421 0.04544782
v 0.02698168 0.03184360 0.04702726
v 0.02802119 0.03104485 0.04702726
v 0.02812348 0.03104485 -0.07027708
v 0.02612188 0.03258099 0.04544782
v 0.02612188 0.03250403 0.04702726
v 0.02782490 0.03127421 -0.07027708
v 0.02692362 0.03180034 0.04784205
v 0.02756226 0.03104485 0.04843120
v 0.02798249 0.03104485 -0.07195679
v 0.02699274 0.03185215 -0.07156820
v 0.02520678 0.03328317 0.04544782
v 0.02612188 0.03258099 -0.07027708
v 0.02332958 0.03464477 0.04702726
v 0.02258865 0.03529162 0.04544782
v 0.02253612 0.03525288 0.04702726
v 0.02237577 0.03512965 0.04816796
v 0.02486672 0.03302664 0.04861923
v 0.02609976 0.03215093 0.04846881
v 0.02748209 0.03104485 0.04856909
v 0.02789955 0.03104485 -0.07229524
v 0.02690980 0.03178827 -0.07262116
v 0.02331852 0.03463521 -0.07185651
v 0.02252507 0.03524333 -0.07185651
v 0.02258865 0.03529162 -0.07027708
v 0.02520678 0.03328317 -0.07027708
v 0.02148556 0.03608433 0.04544782
v 0.02142473 0.03604560 0.04702726
v 0.02089669 0.03618292 0.04813036
v 0.02130862 0.03571866 0.04853148
v 0.02063957 0.03500944 0.05110120
v 0.02380233 0.03342300 0.04949670
v 0.02555512 0.03196683 0.04977247
v 0.02661398 0.03156142 0.04889500
v 0.02646193 0.03104485 0.05023627
v 0.02760373 0.03104485 -0.07329806
v 0.02491649 0.03306084 -0.07344848
v 0.02235919 0.03511758 -0.07313509
v 0.02116762 0.03618292 -0.07204454
v 0.02125333 0.03613312 -0.07196932
v 0.02118974 0.03618292 -0.07191919
v 0.02132521 0.03618292 -0.07051525
v 0.02148556 0.03608433 -0.07027708
v 0.02133903 0.03618292 0.04544782
v 0.02122291 0.03618292 0.04702726
v 0.01977977 0.03618292 0.04939641
v 0.01971618 0.03521667 0.05169035
v 0.02020276 0.03475392 0.05215415
v 0.02134732 0.03415686 0.05176556
v 0.02345952 0.03316396 0.05056218
v 0.02451285 0.03256539 0.05016106
v 0.02205784 0.03328870 0.05241739
v 0.02409262 0.03205486 0.05179064
v 0.02608870 0.03104485 0.05077528
v 0.02752355 0.03104485 -0.07348608
v 0.02674116 0.03165950 -0.07344848
v 0.02412303 0.03366796 -0.07344848
v 0.02388527 0.03348738 -0.07456411
v 0.02214078 0.03493499 -0.07420059
v 0.02151320 0.03557983 -0.07357382
v 0.02091051 0.03618292 -0.07294707
v 0.02133903 0.03618292 -0.07027708
v 0.01828962 0.03618292 0.05087557
v 0.01819562 0.03584038 0.05179064
v 0.01915496 0.03504213 0.05270570
v 0.02004517 0.03452153 0.05270570
v 0.02109850 0.03382589 0.05270570
v 0.02190578 0.03322281 0.05270570
v 0.02368345 0.03186120 0.05270570
v 0.02378851 0.03182750 0.05263049
v 0.02541965 0.03104485 0.05174049
v 0.02682686 0.03104485 -0.07502791
v 0.02560212 0.03200104 -0.07502791
v 0.02446308 0.03286618 -0.07506552
v 0.02404562 0.03308650 -0.07535383
v 0.02193343 0.03477353 -0.07502791
v 0.02113997 0.03535348 -0.07502791
v 0.02334064 0.03361263 -0.07535383
v 0.02046540 0.03618292 -0.07378693
v 0.01725840 0.03618292 0.05187838
v 0.01624378 0.03618292 0.05270570
v 0.01675524 0.03618292 0.05229204
v 0.02375810 0.03180286 0.05270570
v 0.02386039 0.03172037 0.05270570
v 0.02473126 0.03104485 0.05260542
v 0.02675222 0.03104485 -0.07515327
v 0.02601406 0.03155337 -0.07535383
v 0.02552195 0.03193967 -0.07535383
v 0.01971618 0.03616632 -0.07501537
v 0.02103768 0.03528105 -0.07535383
v 0.01975488 0.03618292 -0.07490256
v 0.01124529 0.03618292 0.05270570
v 0.02465108 0.03104485 0.05270570
v 0.02663333 0.03104485 -0.07534129
v 0.02628223 0.03125510 -0.07535383
v 0.02008388 0.03581925 -0.07535383
v 0.01966089 0.03618292 -0.07504045
v 0.01968024 0.03618292 -0.07501537
v 0.02145791 0.03104485 0.05270570
v -0.00012019 0.03618292 0.04820557
v -0.00012019 0.03104485 0.04819303
v 0.02621035 0.03104485 -0.07535383
v 0.01937336 0.03618292 -0.07535383
v -0.00012019 0.03618292 -0.07282172
v -0.00012019 0.03104485 -0.07280919
v 0.02285129 0.03104485 -0.07535383
v 0.01351507 0.03618292 -0.07535383
f 1 2 3
f 1 3 4
f 1 4 10
f 1 10 21
f 1 21 36
f 1 36 55
f 1 55 72
f 1 72 86
f 1 86 94
f 1 94 100
f 1 100 102
f 1 102 106
f 1 106 107
f 1 107 103
f 1 103 95
f 1 95 87
f 1 87 73
f 1 73 56
f 1 56 37
f 1 37 22
f 1 22 11
f 1 11 5
f 1 5 8
f 1 8 2
f 2 6 7
f 2 7 3
f 2 8 14
f 2 14 6
f 3 7 9
f 3 9 4
f 4 9 10
f 5 11 12
f 5 12 8
f 6 13 7
f 6 14 27
f 6 27 13
f 7 15 9
f 7 13 16
f 7 16 15
f 8 12 14
f 9 15 17
f 9 17 18
f 9 18 19
f 9 19 20
f 9 20 21
f 9 21 10
f 11 22 23
f 11 23 12
f 12 23 24
f 12 24 25
f 12 25 26
f 12 26 27
f 12 27 14
f 13 27 26
f 13 26 16
f 15 16 17
f 16 28 17
f 16 26 44
f 16 44 28
f 17 29 18
f 17 28 29
f 18 29 30
f 18 30 31
f 18 31 32
f 18 32 33
f 18 33 34
f 18 34 19
f 19 35 20
f 19 34 35
f 20 35 21
f 21 35 34
f 21 34 36
f 22 37 23
f 23 25 24
f 23 37 38
f 23 38 39
f 23 39 25
f 25 39 40
f 25 40 41
f 25 41 42
f 25 42 43
f 25 43 44
f 25 44 26
f 28 45 46
f 28 46 29
f 28 44 63
f 28 63 45
f 29 46 30
f 30 46 45
f 30 45 63
f 30 63 43
f 30 43 42
f 30 42 40
f 30 40 62
f 30 62 80
f 30 80 92
f 30 92 99
f 30 99 98
f 30 98 104
f 30 104 108
f 30 108 105
f 30 105 101
f 30 101 93
f 30 93 82
f 30 82 83
f 30 83 81
f 30 81 64
f 30 64 47
f 30 47 48
f 30 48 32
f 30 32 31
f 32 48 49
f 32 49 50
f 32 50 51
f 32 51 33
f 33 51 52
f 33 52 34
f 34 52 36
f 36 52 51
f 36 51 53
f 36 53 54
f 36 54 55
f 37 56 57
f 37 57 38
f 38 58 39
f 38 57 59
f 38 59 58
f 39 58 59
f 39 59 60
f 39 60 61
f 39 61 62
f 39 62 40
f 40 42 41
f 43 63 44
f 47 64 65
f 47 65 66
f 47 66 48
f 48 66 49
f 49 66 67
f 49 67 68
f 49 68 50
f 50 68 53
f 50 53 51
f 53 68 69
f 53 69 70
f 53 70 71
f 53 71 54
f 54 72 55
f 54 71 72
f 56 73 74
f 56 74 59
f 56 59 57
f 59 74 75
f 59 75 76
f 59 76 60
f 60 77 78
f 60 78 61
f 60 76 79
f 60 79 77
f 61 78 62
f 62 78 80
f 64 81 65
f 65 81 66
f 66 82 93
f 66 93 100
f 66 100 94
f 66 94 85
f 66 85 84
f 66 84 70
f 66 70 69
f 66 69 68
f 66 68 67
f 66 81 83
f 66 83 82
f 70 84 71
f 71 84 85
f 71 85 72
f 72 85 86
f 73 87 88
f 73 88 89
f 73 89 74
f 74 89 76
f 74 76 75
f 76 89 88
f 76 88 96
f 76 96 103
f 76 103 107
f 76 107 108
f 76 108 104
f 76 104 97
f 76 97 91
f 76 91 79
f 77 79 78
f 78 90 80
f 78 79 91
f 78 91 90
f 80 90 92
f 85 94 86
f 87 95 88
f 88 95 96
f 90 91 97
f 90 97 98
f 90 98 99
f 90 99 92
f 93 101 102
f 93 102 100
f 95 103 96
f 97 104 98
f 101 105 106
f 101 106 102
f 105 108 106
f 106 108 107

