# https://github.com/mikedh/trimesh
v 0.01956761 0.03103716 0.04822385
v 0.01956761 0.01881496 0.04820015
v 0.01956761 0.03104434 0.04694407
v 0.01823980 0.03104434 0.04821200
v -0.00012019 0.03104434 0.04820015
v -0.00012019 0.01881496 0.04820015
v 0.01956761 0.01881496 -0.07281055
v 0.01956761 0.03104434 -0.07283425
v -0.00012019 0.03104434 -0.07281055
v -0.00012019 0.01881496 -0.07281055
f 1 2 7
f 1 7 8
f 1 8 3
f 1 3 4
f 1 4 5
f 1 5 6
f 1 6 2
f 2 6 10
f 2 10 7
f 3 8 9
f 3 9 5
f 3 5 4
f 5 9 10
f 5 10 6
f 7 10 8
f 8 10 9

