# https://github.com/mikedh/trimesh
v 0.03088532 0.01881193 0.04821020
v -0.00012019 0.01881193 0.04819835
v -0.00012019 0.00007201 0.04819835
v 0.03087622 0.00007201 0.04819835
v 0.03088532 0.00007568 0.04819835
v 0.03088532 0.01881193 -0.07231310
v -0.00012019 0.01881193 -0.07281069
v -0.00012019 0.00007201 -0.07281069
v 0.03088532 0.00007201 0.04741642
v 0.03088532 0.01881010 -0.07282254
v 0.03087622 0.01881193 -0.07281069
v 0.03088532 0.00007201 -0.07281069
f 1 2 3
f 1 3 4
f 1 4 5
f 1 5 9
f 1 9 12
f 1 12 10
f 1 10 6
f 1 6 11
f 1 11 7
f 1 7 2
f 2 7 8
f 2 8 3
f 3 8 12
f 3 12 9
f 3 9 4
f 4 9 5
f 6 10 11
f 7 11 10
f 7 10 8
f 8 10 12

