# https://github.com/mikedh/trimesh
v -0.03056992 -0.00229142 -0.08413314
v -0.02936225 -0.00229142 -0.08461777
v -0.02936225 -0.00387641 -0.08460890
v -0.03056692 -0.00236239 -0.08413314
v -0.03045005 -0.00093116 -0.08413314
v -0.02936225 -0.00070643 -0.08454499
v -0.02702182 0.00039360 -0.08534988
v -0.02704579 0.00006833 -0.08535485
v -0.02720162 -0.00229142 -0.08539212
v -0.02723159 -0.00387641 -0.08539993
v -0.03047403 -0.00387641 -0.08413314
v -0.02713269 -0.00514795 -0.08537721
v -0.02915547 -0.00863138 -0.08417184
v -0.03042308 -0.00070643 -0.08413314
v -0.02858011 0.00880351 -0.08435113
v -0.02777399 0.00880351 -0.08465647
v -0.02567330 0.00880351 -0.08540562
v -0.02619173 -0.00070643 -0.08558421
v -0.02578118 0.00721852 -0.08543118
v -0.02588606 0.00563353 -0.08545674
v -0.02619173 -0.00229142 -0.08563391
v -0.02079465 -0.00387641 -0.08696178
v -0.02619173 -0.00387641 -0.08565273
v -0.02075869 -0.00495869 -0.08695361
v -0.02920942 -0.00863138 -0.08413314
v -0.02460647 -0.00546140 -0.08597404
v -0.02633857 -0.00559151 -0.08553840
v -0.02460647 -0.00863138 -0.08572906
v -0.02540959 -0.01105026 -0.08534313
v -0.02777399 -0.00863138 -0.08471434
v -0.02603890 -0.01166533 -0.08501258
v -0.02619173 -0.01339226 -0.08472499
v -0.02753126 -0.01339226 -0.08417681
v -0.02910453 -0.00900397 -0.08413314
v -0.03016836 0.00006833 -0.08413314
v -0.02831040 0.01038850 -0.08435113
v -0.02777399 0.01038850 -0.08456984
v -0.02554743 0.01008688 -0.08537508
v -0.02460347 0.00880351 -0.08565308
v -0.01937721 0.00563353 -0.08700083
v -0.01949108 0.00404263 -0.08702746
v -0.01959897 0.00246355 -0.08705338
v -0.01970685 0.00087856 -0.08707930
v -0.02071674 -0.00229142 -0.08694260
v -0.02460647 0.00006833 -0.08593925
v -0.02460647 -0.00229142 -0.08601310
v -0.01985069 -0.00229142 -0.08710202
v -0.01985069 -0.00387641 -0.08709776
v -0.01983571 0.00006833 -0.08707113
v -0.01826543 0.00404263 -0.08730475
v -0.01989864 -0.00547914 -0.08701752
v -0.01939819 -0.00675659 -0.08696711
v -0.01985069 -0.01497133 -0.08602766
v -0.02143595 -0.01339226 -0.08593996
v -0.02301821 -0.01180136 -0.08579723
v -0.02301821 -0.01021637 -0.08595700
v -0.02465741 -0.01166533 -0.08546207
v -0.02460647 -0.01021637 -0.08560196
v -0.02460647 -0.00704639 -0.08585191
v -0.02413299 -0.01339226 -0.08540633
v -0.02389325 -0.01429712 -0.08535591
v -0.02619173 -0.01497133 -0.08444416
v -0.02684801 -0.01497133 -0.08413314
v -0.02747132 -0.01369388 -0.08413314
v -0.02758520 -0.01339226 -0.08413314
v -0.02540060 0.00006833 -0.08413314
v -0.00297022 0.02974548 -0.08435113
v -0.00448955 0.02970409 -0.08435113
v -0.00558635 0.02964494 -0.08435113
v -0.00594296 0.02962129 -0.08435113
v -0.00717161 0.02952666 -0.08435113
v -0.00728249 0.02950301 -0.08435113
v -0.00757616 0.02942612 -0.08435113
v -0.00873889 0.02902987 -0.08435113
v -0.01034213 0.02829061 -0.08435113
v -0.01907454 0.02388457 -0.08435113
v -0.01961994 0.02358887 -0.08435113
v -0.02097446 0.02258938 -0.08435113
v -0.02121419 0.02236464 -0.08435113
v -0.02222708 0.02130009 -0.08435113
v -0.02321599 0.01989844 -0.08435113
v -0.02597896 0.01516713 -0.08435113
v -0.02624567 0.01470582 -0.08435113
v -0.02690195 0.01355848 -0.08435113
v -0.02784291 0.01147670 -0.08435113
v -0.02619173 0.01355848 -0.08464121
v -0.02386029 0.01445743 -0.08534988
v -0.02538262 0.01113960 -0.08531970
v -0.01923337 0.00688142 -0.08696568
v -0.01826543 0.00563353 -0.08725042
v -0.02475630 0.01052453 -0.08551532
v -0.01826543 0.00246355 -0.08731824
v -0.01826543 0.00087856 -0.08732073
v -0.01826243 -0.00387641 -0.08723410
v -0.01826243 -0.00546140 -0.08716096
v -0.01826543 0.00006833 -0.08731682
v -0.01826243 -0.00070643 -0.08731256
v -0.01826243 -0.00229142 -0.08727990
v -0.01667717 0.00563353 -0.08748688
v -0.01667717 0.00404263 -0.08751565
v -0.01840028 -0.00718832 -0.08701788
v -0.01902060 -0.00781522 -0.08690568
v -0.01826243 -0.01655632 -0.08604860
v -0.01826243 -0.01814131 -0.08582883
v -0.01985069 -0.01655632 -0.08579688
v -0.02143595 -0.01497133 -0.08573936
v -0.02301821 -0.01339226 -0.08562858
v -0.02300023 -0.01488262 -0.08544787
v -0.02245783 -0.01603588 -0.08538431
v -0.02460647 -0.01655632 -0.08459647
v -0.02461546 -0.01811174 -0.08413385
v -0.02614678 -0.01606545 -0.08413314
v 0.00004447 0.02944386 -0.08435113
v -0.00084256 0.02965677 -0.08435113
v -0.00127109 0.02971000 -0.08435113
v -0.00005442 -0.02627326 -0.08413314
v 0.00004447 0.02908902 -0.08498702
v 0.00004447 0.02871051 -0.08536550
v -0.00033312 0.02867502 -0.08535556
v -0.00717161 0.02940838 -0.08441149
v -0.00875687 0.02782339 -0.08481944
v -0.01908952 0.02228775 -0.08534313
v -0.02014736 0.02196839 -0.08526182
v -0.02147790 0.02156031 -0.08470867
v -0.02310811 0.01995167 -0.08439409
v -0.02184650 0.01989844 -0.08516845
v -0.02233496 0.01776344 -0.08536195
v -0.02302121 0.01038850 -0.08588635
v -0.02440869 0.01197349 -0.08546136
v -0.02151686 0.01830162 -0.08548018
v -0.02143295 0.01355848 -0.08592362
v -0.01840028 0.00733089 -0.08709279
v -0.01667717 0.00721852 -0.08737150
v -0.01667717 0.00006833 -0.08742191
v -0.01668017 -0.00387641 -0.08730759
v -0.01510090 -0.00546140 -0.08733493
v -0.01668017 -0.00546140 -0.08725327
v -0.00400109 -0.01180136 -0.08765554
v -0.00241583 -0.01339226 -0.08765660
v -0.01667717 0.00246355 -0.08749080
v -0.01509791 0.00721852 -0.08749967
v -0.01509791 0.00563353 -0.08755008
v -0.01509791 0.00246355 -0.08755115
v -0.01509791 0.00404263 -0.08755825
v -0.01796576 -0.00822330 -0.08695681
v -0.00083057 -0.01497133 -0.08764062
v -0.01668017 -0.01814131 -0.08602837
v -0.01668017 -0.01972630 -0.08580611
v -0.01751026 -0.02215110 -0.08534703
v -0.01786387 -0.02131129 -0.08541414
v -0.01812758 -0.02276617 -0.08497672
v -0.02307515 -0.01976770 -0.08419917
v -0.02462145 -0.01810583 -0.08413314
v -0.02333886 -0.01963759 -0.08413314
v 0.00004447 0.02941430 -0.08454996
v 0.00004447 0.02617334 -0.08435113
v -0.00005442 -0.03064381 -0.08413314
v 0.00004447 0.02837932 -0.08544076
v 0.00004447 0.02787661 -0.08555296
v -0.00084855 0.02794758 -0.08549047
v -0.00558635 0.02726746 -0.08539106
v -0.00668614 0.02712552 -0.08536017
v -0.01121117 0.02547548 -0.08534668
v -0.01462742 0.02399102 -0.08536763
v -0.00816951 0.01918874 -0.08694260
v -0.01826543 0.02148343 -0.08555616
v -0.01971284 0.02145386 -0.08541307
v -0.02078866 0.02090976 -0.08537011
v -0.02105237 0.01989844 -0.08542408
v -0.01799273 0.00880351 -0.08701716
v -0.01766908 0.00988580 -0.08695681
v -0.01984769 0.01989844 -0.08560160
v -0.01667717 0.00880351 -0.08719860
v -0.01509791 0.01038850 -0.08719860
v -0.01193038 0.01355848 -0.08719860
v -0.00875687 0.01672846 -0.08719894
v -0.01509791 0.00880351 -0.08737079
v -0.01510090 0.00006833 -0.08749506
v -0.01034512 -0.00704639 -0.08750925
v -0.00558635 -0.01021637 -0.08763743
v -0.00241583 -0.01180136 -0.08772548
v -0.00083057 -0.01339226 -0.08774074
v -0.01509791 0.00087856 -0.08751848
v -0.01193038 0.01038850 -0.08748440
v -0.00717161 0.01672846 -0.08735836
v -0.00558635 0.01672846 -0.08745387
v -0.01034213 0.01038850 -0.08751920
v 0.00004447 0.01355848 -0.08752594
v -0.00005442 -0.01258202 -0.08776027
v -0.01429179 0.00006833 -0.08753234
v -0.01192739 -0.00070643 -0.08760157
v -0.01270653 0.00006833 -0.08758914
v -0.00875687 -0.00546140 -0.08762465
v -0.01034512 -0.00387641 -0.08759908
v -0.01192739 -0.00229142 -0.08757317
v -0.00558635 -0.00704639 -0.08768784
v -0.00875687 -0.00387641 -0.08764630
v -0.01034512 -0.00229142 -0.08762465
v -0.01274549 -0.01261751 -0.08692628
v -0.00083057 -0.01655632 -0.08746736
v -0.00646439 -0.01740205 -0.08693018
v -0.00005442 -0.01416701 -0.08772157
v -0.00005442 -0.01497133 -0.08767045
v -0.00366246 -0.01918220 -0.08695432
v -0.00175356 -0.02060159 -0.08693551
v -0.01524774 -0.02305005 -0.08547520
v -0.01587106 -0.02368287 -0.08532964
v -0.01668017 -0.02252961 -0.08539887
v -0.01668017 -0.02448127 -0.08493625
v -0.02151386 -0.02138818 -0.08424284
v -0.02196637 -0.02118710 -0.08413314
v -0.02292232 -0.02011664 -0.08413314
v 0.00004447 0.00006833 -0.08602553
v -0.00065676 -0.03066746 -0.08413314
v -0.00005442 -0.03057284 -0.08419101
v 0.00004447 0.00006833 -0.08759305
v 0.00004447 0.02623840 -0.08589877
v -0.00345569 0.02075008 -0.08693763
v -0.00083057 0.02623840 -0.08586788
v -0.00241583 0.02623840 -0.08578445
v -0.00558635 0.02465341 -0.08596588
v -0.00719858 0.02635668 -0.08549260
v -0.00875687 0.02597818 -0.08545213
v -0.00558635 0.01967370 -0.08704841
v -0.01193038 0.02306842 -0.08579581
v -0.00717161 0.01938982 -0.08698556
v -0.00558635 0.01831345 -0.08729836
v -0.00717161 0.01831345 -0.08716699
v -0.00872390 0.01832528 -0.08700970
v -0.01667717 0.01989844 -0.08595913
v -0.01826543 0.01989844 -0.08578374
v -0.01826543 0.01831345 -0.08596055
v -0.01459746 0.01305578 -0.08695716
v -0.01353063 0.01357622 -0.08701823
v -0.00984168 0.01780483 -0.08695716
v -0.01034512 -0.00546140 -0.08755505
v -0.00005442 -0.01339226 -0.08775566
v -0.00400409 0.01831345 -0.08732214
v -0.00400409 0.01672846 -0.08746132
v -0.00558635 0.01514347 -0.08748795
v -0.00241583 0.01514347 -0.08749967
v 0.00004447 0.01426818 -0.08751068
v 0.00004447 0.01268319 -0.08753056
v -0.00005442 -0.01655632 -0.08749577
v -0.00083057 -0.01972630 -0.08710948
v -0.01481921 -0.02399631 -0.08538112
v -0.00083057 -0.02077311 -0.08697349
v -0.00729447 -0.02779910 -0.08546455
v -0.00789981 -0.02842600 -0.08532715
v -0.00717161 -0.02606626 -0.08572586
v -0.01286836 -0.02536248 -0.08535165
v -0.00875687 -0.02817170 -0.08527425
v -0.01510090 -0.02606626 -0.08486879
v -0.01991662 -0.02296725 -0.08426912
v -0.01668916 -0.02607218 -0.08434048
v -0.02128911 -0.02190271 -0.08413314
v -0.02050397 -0.02271295 -0.08413314
v -0.00083057 -0.03067338 -0.08413314
v -0.00083057 -0.03057875 -0.08420734
v -0.00558635 -0.02933678 -0.08504028
v -0.00005442 -0.02989271 -0.08450061
v -0.00005442 -0.02923624 -0.08477932
v -0.00005442 -0.02740877 -0.08547272
v -0.00005442 -0.02670499 -0.08564385
v -0.00005442 -0.02606626 -0.08579723
v -0.00005442 -0.02079085 -0.08697776
v -0.00005442 -0.01972630 -0.08712332
v 0.00004447 0.02465341 -0.08614801
v -0.00296123 0.02075008 -0.08693763
v -0.00717161 0.02465341 -0.08586256
v -0.00242782 0.01998715 -0.08701788
v -0.00241583 0.01831345 -0.08724226
v -0.00083057 0.01672846 -0.08734842
v -0.00241583 0.01672846 -0.08742156
v -0.00083057 0.01514347 -0.08748618
v 0.00004447 0.01514347 -0.08745848
v -0.00875687 -0.02737920 -0.08541165
v -0.00986565 -0.02704801 -0.08536550
v -0.00400109 -0.02606626 -0.08588989
v -0.00684497 -0.02854429 -0.08536337
v -0.00729447 -0.02913570 -0.08509282
v -0.00875687 -0.02923624 -0.08473210
v -0.01192739 -0.02765717 -0.08485104
v -0.01510090 -0.02734963 -0.08426557
v -0.01575119 -0.02718404 -0.08413314
v -0.01631757 -0.02679370 -0.08413314
v -0.01897865 -0.02421514 -0.08413314
v -0.00220007 -0.03064381 -0.08413314
v -0.00241583 -0.03053144 -0.08422652
v -0.00558635 -0.02854429 -0.08536337
v -0.00453750 -0.02847923 -0.08534775
v -0.00400409 -0.02910022 -0.08506406
v -0.00400109 -0.03047230 -0.08423930
v -0.00558635 -0.03040724 -0.08424817
v -0.00717161 -0.03033627 -0.08424746
v -0.00241583 -0.02606626 -0.08586717
v 0.00004447 0.01931885 -0.08695290
v -0.00083057 0.01953768 -0.08698095
v 0.00004447 0.01672846 -0.08729268
v 0.00004447 0.01584725 -0.08739671
v -0.00875687 -0.03000508 -0.08413314
v -0.01192739 -0.02875128 -0.08419846
v -0.01224804 -0.02869805 -0.08413314
v -0.00378233 -0.03059058 -0.08413314
v -0.00538257 -0.03051961 -0.08413314
v -0.00791779 -0.03025348 -0.08413314
v -0.00699181 -0.03043090 -0.08413314
v -0.00717161 -0.03041316 -0.08413314
v 0.00004447 0.01892852 -0.08700473
f 1 2 3
f 1 3 4
f 1 4 11
f 1 11 25
f 1 25 34
f 1 34 65
f 1 65 64
f 1 64 63
f 1 63 112
f 1 112 153
f 1 153 154
f 1 154 212
f 1 212 211
f 1 211 256
f 1 256 257
f 1 257 287
f 1 287 286
f 1 286 285
f 1 285 303
f 1 303 301
f 1 301 306
f 1 306 308
f 1 308 307
f 1 307 305
f 1 305 304
f 1 304 288
f 1 288 258
f 1 258 214
f 1 214 157
f 1 157 116
f 1 116 66
f 1 66 35
f 1 35 14
f 1 14 5
f 1 5 2
f 2 5 6
f 2 6 7
f 2 7 8
f 2 8 9
f 2 9 10
f 2 10 3
f 3 11 4
f 3 10 12
f 3 12 13
f 3 13 11
f 5 14 6
f 6 14 15
f 6 15 16
f 6 16 7
f 7 16 17
f 7 17 8
f 8 18 9
f 8 17 19
f 8 19 20
f 8 20 18
f 9 18 21
f 9 21 22
f 9 22 23
f 9 23 10
f 10 23 24
f 10 24 12
f 11 13 25
f 12 24 26
f 12 26 27
f 12 27 28
f 12 28 29
f 12 29 30
f 12 30 13
f 13 30 29
f 13 29 31
f 13 31 32
f 13 32 33
f 13 33 34
f 13 34 25
f 14 35 36
f 14 36 15
f 15 36 37
f 15 37 16
f 16 37 17
f 17 37 38
f 17 38 39
f 17 39 40
f 17 40 41
f 17 41 42
f 17 42 43
f 17 43 44
f 17 44 19
f 18 20 45
f 18 45 21
f 19 44 20
f 20 44 45
f 21 45 46
f 21 46 22
f 22 47 48
f 22 48 24
f 22 24 23
f 22 46 44
f 22 44 49
f 22 49 50
f 22 50 47
f 24 48 51
f 24 51 52
f 24 52 53
f 24 53 54
f 24 54 55
f 24 55 56
f 24 56 57
f 24 57 58
f 24 58 29
f 24 29 28
f 24 28 59
f 24 59 26
f 26 59 27
f 27 59 28
f 29 58 57
f 29 57 60
f 29 60 61
f 29 61 32
f 29 32 31
f 32 61 62
f 32 62 33
f 33 62 63
f 33 63 64
f 33 64 65
f 33 65 34
f 35 66 67
f 35 67 68
f 35 68 69
f 35 69 70
f 35 70 71
f 35 71 72
f 35 72 73
f 35 73 74
f 35 74 75
f 35 75 76
f 35 76 77
f 35 77 78
f 35 78 79
f 35 79 80
f 35 80 81
f 35 81 82
f 35 82 83
f 35 83 84
f 35 84 85
f 35 85 36
f 36 85 37
f 37 85 86
f 37 86 87
f 37 87 88
f 37 88 38
f 38 89 90
f 38 90 40
f 38 40 39
f 38 88 91
f 38 91 89
f 40 90 50
f 40 50 41
f 41 50 42
f 42 50 43
f 43 50 49
f 43 49 44
f 44 46 45
f 47 50 92
f 47 92 93
f 47 93 48
f 48 94 95
f 48 95 51
f 48 93 96
f 48 96 97
f 48 97 98
f 48 98 94
f 50 90 99
f 50 99 100
f 50 100 92
f 51 95 52
f 52 95 101
f 52 101 102
f 52 102 53
f 53 103 104
f 53 104 105
f 53 105 106
f 53 106 54
f 53 102 103
f 54 61 107
f 54 107 55
f 54 106 61
f 55 107 60
f 55 60 56
f 56 60 57
f 60 107 61
f 61 106 108
f 61 108 109
f 61 109 110
f 61 110 62
f 62 110 111
f 62 111 112
f 62 112 63
f 66 113 114
f 66 114 115
f 66 115 67
f 66 116 113
f 67 115 117
f 67 117 118
f 67 118 68
f 68 118 69
f 69 118 70
f 70 118 71
f 71 118 119
f 71 119 120
f 71 120 72
f 72 120 73
f 73 120 121
f 73 121 74
f 74 121 122
f 74 122 123
f 74 123 75
f 75 123 76
f 76 123 77
f 77 123 78
f 78 123 79
f 79 123 124
f 79 124 80
f 80 124 81
f 81 124 125
f 81 125 126
f 81 126 82
f 82 126 83
f 83 126 84
f 84 126 86
f 84 86 85
f 86 126 127
f 86 127 87
f 87 128 129
f 87 129 88
f 87 127 130
f 87 130 128
f 88 129 91
f 89 91 128
f 89 128 131
f 89 131 132
f 89 132 90
f 90 132 133
f 90 133 99
f 91 129 128
f 92 100 93
f 93 100 96
f 94 98 134
f 94 134 135
f 94 135 136
f 94 136 137
f 94 137 95
f 95 138 139
f 95 139 101
f 95 137 138
f 96 100 97
f 97 100 140
f 97 140 98
f 98 140 134
f 99 133 141
f 99 141 142
f 99 142 100
f 100 143 140
f 100 142 144
f 100 144 143
f 101 145 102
f 101 139 146
f 101 146 145
f 102 145 147
f 102 147 103
f 103 147 104
f 104 147 148
f 104 148 149
f 104 149 105
f 105 109 106
f 105 149 150
f 105 150 109
f 106 109 108
f 109 150 149
f 109 149 110
f 110 149 151
f 110 151 152
f 110 152 111
f 111 153 112
f 111 152 154
f 111 154 153
f 113 155 114
f 113 116 157
f 113 157 156
f 113 156 213
f 113 213 216
f 113 216 243
f 113 243 188
f 113 188 242
f 113 242 276
f 113 276 300
f 113 300 299
f 113 299 309
f 113 309 297
f 113 297 268
f 113 268 217
f 113 217 159
f 113 159 158
f 113 158 118
f 113 118 117
f 113 117 155
f 114 155 115
f 115 155 117
f 118 158 119
f 119 158 159
f 119 159 160
f 119 160 161
f 119 161 162
f 119 162 120
f 120 162 121
f 121 162 163
f 121 163 122
f 122 163 164
f 122 164 165
f 122 165 166
f 122 166 167
f 122 167 123
f 123 167 168
f 123 168 124
f 124 168 126
f 124 126 125
f 126 168 127
f 127 168 169
f 127 169 130
f 128 130 131
f 130 169 132
f 130 132 131
f 132 170 133
f 132 169 168
f 132 168 170
f 133 170 171
f 133 171 172
f 133 172 173
f 133 173 174
f 133 174 175
f 133 175 176
f 133 176 177
f 133 177 141
f 134 140 178
f 134 178 135
f 135 178 136
f 136 179 180
f 136 180 137
f 136 178 179
f 137 180 138
f 138 181 182
f 138 182 139
f 138 180 181
f 139 182 146
f 140 143 183
f 140 183 178
f 141 184 142
f 141 177 185
f 141 185 184
f 142 184 186
f 142 186 187
f 142 187 188
f 142 188 189
f 142 189 144
f 143 190 183
f 143 144 191
f 143 191 192
f 143 192 193
f 143 193 194
f 143 194 195
f 143 195 190
f 144 189 196
f 144 196 197
f 144 197 198
f 144 198 191
f 145 199 147
f 145 146 199
f 146 200 201
f 146 201 147
f 146 147 199
f 146 182 202
f 146 202 203
f 146 203 200
f 147 201 204
f 147 204 205
f 147 205 206
f 147 206 207
f 147 207 148
f 148 207 208
f 148 208 149
f 149 208 207
f 149 207 209
f 149 209 151
f 151 209 210
f 151 210 152
f 152 210 211
f 152 211 212
f 152 212 154
f 156 157 213
f 157 214 215
f 157 215 216
f 157 216 213
f 159 217 218
f 159 218 219
f 159 219 160
f 160 219 161
f 161 219 220
f 161 220 218
f 161 218 221
f 161 221 162
f 162 222 223
f 162 223 163
f 162 221 224
f 162 224 222
f 163 223 164
f 164 225 165
f 164 223 225
f 165 226 227
f 165 227 228
f 165 228 229
f 165 229 230
f 165 230 167
f 165 167 166
f 165 225 223
f 165 223 226
f 167 230 168
f 168 230 231
f 168 231 172
f 168 172 171
f 168 171 170
f 172 231 232
f 172 232 173
f 173 232 174
f 174 233 234
f 174 234 175
f 174 232 233
f 175 234 176
f 176 231 235
f 176 235 229
f 176 229 185
f 176 185 177
f 176 234 231
f 178 183 190
f 178 190 236
f 178 236 179
f 179 236 180
f 180 195 194
f 180 194 193
f 180 193 181
f 180 236 190
f 180 190 195
f 181 196 189
f 181 189 237
f 181 237 182
f 181 193 192
f 181 192 191
f 181 191 198
f 181 198 197
f 181 197 196
f 182 237 202
f 184 185 186
f 185 229 228
f 185 228 227
f 185 227 186
f 186 227 238
f 186 238 239
f 186 239 240
f 186 240 187
f 187 240 188
f 188 240 241
f 188 241 242
f 188 243 189
f 189 243 216
f 189 216 237
f 200 203 244
f 200 244 245
f 200 245 204
f 200 204 201
f 202 237 216
f 202 216 203
f 203 216 244
f 204 245 205
f 205 246 206
f 205 245 247
f 205 247 248
f 205 248 249
f 205 249 250
f 205 250 246
f 206 246 207
f 207 246 251
f 207 251 252
f 207 252 253
f 207 253 209
f 209 254 210
f 209 253 255
f 209 255 254
f 210 256 211
f 210 254 257
f 210 257 256
f 214 258 259
f 214 259 215
f 215 259 260
f 215 260 261
f 215 261 216
f 216 261 262
f 216 262 263
f 216 263 264
f 216 264 265
f 216 265 266
f 216 266 267
f 216 267 244
f 217 268 269
f 217 269 218
f 218 269 238
f 218 238 227
f 218 227 224
f 218 224 221
f 218 220 219
f 222 270 223
f 222 224 270
f 223 270 226
f 224 227 226
f 224 226 270
f 229 235 230
f 230 235 231
f 231 234 233
f 231 233 232
f 238 269 271
f 238 271 272
f 238 272 273
f 238 273 274
f 238 274 239
f 239 275 242
f 239 242 241
f 239 241 240
f 239 274 275
f 242 275 276
f 244 267 245
f 245 267 247
f 246 250 277
f 246 277 278
f 246 278 251
f 247 267 266
f 247 266 279
f 247 279 280
f 247 280 248
f 248 280 249
f 249 252 251
f 249 251 278
f 249 278 277
f 249 277 250
f 249 280 281
f 249 281 282
f 249 282 252
f 252 282 283
f 252 283 253
f 253 283 284
f 253 284 285
f 253 285 286
f 253 286 255
f 254 255 257
f 255 286 287
f 255 287 257
f 258 288 289
f 258 289 259
f 259 289 260
f 260 281 280
f 260 280 290
f 260 290 291
f 260 291 292
f 260 292 261
f 260 289 293
f 260 293 294
f 260 294 295
f 260 295 281
f 261 292 262
f 262 292 291
f 262 291 263
f 263 291 264
f 264 291 290
f 264 290 296
f 264 296 265
f 265 296 266
f 266 296 279
f 268 297 298
f 268 298 269
f 269 298 271
f 271 298 272
f 272 299 273
f 272 298 299
f 273 299 300
f 273 300 274
f 274 300 276
f 274 276 275
f 279 296 290
f 279 290 280
f 281 295 282
f 282 295 301
f 282 301 302
f 282 302 284
f 282 284 283
f 284 302 303
f 284 303 285
f 288 304 293
f 288 293 289
f 293 304 294
f 294 304 305
f 294 305 295
f 295 306 301
f 295 305 307
f 295 307 308
f 295 308 306
f 297 309 298
f 298 309 299
f 301 303 302

