# https://github.com/mikedh/trimesh
v -0.00896398 -0.04494942 -0.10889196
v -0.00362583 -0.04564345 -0.10936194
v -0.00127642 -0.04596793 -0.10889196
v -0.00896398 -0.04494942 -0.10883612
v -0.00896398 -0.04491336 -0.10912963
v -0.00310442 -0.04567950 -0.10941005
v -0.00036707 -0.04608510 -0.10889196
v -0.00896398 -0.04484126 -0.10948943
v -0.00127642 -0.04596793 -0.10883612
v -0.00896398 0.04335492 -0.10855558
v -0.00219197 -0.04574260 -0.10948283
v -0.00036707 -0.04608510 -0.10883612
v -0.00127642 -0.04580569 -0.10953754
v -0.00036707 -0.04585977 -0.10957418
v 0.00054849 -0.04608510 -0.10889196
v -0.00857293 -0.04485928 -0.10951586
v -0.00766358 -0.04492238 -0.10956110
v -0.00896398 -0.04460691 -0.10959113
v 0.01086788 0.04310254 -0.10855558
v -0.00896398 0.04486016 -0.10855558
v 0.00054849 -0.04608510 -0.10883612
v -0.00127642 -0.04518377 -0.10977770
v -0.00036707 -0.04518377 -0.10981472
v 0.00054849 -0.04585977 -0.10957343
v -0.00766358 -0.04427341 -0.10980163
v 0.00145473 -0.04579668 -0.10953555
v 0.00327964 -0.04567950 -0.10940805
v 0.00379483 -0.04564345 -0.10936069
v 0.01049856 -0.04477816 -0.10889196
v -0.00896398 -0.04427341 -0.10972972
v -0.00857293 -0.04427341 -0.10975614
v 0.01086788 0.04460778 -0.10855558
v 0.01049856 -0.04477816 -0.10883612
v 0.01086788 -0.04471507 -0.10883612
v 0.02274217 -0.04011823 -0.10884398
v -0.00036707 0.04599584 -0.10855558
v -0.00896398 0.04486016 -0.10889221
v 0.00054849 -0.04518377 -0.10981385
v -0.00675113 -0.04427341 -0.10982444
v -0.00583557 -0.04427341 -0.10982855
v 0.00601389 -0.04427341 -0.10982855
v 0.00145473 -0.04518377 -0.10977596
v 0.00783569 -0.04427341 -0.10980213
v 0.00875124 -0.04427341 -0.10975764
v 0.00783569 -0.04492238 -0.10956197
v -0.00896398 -0.04388584 -0.10978668
v -0.00896398 -0.04335405 -0.10982855
v 0.00236718 -0.04573358 -0.10948083
v 0.00875124 -0.04486830 -0.10951710
v 0.00966059 -0.04480520 -0.10945616
v 0.01037131 -0.04476013 -0.10939671
v 0.01086788 -0.04472408 -0.10884398
v 0.01240105 0.04427429 -0.10884398
v 0.01145756 0.04450863 -0.10884398
v 0.01086788 0.04462581 -0.10889208
v 0.01047373 0.04467989 -0.10855558
v 0.02274217 0.04001094 -0.10884398
v 0.02233871 0.04020924 -0.10884398
v 0.01783542 0.04208403 -0.10884398
v 0.01378525 0.04376052 -0.10884398
v 0.01331040 0.04394980 -0.10884398
v 0.01326385 0.04396783 -0.10884398
v 0.01095789 -0.04470605 -0.10884398
v 0.01153515 -0.04458888 -0.10884398
v 0.01240105 -0.04437256 -0.10884398
v 0.01331040 -0.04404808 -0.10884398
v 0.01783852 -0.04217329 -0.10884398
v 0.02030897 -0.04114576 -0.10884398
v 0.02232319 -0.04030751 -0.10884398
v 0.02274217 -0.04011823 -0.10889208
v 0.00054849 0.04599584 -0.10855558
v -0.00036707 0.04599584 -0.10889221
v -0.00361651 0.04555419 -0.10936007
v -0.00896398 0.04475200 -0.10949056
v 0.00692634 -0.04427341 -0.10982456
v 0.01086788 -0.04336306 -0.10982868
v 0.01148860 -0.04336306 -0.10982868
v 0.01240105 -0.04336306 -0.10981385
v 0.01240105 -0.04410216 -0.10957356
v 0.00966059 -0.04427341 -0.10969657
v -0.00896398 0.04326478 -0.10982855
v 0.01240105 -0.04437256 -0.10889208
v 0.01148860 -0.04460691 -0.10889208
v 0.01095789 -0.04470605 -0.10889208
v 0.01331040 -0.04393090 -0.10946563
v 0.01240105 0.04427429 -0.10889208
v 0.01148860 0.04449962 -0.10889208
v 0.01035269 0.04466186 -0.10939384
v 0.01047373 0.04467989 -0.10889221
v 0.00383518 0.04556320 -0.10889221
v 0.00966059 0.04478805 -0.10855558
v 0.02274217 0.04001996 -0.10889208
v 0.02231388 0.04021825 -0.10889208
v 0.02030276 0.04105650 -0.10889208
v 0.01783542 0.04208403 -0.10889208
v 0.01379766 0.04374249 -0.10936580
v 0.01331040 0.04394980 -0.10889208
v 0.01331040 -0.04404808 -0.10889208
v 0.01783852 -0.04217329 -0.10889208
v 0.02030897 -0.04114576 -0.10889208
v 0.02232319 -0.04030751 -0.10889208
v 0.02220836 -0.04026245 -0.10945902
v 0.02274217 -0.03969460 -0.10958216
v 0.00054849 0.04599584 -0.10889221
v 0.00054849 0.04576150 -0.10957418
v -0.00036707 0.04576150 -0.10957331
v -0.00127642 0.04570742 -0.10953542
v -0.00219197 0.04564432 -0.10948046
v -0.00766358 0.04483312 -0.10956147
v -0.00857293 0.04477002 -0.10951635
v -0.00896398 0.04418415 -0.10973084
v 0.01086788 0.04327380 -0.10982868
v 0.01422285 -0.04245270 -0.10982868
v 0.01878201 -0.04062298 -0.10982643
v 0.01696021 -0.04153334 -0.10980375
v 0.01513530 -0.04245270 -0.10976910
v 0.01331040 -0.04336306 -0.10970604
v 0.01696021 -0.04225441 -0.10956334
v 0.01513530 -0.04309266 -0.10952882
v -0.00857293 0.04418415 -0.10975689
v -0.00766358 0.04418415 -0.10980176
v -0.00675113 0.04418415 -0.10982444
v -0.00583557 0.04418415 -0.10982855
v 0.01379456 -0.04382274 -0.10936431
v 0.01769576 -0.04211019 -0.10947498
v 0.01574671 -0.04296647 -0.10942899
v 0.01331040 0.04384164 -0.10946737
v 0.00966059 0.04471594 -0.10945279
v 0.00380414 0.04555419 -0.10936156
v 0.01240105 0.04400388 -0.10957418
v 0.02274217 0.04001094 -0.10892137
v 0.02220215 0.04017319 -0.10945691
v 0.02025310 0.04102946 -0.10940406
v 0.01574671 0.04287721 -0.10942911
v 0.02025621 -0.04112773 -0.10940606
v 0.02248147 -0.03977572 -0.10960683
v 0.01969446 -0.04123589 -0.10950950
v 0.02151936 -0.04039765 -0.10955138
v 0.02151936 -0.03971263 -0.10979179
v 0.02274217 -0.03880227 -0.10980711
v 0.00327964 0.04559024 -0.10940967
v 0.00236718 0.04565334 -0.10948258
v 0.00145473 0.04570742 -0.10953742
v 0.00783569 0.04483312 -0.10956072
v 0.00783569 0.04418415 -0.10980101
v 0.00145473 0.04508549 -0.10977770
v 0.00054849 0.04508549 -0.10981472
v -0.00036707 0.04508549 -0.10981360
v -0.00127642 0.04508549 -0.10977571
v 0.01148860 0.04327380 -0.10982868
v 0.02060691 -0.03971263 -0.10982868
v 0.01969446 -0.04062298 -0.10974991
v 0.00601389 0.04418415 -0.10982855
v 0.01769576 0.04202093 -0.10947460
v 0.01513530 0.04300340 -0.10952907
v 0.00875124 0.04477002 -0.10951511
v 0.01513530 0.04236344 -0.10976935
v 0.01331040 0.04327380 -0.10970779
v 0.01240105 0.04327380 -0.10981459
v 0.00875124 0.04418415 -0.10975539
v 0.00966059 0.04418415 -0.10969308
v 0.02274217 0.03960534 -0.10958141
v 0.02151936 0.04030839 -0.10954988
v 0.01969446 0.04114663 -0.10950763
v 0.02243182 -0.03880227 -0.10982868
v 0.02274217 -0.03788291 -0.10982868
v 0.00692634 0.04418415 -0.10982444
v 0.01422285 0.04236344 -0.10982868
v 0.01969446 0.04053372 -0.10974792
v 0.02151936 0.03962337 -0.10979017
v 0.01696021 0.04145309 -0.10980350
v 0.01878201 0.04053372 -0.10982593
v 0.02274217 0.03938902 -0.10965469
v 0.02247527 0.03968646 -0.10960559
v 0.02274217 0.03840656 -0.10982868
v 0.02060691 0.03962337 -0.10982868
v 0.02274217 0.03871301 -0.10980749
v 0.02243182 0.03871301 -0.10982868
f 1 2 3
f 1 3 9
f 1 9 4
f 1 4 10
f 1 10 20
f 1 20 37
f 1 37 74
f 1 74 111
f 1 111 81
f 1 81 47
f 1 47 46
f 1 46 30
f 1 30 18
f 1 18 8
f 1 8 5
f 1 5 2
f 2 6 7
f 2 7 3
f 2 5 8
f 2 8 6
f 3 7 12
f 3 12 9
f 4 9 10
f 6 11 7
f 6 8 11
f 7 11 13
f 7 13 14
f 7 14 15
f 7 15 21
f 7 21 12
f 8 16 17
f 8 17 13
f 8 13 11
f 8 18 16
f 9 12 10
f 10 19 32
f 10 32 56
f 10 56 91
f 10 91 71
f 10 71 36
f 10 36 20
f 10 12 19
f 12 21 19
f 13 17 14
f 14 22 23
f 14 23 24
f 14 24 15
f 14 17 25
f 14 25 22
f 15 24 26
f 15 26 27
f 15 27 28
f 15 28 29
f 15 29 33
f 15 33 21
f 16 18 17
f 17 18 30
f 17 30 31
f 17 31 25
f 19 21 33
f 19 33 34
f 19 34 35
f 19 35 57
f 19 57 32
f 20 36 72
f 20 72 37
f 22 25 23
f 23 38 24
f 23 25 39
f 23 39 40
f 23 40 41
f 23 41 38
f 24 38 42
f 24 42 43
f 24 43 44
f 24 44 45
f 24 45 26
f 25 46 47
f 25 47 39
f 25 31 46
f 26 48 27
f 26 45 49
f 26 49 48
f 27 48 50
f 27 50 51
f 27 51 28
f 28 51 29
f 29 51 52
f 29 52 33
f 30 46 31
f 32 53 54
f 32 54 55
f 32 55 56
f 32 57 58
f 32 58 59
f 32 59 60
f 32 60 61
f 32 61 62
f 32 62 53
f 33 52 34
f 34 52 63
f 34 63 64
f 34 64 65
f 34 65 66
f 34 66 67
f 34 67 68
f 34 68 69
f 34 69 35
f 35 69 101
f 35 101 70
f 35 70 103
f 35 103 140
f 35 140 166
f 35 166 175
f 35 175 177
f 35 177 173
f 35 173 162
f 35 162 131
f 35 131 92
f 35 92 57
f 36 71 104
f 36 104 72
f 37 72 73
f 37 73 74
f 38 41 75
f 38 75 43
f 38 43 42
f 39 47 40
f 40 47 76
f 40 76 77
f 40 77 41
f 41 77 75
f 43 75 78
f 43 78 44
f 44 78 79
f 44 79 80
f 44 80 45
f 45 80 79
f 45 79 49
f 47 81 112
f 47 112 76
f 48 49 50
f 49 79 50
f 50 79 51
f 51 82 83
f 51 83 84
f 51 84 52
f 51 79 85
f 51 85 82
f 52 84 83
f 52 83 63
f 53 86 54
f 53 62 86
f 54 86 87
f 54 87 55
f 55 87 88
f 55 88 89
f 55 89 56
f 56 89 90
f 56 90 91
f 57 92 58
f 58 92 93
f 58 93 94
f 58 94 95
f 58 95 59
f 59 95 60
f 60 95 96
f 60 96 97
f 60 97 61
f 61 97 62
f 62 97 86
f 63 83 64
f 64 83 65
f 65 83 82
f 65 82 98
f 65 98 66
f 66 98 99
f 66 99 67
f 67 99 100
f 67 100 68
f 68 100 101
f 68 101 69
f 70 101 102
f 70 102 103
f 71 90 104
f 71 91 90
f 72 104 105
f 72 105 106
f 72 106 107
f 72 107 108
f 72 108 73
f 73 108 74
f 74 108 107
f 74 107 109
f 74 109 110
f 74 110 111
f 75 77 78
f 76 112 150
f 76 150 168
f 76 168 176
f 76 176 178
f 76 178 175
f 76 175 166
f 76 166 165
f 76 165 151
f 76 151 113
f 76 113 77
f 77 113 78
f 78 113 114
f 78 114 115
f 78 115 116
f 78 116 117
f 78 117 79
f 79 117 116
f 79 116 118
f 79 118 119
f 79 119 85
f 81 111 120
f 81 120 121
f 81 121 122
f 81 122 123
f 81 123 112
f 82 85 124
f 82 124 98
f 85 119 125
f 85 125 126
f 85 126 124
f 86 97 96
f 86 96 127
f 86 127 88
f 86 88 87
f 88 128 129
f 88 129 89
f 88 127 130
f 88 130 128
f 89 129 90
f 90 129 104
f 92 131 132
f 92 132 93
f 93 132 133
f 93 133 96
f 93 96 94
f 94 96 95
f 96 133 134
f 96 134 127
f 98 124 99
f 99 124 100
f 100 124 101
f 101 124 135
f 101 135 102
f 102 136 103
f 102 135 125
f 102 125 137
f 102 137 138
f 102 138 136
f 103 136 139
f 103 139 140
f 104 129 141
f 104 141 142
f 104 142 143
f 104 143 105
f 105 143 144
f 105 144 145
f 105 145 146
f 105 146 147
f 105 147 106
f 106 147 148
f 106 148 149
f 106 149 121
f 106 121 109
f 106 109 107
f 109 121 120
f 109 120 111
f 109 111 110
f 112 123 153
f 112 153 150
f 113 151 114
f 114 151 139
f 114 139 115
f 115 139 116
f 116 139 152
f 116 152 118
f 118 152 138
f 118 138 119
f 119 138 137
f 119 137 125
f 121 149 148
f 121 148 122
f 122 148 123
f 123 148 147
f 123 147 153
f 124 126 135
f 125 135 126
f 127 134 154
f 127 154 155
f 127 155 130
f 128 156 142
f 128 142 141
f 128 141 129
f 128 130 156
f 130 155 157
f 130 157 158
f 130 158 159
f 130 159 160
f 130 160 161
f 130 161 144
f 130 144 156
f 131 162 132
f 132 162 163
f 132 163 164
f 132 164 154
f 132 154 134
f 132 134 133
f 136 138 139
f 138 152 139
f 139 151 165
f 139 165 140
f 140 165 166
f 142 156 143
f 143 156 144
f 144 161 160
f 144 160 145
f 145 160 159
f 145 159 167
f 145 167 147
f 145 147 146
f 147 167 153
f 150 159 168
f 150 153 167
f 150 167 159
f 154 164 155
f 155 164 163
f 155 163 157
f 157 159 158
f 157 163 169
f 157 169 170
f 157 170 171
f 157 171 159
f 159 171 172
f 159 172 168
f 162 173 174
f 162 174 163
f 163 174 170
f 163 170 169
f 168 172 176
f 170 174 173
f 170 173 177
f 170 177 178
f 170 178 176
f 170 176 172
f 170 172 171
f 175 178 177

