# https://github.com/mikedh/trimesh
v 0.01087049 -0.00021239 -0.09343697
v 0.01100762 -0.00021239 -0.09355333
v 0.01087049 -0.00021239 -0.09210324
v 0.01087049 0.01835923 -0.09880402
v 0.01120287 -0.00021239 -0.09371049
v 0.01087049 0.00317614 -0.09251482
v 0.02274217 -0.00021239 -0.09818665
v 0.02274217 0.00041308 -0.09818665
v 0.02274217 0.00314865 -0.09829519
v 0.02274217 0.00471576 -0.09835771
v 0.02274217 0.02319344 -0.10008218
v 0.01087049 0.02052890 -0.09942400
v 0.01151434 -0.00021239 -0.09392757
v 0.01087049 0.00366873 -0.09258689
v 0.02274217 -0.00021239 -0.09916958
v 0.02274217 0.02319344 -0.10097394
v 0.01236854 0.02319344 -0.09919476
v 0.01087049 0.00712370 -0.09361411
v 0.01087049 0.00677316 -0.09349776
v 0.01087049 0.00472721 -0.09282828
v 0.01087049 0.00437439 -0.09273364
v 0.01087049 0.00406051 -0.09265810
v 0.01087049 0.02104210 -0.09956901
v 0.01165845 -0.00021239 -0.09402309
v 0.02152188 -0.00021239 -0.09882399
v 0.01087049 0.02200665 -0.09978609
v 0.01087049 0.02319344 -0.09998406
v 0.01265560 0.02319344 -0.10022198
v 0.01325412 0.02319344 -0.10029492
v 0.01607125 0.02319344 -0.10061446
v 0.01698240 0.02319344 -0.10069695
v 0.02274217 0.01743134 -0.10068132
v 0.02274217 0.01834319 -0.10072994
v 0.01087049 0.02319344 -0.09907494
v 0.01087049 0.02138806 -0.09966018
v 0.01696148 -0.00021239 -0.09693194
v 0.01638736 -0.00021239 -0.09664105
v 0.01462666 -0.00021239 -0.09569719
v 0.01448255 -0.00021239 -0.09561991
v 0.01386775 -0.00021239 -0.09528388
v 0.01331920 -0.00021239 -0.09497476
v 0.02069673 -0.00021239 -0.09855395
v 0.01860829 -0.00021239 -0.09768998
v 0.01822710 -0.00021239 -0.09753194
v 0.01777036 -0.00021239 -0.09732355
f 1 2 5
f 1 5 13
f 1 13 24
f 1 24 41
f 1 41 40
f 1 40 39
f 1 39 38
f 1 38 37
f 1 37 36
f 1 36 45
f 1 45 44
f 1 44 43
f 1 43 42
f 1 42 25
f 1 25 15
f 1 15 7
f 1 7 3
f 1 3 6
f 1 6 14
f 1 14 22
f 1 22 21
f 1 21 20
f 1 20 19
f 1 19 18
f 1 18 34
f 1 34 27
f 1 27 26
f 1 26 35
f 1 35 23
f 1 23 12
f 1 12 4
f 1 4 2
f 2 4 5
f 3 7 8
f 3 8 9
f 3 9 10
f 3 10 11
f 3 11 6
f 4 12 13
f 4 13 5
f 6 11 14
f 7 15 32
f 7 32 33
f 7 33 16
f 7 16 11
f 7 11 10
f 7 10 9
f 7 9 8
f 11 16 31
f 11 31 30
f 11 30 29
f 11 29 28
f 11 28 27
f 11 27 34
f 11 34 17
f 11 17 18
f 11 18 19
f 11 19 20
f 11 20 21
f 11 21 22
f 11 22 14
f 12 23 24
f 12 24 13
f 15 25 26
f 15 26 27
f 15 27 28
f 15 28 29
f 15 29 30
f 15 30 31
f 15 31 32
f 16 33 31
f 17 34 18
f 23 35 36
f 23 36 37
f 23 37 38
f 23 38 39
f 23 39 40
f 23 40 41
f 23 41 24
f 25 42 26
f 26 42 35
f 31 33 32
f 35 42 43
f 35 43 44
f 35 44 45
f 35 45 36

