# https://github.com/mikedh/trimesh
v -0.02123688 0.01426881 -0.10001600
v -0.01952377 0.01426881 -0.09973882
v -0.02123688 0.01426881 -0.09908248
v -0.02123688 0.01588711 -0.10030887
v -0.00896398 0.02595040 -0.10048040
v -0.00896398 0.02536640 -0.10037372
v -0.00896398 0.02460258 -0.10023408
v -0.01861075 0.01426881 -0.09954689
v -0.00896398 0.02230192 -0.09970640
v -0.00896398 0.02136906 -0.09945694
v -0.00896398 0.01426881 -0.09582799
v -0.02123688 0.02996926 -0.10014151
v -0.02123688 0.01670933 -0.10040823
v -0.00896398 0.02686175 -0.10063991
v -0.01790076 0.01426881 -0.09937692
v -0.00896398 0.02089878 -0.09932462
v -0.00896398 0.01862732 -0.09862122
v -0.00896398 0.01426881 -0.09688964
v -0.00896398 0.02996926 -0.09998410
v -0.02123688 0.02996926 -0.10115034
v -0.02123688 0.01683074 -0.10042288
v -0.00896398 0.02777464 -0.10073091
v -0.02123688 0.01763297 -0.10051963
v -0.02123688 0.01774209 -0.10053270
v -0.02123688 0.01865498 -0.10063311
v -0.01493585 0.01426881 -0.09860657
v -0.00896398 0.01813860 -0.09842772
v -0.01112640 0.01426881 -0.09756062
v -0.01136426 0.01426881 -0.09762861
v -0.00896398 0.02996926 -0.10081720
v -0.02123688 0.02959888 -0.10115557
v -0.01952377 0.02996926 -0.10115975
v -0.01333086 0.02994467 -0.10114825
v -0.02123688 0.01956633 -0.10070685
v -0.01331884 0.02996926 -0.10114825
v -0.02123688 0.02948669 -0.10115609
v -0.01769893 0.02996926 -0.10116603
v -0.01405166 0.02996926 -0.10115766
v -0.02073232 0.02537101 -0.10114772
v -0.02123688 0.02513280 -0.10115191
v -0.02043078 0.02593350 -0.10115766
v -0.02123688 0.02868599 -0.10115975
v -0.01715713 0.02996926 -0.10116760
v -0.01769893 0.02959888 -0.10116760
v -0.01952377 0.02777464 -0.10116969
v -0.02043559 0.02686175 -0.10117073
v -0.01587530 0.02959888 -0.10116707
v -0.01587530 0.02996926 -0.10116707
v -0.02123688 0.02594887 -0.10116760
v -0.02123688 0.02686175 -0.10116760
v -0.01678711 0.02996926 -0.10116864
v -0.01678711 0.02959888 -0.10117021
f 1 2 8
f 1 8 15
f 1 15 26
f 1 26 29
f 1 29 28
f 1 28 18
f 1 18 11
f 1 11 3
f 1 3 12
f 1 12 20
f 1 20 31
f 1 31 36
f 1 36 42
f 1 42 50
f 1 50 49
f 1 49 40
f 1 40 34
f 1 34 25
f 1 25 24
f 1 24 23
f 1 23 21
f 1 21 13
f 1 13 4
f 1 4 5
f 1 5 6
f 1 6 7
f 1 7 2
f 2 7 9
f 2 9 10
f 2 10 8
f 3 11 12
f 4 13 14
f 4 14 5
f 5 14 22
f 5 22 30
f 5 30 19
f 5 19 11
f 5 11 18
f 5 18 27
f 5 27 17
f 5 17 16
f 5 16 10
f 5 10 9
f 5 9 7
f 5 7 6
f 8 10 16
f 8 16 17
f 8 17 15
f 11 19 12
f 12 19 30
f 12 30 35
f 12 35 38
f 12 38 48
f 12 48 51
f 12 51 43
f 12 43 37
f 12 37 32
f 12 32 20
f 13 21 14
f 14 21 23
f 14 23 24
f 14 24 25
f 14 25 22
f 15 17 26
f 17 27 28
f 17 28 29
f 17 29 26
f 18 28 27
f 20 32 31
f 22 33 30
f 22 25 33
f 25 34 33
f 30 33 35
f 31 32 36
f 32 37 36
f 33 38 35
f 33 34 39
f 33 39 40
f 33 40 41
f 33 41 38
f 34 40 39
f 36 37 42
f 37 43 44
f 37 44 45
f 37 45 46
f 37 46 42
f 38 47 48
f 38 41 49
f 38 49 47
f 40 49 41
f 42 46 50
f 43 51 52
f 43 52 44
f 44 52 45
f 45 52 46
f 46 52 47
f 46 47 49
f 46 49 50
f 47 52 48
f 48 52 51

