# https://github.com/mikedh/trimesh
v 0.00113022 -0.02977408 -0.10074987
v 0.00113022 -0.02977408 -0.09982711
v 0.00113022 -0.02974248 -0.10074925
v 0.01087049 -0.02977408 -0.10084607
v 0.00692766 -0.02977408 -0.09990463
v 0.00113022 -0.02090670 -0.09766560
v 0.00113022 -0.02968934 -0.10074800
v 0.01087049 -0.02977408 -0.10002138
v 0.01087049 -0.02695186 -0.10071656
v 0.00784018 -0.02977408 -0.09991926
v 0.00419199 -0.02061227 -0.09766560
v 0.00113022 -0.01843061 -0.09766560
v 0.00113022 -0.02877733 -0.10067982
v 0.01049194 -0.02977408 -0.10000768
v 0.01087049 -0.01803708 -0.09766560
v 0.01057585 -0.01822236 -0.09766560
v 0.00967381 -0.01868770 -0.09766560
v 0.00772671 -0.01952072 -0.09766560
v 0.00601514 -0.02015554 -0.09766560
v 0.00509308 -0.02048157 -0.09766560
v 0.00508259 -0.02048444 -0.09766560
v 0.01087049 -0.02603984 -0.10060822
v 0.00875175 -0.02977408 -0.09994479
v 0.00421393 -0.02060940 -0.09766560
v 0.01087049 -0.01510140 -0.09766560
v 0.00113022 -0.01854551 -0.09771323
v 0.00113022 -0.02786387 -0.10052696
v 0.00957941 -0.02977408 -0.09997468
v 0.01087049 -0.02512783 -0.10044415
v 0.01087049 -0.01728018 -0.09844640
v 0.00113022 -0.02056487 -0.09854820
v 0.00113022 -0.02677376 -0.10031340
v 0.01087049 -0.02429049 -0.10029129
v 0.01087049 -0.02461078 -0.10034982
v 0.01087049 -0.01781303 -0.09861918
v 0.00113022 -0.02327076 -0.09943142
v 0.00113022 -0.02641326 -0.10024273
v 0.01087049 -0.02148120 -0.09965962
v 0.01087049 -0.02062089 -0.09942426
v 0.00113022 -0.02421581 -0.09970912
f 1 2 6
f 1 6 12
f 1 12 26
f 1 26 31
f 1 31 36
f 1 36 40
f 1 40 37
f 1 37 32
f 1 32 27
f 1 27 13
f 1 13 7
f 1 7 3
f 1 3 4
f 1 4 8
f 1 8 14
f 1 14 28
f 1 28 23
f 1 23 10
f 1 10 5
f 1 5 2
f 2 5 6
f 3 7 4
f 4 7 9
f 4 9 22
f 4 22 29
f 4 29 34
f 4 34 33
f 4 33 38
f 4 38 39
f 4 39 35
f 4 35 30
f 4 30 25
f 4 25 15
f 4 15 8
f 5 10 6
f 6 11 24
f 6 24 21
f 6 21 20
f 6 20 19
f 6 19 18
f 6 18 17
f 6 17 16
f 6 16 15
f 6 15 25
f 6 25 12
f 6 10 11
f 7 13 9
f 8 15 16
f 8 16 17
f 8 17 18
f 8 18 19
f 8 19 20
f 8 20 21
f 8 21 14
f 9 13 22
f 10 23 11
f 11 23 24
f 12 25 26
f 13 27 22
f 14 21 28
f 21 24 23
f 21 23 28
f 22 27 29
f 25 30 31
f 25 31 26
f 27 32 33
f 27 33 34
f 27 34 29
f 30 35 36
f 30 36 31
f 32 37 33
f 33 37 38
f 35 39 40
f 35 40 36
f 37 40 38
f 38 40 39

