# https://github.com/mikedh/trimesh
v 0.02274490 0.03872050 -0.10117875
v 0.02274490 0.04001413 -0.10117875
v 0.02274490 0.03885223 -0.10427516
v 0.03878967 0.02276122 -0.10117875
v 0.02277475 0.03999724 -0.10117875
v 0.02277475 0.03999048 -0.10427516
v 0.02274647 0.04000568 -0.10427516
v 0.02274490 0.04000568 -0.10347855
v 0.02274490 0.03975912 -0.10427516
v 0.03878967 0.02291152 -0.10427516
v 0.03878967 0.02461553 -0.10117875
v 0.02308575 0.03980809 -0.10117875
v 0.02394178 0.03928287 -0.10427516
v 0.02390566 0.03930483 -0.10427516
v 0.03878967 0.02461553 -0.10427516
v 0.03844568 0.02506476 -0.10117875
v 0.02367005 0.03945175 -0.10117875
v 0.02757483 0.03649127 -0.10427516
v 0.02394178 0.03928287 -0.10117875
v 0.03858390 0.02488405 -0.10427516
v 0.03586658 0.02842887 -0.10427516
v 0.03385608 0.03105160 -0.10427516
v 0.03387807 0.03102289 -0.10117875
v 0.02937485 0.03510813 -0.10117875
v 0.03117803 0.03372161 -0.10427516
v 0.03307230 0.03206826 -0.10427516
v 0.03327963 0.03179974 -0.10117875
v 0.03160526 0.03339229 -0.10117875
v 0.03219741 0.03293631 -0.10117875
v 0.03219741 0.03293631 -0.10427516
v 0.03307230 0.03206826 -0.10117875
v 0.03265449 0.03252424 -0.10427516
v 0.03288067 0.03227768 -0.10117875
v 0.03240632 0.03274886 -0.10117875
v 0.03222568 0.03291098 -0.10427516
v 0.03265449 0.03252424 -0.10117875
f 1 2 8
f 1 8 9
f 1 9 3
f 1 3 4
f 1 4 11
f 1 11 16
f 1 16 23
f 1 23 27
f 1 27 31
f 1 31 33
f 1 33 36
f 1 36 34
f 1 34 29
f 1 29 28
f 1 28 24
f 1 24 19
f 1 19 17
f 1 17 12
f 1 12 5
f 1 5 2
f 2 5 6
f 2 6 7
f 2 7 8
f 3 9 7
f 3 7 6
f 3 6 14
f 3 14 13
f 3 13 18
f 3 18 25
f 3 25 30
f 3 30 35
f 3 35 32
f 3 32 26
f 3 26 22
f 3 22 21
f 3 21 20
f 3 20 15
f 3 15 10
f 3 10 4
f 4 10 15
f 4 15 11
f 5 12 13
f 5 13 14
f 5 14 6
f 7 9 8
f 11 15 16
f 12 17 13
f 13 17 19
f 13 19 18
f 15 20 16
f 16 20 21
f 16 21 22
f 16 22 23
f 18 24 25
f 18 19 24
f 22 26 27
f 22 27 23
f 24 28 25
f 25 28 29
f 25 29 30
f 26 31 27
f 26 32 33
f 26 33 31
f 29 34 35
f 29 35 30
f 32 35 34
f 32 34 36
f 32 36 33

