# https://github.com/mikedh/trimesh
v -0.02123688 -0.04066466 -0.10889167
v -0.02008119 -0.04113076 -0.10940454
v -0.02013165 -0.04114835 -0.10889167
v -0.02013285 -0.04114835 -0.10706526
v -0.02123688 -0.04066466 -0.10875804
v -0.02123688 -0.04047998 -0.10945349
v -0.01952377 -0.04124508 -0.10950814
v -0.01752354 -0.04211571 -0.10947486
v -0.01557376 -0.04297755 -0.10942942
v -0.01362639 -0.04383938 -0.10936639
v -0.01952377 -0.04140338 -0.10889167
v -0.02123688 -0.04042722 -0.10955304
v -0.02123688 -0.04064708 -0.10706526
v -0.02123688 -0.04065587 -0.10784619
v -0.01952377 -0.04140338 -0.10706526
v -0.01496348 -0.04310067 -0.10952923
v -0.01313984 -0.04393612 -0.10946810
v -0.01018695 -0.04476278 -0.10939453
v -0.01222803 -0.04437583 -0.10889167
v -0.01313984 -0.04405044 -0.10889167
v -0.01766409 -0.04217727 -0.10889167
v -0.01766530 -0.04217727 -0.10706526
v -0.02123688 -0.03982921 -0.10976484
v -0.01952377 -0.04062949 -0.10974834
v -0.01678711 -0.04225642 -0.10956332
v -0.02123688 0.04055896 -0.10706526
v -0.01222803 -0.04410321 -0.10957441
v -0.01496348 -0.04245869 -0.10976971
v -0.00949137 -0.04481555 -0.10945349
v -0.00896398 -0.04492987 -0.10912944
v -0.00896398 -0.04495626 -0.10889167
v -0.00949137 -0.04489469 -0.10889167
v -0.01030708 -0.04478037 -0.10889167
v -0.01076359 -0.04471001 -0.10889167
v -0.01131501 -0.04459569 -0.10889167
v -0.01222803 -0.04434065 -0.10706526
v -0.01313984 -0.04405044 -0.10706526
v -0.02123688 -0.03971489 -0.10979514
v -0.02013405 0.04106023 -0.10706526
v -0.02123688 0.04057655 -0.10889167
v -0.00896398 -0.04427909 -0.10972995
v -0.00949137 -0.04427909 -0.10969397
v -0.00896398 -0.04462207 -0.10959118
v -0.00896398 -0.04485072 -0.10948947
v -0.01313984 -0.04336450 -0.10970831
v -0.01222803 -0.04336450 -0.10981461
v -0.01678711 -0.04154408 -0.10980352
v -0.00896398 -0.04496505 -0.10797982
v -0.00949137 -0.04489469 -0.10706526
v -0.01030948 -0.04478037 -0.10706526
v -0.01030828 -0.04478037 -0.10797982
v -0.02043559 -0.03971489 -0.10982841
v -0.01861075 -0.04062949 -0.10982597
v -0.02123688 -0.03891461 -0.10982841
v -0.02013405 0.04106023 -0.10889167
v -0.01952497 0.04131527 -0.10706526
v -0.02008239 0.04104265 -0.10940508
v -0.02123688 0.04033910 -0.10955358
v -0.00896398 -0.04389215 -0.10978675
v -0.01131501 -0.04336450 -0.10982841
v -0.01405166 -0.04245869 -0.10982841
v -0.00896398 -0.04496505 -0.10706526
v -0.02123688 0.03871217 -0.10982841
v -0.01952377 0.04131527 -0.10889167
v -0.01363359 0.04375128 -0.10706526
v -0.01363359 0.04375128 -0.10889167
v -0.01362038 0.04374248 -0.10936288
v -0.01557136 0.04288064 -0.10942780
v -0.01752234 0.04202760 -0.10947432
v -0.01952377 0.04115697 -0.10950841
v -0.01952377 0.04054137 -0.10974861
v -0.02123688 0.03962677 -0.10979568
v -0.01496348 0.04300376 -0.10952815
v -0.01678711 0.04215952 -0.10956278
v -0.00896398 -0.04336450 -0.10982841
v -0.00896398 0.04487694 -0.10706526
v -0.02043559 0.03962677 -0.10982841
v -0.01314104 0.04395354 -0.10706526
v -0.01313984 0.04395354 -0.10889167
v -0.01222803 0.04428772 -0.10889167
v -0.01019536 0.04467467 -0.10939588
v -0.01313984 0.04383922 -0.10946432
v -0.01222803 0.04401510 -0.10957306
v -0.01496348 0.04236178 -0.10976836
v -0.01678711 0.04145598 -0.10980325
v -0.01861075 0.04054137 -0.10982597
v -0.00896398 0.04327638 -0.10982841
v -0.00896398 0.04487694 -0.10797982
v -0.00949377 0.04480658 -0.10706526
v -0.01405166 0.04236178 -0.10982841
v -0.01223043 0.04425255 -0.10706526
v -0.01131501 0.04451637 -0.10889167
v -0.01077681 0.04462190 -0.10889167
v -0.01032030 0.04469226 -0.10889167
v -0.00949137 0.04480658 -0.10889167
v -0.00896398 0.04486814 -0.10889167
v -0.00949137 0.04472743 -0.10945512
v -0.00896398 0.04476261 -0.10949055
v -0.00949137 0.04419099 -0.10969532
v -0.00896398 0.04419099 -0.10973103
v -0.01222803 0.04327638 -0.10981353
v -0.01313984 0.04327638 -0.10970452
v -0.01131501 0.04327638 -0.10982841
v -0.01032150 0.04469226 -0.10797982
v -0.01032150 0.04469226 -0.10706526
f 1 2 3
f 1 3 4
f 1 4 5
f 1 5 14
f 1 14 13
f 1 13 26
f 1 26 40
f 1 40 58
f 1 58 72
f 1 72 63
f 1 63 54
f 1 54 38
f 1 38 23
f 1 23 12
f 1 12 6
f 1 6 2
f 2 7 8
f 2 8 9
f 2 9 10
f 2 10 11
f 2 11 3
f 2 6 12
f 2 12 7
f 3 11 4
f 4 13 14
f 4 14 5
f 4 11 15
f 4 15 22
f 4 22 37
f 4 37 36
f 4 36 50
f 4 50 49
f 4 49 62
f 4 62 76
f 4 76 89
f 4 89 105
f 4 105 91
f 4 91 78
f 4 78 65
f 4 65 56
f 4 56 39
f 4 39 26
f 4 26 13
f 7 16 17
f 7 17 8
f 7 12 16
f 8 17 9
f 9 17 10
f 10 17 18
f 10 18 19
f 10 19 20
f 10 20 21
f 10 21 11
f 11 21 22
f 11 22 15
f 12 23 24
f 12 24 25
f 12 25 16
f 16 27 17
f 16 25 28
f 16 28 27
f 17 27 18
f 18 29 30
f 18 30 31
f 18 31 32
f 18 32 33
f 18 33 34
f 18 34 35
f 18 35 19
f 18 27 29
f 19 35 36
f 19 36 37
f 19 37 20
f 20 37 22
f 20 22 21
f 23 38 24
f 24 28 25
f 24 38 28
f 26 39 40
f 27 41 42
f 27 42 43
f 27 43 44
f 27 44 29
f 27 28 45
f 27 45 46
f 27 46 41
f 28 38 47
f 28 47 46
f 28 46 45
f 29 44 30
f 30 44 43
f 30 43 41
f 30 41 59
f 30 59 75
f 30 75 87
f 30 87 100
f 30 100 98
f 30 98 96
f 30 96 88
f 30 88 76
f 30 76 62
f 30 62 48
f 30 48 31
f 31 48 32
f 32 48 62
f 32 62 49
f 32 49 50
f 32 50 51
f 32 51 33
f 33 51 34
f 34 51 50
f 34 50 35
f 35 50 36
f 38 52 53
f 38 53 47
f 38 54 52
f 39 55 40
f 39 56 55
f 40 55 57
f 40 57 58
f 41 43 42
f 41 46 59
f 46 60 59
f 46 47 53
f 46 53 61
f 46 61 60
f 52 54 63
f 52 63 77
f 52 77 90
f 52 90 103
f 52 103 87
f 52 87 75
f 52 75 60
f 52 60 61
f 52 61 53
f 55 56 64
f 55 64 57
f 56 65 66
f 56 66 64
f 57 64 67
f 57 67 68
f 57 68 69
f 57 69 70
f 57 70 58
f 58 71 72
f 58 70 73
f 58 73 74
f 58 74 71
f 59 60 75
f 63 72 77
f 64 66 67
f 65 78 66
f 66 78 79
f 66 79 67
f 67 79 80
f 67 80 81
f 67 81 82
f 67 82 68
f 68 82 69
f 69 82 73
f 69 73 70
f 71 74 73
f 71 73 83
f 71 83 84
f 71 84 85
f 71 85 72
f 72 85 86
f 72 86 77
f 73 82 83
f 76 88 89
f 77 86 90
f 78 91 80
f 78 80 79
f 80 92 81
f 80 91 92
f 81 92 93
f 81 93 94
f 81 94 95
f 81 95 96
f 81 96 97
f 81 97 83
f 81 83 82
f 83 97 98
f 83 98 99
f 83 99 100
f 83 100 101
f 83 101 102
f 83 102 84
f 84 102 101
f 84 101 85
f 85 101 86
f 86 101 90
f 87 103 100
f 88 96 95
f 88 95 89
f 89 95 104
f 89 104 105
f 90 101 103
f 91 105 92
f 92 105 93
f 93 105 104
f 93 104 94
f 94 104 95
f 96 98 97
f 98 100 99
f 100 103 101

