# https://github.com/mikedh/trimesh
v -0.03852986 0.00041337 -0.10085578
v -0.03843846 0.00198509 -0.10085578
v -0.03735186 0.00132628 -0.10114296
v -0.03738063 0.00041337 -0.10114533
v -0.03738063 -0.00000387 -0.10114533
v -0.03852817 -0.00000387 -0.10085578
v -0.03838599 0.00287290 -0.10085578
v -0.03732140 0.00187842 -0.10114002
v -0.03643282 0.00843509 -0.10114240
v -0.03645821 0.00771040 -0.10114478
v -0.03594199 0.00771040 -0.10115345
v -0.03685257 0.00041337 -0.10115398
v -0.03685257 -0.00000387 -0.10115410
v -0.03714030 -0.00000387 -0.10114938
v -0.03177161 -0.00000387 -0.10085578
v -0.03751096 0.00931663 -0.10085578
v -0.03637358 0.00904370 -0.10113419
v -0.03554425 0.01112363 -0.10114330
v -0.03562888 0.01044601 -0.10114607
v -0.03502972 0.01044601 -0.10115589
v -0.03594199 0.00679749 -0.10115432
v -0.03502972 0.00953309 -0.10115759
v -0.03502972 0.00862332 -0.10115839
v -0.03411576 0.00862332 -0.10116361
v -0.03320518 0.00862332 -0.10116870
v -0.03320518 0.00771040 -0.10116910
v -0.03643790 -0.00000387 -0.10115604
v -0.03176823 -0.00000387 -0.10094900
v -0.03138234 -0.00000073 -0.10085578
v -0.03737048 0.01005072 -0.10085578
v -0.03460659 0.01372120 -0.10114200
v -0.03465567 0.01318161 -0.10114484
v -0.03411576 0.01318161 -0.10115407
v -0.03320518 0.01044601 -0.10116546
v -0.03320518 0.00953309 -0.10116744
v -0.03411576 0.00953309 -0.10116256
v -0.03320518 0.01500743 -0.10115555
v -0.03229291 0.01044601 -0.10117021
v -0.03320518 0.00588771 -0.10116960
v -0.03320518 -0.00000387 -0.10117108
v -0.03255187 -0.00000387 -0.10115620
v -0.02123904 0.02513418 -0.10115194
v -0.02123904 0.02343698 -0.10085578
v -0.03558995 0.01466235 -0.10085578
v -0.03372648 0.01917672 -0.10085578
v -0.03276005 0.01821988 -0.10113981
v -0.03280913 0.01773990 -0.10114311
v -0.03229291 0.01773990 -0.10115212
v -0.03229291 0.01500743 -0.10116034
v -0.03138234 0.01226869 -0.10117105
v -0.03229291 0.01682699 -0.10115635
v -0.03138234 0.01682699 -0.10116114
v -0.02682268 0.02047864 -0.10117071
v -0.02408587 0.02412715 -0.10117015
v -0.02135075 0.02594984 -0.10116941
v -0.02123904 0.02594671 -0.10116799
v -0.02123904 0.03204534 -0.10085578
v -0.03101167 0.02285033 -0.10085578
v -0.03088643 0.02089588 -0.10113197
v -0.03006555 0.02191546 -0.10114296
v -0.03191886 0.01923319 -0.10114342
v -0.03225060 0.01857438 -0.10114564
v -0.03138234 0.01864968 -0.10115645
v -0.03047006 0.01682699 -0.10116592
v -0.03047006 0.01500743 -0.10116987
v -0.02955949 0.01682699 -0.10117052
v -0.03138234 0.01773990 -0.10115907
v -0.02864722 0.01935240 -0.10116642
v -0.02591041 0.02504007 -0.10115907
v -0.02499983 0.02321424 -0.10116944
v -0.02864722 0.01864968 -0.10116882
v -0.02499983 0.02412715 -0.10116629
v -0.02499983 0.02504007 -0.10116293
v -0.02408587 0.02504007 -0.10116629
v -0.02317529 0.02504007 -0.10116944
v -0.02123904 0.02685962 -0.10116793
v -0.02123904 0.03078421 -0.10108291
v -0.02172480 0.03179437 -0.10085578
v -0.02825625 0.02647375 -0.10085578
v -0.02731690 0.02554515 -0.10114194
v -0.02677190 0.02588710 -0.10114672
v -0.02951040 0.02225427 -0.10114746
v -0.03025173 0.02138841 -0.10114592
v -0.02955610 0.02138841 -0.10115527
v -0.03047006 0.01864968 -0.10116061
v -0.02955949 0.01773990 -0.10116784
v -0.03047006 0.01773990 -0.10116355
v -0.03047006 0.01935240 -0.10115821
v -0.02955949 0.01935240 -0.10116231
v -0.02864552 0.02230447 -0.10115623
v -0.02591041 0.02594984 -0.10115564
v -0.02499983 0.02594984 -0.10115907
v -0.02226302 0.02594984 -0.10116852
v -0.02123904 0.02959522 -0.10115564
v -0.02123904 0.03032618 -0.10114629
v -0.02135075 0.03028854 -0.10114592
v -0.02187543 0.03010658 -0.10114296
v -0.02280971 0.03105086 -0.10085578
v -0.02738967 0.02742744 -0.10085578
v -0.02643340 0.02647061 -0.10114320
v -0.02585117 0.02680942 -0.10114678
v -0.02682268 0.02504007 -0.10115428
v -0.02499983 0.02685962 -0.10115441
v -0.02135075 0.02959522 -0.10115524
v -0.02226302 0.02868545 -0.10115623
v -0.02221225 0.02954817 -0.10114746
v -0.02550759 0.02735843 -0.10114209
v -0.02643678 0.02829644 -0.10085578
f 1 2 3
f 1 3 4
f 1 4 5
f 1 5 6
f 1 6 15
f 1 15 29
f 1 29 43
f 1 43 57
f 1 57 78
f 1 78 98
f 1 98 108
f 1 108 99
f 1 99 79
f 1 79 58
f 1 58 45
f 1 45 44
f 1 44 30
f 1 30 16
f 1 16 7
f 1 7 2
f 2 7 3
f 3 7 8
f 3 8 9
f 3 9 10
f 3 10 4
f 4 10 11
f 4 11 12
f 4 12 13
f 4 13 14
f 4 14 5
f 5 14 13
f 5 13 27
f 5 27 40
f 5 40 41
f 5 41 28
f 5 28 15
f 5 15 6
f 7 16 9
f 7 9 8
f 9 11 10
f 9 16 17
f 9 17 18
f 9 18 19
f 9 19 20
f 9 20 11
f 11 21 12
f 11 20 22
f 11 22 21
f 12 21 23
f 12 23 24
f 12 24 25
f 12 25 26
f 12 26 13
f 13 26 27
f 15 28 29
f 16 30 17
f 17 30 31
f 17 31 18
f 18 31 32
f 18 32 33
f 18 33 19
f 19 33 20
f 20 34 35
f 20 35 36
f 20 36 22
f 20 33 37
f 20 37 49
f 20 49 34
f 21 22 23
f 22 36 25
f 22 25 24
f 22 24 23
f 25 36 35
f 25 35 38
f 25 38 26
f 26 39 27
f 26 38 39
f 27 39 40
f 28 41 29
f 29 41 42
f 29 42 43
f 30 44 31
f 31 33 32
f 31 44 45
f 31 45 46
f 31 46 47
f 31 47 48
f 31 48 33
f 33 48 37
f 34 49 50
f 34 50 35
f 35 50 38
f 37 48 51
f 37 51 52
f 37 52 64
f 37 64 49
f 38 50 40
f 38 40 39
f 40 50 53
f 40 53 54
f 40 54 55
f 40 55 56
f 40 56 41
f 41 56 42
f 42 56 76
f 42 76 94
f 42 94 95
f 42 95 77
f 42 77 57
f 42 57 43
f 45 58 59
f 45 59 46
f 46 59 60
f 46 60 61
f 46 61 62
f 46 62 47
f 47 62 48
f 48 62 63
f 48 63 51
f 49 64 65
f 49 65 50
f 50 65 66
f 50 66 53
f 51 63 67
f 51 67 52
f 52 67 64
f 53 68 69
f 53 69 70
f 53 70 54
f 53 66 71
f 53 71 68
f 54 72 73
f 54 73 74
f 54 74 75
f 54 75 55
f 54 70 72
f 55 75 76
f 55 76 56
f 57 77 78
f 58 79 80
f 58 80 60
f 58 60 59
f 60 80 81
f 60 81 82
f 60 82 83
f 60 83 62
f 60 62 61
f 62 83 84
f 62 84 63
f 63 85 86
f 63 86 87
f 63 87 67
f 63 84 88
f 63 88 85
f 64 66 65
f 64 67 66
f 66 67 87
f 66 87 86
f 66 86 71
f 68 89 90
f 68 90 69
f 68 71 86
f 68 86 89
f 69 91 73
f 69 73 72
f 69 72 70
f 69 90 91
f 73 91 92
f 73 92 74
f 74 92 75
f 75 92 93
f 75 93 76
f 76 93 105
f 76 105 94
f 77 95 96
f 77 96 97
f 77 97 78
f 78 97 98
f 79 99 80
f 80 99 100
f 80 100 81
f 81 100 101
f 81 101 91
f 81 91 102
f 81 102 84
f 81 84 82
f 82 84 83
f 84 102 91
f 84 91 90
f 84 90 88
f 85 88 86
f 86 88 89
f 88 90 89
f 91 101 103
f 91 103 104
f 91 104 105
f 91 105 92
f 92 105 93
f 94 105 104
f 94 104 95
f 95 104 96
f 96 104 106
f 96 106 97
f 97 106 101
f 97 101 107
f 97 107 98
f 98 107 108
f 99 108 107
f 99 107 100
f 100 107 101
f 101 106 104
f 101 104 103

