# https://github.com/mikedh/trimesh
v 0.02161101 0.02361419 0.07324930
v 0.02178084 0.02331368 0.07430845
v 0.02168649 0.02361419 0.07430667
v 0.03098920 0.02361419 0.05649683
v 0.03900689 -0.00262504 0.05649683
v 0.03123073 -0.00262504 0.07354657
v 0.03123073 -0.00262504 0.07445442
v 0.02293188 0.02281027 0.07441348
v 0.03244782 -0.00083227 0.07467871
v 0.02296208 0.02361419 0.07433160
v 0.03320072 0.02361419 0.05649505
v 0.04064854 -0.00262504 0.05649683
v 0.03228554 -0.00262504 0.07455589
v 0.02771533 0.01653042 0.07467693
v 0.03244782 -0.00241186 0.07457191
v 0.03343659 -0.00083227 0.07426217
v 0.03244782 0.00074476 0.07467871
v 0.02416407 0.02284366 0.07430489
v 0.02386404 0.02361419 0.07412510
v 0.03303089 0.02361419 0.05720887
v 0.03370642 0.02267157 0.05746520
v 0.03377813 0.02287448 0.05649683
v 0.03405174 0.02251747 0.05649683
v 0.03460462 0.02179316 0.05649683
v 0.03496314 0.02131030 0.05649683
v 0.03518957 0.02100465 0.05649683
v 0.03588963 0.01964337 0.05649683
v 0.03665008 0.01802012 0.05649683
v 0.03811059 0.01449107 0.05649683
v 0.03822380 0.01421368 0.05649683
v 0.03952392 0.01098258 0.05649683
v 0.03956355 0.01083104 0.05649683
v 0.03973337 0.01016068 0.05649683
v 0.03998433 0.00869153 0.05649683
v 0.04007113 0.00802887 0.05649683
v 0.04025795 0.00644927 0.05649683
v 0.04088253 0.00074476 0.05649683
v 0.04088630 -0.00083227 0.05649683
v 0.04086177 -0.00108654 0.05649683
v 0.04046740 -0.00262504 0.05746520
v 0.03246480 -0.00262504 0.07454699
v 0.02929283 0.01337380 0.07460217
v 0.03068163 0.01179421 0.07444196
v 0.02935887 0.01490716 0.07442594
v 0.02886071 0.01653042 0.07431913
v 0.02769268 0.01803296 0.07438678
v 0.02618878 0.01970759 0.07446332
v 0.03323091 -0.00262504 0.07418919
v 0.03333469 -0.00241186 0.07415536
v 0.03509711 -0.00083227 0.07139088
v 0.03509711 0.00074476 0.07138910
v 0.03343470 0.00074476 0.07426039
v 0.03220440 0.00706056 0.07446332
v 0.02569628 0.02093273 0.07429956
v 0.02715301 0.01919390 0.07423369
v 0.02860786 0.01745763 0.07414113
v 0.02528681 0.02198580 0.07396133
v 0.02497358 0.02292842 0.07336145
v 0.02524718 0.02351145 0.07232365
v 0.02532644 0.02361419 0.07209580
v 0.03296674 0.02361419 0.05747588
v 0.03493483 0.02064250 0.05857064
v 0.03449706 0.02164163 0.05746520
v 0.03263463 0.02361419 0.05853326
v 0.03508390 0.02085311 0.05746520
v 0.03656705 0.01773502 0.05746520
v 0.03805209 0.01435238 0.05705222
v 0.03831060 0.01348424 0.05753284
v 0.03950694 0.01094919 0.05661610
v 0.03965223 0.00989869 0.05718928
v 0.03953901 0.00941069 0.05824132
v 0.03975413 0.00878656 0.05761473
v 0.04000887 0.00706056 0.05746520
v 0.04021077 0.00548097 0.05746520
v 0.04019190 0.00232435 0.05904414
v 0.04033720 0.00074476 0.05904414
v 0.04036928 0.00390394 0.05746520
v 0.04033909 -0.00083227 0.05904414
v 0.04019379 -0.00241186 0.05904414
v 0.04016926 -0.00262504 0.05904414
v 0.03206288 0.00864016 0.07440280
v 0.03036273 0.01337380 0.07429777
v 0.03016083 0.01435238 0.07412867
v 0.03332148 -0.00262504 0.07413935
v 0.03675952 -0.00083227 0.06838252
v 0.03492351 -0.00262504 0.07128585
v 0.03498201 -0.00262504 0.07118083
v 0.03675764 0.00074476 0.06838074
v 0.03499522 0.00232435 0.07120397
v 0.03359509 0.00386799 0.07336145
v 0.03326488 0.00331834 0.07407526
v 0.03333092 0.00232435 0.07415181
v 0.02992873 0.01540544 0.07380647
v 0.02969475 0.01661775 0.07326710
v 0.03001176 0.01720078 0.07237527
v 0.02887958 0.01803296 0.07314783
v 0.02820594 0.01850812 0.07360710
v 0.02674920 0.02024696 0.07378333
v 0.02565477 0.02245839 0.07290930
v 0.02579818 0.02361419 0.07141758
v 0.03247046 0.02361419 0.05904414
v 0.03345168 0.02233511 0.05904414
v 0.03327242 0.02209881 0.05990749
v 0.03343659 0.02073753 0.06185135
v 0.03470840 0.02032144 0.05962267
v 0.03499899 0.01926838 0.06030089
v 0.03519901 0.01975125 0.05907441
v 0.03645572 0.01746276 0.05842823
v 0.03811436 0.01292175 0.05904414
v 0.03854647 0.01179421 0.05904414
v 0.03896538 0.01179421 0.05746520
v 0.03798793 0.01103652 0.06144549
v 0.03850685 0.01021718 0.06062131
v 0.03810304 0.01021718 0.06176591
v 0.03822946 0.00865300 0.06230706
v 0.03962015 0.00835763 0.05846205
v 0.04001075 0.00390394 0.05904414
v 0.03982395 0.00080126 0.06074413
v 0.03959940 0.00031326 0.06153805
v 0.03959940 -0.00040848 0.06153805
v 0.03982395 -0.00089391 0.06074591
v 0.03974281 -0.00262504 0.06035429
v 0.03975601 -0.00241186 0.06039346
v 0.03299315 0.00706056 0.07363914
v 0.03291201 0.00876858 0.07321014
v 0.03186098 0.00991924 0.07424081
v 0.03163831 0.01096974 0.07401474
v 0.03665763 -0.00241186 0.06819739
v 0.03743505 -0.00083227 0.06693530
v 0.03743317 0.00074476 0.06693530
v 0.03664253 -0.00262504 0.06817247
v 0.03687085 0.00548097 0.06693530
v 0.03665574 0.00232435 0.06819561
v 0.03655196 0.00390394 0.06800870
v 0.03639723 0.00627719 0.06772566
v 0.03489143 0.00390394 0.07101528
v 0.03445366 0.00390394 0.07180564
v 0.03355924 0.00548097 0.07303925
v 0.03345357 0.00706056 0.07284878
v 0.03025706 0.01614772 0.07275265
v 0.03147038 0.01179421 0.07372814
v 0.03171191 0.01742167 0.06939361
v 0.03196665 0.01801241 0.06844482
v 0.03175719 0.01902952 0.06787163
v 0.02970229 0.01818963 0.07177894
v 0.03034763 0.01924270 0.06968555
v 0.03085334 0.01966392 0.06848576
v 0.02690960 0.02361419 0.06981194
v 0.02616236 0.02287962 0.07170952
v 0.03195155 0.02361419 0.06026529
v 0.03303466 0.02178803 0.06096130
v 0.03089863 0.02287962 0.06383616
v 0.03185343 0.02072983 0.06535814
v 0.03167039 0.02049096 0.06616452
v 0.03268180 0.01961769 0.06534568
v 0.03333280 0.01904750 0.06481165
v 0.03354603 0.01810488 0.06534568
v 0.03501220 0.01779153 0.06191365
v 0.03648591 0.01596022 0.06006770
v 0.03665196 0.01650473 0.05898896
v 0.03797473 0.01258529 0.05983450
v 0.03811247 0.01165551 0.06046466
v 0.03652554 0.01131904 0.06490243
v 0.03672367 0.01025571 0.06540086
v 0.03650856 0.00975229 0.06639237
v 0.03661611 0.00864016 0.06662201
v 0.03801246 0.00813674 0.06309386
v 0.03958430 0.00492875 0.05991817
v 0.03970507 0.00706056 0.05872195
v 0.03975413 0.00232435 0.06038989
v 0.03810681 0.00232435 0.06493269
v 0.03820871 -0.00083227 0.06521751
v 0.03820871 0.00074476 0.06521395
v 0.03809360 -0.00262504 0.06489887
v 0.03334601 0.00832681 0.07265653
v 0.03490087 0.00963928 0.06945058
v 0.03321015 0.00937987 0.07244114
v 0.03225724 0.01035331 0.07339349
v 0.03352716 0.01021718 0.07136774
v 0.03194400 0.01179421 0.07293956
v 0.03786151 -0.00083227 0.06600431
v 0.03785962 0.00074476 0.06600253
v 0.03665574 0.00690646 0.06701185
v 0.03511976 0.00706056 0.06984753
v 0.03500465 0.00864016 0.06963749
v 0.03190249 0.01653042 0.06971403
v 0.03174021 0.01278049 0.07259778
v 0.03183645 0.01458867 0.07117905
v 0.03307240 0.01692853 0.06741771
v 0.03280257 0.01810488 0.06690860
v 0.03329507 0.01587803 0.06782001
v 0.03310448 0.01863141 0.06586190
v 0.03196099 0.01960999 0.06678755
v 0.03135716 0.02008258 0.06721656
v 0.02990420 0.02182142 0.06743195
v 0.03030612 0.02076835 0.06804964
v 0.02885128 0.02250719 0.06822587
v 0.02708886 0.02361419 0.06955026
v 0.03046085 0.02361419 0.06355668
v 0.03046085 0.02254829 0.06535814
v 0.03021555 0.02222980 0.06637991
v 0.03334601 0.01757835 0.06636389
v 0.03483294 0.01420084 0.06617876
v 0.03461594 0.01525390 0.06562871
v 0.03499899 0.01144747 0.06803184
v 0.03519523 0.01018636 0.06854095
v 0.03500465 0.01337380 0.06651698
v 0.03802756 0.00352125 0.06471552
v 0.03341772 0.01301935 0.06960545
v 0.03353094 0.01645337 0.06690860
v 0.02894940 0.02361419 0.06672347
v 0.02847577 0.02361419 0.06749959
v 0.02841350 0.02361419 0.06759928
v 0.02843237 0.02356025 0.06763488
v 0.02777382 0.02361419 0.06854273
v 0.02963437 0.02361419 0.06534924
f 1 2 3
f 1 3 10
f 1 10 19
f 1 19 60
f 1 60 100
f 1 100 148
f 1 148 198
f 1 198 215
f 1 215 213
f 1 213 212
f 1 212 211
f 1 211 216
f 1 216 199
f 1 199 150
f 1 150 101
f 1 101 64
f 1 64 61
f 1 61 20
f 1 20 11
f 1 11 4
f 1 4 5
f 1 5 6
f 1 6 7
f 1 7 2
f 2 8 3
f 2 7 9
f 2 9 8
f 3 8 10
f 4 11 5
f 5 12 40
f 5 40 80
f 5 80 122
f 5 122 174
f 5 174 131
f 5 131 87
f 5 87 86
f 5 86 84
f 5 84 48
f 5 48 41
f 5 41 13
f 5 13 7
f 5 7 6
f 5 11 12
f 7 13 9
f 8 9 14
f 8 14 10
f 9 13 15
f 9 15 16
f 9 16 17
f 9 17 14
f 10 18 19
f 10 14 18
f 11 20 21
f 11 21 22
f 11 22 23
f 11 23 24
f 11 24 25
f 11 25 26
f 11 26 27
f 11 27 28
f 11 28 29
f 11 29 30
f 11 30 31
f 11 31 32
f 11 32 33
f 11 33 34
f 11 34 35
f 11 35 36
f 11 36 37
f 11 37 38
f 11 38 39
f 11 39 12
f 12 39 40
f 13 41 15
f 14 42 43
f 14 43 44
f 14 44 45
f 14 45 46
f 14 46 47
f 14 47 18
f 14 17 42
f 15 41 16
f 16 41 48
f 16 48 49
f 16 49 50
f 16 50 51
f 16 51 52
f 16 52 17
f 17 52 53
f 17 53 42
f 18 47 54
f 18 54 19
f 19 54 55
f 19 55 56
f 19 56 57
f 19 57 58
f 19 58 59
f 19 59 60
f 20 61 21
f 21 62 63
f 21 63 22
f 21 61 64
f 21 64 62
f 22 63 23
f 23 63 24
f 24 63 65
f 24 65 25
f 25 65 26
f 26 65 27
f 27 65 62
f 27 62 66
f 27 66 28
f 28 66 29
f 29 67 68
f 29 68 30
f 29 66 67
f 30 68 31
f 31 69 32
f 31 68 69
f 32 69 70
f 32 70 33
f 33 70 34
f 34 70 71
f 34 71 72
f 34 72 35
f 35 73 74
f 35 74 36
f 35 72 73
f 36 74 37
f 37 75 76
f 37 76 38
f 37 74 77
f 37 77 75
f 38 76 78
f 38 78 79
f 38 79 39
f 39 79 80
f 39 80 40
f 42 53 81
f 42 81 43
f 43 81 82
f 43 82 44
f 44 82 45
f 45 56 46
f 45 82 83
f 45 83 56
f 46 55 54
f 46 54 47
f 46 56 55
f 48 84 49
f 49 84 50
f 50 85 51
f 50 84 86
f 50 86 87
f 50 87 85
f 51 88 133
f 51 133 89
f 51 89 90
f 51 90 91
f 51 91 92
f 51 92 52
f 51 85 88
f 52 92 81
f 52 81 53
f 56 83 93
f 56 93 94
f 56 94 95
f 56 95 96
f 56 96 97
f 56 97 98
f 56 98 57
f 57 98 99
f 57 99 59
f 57 59 58
f 59 99 60
f 60 99 100
f 62 65 63
f 62 64 101
f 62 101 102
f 62 102 103
f 62 103 104
f 62 104 105
f 62 105 106
f 62 106 107
f 62 107 108
f 62 108 66
f 66 108 68
f 66 68 67
f 68 108 109
f 68 109 110
f 68 110 111
f 68 111 69
f 69 111 110
f 69 110 71
f 69 71 70
f 71 110 112
f 71 112 113
f 71 113 114
f 71 114 115
f 71 115 116
f 71 116 74
f 71 74 73
f 71 73 72
f 74 116 117
f 74 117 75
f 74 75 77
f 75 118 76
f 75 117 118
f 76 119 78
f 76 118 119
f 78 119 120
f 78 120 121
f 78 121 79
f 79 121 80
f 80 121 123
f 80 123 122
f 81 124 125
f 81 125 126
f 81 126 82
f 81 92 91
f 81 91 124
f 82 126 83
f 83 126 127
f 83 127 93
f 85 87 128
f 85 128 129
f 85 129 130
f 85 130 88
f 87 131 128
f 88 130 132
f 88 132 133
f 89 133 134
f 89 134 135
f 89 135 136
f 89 136 137
f 89 137 90
f 90 137 138
f 90 138 139
f 90 139 91
f 91 139 124
f 93 140 95
f 93 95 94
f 93 127 141
f 93 141 140
f 95 140 142
f 95 142 143
f 95 143 144
f 95 144 145
f 95 145 96
f 96 145 144
f 96 144 97
f 97 144 146
f 97 146 147
f 97 147 148
f 97 148 149
f 97 149 98
f 98 149 99
f 99 149 100
f 100 149 148
f 101 150 103
f 101 103 102
f 103 151 104
f 103 150 151
f 104 151 150
f 104 150 152
f 104 152 153
f 104 153 154
f 104 154 155
f 104 155 156
f 104 156 105
f 105 156 106
f 106 156 157
f 106 157 158
f 106 158 159
f 106 159 108
f 106 108 107
f 108 159 160
f 108 160 161
f 108 161 109
f 109 161 110
f 110 162 112
f 110 161 162
f 112 163 164
f 112 164 165
f 112 165 114
f 112 114 113
f 112 162 161
f 112 161 163
f 114 165 115
f 115 165 166
f 115 166 167
f 115 167 168
f 115 168 116
f 116 168 169
f 116 169 117
f 117 169 168
f 117 168 170
f 117 170 118
f 118 170 171
f 118 171 119
f 119 172 120
f 119 171 173
f 119 173 172
f 120 172 174
f 120 174 122
f 120 122 121
f 121 122 123
f 124 139 175
f 124 175 125
f 125 176 177
f 125 177 126
f 125 175 176
f 126 177 178
f 126 178 127
f 127 178 179
f 127 179 180
f 127 180 141
f 128 131 129
f 129 131 181
f 129 181 130
f 130 181 182
f 130 182 132
f 131 174 181
f 132 166 183
f 132 183 135
f 132 135 133
f 132 182 173
f 132 173 166
f 133 135 134
f 135 184 136
f 135 183 166
f 135 166 185
f 135 185 184
f 136 184 137
f 137 184 138
f 138 184 139
f 139 184 185
f 139 185 175
f 140 186 142
f 140 141 180
f 140 180 187
f 140 187 188
f 140 188 186
f 142 189 190
f 142 190 143
f 142 186 191
f 142 191 189
f 143 190 144
f 144 190 192
f 144 192 193
f 144 193 154
f 144 154 194
f 144 194 195
f 144 195 196
f 144 196 147
f 144 147 146
f 147 196 197
f 147 197 148
f 148 197 198
f 150 199 152
f 152 199 200
f 152 200 154
f 152 154 153
f 154 200 201
f 154 201 195
f 154 195 194
f 154 193 192
f 154 192 155
f 155 192 156
f 156 192 157
f 157 192 202
f 157 202 203
f 157 203 204
f 157 204 158
f 158 204 161
f 158 161 159
f 159 161 160
f 161 204 163
f 163 165 164
f 163 204 203
f 163 203 165
f 165 205 206
f 165 206 176
f 165 176 166
f 165 203 207
f 165 207 205
f 166 176 185
f 166 173 171
f 166 171 208
f 166 208 167
f 167 208 171
f 167 171 168
f 168 171 170
f 172 173 181
f 172 181 174
f 173 182 181
f 175 185 176
f 176 206 205
f 176 205 179
f 176 179 177
f 177 179 178
f 179 205 209
f 179 209 187
f 179 187 180
f 186 188 191
f 187 209 188
f 188 209 191
f 189 210 202
f 189 202 190
f 189 191 207
f 189 207 210
f 190 202 192
f 191 209 205
f 191 205 207
f 195 201 211
f 195 211 212
f 195 212 213
f 195 213 214
f 195 214 196
f 196 214 197
f 197 214 215
f 197 215 198
f 199 216 200
f 200 216 201
f 201 216 211
f 202 210 207
f 202 207 203
f 213 215 214

