# https://github.com/mikedh/trimesh
v -0.03686061 -0.01951782 0.03576023
v -0.03795240 -0.01777166 0.03852036
v -0.03786819 -0.01756827 0.03723085
v -0.03809054 -0.01656290 0.03576023
v -0.03495551 -0.01951782 0.03576023
v -0.03734667 -0.01951782 0.04009965
v -0.03805508 -0.01802134 0.04009965
v -0.03949702 -0.01453399 0.04009965
v -0.03942388 -0.01435705 0.03897857
v -0.03953986 -0.01305901 0.03576023
v -0.03999489 -0.00262504 0.03576023
v -0.03926506 -0.00262504 0.05426071
v -0.03436234 -0.01951782 0.05426071
v -0.03738582 -0.01951782 0.04058684
v -0.03747225 -0.01951782 0.04167713
v -0.03810605 -0.01814536 0.04167713
v -0.04097884 -0.01114584 0.04072991
v -0.04000154 -0.01188498 0.03576023
v -0.04151956 -0.00262504 0.03576023
v -0.04103867 -0.00262504 0.05426071
v -0.03635534 -0.01951782 0.05426071
v -0.03745674 -0.01951782 0.04214439
v -0.03809054 -0.01810733 0.04325641
v -0.04097810 -0.01114419 0.04299199
v -0.03954798 -0.01465800 0.04167713
v -0.04098844 -0.01116899 0.04167713
v -0.04113027 -0.01030748 0.04167713
v -0.04134671 -0.00872833 0.04167713
v -0.04155428 -0.00714918 0.04167713
v -0.04145899 -0.00714918 0.04009965
v -0.04125216 -0.00872833 0.04009965
v -0.04104680 -0.01027772 0.04016123
v -0.04098992 -0.00973205 0.03905645
v -0.04033248 -0.01030748 0.03576023
v -0.04165696 -0.00262504 0.03694107
v -0.04134376 -0.00399254 0.03576023
v -0.04148780 -0.00399254 0.03694107
v -0.04166066 -0.00557169 0.04009965
v -0.03998751 -0.01030748 0.05426071
v -0.04106157 -0.00262504 0.05419370
v -0.03642921 -0.01951782 0.05393471
v -0.03640114 -0.01942026 0.05426071
v -0.03741833 -0.01951782 0.04325641
v -0.03953247 -0.01461997 0.04325641
v -0.03803144 -0.01796347 0.04641137
v -0.03995131 -0.01346248 0.04483570
v -0.04095889 -0.01109458 0.04404606
v -0.04107265 -0.01046457 0.04341398
v -0.04131790 -0.00872833 0.04325641
v -0.04152473 -0.00714918 0.04325641
v -0.04172566 -0.00557169 0.04325641
v -0.04175003 -0.00557169 0.04167713
v -0.04147376 -0.00557169 0.03852036
v -0.04106822 -0.00717895 0.03692296
v -0.04105936 -0.00873495 0.03852579
v -0.04099509 -0.00821242 0.03743732
v -0.04099952 -0.00667131 0.03582000
v -0.04100913 -0.00654398 0.03576023
v -0.04167174 -0.00399254 0.03852036
v -0.04181209 -0.00399254 0.04009965
v -0.04179657 -0.00262504 0.03852036
v -0.04118789 -0.00518145 0.03576023
v -0.04011899 -0.01188498 0.05114742
v -0.03997273 -0.01036205 0.05426071
v -0.04101208 -0.00360560 0.05378801
v -0.04097588 -0.00648941 0.05202399
v -0.04100913 -0.00831991 0.05061495
v -0.04097884 -0.00965598 0.04905015
v -0.04138734 -0.00262504 0.05251480
v -0.03659985 -0.01951782 0.05307443
v -0.03807798 -0.01536572 0.05426071
v -0.03788296 -0.01760465 0.05074535
v -0.03714279 -0.01951782 0.04956994
v -0.03800116 -0.01789071 0.04799065
v -0.03947264 -0.01447611 0.04641137
v -0.03983091 -0.01346248 0.04799065
v -0.03967282 -0.01360634 0.04964963
v -0.04029037 -0.01188498 0.04956994
v -0.04100322 -0.00982134 0.04799065
v -0.04120636 -0.00872833 0.04641137
v -0.04146933 -0.00714918 0.04483570
v -0.04167617 -0.00557169 0.04483570
v -0.04184459 -0.00399254 0.04325641
v -0.04175373 -0.00399254 0.04799065
v -0.04181800 -0.00399254 0.04483570
v -0.04186010 -0.00399254 0.04167713
v -0.04188226 -0.00262504 0.04009965
v -0.03975039 -0.01202553 0.05284986
v -0.03961004 -0.01165514 0.05426071
v -0.03960856 -0.01322602 0.05114742
v -0.04126619 -0.00557169 0.05114742
v -0.04168208 -0.00399254 0.04956994
v -0.04147746 -0.00557169 0.04956994
v -0.04105419 -0.00879944 0.04957356
v -0.04147303 -0.00399254 0.05114742
v -0.04156463 -0.00557169 0.04799065
v -0.04115022 -0.00872833 0.04799065
v -0.04163776 -0.00262504 0.05114742
v -0.03696550 -0.01951782 0.05116009
v -0.03947781 -0.01291019 0.05240614
v -0.03933967 -0.01422642 0.05022918
v -0.03795462 -0.01777827 0.04956994
v -0.03941207 -0.01432894 0.04917693
v -0.03944235 -0.01440335 0.04799065
v -0.04190886 -0.00262504 0.04167713
v -0.04184754 -0.00262504 0.04777875
v -0.04180692 -0.00262504 0.04956994
v -0.04181652 -0.00262504 0.04935804
v -0.04184385 -0.00262504 0.04799065
v -0.04166583 -0.00262504 0.05093551
f 1 2 3
f 1 3 4
f 1 4 10
f 1 10 18
f 1 18 34
f 1 34 58
f 1 58 62
f 1 62 36
f 1 36 19
f 1 19 11
f 1 11 5
f 1 5 13
f 1 13 21
f 1 21 41
f 1 41 70
f 1 70 99
f 1 99 73
f 1 73 43
f 1 43 22
f 1 22 15
f 1 15 14
f 1 14 6
f 1 6 7
f 1 7 2
f 2 7 8
f 2 8 9
f 2 9 3
f 3 10 4
f 3 9 10
f 5 11 12
f 5 12 13
f 6 14 7
f 7 14 15
f 7 15 16
f 7 16 17
f 7 17 8
f 8 17 9
f 9 17 10
f 10 17 18
f 11 19 35
f 11 35 61
f 11 61 87
f 11 87 105
f 11 105 106
f 11 106 109
f 11 109 108
f 11 108 107
f 11 107 110
f 11 110 98
f 11 98 69
f 11 69 40
f 11 40 20
f 11 20 12
f 12 20 39
f 12 39 64
f 12 64 89
f 12 89 71
f 12 71 42
f 12 42 21
f 12 21 13
f 15 22 23
f 15 23 16
f 16 23 24
f 16 24 25
f 16 25 17
f 17 25 26
f 17 26 27
f 17 27 28
f 17 28 29
f 17 29 30
f 17 30 31
f 17 31 32
f 17 32 33
f 17 33 34
f 17 34 18
f 19 36 37
f 19 37 38
f 19 38 35
f 20 40 39
f 21 42 41
f 22 43 23
f 23 44 24
f 23 43 45
f 23 45 44
f 24 44 46
f 24 46 47
f 24 47 48
f 24 48 27
f 24 27 26
f 24 26 25
f 27 48 49
f 27 49 28
f 28 49 29
f 29 49 50
f 29 50 51
f 29 51 52
f 29 52 38
f 29 38 30
f 30 38 53
f 30 53 31
f 31 53 54
f 31 54 55
f 31 55 33
f 31 33 32
f 33 55 56
f 33 56 34
f 34 56 57
f 34 57 58
f 35 38 59
f 35 59 60
f 35 60 61
f 36 62 54
f 36 54 53
f 36 53 37
f 37 53 38
f 38 52 60
f 38 60 59
f 39 63 64
f 39 40 65
f 39 65 66
f 39 66 67
f 39 67 68
f 39 68 63
f 40 69 65
f 41 42 71
f 41 71 72
f 41 72 70
f 43 73 74
f 43 74 45
f 44 45 46
f 45 74 104
f 45 104 75
f 45 75 46
f 46 75 76
f 46 76 47
f 47 76 77
f 47 77 78
f 47 78 68
f 47 68 79
f 47 79 48
f 48 79 49
f 49 79 80
f 49 80 81
f 49 81 82
f 49 82 50
f 50 82 51
f 51 83 52
f 51 82 84
f 51 84 85
f 51 85 83
f 52 86 60
f 52 83 86
f 54 56 55
f 54 62 58
f 54 58 56
f 56 58 57
f 60 86 87
f 60 87 61
f 63 88 89
f 63 89 64
f 63 68 78
f 63 78 77
f 63 77 90
f 63 90 88
f 65 69 91
f 65 91 67
f 65 67 66
f 67 92 93
f 67 93 94
f 67 94 68
f 67 91 95
f 67 95 92
f 68 94 93
f 68 93 92
f 68 92 96
f 68 96 97
f 68 97 79
f 69 98 95
f 69 95 91
f 70 72 99
f 71 89 100
f 71 100 72
f 72 90 101
f 72 101 77
f 72 77 102
f 72 102 99
f 72 100 90
f 73 99 102
f 73 102 74
f 74 102 103
f 74 103 104
f 75 104 76
f 76 104 103
f 76 103 77
f 77 101 90
f 77 103 102
f 79 97 80
f 80 97 96
f 80 96 81
f 81 96 82
f 82 96 84
f 83 105 86
f 83 85 106
f 83 106 105
f 84 96 92
f 84 92 107
f 84 107 108
f 84 108 85
f 85 108 109
f 85 109 106
f 86 105 87
f 88 90 100
f 88 100 89
f 92 95 98
f 92 98 110
f 92 110 107

