# https://github.com/mikedh/trimesh
v 0.00258744 0.00067364 -0.01384325
v 0.00258744 -0.00062443 -0.01326581
v 0.00258744 0.00799123 -0.00788520
v 0.00564957 0.00799123 -0.00719962
v 0.00719273 0.00799123 -0.00683846
v 0.00822150 0.00799123 -0.00656913
v 0.01035598 0.00799123 -0.00555911
v 0.01134958 0.00799123 -0.00501432
v 0.01421827 0.00799123 -0.00337382
v 0.01430400 0.00799123 -0.00332077
v 0.01440512 0.00799123 -0.00325751
v 0.01638792 0.00799123 -0.00200265
v 0.01914670 0.00799123 -0.00023972
v 0.02107015 0.00799123 0.00108860
v 0.01964130 0.00548032 -0.00059475
v 0.02077998 0.00357947 -0.00028257
v 0.01899282 0.00275428 -0.00168638
v 0.01904558 0.00170357 -0.00174964
v 0.01904558 0.00137827 -0.00174964
v 0.02077339 -0.00083332 -0.00028461
v 0.02160212 -0.00262400 0.00048463
v 0.02066567 -0.00262400 -0.00020299
v 0.01795965 -0.00262400 -0.00209039
v 0.01678800 -0.00262400 -0.00289228
v 0.01601642 -0.00262400 -0.00341054
v 0.01320269 -0.00262400 -0.00520204
v 0.00833801 -0.00262400 -0.00827696
v 0.00736419 -0.00262400 -0.00883604
v 0.00629365 -0.00262400 -0.00938083
v 0.00538798 -0.00262400 -0.00981341
v 0.00527807 -0.00262400 -0.00986238
v 0.00425809 -0.00262400 -0.01026842
v 0.00286222 -0.00262400 -0.01066426
v 0.00258744 -0.00262400 -0.01072548
v 0.00258744 0.00799123 -0.00596312
v 0.02139329 0.00799123 0.00132325
v 0.02237150 0.00519660 0.00128652
v 0.02260891 0.00390165 0.00111512
v 0.02272981 0.00232402 0.00101718
v 0.02087231 0.00232402 -0.00035602
v 0.02351898 0.00232402 0.00161911
v 0.02267046 0.00074535 0.00105187
v 0.02084373 0.00074535 -0.00033970
v 0.02156255 -0.00083332 0.00031528
v 0.02252757 -0.00241303 0.00116001
v 0.02251658 -0.00262400 0.00116817
v 0.00258744 -0.00262400 -0.00870545
v 0.02504455 -0.00262400 0.00582647
v 0.02504455 0.00799123 0.00700176
v 0.02185931 0.00799123 0.00166808
v 0.02218025 0.00624939 0.00143139
v 0.02339807 0.00390165 0.00170889
v 0.02345962 0.00074535 0.00166196
v 0.02428835 0.00390165 0.00249853
v 0.02438068 0.00232402 0.00240875
v 0.02435210 0.00074535 0.00245160
v 0.02260012 -0.00083332 0.00110492
v 0.02331674 -0.00241303 0.00177214
v 0.02262210 -0.00262400 0.00124979
v 0.02504455 -0.00262400 0.00335755
v 0.02504455 0.00799123 0.00453488
v 0.02286610 0.00799123 0.00248833
v 0.02405754 0.00548032 0.00272910
v 0.02338928 -0.00083332 0.00171705
v 0.02429495 -0.00083332 0.00250670
v 0.02422900 -0.00262400 0.00256995
v 0.02484671 0.00548032 0.00347794
v 0.02504455 0.00390165 0.00322901
v 0.02504455 0.00254954 0.00307801
v 0.02504455 0.00232402 0.00305353
v 0.02504455 0.00094905 0.00310046
v 0.02504455 0.00074535 0.00310862
v 0.02343324 -0.00262400 0.00188640
v 0.02330575 -0.00262400 0.00178030
v 0.02504455 -0.00241719 0.00334123
v 0.02501817 -0.00262400 0.00333103
v 0.02504455 0.00685425 0.00413496
v 0.02442464 0.00799123 0.00393091
v 0.02332333 0.00799123 0.00288825
v 0.02386849 0.00656325 0.00290050
v 0.02504455 -0.00083332 0.00322288
v 0.02504455 -0.00192873 0.00330450
v 0.02504455 0.00548032 0.00367178
v 0.02395642 0.00799123 0.00347590
v 0.02361350 0.00799123 0.00314943
f 1 2 34
f 1 34 47
f 1 47 35
f 1 35 3
f 1 3 4
f 1 4 5
f 1 5 6
f 1 6 7
f 1 7 8
f 1 8 9
f 1 9 10
f 1 10 11
f 1 11 12
f 1 12 13
f 1 13 14
f 1 14 15
f 1 15 16
f 1 16 17
f 1 17 18
f 1 18 19
f 1 19 20
f 1 20 21
f 1 21 22
f 1 22 23
f 1 23 24
f 1 24 25
f 1 25 2
f 2 26 27
f 2 27 28
f 2 28 29
f 2 29 30
f 2 30 31
f 2 31 32
f 2 32 33
f 2 33 34
f 2 25 26
f 3 35 49
f 3 49 61
f 3 61 78
f 3 78 84
f 3 84 85
f 3 85 79
f 3 79 62
f 3 62 50
f 3 50 36
f 3 36 14
f 3 14 13
f 3 13 12
f 3 12 11
f 3 11 10
f 3 10 9
f 3 9 8
f 3 8 7
f 3 7 6
f 3 6 5
f 3 5 4
f 14 36 37
f 14 37 38
f 14 38 16
f 14 16 15
f 16 38 39
f 16 39 40
f 16 40 17
f 17 40 18
f 18 40 39
f 18 39 19
f 19 39 41
f 19 41 42
f 19 42 43
f 19 43 20
f 20 43 44
f 20 44 45
f 20 45 46
f 20 46 21
f 21 46 59
f 21 59 74
f 21 74 73
f 21 73 66
f 21 66 76
f 21 76 60
f 21 60 48
f 21 48 47
f 21 47 34
f 21 34 33
f 21 33 32
f 21 32 31
f 21 31 30
f 21 30 29
f 21 29 28
f 21 28 27
f 21 27 26
f 21 26 25
f 21 25 24
f 21 24 23
f 21 23 22
f 35 47 48
f 35 48 49
f 36 50 51
f 36 51 37
f 37 52 38
f 37 51 52
f 38 52 39
f 39 52 41
f 41 53 42
f 41 52 54
f 41 54 55
f 41 55 56
f 41 56 53
f 42 53 57
f 42 57 43
f 43 57 44
f 44 57 45
f 45 57 64
f 45 64 58
f 45 58 59
f 45 59 46
f 48 60 75
f 48 75 82
f 48 82 81
f 48 81 72
f 48 72 71
f 48 71 70
f 48 70 69
f 48 69 68
f 48 68 83
f 48 83 77
f 48 77 61
f 48 61 49
f 50 62 52
f 50 52 51
f 52 62 63
f 52 63 54
f 53 64 57
f 53 56 65
f 53 65 66
f 53 66 64
f 54 63 67
f 54 67 68
f 54 68 55
f 55 68 69
f 55 69 70
f 55 70 71
f 55 71 72
f 55 72 56
f 56 72 65
f 58 64 73
f 58 73 74
f 58 74 59
f 60 76 75
f 61 77 78
f 62 79 80
f 62 80 63
f 63 80 67
f 64 66 73
f 65 72 66
f 66 72 81
f 66 81 82
f 66 82 76
f 67 77 83
f 67 83 68
f 67 80 77
f 75 76 82
f 77 80 84
f 77 84 78
f 79 85 80
f 80 85 84

