# https://github.com/mikedh/trimesh
v 0.01148055 -0.08341586 -0.00079244
v 0.01148055 -0.08341396 -0.00027478
v 0.01148055 -0.08338546 -0.00196967
v 0.01261454 -0.08363433 -0.00027478
v 0.01176813 -0.08347855 -0.00027478
v 0.01148055 -0.08337216 0.00076190
v 0.01421096 -0.08386610 0.00650076
v 0.01148055 -0.08335507 -0.00264952
v 0.01192009 -0.08345956 -0.00196967
v 0.01421096 -0.08390219 -0.00027478
v 0.01421096 -0.08395918 0.00141877
v 0.01321586 -0.08354124 0.00742795
v 0.01148055 -0.08304161 0.00650076
v 0.01590543 -0.08411686 0.00311231
v 0.01590543 -0.08400857 0.00480586
v 0.01546588 -0.08370652 0.00766853
v 0.01421096 -0.08368752 0.00764826
v 0.01148055 -0.08324678 -0.00457014
v 0.01421096 -0.08371032 -0.00366457
v 0.01223545 -0.08341206 -0.00366457
v 0.01148055 -0.08247169 0.00782262
v 0.01590543 -0.08401808 0.00141877
v 0.01705740 -0.08380151 0.00311231
v 0.01695772 -0.08370842 0.00480586
v 0.01598059 -0.08378441 0.00646021
v 0.01681230 -0.08356404 0.00586956
v 0.01659497 -0.08335507 0.00699950
v 0.01703779 -0.08222472 0.00762799
v 0.01598059 -0.08273385 0.00796318
v 0.01421096 -0.08265026 0.00827405
v 0.01148055 -0.08321449 -0.00513510
v 0.01284003 -0.08341966 -0.00513510
v 0.01385965 -0.08357164 -0.00513510
v 0.01413416 -0.08361154 -0.00513510
v 0.01528941 -0.08362293 -0.00513510
v 0.01148055 -0.08095570 0.00843759
v 0.01696426 -0.08370462 0.00141877
v 0.01776819 -0.08265026 0.00141877
v 0.01801166 -0.08248689 0.00306231
v 0.01845284 -0.08181248 0.00398680
v 0.01785969 -0.08248689 0.00465313
v 0.01722407 -0.08273385 0.00646021
v 0.01854598 -0.08025660 0.00744687
v 0.01760152 -0.08087401 0.00776179
v 0.01590543 -0.08095570 0.00842002
v 0.01421096 -0.08095570 0.00861330
v 0.01251650 -0.08095570 0.00854707
v 0.01148055 -0.06606558 -0.00513510
v 0.01668485 -0.08346335 -0.00098436
v 0.01684171 -0.08358304 0.00014557
v 0.01613582 -0.08295232 -0.00513510
v 0.01148055 -0.07926114 0.00858762
v 0.01818323 -0.08145913 -0.00196967
v 0.01831885 -0.08161491 -0.00027478
v 0.01840382 -0.08173650 0.00141877
v 0.01844303 -0.08179728 0.00246490
v 0.01845284 -0.08181248 0.00359483
v 0.02164078 -0.07639634 0.00480586
v 0.02021429 -0.07852594 0.00589254
v 0.01814564 -0.08135275 0.00650076
v 0.02022736 -0.07692256 0.00739416
v 0.01880905 -0.07926114 0.00755635
v 0.01871591 -0.08050736 0.00650076
v 0.02204274 -0.07538188 0.00602905
v 0.02529277 -0.07006642 0.00574251
v 0.02702155 -0.06676278 0.00575062
v 0.01590543 -0.07926114 0.00840921
v 0.01421096 -0.07926114 0.00861195
v 0.02606893 -0.06471107 0.00636830
v 0.02537284 -0.06471107 0.00652373
v 0.02024371 -0.06471107 0.00756581
v 0.01929435 -0.06471107 0.00775639
v 0.01251650 -0.07756657 0.00865925
v 0.01251650 -0.07926114 0.00864574
v 0.01148055 -0.06604468 -0.00196967
v 0.01535640 -0.06471107 0.00650076
v 0.01548385 -0.06471107 0.00402464
v 0.01572732 -0.06471107 -0.00027478
v 0.01592993 -0.06471107 -0.00195210
v 0.01654432 -0.06471107 -0.00513510
v 0.01625347 -0.08284024 -0.00513510
v 0.01700838 -0.08210504 -0.00513510
v 0.01716197 -0.08228552 -0.00366457
v 0.01733518 -0.08249449 -0.00196967
v 0.01148055 -0.07756657 0.00866736
v 0.01856231 -0.08025660 -0.00513510
v 0.01868487 -0.08042758 -0.00366457
v 0.01878291 -0.08061185 -0.00196967
v 0.01947736 -0.07926114 -0.00366457
v 0.01972736 -0.07913386 -0.00207780
v 0.01886461 -0.08076763 -0.00027478
v 0.01971102 -0.07941882 -0.00027478
v 0.02023553 -0.07857154 -0.00027478
v 0.02084665 -0.07756657 -0.00027478
v 0.02159829 -0.07631085 -0.00027478
v 0.02090057 -0.07756657 0.00141877
v 0.02211137 -0.07549967 0.00141877
v 0.02346923 -0.07323328 0.00311231
v 0.02294144 -0.07418125 0.00480586
v 0.02213915 -0.07554906 0.00480586
v 0.02753789 -0.06471107 0.00590471
v 0.02703462 -0.06471107 0.00608447
v 0.02532055 -0.07011582 0.00480586
v 0.02709508 -0.06689387 0.00480586
v 0.02482545 -0.07096310 0.00480586
v 0.02811306 -0.06471107 0.00480586
v 0.02799705 -0.06471107 0.00510321
v 0.01859663 -0.06471107 0.00787127
v 0.01759989 -0.06471107 0.00797670
v 0.01421096 -0.07756657 0.00857410
v 0.01251650 -0.07248669 0.00856599
v 0.01148055 -0.07418125 0.00864438
v 0.01148055 -0.07587391 0.00867277
v 0.01148055 -0.06609408 -0.00027478
v 0.01584007 -0.06471107 0.00769421
v 0.01148055 -0.06641133 0.00650076
v 0.01148055 -0.06649302 0.00740903
v 0.02019632 -0.06471107 -0.00513510
v 0.01774368 -0.08123686 -0.00513510
v 0.01785479 -0.08110388 -0.00513510
v 0.01917833 -0.07941502 -0.00513510
v 0.01928291 -0.07926114 -0.00513510
v 0.02008357 -0.07831127 -0.00366457
v 0.02012932 -0.07839866 -0.00271440
v 0.02018325 -0.07848415 -0.00158582
v 0.02059992 -0.07772805 -0.00207780
v 0.02208196 -0.07546357 -0.00027478
v 0.02344962 -0.07319529 0.00141877
v 0.02287935 -0.07418125 0.00141877
v 0.02396433 -0.07238600 0.00311231
v 0.02481238 -0.07092130 0.00311231
v 0.02529604 -0.07007402 0.00311231
v 0.02584670 -0.06909756 0.00311231
v 0.02661959 -0.06770695 0.00311231
v 0.02708037 -0.06685967 0.00311231
v 0.02767678 -0.06571033 0.00311231
v 0.02817189 -0.06471107 0.00311231
v 0.02815881 -0.06471107 0.00357997
v 0.01688419 -0.06471107 0.00787127
v 0.01148055 -0.06909756 0.00836325
v 0.01251650 -0.06909756 0.00839434
v 0.01251650 -0.07079212 0.00852139
v 0.01421096 -0.07079212 0.00840245
v 0.01421096 -0.07418125 0.00849030
v 0.01421096 -0.07587391 0.00853355
v 0.01148055 -0.07248669 0.00861195
v 0.01148055 -0.07352394 0.00863222
v 0.01148055 -0.06738970 0.00785911
v 0.02607383 -0.06471107 -0.00332397
v 0.02062443 -0.07418125 -0.00513510
v 0.02001331 -0.07808520 -0.00513510
v 0.02691207 -0.06654811 -0.00107086
v 0.02386465 -0.07225872 -0.00027478
v 0.02525846 -0.07001133 0.00181479
v 0.02392838 -0.07234801 0.00141877
v 0.02701338 -0.06673429 0.00141877
v 0.02733201 -0.06587371 -0.00041399
v 0.02756241 -0.06571033 0.00141877
v 0.02800359 -0.06471107 0.00033479
v 0.02810980 -0.06471107 0.00195941
v 0.01148055 -0.07013481 0.00848625
v 0.01148055 -0.07079212 0.00853490
v 0.01148055 -0.07182938 0.00859438
v 0.02637775 -0.06471107 -0.00308609
v 0.02036135 -0.07723982 -0.00513510
v 0.02059992 -0.07587391 -0.00513510
v 0.02062606 -0.07440352 -0.00513510
v 0.02007213 -0.07797502 -0.00513510
v 0.02756567 -0.06471107 -0.00188047
v 0.02768822 -0.06471107 -0.00147634
v 0.02795293 -0.06471107 -0.00032073
v 0.02695782 -0.06663360 0.00005907
v 0.02563591 -0.06901017 -0.00027478
v 0.02680586 -0.06471107 -0.00267656
f 1 2 6
f 1 6 13
f 1 13 21
f 1 21 36
f 1 36 52
f 1 52 85
f 1 85 113
f 1 113 112
f 1 112 147
f 1 147 146
f 1 146 163
f 1 163 162
f 1 162 161
f 1 161 140
f 1 140 148
f 1 148 117
f 1 117 116
f 1 116 114
f 1 114 75
f 1 75 48
f 1 48 31
f 1 31 18
f 1 18 8
f 1 8 3
f 1 3 4
f 1 4 5
f 1 5 2
f 2 5 7
f 2 7 6
f 3 8 9
f 3 9 4
f 4 10 11
f 4 11 5
f 4 9 10
f 5 11 7
f 6 7 12
f 6 12 13
f 7 11 14
f 7 14 15
f 7 15 16
f 7 16 17
f 7 17 12
f 8 18 10
f 8 10 9
f 10 19 14
f 10 14 11
f 10 18 20
f 10 20 19
f 12 17 21
f 12 21 13
f 14 19 22
f 14 22 23
f 14 23 15
f 15 23 24
f 15 24 25
f 15 25 16
f 16 25 26
f 16 26 27
f 16 27 28
f 16 28 29
f 16 29 30
f 16 30 17
f 17 30 21
f 18 31 32
f 18 32 19
f 18 19 20
f 19 33 34
f 19 34 35
f 19 35 22
f 19 32 33
f 21 30 36
f 22 35 37
f 22 37 23
f 23 37 38
f 23 38 39
f 23 39 40
f 23 40 24
f 24 40 41
f 24 41 26
f 24 26 25
f 26 41 42
f 26 42 27
f 27 42 43
f 27 43 28
f 28 43 44
f 28 44 29
f 29 44 45
f 29 45 30
f 30 45 46
f 30 46 47
f 30 47 36
f 31 48 80
f 31 80 118
f 31 118 150
f 31 150 167
f 31 167 166
f 31 166 165
f 31 165 168
f 31 168 151
f 31 151 122
f 31 122 121
f 31 121 86
f 31 86 120
f 31 120 119
f 31 119 82
f 31 82 81
f 31 81 51
f 31 51 35
f 31 35 34
f 31 34 33
f 31 33 32
f 35 49 50
f 35 50 37
f 35 51 49
f 36 47 52
f 37 50 53
f 37 53 54
f 37 54 38
f 38 54 55
f 38 55 39
f 39 55 56
f 39 56 57
f 39 57 40
f 40 57 58
f 40 58 59
f 40 59 41
f 41 59 42
f 42 59 60
f 42 60 43
f 43 61 62
f 43 62 44
f 43 60 63
f 43 63 59
f 43 59 64
f 43 64 65
f 43 65 66
f 43 66 61
f 44 62 61
f 44 61 45
f 45 67 68
f 45 68 46
f 45 61 69
f 45 69 70
f 45 70 71
f 45 71 72
f 45 72 67
f 46 68 73
f 46 73 74
f 46 74 47
f 47 74 52
f 48 75 76
f 48 76 77
f 48 77 78
f 48 78 79
f 48 79 80
f 49 51 81
f 49 81 82
f 49 82 50
f 50 82 83
f 50 83 84
f 50 84 53
f 52 74 85
f 53 84 86
f 53 86 87
f 53 87 54
f 54 87 88
f 54 88 89
f 54 89 90
f 54 90 91
f 54 91 55
f 55 91 92
f 55 92 93
f 55 93 56
f 56 93 94
f 56 94 95
f 56 95 96
f 56 96 97
f 56 97 98
f 56 98 57
f 57 98 99
f 57 99 100
f 57 100 58
f 58 100 65
f 58 65 59
f 59 65 64
f 59 63 60
f 61 66 101
f 61 101 102
f 61 102 69
f 65 103 104
f 65 104 66
f 65 100 99
f 65 99 105
f 65 105 103
f 66 104 106
f 66 106 107
f 66 107 101
f 67 72 108
f 67 108 68
f 68 108 109
f 68 109 110
f 68 110 111
f 68 111 73
f 69 102 101
f 69 101 107
f 69 107 106
f 69 106 138
f 69 138 137
f 69 137 160
f 69 160 159
f 69 159 171
f 69 171 170
f 69 170 169
f 69 169 174
f 69 174 164
f 69 164 149
f 69 149 118
f 69 118 80
f 69 80 79
f 69 79 78
f 69 78 77
f 69 77 76
f 69 76 115
f 69 115 139
f 69 139 109
f 69 109 108
f 69 108 72
f 69 72 71
f 69 71 70
f 73 111 112
f 73 112 113
f 73 113 85
f 73 85 74
f 75 114 76
f 76 114 116
f 76 116 117
f 76 117 115
f 82 119 83
f 83 119 84
f 84 119 120
f 84 120 86
f 86 121 87
f 87 121 122
f 87 122 89
f 87 89 88
f 89 122 123
f 89 123 124
f 89 124 90
f 90 124 125
f 90 125 91
f 91 125 92
f 92 125 93
f 93 125 94
f 94 125 126
f 94 126 95
f 95 126 127
f 95 127 128
f 95 128 129
f 95 129 97
f 95 97 96
f 97 129 130
f 97 130 98
f 98 130 103
f 98 103 105
f 98 105 99
f 103 130 131
f 103 131 132
f 103 132 133
f 103 133 134
f 103 134 104
f 104 134 135
f 104 135 136
f 104 136 137
f 104 137 138
f 104 138 106
f 109 139 140
f 109 140 141
f 109 141 142
f 109 142 143
f 109 143 144
f 109 144 145
f 109 145 110
f 110 145 111
f 111 146 147
f 111 147 112
f 111 145 144
f 111 144 143
f 111 143 142
f 111 142 146
f 115 117 148
f 115 148 139
f 118 149 150
f 122 151 123
f 123 126 124
f 123 151 152
f 123 152 153
f 123 153 127
f 123 127 126
f 124 126 125
f 127 153 154
f 127 154 155
f 127 155 128
f 128 155 132
f 128 132 131
f 128 131 129
f 129 131 130
f 132 155 133
f 133 155 154
f 133 154 134
f 134 156 135
f 134 154 153
f 134 153 173
f 134 173 156
f 135 156 157
f 135 157 158
f 135 158 136
f 136 158 159
f 136 159 160
f 136 160 137
f 139 148 140
f 140 161 141
f 141 161 142
f 142 161 162
f 142 162 163
f 142 163 146
f 149 164 165
f 149 165 166
f 149 166 167
f 149 167 150
f 151 168 152
f 152 169 170
f 152 170 171
f 152 171 157
f 152 157 172
f 152 172 173
f 152 173 153
f 152 168 169
f 156 173 172
f 156 172 157
f 157 171 158
f 158 171 159
f 164 174 165
f 165 174 169
f 165 169 168

