# https://github.com/mikedh/trimesh
v 0.03746583 0.03574611 0.00165737
v 0.03746583 0.03574611 -0.00300943
v 0.03723929 0.03574611 0.00255524
v 0.03746583 0.03572079 0.00163398
v 0.03746583 0.03555272 -0.00300943
v 0.02576312 0.03574611 -0.00300943
v 0.03711398 0.03500246 0.00232936
v 0.03718387 0.03574611 0.00266172
v 0.03041432 0.01222537 0.00342325
v 0.03746583 0.03564941 0.00141778
v 0.03044565 0.01222537 0.00324497
v 0.03070833 0.01222537 0.00141778
v 0.03746583 0.03554811 -0.00291262
v 0.03086498 0.01222537 -0.00027550
v 0.03082642 0.01222537 -0.00196958
v 0.03073725 0.01222768 -0.00300943
v 0.02557273 0.03551588 -0.00300943
v 0.02455091 0.03574611 -0.00207123
v 0.03668742 0.03574611 0.00358944
v 0.02966000 0.01222537 0.00464864
v 0.03589695 0.03574611 0.00501973
v 0.03577645 0.03574611 0.00523189
v 0.03746583 0.03549976 0.00041746
v 0.03746583 0.03547443 -0.00129034
v 0.03746583 0.03543069 -0.00027550
v 0.02785254 0.01222537 -0.00300943
v 0.02529317 0.03508304 -0.00300943
v 0.02515581 0.03522808 -0.00287068
v 0.02443041 0.03574611 -0.00196313
v 0.02948649 0.01222537 0.00482531
v 0.02884062 0.03574611 0.00523189
v 0.02902137 0.01222537 0.00523189
v 0.02934912 0.01222537 0.00495519
v 0.02943829 0.01222537 0.00487129
v 0.02086128 0.01222537 -0.00300943
v 0.02498711 0.03454889 -0.00300943
v 0.02257957 0.02985902 -0.00300943
v 0.02406410 0.03424959 -0.00235196
v 0.02428582 0.03574611 -0.00183164
v 0.02427618 0.03574611 -0.00015772
v 0.02050942 0.02843157 0.00523189
v 0.01291809 0.01222537 0.00523189
v 0.01868509 0.01222537 -0.00253105
v 0.01898875 0.01222768 -0.00300943
v 0.02216747 0.02903478 -0.00300943
v 0.02140111 0.03086054 -0.00151299
v 0.02313868 0.03424959 -0.00150492
v 0.02341582 0.03529946 -0.00125242
v 0.02169753 0.03198178 -0.00126049
v 0.02406892 0.03574611 -0.00043442
v 0.02005154 0.02795268 0.00523189
v 0.01990212 0.02763496 0.00523189
v 0.01667520 0.02337793 0.00068045
v 0.01284579 0.01222537 0.00480998
v 0.01689932 0.01222537 -0.00100234
v 0.01581966 0.01222537 -0.00007463
v 0.01664628 0.01900347 -0.00121289
v 0.01897188 0.01321998 -0.00300943
v 0.02196745 0.02856280 -0.00300943
v 0.01675713 0.02152914 -0.00111931
v 0.02000816 0.02861575 -0.00123790
v 0.02341582 0.03529946 -0.00090634
v 0.01667520 0.02337793 0.00038519
v 0.01844169 0.02663574 0.00054734
v 0.02011178 0.02834408 0.00444212
v 0.01844169 0.02663574 0.00058203
v 0.01305063 0.01222537 0.00323206
v 0.01640769 0.02239252 0.00001088
v 0.01438574 0.01222537 0.00136292
v 0.01427971 0.01222537 0.00148474
v 0.01665351 0.02040099 -0.00119595
v 0.01899357 0.01503654 -0.00300943
v 0.02187346 0.02831645 -0.00300943
v 0.01957437 0.02069800 -0.00300943
v 0.01743192 0.02085916 -0.00163641
v 0.01614983 0.02085916 -0.00044329
v 0.01694511 0.02239252 -0.00083616
v 0.01313739 0.01222537 0.00307395
v 0.01413511 0.01222537 0.00167754
v 0.01937434 0.01948696 -0.00300943
v 0.01930686 0.01900347 -0.00300943
v 0.01920805 0.01801577 -0.00300943
v 0.01906587 0.01654457 -0.00300943
f 1 2 6
f 1 6 18
f 1 18 29
f 1 29 39
f 1 39 50
f 1 50 40
f 1 40 31
f 1 31 22
f 1 22 21
f 1 21 19
f 1 19 8
f 1 8 3
f 1 3 4
f 1 4 10
f 1 10 23
f 1 23 25
f 1 25 24
f 1 24 13
f 1 13 5
f 1 5 2
f 2 5 16
f 2 16 26
f 2 26 35
f 2 35 44
f 2 44 58
f 2 58 72
f 2 72 83
f 2 83 82
f 2 82 81
f 2 81 80
f 2 80 74
f 2 74 73
f 2 73 59
f 2 59 45
f 2 45 37
f 2 37 36
f 2 36 27
f 2 27 17
f 2 17 6
f 3 7 4
f 3 8 9
f 3 9 7
f 4 7 9
f 4 9 11
f 4 11 12
f 4 12 10
f 5 13 14
f 5 14 15
f 5 15 16
f 6 17 18
f 8 19 9
f 9 20 30
f 9 30 34
f 9 34 33
f 9 33 32
f 9 32 42
f 9 42 54
f 9 54 67
f 9 67 78
f 9 78 79
f 9 79 70
f 9 70 69
f 9 69 56
f 9 56 55
f 9 55 43
f 9 43 35
f 9 35 26
f 9 26 15
f 9 15 14
f 9 14 12
f 9 12 11
f 9 19 21
f 9 21 22
f 9 22 20
f 10 12 14
f 10 14 23
f 13 24 14
f 14 25 23
f 14 24 25
f 15 26 16
f 17 27 28
f 17 28 18
f 18 28 29
f 20 22 30
f 22 31 41
f 22 41 51
f 22 51 52
f 22 52 42
f 22 42 32
f 22 32 33
f 22 33 34
f 22 34 30
f 27 36 28
f 28 36 37
f 28 37 38
f 28 38 29
f 29 38 39
f 31 40 41
f 35 43 44
f 37 45 46
f 37 46 38
f 38 47 48
f 38 48 39
f 38 46 49
f 38 49 47
f 39 48 50
f 40 50 41
f 41 50 51
f 42 52 53
f 42 53 54
f 43 55 44
f 44 55 56
f 44 56 57
f 44 57 58
f 45 59 60
f 45 60 61
f 45 61 46
f 46 61 49
f 47 49 48
f 48 62 50
f 48 49 63
f 48 63 64
f 48 64 66
f 48 66 62
f 49 61 63
f 50 62 51
f 51 65 53
f 51 53 52
f 51 62 65
f 53 66 64
f 53 64 63
f 53 63 54
f 53 65 66
f 54 63 68
f 54 68 67
f 56 69 57
f 57 69 70
f 57 70 71
f 57 71 72
f 57 72 58
f 59 73 60
f 60 74 75
f 60 75 71
f 60 71 76
f 60 76 68
f 60 68 77
f 60 77 61
f 60 73 74
f 61 77 68
f 61 68 63
f 62 66 65
f 67 68 76
f 67 76 78
f 70 79 71
f 71 75 74
f 71 74 80
f 71 80 81
f 71 81 82
f 71 82 83
f 71 83 72
f 71 79 78
f 71 78 76

