# https://github.com/mikedh/trimesh
v 0.03746583 0.06769129 0.01092893
v 0.03746583 0.06643779 0.01089209
v 0.03879164 0.06891930 0.01073928
v 0.03879164 0.06900854 0.01073928
v 0.03746583 0.06822244 0.01091256
v 0.03746583 0.06621258 0.01088391
v 0.03946330 0.06826493 0.01056601
v 0.04131818 0.06982863 0.01023311
v 0.03746583 0.06475936 0.01081296
v 0.03830385 0.06474662 0.01063696
v 0.03962465 0.06643779 0.01044322
v 0.03962465 0.07829723 0.01031633
v 0.03746583 0.06904253 0.01086890
v 0.03962465 0.06474662 0.01035999
v 0.04131818 0.06813321 0.01014442
v 0.04301296 0.07151980 0.00973648
v 0.04301296 0.07321522 0.00970782
v 0.04131818 0.07491064 0.01008712
v 0.03746583 0.06117731 0.01063696
v 0.03792987 0.05966036 0.01046505
v 0.04131818 0.07660606 0.00997524
v 0.03962465 0.07884113 0.01025766
v 0.03847020 0.07884113 0.01013351
v 0.03792987 0.07829723 0.01013351
v 0.03792987 0.07660606 0.01027813
v 0.03746583 0.07618964 0.01012805
v 0.03792987 0.05796919 0.01038046
v 0.03962465 0.06305120 0.01026449
v 0.03792987 0.05627801 0.01025903
v 0.03962465 0.06135578 0.01011986
v 0.04131818 0.06643779 0.00996842
v 0.04274405 0.06813321 0.00949089
v 0.04408236 0.07151980 0.00922484
v 0.04407861 0.07321522 0.00921120
v 0.04310552 0.07486815 0.00942676
v 0.03746583 0.05904847 0.01053190
v 0.04131818 0.07829723 0.00970646
v 0.04134444 0.07884113 0.00959185
v 0.03788359 0.07884113 0.00997524
v 0.03746583 0.07771084 0.00995205
v 0.03746583 0.05796919 0.01047733
v 0.03746583 0.05745079 0.01044868
v 0.03746583 0.05587859 0.01033953
v 0.03746583 0.05411943 0.01015943
v 0.03792987 0.05458259 0.01005574
v 0.03962465 0.05966036 0.00989884
v 0.03937700 0.05627801 0.00954274
v 0.04094295 0.06135578 0.00945542
v 0.04250891 0.06643779 0.00935582
v 0.04392727 0.07044901 0.00910750
v 0.04492913 0.07151980 0.00845534
v 0.04858385 0.07321522 0.00533230
v 0.04773709 0.07321522 0.00608270
v 0.04592348 0.07321522 0.00767356
v 0.04492663 0.07321522 0.00852083
v 0.04765079 0.07491064 0.00597356
v 0.04392351 0.07427326 0.00909113
v 0.04231128 0.07884113 0.00912933
v 0.04267776 0.07660606 0.00934217
v 0.04178597 0.07884113 0.00938583
v 0.03746583 0.07884113 0.00966417
v 0.03746583 0.05096230 0.00959049
v 0.03912935 0.05458259 0.00938583
v 0.04070281 0.05966036 0.00927532
v 0.04582717 0.07151980 0.00760943
v 0.04940310 0.07321522 0.00448503
v 0.04849755 0.07491064 0.00514129
v 0.04667519 0.07151980 0.00678808
v 0.04754197 0.07151980 0.00594081
v 0.04838873 0.07151980 0.00511264
v 0.04738937 0.07660606 0.00576617
v 0.04428999 0.07884113 0.00768993
v 0.04541693 0.07700973 0.00723969
v 0.04573837 0.07491064 0.00749482
v 0.04457516 0.07486815 0.00842941
v 0.04352077 0.07884113 0.00826705
v 0.04312553 0.07884113 0.00856312
v 0.03746583 0.07884113 0.00873094
v 0.03746583 0.04991275 0.00937901
v 0.04054646 0.05855132 0.00912388
v 0.03746583 0.04959831 0.00929442
v 0.03892672 0.05338008 0.00920437
v 0.04918922 0.07151980 0.00426537
v 0.05002598 0.07321522 0.00311248
v 0.04923800 0.07491064 0.00429539
v 0.04725429 0.07746439 0.00565975
v 0.04609484 0.07884113 0.00602949
v 0.03747209 0.07884113 0.00869547
v 0.03746583 0.07881563 0.00870774
v 0.03746583 0.04850628 0.00892604
v 0.04392101 0.05528370 0.00403206
v 0.04902537 0.07038527 0.00406481
v 0.04969203 0.07151980 0.00311248
v 0.05020860 0.07321522 0.00141930
v 0.05004850 0.07491064 -0.00027524
v 0.04986338 0.07491064 0.00141930
v 0.04965576 0.07491064 0.00311248
v 0.05006726 0.07151980 0.00141930
v 0.04896909 0.07579872 0.00400887
v 0.04666644 0.07884113 0.00480566
v 0.04458141 0.07884113 -0.00300943
v 0.03746583 0.05544093 -0.00300943
v 0.03746583 0.04754596 0.00849763
v 0.03746583 0.04621597 0.00782773
v 0.03746583 0.04515792 0.00728744
v 0.03746583 0.04186482 0.00553559
v 0.03746583 0.03856746 0.00378102
v 0.04388349 0.05197785 0.00230478
v 0.04432251 0.05466333 0.00315205
v 0.04564957 0.05681766 0.00241529
v 0.04884151 0.06925499 0.00371962
v 0.04920799 0.06982438 0.00313840
v 0.04904163 0.06863461 0.00258993
v 0.04970203 0.06982863 0.00141930
v 0.05024236 0.07321522 -0.00027524
v 0.05021485 0.07151980 -0.00027524
v 0.05000722 0.07491064 -0.00196978
v 0.04950066 0.07660606 -0.00196978
v 0.04906790 0.07775759 -0.00084555
v 0.05005225 0.06982863 -0.00027524
v 0.04834246 0.07884113 -0.00023840
v 0.04825240 0.07884113 -0.00300943
v 0.03746583 0.03555479 -0.00300943
v 0.03746583 0.03753491 0.00320526
v 0.03746583 0.03731395 0.00307291
v 0.03746583 0.03629840 0.00236754
v 0.03746583 0.03572476 0.00163487
v 0.03746583 0.03565253 0.00141930
v 0.03746583 0.03550380 0.00041786
v 0.04390851 0.05191411 0.00141930
v 0.04542193 0.05577661 0.00141930
v 0.04573212 0.05662645 0.00141930
v 0.04725179 0.06049744 0.00058977
v 0.04710295 0.06101159 0.00171946
v 0.04726430 0.06214187 0.00230341
v 0.04887903 0.06750433 0.00203054
v 0.04920298 0.06809497 0.00144659
v 0.04966827 0.06813321 -0.00027524
v 0.05015856 0.07321522 -0.00196978
v 0.05017482 0.06982863 -0.00196978
v 0.05017857 0.07151980 -0.00196978
v 0.04977958 0.07491064 -0.00300943
v 0.04997720 0.07321522 -0.00300943
v 0.04925676 0.07655932 -0.00300943
v 0.04899786 0.07720944 -0.00300943
v 0.04894407 0.07746014 -0.00282660
v 0.04867391 0.07853518 -0.00196978
v 0.04854133 0.07884113 -0.00196978
v 0.04840875 0.07884113 -0.00080734
v 0.04998346 0.06813321 -0.00196978
v 0.04880524 0.07764286 -0.00300943
v 0.03762093 0.03594572 -0.00300943
v 0.03746583 0.03550805 -0.00196978
v 0.03746583 0.03543582 -0.00027524
v 0.03766846 0.03594572 -0.00027524
v 0.03833636 0.03764114 -0.00027524
v 0.03905680 0.03947253 -0.00027524
v 0.04023627 0.04247670 -0.00027524
v 0.04630622 0.05796919 -0.00027524
v 0.04694411 0.05961787 -0.00027524
v 0.04736061 0.06148750 0.00125967
v 0.04829743 0.06305120 -0.00196978
v 0.04878648 0.06434295 -0.00196978
v 0.04908541 0.06518853 -0.00196978
v 0.04951567 0.06643779 -0.00196978
v 0.04901537 0.06535000 -0.00084145
v 0.04918047 0.06642504 -0.00027524
v 0.04872519 0.06642504 0.00144659
v 0.05003974 0.06982863 -0.00300943
v 0.05001848 0.07151980 -0.00300943
v 0.04985588 0.06813321 -0.00300943
v 0.04054771 0.04337752 -0.00300943
v 0.03746583 0.03547831 -0.00129033
v 0.04079536 0.04400640 -0.00300943
v 0.04055647 0.04335627 -0.00196978
v 0.04726055 0.06047619 -0.00290710
v 0.04906164 0.06528201 -0.00300943
v 0.04967452 0.06747883 -0.00300943
v 0.04239258 0.04807711 -0.00300943
v 0.04554450 0.05611229 -0.00300943
v 0.04720677 0.06036997 -0.00300943
f 1 2 3
f 1 3 4
f 1 4 5
f 1 5 13
f 1 13 26
f 1 26 40
f 1 40 61
f 1 61 78
f 1 78 89
f 1 89 102
f 1 102 123
f 1 123 153
f 1 153 173
f 1 173 154
f 1 154 129
f 1 129 128
f 1 128 127
f 1 127 126
f 1 126 125
f 1 125 124
f 1 124 107
f 1 107 106
f 1 106 105
f 1 105 104
f 1 104 103
f 1 103 90
f 1 90 81
f 1 81 79
f 1 79 62
f 1 62 44
f 1 44 43
f 1 43 42
f 1 42 41
f 1 41 36
f 1 36 19
f 1 19 9
f 1 9 6
f 1 6 2
f 2 6 3
f 3 7 8
f 3 8 4
f 3 6 9
f 3 9 10
f 3 10 11
f 3 11 7
f 4 8 12
f 4 12 5
f 5 12 13
f 7 11 8
f 8 11 14
f 8 14 15
f 8 15 16
f 8 16 17
f 8 17 18
f 8 18 12
f 9 19 10
f 10 14 11
f 10 19 20
f 10 20 14
f 12 18 21
f 12 21 22
f 12 22 23
f 12 23 24
f 12 24 25
f 12 25 13
f 13 25 24
f 13 24 26
f 14 20 27
f 14 27 28
f 14 28 15
f 15 28 29
f 15 29 30
f 15 30 31
f 15 31 16
f 16 31 32
f 16 32 33
f 16 33 34
f 16 34 17
f 17 34 35
f 17 35 21
f 17 21 18
f 19 36 20
f 20 36 27
f 21 35 37
f 21 37 22
f 22 37 38
f 22 38 60
f 22 60 58
f 22 58 77
f 22 77 76
f 22 76 72
f 22 72 87
f 22 87 100
f 22 100 121
f 22 121 149
f 22 149 148
f 22 148 122
f 22 122 101
f 22 101 88
f 22 88 78
f 22 78 61
f 22 61 39
f 22 39 23
f 23 39 24
f 24 40 26
f 24 39 40
f 27 41 42
f 27 42 43
f 27 43 29
f 27 29 28
f 27 36 41
f 29 43 44
f 29 44 45
f 29 45 30
f 30 45 31
f 31 45 46
f 31 46 32
f 32 46 45
f 32 45 47
f 32 47 48
f 32 48 49
f 32 49 33
f 33 49 50
f 33 50 51
f 33 51 52
f 33 52 53
f 33 53 54
f 33 54 55
f 33 55 34
f 34 55 56
f 34 56 57
f 34 57 58
f 34 58 59
f 34 59 35
f 35 59 37
f 37 60 38
f 37 59 60
f 39 61 40
f 44 62 45
f 45 62 63
f 45 63 47
f 47 63 48
f 48 63 49
f 49 63 64
f 49 64 50
f 50 64 51
f 51 65 52
f 51 64 65
f 52 66 67
f 52 67 56
f 52 56 53
f 52 65 68
f 52 68 69
f 52 69 70
f 52 70 66
f 53 56 54
f 54 56 55
f 56 67 71
f 56 71 72
f 56 72 73
f 56 73 74
f 56 74 57
f 57 74 75
f 57 75 72
f 57 72 76
f 57 76 77
f 57 77 58
f 58 60 59
f 62 79 63
f 63 80 64
f 63 79 81
f 63 81 82
f 63 82 83
f 63 83 70
f 63 70 80
f 64 80 65
f 65 80 68
f 66 84 85
f 66 85 67
f 66 70 83
f 66 83 84
f 67 85 86
f 67 86 71
f 68 80 69
f 69 80 70
f 71 86 72
f 72 86 87
f 72 75 74
f 72 74 73
f 78 88 89
f 81 90 82
f 82 90 91
f 82 91 92
f 82 92 83
f 83 92 93
f 83 93 84
f 84 94 95
f 84 95 96
f 84 96 97
f 84 97 85
f 84 93 98
f 84 98 94
f 85 97 99
f 85 99 86
f 86 100 87
f 86 99 100
f 88 101 102
f 88 102 89
f 90 103 91
f 91 103 104
f 91 104 105
f 91 105 106
f 91 106 107
f 91 107 108
f 91 108 109
f 91 109 110
f 91 110 92
f 92 111 93
f 92 110 111
f 93 111 112
f 93 112 113
f 93 113 114
f 93 114 98
f 94 115 95
f 94 98 116
f 94 116 115
f 95 115 117
f 95 117 118
f 95 118 119
f 95 119 96
f 96 119 97
f 97 119 99
f 98 114 120
f 98 120 116
f 99 119 121
f 99 121 100
f 101 122 151
f 101 151 145
f 101 145 144
f 101 144 142
f 101 142 143
f 101 143 170
f 101 170 169
f 101 169 171
f 101 171 178
f 101 178 177
f 101 177 181
f 101 181 180
f 101 180 179
f 101 179 174
f 101 174 172
f 101 172 152
f 101 152 123
f 101 123 102
f 107 124 108
f 108 124 125
f 108 125 126
f 108 126 127
f 108 127 128
f 108 128 129
f 108 129 130
f 108 130 131
f 108 131 110
f 108 110 109
f 110 131 132
f 110 132 133
f 110 133 134
f 110 134 135
f 110 135 111
f 111 135 112
f 112 135 113
f 113 136 114
f 113 135 136
f 114 136 137
f 114 137 138
f 114 138 120
f 115 139 117
f 115 116 140
f 115 140 141
f 115 141 139
f 116 120 140
f 117 142 118
f 117 139 143
f 117 143 142
f 118 142 144
f 118 144 145
f 118 145 146
f 118 146 147
f 118 147 119
f 119 147 148
f 119 148 149
f 119 149 121
f 120 138 150
f 120 150 140
f 122 148 146
f 122 146 151
f 123 152 153
f 129 154 155
f 129 155 130
f 130 155 156
f 130 156 157
f 130 157 158
f 130 158 131
f 131 159 160
f 131 160 133
f 131 133 132
f 131 158 159
f 133 161 134
f 133 160 162
f 133 162 163
f 133 163 164
f 133 164 165
f 133 165 166
f 133 166 167
f 133 167 161
f 134 161 167
f 134 167 168
f 134 168 136
f 134 136 135
f 136 168 137
f 137 168 167
f 137 167 138
f 138 167 166
f 138 166 150
f 139 141 169
f 139 169 170
f 139 170 143
f 140 169 141
f 140 150 171
f 140 171 169
f 145 151 146
f 146 148 147
f 150 166 165
f 150 165 171
f 152 172 156
f 152 156 155
f 152 155 153
f 153 155 173
f 154 173 155
f 156 172 174
f 156 174 157
f 157 174 175
f 157 175 162
f 157 162 158
f 158 162 159
f 159 162 160
f 162 175 174
f 162 174 176
f 162 176 163
f 163 177 164
f 163 176 177
f 164 177 165
f 165 178 171
f 165 177 178
f 174 179 176
f 176 179 180
f 176 180 181
f 176 181 177

