# https://github.com/mikedh/trimesh
v -0.07057526 0.05967743 0.00650044
v -0.07057350 0.05967743 0.00651644
v -0.07042734 0.05967743 0.00482213
v -0.07048546 0.05796945 0.00480613
v -0.07043263 0.05627343 0.00480613
v -0.07043439 0.05967743 0.00737426
v -0.07004523 0.05458041 0.00650044
v -0.06991492 0.05455349 0.00737426
v -0.07042382 0.05967743 0.00480613
v -0.07042558 0.05966247 0.00480613
v -0.07023892 0.05627343 0.00311242
v -0.07010157 0.05458041 0.00311242
v -0.07024069 0.05458041 0.00480613
v -0.06622053 0.05967743 0.00737426
v -0.06975115 0.05341085 0.00737426
v -0.06990612 0.05967743 0.00347379
v -0.06999592 0.05793654 0.00301882
v -0.06979694 0.05627343 0.00204311
v -0.06977052 0.05458041 0.00210176
v -0.06965959 0.05372193 0.00225756
v -0.06977757 0.05353648 0.00311242
v -0.06988322 0.05331214 0.00480613
v -0.06981455 0.05330017 0.00650044
v -0.06282901 0.05967145 0.00132214
v -0.06348759 0.05967743 0.00179844
v -0.06014186 0.05302797 0.00737426
v -0.06968600 0.05310275 0.00737426
v -0.06882843 0.05967743 0.00132214
v -0.06969656 0.05735027 0.00217996
v -0.06931797 0.05627343 0.00132214
v -0.06926338 0.05793654 0.00153659
v -0.06914540 0.05793953 0.00132214
v -0.06908729 0.05458041 0.00132214
v -0.06838117 0.05290533 0.00132214
v -0.06747253 0.05137982 0.00132214
v -0.06731581 0.05111958 0.00132214
v -0.06652692 0.04996497 0.00132214
v -0.06655510 0.04992310 0.00141870
v -0.05814675 0.03779375 0.00132214
v -0.05786325 0.03670196 0.00214619
v -0.06280436 0.04367447 0.00240448
v -0.06245042 0.04271429 0.00302652
v -0.06307378 0.04327065 0.00353422
v -0.06457408 0.04525681 0.00394950
v -0.06794798 0.05036281 0.00406739
v -0.06939017 0.05246563 0.00480613
v -0.06882139 0.05119137 0.00737426
v -0.06947821 0.05245366 0.00650044
v -0.05258755 0.04355781 0.00531620
v -0.05258755 0.04343816 0.00438019
v -0.05258755 0.04339030 0.00401289
v -0.05258755 0.04319587 0.00311242
v -0.05258755 0.04278907 0.00132214
v -0.06366720 0.05967743 0.00132214
v -0.05940404 0.05218146 0.00737426
v -0.05258755 0.04319886 0.00662722
v -0.05258755 0.04354584 0.00581561
v -0.06951343 0.05266903 0.00737426
v -0.05679613 0.03584647 0.00132214
v -0.05563393 0.03423122 0.00132214
v -0.05302426 0.03061485 0.00132214
v -0.05258755 0.03002259 0.00132214
v -0.05739308 0.03564606 0.00311242
v -0.05959774 0.03834712 0.00366929
v -0.06095364 0.04051575 0.00311242
v -0.06155235 0.04136226 0.00311242
v -0.06263531 0.04222672 0.00480613
v -0.06321465 0.04307323 0.00480613
v -0.06406165 0.04434150 0.00480613
v -0.06461986 0.04518502 0.00480613
v -0.06602506 0.04732074 0.00480613
v -0.06752888 0.04962398 0.00470128
v -0.06845512 0.05103283 0.00470128
v -0.06874567 0.05119137 0.00650044
v -0.06811879 0.05009958 0.00737426
v -0.05258755 0.04277411 0.00737426
v -0.05258755 0.02977133 0.00191811
v -0.05654608 0.03452137 0.00311242
v -0.06116319 0.04020765 0.00480613
v -0.06178832 0.04105716 0.00480613
v -0.05446820 0.03163186 0.00370543
v -0.06267405 0.04215792 0.00650044
v -0.06327628 0.04300443 0.00650044
v -0.06412328 0.04422185 0.00650044
v -0.06470438 0.04506837 0.00650044
v -0.06539994 0.04610931 0.00650044
v -0.06611311 0.04718614 0.00650044
v -0.06807477 0.05016838 0.00650044
v -0.06783176 0.04966286 0.00737426
v -0.05258755 0.02962476 0.00737426
v -0.05258755 0.02959784 0.00243588
v -0.05276717 0.02994781 0.00208043
v -0.05433086 0.03181133 0.00257628
v -0.05495598 0.03244846 0.00312960
v -0.06119665 0.04016578 0.00693350
v -0.06170555 0.04086273 0.00642165
v -0.05966465 0.03826038 0.00480613
v -0.05383076 0.03098576 0.00312960
v -0.05258755 0.02937649 0.00311242
v -0.05258755 0.02912224 0.00480613
v -0.05300489 0.02964869 0.00480613
v -0.05385189 0.03072552 0.00480613
v -0.05451223 0.03157503 0.00480613
v -0.05601253 0.03351931 0.00480613
v -0.06119665 0.04016578 0.00737426
v -0.06371827 0.04359669 0.00737426
v -0.06473432 0.04502948 0.00737426
v -0.06513228 0.04560379 0.00737426
v -0.06580847 0.04660286 0.00737426
v -0.06671534 0.04796984 0.00737426
v -0.06715205 0.04863090 0.00737426
v -0.06756234 0.04925307 0.00737426
v -0.05281295 0.02989696 0.00737426
v -0.05258755 0.02957391 0.00719653
v -0.05258755 0.02937649 0.00650044
v -0.05448582 0.03160793 0.00607450
v -0.05387302 0.03097080 0.00658338
v -0.05437840 0.03174553 0.00720364
v -0.05435903 0.03176945 0.00737426
v -0.05258755 0.02948417 0.00688077
v -0.05291332 0.02977133 0.00650044
f 1 2 6
f 1 6 14
f 1 14 25
f 1 25 54
f 1 54 28
f 1 28 16
f 1 16 9
f 1 9 3
f 1 3 4
f 1 4 5
f 1 5 2
f 2 5 7
f 2 7 8
f 2 8 6
f 3 9 10
f 3 10 4
f 4 10 11
f 4 11 5
f 5 11 12
f 5 12 13
f 5 13 7
f 6 8 15
f 6 15 27
f 6 27 58
f 6 58 47
f 6 47 75
f 6 75 89
f 6 89 112
f 6 112 111
f 6 111 110
f 6 110 109
f 6 109 108
f 6 108 107
f 6 107 106
f 6 106 105
f 6 105 119
f 6 119 113
f 6 113 90
f 6 90 76
f 6 76 55
f 6 55 26
f 6 26 14
f 7 13 15
f 7 15 8
f 9 16 17
f 9 17 11
f 9 11 10
f 11 17 18
f 11 18 19
f 11 19 12
f 12 19 20
f 12 20 21
f 12 21 22
f 12 22 13
f 13 22 23
f 13 23 15
f 14 24 25
f 14 26 24
f 15 23 27
f 16 28 29
f 16 29 17
f 17 29 18
f 18 30 19
f 18 29 31
f 18 31 32
f 18 32 30
f 19 30 33
f 19 33 20
f 20 33 34
f 20 34 35
f 20 35 36
f 20 36 37
f 20 37 38
f 20 38 39
f 20 39 40
f 20 40 41
f 20 41 42
f 20 42 43
f 20 43 44
f 20 44 21
f 21 44 45
f 21 45 46
f 21 46 22
f 22 46 47
f 22 47 48
f 22 48 23
f 23 48 27
f 24 49 50
f 24 50 51
f 24 51 52
f 24 52 53
f 24 53 62
f 24 62 61
f 24 61 60
f 24 60 59
f 24 59 39
f 24 39 37
f 24 37 36
f 24 36 35
f 24 35 34
f 24 34 33
f 24 33 30
f 24 30 32
f 24 32 28
f 24 28 54
f 24 54 25
f 24 26 55
f 24 55 56
f 24 56 57
f 24 57 49
f 27 48 58
f 28 32 31
f 28 31 29
f 37 39 38
f 39 59 40
f 40 59 60
f 40 60 61
f 40 61 62
f 40 62 63
f 40 63 64
f 40 64 65
f 40 65 43
f 40 43 66
f 40 66 42
f 40 42 41
f 42 66 43
f 43 65 64
f 43 64 67
f 43 67 44
f 44 67 68
f 44 68 69
f 44 69 70
f 44 70 45
f 45 71 72
f 45 72 73
f 45 73 46
f 45 70 71
f 46 73 74
f 46 74 47
f 47 74 75
f 47 58 48
f 49 57 56
f 49 56 76
f 49 76 90
f 49 90 114
f 49 114 120
f 49 120 115
f 49 115 100
f 49 100 99
f 49 99 91
f 49 91 77
f 49 77 62
f 49 62 53
f 49 53 52
f 49 52 51
f 49 51 50
f 55 76 56
f 62 77 78
f 62 78 63
f 63 78 64
f 64 79 80
f 64 80 67
f 64 78 81
f 64 81 79
f 67 80 82
f 67 82 83
f 67 83 84
f 67 84 85
f 67 85 68
f 68 85 86
f 68 86 69
f 69 86 87
f 69 87 70
f 70 87 71
f 71 87 88
f 71 88 72
f 72 88 73
f 73 88 74
f 74 88 75
f 75 88 89
f 77 91 92
f 77 92 93
f 77 93 78
f 78 93 94
f 78 94 81
f 79 95 96
f 79 96 82
f 79 82 80
f 79 81 97
f 79 97 95
f 81 94 98
f 81 98 99
f 81 99 100
f 81 100 101
f 81 101 102
f 81 102 103
f 81 103 104
f 81 104 97
f 82 96 95
f 82 95 105
f 82 105 106
f 82 106 83
f 83 106 107
f 83 107 84
f 84 107 108
f 84 108 85
f 85 108 109
f 85 109 86
f 86 109 110
f 86 110 87
f 87 110 111
f 87 111 112
f 87 112 88
f 88 112 89
f 90 113 114
f 91 99 93
f 91 93 92
f 93 99 98
f 93 98 94
f 95 97 104
f 95 104 103
f 95 103 102
f 95 102 105
f 100 115 116
f 100 116 105
f 100 105 101
f 101 105 102
f 105 116 117
f 105 117 118
f 105 118 119
f 113 120 114
f 113 119 120
f 115 121 116
f 115 120 119
f 115 119 121
f 116 121 117
f 117 121 118
f 118 121 119

