# https://github.com/mikedh/trimesh
v 0.06469704 -0.02337758 -0.02668246
v 0.06469704 -0.02260096 -0.02639575
v 0.06495745 -0.01349643 -0.02669065
v 0.06496076 -0.01440486 -0.02669065
v 0.06497660 -0.01469224 -0.02669065
v 0.06505432 -0.01511736 -0.02669065
v 0.06507752 -0.01516011 -0.02669065
v 0.06573204 -0.01551873 -0.02669065
v 0.06584070 -0.01553180 -0.02669065
v 0.06610589 -0.01542255 -0.02669065
v 0.06654863 -0.01520405 -0.02669065
v 0.06726944 -0.01400705 -0.02669065
v 0.06570257 -0.02337758 -0.02636708
v 0.06469704 -0.02337758 0.01515203
v 0.06469704 -0.01609704 -0.02396285
v 0.06498286 -0.01331474 -0.02669065
v 0.06469704 -0.01548192 -0.02372939
v 0.06469704 -0.01541423 -0.02370072
v 0.06469704 -0.01429918 -0.02319693
v 0.06469704 -0.01382655 -0.02288156
v 0.06469704 -0.01358193 -0.02239825
v 0.06469704 -0.01349524 -0.02220165
v 0.06469704 -0.01124612 -0.01701637
v 0.06736926 -0.01331474 -0.02669065
v 0.06845988 -0.02337758 -0.02549877
v 0.06845988 -0.02337758 0.01515203
v 0.06469704 -0.01124612 0.01515203
v 0.06510220 -0.01246449 -0.02669065
v 0.06527347 -0.01124612 -0.02669065
v 0.06739504 -0.01313187 -0.02669065
v 0.06754017 -0.01209993 -0.02669065
v 0.06765950 -0.01125087 -0.02669065
v 0.06845988 -0.02327664 -0.02546191
v 0.06845988 -0.01216762 0.01515203
v 0.06624402 -0.01124612 0.01515203
v 0.06723445 -0.01124612 -0.02669065
v 0.06765987 -0.01124612 -0.02651043
v 0.06845988 -0.01124612 -0.01341207
v 0.06845988 -0.01453786 -0.02099339
v 0.06845988 -0.01489055 -0.02179617
v 0.06845988 -0.01504136 -0.02197229
v 0.06845988 -0.01519098 -0.02212384
v 0.06845988 -0.01536792 -0.02227538
v 0.06845988 -0.01600561 -0.02269315
v 0.06845988 -0.01618017 -0.02280374
v 0.06845988 -0.01926647 -0.02396285
v 0.06845988 -0.01124612 0.01302631
v 0.06778400 -0.01127344 0.01373898
v 0.06827167 -0.01208925 0.01515203
f 1 2 3
f 1 3 4
f 1 4 5
f 1 5 6
f 1 6 7
f 1 7 8
f 1 8 9
f 1 9 10
f 1 10 11
f 1 11 12
f 1 12 13
f 1 13 25
f 1 25 26
f 1 26 14
f 1 14 27
f 1 27 23
f 1 23 22
f 1 22 21
f 1 21 20
f 1 20 19
f 1 19 18
f 1 18 17
f 1 17 15
f 1 15 2
f 2 15 3
f 3 16 28
f 3 28 29
f 3 29 36
f 3 36 32
f 3 32 31
f 3 31 30
f 3 30 24
f 3 24 12
f 3 12 11
f 3 11 10
f 3 10 9
f 3 9 8
f 3 8 7
f 3 7 6
f 3 6 5
f 3 5 4
f 3 15 17
f 3 17 18
f 3 18 19
f 3 19 20
f 3 20 21
f 3 21 22
f 3 22 23
f 3 23 16
f 12 24 25
f 12 25 13
f 14 26 34
f 14 34 49
f 14 49 35
f 14 35 27
f 16 23 28
f 23 29 28
f 23 27 35
f 23 35 47
f 23 47 38
f 23 38 37
f 23 37 36
f 23 36 29
f 24 30 25
f 25 30 31
f 25 31 32
f 25 32 33
f 25 33 46
f 25 46 45
f 25 45 44
f 25 44 43
f 25 43 42
f 25 42 41
f 25 41 40
f 25 40 39
f 25 39 38
f 25 38 47
f 25 47 34
f 25 34 26
f 32 36 37
f 32 37 38
f 32 38 39
f 32 39 40
f 32 40 41
f 32 41 42
f 32 42 43
f 32 43 44
f 32 44 45
f 32 45 46
f 32 46 33
f 34 47 48
f 34 48 49
f 35 49 48
f 35 48 47

