# https://github.com/mikedh/trimesh
v 0.06717615 -0.01070213 0.02118892
v 0.06741305 -0.01070213 0.02126812
v 0.06675245 -0.01070213 0.02119700
v 0.06814989 -0.00561142 0.01519387
v 0.06833151 -0.00561142 0.01523751
v 0.06750204 -0.01070213 0.02151219
v 0.06615442 -0.01070213 0.02140389
v 0.06613711 -0.00977727 0.02036620
v 0.06675245 -0.01037973 0.02084140
v 0.06675245 -0.00986398 0.02027568
v 0.06613225 -0.00877318 0.01930587
v 0.06614531 -0.00774966 0.01826979
v 0.06620666 -0.00562736 0.01617176
v 0.06620666 -0.00561142 0.01616368
v 0.06842810 -0.00561142 0.01644008
v 0.06830205 -0.00660953 0.01734685
v 0.06770250 -0.01070213 0.02248038
v 0.06762110 -0.01070213 0.02202134
v 0.06582215 -0.01070213 0.02199548
v 0.06598980 -0.01015948 0.02104668
v 0.06599406 -0.00914442 0.01998635
v 0.06559345 -0.01021728 0.02199548
v 0.06567484 -0.00918528 0.02096425
v 0.06589838 -0.00712179 0.01890016
v 0.06602716 -0.00608979 0.01786893
v 0.06615321 -0.00561142 0.01686194
v 0.06541759 -0.01021728 0.02302833
v 0.06845057 -0.00561142 0.01739049
v 0.06830448 -0.00662846 0.01786893
v 0.06773621 -0.01070213 0.02351162
v 0.06772164 -0.01070213 0.02302833
v 0.06548988 -0.01070213 0.02302833
v 0.06608092 -0.00561142 0.01786893
v 0.06585283 -0.00712179 0.01993140
v 0.06556247 -0.00918528 0.02405794
v 0.06606482 -0.00561142 0.02144269
v 0.06606513 -0.00561142 0.01890016
v 0.06534955 -0.01070213 0.02405794
v 0.06534925 -0.01070213 0.02612203
v 0.06845148 -0.00561142 0.01842172
v 0.06830600 -0.00664640 0.01890016
v 0.06780455 -0.01021728 0.02302833
v 0.06773652 -0.01070213 0.02405794
v 0.06599800 -0.00608979 0.01890016
v 0.06556247 -0.00918528 0.02921896
v 0.06606482 -0.00561142 0.02612203
v 0.06534955 -0.01070213 0.02921896
v 0.06541759 -0.01021728 0.02921896
v 0.06845179 -0.00561142 0.01945457
v 0.06838436 -0.00608979 0.01890016
v 0.06809461 -0.00815379 0.02199548
v 0.06830630 -0.00664840 0.02302833
v 0.06830630 -0.00664889 0.02612203
v 0.06773652 -0.01070213 0.03025019
v 0.06536596 -0.01070213 0.03025019
v 0.06570764 -0.00815379 0.02921896
v 0.06585252 -0.00712179 0.02818611
v 0.06599770 -0.00608979 0.02715488
v 0.06607485 -0.00561142 0.02711932
v 0.06838466 -0.00608979 0.02096425
v 0.06845209 -0.00561142 0.02612203
v 0.06830630 -0.00664889 0.02818611
v 0.06780455 -0.01021728 0.03025019
v 0.06763447 -0.01070213 0.03080945
v 0.06574774 -0.01070213 0.03121515
v 0.06562382 -0.00918528 0.03025019
v 0.06599163 -0.00703409 0.02929977
v 0.06614531 -0.00561142 0.02801962
v 0.06845179 -0.00561142 0.02667643
v 0.06830418 -0.00663444 0.02871304
v 0.06788261 -0.00918528 0.03025019
v 0.06750052 -0.01070213 0.03126849
v 0.06675245 -0.01070213 0.03170652
v 0.06596065 -0.00918528 0.03101634
v 0.06607545 -0.00835610 0.03090158
v 0.06592815 -0.00806907 0.03033747
v 0.06613286 -0.00632798 0.02900883
v 0.06675245 -0.00561142 0.02839462
v 0.06838041 -0.00561142 0.02767534
v 0.06830418 -0.00658960 0.02871304
v 0.06754183 -0.00918528 0.03100988
v 0.06753636 -0.01021728 0.03116828
v 0.06695777 -0.01070213 0.03160308
v 0.06743006 -0.00846722 0.03086925
v 0.06675245 -0.00918528 0.03125879
v 0.06675245 -0.00828285 0.03094522
v 0.06675245 -0.00776710 0.03066236
v 0.06608426 -0.00732012 0.03005138
v 0.06675245 -0.00624726 0.02909773
v 0.06675245 -0.00671816 0.02961335
v 0.06700363 -0.00561142 0.02837684
v 0.06834791 -0.00561142 0.02790648
v 0.06752695 -0.00741778 0.02996571
v 0.06675245 -0.00723441 0.03014513
v 0.06811739 -0.00561142 0.02806973
v 0.06778420 -0.00561142 0.02820550
f 1 2 6
f 1 6 18
f 1 18 17
f 1 17 31
f 1 31 30
f 1 30 43
f 1 43 54
f 1 54 64
f 1 64 72
f 1 72 83
f 1 83 73
f 1 73 65
f 1 65 55
f 1 55 47
f 1 47 39
f 1 39 38
f 1 38 32
f 1 32 19
f 1 19 7
f 1 7 3
f 1 3 4
f 1 4 5
f 1 5 2
f 2 5 6
f 3 7 8
f 3 8 9
f 3 9 4
f 4 10 8
f 4 8 11
f 4 11 12
f 4 12 13
f 4 13 14
f 4 14 26
f 4 26 33
f 4 33 37
f 4 37 36
f 4 36 46
f 4 46 59
f 4 59 68
f 4 68 78
f 4 78 91
f 4 91 96
f 4 96 95
f 4 95 92
f 4 92 79
f 4 79 69
f 4 69 61
f 4 61 49
f 4 49 40
f 4 40 28
f 4 28 15
f 4 15 5
f 4 9 10
f 5 15 16
f 5 16 17
f 5 17 18
f 5 18 6
f 7 19 20
f 7 20 8
f 8 20 11
f 8 10 9
f 11 21 12
f 11 20 21
f 12 21 22
f 12 22 13
f 13 22 23
f 13 23 14
f 14 24 25
f 14 25 26
f 14 23 27
f 14 27 24
f 15 28 16
f 16 28 29
f 16 29 30
f 16 30 31
f 16 31 17
f 19 22 20
f 19 32 22
f 20 22 21
f 22 32 27
f 22 27 23
f 24 27 25
f 25 33 26
f 25 27 34
f 25 34 33
f 27 35 36
f 27 36 37
f 27 37 34
f 27 32 38
f 27 38 39
f 27 39 35
f 28 40 41
f 28 41 42
f 28 42 30
f 28 30 29
f 30 42 43
f 33 34 44
f 33 44 37
f 34 37 44
f 35 39 45
f 35 45 46
f 35 46 36
f 39 47 48
f 39 48 45
f 40 49 50
f 40 50 41
f 41 50 42
f 42 50 49
f 42 49 43
f 43 49 51
f 43 51 52
f 43 52 53
f 43 53 62
f 43 62 54
f 45 48 55
f 45 55 56
f 45 56 57
f 45 57 46
f 46 57 58
f 46 58 59
f 47 55 48
f 49 52 60
f 49 60 51
f 49 61 52
f 51 60 52
f 52 61 53
f 53 61 62
f 54 62 63
f 54 63 64
f 55 65 66
f 55 66 56
f 56 66 67
f 56 67 68
f 56 68 59
f 56 59 57
f 57 59 58
f 61 69 62
f 62 70 63
f 62 69 70
f 63 71 64
f 63 70 71
f 64 71 72
f 65 73 74
f 65 74 66
f 66 74 75
f 66 75 76
f 66 76 67
f 67 76 77
f 67 77 68
f 68 77 78
f 69 79 70
f 70 80 71
f 70 79 80
f 71 81 82
f 71 82 72
f 71 80 81
f 72 82 81
f 72 81 83
f 73 83 81
f 73 81 84
f 73 84 85
f 73 85 75
f 73 75 74
f 75 85 86
f 75 86 87
f 75 87 88
f 75 88 76
f 76 88 77
f 77 89 78
f 77 88 90
f 77 90 89
f 78 89 91
f 79 92 80
f 80 92 93
f 80 93 84
f 80 84 81
f 84 93 87
f 84 87 86
f 84 86 85
f 87 94 88
f 87 93 95
f 87 95 96
f 87 96 94
f 88 94 90
f 89 90 91
f 90 94 96
f 90 96 91
f 92 95 93

