# https://github.com/mikedh/trimesh
v 0.06469682 -0.01124551 -0.01701780
v 0.06845951 -0.00861186 -0.00734732
v 0.06845951 -0.01124551 -0.01341223
v 0.06469682 -0.01124551 -0.01553778
v 0.06469682 -0.01060461 -0.01553778
v 0.06469719 -0.00561142 -0.00403461
v 0.06469719 -0.00661855 -0.00635540
v 0.06501250 -0.00561142 -0.00373546
v 0.06744950 -0.00561142 -0.00140208
v 0.06845951 -0.00663565 -0.00279077
v 0.06845951 -0.01124551 0.01302648
v 0.06469719 -0.01124551 0.01515203
v 0.06469719 -0.01060295 0.01515203
v 0.06469719 -0.00561142 0.00365201
v 0.06772650 -0.00561142 -0.00112182
v 0.06845951 -0.00602674 -0.00137689
v 0.06845951 -0.00617951 -0.00173902
v 0.06845951 -0.01111479 0.01272733
v 0.06789925 -0.01124551 0.01356495
v 0.06624389 -0.01124551 0.01515203
v 0.06510790 -0.01077338 0.01515203
v 0.06845951 -0.00852250 0.00675689
v 0.06744987 -0.00561142 0.00101633
v 0.06796408 -0.00561142 -0.00087935
v 0.06845951 -0.00578130 -0.00078173
v 0.06845951 -0.00635491 0.00175948
v 0.06845951 -0.00617951 0.00135327
v 0.06804844 -0.00567871 0.00056917
v 0.06796445 -0.00561142 0.00049045
v 0.06845252 -0.00561142 -0.00035662
v 0.06845951 -0.00561693 -0.00035977
v 0.06845951 -0.00578130 0.00039283
v 0.06820904 -0.00561142 0.00022909
v 0.06845252 -0.00561142 -0.00003228
v 0.06845951 -0.00561693 -0.00002913
f 1 2 3
f 1 3 11
f 1 11 19
f 1 19 20
f 1 20 12
f 1 12 4
f 1 4 5
f 1 5 6
f 1 6 7
f 1 7 8
f 1 8 9
f 1 9 2
f 2 9 10
f 2 10 17
f 2 17 16
f 2 16 25
f 2 25 31
f 2 31 35
f 2 35 32
f 2 32 27
f 2 27 26
f 2 26 22
f 2 22 18
f 2 18 11
f 2 11 3
f 4 12 13
f 4 13 5
f 5 13 14
f 5 14 6
f 6 8 7
f 6 14 23
f 6 23 29
f 6 29 33
f 6 33 34
f 6 34 30
f 6 30 24
f 6 24 15
f 6 15 9
f 6 9 8
f 9 15 16
f 9 16 17
f 9 17 10
f 11 18 19
f 12 20 21
f 12 21 13
f 13 21 14
f 14 21 22
f 14 22 23
f 15 24 16
f 16 24 25
f 18 20 19
f 18 22 20
f 20 22 21
f 22 26 23
f 23 27 28
f 23 28 29
f 23 26 27
f 24 30 25
f 25 30 31
f 27 32 28
f 28 32 29
f 29 32 33
f 30 34 35
f 30 35 31
f 32 35 34
f 32 34 33

