# https://github.com/mikedh/trimesh
v -0.01535435 0.07976861 0.00346246
v -0.01535435 0.07966386 0.00100306
v -0.01781319 0.07973002 0.00346246
v -0.01781319 0.07938266 0.00555620
v -0.01535435 0.07938817 0.00556415
v -0.01289552 0.07917867 0.00519691
v -0.01124682 0.07902980 0.00488054
v 0.01169993 0.07591465 -0.00391413
v 0.00821066 0.07650460 -0.00499359
v 0.00821066 0.07650460 -0.00517800
v -0.01535435 0.07928342 -0.00124489
v -0.01781319 0.07920072 -0.00125283
v -0.01781319 0.07954807 0.00100306
v -0.01909235 0.07899672 -0.00083313
v -0.01931976 0.07921174 0.00346246
v -0.01927001 0.07916764 0.00516511
v -0.01781319 0.07771757 0.00672946
v -0.01535435 0.07771757 0.00673899
v -0.01289552 0.07771757 0.00634950
v -0.00551902 0.07711660 0.00558322
v -0.00306018 0.07680784 0.00522393
v -0.00139727 0.07659833 0.00489485
v 0.01319939 0.07409518 0.00237823
v 0.01784701 0.07402902 -0.00022425
v 0.01415876 0.07552319 -0.00391413
v 0.01661759 0.07461346 -0.00609531
v 0.01415876 0.07491670 -0.00628290
v 0.01169993 0.07509864 -0.00629721
v 0.00677515 0.07653768 -0.00524954
v -0.00797785 0.07787747 -0.00391413
v -0.01535435 0.07888093 -0.00247538
v -0.01781319 0.07891401 -0.00248174
v -0.02160093 0.07658730 -0.00536401
v -0.02054917 0.07790504 0.00346246
v -0.02165778 0.07665898 0.00501567
v -0.02016543 0.07757422 0.00563410
v -0.01774212 0.07513173 0.00709670
v -0.02027202 0.07525854 0.00669130
v -0.02764852 0.06541687 0.00699654
v -0.02020806 0.07275539 0.00709670
v -0.01529040 0.07513173 0.00710464
v -0.01289552 0.07525854 0.00705536
v -0.01043669 0.07525854 0.00700449
v -0.00797785 0.07525854 0.00692023
v -0.00551902 0.07525854 0.00672628
v -0.00306018 0.07525854 0.00634473
v 0.00431632 0.07464102 0.00554189
v 0.00677515 0.07433226 0.00518578
v 0.00839542 0.07412826 0.00487100
v 0.01003702 0.07391875 0.00446084
v 0.00922688 0.07454178 0.00356897
v 0.01169993 0.07365961 0.00401252
v 0.01344101 0.07200555 0.00513491
v 0.01602776 0.07219301 0.00278680
v 0.01766224 0.07118403 0.00205391
v 0.01815970 0.07279950 0.00025587
v 0.01857898 0.07279950 -0.00145474
v 0.01796782 0.07415031 -0.00145474
v 0.01661759 0.07498286 -0.00391413
v 0.01804599 0.07428264 -0.00565971
v 0.01661759 0.07279950 -0.00722405
v 0.01415876 0.07279950 -0.00749272
v 0.00185748 0.07525854 -0.00661994
v 0.00431632 0.07525854 -0.00651660
v 0.00677515 0.07525854 -0.00640849
v -0.00797785 0.07688503 -0.00582028
v -0.00306018 0.07676925 -0.00565335
v -0.00060135 0.07671411 -0.00555955
v 0.00431632 0.07659833 -0.00535765
v -0.01043669 0.07799325 -0.00391413
v -0.01535435 0.07821930 -0.00391413
v -0.01781319 0.07831304 -0.00391413
v -0.02027202 0.07689054 -0.00578053
v -0.02027202 0.07525854 -0.00690769
v -0.02254609 0.07502697 -0.00574874
v -0.02704448 0.06984976 -0.00584889
v -0.02398870 0.07405107 -0.00519867
v -0.02403134 0.07410621 0.00391395
v -0.02403134 0.07410621 0.00484080
v -0.02258162 0.07506005 0.00543378
v -0.02936829 0.06723634 0.00536860
v -0.02273085 0.07279950 0.00653868
v -0.03015710 0.06542790 0.00591231
v -0.01688224 0.07422750 0.00716188
v -0.01851673 0.07354934 0.00713644
v -0.03257330 0.06049879 0.00676920
v -0.03011446 0.06295784 0.00690751
v -0.02499071 0.06768293 0.00706490
v -0.02259583 0.07021917 0.00708239
v -0.04240863 0.04820361 0.00692818
v -0.03976503 0.05048621 0.00704423
v -0.03737016 0.05302244 0.00707762
v -0.02098267 0.07096349 0.00713167
v -0.03498239 0.05555866 0.00709352
v -0.03258751 0.05810040 0.00710782
v -0.03019974 0.06063664 0.00711895
v -0.01607211 0.07422750 0.00716188
v -0.01043669 0.07313031 0.00711100
v -0.00306018 0.07279950 0.00699177
v -0.00060135 0.07279950 0.00693931
v 0.00185748 0.07279950 0.00685187
v 0.00431632 0.07279950 0.00665315
v 0.00677515 0.07279950 0.00627478
v 0.01169993 0.07243009 0.00554348
v 0.01169993 0.07033494 0.00659114
v 0.01421561 0.07019160 0.00540040
v 0.01508260 0.07091387 0.00442745
v 0.01804599 0.06954100 0.00240843
v 0.02041955 0.06450714 0.00236392
v 0.01656785 0.07022468 0.00341794
v 0.01869268 0.07279950 -0.00391413
v 0.01811706 0.07433778 -0.00391413
v 0.02278600 0.05688743 0.00227807
v 0.01932515 0.07033494 -0.00145474
v 0.02039112 0.06458433 -0.00539103
v 0.01828050 0.07279950 -0.00606192
v 0.01661759 0.07033494 -0.00744344
v 0.01855055 0.07033494 -0.00624475
v 0.02081751 0.06049879 -0.00613028
v 0.01907643 0.06049879 -0.00732103
v 0.01407348 0.07043971 -0.00757698
v 0.01169993 0.07132738 -0.00759924
v 0.01169993 0.07279950 -0.00752134
v -0.01781319 0.07525854 -0.00722087
v -0.01535435 0.07525854 -0.00717318
v -0.01289552 0.07525854 -0.00711595
v -0.01043669 0.07525854 -0.00705077
v -0.00797785 0.07525854 -0.00697764
v -0.00551902 0.07525854 -0.00689815
v -0.00306018 0.07525854 -0.00681071
v -0.00060135 0.07525854 -0.00671850
v -0.01289552 0.07700081 -0.00595859
v -0.01043669 0.07694017 -0.00589341
v -0.01781319 0.07711109 -0.00606510
v -0.01535435 0.07705595 -0.00601582
v -0.02027202 0.07279950 -0.00744980
v -0.02273085 0.07033494 -0.00744185
v -0.02518969 0.06787591 -0.00742436
v -0.02764852 0.06541687 -0.00738780
v -0.02273085 0.07279950 -0.00685681
v -0.02778355 0.06798618 -0.00642439
v -0.03016421 0.06543341 -0.00634172
v -0.02937539 0.06723634 -0.00580438
v -0.03170631 0.06462292 -0.00571217
v -0.03403723 0.06200399 -0.00556273
v -0.03636815 0.05939058 -0.00535447
v -0.03869196 0.05677716 -0.00504446
v -0.03658134 0.05963868 -0.00391413
v -0.03891226 0.05703630 -0.00340381
v -0.04454768 0.05086113 -0.00145633
v -0.04370911 0.05196936 -0.00063600
v -0.04370911 0.05196936 0.00015412
v -0.04453346 0.05085011 0.00098558
v -0.04122896 0.05441185 0.00241638
v -0.03890515 0.05703078 0.00288696
v -0.03656713 0.05963317 0.00346246
v -0.03867064 0.05674959 0.00452602
v -0.03634683 0.05937403 0.00487100
v -0.03402302 0.06199296 0.00509834
v -0.03169921 0.06461189 0.00526368
v -0.03253776 0.06286961 0.00574856
v -0.03503213 0.05803976 0.00657684
v -0.04246548 0.05068470 0.00593616
v -0.01774212 0.07275539 0.00719208
v -0.01535435 0.06049879 0.00770876
v -0.01289552 0.05803976 0.00784071
v -0.01934108 0.07191182 0.00716347
v -0.01781319 0.07033494 0.00727793
v -0.04484615 0.04811539 0.00576446
v -0.04486747 0.04574457 0.00620960
v -0.04240863 0.04574457 0.00708239
v -0.04040461 0.04820361 0.00712531
v -0.03810923 0.05119194 0.00712849
v -0.02168621 0.06932046 0.00716029
v -0.01535435 0.05803976 0.00779620
v -0.03341897 0.05636365 0.00713803
v -0.01289552 0.06049879 0.00773738
v -0.01289552 0.06295784 0.00762768
v -0.01043669 0.06049879 0.00769763
v -0.01043669 0.07190079 0.00716824
v 0.00185748 0.06827840 0.00711418
v 0.00431632 0.07033494 0.00697269
v 0.00677515 0.07033494 0.00692659
v 0.00923398 0.07033494 0.00686300
v 0.01169993 0.06787591 0.00683756
v 0.01415876 0.06295784 0.00685028
v 0.01661759 0.05803976 0.00685823
v 0.01907643 0.05312168 0.00685664
v 0.02153526 0.04820361 0.00685028
v 0.01415876 0.06541687 0.00657843
v 0.01415876 0.06787591 0.00608400
v 0.01579324 0.06787591 0.00504270
v 0.01661759 0.06295784 0.00601564
v 0.01874953 0.06049879 0.00544014
v 0.01817391 0.06295784 0.00497593
v 0.01997895 0.06049879 0.00440838
v 0.01940333 0.06295784 0.00390918
v 0.01843685 0.06787591 0.00274705
v 0.02302762 0.05253724 0.00495685
v 0.02528036 0.04717809 0.00478674
v 0.02278600 0.05688743 0.00213976
v 0.02528036 0.04717809 0.00434955
v 0.01927541 0.07033494 -0.00391413
v 0.02056168 0.06295784 -0.00576940
v 0.02602654 0.04328553 0.00346246
v 0.02271494 0.05409207 -0.00452460
v 0.02520930 0.04196779 -0.00493318
v 0.02288549 0.05245454 -0.00547847
v 0.01661759 0.06787591 -0.00750226
v 0.02153526 0.04820361 -0.00736395
v 0.01907643 0.05803976 -0.00746252
v 0.02307026 0.05066264 -0.00586638
v 0.02332609 0.04820361 -0.00617003
v 0.02153526 0.05066264 -0.00705077
v 0.01319228 0.06968986 -0.00761355
v 0.01169993 0.07009787 -0.00763739
v 0.01661759 0.06541687 -0.00753247
v 0.01469174 0.06787591 -0.00758175
v 0.00923398 0.07021365 -0.00765965
v 0.00923398 0.07144317 -0.00759765
v 0.00923398 0.07279950 -0.00752611
v 0.00185748 0.06295784 -0.00800781
v -0.00551902 0.05803976 -0.00826377
v -0.00060135 0.06295784 -0.00802848
v -0.01781319 0.07279950 -0.00750862
v 0.00677515 0.07279950 -0.00752770
v 0.00431632 0.07279950 -0.00752770
v -0.00060135 0.07279950 -0.00752611
v -0.01289552 0.07279950 -0.00752134
v -0.01535435 0.07279950 -0.00751975
v -0.01781319 0.07093041 -0.00758334
v -0.01781319 0.06970089 -0.00763104
v -0.01916341 0.06923775 -0.00760878
v -0.02010147 0.07016954 -0.00754837
v -0.03011446 0.06049879 -0.00752293
v -0.03257330 0.05803976 -0.00751498
v -0.03503213 0.05558072 -0.00750385
v -0.03749097 0.05312168 -0.00748955
v -0.03994980 0.05066264 -0.00746252
v -0.04240863 0.04820361 -0.00739575
v -0.03011446 0.06295784 -0.00731626
v -0.03257330 0.06049879 -0.00719703
v -0.03503213 0.05803976 -0.00702692
v -0.04248681 0.05070675 -0.00641167
v -0.03254487 0.06288065 -0.00619546
v -0.04404312 0.04991280 -0.00576781
v -0.04440555 0.05034838 -0.00391413
v -0.03797420 0.05792948 -0.00410013
v -0.04123607 0.05441737 -0.00291098
v -0.04594765 0.04911334 -0.00145474
v -0.04593344 0.04910231 0.00100306
v -0.04437002 0.05030978 0.00346246
v -0.04355988 0.05179292 0.00179478
v -0.04100155 0.05413066 0.00405544
v -0.04626033 0.04723874 0.00510152
v -0.04400759 0.04987421 0.00528434
v -0.01289552 0.05558072 0.00789635
v -0.01043669 0.05558072 0.00786615
v -0.01043669 0.05803976 0.00780415
v -0.01535435 0.05558072 0.00786138
v -0.04623191 0.04574457 0.00503316
v -0.04439133 0.04082649 0.00580579
v -0.04240863 0.03836746 0.00676761
v -0.04240863 0.04082649 0.00699972
v -0.04240863 0.04328553 0.00705695
v -0.03503213 0.04820361 0.00730019
v -0.03749097 0.04820361 0.00722070
v -0.03994980 0.03590841 0.00707603
v -0.03994980 0.03836746 0.00709670
v -0.04054674 0.04574457 0.00713485
v -0.02518969 0.05066264 0.00759271
v -0.03881987 0.04954891 0.00715552
v -0.02764852 0.05066264 0.00751799
v -0.02027202 0.05312168 0.00773261
v -0.02518969 0.05312168 0.00756727
v -0.03011446 0.05312168 0.00737968
v -0.02027202 0.06049879 0.00751799
v -0.01781319 0.05803976 0.00769922
v -0.02708711 0.06250021 0.00717936
v -0.02027202 0.05558072 0.00768491
v -0.01781319 0.05558072 0.00777871
v -0.03019974 0.05810040 0.00720639
v -0.00797785 0.06049879 0.00764994
v 0.00185748 0.06704888 0.00717142
v 0.00325746 0.06675115 0.00715711
v 0.00923398 0.06787591 0.00694249
v 0.00677515 0.06787591 0.00701880
v 0.01169993 0.06541687 0.00691546
v 0.01415876 0.06049879 0.00694249
v 0.01661759 0.05558072 0.00696792
v 0.02153526 0.04574457 0.00701562
v 0.02399410 0.04328553 0.00674376
v 0.02153526 0.05066264 0.00645760
v 0.01907643 0.05558072 0.00650530
v 0.01661759 0.06049879 0.00654504
v 0.02113020 0.05558072 0.00538768
v 0.02173424 0.05326503 0.00566589
v 0.02066117 0.05757111 0.00500136
v 0.02340426 0.05066264 0.00533045
v 0.02545803 0.04574457 0.00510311
v 0.02537985 0.04032476 -0.00555478
v 0.02574229 0.04328553 0.00557210
v 0.02625395 0.04082649 0.00346246
v 0.02604076 0.04082649 0.00100306
v 0.02548645 0.04101947 -0.00403495
v 0.02153526 0.04574457 -0.00747524
v 0.01907643 0.05558072 -0.00751021
v 0.02358192 0.04574457 -0.00627336
v 0.02422861 0.04101947 -0.00633377
v 0.01169993 0.06787591 -0.00768032
v 0.00185748 0.06049879 -0.00805551
v 0.00431632 0.06295784 -0.00795217
v -0.00306018 0.05803976 -0.00822243
v -0.00060135 0.06049879 -0.00811751
v 0.00923398 0.06787591 -0.00774232
v 0.01661759 0.06295784 -0.00755155
v 0.02153526 0.04328553 -0.00751657
v 0.01907643 0.05312168 -0.00753724
v 0.01644704 0.06063664 -0.00757380
v 0.01694449 0.05803976 -0.00757539
v 0.01371816 0.06541687 -0.00763104
v 0.00185748 0.06541687 -0.00790448
v 0.00677515 0.07020814 -0.00766124
v -0.00551902 0.05558072 -0.00831941
v -0.00797785 0.05558072 -0.00834485
v -0.00797785 0.05803976 -0.00827331
v -0.00551902 0.06049879 -0.00815407
v -0.01535435 0.07134944 -0.00759447
v -0.01535435 0.07011992 -0.00765329
v -0.01043669 0.06049879 -0.00813818
v -0.01535435 0.06787591 -0.00775345
v 0.00185748 0.07142112 -0.00759765
v -0.00306018 0.07017505 -0.00765965
v -0.00797785 0.06541687 -0.00790130
v -0.01289552 0.06295784 -0.00799669
v -0.01535435 0.06541687 -0.00784725
v -0.01781319 0.06787591 -0.00769463
v -0.02027202 0.06541687 -0.00769145
v -0.02253898 0.06768293 -0.00754678
v -0.01289552 0.06049879 -0.00808412
v -0.03518137 0.05081151 -0.00765806
v -0.03761178 0.05081151 -0.00757857
v -0.02027202 0.06049879 -0.00784407
v -0.03984321 0.04818706 -0.00757221
v -0.04240863 0.04574457 -0.00752611
v -0.04486747 0.04574457 -0.00668671
v -0.04486747 0.04813744 -0.00626223
v -0.04627455 0.04727182 -0.00559930
v -0.04563496 0.04872188 -0.00391413
v -0.04634561 0.04749236 -0.00391413
v -0.04626744 0.04788382 -0.00145474
v -0.04626744 0.04787279 0.00100306
v -0.04633140 0.04745928 0.00346246
v -0.04559943 0.04868880 0.00346246
v -0.04629587 0.04564532 0.00362938
v -0.01289552 0.05312168 0.00784866
v -0.01043669 0.05312168 0.00782641
v -0.01535435 0.05312168 0.00785025
v -0.00797785 0.05312168 0.00778984
v 0.01806020 0.04425591 0.00715870
v 0.01806020 0.04483484 0.00715870
v -0.00797785 0.05558072 0.00779779
v -0.00797785 0.05803976 0.00773738
v -0.01781319 0.05312168 0.00780733
v -0.04611110 0.04447094 0.00473746
v -0.04405733 0.03836746 0.00558322
v -0.03983610 0.02345333 0.00584554
v -0.03994980 0.02852579 0.00659909
v -0.03994980 0.03098483 0.00695044
v -0.03749097 0.02345333 0.00700290
v -0.03994980 0.03344938 0.00704105
v -0.03737016 0.03323986 0.00712849
v -0.03898332 0.04328553 0.00716029
v -0.03646764 0.03392354 0.00715870
v -0.03749097 0.04574457 0.00721911
v -0.02273085 0.05066264 0.00765948
v -0.03257330 0.04574457 0.00735424
v -0.03011446 0.04082649 0.00738445
v -0.02764852 0.05312168 0.00747665
v -0.02518969 0.05558072 0.00749096
v -0.00306018 0.06049879 0.00752117
v 0.00185748 0.06295784 0.00730178
v 0.00455083 0.06318389 0.00720639
v 0.00770610 0.06127069 0.00714280
v -0.00060135 0.06049879 0.00744009
v 0.01415876 0.05558072 0.00705218
v 0.01907643 0.04820361 0.00705059
v 0.01895562 0.04568943 0.00710941
v 0.02153526 0.04328553 0.00706172
v 0.02399410 0.04082649 0.00678987
v 0.02575650 0.04082649 0.00562774
v 0.02399410 0.04574457 0.00624139
v 0.02410069 0.04808231 0.00554825
v 0.02537985 0.03916140 -0.00555478
v 0.02550067 0.03933232 0.00522075
v 0.02571386 0.03907870 0.00346246
v 0.02573518 0.03889124 0.00100306
v 0.02562148 0.03884713 -0.00145474
v 0.02550777 0.03890778 -0.00391413
v 0.02410780 0.03835091 -0.00629562
v 0.02153526 0.03836746 -0.00745139
v 0.02153526 0.04082649 -0.00752770
v -0.00060135 0.05803976 -0.00815407
v 0.01945307 0.04574457 -0.00757698
v 0.01970890 0.04328553 -0.00758493
v -0.00306018 0.05558072 -0.00825105
v -0.00060135 0.05312168 -0.00818110
v -0.00306018 0.05312168 -0.00824151
v -0.00551902 0.05312168 -0.00828603
v -0.00797785 0.05312168 -0.00831305
v -0.01043669 0.05312168 -0.00830987
v -0.01043669 0.05558072 -0.00830669
v -0.00797785 0.06049879 -0.00815248
v -0.01043669 0.05803976 -0.00823356
v -0.01043669 0.06295784 -0.00802530
v -0.01289552 0.05803976 -0.00816043
v -0.03687981 0.05008372 -0.00762468
v -0.01781319 0.05558072 -0.00807617
v -0.01535435 0.05558072 -0.00815566
v -0.03852140 0.04899204 -0.00759765
v -0.03257330 0.05066264 -0.00774391
v -0.03895490 0.04735452 -0.00761037
v -0.04017010 0.04574457 -0.00758016
v -0.03973661 0.04339029 -0.00757857
v -0.03994980 0.03836746 -0.00754678
v -0.03994980 0.03590841 -0.00753247
v -0.03994980 0.03344938 -0.00751657
v -0.04240863 0.04328553 -0.00750544
v -0.01289552 0.05312168 -0.00826695
v -0.02027202 0.05066264 -0.00808094
v -0.04417814 0.03836746 -0.00618751
v -0.04623901 0.04574457 -0.00551027
v -0.04240863 0.04082649 -0.00746729
v -0.04240863 0.03836746 -0.00737349
v -0.04629587 0.04565084 -0.00410649
v -0.04611110 0.04447094 0.00455940
v 0.00185748 0.02345333 0.00700290
v 0.00415998 0.02345333 0.00699972
v -0.03503213 0.02345333 0.00700767
v -0.03257330 0.02345333 0.00700767
v 0.01661759 0.04384791 0.00717777
v 0.02153526 0.04082649 0.00702833
v 0.01437195 0.04840210 0.00720480
v -0.00060135 0.05558072 0.00754978
v -0.02027202 0.05066264 0.00772466
v -0.04380860 0.03653696 0.00515875
v -0.04132135 0.02345333 -0.00558499
v -0.04128581 0.02345333 -0.00421619
v -0.04085943 0.02345333 0.00330507
v -0.04084521 0.02345333 0.00346246
v -0.04127160 0.02659054 0.00500295
v -0.02273085 0.04820361 0.00764040
v 0.02387329 0.03845567 0.00575333
v 0.01169993 0.02852579 0.00689956
v 0.00906343 0.02345333 0.00596477
v 0.00923398 0.02362425 0.00596318
v 0.01167150 0.02610534 0.00593457
v 0.02486108 0.03767826 -0.00391413
v 0.02336162 0.03666377 -0.00586320
v 0.01083294 0.02445128 0.00535588
v 0.00914871 0.02345333 0.00590277
v 0.02459104 0.03766172 0.00100306
v 0.02480423 0.03761762 -0.00145474
v 0.02154237 0.03586982 -0.00644347
v 0.01907643 0.03590841 -0.00738303
v 0.00431632 0.02345333 -0.00739734
v 0.00431632 0.02360771 -0.00741006
v 0.01834446 0.04163698 -0.00761991
v 0.01847948 0.04328553 -0.00762468
v 0.00185748 0.05312168 -0.00810638
v -0.03733463 0.02345333 -0.00747365
v -0.03749097 0.02345333 -0.00747365
v -0.03439255 0.02936384 -0.00761832
v -0.01535435 0.05066264 -0.00819700
v -0.01289552 0.05558072 -0.00823356
v -0.01535435 0.05312168 -0.00820018
v -0.01781319 0.05066264 -0.00813977
v -0.03011446 0.04328553 -0.00780750
v -0.03749097 0.03098483 -0.00756585
v -0.03621891 0.03241834 -0.00760401
v -0.03749097 0.02852579 -0.00755155
v -0.03994980 0.03098483 -0.00748637
v -0.04390099 0.03590841 -0.00585366
v -0.04240863 0.03590841 -0.00703328
v -0.03994980 0.02606675 -0.00724313
v -0.04157007 0.02606675 -0.00606033
v -0.04611110 0.04448197 -0.00517800
v -0.03994980 0.02852579 -0.00743390
v 0.00431632 0.02345333 0.00699654
v 0.00661881 0.02345333 0.00693613
v 0.00923398 0.02606675 0.00692182
v -0.04125739 0.02345333 -0.00565335
v 0.00677515 0.02345333 0.00687413
v 0.02363167 0.03648733 -0.00391413
v 0.01558716 0.02958439 -0.00559453
v 0.01815259 0.03194418 -0.00573602
v 0.01648968 0.03107304 -0.00622726
v 0.01901247 0.03347143 -0.00636398
v 0.00942586 0.02345333 0.00322399
v 0.00955378 0.02345333 -0.00094919
v 0.01083294 0.02445128 0.00407134
v 0.01415876 0.03098483 -0.00719226
v 0.01661759 0.03344938 -0.00730831
v 0.00696703 0.02345333 -0.00649752
v 0.00185748 0.02345333 -0.00740688
v 0.01169993 0.02852579 -0.00702215
v -0.03979346 0.02345333 -0.00683138
v -0.03749097 0.02606675 -0.00751975
v -0.03482605 0.03098483 -0.00762945
v -0.03011446 0.03590841 -0.00776776
v -0.03257330 0.03344938 -0.00769622
v -0.03994980 0.02360771 -0.00678845
v -0.03996401 0.02345333 -0.00674712
v 0.00955378 0.02345333 -0.00127032
v 0.01301462 0.02721908 -0.00537832
v 0.00880049 0.02412047 -0.00587751
v 0.00703809 0.02345333 -0.00646255
v 0.00891420 0.02345333 -0.00401428
v 0.00888577 0.02345333 -0.00409059
f 1 2 3
f 1 3 4
f 1 4 5
f 1 5 6
f 1 6 7
f 1 7 8
f 1 8 9
f 1 9 10
f 1 10 2
f 2 11 12
f 2 12 13
f 2 13 3
f 2 10 11
f 3 13 14
f 3 14 15
f 3 15 16
f 3 16 4
f 4 16 17
f 4 17 5
f 5 17 18
f 5 18 19
f 5 19 20
f 5 20 6
f 6 20 21
f 6 21 7
f 7 21 22
f 7 22 23
f 7 23 24
f 7 24 25
f 7 25 8
f 8 25 9
f 9 25 10
f 10 25 26
f 10 26 27
f 10 27 28
f 10 28 29
f 10 29 30
f 10 30 31
f 10 31 11
f 11 31 32
f 11 32 12
f 12 32 14
f 12 14 13
f 14 33 15
f 14 32 33
f 15 33 34
f 15 34 35
f 15 35 16
f 16 35 36
f 16 36 17
f 17 37 18
f 17 36 38
f 17 38 39
f 17 39 40
f 17 40 37
f 18 41 42
f 18 42 43
f 18 43 44
f 18 44 45
f 18 45 20
f 18 20 19
f 18 37 41
f 20 45 46
f 20 46 47
f 20 47 48
f 20 48 21
f 21 48 49
f 21 49 22
f 22 49 50
f 22 50 51
f 22 51 23
f 23 51 50
f 23 50 52
f 23 52 24
f 24 52 53
f 24 53 54
f 24 54 55
f 24 55 56
f 24 56 57
f 24 57 58
f 24 58 59
f 24 59 25
f 25 59 26
f 26 59 60
f 26 60 61
f 26 61 27
f 27 61 62
f 27 62 28
f 28 62 63
f 28 63 64
f 28 64 65
f 28 65 66
f 28 66 67
f 28 67 68
f 28 68 69
f 28 69 29
f 29 69 70
f 29 70 30
f 30 70 31
f 31 71 72
f 31 72 32
f 31 70 71
f 32 72 73
f 32 73 33
f 33 73 74
f 33 74 75
f 33 75 76
f 33 76 77
f 33 77 34
f 34 77 78
f 34 78 79
f 34 79 35
f 35 80 36
f 35 79 81
f 35 81 80
f 36 82 38
f 36 80 81
f 36 81 83
f 36 83 82
f 37 84 41
f 37 40 85
f 37 85 84
f 38 82 86
f 38 86 87
f 38 87 39
f 39 88 89
f 39 89 40
f 39 87 90
f 39 90 91
f 39 91 92
f 39 92 88
f 40 93 85
f 40 89 94
f 40 94 95
f 40 95 96
f 40 96 93
f 41 84 97
f 41 97 42
f 42 97 98
f 42 98 99
f 42 99 43
f 43 99 100
f 43 100 44
f 44 100 101
f 44 101 45
f 45 101 102
f 45 102 103
f 45 103 46
f 46 103 47
f 47 103 104
f 47 104 48
f 48 104 49
f 49 104 50
f 50 104 52
f 52 104 53
f 53 104 105
f 53 105 106
f 53 106 107
f 53 107 55
f 53 55 54
f 55 108 109
f 55 109 56
f 55 107 110
f 55 110 108
f 56 109 57
f 57 111 112
f 57 112 58
f 57 109 113
f 57 113 114
f 57 114 111
f 58 112 59
f 59 112 60
f 60 112 111
f 60 111 115
f 60 115 116
f 60 116 61
f 61 117 62
f 61 116 118
f 61 118 119
f 61 119 120
f 61 120 117
f 62 121 122
f 62 122 123
f 62 123 124
f 62 124 125
f 62 125 126
f 62 126 127
f 62 127 128
f 62 128 129
f 62 129 130
f 62 130 131
f 62 131 63
f 62 117 121
f 63 131 132
f 63 132 64
f 64 132 65
f 65 132 133
f 65 133 66
f 66 133 132
f 66 132 71
f 66 71 67
f 67 71 68
f 68 71 69
f 69 71 70
f 71 132 72
f 72 134 73
f 72 132 135
f 72 135 134
f 73 134 74
f 74 136 137
f 74 137 138
f 74 138 139
f 74 139 140
f 74 140 75
f 74 134 124
f 74 124 136
f 75 140 141
f 75 141 76
f 76 141 142
f 76 142 143
f 76 143 77
f 77 143 144
f 77 144 145
f 77 145 146
f 77 146 147
f 77 147 148
f 77 148 149
f 77 149 150
f 77 150 151
f 77 151 78
f 78 151 152
f 78 152 79
f 79 152 153
f 79 153 154
f 79 154 155
f 79 155 156
f 79 156 157
f 79 157 158
f 79 158 159
f 79 159 160
f 79 160 81
f 81 160 161
f 81 161 83
f 82 83 162
f 82 162 86
f 83 161 163
f 83 163 162
f 84 85 164
f 84 164 165
f 84 165 166
f 84 166 97
f 85 93 167
f 85 167 168
f 85 168 164
f 86 162 90
f 86 90 87
f 88 92 89
f 89 92 94
f 90 163 169
f 90 169 170
f 90 170 171
f 90 171 172
f 90 172 91
f 90 162 163
f 91 172 173
f 91 173 92
f 92 173 94
f 93 174 175
f 93 175 168
f 93 168 167
f 93 96 176
f 93 176 174
f 94 173 95
f 95 173 96
f 96 173 176
f 97 166 177
f 97 177 178
f 97 178 179
f 97 179 180
f 97 180 98
f 98 181 99
f 98 180 284
f 98 284 181
f 99 181 182
f 99 182 183
f 99 183 100
f 100 183 184
f 100 184 101
f 101 184 102
f 102 184 105
f 102 105 103
f 103 105 104
f 105 184 185
f 105 185 186
f 105 186 187
f 105 187 188
f 105 188 189
f 105 189 190
f 105 190 191
f 105 191 106
f 106 192 107
f 106 191 193
f 106 193 194
f 106 194 192
f 107 192 195
f 107 195 196
f 107 196 197
f 107 197 110
f 108 198 109
f 108 110 198
f 109 198 196
f 109 196 199
f 109 199 200
f 109 200 113
f 110 197 198
f 111 114 113
f 111 113 201
f 111 201 202
f 111 202 203
f 111 203 115
f 113 200 202
f 113 202 201
f 115 204 116
f 115 203 202
f 115 202 205
f 115 205 206
f 115 206 207
f 115 207 208
f 115 208 204
f 116 204 119
f 116 119 118
f 117 209 121
f 117 120 210
f 117 210 211
f 117 211 209
f 119 212 213
f 119 213 214
f 119 214 120
f 119 204 212
f 120 214 210
f 121 215 216
f 121 216 122
f 121 209 217
f 121 217 218
f 121 218 215
f 122 219 220
f 122 220 221
f 122 221 123
f 122 216 222
f 122 222 223
f 122 223 224
f 122 224 219
f 123 221 124
f 124 225 136
f 124 134 125
f 124 221 226
f 124 226 227
f 124 227 228
f 124 228 229
f 124 229 230
f 124 230 225
f 125 134 126
f 126 134 127
f 127 134 128
f 128 134 129
f 129 134 135
f 129 135 130
f 130 135 131
f 131 135 132
f 136 225 231
f 136 231 232
f 136 232 233
f 136 233 234
f 136 234 235
f 136 235 236
f 136 236 137
f 137 236 237
f 137 237 238
f 137 238 138
f 138 238 239
f 138 239 139
f 139 239 240
f 139 240 241
f 139 241 140
f 140 241 242
f 140 242 142
f 140 142 141
f 142 242 243
f 142 243 244
f 142 244 245
f 142 245 143
f 143 245 144
f 144 245 246
f 144 246 145
f 145 246 146
f 146 246 147
f 147 246 247
f 147 247 149
f 147 149 248
f 147 248 148
f 148 248 149
f 149 247 249
f 149 249 150
f 150 249 247
f 150 247 250
f 150 250 151
f 151 250 152
f 152 250 251
f 152 251 153
f 153 251 252
f 153 252 253
f 153 253 154
f 154 253 252
f 154 252 156
f 154 156 155
f 156 252 254
f 156 254 157
f 157 254 252
f 157 252 255
f 157 255 256
f 157 256 158
f 158 256 159
f 159 256 160
f 160 256 161
f 161 256 169
f 161 169 163
f 164 168 165
f 165 168 175
f 165 175 166
f 166 257 258
f 166 258 259
f 166 259 177
f 166 175 260
f 166 260 257
f 169 256 255
f 169 255 170
f 170 255 261
f 170 261 262
f 170 262 263
f 170 263 264
f 170 264 265
f 170 265 171
f 171 266 267
f 171 267 172
f 171 265 268
f 171 268 269
f 171 269 270
f 171 270 271
f 171 271 266
f 172 272 173
f 172 267 273
f 172 273 274
f 172 274 275
f 172 275 272
f 173 272 276
f 173 276 176
f 174 277 278
f 174 278 175
f 174 176 279
f 174 279 277
f 175 278 276
f 175 276 280
f 175 280 281
f 175 281 260
f 176 276 282
f 176 282 279
f 177 259 179
f 177 179 178
f 179 259 283
f 179 283 284
f 179 284 180
f 181 284 182
f 182 284 183
f 183 284 285
f 183 285 184
f 184 286 185
f 184 285 287
f 184 287 286
f 185 286 288
f 185 288 289
f 185 289 290
f 185 290 291
f 185 291 186
f 186 291 187
f 187 291 188
f 188 291 189
f 189 291 292
f 189 292 293
f 189 293 294
f 189 294 295
f 189 295 190
f 190 295 191
f 191 295 294
f 191 294 293
f 191 293 193
f 192 194 296
f 192 296 195
f 193 293 297
f 193 297 194
f 194 297 296
f 195 296 298
f 195 298 196
f 196 298 199
f 196 198 197
f 199 296 299
f 199 299 200
f 199 298 296
f 200 299 300
f 200 300 205
f 200 205 202
f 204 208 301
f 204 301 212
f 205 300 302
f 205 302 303
f 205 303 304
f 205 304 305
f 205 305 207
f 205 207 206
f 207 305 301
f 207 301 208
f 209 211 306
f 209 306 307
f 209 307 217
f 210 214 213
f 210 213 308
f 210 308 309
f 210 309 306
f 210 306 211
f 212 301 213
f 213 301 308
f 215 218 310
f 215 310 311
f 215 311 312
f 215 312 313
f 215 313 314
f 215 314 315
f 215 315 216
f 216 315 222
f 217 316 218
f 217 307 317
f 217 317 318
f 217 318 316
f 218 319 320
f 218 320 321
f 218 321 310
f 218 316 319
f 219 224 322
f 219 322 323
f 219 323 220
f 220 323 227
f 220 227 226
f 220 226 221
f 222 314 223
f 222 315 314
f 223 324 325
f 223 325 326
f 223 326 224
f 223 314 313
f 223 313 324
f 224 326 327
f 224 327 322
f 225 230 328
f 225 328 329
f 225 329 326
f 225 326 330
f 225 330 331
f 225 331 231
f 227 323 332
f 227 332 228
f 228 332 333
f 228 333 229
f 229 328 230
f 229 333 334
f 229 334 327
f 229 327 328
f 231 331 335
f 231 335 232
f 232 336 337
f 232 337 233
f 232 335 336
f 233 338 235
f 233 235 339
f 233 339 234
f 233 337 340
f 233 340 338
f 234 339 235
f 235 341 342
f 235 342 236
f 235 338 343
f 235 343 341
f 236 342 237
f 237 342 238
f 238 342 344
f 238 344 239
f 239 344 345
f 239 345 240
f 240 345 346
f 240 346 347
f 240 347 244
f 240 244 243
f 240 243 242
f 240 242 241
f 244 347 245
f 245 347 246
f 246 347 348
f 246 348 247
f 247 348 349
f 247 349 250
f 250 349 348
f 250 348 350
f 250 350 351
f 250 351 352
f 250 352 251
f 251 352 353
f 251 353 255
f 251 255 354
f 251 354 252
f 252 354 255
f 255 353 355
f 255 355 261
f 257 356 357
f 257 357 258
f 257 260 358
f 257 358 356
f 258 357 359
f 258 359 360
f 258 360 361
f 258 361 362
f 258 362 363
f 258 363 259
f 259 363 285
f 259 285 283
f 260 281 275
f 260 275 274
f 260 274 364
f 260 364 358
f 261 365 366
f 261 366 262
f 261 355 365
f 262 366 367
f 262 367 263
f 263 367 368
f 263 368 369
f 263 369 264
f 264 369 370
f 264 370 371
f 264 371 265
f 265 371 268
f 266 273 267
f 266 271 273
f 268 371 370
f 268 370 372
f 268 372 269
f 269 373 270
f 269 372 374
f 269 374 373
f 270 373 375
f 270 375 271
f 271 376 364
f 271 364 274
f 271 274 273
f 271 375 377
f 271 377 378
f 271 378 376
f 272 275 281
f 272 281 379
f 272 379 276
f 276 379 280
f 276 278 380
f 276 380 282
f 277 279 282
f 277 282 380
f 277 380 278
f 280 379 281
f 283 285 284
f 285 363 381
f 285 381 287
f 286 287 381
f 286 381 382
f 286 382 383
f 286 383 288
f 288 383 384
f 288 384 289
f 289 384 385
f 289 385 444
f 289 444 386
f 289 386 387
f 289 387 290
f 290 387 291
f 291 387 388
f 291 388 361
f 291 361 389
f 291 389 390
f 291 390 292
f 292 390 391
f 292 391 302
f 292 302 392
f 292 392 293
f 293 392 299
f 293 299 297
f 296 297 299
f 299 392 393
f 299 393 300
f 300 393 302
f 301 305 304
f 301 304 394
f 301 394 309
f 301 309 308
f 302 391 303
f 302 393 392
f 303 391 395
f 303 395 396
f 303 396 397
f 303 397 398
f 303 398 399
f 303 399 394
f 303 394 304
f 306 309 317
f 306 317 307
f 309 394 400
f 309 400 401
f 309 401 402
f 309 402 317
f 310 321 403
f 310 403 311
f 311 403 313
f 311 313 312
f 313 403 406
f 313 406 324
f 316 318 404
f 316 404 320
f 316 320 319
f 317 402 405
f 317 405 404
f 317 404 318
f 320 404 403
f 320 403 321
f 322 327 323
f 323 327 332
f 324 406 407
f 324 407 408
f 324 408 409
f 324 409 410
f 324 410 325
f 325 410 411
f 325 411 412
f 325 412 326
f 326 413 327
f 326 412 414
f 326 414 330
f 326 329 415
f 326 415 413
f 327 413 328
f 327 334 333
f 327 333 332
f 328 415 329
f 328 413 415
f 330 414 335
f 330 335 331
f 335 414 340
f 335 340 336
f 336 340 337
f 338 340 416
f 338 416 343
f 340 414 416
f 341 417 342
f 341 343 416
f 341 416 418
f 341 418 419
f 341 419 417
f 342 420 344
f 342 417 420
f 344 420 421
f 344 421 412
f 344 412 422
f 344 422 345
f 345 423 424
f 345 424 425
f 345 425 426
f 345 426 427
f 345 427 428
f 345 428 346
f 345 422 429
f 345 429 430
f 345 430 423
f 346 431 432
f 346 432 348
f 346 348 347
f 346 428 433
f 346 433 434
f 346 434 431
f 348 432 435
f 348 435 350
f 350 353 352
f 350 352 351
f 350 435 355
f 350 355 353
f 355 435 436
f 355 436 365
f 356 358 437
f 356 437 438
f 356 438 357
f 357 438 359
f 358 364 370
f 358 370 439
f 358 439 440
f 358 440 437
f 359 438 441
f 359 441 360
f 360 441 442
f 360 442 389
f 360 389 361
f 361 388 387
f 361 387 443
f 361 443 362
f 362 443 444
f 362 444 385
f 362 385 382
f 362 382 381
f 362 381 363
f 364 376 445
f 364 445 370
f 365 446 366
f 365 436 447
f 365 447 448
f 365 448 449
f 365 449 450
f 365 450 451
f 365 451 446
f 366 446 451
f 366 451 367
f 367 370 368
f 367 451 450
f 367 450 449
f 367 449 448
f 367 448 447
f 367 447 492
f 367 492 513
f 367 513 507
f 367 507 472
f 367 472 471
f 367 471 505
f 367 505 466
f 367 466 504
f 367 504 517
f 367 517 519
f 367 519 518
f 367 518 514
f 367 514 500
f 367 500 499
f 367 499 461
f 367 461 455
f 367 455 493
f 367 493 490
f 367 490 489
f 367 489 438
f 367 438 437
f 367 437 440
f 367 440 439
f 367 439 370
f 368 370 369
f 370 374 372
f 370 445 452
f 370 452 374
f 373 374 377
f 373 377 375
f 374 378 377
f 374 452 378
f 376 378 452
f 376 452 445
f 382 385 383
f 383 385 384
f 386 443 387
f 386 444 443
f 389 442 390
f 390 453 395
f 390 395 391
f 390 442 454
f 390 454 455
f 390 455 456
f 390 456 457
f 390 457 453
f 394 399 458
f 394 458 459
f 394 459 400
f 395 460 396
f 395 453 456
f 395 456 461
f 395 461 460
f 396 462 463
f 396 463 397
f 396 460 462
f 397 463 458
f 397 458 398
f 398 458 399
f 400 459 464
f 400 464 401
f 401 464 465
f 401 465 466
f 401 466 467
f 401 467 402
f 402 468 469
f 402 469 405
f 402 467 468
f 403 470 406
f 403 404 470
f 404 405 470
f 405 469 470
f 406 470 469
f 406 469 407
f 407 469 468
f 407 468 408
f 408 468 409
f 409 467 410
f 409 468 467
f 410 467 471
f 410 471 472
f 410 472 411
f 411 472 473
f 411 473 474
f 411 474 429
f 411 429 412
f 412 475 416
f 412 416 414
f 412 429 476
f 412 476 422
f 412 421 475
f 416 475 419
f 416 419 418
f 417 421 420
f 417 419 475
f 417 475 421
f 422 476 429
f 423 430 477
f 423 477 424
f 424 478 425
f 424 477 478
f 425 479 481
f 425 481 426
f 425 478 480
f 425 480 479
f 426 481 427
f 427 481 482
f 427 482 428
f 428 482 433
f 429 474 477
f 429 477 430
f 431 483 432
f 431 434 484
f 431 484 485
f 431 485 486
f 431 486 483
f 432 487 435
f 432 483 447
f 432 447 487
f 433 482 488
f 433 488 434
f 434 488 485
f 434 485 484
f 435 487 436
f 436 487 447
f 438 489 442
f 438 442 441
f 442 489 490
f 442 490 491
f 442 491 454
f 447 483 486
f 447 486 492
f 453 457 456
f 454 491 455
f 455 461 456
f 455 491 493
f 458 463 494
f 458 494 459
f 459 494 495
f 459 495 496
f 459 496 497
f 459 497 498
f 459 498 464
f 460 499 500
f 460 500 514
f 460 514 501
f 460 501 494
f 460 494 463
f 460 463 462
f 460 461 499
f 464 498 502
f 464 502 503
f 464 503 465
f 465 503 466
f 466 505 467
f 466 503 502
f 466 502 506
f 466 506 504
f 467 505 471
f 472 507 485
f 472 485 488
f 472 488 482
f 472 482 508
f 472 508 473
f 473 508 481
f 473 481 509
f 473 509 474
f 474 509 510
f 474 510 477
f 477 510 511
f 477 511 509
f 477 509 480
f 477 480 478
f 479 480 509
f 479 509 481
f 481 508 482
f 485 507 512
f 485 512 486
f 486 512 513
f 486 513 492
f 490 493 491
f 494 501 514
f 494 514 515
f 494 515 495
f 495 497 496
f 495 515 516
f 495 516 497
f 497 516 517
f 497 517 504
f 497 504 498
f 498 504 506
f 498 506 502
f 507 513 512
f 509 511 510
f 514 518 515
f 515 518 519
f 515 519 516
f 516 519 517

