# https://github.com/mikedh/trimesh
v 0.00432168 -0.04772265 0.00958285
v 0.00289540 -0.04772265 0.00958285
v 0.01169941 -0.05263615 0.00958285
v 0.00678092 -0.04772265 0.00957901
v 0.00289540 -0.04527123 0.00956556
v 0.00289540 -0.07232212 0.00958285
v 0.01188330 -0.05263615 0.00958093
v 0.01169941 -0.05018473 0.00957709
v 0.01188330 -0.05509823 0.00958285
v 0.00432168 -0.04527123 0.00954636
v 0.00289540 -0.00345853 0.00690212
v 0.00289540 -0.07477354 0.00958093
v 0.00432168 -0.07477354 0.00958285
v 0.01188330 -0.05018473 0.00956364
v 0.01169941 -0.01329618 0.00700006
v 0.01188330 -0.07969770 0.00958285
v 0.00289540 -0.00099645 0.00672545
v 0.00289540 -0.07723562 0.00952716
v 0.00432168 -0.07723562 0.00957901
v 0.00678092 -0.07723562 0.00958285
v 0.01188330 -0.01329618 0.00697701
v 0.00289540 0.00144431 0.00645277
v 0.01169941 -0.07969770 0.00958285
v 0.01188330 -0.08215978 0.00952908
v 0.00289540 -0.09199743 0.00677538
v 0.00432168 -0.09199743 0.00699237
v 0.00678092 -0.09445951 0.00687908
v 0.01169941 -0.09691093 0.00697701
v 0.00678092 -0.07969770 0.00950604
v 0.01169941 -0.08215978 0.00952524
v 0.00924016 -0.07969770 0.00958093
v 0.01188330 -0.01063160 0.00605527
v 0.00289540 0.00810578 0.00501831
v 0.00289540 0.00637913 0.00554255
v 0.00289540 0.00391705 0.00614553
v 0.01188330 -0.09691093 0.00698085
v 0.00289540 -0.09409713 0.00567697
v 0.00429176 -0.09456610 0.00596886
v 0.01188330 -0.09941564 0.00586708
v 0.01188330 -0.01062094 0.00604951
v 0.00289540 0.00846817 0.00480900
v 0.00289540 -0.09481124 0.00346288
v 0.00509156 -0.09597300 0.00529868
v 0.00678092 -0.09648460 0.00572114
v 0.01179883 -0.09941564 0.00583444
v 0.01188330 -0.09954355 0.00576339
v 0.01188330 -0.00932062 0.00346288
v 0.00815352 0.00825500 -0.00465035
v 0.00803738 0.00846817 -0.00442760
v 0.00779101 0.00846817 -0.00361147
v 0.00694898 0.00846817 -0.00147035
v 0.00596616 0.00846817 0.00056516
v 0.00580690 0.00846817 0.00085512
v 0.00526050 0.00846817 0.00178070
v 0.00397149 0.00846817 0.00353969
v 0.00362130 0.00846817 0.00399864
v 0.00289540 0.00846817 -0.00745974
v 0.00289540 -0.09457676 0.00101259
v 0.01188330 -0.10017239 -0.00262828
v 0.01188330 -0.10036424 0.00005052
v 0.01188330 -0.10041753 0.00246241
v 0.01188330 -0.10036424 0.00346288
v 0.00970386 -0.09861627 0.00542350
v 0.01188330 -0.00889429 -0.00391488
v 0.01051950 -0.00199834 -0.00495376
v 0.00815352 0.00825500 -0.00560858
v 0.00803738 0.00846817 -0.00511698
v 0.00432168 0.00846817 -0.00745974
v 0.00289540 -0.04527123 -0.01001372
v 0.00289540 -0.09390528 -0.00143386
v 0.01188330 -0.09969276 -0.00423173
v 0.01188330 -0.00940589 -0.00499408
v 0.01051950 -0.00199834 -0.00533973
v 0.00727629 0.00846817 -0.00628260
v 0.00782885 0.00846817 -0.00581597
v 0.01068052 -0.00345853 -0.00575452
v 0.00836117 0.00637913 -0.00601760
v 0.00470002 0.00846817 -0.00741557
v 0.01188330 -0.05036592 -0.01002717
v 0.01169941 -0.05018473 -0.01002717
v 0.00432168 -0.04527123 -0.00998876
v 0.00678092 -0.04772265 -0.01003101
v 0.00289540 -0.04629443 -0.01003293
v 0.00289540 -0.09286076 -0.00430278
v 0.01188330 -0.09890405 -0.00543191
v 0.00289540 -0.09249838 -0.00514771
v 0.01188330 -0.01089805 -0.00636133
v 0.00678092 0.00637913 -0.00717553
v 0.00695953 0.00846817 -0.00651303
v 0.01188330 -0.01347738 -0.00726963
v 0.00678092 0.00391705 -0.00738677
v 0.01188330 -0.05282800 -0.01003485
v 0.01169941 -0.05263615 -0.01003485
v 0.00924016 -0.05018473 -0.01003485
v 0.01188330 -0.01575826 -0.00745782
v 0.00432168 -0.04772265 -0.01003485
v 0.00289540 -0.04772265 -0.01003485
v 0.01188330 -0.09775295 -0.00628260
v 0.00289540 -0.09175229 -0.00627300
v 0.01188330 -0.07741681 -0.01003485
v 0.00289540 -0.07232212 -0.01003485
v 0.01188330 -0.09464071 -0.00730035
v 0.00289540 -0.09064382 -0.00693742
v 0.00289540 -0.08953536 -0.00739061
v 0.00678092 -0.09199743 -0.00726963
v 0.01188330 -0.07987889 -0.01003293
v 0.00924016 -0.07723562 -0.01003485
v 0.00432168 -0.07477354 -0.01003293
v 0.00289540 -0.07335598 -0.01003293
v 0.01188330 -0.08234097 -0.00990043
v 0.00432168 -0.07723562 -0.00993691
v 0.01169941 -0.08215978 -0.00991771
v 0.00289540 -0.07580740 -0.00998876
v 0.00924016 -0.07969770 -0.01002140
v 0.00678092 -0.07723562 -0.01002909
v 0.00289540 -0.07477354 -0.01002909
v 0.01188330 -0.08215978 -0.00992731
f 1 2 6
f 1 6 13
f 1 13 20
f 1 20 23
f 1 23 16
f 1 16 9
f 1 9 3
f 1 3 4
f 1 4 5
f 1 5 2
f 2 5 11
f 2 11 17
f 2 17 22
f 2 22 35
f 2 35 34
f 2 34 33
f 2 33 41
f 2 41 57
f 2 57 69
f 2 69 83
f 2 83 97
f 2 97 101
f 2 101 109
f 2 109 116
f 2 116 113
f 2 113 104
f 2 104 103
f 2 103 99
f 2 99 86
f 2 86 84
f 2 84 70
f 2 70 58
f 2 58 42
f 2 42 37
f 2 37 25
f 2 25 18
f 2 18 12
f 2 12 6
f 3 7 8
f 3 8 4
f 3 9 7
f 4 8 10
f 4 10 5
f 5 10 11
f 6 12 13
f 7 14 8
f 7 9 16
f 7 16 24
f 7 24 36
f 7 36 39
f 7 39 46
f 7 46 62
f 7 62 61
f 7 61 60
f 7 60 59
f 7 59 71
f 7 71 85
f 7 85 98
f 7 98 102
f 7 102 110
f 7 110 117
f 7 117 106
f 7 106 100
f 7 100 92
f 7 92 79
f 7 79 95
f 7 95 90
f 7 90 87
f 7 87 72
f 7 72 64
f 7 64 47
f 7 47 40
f 7 40 32
f 7 32 21
f 7 21 14
f 8 14 15
f 8 15 11
f 8 11 10
f 11 15 17
f 12 18 19
f 12 19 20
f 12 20 13
f 14 21 15
f 15 21 22
f 15 22 17
f 16 23 24
f 18 25 26
f 18 26 27
f 18 27 28
f 18 28 29
f 18 29 30
f 18 30 19
f 19 30 31
f 19 31 20
f 20 31 23
f 21 32 33
f 21 33 34
f 21 34 35
f 21 35 22
f 23 31 24
f 24 31 30
f 24 30 28
f 24 28 36
f 25 37 38
f 25 38 27
f 25 27 26
f 27 38 39
f 27 39 28
f 28 39 36
f 28 30 29
f 32 40 33
f 33 40 41
f 37 42 43
f 37 43 44
f 37 44 38
f 38 44 45
f 38 45 39
f 39 45 46
f 40 47 48
f 40 48 49
f 40 49 50
f 40 50 51
f 40 51 52
f 40 52 53
f 40 53 54
f 40 54 55
f 40 55 56
f 40 56 41
f 41 56 55
f 41 55 54
f 41 54 53
f 41 53 52
f 41 52 51
f 41 51 50
f 41 50 49
f 41 49 67
f 41 67 75
f 41 75 74
f 41 74 89
f 41 89 78
f 41 78 68
f 41 68 57
f 42 58 59
f 42 59 60
f 42 60 61
f 42 61 62
f 42 62 43
f 43 62 63
f 43 63 45
f 43 45 44
f 45 63 46
f 46 63 62
f 47 64 65
f 47 65 48
f 48 65 73
f 48 73 66
f 48 66 67
f 48 67 49
f 57 68 69
f 58 70 59
f 59 70 71
f 64 72 73
f 64 73 65
f 66 74 75
f 66 75 67
f 66 73 76
f 66 76 77
f 66 77 74
f 68 78 79
f 68 79 80
f 68 80 81
f 68 81 69
f 69 81 82
f 69 82 83
f 70 84 71
f 71 84 86
f 71 86 85
f 72 87 73
f 73 87 76
f 74 77 88
f 74 88 89
f 76 87 90
f 76 90 77
f 77 90 88
f 78 89 88
f 78 88 91
f 78 91 79
f 79 92 93
f 79 93 94
f 79 94 80
f 79 91 95
f 80 94 82
f 80 82 81
f 82 94 83
f 83 94 96
f 83 96 97
f 85 86 99
f 85 99 98
f 88 90 91
f 90 95 91
f 92 100 107
f 92 107 101
f 92 101 97
f 92 97 96
f 92 96 94
f 92 94 93
f 98 99 103
f 98 103 104
f 98 104 105
f 98 105 102
f 100 106 107
f 101 108 109
f 101 107 108
f 102 105 104
f 102 104 110
f 104 111 112
f 104 112 110
f 104 113 111
f 106 114 115
f 106 115 116
f 106 116 108
f 106 108 107
f 106 117 114
f 108 116 109
f 110 112 117
f 111 114 112
f 111 113 114
f 112 114 117
f 113 116 114
f 114 116 115

