# https://github.com/mikedh/trimesh
v -0.05318912 0.06232796 0.01771022
v -0.05177066 0.06232796 0.01768569
v -0.05450259 0.06232796 0.01759106
v -0.06737170 0.03656138 0.01485378
v -0.06737170 0.03478980 0.01472410
v -0.06382657 0.03478980 0.01487831
v -0.05103157 0.06232796 0.01684803
v -0.06205195 0.03478980 0.01472760
v -0.06111523 0.03374260 0.01406168
v -0.05842447 0.06232796 0.01719150
v -0.06914427 0.03656138 0.01460143
v -0.06914427 0.03478980 0.01451030
v -0.05933854 0.06232796 0.01709337
v -0.07003364 0.03212456 0.01399159
v -0.06914427 0.03201433 0.01401612
v -0.06914427 0.02769563 0.01305579
v -0.06737170 0.03301429 0.01432805
v -0.06559914 0.03301429 0.01440516
v -0.06382657 0.03148286 0.01413528
v -0.06267368 0.03164427 0.01410024
v -0.05087923 0.06232796 0.01666928
v -0.06469330 0.02323913 0.01222865
v -0.06289603 0.02666811 0.01228122
v -0.07013040 0.03656138 0.01413528
v -0.07018187 0.03478980 0.01416332
v -0.06028144 0.06232796 0.01693916
v -0.06098553 0.06232796 0.01666227
v -0.07010776 0.03301429 0.01406519
v -0.07058126 0.02769563 0.01261769
v -0.07044745 0.02592405 0.01241791
v -0.07023128 0.02477056 0.01228473
v -0.06914427 0.02452647 0.01233730
v -0.06914427 0.02592405 0.01265624
v -0.06737170 0.02769563 0.01313290
v -0.06737170 0.03093564 0.01386191
v -0.06737170 0.02433357 0.01237586
v -0.06559914 0.02592405 0.01281045
v -0.06557032 0.02401075 0.01237936
v -0.06496093 0.02323913 0.01222865
v -0.06382657 0.03059707 0.01392499
v -0.05056630 0.06232796 0.01487831
v -0.06557032 0.02279033 0.01149614
v -0.06444831 0.02293599 0.01133141
v -0.06385951 0.02414854 0.01133141
v -0.06349100 0.02414854 0.00955796
v -0.06167109 0.06232796 0.01627324
v -0.07006246 0.03749441 0.01405117
v -0.07112065 0.02946720 0.01133141
v -0.07124829 0.02769563 0.01133141
v -0.07122770 0.02592405 0.01133141
v -0.07070273 0.02416822 0.01136997
v -0.07039186 0.02313283 0.01080569
v -0.06914427 0.02364069 0.01198331
v -0.06737170 0.02344778 0.01213753
v -0.06614264 0.02332968 0.01219360
v -0.05056424 0.06232796 0.01310486
v -0.06737170 0.02281789 0.01125080
v -0.06559914 0.02210926 0.00955796
v -0.06421362 0.02264467 0.00955796
v -0.06349100 0.02414854 -0.00994296
v -0.06197784 0.06232796 0.01563185
v -0.06297838 0.05891472 0.01580709
v -0.07007893 0.03751803 0.01310486
v -0.07023334 0.03656138 0.01310486
v -0.06219400 0.06232796 0.01487831
v -0.07091683 0.03124271 0.01133141
v -0.07159416 0.02592405 0.00955796
v -0.07140887 0.02414854 0.00955796
v -0.07057097 0.02306984 0.00955796
v -0.06914427 0.02270766 0.00955796
v -0.06737170 0.02236909 0.00955796
v -0.06914427 0.02298717 0.01109659
v -0.05056424 0.06232796 -0.01348986
v -0.06559914 0.02210926 -0.00994296
v -0.06421362 0.02264467 -0.00994296
v -0.06385951 0.02414854 -0.01171641
v -0.06289603 0.02666811 -0.01266622
v -0.05056630 0.06232796 -0.01526331
v -0.07007893 0.03752196 0.00955796
v -0.07023745 0.03656138 0.01133141
v -0.06221253 0.06232796 0.01404766
v -0.07046392 0.03478980 0.01133141
v -0.07136976 0.02769563 0.00955796
v -0.07159416 0.02592405 -0.00994296
v -0.07140887 0.02414854 -0.00994296
v -0.07057097 0.02306984 -0.00994296
v -0.06914427 0.02270766 -0.00994296
v -0.06737170 0.02236909 -0.00994296
v -0.06914427 0.02298717 -0.01148159
v -0.06737170 0.02281789 -0.01163580
v -0.06557032 0.02279033 -0.01188114
v -0.06444831 0.02293599 -0.01171641
v -0.06469330 0.02323913 -0.01261365
v -0.06111523 0.03374260 -0.01444668
v -0.05087923 0.06232796 -0.01705428
v -0.05080923 0.06232796 -0.01680193
v -0.07007893 0.03752196 -0.00994296
v -0.07023745 0.03656138 -0.01171641
v -0.06221253 0.06232796 -0.01348986
v -0.07046392 0.03478980 -0.01171641
v -0.07136976 0.02769563 -0.00994296
v -0.07091683 0.03124271 -0.01171641
v -0.07112065 0.02946720 -0.01171641
v -0.07124829 0.02769563 -0.01171641
v -0.07122770 0.02592405 -0.01171641
v -0.07039186 0.02313283 -0.01119069
v -0.07070273 0.02416822 -0.01175497
v -0.06914427 0.02364069 -0.01236831
v -0.06737170 0.02344778 -0.01252253
v -0.06614264 0.02332968 -0.01257860
v -0.06496093 0.02323913 -0.01261365
v -0.06382657 0.03148286 -0.01452028
v -0.06382657 0.03059707 -0.01430999
v -0.06267368 0.03164427 -0.01448524
v -0.06205195 0.03478980 -0.01511260
v -0.05177066 0.06232796 -0.01807069
v -0.07007893 0.03751803 -0.01348986
v -0.07023334 0.03656138 -0.01348986
v -0.06219400 0.06232796 -0.01526331
v -0.07006246 0.03749441 -0.01443617
v -0.07013040 0.03656138 -0.01452028
v -0.07018187 0.03478980 -0.01454832
v -0.07044745 0.02592405 -0.01280291
v -0.07023128 0.02477056 -0.01266973
v -0.07010776 0.03301429 -0.01445019
v -0.07058126 0.02769563 -0.01300269
v -0.06914427 0.02452647 -0.01272230
v -0.06737170 0.02433357 -0.01276086
v -0.06557032 0.02401075 -0.01276436
v -0.06382657 0.03478980 -0.01526331
v -0.06559914 0.02592405 -0.01319545
v -0.06559914 0.03301429 -0.01479016
v -0.05248916 0.06232796 -0.01809172
v -0.06167109 0.06232796 -0.01665824
v -0.06297838 0.05891472 -0.01619209
v -0.06028144 0.06232796 -0.01732416
v -0.06914427 0.03656138 -0.01498643
v -0.06914427 0.03478980 -0.01489530
v -0.07003364 0.03212456 -0.01437659
v -0.06914427 0.02592405 -0.01304124
v -0.06914427 0.02769563 -0.01344079
v -0.06737170 0.02769563 -0.01351790
v -0.05318912 0.06232796 -0.01809522
v -0.06737170 0.03478980 -0.01510910
v -0.06737170 0.03093564 -0.01424691
v -0.06737170 0.03301429 -0.01471305
v -0.05842447 0.06232796 -0.01757650
v -0.06737170 0.03656138 -0.01523878
v -0.06914427 0.03201433 -0.01440112
v -0.05394262 0.06232796 -0.01802863
v -0.05450259 0.06232796 -0.01797606
f 1 2 7
f 1 7 21
f 1 21 41
f 1 41 56
f 1 56 73
f 1 73 78
f 1 78 96
f 1 96 95
f 1 95 116
f 1 116 133
f 1 133 143
f 1 143 150
f 1 150 151
f 1 151 147
f 1 147 136
f 1 136 134
f 1 134 119
f 1 119 99
f 1 99 81
f 1 81 65
f 1 65 61
f 1 61 46
f 1 46 27
f 1 27 26
f 1 26 13
f 1 13 10
f 1 10 3
f 1 3 4
f 1 4 5
f 1 5 6
f 1 6 2
f 2 6 8
f 2 8 9
f 2 9 7
f 3 10 4
f 4 11 12
f 4 12 5
f 4 10 13
f 4 13 11
f 5 12 14
f 5 14 15
f 5 15 16
f 5 16 17
f 5 17 18
f 5 18 6
f 6 18 19
f 6 19 20
f 6 20 8
f 7 9 21
f 8 20 9
f 9 20 22
f 9 22 23
f 9 23 21
f 11 24 25
f 11 25 12
f 11 13 26
f 11 26 27
f 11 27 24
f 12 25 28
f 12 28 14
f 14 28 29
f 14 29 30
f 14 30 31
f 14 31 32
f 14 32 33
f 14 33 16
f 14 16 15
f 16 34 35
f 16 35 17
f 16 33 36
f 16 36 34
f 17 35 18
f 18 35 37
f 18 37 19
f 19 37 38
f 19 38 39
f 19 39 22
f 19 22 40
f 19 40 20
f 20 40 22
f 21 23 41
f 22 39 42
f 22 42 43
f 22 43 23
f 23 43 44
f 23 44 45
f 23 45 41
f 24 27 46
f 24 46 47
f 24 47 48
f 24 48 49
f 24 49 25
f 25 49 50
f 25 50 28
f 28 50 29
f 29 50 30
f 30 50 31
f 31 50 51
f 31 51 52
f 31 52 53
f 31 53 32
f 32 36 33
f 32 53 54
f 32 54 55
f 32 55 39
f 32 39 36
f 34 36 37
f 34 37 35
f 36 39 38
f 36 38 37
f 39 55 42
f 41 45 56
f 42 55 57
f 42 57 58
f 42 58 43
f 43 58 59
f 43 59 44
f 44 59 45
f 45 59 75
f 45 75 60
f 45 60 73
f 45 73 56
f 46 61 62
f 46 62 47
f 47 63 64
f 47 64 48
f 47 62 65
f 47 65 63
f 48 66 67
f 48 67 49
f 48 64 66
f 49 67 50
f 50 67 68
f 50 68 51
f 51 68 52
f 52 69 70
f 52 70 71
f 52 71 72
f 52 72 53
f 52 68 69
f 53 72 54
f 54 72 57
f 54 57 55
f 57 72 58
f 58 74 75
f 58 75 59
f 58 72 71
f 58 71 88
f 58 88 74
f 60 75 76
f 60 76 77
f 60 77 78
f 60 78 73
f 61 65 62
f 63 79 80
f 63 80 64
f 63 65 81
f 63 81 79
f 64 80 82
f 64 82 66
f 66 83 67
f 66 82 100
f 66 100 102
f 66 102 101
f 66 101 83
f 67 84 85
f 67 85 68
f 67 83 101
f 67 101 84
f 68 85 86
f 68 86 69
f 69 86 87
f 69 87 70
f 70 87 88
f 70 88 71
f 74 88 89
f 74 89 90
f 74 90 91
f 74 91 92
f 74 92 75
f 75 92 76
f 76 92 77
f 77 92 93
f 77 93 94
f 77 94 95
f 77 95 96
f 77 96 78
f 79 97 98
f 79 98 80
f 79 81 99
f 79 99 97
f 80 98 100
f 80 100 82
f 84 101 102
f 84 102 103
f 84 103 104
f 84 104 105
f 84 105 85
f 85 106 86
f 85 105 107
f 85 107 106
f 86 106 87
f 87 106 88
f 88 106 89
f 89 106 108
f 89 108 109
f 89 109 90
f 90 109 110
f 90 110 91
f 91 110 111
f 91 111 93
f 91 93 92
f 93 111 112
f 93 112 113
f 93 113 114
f 93 114 94
f 94 114 115
f 94 115 116
f 94 116 95
f 97 117 98
f 97 99 117
f 98 118 100
f 98 117 118
f 99 119 117
f 100 118 102
f 102 118 103
f 103 118 120
f 103 120 121
f 103 121 104
f 104 121 122
f 104 122 105
f 105 123 124
f 105 124 107
f 105 122 125
f 105 125 126
f 105 126 123
f 106 107 124
f 106 124 108
f 108 124 127
f 108 127 109
f 109 127 110
f 110 127 111
f 111 127 128
f 111 128 129
f 111 129 112
f 112 130 114
f 112 114 113
f 112 129 131
f 112 131 132
f 112 132 130
f 114 130 115
f 115 130 116
f 116 130 133
f 117 120 118
f 117 119 120
f 119 134 135
f 119 135 120
f 120 135 134
f 120 134 121
f 121 134 136
f 121 136 137
f 121 137 122
f 122 137 138
f 122 138 125
f 123 126 139
f 123 139 124
f 124 139 127
f 125 139 126
f 125 138 139
f 127 139 140
f 127 140 128
f 128 140 141
f 128 141 142
f 128 142 131
f 128 131 129
f 130 143 133
f 130 132 146
f 130 146 144
f 130 144 143
f 131 142 145
f 131 145 132
f 132 145 146
f 136 147 148
f 136 148 137
f 137 148 138
f 138 148 144
f 138 144 139
f 139 149 141
f 139 141 140
f 139 144 149
f 141 149 144
f 141 144 146
f 141 146 145
f 141 145 142
f 143 144 148
f 143 148 150
f 147 151 148
f 148 151 150

