# https://github.com/mikedh/trimesh
v 0.04175906 -0.05674479 0.01848756
v 0.04188996 -0.05599067 0.01848756
v 0.04361832 -0.05674479 0.01848756
v 0.04142915 -0.05674479 0.02601073
v 0.04188127 -0.05355865 0.02770479
v 0.04203421 -0.05525609 0.01848756
v 0.04218447 -0.05186298 0.02770479
v 0.04262124 -0.04908188 0.02940210
v 0.04619218 -0.04955443 0.01848756
v 0.04825113 -0.05674479 0.03068933
v 0.04144451 -0.05674479 0.02621740
v 0.04260722 -0.04901970 0.03038013
v 0.04232271 -0.05411735 0.01848756
v 0.04306135 -0.04767135 0.03005466
v 0.04310142 -0.04767135 0.02940210
v 0.04375991 -0.04767135 0.02171782
v 0.04383203 -0.04767135 0.02092042
v 0.04268735 -0.05272014 0.01848756
v 0.04267467 -0.05276811 0.01848756
v 0.04635914 -0.04848143 0.01848756
v 0.04825113 -0.04767135 0.03301316
v 0.04825113 -0.05674479 0.03302943
v 0.04181649 -0.05525609 0.02770479
v 0.04256247 -0.05016643 0.03042081
v 0.04200416 -0.05674479 0.02781219
v 0.04340529 -0.04767135 0.03173733
v 0.04314950 -0.04767135 0.03105059
v 0.04392686 -0.04767135 0.02002051
v 0.04381868 -0.04846988 0.01922311
v 0.04404307 -0.04767135 0.01929797
v 0.04428817 -0.04767135 0.01848756
v 0.04634311 -0.04820074 0.01848756
v 0.04825113 -0.04767135 0.03388867
v 0.04631239 -0.04767135 0.01848756
v 0.04825113 -0.05334014 0.03396352
v 0.04766677 -0.05294131 0.03370641
v 0.04737693 -0.05674479 0.03244197
v 0.04226862 -0.05355865 0.02911732
v 0.04259185 -0.05131582 0.03034596
v 0.04384539 -0.04767135 0.03244197
v 0.04208496 -0.05674479 0.02798632
v 0.04758729 -0.04767135 0.03468606
v 0.04825113 -0.04768023 0.03506686
v 0.04825113 -0.05043735 0.03475604
v 0.04606395 -0.04932437 0.03364620
v 0.04721531 -0.05674479 0.03232968
v 0.04503682 -0.04846988 0.03317752
v 0.04235477 -0.05525609 0.02886833
v 0.04253108 -0.05647653 0.02867305
v 0.04341530 -0.05187364 0.03085857
v 0.04416195 -0.04984311 0.03211487
v 0.04391284 -0.04846988 0.03232968
v 0.04428149 -0.04767135 0.03284066
v 0.04228064 -0.05674479 0.02824669
v 0.04691478 -0.04767135 0.03441592
v 0.04825113 -0.04846988 0.03511242
v 0.04825113 -0.05014955 0.03483252
v 0.04588564 -0.04846988 0.03376011
v 0.04487720 -0.04767135 0.03329143
v 0.04574673 -0.05355865 0.03219624
v 0.04596578 -0.05466185 0.03202699
v 0.04637984 -0.05674479 0.03167712
v 0.04322697 -0.05674479 0.02915149
v 0.04333583 -0.05525609 0.02971618
v 0.04489857 -0.05355865 0.03152089
v 0.04384739 -0.05355865 0.03067305
v 0.04572536 -0.04767135 0.03383497
v 0.04819302 -0.04846988 0.03508150
v 0.04825113 -0.04893443 0.03503919
v 0.04418398 -0.05525609 0.03040129
v 0.04435829 -0.05613456 0.03025971
v 0.04369246 -0.05674479 0.02952741
v 0.04360363 -0.05674479 0.02945580
f 1 2 6
f 1 6 13
f 1 13 19
f 1 19 18
f 1 18 31
f 1 31 34
f 1 34 32
f 1 32 20
f 1 20 9
f 1 9 3
f 1 3 10
f 1 10 22
f 1 22 37
f 1 37 46
f 1 46 62
f 1 62 72
f 1 72 73
f 1 73 63
f 1 63 54
f 1 54 41
f 1 41 25
f 1 25 11
f 1 11 4
f 1 4 5
f 1 5 2
f 2 5 7
f 2 7 8
f 2 8 6
f 3 9 10
f 4 11 5
f 5 11 12
f 5 12 8
f 5 8 7
f 6 8 13
f 8 12 14
f 8 14 15
f 8 15 16
f 8 16 17
f 8 17 18
f 8 18 19
f 8 19 13
f 9 20 10
f 10 21 33
f 10 33 43
f 10 43 56
f 10 56 69
f 10 69 57
f 10 57 44
f 10 44 35
f 10 35 22
f 10 20 21
f 11 23 24
f 11 24 12
f 11 25 23
f 12 24 26
f 12 26 27
f 12 27 14
f 14 27 26
f 14 26 40
f 14 40 53
f 14 53 59
f 14 59 67
f 14 67 55
f 14 55 42
f 14 42 33
f 14 33 21
f 14 21 34
f 14 34 31
f 14 31 30
f 14 30 28
f 14 28 17
f 14 17 16
f 14 16 15
f 17 28 18
f 18 28 29
f 18 29 30
f 18 30 31
f 20 32 21
f 21 32 34
f 22 35 36
f 22 36 37
f 23 25 38
f 23 38 39
f 23 39 24
f 24 39 40
f 24 40 26
f 25 41 39
f 25 39 38
f 28 30 29
f 33 42 43
f 35 44 36
f 36 45 37
f 36 44 45
f 37 45 47
f 37 47 46
f 39 41 48
f 39 48 49
f 39 49 50
f 39 50 51
f 39 51 52
f 39 52 40
f 40 52 53
f 41 54 48
f 42 55 43
f 43 55 56
f 44 57 58
f 44 58 45
f 45 58 59
f 45 59 47
f 46 60 61
f 46 61 62
f 46 47 60
f 47 59 51
f 47 51 60
f 48 54 49
f 49 54 63
f 49 63 64
f 49 64 51
f 49 51 50
f 51 65 61
f 51 61 60
f 51 59 52
f 51 64 66
f 51 66 65
f 52 59 53
f 55 67 56
f 56 67 68
f 56 68 69
f 57 69 67
f 57 67 58
f 58 67 59
f 61 65 70
f 61 70 71
f 61 71 62
f 62 71 72
f 63 73 64
f 64 73 66
f 65 66 70
f 66 73 70
f 67 69 68
f 70 73 72
f 70 72 71

