# https://github.com/mikedh/trimesh
v 0.06456422 -0.04420896 0.02918186
v 0.06456422 -0.04595347 0.02915147
v 0.06503583 -0.04168412 0.02916134
v 0.06456422 -0.04168412 0.02916134
v 0.06456422 -0.04677416 0.02907474
v 0.06523395 -0.04677416 0.02886050
v 0.06529083 -0.04507673 0.02899877
v 0.06521465 -0.04337930 0.02908841
v 0.06646180 -0.05080808 0.02692702
v 0.06503583 -0.04168412 0.02833629
v 0.06486478 -0.04070647 0.02898889
v 0.06456422 -0.04084549 0.02901396
v 0.06456422 -0.04761503 0.02899117
v 0.06456422 -0.04846935 0.02887949
v 0.06504478 -0.04846935 0.02870628
v 0.06644330 -0.05617616 0.02687004
v 0.06650357 -0.05525457 0.02693462
v 0.06655827 -0.05355714 0.02701515
v 0.06651949 -0.05186420 0.02699996
v 0.06646180 -0.05080808 0.02681079
v 0.06486478 -0.04070647 0.02846317
v 0.06459665 -0.04070647 0.02898889
v 0.06456422 -0.04084549 0.02844569
v 0.06456422 -0.04977885 0.02867133
v 0.06485304 -0.04959499 0.02860447
v 0.06559337 -0.05682643 0.02705010
v 0.06503703 -0.05796777 0.02695969
v 0.06616802 -0.05730853 0.02663833
v 0.06649860 -0.05960465 0.02525717
v 0.06659626 -0.05864943 0.02549268
v 0.06655827 -0.05355714 0.02657907
v 0.06651949 -0.05186420 0.02671126
v 0.06654833 -0.05695200 0.02504369
v 0.06643475 -0.05608423 0.02515689
v 0.06488387 -0.06262056 0.02160142
v 0.06459665 -0.04070647 0.02846317
v 0.06456422 -0.06259589 0.02157939
v 0.06456422 -0.05690267 0.02733803
v 0.06456422 -0.05805073 0.02702275
v 0.06456422 -0.05839829 0.02677356
v 0.06557965 -0.05984906 0.02544102
v 0.06459108 -0.06285376 0.02339055
v 0.06488387 -0.06342555 0.02225933
v 0.06649860 -0.05960465 0.02496696
v 0.06659626 -0.05864943 0.02490162
v 0.06488387 -0.06342555 0.02160142
v 0.06456422 -0.06360942 0.02142137
v 0.06456422 -0.06002396 0.02556941
v 0.06456422 -0.06285824 0.02339435
v 0.06456422 -0.06290309 0.02335332
v 0.06456422 -0.06356457 0.02242875
v 0.06456422 -0.06360942 0.02186504
f 1 2 3
f 1 3 4
f 1 4 12
f 1 12 23
f 1 23 37
f 1 37 47
f 1 47 52
f 1 52 51
f 1 51 50
f 1 50 49
f 1 49 48
f 1 48 40
f 1 40 39
f 1 39 38
f 1 38 24
f 1 24 14
f 1 14 13
f 1 13 5
f 1 5 2
f 2 5 6
f 2 6 7
f 2 7 8
f 2 8 3
f 3 8 9
f 3 9 20
f 3 20 10
f 3 10 21
f 3 21 11
f 3 11 12
f 3 12 4
f 5 13 6
f 6 13 14
f 6 14 15
f 6 15 16
f 6 16 17
f 6 17 7
f 7 17 18
f 7 18 8
f 8 18 19
f 8 19 9
f 9 19 32
f 9 32 20
f 10 20 21
f 11 21 36
f 11 36 22
f 11 22 12
f 12 22 36
f 12 36 23
f 14 24 25
f 14 25 15
f 15 25 16
f 16 26 27
f 16 27 28
f 16 28 29
f 16 29 30
f 16 30 17
f 16 25 26
f 17 30 18
f 18 31 32
f 18 32 19
f 18 30 45
f 18 45 31
f 20 32 33
f 20 33 34
f 20 34 35
f 20 35 21
f 21 35 37
f 21 37 36
f 23 36 37
f 24 38 26
f 24 26 25
f 26 38 27
f 27 38 39
f 27 39 40
f 27 40 41
f 27 41 29
f 27 29 28
f 29 41 42
f 29 42 43
f 29 43 46
f 29 46 44
f 29 44 45
f 29 45 30
f 31 45 32
f 32 45 33
f 33 45 35
f 33 35 34
f 35 45 46
f 35 46 47
f 35 47 37
f 40 48 41
f 41 48 49
f 41 49 42
f 42 49 50
f 42 50 43
f 43 50 51
f 43 51 52
f 43 52 47
f 43 47 46
f 44 46 45

