# https://github.com/mikedh/trimesh
v 0.05721096 -0.06346459 0.00881786
v 0.05721096 -0.06644260 -0.00378634
v 0.05721096 -0.07429774 0.00881786
v 0.05729743 -0.06354296 0.00881786
v 0.06308265 -0.05096218 0.00480194
v 0.06301942 -0.05096218 0.00480194
v 0.06223560 -0.05020462 0.00397161
v 0.06145271 -0.04945489 0.00298953
v 0.06126117 -0.04923285 0.00185940
v 0.06126117 -0.04923285 0.00118206
v 0.06557916 -0.05016805 -0.00083886
v 0.06557916 -0.05186342 -0.00111769
v 0.05881115 -0.07049948 -0.00378634
v 0.05721096 -0.07507098 -0.00378634
v 0.06180324 -0.05017066 0.00009387
v 0.06287995 -0.04927203 -0.00033548
v 0.06388228 -0.05017066 -0.00075003
v 0.05721096 -0.07483849 0.00663902
v 0.06388228 -0.07351667 0.00174959
v 0.06478790 -0.07315878 0.00143868
v 0.05726861 -0.07423244 0.00881786
v 0.05846619 -0.06520698 0.00881786
v 0.06374188 -0.05030649 0.00439603
v 0.05853035 -0.06532454 0.00881786
v 0.06374188 -0.05199142 0.00475629
v 0.06258334 -0.04924068 0.00351018
v 0.06208497 -0.04921456 0.00235784
v 0.06388228 -0.04920934 -0.00042431
v 0.06557916 -0.04923807 -0.00041321
v 0.06644387 -0.04930599 -0.00031944
v 0.06655173 -0.05016805 -0.00050327
v 0.06662518 -0.05186342 -0.00062295
v 0.05885671 -0.07121785 -0.00378634
v 0.05747781 -0.07454591 -0.00378634
v 0.06477953 -0.07315356 -0.00031327
v 0.05721096 -0.07530086 -0.00311270
v 0.05721096 -0.07515196 0.00528804
v 0.06388228 -0.07377267 0.00055900
v 0.06481021 -0.07319797 0.00055900
v 0.06498967 -0.07222097 0.00055900
v 0.06643179 -0.05781421 0.00141400
v 0.06487809 -0.07222097 0.00152134
v 0.05797619 -0.07316140 0.00881786
v 0.05793249 -0.07327111 0.00881786
v 0.05745921 -0.07401039 0.00881786
v 0.06456382 -0.07335209 0.00055900
v 0.06551315 -0.05186342 0.00389758
v 0.06519143 -0.05016805 0.00356447
v 0.06456382 -0.04953326 0.00346206
v 0.06456382 -0.04928770 0.00325973
v 0.06388228 -0.04924591 0.00347070
v 0.05871352 -0.06713224 0.00881786
v 0.06557916 -0.04923807 0.00005069
v 0.06644387 -0.04930599 -0.00013314
v 0.06656010 -0.05012886 0.00048251
v 0.06670980 -0.05186342 0.00055900
v 0.06655545 -0.05695477 -0.00040457
v 0.06650338 -0.05832883 -0.00034535
v 0.06484276 -0.07222097 -0.00035769
v 0.05860473 -0.07227061 -0.00378634
v 0.05721096 -0.07556470 -0.00225153
v 0.05721096 -0.07560650 0.00254044
v 0.05721096 -0.07563785 0.00233810
v 0.05721096 -0.07589646 0.00055900
v 0.05721096 -0.07578152 -0.00103996
v 0.06648850 -0.05820605 0.00055900
v 0.06659636 -0.05695477 0.00055900
v 0.06646805 -0.05695477 0.00148310
v 0.06629883 -0.05356141 0.00257868
v 0.06620864 -0.05525939 0.00245284
v 0.06610915 -0.05695477 0.00233070
v 0.05812681 -0.07222359 0.00881786
v 0.05799757 -0.07303078 0.00881786
v 0.06526117 -0.05695477 0.00362986
v 0.06514866 -0.05865276 0.00348921
v 0.06545085 -0.05356141 0.00386181
v 0.06636112 -0.05186342 0.00273414
v 0.06648293 -0.05066699 0.00178290
v 0.06480743 -0.04930338 0.00318447
v 0.05838158 -0.07029833 0.00881786
v 0.06651175 -0.05186342 0.00188654
v 0.06651268 -0.05356141 0.00173108
v 0.06650710 -0.05525939 0.00160524
v 0.06664936 -0.05525939 0.00055900
v 0.06536066 -0.05525939 0.00376557
v 0.05815843 -0.07199632 0.00881786
v 0.05835555 -0.07052560 0.00881786
f 1 2 14
f 1 14 36
f 1 36 61
f 1 61 65
f 1 65 64
f 1 64 63
f 1 63 62
f 1 62 37
f 1 37 18
f 1 18 3
f 1 3 21
f 1 21 45
f 1 45 44
f 1 44 43
f 1 43 73
f 1 73 72
f 1 72 86
f 1 86 87
f 1 87 80
f 1 80 52
f 1 52 24
f 1 24 22
f 1 22 4
f 1 4 5
f 1 5 6
f 1 6 7
f 1 7 8
f 1 8 9
f 1 9 10
f 1 10 2
f 2 11 12
f 2 12 13
f 2 13 33
f 2 33 60
f 2 60 34
f 2 34 14
f 2 10 15
f 2 15 16
f 2 16 17
f 2 17 11
f 3 18 19
f 3 19 20
f 3 20 21
f 4 22 5
f 5 23 6
f 5 22 24
f 5 24 25
f 5 25 23
f 6 23 26
f 6 26 7
f 7 26 8
f 8 26 9
f 9 26 27
f 9 27 10
f 10 27 28
f 10 28 16
f 10 16 15
f 11 17 28
f 11 28 29
f 11 29 30
f 11 30 31
f 11 31 12
f 12 31 32
f 12 32 33
f 12 33 13
f 14 34 35
f 14 35 36
f 16 28 17
f 18 37 19
f 19 37 38
f 19 38 20
f 20 39 40
f 20 40 41
f 20 41 42
f 20 42 43
f 20 43 44
f 20 44 45
f 20 45 21
f 20 38 46
f 20 46 39
f 23 25 47
f 23 47 48
f 23 48 49
f 23 49 50
f 23 50 51
f 23 51 26
f 24 52 47
f 24 47 25
f 26 51 27
f 27 51 28
f 28 51 53
f 28 53 29
f 29 53 54
f 29 54 30
f 30 54 55
f 30 55 31
f 31 55 56
f 31 56 32
f 32 56 57
f 32 57 33
f 33 57 58
f 33 58 59
f 33 59 35
f 33 35 60
f 34 60 35
f 35 59 58
f 35 58 40
f 35 40 39
f 35 39 46
f 35 46 38
f 35 38 61
f 35 61 36
f 37 62 38
f 38 62 63
f 38 63 64
f 38 64 65
f 38 65 61
f 40 58 66
f 40 66 41
f 41 66 67
f 41 67 68
f 41 68 69
f 41 69 70
f 41 70 71
f 41 71 42
f 42 72 73
f 42 73 43
f 42 71 74
f 42 74 75
f 42 75 72
f 47 76 77
f 47 77 48
f 47 52 76
f 48 78 79
f 48 79 49
f 48 77 78
f 49 79 50
f 50 79 53
f 50 53 51
f 52 80 76
f 53 79 54
f 54 79 78
f 54 78 55
f 55 78 56
f 56 81 82
f 56 82 83
f 56 83 84
f 56 84 57
f 56 78 81
f 57 84 67
f 57 67 58
f 58 67 66
f 67 84 83
f 67 83 68
f 68 83 77
f 68 77 69
f 69 77 85
f 69 85 70
f 70 85 71
f 71 85 74
f 72 75 74
f 72 74 86
f 74 85 86
f 76 85 77
f 76 80 85
f 77 83 82
f 77 82 81
f 77 81 78
f 80 87 85
f 85 87 86

