# https://github.com/mikedh/trimesh
v 0.05370221 -0.01708151 0.02257260
v 0.05466537 -0.01708434 0.02257260
v 0.05539877 -0.01687749 0.02220336
v 0.05370221 -0.01687560 0.02220837
v 0.05278546 -0.01704562 0.02183077
v 0.05221563 -0.01792404 0.02257260
v 0.05539877 -0.01710701 0.02257260
v 0.05631019 -0.01704751 0.02182409
v 0.05643724 -0.01528594 0.01854769
v 0.05656353 -0.01353381 0.01527129
v 0.05539877 -0.01520282 0.01876489
v 0.05539877 -0.01353853 0.01527797
v 0.05416172 -0.01523965 0.01872061
v 0.05213423 -0.01686332 0.02081410
v 0.05040876 -0.01681893 0.01914416
v 0.04943876 -0.01697289 0.01860617
v 0.05104022 -0.01702106 0.02017921
v 0.04990893 -0.01736393 0.01965792
v 0.05165417 -0.01739132 0.02131032
v 0.05210912 -0.01798921 0.02257260
v 0.05575482 -0.01726664 0.02257260
v 0.05721096 -0.01686332 0.02066874
v 0.05703978 -0.01593295 0.01915669
v 0.05721096 -0.01806289 0.02245564
v 0.05721096 -0.01763501 0.02187338
v 0.05721096 -0.01708623 0.02106722
v 0.05721096 -0.01581771 0.01879162
v 0.05721096 -0.01519243 0.01766384
v 0.05721096 -0.01504697 0.01740070
v 0.05721096 -0.01409014 0.01565640
v 0.05721096 -0.01333357 0.01426130
v 0.05711586 -0.01323439 0.01416523
v 0.05711738 -0.01317110 0.01403909
v 0.05549614 -0.01298597 0.01403909
v 0.05539420 -0.01298314 0.01403909
v 0.05539877 -0.01302281 0.01413265
v 0.05443180 -0.01364243 0.01508667
v 0.05380035 -0.01345258 0.01406248
v 0.05239822 -0.01521509 0.01708492
v 0.05063472 -0.01519054 0.01544839
v 0.04943876 -0.01651290 0.01749844
v 0.04943876 -0.01756417 0.01949920
v 0.04943876 -0.01799016 0.02009400
v 0.05079828 -0.01852194 0.02210311
v 0.05205510 -0.01802511 0.02257260
v 0.05681763 -0.01793065 0.02257260
v 0.05721096 -0.01601984 0.01915502
v 0.05721096 -0.01818285 0.02257260
v 0.05721096 -0.01325800 0.01411678
v 0.05721096 -0.01322778 0.01403909
v 0.05382317 -0.01343652 0.01403909
v 0.05375699 -0.01345919 0.01403909
v 0.04955288 -0.01505452 0.01403909
v 0.04943876 -0.01509892 0.01403909
v 0.04943876 -0.01548146 0.01500396
v 0.04943876 -0.01833303 0.02057017
v 0.04943876 -0.01898948 0.02145234
v 0.04966699 -0.01892053 0.02157431
v 0.04943876 -0.01918406 0.02171131
v 0.05033725 -0.01920012 0.02257260
v 0.05721096 -0.02141790 0.02257260
v 0.05721096 -0.01560614 0.01403909
v 0.04943876 -0.01731009 0.01403909
v 0.04943876 -0.01983391 0.02257260
v 0.04943876 -0.02260708 0.02257260
v 0.05654071 -0.02263259 0.01403909
v 0.05469960 -0.02263259 0.01403909
v 0.04943876 -0.01752167 0.01435236
v 0.05527095 -0.02263259 0.01449521
v 0.05539877 -0.02263259 0.01453197
v 0.05621128 -0.02263259 0.01418277
f 1 2 3
f 1 3 4
f 1 4 5
f 1 5 6
f 1 6 20
f 1 20 45
f 1 45 60
f 1 60 64
f 1 64 65
f 1 65 61
f 1 61 48
f 1 48 46
f 1 46 21
f 1 21 7
f 1 7 2
f 2 7 3
f 3 7 8
f 3 8 9
f 3 9 10
f 3 10 11
f 3 11 4
f 4 11 12
f 4 12 13
f 4 13 5
f 5 13 14
f 5 14 15
f 5 15 16
f 5 16 17
f 5 17 18
f 5 18 19
f 5 19 20
f 5 20 6
f 7 21 8
f 8 22 23
f 8 23 9
f 8 21 24
f 8 24 25
f 8 25 26
f 8 26 22
f 9 23 27
f 9 27 10
f 10 27 28
f 10 28 29
f 10 29 30
f 10 30 31
f 10 31 32
f 10 32 33
f 10 33 34
f 10 34 35
f 10 35 36
f 10 36 12
f 10 12 11
f 12 36 13
f 13 36 35
f 13 35 37
f 13 37 38
f 13 38 39
f 13 39 14
f 14 39 40
f 14 40 15
f 15 40 16
f 16 18 17
f 16 40 41
f 16 41 55
f 16 55 54
f 16 54 63
f 16 63 68
f 16 68 65
f 16 65 64
f 16 64 59
f 16 59 57
f 16 57 56
f 16 56 43
f 16 43 42
f 16 42 18
f 18 42 43
f 18 43 44
f 18 44 20
f 18 20 19
f 20 44 45
f 21 46 24
f 22 26 25
f 22 25 24
f 22 24 48
f 22 48 61
f 22 61 62
f 22 62 50
f 22 50 49
f 22 49 31
f 22 31 30
f 22 30 29
f 22 29 28
f 22 28 27
f 22 27 47
f 22 47 23
f 23 47 27
f 24 46 48
f 31 49 32
f 32 49 33
f 33 49 50
f 33 50 62
f 33 62 66
f 33 66 67
f 33 67 63
f 33 63 54
f 33 54 53
f 33 53 52
f 33 52 51
f 33 51 35
f 33 35 34
f 35 51 37
f 37 51 38
f 38 51 52
f 38 52 40
f 38 40 39
f 40 53 54
f 40 54 55
f 40 55 41
f 40 52 53
f 43 56 44
f 44 56 57
f 44 57 58
f 44 58 59
f 44 59 60
f 44 60 45
f 57 59 58
f 59 64 60
f 61 65 66
f 61 66 62
f 63 67 68
f 65 67 69
f 65 69 70
f 65 70 71
f 65 71 66
f 65 68 67
f 66 71 70
f 66 70 69
f 66 69 67

