# https://github.com/mikedh/trimesh
v -0.02402751 0.08679423 0.01535552
v -0.02402751 0.08550865 0.01535261
v -0.02402751 0.08689782 0.01511126
v -0.02434840 0.08676152 0.01533807
v -0.03113480 0.08218075 0.01569574
v -0.02949431 0.08216875 0.01538751
v -0.02971785 0.08199047 0.01537006
v -0.02960517 0.08199047 0.01533517
v -0.02402751 0.08475791 0.01493389
v -0.02402751 0.08718623 0.01413133
v -0.02434840 0.08711645 0.01413133
v -0.02550666 0.08656306 0.01515488
v -0.02900937 0.08491656 0.01520141
v -0.03251389 0.08327115 0.01524502
v -0.02774205 0.08518099 0.01537297
v -0.03113480 0.08356283 0.01540205
v -0.03323498 0.08202918 0.01552418
v -0.03323498 0.08199047 0.01552418
v -0.03129884 0.08199047 0.01566957
v -0.02899044 0.08199047 0.01440175
v -0.02402751 0.08432447 0.01416331
v -0.02402751 0.08440299 0.01431161
v -0.02402751 0.08719550 0.01381146
v -0.02434840 0.08714698 0.01243315
v -0.02604567 0.08691308 -0.00792456
v -0.02567972 0.08664212 0.01413133
v -0.03279692 0.08340036 0.01413133
v -0.03323498 0.08319646 0.01413133
v -0.03323498 0.08310159 0.01453551
v -0.03323498 0.08227234 0.01546602
v -0.03323498 0.08199047 -0.01218453
v -0.02888138 0.08199047 0.01413133
v -0.02402751 0.08396355 0.01269486
v -0.02402751 0.08721949 0.01243315
v -0.02434840 0.08734270 0.00056049
v -0.02434840 0.08745393 -0.00622638
v -0.02434840 0.08750844 -0.00961982
v -0.02604567 0.08693598 -0.00961982
v -0.02700202 0.08647474 -0.00792456
v -0.03283117 0.08362062 0.00225284
v -0.02697228 0.08645784 -0.00622638
v -0.02604567 0.08687983 -0.00622638
v -0.02590145 0.08674353 0.00395102
v -0.02690918 0.08642949 -0.00333019
v -0.02667663 0.08632318 0.00734445
v -0.02774205 0.08577034 0.01073789
v -0.03283117 0.08348596 0.00903972
v -0.03323498 0.08338946 0.00463726
v -0.03323498 0.08322971 0.01266869
v -0.03323498 0.08321118 0.01358465
v -0.03123124 0.08438335 0.00056049
v -0.03323498 0.08231759 -0.01142558
v -0.03198118 0.08302744 -0.01215254
v -0.03311330 0.08199047 -0.01236481
v -0.02402751 0.08391776 0.01243315
v -0.02402751 0.08199047 -0.01113771
v -0.02402751 0.08727346 0.00903972
v -0.02402751 0.08755751 -0.00961982
v -0.02434840 0.08752044 -0.01131799
v -0.02402751 0.08743484 -0.00113768
v -0.02402751 0.08746101 -0.00283295
v -0.02402751 0.08748718 -0.00453112
v -0.02402751 0.08751226 -0.00622638
v -0.02402751 0.08753679 -0.00792456
v -0.02700202 0.08648237 -0.00961982
v -0.02619800 0.08682149 -0.01138197
v -0.03044345 0.08480316 -0.00283295
v -0.03323498 0.08343307 0.00225284
v -0.03323498 0.08342326 0.00291583
v -0.03323498 0.08340309 0.00395102
v -0.02778351 0.08605494 -0.00453112
v -0.02601322 0.08679369 -0.00113768
v -0.02593841 0.08676043 0.00225284
v -0.03323498 0.08319155 -0.00283295
v -0.03260132 0.08343525 -0.00453112
v -0.03035601 0.08477045 -0.00581057
v -0.02695696 0.08646112 -0.01085856
v -0.02686502 0.08640332 -0.01199261
v -0.02885704 0.08490130 -0.01259744
v -0.03260222 0.08199047 -0.01311503
v -0.03280413 0.08199047 -0.01282134
v -0.02402751 0.08199047 -0.01401064
v -0.02402751 0.08756024 -0.01131799
v -0.02432406 0.08686456 -0.01317900
v -0.02573380 0.08674080 -0.01272538
v -0.03042001 0.08480152 -0.00453112
v -0.03323498 0.08343689 0.00120893
v -0.03323498 0.08334639 -0.00109407
v -0.03273923 0.08351322 -0.00283295
v -0.03323498 0.08337092 -0.00072768
v -0.03033438 0.08305470 -0.01387688
v -0.03113480 0.08199047 -0.01390305
v -0.02924733 0.08199047 -0.01394667
v -0.02604567 0.08387741 -0.01392632
v -0.02434840 0.08387741 -0.01394667
v -0.02402751 0.08387741 -0.01394958
v -0.02402751 0.08690327 -0.01314992
v -0.02402751 0.08664321 -0.01352794
v -0.02487299 0.08630464 -0.01385653
v -0.03323498 0.08342435 0.00056049
v -0.02943752 0.08218075 -0.01393795
v -0.03092297 0.08199047 -0.01390887
v -0.02943752 0.08199047 -0.01394376
v -0.02402751 0.08565531 -0.01389142
v -0.02402751 0.08605712 -0.01387688
f 1 2 9
f 1 9 22
f 1 22 21
f 1 21 33
f 1 33 55
f 1 55 56
f 1 56 82
f 1 82 96
f 1 96 104
f 1 104 105
f 1 105 98
f 1 98 97
f 1 97 83
f 1 83 58
f 1 58 64
f 1 64 63
f 1 63 62
f 1 62 61
f 1 61 60
f 1 60 57
f 1 57 34
f 1 34 23
f 1 23 10
f 1 10 3
f 1 3 4
f 1 4 5
f 1 5 2
f 2 5 6
f 2 6 7
f 2 7 8
f 2 8 9
f 3 10 4
f 4 10 11
f 4 11 12
f 4 12 13
f 4 13 14
f 4 14 15
f 4 15 5
f 5 15 16
f 5 16 17
f 5 17 18
f 5 18 19
f 5 19 6
f 6 19 7
f 7 19 18
f 7 18 31
f 7 31 54
f 7 54 81
f 7 81 80
f 7 80 92
f 7 92 102
f 7 102 103
f 7 103 93
f 7 93 82
f 7 82 56
f 7 56 32
f 7 32 20
f 7 20 8
f 8 20 21
f 8 21 22
f 8 22 9
f 10 23 11
f 11 23 24
f 11 24 25
f 11 25 26
f 11 26 12
f 12 14 13
f 12 26 27
f 12 27 28
f 12 28 29
f 12 29 14
f 14 30 16
f 14 16 15
f 14 29 30
f 16 30 17
f 17 30 29
f 17 29 28
f 17 28 50
f 17 50 49
f 17 49 48
f 17 48 70
f 17 70 69
f 17 69 68
f 17 68 87
f 17 87 100
f 17 100 90
f 17 90 88
f 17 88 74
f 17 74 52
f 17 52 31
f 17 31 18
f 20 32 33
f 20 33 21
f 23 34 24
f 24 34 35
f 24 35 25
f 25 36 37
f 25 37 38
f 25 38 39
f 25 39 40
f 25 40 41
f 25 41 42
f 25 42 26
f 25 35 36
f 26 43 44
f 26 44 45
f 26 45 46
f 26 46 27
f 26 42 43
f 27 47 48
f 27 48 49
f 27 49 50
f 27 50 28
f 27 46 45
f 27 45 44
f 27 44 51
f 27 51 47
f 31 52 53
f 31 53 54
f 32 55 33
f 32 56 55
f 34 57 37
f 34 37 36
f 34 36 35
f 37 58 59
f 37 59 38
f 37 57 60
f 37 60 61
f 37 61 62
f 37 62 63
f 37 63 64
f 37 64 58
f 38 65 39
f 38 59 66
f 38 66 65
f 39 65 67
f 39 67 40
f 40 68 69
f 40 69 70
f 40 70 51
f 40 51 71
f 40 71 41
f 40 67 68
f 41 71 44
f 41 44 42
f 42 44 72
f 42 72 73
f 42 73 43
f 43 73 44
f 44 71 51
f 44 73 72
f 47 51 48
f 48 51 70
f 52 74 75
f 52 75 76
f 52 76 77
f 52 77 78
f 52 78 53
f 53 78 79
f 53 79 80
f 53 80 81
f 53 81 54
f 58 83 59
f 59 84 85
f 59 85 66
f 59 83 84
f 65 66 77
f 65 77 86
f 65 86 87
f 65 87 67
f 66 85 78
f 66 78 77
f 67 87 68
f 74 88 89
f 74 89 76
f 74 76 75
f 76 89 88
f 76 88 90
f 76 90 86
f 76 86 77
f 78 85 79
f 79 85 91
f 79 91 80
f 80 91 92
f 82 93 94
f 82 94 95
f 82 95 96
f 83 97 84
f 84 97 98
f 84 98 99
f 84 99 85
f 85 99 91
f 86 90 100
f 86 100 87
f 91 101 102
f 91 102 92
f 91 99 101
f 93 103 101
f 93 101 94
f 94 104 95
f 94 101 99
f 94 99 104
f 95 104 96
f 98 105 99
f 99 105 104
f 101 103 102

