# https://github.com/mikedh/trimesh
v -0.03323498 0.05844521 -0.01012576
v -0.03323498 0.05844751 -0.01131638
v -0.02402751 0.06207518 -0.01131638
v -0.03323498 0.05844521 0.01243418
v -0.03323498 0.05851897 -0.01176728
v -0.02402751 0.06230796 -0.01301390
v -0.02402751 0.06207518 0.01413170
v -0.03323498 0.05844982 0.01413170
v -0.03323498 0.05871487 -0.01296085
v -0.02402751 0.06259836 -0.01390982
v -0.02402751 0.06210976 0.01439399
v -0.03323498 0.05865725 0.01491268
v -0.03323498 0.05909284 -0.01367700
v -0.02852894 0.06095508 -0.01387740
v -0.03323498 0.05939246 -0.01395107
v -0.02434840 0.06256840 -0.01392750
v -0.02402751 0.06352717 -0.01402181
v -0.02402751 0.06237250 0.01530464
v -0.03323498 0.05884393 0.01529286
v -0.03323498 0.06011615 -0.01401591
v -0.02434840 0.06351795 -0.01403654
v -0.02402751 0.06521425 -0.01408075
v -0.02434840 0.06231949 0.01535474
v -0.02402751 0.06251308 0.01537537
v -0.03323498 0.05971743 0.01566124
v -0.03323498 0.06182166 -0.01408075
v -0.03113480 0.06182166 -0.01408075
v -0.02604567 0.06351795 -0.01408075
v -0.02604567 0.07539200 -0.01416327
v -0.02434840 0.07539200 -0.01414558
v -0.02402751 0.07708828 -0.01415148
v -0.02402751 0.06349490 0.01577028
v -0.02434840 0.06351795 0.01583512
v -0.03323498 0.06012307 0.01577323
v -0.03323498 0.07199941 -0.01416327
v -0.03283117 0.07199941 -0.01416327
v -0.02943752 0.07369570 -0.01416621
v -0.03113480 0.07369570 -0.01416032
v -0.02774205 0.07539200 -0.01415737
v -0.02434840 0.07708828 -0.01415148
v -0.02402751 0.07878688 -0.01411022
v -0.02402751 0.06383831 0.01585575
v -0.02604567 0.06351795 0.01593827
v -0.03113480 0.06182166 0.01593532
v -0.03323498 0.06141603 0.01593827
v -0.03323498 0.07369570 -0.01415148
v -0.02604567 0.07708828 -0.01413969
v -0.02434840 0.07878688 -0.01410727
v -0.02402751 0.08048318 -0.01405717
v -0.02402751 0.06521425 0.01594121
v -0.02774205 0.06351795 0.01594121
v -0.03283117 0.06182166 0.01594121
v -0.03323498 0.06182166 0.01594121
v -0.03113480 0.07539200 -0.01413379
v -0.03323498 0.07539200 -0.01411022
v -0.02943752 0.07708828 -0.01410138
v -0.02434840 0.08048318 -0.01405422
v -0.02402751 0.08198817 -0.01401002
v -0.02402751 0.07741095 0.01594121
v -0.03323498 0.07329237 0.01594121
v -0.03283117 0.07878688 -0.01400707
v -0.03113480 0.07878688 -0.01402770
v -0.03323498 0.07878688 -0.01400117
v -0.02431234 0.08198817 -0.01400707
v -0.02402751 0.08198817 -0.01113956
v -0.03129884 0.08198817 0.01566714
v -0.02604567 0.07708828 0.01594121
v -0.02402751 0.07878688 0.01585869
v -0.03283117 0.07369570 0.01594121
v -0.03323498 0.07369570 0.01593532
v -0.02924733 0.08198817 -0.01394813
v -0.02755186 0.08198817 -0.01396876
v -0.03323498 0.08036794 -0.01392160
v -0.03100049 0.08198817 -0.01390687
v -0.02943752 0.08198817 -0.01394518
v -0.02888138 0.08198817 0.01413170
v -0.02402751 0.08059150 0.01413170
v -0.03323498 0.08198817 0.01552567
v -0.02402751 0.07910955 0.01576439
v -0.02402751 0.08012825 0.01537243
v -0.02971785 0.08198817 0.01537243
v -0.03225610 0.08141659 -0.01388624
v -0.03113480 0.08198817 -0.01390097
v -0.03323498 0.08093490 -0.01382435
v -0.02899044 0.08198817 0.01439989
v -0.02960517 0.08198817 0.01533706
v -0.02402751 0.08027344 0.01507477
v -0.03323498 0.08198817 -0.01218577
v -0.03323498 0.08129214 -0.01361216
v -0.03260222 0.08198817 -0.01311410
v -0.03311330 0.08198817 -0.01236554
v -0.03323498 0.08173696 -0.01297854
v -0.03280413 0.08198817 -0.01281939
f 1 2 3
f 1 3 7
f 1 7 4
f 1 4 8
f 1 8 12
f 1 12 19
f 1 19 25
f 1 25 34
f 1 34 45
f 1 45 53
f 1 53 60
f 1 60 70
f 1 70 78
f 1 78 88
f 1 88 92
f 1 92 89
f 1 89 84
f 1 84 73
f 1 73 63
f 1 63 55
f 1 55 46
f 1 46 35
f 1 35 26
f 1 26 20
f 1 20 15
f 1 15 13
f 1 13 9
f 1 9 5
f 1 5 2
f 2 5 6
f 2 6 3
f 3 6 10
f 3 10 17
f 3 17 22
f 3 22 31
f 3 31 41
f 3 41 49
f 3 49 58
f 3 58 65
f 3 65 77
f 3 77 87
f 3 87 80
f 3 80 79
f 3 79 68
f 3 68 59
f 3 59 50
f 3 50 42
f 3 42 32
f 3 32 24
f 3 24 18
f 3 18 11
f 3 11 7
f 4 7 8
f 5 9 6
f 6 9 10
f 7 11 8
f 8 11 12
f 9 13 10
f 10 13 14
f 10 14 15
f 10 15 16
f 10 16 17
f 11 18 12
f 12 18 19
f 13 15 14
f 15 20 21
f 15 21 16
f 16 21 17
f 17 21 22
f 18 23 19
f 18 24 23
f 19 23 25
f 20 26 27
f 20 27 28
f 20 28 21
f 21 28 22
f 22 28 29
f 22 29 30
f 22 30 31
f 23 24 32
f 23 32 33
f 23 33 25
f 25 33 34
f 26 35 36
f 26 36 27
f 27 36 28
f 28 36 37
f 28 37 29
f 29 37 38
f 29 38 39
f 29 39 40
f 29 40 31
f 29 31 30
f 31 40 41
f 32 42 33
f 33 42 43
f 33 43 34
f 34 43 44
f 34 44 45
f 35 46 38
f 35 38 37
f 35 37 36
f 38 46 39
f 39 46 40
f 40 46 47
f 40 47 41
f 41 47 48
f 41 48 57
f 41 57 49
f 42 50 43
f 43 50 51
f 43 51 52
f 43 52 45
f 43 45 44
f 45 52 53
f 46 54 47
f 46 55 54
f 47 54 55
f 47 55 48
f 48 55 56
f 48 56 57
f 49 57 58
f 50 59 67
f 50 67 69
f 50 69 60
f 50 60 53
f 50 53 52
f 50 52 51
f 55 61 62
f 55 62 57
f 55 57 56
f 55 63 61
f 57 62 64
f 57 64 58
f 58 64 72
f 58 72 71
f 58 71 75
f 58 75 74
f 58 74 83
f 58 83 90
f 58 90 93
f 58 93 91
f 58 91 88
f 58 88 78
f 58 78 66
f 58 66 81
f 58 81 86
f 58 86 85
f 58 85 76
f 58 76 65
f 59 66 67
f 59 68 66
f 60 69 70
f 61 63 71
f 61 71 72
f 61 72 62
f 62 72 64
f 63 73 74
f 63 74 75
f 63 75 71
f 65 76 77
f 66 78 70
f 66 70 67
f 66 68 79
f 66 79 80
f 66 80 81
f 67 70 69
f 73 82 83
f 73 83 74
f 73 84 82
f 76 85 77
f 77 85 86
f 77 86 87
f 80 87 86
f 80 86 81
f 82 84 89
f 82 89 83
f 83 89 90
f 88 91 92
f 89 92 90
f 90 92 93
f 91 93 92

