# https://github.com/mikedh/trimesh
v -0.06631495 -0.07418037 0.00100351
v -0.06701271 -0.07404361 0.00245674
v -0.06701271 -0.07403437 0.00175910
v -0.06701271 -0.07400788 0.00106146
v -0.06701812 -0.07400172 0.00100351
v -0.06561719 -0.07403375 0.00100351
v -0.06631495 -0.07417852 0.00106146
v -0.06818328 -0.07378919 0.01082953
v -0.06819577 -0.07380582 0.01013076
v -0.06817869 -0.07380151 0.00943312
v -0.06814703 -0.07378488 0.00873548
v -0.06755133 -0.07385325 0.00385201
v -0.06751551 -0.07383046 0.00315437
v -0.06748010 -0.07380705 0.00245674
v -0.06740595 -0.07375777 0.00100351
v -0.06811371 -0.07376455 0.00803784
v -0.06556803 -0.07401959 0.00100351
v -0.06561719 -0.07402883 0.00106146
v -0.06631495 -0.07410337 0.00245674
v -0.06631495 -0.07414957 0.00175910
v -0.06784377 -0.07378919 0.01082953
v -0.06813245 -0.07376023 0.01131924
v -0.06850279 -0.07337952 0.01082953
v -0.06851487 -0.07337952 0.01013076
v -0.06849737 -0.07337952 0.00943312
v -0.06835365 -0.07327541 0.00385201
v -0.06834074 -0.07325200 0.00315437
v -0.06832283 -0.07322798 0.00245674
v -0.06830075 -0.07320457 0.00175910
v -0.06827242 -0.07317931 0.00100351
v -0.06807872 -0.07374175 0.00734020
v -0.06775754 -0.07353045 0.00106146
v -0.06797166 -0.07367152 0.00524729
v -0.06771755 -0.07355263 0.00100351
v -0.06527977 -0.07393396 0.00100351
v -0.06527977 -0.07392964 0.00105123
v -0.06527977 -0.07386496 0.00175910
v -0.06571717 -0.07380274 0.00385201
v -0.06638993 -0.07381013 0.00594606
v -0.06631495 -0.07397954 0.00385201
v -0.06631495 -0.07404300 0.00315437
v -0.06698438 -0.07380027 0.00797308
v -0.06727848 -0.07375346 0.00943312
v -0.06741512 -0.07371341 0.01031028
v -0.06749510 -0.07368939 0.01082953
v -0.06631495 -0.07327603 0.01152717
v -0.06795083 -0.07376023 0.01131924
v -0.06701271 -0.07386619 0.00734020
v -0.06771505 -0.07364627 0.01154194
v -0.06771005 -0.07330436 0.01218504
v -0.06826242 -0.07323660 0.01209755
v -0.06835282 -0.07343373 0.01154194
v -0.06872024 -0.07280168 0.01152717
v -0.06872732 -0.07280414 0.01082953
v -0.06872732 -0.07280106 0.01013076
v -0.06872690 -0.07279860 0.00943312
v -0.06872607 -0.07279305 0.00803784
v -0.06872440 -0.07278997 0.00734020
v -0.06871940 -0.07278443 0.00594606
v -0.06871607 -0.07278135 0.00524729
v -0.06871107 -0.07277642 0.00454965
v -0.06870274 -0.07276779 0.00385201
v -0.06868941 -0.07275609 0.00315437
v -0.06867191 -0.07274377 0.00245674
v -0.06864984 -0.07273330 0.00175910
v -0.06862359 -0.07272467 0.00106146
v -0.06862109 -0.07272406 0.00100351
v -0.06779711 -0.07349965 0.00100351
v -0.06774921 -0.07353168 0.00100351
v -0.06527977 -0.07235566 0.00100351
v -0.06527977 -0.07345037 0.00628352
v -0.06701271 -0.07354708 0.01082953
v -0.06717059 -0.07378549 0.00873548
v -0.06701271 -0.07347131 0.01152717
v -0.06527977 -0.07301421 0.01104087
v -0.06527977 -0.07296924 0.01152717
v -0.06584256 -0.07306781 0.01195325
v -0.06631495 -0.07313742 0.01205210
v -0.06701271 -0.07322921 0.01213618
v -0.06592087 -0.07268833 0.01261112
v -0.06701271 -0.07295199 0.01248500
v -0.06771005 -0.07299450 0.01253386
v -0.06771671 -0.07292427 0.01261112
v -0.06836990 -0.07260824 0.01261112
v -0.06854736 -0.07242713 0.01261112
v -0.06869982 -0.07225032 0.01261112
v -0.06874690 -0.07229344 0.01247932
v -0.06953505 -0.07049030 0.01040799
v -0.06953505 -0.07057839 0.01013076
v -0.06953505 -0.07056238 0.00986261
v -0.06876773 -0.07237476 0.00100351
v -0.06863526 -0.07269510 0.00100351
v -0.06804331 -0.07022479 0.00100351
v -0.06527977 -0.07027284 0.01261112
v -0.06527977 -0.07293844 0.01167601
v -0.06527977 -0.07280229 0.01221231
v -0.06527977 -0.07268278 0.01245432
v -0.06527977 -0.07258298 0.01261112
v -0.06675068 -0.07280476 0.01261112
v -0.06754884 -0.07290394 0.01261112
v -0.06879938 -0.07190472 0.01261112
v -0.06953505 -0.06911592 0.01261112
v -0.06953505 -0.07038065 0.01062842
v -0.06953505 -0.07051432 0.00951379
v -0.06882355 -0.07198419 0.00100351
v -0.06835115 -0.07005291 0.00100351
v -0.06875315 -0.06954037 0.00278965
v -0.06930344 -0.06795284 0.01261112
v -0.06953505 -0.06788754 0.01261112
v -0.06953505 -0.06994141 0.00950243
v -0.06900434 -0.07058948 0.00100351
v -0.06840364 -0.07002458 0.00100351
v -0.06875981 -0.06954037 0.00278965
v -0.06951172 -0.06788938 0.01261112
v -0.06890311 -0.07003813 0.00100351
v -0.06891144 -0.07008063 0.00100351
v -0.06953505 -0.06867175 0.01123970
v -0.06953505 -0.06978001 0.00967513
v -0.06953505 -0.06930689 0.01022052
v -0.06953505 -0.06911961 0.01049435
f 1 2 3
f 1 3 4
f 1 4 5
f 1 5 15
f 1 15 34
f 1 34 69
f 1 69 68
f 1 68 30
f 1 30 67
f 1 67 92
f 1 92 91
f 1 91 105
f 1 105 111
f 1 111 116
f 1 116 115
f 1 115 112
f 1 112 106
f 1 106 93
f 1 93 70
f 1 70 35
f 1 35 17
f 1 17 6
f 1 6 7
f 1 7 8
f 1 8 9
f 1 9 2
f 2 9 10
f 2 10 3
f 3 10 4
f 4 10 11
f 4 11 5
f 5 12 13
f 5 13 14
f 5 14 15
f 5 11 16
f 5 16 12
f 6 17 18
f 6 18 19
f 6 19 20
f 6 20 7
f 7 20 21
f 7 21 8
f 8 21 47
f 8 47 22
f 8 22 23
f 8 23 9
f 9 23 24
f 9 24 25
f 9 25 10
f 10 25 26
f 10 26 27
f 10 27 28
f 10 28 29
f 10 29 11
f 11 29 30
f 11 30 16
f 12 31 13
f 12 16 31
f 13 31 14
f 14 32 15
f 14 31 33
f 14 33 32
f 15 32 34
f 16 30 31
f 17 35 36
f 17 36 37
f 17 37 38
f 17 38 39
f 17 39 18
f 18 40 41
f 18 41 19
f 18 39 42
f 18 42 40
f 19 41 21
f 19 21 20
f 21 43 44
f 21 44 45
f 21 45 46
f 21 46 47
f 21 41 48
f 21 48 43
f 22 47 49
f 22 49 50
f 22 50 51
f 22 51 52
f 22 52 23
f 23 52 53
f 23 53 24
f 24 53 54
f 24 54 55
f 24 55 56
f 24 56 57
f 24 57 58
f 24 58 59
f 24 59 60
f 24 60 61
f 24 61 62
f 24 62 25
f 25 62 63
f 25 63 64
f 25 64 26
f 26 64 65
f 26 65 27
f 27 65 66
f 27 66 67
f 27 67 28
f 28 67 29
f 29 67 30
f 30 68 32
f 30 32 33
f 30 33 31
f 32 68 69
f 32 69 34
f 35 70 94
f 35 94 98
f 35 98 97
f 35 97 96
f 35 96 95
f 35 95 76
f 35 76 75
f 35 75 71
f 35 71 37
f 35 37 36
f 37 71 38
f 38 71 39
f 39 71 72
f 39 72 42
f 40 42 73
f 40 73 41
f 41 73 48
f 42 72 73
f 43 73 72
f 43 72 44
f 43 48 73
f 44 72 45
f 45 72 46
f 46 74 47
f 46 72 75
f 46 75 76
f 46 76 77
f 46 77 74
f 47 74 49
f 49 77 78
f 49 78 79
f 49 79 50
f 49 74 77
f 50 79 80
f 50 80 81
f 50 81 82
f 50 82 83
f 50 83 51
f 51 83 84
f 51 84 85
f 51 85 86
f 51 86 87
f 51 87 52
f 52 87 53
f 53 87 88
f 53 88 89
f 53 89 54
f 54 89 55
f 55 89 56
f 56 89 57
f 57 89 58
f 58 89 59
f 59 89 60
f 60 89 61
f 61 89 62
f 62 89 90
f 62 90 91
f 62 91 63
f 63 91 64
f 64 91 65
f 65 91 92
f 65 92 66
f 66 92 67
f 70 93 94
f 71 75 72
f 76 95 77
f 77 95 96
f 77 96 78
f 78 96 97
f 78 97 79
f 79 97 98
f 79 98 80
f 80 98 94
f 80 94 108
f 80 108 114
f 80 114 109
f 80 109 102
f 80 102 101
f 80 101 86
f 80 86 85
f 80 85 84
f 80 84 83
f 80 83 100
f 80 100 99
f 80 99 81
f 81 99 82
f 82 99 100
f 82 100 83
f 86 101 87
f 87 101 102
f 87 102 103
f 87 103 88
f 88 103 102
f 88 102 109
f 88 109 117
f 88 117 120
f 88 120 119
f 88 119 118
f 88 118 110
f 88 110 104
f 88 104 90
f 88 90 89
f 90 104 91
f 91 104 105
f 93 106 107
f 93 107 94
f 94 107 108
f 104 110 111
f 104 111 105
f 106 112 107
f 107 112 113
f 107 113 109
f 107 109 114
f 107 114 108
f 109 113 115
f 109 115 116
f 109 116 111
f 109 111 117
f 110 118 111
f 111 118 119
f 111 119 120
f 111 120 117
f 112 115 113

