# https://github.com/mikedh/trimesh
v -0.06527935 -0.02928387 0.00678014
v -0.06527935 -0.02837929 -0.00127943
v -0.06464507 -0.02894557 -0.00127943
v -0.06453739 -0.02904117 -0.00127943
v -0.06417895 -0.02935925 -0.00127943
v -0.06375855 -0.02969938 -0.00127943
v -0.06263307 -0.03124745 0.00678014
v -0.06527935 -0.01482907 0.00678014
v -0.06527935 -0.01487503 -0.00127943
v -0.06343108 -0.02985934 -0.00127943
v -0.06306526 -0.03000091 -0.00127943
v -0.06282483 -0.03008916 -0.00127943
v -0.06199141 -0.03038517 -0.00127943
v -0.06177310 -0.03046238 -0.00127943
v -0.06168459 -0.03049364 -0.00127943
v -0.06157396 -0.03053225 -0.00127943
v -0.06145743 -0.03057270 -0.00127943
v -0.06257554 -0.03124745 0.00665470
v -0.05503053 -0.03124745 0.00678014
v -0.06471587 -0.01450364 0.00678014
v -0.06527935 -0.01478311 0.00662867
v -0.06527935 -0.01487320 -0.00126286
v -0.06527050 -0.01486584 -0.00127943
v -0.06073169 -0.03074185 -0.00127943
v -0.06242213 -0.03124745 0.00633440
v -0.06256964 -0.03124745 0.00664208
v -0.05512198 -0.03124745 -0.00127943
v -0.05402895 -0.03020499 0.00678014
v -0.06350336 -0.01386015 0.00678014
v -0.06427187 -0.01424441 0.00666180
v -0.06462294 -0.01438781 0.00644169
v -0.06527935 -0.01463970 0.00594468
v -0.06488108 -0.01456983 0.00666180
v -0.06527935 -0.01480701 -0.00063015
v -0.06505809 -0.01462683 -0.00103250
v -0.06469670 -0.01429037 -0.00127943
v -0.05587722 -0.03124745 -0.00127943
v -0.06215957 -0.03124745 0.00595493
v -0.05332977 -0.02849512 -0.00127943
v -0.05058465 -0.02632010 0.00609063
v -0.05054925 -0.02637526 0.00664208
v -0.05054335 -0.02638996 0.00678014
v -0.06483978 -0.01427382 0.00524649
v -0.06207696 -0.01310634 0.00678014
v -0.06277910 -0.01318356 0.00524333
v -0.06527935 -0.01453490 0.00539480
v -0.06527935 -0.01448893 0.00245609
v -0.06411994 -0.01347037 0.00106050
v -0.06408454 -0.01350714 0.00036310
v -0.06404766 -0.01354391 -0.00033509
v -0.06435153 -0.01392817 -0.00103250
v -0.06400341 -0.01359907 -0.00103250
v -0.06432498 -0.01394104 -0.00127943
v -0.05125581 -0.02522799 -0.00127943
v -0.05062153 -0.02624656 0.00562595
v -0.05103307 -0.02453301 -0.00127943
v -0.05046370 -0.02592848 0.00664208
v -0.05045042 -0.02592848 0.00678014
v -0.06430580 -0.01385831 0.00454908
v -0.06348861 -0.01316517 0.00318189
v -0.06332635 -0.01294086 0.00245609
v -0.06184685 -0.01298867 0.00678014
v -0.06251654 -0.01299970 0.00500744
v -0.06443118 -0.01379212 0.00385089
v -0.06525723 -0.01442275 0.00486228
v -0.06527935 -0.01444113 0.00488595
v -0.06527935 -0.01440620 0.00327262
v -0.06488846 -0.01409732 0.00245609
v -0.06453886 -0.01374799 0.00245609
v -0.06376592 -0.01312104 0.00106050
v -0.06373200 -0.01315781 0.00036310
v -0.06338240 -0.01283239 0.00036310
v -0.06397538 -0.01362665 -0.00127943
v -0.06409929 -0.01372961 -0.00127943
v -0.06331750 -0.01290777 -0.00033509
v -0.05118501 -0.02510481 -0.00127943
v -0.05057285 -0.02036131 -0.00127943
v -0.05041944 -0.02536772 0.00678014
v -0.06259914 -0.01295741 0.00454908
v -0.06272452 -0.01289306 0.00385089
v -0.06287940 -0.01285445 0.00318189
v -0.06282483 -0.01271472 0.00245609
v -0.06340896 -0.01287468 0.00175869
v -0.06367447 -0.01312840 0.00245609
v -0.06155479 -0.01294086 0.00678014
v -0.06187193 -0.01297580 0.00664208
v -0.06527935 -0.01437127 0.00441418
v -0.06527935 -0.01439885 0.00334993
v -0.06527935 -0.01436024 0.00378541
v -0.06375855 -0.01310082 0.00175869
v -0.06341781 -0.01281952 0.00106050
v -0.06282483 -0.01256396 0.00036310
v -0.06349303 -0.01321113 -0.00107904
v -0.06350189 -0.01326445 -0.00127943
v -0.06324080 -0.01297396 -0.00087787
v -0.05056548 -0.02010207 -0.00127943
v -0.05022473 -0.02174391 0.00678014
v -0.05041207 -0.02523167 0.00678014
v -0.06282483 -0.01261912 0.00175869
v -0.06452411 -0.01374432 0.00315349
v -0.06527935 -0.01436391 0.00435738
v -0.06282483 -0.01254006 0.00106050
v -0.06142793 -0.01292064 0.00678014
v -0.06142940 -0.01290409 0.00664208
v -0.06212712 -0.01263566 0.00315349
v -0.06527935 -0.01436024 0.00385089
v -0.06212712 -0.01248858 0.00036310
v -0.06212712 -0.01259338 -0.00033509
v -0.06212712 -0.01271288 -0.00103250
v -0.06212712 -0.01275885 -0.00127943
v -0.06282483 -0.01269634 -0.00033509
v -0.06316409 -0.01302360 -0.00127943
v -0.06308739 -0.01299234 -0.00127943
v -0.05055663 -0.01964979 -0.00127943
v -0.05020998 -0.02118315 0.00678014
v -0.06212712 -0.01251432 0.00175869
v -0.06212712 -0.01246468 0.00106050
v -0.06212712 -0.01256763 0.00245609
v -0.06073169 -0.01289306 0.00678014
v -0.06142940 -0.01283055 0.00594468
v -0.06073169 -0.01250512 0.00036310
v -0.06142940 -0.01259338 -0.00033509
v -0.06118307 -0.01273310 -0.00127943
v -0.06142940 -0.01269634 -0.00103250
v -0.06142940 -0.01273678 -0.00127943
v -0.06188078 -0.01274782 -0.00127943
v -0.06282630 -0.01289490 -0.00127943
v -0.05031176 -0.02034844 0.00524649
v -0.05022031 -0.02104526 0.00664208
v -0.05056843 -0.01951925 -0.00127943
v -0.05022031 -0.02104526 0.00678014
v -0.06003398 -0.01264118 0.00315349
v -0.05794085 -0.01256947 0.00175869
v -0.06142940 -0.01277355 0.00524649
v -0.06073169 -0.01288203 0.00664208
v -0.05794085 -0.01251983 0.00106050
v -0.05724462 -0.01254925 0.00036310
v -0.06017117 -0.01290042 0.00678014
v -0.06003398 -0.01260992 -0.00033509
v -0.06073169 -0.01270001 -0.00103250
v -0.06048536 -0.01273862 -0.00127943
v -0.05029849 -0.02034844 0.00594468
v -0.05059793 -0.01927472 -0.00127943
v -0.05041944 -0.01964979 0.00454908
v -0.05030586 -0.02048633 0.00678014
v -0.05863856 -0.01270921 0.00385089
v -0.05724462 -0.01257867 0.00175869
v -0.05794085 -0.01266876 0.00315349
v -0.06003398 -0.01289122 0.00664208
v -0.05724462 -0.01252902 0.00106050
v -0.05654691 -0.01255844 0.00036310
v -0.05654691 -0.01265405 -0.00033509
v -0.06003398 -0.01290225 0.00678014
v -0.05794085 -0.01273495 -0.00103250
v -0.05794085 -0.01276988 -0.00127943
v -0.06003398 -0.01274414 -0.00127943
v -0.05032799 -0.02034844 0.00664208
v -0.05043714 -0.01964979 0.00524649
v -0.05074543 -0.01904857 -0.00127943
v -0.05082361 -0.01892171 -0.00103250
v -0.05081771 -0.01891252 -0.00033509
v -0.05078231 -0.01885737 0.00385089
v -0.05055515 -0.01920669 0.00385089
v -0.05055958 -0.01921037 0.00454908
v -0.05034126 -0.02034844 0.00678014
v -0.05654691 -0.01254925 0.00106050
v -0.05933627 -0.01285077 0.00594468
v -0.05584920 -0.01275885 0.00106050
v -0.05578282 -0.01283055 0.00034022
v -0.05590377 -0.01283974 -0.00033509
v -0.05599080 -0.01289122 -0.00103250
v -0.05602178 -0.01291145 -0.00127943
v -0.05638170 -0.01282320 -0.00127943
v -0.05654691 -0.01275517 -0.00103250
v -0.05724462 -0.01277907 -0.00127943
v -0.05947346 -0.01292432 0.00678014
v -0.05049615 -0.01989064 0.00678014
v -0.05052122 -0.01977849 0.00664208
v -0.05058908 -0.01925633 0.00524649
v -0.05050942 -0.01961302 0.00589024
v -0.05094899 -0.01873786 -0.00127943
v -0.05151837 -0.01787006 -0.00127943
v -0.05140184 -0.01804104 -0.00103250
v -0.05216741 -0.01674853 0.00385089
v -0.05272794 -0.01584212 0.00594468
v -0.05192697 -0.01707947 0.00524649
v -0.05112600 -0.01831866 0.00454908
v -0.05077641 -0.01886104 0.00454908
v -0.05215266 -0.01674302 0.00594468
v -0.05114076 -0.01832602 0.00524649
v -0.05079264 -0.01890701 0.00524649
v -0.05724462 -0.01264118 0.00245609
v -0.05654691 -0.01263015 0.00175869
v -0.05584920 -0.01280297 0.00175869
v -0.05544502 -0.01297396 0.00175869
v -0.05546715 -0.01298867 0.00106050
v -0.05545830 -0.01299051 0.00227780
v -0.05548633 -0.01300705 0.00055796
v -0.05550698 -0.01302912 0.00009250
v -0.05555418 -0.01306589 -0.00033509
v -0.05579609 -0.01306956 -0.00127943
v -0.05654691 -0.01279194 -0.00127943
v -0.05934217 -0.01293535 0.00678014
v -0.05933627 -0.01292064 0.00664208
v -0.05863856 -0.01282687 0.00524649
v -0.05052860 -0.01979503 0.00678014
v -0.05061120 -0.01929678 0.00562122
v -0.05217478 -0.01679633 0.00664208
v -0.05198302 -0.01716588 -0.00127943
v -0.05198007 -0.01716221 -0.00103250
v -0.05219101 -0.01678530 0.00106050
v -0.05274564 -0.01586970 0.00385089
v -0.05273384 -0.01585131 0.00524649
v -0.05297722 -0.01546337 0.00594468
v -0.05330174 -0.01496328 0.00664208
v -0.05250225 -0.01619145 0.00594468
v -0.05297870 -0.01546337 0.00664208
v -0.05273531 -0.01585867 0.00664208
v -0.05252438 -0.01620615 0.00664208
v -0.05893653 -0.01298315 0.00678014
v -0.05654691 -0.01273678 0.00245609
v -0.05580642 -0.01292064 0.00248844
v -0.05468831 -0.01361745 0.00385089
v -0.05393160 -0.01429037 0.00664208
v -0.05396700 -0.01426831 0.00524649
v -0.05554533 -0.01303279 0.00274326
v -0.05475174 -0.01369100 0.00504058
v -0.05470011 -0.01364687 0.00454908
v -0.05457326 -0.01416351 -0.00103250
v -0.05434019 -0.01397965 0.00385089
v -0.05436822 -0.01401091 0.00315349
v -0.05405255 -0.01436024 0.00315349
v -0.05355988 -0.01528503 -0.00103250
v -0.05357020 -0.01529607 -0.00127943
v -0.05412336 -0.01468382 -0.00127943
v -0.05489630 -0.01381418 -0.00103250
v -0.05479304 -0.01395391 -0.00127943
v -0.05491990 -0.01383073 -0.00127943
v -0.05526802 -0.01351266 -0.00127943
v -0.05552468 -0.01328651 -0.00127943
v -0.05564121 -0.01313759 -0.00103250
v -0.05567366 -0.01316333 -0.00127943
v -0.05068348 -0.01944570 0.00678014
v -0.05127204 -0.01839588 0.00678014
v -0.05093572 -0.01895297 0.00664208
v -0.05095342 -0.01895297 0.00678014
v -0.05089294 -0.01906328 0.00678014
v -0.05257158 -0.01614916 0.00678014
v -0.05217773 -0.01682207 0.00678014
v -0.05194910 -0.01721920 0.00678014
v -0.05214676 -0.01694158 -0.00127943
v -0.05276334 -0.01588808 0.00245609
v -0.05275301 -0.01587889 0.00315349
v -0.05330469 -0.01496512 0.00678014
v -0.05330617 -0.01498167 0.00594468
v -0.05358200 -0.01461396 0.00664208
v -0.05298902 -0.01546337 0.00678014
v -0.05887457 -0.01299418 0.00678014
v -0.05654691 -0.01286364 0.00315349
v -0.05393897 -0.01426095 0.00594468
v -0.05394487 -0.01430324 0.00678014
v -0.05387554 -0.01435840 0.00678014
v -0.05359528 -0.01461764 0.00678014
v -0.05358938 -0.01463234 0.00594468
v -0.05361888 -0.01465441 0.00524649
v -0.05364691 -0.01468382 0.00454908
v -0.05512346 -0.01362665 0.00526305
v -0.05487270 -0.01373696 0.00550604
v -0.05445230 -0.01406974 0.00664208
v -0.05458358 -0.01418006 -0.00127943
v -0.05423546 -0.01456064 -0.00127943
v -0.05338877 -0.01509566 0.00315349
v -0.05289609 -0.01602046 -0.00103250
v -0.05290642 -0.01603149 -0.00127943
v -0.05224411 -0.01681840 -0.00127943
v -0.05256273 -0.01633853 -0.00033509
v -0.05278251 -0.01590831 0.00175869
v -0.05331649 -0.01500373 0.00524649
v -0.05852056 -0.01308059 0.00678014
v -0.05813704 -0.01298315 0.00579005
v -0.05767239 -0.01304015 0.00549421
v -0.05533734 -0.01367813 0.00580188
v -0.05445230 -0.01409548 0.00678014
v -0.05333567 -0.01503315 0.00454908
v -0.05336074 -0.01506441 0.00385089
v -0.05515001 -0.01391530 0.00678014
v -0.05286807 -0.01598920 -0.00033509
v -0.05279579 -0.01615467 -0.00127943
v -0.05259370 -0.01638082 -0.00127943
v -0.05258485 -0.01636979 -0.00103250
v -0.05794085 -0.01322400 0.00678014
f 1 2 3
f 1 3 4
f 1 4 5
f 1 5 6
f 1 6 7
f 1 7 19
f 1 19 28
f 1 28 42
f 1 42 58
f 1 58 78
f 1 78 98
f 1 98 97
f 1 97 115
f 1 115 131
f 1 131 145
f 1 145 165
f 1 165 177
f 1 177 206
f 1 206 243
f 1 243 247
f 1 247 246
f 1 246 244
f 1 244 250
f 1 250 249
f 1 249 248
f 1 248 257
f 1 257 254
f 1 254 263
f 1 263 262
f 1 262 261
f 1 261 283
f 1 283 286
f 1 286 291
f 1 291 279
f 1 279 258
f 1 258 220
f 1 220 203
f 1 203 176
f 1 176 153
f 1 153 138
f 1 138 119
f 1 119 103
f 1 103 85
f 1 85 62
f 1 62 44
f 1 44 29
f 1 29 20
f 1 20 8
f 1 8 21
f 1 21 32
f 1 32 46
f 1 46 66
f 1 66 87
f 1 87 101
f 1 101 106
f 1 106 89
f 1 89 88
f 1 88 67
f 1 67 47
f 1 47 34
f 1 34 22
f 1 22 9
f 1 9 2
f 2 9 23
f 2 23 36
f 2 36 53
f 2 53 74
f 2 74 73
f 2 73 94
f 2 94 112
f 2 112 113
f 2 113 127
f 2 127 110
f 2 110 126
f 2 126 125
f 2 125 123
f 2 123 141
f 2 141 156
f 2 156 155
f 2 155 175
f 2 175 202
f 2 202 173
f 2 173 172
f 2 172 201
f 2 201 242
f 2 242 240
f 2 240 239
f 2 239 238
f 2 238 237
f 2 237 270
f 2 270 271
f 2 271 235
f 2 235 234
f 2 234 274
f 2 274 288
f 2 288 289
f 2 289 275
f 2 275 251
f 2 251 209
f 2 209 182
f 2 182 181
f 2 181 159
f 2 159 143
f 2 143 130
f 2 130 114
f 2 114 96
f 2 96 77
f 2 77 56
f 2 56 76
f 2 76 54
f 2 54 39
f 2 39 27
f 2 27 37
f 2 37 24
f 2 24 17
f 2 17 16
f 2 16 15
f 2 15 14
f 2 14 13
f 2 13 12
f 2 12 11
f 2 11 10
f 2 10 6
f 2 6 5
f 2 5 4
f 2 4 3
f 6 10 7
f 7 10 11
f 7 11 12
f 7 12 13
f 7 13 14
f 7 14 15
f 7 15 16
f 7 16 17
f 7 17 18
f 7 18 26
f 7 26 25
f 7 25 38
f 7 38 37
f 7 37 27
f 7 27 19
f 8 20 21
f 9 22 23
f 17 24 25
f 17 25 26
f 17 26 18
f 19 27 28
f 20 29 30
f 20 30 31
f 20 31 32
f 20 32 33
f 20 33 21
f 21 33 32
f 22 34 23
f 23 34 35
f 23 35 36
f 24 37 38
f 24 38 25
f 27 39 40
f 27 40 41
f 27 41 42
f 27 42 28
f 29 43 32
f 29 32 31
f 29 31 30
f 29 44 45
f 29 45 43
f 32 43 46
f 34 47 48
f 34 48 35
f 35 48 36
f 36 48 49
f 36 49 50
f 36 50 51
f 36 51 52
f 36 52 53
f 39 54 55
f 39 55 40
f 40 55 56
f 40 56 57
f 40 57 58
f 40 58 41
f 41 58 42
f 43 45 59
f 43 59 60
f 43 60 61
f 43 61 46
f 44 62 63
f 44 63 45
f 45 63 60
f 45 60 59
f 46 61 64
f 46 64 65
f 46 65 66
f 47 67 68
f 47 68 48
f 48 69 70
f 48 70 71
f 48 71 49
f 48 68 69
f 49 71 50
f 50 71 72
f 50 72 52
f 50 52 51
f 52 73 74
f 52 74 53
f 52 72 75
f 52 75 73
f 54 76 55
f 55 76 56
f 56 58 57
f 56 77 58
f 58 77 78
f 60 63 61
f 61 63 79
f 61 79 80
f 61 80 81
f 61 81 82
f 61 82 83
f 61 83 84
f 61 84 65
f 61 65 64
f 62 85 86
f 62 86 63
f 63 86 79
f 65 87 66
f 65 84 87
f 67 88 69
f 67 69 68
f 69 88 89
f 69 89 90
f 69 90 91
f 69 91 70
f 70 91 72
f 70 72 71
f 72 91 92
f 72 92 75
f 73 93 94
f 73 75 93
f 75 92 95
f 75 95 93
f 77 96 97
f 77 97 98
f 77 98 78
f 79 86 80
f 80 86 82
f 80 82 81
f 82 99 83
f 82 86 99
f 83 91 90
f 83 90 100
f 83 100 101
f 83 101 84
f 83 99 102
f 83 102 91
f 84 101 87
f 85 103 104
f 85 104 86
f 86 104 105
f 86 105 102
f 86 102 99
f 89 106 90
f 90 106 101
f 90 101 100
f 91 102 92
f 92 102 117
f 92 117 107
f 92 107 108
f 92 108 109
f 92 109 110
f 92 110 111
f 92 111 95
f 93 95 94
f 94 95 112
f 95 111 113
f 95 113 112
f 96 114 115
f 96 115 97
f 102 116 117
f 102 105 118
f 102 118 116
f 103 119 104
f 104 119 120
f 104 120 105
f 105 120 118
f 107 117 121
f 107 121 139
f 107 139 122
f 107 122 123
f 107 123 124
f 107 124 108
f 108 124 125
f 108 125 126
f 108 126 109
f 109 126 110
f 110 127 111
f 111 127 113
f 114 128 129
f 114 129 115
f 114 130 128
f 115 129 131
f 116 132 146
f 116 146 148
f 116 148 133
f 116 133 136
f 116 136 117
f 116 118 134
f 116 134 135
f 116 135 132
f 117 136 151
f 117 151 137
f 117 137 121
f 118 120 134
f 119 138 135
f 119 135 134
f 119 134 120
f 121 137 152
f 121 152 139
f 122 139 140
f 122 140 123
f 123 125 124
f 123 140 141
f 128 142 129
f 128 130 143
f 128 143 144
f 128 144 142
f 129 142 131
f 131 142 145
f 132 135 146
f 133 147 150
f 133 150 136
f 133 148 147
f 135 138 149
f 135 149 146
f 136 150 151
f 137 151 152
f 138 153 149
f 139 152 154
f 139 154 155
f 139 155 140
f 140 155 156
f 140 156 141
f 142 157 145
f 142 144 158
f 142 158 157
f 143 159 160
f 143 160 161
f 143 161 162
f 143 162 163
f 143 163 144
f 144 163 164
f 144 164 158
f 145 157 165
f 146 149 167
f 146 167 148
f 147 166 150
f 147 148 166
f 148 167 166
f 149 153 167
f 150 166 151
f 151 166 168
f 151 168 169
f 151 169 170
f 151 170 171
f 151 171 172
f 151 172 173
f 151 173 152
f 152 155 154
f 152 173 174
f 152 174 175
f 152 175 155
f 153 176 167
f 157 177 165
f 157 158 178
f 157 178 177
f 158 164 179
f 158 179 180
f 158 180 178
f 159 181 160
f 160 181 182
f 160 182 183
f 160 183 161
f 161 183 162
f 162 183 184
f 162 184 185
f 162 185 186
f 162 186 187
f 162 187 163
f 163 187 188
f 163 188 164
f 164 188 189
f 164 189 190
f 164 190 191
f 164 191 179
f 166 167 192
f 166 192 193
f 166 193 194
f 166 194 168
f 167 176 192
f 168 195 196
f 168 196 169
f 168 194 197
f 168 197 195
f 169 196 198
f 169 198 199
f 169 199 170
f 170 199 171
f 171 199 200
f 171 200 172
f 172 200 201
f 173 202 174
f 174 202 175
f 176 203 204
f 176 204 205
f 176 205 192
f 177 178 206
f 178 180 206
f 179 207 180
f 179 191 208
f 179 208 207
f 180 207 206
f 182 209 210
f 182 210 211
f 182 211 184
f 182 184 183
f 184 211 212
f 184 212 213
f 184 213 185
f 185 213 214
f 185 214 215
f 185 215 216
f 185 216 186
f 186 216 188
f 186 188 187
f 188 216 217
f 188 217 189
f 189 217 218
f 189 218 190
f 190 218 219
f 190 219 191
f 191 219 208
f 192 205 193
f 193 205 203
f 193 203 220
f 193 220 221
f 193 221 222
f 193 222 194
f 194 222 197
f 195 223 196
f 195 197 224
f 195 224 223
f 196 223 225
f 196 225 198
f 197 222 226
f 197 226 227
f 197 227 228
f 197 228 224
f 198 229 199
f 198 225 230
f 198 230 231
f 198 231 232
f 198 232 233
f 198 233 234
f 198 234 235
f 198 235 229
f 199 229 236
f 199 236 237
f 199 237 238
f 199 238 200
f 200 238 239
f 200 239 240
f 200 240 241
f 200 241 201
f 201 241 242
f 203 205 204
f 206 207 243
f 207 208 244
f 207 244 245
f 207 245 246
f 207 246 247
f 207 247 243
f 208 219 248
f 208 248 249
f 208 249 250
f 208 250 244
f 209 251 252
f 209 252 253
f 209 253 210
f 210 253 212
f 210 212 211
f 212 253 214
f 212 214 213
f 214 253 215
f 215 254 217
f 215 217 216
f 215 253 252
f 215 252 255
f 215 255 256
f 215 256 254
f 217 254 257
f 217 257 218
f 218 257 248
f 218 248 219
f 220 258 221
f 221 258 259
f 221 259 222
f 222 259 226
f 223 224 260
f 223 260 225
f 224 261 262
f 224 262 263
f 224 263 256
f 224 256 260
f 224 228 261
f 225 260 264
f 225 264 265
f 225 265 266
f 225 266 230
f 226 259 267
f 226 267 268
f 226 268 269
f 226 269 227
f 227 269 261
f 227 261 228
f 229 270 236
f 229 235 271
f 229 271 270
f 230 266 231
f 231 266 232
f 232 266 272
f 232 272 273
f 232 273 233
f 233 273 274
f 233 274 234
f 236 270 237
f 240 242 241
f 244 246 245
f 251 275 276
f 251 276 277
f 251 277 252
f 252 277 278
f 252 278 255
f 254 256 263
f 255 278 264
f 255 264 256
f 256 264 260
f 258 279 280
f 258 280 259
f 259 280 281
f 259 281 282
f 259 282 267
f 261 269 283
f 264 278 284
f 264 284 265
f 265 284 285
f 265 285 266
f 266 285 272
f 267 282 286
f 267 286 268
f 268 286 283
f 268 283 269
f 272 285 287
f 272 287 273
f 273 287 288
f 273 288 274
f 275 289 290
f 275 290 276
f 276 290 277
f 277 284 278
f 277 290 284
f 279 281 280
f 279 291 281
f 281 291 282
f 282 291 286
f 284 290 289
f 284 289 285
f 285 289 287
f 287 289 288

