# https://github.com/mikedh/trimesh
v -0.06300754 -0.06019071 0.02131641
v -0.06527935 -0.06019071 0.02284071
v -0.06300754 -0.05862846 0.01929876
v -0.06300754 -0.06019071 0.02328417
v -0.06300754 -0.04899073 0.02182338
v -0.06300754 -0.05777881 0.01941217
v -0.06300754 -0.05801671 0.01937815
v -0.06527935 -0.06019071 0.02425273
v -0.06527935 -0.05283332 0.02655733
v -0.06508900 -0.04899073 0.02623070
v -0.06507076 -0.04899073 0.02618986
v -0.06473386 -0.04899073 0.02545267
v -0.06457753 -0.04899073 0.02511355
v -0.06300754 -0.06012493 0.02338397
v -0.06300754 -0.04899073 0.03086484
v -0.06300754 -0.05659698 0.02785367
v -0.06300754 -0.05625931 0.02825402
v -0.06527935 -0.05945837 0.02484476
v -0.06527935 -0.05207248 0.02720607
v -0.06527935 -0.05207248 0.02723669
v -0.06495334 -0.04899073 0.02674900
v -0.06340849 -0.04899073 0.03045768
v -0.06300754 -0.04899292 0.03088412
v -0.06300754 -0.05591068 0.02850921
v -0.06527935 -0.05737975 0.02651537
v -0.06527935 -0.05751460 0.02641329
v -0.06527935 -0.05793558 0.02607418
v -0.06527935 -0.05244632 0.02726617
v -0.06342828 -0.04899073 0.03042932
v -0.06380543 -0.04899073 0.02966491
v -0.06316543 -0.04927138 0.03070719
v -0.06300754 -0.04913654 0.03088072
v -0.06527935 -0.05499197 0.02724576
v -0.06300754 -0.05523645 0.02896173
v -0.06527935 -0.05718680 0.02663218
v -0.06300754 -0.05522110 0.02897194
v -0.06527935 -0.05314467 0.02729226
v -0.06527935 -0.05384193 0.02728659
v -0.06527935 -0.05454029 0.02727185
v -0.06317321 -0.05209111 0.03001536
v -0.06300754 -0.05043348 0.03056656
v -0.06527935 -0.05504021 0.02723555
v -0.06527935 -0.05593480 0.02703027
v -0.06527935 -0.05629440 0.02694408
v -0.06527935 -0.05702454 0.02670817
v -0.06300754 -0.05336832 0.02970914
v -0.06300754 -0.05244632 0.03004712
v -0.06300754 -0.05194969 0.03019796
v -0.06527935 -0.05665289 0.02683633
f 1 2 3
f 1 3 7
f 1 7 6
f 1 6 5
f 1 5 15
f 1 15 23
f 1 23 32
f 1 32 41
f 1 41 48
f 1 48 47
f 1 47 46
f 1 46 36
f 1 36 34
f 1 34 24
f 1 24 17
f 1 17 16
f 1 16 14
f 1 14 4
f 1 4 8
f 1 8 2
f 2 5 6
f 2 6 7
f 2 7 3
f 2 8 18
f 2 18 27
f 2 27 26
f 2 26 25
f 2 25 35
f 2 35 45
f 2 45 49
f 2 49 44
f 2 44 43
f 2 43 42
f 2 42 33
f 2 33 39
f 2 39 38
f 2 38 37
f 2 37 28
f 2 28 20
f 2 20 19
f 2 19 9
f 2 9 10
f 2 10 11
f 2 11 12
f 2 12 13
f 2 13 5
f 4 14 8
f 5 13 12
f 5 12 11
f 5 11 10
f 5 10 21
f 5 21 30
f 5 30 29
f 5 29 22
f 5 22 15
f 8 14 16
f 8 16 17
f 8 17 18
f 9 19 10
f 10 19 20
f 10 20 21
f 15 22 23
f 17 24 25
f 17 25 26
f 17 26 27
f 17 27 18
f 20 28 29
f 20 29 30
f 20 30 21
f 22 31 32
f 22 32 23
f 22 29 33
f 22 33 31
f 24 34 25
f 25 34 36
f 25 36 35
f 28 37 29
f 29 37 38
f 29 38 39
f 29 39 33
f 31 40 41
f 31 41 32
f 31 33 42
f 31 42 43
f 31 43 44
f 31 44 40
f 35 36 45
f 36 46 45
f 40 47 48
f 40 48 41
f 40 44 49
f 40 49 47
f 45 46 47
f 45 47 49

