# https://github.com/mikedh/trimesh
v -0.05577375 -0.03776825 -0.01300120
v -0.05577375 -0.03779265 -0.01300719
v -0.05577375 -0.03776825 -0.01491310
v -0.05927624 -0.03776825 -0.01310413
v -0.05577375 -0.03823794 -0.01317487
v -0.05577375 -0.04240277 -0.01491310
v -0.05799348 -0.03776825 -0.01491310
v -0.05964371 -0.03776825 -0.01313651
v -0.05945595 -0.03813096 -0.01324917
v -0.05724365 -0.04172427 -0.01460224
v -0.05654588 -0.04256183 -0.01491310
v -0.06210450 -0.03776919 -0.01491310
v -0.06210326 -0.03776825 -0.01491141
v -0.06003412 -0.03776825 -0.01319003
v -0.05908537 -0.03963529 -0.01388996
v -0.05765946 -0.04168533 -0.01461684
v -0.05725233 -0.04234599 -0.01491310
v -0.06200845 -0.03786679 -0.01491310
v -0.06142594 -0.03776825 -0.01427455
v -0.06070834 -0.03776825 -0.01360288
v -0.06003412 -0.03802585 -0.01334742
v -0.05979554 -0.03895116 -0.01385103
v -0.05842602 -0.04106970 -0.01454685
v -0.05812485 -0.04153517 -0.01472782
v -0.05797984 -0.04187067 -0.01491310
v -0.06141169 -0.03847255 -0.01491310
v -0.06071330 -0.03777341 -0.01361130
v -0.06072321 -0.03776825 -0.01361635
v -0.05871542 -0.04120906 -0.01491310
v -0.05889141 -0.04083368 -0.01473100
v -0.06071516 -0.03776825 -0.01360887
v -0.05912007 -0.04036868 -0.01451690
v -0.05863919 -0.04128179 -0.01491310
v -0.05825251 -0.04163512 -0.01491310
f 1 2 5
f 1 5 6
f 1 6 3
f 1 3 7
f 1 7 13
f 1 13 19
f 1 19 28
f 1 28 31
f 1 31 20
f 1 20 14
f 1 14 8
f 1 8 4
f 1 4 2
f 2 4 5
f 3 6 11
f 3 11 17
f 3 17 25
f 3 25 34
f 3 34 33
f 3 33 29
f 3 29 26
f 3 26 18
f 3 18 12
f 3 12 7
f 4 8 9
f 4 9 5
f 5 10 11
f 5 11 6
f 5 9 10
f 7 12 13
f 8 14 9
f 9 14 15
f 9 15 16
f 9 16 10
f 10 16 11
f 11 16 17
f 12 18 19
f 12 19 13
f 14 20 21
f 14 21 15
f 15 21 22
f 15 22 23
f 15 23 16
f 16 23 24
f 16 24 17
f 17 24 25
f 18 26 19
f 19 27 28
f 19 26 29
f 19 29 30
f 19 30 27
f 20 31 27
f 20 27 22
f 20 22 21
f 22 27 32
f 22 32 23
f 23 32 30
f 23 30 29
f 23 29 33
f 23 33 34
f 23 34 25
f 23 25 24
f 27 31 28
f 27 30 32

