# https://github.com/mikedh/trimesh
v -0.06542520 -0.07449249 -0.00591737
v -0.06577416 -0.07433285 -0.00591737
v -0.06537817 -0.07447937 -0.00647419
v -0.06527935 -0.07449249 -0.00591737
v -0.06527935 -0.07447456 -0.00548601
v -0.06539385 -0.07446319 -0.00521954
v -0.06631491 -0.07418020 0.00100351
v -0.06631491 -0.07419726 0.00036185
v -0.06631491 -0.07420819 -0.00033597
v -0.06631491 -0.07421650 -0.00103380
v -0.06631491 -0.07422175 -0.00173162
v -0.06631491 -0.07421563 -0.00242944
v -0.06631491 -0.07419113 -0.00312727
v -0.06631491 -0.07400962 -0.00591737
v -0.06628246 -0.07392871 -0.00731301
v -0.06631491 -0.07415046 -0.00382509
v -0.06631491 -0.07410366 -0.00452291
v -0.06561700 -0.07413777 -0.00731301
v -0.06527935 -0.07447937 -0.00647419
v -0.06737709 -0.07304082 -0.00978646
v -0.06527935 -0.07446319 -0.00521954
v -0.06533660 -0.07444088 -0.00471649
v -0.06561700 -0.07403412 0.00100351
v -0.06701792 -0.07400175 0.00100351
v -0.06527935 -0.07444088 -0.00471649
v -0.06561700 -0.07433066 -0.00242944
v -0.06561700 -0.07428124 -0.00173162
v -0.06561700 -0.07422088 -0.00103380
v -0.06707991 -0.07392433 0.00031764
v -0.06698839 -0.07394227 -0.00033597
v -0.06663141 -0.07370739 -0.00731301
v -0.06637872 -0.07391952 -0.00662714
v -0.06740261 -0.07305788 -0.00940648
v -0.06695266 -0.07391908 -0.00103380
v -0.06681008 -0.07382505 -0.00382509
v -0.06561700 -0.07385960 -0.00788657
v -0.06714008 -0.07304082 -0.00978646
v -0.06667480 -0.07303033 -0.00975420
v -0.06527935 -0.07390159 -0.00760338
v -0.06821028 -0.07242893 -0.01080213
v -0.06815704 -0.07239262 -0.01120362
v -0.06808193 -0.07241187 -0.01120362
v -0.06527935 -0.07393396 0.00100351
v -0.06527935 -0.07396457 0.00067133
v -0.06740553 -0.07375813 0.00100351
v -0.06527935 -0.07418282 -0.00173162
v -0.06527935 -0.07412072 -0.00103380
v -0.06527935 -0.07405686 -0.00033597
v -0.06695156 -0.07354294 -0.00662714
v -0.06701282 -0.07345633 -0.00731301
v -0.06778730 -0.07285231 -0.00870866
v -0.06775157 -0.07282869 -0.00940648
v -0.06824601 -0.07245604 -0.01010431
v -0.06735703 -0.07372620 0.00005476
v -0.06808047 -0.07304520 -0.00298627
v -0.06561700 -0.07363872 -0.00823548
v -0.06527935 -0.07380143 -0.00777186
v -0.06771036 -0.07239262 -0.01120362
v -0.06765093 -0.07238431 -0.01120362
v -0.06754227 -0.07235676 -0.01120362
v -0.06739423 -0.07231871 -0.01120362
v -0.06527935 -0.07144220 -0.01120362
v -0.06855923 -0.07209389 -0.01080213
v -0.06869779 -0.07188133 -0.01120362
v -0.06527935 -0.07235545 0.00100351
v -0.06771766 -0.07355256 0.00100351
v -0.06771036 -0.07346727 -0.00033597
v -0.06828065 -0.07247966 -0.00940648
v -0.06875103 -0.07231040 -0.00609660
v -0.06814464 -0.07308719 -0.00173162
v -0.06817965 -0.07311080 -0.00103380
v -0.06527935 -0.07374894 -0.00785430
v -0.06527935 -0.07028008 -0.01120362
v -0.06880281 -0.07173305 -0.01120362
v -0.06804328 -0.07022453 0.00100351
v -0.06779715 -0.07350007 0.00100351
v -0.06831310 -0.07250328 -0.00870866
v -0.06821319 -0.07313442 -0.00033597
v -0.06834300 -0.07252690 -0.00801084
v -0.06875832 -0.07233533 -0.00563178
v -0.06800973 -0.07123575 -0.01120362
v -0.06877181 -0.07092346 -0.00778500
v -0.06878895 -0.07021272 -0.00230278
v -0.06882578 -0.07017816 -0.00173162
v -0.06886297 -0.07013661 -0.00103380
v -0.06888923 -0.07009856 -0.00033597
v -0.06890126 -0.07006663 0.00036185
v -0.06890308 -0.07003777 0.00100351
v -0.06840353 -0.07002421 0.00100351
v -0.06835139 -0.07005307 0.00100351
v -0.06880609 -0.07174486 -0.01080213
v -0.06890636 -0.07128693 -0.00521954
v -0.06889834 -0.07128693 -0.00591737
v -0.06880281 -0.07155635 -0.01120362
v -0.06827227 -0.07317947 0.00100351
v -0.06824528 -0.07315804 0.00036185
v -0.06876124 -0.07233970 -0.00521954
v -0.06862122 -0.07272372 0.00100351
v -0.06857710 -0.07144351 -0.01120362
v -0.06879661 -0.07089722 -0.00731301
v -0.06882651 -0.07086004 -0.00661519
v -0.06898950 -0.07058930 -0.00033597
v -0.06884583 -0.07082724 -0.00591737
v -0.06900190 -0.07058930 0.00036185
v -0.06891147 -0.07008063 0.00100351
v -0.06881411 -0.07198455 -0.00521954
v -0.06881739 -0.07198455 -0.00452291
v -0.06890819 -0.07128693 -0.00452291
v -0.06900409 -0.07058930 0.00100351
v -0.06863544 -0.07269529 0.00100351
v -0.06876416 -0.07234408 -0.00452291
v -0.06876489 -0.07234670 -0.00382509
v -0.06881849 -0.07198455 -0.00382509
v -0.06890673 -0.07134379 0.00100351
v -0.06899716 -0.07064616 0.00100351
v -0.06876744 -0.07237513 0.00100351
v -0.06882359 -0.07198455 0.00100351
f 1 2 3
f 1 3 19
f 1 19 4
f 1 4 5
f 1 5 6
f 1 6 7
f 1 7 8
f 1 8 9
f 1 9 10
f 1 10 11
f 1 11 12
f 1 12 13
f 1 13 2
f 2 14 15
f 2 15 3
f 2 13 16
f 2 16 17
f 2 17 14
f 3 18 19
f 3 15 20
f 3 20 18
f 4 19 39
f 4 39 57
f 4 57 72
f 4 72 62
f 4 62 73
f 4 73 65
f 4 65 43
f 4 43 44
f 4 44 48
f 4 48 47
f 4 47 46
f 4 46 25
f 4 25 21
f 4 21 5
f 5 21 6
f 6 21 25
f 6 25 22
f 6 22 7
f 7 23 43
f 7 43 65
f 7 65 75
f 7 75 90
f 7 90 89
f 7 89 88
f 7 88 105
f 7 105 109
f 7 109 115
f 7 115 114
f 7 114 117
f 7 117 116
f 7 116 110
f 7 110 98
f 7 98 95
f 7 95 76
f 7 76 66
f 7 66 45
f 7 45 24
f 7 24 8
f 7 22 25
f 7 25 26
f 7 26 27
f 7 27 28
f 7 28 23
f 8 24 9
f 9 24 10
f 10 24 11
f 11 24 12
f 12 24 13
f 13 24 29
f 13 29 30
f 13 30 16
f 14 31 32
f 14 32 15
f 14 17 31
f 15 32 31
f 15 31 33
f 15 33 20
f 16 30 34
f 16 34 17
f 17 34 35
f 17 35 31
f 18 36 19
f 18 20 37
f 18 37 38
f 18 38 36
f 19 36 39
f 20 33 40
f 20 40 41
f 20 41 42
f 20 42 37
f 23 28 44
f 23 44 43
f 24 45 29
f 25 46 27
f 25 27 26
f 27 46 28
f 28 47 48
f 28 48 44
f 28 46 47
f 29 45 30
f 30 45 34
f 31 35 49
f 31 49 50
f 31 50 51
f 31 51 52
f 31 52 33
f 33 52 53
f 33 53 40
f 34 45 54
f 34 54 35
f 35 54 55
f 35 55 49
f 36 56 57
f 36 57 39
f 36 38 56
f 37 42 58
f 37 58 38
f 38 58 59
f 38 59 60
f 38 60 61
f 38 61 62
f 38 62 56
f 40 63 64
f 40 64 41
f 40 53 63
f 41 64 74
f 41 74 94
f 41 94 99
f 41 99 81
f 41 81 73
f 41 73 62
f 41 62 61
f 41 61 60
f 41 60 59
f 41 59 58
f 41 58 42
f 45 66 67
f 45 67 54
f 49 51 50
f 49 55 51
f 51 53 52
f 51 55 53
f 53 68 69
f 53 69 63
f 53 55 70
f 53 70 71
f 53 71 68
f 54 67 55
f 55 67 66
f 55 66 70
f 56 72 57
f 56 62 72
f 63 69 64
f 64 69 74
f 65 73 75
f 66 76 70
f 68 77 69
f 68 71 78
f 68 78 77
f 69 79 80
f 69 80 74
f 69 77 79
f 70 76 71
f 71 76 78
f 73 81 82
f 73 82 83
f 73 83 84
f 73 84 85
f 73 85 86
f 73 86 87
f 73 87 88
f 73 88 89
f 73 89 90
f 73 90 75
f 74 91 92
f 74 92 93
f 74 93 94
f 74 80 91
f 76 95 96
f 76 96 78
f 77 78 96
f 77 96 79
f 79 96 95
f 79 95 80
f 80 97 91
f 80 95 98
f 80 98 97
f 81 99 82
f 82 100 85
f 82 85 84
f 82 84 83
f 82 99 94
f 82 94 100
f 85 100 101
f 85 101 86
f 86 102 87
f 86 101 103
f 86 103 102
f 87 102 104
f 87 104 105
f 87 105 88
f 91 97 106
f 91 106 92
f 92 107 108
f 92 108 109
f 92 109 104
f 92 104 93
f 92 106 107
f 93 104 102
f 93 102 94
f 94 102 103
f 94 103 101
f 94 101 100
f 97 98 110
f 97 110 111
f 97 111 106
f 104 109 105
f 106 111 107
f 107 111 112
f 107 112 113
f 107 113 108
f 108 113 114
f 108 114 115
f 108 115 109
f 110 116 111
f 111 116 112
f 112 116 113
f 113 116 117
f 113 117 114

