# https://github.com/mikedh/trimesh
v -0.06516048 -0.03232719 -0.01066649
v -0.06513600 -0.03237775 -0.01066649
v -0.06506427 -0.03232719 -0.01048872
v -0.05653920 -0.03232719 -0.01066649
v -0.06512672 -0.03239585 -0.01066649
v -0.06510900 -0.03241251 -0.01066649
v -0.06490984 -0.03259783 -0.01066649
v -0.06492672 -0.03232719 -0.01030975
v -0.05653920 -0.03232719 -0.00771266
v -0.05653920 -0.03498819 -0.01066649
v -0.06480688 -0.03269091 -0.01066649
v -0.06465751 -0.03261564 -0.01037384
v -0.06484401 -0.03232719 -0.01020616
v -0.05796032 -0.03232719 -0.00691978
v -0.05653920 -0.03241625 -0.00780819
v -0.05653920 -0.03473393 -0.01034200
v -0.05753669 -0.03397229 -0.00903156
v -0.05724385 -0.03480403 -0.01023760
v -0.05724385 -0.03510397 -0.01066649
v -0.06426847 -0.03307245 -0.01066649
v -0.06439590 -0.03244900 -0.00990868
v -0.06430561 -0.03232719 -0.00965877
v -0.05816877 -0.03232719 -0.00680611
v -0.05831729 -0.03255444 -0.00696936
v -0.05794176 -0.03245877 -0.00707215
v -0.05653920 -0.03376313 -0.00925689
v -0.05653920 -0.03341750 -0.00888484
v -0.05653920 -0.03443513 -0.00998970
v -0.05794176 -0.03399240 -0.00900254
v -0.05878313 -0.03258691 -0.00692422
v -0.05863966 -0.03318134 -0.00777110
v -0.05794176 -0.03458395 -0.00985346
v -0.05794176 -0.03514879 -0.01066649
v -0.06365749 -0.03345830 -0.01066649
v -0.06336128 -0.03337469 -0.01028839
v -0.06418662 -0.03273745 -0.01012635
v -0.06420940 -0.03232719 -0.00957371
v -0.05858819 -0.03232719 -0.00664084
v -0.05858565 -0.03234356 -0.00666100
v -0.05653920 -0.03408922 -0.00960919
v -0.05933757 -0.03232719 -0.00654894
v -0.05933757 -0.03233695 -0.00656184
v -0.05933757 -0.03259783 -0.00691091
v -0.05933757 -0.03289145 -0.00731360
v -0.05933757 -0.03320145 -0.00773966
v -0.05933757 -0.03344595 -0.00808833
v -0.05933757 -0.03379473 -0.00858978
v -0.05863966 -0.03377261 -0.00862162
v -0.05863122 -0.03519304 -0.01066649
v -0.06302288 -0.03385880 -0.01066649
v -0.06393091 -0.03259610 -0.00970351
v -0.06294102 -0.03391023 -0.01066649
v -0.06252751 -0.03398636 -0.01041294
v -0.06412754 -0.03232719 -0.00950156
v -0.05992155 -0.03232719 -0.00672993
v -0.05973673 -0.03258260 -0.00693349
v -0.06003463 -0.03526228 -0.01066649
v -0.05939327 -0.03524073 -0.01066649
v -0.05933757 -0.03462849 -0.00978937
v -0.05933757 -0.03521976 -0.01064029
v -0.05933757 -0.03523786 -0.01066649
v -0.06268532 -0.03407026 -0.01066649
v -0.06215451 -0.03436790 -0.01066649
v -0.06169205 -0.03461240 -0.01066649
v -0.06151314 -0.03470548 -0.01066649
v -0.06212750 -0.03408979 -0.01028476
v -0.06318575 -0.03256565 -0.00904889
v -0.06365074 -0.03242947 -0.00923834
v -0.06390982 -0.03232719 -0.00931735
v -0.06077389 -0.03232719 -0.00725757
v -0.06020172 -0.03246796 -0.00707739
v -0.06039582 -0.03396051 -0.00904970
v -0.06077304 -0.03507381 -0.01066649
v -0.06063717 -0.03511231 -0.01066649
v -0.06010214 -0.03525251 -0.01066649
v -0.06206590 -0.03342354 -0.00941812
v -0.06282541 -0.03265615 -0.00893683
v -0.06131398 -0.03480489 -0.01066649
v -0.06067431 -0.03357638 -0.00874496
v -0.06282541 -0.03237516 -0.00858816
v -0.06282541 -0.03232719 -0.00852891
v -0.06335453 -0.03232719 -0.00886791
v -0.06357732 -0.03232719 -0.00904446
v -0.06077895 -0.03236827 -0.00731158
v -0.06073253 -0.03450638 -0.00993609
f 1 2 3
f 1 3 8
f 1 8 13
f 1 13 22
f 1 22 37
f 1 37 54
f 1 54 69
f 1 69 83
f 1 83 82
f 1 82 81
f 1 81 70
f 1 70 55
f 1 55 41
f 1 41 38
f 1 38 23
f 1 23 14
f 1 14 9
f 1 9 4
f 1 4 10
f 1 10 19
f 1 19 33
f 1 33 49
f 1 49 61
f 1 61 58
f 1 58 57
f 1 57 75
f 1 75 74
f 1 74 73
f 1 73 78
f 1 78 65
f 1 65 64
f 1 64 63
f 1 63 62
f 1 62 52
f 1 52 50
f 1 50 34
f 1 34 20
f 1 20 11
f 1 11 7
f 1 7 6
f 1 6 5
f 1 5 2
f 2 5 3
f 3 5 6
f 3 6 7
f 3 7 8
f 4 9 15
f 4 15 27
f 4 27 26
f 4 26 40
f 4 40 28
f 4 28 16
f 4 16 10
f 7 11 8
f 8 11 12
f 8 12 13
f 9 14 15
f 10 16 17
f 10 17 18
f 10 18 19
f 11 20 12
f 12 21 22
f 12 22 13
f 12 20 21
f 14 23 24
f 14 24 25
f 14 25 26
f 14 26 27
f 14 27 15
f 16 28 24
f 16 24 17
f 17 29 18
f 17 24 30
f 17 30 31
f 17 31 29
f 18 29 19
f 19 29 32
f 19 32 33
f 20 34 35
f 20 35 36
f 20 36 21
f 21 36 22
f 22 36 37
f 23 38 24
f 24 38 39
f 24 39 30
f 24 28 40
f 24 40 25
f 25 40 26
f 29 31 32
f 30 39 38
f 30 38 41
f 30 41 42
f 30 42 43
f 30 43 44
f 30 44 45
f 30 45 31
f 31 45 46
f 31 46 47
f 31 47 48
f 31 48 32
f 32 48 49
f 32 49 33
f 34 50 35
f 35 51 36
f 35 50 52
f 35 52 53
f 35 53 51
f 36 51 37
f 37 51 54
f 41 55 56
f 41 56 42
f 42 56 43
f 43 56 44
f 44 56 45
f 45 56 57
f 45 57 46
f 46 57 47
f 47 57 58
f 47 58 59
f 47 59 48
f 48 59 49
f 49 59 60
f 49 60 61
f 51 53 54
f 52 62 53
f 53 62 63
f 53 63 64
f 53 64 65
f 53 65 66
f 53 66 67
f 53 67 68
f 53 68 69
f 53 69 54
f 55 70 71
f 55 71 72
f 55 72 56
f 56 72 73
f 56 73 74
f 56 74 75
f 56 75 57
f 58 61 60
f 58 60 59
f 65 76 77
f 65 77 67
f 65 67 66
f 65 78 79
f 65 79 76
f 67 77 80
f 67 80 81
f 67 81 82
f 67 82 83
f 67 83 68
f 68 83 69
f 70 81 80
f 70 80 84
f 70 84 71
f 71 79 72
f 71 84 80
f 71 80 79
f 72 79 78
f 72 78 85
f 72 85 73
f 73 85 78
f 76 80 77
f 76 79 80

