# https://github.com/mikedh/trimesh
v -0.07515031 -0.03865925 0.00129048
v -0.07507901 -0.03889332 0.00129048
v -0.07515031 -0.03865925 -0.02126573
v -0.07543178 -0.04186400 0.00100091
v -0.07515031 -0.04186400 0.00129048
v -0.07502844 -0.03912395 0.00129048
v -0.07507901 -0.03889332 -0.02196573
v -0.07515031 -0.03869367 -0.02196573
v -0.07543178 -0.04186400 -0.02266322
v -0.07542930 -0.04197071 -0.01772291
v -0.07542847 -0.04198104 0.00100091
v -0.07470427 -0.04186400 0.00129048
v -0.07538287 -0.04267982 0.00100091
v -0.07530452 -0.04337860 0.00100091
v -0.07450322 -0.05041461 0.00100091
v -0.07244337 -0.06849342 0.00100091
v -0.07228543 -0.06987722 0.00100091
v -0.07193514 -0.07267579 0.00100091
v -0.07183524 -0.07338145 0.00100091
v -0.07182156 -0.07341932 0.00100091
v -0.07165160 -0.07382550 0.00100091
v -0.07500315 -0.03924099 0.00129048
v -0.07500315 -0.03924099 -0.02196573
v -0.07501434 -0.03934082 -0.02251214
v -0.07515031 -0.03925476 -0.02249955
v -0.07542847 -0.04198448 -0.02266322
v -0.07515031 -0.04002239 -0.02309128
v -0.07533147 -0.04186400 -0.02324236
v -0.07532359 -0.04267982 -0.02335818
v -0.07542847 -0.04198448 -0.01772291
v -0.07538328 -0.04267982 -0.01772291
v -0.07474821 -0.04147502 0.00129048
v -0.07141573 -0.07382550 0.00100091
v -0.07122711 -0.07338145 0.00100091
v -0.07121758 -0.07331949 0.00100091
v -0.07119685 -0.07267579 0.00100091
v -0.07127312 -0.07198044 0.00100091
v -0.07538328 -0.04267982 -0.02266322
v -0.07530369 -0.04338204 -0.02266322
v -0.07466862 -0.04896197 -0.02335818
v -0.07300010 -0.06360884 -0.01707830
v -0.07244337 -0.06849342 -0.01080345
v -0.07228543 -0.06987722 -0.00731603
v -0.07193514 -0.07267579 -0.00033866
v -0.07223734 -0.07022489 -0.00731603
v -0.07226678 -0.06956397 -0.00984913
v -0.07163377 -0.07380829 0.00048724
v -0.07484977 -0.04058348 0.00129048
v -0.07484977 -0.04058348 -0.02266322
v -0.07496460 -0.03982962 -0.02271358
v -0.07498781 -0.04002239 -0.02309128
v -0.07528753 -0.04338204 -0.02335818
v -0.07506865 -0.04152666 -0.02372581
v -0.07515031 -0.04139929 -0.02354955
v -0.07529374 -0.04186400 -0.02336574
v -0.07530867 -0.04198448 -0.02335818
v -0.07515073 -0.04267982 -0.02380135
v -0.07515363 -0.04338204 -0.02382905
v -0.07512876 -0.04407394 -0.02382653
v -0.07215278 -0.06425599 0.00100091
v -0.07143853 -0.07380829 0.00048724
v -0.07135562 -0.07329884 -0.00033866
v -0.07125323 -0.07267579 -0.00103614
v -0.07119768 -0.07267579 -0.00033866
v -0.07132743 -0.07344341 0.00029588
v -0.07119685 -0.07267579 0.00035882
v -0.07127312 -0.07198044 -0.00173363
v -0.07198821 -0.06569830 -0.01428836
v -0.07522327 -0.04407394 -0.02335818
v -0.07514492 -0.04477616 -0.02335818
v -0.07458861 -0.04966075 -0.02335818
v -0.07371435 -0.05733013 -0.02126573
v -0.07505994 -0.04532693 -0.02375855
v -0.07295201 -0.06400126 -0.01707830
v -0.07294952 -0.06396683 -0.01743837
v -0.07251384 -0.06779464 -0.01219339
v -0.07241642 -0.06849342 -0.01150094
v -0.07228170 -0.06960184 -0.00940848
v -0.07229787 -0.06890994 -0.01150094
v -0.07226263 -0.06885486 -0.01187108
v -0.07160849 -0.07306820 -0.00149190
v -0.07413386 -0.04686562 0.00100091
v -0.07413386 -0.04686562 -0.02335818
v -0.07433574 -0.04509630 -0.02335818
v -0.07433699 -0.04510662 -0.02371322
v -0.07501393 -0.04152666 -0.02372581
v -0.07431211 -0.04708593 -0.02442833
v -0.07509062 -0.04477616 -0.02379883
v -0.07515031 -0.04173664 -0.02363516
v -0.07438756 -0.04708593 -0.02442833
v -0.07511300 -0.04198448 -0.02376106
v -0.07437720 -0.04756785 -0.02442581
v -0.07149407 -0.07306820 -0.00149190
v -0.07141075 -0.07316115 -0.00103614
v -0.07140785 -0.07251400 -0.00243363
v -0.07147127 -0.07172916 -0.00452609
v -0.07151273 -0.07097874 -0.00639444
v -0.07152392 -0.07027996 -0.00780956
v -0.07152392 -0.07001147 -0.00780956
v -0.07135313 -0.07128166 -0.00382608
v -0.07151066 -0.06990131 -0.00731603
v -0.07190986 -0.06640052 -0.01359088
v -0.07206987 -0.06499952 -0.01568333
v -0.07214780 -0.06430418 -0.01638082
v -0.07278412 -0.05872081 -0.02056824
v -0.07333960 -0.05384311 -0.02266322
v -0.07341173 -0.05320285 -0.01772291
v -0.07450819 -0.05035609 -0.02335818
v -0.07395229 -0.05523723 -0.02196573
v -0.07365797 -0.05778796 -0.02126573
v -0.07442362 -0.05035609 -0.02382401
v -0.07437720 -0.05105487 -0.02375855
v -0.07434693 -0.05145417 -0.02371826
v -0.07296818 -0.06330592 -0.01816356
v -0.07238492 -0.06546422 -0.01617686
v -0.07234885 -0.06612514 -0.01543657
v -0.07228958 -0.06677917 -0.01467865
v -0.07231320 -0.06822493 -0.01265670
v -0.07234347 -0.06847277 -0.01214051
v -0.07365258 -0.05772255 -0.02163336
v -0.07220335 -0.06885486 -0.01187108
v -0.07405468 -0.04756785 -0.02335818
v -0.07363351 -0.05133369 -0.02319955
v -0.07361237 -0.05171923 -0.02340351
v -0.07363600 -0.05192921 -0.02371574
v -0.07424123 -0.04685874 -0.02409596
v -0.07363600 -0.05231130 -0.02371574
v -0.07431792 -0.04756785 -0.02442581
v -0.07434072 -0.04791896 -0.02440819
v -0.07152309 -0.07166031 -0.00493652
v -0.07146630 -0.07241417 -0.00299011
v -0.07206987 -0.06847277 -0.01214051
v -0.07202054 -0.06781185 -0.01289087
v -0.07185970 -0.06779464 -0.01219339
v -0.07197535 -0.06640052 -0.01428836
v -0.07186053 -0.06709586 -0.01289087
v -0.07201100 -0.06569830 -0.01498333
v -0.07222739 -0.06402191 -0.01746355
v -0.07222739 -0.06378784 -0.01746355
v -0.07221745 -0.06369834 -0.01707830
v -0.07263737 -0.06011493 -0.01987076
v -0.07293211 -0.05756421 -0.02163587
v -0.07292465 -0.05750225 -0.02126573
v -0.07442238 -0.05105487 -0.02335818
v -0.07386524 -0.05593601 -0.02196573
v -0.07367662 -0.05231130 -0.02371574
v -0.07378482 -0.05454189 -0.02314667
v -0.07369404 -0.05642137 -0.02237365
v -0.07435730 -0.05155400 -0.02335818
v -0.07240523 -0.06477921 -0.01684413
v -0.07296362 -0.06258648 -0.01884845
v -0.07217724 -0.06546422 -0.01617686
v -0.07217724 -0.06612514 -0.01543657
v -0.07220874 -0.06677917 -0.01467865
v -0.07302787 -0.05984299 -0.02096861
v -0.07306020 -0.06062095 -0.02033911
v -0.07213288 -0.06822493 -0.01265670
v -0.07433781 -0.04791896 -0.02440819
v -0.07293211 -0.05781205 -0.02163587
v -0.07349008 -0.05384311 -0.02325747
v -0.07350625 -0.05454189 -0.02314667
v -0.07357465 -0.05500316 -0.02305854
v -0.07211547 -0.06759155 -0.01343980
v -0.07212293 -0.06637643 -0.01494304
v -0.07201681 -0.06715094 -0.01364123
v -0.07211920 -0.06569830 -0.01567578
v -0.07214905 -0.06500640 -0.01639844
v -0.07220003 -0.06477921 -0.01684413
v -0.07289563 -0.06258648 -0.01884845
v -0.07289397 -0.05984299 -0.02096861
v -0.07285625 -0.05942303 -0.02103911
v -0.07273686 -0.05942303 -0.02056824
v -0.07370191 -0.05500316 -0.02305854
f 1 2 7
f 1 7 3
f 1 3 9
f 1 9 4
f 1 4 5
f 1 5 12
f 1 12 32
f 1 32 48
f 1 48 22
f 1 22 6
f 1 6 2
f 2 6 7
f 3 8 9
f 3 7 8
f 4 9 10
f 4 10 11
f 4 11 5
f 5 11 13
f 5 13 14
f 5 14 15
f 5 15 16
f 5 16 17
f 5 17 18
f 5 18 19
f 5 19 20
f 5 20 21
f 5 21 33
f 5 33 12
f 6 22 23
f 6 23 7
f 7 23 24
f 7 24 8
f 8 24 25
f 8 25 9
f 9 26 10
f 9 25 27
f 9 27 28
f 9 28 29
f 9 29 26
f 10 26 30
f 10 30 11
f 11 30 31
f 11 31 13
f 12 33 34
f 12 34 35
f 12 35 36
f 12 36 37
f 12 37 32
f 13 31 14
f 14 31 38
f 14 38 39
f 14 39 40
f 14 40 15
f 15 40 41
f 15 41 16
f 16 41 42
f 16 42 43
f 16 43 17
f 17 43 44
f 17 44 18
f 18 44 19
f 19 44 45
f 19 45 46
f 19 46 20
f 20 46 47
f 20 47 21
f 21 47 61
f 21 61 33
f 22 48 49
f 22 49 23
f 23 49 24
f 24 50 51
f 24 51 25
f 24 49 50
f 25 51 27
f 26 29 52
f 26 52 38
f 26 38 31
f 26 31 30
f 27 51 86
f 27 86 53
f 27 53 54
f 27 54 55
f 27 55 28
f 28 55 56
f 28 56 29
f 29 57 58
f 29 58 59
f 29 59 52
f 29 56 57
f 32 37 60
f 32 60 48
f 33 61 34
f 34 62 63
f 34 63 64
f 34 64 35
f 34 61 65
f 34 65 62
f 35 64 66
f 35 66 36
f 36 66 67
f 36 67 37
f 37 67 68
f 37 68 60
f 38 52 69
f 38 69 70
f 38 70 39
f 39 70 40
f 40 71 72
f 40 72 41
f 40 70 73
f 40 73 71
f 41 72 74
f 41 74 42
f 42 74 75
f 42 75 76
f 42 76 77
f 42 77 78
f 42 78 45
f 42 45 43
f 43 45 44
f 45 78 46
f 46 78 77
f 46 77 79
f 46 79 80
f 46 80 47
f 47 81 93
f 47 93 61
f 47 80 81
f 48 60 82
f 48 82 83
f 48 83 49
f 49 83 84
f 49 84 85
f 49 85 50
f 50 85 51
f 51 85 87
f 51 87 86
f 52 59 88
f 52 88 73
f 52 73 69
f 53 89 54
f 53 86 87
f 53 87 90
f 53 90 91
f 53 91 89
f 54 89 55
f 55 91 56
f 55 89 91
f 56 91 57
f 57 90 58
f 57 91 90
f 58 90 92
f 58 92 59
f 59 92 88
f 60 68 82
f 61 93 94
f 61 94 62
f 61 62 65
f 62 94 63
f 63 94 95
f 63 95 96
f 63 96 97
f 63 97 98
f 63 98 64
f 64 98 99
f 64 99 100
f 64 100 67
f 64 67 66
f 67 100 101
f 67 101 68
f 68 102 103
f 68 103 104
f 68 104 105
f 68 105 106
f 68 106 83
f 68 83 107
f 68 107 82
f 68 101 102
f 69 73 70
f 71 73 108
f 71 108 109
f 71 109 72
f 72 109 110
f 72 110 74
f 73 88 92
f 73 92 111
f 73 111 112
f 73 112 113
f 73 113 108
f 74 110 75
f 75 114 115
f 75 115 116
f 75 116 117
f 75 117 118
f 75 118 80
f 75 80 119
f 75 119 77
f 75 77 76
f 75 110 120
f 75 120 114
f 77 119 79
f 79 119 80
f 80 118 117
f 80 117 154
f 80 154 121
f 80 121 93
f 80 93 81
f 82 107 83
f 83 85 84
f 83 106 122
f 83 122 85
f 85 122 106
f 85 106 123
f 85 123 124
f 85 124 125
f 85 125 126
f 85 126 87
f 87 126 125
f 87 125 127
f 87 127 128
f 87 128 92
f 87 92 90
f 92 128 158
f 92 158 129
f 92 129 112
f 92 112 111
f 93 130 131
f 93 131 94
f 93 121 130
f 94 131 96
f 94 96 95
f 96 131 97
f 97 121 98
f 97 131 130
f 97 130 121
f 98 121 132
f 98 132 133
f 98 133 134
f 98 134 135
f 98 135 136
f 98 136 99
f 99 101 100
f 99 136 102
f 99 102 101
f 102 137 103
f 102 136 137
f 103 138 139
f 103 139 140
f 103 140 104
f 103 137 138
f 104 140 105
f 105 140 141
f 105 141 142
f 105 142 143
f 105 143 106
f 106 125 124
f 106 124 123
f 106 143 142
f 106 142 125
f 108 113 144
f 108 144 109
f 109 145 110
f 109 144 145
f 110 145 120
f 112 129 113
f 113 129 146
f 113 146 147
f 113 147 148
f 113 148 120
f 113 120 149
f 113 149 144
f 114 150 115
f 114 120 151
f 114 151 150
f 115 152 153
f 115 153 116
f 115 150 168
f 115 168 152
f 116 153 154
f 116 154 117
f 120 145 144
f 120 144 149
f 120 148 155
f 120 155 156
f 120 156 151
f 121 157 132
f 121 154 157
f 125 142 159
f 125 159 127
f 127 158 128
f 127 159 160
f 127 160 161
f 127 161 162
f 127 162 173
f 127 173 146
f 127 146 129
f 127 129 158
f 132 157 133
f 133 163 153
f 133 153 164
f 133 164 165
f 133 165 134
f 133 157 163
f 134 165 135
f 135 166 167
f 135 167 137
f 135 137 136
f 135 165 166
f 137 167 138
f 138 167 168
f 138 168 169
f 138 169 170
f 138 170 171
f 138 171 172
f 138 172 139
f 139 172 141
f 139 141 140
f 141 172 142
f 142 172 159
f 146 173 147
f 147 173 148
f 148 173 155
f 150 151 169
f 150 169 168
f 151 156 155
f 151 155 170
f 151 170 169
f 152 168 167
f 152 167 166
f 152 166 164
f 152 164 153
f 153 163 154
f 154 163 157
f 155 173 162
f 155 162 170
f 159 172 171
f 159 171 170
f 159 170 161
f 159 161 160
f 161 170 162
f 164 166 165

