# https://github.com/mikedh/trimesh
v -0.05584725 -0.05526367 -0.03247242
v -0.05514973 -0.05526367 -0.03235203
v -0.05514973 -0.05595739 -0.03218056
v -0.05584725 -0.05593538 -0.03229366
v -0.05625225 -0.05636680 -0.03211855
v -0.05640226 -0.05593538 -0.03220793
v -0.05621663 -0.05526367 -0.03239581
v -0.05511973 -0.05526367 -0.03234656
v -0.05457785 -0.05573952 -0.03212949
v -0.05438659 -0.05595739 -0.03202734
v -0.05538224 -0.05636421 -0.03210760
v -0.05514973 -0.05802817 -0.03156949
v -0.05514973 -0.05849625 -0.03142539
v -0.05514973 -0.05884527 -0.03131229
v -0.05561099 -0.05852602 -0.03143633
v -0.05641726 -0.05733101 -0.03154213
v -0.05657101 -0.05667094 -0.03175373
v -0.05675101 -0.05593538 -0.03198356
v -0.05687852 -0.05556005 -0.03207294
v -0.05576849 -0.05967099 -0.03084897
v -0.05608350 -0.05967099 -0.03063920
v -0.05660476 -0.05529171 -0.03230825
v -0.05660289 -0.05526367 -0.03231555
v -0.05697227 -0.05526367 -0.03212767
v -0.05666476 -0.05526367 -0.03228636
v -0.05427972 -0.05526367 -0.03218421
v -0.05411096 -0.05557817 -0.03208206
v -0.05110341 -0.05572960 -0.03142903
v -0.05311532 -0.05940567 -0.03075047
v -0.05375471 -0.05967099 -0.03080154
v -0.05514973 -0.05733101 -0.03177562
v -0.05026714 -0.05526367 -0.03139620
v -0.05409784 -0.05967099 -0.03087086
v -0.05445034 -0.05942379 -0.03101496
v -0.05444472 -0.05967099 -0.03094017
v -0.05490785 -0.05967099 -0.03100402
v -0.05514973 -0.05942379 -0.03111164
v -0.05516286 -0.05967099 -0.03101679
v -0.05753478 -0.05899238 -0.02995151
v -0.05912856 -0.05927884 -0.02869470
v -0.05895793 -0.05833404 -0.02927294
v -0.05704914 -0.05651003 -0.03149653
v -0.05610225 -0.05967099 -0.03062643
v -0.05726665 -0.05593754 -0.03162057
v -0.05787791 -0.05526367 -0.03151294
v -0.05741103 -0.05526367 -0.03183763
v -0.05725352 -0.05529171 -0.03193431
v -0.05722165 -0.05526367 -0.03196715
v -0.05662726 -0.05526367 -0.03230460
v -0.05375471 -0.05526367 -0.03208206
v -0.05133028 -0.05526367 -0.03160780
v -0.05080340 -0.05526367 -0.03150382
v -0.05063840 -0.05556998 -0.03138161
v -0.05096465 -0.05663298 -0.03113353
v -0.05131341 -0.05837718 -0.03068845
v -0.05311532 -0.05967099 -0.03067203
v -0.04976275 -0.05526367 -0.03128311
v -0.05026714 -0.05544228 -0.03134330
v -0.05889043 -0.05967099 -0.02867099
v -0.05986545 -0.05967099 -0.02798695
v -0.06043921 -0.05967099 -0.02758382
v -0.06100359 -0.05967099 -0.02718616
v -0.05934419 -0.05807217 -0.02912701
v -0.05855855 -0.05526367 -0.03103320
v -0.06187549 -0.05967099 -0.02657144
v -0.05933669 -0.05666663 -0.02980923
v -0.05026714 -0.05593538 -0.03119372
v -0.04958088 -0.05526367 -0.03123568
v -0.05058590 -0.05771022 -0.03070122
v -0.05166217 -0.05942379 -0.03038747
v -0.05235593 -0.05967099 -0.03050604
v -0.05235405 -0.05940567 -0.03059359
v -0.05294282 -0.05967099 -0.03063555
v -0.06221862 -0.05526367 -0.02845027
v -0.06224674 -0.05967099 -0.02627229
v -0.06244362 -0.05902689 -0.02646017
v -0.06195986 -0.05942379 -0.02662981
v -0.06241925 -0.05620070 -0.02785743
v -0.04953212 -0.05526367 -0.03121561
v -0.04950212 -0.05600225 -0.03092558
v -0.05115028 -0.05967099 -0.03005913
v -0.05166967 -0.05967099 -0.03028897
v -0.04973650 -0.05663298 -0.03077235
v -0.04990526 -0.05699537 -0.03069574
v -0.06224674 -0.05526367 -0.02843020
v -0.06254300 -0.05967099 -0.02593483
v -0.06254675 -0.05856140 -0.02658968
v -0.06255612 -0.05714938 -0.02727919
v -0.06256175 -0.05573521 -0.02796870
v -0.06212487 -0.05872361 -0.02684870
v -0.04892086 -0.05526367 -0.03091464
v -0.04903524 -0.05581459 -0.03079789
v -0.04852148 -0.05698242 -0.02999164
v -0.04891711 -0.05937849 -0.02905222
v -0.04943462 -0.05967099 -0.02917809
v -0.04922462 -0.05627965 -0.03068662
v -0.04938775 -0.05663298 -0.03060271
v -0.06266863 -0.05526367 -0.02808180
v -0.06261988 -0.05967099 -0.02565391
v -0.06282988 -0.05802817 -0.02615372
v -0.06291613 -0.05663298 -0.02685053
v -0.06299488 -0.05526367 -0.02749444
v -0.06264988 -0.05663298 -0.02740506
v -0.04891149 -0.05526367 -0.03090916
v -0.04862648 -0.05967099 -0.02876219
v -0.04846335 -0.05663298 -0.03006460
v -0.04781647 -0.05909160 -0.02860349
v -0.04801335 -0.05955667 -0.02849587
v -0.04839398 -0.05967099 -0.02864180
v -0.04891336 -0.05967099 -0.02890994
v -0.06360989 -0.05967099 -0.02179410
v -0.06314301 -0.05526367 -0.02703659
v -0.06308113 -0.05526367 -0.02723906
v -0.04857586 -0.05526367 -0.03062825
v -0.04856086 -0.05526367 -0.03061366
v -0.04779772 -0.05872620 -0.02863815
v -0.04725583 -0.05967099 -0.02740323
v -0.04755959 -0.05967099 -0.02797053
v -0.04769084 -0.05967099 -0.02815841
v -0.04795335 -0.05967099 -0.02839919
v -0.04805835 -0.05967099 -0.02846486
v -0.06360989 -0.05967099 -0.02100974
v -0.06360989 -0.05858685 -0.02241430
v -0.06342427 -0.05526367 -0.02548245
v -0.06331364 -0.05526367 -0.02615189
v -0.04838085 -0.05526367 -0.03025796
v -0.04777709 -0.05802817 -0.02869288
v -0.04812585 -0.05593538 -0.02964141
v -0.04790834 -0.05663298 -0.02909783
v -0.04775647 -0.05663298 -0.02874942
v -0.04626019 -0.05967099 -0.02511580
v -0.06293113 -0.05526367 -0.01987515
v -0.06360989 -0.05526367 -0.02269339
v -0.06185111 -0.05967099 -0.01658811
v -0.06271925 -0.05526367 -0.01917651
v -0.06360989 -0.05544185 -0.02420557
v -0.06360989 -0.05527705 -0.02428948
v -0.06360989 -0.05526367 -0.02429496
v -0.04810335 -0.05526367 -0.02962134
v -0.04789897 -0.05593538 -0.02911789
v -0.04503016 -0.05915804 -0.02232127
v -0.04502266 -0.05967099 -0.02227202
v -0.04539017 -0.05967099 -0.02311658
v -0.06159236 -0.05967099 -0.01622876
v -0.06227862 -0.05526367 -0.01843958
v -0.06251112 -0.05526367 -0.01877521
v -0.04788772 -0.05526367 -0.02911789
v -0.04663707 -0.05663298 -0.02615372
v -0.04502829 -0.05872620 -0.02232857
v -0.04487454 -0.05872620 -0.02196740
v -0.04491204 -0.05940395 -0.02203124
v -0.04490454 -0.05967099 -0.02199841
v -0.06136923 -0.05967099 -0.01595879
v -0.06192049 -0.05526367 -0.01799997
v -0.06226924 -0.05526367 -0.01842681
v -0.04773584 -0.05526367 -0.02876219
v -0.04502266 -0.05733101 -0.02233951
v -0.04517267 -0.05802817 -0.02268245
v -0.04751646 -0.05526367 -0.02824597
v -0.04501891 -0.05593538 -0.02234863
v -0.04487079 -0.05802817 -0.02196740
v -0.04459328 -0.05942379 -0.02127059
v -0.04459891 -0.05967099 -0.02127059
v -0.04479954 -0.05967099 -0.02174850
v -0.06126422 -0.05967099 -0.01583293
v -0.06062859 -0.05967099 -0.01507228
v -0.05968357 -0.05967099 -0.01394498
v -0.05959732 -0.05967099 -0.01384283
v -0.05958982 -0.05966625 -0.01383736
v -0.05910606 -0.05889661 -0.01383736
v -0.05855667 -0.05802817 -0.01383736
v -0.05826042 -0.05756095 -0.01383736
v -0.05680351 -0.05526367 -0.01383736
v -0.04629581 -0.05526367 -0.02536935
v -0.04502266 -0.05550915 -0.02233951
v -0.04544455 -0.05526367 -0.02336101
v -0.04452578 -0.05967099 -0.02101339
v -0.05959169 -0.05967099 -0.01383736
v -0.05062527 -0.05526367 -0.01383736
v -0.04514829 -0.05526367 -0.02260583
v -0.04512204 -0.05526367 -0.02200935
v -0.04502266 -0.05550915 -0.02226473
v -0.04445453 -0.05967099 -0.02030564
v -0.04449015 -0.05942379 -0.02057195
v -0.04445828 -0.05967099 -0.02055918
v -0.04463078 -0.05872620 -0.02127059
v -0.04543517 -0.05526367 -0.02333730
v -0.04580830 -0.05967099 -0.01383736
v -0.04718271 -0.05770461 -0.01383736
v -0.05025401 -0.05526367 -0.01403618
v -0.04512204 -0.05526367 -0.02200388
v -0.04500391 -0.05617568 -0.02153143
v -0.04457641 -0.05967099 -0.01962707
v -0.04580080 -0.05967099 -0.01387019
v -0.04533767 -0.05526367 -0.02127059
v -0.04628644 -0.05526367 -0.01845052
v -0.04649644 -0.05526367 -0.01782667
v -0.04675707 -0.05526367 -0.01708426
v -0.04605018 -0.05918004 -0.01383736
v -0.04699895 -0.05784568 -0.01383736
v -0.04812585 -0.05526367 -0.01518172
v -0.04817460 -0.05526367 -0.01515436
v -0.04576518 -0.05967099 -0.01403618
v -0.04497204 -0.05967099 -0.01775918
v -0.04485954 -0.05967099 -0.01829000
v -0.04526454 -0.05967099 -0.01638563
v -0.04701770 -0.05526367 -0.01639658
v -0.04638769 -0.05849798 -0.01383736
v -0.04686770 -0.05797597 -0.01383736
v -0.04747146 -0.05526367 -0.01568517
v -0.04709645 -0.05526367 -0.01627254
v -0.04710208 -0.05551346 -0.01598615
v -0.04645332 -0.05839789 -0.01383736
v -0.04746771 -0.05526367 -0.01568882
f 1 2 3
f 1 3 4
f 1 4 5
f 1 5 6
f 1 6 7
f 1 7 23
f 1 23 49
f 1 49 25
f 1 25 24
f 1 24 48
f 1 48 46
f 1 46 45
f 1 45 64
f 1 64 74
f 1 74 85
f 1 85 98
f 1 98 102
f 1 102 113
f 1 113 112
f 1 112 125
f 1 125 124
f 1 124 138
f 1 138 133
f 1 133 132
f 1 132 135
f 1 135 146
f 1 146 145
f 1 145 155
f 1 155 154
f 1 154 173
f 1 173 179
f 1 179 190
f 1 190 202
f 1 202 201
f 1 201 210
f 1 210 214
f 1 214 211
f 1 211 207
f 1 207 198
f 1 198 197
f 1 197 196
f 1 196 195
f 1 195 191
f 1 191 181
f 1 181 180
f 1 180 187
f 1 187 176
f 1 176 174
f 1 174 159
f 1 159 156
f 1 156 147
f 1 147 139
f 1 139 126
f 1 126 115
f 1 115 114
f 1 114 104
f 1 104 91
f 1 91 79
f 1 79 68
f 1 68 57
f 1 57 32
f 1 32 52
f 1 52 51
f 1 51 50
f 1 50 26
f 1 26 8
f 1 8 2
f 2 8 3
f 3 8 9
f 3 9 10
f 3 10 11
f 3 11 4
f 4 11 12
f 4 12 13
f 4 13 14
f 4 14 15
f 4 15 5
f 5 16 17
f 5 17 18
f 5 18 19
f 5 19 6
f 5 15 20
f 5 20 21
f 5 21 16
f 6 22 23
f 6 23 7
f 6 19 24
f 6 24 25
f 6 25 22
f 8 26 27
f 8 27 9
f 9 27 10
f 10 28 29
f 10 29 30
f 10 30 31
f 10 31 11
f 10 27 32
f 10 32 28
f 11 31 12
f 12 31 30
f 12 30 33
f 12 33 34
f 12 34 35
f 12 35 13
f 13 35 14
f 14 35 36
f 14 36 37
f 14 37 15
f 15 37 38
f 15 38 20
f 16 39 40
f 16 40 41
f 16 41 42
f 16 42 18
f 16 18 17
f 16 21 43
f 16 43 39
f 18 42 44
f 18 44 45
f 18 45 19
f 19 46 47
f 19 47 48
f 19 48 24
f 19 45 46
f 20 38 36
f 20 36 35
f 20 35 33
f 20 33 30
f 20 30 56
f 20 56 73
f 20 73 71
f 20 71 82
f 20 82 81
f 20 81 95
f 20 95 110
f 20 110 105
f 20 105 109
f 20 109 121
f 20 121 120
f 20 120 119
f 20 119 118
f 20 118 117
f 20 117 131
f 20 131 143
f 20 143 142
f 20 142 152
f 20 152 164
f 20 164 163
f 20 163 177
f 20 177 185
f 20 185 183
f 20 183 193
f 20 193 205
f 20 205 204
f 20 204 206
f 20 206 203
f 20 203 194
f 20 194 188
f 20 188 178
f 20 178 168
f 20 168 167
f 20 167 166
f 20 166 165
f 20 165 153
f 20 153 144
f 20 144 134
f 20 134 122
f 20 122 111
f 20 111 99
f 20 99 86
f 20 86 75
f 20 75 65
f 20 65 62
f 20 62 61
f 20 61 60
f 20 60 59
f 20 59 43
f 20 43 21
f 22 25 49
f 22 49 23
f 26 50 27
f 27 50 51
f 27 51 52
f 27 52 32
f 28 53 54
f 28 54 55
f 28 55 56
f 28 56 29
f 28 32 53
f 29 56 30
f 32 57 58
f 32 58 53
f 33 35 34
f 36 38 37
f 39 43 40
f 40 59 60
f 40 60 41
f 40 43 59
f 41 60 61
f 41 61 62
f 41 62 63
f 41 63 44
f 41 44 42
f 44 64 45
f 44 63 65
f 44 65 66
f 44 66 64
f 46 48 47
f 53 55 54
f 53 58 55
f 55 58 67
f 55 67 57
f 55 57 68
f 55 68 69
f 55 69 70
f 55 70 71
f 55 71 72
f 55 72 56
f 56 72 73
f 57 67 58
f 62 65 63
f 64 66 74
f 65 75 76
f 65 76 77
f 65 77 78
f 65 78 74
f 65 74 66
f 68 79 80
f 68 80 69
f 69 81 82
f 69 82 70
f 69 80 83
f 69 83 84
f 69 84 81
f 70 82 71
f 71 73 72
f 74 78 85
f 75 86 76
f 76 86 87
f 76 87 88
f 76 88 89
f 76 89 78
f 76 78 90
f 76 90 77
f 77 90 78
f 78 89 85
f 79 91 92
f 79 92 80
f 80 92 83
f 81 84 93
f 81 93 94
f 81 94 95
f 83 92 84
f 84 92 96
f 84 96 97
f 84 97 93
f 85 89 98
f 86 99 100
f 86 100 101
f 86 101 102
f 86 102 87
f 87 103 98
f 87 98 88
f 87 102 103
f 88 98 89
f 91 104 92
f 92 104 93
f 92 93 96
f 93 105 94
f 93 97 96
f 93 104 106
f 93 106 107
f 93 107 108
f 93 108 109
f 93 109 105
f 94 105 110
f 94 110 95
f 98 103 102
f 99 111 100
f 100 111 112
f 100 112 101
f 101 112 113
f 101 113 102
f 104 114 106
f 106 114 115
f 106 115 107
f 107 116 117
f 107 117 118
f 107 118 119
f 107 119 120
f 107 120 108
f 107 115 116
f 108 120 121
f 108 121 109
f 111 122 133
f 111 133 138
f 111 138 137
f 111 137 136
f 111 136 123
f 111 123 124
f 111 124 125
f 111 125 112
f 115 126 127
f 115 127 116
f 116 127 117
f 117 127 128
f 117 128 129
f 117 129 130
f 117 130 131
f 122 132 133
f 122 134 135
f 122 135 132
f 123 136 124
f 124 136 137
f 124 137 138
f 126 139 128
f 126 128 127
f 128 130 129
f 128 139 140
f 128 140 141
f 128 141 130
f 130 141 142
f 130 142 143
f 130 143 131
f 134 144 145
f 134 145 146
f 134 146 135
f 139 147 141
f 139 141 140
f 141 148 149
f 141 149 150
f 141 150 151
f 141 151 152
f 141 152 142
f 141 147 148
f 144 153 154
f 144 154 155
f 144 155 145
f 147 156 148
f 148 157 158
f 148 158 150
f 148 150 149
f 148 156 159
f 148 159 157
f 150 158 157
f 150 157 160
f 150 160 161
f 150 161 162
f 150 162 151
f 151 162 163
f 151 163 164
f 151 164 152
f 153 165 154
f 154 165 166
f 154 166 167
f 154 167 168
f 154 168 169
f 154 169 170
f 154 170 171
f 154 171 172
f 154 172 173
f 157 159 174
f 157 174 160
f 160 175 162
f 160 162 161
f 160 174 176
f 160 176 175
f 162 177 163
f 162 175 177
f 168 178 169
f 169 178 188
f 169 188 199
f 169 199 208
f 169 208 213
f 169 213 209
f 169 209 200
f 169 200 189
f 169 189 179
f 169 179 173
f 169 173 172
f 169 172 171
f 169 171 170
f 175 180 181
f 175 181 191
f 175 191 182
f 175 182 183
f 175 183 184
f 175 184 185
f 175 185 186
f 175 186 177
f 175 176 187
f 175 187 180
f 177 186 185
f 179 189 190
f 182 191 192
f 182 192 183
f 183 192 193
f 183 185 184
f 188 194 191
f 188 191 195
f 188 195 196
f 188 196 197
f 188 197 198
f 188 198 199
f 189 200 201
f 189 201 202
f 189 202 190
f 191 194 203
f 191 203 192
f 192 204 205
f 192 205 193
f 192 203 206
f 192 206 204
f 198 207 199
f 199 207 208
f 200 209 210
f 200 210 201
f 207 211 212
f 207 212 213
f 207 213 208
f 209 213 210
f 210 213 214
f 211 214 212
f 212 214 213

