# https://github.com/mikedh/trimesh
v -0.06855539 -0.02625615 -0.01946141
v -0.07046732 -0.02756981 -0.01946141
v -0.06855539 -0.03023073 -0.01946141
v -0.06855539 -0.02835189 -0.02093490
v -0.06877024 -0.02836411 -0.02092713
v -0.07024583 -0.03180559 -0.02305181
v -0.07172842 -0.03526540 -0.02515741
v -0.07219350 -0.03537080 -0.02508882
v -0.07227016 -0.03463607 -0.02442208
v -0.07228048 -0.02881778 -0.01946141
v -0.07231991 -0.03088756 -0.01946141
v -0.07119921 -0.04186119 -0.02483853
v -0.06972620 -0.04186119 -0.02518428
v -0.06911555 -0.04186119 -0.02533417
v -0.06855539 -0.04186119 -0.02550740
v -0.06855539 -0.02857644 -0.02107914
v -0.06980396 -0.03177962 -0.02306666
v -0.07189684 -0.03615136 -0.02573365
v -0.07231991 -0.03656837 -0.02591325
v -0.07231991 -0.03525318 -0.02489651
v -0.07231991 -0.03458413 -0.02434289
v -0.07231991 -0.02884986 -0.01946141
v -0.07231991 -0.03107697 -0.01957807
v -0.07226242 -0.04128073 -0.02508529
v -0.07224620 -0.04163206 -0.02510650
v -0.07199597 -0.04186119 -0.02498206
v -0.07193848 -0.04186119 -0.02495519
v -0.06855539 -0.04186119 -0.02668464
v -0.06855539 -0.02960445 -0.02171902
v -0.06910634 -0.03051026 -0.02228890
v -0.07119921 -0.03523027 -0.02517862
v -0.07189684 -0.03649963 -0.02595355
v -0.07189684 -0.03709383 -0.02617839
v -0.07231991 -0.03666002 -0.02594789
v -0.07231991 -0.04004651 -0.02545508
v -0.07228453 -0.04058266 -0.02506337
v -0.07224620 -0.04163206 -0.02510792
v -0.07214412 -0.04186119 -0.02533700
v -0.06855539 -0.03848997 -0.02668393
v -0.06920879 -0.04186119 -0.02660050
v -0.07050159 -0.03848997 -0.02643364
v -0.06971073 -0.03848997 -0.02653545
v -0.06910634 -0.03848997 -0.02661323
v -0.06855539 -0.03052096 -0.02228254
v -0.06910634 -0.03086006 -0.02249960
v -0.06910634 -0.03143899 -0.02284818
v -0.07119921 -0.03569769 -0.02546003
v -0.07119921 -0.03650727 -0.02594718
v -0.06980396 -0.03709383 -0.02626041
v -0.06910634 -0.03753681 -0.02648101
v -0.07050159 -0.03709383 -0.02624910
v -0.07119921 -0.03709383 -0.02621657
v -0.06983639 -0.03776594 -0.02648242
v -0.07050159 -0.03779190 -0.02642939
v -0.07119921 -0.03779190 -0.02634313
v -0.07189684 -0.03779190 -0.02624910
v -0.07231991 -0.03709383 -0.02603486
v -0.07231991 -0.03957756 -0.02590476
v -0.07226242 -0.04128073 -0.02518993
v -0.07225910 -0.04031382 -0.02582699
v -0.07229448 -0.03988459 -0.02587648
v -0.07212643 -0.04186119 -0.02539851
v -0.06855539 -0.03836166 -0.02667191
v -0.07050159 -0.04186119 -0.02643364
v -0.07119921 -0.04058266 -0.02634384
v -0.06855539 -0.03179948 -0.02305181
v -0.06855539 -0.03520888 -0.02510297
v -0.06910634 -0.03620024 -0.02571244
v -0.06855539 -0.03709383 -0.02623637
v -0.06910634 -0.03709383 -0.02624910
v -0.06855539 -0.03742683 -0.02642515
v -0.06855539 -0.03752001 -0.02647394
v -0.06855539 -0.03779496 -0.02657717
v -0.06855539 -0.03786828 -0.02659272
v -0.06910634 -0.03788508 -0.02655737
v -0.07119921 -0.04128073 -0.02634313
v -0.07119921 -0.04186119 -0.02633465
v -0.07189684 -0.03848997 -0.02622859
v -0.07231991 -0.03796451 -0.02605819
v -0.07231991 -0.03779190 -0.02606314
v -0.07231991 -0.03728171 -0.02605324
v -0.07231991 -0.03923693 -0.02595355
v -0.07178259 -0.04186119 -0.02604264
v -0.07184156 -0.04186119 -0.02595567
v -0.07061915 -0.04186119 -0.02641808
v -0.07130535 -0.04186119 -0.02628515
v -0.07189684 -0.03918652 -0.02618829
v -0.07231991 -0.03861065 -0.02601860
f 1 2 10
f 1 10 22
f 1 22 11
f 1 11 3
f 1 3 15
f 1 15 28
f 1 28 39
f 1 39 63
f 1 63 74
f 1 74 73
f 1 73 72
f 1 72 71
f 1 71 69
f 1 69 67
f 1 67 66
f 1 66 44
f 1 44 29
f 1 29 16
f 1 16 4
f 1 4 5
f 1 5 6
f 1 6 7
f 1 7 8
f 1 8 9
f 1 9 2
f 2 9 10
f 3 11 12
f 3 12 13
f 3 13 14
f 3 14 15
f 4 16 17
f 4 17 6
f 4 6 5
f 6 17 18
f 6 18 7
f 7 18 19
f 7 19 8
f 8 19 20
f 8 20 21
f 8 21 9
f 9 21 22
f 9 22 10
f 11 23 24
f 11 24 25
f 11 25 26
f 11 26 27
f 11 27 12
f 11 22 21
f 11 21 20
f 11 20 19
f 11 19 34
f 11 34 57
f 11 57 81
f 11 81 80
f 11 80 79
f 11 79 88
f 11 88 82
f 11 82 58
f 11 58 35
f 11 35 23
f 12 27 26
f 12 26 38
f 12 38 62
f 12 62 84
f 12 84 83
f 12 83 86
f 12 86 77
f 12 77 85
f 12 85 64
f 12 64 40
f 12 40 28
f 12 28 15
f 12 15 14
f 12 14 13
f 16 29 30
f 16 30 17
f 17 30 31
f 17 31 32
f 17 32 18
f 18 32 19
f 19 32 33
f 19 33 34
f 23 35 36
f 23 36 24
f 24 36 35
f 24 35 25
f 25 35 37
f 25 37 38
f 25 38 26
f 28 40 41
f 28 41 42
f 28 42 43
f 28 43 39
f 29 44 30
f 30 44 45
f 30 45 31
f 31 45 46
f 31 46 47
f 31 47 32
f 32 47 48
f 32 48 49
f 32 49 50
f 32 50 51
f 32 51 52
f 32 52 33
f 33 52 50
f 33 50 53
f 33 53 54
f 33 54 55
f 33 55 56
f 33 56 57
f 33 57 34
f 35 58 59
f 35 59 37
f 37 60 38
f 37 59 58
f 37 58 61
f 37 61 60
f 38 60 62
f 39 43 55
f 39 55 54
f 39 54 63
f 40 64 65
f 40 65 41
f 41 65 55
f 41 55 42
f 42 55 43
f 44 66 46
f 44 46 45
f 46 66 67
f 46 67 48
f 46 48 47
f 48 68 69
f 48 69 70
f 48 70 49
f 48 67 68
f 49 70 71
f 49 71 72
f 49 72 50
f 50 72 73
f 50 73 53
f 50 52 51
f 53 73 74
f 53 74 75
f 53 75 63
f 53 63 54
f 55 65 56
f 56 65 76
f 56 76 77
f 56 77 78
f 56 78 79
f 56 79 80
f 56 80 81
f 56 81 57
f 58 82 83
f 58 83 61
f 60 83 84
f 60 84 62
f 60 61 83
f 63 75 74
f 64 85 76
f 64 76 65
f 67 69 68
f 69 71 70
f 76 85 77
f 77 86 87
f 77 87 78
f 78 87 79
f 79 87 88
f 82 88 83
f 83 88 86
f 86 88 87

