# https://github.com/mikedh/trimesh
v -0.06527935 -0.04546810 0.02690342
v -0.06547919 -0.04477081 0.02670651
v -0.06545522 -0.04546810 0.02672742
v -0.06527935 -0.04616539 0.02689466
v -0.06527935 -0.04227809 0.02685345
v -0.06527935 -0.04186119 0.02684668
v -0.06548980 -0.04267692 0.02665375
v -0.06581665 -0.04186119 0.02617831
v -0.06590560 -0.04186119 0.02602620
v -0.06536247 -0.04756131 0.02664698
v -0.06537706 -0.04686335 0.02670034
v -0.06527935 -0.04686335 0.02683115
v -0.06527935 -0.04186119 0.02486966
v -0.06540821 -0.04186119 0.02671428
v -0.06546117 -0.04197963 0.02665415
v -0.06545516 -0.04186119 0.02665535
v -0.06590560 -0.04186119 0.02598101
v -0.06528695 -0.04868688 0.02654545
v -0.06532330 -0.04825927 0.02658526
v -0.06527935 -0.04732509 0.02678297
v -0.06536057 -0.04186119 0.02486966
v -0.06527935 -0.04233899 0.02486966
v -0.06581917 -0.04186119 0.02565788
v -0.06528695 -0.04868688 0.02650463
v -0.06527935 -0.04869759 0.02649368
v -0.06527935 -0.04869290 0.02655042
v -0.06527935 -0.04867952 0.02655321
v -0.06527935 -0.04815889 0.02664420
v -0.06534059 -0.04201042 0.02486966
f 1 2 3
f 1 3 4
f 1 4 12
f 1 12 20
f 1 20 28
f 1 28 27
f 1 27 26
f 1 26 25
f 1 25 22
f 1 22 13
f 1 13 6
f 1 6 5
f 1 5 2
f 2 5 6
f 2 6 7
f 2 7 8
f 2 8 9
f 2 9 3
f 3 10 11
f 3 11 12
f 3 12 4
f 3 9 10
f 6 13 21
f 6 21 23
f 6 23 17
f 6 17 9
f 6 9 8
f 6 8 16
f 6 16 14
f 6 14 7
f 7 14 15
f 7 15 8
f 8 15 16
f 9 17 24
f 9 24 18
f 9 18 19
f 9 19 10
f 10 19 20
f 10 20 11
f 11 20 12
f 13 22 29
f 13 29 21
f 14 16 15
f 17 23 24
f 18 24 25
f 18 25 26
f 18 26 27
f 18 27 28
f 18 28 19
f 19 28 20
f 21 29 23
f 22 25 29
f 23 29 25
f 23 25 24

