# https://github.com/mikedh/trimesh
v -0.05445088 -0.04899073 0.03470225
v -0.05375266 -0.05105143 0.03444099
v -0.05375266 -0.05035434 0.03451783
v -0.05375266 -0.04965726 0.03459083
v -0.05375266 -0.04899073 0.03465422
v -0.05794012 -0.04899073 0.03451399
v -0.05724189 -0.04965726 0.03445828
v -0.05584734 -0.04965726 0.03453320
v -0.05374118 -0.05248725 0.03424696
v -0.05350014 -0.05283440 0.03421046
v -0.05338537 -0.05283440 0.03421046
v -0.05331459 -0.05244837 0.03423736
v -0.05321894 -0.05174851 0.03428731
v -0.05308886 -0.04899073 0.03439681
v -0.05316729 -0.05105143 0.03432765
v -0.05313668 -0.05035434 0.03435646
v -0.05311181 -0.04965726 0.03437952
v -0.05864026 -0.04899073 0.03444867
v -0.05834566 -0.05081814 0.03422199
v -0.05794012 -0.05035434 0.03432188
v -0.05794012 -0.05094034 0.03423928
v -0.05726484 -0.05171518 0.03416628
v -0.05654557 -0.05314545 0.03400299
v -0.05375266 -0.05384254 0.03405486
v -0.05375266 -0.05453962 0.03395496
v -0.05305825 -0.05453962 0.03394536
v -0.05240019 -0.05453962 0.03371291
v -0.05236002 -0.04899073 0.03395496
v -0.05236002 -0.05314545 0.03377631
v -0.05278853 -0.05035434 0.03415667
v -0.05276366 -0.04965726 0.03417204
v -0.05866321 -0.04899073 0.03444291
v -0.05794012 -0.05314545 0.03391270
v -0.05794012 -0.05244837 0.03402220
v -0.05794012 -0.05174851 0.03412401
v -0.05896546 -0.04998220 0.03419894
v -0.05792673 -0.05517005 0.03356499
v -0.05768569 -0.05566995 0.03353810
v -0.05724189 -0.05384254 0.03386660
v -0.05584734 -0.05453962 0.03384354
v -0.05445088 -0.05453962 0.03391846
v -0.05724189 -0.05523948 0.03366489
v -0.05654557 -0.05523948 0.03369370
v -0.05584734 -0.05523948 0.03372060
v -0.05375266 -0.05523948 0.03379552
v -0.05305825 -0.05523948 0.03380512
v -0.05247480 -0.05523948 0.03365528
v -0.05212473 -0.05523948 0.03343052
v -0.05205204 -0.05453962 0.03347855
v -0.05199274 -0.05363424 0.03351889
v -0.05229690 -0.05385642 0.03369562
v -0.05146667 -0.04899073 0.03341323
v -0.05196978 -0.05314545 0.03353426
v -0.05193917 -0.05244837 0.03355154
v -0.05191239 -0.05174851 0.03356691
v -0.05236002 -0.05244837 0.03380705
v -0.05236002 -0.05174851 0.03383778
v -0.05913189 -0.04899073 0.03430459
v -0.05905154 -0.04951562 0.03425080
v -0.05724189 -0.05453962 0.03376670
v -0.05829019 -0.05489233 0.03350736
v -0.05815245 -0.05535890 0.03344781
v -0.05792673 -0.05591712 0.03333831
v -0.05774117 -0.05715576 0.03288302
v -0.05724189 -0.05760012 0.03277352
v -0.05724189 -0.05725019 0.03292337
v -0.05724189 -0.05607265 0.03341900
v -0.05724189 -0.05572272 0.03355923
v -0.05654557 -0.05453962 0.03380512
v -0.05654557 -0.05573938 0.03356883
v -0.05584734 -0.05575604 0.03357652
v -0.05305825 -0.05582270 0.03360341
v -0.05258575 -0.05575604 0.03357460
v -0.05200804 -0.05768621 0.03281002
v -0.05183396 -0.05663365 0.03293105
v -0.05163884 -0.05586713 0.03297139
v -0.05131172 -0.05558941 0.03281002
v -0.05166179 -0.05523948 0.03310586
v -0.05044324 -0.05523948 0.03223755
v -0.05166179 -0.05453962 0.03319423
v -0.05065175 -0.05105143 0.03278313
v -0.05059436 -0.05015994 0.03282347
v -0.05096356 -0.04899073 0.03310779
v -0.05057141 -0.04965726 0.03283884
v -0.05054463 -0.04899073 0.03285229
v -0.05096356 -0.04965726 0.03307897
v -0.05914528 -0.04899073 0.03429499
v -0.05947813 -0.04899073 0.03403757
v -0.05930406 -0.04971280 0.03399723
v -0.05862687 -0.05520060 0.03314813
v -0.05887364 -0.05593656 0.03272742
v -0.05852357 -0.05593656 0.03299444
v -0.05938631 -0.05035990 0.03376286
v -0.05839540 -0.05642535 0.03288110
v -0.05796116 -0.05664753 0.03300021
v -0.05820793 -0.05688915 0.03276008
v -0.05773926 -0.05857215 0.03220297
v -0.05747336 -0.05903872 0.03209156
v -0.05654557 -0.06253802 0.03070264
v -0.05654557 -0.06218809 0.03085248
v -0.05236002 -0.06312680 0.03066038
v -0.05166179 -0.06316845 0.03067575
v -0.05166179 -0.06281852 0.03081983
v -0.05166179 -0.06221587 0.03106380
v -0.05166179 -0.06160765 0.03130969
v -0.05166179 -0.06126050 0.03144801
v -0.05126581 -0.06123828 0.03144032
v -0.05070532 -0.06012462 0.03135195
v -0.05121225 -0.05803059 0.03218184
v -0.05060775 -0.06258524 0.03071993
v -0.04859724 -0.05675584 0.03066422
v -0.04884592 -0.05656699 0.03087938
v -0.04852072 -0.05628927 0.03071609
v -0.04795448 -0.05803059 0.02992846
v -0.04814195 -0.05593656 0.03048749
v -0.04765989 -0.05593656 0.03013786
v -0.04961684 -0.05523948 0.03163435
v -0.04923616 -0.05475624 0.03140190
v -0.05078566 -0.05314545 0.03268516
v -0.04934520 -0.04899073 0.03202048
v -0.04830647 -0.05314545 0.03087362
v -0.04969336 -0.04899073 0.03227405
v -0.04971823 -0.04899073 0.03229134
v -0.05019647 -0.04899073 0.03262368
v -0.05021369 -0.04899073 0.03263521
v -0.05950109 -0.04899073 0.03401836
v -0.05977082 -0.05523948 0.03218377
v -0.06105058 -0.05688360 0.03069112
v -0.05963308 -0.05611986 0.03206850
v -0.06171247 -0.05749736 0.02997073
v -0.06058574 -0.05733073 0.03087746
v -0.05914719 -0.05663365 0.03223755
v -0.06032366 -0.05120973 0.03276008
v -0.06072347 -0.05381476 0.03175537
v -0.05982247 -0.05716687 0.03150948
v -0.06124762 -0.05791117 0.03013786
v -0.06045183 -0.05777231 0.03076412
v -0.05884495 -0.05749458 0.03201471
v -0.05820411 -0.05826665 0.03205313
v -0.05772395 -0.05994965 0.03150564
v -0.05727441 -0.06227141 0.03058738
v -0.05706398 -0.06207423 0.03080446
v -0.05654557 -0.06291573 0.03052975
v -0.05584734 -0.06361003 0.03026272
v -0.05585691 -0.06285463 0.03059891
v -0.05514911 -0.06295738 0.03059122
v -0.05584734 -0.06401551 0.03005525
v -0.05166179 -0.06361003 0.03043370
v -0.05096356 -0.06361003 0.03037414
v -0.05096356 -0.06306570 0.03065654
v -0.04856854 -0.05963305 0.02998609
v -0.05043176 -0.06151878 0.03084288
v -0.05047194 -0.06361003 0.03015899
v -0.05029212 -0.06286296 0.03036262
v -0.04919408 -0.06122717 0.03003988
v -0.04911947 -0.06082170 0.03008983
v -0.04698653 -0.05733073 0.02941747
v -0.04738251 -0.05663365 0.02983625
v -0.04689279 -0.05663365 0.02948662
v -0.04654272 -0.05663365 0.02923113
v -0.04683349 -0.05593656 0.02953465
v -0.04878853 -0.04899073 0.03161321
v -0.04786840 -0.05174851 0.03068343
v -0.04741694 -0.05312601 0.03022430
v -0.05989133 -0.04899073 0.03368602
v -0.06039444 -0.05074315 0.03281963
v -0.06179281 -0.05703357 0.03003028
v -0.06105824 -0.05412026 0.03139614
v -0.06246235 -0.05763345 0.02929260
v -0.06201663 -0.05803059 0.02951352
v -0.06212758 -0.05733351 0.02966720
v -0.06112902 -0.05365646 0.03145569
v -0.06145996 -0.05809724 0.02989196
v -0.06187698 -0.05849994 0.02939057
v -0.06107928 -0.05837497 0.03001683
v -0.06003098 -0.05939976 0.03020509
v -0.05881625 -0.06024681 0.03059891
v -0.05794203 -0.06079948 0.03091204
v -0.05752883 -0.06179095 0.03067575
v -0.05726293 -0.06292128 0.03025504
v -0.05704294 -0.06344062 0.03012057
v -0.05675791 -0.06390720 0.02997649
v -0.05653409 -0.06364891 0.03017243
v -0.05629306 -0.06399051 0.03003796
v -0.05584734 -0.06436544 0.02982857
v -0.05514911 -0.06570406 0.02898715
v -0.05445088 -0.06440154 0.02985354
v -0.05305825 -0.06443764 0.02987659
v -0.05305825 -0.06408771 0.03010136
v -0.05166179 -0.06412382 0.03012441
v -0.05166179 -0.06447375 0.02989965
v -0.05096356 -0.06405716 0.03008407
v -0.05059819 -0.06397385 0.03003220
v -0.04707261 -0.05783896 0.02935792
v -0.04997648 -0.06313790 0.02995536
v -0.04918643 -0.06539579 0.02795748
v -0.04986744 -0.06404050 0.02937328
v -0.04986744 -0.06267133 0.03006870
v -0.04929738 -0.06169375 0.02993615
v -0.04715104 -0.05830553 0.02929836
v -0.04663837 -0.05733073 0.02914852
v -0.04622517 -0.05663365 0.02888342
v -0.04648533 -0.05593656 0.02926570
v -0.04627491 -0.05733073 0.02879889
v -0.04711852 -0.05288162 0.03002644
v -0.04853411 -0.04921846 0.03140574
v -0.04851881 -0.04899073 0.03141535
v -0.04781101 -0.05081814 0.03072762
v -0.06025862 -0.04899073 0.03336520
v -0.06044800 -0.05035434 0.03286765
v -0.06172777 -0.05470625 0.03067191
v -0.06185211 -0.05663365 0.03008215
v -0.06254078 -0.05803059 0.02881234
v -0.06249487 -0.05842495 0.02867018
v -0.06236479 -0.05803059 0.02916005
v -0.06251400 -0.05716687 0.02936560
v -0.06276651 -0.05663365 0.02897178
v -0.06260773 -0.05737239 0.02902557
v -0.06220218 -0.05663365 0.02977862
v -0.06165125 -0.05523948 0.03060659
v -0.05961969 -0.06038568 0.02997265
v -0.06026053 -0.05961361 0.02993423
v -0.06094537 -0.05872767 0.02992462
v -0.06212184 -0.05869435 0.02895065
v -0.06169142 -0.05896374 0.02923305
v -0.05750779 -0.06315734 0.02993807
v -0.05769335 -0.06269077 0.03008983
v -0.05833610 -0.06192703 0.03004949
v -0.05897694 -0.06115774 0.03001107
v -0.05794203 -0.06154100 0.03052399
v -0.05793055 -0.06218254 0.03019549
v -0.05728780 -0.06366558 0.02972483
v -0.05706781 -0.06415992 0.02951160
v -0.05685356 -0.06462372 0.02929068
v -0.05638871 -0.06479313 0.02942131
v -0.05559101 -0.06611231 0.02866442
v -0.05584734 -0.06488756 0.02947894
v -0.05514911 -0.06615675 0.02869131
v -0.05285930 -0.06745649 0.02793058
v -0.05375266 -0.06867013 0.02711414
v -0.05305825 -0.06833965 0.02735235
v -0.05200039 -0.06745371 0.02793058
v -0.05166179 -0.06499587 0.02955002
v -0.05305825 -0.06919225 0.02679717
v -0.05305825 -0.06956995 0.02654935
v -0.05166179 -0.06534580 0.02931373
v -0.04856280 -0.06671219 0.02650517
v -0.05096356 -0.06521527 0.02920423
v -0.05100565 -0.06569573 0.02882579
v -0.05053124 -0.06471537 0.02936944
v -0.05026916 -0.06500420 0.02896987
v -0.04797553 -0.06803693 0.02504326
v -0.04976223 -0.06361003 0.02948854
v -0.04958050 -0.06288795 0.02965568
v -0.04908887 -0.06500420 0.02806313
v -0.04771919 -0.06757313 0.02523920
v -0.04715104 -0.06810636 0.02441892
v -0.04782632 -0.05976913 0.02931757
v -0.04724095 -0.05872767 0.02920039
v -0.04636482 -0.05783341 0.02869708
v -0.04597075 -0.05663365 0.02827445
v -0.04625004 -0.05593656 0.02891800
v -0.04646046 -0.05523948 0.02927339
v -0.04599562 -0.05733073 0.02827445
v -0.04618883 -0.05805281 0.02831863
v -0.04590762 -0.05869435 0.02752140
v -0.04711278 -0.05244837 0.03003412
v -0.04777275 -0.04965726 0.03077180
v -0.04778806 -0.05035434 0.03074875
v -0.04822995 -0.04899073 0.03115985
v -0.06063356 -0.04899073 0.03303286
v -0.06105824 -0.05131526 0.03209156
v -0.06212375 -0.05452573 0.03036454
v -0.06230166 -0.05593656 0.02986315
v -0.06293293 -0.05663365 0.02827445
v -0.06279711 -0.05733073 0.02827445
v -0.06188846 -0.06063285 0.02739269
v -0.06189802 -0.05994410 0.02808426
v -0.06189994 -0.05923313 0.02876816
v -0.06300754 -0.06970048 0.01521521
v -0.06300754 -0.06983934 0.01507882
v -0.06180429 -0.06540134 0.02239606
v -0.06186359 -0.06199647 0.02596920
v -0.06300754 -0.05522282 0.02897178
v -0.06288702 -0.05593656 0.02897178
v -0.06239731 -0.05523948 0.02994767
v -0.06300754 -0.05195125 0.03019741
v -0.06300754 -0.05244837 0.03004565
v -0.06300754 -0.05314545 0.02979015
v -0.06300754 -0.05337041 0.02970754
v -0.06300754 -0.05591434 0.02850881
v -0.06300754 -0.05626150 0.02825332
v -0.05849105 -0.06151878 0.03015707
v -0.06146952 -0.05947475 0.02901981
v -0.06103528 -0.05971636 0.02927339
v -0.06037531 -0.06046344 0.02931181
v -0.05772969 -0.06342396 0.02947318
v -0.05761874 -0.06817857 0.02516428
v -0.05766083 -0.07032258 0.02312030
v -0.05767613 -0.07103633 0.02243833
v -0.05770482 -0.07246382 0.02107247
v -0.05686695 -0.06533191 0.02860295
v -0.05640210 -0.06550132 0.02876431
v -0.05746762 -0.07292762 0.02085347
v -0.05484113 -0.06817579 0.02725245
v -0.05360536 -0.07037257 0.02592501
v -0.05394778 -0.06951163 0.02650133
v -0.05348293 -0.06955885 0.02653975
v -0.05267757 -0.06956162 0.02654359
v -0.05260871 -0.07030870 0.02589044
v -0.05193726 -0.06819801 0.02726974
v -0.05305825 -0.06991988 0.02629386
v -0.04761780 -0.06831465 0.02458029
v -0.05047002 -0.06545688 0.02870860
v -0.05167327 -0.06848684 0.02687017
v -0.04935668 -0.06735095 0.02644754
v -0.04817830 -0.06848961 0.02478392
v -0.04850159 -0.06746204 0.02584241
v -0.04791431 -0.06877845 0.02438050
v -0.04782440 -0.06674830 0.02583088
v -0.04743033 -0.06510140 0.02622854
v -0.04691192 -0.06291573 0.02676067
v -0.04691192 -0.06151878 0.02745801
v -0.04703818 -0.05926645 0.02871821
v -0.04710131 -0.06886732 0.02376384
v -0.04698844 -0.06849517 0.02391753
v -0.04684306 -0.06784252 0.02414613
v -0.04704392 -0.06764256 0.02453418
v -0.04714339 -0.06670941 0.02511434
v -0.04723521 -0.06709822 0.02501828
v -0.04691384 -0.05872767 0.02885076
v -0.04646620 -0.05829720 0.02858181
v -0.04636673 -0.05923035 0.02800166
v -0.04627682 -0.05872767 0.02812461
v -0.04587510 -0.05663365 0.02757519
v -0.04602431 -0.05593656 0.02827445
v -0.04628830 -0.05523948 0.02892376
v -0.04572015 -0.05844162 0.02725245
v -0.04572015 -0.05824444 0.02725245
v -0.04582345 -0.05733073 0.02757519
v -0.04647768 -0.05453962 0.02921576
v -0.04711661 -0.05201512 0.03003028
v -0.04576224 -0.05890541 0.02715256
v -0.04583110 -0.05942476 0.02703538
v -0.04779188 -0.04899073 0.03075643
v -0.06174116 -0.04899073 0.03204545
v -0.06300754 -0.04913792 0.03088130
v -0.06172777 -0.06041067 0.02785758
v -0.06169716 -0.06314346 0.02500484
v -0.06171821 -0.06177984 0.02643409
v -0.06118640 -0.06285463 0.02611328
v -0.06109267 -0.06258246 0.02654551
v -0.06171247 -0.05969692 0.02854916
v -0.06300754 -0.06767589 0.01507882
v -0.05859626 -0.07473281 0.01507882
v -0.05829210 -0.07442732 0.01676934
v -0.05824810 -0.07368024 0.01873648
v -0.05816967 -0.07356082 0.01920329
v -0.05910128 -0.07246938 0.01903616
v -0.06049774 -0.07107521 0.01834075
v -0.06112328 -0.07030036 0.01822548
v -0.06178899 -0.06607621 0.02167183
v -0.06166464 -0.06518749 0.02286096
v -0.06300754 -0.05523948 0.02896218
v -0.06300754 -0.05043488 0.03056625
v -0.06081146 -0.06021904 0.02906015
v -0.06022419 -0.06082170 0.02914660
v -0.05819454 -0.06315179 0.02921576
v -0.05812759 -0.07004764 0.02286288
v -0.05814098 -0.07076138 0.02218091
v -0.05883729 -0.06919225 0.02287440
v -0.05815628 -0.07147513 0.02149510
v -0.05770865 -0.07317479 0.02038858
v -0.05687843 -0.06604010 0.02791521
v -0.05689182 -0.06674830 0.02722556
v -0.05654557 -0.07077527 0.02358519
v -0.05569622 -0.07107799 0.02387526
v -0.05445088 -0.06973659 0.02601915
v -0.05745231 -0.07363859 0.02016381
v -0.05700277 -0.07310536 0.02102252
v -0.05698938 -0.07239994 0.02171217
v -0.05445088 -0.06937277 0.02636685
v -0.05407021 -0.07021705 0.02581167
v -0.05384448 -0.07065030 0.02554465
v -0.05362066 -0.07105021 0.02527762
v -0.05305825 -0.07074194 0.02565031
v -0.05305825 -0.07039201 0.02594423
v -0.05258958 -0.07101133 0.02521423
v -0.05236768 -0.07058642 0.02548317
v -0.05128877 -0.07025315 0.02514699
v -0.05214386 -0.07014484 0.02575212
v -0.05101904 -0.06986989 0.02531220
v -0.04918834 -0.06956162 0.02445734
v -0.04646429 -0.06108831 0.02717945
v -0.04675124 -0.05948030 0.02830134
v -0.04716061 -0.06951441 0.02300695
v -0.04647194 -0.07158622 0.01949721
v -0.04642795 -0.07093635 0.02025218
v -0.04651403 -0.06942831 0.02220972
v -0.04647768 -0.06873401 0.02295701
v -0.04792579 -0.06947831 0.02366971
v -0.04796596 -0.07015039 0.02294164
v -0.04851115 -0.07164176 0.02165454
v -0.04997074 -0.07509107 0.01881524
v -0.04855324 -0.07231107 0.02092263
v -0.04662689 -0.06849794 0.02337579
v -0.04648533 -0.06779531 0.02363129
v -0.04655803 -0.06716488 0.02409234
v -0.04647386 -0.06383221 0.02576365
v -0.04646429 -0.06247415 0.02647827
v -0.04637056 -0.06062452 0.02730240
v -0.04619265 -0.05944697 0.02761937
v -0.04592292 -0.06011073 0.02683943
v -0.04573737 -0.05778064 0.02716985
v -0.04571059 -0.05733073 0.02668382
v -0.04556329 -0.05733073 0.02548317
v -0.04574502 -0.05647257 0.02640335
v -0.04610083 -0.05384254 0.02757519
v -0.04608935 -0.05523948 0.02827445
v -0.04632847 -0.05453962 0.02886613
v -0.04627108 -0.05174851 0.02757519
v -0.04642412 -0.05066539 0.02793634
v -0.04501044 -0.06266578 0.02379074
v -0.04501236 -0.06221587 0.02380995
v -0.04431795 -0.06570406 0.02033479
v -0.04363120 -0.06878122 0.01680199
v -0.04714530 -0.05155133 0.02997265
v -0.04761780 -0.04899073 0.03036646
v -0.04570293 -0.05986911 0.02658009
v -0.06282389 -0.04899073 0.03107917
v -0.06283729 -0.04899073 0.03106572
v -0.06296354 -0.04899073 0.03093125
v -0.06300754 -0.04899350 0.03088322
v -0.06113475 -0.06961994 0.01894011
v -0.06088607 -0.06711489 0.02201762
v -0.06106206 -0.06462927 0.02440739
v -0.05946857 -0.06919781 0.02200609
v -0.05898650 -0.07023649 0.02164494
v -0.05911276 -0.06972548 0.02199457
v -0.05899607 -0.06955329 0.02235764
v -0.06107928 -0.06186871 0.02722748
v -0.06126292 -0.06068839 0.02812461
v -0.06247956 -0.06116052 0.01605663
v -0.06216775 -0.06215754 0.01507882
v -0.06300754 -0.04899073 0.02182359
v -0.06283537 -0.04899073 0.02129723
v -0.06257904 -0.04899073 0.02053073
v -0.06247765 -0.04899073 0.02024834
v -0.05825958 -0.07509941 0.01507882
v -0.05781960 -0.07395797 0.01920329
v -0.05770291 -0.07383855 0.01969892
v -0.05833036 -0.07308870 0.01961632
v -0.05986264 -0.07126128 0.01917448
v -0.05929258 -0.06216588 0.02892376
v -0.05884877 -0.06856182 0.02345072
v -0.05998315 -0.06285463 0.02751948
v -0.05834758 -0.07101133 0.02171602
v -0.05793820 -0.07336364 0.01989103
v -0.05835140 -0.07172230 0.02103020
v -0.05666226 -0.07286652 0.02148933
v -0.05512998 -0.07127239 0.02407505
v -0.05408551 -0.07092524 0.02512202
v -0.05722850 -0.07394408 0.01991984
v -0.05698746 -0.07376912 0.02030981
v -0.05619550 -0.07303038 0.02164686
v -0.05405299 -0.07161955 0.02441892
v -0.05358814 -0.07168342 0.02450537
v -0.05305825 -0.07142792 0.02487613
v -0.05305825 -0.07107799 0.02530068
v -0.05183205 -0.07174730 0.02386566
v -0.05132703 -0.07092802 0.02442852
v -0.05212473 -0.07086414 0.02505478
v -0.05263358 -0.07167231 0.02449000
v -0.05187222 -0.07241383 0.02313951
v -0.05039733 -0.07456340 0.01970661
v -0.04892053 -0.06973937 0.02407505
v -0.05002430 -0.07017261 0.02436321
v -0.04774788 -0.07100300 0.02172946
v -0.04721991 -0.07015873 0.02223854
v -0.04645855 -0.07370246 0.01672707
v -0.04640116 -0.07305815 0.01749741
v -0.04635334 -0.07241661 0.01826775
v -0.04585980 -0.07427179 0.01518063
v -0.04637247 -0.06962272 0.02174483
v -0.04571250 -0.07416348 0.01507882
v -0.04567615 -0.07380800 0.01546303
v -0.04635143 -0.06896452 0.02249020
v -0.04432561 -0.06955885 0.01817746
v -0.04576415 -0.06875345 0.02158346
v -0.04638012 -0.06826744 0.02313374
v -0.04846907 -0.07096968 0.02238070
v -0.05018308 -0.07482724 0.01926092
v -0.05043559 -0.07521605 0.01898045
v -0.05008360 -0.07575206 0.01806220
v -0.04972971 -0.07528548 0.01834843
v -0.04913669 -0.07379967 0.01963361
v -0.04920173 -0.07444121 0.01887672
v -0.04834090 -0.07248882 0.02045773
v -0.04629404 -0.06779531 0.02328166
v -0.04496071 -0.06625117 0.02177557
v -0.04489375 -0.06565962 0.02200417
v -0.04576032 -0.06665109 0.02298966
v -0.04618691 -0.06716488 0.02345840
v -0.04642986 -0.06743982 0.02373503
v -0.04649299 -0.06654833 0.02432863
v -0.04639542 -0.06336841 0.02588275
v -0.04640690 -0.06472648 0.02517005
v -0.04623091 -0.06222975 0.02621893
v -0.04638395 -0.06200757 0.02659354
v -0.04625195 -0.06360448 0.02551199
v -0.04641838 -0.06608176 0.02445542
v -0.04635908 -0.06570406 0.02455723
v -0.04589997 -0.06641225 0.02336619
v -0.04500662 -0.06404050 0.02308764
v -0.04568763 -0.05801948 0.02691435
v -0.04528400 -0.05872767 0.02408850
v -0.04503531 -0.05911926 0.02231922
v -0.04511183 -0.05872767 0.02269382
v -0.04505062 -0.05872767 0.02219435
v -0.04516731 -0.05803059 0.02269382
v -0.04528017 -0.05663365 0.02269382
v -0.04573545 -0.05356481 0.02439010
v -0.04640499 -0.04899073 0.02684135
v -0.04640308 -0.05105143 0.02799013
v -0.04656759 -0.05040156 0.02821105
v -0.04653316 -0.05309824 0.02893721
v -0.04703244 -0.05105143 0.02955002
v -0.04717591 -0.05105143 0.02989965
v -0.04642795 -0.04930178 0.02722940
v -0.04650638 -0.04899073 0.02743303
v -0.04652359 -0.04899073 0.02750987
v -0.04664220 -0.04899073 0.02788448
v -0.04676654 -0.04899073 0.02827445
v -0.04668428 -0.04965726 0.02827445
v -0.04506783 -0.06313235 0.02366971
v -0.04472924 -0.06500420 0.02199457
v -0.04457238 -0.06570406 0.02129723
v -0.04431413 -0.06622895 0.02033479
v -0.04450734 -0.06500420 0.02129723
v -0.04362355 -0.06919225 0.01681160
v -0.04358147 -0.06919225 0.01641202
v -0.04346478 -0.06988933 0.01507882
v -0.04354895 -0.06919225 0.01571468
v -0.04362164 -0.06870624 0.01641202
v -0.04365798 -0.06835631 0.01641202
v -0.04456664 -0.06082170 0.01920329
v -0.04449586 -0.06151878 0.01920329
v -0.04432178 -0.06311013 0.01895356
v -0.04474837 -0.06012462 0.02059989
v -0.04715869 -0.04899073 0.02924073
v -0.06300754 -0.04899073 0.03086401
v -0.05935188 -0.07130849 0.01992560
v -0.05896546 -0.07160288 0.02021568
v -0.05833992 -0.07240828 0.02032902
v -0.06221749 -0.04899073 0.01996979
v -0.06180046 -0.04899073 0.01952987
v -0.06141978 -0.04899073 0.01915335
v -0.06194967 -0.06157433 0.01507882
v -0.05805107 -0.07524660 0.01507882
v -0.05764361 -0.07446898 0.01828696
v -0.05752692 -0.07438844 0.01875185
v -0.05727441 -0.07431623 0.01924363
v -0.05680191 -0.07440232 0.01950298
v -0.05817350 -0.07287207 0.02008121
v -0.05655896 -0.07421903 0.01986221
v -0.05654557 -0.07383577 0.02040202
v -0.05305825 -0.07170008 0.02452650
v -0.05584734 -0.07368024 0.02088036
v -0.05445088 -0.07386354 0.02113778
v -0.05430741 -0.07448009 0.02032710
v -0.05445088 -0.07530770 0.01911493
v -0.05375266 -0.07250826 0.02328935
v -0.05402238 -0.07511052 0.01953563
v -0.05343128 -0.07373301 0.02165454
v -0.05091383 -0.07283042 0.02200994
v -0.05236002 -0.07309703 0.02244025
v -0.05193535 -0.07306370 0.02239222
v -0.04840403 -0.07313313 0.01968740
v -0.04716635 -0.07557431 0.01507882
v -0.04669959 -0.07516884 0.01507882
v -0.04652168 -0.07434400 0.01595674
v -0.04632465 -0.07452174 0.01549184
v -0.04616778 -0.07467727 0.01507882
v -0.04597840 -0.07447731 0.01507882
v -0.04480002 -0.07060030 0.01780862
v -0.04516539 -0.06992544 0.01926285
v -0.04564172 -0.06966993 0.02040586
v -0.04540069 -0.07265267 0.01637936
v -0.04559198 -0.07400240 0.01507882
v -0.04518835 -0.07341919 0.01507882
v -0.04504488 -0.06951719 0.01953371
v -0.04362546 -0.06956995 0.01678855
v -0.04425674 -0.06919225 0.01831193
v -0.04434091 -0.07022816 0.01744938
v -0.04362546 -0.07026148 0.01609313
v -0.04374407 -0.07003653 0.01655802
v -0.04506018 -0.06876456 0.02019647
v -0.04567807 -0.06828965 0.02174867
v -0.04594205 -0.06775643 0.02264388
v -0.05054845 -0.07584370 0.01818898
v -0.05029594 -0.07596034 0.01782014
v -0.04979857 -0.07589925 0.01759730
v -0.04953076 -0.07550766 0.01785088
v -0.04926486 -0.07508552 0.01810638
v -0.04571250 -0.06749815 0.02237877
v -0.04504488 -0.06671775 0.02162380
v -0.04481150 -0.06645113 0.02135294
v -0.04515583 -0.06500420 0.02282445
v -0.04525339 -0.06565962 0.02263811
v -0.04434282 -0.06669275 0.02023105
v -0.04494158 -0.05872767 0.02129723
v -0.04502575 -0.05829443 0.02170257
v -0.04533756 -0.05593656 0.02269382
v -0.04568380 -0.05381476 0.02413076
v -0.04627108 -0.04965726 0.02618051
v -0.04634569 -0.04899073 0.02618051
v -0.04641264 -0.04899073 0.02689514
v -0.04679715 -0.05105143 0.02897178
v -0.04701714 -0.04899073 0.02889302
v -0.04352025 -0.06988933 0.01571468
v -0.04354321 -0.06919225 0.01507882
v -0.04353555 -0.07049477 0.01507882
v -0.04422422 -0.06361003 0.01780862
v -0.04439447 -0.06221587 0.01850596
v -0.04414388 -0.06430711 0.01780862
v -0.04372111 -0.06779531 0.01641202
v -0.04502766 -0.05765566 0.02090918
v -0.04502766 -0.05765566 0.02102060
v -0.04480385 -0.05942476 0.02059989
v -0.04447673 -0.06151878 0.01850596
v -0.04433517 -0.06256580 0.01539195
v -0.04433517 -0.06256580 0.01536313
v -0.04461446 -0.06082170 0.01990255
v -0.06109841 -0.04899073 0.01884022
v -0.06194011 -0.06154933 0.01507882
v -0.05794968 -0.07531603 0.01507882
v -0.05776030 -0.07523827 0.01571468
v -0.05753457 -0.07508552 0.01664447
v -0.05695112 -0.07586037 0.01548416
v -0.05706590 -0.07523549 0.01711128
v -0.05694729 -0.07515495 0.01754159
v -0.05706207 -0.07450786 0.01903808
v -0.05604629 -0.07506886 0.01871919
v -0.05480096 -0.07582149 0.01815825
v -0.05557953 -0.07515495 0.01889977
v -0.05633515 -0.07446342 0.01960479
v -0.05334520 -0.07373301 0.02165454
v -0.05305825 -0.07229441 0.02368508
v -0.05584734 -0.07452730 0.01969508
v -0.05514911 -0.07461895 0.01982379
v -0.05514911 -0.07521605 0.01898622
v -0.05445088 -0.07565763 0.01859817
v -0.05375266 -0.07596868 0.01836956
v -0.05355562 -0.07514662 0.01958558
v -0.05305825 -0.07313035 0.02248827
v -0.05309077 -0.07351917 0.02193117
v -0.05236002 -0.07340530 0.02199457
v -0.05166179 -0.07507441 0.01948185
v -0.05096356 -0.07562986 0.01857896
v -0.05096356 -0.07527993 0.01907458
v -0.04885931 -0.07548266 0.01712473
v -0.04865845 -0.07570206 0.01660605
v -0.04731938 -0.07565485 0.01514606
v -0.04739208 -0.07575761 0.01507882
v -0.04637056 -0.07486612 0.01507882
v -0.04423570 -0.07108076 0.01623721
v -0.04420892 -0.07042256 0.01698449
v -0.04517305 -0.07339697 0.01507882
v -0.04427396 -0.06831187 0.01897469
v -0.04359677 -0.06983934 0.01636015
v -0.04430839 -0.06752036 0.01960479
v -0.04435813 -0.06877845 0.01880756
v -0.04366564 -0.07081137 0.01507882
v -0.04358529 -0.07035313 0.01571468
v -0.04398893 -0.07057531 0.01639857
v -0.04427013 -0.07173619 0.01549184
v -0.04442508 -0.07220276 0.01517871
v -0.04431987 -0.07209167 0.01507882
v -0.04422231 -0.07192782 0.01507882
v -0.04439256 -0.06798694 0.01943958
v -0.04523617 -0.06776476 0.02125497
v -0.04579667 -0.06796194 0.02221356
v -0.05096356 -0.07586870 0.01822933
v -0.05096356 -0.07608810 0.01780862
v -0.05064219 -0.07651579 0.01675589
v -0.05026725 -0.07628528 0.01711128
v -0.04912330 -0.07588814 0.01687115
v -0.04933181 -0.07572706 0.01733604
v -0.04981388 -0.07656578 0.01617381
v -0.04957667 -0.07635193 0.01641010
v -0.04956711 -0.07601589 0.01710744
v -0.04819743 -0.07627140 0.01507882
v -0.04440978 -0.06709822 0.02010042
v -0.04553651 -0.05453962 0.02339116
v -0.04570867 -0.05328987 0.02392521
v -0.04624430 -0.04965726 0.02548317
v -0.04636290 -0.04899073 0.02551007
v -0.04420126 -0.06367113 0.01507882
v -0.04433708 -0.06259079 0.01641202
v -0.04433900 -0.06260745 0.01711128
v -0.04420892 -0.06361003 0.01507882
v -0.04430074 -0.06288240 0.01508458
v -0.04430265 -0.06287129 0.01507882
v -0.04673784 -0.04899073 0.02269382
v -0.04663646 -0.04899073 0.02344111
v -0.04646812 -0.04899073 0.02468786
v -0.04645855 -0.04899073 0.02475894
v -0.04641838 -0.04899073 0.02505863
v -0.04637629 -0.04899073 0.02539096
v -0.06108310 -0.04899073 0.01882869
v -0.06071199 -0.04899073 0.01856359
v -0.06023758 -0.04899073 0.01824469
v -0.06045948 -0.05885820 0.01507882
v -0.05704868 -0.07592702 0.01507882
v -0.05651305 -0.07625751 0.01507882
v -0.05682295 -0.07578261 0.01594905
v -0.05675217 -0.07506330 0.01800649
v -0.05610177 -0.07648246 0.01507882
v -0.05653027 -0.07496610 0.01849443
v -0.05496356 -0.07589092 0.01780862
v -0.05421559 -0.07656578 0.01688268
v -0.05445088 -0.07609643 0.01780862
v -0.05445088 -0.07588536 0.01825046
v -0.05584734 -0.07552154 0.01780862
v -0.05305825 -0.07597145 0.01837340
v -0.05305825 -0.07514107 0.01957790
v -0.05375266 -0.07627973 0.01780862
v -0.05305825 -0.07629361 0.01780862
v -0.05305825 -0.07431068 0.02078047
v -0.05236002 -0.07427735 0.02073244
v -0.05236002 -0.07593813 0.01832538
v -0.04778423 -0.07585203 0.01541116
v -0.04759102 -0.07591591 0.01507882
v -0.04439638 -0.07154456 0.01595674
v -0.04458577 -0.07251937 0.01507882
v -0.04455899 -0.07197503 0.01572045
v -0.05091000 -0.07641303 0.01707094
v -0.05305825 -0.07649357 0.01739752
v -0.05096356 -0.07698236 0.01571468
v -0.05096356 -0.07724620 0.01507882
v -0.05047576 -0.07718233 0.01507882
v -0.05026725 -0.07715455 0.01507882
v -0.05026725 -0.07647691 0.01666560
v -0.04811517 -0.07622418 0.01507882
v -0.04820126 -0.07596868 0.01567242
v -0.04845377 -0.07587148 0.01614116
v -0.04934903 -0.07646024 0.01592792
v -0.04960728 -0.07695181 0.01507882
v -0.04950972 -0.07690738 0.01507882
v -0.04866419 -0.07645191 0.01521521
v -0.04837151 -0.07636582 0.01507882
v -0.04429117 -0.06296016 0.01507882
v -0.04430074 -0.06288518 0.01507882
v -0.04448056 -0.06229918 0.01507882
v -0.04696166 -0.04899073 0.02196767
v -0.05768569 -0.04899073 0.01670402
v -0.05723997 -0.04899073 0.01643507
v -0.05674643 -0.04899073 0.01613731
v -0.05641358 -0.04899073 0.01593945
v -0.05379857 -0.04899073 0.01507882
v -0.05653027 -0.07524382 0.01778749
v -0.05604629 -0.07645747 0.01520753
v -0.05591430 -0.07656300 0.01507882
v -0.05574404 -0.07663521 0.01507882
v -0.05508790 -0.07690738 0.01507882
v -0.05450636 -0.07714622 0.01507882
v -0.05417733 -0.07725731 0.01507882
v -0.05398986 -0.07721010 0.01534969
v -0.05375266 -0.07648246 0.01736486
v -0.05163693 -0.07731563 0.01507882
v -0.05305825 -0.07662966 0.01704789
v -0.05236002 -0.07723509 0.01541308
v -0.05236002 -0.07709623 0.01576271
v -0.05195830 -0.07722121 0.01537850
v -0.04892818 -0.07663521 0.01507882
v -0.04880384 -0.07657689 0.01507882
v -0.04448629 -0.06228530 0.01507882
v -0.04698461 -0.04899073 0.02192157
v -0.05307738 -0.04899073 0.01507882
v -0.05375648 -0.07731563 0.01507882
v -0.05352501 -0.07722398 0.01538619
v -0.05375266 -0.07683517 0.01641202
v -0.05375266 -0.07661299 0.01701715
v -0.05305825 -0.07687127 0.01641202
v -0.05171344 -0.07732119 0.01507882
v -0.05236002 -0.07736284 0.01507882
v -0.04466611 -0.06193537 0.01507882
v -0.04712617 -0.04899073 0.02164686
v -0.04991718 -0.04899073 0.01815633
v -0.04698270 -0.05793894 0.01507882
v -0.05305825 -0.07735173 0.01507882
v -0.05305825 -0.07723509 0.01541884
v -0.05305825 -0.07711012 0.01576655
v -0.04488802 -0.06150490 0.01507882
v -0.04732512 -0.04899073 0.02136446
v -0.04959771 -0.04899073 0.01854053
v -0.04904104 -0.04899073 0.01921482
v -0.04833134 -0.04899073 0.02007545
v -0.04799466 -0.04899073 0.02048463
v -0.04772684 -0.04899073 0.02081697
v -0.04524765 -0.06089113 0.01507882
v -0.04489567 -0.06149101 0.01507882
f 1 2 3
f 1 3 4
f 1 4 5
f 1 5 14
f 1 14 28
f 1 28 52
f 1 52 83
f 1 83 85
f 1 85 125
f 1 125 124
f 1 124 123
f 1 123 122
f 1 122 120
f 1 120 162
f 1 162 207
f 1 207 270
f 1 270 345
f 1 345 428
f 1 428 550
f 1 550 619
f 1 619 533
f 1 533 532
f 1 532 531
f 1 531 530
f 1 530 617
f 1 617 523
f 1 523 616
f 1 616 697
f 1 697 709
f 1 709 708
f 1 708 707
f 1 707 706
f 1 706 705
f 1 705 704
f 1 704 755
f 1 755 778
f 1 778 788
f 1 788 795
f 1 795 800
f 1 800 799
f 1 799 798
f 1 798 797
f 1 797 796
f 1 796 789
f 1 789 779
f 1 779 760
f 1 760 759
f 1 759 758
f 1 758 757
f 1 757 756
f 1 756 712
f 1 712 711
f 1 711 710
f 1 710 634
f 1 634 557
f 1 557 556
f 1 556 555
f 1 555 448
f 1 448 447
f 1 447 446
f 1 446 445
f 1 445 551
f 1 551 432
f 1 432 431
f 1 431 430
f 1 430 346
f 1 346 271
f 1 271 209
f 1 209 165
f 1 165 126
f 1 126 88
f 1 88 87
f 1 87 58
f 1 58 32
f 1 32 18
f 1 18 6
f 1 6 7
f 1 7 8
f 1 8 9
f 1 9 10
f 1 10 2
f 2 10 11
f 2 11 3
f 3 11 4
f 4 11 12
f 4 12 13
f 4 13 5
f 5 13 15
f 5 15 16
f 5 16 17
f 5 17 14
f 6 18 19
f 6 19 20
f 6 20 7
f 7 20 21
f 7 21 22
f 7 22 23
f 7 23 9
f 7 9 8
f 9 23 24
f 9 24 10
f 10 24 25
f 10 25 11
f 11 25 26
f 11 26 12
f 12 26 13
f 13 26 27
f 13 27 15
f 14 17 29
f 14 29 30
f 14 30 31
f 14 31 28
f 15 27 16
f 16 27 29
f 16 29 17
f 18 32 19
f 19 33 34
f 19 34 35
f 19 35 21
f 19 21 20
f 19 32 36
f 19 36 37
f 19 37 38
f 19 38 33
f 21 35 39
f 21 39 23
f 21 23 22
f 23 39 40
f 23 40 24
f 24 40 41
f 24 41 25
f 25 41 42
f 25 42 43
f 25 43 44
f 25 44 45
f 25 45 46
f 25 46 26
f 26 46 47
f 26 47 27
f 27 47 48
f 27 48 49
f 27 49 50
f 27 50 51
f 27 51 29
f 28 31 52
f 29 51 53
f 29 53 54
f 29 54 55
f 29 55 56
f 29 56 30
f 30 56 57
f 30 57 31
f 31 57 55
f 31 55 52
f 32 58 59
f 32 59 36
f 33 38 42
f 33 42 34
f 34 42 60
f 34 60 35
f 35 60 39
f 36 59 61
f 36 61 37
f 37 61 38
f 38 61 62
f 38 62 63
f 38 63 64
f 38 64 65
f 38 65 66
f 38 66 67
f 38 67 68
f 38 68 42
f 39 60 69
f 39 69 40
f 40 69 42
f 40 42 41
f 42 68 43
f 42 69 60
f 43 68 44
f 44 68 45
f 45 68 70
f 45 70 71
f 45 71 72
f 45 72 46
f 46 72 73
f 46 73 47
f 47 73 74
f 47 74 48
f 48 75 76
f 48 76 77
f 48 77 78
f 48 78 49
f 48 74 75
f 49 78 77
f 49 77 79
f 49 79 80
f 49 80 81
f 49 81 50
f 50 81 82
f 50 82 53
f 50 53 51
f 52 55 83
f 53 82 84
f 53 84 54
f 54 84 55
f 55 57 56
f 55 84 85
f 55 85 86
f 55 86 83
f 58 87 59
f 59 87 88
f 59 88 89
f 59 89 61
f 61 90 91
f 61 91 92
f 61 92 62
f 61 89 93
f 61 93 90
f 62 92 94
f 62 94 63
f 63 94 95
f 63 95 64
f 64 95 94
f 64 94 96
f 64 96 97
f 64 97 98
f 64 98 99
f 64 99 65
f 65 99 100
f 65 100 66
f 66 100 101
f 66 101 102
f 66 102 67
f 67 70 68
f 67 102 103
f 67 103 104
f 67 104 105
f 67 105 70
f 70 105 71
f 71 105 72
f 72 105 106
f 72 106 107
f 72 107 73
f 73 107 74
f 74 108 109
f 74 109 77
f 74 77 75
f 74 107 110
f 74 110 108
f 75 77 76
f 77 111 112
f 77 112 113
f 77 113 79
f 77 109 108
f 77 108 114
f 77 114 111
f 79 113 115
f 79 115 116
f 79 116 161
f 79 161 117
f 79 117 80
f 80 117 118
f 80 118 119
f 80 119 81
f 81 120 82
f 81 119 121
f 81 121 120
f 82 120 122
f 82 122 123
f 82 123 124
f 82 124 84
f 83 86 85
f 84 124 125
f 84 125 85
f 88 126 93
f 88 93 89
f 90 127 128
f 90 128 129
f 90 129 91
f 90 93 127
f 91 129 130
f 91 130 92
f 92 131 132
f 92 132 94
f 92 130 131
f 93 126 133
f 93 133 134
f 93 134 128
f 93 128 127
f 94 132 131
f 94 131 135
f 94 135 136
f 94 136 137
f 94 137 138
f 94 138 139
f 94 139 140
f 94 140 97
f 94 97 96
f 97 140 141
f 97 141 142
f 97 142 98
f 98 142 99
f 99 142 143
f 99 143 144
f 99 144 145
f 99 145 146
f 99 146 101
f 99 101 100
f 101 146 144
f 101 144 102
f 102 144 147
f 102 147 148
f 102 148 149
f 102 149 150
f 102 150 107
f 102 107 103
f 103 107 104
f 104 107 105
f 105 107 106
f 107 150 110
f 108 151 114
f 108 110 152
f 108 152 151
f 110 150 153
f 110 153 154
f 110 154 155
f 110 155 156
f 110 156 151
f 110 151 152
f 111 157 112
f 111 114 157
f 112 157 113
f 113 157 158
f 113 158 159
f 113 159 116
f 113 116 115
f 114 151 157
f 116 159 160
f 116 160 161
f 117 161 118
f 118 161 121
f 118 121 119
f 120 121 163
f 120 163 162
f 121 164 163
f 121 161 164
f 126 165 166
f 126 166 133
f 128 167 130
f 128 130 129
f 128 134 168
f 128 168 167
f 130 169 170
f 130 170 136
f 130 136 131
f 130 167 171
f 130 171 169
f 131 136 135
f 133 172 168
f 133 168 134
f 133 166 172
f 136 170 173
f 136 173 174
f 136 174 175
f 136 175 137
f 137 175 176
f 137 176 139
f 137 139 138
f 139 176 140
f 140 176 177
f 140 177 178
f 140 178 179
f 140 179 141
f 141 179 180
f 141 180 181
f 141 181 142
f 142 181 182
f 142 182 183
f 142 183 143
f 143 183 184
f 143 184 144
f 144 146 145
f 144 184 147
f 147 184 185
f 147 185 186
f 147 186 187
f 147 187 188
f 147 188 189
f 147 189 148
f 148 189 190
f 148 190 149
f 149 190 191
f 149 191 192
f 149 192 193
f 149 193 150
f 150 193 153
f 151 156 194
f 151 194 157
f 153 195 154
f 153 193 196
f 153 196 197
f 153 197 195
f 154 195 198
f 154 198 155
f 155 198 199
f 155 199 200
f 155 200 156
f 156 200 194
f 157 201 160
f 157 160 159
f 157 159 158
f 157 194 201
f 160 202 203
f 160 203 161
f 160 201 204
f 160 204 202
f 161 203 205
f 161 205 164
f 162 206 207
f 162 163 206
f 163 164 208
f 163 208 206
f 164 205 208
f 165 209 210
f 165 210 166
f 166 210 211
f 166 211 172
f 167 212 171
f 167 168 172
f 167 172 212
f 169 213 214
f 169 214 215
f 169 215 174
f 169 174 170
f 169 171 216
f 169 216 217
f 169 217 218
f 169 218 213
f 170 174 173
f 171 212 219
f 171 219 216
f 172 211 220
f 172 220 212
f 174 221 222
f 174 222 223
f 174 223 175
f 174 215 224
f 174 224 225
f 174 225 226
f 174 226 227
f 174 227 228
f 174 228 229
f 174 229 221
f 175 223 222
f 175 222 176
f 176 222 221
f 176 221 177
f 177 221 230
f 177 230 178
f 178 230 179
f 179 230 231
f 179 231 227
f 179 227 180
f 180 227 181
f 181 227 226
f 181 226 232
f 181 232 233
f 181 233 182
f 182 184 183
f 182 233 234
f 182 234 235
f 182 235 236
f 182 236 184
f 184 236 237
f 184 237 185
f 185 237 238
f 185 238 186
f 186 239 187
f 186 238 240
f 186 240 241
f 186 241 239
f 187 239 188
f 188 239 191
f 188 191 190
f 188 190 189
f 191 242 243
f 191 243 192
f 191 239 241
f 191 241 244
f 191 244 245
f 191 245 242
f 192 243 246
f 192 246 242
f 192 242 193
f 193 247 196
f 193 242 248
f 193 248 249
f 193 249 250
f 193 250 251
f 193 251 252
f 193 252 247
f 194 200 201
f 195 253 254
f 195 254 198
f 195 197 253
f 196 255 197
f 196 247 256
f 196 256 257
f 196 257 255
f 197 255 253
f 198 254 258
f 198 258 259
f 198 259 199
f 199 259 200
f 200 259 260
f 200 260 204
f 200 204 201
f 202 261 262
f 202 262 263
f 202 263 203
f 202 204 264
f 202 264 261
f 203 263 205
f 204 260 265
f 204 265 266
f 204 266 264
f 205 267 268
f 205 268 269
f 205 269 208
f 205 263 267
f 206 208 207
f 207 208 269
f 207 269 268
f 207 268 270
f 209 271 210
f 210 271 272
f 210 272 273
f 210 273 274
f 210 274 211
f 211 274 219
f 211 219 220
f 212 220 219
f 213 218 217
f 213 217 275
f 213 275 276
f 213 276 214
f 214 277 278
f 214 278 279
f 214 279 224
f 214 224 215
f 214 276 280
f 214 280 281
f 214 281 282
f 214 282 283
f 214 283 277
f 216 284 285
f 216 285 217
f 216 219 274
f 216 274 286
f 216 286 287
f 216 287 288
f 216 288 289
f 216 289 290
f 216 290 284
f 217 285 291
f 217 291 292
f 217 292 275
f 221 229 293
f 221 293 230
f 224 279 225
f 225 279 294
f 225 294 295
f 225 295 226
f 226 295 296
f 226 296 232
f 227 231 228
f 228 231 229
f 229 231 293
f 230 293 231
f 232 297 233
f 232 296 297
f 233 297 298
f 233 298 299
f 233 299 300
f 233 300 301
f 233 301 234
f 234 302 303
f 234 303 235
f 234 301 304
f 234 304 302
f 235 303 305
f 235 305 236
f 236 238 237
f 236 305 306
f 236 306 307
f 236 307 308
f 236 308 238
f 238 308 240
f 240 308 245
f 240 245 244
f 240 244 241
f 242 246 243
f 242 245 309
f 242 309 310
f 242 310 311
f 242 311 248
f 245 308 312
f 245 312 309
f 247 252 313
f 247 313 256
f 248 311 249
f 249 314 250
f 249 311 310
f 249 310 315
f 249 315 314
f 250 314 251
f 251 314 316
f 251 316 317
f 251 317 318
f 251 318 252
f 252 317 319
f 252 319 313
f 252 318 317
f 253 255 320
f 253 320 254
f 254 320 321
f 254 321 322
f 254 322 323
f 254 323 324
f 254 324 258
f 255 257 320
f 256 313 257
f 257 313 325
f 257 325 326
f 257 326 327
f 257 327 328
f 257 328 329
f 257 329 330
f 257 330 320
f 258 324 331
f 258 331 259
f 259 331 332
f 259 332 260
f 260 332 333
f 260 333 334
f 260 334 265
f 261 335 336
f 261 336 337
f 261 337 262
f 261 264 338
f 261 338 339
f 261 339 340
f 261 340 335
f 262 337 263
f 263 337 341
f 263 341 342
f 263 342 267
f 264 266 343
f 264 343 338
f 265 334 344
f 265 344 266
f 266 344 343
f 267 342 268
f 268 345 270
f 268 342 345
f 271 346 347
f 271 347 272
f 272 347 273
f 273 286 274
f 273 347 286
f 275 292 280
f 275 280 276
f 277 348 278
f 277 283 349
f 277 349 350
f 277 350 351
f 277 351 352
f 277 352 348
f 278 348 279
f 279 348 353
f 279 353 294
f 280 292 291
f 280 291 364
f 280 364 284
f 280 284 290
f 280 290 289
f 280 289 288
f 280 288 287
f 280 287 365
f 280 365 347
f 280 347 433
f 280 433 551
f 280 551 445
f 280 445 354
f 280 354 281
f 281 354 444
f 281 444 558
f 281 558 635
f 281 635 713
f 281 713 760
f 281 760 779
f 281 779 790
f 281 790 801
f 281 801 802
f 281 802 794
f 281 794 787
f 281 787 777
f 281 777 754
f 281 754 703
f 281 703 753
f 281 753 752
f 281 752 701
f 281 701 698
f 281 698 621
f 281 621 542
f 281 542 622
f 281 622 673
f 281 673 679
f 281 679 678
f 281 678 735
f 281 735 668
f 281 668 590
f 281 590 589
f 281 589 485
f 281 485 584
f 281 584 583
f 281 583 665
f 281 665 580
f 281 580 579
f 281 579 664
f 281 664 733
f 281 733 744
f 281 744 692
f 281 692 751
f 281 751 776
f 281 776 775
f 281 775 749
f 281 749 748
f 281 748 742
f 281 742 741
f 281 741 740
f 281 740 770
f 281 770 785
f 281 785 786
f 281 786 791
f 281 791 780
f 281 780 767
f 281 767 766
f 281 766 765
f 281 765 764
f 281 764 763
f 281 763 718
f 281 718 715
f 281 715 714
f 281 714 636
f 281 636 559
f 281 559 449
f 281 449 355
f 281 355 356
f 281 356 357
f 281 357 358
f 281 358 359
f 281 359 360
f 281 360 361
f 281 361 362
f 281 362 282
f 282 362 361
f 282 361 363
f 282 363 283
f 283 363 349
f 284 364 285
f 285 364 291
f 286 347 365
f 286 365 287
f 294 353 366
f 294 366 295
f 295 366 296
f 296 366 367
f 296 367 297
f 297 368 299
f 297 299 298
f 297 367 368
f 299 368 300
f 300 368 369
f 300 369 301
f 301 369 370
f 301 370 371
f 301 371 372
f 301 372 373
f 301 373 304
f 302 374 303
f 302 304 374
f 303 374 375
f 303 375 376
f 303 376 377
f 303 377 378
f 303 378 305
f 304 373 379
f 304 379 380
f 304 380 381
f 304 381 375
f 304 375 374
f 305 378 382
f 305 382 383
f 305 383 384
f 305 384 306
f 306 384 385
f 306 385 386
f 306 386 387
f 306 387 308
f 306 308 307
f 308 387 312
f 309 312 387
f 309 387 386
f 309 386 310
f 310 386 388
f 310 388 389
f 310 389 390
f 310 390 391
f 310 391 315
f 313 319 325
f 314 315 316
f 315 391 316
f 316 391 317
f 317 391 319
f 319 391 392
f 319 392 390
f 319 390 393
f 319 393 325
f 320 330 329
f 320 329 321
f 321 329 322
f 322 329 394
f 322 394 332
f 322 332 395
f 322 395 323
f 323 395 324
f 324 395 332
f 324 332 331
f 325 396 397
f 325 397 398
f 325 398 399
f 325 399 400
f 325 400 326
f 325 393 401
f 325 401 402
f 325 402 403
f 325 403 404
f 325 404 405
f 325 405 396
f 326 400 406
f 326 406 327
f 327 407 408
f 327 408 409
f 327 409 410
f 327 410 328
f 327 406 407
f 328 410 394
f 328 394 329
f 332 394 333
f 333 411 334
f 333 394 411
f 334 411 412
f 334 412 413
f 334 413 344
f 335 340 414
f 335 414 415
f 335 415 416
f 335 416 417
f 335 417 418
f 335 418 336
f 336 419 420
f 336 420 337
f 336 418 421
f 336 421 422
f 336 422 419
f 337 420 341
f 338 343 423
f 338 423 424
f 338 424 339
f 339 414 340
f 339 424 425
f 339 425 426
f 339 426 414
f 341 420 427
f 341 427 342
f 342 427 428
f 342 428 345
f 343 344 429
f 343 429 423
f 344 413 429
f 346 430 347
f 347 430 431
f 347 431 432
f 347 432 433
f 348 352 353
f 349 363 434
f 349 434 435
f 349 435 436
f 349 436 350
f 350 436 437
f 350 437 351
f 351 437 438
f 351 438 439
f 351 439 440
f 351 440 352
f 352 440 371
f 352 371 441
f 352 441 353
f 353 441 442
f 353 442 366
f 354 443 444
f 354 445 446
f 354 446 447
f 354 447 448
f 354 448 443
f 355 449 356
f 356 449 450
f 356 450 357
f 357 450 358
f 358 450 451
f 358 451 452
f 358 452 359
f 359 452 361
f 359 361 360
f 361 452 453
f 361 453 434
f 361 434 363
f 366 442 454
f 366 454 367
f 367 454 368
f 368 454 369
f 369 455 371
f 369 371 370
f 369 454 456
f 369 456 441
f 369 441 455
f 371 440 457
f 371 457 372
f 371 455 441
f 372 457 440
f 372 440 373
f 373 458 451
f 373 451 379
f 373 440 459
f 373 459 458
f 375 381 460
f 375 460 376
f 376 460 377
f 377 460 461
f 377 461 378
f 378 461 462
f 378 462 383
f 378 383 382
f 379 451 463
f 379 463 464
f 379 464 465
f 379 465 380
f 380 465 460
f 380 460 381
f 383 462 384
f 384 462 385
f 385 466 467
f 385 467 468
f 385 468 469
f 385 469 386
f 385 462 465
f 385 465 466
f 386 469 388
f 388 470 471
f 388 471 472
f 388 472 393
f 388 393 390
f 388 390 389
f 388 469 473
f 388 473 474
f 388 474 475
f 388 475 470
f 390 392 391
f 393 476 401
f 393 472 477
f 393 477 476
f 394 410 411
f 396 405 478
f 396 478 479
f 396 479 397
f 397 479 480
f 397 480 481
f 397 481 482
f 397 482 483
f 397 483 398
f 398 484 399
f 398 483 485
f 398 485 486
f 398 486 484
f 399 484 487
f 399 487 400
f 400 487 488
f 400 488 489
f 400 489 490
f 400 490 406
f 401 476 491
f 401 491 403
f 401 403 402
f 403 491 404
f 404 492 493
f 404 493 494
f 404 494 495
f 404 495 496
f 404 496 405
f 404 491 492
f 405 496 497
f 405 497 498
f 405 498 478
f 406 490 407
f 407 499 500
f 407 500 501
f 407 501 502
f 407 502 503
f 407 503 504
f 407 504 505
f 407 505 408
f 407 490 499
f 408 505 409
f 409 506 410
f 409 505 507
f 409 507 506
f 410 506 508
f 410 508 413
f 410 413 509
f 410 509 411
f 411 413 412
f 411 509 413
f 413 508 507
f 413 507 510
f 413 510 511
f 413 511 512
f 413 512 513
f 413 513 514
f 413 514 429
f 414 426 515
f 414 515 415
f 415 515 516
f 415 516 517
f 415 517 518
f 415 518 416
f 416 518 519
f 416 519 520
f 416 520 521
f 416 521 522
f 416 522 418
f 416 418 417
f 418 522 523
f 418 523 421
f 419 422 524
f 419 524 420
f 420 524 422
f 420 422 525
f 420 525 526
f 420 526 527
f 420 527 528
f 420 528 427
f 421 523 529
f 421 529 422
f 422 529 530
f 422 530 531
f 422 531 532
f 422 532 533
f 422 533 534
f 422 534 525
f 423 535 514
f 423 514 536
f 423 536 537
f 423 537 538
f 423 538 424
f 423 429 535
f 424 538 539
f 424 539 425
f 425 539 538
f 425 538 540
f 425 540 426
f 426 540 541
f 426 541 542
f 426 542 543
f 426 543 544
f 426 544 545
f 426 545 546
f 426 546 547
f 426 547 548
f 426 548 549
f 426 549 517
f 426 517 516
f 426 516 515
f 427 528 428
f 428 528 527
f 428 527 550
f 429 514 535
f 432 551 433
f 434 453 552
f 434 552 435
f 435 552 436
f 436 552 553
f 436 553 437
f 437 553 452
f 437 452 554
f 437 554 438
f 438 554 439
f 439 554 440
f 440 554 459
f 441 456 442
f 442 456 454
f 443 448 444
f 444 448 555
f 444 555 556
f 444 556 557
f 444 557 558
f 449 559 560
f 449 560 450
f 450 560 561
f 450 561 451
f 451 458 452
f 451 561 562
f 451 562 563
f 451 563 463
f 452 458 564
f 452 564 554
f 452 553 552
f 452 552 453
f 458 459 564
f 459 554 564
f 460 465 462
f 460 462 461
f 463 563 464
f 464 563 565
f 464 565 566
f 464 566 465
f 465 566 466
f 466 566 467
f 467 567 468
f 467 566 568
f 467 568 569
f 467 569 570
f 467 570 571
f 467 571 572
f 467 572 573
f 467 573 574
f 467 574 567
f 468 567 473
f 468 473 469
f 470 477 471
f 470 475 575
f 470 575 477
f 471 477 472
f 473 567 576
f 473 576 577
f 473 577 493
f 473 493 475
f 473 475 474
f 475 493 492
f 475 492 575
f 476 477 575
f 476 575 491
f 478 498 479
f 479 498 578
f 479 578 480
f 480 578 579
f 480 579 580
f 480 580 581
f 480 581 582
f 480 582 481
f 481 582 482
f 482 582 583
f 482 583 584
f 482 584 483
f 483 584 485
f 484 585 586
f 484 586 587
f 484 587 487
f 484 486 588
f 484 588 585
f 485 589 486
f 486 589 590
f 486 590 588
f 487 587 591
f 487 591 488
f 488 592 593
f 488 593 489
f 488 591 594
f 488 594 595
f 488 595 596
f 488 596 592
f 489 597 598
f 489 598 490
f 489 593 597
f 490 598 599
f 490 599 499
f 491 575 492
f 493 577 600
f 493 600 494
f 494 600 601
f 494 601 602
f 494 602 495
f 495 603 497
f 495 497 496
f 495 602 603
f 497 603 604
f 497 604 578
f 497 578 498
f 499 599 500
f 500 599 605
f 500 605 606
f 500 606 607
f 500 607 501
f 501 608 609
f 501 609 502
f 501 607 610
f 501 610 537
f 501 537 514
f 501 514 608
f 502 513 504
f 502 504 503
f 502 609 608
f 502 608 513
f 504 513 511
f 504 511 505
f 505 511 507
f 506 507 508
f 507 511 510
f 511 513 512
f 513 608 514
f 514 537 536
f 517 549 611
f 517 611 519
f 517 519 518
f 519 611 520
f 520 611 612
f 520 612 521
f 521 612 611
f 521 611 613
f 521 613 614
f 521 614 522
f 522 614 523
f 523 615 616
f 523 617 529
f 523 614 615
f 525 618 526
f 525 534 618
f 526 618 527
f 527 618 619
f 527 619 550
f 529 617 530
f 533 619 534
f 534 619 618
f 537 610 538
f 538 610 592
f 538 592 540
f 540 592 541
f 541 592 620
f 541 620 542
f 542 621 543
f 542 620 622
f 543 545 544
f 543 621 623
f 543 623 624
f 543 624 625
f 543 625 626
f 543 626 545
f 545 626 625
f 545 625 546
f 546 627 628
f 546 628 629
f 546 629 547
f 546 625 624
f 546 624 630
f 546 630 631
f 546 631 632
f 546 632 627
f 547 629 633
f 547 633 548
f 548 633 629
f 548 629 549
f 549 629 611
f 557 634 558
f 558 634 635
f 559 636 637
f 559 637 560
f 560 637 638
f 560 638 639
f 560 639 561
f 561 639 640
f 561 640 641
f 561 641 642
f 561 642 562
f 562 642 563
f 563 642 643
f 563 643 644
f 563 644 645
f 563 645 646
f 563 646 565
f 565 568 566
f 565 646 568
f 567 574 647
f 567 647 648
f 567 648 576
f 568 646 649
f 568 649 650
f 568 650 569
f 569 650 570
f 570 650 571
f 571 651 652
f 571 652 653
f 571 653 573
f 571 573 572
f 571 650 649
f 571 649 651
f 573 653 574
f 574 653 654
f 574 654 647
f 576 648 655
f 576 655 656
f 576 656 657
f 576 657 658
f 576 658 659
f 576 659 660
f 576 660 577
f 577 660 600
f 578 604 661
f 578 661 579
f 579 661 662
f 579 662 663
f 579 663 664
f 580 665 582
f 580 582 581
f 582 665 583
f 585 666 667
f 585 667 586
f 585 588 666
f 586 667 594
f 586 594 591
f 586 591 587
f 588 590 666
f 590 668 666
f 592 669 593
f 592 596 595
f 592 595 670
f 592 670 620
f 592 610 671
f 592 671 669
f 593 669 672
f 593 672 597
f 594 667 595
f 595 673 674
f 595 674 670
f 595 667 675
f 595 675 676
f 595 676 677
f 595 677 678
f 595 678 679
f 595 679 673
f 597 672 680
f 597 680 681
f 597 681 598
f 598 681 605
f 598 605 682
f 598 682 599
f 599 682 605
f 600 660 659
f 600 659 683
f 600 683 684
f 600 684 685
f 600 685 686
f 600 686 601
f 601 686 602
f 602 687 688
f 602 688 603
f 602 686 689
f 602 689 690
f 602 690 691
f 602 691 692
f 602 692 687
f 603 661 604
f 603 688 661
f 605 681 606
f 606 681 680
f 606 680 671
f 606 671 607
f 607 671 693
f 607 693 610
f 610 693 671
f 611 629 613
f 613 694 615
f 613 615 614
f 613 629 694
f 615 694 695
f 615 695 616
f 616 696 697
f 616 695 628
f 616 628 627
f 616 627 696
f 620 674 622
f 620 670 674
f 621 698 699
f 621 699 700
f 621 700 630
f 621 630 623
f 622 674 673
f 623 630 624
f 627 632 696
f 628 695 629
f 629 695 694
f 630 700 699
f 630 699 631
f 631 699 698
f 631 698 632
f 632 698 701
f 632 701 702
f 632 702 703
f 632 703 704
f 632 704 705
f 632 705 706
f 632 706 707
f 632 707 708
f 632 708 709
f 632 709 697
f 632 697 696
f 634 710 635
f 635 710 711
f 635 711 712
f 635 712 713
f 636 714 637
f 637 714 639
f 637 639 638
f 639 714 715
f 639 715 716
f 639 716 640
f 640 716 641
f 641 717 642
f 641 716 718
f 641 718 717
f 642 717 719
f 642 719 643
f 643 719 644
f 644 720 721
f 644 721 722
f 644 722 723
f 644 723 645
f 644 719 724
f 644 724 720
f 645 651 646
f 645 723 651
f 646 651 649
f 647 656 655
f 647 655 648
f 647 654 725
f 647 725 726
f 647 726 656
f 651 723 652
f 652 723 653
f 653 723 727
f 653 727 728
f 653 728 725
f 653 725 654
f 656 726 729
f 656 729 730
f 656 730 657
f 657 730 658
f 658 726 725
f 658 725 731
f 658 731 659
f 658 730 729
f 658 729 726
f 659 731 683
f 661 688 662
f 662 688 732
f 662 732 663
f 663 732 664
f 664 732 733
f 666 734 676
f 666 676 675
f 666 675 667
f 666 668 734
f 668 735 676
f 668 676 736
f 668 736 734
f 669 671 680
f 669 680 672
f 676 734 736
f 676 735 677
f 677 735 678
f 683 731 728
f 683 728 684
f 684 737 685
f 684 728 738
f 684 738 737
f 685 739 740
f 685 740 741
f 685 741 742
f 685 742 743
f 685 743 686
f 685 737 739
f 686 743 689
f 687 692 744
f 687 744 745
f 687 745 733
f 687 733 746
f 687 746 688
f 688 746 732
f 689 747 690
f 689 743 742
f 689 742 748
f 689 748 749
f 689 749 747
f 690 750 691
f 690 747 750
f 691 750 751
f 691 751 692
f 701 752 702
f 702 752 753
f 702 753 703
f 703 754 704
f 704 754 755
f 712 756 713
f 713 756 757
f 713 757 758
f 713 758 759
f 713 759 760
f 715 718 716
f 717 761 719
f 717 718 762
f 717 762 761
f 718 763 762
f 719 761 724
f 720 764 721
f 720 724 764
f 721 764 765
f 721 765 766
f 721 766 767
f 721 767 768
f 721 768 769
f 721 769 722
f 722 727 723
f 722 769 727
f 724 761 764
f 725 728 731
f 727 769 738
f 727 738 728
f 732 746 733
f 733 745 744
f 737 738 770
f 737 770 739
f 738 769 771
f 738 771 772
f 738 772 773
f 738 773 774
f 738 774 770
f 739 770 740
f 747 749 775
f 747 775 750
f 750 775 776
f 750 776 751
f 754 777 755
f 755 777 778
f 761 762 764
f 762 763 764
f 767 780 768
f 768 780 781
f 768 781 782
f 768 782 783
f 768 783 769
f 769 783 784
f 769 784 771
f 770 774 785
f 771 784 786
f 771 786 772
f 772 786 785
f 772 785 774
f 772 774 773
f 777 787 788
f 777 788 778
f 779 789 790
f 780 791 781
f 781 791 792
f 781 792 793
f 781 793 782
f 782 793 783
f 783 793 784
f 784 793 786
f 786 793 792
f 786 792 791
f 787 794 788
f 788 794 795
f 789 796 790
f 790 796 797
f 790 797 798
f 790 798 799
f 790 799 800
f 790 800 801
f 794 802 795
f 795 802 800
f 800 802 801

