# https://github.com/mikedh/trimesh
v 0.00815447 0.00972266 0.01129133
v 0.00815447 0.01001380 0.01217941
v 0.00815447 0.01001380 0.00918889
v 0.01113201 0.01205987 0.01010236
v 0.01113201 0.01205987 0.01034554
v 0.00815447 0.01124306 0.01327680
v 0.01332114 0.01408168 0.01052946
v 0.01551028 0.01611158 0.01066183
v 0.01769942 0.01813339 0.01076264
v 0.04474219 0.04364054 0.01234486
v 0.04692368 0.04567852 0.01241027
v 0.05127134 0.04974640 0.01252802
v 0.00815447 0.01136437 0.00807764
v 0.00912657 0.01197091 0.00811073
v 0.01769942 0.01813339 0.00973835
v 0.01551028 0.01611158 0.00981377
v 0.01332114 0.01408168 0.00992151
v 0.00815447 0.01138863 0.01333990
v 0.05342220 0.05178439 0.01257419
v 0.01987325 0.02017946 0.01082959
v 0.05127134 0.04974640 0.01209167
v 0.00815447 0.02535529 0.00671859
v 0.00962410 0.02586479 0.00671859
v 0.03699600 0.04300164 0.00671859
v 0.01987325 0.02017946 0.00970680
v 0.08467485 0.08351062 0.00671859
v 0.08621338 0.08483693 0.00671859
v 0.01003743 0.03207579 0.01333606
v 0.00815447 0.03207579 0.01323063
v 0.05202146 0.05104845 0.01280506
v 0.05209801 0.05310261 0.01337761
v 0.07102718 0.07412942 0.01397402
v 0.06794248 0.07514033 0.01445269
v 0.06681729 0.07486536 0.01450348
v 0.06250790 0.07211570 0.01454966
v 0.06034938 0.06994832 0.01450964
v 0.05123307 0.06457031 0.01445423
v 0.05099578 0.06457031 0.01445423
v 0.05099578 0.06469970 0.01445423
v 0.05414937 0.05315922 0.01282507
v 0.05342220 0.05178439 0.01206089
v 0.08507288 0.08316287 0.00918889
v 0.08300621 0.08117341 0.01129133
v 0.08083238 0.07909498 0.01256034
v 0.00815447 0.04067252 0.00671859
v 0.08507288 0.08330844 0.00755203
v 0.02200881 0.02222553 0.00969680
v 0.08635115 0.08644629 0.00671859
v 0.08481263 0.08330844 0.01039710
v 0.00815447 0.03229414 0.01320138
v 0.05304714 0.06685900 0.01447270
v 0.07733435 0.07833479 0.01353691
v 0.07312446 0.07623211 0.01396248
v 0.07102718 0.07623211 0.01421875
v 0.06938149 0.07623211 0.01439190
v 0.06833285 0.07623211 0.01448809
v 0.06468173 0.07411325 0.01456659
v 0.06047950 0.07201865 0.01456197
v 0.07937805 0.07837522 0.01283199
v 0.08289139 0.08118958 0.01250801
v 0.08153658 0.08046982 0.01276581
v 0.00815447 0.04060782 0.00686173
v 0.03209723 0.06047817 0.00816306
v 0.03183698 0.06070461 0.00708567
v 0.03196711 0.06096340 0.00671859
v 0.08502695 0.08609045 0.00848474
v 0.08436103 0.08521703 0.00988688
v 0.08481263 0.08380985 0.01039710
v 0.08593782 0.08696387 0.00671859
v 0.08295263 0.08254824 0.01257727
v 0.00815447 0.03417038 0.01269039
v 0.05523628 0.06888080 0.01444961
v 0.06263803 0.07411325 0.01458044
v 0.06116073 0.07340157 0.01453888
v 0.06335753 0.07543956 0.01453196
v 0.07943929 0.08044556 0.01339993
v 0.07733435 0.08044556 0.01383550
v 0.07522940 0.07833479 0.01394324
v 0.07522940 0.08044556 0.01411870
v 0.06681729 0.07623211 0.01454735
v 0.06981779 0.07765546 0.01443191
v 0.07016223 0.07906264 0.01445885
v 0.08154423 0.08254824 0.01312828
v 0.00815447 0.04051078 0.00704720
v 0.02986981 0.05848870 0.00827388
v 0.05097282 0.07524546 0.01030167
v 0.05956098 0.08351871 0.00790295
v 0.03325303 0.06186108 0.00715032
v 0.06286765 0.08672934 0.00671859
v 0.08296028 0.08609854 0.01062720
v 0.08229436 0.08526555 0.01202857
v 0.08357263 0.08453770 0.01121284
v 0.08277657 0.08386646 0.01249031
v 0.08490449 0.08793434 0.00671859
v 0.08434572 0.08748954 0.00780137
v 0.08157485 0.08460240 0.01290126
v 0.07943929 0.08465092 0.01375470
v 0.00815447 0.03419464 0.01268116
v 0.04579083 0.06361602 0.01349228
v 0.06798840 0.08560521 0.01231023
v 0.06490371 0.07617550 0.01454504
v 0.06572272 0.07732388 0.01445577
v 0.06938915 0.08618749 0.01249262
v 0.07943929 0.08254824 0.01367389
v 0.07733435 0.08254824 0.01402251
v 0.07016223 0.07944274 0.01445885
v 0.06987903 0.07944274 0.01445885
v 0.00815447 0.03964544 0.00828619
v 0.05209801 0.07569835 0.01060950
v 0.05463159 0.07778485 0.01062797
v 0.05692024 0.07971771 0.01053562
v 0.05322319 0.07721875 0.01006157
v 0.01950585 0.04784590 0.01023780
v 0.04875306 0.07323174 0.01037632
v 0.05016146 0.07401620 0.01063643
v 0.06726890 0.09033625 0.00671859
v 0.06532469 0.08875924 0.00671859
v 0.08089361 0.08609854 0.01271425
v 0.08417732 0.08846810 0.00671859
v 0.08294497 0.08805565 0.00847935
v 0.08222547 0.08749763 0.00988149
v 0.08155954 0.08680213 0.01129364
v 0.07943929 0.08651098 0.01302592
v 0.07733435 0.08465092 0.01396171
v 0.00815447 0.03421890 0.01267039
v 0.06212518 0.08101166 0.01217094
v 0.05620838 0.07628063 0.01206166
v 0.07034594 0.08758659 0.01226252
v 0.06681729 0.08511190 0.01206551
v 0.05209801 0.07412942 0.01146910
v 0.07102718 0.08254824 0.01378856
v 0.07102718 0.08465092 0.01322216
v 0.07103483 0.08683448 0.01261652
v 0.07522940 0.08254824 0.01412640
v 0.07522940 0.08465092 0.01379626
v 0.07312446 0.08465092 0.01351383
v 0.00815447 0.03503572 0.01216632
v 0.01513522 0.04377802 0.01034400
v 0.01731671 0.04580792 0.01030552
v 0.05403455 0.07640194 0.01111664
v 0.05625431 0.07842374 0.01101121
v 0.06878445 0.08683448 0.01198471
v 0.05924715 0.08165056 0.01040787
v 0.06688618 0.08674552 0.01098966
v 0.06530939 0.08605001 0.01060488
v 0.06035703 0.08321948 0.00938820
v 0.06096172 0.08407673 0.00882027
v 0.06735309 0.09040094 0.00671859
v 0.06325037 0.08600958 0.00857939
v 0.08081707 0.08803138 0.01056025
v 0.07943929 0.08756233 0.01204011
v 0.08236324 0.08974588 0.00671859
v 0.07832176 0.08778877 0.01232024
v 0.07692102 0.08796668 0.01250339
v 0.07751039 0.08694770 0.01302823
v 0.07522940 0.08675360 0.01316983
v 0.07174668 0.08796668 0.01240104
v 0.07103483 0.08874307 0.01168150
v 0.06996322 0.08991572 0.01024780
v 0.06912890 0.08875115 0.01074725
v 0.07312446 0.08675360 0.01294743
v 0.06763630 0.08798286 0.01045790
v 0.06157407 0.08358341 0.01022241
v 0.06874618 0.09108836 0.00727422
v 0.06930495 0.09187282 0.00671859
v 0.06790421 0.08987528 0.00809765
v 0.08054916 0.08993997 0.00819230
v 0.08169732 0.09020685 0.00671859
v 0.07939336 0.09133907 0.00671859
v 0.07929386 0.09124202 0.00690098
v 0.07733435 0.08968927 0.00992074
v 0.07604842 0.08985102 0.01015469
v 0.07464767 0.09002085 0.01041018
v 0.07522940 0.08809608 0.01258035
v 0.07312446 0.09016642 0.01064644
v 0.07312446 0.08810417 0.01250339
v 0.07312446 0.08915551 0.01169766
v 0.07102718 0.09008555 0.01052485
v 0.06841705 0.08949518 0.00918889
v 0.07102718 0.09089427 0.00918889
v 0.07102718 0.09176769 0.00773518
v 0.07102718 0.09234188 0.00671859
v 0.08136818 0.09028773 0.00692253
v 0.08139880 0.09040903 0.00671859
v 0.07911781 0.09141185 0.00671859
v 0.07788546 0.09173534 0.00671859
v 0.07733435 0.09040903 0.00886875
v 0.07656126 0.09196178 0.00671859
v 0.07312446 0.09099940 0.00918889
v 0.07312446 0.09226910 0.00671859
v 0.07312446 0.09179195 0.00768978
v 0.07522940 0.09210735 0.00671859
v 0.07522940 0.09167064 0.00753202
v 0.07481607 0.09214779 0.00671859
f 1 2 6
f 1 6 18
f 1 18 29
f 1 29 50
f 1 50 71
f 1 71 98
f 1 98 125
f 1 125 137
f 1 137 108
f 1 108 84
f 1 84 62
f 1 62 45
f 1 45 22
f 1 22 13
f 1 13 3
f 1 3 4
f 1 4 5
f 1 5 2
f 2 5 7
f 2 7 8
f 2 8 9
f 2 9 10
f 2 10 11
f 2 11 12
f 2 12 6
f 3 13 14
f 3 14 15
f 3 15 16
f 3 16 17
f 3 17 4
f 4 17 7
f 4 7 5
f 6 12 19
f 6 19 18
f 7 17 15
f 7 15 9
f 7 9 8
f 9 15 25
f 9 25 20
f 9 20 12
f 9 12 11
f 9 11 10
f 12 20 25
f 12 25 21
f 12 21 41
f 12 41 19
f 13 22 23
f 13 23 24
f 13 24 14
f 14 25 15
f 14 24 26
f 14 26 27
f 14 27 25
f 15 17 16
f 18 28 29
f 18 19 30
f 18 30 31
f 18 31 32
f 18 32 33
f 18 33 34
f 18 34 35
f 18 35 36
f 18 36 37
f 18 37 38
f 18 38 39
f 18 39 28
f 19 40 30
f 19 41 42
f 19 42 43
f 19 43 44
f 19 44 40
f 21 25 41
f 22 45 65
f 22 65 89
f 22 89 117
f 22 117 116
f 22 116 148
f 22 148 165
f 22 165 182
f 22 182 190
f 22 190 194
f 22 194 192
f 22 192 188
f 22 188 186
f 22 186 185
f 22 185 169
f 22 169 184
f 22 184 168
f 22 168 152
f 22 152 119
f 22 119 94
f 22 94 69
f 22 69 48
f 22 48 27
f 22 27 26
f 22 26 24
f 22 24 23
f 25 27 46
f 25 46 47
f 25 47 41
f 27 48 49
f 27 49 42
f 27 42 46
f 28 39 29
f 29 39 51
f 29 51 50
f 30 40 31
f 31 40 52
f 31 52 32
f 32 52 53
f 32 53 54
f 32 54 33
f 33 54 55
f 33 55 56
f 33 56 34
f 34 56 57
f 34 57 35
f 35 57 58
f 35 58 37
f 35 37 36
f 37 58 38
f 38 58 39
f 39 58 51
f 40 44 59
f 40 59 52
f 41 47 46
f 41 46 42
f 42 49 60
f 42 60 43
f 43 60 44
f 44 60 61
f 44 61 52
f 44 52 59
f 45 62 63
f 45 63 64
f 45 64 65
f 48 66 67
f 48 67 68
f 48 68 49
f 48 69 66
f 49 68 70
f 49 70 60
f 50 51 72
f 50 72 71
f 51 58 73
f 51 73 74
f 51 74 75
f 51 75 72
f 52 61 76
f 52 76 77
f 52 77 78
f 52 78 53
f 53 78 54
f 54 78 79
f 54 79 55
f 55 79 56
f 56 80 57
f 56 79 81
f 56 81 82
f 56 82 80
f 57 73 58
f 57 80 73
f 60 70 83
f 60 83 76
f 60 76 61
f 62 84 63
f 63 85 86
f 63 86 87
f 63 87 88
f 63 88 64
f 63 84 85
f 64 88 65
f 65 88 87
f 65 87 89
f 66 69 90
f 66 90 91
f 66 91 67
f 67 91 92
f 67 92 68
f 68 92 93
f 68 93 70
f 69 94 95
f 69 95 90
f 70 93 96
f 70 96 97
f 70 97 83
f 71 72 99
f 71 99 100
f 71 100 98
f 72 75 100
f 72 100 99
f 73 80 101
f 73 101 75
f 73 75 74
f 75 101 102
f 75 102 103
f 75 103 100
f 76 83 104
f 76 104 77
f 77 104 105
f 77 105 78
f 78 105 79
f 79 105 82
f 79 82 81
f 80 82 106
f 80 106 107
f 80 107 101
f 82 105 106
f 83 97 104
f 84 108 85
f 85 108 86
f 86 109 110
f 86 110 111
f 86 111 112
f 86 112 87
f 86 108 113
f 86 113 114
f 86 114 115
f 86 115 109
f 87 112 116
f 87 116 117
f 87 117 89
f 90 118 91
f 90 95 118
f 91 118 93
f 91 93 92
f 93 118 96
f 94 119 120
f 94 120 121
f 94 121 95
f 95 121 122
f 95 122 118
f 96 118 97
f 97 118 123
f 97 123 124
f 97 124 105
f 97 105 104
f 98 100 126
f 98 126 127
f 98 127 125
f 100 103 128
f 100 128 129
f 100 129 130
f 100 130 126
f 101 107 102
f 102 107 131
f 102 131 132
f 102 132 133
f 102 133 128
f 102 128 103
f 105 134 106
f 105 124 134
f 106 134 124
f 106 124 107
f 107 124 135
f 107 135 136
f 107 136 131
f 108 137 138
f 108 138 139
f 108 139 113
f 109 140 110
f 109 115 130
f 109 130 140
f 110 140 141
f 110 141 129
f 110 129 142
f 110 142 111
f 111 143 112
f 111 142 144
f 111 144 145
f 111 145 143
f 112 143 146
f 112 146 147
f 112 147 116
f 113 139 137
f 113 137 114
f 114 137 125
f 114 125 115
f 115 125 130
f 116 147 149
f 116 149 148
f 118 122 150
f 118 150 151
f 118 151 123
f 119 152 120
f 120 150 121
f 120 152 150
f 121 150 122
f 123 151 153
f 123 153 154
f 123 154 155
f 123 155 124
f 124 155 156
f 124 156 135
f 125 127 130
f 126 130 127
f 128 142 129
f 128 133 157
f 128 157 158
f 128 158 159
f 128 159 160
f 128 160 142
f 129 141 140
f 129 140 130
f 131 136 161
f 131 161 132
f 132 161 133
f 133 161 157
f 135 156 161
f 135 161 136
f 137 139 138
f 142 160 144
f 143 145 162
f 143 162 163
f 143 163 146
f 144 160 145
f 145 160 162
f 146 163 149
f 146 149 147
f 148 164 165
f 148 149 164
f 149 163 166
f 149 166 164
f 150 152 167
f 150 167 151
f 151 167 153
f 152 168 167
f 153 167 169
f 153 169 170
f 153 170 171
f 153 171 172
f 153 172 173
f 153 173 154
f 154 174 155
f 154 173 175
f 154 175 174
f 155 174 156
f 156 174 176
f 156 176 161
f 157 176 177
f 157 177 158
f 157 161 176
f 158 177 178
f 158 178 159
f 159 162 160
f 159 178 165
f 159 165 164
f 159 164 179
f 159 179 163
f 159 163 162
f 163 179 166
f 164 166 179
f 165 178 180
f 165 180 181
f 165 181 182
f 167 168 183
f 167 183 184
f 167 184 169
f 168 184 183
f 169 185 170
f 170 185 186
f 170 186 187
f 170 187 171
f 171 187 172
f 172 187 186
f 172 186 173
f 173 186 175
f 174 175 177
f 174 177 176
f 175 186 188
f 175 188 189
f 175 189 181
f 175 181 180
f 175 180 178
f 175 178 177
f 181 189 182
f 182 189 191
f 182 191 190
f 188 192 193
f 188 193 189
f 189 193 192
f 189 192 194
f 189 194 191
f 190 191 194

