# https://github.com/mikedh/trimesh
v -0.02828486 0.04468692 -0.00052296
v -0.02828486 0.03056528 -0.00052296
v -0.02828486 0.04462390 0.00077657
v 0.00815446 0.04329229 -0.00052296
v -0.02828486 0.01669572 0.00839035
v -0.01526928 0.02635948 -0.00052296
v -0.02828486 0.04433073 0.00287943
v 0.00815446 0.04310324 0.00072539
v 0.00815446 0.02612384 -0.00052296
v -0.02716842 0.01669572 0.00829651
v -0.02828486 0.01669572 0.01304962
v -0.01309705 0.02566079 -0.00052296
v -0.01093908 0.02515938 -0.00052296
v -0.02828486 0.04388686 0.00443346
v 0.00815446 0.04247579 0.00247990
v 0.00815446 0.01669572 0.00824391
v 0.00796185 0.02601972 -0.00052296
v -0.02506396 0.01669572 0.00827945
v -0.00889526 0.02497033 -0.00052296
v -0.00673016 0.02492375 -0.00052296
v -0.02796383 0.01669572 0.01309227
v -0.02828486 0.01735056 0.01312639
v -0.02828486 0.04335805 0.00548560
v 0.00815446 0.04059893 0.00686049
v 0.00815446 0.04127022 0.00548844
v 0.00815446 0.04149763 0.00498228
v 0.00815446 0.04236893 0.00277421
v 0.00372439 0.02523884 -0.00052296
v 0.00582529 0.02534570 -0.00052296
v 0.00815446 0.01669572 0.01290317
v 0.00792975 0.01669572 0.00824391
v -0.00468990 0.02497581 -0.00052296
v -0.02361580 0.01669572 0.00827519
v -0.02782116 0.01669572 0.01311075
v -0.02828486 0.03417378 0.01356431
v -0.00468990 0.01669572 0.01400080
v -0.02828486 0.04319365 0.00580551
v 0.00815446 0.04050304 0.00704532
v 0.00815446 0.01945209 0.01314346
v -0.00258543 0.01669572 0.01384441
v -0.02828486 0.03627531 0.01354156
v -0.00365907 0.01669572 0.01393682
v 0.00815446 0.02177830 0.01324440
v 0.00815446 0.03206951 0.01323018
v -0.02361580 0.03417378 0.01358279
v -0.02828486 0.04252785 0.00708513
v 0.00815446 0.03963995 0.00828514
v -0.02828486 0.04234427 0.00743632
v -0.02828486 0.04175518 0.00851263
v -0.02828486 0.04162367 0.00874296
v 0.00815446 0.01967677 0.01315625
v -0.02782116 0.03627531 0.01352308
v -0.02828486 0.03809737 0.01289748
v 0.00815446 0.03229144 0.01320175
v 0.00815446 0.03416830 0.01268990
v 0.00815446 0.02155637 0.01324156
v 0.00815446 0.03502864 0.01216525
v -0.02828486 0.04103458 0.00956476
v -0.02828486 0.04078525 0.00990884
v -0.02828486 0.03973585 0.01122117
v -0.02828486 0.03911115 0.01196193
v 0.00815446 0.03419022 0.01268137
v 0.00815446 0.03421214 0.01266999
f 1 2 5
f 1 5 11
f 1 11 22
f 1 22 35
f 1 35 41
f 1 41 53
f 1 53 61
f 1 61 60
f 1 60 59
f 1 59 58
f 1 58 50
f 1 50 49
f 1 49 48
f 1 48 46
f 1 46 37
f 1 37 23
f 1 23 14
f 1 14 7
f 1 7 3
f 1 3 4
f 1 4 9
f 1 9 17
f 1 17 29
f 1 29 28
f 1 28 32
f 1 32 20
f 1 20 19
f 1 19 13
f 1 13 12
f 1 12 6
f 1 6 2
f 2 6 5
f 3 7 4
f 4 8 15
f 4 15 27
f 4 27 26
f 4 26 25
f 4 25 24
f 4 24 38
f 4 38 47
f 4 47 57
f 4 57 63
f 4 63 62
f 4 62 55
f 4 55 54
f 4 54 44
f 4 44 43
f 4 43 56
f 4 56 51
f 4 51 39
f 4 39 30
f 4 30 16
f 4 16 9
f 4 7 8
f 5 10 18
f 5 18 33
f 5 33 31
f 5 31 16
f 5 16 30
f 5 30 40
f 5 40 42
f 5 42 36
f 5 36 34
f 5 34 21
f 5 21 11
f 5 6 12
f 5 12 13
f 5 13 10
f 7 14 8
f 8 14 15
f 9 16 17
f 10 13 19
f 10 19 20
f 10 20 18
f 11 21 22
f 14 23 24
f 14 24 25
f 14 25 26
f 14 26 27
f 14 27 15
f 16 28 29
f 16 29 17
f 16 31 20
f 16 20 32
f 16 32 28
f 18 20 33
f 20 31 33
f 21 34 22
f 22 34 36
f 22 36 35
f 23 37 24
f 24 37 38
f 30 39 40
f 35 36 41
f 36 42 43
f 36 43 44
f 36 44 45
f 36 45 41
f 37 46 38
f 38 46 48
f 38 48 49
f 38 49 50
f 38 50 47
f 39 51 42
f 39 42 40
f 41 52 53
f 41 45 44
f 41 44 54
f 41 54 55
f 41 55 52
f 42 51 56
f 42 56 43
f 47 50 58
f 47 58 59
f 47 59 60
f 47 60 61
f 47 61 53
f 47 53 57
f 52 55 53
f 53 55 62
f 53 62 63
f 53 63 57

