# https://github.com/mikedh/trimesh
v -0.05147459 0.03874371 -0.00606381
v -0.05147459 0.03148732 -0.00606381
v -0.05147459 0.03765016 -0.01019542
v -0.05530937 0.03575969 -0.00980461
v -0.05645153 0.03533909 -0.00914485
v -0.05787794 0.03498933 -0.00763765
v -0.05752134 0.03558702 -0.00606381
v -0.05147459 0.01263574 -0.00962098
v -0.07014200 0.00928425 -0.00606381
v -0.05147459 0.03680897 -0.01128337
v -0.05194489 0.03728269 -0.01064799
v -0.05609492 0.03513986 -0.01054480
v -0.06056539 0.03321397 -0.00900916
v -0.05819837 0.03515757 -0.00633926
v -0.05826039 0.03519299 -0.00606381
v -0.05147459 0.01098435 -0.01010198
v -0.08416839 -0.00242161 -0.00606381
v -0.05147459 0.03636181 -0.01169856
v -0.05306638 0.03593678 -0.01146862
v -0.05469435 0.03551619 -0.01112168
v -0.05877721 0.03334237 -0.01101443
v -0.06018294 0.03295276 -0.01040993
v -0.06077729 0.03336893 -0.00763765
v -0.05930952 0.03459087 -0.00606381
v -0.06263265 0.03110214 -0.01087143
v -0.06284455 0.03128808 -0.00974123
v -0.06182642 0.03257644 -0.00763765
v -0.05147459 0.01049734 -0.01028155
v -0.10103212 -0.00242161 -0.00606381
v -0.08561548 -0.00648590 -0.00756614
v -0.05158312 0.00972698 -0.01055293
v -0.05147459 0.00992621 -0.01050093
v -0.05147459 0.03403303 -0.01271583
v -0.05306638 0.03420570 -0.01252001
v -0.05414652 0.03312985 -0.01290027
v -0.05512331 0.03413486 -0.01191794
v -0.05727327 0.03374968 -0.01135000
v -0.05943873 0.03218241 -0.01157019
v -0.06148015 0.03148289 -0.01114687
v -0.06096334 0.03352832 -0.00606381
v -0.07102575 0.02266364 -0.01292870
v -0.07941885 0.01635470 -0.01294008
v -0.08765690 0.00989965 -0.01255495
v -0.08568784 0.01212217 -0.01089256
v -0.06314947 0.03152716 -0.00763765
v -0.08365158 0.01428271 -0.00900510
v -0.08160499 0.01642996 -0.00708920
v -0.06335103 0.03166884 -0.00606381
v -0.06301510 0.03193447 -0.00606381
v -0.06201247 0.03272254 -0.00606381
v -0.10080471 -0.00216925 -0.00606381
v -0.10286164 -0.00429880 -0.00974123
v -0.10184868 -0.00326723 -0.00756614
v -0.10280479 -0.00435636 -0.00763846
v -0.10280479 -0.00436078 -0.00756614
v -0.10380742 -0.00578638 -0.00756614
v -0.10423121 -0.00645934 -0.00756614
v -0.10424671 -0.00648590 -0.00756614
v -0.07700015 -0.00496290 -0.01054724
v -0.05803816 0.00562285 -0.01061305
v -0.08581704 -0.00648590 -0.00964129
v -0.07700015 -0.00496290 -0.01119562
v -0.05408968 0.00787193 -0.01077312
v -0.05158312 0.00972698 -0.01114118
v -0.05147459 0.01003690 -0.01131181
v -0.05147459 0.03344420 -0.01285558
v -0.05734562 0.03193890 -0.01248670
v -0.05306638 0.03315642 -0.01290270
v -0.08039564 -0.00157599 -0.01430753
v -0.08250424 -0.00157599 -0.01429778
v -0.09932662 -0.00578638 -0.01436441
v -0.10143007 -0.00578638 -0.01430509
v -0.09932662 -0.00368340 -0.01420191
v -0.06466374 0.02682534 -0.01290352
v -0.05808984 0.03084092 -0.01287345
v -0.08243706 0.01312275 -0.01319439
v -0.08169801 0.01438454 -0.01302377
v -0.08987405 0.00789850 -0.01290270
v -0.09865992 -0.00016810 -0.01184319
v -0.08376528 0.01440224 -0.00763765
v -0.06440017 0.03081436 -0.00606381
v -0.08168768 0.01650965 -0.00606381
v -0.07880901 0.01894026 -0.00606381
v -0.10083056 -0.00214269 -0.00763765
v -0.10110447 -0.00242161 -0.00816903
v -0.10191070 -0.00324952 -0.00974123
v -0.09903720 -0.00027436 -0.00606381
v -0.10290299 -0.00427666 -0.01184319
v -0.10386427 -0.00578638 -0.00974123
v -0.10425188 -0.00648590 -0.00763846
v -0.05803816 0.00562285 -0.01102256
v -0.08611162 -0.00648590 -0.01154013
v -0.08617881 -0.00648590 -0.01184319
v -0.08664911 -0.00648590 -0.01297258
v -0.08692302 -0.00648590 -0.01341621
v -0.07825601 -0.00510457 -0.01187488
v -0.07892788 -0.00500275 -0.01323096
v -0.05408968 0.00787193 -0.01081781
v -0.05510264 0.00898762 -0.01228763
v -0.05306638 0.01068329 -0.01256064
v -0.05147459 0.01105076 -0.01204632
v -0.05147459 0.03280223 -0.01288808
v -0.05172783 0.03315642 -0.01290027
v -0.05516982 0.01314931 -0.01322608
v -0.05727327 0.01104633 -0.01328946
v -0.08039564 -0.00242161 -0.01427584
v -0.08250424 -0.00368340 -0.01429859
v -0.09932662 -0.00648590 -0.01433841
v -0.10143007 -0.00648590 -0.01430916
v -0.10337846 -0.00648590 -0.01358846
v -0.10319241 -0.00578638 -0.01355108
v -0.10277379 -0.00443162 -0.01326183
v -0.10138355 -0.00370997 -0.01359659
v -0.08880941 0.00835451 -0.01308552
v -0.08625116 0.01043093 -0.01310664
v -0.08397200 0.01240552 -0.01307902
v -0.09070612 0.00666327 -0.01311233
v -0.09285091 0.00459128 -0.01320577
v -0.09203434 0.00584864 -0.01295958
v -0.10082539 -0.00220025 -0.01184319
v -0.09970907 -0.00115097 -0.01184319
v -0.08384797 0.01448194 -0.00606381
v -0.08411671 0.01422958 -0.00606381
v -0.09983827 -0.00108899 -0.00763765
v -0.10085640 -0.00214269 -0.00974123
v -0.09776067 0.00104941 -0.00606381
v -0.10111997 -0.00242161 -0.01028317
v -0.10187969 -0.00322739 -0.01184319
v -0.10389528 -0.00578638 -0.01184319
v -0.10426221 -0.00648590 -0.00974123
v -0.08881457 -0.00648590 -0.01389478
v -0.08040080 -0.00517541 -0.01347877
v -0.05575900 0.00972698 -0.01300020
v -0.05435842 0.01022727 -0.01280114
v -0.08040080 -0.00368340 -0.01422709
v -0.05198107 0.01207790 -0.01290027
v -0.05147459 0.01155104 -0.01234613
v -0.05147459 0.03263399 -0.01288808
v -0.05288549 0.01310946 -0.01301970
v -0.05306638 0.01173256 -0.01297827
v -0.09091802 -0.00648590 -0.01409953
v -0.09862892 -0.00648590 -0.01432216
v -0.10426738 -0.00648590 -0.01184319
v -0.10105279 -0.00242161 -0.01184319
v -0.10065484 -0.00237734 -0.01319358
v -0.09419463 0.00379879 -0.01301564
v -0.09979692 -0.00108899 -0.00974123
v -0.09771932 0.00104056 -0.00763765
v -0.09849971 -0.00031420 -0.01312939
v -0.09562105 0.00315240 -0.00606381
v -0.09878396 -0.00000872 -0.00763765
v -0.09697510 0.00184633 -0.00606381
v -0.09022031 -0.00648590 -0.01403209
v -0.05147459 0.01282611 -0.01276539
f 1 2 8
f 1 8 16
f 1 16 28
f 1 28 32
f 1 32 65
f 1 65 101
f 1 101 137
f 1 137 154
f 1 154 138
f 1 138 102
f 1 102 66
f 1 66 33
f 1 33 18
f 1 18 10
f 1 10 3
f 1 3 4
f 1 4 5
f 1 5 6
f 1 6 7
f 1 7 15
f 1 15 24
f 1 24 40
f 1 40 50
f 1 50 49
f 1 49 48
f 1 48 81
f 1 81 83
f 1 83 82
f 1 82 122
f 1 122 123
f 1 123 150
f 1 150 152
f 1 152 126
f 1 126 87
f 1 87 51
f 1 51 29
f 1 29 17
f 1 17 9
f 1 9 2
f 2 9 8
f 3 10 11
f 3 11 4
f 4 12 13
f 4 13 5
f 4 11 12
f 5 13 6
f 6 13 7
f 7 13 14
f 7 14 15
f 8 9 17
f 8 17 16
f 10 18 19
f 10 19 11
f 11 19 20
f 11 20 12
f 12 20 21
f 12 21 22
f 12 22 13
f 13 23 24
f 13 24 15
f 13 15 14
f 13 22 25
f 13 25 26
f 13 26 27
f 13 27 23
f 16 17 28
f 17 29 58
f 17 58 30
f 17 30 31
f 17 31 32
f 17 32 28
f 18 33 34
f 18 34 35
f 18 35 19
f 19 35 36
f 19 36 37
f 19 37 20
f 20 37 21
f 21 38 39
f 21 39 25
f 21 25 22
f 21 37 38
f 23 40 24
f 23 27 40
f 25 39 41
f 25 41 42
f 25 42 43
f 25 43 44
f 25 44 26
f 26 45 27
f 26 44 46
f 26 46 47
f 26 47 45
f 27 45 48
f 27 48 49
f 27 49 50
f 27 50 40
f 29 51 52
f 29 52 53
f 29 53 54
f 29 54 55
f 29 55 56
f 29 56 57
f 29 57 58
f 30 59 60
f 30 60 31
f 30 58 90
f 30 90 130
f 30 130 143
f 30 143 110
f 30 110 109
f 30 109 108
f 30 108 142
f 30 142 141
f 30 141 153
f 30 153 131
f 30 131 95
f 30 95 94
f 30 94 93
f 30 93 92
f 30 92 61
f 30 61 62
f 30 62 59
f 31 60 63
f 31 63 98
f 31 98 64
f 31 64 32
f 32 64 65
f 33 66 35
f 33 35 34
f 35 67 36
f 35 66 68
f 35 68 69
f 35 69 70
f 35 70 71
f 35 71 72
f 35 72 73
f 35 73 74
f 35 74 75
f 35 75 67
f 36 67 38
f 36 38 37
f 38 74 41
f 38 41 39
f 38 67 74
f 41 74 73
f 41 73 76
f 41 76 77
f 41 77 42
f 42 77 78
f 42 78 43
f 43 78 44
f 44 78 79
f 44 79 80
f 44 80 46
f 45 81 48
f 45 47 81
f 46 80 47
f 47 80 82
f 47 82 83
f 47 83 81
f 51 84 85
f 51 85 86
f 51 86 52
f 51 87 84
f 52 88 56
f 52 56 55
f 52 55 54
f 52 54 53
f 52 86 88
f 56 88 89
f 56 89 90
f 56 90 57
f 57 90 58
f 59 62 91
f 59 91 60
f 60 91 98
f 60 98 63
f 61 92 62
f 62 92 93
f 62 93 94
f 62 94 95
f 62 95 96
f 62 96 97
f 62 97 91
f 64 99 100
f 64 100 101
f 64 101 65
f 64 98 91
f 64 91 97
f 64 97 99
f 66 102 103
f 66 103 68
f 67 75 74
f 68 103 69
f 69 103 104
f 69 104 105
f 69 105 106
f 69 106 107
f 69 107 71
f 69 71 70
f 71 107 108
f 71 108 109
f 71 109 72
f 72 109 110
f 72 110 111
f 72 111 112
f 72 112 113
f 72 113 73
f 73 113 114
f 73 114 115
f 73 115 116
f 73 116 77
f 73 77 76
f 77 116 78
f 78 114 117
f 78 117 118
f 78 118 113
f 78 113 119
f 78 119 120
f 78 120 121
f 78 121 79
f 78 116 114
f 79 121 80
f 80 122 82
f 80 121 120
f 80 120 123
f 80 123 122
f 84 87 124
f 84 124 85
f 85 124 86
f 86 124 125
f 86 125 88
f 87 126 124
f 88 127 128
f 88 128 112
f 88 112 129
f 88 129 89
f 88 125 127
f 89 129 90
f 90 129 130
f 95 131 132
f 95 132 97
f 95 97 96
f 97 133 134
f 97 134 100
f 97 100 99
f 97 132 135
f 97 135 133
f 100 134 136
f 100 136 101
f 101 136 137
f 102 138 139
f 102 139 104
f 102 104 103
f 104 140 105
f 104 139 136
f 104 136 140
f 105 140 135
f 105 135 106
f 106 135 107
f 107 135 141
f 107 141 142
f 107 142 108
f 110 143 111
f 111 143 112
f 112 128 144
f 112 144 120
f 112 120 145
f 112 145 113
f 112 143 129
f 113 145 146
f 113 146 119
f 113 118 114
f 114 118 117
f 114 116 115
f 119 146 120
f 120 144 147
f 120 147 148
f 120 148 123
f 120 146 149
f 120 149 145
f 123 148 150
f 124 126 125
f 125 126 151
f 125 151 127
f 126 152 151
f 127 151 152
f 127 152 128
f 128 147 144
f 128 152 147
f 129 143 130
f 131 153 135
f 131 135 132
f 133 136 134
f 133 135 136
f 135 140 136
f 135 153 141
f 136 139 138
f 136 138 154
f 136 154 137
f 145 149 146
f 147 152 148
f 148 152 150

