# https://github.com/mikedh/trimesh
v -0.05147204 0.04062789 0.00281819
v -0.05228384 0.03961046 0.00424377
v -0.05147204 0.04037250 0.00349056
v -0.05147204 0.04061141 0.00089730
v -0.05412549 0.03943746 0.00180578
v -0.05412549 0.03943746 0.00184171
v -0.05147204 0.03989262 0.00468518
v -0.05669225 0.03764151 0.00246660
v -0.05869942 0.03546248 0.00437850
v -0.06065404 0.03326080 0.00629554
v -0.06141592 0.03239989 0.00704490
v -0.05147204 0.03874338 -0.00606381
v -0.05790601 0.03538422 -0.00606381
v -0.05826068 0.03519679 -0.00606381
v -0.05851814 0.03534302 -0.00493592
v -0.05722294 0.03691654 -0.00144830
v -0.05677895 0.03767240 0.00077540
v -0.05782982 0.03701334 0.00077540
v -0.05147204 0.03973816 0.00495849
v -0.06140279 0.03240813 0.00704490
v -0.05905146 0.03579819 0.00287849
v -0.06101922 0.03359445 0.00498159
v -0.06295020 0.03138658 0.00704490
v -0.06176271 0.03217128 0.00704490
v -0.05147204 0.03148956 -0.00606381
v -0.05930104 0.03459334 -0.00606381
v -0.05879137 0.03553662 -0.00343078
v -0.05908561 0.03578995 -0.00132641
v -0.06013648 0.03500525 -0.00132641
v -0.05921172 0.03596090 0.00077540
v -0.06010496 0.03499907 0.00287849
v -0.05147204 0.03854978 0.00704490
v -0.06207009 0.03281387 0.00498159
v -0.06541712 0.02959063 0.00704490
v -0.06402734 0.03062042 0.00704490
v -0.05147204 0.02845993 -0.00104796
v -0.06730869 0.01958728 -0.00606381
v -0.06096142 0.03352854 -0.00606381
v -0.06102447 0.03358209 -0.00553387
v -0.06207797 0.03277268 -0.00553387
v -0.06246417 0.03307131 -0.00208988
v -0.06164711 0.03382924 -0.00136362
v -0.06261654 0.03319283 -0.00068739
v -0.06261654 0.03319283 0.00034555
v -0.06136338 0.03394663 0.00287849
v -0.06649164 0.02872767 0.00704490
v -0.05147204 0.02700587 0.00704490
v -0.05147204 0.02783176 0.00077540
v -0.06412192 0.02014543 0.00130791
v -0.06531991 0.01958728 0.00086651
v -0.07799606 0.01958728 -0.00606381
v -0.06122677 0.03333082 -0.00606381
v -0.06201229 0.03272531 -0.00606381
v -0.06461320 0.03100350 -0.00440213
v -0.06477083 0.03112708 -0.00299964
v -0.06488906 0.03123829 -0.00132641
v -0.06593993 0.03035062 -0.00132641
v -0.06718258 0.02930023 -0.00132641
v -0.06823346 0.02840844 -0.00132641
v -0.06946035 0.02735600 -0.00132641
v -0.06484965 0.03121152 0.00077540
v -0.06342309 0.03242873 0.00093708
v -0.06251671 0.03311251 0.00174675
v -0.06241688 0.03302394 0.00287849
v -0.06446082 0.03087581 0.00498159
v -0.06665452 0.02884507 0.00560007
v -0.07733139 0.01958728 0.00498159
v -0.07715537 0.01958728 0.00582205
v -0.07687163 0.01958728 0.00704490
v -0.05331107 0.02593901 0.00704490
v -0.06475507 0.01958728 0.00287849
v -0.07818785 0.01958728 -0.00547741
v -0.07798030 0.01960170 -0.00606381
v -0.06301325 0.03193855 -0.00606381
v -0.06334690 0.03167286 -0.00606381
v -0.06446871 0.03087993 -0.00553387
v -0.07729723 0.02054911 -0.00464464
v -0.07729723 0.02054911 -0.00397099
v -0.07051122 0.02643743 -0.00132641
v -0.07156210 0.02527171 0.00077540
v -0.07469370 0.02221324 0.00287849
v -0.07747063 0.01958728 0.00399099
v -0.06437938 0.01958728 0.00704490
v -0.07830870 0.01958728 -0.00334737
v -0.07706604 0.02035963 -0.00606381
v -0.06439777 0.03081814 -0.00606381
v -0.07168294 0.02538499 -0.00132641
v -0.07261560 0.02432430 0.00077540
v -0.07586805 0.02116080 0.00287849
v -0.07760724 0.01958728 0.00287849
v -0.07692155 0.02020928 0.00287849
v -0.07811954 0.01958728 -0.00163821
v -0.07716062 0.02042553 -0.00132641
v -0.07494853 0.02242950 -0.00132641
v -0.07377681 0.02327392 0.00077540
v -0.07769656 0.01958728 0.00209577
v -0.07784631 0.01958728 0.00077540
f 1 2 3
f 1 3 7
f 1 7 19
f 1 19 32
f 1 32 47
f 1 47 48
f 1 48 36
f 1 36 25
f 1 25 12
f 1 12 4
f 1 4 5
f 1 5 6
f 1 6 2
f 2 7 3
f 2 6 8
f 2 8 9
f 2 9 10
f 2 10 11
f 2 11 7
f 4 12 13
f 4 13 14
f 4 14 5
f 5 14 15
f 5 15 16
f 5 16 17
f 5 17 18
f 5 18 6
f 6 18 8
f 7 11 20
f 7 20 19
f 8 18 21
f 8 21 22
f 8 22 9
f 9 22 23
f 9 23 10
f 10 23 24
f 10 24 11
f 11 24 23
f 11 23 35
f 11 35 34
f 11 34 46
f 11 46 69
f 11 69 83
f 11 83 70
f 11 70 47
f 11 47 32
f 11 32 20
f 12 25 37
f 12 37 51
f 12 51 73
f 12 73 85
f 12 85 86
f 12 86 75
f 12 75 74
f 12 74 53
f 12 53 52
f 12 52 38
f 12 38 26
f 12 26 14
f 12 14 13
f 14 26 15
f 15 26 27
f 15 27 16
f 16 27 17
f 17 27 28
f 17 28 18
f 18 28 29
f 18 29 30
f 18 30 31
f 18 31 21
f 19 20 32
f 21 31 33
f 21 33 22
f 22 33 34
f 22 34 35
f 22 35 23
f 25 36 37
f 26 38 27
f 27 38 28
f 28 38 39
f 28 39 29
f 29 39 40
f 29 40 41
f 29 41 42
f 29 42 43
f 29 43 30
f 30 43 44
f 30 44 31
f 31 45 46
f 31 46 34
f 31 34 33
f 31 44 45
f 36 48 37
f 37 49 50
f 37 50 71
f 37 71 83
f 37 83 69
f 37 69 68
f 37 68 67
f 37 67 82
f 37 82 90
f 37 90 96
f 37 96 97
f 37 97 92
f 37 92 84
f 37 84 72
f 37 72 51
f 37 48 49
f 38 52 39
f 39 52 40
f 40 52 53
f 40 53 54
f 40 54 55
f 40 55 41
f 41 55 42
f 42 55 43
f 43 55 56
f 43 56 57
f 43 57 58
f 43 58 59
f 43 59 44
f 44 59 60
f 44 60 61
f 44 61 62
f 44 62 63
f 44 63 45
f 45 63 64
f 45 64 65
f 45 65 46
f 46 65 66
f 46 66 67
f 46 67 68
f 46 68 69
f 47 70 71
f 47 71 49
f 47 49 48
f 49 71 50
f 51 72 73
f 53 74 54
f 54 74 75
f 54 75 76
f 54 76 77
f 54 77 55
f 55 77 56
f 56 77 57
f 57 77 58
f 58 77 59
f 59 77 60
f 60 77 78
f 60 78 79
f 60 79 61
f 61 63 62
f 61 79 80
f 61 80 81
f 61 81 67
f 61 67 63
f 63 67 64
f 64 67 65
f 65 67 66
f 67 81 82
f 70 83 71
f 72 84 77
f 72 77 85
f 72 85 73
f 75 86 76
f 76 86 77
f 77 84 78
f 77 86 85
f 78 84 87
f 78 87 79
f 79 87 80
f 80 87 88
f 80 88 89
f 80 89 81
f 81 89 82
f 82 89 91
f 82 91 90
f 84 92 93
f 84 93 94
f 84 94 87
f 87 95 88
f 87 94 95
f 88 95 91
f 88 91 89
f 90 91 96
f 91 94 93
f 91 93 96
f 91 95 94
f 92 97 93
f 93 97 96

