# https://github.com/mikedh/trimesh
v 0.01178536 -0.00796112 0.01134874
v 0.01178536 -0.00810090 0.00992922
v 0.01178536 -0.00818599 0.01183407
v 0.02172530 -0.01309663 0.01240133
v 0.01353895 -0.00875728 0.01072503
v 0.01353895 -0.00875728 0.00987277
v 0.01214665 -0.00838654 0.00950516
v 0.01178536 -0.00828323 0.00946110
v 0.01178536 -0.00849594 0.01228568
v 0.02176936 -0.01307232 0.01129160
v 0.01178536 -0.00893352 0.01266912
v 0.02056212 -0.01288999 0.01252112
v 0.04505068 -0.02772524 0.01243024
v 0.08273962 -0.04880818 0.01033470
v 0.03265219 -0.01915593 0.01062315
v 0.02584051 -0.01524807 0.01030854
v 0.02584051 -0.01524807 0.01021560
v 0.02858104 -0.01701056 0.00974404
v 0.05741392 -0.03415526 0.00811662
v 0.01178536 -0.00961421 0.00864945
v 0.02574357 -0.01739952 0.00814071
v 0.01178536 -0.00987554 0.01296101
v 0.02056212 -0.01420274 0.01277308
v 0.04576445 -0.02892251 0.01251148
v 0.05988128 -0.03822720 0.01243437
v 0.06374094 -0.04043335 0.01236760
v 0.09789627 -0.05886041 0.01065481
v 0.09564921 -0.05707361 0.01042006
v 0.08273962 -0.04880818 0.01009031
v 0.09960580 -0.05927368 0.00858474
v 0.03265219 -0.01915593 0.00986382
v 0.04520048 -0.03155408 0.00599147
v 0.09960580 -0.05927368 0.00775176
v 0.10098047 -0.06065936 0.00625651
v 0.01214665 -0.01000317 0.00852554
v 0.01178536 -0.01499890 0.00599147
v 0.01178536 -0.01209992 0.01302435
v 0.05840086 -0.03943055 0.01254728
v 0.06055100 -0.03940624 0.01247499
v 0.06260419 -0.04015378 0.01241579
v 0.06415511 -0.04153946 0.01239513
v 0.09626604 -0.06047095 0.01121656
v 0.09809013 -0.06047095 0.01073949
v 0.09914757 -0.06047095 0.00991270
v 0.09984372 -0.06047095 0.00886218
v 0.10161494 -0.06132788 0.00625651
v 0.10157088 -0.06124280 0.00625651
v 0.06888715 -0.04579372 0.00599147
v 0.08803564 -0.06339424 0.00599147
v 0.01178536 -0.03472047 0.00599147
v 0.01178536 -0.02262012 0.01296514
v 0.06260419 -0.04153946 0.01246604
v 0.01178536 -0.02472294 0.01291833
v 0.06524779 -0.04491248 0.01235796
v 0.06595275 -0.04491248 0.01235796
v 0.06595275 -0.04423788 0.01235796
v 0.09205391 -0.06467052 0.01111674
v 0.09433622 -0.06484069 0.01076703
v 0.09638060 -0.06267710 0.01077598
v 0.07312572 -0.05204750 0.01201719
v 0.07522298 -0.05415640 0.01189397
v 0.09776409 -0.06204503 0.01049028
v 0.09842499 -0.06267710 0.00979980
v 0.09992303 -0.06256770 0.00870177
v 0.10170306 -0.06564900 0.00625651
v 0.10174712 -0.06467052 0.00633981
v 0.10180880 -0.06467052 0.00625651
v 0.10098047 -0.06256770 0.00739240
v 0.10171187 -0.06256770 0.00634119
v 0.10176474 -0.06256770 0.00625651
v 0.08803564 -0.06954470 0.00599147
v 0.04639010 -0.05120272 0.00599147
v 0.06366163 -0.05941346 0.00603415
v 0.04652228 -0.05115410 0.00625445
v 0.01178536 -0.03451991 0.00644101
v 0.01178536 -0.02682576 0.01282884
v 0.07101966 -0.05204750 0.01202683
v 0.08995665 -0.06467052 0.01111743
v 0.09203628 -0.06695568 0.01062659
v 0.09374581 -0.06637223 0.01054123
v 0.09576377 -0.06425118 0.01052264
v 0.09514692 -0.06564900 0.01020390
v 0.09716487 -0.06344894 0.01015640
v 0.09922688 -0.06550314 0.00803263
v 0.09972035 -0.06410532 0.00836996
v 0.10157088 -0.06619598 0.00625651
v 0.10085710 -0.06715015 0.00625651
v 0.09985253 -0.06798278 0.00625651
v 0.09980848 -0.06801924 0.00625651
v 0.09835449 -0.06849328 0.00625651
v 0.09631011 -0.06911320 0.00625651
v 0.09453008 -0.06963586 0.00625651
v 0.09346383 -0.06993974 0.00625651
v 0.09205391 -0.07004914 0.00625651
v 0.09059112 -0.06997621 0.00625651
v 0.09044131 -0.06996405 0.00625651
v 0.08930456 -0.06977565 0.00625651
v 0.08781534 -0.06947785 0.00599147
v 0.06370569 -0.05944993 0.00599147
v 0.07337246 -0.06402631 0.00599147
v 0.07361039 -0.06390476 0.00654978
v 0.01178536 -0.03200382 0.01011578
v 0.07449158 -0.06340640 0.00795140
v 0.01178536 -0.02719649 0.01278065
v 0.06892240 -0.05204750 0.01193803
v 0.08803564 -0.06467660 0.01101004
v 0.09012408 -0.06680374 0.01059836
v 0.08574451 -0.06256770 0.01122276
v 0.09093479 -0.06785515 0.01026861
v 0.09133132 -0.06785515 0.01026861
v 0.09273243 -0.06777006 0.01018944
v 0.09433622 -0.06695568 0.00990926
v 0.09712963 -0.06769105 0.00803814
v 0.09782578 -0.06629323 0.00841746
v 0.09572852 -0.06800709 0.00837340
v 0.09836331 -0.06825626 0.00664616
v 0.09636298 -0.06851760 0.00723613
v 0.09411592 -0.06935630 0.00695732
v 0.09415998 -0.06825019 0.00880228
v 0.09203628 -0.06832312 0.00936885
v 0.09205391 -0.06947785 0.00730429
v 0.08825593 -0.06805571 0.00849249
v 0.08471351 -0.06840213 0.00599147
v 0.07667696 -0.06554569 0.00599147
v 0.07521417 -0.06423294 0.00718519
v 0.01178536 -0.03095848 0.01119522
v 0.07590151 -0.06375282 0.00825224
v 0.01178536 -0.02869156 0.01255829
v 0.08785059 -0.06467660 0.01099902
v 0.01178536 -0.02970651 0.01224712
v 0.08803564 -0.06615344 0.01049166
v 0.08785059 -0.06609267 0.01048271
v 0.08064236 -0.06566116 0.00805328
v 0.07943512 -0.06612913 0.00666888
v 0.07796352 -0.06586780 0.00626477
v 0.08150594 -0.06727778 0.00599147
v 0.07781371 -0.06595896 0.00599147
v 0.07728499 -0.06512634 0.00701308
v 0.01178536 -0.02891036 0.01249909
v 0.07943512 -0.06654240 0.00599147
f 1 2 8
f 1 8 20
f 1 20 36
f 1 36 50
f 1 50 75
f 1 75 102
f 1 102 126
f 1 126 130
f 1 130 139
f 1 139 128
f 1 128 104
f 1 104 76
f 1 76 53
f 1 53 51
f 1 51 37
f 1 37 22
f 1 22 11
f 1 11 9
f 1 9 3
f 1 3 4
f 1 4 5
f 1 5 6
f 1 6 2
f 2 6 7
f 2 7 8
f 3 9 4
f 4 10 5
f 4 9 11
f 4 11 12
f 4 12 13
f 4 13 14
f 4 14 15
f 4 15 16
f 4 16 10
f 5 10 6
f 6 10 17
f 6 17 18
f 6 18 19
f 6 19 7
f 7 20 8
f 7 19 21
f 7 21 20
f 10 16 17
f 11 22 12
f 12 23 13
f 12 22 23
f 13 23 22
f 13 22 24
f 13 24 25
f 13 25 26
f 13 26 27
f 13 27 28
f 13 28 14
f 14 29 31
f 14 31 15
f 14 28 30
f 14 30 33
f 14 33 29
f 15 31 17
f 15 17 16
f 17 31 18
f 18 31 19
f 19 32 21
f 19 31 29
f 19 29 33
f 19 33 34
f 19 34 32
f 20 21 35
f 20 35 36
f 21 32 36
f 21 36 35
f 22 37 38
f 22 38 39
f 22 39 25
f 22 25 24
f 25 39 40
f 25 40 26
f 26 40 41
f 26 41 42
f 26 42 27
f 27 42 43
f 27 43 44
f 27 44 30
f 27 30 28
f 30 44 45
f 30 45 46
f 30 46 47
f 30 47 33
f 32 34 48
f 32 48 49
f 32 49 71
f 32 71 98
f 32 98 123
f 32 123 136
f 32 136 140
f 32 140 137
f 32 137 124
f 32 124 100
f 32 100 99
f 32 99 72
f 32 72 50
f 32 50 36
f 33 47 34
f 34 47 49
f 34 49 48
f 37 51 38
f 38 52 39
f 38 51 53
f 38 53 54
f 38 54 55
f 38 55 52
f 39 52 40
f 40 52 41
f 41 52 56
f 41 56 42
f 42 57 58
f 42 58 59
f 42 59 43
f 42 56 55
f 42 55 60
f 42 60 61
f 42 61 57
f 43 59 62
f 43 62 63
f 43 63 64
f 43 64 44
f 44 64 65
f 44 65 66
f 44 66 67
f 44 67 68
f 44 68 69
f 44 69 45
f 45 69 46
f 46 69 70
f 46 70 49
f 46 49 47
f 49 70 67
f 49 67 71
f 50 72 73
f 50 73 74
f 50 74 75
f 52 55 56
f 53 76 54
f 54 77 55
f 54 76 77
f 55 77 60
f 57 78 79
f 57 79 80
f 57 80 58
f 57 61 78
f 58 80 59
f 59 80 81
f 59 81 62
f 60 77 61
f 61 77 78
f 62 81 82
f 62 82 83
f 62 83 84
f 62 84 85
f 62 85 63
f 63 85 64
f 64 85 86
f 64 86 65
f 65 86 71
f 65 71 67
f 65 67 66
f 67 70 69
f 67 69 68
f 71 86 87
f 71 87 88
f 71 88 89
f 71 89 90
f 71 90 91
f 71 91 92
f 71 92 93
f 71 93 94
f 71 94 95
f 71 95 96
f 71 96 97
f 71 97 98
f 72 99 73
f 73 99 100
f 73 100 101
f 73 101 74
f 74 101 75
f 75 101 103
f 75 103 102
f 76 104 77
f 77 104 105
f 77 105 78
f 78 106 107
f 78 107 79
f 78 105 108
f 78 108 106
f 79 107 109
f 79 109 110
f 79 110 111
f 79 111 80
f 80 111 112
f 80 112 113
f 80 113 82
f 80 82 81
f 82 113 114
f 82 114 84
f 82 84 83
f 84 87 86
f 84 86 85
f 84 114 87
f 87 114 113
f 87 113 88
f 88 113 89
f 89 113 115
f 89 115 116
f 89 116 90
f 90 116 117
f 90 117 91
f 91 117 118
f 91 118 92
f 92 118 93
f 93 118 119
f 93 119 111
f 93 111 120
f 93 120 121
f 93 121 94
f 94 121 109
f 94 109 95
f 95 109 96
f 96 109 97
f 97 109 98
f 98 109 122
f 98 122 123
f 100 124 101
f 101 124 125
f 101 125 103
f 102 103 126
f 103 125 127
f 103 127 126
f 104 128 108
f 104 108 105
f 106 108 128
f 106 128 129
f 106 129 107
f 107 129 130
f 107 130 131
f 107 131 109
f 109 121 110
f 109 131 132
f 109 132 130
f 109 130 127
f 109 127 133
f 109 133 134
f 109 134 122
f 110 121 120
f 110 120 111
f 111 119 115
f 111 115 113
f 111 113 112
f 115 119 116
f 116 119 117
f 117 119 118
f 122 134 123
f 123 134 135
f 123 135 136
f 124 137 135
f 124 135 125
f 125 135 138
f 125 138 127
f 126 127 130
f 127 138 133
f 128 139 129
f 129 139 130
f 130 132 131
f 133 138 135
f 133 135 134
f 135 137 140
f 135 140 136

