# https://github.com/mikedh/trimesh
v -0.03413319 0.04534727 0.00077461
v -0.03413319 0.04494953 -0.00132749
v -0.03623696 0.04479614 -0.00132749
v -0.03623696 0.04512432 0.00077461
v -0.03413319 0.04499055 0.00287795
v -0.03203170 0.04529020 0.00077461
v -0.03203170 0.04495310 -0.00132749
v -0.03413319 0.04442336 -0.00343082
v -0.03623696 0.04437520 -0.00343082
v -0.03834073 0.04380801 -0.00520885
v -0.03834073 0.04415047 -0.00343082
v -0.03834073 0.04449470 -0.00132749
v -0.03623696 0.04476403 0.00287795
v -0.03834073 0.04480862 0.00077461
v -0.04254372 0.04394000 0.00255635
v -0.03834073 0.04447508 0.00287795
v -0.03623696 0.04395605 0.00456110
v -0.03413319 0.04406307 0.00475949
v -0.03203170 0.04405772 0.00473731
v -0.03203170 0.04491207 0.00287795
v -0.02992793 0.04459459 0.00287795
v -0.02992793 0.04496558 0.00077461
v -0.02828486 0.04470160 -0.00086542
v -0.02828486 0.04467663 -0.00132749
v -0.02992793 0.04484964 -0.00132749
v -0.03203170 0.04438234 -0.00343082
v -0.03623696 0.04389362 -0.00535548
v -0.03834073 0.04370635 -0.00564751
v -0.03885362 0.04361895 -0.00564751
v -0.03959346 0.04369743 -0.00476404
v -0.04044223 0.04449114 0.00077461
v -0.04132958 0.04361538 0.00388464
v -0.03992707 0.04371170 0.00407563
v -0.03834073 0.04381871 0.00428633
v -0.04254372 0.04351015 0.00360740
v -0.04055343 0.04408804 0.00306154
v -0.04394851 0.04375272 0.00214357
v -0.04838299 0.04178360 0.00442310
v -0.04667183 0.04195305 0.00506753
v -0.03623696 0.04275746 0.00694045
v -0.03413319 0.04294831 0.00694045
v -0.03203170 0.04351193 0.00578959
v -0.03182291 0.04289836 0.00694045
v -0.02992793 0.04274497 0.00694045
v -0.02992793 0.04342632 0.00562448
v -0.02992793 0.04397032 0.00457219
v -0.03389944 0.04294474 0.00694045
v -0.02828486 0.04388827 0.00443296
v -0.02828486 0.04433061 0.00287795
v -0.02828486 0.04462491 0.00077461
v -0.02828486 0.04420397 -0.00314372
v -0.02992793 0.04427353 -0.00343082
v -0.03203170 0.04386330 -0.00490204
v -0.03623696 0.04380266 -0.00564751
v -0.03994749 0.04333892 -0.00564751
v -0.04035145 0.04328363 -0.00549226
v -0.04153156 0.04365105 -0.00243275
v -0.04193325 0.04377769 -0.00132749
v -0.04266173 0.04398280 0.00069206
v -0.04044223 0.04412371 -0.00132749
v -0.04394851 0.04375272 0.00133895
v -0.04464749 0.04243106 0.00498128
v -0.04254372 0.04283416 0.00498128
v -0.04254372 0.04191203 0.00674699
v -0.04254372 0.04181036 0.00694045
v -0.04168815 0.04194948 0.00694045
v -0.04043996 0.04215103 0.00694045
v -0.03834073 0.04246851 0.00694045
v -0.03834073 0.04328719 0.00533738
v -0.05000563 0.04158919 0.00217807
v -0.04899119 0.04192986 0.00287918
v -0.04675126 0.04272892 0.00287795
v -0.04732089 0.04143045 0.00582532
v -0.04978550 0.04147504 0.00358029
v -0.04899119 0.04115934 0.00506753
v -0.04891857 0.04017656 0.00694045
v -0.04868482 0.04027288 0.00694045
v -0.04667183 0.04101486 0.00693059
v -0.04591838 0.04158205 0.00612721
v -0.03813421 0.04249705 0.00694045
v -0.03203170 0.04291442 0.00694045
v -0.02977815 0.04273249 0.00694045
v -0.02828486 0.04336032 0.00548401
v -0.02828486 0.04409339 -0.00354295
v -0.03203170 0.04342096 -0.00564751
v -0.03413319 0.04363856 -0.00564751
v -0.02992793 0.04376520 -0.00468887
v -0.04035826 0.04322655 -0.00564751
v -0.04254599 0.04248100 -0.00564751
v -0.04254372 0.04251310 -0.00553292
v -0.04235763 0.04316948 -0.00325215
v -0.04298400 0.04343523 -0.00132749
v -0.04464976 0.04336924 0.00069206
v -0.04344242 0.04358684 -0.00006204
v -0.04675126 0.04268255 0.00077461
v -0.05000563 0.04158919 0.00162852
v -0.04464749 0.04171583 0.00637857
v -0.04464749 0.04142688 0.00694045
v -0.04313832 0.04170334 0.00694045
v -0.05146942 0.04062782 0.00281880
v -0.04668091 0.04100773 0.00694045
v -0.05096560 0.04006776 0.00495910
v -0.05146942 0.04037276 0.00349034
v -0.05146942 0.03989297 0.00468555
v -0.05026889 0.03967180 0.00645127
v -0.04928395 0.03996788 0.00694045
v -0.02828486 0.04260407 0.00694045
v -0.02828486 0.04385795 -0.00406416
v -0.02992793 0.04313024 -0.00564751
v -0.02865251 0.04367424 -0.00453485
v -0.04461799 0.04174436 -0.00564751
v -0.04628376 0.04174436 -0.00343082
v -0.04464749 0.04232582 -0.00343082
v -0.04464749 0.04287161 -0.00132749
v -0.04693281 0.04202796 -0.00149876
v -0.04775435 0.04151784 -0.00231323
v -0.04820370 0.04170512 -0.00091101
v -0.04888453 0.04188170 0.00086703
v -0.04960621 0.04140012 0.00022753
v -0.05014180 0.03955765 -0.00564751
v -0.05146942 0.03885312 -0.00564751
v -0.05146942 0.04060998 0.00089783
v -0.05146942 0.03973779 0.00495910
v -0.05146942 0.03860876 0.00694045
v -0.05077497 0.03906180 0.00694045
v -0.02828486 0.02809790 0.00694045
v -0.02828486 0.04364392 -0.00449049
v -0.02828486 0.04334427 -0.00493531
v -0.02828486 0.04286269 -0.00564751
v -0.04545087 0.04144650 -0.00564751
v -0.04641765 0.04110048 -0.00564751
v -0.04733451 0.04136802 -0.00343082
v -0.04662871 0.04102378 -0.00564751
v -0.04832625 0.04034779 -0.00564751
v -0.04905474 0.04005706 -0.00564751
v -0.05146942 0.03146180 -0.00564751
v -0.05146942 0.02712582 0.00694045
v -0.02828486 0.03099628 -0.00242166
v -0.05146942 0.02783214 0.00077585
v -0.02828486 0.03375910 -0.00564751
v -0.04661509 0.04108977 -0.00542325
v -0.05146942 0.03039341 -0.00406046
v -0.04222147 0.03087678 -0.00564751
v -0.02828486 0.03140651 -0.00298354
v -0.05146942 0.02845997 -0.00104778
v -0.02828486 0.03291010 -0.00471721
v -0.05146942 0.02911278 -0.00207419
f 1 2 3
f 1 3 4
f 1 4 5
f 1 5 6
f 1 6 7
f 1 7 2
f 2 8 9
f 2 9 3
f 2 7 8
f 3 9 10
f 3 10 11
f 3 11 12
f 3 12 4
f 4 13 5
f 4 12 14
f 4 14 15
f 4 15 16
f 4 16 13
f 5 13 17
f 5 17 18
f 5 18 19
f 5 19 20
f 5 20 6
f 6 20 21
f 6 21 22
f 6 22 23
f 6 23 24
f 6 24 25
f 6 25 7
f 7 26 8
f 7 25 26
f 8 27 9
f 8 26 27
f 9 27 28
f 9 28 10
f 10 28 29
f 10 29 30
f 10 30 11
f 11 30 31
f 11 31 12
f 12 31 14
f 13 16 32
f 13 32 33
f 13 33 34
f 13 34 17
f 14 31 15
f 15 35 32
f 15 32 36
f 15 36 16
f 15 31 37
f 15 37 38
f 15 38 39
f 15 39 35
f 16 36 32
f 17 40 18
f 17 34 40
f 18 40 41
f 18 41 19
f 19 42 43
f 19 43 44
f 19 44 45
f 19 45 46
f 19 46 20
f 19 41 47
f 19 47 42
f 20 46 48
f 20 48 21
f 21 48 49
f 21 49 22
f 22 49 50
f 22 50 23
f 23 50 49
f 23 49 48
f 23 48 83
f 23 83 107
f 23 107 126
f 23 126 138
f 23 138 144
f 23 144 146
f 23 146 140
f 23 140 129
f 23 129 128
f 23 128 127
f 23 127 108
f 23 108 84
f 23 84 51
f 23 51 24
f 24 51 25
f 25 52 26
f 25 51 52
f 26 53 54
f 26 54 27
f 26 52 53
f 27 54 28
f 28 54 86
f 28 86 85
f 28 85 109
f 28 109 129
f 28 129 140
f 28 140 143
f 28 143 136
f 28 136 121
f 28 121 120
f 28 120 135
f 28 135 134
f 28 134 133
f 28 133 131
f 28 131 130
f 28 130 111
f 28 111 89
f 28 89 88
f 28 88 55
f 28 55 29
f 29 55 56
f 29 56 30
f 30 56 57
f 30 57 58
f 30 58 59
f 30 59 60
f 30 60 31
f 31 60 59
f 31 59 61
f 31 61 37
f 32 35 62
f 32 62 63
f 32 63 64
f 32 64 65
f 32 65 66
f 32 66 67
f 32 67 68
f 32 68 69
f 32 69 33
f 33 69 34
f 34 69 40
f 35 39 62
f 37 61 96
f 37 96 70
f 37 70 71
f 37 71 72
f 37 72 38
f 38 73 39
f 38 72 71
f 38 71 74
f 38 74 75
f 38 75 76
f 38 76 77
f 38 77 73
f 39 73 78
f 39 78 79
f 39 79 62
f 40 69 80
f 40 80 68
f 40 68 67
f 40 67 66
f 40 66 65
f 40 65 99
f 40 99 98
f 40 98 101
f 40 101 77
f 40 77 76
f 40 76 106
f 40 106 125
f 40 125 124
f 40 124 137
f 40 137 126
f 40 126 107
f 40 107 82
f 40 82 44
f 40 44 43
f 40 43 81
f 40 81 47
f 40 47 41
f 42 47 81
f 42 81 43
f 44 82 45
f 45 82 83
f 45 83 46
f 46 83 48
f 51 84 52
f 52 84 53
f 53 85 86
f 53 86 54
f 53 84 87
f 53 87 85
f 55 88 56
f 56 88 89
f 56 89 90
f 56 90 91
f 56 91 57
f 57 91 92
f 57 92 93
f 57 93 94
f 57 94 61
f 57 61 58
f 58 61 59
f 61 94 93
f 61 93 95
f 61 95 96
f 62 79 97
f 62 97 63
f 63 97 98
f 63 98 99
f 63 99 64
f 64 99 65
f 68 80 69
f 70 74 71
f 70 96 100
f 70 100 74
f 73 101 78
f 73 77 101
f 74 102 75
f 74 100 103
f 74 103 104
f 74 104 102
f 75 102 105
f 75 105 106
f 75 106 76
f 78 98 97
f 78 97 79
f 78 101 98
f 82 107 83
f 84 108 87
f 85 87 109
f 87 110 109
f 87 108 110
f 89 111 90
f 90 111 112
f 90 112 113
f 90 113 114
f 90 114 91
f 91 114 95
f 91 95 92
f 92 95 93
f 95 114 113
f 95 113 115
f 95 115 116
f 95 116 117
f 95 117 118
f 95 118 96
f 96 118 119
f 96 119 120
f 96 120 121
f 96 121 122
f 96 122 100
f 100 122 121
f 100 121 136
f 100 136 142
f 100 142 147
f 100 147 145
f 100 145 139
f 100 139 137
f 100 137 124
f 100 124 123
f 100 123 104
f 100 104 103
f 102 104 123
f 102 123 124
f 102 124 105
f 105 124 125
f 105 125 106
f 108 127 110
f 109 110 128
f 109 128 129
f 110 127 128
f 111 130 112
f 112 130 131
f 112 131 132
f 112 132 116
f 112 116 115
f 112 115 113
f 116 132 133
f 116 133 134
f 116 134 135
f 116 135 117
f 117 135 119
f 117 119 118
f 119 135 120
f 126 137 139
f 126 139 138
f 131 133 141
f 131 141 132
f 132 141 133
f 136 143 142
f 138 139 145
f 138 145 143
f 138 143 144
f 140 146 143
f 142 143 147
f 143 145 147
f 143 146 144

