# https://github.com/mikedh/trimesh
v -0.05559900 0.04651355 -0.00059861
v -0.05559900 0.04521990 -0.00059861
v -0.05559900 0.04651588 -0.00062346
v -0.05622355 0.04651355 -0.00059861
v -0.06732424 0.04058332 -0.00059861
v -0.05559900 0.04058332 -0.02029427
v -0.05622355 0.04651530 -0.00062346
v -0.05559900 0.04650129 -0.00209420
v -0.05622355 0.04651413 -0.00209420
v -0.05769342 0.04654097 -0.00209420
v -0.05916328 0.04654447 -0.00209420
v -0.05769342 0.04648671 -0.00062346
v -0.05769342 0.04648379 -0.00059861
v -0.06891793 0.04058332 -0.00059861
v -0.05559900 0.04058332 -0.02367628
v -0.06063314 0.04651880 -0.00209420
v -0.05622355 0.04638401 -0.00356268
v -0.05769342 0.04641844 -0.00356268
v -0.05916328 0.04645053 -0.00356268
v -0.06063314 0.04648204 -0.00356268
v -0.05559900 0.04635892 -0.00361690
v -0.06210165 0.04647270 -0.00356268
v -0.05916328 0.04643361 -0.00062346
v -0.05916328 0.04642952 -0.00059861
v -0.06916291 0.04058741 -0.00059861
v -0.06916695 0.04058332 -0.00062346
v -0.05637835 0.04058332 -0.02361303
v -0.06063314 0.04202576 -0.02082744
v -0.05916328 0.04204444 -0.02088166
v -0.05769342 0.04203510 -0.02092007
v -0.05622355 0.04201293 -0.02091329
v -0.05559900 0.04200359 -0.02089296
v -0.06210165 0.04645111 -0.00209420
v -0.05769342 0.04626205 -0.00457931
v -0.05916328 0.04628189 -0.00469453
v -0.06063314 0.04630232 -0.00474649
v -0.06210165 0.04630290 -0.00469905
v -0.05559900 0.04623405 -0.00440310
v -0.06290658 0.04626789 -0.00453413
v -0.06299407 0.04633208 -0.00356268
v -0.06070986 0.04633966 -0.00059861
v -0.05950921 0.04640968 -0.00059861
v -0.05919693 0.04642777 -0.00059861
v -0.06906869 0.04089725 -0.00059861
v -0.06907004 0.04089959 -0.00062346
v -0.06913868 0.04097836 -0.00209420
v -0.06925848 0.04058332 -0.00209420
v -0.05957651 0.04058332 -0.02333515
v -0.06063314 0.04058332 -0.02324252
v -0.06210165 0.04193882 -0.02067155
v -0.06210165 0.04308367 -0.01866539
v -0.06210165 0.04344545 -0.01793115
v -0.05769342 0.04341860 -0.01784982
v -0.05622355 0.04340227 -0.01780012
v -0.05559900 0.04339351 -0.01777979
v -0.06297119 0.04630874 -0.00209420
v -0.06287696 0.04623696 -0.00124022
v -0.06210165 0.04628189 -0.00093749
v -0.06101406 0.04631866 -0.00059861
v -0.05559900 0.04538154 -0.00944110
v -0.05622355 0.04537979 -0.00944110
v -0.05559900 0.04525667 -0.01006464
v -0.06210165 0.04375529 -0.01678574
v -0.06310444 0.04341919 -0.01781819
v -0.06358498 0.04352364 -0.01671797
v -0.06439125 0.04332057 -0.01618028
v -0.06455008 0.04339526 -0.01531726
v -0.06528366 0.04299206 -0.01531726
v -0.06581130 0.04330249 -0.01181099
v -0.06590283 0.04336784 -0.01091184
v -0.06602532 0.04346645 -0.00944110
v -0.06544653 0.04452319 -0.00356268
v -0.06557037 0.04457746 -0.00209420
v -0.06492966 0.04517672 -0.00062346
v -0.06492966 0.04517847 -0.00059861
v -0.06854778 0.04163189 -0.00059861
v -0.06854913 0.04163423 -0.00062346
v -0.06927867 0.04058332 -0.00251667
v -0.06860970 0.04171358 -0.00209420
v -0.06919522 0.04097486 -0.00356268
v -0.06184591 0.04058332 -0.02290138
v -0.06296715 0.04184954 -0.02052019
v -0.05622355 0.04373195 -0.01678574
v -0.05559900 0.04372903 -0.01678574
v -0.06354998 0.04576490 -0.00059861
v -0.06210165 0.04613660 -0.00059861
v -0.05559900 0.04507519 -0.01091184
v -0.05559900 0.04496841 -0.01140208
v -0.05559900 0.04483129 -0.01202788
v -0.06350287 0.04213838 -0.01974077
v -0.06394706 0.04168499 -0.02024231
v -0.06448143 0.04194699 -0.01926182
v -0.06408435 0.04313852 -0.01716077
v -0.06613031 0.04206428 -0.01652819
v -0.06711022 0.04170541 -0.01562226
v -0.06657585 0.04217689 -0.01520656
v -0.06725694 0.04182387 -0.01464177
v -0.06731482 0.04188397 -0.01384653
v -0.06676025 0.04285318 -0.00944110
v -0.06611281 0.04355165 -0.00797262
v -0.06740904 0.04197675 -0.01237805
v -0.06566459 0.04463406 -0.00062346
v -0.06618819 0.04363567 -0.00650189
v -0.06626357 0.04371736 -0.00503341
v -0.06565113 0.04464515 -0.00059861
v -0.06853432 0.04164823 -0.00059861
v -0.06781419 0.04245815 -0.00062346
v -0.06933386 0.04058332 -0.00398289
v -0.06861508 0.04171008 -0.00356268
v -0.06715195 0.04319279 -0.00062346
v -0.06922483 0.04091301 -0.00503341
v -0.06934866 0.04058332 -0.00540392
v -0.06356613 0.04058332 -0.02210614
v -0.06350287 0.04129988 -0.02108273
v -0.06488658 0.04058332 -0.02129283
v -0.06498754 0.04058332 -0.02120247
v -0.06503196 0.04058332 -0.02116180
v -0.06513829 0.04058332 -0.02102399
v -0.06601321 0.04058332 -0.01972495
v -0.06657585 0.04151752 -0.01692581
v -0.06751672 0.04058332 -0.01729406
v -0.06768901 0.04058332 -0.01698681
v -0.06763517 0.04072103 -0.01678574
v -0.06778054 0.04058332 -0.01678574
v -0.06804302 0.04058332 -0.01601084
v -0.06818839 0.04058332 -0.01526982
v -0.06831491 0.04058332 -0.01443618
v -0.06847509 0.04058332 -0.01337210
v -0.06861777 0.04058332 -0.01237805
v -0.06880487 0.04058332 -0.01104513
v -0.06891928 0.04058332 -0.01022956
v -0.06897447 0.04064809 -0.00944110
v -0.06907677 0.04075429 -0.00797262
v -0.06684775 0.04292087 -0.00797262
v -0.06749384 0.04205027 -0.01091184
v -0.06917503 0.04084299 -0.00650189
v -0.06839567 0.04148893 -0.00797262
v -0.06847105 0.04157763 -0.00650189
v -0.06566459 0.04463464 -0.00059861
v -0.06633895 0.04378855 -0.00356268
v -0.06640760 0.04384282 -0.00209420
v -0.06714253 0.04316944 -0.00209420
v -0.06781285 0.04245698 -0.00059861
v -0.06716271 0.04317820 -0.00059861
v -0.06781150 0.04232219 -0.00503341
v -0.06854643 0.04164765 -0.00503341
v -0.06715060 0.04319162 -0.00059861
v -0.06713714 0.04320621 -0.00059861
v -0.06930155 0.04058332 -0.00678203
v -0.06901485 0.04058332 -0.00952921
v -0.06917772 0.04058332 -0.00820758
v -0.06757999 0.04211854 -0.00944110
v -0.06766209 0.04218623 -0.00797262
v -0.06773747 0.04225450 -0.00650189
f 1 2 6
f 1 6 15
f 1 15 32
f 1 32 55
f 1 55 84
f 1 84 89
f 1 89 88
f 1 88 87
f 1 87 62
f 1 62 60
f 1 60 38
f 1 38 21
f 1 21 8
f 1 8 3
f 1 3 4
f 1 4 13
f 1 13 24
f 1 24 43
f 1 43 42
f 1 42 41
f 1 41 59
f 1 59 86
f 1 86 85
f 1 85 75
f 1 75 105
f 1 105 139
f 1 139 148
f 1 148 147
f 1 147 144
f 1 144 143
f 1 143 106
f 1 106 76
f 1 76 44
f 1 44 25
f 1 25 14
f 1 14 5
f 1 5 2
f 2 5 6
f 3 7 4
f 3 8 9
f 3 9 10
f 3 10 11
f 3 11 7
f 4 7 12
f 4 12 13
f 5 14 26
f 5 26 47
f 5 47 78
f 5 78 108
f 5 108 112
f 5 112 149
f 5 149 151
f 5 151 150
f 5 150 131
f 5 131 130
f 5 130 129
f 5 129 128
f 5 128 127
f 5 127 126
f 5 126 125
f 5 125 124
f 5 124 122
f 5 122 121
f 5 121 119
f 5 119 118
f 5 118 117
f 5 117 116
f 5 116 115
f 5 115 113
f 5 113 81
f 5 81 49
f 5 49 48
f 5 48 27
f 5 27 15
f 5 15 6
f 7 11 16
f 7 16 12
f 8 17 18
f 8 18 19
f 8 19 20
f 8 20 9
f 8 21 17
f 9 20 10
f 10 20 11
f 11 20 22
f 11 22 16
f 12 16 23
f 12 23 13
f 13 23 24
f 14 25 26
f 15 27 28
f 15 28 29
f 15 29 30
f 15 30 31
f 15 31 32
f 16 22 33
f 16 33 23
f 17 21 34
f 17 34 35
f 17 35 18
f 18 35 19
f 19 35 20
f 20 35 36
f 20 36 37
f 20 37 22
f 21 38 34
f 22 37 39
f 22 39 40
f 22 40 33
f 23 41 42
f 23 42 43
f 23 43 24
f 23 33 41
f 25 44 26
f 26 44 45
f 26 45 46
f 26 46 47
f 27 48 28
f 28 48 49
f 28 49 50
f 28 50 51
f 28 51 29
f 29 51 52
f 29 52 30
f 30 52 53
f 30 53 31
f 31 53 54
f 31 54 55
f 31 55 32
f 33 40 56
f 33 56 57
f 33 57 58
f 33 58 59
f 33 59 41
f 34 38 60
f 34 60 35
f 35 60 36
f 36 60 61
f 36 61 37
f 37 61 62
f 37 62 63
f 37 63 39
f 39 63 64
f 39 64 65
f 39 65 66
f 39 66 67
f 39 67 68
f 39 68 69
f 39 69 70
f 39 70 40
f 40 70 71
f 40 71 72
f 40 72 73
f 40 73 74
f 40 74 75
f 40 75 56
f 44 76 77
f 44 77 45
f 45 77 46
f 46 78 47
f 46 77 79
f 46 79 80
f 46 80 78
f 49 81 50
f 50 81 82
f 50 82 64
f 50 64 51
f 51 64 52
f 52 64 63
f 52 63 83
f 52 83 84
f 52 84 53
f 53 84 54
f 54 84 55
f 56 75 57
f 57 75 85
f 57 85 86
f 57 86 58
f 58 86 59
f 60 62 61
f 62 87 63
f 63 87 88
f 63 88 89
f 63 89 83
f 64 82 90
f 64 90 91
f 64 91 92
f 64 92 93
f 64 93 66
f 64 66 65
f 66 93 94
f 66 94 95
f 66 95 68
f 66 68 67
f 68 95 96
f 68 96 69
f 69 96 97
f 69 97 70
f 70 97 98
f 70 98 71
f 71 99 100
f 71 100 72
f 71 98 101
f 71 101 99
f 72 100 73
f 73 102 74
f 73 100 103
f 73 103 104
f 73 104 102
f 74 102 75
f 75 102 105
f 76 106 77
f 77 106 107
f 77 107 79
f 78 80 108
f 79 109 80
f 79 107 110
f 79 110 109
f 80 109 111
f 80 111 112
f 80 112 108
f 81 113 114
f 81 114 82
f 82 114 91
f 82 91 90
f 83 89 84
f 91 114 113
f 91 113 115
f 91 115 116
f 91 116 117
f 91 117 92
f 92 117 118
f 92 118 119
f 92 119 94
f 92 94 93
f 94 119 120
f 94 120 95
f 95 120 121
f 95 121 122
f 95 122 123
f 95 123 124
f 95 124 125
f 95 125 97
f 95 97 96
f 97 125 126
f 97 126 127
f 97 127 128
f 97 128 129
f 97 129 130
f 97 130 131
f 97 131 132
f 97 132 98
f 98 132 133
f 98 133 101
f 99 134 104
f 99 104 103
f 99 103 100
f 99 101 135
f 99 135 134
f 101 133 136
f 101 136 137
f 101 137 138
f 101 138 135
f 102 139 105
f 102 104 140
f 102 140 141
f 102 141 109
f 102 109 142
f 102 142 139
f 104 134 140
f 106 143 107
f 107 143 144
f 107 144 110
f 109 140 145
f 109 145 146
f 109 146 136
f 109 136 111
f 109 110 139
f 109 139 142
f 109 141 140
f 110 144 147
f 110 147 148
f 110 148 139
f 111 136 149
f 111 149 112
f 119 121 120
f 122 124 123
f 131 150 132
f 132 150 133
f 133 150 151
f 133 151 136
f 134 135 152
f 134 152 153
f 134 153 140
f 135 138 152
f 136 151 149
f 136 146 138
f 136 138 137
f 138 153 152
f 138 146 153
f 140 153 154
f 140 154 145
f 145 154 146
f 146 154 153

