# https://github.com/mikedh/trimesh
v -0.05034477 0.02978271 0.00378433
v -0.04887500 0.02994128 0.00378433
v -0.04800278 0.03003959 0.00455800
v -0.04887500 0.02999202 0.00466452
v -0.05034477 0.02991274 0.00480841
v -0.05124658 0.02993388 0.00475048
v -0.05132096 0.02987997 0.00378433
v -0.05127785 0.02990957 0.00046352
v -0.05124405 0.02993388 -0.00209483
v -0.05122376 0.02994868 -0.00356369
v -0.05120263 0.02996348 -0.00503067
v -0.05116037 0.02999414 -0.00797025
v -0.05113924 0.03000999 -0.00943724
v -0.05111727 0.03002585 -0.01090797
v -0.05068961 0.03002585 -0.01090797
v -0.05034477 0.02984085 0.00046352
v -0.04966187 0.03005862 -0.00845240
v -0.04957397 0.03005016 -0.00747316
v -0.04854285 0.03009668 -0.00356369
v -0.04897220 0.02998462 0.00046352
v -0.04798841 0.03003748 0.00378433
v -0.04593800 0.03035461 -0.00209483
v -0.04725310 0.03011993 0.00378433
v -0.04593800 0.03027533 0.00378433
v -0.04593800 0.03089586 0.00513545
v -0.05034477 0.03078909 0.00538773
v -0.05144351 0.03078909 0.00497287
v -0.05179257 0.03078909 0.00378433
v -0.05128292 0.02990639 0.00084475
v -0.05176214 0.03078909 0.00231547
v -0.05173002 0.03078909 0.00084475
v -0.05166494 0.03078909 -0.00209483
v -0.05153141 0.03078909 -0.00797025
v -0.05146295 0.03078909 -0.01090797
v -0.05109783 0.03004065 -0.01170593
v -0.05088400 0.03004065 -0.01170593
v -0.04995430 0.03007765 -0.01090797
v -0.05050705 0.03000999 -0.00943724
v -0.05034477 0.02991274 -0.00356369
v -0.04887500 0.03018230 -0.01090797
v -0.04593800 0.03049944 -0.01090797
v -0.04593800 0.03033136 -0.00062411
v -0.04593800 0.03031550 0.00046352
v -0.04456880 0.03105126 -0.01090797
v -0.04593800 0.03029224 0.00231547
v -0.04466346 0.03095189 0.00231547
v -0.04467614 0.03094555 0.00378433
v -0.04485532 0.03113583 0.00492802
v -0.04463980 0.03096775 -0.00062411
v -0.04464825 0.03096035 0.00046352
v -0.04593800 0.03225849 0.00575775
v -0.04740777 0.03225849 0.00576149
v -0.04887500 0.03225849 0.00573906
v -0.05034477 0.03225849 0.00569982
v -0.05159733 0.03225849 0.00509434
v -0.05258957 0.03702400 0.00463088
v -0.05210275 0.03225849 0.00378433
v -0.05205204 0.03225849 0.00084475
v -0.05197597 0.03225849 -0.00356369
v -0.05184835 0.03225849 -0.01090797
v -0.05123898 0.03089269 -0.01226843
v -0.05110121 0.03145402 -0.01312807
v -0.05034477 0.03143394 -0.01313367
v -0.05037436 0.03058190 -0.01226843
v -0.04777626 0.03150688 -0.01311872
v -0.04593800 0.03101743 -0.01236374
v -0.05034477 0.02996665 -0.00649953
v -0.04477334 0.03121300 -0.01211706
v -0.04397548 0.03225849 -0.01090797
v -0.04465078 0.03095929 0.00084475
v -0.04464740 0.03096140 0.00046539
v -0.04417833 0.03225849 0.00084475
v -0.04422988 0.03225849 0.00378433
v -0.04472347 0.03225849 0.00512984
v -0.04588813 0.04058121 0.00592407
v -0.04643158 0.04058121 0.00592781
v -0.04480883 0.04058121 0.00550360
v -0.05034477 0.03666458 0.00579700
v -0.05034477 0.03519518 0.00576896
v -0.05034477 0.03372789 0.00573906
v -0.05175369 0.03519518 0.00513919
v -0.05167509 0.03372789 0.00512050
v -0.05195231 0.03658635 0.00509247
v -0.05194386 0.03816358 0.00510368
v -0.05258957 0.03769421 0.00463088
v -0.05260225 0.03689503 0.00378433
v -0.05259042 0.03701237 0.00231547
v -0.05236306 0.03519518 0.00046539
v -0.05232419 0.03666458 -0.01090797
v -0.05148915 0.03225849 -0.01237869
v -0.05155592 0.03372683 -0.01237869
v -0.05169537 0.03666458 -0.01236000
v -0.05111051 0.03225849 -0.01313367
v -0.05034477 0.03225849 -0.01314676
v -0.04887500 0.03147516 -0.01312620
v -0.04593800 0.03225849 -0.01307574
v -0.04396872 0.03848917 -0.01315984
v -0.04457556 0.03225849 -0.01235066
v -0.04396872 0.03830100 -0.01252258
v -0.04396872 0.03927884 -0.00797025
v -0.04396872 0.03931478 -0.00780580
v -0.04396872 0.03963403 -0.00637058
v -0.04396872 0.04058227 -0.00365152
v -0.04403211 0.04058121 0.00231547
v -0.04405578 0.04058121 0.00378433
v -0.04408705 0.04058121 0.00389272
v -0.04453753 0.04058121 0.00533541
v -0.04403211 0.04058227 0.00046352
v -0.05215092 0.04058227 0.00046352
v -0.04887500 0.04058121 0.00589043
v -0.05034477 0.03813398 0.00582316
v -0.05034477 0.03960338 0.00584558
v -0.05034477 0.04058121 0.00584745
v -0.05080286 0.04058121 0.00562320
v -0.05171566 0.03960338 0.00517282
v -0.05183398 0.04058121 0.00470376
v -0.05217544 0.04058121 0.00378433
v -0.05234363 0.03960338 0.00378433
v -0.05250252 0.03853674 0.00378433
v -0.05260225 0.03780204 0.00378433
v -0.05162438 0.04058121 0.00516722
v -0.05259042 0.03771853 0.00231547
v -0.05255577 0.03733902 -0.00173977
v -0.05251604 0.03661701 0.00046352
v -0.05233940 0.03813398 -0.01090797
v -0.05170383 0.03813398 -0.01234505
v -0.05109867 0.03372683 -0.01312433
v -0.04733762 0.04058227 -0.01315984
v -0.04614760 0.03938667 -0.01315984
v -0.04519762 0.03880842 -0.01315984
v -0.04442681 0.03851031 -0.01315984
v -0.04396872 0.04058227 -0.01315984
v -0.05201147 0.04058227 -0.01090797
v -0.05216783 0.04058121 0.00182398
v -0.05217375 0.04058121 0.00231547
v -0.04936605 0.04058121 0.00588109
v -0.05232672 0.03960338 0.00231547
v -0.05217882 0.03960338 -0.00943724
v -0.05216022 0.03960338 -0.01090797
v -0.05257774 0.03762973 0.00084475
v -0.05255577 0.03745530 -0.00173977
v -0.05154155 0.04058227 -0.01231702
v -0.05161508 0.03960338 -0.01232263
v -0.05256506 0.03753353 -0.00062411
v -0.05108515 0.03462327 -0.01311499
v -0.05033886 0.04058227 -0.01302529
f 1 2 3
f 1 3 4
f 1 4 5
f 1 5 6
f 1 6 7
f 1 7 8
f 1 8 9
f 1 9 10
f 1 10 11
f 1 11 12
f 1 12 13
f 1 13 14
f 1 14 15
f 1 15 16
f 1 16 17
f 1 17 18
f 1 18 19
f 1 19 20
f 1 20 2
f 2 21 3
f 2 20 22
f 2 22 21
f 3 21 23
f 3 23 24
f 3 24 25
f 3 25 4
f 4 25 5
f 5 25 26
f 5 26 6
f 6 26 27
f 6 27 28
f 6 28 7
f 7 29 8
f 7 28 29
f 8 29 28
f 8 28 9
f 9 28 10
f 10 28 11
f 11 28 12
f 12 28 13
f 13 28 14
f 14 28 30
f 14 30 31
f 14 31 32
f 14 32 33
f 14 33 34
f 14 34 35
f 14 35 36
f 14 36 15
f 15 36 37
f 15 37 38
f 15 38 39
f 15 39 16
f 16 39 17
f 17 37 40
f 17 40 18
f 17 39 37
f 18 40 19
f 19 22 20
f 19 40 41
f 19 41 22
f 21 22 42
f 21 42 43
f 21 43 23
f 22 41 44
f 22 44 42
f 23 45 24
f 23 43 45
f 24 46 47
f 24 47 48
f 24 48 25
f 24 45 44
f 24 44 49
f 24 49 50
f 24 50 46
f 25 51 26
f 25 48 51
f 26 51 52
f 26 52 53
f 26 53 54
f 26 54 27
f 27 55 56
f 27 56 57
f 27 57 28
f 27 54 55
f 28 57 58
f 28 58 59
f 28 59 60
f 28 60 30
f 30 60 31
f 31 60 32
f 32 60 33
f 33 60 34
f 34 60 61
f 34 61 35
f 35 61 62
f 35 62 63
f 35 63 64
f 35 64 36
f 36 41 40
f 36 40 37
f 36 64 65
f 36 65 66
f 36 66 41
f 37 39 67
f 37 67 38
f 38 67 39
f 41 66 68
f 41 68 44
f 42 44 43
f 43 44 45
f 44 68 69
f 44 69 49
f 46 50 70
f 46 70 71
f 46 71 69
f 46 69 47
f 47 72 73
f 47 73 48
f 47 69 72
f 48 73 74
f 48 74 51
f 49 69 71
f 49 71 50
f 50 71 70
f 51 75 76
f 51 76 52
f 51 74 77
f 51 77 75
f 52 76 78
f 52 78 53
f 53 78 79
f 53 79 80
f 53 80 54
f 54 81 82
f 54 82 55
f 54 80 83
f 54 83 81
f 55 83 56
f 55 82 83
f 56 83 84
f 56 84 85
f 56 85 120
f 56 120 86
f 56 86 57
f 57 86 87
f 57 87 88
f 57 88 58
f 58 88 59
f 59 89 60
f 59 88 89
f 60 89 90
f 60 90 61
f 61 90 62
f 62 90 91
f 62 91 92
f 62 92 93
f 62 93 94
f 62 94 63
f 63 94 95
f 63 95 64
f 64 95 65
f 65 96 66
f 65 95 94
f 65 94 97
f 65 97 96
f 66 96 68
f 68 96 98
f 68 98 69
f 69 98 97
f 69 97 99
f 69 99 100
f 69 100 101
f 69 101 102
f 69 102 103
f 69 103 104
f 69 104 105
f 69 105 72
f 72 105 73
f 73 105 106
f 73 106 107
f 73 107 74
f 74 107 77
f 75 77 108
f 75 108 76
f 76 108 109
f 76 109 110
f 76 110 78
f 77 107 108
f 78 110 111
f 78 111 83
f 78 83 79
f 79 83 80
f 81 83 82
f 83 111 112
f 83 112 84
f 84 112 113
f 84 113 114
f 84 114 115
f 84 115 85
f 85 116 117
f 85 117 118
f 85 118 119
f 85 119 120
f 85 115 121
f 85 121 116
f 86 120 122
f 86 122 87
f 87 122 141
f 87 141 123
f 87 123 124
f 87 124 88
f 88 124 123
f 88 123 89
f 89 123 125
f 89 125 92
f 89 92 91
f 89 91 90
f 92 126 93
f 92 125 126
f 93 126 127
f 93 127 128
f 93 128 94
f 94 128 129
f 94 129 130
f 94 130 131
f 94 131 97
f 96 97 98
f 97 131 130
f 97 130 129
f 97 129 128
f 97 128 132
f 97 132 103
f 97 103 102
f 97 102 101
f 97 101 100
f 97 100 99
f 103 108 104
f 103 132 128
f 103 128 146
f 103 146 142
f 103 142 133
f 103 133 109
f 103 109 108
f 104 108 105
f 105 108 106
f 106 108 107
f 109 133 134
f 109 134 135
f 109 135 117
f 109 117 116
f 109 116 121
f 109 121 114
f 109 114 113
f 109 113 136
f 109 136 110
f 110 136 111
f 111 136 112
f 112 136 113
f 114 121 115
f 117 135 118
f 118 135 137
f 118 137 119
f 119 137 138
f 119 138 139
f 119 139 120
f 120 139 122
f 122 140 141
f 122 139 125
f 122 125 140
f 123 141 125
f 125 139 142
f 125 142 143
f 125 143 126
f 125 141 144
f 125 144 140
f 126 143 145
f 126 145 127
f 127 145 128
f 128 145 146
f 133 142 139
f 133 139 138
f 133 138 137
f 133 137 134
f 134 137 135
f 140 144 141
f 142 146 145
f 142 145 143

