# https://github.com/mikedh/trimesh
v -0.05559900 0.04058332 0.02429233
v -0.05559900 0.04060945 0.02425554
v -0.05653243 0.04058332 0.02436590
v -0.05559900 0.04058332 0.02114844
v -0.05559900 0.04066692 0.02417216
v -0.05622438 0.04068317 0.02419914
v -0.05769424 0.04058332 0.02445418
v -0.06732334 0.04058332 -0.00059635
v -0.05559900 0.04472065 0.00139739
v -0.05559900 0.04183433 0.02219559
v -0.05622438 0.04141752 0.02295826
v -0.05769424 0.04189006 0.02228877
v -0.05769424 0.04071916 0.02425799
v -0.05916277 0.04192721 0.02235008
v -0.05916277 0.04058332 0.02445418
v -0.05916277 0.04074471 0.02427025
v -0.06891801 0.04058332 -0.00059635
v -0.05559900 0.04521989 -0.00059635
v -0.05559900 0.04223140 0.02147460
v -0.05622438 0.04229816 0.02141820
v -0.05769424 0.04237363 0.02141820
v -0.05916277 0.04147906 0.02308578
v -0.06006168 0.04189935 0.02230349
v -0.05916277 0.04243168 0.02141820
v -0.06012807 0.04061467 0.02404219
v -0.06012542 0.04058332 0.02405445
v -0.06916365 0.04058739 -0.00059635
v -0.06906407 0.04058332 0.00058812
v -0.05559900 0.04651385 -0.00059635
v -0.05916277 0.04304876 0.02014789
v -0.05559900 0.04341913 0.01822281
v -0.05810718 0.04330419 0.01929939
v -0.06017985 0.04333438 0.01939503
v -0.06478860 0.04058332 0.01934843
v -0.06897909 0.04079289 0.00084807
v -0.06906805 0.04089738 -0.00059635
v -0.06891934 0.04058332 0.00220421
v -0.06888747 0.04066518 0.00231701
v -0.05622438 0.04651327 -0.00059635
v -0.05559900 0.04642213 0.00084807
v -0.05916277 0.04333960 0.01941465
v -0.05559900 0.04355555 0.01775687
v -0.05622438 0.04344410 0.01830865
v -0.05559900 0.04376918 0.01700891
v -0.05622438 0.04381504 0.01700891
v -0.06065387 0.04341507 0.01847540
v -0.06140939 0.04332161 0.01798249
v -0.05916277 0.04355439 0.01847786
v -0.05916277 0.04381737 0.01700891
v -0.06051579 0.04482224 0.00970343
v -0.06146117 0.04479321 0.00923748
v -0.06605265 0.04058332 0.01762199
v -0.06724898 0.04181401 0.01191788
v -0.06849578 0.04152782 0.00084807
v -0.06854756 0.04163231 -0.00059635
v -0.06883967 0.04058332 0.00307723
v -0.05769291 0.04648367 -0.00059635
v -0.05622438 0.04639775 0.00084807
v -0.05559900 0.04627410 0.00196388
v -0.05916277 0.04642968 -0.00059635
v -0.05769424 0.04386381 0.01700891
v -0.05559900 0.04391083 0.01638602
v -0.05559900 0.04477405 0.01204295
v -0.06481250 0.04509740 0.00378596
v -0.06593049 0.04340636 0.00936010
v -0.06688650 0.04172345 0.01289390
v -0.06624252 0.04071394 0.01700891
v -0.05559900 0.04480656 0.01182714
v -0.05559900 0.04499813 0.01054212
v -0.05627218 0.04485300 0.01124104
v -0.05916277 0.04477463 0.01058136
v -0.06063263 0.04525820 0.00672630
v -0.06063263 0.04503935 0.00819524
v -0.06101503 0.04631822 -0.00059635
v -0.06652268 0.04058332 0.01677839
v -0.06746010 0.04116964 0.01248437
v -0.06742027 0.04081843 0.01407102
v -0.06733396 0.04058332 0.01518438
v -0.06731936 0.04058332 0.01521381
v -0.06604734 0.04353291 0.00819524
v -0.06611904 0.04365482 0.00672630
v -0.06618676 0.04375351 0.00525490
v -0.06625580 0.04383304 0.00378596
v -0.06699140 0.04298723 0.00378596
v -0.06742292 0.04201487 0.00819524
v -0.06853428 0.04164799 -0.00059635
v -0.06769777 0.04233125 0.00231701
v -0.06071495 0.04632867 -0.00050071
v -0.05916277 0.04627468 0.00049984
v -0.05950933 0.04640994 -0.00059635
v -0.06210249 0.04613652 -0.00059635
v -0.06493067 0.04526110 0.00231701
v -0.06070964 0.04633970 -0.00059635
v -0.06554676 0.04456739 0.00378596
v -0.06566493 0.04464112 0.00231701
v -0.06776018 0.04240730 0.00084807
v -0.06781329 0.04245722 -0.00059635
v -0.06354977 0.04576499 -0.00059635
v -0.06497050 0.04525820 0.00084807
v -0.06570477 0.04467246 0.00084807
v -0.06713745 0.04320608 -0.00059635
v -0.06715073 0.04319157 -0.00059635
v -0.06493067 0.04517809 -0.00059635
v -0.06565166 0.04464518 -0.00059635
v -0.06566493 0.04463473 -0.00059635
f 1 2 3
f 1 3 7
f 1 7 15
f 1 15 26
f 1 26 34
f 1 34 52
f 1 52 75
f 1 75 79
f 1 79 78
f 1 78 56
f 1 56 37
f 1 37 28
f 1 28 17
f 1 17 8
f 1 8 4
f 1 4 9
f 1 9 18
f 1 18 29
f 1 29 40
f 1 40 59
f 1 59 69
f 1 69 68
f 1 68 63
f 1 63 62
f 1 62 44
f 1 44 42
f 1 42 31
f 1 31 19
f 1 19 10
f 1 10 5
f 1 5 2
f 2 5 6
f 2 6 3
f 3 6 7
f 4 8 9
f 5 10 11
f 5 11 12
f 5 12 6
f 6 13 7
f 6 12 14
f 6 14 13
f 7 13 16
f 7 16 15
f 8 17 27
f 8 27 36
f 8 36 55
f 8 55 86
f 8 86 97
f 8 97 102
f 8 102 101
f 8 101 105
f 8 105 104
f 8 104 103
f 8 103 98
f 8 98 91
f 8 91 74
f 8 74 93
f 8 93 90
f 8 90 60
f 8 60 57
f 8 57 39
f 8 39 29
f 8 29 18
f 8 18 9
f 10 12 11
f 10 19 20
f 10 20 21
f 10 21 12
f 12 21 14
f 13 14 22
f 13 22 16
f 14 23 22
f 14 21 24
f 14 24 23
f 15 16 25
f 15 25 26
f 16 22 23
f 16 23 25
f 17 28 27
f 19 30 20
f 19 31 32
f 19 32 30
f 20 30 21
f 21 30 24
f 23 24 33
f 23 33 34
f 23 34 25
f 24 30 33
f 25 34 26
f 27 28 35
f 27 35 36
f 28 37 38
f 28 38 35
f 29 39 40
f 30 41 33
f 30 32 41
f 31 42 43
f 31 43 32
f 32 43 42
f 32 42 44
f 32 44 45
f 32 45 41
f 33 46 47
f 33 47 34
f 33 41 48
f 33 48 49
f 33 49 50
f 33 50 51
f 33 51 46
f 34 47 52
f 35 38 53
f 35 53 36
f 36 54 55
f 36 53 54
f 37 56 38
f 38 56 53
f 39 57 40
f 40 58 59
f 40 57 60
f 40 60 58
f 41 45 61
f 41 61 48
f 44 62 45
f 45 62 63
f 45 63 61
f 46 51 64
f 46 64 47
f 47 65 66
f 47 66 67
f 47 67 52
f 47 64 65
f 48 61 49
f 49 61 63
f 49 63 68
f 49 68 69
f 49 69 70
f 49 70 71
f 49 71 50
f 50 71 72
f 50 72 73
f 50 73 51
f 51 73 74
f 51 74 64
f 52 67 75
f 53 76 77
f 53 77 78
f 53 78 79
f 53 79 67
f 53 67 66
f 53 66 65
f 53 65 80
f 53 80 81
f 53 81 82
f 53 82 83
f 53 83 84
f 53 84 85
f 53 85 55
f 53 55 54
f 53 56 76
f 55 85 87
f 55 87 86
f 56 78 77
f 56 77 76
f 58 60 88
f 58 88 59
f 59 88 89
f 59 89 69
f 60 90 88
f 64 74 91
f 64 91 92
f 64 92 80
f 64 80 65
f 67 79 75
f 69 71 70
f 69 89 71
f 71 89 88
f 71 88 72
f 72 88 73
f 73 88 74
f 74 88 93
f 80 92 94
f 80 94 81
f 81 94 95
f 81 95 82
f 82 95 83
f 83 95 96
f 83 96 87
f 83 87 84
f 84 87 85
f 86 87 96
f 86 96 97
f 88 90 93
f 91 98 92
f 92 98 99
f 92 99 100
f 92 100 95
f 92 95 94
f 95 100 101
f 95 101 102
f 95 102 97
f 95 97 96
f 98 103 99
f 99 103 104
f 99 104 105
f 99 105 100
f 100 105 101

