# https://github.com/mikedh/trimesh
v -0.04621609 -0.05615435 0.00016161
v -0.04600683 -0.05601442 0.00016161
v -0.04621609 -0.05408813 0.00016161
v -0.04621609 -0.05569734 -0.00517995
v -0.04609342 -0.05563036 -0.00503194
v -0.04510242 -0.05525671 -0.00062449
v -0.04506795 -0.05528946 0.00016161
v -0.03952686 -0.04094650 0.00016161
v -0.04621609 -0.04094650 -0.03039451
v -0.04621609 -0.05558272 -0.00650219
v -0.04618482 -0.05556188 -0.00650219
v -0.04372978 -0.05370854 -0.00577858
v -0.04368568 -0.05374426 -0.00503194
v -0.04516255 -0.05520758 -0.00169346
v -0.04360149 -0.05381125 -0.00356498
v -0.04353575 -0.05387377 -0.00209474
v -0.04472799 -0.05500662 0.00016161
v -0.03802514 -0.04094650 0.00016161
v -0.04621609 -0.04094650 -0.03343696
v -0.04621609 -0.05553955 -0.00680808
v -0.04215188 -0.05233750 -0.00619630
v -0.04206128 -0.05242533 -0.00503194
v -0.04295125 -0.05316072 -0.00503194
v -0.04621609 -0.05535198 -0.00797243
v -0.04286707 -0.05320984 -0.00356498
v -0.04202761 -0.05247446 -0.00356498
v -0.04350769 -0.05391248 -0.00062449
v -0.04350448 -0.05391843 0.00016161
v -0.03845168 -0.04562676 0.00016161
v -0.03847253 -0.04562676 -0.00062449
v -0.03853667 -0.04562676 -0.00209474
v -0.03854549 -0.04415748 -0.00356498
v -0.03859119 -0.04094650 -0.00677519
v -0.04553137 -0.04094650 -0.03268375
v -0.04596914 -0.04118468 -0.03291399
v -0.04621609 -0.04131717 -0.03304555
v -0.04560033 -0.05484138 -0.00797243
v -0.04473040 -0.05410600 -0.00797243
v -0.04333530 -0.05257568 -0.00944268
v -0.04228418 -0.05221842 -0.00717646
v -0.04187928 -0.05135203 -0.00797243
v -0.04077844 -0.05079528 -0.00438727
v -0.04129318 -0.05152769 -0.00356498
v -0.04621609 -0.05501108 -0.00944268
v -0.04203242 -0.05248785 -0.00209474
v -0.04277326 -0.05322771 -0.00062449
v -0.04316453 -0.05360135 0.00016161
v -0.03874032 -0.04709603 0.00016161
v -0.03874032 -0.04709603 -0.00062449
v -0.03884696 -0.04709603 -0.00209474
v -0.03867858 -0.04562676 -0.00356498
v -0.03867538 -0.04415748 -0.00503194
v -0.03870825 -0.04094650 -0.00797243
v -0.04621609 -0.04166253 -0.03268046
v -0.04473601 -0.04094650 -0.03177265
v -0.04549208 -0.04165062 -0.03188120
v -0.04580638 -0.05466572 -0.00944268
v -0.04420283 -0.05330958 -0.00944268
v -0.04367686 -0.05228689 -0.01185362
v -0.04468951 -0.05267096 -0.01385013
v -0.04239482 -0.05208741 -0.00797243
v -0.04206529 -0.05108407 -0.00944268
v -0.04381156 -0.05215589 -0.01283378
v -0.04395428 -0.05199512 -0.01385013
v -0.04101576 -0.05036060 -0.00650219
v -0.04056917 -0.05008074 -0.00493985
v -0.03929595 -0.04789840 -0.00298939
v -0.03921978 -0.04802047 -0.00209474
v -0.03916526 -0.04809193 -0.00062449
v -0.04077924 -0.05079379 -0.00356498
v -0.04074637 -0.04941234 -0.00750209
v -0.04204124 -0.05249232 0.00016161
v -0.04203643 -0.05249232 -0.00062449
v -0.04621609 -0.05471634 -0.01063335
v -0.04489636 -0.05249083 -0.01532037
v -0.04277005 -0.05322622 0.00016161
v -0.03917649 -0.04807109 0.00016161
v -0.03908669 -0.04715855 -0.00351236
v -0.03917168 -0.04672685 -0.00503194
v -0.03933123 -0.04487649 -0.01016300
v -0.03900170 -0.04415748 -0.00797243
v -0.03883814 -0.04415748 -0.00650219
v -0.03922620 -0.04094650 -0.01277129
v -0.03873471 -0.04094650 -0.00824214
v -0.04621609 -0.04240834 -0.03187133
v -0.04446661 -0.04094650 -0.03146019
v -0.04621609 -0.04273137 -0.03151939
v -0.04621609 -0.04301421 -0.03121021
v -0.04358065 -0.05099773 -0.01532037
v -0.04113282 -0.04995421 -0.00798559
v -0.04369611 -0.05082654 -0.01618871
v -0.04219598 -0.05088162 -0.01042942
v -0.04077924 -0.04638893 -0.01464281
v -0.04506714 -0.05234346 -0.01641237
v -0.04416194 -0.05173312 -0.01532037
v -0.04065657 -0.04962522 -0.00650219
v -0.04046013 -0.04722852 -0.01102147
v -0.03926629 -0.04650058 -0.00609433
v -0.03938896 -0.04841198 0.00016161
v -0.03962388 -0.04882433 -0.00062449
v -0.04079046 -0.05077444 -0.00269336
v -0.04082815 -0.04780611 -0.01158720
v -0.04071670 -0.04800856 -0.01060704
v -0.04173335 -0.05203382 0.00016161
v -0.04621609 -0.05403305 -0.01296206
v -0.03919894 -0.04429592 -0.00958082
v -0.04030619 -0.04562676 -0.01385013
v -0.04052668 -0.04419916 -0.01817864
v -0.04026370 -0.04415748 -0.01678733
v -0.04030218 -0.04268820 -0.01972453
v -0.04007849 -0.04268820 -0.01825429
v -0.04003760 -0.04121743 -0.01972453
v -0.03927190 -0.04094650 -0.01317914
v -0.04426376 -0.04094650 -0.03121350
v -0.04507596 -0.04208679 -0.03090103
v -0.04621609 -0.04387464 -0.03013137
v -0.04445539 -0.05150685 -0.01678733
v -0.04384363 -0.05060176 -0.01716558
v -0.04341388 -0.05008074 -0.01672155
v -0.04217995 -0.04944658 -0.01342912
v -0.04204124 -0.04969221 -0.01237988
v -0.04076320 -0.04494794 -0.01763922
v -0.04056757 -0.04564462 -0.01520854
v -0.04528523 -0.05218567 -0.01738595
v -0.03963591 -0.04880498 0.00016161
v -0.04002958 -0.04943021 0.00016161
v -0.04035831 -0.04998993 -0.00062449
v -0.04037033 -0.04997058 0.00016161
v -0.04621609 -0.05376957 -0.01385013
v -0.04064855 -0.04369451 -0.01972453
v -0.04076561 -0.04346973 -0.02052708
v -0.04061969 -0.04262418 -0.02108953
v -0.04073354 -0.04209275 -0.02213218
v -0.04028775 -0.04121743 -0.02119478
v -0.04025327 -0.04094650 -0.02119478
v -0.04004962 -0.04094650 -0.01999424
v -0.04343232 -0.04094650 -0.03001296
v -0.04401441 -0.04165360 -0.03001296
v -0.04536701 -0.05060772 -0.02025408
v -0.04553699 -0.04306631 -0.03025965
v -0.04621609 -0.05040079 -0.02157303
v -0.04477289 -0.05125527 -0.01825429
v -0.04403846 -0.05031296 -0.01825429
v -0.04370172 -0.04934982 -0.01906342
v -0.04357263 -0.04957907 -0.01825429
v -0.04199393 -0.04683999 -0.01825429
v -0.04216391 -0.04800559 -0.01642553
v -0.04621609 -0.05243873 -0.01787604
v -0.04621609 -0.05230327 -0.01825429
v -0.04562037 -0.05198917 -0.01825429
v -0.04500861 -0.05097987 -0.01927392
v -0.04621609 -0.05354627 -0.01455400
v -0.04621609 -0.05337806 -0.01506382
v -0.04214787 -0.04656459 -0.01929366
v -0.04134850 -0.04403838 -0.02108953
v -0.04216150 -0.04359031 -0.02363861
v -0.04207411 -0.04226692 -0.02531278
v -0.04208694 -0.04094650 -0.02707247
v -0.04204605 -0.04094650 -0.02695078
v -0.04066779 -0.04108047 -0.02263871
v -0.04031581 -0.04094650 -0.02146449
v -0.04337138 -0.04094650 -0.02990114
v -0.04347000 -0.04231902 -0.02828288
v -0.04374421 -0.04194090 -0.02926304
v -0.04621609 -0.05083845 -0.02098427
v -0.04393343 -0.04900446 -0.02004358
v -0.04373539 -0.04635916 -0.02339521
v -0.04352533 -0.04670303 -0.02241505
v -0.04299134 -0.04563717 -0.02267818
v -0.04621609 -0.05173907 -0.01943509
v -0.04621609 -0.05160956 -0.01970151
v -0.04601164 -0.05150536 -0.01963244
v -0.04621609 -0.05122847 -0.02038236
v -0.04384844 -0.04329854 -0.02764149
v -0.04246458 -0.04164318 -0.02707247
v -0.04258965 -0.04094650 -0.02830590
v -0.04069666 -0.04094650 -0.02281633
v -0.04064534 -0.04094650 -0.02264200
v -0.04294083 -0.04126804 -0.02861508
v -0.04355820 -0.04367070 -0.02666133
v -0.04364559 -0.04501642 -0.02503321
v -0.04621609 -0.05151578 -0.01986926
f 1 2 7
f 1 7 17
f 1 17 28
f 1 28 47
f 1 47 76
f 1 76 72
f 1 72 104
f 1 104 128
f 1 128 126
f 1 126 125
f 1 125 99
f 1 99 77
f 1 77 48
f 1 48 29
f 1 29 18
f 1 18 8
f 1 8 3
f 1 3 9
f 1 9 19
f 1 19 36
f 1 36 54
f 1 54 85
f 1 85 87
f 1 87 88
f 1 88 116
f 1 116 141
f 1 141 165
f 1 165 173
f 1 173 182
f 1 182 171
f 1 171 170
f 1 170 149
f 1 149 148
f 1 148 153
f 1 153 152
f 1 152 129
f 1 129 105
f 1 105 74
f 1 74 44
f 1 44 24
f 1 24 20
f 1 20 10
f 1 10 4
f 1 4 5
f 1 5 2
f 2 6 7
f 2 5 6
f 3 8 9
f 4 10 5
f 5 10 11
f 5 11 12
f 5 12 13
f 5 13 14
f 5 14 6
f 6 14 15
f 6 15 16
f 6 16 7
f 7 16 17
f 8 18 33
f 8 33 53
f 8 53 84
f 8 84 83
f 8 83 113
f 8 113 136
f 8 136 135
f 8 135 161
f 8 161 178
f 8 178 177
f 8 177 159
f 8 159 158
f 8 158 176
f 8 176 162
f 8 162 137
f 8 137 114
f 8 114 86
f 8 86 55
f 8 55 34
f 8 34 19
f 8 19 9
f 10 20 11
f 11 20 12
f 12 21 22
f 12 22 23
f 12 23 13
f 12 20 24
f 12 24 21
f 13 23 15
f 13 15 14
f 15 23 25
f 15 25 16
f 16 25 26
f 16 26 27
f 16 27 17
f 17 27 28
f 18 29 30
f 18 30 31
f 18 31 32
f 18 32 33
f 19 34 35
f 19 35 36
f 21 24 37
f 21 37 38
f 21 38 39
f 21 39 40
f 21 40 41
f 21 41 42
f 21 42 22
f 22 42 43
f 22 43 26
f 22 26 25
f 22 25 23
f 24 44 37
f 26 43 45
f 26 45 46
f 26 46 27
f 27 46 28
f 28 46 47
f 29 48 49
f 29 49 30
f 30 49 31
f 31 50 51
f 31 51 52
f 31 52 32
f 31 49 50
f 32 52 33
f 33 52 53
f 34 54 35
f 34 55 56
f 34 56 54
f 35 54 36
f 37 44 57
f 37 57 38
f 38 57 58
f 38 58 39
f 39 59 40
f 39 58 60
f 39 60 59
f 40 61 62
f 40 62 41
f 40 59 63
f 40 63 64
f 40 64 61
f 41 62 65
f 41 65 42
f 42 66 67
f 42 67 68
f 42 68 69
f 42 69 70
f 42 70 43
f 42 65 71
f 42 71 66
f 43 70 72
f 43 72 73
f 43 73 45
f 44 74 75
f 44 75 60
f 44 60 57
f 45 73 76
f 45 76 46
f 46 76 47
f 48 77 69
f 48 69 49
f 49 69 68
f 49 68 50
f 50 68 67
f 50 67 78
f 50 78 79
f 50 79 80
f 50 80 51
f 51 80 81
f 51 81 82
f 51 82 52
f 52 82 83
f 52 83 84
f 52 84 53
f 54 56 85
f 55 86 56
f 56 87 85
f 56 86 88
f 56 88 87
f 57 60 58
f 59 60 75
f 59 75 63
f 61 64 89
f 61 89 62
f 62 90 65
f 62 89 91
f 62 91 92
f 62 92 93
f 62 93 90
f 63 75 94
f 63 94 64
f 64 94 95
f 64 95 89
f 65 90 71
f 66 71 96
f 66 96 67
f 67 96 71
f 67 71 97
f 67 97 98
f 67 98 79
f 67 79 78
f 69 77 99
f 69 99 100
f 69 100 70
f 70 101 72
f 70 100 101
f 71 90 102
f 71 102 93
f 71 93 103
f 71 103 97
f 72 76 73
f 72 101 104
f 74 105 94
f 74 94 75
f 79 98 80
f 80 106 81
f 80 98 107
f 80 107 108
f 80 108 109
f 80 109 110
f 80 110 111
f 80 111 112
f 80 112 106
f 81 83 82
f 81 106 112
f 81 112 113
f 81 113 83
f 86 114 115
f 86 115 88
f 88 115 116
f 89 95 91
f 90 93 102
f 91 95 117
f 91 117 118
f 91 118 119
f 91 119 92
f 92 119 120
f 92 120 121
f 92 121 93
f 93 120 147
f 93 147 122
f 93 122 108
f 93 108 123
f 93 123 97
f 93 97 103
f 93 121 120
f 94 117 95
f 94 105 124
f 94 124 117
f 97 123 107
f 97 107 98
f 99 125 100
f 100 125 126
f 100 126 127
f 100 127 101
f 101 127 128
f 101 128 104
f 105 129 124
f 107 123 108
f 108 122 130
f 108 130 110
f 108 110 109
f 110 130 131
f 110 131 132
f 110 132 133
f 110 133 134
f 110 134 112
f 110 112 111
f 112 134 135
f 112 135 136
f 112 136 113
f 114 137 138
f 114 138 115
f 115 138 139
f 115 139 140
f 115 140 116
f 116 140 139
f 116 139 141
f 117 124 142
f 117 142 118
f 118 142 143
f 118 143 144
f 118 144 145
f 118 145 146
f 118 146 119
f 119 147 120
f 119 146 147
f 122 146 130
f 122 147 146
f 124 148 149
f 124 149 150
f 124 150 151
f 124 151 142
f 124 129 152
f 124 152 153
f 124 153 148
f 126 128 127
f 130 146 154
f 130 154 131
f 131 155 156
f 131 156 157
f 131 157 158
f 131 158 133
f 131 133 132
f 131 154 144
f 131 144 155
f 133 158 159
f 133 159 160
f 133 160 134
f 134 160 161
f 134 161 135
f 137 162 163
f 137 163 164
f 137 164 138
f 138 164 151
f 138 151 139
f 139 151 165
f 139 165 141
f 142 151 143
f 143 151 144
f 144 154 145
f 144 151 166
f 144 166 167
f 144 167 168
f 144 168 169
f 144 169 155
f 145 154 146
f 149 170 150
f 150 170 171
f 150 171 172
f 150 172 151
f 151 172 173
f 151 173 165
f 151 164 174
f 151 174 167
f 151 167 166
f 155 169 156
f 156 169 157
f 157 169 167
f 157 167 175
f 157 175 176
f 157 176 158
f 159 177 160
f 160 177 178
f 160 178 161
f 162 176 179
f 162 179 163
f 163 179 180
f 163 180 164
f 164 180 181
f 164 181 174
f 167 174 181
f 167 181 176
f 167 176 175
f 167 169 168
f 171 182 172
f 172 182 173
f 176 181 179
f 179 181 180

