# https://github.com/mikedh/trimesh
v 0.04340442 0.01779832 -0.01702464
v 0.04269570 0.01779832 -0.02514122
v 0.04243517 0.01779832 -0.01702464
v 0.04794365 0.00735735 -0.01702464
v 0.04173653 0.01779832 -0.02514122
v 0.04795606 0.00732515 -0.01702464
v 0.04835694 0.00625782 -0.01702464
v 0.04837710 0.00619341 -0.01702464
v 0.04858801 0.00532160 -0.01702464
v 0.04859499 0.00529170 -0.01702464
v 0.04842440 0.00426807 -0.01790574
v 0.04830344 0.00306503 -0.01867163
v 0.04845076 0.00119950 -0.01911019
v 0.04839959 -0.00094206 -0.02009855
v 0.04829723 -0.00188287 -0.02070952
v 0.04554299 0.00221622 -0.02514122
v 0.04224597 0.01779832 -0.01769281
v 0.04232894 0.01779142 -0.01702464
v 0.04172490 0.01779832 -0.02498947
v 0.04173653 0.01759130 -0.02514122
v 0.04877954 0.00426807 -0.01702464
v 0.04895400 0.00329276 -0.01702464
v 0.04897494 0.00317314 -0.01702464
v 0.04849729 0.00334106 -0.01812263
v 0.04857948 -0.00188287 -0.02007154
v 0.04839261 -0.00290880 -0.02088669
v 0.04725354 -0.00116749 -0.02270211
v 0.04555462 0.00214722 -0.02514122
v 0.04221883 0.01779832 -0.01782947
v 0.04260886 0.01653777 -0.01702464
v 0.04217851 0.01779832 -0.01808927
v 0.04159773 0.01779832 -0.02191397
v 0.04175048 0.01656537 -0.02212134
v 0.04204979 0.01166808 -0.02514122
v 0.04205909 0.01161057 -0.02514122
v 0.04492267 -0.00570134 -0.02514122
v 0.04165278 0.01779832 -0.02396378
v 0.04166829 0.01759130 -0.02417114
v 0.04174273 0.01662058 -0.02514122
v 0.04907497 0.00247846 -0.01702464
v 0.04921919 0.00047031 -0.01743142
v 0.04873922 -0.00290880 -0.02007154
v 0.04847093 -0.00393242 -0.02099712
v 0.04569807 0.00119260 -0.02514122
v 0.04492577 -0.00570134 -0.02513407
v 0.04854614 -0.00570134 -0.01702464
v 0.04158920 0.01779832 -0.02212134
v 0.04160238 0.01759130 -0.02212134
v 0.04180941 0.01451582 -0.02417114
v 0.04196450 0.01251458 -0.02514122
v 0.04621294 -0.00570134 -0.02514122
v 0.04160626 0.01779832 -0.02314624
v 0.04161014 0.01759130 -0.02314624
v 0.04174428 0.01656537 -0.02514122
v 0.04911064 0.00221622 -0.01702464
v 0.04923082 0.00119260 -0.01702464
v 0.04927347 -0.00021517 -0.01753868
v 0.04910986 -0.00287429 -0.01898864
v 0.04927967 -0.00319173 -0.01860807
v 0.04885553 -0.00393242 -0.02007154
v 0.04849031 -0.00495835 -0.02104400
v 0.04741482 -0.00495835 -0.02297860
v 0.04594155 -0.00184377 -0.02514122
v 0.04570738 0.00110519 -0.02514122
v 0.04948361 -0.00570134 -0.01702464
v 0.04159540 0.01779832 -0.02293887
v 0.04165744 0.01656537 -0.02314624
v 0.04187610 0.01354510 -0.02514122
v 0.04625094 -0.00570134 -0.02508004
v 0.04620441 -0.00556102 -0.02514122
v 0.04169388 0.01656537 -0.02417114
v 0.04177375 0.01559465 -0.02514122
v 0.04933163 0.00024028 -0.01702464
v 0.04933318 0.00014367 -0.01705245
v 0.04932310 -0.00188287 -0.01786283
v 0.04945724 -0.00188287 -0.01702464
v 0.04934171 -0.00287429 -0.01809959
v 0.04950299 -0.00290650 -0.01702464
v 0.04928975 -0.00393242 -0.01870738
v 0.04913855 -0.00393242 -0.01921983
v 0.04933783 0.00014367 -0.01702464
v 0.04888964 -0.00495835 -0.02007154
v 0.04874387 -0.00570134 -0.02034008
v 0.04846395 -0.00570134 -0.02101381
v 0.04741482 -0.00570134 -0.02299290
v 0.04633546 -0.00570134 -0.02493862
v 0.04604235 -0.00319863 -0.02514122
v 0.04948438 -0.00568064 -0.01702464
v 0.04945336 -0.00570134 -0.01727967
v 0.04174118 0.01553945 -0.02417114
v 0.04182337 0.01457103 -0.02514122
v 0.04612455 -0.00438098 -0.02514122
v 0.04177607 0.01553945 -0.02514122
v 0.04933938 0.00011837 -0.01702464
v 0.04951074 -0.00393242 -0.01702464
v 0.04938358 -0.00393242 -0.01802173
v 0.04929053 -0.00495835 -0.01873758
v 0.04915251 -0.00495835 -0.01925002
v 0.04914398 -0.00570134 -0.01919282
v 0.04907109 -0.00570134 -0.01942005
v 0.04885398 -0.00570134 -0.02007154
v 0.04934093 -0.00570134 -0.01821956
v 0.04928433 -0.00570134 -0.01868037
v 0.04924633 -0.00570134 -0.01882179
f 1 2 5
f 1 5 19
f 1 19 37
f 1 37 52
f 1 52 66
f 1 66 47
f 1 47 32
f 1 32 31
f 1 31 29
f 1 29 17
f 1 17 3
f 1 3 18
f 1 18 30
f 1 30 46
f 1 46 65
f 1 65 88
f 1 88 95
f 1 95 78
f 1 78 76
f 1 76 94
f 1 94 81
f 1 81 73
f 1 73 56
f 1 56 55
f 1 55 40
f 1 40 23
f 1 23 22
f 1 22 21
f 1 21 10
f 1 10 9
f 1 9 8
f 1 8 7
f 1 7 6
f 1 6 4
f 1 4 2
f 2 4 6
f 2 6 7
f 2 7 8
f 2 8 9
f 2 9 10
f 2 10 11
f 2 11 12
f 2 12 13
f 2 13 14
f 2 14 15
f 2 15 16
f 2 16 28
f 2 28 44
f 2 44 64
f 2 64 63
f 2 63 87
f 2 87 92
f 2 92 70
f 2 70 51
f 2 51 36
f 2 36 35
f 2 35 34
f 2 34 50
f 2 50 68
f 2 68 91
f 2 91 93
f 2 93 72
f 2 72 54
f 2 54 39
f 2 39 20
f 2 20 5
f 3 17 18
f 5 20 19
f 10 21 11
f 11 21 22
f 11 22 23
f 11 23 24
f 11 24 13
f 11 13 12
f 13 24 25
f 13 25 14
f 14 25 15
f 15 25 26
f 15 26 16
f 16 26 27
f 16 27 28
f 17 29 18
f 18 29 31
f 18 31 32
f 18 32 33
f 18 33 34
f 18 34 35
f 18 35 36
f 18 36 30
f 19 20 38
f 19 38 37
f 20 39 38
f 23 40 41
f 23 41 42
f 23 42 25
f 23 25 24
f 25 42 26
f 26 42 43
f 26 43 27
f 27 43 44
f 27 44 28
f 30 36 45
f 30 45 46
f 32 47 48
f 32 48 34
f 32 34 33
f 34 48 49
f 34 49 50
f 36 51 69
f 36 69 86
f 36 86 85
f 36 85 84
f 36 84 83
f 36 83 101
f 36 101 100
f 36 100 99
f 36 99 104
f 36 104 103
f 36 103 102
f 36 102 89
f 36 89 65
f 36 65 46
f 36 46 45
f 37 38 52
f 38 53 52
f 38 39 53
f 39 54 53
f 40 55 41
f 41 55 56
f 41 56 57
f 41 57 42
f 42 58 59
f 42 59 60
f 42 60 43
f 42 57 58
f 43 60 61
f 43 61 62
f 43 62 63
f 43 63 64
f 43 64 44
f 47 66 67
f 47 67 48
f 48 67 49
f 49 68 50
f 49 67 68
f 51 70 69
f 52 53 66
f 53 54 71
f 53 71 90
f 53 90 67
f 53 67 66
f 54 72 71
f 56 73 57
f 57 73 74
f 57 74 59
f 57 59 58
f 59 75 76
f 59 76 77
f 59 77 78
f 59 78 79
f 59 79 80
f 59 80 60
f 59 74 81
f 59 81 75
f 60 80 82
f 60 82 61
f 61 82 83
f 61 83 84
f 61 84 85
f 61 85 86
f 61 86 62
f 62 86 87
f 62 87 63
f 65 89 88
f 67 90 68
f 68 90 91
f 69 70 92
f 69 92 86
f 71 72 93
f 71 93 90
f 73 81 74
f 75 81 94
f 75 94 76
f 76 78 77
f 78 95 96
f 78 96 79
f 79 96 97
f 79 97 98
f 79 98 80
f 80 98 82
f 82 98 99
f 82 99 100
f 82 100 101
f 82 101 83
f 86 92 87
f 88 89 102
f 88 102 97
f 88 97 95
f 90 93 91
f 95 97 96
f 97 102 103
f 97 103 104
f 97 104 98
f 98 104 99

