# https://github.com/mikedh/trimesh
v 0.05085901 0.03463171 -0.02847260
v 0.05719216 0.03463171 -0.02886658
v 0.05085901 0.03463171 -0.03044737
v 0.05085901 0.01779832 -0.04235600
v 0.05719216 0.03463171 -0.03073434
v 0.05719216 0.01779832 -0.04369521
v 0.05515818 0.03463171 -0.03065166
v 0.05532494 0.03450647 -0.03083973
v 0.05085901 0.03355728 -0.03196979
v 0.05085901 0.01779832 -0.04372115
v 0.05665406 0.03463171 -0.03071327
v 0.05719216 0.03453613 -0.03087864
v 0.05719216 0.01779832 -0.04498416
v 0.05551030 0.03463171 -0.03066625
v 0.05592875 0.03451636 -0.03085270
v 0.05085901 0.03318979 -0.03248213
v 0.05191722 0.01779832 -0.04440049
v 0.05085901 0.02061130 -0.04268513
v 0.05719216 0.03416535 -0.03139098
v 0.05695349 0.03416371 -0.03138612
v 0.05387928 0.03323593 -0.03254699
v 0.05694977 0.01779832 -0.04499876
v 0.05719216 0.01918257 -0.04418972
v 0.05182919 0.03269212 -0.03321659
v 0.05182919 0.03320463 -0.03250321
v 0.05085901 0.03265587 -0.03322308
v 0.05263323 0.01779832 -0.04478312
v 0.05085901 0.02167585 -0.04227493
v 0.05719216 0.03365286 -0.03207356
v 0.05695349 0.03365121 -0.03207680
v 0.05592875 0.03363473 -0.03207518
v 0.05680470 0.01779832 -0.04500200
v 0.05490339 0.01921058 -0.04420755
v 0.05719216 0.01969507 -0.04388815
v 0.05182919 0.03230816 -0.03372893
v 0.05085901 0.03229992 -0.03370785
v 0.05280867 0.01779832 -0.04484960
v 0.05118819 0.02230206 -0.04217117
v 0.05085901 0.02264317 -0.04184204
v 0.05719216 0.03317826 -0.03258590
v 0.05695349 0.03318979 -0.03258914
v 0.05285392 0.03229168 -0.03373217
v 0.05596223 0.01779832 -0.04501335
v 0.05592875 0.01781645 -0.04500362
v 0.05387928 0.01922212 -0.04421404
v 0.05695349 0.02056516 -0.04337743
v 0.05695349 0.01969836 -0.04388977
v 0.05719216 0.02056187 -0.04337581
v 0.05085901 0.03178742 -0.03430450
v 0.05283223 0.01868325 -0.04439724
v 0.05315955 0.01919410 -0.04419944
v 0.05387928 0.01779832 -0.04503443
v 0.05085901 0.02359567 -0.04133780
v 0.05085901 0.02412300 -0.04101354
v 0.05182919 0.02235644 -0.04220521
v 0.05285392 0.02054209 -0.04338067
v 0.05592875 0.03271190 -0.03312742
v 0.05387928 0.03224884 -0.03371434
v 0.05719216 0.02533256 -0.04011046
v 0.05085901 0.03130458 -0.03481846
v 0.05490339 0.01779832 -0.04502470
v 0.05387928 0.01973462 -0.04389950
v 0.05592875 0.02056681 -0.04338392
v 0.05396297 0.01779832 -0.04503443
v 0.05719216 0.02240588 -0.04223764
v 0.05182919 0.02366817 -0.04136537
v 0.05182919 0.02286894 -0.04187771
v 0.05085901 0.02473602 -0.04058551
v 0.05387928 0.02055033 -0.04338716
v 0.05285392 0.02287883 -0.04188419
v 0.05719216 0.02371926 -0.04139780
v 0.05592875 0.02239434 -0.04223116
v 0.05719216 0.02520238 -0.04022395
v 0.05387928 0.02535069 -0.04012830
v 0.05085901 0.03079209 -0.03528054
v 0.05490339 0.02056022 -0.04338878
v 0.05719216 0.02279973 -0.04198634
v 0.05719216 0.02423176 -0.04105083
v 0.05085901 0.02537047 -0.04014127
v 0.05719216 0.02464539 -0.04069900
f 1 2 5
f 1 5 11
f 1 11 14
f 1 14 7
f 1 7 3
f 1 3 9
f 1 9 16
f 1 16 26
f 1 26 36
f 1 36 49
f 1 49 60
f 1 60 75
f 1 75 79
f 1 79 68
f 1 68 54
f 1 54 53
f 1 53 39
f 1 39 28
f 1 28 18
f 1 18 10
f 1 10 4
f 1 4 2
f 2 4 6
f 2 6 13
f 2 13 23
f 2 23 34
f 2 34 48
f 2 48 65
f 2 65 77
f 2 77 71
f 2 71 78
f 2 78 80
f 2 80 73
f 2 73 59
f 2 59 40
f 2 40 29
f 2 29 19
f 2 19 12
f 2 12 5
f 3 7 8
f 3 8 9
f 4 10 17
f 4 17 27
f 4 27 37
f 4 37 52
f 4 52 64
f 4 64 61
f 4 61 43
f 4 43 32
f 4 32 22
f 4 22 13
f 4 13 6
f 5 12 11
f 7 14 12
f 7 12 15
f 7 15 8
f 8 15 9
f 9 15 16
f 10 18 17
f 11 12 14
f 12 19 20
f 12 20 21
f 12 21 15
f 13 22 23
f 15 21 24
f 15 24 25
f 15 25 16
f 16 25 24
f 16 24 26
f 17 18 28
f 17 28 27
f 19 29 30
f 19 30 31
f 19 31 20
f 20 31 21
f 21 31 24
f 22 32 23
f 23 32 33
f 23 33 34
f 24 35 36
f 24 36 26
f 24 31 35
f 27 28 38
f 27 38 37
f 28 39 38
f 29 40 41
f 29 41 42
f 29 42 35
f 29 35 30
f 30 35 31
f 32 43 44
f 32 44 33
f 33 44 45
f 33 45 46
f 33 46 47
f 33 47 34
f 34 47 46
f 34 46 48
f 35 42 49
f 35 49 36
f 37 50 51
f 37 51 52
f 37 38 50
f 38 39 53
f 38 53 54
f 38 54 55
f 38 55 56
f 38 56 51
f 38 51 50
f 40 57 58
f 40 58 41
f 40 59 57
f 41 58 42
f 42 58 60
f 42 60 49
f 43 61 44
f 44 61 45
f 45 56 62
f 45 62 63
f 45 63 46
f 45 61 64
f 45 64 52
f 45 52 51
f 45 51 56
f 46 63 65
f 46 65 48
f 54 66 67
f 54 67 55
f 54 68 66
f 55 67 56
f 56 69 62
f 56 67 70
f 56 70 71
f 56 71 72
f 56 72 69
f 57 59 58
f 58 59 60
f 59 73 74
f 59 74 75
f 59 75 60
f 62 76 63
f 62 69 76
f 63 76 65
f 65 76 69
f 65 69 77
f 66 78 71
f 66 71 70
f 66 70 67
f 66 68 79
f 66 79 78
f 69 72 77
f 71 77 72
f 73 79 74
f 73 80 79
f 74 79 75
f 78 79 80

