# https://github.com/mikedh/trimesh
v 0.06487630 -0.04302938 0.03296959
v 0.06487630 -0.04314207 0.03296959
v 0.06487630 -0.04292752 0.03222674
v 0.06274259 -0.03983157 0.03824114
v 0.06487630 -0.04350293 0.03279360
v 0.06487630 -0.04292752 0.03220628
v 0.06278859 -0.03983157 0.03734890
v 0.06278623 -0.03983157 0.03742462
v 0.06223658 -0.03983157 0.03868111
v 0.06266474 -0.04040264 0.03791371
v 0.06487630 -0.04466567 0.03188499
v 0.06487630 -0.04296328 0.03214489
v 0.06208679 -0.03983157 0.03718723
v 0.06207853 -0.03983157 0.03876502
v 0.06207853 -0.04002229 0.03859107
v 0.06207853 -0.04058253 0.03807947
v 0.06207853 -0.04165424 0.03709719
v 0.06207853 -0.04272488 0.03610878
v 0.06199833 -0.04390387 0.03506102
v 0.06228612 -0.04424088 0.03456988
v 0.06268125 -0.04145919 0.03691711
v 0.06487630 -0.04561168 0.03092113
v 0.06269069 -0.04251465 0.03592051
v 0.06268715 -0.04355819 0.03491163
v 0.06230264 -0.04526817 0.03352621
v 0.06487630 -0.05090091 0.01884324
v 0.06202781 -0.03983157 0.03718723
v 0.06097452 -0.03983157 0.03931959
v 0.06137083 -0.04021626 0.03876911
v 0.06160201 -0.04444244 0.03478475
v 0.06195232 -0.04485531 0.03416878
v 0.06486804 -0.04562469 0.03091499
v 0.06487630 -0.04562144 0.03090886
v 0.06161971 -0.04546973 0.03376564
v 0.06200776 -0.04574822 0.03320288
v 0.06207853 -0.04631930 0.03251529
v 0.06487630 -0.05090091 0.02238761
v 0.05282656 -0.05090091 0.02268025
v 0.05282656 -0.03983157 0.03770702
v 0.06014769 -0.03983157 0.03961018
v 0.06068672 -0.04040264 0.03894101
v 0.06074452 -0.04144835 0.03794440
v 0.06487630 -0.04563335 0.03089249
v 0.06261992 -0.04652735 0.03176630
v 0.06474301 -0.04654903 0.02975059
v 0.06465927 -0.04956262 0.02556364
v 0.06478076 -0.04863828 0.02673214
v 0.06487630 -0.04634964 0.02987337
v 0.06105355 -0.04547081 0.03376769
v 0.06105355 -0.04645150 0.03269946
v 0.06184971 -0.04763808 0.03090681
v 0.06002857 -0.04149170 0.03799147
v 0.06002857 -0.04200426 0.03744918
v 0.06207853 -0.04670399 0.03200164
v 0.06487630 -0.05072861 0.02291968
v 0.06467106 -0.05090091 0.02270685
v 0.05282656 -0.05090091 0.02509501
v 0.05282656 -0.03983157 0.03923569
v 0.06002857 -0.03983157 0.03964906
v 0.06002857 -0.04046983 0.03901672
v 0.06002857 -0.04098239 0.03850512
v 0.06412850 -0.04966231 0.02575396
v 0.06468522 -0.05060183 0.02356021
v 0.06485625 -0.04972191 0.02503157
v 0.06487630 -0.04971541 0.02501520
v 0.06487630 -0.04946943 0.02540197
v 0.06487630 -0.04922669 0.02575396
v 0.06487630 -0.04849090 0.02681809
v 0.05834071 -0.04443052 0.03477452
v 0.05282656 -0.04531043 0.03359374
v 0.05387985 -0.04580674 0.03310261
v 0.06002857 -0.04248539 0.03693757
v 0.06002857 -0.04398731 0.03532296
v 0.05490483 -0.04633880 0.03255008
v 0.05900358 -0.04682319 0.03214284
v 0.06002857 -0.04684053 0.03216330
v 0.06105355 -0.04685028 0.03218582
v 0.06105355 -0.04736284 0.03152278
v 0.06105355 -0.04770093 0.03101118
v 0.06161971 -0.04956912 0.02763256
v 0.05900358 -0.03983157 0.03974729
v 0.06487630 -0.05071236 0.02296265
v 0.06485507 -0.05071886 0.02298107
v 0.06424527 -0.05090091 0.02310181
v 0.05285487 -0.05090091 0.02509911
v 0.05282656 -0.05061916 0.02562298
v 0.05282656 -0.03986299 0.03920908
v 0.05379021 -0.03983157 0.03937894
v 0.06166099 -0.05062458 0.02563936
v 0.06487630 -0.05052705 0.02339854
v 0.06487630 -0.05036993 0.02373006
v 0.06487630 -0.04974359 0.02495995
v 0.05797978 -0.04244530 0.03689460
v 0.05282656 -0.04578290 0.03308009
v 0.05285487 -0.04578290 0.03308214
v 0.05695480 -0.04143643 0.03793622
v 0.05387985 -0.04137575 0.03787073
v 0.05282656 -0.04481196 0.03412990
v 0.05900358 -0.04001145 0.03955493
v 0.05900358 -0.04099973 0.03849284
v 0.05797978 -0.04145594 0.03795873
v 0.05387985 -0.04631930 0.03251938
v 0.05797978 -0.04680043 0.03212033
v 0.06002857 -0.04735308 0.03149003
v 0.05900358 -0.04766951 0.03094160
v 0.05285487 -0.04869029 0.02889724
v 0.05387985 -0.04870655 0.02892793
v 0.05490483 -0.04872172 0.02895658
v 0.05797978 -0.04876940 0.02903844
v 0.05900358 -0.04878565 0.02906504
v 0.06002857 -0.04880082 0.02909165
v 0.06002857 -0.04931338 0.02821988
v 0.06002857 -0.04961355 0.02770623
v 0.06105355 -0.04879757 0.02910188
v 0.06105355 -0.04960055 0.02768576
v 0.06105355 -0.05067226 0.02572531
v 0.05831004 -0.03983157 0.03971864
v 0.06202899 -0.05090091 0.02465299
v 0.05387985 -0.05090091 0.02516459
v 0.05285487 -0.05062025 0.02562298
v 0.05285487 -0.05031900 0.02613663
v 0.05282656 -0.04980535 0.02700636
v 0.05333728 -0.04032896 0.03887143
v 0.05282656 -0.04082310 0.03832299
v 0.05388693 -0.03983157 0.03939122
v 0.06105355 -0.05090091 0.02525463
v 0.06122457 -0.05090091 0.02520142
v 0.05282656 -0.04629546 0.03248254
v 0.05695480 -0.04044707 0.03900035
v 0.05490483 -0.04091954 0.03840485
v 0.05695480 -0.03983157 0.03966134
v 0.05490483 -0.04040698 0.03895328
v 0.05321579 -0.04135949 0.03785437
v 0.05282656 -0.04175069 0.03739392
v 0.05797978 -0.03999086 0.03953446
v 0.05592981 -0.04674517 0.03206712
v 0.05695480 -0.04677334 0.03209373
v 0.05900358 -0.04733575 0.03145320
v 0.05797978 -0.04765109 0.03090476
v 0.05282656 -0.04869029 0.02889519
v 0.05285487 -0.04980644 0.02700636
v 0.05387985 -0.05063650 0.02565163
v 0.05695480 -0.05068418 0.02573144
v 0.05900358 -0.05071561 0.02578465
v 0.06002857 -0.05070911 0.02578261
v 0.06047206 -0.05090091 0.02533240
v 0.05724259 -0.03983157 0.03967362
v 0.05410985 -0.05090091 0.02517687
v 0.05387985 -0.04036363 0.03890826
v 0.05490483 -0.03983157 0.03952014
v 0.05282656 -0.04096180 0.03819407
v 0.05282656 -0.04666064 0.03196890
v 0.05387985 -0.04668882 0.03200573
v 0.05797978 -0.04731299 0.03141636
v 0.05616335 -0.03983157 0.03962042
v 0.05592981 -0.03983157 0.03960609
v 0.05502750 -0.03983157 0.03953446
v 0.05282656 -0.04168133 0.03746555
v 0.05695480 -0.04762833 0.03086383
v 0.05282656 -0.04835978 0.02940679
v 0.05847163 -0.05090091 0.02539379
v 0.05900358 -0.05090091 0.02541630
v 0.05951902 -0.05090091 0.02540811
v 0.06002857 -0.05090091 0.02538969
v 0.05282656 -0.04751780 0.03069603
v 0.05695480 -0.04728590 0.03137748
v 0.05592981 -0.04760232 0.03082291
f 1 2 5
f 1 5 11
f 1 11 22
f 1 22 33
f 1 33 43
f 1 43 48
f 1 48 68
f 1 68 67
f 1 67 66
f 1 66 65
f 1 65 92
f 1 92 91
f 1 91 90
f 1 90 82
f 1 82 55
f 1 55 37
f 1 37 26
f 1 26 12
f 1 12 6
f 1 6 3
f 1 3 4
f 1 4 2
f 2 4 5
f 3 6 7
f 3 7 8
f 3 8 4
f 4 8 7
f 4 7 13
f 4 13 27
f 4 27 39
f 4 39 58
f 4 58 88
f 4 88 125
f 4 125 150
f 4 150 157
f 4 157 156
f 4 156 155
f 4 155 131
f 4 131 147
f 4 147 117
f 4 117 81
f 4 81 59
f 4 59 40
f 4 40 28
f 4 28 14
f 4 14 9
f 4 9 10
f 4 10 5
f 5 10 11
f 6 12 13
f 6 13 7
f 9 14 15
f 9 15 16
f 9 16 17
f 9 17 10
f 10 17 18
f 10 18 19
f 10 19 20
f 10 20 21
f 10 21 11
f 11 21 23
f 11 23 24
f 11 24 25
f 11 25 22
f 12 26 13
f 13 26 27
f 14 28 15
f 15 28 16
f 16 28 29
f 16 29 30
f 16 30 17
f 17 30 18
f 18 30 19
f 19 30 20
f 20 24 23
f 20 23 21
f 20 30 31
f 20 31 25
f 20 25 24
f 22 32 33
f 22 25 32
f 25 31 34
f 25 34 35
f 25 35 36
f 25 36 32
f 26 37 56
f 26 56 84
f 26 84 118
f 26 118 127
f 26 127 126
f 26 126 146
f 26 146 164
f 26 164 163
f 26 163 162
f 26 162 161
f 26 161 148
f 26 148 119
f 26 119 85
f 26 85 57
f 26 57 38
f 26 38 39
f 26 39 27
f 28 40 41
f 28 41 29
f 29 41 30
f 30 34 31
f 30 41 42
f 30 42 34
f 32 43 33
f 32 36 44
f 32 44 45
f 32 45 46
f 32 46 47
f 32 47 48
f 32 48 43
f 34 49 50
f 34 50 51
f 34 51 36
f 34 36 35
f 34 42 52
f 34 52 53
f 34 53 49
f 36 51 54
f 36 54 44
f 37 55 56
f 38 57 86
f 38 86 122
f 38 122 140
f 38 140 160
f 38 160 165
f 38 165 152
f 38 152 128
f 38 128 94
f 38 94 70
f 38 70 98
f 38 98 134
f 38 134 158
f 38 158 151
f 38 151 124
f 38 124 87
f 38 87 58
f 38 58 39
f 40 59 41
f 41 59 42
f 42 59 60
f 42 60 61
f 42 61 52
f 44 54 51
f 44 51 46
f 44 46 45
f 46 62 63
f 46 63 64
f 46 64 65
f 46 65 66
f 46 66 67
f 46 67 68
f 46 68 47
f 46 51 62
f 47 68 48
f 49 69 70
f 49 70 71
f 49 71 50
f 49 53 72
f 49 72 73
f 49 73 69
f 50 71 74
f 50 74 75
f 50 75 76
f 50 76 77
f 50 77 51
f 51 77 78
f 51 78 79
f 51 79 80
f 51 80 62
f 52 61 81
f 52 81 53
f 53 81 72
f 55 82 83
f 55 83 56
f 56 83 63
f 56 63 84
f 57 85 86
f 58 87 88
f 59 81 60
f 60 81 61
f 62 89 63
f 62 80 89
f 63 83 82
f 63 82 90
f 63 90 91
f 63 91 92
f 63 92 65
f 63 65 64
f 63 89 84
f 69 73 93
f 69 93 70
f 70 94 95
f 70 95 71
f 70 93 96
f 70 96 97
f 70 97 98
f 71 95 74
f 72 81 99
f 72 99 100
f 72 100 73
f 73 100 101
f 73 101 93
f 74 102 103
f 74 103 75
f 74 95 102
f 75 103 104
f 75 104 78
f 75 78 76
f 76 78 77
f 78 104 79
f 79 104 105
f 79 105 106
f 79 106 107
f 79 107 108
f 79 108 109
f 79 109 110
f 79 110 111
f 79 111 112
f 79 112 113
f 79 113 114
f 79 114 80
f 80 114 115
f 80 115 116
f 80 116 89
f 81 117 99
f 84 89 118
f 85 119 120
f 85 120 86
f 86 120 121
f 86 121 122
f 87 123 88
f 87 124 123
f 88 123 125
f 89 116 126
f 89 126 127
f 89 127 118
f 93 101 129
f 93 129 96
f 94 128 95
f 95 128 102
f 96 129 97
f 97 129 135
f 97 135 130
f 97 130 131
f 97 131 132
f 97 132 133
f 97 133 98
f 98 133 134
f 99 117 135
f 99 135 100
f 100 135 129
f 100 129 101
f 102 128 136
f 102 136 137
f 102 137 103
f 103 137 138
f 103 138 104
f 104 138 105
f 105 138 139
f 105 139 106
f 106 140 122
f 106 122 141
f 106 141 107
f 106 139 140
f 107 141 121
f 107 121 108
f 108 121 109
f 109 121 110
f 110 121 142
f 110 142 143
f 110 143 144
f 110 144 111
f 111 144 112
f 112 144 113
f 113 144 145
f 113 145 114
f 114 145 115
f 115 145 116
f 116 145 146
f 116 146 126
f 117 147 135
f 119 148 144
f 119 144 143
f 119 143 142
f 119 142 120
f 120 142 121
f 121 141 122
f 123 149 150
f 123 150 125
f 123 124 151
f 123 151 149
f 128 152 153
f 128 153 154
f 128 154 136
f 130 135 131
f 131 135 147
f 131 155 132
f 132 155 156
f 132 156 157
f 132 157 149
f 132 149 133
f 133 149 151
f 133 151 158
f 133 158 134
f 136 154 138
f 136 138 137
f 138 154 139
f 139 154 159
f 139 159 140
f 140 159 160
f 144 148 161
f 144 161 162
f 144 162 145
f 145 162 163
f 145 163 164
f 145 164 146
f 149 157 150
f 152 165 166
f 152 166 154
f 152 154 153
f 154 166 159
f 159 166 167
f 159 167 160
f 160 167 165
f 165 167 166

