# https://github.com/mikedh/trimesh
v 0.04802528 0.01056197 0.00080660
v 0.04701710 0.01056197 0.00080660
v 0.04781201 0.01246659 0.00080660
v 0.04768956 0.01349188 0.00145512
v 0.04779875 0.01246659 0.00145512
v 0.04774466 0.01246659 0.00248174
v 0.04773752 0.01144130 0.00350596
v 0.04773038 0.01056197 0.00438421
v 0.04373845 0.01787063 0.00080660
v 0.03861895 0.01056197 0.02400478
v 0.04768956 0.01349188 0.00080660
v 0.04737017 0.01459801 0.00152212
v 0.04735996 0.01460731 0.00244584
v 0.04764058 0.01349188 0.00248174
v 0.04764568 0.01246659 0.00350596
v 0.04771609 0.01056197 0.00453018
v 0.03965061 0.01787063 0.01580381
v 0.04523032 0.01787063 0.00080660
v 0.03835160 0.01056197 0.02504097
v 0.03794445 0.01279857 0.02525395
v 0.03797915 0.01389183 0.02445467
v 0.04738853 0.01449283 0.00080660
v 0.04721914 0.01503445 0.00190740
v 0.04721914 0.01503445 0.00207970
v 0.04719975 0.01501013 0.00276411
v 0.04732221 0.01430395 0.00350596
v 0.04750997 0.01349188 0.00350596
v 0.04763140 0.01144130 0.00453018
v 0.04761609 0.01056197 0.00541082
v 0.03796384 0.01784273 0.02232247
v 0.03796282 0.01787063 0.02231529
v 0.04547115 0.01758086 0.00080660
v 0.04499052 0.01787063 0.00246498
v 0.03832405 0.01056197 0.02515104
v 0.03830058 0.01056197 0.02525395
v 0.03776179 0.01451573 0.02525395
v 0.03791384 0.01352693 0.02500507
v 0.03789955 0.01553172 0.02395452
v 0.03793425 0.01656630 0.02319114
v 0.04728955 0.01470176 0.00080660
v 0.04658444 0.01606475 0.00080660
v 0.04639464 0.01636382 0.00080660
v 0.04709975 0.01481623 0.00350596
v 0.04638443 0.01631231 0.00145512
v 0.04631912 0.01621357 0.00248174
v 0.04624973 0.01612771 0.00316615
v 0.03859548 0.01787063 0.02525395
v 0.04724874 0.01408143 0.00412815
v 0.04730792 0.01342462 0.00449429
v 0.04748445 0.01246659 0.00453018
v 0.04758650 0.01056197 0.00556876
v 0.03788629 0.01753721 0.02290398
v 0.03786078 0.01787063 0.02292791
v 0.04568135 0.01731899 0.00080660
v 0.04547421 0.01746280 0.00145512
v 0.04498746 0.01787063 0.00248174
v 0.04539563 0.01736478 0.00248174
v 0.03938326 0.01056197 0.02525395
v 0.03765975 0.01554102 0.02525395
v 0.03769547 0.01554102 0.02502900
v 0.04602830 0.01687611 0.00080660
v 0.04598646 0.01682459 0.00145512
v 0.04590789 0.01672657 0.00248174
v 0.04476399 0.01787063 0.00350596
v 0.03762812 0.01787063 0.02525395
v 0.04493134 0.01056197 0.01483224
v 0.04498032 0.01056197 0.01471737
v 0.04501501 0.01056197 0.01462883
v 0.04511808 0.01287942 0.01213528
v 0.04524665 0.01311482 0.01145326
v 0.04623749 0.01407428 0.00722714
v 0.04723037 0.01303897 0.00509255
v 0.04535073 0.01250880 0.01175957
v 0.04531502 0.01056197 0.01373383
v 0.04729874 0.01246659 0.00532707
v 0.04737221 0.01056197 0.00660256
v 0.04738445 0.01056197 0.00654991
v 0.03778118 0.01656630 0.02400478
v 0.03762097 0.01656630 0.02502900
v 0.03771077 0.01759088 0.02400478
v 0.03771383 0.01787063 0.02400478
v 0.03760056 0.01656630 0.02525395
v 0.03763730 0.01787063 0.02502900
v 0.03762506 0.01781482 0.02525395
v 0.04526298 0.01056197 0.01389177
v 0.04509767 0.01082098 0.01414783
v 0.04729670 0.01125599 0.00633693
v 0.03762404 0.01759088 0.02502900
v 0.03761383 0.01759088 0.02525395
f 1 2 9
f 1 9 18
f 1 18 32
f 1 32 54
f 1 54 61
f 1 61 42
f 1 42 41
f 1 41 40
f 1 40 22
f 1 22 11
f 1 11 3
f 1 3 4
f 1 4 5
f 1 5 6
f 1 6 7
f 1 7 8
f 1 8 16
f 1 16 29
f 1 29 51
f 1 51 77
f 1 77 76
f 1 76 74
f 1 74 85
f 1 85 68
f 1 68 67
f 1 67 66
f 1 66 58
f 1 58 35
f 1 35 34
f 1 34 19
f 1 19 10
f 1 10 2
f 2 10 9
f 3 11 4
f 4 12 13
f 4 13 14
f 4 14 5
f 4 11 12
f 5 14 6
f 6 14 15
f 6 15 7
f 7 15 8
f 8 15 16
f 9 17 31
f 9 31 53
f 9 53 81
f 9 81 83
f 9 83 65
f 9 65 47
f 9 47 64
f 9 64 56
f 9 56 33
f 9 33 18
f 9 10 17
f 10 19 20
f 10 20 21
f 10 21 17
f 11 22 12
f 12 23 24
f 12 24 13
f 12 22 23
f 13 24 25
f 13 25 26
f 13 26 14
f 14 26 27
f 14 27 15
f 15 27 28
f 15 28 16
f 16 28 29
f 17 21 30
f 17 30 31
f 18 33 32
f 19 34 20
f 20 34 35
f 20 35 58
f 20 58 47
f 20 47 65
f 20 65 84
f 20 84 89
f 20 89 82
f 20 82 59
f 20 59 36
f 20 36 37
f 20 37 21
f 21 37 38
f 21 38 39
f 21 39 30
f 22 40 23
f 23 40 41
f 23 41 24
f 24 41 42
f 24 42 25
f 25 43 26
f 25 42 44
f 25 44 45
f 25 45 46
f 25 46 47
f 25 47 43
f 26 43 48
f 26 48 27
f 27 48 49
f 27 49 50
f 27 50 29
f 27 29 28
f 29 50 51
f 30 39 52
f 30 52 31
f 31 52 53
f 32 33 55
f 32 55 54
f 33 56 57
f 33 57 55
f 36 59 60
f 36 60 38
f 36 38 37
f 38 60 39
f 39 60 52
f 42 61 44
f 43 47 48
f 44 62 45
f 44 61 62
f 45 63 46
f 45 62 63
f 46 63 57
f 46 57 56
f 46 56 64
f 46 64 47
f 47 58 66
f 47 66 67
f 47 67 68
f 47 68 69
f 47 69 70
f 47 70 71
f 47 71 48
f 48 72 49
f 48 71 70
f 48 70 69
f 48 69 73
f 48 73 74
f 48 74 72
f 49 72 75
f 49 75 76
f 49 76 77
f 49 77 50
f 50 77 51
f 52 60 78
f 52 78 79
f 52 79 80
f 52 80 53
f 53 80 81
f 54 55 62
f 54 62 61
f 55 57 63
f 55 63 62
f 59 82 79
f 59 79 78
f 59 78 60
f 65 83 84
f 68 85 86
f 68 86 69
f 69 86 85
f 69 85 74
f 69 74 73
f 72 87 75
f 72 74 87
f 74 76 87
f 75 87 76
f 79 82 80
f 80 82 88
f 80 88 81
f 81 88 83
f 82 89 88
f 83 88 89
f 83 89 84

