# https://github.com/mikedh/trimesh
v 0.04669255 -0.05148133 0.02237778
v 0.04654031 -0.05141831 0.02237778
v 0.04669255 -0.05010938 0.02237778
v 0.04669255 -0.05130519 0.02274529
v 0.04573836 -0.05099654 0.02237778
v 0.04608284 -0.05062649 0.02358559
v 0.04503986 -0.04962297 0.02464640
v 0.04571598 -0.05075253 0.02290818
v 0.04294475 -0.04653000 0.02237778
v 0.04669255 -0.03497420 0.04136702
v 0.04669255 -0.05121955 0.02291017
v 0.04539938 -0.05045358 0.02320219
v 0.04513671 -0.05059255 0.02251882
v 0.04510296 -0.05062164 0.02237778
v 0.04515176 -0.04648475 0.03069339
v 0.04511397 -0.04753352 0.02868898
v 0.04410915 -0.04855643 0.02560390
v 0.04485314 -0.04977164 0.02400673
v 0.04294475 -0.04836736 0.02237778
v 0.04294475 -0.03497420 0.03820844
v 0.04669255 -0.03497420 0.04144847
v 0.04669255 -0.04665928 0.03128737
v 0.04641264 -0.04640557 0.03161713
v 0.04567856 -0.04658010 0.03088410
v 0.04434100 -0.04938542 0.02400673
v 0.04485534 -0.05041641 0.02237778
v 0.04505234 -0.04558143 0.03190319
v 0.04408531 -0.04653647 0.02871878
v 0.04391325 -0.04673361 0.02810693
v 0.04400056 -0.04765795 0.02681966
v 0.04597168 -0.04556204 0.03285673
v 0.04528823 -0.04534873 0.03258457
v 0.04301922 -0.04658494 0.02674417
v 0.04294475 -0.04690814 0.02605683
v 0.04314212 -0.04747696 0.02548670
v 0.04400716 -0.04867924 0.02503178
v 0.04419206 -0.04949854 0.02334919
v 0.04298327 -0.04841584 0.02237778
v 0.04310874 -0.04853219 0.02249498
v 0.04294475 -0.04778399 0.02400673
v 0.04294475 -0.03497420 0.04041349
v 0.04652563 -0.03497420 0.04265827
v 0.04669255 -0.03497582 0.04267217
v 0.04669255 -0.04620196 0.03205814
v 0.04456479 -0.05015624 0.02237778
v 0.04467998 -0.04489949 0.03215747
v 0.04419096 -0.04538913 0.03059010
v 0.04399799 -0.04562829 0.02990673
v 0.04294475 -0.04615187 0.02723484
v 0.04320999 -0.04635709 0.02742754
v 0.04499034 -0.04466517 0.03297989
v 0.04669255 -0.04563314 0.03294413
v 0.04669255 -0.04517582 0.03344871
v 0.04595224 -0.04456014 0.03386588
v 0.04562023 -0.04495443 0.03325999
v 0.04526915 -0.04434683 0.03366326
v 0.04294475 -0.04667706 0.02644222
v 0.04294475 -0.04645405 0.02679582
v 0.04294475 -0.04729436 0.02531784
v 0.04294475 -0.04747535 0.02484902
v 0.04303170 -0.04760139 0.02480333
v 0.04384538 -0.04887316 0.02400673
v 0.04408274 -0.04961489 0.02266582
v 0.04309149 -0.04855158 0.02237778
v 0.04329913 -0.04879721 0.02237778
v 0.04333288 -0.04825748 0.02400673
v 0.04294475 -0.04770643 0.02421929
v 0.04294475 -0.03498551 0.04040554
v 0.04315386 -0.03497420 0.04073530
v 0.04567856 -0.03497420 0.04258278
v 0.04567856 -0.03565291 0.04220136
v 0.04669255 -0.03588238 0.04215766
v 0.04404055 -0.04966337 0.02237778
v 0.04412162 -0.04445025 0.03173036
v 0.04397268 -0.04465548 0.03118208
v 0.04362564 -0.04493989 0.03016299
v 0.04294475 -0.04567516 0.02791225
v 0.04430725 -0.04419331 0.03241373
v 0.04308416 -0.04139283 0.03378642
v 0.04405963 -0.04350975 0.03284878
v 0.04408274 -0.03629768 0.04100547
v 0.04669255 -0.04465548 0.03396521
v 0.04567856 -0.03616517 0.04188948
v 0.04550430 -0.03822230 0.03984137
v 0.04465393 -0.03649483 0.04119817
v 0.04354456 -0.04908485 0.02237778
v 0.04294475 -0.03530224 0.04016318
v 0.04320852 -0.03502106 0.04078298
v 0.04324117 -0.03497420 0.04086840
v 0.04470823 -0.03497420 0.04237419
v 0.04465393 -0.03543960 0.04208019
v 0.04625893 -0.03621365 0.04193119
v 0.04669255 -0.03659179 0.04161335
v 0.04294475 -0.04261451 0.03201444
v 0.04294475 -0.04472820 0.02919158
v 0.04294475 -0.04511118 0.02867508
v 0.04294475 -0.04220405 0.03254881
v 0.04294475 -0.04158513 0.03332555
v 0.04294475 -0.03643504 0.03912224
v 0.04313845 -0.04235757 0.03269383
v 0.04294475 -0.04166432 0.03323019
v 0.04465393 -0.03595186 0.04171069
v 0.04411649 -0.03524568 0.04197093
v 0.04394150 -0.03563675 0.04138093
v 0.04317514 -0.03613285 0.03980760
v 0.04294475 -0.03547192 0.04003207
v 0.04297740 -0.03544930 0.04009962
v 0.04404825 -0.03497420 0.04206231
v 0.04437769 -0.03497420 0.04223712
v 0.04294475 -0.03594863 0.03962086
f 1 2 5
f 1 5 14
f 1 14 26
f 1 26 45
f 1 45 73
f 1 73 86
f 1 86 65
f 1 65 64
f 1 64 38
f 1 38 19
f 1 19 9
f 1 9 3
f 1 3 10
f 1 10 21
f 1 21 43
f 1 43 72
f 1 72 93
f 1 93 82
f 1 82 53
f 1 53 52
f 1 52 44
f 1 44 22
f 1 22 11
f 1 11 4
f 1 4 2
f 2 4 6
f 2 6 7
f 2 7 8
f 2 8 5
f 3 9 10
f 4 11 6
f 5 8 12
f 5 12 13
f 5 13 14
f 6 11 15
f 6 15 16
f 6 16 7
f 7 17 18
f 7 18 13
f 7 13 12
f 7 12 8
f 7 16 17
f 9 19 40
f 9 40 67
f 9 67 60
f 9 60 59
f 9 59 34
f 9 34 57
f 9 57 58
f 9 58 49
f 9 49 77
f 9 77 96
f 9 96 95
f 9 95 94
f 9 94 97
f 9 97 101
f 9 101 98
f 9 98 99
f 9 99 110
f 9 110 106
f 9 106 87
f 9 87 68
f 9 68 41
f 9 41 20
f 9 20 10
f 10 20 41
f 10 41 69
f 10 69 89
f 10 89 108
f 10 108 109
f 10 109 90
f 10 90 70
f 10 70 42
f 10 42 21
f 11 22 23
f 11 23 24
f 11 24 15
f 13 18 25
f 13 25 14
f 14 25 26
f 15 27 28
f 15 28 29
f 15 29 30
f 15 30 17
f 15 17 16
f 15 24 31
f 15 31 32
f 15 32 27
f 17 30 33
f 17 33 34
f 17 34 35
f 17 35 36
f 17 36 37
f 17 37 25
f 17 25 18
f 19 38 39
f 19 39 40
f 21 42 43
f 22 44 23
f 23 44 31
f 23 31 24
f 25 37 26
f 26 37 45
f 27 46 47
f 27 47 48
f 27 48 49
f 27 49 50
f 27 50 33
f 27 33 28
f 27 32 51
f 27 51 46
f 28 33 29
f 29 33 30
f 31 52 53
f 31 53 54
f 31 54 55
f 31 55 32
f 31 44 52
f 32 55 56
f 32 56 51
f 33 57 34
f 33 50 49
f 33 49 58
f 33 58 57
f 34 59 35
f 35 59 60
f 35 60 61
f 35 61 62
f 35 62 36
f 36 62 37
f 37 63 45
f 37 62 63
f 38 64 39
f 39 64 65
f 39 65 62
f 39 62 66
f 39 66 61
f 39 61 40
f 40 61 67
f 41 68 69
f 42 70 71
f 42 71 43
f 43 71 72
f 45 63 73
f 46 74 75
f 46 75 76
f 46 76 77
f 46 77 47
f 46 51 78
f 46 78 74
f 47 77 48
f 48 77 49
f 51 79 80
f 51 80 78
f 51 56 81
f 51 81 79
f 53 82 54
f 54 56 55
f 54 82 83
f 54 83 84
f 54 84 85
f 54 85 56
f 56 85 81
f 60 67 61
f 61 66 62
f 62 65 86
f 62 86 63
f 63 86 73
f 68 87 69
f 69 87 88
f 69 88 89
f 70 90 71
f 71 90 91
f 71 91 83
f 71 83 92
f 71 92 72
f 72 92 93
f 74 78 94
f 74 94 75
f 75 94 95
f 75 95 76
f 76 95 96
f 76 96 77
f 78 80 97
f 78 97 94
f 79 98 80
f 79 81 99
f 79 99 98
f 80 100 97
f 80 98 101
f 80 101 100
f 81 85 102
f 81 102 103
f 81 103 104
f 81 104 105
f 81 105 99
f 82 93 92
f 82 92 83
f 83 91 102
f 83 102 85
f 83 85 84
f 87 106 107
f 87 107 88
f 88 107 103
f 88 103 89
f 89 103 108
f 90 109 103
f 90 103 91
f 91 103 102
f 97 100 101
f 99 105 110
f 103 109 108
f 103 107 106
f 103 106 104
f 104 106 105
f 105 106 110

