# https://github.com/mikedh/trimesh
v 0.04977922 -0.05700298 0.00453173
v 0.04905651 -0.05683947 0.00350590
v 0.04907456 -0.05681521 0.00248007
v 0.04909914 -0.05679094 0.00145634
v 0.04911719 -0.05677944 0.00094867
v 0.04977922 -0.05696721 0.00350590
v 0.05080336 -0.05698446 0.00350590
v 0.05080336 -0.05700042 0.00453173
v 0.05080336 -0.05696338 0.00555546
v 0.04977922 -0.05696338 0.00555546
v 0.04907858 -0.05683309 0.00555546
v 0.04904898 -0.05685800 0.00453173
v 0.04860462 -0.05655335 0.00094867
v 0.04946025 -0.05681904 0.00094867
v 0.04977922 -0.05691931 0.00248007
v 0.05182850 -0.05691931 0.00145634
v 0.05282656 -0.05693783 0.00145634
v 0.05182850 -0.05696146 0.00248007
v 0.05182850 -0.05698126 0.00350590
v 0.05282656 -0.05695955 0.00248007
v 0.05182850 -0.05696721 0.00453173
v 0.05282656 -0.05695443 0.00350590
v 0.05282656 -0.05692442 0.00453173
v 0.05182850 -0.05691676 0.00555546
v 0.05282656 -0.05679796 0.00655401
v 0.05282656 -0.05674367 0.00718965
v 0.05282656 -0.05674175 0.00720643
v 0.05182850 -0.05682862 0.00658128
v 0.05182850 -0.05675006 0.00721482
v 0.05078731 -0.05681393 0.00665890
v 0.04977922 -0.05681840 0.00644493
v 0.04916083 -0.05677497 0.00626871
v 0.04770286 -0.05586932 0.00883433
v 0.04781169 -0.05600536 0.00760501
v 0.04820841 -0.05629979 0.00094867
v 0.04977922 -0.05684650 0.00094867
v 0.04977922 -0.05687077 0.00145634
v 0.05080336 -0.05689504 0.00145634
v 0.05182850 -0.05689504 0.00094867
v 0.05282656 -0.05691611 0.00094867
v 0.05282656 -0.05686694 0.00555546
v 0.05282656 -0.05619441 0.00965667
v 0.05111782 -0.05673857 0.00715189
v 0.05282656 -0.05597087 0.01065313
v 0.05282656 -0.05596449 0.01068040
v 0.04875408 -0.05592425 0.00965667
v 0.04804391 -0.05571732 0.01024196
v 0.04786486 -0.05579268 0.00965667
v 0.04770286 -0.05574861 0.00965667
v 0.04770286 -0.05593000 0.00781480
v 0.04783477 -0.05604113 0.00094867
v 0.05080336 -0.05687077 0.00094867
v 0.05282656 -0.05600919 0.00094867
v 0.05282656 -0.05577033 0.01144191
v 0.05080336 -0.05607626 0.00965667
v 0.04772894 -0.05506395 0.01272996
v 0.04770286 -0.05506076 0.01272996
v 0.04770286 -0.05592489 0.00094867
v 0.04770286 -0.05445977 0.00094867
v 0.05282656 -0.05105754 0.02237778
v 0.05282656 -0.05491770 0.01475225
v 0.05080336 -0.05502755 0.01375369
v 0.04875408 -0.05487555 0.01375369
v 0.04775853 -0.05478358 0.01381453
v 0.04770286 -0.05478230 0.01380194
v 0.04770286 -0.05047826 0.02237778
v 0.05282656 -0.05231382 0.02237778
v 0.05282656 -0.05472865 0.01548018
v 0.05174725 -0.05480593 0.01487602
v 0.05080336 -0.05478421 0.01469141
v 0.04875408 -0.05470821 0.01439562
v 0.04812014 -0.05468394 0.01430122
v 0.04770286 -0.05380257 0.01685844
v 0.04770286 -0.05179010 0.02237778
v 0.05182850 -0.05223398 0.02237778
v 0.05282656 -0.05271873 0.02162466
v 0.05282656 -0.05406187 0.01785490
v 0.05203513 -0.05469608 0.01537949
v 0.05182850 -0.05396096 0.01785490
v 0.04875408 -0.05393861 0.01682908
v 0.04773546 -0.05379618 0.01689201
v 0.04770286 -0.05379427 0.01688362
v 0.04772894 -0.05179776 0.02237778
v 0.04770286 -0.05198809 0.02195192
v 0.04827511 -0.05186099 0.02237778
v 0.05117099 -0.05263762 0.02146943
v 0.05182850 -0.05240579 0.02204423
v 0.05182850 -0.05267020 0.02153026
v 0.05282656 -0.05272512 0.02160998
v 0.05282656 -0.05378469 0.01873389
v 0.05182850 -0.05371954 0.01857655
v 0.04808152 -0.05366845 0.01739758
v 0.04774700 -0.05276728 0.01996320
v 0.04770286 -0.05276472 0.01994642
v 0.04772894 -0.05199448 0.02195402
v 0.04770286 -0.05244411 0.02078764
v 0.05081891 -0.05277494 0.02099952
v 0.05182850 -0.05290842 0.02092819
v 0.05282656 -0.05300486 0.02092819
v 0.04977922 -0.05274109 0.02076247
v 0.05282656 -0.05377830 0.01875276
v 0.04875408 -0.05290778 0.01990446
v 0.04810108 -0.05264082 0.02046667
v 0.04770286 -0.05273981 0.02001565
v 0.04774700 -0.05242622 0.02085687
v 0.04875408 -0.05267978 0.02058205
f 1 2 3
f 1 3 4
f 1 4 5
f 1 5 6
f 1 6 7
f 1 7 8
f 1 8 9
f 1 9 10
f 1 10 11
f 1 11 12
f 1 12 2
f 2 12 13
f 2 13 3
f 3 13 4
f 4 13 5
f 5 13 35
f 5 35 51
f 5 51 58
f 5 58 59
f 5 59 53
f 5 53 40
f 5 40 39
f 5 39 52
f 5 52 36
f 5 36 14
f 5 14 6
f 6 14 15
f 6 15 16
f 6 16 17
f 6 17 18
f 6 18 7
f 7 19 8
f 7 18 20
f 7 20 19
f 8 21 9
f 8 19 22
f 8 22 21
f 9 21 23
f 9 23 24
f 9 24 25
f 9 25 26
f 9 26 27
f 9 27 28
f 9 28 29
f 9 29 10
f 10 29 30
f 10 30 31
f 10 31 32
f 10 32 11
f 11 32 33
f 11 33 34
f 11 34 12
f 12 35 13
f 12 34 35
f 14 36 37
f 14 37 15
f 15 37 38
f 15 38 16
f 16 38 52
f 16 52 39
f 16 39 40
f 16 40 17
f 17 40 53
f 17 53 60
f 17 60 67
f 17 67 76
f 17 76 89
f 17 89 99
f 17 99 101
f 17 101 90
f 17 90 77
f 17 77 68
f 17 68 61
f 17 61 54
f 17 54 45
f 17 45 44
f 17 44 42
f 17 42 27
f 17 27 26
f 17 26 25
f 17 25 41
f 17 41 23
f 17 23 22
f 17 22 20
f 17 20 18
f 19 20 22
f 21 22 23
f 23 41 24
f 24 41 25
f 27 29 28
f 27 42 29
f 29 43 30
f 29 42 44
f 29 44 45
f 29 45 43
f 30 43 31
f 31 43 46
f 31 46 47
f 31 47 32
f 32 47 48
f 32 48 49
f 32 49 33
f 33 50 34
f 33 49 57
f 33 57 65
f 33 65 73
f 33 73 82
f 33 82 94
f 33 94 104
f 33 104 96
f 33 96 84
f 33 84 74
f 33 74 66
f 33 66 59
f 33 59 58
f 33 58 50
f 34 50 35
f 35 50 51
f 36 52 38
f 36 38 37
f 43 45 54
f 43 54 55
f 43 55 46
f 46 55 56
f 46 56 47
f 47 49 48
f 47 56 57
f 47 57 49
f 50 58 51
f 53 59 60
f 54 61 62
f 54 62 56
f 54 56 55
f 56 62 63
f 56 63 64
f 56 64 65
f 56 65 57
f 59 66 60
f 60 66 74
f 60 74 83
f 60 83 85
f 60 85 75
f 60 75 67
f 61 68 69
f 61 69 70
f 61 70 62
f 62 70 63
f 63 70 71
f 63 71 64
f 64 71 72
f 64 72 65
f 65 72 73
f 67 75 76
f 68 77 78
f 68 78 70
f 68 70 69
f 70 78 71
f 71 78 72
f 72 78 77
f 72 77 79
f 72 79 80
f 72 80 81
f 72 81 73
f 73 81 82
f 74 84 83
f 75 85 86
f 75 86 87
f 75 87 76
f 76 87 86
f 76 86 88
f 76 88 89
f 77 90 79
f 79 90 91
f 79 91 80
f 80 91 92
f 80 92 81
f 81 92 93
f 81 93 82
f 82 93 94
f 83 84 95
f 83 95 86
f 83 86 85
f 84 96 95
f 86 97 98
f 86 98 99
f 86 99 89
f 86 89 88
f 86 95 100
f 86 100 97
f 90 101 100
f 90 100 91
f 91 100 102
f 91 102 92
f 92 102 103
f 92 103 93
f 93 103 104
f 93 104 94
f 95 96 105
f 95 105 103
f 95 103 106
f 95 106 100
f 96 104 105
f 97 100 101
f 97 101 98
f 98 101 99
f 100 106 102
f 102 106 103
f 103 105 104

