# https://github.com/mikedh/trimesh
v 0.04656359 -0.05512417 -0.00370300
v 0.04656359 -0.05508817 -0.00264762
v 0.04612196 -0.05473119 -0.00264762
v 0.04611919 -0.05474019 -0.00367359
v 0.04656359 -0.05506867 -0.00469630
v 0.04616688 -0.05469369 -0.00059566
v 0.04656359 -0.05497117 0.00041071
v 0.04618209 -0.05468019 0.00011337
v 0.04504518 -0.05375025 -0.00059566
v 0.04343347 -0.05235534 0.00042705
v 0.04502445 -0.05376825 -0.00162164
v 0.04393384 -0.05280531 -0.00059566
v 0.04258822 -0.05161439 0.00094657
v 0.04284739 -0.05184237 0.00042705
v 0.04504241 -0.05376525 -0.00264762
v 0.04614822 -0.05471619 -0.00440550
v 0.04656359 -0.05496217 -0.00539554
v 0.04507904 -0.05372175 0.00094657
v 0.04656359 -0.05496817 0.00048260
v 0.04656359 -0.05494868 0.00094657
v 0.04619936 -0.05466219 0.00079627
v 0.04482056 -0.05350427 0.00094657
v 0.04344522 -0.05234634 0.00094657
v 0.04233388 -0.05136840 0.00094657
v 0.04233526 -0.05134590 0.00042705
v 0.04290752 -0.05181687 -0.00059566
v 0.04406239 -0.05271382 -0.00264762
v 0.04656359 -0.05468319 -0.00674826
v 0.04620282 -0.05465769 0.00094657
v 0.04656359 -0.05349677 0.00094657
v 0.04184664 -0.05085544 0.00094657
v 0.04187843 -0.05083294 0.00042705
v 0.04239470 -0.05123191 -0.00059566
v 0.04300566 -0.05172538 -0.00162164
v 0.04391104 -0.05186187 -0.00572228
v 0.04536172 -0.05239884 -0.01084890
v 0.04541424 -0.05336328 -0.00674826
v 0.04656359 -0.05423022 -0.00880675
v 0.04061021 -0.03980264 0.00094657
v 0.04656359 -0.03980264 -0.02993404
v 0.04166694 -0.05044296 0.00094657
v 0.04154669 -0.05006049 0.00042705
v 0.04166487 -0.05006049 -0.00059566
v 0.04185286 -0.05012648 -0.00162491
v 0.04198141 -0.05072044 -0.00059566
v 0.04150245 -0.05006049 0.00094657
v 0.04408727 -0.05166088 -0.00754551
v 0.04307477 -0.05164438 -0.00234701
v 0.04401056 -0.05174938 -0.00674826
v 0.04545986 -0.05228484 -0.01187161
v 0.04614338 -0.05267782 -0.01365564
v 0.04656359 -0.05397674 -0.00988827
v 0.04621457 -0.05259982 -0.01433853
v 0.03954794 -0.03980264 0.00094657
v 0.04656359 -0.03980264 -0.03243364
v 0.04104009 -0.04863258 0.00042705
v 0.04106151 -0.04854258 -0.00014802
v 0.04102074 -0.04871207 0.00094657
v 0.04102972 -0.04761864 -0.00243196
v 0.04171394 -0.04903605 -0.00367359
v 0.04193234 -0.04881406 -0.00572228
v 0.04190331 -0.04987750 -0.00264762
v 0.04205467 -0.05062445 -0.00128182
v 0.04510669 -0.05167588 -0.01266233
v 0.04502928 -0.05177188 -0.01187161
v 0.04656359 -0.05351027 -0.01187161
v 0.04587039 -0.05201636 -0.01494628
v 0.04597751 -0.05186937 -0.01596899
v 0.04631271 -0.05252933 -0.01494628
v 0.03957559 -0.03980264 0.00043685
v 0.03957490 -0.03981164 0.00042705
v 0.03954725 -0.03981164 0.00094657
v 0.04652696 -0.03980264 -0.03237482
v 0.04656359 -0.04069958 -0.03148608
v 0.04609017 -0.04047159 -0.03098943
v 0.04409073 -0.04244697 -0.02578439
v 0.04085141 -0.04801011 0.00094657
v 0.04079612 -0.04698718 -0.00162164
v 0.04099309 -0.04777913 -0.00162164
v 0.04071042 -0.04596125 -0.00367359
v 0.04064200 -0.04493681 -0.00572228
v 0.04081478 -0.04596125 -0.00469630
v 0.04075604 -0.04493681 -0.00674826
v 0.04101590 -0.04663470 -0.00469630
v 0.04105529 -0.04650871 -0.00529098
v 0.04176647 -0.04596125 -0.01187161
v 0.04168629 -0.04698718 -0.00879695
v 0.04176508 -0.04801011 -0.00674826
v 0.04196620 -0.04774463 -0.00879695
v 0.04203324 -0.04760514 -0.00961054
v 0.04200491 -0.04969451 -0.00367359
v 0.04310034 -0.05059745 -0.00630715
v 0.04493598 -0.05096043 -0.01392357
v 0.04535757 -0.05128891 -0.01494628
v 0.04656359 -0.05269882 -0.01494628
v 0.04608947 -0.05172088 -0.01669109
v 0.04512189 -0.05064695 -0.01561284
v 0.04654769 -0.05238234 -0.01596899
v 0.03957628 -0.03980264 0.00042705
v 0.03953412 -0.04083607 0.00042705
v 0.03950371 -0.04083607 0.00094657
v 0.03965092 -0.03980264 -0.00059566
v 0.03965023 -0.03981164 -0.00059566
v 0.04620351 -0.03980264 -0.03185203
v 0.04656359 -0.04133254 -0.03081625
v 0.04499334 -0.04262696 -0.02699988
v 0.04612887 -0.04348640 -0.02785268
v 0.04523317 -0.04331091 -0.02663066
v 0.04433401 -0.04312943 -0.02537922
v 0.04395527 -0.04282794 -0.02510149
v 0.04346111 -0.04280695 -0.02410492
v 0.04352953 -0.04186201 -0.02519625
v 0.04396425 -0.04180051 -0.02616341
v 0.04410455 -0.04141653 -0.02680383
v 0.04520483 -0.04026011 -0.02976414
v 0.04001515 -0.04453334 0.00094657
v 0.04063025 -0.04596125 -0.00264762
v 0.04002413 -0.04449584 0.00070805
v 0.04002828 -0.04346240 -0.00232414
v 0.04060952 -0.04391237 -0.00777097
v 0.04073668 -0.04391237 -0.00879695
v 0.04096683 -0.04474182 -0.00879695
v 0.04091569 -0.04500431 -0.00779384
v 0.04094471 -0.04599874 -0.00567000
v 0.04103871 -0.04553677 -0.00746710
v 0.04102281 -0.04456333 -0.00956806
v 0.04194754 -0.04601374 -0.01291719
v 0.04205674 -0.04654321 -0.01258718
v 0.04208508 -0.04853358 -0.00729065
v 0.04202979 -0.04863108 -0.00674826
v 0.04289024 -0.04787962 -0.01289759
v 0.04206987 -0.04958502 -0.00428787
v 0.04304298 -0.04967051 -0.00862704
v 0.04407483 -0.05068445 -0.01064632
v 0.04409004 -0.04963301 -0.01364910
v 0.04504518 -0.05077594 -0.01494628
v 0.04305818 -0.04861908 -0.01162982
v 0.04656359 -0.05239284 -0.01596899
v 0.04513433 -0.04960601 -0.01761251
v 0.04524837 -0.04942003 -0.01829541
v 0.04517235 -0.04851708 -0.01954684
v 0.04628437 -0.05150189 -0.01737399
v 0.04656359 -0.05162339 -0.01756350
v 0.04656359 -0.05199386 -0.01686427
v 0.04656359 -0.05238834 -0.01598206
v 0.04301050 -0.04767864 -0.01392357
v 0.04308929 -0.04754664 -0.01452478
v 0.04504241 -0.04977400 -0.01699496
v 0.03972764 -0.03981164 -0.00162164
v 0.03988383 -0.03981164 -0.00367359
v 0.03996884 -0.03980264 -0.00469630
v 0.03996884 -0.03981164 -0.00469630
v 0.04002759 -0.03981164 -0.00535306
v 0.03962673 -0.04083607 -0.00059566
v 0.03977049 -0.04186201 -0.00162164
v 0.03968271 -0.04186201 -0.00059566
v 0.03959909 -0.04186201 0.00042705
v 0.03956384 -0.04186201 0.00094657
v 0.03980643 -0.03980264 -0.00264762
v 0.04511360 -0.03980264 -0.02992097
v 0.04656359 -0.04198950 -0.03012029
v 0.04656359 -0.04265546 -0.02941452
v 0.04634865 -0.04316692 -0.02853558
v 0.04656359 -0.04332441 -0.02870222
v 0.04656359 -0.04381338 -0.02817289
v 0.04656359 -0.04402637 -0.02791803
v 0.04656359 -0.04429185 -0.02759782
v 0.04501753 -0.04358539 -0.02594776
v 0.04413220 -0.04340991 -0.02469633
v 0.04399121 -0.04360489 -0.02417027
v 0.04402438 -0.04459933 -0.02286983
v 0.04392140 -0.04493831 -0.02206277
v 0.04309965 -0.04241247 -0.02371936
v 0.04363666 -0.04083607 -0.02621896
v 0.04399743 -0.04083607 -0.02701622
v 0.04321092 -0.04186201 -0.02444474
v 0.03996884 -0.04430985 0.00094657
v 0.03989558 -0.04394987 0.00094657
v 0.03969792 -0.04288644 0.00094657
v 0.03973386 -0.04288644 0.00042705
v 0.03980573 -0.04288644 -0.00059566
v 0.03988107 -0.04288644 -0.00162164
v 0.03997160 -0.04294194 -0.00265742
v 0.04055699 -0.04288644 -0.00879695
v 0.04001169 -0.04259546 -0.00367359
v 0.04069176 -0.04288644 -0.00982292
v 0.04105529 -0.04344590 -0.01142724
v 0.04092398 -0.04397987 -0.00987520
v 0.04183212 -0.04493681 -0.01392357
v 0.04202357 -0.04567476 -0.01392357
v 0.04207540 -0.04549178 -0.01451171
v 0.04214728 -0.04639022 -0.01327008
v 0.04494566 -0.04906155 -0.01798173
v 0.04401747 -0.04567176 -0.02109561
v 0.04410939 -0.04550228 -0.02168375
v 0.04619936 -0.05056595 -0.01852413
v 0.04420891 -0.04434585 -0.02355273
v 0.04510116 -0.04758264 -0.02069698
v 0.04656359 -0.05018198 -0.01965140
v 0.04656359 -0.05046696 -0.01925277
v 0.04290545 -0.04700668 -0.01489726
v 0.04310518 -0.04649371 -0.01651792
v 0.03988452 -0.03980264 -0.00367359
v 0.04002759 -0.03980264 -0.00535306
v 0.04064062 -0.03980264 -0.01187161
v 0.03995986 -0.04186201 -0.00367359
v 0.03991493 -0.04083607 -0.00367359
v 0.03986379 -0.04186201 -0.00264762
v 0.04003795 -0.04240647 -0.00422252
v 0.04408451 -0.03980264 -0.02788536
v 0.04656359 -0.04473132 -0.02702602
v 0.04617517 -0.04444334 -0.02675809
v 0.04536102 -0.04520529 -0.02435325
v 0.04530090 -0.04733066 -0.02137987
v 0.04502790 -0.04664670 -0.02184058
v 0.04471136 -0.04383888 -0.02509823
v 0.04305888 -0.04351490 -0.02182098
v 0.04336643 -0.04387788 -0.02214446
v 0.04305749 -0.04186201 -0.02393175
v 0.04307546 -0.04060959 -0.02488257
v 0.04314319 -0.03980264 -0.02567003
v 0.04208646 -0.04341591 -0.01753082
v 0.04205674 -0.04249197 -0.01869730
v 0.04198832 -0.04186351 -0.01904365
v 0.04205398 -0.04152453 -0.01971348
v 0.04332911 -0.03980264 -0.02616995
v 0.04381082 -0.03980264 -0.02732009
v 0.04383847 -0.03988363 -0.02732662
v 0.04389445 -0.03980264 -0.02749980
v 0.04318466 -0.04012062 -0.02556547
v 0.04332150 -0.03980264 -0.02615034
v 0.04056805 -0.04186201 -0.00982292
v 0.04069729 -0.04186201 -0.01084890
v 0.04084934 -0.04186201 -0.01187161
v 0.04104285 -0.04249047 -0.01253817
v 0.04180724 -0.04186201 -0.01802094
v 0.04185631 -0.04288644 -0.01699496
v 0.04175610 -0.04391237 -0.01494628
v 0.04199730 -0.04492331 -0.01489073
v 0.04303745 -0.04456933 -0.01982457
v 0.04293516 -0.04596425 -0.01691328
v 0.04399328 -0.04674420 -0.01904365
v 0.04409350 -0.04656121 -0.01971674
v 0.04612541 -0.04963001 -0.01966773
v 0.04656359 -0.04949202 -0.02059242
v 0.04075396 -0.03980264 -0.01289759
v 0.04059846 -0.04083607 -0.01084890
v 0.04002482 -0.04186201 -0.00436302
v 0.04656359 -0.04644272 -0.02471594
v 0.04656359 -0.04676220 -0.02428463
v 0.04656359 -0.04736216 -0.02347431
v 0.04302777 -0.03980264 -0.02520932
v 0.04201251 -0.04285494 -0.01792945
v 0.04182659 -0.04083607 -0.01904365
v 0.04072355 -0.04083607 -0.01187161
v 0.04088942 -0.03981164 -0.01392357
v 0.04086662 -0.04083607 -0.01289759
v 0.04101037 -0.04078657 -0.01389089
v 0.04104838 -0.04147953 -0.01352494
v 0.04100000 -0.04183651 -0.01288779
v 0.04164828 -0.04083607 -0.01802094
v 0.04088735 -0.03980264 -0.01391376
v 0.04075465 -0.03981164 -0.01289759
v 0.04171670 -0.03981164 -0.01904365
v 0.04171601 -0.03980264 -0.01904365
v 0.04088873 -0.03980264 -0.01392357
v 0.04090670 -0.03980264 -0.01404773
v 0.04102419 -0.03980264 -0.01485479
v 0.04105460 -0.04041160 -0.01451497
f 1 2 3
f 1 3 4
f 1 4 5
f 1 5 17
f 1 17 28
f 1 28 38
f 1 38 52
f 1 52 66
f 1 66 95
f 1 95 138
f 1 138 145
f 1 145 144
f 1 144 143
f 1 143 200
f 1 200 199
f 1 199 245
f 1 245 251
f 1 251 250
f 1 250 249
f 1 249 211
f 1 211 167
f 1 167 166
f 1 166 165
f 1 165 164
f 1 164 162
f 1 162 161
f 1 161 105
f 1 105 74
f 1 74 55
f 1 55 40
f 1 40 30
f 1 30 20
f 1 20 19
f 1 19 7
f 1 7 2
f 2 6 3
f 2 7 8
f 2 8 6
f 3 6 9
f 3 9 10
f 3 10 11
f 3 11 4
f 4 11 12
f 4 12 13
f 4 13 14
f 4 14 15
f 4 15 16
f 4 16 5
f 5 16 17
f 6 8 18
f 6 18 9
f 7 19 8
f 8 19 20
f 8 20 21
f 8 21 18
f 9 18 22
f 9 22 23
f 9 23 10
f 10 23 13
f 10 13 11
f 11 13 12
f 13 23 22
f 13 22 18
f 13 18 29
f 13 29 20
f 13 20 30
f 13 30 39
f 13 39 54
f 13 54 72
f 13 72 101
f 13 101 158
f 13 158 179
f 13 179 178
f 13 178 177
f 13 177 116
f 13 116 77
f 13 77 58
f 13 58 46
f 13 46 41
f 13 41 31
f 13 31 24
f 13 24 14
f 14 24 25
f 14 25 15
f 15 25 16
f 16 25 26
f 16 26 27
f 16 27 28
f 16 28 17
f 18 21 29
f 20 29 21
f 24 31 25
f 25 31 32
f 25 32 26
f 26 32 33
f 26 33 34
f 26 34 27
f 27 34 35
f 27 35 36
f 27 36 37
f 27 37 38
f 27 38 28
f 30 40 39
f 31 41 32
f 32 42 43
f 32 43 44
f 32 44 45
f 32 45 33
f 32 41 46
f 32 46 42
f 33 45 47
f 33 47 48
f 33 48 34
f 34 48 49
f 34 49 35
f 35 49 36
f 36 38 37
f 36 49 47
f 36 47 50
f 36 50 51
f 36 51 38
f 38 51 53
f 38 53 52
f 39 40 55
f 39 55 73
f 39 73 104
f 39 104 160
f 39 160 210
f 39 210 229
f 39 229 227
f 39 227 226
f 39 226 231
f 39 231 221
f 39 221 252
f 39 252 265
f 39 265 268
f 39 268 267
f 39 267 266
f 39 266 262
f 39 262 246
f 39 246 205
f 39 205 204
f 39 204 151
f 39 151 203
f 39 203 159
f 39 159 102
f 39 102 99
f 39 99 70
f 39 70 54
f 42 56 57
f 42 57 43
f 42 46 58
f 42 58 56
f 43 57 59
f 43 59 60
f 43 60 61
f 43 61 62
f 43 62 44
f 44 62 45
f 45 62 63
f 45 63 64
f 45 64 47
f 47 49 48
f 47 64 65
f 47 65 50
f 50 65 51
f 51 65 64
f 51 64 53
f 52 53 66
f 53 64 67
f 53 67 68
f 53 68 69
f 53 69 66
f 54 70 71
f 54 71 72
f 55 74 75
f 55 75 76
f 55 76 73
f 56 58 77
f 56 77 78
f 56 78 57
f 57 78 79
f 57 79 59
f 59 79 80
f 59 80 81
f 59 81 82
f 59 82 83
f 59 83 84
f 59 84 85
f 59 85 86
f 59 86 87
f 59 87 88
f 59 88 60
f 60 88 61
f 61 88 89
f 61 89 90
f 61 90 62
f 62 91 63
f 62 90 91
f 63 91 92
f 63 92 64
f 64 93 94
f 64 94 68
f 64 68 67
f 64 92 93
f 66 69 95
f 68 96 69
f 68 94 97
f 68 97 96
f 69 96 98
f 69 98 95
f 70 99 71
f 71 100 101
f 71 101 72
f 71 99 102
f 71 102 103
f 71 103 100
f 73 76 104
f 74 105 76
f 74 76 75
f 76 106 107
f 76 107 108
f 76 108 109
f 76 109 110
f 76 110 111
f 76 111 112
f 76 112 113
f 76 113 114
f 76 114 115
f 76 115 104
f 76 105 106
f 77 116 78
f 78 117 80
f 78 80 79
f 78 116 118
f 78 118 117
f 80 117 118
f 80 118 119
f 80 119 81
f 81 120 83
f 81 83 82
f 81 119 120
f 83 120 121
f 83 121 122
f 83 122 123
f 83 123 124
f 83 124 84
f 84 124 85
f 85 124 125
f 85 125 86
f 86 125 122
f 86 122 126
f 86 126 127
f 86 127 128
f 86 128 87
f 87 128 88
f 88 128 89
f 89 128 90
f 90 129 130
f 90 130 91
f 90 128 131
f 90 131 129
f 91 132 92
f 91 130 129
f 91 129 132
f 92 132 133
f 92 133 134
f 92 134 93
f 93 135 136
f 93 136 94
f 93 134 133
f 93 133 137
f 93 137 135
f 94 136 97
f 95 98 138
f 96 139 140
f 96 140 141
f 96 141 142
f 96 142 143
f 96 143 144
f 96 144 145
f 96 145 98
f 96 97 139
f 97 136 131
f 97 131 146
f 97 146 147
f 97 147 148
f 97 148 139
f 98 145 138
f 100 103 149
f 100 149 150
f 100 150 151
f 100 151 152
f 100 152 153
f 100 153 154
f 100 154 155
f 100 155 156
f 100 156 157
f 100 157 158
f 100 158 101
f 102 159 149
f 102 149 103
f 104 115 160
f 105 161 106
f 106 161 162
f 106 162 163
f 106 163 107
f 107 163 164
f 107 164 165
f 107 165 108
f 108 165 166
f 108 166 167
f 108 167 168
f 108 168 109
f 109 168 169
f 109 169 110
f 110 169 170
f 110 170 111
f 111 170 171
f 111 171 172
f 111 172 173
f 111 173 112
f 112 174 175
f 112 175 114
f 112 114 113
f 112 173 176
f 112 176 174
f 114 175 160
f 114 160 115
f 116 177 118
f 118 177 119
f 119 177 178
f 119 178 179
f 119 179 180
f 119 180 181
f 119 181 182
f 119 182 183
f 119 183 120
f 120 184 121
f 120 183 185
f 120 185 184
f 121 184 186
f 121 186 187
f 121 187 188
f 121 188 126
f 121 126 122
f 122 125 123
f 123 125 124
f 126 188 189
f 126 189 190
f 126 190 127
f 127 190 128
f 128 190 191
f 128 191 192
f 128 192 147
f 128 147 146
f 128 146 131
f 129 131 137
f 129 137 133
f 129 133 132
f 131 136 135
f 131 135 137
f 139 148 193
f 139 193 194
f 139 194 195
f 139 195 140
f 140 195 141
f 141 196 142
f 141 195 171
f 141 171 197
f 141 197 169
f 141 169 198
f 141 198 196
f 142 196 199
f 142 199 200
f 142 200 143
f 147 192 201
f 147 201 202
f 147 202 148
f 148 202 193
f 149 159 203
f 149 203 150
f 150 203 151
f 151 204 153
f 151 153 152
f 153 204 205
f 153 205 206
f 153 206 207
f 153 207 154
f 154 207 206
f 154 206 208
f 154 208 155
f 155 208 209
f 155 209 156
f 156 209 185
f 156 185 157
f 157 185 182
f 157 182 181
f 157 181 180
f 157 180 179
f 157 179 158
f 160 175 210
f 162 164 163
f 167 211 212
f 167 212 168
f 168 212 169
f 169 213 214
f 169 214 215
f 169 215 198
f 169 197 171
f 169 171 170
f 169 212 216
f 169 216 213
f 171 195 172
f 172 195 217
f 172 217 218
f 172 218 173
f 173 219 220
f 173 220 221
f 173 221 176
f 173 218 217
f 173 217 191
f 173 191 222
f 173 222 223
f 173 223 224
f 173 224 225
f 173 225 219
f 174 226 227
f 174 227 228
f 174 228 175
f 174 176 226
f 175 228 229
f 175 229 210
f 176 221 230
f 176 230 231
f 176 231 226
f 182 185 183
f 184 232 233
f 184 233 186
f 184 185 209
f 184 209 232
f 186 233 234
f 186 234 235
f 186 235 187
f 187 235 236
f 187 236 237
f 187 237 238
f 187 238 188
f 188 238 189
f 189 238 237
f 189 237 239
f 189 239 191
f 189 191 190
f 191 239 223
f 191 223 222
f 191 217 192
f 192 217 240
f 192 240 241
f 192 241 201
f 193 202 242
f 193 242 243
f 193 243 194
f 194 217 195
f 194 243 242
f 194 242 202
f 194 202 240
f 194 240 217
f 196 198 214
f 196 214 244
f 196 244 245
f 196 245 199
f 198 215 214
f 201 241 240
f 201 240 202
f 205 246 247
f 205 247 209
f 205 209 248
f 205 248 206
f 206 248 209
f 206 209 208
f 209 247 232
f 211 249 213
f 211 213 212
f 212 213 216
f 213 249 250
f 213 250 251
f 213 251 214
f 214 251 244
f 219 225 220
f 220 252 221
f 220 225 252
f 221 231 230
f 223 239 253
f 223 253 237
f 223 237 236
f 223 236 224
f 224 254 225
f 224 236 254
f 225 254 252
f 227 229 228
f 232 247 255
f 232 255 233
f 233 255 256
f 233 256 257
f 233 257 234
f 234 257 258
f 234 258 259
f 234 259 260
f 234 260 235
f 235 260 261
f 235 261 236
f 236 261 254
f 237 253 239
f 244 251 245
f 246 262 263
f 246 263 247
f 247 263 255
f 252 254 264
f 252 264 265
f 254 261 264
f 255 263 256
f 256 263 262
f 256 262 266
f 256 266 267
f 256 267 268
f 256 268 257
f 257 268 258
f 258 268 269
f 258 269 259
f 259 269 261
f 259 261 260
f 261 269 268
f 261 268 264
f 264 268 265

