# https://github.com/mikedh/trimesh
v 0.04386273 0.03492012 0.02525395
v 0.04386273 0.03668694 0.02525395
v 0.04386273 0.03495355 0.02515633
v 0.05285150 0.03811023 0.02525395
v 0.04394458 0.03678164 0.02525395
v 0.04511416 0.04070243 0.01951196
v 0.04386273 0.03981299 0.01772103
v 0.04386273 0.03498604 0.02506497
v 0.05285150 0.03934691 0.02525395
v 0.04386273 0.03526829 0.02427275
v 0.04386273 0.03539455 0.02391982
v 0.04386273 0.03956695 0.01246838
v 0.05285150 0.04333455 0.01246838
v 0.04427547 0.03715858 0.02525395
v 0.04487302 0.03788091 0.02502992
v 0.04492231 0.03782242 0.02525395
v 0.04508423 0.03868958 0.02370331
v 0.04532889 0.03854753 0.02438664
v 0.04533505 0.03953817 0.02229034
v 0.04540105 0.04053531 0.02019529
v 0.04571699 0.04082591 0.01987365
v 0.04698073 0.04178685 0.01866342
v 0.04813534 0.04378485 0.01343831
v 0.04796110 0.04388233 0.01273120
v 0.04788629 0.04390925 0.01246838
v 0.04513176 0.04170329 0.01539945
v 0.04501735 0.04078321 0.01887994
v 0.04423939 0.04054738 0.01683119
v 0.04436788 0.04038305 0.01785619
v 0.04386273 0.03996061 0.01729301
v 0.05285150 0.03966072 0.02458313
v 0.05204978 0.03964309 0.02454558
v 0.05177608 0.03929585 0.02525395
v 0.04386273 0.04129199 0.01246838
v 0.05285150 0.04440411 0.01246838
v 0.04544065 0.03811302 0.02525395
v 0.04567386 0.03834791 0.02497861
v 0.04601268 0.03865337 0.02460315
v 0.04601884 0.03969600 0.02259446
v 0.04608484 0.04069500 0.02050442
v 0.04728698 0.04163644 0.01934550
v 0.04766892 0.04190476 0.01895503
v 0.04803502 0.04279420 0.01660967
v 0.04885082 0.04382755 0.01376997
v 0.04875313 0.04411258 0.01273120
v 0.04875313 0.04417665 0.01246838
v 0.04816351 0.04400488 0.01246838
v 0.04594580 0.04281741 0.01246838
v 0.04545561 0.04253517 0.01246838
v 0.04503231 0.04177292 0.01478120
v 0.04423675 0.04159094 0.01291017
v 0.04407218 0.04072564 0.01556215
v 0.04386273 0.04057988 0.01529432
v 0.04386273 0.04036634 0.01603272
v 0.04386273 0.04011845 0.01683119
v 0.05285150 0.04084634 0.02204003
v 0.04977839 0.04181191 0.01967716
v 0.04875313 0.04178870 0.01961583
v 0.05151735 0.03926799 0.02525395
v 0.05080364 0.03985384 0.02395862
v 0.04386273 0.04127156 0.01258478
v 0.04395162 0.04140433 0.01246838
v 0.05182801 0.04439297 0.01246838
v 0.05285150 0.04415158 0.01375620
v 0.04567562 0.03819472 0.02525395
v 0.04670439 0.03872672 0.02474207
v 0.04670439 0.03978235 0.02275590
v 0.04796990 0.04174321 0.01951696
v 0.04843544 0.04265122 0.01729301
v 0.04876722 0.04284248 0.01690378
v 0.04925740 0.04373099 0.01427183
v 0.04977839 0.04395196 0.01375620
v 0.04900483 0.04421471 0.01246838
v 0.04476654 0.04207930 0.01246838
v 0.04487390 0.04188712 0.01375620
v 0.04441980 0.04183048 0.01246838
v 0.04386273 0.04100139 0.01370739
v 0.04386273 0.04094290 0.01393141
v 0.05285150 0.04187226 0.01981733
v 0.05182801 0.04185276 0.01977227
v 0.05285150 0.04282762 0.01764719
v 0.04977839 0.03980092 0.02382721
v 0.04875313 0.04210066 0.01887994
v 0.05081596 0.03918908 0.02525395
v 0.05080364 0.04436605 0.01246838
v 0.05182801 0.04410980 0.01375620
v 0.05285150 0.04386562 0.01466856
v 0.04670439 0.03842312 0.02525395
v 0.04772876 0.03863666 0.02525395
v 0.04772876 0.03882606 0.02492980
v 0.04801566 0.04069779 0.02152316
v 0.04769620 0.04090762 0.02100753
v 0.04875313 0.04076464 0.02165707
v 0.04911835 0.04271621 0.01737811
v 0.05080364 0.04405038 0.01375620
v 0.04977839 0.04376163 0.01436194
v 0.04978719 0.04430384 0.01246838
v 0.04463189 0.04198739 0.01246838
v 0.05285150 0.04311916 0.01683119
v 0.05182801 0.04279699 0.01758461
v 0.04875313 0.03970993 0.02364324
v 0.04872321 0.03883627 0.02525395
v 0.04977839 0.03901824 0.02525395
v 0.05080364 0.04276728 0.01751578
v 0.04977839 0.04273664 0.01743693
v 0.05182801 0.04383684 0.01458096
v 0.05182801 0.04306530 0.01683119
v 0.04853576 0.03879913 0.02525395
v 0.04977839 0.04294554 0.01683119
v 0.05080364 0.04380620 0.01449335
v 0.05080364 0.04300588 0.01683119
f 1 2 7
f 1 7 30
f 1 30 55
f 1 55 54
f 1 54 53
f 1 53 78
f 1 78 77
f 1 77 61
f 1 61 34
f 1 34 12
f 1 12 11
f 1 11 10
f 1 10 8
f 1 8 3
f 1 3 4
f 1 4 9
f 1 9 33
f 1 33 59
f 1 59 84
f 1 84 103
f 1 103 102
f 1 102 108
f 1 108 89
f 1 89 88
f 1 88 65
f 1 65 36
f 1 36 16
f 1 16 14
f 1 14 5
f 1 5 2
f 2 5 6
f 2 6 7
f 3 8 4
f 4 8 10
f 4 10 11
f 4 11 12
f 4 12 13
f 4 13 35
f 4 35 64
f 4 64 87
f 4 87 99
f 4 99 81
f 4 81 79
f 4 79 56
f 4 56 31
f 4 31 9
f 5 14 6
f 6 14 15
f 6 15 16
f 6 16 17
f 6 17 18
f 6 18 19
f 6 19 20
f 6 20 21
f 6 21 22
f 6 22 23
f 6 23 24
f 6 24 25
f 6 25 26
f 6 26 27
f 6 27 28
f 6 28 29
f 6 29 7
f 7 29 30
f 9 31 32
f 9 32 33
f 12 34 62
f 12 62 76
f 12 76 98
f 12 98 74
f 12 74 49
f 12 49 48
f 12 48 25
f 12 25 47
f 12 47 46
f 12 46 73
f 12 73 97
f 12 97 85
f 12 85 63
f 12 63 35
f 12 35 13
f 14 16 15
f 16 36 18
f 16 18 17
f 18 36 37
f 18 37 38
f 18 38 39
f 18 39 19
f 19 39 40
f 19 40 21
f 19 21 20
f 21 41 22
f 21 40 41
f 22 42 43
f 22 43 23
f 22 41 42
f 23 43 44
f 23 44 45
f 23 45 46
f 23 46 47
f 23 47 24
f 24 47 25
f 25 48 26
f 26 48 49
f 26 49 50
f 26 50 27
f 27 50 51
f 27 51 52
f 27 52 28
f 28 52 53
f 28 53 54
f 28 54 29
f 29 54 55
f 29 55 30
f 31 56 32
f 32 56 57
f 32 57 58
f 32 58 33
f 33 58 60
f 33 60 59
f 34 61 62
f 35 63 64
f 36 65 37
f 37 65 38
f 38 65 66
f 38 66 67
f 38 67 39
f 39 67 68
f 39 68 41
f 39 41 40
f 41 68 42
f 42 69 43
f 42 68 69
f 43 69 70
f 43 70 44
f 44 71 72
f 44 72 45
f 44 70 71
f 45 72 73
f 45 73 46
f 49 74 75
f 49 75 50
f 50 75 51
f 51 75 76
f 51 76 62
f 51 62 77
f 51 77 78
f 51 78 52
f 52 78 53
f 56 79 80
f 56 80 57
f 57 80 81
f 57 81 58
f 58 68 82
f 58 82 60
f 58 81 83
f 58 83 68
f 59 60 84
f 60 82 84
f 61 77 62
f 63 85 64
f 64 85 86
f 64 86 87
f 65 88 66
f 66 88 89
f 66 89 90
f 66 90 91
f 66 91 67
f 67 91 92
f 67 92 68
f 68 92 91
f 68 91 93
f 68 93 82
f 68 83 69
f 69 83 94
f 69 94 70
f 70 94 95
f 70 95 96
f 70 96 71
f 71 96 72
f 72 96 95
f 72 95 97
f 72 97 73
f 74 98 75
f 75 98 76
f 79 81 80
f 81 99 100
f 81 100 83
f 82 101 102
f 82 102 103
f 82 103 84
f 82 93 101
f 83 100 104
f 83 104 105
f 83 105 94
f 85 97 95
f 85 95 86
f 86 95 106
f 86 106 87
f 87 106 107
f 87 107 99
f 89 108 90
f 90 108 102
f 90 102 101
f 90 101 91
f 91 101 93
f 94 105 109
f 94 109 110
f 94 110 95
f 95 110 106
f 99 107 100
f 100 107 104
f 104 107 105
f 105 107 111
f 105 111 109
f 106 110 109
f 106 109 111
f 106 111 107

