# https://github.com/mikedh/trimesh
v 0.04281773 -0.00570134 0.04850922
v 0.05285238 -0.00570013 0.05098586
v 0.05257047 -0.00570134 0.05096418
v 0.04281773 -0.00570134 0.05014689
v 0.04281773 0.00663352 0.04753661
v 0.05285238 0.00663352 0.04966546
v 0.05285238 -0.00570134 0.05184607
v 0.04296507 -0.00570134 0.05029778
v 0.04296409 -0.00495878 0.05029911
v 0.04281773 -0.00525218 0.05014822
v 0.04281773 0.00663352 0.04926456
v 0.05285238 0.00663352 0.05071638
v 0.05285238 -0.00570134 0.05192793
v 0.04310553 -0.00570134 0.05043938
v 0.04347093 -0.00393370 0.05081373
v 0.04296507 -0.00393370 0.05030088
v 0.04281773 -0.00422710 0.05014645
v 0.04283542 0.00663352 0.04927695
v 0.04281773 0.00655987 0.04928757
v 0.05214614 0.00663352 0.05068452
v 0.05285238 0.00482241 0.05116021
v 0.05285238 -0.00496482 0.05201334
v 0.04772897 -0.00570134 0.05170846
v 0.04347486 -0.00570134 0.05081019
v 0.04347289 -0.00495878 0.05081152
v 0.04346897 -0.00290861 0.05081064
v 0.04398661 -0.00570134 0.05128145
v 0.04398170 -0.00290861 0.05128543
v 0.04398072 -0.00188352 0.05128720
v 0.04346798 -0.00188352 0.05080090
v 0.04297293 -0.00290861 0.05029823
v 0.04281773 -0.00321288 0.05013494
v 0.04362023 0.00663352 0.04949288
v 0.04309768 0.00380940 0.05015751
v 0.04281773 0.00404122 0.04984024
v 0.05112067 0.00663352 0.05061284
v 0.05285238 0.00440585 0.05125534
v 0.05285238 -0.00393370 0.05204210
v 0.04670449 -0.00570134 0.05163633
v 0.05285238 -0.00390472 0.05204254
v 0.05285238 -0.00290861 0.05204962
v 0.05285238 -0.00188352 0.05205670
v 0.04670449 -0.00188352 0.05164695
v 0.04398563 -0.00085843 0.05128499
v 0.04465454 -0.00570134 0.05145092
v 0.04465454 -0.00393370 0.05145624
v 0.04465454 -0.00188352 0.05146199
v 0.04398366 -0.00393370 0.05128410
v 0.04347289 -0.00085843 0.05078851
v 0.04281773 -0.00290861 0.05012831
v 0.04298472 -0.00188352 0.05028849
v 0.04801677 0.00663352 0.05018804
v 0.04362907 0.00631476 0.04958183
v 0.04494037 0.00490813 0.05017742
v 0.04689897 0.00598273 0.05019114
v 0.04362907 0.00400137 0.05020707
v 0.04306526 0.00324071 0.05018849
v 0.04404063 -0.00003257 0.05124428
v 0.04418601 0.00064962 0.05115268
v 0.04281773 0.00324071 0.04992830
v 0.05009619 0.00663352 0.05049248
v 0.04977794 0.00631476 0.05053275
v 0.04818670 0.00275412 0.05117437
v 0.05099298 0.00389633 0.05119561
v 0.05182789 0.00408227 0.05123056
v 0.05281309 0.00433945 0.05126464
v 0.05285238 0.00328176 0.05146730
v 0.04567902 -0.00570134 0.05155093
v 0.05285238 -0.00085843 0.05205493
v 0.04772897 -0.00085843 0.05171377
v 0.04670449 -0.00085843 0.05164164
v 0.04567902 -0.00188352 0.05156155
v 0.04465454 -0.00085843 0.05145712
v 0.04303579 0.00221562 0.05022477
v 0.04301026 0.00016665 0.05026150
v 0.04299749 -0.00085843 0.05027566
v 0.04302303 0.00119053 0.05024601
v 0.04281773 -0.00220952 0.05011282
v 0.04875346 0.00663352 0.05029601
v 0.04779380 0.00632080 0.05023672
v 0.04875346 0.00631476 0.05038186
v 0.04661609 0.00538506 0.05030398
v 0.04462114 0.00432737 0.05027964
v 0.04567902 0.00426579 0.05045310
v 0.04486965 0.00084884 0.05121286
v 0.04457792 0.00025238 0.05130800
v 0.04281773 0.00221562 0.04998671
v 0.04614461 0.00173024 0.05117569
v 0.04875346 0.00288332 0.05119870
v 0.04670449 0.00187272 0.05120490
v 0.04567902 0.00016665 0.05144960
v 0.04670449 0.00016665 0.05153854
v 0.04977794 0.00311393 0.05124162
v 0.05182789 0.00324071 0.05138942
v 0.05182789 0.00221562 0.05158235
v 0.05285238 0.00323829 0.05147526
v 0.05285238 -0.00083187 0.05205405
v 0.04772897 0.00016665 0.05162084
v 0.04567902 -0.00085843 0.05155580
v 0.04281773 0.00119053 0.05001901
v 0.04281773 0.00016665 0.05004822
v 0.04281773 -0.00120858 0.05008627
v 0.04772897 0.00529088 0.05049381
v 0.04575367 0.00119053 0.05124561
v 0.04772897 0.00119053 0.05143190
v 0.04875346 0.00221562 0.05132481
v 0.04977794 0.00119053 0.05160359
v 0.05285238 0.00221321 0.05165492
v 0.05285238 0.00007368 0.05196068
v 0.05080341 0.00119053 0.05167173
f 1 2 3
f 1 3 7
f 1 7 13
f 1 13 23
f 1 23 39
f 1 39 68
f 1 68 45
f 1 45 27
f 1 27 24
f 1 24 14
f 1 14 8
f 1 8 4
f 1 4 10
f 1 10 17
f 1 17 32
f 1 32 50
f 1 50 78
f 1 78 102
f 1 102 101
f 1 101 100
f 1 100 87
f 1 87 60
f 1 60 35
f 1 35 19
f 1 19 11
f 1 11 5
f 1 5 6
f 1 6 2
f 2 7 3
f 2 6 12
f 2 12 21
f 2 21 37
f 2 37 67
f 2 67 96
f 2 96 108
f 2 108 109
f 2 109 97
f 2 97 69
f 2 69 42
f 2 42 41
f 2 41 40
f 2 40 38
f 2 38 22
f 2 22 13
f 2 13 7
f 4 8 9
f 4 9 10
f 5 11 18
f 5 18 33
f 5 33 52
f 5 52 79
f 5 79 61
f 5 61 36
f 5 36 20
f 5 20 12
f 5 12 6
f 8 14 15
f 8 15 9
f 9 15 16
f 9 16 10
f 10 16 17
f 11 19 18
f 12 20 21
f 13 22 23
f 14 24 25
f 14 25 15
f 15 26 16
f 15 25 27
f 15 27 28
f 15 28 29
f 15 29 26
f 16 26 30
f 16 30 31
f 16 31 17
f 17 31 32
f 18 19 34
f 18 34 33
f 19 35 34
f 20 36 21
f 21 36 37
f 22 38 23
f 23 38 40
f 23 40 41
f 23 41 42
f 23 42 43
f 23 43 39
f 24 27 25
f 26 29 44
f 26 44 30
f 27 45 46
f 27 46 47
f 27 47 48
f 27 48 28
f 28 48 29
f 29 48 47
f 29 47 44
f 30 44 49
f 30 49 31
f 31 50 32
f 31 49 51
f 31 51 50
f 33 34 53
f 33 53 54
f 33 54 55
f 33 55 52
f 34 56 53
f 34 35 57
f 34 57 44
f 34 44 58
f 34 58 59
f 34 59 56
f 35 60 57
f 36 61 62
f 36 62 63
f 36 63 64
f 36 64 37
f 37 64 65
f 37 65 66
f 37 66 67
f 39 43 72
f 39 72 68
f 42 69 70
f 42 70 43
f 43 70 71
f 43 71 72
f 44 47 73
f 44 73 58
f 44 57 74
f 44 74 49
f 45 68 46
f 46 68 47
f 47 72 73
f 47 68 72
f 49 75 76
f 49 76 51
f 49 74 77
f 49 77 75
f 50 51 78
f 51 76 78
f 52 55 80
f 52 80 81
f 52 81 62
f 52 62 79
f 53 56 54
f 54 82 55
f 54 56 83
f 54 83 84
f 54 84 82
f 55 82 81
f 55 81 80
f 56 59 85
f 56 85 83
f 57 60 74
f 58 73 86
f 58 86 59
f 59 86 85
f 60 87 74
f 61 79 62
f 62 81 88
f 62 88 63
f 63 89 64
f 63 88 90
f 63 90 91
f 63 91 92
f 63 92 89
f 64 89 93
f 64 93 65
f 65 93 66
f 66 93 94
f 66 94 67
f 67 94 95
f 67 95 96
f 69 97 70
f 70 97 98
f 70 98 71
f 71 99 72
f 71 98 92
f 71 92 99
f 72 99 73
f 73 99 91
f 73 91 86
f 74 87 77
f 75 100 101
f 75 101 102
f 75 102 76
f 75 77 100
f 76 102 78
f 77 87 100
f 81 82 103
f 81 103 88
f 82 84 103
f 83 85 84
f 84 85 88
f 84 88 103
f 85 86 88
f 86 91 104
f 86 104 88
f 88 104 91
f 88 91 90
f 89 92 105
f 89 105 106
f 89 106 93
f 91 99 92
f 92 98 107
f 92 107 105
f 93 106 105
f 93 105 107
f 93 107 95
f 93 95 94
f 95 107 108
f 95 108 96
f 97 109 98
f 98 109 110
f 98 110 108
f 98 108 107
f 108 110 109

