# https://github.com/mikedh/trimesh
v 0.03742859 -0.03365898 0.02468575
v 0.03744591 -0.03297702 0.02468575
v 0.03746871 -0.03365898 0.02400526
v 0.03744227 -0.03400283 0.02468575
v 0.03746141 -0.03263317 0.02468575
v 0.03749333 -0.03195407 0.02468575
v 0.03751703 -0.03263317 0.02400526
v 0.03757174 -0.03365898 0.02297973
v 0.03767204 -0.03468479 0.02195489
v 0.03757265 -0.03468479 0.02297973
v 0.03750974 -0.03468479 0.02400526
v 0.03750336 -0.03468479 0.02468575
v 0.03795195 -0.02368455 0.02468575
v 0.03768115 -0.03365898 0.02195489
v 0.03788266 -0.03468479 0.01990589
v 0.03777507 -0.03468479 0.02093073
v 0.03781610 -0.03497133 0.02064114
v 0.03771398 -0.03497133 0.02166667
v 0.03761733 -0.03497133 0.02269152
v 0.03755715 -0.03497133 0.02371636
v 0.03751977 -0.03478222 0.02468575
v 0.03804040 -0.02305989 0.02468575
v 0.03850359 -0.03074774 0.01769258
v 0.03797110 -0.03392260 0.01922129
v 0.03779422 -0.03365898 0.02093073
v 0.03796472 -0.03468479 0.01914461
v 0.03796837 -0.03497133 0.01917474
v 0.03791457 -0.03497133 0.01967655
v 0.03755259 -0.03497133 0.02468575
v 0.04063078 -0.00570420 0.02468575
v 0.03876709 -0.02959012 0.01769258
v 0.03842608 -0.03177069 0.01769258
v 0.04073928 -0.00570420 0.02446189
v 0.04087149 -0.00570420 0.02419490
v 0.03832396 -0.03468479 0.01769258
v 0.03832396 -0.03473064 0.01769258
v 0.03832487 -0.03484812 0.01769258
v 0.03832761 -0.03497133 0.01769258
v 0.03864582 -0.03497133 0.02468575
v 0.04189543 -0.00570420 0.02468575
v 0.04121615 -0.00570420 0.02368213
v 0.04569119 -0.00570420 0.01769258
v 0.03926037 -0.03497133 0.01769258
v 0.04598661 -0.01530041 0.01769258
v 0.04603675 -0.01511702 0.01769258
v 0.04627473 -0.01418577 0.01769258
v 0.04618264 -0.01365854 0.01835938
v 0.04612155 -0.01235478 0.01923840
v 0.04619723 -0.01167282 0.01940955
v 0.04589269 -0.01206251 0.01981278
v 0.04535747 -0.01213701 0.02063088
v 0.04542586 -0.01111120 0.02071577
v 0.04496632 -0.01111120 0.02122785
v 0.04198022 -0.00883321 0.02468575
v 0.04315551 -0.00570420 0.02326864
v 0.04199755 -0.00601366 0.02468575
v 0.04673883 -0.00570420 0.01769258
v 0.04628932 -0.01410267 0.01769258
v 0.04623826 -0.01297657 0.01855517
v 0.04662850 -0.01111120 0.01785551
v 0.04637138 -0.01111120 0.01888036
v 0.04641697 -0.01008539 0.01888036
v 0.04620999 -0.01111120 0.01943625
v 0.04593828 -0.01111120 0.01994902
v 0.04627655 -0.01206251 0.01889063
v 0.04651818 -0.01213701 0.01785551
v 0.04592552 -0.01008539 0.01997092
v 0.04541309 -0.01008539 0.02072535
v 0.04499550 -0.01008539 0.02123675
v 0.04311722 -0.00856387 0.02349455
v 0.04208052 -0.00803663 0.02468575
v 0.04361049 -0.00570420 0.02273259
v 0.04209237 -0.00701082 0.02468575
v 0.04672698 -0.00570420 0.01785551
v 0.04674248 -0.00594203 0.01769258
v 0.04641515 -0.01323446 0.01769258
v 0.04635041 -0.01325451 0.01795273
v 0.04665403 -0.01111120 0.01769258
v 0.04666406 -0.01094787 0.01769258
v 0.04671603 -0.01008539 0.01769258
v 0.04668959 -0.01008539 0.01785551
v 0.04655009 -0.01213701 0.01769258
v 0.04622276 -0.01008539 0.01945816
v 0.04670601 -0.00906244 0.01785551
v 0.04643065 -0.00906244 0.01888036
v 0.04622914 -0.00906244 0.01946500
v 0.04623552 -0.00803663 0.01947048
v 0.04624099 -0.00701082 0.01947390
v 0.04623917 -0.00598501 0.01946637
v 0.04539212 -0.00906244 0.02069934
v 0.04311722 -0.00850942 0.02349455
v 0.04623644 -0.00570420 0.01946090
v 0.04594831 -0.00570420 0.01983195
v 0.04583525 -0.00570420 0.01997366
v 0.04546415 -0.00570420 0.02043782
v 0.04439736 -0.00570420 0.02176183
v 0.04453960 -0.00570420 0.02158589
v 0.04645891 -0.00570420 0.01888036
v 0.04672880 -0.00598501 0.01785551
v 0.04674248 -0.00701082 0.01769258
v 0.04673153 -0.00906244 0.01769258
v 0.04644341 -0.00803663 0.01888036
v 0.04645526 -0.00701082 0.01888036
v 0.04672606 -0.00701082 0.01785551
v 0.04645982 -0.00598501 0.01888036
v 0.04629844 -0.00570420 0.01930481
v 0.04535018 -0.00701082 0.02064662
v 0.04491617 -0.00598501 0.02113337
f 1 2 3
f 1 3 4
f 1 4 12
f 1 12 21
f 1 21 29
f 1 29 39
f 1 39 54
f 1 54 71
f 1 71 73
f 1 73 56
f 1 56 40
f 1 40 30
f 1 30 22
f 1 22 13
f 1 13 6
f 1 6 5
f 1 5 2
f 2 5 3
f 3 5 6
f 3 6 7
f 3 7 8
f 3 8 9
f 3 9 10
f 3 10 11
f 3 11 4
f 4 11 12
f 6 13 7
f 7 14 8
f 7 13 14
f 8 14 15
f 8 15 16
f 8 16 9
f 9 16 17
f 9 17 18
f 9 18 10
f 10 18 19
f 10 19 11
f 11 19 20
f 11 20 12
f 12 20 21
f 13 22 23
f 13 23 24
f 13 24 25
f 13 25 14
f 14 25 24
f 14 24 26
f 14 26 15
f 15 26 27
f 15 27 28
f 15 28 16
f 16 28 17
f 17 28 27
f 17 27 38
f 17 38 43
f 17 43 39
f 17 39 29
f 17 29 20
f 17 20 19
f 17 19 18
f 20 29 21
f 22 30 23
f 23 31 42
f 23 42 57
f 23 57 75
f 23 75 100
f 23 100 101
f 23 101 80
f 23 80 79
f 23 79 78
f 23 78 82
f 23 82 76
f 23 76 58
f 23 58 46
f 23 46 45
f 23 45 44
f 23 44 43
f 23 43 38
f 23 38 37
f 23 37 36
f 23 36 35
f 23 35 32
f 23 32 24
f 23 30 33
f 23 33 34
f 23 34 31
f 24 32 35
f 24 35 26
f 26 36 37
f 26 37 38
f 26 38 27
f 26 35 36
f 30 40 55
f 30 55 72
f 30 72 96
f 30 96 97
f 30 97 95
f 30 95 94
f 30 94 93
f 30 93 92
f 30 92 106
f 30 106 98
f 30 98 74
f 30 74 57
f 30 57 42
f 30 42 41
f 30 41 34
f 30 34 33
f 31 34 41
f 31 41 42
f 39 43 44
f 39 44 45
f 39 45 46
f 39 46 47
f 39 47 48
f 39 48 49
f 39 49 50
f 39 50 51
f 39 51 52
f 39 52 53
f 39 53 54
f 40 56 55
f 46 58 47
f 47 58 59
f 47 59 49
f 47 49 48
f 49 60 61
f 49 61 62
f 49 62 63
f 49 63 64
f 49 64 50
f 49 59 65
f 49 65 66
f 49 66 60
f 50 64 51
f 51 64 52
f 52 64 67
f 52 67 68
f 52 68 69
f 52 69 70
f 52 70 53
f 53 70 71
f 53 71 54
f 55 56 72
f 56 73 72
f 57 74 75
f 58 76 77
f 58 77 59
f 59 77 65
f 60 78 79
f 60 79 80
f 60 80 81
f 60 81 61
f 60 66 82
f 60 82 78
f 61 81 62
f 62 83 63
f 62 81 84
f 62 84 85
f 62 85 83
f 63 83 64
f 64 83 86
f 64 86 87
f 64 87 88
f 64 88 67
f 65 77 66
f 66 77 76
f 66 76 82
f 67 88 89
f 67 89 68
f 68 90 91
f 68 91 69
f 68 89 92
f 68 92 93
f 68 93 94
f 68 94 95
f 68 95 90
f 69 91 70
f 70 91 73
f 70 73 71
f 72 73 96
f 73 97 96
f 73 91 97
f 74 98 99
f 74 99 75
f 75 99 100
f 80 101 84
f 80 84 81
f 83 85 102
f 83 102 103
f 83 103 86
f 84 101 104
f 84 104 103
f 84 103 102
f 84 102 85
f 86 103 87
f 87 103 88
f 88 103 105
f 88 105 98
f 88 98 89
f 89 98 106
f 89 106 92
f 90 95 107
f 90 107 108
f 90 108 91
f 91 108 97
f 95 97 108
f 95 108 107
f 98 105 99
f 99 105 104
f 99 104 100
f 100 104 101
f 103 104 105

