# https://github.com/mikedh/trimesh
v 0.05719216 -0.00570134 -0.05049435
v 0.05719216 -0.00570134 -0.04957163
v 0.05719216 -0.00519670 -0.05052270
v 0.05769626 -0.00570134 -0.05047115
v 0.06908467 -0.00570134 -0.04738920
v 0.06908467 0.01232458 -0.04404113
v 0.05719216 0.01232458 -0.04648968
v 0.05719216 -0.00417154 -0.05057940
v 0.05797917 -0.00495849 -0.05049886
v 0.05872194 -0.00570134 -0.05042218
v 0.06908467 -0.00570134 -0.04854453
v 0.06908467 0.01232458 -0.04535239
v 0.05719216 0.01232458 -0.04766370
v 0.05719216 -0.00393333 -0.05058971
v 0.05900485 -0.00495849 -0.05043958
v 0.05900485 -0.00570134 -0.05040607
v 0.06908467 -0.00277054 -0.04850458
v 0.06897058 -0.00570134 -0.04858255
v 0.06822897 0.00016732 -0.04880485
v 0.06908467 0.00869505 -0.04651095
v 0.06774349 0.00996018 -0.04726613
v 0.06699257 0.01220989 -0.04635630
v 0.06690874 0.01232458 -0.04632086
v 0.05812120 0.01232458 -0.04758573
v 0.06105504 0.01144058 -0.04761988
v 0.06002936 0.01144058 -0.04770042
v 0.05759498 0.00993724 -0.04826810
v 0.05719216 0.00999194 -0.04828099
v 0.05719216 -0.00314637 -0.05062322
v 0.06054278 -0.00547372 -0.05030942
v 0.06027501 -0.00570134 -0.05032295
v 0.05985124 -0.00570134 -0.05035452
v 0.06908467 -0.00076080 -0.04847494
v 0.06822897 -0.00570134 -0.04880678
v 0.06822897 -0.00495849 -0.04880936
v 0.06822897 -0.00188301 -0.04880743
v 0.06720446 0.00119248 -0.04892599
v 0.06822897 0.00119248 -0.04875781
v 0.06908467 0.00022908 -0.04845110
v 0.06908467 0.00016732 -0.04845368
v 0.06589820 -0.00570134 -0.04932807
v 0.06412858 -0.00570134 -0.04965862
v 0.06054278 -0.00547019 -0.05030942
v 0.06908467 0.00540077 -0.04739307
v 0.06720446 0.00939025 -0.04756769
v 0.06720446 0.01017545 -0.04736471
v 0.06908467 0.00307342 -0.04799876
v 0.06908467 0.00244350 -0.04813988
v 0.06874239 0.00273111 -0.04826037
v 0.06822897 0.00221588 -0.04859092
v 0.06656181 0.01089183 -0.04720943
v 0.06668521 0.01232458 -0.04638594
v 0.06207956 0.01144058 -0.04752065
v 0.05996417 0.01232458 -0.04740660
v 0.06515426 0.01041542 -0.04758702
v 0.06412858 0.01041542 -0.04767465
v 0.06002936 0.00908676 -0.04830870
v 0.05900485 0.00922969 -0.04834220
v 0.05719216 0.00915205 -0.04847881
v 0.05719216 0.00988960 -0.04830547
v 0.06087110 0.00896854 -0.04828099
v 0.05719216 -0.00290817 -0.05062257
v 0.06384568 -0.00570134 -0.04970759
v 0.06002936 0.00324104 -0.04961222
v 0.06474213 0.00790456 -0.04827197
v 0.06720446 0.00221588 -0.04877005
v 0.05719216 -0.00212121 -0.05061742
v 0.05719216 -0.00188301 -0.05060196
v 0.05719216 -0.00109605 -0.05055041
v 0.05719216 -0.00087019 -0.05053043
v 0.05719216 0.00016732 -0.05043507
v 0.05752396 0.00076018 -0.05032037
v 0.06902879 0.00119248 -0.04839182
v 0.06617878 0.00939025 -0.04777968
v 0.06908467 0.00067196 -0.04841179
v 0.06620323 0.01049658 -0.04744075
v 0.06908467 0.00221588 -0.04818369
v 0.06884135 0.00221588 -0.04830934
v 0.06587841 0.01098711 -0.04726420
v 0.06620323 0.01137353 -0.04701805
v 0.06616714 0.01232458 -0.04653543
v 0.06002936 0.01231047 -0.04740531
v 0.06001306 0.01232458 -0.04740015
v 0.06412858 0.01122884 -0.04738211
v 0.06412858 0.00800161 -0.04829452
v 0.06310524 0.00733993 -0.04851682
v 0.06105504 0.00733993 -0.04865085
v 0.05719216 0.00530372 -0.04938026
v 0.05719216 0.00087488 -0.05034808
v 0.06054046 0.00477790 -0.04928425
v 0.06908467 0.00119248 -0.04836024
v 0.06515426 0.01108768 -0.04731446
v 0.06259647 0.01195404 -0.04723585
v 0.06226932 0.01232458 -0.04709409
v 0.06529048 0.01232458 -0.04666237
v 0.06207956 0.01232458 -0.04712051
v 0.06105504 0.01216754 -0.04734087
v 0.05985706 0.00487319 -0.04930680
v 0.05719216 0.00426444 -0.04962318
v 0.05900485 0.00324104 -0.04972499
v 0.05900485 0.00426444 -0.04950462
v 0.06207956 0.01202638 -0.04727128
f 1 2 7
f 1 7 13
f 1 13 28
f 1 28 60
f 1 60 59
f 1 59 88
f 1 88 99
f 1 99 89
f 1 89 71
f 1 71 70
f 1 70 69
f 1 69 68
f 1 68 67
f 1 67 62
f 1 62 29
f 1 29 14
f 1 14 8
f 1 8 3
f 1 3 4
f 1 4 10
f 1 10 16
f 1 16 32
f 1 32 31
f 1 31 63
f 1 63 42
f 1 42 41
f 1 41 34
f 1 34 18
f 1 18 11
f 1 11 5
f 1 5 2
f 2 5 6
f 2 6 7
f 3 8 4
f 4 8 9
f 4 9 10
f 5 11 17
f 5 17 33
f 5 33 40
f 5 40 39
f 5 39 75
f 5 75 91
f 5 91 77
f 5 77 48
f 5 48 47
f 5 47 44
f 5 44 20
f 5 20 12
f 5 12 6
f 6 12 23
f 6 23 52
f 6 52 81
f 6 81 95
f 6 95 94
f 6 94 96
f 6 96 83
f 6 83 54
f 6 54 24
f 6 24 13
f 6 13 7
f 8 14 15
f 8 15 9
f 9 15 16
f 9 16 10
f 11 18 19
f 11 19 17
f 12 20 21
f 12 21 22
f 12 22 23
f 13 24 25
f 13 25 26
f 13 26 27
f 13 27 28
f 14 29 15
f 15 30 31
f 15 31 32
f 15 32 16
f 15 29 30
f 17 19 33
f 18 34 35
f 18 35 36
f 18 36 19
f 19 37 38
f 19 38 39
f 19 39 40
f 19 40 33
f 19 36 41
f 19 41 42
f 19 42 43
f 19 43 37
f 20 44 21
f 21 45 46
f 21 46 22
f 21 44 47
f 21 47 48
f 21 48 49
f 21 49 50
f 21 50 45
f 22 46 51
f 22 51 23
f 23 51 52
f 24 53 25
f 24 54 53
f 25 53 55
f 25 55 56
f 25 56 26
f 26 56 27
f 27 57 58
f 27 58 59
f 27 59 60
f 27 60 28
f 27 56 61
f 27 61 57
f 29 62 43
f 29 43 30
f 30 43 42
f 30 42 63
f 30 63 31
f 34 41 35
f 35 41 36
f 37 64 65
f 37 65 66
f 37 66 38
f 37 43 67
f 37 67 68
f 37 68 69
f 37 69 70
f 37 70 71
f 37 71 72
f 37 72 64
f 38 73 39
f 38 66 74
f 38 74 50
f 38 50 73
f 39 73 75
f 43 62 67
f 45 74 46
f 45 50 74
f 46 74 76
f 46 76 51
f 48 77 78
f 48 78 49
f 49 78 50
f 50 78 73
f 51 76 79
f 51 79 80
f 51 80 81
f 51 81 52
f 53 54 82
f 53 82 55
f 54 83 82
f 55 82 84
f 55 84 76
f 55 76 74
f 55 74 56
f 56 74 85
f 56 85 61
f 57 61 85
f 57 85 86
f 57 86 58
f 58 86 87
f 58 87 88
f 58 88 59
f 64 72 89
f 64 89 65
f 65 90 85
f 65 85 74
f 65 74 66
f 65 89 90
f 71 89 72
f 73 91 75
f 73 78 77
f 73 77 91
f 76 84 92
f 76 92 79
f 79 92 93
f 79 93 94
f 79 94 95
f 79 95 81
f 79 81 80
f 82 83 96
f 82 96 97
f 82 97 84
f 84 97 92
f 85 90 86
f 86 90 98
f 86 98 88
f 86 88 87
f 88 98 99
f 89 100 90
f 89 99 100
f 90 101 98
f 90 100 101
f 92 97 102
f 92 102 93
f 93 102 94
f 94 102 96
f 96 102 97
f 98 101 99
f 99 101 100

