# https://github.com/mikedh/trimesh
v 0.05719216 0.03463402 -0.03073322
v 0.05551035 0.03463402 -0.03066467
v 0.05719216 0.03578504 -0.02913873
v 0.05719216 0.03463402 -0.02886452
v 0.05515761 0.03463402 -0.03064959
v 0.05285409 0.03483773 -0.03027119
v 0.05592859 0.03627833 -0.02839838
v 0.05719216 0.03666577 -0.02791304
v 0.05075718 0.03463402 -0.02843402
v 0.05719216 0.04143425 -0.01672691
v 0.05080443 0.03463402 -0.03044393
v 0.05080443 0.03480578 -0.03022731
v 0.05182926 0.03533435 -0.02953632
v 0.05080443 0.03994306 -0.02307198
v 0.05490376 0.03839062 -0.02541093
v 0.05592859 0.03789467 -0.02614580
v 0.05695406 0.03790133 -0.02616774
v 0.05719216 0.03781545 -0.02629250
v 0.05075718 0.03463402 -0.02859032
v 0.05075718 0.04143425 -0.01672828
v 0.05719216 0.04143425 -0.01989533
v 0.05075718 0.03463735 -0.03042474
v 0.05075718 0.03479979 -0.03021909
v 0.05075718 0.03533901 -0.02947463
v 0.05075718 0.03623106 -0.02823934
v 0.05075718 0.03656592 -0.02777319
v 0.05080443 0.03568585 -0.02900163
v 0.05075718 0.04047563 -0.02231655
v 0.05080443 0.04045566 -0.02235494
v 0.05182926 0.03995770 -0.02309391
v 0.05075718 0.03869219 -0.02480631
v 0.05490376 0.03875610 -0.02489817
v 0.05719216 0.03789867 -0.02617322
v 0.05592859 0.03840594 -0.02542053
v 0.05075718 0.04143425 -0.02053148
v 0.05719216 0.04125384 -0.02033543
v 0.05684383 0.04143425 -0.01997074
v 0.05075718 0.04081248 -0.02183806
v 0.05080443 0.04081581 -0.02184355
v 0.05592859 0.03875344 -0.02490777
v 0.05719216 0.03829143 -0.02558642
v 0.05080443 0.04143425 -0.02055479
v 0.05080443 0.04119060 -0.02109771
v 0.05075718 0.04120125 -0.02104973
v 0.05611126 0.04143425 -0.02012292
v 0.05719216 0.04092698 -0.02111828
v 0.05075718 0.04117862 -0.02109771
v 0.05182926 0.04080316 -0.02184492
v 0.05182926 0.04047030 -0.02235631
v 0.05695406 0.03841326 -0.02540408
v 0.05719216 0.03841060 -0.02539585
v 0.05182926 0.04143425 -0.02048487
v 0.05387956 0.04143425 -0.02033817
v 0.05182926 0.04115731 -0.02109771
v 0.05695406 0.04094961 -0.02109771
v 0.05500328 0.04143425 -0.02025180
v 0.05719216 0.04084443 -0.02128828
v 0.05490376 0.04104148 -0.02109771
v 0.05285409 0.04077786 -0.02181613
v 0.05285409 0.04046764 -0.02232889
v 0.05695406 0.03873213 -0.02489269
v 0.05719216 0.03865491 -0.02500237
v 0.05400742 0.04143425 -0.02032857
v 0.05490376 0.04143425 -0.02026002
v 0.05592859 0.04100021 -0.02109771
v 0.05719216 0.04067135 -0.02163789
v 0.05387956 0.04075323 -0.02177363
v 0.05490376 0.04072793 -0.02173249
v 0.05490376 0.04042104 -0.02224526
v 0.05387956 0.04044634 -0.02228638
v 0.05490376 0.03990844 -0.02310077
v 0.05719216 0.03872681 -0.02488309
v 0.05719216 0.04024596 -0.02234945
v 0.05719216 0.03985252 -0.02300754
v 0.05695406 0.03985851 -0.02301714
v 0.05592859 0.03988315 -0.02305964
f 1 2 3
f 1 3 8
f 1 8 18
f 1 18 33
f 1 33 41
f 1 41 51
f 1 51 62
f 1 62 72
f 1 72 74
f 1 74 73
f 1 73 66
f 1 66 57
f 1 57 46
f 1 46 36
f 1 36 21
f 1 21 10
f 1 10 4
f 1 4 9
f 1 9 19
f 1 19 11
f 1 11 5
f 1 5 2
f 2 5 6
f 2 6 3
f 3 6 7
f 3 7 8
f 4 10 9
f 5 11 12
f 5 12 6
f 6 12 13
f 6 13 7
f 7 13 14
f 7 14 8
f 8 15 16
f 8 16 17
f 8 17 18
f 8 14 15
f 9 10 20
f 9 20 35
f 9 35 44
f 9 44 47
f 9 47 38
f 9 38 28
f 9 28 31
f 9 31 26
f 9 26 25
f 9 25 24
f 9 24 23
f 9 23 22
f 9 22 19
f 10 21 37
f 10 37 45
f 10 45 56
f 10 56 64
f 10 64 63
f 10 63 53
f 10 53 52
f 10 52 42
f 10 42 35
f 10 35 20
f 11 22 12
f 11 19 22
f 12 22 23
f 12 23 24
f 12 24 25
f 12 25 26
f 12 26 27
f 12 27 13
f 13 27 14
f 14 28 29
f 14 29 30
f 14 30 15
f 14 27 26
f 14 26 31
f 14 31 28
f 15 32 16
f 15 30 32
f 16 32 17
f 17 33 18
f 17 32 34
f 17 34 33
f 21 36 37
f 28 38 39
f 28 39 29
f 29 39 32
f 29 32 30
f 32 39 34
f 33 34 40
f 33 40 41
f 34 39 40
f 35 42 43
f 35 43 44
f 36 45 37
f 36 46 45
f 38 47 43
f 38 43 39
f 39 43 48
f 39 48 49
f 39 49 40
f 40 49 48
f 40 48 41
f 41 48 50
f 41 50 51
f 42 52 43
f 43 47 44
f 43 52 53
f 43 53 54
f 43 54 48
f 45 46 55
f 45 55 56
f 46 57 55
f 48 54 58
f 48 58 59
f 48 59 60
f 48 60 50
f 50 60 51
f 51 60 61
f 51 61 62
f 53 63 54
f 54 63 64
f 54 64 58
f 55 57 65
f 55 65 56
f 56 65 58
f 56 58 64
f 57 66 65
f 58 65 59
f 59 65 67
f 59 67 68
f 59 68 69
f 59 69 70
f 59 70 71
f 59 71 61
f 59 61 60
f 61 71 62
f 62 71 72
f 65 66 68
f 65 68 67
f 66 73 68
f 68 73 74
f 68 74 75
f 68 75 69
f 69 75 76
f 69 76 70
f 70 76 71
f 71 76 72
f 72 76 75
f 72 75 74

