# https://github.com/mikedh/trimesh
v 0.04269536 0.01779832 -0.02514122
v 0.04452851 0.01779832 -0.03352338
v 0.04173650 0.01779832 -0.02514122
v 0.04554216 0.00221622 -0.02514122
v 0.04337025 0.01779832 -0.03352338
v 0.04555443 0.00214722 -0.02514122
v 0.04569861 0.00119260 -0.02514122
v 0.04570781 0.00110519 -0.02514122
v 0.04594183 -0.00184377 -0.02514122
v 0.04604219 -0.00319863 -0.02514122
v 0.04612458 -0.00438098 -0.02514122
v 0.04620477 -0.00556102 -0.02514122
v 0.04621266 -0.00570134 -0.02514122
v 0.04370200 -0.00570134 -0.03352338
v 0.04180267 0.01779832 -0.02601505
v 0.04173606 0.01764650 -0.02514122
v 0.04336499 0.01776612 -0.03352338
v 0.04308890 0.01732446 -0.03299088
v 0.04323702 0.01779832 -0.03313447
v 0.04492249 -0.00570134 -0.02514122
v 0.04263226 -0.00570134 -0.03352338
v 0.04188068 0.01779832 -0.02703984
v 0.04189558 0.01759130 -0.02724661
v 0.04181626 0.01656537 -0.02622181
v 0.04174263 0.01662058 -0.02514122
v 0.04204502 0.01451582 -0.02929702
v 0.04208665 0.01348990 -0.02986152
v 0.04334264 0.01762810 -0.03352338
v 0.04298416 0.01763500 -0.03244936
v 0.04299161 0.01779832 -0.03240751
v 0.04302141 0.01546814 -0.03352338
v 0.04304683 0.01656537 -0.03315498
v 0.04442246 -0.00570134 -0.02624807
v 0.04205904 0.01161057 -0.02514122
v 0.04259062 -0.00303531 -0.03352338
v 0.04262963 -0.00570134 -0.03339621
v 0.04177375 0.01559465 -0.02514122
v 0.04174395 0.01656537 -0.02514122
v 0.04208797 0.01287802 -0.02985331
v 0.04189689 0.01779832 -0.02724661
v 0.04197139 0.01656537 -0.02827222
v 0.04189251 0.01553945 -0.02724661
v 0.04208753 0.01451582 -0.02983608
v 0.04252533 0.00823836 -0.03352338
v 0.04252708 0.00721243 -0.03352338
v 0.04295568 0.01779832 -0.03226721
v 0.04284699 0.01656537 -0.03237141
v 0.04301440 0.01540373 -0.03352338
v 0.04419677 -0.00570134 -0.02680190
v 0.04204984 0.01166808 -0.02514122
v 0.04257572 -0.00188287 -0.03352338
v 0.04265987 -0.00570134 -0.03311314
v 0.04187542 0.01354510 -0.02514122
v 0.04182327 0.01457103 -0.02514122
v 0.04177638 0.01553945 -0.02514122
v 0.04254987 0.00119260 -0.03352338
v 0.04255556 0.00016668 -0.03352338
v 0.04256521 -0.00085925 -0.03352338
v 0.04199769 0.01779832 -0.02820905
v 0.04208928 0.01506329 -0.02981885
v 0.04253672 0.00926428 -0.03352338
v 0.04272297 0.01779832 -0.03134661
v 0.04273831 0.01553945 -0.03237141
v 0.04206474 0.01737737 -0.02889990
v 0.04292106 0.01451582 -0.03352338
v 0.04409247 -0.00570134 -0.02709071
v 0.04196438 0.01251458 -0.02514122
v 0.04275584 -0.00570134 -0.03237141
v 0.04283122 -0.00570134 -0.03205470
v 0.04403287 -0.00570134 -0.02729666
v 0.04201347 0.01779832 -0.02833048
v 0.04270325 0.01233746 -0.03352338
v 0.04262393 0.01131383 -0.03352338
v 0.04256784 0.01028791 -0.03352338
v 0.04204589 0.01779832 -0.02849294
v 0.04280405 0.01338639 -0.03352338
v 0.04278301 0.01348990 -0.03339621
f 1 2 5
f 1 5 19
f 1 19 30
f 1 30 46
f 1 46 62
f 1 62 75
f 1 75 71
f 1 71 59
f 1 59 40
f 1 40 22
f 1 22 15
f 1 15 3
f 1 3 16
f 1 16 25
f 1 25 38
f 1 38 37
f 1 37 55
f 1 55 54
f 1 54 53
f 1 53 67
f 1 67 50
f 1 50 34
f 1 34 20
f 1 20 13
f 1 13 12
f 1 12 11
f 1 11 10
f 1 10 9
f 1 9 8
f 1 8 7
f 1 7 6
f 1 6 4
f 1 4 2
f 2 4 6
f 2 6 7
f 2 7 8
f 2 8 9
f 2 9 10
f 2 10 11
f 2 11 12
f 2 12 13
f 2 13 14
f 2 14 21
f 2 21 35
f 2 35 51
f 2 51 58
f 2 58 57
f 2 57 56
f 2 56 45
f 2 45 44
f 2 44 61
f 2 61 74
f 2 74 73
f 2 73 72
f 2 72 76
f 2 76 65
f 2 65 48
f 2 48 31
f 2 31 28
f 2 28 17
f 2 17 5
f 3 15 16
f 5 17 18
f 5 18 19
f 13 20 33
f 13 33 49
f 13 49 66
f 13 66 70
f 13 70 69
f 13 69 68
f 13 68 52
f 13 52 36
f 13 36 21
f 13 21 14
f 15 22 23
f 15 23 16
f 16 24 25
f 16 23 26
f 16 26 27
f 16 27 24
f 17 28 18
f 18 29 30
f 18 30 19
f 18 28 31
f 18 31 32
f 18 32 29
f 20 34 33
f 21 36 37
f 21 37 38
f 21 38 25
f 21 25 39
f 21 39 35
f 22 40 23
f 23 41 26
f 23 40 41
f 24 27 42
f 24 42 25
f 25 42 39
f 26 43 27
f 26 41 43
f 27 43 44
f 27 44 45
f 27 45 39
f 27 39 42
f 29 46 30
f 29 32 47
f 29 47 46
f 31 48 32
f 32 48 47
f 33 34 49
f 34 50 49
f 35 39 51
f 36 52 53
f 36 53 54
f 36 54 55
f 36 55 37
f 39 45 56
f 39 56 57
f 39 57 58
f 39 58 51
f 40 59 60
f 40 60 41
f 41 60 43
f 43 60 44
f 44 60 61
f 46 47 62
f 47 48 63
f 47 63 64
f 47 64 62
f 48 65 63
f 49 50 66
f 50 67 68
f 50 68 69
f 50 69 70
f 50 70 66
f 52 68 67
f 52 67 53
f 59 71 64
f 59 64 60
f 60 64 72
f 60 72 73
f 60 73 74
f 60 74 61
f 62 64 75
f 63 65 76
f 63 76 77
f 63 77 64
f 64 71 75
f 64 77 72
f 72 77 76

