# https://github.com/mikedh/trimesh
v 0.06477314 -0.05599813 -0.00264696
v 0.06477314 -0.05596864 -0.00371009
v 0.06510290 -0.05589663 -0.00469589
v 0.06515467 -0.05593915 -0.00264696
v 0.06477314 -0.05598372 -0.00162074
v 0.06477314 -0.05591857 -0.00469589
v 0.06566410 -0.05569225 -0.00412304
v 0.06525516 -0.05589663 -0.00373820
v 0.06492279 -0.05580198 -0.00572212
v 0.06702621 -0.05480618 -0.00674658
v 0.06715411 -0.05488779 -0.00572212
v 0.06578635 -0.05575672 0.00094657
v 0.06477314 -0.05594121 -0.00059627
v 0.06477314 -0.05574643 -0.00629849
v 0.06608522 -0.05549611 -0.00373820
v 0.06568107 -0.05570528 -0.00343947
v 0.06766659 -0.05463472 -0.00572212
v 0.06575067 -0.05573957 -0.00059627
v 0.06577547 -0.05575123 0.00042819
v 0.06626359 -0.05488710 -0.00783782
v 0.06682827 -0.05472868 -0.00754085
v 0.06753912 -0.05458466 -0.00674658
v 0.06623792 -0.05547279 -0.00162074
v 0.06626315 -0.05547622 -0.00059627
v 0.06604041 -0.05561956 0.00094657
v 0.06542613 -0.05576632 0.00094657
v 0.06477314 -0.05584588 0.00049321
v 0.06477314 -0.05587879 0.00012946
v 0.06477314 -0.05472045 -0.01153679
v 0.06580070 -0.05472388 -0.00956518
v 0.06600039 -0.05479932 -0.00879551
v 0.06621269 -0.05546250 -0.00264696
v 0.06811903 -0.05407167 -0.00674658
v 0.06863151 -0.05352850 -0.00674658
v 0.06813078 -0.05412242 -0.00572212
v 0.06867371 -0.05358748 -0.00367143
v 0.06868458 -0.05359434 -0.00264696
v 0.06867501 -0.05358199 -0.00162074
v 0.06765223 -0.05461346 -0.00469589
v 0.06702665 -0.05495980 0.00094657
v 0.06703839 -0.05496254 0.00042819
v 0.06629882 -0.05547279 0.00094657
v 0.06628795 -0.05547553 0.00042819
v 0.06520818 -0.05384672 -0.01494582
v 0.06591033 -0.05376579 -0.01391960
v 0.06806204 -0.05395713 -0.00777105
v 0.06723547 -0.05383780 -0.01079700
v 0.06774577 -0.05366909 -0.01042271
v 0.06783321 -0.05373836 -0.00981998
v 0.06795937 -0.05384877 -0.00879551
v 0.06523428 -0.05576632 0.00094657
v 0.06513292 -0.05521081 0.00094657
v 0.06477314 -0.05530202 0.00049321
v 0.06477314 -0.05470947 -0.01158775
v 0.06857452 -0.05347089 -0.00777105
v 0.06903784 -0.05295790 -0.00777105
v 0.06921751 -0.05275284 -0.00777105
v 0.06921751 -0.05281250 -0.00706991
v 0.06906394 -0.05301551 -0.00674658
v 0.06908003 -0.05303745 -0.00572212
v 0.06909657 -0.05305734 -0.00469589
v 0.06910831 -0.05307517 -0.00367143
v 0.06911745 -0.05308203 -0.00264696
v 0.06921751 -0.05297024 -0.00162074
v 0.06921751 -0.05297367 0.00042819
v 0.06921751 -0.05297093 0.00089210
v 0.06921751 -0.05297024 0.00094657
v 0.06890515 -0.05327475 0.00094657
v 0.06862411 -0.05353330 0.00094657
v 0.06812338 -0.05401269 0.00042819
v 0.06814383 -0.05402915 -0.00059627
v 0.06757436 -0.05454214 -0.00059627
v 0.06728071 -0.05474308 0.00094657
v 0.06490235 -0.05376030 -0.01569264
v 0.06681043 -0.05268014 -0.01661519
v 0.06699315 -0.05276861 -0.01597028
v 0.06574850 -0.05368829 -0.01460492
v 0.06847228 -0.05337419 -0.00879551
v 0.06690614 -0.05375207 -0.01187067
v 0.06675431 -0.05367869 -0.01251381
v 0.06727157 -0.05286394 -0.01497393
v 0.06779580 -0.05267328 -0.01465060
v 0.06791239 -0.05275695 -0.01391960
v 0.06872809 -0.05158489 -0.01643244
v 0.06879813 -0.05166170 -0.01574887
v 0.06856408 -0.05245862 -0.01289513
v 0.06526343 -0.05493922 0.00094657
v 0.06555317 -0.05460660 0.00094657
v 0.06477314 -0.05506061 -0.00059627
v 0.06477314 -0.05395028 -0.01494582
v 0.06879769 -0.05268151 -0.01062655
v 0.06887426 -0.05276107 -0.00981998
v 0.06897171 -0.05286188 -0.00879551
v 0.06921751 -0.05260196 -0.00879551
v 0.06921751 -0.05270140 -0.00818224
v 0.06921751 -0.05282896 -0.00674658
v 0.06921751 -0.05285845 -0.00600503
v 0.06921751 -0.05289960 -0.00494718
v 0.06921751 -0.05290920 -0.00469589
v 0.06921751 -0.05294212 -0.00367143
v 0.06921751 -0.05296270 -0.00264696
v 0.06921751 -0.05108356 0.00094657
v 0.06811164 -0.05400240 0.00094657
v 0.06755087 -0.05452499 0.00042819
v 0.06753912 -0.05451470 0.00094657
v 0.06477314 -0.05376922 -0.01571549
v 0.06514553 -0.05306351 -0.01700529
v 0.06515467 -0.05306146 -0.01700529
v 0.06612046 -0.05278781 -0.01700529
v 0.06613960 -0.05279467 -0.01697191
v 0.06660727 -0.05258344 -0.01700529
v 0.06717500 -0.05233860 -0.01700529
v 0.06811816 -0.05185510 -0.01700529
v 0.06812034 -0.05185716 -0.01699475
v 0.06750519 -0.05249428 -0.01597028
v 0.06863281 -0.05151082 -0.01699475
v 0.06907656 -0.05099166 -0.01700529
v 0.06921751 -0.05081472 -0.01700529
v 0.06921751 -0.05113431 -0.01573130
v 0.06921751 -0.05131673 -0.01498623
v 0.06921751 -0.05156843 -0.01391960
v 0.06921751 -0.05179201 -0.01289513
v 0.06887470 -0.05174400 -0.01494582
v 0.06477314 -0.05183590 -0.01700529
v 0.06907482 -0.05194563 -0.01289513
v 0.06921751 -0.05240650 -0.00981998
v 0.06921751 -0.05248880 -0.00940176
v 0.06921751 -0.04899250 -0.01700529
v 0.06477314 -0.05311838 -0.01700529
v 0.06862977 -0.05150945 -0.01700529
f 1 2 3
f 1 3 4
f 1 4 5
f 1 5 13
f 1 13 28
f 1 28 27
f 1 27 53
f 1 53 89
f 1 89 124
f 1 124 129
f 1 129 106
f 1 106 90
f 1 90 54
f 1 54 29
f 1 29 14
f 1 14 6
f 1 6 2
f 2 6 3
f 3 7 8
f 3 8 4
f 3 6 9
f 3 9 10
f 3 10 11
f 3 11 7
f 4 8 12
f 4 12 5
f 5 12 13
f 6 14 9
f 7 15 16
f 7 16 8
f 7 11 17
f 7 17 15
f 8 16 18
f 8 18 19
f 8 19 12
f 9 14 20
f 9 20 10
f 10 20 21
f 10 21 22
f 10 22 11
f 11 22 17
f 12 19 23
f 12 23 24
f 12 24 25
f 12 25 42
f 12 42 40
f 12 40 73
f 12 73 105
f 12 105 103
f 12 103 69
f 12 69 68
f 12 68 67
f 12 67 102
f 12 102 88
f 12 88 87
f 12 87 52
f 12 52 51
f 12 51 26
f 12 26 27
f 12 27 28
f 12 28 13
f 14 29 30
f 14 30 31
f 14 31 20
f 15 32 16
f 15 17 32
f 16 32 18
f 17 22 33
f 17 33 34
f 17 34 35
f 17 35 36
f 17 36 37
f 17 37 38
f 17 38 39
f 17 39 40
f 17 40 41
f 17 41 42
f 17 42 43
f 17 43 25
f 17 25 24
f 17 24 23
f 17 23 32
f 18 32 19
f 19 32 23
f 20 31 21
f 21 31 30
f 21 30 44
f 21 44 45
f 21 45 22
f 22 46 33
f 22 45 47
f 22 47 48
f 22 48 49
f 22 49 50
f 22 50 46
f 25 43 42
f 26 51 27
f 27 51 52
f 27 52 53
f 29 54 44
f 29 44 30
f 33 46 55
f 33 55 34
f 34 55 56
f 34 56 57
f 34 57 58
f 34 58 59
f 34 59 60
f 34 60 61
f 34 61 36
f 34 36 35
f 36 61 62
f 36 62 37
f 37 63 64
f 37 64 65
f 37 65 66
f 37 66 67
f 37 67 38
f 37 62 63
f 38 67 68
f 38 68 69
f 38 69 70
f 38 70 71
f 38 71 39
f 39 71 70
f 39 70 72
f 39 72 73
f 39 73 40
f 40 42 41
f 44 74 75
f 44 75 76
f 44 76 77
f 44 77 45
f 44 54 74
f 45 77 47
f 46 50 78
f 46 78 55
f 47 77 79
f 47 79 80
f 47 80 81
f 47 81 48
f 48 81 82
f 48 82 83
f 48 83 84
f 48 84 49
f 49 84 50
f 50 84 85
f 50 85 86
f 50 86 78
f 52 87 53
f 53 87 88
f 53 88 89
f 54 90 74
f 55 78 91
f 55 91 92
f 55 92 93
f 55 93 94
f 55 94 95
f 55 95 56
f 56 95 57
f 57 95 94
f 57 94 127
f 57 127 126
f 57 126 122
f 57 122 121
f 57 121 120
f 57 120 119
f 57 119 118
f 57 118 128
f 57 128 102
f 57 102 67
f 57 67 66
f 57 66 65
f 57 65 64
f 57 64 101
f 57 101 100
f 57 100 99
f 57 99 98
f 57 98 97
f 57 97 96
f 57 96 58
f 58 96 59
f 59 96 60
f 60 96 97
f 60 97 61
f 61 98 99
f 61 99 100
f 61 100 62
f 61 97 98
f 62 100 101
f 62 101 63
f 63 101 64
f 69 103 70
f 70 103 105
f 70 105 104
f 70 104 72
f 72 104 73
f 73 104 105
f 74 90 106
f 74 106 107
f 74 107 108
f 74 108 109
f 74 109 110
f 74 110 75
f 75 110 109
f 75 109 111
f 75 111 112
f 75 112 113
f 75 113 114
f 75 114 115
f 75 115 76
f 76 115 82
f 76 82 81
f 76 81 77
f 77 81 80
f 77 80 79
f 78 86 85
f 78 85 91
f 82 115 114
f 82 114 116
f 82 116 84
f 82 84 83
f 84 116 117
f 84 117 118
f 84 118 119
f 84 119 120
f 84 120 85
f 85 120 121
f 85 121 122
f 85 122 123
f 85 123 91
f 88 102 124
f 88 124 89
f 91 125 126
f 91 126 127
f 91 127 92
f 91 123 125
f 92 127 93
f 93 127 94
f 102 128 124
f 106 129 107
f 107 129 124
f 107 124 128
f 107 128 118
f 107 118 117
f 107 117 130
f 107 130 113
f 107 113 112
f 107 112 111
f 107 111 109
f 107 109 108
f 113 130 114
f 114 130 116
f 116 130 117
f 122 126 125
f 122 125 123

