# https://github.com/mikedh/trimesh
v -0.04589900 0.03264784 0.00331271
v -0.04586369 0.03420223 0.00881052
v -0.04589395 0.03239989 -0.00500989
v -0.04585360 0.03149396 0.00645512
v -0.04331140 0.03434527 0.00900165
v -0.03337464 0.03647184 0.00901852
v 0.00563095 0.04582682 0.00851258
v -0.00388212 0.04382422 0.00838891
v -0.01039398 0.04267035 0.00803476
v -0.02463836 0.03949480 0.00789422
v -0.00563744 0.04439639 0.00674182
v -0.04192934 0.03564219 0.00721683
v -0.04582838 0.03511770 0.00495418
v -0.04507177 0.02974884 0.00888922
v -0.04211597 0.02773671 0.00941483
v -0.04565688 0.03116020 -0.00972070
v -0.04581325 0.03087411 -0.00092027
v -0.04582334 0.03366821 -0.01252020
v -0.04421428 0.02429415 0.00658160
v -0.03987641 0.03444063 0.00926024
v 0.00563095 0.04570285 0.00856599
v 0.00563095 0.04671368 0.00704538
v 0.00281133 0.04605569 0.00726180
v 0.00024895 0.04617012 0.00461971
v -0.01451496 0.04255591 0.00567654
v -0.04446649 0.03524167 -0.01072975
v -0.04556609 0.03412594 -0.01625567
v -0.00616203 0.04483506 0.00342514
v -0.04383094 0.03610946 -0.00157236
v -0.04097097 0.01498686 0.00903257
v -0.03847417 0.00177927 0.00820340
v -0.02640377 -0.04685518 0.00789703
v -0.02688295 -0.04262112 0.00862782
v -0.02280737 0.00430635 0.01014843
v -0.02892075 0.02022221 0.00984487
v -0.03800507 0.03279088 0.00940640
v -0.03194717 -0.01879024 0.00910565
v -0.02849200 -0.02324363 0.00948510
v -0.02407342 -0.02668619 0.00983644
v -0.02395741 -0.01128528 0.01000228
v -0.04531893 0.03044498 -0.01603362
v -0.04500116 0.02834702 -0.01225318
v -0.04376537 0.02239646 0.00144357
v -0.03174037 -0.02738233 -0.01698646
v -0.02852227 -0.04070435 -0.01734624
v -0.03913493 0.00357207 0.00564282
v -0.02751346 -0.04347938 0.00590703
v 0.00563095 0.04037213 0.00923775
v 0.00563095 0.04709513 0.00548823
v 0.00563095 0.04739075 0.00390578
v -0.04303398 0.03542286 -0.01309078
v -0.04187385 0.03650998 -0.00585593
v 0.00563095 0.04738121 -0.01114293
v 0.00563095 0.04604615 -0.01681501
v -0.01848462 0.04012419 -0.01699490
v -0.02827511 0.03759711 -0.01713262
v -0.04288770 0.03458368 -0.01644399
v -0.04099114 0.03414501 -0.01699490
v -0.04436056 0.03066431 -0.01695274
v 0.00563095 0.04758147 0.00018998
v -0.03395470 -0.01190513 0.00905506
v -0.02570769 -0.04976371 0.00590140
v -0.02404820 -0.04868612 0.00804600
v -0.02513772 -0.04669306 0.00883582
v -0.01859559 0.01498686 0.01008941
v -0.01767253 -0.00205427 0.01024400
v -0.02385653 0.02007917 0.00989828
v 0.00563095 0.02822305 0.00986455
v 0.00563095 0.03054034 0.00976336
v -0.02618688 -0.03793886 0.00914500
v -0.01838374 -0.03400996 0.00953850
v -0.00993497 -0.02469313 0.00980833
v -0.01897389 -0.01756961 0.01007536
v -0.04442109 0.02632536 -0.01560639
v -0.04356361 0.02459931 -0.01676441
v -0.03253733 -0.02331039 -0.01754861
v -0.03369746 -0.01910494 -0.01690495
v -0.03051971 -0.03136845 -0.01787185
v -0.02634829 -0.04651188 -0.01838059
v -0.02680225 -0.04734152 -0.01709608
v -0.02748320 -0.04484305 -0.01689652
v -0.03655743 0.03746360 -0.01053862
v -0.00657564 0.04452036 -0.01093213
v 0.00563095 0.04747657 -0.00737373
v -0.01364234 0.04289921 -0.01055549
v 0.00563095 0.04577914 -0.01704830
v 0.00413791 0.04562656 -0.01689933
v -0.00265642 0.04360489 -0.01721694
v -0.01256796 0.04075358 -0.01747834
v -0.01958927 0.03873191 -0.01744743
v -0.03850443 0.03330583 -0.01718041
v -0.04215127 0.02483772 -0.01717759
v -0.04086504 0.01469124 -0.01726754
v -0.02574805 -0.04915339 -0.01344774
v -0.02413395 -0.04984000 0.00259597
v 0.00563095 -0.04264019 0.00385237
v -0.00025041 -0.04369871 0.00537580
v 0.00563095 -0.04199173 0.00642982
v -0.01975572 -0.04641652 0.00848729
v 0.00563095 -0.04154353 0.00745574
v 0.00563095 -0.04002729 0.00848166
v 0.00425897 -0.04017986 0.00854069
v 0.00132333 -0.03783397 0.00891452
v -0.01124138 -0.03917857 0.00915062
v 0.00563095 0.01692270 0.01005568
v -0.01084290 -0.00011843 0.01020465
v -0.00485057 -0.03124448 0.00945699
v 0.00563095 -0.02108846 0.00946261
v 0.00563095 -0.01666368 0.00958910
v 0.00563095 -0.01137111 0.00973244
v -0.00812416 -0.01358350 0.00998260
v -0.02862315 -0.03754788 -0.01824568
v -0.02217182 -0.04410876 -0.01844243
v -0.02301922 -0.04737967 -0.01832438
v -0.02571274 -0.04894360 -0.01712981
v -0.02728143 0.01454819 -0.01787466
v -0.01693106 0.02584855 -0.01807703
v 0.00563095 0.04414845 -0.01773412
v 0.00455657 0.04370979 -0.01776223
v -0.01065122 0.03754942 -0.01786623
v -0.02039127 0.03571848 -0.01768072
v -0.03067607 0.03292438 -0.01747834
v -0.03675919 0.02564829 -0.01736591
v -0.03925599 0.01688455 -0.01740245
v -0.02335717 -0.04958252 -0.00620727
v -0.02219199 -0.04952531 -0.00157517
v 0.00563095 -0.04298350 -0.00086124
v 0.00563095 -0.04272602 0.00313845
v 0.00563095 -0.03898784 0.00859691
v 0.00563095 -0.03639401 0.00885549
v 0.00563095 0.01683687 0.01005568
v 0.00563095 0.00335273 0.00997698
v 0.00563095 -0.03366666 0.00899884
v 0.00563095 -0.02043046 -0.01847054
v 0.00563095 -0.02833595 -0.01843681
v -0.01044442 -0.04017033 -0.01842275
v -0.01491848 0.00969428 -0.01822038
v -0.00232351 0.01458634 -0.01835530
v -0.01616436 -0.04640698 -0.01727597
v 0.00177730 -0.03977934 -0.01818946
v 0.00563095 -0.03925486 -0.01802082
v -0.00976347 -0.04376546 -0.01811357
v -0.00092631 -0.04249715 -0.01731251
v -0.01427789 -0.04738921 -0.01060327
v -0.02112266 -0.04916293 -0.00950989
v -0.02337230 -0.04929644 -0.01056392
v 0.00563095 -0.04099997 -0.01688247
v 0.00563095 -0.04279277 -0.01040090
v -0.00678749 0.03054988 -0.01817260
v 0.00563095 0.04348092 -0.01778752
v 0.00382014 0.03733009 -0.01807984
v -0.01471672 -0.04780880 -0.00367198
v -0.00810903 -0.04627347 -0.00327567
v 0.00563095 -0.04288814 -0.00716573
v 0.00563095 0.00158854 -0.01840027
v 0.00563095 -0.03580276 -0.01826535
v 0.00563095 0.02794651 -0.01826254
v 0.00563095 0.02497122 -0.01829065
v 0.00563095 -0.03996053 -0.01756267
v 0.00563095 -0.04285952 -0.00868634
v 0.00563095 0.03798809 -0.01806579
v 0.00563095 0.03262876 -0.01817260
f 1 2 3
f 1 3 4
f 1 4 2
f 2 5 6
f 2 6 7
f 2 7 8
f 2 8 9
f 2 9 10
f 2 10 11
f 2 11 12
f 2 12 13
f 2 13 3
f 2 4 14
f 2 14 15
f 2 15 5
f 3 16 17
f 3 17 4
f 3 13 18
f 3 18 16
f 4 17 19
f 4 19 14
f 5 15 20
f 5 20 6
f 6 21 7
f 6 20 21
f 7 21 48
f 7 48 69
f 7 69 68
f 7 68 105
f 7 105 131
f 7 131 132
f 7 132 110
f 7 110 109
f 7 109 108
f 7 108 133
f 7 133 130
f 7 130 129
f 7 129 101
f 7 101 100
f 7 100 98
f 7 98 96
f 7 96 128
f 7 128 127
f 7 127 154
f 7 154 160
f 7 160 148
f 7 148 147
f 7 147 159
f 7 159 141
f 7 141 156
f 7 156 135
f 7 135 134
f 7 134 155
f 7 155 158
f 7 158 157
f 7 157 162
f 7 162 161
f 7 161 150
f 7 150 118
f 7 118 86
f 7 86 54
f 7 54 53
f 7 53 84
f 7 84 60
f 7 60 50
f 7 50 49
f 7 49 22
f 7 22 23
f 7 23 9
f 7 9 8
f 9 23 11
f 9 11 10
f 11 23 22
f 11 22 24
f 11 24 25
f 11 25 12
f 12 25 13
f 13 26 27
f 13 27 18
f 13 25 28
f 13 28 29
f 13 29 26
f 14 30 15
f 14 19 31
f 14 31 32
f 14 32 33
f 14 33 30
f 15 34 35
f 15 35 36
f 15 36 20
f 15 30 37
f 15 37 38
f 15 38 39
f 15 39 40
f 15 40 34
f 16 18 41
f 16 41 42
f 16 42 17
f 17 43 19
f 17 42 44
f 17 44 45
f 17 45 43
f 18 27 41
f 19 43 45
f 19 45 46
f 19 46 47
f 19 47 31
f 20 36 48
f 20 48 21
f 22 49 24
f 24 49 50
f 24 50 28
f 24 28 25
f 26 51 27
f 26 29 52
f 26 52 51
f 27 51 53
f 27 53 54
f 27 54 55
f 27 55 56
f 27 56 57
f 27 57 58
f 27 58 59
f 27 59 41
f 28 50 60
f 28 60 29
f 29 60 52
f 30 33 61
f 30 61 37
f 31 47 32
f 32 62 63
f 32 63 64
f 32 64 33
f 32 47 62
f 33 64 37
f 33 37 61
f 34 65 35
f 34 40 66
f 34 66 65
f 35 65 67
f 35 67 36
f 36 67 68
f 36 68 69
f 36 69 48
f 37 70 38
f 37 64 70
f 38 70 39
f 39 70 64
f 39 64 71
f 39 71 72
f 39 72 73
f 39 73 40
f 40 73 66
f 41 74 42
f 41 59 75
f 41 75 76
f 41 76 77
f 41 77 74
f 42 74 77
f 42 77 44
f 44 77 76
f 44 76 45
f 45 76 78
f 45 78 79
f 45 79 80
f 45 80 81
f 45 81 47
f 45 47 46
f 47 81 80
f 47 80 62
f 51 52 82
f 51 82 83
f 51 83 53
f 52 60 84
f 52 84 53
f 52 53 85
f 52 85 82
f 53 83 85
f 54 86 87
f 54 87 55
f 55 87 88
f 55 88 56
f 56 88 89
f 56 89 90
f 56 90 58
f 56 58 57
f 58 91 59
f 58 90 91
f 59 92 93
f 59 93 75
f 59 91 92
f 62 80 94
f 62 94 95
f 62 95 96
f 62 96 97
f 62 97 98
f 62 98 63
f 63 99 64
f 63 98 100
f 63 100 101
f 63 101 99
f 64 99 101
f 64 101 102
f 64 102 103
f 64 103 104
f 64 104 71
f 65 105 68
f 65 68 67
f 65 66 105
f 66 73 106
f 66 106 105
f 71 104 107
f 71 107 72
f 72 107 108
f 72 108 109
f 72 109 110
f 72 110 111
f 72 111 73
f 73 111 106
f 75 93 78
f 75 78 76
f 78 112 79
f 78 93 112
f 79 113 114
f 79 114 115
f 79 115 80
f 79 112 116
f 79 116 117
f 79 117 113
f 80 115 94
f 82 85 83
f 86 118 88
f 86 88 87
f 88 118 89
f 89 118 119
f 89 119 90
f 90 119 120
f 90 120 121
f 90 121 91
f 91 121 122
f 91 122 92
f 92 122 123
f 92 123 124
f 92 124 112
f 92 112 93
f 94 115 125
f 94 125 95
f 95 125 126
f 95 126 127
f 95 127 128
f 95 128 96
f 96 98 97
f 101 129 102
f 102 129 103
f 103 129 130
f 103 130 107
f 103 107 104
f 105 106 131
f 106 111 132
f 106 132 131
f 107 130 133
f 107 133 108
f 110 132 111
f 112 124 116
f 113 134 135
f 113 135 136
f 113 136 114
f 113 117 137
f 113 137 138
f 113 138 134
f 114 139 115
f 114 136 140
f 114 140 141
f 114 141 142
f 114 142 143
f 114 143 139
f 115 144 145
f 115 145 146
f 115 146 125
f 115 139 143
f 115 143 147
f 115 147 148
f 115 148 144
f 116 124 123
f 116 123 122
f 116 122 117
f 117 122 121
f 117 121 120
f 117 120 149
f 117 149 138
f 117 138 137
f 118 150 119
f 119 150 151
f 119 151 120
f 120 151 149
f 125 146 145
f 125 145 126
f 126 145 152
f 126 152 153
f 126 153 127
f 127 153 154
f 134 138 155
f 135 156 136
f 136 156 140
f 138 149 157
f 138 157 158
f 138 158 155
f 140 156 141
f 141 159 143
f 141 143 142
f 143 159 147
f 144 148 145
f 145 153 152
f 145 148 160
f 145 160 153
f 149 151 157
f 150 161 151
f 151 161 162
f 151 162 157
f 153 160 154

