# https://github.com/mikedh/trimesh
v -0.00617180 0.03731431 -0.02327105
v -0.00617180 0.03782848 -0.01382240
v -0.00617180 0.03819542 -0.02327105
v 0.00905300 0.03702119 -0.02327105
v 0.00905300 0.03714723 -0.01382240
v -0.00617180 0.03862282 -0.01382240
v -0.00617180 0.03823625 -0.02291864
v -0.00153253 0.03902256 -0.02327105
v 0.00905300 0.03786640 -0.02327105
v 0.00905300 0.03810731 -0.01382240
v -0.00528358 0.03883786 -0.01382240
v -0.00528507 0.03883875 -0.01402682
v -0.00530743 0.03885749 -0.01825582
v -0.00617180 0.03863777 -0.01825582
v -0.00617180 0.03842898 -0.02122685
v -0.00074416 0.03916309 -0.02327105
v 0.00904107 0.03804173 -0.02206766
v 0.00905300 0.03803593 -0.02207968
v 0.00845390 0.03807117 -0.02327105
v 0.00905300 0.03810731 -0.01571861
v 0.00894719 0.03813430 -0.01382240
v -0.00518224 0.03886173 -0.01382240
v -0.00617180 0.03850259 -0.02038142
v -0.00617180 0.03859561 -0.01910033
v -0.00486034 0.03893422 -0.01382240
v -0.00486183 0.03893445 -0.01402682
v -0.00488120 0.03893690 -0.01740946
v -0.00488568 0.03893757 -0.01825582
v -0.00470237 0.03891415 -0.01910033
v -0.00068604 0.03917202 -0.02327105
v 0.00864615 0.03809237 -0.02240343
v 0.00861485 0.03814300 -0.02163754
v 0.00776986 0.03838882 -0.01994576
v 0.00905300 0.03804441 -0.02197701
v 0.00905300 0.03803816 -0.02205748
v 0.00842409 0.03808077 -0.02327105
v 0.00905300 0.03810709 -0.01825582
v 0.00861485 0.03821795 -0.01910033
v 0.00861485 0.03821818 -0.01656403
v 0.00861485 0.03821840 -0.01402682
v 0.00861485 0.03821840 -0.01382240
v -0.00425975 0.03901163 -0.01382240
v -0.00486630 0.03893512 -0.01487225
v -0.00322400 0.03914502 -0.01382240
v -0.00322400 0.03914658 -0.01487225
v -0.00322400 0.03914904 -0.01656403
v -0.00322400 0.03915015 -0.01740946
v -0.00322400 0.03915127 -0.01825582
v -0.00322400 0.03911625 -0.01910033
v -0.00068604 0.03922823 -0.02248297
v 0.00010232 0.03927284 -0.02327105
v 0.00358960 0.03894203 -0.02327105
v 0.00406202 0.03890433 -0.02248297
v 0.00776986 0.03834332 -0.02079211
v 0.00776986 0.03841737 -0.01910033
v 0.00905300 0.03809415 -0.02079211
v 0.00861485 0.03818449 -0.02079211
v 0.00905300 0.03806627 -0.02156170
v 0.00905300 0.03806247 -0.02163754
v 0.00481461 0.03888783 -0.02038790
v 0.00905300 0.03810687 -0.01976169
v 0.00905300 0.03809906 -0.02062284
v 0.00861485 0.03820970 -0.01994576
v 0.00776986 0.03842563 -0.01825582
v 0.00776986 0.03842585 -0.01740946
v 0.00776986 0.03842585 -0.01571861
v 0.00776986 0.03842563 -0.01382240
v -0.00237752 0.03922310 -0.01382240
v -0.00237752 0.03922354 -0.01487225
v -0.00237752 0.03922488 -0.01825582
v -0.00237752 0.03921038 -0.01910033
v -0.00237752 0.03916978 -0.01994576
v -0.00153253 0.03922243 -0.02079211
v 0.00015895 0.03927753 -0.02327105
v 0.00358066 0.03894359 -0.02327105
v 0.00269542 0.03909372 -0.02327105
v 0.00419763 0.03892619 -0.02163754
v 0.00482654 0.03888894 -0.01994576
v 0.00184894 0.03921618 -0.02327105
v 0.00184894 0.03922421 -0.02248297
v 0.00484144 0.03889050 -0.01910033
v 0.00491595 0.03889920 -0.01402682
v 0.00491893 0.03889942 -0.01382240
v -0.00153253 0.03925812 -0.01382240
v -0.00153253 0.03925589 -0.01740946
v -0.00153253 0.03925477 -0.01910033
v -0.00153253 0.03924853 -0.01994576
v -0.00068604 0.03926303 -0.02163754
v 0.00015895 0.03929693 -0.02248297
v 0.00094731 0.03929024 -0.02327105
v 0.00354042 0.03903483 -0.02079211
v 0.00438690 0.03894002 -0.01994576
v 0.00100544 0.03928979 -0.02327105
v 0.00184894 0.03923001 -0.02079211
v 0.00184894 0.03923581 -0.01910033
v 0.00269542 0.03915551 -0.01402682
v 0.00438690 0.03895452 -0.01571861
v 0.00269542 0.03915618 -0.01382240
v 0.00478779 0.03891459 -0.01382240
v -0.00068604 0.03928087 -0.01382240
v -0.00068604 0.03928087 -0.01402682
v -0.00068604 0.03927931 -0.01656403
v -0.00068604 0.03927663 -0.02079211
v 0.00015895 0.03929894 -0.02163754
v 0.00100544 0.03929492 -0.02079211
v 0.00184894 0.03923826 -0.01825582
v 0.00184894 0.03923983 -0.01740946
v 0.00184894 0.03924050 -0.01656403
v 0.00184894 0.03924094 -0.01571861
v 0.00184894 0.03924161 -0.01382240
v -0.00004373 0.03929136 -0.01382240
v 0.00015895 0.03929738 -0.01656403
v 0.00015895 0.03929983 -0.01910033
v 0.00015895 0.03929983 -0.01994576
v 0.00015895 0.03929939 -0.02079211
v 0.00100544 0.03929760 -0.01910033
v 0.00100544 0.03929648 -0.01994576
v 0.00100544 0.03929760 -0.01825582
v 0.00100544 0.03929671 -0.01740946
v 0.00100544 0.03929470 -0.01656403
v 0.00100544 0.03929024 -0.01487225
v 0.00100544 0.03928734 -0.01382240
v 0.00015895 0.03929470 -0.01402682
v 0.00015895 0.03929559 -0.01487225
v 0.00015895 0.03929448 -0.01382240
v 0.00080127 0.03928935 -0.01382240
f 1 2 6
f 1 6 14
f 1 14 24
f 1 24 23
f 1 23 15
f 1 15 7
f 1 7 3
f 1 3 8
f 1 8 16
f 1 16 30
f 1 30 51
f 1 51 74
f 1 74 90
f 1 90 93
f 1 93 79
f 1 79 76
f 1 76 75
f 1 75 52
f 1 52 36
f 1 36 19
f 1 19 9
f 1 9 4
f 1 4 5
f 1 5 2
f 2 5 10
f 2 10 21
f 2 21 41
f 2 41 67
f 2 67 83
f 2 83 99
f 2 99 98
f 2 98 110
f 2 110 122
f 2 122 126
f 2 126 125
f 2 125 111
f 2 111 100
f 2 100 84
f 2 84 68
f 2 68 44
f 2 44 42
f 2 42 25
f 2 25 22
f 2 22 11
f 2 11 6
f 3 7 8
f 4 9 18
f 4 18 35
f 4 35 34
f 4 34 59
f 4 59 58
f 4 58 56
f 4 56 62
f 4 62 61
f 4 61 37
f 4 37 20
f 4 20 10
f 4 10 5
f 6 11 12
f 6 12 13
f 6 13 14
f 7 15 16
f 7 16 8
f 9 17 18
f 9 19 17
f 10 20 21
f 11 22 12
f 12 22 13
f 13 23 24
f 13 24 14
f 13 22 25
f 13 25 26
f 13 26 27
f 13 27 28
f 13 28 29
f 13 29 23
f 15 23 29
f 15 29 16
f 16 29 30
f 17 31 32
f 17 32 33
f 17 33 34
f 17 34 35
f 17 35 18
f 17 19 36
f 17 36 31
f 20 37 21
f 21 38 39
f 21 39 40
f 21 40 41
f 21 37 38
f 25 42 26
f 26 43 27
f 26 42 44
f 26 44 45
f 26 45 43
f 27 43 28
f 28 43 45
f 28 45 46
f 28 46 47
f 28 47 48
f 28 48 49
f 28 49 29
f 29 49 50
f 29 50 30
f 30 50 51
f 31 36 52
f 31 52 53
f 31 53 54
f 31 54 32
f 32 54 33
f 33 55 56
f 33 56 57
f 33 57 58
f 33 58 59
f 33 59 34
f 33 54 60
f 33 60 55
f 37 61 38
f 38 61 62
f 38 62 63
f 38 63 64
f 38 64 65
f 38 65 39
f 39 65 40
f 40 65 66
f 40 66 41
f 41 66 67
f 44 68 45
f 45 68 46
f 46 68 47
f 47 68 48
f 48 68 69
f 48 69 70
f 48 70 71
f 48 71 49
f 49 71 72
f 49 72 50
f 50 72 73
f 50 73 51
f 51 73 74
f 52 75 53
f 53 75 76
f 53 76 77
f 53 77 60
f 53 60 54
f 55 64 63
f 55 63 62
f 55 62 56
f 55 60 64
f 56 58 57
f 60 78 64
f 60 77 76
f 60 76 79
f 60 79 80
f 60 80 78
f 64 78 81
f 64 81 82
f 64 82 83
f 64 83 65
f 65 83 66
f 66 83 67
f 68 84 69
f 69 84 70
f 70 84 85
f 70 85 86
f 70 86 87
f 70 87 71
f 71 87 88
f 71 88 74
f 71 74 73
f 71 73 72
f 74 89 90
f 74 88 89
f 78 91 92
f 78 92 81
f 78 80 91
f 79 93 80
f 80 94 81
f 80 81 91
f 80 93 94
f 81 92 91
f 81 94 95
f 81 95 96
f 81 96 97
f 81 97 82
f 82 97 96
f 82 96 98
f 82 98 99
f 82 99 83
f 84 100 101
f 84 101 102
f 84 102 85
f 85 102 103
f 85 103 86
f 86 103 87
f 87 103 89
f 87 89 88
f 89 104 90
f 89 103 104
f 90 105 93
f 90 104 105
f 93 105 106
f 93 106 95
f 93 95 94
f 95 106 98
f 95 98 96
f 98 106 107
f 98 107 108
f 98 108 109
f 98 109 110
f 100 111 112
f 100 112 113
f 100 113 114
f 100 114 101
f 101 114 115
f 101 115 104
f 101 104 102
f 102 104 103
f 104 115 116
f 104 116 117
f 104 117 105
f 105 117 107
f 105 107 106
f 107 117 116
f 107 116 108
f 108 116 109
f 109 116 110
f 110 116 118
f 110 118 119
f 110 119 120
f 110 120 121
f 110 121 122
f 111 123 124
f 111 124 112
f 111 125 123
f 112 124 119
f 112 119 118
f 112 118 113
f 113 118 116
f 113 116 114
f 114 116 115
f 119 124 123
f 119 123 125
f 119 125 120
f 120 125 126
f 120 126 121
f 121 126 122

