# https://github.com/mikedh/trimesh
v -0.03855809 0.01752599 -0.03447005
v -0.03807332 0.01752599 -0.03503484
v -0.03728513 0.01752599 -0.03447005
v -0.03826252 0.01901401 -0.03447005
v -0.03822764 0.01901401 -0.03453982
v -0.03774200 0.01985893 -0.03501971
v -0.03761209 0.01752599 -0.03556245
v -0.03528676 0.01752599 -0.03594258
v -0.03470172 0.01816758 -0.03594258
v -0.02965174 0.02540588 -0.03594258
v -0.02965174 0.03156581 -0.03447005
v -0.03802885 0.01981224 -0.03447005
v -0.03759988 0.02070535 -0.03491519
v -0.03673235 0.02239670 -0.03571093
v -0.03682303 0.02155027 -0.03577709
v -0.03723718 0.01752599 -0.03594258
v -0.02965174 0.03099500 -0.03594258
v -0.02965174 0.03291076 -0.03447005
v -0.03772020 0.02070535 -0.03447005
v -0.03749613 0.02117375 -0.03479598
v -0.03665475 0.02287564 -0.03563380
v -0.03631297 0.02317836 -0.03594258
v -0.03651176 0.02239670 -0.03594258
v -0.03664080 0.02155027 -0.03594258
v -0.02997695 0.03085193 -0.03594258
v -0.02965174 0.03169835 -0.03582437
v -0.02965174 0.03276617 -0.03516948
v -0.02973021 0.03284750 -0.03447005
v -0.03751531 0.02121592 -0.03447005
v -0.03668353 0.02293287 -0.03516948
v -0.03647253 0.02335458 -0.03516948
v -0.03579594 0.02452783 -0.03564260
v -0.03591713 0.02409708 -0.03594258
v -0.03028735 0.03063655 -0.03594258
v -0.03028735 0.03085193 -0.03591144
v -0.03027950 0.03170136 -0.03571784
v -0.02965174 0.03238212 -0.03566667
v -0.02999265 0.03221042 -0.03564014
v -0.03014348 0.03235049 -0.03516948
v -0.03056635 0.03199053 -0.03516948
v -0.03028822 0.03236254 -0.03447005
v -0.03670358 0.02296902 -0.03447005
v -0.03666696 0.02304282 -0.03447005
v -0.03647863 0.02339223 -0.03447005
v -0.03607495 0.02408805 -0.03516948
v -0.03569306 0.02442993 -0.03594258
v -0.03580902 0.02454740 -0.03516948
v -0.03408791 0.02703999 -0.03548028
v -0.03161088 0.03050703 -0.03564260
v -0.03333198 0.02801594 -0.03570040
v -0.03503914 0.02550227 -0.03580088
v -0.03113308 0.02996784 -0.03594258
v -0.03113308 0.03000550 -0.03593638
v -0.03081135 0.03142273 -0.03565629
v -0.03091162 0.03156883 -0.03516948
v -0.03063785 0.03204927 -0.03447005
v -0.03609326 0.02408805 -0.03447005
v -0.03586744 0.02448566 -0.03447005
v -0.03523532 0.02505797 -0.03594258
v -0.03582123 0.02456548 -0.03447005
v -0.03551955 0.02497062 -0.03516948
v -0.03338168 0.02808824 -0.03516948
v -0.03309134 0.02851145 -0.03516948
v -0.03266848 0.02912594 -0.03516948
v -0.03165621 0.03057330 -0.03516948
v -0.03283849 0.02805510 -0.03594258
v -0.03284373 0.02830512 -0.03586185
v -0.03495806 0.02542697 -0.03594258
v -0.03110954 0.03081427 -0.03573010
v -0.03103107 0.03152816 -0.03447005
v -0.03095783 0.03162606 -0.03447005
v -0.03347497 0.02798733 -0.03447005
v -0.03409925 0.02705506 -0.03491664
v -0.03167627 0.03060492 -0.03447005
f 1 2 7
f 1 7 16
f 1 16 8
f 1 8 3
f 1 3 11
f 1 11 18
f 1 18 28
f 1 28 41
f 1 41 56
f 1 56 71
f 1 71 70
f 1 70 74
f 1 74 72
f 1 72 60
f 1 60 58
f 1 58 57
f 1 57 44
f 1 44 43
f 1 43 42
f 1 42 29
f 1 29 19
f 1 19 12
f 1 12 4
f 1 4 5
f 1 5 6
f 1 6 2
f 2 6 7
f 3 8 9
f 3 9 10
f 3 10 11
f 4 12 13
f 4 13 5
f 5 13 14
f 5 14 6
f 6 14 15
f 6 15 7
f 7 15 16
f 8 16 24
f 8 24 23
f 8 23 22
f 8 22 33
f 8 33 46
f 8 46 59
f 8 59 68
f 8 68 66
f 8 66 52
f 8 52 34
f 8 34 25
f 8 25 17
f 8 17 10
f 8 10 9
f 10 17 26
f 10 26 37
f 10 37 27
f 10 27 18
f 10 18 11
f 12 19 20
f 12 20 13
f 13 20 21
f 13 21 14
f 14 21 22
f 14 22 23
f 14 23 15
f 15 23 24
f 15 24 16
f 17 25 26
f 18 27 28
f 19 29 20
f 20 29 30
f 20 30 21
f 21 30 31
f 21 31 32
f 21 32 33
f 21 33 22
f 25 34 35
f 25 35 26
f 26 35 36
f 26 36 37
f 27 37 38
f 27 38 39
f 27 39 28
f 28 39 40
f 28 40 41
f 29 42 30
f 30 42 43
f 30 43 31
f 31 44 45
f 31 45 32
f 31 43 44
f 32 46 33
f 32 45 47
f 32 47 48
f 32 48 49
f 32 49 50
f 32 50 51
f 32 51 46
f 34 52 35
f 35 52 53
f 35 53 36
f 36 54 38
f 36 38 37
f 36 53 54
f 38 40 39
f 38 54 40
f 40 55 56
f 40 56 41
f 40 54 49
f 40 49 55
f 44 57 45
f 45 57 58
f 45 58 60
f 45 60 47
f 46 51 49
f 46 49 59
f 47 60 61
f 47 61 48
f 48 62 63
f 48 63 64
f 48 64 65
f 48 65 49
f 48 61 62
f 49 65 55
f 49 54 66
f 49 66 67
f 49 67 68
f 49 68 59
f 49 51 50
f 52 66 53
f 53 69 54
f 53 66 69
f 54 69 66
f 55 65 70
f 55 70 71
f 55 71 56
f 60 72 73
f 60 73 61
f 61 73 62
f 62 73 63
f 63 74 64
f 63 73 72
f 63 72 74
f 64 74 70
f 64 70 65
f 66 68 67

