# https://github.com/mikedh/trimesh
v -0.01444039 -0.03602738 0.03978036
v -0.01444039 -0.03503415 0.03978036
v -0.01378495 -0.03636794 0.03978036
v -0.01444039 -0.03601428 0.04010012
v -0.01444039 -0.03446098 0.04539450
v -0.00037447 -0.03446098 0.04578958
v -0.00037447 -0.03802874 0.04043266
v -0.00498325 -0.03798719 0.03978036
v -0.01444039 -0.03582729 0.04348239
v -0.01444039 -0.03597002 0.04094568
v -0.01339113 -0.03655358 0.03978036
v -0.01444039 -0.03446098 0.04703590
v -0.00037447 -0.03446098 0.04688739
v -0.00037447 -0.03852152 0.04036800
v -0.00330470 -0.03874464 0.03978036
v -0.00460733 -0.03814031 0.03978036
v -0.01444039 -0.03575547 0.04432795
v -0.01334844 -0.03655087 0.04010012
v -0.01252638 -0.03682729 0.03978036
v -0.01421732 -0.03446098 0.04703945
v -0.01444039 -0.03503189 0.04684476
v -0.01083544 -0.03511364 0.04695134
v -0.00998859 -0.03511364 0.04697906
v -0.00914312 -0.03511364 0.04699540
v -0.00037447 -0.03480154 0.04690232
v -0.00257214 -0.03446098 0.04691297
v -0.00407031 -0.03511364 0.04697195
v -0.00322484 -0.03511364 0.04696058
v -0.00037447 -0.03894112 0.04045326
v -0.00330470 -0.03898764 0.03978036
v -0.01421732 -0.03582864 0.04432795
v -0.01444039 -0.03565520 0.04517352
v -0.01329474 -0.03649712 0.04094568
v -0.01118657 -0.03724780 0.03978036
v -0.00829765 -0.03511364 0.04700535
v -0.00745218 -0.03511364 0.04700677
v -0.01083544 -0.03446098 0.04700321
v -0.01444039 -0.03544382 0.04613278
v -0.01421732 -0.03547272 0.04620810
v -0.01356876 -0.03550795 0.04638716
v -0.01300419 -0.03554183 0.04645253
v -0.01252638 -0.03556396 0.04649658
v -0.01168091 -0.03560326 0.04656835
v -0.01083544 -0.03564255 0.04663159
v -0.00998859 -0.03568185 0.04668275
v -0.00914312 -0.03572160 0.04672183
v -0.00829765 -0.03576089 0.04674883
v -0.00037447 -0.03655222 0.04665717
v -0.00037447 -0.03595963 0.04689663
v -0.00037447 -0.03511364 0.04691368
v -0.00341761 -0.03446098 0.04692221
v -0.00037447 -0.03894112 0.04059182
v -0.00407031 -0.03907482 0.04010012
v -0.00315736 -0.03902378 0.04002693
v -0.00360075 -0.03901339 0.03978036
v -0.01421732 -0.03572069 0.04517352
v -0.01316530 -0.03644292 0.04179125
v -0.01303036 -0.03640498 0.04239025
v -0.01444039 -0.03557074 0.04570147
v -0.01102547 -0.03729297 0.03978036
v -0.01421732 -0.03560145 0.04578531
v -0.01204994 -0.03635168 0.04469247
v -0.01148538 -0.03641537 0.04482321
v -0.01332090 -0.03566965 0.04607096
v -0.01252638 -0.03578438 0.04601909
v -0.00406204 -0.03654228 0.04608517
v -0.00377425 -0.03639414 0.04646319
v -0.00322484 -0.03641943 0.04650440
v -0.00237937 -0.03645918 0.04656195
v -0.00153390 -0.03649847 0.04660885
v -0.00068705 -0.03653777 0.04664651
v -0.00037447 -0.03735665 0.04504135
v -0.00037447 -0.03828032 0.04263753
v -0.00153390 -0.03897500 0.04069628
v -0.00322484 -0.03901520 0.04076875
v -0.00407031 -0.03899126 0.04068775
v -0.00460045 -0.03894835 0.04059609
v -0.00475054 -0.03898990 0.04010012
v -0.00484417 -0.03897861 0.03978036
v -0.00442006 -0.03903100 0.03978036
v -0.00407031 -0.03903507 0.03978036
v -0.00237937 -0.03899984 0.04076520
v -0.01235563 -0.03645240 0.04348239
v -0.01220692 -0.03641085 0.04412899
v -0.00962782 -0.03724464 0.04311858
v -0.01084646 -0.03734265 0.03978036
v -0.00804153 -0.03811953 0.03978036
v -0.00660809 -0.03836795 0.04094568
v -0.01083544 -0.03645150 0.04490280
v -0.00632030 -0.03808610 0.04224175
v -0.00211774 -0.03808836 0.04309300
v -0.00068705 -0.03734626 0.04501009
v -0.00322484 -0.03664978 0.04601909
v -0.00037447 -0.03810869 0.04315482
v -0.00153390 -0.03811275 0.04315055
v -0.00068705 -0.03811772 0.04317542
v -0.00037447 -0.03822251 0.04281588
v -0.00068705 -0.03829839 0.04263753
v -0.00153390 -0.03831555 0.04263753
v -0.00407031 -0.03819044 0.04247126
v -0.00239176 -0.03823742 0.04270716
v -0.00322484 -0.03822974 0.04255723
v -0.00749900 -0.03826948 0.03978036
f 1 2 8
f 1 8 16
f 1 16 15
f 1 15 30
f 1 30 55
f 1 55 81
f 1 81 80
f 1 80 79
f 1 79 103
f 1 103 87
f 1 87 86
f 1 86 60
f 1 60 34
f 1 34 19
f 1 19 11
f 1 11 3
f 1 3 4
f 1 4 10
f 1 10 9
f 1 9 17
f 1 17 32
f 1 32 59
f 1 59 38
f 1 38 21
f 1 21 12
f 1 12 5
f 1 5 2
f 2 5 6
f 2 6 7
f 2 7 8
f 3 9 10
f 3 10 4
f 3 11 9
f 5 12 20
f 5 20 37
f 5 37 51
f 5 51 26
f 5 26 13
f 5 13 6
f 6 13 25
f 6 25 50
f 6 50 49
f 6 49 48
f 6 48 72
f 6 72 94
f 6 94 97
f 6 97 73
f 6 73 52
f 6 52 29
f 6 29 14
f 6 14 7
f 7 14 15
f 7 15 16
f 7 16 8
f 9 11 18
f 9 18 17
f 11 19 18
f 12 21 22
f 12 22 23
f 12 23 24
f 12 24 20
f 13 26 27
f 13 27 28
f 13 28 25
f 14 29 30
f 14 30 15
f 17 31 32
f 17 18 33
f 17 33 31
f 18 19 34
f 18 34 33
f 20 24 35
f 20 35 36
f 20 36 27
f 20 27 37
f 21 38 39
f 21 39 40
f 21 40 41
f 21 41 42
f 21 42 43
f 21 43 44
f 21 44 45
f 21 45 46
f 21 46 47
f 21 47 22
f 22 47 23
f 23 47 48
f 23 48 49
f 23 49 24
f 24 49 35
f 25 28 50
f 26 51 27
f 27 36 49
f 27 49 28
f 27 51 37
f 28 49 50
f 29 52 53
f 29 53 54
f 29 54 55
f 29 55 30
f 31 56 32
f 31 33 57
f 31 57 58
f 31 58 56
f 32 56 59
f 33 34 57
f 34 60 57
f 35 49 36
f 38 59 61
f 38 61 39
f 39 61 62
f 39 62 63
f 39 63 64
f 39 64 40
f 40 64 63
f 40 63 65
f 40 65 41
f 41 65 66
f 41 66 67
f 41 67 42
f 42 67 43
f 43 67 44
f 44 67 68
f 44 68 69
f 44 69 45
f 45 69 70
f 45 70 46
f 46 70 71
f 46 71 48
f 46 48 47
f 48 71 72
f 52 73 74
f 52 74 53
f 53 75 76
f 53 76 77
f 53 77 78
f 53 78 79
f 53 79 80
f 53 80 81
f 53 81 54
f 53 74 82
f 53 82 75
f 54 81 55
f 56 58 83
f 56 83 84
f 56 84 85
f 56 85 59
f 57 60 58
f 58 60 86
f 58 86 87
f 58 87 88
f 58 88 83
f 59 85 62
f 59 62 61
f 62 85 77
f 62 77 63
f 63 89 65
f 63 77 76
f 63 76 90
f 63 90 89
f 65 89 66
f 66 90 91
f 66 91 92
f 66 92 93
f 66 93 67
f 66 89 90
f 67 93 92
f 67 92 68
f 68 92 72
f 68 72 69
f 69 72 70
f 70 72 71
f 72 92 95
f 72 95 96
f 72 96 94
f 73 97 98
f 73 98 74
f 74 98 82
f 75 82 96
f 75 96 99
f 75 99 95
f 75 95 76
f 76 100 90
f 76 95 101
f 76 101 102
f 76 102 100
f 77 85 78
f 78 85 84
f 78 84 88
f 78 88 87
f 78 87 103
f 78 103 79
f 82 98 96
f 83 88 84
f 90 100 91
f 91 102 101
f 91 101 95
f 91 95 92
f 91 100 102
f 94 96 98
f 94 98 97
f 95 99 96

