# https://github.com/mikedh/trimesh
v -0.01444039 -0.02987044 0.03635397
v -0.01393917 -0.03052369 0.04263629
v -0.01444039 -0.03023139 0.04162774
v -0.01444039 -0.02888066 0.03635397
v -0.01252638 -0.03072122 0.03635397
v -0.01398736 -0.03055570 0.04348361
v -0.01444039 -0.03027772 0.04254207
v -0.01444039 -0.02888276 0.03649496
v -0.00037447 -0.03196624 0.04179107
v -0.00037447 -0.03195739 0.03635397
v -0.01337185 -0.03080420 0.04348361
v -0.01337185 -0.03075408 0.04263629
v -0.01070600 -0.03137658 0.03635397
v -0.01440872 -0.03032321 0.04348361
v -0.01440872 -0.03032321 0.04348222
v -0.01444039 -0.03030467 0.04344104
v -0.01444039 -0.02924077 0.04348361
v -0.00037447 -0.03199235 0.04263629
v -0.00037447 -0.03197761 0.04232431
v -0.00037447 -0.03269699 0.03635397
v -0.01135870 -0.03132941 0.04348222
v -0.01135870 -0.03132941 0.04348361
v -0.00720708 -0.03219452 0.03635397
v -0.01444039 -0.03030467 0.04348361
v -0.00037447 -0.03221305 0.04348361
v -0.00037447 -0.03208585 0.04324003
v -0.00037447 -0.03205511 0.04304181
v -0.00037447 -0.03318303 0.04348361
v -0.00491578 -0.03263255 0.03635397
v -0.00612477 -0.03244723 0.03635397
v -0.00576125 -0.03253189 0.03635397
v -0.00576125 -0.03253483 0.04348222
v -0.00576125 -0.03253483 0.04348361
v -0.00098310 -0.03312659 0.04348361
v -0.00407994 -0.03278628 0.04348361
v -0.00527930 -0.03258959 0.03635397
f 1 2 3
f 1 3 7
f 1 7 16
f 1 16 24
f 1 24 17
f 1 17 8
f 1 8 4
f 1 4 10
f 1 10 20
f 1 20 29
f 1 29 36
f 1 36 31
f 1 31 30
f 1 30 23
f 1 23 13
f 1 13 5
f 1 5 2
f 2 6 3
f 2 5 6
f 3 6 7
f 4 8 9
f 4 9 10
f 5 11 12
f 5 12 6
f 5 13 11
f 6 14 15
f 6 15 16
f 6 16 7
f 6 12 11
f 6 11 22
f 6 22 33
f 6 33 35
f 6 35 34
f 6 34 28
f 6 28 25
f 6 25 17
f 6 17 24
f 6 24 14
f 8 17 18
f 8 18 19
f 8 19 9
f 9 19 18
f 9 18 27
f 9 27 26
f 9 26 25
f 9 25 28
f 9 28 20
f 9 20 10
f 11 13 21
f 11 21 22
f 13 23 21
f 14 24 16
f 14 16 15
f 17 25 26
f 17 26 27
f 17 27 18
f 20 28 29
f 21 23 30
f 21 30 31
f 21 31 32
f 21 32 33
f 21 33 22
f 28 34 29
f 29 35 36
f 29 34 35
f 31 36 35
f 31 35 32
f 32 35 33

