# https://github.com/mikedh/trimesh
v -0.01952255 -0.03267430 -0.03486937
v -0.01952255 -0.03397234 -0.03486937
v -0.01952255 -0.03296923 -0.03189248
v -0.00037447 -0.03738331 -0.03486937
v -0.01952255 -0.03397848 -0.03473096
v -0.01742706 -0.03480010 -0.03486937
v -0.01753952 -0.03485038 -0.03432359
v -0.01513851 -0.03605767 -0.03189248
v -0.01952255 -0.03398031 -0.03189248
v -0.00037447 -0.03783520 -0.03189248
v -0.00037447 -0.03837539 -0.03486937
v -0.01952255 -0.03397970 -0.03432359
v -0.01737458 -0.03482033 -0.03486937
v -0.01675418 -0.03515450 -0.03432359
v -0.01577391 -0.03564809 -0.03347796
v -0.01500168 -0.03610673 -0.03189248
v -0.01952255 -0.03398031 -0.03263233
v -0.00037447 -0.03865438 -0.03189248
v -0.00037447 -0.03837784 -0.03485684
v -0.00038759 -0.03837723 -0.03486937
v -0.01592385 -0.03542367 -0.03435418
v -0.01453685 -0.03561988 -0.03486937
v -0.01484424 -0.03558371 -0.03482042
v -0.01540841 -0.03550706 -0.03465665
v -0.01565020 -0.03557574 -0.03409280
v -0.01405703 -0.03642373 -0.03189248
v -0.01432880 -0.03633482 -0.03189248
v -0.00037447 -0.03848760 -0.03401121
v -0.00202950 -0.03890148 -0.03189248
v -0.00037447 -0.03845204 -0.03432359
v -0.00123291 -0.03845755 -0.03486937
v -0.01111247 -0.03643967 -0.03486937
v -0.00764872 -0.03726497 -0.03486937
v -0.01137487 -0.03640901 -0.03480934
v -0.00790737 -0.03723493 -0.03477175
v -0.01510102 -0.03564993 -0.03435418
v -0.00576128 -0.03828771 -0.03189248
v -0.00392631 -0.03813994 -0.03486937
v -0.00374638 -0.03818102 -0.03486937
v -0.00326843 -0.03828955 -0.03486937
v -0.00407064 -0.03837600 -0.03347796
v -0.00491596 -0.03834167 -0.03263233
v -0.00238000 -0.03893765 -0.03189248
v -0.00068749 -0.03847963 -0.03432359
v -0.00153280 -0.03847718 -0.03486937
v -0.00330404 -0.03880521 -0.03189248
v -0.00238000 -0.03845326 -0.03486937
v -0.00322532 -0.03840421 -0.03432359
v -0.00327405 -0.03881073 -0.03189248
f 1 2 5
f 1 5 12
f 1 12 17
f 1 17 9
f 1 9 3
f 1 3 4
f 1 4 11
f 1 11 20
f 1 20 31
f 1 31 45
f 1 45 47
f 1 47 40
f 1 40 39
f 1 39 38
f 1 38 33
f 1 33 32
f 1 32 22
f 1 22 13
f 1 13 6
f 1 6 2
f 2 6 7
f 2 7 8
f 2 8 5
f 3 9 8
f 3 8 16
f 3 16 27
f 3 27 26
f 3 26 37
f 3 37 46
f 3 46 49
f 3 49 43
f 3 43 29
f 3 29 18
f 3 18 10
f 3 10 4
f 4 10 18
f 4 18 28
f 4 28 30
f 4 30 19
f 4 19 11
f 5 8 12
f 6 13 14
f 6 14 7
f 7 14 15
f 7 15 8
f 8 9 17
f 8 17 12
f 8 15 16
f 11 19 20
f 13 21 14
f 13 22 23
f 13 23 24
f 13 24 21
f 14 21 25
f 14 25 15
f 15 25 26
f 15 26 27
f 15 27 16
f 18 29 28
f 19 30 31
f 19 31 20
f 21 24 25
f 22 32 23
f 23 32 33
f 23 33 34
f 23 34 24
f 24 34 35
f 24 35 36
f 24 36 25
f 25 36 26
f 26 36 35
f 26 35 38
f 26 38 39
f 26 39 40
f 26 40 41
f 26 41 42
f 26 42 37
f 28 29 30
f 29 43 30
f 30 43 44
f 30 44 31
f 31 44 43
f 31 43 45
f 33 38 34
f 34 38 35
f 37 42 46
f 40 47 48
f 40 48 41
f 41 48 46
f 41 46 42
f 43 49 47
f 43 47 45
f 46 48 49
f 47 49 48

