# https://github.com/mikedh/trimesh
v -0.00037513 -0.03878917 0.02370117
v -0.00706157 -0.03818778 0.02402927
v -0.00706157 -0.03853988 0.02465421
v -0.00576094 -0.03866626 0.02459172
v -0.00491523 -0.03875381 0.02453703
v -0.00435819 -0.03885372 0.02448235
v -0.00037513 -0.03903325 0.02370117
v -0.00037513 -0.03854374 0.02318169
v -0.00706157 -0.03810429 0.02351369
v -0.00037513 -0.03804322 0.02043195
v -0.00706157 -0.03881313 0.02467374
v -0.00576094 -0.03902146 0.02459172
v -0.00491523 -0.03899885 0.02453703
v -0.00435819 -0.03895363 0.02448235
v -0.00037513 -0.03916698 0.02338870
v -0.00706157 -0.03810100 0.02349026
v -0.00037513 -0.03783586 0.01895553
v -0.00706157 -0.03898629 0.02467374
v -0.00660664 -0.03900175 0.02462687
v -0.00576094 -0.03911422 0.02402927
v -0.00237877 -0.03929646 0.02318169
v -0.00153306 -0.03927423 0.02318169
v -0.00037513 -0.03922592 0.02318169
v -0.00706157 -0.03805114 0.02304108
v -0.00037513 -0.03772475 0.01810795
v -0.00706157 -0.03903480 0.02402927
v -0.00660664 -0.03906571 0.02402927
v -0.00660664 -0.03928332 -0.01522876
v -0.00322447 -0.03925819 0.02318169
v -0.00153306 -0.03932854 0.02233802
v -0.00037513 -0.03926728 0.02265049
v -0.00706157 -0.03799993 0.02231068
v -0.00037513 -0.03764242 0.01726428
v -0.00706157 -0.03917915 -0.01522876
v -0.00696338 -0.03920795 -0.01522876
v -0.00617986 -0.03922457 -0.01522876
v -0.00037513 -0.03858433 -0.01064325
v -0.00068736 -0.03929723 0.02233802
v -0.00706157 -0.03754328 0.01558866
v -0.00037513 -0.03760377 0.01641670
v -0.00706157 -0.03738095 0.01285454
v -0.00706157 -0.03738945 0.01303421
v -0.00706157 -0.03748859 0.01472546
v -0.00706157 -0.03823860 -0.01522876
v -0.00591869 -0.03914495 -0.01522876
v -0.00037513 -0.03832962 -0.01125648
v -0.00037513 -0.03759817 0.01557303
v -0.00706157 -0.03735447 0.01205774
v -0.00706157 -0.03735602 0.01219054
v -0.00706157 -0.03805250 -0.01454132
v -0.00037513 -0.03795065 -0.01125648
v -0.00703735 -0.03824556 -0.01522876
v -0.00591869 -0.03870607 -0.01522876
v -0.00037513 -0.03759836 0.01526056
v -0.00037513 -0.03760783 0.00626922
v -0.00037513 -0.03760841 0.00595675
v -0.00037513 -0.03760995 0.00542164
v -0.00706157 -0.03743139 -0.01064325
v -0.00706157 -0.03794602 -0.01402575
v -0.00037513 -0.03782504 -0.01064325
v -0.00635921 -0.03848944 -0.01522876
v -0.00664199 -0.03836730 -0.01522876
v -0.00037513 -0.03761169 0.00510917
v -0.00037513 -0.03761672 0.00458188
v -0.00037513 -0.03762019 0.00426941
v -0.00706157 -0.03748975 -0.01151036
v -0.00706157 -0.03778948 -0.01318989
v -0.00706157 -0.03755275 -0.01190876
f 1 2 3
f 1 3 4
f 1 4 5
f 1 5 6
f 1 6 14
f 1 14 7
f 1 7 15
f 1 15 23
f 1 23 31
f 1 31 37
f 1 37 46
f 1 46 51
f 1 51 60
f 1 60 65
f 1 65 64
f 1 64 63
f 1 63 57
f 1 57 56
f 1 56 55
f 1 55 54
f 1 54 47
f 1 47 40
f 1 40 33
f 1 33 25
f 1 25 17
f 1 17 10
f 1 10 8
f 1 8 2
f 2 9 16
f 2 16 24
f 2 24 32
f 2 32 39
f 2 39 43
f 2 43 42
f 2 42 41
f 2 41 49
f 2 49 48
f 2 48 58
f 2 58 66
f 2 66 68
f 2 68 67
f 2 67 59
f 2 59 50
f 2 50 44
f 2 44 34
f 2 34 26
f 2 26 18
f 2 18 11
f 2 11 3
f 2 8 10
f 2 10 9
f 3 11 4
f 4 11 18
f 4 18 12
f 4 12 13
f 4 13 5
f 5 13 14
f 5 14 6
f 7 14 13
f 7 13 15
f 9 10 17
f 9 17 16
f 12 18 19
f 12 19 20
f 12 20 21
f 12 21 22
f 12 22 15
f 12 15 13
f 15 22 23
f 16 17 25
f 16 25 24
f 18 26 27
f 18 27 20
f 18 20 19
f 20 27 28
f 20 28 29
f 20 29 21
f 21 29 28
f 21 28 30
f 21 30 22
f 22 31 23
f 22 30 31
f 24 25 33
f 24 33 32
f 26 34 35
f 26 35 28
f 26 28 27
f 28 35 34
f 28 34 44
f 28 44 52
f 28 52 62
f 28 62 61
f 28 61 53
f 28 53 45
f 28 45 36
f 28 36 37
f 28 37 31
f 28 31 38
f 28 38 30
f 30 38 31
f 32 33 39
f 33 40 41
f 33 41 42
f 33 42 43
f 33 43 39
f 36 45 37
f 37 45 46
f 40 47 48
f 40 48 49
f 40 49 41
f 44 50 51
f 44 51 52
f 45 53 51
f 45 51 46
f 47 54 48
f 48 54 55
f 48 55 56
f 48 56 57
f 48 57 58
f 50 59 51
f 51 53 61
f 51 61 62
f 51 62 52
f 51 59 60
f 57 63 58
f 58 63 64
f 58 64 65
f 58 65 60
f 58 60 66
f 59 67 60
f 60 67 68
f 60 68 66

