# https://github.com/mikedh/trimesh
v -0.01844929 0.04067999 -0.02306399
v -0.01844929 0.03968819 -0.02306399
v -0.01844929 0.04060151 -0.02703843
v -0.02008720 0.03990333 -0.02502137
v -0.02010615 0.03991010 -0.02417575
v -0.02015354 0.03990874 -0.02306399
v -0.01844929 0.03959889 -0.02718319
v -0.03346688 0.02685839 -0.02306399
v -0.01844929 0.04059746 -0.02718319
v -0.02004614 0.03989521 -0.02586577
v -0.02182778 0.03909284 -0.02306399
v -0.02096065 0.03951771 -0.02306399
v -0.03336579 0.02685839 -0.02718319
v -0.03336895 0.02685704 -0.02718360
v -0.03336737 0.02685839 -0.02718360
v -0.03458356 0.02685839 -0.02306399
v -0.01996558 0.03987221 -0.02718319
v -0.01999559 0.03988439 -0.02671179
v -0.02178987 0.03910096 -0.02333014
v -0.02222896 0.03885200 -0.02306399
v -0.03457567 0.02685839 -0.02417616
v -0.03456145 0.02685839 -0.02502137
v -0.03453934 0.02685839 -0.02586537
v -0.03451091 0.02685839 -0.02671139
v -0.03449196 0.02685839 -0.02716827
v -0.03449038 0.02685839 -0.02718319
v -0.03422818 0.02724807 -0.02718319
v -0.03406550 0.02748486 -0.02718319
v -0.03351427 0.02828452 -0.02718319
v -0.03250340 0.02973231 -0.02718319
v -0.03233598 0.02996774 -0.02718319
v -0.03220173 0.03015447 -0.02718319
v -0.03177843 0.03072275 -0.02718319
v -0.03143568 0.03114491 -0.02718319
v -0.03124931 0.03132758 -0.02718319
v -0.03101396 0.03155489 -0.02718319
v -0.03036480 0.03214754 -0.02718319
v -0.02898119 0.03340454 -0.02718319
v -0.02699738 0.03520547 -0.02718319
v -0.02657408 0.03558569 -0.02718319
v -0.02519204 0.03664379 -0.02718319
v -0.02442916 0.03720396 -0.02718319
v -0.02419382 0.03736227 -0.02718319
v -0.02269964 0.03826476 -0.02718319
v -0.02176618 0.03881817 -0.02718319
v -0.02152926 0.03895754 -0.02718319
v -0.03220962 0.03016664 -0.02306399
v -0.03250814 0.02973637 -0.02586537
v -0.03426609 0.02729408 -0.02417616
v -0.02156085 0.03897648 -0.02671179
v -0.02173143 0.03907661 -0.02417575
v -0.02322087 0.03812134 -0.02502137
v -0.02324456 0.03814434 -0.02417575
v -0.02325404 0.03815517 -0.02333014
v -0.02325562 0.03815787 -0.02306399
v -0.03426135 0.02728867 -0.02502137
v -0.03425030 0.02727920 -0.02586537
v -0.03423608 0.02726025 -0.02671139
v -0.03352216 0.02829535 -0.02671139
v -0.03220173 0.03015717 -0.02671139
v -0.03178790 0.03072682 -0.02306399
v -0.03143726 0.03114627 -0.02671139
v -0.03102028 0.03157519 -0.02306399
v -0.03057645 0.03199870 -0.02306399
v -0.02969037 0.03280784 -0.02306399
v -0.03013736 0.03236944 -0.02586537
v -0.02867003 0.03373604 -0.02306399
v -0.02777921 0.03454382 -0.02306399
v -0.02702265 0.03522983 -0.02306399
v -0.02660093 0.03561139 -0.02306399
v -0.02607813 0.03603220 -0.02333014
v -0.02594861 0.03613909 -0.02306399
v -0.02565483 0.03636505 -0.02333014
v -0.02564061 0.03635288 -0.02481611
v -0.02563272 0.03634746 -0.02537865
v -0.02422541 0.03740557 -0.02502137
v -0.02421593 0.03739609 -0.02586577
v -0.02317664 0.03808751 -0.02586577
v -0.02313557 0.03806045 -0.02654808
v -0.02309767 0.03803474 -0.02711182
v -0.02565799 0.03636641 -0.02306399
v -0.03144200 0.03115033 -0.02306399
v -0.03144042 0.03114762 -0.02502137
v -0.02607971 0.03603355 -0.02306399
f 1 2 7
f 1 7 9
f 1 9 3
f 1 3 4
f 1 4 5
f 1 5 6
f 1 6 12
f 1 12 11
f 1 11 20
f 1 20 55
f 1 55 81
f 1 81 72
f 1 72 84
f 1 84 70
f 1 70 69
f 1 69 68
f 1 68 67
f 1 67 65
f 1 65 64
f 1 64 63
f 1 63 82
f 1 82 61
f 1 61 47
f 1 47 16
f 1 16 8
f 1 8 2
f 2 8 7
f 3 9 4
f 4 10 11
f 4 11 12
f 4 12 6
f 4 6 5
f 4 9 10
f 7 8 13
f 7 13 14
f 7 14 15
f 7 15 9
f 8 16 14
f 8 14 13
f 9 15 17
f 9 17 18
f 9 18 10
f 10 18 19
f 10 19 11
f 11 19 20
f 14 16 21
f 14 21 22
f 14 22 23
f 14 23 24
f 14 24 25
f 14 25 26
f 14 26 27
f 14 27 28
f 14 28 29
f 14 29 30
f 14 30 31
f 14 31 32
f 14 32 33
f 14 33 34
f 14 34 35
f 14 35 36
f 14 36 37
f 14 37 38
f 14 38 39
f 14 39 40
f 14 40 15
f 15 40 41
f 15 41 42
f 15 42 43
f 15 43 44
f 15 44 45
f 15 45 46
f 15 46 17
f 16 47 48
f 16 48 49
f 16 49 21
f 17 46 50
f 17 50 51
f 17 51 19
f 17 19 18
f 19 51 52
f 19 52 20
f 20 52 53
f 20 53 54
f 20 54 55
f 21 49 30
f 21 30 56
f 21 56 22
f 22 56 57
f 22 57 23
f 23 57 58
f 23 58 24
f 24 58 27
f 24 27 25
f 25 27 26
f 27 58 28
f 28 58 29
f 29 58 59
f 29 59 30
f 30 59 56
f 30 49 31
f 31 48 32
f 31 49 48
f 32 48 60
f 32 60 33
f 33 61 62
f 33 62 34
f 33 60 47
f 33 47 61
f 34 62 35
f 35 62 63
f 35 63 36
f 36 63 64
f 36 64 65
f 36 65 37
f 37 65 66
f 37 66 67
f 37 67 38
f 38 67 39
f 39 67 68
f 39 68 69
f 39 69 70
f 39 70 40
f 40 70 71
f 40 71 72
f 40 72 73
f 40 73 74
f 40 74 75
f 40 75 41
f 41 75 74
f 41 74 76
f 41 76 77
f 41 77 42
f 42 77 53
f 42 53 52
f 42 52 43
f 43 52 78
f 43 78 79
f 43 79 80
f 43 80 44
f 44 80 79
f 44 79 45
f 45 51 50
f 45 50 46
f 45 79 51
f 47 60 48
f 51 79 78
f 51 78 52
f 53 77 54
f 54 77 76
f 54 76 73
f 54 73 55
f 55 73 81
f 56 59 57
f 57 59 58
f 61 82 83
f 61 83 62
f 62 83 63
f 63 83 82
f 65 67 66
f 70 84 71
f 71 84 72
f 72 81 73
f 73 76 74

