# https://github.com/mikedh/trimesh
v -0.02872941 0.03249238 -0.01871793
v -0.02873351 0.03243570 -0.02306269
v -0.03008482 0.03249238 -0.01871793
v -0.02877268 0.03253461 -0.00978363
v -0.02887560 0.03253461 0.00819511
v -0.03346747 0.02685761 -0.02306269
v -0.03009710 0.03243570 -0.02306269
v -0.03358500 0.02685761 0.00819511
v -0.03008832 0.03249238 -0.01842114
v -0.03010938 0.03253461 -0.00978363
v -0.03014095 0.03253461 0.00819511
v -0.03458314 0.02685761 -0.02306269
v -0.03044501 0.03211951 -0.02306269
v -0.03470301 0.02685761 0.00819511
v -0.03010704 0.03249238 -0.01671077
v -0.03012107 0.03253461 -0.00726245
v -0.03011756 0.03249238 -0.01571638
v -0.03012516 0.03249238 -0.01487190
v -0.03013159 0.03249238 -0.01402743
v -0.03013744 0.03249238 -0.01317989
v -0.03019884 0.03243459 -0.01317989
v -0.03061692 0.03202893 -0.01571638
v -0.03061984 0.03203004 -0.01487190
v -0.03103091 0.03161327 0.00819511
v -0.03014095 0.03253461 0.00615124
v -0.03462582 0.02685761 -0.01215795
v -0.03463050 0.02686428 -0.00978669
v -0.03455975 0.02689040 -0.02306269
v -0.03057716 0.03199837 -0.02306269
v -0.03058476 0.03200559 -0.02163688
v -0.03019065 0.03241736 -0.01656085
v -0.03433053 0.02737941 0.00819511
v -0.03469716 0.02685761 0.00637459
v -0.03013627 0.03253461 -0.00387843
v -0.03019416 0.03242181 -0.01571638
v -0.03061283 0.03202560 -0.01656085
v -0.03102155 0.03157548 -0.02306269
v -0.03102272 0.03157826 -0.02248135
v -0.03131216 0.03128374 -0.02306269
v -0.03144489 0.03114926 -0.02306269
v -0.03102564 0.03160604 -0.01571638
v -0.03062101 0.03203004 -0.01402743
v -0.03013803 0.03253461 -0.00303090
v -0.03133672 0.03129041 0.00819511
v -0.03103091 0.03161327 0.00795951
v -0.03013978 0.03253461 0.00191968
v -0.03469131 0.02685761 0.00468870
v -0.03427089 0.02729717 -0.02248135
v -0.03432527 0.02737274 0.00542303
v -0.03426972 0.02729550 -0.02306269
v -0.03059002 0.03200893 -0.02078934
v -0.03308214 0.02912097 0.00819511
v -0.03329790 0.02881033 0.00626750
v -0.03144665 0.03115037 -0.02163688
v -0.03178813 0.03072693 -0.02306269
v -0.03178930 0.03072749 -0.02248135
v -0.03179456 0.03072971 -0.01994487
v -0.03226293 0.03024903 0.00819511
v -0.03102564 0.03160716 -0.01487190
v -0.03144723 0.03115148 -0.02078934
v -0.03144840 0.03115426 -0.01825286
v -0.03102623 0.03160716 -0.01402743
v -0.03062160 0.03203004 -0.01317989
v -0.03013861 0.03253461 -0.00230881
v -0.03145308 0.03116649 0.00457855
v -0.03145367 0.03116649 0.00711504
v -0.03145367 0.03116649 0.00819511
v -0.03103032 0.03161327 0.00626750
v -0.03062218 0.03203115 -0.00979893
v -0.03062218 0.03203060 -0.01149094
v -0.03294473 0.02916487 -0.01909733
v -0.03230620 0.03003176 -0.02306269
v -0.03288099 0.02940104 0.00819511
v -0.03224130 0.03019513 -0.00978363
v -0.03275528 0.02943105 -0.01871793
v -0.03221089 0.03016401 -0.02306269
v -0.03223896 0.03020235 -0.00894834
v -0.03224130 0.03020735 -0.00726245
v -0.03234947 0.03013234 0.00819511
v -0.03183959 0.03074416 0.00819511
v -0.03183959 0.03074416 0.00795951
v -0.03183842 0.03074416 0.00711504
v -0.03144957 0.03115815 -0.01317989
v -0.03145016 0.03116093 -0.00979893
v -0.03102681 0.03160771 -0.01233542
v -0.03145074 0.03116315 -0.00557044
v -0.03156184 0.03104979 0.00819511
v -0.03102740 0.03160882 -0.00979893
v -0.03257459 0.02982670 0.00819511
v -0.03257459 0.02982559 0.00795951
f 1 2 7
f 1 7 3
f 1 3 10
f 1 10 4
f 1 4 5
f 1 5 2
f 2 6 12
f 2 12 28
f 2 28 50
f 2 50 72
f 2 72 76
f 2 76 55
f 2 55 40
f 2 40 39
f 2 39 37
f 2 37 29
f 2 29 13
f 2 13 7
f 2 5 8
f 2 8 6
f 3 9 10
f 3 7 9
f 4 10 16
f 4 16 34
f 4 34 43
f 4 43 64
f 4 64 46
f 4 46 25
f 4 25 11
f 4 11 5
f 5 11 24
f 5 24 44
f 5 44 67
f 5 67 87
f 5 87 80
f 5 80 58
f 5 58 79
f 5 79 89
f 5 89 73
f 5 73 52
f 5 52 32
f 5 32 14
f 5 14 8
f 6 8 14
f 6 14 33
f 6 33 47
f 6 47 26
f 6 26 12
f 7 13 9
f 9 15 10
f 9 13 15
f 10 15 17
f 10 17 18
f 10 18 19
f 10 19 20
f 10 20 21
f 10 21 22
f 10 22 23
f 10 23 16
f 11 25 45
f 11 45 24
f 12 26 27
f 12 27 28
f 13 29 30
f 13 30 31
f 13 31 15
f 14 32 33
f 15 31 17
f 16 23 34
f 17 35 18
f 17 31 35
f 18 35 22
f 18 22 19
f 19 22 20
f 20 22 21
f 22 35 36
f 22 36 37
f 22 37 38
f 22 38 39
f 22 39 40
f 22 40 23
f 23 40 41
f 23 41 42
f 23 42 43
f 23 43 34
f 24 45 44
f 25 46 45
f 26 47 27
f 27 48 28
f 27 47 49
f 27 49 48
f 28 48 50
f 29 37 30
f 30 51 31
f 30 37 51
f 31 51 35
f 32 52 53
f 32 53 49
f 32 49 47
f 32 47 33
f 35 51 36
f 36 51 37
f 37 39 38
f 40 54 41
f 40 55 56
f 40 56 57
f 40 57 58
f 40 58 54
f 41 59 42
f 41 54 60
f 41 60 61
f 41 61 59
f 42 59 62
f 42 62 63
f 42 63 64
f 42 64 43
f 44 45 65
f 44 65 66
f 44 66 67
f 45 68 65
f 45 46 64
f 45 64 69
f 45 69 70
f 45 70 68
f 48 71 50
f 48 49 53
f 48 53 71
f 50 71 72
f 52 73 53
f 53 73 74
f 53 74 75
f 53 75 71
f 54 58 60
f 55 76 74
f 55 74 77
f 55 77 78
f 55 78 58
f 55 58 56
f 56 58 57
f 58 78 79
f 58 80 81
f 58 81 82
f 58 82 60
f 59 61 83
f 59 83 84
f 59 84 62
f 60 82 61
f 61 82 81
f 61 81 83
f 62 85 70
f 62 70 63
f 62 84 85
f 63 70 64
f 64 70 69
f 65 86 87
f 65 87 66
f 65 68 88
f 65 88 86
f 66 87 67
f 68 70 88
f 70 85 88
f 71 75 72
f 72 75 74
f 72 74 76
f 73 89 90
f 73 90 74
f 74 90 78
f 74 78 77
f 78 90 89
f 78 89 79
f 80 87 81
f 81 87 86
f 81 86 84
f 81 84 83
f 84 88 85
f 84 86 88

