# https://github.com/mikedh/trimesh
v 0.02483988 -0.03036771 -0.02746056
v 0.02547818 -0.02988993 -0.02746056
v 0.02483988 -0.03036771 -0.02740564
v 0.02483792 -0.03035310 -0.01081295
v 0.02483988 -0.02921708 -0.02746056
v 0.02688441 -0.02883319 -0.02746056
v 0.02547524 -0.02988889 -0.02163268
v 0.02483988 -0.03036667 -0.02571525
v 0.02483792 -0.03034789 -0.00387441
v 0.02483792 -0.02920352 -0.01081295
v 0.03379477 -0.01971054 -0.02746056
v 0.02483792 -0.02906373 0.03367425
v 0.02489389 -0.03029469 0.00457144
v 0.02489586 -0.03029677 0.00288715
v 0.02547033 -0.02988472 -0.01233247
v 0.02730667 -0.02848163 -0.02746056
v 0.02779768 -0.02805810 -0.01909404
v 0.02728802 -0.02848163 -0.01994229
v 0.02728311 -0.02847955 -0.01825190
v 0.02684808 -0.02880815 -0.01318072
v 0.02543007 -0.02987220 0.00457144
v 0.02483792 -0.03030825 0.01396318
v 0.02488800 -0.03028843 0.00796443
v 0.02489782 -0.03030303 -0.00302617
v 0.02483792 -0.03034372 -0.00037768
v 0.03379379 -0.01971054 -0.02501346
v 0.03486908 -0.01971054 -0.02746056
v 0.02483792 -0.03023106 0.03367425
v 0.03124254 -0.02285365 0.03488254
v 0.03358167 -0.01997759 0.03488254
v 0.03379182 -0.01971054 -0.01081906
v 0.03379182 -0.01971054 -0.01233247
v 0.02483792 -0.03032911 0.00728705
v 0.02483792 -0.03033641 0.00383914
v 0.02779178 -0.02805810 -0.02746056
v 0.02779768 -0.02805810 -0.01994229
v 0.02778295 -0.02803411 -0.00726130
v 0.02868344 -0.02724650 0.00457144
v 0.02868344 -0.02724546 0.00541969
v 0.02868246 -0.02724337 0.00711008
v 0.02867264 -0.02722355 0.01641639
v 0.02817476 -0.02767004 0.00541969
v 0.02811290 -0.02761996 0.03247816
v 0.02810995 -0.02761788 0.03367425
v 0.02793909 -0.02775453 0.03367425
v 0.02487524 -0.03027278 0.01557424
v 0.02483792 -0.03030199 0.01564747
v 0.03446057 -0.02039799 -0.02332307
v 0.03446057 -0.02039695 -0.02746056
v 0.03486908 -0.01971054 -0.01081906
v 0.03244550 -0.02285365 0.03488254
v 0.03469527 -0.01997759 0.03488254
v 0.02826511 -0.02761162 -0.02746056
v 0.02821503 -0.02766065 -0.02670385
v 0.02821994 -0.02766691 -0.01909404
v 0.02867559 -0.02725172 -0.00641305
v 0.02867657 -0.02725172 -0.00472266
v 0.02867068 -0.02722251 0.01726463
v 0.02910669 -0.02684801 0.00457144
v 0.02910669 -0.02684801 0.00541969
v 0.02910571 -0.02684801 0.00728705
v 0.02909588 -0.02684905 0.01557424
v 0.02909392 -0.02684905 0.01641639
v 0.02863827 -0.02720060 0.03079387
v 0.02863140 -0.02719539 0.03367425
v 0.03418659 -0.02082153 -0.02746056
v 0.03446057 -0.02039799 -0.01656150
v 0.03469625 -0.01997759 0.03417465
v 0.03470116 -0.01997759 0.02755955
v 0.03470312 -0.01997759 0.02487445
v 0.03470509 -0.01997759 0.02148756
v 0.03446253 -0.02039069 0.02148756
v 0.03446253 -0.02039278 0.00965482
v 0.02905267 -0.02679689 0.03367425
v 0.02946315 -0.02637440 0.03367425
v 0.02971455 -0.02609274 0.03367425
v 0.03025956 -0.02547831 0.03367425
v 0.03051193 -0.02518204 0.03367425
v 0.03103927 -0.02455926 0.03367425
v 0.03293552 -0.02226634 0.03488254
v 0.03449494 -0.02030828 0.03488254
v 0.03445468 -0.02037713 0.03417465
v 0.03445860 -0.02038235 0.02909737
v 0.02908115 -0.02683444 -0.02746056
v 0.02875906 -0.02716618 -0.01081906
v 0.02910080 -0.02684801 -0.00387441
v 0.02909392 -0.02684696 -0.01081906
v 0.02909294 -0.02684696 0.01726463
v 0.02952600 -0.02642447 -0.00810344
v 0.02952600 -0.02642447 -0.00726130
v 0.02952404 -0.02642447 -0.00302617
v 0.02951618 -0.02642656 0.00728705
v 0.02951029 -0.02642656 0.01641639
v 0.02950931 -0.02642552 0.01726463
v 0.02905660 -0.02680002 0.03247816
v 0.02908901 -0.02684279 0.01895503
v 0.03418364 -0.02082153 -0.01909404
v 0.03375942 -0.02142866 -0.01656150
v 0.03376335 -0.02142553 -0.02501346
v 0.03376335 -0.02142449 -0.02746056
v 0.03375647 -0.02142657 -0.01148423
v 0.03375843 -0.02142866 -0.01487111
v 0.03418266 -0.02082153 -0.01656150
v 0.03110408 -0.02463019 0.01895503
v 0.03152143 -0.02415033 0.02064542
v 0.03026447 -0.02548248 0.03247816
v 0.03107757 -0.02460203 0.02740698
v 0.03107364 -0.02459890 0.02825523
v 0.03106873 -0.02459368 0.02909737
v 0.03337447 -0.02177813 0.03248426
v 0.03187397 -0.02370072 0.02458153
v 0.03365041 -0.02140780 0.03488254
v 0.03445369 -0.02037609 0.03488254
v 0.03440066 -0.02044807 0.03488254
v 0.03414731 -0.02080275 0.03163601
v 0.03414829 -0.02080379 0.03078777
v 0.03415418 -0.02081109 0.02402620
v 0.02928738 -0.02663728 -0.02746056
v 0.02952600 -0.02642239 -0.01081295
v 0.02952305 -0.02641091 -0.02746056
v 0.02994237 -0.02597695 -0.02746056
v 0.02994237 -0.02597903 -0.02416522
v 0.02994335 -0.02597903 -0.02247482
v 0.02994532 -0.02596860 -0.00726130
v 0.03191325 -0.02374453 0.01219346
v 0.03153223 -0.02416389 0.01641639
v 0.03032830 -0.02555341 -0.01656150
v 0.03111685 -0.02464480 0.00626794
v 0.03344321 -0.02185115 -0.01571326
v 0.03342946 -0.02184489 -0.02746056
v 0.03375549 -0.02142657 -0.01081906
v 0.03300327 -0.02239465 0.01726463
v 0.03300622 -0.02239882 0.01303560
v 0.03344125 -0.02184907 -0.01081295
v 0.03191030 -0.02374036 0.01641639
v 0.03190736 -0.02373827 0.01726463
v 0.03189754 -0.02372680 0.02064542
v 0.03189361 -0.02372262 0.02148756
v 0.03371032 -0.02133582 0.03488254
v 0.03297872 -0.02231850 0.02825523
v 0.03298854 -0.02233102 0.02655874
v 0.03413258 -0.02079962 0.03488254
v 0.03372603 -0.02136711 0.03078777
v 0.03341670 -0.02180942 0.02487445
v 0.03372897 -0.02138485 0.02655874
v 0.03032241 -0.02555341 -0.02746056
v 0.03032732 -0.02555446 -0.02332307
v 0.03265663 -0.02285365 0.01049697
v 0.03112176 -0.02464897 -0.00217792
v 0.03191521 -0.02374766 0.00626794
v 0.03112176 -0.02465315 -0.00895169
v 0.03112176 -0.02465315 -0.00726130
v 0.03301899 -0.02236961 -0.01656150
v 0.03300720 -0.02240091 0.01049697
v 0.03268020 -0.02282340 0.01049697
v 0.03301113 -0.02236022 -0.02332307
v 0.03300622 -0.02235188 -0.02746056
v 0.03300229 -0.02239361 0.01810678
v 0.03267136 -0.02281818 0.01726463
v 0.03300720 -0.02239987 0.01134521
v 0.03264288 -0.02285365 0.01726463
v 0.03263895 -0.02285365 0.01810678
v 0.03299836 -0.02235814 0.02317795
v 0.03299149 -0.02233728 0.02571659
v 0.03371326 -0.02134208 0.03417465
v 0.03340688 -0.02180421 0.02740698
v 0.03372112 -0.02135564 0.03248426
v 0.03372406 -0.02136190 0.03163601
v 0.03341081 -0.02180734 0.02655874
v 0.03074467 -0.02505060 -0.02746056
v 0.03074565 -0.02505269 -0.02670385
v 0.03111390 -0.02464793 -0.01487111
v 0.03112078 -0.02465315 -0.00979384
v 0.03191423 -0.02374766 0.00457144
v 0.03110899 -0.02464167 -0.01909404
v 0.03154205 -0.02414929 -0.01063598
v 0.03300131 -0.02238839 0.01895503
v 0.03266939 -0.02281610 0.01810678
f 1 2 3
f 1 3 4
f 1 4 10
f 1 10 5
f 1 5 11
f 1 11 27
f 1 27 49
f 1 49 66
f 1 66 100
f 1 100 130
f 1 130 157
f 1 157 170
f 1 170 146
f 1 146 121
f 1 121 120
f 1 120 118
f 1 118 84
f 1 84 53
f 1 53 35
f 1 35 16
f 1 16 6
f 1 6 2
f 2 6 7
f 2 7 3
f 3 8 4
f 3 7 8
f 4 8 9
f 4 9 25
f 4 25 34
f 4 34 33
f 4 33 22
f 4 22 47
f 4 47 28
f 4 28 12
f 4 12 10
f 5 10 12
f 5 12 11
f 6 13 14
f 6 14 15
f 6 15 7
f 6 16 17
f 6 17 18
f 6 18 19
f 6 19 20
f 6 20 21
f 6 21 22
f 6 22 23
f 6 23 13
f 7 15 8
f 8 15 24
f 8 24 9
f 9 24 25
f 11 26 32
f 11 32 31
f 11 31 50
f 11 50 27
f 11 12 26
f 12 28 29
f 12 29 30
f 12 30 31
f 12 31 32
f 12 32 26
f 13 33 34
f 13 34 14
f 13 23 22
f 13 22 33
f 14 34 25
f 14 25 24
f 14 24 15
f 16 35 36
f 16 36 17
f 17 37 18
f 17 36 38
f 17 38 39
f 17 39 40
f 17 40 41
f 17 41 37
f 18 37 19
f 19 37 42
f 19 42 43
f 19 43 44
f 19 44 20
f 20 44 45
f 20 45 21
f 21 45 46
f 21 46 22
f 22 46 47
f 27 48 49
f 27 50 67
f 27 67 48
f 28 45 51
f 28 51 29
f 28 47 46
f 28 46 45
f 29 51 80
f 29 80 112
f 29 112 139
f 29 139 142
f 29 142 114
f 29 114 113
f 29 113 81
f 29 81 52
f 29 52 30
f 30 52 50
f 30 50 31
f 35 53 54
f 35 54 55
f 35 55 36
f 36 55 56
f 36 56 57
f 36 57 38
f 37 41 58
f 37 58 42
f 38 57 59
f 38 59 60
f 38 60 61
f 38 61 62
f 38 62 39
f 39 62 40
f 40 62 63
f 40 63 41
f 41 63 58
f 42 58 64
f 42 64 43
f 43 64 44
f 44 64 65
f 44 65 51
f 44 51 45
f 48 66 49
f 48 67 66
f 50 52 68
f 50 68 69
f 50 69 70
f 50 70 71
f 50 71 72
f 50 72 73
f 50 73 67
f 51 65 74
f 51 74 75
f 51 75 76
f 51 76 77
f 51 77 78
f 51 78 79
f 51 79 80
f 52 81 82
f 52 82 83
f 52 83 68
f 53 84 54
f 54 84 85
f 54 85 55
f 55 85 56
f 56 86 59
f 56 59 57
f 56 85 87
f 56 87 86
f 58 63 88
f 58 88 64
f 59 86 89
f 59 89 90
f 59 90 60
f 60 90 91
f 60 91 61
f 61 91 92
f 61 92 93
f 61 93 62
f 62 93 63
f 63 93 94
f 63 94 88
f 64 88 65
f 65 95 74
f 65 88 96
f 65 96 95
f 66 97 98
f 66 98 99
f 66 99 100
f 66 67 73
f 66 73 72
f 66 72 97
f 68 83 72
f 68 72 69
f 69 72 70
f 70 72 71
f 72 83 101
f 72 101 102
f 72 102 98
f 72 98 103
f 72 103 97
f 74 95 94
f 74 94 75
f 75 104 76
f 75 94 104
f 76 104 105
f 76 105 106
f 76 106 77
f 77 106 107
f 77 107 108
f 77 108 109
f 77 109 78
f 78 109 79
f 79 110 80
f 79 109 111
f 79 111 110
f 80 110 112
f 81 113 82
f 82 113 114
f 82 114 115
f 82 115 116
f 82 116 117
f 82 117 83
f 83 117 101
f 84 118 87
f 84 87 85
f 86 119 89
f 86 87 120
f 86 120 119
f 87 118 120
f 88 94 96
f 89 119 121
f 89 121 122
f 89 122 123
f 89 123 90
f 90 123 91
f 91 123 124
f 91 124 92
f 92 124 93
f 93 125 126
f 93 126 94
f 93 124 127
f 93 127 128
f 93 128 125
f 94 126 104
f 94 95 96
f 97 103 98
f 98 102 129
f 98 129 99
f 99 129 100
f 100 129 130
f 101 131 132
f 101 132 133
f 101 133 134
f 101 134 102
f 101 117 131
f 102 134 129
f 104 126 135
f 104 135 136
f 104 136 105
f 105 136 137
f 105 137 106
f 106 137 107
f 107 137 108
f 108 137 138
f 108 138 109
f 109 138 111
f 110 139 112
f 110 111 140
f 110 140 141
f 110 141 139
f 111 138 140
f 114 142 143
f 114 143 115
f 115 143 144
f 115 144 145
f 115 145 116
f 116 145 117
f 117 145 132
f 117 132 131
f 119 120 121
f 121 146 147
f 121 147 123
f 121 123 122
f 123 147 127
f 123 127 124
f 125 148 135
f 125 135 126
f 125 128 149
f 125 149 150
f 125 150 148
f 127 147 151
f 127 151 152
f 127 152 149
f 127 149 128
f 129 153 130
f 129 134 154
f 129 154 155
f 129 155 148
f 129 148 153
f 130 156 157
f 130 153 156
f 132 145 158
f 132 158 159
f 132 159 148
f 132 148 155
f 132 155 133
f 133 155 160
f 133 160 134
f 134 160 154
f 135 148 161
f 135 161 162
f 135 162 136
f 136 162 137
f 137 162 138
f 138 162 163
f 138 163 164
f 138 164 141
f 138 141 140
f 139 141 165
f 139 165 142
f 141 164 166
f 141 166 167
f 141 167 165
f 142 165 167
f 142 167 168
f 142 168 143
f 143 168 169
f 143 169 144
f 144 158 145
f 144 169 158
f 146 170 171
f 146 171 172
f 146 172 173
f 146 173 147
f 147 173 151
f 148 159 161
f 148 150 174
f 148 174 153
f 149 152 150
f 150 152 151
f 150 151 174
f 151 173 174
f 153 174 156
f 154 160 155
f 156 175 171
f 156 171 157
f 156 174 176
f 156 176 175
f 157 171 170
f 158 169 177
f 158 177 178
f 158 178 159
f 159 178 161
f 161 178 162
f 162 178 163
f 163 177 169
f 163 169 166
f 163 166 164
f 163 178 177
f 166 169 168
f 166 168 167
f 171 175 172
f 172 175 176
f 172 176 174
f 172 174 173

