# https://github.com/mikedh/trimesh
v -0.03940895 -0.01158600 -0.03189248
v -0.03854833 -0.01158600 -0.03189248
v -0.03940100 -0.01158600 -0.03198155
v -0.03922606 -0.01209604 -0.03263228
v -0.03925603 -0.01222801 -0.03189248
v -0.03491376 -0.01158600 -0.03581454
v -0.03316071 -0.02093743 -0.03189248
v -0.03934228 -0.01158600 -0.03263228
v -0.03918753 -0.01191800 -0.03311486
v -0.03907559 -0.01251916 -0.03263228
v -0.03912514 -0.01265112 -0.03189248
v -0.03914348 -0.01259771 -0.03189248
v -0.03433145 -0.01377907 -0.03581454
v -0.03765651 -0.01158600 -0.03581454
v -0.03316071 -0.02228532 -0.03189248
v -0.03316071 -0.01919052 -0.03581454
v -0.03325124 -0.01876950 -0.03581454
v -0.03931720 -0.01158600 -0.03278431
v -0.03922117 -0.01158600 -0.03330989
v -0.03907681 -0.01158600 -0.03370033
v -0.03884438 -0.01158600 -0.03429386
v -0.03841070 -0.01293808 -0.03412839
v -0.03841437 -0.01378221 -0.03329261
v -0.03883092 -0.01312555 -0.03263228
v -0.03909394 -0.01272652 -0.03189248
v -0.03770238 -0.01158600 -0.03579189
v -0.03707725 -0.01379059 -0.03581454
v -0.03334849 -0.02210414 -0.03189248
v -0.03413082 -0.02119717 -0.03432342
v -0.03411003 -0.02117517 -0.03499181
v -0.03316071 -0.02225704 -0.03233936
v -0.03316071 -0.02196275 -0.03581454
v -0.03877709 -0.01158600 -0.03445165
v -0.03663440 -0.01609782 -0.03559763
v -0.03853548 -0.01233064 -0.03437563
v -0.03670658 -0.01643086 -0.03509739
v -0.03762837 -0.01480648 -0.03431651
v -0.03752622 -0.01536784 -0.03402973
v -0.03849939 -0.01391417 -0.03263228
v -0.03887312 -0.01322400 -0.03189248
v -0.03774031 -0.01158600 -0.03577308
v -0.03672248 -0.01497719 -0.03581454
v -0.03708092 -0.01389532 -0.03579650
v -0.03382193 -0.02160038 -0.03189248
v -0.03414795 -0.02121811 -0.03347804
v -0.03489786 -0.02026925 -0.03516918
v -0.03408923 -0.02115527 -0.03555578
v -0.03325063 -0.02200779 -0.03479295
v -0.03326714 -0.02202349 -0.03432342
v -0.03316071 -0.02209890 -0.03470810
v -0.03316071 -0.02203187 -0.03544637
v -0.03379563 -0.02134065 -0.03581454
v -0.03849450 -0.01158600 -0.03499642
v -0.03840703 -0.01208243 -0.03489084
v -0.03652491 -0.01666127 -0.03533119
v -0.03747973 -0.01356228 -0.03559571
v -0.03670535 -0.01566213 -0.03566750
v -0.03597196 -0.01735249 -0.03580571
v -0.03585696 -0.01796726 -0.03569054
v -0.03663807 -0.01695137 -0.03476722
v -0.03853365 -0.01392779 -0.03189248
v -0.03580803 -0.01866268 -0.03486052
v -0.03515171 -0.01984614 -0.03516918
v -0.03808712 -0.01158600 -0.03549858
v -0.03684359 -0.01481696 -0.03577269
v -0.03629798 -0.01631880 -0.03581454
v -0.03415345 -0.02123068 -0.03189248
v -0.03415284 -0.02122754 -0.03263228
v -0.03489603 -0.02027658 -0.03189248
v -0.03492906 -0.02022421 -0.03189248
v -0.03515966 -0.01985452 -0.03189248
v -0.03515660 -0.01984823 -0.03432342
v -0.03507769 -0.01971941 -0.03579765
v -0.03403418 -0.02105578 -0.03581454
v -0.03322432 -0.02198265 -0.03535692
v -0.03316071 -0.02204653 -0.03530931
v -0.03816848 -0.01158600 -0.03540375
v -0.03637811 -0.01728127 -0.03509739
v -0.03603863 -0.01711371 -0.03581454
v -0.03595850 -0.01735249 -0.03581454
v -0.03593832 -0.01740695 -0.03581454
v -0.03509604 -0.01963249 -0.03581454
v -0.03574136 -0.01853176 -0.03542448
v -0.03594810 -0.01822909 -0.03515306
v -0.03763265 -0.01551446 -0.03263228
v -0.03763326 -0.01551656 -0.03189248
v -0.03559028 -0.01898420 -0.03515306
v -0.03582026 -0.01868467 -0.03432342
v -0.03505017 -0.01973512 -0.03581454
f 1 2 6
f 1 6 14
f 1 14 26
f 1 26 41
f 1 41 64
f 1 64 77
f 1 77 53
f 1 53 33
f 1 33 21
f 1 21 20
f 1 20 19
f 1 19 18
f 1 18 8
f 1 8 3
f 1 3 4
f 1 4 5
f 1 5 12
f 1 12 11
f 1 11 25
f 1 25 40
f 1 40 61
f 1 61 86
f 1 86 71
f 1 71 70
f 1 70 69
f 1 69 67
f 1 67 44
f 1 44 28
f 1 28 15
f 1 15 7
f 1 7 2
f 2 7 6
f 3 8 4
f 4 8 9
f 4 9 10
f 4 10 11
f 4 11 12
f 4 12 5
f 6 13 17
f 6 17 16
f 6 16 32
f 6 32 52
f 6 52 74
f 6 74 89
f 6 89 82
f 6 82 81
f 6 81 80
f 6 80 79
f 6 79 66
f 6 66 42
f 6 42 27
f 6 27 14
f 6 7 13
f 7 15 31
f 7 31 50
f 7 50 76
f 7 76 51
f 7 51 32
f 7 32 16
f 7 16 17
f 7 17 13
f 8 18 9
f 9 18 19
f 9 19 20
f 9 20 21
f 9 21 22
f 9 22 23
f 9 23 10
f 10 24 11
f 10 23 24
f 11 24 25
f 14 27 26
f 15 28 29
f 15 29 30
f 15 30 31
f 21 33 34
f 21 34 35
f 21 35 22
f 22 35 34
f 22 34 36
f 22 36 37
f 22 37 23
f 23 37 38
f 23 38 39
f 23 39 24
f 24 39 25
f 25 39 40
f 26 27 41
f 27 42 43
f 27 43 41
f 28 44 45
f 28 45 29
f 29 45 46
f 29 46 30
f 30 47 48
f 30 48 49
f 30 49 31
f 30 46 47
f 31 49 50
f 32 51 47
f 32 47 52
f 33 53 54
f 33 54 34
f 34 55 36
f 34 54 56
f 34 56 57
f 34 57 58
f 34 58 59
f 34 59 55
f 36 55 60
f 36 60 37
f 37 60 38
f 38 60 39
f 39 61 40
f 39 60 62
f 39 62 63
f 39 63 61
f 41 56 64
f 41 43 56
f 42 65 43
f 42 66 65
f 43 65 56
f 44 67 68
f 44 68 45
f 45 68 46
f 46 68 67
f 46 67 69
f 46 69 70
f 46 70 71
f 46 71 72
f 46 72 63
f 46 63 73
f 46 73 47
f 47 74 52
f 47 51 75
f 47 75 76
f 47 76 48
f 47 73 74
f 48 76 50
f 48 50 49
f 51 76 75
f 53 77 56
f 53 56 54
f 55 59 78
f 55 78 60
f 56 77 64
f 56 65 57
f 57 65 79
f 57 79 58
f 58 79 80
f 58 80 81
f 58 81 82
f 58 82 59
f 59 82 73
f 59 73 83
f 59 83 78
f 60 78 83
f 60 83 84
f 60 84 62
f 61 63 85
f 61 85 86
f 62 84 87
f 62 87 63
f 63 87 73
f 63 72 88
f 63 88 85
f 65 66 79
f 71 88 72
f 71 86 85
f 71 85 88
f 73 82 89
f 73 89 74
f 73 87 83
f 83 87 84

