# https://github.com/mikedh/trimesh
v -0.03957943 -0.01089905 -0.02775512
v -0.03871364 -0.01089905 -0.02775512
v -0.03958010 -0.01089905 -0.02755289
v -0.04005063 -0.01025846 0.04348254
v -0.04004453 -0.01024890 0.04094431
v -0.04003639 -0.01023388 0.03756234
v -0.04003063 -0.01022022 0.03502411
v -0.04001707 -0.00933378 -0.02775512
v -0.03876211 -0.01058763 -0.02775512
v -0.03873770 -0.01089905 0.04348254
v -0.03975570 -0.01089905 0.02794637
v -0.03975638 -0.01089905 0.02964782
v -0.03975638 -0.01089905 0.03219999
v -0.03975604 -0.01089905 0.03390144
v -0.03975570 -0.01089905 0.03559591
v -0.03975333 -0.01089905 0.04323151
v -0.03985469 -0.01068051 0.04348254
v -0.04018521 -0.00974080 0.04348254
v -0.04003266 -0.01022432 0.03586786
v -0.04010283 -0.00899777 -0.02775512
v -0.04116829 0.00305457 -0.02775512
v -0.04121744 0.00305457 0.04348254
v -0.03975265 -0.01089905 0.04348254
v -0.04037979 -0.00889533 0.04348254
v -0.04120490 -0.00466663 -0.02775512
v -0.04115473 -0.00486468 -0.02775512
v -0.04191442 0.00305457 -0.02775512
v -0.04210663 0.00305457 0.04348254
v -0.04115710 -0.00551210 0.04348254
v -0.04123066 -0.00466663 -0.01486874
v -0.04174255 -0.00199228 -0.00641032
v -0.04174119 -0.00198681 -0.00725407
v -0.04173577 -0.00197042 -0.00979229
v -0.04173407 -0.00196360 -0.01064302
v -0.04173238 -0.00195677 -0.01148677
v -0.04135169 -0.00382253 -0.02775512
v -0.04191577 0.00302862 -0.02775512
v -0.04192967 0.00305457 -0.02659757
v -0.04212663 0.00305457 0.04263181
v -0.04212019 0.00294257 0.04348254
v -0.04130558 -0.00466663 0.04348254
v -0.04174356 -0.00199501 -0.00556657
v -0.04208696 0.00040617 0.03248589
v -0.04208527 0.00040617 0.03164214
v -0.04207781 0.00040617 0.02825319
v -0.04206629 0.00040617 0.02318371
v -0.04181746 -0.00128476 -0.00556657
v -0.04206425 0.00040617 0.02233299
v -0.04206018 0.00040617 0.02064549
v -0.04172695 -0.00193218 -0.01402499
v -0.04171305 -0.00181881 -0.02078894
v -0.04170932 -0.00177511 -0.02248342
v -0.04170729 -0.00174779 -0.02332717
v -0.04170526 -0.00172457 -0.02393383
v -0.04172187 -0.00112086 -0.02775512
v -0.04172356 -0.00191306 -0.01571249
v -0.04171983 -0.00189120 -0.01740697
v -0.04171814 -0.00187755 -0.01825072
v -0.04171644 -0.00186116 -0.01909447
v -0.04171475 -0.00184067 -0.01994519
v -0.04192018 0.00294257 -0.02775512
v -0.04194425 0.00294257 -0.02586539
v -0.04193882 0.00305457 -0.02586539
v -0.04213239 0.00305457 0.03756234
v -0.04213714 0.00294257 0.04178806
v -0.04213612 0.00294257 0.04263181
v -0.04217646 0.00209711 0.04348254
v -0.04175238 -0.00205921 0.04348254
v -0.04175238 -0.00205784 0.04263181
v -0.04174933 -0.00203599 0.02572194
v -0.04174763 -0.00202369 0.01641279
v -0.04174492 -0.00200321 0.00119738
v -0.04209205 0.00040617 0.04263181
v -0.04209103 0.00040617 0.04009359
v -0.04208866 0.00040617 0.03417339
v -0.04208798 0.00040617 0.03332964
v -0.04174661 -0.00201550 0.01049259
v -0.04216019 0.00125164 0.03248589
v -0.04215849 0.00125164 0.03164214
v -0.04214459 0.00125164 0.02572194
v -0.04181475 -0.00128476 -0.00641032
v -0.04205781 0.00040617 0.01980174
v -0.04214256 0.00125164 0.02487121
v -0.04213849 0.00125164 0.02318371
v -0.04211849 0.00209711 0.00204811
v -0.04210086 0.00209711 -0.00218459
v -0.04201272 0.00125164 -0.00725407
v -0.04180458 -0.00128476 -0.00894854
v -0.04192798 -0.00043930 0.00458633
v -0.04204425 0.00040617 0.01641279
v -0.04201611 0.00040617 0.00964884
v -0.04209374 0.00209711 -0.00387209
v -0.04209002 0.00209711 -0.00472282
v -0.04208629 0.00209711 -0.00556657
v -0.04207747 0.00209711 -0.00725407
v -0.04207273 0.00209711 -0.00810479
v -0.04206798 0.00209711 -0.00894854
v -0.04190120 0.00040617 -0.01656322
v -0.04182052 -0.00043930 -0.01994519
v -0.04181509 -0.00043930 -0.02078894
v -0.04172865 -0.00136398 -0.02419881
v -0.04172831 -0.00121101 -0.02586539
v -0.04176899 -0.00043930 -0.02775512
v -0.04180797 -0.00128476 -0.00810479
v -0.04192255 0.00274589 -0.02775512
v -0.04194018 0.00305457 -0.02575382
v -0.04192730 0.00209711 -0.02775512
v -0.04195408 0.00294257 -0.02501467
v -0.04195035 0.00305457 -0.02490310
v -0.04214731 0.00305457 0.02402746
v -0.04214154 0.00294257 0.03756234
v -0.04215002 0.00305457 0.02148924
v -0.04217680 0.00209711 0.04094431
v -0.04216595 0.00125164 0.04348254
v -0.04215341 0.00294257 0.02572194
v -0.04215680 0.00294257 0.02233299
v -0.04215917 0.00294257 0.01980174
v -0.04216154 0.00294257 0.01641279
v -0.04216426 0.00294257 0.01218706
v -0.04216629 0.00294257 0.00880509
v -0.04216697 0.00294257 0.00711758
v -0.04209205 0.00040617 0.04348254
v -0.04216527 0.00125164 0.04094431
v -0.04216493 0.00125164 0.04009359
v -0.04216426 0.00125164 0.03840609
v -0.04216222 0.00125164 0.03417339
v -0.04217307 0.00209711 0.02233299
v -0.04216798 0.00209711 0.01980174
v -0.04216053 0.00209711 0.01641279
v -0.04214866 0.00209711 0.01134331
v -0.04205476 0.00040617 0.01895101
v -0.04213578 0.00125164 0.02233299
v -0.04214663 0.00209711 0.01049259
v -0.04213849 0.00209711 0.00711758
v -0.04212900 0.00209711 0.00458633
v -0.04214764 0.00294257 -0.00387209
v -0.04210425 0.00125164 0.01472529
v -0.04213239 0.00125164 0.02148924
v -0.04214222 0.00294257 -0.00472282
v -0.04205713 0.00209711 -0.01064302
v -0.04204052 0.00209711 -0.01317427
v -0.04189272 0.00125164 -0.02670914
v -0.04177034 -0.00043930 -0.02755289
v -0.04193747 0.00125164 -0.01994519
v -0.04181374 0.00020949 -0.02775512
v -0.04191781 0.00190042 -0.02775512
v -0.04196628 0.00209711 -0.02332717
v -0.04202459 0.00294257 -0.01825072
v -0.04200900 0.00294257 -0.01994519
v -0.04200052 0.00294257 -0.02078894
v -0.04196357 0.00294257 -0.02417092
v -0.04197882 0.00305457 -0.02237185
v -0.04215171 0.00305457 0.01980174
v -0.04217646 0.00209711 0.03840609
v -0.04216697 0.00294257 0.00627383
v -0.04217476 0.00209711 0.02740944
v -0.04217409 0.00209711 0.02402746
v -0.04215442 0.00305457 0.01652436
v -0.04215578 0.00305457 0.01483686
v -0.04215714 0.00305457 0.01314238
v -0.04216053 0.00305457 0.00880509
v -0.04216154 0.00305457 0.00722915
v -0.04217375 0.00209711 0.02318371
v -0.04216392 0.00294257 0.00373561
v -0.04216290 0.00294257 0.00289186
v -0.04216019 0.00294257 0.00119738
v -0.04215510 0.00294257 -0.00133387
v -0.04213578 0.00209711 0.00627383
v -0.04215307 0.00294257 -0.00218459
v -0.04215103 0.00294257 -0.00302834
v -0.04214798 0.00305457 -0.00387209
v -0.04214358 0.00305457 -0.00461125
v -0.04214290 0.00305457 -0.00472282
v -0.04213544 0.00294257 -0.00556657
v -0.04199510 0.00209711 -0.01994519
v -0.04200120 0.00209711 -0.01909447
v -0.04200696 0.00209711 -0.01825072
v -0.04201815 0.00209711 -0.01656322
v -0.04188560 0.00125164 -0.02775512
v -0.04187204 0.00105496 -0.02775512
v -0.04198832 0.00209711 -0.02078894
v -0.04212832 0.00294257 -0.00641032
v -0.04209137 0.00294257 -0.01064302
v -0.04206052 0.00305457 -0.01391342
v -0.04202222 0.00305457 -0.01813915
v -0.04201442 0.00305457 -0.01898987
v -0.04213680 0.00305457 -0.00545500
v -0.04212934 0.00305457 -0.00629875
v -0.04211408 0.00305457 -0.00799322
v -0.04209883 0.00305457 -0.00968072
v -0.04200527 0.00305457 -0.01994519
v -0.04199747 0.00305457 -0.02067737
v -0.04198832 0.00305457 -0.02152112
v -0.04216154 0.00305457 0.00627383
v -0.04216120 0.00305457 0.00543008
v -0.04215985 0.00305457 0.00373561
v -0.04215849 0.00305457 0.00204811
v -0.04215748 0.00305457 0.00119738
v -0.04215409 0.00305457 -0.00133387
v -0.04215273 0.00305457 -0.00218459
v -0.04215070 0.00305457 -0.00302834
f 1 2 10
f 1 10 23
f 1 23 16
f 1 16 15
f 1 15 14
f 1 14 13
f 1 13 12
f 1 12 11
f 1 11 3
f 1 3 4
f 1 4 5
f 1 5 6
f 1 6 7
f 1 7 8
f 1 8 20
f 1 20 26
f 1 26 25
f 1 25 36
f 1 36 55
f 1 55 103
f 1 103 145
f 1 145 180
f 1 180 179
f 1 179 146
f 1 146 107
f 1 107 105
f 1 105 61
f 1 61 37
f 1 37 27
f 1 27 21
f 1 21 9
f 1 9 2
f 2 9 10
f 3 11 4
f 4 11 12
f 4 12 13
f 4 13 14
f 4 14 15
f 4 15 16
f 4 16 17
f 4 17 23
f 4 23 10
f 4 10 22
f 4 22 28
f 4 28 40
f 4 40 67
f 4 67 114
f 4 114 122
f 4 122 68
f 4 68 41
f 4 41 29
f 4 29 24
f 4 24 18
f 4 18 5
f 5 18 6
f 6 18 19
f 6 19 7
f 7 19 18
f 7 18 20
f 7 20 8
f 9 21 10
f 10 21 22
f 16 23 17
f 18 24 25
f 18 25 26
f 18 26 20
f 21 27 38
f 21 38 63
f 21 63 106
f 21 106 109
f 21 109 152
f 21 152 193
f 21 193 192
f 21 192 191
f 21 191 186
f 21 186 185
f 21 185 184
f 21 184 190
f 21 190 189
f 21 189 188
f 21 188 187
f 21 187 173
f 21 173 172
f 21 172 171
f 21 171 201
f 21 201 200
f 21 200 199
f 21 199 198
f 21 198 197
f 21 197 196
f 21 196 195
f 21 195 194
f 21 194 162
f 21 162 161
f 21 161 160
f 21 160 159
f 21 159 158
f 21 158 153
f 21 153 112
f 21 112 110
f 21 110 64
f 21 64 39
f 21 39 28
f 21 28 22
f 24 29 25
f 25 30 31
f 25 31 32
f 25 32 33
f 25 33 34
f 25 34 35
f 25 35 36
f 25 29 30
f 27 37 38
f 28 39 40
f 29 41 42
f 29 42 30
f 30 42 31
f 31 42 43
f 31 43 44
f 31 44 45
f 31 45 46
f 31 46 32
f 32 47 33
f 32 46 48
f 32 48 49
f 32 49 47
f 33 47 34
f 34 47 35
f 35 50 36
f 35 47 50
f 36 51 52
f 36 52 53
f 36 53 54
f 36 54 55
f 36 50 56
f 36 56 57
f 36 57 58
f 36 58 59
f 36 59 60
f 36 60 51
f 37 61 38
f 38 61 62
f 38 62 63
f 39 64 65
f 39 65 66
f 39 66 40
f 40 66 67
f 41 68 69
f 41 69 70
f 41 70 71
f 41 71 42
f 42 72 73
f 42 73 74
f 42 74 75
f 42 75 76
f 42 76 43
f 42 71 77
f 42 77 72
f 43 76 126
f 43 126 78
f 43 78 79
f 43 79 44
f 44 79 45
f 45 79 46
f 46 79 80
f 46 80 83
f 46 83 48
f 47 81 56
f 47 56 50
f 47 49 82
f 47 82 81
f 48 83 84
f 48 84 49
f 49 84 82
f 51 85 86
f 51 86 87
f 51 87 52
f 51 60 88
f 51 88 89
f 51 89 90
f 51 90 91
f 51 91 85
f 52 87 92
f 52 92 93
f 52 93 94
f 52 94 53
f 53 94 95
f 53 95 96
f 53 96 97
f 53 97 54
f 54 98 99
f 54 99 100
f 54 100 101
f 54 101 102
f 54 102 55
f 54 97 98
f 55 102 103
f 56 81 57
f 57 81 58
f 58 81 59
f 59 81 60
f 60 81 104
f 60 104 88
f 61 105 62
f 62 106 63
f 62 105 107
f 62 107 108
f 62 108 109
f 62 109 106
f 64 110 65
f 65 111 67
f 65 67 66
f 65 110 112
f 65 112 111
f 67 113 114
f 67 111 115
f 67 115 116
f 67 116 117
f 67 117 118
f 67 118 119
f 67 119 120
f 67 120 121
f 67 121 113
f 68 122 73
f 68 73 69
f 69 73 70
f 70 77 71
f 70 73 77
f 72 77 73
f 73 122 114
f 73 114 123
f 73 123 124
f 73 124 74
f 74 124 75
f 75 124 125
f 75 125 126
f 75 126 76
f 78 126 127
f 78 127 128
f 78 128 79
f 79 128 129
f 79 129 130
f 79 130 80
f 80 130 133
f 80 133 83
f 81 82 131
f 81 131 104
f 82 84 132
f 82 132 131
f 83 133 134
f 83 134 84
f 84 134 132
f 85 135 136
f 85 136 86
f 85 91 137
f 85 137 138
f 85 138 135
f 86 136 92
f 86 92 87
f 88 104 131
f 88 131 89
f 89 131 90
f 90 131 138
f 90 138 137
f 90 137 91
f 92 136 93
f 93 136 94
f 94 136 95
f 95 136 96
f 96 136 97
f 97 136 139
f 97 139 140
f 97 140 98
f 98 140 100
f 98 100 99
f 100 141 102
f 100 102 101
f 100 140 141
f 102 142 143
f 102 143 103
f 102 141 144
f 102 144 142
f 103 143 142
f 103 142 145
f 107 146 147
f 107 147 148
f 107 148 149
f 107 149 150
f 107 150 151
f 107 151 108
f 108 151 152
f 108 152 109
f 111 112 153
f 111 153 115
f 113 154 114
f 113 121 155
f 113 155 154
f 114 154 156
f 114 156 157
f 114 157 123
f 115 153 116
f 116 153 117
f 117 153 158
f 117 158 159
f 117 159 160
f 117 160 161
f 117 161 118
f 118 161 162
f 118 162 119
f 119 162 120
f 120 162 121
f 121 162 194
f 121 194 155
f 123 157 124
f 124 157 163
f 124 163 125
f 125 163 126
f 126 163 127
f 127 163 155
f 127 155 164
f 127 164 165
f 127 165 166
f 127 166 167
f 127 167 128
f 128 167 129
f 129 167 130
f 130 167 169
f 130 169 133
f 131 132 138
f 132 134 168
f 132 168 135
f 132 135 138
f 133 169 170
f 133 170 134
f 134 170 168
f 135 168 170
f 135 170 136
f 136 170 171
f 136 171 172
f 136 172 173
f 136 173 139
f 139 173 174
f 139 174 181
f 139 181 175
f 139 175 176
f 139 176 177
f 139 177 178
f 139 178 141
f 139 141 140
f 141 178 144
f 142 179 180
f 142 180 145
f 142 144 178
f 142 178 177
f 142 177 179
f 146 179 147
f 147 179 181
f 147 181 182
f 147 182 183
f 147 183 148
f 148 184 185
f 148 185 186
f 148 186 149
f 148 183 187
f 148 187 188
f 148 188 189
f 148 189 190
f 148 190 184
f 149 186 191
f 149 191 150
f 150 192 193
f 150 193 151
f 150 191 192
f 151 193 152
f 154 155 156
f 155 194 195
f 155 195 196
f 155 196 197
f 155 197 198
f 155 198 164
f 155 163 157
f 155 157 156
f 164 198 165
f 165 198 199
f 165 199 200
f 165 200 166
f 166 200 167
f 167 200 169
f 169 200 201
f 169 201 170
f 170 201 171
f 173 187 174
f 174 187 182
f 174 182 181
f 175 181 179
f 175 179 176
f 176 179 177
f 182 187 183

