# https://github.com/mikedh/trimesh
v 0.02475817 0.03473196 0.04589102
v 0.02475817 0.03473196 0.04688981
v 0.02284797 0.03473196 0.04607163
v 0.02475817 0.03581860 0.04297252
v 0.02475817 0.03508154 0.04688245
v 0.02471778 0.03473196 0.04689214
v 0.02284797 0.03473196 0.04693206
v 0.02284797 0.03707904 0.04297252
v 0.02285993 0.03707065 0.04297252
v 0.02295660 0.03700322 0.04297252
v 0.02302784 0.03695356 0.04297252
v 0.02475817 0.03696464 0.04297252
v 0.02383897 0.03592697 0.04689447
v 0.02468469 0.03508154 0.04688633
v 0.02475817 0.03592831 0.04683090
v 0.02468469 0.03592697 0.04684679
v 0.02468469 0.03473196 0.04689369
v 0.02383897 0.03473196 0.04691307
v 0.02383897 0.03508154 0.04691074
v 0.02284797 0.03493593 0.04692935
v 0.02284797 0.03815931 0.04297252
v 0.02475349 0.03696799 0.04297252
v 0.02475817 0.03696430 0.04348258
v 0.02299344 0.03592697 0.04691191
v 0.02299344 0.03677240 0.04686656
v 0.02284797 0.03677240 0.04687393
v 0.02475817 0.03661674 0.04662006
v 0.02468469 0.03663753 0.04663014
v 0.02284797 0.03592697 0.04691307
v 0.02433054 0.03723806 0.04297252
v 0.02284797 0.03815730 0.04432829
v 0.02432811 0.03723672 0.04517360
v 0.02432905 0.03723739 0.04432829
v 0.02449845 0.03713104 0.04297252
v 0.02475293 0.03696799 0.04348258
v 0.02475200 0.03696766 0.04432829
v 0.02475106 0.03696732 0.04517360
v 0.02475817 0.03696330 0.04432829
v 0.02284797 0.03748968 0.04664176
v 0.02299344 0.03745076 0.04663401
v 0.02422976 0.03717432 0.04635030
v 0.02366601 0.03730684 0.04654680
v 0.02475817 0.03691264 0.04604372
v 0.02284797 0.03815596 0.04517360
v 0.02430567 0.03722263 0.04578676
v 0.02475817 0.03696229 0.04517360
v 0.02284797 0.03789092 0.04614178
v 0.02462635 0.03699617 0.04604876
v 0.02284797 0.03801069 0.04590923
f 1 2 6
f 1 6 17
f 1 17 18
f 1 18 7
f 1 7 3
f 1 3 4
f 1 4 12
f 1 12 23
f 1 23 38
f 1 38 46
f 1 46 43
f 1 43 27
f 1 27 15
f 1 15 5
f 1 5 2
f 2 5 6
f 3 7 20
f 3 20 29
f 3 29 26
f 3 26 39
f 3 39 47
f 3 47 49
f 3 49 44
f 3 44 31
f 3 31 21
f 3 21 8
f 3 8 9
f 3 9 10
f 3 10 11
f 3 11 4
f 4 11 10
f 4 10 9
f 4 9 8
f 4 8 21
f 4 21 30
f 4 30 34
f 4 34 22
f 4 22 12
f 5 13 14
f 5 14 6
f 5 15 16
f 5 16 13
f 6 14 17
f 7 18 19
f 7 19 20
f 12 22 23
f 13 24 19
f 13 19 17
f 13 17 14
f 13 16 25
f 13 25 26
f 13 26 24
f 15 27 28
f 15 28 16
f 16 28 25
f 17 19 18
f 19 24 20
f 20 24 29
f 21 31 32
f 21 32 33
f 21 33 30
f 22 34 35
f 22 35 23
f 23 35 36
f 23 36 37
f 23 37 38
f 24 26 29
f 25 39 26
f 25 28 40
f 25 40 39
f 27 41 42
f 27 42 28
f 27 43 41
f 28 42 40
f 30 33 34
f 31 44 32
f 32 37 33
f 32 44 45
f 32 45 37
f 33 37 34
f 34 37 36
f 34 36 35
f 37 45 43
f 37 43 46
f 37 46 38
f 39 40 47
f 40 42 47
f 41 43 48
f 41 48 45
f 41 45 44
f 41 44 49
f 41 49 47
f 41 47 42
f 43 45 48

