# https://github.com/mikedh/trimesh
v 0.02483721 -0.02285217 0.03367978
v 0.02483801 -0.02285217 0.03417146
v 0.02483828 -0.02285217 0.03443280
v 0.02483721 -0.02159150 0.03443280
v 0.02483721 -0.02282769 0.01303351
v 0.02583670 -0.02189492 0.01810981
v 0.02542383 -0.02230163 0.03417589
v 0.02483721 -0.02282065 0.00712002
v 0.02487014 -0.02278997 0.00729278
v 0.02493225 -0.02273171 0.00729278
v 0.02582358 -0.02188253 -0.00302814
v 0.02542383 -0.02230163 0.03443280
v 0.02483721 -0.02159122 0.03417589
v 0.02641047 -0.01997675 0.03443280
v 0.02624635 -0.01998688 -0.01081977
v 0.02629293 -0.02148061 0.03417589
v 0.02584285 -0.02190055 0.02825797
v 0.02572023 -0.02202270 0.03443280
v 0.02483721 -0.02281052 -0.00134047
v 0.02494591 -0.02269822 -0.00979654
v 0.02582063 -0.02188000 -0.00725839
v 0.02483721 -0.02154731 -0.01063816
v 0.02632908 -0.01997675 0.00729278
v 0.02754625 -0.01997675 0.03443280
v 0.02741184 -0.01998688 -0.01081977
v 0.02483721 -0.02154731 -0.01081977
v 0.02671597 -0.02106770 0.03443280
v 0.02629320 -0.02148061 0.03443280
v 0.02598074 -0.02177671 0.03443280
v 0.02581956 -0.02187888 -0.00895049
v 0.02584607 -0.02190280 0.03332984
v 0.02483721 -0.02279870 -0.01081977
v 0.02494511 -0.02269765 -0.01081977
v 0.02748306 -0.01997675 0.00729278
v 0.02757088 -0.01997900 0.03443280
v 0.02757222 -0.01997675 0.03441952
v 0.02664823 -0.02096637 -0.01063816
v 0.02697782 -0.02054306 -0.01081977
v 0.02748601 -0.01997675 0.00809896
v 0.02750341 -0.01997675 0.01303351
v 0.02743353 -0.01998688 -0.00466266
v 0.02740407 -0.02000546 -0.00895049
v 0.02671570 -0.02106742 0.03417589
v 0.02681825 -0.02094133 0.03443280
v 0.02581822 -0.02187719 -0.01081977
v 0.02539545 -0.02227461 -0.01081977
v 0.02748012 -0.02009834 0.03443280
v 0.02757195 -0.01997675 0.03417589
v 0.02622493 -0.02145443 -0.01081977
v 0.02664770 -0.02096609 -0.01081977
v 0.02698559 -0.02055319 -0.00641234
v 0.02700647 -0.02057993 0.00542792
v 0.02704208 -0.02062580 0.02571982
v 0.02705681 -0.02064466 0.03417589
v 0.02671463 -0.02106573 0.03332984
v 0.02752724 -0.01997675 0.01980191
v 0.02747556 -0.01998688 0.00729278
v 0.02746191 -0.02008005 0.02402772
v 0.02734598 -0.02015323 0.00729278
v 0.02614059 -0.02154225 -0.01081977
v 0.02622546 -0.02145443 -0.01063816
v 0.02705708 -0.02064466 0.03443280
v 0.02735347 -0.02026215 0.03443280
v 0.02747824 -0.02009666 0.03332984
v 0.02755348 -0.01997675 0.02741192
v 0.02756285 -0.01997675 0.03079169
v 0.02756981 -0.01997675 0.03332984
v 0.02746940 -0.02008877 0.02825797
v 0.02753902 -0.01997675 0.02318167
f 1 2 3
f 1 3 4
f 1 4 13
f 1 13 22
f 1 22 26
f 1 26 32
f 1 32 19
f 1 19 8
f 1 8 5
f 1 5 2
f 2 6 7
f 2 7 3
f 2 5 8
f 2 8 9
f 2 9 10
f 2 10 11
f 2 11 6
f 3 12 18
f 3 18 29
f 3 29 28
f 3 28 27
f 3 27 44
f 3 44 62
f 3 62 63
f 3 63 47
f 3 47 35
f 3 35 24
f 3 24 14
f 3 14 4
f 3 7 12
f 4 14 15
f 4 15 13
f 6 16 17
f 6 17 7
f 6 11 16
f 7 18 12
f 7 17 18
f 8 19 9
f 9 19 10
f 10 19 11
f 11 19 20
f 11 20 21
f 11 21 16
f 13 15 22
f 14 23 15
f 14 24 36
f 14 36 48
f 14 48 67
f 14 67 66
f 14 66 65
f 14 65 69
f 14 69 56
f 14 56 40
f 14 40 39
f 14 39 34
f 14 34 23
f 15 25 38
f 15 38 50
f 15 50 49
f 15 49 60
f 15 60 45
f 15 45 46
f 15 46 33
f 15 33 32
f 15 32 26
f 15 26 22
f 15 23 34
f 15 34 25
f 16 27 28
f 16 28 29
f 16 29 17
f 16 21 30
f 16 30 27
f 17 29 31
f 17 31 18
f 18 31 29
f 19 32 20
f 20 32 33
f 20 33 30
f 20 30 21
f 24 35 36
f 25 37 38
f 25 34 39
f 25 39 40
f 25 40 41
f 25 41 42
f 25 42 37
f 27 43 44
f 27 30 45
f 27 45 43
f 30 33 46
f 30 46 45
f 35 47 48
f 35 48 36
f 37 49 50
f 37 50 38
f 37 42 51
f 37 51 52
f 37 52 53
f 37 53 54
f 37 54 55
f 37 55 49
f 40 56 41
f 41 56 57
f 41 57 42
f 42 52 51
f 42 57 58
f 42 58 59
f 42 59 52
f 43 55 44
f 43 45 60
f 43 60 61
f 43 61 49
f 43 49 55
f 44 55 54
f 44 54 62
f 47 63 64
f 47 64 65
f 47 65 66
f 47 66 67
f 47 67 48
f 49 61 60
f 52 59 53
f 53 59 58
f 53 58 54
f 54 63 62
f 54 58 68
f 54 68 63
f 56 69 58
f 56 58 57
f 58 69 65
f 58 65 68
f 63 68 64
f 64 68 65

