# https://github.com/mikedh/trimesh
v 0.03737048 0.01901246 0.04708008
v 0.03785242 0.01901246 0.04682210
v 0.03739212 0.01935402 0.04698787
v 0.03652488 0.01935402 0.04703726
v 0.03737048 0.01816677 0.04705971
v 0.03785242 0.01647574 0.04701170
v 0.03785242 0.01732144 0.04698753
v 0.03785242 0.01935402 0.04671504
v 0.03604117 0.01935402 0.04698718
v 0.03604117 0.01563041 0.04691051
v 0.03785242 0.01563041 0.04697751
v 0.03785242 0.01935402 0.04355228
v 0.03604117 0.01935402 0.04600776
v 0.03604117 0.01563041 0.04602226
v 0.03785242 0.01563041 0.04593109
v 0.03710434 0.01935402 0.04355228
v 0.03785242 0.01738560 0.04355228
v 0.03604117 0.01904418 0.04599705
v 0.03751730 0.01816677 0.04355228
v 0.03772174 0.01765571 0.04355228
v 0.03773983 0.01761051 0.04355228
v 0.03775720 0.01757551 0.04355228
f 1 2 3
f 1 3 4
f 1 4 5
f 1 5 6
f 1 6 7
f 1 7 2
f 2 8 3
f 2 7 6
f 2 6 11
f 2 11 15
f 2 15 17
f 2 17 12
f 2 12 8
f 3 8 12
f 3 12 16
f 3 16 13
f 3 13 9
f 3 9 4
f 4 9 10
f 4 10 5
f 5 10 6
f 6 10 11
f 9 13 18
f 9 18 14
f 9 14 10
f 10 14 15
f 10 15 11
f 12 17 22
f 12 22 21
f 12 21 20
f 12 20 19
f 12 19 16
f 13 16 18
f 14 19 20
f 14 20 21
f 14 21 22
f 14 22 17
f 14 17 15
f 14 18 16
f 14 16 19

