# https://github.com/mikedh/trimesh
v 0.02529585 -0.05603352 -0.00078816
v 0.02514837 -0.05603352 0.00022515
v 0.01608574 -0.07472765 0.00223741
v 0.02169521 -0.06629446 -0.00943000
v 0.02223938 -0.06459964 -0.01253146
v 0.02413633 -0.05603352 -0.00872643
v 0.02448724 -0.05603352 0.00085283
v 0.01183413 -0.07142237 0.00842393
v 0.01233253 -0.07930085 -0.01022793
v -0.00047823 -0.08214600 0.00125487
v 0.02078997 -0.05603352 -0.01253146
v 0.00770458 -0.07805849 -0.01253146
v 0.01890828 -0.05603352 0.00554810
v 0.01203756 -0.06792026 0.00842393
v 0.00391577 -0.07458706 0.00842393
v -0.00726249 -0.08168587 -0.00999409
v -0.00101731 -0.07904267 -0.01253146
v -0.00369745 -0.07477366 0.00842393
v -0.01193620 -0.07182115 0.00842393
v -0.01587759 -0.07617195 0.00177588
v -0.02431468 -0.05603352 -0.01253146
v 0.01044066 -0.06307354 0.00842393
v 0.01076106 -0.06364870 0.00842393
v 0.00204425 -0.05603352 0.00557066
v -0.01163107 -0.07450270 -0.01253146
v -0.02494022 -0.06529751 -0.00489678
v -0.01979354 -0.06623822 -0.01253146
v -0.01506897 -0.06315278 0.00842393
v -0.01783556 -0.06315534 0.00564451
v -0.02510296 -0.05802232 -0.01253146
v -0.02587089 -0.05603352 -0.00850489
v -0.01908663 -0.05603352 0.00553169
v -0.02665917 -0.05603352 -0.00403116
v -0.02603872 -0.05603352 -0.00784850
f 1 2 3
f 1 3 4
f 1 4 5
f 1 5 6
f 1 6 11
f 1 11 21
f 1 21 31
f 1 31 34
f 1 34 33
f 1 33 32
f 1 32 24
f 1 24 13
f 1 13 7
f 1 7 2
f 2 7 8
f 2 8 3
f 3 9 4
f 3 8 10
f 3 10 9
f 4 9 5
f 5 11 6
f 5 9 12
f 5 12 17
f 5 17 25
f 5 25 27
f 5 27 30
f 5 30 21
f 5 21 11
f 7 13 8
f 8 14 23
f 8 23 22
f 8 22 28
f 8 28 19
f 8 19 18
f 8 18 15
f 8 15 10
f 8 13 14
f 9 10 16
f 9 16 17
f 9 17 12
f 10 15 18
f 10 18 19
f 10 19 20
f 10 20 16
f 13 22 23
f 13 23 14
f 13 24 22
f 16 25 17
f 16 20 26
f 16 26 27
f 16 27 25
f 19 28 29
f 19 29 20
f 20 29 26
f 21 30 31
f 22 24 28
f 24 32 28
f 26 29 33
f 26 33 30
f 26 30 27
f 28 32 29
f 29 32 33
f 30 33 34
f 30 34 31

