# https://github.com/mikedh/trimesh
v -0.00821394 0.00775823 -0.02947538
v 0.02177166 0.00775823 -0.02950869
v -0.00821394 0.00775823 -0.01253146
v -0.00821394 0.03579206 -0.02948038
v 0.00516660 0.06162200 -0.02954700
v 0.02179884 0.02148780 -0.02947705
v 0.02649800 0.01469156 -0.02587107
v 0.02193475 0.00775823 -0.02927718
v 0.01389895 0.05530555 -0.02952035
v 0.02126539 0.04950054 -0.02947039
v 0.02188378 0.00775823 -0.01253146
v -0.00821394 0.05767818 -0.01253146
v -0.00821394 0.03777979 -0.02910229
v -0.00821394 0.04534582 -0.02650566
v -0.00821394 0.05506302 -0.01799789
v -0.00287939 0.05987681 -0.01253146
v 0.01343006 0.05046541 -0.01253146
v 0.02187359 0.01511336 -0.01253146
v 0.02193815 0.00783205 -0.01253146
v 0.02478551 0.03222786 -0.02646402
v 0.02038875 0.03292910 -0.01253146
v 0.01434406 0.04974835 -0.01253146
v 0.01971939 0.03552844 -0.01253146
f 1 2 8
f 1 8 11
f 1 11 3
f 1 3 12
f 1 12 15
f 1 15 14
f 1 14 13
f 1 13 4
f 1 4 5
f 1 5 2
f 2 6 7
f 2 7 8
f 2 5 9
f 2 9 10
f 2 10 6
f 3 11 19
f 3 19 18
f 3 18 21
f 3 21 23
f 3 23 22
f 3 22 17
f 3 17 16
f 3 16 12
f 4 13 5
f 5 14 15
f 5 15 12
f 5 12 16
f 5 16 17
f 5 17 9
f 5 13 14
f 6 10 7
f 7 18 19
f 7 19 8
f 7 10 20
f 7 20 21
f 7 21 18
f 8 19 11
f 9 17 22
f 9 22 10
f 10 22 23
f 10 23 21
f 10 21 20

