# https://github.com/mikedh/trimesh
v 0.01077876 0.04451566 0.00842393
v 0.01079888 0.04067874 0.00191976
v 0.01385732 0.04067874 0.00543160
v 0.01220302 0.04513430 0.00842393
v 0.01077876 0.04667552 0.00842393
v 0.01077876 0.04668897 0.00191976
v 0.02057036 0.04067874 0.00191976
v 0.02044671 0.04067874 0.00214195
v 0.01433559 0.04738965 0.00514446
v 0.01077876 0.05246385 0.00426268
v 0.01077876 0.05441660 0.00191976
v 0.02023394 0.04118710 0.00191976
v 0.01437201 0.05003367 0.00191976
f 1 2 3
f 1 3 4
f 1 4 5
f 1 5 10
f 1 10 11
f 1 11 6
f 1 6 2
f 2 7 8
f 2 8 3
f 2 6 11
f 2 11 13
f 2 13 12
f 2 12 7
f 3 8 4
f 4 8 9
f 4 9 5
f 5 9 10
f 7 12 9
f 7 9 8
f 9 13 10
f 9 12 13
f 10 13 11

