# https://github.com/mikedh/trimesh
v -0.03145257 -0.02090739 -0.03768723
v -0.03158982 -0.02073403 -0.03768723
v -0.03017463 -0.02090739 -0.03768723
v -0.03145257 -0.02090739 0.04318712
v -0.03287183 -0.01906372 -0.03768723
v -0.03158982 -0.02073403 0.04318712
v -0.03489091 -0.01643314 0.04407549
v -0.03951264 -0.00550981 -0.03768723
v -0.03017463 -0.02090739 0.04318712
v -0.03341879 -0.01833259 0.04407549
v -0.03486346 -0.01646781 -0.03767922
v -0.03603669 -0.01493770 -0.03767922
v -0.03322664 -0.01860092 -0.03768723
v -0.03440088 -0.01707081 0.04407549
v -0.03603669 -0.01493770 0.04407549
v -0.04056082 -0.00550981 -0.03768723
v -0.03951264 -0.00550981 0.04321913
v -0.03213983 -0.01833259 0.04407549
v -0.03719059 -0.01340910 -0.03767922
v -0.03781787 -0.01224531 -0.03768723
v -0.03719059 -0.01340910 0.04407549
v -0.03999454 -0.00699771 -0.03768723
v -0.03999352 -0.00700072 0.04321913
v -0.04056082 -0.00550981 0.04321913
v -0.03664566 -0.01224531 0.04407549
v -0.03749051 -0.01289504 -0.03767922
v -0.03765317 -0.01261314 -0.03767922
v -0.03772637 -0.01245033 -0.03767922
v -0.03781787 -0.01224531 0.04321913
v -0.03786057 -0.01214883 -0.03768723
v -0.03765317 -0.01261314 0.04407549
v -0.03807610 -0.01162874 -0.03768723
v -0.03807610 -0.01163025 0.04321913
v -0.03781686 -0.01224531 0.04407549
v -0.03786057 -0.01214883 0.04321913
f 1 2 5
f 1 5 13
f 1 13 20
f 1 20 30
f 1 30 32
f 1 32 22
f 1 22 16
f 1 16 8
f 1 8 3
f 1 3 9
f 1 9 4
f 1 4 6
f 1 6 2
f 2 6 7
f 2 7 5
f 3 8 17
f 3 17 9
f 4 9 18
f 4 18 10
f 4 10 6
f 5 7 11
f 5 11 12
f 5 12 13
f 6 10 14
f 6 14 7
f 7 14 10
f 7 10 18
f 7 18 25
f 7 25 34
f 7 34 31
f 7 31 21
f 7 21 15
f 7 15 12
f 7 12 11
f 8 16 24
f 8 24 17
f 9 17 18
f 12 15 21
f 12 21 19
f 12 19 13
f 13 19 20
f 16 22 23
f 16 23 24
f 17 24 34
f 17 34 25
f 17 25 18
f 19 21 26
f 19 26 20
f 20 26 27
f 20 27 28
f 20 28 29
f 20 29 35
f 20 35 30
f 21 31 26
f 22 32 33
f 22 33 23
f 23 33 34
f 23 34 24
f 26 31 27
f 27 31 28
f 28 31 29
f 29 31 34
f 29 34 35
f 30 35 33
f 30 33 32
f 33 35 34

