# https://github.com/mikedh/trimesh
v 0.01749401 0.05018518 -0.03770348
v 0.01749401 0.05018518 -0.04194623
v 0.01749401 0.04909195 -0.03770348
v 0.01750098 0.05018318 -0.03770348
v 0.02143308 0.04748402 -0.04387635
v 0.01749401 0.04909195 -0.04194623
v 0.02243144 0.04814135 -0.04194623
v 0.02366684 0.04748402 -0.04387514
v 0.02288879 0.04748402 -0.04387635
v 0.03173741 0.03999697 -0.04194623
v 0.03010182 0.04131065 -0.03770348
v 0.02243144 0.04814135 -0.03770348
v 0.02401683 0.04595888 -0.04387635
v 0.03173741 0.03999797 -0.04387575
v 0.03173741 0.03999697 -0.04384734
v 0.02245375 0.04813138 -0.04194623
v 0.02366824 0.04748402 -0.04384372
v 0.02369194 0.04747105 -0.04384372
v 0.02369055 0.04747005 -0.04387635
v 0.02289437 0.04793388 -0.04194623
v 0.03173741 0.04079894 -0.04194623
v 0.03172486 0.04131065 -0.03770348
v 0.02289437 0.04793388 -0.03770348
v 0.02401683 0.04721171 -0.04387635
v 0.03173741 0.04079894 -0.04387575
v 0.02340610 0.04763763 -0.04194623
v 0.02369194 0.04747105 -0.03770348
v 0.02522016 0.04631697 -0.04387575
v 0.02568448 0.04596087 -0.04387575
v 0.03101513 0.04187123 -0.04387575
v 0.03173602 0.04130167 -0.04387575
v 0.03173602 0.04130267 -0.04194623
v 0.03169837 0.04133159 -0.03770348
v 0.02340610 0.04763763 -0.03770348
v 0.03173602 0.04130267 -0.04384372
v 0.02521877 0.04631697 -0.03770348
v 0.02522016 0.04631697 -0.04194623
v 0.02524247 0.04630001 -0.04194623
v 0.02568448 0.04596187 -0.04384372
v 0.03101513 0.04187123 -0.03770348
v 0.02551158 0.04609254 -0.03770348
v 0.02568448 0.04596187 -0.04194623
f 1 2 6
f 1 6 3
f 1 3 11
f 1 11 22
f 1 22 33
f 1 33 40
f 1 40 41
f 1 41 36
f 1 36 27
f 1 27 34
f 1 34 23
f 1 23 12
f 1 12 4
f 1 4 2
f 2 5 6
f 2 4 7
f 2 7 8
f 2 8 9
f 2 9 5
f 3 10 11
f 3 6 15
f 3 15 10
f 4 12 7
f 5 9 19
f 5 19 24
f 5 24 13
f 5 13 14
f 5 14 6
f 6 14 15
f 7 12 16
f 7 16 8
f 8 17 18
f 8 18 19
f 8 19 9
f 8 16 20
f 8 20 17
f 10 15 14
f 10 14 25
f 10 25 21
f 10 21 22
f 10 22 11
f 12 23 16
f 13 24 25
f 13 25 14
f 16 23 20
f 17 20 18
f 18 20 26
f 18 26 34
f 18 34 27
f 18 27 37
f 18 37 28
f 18 28 19
f 19 28 29
f 19 29 30
f 19 30 31
f 19 31 24
f 20 23 34
f 20 34 26
f 21 25 35
f 21 35 32
f 21 32 22
f 22 32 33
f 24 31 25
f 25 31 35
f 27 36 37
f 28 37 38
f 28 38 39
f 28 39 29
f 29 39 30
f 30 39 42
f 30 42 40
f 30 40 32
f 30 32 35
f 30 35 31
f 32 40 33
f 36 41 42
f 36 42 38
f 36 38 37
f 38 42 39
f 40 42 41

