# https://github.com/mikedh/trimesh
v 0.00060433 0.04774981 -0.04106495
v 0.00060433 0.04772613 -0.03769161
v 0.00102410 0.04772613 -0.03769161
v 0.00102410 0.04774878 -0.04106495
v 0.00059970 0.04748319 -0.04196370
v -0.00124914 0.04744252 -0.04196370
v -0.00217510 0.04739465 -0.04196370
v -0.00032318 0.04768495 -0.04106495
v -0.00032318 0.04768341 -0.03769161
v 0.00000863 0.04769885 -0.03769161
v 0.00102410 0.04680634 -0.03769161
v 0.00102410 0.04748164 -0.04194906
v 0.00070001 0.04748216 -0.04196370
v -0.00310106 0.04732105 -0.04196370
v -0.00124914 0.04759179 -0.04106495
v -0.00124914 0.04759179 -0.03769161
v 0.00102410 0.04584485 -0.04196370
v -0.01474194 0.04311378 -0.03769161
v 0.00102410 0.04747032 -0.04196370
v -0.00391436 0.04723406 -0.04196370
v -0.00310106 0.04734781 -0.04106495
v -0.00310106 0.04734781 -0.03769161
v -0.01474194 0.04249200 -0.04196370
v -0.01474194 0.04411902 -0.03769161
v -0.00392517 0.04723921 -0.04106495
v -0.00773087 0.04672913 -0.04196370
v -0.00392517 0.04723921 -0.03769161
v -0.01474194 0.04411902 -0.04196370
v -0.01474194 0.04412416 -0.04156597
v -0.01396259 0.04449990 -0.03769161
v -0.00776019 0.04672501 -0.04196370
v -0.00773087 0.04672913 -0.03769161
v -0.01474194 0.04412416 -0.04158145
v -0.01395951 0.04449990 -0.04196370
v -0.01396259 0.04449990 -0.04106495
v -0.01191776 0.04534609 -0.03769161
v -0.01145169 0.04553911 -0.04196370
v -0.00865838 0.04658964 -0.04196370
v -0.00865838 0.04658964 -0.03769161
v -0.01191776 0.04534609 -0.04196370
v -0.00940995 0.04638376 -0.03769161
v -0.00940995 0.04638376 -0.04196370
v -0.00914142 0.04645736 -0.03769161
f 1 2 3
f 1 3 4
f 1 4 5
f 1 5 6
f 1 6 7
f 1 7 8
f 1 8 9
f 1 9 10
f 1 10 2
f 2 10 9
f 2 9 16
f 2 16 22
f 2 22 27
f 2 27 32
f 2 32 39
f 2 39 43
f 2 43 41
f 2 41 36
f 2 36 30
f 2 30 24
f 2 24 18
f 2 18 11
f 2 11 3
f 3 11 17
f 3 17 19
f 3 19 12
f 3 12 4
f 4 12 13
f 4 13 5
f 5 13 19
f 5 19 17
f 5 17 23
f 5 23 28
f 5 28 34
f 5 34 40
f 5 40 37
f 5 37 42
f 5 42 38
f 5 38 31
f 5 31 26
f 5 26 20
f 5 20 14
f 5 14 7
f 5 7 6
f 7 14 8
f 8 14 15
f 8 15 16
f 8 16 9
f 11 18 17
f 12 19 13
f 14 20 15
f 15 20 21
f 15 21 22
f 15 22 16
f 17 18 23
f 18 24 29
f 18 29 33
f 18 33 28
f 18 28 23
f 20 25 21
f 20 26 25
f 21 25 27
f 21 27 22
f 24 30 29
f 25 26 32
f 25 32 27
f 26 31 32
f 28 33 34
f 29 30 35
f 29 35 33
f 30 36 37
f 30 37 35
f 31 38 39
f 31 39 32
f 33 35 34
f 34 35 40
f 35 37 40
f 36 41 37
f 37 41 42
f 38 42 43
f 38 43 39
f 41 43 42

