# https://github.com/mikedh/trimesh
v 0.03533894 0.02403086 -0.03770287
v 0.03169031 0.03066670 -0.03770287
v 0.03644074 0.02403086 -0.03770287
v 0.03533754 0.02403086 0.04324140
v 0.03294745 0.03066670 -0.03770287
v 0.03169031 0.03066670 0.04324140
v 0.03635330 0.02424393 -0.03770287
v 0.03644120 0.02403086 0.04324140
v 0.03310372 0.03046337 -0.03770287
v 0.03294745 0.03066670 0.04324140
v 0.03295210 0.03066085 0.04324140
v 0.03550684 0.02628828 -0.03770287
v 0.03550684 0.02628893 0.04324140
v 0.03635749 0.02423419 0.04324140
v 0.03392228 0.02939669 -0.03770287
v 0.03363718 0.02976828 0.04324140
v 0.03469107 0.02820205 -0.03770287
v 0.03469665 0.02818906 0.04324140
v 0.03409296 0.02917323 -0.03770287
v 0.03409296 0.02917323 0.04324140
v 0.03459991 0.02839044 -0.03770287
v 0.03444550 0.02871005 0.04324140
v 0.03469107 0.02820205 0.04324140
v 0.03444503 0.02871005 -0.03770287
v 0.03444039 0.02871720 0.04324140
f 1 2 5
f 1 5 9
f 1 9 15
f 1 15 19
f 1 19 24
f 1 24 21
f 1 21 17
f 1 17 12
f 1 12 7
f 1 7 3
f 1 3 8
f 1 8 4
f 1 4 2
f 2 4 6
f 2 6 10
f 2 10 5
f 3 7 8
f 4 8 14
f 4 14 13
f 4 13 18
f 4 18 23
f 4 23 22
f 4 22 25
f 4 25 20
f 4 20 16
f 4 16 11
f 4 11 10
f 4 10 6
f 5 10 11
f 5 11 9
f 7 12 13
f 7 13 14
f 7 14 8
f 9 11 16
f 9 16 15
f 12 17 13
f 13 17 18
f 15 16 20
f 15 20 19
f 17 21 22
f 17 22 23
f 17 23 18
f 19 20 25
f 19 25 24
f 21 24 22
f 22 24 25

