# https://github.com/mikedh/trimesh
v -0.03357106 0.02571224 -0.03769120
v -0.03347866 0.02597989 -0.03769120
v -0.03257690 0.02571224 -0.03769120
v -0.03379310 0.02571224 0.04411917
v -0.03337122 0.02628872 -0.03769120
v -0.02647659 0.03465069 -0.03769120
v -0.03257189 0.02571224 0.04411917
v -0.03349299 0.02644519 0.04411917
v -0.03255542 0.02820344 -0.03769120
v -0.02647659 0.03622879 -0.03769120
v -0.02647659 0.03465069 0.04321425
v -0.02785394 0.03285436 0.04411917
v -0.03267288 0.02820344 0.04411917
v -0.03230974 0.02871094 -0.03769120
v -0.03237205 0.02883447 0.04411917
v -0.02667356 0.03603526 -0.03769120
v -0.02647659 0.03622879 0.04268572
v -0.02647659 0.03614850 0.04321425
v -0.02939388 0.03285436 0.04411917
v -0.02647874 0.03622570 0.04321425
v -0.03195734 0.02917418 -0.03769120
v -0.03206263 0.02929668 0.04411917
v -0.03161498 0.02996066 0.04411917
v -0.03090088 0.03091905 0.04411917
v -0.02691207 0.03573776 -0.03769120
v -0.02667356 0.03603526 0.04321425
v -0.02962666 0.03255994 0.04411917
v -0.02704458 0.03557202 -0.03769120
v -0.02950347 0.03237362 -0.03769120
v -0.03087008 0.03095919 0.04411917
v -0.02786612 0.03450658 -0.03769120
f 1 2 5
f 1 5 9
f 1 9 14
f 1 14 21
f 1 21 29
f 1 29 31
f 1 31 28
f 1 28 25
f 1 25 16
f 1 16 10
f 1 10 6
f 1 6 3
f 1 3 7
f 1 7 4
f 1 4 2
f 2 4 5
f 3 6 7
f 4 7 12
f 4 12 19
f 4 19 27
f 4 27 30
f 4 30 24
f 4 24 23
f 4 23 22
f 4 22 15
f 4 15 13
f 4 13 8
f 4 8 5
f 5 8 9
f 6 10 17
f 6 17 18
f 6 18 11
f 6 11 7
f 7 11 12
f 8 13 9
f 9 13 15
f 9 15 14
f 10 16 26
f 10 26 17
f 11 18 12
f 12 18 20
f 12 20 19
f 14 15 22
f 14 22 23
f 14 23 24
f 14 24 21
f 16 25 19
f 16 19 26
f 17 26 20
f 17 20 18
f 19 20 26
f 19 25 28
f 19 28 27
f 21 24 29
f 24 30 29
f 27 28 30
f 28 31 30
f 29 30 31

