# https://github.com/mikedh/trimesh
v -0.02036247 0.04811182 0.04409587
v -0.02075932 0.04793408 0.04409587
v -0.02036247 0.04693636 0.04409587
v -0.02036247 0.04811182 -0.03769120
v -0.02155603 0.04747141 0.04409587
v -0.02075932 0.04793408 -0.03769120
v -0.02127098 0.04763724 -0.03769120
v -0.02642592 0.04235545 0.04409587
v -0.03064919 0.03875577 0.04320723
v -0.03065221 0.03875210 0.04259879
v -0.03065221 0.03875393 -0.03769120
v -0.02036247 0.04697393 -0.03769120
v -0.02311520 0.04629503 0.04409587
v -0.02155603 0.04747141 -0.03769120
v -0.02647629 0.04231789 0.04409587
v -0.03065221 0.03883456 0.04320723
v -0.03065221 0.04036183 -0.03769120
v -0.02461495 0.04514431 0.04409587
v -0.02308498 0.04631702 -0.03769120
v -0.02325117 0.04619059 -0.03769120
v -0.02461495 0.04514431 -0.03769120
v -0.02647629 0.04370041 0.04409587
v -0.03065221 0.04036183 0.04320723
v -0.03040443 0.04068708 -0.03769120
v -0.02691342 0.04338066 -0.03769120
v -0.02888555 0.04186712 0.04321524
v -0.02521827 0.04468072 0.04409587
v -0.03040443 0.04068708 0.04320723
v -0.02888051 0.04187079 -0.03769120
f 1 2 5
f 1 5 13
f 1 13 18
f 1 18 27
f 1 27 22
f 1 22 15
f 1 15 8
f 1 8 3
f 1 3 12
f 1 12 4
f 1 4 6
f 1 6 2
f 2 6 7
f 2 7 5
f 3 8 9
f 3 9 10
f 3 10 11
f 3 11 12
f 4 12 11
f 4 11 17
f 4 17 24
f 4 24 29
f 4 29 25
f 4 25 21
f 4 21 20
f 4 20 19
f 4 19 14
f 4 14 7
f 4 7 6
f 5 7 14
f 5 14 13
f 8 15 9
f 9 15 16
f 9 16 10
f 10 16 23
f 10 23 17
f 10 17 11
f 13 14 19
f 13 19 20
f 13 20 21
f 13 21 18
f 15 22 23
f 15 23 16
f 17 23 28
f 17 28 24
f 18 21 25
f 18 25 26
f 18 26 27
f 22 27 28
f 22 28 23
f 24 28 26
f 24 26 29
f 25 29 26
f 26 28 27

