# https://github.com/mikedh/trimesh
v 0.02807896 0.03677122 -0.04194657
v 0.02588477 0.03677122 -0.04194657
v 0.02788866 0.03696144 -0.04194657
v 0.02788970 0.03695488 0.04323456
v 0.02796665 0.03687689 0.04323456
v 0.02806856 0.03677122 -0.03769805
v 0.01749174 0.04240924 -0.04194657
v 0.02648895 0.03677122 -0.03769805
v 0.02636105 0.03687689 0.04323456
v 0.01745534 0.04280353 0.04417025
v 0.02742590 0.03732584 -0.04194657
v 0.02070711 0.04275397 0.04417025
v 0.02426773 0.03982709 0.04417025
v 0.02452770 0.03960772 0.04417025
v 0.02452770 0.03826891 0.04417025
v 0.01749174 0.04388799 -0.04194657
v 0.01745534 0.04290337 -0.03769805
v 0.01745534 0.04421668 0.04417025
v 0.02636001 0.03814793 -0.04194657
v 0.02068943 0.04276490 0.04417025
v 0.02102844 0.04223870 -0.04194657
v 0.02058752 0.04257395 -0.04194657
v 0.02056464 0.04259071 -0.04194657
v 0.01814376 0.04365185 -0.04194657
v 0.01745534 0.04389017 -0.03769805
v 0.01826334 0.04394265 0.04417025
v 0.02005509 0.04315117 0.04417025
v 0.02005821 0.04283632 -0.04194657
v 0.02003118 0.04316283 0.04417025
v 0.01855452 0.04382895 0.04417025
f 1 2 7
f 1 7 16
f 1 16 24
f 1 24 28
f 1 28 23
f 1 23 22
f 1 22 21
f 1 21 19
f 1 19 11
f 1 11 3
f 1 3 4
f 1 4 5
f 1 5 6
f 1 6 8
f 1 8 2
f 2 8 9
f 2 9 10
f 2 10 7
f 3 11 12
f 3 12 4
f 4 12 13
f 4 13 14
f 4 14 5
f 5 14 15
f 5 15 9
f 5 9 8
f 5 8 6
f 7 10 17
f 7 17 25
f 7 25 16
f 9 15 10
f 10 15 14
f 10 14 13
f 10 13 12
f 10 12 20
f 10 20 27
f 10 27 29
f 10 29 30
f 10 30 26
f 10 26 18
f 10 18 25
f 10 25 17
f 11 19 12
f 12 19 21
f 12 21 22
f 12 22 23
f 12 23 20
f 16 25 18
f 16 18 26
f 16 26 24
f 20 23 27
f 23 28 29
f 23 29 27
f 24 26 30
f 24 30 28
f 28 30 29

