# https://github.com/mikedh/trimesh
v -0.01251478 -0.07234236 -0.00533359
v -0.01286462 -0.07216128 -0.00533359
v -0.01251478 -0.07228577 -0.00579031
v -0.01251478 -0.07126255 -0.00533359
v -0.01269700 -0.07215063 -0.00608286
v -0.01251478 -0.07226647 -0.00593869
v -0.01287262 -0.07215529 -0.00533359
v -0.01314077 -0.07165134 -0.00744460
v -0.01310404 -0.07160473 -0.00796025
v -0.01406975 -0.06554132 -0.00533359
v -0.01251478 -0.06787601 -0.01608333
v -0.01251478 -0.07221387 -0.00622809
v -0.01304472 -0.07154815 -0.00843276
v -0.01324671 -0.07180711 -0.00533359
v -0.01321375 -0.07177383 -0.00602919
v -0.01318126 -0.07171791 -0.00673742
v -0.01335147 -0.07121995 -0.00744460
v -0.01323682 -0.07127520 -0.00817914
v -0.01309204 -0.07088708 -0.01074476
v -0.01304189 -0.07083050 -0.01121622
v -0.01477602 -0.06554132 -0.00533359
v -0.01347954 -0.06554132 -0.01608333
v -0.01251478 -0.06892786 -0.01608333
v -0.01251478 -0.07215595 -0.00652064
v -0.01277421 -0.07172257 -0.00817914
v -0.01251478 -0.07163003 -0.00909047
v -0.01257928 -0.07165666 -0.00886001
v -0.01277233 -0.07102689 -0.01098049
v -0.01386941 -0.07037581 -0.00533359
v -0.01382373 -0.07026064 -0.00673742
v -0.01380066 -0.07020205 -0.00744460
v -0.01378724 -0.07016810 -0.00783292
v -0.01321328 -0.07056155 -0.01098049
v -0.01254491 -0.07095033 -0.01168872
v -0.01318385 -0.07037181 -0.01168872
v -0.01369849 -0.06765033 -0.01608333
v -0.01312923 -0.07024333 -0.01225594
v -0.01306638 -0.07014813 -0.01272739
v -0.01251478 -0.07007157 -0.01405124
v -0.01251478 -0.07020672 -0.01373238
v -0.01482146 -0.06554132 -0.01168872
v -0.01477908 -0.06556063 -0.00533359
v -0.01420677 -0.06554132 -0.01608333
v -0.01261648 -0.06899177 -0.01608333
v -0.01251478 -0.06909096 -0.01608122
v -0.01251478 -0.07167863 -0.00886001
v -0.01251478 -0.07158410 -0.00927042
v -0.01450576 -0.06878206 -0.00533359
v -0.01460134 -0.06831406 -0.00673742
v -0.01471505 -0.06768295 -0.00886001
v -0.01453212 -0.06814031 -0.00886001
v -0.01451070 -0.06808638 -0.00944090
v -0.01448716 -0.06803512 -0.00991236
v -0.01388306 -0.06967480 -0.00886001
v -0.01390637 -0.06901840 -0.01098049
v -0.01385293 -0.06890123 -0.01168872
v -0.01381102 -0.06880670 -0.01221910
v -0.01380443 -0.06808439 -0.01429960
v -0.01382138 -0.06741467 -0.01608333
v -0.01383927 -0.06957561 -0.00956719
v -0.01380561 -0.06950105 -0.01009967
v -0.01393344 -0.06915886 -0.01031120
v -0.01251478 -0.07093568 -0.01177291
v -0.01251478 -0.07097230 -0.01164873
v -0.01362974 -0.06776018 -0.01608333
v -0.01313889 -0.06953700 -0.01381131
v -0.01315796 -0.06884331 -0.01522566
v -0.01307650 -0.06945178 -0.01416595
v -0.01297880 -0.07005959 -0.01310308
v -0.01281023 -0.06989049 -0.01381131
v -0.01251478 -0.06953300 -0.01517304
v -0.01479933 -0.06554132 -0.01239590
v -0.01482382 -0.06556063 -0.01168872
v -0.01486549 -0.06626829 -0.00533359
v -0.01478050 -0.06557194 -0.00533359
v -0.01412461 -0.06626829 -0.01608333
v -0.01453212 -0.06554132 -0.01448797
v -0.01251478 -0.06927470 -0.01570974
v -0.01296891 -0.06863627 -0.01608333
v -0.01466161 -0.06839128 -0.00533359
v -0.01475860 -0.06768295 -0.00815178
v -0.01482640 -0.06697529 -0.01027436
v -0.01477555 -0.06697529 -0.01098049
v -0.01462159 -0.06763103 -0.01027436
v -0.01463053 -0.06775286 -0.00963243
v -0.01457733 -0.06752252 -0.01098049
v -0.01452224 -0.06740002 -0.01168872
v -0.01449304 -0.06733478 -0.01205809
v -0.01392544 -0.06773222 -0.01452901
v -0.01383315 -0.06744130 -0.01593389
v -0.01468280 -0.06697529 -0.01168872
v -0.01453283 -0.06674695 -0.01310308
v -0.01392732 -0.06710444 -0.01608333
v -0.01323517 -0.06833004 -0.01608333
v -0.01325613 -0.06839861 -0.01587391
v -0.01308450 -0.06875344 -0.01559819
v -0.01296397 -0.06933794 -0.01463845
v -0.01251478 -0.06938122 -0.01548875
v -0.01473271 -0.06554132 -0.01310308
v -0.01480074 -0.06556063 -0.01239590
v -0.01487726 -0.06626829 -0.01098049
v -0.01487584 -0.06626829 -0.01027436
v -0.01491963 -0.06697529 -0.00602919
v -0.01491540 -0.06697529 -0.00533359
v -0.01396640 -0.06698128 -0.01608333
v -0.01449893 -0.06664775 -0.01350718
v -0.01453401 -0.06623700 -0.01377026
v -0.01450293 -0.06598070 -0.01423751
v -0.01455849 -0.06554132 -0.01431222
v -0.01463689 -0.06626829 -0.01310308
v -0.01474730 -0.06626829 -0.01239590
v -0.01297668 -0.06862828 -0.01608333
v -0.01487066 -0.06768295 -0.00533359
v -0.01485136 -0.06768295 -0.00602919
v -0.01482570 -0.06768295 -0.00673742
v -0.01479533 -0.06768295 -0.00744460
v -0.01485348 -0.06697529 -0.00956719
v -0.01483747 -0.06626829 -0.01168872
v -0.01463242 -0.06554132 -0.01381131
v -0.01473247 -0.06556063 -0.01310308
v -0.01487631 -0.06697529 -0.00886001
v -0.01489703 -0.06697529 -0.00815178
v -0.01491045 -0.06697529 -0.00744460
v -0.01491751 -0.06697529 -0.00673742
v -0.01463077 -0.06556063 -0.01381131
f 1 2 3
f 1 3 6
f 1 6 12
f 1 12 24
f 1 24 46
f 1 46 26
f 1 26 47
f 1 47 64
f 1 64 63
f 1 63 40
f 1 40 39
f 1 39 71
f 1 71 98
f 1 98 78
f 1 78 45
f 1 45 23
f 1 23 11
f 1 11 4
f 1 4 10
f 1 10 21
f 1 21 42
f 1 42 75
f 1 75 74
f 1 74 104
f 1 104 113
f 1 113 80
f 1 80 48
f 1 48 29
f 1 29 14
f 1 14 7
f 1 7 2
f 2 5 6
f 2 6 3
f 2 7 8
f 2 8 9
f 2 9 5
f 4 11 10
f 5 12 6
f 5 9 13
f 5 13 12
f 7 14 15
f 7 15 16
f 7 16 8
f 8 17 9
f 8 16 17
f 9 17 18
f 9 18 19
f 9 19 20
f 9 20 13
f 10 11 22
f 10 22 43
f 10 43 77
f 10 77 109
f 10 109 119
f 10 119 99
f 10 99 72
f 10 72 41
f 10 41 21
f 11 23 44
f 11 44 79
f 11 79 112
f 11 112 94
f 11 94 65
f 11 65 36
f 11 36 59
f 11 59 93
f 11 93 105
f 11 105 76
f 11 76 43
f 11 43 22
f 12 13 25
f 12 25 24
f 13 26 27
f 13 27 25
f 13 20 28
f 13 28 26
f 14 29 15
f 15 29 30
f 15 30 31
f 15 31 32
f 15 32 17
f 15 17 16
f 17 32 18
f 18 32 33
f 18 33 19
f 19 33 20
f 20 34 28
f 20 33 35
f 20 35 36
f 20 36 37
f 20 37 38
f 20 38 39
f 20 39 40
f 20 40 34
f 21 41 42
f 23 45 44
f 24 25 27
f 24 27 46
f 26 46 27
f 26 28 47
f 28 34 47
f 29 48 49
f 29 49 50
f 29 50 30
f 30 50 31
f 31 50 51
f 31 51 32
f 32 51 52
f 32 52 53
f 32 53 54
f 32 54 33
f 33 55 56
f 33 56 57
f 33 57 58
f 33 58 59
f 33 59 35
f 33 54 60
f 33 60 61
f 33 61 62
f 33 62 55
f 34 40 63
f 34 63 64
f 34 64 47
f 35 59 36
f 36 65 38
f 36 38 37
f 38 65 66
f 38 66 67
f 38 67 68
f 38 68 69
f 38 69 39
f 39 70 71
f 39 69 70
f 41 72 73
f 41 73 74
f 41 74 75
f 41 75 42
f 43 76 77
f 44 45 78
f 44 78 79
f 48 80 49
f 49 80 50
f 50 81 82
f 50 82 83
f 50 83 84
f 50 84 85
f 50 85 51
f 50 80 81
f 51 85 52
f 52 85 84
f 52 84 53
f 53 84 62
f 53 62 54
f 54 62 60
f 55 62 86
f 55 86 56
f 56 86 87
f 56 87 88
f 56 88 89
f 56 89 90
f 56 90 59
f 56 59 58
f 56 58 57
f 59 90 88
f 59 88 91
f 59 91 92
f 59 92 93
f 60 62 61
f 62 84 86
f 65 94 95
f 65 95 66
f 66 95 94
f 66 94 67
f 67 94 96
f 67 96 68
f 68 96 97
f 68 97 70
f 68 70 69
f 70 97 98
f 70 98 71
f 72 99 100
f 72 100 73
f 73 100 101
f 73 101 102
f 73 102 74
f 74 102 103
f 74 103 104
f 76 105 106
f 76 106 107
f 76 107 108
f 76 108 77
f 77 108 110
f 77 110 111
f 77 111 109
f 78 98 97
f 78 97 79
f 79 97 96
f 79 96 112
f 80 113 114
f 80 114 115
f 80 115 116
f 80 116 81
f 81 116 82
f 82 116 115
f 82 115 117
f 82 117 101
f 82 101 118
f 82 118 83
f 83 118 111
f 83 111 91
f 83 91 86
f 83 86 84
f 86 91 87
f 87 91 88
f 88 90 89
f 91 111 106
f 91 106 92
f 92 106 93
f 93 106 105
f 94 112 96
f 99 119 120
f 99 120 100
f 100 120 118
f 100 118 101
f 101 117 121
f 101 121 122
f 101 122 123
f 101 123 124
f 101 124 103
f 101 103 102
f 103 124 113
f 103 113 104
f 106 111 110
f 106 110 107
f 107 110 108
f 109 111 125
f 109 125 119
f 111 118 120
f 111 120 125
f 113 124 123
f 113 123 122
f 113 122 114
f 114 122 121
f 114 121 117
f 114 117 115
f 119 125 120

