# https://github.com/mikedh/trimesh
v -0.01185616 -0.06045104 0.02274176
v -0.01185616 -0.06202681 0.02274176
v -0.00773507 -0.06284924 0.02274176
v -0.00773507 -0.06709363 0.01782628
v -0.01185616 -0.06521920 0.01782628
v -0.01185616 -0.06230021 0.02247953
v -0.01164678 -0.06236410 0.02261281
v -0.01157658 -0.06229129 0.02274176
v -0.00773507 -0.06399485 0.02274176
v -0.00773507 -0.06803939 0.01782628
v -0.01185616 -0.06649185 0.01782628
v -0.01185616 -0.06261521 0.02215908
v -0.01164517 -0.06306915 0.02190166
v -0.01092382 -0.06376454 0.02188771
v -0.01020167 -0.06445844 0.02187375
v -0.01091898 -0.06305280 0.02259597
v -0.01083910 -0.06297034 0.02274176
v -0.00786740 -0.06401416 0.02274176
v -0.00847699 -0.06436037 0.02249252
v -0.00773507 -0.06429276 0.02244777
v -0.00773507 -0.06802973 0.01784072
v -0.00776936 -0.06804013 0.01782628
v -0.01181138 -0.06653420 0.01782628
v -0.01185616 -0.06645396 0.01787007
v -0.01185616 -0.06296068 0.02179918
v -0.01114612 -0.06397479 0.02141618
v -0.01067450 -0.06421698 0.02164473
v -0.01042558 -0.06466869 0.02140174
v -0.01017464 -0.06514045 0.02113711
v -0.00995235 -0.06490568 0.02162452
v -0.00973046 -0.06467017 0.02208354
v -0.01019078 -0.06374151 0.02257817
v -0.01010082 -0.06364715 0.02274176
v -0.00847699 -0.06409588 0.02274176
v -0.00867064 -0.06411074 0.02274176
v -0.00918461 -0.06438489 0.02251947
v -0.00918461 -0.06474967 0.02216582
v -0.00847699 -0.06471029 0.02213887
v -0.00773507 -0.06430985 0.02242949
v -0.00773507 -0.06784102 0.01810680
v -0.00776936 -0.06784177 0.01810631
v -0.00918461 -0.06746584 0.01857496
v -0.00898330 -0.06800224 0.01782628
v -0.00826761 -0.06662558 0.01980190
v -0.01168954 -0.06664713 0.01782628
v -0.01083789 -0.06580909 0.01967825
v -0.01175732 -0.06600523 0.01848354
v -0.01185616 -0.06610775 0.01826269
v -0.01185616 -0.06328534 0.02143494
v -0.01183922 -0.06396141 0.02069348
v -0.01178475 -0.06532396 0.01922067
v -0.01109125 -0.06533733 0.01994288
v -0.01064747 -0.06489825 0.02090808
v -0.00970343 -0.06532693 0.02137576
v -0.01131354 -0.06556615 0.01944922
v -0.01036628 -0.06601860 0.01992075
v -0.00973732 -0.06397107 0.02274176
v -0.00918461 -0.06510331 0.02180254
v -0.00918461 -0.06414640 0.02274176
v -0.00773507 -0.06462411 0.02209268
v -0.00847699 -0.06506393 0.02175250
v -0.00773507 -0.06748738 0.01860094
v -0.00776936 -0.06748813 0.01860239
v -0.00953843 -0.06797549 0.01782628
v -0.00918461 -0.06799555 0.01782628
v -0.00918461 -0.06600671 0.02063478
v -0.00809211 -0.06662558 0.01980190
v -0.00918461 -0.06574669 0.02098843
v -0.01154713 -0.06677120 0.01782628
v -0.01185616 -0.06582544 0.01858025
v -0.01185616 -0.06496289 0.01954978
v -0.01032472 -0.06668873 0.01916870
v -0.01028115 -0.06735737 0.01841714
v -0.00964292 -0.06597180 0.02058570
v -0.00918461 -0.06539305 0.02144890
v -0.01102831 -0.06668576 0.01845756
v -0.00847699 -0.06571846 0.02096967
v -0.00847699 -0.06536482 0.02139886
v -0.00773507 -0.06463897 0.02207584
v -0.00776936 -0.06595248 0.02054865
v -0.00773507 -0.06529424 0.02131369
v -0.00776936 -0.06499632 0.02167119
v -0.00773507 -0.06497552 0.02168755
v -0.00773507 -0.06722290 0.01895507
v -0.00981559 -0.06794503 0.01782628
v -0.01005240 -0.06791680 0.01782628
v -0.00773507 -0.06682543 0.01947376
v -0.00773507 -0.06658918 0.01976870
v -0.01130063 -0.06698367 0.01782628
v -0.01124254 -0.06691978 0.01796149
v -0.01075277 -0.06715752 0.01817753
v -0.01092544 -0.06730537 0.01782628
v -0.01057848 -0.06759957 0.01782628
v -0.00773507 -0.06594877 0.02054433
v -0.00773507 -0.06593242 0.02056357
v -0.00773507 -0.06562559 0.02092444
v -0.01110658 -0.06715009 0.01782628
f 1 2 8
f 1 8 17
f 1 17 33
f 1 33 57
f 1 57 59
f 1 59 35
f 1 35 34
f 1 34 18
f 1 18 9
f 1 9 3
f 1 3 4
f 1 4 5
f 1 5 11
f 1 11 24
f 1 24 48
f 1 48 70
f 1 70 71
f 1 71 49
f 1 49 25
f 1 25 12
f 1 12 6
f 1 6 2
f 2 6 7
f 2 7 8
f 3 9 20
f 3 20 39
f 3 39 60
f 3 60 79
f 3 79 83
f 3 83 81
f 3 81 96
f 3 96 95
f 3 95 94
f 3 94 88
f 3 88 87
f 3 87 84
f 3 84 62
f 3 62 40
f 3 40 21
f 3 21 10
f 3 10 4
f 4 10 22
f 4 22 43
f 4 43 65
f 4 65 64
f 4 64 85
f 4 85 86
f 4 86 93
f 4 93 92
f 4 92 97
f 4 97 89
f 4 89 69
f 4 69 45
f 4 45 23
f 4 23 11
f 4 11 5
f 6 12 13
f 6 13 14
f 6 14 15
f 6 15 7
f 7 16 8
f 7 15 16
f 8 16 17
f 9 18 19
f 9 19 20
f 10 21 22
f 11 23 24
f 12 25 13
f 13 25 26
f 13 26 14
f 14 26 27
f 14 27 15
f 15 27 28
f 15 28 29
f 15 29 30
f 15 30 31
f 15 31 32
f 15 32 16
f 16 32 17
f 17 32 33
f 18 34 19
f 19 34 35
f 19 35 36
f 19 36 37
f 19 37 38
f 19 38 20
f 20 38 39
f 21 40 41
f 21 41 22
f 22 42 43
f 22 41 44
f 22 44 42
f 23 45 46
f 23 46 24
f 24 46 47
f 24 47 48
f 25 49 26
f 26 28 27
f 26 49 50
f 26 50 51
f 26 51 52
f 26 52 53
f 26 53 28
f 28 53 29
f 29 54 30
f 29 53 52
f 29 52 55
f 29 55 47
f 29 47 46
f 29 46 56
f 29 56 54
f 30 54 31
f 31 36 57
f 31 57 32
f 31 54 58
f 31 58 37
f 31 37 36
f 32 57 33
f 35 59 36
f 36 59 57
f 37 58 38
f 38 60 39
f 38 58 61
f 38 61 60
f 40 62 63
f 40 63 41
f 41 63 44
f 42 64 65
f 42 65 43
f 42 44 66
f 42 66 64
f 44 63 67
f 44 67 68
f 44 68 66
f 45 69 56
f 45 56 46
f 47 55 51
f 47 51 48
f 48 51 70
f 49 71 50
f 50 71 51
f 51 71 70
f 51 55 52
f 54 56 72
f 54 72 73
f 54 73 74
f 54 74 75
f 54 75 58
f 56 69 76
f 56 76 72
f 58 75 77
f 58 77 78
f 58 78 61
f 60 61 79
f 61 78 80
f 61 80 81
f 61 81 82
f 61 82 83
f 61 83 79
f 62 84 67
f 62 67 63
f 64 66 85
f 66 68 74
f 66 74 86
f 66 86 85
f 67 84 87
f 67 87 88
f 67 88 80
f 67 80 78
f 67 78 77
f 67 77 75
f 67 75 68
f 68 75 74
f 69 89 90
f 69 90 76
f 72 76 91
f 72 91 73
f 73 91 92
f 73 92 93
f 73 93 86
f 73 86 74
f 76 90 92
f 76 92 91
f 80 94 95
f 80 95 96
f 80 96 81
f 80 88 94
f 81 83 82
f 89 97 90
f 90 97 92

