# https://github.com/mikedh/trimesh
v -0.00149365 -0.05357121 -0.02445373
v -0.00218427 -0.05357121 -0.02445373
v -0.00149234 -0.05421219 -0.02445373
v -0.00141257 -0.05357121 -0.02509304
v -0.00398115 -0.05357121 -0.03179558
v -0.00398115 -0.05368528 -0.03167229
v -0.00398115 -0.06138255 -0.02445373
v -0.00140785 -0.05357121 -0.02513223
v -0.00149628 -0.05494824 -0.02445373
v -0.00398115 -0.05357121 -0.03279415
v -0.00398115 -0.06282024 -0.02445373
v -0.00135904 -0.05357121 -0.02584013
v -0.00150021 -0.05562635 -0.02445373
v -0.00141179 -0.05424026 -0.02513223
v -0.00136062 -0.05494824 -0.02584013
v -0.00362115 -0.05357121 -0.03266188
v -0.00383290 -0.05392972 -0.03258512
v -0.00398115 -0.05378215 -0.03270270
v -0.00398115 -0.06246354 -0.02491342
v -0.00383421 -0.06241555 -0.02482605
v -0.00377255 -0.06262741 -0.02445373
v -0.00130709 -0.05357121 -0.02721591
v -0.00141598 -0.05494824 -0.02513223
v -0.00150756 -0.05633433 -0.02445373
v -0.00142779 -0.05565532 -0.02513223
v -0.00142202 -0.05565532 -0.02584013
v -0.00137610 -0.05494824 -0.02654721
v -0.00130053 -0.05357121 -0.02792380
v -0.00347473 -0.05357121 -0.03255247
v -0.00336111 -0.05368256 -0.03239488
v -0.00398115 -0.05396775 -0.03260635
v -0.00398115 -0.05379664 -0.03269535
v -0.00374027 -0.05476083 -0.03196541
v -0.00397748 -0.05523252 -0.03179722
v -0.00398115 -0.05524157 -0.03179313
v -0.00398115 -0.05522890 -0.03180130
v -0.00398115 -0.06229333 -0.02511835
v -0.00373765 -0.06107564 -0.02633002
v -0.00321968 -0.06020560 -0.02683216
v -0.00374578 -0.06259210 -0.02445373
v -0.00326586 -0.06085564 -0.02602874
v -0.00156529 -0.05704141 -0.02445373
v -0.00149418 -0.05636240 -0.02513223
v -0.00152881 -0.05565532 -0.02654721
v -0.00147476 -0.05494824 -0.02725510
v -0.00142254 -0.05424026 -0.02796218
v -0.00169517 -0.05767243 -0.02445373
v -0.00130499 -0.05357121 -0.02796218
v -0.00319213 -0.05357121 -0.03227568
v -0.00306723 -0.05357121 -0.03213197
v -0.00312627 -0.05397680 -0.03192295
v -0.00326849 -0.05444849 -0.03173598
v -0.00348103 -0.05499170 -0.03153104
v -0.00369357 -0.05552495 -0.03132610
v -0.00388879 -0.05599664 -0.03113423
v -0.00398115 -0.05621845 -0.03104441
v -0.00398115 -0.06029070 -0.02750576
v -0.00393156 -0.06020922 -0.02755557
v -0.00369147 -0.06040568 -0.02708364
v -0.00310029 -0.06038395 -0.02636023
v -0.00343800 -0.05997202 -0.02733838
v -0.00318452 -0.05952840 -0.02759231
v -0.00305542 -0.05973391 -0.02712038
v -0.00334275 -0.06196741 -0.02445373
v -0.00314595 -0.06101136 -0.02555681
v -0.00167575 -0.05564989 -0.02721836
v -0.00163823 -0.05498174 -0.02798177
v -0.00173191 -0.05749951 -0.02488402
v -0.00171091 -0.05685943 -0.02568581
v -0.00140523 -0.05357121 -0.02863006
v -0.00170567 -0.05770774 -0.02445373
v -0.00304834 -0.05357121 -0.03209523
v -0.00269988 -0.05630626 -0.02931673
v -0.00302131 -0.05702964 -0.02935755
v -0.00305175 -0.05636240 -0.02993236
v -0.00313965 -0.05676709 -0.02977069
v -0.00317639 -0.05600026 -0.03043123
v -0.00332438 -0.05636240 -0.03028672
v -0.00332307 -0.05723877 -0.02958045
v -0.00370170 -0.05905219 -0.02848881
v -0.00398115 -0.05799293 -0.02961720
v -0.00398115 -0.05720437 -0.03025242
v -0.00398115 -0.05683227 -0.03055207
v -0.00398115 -0.06015580 -0.02766579
v -0.00365605 -0.05973753 -0.02782582
v -0.00296883 -0.05994214 -0.02657660
v -0.00304073 -0.06061482 -0.02581155
v -0.00389719 -0.05952387 -0.02829694
v -0.00310685 -0.05753029 -0.02910852
v -0.00307694 -0.05829260 -0.02844635
v -0.00304913 -0.05905671 -0.02778337
v -0.00293551 -0.05925227 -0.02731552
v -0.00251096 -0.05805268 -0.02749841
v -0.00320368 -0.06161613 -0.02467908
v -0.00317324 -0.06167588 -0.02445373
v -0.00309531 -0.06113630 -0.02513223
v -0.00172167 -0.05540997 -0.02775805
v -0.00169675 -0.05619762 -0.02654721
v -0.00245559 -0.05886206 -0.02622633
v -0.00239314 -0.05846824 -0.02649658
v -0.00235562 -0.05780099 -0.02725918
v -0.00170094 -0.05476808 -0.02844799
v -0.00241387 -0.05758099 -0.02772784
v -0.00233909 -0.05923235 -0.02515673
v -0.00241256 -0.05899424 -0.02584013
v -0.00141625 -0.05357121 -0.02866925
v -0.00218585 -0.05919342 -0.02445373
v -0.00235982 -0.05357121 -0.03073170
v -0.00241964 -0.05400034 -0.03052431
v -0.00245375 -0.05603285 -0.02904157
v -0.00254454 -0.05650454 -0.02886113
v -0.00242594 -0.05681416 -0.02839002
v -0.00265606 -0.05705770 -0.02864313
v -0.00292869 -0.05851079 -0.02799647
v -0.00394232 -0.05875976 -0.02895992
v -0.00398115 -0.05928667 -0.02857209
v -0.00398115 -0.05989144 -0.02796789
v -0.00398115 -0.05967235 -0.02821284
v -0.00242856 -0.05962980 -0.02493709
v -0.00243486 -0.05822108 -0.02702648
v -0.00263507 -0.05913548 -0.02649658
v -0.00398115 -0.05944601 -0.02844227
v -0.00261801 -0.05780099 -0.02796299
v -0.00304283 -0.06137259 -0.02445373
v -0.00302709 -0.06133547 -0.02445373
v -0.00303233 -0.06134815 -0.02445373
v -0.00171301 -0.05399853 -0.02910852
v -0.00165371 -0.05357121 -0.02931510
v -0.00163928 -0.05357121 -0.02927917
v -0.00162039 -0.05423664 -0.02867742
v -0.00237136 -0.05974478 -0.02445373
v -0.00237582 -0.05975745 -0.02445373
f 1 2 7
f 1 7 11
f 1 11 21
f 1 21 40
f 1 40 64
f 1 64 95
f 1 95 124
f 1 124 126
f 1 126 125
f 1 125 132
f 1 132 131
f 1 131 107
f 1 107 71
f 1 71 47
f 1 47 42
f 1 42 24
f 1 24 13
f 1 13 9
f 1 9 3
f 1 3 4
f 1 4 8
f 1 8 12
f 1 12 22
f 1 22 28
f 1 28 48
f 1 48 70
f 1 70 106
f 1 106 129
f 1 129 128
f 1 128 108
f 1 108 72
f 1 72 50
f 1 50 49
f 1 49 29
f 1 29 16
f 1 16 10
f 1 10 5
f 1 5 2
f 2 5 6
f 2 6 7
f 3 8 4
f 3 9 8
f 5 10 18
f 5 18 32
f 5 32 31
f 5 31 36
f 5 36 35
f 5 35 56
f 5 56 83
f 5 83 82
f 5 82 81
f 5 81 116
f 5 116 122
f 5 122 118
f 5 118 117
f 5 117 84
f 5 84 57
f 5 57 37
f 5 37 19
f 5 19 11
f 5 11 7
f 5 7 6
f 8 9 13
f 8 13 14
f 8 14 15
f 8 15 12
f 10 16 17
f 10 17 18
f 11 19 20
f 11 20 21
f 12 15 22
f 13 23 14
f 13 24 23
f 14 23 15
f 15 23 25
f 15 25 26
f 15 26 27
f 15 27 28
f 15 28 22
f 16 29 30
f 16 30 17
f 17 31 32
f 17 32 18
f 17 30 33
f 17 33 34
f 17 34 35
f 17 35 36
f 17 36 31
f 19 37 20
f 20 37 38
f 20 38 39
f 20 39 21
f 21 39 41
f 21 41 40
f 23 24 25
f 24 42 25
f 25 43 26
f 25 42 43
f 26 44 45
f 26 45 46
f 26 46 27
f 26 43 47
f 26 47 44
f 27 46 48
f 27 48 28
f 29 49 30
f 30 49 50
f 30 50 51
f 30 51 52
f 30 52 33
f 33 53 54
f 33 54 55
f 33 55 56
f 33 56 34
f 33 52 53
f 34 56 35
f 37 57 58
f 37 58 59
f 37 59 38
f 38 59 39
f 39 60 41
f 39 59 61
f 39 61 62
f 39 62 63
f 39 63 60
f 40 41 65
f 40 65 64
f 41 60 65
f 42 47 43
f 44 66 67
f 44 67 45
f 44 47 68
f 44 68 69
f 44 69 66
f 45 67 46
f 46 70 48
f 46 67 70
f 47 71 68
f 50 72 73
f 50 73 74
f 50 74 75
f 50 75 51
f 51 75 76
f 51 76 77
f 51 77 52
f 52 77 53
f 53 77 54
f 54 77 78
f 54 78 79
f 54 79 80
f 54 80 81
f 54 81 82
f 54 82 83
f 54 83 55
f 55 83 56
f 57 84 58
f 58 84 85
f 58 85 61
f 58 61 59
f 60 63 86
f 60 86 87
f 60 87 65
f 61 85 62
f 62 85 88
f 62 88 80
f 62 80 79
f 62 79 77
f 62 77 76
f 62 76 89
f 62 89 90
f 62 90 91
f 62 91 63
f 63 91 92
f 63 92 93
f 63 93 86
f 64 94 95
f 64 65 94
f 65 87 96
f 65 96 95
f 65 95 94
f 66 97 67
f 66 69 98
f 66 98 99
f 66 99 100
f 66 100 101
f 66 101 97
f 67 102 70
f 67 97 101
f 67 101 103
f 67 103 102
f 68 71 104
f 68 104 105
f 68 105 99
f 68 99 69
f 69 99 98
f 70 102 106
f 71 107 104
f 72 108 109
f 72 109 110
f 72 110 111
f 72 111 73
f 73 111 112
f 73 112 113
f 73 113 74
f 74 113 114
f 74 114 91
f 74 91 90
f 74 90 89
f 74 89 76
f 74 76 75
f 77 79 78
f 80 115 81
f 80 88 116
f 80 116 115
f 81 115 116
f 84 117 85
f 85 118 88
f 85 117 118
f 86 119 87
f 86 93 120
f 86 120 121
f 86 121 99
f 86 99 119
f 87 119 96
f 88 122 116
f 88 118 122
f 91 114 123
f 91 123 103
f 91 103 93
f 91 93 92
f 93 103 101
f 93 101 120
f 95 96 124
f 96 125 126
f 96 126 124
f 96 119 125
f 99 105 119
f 99 121 120
f 99 120 101
f 99 101 100
f 102 127 128
f 102 128 129
f 102 129 130
f 102 130 106
f 102 103 112
f 102 112 127
f 103 123 112
f 104 107 119
f 104 119 105
f 106 130 129
f 107 131 119
f 108 128 127
f 108 127 109
f 109 127 112
f 109 112 110
f 110 112 111
f 112 123 114
f 112 114 113
f 119 131 132
f 119 132 125

