# https://github.com/mikedh/trimesh
v -0.00446559 -0.06682595 -0.01608389
v -0.00446559 -0.06400748 -0.02187138
v -0.00834380 -0.06654166 -0.02187081
v -0.00834380 -0.06967136 -0.01608389
v -0.00446559 -0.06843155 -0.01608389
v -0.00446559 -0.06436685 -0.02187195
v -0.00464022 -0.06423208 -0.02187195
v -0.00777285 -0.06646209 -0.02187195
v -0.00834380 -0.06697162 -0.02187195
v -0.00834380 -0.07046903 -0.01608389
v -0.00456012 -0.06861187 -0.01608389
v -0.00446559 -0.06841101 -0.01614282
v -0.00446559 -0.06539425 -0.02187195
v -0.00834380 -0.06758511 -0.02187195
v -0.00834380 -0.07028678 -0.01658535
v -0.00790078 -0.07054347 -0.01608389
v -0.00461440 -0.06870877 -0.01608389
v -0.00446559 -0.06823518 -0.01664598
v -0.00446559 -0.06824160 -0.01662842
v -0.00446559 -0.06578250 -0.02140448
v -0.00453544 -0.06595961 -0.02129456
v -0.00481788 -0.06570998 -0.02187195
v -0.00785143 -0.06754147 -0.02187195
v -0.00805984 -0.06807090 -0.02128776
v -0.00834380 -0.06788415 -0.02152121
v -0.00776905 -0.07035159 -0.01664202
v -0.00776905 -0.07056336 -0.01608389
v -0.00834380 -0.07026047 -0.01665448
v -0.00462351 -0.06869594 -0.01615699
v -0.00458289 -0.06803881 -0.01770953
v -0.00471272 -0.06880182 -0.01608389
v -0.00446559 -0.06773399 -0.01794922
v -0.00446559 -0.06626829 -0.02079140
v -0.00457758 -0.06662894 -0.02054265
v -0.00477232 -0.06576132 -0.02176599
v -0.00516941 -0.06599170 -0.02187195
v -0.00749724 -0.06735473 -0.02187195
v -0.00775614 -0.06768586 -0.02160280
v -0.00648859 -0.06680605 -0.02187195
v -0.00706144 -0.06744008 -0.02140448
v -0.00669245 -0.06733740 -0.02125319
v -0.00593434 -0.06736435 -0.02058741
v -0.00758835 -0.06793998 -0.02109284
v -0.00731237 -0.06809143 -0.02062141
v -0.00780208 -0.06819539 -0.02086902
v -0.00797101 -0.06881402 -0.01996639
v -0.00834380 -0.06868952 -0.02025084
v -0.00834380 -0.06806576 -0.02128039
v -0.00776905 -0.07017640 -0.01703015
v -0.00736589 -0.07018218 -0.01704149
v -0.00812286 -0.07015843 -0.01699559
v -0.00834380 -0.06882236 -0.01999019
v -0.00721063 -0.07049149 -0.01608389
v -0.00834380 -0.07023031 -0.01673041
v -0.00497998 -0.06902707 -0.01608389
v -0.00540363 -0.06937360 -0.01608389
v -0.00523091 -0.06878771 -0.01709078
v -0.00495720 -0.06817742 -0.01799001
v -0.00456277 -0.06735152 -0.01916745
v -0.00446559 -0.06714103 -0.01932214
v -0.00446559 -0.06728863 -0.01898444
v -0.00446559 -0.06643128 -0.02056305
v -0.00448571 -0.06673803 -0.02017888
v -0.00473664 -0.06724179 -0.01963945
v -0.00495948 -0.06708328 -0.02015678
v -0.00546247 -0.06723537 -0.02037720
v -0.00493936 -0.06673354 -0.02069734
v -0.00532505 -0.06659621 -0.02121410
v -0.00563330 -0.06630486 -0.02187195
v -0.00636559 -0.06673610 -0.02187195
v -0.00579692 -0.06673482 -0.02140788
v -0.00562951 -0.06698509 -0.02090075
v -0.00684050 -0.06796373 -0.02040893
v -0.00724555 -0.06883455 -0.01927625
v -0.00710282 -0.06989212 -0.01730610
v -0.00689440 -0.07005897 -0.01678651
v -0.00710282 -0.07026239 -0.01658705
v -0.00707093 -0.07046775 -0.01608389
v -0.00834380 -0.06972142 -0.01793052
v -0.00834380 -0.06948205 -0.01848411
v -0.00661311 -0.07022517 -0.01608389
v -0.00668941 -0.07017191 -0.01631507
v -0.00538541 -0.06867797 -0.01756221
v -0.00520509 -0.06809849 -0.01853624
v -0.00446559 -0.06679643 -0.02000832
v -0.00446559 -0.06670338 -0.02017888
v -0.00520851 -0.06737526 -0.01990577
v -0.00585728 -0.06884482 -0.01788915
v -0.00539224 -0.06797656 -0.01900710
v -0.00607898 -0.06657310 -0.02187195
v -0.00586335 -0.06644476 -0.02187195
v -0.00658805 -0.06810042 -0.01993693
v -0.00652124 -0.06884418 -0.01858497
v -0.00706144 -0.06954623 -0.01786876
v -0.00670763 -0.06945125 -0.01770330
f 1 2 3
f 1 3 4
f 1 4 10
f 1 10 16
f 1 16 27
f 1 27 53
f 1 53 78
f 1 78 81
f 1 81 56
f 1 56 55
f 1 55 31
f 1 31 17
f 1 17 11
f 1 11 5
f 1 5 12
f 1 12 19
f 1 19 18
f 1 18 32
f 1 32 61
f 1 61 60
f 1 60 85
f 1 85 86
f 1 86 62
f 1 62 33
f 1 33 20
f 1 20 13
f 1 13 6
f 1 6 2
f 2 6 7
f 2 7 3
f 3 7 8
f 3 8 9
f 3 9 14
f 3 14 25
f 3 25 48
f 3 48 47
f 3 47 52
f 3 52 80
f 3 80 79
f 3 79 54
f 3 54 28
f 3 28 15
f 3 15 10
f 3 10 4
f 5 11 12
f 6 13 22
f 6 22 36
f 6 36 69
f 6 69 91
f 6 91 90
f 6 90 70
f 6 70 39
f 6 39 37
f 6 37 23
f 6 23 14
f 6 14 9
f 6 9 8
f 6 8 7
f 10 15 16
f 11 17 18
f 11 18 19
f 11 19 12
f 13 20 21
f 13 21 22
f 14 23 24
f 14 24 25
f 15 26 27
f 15 27 16
f 15 28 26
f 17 29 30
f 17 30 18
f 17 31 29
f 18 30 32
f 20 33 34
f 20 34 21
f 21 35 22
f 21 34 35
f 22 35 34
f 22 34 36
f 23 37 38
f 23 38 24
f 24 38 39
f 24 39 40
f 24 40 41
f 24 41 42
f 24 42 43
f 24 43 44
f 24 44 45
f 24 45 46
f 24 46 47
f 24 47 48
f 24 48 25
f 26 49 50
f 26 50 27
f 26 28 51
f 26 51 52
f 26 52 49
f 27 50 53
f 28 54 51
f 29 31 30
f 30 31 55
f 30 55 56
f 30 56 57
f 30 57 58
f 30 58 59
f 30 59 60
f 30 60 61
f 30 61 32
f 33 62 34
f 34 63 59
f 34 59 64
f 34 64 65
f 34 65 66
f 34 66 67
f 34 67 68
f 34 68 69
f 34 69 36
f 34 62 63
f 37 39 38
f 39 70 71
f 39 71 72
f 39 72 41
f 39 41 40
f 41 72 42
f 42 72 67
f 42 67 66
f 42 66 44
f 42 44 43
f 44 73 74
f 44 74 46
f 44 46 45
f 44 66 73
f 46 74 50
f 46 50 52
f 46 52 47
f 49 52 50
f 50 74 75
f 50 75 76
f 50 76 77
f 50 77 78
f 50 78 53
f 51 54 79
f 51 79 80
f 51 80 52
f 56 81 57
f 57 81 82
f 57 82 83
f 57 83 58
f 58 83 84
f 58 84 59
f 59 63 85
f 59 85 60
f 59 84 64
f 62 86 63
f 63 86 85
f 64 87 65
f 64 84 88
f 64 88 89
f 64 89 87
f 65 87 66
f 66 87 73
f 67 72 71
f 67 71 68
f 68 71 90
f 68 90 91
f 68 91 69
f 70 90 71
f 73 92 74
f 73 87 92
f 74 92 93
f 74 93 94
f 74 94 75
f 75 94 93
f 75 93 95
f 75 95 76
f 76 88 82
f 76 82 77
f 76 95 89
f 76 89 88
f 77 82 78
f 78 82 81
f 82 88 84
f 82 84 83
f 87 89 95
f 87 95 93
f 87 93 92

