# https://github.com/mikedh/trimesh
v -0.00006597 -0.01001513 0.12484283
v 0.00031709 -0.01004536 0.12484283
v -0.00006597 -0.00995857 0.12502489
v -0.00006597 -0.00897269 0.12484283
v 0.00105208 -0.01009314 0.12484283
v 0.00031709 -0.00998197 0.12504427
v 0.00031709 -0.00967773 0.12541215
v -0.00006597 -0.00981230 0.12520152
v -0.00006597 -0.00013490 0.12577034
v 0.00831700 -0.00013100 0.12484283
v 0.00178801 -0.01002683 0.12484283
v 0.00105208 -0.01002585 0.12505192
v 0.00105208 -0.00968065 0.12541980
v 0.00031709 -0.00931009 0.12563230
v -0.00006597 -0.00928474 0.12561785
v -0.00006597 -0.00965237 0.12539260
v -0.00006597 -0.00013100 0.12584973
v 0.00031709 -0.00013100 0.12577034
v 0.00953694 -0.00013100 0.12484283
v 0.00249091 -0.00984643 0.12484283
v 0.00178801 -0.00997417 0.12499480
v 0.00178801 -0.00957338 0.12536268
v 0.00105208 -0.00931302 0.12561768
v 0.00081337 -0.00829009 0.12620366
v 0.00031709 -0.00829886 0.12620944
v 0.00031709 -0.00866650 0.12599983
v -0.00006597 -0.00827936 0.12619856
v -0.00006597 -0.00013100 0.12657936
v 0.00955298 -0.00125243 0.12484283
v 0.00941806 -0.00013100 0.12498324
v 0.00261734 -0.00981035 0.12484283
v 0.00252299 -0.00982985 0.12486646
v 0.00546387 -0.00847732 0.12497050
v 0.00546387 -0.00805703 0.12533820
v 0.00492702 -0.00816819 0.12539957
v 0.00178801 -0.00772450 0.12631263
v 0.00105585 -0.00792050 0.12634697
v 0.00031709 -0.00787175 0.12641174
v -0.00006597 -0.00790588 0.12638097
v 0.00619980 -0.00013100 0.12657936
v -0.00006597 -0.00713551 0.12657936
v 0.00956336 -0.00198866 0.12484283
v 0.00926144 -0.00125243 0.12518707
v 0.00925389 -0.00013100 0.12517619
v 0.00925673 -0.00051716 0.12517993
v 0.00437979 -0.00907313 0.12484283
v 0.00455434 -0.00900000 0.12484283
v 0.00600072 -0.00835250 0.12485405
v 0.00590637 -0.00757628 0.12547046
v 0.00546387 -0.00768939 0.12551806
v 0.00325892 -0.00701361 0.12633728
v 0.00178801 -0.00713551 0.12651493
v 0.00105208 -0.00713551 0.12657086
v 0.00031709 -0.00713551 0.12657936
v 0.00658569 -0.00013100 0.12655556
v 0.00619980 -0.00198866 0.12657936
v 0.00926522 -0.00198866 0.12519421
v 0.00957280 -0.00272393 0.12484283
v 0.00888687 -0.00013100 0.12551381
v 0.00598940 -0.00836030 0.12484283
v 0.00600260 -0.00835347 0.12484283
v 0.00601110 -0.00834762 0.12484283
v 0.00667720 -0.00766404 0.12484674
v 0.00619885 -0.00786590 0.12509561
v 0.00639699 -0.00729348 0.12533701
v 0.00659135 -0.00680298 0.12545227
v 0.00617055 -0.00708285 0.12554611
v 0.00579032 -0.00600043 0.12614858
v 0.00529970 -0.00613988 0.12623596
v 0.00472983 -0.00628713 0.12632181
v 0.00405145 -0.00646656 0.12638573
v 0.00325892 -0.00640024 0.12653958
v 0.00252299 -0.00640024 0.12657936
v 0.00693572 -0.00013100 0.12652972
v 0.00546387 -0.00345919 0.12657936
v 0.00546387 -0.00419445 0.12657137
v 0.00619980 -0.00272393 0.12656661
v 0.00693572 -0.00051716 0.12652496
v 0.00889348 -0.00125243 0.12551823
v 0.00889820 -0.00198866 0.12551772
v 0.00923502 -0.00272393 0.12520101
v 0.00948977 -0.00327879 0.12484283
v 0.00758391 -0.00013100 0.12632742
v 0.00667720 -0.00766502 0.12484283
v 0.00668004 -0.00766111 0.12484283
v 0.00869629 -0.00468496 0.12484283
v 0.00815755 -0.00547190 0.12485592
v 0.00790564 -0.00510232 0.12534636
v 0.00807169 -0.00461182 0.12545754
v 0.00741502 -0.00546215 0.12549970
v 0.00672815 -0.00640024 0.12552588
v 0.00597807 -0.00550993 0.12625262
v 0.00551293 -0.00571861 0.12633796
v 0.00472983 -0.00566498 0.12652258
v 0.00399390 -0.00566498 0.12657936
v 0.00472983 -0.00493069 0.12657800
v 0.00546387 -0.00493069 0.12652700
v 0.00693572 -0.00198866 0.12646852
v 0.00619980 -0.00345919 0.12651374
v 0.00758296 -0.00051716 0.12632283
v 0.00886706 -0.00272393 0.12549171
v 0.00881422 -0.00320370 0.12545839
v 0.00888782 -0.00439826 0.12484283
v 0.00872554 -0.00369420 0.12540756
v 0.00895386 -0.00419445 0.12491151
v 0.00836040 -0.00486243 0.12505685
v 0.00857929 -0.00419445 0.12527921
v 0.00766410 -0.00488584 0.12557637
v 0.00821133 -0.00419445 0.12552129
v 0.00661871 -0.00464107 0.12619805
v 0.00621395 -0.00490339 0.12630991
v 0.00619980 -0.00419445 0.12643469
v 0.00699705 -0.00277073 0.12635989
v 0.00746125 -0.00198866 0.12626622
v 0.00845098 -0.00345334 0.12557977
v 0.00738483 -0.00255718 0.12623086
v 0.00670834 -0.00419445 0.12624055
v 0.00683949 -0.00345919 0.12631144
f 1 2 3
f 1 3 8
f 1 8 16
f 1 16 15
f 1 15 27
f 1 27 39
f 1 39 41
f 1 41 28
f 1 28 17
f 1 17 9
f 1 9 4
f 1 4 10
f 1 10 19
f 1 19 29
f 1 29 42
f 1 42 58
f 1 58 82
f 1 82 103
f 1 103 86
f 1 86 85
f 1 85 84
f 1 84 62
f 1 62 61
f 1 61 60
f 1 60 47
f 1 47 46
f 1 46 31
f 1 31 20
f 1 20 11
f 1 11 5
f 1 5 2
f 2 5 6
f 2 6 3
f 3 6 7
f 3 7 8
f 4 9 10
f 5 11 12
f 5 12 6
f 6 12 7
f 7 13 14
f 7 14 15
f 7 15 16
f 7 16 8
f 7 12 13
f 9 17 18
f 9 18 10
f 10 18 17
f 10 17 28
f 10 28 40
f 10 40 55
f 10 55 74
f 10 74 83
f 10 83 59
f 10 59 44
f 10 44 30
f 10 30 19
f 11 20 21
f 11 21 12
f 12 21 13
f 13 22 23
f 13 23 24
f 13 24 25
f 13 25 26
f 13 26 14
f 13 21 22
f 14 26 27
f 14 27 15
f 19 30 29
f 20 31 32
f 20 32 21
f 21 32 22
f 22 32 33
f 22 33 34
f 22 34 35
f 22 35 36
f 22 36 24
f 22 24 23
f 24 36 37
f 24 37 38
f 24 38 25
f 25 38 39
f 25 39 27
f 25 27 26
f 28 41 54
f 28 54 73
f 28 73 95
f 28 95 75
f 28 75 56
f 28 56 40
f 29 30 43
f 29 43 42
f 30 44 45
f 30 45 43
f 31 46 32
f 32 46 47
f 32 47 33
f 33 47 48
f 33 48 34
f 34 48 49
f 34 49 50
f 34 50 51
f 34 51 36
f 34 36 35
f 36 51 52
f 36 52 37
f 37 52 53
f 37 53 38
f 38 53 54
f 38 54 41
f 38 41 39
f 40 56 55
f 42 57 58
f 42 43 57
f 43 45 59
f 43 59 57
f 44 59 45
f 47 60 48
f 48 60 61
f 48 61 62
f 48 62 63
f 48 63 64
f 48 64 49
f 49 64 65
f 49 65 66
f 49 66 67
f 49 67 68
f 49 68 69
f 49 69 70
f 49 70 51
f 49 51 50
f 51 70 71
f 51 71 72
f 51 72 52
f 52 72 53
f 53 72 73
f 53 73 54
f 55 56 74
f 56 75 76
f 56 76 77
f 56 77 78
f 56 78 74
f 57 59 79
f 57 79 80
f 57 80 81
f 57 81 58
f 58 81 82
f 59 83 79
f 62 84 63
f 63 84 85
f 63 85 86
f 63 86 87
f 63 87 88
f 63 88 65
f 63 65 64
f 65 88 66
f 66 88 89
f 66 89 90
f 66 90 91
f 66 91 92
f 66 92 67
f 67 92 68
f 68 93 69
f 68 92 93
f 69 93 70
f 70 93 94
f 70 94 71
f 71 94 72
f 72 94 95
f 72 95 73
f 74 78 83
f 75 95 96
f 75 96 76
f 76 96 97
f 76 97 77
f 77 98 78
f 77 97 99
f 77 99 98
f 78 100 83
f 78 98 100
f 79 83 80
f 80 101 81
f 80 83 100
f 80 100 101
f 81 101 102
f 81 102 82
f 82 102 104
f 82 104 105
f 82 105 103
f 86 103 87
f 87 103 106
f 87 106 88
f 88 106 105
f 88 105 107
f 88 107 89
f 89 92 108
f 89 108 90
f 89 107 104
f 89 104 109
f 89 109 92
f 90 108 91
f 91 108 92
f 92 109 110
f 92 110 111
f 92 111 97
f 92 97 93
f 93 97 94
f 94 97 95
f 95 97 96
f 97 111 112
f 97 112 99
f 98 99 112
f 98 112 113
f 98 113 114
f 98 114 100
f 100 114 101
f 101 114 102
f 102 115 104
f 102 114 116
f 102 116 115
f 103 105 106
f 104 107 105
f 104 115 110
f 104 110 109
f 110 115 117
f 110 117 111
f 111 117 112
f 112 117 118
f 112 118 113
f 113 116 114
f 113 118 116
f 115 116 117
f 116 118 117

