# https://github.com/mikedh/trimesh
v 0.00915519 -0.00013100 0.08384719
v 0.00812824 0.00409175 0.08384719
v 0.00992504 -0.00013100 0.08384719
v 0.00793720 -0.00013100 0.10768487
v 0.00730315 0.00205477 0.10778438
v 0.00899376 0.00409175 0.08384719
v 0.00703552 0.00409175 0.10774856
v 0.00992504 0.00021910 0.08384719
v 0.00994383 0.00021910 0.12139283
v 0.00993615 -0.00013100 0.10997351
v 0.00793720 -0.00013100 0.10799135
v 0.00730315 0.00205477 0.10778836
v 0.00952389 0.00282691 0.08384719
v 0.00924544 0.00409175 0.12430637
v 0.00952930 0.00358912 0.12450936
v 0.00705203 0.00409175 0.10818240
v 0.00987266 0.00095445 0.08384719
v 0.00994156 0.00095445 0.12139283
v 0.00993017 0.00095445 0.12212918
v 0.00992590 0.00021910 0.12212918
v 0.00993216 -0.00013100 0.12174310
v 0.00860513 -0.00013100 0.12450936
v 0.00784153 0.00409175 0.12450538
v 0.00753718 0.00409175 0.11845143
v 0.00963407 0.00242513 0.08384719
v 0.00953328 0.00357672 0.12450936
v 0.00920074 0.00409175 0.12445364
v 0.00918366 0.00409175 0.12450936
v 0.00986810 0.00099082 0.08384719
v 0.00985529 0.00168979 0.12212918
v 0.00984048 0.00168979 0.12286154
v 0.00986298 0.00095445 0.12286154
v 0.00987009 0.00021910 0.12286154
v 0.00987180 -0.00013100 0.12286154
v 0.00990084 -0.00013100 0.12247944
v 0.00992248 -0.00013100 0.12212918
v 0.00963322 -0.00013100 0.12450936
v 0.00784267 0.00408803 0.12450936
v 0.00784979 0.00409175 0.12450936
v 0.00977102 0.00172658 0.08384719
v 0.00956175 0.00319313 0.12450936
v 0.00964176 0.00242513 0.12433423
v 0.00971379 0.00242513 0.12359789
v 0.00977813 0.00168979 0.08384719
v 0.00965087 0.00168979 0.12433423
v 0.00967307 -0.00013100 0.12433423
v 0.00972632 -0.00013100 0.12394815
v 0.00977443 -0.00013100 0.12359789
v 0.00982682 -0.00013100 0.12321180
v 0.00963008 0.00021910 0.12450936
v 0.00960645 0.00242513 0.12450936
f 1 2 6
f 1 6 13
f 1 13 25
f 1 25 40
f 1 40 44
f 1 44 29
f 1 29 17
f 1 17 8
f 1 8 3
f 1 3 10
f 1 10 21
f 1 21 36
f 1 36 35
f 1 35 34
f 1 34 49
f 1 49 48
f 1 48 47
f 1 47 46
f 1 46 37
f 1 37 22
f 1 22 11
f 1 11 4
f 1 4 5
f 1 5 2
f 2 5 7
f 2 7 16
f 2 16 24
f 2 24 23
f 2 23 39
f 2 39 28
f 2 28 27
f 2 27 14
f 2 14 6
f 3 8 9
f 3 9 10
f 4 11 12
f 4 12 5
f 5 12 7
f 6 14 15
f 6 15 13
f 7 12 16
f 8 17 18
f 8 18 9
f 9 18 19
f 9 19 20
f 9 20 21
f 9 21 10
f 11 22 12
f 12 22 23
f 12 23 24
f 12 24 16
f 13 15 26
f 13 26 25
f 14 27 15
f 15 27 28
f 15 28 39
f 15 39 38
f 15 38 22
f 15 22 37
f 15 37 50
f 15 50 51
f 15 51 41
f 15 41 26
f 17 29 30
f 17 30 18
f 18 30 19
f 19 30 31
f 19 31 32
f 19 32 33
f 19 33 34
f 19 34 35
f 19 35 20
f 20 36 21
f 20 35 36
f 22 38 23
f 23 38 39
f 25 26 40
f 26 41 42
f 26 42 43
f 26 43 31
f 26 31 30
f 26 30 44
f 26 44 40
f 29 44 30
f 31 43 42
f 31 42 32
f 32 42 45
f 32 45 46
f 32 46 47
f 32 47 48
f 32 48 49
f 32 49 33
f 33 49 34
f 37 46 50
f 41 51 42
f 42 51 45
f 45 51 46
f 46 51 50

