# https://github.com/mikedh/trimesh
v -0.00155180 0.00996838 0.12430589
v -0.00155180 0.00996453 0.12396109
v -0.00262629 0.00975652 0.12212988
v -0.00189079 0.00989690 0.12433620
v -0.00175073 0.00978434 0.12469161
v -0.00157616 0.00981473 0.12469161
v -0.00155180 0.00982714 0.12467039
v -0.00155180 0.00995597 0.12320216
v -0.00262629 0.00974753 0.12286494
v -0.00155180 0.00993243 0.12212988
v -0.00155180 0.00990289 0.12184609
v -0.00155180 0.00985753 0.12142210
v -0.00379484 0.00944365 0.12165664
v -0.00379484 0.00944365 0.12194119
v -0.00262629 0.00969874 0.12360038
v -0.00266080 0.00957462 0.12430968
v -0.00249908 0.00953010 0.12469161
v -0.00228188 0.00962298 0.12469161
v -0.00189079 0.00975951 0.12469161
v -0.00155180 0.00981858 0.12469161
v -0.00155180 0.00975909 0.12105608
v -0.00336179 0.00950057 0.12150053
v -0.00336179 0.00936747 0.12113300
v -0.00406279 0.00922580 0.12140467
v -0.00474416 0.00885472 0.12139444
v -0.00741551 0.00721548 0.12172901
v -0.00475972 0.00885601 0.12212988
v -0.00464402 0.00877811 0.12286494
v -0.00311144 0.00947789 0.12360038
v -0.00302415 0.00942953 0.12404672
v -0.00399106 0.00882348 0.12433620
v -0.00669625 0.00722105 0.12469161
v -0.00292875 0.00936361 0.12453702
v -0.00267366 0.00944151 0.12469161
v -0.00155180 0.00870963 0.12469161
v -0.00155180 0.00968033 0.12082117
v -0.00339224 0.00914277 0.12082117
v -0.00409391 0.00891978 0.12082117
v -0.00433141 0.00883332 0.12082117
v -0.00461018 0.00876955 0.12089581
v -0.00205048 0.00955279 0.12082117
v -0.00224332 0.00950271 0.12082117
v -0.00597496 0.00796662 0.12098258
v -0.00605615 0.00801798 0.12139444
v -0.00642356 0.00778044 0.12139444
v -0.00705689 0.00737684 0.12144824
v -0.00682413 0.00731906 0.12091362
v -0.00731469 0.00706739 0.12123871
v -0.00822747 0.00587028 0.12154979
v -0.00826401 0.00592677 0.12212988
v -0.00741551 0.00721548 0.12183093
v -0.00607713 0.00803168 0.12212988
v -0.00599728 0.00798075 0.12286494
v -0.00594992 0.00795079 0.12327643
v -0.00453778 0.00871776 0.12341927
v -0.00559536 0.00809288 0.12355340
v -0.00538087 0.00804323 0.12433620
v -0.00676120 0.00726213 0.12433620
v -0.00712929 0.00704000 0.12433620
v -0.00672670 0.00720264 0.12469161
v -0.00183057 0.00844898 0.12469161
v -0.00155180 0.00872161 0.12082117
v -0.00453440 0.00874387 0.12082117
v -0.00468326 0.00867753 0.12082117
v -0.00571851 0.00803981 0.12082117
v -0.00590459 0.00791184 0.12082117
v -0.00657175 0.00742477 0.12082117
v -0.00676729 0.00725700 0.12082117
v -0.00690194 0.00708794 0.12082117
v -0.00747235 0.00657733 0.12097538
v -0.00812192 0.00570421 0.12105949
v -0.00823559 0.00559636 0.12116748
v -0.00834385 0.00559636 0.12142172
v -0.00846362 0.00559636 0.12212988
v -0.00845211 0.00559636 0.12244323
v -0.00824912 0.00590409 0.12286494
v -0.00800080 0.00624906 0.12360038
v -0.00801230 0.00627217 0.12286494
v -0.00723011 0.00708623 0.12360038
v -0.00686270 0.00732762 0.12360038
v -0.00694187 0.00737941 0.12286494
v -0.00708937 0.00738882 0.12209767
v -0.00761173 0.00667235 0.12433620
v -0.00636537 0.00774706 0.12286494
v -0.00741010 0.00672628 0.12469161
v -0.00265336 0.00788701 0.12469161
v -0.00646619 0.00559636 0.12082344
v -0.00652641 0.00559636 0.12082117
v -0.00720981 0.00669332 0.12082117
v -0.00800418 0.00559636 0.12090073
v -0.00840746 0.00559636 0.12319231
v -0.00823221 0.00588140 0.12360038
v -0.00797915 0.00619256 0.12433620
v -0.00766925 0.00646776 0.12469161
v -0.00755693 0.00661414 0.12469161
v -0.00638703 0.00574102 0.12469161
v -0.00668474 0.00559636 0.12469161
v -0.00785465 0.00559636 0.12082117
v -0.00737897 0.00642539 0.12082117
v -0.00765977 0.00597813 0.12082117
v -0.00794802 0.00559636 0.12087080
v -0.00837362 0.00559636 0.12360038
v -0.00819296 0.00582491 0.12433620
v -0.00815981 0.00577098 0.12469161
v -0.00813883 0.00580693 0.12469161
v -0.00822476 0.00559636 0.12469161
v -0.00833979 0.00559636 0.12396829
v -0.00830190 0.00559636 0.12433620
v -0.00826401 0.00559636 0.12456278
v -0.00818078 0.00572604 0.12469161
f 1 2 3
f 1 3 4
f 1 4 5
f 1 5 6
f 1 6 7
f 1 7 20
f 1 20 35
f 1 35 62
f 1 62 36
f 1 36 21
f 1 21 12
f 1 12 11
f 1 11 10
f 1 10 8
f 1 8 2
f 2 8 3
f 3 9 4
f 3 8 10
f 3 10 11
f 3 11 12
f 3 12 13
f 3 13 14
f 3 14 9
f 4 9 14
f 4 14 15
f 4 15 16
f 4 16 17
f 4 17 18
f 4 18 19
f 4 19 5
f 5 19 18
f 5 18 17
f 5 17 34
f 5 34 32
f 5 32 60
f 5 60 85
f 5 85 95
f 5 95 94
f 5 94 105
f 5 105 104
f 5 104 110
f 5 110 106
f 5 106 97
f 5 97 96
f 5 96 86
f 5 86 61
f 5 61 35
f 5 35 20
f 5 20 6
f 6 20 7
f 12 21 22
f 12 22 13
f 13 22 23
f 13 23 24
f 13 24 25
f 13 25 26
f 13 26 27
f 13 27 14
f 14 27 28
f 14 28 29
f 14 29 16
f 14 16 15
f 16 29 30
f 16 30 31
f 16 31 32
f 16 32 33
f 16 33 17
f 17 33 34
f 21 36 22
f 22 36 23
f 23 37 38
f 23 38 39
f 23 39 40
f 23 40 24
f 23 36 41
f 23 41 42
f 23 42 37
f 24 40 25
f 25 40 43
f 25 43 44
f 25 44 26
f 26 44 45
f 26 45 43
f 26 43 46
f 26 46 47
f 26 47 48
f 26 48 49
f 26 49 50
f 26 50 51
f 26 51 27
f 27 51 52
f 27 52 53
f 27 53 54
f 27 54 28
f 28 55 29
f 28 54 56
f 28 56 55
f 29 55 30
f 30 55 31
f 31 55 57
f 31 57 32
f 32 57 58
f 32 58 59
f 32 59 60
f 32 34 33
f 35 61 62
f 36 62 88
f 36 88 98
f 36 98 100
f 36 100 99
f 36 99 89
f 36 89 69
f 36 69 68
f 36 68 67
f 36 67 66
f 36 66 65
f 36 65 64
f 36 64 63
f 36 63 39
f 36 39 38
f 36 38 37
f 36 37 42
f 36 42 41
f 39 63 40
f 40 63 64
f 40 64 65
f 40 65 43
f 43 65 66
f 43 66 47
f 43 47 46
f 43 45 44
f 47 66 67
f 47 67 68
f 47 68 69
f 47 69 70
f 47 70 48
f 48 70 71
f 48 71 49
f 49 71 72
f 49 72 73
f 49 73 74
f 49 74 50
f 50 74 75
f 50 75 76
f 50 76 77
f 50 77 78
f 50 78 51
f 51 79 80
f 51 80 81
f 51 81 82
f 51 82 52
f 51 78 77
f 51 77 83
f 51 83 79
f 52 82 81
f 52 81 84
f 52 84 53
f 53 84 80
f 53 80 54
f 54 80 59
f 54 59 58
f 54 58 56
f 55 56 57
f 56 58 57
f 59 79 83
f 59 83 85
f 59 85 60
f 59 80 79
f 61 86 62
f 62 86 87
f 62 87 88
f 69 89 70
f 70 89 90
f 70 90 71
f 71 90 72
f 72 90 101
f 72 101 98
f 72 98 88
f 72 88 87
f 72 87 97
f 72 97 106
f 72 106 109
f 72 109 108
f 72 108 107
f 72 107 102
f 72 102 91
f 72 91 75
f 72 75 74
f 72 74 73
f 75 91 92
f 75 92 76
f 76 92 77
f 77 92 93
f 77 93 83
f 80 84 81
f 83 93 94
f 83 94 95
f 83 95 85
f 86 96 87
f 87 96 97
f 89 99 90
f 90 100 101
f 90 99 100
f 91 102 92
f 92 102 103
f 92 103 93
f 93 103 104
f 93 104 105
f 93 105 94
f 98 101 100
f 102 107 103
f 103 107 108
f 103 108 104
f 104 108 109
f 104 109 110
f 106 110 109

