# https://github.com/mikedh/trimesh
v 0.00592743 -0.00665400 0.12484282
v 0.00681551 -0.00665400 0.12247449
v 0.00735038 -0.00665400 0.12484282
v 0.00831704 -0.00013100 0.12484282
v 0.00911215 -0.00013100 0.12247449
v 0.00779345 -0.00665400 0.12247449
v 0.00738539 -0.00665400 0.12480782
v 0.00816922 -0.00546190 0.12484282
v 0.00953693 -0.00013100 0.12484282
v 0.00990142 -0.00013100 0.12247449
v 0.00787747 -0.00652949 0.12247449
v 0.00777166 -0.00665400 0.12264952
v 0.00746825 -0.00665400 0.12459199
v 0.00881495 -0.00462099 0.12476725
v 0.00869631 -0.00468356 0.12484282
v 0.00956610 -0.00013100 0.12480828
v 0.00955366 -0.00129883 0.12484282
v 0.00989753 -0.00051730 0.12247449
v 0.00987185 -0.00013100 0.12286535
v 0.00987341 -0.00051730 0.12286535
v 0.00799300 -0.00635709 0.12247449
v 0.00809998 -0.00612531 0.12286535
v 0.00785335 -0.00649309 0.12286535
v 0.00774443 -0.00665400 0.12286535
v 0.00751882 -0.00665400 0.12433605
v 0.00824429 -0.00559982 0.12433605
v 0.00888769 -0.00439751 0.12484282
v 0.00861228 -0.00505900 0.12433605
v 0.00886124 -0.00469122 0.12433605
v 0.00917361 -0.00419383 0.12433605
v 0.00945446 -0.00372388 0.12433605
v 0.00955910 -0.00324117 0.12479229
v 0.00968669 -0.00125286 0.12433605
v 0.00967308 -0.00013100 0.12433605
v 0.00957738 -0.00198778 0.12482613
v 0.00969486 -0.00198778 0.12433605
v 0.00956338 -0.00198778 0.12484282
v 0.00985279 -0.00125286 0.12286535
v 0.00988780 -0.00086209 0.12247449
v 0.00982673 -0.00013100 0.12321517
v 0.00978550 -0.00125286 0.12360093
v 0.00968047 -0.00272334 0.12433605
v 0.00976760 -0.00198778 0.12360093
v 0.00812254 -0.00616171 0.12247449
v 0.00890598 -0.00476465 0.12360093
v 0.00806341 -0.00606912 0.12340040
v 0.00770709 -0.00665400 0.12312059
v 0.00756861 -0.00665400 0.12403746
v 0.00949025 -0.00327821 0.12484282
v 0.00952020 -0.00384392 0.12335056
v 0.00958594 -0.00335674 0.12433605
v 0.00958166 -0.00272334 0.12483309
v 0.00957272 -0.00272334 0.12484282
v 0.00977927 -0.00051730 0.12360093
v 0.00977461 -0.00013100 0.12360093
v 0.00972637 -0.00013100 0.12395030
v 0.00986252 -0.00125286 0.12247449
v 0.00970614 -0.00272334 0.12360093
v 0.00978900 -0.00198778 0.12286535
v 0.00896199 -0.00485596 0.12247449
v 0.00894293 -0.00482595 0.12286535
v 0.00932959 -0.00425321 0.12247449
v 0.00943423 -0.00408081 0.12247449
v 0.00953382 -0.00387202 0.12286535
v 0.00961006 -0.00345827 0.12286535
v 0.00983257 -0.00159702 0.12247449
v 0.00961395 -0.00345827 0.12247449
v 0.00970459 -0.00272334 0.12286535
v 0.00978783 -0.00198778 0.12247449
v 0.00953848 -0.00388543 0.12247449
v 0.00970303 -0.00272334 0.12247449
v 0.00974815 -0.00233258 0.12247449
f 1 2 6
f 1 6 12
f 1 12 24
f 1 24 47
f 1 47 48
f 1 48 25
f 1 25 13
f 1 13 7
f 1 7 3
f 1 3 8
f 1 8 15
f 1 15 27
f 1 27 49
f 1 49 53
f 1 53 37
f 1 37 17
f 1 17 9
f 1 9 4
f 1 4 5
f 1 5 2
f 2 5 10
f 2 10 18
f 2 18 39
f 2 39 57
f 2 57 66
f 2 66 69
f 2 69 72
f 2 72 71
f 2 71 67
f 2 67 70
f 2 70 63
f 2 63 62
f 2 62 60
f 2 60 44
f 2 44 21
f 2 21 11
f 2 11 6
f 3 7 8
f 4 9 16
f 4 16 34
f 4 34 56
f 4 56 55
f 4 55 40
f 4 40 19
f 4 19 10
f 4 10 5
f 6 11 12
f 7 13 14
f 7 14 8
f 8 14 15
f 9 17 16
f 10 19 20
f 10 20 18
f 11 21 22
f 11 22 23
f 11 23 12
f 12 23 24
f 13 25 26
f 13 26 14
f 14 27 15
f 14 26 28
f 14 28 29
f 14 29 30
f 14 30 31
f 14 31 32
f 14 32 27
f 16 33 34
f 16 17 35
f 16 35 36
f 16 36 33
f 17 37 35
f 18 20 38
f 18 38 39
f 19 40 41
f 19 41 20
f 20 41 42
f 20 42 43
f 20 43 38
f 21 44 22
f 22 44 45
f 22 45 29
f 22 29 23
f 23 29 46
f 23 46 24
f 24 46 47
f 25 48 26
f 26 48 47
f 26 47 28
f 27 32 49
f 28 47 46
f 28 46 29
f 29 45 50
f 29 50 30
f 30 50 31
f 31 50 51
f 31 51 32
f 32 51 42
f 32 42 52
f 32 52 53
f 32 53 49
f 33 54 55
f 33 55 56
f 33 56 34
f 33 36 54
f 35 37 52
f 35 52 36
f 36 52 42
f 36 42 41
f 36 41 54
f 37 53 52
f 38 57 39
f 38 43 58
f 38 58 59
f 38 59 57
f 40 55 54
f 40 54 41
f 42 58 43
f 42 51 58
f 44 60 61
f 44 61 45
f 45 61 50
f 50 61 60
f 50 60 62
f 50 62 63
f 50 63 64
f 50 64 51
f 51 64 65
f 51 65 58
f 57 59 66
f 58 67 68
f 58 68 59
f 58 65 67
f 59 68 69
f 59 69 66
f 63 70 64
f 64 70 65
f 65 70 67
f 67 71 68
f 68 71 72
f 68 72 69

