# https://github.com/mikedh/trimesh
v 0.06370778 0.04326476 -0.02964071
v 0.06250132 0.04356259 -0.02964071
v 0.06370778 0.05224230 -0.02964071
v 0.06370778 0.07389902 0.03444645
v 0.03698480 0.06583626 -0.02964071
v 0.03691661 0.09037027 0.03449794
v 0.06368680 0.05226357 -0.02964071
v 0.06370778 0.05256141 -0.02935754
v 0.06370778 0.07392562 0.03449794
v 0.03691661 0.06763921 -0.02964071
v 0.03691661 0.08971078 0.03267019
v 0.03691661 0.09112548 0.03574004
v 0.06218135 0.05360382 -0.02964071
v 0.06264295 0.05409844 -0.02887485
v 0.06267705 0.05620987 -0.02682829
v 0.06370778 0.05399739 -0.02788375
v 0.06283441 0.07505845 0.03530884
v 0.06370778 0.07556902 0.03584945
v 0.03691661 0.07361183 -0.02964071
v 0.03691661 0.09253487 0.03602965
v 0.06145485 0.05424204 -0.02964071
v 0.06125815 0.05469411 -0.02940259
v 0.05352372 0.06109220 -0.02964071
v 0.05112917 0.06315576 -0.02964071
v 0.04706656 0.06808064 -0.02837287
v 0.04970765 0.07031439 -0.02435696
v 0.05353683 0.06989423 -0.02178910
v 0.05637200 0.06652765 -0.02260644
v 0.05641135 0.06864440 -0.02055987
v 0.06308881 0.05667257 -0.02575995
v 0.06370778 0.05589608 -0.02585006
v 0.06370778 0.05557165 -0.02622333
v 0.06370778 0.05474197 -0.02711790
v 0.06370778 0.07582431 0.03588806
v 0.03875514 0.07309062 -0.02928675
v 0.03774014 0.07326081 -0.02964071
v 0.03691661 0.07440960 -0.02854020
v 0.06368680 0.07798891 0.03610687
v 0.03875514 0.09253487 0.03610687
v 0.03691661 0.09461438 0.03610044
v 0.06069426 0.05490153 -0.02964071
v 0.05591565 0.05902864 -0.02964071
v 0.05057315 0.06363442 -0.02964071
v 0.04894706 0.06538951 -0.02932536
v 0.04454875 0.06916029 -0.02933823
v 0.04514148 0.06978786 -0.02832782
v 0.05427907 0.07067073 -0.02051482
v 0.04374619 0.07054309 -0.02872040
v 0.04603321 0.07072391 -0.02680254
v 0.05567698 0.06995805 -0.01984550
v 0.05632742 0.07061754 -0.01837172
v 0.05694376 0.06924006 -0.01917619
v 0.05767812 0.06786259 -0.01981976
v 0.06050280 0.06233672 -0.02255495
v 0.05968189 0.06569798 -0.01972322
v 0.06351632 0.06533632 -0.01514741
v 0.06368680 0.06137408 -0.01952372
v 0.06370778 0.05945944 -0.02171831
v 0.06370778 0.05726824 -0.02426043
v 0.06370778 0.07798891 0.03610044
v 0.04051761 0.07185674 -0.02964071
v 0.04012158 0.07206948 -0.02964071
v 0.03875514 0.07280342 -0.02964071
v 0.03691661 0.07518609 -0.02744612
v 0.03691661 0.07624446 -0.02592085
v 0.03798406 0.07501058 -0.02700205
v 0.03870793 0.07414899 -0.02775504
v 0.03983308 0.07281938 -0.02890704
v 0.06370778 0.07801550 0.03610044
v 0.06368680 0.08006843 0.03605539
v 0.05953239 0.08214794 0.03610687
v 0.04083234 0.09253487 0.03610687
v 0.03691661 0.09664071 0.03582370
v 0.05122097 0.08838117 0.03610687
v 0.04706656 0.09046067 0.03610044
v 0.04290954 0.09253487 0.03609400
v 0.03875514 0.09461438 0.03607469
v 0.04382749 0.06943685 -0.02964071
v 0.04320066 0.06997401 -0.02964071
v 0.05289427 0.07114407 -0.02104899
v 0.05345291 0.07188333 -0.01965243
v 0.05401155 0.07261728 -0.01813360
v 0.05494262 0.07122916 -0.01913114
v 0.04832023 0.07087815 -0.02488469
v 0.05060725 0.07101643 -0.02296684
v 0.04269448 0.07037290 -0.02964071
v 0.04235877 0.07105897 -0.02924813
v 0.05546192 0.07186206 -0.01756081
v 0.05685721 0.07111216 -0.01698803
v 0.05877442 0.07097920 -0.01469691
v 0.06069164 0.07083560 -0.01241222
v 0.06260885 0.07067604 -0.01012109
v 0.05759420 0.06984105 -0.01763161
v 0.05832856 0.06846357 -0.01827518
v 0.06216299 0.06810192 -0.01369937
v 0.06311504 0.06917093 -0.01121517
v 0.06370778 0.07000060 -0.00947752
v 0.06370778 0.06511295 -0.01515384
v 0.04069858 0.07175037 -0.02964071
v 0.04121788 0.07244177 -0.02837287
v 0.03691661 0.07651039 -0.02552827
v 0.03691661 0.07700500 -0.02479459
v 0.03691661 0.07773895 -0.02368764
v 0.03705299 0.07869627 -0.02213663
v 0.04350752 0.07256942 -0.02646145
v 0.03702676 0.08283934 -0.01588108
v 0.04024485 0.07926002 -0.01883509
v 0.04579454 0.07268110 -0.02454360
v 0.06370778 0.08008970 0.03604895
v 0.05537537 0.08630165 0.03610044
v 0.05745257 0.08422746 0.03610687
v 0.05749453 0.08634420 0.03587519
v 0.03691661 0.09753421 0.03449794
v 0.03875514 0.09608228 0.03578509
v 0.04021075 0.09582699 0.03568211
v 0.05329817 0.08838117 0.03600390
v 0.04914376 0.09046067 0.03596529
v 0.05117900 0.07177696 -0.02157028
v 0.05175338 0.07253219 -0.02017373
v 0.04906508 0.07140467 -0.02366834
v 0.05262675 0.07300021 -0.01879004
v 0.05214417 0.07480848 -0.01628010
v 0.05459642 0.07296830 -0.01674991
v 0.05598384 0.07249495 -0.01584247
v 0.04108412 0.07152168 -0.02964071
v 0.06226528 0.07253219 -0.00759828
v 0.06314127 0.07114939 -0.00873741
v 0.06370778 0.07087815 -0.00836413
v 0.06218922 0.07020803 -0.01121517
v 0.03691661 0.08066410 -0.01925985
v 0.03691661 0.08448274 -0.01347412
v 0.03691661 0.08591340 -0.01130527
v 0.04083234 0.08497204 -0.00972851
v 0.04250564 0.08350946 -0.01066169
v 0.04808418 0.07278747 -0.02262575
v 0.06370778 0.08193521 0.03573360
v 0.06351894 0.08203625 0.03574647
v 0.05682836 0.08766317 0.03572073
v 0.05524948 0.08836521 0.03579796
v 0.03691661 0.09759272 0.03241919
v 0.05019810 0.09150309 0.03554053
v 0.04048351 0.09595464 0.03449794
v 0.04290954 0.09408786 0.03580439
v 0.04450416 0.09379535 0.03570786
v 0.05447315 0.08948208 0.03559201
v 0.05329817 0.08968419 0.03572073
v 0.04706656 0.09211471 0.03581726
v 0.05036858 0.07289384 -0.02070789
v 0.04990698 0.07473402 -0.01827518
v 0.04389044 0.08315845 -0.01012753
v 0.05026105 0.07700500 -0.01441373
v 0.04784027 0.08093533 -0.00983148
v 0.05696212 0.07315976 -0.01329391
v 0.05843085 0.07275556 -0.01217409
v 0.06034806 0.07264919 -0.00988297
v 0.06370778 0.07307999 -0.00465714
v 0.06370778 0.07265451 -0.00546805
v 0.06366056 0.07177696 -0.00702550
v 0.06370778 0.07170783 -0.00707055
v 0.03691661 0.08698241 -0.00968346
v 0.03790275 0.08743448 -0.00824185
v 0.03928755 0.08708346 -0.00770769
v 0.06370778 0.08249364 0.03449794
v 0.06271638 0.08324354 0.03557914
v 0.05709063 0.08788655 0.03449794
v 0.05025842 0.09153500 0.03288256
v 0.04587322 0.09350815 0.03241919
v 0.03875514 0.09663008 0.03034044
v 0.03691661 0.09734275 0.02826170
v 0.05025318 0.09152968 0.03449794
v 0.05458330 0.08954059 0.03449794
v 0.05562190 0.08892365 0.03449794
v 0.04015830 0.08754085 -0.00632400
v 0.04202830 0.08534965 -0.00822255
v 0.04154572 0.08716324 -0.00566112
v 0.04213059 0.08751426 -0.00427743
v 0.04711640 0.08176501 -0.00913642
v 0.04909656 0.08157355 -0.00693540
v 0.04912016 0.08673776 0.00329100
v 0.05337685 0.08070664 -0.00306751
v 0.05181632 0.08497204 0.00332318
v 0.06037429 0.07682417 -0.00160660
v 0.06280293 0.07497867 -0.00206997
v 0.06370778 0.07393093 -0.00295167
v 0.06370778 0.07183015 -0.00687104
v 0.03691661 0.08758871 -0.00876315
v 0.03691661 0.08768445 -0.00861513
v 0.03865810 0.08783868 -0.00703193
v 0.06370778 0.08249364 0.03433704
v 0.06276622 0.08328077 0.03449794
v 0.05708014 0.08789187 0.03241919
v 0.05329817 0.09012029 0.03241919
v 0.04995681 0.09139672 0.02826170
v 0.03875514 0.09638011 0.02618295
v 0.03691661 0.09719915 0.02608642
v 0.05559830 0.08892897 0.03241919
v 0.05455970 0.08952995 0.03241919
v 0.03877350 0.08896620 -0.00495962
v 0.04084545 0.08791846 -0.00497249
v 0.04078513 0.08893428 -0.00290662
v 0.04285971 0.08779081 -0.00277147
v 0.04649743 0.08765254 0.00168207
v 0.04404780 0.08740788 -0.00199274
v 0.04841202 0.08754617 0.00396676
v 0.05223072 0.08524327 0.00441726
v 0.05847281 0.07901538 0.00024690
v 0.06370778 0.07464892 -0.00124620
v 0.05655035 0.08121190 0.00209395
v 0.06085687 0.07716987 -0.00022291
v 0.03691661 0.08866304 -0.00695470
v 0.06370778 0.08240322 0.03223899
v 0.06273737 0.08325949 0.03277316
v 0.05811874 0.08703560 0.03241919
v 0.05635627 0.08729620 0.02143337
v 0.05554847 0.08800355 0.02208982
v 0.05537537 0.08832798 0.02410421
v 0.05389615 0.08918957 0.02202546
v 0.05443119 0.08947145 0.03034044
v 0.05435775 0.08943422 0.02909835
v 0.05427382 0.08939166 0.02770823
v 0.05299655 0.08975864 0.02410421
v 0.05285755 0.08969482 0.02202546
v 0.04531720 0.09325818 0.02410421
v 0.04427860 0.09372620 0.02410421
v 0.04411599 0.09365175 0.02264329
v 0.03691661 0.09716192 0.02573245
v 0.05403515 0.08926935 0.02410421
v 0.03947901 0.08931189 -0.00360168
v 0.03722084 0.08926403 -0.00564181
v 0.04144606 0.08923743 -0.00131055
v 0.04704820 0.08898215 0.00536331
v 0.04714000 0.08801419 0.00329100
v 0.04912016 0.08783336 0.00551134
v 0.04979945 0.08708878 0.00489350
v 0.05028728 0.08742384 0.00627719
v 0.06370778 0.07481911 -0.00082144
v 0.06121356 0.07744643 0.00125731
v 0.03691661 0.08904597 -0.00625964
v 0.06181679 0.08396153 0.03221325
v 0.06370778 0.08176501 0.02635028
v 0.06356352 0.08186606 0.02618295
v 0.06099325 0.08353606 0.02202546
v 0.06315438 0.08152568 0.01994672
v 0.06189547 0.08256278 0.01994672
v 0.06085425 0.08341905 0.01994672
v 0.06071524 0.08330736 0.01852441
v 0.05844658 0.08522732 0.01913581
v 0.05514195 0.08798228 0.01994672
v 0.05362077 0.08901938 0.01994672
v 0.05257954 0.08956718 0.01994672
v 0.05122097 0.09042345 0.02202546
v 0.05122097 0.09015752 0.01994672
v 0.04823630 0.09155627 0.02066752
v 0.03947376 0.09551852 0.02202546
v 0.03843516 0.09595996 0.02202546
v 0.03691661 0.09695982 0.02409777
v 0.03809421 0.08953526 -0.00425169
v 0.03691661 0.09094998 -0.00107243
v 0.03691661 0.09142332 0.00050433
v 0.04006126 0.08951931 -0.00221156
v 0.03691661 0.08930658 -0.00575766
v 0.03691661 0.08947677 -0.00531359
v 0.04389569 0.08940230 0.00236426
v 0.04581290 0.08933317 0.00464251
v 0.04773012 0.08926403 0.00705592
v 0.04895755 0.08872154 0.00764157
v 0.05054955 0.08762594 0.00748067
v 0.06225216 0.07664866 0.00125731
v 0.06370778 0.07555306 0.00133454
v 0.06029298 0.07881859 0.00332318
v 0.05159077 0.08682818 0.00748067
v 0.06370778 0.08106829 0.01994672
v 0.06370778 0.08071728 0.01787440
v 0.06370778 0.08064814 0.01761054
v 0.06273474 0.08117467 0.01662587
v 0.05821054 0.08504649 0.01787440
v 0.05581861 0.08688668 0.01787440
v 0.05478001 0.08768445 0.01787440
v 0.05342406 0.08803015 0.01578279
v 0.05313556 0.08880664 0.01795163
v 0.05173764 0.08915234 0.01579566
v 0.05206024 0.08932785 0.01730806
v 0.05233563 0.08945549 0.01869818
v 0.05131014 0.08976928 0.01795163
v 0.03857679 0.09519410 0.01800956
v 0.04383799 0.09352942 0.02125961
v 0.04930637 0.08985969 0.01362038
v 0.04881068 0.08972141 0.01163817
v 0.04575782 0.09138608 0.01371691
v 0.03691661 0.09653966 0.02165219
v 0.03691661 0.08966823 -0.00480517
v 0.03691661 0.09026921 -0.00313187
v 0.03691661 0.09166797 0.00136028
v 0.03875514 0.09038622 -0.00082144
v 0.03691661 0.09222108 0.00332318
v 0.04506805 0.08981715 0.00536331
v 0.04634532 0.08953526 0.00602620
v 0.04704820 0.08968419 0.00764157
v 0.04813926 0.08943953 0.00844604
v 0.04941391 0.08898747 0.00955942
v 0.05098230 0.08795037 0.00955942
v 0.05448889 0.08746107 0.01646498
v 0.06174598 0.07769108 0.00329100
v 0.06370778 0.07557434 0.00139889
v 0.05294147 0.08579107 0.00748067
v 0.06248821 0.07890901 0.00890941
v 0.06370778 0.08018011 0.01586645
v 0.06353205 0.08032371 0.01587932
v 0.06370778 0.07909515 0.01244264
v 0.04984928 0.08925871 0.01163817
v 0.05010368 0.08938635 0.01286739
v 0.03691661 0.09592272 0.01814471
v 0.04471922 0.09182752 0.01371691
v 0.03714216 0.09541216 0.01579566
v 0.04706656 0.09009370 0.00955942
v 0.04167686 0.09142864 0.00669551
v 0.04092413 0.09129036 0.00522173
v 0.03691661 0.09447611 0.01138074
v 0.03753819 0.09351346 0.00874852
v 0.04498936 0.09043940 0.00748067
v 0.04359407 0.09137013 0.00906387
v 0.03991963 0.09363047 0.01246838
v 0.04403207 0.09153500 0.01045399
v 0.04019764 0.09374748 0.01371691
v 0.06370778 0.07670185 0.00492568
v 0.06355566 0.07830270 0.00958516
v 0.06370778 0.08013225 0.01571199
v 0.03691661 0.09550788 0.01579566
v 0.03691661 0.09454525 0.01164460
v 0.03876038 0.09388044 0.01172183
v 0.03945541 0.09345497 0.01108469
v 0.03691661 0.09501327 0.01344018
v 0.03691661 0.09508773 0.01375553
v 0.03691661 0.09546534 0.01557684
f 1 2 5
f 1 5 10
f 1 10 19
f 1 19 36
f 1 36 63
f 1 63 62
f 1 62 61
f 1 61 99
f 1 99 125
f 1 125 86
f 1 86 79
f 1 79 78
f 1 78 43
f 1 43 24
f 1 24 23
f 1 23 42
f 1 42 41
f 1 41 21
f 1 21 13
f 1 13 7
f 1 7 3
f 1 3 8
f 1 8 16
f 1 16 33
f 1 33 32
f 1 32 31
f 1 31 59
f 1 59 58
f 1 58 98
f 1 98 97
f 1 97 128
f 1 128 159
f 1 159 185
f 1 185 157
f 1 157 156
f 1 156 184
f 1 184 207
f 1 207 236
f 1 236 269
f 1 269 304
f 1 304 325
f 1 325 309
f 1 309 327
f 1 327 307
f 1 307 274
f 1 274 273
f 1 273 272
f 1 272 240
f 1 240 211
f 1 211 189
f 1 189 163
f 1 163 136
f 1 136 109
f 1 109 69
f 1 69 60
f 1 60 34
f 1 34 18
f 1 18 9
f 1 9 4
f 1 4 2
f 2 4 6
f 2 6 5
f 3 7 8
f 4 9 6
f 5 6 11
f 5 11 10
f 6 9 12
f 6 12 20
f 6 20 40
f 6 40 73
f 6 73 113
f 6 113 140
f 6 140 169
f 6 169 195
f 6 195 226
f 6 226 256
f 6 256 290
f 6 290 312
f 6 312 328
f 6 328 334
f 6 334 333
f 6 333 332
f 6 332 329
f 6 329 318
f 6 318 295
f 6 295 293
f 6 293 259
f 6 259 258
f 6 258 292
f 6 292 291
f 6 291 262
f 6 262 261
f 6 261 238
f 6 238 210
f 6 210 187
f 6 187 186
f 6 186 160
f 6 160 132
f 6 132 131
f 6 131 130
f 6 130 103
f 6 103 102
f 6 102 101
f 6 101 65
f 6 65 64
f 6 64 37
f 6 37 19
f 6 19 10
f 6 10 11
f 7 13 14
f 7 14 8
f 8 14 15
f 8 15 16
f 9 17 12
f 9 18 17
f 12 18 20
f 12 17 18
f 13 21 14
f 14 21 22
f 14 22 23
f 14 23 24
f 14 24 25
f 14 25 26
f 14 26 27
f 14 27 28
f 14 28 29
f 14 29 15
f 15 30 31
f 15 31 32
f 15 32 33
f 15 33 16
f 15 29 30
f 18 34 20
f 19 35 36
f 19 37 35
f 20 34 38
f 20 38 39
f 20 39 40
f 21 41 22
f 22 41 42
f 22 42 23
f 24 43 44
f 24 44 25
f 25 44 45
f 25 45 46
f 25 46 26
f 26 47 27
f 26 46 48
f 26 48 49
f 26 49 47
f 27 47 28
f 28 47 29
f 29 47 50
f 29 50 51
f 29 51 52
f 29 52 53
f 29 53 54
f 29 54 30
f 30 54 55
f 30 55 56
f 30 56 57
f 30 57 58
f 30 58 59
f 30 59 31
f 34 60 38
f 35 61 62
f 35 62 63
f 35 63 36
f 35 37 64
f 35 64 65
f 35 65 66
f 35 66 67
f 35 67 68
f 35 68 61
f 38 60 69
f 38 69 70
f 38 70 71
f 38 71 111
f 38 111 74
f 38 74 72
f 38 72 39
f 39 72 40
f 40 72 74
f 40 74 75
f 40 75 76
f 40 76 77
f 40 77 73
f 43 78 45
f 43 45 44
f 45 78 79
f 45 79 48
f 45 48 46
f 47 80 81
f 47 81 82
f 47 82 83
f 47 83 51
f 47 51 50
f 47 49 84
f 47 84 85
f 47 85 80
f 48 79 86
f 48 86 87
f 48 87 49
f 49 87 84
f 51 88 89
f 51 89 90
f 51 90 91
f 51 91 92
f 51 92 93
f 51 93 52
f 51 83 88
f 52 93 94
f 52 94 53
f 53 55 54
f 53 94 55
f 55 94 95
f 55 95 56
f 56 95 96
f 56 96 97
f 56 97 98
f 56 98 57
f 57 98 58
f 61 68 100
f 61 100 99
f 65 101 66
f 66 101 102
f 66 102 103
f 66 103 67
f 67 103 104
f 67 104 68
f 68 105 100
f 68 104 106
f 68 106 107
f 68 107 108
f 68 108 105
f 69 109 70
f 70 110 111
f 70 111 71
f 70 109 112
f 70 112 110
f 73 77 114
f 73 114 115
f 73 115 113
f 74 111 110
f 74 110 116
f 74 116 75
f 75 116 76
f 76 116 77
f 77 116 117
f 77 117 114
f 80 118 119
f 80 119 81
f 80 85 120
f 80 120 118
f 81 119 121
f 81 121 82
f 82 88 83
f 82 121 122
f 82 122 123
f 82 123 124
f 82 124 88
f 84 87 85
f 85 87 120
f 86 125 87
f 87 125 105
f 87 105 120
f 88 124 89
f 89 124 126
f 89 126 127
f 89 127 90
f 90 127 91
f 91 127 92
f 92 127 128
f 92 128 97
f 92 97 129
f 92 129 93
f 93 129 97
f 93 97 96
f 93 96 95
f 93 95 94
f 99 100 125
f 100 105 125
f 103 130 104
f 104 130 106
f 105 108 119
f 105 119 120
f 106 131 132
f 106 132 133
f 106 133 134
f 106 134 107
f 106 130 131
f 107 135 108
f 107 134 135
f 108 135 119
f 109 136 137
f 109 137 112
f 110 112 116
f 112 137 138
f 112 138 139
f 112 139 116
f 113 115 141
f 113 141 142
f 113 142 140
f 114 117 116
f 114 116 143
f 114 143 144
f 114 144 115
f 115 145 141
f 115 144 145
f 116 139 146
f 116 146 147
f 116 147 143
f 118 120 119
f 119 135 148
f 119 148 121
f 121 148 149
f 121 149 150
f 121 150 151
f 121 151 122
f 122 151 123
f 123 151 152
f 123 152 153
f 123 153 154
f 123 154 124
f 124 154 155
f 124 155 126
f 126 156 157
f 126 157 158
f 126 158 127
f 126 155 156
f 127 158 159
f 127 159 128
f 132 160 161
f 132 161 133
f 133 150 134
f 133 161 162
f 133 162 150
f 134 150 149
f 134 149 135
f 135 149 148
f 136 138 137
f 136 163 164
f 136 164 138
f 138 164 165
f 138 165 145
f 138 145 139
f 139 145 146
f 140 166 167
f 140 167 168
f 140 168 194
f 140 194 169
f 140 142 170
f 140 170 166
f 141 145 171
f 141 171 170
f 141 170 142
f 143 147 144
f 144 147 146
f 144 146 145
f 145 165 172
f 145 172 171
f 150 162 173
f 150 173 174
f 150 174 175
f 150 175 151
f 151 175 176
f 151 176 177
f 151 177 152
f 152 177 178
f 152 178 153
f 153 178 179
f 153 179 180
f 153 180 156
f 153 156 154
f 154 156 155
f 156 180 179
f 156 179 181
f 156 181 182
f 156 182 183
f 156 183 184
f 157 185 158
f 158 185 159
f 160 186 161
f 161 186 187
f 161 187 188
f 161 188 162
f 162 188 173
f 163 189 190
f 163 190 164
f 164 190 165
f 165 190 191
f 165 191 172
f 166 192 193
f 166 193 167
f 166 170 171
f 166 171 192
f 167 193 168
f 168 193 194
f 169 194 195
f 171 172 196
f 171 196 197
f 171 197 192
f 172 191 196
f 173 175 174
f 173 188 198
f 173 198 199
f 173 199 175
f 175 199 176
f 176 199 200
f 176 200 201
f 176 201 202
f 176 202 203
f 176 203 177
f 177 203 178
f 178 203 179
f 179 202 204
f 179 204 181
f 179 203 202
f 181 204 205
f 181 205 206
f 181 206 182
f 182 206 183
f 183 207 184
f 183 206 208
f 183 208 209
f 183 209 207
f 187 210 188
f 188 210 198
f 189 211 212
f 189 212 190
f 190 212 191
f 191 212 213
f 191 213 214
f 191 214 215
f 191 215 216
f 191 216 217
f 191 217 196
f 192 197 218
f 192 218 219
f 192 219 220
f 192 220 221
f 192 221 193
f 193 221 194
f 194 221 222
f 194 222 223
f 194 223 224
f 194 224 195
f 195 224 225
f 195 225 226
f 196 219 218
f 196 218 197
f 196 217 227
f 196 227 220
f 196 220 219
f 198 228 199
f 198 210 229
f 198 229 228
f 199 228 200
f 200 228 230
f 200 230 231
f 200 231 232
f 200 232 201
f 201 232 202
f 202 232 204
f 204 233 234
f 204 234 205
f 204 232 233
f 205 234 235
f 205 235 208
f 205 208 206
f 207 209 236
f 208 235 209
f 209 235 237
f 209 237 236
f 210 238 229
f 211 239 213
f 211 213 212
f 211 240 241
f 211 241 239
f 213 239 241
f 213 241 242
f 213 242 214
f 214 242 243
f 214 243 244
f 214 244 245
f 214 245 246
f 214 246 247
f 214 247 248
f 214 248 215
f 215 248 217
f 215 217 216
f 217 248 249
f 217 249 250
f 217 250 222
f 217 222 227
f 220 227 222
f 220 222 221
f 222 251 225
f 222 225 224
f 222 224 223
f 222 250 251
f 225 251 250
f 225 250 252
f 225 252 253
f 225 253 254
f 225 254 255
f 225 255 256
f 225 256 226
f 228 229 257
f 228 257 258
f 228 258 259
f 228 259 260
f 228 260 230
f 229 238 261
f 229 261 262
f 229 262 257
f 230 260 263
f 230 263 264
f 230 264 231
f 231 264 265
f 231 265 233
f 231 233 232
f 233 265 235
f 233 235 234
f 235 265 266
f 235 266 267
f 235 267 237
f 236 237 268
f 236 268 269
f 237 270 268
f 237 267 271
f 237 271 270
f 240 272 241
f 241 272 243
f 241 243 242
f 243 272 246
f 243 246 244
f 244 246 245
f 246 272 273
f 246 273 274
f 246 274 275
f 246 275 276
f 246 276 277
f 246 277 247
f 247 277 278
f 247 278 248
f 248 278 249
f 249 278 279
f 249 279 280
f 249 280 281
f 249 281 282
f 249 282 283
f 249 283 250
f 250 283 252
f 252 283 284
f 252 284 253
f 253 285 286
f 253 286 254
f 253 284 287
f 253 287 288
f 253 288 289
f 253 289 285
f 254 286 255
f 255 286 285
f 255 285 290
f 255 290 256
f 257 291 292
f 257 292 258
f 257 262 291
f 259 293 294
f 259 294 260
f 260 294 295
f 260 295 296
f 260 296 263
f 263 296 297
f 263 297 264
f 264 297 265
f 265 297 298
f 265 298 299
f 265 299 266
f 266 299 300
f 266 300 267
f 267 300 301
f 267 301 278
f 267 278 302
f 267 302 271
f 268 270 303
f 268 303 304
f 268 304 269
f 270 271 305
f 270 305 302
f 270 302 306
f 270 306 303
f 271 302 305
f 274 307 275
f 275 307 308
f 275 308 309
f 275 309 306
f 275 306 302
f 275 302 277
f 275 277 276
f 277 302 278
f 278 301 279
f 279 281 280
f 279 301 281
f 281 301 300
f 281 300 310
f 281 310 282
f 282 310 311
f 282 311 284
f 282 284 283
f 284 311 288
f 284 288 287
f 285 312 290
f 285 289 313
f 285 313 314
f 285 314 312
f 288 315 313
f 288 313 289
f 288 311 299
f 288 299 315
f 293 295 294
f 295 316 317
f 295 317 296
f 295 318 319
f 295 319 316
f 296 317 320
f 296 320 297
f 297 320 298
f 298 320 321
f 298 321 322
f 298 322 323
f 298 323 299
f 299 323 324
f 299 324 315
f 299 311 310
f 299 310 300
f 303 325 304
f 303 306 326
f 303 326 325
f 306 309 326
f 307 327 308
f 308 327 309
f 309 325 326
f 312 314 328
f 313 315 324
f 313 324 314
f 314 324 328
f 316 320 317
f 316 319 320
f 318 329 330
f 318 330 331
f 318 331 320
f 318 320 319
f 320 331 322
f 320 322 321
f 322 331 330
f 322 330 332
f 322 332 333
f 322 333 334
f 322 334 328
f 322 328 323
f 323 328 324
f 329 332 330

