# https://github.com/mikedh/trimesh
v -0.06882197 0.04345208 -0.02964071
v -0.06828115 0.04582935 -0.02890060
v -0.06727387 0.04676313 -0.02964071
v -0.06303517 0.04345208 -0.02964071
v -0.07277673 0.04345208 -0.02449211
v -0.06988333 0.04682837 -0.02620402
v -0.06874085 0.04664080 -0.02780652
v -0.07424033 0.04731361 -0.02023165
v -0.06795666 0.04721167 -0.02847584
v -0.06690543 0.04747264 -0.02964071
v -0.07232380 0.04766021 -0.02251634
v -0.06188255 0.04474877 -0.02964071
v -0.08701050 0.04345208 0.03324297
v -0.07691403 0.04345208 -0.01909896
v -0.07619068 0.04682837 -0.01798557
v -0.07812074 0.04697517 -0.01537910
v -0.07860072 0.04776215 -0.01426571
v -0.06849072 0.04825963 -0.02709215
v -0.06657080 0.04850429 -0.02938328
v -0.07040726 0.04798642 -0.02480747
v -0.06645588 0.04832487 -0.02964071
v -0.05985784 0.04907108 -0.02964071
v -0.05985784 0.04799866 -0.02963427
v -0.05985784 0.07697033 0.03549548
v -0.08718965 0.04345208 0.03371278
v -0.08019276 0.04345208 -0.01481919
v -0.08059162 0.04345208 -0.01429789
v -0.07892521 0.04637983 -0.01469047
v -0.07971955 0.04689769 -0.01333253
v -0.08051726 0.04741963 -0.01186518
v -0.07905366 0.04890389 -0.01277905
v -0.07668756 0.04806798 -0.01655684
v -0.06806144 0.04964195 -0.02653868
v -0.06731781 0.04907515 -0.02796098
v -0.07626166 0.04945437 -0.01600336
v -0.07434512 0.04971942 -0.01828805
v -0.06577309 0.04933612 -0.02964071
v -0.06614490 0.04988661 -0.02882337
v -0.05985784 0.05508153 -0.02964071
v -0.05985784 0.07703965 0.03556627
v -0.05992883 0.07693363 0.03555340
v -0.08792653 0.04345208 0.03512864
v -0.08752090 0.04345208 0.03449794
v -0.08070316 0.04345208 -0.01414343
v -0.08063218 0.04350917 -0.01420779
v -0.08083161 0.04603323 -0.01239935
v -0.08034487 0.04474877 -0.01382808
v -0.07870550 0.05000894 -0.01232855
v -0.08112568 0.04676721 -0.01118942
v -0.08086879 0.04815769 -0.01048149
v -0.08008460 0.04887127 -0.01118942
v -0.07242858 0.04995593 -0.02057918
v -0.06459004 0.05079592 -0.02964071
v -0.06667896 0.05049825 -0.02743969
v -0.06414386 0.05206407 -0.02891347
v -0.06448187 0.05092641 -0.02964071
v -0.06007417 0.05490211 -0.02964071
v -0.05985784 0.05608871 -0.02875901
v -0.05985784 0.07750042 0.03570786
v -0.08843017 0.04345208 0.03578509
v -0.08137243 0.04345208 -0.01320381
v -0.08238310 0.04345208 -0.01143398
v -0.07904352 0.05045340 -0.01121517
v -0.07858382 0.05194174 -0.01003099
v -0.07661996 0.05415182 -0.01023693
v -0.07052894 0.06262517 -0.00834483
v -0.07261787 0.05847821 -0.01043644
v -0.07479130 0.05235358 -0.01471621
v -0.07487581 0.05037185 -0.01690437
v -0.08050374 0.04954408 -0.00963197
v -0.08275153 0.04345208 -0.01059090
v -0.08215324 0.04664080 -0.00894979
v -0.08254196 0.04720759 -0.00746313
v -0.08282927 0.04791711 -0.00607301
v -0.08110878 0.04887127 -0.00902058
v -0.06642208 0.05644346 -0.02087522
v -0.06455962 0.05253300 -0.02783870
v -0.05985784 0.06355080 -0.02117770
v -0.06202451 0.05409474 -0.02887485
v -0.06306897 0.05226388 -0.02964071
v -0.06362332 0.05174194 -0.02964071
v -0.05996939 0.06035392 -0.02473667
v -0.05985784 0.06040693 -0.02478816
v -0.06047979 0.05455143 -0.02964071
v -0.06063866 0.05469007 -0.02940259
v -0.05993220 0.05824170 -0.02678324
v -0.05985784 0.05816015 -0.02691195
v -0.05985784 0.07807129 0.03581726
v -0.05985784 0.07912740 0.03601034
v -0.08935970 0.04345208 0.03597172
v -0.07968912 0.05098349 -0.00913642
v -0.07643405 0.05599492 -0.00775917
v -0.07451751 0.05828248 -0.00813245
v -0.07043092 0.06460283 -0.00615024
v -0.06844002 0.06676398 -0.00625321
v -0.06991376 0.06400749 -0.00754036
v -0.06452244 0.06910863 -0.00864087
v -0.06878479 0.05884111 -0.01501226
v -0.08507368 0.04825147 -0.00024866
v -0.08703417 0.04801904 0.00418557
v -0.08470863 0.04963787 0.00063304
v -0.08274815 0.04984991 -0.00380762
v -0.08079104 0.05002525 -0.00824829
v -0.08286645 0.04345208 -0.01032060
v -0.08802793 0.04682837 0.00540193
v -0.08899465 0.04775400 0.00863267
v -0.06037501 0.06081062 -0.02368121
v -0.06080766 0.06947562 -0.01305579
v -0.05985784 0.06956533 -0.01418848
v -0.05985784 0.06240090 -0.02250990
v -0.05988150 0.06233566 -0.02255495
v -0.06083470 0.05424153 -0.02964071
v -0.06156143 0.05360134 -0.02964071
v -0.05985784 0.05835180 -0.02673819
v -0.05985784 0.08006934 0.03606826
v -0.09007629 0.04345208 0.03608757
v -0.08103780 0.05035146 -0.00705768
v -0.08648658 0.05099573 0.00728117
v -0.08173749 0.05510192 0.00339398
v -0.07685318 0.06277605 0.00576877
v -0.07188438 0.06794242 0.00332318
v -0.07004896 0.07034007 0.00332318
v -0.06804454 0.07043386 -0.00133630
v -0.07235760 0.06233566 -0.00587993
v -0.06828791 0.06867232 -0.00398139
v -0.06633757 0.07088241 -0.00416159
v -0.06582041 0.07031153 -0.00554528
v -0.06390387 0.07049095 -0.00783640
v -0.06156819 0.07020551 -0.01121517
v -0.08927520 0.04834526 0.01001636
v -0.08869044 0.04898545 0.00941783
v -0.08673671 0.04953185 0.00540193
v -0.08695304 0.04993554 0.00645739
v -0.08905549 0.04345208 0.00461677
v -0.08800089 0.04474877 0.00332318
v -0.09089091 0.04345208 0.00907030
v -0.08962673 0.04696701 0.00941783
v -0.08926168 0.04426761 0.00590392
v -0.08960645 0.04345208 0.00594897
v -0.09023854 0.04345208 0.00748067
v -0.05985784 0.07006280 -0.01360927
v -0.05985784 0.08120292 0.03610687
v -0.09007629 0.04474877 0.03610687
v -0.09137765 0.04345208 0.03610687
v -0.08724035 0.05031068 0.00784108
v -0.08749387 0.05099573 0.00971388
v -0.08671305 0.05169708 0.00912179
v -0.08508383 0.05436386 0.01011290
v -0.07910436 0.06300439 0.01163817
v -0.07665376 0.06666612 0.01248769
v -0.07309447 0.06975697 0.00959803
v -0.07224943 0.07049910 0.00892872
v -0.07028896 0.07065405 0.00448805
v -0.06665530 0.07119638 -0.00290018
v -0.06769639 0.07000979 -0.00290018
v -0.06851438 0.06896999 -0.00290018
v -0.06833185 0.07079677 0.00004739
v -0.06518832 0.07234220 -0.00309969
v -0.06409316 0.07278667 -0.00392347
v -0.06513424 0.07140842 -0.00490170
v -0.06443793 0.07102104 -0.00644628
v -0.06007079 0.07083755 -0.01241222
v -0.06198733 0.07067444 -0.01012109
v -0.09120188 0.04393732 0.01037032
v -0.09031966 0.04682837 0.01163817
v -0.08939688 0.04898545 0.01181193
v -0.08891352 0.04972758 0.01123271
v -0.09128638 0.04345208 0.01010002
v -0.09062049 0.04467946 0.00963021
v -0.05985784 0.07060104 -0.01297213
v -0.06930195 0.07383462 0.03610687
v -0.05985784 0.08214894 0.03605539
v -0.06306897 0.08006934 0.03605539
v -0.06514438 0.07799382 0.03608757
v -0.06722317 0.07591422 0.03610044
v -0.09215508 0.04345208 0.03608113
v -0.09007629 0.04682837 0.03610687
v -0.08699698 0.05207223 0.01050548
v -0.07449385 0.07071930 0.01476594
v -0.06590829 0.07257871 -0.00119471
v -0.06857860 0.07105367 0.00125731
v -0.07253675 0.07084978 0.01031240
v -0.07057626 0.07097619 0.00587174
v -0.06452244 0.07311695 -0.00253335
v -0.06164594 0.07253385 -0.00759828
v -0.06368754 0.07249715 -0.00497893
v -0.06218338 0.07498044 -0.00206997
v -0.05985784 0.07606917 -0.00297098
v -0.05985784 0.07341870 -0.00820324
v -0.05985784 0.07273365 -0.00954831
v -0.06252140 0.07114745 -0.00873741
v -0.05985784 0.07126570 -0.01201320
v -0.05985784 0.07092725 -0.01254737
v -0.09160749 0.04345208 0.01163817
v -0.09131342 0.04423499 0.01163817
v -0.09091794 0.04527479 0.01163817
v -0.09071176 0.04663264 0.01388424
v -0.09080978 0.04704449 0.01579566
v -0.09094837 0.04741148 0.01787440
v -0.09104977 0.04768468 0.01942542
v -0.08971800 0.04890389 0.01371691
v -0.08904873 0.04996000 0.01261640
v -0.08828144 0.05078369 0.01181193
v -0.08291715 0.05840888 0.01239115
v -0.07138074 0.07175910 0.03610687
v -0.07553493 0.06967950 0.03604252
v -0.05985784 0.08343747 0.03592667
v -0.06099019 0.08214894 0.03599746
v -0.06505649 0.08002041 0.03582370
v -0.06720965 0.07799382 0.03586232
v -0.07345614 0.07175910 0.03601677
v -0.09007629 0.04890389 0.03607469
v -0.09215508 0.04474877 0.03604895
v -0.09323334 0.04345208 0.03590737
v -0.08800089 0.05098349 0.03610687
v -0.08479651 0.05605608 0.01332433
v -0.08304222 0.05858830 0.01371691
v -0.07635968 0.06834611 0.01579566
v -0.07521720 0.06988746 0.01558972
v -0.07459863 0.07084571 0.01614963
v -0.07366909 0.07202414 0.01787440
v -0.07350347 0.07179987 0.01557684
v -0.07235760 0.07274997 0.01501050
v -0.07211085 0.07255424 0.01371691
v -0.07323982 0.07151444 0.01371691
v -0.07281054 0.07113114 0.01163817
v -0.06518832 0.07331676 -0.00062837
v -0.06059133 0.07744741 0.00125731
v -0.06355233 0.07447888 -0.00082144
v -0.07091090 0.07129832 0.00748067
v -0.06978193 0.07233812 0.00748067
v -0.06788229 0.07249307 0.00332318
v -0.07011319 0.07261948 0.00907030
v -0.06815271 0.07271327 0.00462964
v -0.06023642 0.07717013 -0.00022291
v -0.05985784 0.07258278 -0.00983148
v -0.05985784 0.07170609 -0.01128596
v -0.05985784 0.07732916 -0.00042242
v -0.05985784 0.07689693 -0.00131055
v -0.05985784 0.07678276 -0.00154224
v -0.09332122 0.04345208 0.02465768
v -0.09285815 0.04669381 0.03034044
v -0.09114104 0.04792118 0.02080911
v -0.09294265 0.04719128 0.03241919
v -0.09122216 0.04809652 0.02202546
v -0.09135737 0.04838603 0.02410421
v -0.09084696 0.04942583 0.02410421
v -0.08912309 0.05006194 0.01371691
v -0.08838284 0.05110175 0.01371691
v -0.09098217 0.04969496 0.02618295
v -0.09107343 0.04986622 0.02755377
v -0.09116470 0.05000894 0.02894389
v -0.07553493 0.06760398 0.03610687
v -0.07968912 0.06549583 0.03585588
v -0.08592210 0.05513862 0.03603608
v -0.07968912 0.06344885 0.03607469
v -0.07761034 0.06552437 0.03610687
v -0.07538958 0.07164085 0.03575291
v -0.07670108 0.07087017 0.03563706
v -0.07709655 0.06967950 0.03575291
v -0.05985784 0.08406543 0.03580439
v -0.06099019 0.08365359 0.03571429
v -0.06289997 0.08203884 0.03574647
v -0.06430610 0.08127224 0.03565637
v -0.06650996 0.07929051 0.03570786
v -0.08384331 0.05721821 0.03610044
v -0.09007291 0.05095087 0.03584945
v -0.09161425 0.04890389 0.03579152
v -0.09351389 0.04474877 0.03576578
v -0.09374374 0.04345208 0.03579796
v -0.08543198 0.05527317 0.01389711
v -0.07710332 0.06730631 0.01579566
v -0.07568365 0.06967950 0.01787440
v -0.07472032 0.07098434 0.01787440
v -0.07617040 0.07015251 0.02410421
v -0.07653207 0.07066221 0.02961964
v -0.07263139 0.07297016 0.01787440
v -0.07251308 0.07287637 0.01639418
v -0.07485552 0.07113522 0.01994672
v -0.07380768 0.07217094 0.01994672
v -0.07107315 0.07336161 0.01371691
v -0.07028896 0.07483364 0.01722439
v -0.06009445 0.08330699 0.01852441
v -0.05985784 0.08344563 0.01836996
v -0.06537085 0.07840566 0.01579566
v -0.07064387 0.07303132 0.01163817
v -0.07040050 0.07284375 0.01046042
v -0.07168157 0.07216686 0.01163817
v -0.06684459 0.07330452 0.00332318
v -0.06296081 0.07628120 0.00329100
v -0.05985784 0.07867479 0.00332318
v -0.05985784 0.07794896 0.00117364
v -0.09434203 0.04345208 0.03241919
v -0.09333137 0.04615556 0.03241919
v -0.09339221 0.04633906 0.03449794
v -0.09292913 0.04737885 0.03449794
v -0.09217874 0.04890389 0.03241919
v -0.09125596 0.05013942 0.03034044
v -0.08345460 0.05916733 0.01994672
v -0.08002713 0.06324498 0.01599517
v -0.09051571 0.05117922 0.03034044
v -0.08910281 0.05211300 0.02465768
v -0.08298814 0.06059042 0.02410421
v -0.08588154 0.05711219 0.03581726
v -0.08093301 0.06478633 0.03568855
v -0.07460201 0.07288453 0.03560489
v -0.08283941 0.06246207 0.03556627
v -0.08708149 0.05634968 0.03563063
v -0.07571408 0.07199560 0.03449794
v -0.07677544 0.07095580 0.03449794
v -0.05985784 0.08508484 0.03453655
v -0.06209549 0.08324175 0.03557914
v -0.09131680 0.05023728 0.03568211
v -0.09332122 0.04615556 0.03564994
v -0.09423387 0.04345208 0.03497418
v -0.07662333 0.07078046 0.03100333
v -0.07671798 0.07089056 0.03241919
v -0.08265688 0.06220517 0.03034044
v -0.08284279 0.06246614 0.03317217
v -0.07759682 0.06967950 0.03241919
v -0.07394288 0.07231365 0.02202546
v -0.07408147 0.07244414 0.02410421
v -0.07421668 0.07256647 0.02618295
v -0.07290518 0.07319850 0.02202546
v -0.07150919 0.07412413 0.01994672
v -0.07499411 0.07127386 0.02202546
v -0.06972109 0.07440141 0.01371691
v -0.06433315 0.07920487 0.01579566
v -0.06824735 0.07694179 0.02111159
v -0.06141270 0.08267903 0.02202546
v -0.06023642 0.08342116 0.01994672
v -0.05985784 0.08372291 0.01992741
v -0.05985784 0.08311534 0.01728875
v -0.06211239 0.08117438 0.01662587
v -0.06937293 0.07338608 0.00968170
v -0.05985784 0.08265049 0.01580853
v -0.05985784 0.08000002 0.00748067
v -0.05985784 0.07896022 0.00421775
v -0.06090569 0.08048934 0.01154807
v -0.09436231 0.04345208 0.03319792
v -0.09438597 0.04345208 0.03449794
v -0.09221254 0.04890389 0.03449794
v -0.09143849 0.05040447 0.03449794
v -0.09139117 0.05033107 0.03241919
v -0.09065092 0.05137087 0.03241919
v -0.08796708 0.05513862 0.03241919
v -0.08531368 0.05886150 0.03241919
v -0.07467637 0.07294569 0.03449794
v -0.08285969 0.06248653 0.03449794
v -0.08715247 0.05644754 0.03449794
v -0.07462567 0.07290492 0.03241919
v -0.07566675 0.07193036 0.03241919
v -0.05985784 0.08510523 0.03449794
v -0.06214619 0.08328252 0.03449794
v -0.07444652 0.07275812 0.02967756
v -0.05985784 0.08428562 0.02500521
v -0.05985784 0.08418776 0.02410421
v -0.05985784 0.08408175 0.02313241
v -0.05985784 0.08395941 0.02202546
v -0.06211916 0.08326213 0.03277316
v -0.07345614 0.07387132 0.03241919
v -0.07453779 0.07283152 0.03106125
v -0.05985784 0.08508892 0.03240632
f 1 2 3
f 1 3 10
f 1 10 21
f 1 21 37
f 1 37 53
f 1 53 56
f 1 56 81
f 1 81 80
f 1 80 113
f 1 113 112
f 1 112 84
f 1 84 57
f 1 57 39
f 1 39 22
f 1 22 12
f 1 12 4
f 1 4 13
f 1 13 25
f 1 25 43
f 1 43 42
f 1 42 60
f 1 60 90
f 1 90 116
f 1 116 144
f 1 144 176
f 1 176 214
f 1 214 270
f 1 270 315
f 1 315 341
f 1 341 340
f 1 340 293
f 1 293 241
f 1 241 194
f 1 194 168
f 1 168 136
f 1 136 140
f 1 140 139
f 1 139 134
f 1 134 104
f 1 104 71
f 1 71 62
f 1 62 61
f 1 61 44
f 1 44 27
f 1 27 26
f 1 26 14
f 1 14 5
f 1 5 2
f 2 6 7
f 2 7 3
f 2 5 8
f 2 8 6
f 3 9 10
f 3 7 11
f 3 11 9
f 4 12 13
f 5 14 15
f 5 15 8
f 6 8 11
f 6 11 7
f 8 15 16
f 8 16 17
f 8 17 11
f 9 18 19
f 9 19 10
f 9 11 20
f 9 20 18
f 10 19 21
f 11 17 20
f 12 22 23
f 12 23 24
f 12 24 25
f 12 25 13
f 14 26 16
f 14 16 15
f 16 26 27
f 16 27 28
f 16 28 29
f 16 29 17
f 17 29 30
f 17 30 31
f 17 31 32
f 17 32 20
f 18 33 34
f 18 34 19
f 18 20 32
f 18 32 35
f 18 35 36
f 18 36 33
f 19 37 21
f 19 34 38
f 19 38 37
f 22 39 58
f 22 58 87
f 22 87 114
f 22 114 83
f 22 83 110
f 22 110 78
f 22 78 109
f 22 109 141
f 22 141 170
f 22 170 193
f 22 193 192
f 22 192 237
f 22 237 236
f 22 236 190
f 22 190 189
f 22 189 188
f 22 188 240
f 22 240 239
f 22 239 238
f 22 238 292
f 22 292 291
f 22 291 338
f 22 338 337
f 22 337 336
f 22 336 333
f 22 333 284
f 22 284 332
f 22 332 359
f 22 359 358
f 22 358 357
f 22 357 356
f 22 356 363
f 22 363 353
f 22 353 311
f 22 311 261
f 22 261 207
f 22 207 172
f 22 172 142
f 22 142 115
f 22 115 89
f 22 89 88
f 22 88 59
f 22 59 40
f 22 40 24
f 22 24 23
f 24 40 41
f 24 41 42
f 24 42 43
f 24 43 25
f 27 44 45
f 27 45 46
f 27 46 47
f 27 47 28
f 28 47 29
f 29 46 30
f 29 47 46
f 30 48 31
f 30 46 49
f 30 49 50
f 30 50 51
f 30 51 48
f 31 48 35
f 31 35 32
f 33 38 34
f 33 36 38
f 35 48 36
f 36 48 52
f 36 52 38
f 37 38 53
f 38 52 54
f 38 54 55
f 38 55 56
f 38 56 53
f 39 57 58
f 40 59 60
f 40 60 41
f 41 60 42
f 44 61 46
f 44 46 45
f 46 62 49
f 46 61 62
f 48 51 63
f 48 63 64
f 48 64 65
f 48 65 66
f 48 66 67
f 48 67 68
f 48 68 69
f 48 69 52
f 49 62 50
f 50 70 51
f 50 62 71
f 50 71 72
f 50 72 73
f 50 73 74
f 50 74 75
f 50 75 70
f 51 70 63
f 52 76 54
f 52 69 68
f 52 68 98
f 52 98 76
f 54 77 55
f 54 76 78
f 54 78 77
f 55 79 80
f 55 80 81
f 55 81 56
f 55 77 82
f 55 82 83
f 55 83 79
f 57 84 85
f 57 85 58
f 58 85 79
f 58 79 86
f 58 86 87
f 59 88 60
f 60 88 89
f 60 89 90
f 63 70 64
f 64 70 91
f 64 91 92
f 64 92 93
f 64 93 65
f 65 93 94
f 65 94 95
f 65 95 96
f 65 96 66
f 66 96 97
f 66 97 78
f 66 78 98
f 66 98 68
f 66 68 67
f 70 75 99
f 70 99 100
f 70 100 101
f 70 101 102
f 70 102 103
f 70 103 91
f 71 104 72
f 72 104 73
f 73 104 105
f 73 105 106
f 73 106 74
f 74 100 99
f 74 99 75
f 74 106 100
f 76 98 78
f 77 78 107
f 77 107 82
f 78 108 109
f 78 110 111
f 78 111 107
f 78 97 108
f 79 85 84
f 79 84 112
f 79 112 113
f 79 113 80
f 79 83 86
f 82 107 111
f 82 111 110
f 82 110 83
f 83 114 86
f 86 114 87
f 89 115 116
f 89 116 90
f 91 103 117
f 91 117 92
f 92 117 118
f 92 118 119
f 92 119 120
f 92 120 121
f 92 121 122
f 92 122 123
f 92 123 124
f 92 124 93
f 93 124 125
f 93 125 94
f 94 125 126
f 94 126 127
f 94 127 95
f 95 127 96
f 96 127 97
f 97 127 128
f 97 128 129
f 97 129 108
f 100 106 130
f 100 130 131
f 100 131 101
f 101 131 132
f 101 132 133
f 101 133 102
f 102 133 103
f 103 133 117
f 104 134 135
f 104 135 105
f 105 135 106
f 106 136 137
f 106 137 130
f 106 135 138
f 106 138 139
f 106 139 140
f 106 140 136
f 108 129 141
f 108 141 109
f 115 142 116
f 116 142 143
f 116 143 144
f 117 133 118
f 118 133 145
f 118 145 146
f 118 146 147
f 118 147 119
f 119 147 120
f 120 122 121
f 120 147 148
f 120 148 149
f 120 149 150
f 120 150 151
f 120 151 152
f 120 152 122
f 122 153 123
f 122 152 153
f 123 154 155
f 123 155 125
f 123 125 156
f 123 156 124
f 123 153 157
f 123 157 154
f 124 156 125
f 125 155 126
f 126 155 154
f 126 154 158
f 126 158 159
f 126 159 160
f 126 160 161
f 126 161 162
f 126 162 163
f 126 163 128
f 126 128 127
f 128 163 129
f 129 163 141
f 130 137 164
f 130 164 165
f 130 165 166
f 130 166 167
f 130 167 131
f 131 167 133
f 131 133 132
f 133 167 145
f 134 139 138
f 134 138 135
f 136 168 164
f 136 164 169
f 136 169 137
f 137 169 164
f 141 163 170
f 142 171 205
f 142 205 253
f 142 253 257
f 142 257 215
f 142 215 177
f 142 177 144
f 142 144 143
f 142 172 173
f 142 173 174
f 142 174 175
f 142 175 171
f 144 177 176
f 145 167 146
f 146 167 178
f 146 178 148
f 146 148 147
f 148 178 179
f 148 179 149
f 149 179 150
f 150 179 151
f 151 179 152
f 152 179 153
f 153 179 157
f 154 180 158
f 154 157 181
f 154 181 180
f 157 179 182
f 157 182 183
f 157 183 181
f 158 180 184
f 158 184 159
f 159 185 186
f 159 186 160
f 159 184 187
f 159 187 188
f 159 188 189
f 159 189 190
f 159 190 185
f 160 186 185
f 160 185 191
f 160 191 161
f 161 191 192
f 161 192 162
f 162 192 193
f 162 193 170
f 162 170 163
f 164 194 195
f 164 195 196
f 164 196 165
f 164 168 194
f 165 196 197
f 165 197 198
f 165 198 199
f 165 199 200
f 165 200 201
f 165 201 166
f 166 201 202
f 166 202 167
f 167 202 203
f 167 203 204
f 167 204 178
f 171 175 206
f 171 206 205
f 172 207 208
f 172 208 173
f 173 208 209
f 173 209 210
f 173 210 211
f 173 211 174
f 174 211 206
f 174 206 175
f 176 177 212
f 176 212 213
f 176 213 214
f 177 215 212
f 178 204 179
f 179 204 216
f 179 216 217
f 179 217 218
f 179 218 219
f 179 219 220
f 179 220 221
f 179 221 222
f 179 222 223
f 179 223 224
f 179 224 225
f 179 225 226
f 179 226 182
f 180 227 228
f 180 228 229
f 180 229 184
f 180 181 230
f 180 230 231
f 180 231 232
f 180 232 233
f 180 233 234
f 180 234 227
f 181 183 230
f 182 226 183
f 183 226 230
f 184 229 235
f 184 235 187
f 185 190 236
f 185 236 237
f 185 237 192
f 185 192 191
f 187 235 238
f 187 238 239
f 187 239 240
f 187 240 188
f 194 199 197
f 194 197 195
f 194 241 242
f 194 242 199
f 195 197 196
f 197 199 198
f 199 242 200
f 200 243 201
f 200 242 244
f 200 244 243
f 201 243 245
f 201 245 246
f 201 246 247
f 201 247 202
f 202 248 249
f 202 249 216
f 202 216 204
f 202 204 203
f 202 247 250
f 202 250 251
f 202 251 252
f 202 252 248
f 205 206 253
f 206 254 255
f 206 255 212
f 206 212 256
f 206 256 257
f 206 257 253
f 206 211 258
f 206 258 259
f 206 259 260
f 206 260 254
f 207 261 209
f 207 209 208
f 209 261 262
f 209 262 263
f 209 263 264
f 209 264 265
f 209 265 258
f 209 258 210
f 210 258 211
f 212 215 266
f 212 266 256
f 212 255 267
f 212 267 268
f 212 268 213
f 213 268 269
f 213 269 214
f 214 269 270
f 215 257 266
f 216 249 271
f 216 271 272
f 216 272 217
f 217 272 218
f 218 272 273
f 218 273 219
f 219 273 220
f 220 274 221
f 220 273 275
f 220 275 276
f 220 276 274
f 221 277 278
f 221 278 222
f 221 274 279
f 221 279 280
f 221 280 277
f 222 278 223
f 223 281 224
f 223 278 282
f 223 282 283
f 223 283 284
f 223 284 285
f 223 285 281
f 224 281 286
f 224 286 287
f 224 287 233
f 224 233 231
f 224 231 288
f 224 288 226
f 224 226 225
f 226 288 231
f 226 231 230
f 227 234 289
f 227 289 290
f 227 290 291
f 227 291 228
f 228 291 292
f 228 292 235
f 228 235 229
f 231 233 232
f 233 287 234
f 234 287 289
f 235 292 238
f 241 293 242
f 242 293 294
f 242 294 244
f 243 244 245
f 244 294 295
f 244 295 296
f 244 296 297
f 244 297 246
f 244 246 245
f 246 297 247
f 247 297 250
f 248 252 298
f 248 298 301
f 248 301 249
f 249 299 300
f 249 300 271
f 249 301 302
f 249 302 303
f 249 303 299
f 250 297 251
f 251 297 252
f 252 297 298
f 254 304 267
f 254 267 255
f 254 260 305
f 254 305 304
f 256 266 257
f 258 265 306
f 258 306 259
f 259 307 308
f 259 308 305
f 259 305 260
f 259 306 309
f 259 309 310
f 259 310 307
f 261 311 262
f 262 311 312
f 262 312 264
f 262 264 263
f 264 312 306
f 264 306 265
f 267 304 313
f 267 313 268
f 268 313 314
f 268 314 269
f 269 314 270
f 270 314 315
f 271 300 272
f 272 300 275
f 272 275 273
f 274 276 316
f 274 316 317
f 274 317 279
f 275 303 318
f 275 318 276
f 275 300 303
f 276 318 319
f 276 319 320
f 276 320 316
f 277 282 278
f 277 280 321
f 277 321 322
f 277 322 323
f 277 323 324
f 277 324 325
f 277 325 282
f 279 326 321
f 279 321 280
f 279 317 326
f 281 327 286
f 281 285 328
f 281 328 327
f 282 325 329
f 282 329 330
f 282 330 331
f 282 331 283
f 283 331 332
f 283 332 284
f 284 333 334
f 284 334 285
f 285 334 328
f 286 335 287
f 286 327 336
f 286 336 335
f 287 335 289
f 289 335 290
f 290 337 338
f 290 338 291
f 290 335 339
f 290 339 337
f 293 340 295
f 293 295 294
f 295 341 314
f 295 314 296
f 295 340 341
f 296 314 342
f 296 342 297
f 297 342 343
f 297 343 344
f 297 344 298
f 298 344 345
f 298 345 301
f 299 303 300
f 301 303 302
f 301 345 346
f 301 346 303
f 303 346 347
f 303 347 318
f 304 305 313
f 305 308 313
f 306 312 348
f 306 348 309
f 307 310 349
f 307 349 350
f 307 350 343
f 307 343 308
f 308 343 313
f 309 348 351
f 309 351 352
f 309 352 310
f 310 319 349
f 310 352 317
f 310 317 320
f 310 320 319
f 311 353 312
f 312 353 354
f 312 354 348
f 313 343 342
f 313 342 314
f 314 341 315
f 316 320 317
f 317 352 322
f 317 322 326
f 318 347 319
f 319 347 346
f 319 346 345
f 319 345 344
f 319 344 343
f 319 343 350
f 319 350 349
f 321 326 322
f 322 352 323
f 323 352 355
f 323 355 324
f 324 329 325
f 324 355 329
f 327 328 336
f 328 334 336
f 329 355 356
f 329 356 357
f 329 357 330
f 330 358 331
f 330 357 358
f 331 358 359
f 331 359 332
f 333 336 334
f 335 336 339
f 336 337 339
f 348 360 351
f 348 354 360
f 351 360 361
f 351 361 362
f 351 362 352
f 352 362 355
f 353 363 354
f 354 363 360
f 355 362 361
f 355 361 363
f 355 363 356
f 360 363 361

