# https://github.com/mikedh/trimesh
v -0.08233677 -0.00305034 -0.02825068
v -0.08215075 -0.00114359 -0.02825068
v -0.08118748 -0.00096808 -0.02948066
v -0.08128713 -0.00305034 -0.02961279
v -0.08122070 -0.00512463 -0.02952203
v -0.08219726 -0.00512463 -0.02825068
v -0.08213083 -0.00096808 -0.02825068
v -0.08155286 -0.00013837 -0.02887545
v -0.08113433 -0.00013837 -0.02941587
v -0.08019763 -0.00013837 -0.03045469
v -0.08023085 -0.00096808 -0.03051948
v -0.08031721 -0.00305034 -0.03065162
v -0.08027070 -0.00512463 -0.03056085
v -0.07877597 -0.01093263 -0.03106567
v -0.07859660 -0.01231283 -0.03093385
v -0.07942037 -0.01151503 -0.03011184
v -0.07728788 -0.02181466 -0.03008618
v -0.07718159 -0.02383310 -0.02967726
v -0.07887562 -0.01759428 -0.02917437
v -0.07827772 -0.02383310 -0.02825068
v -0.08203117 -0.00013837 -0.02825068
v -0.07915464 -0.00013837 -0.03124175
v -0.07928086 -0.00305034 -0.03124175
v -0.07922772 -0.00512463 -0.03124175
v -0.07907492 -0.00720689 -0.03123534
v -0.07892212 -0.00928118 -0.03117440
v -0.07680291 -0.01967655 -0.03114778
v -0.07666341 -0.02116046 -0.03104098
v -0.07661690 -0.02921826 -0.02893864
v -0.07742074 -0.02790987 -0.02825068
v -0.07765325 -0.00013837 -0.02825068
v -0.07760675 -0.00013837 -0.03152687
v -0.07760675 -0.00512463 -0.03152687
v -0.07760675 -0.00720689 -0.03152013
v -0.07760675 -0.00928118 -0.03145920
v -0.07696235 -0.01759428 -0.03122732
v -0.07485644 -0.02798167 -0.03121673
v -0.07466378 -0.03006394 -0.03109614
v -0.07452427 -0.03115692 -0.03098581
v -0.07579978 -0.02996820 -0.02974622
v -0.07644418 -0.03059846 -0.02871253
v -0.07688928 -0.03022350 -0.02825068
v -0.07700886 -0.02973684 -0.02825068
v -0.07729452 -0.02849226 -0.02825068
v -0.01446902 -0.00013837 -0.02968656
v -0.01446902 -0.07757308 -0.02825068
v -0.01446902 -0.00013837 -0.03152687
v -0.07345470 -0.02590738 -0.03152687
v -0.07552741 -0.01759428 -0.03151212
v -0.07345470 -0.02798167 -0.03150153
v -0.07345470 -0.03006394 -0.03138094
v -0.07341484 -0.03197068 -0.03120006
v -0.07494944 -0.03197068 -0.02984339
v -0.07607215 -0.03215418 -0.02825068
v -0.07270401 -0.03373383 -0.03114329
v -0.07055159 -0.03773082 -0.03111538
v -0.06839252 -0.04171983 -0.03106375
v -0.06622017 -0.04570884 -0.03099190
v -0.06665198 -0.04651462 -0.02984885
v -0.01446902 -0.08164187 -0.02825068
v -0.01446902 -0.07577004 -0.03152687
v -0.07137535 -0.03213822 -0.03152398
v -0.06721666 -0.03837704 -0.03152687
v -0.06929601 -0.03629477 -0.03150282
v -0.06721666 -0.04045132 -0.03146433
v -0.07091697 -0.03629477 -0.03121801
v -0.07070438 -0.04006838 -0.02936263
v -0.07466378 -0.03347853 -0.02910092
v -0.07277044 -0.03794623 -0.02825068
v -0.06722331 -0.04245381 -0.03124880
v -0.06509082 -0.04651462 -0.03118883
v -0.06647262 -0.04459990 -0.03112565
v -0.06436006 -0.04810225 -0.03111859
v -0.06382859 -0.04949043 -0.03077189
v -0.06234049 -0.05439691 -0.02914069
v -0.06418068 -0.05201148 -0.02896493
v -0.06446635 -0.05249017 -0.02825068
v -0.06635968 -0.04803045 -0.02911022
v -0.01527950 -0.08156209 -0.02825068
v -0.01527950 -0.08104352 -0.02898450
v -0.01446902 -0.08143444 -0.02854190
v -0.01446902 -0.07657582 -0.03152527
v -0.02151090 -0.07577004 -0.03152687
v -0.06513732 -0.04252561 -0.03152687
v -0.06306461 -0.04668216 -0.03150538
v -0.06513732 -0.04459990 -0.03141045
v -0.06777470 -0.04670610 -0.02825068
v -0.06310447 -0.04878038 -0.03128184
v -0.05885277 -0.05489155 -0.03119973
v -0.06007514 -0.05412566 -0.03103937
v -0.06153666 -0.05291300 -0.03060608
v -0.06372230 -0.05339966 -0.02846942
v -0.06093876 -0.05495537 -0.02988060
v -0.06180903 -0.05578509 -0.02870066
v -0.06402789 -0.05320021 -0.02825068
v -0.06641282 -0.04909153 -0.02825068
v -0.01570467 -0.08151422 -0.02825068
v -0.01638893 -0.08097969 -0.02890400
v -0.01446902 -0.08107543 -0.02903742
v -0.01527950 -0.08026167 -0.03002332
v -0.01446902 -0.08059675 -0.02967438
v -0.01446902 -0.07784433 -0.03151051
v -0.01527950 -0.07784433 -0.03150282
v -0.02359025 -0.07577004 -0.03150282
v -0.02774229 -0.07369576 -0.03152559
v -0.03190099 -0.07161349 -0.03152687
v -0.06098527 -0.04875645 -0.03152687
v -0.05682657 -0.05498729 -0.03148325
v -0.05890592 -0.05291300 -0.03144605
v -0.05812201 -0.05622388 -0.03108908
v -0.05950381 -0.05551384 -0.03061987
v -0.06348979 -0.05402992 -0.02825068
v -0.06253315 -0.05537821 -0.02825068
v -0.06042058 -0.05638344 -0.02923498
v -0.06091883 -0.05694988 -0.02825068
v -0.06139051 -0.05656694 -0.02825068
v -0.01692039 -0.08130679 -0.02825068
v -0.01871408 -0.07897720 -0.03103777
v -0.01735220 -0.07910485 -0.03114008
v -0.01446902 -0.08028560 -0.03007624
v -0.01527950 -0.07922453 -0.03121801
v -0.01446902 -0.07840279 -0.03140019
v -0.01735220 -0.07784433 -0.03142488
v -0.02774229 -0.07547486 -0.03124078
v -0.02982164 -0.07369576 -0.03140243
v -0.03398033 -0.07161349 -0.03142745
v -0.02359025 -0.07718215 -0.03121770
v -0.03605304 -0.06953921 -0.03152687
v -0.05890592 -0.05083871 -0.03152687
v -0.05267452 -0.05706955 -0.03152687
v -0.05059518 -0.05914384 -0.03152366
v -0.04229108 -0.06538265 -0.03152174
v -0.04851583 -0.06122610 -0.03147748
v -0.05053539 -0.06121015 -0.03125682
v -0.05664056 -0.05698179 -0.03116060
v -0.04979798 -0.06244674 -0.03108107
v -0.05581680 -0.05813063 -0.03097427
v -0.05720524 -0.05761206 -0.03044860
v -0.04376588 -0.06673094 -0.03114040
v -0.05810872 -0.05829019 -0.02906372
v -0.05949053 -0.05777162 -0.02853228
v -0.05923809 -0.05823434 -0.02825068
v -0.01745185 -0.08117914 -0.02825068
v -0.01777737 -0.08082014 -0.02866281
v -0.01941826 -0.07947982 -0.03003391
v -0.02585560 -0.07761297 -0.03011890
v -0.02667272 -0.07678325 -0.03094508
v -0.02529092 -0.07699866 -0.03111474
v -0.01446902 -0.07964736 -0.03080845
v -0.01446902 -0.07924048 -0.03122571
v -0.02982164 -0.07500416 -0.03111763
v -0.03398033 -0.07297773 -0.03114264
v -0.03594674 -0.07163743 -0.03121930
v -0.03776700 -0.07095930 -0.03114681
v -0.03833168 -0.06973067 -0.03129884
v -0.04021173 -0.06745694 -0.03147107
v -0.04437042 -0.06330039 -0.03152687
v -0.04221800 -0.06744098 -0.03125041
v -0.04147395 -0.06866162 -0.03107273
v -0.04749276 -0.06434551 -0.03096240
v -0.05650105 -0.05890450 -0.02966507
v -0.04691480 -0.06741705 -0.02825068
v -0.05522554 -0.06122610 -0.02825068
v -0.01943155 -0.08066855 -0.02825068
v -0.02315843 -0.07905699 -0.02913203
v -0.01975707 -0.08058079 -0.02825068
v -0.02774229 -0.07837886 -0.02825068
v -0.03112372 -0.07690292 -0.02898642
v -0.03172162 -0.07569026 -0.02984339
v -0.03093107 -0.07476481 -0.03098261
v -0.03518277 -0.07273042 -0.03101468
v -0.03915545 -0.07055241 -0.03094829
v -0.04021173 -0.06912435 -0.03118626
v -0.04021173 -0.07016947 -0.03054514
v -0.03913552 -0.07262670 -0.02884915
v -0.04021173 -0.07240331 -0.02825068
v -0.02448044 -0.07928038 -0.02825068
v -0.03033982 -0.07763690 -0.02825068
v -0.03162197 -0.07726193 -0.02825068
v -0.03213350 -0.07707046 -0.02825068
v -0.03398033 -0.07636839 -0.02825068
v -0.03250552 -0.07660774 -0.02867243
v -0.03398033 -0.07522753 -0.02931741
v -0.03532892 -0.07490044 -0.02902812
v -0.03594674 -0.07363193 -0.02987643
v -0.03657121 -0.07233949 -0.03072442
v -0.03671072 -0.07452547 -0.02866666
v -0.03774708 -0.07313729 -0.02933922
v -0.03789987 -0.07410264 -0.02825068
v -0.03832504 -0.07379947 -0.02825068
v -0.03859077 -0.07360799 -0.02825068
v -0.03932153 -0.07306549 -0.02825068
v -0.03441879 -0.07615299 -0.02825068
v -0.03398033 -0.07626468 -0.02836166
v -0.03579395 -0.07545092 -0.02825068
v -0.03637191 -0.07513978 -0.02825068
f 1 2 3
f 1 3 4
f 1 4 5
f 1 5 6
f 1 6 20
f 1 20 30
f 1 30 44
f 1 44 43
f 1 43 42
f 1 42 54
f 1 54 69
f 1 69 87
f 1 87 96
f 1 96 77
f 1 77 95
f 1 95 112
f 1 112 113
f 1 113 116
f 1 116 115
f 1 115 142
f 1 142 163
f 1 163 162
f 1 162 176
f 1 176 192
f 1 192 191
f 1 191 190
f 1 190 189
f 1 189 196
f 1 196 195
f 1 195 193
f 1 193 181
f 1 181 180
f 1 180 179
f 1 179 178
f 1 178 167
f 1 167 177
f 1 177 166
f 1 166 164
f 1 164 143
f 1 143 117
f 1 117 97
f 1 97 79
f 1 79 60
f 1 60 46
f 1 46 31
f 1 31 21
f 1 21 7
f 1 7 2
f 2 7 3
f 3 7 8
f 3 8 9
f 3 9 10
f 3 10 11
f 3 11 4
f 4 11 12
f 4 12 13
f 4 13 5
f 5 13 14
f 5 14 15
f 5 15 16
f 5 16 17
f 5 17 18
f 5 18 19
f 5 19 6
f 6 19 20
f 7 21 8
f 8 21 31
f 8 31 45
f 8 45 47
f 8 47 32
f 8 32 22
f 8 22 10
f 8 10 9
f 10 22 11
f 11 22 12
f 12 22 23
f 12 23 24
f 12 24 25
f 12 25 13
f 13 25 26
f 13 26 14
f 14 26 27
f 14 27 28
f 14 28 15
f 15 28 16
f 16 28 17
f 17 28 29
f 17 29 18
f 18 29 30
f 18 30 20
f 18 20 19
f 22 32 23
f 23 32 33
f 23 33 34
f 23 34 24
f 24 34 25
f 25 34 35
f 25 35 36
f 25 36 26
f 26 36 37
f 26 37 27
f 27 37 38
f 27 38 28
f 28 38 39
f 28 39 40
f 28 40 29
f 29 40 41
f 29 41 42
f 29 42 43
f 29 43 44
f 29 44 30
f 31 46 45
f 32 47 61
f 32 61 83
f 32 83 106
f 32 106 128
f 32 128 157
f 32 157 130
f 32 130 129
f 32 129 107
f 32 107 84
f 32 84 63
f 32 63 48
f 32 48 33
f 33 48 34
f 34 48 49
f 34 49 35
f 35 49 50
f 35 50 37
f 35 37 36
f 37 50 51
f 37 51 38
f 38 51 52
f 38 52 39
f 39 53 54
f 39 54 41
f 39 41 40
f 39 52 55
f 39 55 56
f 39 56 57
f 39 57 58
f 39 58 59
f 39 59 53
f 41 54 42
f 45 46 60
f 45 60 81
f 45 81 99
f 45 99 101
f 45 101 120
f 45 120 149
f 45 149 150
f 45 150 122
f 45 122 102
f 45 102 82
f 45 82 61
f 45 61 47
f 48 62 50
f 48 50 49
f 48 63 62
f 50 62 51
f 51 62 64
f 51 64 65
f 51 65 66
f 51 66 52
f 52 66 55
f 53 59 67
f 53 67 68
f 53 68 54
f 54 68 69
f 55 66 56
f 56 66 70
f 56 70 71
f 56 71 72
f 56 72 57
f 57 72 58
f 58 72 73
f 58 73 74
f 58 74 75
f 58 75 76
f 58 76 77
f 58 77 78
f 58 78 59
f 59 78 67
f 60 79 80
f 60 80 81
f 61 82 83
f 62 63 84
f 62 84 85
f 62 85 64
f 64 85 65
f 65 85 86
f 65 86 66
f 66 86 70
f 67 78 68
f 68 78 69
f 69 78 87
f 70 86 71
f 71 73 72
f 71 86 88
f 71 88 73
f 73 88 89
f 73 89 90
f 73 90 74
f 74 90 91
f 74 91 75
f 75 92 76
f 75 91 90
f 75 90 93
f 75 93 94
f 75 94 92
f 76 92 95
f 76 95 77
f 77 96 78
f 78 96 87
f 79 97 98
f 79 98 80
f 80 99 81
f 80 98 100
f 80 100 101
f 80 101 99
f 82 102 83
f 83 102 103
f 83 103 104
f 83 104 105
f 83 105 106
f 84 107 85
f 85 107 108
f 85 108 109
f 85 109 88
f 85 88 86
f 88 109 89
f 89 109 108
f 89 108 110
f 89 110 90
f 90 110 111
f 90 111 93
f 92 94 112
f 92 112 95
f 93 111 94
f 94 113 112
f 94 111 110
f 94 110 114
f 94 114 115
f 94 115 116
f 94 116 113
f 97 117 98
f 98 117 118
f 98 118 119
f 98 119 100
f 100 120 101
f 100 119 121
f 100 121 120
f 102 122 103
f 103 122 121
f 103 121 123
f 103 123 104
f 104 124 125
f 104 125 126
f 104 126 105
f 104 123 127
f 104 127 124
f 105 126 106
f 106 126 128
f 107 129 108
f 108 130 131
f 108 131 132
f 108 132 133
f 108 133 134
f 108 134 135
f 108 135 110
f 108 129 130
f 110 136 137
f 110 137 138
f 110 138 114
f 110 135 134
f 110 134 139
f 110 139 136
f 114 138 140
f 114 140 141
f 114 141 115
f 115 141 142
f 117 143 118
f 118 143 144
f 118 144 145
f 118 145 146
f 118 146 147
f 118 147 148
f 118 148 119
f 119 148 127
f 119 127 123
f 119 123 121
f 120 121 149
f 121 122 150
f 121 150 149
f 124 151 152
f 124 152 126
f 124 126 125
f 124 127 148
f 124 148 151
f 126 153 154
f 126 154 155
f 126 155 156
f 126 156 128
f 126 152 153
f 128 156 132
f 128 132 131
f 128 131 157
f 130 157 131
f 132 156 133
f 133 156 134
f 134 156 158
f 134 158 139
f 136 139 159
f 136 159 137
f 137 159 160
f 137 160 138
f 138 160 161
f 138 161 140
f 139 158 159
f 140 142 141
f 140 161 162
f 140 162 163
f 140 163 142
f 143 164 144
f 144 164 145
f 145 165 146
f 145 164 166
f 145 166 165
f 146 167 168
f 146 168 147
f 146 165 167
f 147 168 169
f 147 169 170
f 147 170 151
f 147 151 148
f 151 170 171
f 151 171 152
f 152 171 154
f 152 154 153
f 154 172 159
f 154 159 173
f 154 173 158
f 154 158 155
f 154 171 172
f 155 158 156
f 158 173 159
f 159 172 160
f 160 172 174
f 160 174 175
f 160 175 161
f 161 175 162
f 162 175 176
f 165 166 177
f 165 177 167
f 167 178 168
f 168 179 180
f 168 180 181
f 168 181 182
f 168 182 183
f 168 183 169
f 168 178 179
f 169 183 171
f 169 171 170
f 171 183 184
f 171 184 185
f 171 185 186
f 171 186 172
f 172 186 187
f 172 187 188
f 172 188 189
f 172 189 190
f 172 190 191
f 172 191 175
f 172 175 174
f 175 191 192
f 175 192 176
f 181 193 194
f 181 194 182
f 182 194 183
f 183 194 184
f 184 194 195
f 184 195 196
f 184 196 187
f 184 187 185
f 185 187 186
f 187 189 188
f 187 196 189
f 193 195 194

