# https://github.com/mikedh/trimesh
v 0.00192559 -0.07048289 0.02266858
v 0.00326141 -0.07048289 0.02366146
v 0.00192559 -0.07048289 0.02388225
v 0.00192559 -0.06406453 0.02873822
v 0.00195898 -0.06406453 0.02875455
v 0.00222505 -0.06406453 0.02888977
v 0.00229008 -0.06406453 0.02892308
v 0.00231140 -0.06406453 0.02893615
v 0.00282287 -0.06406453 0.02927386
v 0.00330777 -0.07048289 0.02371698
v 0.00318364 -0.06496672 0.02876958
v 0.00192559 -0.07046781 0.02389858
v 0.00192625 -0.07048289 0.02934114
v 0.00192559 -0.06406453 0.02934114
v 0.00288022 -0.06406453 0.02934114
v 0.00304258 -0.06422851 0.02934114
v 0.00340071 -0.07030760 0.02406907
v 0.00347804 -0.07048289 0.02407821
v 0.00330052 -0.06465196 0.02923597
v 0.00336665 -0.06465761 0.02934114
v 0.00347760 -0.06521740 0.02902106
v 0.00366238 -0.06525761 0.02934114
v 0.00322538 -0.06443458 0.02934114
v 0.00192559 -0.07031514 0.02406253
v 0.00295492 -0.07048289 0.02934114
v 0.00192559 -0.06454704 0.02934114
v 0.00192559 -0.06458411 0.02932089
v 0.00192559 -0.06547687 0.02870295
v 0.00192559 -0.06558493 0.02862130
v 0.00192559 -0.06584943 0.02838614
v 0.00192559 -0.06600399 0.02824047
v 0.00192559 -0.07000792 0.02439241
v 0.00368896 -0.07036163 0.02474514
v 0.00371115 -0.07048289 0.02469811
v 0.00379530 -0.06564525 0.02934114
v 0.00351034 -0.06967683 0.02934114
v 0.00377509 -0.07048289 0.02808436
v 0.00382848 -0.06928479 0.02618417
v 0.00380013 -0.07048289 0.02505476
v 0.00382716 -0.06576964 0.02934114
v 0.00377223 -0.06929233 0.02934114
v 0.00389549 -0.07011661 0.02826987
v 0.00394866 -0.07048289 0.02776167
v 0.00399721 -0.06904730 0.02719926
v 0.00387484 -0.06598137 0.02934114
v 0.00404511 -0.06716376 0.02908312
v 0.00382562 -0.07048289 0.02518606
v 0.00412267 -0.06904730 0.02782699
v 0.00409542 -0.06967557 0.02719926
v 0.00396382 -0.06898699 0.02934114
v 0.00408158 -0.07048289 0.02720187
v 0.00398513 -0.07031703 0.02784006
v 0.00413936 -0.06841904 0.02845538
v 0.00397568 -0.06652922 0.02934114
v 0.00407477 -0.06716376 0.02934114
v 0.00413475 -0.06779140 0.02908312
v 0.00406115 -0.07030321 0.02657087
v 0.00396140 -0.07048289 0.02594378
v 0.00416573 -0.06904730 0.02845538
v 0.00414574 -0.06967557 0.02782699
v 0.00412245 -0.07030321 0.02719926
v 0.00407103 -0.07048289 0.02657087
v 0.00400908 -0.06907746 0.02910663
v 0.00410641 -0.06844103 0.02934114
v 0.00417012 -0.06841904 0.02908312
v 0.00413475 -0.06779140 0.02934114
f 1 2 10
f 1 10 18
f 1 18 34
f 1 34 39
f 1 39 47
f 1 47 58
f 1 58 62
f 1 62 51
f 1 51 43
f 1 43 37
f 1 37 25
f 1 25 13
f 1 13 3
f 1 3 12
f 1 12 24
f 1 24 32
f 1 32 31
f 1 31 30
f 1 30 29
f 1 29 28
f 1 28 27
f 1 27 26
f 1 26 14
f 1 14 4
f 1 4 5
f 1 5 6
f 1 6 7
f 1 7 8
f 1 8 9
f 1 9 2
f 2 9 11
f 2 11 10
f 3 13 12
f 4 14 15
f 4 15 9
f 4 9 8
f 4 8 7
f 4 7 6
f 4 6 5
f 9 15 16
f 9 16 11
f 10 17 18
f 10 11 19
f 10 19 20
f 10 20 21
f 10 21 22
f 10 22 17
f 11 16 23
f 11 23 19
f 12 13 24
f 13 25 36
f 13 36 41
f 13 41 50
f 13 50 64
f 13 64 66
f 13 66 55
f 13 55 54
f 13 54 45
f 13 45 40
f 13 40 35
f 13 35 22
f 13 22 20
f 13 20 23
f 13 23 16
f 13 16 15
f 13 15 14
f 13 14 26
f 13 26 27
f 13 27 28
f 13 28 29
f 13 29 30
f 13 30 31
f 13 31 32
f 13 32 24
f 17 22 18
f 18 33 34
f 18 22 33
f 19 23 20
f 20 22 21
f 22 35 33
f 25 37 36
f 33 35 34
f 34 38 39
f 34 35 38
f 35 40 38
f 36 37 41
f 37 42 41
f 37 43 42
f 38 44 39
f 38 40 45
f 38 45 46
f 38 46 44
f 39 44 48
f 39 48 49
f 39 49 47
f 41 42 50
f 42 43 50
f 43 51 52
f 43 52 50
f 44 46 53
f 44 53 48
f 45 54 46
f 46 54 55
f 46 55 56
f 46 56 53
f 47 49 57
f 47 57 58
f 48 53 59
f 48 59 60
f 48 60 61
f 48 61 49
f 49 61 62
f 49 62 57
f 50 63 64
f 50 52 63
f 51 61 60
f 51 60 59
f 51 59 52
f 51 62 61
f 52 59 63
f 53 56 65
f 53 65 59
f 55 66 56
f 56 66 65
f 57 62 58
f 59 65 64
f 59 64 63
f 64 65 66

