# https://github.com/mikedh/trimesh
v 0.00380894 -0.07022601 -0.01249910
v 0.00300893 -0.07022601 -0.01249910
v 0.00388342 -0.07040403 -0.01249910
v 0.00420408 -0.07022601 -0.01432895
v 0.00336668 -0.07022601 -0.01596991
v 0.00267766 -0.07136944 -0.01596991
v 0.00267766 -0.07170084 -0.01551160
v 0.00267766 -0.07358983 -0.01303657
v 0.00267766 -0.07400583 -0.01249910
v 0.00405392 -0.07093205 -0.01249910
v 0.00420542 -0.07022601 -0.01487934
v 0.00415083 -0.07142800 -0.01249910
v 0.00417282 -0.07156001 -0.01249910
v 0.00420393 -0.07156001 -0.01299546
v 0.00408921 -0.07022601 -0.01596991
v 0.00267766 -0.07259839 -0.01596991
v 0.00267766 -0.07497449 -0.01249910
v 0.00420438 -0.07030410 -0.01487934
v 0.00420318 -0.07022601 -0.01495680
v 0.00420198 -0.07093205 -0.01425115
v 0.00418598 -0.07205596 -0.01249910
v 0.00417925 -0.07156001 -0.01362331
v 0.00414679 -0.07022601 -0.01558498
v 0.00414515 -0.07030410 -0.01550718
v 0.00407590 -0.07030410 -0.01596991
v 0.00268723 -0.07259095 -0.01596991
v 0.00267796 -0.07260769 -0.01596108
v 0.00267766 -0.07260769 -0.01596108
v 0.00267766 -0.07446599 -0.01344358
v 0.00270772 -0.07446180 -0.01343747
v 0.00289856 -0.07458033 -0.01300905
v 0.00290230 -0.07484155 -0.01249910
v 0.00417072 -0.07218796 -0.01249910
v 0.00411494 -0.07093205 -0.01487934
v 0.00413139 -0.07218796 -0.01299546
v 0.00402640 -0.07049281 -0.01596991
v 0.00298097 -0.07229301 -0.01596991
v 0.00309658 -0.07240317 -0.01571341
v 0.00306427 -0.07301346 -0.01506110
v 0.00267766 -0.07323053 -0.01518952
v 0.00267766 -0.07380782 -0.01440981
v 0.00289856 -0.07420384 -0.01363758
v 0.00312634 -0.07432933 -0.01322785
v 0.00281510 -0.07386406 -0.01420495
v 0.00323223 -0.07444693 -0.01280894
v 0.00328772 -0.07452176 -0.01249910
v 0.00409235 -0.07268391 -0.01249910
v 0.00406394 -0.07156001 -0.01425115
v 0.00396268 -0.07097807 -0.01554455
v 0.00390765 -0.07083955 -0.01596991
v 0.00325900 -0.07197136 -0.01596991
v 0.00324928 -0.07259514 -0.01529450
v 0.00322849 -0.07320032 -0.01464254
v 0.00326977 -0.07198438 -0.01594137
v 0.00319783 -0.07378040 -0.01396475
v 0.00298725 -0.07361911 -0.01438297
v 0.00325302 -0.07388963 -0.01362331
v 0.00354317 -0.07403697 -0.01249910
v 0.00404823 -0.07281638 -0.01249910
v 0.00389688 -0.07324819 -0.01249910
v 0.00375001 -0.07115469 -0.01596991
v 0.00386562 -0.07332117 -0.01249910
v 0.00328966 -0.07192674 -0.01596991
v 0.00370933 -0.07122953 -0.01596991
f 1 2 9
f 1 9 17
f 1 17 32
f 1 32 46
f 1 46 58
f 1 58 62
f 1 62 60
f 1 60 59
f 1 59 47
f 1 47 33
f 1 33 21
f 1 21 13
f 1 13 12
f 1 12 10
f 1 10 3
f 1 3 4
f 1 4 11
f 1 11 19
f 1 19 23
f 1 23 15
f 1 15 5
f 1 5 2
f 2 5 6
f 2 6 7
f 2 7 8
f 2 8 9
f 3 10 4
f 4 10 12
f 4 12 13
f 4 13 14
f 4 14 11
f 5 15 25
f 5 25 36
f 5 36 50
f 5 50 61
f 5 61 64
f 5 64 63
f 5 63 51
f 5 51 37
f 5 37 26
f 5 26 16
f 5 16 6
f 6 16 28
f 6 28 40
f 6 40 41
f 6 41 29
f 6 29 17
f 6 17 9
f 6 9 8
f 6 8 7
f 11 18 19
f 11 14 20
f 11 20 18
f 13 21 14
f 14 22 20
f 14 21 22
f 15 23 24
f 15 24 25
f 16 26 27
f 16 27 28
f 17 29 30
f 17 30 31
f 17 31 32
f 18 23 19
f 18 20 23
f 20 22 24
f 20 24 23
f 21 33 22
f 22 34 25
f 22 25 24
f 22 33 35
f 22 35 34
f 25 34 36
f 26 37 38
f 26 38 39
f 26 39 27
f 27 39 40
f 27 40 28
f 29 41 30
f 30 42 43
f 30 43 31
f 30 41 44
f 30 44 42
f 31 43 32
f 32 43 45
f 32 45 46
f 33 47 35
f 34 35 47
f 34 47 48
f 34 48 36
f 36 48 47
f 36 47 49
f 36 49 50
f 37 51 38
f 38 52 53
f 38 53 39
f 38 51 54
f 38 54 52
f 39 53 55
f 39 55 40
f 40 55 56
f 40 56 41
f 41 56 44
f 42 44 55
f 42 55 43
f 43 55 45
f 44 56 55
f 45 55 57
f 45 57 58
f 45 58 46
f 47 59 49
f 49 59 60
f 49 60 50
f 50 60 62
f 50 62 58
f 50 58 55
f 50 55 61
f 51 63 54
f 52 54 63
f 52 63 64
f 52 64 53
f 53 64 61
f 53 61 55
f 55 58 57

