# https://github.com/mikedh/trimesh
v 0.00214882 -0.04267043 -0.02342162
v 0.00215806 -0.04329740 -0.02342162
v 0.00333884 -0.04642694 -0.02050183
v 0.00359059 -0.04455596 -0.02050183
v 0.00378172 -0.04332055 -0.02050183
v 0.00384457 -0.04305799 -0.02050183
v 0.00218024 -0.04254014 -0.02342162
v 0.00218061 -0.04375638 -0.02342162
v 0.00224531 -0.04497923 -0.02342162
v 0.00228117 -0.04558702 -0.02342162
v 0.00232109 -0.04619084 -0.02342162
v 0.00234586 -0.04642694 -0.02342162
v 0.00403791 -0.04642694 -0.02050183
v 0.00221166 -0.04436880 -0.02342162
v 0.00396656 -0.04272532 -0.02050183
v 0.00231222 -0.04208844 -0.02342162
v 0.00340094 -0.04642694 -0.02342162
v 0.00404530 -0.04642694 -0.02053184
v 0.00592368 -0.04015793 -0.02050183
v 0.00426120 -0.04204214 -0.02050183
v 0.00519207 -0.04013280 -0.02050183
v 0.00519983 -0.04011759 -0.02050183
v 0.00340390 -0.04005278 -0.02342162
v 0.00384013 -0.04642694 -0.02277907
v 0.00439318 -0.03991720 -0.02342162
v 0.00445196 -0.03987223 -0.02337160
v 0.00578393 -0.04015793 -0.02158857
v 0.00413736 -0.04642694 -0.02115982
v 0.00592478 -0.04015793 -0.02053184
v 0.00587303 -0.03967184 -0.02050183
v 0.00421425 -0.04642694 -0.02178780
v 0.00551369 -0.03967184 -0.02050183
v 0.00372183 -0.03972078 -0.02324640
v 0.00363532 -0.03968639 -0.02342162
v 0.00384383 -0.04642694 -0.02277363
v 0.00437913 -0.03979419 -0.02342162
v 0.00445196 -0.03982064 -0.02337160
v 0.00579429 -0.03974194 -0.02160115
v 0.00590297 -0.04015793 -0.02115982
v 0.00406231 -0.04642694 -0.02241577
v 0.00585935 -0.03968176 -0.02115982
v 0.00587377 -0.03967118 -0.02053184
v 0.00551406 -0.03967118 -0.02053184
v 0.00411185 -0.03967382 -0.02303975
v 0.00410002 -0.03968573 -0.02342162
v 0.00457876 -0.03972408 -0.02304375
v 0.00521092 -0.03971284 -0.02227771
f 1 2 3
f 1 3 4
f 1 4 5
f 1 5 6
f 1 6 7
f 1 7 16
f 1 16 23
f 1 23 34
f 1 34 45
f 1 45 36
f 1 36 25
f 1 25 17
f 1 17 12
f 1 12 11
f 1 11 10
f 1 10 9
f 1 9 14
f 1 14 8
f 1 8 2
f 2 8 3
f 3 9 10
f 3 10 11
f 3 11 12
f 3 12 17
f 3 17 24
f 3 24 35
f 3 35 40
f 3 40 31
f 3 31 28
f 3 28 18
f 3 18 13
f 3 13 19
f 3 19 30
f 3 30 32
f 3 32 22
f 3 22 21
f 3 21 20
f 3 20 15
f 3 15 6
f 3 6 5
f 3 5 4
f 3 8 14
f 3 14 9
f 6 15 16
f 6 16 7
f 13 18 19
f 15 20 16
f 16 20 21
f 16 21 22
f 16 22 23
f 17 25 26
f 17 26 27
f 17 27 24
f 18 28 19
f 19 29 30
f 19 28 31
f 19 31 29
f 22 32 33
f 22 33 23
f 23 33 34
f 24 27 35
f 25 36 37
f 25 37 26
f 26 37 38
f 26 38 27
f 27 38 39
f 27 39 40
f 27 40 35
f 29 31 39
f 29 39 41
f 29 41 42
f 29 42 30
f 30 42 43
f 30 43 32
f 31 40 39
f 32 43 44
f 32 44 34
f 32 34 33
f 34 44 45
f 36 45 46
f 36 46 47
f 36 47 37
f 37 47 38
f 38 47 41
f 38 41 39
f 41 47 45
f 41 45 44
f 41 44 42
f 42 44 43
f 45 47 46

