# https://github.com/mikedh/trimesh
v -0.00128502 -0.07455215 0.01034649
v -0.00288558 -0.07448734 0.01034649
v -0.00128502 -0.07513291 0.01034649
v -0.00128502 -0.07434438 0.00172586
v -0.00330571 -0.07450765 0.01034649
v -0.00152589 -0.07435105 0.00172586
v -0.00215379 -0.07436941 0.00172586
v -0.00243235 -0.07437831 0.00172586
v -0.00585296 -0.07718559 0.01034649
v -0.00128502 -0.07513903 0.01028152
v -0.00128502 -0.07503945 0.00172586
v -0.00402782 -0.07465590 0.01034649
v -0.00251179 -0.07438248 0.00172586
v -0.00466540 -0.07477550 0.00172586
v -0.00128502 -0.07534652 0.00584632
v -0.00128502 -0.07521524 0.00898539
v -0.00128502 -0.07518798 0.00961404
v -0.00128502 -0.07517073 0.00985454
v -0.00128502 -0.07514264 0.01024186
v -0.00644318 -0.07718559 0.01034649
v -0.00586417 -0.07718559 0.00330046
v -0.00128502 -0.07536043 0.00521850
v -0.00128502 -0.07535542 0.00545899
v -0.00586977 -0.07718559 0.00172586
v -0.00128502 -0.07529006 0.00396203
v -0.00466540 -0.07478690 0.01034649
v -0.00490169 -0.07483168 0.00172586
v -0.00644064 -0.07710771 0.01034649
v -0.00644420 -0.07718559 0.01026802
v -0.00128502 -0.07535765 0.00483118
v -0.00648749 -0.07718559 0.00172586
v -0.00128502 -0.07531620 0.00420252
v -0.00128502 -0.07534596 0.00459069
v -0.00512881 -0.07494099 0.01034649
v -0.00522863 -0.07492097 0.00172586
v -0.00641110 -0.07658397 0.01034649
v -0.00646355 -0.07718559 0.00838457
v -0.00645744 -0.07718559 0.00901239
v -0.00646813 -0.07718559 0.00775592
v -0.00641619 -0.07658397 0.00172586
v -0.00544302 -0.07514709 0.01034649
v -0.00540432 -0.07499718 0.00172586
v -0.00554232 -0.07505725 0.00172586
v -0.00639124 -0.07651833 0.01034649
v -0.00629397 -0.07617788 0.00172586
v -0.00572260 -0.07546111 0.01034649
v -0.00565283 -0.07519549 0.00172586
v -0.00629295 -0.07619735 0.01034649
v -0.00595380 -0.07564636 0.00172586
v -0.00577760 -0.07537127 0.00172586
f 1 2 5
f 1 5 12
f 1 12 26
f 1 26 34
f 1 34 41
f 1 41 46
f 1 46 48
f 1 48 44
f 1 44 36
f 1 36 28
f 1 28 20
f 1 20 9
f 1 9 3
f 1 3 10
f 1 10 19
f 1 19 18
f 1 18 17
f 1 17 16
f 1 16 15
f 1 15 23
f 1 23 22
f 1 22 30
f 1 30 33
f 1 33 32
f 1 32 25
f 1 25 11
f 1 11 4
f 1 4 2
f 2 4 6
f 2 6 7
f 2 7 8
f 2 8 5
f 3 9 10
f 4 11 24
f 4 24 31
f 4 31 40
f 4 40 45
f 4 45 49
f 4 49 50
f 4 50 47
f 4 47 43
f 4 43 42
f 4 42 35
f 4 35 27
f 4 27 14
f 4 14 13
f 4 13 8
f 4 8 7
f 4 7 6
f 5 8 13
f 5 13 14
f 5 14 12
f 9 15 16
f 9 16 17
f 9 17 18
f 9 18 19
f 9 19 10
f 9 20 29
f 9 29 38
f 9 38 37
f 9 37 39
f 9 39 31
f 9 31 24
f 9 24 21
f 9 21 22
f 9 22 23
f 9 23 15
f 11 25 24
f 12 14 26
f 14 27 26
f 20 28 29
f 21 24 22
f 22 24 30
f 24 25 32
f 24 32 33
f 24 33 30
f 26 27 35
f 26 35 34
f 28 36 37
f 28 37 38
f 28 38 29
f 31 39 36
f 31 36 40
f 34 35 42
f 34 42 43
f 34 43 41
f 36 39 37
f 36 44 45
f 36 45 40
f 41 43 46
f 43 47 46
f 44 48 45
f 45 48 49
f 46 47 48
f 47 50 48
f 48 50 49

