# https://github.com/mikedh/trimesh
v 0.00418664 -0.06929218 -0.01596991
v 0.00416811 -0.06967592 -0.01596991
v 0.00415974 -0.06929218 -0.01651939
v 0.00352682 -0.06929218 -0.01596991
v 0.00415496 -0.06984153 -0.01596991
v 0.00415855 -0.06967592 -0.01613544
v 0.00410655 -0.06929218 -0.01714726
v 0.00301044 -0.06929218 -0.01775348
v -0.00191908 -0.07046550 -0.01775348
v -0.00191908 -0.07221482 -0.01596991
v 0.00407547 -0.07030408 -0.01596991
v 0.00409340 -0.06967592 -0.01676348
v 0.00405276 -0.06929218 -0.01739205
v 0.00396610 -0.06929218 -0.01775348
v -0.00191908 -0.07143666 -0.01775348
v -0.00191908 -0.07318103 -0.01596991
v 0.00402646 -0.07049291 -0.01596991
v 0.00405097 -0.07030408 -0.01613544
v 0.00395056 -0.06969229 -0.01739328
v 0.00395534 -0.06933443 -0.01775348
v -0.00191908 -0.07167917 -0.01750677
v -0.00152522 -0.07144808 -0.01775348
v -0.00191908 -0.07292140 -0.01623671
v -0.00152522 -0.07168450 -0.01751096
v -0.00152522 -0.07198982 -0.01719702
v -0.00152522 -0.07292292 -0.01623688
v -0.00152522 -0.07318027 -0.01596991
v 0.00390753 -0.07083934 -0.01596991
v 0.00391470 -0.07029913 -0.01673153
v 0.00386211 -0.07008670 -0.01718515
v 0.00389976 -0.06953087 -0.01775348
v -0.00191908 -0.07198640 -0.01719283
v -0.00089708 -0.07141915 -0.01775348
v -0.00191908 -0.07260770 -0.01655780
v -0.00077635 -0.07141344 -0.01775348
v -0.00089708 -0.07228905 -0.01685864
v -0.00026894 -0.07257915 -0.01652917
v -0.00089708 -0.07313878 -0.01596991
v 0.00035921 -0.07256240 -0.01651398
v 0.00374975 -0.07115456 -0.01596991
v 0.00388601 -0.07078528 -0.01613544
v 0.00383163 -0.07065965 -0.01650088
v 0.00373182 -0.07050547 -0.01691940
v 0.00374257 -0.06991310 -0.01760385
v 0.00367085 -0.06984229 -0.01775348
v 0.00035921 -0.07135938 -0.01775348
v -0.00026894 -0.07196013 -0.01716629
v 0.00035921 -0.07225898 -0.01682791
v 0.00161430 -0.07191520 -0.01711967
v -0.00026894 -0.07307863 -0.01596991
v 0.00098675 -0.07253803 -0.01649075
v 0.00370911 -0.07122956 -0.01596991
v 0.00328895 -0.07192624 -0.01596991
v 0.00325847 -0.07197079 -0.01596991
v 0.00329373 -0.07137309 -0.01658818
v 0.00331345 -0.07076244 -0.01722444
v 0.00312280 -0.07055610 -0.01764313
v 0.00336605 -0.07017578 -0.01775348
v 0.00042316 -0.07135595 -0.01775348
v 0.00098675 -0.07193005 -0.01713556
v 0.00035921 -0.07163996 -0.01746486
v 0.00098675 -0.07132436 -0.01775348
v 0.00101604 -0.07132245 -0.01775348
v 0.00161430 -0.07159580 -0.01743361
v 0.00201055 -0.07189617 -0.01710012
v 0.00141289 -0.07251595 -0.01646683
v 0.00025581 -0.07301657 -0.01596991
v 0.00298055 -0.07229248 -0.01596991
v 0.00311144 -0.07179148 -0.01636033
v 0.00312459 -0.07118121 -0.01700671
v 0.00270623 -0.07141001 -0.01723020
v 0.00275105 -0.07081231 -0.01775348
v 0.00306423 -0.07049747 -0.01775348
v 0.00158979 -0.07126992 -0.01775348
v 0.00161430 -0.07128172 -0.01774021
v 0.00196931 -0.07125773 -0.01771682
v 0.00219941 -0.07154326 -0.01737459
v 0.00242951 -0.07182878 -0.01703028
v 0.00224244 -0.07243600 -0.01638494
v 0.00183185 -0.07247826 -0.01643296
v 0.00224244 -0.07276455 -0.01596991
v 0.00187548 -0.07281785 -0.01596991
v 0.00268710 -0.07259057 -0.01596991
v 0.00269308 -0.07201875 -0.01661175
v 0.00290884 -0.07160075 -0.01680940
v 0.00238767 -0.07118502 -0.01764890
v 0.00231595 -0.07109670 -0.01775348
v 0.00161609 -0.07126725 -0.01775348
v 0.00194002 -0.07122271 -0.01775348
v 0.00201234 -0.07120291 -0.01775348
v 0.00266857 -0.07260427 -0.01596991
v 0.00264347 -0.07261417 -0.01596991
v 0.00224244 -0.07268765 -0.01607101
f 1 2 3
f 1 3 7
f 1 7 13
f 1 13 14
f 1 14 8
f 1 8 4
f 1 4 10
f 1 10 16
f 1 16 27
f 1 27 38
f 1 38 50
f 1 50 67
f 1 67 82
f 1 82 81
f 1 81 92
f 1 92 91
f 1 91 83
f 1 83 68
f 1 68 54
f 1 54 53
f 1 53 52
f 1 52 40
f 1 40 28
f 1 28 17
f 1 17 11
f 1 11 5
f 1 5 2
f 2 5 6
f 2 6 3
f 3 6 7
f 4 8 9
f 4 9 10
f 5 11 12
f 5 12 7
f 5 7 6
f 7 12 13
f 8 14 20
f 8 20 31
f 8 31 45
f 8 45 58
f 8 58 73
f 8 73 72
f 8 72 87
f 8 87 90
f 8 90 89
f 8 89 88
f 8 88 74
f 8 74 63
f 8 63 62
f 8 62 59
f 8 59 46
f 8 46 35
f 8 35 33
f 8 33 22
f 8 22 15
f 8 15 9
f 9 15 21
f 9 21 32
f 9 32 34
f 9 34 23
f 9 23 16
f 9 16 10
f 11 17 18
f 11 18 12
f 12 18 19
f 12 19 13
f 13 19 20
f 13 20 14
f 15 22 21
f 16 23 24
f 16 24 25
f 16 25 26
f 16 26 27
f 17 28 29
f 17 29 18
f 18 29 19
f 19 29 30
f 19 30 31
f 19 31 20
f 21 22 32
f 22 33 24
f 22 24 23
f 22 23 34
f 22 34 32
f 24 33 25
f 25 33 35
f 25 35 36
f 25 36 26
f 26 36 37
f 26 37 27
f 27 37 39
f 27 39 38
f 28 40 41
f 28 41 29
f 29 41 42
f 29 42 30
f 30 42 43
f 30 43 44
f 30 44 31
f 31 44 45
f 35 46 47
f 35 47 36
f 36 47 48
f 36 48 37
f 37 48 49
f 37 49 39
f 38 39 51
f 38 51 50
f 39 49 51
f 40 52 42
f 40 42 41
f 42 52 53
f 42 53 43
f 43 53 54
f 43 54 44
f 44 54 55
f 44 55 56
f 44 56 57
f 44 57 45
f 45 57 58
f 46 59 49
f 46 49 60
f 46 60 61
f 46 61 47
f 47 61 60
f 47 60 48
f 48 60 49
f 49 59 62
f 49 62 63
f 49 63 64
f 49 64 65
f 49 65 51
f 50 51 66
f 50 66 67
f 51 65 66
f 54 68 69
f 54 69 55
f 55 69 70
f 55 70 56
f 56 70 57
f 57 70 71
f 57 71 72
f 57 72 73
f 57 73 58
f 63 74 75
f 63 75 64
f 64 75 65
f 65 76 77
f 65 77 78
f 65 78 79
f 65 79 80
f 65 80 66
f 65 75 76
f 66 80 81
f 66 81 82
f 66 82 67
f 68 83 84
f 68 84 69
f 69 84 85
f 69 85 70
f 70 85 71
f 71 85 84
f 71 84 78
f 71 78 72
f 72 78 86
f 72 86 87
f 74 88 75
f 75 88 89
f 75 89 76
f 76 89 90
f 76 90 87
f 76 87 86
f 76 86 77
f 77 86 78
f 78 84 91
f 78 91 79
f 79 91 92
f 79 92 93
f 79 93 80
f 80 93 81
f 81 93 92
f 83 91 84

