# https://github.com/mikedh/trimesh
v -0.00417157 -0.07842701 0.01857862
v -0.00466571 -0.07835081 0.01857862
v -0.00417157 -0.07772746 0.01857862
v -0.00417157 -0.07828212 0.01905601
v -0.00466571 -0.07824620 0.01893534
v -0.00507514 -0.07819488 0.01882146
v -0.00514396 -0.07822527 0.01857862
v -0.00535816 -0.07439434 0.01857862
v -0.00417157 -0.07439434 0.02497855
v -0.00417157 -0.07767851 0.02033434
v -0.00466571 -0.07764455 0.02022121
v -0.00513823 -0.07758573 0.02009602
v -0.00544662 -0.07805473 0.01857862
v -0.00555670 -0.07749888 0.01990748
v -0.00609143 -0.07439434 0.01857862
v -0.00417157 -0.07439434 0.02628251
v -0.00417157 -0.07692566 0.02191886
v -0.00438048 -0.07690632 0.02187889
v -0.00555449 -0.07687237 0.02119410
v -0.00436879 -0.07627625 0.02312780
v -0.00513602 -0.07695093 0.02133513
v -0.00572259 -0.07766469 0.01903489
v -0.00578833 -0.07774246 0.01857862
v -0.00565244 -0.07757784 0.01948891
v -0.00569457 -0.07698093 0.02077478
v -0.00578215 -0.07709660 0.02029135
v -0.00632283 -0.07482899 0.01857862
v -0.00628974 -0.07439434 0.01973251
v -0.00437695 -0.07439434 0.02619729
v -0.00466571 -0.07453409 0.02586168
v -0.00417157 -0.07511402 0.02516030
v -0.00417157 -0.07629678 0.02316702
v -0.00510624 -0.07631415 0.02257122
v -0.00552471 -0.07622927 0.02243396
v -0.00571200 -0.07635244 0.02201615
v -0.00417157 -0.07619137 0.02335405
v -0.00417157 -0.07578357 0.02405317
v -0.00417157 -0.07566790 0.02424926
v -0.00424349 -0.07559960 0.02433071
v -0.00466571 -0.07573146 0.02389555
v -0.00461321 -0.07604846 0.02337442
v -0.00478748 -0.07620045 0.02298979
v -0.00586355 -0.07761889 0.01857862
v -0.00579693 -0.07646930 0.02154705
v -0.00605172 -0.07658378 0.02029135
v -0.00611437 -0.07719806 0.01857862
v -0.00639033 -0.07517363 0.01857862
v -0.00634224 -0.07476109 0.01903489
v -0.00638173 -0.07439434 0.02059679
v -0.00631886 -0.07439434 0.01992180
v -0.00466571 -0.07439434 0.02607285
v -0.00518830 -0.07445592 0.02573875
v -0.00452585 -0.07506546 0.02508111
v -0.00526220 -0.07577370 0.02343098
v -0.00559707 -0.07439434 0.02561884
v -0.00564428 -0.07504415 0.02442498
v -0.00568200 -0.07570224 0.02322132
v -0.00576428 -0.07581357 0.02280275
v -0.00494454 -0.07499085 0.02498232
v -0.00529375 -0.07511876 0.02455545
v -0.00503168 -0.07566197 0.02377941
v -0.00585053 -0.07599438 0.02220545
v -0.00606429 -0.07595609 0.02154705
v -0.00616246 -0.07657826 0.01971290
v -0.00622864 -0.07688895 0.01870381
v -0.00618540 -0.07704646 0.01857862
v -0.00615540 -0.07711437 0.01857862
v -0.00641284 -0.07532839 0.01857862
v -0.00640820 -0.07439434 0.02122502
v -0.00524323 -0.07439434 0.02580587
v -0.00561428 -0.07439434 0.02559772
v -0.00570781 -0.07450448 0.02521008
v -0.00581347 -0.07535128 0.02343098
v -0.00573957 -0.07439434 0.02525985
v -0.00579208 -0.07439434 0.02505019
v -0.00591715 -0.07470029 0.02405845
v -0.00595069 -0.07439434 0.02436465
v -0.00624959 -0.07508757 0.02195129
v -0.00618915 -0.07552893 0.02154705
v -0.00625489 -0.07573382 0.02078533
v -0.00616069 -0.07594819 0.02096407
v -0.00623592 -0.07691461 0.01857862
v -0.00625577 -0.07636547 0.01953642
v -0.00639607 -0.07578515 0.01857862
v -0.00642519 -0.07532839 0.01903489
v -0.00641151 -0.07470029 0.02091958
v -0.00638680 -0.07439434 0.02185325
v -0.00627629 -0.07439434 0.02268284
v -0.00630893 -0.07439434 0.02251089
v -0.00637533 -0.07470029 0.02154705
v -0.00627673 -0.07521469 0.02154705
v -0.00630893 -0.07538208 0.02096407
v -0.00628114 -0.07585936 0.02029135
v -0.00627651 -0.07649180 0.01903489
v -0.00628820 -0.07661063 0.01857862
v -0.00637975 -0.07532839 0.02029135
v -0.00637820 -0.07595609 0.01857862
v -0.00641460 -0.07532839 0.01966312
v -0.00630540 -0.07650009 0.01857862
v -0.00635945 -0.07595609 0.01903489
f 1 2 7
f 1 7 13
f 1 13 23
f 1 23 43
f 1 43 46
f 1 46 67
f 1 67 66
f 1 66 82
f 1 82 95
f 1 95 99
f 1 99 97
f 1 97 84
f 1 84 68
f 1 68 47
f 1 47 27
f 1 27 15
f 1 15 8
f 1 8 3
f 1 3 9
f 1 9 16
f 1 16 31
f 1 31 38
f 1 38 37
f 1 37 36
f 1 36 32
f 1 32 17
f 1 17 10
f 1 10 4
f 1 4 5
f 1 5 2
f 2 5 6
f 2 6 7
f 3 8 9
f 4 10 11
f 4 11 5
f 5 11 12
f 5 12 6
f 6 13 7
f 6 12 14
f 6 14 13
f 8 15 28
f 8 28 50
f 8 50 49
f 8 49 69
f 8 69 87
f 8 87 89
f 8 89 88
f 8 88 77
f 8 77 75
f 8 75 74
f 8 74 71
f 8 71 55
f 8 55 70
f 8 70 51
f 8 51 29
f 8 29 16
f 8 16 9
f 10 17 11
f 11 17 18
f 11 18 12
f 12 19 14
f 12 18 20
f 12 20 21
f 12 21 19
f 13 22 23
f 13 14 24
f 13 24 22
f 14 19 25
f 14 25 26
f 14 26 24
f 15 27 28
f 16 29 30
f 16 30 31
f 17 32 18
f 18 32 20
f 19 21 33
f 19 33 34
f 19 34 35
f 19 35 25
f 20 32 36
f 20 36 37
f 20 37 38
f 20 38 39
f 20 39 40
f 20 40 41
f 20 41 42
f 20 42 33
f 20 33 21
f 22 24 26
f 22 26 23
f 23 26 43
f 25 35 44
f 25 44 26
f 26 45 46
f 26 46 43
f 26 44 45
f 27 47 48
f 27 48 49
f 27 49 50
f 27 50 28
f 29 51 30
f 30 51 52
f 30 52 53
f 30 53 31
f 31 53 39
f 31 39 38
f 33 42 54
f 33 54 34
f 34 54 55
f 34 55 56
f 34 56 57
f 34 57 35
f 35 57 58
f 35 58 44
f 39 53 40
f 40 53 59
f 40 59 55
f 40 55 60
f 40 60 61
f 40 61 41
f 41 54 42
f 41 61 54
f 44 58 62
f 44 62 63
f 44 63 45
f 45 64 65
f 45 65 66
f 45 66 67
f 45 67 46
f 45 63 64
f 47 68 49
f 47 49 48
f 49 68 69
f 51 70 52
f 52 70 55
f 52 55 59
f 52 59 53
f 54 61 60
f 54 60 55
f 55 71 56
f 56 71 72
f 56 72 57
f 57 72 58
f 58 72 73
f 58 73 62
f 62 73 63
f 63 73 72
f 63 72 74
f 63 74 75
f 63 75 76
f 63 76 77
f 63 77 78
f 63 78 79
f 63 79 80
f 63 80 81
f 63 81 65
f 63 65 64
f 65 82 66
f 65 81 80
f 65 80 83
f 65 83 82
f 68 84 85
f 68 85 69
f 69 85 86
f 69 86 87
f 71 74 72
f 75 77 76
f 77 88 78
f 78 88 89
f 78 89 90
f 78 90 91
f 78 91 80
f 78 80 79
f 80 92 93
f 80 93 83
f 80 91 92
f 82 83 94
f 82 94 95
f 83 93 92
f 83 92 96
f 83 96 94
f 84 97 98
f 84 98 85
f 85 98 86
f 86 98 96
f 86 96 90
f 86 90 87
f 87 90 89
f 90 96 92
f 90 92 91
f 94 96 95
f 95 96 99
f 96 98 100
f 96 100 99
f 97 99 100
f 97 100 98

