# https://github.com/mikedh/trimesh
v 0.00414316 -0.07470035 0.02029167
v 0.00408450 -0.07532808 0.01966322
v 0.00412147 -0.07532808 0.01903555
v 0.00413725 -0.07470035 0.01966322
v 0.00413823 -0.07448821 0.02029167
v 0.00411112 -0.07448821 0.02091934
v 0.00408992 -0.07470035 0.02091934
v 0.00401597 -0.07470035 0.02154702
v 0.00400611 -0.07532808 0.02029167
v 0.00403963 -0.07597161 0.01857787
v 0.00410175 -0.07532808 0.01857787
v 0.00410570 -0.07448821 0.01966322
v 0.00406379 -0.07470035 0.01903555
v 0.00405640 -0.07448821 0.02154702
v 0.00397949 -0.07448821 0.02216393
v 0.00389075 -0.07448821 0.02280237
v 0.00387941 -0.07452535 0.02280237
v 0.00391688 -0.07472247 0.02215700
v 0.00390554 -0.07534586 0.02088165
v 0.00395632 -0.07601704 0.01909401
v 0.00388089 -0.07643183 0.01857787
v 0.00398688 -0.07470035 0.01857787
v 0.00401400 -0.07448821 0.01902401
v 0.00386265 -0.07448821 0.02295698
v 0.00382912 -0.07504839 0.02193547
v 0.00386708 -0.07514043 0.02154702
v 0.00391195 -0.07588114 0.01966322
v 0.00385032 -0.07635994 0.01892324
v 0.00373841 -0.07672970 0.01857787
v 0.00372017 -0.07657484 0.01909401
v 0.00393610 -0.07448821 0.01857787
v 0.00381828 -0.07448821 0.02314236
v 0.00370932 -0.07545449 0.02154702
v 0.00370932 -0.07605417 0.02029167
v 0.00382025 -0.07566071 0.02064704
v 0.00338690 -0.07714963 0.01903555
v 0.00364671 -0.07688140 0.01857787
v 0.00357079 -0.07658393 0.01966322
v 0.00321435 -0.07448821 0.01857787
v 0.00378130 -0.07448821 0.02325313
v 0.00370242 -0.07483941 0.02280237
v 0.00362206 -0.07528581 0.02215700
v 0.00329668 -0.07701176 0.01966322
v 0.00318379 -0.07752532 0.01871940
v 0.00341500 -0.07725037 0.01857787
v -0.00089332 -0.07781923 0.01857787
v -0.00089332 -0.07448821 0.02513308
v 0.00361171 -0.07466361 0.02341697
v 0.00328091 -0.07448821 0.02467925
v 0.00329816 -0.07638364 0.02091934
v 0.00321583 -0.07629673 0.02128703
v 0.00321534 -0.07692248 0.02002706
v 0.00293285 -0.07747515 0.01909708
v 0.00276523 -0.07762882 0.01892940
v 0.00178465 -0.07817873 0.01857787
v 0.00304230 -0.07762685 0.01857787
v 0.00331788 -0.07738389 0.01857787
v -0.00089332 -0.07783622 0.01857787
v -0.00089332 -0.07448821 0.02643535
v 0.00329274 -0.07575473 0.02217547
v 0.00327253 -0.07448821 0.02470309
v 0.00321287 -0.07504088 0.02380004
v 0.00321534 -0.07566979 0.02254469
v 0.00281108 -0.07635085 0.02151625
v 0.00281650 -0.07509895 0.02402926
v 0.00281354 -0.07572549 0.02277314
v 0.00287073 -0.07724563 0.01966322
v 0.00255521 -0.07752413 0.01934785
v 0.00144646 -0.07820914 0.01883324
v 0.00156872 -0.07826998 0.01857787
v -0.00072619 -0.07851254 0.01857787
v -0.00089332 -0.07852360 0.01858094
v -0.00089332 -0.07449137 0.02643074
v -0.00088346 -0.07448821 0.02643535
v 0.00312808 -0.07448821 0.02496462
v 0.00280812 -0.07697542 0.02025859
v 0.00257099 -0.07501955 0.02438387
v 0.00287024 -0.07448821 0.02518462
v 0.00073210 -0.07754389 0.02064627
v 0.00098698 -0.07825655 0.01894555
v 0.00098698 -0.07839956 0.01857787
v 0.00117136 -0.07836282 0.01857787
v 0.00097515 -0.07640537 0.02280852
v 0.00075478 -0.07692880 0.02192393
v -0.00089332 -0.07837230 0.01903555
v -0.00026918 -0.07448940 0.02642766
v -0.00089332 -0.07518468 0.02528308
v -0.00026524 -0.07448821 0.02642920
v 0.00224265 -0.07508196 0.02449387
v 0.00075773 -0.07630265 0.02317467
v 0.00286679 -0.07448821 0.02518692
v 0.00035890 -0.07756364 0.02069243
v 0.00035890 -0.07773825 0.02029167
v 0.00035890 -0.07696594 0.02201162
v 0.00034115 -0.07826405 0.01908478
v -0.00026918 -0.07832845 0.01903555
v 0.00035890 -0.07634808 0.02325005
v 0.00011979 -0.07815937 0.01936169
v -0.00026918 -0.07758576 0.02074319
v -0.00089332 -0.07819492 0.01944323
v -0.00019918 -0.07448821 0.02642612
v -0.00026918 -0.07518270 0.02528000
v -0.00089332 -0.07549874 0.02476232
v -0.00026918 -0.07568638 0.02444617
v 0.00145533 -0.07570061 0.02384927
v 0.00239548 -0.07448821 0.02547769
v 0.00092782 -0.07575275 0.02405849
v 0.00067885 -0.07564411 0.02437618
v -0.00026918 -0.07699714 0.02207393
v -0.00026918 -0.07637574 0.02329544
v 0.00035890 -0.07566505 0.02441079
v -0.00089332 -0.07760788 0.02078781
v 0.00033671 -0.07448821 0.02639536
v -0.00089332 -0.07568757 0.02444848
v 0.00035890 -0.07448821 0.02639382
v 0.00217412 -0.07448821 0.02560076
v 0.00205137 -0.07448821 0.02566768
v 0.00139617 -0.07504206 0.02504847
v 0.00178613 -0.07448821 0.02580383
v 0.00098698 -0.07510211 0.02515154
v 0.00091845 -0.07448821 0.02623459
v 0.00077795 -0.07448821 0.02628382
v 0.00035890 -0.07516492 0.02525461
v -0.00089332 -0.07700386 0.02207239
v -0.00089332 -0.07637139 0.02329236
v 0.00161506 -0.07451310 0.02584691
f 1 2 3
f 1 3 4
f 1 4 5
f 1 5 6
f 1 6 7
f 1 7 2
f 2 7 8
f 2 8 9
f 2 9 10
f 2 10 3
f 3 10 11
f 3 11 4
f 4 12 5
f 4 11 13
f 4 13 12
f 5 12 23
f 5 23 31
f 5 31 39
f 5 39 47
f 5 47 59
f 5 59 74
f 5 74 88
f 5 88 101
f 5 101 113
f 5 113 115
f 5 115 122
f 5 122 121
f 5 121 119
f 5 119 117
f 5 117 116
f 5 116 106
f 5 106 91
f 5 91 78
f 5 78 75
f 5 75 61
f 5 61 49
f 5 49 40
f 5 40 32
f 5 32 24
f 5 24 16
f 5 16 15
f 5 15 14
f 5 14 6
f 6 14 7
f 7 14 8
f 8 14 15
f 8 15 16
f 8 16 17
f 8 17 18
f 8 18 9
f 9 19 20
f 9 20 10
f 9 18 19
f 10 20 21
f 10 21 29
f 10 29 37
f 10 37 45
f 10 45 57
f 10 57 56
f 10 56 55
f 10 55 70
f 10 70 82
f 10 82 81
f 10 81 71
f 10 71 58
f 10 58 46
f 10 46 39
f 10 39 31
f 10 31 22
f 10 22 11
f 11 22 13
f 12 13 23
f 13 22 23
f 16 24 17
f 17 24 25
f 17 25 26
f 17 26 19
f 17 19 18
f 19 27 20
f 19 26 27
f 20 28 21
f 20 27 28
f 21 28 30
f 21 30 29
f 22 31 23
f 24 32 25
f 25 33 34
f 25 34 35
f 25 35 26
f 25 32 33
f 26 35 27
f 27 35 28
f 28 35 30
f 29 30 36
f 29 36 37
f 30 35 34
f 30 34 38
f 30 38 36
f 32 40 41
f 32 41 33
f 33 41 42
f 33 42 43
f 33 43 38
f 33 38 34
f 36 44 45
f 36 45 37
f 36 38 43
f 36 43 44
f 39 46 47
f 40 48 41
f 40 49 48
f 41 48 42
f 42 48 50
f 42 50 43
f 43 50 51
f 43 51 52
f 43 52 44
f 44 52 53
f 44 53 54
f 44 54 55
f 44 55 56
f 44 56 57
f 44 57 45
f 46 58 72
f 46 72 85
f 46 85 100
f 46 100 112
f 46 112 124
f 46 124 125
f 46 125 114
f 46 114 103
f 46 103 87
f 46 87 73
f 46 73 59
f 46 59 47
f 48 60 50
f 48 49 61
f 48 61 62
f 48 62 60
f 50 60 62
f 50 62 63
f 50 63 51
f 51 64 52
f 51 63 65
f 51 65 66
f 51 66 64
f 52 67 54
f 52 54 53
f 52 64 67
f 54 67 68
f 54 68 69
f 54 69 70
f 54 70 55
f 58 71 72
f 59 73 74
f 61 75 62
f 62 75 65
f 62 65 63
f 64 69 76
f 64 76 67
f 64 66 77
f 64 77 69
f 65 75 78
f 65 78 77
f 65 77 66
f 67 76 68
f 68 76 69
f 69 79 80
f 69 80 81
f 69 81 82
f 69 82 70
f 69 77 83
f 69 83 84
f 69 84 79
f 71 81 72
f 72 81 85
f 73 86 74
f 73 87 102
f 73 102 86
f 74 86 88
f 77 78 89
f 77 89 90
f 77 90 83
f 78 91 89
f 79 92 93
f 79 93 80
f 79 84 94
f 79 94 92
f 80 95 81
f 80 93 95
f 81 95 96
f 81 96 85
f 83 90 84
f 84 90 97
f 84 97 94
f 85 96 98
f 85 98 93
f 85 93 99
f 85 99 100
f 86 101 88
f 86 102 101
f 87 103 104
f 87 104 102
f 89 105 90
f 89 91 106
f 89 106 105
f 90 105 106
f 90 106 107
f 90 107 108
f 90 108 97
f 92 99 93
f 92 94 109
f 92 109 99
f 93 98 95
f 94 97 109
f 95 98 96
f 97 110 109
f 97 108 111
f 97 111 110
f 99 112 100
f 99 109 112
f 101 102 104
f 101 104 113
f 103 114 104
f 104 115 113
f 104 114 110
f 104 110 115
f 106 116 107
f 107 116 117
f 107 117 118
f 107 118 108
f 108 118 119
f 108 119 120
f 108 120 121
f 108 121 122
f 108 122 115
f 108 115 123
f 108 123 111
f 109 110 124
f 109 124 112
f 110 125 124
f 110 111 123
f 110 123 115
f 110 114 125
f 117 119 118
f 119 126 120
f 119 121 126
f 120 126 121

