# https://github.com/mikedh/trimesh
v 0.02317197 -0.00903206 -0.00404154
v 0.02715799 -0.01099557 -0.00404154
v 0.02317197 -0.00896901 -0.00423257
v 0.02317197 -0.05315715 -0.00404154
v 0.03023695 -0.01074788 -0.00971911
v 0.02770882 -0.02354227 -0.00404154
v 0.02317197 -0.01077490 -0.01759210
v 0.02317197 -0.05393625 -0.00944850
v 0.02847185 -0.05349942 -0.01016748
v 0.02531628 -0.05293648 -0.00404154
v 0.02901732 -0.01314823 -0.01759210
v 0.02830101 -0.04106080 -0.00404154
v 0.03073798 -0.02955441 -0.01000299
v 0.03099845 -0.03154045 -0.01759210
v 0.02317197 -0.05497656 -0.01759210
v 0.02943637 -0.05445865 -0.01759210
v 0.02819376 -0.05085137 -0.00404154
f 1 2 3
f 1 3 7
f 1 7 15
f 1 15 8
f 1 8 4
f 1 4 10
f 1 10 17
f 1 17 12
f 1 12 6
f 1 6 2
f 2 5 3
f 2 6 5
f 3 5 7
f 4 8 9
f 4 9 10
f 5 11 7
f 5 6 12
f 5 12 13
f 5 13 14
f 5 14 11
f 7 11 14
f 7 14 16
f 7 16 15
f 8 15 16
f 8 16 9
f 9 16 17
f 9 17 10
f 12 17 13
f 13 17 16
f 13 16 14

