# https://github.com/mikedh/trimesh
v 0.01874730 0.03854370 -0.01097018
v 0.01725709 0.04197000 -0.01613524
v -0.00149788 0.03681783 -0.01097018
v 0.01900448 0.03814039 -0.01097018
v 0.02305688 0.03621105 -0.01731991
v 0.01913186 0.04191550 -0.03000311
v -0.00149788 0.04037494 -0.03088186
v -0.00149788 0.04052390 -0.01685450
v 0.02305688 0.03818399 -0.02477947
v -0.00149788 0.00485476 -0.01097018
v 0.02074225 0.02956919 -0.01097018
v 0.02305688 0.03211621 -0.01333302
v 0.02305688 0.03221067 -0.03997523
v 0.02219400 0.03339880 -0.03916808
v 0.01565392 0.03769712 -0.03539599
v -0.00149788 0.03665070 -0.03563684
v -0.00149788 0.00485476 -0.03912577
v 0.02160753 0.00485476 -0.01097018
v 0.02305688 0.01600205 -0.01167642
v 0.02305688 0.02531447 -0.04394910
v -0.00149788 0.03353687 -0.03732923
v 0.00587143 0.00485476 -0.03917785
v -0.00149788 0.00765249 -0.03953260
v 0.02305688 0.01678687 -0.04359435
v 0.02305688 0.01404365 -0.04294993
v 0.02221323 0.00485476 -0.01640537
v 0.02305688 0.01239408 -0.01185868
v 0.02305688 0.02175737 -0.04421923
v -0.00149788 0.01709934 -0.04050247
v -0.00149788 0.02843920 -0.03958793
v 0.01212309 0.00485476 -0.03906068
v 0.02305688 0.00937472 -0.03964326
v 0.02305688 0.00485476 -0.02599018
v 0.02027596 0.00485476 -0.03663926
v 0.02305688 0.00535617 -0.03430245
v 0.02218438 0.00485476 -0.03457909
v 0.02305688 0.00485476 -0.03318286
f 1 2 3
f 1 3 10
f 1 10 18
f 1 18 11
f 1 11 4
f 1 4 5
f 1 5 2
f 2 6 7
f 2 7 8
f 2 8 3
f 2 5 9
f 2 9 6
f 3 8 7
f 3 7 16
f 3 16 21
f 3 21 30
f 3 30 29
f 3 29 23
f 3 23 17
f 3 17 10
f 4 11 12
f 4 12 5
f 5 12 19
f 5 19 27
f 5 27 33
f 5 33 37
f 5 37 35
f 5 35 32
f 5 32 25
f 5 25 24
f 5 24 28
f 5 28 20
f 5 20 13
f 5 13 9
f 6 9 13
f 6 13 14
f 6 14 15
f 6 15 7
f 7 15 16
f 10 17 22
f 10 22 31
f 10 31 34
f 10 34 36
f 10 36 37
f 10 37 33
f 10 33 26
f 10 26 18
f 11 18 19
f 11 19 12
f 13 20 16
f 13 16 14
f 14 16 15
f 16 20 21
f 17 23 24
f 17 24 25
f 17 25 22
f 18 26 27
f 18 27 19
f 20 28 29
f 20 29 30
f 20 30 21
f 22 25 31
f 23 29 28
f 23 28 24
f 25 32 31
f 26 33 27
f 31 32 34
f 32 35 36
f 32 36 34
f 35 37 36

