# https://github.com/mikedh/trimesh
v -0.02332171 -0.05133099 -0.01880764
v -0.02330817 -0.05492863 -0.01880764
v -0.02332171 -0.04989794 -0.01437713
v -0.02332171 -0.01455785 -0.01880764
v -0.02016853 -0.05773961 -0.01880764
v -0.02165145 -0.05586562 -0.00404022
v -0.02332171 -0.04448143 -0.00404022
v -0.02332171 -0.01419208 -0.01792443
v -0.02287706 -0.00680638 -0.01880764
v -0.01967422 -0.05793001 -0.01880764
v -0.01968776 -0.05786988 -0.01797502
v -0.02077118 -0.05606605 -0.00404022
v -0.02332171 -0.01277406 -0.00404022
v -0.02332171 -0.01349560 -0.01623606
v -0.02237598 -0.00680638 -0.00565342
v -0.00026305 -0.00680638 -0.01880764
v -0.02332171 -0.01289432 -0.00610442
v -0.01827255 -0.05799013 -0.01880764
v -0.00026305 -0.05515411 -0.00404022
v -0.01065028 -0.05786487 -0.01880764
v -0.00026305 -0.05763438 -0.01880764
v -0.02230150 -0.00680638 -0.00404022
v -0.00026305 -0.00680638 -0.00404022
f 1 2 3
f 1 3 7
f 1 7 13
f 1 13 17
f 1 17 14
f 1 14 8
f 1 8 4
f 1 4 9
f 1 9 16
f 1 16 21
f 1 21 20
f 1 20 18
f 1 18 10
f 1 10 5
f 1 5 2
f 2 5 6
f 2 6 7
f 2 7 3
f 4 8 9
f 5 10 11
f 5 11 6
f 6 11 12
f 6 12 19
f 6 19 23
f 6 23 22
f 6 22 13
f 6 13 7
f 8 14 9
f 9 15 22
f 9 22 23
f 9 23 16
f 9 14 17
f 9 17 13
f 9 13 15
f 10 18 11
f 11 18 12
f 12 18 20
f 12 20 21
f 12 21 19
f 13 22 15
f 16 23 19
f 16 19 21

