# https://github.com/mikedh/trimesh
v 0.01356537 0.04801036 0.00202564
v 0.01554937 0.04304242 0.00202564
v 0.01431388 0.04493888 -0.00249580
v 0.00180112 0.04579542 0.00202564
v 0.01762356 0.02336367 -0.00241212
v 0.01808800 0.02336367 -0.00331578
v 0.01480988 0.02904098 0.00202564
v 0.01614457 0.03298831 -0.00331578
v 0.00916899 0.03490889 -0.00331578
v -0.00181067 0.03723241 -0.00331578
v -0.00255468 0.03722035 -0.00331578
v -0.02165524 0.03371938 -0.00331578
v -0.01907152 0.03891895 -0.00171398
v -0.00322202 0.04244405 -0.00131968
v -0.00443948 0.04457213 0.00202564
v 0.01532842 0.02336367 0.00021100
v -0.02223691 0.02336367 -0.00331578
v 0.01319111 0.02336367 0.00202564
v -0.02220986 0.03347328 -0.00331578
v -0.02797700 0.03796349 -0.00051224
v -0.02760274 0.03985029 0.00202564
v -0.02078949 0.02336367 0.00202564
v -0.02199342 0.02532286 0.00202564
v -0.02731867 0.03469174 0.00202564
v -0.02297190 0.02864045 -0.00331578
f 1 2 3
f 1 3 4
f 1 4 15
f 1 15 21
f 1 21 24
f 1 24 23
f 1 23 22
f 1 22 18
f 1 18 7
f 1 7 2
f 2 5 6
f 2 6 3
f 2 7 5
f 3 6 8
f 3 8 9
f 3 9 10
f 3 10 11
f 3 11 12
f 3 12 13
f 3 13 14
f 3 14 4
f 4 14 15
f 5 16 18
f 5 18 22
f 5 22 17
f 5 17 6
f 5 7 16
f 6 17 25
f 6 25 19
f 6 19 12
f 6 12 11
f 6 11 10
f 6 10 9
f 6 9 8
f 7 18 16
f 12 19 13
f 13 19 20
f 13 20 14
f 14 20 21
f 14 21 15
f 17 22 23
f 17 23 24
f 17 24 20
f 17 20 25
f 19 25 20
f 20 24 21

