# https://github.com/mikedh/trimesh
v 0.02187428 -0.00680620 -0.00403651
v 0.02187428 -0.00680620 -0.00404022
v 0.02181561 -0.00680620 -0.00341246
v 0.02580529 -0.01016741 0.00227819
v 0.02715473 -0.01099204 -0.00404022
v -0.02230011 -0.00680620 -0.00404022
v 0.01908472 -0.00680620 0.00195225
v 0.02624266 -0.01308497 0.00227819
v 0.01937274 -0.00818541 0.00227819
v 0.02797613 -0.04190847 0.00227819
v 0.02770411 -0.02354476 -0.00404022
v -0.02618844 -0.01408803 -0.00404022
v -0.02224678 -0.00680620 -0.00290963
v 0.00795311 -0.00680620 0.00227819
v 0.02790680 -0.04812454 0.00227819
v 0.02830150 -0.04105972 -0.00404022
v -0.02391625 -0.04057749 -0.00404022
v -0.02360156 -0.04353844 0.00227819
v -0.02564439 -0.01669694 0.00227819
v -0.02560706 -0.01653298 0.00227819
v -0.02493500 -0.01381315 0.00227819
v -0.02464165 -0.01314766 0.00227819
v -0.01885982 -0.00680620 -0.00117788
v -0.00954170 -0.00680620 0.00227819
v 0.02531458 -0.05293730 -0.00404022
v 0.02818949 -0.05085403 -0.00404022
v 0.02205564 -0.05235861 0.00227819
v -0.02164939 -0.05586450 -0.00404022
v -0.02254013 -0.05047788 0.00227819
v -0.02203876 -0.01184079 0.00227819
v -0.01851846 -0.00680620 -0.00103749
v 0.02011414 -0.05255633 0.00227819
v 0.00910521 -0.05458656 -0.00404022
v -0.02076932 -0.05606704 -0.00404022
v -0.02156939 -0.05606222 -0.00329557
v -0.02041729 -0.05413808 0.00227819
v 0.01921273 -0.05262385 0.00227819
v -0.00421325 -0.05436473 0.00227819
v 0.00157390 -0.05514596 -0.00404022
v -0.00662412 -0.05447082 0.00227819
f 1 2 6
f 1 6 13
f 1 13 23
f 1 23 31
f 1 31 24
f 1 24 14
f 1 14 7
f 1 7 3
f 1 3 4
f 1 4 5
f 1 5 2
f 2 5 11
f 2 11 16
f 2 16 26
f 2 26 25
f 2 25 33
f 2 33 39
f 2 39 34
f 2 34 28
f 2 28 17
f 2 17 12
f 2 12 6
f 3 7 4
f 4 8 5
f 4 7 9
f 4 9 14
f 4 14 24
f 4 24 30
f 4 30 22
f 4 22 21
f 4 21 20
f 4 20 19
f 4 19 18
f 4 18 29
f 4 29 36
f 4 36 40
f 4 40 38
f 4 38 37
f 4 37 32
f 4 32 27
f 4 27 15
f 4 15 10
f 4 10 8
f 5 8 10
f 5 10 11
f 6 12 13
f 7 14 9
f 10 15 16
f 10 16 11
f 12 17 18
f 12 18 19
f 12 19 20
f 12 20 21
f 12 21 22
f 12 22 13
f 13 22 23
f 15 25 26
f 15 26 16
f 15 27 25
f 17 28 18
f 18 28 29
f 22 30 23
f 23 30 31
f 24 31 30
f 25 27 32
f 25 32 33
f 28 34 35
f 28 35 29
f 29 35 36
f 32 37 33
f 33 37 38
f 33 38 39
f 34 39 35
f 35 39 38
f 35 38 40
f 35 40 36

