# https://github.com/mikedh/trimesh
v -0.01107202 0.01671962 0.00514415
v -0.01107202 0.01707052 0.00202616
v -0.00613791 0.00855929 0.00202616
v -0.00755764 0.01139909 0.00514415
v -0.01107202 0.04542359 0.00514415
v -0.01107202 0.04321214 0.00202616
v -0.00545224 0.00845321 0.00202616
v -0.00457835 0.01093395 0.00514415
v -0.00556786 0.04655380 0.00514415
v -0.01107202 0.04471772 0.00414795
v -0.00443315 0.04457084 0.00202616
v 0.00763189 0.01345957 0.00202616
v -0.00146731 0.01193359 0.00514415
v -0.00422073 0.01088091 0.00514415
v 0.00180776 0.04579489 0.00202616
v 0.00648642 0.04891621 0.00514415
v 0.00537054 0.01455306 0.00514415
v 0.01300160 0.01903716 0.00202616
v 0.01356627 0.04801042 0.00202616
v 0.01305000 0.05013210 0.00514415
v 0.01462838 0.02493708 0.00514415
v 0.01562865 0.02637330 0.00514415
v 0.01481122 0.02904173 0.00202616
v 0.01576040 0.02656506 0.00514415
v 0.01336460 0.04934463 0.00514415
v 0.01555067 0.04304078 0.00202616
v 0.01588947 0.02949462 0.00514415
v 0.01496987 0.04532159 0.00514415
v 0.01629818 0.04189425 0.00475776
v 0.01639498 0.04109862 0.00514415
v 0.01605887 0.03337894 0.00514415
v 0.01639767 0.04135158 0.00514415
f 1 2 3
f 1 3 4
f 1 4 8
f 1 8 14
f 1 14 13
f 1 13 17
f 1 17 21
f 1 21 22
f 1 22 24
f 1 24 27
f 1 27 31
f 1 31 30
f 1 30 32
f 1 32 28
f 1 28 25
f 1 25 20
f 1 20 16
f 1 16 9
f 1 9 5
f 1 5 10
f 1 10 6
f 1 6 2
f 2 6 11
f 2 11 15
f 2 15 19
f 2 19 26
f 2 26 23
f 2 23 18
f 2 18 12
f 2 12 7
f 2 7 3
f 3 7 8
f 3 8 4
f 5 9 10
f 6 10 9
f 6 9 11
f 7 12 13
f 7 13 14
f 7 14 8
f 9 15 11
f 9 16 15
f 12 17 13
f 12 18 17
f 15 16 19
f 16 20 19
f 17 18 21
f 18 22 21
f 18 23 24
f 18 24 22
f 19 20 25
f 19 25 26
f 23 26 24
f 24 26 27
f 25 28 29
f 25 29 26
f 26 29 30
f 26 30 31
f 26 31 27
f 28 32 29
f 29 32 30

