# https://github.com/mikedh/trimesh
v -0.01109860 0.01557004 0.00856113
v -0.01109860 0.01672515 0.00514415
v -0.00755854 0.01139726 0.00514415
v -0.00911524 0.01451086 0.00856113
v -0.01109860 0.04784516 0.00856113
v -0.01109860 0.04541903 0.00514415
v -0.00457966 0.01093362 0.00514415
v -0.00287113 0.01353961 0.00856113
v -0.00680902 0.04872448 0.00856113
v -0.01109860 0.04743347 0.00797714
v -0.00792561 0.04607053 0.00514415
v -0.00422027 0.01088166 0.00514415
v -0.00146817 0.01193285 0.00514415
v 0.00537172 0.01455083 0.00514415
v 0.00289444 0.01574990 0.00856113
v 0.00853509 0.05171017 0.00856113
v 0.00853509 0.05028328 0.00650746
v -0.00556750 0.04655415 0.00514415
v 0.00853509 0.02106581 0.00514415
v 0.00853509 0.02060216 0.00856113
v 0.00853509 0.04973170 0.00574787
v 0.00787205 0.04917214 0.00514415
v 0.00648639 0.04891633 0.00514415
v 0.00853509 0.04929204 0.00514415
f 1 2 3
f 1 3 4
f 1 4 8
f 1 8 15
f 1 15 20
f 1 20 16
f 1 16 9
f 1 9 5
f 1 5 10
f 1 10 6
f 1 6 2
f 2 6 11
f 2 11 18
f 2 18 23
f 2 23 22
f 2 22 24
f 2 24 19
f 2 19 14
f 2 14 13
f 2 13 12
f 2 12 7
f 2 7 3
f 3 7 4
f 4 7 8
f 5 9 10
f 6 10 11
f 7 12 8
f 8 12 13
f 8 13 14
f 8 14 15
f 9 16 17
f 9 17 18
f 9 18 10
f 10 18 11
f 14 19 20
f 14 20 15
f 16 20 19
f 16 19 24
f 16 24 21
f 16 21 17
f 17 21 22
f 17 22 23
f 17 23 18
f 21 24 22

