# https://github.com/mikedh/trimesh
v -0.00713505 -0.00961319 0.00699609
v -0.01133736 -0.00961319 0.02015844
v -0.00627744 -0.00680137 0.00699609
v 0.02516839 -0.00961319 0.00699609
v -0.01034395 -0.00837022 0.02016101
v -0.01044044 -0.00680137 0.02016101
v -0.00409410 -0.00961319 0.02016101
v 0.00619369 -0.00680137 0.00699609
v 0.02512908 -0.00936603 0.00699609
v 0.02373903 -0.00772314 0.01672545
v 0.02432149 -0.00961319 0.01417520
v 0.00778028 -0.00680137 0.02016101
v 0.02318516 -0.00961319 0.02016101
v 0.02087317 -0.00857637 0.00699609
v 0.02292787 -0.00782938 0.02016101
v 0.02381050 -0.00961319 0.01756179
v 0.02409280 -0.00961319 0.01610561
f 1 2 3
f 1 3 8
f 1 8 14
f 1 14 9
f 1 9 4
f 1 4 11
f 1 11 17
f 1 17 16
f 1 16 13
f 1 13 7
f 1 7 2
f 2 5 6
f 2 6 3
f 2 7 5
f 3 6 12
f 3 12 8
f 4 9 10
f 4 10 11
f 5 7 13
f 5 13 15
f 5 15 12
f 5 12 6
f 8 12 10
f 8 10 14
f 9 14 10
f 10 15 16
f 10 16 17
f 10 17 11
f 10 12 15
f 13 16 15

