# https://github.com/mikedh/trimesh
v -0.01134296 0.00833157 0.02425550
v 0.02079825 0.00833157 0.02425550
v -0.01134296 0.00833157 0.04248012
v -0.01134296 0.03749217 0.02425550
v 0.02245610 0.00833157 0.02914226
v 0.02125821 0.01467186 0.02425550
v -0.00527740 0.00833157 0.04505438
v -0.01016162 0.03343764 0.02753762
v -0.01134296 0.03658398 0.02497702
v -0.00043289 0.04028816 0.02425550
v 0.02223770 0.00919894 0.04283292
v 0.02230720 0.00833157 0.04163115
v 0.01718472 0.03530164 0.02425550
v 0.00265781 0.00833157 0.04555967
v 0.01585446 0.00994385 0.04750800
v 0.00047050 0.03533905 0.02790179
v 0.01085112 0.04308075 0.02425550
v 0.01700272 0.03556355 0.02425550
v 0.01576181 0.02301561 0.03836496
v 0.01394181 0.00833157 0.04564844
f 1 2 5
f 1 5 12
f 1 12 20
f 1 20 14
f 1 14 7
f 1 7 3
f 1 3 9
f 1 9 4
f 1 4 10
f 1 10 17
f 1 17 18
f 1 18 13
f 1 13 6
f 1 6 2
f 2 6 5
f 3 7 8
f 3 8 9
f 4 9 10
f 5 6 11
f 5 11 12
f 6 13 11
f 7 14 15
f 7 15 8
f 8 16 17
f 8 17 10
f 8 10 9
f 8 15 16
f 11 15 12
f 11 13 18
f 11 18 19
f 11 19 15
f 12 15 20
f 14 20 15
f 15 19 17
f 15 17 16
f 17 19 18

