# https://github.com/mikedh/trimesh
v 0.02305688 0.00485439 -0.03318042
v 0.02305688 0.00535690 -0.03430218
v 0.02490824 0.00485439 -0.03021886
v 0.02305688 0.00485439 -0.02599326
v 0.02829264 0.00837845 -0.03265429
v 0.02305688 0.00937693 -0.03964291
v 0.02801166 0.01441176 -0.01270429
v 0.02305688 0.01239196 -0.01186049
v 0.02730260 0.01628799 -0.04422920
v 0.02892643 0.02411923 -0.04548000
v 0.02305688 0.01404304 -0.04295192
v 0.02701473 0.02526781 -0.01196307
v 0.02305688 0.01600085 -0.01167519
v 0.02305688 0.01678397 -0.04359387
v 0.02305688 0.02175354 -0.04421596
v 0.02305688 0.02531675 -0.04394793
v 0.02305688 0.03221150 -0.03997712
v 0.02636773 0.03741927 -0.02291589
v 0.02305688 0.03211687 -0.01333300
v 0.02305688 0.03818608 -0.02478217
v 0.02305688 0.03621196 -0.01731705
f 1 2 3
f 1 3 4
f 1 4 8
f 1 8 13
f 1 13 19
f 1 19 21
f 1 21 20
f 1 20 17
f 1 17 16
f 1 16 15
f 1 15 14
f 1 14 11
f 1 11 6
f 1 6 2
f 2 5 3
f 2 6 5
f 3 7 4
f 3 5 7
f 4 7 8
f 5 6 9
f 5 9 10
f 5 10 7
f 6 11 9
f 7 12 13
f 7 13 8
f 7 10 12
f 9 11 14
f 9 14 10
f 10 14 15
f 10 15 16
f 10 16 17
f 10 17 18
f 10 18 12
f 12 19 13
f 12 18 19
f 17 20 18
f 18 20 21
f 18 21 19

