# https://github.com/mikedh/trimesh
v 0.02319359 -0.00966820 0.02016101
v 0.02156138 -0.00966820 0.02693795
v 0.02404156 -0.01549174 0.02016101
v -0.01199469 -0.00966820 0.02016101
v 0.02121827 -0.00966820 0.02735343
v 0.02459544 -0.04321098 0.03123510
v 0.02453662 -0.02831909 0.02583534
v 0.02501697 -0.02333306 0.02016101
v -0.01932742 -0.01027588 0.02016101
v -0.01590613 -0.00966820 0.02496661
v 0.02039481 -0.00966820 0.02759603
v 0.01086618 -0.02672979 0.03350570
v 0.01967428 -0.03898064 0.03309167
v 0.02541400 -0.04729719 0.02371582
v 0.00722922 -0.04187098 0.03391391
v -0.00360322 -0.04721928 0.02920855
v 0.02513461 -0.03698233 0.02016101
v -0.02347903 -0.01136268 0.02016101
v -0.02429269 -0.01171715 0.02248101
v -0.01563164 -0.00966820 0.02613460
v -0.00846556 -0.00966820 0.02684207
v -0.02011657 -0.01279227 0.02767303
v 0.00644007 -0.03706024 0.03500200
v -0.00710783 -0.03261176 0.03406354
v -0.00071620 -0.04794771 0.02016101
v 0.02339456 -0.04578970 0.02016101
v 0.02426214 -0.04486260 0.02016101
v -0.02091062 -0.04946300 0.02477049
v -0.01170059 -0.04371737 0.03257305
v -0.02452307 -0.01287796 0.02016101
v -0.02466031 -0.04471848 0.02016101
v -0.02134686 -0.04436789 0.02997414
v -0.01513168 -0.00966820 0.02654426
v -0.01745502 -0.02864630 0.03098668
v -0.00449530 -0.04801783 0.02016101
v -0.02029302 -0.04785422 0.02016101
f 1 2 3
f 1 3 8
f 1 8 17
f 1 17 27
f 1 27 26
f 1 26 25
f 1 25 35
f 1 35 36
f 1 36 31
f 1 31 30
f 1 30 18
f 1 18 9
f 1 9 4
f 1 4 10
f 1 10 20
f 1 20 33
f 1 33 21
f 1 21 11
f 1 11 5
f 1 5 2
f 2 5 6
f 2 6 7
f 2 7 3
f 3 7 8
f 4 9 10
f 5 11 12
f 5 12 13
f 5 13 6
f 6 14 8
f 6 8 7
f 6 13 15
f 6 15 16
f 6 16 14
f 8 14 17
f 9 18 10
f 10 18 19
f 10 19 20
f 11 21 22
f 11 22 12
f 12 23 13
f 12 22 24
f 12 24 23
f 13 23 15
f 14 25 26
f 14 26 27
f 14 27 17
f 14 16 28
f 14 28 25
f 15 23 29
f 15 29 16
f 16 29 28
f 18 30 19
f 19 30 31
f 19 31 32
f 19 32 22
f 19 22 33
f 19 33 20
f 21 33 22
f 22 32 34
f 22 34 24
f 23 24 29
f 24 34 32
f 24 32 29
f 25 28 35
f 28 29 32
f 28 32 31
f 28 31 36
f 28 36 35

