# https://github.com/mikedh/trimesh
v 0.02516739 -0.00961319 0.00699609
v 0.02409212 -0.00961319 0.01610561
v 0.02596351 -0.01493603 0.00699609
v -0.00713216 -0.00961319 0.00699609
v 0.02381296 -0.00961319 0.01756179
v 0.02557579 -0.01750118 0.01352314
v 0.02708014 -0.03731472 0.01057984
v 0.02730760 -0.03731472 0.00699609
v -0.02206191 -0.01147876 0.00699609
v -0.02210844 -0.01076832 0.01625638
v -0.01932720 -0.01027481 0.02016101
v -0.01133503 -0.00961319 0.02015844
v 0.02318744 -0.00961319 0.02016101
v 0.02404043 -0.01548919 0.02016101
v 0.02501748 -0.02333380 0.02016101
v 0.02527596 -0.03731472 0.01969065
v -0.02148292 -0.03731472 0.00699609
v -0.02378855 -0.01234375 0.00699609
v -0.02347838 -0.01136216 0.02016101
v -0.01133503 -0.00961590 0.02016101
v -0.00409244 -0.00961319 0.02016101
v 0.02513638 -0.03698391 0.02016101
v 0.02507434 -0.03731472 0.02016101
v -0.02356626 -0.03731472 0.00699738
v -0.02368516 -0.03231728 0.00699609
v -0.02514298 -0.01542682 0.00699609
v -0.02452263 -0.01287522 0.02016101
v -0.02275980 -0.03731472 0.02016101
v -0.02535493 -0.01706462 0.01178345
v -0.02475009 -0.02574440 0.00699609
v -0.02550485 -0.01687752 0.00699609
v -0.02377821 -0.02452419 0.02016101
f 1 2 3
f 1 3 8
f 1 8 17
f 1 17 25
f 1 25 30
f 1 30 31
f 1 31 26
f 1 26 18
f 1 18 9
f 1 9 4
f 1 4 12
f 1 12 21
f 1 21 13
f 1 13 5
f 1 5 2
f 2 5 6
f 2 6 3
f 3 6 7
f 3 7 8
f 4 9 10
f 4 10 11
f 4 11 12
f 5 13 14
f 5 14 15
f 5 15 6
f 6 15 7
f 7 15 16
f 7 16 23
f 7 23 28
f 7 28 24
f 7 24 17
f 7 17 8
f 9 18 10
f 10 18 19
f 10 19 11
f 11 19 27
f 11 27 32
f 11 32 28
f 11 28 23
f 11 23 22
f 11 22 15
f 11 15 14
f 11 14 13
f 11 13 21
f 11 21 20
f 11 20 12
f 12 20 21
f 15 22 16
f 16 22 23
f 17 24 25
f 18 26 27
f 18 27 19
f 24 28 29
f 24 29 30
f 24 30 25
f 26 31 27
f 27 31 29
f 27 29 32
f 28 32 29
f 29 31 30

