# https://github.com/mikedh/trimesh
v -0.01199671 -0.00966820 0.02016101
v -0.01590335 -0.00966820 0.02496604
v -0.01580044 -0.00680137 0.02526399
v -0.01044064 -0.00680137 0.02016101
v 0.02319605 -0.00966820 0.02016101
v -0.01885907 -0.00680137 0.03140757
v -0.01563578 -0.00966820 0.02613449
v 0.00777941 -0.00680137 0.02016101
v 0.02292847 -0.00782957 0.02016101
v 0.02130242 -0.00804200 0.02703391
v 0.02156176 -0.00966820 0.02693718
v -0.01792049 -0.00680137 0.03151874
v -0.01513355 -0.00966820 0.02654251
v 0.01301160 -0.00680137 0.02572537
v 0.02039677 -0.00966820 0.02759646
v 0.02122009 -0.00966820 0.02735187
v -0.00660397 -0.00680137 0.02984555
v -0.00846467 -0.00966820 0.02684046
f 1 2 3
f 1 3 4
f 1 4 8
f 1 8 9
f 1 9 5
f 1 5 11
f 1 11 16
f 1 16 15
f 1 15 18
f 1 18 13
f 1 13 7
f 1 7 2
f 2 6 3
f 2 7 6
f 3 6 12
f 3 12 17
f 3 17 14
f 3 14 8
f 3 8 4
f 5 9 10
f 5 10 11
f 6 7 13
f 6 13 12
f 8 14 9
f 9 14 10
f 10 15 16
f 10 16 11
f 10 14 17
f 10 17 12
f 10 12 15
f 12 13 18
f 12 18 15

