# https://github.com/mikedh/trimesh
v -0.00977941 0.03759098 0.02425397
v -0.00705139 0.05212210 0.01350019
v -0.01134627 0.03749239 0.02425397
v -0.00705139 0.03655794 0.02425397
v -0.00705139 0.04981170 0.01018034
v -0.00847909 0.05164630 0.01315607
v -0.01134627 0.05118336 0.01337882
v -0.01134627 0.00833157 0.02425397
v -0.00705139 0.00833157 0.02425397
v -0.00705139 0.04914729 0.00922786
v -0.00705139 0.04867578 0.00856113
v -0.01134627 0.04779705 0.00856113
v -0.01134627 0.04819998 0.00913108
v -0.01134627 0.00833157 0.01841466
v -0.00705139 0.00833157 0.02209707
v -0.00705139 0.01419117 0.00856113
v -0.01134627 0.01549425 0.00856113
v -0.00705139 0.00833585 0.01841620
v -0.01134627 0.00835300 0.01665258
v -0.00705139 0.00835728 0.01589521
v -0.00705139 0.00848588 0.01188558
v -0.01134627 0.00851160 0.01170430
v -0.00911727 0.01451265 0.00856113
v -0.00705139 0.00838300 0.01505641
f 1 2 3
f 1 3 8
f 1 8 9
f 1 9 4
f 1 4 2
f 2 5 6
f 2 6 7
f 2 7 3
f 2 4 9
f 2 9 15
f 2 15 18
f 2 18 20
f 2 20 24
f 2 24 21
f 2 21 16
f 2 16 11
f 2 11 10
f 2 10 5
f 3 7 13
f 3 13 12
f 3 12 17
f 3 17 22
f 3 22 19
f 3 19 14
f 3 14 8
f 5 10 6
f 6 10 11
f 6 11 12
f 6 12 13
f 6 13 7
f 8 14 15
f 8 15 9
f 11 16 23
f 11 23 17
f 11 17 12
f 14 18 15
f 14 19 20
f 14 20 18
f 16 21 22
f 16 22 23
f 17 23 22
f 19 22 24
f 19 24 20
f 21 24 22

