# https://github.com/mikedh/trimesh
v -0.03535733 -0.06881570 0.02594951
v -0.03692871 -0.06822474 0.02675587
v -0.03692216 -0.06822474 0.02590919
v -0.03677485 -0.06817162 0.02508044
v -0.03535733 -0.06867626 0.02517003
v -0.03535733 -0.06854346 0.02682306
v -0.03904352 -0.06683699 0.02679171
v -0.03986850 -0.06663115 0.02671555
v -0.03769803 -0.06782302 0.02590919
v -0.03593678 -0.06836418 0.02682306
v -0.03746560 -0.06738478 0.02686338
v -0.03535733 -0.06720550 0.02182365
v -0.03535733 -0.06848370 0.02450703
v -0.03976701 -0.06655479 0.02539850
v -0.03868669 -0.06688346 0.02435919
v -0.03737066 -0.06762382 0.02448015
v -0.03682395 -0.06664110 0.02192668
v -0.03584184 -0.06527991 0.01821296
v -0.03535733 -0.06547247 0.01819056
v -0.03535733 -0.06629582 0.01991527
v -0.03535733 -0.06736818 0.02700225
v -0.03593678 -0.06736818 0.02698882
v -0.04047086 -0.06574138 0.02682754
v -0.04155118 -0.06517699 0.02677827
v -0.05388651 -0.05580798 0.02674691
v -0.04603616 -0.06194332 0.02669315
v -0.03986850 -0.06663115 0.02643333
v -0.03916792 -0.06697975 0.02591367
v -0.03904352 -0.06581775 0.02696194
v -0.04603616 -0.06194332 0.02663940
v -0.04592813 -0.06186364 0.02560457
v -0.05379484 -0.05573826 0.02511627
v -0.04147589 -0.06512387 0.02498636
v -0.03946256 -0.06632238 0.02435919
v -0.03836259 -0.06666102 0.02344532
v -0.03740012 -0.06684030 0.02288087
v -0.03684032 -0.06511391 0.01877293
v -0.03629361 -0.06485827 0.01773810
v -0.03535733 -0.06357343 0.01422597
v -0.03535733 -0.06506079 0.01733044
v -0.03535733 -0.06581775 0.02702017
v -0.03748851 -0.06581775 0.02702017
v -0.04059526 -0.06426399 0.02700673
v -0.04210116 -0.06423743 0.02687682
v -0.04828519 -0.05956952 0.02686338
v -0.05541533 -0.05428078 0.02674691
v -0.05464601 -0.05503774 0.02590919
v -0.05387014 -0.05579469 0.02590919
v -0.05300915 -0.05612338 0.02681410
v -0.05446596 -0.05485846 0.02682306
v -0.05202377 -0.05556894 0.02232538
v -0.04988276 -0.05831457 0.02433231
v -0.05534658 -0.05418782 0.02511627
v -0.05442994 -0.05482194 0.02460110
v -0.05402728 -0.05442022 0.02314518
v -0.05372610 -0.05411810 0.02211035
v -0.05224965 -0.05264403 0.01733940
v -0.05195830 -0.05396538 0.01931050
v -0.04370201 -0.06303560 0.02429200
v -0.04007147 -0.06523675 0.02322581
v -0.03903043 -0.06581111 0.02281816
v -0.03682395 -0.06356679 0.01566397
v -0.03535733 -0.06203960 0.01106325
v -0.03829712 -0.06506411 0.02043492
v -0.03535733 -0.05883581 0.00497525
v -0.03535733 -0.06038956 0.00781990
v -0.03535733 -0.06426399 0.02702017
v -0.04214700 -0.06271356 0.02702017
v -0.04680221 -0.05960936 0.02699778
v -0.04835395 -0.05805561 0.02702017
v -0.05300915 -0.05495142 0.02698434
v -0.06478140 -0.04194702 0.02677827
v -0.06623820 -0.04026046 0.02671555
v -0.06155025 -0.04642901 0.02669315
v -0.06155025 -0.04642901 0.02663940
v -0.05540223 -0.05426418 0.02590919
v -0.05572960 -0.05340098 0.02681410
v -0.05917681 -0.04867996 0.02686338
v -0.05456089 -0.05340098 0.02698434
v -0.05061935 -0.05568182 0.02056483
v -0.04675638 -0.05142891 0.00741225
v -0.06146841 -0.04632276 0.02560457
v -0.06616290 -0.04016086 0.02539850
v -0.06472902 -0.04187066 0.02498636
v -0.06264367 -0.04409505 0.02429200
v -0.05557247 -0.05138243 0.02159966
v -0.05422043 -0.05184059 0.01977640
v -0.05059643 -0.04941036 0.00977308
v -0.04910689 -0.04793960 0.00500213
v -0.04600670 -0.04639912 -0.00277026
v -0.04754534 -0.04950000 0.00500213
v -0.03535733 -0.05075163 -0.00975421
v -0.03535733 -0.06045264 0.00794086
v -0.03535733 -0.06051904 0.00807077
v -0.06387131 -0.03490200 0.02702017
v -0.03535733 -0.06272352 0.02690370
v -0.03593678 -0.06271356 0.02695298
v -0.04990568 -0.05650518 0.02702017
v -0.06384512 -0.04249482 0.02687682
v -0.06535103 -0.04086139 0.02682754
v -0.06644444 -0.03943379 0.02679171
v -0.06783249 -0.03732227 0.02675587
v -0.06742983 -0.03808919 0.02590919
v -0.06623820 -0.04026046 0.02643333
v -0.05921610 -0.04719592 0.02699778
v -0.05611263 -0.05030011 0.02702017
v -0.05766436 -0.04874636 0.02702017
v -0.03898132 -0.04714944 -0.01125045
v -0.06658848 -0.03955995 0.02591367
v -0.06777684 -0.03716623 0.02508044
v -0.06649027 -0.03908187 0.02435919
v -0.06593047 -0.03985875 0.02435919
v -0.06418231 -0.04098422 0.02274648
v -0.05196812 -0.04917464 0.01194129
v -0.05528765 -0.05101391 0.02056483
v -0.04783997 -0.03589468 -0.01413990
v -0.04424872 -0.04146894 -0.01289005
v -0.04286394 -0.04168474 -0.01510753
v -0.04170505 -0.04059246 -0.01873614
v -0.04452044 -0.04491509 -0.00754121
v -0.04055598 -0.04251142 -0.01749076
v -0.04097501 -0.04301274 -0.01599452
v -0.03951821 -0.04308578 -0.01789842
v -0.03535733 -0.04987847 -0.01134453
v -0.06697806 -0.03490200 0.02702017
v -0.06233267 -0.03490200 0.02684546
v -0.06228684 -0.03490200 0.02683650
v -0.03535733 -0.06183708 0.02672899
v -0.06387131 -0.04098754 0.02700673
v -0.06542305 -0.03943379 0.02696194
v -0.06699115 -0.03785679 0.02686338
v -0.06879824 -0.03490200 0.02601223
v -0.06783249 -0.03731231 0.02590919
v -0.06796999 -0.03632960 0.02682306
v -0.06841522 -0.03490200 0.02682306
v -0.06231958 -0.04253798 0.02702017
v -0.03535733 -0.04677429 -0.01699799
v -0.06624802 -0.03721603 0.02192668
v -0.06723013 -0.03776383 0.02448015
v -0.06876223 -0.03490200 0.02582408
v -0.06831045 -0.03490200 0.02423824
v -0.06829409 -0.03492192 0.02421136
v -0.06621856 -0.03559588 0.02044388
v -0.06488943 -0.03623332 0.01821296
v -0.06626766 -0.03875651 0.02344532
v -0.06157972 -0.03715295 0.01265357
v -0.06284337 -0.03832823 0.01659576
v -0.04942117 -0.03490200 -0.01264366
v -0.04758135 -0.03490200 -0.01599452
v -0.04672037 -0.03490200 -0.01756244
v -0.04308982 -0.03887603 -0.01862415
v -0.04372165 -0.04101742 -0.01448036
v -0.04261841 -0.04136934 -0.01599452
v -0.04191784 -0.04031690 -0.01873614
v -0.04145297 -0.04090122 -0.01873614
v -0.04122381 -0.04161502 -0.01811345
v -0.04050687 -0.04184742 -0.01873614
v -0.04019914 -0.04209642 -0.01873614
v -0.03992415 -0.04230890 -0.01873614
v -0.03917447 -0.04288658 -0.01873614
v -0.03848372 -0.04348085 -0.01862415
v -0.06697806 -0.03632960 0.02698882
v -0.06542305 -0.03788335 0.02702017
v -0.06149788 -0.03544980 0.02672451
v -0.06121961 -0.03490200 0.02593607
v -0.03535733 -0.06114652 0.02594951
v -0.03535733 -0.04581813 -0.01873614
v -0.06472247 -0.03723263 0.01877293
v -0.06644772 -0.03779371 0.02288087
v -0.06137674 -0.03517092 0.00994779
v -0.06830063 -0.03490200 0.02421136
v -0.06827772 -0.03490200 0.02416209
v -0.06759024 -0.03490200 0.02271960
v -0.06535103 -0.03490200 0.01802481
v -0.06295795 -0.03490200 0.01300747
v -0.06162555 -0.03490200 0.01022554
v -0.06163210 -0.03570544 0.01098262
v -0.06008036 -0.03568220 0.00788262
v -0.05848607 -0.03561580 0.00487222
v -0.05923247 -0.03634952 0.00725545
v -0.05624358 -0.03490200 -0.00020783
v -0.04620967 -0.03490200 -0.01848975
v -0.04580046 -0.03526056 -0.01873614
v -0.04520464 -0.03603744 -0.01873614
v -0.04100120 -0.04139258 -0.01873614
v -0.03860485 -0.04332481 -0.01873614
v -0.03752453 -0.04415481 -0.01873614
v -0.06118687 -0.03490200 0.02589127
v -0.03535733 -0.05962264 0.02373651
v -0.03535733 -0.03490200 -0.01873614
v -0.06143240 -0.03490200 0.00983132
v -0.06025059 -0.03490200 0.00743464
v -0.05988394 -0.03490200 0.00669996
v -0.05980537 -0.03520744 0.00684780
v -0.05830273 -0.03490200 0.00364924
v -0.05677392 -0.03490200 0.00076427
v -0.04607217 -0.03490200 -0.01873614
v -0.03535733 -0.03490200 -0.01260334
f 1 2 3
f 1 3 4
f 1 4 5
f 1 5 13
f 1 13 12
f 1 12 20
f 1 20 19
f 1 19 40
f 1 40 39
f 1 39 63
f 1 63 94
f 1 94 93
f 1 93 66
f 1 66 65
f 1 65 92
f 1 92 124
f 1 124 137
f 1 137 167
f 1 167 190
f 1 190 198
f 1 198 189
f 1 189 166
f 1 166 128
f 1 128 96
f 1 96 67
f 1 67 41
f 1 41 21
f 1 21 6
f 1 6 2
f 2 7 8
f 2 8 9
f 2 9 3
f 2 6 10
f 2 10 11
f 2 11 7
f 3 9 4
f 4 12 13
f 4 13 5
f 4 9 14
f 4 14 15
f 4 15 16
f 4 16 17
f 4 17 18
f 4 18 19
f 4 19 20
f 4 20 12
f 6 21 22
f 6 22 10
f 7 11 23
f 7 23 8
f 8 23 24
f 8 24 25
f 8 25 26
f 8 26 30
f 8 30 27
f 8 27 9
f 9 27 28
f 9 28 14
f 10 22 11
f 11 22 29
f 11 29 23
f 14 28 27
f 14 27 30
f 14 30 31
f 14 31 32
f 14 32 33
f 14 33 34
f 14 34 15
f 15 34 35
f 15 35 16
f 16 35 36
f 16 36 17
f 17 36 37
f 17 37 38
f 17 38 18
f 18 38 39
f 18 39 40
f 18 40 19
f 21 41 42
f 21 42 22
f 22 42 43
f 22 43 29
f 23 29 44
f 23 44 24
f 24 44 45
f 24 45 25
f 25 46 47
f 25 47 48
f 25 48 30
f 25 30 26
f 25 45 49
f 25 49 50
f 25 50 46
f 29 43 44
f 30 48 32
f 30 32 31
f 32 51 52
f 32 52 33
f 32 48 47
f 32 47 53
f 32 53 54
f 32 54 55
f 32 55 56
f 32 56 57
f 32 57 58
f 32 58 51
f 33 52 59
f 33 59 60
f 33 60 61
f 33 61 34
f 34 61 35
f 35 62 63
f 35 63 37
f 35 37 36
f 35 61 64
f 35 64 65
f 35 65 66
f 35 66 62
f 37 63 38
f 38 63 39
f 41 67 95
f 41 95 125
f 41 125 163
f 41 163 136
f 41 136 107
f 41 107 106
f 41 106 98
f 41 98 70
f 41 70 68
f 41 68 42
f 42 68 43
f 43 69 44
f 43 68 70
f 43 70 69
f 44 69 71
f 44 71 45
f 45 71 49
f 46 72 73
f 46 73 74
f 46 74 75
f 46 75 76
f 46 76 47
f 46 50 77
f 46 77 78
f 46 78 72
f 47 76 53
f 49 71 50
f 50 71 79
f 50 79 77
f 51 58 52
f 52 60 59
f 52 58 80
f 52 80 81
f 52 81 60
f 53 57 56
f 53 56 55
f 53 55 54
f 53 76 75
f 53 75 82
f 53 82 83
f 53 83 84
f 53 84 85
f 53 85 86
f 53 86 87
f 53 87 88
f 53 88 57
f 57 88 89
f 57 89 90
f 57 90 91
f 57 91 58
f 58 91 81
f 58 81 80
f 60 81 92
f 60 92 65
f 60 65 61
f 61 65 64
f 62 66 93
f 62 93 94
f 62 94 63
f 67 96 97
f 67 97 95
f 69 70 71
f 70 98 79
f 70 79 71
f 72 78 99
f 72 99 100
f 72 100 73
f 73 100 101
f 73 101 102
f 73 102 103
f 73 103 104
f 73 104 75
f 73 75 74
f 75 104 83
f 75 83 82
f 77 79 78
f 78 79 99
f 79 105 99
f 79 98 106
f 79 106 107
f 79 107 105
f 81 91 108
f 81 108 92
f 83 104 109
f 83 109 103
f 83 103 110
f 83 110 111
f 83 111 112
f 83 112 84
f 84 112 85
f 85 112 113
f 85 113 114
f 85 114 115
f 85 115 86
f 86 115 87
f 87 115 114
f 87 114 88
f 88 114 89
f 89 116 117
f 89 117 118
f 89 118 90
f 89 114 113
f 89 113 116
f 90 118 119
f 90 119 120
f 90 120 121
f 90 121 122
f 90 122 91
f 91 122 123
f 91 123 108
f 92 108 124
f 95 97 96
f 95 96 126
f 95 126 127
f 95 127 165
f 95 165 188
f 95 188 198
f 95 198 190
f 95 190 197
f 95 197 182
f 95 182 150
f 95 150 149
f 95 149 148
f 95 148 181
f 95 181 196
f 95 196 195
f 95 195 193
f 95 193 192
f 95 192 191
f 95 191 176
f 95 176 175
f 95 175 174
f 95 174 173
f 95 173 172
f 95 172 171
f 95 171 141
f 95 141 140
f 95 140 132
f 95 132 135
f 95 135 125
f 96 127 126
f 96 128 127
f 99 105 129
f 99 129 130
f 99 130 100
f 100 130 131
f 100 131 101
f 101 131 102
f 102 132 133
f 102 133 103
f 102 131 134
f 102 134 135
f 102 135 132
f 103 133 110
f 103 109 104
f 105 107 129
f 107 136 129
f 108 123 137
f 108 137 124
f 110 138 139
f 110 139 111
f 110 133 132
f 110 132 140
f 110 140 141
f 110 141 142
f 110 142 143
f 110 143 144
f 110 144 138
f 111 139 145
f 111 145 112
f 112 145 146
f 112 146 147
f 112 147 113
f 113 147 116
f 116 148 149
f 116 149 150
f 116 150 151
f 116 151 117
f 116 147 148
f 117 151 152
f 117 152 118
f 118 152 151
f 118 151 153
f 118 153 119
f 119 153 154
f 119 154 184
f 119 184 183
f 119 183 197
f 119 197 190
f 119 190 167
f 119 167 187
f 119 187 186
f 119 186 160
f 119 160 159
f 119 159 158
f 119 158 157
f 119 157 185
f 119 185 155
f 119 155 156
f 119 156 120
f 120 156 157
f 120 157 121
f 121 157 158
f 121 158 159
f 121 159 123
f 121 123 122
f 123 159 160
f 123 160 161
f 123 161 137
f 125 135 162
f 125 162 163
f 127 128 164
f 127 164 165
f 128 166 165
f 128 165 164
f 129 136 163
f 129 163 162
f 129 162 130
f 130 162 131
f 131 162 134
f 134 162 135
f 137 161 167
f 138 168 169
f 138 169 139
f 138 144 170
f 138 170 168
f 139 169 145
f 141 171 142
f 142 171 172
f 142 172 173
f 142 173 174
f 142 174 175
f 142 175 143
f 143 175 144
f 144 175 176
f 144 176 170
f 145 169 168
f 145 168 177
f 145 177 178
f 145 178 179
f 145 179 146
f 146 179 180
f 146 180 148
f 146 148 147
f 148 180 179
f 148 179 181
f 150 182 183
f 150 183 151
f 151 183 184
f 151 184 154
f 151 154 153
f 155 185 156
f 156 185 157
f 160 186 161
f 161 186 187
f 161 187 167
f 165 166 188
f 166 189 188
f 168 170 177
f 170 176 191
f 170 191 192
f 170 192 193
f 170 193 177
f 177 193 194
f 177 194 178
f 178 194 195
f 178 195 196
f 178 196 181
f 178 181 179
f 182 197 183
f 188 189 198
f 193 195 194

