# https://github.com/mikedh/trimesh
v 0.03074085 0.03672890 -0.01873614
v 0.01838061 0.04497920 -0.01873614
v 0.03257807 0.03672890 -0.01873614
v 0.03078393 0.03672890 -0.01868686
v 0.01838061 0.06929344 0.02590471
v 0.01838061 0.04880559 -0.01873614
v 0.03257807 0.04053997 -0.01873614
v 0.03257807 0.03672890 -0.01689943
v 0.01838061 0.06985266 0.02679619
v 0.01838061 0.04896646 -0.01848527
v 0.01915886 0.04848385 -0.01873614
v 0.03222647 0.04081191 -0.01873614
v 0.03257807 0.04067786 -0.01855695
v 0.03257807 0.06361323 0.02586888
v 0.02986949 0.06526788 0.02674243
v 0.01838756 0.06985649 0.02680067
v 0.01838061 0.07076042 0.02696642
v 0.02304454 0.04692495 -0.01865998
v 0.01838061 0.05553912 -0.00805638
v 0.02460381 0.04622785 -0.01873614
v 0.02761952 0.04434721 -0.01873614
v 0.02864514 0.04373820 -0.01849871
v 0.02939282 0.04490642 -0.01614684
v 0.03247523 0.04485663 -0.01301996
v 0.03257807 0.04132133 -0.01768787
v 0.03257807 0.06399625 0.02643780
v 0.03080339 0.06513765 0.02680963
v 0.03080339 0.06610670 0.02697986
v 0.02769874 0.06765794 0.02701121
v 0.01993989 0.07076425 0.02700673
v 0.01838061 0.07230783 0.02702017
v 0.02468720 0.04792081 -0.01599900
v 0.02449124 0.04703602 -0.01753108
v 0.02493874 0.04653043 -0.01803730
v 0.02999318 0.05601024 0.00032526
v 0.01838061 0.06478527 0.00661933
v 0.01838756 0.06502275 0.00700011
v 0.02148943 0.07076425 0.01815024
v 0.02458436 0.06951943 0.01820848
v 0.03257807 0.07010928 0.02439951
v 0.02575729 0.04564182 -0.01873614
v 0.02734436 0.04455787 -0.01873614
v 0.02731795 0.04546180 -0.01754452
v 0.03257807 0.05401086 -0.00054830
v 0.03257807 0.06477378 0.02685890
v 0.03235572 0.06610670 0.02702017
v 0.02459686 0.06921301 0.02702017
v 0.01838061 0.07386290 0.02702017
v 0.02703862 0.04833064 -0.01377256
v 0.02567112 0.04685600 -0.01700247
v 0.03225983 0.05854967 0.00584881
v 0.02925106 0.05314140 -0.00471000
v 0.03235572 0.05775681 0.00465719
v 0.03257807 0.05771085 0.00473335
v 0.03009602 0.05296138 -0.00441881
v 0.03257807 0.06810225 0.02121440
v 0.03257807 0.06073290 0.00952221
v 0.01838061 0.06554749 0.00783782
v 0.01938122 0.07007481 0.01567741
v 0.02106695 0.07323857 0.02180125
v 0.02149221 0.07441445 0.02394706
v 0.02392285 0.07313516 0.02351252
v 0.02495819 0.07292066 0.02385298
v 0.02574339 0.07324623 0.02488781
v 0.03009602 0.07156860 0.02508940
v 0.03257807 0.07021270 0.02456974
v 0.02602828 0.04550010 -0.01873614
v 0.02632430 0.04530476 -0.01873614
v 0.02693717 0.04516688 -0.01833296
v 0.02862013 0.04837277 -0.01226288
v 0.03244327 0.05409512 -0.00057070
v 0.03257807 0.05416407 -0.00033775
v 0.02842834 0.04978995 -0.01052921
v 0.03257807 0.06610670 0.02702017
v 0.01838756 0.07386673 0.02702017
v 0.01838061 0.07527625 0.02685442
v 0.03257807 0.05882928 0.00650285
v 0.03257807 0.05586852 0.00205893
v 0.03144683 0.05439771 -0.00115306
v 0.01838061 0.06676550 0.00979996
v 0.02047771 0.07459830 0.02365587
v 0.02149221 0.07489706 0.02472206
v 0.01838061 0.06773455 0.01140372
v 0.01838061 0.06972243 0.01470530
v 0.02242611 0.07470938 0.02503116
v 0.02677735 0.07303174 0.02544330
v 0.02702333 0.07313133 0.02647812
v 0.03030309 0.07164137 0.02590919
v 0.03257807 0.07062253 0.02592711
v 0.03257807 0.07057274 0.02570760
v 0.02670647 0.04658789 -0.01659929
v 0.03198605 0.05475009 -0.00011824
v 0.03257807 0.06765794 0.02702017
v 0.01993989 0.07386673 0.02702017
v 0.01838061 0.07585462 0.02590919
v 0.01838756 0.07527625 0.02685442
v 0.01995239 0.07504644 0.02424720
v 0.01838061 0.07018589 0.01548030
v 0.01838061 0.07084851 0.01659576
v 0.01838756 0.07142305 0.01756787
v 0.01894067 0.07306238 0.02052900
v 0.01993989 0.07555203 0.02590919
v 0.02149221 0.07518433 0.02590919
v 0.02267904 0.07479365 0.02590919
v 0.02702333 0.07313133 0.02672451
v 0.03032671 0.07164903 0.02677379
v 0.03257807 0.07032377 0.02684098
v 0.03235572 0.06921301 0.02702017
v 0.03257807 0.06921301 0.02701121
v 0.02459686 0.07231549 0.02702017
v 0.02149221 0.07386673 0.02701569
v 0.01838061 0.07534520 0.02435919
v 0.02149221 0.07493153 0.02684546
v 0.02265819 0.07477832 0.02678723
v 0.01838756 0.07534520 0.02435919
v 0.01993989 0.07508474 0.02685442
v 0.01944375 0.07469406 0.02349460
v 0.01838061 0.07142305 0.01756787
v 0.01838756 0.07187502 0.01834287
v 0.01838756 0.07477066 0.02336021
v 0.02925106 0.07179841 0.02683650
v 0.03235572 0.07035825 0.02685442
v 0.02925106 0.07076425 0.02700225
v 0.02614641 0.07231549 0.02696642
v 0.01838061 0.07477066 0.02336021
v 0.01838061 0.07187502 0.01834287
v 0.01838061 0.07274447 0.01984807
v 0.01838061 0.07346073 0.02108897
f 1 2 6
f 1 6 11
f 1 11 20
f 1 20 41
f 1 41 67
f 1 67 68
f 1 68 42
f 1 42 21
f 1 21 12
f 1 12 7
f 1 7 3
f 1 3 8
f 1 8 4
f 1 4 5
f 1 5 2
f 2 5 9
f 2 9 17
f 2 17 31
f 2 31 48
f 2 48 76
f 2 76 95
f 2 95 112
f 2 112 125
f 2 125 128
f 2 128 127
f 2 127 126
f 2 126 118
f 2 118 99
f 2 99 98
f 2 98 84
f 2 84 83
f 2 83 80
f 2 80 58
f 2 58 36
f 2 36 19
f 2 19 10
f 2 10 6
f 3 7 13
f 3 13 25
f 3 25 44
f 3 44 72
f 3 72 78
f 3 78 54
f 3 54 77
f 3 77 57
f 3 57 56
f 3 56 40
f 3 40 66
f 3 66 90
f 3 90 89
f 3 89 107
f 3 107 109
f 3 109 93
f 3 93 74
f 3 74 45
f 3 45 26
f 3 26 14
f 3 14 8
f 4 8 5
f 5 8 9
f 6 10 11
f 7 12 13
f 8 14 9
f 9 14 15
f 9 15 16
f 9 16 17
f 10 18 11
f 10 19 18
f 11 18 20
f 12 21 13
f 13 21 22
f 13 22 23
f 13 23 24
f 13 24 25
f 14 26 15
f 15 26 27
f 15 27 16
f 16 27 17
f 17 28 29
f 17 29 30
f 17 30 31
f 17 27 28
f 18 32 33
f 18 33 34
f 18 34 20
f 18 19 35
f 18 35 32
f 19 36 37
f 19 37 38
f 19 38 39
f 19 39 40
f 19 40 35
f 20 34 41
f 21 42 22
f 22 42 43
f 22 43 23
f 23 43 44
f 23 44 24
f 24 44 25
f 26 45 27
f 27 45 28
f 28 45 46
f 28 46 29
f 29 46 47
f 29 47 30
f 30 47 31
f 31 47 46
f 31 46 74
f 31 74 93
f 31 93 108
f 31 108 110
f 31 110 94
f 31 94 75
f 31 75 48
f 32 35 33
f 33 35 34
f 34 49 50
f 34 50 41
f 34 35 51
f 34 51 52
f 34 52 53
f 34 53 54
f 34 54 55
f 34 55 49
f 35 40 56
f 35 56 57
f 35 57 51
f 36 58 37
f 37 58 59
f 37 59 60
f 37 60 38
f 38 60 61
f 38 61 62
f 38 62 39
f 39 62 40
f 40 62 63
f 40 63 64
f 40 64 65
f 40 65 66
f 41 50 49
f 41 49 67
f 42 68 69
f 42 69 43
f 43 69 70
f 43 70 44
f 44 71 72
f 44 70 73
f 44 73 71
f 45 74 46
f 48 75 76
f 49 73 67
f 49 55 73
f 51 57 77
f 51 77 53
f 51 53 52
f 53 77 54
f 54 78 79
f 54 79 55
f 55 79 73
f 58 80 59
f 59 81 82
f 59 82 61
f 59 61 60
f 59 80 83
f 59 83 84
f 59 84 81
f 61 82 85
f 61 85 64
f 61 64 63
f 61 63 62
f 64 85 65
f 65 85 86
f 65 86 87
f 65 87 88
f 65 88 89
f 65 89 90
f 65 90 66
f 67 73 91
f 67 91 68
f 68 91 73
f 68 73 69
f 69 73 70
f 71 79 92
f 71 92 72
f 71 73 79
f 72 92 78
f 75 94 96
f 75 96 76
f 76 96 95
f 78 92 79
f 81 97 82
f 81 84 98
f 81 98 99
f 81 99 100
f 81 100 101
f 81 101 97
f 82 97 95
f 82 95 102
f 82 102 103
f 82 103 85
f 85 103 104
f 85 104 86
f 86 104 87
f 87 105 106
f 87 106 89
f 87 89 88
f 87 104 105
f 89 106 107
f 93 109 108
f 94 110 111
f 94 111 96
f 95 96 113
f 95 113 114
f 95 114 102
f 95 97 115
f 95 115 112
f 96 116 113
f 96 111 116
f 97 101 117
f 97 117 115
f 99 118 100
f 100 118 126
f 100 126 119
f 100 119 101
f 101 119 120
f 101 120 115
f 101 115 117
f 102 114 103
f 103 114 104
f 104 114 105
f 105 114 106
f 106 114 121
f 106 121 122
f 106 122 107
f 107 122 109
f 108 109 123
f 108 123 111
f 108 111 110
f 109 122 123
f 111 123 124
f 111 124 113
f 111 113 116
f 112 115 120
f 112 120 125
f 113 124 121
f 113 121 114
f 119 126 127
f 119 127 128
f 119 128 120
f 120 128 125
f 121 124 123
f 121 123 122

