# https://github.com/mikedh/trimesh
v -0.05717618 -0.00218597 -0.01874137
v -0.05563577 -0.00218597 -0.02207577
v -0.05379170 -0.00279872 -0.02609493
v -0.05379170 -0.00305885 -0.02609493
v -0.05708232 -0.00374096 -0.01874663
v -0.05708232 -0.00374096 -0.01874137
v -0.05706576 -0.00067723 -0.01874137
v -0.05527690 -0.00218597 -0.02285074
v -0.05485729 -0.00218597 -0.02375499
v -0.05407880 -0.00224378 -0.02542971
v -0.05406224 -0.00063677 -0.02512378
v -0.05369784 -0.00176399 -0.02602954
v -0.05259360 0.00148472 -0.02625128
v -0.05310707 -0.00224378 -0.02622422
v -0.05405671 -0.00364269 -0.02539739
v -0.05480208 -0.00374096 -0.02375499
v -0.05621549 -0.00374096 -0.02065136
v -0.05672897 -0.00374096 -0.01952310
v -0.05307394 -0.00364269 -0.02622422
v -0.05246661 -0.00994934 -0.02624827
v -0.05241140 -0.01149854 -0.02622873
v -0.05233963 -0.01305353 -0.02618062
v -0.05227889 -0.01422699 -0.02612725
v -0.05218504 -0.01526172 -0.02605585
v -0.05257152 -0.01468944 -0.02544549
v -0.05678418 -0.00601852 -0.01874137
v -0.05391316 -0.00684515 -0.02481484
v -0.05406224 -0.00994934 -0.02358963
v -0.05544253 -0.01149854 -0.02010640
v -0.05523824 -0.01460273 -0.01965690
v -0.05612164 -0.01105344 -0.01874137
v -0.05681178 0.00127083 -0.01874137
v -0.05616581 -0.00063677 -0.02065136
v -0.05556952 -0.00063677 -0.02192393
v -0.05520512 -0.00063677 -0.02269890
v -0.05470821 -0.00063677 -0.02375499
v -0.05396285 0.00091822 -0.02491181
v -0.05392421 0.00148472 -0.02483288
v -0.05337208 0.00148472 -0.02560936
v -0.05145624 0.00148472 -0.02641965
v -0.05145624 -0.00839435 -0.02641965
v -0.05145624 -0.00994934 -0.02641665
v -0.05401255 -0.00529016 -0.02503583
v -0.05145624 -0.01149854 -0.02639710
v -0.05145624 -0.01305353 -0.02634900
v -0.05093725 -0.01770692 -0.02623249
v -0.05373096 -0.01497269 -0.02286126
v -0.05078818 -0.01878212 -0.02617010
v -0.05231755 -0.01714042 -0.02471412
v -0.05246661 -0.01615772 -0.02503583
v -0.05306842 -0.01615772 -0.02375499
v -0.05396837 -0.01615772 -0.02182772
v -0.05510574 -0.01615772 -0.01938405
v -0.05344386 -0.01451602 -0.02361894
v -0.05350460 -0.01305353 -0.02391585
v -0.05370888 -0.00994934 -0.02436610
v -0.05385795 -0.01305353 -0.02314013
v -0.05565233 -0.01460273 -0.01874137
v -0.05567442 -0.01444088 -0.01874137
v -0.05678418 0.00146738 -0.01874137
v -0.05554191 0.00148472 -0.02139025
v -0.05508917 0.00148472 -0.02235614
v -0.05443216 0.00148472 -0.02375499
v -0.00077181 0.00148472 -0.02641965
v -0.04990479 -0.01615772 -0.02641965
v -0.04990479 -0.01770692 -0.02640086
v -0.04679636 -0.02547029 -0.02638733
v -0.04779017 -0.02547029 -0.02621896
v -0.05540388 -0.01615772 -0.01874137
v -0.05552535 -0.01540046 -0.01874137
v -0.05108632 -0.01928503 -0.02537108
v -0.04765767 -0.02645878 -0.02615206
v -0.04913182 -0.02315804 -0.02609042
v -0.05261568 -0.01927925 -0.02223963
v -0.05340521 -0.01924457 -0.02061678
v -0.05384691 -0.01708262 -0.02156087
v -0.05085443 -0.02045850 -0.02489678
v -0.04917599 -0.02481130 -0.02463745
v -0.04997104 -0.02391530 -0.02375499
v -0.05051212 -0.02391530 -0.02262448
v -0.05122435 -0.02251062 -0.02235163
v -0.05677866 0.00148472 -0.01874137
v -0.05658541 0.00148472 -0.01916005
v -0.00077181 -0.05184724 -0.02641965
v -0.00077181 0.00148472 -0.01953889
v -0.04834781 -0.02081111 -0.02641890
v -0.04679636 -0.02391530 -0.02641965
v -0.04524491 -0.02701949 -0.02641965
v -0.04369346 -0.03011790 -0.02641139
v -0.04524491 -0.02856870 -0.02637531
v -0.04681293 -0.02699059 -0.02625880
v -0.05507813 -0.01736009 -0.01874137
v -0.04628841 -0.02856870 -0.02620693
v -0.04609517 -0.02943579 -0.02613627
v -0.04734296 -0.02749351 -0.02585741
v -0.04791716 -0.02699059 -0.02532673
v -0.04931954 -0.02377079 -0.02521548
v -0.05316228 -0.02199036 -0.01874137
v -0.05445424 -0.01886883 -0.01874137
v -0.04944653 -0.02698481 -0.02219378
v -0.04872325 -0.02698481 -0.02370388
v -0.04956799 0.00148472 -0.01874137
v -0.00077181 -0.05328083 -0.02624226
v -0.00184844 -0.05350049 -0.02622497
v -0.00799904 -0.05184724 -0.02641965
v -0.04861835 0.00147316 -0.01874137
v -0.00077181 -0.04418214 -0.01874137
v -0.04214201 -0.03167289 -0.02641965
v -0.03748766 -0.03788127 -0.02641965
v -0.03903911 -0.03632629 -0.02640387
v -0.04518970 -0.03001963 -0.02624301
v -0.03901150 -0.03783502 -0.02627233
v -0.04368242 -0.03164977 -0.02627834
v -0.04463206 -0.03111795 -0.02618438
v -0.03995010 -0.03728587 -0.02617386
v -0.04140769 -0.03560371 -0.02611448
v -0.04636019 -0.02978263 -0.02530643
v -0.04743682 -0.02910052 -0.02427590
v -0.04771288 -0.02806579 -0.02482236
v -0.05110840 -0.02694435 -0.01874137
v -0.04924224 -0.02807157 -0.02166987
v -0.04950174 -0.02858026 -0.02068218
v -0.05029127 -0.02854558 -0.01905933
v -0.05057285 -0.02823342 -0.01874137
v -0.04901588 -0.02910630 -0.02122037
v -0.00077181 -0.05401496 -0.02596189
v -0.00136810 -0.05409011 -0.02603029
v -0.00240608 -0.05418838 -0.02609493
v -0.00266558 -0.05418838 -0.02609493
v -0.00325082 -0.05346581 -0.02622497
v -0.00955601 -0.05184724 -0.02641665
v -0.01576181 -0.05029803 -0.02641965
v -0.00077181 -0.05749490 -0.01874137
v -0.03127633 -0.04253467 -0.02641965
v -0.02972488 -0.04408965 -0.02641139
v -0.03593620 -0.03943047 -0.02640387
v -0.03744349 -0.03940157 -0.02627233
v -0.03847595 -0.03886976 -0.02619490
v -0.03950841 -0.03832060 -0.02568302
v -0.04314135 -0.03428573 -0.02492759
v -0.03987832 -0.03873680 -0.02464872
v -0.04771288 -0.02952828 -0.02324085
v -0.04600131 -0.03086938 -0.02449463
v -0.04686262 -0.03019883 -0.02386774
v -0.04927537 -0.02958031 -0.02018608
v -0.05037409 -0.02870743 -0.01874137
v -0.00077181 -0.05428087 -0.02555298
v -0.00077181 -0.05446007 -0.02522601
v -0.00184844 -0.05447163 -0.02543046
v -0.00179323 -0.05525202 -0.02375499
v -0.00179323 -0.05757004 -0.01874137
v -0.00325082 -0.05444851 -0.02539739
v -0.00489613 -0.05440805 -0.02503734
v -0.01429870 -0.05296867 -0.02544624
v -0.01487290 -0.05257559 -0.02605660
v -0.01384044 -0.05266808 -0.02612801
v -0.01265891 -0.05273167 -0.02618137
v -0.01110746 -0.05280104 -0.02622873
v -0.00955601 -0.05285884 -0.02624827
v -0.00334468 -0.05747755 -0.01874137
v -0.00334468 -0.05661046 -0.02065136
v -0.00334468 -0.05563932 -0.02278234
v -0.00334468 -0.05519421 -0.02375499
v -0.01110746 -0.05184724 -0.02639710
v -0.01731327 -0.05029803 -0.02640086
v -0.02041617 -0.04874305 -0.02641890
v -0.02352459 -0.04719384 -0.02641965
v -0.00077181 -0.05736194 -0.01902776
v -0.02662749 -0.04563885 -0.02641965
v -0.02507604 -0.04719384 -0.02638733
v -0.02817895 -0.04563885 -0.02637531
v -0.03689137 -0.04034381 -0.02617386
v -0.03125424 -0.04407231 -0.02627834
v -0.02962550 -0.04558105 -0.02624301
v -0.03792935 -0.03990448 -0.02568302
v -0.03892868 -0.03932064 -0.02516587
v -0.04483634 -0.03292150 -0.02375499
v -0.04096048 -0.03790439 -0.02384895
v -0.03943663 -0.03982934 -0.02375499
v -0.03974582 -0.04014149 -0.02288531
v -0.04158437 -0.04048833 -0.01909916
v -0.04136904 -0.04021086 -0.01987939
v -0.04883920 -0.03128559 -0.01874137
v -0.04892202 -0.03061504 -0.01950657
v -0.04628841 -0.03123934 -0.02346034
v -0.04639884 -0.03318741 -0.02053786
v -0.04783434 -0.03123356 -0.02065136
v -0.04965081 -0.03010634 -0.01874137
v -0.04982197 -0.02978841 -0.01874137
v -0.04934715 -0.03056879 -0.01874137
v -0.00077181 -0.05489362 -0.02431123
v -0.00077181 -0.05598616 -0.02197730
v -0.00077181 -0.05660468 -0.02065136
v -0.00762360 -0.05422885 -0.02464647
v -0.00644758 -0.05478957 -0.02375499
v -0.01265891 -0.05389935 -0.02391735
v -0.01412202 -0.05384155 -0.02361969
v -0.01458580 -0.05412480 -0.02286201
v -0.01576181 -0.05436180 -0.02182847
v -0.01576181 -0.05346002 -0.02375499
v -0.01576181 -0.05285884 -0.02503658
v -0.01675011 -0.05270855 -0.02471487
v -0.01838990 -0.05118246 -0.02617085
v -0.01731327 -0.05132698 -0.02623249
v -0.01265891 -0.05184724 -0.02634900
v -0.00339437 -0.05747177 -0.01874137
v -0.01110746 -0.05548324 -0.02088362
v -0.00644758 -0.05543700 -0.02233359
v -0.02507604 -0.04818232 -0.02621896
v -0.02659989 -0.04720540 -0.02625880
v -0.02817895 -0.04667937 -0.02620693
v -0.03072421 -0.04502611 -0.02618438
v -0.02904025 -0.04648283 -0.02613627
v -0.03521293 -0.04180052 -0.02611448
v -0.03834344 -0.04026866 -0.02464872
v -0.04269965 -0.03681764 -0.02220355
v -0.04423454 -0.03679451 -0.01944117
v -0.04191564 -0.04031491 -0.01874137
v -0.04167823 -0.03936688 -0.02049877
v -0.04145186 -0.04089875 -0.01874137
v -0.03866367 -0.04051723 -0.02375499
v -0.03981759 -0.04176006 -0.01987939
v -0.04019303 -0.04209534 -0.01874137
v -0.04050222 -0.04184099 -0.01874137
v -0.04099912 -0.04139010 -0.01874137
v -0.04170032 -0.04058660 -0.01874137
v -0.04846928 -0.03177116 -0.01874137
v -0.04770736 -0.03276542 -0.01874137
v -0.01215648 -0.05576649 -0.01995531
v -0.01319447 -0.05569712 -0.01980498
v -0.01404473 -0.05606708 -0.01874137
v -0.01421036 -0.05598038 -0.01888193
v -0.01421036 -0.05604396 -0.01874137
v -0.01501093 -0.05591679 -0.01874137
v -0.01576181 -0.05579540 -0.01874137
v -0.01576181 -0.05550058 -0.01938555
v -0.01669489 -0.05424041 -0.02156163
v -0.01728566 -0.05295133 -0.02375048
v -0.02052107 -0.05155820 -0.02386248
v -0.02441902 -0.04956968 -0.02463745
v -0.02006833 -0.05124605 -0.02489753
v -0.02276819 -0.04952921 -0.02609042
v -0.01889232 -0.05147728 -0.02537108
v -0.02606433 -0.04804937 -0.02615206
v -0.00900941 -0.05673185 -0.01874137
v -0.00799904 -0.05670295 -0.01909916
v -0.01110746 -0.05583586 -0.02010715
v -0.02710232 -0.04773722 -0.02585741
v -0.02768204 -0.04810718 -0.02482236
v -0.02871450 -0.04782971 -0.02427590
v -0.02938808 -0.04674873 -0.02530643
v -0.03389337 -0.04353471 -0.02492759
v -0.03553316 -0.04204331 -0.02530643
v -0.03750974 -0.04135542 -0.02384895
v -0.04579703 -0.03525687 -0.01874137
v -0.03944767 -0.04147681 -0.02091444
v -0.03860293 -0.04332083 -0.01874137
v -0.01696543 -0.05547168 -0.01874137
v -0.01725253 -0.05446007 -0.02061753
v -0.01888680 -0.05300914 -0.02224038
v -0.02659437 -0.04911878 -0.02370463
v -0.02338104 -0.04971419 -0.02521548
v -0.02659989 -0.04830950 -0.02532673
v -0.02871450 -0.04940782 -0.02122037
v -0.02913411 -0.04810139 -0.02324085
v -0.02980769 -0.04725164 -0.02386774
v -0.02918932 -0.04966794 -0.02018608
v -0.03047576 -0.04639611 -0.02449463
v -0.03596933 -0.04256357 -0.02380235
v -0.03639998 -0.04462725 -0.01944117
v -0.03376638 -0.04703198 -0.01874137
v -0.01732983 -0.05532138 -0.01874137
v -0.01963768 -0.05436758 -0.01874137
v -0.02718513 -0.05124027 -0.01874137
v -0.02815686 -0.05068533 -0.01905933
v -0.02818999 -0.04989339 -0.02068218
v -0.02831698 -0.05076626 -0.01874137
v -0.03022178 -0.04931532 -0.01950657
v -0.03089537 -0.04923440 -0.01874137
v -0.03017209 -0.04771410 -0.02251850
v -0.02939361 -0.05021132 -0.01874137
v -0.02971383 -0.05004368 -0.01874137
v -0.03017761 -0.04974309 -0.01874137
v -0.03084016 -0.04822857 -0.02065136
v -0.03252964 -0.04522843 -0.02375499
f 1 2 3
f 1 3 4
f 1 4 5
f 1 5 6
f 1 6 26
f 1 26 31
f 1 31 59
f 1 59 58
f 1 58 70
f 1 70 69
f 1 69 92
f 1 92 99
f 1 99 98
f 1 98 120
f 1 120 124
f 1 124 146
f 1 146 189
f 1 189 188
f 1 188 190
f 1 190 183
f 1 183 227
f 1 227 228
f 1 228 255
f 1 255 218
f 1 218 226
f 1 226 220
f 1 220 225
f 1 225 224
f 1 224 223
f 1 223 257
f 1 257 271
f 1 271 279
f 1 279 283
f 1 283 282
f 1 282 281
f 1 281 277
f 1 277 274
f 1 274 273
f 1 273 272
f 1 272 258
f 1 258 235
f 1 235 234
f 1 234 233
f 1 233 231
f 1 231 245
f 1 245 206
f 1 206 160
f 1 160 151
f 1 151 133
f 1 133 107
f 1 107 106
f 1 106 102
f 1 102 82
f 1 82 60
f 1 60 32
f 1 32 7
f 1 7 2
f 2 7 8
f 2 8 3
f 3 8 9
f 3 9 10
f 3 10 11
f 3 11 12
f 3 12 13
f 3 13 14
f 3 14 4
f 4 15 16
f 4 16 17
f 4 17 18
f 4 18 5
f 4 14 19
f 4 19 20
f 4 20 21
f 4 21 22
f 4 22 23
f 4 23 24
f 4 24 25
f 4 25 15
f 5 26 6
f 5 18 27
f 5 27 28
f 5 28 29
f 5 29 30
f 5 30 31
f 5 31 26
f 7 32 33
f 7 33 34
f 7 34 10
f 7 10 9
f 7 9 8
f 10 34 35
f 10 35 36
f 10 36 11
f 11 36 37
f 11 37 12
f 12 37 38
f 12 38 39
f 12 39 13
f 13 39 38
f 13 38 63
f 13 63 62
f 13 62 61
f 13 61 83
f 13 83 82
f 13 82 102
f 13 102 85
f 13 85 64
f 13 64 40
f 13 40 14
f 14 40 41
f 14 41 42
f 14 42 19
f 15 25 27
f 15 27 43
f 15 43 16
f 16 43 27
f 16 27 17
f 17 27 18
f 19 42 20
f 20 42 44
f 20 44 21
f 21 44 45
f 21 45 22
f 22 45 46
f 22 46 23
f 23 46 24
f 24 47 25
f 24 46 48
f 24 48 49
f 24 49 50
f 24 50 51
f 24 51 52
f 24 52 53
f 24 53 47
f 25 47 54
f 25 54 55
f 25 55 56
f 25 56 27
f 27 56 28
f 28 56 57
f 28 57 30
f 28 30 29
f 30 57 47
f 30 47 58
f 30 58 59
f 30 59 31
f 32 60 61
f 32 61 62
f 32 62 34
f 32 34 33
f 34 62 63
f 34 63 37
f 34 37 35
f 35 37 36
f 37 63 38
f 40 64 84
f 40 84 105
f 40 105 132
f 40 132 167
f 40 167 169
f 40 169 134
f 40 134 109
f 40 109 108
f 40 108 88
f 40 88 87
f 40 87 65
f 40 65 41
f 41 65 42
f 42 65 66
f 42 66 44
f 44 66 45
f 45 66 46
f 46 66 67
f 46 67 68
f 46 68 48
f 47 53 69
f 47 69 70
f 47 70 58
f 47 57 55
f 47 55 54
f 48 71 49
f 48 68 72
f 48 72 73
f 48 73 71
f 49 74 75
f 49 75 76
f 49 76 50
f 49 71 73
f 49 73 77
f 49 77 78
f 49 78 79
f 49 79 80
f 49 80 81
f 49 81 74
f 50 76 51
f 51 76 52
f 52 76 53
f 53 76 69
f 55 57 56
f 60 82 83
f 60 83 61
f 64 85 107
f 64 107 133
f 64 133 168
f 64 168 193
f 64 193 192
f 64 192 191
f 64 191 148
f 64 148 147
f 64 147 126
f 64 126 103
f 64 103 84
f 65 86 66
f 65 87 86
f 66 86 67
f 67 87 88
f 67 88 89
f 67 89 90
f 67 90 91
f 67 91 68
f 67 86 87
f 68 91 72
f 69 76 92
f 72 91 93
f 72 93 94
f 72 94 95
f 72 95 96
f 72 96 73
f 73 96 97
f 73 97 77
f 74 81 75
f 75 98 99
f 75 99 92
f 75 92 76
f 75 81 100
f 75 100 98
f 77 97 78
f 78 97 96
f 78 96 101
f 78 101 79
f 79 101 100
f 79 100 80
f 80 100 81
f 84 103 104
f 84 104 105
f 85 102 106
f 85 106 107
f 88 108 89
f 89 108 109
f 89 109 110
f 89 110 90
f 90 111 93
f 90 93 91
f 90 110 112
f 90 112 113
f 90 113 111
f 93 111 94
f 94 111 114
f 94 114 115
f 94 115 116
f 94 116 117
f 94 117 118
f 94 118 119
f 94 119 95
f 95 119 96
f 96 119 101
f 98 100 120
f 100 101 121
f 100 121 122
f 100 122 123
f 100 123 124
f 100 124 120
f 101 119 125
f 101 125 121
f 103 126 127
f 103 127 128
f 103 128 104
f 104 128 129
f 104 129 130
f 104 130 131
f 104 131 105
f 105 131 132
f 109 134 135
f 109 135 136
f 109 136 137
f 109 137 112
f 109 112 110
f 111 113 112
f 111 112 115
f 111 115 114
f 112 137 138
f 112 138 115
f 115 138 139
f 115 139 116
f 116 140 117
f 116 139 141
f 116 141 140
f 117 142 118
f 117 140 143
f 117 143 144
f 117 144 142
f 118 142 145
f 118 145 125
f 118 125 119
f 121 125 122
f 122 125 146
f 122 146 123
f 123 146 124
f 125 145 146
f 126 147 127
f 127 147 128
f 128 147 148
f 128 148 149
f 128 149 150
f 128 150 151
f 128 151 129
f 129 152 153
f 129 153 154
f 129 154 155
f 129 155 156
f 129 156 157
f 129 157 158
f 129 158 159
f 129 159 130
f 129 151 160
f 129 160 161
f 129 161 162
f 129 162 163
f 129 163 152
f 130 159 131
f 131 164 165
f 131 165 132
f 131 159 164
f 132 165 166
f 132 166 167
f 133 151 150
f 133 150 168
f 134 169 135
f 135 169 170
f 135 170 171
f 135 171 136
f 136 171 137
f 137 172 138
f 137 171 173
f 137 173 174
f 137 174 172
f 138 172 175
f 138 175 139
f 139 175 176
f 139 176 141
f 140 177 144
f 140 144 143
f 140 141 178
f 140 178 177
f 141 176 179
f 141 179 180
f 141 180 181
f 141 181 182
f 141 182 178
f 142 144 183
f 142 183 184
f 142 184 145
f 144 177 185
f 144 185 186
f 144 186 187
f 144 187 183
f 145 188 189
f 145 189 146
f 145 184 190
f 145 190 188
f 148 191 149
f 149 191 150
f 150 191 192
f 150 192 193
f 150 193 168
f 152 163 153
f 153 194 154
f 153 163 162
f 153 162 195
f 153 195 194
f 154 194 196
f 154 196 197
f 154 197 198
f 154 198 155
f 155 198 199
f 155 199 200
f 155 200 201
f 155 201 202
f 155 202 203
f 155 203 204
f 155 204 156
f 156 204 157
f 157 204 205
f 157 205 158
f 158 205 164
f 158 164 159
f 160 206 161
f 161 206 207
f 161 207 196
f 161 196 208
f 161 208 195
f 161 195 162
f 164 205 165
f 165 205 204
f 165 204 170
f 165 170 166
f 166 170 167
f 167 170 169
f 170 209 210
f 170 210 171
f 170 204 209
f 171 210 211
f 171 211 174
f 171 174 173
f 172 174 212
f 172 212 213
f 172 213 214
f 172 214 175
f 174 211 213
f 174 213 212
f 175 215 176
f 175 214 215
f 176 215 179
f 177 216 217
f 177 217 185
f 177 178 216
f 178 182 218
f 178 218 219
f 178 219 216
f 179 215 180
f 180 220 181
f 180 215 221
f 180 221 222
f 180 222 223
f 180 223 224
f 180 224 225
f 180 225 220
f 181 226 218
f 181 218 182
f 181 220 226
f 183 190 184
f 183 187 227
f 185 217 186
f 186 228 187
f 186 217 228
f 187 228 227
f 194 195 196
f 195 208 196
f 196 198 197
f 196 207 198
f 198 207 229
f 198 229 230
f 198 230 231
f 198 231 232
f 198 232 233
f 198 233 234
f 198 234 235
f 198 235 236
f 198 236 199
f 199 237 200
f 199 236 237
f 200 237 201
f 201 237 202
f 202 237 238
f 202 238 239
f 202 239 240
f 202 240 241
f 202 241 242
f 202 242 243
f 202 243 203
f 203 243 242
f 203 242 244
f 203 244 209
f 203 209 204
f 206 245 246
f 206 246 207
f 207 246 247
f 207 247 229
f 209 244 210
f 210 244 211
f 211 244 213
f 213 244 248
f 213 248 249
f 213 249 250
f 213 250 251
f 213 251 214
f 214 252 253
f 214 253 215
f 214 251 252
f 215 253 252
f 215 252 254
f 215 254 221
f 216 219 218
f 216 218 217
f 217 255 228
f 217 218 255
f 221 254 256
f 221 256 222
f 222 256 257
f 222 257 223
f 229 247 246
f 229 246 245
f 229 245 231
f 229 231 230
f 231 233 232
f 235 258 236
f 236 258 237
f 237 258 259
f 237 259 260
f 237 260 238
f 238 260 239
f 239 261 240
f 239 260 261
f 240 262 241
f 240 261 249
f 240 249 263
f 240 263 262
f 241 262 242
f 242 262 263
f 242 263 244
f 244 263 248
f 248 263 249
f 249 261 264
f 249 264 250
f 250 265 266
f 250 266 251
f 250 264 267
f 250 267 265
f 251 266 268
f 251 268 252
f 252 269 254
f 252 268 269
f 254 269 257
f 254 257 256
f 257 269 270
f 257 270 271
f 258 272 259
f 259 273 260
f 259 272 273
f 260 273 261
f 261 274 275
f 261 275 276
f 261 276 264
f 261 273 274
f 264 276 275
f 264 275 277
f 264 277 267
f 265 267 278
f 265 278 279
f 265 279 266
f 266 279 280
f 266 280 268
f 267 281 282
f 267 282 283
f 267 283 278
f 267 277 281
f 268 280 284
f 268 284 285
f 268 285 269
f 269 285 284
f 269 284 271
f 269 271 270
f 271 284 279
f 274 277 275
f 278 283 279
f 279 284 280

