# https://github.com/mikedh/trimesh
v -0.00239486 0.02558331 -0.01693512
v -0.00239486 0.02568301 -0.01316922
v -0.00876476 0.02658544 0.00943478
v -0.00876476 0.02620212 -0.01922647
v -0.00876476 0.02670405 -0.02099335
v -0.00239486 0.02573630 -0.01747249
v -0.00239486 0.02576552 -0.01006106
v -0.00876476 0.02803964 0.02292066
v -0.00239486 0.03902349 -0.02093746
v -0.00239486 0.02673155 -0.02096755
v -0.00876476 0.04023704 -0.02091597
v -0.00239486 0.02934258 0.02292495
v -0.00239486 0.03552722 0.02292066
v -0.00239486 0.04089022 0.02288626
v -0.00876476 0.03750913 0.02280888
v -0.00876476 0.04041409 -0.01994010
v -0.00239486 0.04010984 -0.01494040
v -0.00239486 0.04262289 0.02157078
v -0.00709293 0.04314200 0.01922784
v -0.00876476 0.04177031 0.01957176
v -0.00239486 0.04020953 -0.01438583
v -0.00876476 0.04160357 -0.00795456
v -0.00824843 0.04213987 -0.00194890
v -0.00239486 0.04123229 -0.00408119
v -0.00876476 0.04205221 -0.00198759
v -0.00876476 0.04274321 0.01865177
f 1 2 3
f 1 3 4
f 1 4 5
f 1 5 6
f 1 6 10
f 1 10 9
f 1 9 17
f 1 17 21
f 1 21 24
f 1 24 18
f 1 18 14
f 1 14 13
f 1 13 12
f 1 12 7
f 1 7 2
f 2 7 3
f 3 8 15
f 3 15 20
f 3 20 26
f 3 26 25
f 3 25 22
f 3 22 16
f 3 16 11
f 3 11 5
f 3 5 4
f 3 7 8
f 5 9 10
f 5 10 6
f 5 11 9
f 7 12 8
f 8 12 13
f 8 13 14
f 8 14 15
f 9 11 16
f 9 16 17
f 14 18 19
f 14 19 15
f 15 19 20
f 16 21 17
f 16 22 23
f 16 23 21
f 18 24 19
f 19 23 25
f 19 25 26
f 19 26 20
f 19 24 23
f 21 23 24
f 22 25 23

