# https://github.com/mikedh/trimesh
v 0.00595738 0.02473008 -0.01683928
v -0.00239404 0.02576535 -0.01006173
v 0.00039058 0.02531165 -0.01593246
v -0.00239404 0.02558317 -0.01693383
v 0.00595738 0.02527136 -0.02094363
v 0.00595738 0.02642575 0.02293638
v -0.00239404 0.02934237 0.02292349
v -0.00239404 0.02573557 -0.01747105
v -0.00239404 0.02673230 -0.02096942
v 0.00475556 0.03765955 -0.02096512
v 0.00595738 0.03813777 -0.02095653
v 0.00595738 0.02883437 0.02293208
v 0.00030719 0.04232439 0.02291489
v -0.00239404 0.03552770 0.02291919
v -0.00239404 0.03902414 -0.02093933
v -0.00239404 0.04021006 -0.01438957
v 0.00595738 0.03994205 -0.00715216
v 0.00595738 0.04206514 0.02288051
v -0.00239404 0.04262218 0.02156970
v -0.00239404 0.04215973 0.02192211
v -0.00239404 0.04089148 0.02288481
v -0.00239404 0.04123307 -0.00408356
f 1 2 3
f 1 3 4
f 1 4 5
f 1 5 11
f 1 11 17
f 1 17 18
f 1 18 12
f 1 12 6
f 1 6 2
f 2 4 3
f 2 6 7
f 2 7 14
f 2 14 21
f 2 21 20
f 2 20 19
f 2 19 22
f 2 22 16
f 2 16 15
f 2 15 9
f 2 9 8
f 2 8 4
f 4 8 5
f 5 9 10
f 5 10 11
f 5 8 9
f 6 12 13
f 6 13 14
f 6 14 7
f 9 15 10
f 10 15 11
f 11 15 16
f 11 16 17
f 12 18 13
f 13 19 20
f 13 20 21
f 13 21 14
f 13 18 19
f 16 22 17
f 17 22 18
f 18 22 19

