# https://github.com/mikedh/trimesh
v 0.03134539 0.00569902 -0.02097399
v 0.02054175 0.02946795 -0.02098690
v 0.03324304 0.01395931 -0.02097399
v 0.03390434 0.00569902 -0.02096969
v 0.02405132 0.00569902 -0.02087502
v 0.02054175 0.01345045 -0.02090083
v 0.02054175 0.02950843 -0.02090514
v 0.03002639 0.02158931 -0.01350322
v 0.03595294 0.00569902 -0.02068136
v 0.03331672 0.01861133 -0.00103614
v 0.03576066 0.01032502 -0.01582708
v 0.03687480 0.00569902 -0.01719557
v 0.02401179 0.00569902 -0.01997129
v 0.02054175 0.01494523 0.02292113
v 0.02054175 0.03285071 -0.00975492
v 0.02585732 0.02823628 -0.00284359
v 0.03109741 0.02533636 0.02294695
v 0.03568878 0.01513027 0.01026901
v 0.03772659 0.00569902 -0.01088242
v 0.03692872 0.00569902 -0.01698470
v 0.02627063 0.00569902 0.02286518
v 0.02221657 0.01316711 0.02292543
v 0.02054175 0.03004620 0.02296847
v 0.02054175 0.03438596 0.01082845
v 0.02054175 0.03523599 0.02297707
v 0.03890004 0.00569902 0.02293404
v 0.03572472 0.01395064 0.02293404
v 0.03881019 0.00569902 0.00666272
v 0.02931836 0.00569902 0.02294265
v 0.03188270 0.00569902 0.02294695
v 0.03665377 0.00569902 0.02293834
f 1 2 3
f 1 3 4
f 1 4 9
f 1 9 12
f 1 12 20
f 1 20 19
f 1 19 28
f 1 28 26
f 1 26 31
f 1 31 30
f 1 30 29
f 1 29 21
f 1 21 13
f 1 13 5
f 1 5 6
f 1 6 2
f 2 6 14
f 2 14 23
f 2 23 25
f 2 25 24
f 2 24 15
f 2 15 7
f 2 7 8
f 2 8 3
f 3 9 4
f 3 8 10
f 3 10 11
f 3 11 12
f 3 12 9
f 5 13 6
f 6 13 14
f 7 15 8
f 8 15 16
f 8 16 17
f 8 17 10
f 10 17 18
f 10 18 11
f 11 19 20
f 11 20 12
f 11 18 19
f 13 21 14
f 14 21 22
f 14 22 23
f 15 24 17
f 15 17 16
f 17 24 25
f 17 25 26
f 17 26 27
f 17 27 18
f 18 27 26
f 18 26 28
f 18 28 19
f 21 29 22
f 22 29 23
f 23 29 30
f 23 30 25
f 25 30 31
f 25 31 26

