# https://github.com/mikedh/trimesh
v -0.04723418 -0.00807283 -0.02101368
v -0.05235800 0.00410047 -0.02100938
v -0.03846567 0.02155942 -0.02097065
v -0.03846567 0.01301291 -0.02097495
v -0.04508269 -0.00807283 -0.02100077
v -0.05437301 -0.00807283 -0.01967957
v -0.04852065 0.02046976 -0.02096204
v -0.05565547 -0.00347430 -0.01962793
v -0.03846567 0.02740212 -0.02090609
v -0.03846567 0.01218753 0.02295163
v -0.04536568 -0.00807283 0.02294302
v -0.05639605 -0.00807283 -0.01824648
v -0.05501123 0.01350082 -0.01522968
v -0.04482379 0.02651982 -0.00948871
v -0.03846567 0.03092318 -0.01510918
v -0.03846567 0.03033363 -0.01759664
v -0.05896900 -0.00723932 -0.01499729
v -0.03846567 0.03346437 0.02294302
v -0.04158051 0.03130944 0.02294732
v -0.05390338 0.01337478 0.02294732
v -0.05204291 -0.00807283 0.02294732
v -0.05887467 -0.00807283 -0.01504032
v -0.05845722 -0.00144542 -0.00180683
v -0.05495102 0.01290720 -0.00045121
v -0.04614639 0.02614575 0.01227877
v -0.03846567 0.03259020 0.00079683
v -0.05890076 -0.00807283 -0.01420543
v -0.05832075 -0.00399880 0.02283974
v -0.05715469 -0.00807283 0.02285265
v -0.05802371 -0.00807283 0.01968952
f 1 2 3
f 1 3 4
f 1 4 5
f 1 5 11
f 1 11 21
f 1 21 29
f 1 29 30
f 1 30 27
f 1 27 22
f 1 22 12
f 1 12 6
f 1 6 2
f 2 7 3
f 2 6 8
f 2 8 7
f 3 7 9
f 3 9 16
f 3 16 15
f 3 15 26
f 3 26 18
f 3 18 10
f 3 10 4
f 4 10 5
f 5 10 11
f 6 12 8
f 7 8 13
f 7 13 14
f 7 14 15
f 7 15 16
f 7 16 9
f 8 12 17
f 8 17 13
f 10 18 19
f 10 19 20
f 10 20 21
f 10 21 11
f 12 22 17
f 13 17 23
f 13 23 24
f 13 24 25
f 13 25 14
f 14 25 19
f 14 19 26
f 14 26 15
f 17 22 27
f 17 27 28
f 17 28 23
f 18 26 19
f 19 25 20
f 20 25 24
f 20 24 28
f 20 28 21
f 21 28 29
f 23 28 24
f 27 30 28
f 28 30 29

