# https://github.com/mikedh/trimesh
v -0.05569454 -0.05524193 0.00019805
v -0.05685777 -0.05481741 0.00019805
v -0.05569454 -0.05672541 0.00019805
v -0.05569454 -0.05271915 -0.01588077
v -0.06680072 -0.05163447 0.00019805
v -0.06403722 -0.05550193 0.00019805
v -0.06403722 -0.05555677 -0.00031976
v -0.06403722 -0.05553781 -0.00177560
v -0.05569454 -0.05670306 -0.00078720
v -0.05569454 -0.05425747 -0.01588077
v -0.06680072 -0.04980907 -0.01588077
v -0.06680072 -0.05443080 0.00019805
v -0.06527982 -0.05514511 0.00019805
v -0.06527982 -0.05516136 -0.00031976
v -0.06514610 -0.05512141 -0.00177560
v -0.06333385 -0.05498871 -0.01419829
v -0.05569454 -0.05661437 -0.00231702
v -0.05995937 -0.05498532 -0.01419514
v -0.06112587 -0.05500225 -0.01424550
v -0.05821234 -0.05432043 -0.01588077
v -0.05569454 -0.05515865 -0.01327284
v -0.06680072 -0.05190937 -0.01588077
v -0.06661699 -0.05453100 0.00019805
v -0.06680072 -0.05442470 -0.00008682
v -0.06553856 -0.05506251 0.00019805
v -0.06600711 -0.05483501 -0.00031976
v -0.06680072 -0.05414304 -0.00600936
v -0.06600820 -0.05485261 0.00019805
v -0.06680072 -0.05399340 -0.00760213
v -0.06680072 -0.05383023 -0.00890688
v -0.06680072 -0.05380721 -0.00905640
v -0.06680072 -0.05364403 -0.01005424
v -0.06680072 -0.05361153 -0.01022265
v -0.06680072 -0.05343414 -0.01096238
v -0.06680072 -0.05275571 -0.01341449
v -0.06680072 -0.05227634 -0.01501985
v -0.06680072 -0.05204681 -0.01558488
v -0.06643653 -0.05212603 -0.01588077
v -0.06349691 -0.05375236 -0.01588077
v -0.06342081 -0.05379028 -0.01588077
v -0.06259677 -0.05415590 -0.01588077
v -0.06112587 -0.05432788 -0.01588077
v -0.06258155 -0.05500495 -0.01424708
v -0.05821234 -0.05553307 -0.01196966
v -0.05966911 -0.05547349 -0.01196966
v -0.06112587 -0.05536990 -0.01196966
v -0.06680072 -0.05401169 -0.00745104
v -0.05615874 -0.05643833 -0.00406561
v -0.05569454 -0.05651145 -0.00361548
v -0.05675558 -0.05517423 -0.01332163
v -0.05821234 -0.05519386 -0.01338773
v -0.05569454 -0.05545521 -0.01233638
v -0.05569454 -0.05556016 -0.01196966
v -0.05963541 -0.05433736 -0.01588077
v -0.06680072 -0.05441996 -0.00023634
v -0.06680072 -0.05441725 -0.00031976
v -0.06680072 -0.05436106 -0.00154424
v -0.06680072 -0.05422429 -0.00450787
v -0.05675558 -0.05556084 -0.01196966
v -0.05569454 -0.05573417 -0.01090886
v -0.05569454 -0.05579036 -0.01051382
v -0.05675558 -0.05576870 -0.01051382
v -0.05821234 -0.05570370 -0.01051382
v -0.05966911 -0.05561297 -0.01051382
v -0.05569454 -0.05644848 -0.00431428
f 1 2 5
f 1 5 12
f 1 12 23
f 1 23 28
f 1 28 25
f 1 25 13
f 1 13 6
f 1 6 3
f 1 3 9
f 1 9 17
f 1 17 49
f 1 49 65
f 1 65 61
f 1 61 60
f 1 60 53
f 1 53 52
f 1 52 21
f 1 21 10
f 1 10 4
f 1 4 2
f 2 4 5
f 3 6 7
f 3 7 8
f 3 8 9
f 4 10 20
f 4 20 54
f 4 54 42
f 4 42 41
f 4 41 40
f 4 40 39
f 4 39 38
f 4 38 22
f 4 22 11
f 4 11 5
f 5 11 22
f 5 22 37
f 5 37 36
f 5 36 35
f 5 35 34
f 5 34 33
f 5 33 32
f 5 32 31
f 5 31 30
f 5 30 29
f 5 29 47
f 5 47 27
f 5 27 58
f 5 58 57
f 5 57 56
f 5 56 55
f 5 55 24
f 5 24 12
f 6 13 7
f 7 14 8
f 7 13 14
f 8 14 15
f 8 15 16
f 8 16 9
f 9 16 17
f 10 18 19
f 10 19 20
f 10 21 18
f 12 24 23
f 13 25 14
f 14 26 27
f 14 27 15
f 14 25 28
f 14 28 26
f 15 27 16
f 16 29 30
f 16 30 31
f 16 31 32
f 16 32 33
f 16 33 34
f 16 34 35
f 16 35 36
f 16 36 37
f 16 37 22
f 16 22 38
f 16 38 39
f 16 39 40
f 16 40 41
f 16 41 42
f 16 42 43
f 16 43 44
f 16 44 45
f 16 45 46
f 16 46 17
f 16 27 47
f 16 47 29
f 17 48 49
f 17 46 48
f 18 21 50
f 18 50 19
f 19 50 51
f 19 51 52
f 19 52 53
f 19 53 43
f 19 43 54
f 19 54 20
f 21 52 50
f 23 24 55
f 23 55 28
f 26 28 56
f 26 56 57
f 26 57 58
f 26 58 27
f 28 55 56
f 42 54 43
f 43 53 59
f 43 59 44
f 44 59 60
f 44 60 61
f 44 61 62
f 44 62 45
f 45 62 63
f 45 63 64
f 45 64 46
f 46 64 48
f 48 64 49
f 49 64 65
f 50 52 51
f 53 60 59
f 61 65 62
f 62 65 63
f 63 65 64

