# https://github.com/mikedh/trimesh
v -0.06712592 0.03633502 -0.02742943
v -0.06712592 0.03619545 -0.02772924
v -0.06748153 0.03610514 -0.02742943
v -0.06712592 0.03426618 -0.02742943
v -0.06712592 0.03608872 -0.02795368
v -0.06796856 0.03551952 -0.02799388
v -0.06817497 0.03565088 -0.02742943
v -0.06975821 0.02908315 -0.02742943
v -0.06712592 0.01318652 -0.04454027
v -0.06712592 0.03557425 -0.02903064
v -0.06769464 0.03533891 -0.02874256
v -0.06890217 0.03513640 -0.02742943
v -0.06975821 0.03431818 -0.02742943
v -0.06975821 0.00838113 -0.04454027
v -0.06712592 0.01704506 -0.04454027
v -0.06712592 0.03551679 -0.02914956
v -0.06712592 0.03532249 -0.02952307
v -0.06734006 0.03507620 -0.02971401
v -0.06967626 0.03442490 -0.02742943
v -0.06789770 0.03410472 -0.03049116
v -0.06975821 0.03407462 -0.02774599
v -0.06975821 0.01361889 -0.04454027
v -0.06712592 0.01850637 -0.04372794
v -0.06895165 0.01472172 -0.04454027
v -0.06712592 0.03482444 -0.03039234
v -0.06920701 0.03395969 -0.02882463
v -0.06755935 0.03369151 -0.03146261
v -0.06712592 0.03454257 -0.03083284
v -0.06975821 0.03386391 -0.02801732
v -0.06953737 0.01392538 -0.04454027
v -0.06975821 0.01412789 -0.04423711
v -0.06749184 0.01907284 -0.04314005
v -0.06712592 0.01871983 -0.04360567
v -0.06785518 0.01810136 -0.04342311
v -0.06886867 0.03346711 -0.02979440
v -0.06975821 0.03311683 -0.02883803
v -0.06975821 0.03018324 -0.03161670
v -0.06940904 0.03157341 -0.03080604
v -0.06712592 0.03437838 -0.03105560
v -0.06712592 0.03330018 -0.03232016
v -0.06752585 0.03220556 -0.03289130
v -0.06912636 0.02803779 -0.03453941
v -0.06939538 0.02877666 -0.03346412
v -0.06917944 0.01645943 -0.04332262
v -0.06975821 0.01470804 -0.04389041
v -0.06772247 0.02082697 -0.04186712
v -0.06737665 0.02179845 -0.04155727
v -0.06712592 0.02157405 -0.04189894
v -0.06712592 0.02124019 -0.04210161
v -0.06712592 0.01982813 -0.04295414
v -0.06918769 0.03249563 -0.03025332
v -0.06975821 0.03250384 -0.02942089
v -0.06975821 0.03097685 -0.03086634
v -0.06975821 0.02757805 -0.03407211
v -0.06712592 0.03308673 -0.03251947
v -0.06712592 0.03185254 -0.03364333
v -0.06712592 0.03146121 -0.03398167
v -0.06745731 0.03066214 -0.03429152
v -0.06781575 0.02969340 -0.03470522
v -0.06907740 0.02651900 -0.03593963
v -0.06942399 0.02555026 -0.03634998
v -0.06975821 0.02473203 -0.03663974
v -0.06975821 0.02633018 -0.03521775
v -0.06975821 0.01566857 -0.04330251
v -0.06975821 0.01698211 -0.04248684
v -0.06938508 0.01820535 -0.04204801
v -0.06975821 0.01854195 -0.04150702
v -0.06975821 0.01883750 -0.04132110
v -0.06975821 0.01939849 -0.04096602
v -0.06923330 0.02089812 -0.04046690
v -0.06712592 0.02252911 -0.04129598
v -0.06954948 0.02003884 -0.04074159
v -0.06712592 0.03037480 -0.03490789
v -0.06712592 0.03010115 -0.03513903
v -0.06738644 0.02911325 -0.03567667
v -0.06901220 0.02497011 -0.03732143
v -0.06975821 0.02290128 -0.03821582
v -0.06975821 0.02306000 -0.03808183
v -0.06975821 0.02003884 -0.04053557
v -0.06975821 0.02134691 -0.03951891
v -0.06887047 0.02186960 -0.04007497
v -0.06753693 0.02348690 -0.04021231
v -0.06789976 0.02251542 -0.04058749
v -0.06712592 0.02290401 -0.04104307
v -0.06712592 0.02850847 -0.03647225
v -0.06712592 0.02640407 -0.03823258
v -0.06712592 0.02478403 -0.03958758
v -0.06712592 0.02312020 -0.04088228
v -0.06712592 0.02449122 -0.03983211
f 1 2 3
f 1 3 7
f 1 7 12
f 1 12 19
f 1 19 13
f 1 13 8
f 1 8 4
f 1 4 9
f 1 9 15
f 1 15 23
f 1 23 33
f 1 33 50
f 1 50 49
f 1 49 48
f 1 48 71
f 1 71 84
f 1 84 88
f 1 88 89
f 1 89 87
f 1 87 86
f 1 86 85
f 1 85 74
f 1 74 73
f 1 73 57
f 1 57 56
f 1 56 55
f 1 55 40
f 1 40 39
f 1 39 28
f 1 28 25
f 1 25 17
f 1 17 16
f 1 16 10
f 1 10 5
f 1 5 2
f 2 5 6
f 2 6 3
f 3 6 7
f 4 8 9
f 5 10 6
f 6 10 11
f 6 11 12
f 6 12 7
f 8 13 21
f 8 21 29
f 8 29 36
f 8 36 52
f 8 52 53
f 8 53 37
f 8 37 54
f 8 54 63
f 8 63 62
f 8 62 78
f 8 78 77
f 8 77 80
f 8 80 79
f 8 79 69
f 8 69 68
f 8 68 67
f 8 67 65
f 8 65 64
f 8 64 45
f 8 45 31
f 8 31 22
f 8 22 14
f 8 14 9
f 9 14 22
f 9 22 30
f 9 30 24
f 9 24 15
f 10 16 11
f 11 16 17
f 11 17 18
f 11 18 12
f 12 18 20
f 12 20 19
f 13 19 21
f 15 24 23
f 17 25 18
f 18 25 20
f 19 20 26
f 19 26 21
f 20 27 26
f 20 25 28
f 20 28 27
f 21 26 29
f 22 31 30
f 23 32 33
f 23 24 32
f 24 30 34
f 24 34 32
f 26 27 35
f 26 35 36
f 26 36 29
f 27 37 38
f 27 38 35
f 27 28 39
f 27 39 40
f 27 40 41
f 27 41 42
f 27 42 43
f 27 43 37
f 30 31 44
f 30 44 34
f 31 45 44
f 32 46 47
f 32 47 48
f 32 48 49
f 32 49 50
f 32 50 33
f 32 34 44
f 32 44 46
f 35 38 51
f 35 51 52
f 35 52 36
f 37 53 38
f 37 43 54
f 38 53 51
f 40 55 41
f 41 55 56
f 41 56 57
f 41 57 58
f 41 58 59
f 41 59 60
f 41 60 42
f 42 60 61
f 42 61 62
f 42 62 63
f 42 63 54
f 42 54 43
f 44 45 64
f 44 64 65
f 44 65 46
f 46 66 67
f 46 67 68
f 46 68 69
f 46 69 47
f 46 65 66
f 47 70 71
f 47 71 48
f 47 69 72
f 47 72 70
f 51 53 52
f 57 73 58
f 58 73 74
f 58 74 59
f 59 75 76
f 59 76 77
f 59 77 78
f 59 78 60
f 59 74 75
f 60 78 61
f 61 78 62
f 65 67 66
f 69 79 72
f 70 80 81
f 70 81 82
f 70 82 83
f 70 83 84
f 70 84 71
f 70 72 79
f 70 79 80
f 74 85 75
f 75 85 86
f 75 86 87
f 75 87 81
f 75 81 80
f 75 80 76
f 76 80 77
f 81 87 82
f 82 88 83
f 82 87 89
f 82 89 88
f 83 88 84

