# https://github.com/mikedh/trimesh
v -0.03977730 0.02499004 0.03692023
v -0.03840642 0.02405714 0.03427880
v -0.03829276 0.02499004 0.03305610
v -0.04161414 0.02499004 0.03692023
v -0.03837879 0.02120082 0.03692023
v -0.03708201 0.01933905 0.03539269
v -0.03841082 0.02258944 0.03571497
v -0.03706380 0.02375690 0.03107420
v -0.03707197 0.02082150 0.03396316
v -0.03694072 0.02138177 0.03307438
v -0.03706757 0.02228920 0.03251868
v -0.03778661 0.02499004 0.03170383
v -0.03842212 0.02499004 0.02843527
v -0.03736900 0.01129953 0.02843527
v -0.03719317 0.01129819 0.03692023
v -0.03794109 0.02000119 0.03692023
v -0.03694323 0.01858040 0.03573657
v -0.03695203 0.01991005 0.03452384
v -0.03556482 0.01660470 0.03409689
v -0.03706318 0.02499004 0.02967707
v -0.03715674 0.02499004 0.02994370
v -0.03732818 0.02499004 0.03043046
v -0.03556607 0.01806570 0.03265906
v -0.03677870 0.02499004 0.02843527
v -0.03702738 0.01129819 0.02843527
v -0.03726727 0.01129819 0.02870356
v -0.03556545 0.01129819 0.03692023
v -0.03684589 0.01698939 0.03692023
v -0.03559057 0.01508607 0.03549735
v -0.03549449 0.01561015 0.03460441
v -0.03547188 0.01710466 0.03315827
v -0.03684904 0.02499004 0.02881238
v -0.03560564 0.01940473 0.03111989
v -0.03551144 0.01856298 0.03165316
v -0.03666127 0.02440698 0.02881238
v -0.03671904 0.02480372 0.02843527
v -0.03554096 0.01129819 0.02843527
v -0.03544425 0.01129819 0.03609374
v -0.03556545 0.01129953 0.03692023
v -0.03639877 0.01569996 0.03692023
v -0.03609860 0.01479119 0.03692023
v -0.03591397 0.01421215 0.03692023
v -0.03564897 0.01342535 0.03680477
v -0.03555038 0.01421215 0.03581548
v -0.03535633 0.01421215 0.03463764
v -0.03529667 0.01566913 0.03318070
v -0.03532556 0.01712610 0.03172542
v -0.03555226 0.01971167 0.03026848
v -0.03558052 0.02103327 0.02850670
v -0.03567472 0.02072097 0.02947772
v -0.03659784 0.02440698 0.02843527
v -0.03664369 0.02455710 0.02843527
v -0.03553028 0.01194023 0.02843527
v -0.03549386 0.01129819 0.02881155
v -0.03523827 0.01129819 0.03463764
v -0.03544425 0.01129953 0.03609374
v -0.03557989 0.01164267 0.03692023
v -0.03568100 0.01333019 0.03692023
v -0.03561506 0.01246833 0.03692023
v -0.03553091 0.01286642 0.03622914
v -0.03529291 0.01275651 0.03463764
v -0.03523827 0.01129953 0.03463764
v -0.03524895 0.01421215 0.03318070
v -0.03536136 0.01712610 0.03026848
v -0.03543859 0.01858040 0.02881238
v -0.03541285 0.01858040 0.03026848
v -0.03528474 0.01566913 0.03172542
v -0.03558178 0.02106008 0.02843527
v -0.03551772 0.01275651 0.02843527
v -0.03547125 0.01275651 0.02881238
v -0.03539150 0.01129819 0.03026848
v -0.03519934 0.01129819 0.03318070
v -0.03519934 0.01129953 0.03318070
v -0.03522132 0.01275651 0.03318070
v -0.03547565 0.01904551 0.02843527
v -0.03554410 0.02054404 0.02843527
v -0.03544550 0.01712610 0.02881238
v -0.03551270 0.01337308 0.02843527
v -0.03546057 0.01421215 0.02881238
v -0.03550704 0.01421215 0.02843527
f 1 2 3
f 1 3 12
f 1 12 22
f 1 22 21
f 1 21 20
f 1 20 32
f 1 32 24
f 1 24 13
f 1 13 4
f 1 4 15
f 1 15 27
f 1 27 39
f 1 39 57
f 1 57 59
f 1 59 58
f 1 58 42
f 1 42 41
f 1 41 40
f 1 40 28
f 1 28 16
f 1 16 5
f 1 5 6
f 1 6 7
f 1 7 2
f 2 8 3
f 2 7 9
f 2 9 10
f 2 10 11
f 2 11 8
f 3 8 12
f 4 13 14
f 4 14 15
f 5 16 17
f 5 17 6
f 6 18 7
f 6 17 19
f 6 19 18
f 7 18 9
f 8 20 21
f 8 21 22
f 8 22 12
f 8 11 10
f 8 10 19
f 8 19 23
f 8 23 20
f 9 18 19
f 9 19 10
f 13 24 36
f 13 36 52
f 13 52 51
f 13 51 68
f 13 68 76
f 13 76 75
f 13 75 80
f 13 80 78
f 13 78 69
f 13 69 53
f 13 53 37
f 13 37 25
f 13 25 14
f 14 25 26
f 14 26 15
f 15 26 25
f 15 25 37
f 15 37 54
f 15 54 71
f 15 71 72
f 15 72 55
f 15 55 38
f 15 38 27
f 16 28 17
f 17 28 19
f 19 28 29
f 19 29 30
f 19 30 31
f 19 31 23
f 20 23 33
f 20 33 32
f 23 31 34
f 23 34 33
f 24 32 35
f 24 35 36
f 27 38 56
f 27 56 39
f 28 40 29
f 29 40 41
f 29 41 42
f 29 42 43
f 29 43 44
f 29 44 30
f 30 44 45
f 30 45 46
f 30 46 31
f 31 46 47
f 31 47 34
f 32 33 35
f 33 48 49
f 33 49 50
f 33 50 35
f 33 34 48
f 34 47 49
f 34 49 48
f 35 51 52
f 35 52 36
f 35 50 49
f 35 49 51
f 37 53 54
f 38 55 62
f 38 62 56
f 39 56 57
f 42 58 43
f 43 58 59
f 43 59 45
f 43 45 44
f 45 59 60
f 45 60 61
f 45 61 46
f 46 61 62
f 46 62 63
f 46 63 47
f 47 64 65
f 47 65 66
f 47 66 49
f 47 63 67
f 47 67 64
f 49 68 51
f 49 66 68
f 53 69 70
f 53 70 54
f 54 70 71
f 55 72 73
f 55 73 62
f 56 62 61
f 56 61 57
f 57 61 59
f 59 61 60
f 62 73 74
f 62 74 63
f 63 74 67
f 64 67 73
f 64 73 65
f 65 75 76
f 65 76 66
f 65 73 72
f 65 72 77
f 65 77 75
f 66 76 68
f 67 74 73
f 69 78 70
f 70 78 79
f 70 79 72
f 70 72 71
f 72 79 77
f 75 77 79
f 75 79 80
f 78 80 79

