# https://github.com/mikedh/trimesh
v 0.06996174 -0.00563415 -0.04826374
v 0.06941735 -0.00563415 -0.04823484
v 0.06941735 -0.00180600 -0.04818668
v 0.06996174 -0.00471892 -0.04823966
v 0.07055042 -0.00563415 -0.04797957
v 0.06941735 -0.00563415 -0.04672729
v 0.06941735 -0.00137394 -0.04816741
v 0.06980531 -0.00180600 -0.04812888
v 0.07006619 -0.00334376 -0.04809998
v 0.07085318 -0.00563415 -0.04778691
v 0.06968882 -0.00563415 0.00094122
v 0.06941735 0.03825949 0.00094122
v 0.06941735 -0.00001271 -0.04803737
v 0.07070782 -0.00388732 -0.04767132
v 0.07077713 -0.00471892 -0.04773393
v 0.06969411 -0.00035186 -0.04800365
v 0.07069338 0.00622662 -0.04619748
v 0.07131094 -0.00563415 -0.04736788
v 0.07099277 -0.00563415 0.00094122
v 0.06941735 0.04149298 0.00094122
v 0.06941735 0.00110693 -0.04790251
v 0.06954490 0.00110693 -0.04786398
v 0.07234005 -0.00563415 -0.04638050
v 0.07205846 -0.00563415 -0.04665504
v 0.07158145 -0.00563415 -0.04711261
v 0.06941735 0.00196176 -0.04777246
v 0.07049507 0.00719759 -0.04612041
v 0.07109289 0.00984570 -0.04514267
v 0.07125221 0.00838692 -0.04531125
v 0.07364497 -0.00364109 -0.04479589
v 0.07096726 0.02314666 0.00094122
v 0.07235352 -0.00563415 -0.01488567
v 0.07272464 -0.00035186 -0.01925420
v 0.07272079 0.00401985 -0.01925420
v 0.07271694 0.00838692 -0.01925420
v 0.06943515 0.04146975 0.00094122
v 0.06941735 0.04158125 -0.00032070
v 0.06941735 0.00131599 -0.04787361
v 0.07306832 -0.00563415 -0.04561469
v 0.06941735 0.00685845 -0.04668876
v 0.07087870 0.01104897 -0.04492112
v 0.07230732 0.01129984 -0.04343765
v 0.07182116 0.00984570 -0.04442021
v 0.07255376 0.00984570 -0.04369292
v 0.07328203 0.00984570 -0.04296564
v 0.07269864 0.00838692 -0.04384705
v 0.07360356 0.00620803 -0.04328352
v 0.07368443 -0.00471892 -0.04485850
v 0.07365604 0.00547399 -0.04334132
v 0.07374989 0.00401985 -0.04345691
v 0.07381680 0.00256107 -0.04356769
v 0.07096485 0.02585982 0.00094122
v 0.07239973 -0.00563415 -0.01542512
v 0.07272656 -0.00326478 -0.01925420
v 0.07260190 -0.00326478 -0.01779963
v 0.07284979 -0.00035186 -0.02071359
v 0.07284738 0.00256107 -0.02071359
v 0.07284353 0.00693278 -0.02071359
v 0.07271501 0.00984570 -0.01925420
v 0.07233572 0.01421277 -0.01488567
v 0.07096052 0.03023153 0.00094122
v 0.07096197 0.02897251 0.00094122
v 0.06945633 0.04152086 -0.00032070
v 0.07000314 0.04042909 0.00094122
v 0.07067268 0.03969041 -0.00412088
v 0.07070108 0.03971828 -0.00509381
v 0.06941735 0.04165559 -0.00159224
v 0.07369358 -0.00563415 -0.04488740
v 0.06941735 0.00731373 -0.04656353
v 0.07067412 0.01201994 -0.04473328
v 0.07080024 0.01522091 -0.04338948
v 0.07215714 0.01205711 -0.04329316
v 0.07377541 0.01101180 -0.04204087
v 0.07342692 0.00838692 -0.04310531
v 0.07391789 0.00984570 -0.04223835
v 0.07397372 0.00838692 -0.04237803
v 0.07408779 0.00401985 -0.04255624
v 0.07414171 0.00256107 -0.04255624
v 0.07252440 -0.00563415 -0.01688450
v 0.07264859 -0.00563415 -0.01833908
v 0.07285027 -0.00326478 -0.02071359
v 0.07285027 -0.00180600 -0.02071359
v 0.07362042 -0.00471892 -0.02996601
v 0.07284160 0.00838692 -0.02071359
v 0.07283920 0.00984570 -0.02071359
v 0.07271260 0.01129984 -0.01925420
v 0.07095812 0.03168567 0.00094122
v 0.06948088 0.04156731 -0.00178008
v 0.07053021 0.03941166 0.00094122
v 0.07054946 0.03951386 -0.00032070
v 0.07098555 0.03910968 -0.00464106
v 0.07112755 0.03897030 -0.00614861
v 0.07118627 0.03897030 -0.00760318
v 0.07124211 0.03897030 -0.00906257
v 0.07129073 0.03897030 -0.01051714
v 0.07074344 0.03978797 -0.00760318
v 0.06950543 0.04160912 -0.00323465
v 0.06941735 0.04172992 -0.00297456
v 0.07414941 0.00110693 -0.04255624
v 0.07386975 -0.00471892 -0.04401081
v 0.07387024 -0.00563415 -0.04401081
v 0.06941735 0.00805706 -0.04634198
v 0.06941735 0.01198278 -0.04517158
v 0.06951072 0.01664717 -0.04337022
v 0.07048159 0.01619188 -0.04319683
v 0.07084163 0.01821746 -0.04202161
v 0.07172826 0.01421277 -0.04285004
v 0.07196364 0.01302809 -0.04310531
v 0.07239444 0.01421277 -0.04212275
v 0.07221249 0.01510476 -0.04191083
v 0.07357083 0.01198278 -0.04179042
v 0.07366229 0.01363669 -0.04048034
v 0.07379754 0.01275863 -0.04078860
v 0.07396842 0.01142063 -0.04122208
v 0.07427456 0.00984570 -0.04109685
v 0.07433425 0.00838692 -0.04109685
v 0.07284979 -0.00563415 -0.02071359
v 0.07361994 -0.00563415 -0.02997082
v 0.07369406 -0.00563415 -0.03090522
v 0.07361897 -0.00326478 -0.02997564
v 0.07283150 0.01275863 -0.02071359
v 0.07270875 0.01275863 -0.01925420
v 0.07232946 0.01712569 -0.01488567
v 0.07095475 0.03314445 0.00094122
v 0.07057304 0.03931409 0.00094122
v 0.07099085 0.03892849 -0.00323465
v 0.07221009 0.03701442 -0.01488567
v 0.07195449 0.03773916 -0.01488567
v 0.07078965 0.03982978 -0.01051714
v 0.07076751 0.03982049 -0.00906257
v 0.06952949 0.04164629 -0.00468922
v 0.07028231 0.04047555 -0.00614861
v 0.06941735 0.04181354 -0.00468922
v 0.07433088 0.00693278 -0.04109685
v 0.07431114 0.00401985 -0.04109685
v 0.07430103 0.00256107 -0.04109685
v 0.07429044 0.00110693 -0.04109685
v 0.07427263 -0.00035186 -0.04109685
v 0.07412582 -0.00035186 -0.04255624
v 0.07403004 -0.00563415 -0.04255624
v 0.06941735 0.01666111 -0.04337985
v 0.06961518 0.01959726 -0.04201679
v 0.07004501 0.01865416 -0.04225762
v 0.07058604 0.01918843 -0.04174226
v 0.07200022 0.01607574 -0.04159776
v 0.07072274 0.02082376 -0.04042254
v 0.07088880 0.02003397 -0.04070671
v 0.07229384 0.01675867 -0.04062484
v 0.07221779 0.02530697 -0.03466687
v 0.07229287 0.02696088 -0.03335198
v 0.07217735 0.02955324 -0.03167585
v 0.07360982 0.01787831 -0.03747487
v 0.07406950 0.01275863 -0.03964228
v 0.07422931 0.01129984 -0.03964228
v 0.07426301 0.00984570 -0.03964228
v 0.07427071 0.00838692 -0.03964228
v 0.07427744 0.00693278 -0.03964228
v 0.07428419 0.00547399 -0.03964228
v 0.07429718 0.00256107 -0.03964228
v 0.07430296 0.00110693 -0.03964228
v 0.07430152 -0.00035186 -0.03964228
v 0.07380429 -0.00563415 -0.03235979
v 0.07369262 -0.00471892 -0.03090522
v 0.07368780 -0.00326478 -0.03090522
v 0.07361561 -0.00180600 -0.03000454
v 0.07281369 0.01857983 -0.02071359
v 0.07281898 0.01712569 -0.02071359
v 0.07282332 0.01567155 -0.02071359
v 0.07270490 0.01421277 -0.01925420
v 0.07142791 0.03314445 -0.00468922
v 0.07094656 0.03605738 0.00094122
v 0.07081516 0.03868226 0.00094122
v 0.07086810 0.03878447 -0.00032070
v 0.07092923 0.03886809 -0.00178008
v 0.07216869 0.03689827 -0.01389348
v 0.07235545 0.03605738 -0.01634506
v 0.07223078 0.03699119 -0.01634506
v 0.07219661 0.03686575 -0.01726019
v 0.07174607 0.03772058 -0.01634506
v 0.07122670 0.03875660 -0.01488567
v 0.07076317 0.03978332 -0.01172126
v 0.06941735 0.04172527 -0.00726122
v 0.06941735 0.04182283 -0.00576330
v 0.07429237 -0.00180600 -0.03964228
v 0.07427263 -0.00471892 -0.03964228
v 0.07426637 -0.00563415 -0.03964228
v 0.07424712 -0.00180600 -0.04109685
v 0.07423750 -0.00563415 -0.04018172
v 0.07412294 -0.00563415 -0.04164111
v 0.06941735 0.01960191 -0.04201679
v 0.07004501 0.02006649 -0.04142918
v 0.06941735 0.01973199 -0.04193491
v 0.06941735 0.02371345 -0.03902577
v 0.06996174 0.02115361 -0.04066337
v 0.06996174 0.02187836 -0.04009984
v 0.07034633 0.02336966 -0.03866454
v 0.07080360 0.02239869 -0.03906912
v 0.07161996 0.01993176 -0.03952668
v 0.07129650 0.03011539 -0.03195039
v 0.07072948 0.03099809 -0.03166622
v 0.06941735 0.03344179 -0.03051509
v 0.06941735 0.03380416 -0.03012977
v 0.07068760 0.03241506 -0.03016830
v 0.07209023 0.03087265 -0.03005752
v 0.07227699 0.02983663 -0.03090522
v 0.07256243 0.02877274 -0.03090522
v 0.07230395 0.02877274 -0.03196484
v 0.07087870 0.02394574 -0.03769161
v 0.07045415 0.02491672 -0.03726295
v 0.07052491 0.02643590 -0.03586617
v 0.07363389 0.01808737 -0.03672832
v 0.07375664 0.01712569 -0.03672832
v 0.07402137 0.01421277 -0.03818770
v 0.07280502 0.02731860 -0.03090522
v 0.07362234 0.01953222 -0.03235979
v 0.07360742 0.01943001 -0.03156507
v 0.07414748 0.01129984 -0.03818770
v 0.07415663 0.00984570 -0.03818770
v 0.07405843 0.00838692 -0.03672832
v 0.07416481 0.00838692 -0.03818770
v 0.07361223 0.01857983 -0.03150246
v 0.07406566 0.00693278 -0.03672832
v 0.07410512 -0.00180600 -0.03672832
v 0.07416144 -0.00563415 -0.03726776
v 0.07386061 0.00547399 -0.03381436
v 0.07422402 -0.00471892 -0.03818770
v 0.07422787 -0.00563415 -0.03818770
v 0.07424616 -0.00563415 -0.03872715
v 0.07384376 -0.00563415 -0.03289923
v 0.07380044 -0.00471892 -0.03235979
v 0.07361223 -0.00035186 -0.03004307
v 0.07280743 0.02003397 -0.02071359
v 0.07267313 0.02440568 -0.01925420
v 0.07267939 0.02294689 -0.01925420
v 0.07227603 0.03605738 -0.01488567
v 0.07254991 0.02585982 -0.01779963
v 0.07268854 0.02003397 -0.01925420
v 0.07269672 0.01712569 -0.01925420
v 0.07141972 0.03605738 -0.00468922
v 0.07094223 0.03751616 0.00094122
v 0.07129313 0.03751616 -0.00323465
v 0.07141491 0.03751616 -0.00468922
v 0.07239781 0.03460324 -0.01634506
v 0.07251670 0.03314445 -0.01779963
v 0.07247338 0.03460324 -0.01779963
v 0.07246183 0.03460324 -0.01925420
v 0.07108712 0.03717702 -0.01925420
v 0.07141298 0.03749294 -0.01775628
v 0.07101780 0.03853360 -0.01634506
v 0.07250804 0.03314445 -0.02216816
v 0.07258746 0.03023153 -0.02799126
v 0.07232176 0.03135582 -0.02799126
v 0.07221009 0.03543484 -0.02021749
v 0.07144764 0.03607596 -0.02076175
v 0.07045848 0.03948599 -0.01488567
v 0.07061107 0.03962537 -0.01343110
v 0.07068664 0.03969505 -0.01268937
v 0.06949436 0.04140936 -0.00906257
v 0.06941735 0.04150691 -0.00889400
v 0.07417780 -0.00563415 -0.04109685
v 0.06941735 0.02543705 -0.03759047
v 0.06948329 0.02534413 -0.03762900
v 0.06941735 0.03215954 -0.03171920
v 0.06941735 0.03407362 -0.02960477
v 0.07028231 0.03313981 -0.02959032
v 0.07090084 0.03264735 -0.02920019
v 0.07149577 0.03176930 -0.02962886
v 0.07146304 0.03464041 -0.02371906
v 0.07222356 0.03399928 -0.02317962
v 0.07225052 0.03112817 -0.02908941
v 0.07239396 0.03032445 -0.02952289
v 0.07269720 0.02877274 -0.02944583
v 0.06955356 0.02688190 -0.03624186
v 0.06962191 0.02841037 -0.03485472
v 0.07367144 0.01842187 -0.03527375
v 0.07362427 0.01948577 -0.03354946
v 0.07391259 0.01567155 -0.03672832
v 0.07265773 0.03023153 -0.02653187
v 0.07261826 0.03168567 -0.02362755
v 0.07281369 0.03023153 -0.02216816
v 0.07270057 0.03168567 -0.02071359
v 0.07258697 0.03314445 -0.01925420
v 0.07274871 0.03023153 -0.02071359
v 0.07391596 0.01421277 -0.03527375
v 0.07404977 0.00984570 -0.03672832
v 0.07364833 0.00693278 -0.03101118
v 0.07374701 0.00693278 -0.03235979
v 0.07385338 0.00693278 -0.03381436
v 0.07395976 0.00693278 -0.03527375
v 0.07379996 0.01567155 -0.03381436
v 0.07263270 0.03168567 -0.01925420
v 0.07389334 -0.00180600 -0.03381436
v 0.07390633 -0.00471892 -0.03381436
v 0.07375471 0.00547399 -0.03235979
v 0.07360598 0.00256107 -0.03013458
v 0.07280069 0.02149276 -0.02071359
v 0.07266640 0.02585982 -0.01925420
v 0.07240455 0.03314445 -0.01634506
v 0.07218072 0.03605738 -0.01374899
v 0.07228036 0.03460324 -0.01488567
v 0.07252537 0.03168567 -0.01779963
v 0.07279347 0.02294689 -0.02071359
v 0.07264185 0.03023153 -0.01925420
v 0.07257398 0.03314445 -0.02071359
v 0.07084692 0.03694008 -0.02033791
v 0.07079205 0.03833383 -0.01727945
v 0.06941735 0.03967182 -0.01705308
v 0.07020770 0.03926299 -0.01634506
v 0.07111359 0.03578792 -0.02216816
v 0.06973021 0.04014105 -0.01488567
v 0.06941735 0.04103769 -0.01156713
v 0.06941735 0.04122817 -0.01051714
v 0.06941735 0.04133038 -0.00994880
v 0.06941735 0.02710490 -0.03614553
v 0.06945441 0.03411078 -0.02944583
v 0.06941735 0.03522113 -0.02719173
v 0.07086810 0.03552311 -0.02330484
v 0.07088447 0.03408755 -0.02624770
v 0.07279251 0.03023153 -0.02362755
v 0.07268373 0.03168567 -0.02216816
v 0.07380910 0.01421277 -0.03381436
v 0.07383606 0.00984570 -0.03381436
v 0.07365218 0.00547399 -0.03095338
v 0.07363485 0.01129984 -0.03119421
v 0.07360356 0.00349023 -0.03016348
v 0.07062503 0.03672173 -0.02130601
v 0.06991986 0.03893313 -0.01771293
v 0.06998821 0.03753939 -0.02076657
v 0.06941735 0.03826414 -0.02028492
v 0.06941735 0.03986230 -0.01660515
v 0.06947944 0.03991805 -0.01634506
v 0.06941735 0.04001561 -0.01619575
v 0.06941735 0.04040586 -0.01488567
v 0.06941735 0.04053594 -0.01421137
v 0.06941735 0.03550917 -0.02655596
v 0.06941975 0.03695402 -0.02328076
v 0.06941735 0.03695402 -0.02328076
v 0.06941735 0.03996451 -0.01634506
f 1 2 3
f 1 3 4
f 1 4 5
f 1 5 10
f 1 10 18
f 1 18 25
f 1 25 24
f 1 24 23
f 1 23 39
f 1 39 68
f 1 68 101
f 1 101 140
f 1 140 189
f 1 189 260
f 1 260 188
f 1 188 186
f 1 186 228
f 1 228 227
f 1 227 224
f 1 224 229
f 1 229 162
f 1 162 119
f 1 119 118
f 1 118 117
f 1 117 80
f 1 80 79
f 1 79 53
f 1 53 32
f 1 32 19
f 1 19 11
f 1 11 6
f 1 6 2
f 2 6 12
f 2 12 20
f 2 20 37
f 2 37 67
f 2 67 98
f 2 98 133
f 2 133 183
f 2 183 182
f 2 182 259
f 2 259 313
f 2 313 312
f 2 312 311
f 2 311 334
f 2 334 333
f 2 333 332
f 2 332 338
f 2 338 330
f 2 330 307
f 2 307 329
f 2 329 337
f 2 337 335
f 2 335 316
f 2 316 264
f 2 264 202
f 2 202 201
f 2 201 263
f 2 263 314
f 2 314 261
f 2 261 193
f 2 193 192
f 2 192 190
f 2 190 141
f 2 141 103
f 2 103 102
f 2 102 69
f 2 69 40
f 2 40 26
f 2 26 38
f 2 38 21
f 2 21 13
f 2 13 7
f 2 7 3
f 3 7 4
f 4 7 8
f 4 8 9
f 4 9 5
f 5 9 10
f 6 11 12
f 7 13 8
f 8 14 15
f 8 15 10
f 8 10 9
f 8 13 16
f 8 16 17
f 8 17 14
f 10 15 18
f 11 19 31
f 11 31 52
f 11 52 62
f 11 62 61
f 11 61 87
f 11 87 124
f 11 124 171
f 11 171 240
f 11 240 172
f 11 172 125
f 11 125 89
f 11 89 64
f 11 64 36
f 11 36 20
f 11 20 12
f 13 21 16
f 14 17 15
f 15 17 18
f 16 21 22
f 16 22 17
f 17 23 24
f 17 24 25
f 17 25 18
f 17 22 26
f 17 26 27
f 17 27 28
f 17 28 29
f 17 29 30
f 17 30 23
f 19 32 33
f 19 33 34
f 19 34 35
f 19 35 31
f 20 36 37
f 21 38 22
f 22 38 26
f 23 30 39
f 26 40 27
f 27 40 41
f 27 41 28
f 28 41 42
f 28 42 43
f 28 43 29
f 29 43 44
f 29 44 45
f 29 45 46
f 29 46 47
f 29 47 30
f 30 48 39
f 30 47 49
f 30 49 50
f 30 50 51
f 30 51 48
f 31 35 52
f 32 53 54
f 32 54 55
f 32 55 33
f 33 55 56
f 33 56 57
f 33 57 58
f 33 58 34
f 34 58 35
f 35 58 59
f 35 59 60
f 35 60 61
f 35 61 62
f 35 62 52
f 36 63 37
f 36 64 65
f 36 65 66
f 36 66 63
f 37 63 67
f 39 48 68
f 40 69 41
f 41 69 70
f 41 70 71
f 41 71 72
f 41 72 42
f 42 72 73
f 42 73 45
f 42 45 44
f 42 44 43
f 45 74 46
f 45 73 75
f 45 75 74
f 46 74 47
f 47 74 75
f 47 75 49
f 48 51 76
f 48 76 77
f 48 77 78
f 48 78 68
f 49 75 50
f 50 75 76
f 50 76 51
f 53 79 54
f 54 80 81
f 54 81 82
f 54 82 56
f 54 56 55
f 54 79 80
f 56 82 83
f 56 83 57
f 57 83 58
f 58 83 84
f 58 84 59
f 59 84 85
f 59 85 86
f 59 86 60
f 60 86 87
f 60 87 61
f 63 88 67
f 63 66 88
f 64 89 90
f 64 90 65
f 65 91 92
f 65 92 66
f 65 90 89
f 65 89 91
f 66 92 93
f 66 93 94
f 66 94 95
f 66 95 96
f 66 96 97
f 66 97 88
f 67 88 97
f 67 97 98
f 68 78 99
f 68 99 100
f 68 100 101
f 69 102 70
f 70 102 103
f 70 103 104
f 70 104 105
f 70 105 71
f 71 105 106
f 71 106 107
f 71 107 108
f 71 108 72
f 72 108 73
f 73 109 110
f 73 110 111
f 73 111 112
f 73 112 113
f 73 113 114
f 73 114 75
f 73 108 107
f 73 107 109
f 75 114 115
f 75 115 76
f 76 115 116
f 76 116 77
f 77 116 78
f 78 116 99
f 80 117 81
f 81 117 83
f 81 83 82
f 83 118 119
f 83 119 120
f 83 120 84
f 83 117 118
f 84 120 85
f 85 120 121
f 85 121 122
f 85 122 86
f 86 122 123
f 86 123 124
f 86 124 87
f 89 125 126
f 89 126 91
f 91 126 92
f 92 126 127
f 92 127 128
f 92 128 93
f 93 128 94
f 94 128 95
f 95 128 129
f 95 129 130
f 95 130 96
f 96 130 131
f 96 131 132
f 96 132 97
f 97 132 131
f 97 131 98
f 98 131 133
f 99 116 134
f 99 134 135
f 99 135 136
f 99 136 137
f 99 137 138
f 99 138 139
f 99 139 101
f 99 101 100
f 101 139 140
f 103 141 104
f 104 141 142
f 104 142 105
f 105 142 143
f 105 143 144
f 105 144 106
f 106 145 110
f 106 110 109
f 106 109 107
f 106 144 146
f 106 146 147
f 106 147 145
f 110 145 111
f 111 145 148
f 111 148 112
f 112 148 149
f 112 149 150
f 112 150 151
f 112 151 152
f 112 152 113
f 113 152 114
f 114 152 153
f 114 153 115
f 115 153 154
f 115 154 116
f 116 154 155
f 116 155 156
f 116 156 157
f 116 157 158
f 116 158 159
f 116 159 160
f 116 160 161
f 116 161 134
f 119 162 163
f 119 163 120
f 120 163 162
f 120 162 164
f 120 164 165
f 120 165 166
f 120 166 167
f 120 167 168
f 120 168 121
f 121 168 238
f 121 238 169
f 121 169 122
f 122 169 123
f 123 169 124
f 124 170 239
f 124 239 171
f 124 169 170
f 125 172 173
f 125 173 174
f 125 174 126
f 126 174 127
f 127 175 176
f 127 176 177
f 127 177 128
f 127 174 173
f 127 173 172
f 127 172 175
f 128 177 178
f 128 178 179
f 128 179 180
f 128 180 181
f 128 181 129
f 129 181 182
f 129 182 183
f 129 183 133
f 129 133 131
f 129 131 130
f 134 161 184
f 134 184 185
f 134 185 135
f 135 185 186
f 135 186 136
f 136 186 137
f 137 186 138
f 138 187 139
f 138 186 188
f 138 188 187
f 139 187 189
f 139 189 140
f 141 190 142
f 142 191 144
f 142 144 143
f 142 190 192
f 142 192 193
f 142 193 194
f 142 194 191
f 144 191 146
f 145 147 148
f 146 149 147
f 146 191 194
f 146 194 195
f 146 195 193
f 146 193 196
f 146 196 197
f 146 197 151
f 146 151 150
f 146 150 149
f 147 149 198
f 147 198 148
f 148 198 149
f 151 199 200
f 151 200 201
f 151 201 202
f 151 202 203
f 151 203 204
f 151 204 205
f 151 205 206
f 151 206 207
f 151 207 152
f 151 197 208
f 151 208 209
f 151 209 210
f 151 210 199
f 152 211 212
f 152 212 213
f 152 213 153
f 152 207 206
f 152 206 214
f 152 214 211
f 153 213 154
f 154 213 215
f 154 215 216
f 154 216 155
f 155 217 218
f 155 218 219
f 155 219 220
f 155 220 156
f 155 216 221
f 155 221 217
f 156 220 289
f 156 289 222
f 156 222 157
f 157 222 225
f 157 225 158
f 158 223 224
f 158 224 159
f 158 225 292
f 158 292 223
f 159 224 226
f 159 226 227
f 159 227 160
f 160 227 161
f 161 227 228
f 161 228 184
f 162 229 230
f 162 230 164
f 164 230 231
f 164 231 165
f 165 231 232
f 165 232 166
f 166 232 233
f 166 233 234
f 166 234 167
f 167 234 235
f 167 235 236
f 167 236 168
f 168 237 238
f 168 236 237
f 169 238 239
f 169 239 170
f 171 239 240
f 172 240 241
f 172 241 242
f 172 242 175
f 175 235 176
f 175 242 235
f 176 243 244
f 176 244 245
f 176 245 246
f 176 246 177
f 176 235 243
f 177 246 178
f 178 247 248
f 178 248 249
f 178 249 179
f 178 246 250
f 178 250 251
f 178 251 252
f 178 252 253
f 178 253 204
f 178 204 254
f 178 254 247
f 179 249 180
f 180 249 255
f 180 255 256
f 180 256 257
f 180 257 181
f 181 257 258
f 181 258 182
f 182 258 259
f 184 228 185
f 185 228 186
f 187 188 260
f 187 260 189
f 193 261 262
f 193 262 196
f 193 195 194
f 196 262 209
f 196 209 197
f 197 209 208
f 199 210 200
f 200 263 201
f 200 210 263
f 202 264 203
f 203 264 265
f 203 265 266
f 203 266 267
f 203 267 204
f 204 267 268
f 204 268 254
f 204 253 269
f 204 269 270
f 204 270 205
f 205 270 271
f 205 271 206
f 206 271 251
f 206 251 272
f 206 272 214
f 209 262 273
f 209 273 274
f 209 274 263
f 209 263 210
f 211 214 212
f 212 214 275
f 212 275 276
f 212 276 213
f 213 277 215
f 213 276 277
f 214 272 278
f 214 278 279
f 214 279 276
f 214 276 275
f 215 276 280
f 215 280 216
f 215 277 276
f 216 280 281
f 216 281 282
f 216 282 245
f 216 245 283
f 216 283 221
f 217 284 218
f 217 221 284
f 218 284 321
f 218 321 285
f 218 285 219
f 219 285 286
f 219 286 287
f 219 287 288
f 219 288 289
f 219 289 220
f 221 290 284
f 221 283 291
f 221 291 290
f 222 289 294
f 222 294 225
f 223 292 224
f 224 227 226
f 224 292 293
f 224 293 229
f 225 294 295
f 225 295 292
f 229 293 230
f 230 295 231
f 230 293 295
f 231 295 232
f 232 295 296
f 232 296 233
f 233 296 297
f 233 297 301
f 233 301 243
f 233 243 298
f 233 298 234
f 234 298 235
f 235 242 241
f 235 241 299
f 235 299 300
f 235 300 236
f 235 298 243
f 236 300 239
f 236 239 237
f 237 239 238
f 239 241 240
f 239 300 299
f 239 299 241
f 243 301 244
f 244 301 302
f 244 302 303
f 244 303 291
f 244 291 245
f 245 291 283
f 245 282 281
f 245 281 246
f 246 281 280
f 246 280 304
f 246 304 250
f 247 305 249
f 247 249 248
f 247 254 305
f 249 305 306
f 249 306 307
f 249 307 308
f 249 308 255
f 250 279 251
f 250 304 279
f 251 279 278
f 251 278 272
f 251 271 252
f 252 269 253
f 252 271 270
f 252 270 269
f 254 268 309
f 254 309 305
f 255 308 331
f 255 331 310
f 255 310 256
f 256 310 311
f 256 311 257
f 257 311 312
f 257 312 313
f 257 313 258
f 258 313 259
f 261 314 262
f 262 314 273
f 263 274 314
f 264 315 265
f 264 316 315
f 265 315 317
f 265 317 318
f 265 318 266
f 266 318 267
f 267 318 317
f 267 317 309
f 267 309 268
f 273 314 274
f 276 279 319
f 276 319 320
f 276 320 304
f 276 304 280
f 279 304 320
f 279 320 319
f 284 290 321
f 285 321 322
f 285 322 286
f 286 323 287
f 286 322 324
f 286 324 303
f 286 303 302
f 286 302 323
f 287 323 288
f 288 323 294
f 288 294 289
f 290 291 303
f 290 303 321
f 292 295 293
f 294 323 295
f 295 323 325
f 295 325 296
f 296 325 302
f 296 302 301
f 296 301 297
f 302 325 323
f 303 324 321
f 305 309 317
f 305 317 326
f 305 326 306
f 306 327 307
f 306 326 328
f 306 328 327
f 307 330 331
f 307 331 308
f 307 327 329
f 310 331 332
f 310 332 333
f 310 333 334
f 310 334 311
f 315 316 317
f 316 335 326
f 316 326 317
f 321 324 322
f 326 335 336
f 326 336 328
f 327 328 329
f 328 336 329
f 329 336 337
f 330 338 331
f 331 338 332
f 335 337 336

