# https://github.com/mikedh/trimesh
v 0.06357689 -0.05677217 0.00094122
v 0.06385192 -0.05667795 0.00094122
v 0.06682065 -0.05534244 0.00842315
v 0.06357689 -0.05676463 0.00109513
v 0.06357689 -0.05558994 0.00094122
v 0.06681630 -0.05531606 0.00094122
v 0.06683081 -0.05532360 0.00259654
v 0.06684097 -0.05533113 0.00405084
v 0.06686201 -0.05534495 0.00696572
v 0.06931551 -0.05359862 0.00696572
v 0.06929011 -0.05357475 0.00791117
v 0.06664576 -0.05523439 0.00987745
v 0.06559281 -0.05552084 0.00987745
v 0.06357689 -0.05676212 0.00113910
v 0.06920594 -0.04393726 0.00300174
v 0.06967908 -0.04393726 0.00094122
v 0.06357689 -0.04580546 0.02941152
v 0.06754414 -0.05478211 0.00094122
v 0.06754705 -0.05478462 0.00113910
v 0.06681992 -0.05531606 0.00113910
v 0.06929592 -0.05357475 0.00550828
v 0.06974874 -0.05272043 0.00094122
v 0.06982856 -0.05253700 0.00094122
v 0.06966166 -0.05278702 0.00550828
v 0.06961739 -0.05278702 0.00696572
v 0.06823571 -0.05390266 0.00987745
v 0.06737361 -0.05463134 0.00987745
v 0.06945774 -0.05284481 0.00840745
v 0.06929955 -0.05219402 0.01103649
v 0.06921464 -0.05201687 0.01200707
v 0.06799987 -0.05088741 0.02007009
v 0.06788013 -0.05215382 0.01675003
v 0.06645201 -0.05507861 0.01096111
v 0.06569513 -0.05532234 0.01140085
v 0.06359793 -0.05505348 0.01523919
v 0.06357689 -0.05505348 0.01523919
v 0.06452680 -0.04393726 0.03158825
v 0.07099037 -0.04393726 0.00094122
v 0.06357689 -0.04583938 0.03025646
v 0.06452680 -0.04393726 0.03161024
v 0.06831844 -0.05415267 0.00094122
v 0.06923859 -0.05352073 0.00322475
v 0.06926109 -0.05354083 0.00405084
v 0.06916530 -0.05344911 0.00094122
v 0.07023712 -0.05133090 0.00094122
v 0.07000635 -0.05133090 0.00550828
v 0.06990549 -0.05133090 0.00696572
v 0.06977777 -0.05133090 0.00842315
v 0.06797955 -0.05368657 0.01133489
v 0.06782643 -0.05355716 0.01220495
v 0.06962900 -0.05133090 0.00987745
v 0.06938590 -0.05241388 0.00987745
v 0.06941203 -0.05145151 0.01144797
v 0.06931406 -0.05099546 0.01279233
v 0.06924947 -0.05068263 0.01362784
v 0.06837939 -0.04987605 0.02007009
v 0.06787215 -0.05071026 0.02097785
v 0.06770161 -0.05199928 0.01772060
v 0.06624882 -0.05491151 0.01193169
v 0.06522054 -0.05514520 0.01279233
v 0.06357689 -0.05359988 0.01936336
v 0.06492664 -0.05500323 0.01360585
v 0.07098892 -0.04404907 0.00094122
v 0.07098311 -0.04393726 0.00102917
v 0.06468499 -0.04393726 0.03302999
v 0.06357689 -0.04618237 0.03021248
v 0.06843745 -0.05405468 0.00094122
v 0.07062753 -0.04878427 0.00094122
v 0.07070735 -0.04823274 0.00094122
v 0.07073638 -0.04800408 0.00094122
v 0.06980679 -0.04696256 0.01279233
v 0.06978793 -0.04987605 0.00987745
v 0.06965513 -0.04987605 0.01133489
v 0.06955208 -0.04696256 0.01570406
v 0.06925093 -0.04632056 0.01945759
v 0.06927560 -0.04935089 0.01524861
v 0.06844688 -0.04841867 0.02152753
v 0.06834456 -0.04404907 0.02735414
v 0.06827272 -0.04550645 0.02589671
v 0.06810219 -0.04846014 0.02301324
v 0.06805212 -0.04986599 0.02148984
v 0.06791351 -0.04937476 0.02254523
v 0.06778434 -0.04624518 0.02663799
v 0.06650063 -0.04643992 0.02835927
v 0.06642370 -0.04778170 0.02676677
v 0.06696796 -0.05091128 0.02148984
v 0.06607103 -0.05192767 0.02048785
v 0.06697957 -0.05162614 0.02002926
v 0.06745126 -0.05185480 0.01861580
v 0.06594912 -0.05476703 0.01279233
v 0.06647595 -0.05361621 0.01525804
v 0.06644765 -0.05212241 0.01951727
v 0.06385047 -0.05373431 0.01861580
v 0.06357689 -0.05356470 0.01946074
v 0.06520167 -0.05368280 0.01689765
v 0.07093086 -0.04530920 0.00094122
v 0.07084959 -0.04404907 0.00259654
v 0.07071751 -0.04516849 0.00366135
v 0.06950782 -0.04393726 0.01850272
v 0.06974366 -0.04404907 0.01570406
v 0.06486133 -0.04478027 0.03245518
v 0.06518063 -0.04393726 0.03302999
v 0.06357689 -0.04664973 0.02998947
v 0.07080822 -0.04706935 0.00094122
v 0.07077847 -0.04709699 0.00127731
v 0.06992726 -0.04550645 0.01279233
v 0.06980389 -0.04550645 0.01424662
v 0.06955353 -0.04550645 0.01715836
v 0.06967980 -0.04696256 0.01424662
v 0.06925818 -0.04492978 0.02100612
v 0.06942509 -0.04550645 0.01861580
v 0.06836125 -0.04393726 0.02735414
v 0.06802962 -0.04393726 0.02873934
v 0.06800930 -0.04401264 0.02873306
v 0.06799116 -0.04393726 0.02888383
v 0.06783877 -0.04487324 0.02819908
v 0.06753761 -0.04447372 0.02916966
v 0.06701948 -0.04546876 0.02876447
v 0.06656739 -0.04509185 0.02992037
v 0.06624301 -0.04469233 0.03089094
v 0.06613416 -0.04606301 0.02932985
v 0.06486714 -0.04478027 0.03245518
v 0.06516321 -0.04642735 0.02983870
v 0.06546945 -0.04795382 0.02729446
v 0.06642806 -0.05065624 0.02234106
v 0.06510008 -0.05217141 0.02098099
v 0.06357689 -0.05324810 0.02025856
v 0.06357689 -0.05352952 0.01955183
v 0.06672413 -0.05228447 0.01861580
v 0.07092143 -0.04550645 0.00094122
v 0.07076831 -0.04559439 0.00269391
v 0.06949766 -0.04404907 0.01861580
v 0.06938445 -0.04393726 0.01996016
v 0.06357689 -0.04766989 0.02892780
v 0.06357689 -0.04807695 0.02847549
v 0.06606522 -0.04393726 0.03201229
v 0.06937429 -0.04404907 0.02007009
v 0.06927270 -0.04404907 0.02119773
v 0.06857750 -0.04393726 0.02589671
v 0.06772992 -0.04393726 0.02949319
v 0.06716897 -0.04393726 0.03038838
v 0.06708624 -0.04409682 0.03032556
v 0.06689539 -0.04393726 0.03081242
v 0.06654707 -0.04393726 0.03134640
v 0.06357689 -0.04891116 0.02727876
v 0.06490197 -0.04770884 0.02811113
v 0.06446874 -0.05186485 0.02195471
v 0.06357689 -0.05259479 0.02148984
v 0.06357689 -0.05288878 0.02096529
v 0.06937502 -0.04393726 0.02007009
v 0.06927342 -0.04393726 0.02120401
v 0.06357689 -0.05201310 0.02240702
f 1 2 3
f 1 3 4
f 1 4 14
f 1 14 36
f 1 36 61
f 1 61 94
f 1 94 128
f 1 128 127
f 1 127 149
f 1 149 148
f 1 148 152
f 1 152 145
f 1 145 135
f 1 135 134
f 1 134 103
f 1 103 66
f 1 66 39
f 1 39 17
f 1 17 5
f 1 5 16
f 1 16 38
f 1 38 63
f 1 63 96
f 1 96 130
f 1 130 104
f 1 104 70
f 1 70 69
f 1 69 68
f 1 68 45
f 1 45 23
f 1 23 22
f 1 22 44
f 1 44 67
f 1 67 41
f 1 41 18
f 1 18 6
f 1 6 2
f 2 6 7
f 2 7 8
f 2 8 9
f 2 9 3
f 3 9 10
f 3 10 11
f 3 11 12
f 3 12 13
f 3 13 14
f 3 14 4
f 5 15 16
f 5 17 15
f 6 18 19
f 6 19 10
f 6 10 20
f 6 20 7
f 7 20 10
f 7 10 8
f 8 10 9
f 10 19 18
f 10 18 21
f 10 21 22
f 10 22 23
f 10 23 24
f 10 24 25
f 10 25 11
f 11 26 27
f 11 27 12
f 11 25 28
f 11 28 29
f 11 29 30
f 11 30 31
f 11 31 32
f 11 32 26
f 12 27 33
f 12 33 34
f 12 34 13
f 13 34 35
f 13 35 14
f 14 35 36
f 15 17 37
f 15 37 40
f 15 40 65
f 15 65 102
f 15 102 136
f 15 136 144
f 15 144 143
f 15 143 141
f 15 141 140
f 15 140 115
f 15 115 113
f 15 113 112
f 15 112 139
f 15 139 151
f 15 151 150
f 15 150 133
f 15 133 99
f 15 99 64
f 15 64 38
f 15 38 16
f 17 39 40
f 17 40 37
f 18 41 42
f 18 42 43
f 18 43 21
f 21 43 22
f 22 43 42
f 22 42 44
f 23 45 24
f 24 45 25
f 25 45 46
f 25 46 47
f 25 47 48
f 25 48 28
f 26 32 49
f 26 49 27
f 27 49 50
f 27 50 33
f 28 48 51
f 28 51 52
f 28 52 29
f 29 53 30
f 29 52 51
f 29 51 53
f 30 53 54
f 30 54 55
f 30 55 56
f 30 56 31
f 31 56 57
f 31 57 32
f 32 57 58
f 32 58 33
f 32 33 50
f 32 50 49
f 33 59 34
f 33 58 59
f 34 59 60
f 34 60 35
f 35 61 36
f 35 60 62
f 35 62 61
f 38 64 63
f 39 65 40
f 39 66 65
f 41 67 42
f 42 67 44
f 45 68 46
f 46 68 69
f 46 69 70
f 46 70 47
f 47 71 72
f 47 72 48
f 47 70 71
f 48 73 51
f 48 72 74
f 48 74 73
f 51 73 75
f 51 75 53
f 53 75 54
f 54 75 76
f 54 76 55
f 55 76 75
f 55 75 56
f 56 75 77
f 56 77 78
f 56 78 79
f 56 79 80
f 56 80 81
f 56 81 57
f 57 81 82
f 57 82 83
f 57 83 84
f 57 84 85
f 57 85 86
f 57 86 87
f 57 87 88
f 57 88 89
f 57 89 58
f 58 89 59
f 59 90 60
f 59 89 91
f 59 91 90
f 60 90 92
f 60 92 62
f 61 93 92
f 61 92 94
f 61 62 93
f 62 92 95
f 62 95 93
f 63 64 97
f 63 97 98
f 63 98 96
f 64 99 100
f 64 100 97
f 65 101 122
f 65 122 102
f 65 66 103
f 65 103 101
f 70 104 105
f 70 105 106
f 70 106 107
f 70 107 71
f 71 107 108
f 71 108 109
f 71 109 72
f 72 109 74
f 73 74 110
f 73 110 75
f 74 109 108
f 74 108 111
f 74 111 110
f 75 110 78
f 75 78 77
f 78 112 113
f 78 113 114
f 78 114 79
f 78 110 112
f 79 114 80
f 80 114 81
f 81 114 82
f 82 114 115
f 82 115 116
f 82 116 83
f 83 116 117
f 83 117 118
f 83 118 119
f 83 119 84
f 84 119 120
f 84 120 121
f 84 121 85
f 85 121 122
f 85 122 123
f 85 123 124
f 85 124 125
f 85 125 86
f 86 126 87
f 86 125 126
f 87 126 127
f 87 127 128
f 87 128 92
f 87 92 88
f 88 92 129
f 88 129 89
f 89 129 91
f 90 91 92
f 91 129 92
f 92 128 94
f 92 93 95
f 96 98 130
f 97 100 98
f 98 106 131
f 98 131 130
f 98 100 132
f 98 132 110
f 98 110 106
f 99 133 132
f 99 132 100
f 101 103 134
f 101 134 135
f 101 135 122
f 102 122 136
f 104 130 105
f 105 130 131
f 105 131 106
f 106 110 107
f 107 110 108
f 108 110 111
f 110 132 137
f 110 137 138
f 110 138 112
f 112 138 139
f 113 115 114
f 115 140 116
f 116 140 117
f 117 140 141
f 117 141 142
f 117 142 118
f 118 142 119
f 119 142 143
f 119 143 144
f 119 144 120
f 120 144 136
f 120 136 122
f 120 122 121
f 122 135 145
f 122 145 123
f 123 145 146
f 123 146 124
f 124 146 145
f 124 145 125
f 125 145 147
f 125 147 126
f 126 148 149
f 126 149 127
f 126 147 148
f 132 133 137
f 133 150 137
f 137 150 151
f 137 151 138
f 138 151 139
f 141 143 142
f 145 152 147
f 147 152 148

