# https://github.com/mikedh/trimesh
v -0.04180098 -0.00516039 -0.02856216
v -0.04127376 -0.00516039 -0.02966100
v -0.04336586 -0.00516039 -0.02856216
v -0.04068830 -0.01871854 -0.02856216
v -0.04097161 -0.00516039 -0.03090635
v -0.04058211 -0.02017832 -0.02856216
v -0.04400133 -0.00516039 -0.04233108
v -0.04379305 -0.01055757 -0.02856216
v -0.04091782 -0.00516039 -0.03236350
v -0.04052044 -0.02163447 -0.02856216
v -0.04381223 -0.01103209 -0.02856216
v -0.04400133 -0.00516039 -0.04482974
v -0.04400133 -0.03956833 -0.02856216
v -0.04058827 -0.01929086 -0.02944919
v -0.04090892 -0.00618187 -0.03236350
v -0.04100244 -0.00516039 -0.03338590
v -0.04050194 -0.02309063 -0.02856216
v -0.04393110 -0.00516039 -0.04475330
v -0.04400133 -0.00536686 -0.04482656
v -0.04400133 -0.04216188 -0.02856216
v -0.04137173 -0.00909417 -0.03818734
v -0.04124601 -0.00909417 -0.03673019
v -0.04099182 -0.01055033 -0.03381907
v -0.04087124 -0.01055033 -0.03236350
v -0.04088357 -0.00909417 -0.03236350
v -0.04124396 -0.00516039 -0.03629862
v -0.04050331 -0.02365932 -0.02856216
v -0.04144950 -0.00909417 -0.03905208
v -0.04322164 -0.00516039 -0.04397615
v -0.04277492 -0.00763802 -0.04344266
v -0.04400133 -0.00763802 -0.04478515
v -0.04400133 -0.04216188 -0.02925172
v -0.04356455 -0.04216188 -0.02856216
v -0.04145087 -0.00763802 -0.03905208
v -0.04112508 -0.00909417 -0.03527622
v -0.04145738 -0.00618187 -0.03897405
v -0.04127993 -0.00516039 -0.03673019
v -0.04074106 -0.02365932 -0.03090635
v -0.04056601 -0.02511185 -0.02856216
v -0.04064993 -0.02511185 -0.02944919
v -0.04145498 -0.00997438 -0.03898201
v -0.04187772 -0.00909417 -0.04110006
v -0.04187395 -0.00763802 -0.04110006
v -0.04275573 -0.00516039 -0.04346495
v -0.04276293 -0.00618187 -0.04345540
v -0.04225318 -0.00763802 -0.04255722
v -0.04227784 -0.00909417 -0.04255722
v -0.04280575 -0.00909417 -0.04341558
v -0.04345253 -0.00909417 -0.04414336
v -0.04400133 -0.00909417 -0.04475489
v -0.04400133 -0.04200250 -0.02946353
v -0.04332543 -0.04115851 -0.02954474
v -0.04334256 -0.04189745 -0.02856216
v -0.04146115 -0.00540670 -0.03892787
v -0.04144025 -0.00516039 -0.03863325
v -0.04081266 -0.02511185 -0.03090635
v -0.04096990 -0.02365932 -0.03236350
v -0.04062116 -0.02599931 -0.02856216
v -0.04072084 -0.02745546 -0.02856216
v -0.04193664 -0.01055033 -0.04110006
v -0.04142723 -0.02471702 -0.03474591
v -0.04210621 -0.01929086 -0.03964450
v -0.04227956 -0.00618187 -0.04255722
v -0.04230011 -0.00516039 -0.04255722
v -0.04219631 -0.00516039 -0.04212246
v -0.04261151 -0.00516039 -0.04319741
v -0.04247928 -0.01200648 -0.04245052
v -0.04248236 -0.01063726 -0.04269099
v -0.04202434 -0.01200648 -0.04110006
v -0.04230114 -0.02220317 -0.03964450
v -0.04252724 -0.01929086 -0.04096629
v -0.04285953 -0.01020983 -0.04335825
v -0.04400133 -0.01057206 -0.04469438
v -0.04400133 -0.04106071 -0.03068180
v -0.04309488 -0.04160042 -0.02856216
v -0.04297224 -0.04031814 -0.03009257
v -0.04147999 -0.00516039 -0.03889283
v -0.04105314 -0.02511185 -0.03236350
v -0.04086610 -0.02891161 -0.02856216
v -0.04118743 -0.03182030 -0.02856216
v -0.04132857 -0.02516619 -0.03390825
v -0.04197706 -0.03817738 -0.02856216
v -0.04215177 -0.02511185 -0.03818734
v -0.04219734 -0.02074702 -0.03964450
v -0.04257760 -0.01346263 -0.04229923
v -0.04261117 -0.02074702 -0.04081500
v -0.04242515 -0.02365932 -0.03964450
v -0.04321512 -0.01491878 -0.04287731
v -0.04394344 -0.01491878 -0.04387901
v -0.04400133 -0.01341554 -0.04424847
v -0.04400133 -0.01200648 -0.04451920
v -0.04400133 -0.04097739 -0.03078213
v -0.04275745 -0.04068761 -0.02912273
v -0.04267420 -0.04091582 -0.02856216
v -0.04319149 -0.03977118 -0.03103534
v -0.04293558 -0.03890183 -0.03160546
v -0.04133371 -0.03305187 -0.02856216
v -0.04215280 -0.03910830 -0.02856216
v -0.04266769 -0.03834038 -0.03103534
v -0.04241487 -0.03094008 -0.03527622
v -0.04225866 -0.02802416 -0.03673019
v -0.04237924 -0.02656800 -0.03818734
v -0.04263206 -0.02499956 -0.03967794
v -0.04268585 -0.01491878 -0.04214794
v -0.04271017 -0.02220317 -0.04066371
v -0.04282699 -0.02365932 -0.04049650
v -0.04287358 -0.01740366 -0.04188995
v -0.04332509 -0.01637494 -0.04272602
v -0.04400133 -0.01569033 -0.04379938
v -0.04400133 -0.01481011 -0.04397615
v -0.04400133 -0.03968424 -0.03223610
v -0.04257211 -0.03977118 -0.02954474
v -0.04257999 -0.04063328 -0.02856216
v -0.04397495 -0.03960455 -0.03228547
v -0.04227579 -0.03970960 -0.02856216
v -0.04400133 -0.03955746 -0.03236669
v -0.04400133 -0.03812305 -0.03359293
v -0.04400133 -0.03675383 -0.03456755
v -0.04342889 -0.03672485 -0.03373944
v -0.04287529 -0.03177683 -0.03607248
v -0.04285850 -0.03621049 -0.03320117
v -0.04269784 -0.02790100 -0.03816027
v -0.04276190 -0.02656800 -0.03915719
v -0.04290064 -0.02443811 -0.04039298
v -0.04325281 -0.02220317 -0.04139149
v -0.04400133 -0.01783833 -0.04334711
v -0.04400133 -0.01637494 -0.04365606
v -0.04400133 -0.02215608 -0.04235497
v -0.04400133 -0.02064197 -0.04273558
v -0.04400133 -0.03368939 -0.03651202
v -0.04362793 -0.03243970 -0.03675885
v -0.04279719 -0.02906737 -0.03765863
v -0.04290441 -0.02732868 -0.03893583
v -0.04328330 -0.02656800 -0.03988497
v -0.04307022 -0.02540888 -0.04018755
v -0.04400133 -0.02651729 -0.04077996
v -0.04369130 -0.02498507 -0.04104910
v -0.04400133 -0.02477136 -0.04147271
v -0.04400133 -0.02411573 -0.04170999
v -0.04400133 -0.02365932 -0.04187244
v -0.04400133 -0.02220317 -0.04234063
v -0.04400133 -0.03222599 -0.03743886
v -0.04400133 -0.02914344 -0.03938970
v -0.04311441 -0.02829945 -0.03862847
v -0.04366938 -0.02798793 -0.03962380
v -0.04400133 -0.02827047 -0.03992001
v -0.04400133 -0.02779958 -0.04017322
v -0.04400133 -0.02656800 -0.04075926
f 1 2 5
f 1 5 9
f 1 9 16
f 1 16 26
f 1 26 37
f 1 37 55
f 1 55 77
f 1 77 65
f 1 65 64
f 1 64 66
f 1 66 44
f 1 44 29
f 1 29 18
f 1 18 12
f 1 12 7
f 1 7 3
f 1 3 8
f 1 8 11
f 1 11 13
f 1 13 20
f 1 20 33
f 1 33 53
f 1 53 75
f 1 75 94
f 1 94 113
f 1 113 115
f 1 115 98
f 1 98 82
f 1 82 97
f 1 97 80
f 1 80 79
f 1 79 59
f 1 59 58
f 1 58 39
f 1 39 27
f 1 27 17
f 1 17 10
f 1 10 6
f 1 6 4
f 1 4 2
f 2 4 6
f 2 6 5
f 3 7 8
f 5 6 10
f 5 10 9
f 7 11 8
f 7 12 19
f 7 19 31
f 7 31 50
f 7 50 73
f 7 73 91
f 7 91 90
f 7 90 110
f 7 110 109
f 7 109 127
f 7 127 126
f 7 126 129
f 7 129 128
f 7 128 141
f 7 141 140
f 7 140 139
f 7 139 138
f 7 138 136
f 7 136 148
f 7 148 147
f 7 147 146
f 7 146 143
f 7 143 142
f 7 142 130
f 7 130 118
f 7 118 117
f 7 117 116
f 7 116 111
f 7 111 92
f 7 92 74
f 7 74 51
f 7 51 32
f 7 32 20
f 7 20 13
f 7 13 11
f 9 10 14
f 9 14 15
f 9 15 16
f 10 17 14
f 12 18 19
f 14 21 22
f 14 22 23
f 14 23 24
f 14 24 25
f 14 25 15
f 14 17 21
f 15 25 16
f 16 25 35
f 16 35 26
f 17 27 28
f 17 28 21
f 18 29 19
f 19 29 30
f 19 30 31
f 20 32 33
f 21 28 34
f 21 34 22
f 22 34 23
f 23 34 35
f 23 35 25
f 23 25 24
f 26 36 37
f 26 35 34
f 26 34 36
f 27 38 28
f 27 39 40
f 27 40 38
f 28 41 42
f 28 42 43
f 28 43 34
f 28 38 41
f 29 44 45
f 29 45 30
f 30 45 46
f 30 46 47
f 30 47 48
f 30 48 49
f 30 49 50
f 30 50 31
f 32 51 52
f 32 52 33
f 33 52 53
f 34 43 36
f 36 54 37
f 36 43 54
f 37 54 55
f 38 40 56
f 38 56 57
f 38 57 41
f 39 58 40
f 40 58 59
f 40 59 56
f 41 60 42
f 41 57 61
f 41 61 62
f 41 62 60
f 42 47 46
f 42 46 43
f 42 60 47
f 43 46 63
f 43 63 64
f 43 64 65
f 43 65 54
f 44 66 46
f 44 46 45
f 46 66 63
f 47 67 68
f 47 68 48
f 47 60 69
f 47 69 70
f 47 70 71
f 47 71 67
f 48 68 72
f 48 72 73
f 48 73 49
f 49 73 50
f 51 74 52
f 52 75 53
f 52 74 76
f 52 76 75
f 54 65 77
f 54 77 55
f 56 78 57
f 56 59 79
f 56 79 80
f 56 80 78
f 57 78 61
f 60 62 69
f 61 78 81
f 61 81 82
f 61 82 83
f 61 83 62
f 62 83 84
f 62 84 69
f 63 66 64
f 67 85 72
f 67 72 68
f 67 71 86
f 67 86 85
f 69 84 70
f 70 84 83
f 70 83 87
f 70 87 71
f 71 87 86
f 72 85 88
f 72 88 89
f 72 89 90
f 72 90 91
f 72 91 73
f 74 92 76
f 75 76 93
f 75 93 94
f 76 92 95
f 76 95 96
f 76 96 93
f 78 80 81
f 80 97 81
f 81 97 82
f 82 98 99
f 82 99 100
f 82 100 101
f 82 101 83
f 83 101 102
f 83 102 103
f 83 103 87
f 85 104 88
f 85 86 105
f 85 105 104
f 86 87 105
f 87 103 106
f 87 106 105
f 88 104 107
f 88 107 108
f 88 108 109
f 88 109 89
f 89 109 110
f 89 110 90
f 92 111 95
f 93 96 112
f 93 112 113
f 93 113 94
f 95 111 114
f 95 114 96
f 96 99 98
f 96 98 115
f 96 115 112
f 96 114 116
f 96 116 117
f 96 117 118
f 96 118 119
f 96 119 120
f 96 120 121
f 96 121 99
f 99 121 100
f 100 121 102
f 100 102 101
f 102 121 122
f 102 122 123
f 102 123 103
f 103 124 106
f 103 123 124
f 104 105 107
f 105 106 125
f 105 125 126
f 105 126 127
f 105 127 109
f 105 109 108
f 105 108 107
f 106 124 128
f 106 128 129
f 106 129 125
f 111 116 114
f 112 115 113
f 118 130 131
f 118 131 120
f 118 120 119
f 120 132 121
f 120 131 133
f 120 133 132
f 121 132 122
f 122 132 123
f 123 132 133
f 123 133 134
f 123 134 135
f 123 135 124
f 124 135 136
f 124 136 137
f 124 137 138
f 124 138 139
f 124 139 140
f 124 140 141
f 124 141 128
f 125 129 126
f 130 142 131
f 131 142 143
f 131 143 144
f 131 144 133
f 133 144 143
f 133 143 145
f 133 145 134
f 134 145 146
f 134 146 147
f 134 147 135
f 135 147 148
f 135 148 136
f 136 138 137
f 143 146 145

