# https://github.com/mikedh/trimesh
v 0.04529801 0.01744756 -0.00904251
v 0.04346025 0.01744756 -0.00904251
v 0.04544022 0.01744533 -0.00904251
v 0.04543831 0.01744756 -0.00905834
v 0.04315206 0.01744756 -0.00991234
v 0.04701401 0.00606772 -0.01674213
v 0.04701354 0.01109708 -0.00904251
v 0.04555532 0.01726710 -0.00904251
v 0.04555436 0.01726710 -0.00905834
v 0.04598670 0.01648290 -0.00995908
v 0.04364003 0.01744756 -0.01674213
v 0.04278061 0.01744756 -0.01100378
v 0.04701401 0.01118954 -0.01674213
v 0.04701401 0.01109486 -0.00905834
v 0.04258608 0.01744756 -0.01170101
v 0.04284957 0.01469060 -0.01634038
v 0.04282294 0.01455916 -0.01674213
v 0.04701401 0.01458589 -0.00904251
v 0.04600762 0.01654639 -0.00904251
v 0.04601190 0.01653860 -0.00905834
v 0.04701401 0.01455247 -0.01051158
v 0.04701401 0.01409354 -0.01196784
v 0.04215566 0.01744756 -0.01674213
v 0.04701401 0.01401668 -0.01212763
v 0.04701401 0.01327814 -0.01362535
v 0.04701401 0.01265101 -0.01488864
v 0.04701401 0.01217425 -0.01572305
v 0.04628443 0.01266103 -0.01674213
v 0.04695932 0.01134772 -0.01674213
v 0.04701401 0.01135440 -0.01660193
v 0.04232021 0.01744756 -0.01310450
v 0.04237681 0.01712452 -0.01342711
v 0.04270831 0.01564189 -0.01497608
v 0.04251997 0.01528321 -0.01674213
v 0.04701401 0.01463045 -0.00904251
v 0.04601190 0.01653860 -0.00904251
v 0.04701401 0.01463156 -0.00905834
v 0.04215708 0.01744756 -0.01634038
v 0.04217515 0.01712452 -0.01674213
v 0.04217611 0.01712452 -0.01634038
v 0.04701401 0.01145243 -0.01650470
v 0.04685183 0.01161172 -0.01674213
v 0.04219227 0.01744756 -0.01456076
v 0.04222414 0.01712452 -0.01488337
v 0.04239964 0.01566751 -0.01674213
v 0.04244055 0.01566751 -0.01634038
v 0.04215898 0.01744756 -0.01601777
v 0.04220845 0.01672239 -0.01674213
f 1 2 7
f 1 7 18
f 1 18 35
f 1 35 36
f 1 36 19
f 1 19 8
f 1 8 3
f 1 3 4
f 1 4 11
f 1 11 23
f 1 23 38
f 1 38 47
f 1 47 43
f 1 43 31
f 1 31 15
f 1 15 12
f 1 12 5
f 1 5 2
f 2 5 6
f 2 6 7
f 3 8 4
f 4 8 9
f 4 9 10
f 4 10 11
f 5 12 6
f 6 13 30
f 6 30 41
f 6 41 27
f 6 27 26
f 6 26 25
f 6 25 24
f 6 24 22
f 6 22 21
f 6 21 37
f 6 37 35
f 6 35 18
f 6 18 14
f 6 14 7
f 6 12 15
f 6 15 16
f 6 16 17
f 6 17 34
f 6 34 45
f 6 45 48
f 6 48 39
f 6 39 23
f 6 23 11
f 6 11 28
f 6 28 42
f 6 42 29
f 6 29 13
f 7 14 18
f 8 19 20
f 8 20 9
f 9 20 10
f 10 20 21
f 10 21 22
f 10 22 11
f 11 22 24
f 11 24 25
f 11 25 26
f 11 26 27
f 11 27 28
f 13 29 30
f 15 31 32
f 15 32 33
f 15 33 17
f 15 17 16
f 17 33 32
f 17 32 34
f 19 36 20
f 20 36 37
f 20 37 21
f 23 39 40
f 23 40 38
f 27 41 42
f 27 42 28
f 29 42 41
f 29 41 30
f 31 43 44
f 31 44 45
f 31 45 46
f 31 46 32
f 32 46 34
f 34 46 45
f 35 37 36
f 38 40 47
f 39 48 40
f 40 48 43
f 40 43 47
f 43 48 44
f 44 48 45

