# https://github.com/mikedh/trimesh
v -0.05172343 -0.00035278 0.05165543
v -0.05172343 -0.00114633 0.05165399
v -0.05092891 -0.00035278 0.05156024
v -0.04364727 0.00256164 0.05060251
v -0.04999543 0.00063293 0.05141600
v -0.05172343 0.00021302 0.05161937
v -0.05172343 -0.00329567 0.05160784
v -0.05005956 -0.00180821 0.05140735
v -0.04364727 -0.00180821 0.05051020
v -0.04364727 0.00110621 0.05057222
v -0.04262561 -0.00035278 0.05038759
v -0.04262561 0.00110621 0.05039336
v -0.04262561 0.00256164 0.05038183
v -0.04364727 0.00401707 0.05049722
v -0.04262561 -0.00180821 0.05036596
v -0.05092891 0.00088914 0.05148091
v -0.05172343 0.00105283 0.05150110
v -0.05172343 -0.00472263 0.05157178
v -0.05101531 -0.00472263 0.05147514
v -0.04408105 -0.00515677 0.05049866
v -0.04364727 -0.00515677 0.05043808
v -0.04262561 -0.00515677 0.05029528
v -0.04262561 -0.00326364 0.05033567
v -0.04262561 0.00400640 0.05026788
v -0.04262561 0.00504904 0.05011354
v -0.04367132 0.00557570 0.05011931
v -0.04510360 0.00401707 0.05058087
v -0.04655992 0.00547606 0.05026788
v -0.05092891 0.00547606 0.05038759
v -0.05172343 0.00547606 0.05040923
v -0.05172343 -0.00494681 0.05156601
v -0.05105806 -0.00515677 0.05146937
v -0.04333285 -0.00515677 0.04896398
v -0.04262561 -0.00515321 0.04874907
v -0.04262561 0.00519850 0.05007604
v -0.04510360 0.00547606 0.05021884
v -0.04320191 0.00613083 0.04986257
v -0.04417279 0.00625537 0.04994912
v -0.04510360 0.00634434 0.04997652
v -0.04655992 0.00646888 0.05000537
v -0.04801625 0.00656852 0.05002556
v -0.05172343 0.00676780 0.05007604
v -0.05172343 -0.00515677 0.05155880
v -0.04655992 -0.00515677 0.04922938
v -0.04262561 0.02705486 0.03692167
v -0.05172343 0.02892664 0.03692167
v -0.04262561 0.00907015 0.04864955
v -0.04272716 0.00942956 0.04858608
v -0.04364727 0.00967510 0.04867406
v -0.04508044 0.00995978 0.04870291
v -0.04655992 0.00984591 0.04887744
v -0.04947258 0.01113765 0.04867695
v -0.05172343 0.01214827 0.04851685
v -0.05089773 0.01141877 0.04870291
v -0.05172343 0.01135116 0.04879090
v -0.05172343 -0.00515677 0.04998806
v -0.04801625 -0.00515677 0.04942987
v -0.04262561 0.02988388 0.03692167
v -0.05172343 0.03119697 0.03692167
v -0.05139030 -0.00515677 0.04989719
v -0.04262561 0.01263934 0.04723891
v -0.04266124 0.01275677 0.04722737
v -0.04285453 0.01361437 0.04706871
v -0.04364727 0.01383144 0.04714516
v -0.04510360 0.01712306 0.04612540
v -0.04510360 0.01406986 0.04722881
v -0.04692779 0.01503066 0.04704996
v -0.04947258 0.01535092 0.04716535
v -0.05136179 0.01210200 0.04850098
v -0.05092891 0.01551817 0.04723025
v -0.05172343 0.01556443 0.04726632
v -0.04364727 0.03033936 0.03692167
v -0.04262561 0.02986964 0.03695052
v -0.05172343 0.03074504 0.03739332
v -0.05092891 0.03110801 0.03697359
v -0.05083271 0.03115071 0.03692167
v -0.04262561 0.01275677 0.04719131
v -0.04262561 0.01378518 0.04674274
v -0.04282781 0.01661064 0.04565087
v -0.04316985 0.01757855 0.04543163
v -0.04414073 0.01807318 0.04564366
v -0.04510360 0.01821908 0.04571722
v -0.04655992 0.01827602 0.04578068
v -0.05172343 0.01589538 0.04711198
v -0.04859789 0.03092296 0.03692167
v -0.04364727 0.02997640 0.03727361
v -0.04262561 0.02833237 0.03855010
v -0.04262561 0.02979492 0.03710052
v -0.05172343 0.03000842 0.03813037
v -0.04950642 0.03102616 0.03692167
v -0.04262561 0.01675298 0.04536095
v -0.04280732 0.01956776 0.04423014
v -0.04319300 0.02053923 0.04399792
v -0.04365172 0.01856782 0.04517921
v -0.04416389 0.02085594 0.04416956
v -0.04510360 0.01894858 0.04533787
v -0.04655992 0.02106589 0.04428783
v -0.04801625 0.01829381 0.04581818
v -0.05172343 0.01629393 0.04691582
v -0.04947258 0.03102260 0.03692167
v -0.05172343 0.02891952 0.03917897
v -0.04510360 0.02857079 0.03877799
v -0.04364727 0.02848538 0.03869578
v -0.04364727 0.02765269 0.03942417
v -0.04262561 0.02822917 0.03863808
v -0.05172343 0.02967748 0.03845057
v -0.04262561 0.01871372 0.04443207
v -0.04262561 0.01969942 0.04396474
v -0.04262561 0.02173489 0.04295653
v -0.04278772 0.02241101 0.04277046
v -0.04510360 0.02096625 0.04424023
v -0.04364727 0.02259961 0.04290172
v -0.04313065 0.02509768 0.04114924
v -0.05092891 0.02395184 0.04282095
v -0.05172343 0.02399099 0.04282527
v -0.05172343 0.02819002 0.03987131
v -0.04988676 0.02808327 0.03977034
v -0.04510360 0.02776301 0.03950639
v -0.04510360 0.02703351 0.04005160
v -0.04364727 0.02692320 0.03996795
v -0.04263897 0.02677374 0.03986265
v -0.04262561 0.02678797 0.03984246
v -0.04262561 0.02254267 0.04252814
v -0.04262561 0.02674527 0.03987131
v -0.04410153 0.02517953 0.04122425
v -0.04510360 0.02169219 0.04374262
v -0.04832711 0.02374901 0.04269690
v -0.04947258 0.02384153 0.04276181
v -0.05092891 0.02468133 0.04234496
v -0.05172343 0.02472048 0.04238102
v -0.05172343 0.02762066 0.04031844
v -0.04655992 0.02713671 0.04013526
v -0.05172343 0.02654244 0.04113049
v -0.05172343 0.02588055 0.04160936
v -0.05092891 0.02574889 0.04161657
v -0.04655992 0.02611186 0.04086366
v -0.04510360 0.02599087 0.04078000
v -0.04510360 0.02526493 0.04128194
f 1 2 3
f 1 3 4
f 1 4 5
f 1 5 6
f 1 6 17
f 1 17 30
f 1 30 42
f 1 42 55
f 1 55 53
f 1 53 71
f 1 71 84
f 1 84 99
f 1 99 115
f 1 115 130
f 1 130 134
f 1 134 133
f 1 133 131
f 1 131 116
f 1 116 101
f 1 101 106
f 1 106 89
f 1 89 74
f 1 74 59
f 1 59 46
f 1 46 56
f 1 56 43
f 1 43 31
f 1 31 18
f 1 18 7
f 1 7 2
f 2 7 3
f 3 7 8
f 3 8 9
f 3 9 10
f 3 10 4
f 4 11 12
f 4 12 13
f 4 13 14
f 4 14 5
f 4 10 23
f 4 23 15
f 4 15 11
f 5 16 6
f 5 14 16
f 6 16 17
f 7 18 19
f 7 19 20
f 7 20 21
f 7 21 22
f 7 22 8
f 8 22 9
f 9 22 23
f 9 23 10
f 11 15 23
f 11 23 22
f 11 22 34
f 11 34 45
f 11 45 58
f 11 58 73
f 11 73 88
f 11 88 87
f 11 87 105
f 11 105 122
f 11 122 124
f 11 124 123
f 11 123 109
f 11 109 108
f 11 108 107
f 11 107 91
f 11 91 78
f 11 78 77
f 11 77 61
f 11 61 47
f 11 47 35
f 11 35 25
f 11 25 24
f 11 24 13
f 11 13 12
f 13 24 14
f 14 24 25
f 14 25 26
f 14 26 27
f 14 27 17
f 14 17 16
f 17 27 28
f 17 28 29
f 17 29 30
f 18 31 19
f 19 31 32
f 19 32 20
f 20 32 43
f 20 43 56
f 20 56 60
f 20 60 57
f 20 57 44
f 20 44 33
f 20 33 22
f 20 22 21
f 22 33 34
f 25 35 26
f 26 36 27
f 26 35 37
f 26 37 38
f 26 38 39
f 26 39 36
f 27 36 28
f 28 36 40
f 28 40 41
f 28 41 42
f 28 42 29
f 29 42 30
f 31 43 32
f 33 44 34
f 34 44 46
f 34 46 45
f 35 47 48
f 35 48 37
f 36 39 40
f 37 48 49
f 37 49 38
f 38 49 50
f 38 50 51
f 38 51 52
f 38 52 53
f 38 53 54
f 38 54 55
f 38 55 39
f 39 55 40
f 40 55 41
f 41 55 42
f 44 57 46
f 45 46 59
f 45 59 76
f 45 76 90
f 45 90 100
f 45 100 85
f 45 85 72
f 45 72 58
f 46 57 60
f 46 60 56
f 47 61 62
f 47 62 63
f 47 63 48
f 48 63 64
f 48 64 49
f 49 64 65
f 49 65 66
f 49 66 50
f 50 66 67
f 50 67 68
f 50 68 51
f 51 68 52
f 52 69 53
f 52 68 69
f 53 55 54
f 53 69 68
f 53 68 70
f 53 70 71
f 58 72 73
f 59 74 75
f 59 75 76
f 61 77 62
f 62 77 63
f 63 77 78
f 63 78 79
f 63 79 80
f 63 80 81
f 63 81 64
f 64 81 65
f 65 81 82
f 65 82 70
f 65 70 68
f 65 68 67
f 65 67 66
f 70 82 71
f 71 82 83
f 71 83 84
f 72 85 86
f 72 86 87
f 72 87 88
f 72 88 73
f 74 89 75
f 75 90 76
f 75 89 90
f 78 91 79
f 79 91 92
f 79 92 80
f 80 92 93
f 80 93 94
f 80 94 81
f 81 94 93
f 81 93 95
f 81 95 96
f 81 96 82
f 82 96 83
f 83 96 97
f 83 97 98
f 83 98 84
f 84 98 99
f 85 100 101
f 85 101 102
f 85 102 86
f 86 102 103
f 86 103 87
f 87 103 104
f 87 104 105
f 89 106 90
f 90 106 100
f 91 107 92
f 92 107 108
f 92 108 109
f 92 109 110
f 92 110 93
f 93 110 95
f 95 111 96
f 95 110 112
f 95 112 113
f 95 113 111
f 96 111 97
f 97 111 114
f 97 114 115
f 97 115 98
f 98 115 99
f 100 106 101
f 101 116 117
f 101 117 102
f 102 117 103
f 103 117 118
f 103 118 104
f 104 118 119
f 104 119 120
f 104 120 121
f 104 121 105
f 105 121 122
f 109 123 110
f 110 123 124
f 110 124 121
f 110 121 113
f 110 113 112
f 111 113 125
f 111 125 126
f 111 126 127
f 111 127 128
f 111 128 114
f 113 121 120
f 113 120 125
f 114 128 129
f 114 129 130
f 114 130 115
f 116 131 117
f 117 131 118
f 118 131 132
f 118 132 119
f 119 132 133
f 119 133 134
f 119 134 135
f 119 135 120
f 120 135 136
f 120 136 137
f 120 137 138
f 120 138 125
f 121 124 122
f 125 138 126
f 126 138 127
f 127 138 135
f 127 135 128
f 128 135 129
f 129 135 134
f 129 134 130
f 131 133 132
f 135 138 137
f 135 137 136

