# https://github.com/mikedh/trimesh
v -0.04136366 -0.04216188 -0.01682175
v -0.04545176 -0.02525676 -0.01051263
v -0.04545026 -0.02525676 -0.01057927
v -0.04536432 -0.02525676 -0.01197037
v -0.04472532 -0.02525676 -0.01682175
v -0.03980092 -0.04216188 -0.01682175
v -0.04056623 -0.04216188 -0.00905655
v -0.04505640 -0.02525676 0.00019805
v -0.04298993 -0.02525676 -0.01682175
v -0.03979494 -0.04211058 -0.01682175
v -0.03979494 -0.04216188 -0.01677010
v -0.04008642 -0.04216188 -0.00473996
v -0.03940706 -0.04216188 0.00019805
v -0.04349515 -0.02525676 0.00019805
v -0.04281655 -0.02561088 -0.01682175
v -0.04042647 -0.02983716 0.00019805
v -0.04009389 -0.03036006 0.00019805
v -0.03946386 -0.03919653 -0.01682175
v -0.03834804 -0.04216188 -0.00366372
v -0.03800126 -0.04216188 0.00019805
v -0.03975907 -0.03257083 -0.01682175
v -0.03983306 -0.03104514 0.00019805
v -0.03935698 -0.03822187 -0.01682175
v -0.03830096 -0.04216188 -0.00323223
v -0.03796091 -0.04165221 0.00019805
v -0.03804162 -0.04216188 -0.00032007
v -0.03795792 -0.03967807 -0.00177615
v -0.03945190 -0.03340153 -0.01682175
v -0.03966789 -0.03158956 0.00019805
v -0.03930990 -0.03385163 -0.01682175
v -0.03930542 -0.03774033 -0.01682175
v -0.03819931 -0.04216188 -0.00220598
v -0.03854011 -0.03757486 -0.00987622
v -0.03792055 -0.04113426 0.00019805
v -0.03807525 -0.04216188 -0.00074990
v -0.03784730 -0.03967807 -0.00032007
v -0.03807450 -0.04113426 -0.00177615
v -0.03808273 -0.03967807 -0.00323223
v -0.03817465 -0.03668625 0.00019805
v -0.03918210 -0.03482794 -0.01682175
v -0.03783983 -0.03822187 0.00019805
v -0.03919780 -0.03628414 -0.01682175
v -0.03815971 -0.04216188 -0.00177615
v -0.03914772 -0.03530948 -0.01682175
v -0.03854011 -0.03743420 -0.00987622
v -0.03784806 -0.04019601 0.00019805
v -0.03781741 -0.03967807 0.00019805
v -0.03849677 -0.03731671 -0.00905655
f 1 2 3
f 1 3 4
f 1 4 5
f 1 5 9
f 1 9 15
f 1 15 21
f 1 21 28
f 1 28 30
f 1 30 40
f 1 40 44
f 1 44 42
f 1 42 31
f 1 31 23
f 1 23 18
f 1 18 10
f 1 10 6
f 1 6 11
f 1 11 19
f 1 19 24
f 1 24 32
f 1 32 43
f 1 43 35
f 1 35 26
f 1 26 20
f 1 20 13
f 1 13 12
f 1 12 7
f 1 7 8
f 1 8 2
f 2 8 14
f 2 14 9
f 2 9 5
f 2 5 4
f 2 4 3
f 6 10 11
f 7 12 8
f 8 12 13
f 8 13 20
f 8 20 25
f 8 25 34
f 8 34 46
f 8 46 47
f 8 47 41
f 8 41 39
f 8 39 29
f 8 29 22
f 8 22 17
f 8 17 16
f 8 16 14
f 9 14 16
f 9 16 17
f 9 17 15
f 10 18 11
f 11 18 19
f 15 17 21
f 17 22 21
f 18 23 19
f 19 23 24
f 20 26 27
f 20 27 25
f 21 22 28
f 22 29 30
f 22 30 28
f 23 31 24
f 24 31 33
f 24 33 32
f 25 27 34
f 26 35 27
f 27 36 34
f 27 35 37
f 27 37 38
f 27 38 33
f 27 33 36
f 29 39 30
f 30 39 41
f 30 41 40
f 31 42 33
f 32 38 43
f 32 33 38
f 33 42 44
f 33 44 45
f 33 45 36
f 34 36 46
f 35 43 37
f 36 45 41
f 36 41 47
f 36 47 46
f 37 43 38
f 40 41 48
f 40 48 45
f 40 45 44
f 41 45 48

