# https://github.com/mikedh/trimesh
v -0.03947307 0.05753939 -0.01069249
v -0.03947307 0.05754432 -0.01051214
v -0.03947307 0.05772183 -0.01093892
v -0.02597682 0.07396471 -0.01145265
v -0.02597682 0.07361460 -0.01069274
v -0.02597682 0.07361460 -0.01015640
v -0.02597682 0.07361707 -0.00961758
v -0.03947307 0.05764047 -0.00961609
v -0.03947307 0.05876229 -0.01184912
v -0.03889840 0.05904089 -0.01152345
v -0.02597682 0.07484983 -0.01171026
v -0.03608184 0.07311657 -0.00961187
v -0.02597682 0.08272225 -0.00961758
v -0.03607787 0.07493119 -0.00961187
v -0.03947307 0.06891531 -0.00961187
v -0.03685203 0.07213775 -0.00961187
v -0.03947307 0.05986437 -0.01214921
v -0.02671531 0.07484983 -0.01179944
v -0.02597682 0.07591987 -0.01176913
v -0.02597682 0.08272225 -0.00962205
v -0.02725167 0.08181000 -0.00998971
v -0.02768103 0.08149195 -0.00961758
v -0.03228502 0.07812651 -0.00961535
v -0.03607787 0.07499036 -0.00961187
v -0.03947307 0.06896955 -0.00961187
v -0.03947307 0.06093195 -0.01213927
v -0.03849018 0.06200692 -0.01212139
v -0.02885680 0.07591987 -0.01180987
v -0.02992688 0.07698990 -0.01180714
v -0.02992688 0.07805994 -0.01179049
v -0.02778539 0.07913244 -0.01173858
v -0.02597682 0.08020002 -0.01169138
v -0.02597682 0.08269759 -0.01069224
v -0.02724507 0.08180260 -0.01097519
v -0.02725167 0.08181000 -0.01026198
v -0.03228502 0.07813391 -0.01046121
v -0.03412002 0.07678280 -0.00961535
v -0.03465242 0.07636366 -0.00961535
v -0.03578195 0.07536019 -0.00961535
v -0.03578723 0.07535526 -0.00961535
v -0.03719419 0.07362693 -0.00961187
v -0.03946779 0.07079651 -0.00961187
v -0.03947307 0.07079158 -0.00962230
v -0.03947307 0.06842960 -0.01199991
v -0.03099696 0.07698990 -0.01181559
v -0.02885680 0.07913244 -0.01174479
v -0.02671531 0.08020002 -0.01170255
v -0.03313713 0.07591740 -0.01184092
v -0.02597682 0.08130210 -0.01161983
v -0.02597682 0.08225133 -0.01143402
v -0.02653168 0.08203683 -0.01137340
v -0.02845254 0.08083366 -0.01132198
v -0.03157428 0.07862701 -0.01126608
v -0.03159145 0.07863934 -0.01069274
v -0.02851860 0.08088050 -0.01069274
v -0.03412662 0.07678526 -0.01069274
v -0.03466034 0.07636612 -0.01069274
v -0.03578459 0.07535773 -0.01069274
v -0.03719419 0.07362693 -0.00962230
v -0.03912562 0.07122551 -0.00961187
v -0.03947307 0.07079158 -0.01069274
v -0.03947307 0.06958594 -0.01174354
v -0.03849018 0.07056721 -0.01187620
v -0.03742010 0.07163725 -0.01189707
v -0.03635002 0.07270729 -0.01190328
v -0.03527729 0.07377733 -0.01188663
v -0.02778539 0.08020002 -0.01166753
v -0.03206572 0.07698990 -0.01177832
v -0.03537373 0.07494352 -0.01161188
v -0.03428251 0.07599137 -0.01159673
v -0.03099696 0.07805994 -0.01168964
v -0.02882773 0.08020988 -0.01148345
v -0.02965606 0.07985731 -0.01138930
v -0.03277515 0.07765313 -0.01136396
v -0.03397602 0.07667678 -0.01142731
v -0.03508045 0.07568318 -0.01142756
v -0.03607787 0.07465012 -0.01144370
v -0.03708983 0.07349872 -0.01144172
v -0.03809121 0.07233993 -0.01140545
v -0.03909128 0.07118360 -0.01133738
v -0.03719287 0.07362693 -0.01069274
v -0.03772923 0.07296124 -0.01069274
v -0.03912562 0.07122551 -0.01069274
v -0.03947307 0.07056721 -0.01116100
v -0.03947307 0.07017520 -0.01158431
v -0.03846508 0.07158054 -0.01155375
v -0.03743595 0.07269989 -0.01161089
v -0.03640022 0.07382417 -0.01162704
v -0.03228502 0.07699483 -0.01173236
v -0.03313316 0.07701456 -0.01155177
v -0.03933964 0.07056721 -0.01150457
f 1 2 8
f 1 8 15
f 1 15 25
f 1 25 43
f 1 43 61
f 1 61 84
f 1 84 85
f 1 85 62
f 1 62 44
f 1 44 26
f 1 26 17
f 1 17 9
f 1 9 3
f 1 3 4
f 1 4 5
f 1 5 6
f 1 6 7
f 1 7 2
f 2 7 8
f 3 9 10
f 3 10 4
f 4 10 9
f 4 9 11
f 4 11 19
f 4 19 32
f 4 32 49
f 4 49 50
f 4 50 33
f 4 33 20
f 4 20 13
f 4 13 7
f 4 7 6
f 4 6 5
f 7 12 8
f 7 13 24
f 7 24 14
f 7 14 12
f 8 12 16
f 8 16 15
f 9 17 11
f 11 17 18
f 11 18 19
f 12 14 24
f 12 24 41
f 12 41 60
f 12 60 42
f 12 42 25
f 12 25 15
f 12 15 16
f 13 20 35
f 13 35 21
f 13 21 22
f 13 22 23
f 13 23 24
f 17 26 27
f 17 27 18
f 18 28 29
f 18 29 30
f 18 30 19
f 18 27 28
f 19 30 31
f 19 31 32
f 20 33 34
f 20 34 35
f 21 35 36
f 21 36 23
f 21 23 22
f 23 36 37
f 23 37 24
f 24 37 38
f 24 38 39
f 24 39 40
f 24 40 41
f 25 42 43
f 26 44 27
f 27 44 45
f 27 45 30
f 27 30 29
f 27 29 28
f 30 46 47
f 30 47 31
f 30 45 48
f 30 48 46
f 31 47 32
f 32 47 49
f 33 50 51
f 33 51 34
f 34 52 53
f 34 53 54
f 34 54 55
f 34 55 35
f 34 51 52
f 35 55 54
f 35 54 36
f 36 54 56
f 36 56 37
f 37 56 57
f 37 57 38
f 38 57 39
f 39 58 40
f 39 57 58
f 40 58 59
f 40 59 41
f 41 59 83
f 41 83 60
f 42 60 43
f 43 60 83
f 43 83 61
f 44 62 63
f 44 63 64
f 44 64 65
f 44 65 66
f 44 66 48
f 44 48 45
f 46 67 49
f 46 49 47
f 46 48 68
f 46 68 67
f 48 69 70
f 48 70 68
f 48 66 69
f 49 67 50
f 50 67 71
f 50 71 72
f 50 72 51
f 51 72 73
f 51 73 52
f 52 73 74
f 52 74 53
f 53 74 57
f 53 57 56
f 53 56 54
f 57 74 75
f 57 75 58
f 58 75 76
f 58 76 77
f 58 77 78
f 58 78 79
f 58 79 80
f 58 80 81
f 58 81 59
f 59 81 82
f 59 82 83
f 61 83 80
f 61 80 84
f 62 85 63
f 63 86 87
f 63 87 88
f 63 88 64
f 63 85 86
f 64 88 69
f 64 69 65
f 65 69 66
f 67 68 71
f 68 70 89
f 68 89 71
f 69 77 76
f 69 76 70
f 69 88 77
f 70 75 90
f 70 90 89
f 70 76 75
f 71 89 90
f 71 90 72
f 72 90 73
f 73 90 75
f 73 75 74
f 77 88 87
f 77 87 78
f 78 87 86
f 78 86 79
f 79 86 91
f 79 91 80
f 80 91 84
f 80 83 82
f 80 82 81
f 84 91 85
f 85 91 86

