# https://github.com/mikedh/trimesh
v -0.01910620 0.08601067 -0.00461155
v -0.02127714 0.08519693 -0.00461155
v -0.01910620 0.08477463 -0.00461155
v -0.01910620 0.08608152 -0.00962135
v -0.02128858 0.08520150 -0.00533940
v -0.02189789 0.08502264 -0.01009989
v -0.02350122 0.08432376 -0.00461155
v -0.02597682 0.08124767 -0.00461155
v -0.01910620 0.08024364 -0.01036652
v -0.01910620 0.08602095 -0.01069201
v -0.02189789 0.08502264 -0.01017053
v -0.02146209 0.08518664 -0.00969476
v -0.02133834 0.08522093 -0.00855069
v -0.02132153 0.08521464 -0.00748072
v -0.02350122 0.08436548 -0.00962135
v -0.02350122 0.08435862 -0.00855069
v -0.02350122 0.08435119 -0.00748072
v -0.02394509 0.08412433 -0.00461155
v -0.02597682 0.08270086 -0.00461155
v -0.02597682 0.08024364 -0.01054381
v -0.01910620 0.08024364 -0.01158538
v -0.01910620 0.08561294 -0.01133883
v -0.02112313 0.08512035 -0.01131183
v -0.02183669 0.08497692 -0.01088384
v -0.02143250 0.08516493 -0.01059298
v -0.02350122 0.08431976 -0.01069201
v -0.02416232 0.08403518 -0.01069201
v -0.02417846 0.08404604 -0.00962135
v -0.02416837 0.08403861 -0.00748072
v -0.02415492 0.08402832 -0.00461155
v -0.02597682 0.08272028 -0.00864903
v -0.02542265 0.08311173 -0.00461155
v -0.02543072 0.08311801 -0.00641006
v -0.02544552 0.08312887 -0.00962135
v -0.02597682 0.08024364 -0.01168441
v -0.01921918 0.08024364 -0.01158746
v -0.01910620 0.08116253 -0.01156876
v -0.01910620 0.08555865 -0.01135199
v -0.02028986 0.08523121 -0.01136100
v -0.02350122 0.08341630 -0.01153967
v -0.02350122 0.08411061 -0.01135061
v -0.02410852 0.08399918 -0.01127581
v -0.02469766 0.08365002 -0.01069201
v -0.02471380 0.08366374 -0.00962135
v -0.02469026 0.08364660 -0.00461155
v -0.02597682 0.08272486 -0.00961235
v -0.02597682 0.08272486 -0.00962135
v -0.02543207 0.08311515 -0.01069201
v -0.02597682 0.08130482 -0.01162000
v -0.02564257 0.08127567 -0.01166640
v -0.02564257 0.08024364 -0.01168580
v -0.01910620 0.08223341 -0.01154937
v -0.01925886 0.08024364 -0.01158815
v -0.01921918 0.08448662 -0.01151058
v -0.01910620 0.08437405 -0.01151058
v -0.01910620 0.08448662 -0.01150851
v -0.02028986 0.08448662 -0.01151543
v -0.02243121 0.08341630 -0.01157845
v -0.02457189 0.08234599 -0.01161793
v -0.02565939 0.08237685 -0.01146903
v -0.02450800 0.08339688 -0.01140324
v -0.02531303 0.08302715 -0.01134368
v -0.02597682 0.08270028 -0.01069132
v -0.02597682 0.08225456 -0.01143441
f 1 2 7
f 1 7 18
f 1 18 30
f 1 30 45
f 1 45 32
f 1 32 19
f 1 19 8
f 1 8 3
f 1 3 9
f 1 9 21
f 1 21 37
f 1 37 52
f 1 52 55
f 1 55 56
f 1 56 38
f 1 38 22
f 1 22 10
f 1 10 4
f 1 4 2
f 2 5 6
f 2 6 7
f 2 4 5
f 3 8 9
f 4 10 11
f 4 11 6
f 4 6 12
f 4 12 13
f 4 13 14
f 4 14 5
f 5 14 6
f 6 11 15
f 6 15 16
f 6 16 17
f 6 17 7
f 6 14 13
f 6 13 12
f 7 17 18
f 8 19 31
f 8 31 46
f 8 46 47
f 8 47 63
f 8 63 64
f 8 64 49
f 8 49 35
f 8 35 20
f 8 20 9
f 9 20 35
f 9 35 51
f 9 51 53
f 9 53 36
f 9 36 21
f 10 22 23
f 10 23 24
f 10 24 25
f 10 25 11
f 11 25 24
f 11 24 26
f 11 26 15
f 15 26 27
f 15 27 28
f 15 28 29
f 15 29 30
f 15 30 16
f 16 30 17
f 17 30 18
f 19 32 33
f 19 33 34
f 19 34 31
f 21 36 37
f 22 38 39
f 22 39 23
f 23 39 40
f 23 40 41
f 23 41 42
f 23 42 24
f 24 42 26
f 26 42 27
f 27 42 43
f 27 43 44
f 27 44 28
f 28 44 45
f 28 45 29
f 29 45 30
f 31 34 46
f 32 45 44
f 32 44 33
f 33 44 34
f 34 47 46
f 34 44 48
f 34 48 47
f 35 49 50
f 35 50 51
f 36 52 37
f 36 53 54
f 36 54 55
f 36 55 52
f 38 56 54
f 38 54 57
f 38 57 39
f 39 57 40
f 40 58 59
f 40 59 60
f 40 60 61
f 40 61 41
f 40 57 58
f 41 61 42
f 42 61 62
f 42 62 63
f 42 63 48
f 42 48 43
f 43 48 44
f 47 48 63
f 49 64 60
f 49 60 59
f 49 59 50
f 50 59 58
f 50 58 51
f 51 58 54
f 51 54 53
f 54 56 55
f 54 58 57
f 60 64 62
f 60 62 61
f 62 64 63

