# https://github.com/mikedh/trimesh
v 0.02066231 0.08448734 0.00753243
v 0.02039353 0.08127565 0.00747029
v 0.02066231 0.08127565 0.00747395
v 0.02066231 0.08555673 0.00752695
v 0.02039353 0.08555673 0.00754705
v 0.00647817 0.08876959 0.00739170
v 0.00326541 0.08662730 0.00730398
v 0.01825229 0.08127565 0.00743557
v 0.02066231 0.08020509 0.00745019
v 0.00223357 0.08448734 0.00724915
v 0.01932381 0.08662730 0.00740998
v 0.01825229 0.08662730 0.00752146
v 0.02066231 0.08654531 0.00721078
v 0.01396981 0.08769903 0.00748674
v 0.00754789 0.08876959 0.00740267
v 0.00326541 0.08984016 0.00721991
v 0.00223357 0.08880942 0.00732226
v 0.00433513 0.08876959 0.00735881
v 0.00326541 0.08876959 0.00734236
v 0.00223357 0.08773768 0.00730764
v 0.00223357 0.08559656 0.00726926
v 0.02039353 0.08020509 0.00744470
v 0.02066231 0.07924814 0.00721260
v 0.00223357 0.08370140 0.00711209
v 0.01611105 0.08769903 0.00743739
v 0.01825229 0.08753739 0.00724550
v 0.01504133 0.08769903 0.00748126
v 0.02066231 0.08687210 0.00643771
v 0.01990287 0.08718249 0.00700061
v 0.01932381 0.08731133 0.00712671
v 0.00861941 0.08876959 0.00739170
v 0.00754789 0.08956022 0.00719067
v 0.00326541 0.09042346 0.00702985
v 0.00223357 0.09040589 0.00700792
v 0.00223357 0.08984016 0.00719067
v 0.00223357 0.08876959 0.00732591
v 0.00223357 0.08366978 0.00710478
v 0.00223357 0.08324577 0.00643771
v 0.02066231 0.07884756 0.00643771
v 0.01504133 0.08847794 0.00721991
v 0.00861941 0.08950165 0.00717057
v 0.01611105 0.08840064 0.00716874
v 0.01693363 0.08831747 0.00708102
v 0.01994075 0.08719889 0.00643771
v 0.02066231 0.08728322 -0.00977466
v 0.01932381 0.08747180 0.00643771
v 0.01763355 0.08818512 0.00643771
v 0.00396713 0.09040004 0.00700243
v 0.00326541 0.09049842 0.00643771
v 0.00223357 0.09040823 0.00698598
v 0.00223357 0.08320009 0.00540696
v 0.00223357 0.08319892 0.00536676
v 0.00223357 0.08336290 -0.00962115
v 0.02066231 0.07914741 -0.00747923
v 0.00968913 0.08942669 0.00711391
v 0.01130724 0.08930605 0.00697502
v 0.01076065 0.08934704 0.00702802
v 0.01709779 0.08836432 0.00643771
v 0.01611105 0.08857867 0.00643771
v 0.01932381 0.08749874 0.00536676
v 0.02006161 0.08725277 0.00215389
v 0.02066231 0.08728322 -0.00983497
v 0.01810798 0.08840649 -0.00962115
v 0.01807911 0.08839361 -0.00855019
v 0.02033220 0.08737224 -0.00747923
v 0.01780853 0.08827414 0.00108476
v 0.01774719 0.08824720 0.00322484
v 0.01772735 0.08823783 0.00394308
v 0.00412948 0.09042463 0.00643771
v 0.00223357 0.09046563 0.00643771
v 0.00326541 0.09053591 0.00536676
v 0.00223357 0.08365924 -0.01065738
v 0.02066231 0.07934068 -0.01019683
v 0.02066231 0.07919778 -0.00960104
v 0.02066231 0.07919075 -0.00934884
v 0.02066231 0.07916498 -0.00827057
v 0.01135775 0.08931424 0.00643771
v 0.00424493 0.09044454 0.00536676
v 0.01718257 0.08865364 -0.00747923
v 0.01611105 0.08864544 0.00322484
v 0.01143892 0.08932713 0.00536676
v 0.01076065 0.08943255 0.00536676
v 0.00861941 0.08976519 0.00536676
v 0.01718257 0.08870049 -0.00962115
v 0.02066231 0.08722817 -0.01023521
v 0.01798892 0.08835379 -0.01032111
v 0.01798892 0.08835379 -0.00533732
v 0.00223357 0.09050311 0.00536676
v 0.00326541 0.09061555 0.00108476
v 0.00223357 0.09050428 0.00532655
v 0.00433513 0.09071511 -0.00855019
v 0.00433513 0.09073620 -0.00962115
v 0.00223357 0.08448734 -0.01112341
v 0.02066231 0.07944141 -0.01042528
v 0.00597127 0.09038012 -0.00458436
v 0.00630319 0.09043166 -0.00962115
v 0.00540665 0.09048320 -0.00533732
v 0.00433513 0.09064952 -0.00533732
v 0.01611105 0.08871103 0.00001380
v 0.01076065 0.08973943 -0.00962115
v 0.01349899 0.08931424 -0.01017856
v 0.01349538 0.08931424 -0.00962115
v 0.01611105 0.08873211 -0.00105715
v 0.02066231 0.08710870 -0.01033755
v 0.02039353 0.08728674 -0.01030648
v 0.01932381 0.08750694 -0.01046000
v 0.01718257 0.08847208 -0.01045086
v 0.00326541 0.09065538 -0.00105715
v 0.00326541 0.09081350 -0.00962115
v 0.00223357 0.09069871 -0.00644848
v 0.00620578 0.09041643 -0.01025349
v 0.00540665 0.09047851 -0.01037410
v 0.00433513 0.09056167 -0.01049107
v 0.00223357 0.08984016 -0.01096258
v 0.00326541 0.08984016 -0.01096624
v 0.02066231 0.08555673 -0.01079627
v 0.01932381 0.08127565 -0.01086938
v 0.02066231 0.08100860 -0.01084927
v 0.02066231 0.08020509 -0.01079262
v 0.02066231 0.07997083 -0.01070855
v 0.01290009 0.08936110 -0.01026445
v 0.02066231 0.08663198 -0.01057879
v 0.02039353 0.08662730 -0.01064093
v 0.01718257 0.08769903 -0.01079445
v 0.01076065 0.08952742 -0.01048193
v 0.01182857 0.08944426 -0.01039421
v 0.01182857 0.08876959 -0.01077983
v 0.00433513 0.08984016 -0.01092055
v 0.00326541 0.09059915 -0.01053676
v 0.00223357 0.09056753 -0.01051848
v 0.00223357 0.09075025 -0.00962115
v 0.00223357 0.09073385 -0.00859040
v 0.01076065 0.08876959 -0.01086572
v 0.01932381 0.08662730 -0.01078531
v 0.02066231 0.08636024 -0.01067931
f 1 2 3
f 1 3 9
f 1 9 23
f 1 23 39
f 1 39 54
f 1 54 76
f 1 76 75
f 1 75 74
f 1 74 73
f 1 73 94
f 1 94 120
f 1 120 119
f 1 119 118
f 1 118 116
f 1 116 135
f 1 135 122
f 1 122 104
f 1 104 85
f 1 85 62
f 1 62 45
f 1 45 28
f 1 28 13
f 1 13 4
f 1 4 5
f 1 5 6
f 1 6 7
f 1 7 2
f 2 8 9
f 2 9 3
f 2 7 10
f 2 10 8
f 4 11 12
f 4 12 5
f 4 13 11
f 5 12 14
f 5 14 6
f 6 14 15
f 6 15 16
f 6 16 17
f 6 17 18
f 6 18 7
f 7 18 19
f 7 19 20
f 7 20 21
f 7 21 10
f 8 10 9
f 9 10 22
f 9 22 23
f 10 21 20
f 10 20 36
f 10 36 17
f 10 17 35
f 10 35 34
f 10 34 50
f 10 50 70
f 10 70 88
f 10 88 90
f 10 90 110
f 10 110 132
f 10 132 131
f 10 131 130
f 10 130 114
f 10 114 93
f 10 93 72
f 10 72 53
f 10 53 52
f 10 52 51
f 10 51 38
f 10 38 37
f 10 37 24
f 10 24 22
f 11 25 12
f 11 13 26
f 11 26 25
f 12 25 27
f 12 27 14
f 13 28 29
f 13 29 30
f 13 30 26
f 14 27 15
f 15 27 31
f 15 31 16
f 16 31 32
f 16 32 33
f 16 33 34
f 16 34 35
f 16 35 17
f 17 36 19
f 17 19 18
f 19 36 20
f 22 24 37
f 22 37 23
f 23 37 38
f 23 38 39
f 25 40 41
f 25 41 27
f 25 26 42
f 25 42 40
f 26 30 43
f 26 43 42
f 27 41 31
f 28 44 29
f 28 45 44
f 29 44 46
f 29 46 47
f 29 47 43
f 29 43 30
f 31 41 32
f 32 41 33
f 33 41 48
f 33 48 49
f 33 49 34
f 34 49 50
f 38 51 39
f 39 51 52
f 39 52 53
f 39 53 54
f 40 42 41
f 41 42 55
f 41 55 48
f 42 43 56
f 42 56 57
f 42 57 55
f 43 47 58
f 43 58 59
f 43 59 56
f 44 60 46
f 44 45 61
f 44 61 60
f 45 62 63
f 45 63 64
f 45 64 65
f 45 65 61
f 46 60 66
f 46 66 67
f 46 67 68
f 46 68 47
f 47 68 58
f 48 55 57
f 48 57 56
f 48 56 69
f 48 69 49
f 49 70 50
f 49 69 71
f 49 71 88
f 49 88 70
f 53 72 73
f 53 73 74
f 53 74 75
f 53 75 76
f 53 76 54
f 56 59 77
f 56 77 78
f 56 78 69
f 58 68 79
f 58 79 59
f 59 80 81
f 59 81 82
f 59 82 83
f 59 83 78
f 59 78 77
f 59 79 84
f 59 84 80
f 60 61 66
f 61 65 87
f 61 87 66
f 62 85 63
f 63 84 64
f 63 85 86
f 63 86 84
f 64 84 87
f 64 87 65
f 66 87 84
f 66 84 67
f 67 84 68
f 68 84 79
f 69 78 71
f 71 89 90
f 71 90 88
f 71 78 91
f 71 91 92
f 71 92 89
f 72 93 94
f 72 94 73
f 78 83 95
f 78 95 96
f 78 96 97
f 78 97 98
f 78 98 91
f 80 99 100
f 80 100 83
f 80 83 82
f 80 82 81
f 80 84 99
f 83 100 95
f 84 86 101
f 84 101 102
f 84 102 103
f 84 103 99
f 85 104 105
f 85 105 86
f 86 105 106
f 86 106 107
f 86 107 101
f 89 108 90
f 89 92 108
f 90 108 109
f 90 109 110
f 91 98 96
f 91 96 92
f 92 96 101
f 92 101 111
f 92 111 112
f 92 112 113
f 92 113 109
f 92 109 108
f 93 114 115
f 93 115 116
f 93 116 117
f 93 117 118
f 93 118 119
f 93 119 120
f 93 120 94
f 95 100 96
f 96 100 101
f 96 98 97
f 99 103 102
f 99 102 100
f 100 102 101
f 101 107 121
f 101 121 112
f 101 112 111
f 104 106 105
f 104 122 106
f 106 122 123
f 106 123 124
f 106 124 107
f 107 125 126
f 107 126 121
f 107 124 127
f 107 127 128
f 107 128 125
f 109 113 129
f 109 129 130
f 109 130 131
f 109 131 132
f 109 132 110
f 112 126 113
f 112 121 126
f 113 126 125
f 113 125 128
f 113 128 129
f 114 130 129
f 114 129 115
f 115 129 128
f 115 128 133
f 115 133 124
f 115 124 116
f 116 124 134
f 116 134 135
f 116 118 117
f 122 135 123
f 123 135 124
f 124 135 134
f 124 133 127
f 127 133 128

