# https://github.com/mikedh/trimesh
v -0.01910620 0.08020475 -0.01158661
v -0.01814741 0.08020475 -0.01157180
v -0.01910620 0.07913144 -0.01154773
v -0.01910620 0.08234638 -0.01154773
v -0.01172418 0.08662839 -0.01135704
v -0.00037332 0.08404598 -0.01122930
v -0.01707583 0.08020475 -0.01154773
v -0.00037332 0.08394762 -0.01122930
v -0.01910620 0.07843168 -0.01136630
v -0.01910620 0.08448676 -0.01150886
v -0.01065259 0.08769796 -0.01132002
v -0.00744411 0.08769796 -0.01127188
v -0.00637252 0.08769796 -0.01125522
v -0.00448837 0.08740037 -0.01123115
v -0.00562053 0.08841764 -0.01122930
v -0.00150757 0.08506201 -0.01122745
v 0.00223357 0.08983958 -0.01096270
v 0.00219179 0.08448676 -0.01112377
v 0.00223357 0.08448676 -0.01112192
v -0.01850670 0.07853253 -0.01129595
v -0.01910620 0.07822125 -0.01069055
v 0.00223357 0.08445563 -0.01110526
v 0.00223357 0.08365999 -0.01065723
v -0.01910620 0.08555882 -0.01135149
v -0.01814741 0.08555757 -0.01142740
v -0.01707583 0.08555757 -0.01145702
v -0.01172418 0.08769796 -0.01133483
v -0.00637252 0.08861437 -0.01123671
v -0.00637252 0.08914978 -0.01122189
v -0.00528005 0.08877251 -0.01120893
v 0.00219179 0.08983958 -0.01096270
v 0.00223357 0.09056674 -0.01051838
v -0.00744411 0.08919959 -0.01121264
v 0.00223357 0.08364879 -0.01061835
v 0.00223357 0.08336365 -0.00962047
v -0.01910620 0.07817643 -0.00962047
v -0.01910620 0.08561236 -0.01133853
v -0.01814741 0.08619135 -0.01129965
v -0.01246154 0.08828441 -0.01126077
v -0.01172418 0.08833796 -0.01127558
v -0.01493475 0.08662839 -0.01138852
v 0.00219179 0.09056550 -0.01051838
v 0.00223357 0.09075102 -0.00962047
v -0.00851151 0.08909500 -0.01116265
v -0.00958310 0.08939383 -0.01051282
v -0.00851151 0.08945110 -0.01062761
v 0.00112230 0.09050822 -0.01045728
v 0.00223357 0.08336240 -0.00958159
v -0.01910620 0.07803199 0.00536630
v 0.00223357 0.08319929 0.00536630
v -0.01910620 0.08602076 -0.01069055
v -0.01873856 0.08611290 -0.01124596
v -0.01561363 0.08720862 -0.01126448
v -0.01280829 0.08839025 -0.01070722
v -0.01029331 0.08934402 -0.01034250
v -0.00958310 0.08901655 -0.01104787
v 0.00219179 0.09074853 -0.00962047
v 0.00223357 0.09069873 -0.00644908
v 0.00219179 0.09060783 -0.00105792
v 0.00219179 0.09050199 0.00536630
v -0.00076812 0.09040612 -0.01024993
v 0.00005072 0.09044970 -0.01035731
v -0.01910620 0.07804444 0.00544591
v 0.00223357 0.08320054 0.00540704
v 0.00223357 0.08324536 0.00643639
v -0.01910620 0.08608053 -0.00962047
v -0.01883882 0.08615150 -0.01069055
v -0.01342242 0.08826947 -0.01035916
v -0.01172418 0.08890698 -0.00962047
v -0.01089908 0.08918464 -0.00962047
v -0.01036224 0.08936021 -0.00962047
v -0.00958310 0.08947352 -0.00962047
v -0.01279367 0.08854216 -0.00962047
v 0.00112230 0.09063273 -0.00962047
v -0.00744411 0.08965281 -0.00640835
v -0.00423144 0.08982464 0.00429622
v 0.00223357 0.09052192 0.00425549
v 0.00133954 0.09040985 0.00536630
v 0.00219179 0.09046340 0.00643639
v 0.00223357 0.09050324 0.00536630
v -0.01814741 0.07847277 0.00612536
v -0.01910620 0.07830219 0.00628273
v 0.00223357 0.08326155 0.00646231
v -0.00055296 0.08290295 0.00693071
v -0.01910620 0.08593111 0.00322428
v -0.01890149 0.08617765 -0.00962047
v -0.01346002 0.08828441 -0.00962047
v -0.01172418 0.08874636 0.00536630
v -0.01032882 0.08935149 -0.00855038
v -0.01029331 0.08934278 -0.00748029
v -0.01025571 0.08933406 -0.00640835
v -0.01021602 0.08932534 -0.00533827
v -0.01014082 0.08930916 -0.00344247
v -0.00958310 0.08943865 -0.00748029
v -0.01279367 0.08851725 -0.00748029
v -0.00744411 0.08951211 0.00215419
v -0.00637252 0.08961048 0.00322428
v -0.00842378 0.08935274 0.00536630
v 0.00151709 0.09038993 0.00643639
v 0.00165287 0.09037499 0.00697329
v 0.00219179 0.09040487 0.00700846
v 0.00223357 0.09040861 0.00698625
v 0.00223357 0.09046464 0.00643639
v -0.01910620 0.07837191 0.00633086
v 0.00223357 0.08366995 0.00710473
v -0.01910620 0.08590745 0.00522005
v -0.01873438 0.08611290 0.00108411
v -0.01269132 0.08840146 0.00536630
v -0.01250332 0.08832675 0.00643639
v -0.01172418 0.08857079 0.00643639
v -0.01065259 0.08897920 0.00536630
v -0.00936377 0.08933904 0.00001402
v -0.00952670 0.08935647 -0.00212801
v -0.00906924 0.08930667 0.00390188
v -0.00911937 0.08931289 0.00322428
v -0.00895644 0.08927554 0.00536630
v -0.00824832 0.08933406 0.00611796
v -0.00742948 0.08937266 0.00646046
v -0.00706393 0.08932036 0.00698810
v 0.00219179 0.08983958 0.00718990
v 0.00223357 0.09040612 0.00700846
v -0.00637252 0.08935523 0.00702142
v -0.00530094 0.08940628 0.00706400
v -0.00423144 0.08945235 0.00709363
v -0.01910620 0.07913393 0.00669744
v 0.00223357 0.08370108 0.00711214
v -0.01910620 0.08590497 0.00536630
v -0.01868843 0.08609547 0.00395742
v -0.01813070 0.08629345 0.00536630
v -0.01560318 0.08721484 0.00609945
v -0.01230279 0.08824955 0.00698440
v -0.01065259 0.08879990 0.00643639
v -0.01172418 0.08831181 0.00701587
v -0.00209036 0.08876877 0.00726025
v 0.00223357 0.08876877 0.00732690
v 0.00223357 0.08983958 0.00718990
v -0.00423144 0.08876877 0.00721582
v -0.00315986 0.08876877 0.00724174
v -0.00530094 0.08876877 0.00717694
v -0.01065259 0.08839772 0.00704549
v -0.01910620 0.07924724 0.00671225
v 0.00223357 0.08448676 0.00724914
v -0.01910620 0.08557251 0.00619201
v -0.01795315 0.08622497 0.00621978
v -0.01452742 0.08719741 0.00699365
v -0.01172418 0.08769796 0.00707141
v -0.00744411 0.08769796 0.00715842
v -0.00637252 0.08769796 0.00717509
v -0.01065259 0.08769796 0.00710844
v 0.00005072 0.08448676 0.00721582
v -0.01493475 0.08555757 0.00700476
v -0.01275189 0.08236630 0.00698069
v -0.01647841 0.08507571 0.00696959
v -0.01910620 0.08448676 0.00684369
v -0.01101396 0.08179478 0.00697884
v -0.01172418 0.08179229 0.00697884
v -0.01236754 0.08180225 0.00697329
v -0.01307984 0.08202264 0.00696588
v -0.01172418 0.08234638 0.00699550
v -0.01910620 0.08546668 0.00641603
v -0.01663717 0.08610543 0.00697699
v -0.01386525 0.08662839 0.00703809
v -0.01607526 0.08548286 0.00698440
v -0.01576403 0.08477189 0.00697699
v -0.01349970 0.08273735 0.00697514
v -0.01663717 0.08578917 0.00697699
v -0.01910620 0.08462248 0.00680481
f 1 2 3
f 1 3 9
f 1 9 21
f 1 21 36
f 1 36 49
f 1 49 63
f 1 63 82
f 1 82 104
f 1 104 125
f 1 125 141
f 1 141 154
f 1 154 167
f 1 167 160
f 1 160 143
f 1 143 127
f 1 127 106
f 1 106 85
f 1 85 66
f 1 66 51
f 1 51 37
f 1 37 24
f 1 24 10
f 1 10 4
f 1 4 5
f 1 5 6
f 1 6 2
f 2 7 3
f 2 6 8
f 2 8 7
f 3 7 8
f 3 8 9
f 4 10 5
f 5 10 11
f 5 11 12
f 5 12 6
f 6 12 13
f 6 13 14
f 6 14 15
f 6 15 16
f 6 16 17
f 6 17 18
f 6 18 8
f 8 18 19
f 8 19 9
f 9 20 21
f 9 19 22
f 9 22 23
f 9 23 20
f 10 24 25
f 10 25 26
f 10 26 11
f 11 26 27
f 11 27 28
f 11 28 12
f 12 28 15
f 12 15 13
f 13 15 14
f 15 28 29
f 15 29 30
f 15 30 16
f 16 30 17
f 17 31 32
f 17 32 43
f 17 43 58
f 17 58 77
f 17 77 80
f 17 80 103
f 17 103 102
f 17 102 121
f 17 121 136
f 17 136 135
f 17 135 142
f 17 142 126
f 17 126 105
f 17 105 83
f 17 83 65
f 17 65 64
f 17 64 50
f 17 50 48
f 17 48 35
f 17 35 34
f 17 34 23
f 17 23 22
f 17 22 19
f 17 19 18
f 17 30 29
f 17 29 33
f 17 33 31
f 20 23 34
f 20 34 35
f 20 35 21
f 21 35 36
f 24 37 38
f 24 38 25
f 25 38 39
f 25 39 40
f 25 40 26
f 26 40 41
f 26 41 27
f 27 41 40
f 27 40 29
f 27 29 28
f 29 40 33
f 31 33 32
f 32 33 42
f 32 42 43
f 33 44 45
f 33 45 46
f 33 46 47
f 33 47 42
f 33 40 39
f 33 39 44
f 35 48 36
f 36 48 50
f 36 50 49
f 37 51 52
f 37 52 38
f 38 52 53
f 38 53 39
f 39 54 55
f 39 55 45
f 39 45 56
f 39 56 44
f 39 53 54
f 42 47 57
f 42 57 43
f 43 57 59
f 43 59 60
f 43 60 58
f 44 56 45
f 45 55 61
f 45 61 62
f 45 62 46
f 46 62 47
f 47 62 57
f 49 50 64
f 49 64 65
f 49 65 63
f 51 66 67
f 51 67 52
f 52 67 68
f 52 68 54
f 52 54 53
f 54 68 55
f 55 69 70
f 55 70 71
f 55 71 72
f 55 72 61
f 55 68 73
f 55 73 69
f 57 62 61
f 57 61 74
f 57 74 75
f 57 75 76
f 57 76 59
f 58 60 77
f 59 78 60
f 59 76 78
f 60 78 79
f 60 79 103
f 60 103 80
f 60 80 77
f 61 72 74
f 63 81 82
f 63 65 81
f 65 83 84
f 65 84 82
f 65 82 81
f 66 85 86
f 66 86 67
f 67 86 68
f 68 87 73
f 68 86 87
f 69 88 70
f 69 73 88
f 70 88 71
f 71 89 72
f 71 88 89
f 72 89 90
f 72 90 91
f 72 91 92
f 72 92 93
f 72 93 94
f 72 94 75
f 72 75 74
f 73 87 95
f 73 95 88
f 75 96 76
f 75 94 96
f 76 96 97
f 76 97 98
f 76 98 78
f 78 98 79
f 79 98 99
f 79 99 100
f 79 100 101
f 79 101 102
f 79 102 103
f 82 84 105
f 82 105 104
f 83 105 84
f 85 106 86
f 86 106 107
f 86 107 95
f 86 95 87
f 88 95 108
f 88 108 109
f 88 109 110
f 88 110 111
f 88 111 93
f 88 93 92
f 88 92 91
f 88 91 90
f 88 90 89
f 93 112 113
f 93 113 94
f 93 111 114
f 93 114 115
f 93 115 112
f 94 113 112
f 94 112 115
f 94 115 96
f 95 107 108
f 96 115 97
f 97 115 98
f 98 115 114
f 98 114 116
f 98 116 117
f 98 117 99
f 99 117 100
f 100 117 118
f 100 118 119
f 100 119 101
f 101 120 121
f 101 121 102
f 101 119 122
f 101 122 123
f 101 123 124
f 101 124 120
f 104 105 125
f 105 126 125
f 106 127 128
f 106 128 107
f 107 128 108
f 108 128 129
f 108 129 130
f 108 130 109
f 109 131 110
f 109 130 131
f 110 132 111
f 110 131 132
f 111 132 117
f 111 117 116
f 111 116 114
f 117 119 118
f 117 132 119
f 119 132 131
f 119 131 133
f 119 133 122
f 120 134 135
f 120 135 136
f 120 136 121
f 120 124 137
f 120 137 138
f 120 138 134
f 122 133 123
f 123 139 137
f 123 137 124
f 123 133 140
f 123 140 139
f 125 126 142
f 125 142 141
f 127 143 144
f 127 144 130
f 127 130 129
f 127 129 128
f 130 144 131
f 131 144 145
f 131 145 133
f 133 145 146
f 133 146 140
f 134 147 148
f 134 148 135
f 134 138 149
f 134 149 147
f 135 150 142
f 135 148 151
f 135 151 152
f 135 152 150
f 137 139 140
f 137 140 149
f 137 149 138
f 140 146 149
f 141 153 154
f 141 142 155
f 141 155 156
f 141 156 157
f 141 157 158
f 141 158 153
f 142 150 152
f 142 152 159
f 142 159 157
f 142 157 156
f 142 156 155
f 143 160 144
f 144 160 145
f 145 160 161
f 145 161 146
f 146 161 149
f 147 149 151
f 147 151 148
f 149 161 162
f 149 162 163
f 149 163 151
f 151 163 164
f 151 164 152
f 152 164 165
f 152 165 158
f 152 158 157
f 152 157 159
f 153 164 163
f 153 163 166
f 153 166 154
f 153 158 165
f 153 165 164
f 154 166 161
f 154 161 167
f 160 167 161
f 161 166 162
f 162 166 163

