# https://github.com/mikedh/trimesh
v -0.01910620 0.08024364 -0.01036669
v -0.01910620 0.07940803 -0.00905442
v -0.01910620 0.08024364 -0.01158569
v -0.02597682 0.08024364 -0.01054368
v -0.01976192 0.07920432 -0.00905442
v -0.01910620 0.07817344 -0.00905442
v -0.01910620 0.08020407 -0.01158648
v -0.01921918 0.08024364 -0.01158755
v -0.02597682 0.08024364 -0.01168481
v -0.02597682 0.07505029 -0.00905442
v -0.02500635 0.07580545 -0.00905442
v -0.02355435 0.07688888 -0.00905442
v -0.02253479 0.07762199 -0.00905442
v -0.02098795 0.07872813 -0.00905442
v -0.02063823 0.07888124 -0.00905442
v -0.02028986 0.07903045 -0.00905442
v -0.01910620 0.07817408 -0.00948786
v -0.02597682 0.07361652 -0.00905442
v -0.02597682 0.07361652 -0.01069224
v -0.01910620 0.07913036 -0.01154822
v -0.01921918 0.07913361 -0.01156443
v -0.02028986 0.07913361 -0.01162396
v -0.02032954 0.08024364 -0.01160456
v -0.02457189 0.07699204 -0.01172840
v -0.02597682 0.08020407 -0.01169146
v -0.02564257 0.08024364 -0.01168561
v -0.01910620 0.07817603 -0.00962179
v -0.02597682 0.07396620 -0.01145281
v -0.02564257 0.07408623 -0.01139700
v -0.02506957 0.07428799 -0.01126200
v -0.01910620 0.07822015 -0.01069224
v -0.01910620 0.07843100 -0.01136644
v -0.02564257 0.07485177 -0.01166993
v -0.02597682 0.07485177 -0.01171032
v -0.02457189 0.07592223 -0.01170581
v -0.02350122 0.07699204 -0.01170926
v -0.02564257 0.07592223 -0.01176401
v -0.02457189 0.07806315 -0.01170900
v -0.02457189 0.08024364 -0.01166940
v -0.02597682 0.07625569 -0.01176321
v -0.02564257 0.08020407 -0.01168641
v -0.02597682 0.07732615 -0.01174381
v -0.02597682 0.07592223 -0.01176905
f 1 2 6
f 1 6 17
f 1 17 27
f 1 27 31
f 1 31 32
f 1 32 20
f 1 20 7
f 1 7 3
f 1 3 8
f 1 8 23
f 1 23 39
f 1 39 26
f 1 26 9
f 1 9 4
f 1 4 2
f 2 5 16
f 2 16 15
f 2 15 14
f 2 14 13
f 2 13 12
f 2 12 11
f 2 11 10
f 2 10 18
f 2 18 6
f 2 4 5
f 3 7 8
f 4 9 25
f 4 25 42
f 4 42 40
f 4 40 43
f 4 43 34
f 4 34 28
f 4 28 19
f 4 19 18
f 4 18 10
f 4 10 11
f 4 11 12
f 4 12 13
f 4 13 14
f 4 14 15
f 4 15 16
f 4 16 5
f 6 18 19
f 6 19 17
f 7 20 21
f 7 21 22
f 7 22 8
f 8 22 24
f 8 24 23
f 9 26 25
f 17 19 27
f 19 28 29
f 19 29 30
f 19 30 31
f 19 31 27
f 20 32 33
f 20 33 21
f 21 33 34
f 21 34 35
f 21 35 36
f 21 36 22
f 22 36 37
f 22 37 24
f 23 24 38
f 23 38 39
f 24 37 40
f 24 40 38
f 25 26 41
f 25 41 42
f 26 39 41
f 28 34 33
f 28 33 32
f 28 32 29
f 29 32 30
f 30 32 31
f 34 43 37
f 34 37 35
f 35 37 36
f 37 43 40
f 38 40 42
f 38 42 39
f 39 42 41

