# https://github.com/mikedh/trimesh
v -0.04251542 0.05422060 -0.01239696
v -0.04175155 0.05422060 -0.01235834
v -0.04251542 0.05422060 -0.01016270
v -0.04251542 0.05443621 -0.01239968
v -0.04170272 0.05557970 -0.01237792
v -0.04111902 0.05483893 -0.01232516
v -0.04138705 0.05422060 -0.01224030
v -0.04008922 0.05715979 -0.01230313
v -0.04247879 0.05422060 -0.01009362
v -0.04251542 0.06208720 -0.01105178
v -0.04251542 0.05450551 -0.01240049
v -0.04008922 0.05838106 -0.01230041
v -0.04008535 0.05772114 -0.01230367
v -0.04251542 0.05557970 -0.01239016
v -0.04251542 0.05746318 -0.01235643
v -0.04251542 0.06054252 -0.01230095
v -0.04108269 0.05939826 -0.01229959
v -0.04068870 0.05875914 -0.01230503
v -0.04120717 0.05422060 -0.01209806
v -0.03971757 0.05772114 -0.01176299
v -0.03998231 0.05674167 -0.01169146
v -0.03956181 0.05986182 -0.01220358
v -0.03947337 0.05986182 -0.01214946
v -0.03947337 0.05875991 -0.01184948
v -0.04218783 0.05422060 -0.00962229
v -0.03947337 0.06031460 -0.00962229
v -0.03947367 0.06208720 -0.01077981
v -0.04251542 0.06208720 -0.01215789
v -0.04126733 0.05632970 -0.00962229
v -0.04026284 0.05862593 -0.00962229
v -0.04036946 0.05909487 -0.01229252
v -0.03956181 0.06093216 -0.01216959
v -0.04251542 0.06082974 -0.01227756
v -0.04221642 0.06041547 -0.01229850
v -0.04103296 0.05422060 -0.01167378
v -0.04008386 0.05608560 -0.01128704
v -0.03947337 0.05772114 -0.01093918
v -0.03947337 0.06092985 -0.01213940
v -0.04089686 0.05422060 -0.01026061
v -0.04090163 0.05422137 -0.00962229
v -0.03947337 0.06208181 -0.01077872
v -0.03947337 0.05763798 -0.00962229
v -0.03947337 0.06208720 -0.01078552
v -0.03947337 0.06208720 -0.01207141
v -0.03947337 0.06200327 -0.01207821
v -0.04089359 0.05422060 -0.01069250
v -0.03947337 0.05753711 -0.01069250
v -0.03982626 0.05665080 -0.01069250
v -0.04007910 0.05607482 -0.01069250
v -0.04077506 0.05450936 -0.00962229
v -0.03983430 0.05665080 -0.00962229
v -0.04008327 0.05608406 -0.00962229
v -0.03947337 0.05754096 -0.01051191
f 1 2 7
f 1 7 19
f 1 19 35
f 1 35 46
f 1 46 39
f 1 39 25
f 1 25 9
f 1 9 3
f 1 3 10
f 1 10 28
f 1 28 33
f 1 33 16
f 1 16 15
f 1 15 14
f 1 14 11
f 1 11 4
f 1 4 5
f 1 5 2
f 2 6 7
f 2 5 8
f 2 8 6
f 3 9 10
f 4 11 5
f 5 12 13
f 5 13 8
f 5 11 14
f 5 14 15
f 5 15 16
f 5 16 17
f 5 17 18
f 5 18 12
f 6 19 7
f 6 8 19
f 8 20 21
f 8 21 19
f 8 13 22
f 8 22 23
f 8 23 24
f 8 24 20
f 9 25 10
f 10 26 27
f 10 27 43
f 10 43 44
f 10 44 28
f 10 25 29
f 10 29 30
f 10 30 26
f 12 18 31
f 12 31 32
f 12 32 22
f 12 22 13
f 16 33 32
f 16 32 34
f 16 34 17
f 17 34 31
f 17 31 18
f 19 21 36
f 19 36 35
f 20 37 21
f 20 24 37
f 21 37 36
f 22 32 38
f 22 38 23
f 23 38 45
f 23 45 44
f 23 44 43
f 23 43 41
f 23 41 26
f 23 26 42
f 23 42 53
f 23 53 47
f 23 47 37
f 23 37 24
f 25 39 40
f 25 40 50
f 25 50 52
f 25 52 51
f 25 51 42
f 25 42 26
f 25 26 30
f 25 30 29
f 26 41 27
f 27 41 43
f 28 44 33
f 31 34 32
f 32 44 45
f 32 45 38
f 32 33 44
f 35 36 46
f 36 37 47
f 36 47 48
f 36 48 49
f 36 49 46
f 39 50 40
f 39 46 49
f 39 49 51
f 39 51 52
f 39 52 50
f 42 51 53
f 47 53 51
f 47 51 48
f 48 51 49

