# https://github.com/mikedh/trimesh
v 0.02791852 0.07502082 0.00643785
v 0.02809650 0.07513289 0.00714460
v 0.02791852 0.07555147 0.00722933
v 0.02791852 0.07503567 0.00543196
v 0.02795217 0.07500895 0.00536687
v 0.02913788 0.07402930 0.00643785
v 0.03156885 0.07212047 0.00703197
v 0.03041097 0.07312090 0.00709035
v 0.02925309 0.07412207 0.00713013
v 0.02892171 0.07480560 0.00727634
v 0.03004464 0.07377103 0.00724328
v 0.02791852 0.07584091 0.00730837
v 0.02791852 0.07506387 0.00439767
v 0.02797094 0.07502231 0.00429692
v 0.02915406 0.07404117 0.00536687
v 0.03033978 0.07306450 0.00643785
v 0.03154232 0.07209969 0.00643785
v 0.03452989 0.06970549 0.00643785
v 0.03452989 0.06977971 0.00670701
v 0.03452989 0.06998603 0.00716475
v 0.03003105 0.07485087 0.00749229
v 0.03217142 0.07271049 0.00741376
v 0.03110156 0.07377994 0.00745975
v 0.03427230 0.07052187 0.00727944
v 0.02896055 0.07592180 0.00750521
v 0.02791852 0.07699199 0.00750831
v 0.02799101 0.07503864 0.00322646
v 0.02791852 0.07512992 0.00229497
v 0.02982135 0.07350608 0.00536687
v 0.03452989 0.06973147 0.00536687
v 0.03452989 0.07053300 0.00733007
v 0.03431308 0.07163955 0.00750986
v 0.02818453 0.07728737 0.00751813
v 0.02791852 0.07728737 0.00751399
v 0.02799942 0.07506090 0.00229497
v 0.02800913 0.07505274 0.00229497
v 0.02809586 0.07498297 0.00229497
v 0.02919420 0.07407383 0.00322646
v 0.02791852 0.07662834 0.00229497
v 0.03452989 0.06976412 0.00429692
v 0.02929904 0.07401817 0.00229497
v 0.03452989 0.07163955 0.00751296
v 0.03452989 0.07185701 0.00751709
v 0.03452989 0.07271049 0.00753259
v 0.03003105 0.07592180 0.00752174
v 0.02896055 0.07728737 0.00753001
v 0.02791852 0.07728737 0.00621828
v 0.03452989 0.07728737 0.00579257
v 0.03075918 0.07435808 0.00229497
v 0.03452989 0.06982572 0.00229497
v 0.03452989 0.07377994 0.00754964
v 0.03431308 0.07377994 0.00754757
v 0.03217142 0.07485087 0.00753517
v 0.03003105 0.07728737 0.00754499
v 0.03003105 0.07699199 0.00754086
v 0.03452989 0.07131449 0.00229497
v 0.03309500 0.07248561 0.00229497
v 0.03242707 0.07302145 0.00229497
v 0.03196172 0.07339476 0.00229497
v 0.03452989 0.07728737 0.00750624
v 0.03452989 0.07485087 0.00756101
v 0.03431308 0.07485087 0.00755997
v 0.03217142 0.07592180 0.00755222
v 0.03110156 0.07728737 0.00755687
v 0.03110156 0.07699199 0.00755429
v 0.03451177 0.07728737 0.00751089
v 0.03452989 0.07699199 0.00757082
v 0.03452989 0.07506832 0.00756307
v 0.03217142 0.07728737 0.00756462
v 0.03139604 0.07728737 0.00755946
v 0.03431308 0.07728737 0.00755687
v 0.03431308 0.07699199 0.00757289
v 0.03452989 0.07592180 0.00756669
v 0.03324257 0.07728737 0.00756772
v 0.03246655 0.07728737 0.00756566
f 1 2 3
f 1 3 12
f 1 12 26
f 1 26 34
f 1 34 47
f 1 47 39
f 1 39 28
f 1 28 13
f 1 13 4
f 1 4 5
f 1 5 6
f 1 6 7
f 1 7 8
f 1 8 9
f 1 9 2
f 2 10 3
f 2 9 11
f 2 11 10
f 3 10 12
f 4 13 5
f 5 13 14
f 5 14 15
f 5 15 6
f 6 15 16
f 6 16 7
f 7 16 17
f 7 17 18
f 7 18 19
f 7 19 20
f 7 20 8
f 8 20 9
f 9 20 11
f 10 21 12
f 10 11 22
f 10 22 23
f 10 23 21
f 11 20 24
f 11 24 22
f 12 21 25
f 12 25 26
f 13 27 14
f 13 28 27
f 14 27 29
f 14 29 15
f 15 29 17
f 15 17 16
f 17 30 18
f 17 29 30
f 18 30 40
f 18 40 50
f 18 50 56
f 18 56 48
f 18 48 60
f 18 60 67
f 18 67 73
f 18 73 68
f 18 68 61
f 18 61 51
f 18 51 44
f 18 44 43
f 18 43 42
f 18 42 31
f 18 31 20
f 18 20 19
f 20 31 24
f 21 23 32
f 21 32 25
f 22 24 31
f 22 31 32
f 22 32 23
f 25 33 34
f 25 34 26
f 25 32 33
f 27 28 35
f 27 35 36
f 27 36 37
f 27 37 41
f 27 41 38
f 27 38 29
f 28 39 49
f 28 49 59
f 28 59 58
f 28 58 57
f 28 57 56
f 28 56 50
f 28 50 41
f 28 41 37
f 28 37 36
f 28 36 35
f 29 38 30
f 30 38 41
f 30 41 40
f 31 42 32
f 32 42 43
f 32 43 44
f 32 44 45
f 32 45 33
f 33 46 54
f 33 54 64
f 33 64 70
f 33 70 69
f 33 69 75
f 33 75 74
f 33 74 71
f 33 71 66
f 33 66 60
f 33 60 48
f 33 48 47
f 33 47 34
f 33 45 46
f 39 47 48
f 39 48 49
f 40 41 50
f 44 51 52
f 44 52 53
f 44 53 45
f 45 53 46
f 46 53 55
f 46 55 54
f 48 56 57
f 48 57 58
f 48 58 59
f 48 59 49
f 51 61 62
f 51 62 63
f 51 63 52
f 52 63 55
f 52 55 53
f 54 55 65
f 54 65 64
f 55 63 65
f 60 66 67
f 61 68 62
f 62 68 69
f 62 69 70
f 62 70 65
f 62 65 63
f 64 65 70
f 66 71 67
f 67 72 73
f 67 71 74
f 67 74 72
f 68 73 72
f 68 72 69
f 69 72 75
f 72 74 75

