# https://github.com/mikedh/trimesh
v 0.04853231 0.04092585 0.00429593
v 0.04824435 0.04166139 0.00322583
v 0.04825820 0.04166139 0.00215456
v 0.04827204 0.04166139 0.00108446
v 0.04828674 0.04166139 0.00001319
v 0.04854446 0.04093574 0.00322583
v 0.04901045 0.04092585 0.00429593
v 0.04901045 0.04092585 0.00429826
v 0.04853202 0.04092675 0.00429826
v 0.04823107 0.04166139 0.00429826
v 0.04823107 0.04166139 0.00429593
v 0.04648212 0.05011111 0.00429593
v 0.04830624 0.04166139 -0.00105691
v 0.04865128 0.04102745 -0.00533848
v 0.04862330 0.04100318 -0.00319711
v 0.04860946 0.04099149 -0.00212701
v 0.04859589 0.04097980 -0.00105691
v 0.04856961 0.04095732 0.00108446
v 0.04855689 0.04094653 0.00215456
v 0.04900678 0.04093574 0.00322583
v 0.04927411 0.04166139 -0.00212701
v 0.04928117 0.04166139 -0.00105691
v 0.04928371 0.04166139 0.00001319
v 0.04926874 0.04166049 0.00429826
v 0.04928117 0.04166139 0.00108446
v 0.04927721 0.04166139 0.00215456
v 0.04648212 0.05011111 0.00429826
v 0.04650021 0.05011111 0.00353507
v 0.04844923 0.04166139 -0.00762338
v 0.04839864 0.04166139 -0.00533848
v 0.04837519 0.04166139 -0.00426838
v 0.04832885 0.04166139 -0.00212701
v 0.04868208 0.04105353 -0.00762338
v 0.04894489 0.04102745 -0.00533848
v 0.04896721 0.04100318 -0.00319711
v 0.04898417 0.04097980 -0.00105691
v 0.04899717 0.04095732 0.00108446
v 0.04900225 0.04094653 0.00215456
v 0.04925715 0.04166139 -0.00426838
v 0.04926619 0.04166139 -0.00319711
v 0.04936877 0.04273232 -0.00762338
v 0.04926902 0.04166139 0.00429593
v 0.04922720 0.04273053 0.00429826
v 0.04772015 0.05011111 0.00429826
v 0.04679608 0.05011111 -0.00762338
v 0.04847946 0.04158226 -0.00762338
v 0.04891380 0.04105353 -0.00762338
v 0.04895676 0.04101576 -0.00426838
v 0.04893161 0.04104004 -0.00640974
v 0.04921872 0.04166139 -0.00762338
v 0.04897626 0.04099149 -0.00212701
v 0.04922098 0.04166139 -0.00747984
v 0.04899095 0.04096901 0.00001319
v 0.04923482 0.04166139 -0.00640974
v 0.04924669 0.04166139 -0.00533848
v 0.04924132 0.04180436 -0.00762338
v 0.04936199 0.04287530 -0.00762338
v 0.04936792 0.04273232 -0.00747984
v 0.04936058 0.04273232 -0.00640974
v 0.04930773 0.04273232 -0.00105691
v 0.04929417 0.04273232 0.00001319
v 0.04911162 0.04380147 0.00429826
v 0.04928880 0.04380327 -0.00640974
v 0.04917887 0.04501628 -0.00762338
v 0.04780379 0.04995555 0.00429826
v 0.04786031 0.05011111 -0.00105691
v 0.04800132 0.05011111 -0.00762338
v 0.04895450 0.04113356 -0.00762338
v 0.04930632 0.04380327 -0.00762338
v 0.04899406 0.04487241 0.00429826
v 0.04906160 0.04608632 -0.00762338
v 0.04929304 0.04394624 -0.00762338
v 0.04919413 0.04487331 -0.00762338
v 0.04811493 0.04915347 0.00429826
v 0.04883383 0.04778759 -0.00762338
v 0.04887311 0.04594155 0.00429826
v 0.04895958 0.04701429 -0.00762338
v 0.04841390 0.04808253 0.00429826
v 0.04876940 0.04755740 -0.00037540
v 0.04878975 0.04666720 0.00429826
f 1 2 3
f 1 3 4
f 1 4 5
f 1 5 6
f 1 6 20
f 1 20 7
f 1 7 8
f 1 8 9
f 1 9 10
f 1 10 11
f 1 11 2
f 2 11 12
f 2 12 3
f 3 12 4
f 4 12 5
f 5 13 14
f 5 14 15
f 5 15 16
f 5 16 17
f 5 17 18
f 5 18 19
f 5 19 6
f 5 12 13
f 6 19 38
f 6 38 20
f 7 20 21
f 7 21 22
f 7 22 23
f 7 23 8
f 8 24 43
f 8 43 62
f 8 62 70
f 8 70 76
f 8 76 80
f 8 80 78
f 8 78 74
f 8 74 65
f 8 65 44
f 8 44 27
f 8 27 10
f 8 10 9
f 8 23 25
f 8 25 26
f 8 26 24
f 10 27 12
f 10 12 11
f 12 28 29
f 12 29 30
f 12 30 31
f 12 31 32
f 12 32 13
f 12 27 44
f 12 44 66
f 12 66 67
f 12 67 45
f 12 45 28
f 13 32 33
f 13 33 14
f 14 33 47
f 14 47 34
f 14 34 35
f 14 35 15
f 15 35 51
f 15 51 36
f 15 36 17
f 15 17 16
f 17 36 37
f 17 37 18
f 18 37 38
f 18 38 19
f 20 38 39
f 20 39 40
f 20 40 21
f 21 40 41
f 21 41 22
f 22 41 23
f 23 41 25
f 24 42 43
f 24 26 42
f 25 41 26
f 26 41 42
f 28 45 29
f 29 45 67
f 29 67 75
f 29 75 77
f 29 77 71
f 29 71 64
f 29 64 73
f 29 73 72
f 29 72 69
f 29 69 57
f 29 57 41
f 29 41 56
f 29 56 50
f 29 50 68
f 29 68 47
f 29 47 33
f 29 33 46
f 29 46 30
f 30 46 33
f 30 33 31
f 31 33 32
f 34 48 35
f 34 47 49
f 34 49 50
f 34 50 48
f 35 48 52
f 35 52 51
f 36 53 37
f 36 51 54
f 36 54 55
f 36 55 53
f 37 53 55
f 37 55 39
f 37 39 38
f 39 55 41
f 39 41 40
f 41 57 58
f 41 58 42
f 41 55 56
f 42 58 59
f 42 59 60
f 42 60 61
f 42 61 43
f 43 61 63
f 43 63 64
f 43 64 62
f 44 65 66
f 47 68 49
f 48 50 52
f 49 68 50
f 50 56 52
f 51 52 54
f 52 56 54
f 54 56 55
f 57 69 59
f 57 59 58
f 59 69 60
f 60 69 61
f 61 69 63
f 62 64 71
f 62 71 70
f 63 69 72
f 63 72 73
f 63 73 64
f 65 74 66
f 66 74 67
f 67 74 75
f 70 71 77
f 70 77 76
f 74 78 79
f 74 79 75
f 75 79 77
f 76 77 80
f 77 79 80
f 78 80 79

