# https://github.com/mikedh/trimesh
v -0.06945047 -0.00570948 -0.02650637
v -0.06948395 -0.00570948 -0.02757213
v -0.06954209 -0.00505761 -0.02650637
v -0.06971468 -0.00382985 -0.01515786
v -0.06968717 -0.00402579 -0.01515786
v -0.06945073 -0.00570948 -0.01928352
v -0.06962047 -0.00570948 -0.02857116
v -0.06965603 -0.00495605 -0.02764083
v -0.06976244 -0.00382985 -0.02645927
v -0.06971754 -0.00382985 -0.02547594
v -0.06968717 -0.00402579 -0.02547594
v -0.06971468 -0.00382985 -0.01641793
v -0.06971572 -0.00382985 -0.01412547
v -0.06968847 -0.00402579 -0.01412547
v -0.06947824 -0.00570948 -0.01825309
v -0.06981824 -0.00570948 -0.02916587
v -0.06975854 -0.00531096 -0.02857116
v -0.06978060 -0.00426645 -0.02736212
v -0.07019171 -0.00382985 -0.02703827
v -0.06971494 -0.00382985 -0.02444354
v -0.06973752 -0.00382985 -0.01309307
v -0.06971624 -0.00402579 -0.01309307
v -0.06962281 -0.00570948 -0.01723247
v -0.06980604 -0.00382985 -0.01135605
v -0.06981772 -0.00459359 -0.01235704
v -0.07002561 -0.00570948 -0.02921690
v -0.06985483 -0.00556487 -0.02909521
v -0.07037935 -0.00382985 -0.02711089
v -0.06977489 -0.00570948 -0.01626680
v -0.07004793 -0.00382985 -0.01042375
v -0.07031551 -0.00382985 -0.00989774
v -0.07036534 -0.00382985 -0.00982708
v -0.07088104 -0.00382985 -0.00946594
v -0.07141127 -0.00382985 -0.00916564
v -0.07037935 -0.00463020 -0.01222750
v -0.07010918 -0.00570948 -0.01590959
v -0.06985561 -0.00558069 -0.01564658
v -0.06989921 -0.00556487 -0.02909521
v -0.07052833 -0.00570948 -0.02909521
v -0.07120494 -0.00382985 -0.02699902
v -0.06981019 -0.00570948 -0.01622362
v -0.07203130 -0.00382985 -0.01029029
v -0.07192801 -0.00454262 -0.01154055
v -0.07191581 -0.00454262 -0.01154055
v -0.07037935 -0.00570948 -0.01584874
v -0.07075283 -0.00570948 -0.02892249
v -0.07058724 -0.00563000 -0.02899904
v -0.07141127 -0.00382985 -0.02694210
v -0.07205674 -0.00382985 -0.01090070
v -0.07194618 -0.00456948 -0.01206067
v -0.07180058 -0.00570948 -0.01774082
v -0.07155350 -0.00570948 -0.01672412
v -0.07122804 -0.00570948 -0.01612745
v -0.07117613 -0.00570948 -0.01605483
v -0.07102794 -0.00560111 -0.01557004
v -0.07130642 -0.00570948 -0.02848088
v -0.07195189 -0.00442671 -0.02709715
v -0.07200068 -0.00382985 -0.02643768
v -0.07208684 -0.00382985 -0.01186636
v -0.07205596 -0.00402579 -0.01206067
v -0.07196434 -0.00460738 -0.01309307
v -0.07183743 -0.00570948 -0.01877321
v -0.07144683 -0.00570948 -0.02827871
v -0.07201833 -0.00382985 -0.02633169
v -0.07195189 -0.00471759 -0.02709715
v -0.07210164 -0.00382985 -0.01289680
v -0.07207413 -0.00402579 -0.01309307
v -0.07189193 -0.00532255 -0.01825309
v -0.07183743 -0.00570948 -0.02237875
v -0.07168898 -0.00570948 -0.02753484
v -0.07210138 -0.00382985 -0.02527966
v -0.07182887 -0.00570948 -0.02702846
v -0.07196434 -0.00480536 -0.02650637
v -0.07210190 -0.00382985 -0.01599398
v -0.07183717 -0.00570948 -0.02650637
v -0.07207387 -0.00402579 -0.02547594
f 1 2 3
f 1 3 4
f 1 4 5
f 1 5 6
f 1 6 15
f 1 15 23
f 1 23 29
f 1 29 41
f 1 41 36
f 1 36 45
f 1 45 54
f 1 54 53
f 1 53 52
f 1 52 51
f 1 51 62
f 1 62 69
f 1 69 75
f 1 75 72
f 1 72 70
f 1 70 63
f 1 63 56
f 1 56 46
f 1 46 39
f 1 39 26
f 1 26 16
f 1 16 7
f 1 7 2
f 2 7 8
f 2 8 9
f 2 9 3
f 3 9 10
f 3 10 11
f 3 11 12
f 3 12 4
f 4 12 20
f 4 20 10
f 4 10 9
f 4 9 19
f 4 19 28
f 4 28 40
f 4 40 48
f 4 48 58
f 4 58 64
f 4 64 71
f 4 71 74
f 4 74 66
f 4 66 59
f 4 59 49
f 4 49 42
f 4 42 34
f 4 34 33
f 4 33 32
f 4 32 31
f 4 31 30
f 4 30 24
f 4 24 21
f 4 21 13
f 4 13 5
f 5 13 14
f 5 14 6
f 6 14 15
f 7 16 17
f 7 17 18
f 7 18 8
f 8 18 9
f 9 18 19
f 10 20 11
f 11 20 12
f 13 21 14
f 14 21 22
f 14 22 15
f 15 22 24
f 15 24 25
f 15 25 23
f 16 26 27
f 16 27 17
f 17 27 18
f 18 27 19
f 19 27 28
f 21 24 22
f 23 25 29
f 24 30 25
f 25 30 31
f 25 31 32
f 25 32 33
f 25 33 34
f 25 34 35
f 25 35 36
f 25 36 37
f 25 37 29
f 26 38 27
f 26 39 40
f 26 40 38
f 27 38 28
f 28 38 40
f 29 37 41
f 34 42 43
f 34 43 44
f 34 44 45
f 34 45 36
f 34 36 35
f 36 41 37
f 39 46 47
f 39 47 40
f 40 47 48
f 42 49 50
f 42 50 43
f 43 50 51
f 43 51 52
f 43 52 53
f 43 53 54
f 43 54 55
f 43 55 45
f 43 45 44
f 45 55 54
f 46 56 57
f 46 57 47
f 47 57 48
f 48 57 58
f 49 59 60
f 49 60 50
f 50 60 61
f 50 61 62
f 50 62 51
f 56 63 57
f 57 64 58
f 57 63 65
f 57 65 64
f 59 66 67
f 59 67 60
f 60 67 61
f 61 67 62
f 62 67 68
f 62 68 69
f 63 70 65
f 64 65 71
f 65 72 73
f 65 73 71
f 65 70 72
f 66 74 67
f 67 74 68
f 68 74 69
f 69 73 75
f 69 74 73
f 71 73 76
f 71 76 74
f 72 75 73
f 73 74 76

