# https://github.com/mikedh/trimesh
v -0.06934762 -0.01192253 -0.03236061
v -0.06877313 -0.01158195 -0.03224909
v -0.06873420 -0.01192253 -0.03230566
v -0.07001913 -0.01192253 -0.03229596
v -0.07089522 -0.01176379 -0.03218283
v -0.07037882 -0.00918516 -0.03157513
v -0.07037882 -0.00828447 -0.03131169
v -0.06866015 -0.01192253 -0.03196626
v -0.06967827 -0.00839090 -0.03124704
v -0.06946890 -0.00808985 -0.03071369
v -0.06904697 -0.00918516 -0.03063449
v -0.06880250 -0.01052557 -0.03127936
v -0.07073053 -0.01192253 -0.03221838
v -0.07089522 -0.01176866 -0.03218283
v -0.07131523 -0.00918516 -0.03063449
v -0.07108831 -0.00918516 -0.03136825
v -0.07102607 -0.00843529 -0.03126643
v -0.07037882 -0.00776874 -0.03107249
v -0.06860717 -0.01192253 -0.03165918
v -0.06966741 -0.00729559 -0.03042439
v -0.06972231 -0.00609020 -0.02934960
v -0.06950113 -0.00701948 -0.02970517
v -0.06948900 -0.00609020 -0.02857059
v -0.06913091 -0.00815432 -0.02960335
v -0.06925219 -0.00712226 -0.02857059
v -0.06878813 -0.01042278 -0.03063449
v -0.07088436 -0.01192253 -0.03206646
v -0.07091692 -0.01192253 -0.03168988
v -0.07120352 -0.01021722 -0.03063449
v -0.07121278 -0.00811661 -0.03069753
v -0.07149332 -0.00815432 -0.02960335
v -0.07111831 -0.00735458 -0.03039853
v -0.07037882 -0.00716848 -0.03055853
v -0.06981838 -0.00570948 -0.02916536
v -0.06857717 -0.01192253 -0.03063611
v -0.06962082 -0.00570948 -0.02857059
v -0.06948422 -0.00570948 -0.02757177
v -0.06939709 -0.00609020 -0.02753944
v -0.07091947 -0.01192253 -0.03165594
v -0.07110458 -0.01092087 -0.03063611
v -0.07096383 -0.01192253 -0.03063611
v -0.07163885 -0.00712226 -0.02753944
v -0.07163853 -0.00712226 -0.02857059
v -0.07176684 -0.00609020 -0.02753944
v -0.07132640 -0.00705536 -0.02967446
v -0.07144672 -0.00570948 -0.02827805
v -0.07116682 -0.00631826 -0.02938031
v -0.07037882 -0.00665215 -0.03008013
v -0.07002583 -0.00570948 -0.02921546
v -0.06939741 -0.00609020 -0.01928544
v -0.06867260 -0.01124928 -0.02444439
v -0.06857813 -0.01192253 -0.02547716
v -0.06945103 -0.00570948 -0.02650668
v -0.06945103 -0.00570948 -0.01928544
v -0.07096415 -0.01192253 -0.02547716
v -0.07163917 -0.00712226 -0.02031820
v -0.07183769 -0.00570948 -0.01877471
v -0.07183737 -0.00570948 -0.02341325
v -0.07183705 -0.00570948 -0.02650668
v -0.07182875 -0.00570948 -0.02702711
v -0.07168896 -0.00570948 -0.02753460
v -0.07130661 -0.00570948 -0.02848008
v -0.07075255 -0.00570948 -0.02892131
v -0.07052755 -0.00570948 -0.02909424
v -0.07029711 -0.00602087 -0.02947244
v -0.06947847 -0.00570948 -0.01825268
v -0.06880282 -0.01052739 -0.02274414
v -0.06878845 -0.01042522 -0.02341325
v -0.06863717 -0.01192253 -0.02444439
v -0.07096415 -0.01192253 -0.02527028
v -0.07120384 -0.01021722 -0.02341325
v -0.07105862 -0.01124928 -0.02444439
v -0.07095745 -0.01192253 -0.02444439
v -0.07095458 -0.01192253 -0.02429732
v -0.07132768 -0.00918516 -0.02134935
v -0.07180067 -0.00570948 -0.01774196
v -0.06962305 -0.00570948 -0.01723123
v -0.06944113 -0.00609020 -0.01825268
v -0.06880282 -0.01098230 -0.02274414
v -0.06876324 -0.01192253 -0.02356679
v -0.07092649 -0.01192253 -0.02371548
v -0.07092075 -0.01187570 -0.02341325
v -0.07118405 -0.01021722 -0.02238211
v -0.07155332 -0.00570948 -0.01672536
v -0.07089873 -0.01177048 -0.02289121
v -0.06977497 -0.00570948 -0.01626635
v -0.06981040 -0.00570948 -0.01622433
v -0.07010945 -0.00570948 -0.01591078
v -0.06934762 -0.01192253 -0.02314173
v -0.07084000 -0.01192253 -0.02341325
v -0.07122810 -0.00570948 -0.01612736
v -0.07094724 -0.01080471 -0.02178572
v -0.07067276 -0.01192253 -0.02308354
v -0.07083968 -0.01177048 -0.02289121
v -0.07037882 -0.00570948 -0.01584937
v -0.07117607 -0.00570948 -0.01605463
f 1 2 3
f 1 3 8
f 1 8 19
f 1 19 35
f 1 35 52
f 1 52 69
f 1 69 80
f 1 80 89
f 1 89 93
f 1 93 90
f 1 90 81
f 1 81 74
f 1 74 73
f 1 73 70
f 1 70 55
f 1 55 41
f 1 41 39
f 1 39 28
f 1 28 27
f 1 27 13
f 1 13 4
f 1 4 5
f 1 5 6
f 1 6 7
f 1 7 2
f 2 8 3
f 2 7 9
f 2 9 10
f 2 10 11
f 2 11 12
f 2 12 8
f 4 13 5
f 5 13 14
f 5 14 15
f 5 15 16
f 5 16 17
f 5 17 6
f 6 17 7
f 7 17 18
f 7 18 9
f 8 12 19
f 9 18 20
f 9 20 10
f 10 20 21
f 10 21 22
f 10 22 11
f 11 22 23
f 11 23 12
f 12 23 24
f 12 24 25
f 12 25 26
f 12 26 19
f 13 27 14
f 14 27 28
f 14 28 29
f 14 29 15
f 15 30 16
f 15 29 31
f 15 31 30
f 16 30 17
f 17 30 32
f 17 32 18
f 18 32 33
f 18 33 34
f 18 34 20
f 19 26 35
f 20 34 21
f 21 34 36
f 21 36 22
f 22 36 23
f 23 36 37
f 23 37 25
f 23 25 24
f 25 37 38
f 25 38 26
f 26 38 35
f 28 39 29
f 29 40 41
f 29 41 42
f 29 42 43
f 29 43 31
f 29 39 40
f 30 31 43
f 30 43 44
f 30 44 45
f 30 45 32
f 32 45 46
f 32 46 47
f 32 47 48
f 32 48 33
f 33 48 49
f 33 49 34
f 34 49 64
f 34 64 63
f 34 63 62
f 34 62 46
f 34 46 61
f 34 61 60
f 34 60 59
f 34 59 58
f 34 58 57
f 34 57 76
f 34 76 84
f 34 84 91
f 34 91 96
f 34 96 95
f 34 95 88
f 34 88 87
f 34 87 86
f 34 86 77
f 34 77 66
f 34 66 54
f 34 54 53
f 34 53 37
f 34 37 36
f 35 38 50
f 35 50 51
f 35 51 52
f 37 53 38
f 38 53 54
f 38 54 50
f 39 41 40
f 41 55 42
f 42 55 56
f 42 56 57
f 42 57 58
f 42 58 59
f 42 59 43
f 43 59 60
f 43 60 44
f 44 60 61
f 44 61 45
f 45 61 46
f 46 62 47
f 47 62 63
f 47 63 64
f 47 64 48
f 48 64 65
f 48 65 49
f 49 65 64
f 50 54 66
f 50 66 67
f 50 67 68
f 50 68 51
f 51 68 67
f 51 67 52
f 52 67 69
f 55 70 56
f 56 70 71
f 56 71 57
f 57 71 72
f 57 72 73
f 57 73 74
f 57 74 75
f 57 75 76
f 66 77 78
f 66 78 67
f 67 78 79
f 67 79 69
f 69 79 80
f 70 73 72
f 70 72 71
f 74 81 82
f 74 82 83
f 74 83 75
f 75 83 82
f 75 82 76
f 76 82 85
f 76 85 84
f 77 86 78
f 78 86 79
f 79 86 80
f 80 86 87
f 80 87 88
f 80 88 89
f 81 90 82
f 82 90 85
f 84 85 92
f 84 92 91
f 85 90 93
f 85 93 94
f 85 94 95
f 85 95 92
f 88 95 89
f 89 94 93
f 89 95 94
f 91 92 96
f 92 95 96

