# https://github.com/mikedh/trimesh
v -0.07241117 0.00922681 0.00784794
v -0.07256006 0.00922681 0.00779591
v -0.07176288 0.00922681 0.00766034
v -0.06762742 0.02383788 0.00714484
v -0.06831589 0.02383788 0.00724889
v -0.06831589 0.02486885 0.00719371
v -0.06895561 0.02486885 0.00712750
v -0.07326105 0.00922681 0.00738761
v -0.06887985 0.02543677 0.00707548
v -0.07172269 0.00922681 0.00760201
v -0.06778290 0.02222607 0.00704710
v -0.06771768 0.02280529 0.00710070
v -0.06720115 0.02486885 0.00651426
v -0.06762939 0.02486885 0.00709755
v -0.06770845 0.02540450 0.00704395
v -0.06831589 0.02543838 0.00707548
v -0.07360298 0.00922681 0.00651426
v -0.06987204 0.02231965 0.00703922
v -0.07193154 0.01508511 0.00703607
v -0.07300411 0.01111450 0.00707390
v -0.07357597 0.00939137 0.00651426
v -0.06831589 0.02559811 0.00651426
v -0.06893519 0.02549485 0.00651426
v -0.06916578 0.02486885 0.00651426
v -0.07142161 0.00922681 0.00667979
v -0.06984371 0.01498992 0.00705183
v -0.06774798 0.02210507 0.00651426
v -0.06756615 0.02280529 0.00651426
v -0.06732963 0.02383788 0.00651426
v -0.06694421 0.02486885 0.00548327
v -0.06748906 0.02548840 0.00651426
v -0.07367348 0.00922681 0.00548327
v -0.07365503 0.00939137 0.00548327
v -0.06990169 0.02242452 0.00651426
v -0.07195987 0.01518191 0.00651426
v -0.07305682 0.01129681 0.00651426
v -0.06831589 0.02570620 0.00548327
v -0.06896615 0.02552873 0.00548327
v -0.06925274 0.02486885 0.00548327
v -0.07131883 0.00922681 0.00564722
v -0.07088598 0.01090637 0.00610754
v -0.06882648 0.01814253 0.00606025
v -0.06720379 0.02383788 0.00548327
v -0.06694355 0.02486885 0.00445069
v -0.06731513 0.02556422 0.00445069
v -0.06731513 0.02556261 0.00548327
v -0.07367348 0.00922681 -0.00586715
v -0.07365503 0.00939137 -0.00586715
v -0.07294086 0.01190668 0.00548327
v -0.06955185 0.02383788 0.00548327
v -0.06831589 0.02570782 0.00445069
v -0.06896615 0.02552873 -0.00586715
v -0.06925274 0.02486885 -0.00586715
v -0.07131619 0.00922681 0.00548327
v -0.06720379 0.02383788 -0.00586715
v -0.07131553 0.00922681 0.00445069
v -0.06694355 0.02486885 -0.00483615
v -0.06731513 0.02556422 -0.00483615
v -0.07366953 0.00922681 -0.00603268
v -0.07357597 0.00939137 -0.00689972
v -0.07294086 0.01190668 -0.00586715
v -0.07195987 0.01518191 -0.00689972
v -0.07305682 0.01129681 -0.00689972
v -0.06955185 0.02383788 -0.00586715
v -0.06831589 0.02570782 -0.00483615
v -0.06831589 0.02570620 -0.00586715
v -0.06893519 0.02549485 -0.00689972
v -0.06916578 0.02486885 -0.00689972
v -0.06990169 0.02242452 -0.00689972
v -0.06882648 0.01814253 -0.00644571
v -0.06774798 0.02210507 -0.00689972
v -0.06756615 0.02280529 -0.00689972
v -0.06694421 0.02486885 -0.00586715
v -0.07131553 0.00922681 -0.00483615
v -0.07131619 0.00922681 -0.00586715
v -0.06731513 0.02556261 -0.00586715
v -0.07360298 0.00922681 -0.00689972
v -0.07354830 0.00922681 -0.00709520
v -0.07193154 0.01508511 -0.00742153
v -0.07300411 0.01111450 -0.00745936
v -0.06831589 0.02559811 -0.00689972
v -0.06748906 0.02548840 -0.00689972
v -0.06887985 0.02543677 -0.00746094
v -0.06987204 0.02231965 -0.00742468
v -0.07088598 0.01090637 -0.00649142
v -0.06778290 0.02222607 -0.00743256
v -0.06980682 0.01486084 -0.00689972
v -0.06732963 0.02383788 -0.00689972
v -0.06720115 0.02486885 -0.00689972
v -0.07140843 0.00922681 -0.00689972
v -0.07326105 0.00922681 -0.00777307
v -0.07311413 0.00922681 -0.00793545
v -0.06770845 0.02540450 -0.00742941
v -0.06831589 0.02543838 -0.00745936
v -0.06831589 0.02486885 -0.00757917
v -0.06895561 0.02486885 -0.00751296
v -0.07248561 0.00922681 -0.00825704
v -0.06771768 0.02280529 -0.00748616
v -0.06984371 0.01498992 -0.00743572
v -0.07176288 0.00922681 -0.00804580
v -0.06762939 0.02486885 -0.00748301
v -0.06762742 0.02383788 -0.00752873
v -0.07170688 0.00922681 -0.00788185
v -0.07083261 0.01171953 -0.00747197
v -0.06831589 0.02383788 -0.00763435
v -0.07234133 0.00922681 -0.00823182
f 1 2 8
f 1 8 17
f 1 17 32
f 1 32 47
f 1 47 59
f 1 59 77
f 1 77 78
f 1 78 91
f 1 91 92
f 1 92 97
f 1 97 106
f 1 106 100
f 1 100 103
f 1 103 90
f 1 90 75
f 1 75 74
f 1 74 56
f 1 56 54
f 1 54 40
f 1 40 25
f 1 25 10
f 1 10 3
f 1 3 4
f 1 4 5
f 1 5 6
f 1 6 7
f 1 7 2
f 2 7 9
f 2 9 8
f 3 10 11
f 3 11 12
f 3 12 4
f 4 12 13
f 4 13 14
f 4 14 5
f 5 14 6
f 6 15 16
f 6 16 9
f 6 9 7
f 6 14 15
f 8 9 18
f 8 18 19
f 8 19 20
f 8 20 21
f 8 21 17
f 9 16 22
f 9 22 23
f 9 23 24
f 9 24 18
f 10 25 26
f 10 26 11
f 11 27 28
f 11 28 29
f 11 29 12
f 11 26 25
f 11 25 27
f 12 29 13
f 13 29 30
f 13 30 31
f 13 31 15
f 13 15 14
f 15 31 22
f 15 22 16
f 17 21 33
f 17 33 32
f 18 24 34
f 18 34 19
f 19 35 36
f 19 36 21
f 19 21 20
f 19 34 35
f 21 36 33
f 22 37 23
f 22 31 37
f 23 37 38
f 23 38 39
f 23 39 24
f 24 39 34
f 25 40 41
f 25 41 42
f 25 42 27
f 27 42 43
f 27 43 28
f 28 43 30
f 28 30 29
f 30 43 44
f 30 44 45
f 30 45 46
f 30 46 31
f 31 46 37
f 32 33 48
f 32 48 47
f 33 36 35
f 33 35 49
f 33 49 61
f 33 61 48
f 34 39 50
f 34 50 35
f 35 50 49
f 37 51 38
f 37 46 45
f 37 45 51
f 38 51 65
f 38 65 52
f 38 52 53
f 38 53 39
f 39 53 64
f 39 64 50
f 40 54 43
f 40 43 42
f 40 42 41
f 43 55 57
f 43 57 44
f 43 54 56
f 43 56 74
f 43 74 55
f 44 57 58
f 44 58 45
f 45 58 65
f 45 65 51
f 47 48 59
f 48 60 59
f 48 61 62
f 48 62 63
f 48 63 60
f 49 50 64
f 49 64 61
f 52 65 66
f 52 66 67
f 52 67 53
f 53 67 68
f 53 68 69
f 53 69 64
f 55 70 71
f 55 71 72
f 55 72 73
f 55 73 57
f 55 74 75
f 55 75 70
f 57 73 58
f 58 73 76
f 58 76 66
f 58 66 65
f 59 60 77
f 60 78 77
f 60 63 79
f 60 79 80
f 60 80 78
f 61 64 62
f 62 79 63
f 62 64 69
f 62 69 79
f 66 81 67
f 66 76 82
f 66 82 81
f 67 81 83
f 67 83 68
f 68 83 84
f 68 84 69
f 69 84 79
f 70 75 85
f 70 85 71
f 71 86 72
f 71 85 87
f 71 87 86
f 72 88 73
f 72 86 88
f 73 89 82
f 73 82 76
f 73 88 89
f 75 90 85
f 78 80 91
f 79 92 91
f 79 91 80
f 79 84 92
f 81 82 93
f 81 93 94
f 81 94 83
f 82 89 93
f 83 94 95
f 83 95 96
f 83 96 97
f 83 97 92
f 83 92 84
f 85 90 87
f 86 98 88
f 86 87 90
f 86 90 99
f 86 99 100
f 86 100 98
f 88 98 89
f 89 101 93
f 89 98 102
f 89 102 101
f 90 103 104
f 90 104 99
f 93 101 95
f 93 95 94
f 95 101 105
f 95 105 97
f 95 97 96
f 97 105 102
f 97 102 106
f 98 100 102
f 99 104 103
f 99 103 100
f 100 106 102
f 101 102 105

