# https://github.com/mikedh/trimesh
v -0.06213507 -0.03601283 0.03279671
v -0.06233495 -0.03601283 0.03274504
v -0.06533535 -0.03701709 0.03193127
v -0.06418713 -0.03704620 0.03218962
v -0.06213507 -0.03698071 0.03266108
v -0.06213507 -0.01950787 0.03182148
v -0.06533535 -0.03606377 0.03193127
v -0.06533535 -0.03720630 0.03187315
v -0.06315546 -0.03704620 0.03241566
v -0.06213507 -0.03700254 0.03265462
v -0.06485570 -0.03762839 0.03182794
v -0.06213507 -0.01641501 0.03106584
v -0.06268459 -0.01578916 0.03080104
v -0.06274223 -0.01641501 0.03087854
v -0.06533535 -0.03586000 0.03186669
v -0.06367929 -0.01070231 0.02870850
v -0.06533535 -0.03779577 0.03164710
v -0.06213507 -0.04537873 0.02891517
v -0.06533535 -0.03813780 0.03150502
v -0.06533535 -0.04010995 0.03062667
v -0.06517087 -0.05657853 0.02330922
v -0.06533535 -0.03802136 0.03155668
v -0.06213507 -0.01568728 0.03083979
v -0.06266955 -0.01276907 0.02974186
v -0.06533535 -0.03558346 0.03176981
v -0.06315546 -0.01049855 0.02878600
v -0.06315546 -0.00998186 0.02857287
v -0.06376137 -0.00951611 0.02786890
v -0.06533535 -0.01375879 0.02356756
v -0.06533535 -0.01433369 0.02378715
v -0.06213507 -0.05729898 0.02359340
v -0.06533535 -0.04743094 0.02735868
v -0.06533535 -0.05459182 0.02416174
v -0.06533535 -0.05778656 0.02273442
v -0.06213507 -0.01332942 0.02998727
v -0.06213507 -0.01220872 0.02958039
v -0.06213507 -0.01027295 0.02886996
v -0.06213507 -0.00975626 0.02867621
v -0.06315546 -0.00933418 0.02805620
v -0.06380460 -0.00846818 0.02686138
v -0.06483596 -0.00121997 0.01863330
v -0.06478803 -0.00226062 0.01964082
v -0.06473978 -0.00335222 0.02059021
v -0.06528585 0.00009723 0.01579803
v -0.06532062 0.00009723 0.01477113
v -0.06533535 0.00113060 0.01345361
v -0.06418713 -0.05849246 0.02264400
v -0.06213507 -0.05780839 0.02336089
v -0.06533535 -0.05782295 0.02271505
v -0.06497914 -0.05832508 0.02256004
v -0.06213507 -0.00912313 0.02806911
v -0.06235187 -0.00871560 0.02762348
v -0.06315546 -0.00881749 0.02754598
v -0.06382873 -0.00744935 0.02581511
v -0.06487450 -0.00019387 0.01759348
v -0.06502519 0.00013361 0.01685722
v -0.06496566 -0.00089977 0.01790995
v -0.06501360 0.00099234 0.01579803
v -0.06530465 0.00113060 0.01373778
v -0.06533535 0.00383049 0.00533532
v -0.06347345 -0.05915470 0.02243733
v -0.06278547 -0.05925658 0.02253421
v -0.06313980 -0.05877627 0.02271505
v -0.06213507 -0.05871806 0.02293463
v -0.06533535 -0.05861618 0.02228233
v -0.06213507 -0.00899942 0.02794640
v -0.06213507 -0.00870105 0.02764285
v -0.06315546 -0.00731836 0.02595719
v -0.06315546 -0.00779866 0.02647387
v -0.06315546 -0.00831535 0.02702930
v -0.06384659 -0.00445110 0.02261171
v -0.06418713 -0.00004104 0.01776140
v -0.06488703 0.00080313 0.01652784
v -0.06482343 0.00171279 0.01451280
v -0.06495971 0.00180740 0.01373778
v -0.06507062 0.00193839 0.01270443
v -0.06533535 0.00490753 0.00138920
v -0.06533535 -0.05868895 0.02223066
v -0.06533535 -0.05934390 0.02166232
v -0.06213507 -0.05931480 0.02258588
v -0.06213507 -0.05961317 0.02197878
v -0.06213507 -0.00724559 0.02604116
v -0.06315546 -0.00680167 0.02538885
v -0.06418713 0.00047565 0.01719306
v -0.06418713 0.00093412 0.01667638
v -0.06420280 0.00147264 0.01575282
v -0.06455713 0.00161819 0.01520385
v -0.06529086 0.00491481 0.00141503
v -0.06521912 0.00516952 0.00031709
v -0.06533535 0.00509675 0.00048501
v -0.06533535 -0.05966411 0.02095834
v -0.06521912 -0.05967866 0.02095834
v -0.06315546 -0.05991881 0.02095834
v -0.06213507 -0.06010075 0.02079688
v -0.06213507 0.00023550 0.01778078
v -0.06213507 0.00062119 0.01735452
v -0.06315546 0.00101417 0.01675388
v -0.06213507 0.00159635 0.01622429
v -0.06315546 0.00153086 0.01603054
v -0.06386914 0.00167640 0.01537177
v -0.06213507 0.00265157 0.01277547
v -0.06213507 0.00597730 0.00031709
v -0.06499449 0.00481293 0.00214484
v -0.06521912 0.00516952 -0.00070334
v -0.06533535 0.00511130 0.00031709
v -0.06533535 -0.06048644 0.01893039
v -0.06521912 -0.06093036 0.01786474
v -0.06418713 -0.06063199 0.01889809
v -0.06315546 -0.06133789 0.01744494
v -0.06213507 -0.06423426 0.01056022
v -0.06213507 0.00100689 0.01692180
v -0.06213507 0.00160363 0.01621137
v -0.06213507 0.00180740 0.01569470
v -0.06315546 0.00172734 0.01552032
v -0.06213507 0.00208394 0.01477759
v -0.06213507 0.00597002 -0.00070334
v -0.06533535 0.00511130 -0.00070334
v -0.06529055 0.00491481 -0.00180128
v -0.06533535 0.00490753 -0.00177545
v -0.06533535 -0.06218934 0.01471301
v -0.06414421 -0.06317177 0.01262047
v -0.06418713 -0.06428520 0.00984979
v -0.06217987 -0.06630102 0.00542574
v -0.06213507 -0.06795297 0.00134399
v -0.06499417 0.00481293 -0.00253109
v -0.06213507 0.00289172 -0.01222524
v -0.06455713 0.00161819 -0.01559010
v -0.06482343 0.00171279 -0.01489905
v -0.06533535 0.00383049 -0.00572157
v -0.06533535 -0.06674494 0.00342361
v -0.06521912 -0.06764733 0.00122128
v -0.06213507 -0.06836778 0.00025251
v -0.06213507 0.00209121 -0.01514447
v -0.06386914 0.00167640 -0.01575802
v -0.06420280 0.00147264 -0.01613261
v -0.06488703 0.00080313 -0.01691409
v -0.06501360 0.00099234 -0.01618428
v -0.06495971 0.00180740 -0.01412403
v -0.06507062 0.00193839 -0.01309068
v -0.06530465 0.00113060 -0.01412403
v -0.06533535 0.00113060 -0.01383986
v -0.06533535 -0.06764005 0.00120190
v -0.06521912 -0.06798208 0.00031709
v -0.06521912 -0.06798208 -0.00070334
v -0.06213507 -0.06836050 -0.00063876
v -0.06213507 0.00180740 -0.01608095
v -0.06315546 0.00172734 -0.01590011
v -0.06315546 0.00153086 -0.01641679
v -0.06418713 0.00093412 -0.01706263
v -0.06418713 0.00047565 -0.01757931
v -0.06418713 -0.00004104 -0.01814766
v -0.06382873 -0.00744935 -0.02620136
v -0.06487450 -0.00019387 -0.01797974
v -0.06502519 0.00013361 -0.01724347
v -0.06528585 0.00009723 -0.01618428
v -0.06532062 0.00009723 -0.01515093
v -0.06533535 -0.01320571 -0.02352756
v -0.06533535 -0.06796753 0.00031709
v -0.06533535 -0.06796753 -0.00070334
v -0.06533535 -0.06793842 -0.00078730
v -0.06315546 -0.06822224 -0.00070334
v -0.06213507 -0.06794570 -0.00174316
v -0.06213507 0.00160363 -0.01659763
v -0.06315546 0.00101417 -0.01714014
v -0.06213507 0.00100689 -0.01730806
v -0.06213507 0.00023550 -0.01816703
v -0.06213507 -0.00036124 -0.01882579
v -0.06315546 -0.00680167 -0.02577510
v -0.06384659 -0.00445110 -0.02299796
v -0.06315546 -0.00731836 -0.02634345
v -0.06315546 -0.00779866 -0.02686013
v -0.06315546 -0.00831535 -0.02741555
v -0.06315546 -0.00881749 -0.02793223
v -0.06380460 -0.00846818 -0.02724763
v -0.06483596 -0.00121997 -0.01901955
v -0.06496566 -0.00089977 -0.01829620
v -0.06478803 -0.00226062 -0.02002707
v -0.06473978 -0.00335222 -0.02097646
v -0.06533535 -0.01422453 -0.02412819
v -0.06533535 -0.01322754 -0.02354047
v -0.06533535 -0.06764005 -0.00158815
v -0.06213507 -0.06711608 -0.00380341
v -0.06213507 -0.00672890 -0.02585260
v -0.06235187 -0.00871560 -0.02800973
v -0.06315546 -0.00933418 -0.02843599
v -0.06376137 -0.00951611 -0.02824869
v -0.06367929 -0.01070231 -0.02909475
v -0.06533535 -0.01430459 -0.02416049
v -0.06315546 -0.06641746 -0.00524364
v -0.06533535 -0.06461996 -0.00907351
v -0.06521912 -0.06467818 -0.00896372
v -0.06213507 -0.06423426 -0.01094647
v -0.06213507 -0.00842451 -0.02771910
v -0.06213507 -0.00899942 -0.02833265
v -0.06213507 -0.00974898 -0.02905600
v -0.06213507 -0.00975626 -0.02906246
v -0.06315546 -0.00998186 -0.02895266
v -0.06315546 -0.01049855 -0.02917225
v -0.06266955 -0.01276907 -0.03012810
v -0.06268459 -0.01578916 -0.03118729
v -0.06274223 -0.01641501 -0.03126480
v -0.06533535 -0.03608560 -0.03231107
v -0.06533535 -0.03586728 -0.03224002
v -0.06533535 -0.03530693 -0.03203335
v -0.06533535 -0.06091581 -0.01825099
v -0.06521912 -0.06093036 -0.01825099
v -0.06213507 -0.06086487 -0.01929080
v -0.06315546 -0.05991881 -0.02134459
v -0.06213507 -0.01026567 -0.02925621
v -0.06213507 -0.01331487 -0.03036707
v -0.06213507 -0.01568728 -0.03122605
v -0.06213507 -0.01640045 -0.03144564
v -0.06213507 -0.01742656 -0.03169751
v -0.06213507 -0.01950787 -0.03220773
v -0.06213507 -0.02021377 -0.03232398
v -0.06213507 -0.02133447 -0.03245961
v -0.06233495 -0.03601283 -0.03312483
v -0.06213507 -0.03626025 -0.03318296
v -0.06533535 -0.03700254 -0.03231107
v -0.06533535 -0.06012986 -0.02019499
v -0.06521912 -0.05967866 -0.02134459
v -0.06213507 -0.06010075 -0.02118313
v -0.06213507 -0.05960589 -0.02238441
v -0.06213507 -0.03601283 -0.03317650
v -0.06213507 -0.03698071 -0.03304733
v -0.06418713 -0.03704620 -0.03257586
v -0.06520690 -0.03706804 -0.03232398
v -0.06533535 -0.03719903 -0.03225294
v -0.06533535 -0.05966411 -0.02134459
v -0.06533535 -0.05963500 -0.02141564
v -0.06533535 -0.05934390 -0.02204857
v -0.06278453 -0.05925658 -0.02292046
v -0.06213507 -0.05930752 -0.02297859
v -0.06485445 -0.03762839 -0.03221419
v -0.06315546 -0.03704620 -0.03280191
v -0.06213507 -0.04583720 -0.02909475
v -0.06463921 -0.04476016 -0.02907538
v -0.06533535 -0.03748284 -0.03216252
v -0.06533535 -0.05868895 -0.02261691
v -0.06347252 -0.05915470 -0.02282358
v -0.06533535 -0.05824503 -0.02291400
v -0.06313949 -0.05877627 -0.02310130
v -0.06213507 -0.05871806 -0.02331443
v -0.06533535 -0.04190017 -0.03021207
v -0.06533535 -0.03920757 -0.03141334
v -0.06520690 -0.03801409 -0.03196877
v -0.06533535 -0.03802136 -0.03193648
v -0.06213507 -0.05072756 -0.02691179
v -0.06418713 -0.05562520 -0.02431549
v -0.06533535 -0.05159356 -0.02588490
v -0.06533535 -0.04679053 -0.02802911
v -0.06533535 -0.05865256 -0.02264275
v -0.06213507 -0.05664402 -0.02427028
v -0.06213507 -0.05729170 -0.02397965
v -0.06213507 -0.05780839 -0.02374714
f 1 2 3
f 1 3 4
f 1 4 5
f 1 5 10
f 1 10 18
f 1 18 31
f 1 31 48
f 1 48 64
f 1 64 80
f 1 80 81
f 1 81 94
f 1 94 110
f 1 110 124
f 1 124 132
f 1 132 145
f 1 145 162
f 1 162 182
f 1 182 192
f 1 192 207
f 1 207 222
f 1 222 223
f 1 223 233
f 1 233 243
f 1 243 255
f 1 255 254
f 1 254 253
f 1 253 248
f 1 248 236
f 1 236 225
f 1 225 218
f 1 218 224
f 1 224 216
f 1 216 215
f 1 215 214
f 1 214 213
f 1 213 212
f 1 212 211
f 1 211 210
f 1 210 209
f 1 209 196
f 1 196 195
f 1 195 194
f 1 194 193
f 1 193 183
f 1 183 167
f 1 167 166
f 1 166 165
f 1 165 163
f 1 163 146
f 1 146 133
f 1 133 126
f 1 126 116
f 1 116 102
f 1 102 101
f 1 101 115
f 1 115 113
f 1 113 112
f 1 112 98
f 1 98 111
f 1 111 96
f 1 96 95
f 1 95 82
f 1 82 67
f 1 67 66
f 1 66 51
f 1 51 38
f 1 38 37
f 1 37 36
f 1 36 35
f 1 35 23
f 1 23 12
f 1 12 6
f 1 6 2
f 2 7 3
f 2 6 7
f 3 7 15
f 3 15 25
f 3 25 30
f 3 30 29
f 3 29 46
f 3 46 60
f 3 60 77
f 3 77 90
f 3 90 105
f 3 105 117
f 3 117 119
f 3 119 129
f 3 129 141
f 3 141 157
f 3 157 180
f 3 180 179
f 3 179 188
f 3 188 204
f 3 204 203
f 3 203 202
f 3 202 219
f 3 219 228
f 3 228 238
f 3 238 247
f 3 247 245
f 3 245 244
f 3 244 251
f 3 251 250
f 3 250 241
f 3 241 252
f 3 252 239
f 3 239 231
f 3 231 230
f 3 230 229
f 3 229 220
f 3 220 205
f 3 205 190
f 3 190 181
f 3 181 160
f 3 160 159
f 3 159 158
f 3 158 142
f 3 142 130
f 3 130 120
f 3 120 106
f 3 106 91
f 3 91 79
f 3 79 78
f 3 78 65
f 3 65 49
f 3 49 34
f 3 34 33
f 3 33 32
f 3 32 20
f 3 20 19
f 3 19 22
f 3 22 17
f 3 17 8
f 3 8 4
f 4 9 10
f 4 10 5
f 4 8 11
f 4 11 9
f 6 12 13
f 6 13 14
f 6 14 7
f 7 14 16
f 7 16 15
f 8 17 11
f 9 11 10
f 10 11 19
f 10 19 20
f 10 20 21
f 10 21 18
f 11 17 22
f 11 22 19
f 12 23 13
f 13 23 24
f 13 24 16
f 13 16 14
f 15 16 25
f 16 24 26
f 16 26 27
f 16 27 28
f 16 28 29
f 16 29 30
f 16 30 25
f 18 21 31
f 20 32 21
f 21 33 34
f 21 34 31
f 21 32 33
f 23 35 24
f 24 36 37
f 24 37 38
f 24 38 26
f 24 35 36
f 26 38 27
f 27 38 39
f 27 39 28
f 28 39 40
f 28 40 41
f 28 41 42
f 28 42 43
f 28 43 29
f 29 43 44
f 29 44 45
f 29 45 46
f 31 34 47
f 31 47 48
f 34 49 50
f 34 50 47
f 38 51 39
f 39 51 52
f 39 52 53
f 39 53 40
f 40 53 54
f 40 54 55
f 40 55 41
f 41 55 56
f 41 56 57
f 41 57 42
f 42 57 44
f 42 44 43
f 44 57 56
f 44 56 58
f 44 58 59
f 44 59 46
f 44 46 45
f 46 59 60
f 47 50 61
f 47 61 62
f 47 62 63
f 47 63 48
f 48 63 64
f 49 65 50
f 50 65 61
f 51 66 52
f 52 66 67
f 52 67 68
f 52 68 69
f 52 69 70
f 52 70 53
f 53 70 54
f 54 70 71
f 54 71 72
f 54 72 73
f 54 73 55
f 55 73 56
f 56 73 58
f 58 73 74
f 58 74 75
f 58 75 59
f 59 75 76
f 59 76 60
f 60 76 75
f 60 75 74
f 60 74 77
f 61 78 79
f 61 79 62
f 61 65 78
f 62 80 64
f 62 64 63
f 62 79 81
f 62 81 80
f 67 82 83
f 67 83 68
f 68 83 84
f 68 84 72
f 68 72 69
f 69 72 70
f 70 72 71
f 72 84 73
f 73 84 85
f 73 85 86
f 73 86 87
f 73 87 74
f 74 87 88
f 74 88 77
f 77 88 89
f 77 89 90
f 79 91 81
f 81 91 92
f 81 92 93
f 81 93 94
f 82 95 84
f 82 84 83
f 84 95 96
f 84 96 97
f 84 97 85
f 85 97 98
f 85 98 99
f 85 99 86
f 86 99 100
f 86 100 87
f 87 100 101
f 87 101 102
f 87 102 103
f 87 103 88
f 88 103 102
f 88 102 89
f 89 104 117
f 89 117 105
f 89 105 90
f 89 102 104
f 91 106 92
f 92 106 93
f 93 106 107
f 93 107 108
f 93 108 109
f 93 109 94
f 94 109 110
f 96 111 97
f 97 111 98
f 98 112 99
f 99 112 113
f 99 113 114
f 99 114 100
f 100 114 115
f 100 115 101
f 102 116 104
f 104 116 118
f 104 118 119
f 104 119 117
f 106 120 107
f 107 109 108
f 107 120 121
f 107 121 109
f 109 121 110
f 110 121 122
f 110 122 123
f 110 123 124
f 113 115 114
f 116 125 118
f 116 126 127
f 116 127 125
f 118 125 127
f 118 127 128
f 118 128 119
f 119 128 129
f 120 130 131
f 120 131 122
f 120 122 121
f 122 131 124
f 122 124 123
f 124 131 132
f 126 133 134
f 126 134 127
f 127 134 135
f 127 135 136
f 127 136 128
f 128 136 137
f 128 137 138
f 128 138 129
f 129 138 139
f 129 139 140
f 129 140 141
f 130 142 131
f 131 142 143
f 131 143 132
f 132 143 144
f 132 144 145
f 133 146 134
f 134 146 147
f 134 147 148
f 134 148 135
f 135 148 149
f 135 149 136
f 136 149 150
f 136 150 151
f 136 151 152
f 136 152 153
f 136 153 154
f 136 154 137
f 137 140 138
f 137 154 155
f 137 155 140
f 138 140 139
f 140 155 141
f 141 155 156
f 141 156 157
f 142 158 143
f 143 158 159
f 143 159 144
f 144 159 160
f 144 160 161
f 144 161 145
f 145 161 162
f 146 163 148
f 146 148 147
f 148 163 149
f 149 164 150
f 149 163 164
f 150 164 165
f 150 165 166
f 150 166 167
f 150 167 168
f 150 168 170
f 150 170 151
f 151 169 152
f 151 170 171
f 151 171 172
f 151 172 169
f 152 172 173
f 152 173 174
f 152 174 153
f 152 169 172
f 153 175 154
f 153 174 175
f 154 175 176
f 154 176 155
f 155 176 177
f 155 177 178
f 155 178 179
f 155 179 180
f 155 180 157
f 155 157 156
f 160 181 161
f 161 181 162
f 162 181 182
f 163 165 164
f 167 183 168
f 168 183 184
f 168 184 170
f 170 184 171
f 171 184 172
f 172 184 173
f 173 184 185
f 173 185 174
f 174 185 186
f 174 186 177
f 174 177 175
f 175 177 176
f 177 186 178
f 178 186 179
f 179 187 188
f 179 186 187
f 181 189 182
f 181 190 191
f 181 191 189
f 182 189 192
f 183 193 184
f 184 193 194
f 184 194 185
f 185 195 196
f 185 196 197
f 185 197 186
f 185 194 195
f 186 197 187
f 187 197 198
f 187 198 199
f 187 199 200
f 187 200 201
f 187 201 202
f 187 202 203
f 187 203 204
f 187 204 188
f 189 191 192
f 190 205 206
f 190 206 191
f 191 206 192
f 192 206 208
f 192 208 207
f 196 209 199
f 196 199 198
f 196 198 197
f 199 209 210
f 199 210 211
f 199 211 200
f 200 211 212
f 200 212 213
f 200 213 214
f 200 214 201
f 201 214 215
f 201 215 202
f 202 215 216
f 202 216 217
f 202 217 218
f 202 218 219
f 205 220 206
f 206 220 221
f 206 221 208
f 207 208 222
f 208 221 223
f 208 223 222
f 216 224 217
f 217 224 218
f 218 225 226
f 218 226 219
f 219 226 227
f 219 227 228
f 220 229 221
f 221 229 230
f 221 230 223
f 223 230 231
f 223 231 232
f 223 232 233
f 225 234 235
f 225 235 226
f 225 236 237
f 225 237 234
f 226 235 234
f 226 234 238
f 226 238 228
f 226 228 227
f 231 239 240
f 231 240 232
f 232 240 241
f 232 241 242
f 232 242 243
f 232 243 233
f 234 237 244
f 234 244 245
f 234 245 246
f 234 246 247
f 234 247 238
f 236 248 237
f 237 248 249
f 237 249 250
f 237 250 251
f 237 251 244
f 239 252 240
f 240 252 241
f 241 253 254
f 241 254 255
f 241 255 242
f 241 250 249
f 241 249 253
f 242 255 243
f 245 247 246
f 248 253 249

