# https://github.com/mikedh/trimesh
v 0.02544650 -0.01156931 0.01696039
v 0.02521941 -0.01156931 0.01923746
v 0.02273142 -0.01826050 0.01815257
v 0.02525934 -0.01203956 0.01696039
v 0.02541157 -0.01156931 0.01636033
v 0.02506719 -0.01156931 0.01984547
v 0.02514455 -0.01175956 0.01923746
v 0.02207761 -0.01915614 0.01904273
v 0.02097211 -0.02103355 0.01923746
v 0.02109688 -0.02115739 0.01696039
v 0.02227225 -0.01915614 0.01702795
v 0.02273142 -0.01826050 0.01783069
v 0.02321804 -0.01494901 0.02159797
v 0.02075251 -0.01670617 0.02834572
v 0.02042560 -0.01820666 0.02717738
v 0.02080491 -0.01937331 0.02364455
v 0.02047800 -0.02054176 0.02278618
v 0.02309327 -0.01727693 0.01702795
v 0.02518947 -0.01186367 0.01482242
v 0.02530676 -0.01156931 0.01482242
v 0.02296600 -0.01156931 0.02800793
v 0.02289363 -0.01182059 0.02789269
v 0.02066017 -0.02072124 0.02151452
v 0.01909551 -0.02213917 0.01904273
v 0.01819714 -0.02279250 0.01815257
v 0.01909551 -0.02233302 0.01702398
v 0.02102202 -0.02108201 0.01482242
v 0.02194535 -0.01935177 0.01482242
v 0.02310075 -0.01690180 0.01482242
v 0.02055037 -0.01621797 0.02981607
v 0.02023095 -0.01784410 0.02834572
v 0.01843171 -0.01849563 0.03212890
v 0.01814473 -0.02048791 0.02717738
v 0.01931012 -0.02086663 0.02364455
v 0.02380697 -0.01156931 0.01482242
v 0.02247938 -0.01156931 0.02963725
v 0.01014672 -0.02532144 0.02129198
v 0.00495612 -0.02752013 0.02110521
v 0.00694502 -0.02739987 0.01836319
v 0.00564238 -0.02794551 0.01696039
v 0.01819714 -0.02279250 0.01783069
v 0.01855898 -0.02069073 0.02565934
v 0.01664245 -0.02081458 0.02834572
v 0.01488564 -0.02327890 0.02159797
v 0.01683959 -0.02316224 0.01482242
v 0.01928766 -0.02200635 0.01482242
v 0.02084983 -0.01480183 0.03059496
v 0.02025591 -0.01555387 0.03133412
v 0.01987659 -0.01702026 0.03059496
v 0.01160158 -0.01166085 0.05542014
v 0.01695688 -0.01993869 0.03059496
v 0.01778039 -0.02029227 0.02834572
v 0.01615583 -0.02061355 0.02981607
v 0.02228723 -0.01230340 0.01482242
v 0.02260914 -0.01156931 0.01483434
v 0.02213750 -0.01156931 0.03062278
v 0.01176129 -0.02295403 0.02789269
v 0.00730187 -0.02527118 0.02606865
v 0.00568480 -0.02771397 0.01916990
v 0.00565486 -0.02539862 0.02822253
v 0.00298220 -0.02764577 0.02379159
v 0.00045178 -0.02978882 0.01923746
v 0.00077370 -0.02990548 0.01696039
v 0.00695500 -0.02740346 0.01696039
v 0.00580958 -0.02773372 0.01482242
v 0.00684770 -0.02736039 0.01548606
v 0.01721392 -0.02315506 0.01702398
v 0.01198090 -0.02532144 0.01696039
v 0.00597178 -0.02766731 0.01482242
v 0.02058780 -0.01403543 0.03198187
v 0.01164650 -0.01156931 0.05542014
v 0.01019663 -0.01236443 0.05542014
v 0.01549204 -0.02031740 0.03133412
v 0.01473840 -0.02091150 0.03059496
v 0.00490372 -0.02522093 0.02996311
v -0.00004731 -0.02718808 0.01482242
v -0.00004731 -0.01557721 0.04434875
v -0.00004731 -0.01498670 0.04655429
v -0.00004731 -0.01416646 0.05109650
v 0.00830256 -0.01156931 0.04892673
v -0.00004482 -0.02733346 0.02949021
v 0.00249558 -0.02744295 0.02536129
v 0.00001757 -0.02963267 0.02046938
v -0.00004731 -0.02965061 0.02033029
v -0.00004731 -0.02978882 0.01923746
v 0.00118545 -0.02775166 0.02610044
v 0.00036194 -0.02748064 0.02834572
v -0.00004731 -0.02990548 0.01696039
v 0.00057656 -0.02983189 0.01482242
v 0.00587446 -0.01156931 0.05542014
v 0.00701489 -0.01376800 0.05542014
v 0.00910610 -0.02279788 0.03179112
v 0.00343388 -0.02555656 0.03068239
v -0.00004731 -0.02983189 0.01482242
v -0.00004731 -0.01410005 0.05260262
v 0.00143001 -0.01335159 0.05542014
v 0.00626126 -0.01156931 0.05379877
v -0.00004731 -0.02733346 0.02948624
v -0.00004731 -0.02963267 0.02046938
v 0.00086354 -0.02666219 0.03039627
v 0.00084607 -0.01626643 0.05542014
v -0.00004731 -0.01626643 0.05542014
v 0.00564238 -0.01433338 0.05542014
v 0.00423992 -0.02490503 0.03148115
v -0.00004731 -0.01406594 0.05338549
v -0.00004731 -0.01397979 0.05542014
f 1 2 3
f 1 3 4
f 1 4 5
f 1 5 20
f 1 20 35
f 1 35 55
f 1 55 80
f 1 80 97
f 1 97 90
f 1 90 71
f 1 71 56
f 1 56 36
f 1 36 21
f 1 21 6
f 1 6 2
f 2 6 7
f 2 7 3
f 3 8 9
f 3 9 10
f 3 10 11
f 3 11 12
f 3 12 4
f 3 7 13
f 3 13 14
f 3 14 15
f 3 15 16
f 3 16 17
f 3 17 8
f 4 12 18
f 4 18 19
f 4 19 5
f 5 19 20
f 6 21 22
f 6 22 13
f 6 13 7
f 8 17 23
f 8 23 9
f 9 24 25
f 9 25 10
f 9 23 24
f 10 25 26
f 10 26 27
f 10 27 11
f 11 27 28
f 11 28 29
f 11 29 12
f 12 29 18
f 13 22 14
f 14 30 15
f 14 22 21
f 14 21 30
f 15 17 16
f 15 30 31
f 15 31 32
f 15 32 17
f 17 33 34
f 17 34 25
f 17 25 24
f 17 24 23
f 17 32 33
f 18 29 19
f 19 29 28
f 19 28 27
f 19 27 46
f 19 46 45
f 19 45 69
f 19 69 65
f 19 65 89
f 19 89 94
f 19 94 76
f 19 76 54
f 19 54 35
f 19 35 20
f 21 36 30
f 25 37 38
f 25 38 39
f 25 39 40
f 25 40 41
f 25 41 26
f 25 34 42
f 25 42 33
f 25 33 43
f 25 43 44
f 25 44 37
f 26 41 45
f 26 45 46
f 26 46 27
f 30 36 47
f 30 47 48
f 30 48 49
f 30 49 31
f 31 49 32
f 32 50 51
f 32 51 52
f 32 52 33
f 32 49 50
f 33 52 53
f 33 53 43
f 33 42 34
f 35 54 55
f 36 56 47
f 37 44 57
f 37 57 58
f 37 58 38
f 38 59 39
f 38 58 60
f 38 60 61
f 38 61 59
f 39 59 62
f 39 62 63
f 39 63 40
f 40 64 41
f 40 63 65
f 40 65 66
f 40 66 64
f 41 67 45
f 41 64 68
f 41 68 67
f 43 53 60
f 43 60 57
f 43 57 44
f 45 66 69
f 45 67 66
f 47 56 48
f 48 56 70
f 48 70 71
f 48 71 49
f 49 71 50
f 50 71 90
f 50 90 96
f 50 96 106
f 50 106 102
f 50 102 101
f 50 101 103
f 50 103 91
f 50 91 72
f 50 72 51
f 51 53 52
f 51 72 73
f 51 73 53
f 53 73 74
f 53 74 75
f 53 75 60
f 54 76 55
f 55 76 77
f 55 77 78
f 55 78 79
f 55 79 80
f 56 71 70
f 57 60 58
f 59 61 62
f 60 75 81
f 60 81 82
f 60 82 61
f 61 82 62
f 62 83 84
f 62 84 85
f 62 85 88
f 62 88 63
f 62 82 86
f 62 86 87
f 62 87 83
f 63 88 94
f 63 94 89
f 63 89 65
f 64 66 68
f 65 69 66
f 66 67 68
f 72 91 73
f 73 91 92
f 73 92 74
f 74 92 75
f 75 92 93
f 75 93 81
f 76 94 88
f 76 88 85
f 76 85 84
f 76 84 99
f 76 99 98
f 76 98 102
f 76 102 106
f 76 106 105
f 76 105 95
f 76 95 79
f 76 79 78
f 76 78 77
f 79 95 96
f 79 96 90
f 79 90 97
f 79 97 80
f 81 98 99
f 81 99 83
f 81 83 87
f 81 87 82
f 81 93 100
f 81 100 101
f 81 101 102
f 81 102 98
f 82 87 86
f 83 99 84
f 91 103 92
f 92 104 93
f 92 103 104
f 93 104 101
f 93 101 100
f 95 105 96
f 96 105 106
f 101 104 103

