# https://github.com/mikedh/trimesh
v 0.02439671 -0.00001105 -0.09859243
v 0.01798979 0.01562300 -0.09825935
v 0.01798979 0.01623584 -0.09848140
v 0.02439671 0.00113126 -0.09859243
v 0.02566437 -0.00001105 -0.09859243
v 0.02433740 -0.00001105 -0.09774862
v 0.01798979 0.01561624 -0.09820384
v 0.02427808 -0.00001105 -0.09688260
v 0.01798979 0.01708299 -0.09847030
v 0.02566437 0.00113126 -0.09859243
v 0.02623656 -0.00001105 -0.09791516
v 0.01798979 0.01561624 -0.09762649
v 0.02655755 -0.00001105 0.01012595
v 0.01798979 0.01940591 0.01136946
v 0.01798979 0.01934958 0.01005933
v 0.01798979 0.01825459 -0.09843699
v 0.01929699 0.01694781 -0.09843699
v 0.02343957 0.01023817 -0.09847030
v 0.02548294 0.00340911 -0.09852581
v 0.02680294 0.00113126 -0.09722678
v 0.02680294 -0.00001105 -0.09722678
v 0.02668082 -0.00001105 0.01240202
v 0.01798979 0.01972584 0.01481132
v 0.01798979 0.01957263 0.01342347
v 0.01798979 0.01882912 -0.09838148
v 0.01853407 0.01857452 -0.09834817
v 0.02098100 0.01479162 -0.09841479
v 0.02306974 0.01193473 -0.09835928
v 0.02509450 0.00731368 -0.09814831
v 0.02525732 0.00568471 -0.09832597
v 0.02713090 -0.00001105 -0.09666055
v 0.02745538 0.00113126 -0.09609431
v 0.02692389 -0.00001105 0.01454485
v 0.02712625 -0.00001105 0.01481132
v 0.01798979 0.02253091 0.01481132
v 0.01798979 0.01944421 -0.09781523
v 0.02005177 0.01762598 -0.09741553
v 0.02056000 0.01610741 -0.09815941
v 0.02049953 0.02054145 -0.09356288
v 0.02484562 0.00883225 -0.09777082
v 0.02255918 0.01345330 -0.09778193
v 0.02294878 0.01414048 -0.09627195
v 0.02761587 0.00333251 -0.09461764
v 0.02732163 0.00252365 -0.09583894
v 0.02745538 -0.00001105 -0.09609431
v 0.02817411 0.00113126 -0.09460653
v 0.02781707 -0.00001105 -0.09535042
v 0.02977206 -0.00001105 0.01481132
v 0.01798979 0.02300181 -0.08095012
v 0.01919814 0.02202848 0.01481132
v 0.01837009 0.02284635 -0.08095012
v 0.01798979 0.01987004 -0.09721568
v 0.01830031 0.02057750 -0.09589446
v 0.02092285 0.01694781 -0.09674937
v 0.02053442 0.01834246 -0.09589446
v 0.02276852 0.01605109 -0.09368500
v 0.02254988 0.01565905 -0.09520608
v 0.02213818 0.01485696 -0.09697143
v 0.01798979 0.02066312 -0.09608320
v 0.01915627 0.02086139 -0.09443999
v 0.01798979 0.02149000 -0.09447330
v 0.01930281 0.02145845 -0.09233047
v 0.02068560 0.02072621 -0.09233047
v 0.02141596 0.01934507 -0.09233047
v 0.02536315 0.00802790 -0.09696032
v 0.02509450 0.00934144 -0.09624975
v 0.02310579 0.01485696 -0.09450661
v 0.02737513 0.00479700 -0.09387375
v 0.02958481 0.00009710 -0.09135342
v 0.02817411 -0.00001105 -0.09460653
v 0.02977206 0.00061981 0.01481132
v 0.02986975 -0.00001105 -0.07867405
v 0.01798979 0.02298604 -0.08261554
v 0.01929001 0.02198792 0.01481132
v 0.01950866 0.02231687 -0.08095012
v 0.01948075 0.02231462 -0.08322619
v 0.01834334 0.02283508 -0.08322619
v 0.02524453 0.00970644 -0.09460653
v 0.02286621 0.01628541 -0.09233047
v 0.02749957 0.00509666 -0.09233047
v 0.01798979 0.02206904 -0.09233047
v 0.01930281 0.02170629 -0.09005440
v 0.02089262 0.02093349 -0.09005440
v 0.02166484 0.01934507 -0.09005440
v 0.02298484 0.01657155 -0.09005440
v 0.02816364 0.00340911 -0.09233047
v 0.02964878 0.00027960 -0.09005440
v 0.02958481 -0.00001105 -0.09135342
v 0.02760773 0.00601141 0.01481132
v 0.02986975 0.00087891 -0.07867405
v 0.02986277 0.00129348 -0.08113887
v 0.02955225 0.00227807 -0.08202709
v 0.02986742 -0.00001105 -0.07967330
v 0.01798979 0.02297928 -0.08322619
v 0.02090076 0.02113627 0.01481132
v 0.02113684 0.02117907 -0.08095012
v 0.02113452 0.02117682 -0.08322619
v 0.02102287 0.02106417 0.01481132
v 0.02108218 0.02112500 -0.08550225
v 0.02099147 0.02103262 -0.08777833
v 0.01910277 0.02227857 -0.08541344
v 0.01820960 0.02277875 -0.08459183
v 0.01798979 0.02289141 -0.08433647
v 0.02501077 0.01141652 -0.09132011
v 0.02534338 0.01035082 -0.09218613
v 0.02761819 0.00538505 -0.09005440
v 0.01798979 0.02285536 -0.08476947
v 0.02227309 0.01952307 -0.08322619
v 0.02223587 0.01914455 -0.08541344
v 0.02728209 0.00684955 -0.08676797
v 0.02273712 0.01825234 -0.08459183
v 0.02309300 0.01723169 -0.08541344
v 0.02964878 -0.00001105 -0.09005440
v 0.02955225 0.00227807 -0.08212701
v 0.02974182 0.00053870 -0.08777833
v 0.02983602 0.00078879 -0.08550225
v 0.02310346 0.01688247 0.01481132
v 0.02986277 -0.00001105 -0.08113887
v 0.02985928 -0.00001105 -0.08208260
v 0.02985463 0.00127095 -0.08302633
v 0.02280341 0.01841230 -0.08095012
v 0.02227541 0.01955010 -0.08095012
v 0.02109381 0.02094250 0.01481132
v 0.02786824 0.00568471 -0.08550225
v 0.02279294 0.01838527 -0.08322619
v 0.02983602 -0.00001105 -0.08550225
v 0.02194629 0.01933156 0.01481132
v 0.02985463 -0.00001105 -0.08302633
f 1 2 3
f 1 3 4
f 1 4 10
f 1 10 5
f 1 5 11
f 1 11 21
f 1 21 31
f 1 31 45
f 1 45 47
f 1 47 70
f 1 70 88
f 1 88 113
f 1 113 126
f 1 126 128
f 1 128 119
f 1 119 118
f 1 118 93
f 1 93 72
f 1 72 48
f 1 48 34
f 1 34 33
f 1 33 22
f 1 22 13
f 1 13 8
f 1 8 6
f 1 6 2
f 2 7 12
f 2 12 15
f 2 15 14
f 2 14 24
f 2 24 23
f 2 23 35
f 2 35 49
f 2 49 73
f 2 73 94
f 2 94 103
f 2 103 107
f 2 107 81
f 2 81 61
f 2 61 59
f 2 59 52
f 2 52 36
f 2 36 25
f 2 25 16
f 2 16 9
f 2 9 3
f 2 6 8
f 2 8 7
f 3 9 10
f 3 10 4
f 5 10 11
f 7 8 12
f 8 13 14
f 8 14 15
f 8 15 12
f 9 16 17
f 9 17 18
f 9 18 10
f 10 18 19
f 10 19 20
f 10 20 11
f 11 20 21
f 13 22 23
f 13 23 24
f 13 24 14
f 16 25 17
f 17 25 26
f 17 26 27
f 17 27 18
f 18 27 28
f 18 28 29
f 18 29 30
f 18 30 19
f 19 30 20
f 20 31 21
f 20 30 29
f 20 29 32
f 20 32 31
f 22 33 23
f 23 33 34
f 23 34 48
f 23 48 71
f 23 71 89
f 23 89 117
f 23 117 127
f 23 127 123
f 23 123 98
f 23 98 95
f 23 95 74
f 23 74 50
f 23 50 35
f 25 36 26
f 26 37 38
f 26 38 28
f 26 28 27
f 26 36 39
f 26 39 37
f 28 40 29
f 28 38 41
f 28 41 42
f 28 42 40
f 29 40 43
f 29 43 44
f 29 44 32
f 31 32 45
f 32 44 46
f 32 46 47
f 32 47 45
f 35 50 51
f 35 51 49
f 36 52 53
f 36 53 39
f 37 54 41
f 37 41 38
f 37 39 55
f 37 55 54
f 39 56 57
f 39 57 42
f 39 42 58
f 39 58 55
f 39 53 59
f 39 59 60
f 39 60 61
f 39 61 62
f 39 62 63
f 39 63 64
f 39 64 56
f 40 65 43
f 40 42 66
f 40 66 65
f 41 54 55
f 41 55 58
f 41 58 42
f 42 57 67
f 42 67 66
f 43 68 69
f 43 69 46
f 43 46 44
f 43 65 68
f 46 70 47
f 46 69 88
f 46 88 70
f 48 72 90
f 48 90 71
f 49 51 73
f 50 74 51
f 51 75 76
f 51 76 77
f 51 77 73
f 51 74 75
f 52 59 53
f 56 78 66
f 56 66 67
f 56 67 57
f 56 64 79
f 56 79 80
f 56 80 78
f 59 61 60
f 61 81 62
f 62 81 82
f 62 82 83
f 62 83 63
f 63 83 64
f 64 83 84
f 64 84 85
f 64 85 79
f 65 66 68
f 66 78 68
f 68 78 80
f 68 80 86
f 68 86 69
f 69 86 80
f 69 80 87
f 69 87 113
f 69 113 88
f 71 90 91
f 71 91 92
f 71 92 89
f 72 93 90
f 73 77 94
f 74 95 75
f 75 96 97
f 75 97 76
f 75 95 98
f 75 98 96
f 76 97 99
f 76 99 100
f 76 100 83
f 76 83 101
f 76 101 102
f 76 102 77
f 77 102 103
f 77 103 94
f 79 85 104
f 79 104 105
f 79 105 80
f 80 105 104
f 80 104 106
f 80 106 87
f 81 107 102
f 81 102 82
f 82 102 101
f 82 101 83
f 83 100 108
f 83 108 109
f 83 109 84
f 84 109 85
f 85 110 106
f 85 106 104
f 85 109 111
f 85 111 112
f 85 112 110
f 87 106 114
f 87 114 115
f 87 115 116
f 87 116 126
f 87 126 113
f 89 92 117
f 90 93 91
f 91 93 118
f 91 118 119
f 91 119 120
f 91 120 114
f 91 114 92
f 92 114 121
f 92 121 117
f 96 122 97
f 96 98 122
f 97 108 99
f 97 122 108
f 98 123 122
f 99 108 100
f 102 107 103
f 106 110 124
f 106 124 114
f 108 125 111
f 108 111 109
f 108 122 121
f 108 121 125
f 110 112 124
f 111 124 112
f 111 125 124
f 114 125 121
f 114 120 116
f 114 116 115
f 114 124 125
f 116 120 128
f 116 128 126
f 117 121 122
f 117 122 127
f 119 128 120
f 122 123 127

