# https://github.com/mikedh/trimesh
v -0.00004731 -0.02738561 0.01508155
v -0.00004731 -0.02984230 0.01508155
v -0.00004731 -0.02698452 0.01454740
v -0.01717122 -0.02039030 0.01508155
v -0.00070438 -0.02984230 0.01508155
v -0.00004731 -0.02993004 -0.07867304
v -0.00004731 -0.02674261 0.01239967
v -0.01717122 -0.02307637 0.01508155
v -0.01717122 -0.02012959 0.01239967
v -0.00589217 -0.02775913 0.01508155
v -0.00233698 -0.02961167 -0.08203373
v -0.00135474 -0.02992377 -0.08114348
v -0.00093905 -0.02993004 -0.07867304
v -0.00004731 -0.02992753 -0.07966344
v -0.00004731 -0.02667994 0.01125347
v -0.01717122 -0.01995662 0.01027419
v -0.01698852 -0.02316285 0.01508155
v -0.01717122 -0.02340351 -0.08095430
v -0.00641850 -0.02754730 0.01508155
v -0.01712932 -0.02342106 -0.08095430
v -0.00233698 -0.02961167 -0.08212276
v -0.00133127 -0.02991500 -0.08302414
v -0.00004731 -0.02992377 -0.08114348
v -0.00004731 -0.02661852 0.01011840
v -0.01717122 -0.01994408 0.00999599
v -0.01717122 -0.02340351 -0.08102107
v -0.01717122 -0.02338095 -0.08322444
v -0.01712932 -0.02339850 -0.08322444
v -0.00725659 -0.02748714 -0.08322444
v -0.00574467 -0.02792834 -0.08550571
v -0.00544463 -0.02767891 -0.09005712
v -0.00034065 -0.02970944 -0.09005712
v -0.00059878 -0.02980344 -0.08777585
v -0.00084853 -0.02989620 -0.08550571
v -0.00004731 -0.02991500 -0.08302414
v -0.00004731 -0.02990372 -0.08454869
v -0.00004731 -0.02433856 -0.09688980
v -0.01716955 -0.01712641 -0.09688980
v -0.01717122 -0.01712891 -0.09688980
v -0.01717122 -0.02314907 -0.08608437
v -0.00690962 -0.02734299 -0.08676319
v -0.00589888 -0.02769019 -0.08763118
v -0.01663317 -0.02304503 -0.09005712
v -0.01147555 -0.02507180 -0.09132573
v -0.00515800 -0.02755983 -0.09233839
v -0.00015627 -0.02964552 -0.09134798
v -0.00004731 -0.02970944 -0.09005712
v -0.00004731 -0.02980344 -0.08777585
v -0.00004731 -0.02989620 -0.08550571
v -0.00004731 -0.02439747 -0.09774666
v -0.01717122 -0.01722543 -0.09848113
v -0.01717122 -0.01712891 -0.09692318
v -0.01717122 -0.02252487 -0.09233839
v -0.01634654 -0.02292721 -0.09233839
v -0.00346841 -0.02822540 -0.09233839
v -0.01611188 -0.02282944 -0.09368489
v -0.00976416 -0.02530619 -0.09460853
v -0.00485797 -0.02743574 -0.09387407
v -0.00004731 -0.02964552 -0.09134798
v -0.00339298 -0.02767640 -0.09461966
v -0.00119215 -0.02823542 -0.09460853
v -0.00004731 -0.02445763 -0.09860353
v -0.01717122 -0.01724924 -0.09849225
v -0.01717122 -0.02247598 -0.09263885
v -0.01717122 -0.02200470 -0.09450837
v -0.01571965 -0.02261010 -0.09520945
v -0.01491676 -0.02316661 -0.09450837
v -0.00940043 -0.02515453 -0.09624437
v -0.00808798 -0.02542276 -0.09695657
v -0.00004731 -0.02823542 -0.09460853
v -0.00888919 -0.02490635 -0.09776892
v -0.00737224 -0.02515453 -0.09815841
v -0.00258506 -0.02738310 -0.09584375
v -0.00119215 -0.02751596 -0.09608857
v -0.00004731 -0.02572483 -0.09860353
v -0.00119215 -0.02445763 -0.09860353
v -0.00119215 -0.02572483 -0.09860353
v -0.01029719 -0.02350002 -0.09847000
v -0.01700864 -0.01935749 -0.09843661
v -0.01717122 -0.01919454 -0.09843661
v -0.01717122 -0.02093804 -0.09664498
v -0.01491676 -0.02219772 -0.09696769
v -0.01420102 -0.02300868 -0.09626662
v -0.00004731 -0.02751596 -0.09608857
v -0.01199684 -0.02313027 -0.09835871
v -0.00574467 -0.02531747 -0.09832532
v -0.00119215 -0.02686419 -0.09723476
v -0.00004731 -0.02686419 -0.09723476
v -0.00346841 -0.02554434 -0.09852563
v -0.01485138 -0.02104082 -0.09841435
v -0.01717122 -0.01928103 -0.09842548
v -0.01700864 -0.02098317 -0.09674513
v -0.01351379 -0.02262012 -0.09778005
v -0.01717122 -0.02077510 -0.09691205
v -0.01616887 -0.02062093 -0.09815841
v -0.01717122 -0.02028501 -0.09766877
f 1 2 6
f 1 6 14
f 1 14 23
f 1 23 35
f 1 35 36
f 1 36 49
f 1 49 48
f 1 48 47
f 1 47 59
f 1 59 70
f 1 70 84
f 1 84 88
f 1 88 75
f 1 75 62
f 1 62 50
f 1 50 37
f 1 37 24
f 1 24 15
f 1 15 7
f 1 7 3
f 1 3 4
f 1 4 8
f 1 8 17
f 1 17 19
f 1 19 10
f 1 10 5
f 1 5 2
f 2 5 13
f 2 13 6
f 3 7 4
f 4 7 9
f 4 9 16
f 4 16 25
f 4 25 39
f 4 39 52
f 4 52 51
f 4 51 63
f 4 63 80
f 4 80 91
f 4 91 96
f 4 96 94
f 4 94 81
f 4 81 65
f 4 65 64
f 4 64 53
f 4 53 40
f 4 40 27
f 4 27 26
f 4 26 18
f 4 18 8
f 5 10 11
f 5 11 12
f 5 12 13
f 6 13 14
f 7 15 16
f 7 16 9
f 8 18 17
f 10 19 11
f 11 20 21
f 11 21 12
f 11 19 17
f 11 17 20
f 12 21 22
f 12 22 35
f 12 35 23
f 12 23 14
f 12 14 13
f 15 24 16
f 16 24 25
f 17 18 20
f 18 26 20
f 20 26 21
f 21 26 27
f 21 27 28
f 21 28 29
f 21 29 30
f 21 30 31
f 21 31 32
f 21 32 33
f 21 33 34
f 21 34 22
f 22 34 36
f 22 36 35
f 24 37 38
f 24 38 25
f 25 38 39
f 27 40 28
f 28 40 30
f 28 30 29
f 30 40 41
f 30 41 42
f 30 42 31
f 31 42 41
f 31 41 40
f 31 40 43
f 31 43 44
f 31 44 45
f 31 45 32
f 32 45 46
f 32 46 59
f 32 59 47
f 32 47 48
f 32 48 33
f 33 48 49
f 33 49 34
f 34 49 36
f 37 50 51
f 37 51 38
f 38 51 52
f 38 52 39
f 40 53 43
f 43 53 54
f 43 54 44
f 44 54 45
f 45 55 46
f 45 54 56
f 45 56 57
f 45 57 58
f 45 58 55
f 46 55 58
f 46 58 60
f 46 60 61
f 46 61 70
f 46 70 59
f 50 62 51
f 51 62 63
f 53 64 56
f 53 56 54
f 56 64 65
f 56 65 66
f 56 66 67
f 56 67 68
f 56 68 57
f 57 68 58
f 58 68 69
f 58 69 60
f 60 69 71
f 60 71 72
f 60 72 73
f 60 73 61
f 61 73 74
f 61 74 84
f 61 84 70
f 62 75 77
f 62 77 76
f 62 76 63
f 63 76 77
f 63 77 78
f 63 78 79
f 63 79 80
f 65 81 66
f 66 81 82
f 66 82 83
f 66 83 67
f 67 83 68
f 68 83 71
f 68 71 69
f 71 85 72
f 71 83 85
f 72 85 78
f 72 78 86
f 72 86 87
f 72 87 74
f 72 74 73
f 74 87 88
f 74 88 84
f 75 88 87
f 75 87 77
f 77 89 78
f 77 87 89
f 78 89 86
f 78 85 90
f 78 90 79
f 79 90 91
f 79 91 80
f 81 92 93
f 81 93 82
f 81 94 92
f 82 93 83
f 83 93 85
f 85 93 95
f 85 95 90
f 86 89 87
f 90 95 91
f 91 95 96
f 92 94 93
f 93 94 96
f 93 96 95

