# https://github.com/mikedh/trimesh
v 0.02984473 0.00081501 0.01695894
v 0.02733937 0.00698541 0.01836340
v 0.02972842 0.00049512 0.01923472
v 0.02984473 -0.00001330 0.01695894
v 0.02977136 0.00061919 0.01482242
v 0.02767223 0.00585180 0.01482242
v 0.02788518 0.00568516 0.01695894
v 0.02514360 0.01174123 0.01923472
v 0.02499686 0.01138363 0.02038852
v 0.02745927 0.00499916 0.02110468
v 0.02765254 0.00572895 0.01916708
v 0.02734295 0.00699514 0.01695894
v 0.02525992 0.01202098 0.01695894
v 0.02957272 0.00006089 0.02046810
v 0.02972842 -0.00001330 0.01923472
v 0.02758454 0.00302629 0.02379025
v 0.02738232 0.00253732 0.02536181
v 0.02769191 0.00122978 0.02609785
v 0.02977136 -0.00001330 0.01482242
v 0.02760781 0.00601114 0.01482242
v 0.02730000 0.00688932 0.01548685
v 0.02495928 0.01241264 0.01799737
v 0.02482327 0.01241264 0.01923472
v 0.02304805 0.01241264 0.02631270
v 0.02289414 0.01180204 0.02789221
v 0.02504697 0.01241264 0.01695894
v 0.02518834 0.01184462 0.01482242
v 0.02488949 0.01241264 0.01482242
v 0.02957272 -0.00001330 0.02046810
v 0.02741990 0.00040390 0.02834578
v 0.02727316 -0.00000236 0.02948764
v 0.02533687 0.00569611 0.02822244
v 0.02712642 -0.00001330 0.01482242
v 0.02243423 0.01241264 0.02841739
v 0.02177926 0.01241264 0.03062155
v 0.02264898 0.01133011 0.02940807
v 0.02328247 0.01043855 0.02852879
v 0.02267403 0.01241264 0.01482242
v 0.02727316 -0.00001330 0.02948764
v 0.02515971 0.00494564 0.02996508
v 0.02549614 0.00347632 0.03068123
v 0.02660208 0.00090624 0.03039875
v 0.01620483 0.00087826 0.05546808
v 0.02228391 0.01229587 0.01482242
v 0.01551585 -0.00001330 0.04434782
v 0.01156275 0.01241264 0.04142751
v 0.02092922 0.01241264 0.03245570
v 0.01159854 0.01164027 0.05546808
v 0.01230004 0.01023786 0.05546808
v 0.02273667 0.00914925 0.03179127
v 0.02295320 0.00967227 0.03062155
v 0.02224275 0.01241264 0.01483038
v 0.01620483 -0.00001330 0.05546808
v 0.02484475 0.00428153 0.03148094
v 0.01420948 0.00583112 0.05546808
v 0.01492530 -0.00001330 0.04655596
v 0.01156275 0.01047625 0.04418470
v 0.01156275 0.01241264 0.04934100
v 0.01156275 0.01165730 0.05546808
v 0.01370483 0.00704866 0.05546808
v 0.01391779 -0.00001330 0.05546808
v 0.01410390 -0.00001330 0.05109557
v 0.01156275 0.00928061 0.04655596
v 0.01156275 0.01036922 0.04439556
v 0.01156275 0.00578612 0.05546808
v 0.01328787 0.00146574 0.05546808
v 0.01393926 -0.00001330 0.05492301
v 0.01156275 0.00824430 0.04864474
v 0.01400369 -0.00001330 0.05338726
v 0.01156275 0.00587734 0.05504635
v 0.01156275 0.00591018 0.05491903
v 0.01156275 0.00622035 0.05372544
f 1 2 3
f 1 3 15
f 1 15 4
f 1 4 19
f 1 19 5
f 1 5 6
f 1 6 7
f 1 7 2
f 2 8 9
f 2 9 10
f 2 10 11
f 2 11 3
f 2 7 12
f 2 12 13
f 2 13 8
f 3 14 29
f 3 29 15
f 3 11 16
f 3 16 17
f 3 17 18
f 3 18 14
f 4 15 29
f 4 29 39
f 4 39 53
f 4 53 61
f 4 61 67
f 4 67 69
f 4 69 62
f 4 62 56
f 4 56 45
f 4 45 33
f 4 33 19
f 5 19 33
f 5 33 44
f 5 44 38
f 5 38 28
f 5 28 27
f 5 27 20
f 5 20 6
f 6 20 21
f 6 21 7
f 7 21 12
f 8 13 22
f 8 22 23
f 8 23 24
f 8 24 9
f 9 24 10
f 10 16 11
f 10 24 25
f 10 25 17
f 10 17 16
f 12 21 13
f 13 26 22
f 13 21 27
f 13 27 28
f 13 28 26
f 14 18 30
f 14 30 31
f 14 31 39
f 14 39 29
f 17 25 32
f 17 32 31
f 17 31 30
f 17 30 18
f 20 27 21
f 22 26 28
f 22 28 38
f 22 38 52
f 22 52 46
f 22 46 58
f 22 58 47
f 22 47 35
f 22 35 34
f 22 34 24
f 22 24 23
f 24 34 25
f 25 34 35
f 25 35 36
f 25 36 37
f 25 37 32
f 31 32 40
f 31 40 41
f 31 41 42
f 31 42 43
f 31 43 53
f 31 53 39
f 32 37 40
f 33 45 46
f 33 46 44
f 35 47 48
f 35 48 49
f 35 49 50
f 35 50 51
f 35 51 36
f 36 40 37
f 36 51 40
f 38 44 52
f 40 51 50
f 40 50 41
f 41 50 54
f 41 54 43
f 41 43 42
f 43 55 60
f 43 60 49
f 43 49 48
f 43 48 59
f 43 59 65
f 43 65 66
f 43 66 61
f 43 61 53
f 43 54 55
f 44 46 52
f 45 56 57
f 45 57 46
f 46 57 64
f 46 64 63
f 46 63 68
f 46 68 72
f 46 72 71
f 46 71 70
f 46 70 65
f 46 65 59
f 46 59 58
f 47 58 59
f 47 59 48
f 49 60 50
f 50 60 55
f 50 55 54
f 56 62 63
f 56 63 64
f 56 64 57
f 61 66 67
f 62 68 63
f 62 69 66
f 62 66 65
f 62 65 70
f 62 70 71
f 62 71 72
f 62 72 68
f 66 69 67

