# https://github.com/mikedh/trimesh
v 0.02282539 -0.00001231 0.05834564
v 0.02267178 -0.00001231 0.05951101
v 0.02282539 -0.00059818 0.05834564
v 0.02248125 -0.00001231 0.05759506
v 0.02267178 -0.00059818 0.05951101
v 0.01552594 -0.00001231 0.10790859
v 0.02264077 -0.00292757 0.05834564
v 0.02228185 -0.00525580 0.05750617
v 0.02235275 -0.00409110 0.05746173
v 0.02239410 -0.00292757 0.05747161
v 0.02248125 -0.00059818 0.05759506
v 0.02193475 -0.00001231 0.05759506
v 0.01552594 -0.00059818 0.10790859
v 0.01439454 -0.00001231 0.10790859
v 0.02252408 -0.00409110 0.05834564
v 0.02218289 -0.00616975 0.05760987
v 0.02108694 -0.00874755 0.05756543
v 0.01998951 -0.01107577 0.05753086
v 0.02173092 -0.00409110 0.05746173
v 0.02178114 -0.00292757 0.05747161
v 0.01838398 -0.01198269 0.05763456
v 0.01801620 -0.01198269 0.05833082
v 0.02167184 -0.00001231 0.05834564
v 0.01544027 -0.00126489 0.10790859
v 0.02237638 -0.00525580 0.05834564
v 0.00773758 -0.01198269 0.10790859
v 0.01441374 -0.00001231 0.10607658
v 0.02094367 -0.00943887 0.05769875
v 0.02218141 -0.00616272 0.05834564
v 0.02094367 -0.00943887 0.05796047
v 0.01983294 -0.01180107 0.05764444
v 0.01953163 -0.01198269 0.05759999
v 0.01915351 -0.01198269 0.05754568
v 0.01914908 -0.01115076 0.05754074
v 0.01791872 -0.01198269 0.05865180
v 0.02059656 -0.00001231 0.06300219
v 0.01767058 -0.01198269 0.05951101
v 0.01432364 -0.01198269 0.07115487
v 0.01429114 -0.01198269 0.07126845
v 0.01363978 -0.01198269 0.07360907
v 0.00920575 -0.01198269 0.09093660
v 0.01522462 -0.00292757 0.10790859
v 0.01516702 -0.00331073 0.10790859
v 0.01511237 -0.00364116 0.10790859
v 0.00821023 -0.01198269 0.10143977
v 0.00985121 -0.01198269 0.10790859
v 0.01443294 -0.00001231 0.10491121
v 0.01449202 -0.00001231 0.10258046
v 0.01453338 -0.00001231 0.10142002
v 0.01477413 -0.00001231 0.09618078
v 0.01490854 -0.00001231 0.09326734
v 0.01499273 -0.00001231 0.09202296
v 0.01410947 -0.00639706 0.10790859
v 0.02012982 -0.01107577 0.05834564
v 0.01981079 -0.01176944 0.05834564
v 0.01965127 -0.01198269 0.05834564
v 0.01845635 -0.00001231 0.07228074
v 0.00911417 -0.01198269 0.09143040
v 0.01819640 -0.00001231 0.07348068
v 0.01832195 -0.00001231 0.07289799
v 0.00874935 -0.01198269 0.09443272
v 0.01001811 -0.01185146 0.10790859
v 0.01573420 -0.00001231 0.08744541
v 0.00899010 -0.01198269 0.09210691
v 0.00885421 -0.01198269 0.09325253
v 0.00884388 -0.01198269 0.09335623
v 0.01397654 -0.00666539 0.10790859
v 0.01353343 -0.00753833 0.10790859
v 0.01324836 -0.00807966 0.10790859
v 0.01300613 -0.00850031 0.10790859
v 0.01222479 -0.00951737 0.10790859
v 0.01197517 -0.00984077 0.10790859
v 0.01177872 -0.01008918 0.10790859
v 0.01150991 -0.01042312 0.10790859
v 0.01035044 -0.01158196 0.10790859
v 0.01734268 -0.00001231 0.07817180
v 0.01583168 -0.00001231 0.08686767
v 0.01593064 -0.00001231 0.08628498
f 1 2 5
f 1 5 3
f 1 3 11
f 1 11 4
f 1 4 12
f 1 12 23
f 1 23 36
f 1 36 57
f 1 57 60
f 1 60 59
f 1 59 76
f 1 76 78
f 1 78 77
f 1 77 63
f 1 63 52
f 1 52 51
f 1 51 50
f 1 50 49
f 1 49 48
f 1 48 47
f 1 47 27
f 1 27 14
f 1 14 6
f 1 6 2
f 2 6 13
f 2 13 5
f 3 5 7
f 3 7 8
f 3 8 9
f 3 9 10
f 3 10 11
f 4 11 10
f 4 10 20
f 4 20 12
f 5 13 7
f 6 14 26
f 6 26 46
f 6 46 62
f 6 62 75
f 6 75 74
f 6 74 73
f 6 73 72
f 6 72 71
f 6 71 70
f 6 70 69
f 6 69 68
f 6 68 67
f 6 67 53
f 6 53 44
f 6 44 43
f 6 43 42
f 6 42 24
f 6 24 13
f 7 15 8
f 7 13 15
f 8 15 16
f 8 16 17
f 8 17 18
f 8 18 9
f 9 18 19
f 9 19 20
f 9 20 10
f 12 20 21
f 12 21 22
f 12 22 23
f 13 24 25
f 13 25 15
f 14 27 26
f 15 25 16
f 16 28 17
f 16 25 29
f 16 29 30
f 16 30 28
f 17 28 31
f 17 31 18
f 18 31 32
f 18 32 33
f 18 33 19
f 19 34 20
f 19 33 34
f 20 34 21
f 21 34 33
f 21 33 32
f 21 32 56
f 21 56 46
f 21 46 26
f 21 26 45
f 21 45 61
f 21 61 66
f 21 66 65
f 21 65 64
f 21 64 58
f 21 58 41
f 21 41 40
f 21 40 39
f 21 39 38
f 21 38 37
f 21 37 35
f 21 35 22
f 22 35 23
f 23 35 37
f 23 37 38
f 23 38 39
f 23 39 40
f 23 40 41
f 23 41 36
f 24 42 25
f 25 42 43
f 25 43 44
f 25 44 29
f 26 27 47
f 26 47 48
f 26 48 49
f 26 49 50
f 26 50 51
f 26 51 52
f 26 52 45
f 28 30 31
f 29 44 53
f 29 53 30
f 30 54 55
f 30 55 31
f 30 53 54
f 31 55 56
f 31 56 32
f 36 41 57
f 41 58 59
f 41 59 60
f 41 60 57
f 45 52 61
f 46 56 62
f 52 63 64
f 52 64 65
f 52 65 66
f 52 66 61
f 53 67 55
f 53 55 54
f 55 67 68
f 55 68 69
f 55 69 70
f 55 70 56
f 56 70 71
f 56 71 72
f 56 72 73
f 56 73 74
f 56 74 75
f 56 75 62
f 58 64 59
f 59 64 76
f 63 77 64
f 64 77 78
f 64 78 76

