# https://github.com/mikedh/trimesh
v -0.01097280 -0.02026243 0.05834564
v -0.01111808 -0.02020296 0.05834564
v -0.01184330 -0.01990563 0.05764444
v -0.01097280 -0.02013755 0.05762468
v -0.01097280 -0.01106900 0.10790859
v -0.01181167 -0.01988383 0.05834564
v -0.01239395 -0.01944576 0.05834564
v -0.01643949 -0.01639516 0.05806417
v -0.01643949 -0.01639516 0.05766913
v -0.01312503 -0.01884317 0.05758024
v -0.01111808 -0.02006222 0.05753086
v -0.01097280 -0.02010385 0.05753580
v -0.01097280 -0.00919583 0.10790859
v -0.01162421 -0.01042281 0.10790859
v -0.01948799 -0.01235148 0.05834564
v -0.01994726 -0.01180043 0.05764444
v -0.01209051 -0.00984202 0.10790859
v -0.01286611 -0.00883507 0.10790859
v -0.01888462 -0.01308291 0.05758024
v -0.01779855 -0.01436341 0.05756049
v -0.01669724 -0.01573311 0.05757530
v -0.01577519 -0.01665285 0.05757530
v -0.01440559 -0.01775693 0.05756049
v -0.01119306 -0.01922177 0.05754074
v -0.01579042 -0.01574698 0.05751605
v -0.02246855 -0.00409167 0.05746173
v -0.02184643 -0.00409167 0.05746173
v -0.02189563 -0.00292812 0.05747161
v -0.01097280 -0.01929511 0.05755061
v -0.01451338 -0.00001231 0.10757280
v -0.01450986 -0.00001231 0.10790859
v -0.01097280 -0.00923547 0.10724195
v -0.01454735 -0.00001231 0.10491121
v -0.01452978 -0.00001231 0.10607658
v -0.01992617 -0.01176872 0.05834564
v -0.01312152 -0.00850206 0.10790859
v -0.02105794 -0.00943964 0.05796047
v -0.02105794 -0.00943964 0.05769875
v -0.02120205 -0.00874785 0.05756543
v -0.02010425 -0.01107495 0.05753086
v -0.02250838 -0.00292812 0.05747161
v -0.02239708 -0.00525522 0.05750617
v -0.02294070 -0.00059904 0.05834564
v -0.02204911 -0.00001231 0.05759506
v -0.01097280 -0.01885308 0.05827651
v -0.01564280 -0.00001231 0.10790859
v -0.01097280 -0.00926719 0.10676790
v -0.01457664 -0.00001231 0.10374583
v -0.02024485 -0.01107495 0.05834564
v -0.01364756 -0.00753871 0.10790859
v -0.01422399 -0.00639895 0.10790859
v -0.02229632 -0.00616505 0.05834564
v -0.02229866 -0.00617100 0.05760987
v -0.02259742 -0.00059904 0.05759506
v -0.02259742 -0.00001231 0.05759506
v -0.02263843 -0.00409167 0.05834564
v -0.02275559 -0.00292812 0.05834564
v -0.02278605 -0.00059904 0.05951101
v -0.02286338 -0.00001231 0.05893326
v -0.02294070 -0.00001231 0.05834564
v -0.02178667 -0.00001231 0.05834564
v -0.01097280 -0.01882930 0.05834564
v -0.02082127 -0.00001231 0.06252814
v -0.01857180 -0.00001231 0.07228074
v -0.01843941 -0.00001231 0.07288812
v -0.01831054 -0.00001231 0.07348068
v -0.02278605 -0.00001231 0.05951101
v -0.01564280 -0.00059904 0.10790859
v -0.01097280 -0.00931476 0.10607658
v -0.01460710 -0.00001231 0.10258046
v -0.01522805 -0.00364171 0.10790859
v -0.02249081 -0.00525522 0.05834564
v -0.01097280 -0.01844673 0.05960977
v -0.01745761 -0.00001231 0.07817180
v -0.01604700 -0.00001231 0.08628498
v -0.01585134 -0.00001231 0.08744541
v -0.01510855 -0.00001231 0.09202296
v -0.01549284 -0.00176259 0.10790859
v -0.01097280 -0.00950108 0.10346437
v -0.01462819 -0.00001231 0.10199777
v -0.01097280 -0.00956452 0.10258046
v -0.01097280 -0.00973498 0.10025465
v -0.01097280 -0.00982418 0.09905965
v -0.01097280 -0.00990942 0.09792390
v -0.01097280 -0.01037523 0.09210691
v -0.01533936 -0.00292812 0.10790859
v -0.01542723 -0.00226211 0.10790859
v -0.01097280 -0.01486689 0.07235481
v -0.01506989 -0.00001231 0.09258096
v -0.01097280 -0.01056156 0.09094153
v -0.01097280 -0.01427818 0.07460655
v -0.01097280 -0.01455767 0.07348562
v -0.01097280 -0.01461713 0.07325847
v -0.01464928 -0.00001231 0.10142002
v -0.01502419 -0.00001231 0.09326734
v -0.01499725 -0.00001231 0.09384509
v -0.01488946 -0.00001231 0.09617584
v -0.01472895 -0.00001231 0.09966702
v -0.01470200 -0.00001231 0.10025465
f 1 2 3
f 1 3 4
f 1 4 12
f 1 12 29
f 1 29 45
f 1 45 62
f 1 62 73
f 1 73 88
f 1 88 93
f 1 93 92
f 1 92 91
f 1 91 90
f 1 90 85
f 1 85 84
f 1 84 83
f 1 83 82
f 1 82 81
f 1 81 79
f 1 79 69
f 1 69 47
f 1 47 32
f 1 32 13
f 1 13 5
f 1 5 2
f 2 6 3
f 2 5 6
f 3 6 7
f 3 7 8
f 3 8 9
f 3 9 10
f 3 10 11
f 3 11 4
f 4 11 12
f 5 13 31
f 5 31 46
f 5 46 68
f 5 68 78
f 5 78 87
f 5 87 86
f 5 86 71
f 5 71 51
f 5 51 50
f 5 50 36
f 5 36 18
f 5 18 17
f 5 17 14
f 5 14 8
f 5 8 7
f 5 7 6
f 8 15 16
f 8 16 9
f 8 14 17
f 8 17 18
f 8 18 15
f 9 16 19
f 9 19 20
f 9 20 21
f 9 21 22
f 9 22 23
f 9 23 10
f 10 23 11
f 11 24 12
f 11 23 25
f 11 25 26
f 11 26 27
f 11 27 28
f 11 28 24
f 12 24 29
f 13 30 31
f 13 32 33
f 13 33 34
f 13 34 30
f 15 35 16
f 15 18 36
f 15 36 35
f 16 35 37
f 16 37 38
f 16 38 39
f 16 39 40
f 16 40 19
f 19 40 20
f 20 40 25
f 20 25 21
f 21 25 22
f 22 25 23
f 24 28 29
f 25 40 26
f 26 41 28
f 26 28 27
f 26 40 42
f 26 42 43
f 26 43 41
f 28 41 55
f 28 55 44
f 28 44 29
f 29 44 45
f 30 34 33
f 30 33 48
f 30 48 70
f 30 70 80
f 30 80 94
f 30 94 99
f 30 99 98
f 30 98 97
f 30 97 96
f 30 96 95
f 30 95 89
f 30 89 77
f 30 77 76
f 30 76 75
f 30 75 74
f 30 74 66
f 30 66 65
f 30 65 64
f 30 64 63
f 30 63 61
f 30 61 44
f 30 44 55
f 30 55 60
f 30 60 59
f 30 59 67
f 30 67 46
f 30 46 31
f 32 47 48
f 32 48 33
f 35 49 37
f 35 36 50
f 35 50 51
f 35 51 49
f 37 52 53
f 37 53 38
f 37 49 51
f 37 51 52
f 38 53 39
f 39 42 40
f 39 53 42
f 41 54 55
f 41 43 54
f 42 53 56
f 42 56 57
f 42 57 43
f 43 57 58
f 43 58 59
f 43 59 60
f 43 60 55
f 43 55 54
f 44 61 45
f 45 61 63
f 45 63 64
f 45 64 65
f 45 65 66
f 45 66 62
f 46 67 58
f 46 58 68
f 47 69 70
f 47 70 48
f 51 71 52
f 52 72 53
f 52 71 72
f 53 72 56
f 56 72 68
f 56 68 57
f 57 68 58
f 58 67 59
f 62 66 74
f 62 74 75
f 62 75 76
f 62 76 77
f 62 77 73
f 68 72 78
f 69 79 70
f 70 79 81
f 70 81 82
f 70 82 83
f 70 83 84
f 70 84 85
f 70 85 80
f 71 86 72
f 72 86 87
f 72 87 78
f 73 77 88
f 77 89 90
f 77 90 91
f 77 91 92
f 77 92 93
f 77 93 88
f 80 85 94
f 85 95 96
f 85 96 97
f 85 97 98
f 85 98 99
f 85 99 94
f 85 90 95
f 89 95 90

