# https://github.com/mikedh/trimesh
v 0.01790006 -0.05814107 -0.02731006
v 0.01773584 -0.05814107 -0.01844898
v 0.01664234 -0.08217176 0.00883924
v 0.01691872 -0.08354700 -0.02179531
v 0.01662632 -0.08324360 -0.03394919
v 0.01756360 -0.05814107 -0.04036522
v 0.01752355 -0.05814107 -0.00788349
v 0.01617771 -0.08153263 0.02921171
v 0.01654220 -0.08294269 -0.00059295
v 0.00830692 -0.08291285 0.03106781
v 0.00292755 -0.08338784 0.01027593
v -0.01250559 -0.08297751 -0.01757447
v -0.01707986 -0.08237817 -0.04407742
v 0.00647241 -0.08267162 -0.04429158
v 0.01518034 -0.07699159 -0.04528210
v 0.01702687 -0.06364204 -0.04501439
v 0.01738336 -0.05814107 -0.04432728
v 0.01605754 -0.05814107 0.04407835
v 0.01510023 -0.08126156 0.04265950
v -0.00026883 -0.08218171 0.04311460
v -0.01699575 -0.08150528 0.04421219
v -0.01768469 -0.08239309 0.00807181
v -0.01969945 -0.08221404 -0.02645340
v -0.02144584 -0.08146797 -0.04507685
v 0.00417726 -0.07984404 -0.04576397
v 0.00119718 -0.05814107 -0.04592459
v 0.01666637 -0.05814107 -0.04511255
v -0.01697171 -0.05814107 0.04447098
v -0.01700376 -0.06050111 0.04457806
v 0.01455949 -0.07727261 0.04469407
v 0.01540865 -0.06801645 0.04427466
v 0.00138944 -0.07893882 0.04481900
v -0.02280771 -0.07873987 0.04341800
v -0.02302000 -0.08102033 0.03469077
v -0.02179432 -0.08097308 -0.03205739
v -0.02020014 -0.05814107 -0.04023137
v -0.02023218 -0.06177439 -0.04456821
v -0.01993978 -0.05814107 -0.04537133
v -0.01817736 -0.05814107 -0.04612983
v -0.01635086 -0.06129443 -0.04634400
v -0.01422395 -0.05814107 -0.04629938
v -0.01920277 -0.05814107 0.04395341
v -0.02082499 -0.05814107 0.04352508
v -0.02082499 -0.05814107 0.04296290
v -0.02066878 -0.05814107 0.00166471
v -0.02261144 -0.07838176 0.01164123
v -0.02238713 -0.08037126 -0.00375189
f 1 2 3
f 1 3 4
f 1 4 5
f 1 5 6
f 1 6 17
f 1 17 27
f 1 27 26
f 1 26 41
f 1 41 39
f 1 39 38
f 1 38 36
f 1 36 45
f 1 45 44
f 1 44 43
f 1 43 42
f 1 42 28
f 1 28 18
f 1 18 7
f 1 7 2
f 2 7 3
f 3 8 9
f 3 9 4
f 3 7 8
f 4 9 10
f 4 10 11
f 4 11 12
f 4 12 13
f 4 13 5
f 5 13 14
f 5 14 15
f 5 15 16
f 5 16 17
f 5 17 6
f 7 18 8
f 8 19 9
f 8 18 19
f 9 19 10
f 10 19 20
f 10 20 21
f 10 21 11
f 11 21 22
f 11 22 12
f 12 23 13
f 12 22 23
f 13 24 14
f 13 23 24
f 14 24 25
f 14 25 15
f 15 25 26
f 15 26 27
f 15 27 16
f 16 27 17
f 18 28 29
f 18 29 30
f 18 30 31
f 18 31 19
f 19 31 30
f 19 30 32
f 19 32 20
f 20 32 21
f 21 32 29
f 21 29 33
f 21 33 34
f 21 34 22
f 22 34 23
f 23 34 24
f 24 35 36
f 24 36 37
f 24 37 38
f 24 38 39
f 24 39 40
f 24 40 25
f 24 34 35
f 25 40 26
f 26 40 41
f 28 42 29
f 29 42 33
f 29 32 30
f 33 42 43
f 33 43 44
f 33 44 34
f 34 44 45
f 34 45 46
f 34 46 47
f 34 47 35
f 35 47 46
f 35 46 36
f 36 38 37
f 36 46 45
f 39 41 40

