# https://github.com/mikedh/trimesh
v -0.07053174 -0.02095083 -0.01820778
v -0.07130381 -0.02101150 -0.01820778
v -0.07053174 -0.02878644 -0.01820778
v -0.07053174 -0.03769926 -0.02544839
v -0.07300605 -0.02118038 -0.01820778
v -0.07158990 -0.02983742 -0.01820778
v -0.07053174 -0.03769926 -0.02298122
v -0.07059875 -0.03769926 -0.02541649
v -0.07393208 -0.02234285 -0.01840269
v -0.07404463 -0.02219200 -0.01820778
v -0.07295749 -0.03033749 -0.01820778
v -0.07437740 -0.03341501 -0.01941904
v -0.07136969 -0.03769926 -0.02263039
v -0.07076927 -0.03769926 -0.02533003
v -0.07128913 -0.03769926 -0.02505574
v -0.07161174 -0.03769926 -0.02488280
v -0.07215154 -0.03769926 -0.02452134
v -0.07437740 -0.03518412 -0.02195141
v -0.07417601 -0.02282489 -0.01820778
v -0.07437740 -0.03079166 -0.01820778
v -0.07437740 -0.03438236 -0.02014622
v -0.07185868 -0.03769926 -0.02263961
v -0.07254529 -0.03769926 -0.02407199
v -0.07254906 -0.03769926 -0.02334765
v -0.07437740 -0.03517757 -0.02106972
v -0.07437740 -0.02477928 -0.01820778
v -0.07436272 -0.02440873 -0.01820778
v -0.07254492 -0.03769926 -0.02282955
f 1 2 5
f 1 5 10
f 1 10 19
f 1 19 27
f 1 27 26
f 1 26 20
f 1 20 11
f 1 11 6
f 1 6 3
f 1 3 7
f 1 7 4
f 1 4 2
f 2 4 5
f 3 6 7
f 4 7 13
f 4 13 22
f 4 22 28
f 4 28 24
f 4 24 23
f 4 23 17
f 4 17 16
f 4 16 15
f 4 15 14
f 4 14 8
f 4 8 9
f 4 9 5
f 5 9 10
f 6 11 12
f 6 12 13
f 6 13 7
f 8 14 9
f 9 14 15
f 9 15 16
f 9 16 17
f 9 17 18
f 9 18 10
f 10 18 19
f 11 20 12
f 12 20 26
f 12 26 18
f 12 18 25
f 12 25 21
f 12 21 13
f 13 21 22
f 17 23 18
f 18 23 24
f 18 24 25
f 18 26 27
f 18 27 19
f 21 25 28
f 21 28 22
f 24 28 25

