# https://github.com/mikedh/trimesh
v -0.04749979 -0.03868747 0.02335183
v -0.04750339 -0.03868747 0.02332157
v -0.04820417 -0.03315518 0.02214156
v -0.04816635 -0.03315518 0.02300504
v -0.04770156 -0.03701506 0.02335183
v -0.04829065 -0.03315518 0.02428979
v -0.04787811 -0.03868747 0.02505785
v -0.04770516 -0.03868747 0.02165280
v -0.04787630 -0.03701506 0.02165280
v -0.04825101 -0.03315518 0.02196933
v -0.04817535 -0.03315518 0.02335183
v -0.04809788 -0.03708275 0.02513931
v -0.04842576 -0.03315518 0.02469710
v -0.04992640 -0.03868747 0.03127446
v -0.04771057 -0.03868747 0.02163185
v -0.04858790 -0.03315518 0.02086845
v -0.04823300 -0.03701506 0.02053330
v -0.04941658 -0.03315518 0.01824774
v -0.04894099 -0.03315518 0.02620761
v -0.04999487 -0.03767579 0.03109292
v -0.05022546 -0.03868747 0.03211466
v -0.04816815 -0.03868747 0.02044485
v -0.04973545 -0.03531286 0.01665577
v -0.04851584 -0.03701506 0.01968145
v -0.05026329 -0.03315518 0.01567592
v -0.04985795 -0.03315518 0.01689783
v -0.04962375 -0.03315518 0.02812542
v -0.04986695 -0.03531286 0.02974067
v -0.05007953 -0.03654063 0.03086483
v -0.04906709 -0.03361011 0.02675689
v -0.05023807 -0.03868747 0.03213794
v -0.05402661 -0.03868747 0.01077432
v -0.05155856 -0.03315518 0.01224061
v -0.05007593 -0.03531286 0.01580392
v -0.05069745 -0.03315518 0.01438651
v -0.04974806 -0.03315518 0.02844894
v -0.04996063 -0.03409971 0.02946603
v -0.04972104 -0.03356354 0.02857462
v -0.05027589 -0.03531286 0.03059251
v -0.05110458 -0.03868747 0.03358794
v -0.04996604 -0.03315518 0.02901451
v -0.05562814 -0.03868747 0.01077432
v -0.05272233 -0.03315518 0.01077432
v -0.05175672 -0.03315518 0.01195899
v -0.05113161 -0.03868747 0.03362750
v -0.05029571 -0.03315518 0.02951723
v -0.06206129 -0.03455301 0.01077432
v -0.06406996 -0.03868747 0.01870392
v -0.06392403 -0.03315518 0.01077432
v -0.05141625 -0.03701506 0.03304332
v -0.05217467 -0.03818217 0.03426290
v -0.05121808 -0.03868747 0.03369966
v -0.05069204 -0.03315518 0.02984773
v -0.05143966 -0.03415495 0.03122325
v -0.05168827 -0.03612632 0.03274307
v -0.06235313 -0.03433421 0.01077432
v -0.06489685 -0.03868747 0.01952551
v -0.06590208 -0.03868747 0.02054261
v -0.06590208 -0.03315518 0.01587840
v -0.06335476 -0.03358304 0.01077432
v -0.05330962 -0.03776786 0.03444909
v -0.05263045 -0.03868747 0.03451426
v -0.05257641 -0.03572338 0.03301538
v -0.05458147 -0.03396648 0.03305262
v -0.05599925 -0.03315518 0.03327140
v -0.05585874 -0.03348338 0.03337847
v -0.05089921 -0.03315518 0.03001996
v -0.05169908 -0.03315518 0.03066467
v -0.05214585 -0.03315518 0.03101145
v -0.06590208 -0.03868747 0.02790199
v -0.06590208 -0.03315518 0.02724332
v -0.05427882 -0.03767200 0.03445142
v -0.05270792 -0.03868747 0.03453288
v -0.05598124 -0.03531286 0.03411394
v -0.05257821 -0.03315518 0.03127678
v -0.05344653 -0.03447881 0.03270584
v -0.05466795 -0.03315518 0.03255688
v -0.05720085 -0.03315518 0.03353673
v -0.05768185 -0.03361011 0.03383232
v -0.06589847 -0.03868747 0.02791363
v -0.06590208 -0.03761188 0.02786475
v -0.06590208 -0.03619022 0.02769717
v -0.06534722 -0.03614690 0.02931475
v -0.06581561 -0.03315518 0.02746908
v -0.05427882 -0.03868747 0.03454917
v -0.05605510 -0.03708871 0.03436763
v -0.05768185 -0.03531286 0.03410230
v -0.05768185 -0.03315518 0.03364147
v -0.05929599 -0.03315518 0.03312710
v -0.05947614 -0.03367510 0.03317598
v -0.05938426 -0.03531286 0.03351579
v -0.06537965 -0.03868747 0.02938690
v -0.06536163 -0.03701506 0.02934268
v -0.06470048 -0.03868747 0.03023874
v -0.06385017 -0.03868747 0.03117670
v -0.06457077 -0.03547317 0.02978023
v -0.06412220 -0.03361011 0.02967783
v -0.06404654 -0.03315518 0.02961964
v -0.06489685 -0.03315518 0.02888650
v -0.06559762 -0.03315518 0.02803698
v -0.05553807 -0.03770558 0.03443280
v -0.05605510 -0.03858511 0.03448633
v -0.05605149 -0.03868747 0.03449331
v -0.05667301 -0.03792871 0.03441418
v -0.05790884 -0.03868747 0.03438625
v -0.05938426 -0.03701506 0.03373690
v -0.06010486 -0.03315518 0.03261739
v -0.06029402 -0.03428601 0.03276169
v -0.06046696 -0.03531286 0.03287574
v -0.06073178 -0.03701506 0.03301306
v -0.06383756 -0.03868747 0.03118601
v -0.06158209 -0.03701506 0.03246145
v -0.06369164 -0.03771695 0.03105335
v -0.06253688 -0.03315518 0.03076940
v -0.05616499 -0.03868747 0.03448866
v -0.05714320 -0.03868747 0.03444444
v -0.05938426 -0.03868747 0.03390214
v -0.06096237 -0.03868747 0.03309685
v -0.06181268 -0.03868747 0.03263834
v -0.06179827 -0.03868747 0.03264765
v -0.06276748 -0.03868747 0.03196571
f 1 2 3
f 1 3 4
f 1 4 5
f 1 5 6
f 1 6 7
f 1 7 14
f 1 14 21
f 1 21 31
f 1 31 40
f 1 40 45
f 1 45 52
f 1 52 62
f 1 62 73
f 1 73 85
f 1 85 103
f 1 103 115
f 1 115 116
f 1 116 105
f 1 105 117
f 1 117 118
f 1 118 120
f 1 120 119
f 1 119 121
f 1 121 111
f 1 111 95
f 1 95 94
f 1 94 92
f 1 92 80
f 1 80 70
f 1 70 58
f 1 58 57
f 1 57 48
f 1 48 42
f 1 42 32
f 1 32 22
f 1 22 15
f 1 15 8
f 1 8 2
f 2 8 3
f 3 8 9
f 3 9 10
f 3 10 16
f 3 16 18
f 3 18 26
f 3 26 25
f 3 25 35
f 3 35 33
f 3 33 44
f 3 44 43
f 3 43 49
f 3 49 59
f 3 59 71
f 3 71 84
f 3 84 100
f 3 100 99
f 3 99 98
f 3 98 114
f 3 114 107
f 3 107 89
f 3 89 88
f 3 88 78
f 3 78 65
f 3 65 77
f 3 77 75
f 3 75 69
f 3 69 68
f 3 68 67
f 3 67 53
f 3 53 46
f 3 46 41
f 3 41 36
f 3 36 27
f 3 27 19
f 3 19 13
f 3 13 6
f 3 6 11
f 3 11 4
f 4 11 5
f 5 11 6
f 6 12 7
f 6 13 14
f 6 14 12
f 7 12 14
f 8 15 9
f 9 16 10
f 9 15 17
f 9 17 18
f 9 18 16
f 13 19 20
f 13 20 14
f 14 20 21
f 15 22 23
f 15 23 24
f 15 24 17
f 17 24 25
f 17 25 26
f 17 26 18
f 19 27 28
f 19 28 29
f 19 29 30
f 19 30 20
f 20 29 21
f 20 30 29
f 21 29 31
f 22 32 33
f 22 33 34
f 22 34 23
f 23 34 35
f 23 35 24
f 24 35 25
f 27 36 37
f 27 37 38
f 27 38 28
f 28 38 29
f 29 39 40
f 29 40 31
f 29 38 37
f 29 37 41
f 29 41 39
f 32 42 47
f 32 47 56
f 32 56 60
f 32 60 49
f 32 49 43
f 32 43 44
f 32 44 33
f 33 35 34
f 36 41 37
f 39 41 40
f 40 41 46
f 40 46 45
f 42 48 47
f 45 50 51
f 45 51 52
f 45 46 50
f 46 53 54
f 46 54 55
f 46 55 50
f 47 48 57
f 47 57 58
f 47 58 56
f 49 60 58
f 49 58 59
f 50 55 51
f 51 61 62
f 51 62 52
f 51 55 63
f 51 63 64
f 51 64 65
f 51 65 66
f 51 66 61
f 53 67 54
f 54 68 69
f 54 69 55
f 54 67 68
f 55 69 63
f 56 58 60
f 58 70 81
f 58 81 82
f 58 82 71
f 58 71 59
f 61 72 73
f 61 73 62
f 61 66 74
f 61 74 72
f 63 69 75
f 63 75 76
f 63 76 64
f 64 76 77
f 64 77 65
f 65 78 66
f 66 78 79
f 66 79 74
f 70 80 81
f 71 82 83
f 71 83 84
f 72 85 73
f 72 74 86
f 72 86 85
f 74 87 86
f 74 79 87
f 75 77 76
f 78 88 79
f 79 88 89
f 79 89 90
f 79 90 91
f 79 91 87
f 80 92 81
f 81 92 93
f 81 93 83
f 81 83 82
f 83 93 94
f 83 94 95
f 83 95 96
f 83 96 97
f 83 97 98
f 83 98 99
f 83 99 100
f 83 100 84
f 85 86 101
f 85 101 102
f 85 102 103
f 86 104 102
f 86 102 101
f 86 87 104
f 87 105 104
f 87 91 106
f 87 106 105
f 89 107 90
f 90 107 108
f 90 108 109
f 90 109 91
f 91 109 110
f 91 110 106
f 92 94 93
f 95 111 112
f 95 112 108
f 95 108 113
f 95 113 97
f 95 97 96
f 97 113 98
f 98 113 114
f 102 115 103
f 102 104 115
f 104 105 116
f 104 116 115
f 105 106 117
f 106 110 118
f 106 118 117
f 107 114 108
f 108 114 113
f 108 112 109
f 109 112 119
f 109 119 120
f 109 120 110
f 110 120 118
f 111 121 112
f 112 121 119

