# https://github.com/mikedh/trimesh
v -0.07130378 -0.07458918 -0.00218401
v -0.07092557 -0.07439420 -0.00218401
v -0.07092557 -0.07427865 -0.00152784
v -0.07092557 -0.07368647 0.00077301
v -0.07212576 -0.07362509 0.00209387
v -0.07216207 -0.07362509 0.00209387
v -0.07222547 -0.07372258 0.00122040
v -0.07228507 -0.07414866 -0.00218401
v -0.07227965 -0.07406922 -0.00388409
v -0.07119758 -0.07421366 -0.00399487
v -0.07092557 -0.07414866 -0.00384148
v -0.07092557 -0.07337594 0.00165075
v -0.07099059 -0.07343372 0.00159109
v -0.07195617 -0.07033923 0.01091808
v -0.07229103 -0.07033923 0.01091808
v -0.07228940 -0.07207243 0.00595846
v -0.07228507 -0.07389229 -0.00047967
v -0.07284046 -0.06936430 0.00972930
v -0.07251210 -0.07276932 -0.00047967
v -0.07251210 -0.07276932 -0.00218401
v -0.07250668 -0.07276932 -0.00388409
v -0.07223413 -0.07374785 -0.00491947
v -0.07391224 -0.06047804 -0.01747191
v -0.07169391 -0.07374785 -0.00491947
v -0.07092557 -0.07394284 -0.00426756
v -0.07092557 -0.07274043 0.00323578
v -0.07092557 -0.07215909 0.00450551
v -0.07193124 -0.06872157 0.01423301
v -0.07235930 -0.06872157 0.01423301
v -0.07251860 -0.06900322 0.01313797
v -0.07241945 -0.07052338 0.00972930
v -0.07269362 -0.07106501 0.00462481
v -0.07299543 -0.06765999 0.01313797
v -0.07389381 -0.06031916 0.02131453
v -0.07290061 -0.06936430 0.00802923
v -0.07270663 -0.07106501 0.00292474
v -0.07270663 -0.07106501 -0.00218401
v -0.07290061 -0.06936430 -0.00558842
v -0.07270608 -0.07106501 -0.00558842
v -0.07365324 -0.06133020 -0.01747191
v -0.07261831 -0.06765638 -0.01235890
v -0.07245954 -0.06929570 -0.01056082
v -0.07220596 -0.07026340 -0.00990465
v -0.07290007 -0.06936430 -0.00729276
v -0.07600756 -0.04208806 -0.01747191
v -0.07208025 -0.07026340 -0.00990465
v -0.07092557 -0.07311596 -0.00531147
v -0.07092557 -0.07120222 0.00461629
v -0.07132437 -0.06765999 0.01313797
v -0.07174864 -0.06900322 0.01313797
v -0.07171450 -0.06765638 0.01481675
v -0.07192691 -0.06708587 0.01599700
v -0.07242540 -0.06708587 0.01599700
v -0.07363861 -0.05997974 0.02245217
v -0.07395830 -0.05884594 0.02270356
v -0.07400056 -0.05930813 0.02179174
v -0.07464536 -0.05404353 0.02335121
v -0.07425794 -0.05744494 0.02165113
v -0.07391224 -0.06047804 0.01994680
v -0.07619721 -0.04042346 0.02335121
v -0.07619721 -0.04042346 -0.01747191
v -0.07274672 -0.06308145 -0.01747191
v -0.07248447 -0.06545016 -0.01538409
v -0.07243299 -0.06708947 -0.01359454
v -0.07233113 -0.06868186 -0.01176238
v -0.07196430 -0.06868186 -0.01176238
v -0.07092557 -0.07280543 -0.00558416
v -0.07191932 -0.06708947 -0.01359454
v -0.07193829 -0.06545016 -0.01538409
v -0.07200168 -0.06379640 -0.01716939
v -0.07092557 -0.07095668 0.00452255
v -0.07125339 -0.06765999 0.01143364
v -0.07172100 -0.06084996 0.01994680
v -0.07185159 -0.06069108 0.02165966
v -0.07176381 -0.06257954 0.01996810
v -0.07185593 -0.06203431 0.02109722
v -0.07193232 -0.06541044 0.01772264
v -0.07247092 -0.06541044 0.01772264
v -0.07264323 -0.06203431 0.02109722
v -0.07250397 -0.06001947 0.02250756
v -0.07391711 -0.05671555 0.02426303
v -0.07437226 -0.05574424 0.02335121
v -0.07407533 -0.05574424 0.02447181
v -0.07425143 -0.05404353 0.02480842
v -0.07561093 -0.04512477 0.02462094
v -0.07568462 -0.04382848 0.02486381
v -0.07578161 -0.04212417 0.02486807
v -0.07587860 -0.04042346 0.02475303
v -0.07626332 -0.03871915 0.02335121
v -0.07646109 -0.03770451 0.02165113
v -0.07639119 -0.03871915 0.02165113
v -0.07639119 -0.03871915 -0.01747191
v -0.07197296 -0.06308145 -0.01747191
v -0.07250885 -0.06379640 -0.01716939
v -0.07092557 -0.07043311 -0.00629146
v -0.07194479 -0.06283591 -0.01747191
v -0.07143816 -0.06595929 -0.01239725
v -0.07092557 -0.07032840 0.00292474
v -0.07466432 -0.03770451 0.02165113
v -0.07208459 -0.05814183 0.02256295
v -0.07092557 -0.07018396 0.00122040
v -0.07092557 -0.07018396 -0.00271661
v -0.07092557 -0.07018757 -0.00442095
v -0.07159855 -0.06425497 -0.01410158
v -0.07179144 -0.06255427 -0.01580592
v -0.07198109 -0.06088606 -0.01747191
v -0.07373018 -0.04552919 -0.01747191
v -0.07383963 -0.04456870 -0.01747191
v -0.07466432 -0.03770451 -0.01747191
v -0.07204828 -0.05914564 0.02255443
v -0.07208350 -0.06001947 0.02250756
v -0.07372801 -0.05671555 0.02426303
v -0.07392145 -0.05176510 0.02594180
v -0.07404011 -0.05063851 0.02599719
v -0.07420646 -0.04893420 0.02605684
v -0.07430508 -0.04723350 0.02603128
v -0.07416853 -0.04609969 0.02596310
v -0.07584772 -0.03871915 0.02451868
v -0.07611756 -0.03770451 0.02338530
v -0.07646109 -0.03770451 0.02096514
v -0.07639390 -0.03868304 -0.01747191
v -0.07194045 -0.06265898 -0.01747191
v -0.07471471 -0.03770451 0.02233287
v -0.07384722 -0.04459037 0.02430138
v -0.07377786 -0.04552919 0.02494476
v -0.07358388 -0.04723350 0.02505555
v -0.07380929 -0.04609969 0.02596310
v -0.07374372 -0.04723350 0.02603128
v -0.07646055 -0.03770451 -0.01747191
v -0.07370525 -0.04893420 0.02605684
v -0.07374535 -0.05063851 0.02599719
v -0.07380766 -0.05176510 0.02594180
v -0.07570955 -0.03770451 0.02432694
v -0.07497047 -0.03770451 0.02338530
v -0.07472609 -0.03871915 0.02335121
v -0.07515903 -0.03770451 0.02384547
v -0.07539636 -0.03770451 0.02432694
f 1 2 3
f 1 3 4
f 1 4 5
f 1 5 6
f 1 6 7
f 1 7 8
f 1 8 9
f 1 9 10
f 1 10 11
f 1 11 2
f 2 11 25
f 2 25 47
f 2 47 67
f 2 67 95
f 2 95 103
f 2 103 102
f 2 102 101
f 2 101 98
f 2 98 71
f 2 71 48
f 2 48 27
f 2 27 26
f 2 26 12
f 2 12 4
f 2 4 3
f 4 12 13
f 4 13 5
f 5 13 14
f 5 14 15
f 5 15 6
f 6 15 16
f 6 16 7
f 7 17 8
f 7 16 18
f 7 18 17
f 8 17 19
f 8 19 20
f 8 20 21
f 8 21 9
f 9 22 10
f 9 21 23
f 9 23 22
f 10 22 24
f 10 24 25
f 10 25 11
f 12 26 14
f 12 14 13
f 14 26 27
f 14 27 28
f 14 28 29
f 14 29 15
f 15 29 30
f 15 30 31
f 15 31 16
f 16 31 18
f 17 18 32
f 17 32 19
f 18 31 30
f 18 30 33
f 18 33 34
f 18 34 35
f 18 35 32
f 19 32 35
f 19 35 36
f 19 36 37
f 19 37 20
f 20 37 38
f 20 38 39
f 20 39 21
f 21 39 23
f 22 23 40
f 22 40 41
f 22 41 42
f 22 42 43
f 22 43 46
f 22 46 24
f 23 44 38
f 23 38 45
f 23 45 61
f 23 61 92
f 23 92 121
f 23 121 129
f 23 129 109
f 23 109 108
f 23 108 107
f 23 107 106
f 23 106 122
f 23 122 96
f 23 96 93
f 23 93 62
f 23 62 40
f 23 39 44
f 24 46 25
f 25 46 47
f 27 48 49
f 27 49 50
f 27 50 28
f 28 51 52
f 28 52 53
f 28 53 29
f 28 50 51
f 29 53 54
f 29 54 34
f 29 34 30
f 30 34 33
f 34 54 55
f 34 55 56
f 34 56 57
f 34 57 58
f 34 58 59
f 34 59 35
f 35 59 58
f 35 58 60
f 35 60 61
f 35 61 38
f 35 38 37
f 35 37 36
f 38 61 45
f 38 44 39
f 40 62 63
f 40 63 64
f 40 64 41
f 41 64 65
f 41 65 42
f 42 65 43
f 43 65 66
f 43 66 46
f 46 66 47
f 47 66 68
f 47 68 69
f 47 69 70
f 47 70 67
f 48 71 72
f 48 72 49
f 49 72 73
f 49 73 74
f 49 74 75
f 49 75 76
f 49 76 51
f 49 51 50
f 51 76 52
f 52 77 78
f 52 78 53
f 52 76 77
f 53 78 54
f 54 79 80
f 54 80 81
f 54 81 55
f 54 78 79
f 55 82 57
f 55 57 56
f 55 81 83
f 55 83 82
f 57 60 58
f 57 82 83
f 57 83 84
f 57 84 85
f 57 85 60
f 60 85 86
f 60 86 87
f 60 87 88
f 60 88 89
f 60 89 90
f 60 90 91
f 60 91 92
f 60 92 61
f 62 93 70
f 62 70 94
f 62 94 63
f 63 94 70
f 63 70 69
f 63 69 68
f 63 68 64
f 64 68 66
f 64 66 65
f 67 70 93
f 67 93 96
f 67 96 97
f 67 97 95
f 71 98 73
f 71 73 72
f 73 99 100
f 73 100 74
f 73 98 101
f 73 101 102
f 73 102 103
f 73 103 104
f 73 104 105
f 73 105 106
f 73 106 107
f 73 107 108
f 73 108 109
f 73 109 99
f 74 76 75
f 74 100 110
f 74 110 111
f 74 111 76
f 76 111 80
f 76 80 79
f 76 79 78
f 76 78 77
f 80 111 112
f 80 112 81
f 81 112 132
f 81 132 113
f 81 113 83
f 83 113 84
f 84 86 85
f 84 113 86
f 86 113 114
f 86 114 115
f 86 115 87
f 87 115 116
f 87 116 88
f 88 116 117
f 88 117 118
f 88 118 89
f 89 118 119
f 89 119 90
f 90 120 121
f 90 121 91
f 90 119 133
f 90 133 137
f 90 137 136
f 90 136 134
f 90 134 123
f 90 123 99
f 90 99 109
f 90 109 129
f 90 129 120
f 91 121 92
f 95 97 104
f 95 104 103
f 96 122 97
f 97 122 104
f 99 123 124
f 99 124 100
f 100 124 125
f 100 125 126
f 100 126 127
f 100 127 128
f 100 128 110
f 104 122 105
f 105 122 106
f 110 128 130
f 110 130 131
f 110 131 111
f 111 131 132
f 111 132 112
f 113 132 131
f 113 131 114
f 114 131 130
f 114 130 115
f 115 130 128
f 115 128 116
f 116 128 127
f 116 127 117
f 117 133 118
f 117 127 137
f 117 137 133
f 118 133 119
f 120 129 121
f 123 134 135
f 123 135 127
f 123 127 124
f 124 127 125
f 125 127 126
f 127 135 134
f 127 134 136
f 127 136 137

