# https://github.com/mikedh/trimesh
v -0.07594901 -0.03770090 -0.02236528
v -0.07511258 -0.03770090 -0.02236528
v -0.07623849 -0.03770090 -0.02159742
v -0.07642332 -0.03701401 -0.02091183
v -0.07595014 -0.03701401 -0.02216417
v -0.07577021 -0.03584161 -0.02191279
v -0.07437740 -0.03518295 -0.02194936
v -0.07465747 -0.03770090 -0.02091183
v -0.07641052 -0.03770090 -0.02091183
v -0.07726315 -0.03106166 -0.01666119
v -0.07726315 -0.03104472 -0.01666119
v -0.07528272 -0.01847571 -0.01580192
v -0.07520631 -0.01847571 -0.01597103
v -0.07453362 -0.01847571 -0.01714110
v -0.07437740 -0.01847571 -0.01720966
v -0.07465747 -0.03770090 -0.02022625
v -0.07437740 -0.03517731 -0.02106723
v -0.07466500 -0.03770090 0.02164944
v -0.07646096 -0.03770090 -0.01989716
v -0.07726353 -0.03106354 -0.01580192
v -0.07774950 -0.02680111 -0.01069658
v -0.07732790 -0.02894644 -0.01531744
v -0.07739264 -0.02720006 -0.01372231
v -0.07745739 -0.02564564 -0.01203119
v -0.07776306 -0.02509801 -0.00899175
v -0.07801225 -0.02339492 -0.00388641
v -0.07818090 -0.02169183 0.00121893
v -0.07772089 -0.01994169 0.00299689
v -0.07737646 -0.01907603 0.00361849
v -0.07654943 -0.01847571 0.00305174
v -0.07437740 -0.01847571 0.01196438
v -0.07437740 -0.02676159 -0.00231870
v -0.07471506 -0.03770090 0.02233503
v -0.07726353 -0.03106542 -0.01239684
v -0.07646096 -0.03770090 0.02164944
v -0.07736177 -0.03020353 -0.01410166
v -0.07794337 -0.02509801 -0.00558667
v -0.07812368 -0.02339492 -0.00218158
v -0.07792417 -0.02509801 -0.00729149
v -0.07753531 -0.02669949 -0.01252024
v -0.07774950 -0.02680111 0.00972936
v -0.07822306 -0.02169183 0.00291919
v -0.07772089 -0.01988147 0.00461945
v -0.07737646 -0.01907603 0.00404813
v -0.07654943 -0.01847571 0.00308830
v -0.07650087 -0.01847571 0.00416696
v -0.07756806 -0.02044792 0.00632428
v -0.07761135 -0.02175770 0.00790113
v -0.07744610 -0.02236930 0.00909862
v -0.07748186 -0.02397454 0.01091771
v -0.07745588 -0.02562306 0.01269110
v -0.07739264 -0.02729416 0.01445077
v -0.07732790 -0.02896337 0.01617846
v -0.07580785 -0.03415357 0.02264583
v -0.07542314 -0.03415357 0.02264583
v -0.07526691 -0.03531092 0.02288807
v -0.07497066 -0.03770090 0.02338627
v -0.07726353 -0.03106542 0.01483927
v -0.07611803 -0.03770090 0.02338627
v -0.07650764 -0.03701401 0.02164944
v -0.07726315 -0.03106166 0.01740794
v -0.07726353 -0.03106354 0.01653953
v -0.07736177 -0.03020353 0.01483927
v -0.07794337 -0.02509801 0.00802910
v -0.07812443 -0.02339492 -0.00048132
v -0.07812443 -0.02339492 0.00632428
v -0.07822268 -0.02169183 0.00462402
v -0.07804124 -0.02169183 0.00632428
v -0.07765991 -0.02340245 0.00969280
v -0.07762678 -0.02507167 0.01146161
v -0.07726315 -0.03102026 0.01740794
v -0.07648280 -0.03531092 0.02164944
v -0.07613385 -0.03359466 0.02166316
v -0.07802543 -0.02339492 0.00802910
v -0.07791325 -0.02509801 0.00972936
v -0.07598779 -0.03531092 0.02288807
v -0.07569944 -0.03761997 0.02430952
v -0.07541147 -0.03761997 0.02430952
v -0.07539641 -0.03770090 0.02432781
v -0.07515963 -0.03770090 0.02384332
v -0.07570998 -0.03770090 0.02432781
v -0.07602280 -0.03703848 0.02340455
v -0.07774837 -0.02680111 0.01143419
v -0.07755564 -0.02850043 0.01313445
f 1 2 8
f 1 8 16
f 1 16 18
f 1 18 33
f 1 33 57
f 1 57 80
f 1 80 79
f 1 79 81
f 1 81 59
f 1 59 35
f 1 35 19
f 1 19 9
f 1 9 3
f 1 3 4
f 1 4 5
f 1 5 6
f 1 6 7
f 1 7 2
f 2 7 8
f 3 9 4
f 4 9 10
f 4 10 11
f 4 11 5
f 5 11 12
f 5 12 13
f 5 13 14
f 5 14 6
f 6 14 15
f 6 15 7
f 7 16 8
f 7 15 31
f 7 31 32
f 7 32 17
f 7 17 18
f 7 18 16
f 9 19 10
f 10 19 20
f 10 20 21
f 10 21 11
f 11 22 12
f 11 21 22
f 12 22 23
f 12 23 24
f 12 24 25
f 12 25 26
f 12 26 27
f 12 27 28
f 12 28 29
f 12 29 30
f 12 30 45
f 12 45 46
f 12 46 31
f 12 31 15
f 12 15 14
f 12 14 13
f 17 32 18
f 18 31 33
f 18 32 31
f 19 34 20
f 19 35 58
f 19 58 34
f 20 34 36
f 20 36 21
f 21 37 38
f 21 38 39
f 21 39 25
f 21 25 40
f 21 40 22
f 21 36 63
f 21 63 41
f 21 41 64
f 21 64 37
f 22 40 23
f 23 40 24
f 24 40 25
f 25 39 26
f 26 39 38
f 26 38 27
f 27 42 28
f 27 38 42
f 28 42 43
f 28 43 29
f 29 43 44
f 29 44 45
f 29 45 30
f 31 46 44
f 31 44 47
f 31 47 48
f 31 48 49
f 31 49 50
f 31 50 51
f 31 51 52
f 31 52 53
f 31 53 54
f 31 54 55
f 31 55 56
f 31 56 57
f 31 57 33
f 34 58 63
f 34 63 36
f 35 59 60
f 35 60 61
f 35 61 62
f 35 62 58
f 37 64 66
f 37 66 65
f 37 65 38
f 38 65 42
f 41 63 64
f 42 66 67
f 42 67 43
f 42 65 66
f 43 67 68
f 43 68 47
f 43 47 44
f 44 46 45
f 47 68 48
f 48 69 50
f 48 50 49
f 48 68 69
f 50 69 51
f 51 69 70
f 51 70 52
f 52 70 53
f 53 71 72
f 53 72 73
f 53 73 54
f 53 70 74
f 53 74 75
f 53 75 71
f 54 73 76
f 54 76 77
f 54 77 78
f 54 78 55
f 55 78 79
f 55 79 80
f 55 80 56
f 56 80 57
f 58 62 63
f 59 81 82
f 59 82 72
f 59 72 60
f 60 72 71
f 60 71 61
f 61 71 75
f 61 75 83
f 61 83 84
f 61 84 62
f 62 84 63
f 63 84 64
f 64 84 83
f 64 83 66
f 66 83 75
f 66 75 74
f 66 74 67
f 67 74 68
f 68 74 70
f 68 70 69
f 72 82 76
f 72 76 73
f 76 82 81
f 76 81 77
f 77 81 79
f 77 79 78

