# https://github.com/mikedh/trimesh
v -0.06116074 0.03283477 0.01313738
v -0.06142369 0.03283477 0.01470123
v -0.06679373 0.02197752 0.01484032
v -0.06668920 0.02197752 0.01408541
v -0.06659975 0.02197752 0.01313738
v -0.06116074 0.03283477 0.00219723
v -0.06145063 0.03283477 0.01485383
v -0.06690042 0.02197752 0.01543183
v -0.06659975 0.02197752 0.00219723
v -0.06878743 0.03283477 0.00219723
v -0.06188278 0.03283477 0.01564791
v -0.06700819 0.02197752 0.01571678
v -0.07109580 0.02197752 0.00219723
v -0.07028540 0.02798960 0.00219723
v -0.07216916 0.03282733 0.01258639
v -0.07216916 0.03283477 0.01444464
v -0.06252938 0.03283477 0.01582887
v -0.06693598 0.02257692 0.01575864
v -0.06733041 0.02197752 0.01577350
v -0.07108610 0.02257692 0.00219723
v -0.07216916 0.02197752 0.01524952
v -0.07216916 0.02198496 0.01443924
v -0.07216916 0.02257267 0.01346015
v -0.07216916 0.02318802 0.01336561
v -0.07216916 0.02427948 0.01321031
v -0.07216916 0.02847742 0.01283353
v -0.07054511 0.02713939 0.00219723
v -0.07084147 0.02598203 0.00219723
v -0.07093415 0.02525616 0.00219723
v -0.07105808 0.02427948 0.00219723
v -0.07216916 0.03283477 0.01583292
v -0.06263607 0.03283477 0.01584237
v -0.06791882 0.02197752 0.01585048
v -0.07216916 0.02197752 0.01584777
v -0.07216916 0.03192610 0.01585318
v -0.07130272 0.03279119 0.01590585
v -0.07130272 0.03283477 0.01590449
v -0.06273199 0.03283477 0.01584913
v -0.06449398 0.03108864 0.01592340
v -0.06789835 0.02257692 0.01588424
v -0.06849645 0.02197752 0.01589774
v -0.07216916 0.02257692 0.01588154
v -0.06959999 0.02197752 0.01592070
v -0.07216916 0.03022355 0.01588559
v -0.07130272 0.03108864 0.01593556
v -0.07126069 0.03283477 0.01590720
v -0.06445087 0.03283477 0.01595176
v -0.06789835 0.02427948 0.01594366
v -0.07216916 0.02341438 0.01591935
v -0.07130272 0.02427948 0.01595176
v -0.07216916 0.02852099 0.01591260
v -0.07216916 0.02681950 0.01593285
v -0.07130272 0.02938608 0.01595446
v -0.06959999 0.03283477 0.01597742
v -0.06789835 0.03283477 0.01599228
v -0.06959999 0.02938608 0.01598417
v -0.07130272 0.02598203 0.01596932
v -0.07216916 0.02427948 0.01593961
v -0.07216916 0.02511694 0.01594771
v -0.07130272 0.02768353 0.01596257
v -0.06955796 0.03283477 0.01597877
v -0.06959999 0.03108864 0.01598552
f 1 2 3
f 1 3 4
f 1 4 5
f 1 5 9
f 1 9 6
f 1 6 10
f 1 10 16
f 1 16 31
f 1 31 37
f 1 37 46
f 1 46 54
f 1 54 61
f 1 61 55
f 1 55 47
f 1 47 38
f 1 38 32
f 1 32 17
f 1 17 11
f 1 11 7
f 1 7 2
f 2 7 3
f 3 7 8
f 3 8 12
f 3 12 19
f 3 19 33
f 3 33 41
f 3 41 43
f 3 43 34
f 3 34 21
f 3 21 13
f 3 13 9
f 3 9 5
f 3 5 4
f 6 9 13
f 6 13 20
f 6 20 30
f 6 30 29
f 6 29 28
f 6 28 27
f 6 27 14
f 6 14 10
f 7 11 12
f 7 12 8
f 10 14 15
f 10 15 16
f 11 17 12
f 12 18 19
f 12 17 18
f 13 15 20
f 13 21 22
f 13 22 23
f 13 23 24
f 13 24 25
f 13 25 26
f 13 26 15
f 14 27 15
f 15 26 25
f 15 25 24
f 15 24 23
f 15 23 22
f 15 22 21
f 15 21 34
f 15 34 42
f 15 42 49
f 15 49 58
f 15 58 59
f 15 59 52
f 15 52 51
f 15 51 44
f 15 44 35
f 15 35 31
f 15 31 16
f 15 27 28
f 15 28 29
f 15 29 30
f 15 30 20
f 17 32 33
f 17 33 19
f 17 19 18
f 31 35 36
f 31 36 37
f 32 38 39
f 32 39 40
f 32 40 33
f 33 40 41
f 34 43 42
f 35 44 36
f 36 45 46
f 36 46 37
f 36 44 45
f 38 47 39
f 39 47 48
f 39 48 40
f 40 48 41
f 41 48 43
f 42 43 49
f 43 48 50
f 43 50 49
f 44 51 45
f 45 51 52
f 45 52 53
f 45 53 54
f 45 54 46
f 47 55 48
f 48 55 56
f 48 56 57
f 48 57 50
f 49 50 58
f 50 57 58
f 52 59 53
f 53 60 61
f 53 61 54
f 53 59 60
f 55 61 62
f 55 62 56
f 56 62 57
f 57 62 60
f 57 60 59
f 57 59 58
f 60 62 61

