# https://github.com/mikedh/trimesh
v 0.05160854 -0.03351872 0.01352484
v 0.05117694 -0.03351872 0.01364366
v 0.05161709 -0.03350227 0.01343391
v 0.05216752 -0.03119301 0.00895888
v 0.05155313 -0.03351872 0.01411165
v 0.05117694 -0.03343448 0.01331752
v 0.05134014 -0.03337131 0.01290166
v 0.05117694 -0.03351872 0.01483667
v 0.05156330 -0.03337131 0.01290166
v 0.05216752 -0.03119301 0.00886310
v 0.05216752 -0.03116405 0.00895888
v 0.05228245 -0.02862643 0.00364729
v 0.05156244 -0.03312715 0.01399889
v 0.05144123 -0.03330352 0.01446568
v 0.05151374 -0.03351872 0.01425108
v 0.05117694 -0.03329102 0.01304472
v 0.05136320 -0.03266122 0.01152193
v 0.05199566 -0.02849876 0.00306776
v 0.05118322 -0.03351872 0.01482576
v 0.05117694 -0.03351675 0.01483789
v 0.05225908 -0.02849876 0.00306776
v 0.05223300 -0.02917989 0.00448144
v 0.05220865 -0.02985246 0.00592421
v 0.05228245 -0.02815326 0.00364729
v 0.05218332 -0.03043159 0.00784225
v 0.05215973 -0.03047766 0.00820234
v 0.05149761 -0.03252894 0.01317688
v 0.05138809 -0.03266122 0.01364366
v 0.05117694 -0.03285470 0.01422804
v 0.05117694 -0.03286786 0.01424259
v 0.05117694 -0.03232362 0.01349695
v 0.05117694 -0.02770115 0.00267615
v 0.05135032 -0.02777222 0.00251975
v 0.05138950 -0.03194389 0.01015918
v 0.05180399 -0.02791305 0.00252096
v 0.05218094 -0.02790318 0.00257309
v 0.05218094 -0.02765903 0.00257309
v 0.05218094 -0.02765903 0.00276829
v 0.05214068 -0.02770378 0.00323386
v 0.05222001 -0.02829277 0.00416136
v 0.05117694 -0.02948525 0.00850059
v 0.05117694 -0.03227228 0.01340724
v 0.05146244 -0.02767943 0.00471301
v 0.05135259 -0.02781039 0.00517857
v 0.05117694 -0.02746094 0.00246519
v 0.05117694 -0.02739776 0.00245185
v 0.05174869 -0.02739052 0.00251854
v 0.05117694 -0.02688511 0.00247246
v 0.05117694 -0.02684891 0.00248580
v 0.05147900 -0.02696671 0.00256825
v 0.05147900 -0.02696671 0.00266645
v 0.05128625 -0.02712794 0.00364729
v 0.05170400 -0.02747739 0.00364729
v 0.05154480 -0.02760375 0.00434565
v 0.05205345 -0.02780381 0.00364729
v 0.05117694 -0.02873567 0.00717542
v 0.05117694 -0.02751293 0.00493609
v 0.05117694 -0.02794991 0.00578236
v 0.05117694 -0.02803875 0.00594240
v 0.05117694 -0.02734972 0.00245307
v 0.05117694 -0.02679626 0.00287620
v 0.05117694 -0.02679626 0.00288832
v 0.05117694 -0.02703844 0.00364729
v 0.05117694 -0.02717401 0.00403769
v 0.05117694 -0.02725627 0.00427048
v 0.05117694 -0.02729642 0.00437838
v 0.05117694 -0.02749516 0.00489123
f 1 2 3
f 1 3 4
f 1 4 5
f 1 5 15
f 1 15 19
f 1 19 8
f 1 8 2
f 2 6 7
f 2 7 3
f 2 8 20
f 2 20 30
f 2 30 29
f 2 29 31
f 2 31 42
f 2 42 41
f 2 41 56
f 2 56 59
f 2 59 58
f 2 58 57
f 2 57 67
f 2 67 66
f 2 66 65
f 2 65 64
f 2 64 63
f 2 63 62
f 2 62 61
f 2 61 49
f 2 49 48
f 2 48 60
f 2 60 46
f 2 46 45
f 2 45 32
f 2 32 16
f 2 16 6
f 3 7 9
f 3 9 10
f 3 10 4
f 4 11 5
f 4 10 12
f 4 12 24
f 4 24 11
f 5 13 14
f 5 14 15
f 5 11 13
f 6 16 7
f 7 17 18
f 7 18 21
f 7 21 9
f 7 16 17
f 8 19 20
f 9 21 22
f 9 22 23
f 9 23 10
f 10 23 22
f 10 22 12
f 11 24 25
f 11 25 26
f 11 26 13
f 12 22 21
f 12 21 24
f 13 27 28
f 13 28 14
f 13 26 27
f 14 29 30
f 14 30 20
f 14 20 15
f 14 28 31
f 14 31 29
f 15 20 19
f 16 32 17
f 17 32 33
f 17 33 34
f 17 34 18
f 18 33 35
f 18 35 21
f 18 34 33
f 21 35 36
f 21 36 37
f 21 37 24
f 24 37 38
f 24 38 39
f 24 39 40
f 24 40 26
f 24 26 25
f 26 41 42
f 26 42 28
f 26 28 27
f 26 40 43
f 26 43 44
f 26 44 41
f 28 42 31
f 32 45 33
f 33 45 46
f 33 46 35
f 35 46 47
f 35 47 37
f 35 37 36
f 37 47 48
f 37 48 49
f 37 49 50
f 37 50 51
f 37 51 38
f 38 51 39
f 39 51 52
f 39 52 53
f 39 53 54
f 39 54 43
f 39 43 55
f 39 55 40
f 40 55 43
f 41 44 56
f 43 54 57
f 43 57 44
f 44 57 58
f 44 58 59
f 44 59 56
f 46 60 47
f 47 60 48
f 49 61 50
f 50 61 62
f 50 62 51
f 51 62 63
f 51 63 52
f 52 63 64
f 52 64 53
f 53 64 65
f 53 65 66
f 53 66 54
f 54 66 67
f 54 67 57

