# https://github.com/mikedh/trimesh
v 0.06713304 -0.02944385 -0.02137444
v 0.06717246 -0.02945124 -0.02137444
v 0.06740179 -0.02962481 -0.02147854
v 0.06740179 -0.03009013 -0.02182183
v 0.06740179 -0.03046867 -0.02209846
v 0.06740179 -0.03107432 -0.02253825
v 0.06662698 -0.02950294 -0.02137444
v 0.06740179 -0.02950663 -0.02137444
v 0.06740179 -0.03123866 -0.02263006
v 0.06671227 -0.03039481 -0.02192301
v 0.06653070 -0.02953618 -0.02137444
v 0.06740179 -0.03127559 -0.02137444
v 0.06740179 -0.03245921 -0.02324062
v 0.06721302 -0.03153595 -0.02271720
v 0.06648218 -0.03015107 -0.02170662
v 0.06610766 -0.02979654 -0.02137444
v 0.06352926 -0.03415800 -0.02137444
v 0.06352926 -0.03448298 -0.02145105
v 0.06352926 -0.04830597 -0.02483837
v 0.06648673 -0.04830597 -0.02624195
v 0.06708679 -0.04830597 -0.02657004
v 0.06740179 -0.04542541 -0.02596942
v 0.06740179 -0.03263647 -0.02332133
v 0.06592344 -0.03241120 -0.02265580
v 0.06668005 -0.03177046 -0.02263474
v 0.06508911 -0.03168737 -0.02197857
v 0.06648218 -0.03081212 -0.02205460
v 0.06409975 -0.03126636 -0.02137444
v 0.06575134 -0.03009013 -0.02139199
v 0.06352926 -0.03171506 -0.02137444
v 0.06352926 -0.04830597 -0.02729288
v 0.06708679 -0.04830597 -0.02699345
v 0.06740179 -0.04542541 -0.02623727
v 0.06391401 -0.03248321 -0.02192301
v 0.06740179 -0.03464917 -0.02398043
v 0.06718572 -0.03465102 -0.02397984
v 0.06682940 -0.03467502 -0.02397458
v 0.06608340 -0.03533053 -0.02399271
v 0.06673540 -0.03319412 -0.02331197
v 0.06508911 -0.03311103 -0.02264878
v 0.06368505 -0.03291899 -0.02203003
v 0.06421195 -0.03201604 -0.02180897
v 0.06467820 -0.03183878 -0.02189845
v 0.06375290 -0.03152118 -0.02137444
v 0.06369150 -0.03156919 -0.02137444
v 0.06352926 -0.03252568 -0.02177797
v 0.06369112 -0.04830597 -0.02729815
v 0.06352926 -0.03568691 -0.02305406
v 0.06471573 -0.03814092 -0.02468573
v 0.06508911 -0.03852500 -0.02486469
v 0.06578773 -0.03751680 -0.02466058
v 0.06648673 -0.04830597 -0.02728177
v 0.06713000 -0.04761353 -0.02696713
v 0.06740179 -0.04481606 -0.02627178
v 0.06352926 -0.03299285 -0.02199904
v 0.06352926 -0.03276019 -0.02188967
v 0.06368505 -0.03224317 -0.02170662
v 0.06740179 -0.03744848 -0.02467812
v 0.06718572 -0.03572753 -0.02424945
v 0.06718572 -0.03503140 -0.02407517
v 0.06508911 -0.03800244 -0.02471848
v 0.06407397 -0.03540809 -0.02326109
v 0.06577712 -0.03431311 -0.02343362
v 0.06510693 -0.03643475 -0.02410032
v 0.06510693 -0.03575154 -0.02380381
v 0.06399399 -0.03394011 -0.02259205
v 0.06372144 -0.03154518 -0.02137444
v 0.06501330 -0.04830597 -0.02733967
v 0.06352926 -0.03552811 -0.02300026
v 0.06352926 -0.03504617 -0.02283066
v 0.06352926 -0.03419493 -0.02250082
v 0.06507584 -0.04830597 -0.02734142
v 0.06577029 -0.04830597 -0.02734903
v 0.06648673 -0.04761353 -0.02714551
v 0.06702083 -0.04633759 -0.02682502
v 0.06713228 -0.04691370 -0.02689637
v 0.06740179 -0.04411808 -0.02621856
v 0.06352926 -0.03346925 -0.02220431
v 0.06740179 -0.04024964 -0.02537524
v 0.06718572 -0.04025149 -0.02537524
v 0.06718572 -0.04119505 -0.02560917
v 0.06718572 -0.04132062 -0.02563958
v 0.06718572 -0.04343303 -0.02614487
v 0.06740179 -0.04349765 -0.02612674
f 1 2 3
f 1 3 4
f 1 4 5
f 1 5 6
f 1 6 7
f 1 7 11
f 1 11 16
f 1 16 28
f 1 28 44
f 1 44 67
f 1 67 45
f 1 45 30
f 1 30 17
f 1 17 12
f 1 12 8
f 1 8 2
f 2 8 3
f 3 8 12
f 3 12 22
f 3 22 33
f 3 33 54
f 3 54 77
f 3 77 84
f 3 84 79
f 3 79 58
f 3 58 35
f 3 35 23
f 3 23 13
f 3 13 9
f 3 9 6
f 3 6 5
f 3 5 4
f 6 9 10
f 6 10 11
f 6 11 7
f 9 13 14
f 9 14 10
f 10 15 11
f 10 14 15
f 11 15 16
f 12 17 18
f 12 18 19
f 12 19 20
f 12 20 21
f 12 21 22
f 13 23 24
f 13 24 25
f 13 25 14
f 14 25 26
f 14 26 27
f 14 27 15
f 15 27 26
f 15 26 28
f 15 28 29
f 15 29 16
f 16 29 28
f 17 30 46
f 17 46 56
f 17 56 55
f 17 55 78
f 17 78 71
f 17 71 70
f 17 70 69
f 17 69 48
f 17 48 31
f 17 31 19
f 17 19 18
f 19 31 47
f 19 47 68
f 19 68 72
f 19 72 73
f 19 73 52
f 19 52 32
f 19 32 21
f 19 21 20
f 21 32 33
f 21 33 22
f 23 34 24
f 23 35 36
f 23 36 37
f 23 37 38
f 23 38 39
f 23 39 40
f 23 40 41
f 23 41 34
f 24 34 25
f 25 34 42
f 25 42 43
f 25 43 26
f 26 44 28
f 26 43 44
f 30 45 46
f 31 48 49
f 31 49 50
f 31 50 51
f 31 51 47
f 32 52 53
f 32 53 33
f 33 53 54
f 34 41 55
f 34 55 56
f 34 56 46
f 34 46 57
f 34 57 45
f 34 45 42
f 35 58 59
f 35 59 60
f 35 60 36
f 36 60 51
f 36 51 37
f 37 51 61
f 37 61 49
f 37 49 38
f 38 62 63
f 38 63 39
f 38 49 64
f 38 64 65
f 38 65 62
f 39 63 40
f 40 63 62
f 40 62 66
f 40 66 41
f 41 66 62
f 41 62 55
f 42 45 67
f 42 67 44
f 42 44 43
f 45 57 46
f 47 51 68
f 48 69 49
f 49 69 70
f 49 70 71
f 49 71 62
f 49 62 64
f 49 61 50
f 50 61 51
f 51 60 59
f 51 59 72
f 51 72 68
f 52 73 74
f 52 74 75
f 52 75 76
f 52 76 53
f 53 76 77
f 53 77 54
f 55 62 78
f 58 79 59
f 59 79 80
f 59 80 72
f 62 71 78
f 62 65 64
f 72 80 81
f 72 81 73
f 73 81 82
f 73 82 83
f 73 83 75
f 73 75 74
f 75 83 84
f 75 84 76
f 76 84 77
f 79 84 83
f 79 83 82
f 79 82 81
f 79 81 80

