# https://github.com/mikedh/trimesh
v 0.06740226 -0.03597495 -0.02332746
v 0.06741051 -0.03597495 -0.02333092
v 0.06740226 -0.03597495 -0.02423396
v 0.06740226 -0.03828251 -0.02394601
v 0.06754036 -0.03818258 -0.02397023
v 0.06780395 -0.03712688 -0.02382582
v 0.06788724 -0.03597495 -0.02360993
v 0.06763797 -0.03782636 -0.02392152
v 0.06790720 -0.03597495 -0.02416046
v 0.06756125 -0.03744794 -0.02467871
v 0.06740226 -0.03730083 -0.02463577
v 0.06740226 -0.04325383 -0.02531341
v 0.06756133 -0.04314743 -0.02534887
v 0.06825710 -0.03627566 -0.02393535
v 0.06795099 -0.03647643 -0.02376471
v 0.06826249 -0.03597495 -0.02391690
v 0.06826249 -0.03597495 -0.02401116
v 0.06740226 -0.03744886 -0.02467842
v 0.06754752 -0.04024865 -0.02537654
v 0.06740226 -0.04542723 -0.02596973
v 0.06756664 -0.04531897 -0.02603199
v 0.06825710 -0.03627566 -0.02400655
v 0.06759990 -0.04481749 -0.02617178
v 0.06760959 -0.04411801 -0.02615535
v 0.06757952 -0.04355176 -0.02611241
v 0.06740226 -0.04025050 -0.02537596
v 0.06740226 -0.04349810 -0.02612710
v 0.06740226 -0.04542723 -0.02623750
v 0.06756664 -0.04531897 -0.02613460
v 0.06740226 -0.04481749 -0.02627180
v 0.06740226 -0.04411801 -0.02621876
f 1 2 7
f 1 7 16
f 1 16 17
f 1 17 9
f 1 9 3
f 1 3 11
f 1 11 18
f 1 18 26
f 1 26 27
f 1 27 31
f 1 31 30
f 1 30 28
f 1 28 20
f 1 20 12
f 1 12 4
f 1 4 5
f 1 5 2
f 2 6 7
f 2 5 8
f 2 8 6
f 3 9 10
f 3 10 11
f 4 12 5
f 5 12 13
f 5 13 8
f 6 14 15
f 6 15 7
f 6 8 13
f 6 13 14
f 7 15 14
f 7 14 16
f 9 17 10
f 10 18 11
f 10 17 19
f 10 19 18
f 12 20 13
f 13 20 21
f 13 21 14
f 14 22 17
f 14 17 16
f 14 21 29
f 14 29 22
f 17 22 23
f 17 23 24
f 17 24 25
f 17 25 19
f 18 19 26
f 19 25 27
f 19 27 26
f 20 28 29
f 20 29 21
f 22 29 23
f 23 29 28
f 23 28 30
f 23 30 24
f 24 30 31
f 24 31 25
f 25 31 27

