# https://github.com/mikedh/trimesh
v 0.05965534 -0.03292896 -0.02627672
v 0.06126922 -0.03293131 -0.02361655
v 0.06126960 -0.03292896 -0.02361655
v 0.06075805 -0.03292896 -0.02627672
v 0.05993670 -0.04490712 -0.02627672
v 0.06004023 -0.04490712 -0.02440849
v 0.06007966 -0.04490712 -0.02371213
v 0.06008687 -0.04490595 -0.02361655
v 0.06201359 -0.03292896 -0.02361655
v 0.06112550 -0.03292896 -0.02595823
v 0.06079522 -0.03293131 -0.02627672
v 0.06076753 -0.04490712 -0.02627672
v 0.06008649 -0.04490712 -0.02362281
v 0.06009407 -0.04490712 -0.02361655
v 0.06352925 -0.03743719 -0.02361655
v 0.06201283 -0.03292896 -0.02362515
v 0.06147057 -0.03292896 -0.02560875
v 0.06112702 -0.03293131 -0.02595771
v 0.06129159 -0.03384468 -0.02611605
v 0.06108189 -0.03372860 -0.02627672
v 0.06352925 -0.04490712 -0.02606709
v 0.06155324 -0.03796833 -0.02627672
v 0.06266847 -0.04490712 -0.02361655
v 0.06147209 -0.03293131 -0.02560797
v 0.06176787 -0.03293131 -0.02502099
v 0.06188807 -0.03292896 -0.02454625
v 0.06196202 -0.03292896 -0.02419729
v 0.06352925 -0.04188562 -0.02361655
v 0.06176635 -0.03292896 -0.02502229
v 0.06137008 -0.03433009 -0.02619912
v 0.06129121 -0.03433009 -0.02627672
v 0.06352925 -0.04490712 -0.02426031
v 0.06156916 -0.03782646 -0.02627672
v 0.06160898 -0.03712648 -0.02627672
v 0.06157978 -0.03642768 -0.02627672
v 0.06145351 -0.03502889 -0.02627672
v 0.06141711 -0.03480026 -0.02627672
f 1 2 3
f 1 3 9
f 1 9 16
f 1 16 27
f 1 27 26
f 1 26 29
f 1 29 17
f 1 17 10
f 1 10 4
f 1 4 11
f 1 11 20
f 1 20 31
f 1 31 37
f 1 37 36
f 1 36 35
f 1 35 34
f 1 34 33
f 1 33 22
f 1 22 12
f 1 12 5
f 1 5 6
f 1 6 7
f 1 7 8
f 1 8 2
f 2 8 14
f 2 14 23
f 2 23 28
f 2 28 15
f 2 15 9
f 2 9 3
f 4 10 11
f 5 12 21
f 5 21 32
f 5 32 23
f 5 23 14
f 5 14 13
f 5 13 7
f 5 7 6
f 7 13 8
f 8 13 14
f 9 15 16
f 10 17 18
f 10 18 11
f 11 18 19
f 11 19 20
f 12 22 21
f 15 21 24
f 15 24 25
f 15 25 26
f 15 26 27
f 15 27 16
f 15 28 32
f 15 32 21
f 17 29 24
f 17 24 19
f 17 19 18
f 19 24 30
f 19 30 31
f 19 31 20
f 21 22 33
f 21 33 34
f 21 34 35
f 21 35 36
f 21 36 37
f 21 37 24
f 23 32 28
f 24 37 30
f 24 29 25
f 25 29 26
f 30 37 31

