# https://github.com/mikedh/trimesh
v 0.05632120 -0.06514601 0.00443100
v 0.05647085 -0.06526280 0.00443100
v 0.05632120 -0.06397231 -0.00263255
v 0.05632120 -0.07564687 0.00443100
v 0.05653017 -0.06530998 0.00443100
v 0.05687431 -0.06558601 0.00443100
v 0.05716714 -0.06587619 0.00443100
v 0.05721019 -0.06592927 0.00443100
v 0.05636067 -0.06402303 -0.00263255
v 0.05632120 -0.07568816 -0.00263255
v 0.05632120 -0.07592054 0.00253305
v 0.05633458 -0.07591346 0.00251853
v 0.05664704 -0.07543572 0.00434526
v 0.05663745 -0.07542982 0.00443100
v 0.05713414 -0.06531116 -0.00263255
v 0.05751819 -0.06649784 0.00443100
v 0.05632633 -0.07568344 -0.00263255
v 0.05713971 -0.07535669 0.00084944
v 0.05675633 -0.07570585 0.00084944
v 0.05632120 -0.07571175 -0.00242167
v 0.05632120 -0.07597952 0.00209054
v 0.05637695 -0.07594885 0.00205182
v 0.05664548 -0.07573534 0.00227031
v 0.05703935 -0.07522221 0.00395599
v 0.05859921 -0.07416410 0.00364555
v 0.05698716 -0.07517857 0.00443100
v 0.05738817 -0.06579362 -0.00263255
v 0.05755410 -0.06657806 0.00443100
v 0.05654199 -0.07546521 -0.00263255
v 0.05859921 -0.07412990 0.00224749
v 0.05859921 -0.07422545 0.00294652
v 0.05675900 -0.07572473 0.00154847
v 0.05640662 -0.07596772 0.00084944
v 0.05637339 -0.07594649 0.00029769
v 0.05634528 -0.07592644 -0.00016833
v 0.05632120 -0.07576365 -0.00194735
v 0.05632120 -0.07602199 0.00154847
v 0.05640929 -0.07597008 0.00154847
v 0.05707860 -0.07526114 0.00348998
v 0.05859921 -0.07398127 0.00434526
v 0.05859921 -0.07395178 0.00443100
v 0.05739352 -0.06580777 -0.00263255
v 0.05770174 -0.06696025 0.00443100
v 0.05689170 -0.07497332 -0.00263255
v 0.05859921 -0.07383028 0.00113154
v 0.05859921 -0.07396711 0.00158581
v 0.05859921 -0.07407210 0.00198752
v 0.05632120 -0.07601845 0.00084944
v 0.05632120 -0.07600665 0.00066069
v 0.05632120 -0.07597716 0.00026381
v 0.05632120 -0.07594295 -0.00014551
v 0.05632120 -0.07590403 -0.00056866
v 0.05859921 -0.07191224 0.00443100
v 0.05859921 -0.07076920 -0.00263255
v 0.05776709 -0.06723038 0.00443100
v 0.05859921 -0.07222601 -0.00263255
v 0.05859921 -0.07265067 -0.00183742
v 0.05859921 -0.07326289 -0.00036815
v 0.05859921 -0.07110539 0.00080934
f 1 2 3
f 1 3 10
f 1 10 20
f 1 20 36
f 1 36 52
f 1 52 51
f 1 51 50
f 1 50 49
f 1 49 48
f 1 48 37
f 1 37 21
f 1 21 11
f 1 11 4
f 1 4 14
f 1 14 26
f 1 26 41
f 1 41 53
f 1 53 55
f 1 55 43
f 1 43 28
f 1 28 16
f 1 16 8
f 1 8 7
f 1 7 6
f 1 6 5
f 1 5 2
f 2 5 3
f 3 5 6
f 3 6 7
f 3 7 8
f 3 8 9
f 3 9 15
f 3 15 27
f 3 27 42
f 3 42 54
f 3 54 56
f 3 56 44
f 3 44 29
f 3 29 17
f 3 17 10
f 4 11 12
f 4 12 13
f 4 13 14
f 8 15 9
f 8 16 15
f 10 17 18
f 10 18 19
f 10 19 20
f 11 21 22
f 11 22 12
f 12 22 23
f 12 23 24
f 12 24 13
f 13 24 14
f 14 24 25
f 14 25 26
f 15 16 27
f 16 28 27
f 17 29 30
f 17 30 31
f 17 31 18
f 18 31 19
f 19 32 33
f 19 33 34
f 19 34 35
f 19 35 36
f 19 36 20
f 19 31 32
f 21 37 38
f 21 38 22
f 22 38 32
f 22 32 23
f 23 39 24
f 23 32 25
f 23 25 39
f 24 39 25
f 25 31 30
f 25 30 47
f 25 47 46
f 25 46 45
f 25 45 58
f 25 58 57
f 25 57 56
f 25 56 54
f 25 54 59
f 25 59 53
f 25 53 41
f 25 41 40
f 25 40 26
f 25 32 31
f 26 40 41
f 27 28 43
f 27 43 42
f 29 44 45
f 29 45 46
f 29 46 47
f 29 47 30
f 32 38 33
f 33 38 48
f 33 48 49
f 33 49 50
f 33 50 34
f 34 50 35
f 35 50 51
f 35 51 52
f 35 52 36
f 37 48 38
f 42 43 54
f 43 55 54
f 44 56 57
f 44 57 58
f 44 58 45
f 53 59 55
f 54 55 59

