# https://github.com/mikedh/trimesh
v 0.04508416 -0.07598737 -0.01020354
v 0.04508416 -0.07500439 -0.01020354
v 0.04496634 -0.07592442 -0.01020354
v 0.04435554 -0.07390305 -0.01362355
v 0.04434515 -0.07320463 -0.01501930
v 0.04503270 -0.07530239 -0.01152440
v 0.04508416 -0.07531414 -0.01154896
v 0.04116700 -0.06741250 -0.01020354
v 0.04508416 -0.06741250 -0.02150946
v 0.04421017 -0.07544761 -0.01020354
v 0.04438578 -0.07528309 -0.01079400
v 0.04437088 -0.07459391 -0.01221307
v 0.04367566 -0.07179438 -0.01710125
v 0.04386798 -0.07167769 -0.01756773
v 0.04433432 -0.07179690 -0.01779851
v 0.04502593 -0.07459894 -0.01291401
v 0.04508416 -0.07461153 -0.01294225
v 0.04047268 -0.06741250 -0.01020354
v 0.04508416 -0.06741250 -0.02274317
v 0.04413794 -0.07540061 -0.01020354
v 0.04391989 -0.07512863 -0.01046992
v 0.04291950 -0.07392991 -0.01158824
v 0.04357454 -0.07395929 -0.01243649
v 0.04370591 -0.07317273 -0.01426311
v 0.04369056 -0.07248356 -0.01568218
v 0.04322467 -0.07232910 -0.01535933
v 0.04304726 -0.07175156 -0.01631315
v 0.04368198 -0.07110352 -0.01850928
v 0.04508416 -0.07214442 -0.01777151
v 0.04508416 -0.07249531 -0.01710125
v 0.04504579 -0.07248775 -0.01708284
v 0.04503631 -0.07319204 -0.01569446
v 0.04502683 -0.07389549 -0.01430485
v 0.04391718 -0.07096837 -0.01897453
v 0.04460202 -0.07166930 -0.01826376
v 0.04482594 -0.07189259 -0.01803053
v 0.04508416 -0.07390725 -0.01433186
v 0.04049661 -0.06741250 -0.01055831
v 0.04057606 -0.06845677 -0.01020354
v 0.04508416 -0.06745700 -0.02272107
v 0.04503270 -0.06741250 -0.02271616
v 0.04354565 -0.07500691 -0.01020354
v 0.04342737 -0.07487344 -0.01031893
v 0.04227123 -0.07319792 -0.01221798
v 0.04292717 -0.07252637 -0.01453318
v 0.04309872 -0.07097508 -0.01761438
v 0.04164824 -0.07315343 -0.01142620
v 0.04352759 -0.07071654 -0.01873638
v 0.04364677 -0.07050164 -0.01923232
v 0.04506836 -0.07177675 -0.01843440
v 0.04508416 -0.07179102 -0.01841967
v 0.04433296 -0.07042022 -0.01986329
v 0.04508416 -0.07030773 -0.02045007
v 0.04438352 -0.07106490 -0.01911447
v 0.04064017 -0.06741250 -0.01243649
v 0.04059954 -0.06859108 -0.01033857
v 0.04059186 -0.06859108 -0.01020354
v 0.04508416 -0.06759215 -0.02265233
v 0.04442460 -0.06762069 -0.02191947
v 0.04437450 -0.06741250 -0.02197962
v 0.04446298 -0.06893945 -0.02117433
v 0.04306351 -0.07467953 -0.01020354
v 0.04229109 -0.07388626 -0.01079768
v 0.04202925 -0.07328606 -0.01169013
v 0.04236061 -0.07174401 -0.01489531
v 0.04299715 -0.07050920 -0.01785375
v 0.04299489 -0.06981666 -0.01855593
v 0.04317908 -0.07002568 -0.01876461
v 0.04219629 -0.07397776 -0.01033857
v 0.04158729 -0.07323234 -0.01103706
v 0.04140762 -0.07278491 -0.01103706
v 0.04157014 -0.07275554 -0.01169013
v 0.04163244 -0.07250286 -0.01217502
v 0.04310098 -0.06957994 -0.01902240
v 0.04354565 -0.06997951 -0.01944960
v 0.04371313 -0.06974027 -0.01983751
v 0.04386707 -0.07020700 -0.01969879
v 0.04508416 -0.07177927 -0.01843808
v 0.04481194 -0.07113710 -0.01921390
v 0.04508416 -0.07131590 -0.01908869
v 0.04440971 -0.06969242 -0.02051881
v 0.04481194 -0.07020364 -0.02036536
v 0.04508416 -0.06952537 -0.02110927
v 0.04508416 -0.07092388 -0.01962514
v 0.04071195 -0.06741250 -0.01313498
v 0.04066229 -0.06859108 -0.01103706
v 0.04063610 -0.06789183 -0.01173677
v 0.04067899 -0.06929033 -0.01020354
v 0.04508416 -0.06761649 -0.02263637
v 0.04368244 -0.06840976 -0.02057282
v 0.04434244 -0.06847356 -0.02131918
v 0.04413929 -0.06741250 -0.02169605
v 0.04508416 -0.06763328 -0.02262532
v 0.04492932 -0.06913084 -0.02133023
v 0.04474242 -0.06933482 -0.02103684
v 0.04290866 -0.07457124 -0.01020354
v 0.04230057 -0.07132849 -0.01517029
v 0.04162973 -0.07182963 -0.01288087
v 0.04162431 -0.07044456 -0.01429380
v 0.04152590 -0.06859611 -0.01593629
v 0.04228206 -0.06854827 -0.01798265
v 0.04234752 -0.06828636 -0.01842335
v 0.04244277 -0.06804041 -0.01888982
v 0.04184642 -0.07368144 -0.01033857
v 0.04225362 -0.07406338 -0.01020354
v 0.04151596 -0.07333139 -0.01033857
v 0.04137331 -0.07208566 -0.01173677
v 0.04131507 -0.07278491 -0.01033857
v 0.04096385 -0.06965549 -0.01210873
v 0.04095843 -0.06759215 -0.01495301
v 0.04155479 -0.07207139 -0.01241930
v 0.04235294 -0.06757452 -0.01909728
v 0.04299985 -0.06911405 -0.01918444
v 0.04314567 -0.06873546 -0.01964969
v 0.04324499 -0.06932391 -0.01942136
v 0.04361201 -0.06929033 -0.01997009
v 0.04508416 -0.07116480 -0.01929738
v 0.04508416 -0.06938519 -0.02122466
v 0.04073768 -0.06741250 -0.01335348
v 0.04070879 -0.06789183 -0.01243649
v 0.04069253 -0.06929033 -0.01033857
v 0.04079321 -0.06998958 -0.01020354
v 0.04343188 -0.06741250 -0.02082325
v 0.04373525 -0.06741250 -0.02120870
v 0.04508416 -0.06918288 -0.02139038
v 0.04154756 -0.07137718 -0.01312270
v 0.04154079 -0.07068212 -0.01382610
v 0.04153538 -0.06998706 -0.01452950
v 0.04134171 -0.06741250 -0.01663232
v 0.04152138 -0.06790106 -0.01663846
v 0.04155975 -0.06741250 -0.01724242
v 0.04228251 -0.06784146 -0.01868482
v 0.04183062 -0.07369151 -0.01020354
v 0.04156337 -0.07340946 -0.01020354
v 0.04150829 -0.07334230 -0.01020354
v 0.04101667 -0.06741250 -0.01542930
v 0.04113766 -0.06741250 -0.01595225
v 0.04130514 -0.07278491 -0.01020354
v 0.04093722 -0.07085253 -0.01020354
v 0.04094173 -0.06978812 -0.01173677
v 0.04085866 -0.06929033 -0.01173677
v 0.04079682 -0.06741250 -0.01385065
v 0.04087808 -0.06741250 -0.01453318
v 0.04094173 -0.06741250 -0.01506717
v 0.04232224 -0.06741250 -0.01914761
v 0.04298044 -0.06789183 -0.01990993
v 0.04305312 -0.06826957 -0.01979331
v 0.04214257 -0.06741250 -0.01871305
v 0.04223331 -0.06741250 -0.01894015
v 0.04311452 -0.06741250 -0.02040710
v 0.04311723 -0.06742510 -0.02040342
v 0.04080901 -0.06998958 -0.01033857
v 0.04090968 -0.07068800 -0.01020354
v 0.04239673 -0.06741250 -0.01926669
v 0.04290641 -0.06741250 -0.02007688
v 0.04310369 -0.06741250 -0.02038992
f 1 2 8
f 1 8 18
f 1 18 39
f 1 39 57
f 1 57 88
f 1 88 122
f 1 122 153
f 1 153 139
f 1 139 138
f 1 138 135
f 1 135 134
f 1 134 133
f 1 133 105
f 1 105 96
f 1 96 62
f 1 62 42
f 1 42 20
f 1 20 10
f 1 10 3
f 1 3 4
f 1 4 5
f 1 5 6
f 1 6 7
f 1 7 17
f 1 17 37
f 1 37 30
f 1 30 29
f 1 29 51
f 1 51 78
f 1 78 80
f 1 80 117
f 1 117 84
f 1 84 53
f 1 53 83
f 1 83 118
f 1 118 125
f 1 125 93
f 1 93 89
f 1 89 58
f 1 58 40
f 1 40 19
f 1 19 9
f 1 9 2
f 2 9 8
f 3 10 11
f 3 11 12
f 3 12 4
f 4 12 13
f 4 13 14
f 4 14 5
f 5 14 15
f 5 15 16
f 5 16 6
f 6 16 7
f 7 16 17
f 8 9 19
f 8 19 41
f 8 41 60
f 8 60 92
f 8 92 124
f 8 124 123
f 8 123 150
f 8 150 156
f 8 156 155
f 8 155 154
f 8 154 145
f 8 145 149
f 8 149 148
f 8 148 131
f 8 131 129
f 8 129 137
f 8 137 136
f 8 136 144
f 8 144 143
f 8 143 142
f 8 142 119
f 8 119 85
f 8 85 55
f 8 55 38
f 8 38 18
f 10 20 11
f 11 20 21
f 11 21 22
f 11 22 23
f 11 23 24
f 11 24 25
f 11 25 13
f 11 13 12
f 13 25 26
f 13 26 27
f 13 27 28
f 13 28 14
f 14 28 15
f 15 29 30
f 15 30 31
f 15 31 32
f 15 32 33
f 15 33 16
f 15 28 34
f 15 34 35
f 15 35 36
f 15 36 29
f 16 33 17
f 17 33 37
f 18 38 39
f 19 40 41
f 20 42 43
f 20 43 21
f 21 43 22
f 22 43 44
f 22 44 26
f 22 26 23
f 23 26 24
f 24 26 25
f 26 44 45
f 26 45 27
f 27 46 28
f 27 45 44
f 27 44 47
f 27 47 46
f 28 48 49
f 28 49 34
f 28 46 48
f 29 36 50
f 29 50 51
f 30 32 31
f 30 37 32
f 32 37 33
f 34 49 52
f 34 52 53
f 34 53 54
f 34 54 50
f 34 50 35
f 35 50 36
f 38 55 56
f 38 56 39
f 39 56 57
f 40 58 41
f 41 59 60
f 41 58 61
f 41 61 59
f 42 62 63
f 42 63 43
f 43 63 44
f 44 63 64
f 44 64 47
f 46 47 65
f 46 65 66
f 46 66 67
f 46 67 68
f 46 68 49
f 46 49 48
f 47 64 63
f 47 63 69
f 47 69 70
f 47 70 71
f 47 71 72
f 47 72 73
f 47 73 65
f 49 68 74
f 49 74 75
f 49 75 76
f 49 76 77
f 49 77 52
f 50 78 51
f 50 54 79
f 50 79 80
f 50 80 78
f 52 77 81
f 52 81 82
f 52 82 53
f 53 82 83
f 53 84 54
f 54 84 79
f 55 85 86
f 55 86 87
f 55 87 56
f 56 88 57
f 56 87 86
f 56 86 88
f 58 89 61
f 59 90 60
f 59 61 91
f 59 91 76
f 59 76 90
f 60 90 92
f 61 89 93
f 61 93 94
f 61 94 95
f 61 95 81
f 61 81 77
f 61 77 76
f 61 76 91
f 62 96 63
f 63 96 69
f 65 97 66
f 65 73 98
f 65 98 97
f 66 97 99
f 66 99 100
f 66 100 101
f 66 101 102
f 66 102 67
f 67 102 103
f 67 103 74
f 67 74 68
f 69 104 70
f 69 96 105
f 69 105 104
f 70 104 106
f 70 106 71
f 71 107 72
f 71 106 108
f 71 108 109
f 71 109 110
f 71 110 107
f 72 107 111
f 72 111 73
f 73 111 98
f 74 112 113
f 74 113 75
f 74 103 112
f 75 114 76
f 75 113 115
f 75 115 114
f 76 114 116
f 76 116 90
f 79 117 80
f 79 84 117
f 81 95 83
f 81 83 82
f 83 94 118
f 83 95 94
f 85 119 120
f 85 120 121
f 85 121 86
f 86 121 88
f 88 121 122
f 90 116 123
f 90 123 124
f 90 124 92
f 93 125 94
f 94 125 118
f 97 98 99
f 98 111 126
f 98 126 127
f 98 127 128
f 98 128 99
f 99 128 100
f 100 129 130
f 100 130 131
f 100 131 101
f 100 128 129
f 101 131 102
f 102 132 103
f 102 131 132
f 103 132 112
f 104 105 133
f 104 133 134
f 104 134 106
f 106 134 135
f 106 135 108
f 107 110 136
f 107 136 137
f 107 137 111
f 108 135 138
f 108 138 139
f 108 139 109
f 109 139 140
f 109 140 141
f 109 141 142
f 109 142 143
f 109 143 144
f 109 144 110
f 110 144 136
f 111 137 129
f 111 129 126
f 112 145 146
f 112 146 147
f 112 147 113
f 112 132 148
f 112 148 149
f 112 149 145
f 113 147 114
f 113 114 115
f 114 147 150
f 114 150 151
f 114 151 116
f 116 151 123
f 119 142 152
f 119 152 121
f 119 121 120
f 121 152 122
f 122 152 153
f 123 151 150
f 126 129 127
f 127 129 128
f 129 131 130
f 131 148 132
f 139 153 140
f 140 153 152
f 140 152 141
f 141 152 142
f 145 154 146
f 146 154 155
f 146 155 156
f 146 156 150
f 146 150 147

