# https://github.com/mikedh/trimesh
v 0.05591600 -0.06531748 -0.01489834
v 0.05611956 -0.06531323 -0.01489834
v 0.05591600 -0.06444995 -0.01489834
v 0.05591600 -0.06483843 -0.01573380
v 0.05632097 -0.06483453 -0.01572660
v 0.05632097 -0.06530898 -0.01489834
v 0.05614148 -0.06444500 -0.01489834
v 0.05591600 -0.06170337 -0.01877087
v 0.05591600 -0.06405581 -0.01699571
v 0.05599921 -0.06405581 -0.01699609
v 0.05632097 -0.06405263 -0.01699116
v 0.05632097 -0.06444110 -0.01489834
v 0.05599921 -0.06171716 -0.01877087
v 0.05591600 -0.06275169 -0.01877087
v 0.05591600 -0.06382301 -0.01733687
v 0.05599921 -0.06382159 -0.01734558
v 0.05632097 -0.06347734 -0.01786566
v 0.05632097 -0.06384424 -0.01731109
v 0.05632097 -0.06178085 -0.01877087
v 0.05593816 -0.06275452 -0.01877087
v 0.05591600 -0.06285358 -0.01864540
v 0.05591600 -0.06346850 -0.01784330
v 0.05599921 -0.06347239 -0.01784936
v 0.05632097 -0.06322154 -0.01821554
v 0.05632097 -0.06279733 -0.01877087
v 0.05599921 -0.06276230 -0.01877087
v 0.05599921 -0.06285854 -0.01865146
v 0.05591600 -0.06316175 -0.01824662
v 0.05591600 -0.06320314 -0.01819279
v 0.05599921 -0.06320810 -0.01819886
v 0.05632097 -0.06285075 -0.01870453
v 0.05624926 -0.06278954 -0.01877087
f 1 2 6
f 1 6 12
f 1 12 7
f 1 7 3
f 1 3 8
f 1 8 14
f 1 14 21
f 1 21 28
f 1 28 29
f 1 29 22
f 1 22 15
f 1 15 9
f 1 9 4
f 1 4 5
f 1 5 2
f 2 5 6
f 3 7 8
f 4 9 10
f 4 10 11
f 4 11 5
f 5 11 18
f 5 18 17
f 5 17 24
f 5 24 31
f 5 31 25
f 5 25 19
f 5 19 12
f 5 12 6
f 7 12 8
f 8 13 19
f 8 19 25
f 8 25 32
f 8 32 26
f 8 26 20
f 8 20 14
f 8 12 13
f 9 15 16
f 9 16 17
f 9 17 10
f 10 17 18
f 10 18 11
f 12 19 13
f 14 20 21
f 15 22 23
f 15 23 16
f 16 23 17
f 17 23 24
f 20 26 21
f 21 26 27
f 21 27 28
f 22 29 30
f 22 30 23
f 23 30 24
f 24 30 31
f 25 31 32
f 26 32 27
f 27 32 31
f 27 31 30
f 27 30 28
f 28 30 29

