# https://github.com/mikedh/trimesh
v 0.05966656 -0.04490624 0.02385854
v 0.06050557 -0.04490624 0.02385854
v 0.06035887 -0.04490624 0.02582701
v 0.06039630 -0.04411702 0.02582701
v 0.06043108 -0.04341903 0.02582701
v 0.06050103 -0.04202659 0.02582701
v 0.06053922 -0.04132152 0.02582701
v 0.06053279 -0.04082726 0.02571158
v 0.06047305 -0.04060581 0.02536837
v 0.06023712 -0.04132152 0.02462223
v 0.06031954 -0.04062176 0.02462223
v 0.06020762 -0.04062176 0.02392310
v 0.06019023 -0.04068642 0.02385854
v 0.06062013 -0.04490624 0.02408304
v 0.06056682 -0.04459533 0.02385854
v 0.06352925 -0.03881124 0.02559788
v 0.06352925 -0.03911772 0.02569539
v 0.06352925 -0.03949328 0.02582701
v 0.06113511 -0.04490624 0.02582701
v 0.06058648 -0.04072982 0.02582701
v 0.06061824 -0.04049952 0.02582701
v 0.06057022 -0.04036223 0.02563296
v 0.06050859 -0.04004246 0.02516680
v 0.06029988 -0.03992377 0.02392310
v 0.06053771 -0.03883427 0.02430735
v 0.06049082 -0.03860663 0.02385854
v 0.06028967 -0.03992377 0.02385854
v 0.06063564 -0.04490624 0.02412312
v 0.06188602 -0.03585896 0.02385854
v 0.06352925 -0.03782626 0.02541539
v 0.06083112 -0.04490624 0.02471183
v 0.06080314 -0.04490624 0.02461471
v 0.06352925 -0.03646306 0.02582701
v 0.06090447 -0.03852514 0.02582701
v 0.06130601 -0.03585896 0.02582701
v 0.06039592 -0.03922401 0.02385854
v 0.06050746 -0.03850033 0.02385854
v 0.06050330 -0.03857031 0.02389573
v 0.06049687 -0.03856765 0.02385854
v 0.06106365 -0.03585896 0.02385854
v 0.06197072 -0.03585896 0.02410482
v 0.06352925 -0.03650115 0.02540383
v 0.06352925 -0.03712650 0.02534120
v 0.06210003 -0.03585896 0.02463475
v 0.06211931 -0.03585896 0.02475230
v 0.06214200 -0.03585896 0.02532135
v 0.06213254 -0.03585896 0.02544122
v 0.06205050 -0.03585896 0.02582701
v 0.06198887 -0.03585896 0.02416802
f 1 2 14
f 1 14 28
f 1 28 32
f 1 32 31
f 1 31 19
f 1 19 3
f 1 3 4
f 1 4 5
f 1 5 6
f 1 6 7
f 1 7 8
f 1 8 9
f 1 9 10
f 1 10 11
f 1 11 12
f 1 12 13
f 1 13 27
f 1 27 36
f 1 36 26
f 1 26 39
f 1 39 37
f 1 37 40
f 1 40 29
f 1 29 15
f 1 15 2
f 2 15 16
f 2 16 17
f 2 17 18
f 2 18 14
f 3 19 18
f 3 18 33
f 3 33 48
f 3 48 35
f 3 35 34
f 3 34 21
f 3 21 20
f 3 20 7
f 3 7 6
f 3 6 5
f 3 5 4
f 7 20 8
f 8 20 21
f 8 21 22
f 8 22 9
f 9 22 23
f 9 23 11
f 9 11 10
f 11 24 12
f 11 23 25
f 11 25 26
f 11 26 24
f 12 24 27
f 12 27 13
f 14 18 28
f 15 29 30
f 15 30 16
f 16 30 43
f 16 43 42
f 16 42 33
f 16 33 18
f 16 18 17
f 18 19 31
f 18 31 32
f 18 32 28
f 21 34 22
f 22 34 35
f 22 35 23
f 23 35 25
f 24 26 36
f 24 36 27
f 25 35 37
f 25 37 38
f 25 38 39
f 25 39 26
f 29 40 35
f 29 35 48
f 29 48 47
f 29 47 46
f 29 46 45
f 29 45 44
f 29 44 49
f 29 49 41
f 29 41 42
f 29 42 43
f 29 43 30
f 33 42 44
f 33 44 45
f 33 45 46
f 33 46 47
f 33 47 48
f 35 40 37
f 37 39 38
f 41 49 42
f 42 49 44

