# https://github.com/mikedh/trimesh
v 0.06059449 -0.07029358 0.00442469
v 0.05992472 -0.07029358 0.00423107
v 0.06089371 -0.07029358 0.00439794
v 0.06159263 -0.06509267 0.00438457
v 0.06159263 -0.06439456 0.00438725
v 0.06159263 -0.06159802 0.00437922
v 0.06159263 -0.06089785 0.00437494
v 0.06159263 -0.06019975 0.00435676
v 0.05963403 -0.07029358 0.00367215
v 0.06175951 -0.05390855 0.00416314
v 0.06179495 -0.05320839 0.00414228
v 0.06183174 -0.05251028 0.00411394
v 0.06186942 -0.05181012 0.00407971
v 0.06190710 -0.05111201 0.00403959
v 0.06193088 -0.05065824 0.00401071
v 0.06128758 -0.07029358 0.00432948
v 0.06159263 -0.06858937 0.00432199
v 0.06229156 -0.06509267 0.00429258
v 0.06229156 -0.06439456 0.00430862
v 0.06229156 -0.06299629 0.00433376
v 0.06229156 -0.06229612 0.00434446
v 0.06229156 -0.06159802 0.00434874
v 0.06229156 -0.06089785 0.00434713
v 0.06229156 -0.05600493 0.00433216
v 0.06229156 -0.05530683 0.00433002
v 0.06229156 -0.05460666 0.00432734
v 0.06229156 -0.05390855 0.00431718
v 0.06229156 -0.05320839 0.00429525
v 0.05979777 -0.06509267 0.00270566
v 0.05904591 -0.07029358 0.00220985
v 0.06229156 -0.05251028 0.00426583
v 0.06229156 -0.05181012 0.00423053
v 0.06229156 -0.05111201 0.00418935
v 0.06223862 -0.05042006 0.00412356
v 0.06197036 -0.05019215 0.00391711
v 0.06188422 -0.05042006 0.00366894
v 0.06123240 -0.05487359 0.00332877
v 0.05982648 -0.06460399 0.00264095
v 0.06159263 -0.07029358 0.00427011
v 0.06159263 -0.06928953 0.00430327
v 0.06229156 -0.06579283 0.00426904
v 0.06299093 -0.06229612 0.00423107
v 0.06299093 -0.06159802 0.00425032
v 0.06299093 -0.06019975 0.00427600
v 0.06299093 -0.05950164 0.00428776
v 0.06299093 -0.05880353 0.00429472
v 0.06352925 -0.05546698 0.00425353
v 0.06352925 -0.05406871 0.00424925
v 0.06352925 -0.05251028 0.00424444
v 0.06299093 -0.05041185 0.00427118
v 0.05905847 -0.06998764 0.00214300
v 0.05896651 -0.07029358 0.00188359
v 0.06247100 -0.04971374 0.00407703
v 0.06261904 -0.04935647 0.00400483
v 0.06191518 -0.04995603 0.00345072
v 0.06175413 -0.05041185 0.00294688
v 0.06119382 -0.05462719 0.00294688
v 0.06101079 -0.05600493 0.00294688
v 0.05978162 -0.06438018 0.00227511
v 0.05913384 -0.06885013 0.00193708
v 0.05910468 -0.06928953 0.00202319
v 0.06198695 -0.07029358 0.00417277
v 0.06352925 -0.06242343 0.00409575
v 0.06299093 -0.06299629 0.00420593
v 0.06352925 -0.06106006 0.00414603
v 0.06352925 -0.06035990 0.00417010
v 0.06352925 -0.05966384 0.00419363
v 0.06352925 -0.05896368 0.00421288
v 0.06352925 -0.05826557 0.00422626
v 0.06352925 -0.05756541 0.00423588
v 0.06352925 -0.05686525 0.00424498
v 0.06352925 -0.05616714 0.00425193
v 0.06352925 -0.05041185 0.00423749
v 0.06352925 -0.04996013 0.00414817
v 0.06295370 -0.04967268 0.00411126
v 0.05894632 -0.07029358 0.00154877
v 0.06269575 -0.04935647 0.00400483
v 0.06187974 -0.04931746 0.00154877
v 0.06191249 -0.04934005 0.00212321
v 0.06187122 -0.04981025 0.00294688
v 0.06163839 -0.05041185 0.00224729
v 0.06123599 -0.05210374 0.00124284
v 0.05981706 -0.06383402 0.00206063
v 0.06052226 -0.05758594 0.00132895
v 0.06253919 -0.07029358 0.00403478
v 0.06334308 -0.06615831 0.00399627
v 0.06352925 -0.06307020 0.00407061
v 0.06352925 -0.06182593 0.00411821
v 0.06352925 -0.04979177 0.00411126
v 0.05982827 -0.06318929 0.00116154
v 0.05905488 -0.07029358 0.00106206
v 0.06052226 -0.05758594 0.00113373
v 0.06269575 -0.04935647 0.00394332
v 0.06202105 -0.04931746 0.00154877
v 0.06352925 -0.04978355 0.00376147
v 0.06188019 -0.04932157 0.00084972
v 0.06169626 -0.04971374 0.00084972
v 0.06169895 -0.04971374 0.00154877
v 0.06181963 -0.04964393 0.00231308
v 0.06155540 -0.05041185 0.00154877
v 0.06154643 -0.05041185 0.00084972
v 0.06123599 -0.05210374 0.00114924
v 0.06266704 -0.07029358 0.00400215
v 0.06352925 -0.06597762 0.00394653
v 0.06352925 -0.06552180 0.00396685
v 0.06352925 -0.06491609 0.00399359
v 0.06348215 -0.06439456 0.00403050
v 0.06277695 -0.07029358 0.00397006
v 0.06304073 -0.06998764 0.00390588
v 0.06352925 -0.06369440 0.00404601
v 0.06125214 -0.05290656 0.00052506
v 0.05959186 -0.07029358 0.00011643
v 0.06122388 -0.05337265 0.00047425
v 0.06053079 -0.05972750 0.00047960
v 0.06120908 -0.05251028 0.00100536
v 0.06264326 -0.04936263 -0.00020020
v 0.06204617 -0.04932157 0.00084972
v 0.06352925 -0.04990470 -0.00056230
v 0.06264057 -0.04936263 -0.00020020
v 0.06191338 -0.04934415 0.00046783
v 0.06183667 -0.04971374 0.00038065
v 0.06175368 -0.05041185 0.00028652
v 0.06128085 -0.05251028 0.00065557
v 0.06352925 -0.06946200 0.00372349
v 0.06352925 -0.06379911 0.00404173
v 0.06299183 -0.07029358 0.00389946
v 0.06352925 -0.06998764 0.00367963
v 0.05981796 -0.07029358 -0.00022320
v 0.06206815 -0.05041185 -0.00006274
v 0.06150785 -0.05390855 0.00008808
v 0.06146568 -0.05460666 0.00004155
v 0.06352925 -0.04998888 -0.00076501
v 0.06342204 -0.05002584 -0.00090888
v 0.06253963 -0.04971374 -0.00030878
v 0.06330585 -0.05002584 -0.00090888
v 0.06218972 -0.04971374 0.00003086
v 0.06241806 -0.05041185 -0.00044035
v 0.06335250 -0.07029358 0.00373205
v 0.06352925 -0.07013342 0.00366573
v 0.06084391 -0.06788921 -0.00072008
v 0.06077438 -0.06928953 -0.00076126
v 0.06016069 -0.07029358 -0.00043500
v 0.06142351 -0.05530683 -0.00000445
v 0.06138134 -0.05600493 -0.00004991
v 0.06189948 -0.05320839 -0.00024513
v 0.06237814 -0.05111201 -0.00047940
v 0.06263967 -0.05283675 -0.00089979
v 0.06192774 -0.05274025 -0.00021464
v 0.06352925 -0.05013466 -0.00087626
v 0.06352925 -0.05041185 -0.00088856
v 0.06345748 -0.05041185 -0.00091316
v 0.06293082 -0.05041185 -0.00078961
v 0.06328073 -0.05041185 -0.00091316
v 0.06256610 -0.05460666 -0.00093777
v 0.06259436 -0.05390855 -0.00092600
v 0.06262397 -0.05320839 -0.00090942
v 0.06352925 -0.07029358 0.00364540
v 0.06194165 -0.05984453 -0.00089872
v 0.06112384 -0.06928953 -0.00096397
v 0.06108930 -0.06998764 -0.00098055
v 0.06073984 -0.06998764 -0.00077517
v 0.06122164 -0.06732045 -0.00091102
v 0.06119337 -0.06788921 -0.00092707
v 0.06115883 -0.06858937 -0.00094632
v 0.06072458 -0.07029358 -0.00077945
v 0.06185507 -0.06159802 -0.00094525
v 0.06188961 -0.06089785 -0.00092760
v 0.06343505 -0.05181012 -0.00091049
v 0.06352925 -0.05756130 -0.00083347
v 0.06336821 -0.05600493 -0.00090193
v 0.06299093 -0.05530683 -0.00094953
v 0.06299093 -0.05670510 -0.00094739
v 0.06229156 -0.06439456 -0.00100516
v 0.06229156 -0.06369440 -0.00100676
v 0.06299093 -0.05460666 -0.00094418
v 0.06254278 -0.05530683 -0.00094472
v 0.06179495 -0.06299629 -0.00097039
v 0.06182232 -0.06229612 -0.00096023
v 0.06352925 -0.07029358 -0.00044249
v 0.06107405 -0.07029358 -0.00098644
v 0.06087711 -0.07029358 -0.00087037
v 0.06334039 -0.05774405 -0.00089819
v 0.06352925 -0.06299629 -0.00075752
v 0.06334757 -0.05727796 -0.00089926
v 0.06290659 -0.06299629 -0.00093242
v 0.06229156 -0.06299629 -0.00100409
v 0.06229156 -0.06509267 -0.00100248
v 0.06159263 -0.07029358 -0.00103832
v 0.06159263 -0.06998764 -0.00103939
v 0.06209686 -0.07029358 -0.00095007
v 0.06264865 -0.06759148 -0.00090086
v 0.06352925 -0.06843332 -0.00054197
v 0.06325606 -0.06299629 -0.00084577
v 0.06352925 -0.06343568 -0.00074629
v 0.06271908 -0.06649094 -0.00092279
v 0.06286756 -0.06369440 -0.00093081
v 0.06229156 -0.06649094 -0.00099393
v 0.06229156 -0.06579283 -0.00099927
v 0.06216236 -0.06928953 -0.00096397
v 0.06211884 -0.06998764 -0.00095702
v 0.06267870 -0.06719110 -0.00091102
v 0.06352925 -0.06369440 -0.00073720
v 0.06229156 -0.06719110 -0.00098109
f 1 2 9
f 1 9 30
f 1 30 52
f 1 52 76
f 1 76 91
f 1 91 112
f 1 112 128
f 1 128 142
f 1 142 165
f 1 165 181
f 1 181 180
f 1 180 188
f 1 188 190
f 1 190 179
f 1 179 157
f 1 157 138
f 1 138 126
f 1 126 108
f 1 108 103
f 1 103 85
f 1 85 62
f 1 62 39
f 1 39 16
f 1 16 3
f 1 3 4
f 1 4 5
f 1 5 6
f 1 6 7
f 1 7 8
f 1 8 2
f 2 8 10
f 2 10 11
f 2 11 12
f 2 12 13
f 2 13 14
f 2 14 15
f 2 15 9
f 3 16 17
f 3 17 18
f 3 18 19
f 3 19 20
f 3 20 21
f 3 21 4
f 4 21 22
f 4 22 5
f 5 22 23
f 5 23 6
f 6 23 24
f 6 24 25
f 6 25 26
f 6 26 7
f 7 26 27
f 7 27 8
f 8 27 28
f 8 28 10
f 9 29 30
f 9 15 29
f 10 28 31
f 10 31 11
f 11 31 32
f 11 32 12
f 12 32 33
f 12 33 34
f 12 34 13
f 13 34 14
f 14 34 15
f 15 34 35
f 15 35 36
f 15 36 37
f 15 37 38
f 15 38 29
f 16 39 40
f 16 40 17
f 17 40 18
f 18 41 42
f 18 42 43
f 18 43 19
f 18 40 39
f 18 39 41
f 19 43 44
f 19 44 20
f 20 44 45
f 20 45 21
f 21 45 46
f 21 46 22
f 22 46 47
f 22 47 23
f 23 47 48
f 23 48 24
f 24 48 25
f 25 48 49
f 25 49 50
f 25 50 26
f 26 50 27
f 27 50 28
f 28 50 31
f 29 38 30
f 30 51 52
f 30 38 51
f 31 50 32
f 32 50 33
f 33 50 34
f 34 50 53
f 34 53 35
f 35 53 54
f 35 54 55
f 35 55 36
f 36 55 56
f 36 56 57
f 36 57 58
f 36 58 37
f 37 58 59
f 37 59 38
f 38 59 60
f 38 60 61
f 38 61 51
f 39 62 63
f 39 63 64
f 39 64 41
f 41 64 42
f 42 64 65
f 42 65 66
f 42 66 67
f 42 67 43
f 43 67 68
f 43 68 69
f 43 69 44
f 44 69 45
f 45 69 70
f 45 70 71
f 45 71 72
f 45 72 46
f 46 72 47
f 47 72 71
f 47 71 70
f 47 70 69
f 47 69 68
f 47 68 67
f 47 67 66
f 47 66 65
f 47 65 88
f 47 88 63
f 47 63 87
f 47 87 110
f 47 110 125
f 47 125 106
f 47 106 105
f 47 105 104
f 47 104 124
f 47 124 127
f 47 127 139
f 47 139 157
f 47 157 179
f 47 179 192
f 47 192 202
f 47 202 194
f 47 194 183
f 47 183 169
f 47 169 150
f 47 150 149
f 47 149 132
f 47 132 118
f 47 118 95
f 47 95 89
f 47 89 74
f 47 74 73
f 47 73 49
f 47 49 48
f 49 73 50
f 50 73 74
f 50 74 75
f 50 75 53
f 51 61 52
f 52 61 60
f 52 60 76
f 53 75 54
f 54 75 77
f 54 77 94
f 54 94 78
f 54 78 79
f 54 79 55
f 55 79 80
f 55 80 81
f 55 81 56
f 56 81 82
f 56 82 83
f 56 83 57
f 57 83 59
f 57 59 58
f 59 83 60
f 60 83 84
f 60 84 76
f 62 85 86
f 62 86 87
f 62 87 63
f 63 88 64
f 64 88 65
f 74 89 75
f 75 89 77
f 76 90 91
f 76 84 92
f 76 92 90
f 77 93 94
f 77 89 95
f 77 95 93
f 78 94 117
f 78 117 96
f 78 96 97
f 78 97 98
f 78 98 79
f 79 98 99
f 79 99 80
f 80 99 81
f 81 99 98
f 81 98 100
f 81 100 82
f 82 100 101
f 82 101 102
f 82 102 92
f 82 92 84
f 82 84 83
f 85 103 86
f 86 104 105
f 86 105 106
f 86 106 107
f 86 107 87
f 86 103 108
f 86 108 109
f 86 109 104
f 87 107 110
f 90 92 111
f 90 111 91
f 91 111 113
f 91 113 114
f 91 114 112
f 92 102 115
f 92 115 111
f 93 116 94
f 93 95 116
f 94 116 117
f 95 118 116
f 96 117 116
f 96 116 119
f 96 119 120
f 96 120 97
f 97 120 121
f 97 121 101
f 97 101 98
f 98 101 100
f 101 121 122
f 101 122 111
f 101 111 123
f 101 123 102
f 102 123 111
f 102 111 115
f 104 109 124
f 106 125 107
f 107 125 110
f 108 126 109
f 109 126 127
f 109 127 124
f 111 122 113
f 112 114 113
f 112 113 128
f 113 122 129
f 113 129 130
f 113 130 131
f 113 131 128
f 116 118 132
f 116 132 133
f 116 133 135
f 116 135 119
f 119 134 120
f 119 135 134
f 120 134 136
f 120 136 121
f 121 136 137
f 121 137 129
f 121 129 122
f 126 138 139
f 126 139 127
f 128 140 141
f 128 141 142
f 128 131 143
f 128 143 144
f 128 144 145
f 128 145 137
f 128 137 146
f 128 146 147
f 128 147 140
f 129 137 148
f 129 148 143
f 129 143 131
f 129 131 130
f 132 149 133
f 133 149 150
f 133 150 151
f 133 151 153
f 133 153 135
f 134 135 152
f 134 152 137
f 134 137 136
f 135 153 154
f 135 154 155
f 135 155 156
f 135 156 147
f 135 147 152
f 137 145 148
f 137 152 147
f 137 147 146
f 138 157 139
f 140 147 158
f 140 158 141
f 141 159 160
f 141 160 161
f 141 161 142
f 141 158 162
f 141 162 163
f 141 163 164
f 141 164 159
f 142 161 165
f 143 148 144
f 144 148 145
f 147 156 166
f 147 166 167
f 147 167 164
f 147 164 163
f 147 163 158
f 150 168 151
f 150 169 170
f 150 170 168
f 151 171 153
f 151 168 172
f 151 172 173
f 151 173 174
f 151 174 171
f 153 171 175
f 153 175 176
f 153 176 154
f 154 176 177
f 154 177 178
f 154 178 155
f 155 178 166
f 155 166 156
f 158 163 162
f 159 164 167
f 159 167 166
f 159 166 160
f 160 180 161
f 160 166 178
f 160 178 180
f 161 180 181
f 161 181 165
f 168 170 172
f 169 182 170
f 169 183 182
f 170 182 184
f 170 184 185
f 170 185 172
f 171 174 186
f 171 186 175
f 172 185 187
f 172 187 173
f 173 187 188
f 173 188 189
f 173 189 174
f 174 189 186
f 175 186 176
f 176 186 189
f 176 189 177
f 177 189 180
f 177 180 178
f 179 190 191
f 179 191 192
f 180 189 188
f 182 183 193
f 182 193 185
f 182 185 184
f 183 194 193
f 185 193 195
f 185 195 196
f 185 196 197
f 185 197 198
f 185 198 187
f 187 198 188
f 188 199 200
f 188 200 190
f 188 198 197
f 188 197 199
f 190 200 201
f 190 201 191
f 191 201 192
f 192 201 202
f 193 194 195
f 194 202 195
f 195 197 196
f 195 202 201
f 195 201 200
f 195 200 199
f 195 199 203
f 195 203 197
f 197 203 199

