# https://github.com/mikedh/trimesh
v 0.05331946 -0.03666770 0.02392775
v 0.05324531 -0.03712747 0.01922232
v 0.05325271 -0.03679529 0.01922232
v 0.05325550 -0.03666770 0.01922232
v 0.05255784 -0.03666770 0.02392775
v 0.05320215 -0.03782592 0.02392775
v 0.05319995 -0.03782592 0.01922232
v 0.05255784 -0.03666770 0.01922232
v 0.05144248 -0.04644380 0.01922232
v 0.05144248 -0.04646029 0.02392775
v 0.05304087 -0.03922502 0.01922232
v 0.05309842 -0.03871905 0.01922232
v 0.05317796 -0.03801950 0.01922232
v 0.05217932 -0.04678917 0.02392775
v 0.05217932 -0.04678917 0.01922232
v 0.05127801 -0.04790449 0.01922232
v 0.05127801 -0.04790449 0.02083640
v 0.05127841 -0.04790229 0.02392775
v 0.05131178 -0.04760861 0.02392775
v 0.05191912 -0.04790449 0.02392775
v 0.05191912 -0.04790449 0.01922232
v 0.05127821 -0.04790449 0.02392268
v 0.05128860 -0.04790449 0.02392775
f 1 2 3
f 1 3 4
f 1 4 8
f 1 8 5
f 1 5 10
f 1 10 19
f 1 19 18
f 1 18 23
f 1 23 20
f 1 20 14
f 1 14 6
f 1 6 7
f 1 7 2
f 2 7 13
f 2 13 12
f 2 12 11
f 2 11 15
f 2 15 21
f 2 21 16
f 2 16 9
f 2 9 8
f 2 8 4
f 2 4 3
f 5 8 9
f 5 9 10
f 6 11 12
f 6 12 13
f 6 13 7
f 6 14 15
f 6 15 11
f 9 16 17
f 9 17 18
f 9 18 19
f 9 19 10
f 14 20 21
f 14 21 15
f 16 21 20
f 16 20 23
f 16 23 22
f 16 22 17
f 17 22 18
f 18 22 23

