# https://github.com/mikedh/trimesh
v 0.06352946 -0.07194733 0.00922487
v 0.06352946 -0.07194151 0.00908979
v 0.06354231 -0.07193763 0.00924061
v 0.06355898 -0.07189690 0.00993962
v 0.06352946 -0.07191533 0.00990290
v 0.06352946 -0.07155752 0.00908979
v 0.06407856 -0.07110662 0.01219270
v 0.06412134 -0.07115316 0.01273696
v 0.06414604 -0.07115025 0.01343597
v 0.06353327 -0.07184066 0.01063862
v 0.06352946 -0.07184260 0.01063338
v 0.06407856 -0.07098929 0.01219270
v 0.06352946 -0.06204117 0.02248635
v 0.06510125 -0.06332986 0.02248635
v 0.06538504 -0.06371094 0.02248635
v 0.06558086 -0.06428983 0.02248635
v 0.06474536 -0.06895880 0.01656642
v 0.06475600 -0.06896850 0.01692970
v 0.06411150 -0.07110371 0.01391465
v 0.06475520 -0.06895880 0.01731658
v 0.06352946 -0.07183775 0.01067403
v 0.06546939 -0.06605560 0.02136243
v 0.06474536 -0.06892680 0.01656642
v 0.06352946 -0.06467770 0.02248635
v 0.06555254 -0.06508690 0.02248635
v 0.06553808 -0.06509466 0.02202078
v 0.06546939 -0.06619233 0.02136243
v 0.06546939 -0.06619233 0.02158669
v 0.06369053 -0.07110953 0.01391727
v 0.06369053 -0.07127243 0.01343597
v 0.06474757 -0.06824706 0.01868967
v 0.06408117 -0.07036191 0.01522086
v 0.06352946 -0.07146152 0.01260581
v 0.06357103 -0.06470291 0.02248635
v 0.06352946 -0.06499770 0.02225422
v 0.06554612 -0.06515963 0.02248635
v 0.06550133 -0.06559598 0.02228307
v 0.06508880 -0.06600324 0.02200111
v 0.06508880 -0.06624566 0.02165226
v 0.06352946 -0.07109498 0.01388842
v 0.06352946 -0.07112504 0.01381367
v 0.06352946 -0.07131704 0.01327466
v 0.06397874 -0.07036191 0.01522086
v 0.06478713 -0.06685558 0.02079456
v 0.06471804 -0.06824706 0.01868967
v 0.06366623 -0.06476013 0.02248635
v 0.06369053 -0.06532447 0.02208767
v 0.06352946 -0.06526726 0.02205750
v 0.06508880 -0.06544859 0.02248635
v 0.06508880 -0.06565319 0.02232635
v 0.06452342 -0.06557174 0.02226865
v 0.06453246 -0.06623015 0.02159849
v 0.06470860 -0.06685558 0.02079456
v 0.06352946 -0.07094662 0.01411793
v 0.06419324 -0.06507624 0.02248635
v 0.06352946 -0.06537684 0.02197094
v 0.06432298 -0.06515381 0.02248635
v 0.06482469 -0.06537490 0.02248635
v 0.06352946 -0.06566871 0.02170210
v 0.06429487 -0.06585197 0.02188308
v 0.06439368 -0.06519551 0.02248635
v 0.06406631 -0.06613221 0.02145948
v 0.06352946 -0.07058979 0.01464513
v 0.06352946 -0.06602361 0.02128899
v 0.06352946 -0.06626021 0.02094538
f 1 2 3
f 1 3 4
f 1 4 5
f 1 5 11
f 1 11 21
f 1 21 33
f 1 33 42
f 1 42 41
f 1 41 40
f 1 40 54
f 1 54 63
f 1 63 65
f 1 65 64
f 1 64 59
f 1 59 56
f 1 56 48
f 1 48 35
f 1 35 24
f 1 24 13
f 1 13 6
f 1 6 2
f 2 6 12
f 2 12 7
f 2 7 8
f 2 8 3
f 3 8 9
f 3 9 4
f 4 10 5
f 4 9 10
f 5 10 11
f 6 13 14
f 6 14 15
f 6 15 16
f 6 16 12
f 7 12 23
f 7 23 17
f 7 17 8
f 8 17 18
f 8 18 9
f 9 19 10
f 9 18 20
f 9 20 19
f 10 21 11
f 10 19 21
f 12 16 22
f 12 22 23
f 13 24 34
f 13 34 46
f 13 46 55
f 13 55 57
f 13 57 61
f 13 61 58
f 13 58 49
f 13 49 36
f 13 36 25
f 13 25 16
f 13 16 15
f 13 15 14
f 16 25 26
f 16 26 22
f 17 23 22
f 17 22 27
f 17 27 18
f 18 27 28
f 18 28 20
f 19 29 30
f 19 30 21
f 19 20 31
f 19 31 32
f 19 32 29
f 20 28 31
f 21 30 33
f 22 26 27
f 24 35 34
f 25 36 28
f 25 28 27
f 25 27 26
f 28 36 37
f 28 37 38
f 28 38 39
f 28 39 31
f 29 40 41
f 29 41 42
f 29 42 30
f 29 32 43
f 29 43 40
f 30 42 33
f 31 39 44
f 31 44 53
f 31 53 45
f 31 45 43
f 31 43 32
f 34 35 47
f 34 47 46
f 35 48 47
f 36 49 37
f 37 50 38
f 37 49 50
f 38 50 51
f 38 51 52
f 38 52 53
f 38 53 44
f 38 44 39
f 40 43 54
f 43 45 53
f 43 53 54
f 46 47 55
f 47 48 56
f 47 56 51
f 47 51 57
f 47 57 55
f 49 58 51
f 49 51 50
f 51 56 59
f 51 59 60
f 51 60 52
f 51 58 61
f 51 61 57
f 52 60 59
f 52 59 62
f 52 62 53
f 53 62 63
f 53 63 54
f 59 64 62
f 62 64 65
f 62 65 63

