# https://github.com/mikedh/trimesh
v 0.06264314 -0.02870315 -0.01731174
v 0.06087170 -0.02870315 -0.01731174
v 0.06302558 -0.02870608 -0.01731174
v 0.06304275 -0.02870315 -0.01736878
v 0.06087170 -0.02870315 -0.01855461
v 0.06087170 -0.02881901 -0.01731174
v 0.06352925 -0.02870315 -0.01782293
v 0.06302220 -0.02875986 -0.01731174
v 0.06166545 -0.02870315 -0.02044453
v 0.06087170 -0.02887425 -0.01878614
v 0.06087170 -0.03320648 -0.02044453
v 0.06089173 -0.03369436 -0.01731174
v 0.06352925 -0.02891042 -0.01793701
v 0.06352925 -0.02870315 -0.01938442
v 0.06258018 -0.03163481 -0.01731174
v 0.06249563 -0.03216718 -0.01731174
v 0.06087170 -0.03060626 -0.02037400
v 0.06087170 -0.03008856 -0.01999037
v 0.06087170 -0.03005728 -0.01996431
v 0.06087170 -0.02999177 -0.01990911
v 0.06087170 -0.02941883 -0.01939607
v 0.06087170 -0.02938119 -0.01936081
v 0.06087170 -0.02909277 -0.01907347
v 0.06241212 -0.02870315 -0.02044453
v 0.06087170 -0.03071430 -0.02044453
v 0.06087170 -0.03070990 -0.02044177
v 0.06087170 -0.03062142 -0.02038504
v 0.06099683 -0.03341180 -0.02044453
v 0.06114174 -0.03362445 -0.02044453
v 0.06089797 -0.03369680 -0.01733075
v 0.06091332 -0.03369680 -0.01731174
v 0.06352925 -0.03006070 -0.01884410
v 0.06352925 -0.02873052 -0.01943318
v 0.06217979 -0.03298943 -0.01731174
v 0.06352925 -0.03201123 -0.02044453
v 0.06352925 -0.03198239 -0.02041601
v 0.06352925 -0.02945599 -0.02008789
v 0.06352925 -0.03005288 -0.02044453
v 0.06139046 -0.03369680 -0.02044453
v 0.06178773 -0.03369680 -0.01731174
v 0.06213999 -0.03307840 -0.01731174
v 0.06210356 -0.03364059 -0.01804740
v 0.06208665 -0.03369680 -0.01808052
v 0.06224900 -0.03369680 -0.01873094
v 0.06231248 -0.03369680 -0.01942735
v 0.06238584 -0.03369680 -0.02044453
v 0.06207495 -0.03369680 -0.01804740
v 0.06202291 -0.03341474 -0.01746691
v 0.06184626 -0.03359463 -0.01731174
f 1 2 6
f 1 6 12
f 1 12 31
f 1 31 40
f 1 40 49
f 1 49 41
f 1 41 34
f 1 34 16
f 1 16 15
f 1 15 8
f 1 8 3
f 1 3 4
f 1 4 7
f 1 7 14
f 1 14 24
f 1 24 9
f 1 9 5
f 1 5 2
f 2 5 10
f 2 10 23
f 2 23 22
f 2 22 21
f 2 21 20
f 2 20 19
f 2 19 18
f 2 18 17
f 2 17 27
f 2 27 26
f 2 26 25
f 2 25 11
f 2 11 6
f 3 7 4
f 3 8 7
f 5 9 10
f 6 11 12
f 7 13 32
f 7 32 36
f 7 36 35
f 7 35 38
f 7 38 37
f 7 37 33
f 7 33 14
f 7 8 15
f 7 15 16
f 7 16 13
f 9 17 18
f 9 18 19
f 9 19 20
f 9 20 21
f 9 21 22
f 9 22 23
f 9 23 10
f 9 24 38
f 9 38 35
f 9 35 46
f 9 46 39
f 9 39 29
f 9 29 28
f 9 28 11
f 9 11 25
f 9 25 26
f 9 26 27
f 9 27 17
f 11 28 12
f 12 28 29
f 12 29 30
f 12 30 31
f 13 16 32
f 14 33 24
f 16 34 35
f 16 35 36
f 16 36 32
f 24 33 37
f 24 37 38
f 29 39 30
f 30 39 46
f 30 46 45
f 30 45 44
f 30 44 43
f 30 43 47
f 30 47 40
f 30 40 31
f 34 41 42
f 34 42 35
f 35 42 43
f 35 43 44
f 35 44 45
f 35 45 46
f 40 47 48
f 40 48 49
f 41 49 48
f 41 48 43
f 41 43 42
f 43 48 47

