# https://github.com/mikedh/trimesh
v 0.06019426 -0.03293261 0.02316270
v 0.06019426 -0.03293261 0.02390610
v 0.05632097 -0.03293261 0.02320406
v 0.06001146 -0.02538134 0.01433967
v 0.06019540 -0.03293167 0.02316176
v 0.06019540 -0.03293074 0.02390516
v 0.06019426 -0.03293074 0.02390610
v 0.05949492 -0.03293261 0.02393148
v 0.05632097 -0.03293261 0.02393994
v 0.05632097 -0.02429082 0.01433967
v 0.05861620 -0.02497696 0.01433967
v 0.05879900 -0.02503032 0.01433967
v 0.06001146 -0.02448459 0.01433967
v 0.06019540 -0.02876430 0.01985923
v 0.06019540 -0.03226613 0.02370216
v 0.06019426 -0.03226706 0.02370310
v 0.05879596 -0.03293261 0.02393711
v 0.05632097 -0.03225864 0.02370686
v 0.05632097 -0.02336973 0.01433967
v 0.05868750 -0.02408021 0.01433967
v 0.06001146 -0.02457164 0.01449474
v 0.06019540 -0.02876430 0.02110544
v 0.06019540 -0.03153225 0.02335349
v 0.05879596 -0.03226332 0.02370498
v 0.05632097 -0.03190949 0.02354145
v 0.05632097 -0.02338939 0.01437350
v 0.05636952 -0.02338377 0.01433967
v 0.05650301 -0.02342309 0.01433967
v 0.05856007 -0.02415790 0.01454267
v 0.06001146 -0.02472984 0.01477105
v 0.06019540 -0.02905728 0.02150674
v 0.06001146 -0.02549273 0.01607552
v 0.06001146 -0.02691369 0.01849274
v 0.06001146 -0.02712056 0.01883953
v 0.06001146 -0.02756894 0.01954346
v 0.06001146 -0.02781419 0.01989307
v 0.06001146 -0.02817457 0.02038929
v 0.06019540 -0.03091444 0.02305650
v 0.06019426 -0.03091538 0.02305744
v 0.05949492 -0.03094065 0.02304899
v 0.05632097 -0.03173538 0.02343055
v 0.05632097 -0.02347363 0.01451635
v 0.05669871 -0.02408489 0.01536501
v 0.05717012 -0.02415509 0.01524566
v 0.05949454 -0.02616764 0.01748713
v 0.05949492 -0.02902827 0.02153212
v 0.06019540 -0.02941861 0.02185635
v 0.05919493 -0.02837957 0.02078308
v 0.05879558 -0.02835710 0.02081221
v 0.05669871 -0.02761761 0.02016092
v 0.05809700 -0.02831685 0.02085168
v 0.05986052 -0.02698296 0.01868728
v 0.05949454 -0.02692866 0.01876246
v 0.05860710 -0.02624065 0.01804726
v 0.05949454 -0.02751277 0.01960924
v 0.05879558 -0.02711869 0.01920794
v 0.06019540 -0.02976776 0.02218717
v 0.06019426 -0.02976776 0.02218717
v 0.05879596 -0.03096686 0.02303771
v 0.05809700 -0.03099214 0.02302079
v 0.05632097 -0.03130759 0.02314391
v 0.05632097 -0.02350733 0.01457274
v 0.05632097 -0.02368332 0.01486221
v 0.05701311 -0.02490208 0.01657456
v 0.05782015 -0.02556856 0.01731138
v 0.05739805 -0.02474482 0.01613191
v 0.05739805 -0.02829533 0.02086108
v 0.05879596 -0.02902639 0.02152647
v 0.05739805 -0.02614798 0.01816192
v 0.05632097 -0.02608620 0.01824180
v 0.05632097 -0.02697640 0.01939308
v 0.05739805 -0.02765786 0.02011487
v 0.05632097 -0.02703538 0.01946827
v 0.05632097 -0.02723289 0.01971638
v 0.05632097 -0.02759795 0.02017407
v 0.05879558 -0.02685284 0.01885927
v 0.05809700 -0.02645876 0.01845796
v 0.05669871 -0.02830281 0.02084417
v 0.05809700 -0.02904605 0.02150580
v 0.05980591 -0.02978180 0.02217683
v 0.05739767 -0.03101835 0.02300199
v 0.05632097 -0.03105766 0.02297098
v 0.05632097 -0.02405681 0.01546745
v 0.05632097 -0.02456135 0.01622777
v 0.05654701 -0.02486370 0.01661873
v 0.05739805 -0.02553392 0.01735649
v 0.05809700 -0.02619291 0.01810835
v 0.05632097 -0.02426181 0.01579169
v 0.05632097 -0.02796583 0.02052369
v 0.05669871 -0.02548899 0.01741288
v 0.05632097 -0.02561349 0.01762998
v 0.05632097 -0.02831405 0.02083289
v 0.05739767 -0.02907226 0.02148606
v 0.05809700 -0.03019367 0.02240051
v 0.05632097 -0.03089666 0.02284598
v 0.05632097 -0.02484966 0.01663659
v 0.05632097 -0.02546746 0.01744014
v 0.05704155 -0.02908537 0.02147573
f 1 2 8
f 1 8 17
f 1 17 9
f 1 9 3
f 1 3 4
f 1 4 5
f 1 5 2
f 2 6 7
f 2 7 8
f 2 5 6
f 3 9 18
f 3 18 25
f 3 25 41
f 3 41 61
f 3 61 82
f 3 82 95
f 3 95 92
f 3 92 89
f 3 89 75
f 3 75 74
f 3 74 73
f 3 73 71
f 3 71 70
f 3 70 91
f 3 91 97
f 3 97 96
f 3 96 84
f 3 84 88
f 3 88 83
f 3 83 63
f 3 63 62
f 3 62 42
f 3 42 26
f 3 26 19
f 3 19 10
f 3 10 11
f 3 11 12
f 3 12 4
f 4 12 11
f 4 11 10
f 4 10 19
f 4 19 27
f 4 27 28
f 4 28 20
f 4 20 13
f 4 13 14
f 4 14 5
f 5 14 22
f 5 22 31
f 5 31 47
f 5 47 57
f 5 57 38
f 5 38 23
f 5 23 15
f 5 15 6
f 6 15 7
f 7 15 16
f 7 16 8
f 8 16 17
f 9 17 18
f 13 20 21
f 13 21 22
f 13 22 14
f 15 23 16
f 16 23 24
f 16 24 17
f 17 24 18
f 18 24 25
f 19 26 27
f 20 28 29
f 20 29 30
f 20 30 21
f 21 30 22
f 22 30 32
f 22 32 33
f 22 33 34
f 22 34 35
f 22 35 36
f 22 36 37
f 22 37 31
f 23 25 24
f 23 38 39
f 23 39 25
f 25 39 40
f 25 40 41
f 26 42 43
f 26 43 28
f 26 28 27
f 28 43 44
f 28 44 45
f 28 45 32
f 28 32 29
f 29 32 30
f 31 46 47
f 31 37 48
f 31 48 49
f 31 49 50
f 31 50 51
f 31 51 46
f 32 45 33
f 33 45 52
f 33 52 34
f 34 52 53
f 34 53 35
f 35 53 54
f 35 54 36
f 36 54 55
f 36 55 37
f 37 55 56
f 37 56 48
f 38 57 39
f 39 57 58
f 39 58 40
f 40 58 59
f 40 59 41
f 41 59 60
f 41 60 61
f 42 62 43
f 43 62 63
f 43 63 64
f 43 64 65
f 43 65 66
f 43 66 52
f 43 52 44
f 44 52 45
f 46 67 68
f 46 68 58
f 46 58 57
f 46 57 47
f 46 51 67
f 48 56 69
f 48 69 70
f 48 70 71
f 48 71 72
f 48 72 49
f 49 72 50
f 50 72 71
f 50 71 73
f 50 73 74
f 50 74 75
f 50 75 51
f 51 75 67
f 52 66 65
f 52 65 54
f 52 54 53
f 54 65 55
f 55 65 76
f 55 76 77
f 55 77 56
f 56 77 69
f 58 68 78
f 58 78 79
f 58 79 80
f 58 80 60
f 58 60 59
f 60 81 61
f 60 80 81
f 61 81 82
f 63 83 64
f 64 84 85
f 64 85 86
f 64 86 87
f 64 87 65
f 64 83 88
f 64 88 84
f 65 87 76
f 67 75 89
f 67 89 78
f 67 78 68
f 69 77 90
f 69 90 70
f 70 90 91
f 76 87 77
f 77 87 85
f 77 85 90
f 78 92 79
f 78 89 92
f 79 92 93
f 79 93 94
f 79 94 80
f 80 94 81
f 81 94 95
f 81 95 82
f 84 96 85
f 85 96 90
f 85 87 86
f 90 96 97
f 90 97 91
f 92 95 98
f 92 98 93
f 93 98 95
f 93 95 94

