# https://github.com/mikedh/trimesh
v 0.04082865 -0.06741167 0.01760754
v 0.04081137 -0.06732916 0.01760754
v 0.04162032 -0.06741167 0.01760754
v 0.04084038 -0.06741167 0.01764535
v 0.04091054 -0.06706498 0.01814337
v 0.04071488 -0.06651636 0.01760754
v 0.04095312 -0.06549729 0.01941791
v 0.04090128 -0.06575568 0.01901950
v 0.04204126 -0.06017612 0.01760754
v 0.04172052 -0.06741167 0.01781413
v 0.04153844 -0.06741167 0.01972502
v 0.04151540 -0.06724086 0.01978312
v 0.04155367 -0.06649103 0.02044529
v 0.04071571 -0.06649247 0.01760754
v 0.04092802 -0.06509415 0.01955440
v 0.04095127 -0.06420319 0.02016216
v 0.04095127 -0.06386880 0.02016216
v 0.04153453 -0.06162294 0.02395904
v 0.04157280 -0.06087239 0.02462029
v 0.04159502 -0.06020000 0.02517364
v 0.04157753 -0.06001834 0.02523451
v 0.04146561 -0.06001834 0.02484071
v 0.04143825 -0.06020000 0.02462214
v 0.04205011 -0.06001834 0.01760754
v 0.04242887 -0.06741167 0.01988641
v 0.04224946 -0.06741167 0.02180007
v 0.04161086 -0.06509415 0.02163683
v 0.04073936 -0.06581647 0.01760754
v 0.04142570 -0.06001834 0.02462214
v 0.04134299 -0.06001834 0.02410476
v 0.04094160 -0.06375662 0.01972871
v 0.04133435 -0.06001834 0.02392216
v 0.04131378 -0.06001834 0.02340570
v 0.04162650 -0.06140581 0.02438696
v 0.04164769 -0.06062196 0.02501778
v 0.04163452 -0.06001834 0.02541896
v 0.04281668 -0.06741167 0.02109363
v 0.04268274 -0.06741167 0.02065648
v 0.04132592 -0.06001834 0.01760754
v 0.04281668 -0.06001834 0.02572053
v 0.04281668 -0.06689851 0.02141365
v 0.04234945 -0.06741167 0.02206014
v 0.04166374 -0.06265576 0.02357908
v 0.04074122 -0.06579331 0.01760754
v 0.04096588 -0.06333973 0.01873268
v 0.04096341 -0.06331222 0.01832966
v 0.04091979 -0.06371898 0.01760754
v 0.04080993 -0.06509415 0.01832966
v 0.04131213 -0.06001834 0.02322309
v 0.04095930 -0.06326301 0.01760754
v 0.04095786 -0.06327893 0.01760754
v 0.04170735 -0.06001834 0.02559234
v 0.04281668 -0.06741167 0.02272324
v 0.04132509 -0.06002413 0.01760754
v 0.04132365 -0.06001834 0.01781320
v 0.04281668 -0.06001834 0.02702827
v 0.04243853 -0.06741167 0.02222707
v 0.04235213 -0.06617474 0.02289201
v 0.04130864 -0.06001834 0.02270664
v 0.04130576 -0.06001834 0.02060945
v 0.04130925 -0.06001834 0.01991039
v 0.04131316 -0.06001834 0.01921133
v 0.04130370 -0.06020000 0.01763060
v 0.04130390 -0.06020000 0.01760754
v 0.04130473 -0.06001834 0.02200850
v 0.04130349 -0.06001834 0.02130943
v 0.04202377 -0.06001834 0.02604332
v 0.04281668 -0.06673711 0.02312810
v 0.04265538 -0.06741167 0.02251296
v 0.04236920 -0.06001834 0.02649061
v 0.04281668 -0.06015947 0.02694712
v 0.04273541 -0.06644833 0.02319819
v 0.04223897 -0.06089989 0.02582198
v 0.04213178 -0.06001834 0.02619088
v 0.04281668 -0.06503625 0.02411583
v 0.04226757 -0.06001834 0.02636518
v 0.04233690 -0.06130665 0.02570393
v 0.04281668 -0.06151510 0.02616044
f 1 2 6
f 1 6 14
f 1 14 28
f 1 28 44
f 1 44 47
f 1 47 51
f 1 51 50
f 1 50 64
f 1 64 54
f 1 54 39
f 1 39 24
f 1 24 9
f 1 9 3
f 1 3 10
f 1 10 25
f 1 25 38
f 1 38 37
f 1 37 53
f 1 53 69
f 1 69 57
f 1 57 42
f 1 42 26
f 1 26 11
f 1 11 4
f 1 4 5
f 1 5 2
f 2 5 7
f 2 7 8
f 2 8 6
f 3 9 10
f 4 11 5
f 5 11 12
f 5 12 13
f 5 13 7
f 6 8 15
f 6 15 16
f 6 16 17
f 6 17 14
f 7 15 8
f 7 13 18
f 7 18 19
f 7 19 20
f 7 20 21
f 7 21 22
f 7 22 23
f 7 23 15
f 9 24 10
f 10 24 25
f 11 13 12
f 11 26 13
f 13 26 27
f 13 27 18
f 14 17 28
f 15 23 16
f 16 23 29
f 16 29 30
f 16 30 17
f 17 31 28
f 17 30 32
f 17 32 33
f 17 33 31
f 18 27 34
f 18 34 19
f 19 34 20
f 20 34 35
f 20 35 36
f 20 36 21
f 21 36 52
f 21 52 67
f 21 67 74
f 21 74 76
f 21 76 70
f 21 70 56
f 21 56 40
f 21 40 24
f 21 24 39
f 21 39 55
f 21 55 62
f 21 62 61
f 21 61 60
f 21 60 66
f 21 66 65
f 21 65 59
f 21 59 49
f 21 49 33
f 21 33 32
f 21 32 30
f 21 30 29
f 21 29 22
f 22 29 23
f 24 37 38
f 24 38 25
f 24 40 41
f 24 41 37
f 26 42 36
f 26 36 35
f 26 35 34
f 26 34 43
f 26 43 27
f 27 43 34
f 28 31 44
f 31 45 46
f 31 46 47
f 31 47 48
f 31 48 44
f 31 33 45
f 33 49 50
f 33 50 51
f 33 51 46
f 33 46 45
f 36 42 52
f 37 41 40
f 37 40 56
f 37 56 71
f 37 71 78
f 37 78 75
f 37 75 68
f 37 68 53
f 39 54 55
f 42 57 58
f 42 58 52
f 44 48 47
f 46 51 47
f 49 59 50
f 50 60 61
f 50 61 62
f 50 62 63
f 50 63 64
f 50 59 65
f 50 65 66
f 50 66 60
f 52 58 67
f 53 68 58
f 53 58 69
f 54 64 55
f 55 64 63
f 55 63 62
f 56 70 71
f 57 69 58
f 58 68 72
f 58 72 73
f 58 73 67
f 67 73 74
f 68 75 72
f 70 76 73
f 70 73 77
f 70 77 78
f 70 78 71
f 72 75 78
f 72 78 77
f 72 77 73
f 73 76 74

