# https://github.com/mikedh/trimesh
v 0.06166550 -0.02870315 -0.02044380
v 0.06050062 -0.02405872 -0.02044380
v 0.06241213 -0.02870315 -0.02044380
v 0.06049884 -0.02870315 -0.01860673
v 0.06139379 -0.02405872 -0.02044380
v 0.06049884 -0.02863904 -0.01852674
v 0.06049884 -0.02830031 -0.01809183
v 0.06049884 -0.02799523 -0.01766565
v 0.06049884 -0.02763149 -0.01707075
v 0.06049884 -0.02754920 -0.01692385
v 0.06049884 -0.02724230 -0.01623731
v 0.06049884 -0.02697632 -0.01562423
v 0.06049884 -0.02694449 -0.01553841
v 0.06049884 -0.02686856 -0.01523223
v 0.06049884 -0.02685219 -0.01471006
v 0.06244684 -0.02405872 -0.01301480
v 0.06241510 -0.02840898 -0.02044380
v 0.06352896 -0.02870315 -0.01938418
v 0.06049884 -0.02870315 -0.01727584
v 0.06198231 -0.02547773 -0.02044380
v 0.06196273 -0.02405872 -0.01912818
v 0.06197549 -0.02411191 -0.01915364
v 0.06197133 -0.02482074 -0.01984381
v 0.06049884 -0.02712727 -0.01472824
v 0.06207071 -0.02870315 -0.01301480
v 0.06313829 -0.02405872 -0.01301480
v 0.06234450 -0.02733732 -0.02044380
v 0.06227242 -0.02663805 -0.02044380
v 0.06213033 -0.02595832 -0.02044380
v 0.06352896 -0.02801523 -0.01874273
v 0.06352896 -0.02870315 -0.01782274
v 0.06049884 -0.02856629 -0.01699803
v 0.06204846 -0.02456931 -0.01940309
v 0.06204045 -0.02527404 -0.02009617
v 0.06352896 -0.02578918 -0.01665112
v 0.06352896 -0.02653484 -0.01735802
v 0.06199299 -0.02405872 -0.01905764
v 0.06049884 -0.02775107 -0.01546132
v 0.06290543 -0.02870315 -0.01301480
v 0.06315401 -0.02454112 -0.01301480
v 0.06352896 -0.02405872 -0.01393625
v 0.06352896 -0.02825621 -0.01741620
v 0.06304396 -0.02803660 -0.01301480
v 0.06293421 -0.02870315 -0.01313480
v 0.06352896 -0.02506353 -0.01593113
v 0.06211105 -0.02405872 -0.01871437
v 0.06352896 -0.02409373 -0.01393625
v 0.06352896 -0.02405872 -0.01458133
v 0.06352896 -0.02439881 -0.01397043
f 1 2 5
f 1 5 20
f 1 20 29
f 1 29 28
f 1 28 27
f 1 27 17
f 1 17 3
f 1 3 18
f 1 18 31
f 1 31 44
f 1 44 39
f 1 39 25
f 1 25 19
f 1 19 4
f 1 4 2
f 2 4 6
f 2 6 7
f 2 7 8
f 2 8 9
f 2 9 10
f 2 10 11
f 2 11 12
f 2 12 13
f 2 13 14
f 2 14 15
f 2 15 16
f 2 16 26
f 2 26 41
f 2 41 48
f 2 48 46
f 2 46 37
f 2 37 21
f 2 21 5
f 3 17 18
f 4 19 32
f 4 32 38
f 4 38 24
f 4 24 15
f 4 15 14
f 4 14 13
f 4 13 12
f 4 12 11
f 4 11 10
f 4 10 9
f 4 9 8
f 4 8 7
f 4 7 6
f 5 21 22
f 5 22 23
f 5 23 20
f 15 24 25
f 15 25 16
f 16 25 39
f 16 39 43
f 16 43 40
f 16 40 26
f 17 27 18
f 18 27 28
f 18 28 29
f 18 29 20
f 18 20 30
f 18 30 36
f 18 36 35
f 18 35 45
f 18 45 48
f 18 48 41
f 18 41 47
f 18 47 49
f 18 49 42
f 18 42 31
f 19 25 32
f 20 23 33
f 20 33 34
f 20 34 35
f 20 35 36
f 20 36 30
f 21 37 22
f 22 37 23
f 23 37 33
f 24 38 25
f 25 38 32
f 26 40 41
f 31 42 43
f 31 43 44
f 33 37 35
f 33 35 34
f 35 37 45
f 37 46 45
f 39 44 43
f 40 43 47
f 40 47 41
f 42 49 43
f 43 49 47
f 45 46 48

