# https://github.com/mikedh/trimesh
v 0.06006493 -0.06970785 0.01265059
v 0.06054341 -0.06970785 0.01287878
v 0.06006493 -0.06970785 0.01445366
v 0.06006493 -0.05957050 0.02192974
v 0.06352925 -0.06970785 0.01432044
v 0.06032774 -0.06970785 0.01463964
v 0.06006493 -0.06516807 0.02040894
v 0.06006493 -0.05957050 0.02420238
v 0.06352925 -0.05957050 0.02394913
v 0.06352925 -0.06970785 0.01590852
v 0.06045626 -0.06970785 0.01469900
v 0.06352925 -0.06602244 0.02128871
v 0.06258925 -0.06546675 0.02149843
v 0.06126198 -0.06543500 0.02076507
v 0.06006493 -0.06482374 0.02085344
v 0.06006493 -0.05964095 0.02416676
v 0.06013343 -0.05957050 0.02425250
v 0.06352925 -0.05957050 0.02612416
v 0.06089371 -0.06970785 0.01487706
v 0.06352925 -0.06743846 0.01922316
v 0.06352925 -0.06610083 0.02117528
v 0.06352925 -0.06566819 0.02170288
v 0.06352925 -0.06537646 0.02197195
v 0.06352925 -0.06526631 0.02205769
v 0.06233051 -0.06509861 0.02165803
v 0.06006493 -0.06449628 0.02110933
v 0.06006493 -0.06032564 0.02375392
v 0.06023855 -0.05957050 0.02431845
v 0.06324407 -0.05957050 0.02597247
v 0.06322779 -0.05994559 0.02573241
v 0.06352925 -0.05964294 0.02607931
v 0.06352925 -0.06661286 0.02042872
v 0.06352925 -0.06625861 0.02094577
v 0.06352925 -0.06499640 0.02225422
v 0.06297787 -0.06507380 0.02195876
v 0.06018599 -0.06437324 0.02125310
v 0.06006493 -0.06417081 0.02134279
v 0.06006493 -0.06174165 0.02289129
v 0.06051323 -0.05987811 0.02428943
v 0.06031858 -0.05957050 0.02436461
v 0.06293107 -0.05957050 0.02580496
v 0.06352925 -0.06042388 0.02555831
v 0.06259942 -0.06058562 0.02499378
v 0.06056104 -0.06333529 0.02216716
v 0.06352925 -0.06450323 0.02261299
v 0.06089371 -0.06426905 0.02163693
v 0.06279034 -0.06185875 0.02420765
v 0.06006493 -0.06385129 0.02156570
v 0.06006493 -0.06198576 0.02274093
v 0.06096289 -0.06014703 0.02436989
v 0.06140441 -0.05970843 0.02488298
v 0.06109548 -0.05957050 0.02479857
v 0.06091066 -0.05957050 0.02469700
v 0.06081775 -0.05957050 0.02464556
v 0.06197309 -0.06122367 0.02425646
v 0.06240647 -0.05957050 0.02551742
v 0.06187034 -0.05991483 0.02501092
v 0.06107988 -0.06139435 0.02366291
v 0.06352925 -0.06107979 0.02509270
v 0.06019447 -0.06317751 0.02206956
v 0.06301042 -0.06161563 0.02447937
v 0.06340412 -0.06121077 0.02494365
v 0.06352925 -0.06172181 0.02462841
v 0.06352925 -0.06139733 0.02486320
v 0.06006493 -0.06326285 0.02194293
v 0.06020905 -0.06227750 0.02263936
v 0.06006493 -0.06242436 0.02246921
v 0.06019447 -0.06282823 0.02228851
v 0.06006493 -0.06277166 0.02225290
f 1 2 5
f 1 5 10
f 1 10 19
f 1 19 11
f 1 11 6
f 1 6 3
f 1 3 7
f 1 7 15
f 1 15 26
f 1 26 37
f 1 37 48
f 1 48 65
f 1 65 69
f 1 69 67
f 1 67 49
f 1 49 38
f 1 38 27
f 1 27 16
f 1 16 8
f 1 8 4
f 1 4 2
f 2 4 5
f 3 6 7
f 4 8 17
f 4 17 28
f 4 28 40
f 4 40 54
f 4 54 53
f 4 53 52
f 4 52 56
f 4 56 41
f 4 41 29
f 4 29 18
f 4 18 9
f 4 9 5
f 5 9 18
f 5 18 31
f 5 31 42
f 5 42 59
f 5 59 64
f 5 64 63
f 5 63 45
f 5 45 34
f 5 34 24
f 5 24 23
f 5 23 22
f 5 22 12
f 5 12 21
f 5 21 33
f 5 33 32
f 5 32 20
f 5 20 10
f 6 11 12
f 6 12 13
f 6 13 14
f 6 14 7
f 7 14 15
f 8 16 17
f 10 20 19
f 11 19 21
f 11 21 12
f 12 22 13
f 13 22 23
f 13 23 24
f 13 24 25
f 13 25 26
f 13 26 15
f 13 15 14
f 16 27 17
f 17 27 28
f 18 29 30
f 18 30 31
f 19 20 32
f 19 32 33
f 19 33 21
f 24 34 35
f 24 35 25
f 25 35 36
f 25 36 26
f 26 36 37
f 27 38 28
f 28 39 40
f 28 38 39
f 29 41 30
f 30 42 31
f 30 41 43
f 30 43 44
f 30 44 42
f 34 45 35
f 35 46 36
f 35 45 46
f 36 44 37
f 36 46 47
f 36 47 44
f 37 44 48
f 38 49 39
f 39 50 51
f 39 51 52
f 39 52 53
f 39 53 54
f 39 54 40
f 39 49 50
f 41 55 43
f 41 56 57
f 41 57 58
f 41 58 55
f 42 44 59
f 43 55 44
f 44 60 48
f 44 47 61
f 44 61 62
f 44 62 59
f 44 55 60
f 45 63 46
f 46 63 47
f 47 63 64
f 47 64 61
f 48 60 65
f 49 66 58
f 49 58 57
f 49 57 50
f 49 67 66
f 50 57 51
f 51 57 56
f 51 56 52
f 55 58 66
f 55 66 68
f 55 68 60
f 59 62 64
f 60 68 69
f 60 69 65
f 61 64 62
f 66 67 68
f 67 69 68

