# https://github.com/mikedh/trimesh
v 0.06600290 -0.01144876 -0.01083102
v 0.06652834 -0.01147961 -0.01083102
v 0.06600594 -0.01145133 -0.01085267
v 0.06472760 -0.01438743 -0.01214942
v 0.06471926 -0.01437201 -0.01173666
v 0.06471471 -0.01434758 -0.01083102
v 0.06687522 -0.01159402 -0.01121925
v 0.06687522 -0.01159402 -0.01139894
v 0.06682745 -0.01195397 -0.01083102
v 0.06740179 -0.01203881 -0.01120627
v 0.06679788 -0.01159402 -0.01139894
v 0.06633158 -0.01176500 -0.01131884
v 0.06529550 -0.01431287 -0.01284435
v 0.06482958 -0.01453784 -0.01261487
v 0.06471471 -0.01500319 -0.01282558
v 0.06469045 -0.01476280 -0.01240344
v 0.06352926 -0.02062986 -0.01083102
v 0.06740179 -0.01203238 -0.01134842
v 0.06740179 -0.01203238 -0.01163563
v 0.06740179 -0.01214808 -0.01180882
v 0.06740179 -0.01299909 -0.01284002
v 0.06667505 -0.01265457 -0.01083102
v 0.06740179 -0.01265457 -0.01119688
v 0.06740179 -0.01245274 -0.01118750
v 0.06611322 -0.01369069 -0.01279600
v 0.06584330 -0.01406991 -0.01290785
v 0.06559726 -0.01519859 -0.01343319
v 0.06526820 -0.01566523 -0.01355659
v 0.06475414 -0.01862576 -0.01486561
v 0.06480228 -0.01590433 -0.01342164
v 0.06507296 -0.01476280 -0.01295403
v 0.06473708 -0.01998840 -0.01558434
v 0.06378174 -0.02458023 -0.01594949
v 0.06352926 -0.02379350 -0.01467149
v 0.06352926 -0.02370994 -0.01458851
v 0.06458164 -0.01545184 -0.01243591
v 0.06352926 -0.02378965 -0.01083102
v 0.06740179 -0.01335774 -0.01303702
v 0.06453426 -0.02174312 -0.01083102
v 0.06740179 -0.01313663 -0.01135275
v 0.06648702 -0.01405320 -0.01311496
v 0.06581335 -0.01479494 -0.01328959
v 0.06574018 -0.01894456 -0.01545734
v 0.06547557 -0.01931865 -0.01556919
v 0.06543576 -0.02069286 -0.01628143
v 0.06536487 -0.02343999 -0.01770591
v 0.06511466 -0.02386806 -0.01780478
v 0.06472912 -0.02136518 -0.01629370
v 0.06472191 -0.02274196 -0.01700305
v 0.06471585 -0.02411874 -0.01771169
v 0.06466543 -0.02458023 -0.01782210
v 0.06372639 -0.02458023 -0.01516580
v 0.06352926 -0.02446068 -0.01457263
v 0.06352926 -0.02390920 -0.01468087
v 0.06352926 -0.02439769 -0.01397008
v 0.06438982 -0.02458023 -0.01483530
v 0.06740179 -0.02458023 -0.01588598
v 0.06740179 -0.02381150 -0.01527910
v 0.06740179 -0.02364695 -0.01515715
v 0.06740179 -0.02306590 -0.01476458
v 0.06425448 -0.02238587 -0.01083102
v 0.06740179 -0.01397607 -0.01336752
v 0.06740179 -0.02287308 -0.01467222
v 0.06740179 -0.02244243 -0.01449397
v 0.06740179 -0.01406606 -0.01341515
v 0.06716182 -0.01471010 -0.01367854
v 0.06718608 -0.01809870 -0.01547538
v 0.06578795 -0.02194623 -0.01705718
v 0.06578795 -0.02244243 -0.01731840
v 0.06578795 -0.02296563 -0.01759118
v 0.06578795 -0.02331529 -0.01775426
v 0.06511049 -0.02458023 -0.01815909
v 0.06510140 -0.02458023 -0.01815476
v 0.06468741 -0.02458023 -0.01784735
v 0.06372790 -0.02458023 -0.01512972
v 0.06740179 -0.02458023 -0.01739778
v 0.06740179 -0.01432830 -0.01355370
v 0.06740179 -0.01573850 -0.01429842
v 0.06740179 -0.01803314 -0.01551002
v 0.06648095 -0.02106822 -0.01681543
v 0.06670993 -0.02131633 -0.01701821
v 0.06578795 -0.02384107 -0.01794838
v 0.06574473 -0.02458023 -0.01820167
v 0.06652606 -0.02458023 -0.01783003
v 0.06637821 -0.02384107 -0.01781560
v 0.06723650 -0.02246429 -0.01714233
v 0.06740179 -0.02174312 -0.01693522
v 0.06740179 -0.01837637 -0.01568754
v 0.06718608 -0.01946134 -0.01619339
v 0.06718608 -0.01981100 -0.01637308
v 0.06740179 -0.01980714 -0.01637380
v 0.06694232 -0.02131633 -0.01701821
v 0.06627282 -0.02330758 -0.01775210
v 0.06575307 -0.02458023 -0.01819806
v 0.06575800 -0.02458023 -0.01819589
v 0.06706591 -0.02174312 -0.01709398
v 0.06740179 -0.02106051 -0.01676925
v 0.06740179 -0.01894713 -0.01596608
v 0.06740179 -0.02033934 -0.01655637
f 1 2 3
f 1 3 4
f 1 4 5
f 1 5 6
f 1 6 17
f 1 17 37
f 1 37 61
f 1 61 39
f 1 39 22
f 1 22 9
f 1 9 2
f 2 7 8
f 2 8 3
f 2 9 10
f 2 10 7
f 3 8 11
f 3 11 12
f 3 12 13
f 3 13 14
f 3 14 4
f 4 14 15
f 4 15 16
f 4 16 17
f 4 17 5
f 5 17 6
f 7 10 18
f 7 18 19
f 7 19 8
f 8 19 20
f 8 20 21
f 8 21 11
f 9 22 23
f 9 23 24
f 9 24 10
f 10 24 23
f 10 23 40
f 10 40 64
f 10 64 63
f 10 63 60
f 10 60 59
f 10 59 58
f 10 58 57
f 10 57 76
f 10 76 87
f 10 87 97
f 10 97 99
f 10 99 91
f 10 91 98
f 10 98 88
f 10 88 79
f 10 79 78
f 10 78 77
f 10 77 65
f 10 65 62
f 10 62 38
f 10 38 21
f 10 21 20
f 10 20 19
f 10 19 18
f 11 21 12
f 12 21 25
f 12 25 13
f 13 26 27
f 13 27 28
f 13 28 29
f 13 29 30
f 13 30 31
f 13 31 15
f 13 15 14
f 13 25 26
f 15 31 30
f 15 30 29
f 15 29 32
f 15 32 33
f 15 33 34
f 15 34 35
f 15 35 16
f 16 35 36
f 16 36 17
f 17 35 34
f 17 34 54
f 17 54 53
f 17 53 55
f 17 55 37
f 17 36 35
f 21 38 25
f 22 39 23
f 23 39 40
f 25 38 41
f 25 41 42
f 25 42 26
f 26 42 27
f 27 42 41
f 27 41 43
f 27 43 44
f 27 44 28
f 28 44 45
f 28 45 46
f 28 46 32
f 28 32 29
f 32 46 47
f 32 47 48
f 32 48 33
f 33 48 49
f 33 49 50
f 33 50 51
f 33 51 74
f 33 74 73
f 33 73 72
f 33 72 83
f 33 83 94
f 33 94 95
f 33 95 84
f 33 84 76
f 33 76 57
f 33 57 56
f 33 56 75
f 33 75 52
f 33 52 53
f 33 53 54
f 33 54 34
f 37 55 56
f 37 56 57
f 37 57 58
f 37 58 59
f 37 59 60
f 37 60 61
f 38 62 41
f 39 61 60
f 39 60 63
f 39 63 64
f 39 64 40
f 41 62 65
f 41 65 66
f 41 66 67
f 41 67 43
f 43 67 68
f 43 68 44
f 44 68 45
f 45 68 46
f 46 68 69
f 46 69 70
f 46 70 71
f 46 71 72
f 46 72 47
f 47 49 48
f 47 72 73
f 47 73 50
f 47 50 49
f 50 73 74
f 50 74 51
f 52 75 53
f 53 75 55
f 55 75 56
f 65 77 66
f 66 77 78
f 66 78 79
f 66 79 67
f 67 79 68
f 68 80 69
f 68 79 80
f 69 80 81
f 69 81 70
f 70 81 71
f 71 82 72
f 71 81 82
f 72 82 83
f 76 84 85
f 76 85 86
f 76 86 87
f 79 88 89
f 79 89 80
f 80 89 81
f 81 90 91
f 81 91 92
f 81 92 93
f 81 93 82
f 81 89 90
f 82 93 83
f 83 93 85
f 83 85 94
f 84 95 85
f 85 95 94
f 85 93 96
f 85 96 87
f 85 87 86
f 87 96 97
f 88 98 90
f 88 90 89
f 90 98 91
f 91 99 92
f 92 99 97
f 92 97 96
f 92 96 93

