# https://github.com/mikedh/trimesh
v 0.04830750 -0.07463727 0.01854738
v 0.04768222 -0.07462029 0.01854738
v 0.04887293 -0.07461464 0.01854738
v 0.04830750 -0.07454886 0.01870095
v 0.04778798 -0.07454957 0.01870095
v 0.04743355 -0.07459766 0.01854738
v 0.04888892 -0.07461393 0.01854738
v 0.04875943 -0.07453825 0.01868601
v 0.04813002 -0.07244469 0.02148847
v 0.04732212 -0.07452340 0.01866775
v 0.04792521 -0.07244469 0.02148847
v 0.04795771 -0.07033911 0.02427267
v 0.04726021 -0.07455310 0.01854738
v 0.04888892 -0.07367041 0.01854738
v 0.04888892 -0.07453259 0.01868186
v 0.04888892 -0.07397879 0.01941402
v 0.04888892 -0.07181026 0.02227293
v 0.04888892 -0.06976126 0.02497411
v 0.04830750 -0.07182582 0.02229285
v 0.04830750 -0.07121119 0.02310304
v 0.04796339 -0.07033911 0.02427267
v 0.04718695 -0.07387199 0.01942564
v 0.04582393 -0.07315975 0.01940987
v 0.04644663 -0.07391301 0.01879476
v 0.04712504 -0.07447106 0.01854738
v 0.04830750 -0.06971104 0.02506460
v 0.04785866 -0.06968841 0.02503471
v 0.04361895 -0.07104215 0.01854738
v 0.04361895 -0.06741237 0.02240575
v 0.04888892 -0.06741237 0.02607401
v 0.04888892 -0.06970114 0.02505297
v 0.04710182 -0.07321775 0.02018021
v 0.04691146 -0.07348369 0.01972697
v 0.04426847 -0.07113975 0.02090324
v 0.04621086 -0.07326443 0.01953937
v 0.04711988 -0.07041196 0.02366336
v 0.04391456 -0.07163627 0.01987224
v 0.04481224 -0.07191352 0.02029892
v 0.04438094 -0.07179258 0.02014867
v 0.04599830 -0.07373973 0.01854738
v 0.04633003 -0.07396111 0.01854738
v 0.04888892 -0.06940267 0.02540245
v 0.04830750 -0.06941115 0.02541407
v 0.04785763 -0.06901791 0.02573533
v 0.04739228 -0.06955615 0.02488446
v 0.04656890 -0.06963324 0.02426603
v 0.04703527 -0.06975772 0.02441794
v 0.04361895 -0.07208115 0.01854738
v 0.04361895 -0.06741237 0.02369325
v 0.04888892 -0.06741237 0.02702698
v 0.04673863 -0.07094384 0.02275771
v 0.04481636 -0.07068639 0.02182301
v 0.04411319 -0.07046713 0.02163540
v 0.04371852 -0.07036316 0.02150590
v 0.04361895 -0.07061212 0.02112488
v 0.04361895 -0.07147996 0.01977429
v 0.04361895 -0.07160373 0.01952609
v 0.04361895 -0.07118927 0.02029560
v 0.04380261 -0.07100961 0.02074718
v 0.04361895 -0.07096859 0.02063345
v 0.04426435 -0.07253169 0.01854738
v 0.04438146 -0.07249279 0.01879559
v 0.04888892 -0.06911197 0.02570959
v 0.04830750 -0.06906176 0.02577600
v 0.04825332 -0.06854473 0.02617030
v 0.04798402 -0.06823565 0.02636289
v 0.04757955 -0.06741237 0.02673810
v 0.04736700 -0.06741237 0.02661607
v 0.04721481 -0.06758424 0.02640274
v 0.04739125 -0.06881421 0.02557179
v 0.04530493 -0.06950805 0.02346995
v 0.04577131 -0.06970043 0.02363929
v 0.04500725 -0.07042045 0.02227625
v 0.04394810 -0.07231102 0.01854738
v 0.04361895 -0.07184633 0.01902885
v 0.04361895 -0.06770590 0.02351312
v 0.04364113 -0.06741237 0.02371981
v 0.04830750 -0.06741237 0.02696721
v 0.04844988 -0.06828092 0.02640108
v 0.04888892 -0.06828162 0.02640191
v 0.04361895 -0.07016866 0.02162129
v 0.04361895 -0.07042540 0.02135980
v 0.04888892 -0.06905327 0.02577019
v 0.04888892 -0.06870458 0.02606073
v 0.04710956 -0.06741237 0.02645835
v 0.04676855 -0.06741237 0.02620517
v 0.04687947 -0.06861900 0.02534351
v 0.04374173 -0.06965941 0.02219158
v 0.04452075 -0.06958444 0.02282993
v 0.04361895 -0.06979521 0.02197658
v 0.04361895 -0.06990413 0.02187447
v 0.04370046 -0.06764436 0.02364759
v 0.04361895 -0.06843227 0.02301837
v 0.04381241 -0.06741237 0.02389912
v 0.04552625 -0.06741237 0.02527959
v 0.04434380 -0.06835447 0.02366171
v 0.04407707 -0.06862536 0.02324997
v 0.04380983 -0.06889625 0.02283657
v 0.04361895 -0.06922231 0.02242069
v 0.04361895 -0.06938004 0.02229949
v 0.04387793 -0.06811046 0.02348738
v 0.04434844 -0.06741237 0.02437892
v 0.04422720 -0.06741237 0.02427101
v 0.04458885 -0.06741237 0.02457815
v 0.04441344 -0.06758990 0.02431002
f 1 2 6
f 1 6 13
f 1 13 25
f 1 25 41
f 1 41 40
f 1 40 61
f 1 61 74
f 1 74 48
f 1 48 28
f 1 28 14
f 1 14 7
f 1 7 3
f 1 3 4
f 1 4 5
f 1 5 2
f 2 5 6
f 3 7 8
f 3 8 4
f 4 8 9
f 4 9 5
f 5 10 6
f 5 9 11
f 5 11 12
f 5 12 10
f 6 10 13
f 7 14 30
f 7 30 50
f 7 50 80
f 7 80 84
f 7 84 83
f 7 83 63
f 7 63 42
f 7 42 31
f 7 31 18
f 7 18 17
f 7 17 16
f 7 16 15
f 7 15 8
f 8 15 16
f 8 16 17
f 8 17 18
f 8 18 19
f 8 19 9
f 9 19 20
f 9 20 21
f 9 21 12
f 9 12 11
f 10 22 23
f 10 23 24
f 10 24 25
f 10 25 13
f 10 12 22
f 12 21 26
f 12 26 27
f 12 27 22
f 14 28 29
f 14 29 30
f 18 31 21
f 18 21 20
f 18 20 19
f 21 31 26
f 22 32 33
f 22 33 34
f 22 34 35
f 22 35 23
f 22 27 36
f 22 36 32
f 23 37 24
f 23 35 38
f 23 38 39
f 23 39 37
f 24 37 40
f 24 40 41
f 24 41 25
f 26 31 42
f 26 42 43
f 26 43 27
f 27 43 44
f 27 44 45
f 27 45 46
f 27 46 47
f 27 47 36
f 28 48 75
f 28 75 57
f 28 57 56
f 28 56 58
f 28 58 60
f 28 60 55
f 28 55 82
f 28 82 81
f 28 81 91
f 28 91 90
f 28 90 100
f 28 100 99
f 28 99 93
f 28 93 76
f 28 76 49
f 28 49 29
f 29 49 77
f 29 77 94
f 29 94 103
f 29 103 102
f 29 102 104
f 29 104 95
f 29 95 86
f 29 86 85
f 29 85 68
f 29 68 67
f 29 67 78
f 29 78 50
f 29 50 30
f 32 36 47
f 32 47 51
f 32 51 33
f 33 51 52
f 33 52 53
f 33 53 34
f 34 53 54
f 34 54 55
f 34 55 38
f 34 38 35
f 37 56 57
f 37 57 40
f 37 39 58
f 37 58 56
f 38 55 59
f 38 59 39
f 39 59 60
f 39 60 58
f 40 57 62
f 40 62 61
f 42 63 43
f 43 63 64
f 43 64 44
f 44 46 45
f 44 64 65
f 44 65 66
f 44 66 67
f 44 67 68
f 44 68 69
f 44 69 70
f 44 70 71
f 44 71 72
f 44 72 46
f 46 72 54
f 46 54 47
f 47 54 53
f 47 53 73
f 47 73 52
f 47 52 51
f 48 74 62
f 48 62 75
f 49 76 77
f 50 78 79
f 50 79 80
f 52 73 53
f 54 81 82
f 54 82 55
f 54 72 81
f 55 60 59
f 57 75 62
f 61 62 74
f 63 83 64
f 64 83 84
f 64 84 80
f 64 80 79
f 64 79 65
f 65 79 66
f 66 79 78
f 66 78 67
f 68 85 69
f 69 85 86
f 69 86 70
f 70 86 87
f 70 87 88
f 70 88 89
f 70 89 71
f 71 89 72
f 72 89 88
f 72 88 90
f 72 90 91
f 72 91 81
f 76 92 77
f 76 93 92
f 77 92 94
f 86 95 96
f 86 96 87
f 87 96 88
f 88 96 97
f 88 97 98
f 88 98 99
f 88 99 100
f 88 100 90
f 92 93 101
f 92 101 102
f 92 102 103
f 92 103 94
f 93 99 98
f 93 98 101
f 95 104 105
f 95 105 96
f 96 105 97
f 97 105 98
f 98 105 101
f 101 105 102
f 102 105 104

