# https://github.com/mikedh/trimesh
v 0.04715848 -0.02694940 -0.00989477
v 0.04715848 -0.02700954 -0.00997324
v 0.04715848 -0.02847337 -0.00989477
v 0.04859755 -0.02848499 -0.00989477
v 0.04715848 -0.02741138 -0.01033980
v 0.05157633 -0.03243911 -0.01081500
v 0.04715848 -0.02873648 -0.01009506
v 0.04738707 -0.02872350 -0.00989477
v 0.04931909 -0.02928593 -0.00989477
v 0.05135893 -0.03197304 -0.01052307
v 0.04715848 -0.02823077 -0.01100980
v 0.05089281 -0.03173658 -0.01080622
v 0.05131777 -0.03272545 -0.01128143
v 0.05172798 -0.03230722 -0.01036504
v 0.05167161 -0.03294756 -0.01104382
v 0.05152489 -0.03319153 -0.01144934
v 0.04715848 -0.03393096 -0.01432691
v 0.05125783 -0.03278012 -0.00989477
v 0.05140635 -0.03166687 -0.00989477
v 0.05148597 -0.03184524 -0.01005665
v 0.05172798 -0.03222042 -0.01023224
v 0.05172798 -0.03224913 -0.01028163
v 0.04715848 -0.02901052 -0.01164304
v 0.05078142 -0.03325098 -0.01210782
v 0.05002767 -0.03331386 -0.01275972
v 0.04715848 -0.03255119 -0.01445861
v 0.05172798 -0.03292500 -0.01077714
v 0.05161749 -0.03363027 -0.01158323
v 0.05138577 -0.03393096 -0.01202387
v 0.05127438 -0.03363027 -0.01193278
v 0.05092457 -0.03363027 -0.01222635
v 0.04715848 -0.03393096 -0.01550065
v 0.04756645 -0.03393096 -0.01399657
v 0.05102432 -0.03393096 -0.01122491
v 0.05116300 -0.03393096 -0.01111735
v 0.05163448 -0.03393096 -0.01112559
v 0.05172798 -0.03274800 -0.00989477
v 0.05152355 -0.03180219 -0.00989477
v 0.05172798 -0.03212543 -0.00989477
v 0.04800796 -0.03393096 -0.01481583
v 0.04715848 -0.03359063 -0.01524440
v 0.05172798 -0.03314232 -0.01042869
v 0.05168637 -0.03363232 -0.01101584
v 0.05161122 -0.03393096 -0.01167597
v 0.05101985 -0.03393096 -0.01233280
v 0.04871162 -0.03391729 -0.01422759
f 1 2 5
f 1 5 11
f 1 11 23
f 1 23 26
f 1 26 41
f 1 41 32
f 1 32 17
f 1 17 7
f 1 7 3
f 1 3 8
f 1 8 18
f 1 18 37
f 1 37 39
f 1 39 38
f 1 38 19
f 1 19 9
f 1 9 4
f 1 4 2
f 2 4 6
f 2 6 5
f 3 7 8
f 4 9 10
f 4 10 6
f 5 6 12
f 5 12 13
f 5 13 11
f 6 10 14
f 6 14 15
f 6 15 16
f 6 16 13
f 6 13 12
f 7 17 18
f 7 18 8
f 9 19 20
f 9 20 21
f 9 21 22
f 9 22 10
f 10 22 14
f 11 13 23
f 13 16 24
f 13 24 25
f 13 25 26
f 13 26 23
f 14 22 21
f 14 21 39
f 14 39 37
f 14 37 42
f 14 42 27
f 14 27 15
f 15 27 28
f 15 28 16
f 16 28 29
f 16 29 30
f 16 30 31
f 16 31 24
f 17 32 40
f 17 40 45
f 17 45 29
f 17 29 44
f 17 44 36
f 17 36 35
f 17 35 34
f 17 34 33
f 17 33 18
f 18 33 34
f 18 34 35
f 18 35 36
f 18 36 37
f 19 38 20
f 20 38 21
f 21 38 39
f 24 31 40
f 24 40 25
f 25 40 32
f 25 32 41
f 25 41 26
f 27 42 43
f 27 43 44
f 27 44 28
f 28 44 29
f 29 45 30
f 30 45 31
f 31 46 40
f 31 45 46
f 36 44 43
f 36 43 42
f 36 42 37
f 40 46 45

