# https://github.com/mikedh/trimesh
v 0.05632097 -0.05742412 -0.01306241
v 0.05632097 -0.05742412 -0.01427815
v 0.05688504 -0.05742412 -0.01362040
v 0.05864843 -0.04490712 -0.01820944
v 0.05632097 -0.04490712 -0.01631932
v 0.05878317 -0.05742412 -0.02044577
v 0.05632097 -0.05729669 -0.01436488
v 0.05720857 -0.05742412 -0.01396301
v 0.05895331 -0.04490712 -0.01851590
v 0.05632097 -0.04490712 -0.01732474
v 0.05877099 -0.05702224 -0.02044577
v 0.05957561 -0.05742412 -0.02044577
v 0.05632097 -0.05707002 -0.01451233
v 0.05632097 -0.05677597 -0.01467569
v 0.05632097 -0.05637777 -0.01489253
v 0.05632097 -0.05614130 -0.01498938
v 0.05632097 -0.05564140 -0.01515635
v 0.05632097 -0.04934247 -0.01710934
v 0.05632097 -0.04737720 -0.01771505
v 0.05722608 -0.05742412 -0.01398397
v 0.05900088 -0.04490712 -0.01857879
v 0.05928672 -0.04490712 -0.02044577
v 0.05907548 -0.04568760 -0.02044577
v 0.05901192 -0.04594245 -0.02044577
v 0.05632097 -0.04649748 -0.01767818
v 0.05632097 -0.04691528 -0.01772372
v 0.05885663 -0.04720321 -0.02044577
v 0.05959578 -0.05708350 -0.02044577
v 0.05957333 -0.05742412 -0.02012629
v 0.05758309 -0.05742412 -0.01447258
v 0.05920946 -0.04490712 -0.01888453
v 0.06020933 -0.04490712 -0.02044577
v 0.05896130 -0.04621690 -0.02044577
v 0.05889774 -0.04657099 -0.02044577
v 0.05632097 -0.04665921 -0.01769914
v 0.05887147 -0.04691528 -0.02044577
v 0.05957218 -0.05742412 -0.02010533
v 0.05761202 -0.05742412 -0.01452173
v 0.05923496 -0.04490712 -0.01892284
v 0.05767901 -0.05742412 -0.01465762
v 0.05784724 -0.05742412 -0.01500962
v 0.05789101 -0.05742412 -0.01510286
v 0.05926769 -0.05742412 -0.01868432
v 0.05927378 -0.05742412 -0.01870094
v 0.05948426 -0.05742412 -0.01940639
v 0.05948731 -0.05742412 -0.01942735
f 1 2 6
f 1 6 12
f 1 12 29
f 1 29 37
f 1 37 46
f 1 46 45
f 1 45 44
f 1 44 43
f 1 43 42
f 1 42 41
f 1 41 40
f 1 40 38
f 1 38 30
f 1 30 20
f 1 20 8
f 1 8 3
f 1 3 4
f 1 4 5
f 1 5 10
f 1 10 25
f 1 25 35
f 1 35 26
f 1 26 19
f 1 19 18
f 1 18 17
f 1 17 16
f 1 16 15
f 1 15 14
f 1 14 13
f 1 13 7
f 1 7 2
f 2 7 6
f 3 8 9
f 3 9 4
f 4 9 21
f 4 21 31
f 4 31 39
f 4 39 32
f 4 32 22
f 4 22 10
f 4 10 5
f 6 11 27
f 6 27 36
f 6 36 34
f 6 34 33
f 6 33 24
f 6 24 23
f 6 23 22
f 6 22 32
f 6 32 28
f 6 28 12
f 6 7 13
f 6 13 14
f 6 14 15
f 6 15 16
f 6 16 17
f 6 17 18
f 6 18 19
f 6 19 11
f 8 20 9
f 9 20 21
f 10 22 23
f 10 23 24
f 10 24 25
f 11 19 26
f 11 26 27
f 12 28 29
f 20 30 21
f 21 30 31
f 24 33 25
f 25 33 34
f 25 34 35
f 26 35 34
f 26 34 36
f 26 36 27
f 28 32 29
f 29 32 37
f 30 38 32
f 30 32 39
f 30 39 31
f 32 38 40
f 32 40 41
f 32 41 42
f 32 42 43
f 32 43 44
f 32 44 45
f 32 45 46
f 32 46 37

