# https://github.com/mikedh/trimesh
v 0.06352888 -0.02545451 0.01433873
v 0.06024725 -0.02545451 0.01433873
v 0.06352888 -0.02644654 0.01433873
v 0.06352888 -0.02545451 0.01263181
v 0.06111973 -0.02876431 0.01433873
v 0.06214266 -0.02545451 0.01038096
v 0.05966736 -0.02876333 0.01038096
v 0.06272822 -0.02784128 0.01433873
v 0.06352888 -0.02643520 0.01429650
v 0.06271990 -0.02623012 0.01038096
v 0.06286998 -0.02568227 0.01038096
v 0.06291723 -0.02545451 0.01038096
v 0.06352888 -0.02571791 0.01293127
v 0.06206252 -0.02876431 0.01433873
v 0.05991799 -0.02876431 0.01065834
v 0.06024952 -0.02876431 0.01038096
v 0.06249158 -0.02819086 0.01433873
v 0.06271310 -0.02780176 0.01413418
v 0.06269080 -0.02706405 0.01219752
v 0.06267870 -0.02634870 0.01038096
v 0.06213586 -0.02866776 0.01433873
v 0.06165690 -0.02876431 0.01278948
v 0.06035196 -0.02876431 0.01038096
v 0.06266244 -0.02771687 0.01370996
v 0.06238460 -0.02833762 0.01433873
v 0.06144067 -0.02876431 0.01198135
v 0.06126300 -0.02876431 0.01133747
v 0.06107247 -0.02876431 0.01068740
v 0.06105622 -0.02876431 0.01064324
v 0.06095945 -0.02876398 0.01038096
v 0.06236267 -0.02836710 0.01433873
f 1 2 5
f 1 5 14
f 1 14 21
f 1 21 31
f 1 31 25
f 1 25 17
f 1 17 8
f 1 8 3
f 1 3 9
f 1 9 13
f 1 13 4
f 1 4 12
f 1 12 6
f 1 6 2
f 2 6 7
f 2 7 5
f 3 8 9
f 4 10 11
f 4 11 12
f 4 13 10
f 5 7 15
f 5 15 16
f 5 16 23
f 5 23 29
f 5 29 28
f 5 28 27
f 5 27 26
f 5 26 22
f 5 22 14
f 6 12 11
f 6 11 10
f 6 10 20
f 6 20 30
f 6 30 23
f 6 23 16
f 6 16 7
f 7 16 15
f 8 17 18
f 8 18 9
f 9 18 19
f 9 19 20
f 9 20 13
f 10 13 20
f 14 22 21
f 17 24 18
f 17 25 26
f 17 26 24
f 18 24 19
f 19 24 20
f 20 24 27
f 20 27 28
f 20 28 29
f 20 29 30
f 21 22 31
f 22 25 31
f 22 26 25
f 23 30 29
f 24 26 27

