# https://github.com/mikedh/trimesh
v 0.05632097 -0.03782703 -0.01519215
v 0.05598239 -0.03782703 -0.01505224
v 0.05620187 -0.03732386 -0.01494342
v 0.05632097 -0.03744353 -0.01503997
v 0.05632097 -0.03782703 -0.01430608
v 0.05594496 -0.03782703 -0.01503588
v 0.05494094 -0.03676833 -0.01418826
v 0.05632097 -0.03726878 -0.01497042
v 0.05530014 -0.03782703 -0.01381518
v 0.05632097 -0.03139254 -0.00720197
v 0.05531790 -0.03782703 -0.01474298
v 0.05567378 -0.03610197 -0.01416126
v 0.05614002 -0.03593197 -0.01428890
v 0.05632097 -0.03609041 -0.01444189
v 0.05632097 -0.03638687 -0.01458180
v 0.05484357 -0.03712599 -0.01426190
v 0.05483421 -0.03661602 -0.01383318
v 0.05497726 -0.03610401 -0.01345928
v 0.05470084 -0.03782703 -0.01389700
v 0.05585314 -0.03267903 -0.00848567
v 0.05557054 -0.03267903 -0.00848567
v 0.05632097 -0.03127150 -0.00708089
v 0.05530173 -0.03782703 -0.01473398
v 0.05632097 -0.03552876 -0.01401890
v 0.05505909 -0.03544988 -0.01268530
v 0.05565570 -0.03189163 -0.00857730
v 0.05632097 -0.03585990 -0.01432817
v 0.05470116 -0.03782499 -0.01438380
v 0.05483152 -0.03591566 -0.01299293
v 0.05487988 -0.03527649 -0.01221894
v 0.05487988 -0.03556275 -0.01190068
v 0.05493063 -0.03479916 -0.01130179
v 0.05493063 -0.03464820 -0.01130179
v 0.05470084 -0.03782703 -0.01438380
v 0.05560019 -0.03196643 -0.00780660
v 0.05564111 -0.03120487 -0.00717252
v 0.05599920 -0.03126675 -0.00709070
v 0.05632097 -0.03110355 -0.00696307
v 0.05620584 -0.03109131 -0.00800950
v 0.05632097 -0.03104644 -0.00804632
v 0.05493063 -0.03464820 -0.01142778
v 0.05564111 -0.03116203 -0.00723143
v 0.05573959 -0.03129122 -0.00769778
v 0.05602283 -0.03088053 -0.00746379
v 0.05564111 -0.03116203 -0.00717252
v 0.05600982 -0.03088053 -0.00685916
v 0.05632097 -0.03088053 -0.00683380
v 0.05632097 -0.03088053 -0.00775832
v 0.05600411 -0.03088053 -0.00687716
v 0.05601839 -0.03088053 -0.00745642
f 1 2 3
f 1 3 4
f 1 4 8
f 1 8 15
f 1 15 14
f 1 14 27
f 1 27 24
f 1 24 40
f 1 40 48
f 1 48 47
f 1 47 38
f 1 38 22
f 1 22 10
f 1 10 5
f 1 5 9
f 1 9 19
f 1 19 34
f 1 34 23
f 1 23 11
f 1 11 6
f 1 6 2
f 2 6 7
f 2 7 3
f 3 8 4
f 3 7 8
f 5 10 9
f 6 11 7
f 7 12 13
f 7 13 14
f 7 14 15
f 7 15 8
f 7 11 16
f 7 16 17
f 7 17 18
f 7 18 12
f 9 10 20
f 9 20 21
f 9 21 19
f 10 22 20
f 11 23 16
f 12 24 13
f 12 18 25
f 12 25 26
f 12 26 24
f 13 24 27
f 13 27 14
f 16 23 28
f 16 28 17
f 17 28 29
f 17 29 18
f 18 29 30
f 18 30 25
f 19 31 32
f 19 32 33
f 19 33 30
f 19 30 29
f 19 29 34
f 19 21 35
f 19 35 36
f 19 36 31
f 20 22 21
f 21 22 37
f 21 37 35
f 22 38 37
f 23 34 28
f 24 26 39
f 24 39 40
f 25 30 41
f 25 41 26
f 26 41 42
f 26 42 43
f 26 43 44
f 26 44 39
f 28 34 29
f 30 33 41
f 31 36 32
f 32 36 45
f 32 45 33
f 33 45 42
f 33 42 41
f 35 37 36
f 36 37 46
f 36 46 45
f 37 38 46
f 38 47 46
f 39 44 40
f 40 44 48
f 42 45 49
f 42 49 50
f 42 50 43
f 43 50 44
f 44 50 49
f 44 49 46
f 44 46 47
f 44 47 48
f 45 46 49

