# https://github.com/mikedh/trimesh
v 0.05398593 -0.02668989 -0.01655629
v 0.05398593 -0.02671273 -0.01659133
v 0.05353514 -0.02830964 -0.01774699
v 0.05367767 -0.02733779 -0.01663116
v 0.05369248 -0.02726511 -0.01655629
v 0.05398593 -0.02981934 -0.01655629
v 0.05398593 -0.02699308 -0.01693062
v 0.05330687 -0.03013498 -0.01872821
v 0.05352674 -0.02821828 -0.01733044
v 0.05398593 -0.02727342 -0.01726593
v 0.05350973 -0.02897001 -0.01847176
v 0.05283110 -0.03456646 -0.02191641
v 0.05358044 -0.02781749 -0.01663116
v 0.05359127 -0.02776765 -0.01655629
v 0.05394726 -0.03083480 -0.01655629
v 0.05398593 -0.04233296 -0.02321543
v 0.05338288 -0.02943724 -0.01802973
v 0.05281961 -0.03444601 -0.02152456
v 0.05274558 -0.03502954 -0.02152456
v 0.05352674 -0.02816844 -0.01663116
v 0.05346177 -0.02873743 -0.01733044
v 0.05398593 -0.02789225 -0.01782504
v 0.05348763 -0.02966982 -0.01917025
v 0.05259002 -0.03642917 -0.02222384
v 0.05349404 -0.03040909 -0.01983767
v 0.05341647 -0.03241302 -0.02126491
v 0.05278050 -0.03587264 -0.02266110
v 0.05214254 -0.04089803 -0.02398560
v 0.05357469 -0.02785487 -0.01655629
v 0.05394328 -0.03090955 -0.01655629
v 0.05358928 -0.04790449 -0.02379285
v 0.05398593 -0.04249909 -0.02334764
v 0.05390925 -0.03153461 -0.01655629
v 0.05266515 -0.03572935 -0.02152456
v 0.05281873 -0.03438164 -0.02082527
v 0.05215160 -0.04025635 -0.02329109
v 0.05215071 -0.04024597 -0.02292313
v 0.05194366 -0.04201939 -0.01655629
v 0.05352674 -0.02816844 -0.01655629
v 0.05330245 -0.03013498 -0.01802973
v 0.05398593 -0.02957222 -0.01924591
v 0.05390152 -0.02957845 -0.01924193
v 0.05353580 -0.03116913 -0.02048917
v 0.05390152 -0.03197278 -0.02110085
v 0.05390152 -0.03232165 -0.02130474
v 0.05339659 -0.03386041 -0.02192358
v 0.05297010 -0.03540541 -0.02253764
v 0.05276437 -0.03730342 -0.02334525
v 0.05215027 -0.04445317 -0.02467293
v 0.05211270 -0.04131958 -0.02402542
v 0.05179892 -0.04341902 -0.02362241
v 0.05187979 -0.04271921 -0.02362241
v 0.05204995 -0.04131958 -0.02362241
v 0.05212861 -0.04064883 -0.02356348
v 0.05284038 -0.03953785 -0.02397524
v 0.05223844 -0.04629305 -0.01655629
v 0.05218010 -0.04680389 -0.01655629
v 0.05192487 -0.04790449 -0.01655629
v 0.05358928 -0.04790449 -0.02395294
v 0.05398593 -0.04256346 -0.02349339
v 0.05383766 -0.03223235 -0.01655629
v 0.05382926 -0.03230711 -0.01655629
v 0.05210762 -0.04062184 -0.02292313
v 0.05186874 -0.04271921 -0.02292313
v 0.05202807 -0.04131958 -0.02292313
v 0.05187272 -0.04264445 -0.01655629
v 0.05398593 -0.03035302 -0.01988068
v 0.05390152 -0.03035510 -0.01987829
v 0.05390152 -0.03115044 -0.02050271
v 0.05398593 -0.03197070 -0.02110244
v 0.05398593 -0.03231957 -0.02130394
v 0.05390152 -0.03381265 -0.02194349
v 0.05320235 -0.03722866 -0.02337631
v 0.05343614 -0.03535557 -0.02258304
v 0.05320279 -0.03567536 -0.02269534
v 0.05320235 -0.03782465 -0.02358020
v 0.05215955 -0.04445317 -0.02467293
v 0.05211293 -0.04481658 -0.02468807
v 0.05197724 -0.04341902 -0.02422294
v 0.05179693 -0.04341902 -0.02292313
v 0.05188686 -0.04481658 -0.02432170
v 0.05172842 -0.04625982 -0.02419984
v 0.05174897 -0.04411676 -0.02362241
v 0.05286624 -0.03953785 -0.02397524
v 0.05172842 -0.04790449 -0.01655629
v 0.05358442 -0.04790449 -0.02399754
v 0.05398593 -0.04223951 -0.02374746
v 0.05398593 -0.04256346 -0.02354356
v 0.05186477 -0.04271921 -0.01655629
v 0.05398593 -0.03114836 -0.02050430
v 0.05398593 -0.03381472 -0.02194269
v 0.05390152 -0.03572935 -0.02273676
v 0.05398593 -0.03572105 -0.02273039
v 0.05390152 -0.03726604 -0.02335162
v 0.05398593 -0.03728058 -0.02334525
v 0.05390152 -0.03782465 -0.02349498
v 0.05320235 -0.03852447 -0.02372675
v 0.05320235 -0.04271921 -0.02421975
v 0.05370551 -0.04201939 -0.02401267
v 0.05374242 -0.04271921 -0.02404931
v 0.05218187 -0.04481658 -0.02468807
v 0.05210298 -0.04530873 -0.02469284
v 0.05179472 -0.04341902 -0.01655629
v 0.05180068 -0.04334427 -0.01655629
v 0.05172842 -0.04691395 -0.02421896
v 0.05172842 -0.04462761 -0.02362241
v 0.05172842 -0.04467952 -0.01655629
v 0.05176047 -0.04404408 -0.01655629
v 0.05398593 -0.03783088 -0.02347587
v 0.05398593 -0.03852447 -0.02356268
v 0.05398593 -0.03860753 -0.02357224
v 0.05360872 -0.04152724 -0.02398719
v 0.05320235 -0.04201939 -0.02414648
v 0.05172842 -0.04790449 -0.02421019
v 0.05342774 -0.04790449 -0.02404214
v 0.05218518 -0.04530873 -0.02469284
v 0.05398593 -0.04201939 -0.02388046
v 0.05398593 -0.03535972 -0.02258145
v 0.05250339 -0.04790449 -0.02425161
v 0.05180422 -0.04790449 -0.02424524
v 0.05172842 -0.04761377 -0.02422373
v 0.05279575 -0.04790449 -0.02419984
f 1 2 3
f 1 3 4
f 1 4 5
f 1 5 14
f 1 14 29
f 1 29 39
f 1 39 38
f 1 38 66
f 1 66 89
f 1 89 104
f 1 104 103
f 1 103 108
f 1 108 107
f 1 107 85
f 1 85 58
f 1 58 57
f 1 57 56
f 1 56 62
f 1 62 61
f 1 61 33
f 1 33 30
f 1 30 15
f 1 15 6
f 1 6 16
f 1 16 32
f 1 32 60
f 1 60 88
f 1 88 87
f 1 87 117
f 1 117 111
f 1 111 110
f 1 110 109
f 1 109 95
f 1 95 93
f 1 93 118
f 1 118 91
f 1 91 71
f 1 71 70
f 1 70 90
f 1 90 67
f 1 67 41
f 1 41 22
f 1 22 10
f 1 10 7
f 1 7 2
f 2 7 3
f 3 8 9
f 3 9 4
f 3 7 10
f 3 10 11
f 3 11 12
f 3 12 8
f 4 9 13
f 4 13 5
f 5 13 14
f 6 15 16
f 8 17 9
f 8 12 18
f 8 18 19
f 8 19 17
f 9 20 13
f 9 17 21
f 9 21 20
f 10 22 23
f 10 23 11
f 11 23 12
f 12 24 18
f 12 23 25
f 12 25 26
f 12 26 27
f 12 27 28
f 12 28 24
f 13 20 29
f 13 29 14
f 15 30 16
f 16 31 32
f 16 30 33
f 16 33 31
f 17 19 21
f 18 24 19
f 19 34 35
f 19 35 21
f 19 24 36
f 19 36 37
f 19 37 34
f 20 21 38
f 20 38 39
f 20 39 29
f 21 35 40
f 21 40 38
f 22 41 42
f 22 42 25
f 22 25 23
f 24 28 36
f 25 42 43
f 25 43 26
f 26 44 45
f 26 45 46
f 26 46 47
f 26 47 27
f 26 43 44
f 27 47 48
f 27 48 28
f 28 49 50
f 28 50 51
f 28 51 52
f 28 52 53
f 28 53 54
f 28 54 36
f 28 48 55
f 28 55 49
f 31 56 57
f 31 57 58
f 31 58 85
f 31 85 114
f 31 114 120
f 31 120 119
f 31 119 122
f 31 122 115
f 31 115 86
f 31 86 59
f 31 59 88
f 31 88 60
f 31 60 32
f 31 33 61
f 31 61 62
f 31 62 56
f 34 37 63
f 34 63 38
f 34 38 35
f 35 38 40
f 36 54 53
f 36 53 52
f 36 52 51
f 36 51 64
f 36 64 65
f 36 65 63
f 36 63 37
f 38 63 65
f 38 65 64
f 38 64 66
f 41 67 68
f 41 68 42
f 42 68 43
f 43 68 69
f 43 69 44
f 44 70 45
f 44 69 90
f 44 90 70
f 45 70 71
f 45 71 72
f 45 72 73
f 45 73 74
f 45 74 46
f 46 74 73
f 46 73 75
f 46 75 48
f 46 48 47
f 48 75 73
f 48 73 76
f 48 76 55
f 49 77 101
f 49 101 78
f 49 78 50
f 49 55 84
f 49 84 77
f 50 79 51
f 50 78 79
f 51 80 64
f 51 79 81
f 51 81 82
f 51 82 83
f 51 83 80
f 55 76 84
f 59 86 87
f 59 87 88
f 64 80 89
f 64 89 66
f 67 90 69
f 67 69 68
f 71 91 72
f 72 91 73
f 73 91 92
f 73 92 93
f 73 93 94
f 73 94 76
f 76 94 95
f 76 95 96
f 76 96 97
f 76 97 84
f 77 84 98
f 77 98 99
f 77 99 100
f 77 100 101
f 78 101 116
f 78 116 102
f 78 102 82
f 78 82 81
f 78 81 79
f 80 103 104
f 80 104 89
f 80 83 103
f 82 102 105
f 82 105 121
f 82 121 114
f 82 114 85
f 82 85 107
f 82 107 106
f 82 106 83
f 83 106 107
f 83 107 108
f 83 108 103
f 84 97 96
f 84 96 109
f 84 109 110
f 84 110 111
f 84 111 112
f 84 112 113
f 84 113 98
f 86 115 116
f 86 116 100
f 86 100 117
f 86 117 87
f 91 118 92
f 92 118 93
f 93 95 94
f 95 109 96
f 98 113 112
f 98 112 99
f 99 117 100
f 99 112 111
f 99 111 117
f 100 116 101
f 102 116 119
f 102 119 120
f 102 120 114
f 102 114 121
f 102 121 105
f 115 122 116
f 116 122 119

