# https://github.com/mikedh/trimesh
v 0.04589333 -0.03393096 -0.02672027
v 0.05172785 -0.03393096 -0.03019576
v 0.04589333 -0.03393096 -0.02788500
v 0.04589333 -0.04790449 -0.02975555
v 0.05172785 -0.04790449 -0.03202640
v 0.05172785 -0.03393096 -0.03105247
v 0.04609838 -0.03393096 -0.02803152
v 0.04589333 -0.03422094 -0.02802716
v 0.04589333 -0.04790449 -0.03065529
v 0.05172785 -0.04790449 -0.03275530
v 0.05132632 -0.03393096 -0.03099760
v 0.05172785 -0.03532339 -0.03168721
v 0.05139429 -0.03533707 -0.03168347
v 0.04642224 -0.03393096 -0.02823978
v 0.04599843 -0.03418537 -0.02808452
v 0.04589333 -0.03461623 -0.02819613
v 0.04589333 -0.04761315 -0.03062910
v 0.04611438 -0.04790449 -0.03079932
v 0.05139486 -0.04790449 -0.03276590
v 0.05078885 -0.04590612 -0.03306456
v 0.05095392 -0.04551630 -0.03308077
v 0.05126806 -0.04551630 -0.03301468
v 0.05130347 -0.04551630 -0.03300720
v 0.05172785 -0.04551630 -0.03290182
v 0.05131147 -0.03393096 -0.03099511
v 0.05172785 -0.03565577 -0.03181378
v 0.05172785 -0.03573236 -0.03183374
v 0.05126806 -0.03575562 -0.03177450
v 0.05113840 -0.03576246 -0.03175767
v 0.05092764 -0.03555181 -0.03159431
v 0.05085053 -0.03403491 -0.03092777
v 0.05091793 -0.03393096 -0.03089659
v 0.05126806 -0.03393096 -0.03098450
v 0.04863381 -0.03393096 -0.02958658
v 0.04862696 -0.03393506 -0.02958471
v 0.04715676 -0.03452596 -0.02892939
v 0.04918442 -0.03502931 -0.03036909
v 0.05001262 -0.03531655 -0.03098949
v 0.05072031 -0.03601824 -0.03168471
v 0.04589333 -0.03470377 -0.02822419
v 0.04589333 -0.04691420 -0.03056612
v 0.04770052 -0.04790449 -0.03183000
v 0.04910103 -0.04551630 -0.03252771
v 0.04772051 -0.04761315 -0.03181815
v 0.05110413 -0.04790449 -0.03277338
v 0.05072031 -0.04590612 -0.03306456
v 0.05045414 -0.04549988 -0.03308451
v 0.05101046 -0.04481735 -0.03308763
v 0.05136002 -0.04481735 -0.03301593
v 0.05172785 -0.04539730 -0.03290619
v 0.05172785 -0.03642721 -0.03199959
v 0.05110413 -0.03642721 -0.03191854
v 0.05063463 -0.03450134 -0.03103688
v 0.05073458 -0.03393096 -0.03082488
v 0.04989096 -0.03393096 -0.03035163
v 0.05040331 -0.03506077 -0.03112168
v 0.05070774 -0.03942681 -0.03238867
v 0.05064834 -0.03642721 -0.03173210
v 0.04776049 -0.03572826 -0.02969632
v 0.04589333 -0.03502931 -0.02830774
v 0.04589333 -0.04650112 -0.03052871
v 0.04697913 -0.04551630 -0.03114662
v 0.04864010 -0.04713578 -0.03237308
v 0.04863838 -0.04761315 -0.03237308
v 0.04864695 -0.04790449 -0.03236747
v 0.04702768 -0.04481735 -0.03111482
v 0.04756744 -0.04481735 -0.03146461
v 0.04791699 -0.04481735 -0.03169033
v 0.04794898 -0.04443710 -0.03166913
v 0.04916044 -0.04481735 -0.03248781
v 0.05003261 -0.04505808 -0.03307329
v 0.05069517 -0.04790449 -0.03276216
v 0.05040502 -0.04790449 -0.03273721
v 0.05003261 -0.04525641 -0.03307329
v 0.05040959 -0.04482145 -0.03309013
v 0.05086424 -0.04436187 -0.03307329
v 0.05172785 -0.04194358 -0.03268234
v 0.05172785 -0.04481735 -0.03291492
v 0.05172785 -0.04202018 -0.03268920
v 0.05172785 -0.04264390 -0.03274096
v 0.05172785 -0.03953624 -0.03239802
v 0.05166331 -0.03937347 -0.03238617
v 0.05110413 -0.04062365 -0.03258944
v 0.05110413 -0.03992333 -0.03248968
v 0.05110413 -0.03931192 -0.03239989
v 0.05005718 -0.03393096 -0.03045077
v 0.05038103 -0.03393096 -0.03063970
v 0.05064491 -0.04436187 -0.03307329
v 0.04970590 -0.04411840 -0.03269918
v 0.04983670 -0.04271913 -0.03250464
v 0.04925525 -0.04411840 -0.03242545
v 0.04631886 -0.04341808 -0.03041710
v 0.04589333 -0.04272870 -0.02999373
v 0.04589333 -0.04240043 -0.02992328
v 0.04589333 -0.04089584 -0.02959655
v 0.04589333 -0.03571185 -0.02846861
v 0.04589333 -0.03520576 -0.02835139
v 0.04589333 -0.04481735 -0.03037159
v 0.04970590 -0.04790449 -0.03261563
v 0.04589333 -0.04442752 -0.03033043
v 0.04589333 -0.04430579 -0.03031609
v 0.04999606 -0.04790449 -0.03267424
v 0.05110413 -0.04131986 -0.03267860
v 0.05172785 -0.04131986 -0.03261126
f 1 2 6
f 1 6 11
f 1 11 25
f 1 25 33
f 1 33 32
f 1 32 54
f 1 54 87
f 1 87 86
f 1 86 55
f 1 55 34
f 1 34 14
f 1 14 7
f 1 7 3
f 1 3 8
f 1 8 16
f 1 16 40
f 1 40 60
f 1 60 97
f 1 97 96
f 1 96 95
f 1 95 94
f 1 94 93
f 1 93 101
f 1 101 100
f 1 100 98
f 1 98 61
f 1 61 41
f 1 41 17
f 1 17 9
f 1 9 4
f 1 4 5
f 1 5 2
f 2 5 10
f 2 10 24
f 2 24 50
f 2 50 78
f 2 78 80
f 2 80 79
f 2 79 77
f 2 77 104
f 2 104 81
f 2 81 51
f 2 51 27
f 2 27 26
f 2 26 12
f 2 12 6
f 3 7 8
f 4 9 18
f 4 18 42
f 4 42 65
f 4 65 99
f 4 99 102
f 4 102 73
f 4 73 72
f 4 72 45
f 4 45 19
f 4 19 10
f 4 10 5
f 6 12 13
f 6 13 11
f 7 14 15
f 7 15 8
f 8 15 16
f 9 17 18
f 10 19 20
f 10 20 21
f 10 21 22
f 10 22 23
f 10 23 24
f 11 13 25
f 12 26 13
f 13 26 27
f 13 27 28
f 13 28 29
f 13 29 30
f 13 30 31
f 13 31 32
f 13 32 33
f 13 33 25
f 14 34 35
f 14 35 36
f 14 36 16
f 14 16 15
f 16 36 37
f 16 37 38
f 16 38 39
f 16 39 40
f 17 41 18
f 18 41 43
f 18 43 44
f 18 44 42
f 19 45 20
f 20 46 47
f 20 47 21
f 20 45 46
f 21 47 48
f 21 48 49
f 21 49 22
f 22 49 23
f 23 49 50
f 23 50 24
f 27 51 52
f 27 52 28
f 28 52 29
f 29 52 39
f 29 39 30
f 30 39 53
f 30 53 31
f 31 53 54
f 31 54 32
f 34 55 35
f 35 53 37
f 35 37 36
f 35 55 53
f 37 53 38
f 38 53 56
f 38 56 39
f 39 56 53
f 39 52 57
f 39 57 58
f 39 58 59
f 39 59 40
f 40 59 60
f 41 61 62
f 41 62 43
f 42 44 63
f 42 63 64
f 42 64 65
f 43 63 44
f 43 62 66
f 43 66 67
f 43 67 68
f 43 68 69
f 43 69 70
f 43 70 71
f 43 71 63
f 45 72 46
f 46 72 73
f 46 73 74
f 46 74 47
f 47 75 48
f 47 74 75
f 48 75 76
f 48 76 77
f 48 77 49
f 49 78 50
f 49 77 79
f 49 79 80
f 49 80 78
f 51 81 82
f 51 82 83
f 51 83 84
f 51 84 85
f 51 85 57
f 51 57 52
f 53 55 86
f 53 86 87
f 53 87 54
f 57 85 84
f 57 84 83
f 57 83 88
f 57 88 71
f 57 71 89
f 57 89 90
f 57 90 91
f 57 91 69
f 57 69 58
f 58 69 92
f 58 92 93
f 58 93 94
f 58 94 59
f 59 94 95
f 59 95 96
f 59 96 97
f 59 97 60
f 61 98 66
f 61 66 62
f 63 71 64
f 64 71 74
f 64 74 65
f 65 74 99
f 66 98 100
f 66 100 101
f 66 101 69
f 66 69 67
f 67 69 68
f 69 91 71
f 69 71 70
f 69 101 92
f 71 88 75
f 71 75 74
f 71 91 89
f 73 102 74
f 74 102 99
f 75 88 76
f 76 88 83
f 76 83 103
f 76 103 82
f 76 82 104
f 76 104 77
f 81 104 82
f 82 103 83
f 89 91 90
f 92 101 93

