# https://github.com/mikedh/trimesh
v 0.04368777 -0.05673130 0.01580115
v 0.04368777 -0.05673130 0.01717510
v 0.04346289 -0.05673130 0.01605349
v 0.04297152 -0.04790449 0.02202494
v 0.04328407 -0.04790449 0.02167603
v 0.04363362 -0.04790449 0.02139230
v 0.04368777 -0.04790449 0.02135367
v 0.04368777 -0.05243368 0.02104097
v 0.04368719 -0.05673130 0.02813404
v 0.04336115 -0.05673130 0.01617784
v 0.04285571 -0.04790449 0.02252357
v 0.04328947 -0.05673130 0.01626598
v 0.04273123 -0.05673130 0.01695295
v 0.04256628 -0.05673130 0.01716544
v 0.04218589 -0.05673130 0.01765561
v 0.04193057 -0.05673130 0.01830516
v 0.04368777 -0.04790449 0.02261895
v 0.04368777 -0.05200685 0.02137661
v 0.04357620 -0.04790449 0.02813404
v 0.04258767 -0.05673130 0.02813404
v 0.04368777 -0.05164569 0.02164101
v 0.04368777 -0.05149708 0.02172915
v 0.04368777 -0.05111086 0.02193922
v 0.04368777 -0.05063997 0.02216137
v 0.04368777 -0.05023734 0.02231591
v 0.04368777 -0.04971202 0.02242578
v 0.04368777 -0.04945195 0.02246441
v 0.04368777 -0.04880134 0.02253323
v 0.04282815 -0.04790449 0.02293286
v 0.04192672 -0.05673130 0.01833051
v 0.04201883 -0.05530481 0.01972860
v 0.04281235 -0.04790449 0.02813404
v 0.04244469 -0.05625091 0.02813404
v 0.04230517 -0.05673130 0.02783704
v 0.04278113 -0.04790449 0.02363190
v 0.04189608 -0.05673130 0.01899817
v 0.04235431 -0.04996518 0.02692309
v 0.04269866 -0.04790449 0.02503120
v 0.04273527 -0.04790449 0.02433094
v 0.04277940 -0.04831404 0.02813404
v 0.04280715 -0.04790449 0.02811713
v 0.04229438 -0.05111086 0.02729857
v 0.04232656 -0.05569880 0.02813404
v 0.04230151 -0.05670365 0.02784066
v 0.04229515 -0.05673130 0.02782496
v 0.04171938 -0.05673130 0.02618903
v 0.04217838 -0.05180985 0.02671905
v 0.04224679 -0.05111086 0.02671905
v 0.04235431 -0.04996518 0.02711022
v 0.04266474 -0.04790449 0.02671905
v 0.04267168 -0.04790449 0.02602000
v 0.04267611 -0.04790449 0.02573024
v 0.04230113 -0.05390683 0.02795897
v 0.04227588 -0.05460582 0.02803383
v 0.04231770 -0.05460582 0.02813404
v 0.04228398 -0.05187725 0.02745793
v 0.04236472 -0.05215546 0.02776942
v 0.04268055 -0.04790449 0.02741809
v 0.04233022 -0.05041187 0.02719232
v 0.04212076 -0.05390683 0.02741809
v 0.04217163 -0.05320784 0.02741809
v 0.04222366 -0.05250798 0.02741809
v 0.04175734 -0.05673130 0.02664902
v 0.04230421 -0.05530481 0.02813404
v 0.04224563 -0.05600466 0.02794328
v 0.04203964 -0.05673130 0.02739636
v 0.04204850 -0.05320784 0.02671905
v 0.04211306 -0.05250798 0.02671905
v 0.04207509 -0.05460582 0.02741809
v 0.04203867 -0.05530481 0.02741809
v 0.04225045 -0.05530481 0.02802900
v 0.04230113 -0.05509917 0.02813404
v 0.04202364 -0.05600466 0.02741809
f 1 2 9
f 1 9 20
f 1 20 34
f 1 34 45
f 1 45 66
f 1 66 63
f 1 63 46
f 1 46 36
f 1 36 30
f 1 30 16
f 1 16 15
f 1 15 14
f 1 14 13
f 1 13 12
f 1 12 10
f 1 10 3
f 1 3 4
f 1 4 5
f 1 5 6
f 1 6 7
f 1 7 17
f 1 17 28
f 1 28 27
f 1 27 26
f 1 26 25
f 1 25 24
f 1 24 23
f 1 23 22
f 1 22 21
f 1 21 18
f 1 18 8
f 1 8 2
f 2 8 9
f 3 10 4
f 4 11 29
f 4 29 35
f 4 35 39
f 4 39 38
f 4 38 52
f 4 52 51
f 4 51 50
f 4 50 58
f 4 58 41
f 4 41 32
f 4 32 19
f 4 19 17
f 4 17 7
f 4 7 6
f 4 6 5
f 4 10 12
f 4 12 13
f 4 13 14
f 4 14 15
f 4 15 16
f 4 16 11
f 8 18 9
f 9 19 32
f 9 32 40
f 9 40 55
f 9 55 72
f 9 72 64
f 9 64 43
f 9 43 33
f 9 33 20
f 9 18 21
f 9 21 22
f 9 22 23
f 9 23 24
f 9 24 25
f 9 25 26
f 9 26 27
f 9 27 28
f 9 28 17
f 9 17 19
f 11 16 30
f 11 30 31
f 11 31 29
f 20 33 34
f 29 31 35
f 30 36 31
f 31 36 37
f 31 37 38
f 31 38 39
f 31 39 35
f 32 41 42
f 32 42 40
f 33 43 44
f 33 44 34
f 34 44 45
f 36 46 47
f 36 47 48
f 36 48 37
f 37 48 47
f 37 47 49
f 37 49 50
f 37 50 51
f 37 51 52
f 37 52 38
f 40 53 54
f 40 54 55
f 40 42 56
f 40 56 57
f 40 57 53
f 41 58 49
f 41 49 59
f 41 59 42
f 42 60 61
f 42 61 62
f 42 62 56
f 42 59 63
f 42 63 60
f 43 64 65
f 43 65 45
f 43 45 44
f 45 65 66
f 46 63 67
f 46 67 68
f 46 68 47
f 47 68 49
f 49 58 50
f 49 68 67
f 49 67 63
f 49 63 59
f 53 57 60
f 53 60 54
f 54 60 69
f 54 69 70
f 54 70 71
f 54 71 72
f 54 72 55
f 56 62 57
f 57 62 61
f 57 61 60
f 60 63 69
f 63 66 73
f 63 73 70
f 63 70 69
f 64 72 71
f 64 71 65
f 65 71 66
f 66 71 73
f 70 73 71

