# https://github.com/mikedh/trimesh
v 0.04230106 -0.05509933 0.02813470
v 0.04231793 -0.05460607 0.02813470
v 0.04230444 -0.05530445 0.02813470
v 0.04305886 -0.05288325 0.02987449
v 0.04305886 -0.05263070 0.02987449
v 0.04306494 -0.05216353 0.02986591
v 0.04296034 -0.05181019 0.02947833
v 0.04284090 -0.05041225 0.02881741
v 0.04289151 -0.04971269 0.02881741
v 0.04278152 -0.04829340 0.02813470
v 0.04232670 -0.05569810 0.02813470
v 0.04375391 -0.05079523 0.03127623
v 0.04373637 -0.05041225 0.03130858
v 0.04373637 -0.04971269 0.03132244
v 0.04244479 -0.05625064 0.02813470
v 0.04259527 -0.05675694 0.02813470
v 0.04375391 -0.04923485 0.03129405
v 0.04359196 -0.04971269 0.03091506
v 0.04301095 -0.05041225 0.02932713
v 0.04305414 -0.04923485 0.02919772
v 0.04296372 -0.04900601 0.02887287
v 0.04281256 -0.04790449 0.02813470
v 0.04382679 -0.05126121 0.03119963
v 0.04413585 -0.05103830 0.03159051
v 0.04444558 -0.05081539 0.03198072
v 0.04438148 -0.05041225 0.03204411
v 0.04428228 -0.04971269 0.03215239
v 0.04424787 -0.04901312 0.03221644
v 0.04393273 -0.04971269 0.03167106
v 0.04426541 -0.04831474 0.03220984
v 0.04389157 -0.04900601 0.03156146
v 0.04296102 -0.05790469 0.02813470
v 0.04581476 -0.05929552 0.03061266
v 0.04382274 -0.05337176 0.03050504
v 0.04305144 -0.05499498 0.02918055
v 0.04366349 -0.04900601 0.03097118
v 0.04403193 -0.04790449 0.03161362
v 0.04369048 -0.04790449 0.03078499
v 0.04367361 -0.04831474 0.03083583
v 0.04297519 -0.04831474 0.02873686
v 0.04299206 -0.04790449 0.02868602
v 0.04357644 -0.04790449 0.02813470
v 0.04426406 -0.05181019 0.03146968
v 0.04514063 -0.05292475 0.03198402
v 0.04507247 -0.05250975 0.03204873
v 0.04474789 -0.05041225 0.03239405
v 0.04582150 -0.05717430 0.03130264
v 0.04465207 -0.04971269 0.03250167
v 0.04459404 -0.04901312 0.03256572
v 0.04459067 -0.04831474 0.03255911
v 0.04428295 -0.04790449 0.03218078
v 0.04417026 -0.04790449 0.03193385
v 0.04302377 -0.05810152 0.02813470
v 0.04442939 -0.05925521 0.02920168
v 0.04593285 -0.06001761 0.03049117
v 0.04602664 -0.06001761 0.03058427
v 0.04628239 -0.06001761 0.03083649
v 0.04609008 -0.05880108 0.03104183
v 0.04919484 -0.04790449 0.03417742
v 0.04919484 -0.06001761 0.03080348
v 0.04481605 -0.06001761 0.02813470
v 0.04523443 -0.05124224 0.03259477
v 0.04515750 -0.05077507 0.03266674
v 0.04509744 -0.05041225 0.03271362
v 0.04651858 -0.05927536 0.03130330
v 0.04611572 -0.05670358 0.03172454
v 0.04500162 -0.04971269 0.03276908
v 0.04494426 -0.04901312 0.03279219
v 0.04494021 -0.04831474 0.03281200
v 0.04524657 -0.04790449 0.03300677
v 0.04482752 -0.04790449 0.03269711
v 0.04462306 -0.04790449 0.03253072
v 0.04324916 -0.05880108 0.02813470
v 0.04366754 -0.05880108 0.02856717
v 0.04373637 -0.05922438 0.02849586
v 0.04450699 -0.05972119 0.02912443
v 0.04559207 -0.06001761 0.03014057
v 0.04643895 -0.06001761 0.03097382
v 0.04919484 -0.04790449 0.03487928
v 0.04919484 -0.06001761 0.03160371
v 0.04374176 -0.06001761 0.02813470
v 0.04585457 -0.05287614 0.03266806
v 0.04579384 -0.05250975 0.03272484
v 0.04567845 -0.05181019 0.03283378
v 0.04709891 -0.05390770 0.03350923
v 0.04649293 -0.05236154 0.03341614
v 0.04641668 -0.05181019 0.03346037
v 0.04663262 -0.05974135 0.03122737
v 0.04729055 -0.05492621 0.03335011
v 0.04719068 -0.05446023 0.03342208
v 0.04674936 -0.05390770 0.03318438
v 0.04662992 -0.05544199 0.03259675
v 0.04637552 -0.05390770 0.03283510
v 0.04602597 -0.05390770 0.03250827
v 0.04635055 -0.05111063 0.03348942
v 0.04583568 -0.04818906 0.03337652
v 0.04582420 -0.04790449 0.03338510
v 0.04571961 -0.04790449 0.03332106
v 0.04630669 -0.05041225 0.03351187
v 0.04327210 -0.05886630 0.02813470
v 0.04381937 -0.05969155 0.02840078
v 0.04455962 -0.06001761 0.02905906
v 0.04490917 -0.06001761 0.02943013
v 0.04524455 -0.06001761 0.02978073
v 0.04533632 -0.06001761 0.02987581
v 0.04677837 -0.06001761 0.03117322
v 0.04899847 -0.04790449 0.03486145
v 0.04830748 -0.05181019 0.03432267
v 0.04900657 -0.05250975 0.03429890
v 0.04919484 -0.05250975 0.03431541
v 0.04901669 -0.06001761 0.03158193
v 0.04919484 -0.05902400 0.03201308
v 0.04389157 -0.06001761 0.02831429
v 0.04349681 -0.05947219 0.02813470
v 0.04761513 -0.05327453 0.03396613
v 0.04698419 -0.05320813 0.03359573
v 0.04740864 -0.05250975 0.03397604
v 0.04707461 -0.06001761 0.03130198
v 0.04709823 -0.05999271 0.03132244
v 0.04723252 -0.05848094 0.03197544
v 0.04717786 -0.05650082 0.03272088
v 0.04796603 -0.05355199 0.03405725
v 0.04726221 -0.05072765 0.03405395
v 0.04723724 -0.05026166 0.03407375
v 0.04713062 -0.04831474 0.03413714
v 0.04710835 -0.04790449 0.03415035
v 0.04623043 -0.04901312 0.03355743
v 0.04685733 -0.04971269 0.03388426
v 0.04876094 -0.04790449 0.03483372
v 0.04785266 -0.05308601 0.03409488
v 0.04830748 -0.05250975 0.03423684
v 0.04856323 -0.04813807 0.03478156
v 0.04919484 -0.05320813 0.03422958
v 0.04760838 -0.06001761 0.03140960
v 0.04900657 -0.05720276 0.03272286
v 0.04760838 -0.05855090 0.03200383
v 0.04919484 -0.05556056 0.03340755
v 0.04775819 -0.05250975 0.03413384
v 0.04768733 -0.05181019 0.03417610
v 0.04763605 -0.05111063 0.03421835
v 0.04719675 -0.06001761 0.03133235
v 0.04760838 -0.05810152 0.03218474
v 0.04760838 -0.05663125 0.03277370
v 0.04843231 -0.05362669 0.03408630
v 0.04900657 -0.05320813 0.03421241
v 0.04824270 -0.05327453 0.03412988
v 0.04830748 -0.05517521 0.03345047
v 0.04754090 -0.05046205 0.03422430
v 0.04760838 -0.04971269 0.03431277
v 0.04720687 -0.04971269 0.03409158
v 0.04716908 -0.04901312 0.03411469
v 0.04760838 -0.04901312 0.03435635
v 0.04760838 -0.04790449 0.03441775
v 0.04760838 -0.04831474 0.03439530
v 0.04851666 -0.04790449 0.03479608
v 0.04919484 -0.05357570 0.03415827
v 0.04919484 -0.05533528 0.03349801
v 0.04825687 -0.05676761 0.03280341
v 0.04819343 -0.04790449 0.03467591
v 0.04790192 -0.04790449 0.03456433
v 0.04900657 -0.05371087 0.03411535
v 0.04919484 -0.05374051 0.03412394
f 1 2 10
f 1 10 22
f 1 22 42
f 1 42 61
f 1 61 81
f 1 81 114
f 1 114 100
f 1 100 73
f 1 73 53
f 1 53 32
f 1 32 16
f 1 16 15
f 1 15 11
f 1 11 3
f 1 3 4
f 1 4 5
f 1 5 6
f 1 6 2
f 2 6 7
f 2 7 8
f 2 8 9
f 2 9 10
f 3 11 4
f 4 12 13
f 4 13 14
f 4 14 5
f 4 11 15
f 4 15 16
f 4 16 12
f 5 14 6
f 6 14 17
f 6 17 18
f 6 18 7
f 7 18 19
f 7 19 8
f 8 19 9
f 9 18 17
f 9 17 20
f 9 20 21
f 9 21 10
f 9 19 18
f 10 21 22
f 12 23 24
f 12 24 25
f 12 25 26
f 12 26 27
f 12 27 28
f 12 28 13
f 12 16 23
f 13 28 29
f 13 29 14
f 14 29 28
f 14 28 30
f 14 30 31
f 14 31 17
f 16 32 33
f 16 33 34
f 16 34 35
f 16 35 23
f 17 36 20
f 17 31 37
f 17 37 38
f 17 38 39
f 17 39 36
f 20 36 21
f 21 36 39
f 21 39 40
f 21 40 22
f 22 41 38
f 22 38 37
f 22 37 52
f 22 52 51
f 22 51 72
f 22 72 71
f 22 71 70
f 22 70 98
f 22 98 97
f 22 97 126
f 22 126 153
f 22 153 160
f 22 160 159
f 22 159 155
f 22 155 129
f 22 129 107
f 22 107 79
f 22 79 59
f 22 59 42
f 22 40 41
f 23 35 24
f 24 35 34
f 24 34 43
f 24 43 25
f 25 44 45
f 25 45 46
f 25 46 26
f 25 43 33
f 25 33 47
f 25 47 44
f 26 46 27
f 27 48 49
f 27 49 28
f 27 46 48
f 28 49 50
f 28 50 30
f 30 50 51
f 30 51 31
f 31 51 52
f 31 52 37
f 32 53 54
f 32 54 33
f 33 54 55
f 33 55 56
f 33 56 57
f 33 57 58
f 33 58 47
f 33 43 34
f 38 41 40
f 38 40 39
f 42 59 60
f 42 60 61
f 44 62 45
f 44 47 62
f 45 62 46
f 46 62 63
f 46 63 64
f 46 64 48
f 47 58 65
f 47 65 66
f 47 66 62
f 48 67 49
f 48 64 67
f 49 67 68
f 49 68 69
f 49 69 50
f 50 69 70
f 50 70 71
f 50 71 72
f 50 72 51
f 53 73 74
f 53 74 54
f 54 75 76
f 54 76 55
f 54 74 75
f 55 77 105
f 55 105 104
f 55 104 103
f 55 103 102
f 55 102 113
f 55 113 81
f 55 81 61
f 55 61 60
f 55 60 80
f 55 80 111
f 55 111 134
f 55 134 141
f 55 141 118
f 55 118 106
f 55 106 78
f 55 78 57
f 55 57 56
f 55 76 77
f 57 78 65
f 57 65 58
f 59 79 110
f 59 110 133
f 59 133 156
f 59 156 162
f 59 162 157
f 59 157 137
f 59 137 112
f 59 112 80
f 59 80 60
f 62 82 83
f 62 83 84
f 62 84 63
f 62 66 82
f 63 84 85
f 63 85 86
f 63 86 64
f 64 86 87
f 64 87 67
f 65 78 88
f 65 88 89
f 65 89 90
f 65 90 85
f 65 85 91
f 65 91 92
f 65 92 93
f 65 93 94
f 65 94 66
f 66 94 82
f 67 87 95
f 67 95 68
f 68 96 97
f 68 97 98
f 68 98 69
f 68 95 99
f 68 99 96
f 69 98 70
f 73 100 75
f 73 75 74
f 75 100 101
f 75 101 76
f 76 101 102
f 76 102 103
f 76 103 104
f 76 104 105
f 76 105 77
f 78 106 88
f 79 107 108
f 79 108 109
f 79 109 110
f 80 112 111
f 81 113 114
f 82 94 93
f 82 93 91
f 82 91 83
f 83 91 84
f 84 91 85
f 85 90 115
f 85 115 116
f 85 116 86
f 86 116 87
f 87 116 117
f 87 117 95
f 88 106 118
f 88 118 119
f 88 119 120
f 88 120 121
f 88 121 89
f 89 121 122
f 89 122 115
f 89 115 90
f 91 93 92
f 95 117 123
f 95 123 124
f 95 124 99
f 96 125 126
f 96 126 97
f 96 99 127
f 96 127 128
f 96 128 125
f 99 124 128
f 99 128 127
f 100 114 101
f 101 114 113
f 101 113 102
f 107 129 108
f 108 130 122
f 108 122 131
f 108 131 109
f 108 129 132
f 108 132 130
f 109 131 133
f 109 133 110
f 111 112 134
f 112 135 136
f 112 136 134
f 112 137 135
f 115 122 130
f 115 130 138
f 115 138 117
f 115 117 116
f 117 138 139
f 117 139 140
f 117 140 123
f 118 141 119
f 119 141 120
f 120 141 134
f 120 134 136
f 120 136 142
f 120 142 143
f 120 143 122
f 120 122 121
f 122 144 133
f 122 133 145
f 122 145 146
f 122 146 131
f 122 143 142
f 122 142 147
f 122 147 144
f 123 140 148
f 123 148 124
f 124 149 150
f 124 150 128
f 124 148 149
f 125 128 151
f 125 151 149
f 125 149 152
f 125 152 126
f 126 152 154
f 126 154 153
f 128 150 151
f 129 155 132
f 130 132 155
f 130 155 138
f 131 146 145
f 131 145 133
f 133 144 156
f 135 142 136
f 135 137 142
f 137 157 147
f 137 147 158
f 137 158 142
f 138 155 139
f 139 155 140
f 140 155 159
f 140 159 160
f 140 160 149
f 140 149 148
f 142 158 147
f 144 161 156
f 144 147 157
f 144 157 161
f 149 160 152
f 149 151 150
f 152 160 154
f 153 154 160
f 156 161 162
f 157 162 161

