# https://github.com/mikedh/trimesh
v 0.05632126 -0.06724461 -0.01999383
v 0.05632126 -0.06714703 -0.02012104
v 0.05648799 -0.06702158 -0.02000843
v 0.05667365 -0.06724461 -0.01940991
v 0.05632126 -0.06724461 -0.01027568
v 0.05632126 -0.06691665 -0.02041926
v 0.05856850 -0.06490244 -0.01928061
v 0.05788034 -0.06631494 -0.01860076
v 0.05795058 -0.06724461 -0.01728067
v 0.05634750 -0.06684115 -0.02047348
v 0.05674157 -0.06654803 -0.02019820
v 0.05694763 -0.06724461 -0.00263464
v 0.05632126 -0.06546775 -0.00263464
v 0.05632126 -0.06680359 -0.02056315
v 0.05778182 -0.06548827 -0.01983325
v 0.05842131 -0.06472085 -0.01974566
v 0.05881858 -0.06442503 -0.01946413
v 0.05848631 -0.06619452 -0.01774573
v 0.05844463 -0.06684115 -0.01697828
v 0.05830647 -0.06724461 -0.01668215
v 0.05699485 -0.06607294 -0.02038589
v 0.05763288 -0.06724461 -0.00263464
v 0.05632126 -0.06397123 -0.00263464
v 0.05632126 -0.06666884 -0.02072582
v 0.05906837 -0.06393019 -0.01964765
v 0.05763988 -0.06528848 -0.02030039
v 0.05919050 -0.06412882 -0.01918051
v 0.05903456 -0.06459501 -0.01886352
v 0.05855859 -0.06702119 -0.01651114
v 0.05831347 -0.06724461 -0.01666964
v 0.05632126 -0.06658521 -0.02082383
v 0.05763288 -0.06724267 -0.00263464
v 0.05923101 -0.06724461 -0.01093885
v 0.05632126 -0.06392477 -0.00276810
v 0.05636061 -0.06402273 -0.00263464
v 0.05786548 -0.06328937 -0.01005463
v 0.05860231 -0.06425466 -0.01998549
v 0.05882966 -0.06374201 -0.02016901
v 0.05902349 -0.06328937 -0.02032541
v 0.05910189 -0.06328937 -0.02020863
v 0.05920187 -0.06346400 -0.01988539
v 0.05637227 -0.06617594 -0.02120547
v 0.05717352 -0.06560676 -0.02064240
v 0.05929834 -0.06354376 -0.01942033
v 0.05915261 -0.06475918 -0.01839638
v 0.05865857 -0.06724461 -0.01594182
v 0.05865478 -0.06724461 -0.01595016
v 0.05864399 -0.06724461 -0.01597310
v 0.05632126 -0.06621117 -0.02124092
v 0.05756001 -0.06649267 -0.00263464
v 0.05923218 -0.06724461 -0.01105981
v 0.05926337 -0.06703474 -0.01173758
v 0.05923422 -0.06674822 -0.01123707
v 0.05632126 -0.06375517 -0.00334786
v 0.05713068 -0.06530474 -0.00263464
v 0.05805289 -0.06328937 -0.01074491
v 0.05632126 -0.06328937 -0.00510379
v 0.05632126 -0.06330641 -0.00503289
v 0.05632126 -0.06367231 -0.00364399
v 0.05780106 -0.06482268 -0.02054647
v 0.05859095 -0.06355344 -0.02066742
v 0.05870491 -0.06328937 -0.02075919
v 0.05882296 -0.06328937 -0.02059861
v 0.05922839 -0.06328937 -0.01997297
v 0.05929834 -0.06328937 -0.01970604
v 0.05632126 -0.06610198 -0.02134311
v 0.05929834 -0.06388063 -0.01871128
v 0.05896199 -0.06724461 -0.01449870
v 0.05886289 -0.06724461 -0.01517229
v 0.05739358 -0.06580732 -0.00263464
v 0.05929834 -0.06543329 -0.01381050
v 0.05929834 -0.06546814 -0.01354774
v 0.05929834 -0.06411604 -0.01801058
v 0.05929834 -0.06526912 -0.01377714
v 0.05929834 -0.06461669 -0.01468222
v 0.05713418 -0.06531094 -0.00263464
v 0.05738834 -0.06579261 -0.00263464
v 0.05929834 -0.06328937 -0.01663419
v 0.05632126 -0.06328937 -0.02393739
v 0.05632126 -0.06573298 -0.02168512
v 0.05736794 -0.06328937 -0.02254849
v 0.05739125 -0.06579339 -0.00264715
v 0.05929834 -0.06384462 -0.01581461
v 0.05660953 -0.06328937 -0.02355993
v 0.05649411 -0.06355654 -0.02346608
v 0.05632126 -0.06548479 -0.02191452
v 0.05672583 -0.06328937 -0.02340560
f 1 2 3
f 1 3 4
f 1 4 9
f 1 9 20
f 1 20 30
f 1 30 48
f 1 48 47
f 1 47 46
f 1 46 69
f 1 69 68
f 1 68 51
f 1 51 33
f 1 33 22
f 1 22 12
f 1 12 5
f 1 5 13
f 1 13 23
f 1 23 34
f 1 34 54
f 1 54 59
f 1 59 58
f 1 58 57
f 1 57 79
f 1 79 86
f 1 86 80
f 1 80 66
f 1 66 49
f 1 49 31
f 1 31 24
f 1 24 14
f 1 14 6
f 1 6 2
f 2 6 3
f 3 7 8
f 3 8 9
f 3 9 4
f 3 6 10
f 3 10 11
f 3 11 7
f 5 12 13
f 6 14 10
f 7 11 15
f 7 15 16
f 7 16 17
f 7 17 18
f 7 18 9
f 7 9 8
f 9 18 19
f 9 19 20
f 10 21 11
f 10 14 21
f 11 21 15
f 12 22 32
f 12 32 50
f 12 50 70
f 12 70 77
f 12 77 76
f 12 76 55
f 12 55 35
f 12 35 23
f 12 23 13
f 14 24 21
f 15 21 16
f 16 25 17
f 16 21 26
f 16 26 25
f 17 25 27
f 17 27 28
f 17 28 19
f 17 19 18
f 19 29 30
f 19 30 20
f 19 28 29
f 21 24 31
f 21 31 26
f 22 33 32
f 23 35 36
f 23 36 34
f 25 26 37
f 25 37 38
f 25 38 39
f 25 39 40
f 25 40 41
f 25 41 27
f 26 31 42
f 26 42 43
f 26 43 37
f 27 41 44
f 27 44 45
f 27 45 28
f 28 45 29
f 29 46 47
f 29 47 48
f 29 48 30
f 29 45 46
f 31 49 42
f 32 33 50
f 33 51 52
f 33 52 53
f 33 53 50
f 34 36 54
f 35 55 56
f 35 56 36
f 36 56 78
f 36 78 65
f 36 65 64
f 36 64 40
f 36 40 39
f 36 39 63
f 36 63 62
f 36 62 81
f 36 81 87
f 36 87 84
f 36 84 79
f 36 79 57
f 36 57 58
f 36 58 59
f 36 59 54
f 37 43 42
f 37 42 60
f 37 60 38
f 38 60 61
f 38 61 62
f 38 62 63
f 38 63 39
f 40 64 41
f 41 64 65
f 41 65 44
f 42 49 66
f 42 66 60
f 44 65 78
f 44 78 83
f 44 83 75
f 44 75 74
f 44 74 72
f 44 72 71
f 44 71 73
f 44 73 67
f 44 67 45
f 45 67 52
f 45 52 68
f 45 68 69
f 45 69 46
f 50 53 70
f 51 68 52
f 52 71 72
f 52 72 53
f 52 67 73
f 52 73 71
f 53 72 74
f 53 74 75
f 53 75 70
f 55 76 56
f 56 76 77
f 56 77 78
f 60 66 61
f 61 66 80
f 61 80 81
f 61 81 62
f 70 82 77
f 70 75 83
f 70 83 78
f 70 78 82
f 77 82 78
f 79 84 85
f 79 85 86
f 80 86 87
f 80 87 81
f 84 87 86
f 84 86 85

