# https://github.com/mikedh/trimesh
v 0.04782447 -0.02177496 -0.01871038
v 0.04782447 -0.02048041 -0.01871038
v 0.05172842 -0.01888877 -0.01871038
v 0.04782447 -0.01738766 -0.00934489
v 0.04822041 -0.02012982 -0.01871038
v 0.04782447 -0.01993396 -0.01787514
v 0.04785505 -0.01988458 -0.01785130
v 0.04799874 -0.02003518 -0.01831706
v 0.04853876 -0.01917435 -0.01783114
v 0.05172842 -0.01787898 -0.01871038
v 0.05172842 -0.01417394 -0.00934489
v 0.04782447 -0.01628899 -0.00934489
v 0.04833927 -0.02002531 -0.01871038
v 0.04782447 -0.01985577 -0.01775504
v 0.04782447 -0.01913073 -0.01663008
v 0.04794715 -0.01788557 -0.01490184
v 0.04800983 -0.01865176 -0.01619550
v 0.04828156 -0.01821887 -0.01597546
v 0.04849023 -0.01841803 -0.01663008
v 0.04861635 -0.01855300 -0.01704449
v 0.04875087 -0.01935787 -0.01829689
v 0.04846500 -0.01982450 -0.01858844
v 0.04923700 -0.01707164 -0.01575725
v 0.04941395 -0.01724035 -0.01622300
v 0.05157823 -0.01793083 -0.01871038
v 0.05133516 -0.01784195 -0.01846650
v 0.05172842 -0.01777858 -0.01856735
v 0.05172842 -0.01336824 -0.00934489
v 0.04941128 -0.01446280 -0.00934489
v 0.04782447 -0.01727409 -0.01299573
v 0.04852233 -0.01987470 -0.01871038
v 0.04782447 -0.01877932 -0.01608456
v 0.04782447 -0.01839993 -0.01549503
v 0.04782447 -0.01813410 -0.01508154
v 0.04782447 -0.01779586 -0.01453419
v 0.04863087 -0.01717122 -0.01492659
v 0.04835914 -0.01760246 -0.01514755
v 0.04855329 -0.01778599 -0.01575450
v 0.04877113 -0.01732100 -0.01539326
v 0.04869546 -0.01793659 -0.01622117
v 0.04892438 -0.01957514 -0.01871038
v 0.04934936 -0.01789215 -0.01698673
v 0.04904897 -0.01688812 -0.01516497
v 0.04932643 -0.01647169 -0.01493668
v 0.04949612 -0.01660501 -0.01540243
v 0.04996199 -0.01644700 -0.01566373
v 0.04987983 -0.01708316 -0.01642379
v 0.05154689 -0.01794482 -0.01871038
v 0.05110700 -0.01815221 -0.01871038
v 0.05086890 -0.01796210 -0.01829964
v 0.05064457 -0.01714489 -0.01706558
v 0.05040532 -0.01637211 -0.01578200
v 0.05110471 -0.01707000 -0.01718476
v 0.05172842 -0.01641408 -0.01641737
v 0.05080088 -0.01358386 -0.00934489
v 0.05172842 -0.01347770 -0.00963828
v 0.05115286 -0.01361020 -0.00963553
v 0.04955689 -0.01429903 -0.00934489
v 0.04782447 -0.01741811 -0.01351467
v 0.04782447 -0.01777282 -0.01448285
v 0.04783594 -0.01778269 -0.01453235
v 0.04901152 -0.01951671 -0.01871038
v 0.05003423 -0.01858263 -0.01839591
v 0.04972008 -0.01635565 -0.01519431
v 0.04782447 -0.01758271 -0.01404001
v 0.04782447 -0.01750864 -0.01383464
v 0.04991804 -0.01428751 -0.01033782
v 0.05001015 -0.01436981 -0.01077057
v 0.04999754 -0.01576805 -0.01426555
v 0.05040532 -0.01609230 -0.01523190
v 0.05056622 -0.01777529 -0.01783297
v 0.05040532 -0.01846000 -0.01854718
v 0.05104012 -0.01818842 -0.01871038
v 0.05052838 -0.01851268 -0.01871038
v 0.05165352 -0.01586598 -0.01546661
v 0.05172842 -0.01593182 -0.01561697
v 0.05172842 -0.01608654 -0.01588652
v 0.05133325 -0.01646758 -0.01633210
v 0.05054864 -0.01364476 -0.00934489
v 0.05172842 -0.01364230 -0.01007286
v 0.05057692 -0.01365958 -0.00939990
v 0.05115286 -0.01500844 -0.01313143
v 0.05040532 -0.01430973 -0.01092002
v 0.04974798 -0.01410152 -0.00934489
v 0.04976594 -0.01901634 -0.01871038
v 0.04980224 -0.01415337 -0.00963919
v 0.05017334 -0.01375011 -0.00934489
v 0.05011028 -0.01512530 -0.01275186
v 0.05040532 -0.01570797 -0.01441042
v 0.05040532 -0.01587092 -0.01475973
v 0.05124306 -0.01575159 -0.01500086
v 0.04979957 -0.01899412 -0.01871038
v 0.05172842 -0.01580590 -0.01537951
v 0.05172842 -0.01571373 -0.01518514
v 0.05172842 -0.01428175 -0.01167090
v 0.05057654 -0.01505782 -0.01289672
v 0.05141809 -0.01509321 -0.01350641
v 0.05036825 -0.01494507 -0.01248506
v 0.05172842 -0.01569233 -0.01513380
v 0.05172842 -0.01505617 -0.01359535
v 0.05172842 -0.01429903 -0.01171400
f 1 2 5
f 1 5 13
f 1 13 31
f 1 31 41
f 1 41 62
f 1 62 85
f 1 85 92
f 1 92 74
f 1 74 73
f 1 73 49
f 1 49 48
f 1 48 25
f 1 25 10
f 1 10 3
f 1 3 4
f 1 4 12
f 1 12 30
f 1 30 59
f 1 59 66
f 1 66 65
f 1 65 60
f 1 60 35
f 1 35 34
f 1 34 33
f 1 33 32
f 1 32 15
f 1 15 14
f 1 14 6
f 1 6 2
f 2 6 7
f 2 7 8
f 2 8 9
f 2 9 5
f 3 10 27
f 3 27 54
f 3 54 77
f 3 77 76
f 3 76 93
f 3 93 94
f 3 94 99
f 3 99 100
f 3 100 101
f 3 101 95
f 3 95 80
f 3 80 56
f 3 56 28
f 3 28 11
f 3 11 4
f 4 11 28
f 4 28 55
f 4 55 79
f 4 79 87
f 4 87 84
f 4 84 58
f 4 58 29
f 4 29 12
f 5 9 13
f 6 14 7
f 7 14 15
f 7 15 16
f 7 16 17
f 7 17 18
f 7 18 19
f 7 19 20
f 7 20 8
f 8 20 9
f 9 21 22
f 9 22 13
f 9 20 23
f 9 23 24
f 9 24 21
f 10 25 26
f 10 26 27
f 12 29 30
f 13 22 31
f 15 32 16
f 16 33 34
f 16 34 35
f 16 35 36
f 16 36 37
f 16 37 18
f 16 18 17
f 16 32 33
f 18 37 38
f 18 38 19
f 19 38 39
f 19 39 40
f 19 40 20
f 20 40 23
f 21 41 31
f 21 31 22
f 21 24 42
f 21 42 41
f 23 39 43
f 23 43 44
f 23 44 45
f 23 45 24
f 23 40 39
f 24 45 46
f 24 46 47
f 24 47 42
f 25 48 26
f 26 48 49
f 26 49 50
f 26 50 51
f 26 51 52
f 26 52 27
f 27 52 53
f 27 53 54
f 28 56 57
f 28 57 55
f 29 58 59
f 29 59 30
f 35 60 61
f 35 61 36
f 36 61 44
f 36 44 43
f 36 43 39
f 36 39 37
f 37 39 38
f 41 42 62
f 42 47 63
f 42 63 62
f 44 64 45
f 44 61 60
f 44 60 65
f 44 65 66
f 44 66 67
f 44 67 68
f 44 68 69
f 44 69 64
f 45 64 46
f 46 70 52
f 46 52 51
f 46 51 50
f 46 50 71
f 46 71 47
f 46 64 69
f 46 69 70
f 47 71 72
f 47 72 63
f 49 73 50
f 50 73 74
f 50 74 71
f 52 70 75
f 52 75 76
f 52 76 77
f 52 77 54
f 52 54 78
f 52 78 53
f 53 78 54
f 55 57 79
f 56 80 57
f 57 81 79
f 57 80 82
f 57 82 83
f 57 83 81
f 58 84 66
f 58 66 59
f 62 63 85
f 63 72 85
f 66 84 67
f 67 84 86
f 67 86 87
f 67 87 68
f 68 87 88
f 68 88 69
f 69 88 89
f 69 89 90
f 69 90 70
f 70 90 91
f 70 91 75
f 71 74 72
f 72 74 92
f 72 92 85
f 75 93 76
f 75 91 94
f 75 94 93
f 79 81 83
f 79 83 87
f 80 95 82
f 82 96 83
f 82 95 97
f 82 97 89
f 82 89 96
f 83 96 98
f 83 98 88
f 83 88 87
f 84 87 86
f 88 98 89
f 89 98 96
f 89 97 91
f 89 91 90
f 91 99 94
f 91 97 100
f 91 100 99
f 95 101 97
f 97 101 100

