# https://github.com/mikedh/trimesh
v 0.05347565 -0.06001761 -0.02819890
v 0.04988652 -0.06001761 -0.02867590
v 0.05347565 -0.06001761 -0.02906915
v 0.05347565 -0.04790449 -0.03195132
v 0.04988652 -0.04790449 -0.03191639
v 0.04988652 -0.06001761 -0.02953048
v 0.05322727 -0.06001761 -0.02913633
v 0.05291318 -0.05779798 -0.03028831
v 0.05286329 -0.05636447 -0.03096910
v 0.05347565 -0.05838016 -0.02980906
v 0.05347565 -0.04790449 -0.03262988
v 0.04988652 -0.04790449 -0.03265272
v 0.04988652 -0.05990260 -0.02959273
v 0.05296729 -0.06001761 -0.02917530
v 0.05250319 -0.05786082 -0.03031966
v 0.05230258 -0.05505783 -0.03171439
v 0.05252286 -0.05463335 -0.03182905
v 0.05299926 -0.05441755 -0.03173141
v 0.05302701 -0.05600402 -0.03104569
v 0.05347565 -0.05698103 -0.03042088
v 0.05320232 -0.04790449 -0.03265720
v 0.05347565 -0.04858745 -0.03257255
v 0.04999683 -0.04790449 -0.03267511
v 0.05040577 -0.04901312 -0.03261465
v 0.04988652 -0.04849378 -0.03257389
v 0.05110491 -0.05941528 -0.02969888
v 0.05250319 -0.05925639 -0.02961916
v 0.04988652 -0.05951369 -0.02978398
v 0.05016301 -0.05847620 -0.03027756
v 0.05110491 -0.05801971 -0.03039938
v 0.05180370 -0.05654470 -0.03105957
v 0.05180370 -0.05513727 -0.03174350
v 0.05180370 -0.05460607 -0.03195625
v 0.05250319 -0.05390770 -0.03205702
v 0.05322024 -0.05389465 -0.03180307
v 0.05347565 -0.05389465 -0.03167677
v 0.05347565 -0.05412942 -0.03159346
v 0.05347565 -0.05464046 -0.03139325
v 0.05347565 -0.05489420 -0.03129337
v 0.05347565 -0.05528548 -0.03113303
v 0.05347565 -0.05665022 -0.03056062
v 0.05250319 -0.04831474 -0.03269079
v 0.05250319 -0.04790449 -0.03271677
v 0.05320232 -0.04831474 -0.03262271
v 0.05180370 -0.04971269 -0.03264421
v 0.05347565 -0.04901312 -0.03253671
v 0.05320232 -0.05041225 -0.03244624
v 0.05040577 -0.04790449 -0.03273826
v 0.05040577 -0.04831474 -0.03270154
v 0.05040577 -0.04971269 -0.03251119
v 0.04988652 -0.04902735 -0.03249506
v 0.05110491 -0.05041225 -0.03255239
v 0.05141935 -0.05221333 -0.03237055
v 0.04988652 -0.05847383 -0.03027621
v 0.05110491 -0.05662177 -0.03109048
v 0.05180370 -0.05390770 -0.03210360
v 0.04988652 -0.05811575 -0.03041909
v 0.05122190 -0.05509577 -0.03171887
v 0.05103535 -0.05467603 -0.03181472
v 0.05110491 -0.05390770 -0.03200641
v 0.05320232 -0.05320813 -0.03198536
v 0.05229134 -0.05232241 -0.03237592
v 0.05294761 -0.05158135 -0.03237234
v 0.05341382 -0.05129915 -0.03232352
v 0.05347565 -0.05320813 -0.03186622
v 0.05347565 -0.05373577 -0.03172872
v 0.05180370 -0.04901312 -0.03269930
v 0.05180370 -0.04790449 -0.03275305
v 0.05180370 -0.04831474 -0.03274095
v 0.05180370 -0.05041225 -0.03258419
v 0.05110491 -0.04901312 -0.03271229
v 0.05250319 -0.05111063 -0.03245699
v 0.05347565 -0.04971269 -0.03247759
v 0.05318932 -0.05108454 -0.03239025
v 0.05069597 -0.04790449 -0.03276245
v 0.05110491 -0.04971269 -0.03263435
v 0.04988652 -0.04966526 -0.03240056
v 0.05180370 -0.05111063 -0.03251477
v 0.05180370 -0.05232241 -0.03237861
v 0.05040577 -0.05390770 -0.03186622
v 0.04988652 -0.05338836 -0.03184293
v 0.04988652 -0.05320813 -0.03187249
v 0.04988652 -0.05643324 -0.03100717
v 0.04990654 -0.05647237 -0.03100000
v 0.05040577 -0.05659568 -0.03106002
v 0.04999613 -0.05430372 -0.03167766
v 0.05347565 -0.05126833 -0.03230829
v 0.05347565 -0.05136437 -0.03228724
v 0.05347565 -0.05089957 -0.03237458
v 0.05110491 -0.04831474 -0.03276066
v 0.05139511 -0.04790449 -0.03276603
v 0.05110491 -0.04790449 -0.03277454
v 0.05347565 -0.05038379 -0.03241937
v 0.04988652 -0.05411994 -0.03169558
v 0.04988652 -0.05388042 -0.03175201
f 1 2 6
f 1 6 14
f 1 14 7
f 1 7 3
f 1 3 10
f 1 10 20
f 1 20 41
f 1 41 40
f 1 40 39
f 1 39 38
f 1 38 37
f 1 37 36
f 1 36 66
f 1 66 65
f 1 65 88
f 1 88 87
f 1 87 89
f 1 89 93
f 1 93 73
f 1 73 46
f 1 46 22
f 1 22 11
f 1 11 4
f 1 4 5
f 1 5 2
f 2 5 12
f 2 12 25
f 2 25 51
f 2 51 77
f 2 77 82
f 2 82 81
f 2 81 95
f 2 95 94
f 2 94 83
f 2 83 57
f 2 57 54
f 2 54 28
f 2 28 13
f 2 13 6
f 3 7 8
f 3 8 9
f 3 9 10
f 4 11 21
f 4 21 43
f 4 43 68
f 4 68 91
f 4 91 92
f 4 92 75
f 4 75 48
f 4 48 23
f 4 23 12
f 4 12 5
f 6 13 14
f 7 14 15
f 7 15 8
f 8 15 16
f 8 16 9
f 9 16 17
f 9 17 18
f 9 18 19
f 9 19 20
f 9 20 10
f 11 22 21
f 12 23 24
f 12 24 25
f 13 26 27
f 13 27 14
f 13 28 29
f 13 29 26
f 14 27 15
f 15 30 31
f 15 31 16
f 15 27 26
f 15 26 30
f 16 31 32
f 16 32 33
f 16 33 17
f 17 33 34
f 17 34 18
f 18 34 35
f 18 35 36
f 18 36 37
f 18 37 38
f 18 38 39
f 18 39 40
f 18 40 41
f 18 41 20
f 18 20 19
f 21 42 43
f 21 22 44
f 21 44 45
f 21 45 42
f 22 46 47
f 22 47 44
f 23 48 49
f 23 49 24
f 24 50 51
f 24 51 25
f 24 49 52
f 24 52 53
f 24 53 50
f 26 29 30
f 28 54 29
f 29 32 55
f 29 55 31
f 29 31 30
f 29 54 32
f 31 55 32
f 32 54 33
f 33 56 34
f 33 54 57
f 33 57 58
f 33 58 59
f 33 59 60
f 33 60 56
f 34 61 35
f 34 56 62
f 34 62 63
f 34 63 64
f 34 64 61
f 35 61 65
f 35 65 66
f 35 66 36
f 42 67 43
f 42 45 67
f 43 67 69
f 43 69 68
f 44 47 45
f 45 70 71
f 45 71 67
f 45 47 72
f 45 72 62
f 45 62 70
f 46 73 47
f 47 73 74
f 47 74 62
f 47 62 72
f 48 75 71
f 48 71 49
f 49 71 76
f 49 76 52
f 50 53 51
f 51 53 77
f 52 76 53
f 53 78 79
f 53 79 56
f 53 56 60
f 53 60 80
f 53 80 81
f 53 81 82
f 53 82 77
f 53 76 78
f 56 79 62
f 57 83 84
f 57 84 85
f 57 85 58
f 58 85 84
f 58 84 59
f 59 84 83
f 59 83 86
f 59 86 80
f 59 80 60
f 61 64 87
f 61 87 88
f 61 88 65
f 62 74 63
f 62 79 78
f 62 78 70
f 63 74 89
f 63 89 64
f 64 89 87
f 67 90 69
f 67 71 90
f 68 69 91
f 69 90 92
f 69 92 91
f 70 78 71
f 71 78 76
f 71 75 90
f 73 93 74
f 74 93 89
f 75 92 90
f 80 86 94
f 80 94 95
f 80 95 81
f 83 94 86

