# https://github.com/mikedh/trimesh
v 0.04900728 -0.06001814 -0.02960322
v 0.04889016 -0.06141126 -0.02894634
v 0.04889016 -0.06001814 -0.02959567
v 0.04970708 -0.06001814 -0.02955375
v 0.04900728 -0.06139917 -0.02894154
v 0.04889016 -0.06170239 -0.02878625
v 0.04889016 -0.06001814 -0.02874502
v 0.05296747 -0.06001814 -0.02917515
v 0.05303803 -0.06059199 -0.02888725
v 0.05250336 -0.06065295 -0.02891817
v 0.05110522 -0.06081165 -0.02899788
v 0.04970708 -0.06166928 -0.02872166
v 0.04900728 -0.06174863 -0.02874914
v 0.05323881 -0.06166087 -0.02832794
v 0.05303076 -0.06198196 -0.02818708
v 0.04889016 -0.06176125 -0.02875327
v 0.04889016 -0.06538619 -0.02512737
v 0.05632097 -0.06317328 -0.02258437
v 0.05632097 -0.06254162 -0.02317185
v 0.05632097 -0.06218743 -0.02350510
v 0.05632097 -0.06110016 -0.02452890
v 0.05632097 -0.06002550 -0.02554102
v 0.05632097 -0.06001814 -0.02554858
v 0.05322717 -0.06001814 -0.02913599
v 0.05324390 -0.06026250 -0.02902193
v 0.05350432 -0.06053734 -0.02885084
v 0.05250336 -0.06203083 -0.02821732
v 0.05180429 -0.06209284 -0.02825717
v 0.05110522 -0.06215222 -0.02829702
v 0.05040615 -0.06220845 -0.02833688
v 0.05349632 -0.06193571 -0.02815067
v 0.05323881 -0.06224839 -0.02797958
v 0.05250336 -0.06238082 -0.02798439
v 0.04970708 -0.06226100 -0.02837261
v 0.04889016 -0.06224681 -0.02845437
v 0.04889016 -0.06538619 -0.02609620
v 0.05479116 -0.06538619 -0.02258437
v 0.05480935 -0.06535939 -0.02258437
v 0.05483990 -0.06531472 -0.02258437
v 0.05495775 -0.06514393 -0.02258437
v 0.05627733 -0.06323634 -0.02258437
v 0.05632097 -0.06475769 -0.02258437
v 0.05632097 -0.06001814 -0.02701900
v 0.05371601 -0.06001814 -0.02900338
v 0.05376620 -0.06007122 -0.02896627
v 0.05430014 -0.06131194 -0.02819396
v 0.05390150 -0.06146171 -0.02827023
v 0.05180429 -0.06244283 -0.02802287
v 0.04889016 -0.06260626 -0.02822694
v 0.05320171 -0.06280963 -0.02759548
v 0.05390150 -0.06181117 -0.02808196
v 0.05370728 -0.06273921 -0.02753983
v 0.04889016 -0.06234929 -0.02838978
v 0.04889016 -0.06273238 -0.02813624
v 0.05320171 -0.06315962 -0.02732132
v 0.05320680 -0.06538619 -0.02557331
v 0.05588815 -0.06538619 -0.02258437
v 0.05560954 -0.06538619 -0.02295816
v 0.05428923 -0.06538619 -0.02472335
v 0.05614275 -0.06001814 -0.02725674
v 0.05378657 -0.06001814 -0.02897864
v 0.05497230 -0.06058306 -0.02818365
v 0.05455984 -0.06084949 -0.02826816
v 0.05437361 -0.06212332 -0.02760373
v 0.05417357 -0.06258944 -0.02741408
v 0.05392478 -0.06233300 -0.02772260
v 0.05345849 -0.06472983 -0.02605566
v 0.05364544 -0.06538619 -0.02545238
v 0.05351087 -0.06538619 -0.02551353
v 0.05423249 -0.06538619 -0.02479550
v 0.05424995 -0.06474350 -0.02536992
v 0.05580013 -0.06006386 -0.02766900
v 0.05581977 -0.06001814 -0.02768549
v 0.05461367 -0.06001814 -0.02858630
v 0.05460058 -0.06020049 -0.02851759
v 0.05498248 -0.06001814 -0.02840559
v 0.05518107 -0.06001814 -0.02830802
v 0.05511633 -0.06020049 -0.02826610
v 0.05555789 -0.06001814 -0.02801256
v 0.05438453 -0.06284064 -0.02694753
v 0.05421212 -0.06330676 -0.02673247
v 0.05500430 -0.06132613 -0.02753983
v 0.05398952 -0.06538619 -0.02508752
v 0.05423322 -0.06402513 -0.02605154
v 0.05576594 -0.06001814 -0.02775489
f 1 2 3
f 1 3 7
f 1 7 23
f 1 23 43
f 1 43 60
f 1 60 73
f 1 73 85
f 1 85 79
f 1 79 77
f 1 77 76
f 1 76 74
f 1 74 61
f 1 61 44
f 1 44 24
f 1 24 8
f 1 8 4
f 1 4 2
f 2 4 5
f 2 5 6
f 2 6 16
f 2 16 35
f 2 35 53
f 2 53 49
f 2 49 54
f 2 54 36
f 2 36 17
f 2 17 7
f 2 7 3
f 4 8 9
f 4 9 10
f 4 10 11
f 4 11 5
f 5 12 13
f 5 13 6
f 5 11 14
f 5 14 15
f 5 15 12
f 6 13 16
f 7 17 18
f 7 18 19
f 7 19 20
f 7 20 21
f 7 21 22
f 7 22 23
f 8 24 25
f 8 25 9
f 9 25 26
f 9 26 14
f 9 14 10
f 10 14 11
f 12 15 27
f 12 27 28
f 12 28 29
f 12 29 13
f 13 29 30
f 13 30 16
f 14 26 31
f 14 31 15
f 15 31 32
f 15 32 33
f 15 33 27
f 16 30 34
f 16 34 35
f 17 36 56
f 17 56 69
f 17 69 68
f 17 68 83
f 17 83 70
f 17 70 59
f 17 59 58
f 17 58 57
f 17 57 37
f 17 37 38
f 17 38 39
f 17 39 40
f 17 40 41
f 17 41 18
f 18 41 40
f 18 40 39
f 18 39 38
f 18 38 37
f 18 37 57
f 18 57 42
f 18 42 43
f 18 43 23
f 18 23 22
f 18 22 21
f 18 21 20
f 18 20 19
f 24 26 25
f 24 44 26
f 26 44 45
f 26 45 46
f 26 46 47
f 26 47 31
f 27 33 28
f 28 33 48
f 28 48 29
f 29 48 30
f 30 49 34
f 30 48 49
f 31 50 32
f 31 47 51
f 31 51 52
f 31 52 50
f 32 50 33
f 33 50 48
f 34 49 53
f 34 53 35
f 36 54 50
f 36 50 55
f 36 55 56
f 42 57 43
f 43 57 58
f 43 58 59
f 43 59 60
f 44 61 45
f 45 61 62
f 45 62 63
f 45 63 46
f 46 64 65
f 46 65 66
f 46 66 51
f 46 51 47
f 46 63 62
f 46 62 64
f 48 50 54
f 48 54 49
f 50 52 67
f 50 67 55
f 51 66 52
f 52 66 65
f 52 65 68
f 52 68 69
f 52 69 67
f 55 67 56
f 56 67 69
f 59 70 71
f 59 71 72
f 59 72 73
f 59 73 60
f 61 74 75
f 61 75 62
f 62 75 74
f 62 74 76
f 62 76 77
f 62 77 78
f 62 78 79
f 62 79 64
f 64 80 81
f 64 81 65
f 64 79 82
f 64 82 80
f 65 81 68
f 68 81 83
f 70 83 71
f 71 83 84
f 71 84 80
f 71 80 82
f 71 82 72
f 72 85 73
f 72 82 85
f 77 79 78
f 79 85 82
f 80 84 81
f 81 84 83

