# https://github.com/mikedh/trimesh
v 0.06352925 -0.06970785 0.01590751
v 0.06089381 -0.06970785 0.01487624
v 0.06089381 -0.06984111 0.01472009
v 0.06089381 -0.07019070 0.01428871
v 0.06352925 -0.06973273 0.01587269
v 0.06352925 -0.06970785 0.01431904
v 0.06045650 -0.06970785 0.01469762
v 0.06035347 -0.06974665 0.01461000
v 0.06089381 -0.07043654 0.01393934
v 0.06044006 -0.07037540 0.01384610
v 0.06352925 -0.07010087 0.01534694
v 0.05918522 -0.06970785 0.01218349
v 0.06352925 -0.07155784 0.00908856
v 0.06348233 -0.07161139 0.00854147
v 0.06339574 -0.07169067 0.00784160
v 0.06334591 -0.07173284 0.00747425
v 0.06288152 -0.07211363 0.00443100
v 0.06051697 -0.07037245 0.00443100
v 0.06032783 -0.06970785 0.01463808
v 0.05858779 -0.06986135 0.01340461
v 0.05858779 -0.07032437 0.01280697
v 0.06352925 -0.07059046 0.01464482
v 0.06322256 -0.07106825 0.01383149
v 0.05858779 -0.07048209 0.01257330
v 0.05858779 -0.07116819 0.01116345
v 0.05869325 -0.06970785 0.01198802
v 0.06352925 -0.07194200 0.00908856
v 0.06336236 -0.07239448 0.00587680
v 0.06289410 -0.07283516 0.00443100
v 0.05945660 -0.07081270 0.00443100
v 0.05858779 -0.07027841 0.00781576
v 0.05858779 -0.07009117 0.00854147
v 0.05858779 -0.06970785 0.01195432
v 0.05858779 -0.06970785 0.01350346
v 0.06352925 -0.07094764 0.01411571
v 0.06352925 -0.07109566 0.01388654
v 0.06298988 -0.07117704 0.01346302
v 0.06248098 -0.07177881 0.01178356
v 0.05858779 -0.07255810 0.00784048
v 0.05879629 -0.07388012 0.00480509
v 0.06051262 -0.07314300 0.00751132
v 0.06352925 -0.07194706 0.00922561
v 0.06337687 -0.07247882 0.00644411
v 0.06336236 -0.07246533 0.00587680
v 0.06285395 -0.07287564 0.00443100
v 0.05940387 -0.07085613 0.00443100
v 0.05916345 -0.07105855 0.00443100
v 0.05898543 -0.07130566 0.00443100
v 0.05895544 -0.07134783 0.00443100
v 0.05860279 -0.07190700 0.00443100
v 0.05858779 -0.07193188 0.00443100
v 0.06352925 -0.07112560 0.01381240
v 0.06352925 -0.07131747 0.01327317
v 0.05858779 -0.07385356 0.00474105
v 0.05879629 -0.07401127 0.00443100
v 0.05891384 -0.07401549 0.00443100
v 0.06058711 -0.07314300 0.00751132
v 0.06299085 -0.07177838 0.01181951
v 0.06352925 -0.07191586 0.00990301
v 0.06236972 -0.07335005 0.00443100
v 0.06336478 -0.07246027 0.00714285
v 0.05858779 -0.07394802 0.00443100
v 0.06337881 -0.07175013 0.01176671
v 0.06352925 -0.07146169 0.01260476
v 0.05949530 -0.07398934 0.00443100
v 0.05949530 -0.07388771 0.00485564
v 0.06201948 -0.07245689 0.00966710
v 0.06352925 -0.07184375 0.01063209
v 0.06232473 -0.07337451 0.00443100
v 0.06334591 -0.07244003 0.00752031
v 0.06345427 -0.07178471 0.01133645
v 0.06157637 -0.07359042 0.00443100
v 0.06167990 -0.07356174 0.00443100
v 0.06352925 -0.07183826 0.01067366
v 0.05957512 -0.07397669 0.00443100
f 1 2 3
f 1 3 4
f 1 4 5
f 1 5 11
f 1 11 22
f 1 22 35
f 1 35 36
f 1 36 52
f 1 52 53
f 1 53 64
f 1 64 74
f 1 74 68
f 1 68 59
f 1 59 42
f 1 42 27
f 1 27 13
f 1 13 6
f 1 6 12
f 1 12 26
f 1 26 33
f 1 33 34
f 1 34 19
f 1 19 7
f 1 7 2
f 2 7 3
f 3 7 8
f 3 8 4
f 4 9 5
f 4 8 10
f 4 10 9
f 5 9 11
f 6 13 14
f 6 14 15
f 6 15 16
f 6 16 17
f 6 17 18
f 6 18 12
f 7 19 8
f 8 19 20
f 8 20 21
f 8 21 10
f 9 22 11
f 9 10 23
f 9 23 22
f 10 21 24
f 10 24 25
f 10 25 23
f 12 18 26
f 13 27 44
f 13 44 28
f 13 28 14
f 14 28 15
f 15 28 16
f 16 28 17
f 17 28 29
f 17 29 45
f 17 45 60
f 17 60 69
f 17 69 73
f 17 73 72
f 17 72 75
f 17 75 65
f 17 65 56
f 17 56 55
f 17 55 62
f 17 62 51
f 17 51 50
f 17 50 49
f 17 49 48
f 17 48 47
f 17 47 46
f 17 46 30
f 17 30 18
f 18 30 31
f 18 31 32
f 18 32 33
f 18 33 26
f 19 34 20
f 20 34 33
f 20 33 32
f 20 32 31
f 20 31 51
f 20 51 62
f 20 62 54
f 20 54 39
f 20 39 25
f 20 25 24
f 20 24 21
f 22 23 35
f 23 36 35
f 23 25 37
f 23 37 38
f 23 38 36
f 25 38 37
f 25 39 40
f 25 40 41
f 25 41 38
f 27 42 43
f 27 43 44
f 28 44 29
f 29 44 45
f 30 46 31
f 31 46 47
f 31 47 48
f 31 48 49
f 31 49 50
f 31 50 51
f 36 38 52
f 38 53 52
f 38 41 53
f 39 54 40
f 40 54 55
f 40 55 41
f 41 55 56
f 41 56 57
f 41 57 58
f 41 58 53
f 42 59 43
f 43 60 44
f 43 59 61
f 43 61 60
f 44 60 45
f 53 58 63
f 53 63 64
f 54 62 55
f 56 65 66
f 56 66 57
f 57 67 58
f 57 66 65
f 57 65 67
f 58 67 63
f 59 68 61
f 60 61 70
f 60 70 69
f 61 68 70
f 63 71 64
f 63 67 72
f 63 72 73
f 63 73 69
f 63 69 70
f 63 70 71
f 64 71 74
f 65 75 67
f 67 75 72
f 68 74 70
f 70 74 71

