# https://github.com/mikedh/trimesh
v 0.05632097 -0.03591405 -0.01301480
v 0.05632097 -0.03481748 -0.01301480
v 0.05665463 -0.03567242 -0.01301480
v 0.05935028 -0.02735302 0.00153169
v 0.05871834 -0.02735690 0.00153169
v 0.05632097 -0.02817885 -0.00027808
v 0.06245728 -0.02600220 -0.01301480
v 0.05632097 -0.03043798 -0.00725943
v 0.05949110 -0.03361028 -0.01301480
v 0.05974638 -0.02686975 0.00153169
v 0.06022571 -0.03306878 -0.01301480
v 0.06030687 -0.03300862 -0.01301480
v 0.06064331 -0.03270973 -0.01301480
v 0.05870585 -0.02735302 0.00153169
v 0.05632097 -0.02794886 0.00003091
v 0.06308784 -0.02600220 -0.01301480
v 0.05636884 -0.02980430 -0.00646489
v 0.05632097 -0.02977324 -0.00632108
v 0.05632097 -0.02761018 -0.00107688
v 0.05632097 -0.02738601 -0.00053153
v 0.05698413 -0.02695709 -0.00027523
v 0.05825565 -0.02618464 0.00014909
v 0.05858307 -0.02600220 0.00018753
v 0.06044353 -0.02600220 0.00153169
v 0.06098599 -0.03221482 -0.01301480
v 0.06161307 -0.02600220 -0.00187711
v 0.05886679 -0.02660774 0.00153169
v 0.05696679 -0.02693768 0.00053781
v 0.05696679 -0.02708615 0.00053781
v 0.05632097 -0.02771887 0.00010068
v 0.06306356 -0.02733846 -0.01301480
v 0.06336115 -0.02600220 -0.01160515
v 0.05632097 -0.02738893 -0.00020973
v 0.05693904 -0.02692701 0.00014909
v 0.05824178 -0.02617299 0.00061897
v 0.05856642 -0.02600220 0.00041108
v 0.05935999 -0.02600220 0.00153169
v 0.06110669 -0.03203820 -0.01301480
v 0.06180592 -0.02600220 -0.00251359
v 0.06143410 -0.03152970 -0.01301480
v 0.05888274 -0.02657960 0.00153169
v 0.05632097 -0.02744424 0.00010495
v 0.06304414 -0.02803716 -0.01301480
v 0.06335075 -0.02639813 -0.01149978
v 0.06340485 -0.02600220 -0.01103559
v 0.05874886 -0.02600220 0.00075709
v 0.06179066 -0.03094066 -0.01301480
v 0.06185656 -0.03082809 -0.01301480
v 0.06199599 -0.03058937 -0.01301480
v 0.06270562 -0.02921137 -0.01301480
v 0.06289985 -0.02873587 -0.01301480
v 0.06336393 -0.02634184 -0.01060558
v 0.06340763 -0.02600220 -0.01039057
v 0.06336601 -0.02640977 -0.01103559
f 1 2 7
f 1 7 16
f 1 16 31
f 1 31 43
f 1 43 51
f 1 51 50
f 1 50 49
f 1 49 48
f 1 48 47
f 1 47 40
f 1 40 38
f 1 38 25
f 1 25 13
f 1 13 12
f 1 12 11
f 1 11 9
f 1 9 3
f 1 3 4
f 1 4 5
f 1 5 6
f 1 6 15
f 1 15 30
f 1 30 42
f 1 42 33
f 1 33 20
f 1 20 19
f 1 19 18
f 1 18 8
f 1 8 2
f 2 8 7
f 3 9 4
f 4 10 24
f 4 24 37
f 4 37 41
f 4 41 27
f 4 27 14
f 4 14 5
f 4 9 11
f 4 11 12
f 4 12 13
f 4 13 10
f 5 14 15
f 5 15 6
f 7 8 17
f 7 17 18
f 7 18 19
f 7 19 20
f 7 20 21
f 7 21 22
f 7 22 23
f 7 23 36
f 7 36 46
f 7 46 37
f 7 37 24
f 7 24 26
f 7 26 39
f 7 39 53
f 7 53 45
f 7 45 32
f 7 32 16
f 8 18 17
f 10 13 24
f 13 25 26
f 13 26 24
f 14 27 28
f 14 28 29
f 14 29 30
f 14 30 15
f 16 32 31
f 20 33 34
f 20 34 21
f 21 34 22
f 22 34 35
f 22 35 36
f 22 36 23
f 25 38 26
f 26 38 40
f 26 40 39
f 27 41 28
f 28 35 34
f 28 34 33
f 28 33 42
f 28 42 29
f 28 41 37
f 28 37 35
f 29 42 30
f 31 32 43
f 32 44 43
f 32 45 44
f 35 46 36
f 35 37 46
f 39 40 47
f 39 47 48
f 39 48 49
f 39 49 50
f 39 50 51
f 39 51 52
f 39 52 53
f 43 44 54
f 43 54 51
f 44 45 54
f 45 53 54
f 51 54 52
f 52 54 53

