# https://github.com/mikedh/trimesh
v 0.06087144 -0.02870315 -0.01731229
v 0.06043180 -0.02870315 -0.01731229
v 0.06087144 -0.02881929 -0.01731229
v 0.06087144 -0.02870315 -0.01855514
v 0.05632097 -0.02870315 -0.01770555
v 0.05632097 -0.03979174 -0.02247620
v 0.05647598 -0.03972444 -0.02247620
v 0.05987190 -0.03540883 -0.02114999
v 0.06087144 -0.03320762 -0.02044409
v 0.06087144 -0.02887030 -0.01878111
v 0.06060151 -0.02870315 -0.01859737
v 0.05632097 -0.02870315 -0.01868129
v 0.05632097 -0.03978197 -0.02278006
v 0.05647598 -0.03972444 -0.02270656
v 0.05711027 -0.03896357 -0.02247072
v 0.05987190 -0.03540883 -0.02122677
v 0.06002914 -0.03502894 -0.02131508
v 0.06008170 -0.03487915 -0.02132769
v 0.06008170 -0.03437118 -0.02142203
v 0.06008170 -0.03363093 -0.02144013
v 0.06087144 -0.03071442 -0.02044409
v 0.06087144 -0.02909281 -0.01907400
v 0.06063848 -0.02907653 -0.01908881
v 0.06009462 -0.02870315 -0.01865441
v 0.05734144 -0.02870315 -0.01873010
v 0.05632097 -0.02948682 -0.01930984
v 0.05632097 -0.03921647 -0.02291060
v 0.05670538 -0.03920778 -0.02276745
v 0.05711027 -0.03896357 -0.02262978
v 0.05917036 -0.03612087 -0.02189262
v 0.06008170 -0.03293301 -0.02132495
v 0.05916501 -0.03572686 -0.02188824
v 0.05914630 -0.03537410 -0.02187452
v 0.05881135 -0.03509624 -0.02193431
v 0.05809688 -0.03502894 -0.02211695
v 0.05856235 -0.03432885 -0.02190469
v 0.05845857 -0.03397500 -0.02187672
v 0.05632097 -0.03235231 -0.02127010
v 0.05632097 -0.03216345 -0.02117247
v 0.05879576 -0.03101942 -0.02058834
v 0.06087144 -0.03071008 -0.02044135
v 0.06008170 -0.03249667 -0.02121032
v 0.05949463 -0.03246302 -0.02122458
v 0.05879576 -0.03243806 -0.02123500
v 0.05669869 -0.03236533 -0.02126516
v 0.06087144 -0.02938153 -0.01936085
v 0.06019439 -0.02906025 -0.01910362
v 0.05955431 -0.02870315 -0.01871420
v 0.05796860 -0.02870315 -0.01875862
v 0.05836147 -0.02908196 -0.01908168
v 0.06087144 -0.03008922 -0.01999050
v 0.05632097 -0.03009682 -0.01978482
v 0.05632097 -0.03852397 -0.02291444
v 0.05669869 -0.03852397 -0.02283765
v 0.05719445 -0.03852397 -0.02265336
v 0.05722118 -0.03782497 -0.02263033
v 0.05669869 -0.03782497 -0.02278006
v 0.05712586 -0.03712487 -0.02259413
v 0.05671696 -0.03648774 -0.02263581
v 0.05632097 -0.03645300 -0.02273070
v 0.05649558 -0.03591355 -0.02261223
v 0.05632097 -0.03587339 -0.02263142
v 0.05739801 -0.03432885 -0.02205223
v 0.05669869 -0.03432885 -0.02207746
v 0.05809688 -0.03395872 -0.02188330
v 0.05632097 -0.03432885 -0.02208843
v 0.05632097 -0.03200281 -0.02108636
v 0.05809688 -0.03103787 -0.02058286
v 0.06087144 -0.03062216 -0.02038486
v 0.05739801 -0.03393376 -0.02189372
v 0.06087144 -0.02941952 -0.01939650
v 0.06087144 -0.02999262 -0.01990933
v 0.05949463 -0.02905591 -0.01910526
v 0.05876591 -0.02870315 -0.01875314
v 0.05811203 -0.02870315 -0.01875807
v 0.05879531 -0.02907002 -0.01909045
v 0.06087144 -0.03060696 -0.02037389
v 0.05739801 -0.03105633 -0.02057408
v 0.05669869 -0.03107478 -0.02056037
v 0.05632097 -0.03108563 -0.02055269
v 0.05632097 -0.03814625 -0.02288811
v 0.05632097 -0.03744724 -0.02283546
v 0.05632097 -0.03712487 -0.02280200
v 0.05669869 -0.03712487 -0.02270711
f 1 2 3
f 1 3 9
f 1 9 21
f 1 21 41
f 1 41 69
f 1 69 77
f 1 77 51
f 1 51 72
f 1 72 71
f 1 71 46
f 1 46 22
f 1 22 10
f 1 10 4
f 1 4 11
f 1 11 24
f 1 24 48
f 1 48 74
f 1 74 75
f 1 75 49
f 1 49 25
f 1 25 12
f 1 12 5
f 1 5 2
f 2 5 3
f 3 5 6
f 3 6 7
f 3 7 8
f 3 8 9
f 4 10 11
f 5 12 26
f 5 26 52
f 5 52 80
f 5 80 67
f 5 67 39
f 5 39 38
f 5 38 66
f 5 66 62
f 5 62 60
f 5 60 83
f 5 83 82
f 5 82 81
f 5 81 53
f 5 53 27
f 5 27 13
f 5 13 6
f 6 13 14
f 6 14 7
f 7 14 29
f 7 29 15
f 7 15 8
f 8 15 29
f 8 29 16
f 8 16 9
f 9 16 17
f 9 17 18
f 9 18 19
f 9 19 20
f 9 20 21
f 10 22 23
f 10 23 11
f 11 23 24
f 12 25 26
f 13 27 28
f 13 28 29
f 13 29 14
f 16 29 30
f 16 30 17
f 17 30 18
f 18 30 19
f 19 30 20
f 20 31 21
f 20 30 32
f 20 32 33
f 20 33 34
f 20 34 35
f 20 35 36
f 20 36 37
f 20 37 31
f 21 38 39
f 21 39 40
f 21 40 41
f 21 31 42
f 21 42 43
f 21 43 44
f 21 44 45
f 21 45 38
f 22 46 23
f 23 46 47
f 23 47 48
f 23 48 24
f 25 49 50
f 25 50 26
f 26 50 51
f 26 51 52
f 27 53 54
f 27 54 55
f 27 55 28
f 28 55 29
f 29 55 30
f 30 55 54
f 30 54 32
f 31 37 42
f 32 54 33
f 33 35 34
f 33 54 56
f 33 56 57
f 33 57 58
f 33 58 35
f 35 37 36
f 35 58 59
f 35 59 60
f 35 60 61
f 35 61 37
f 37 61 62
f 37 62 63
f 37 63 64
f 37 64 65
f 37 65 43
f 37 43 42
f 38 45 66
f 39 67 40
f 40 67 68
f 40 68 41
f 41 68 69
f 43 65 70
f 43 70 44
f 44 70 64
f 44 64 66
f 44 66 45
f 46 71 47
f 47 71 72
f 47 72 73
f 47 73 74
f 47 74 48
f 49 75 73
f 49 73 76
f 49 76 50
f 50 76 51
f 51 77 78
f 51 78 79
f 51 79 80
f 51 80 52
f 51 76 73
f 51 73 72
f 53 81 54
f 54 81 82
f 54 82 57
f 54 57 56
f 57 82 83
f 57 83 84
f 57 84 58
f 58 84 59
f 59 84 83
f 59 83 60
f 60 62 61
f 62 66 64
f 62 64 63
f 64 70 65
f 67 80 79
f 67 79 78
f 67 78 68
f 68 78 69
f 69 78 77
f 73 75 74

