# https://github.com/mikedh/trimesh
v 0.05398593 -0.02236969 -0.02490214
v 0.05398593 -0.02334882 -0.02554335
v 0.05398593 -0.02375655 -0.02490214
v 0.05459049 -0.02245568 -0.02490214
v 0.05504968 -0.02413517 -0.02610737
v 0.05460101 -0.02413655 -0.02610602
v 0.05415439 -0.02417400 -0.02608097
v 0.05398593 -0.02544852 -0.02685827
v 0.05632097 -0.02477173 -0.02490214
v 0.05398593 -0.03653786 -0.03110027
v 0.05632097 -0.03653786 -0.03052677
v 0.05465883 -0.02248619 -0.02490214
v 0.05513197 -0.02337378 -0.02546887
v 0.05584121 -0.02546517 -0.02687046
v 0.05575001 -0.02623626 -0.02750286
v 0.05529996 -0.02623903 -0.02750083
v 0.05529996 -0.02749692 -0.02828762
v 0.05398593 -0.02761480 -0.02821314
v 0.05632097 -0.02349444 -0.02490214
v 0.05398593 -0.03653786 -0.03181934
v 0.05632097 -0.03653786 -0.03151939
v 0.05531299 -0.02283290 -0.02490214
v 0.05599915 -0.02476203 -0.02618185
v 0.05604418 -0.02523495 -0.02656102
v 0.05632097 -0.02646093 -0.02745140
v 0.05621606 -0.02635414 -0.02741349
v 0.05632097 -0.02740122 -0.02819147
v 0.05632097 -0.02752743 -0.02828762
v 0.05599915 -0.02747750 -0.02831538
v 0.05599915 -0.02803779 -0.02862820
v 0.05529996 -0.02882137 -0.02899247
v 0.05460101 -0.02890319 -0.02895455
v 0.05398593 -0.02866881 -0.02876091
v 0.05632097 -0.02352217 -0.02492652
v 0.05621789 -0.02342648 -0.02490214
v 0.05398593 -0.03642275 -0.03179971
v 0.05511894 -0.03653786 -0.03171846
v 0.05615663 -0.03653786 -0.03159590
v 0.05632097 -0.03465866 -0.03097026
v 0.05632097 -0.02411298 -0.02543908
v 0.05599915 -0.02441254 -0.02587987
v 0.05632097 -0.02486743 -0.02609045
v 0.05632097 -0.02545130 -0.02659014
v 0.05632097 -0.02563436 -0.02674655
v 0.05632097 -0.02872983 -0.02890648
v 0.05599915 -0.02841918 -0.02882997
v 0.05599915 -0.02876867 -0.02899450
v 0.05460101 -0.03033166 -0.02963300
v 0.05398593 -0.03083231 -0.02980905
v 0.05398593 -0.03039823 -0.02960592
v 0.05398593 -0.02897670 -0.02891935
v 0.05398593 -0.03598450 -0.03169408
v 0.05433998 -0.03604691 -0.03167309
v 0.05599915 -0.03502757 -0.03113548
v 0.05632097 -0.03257144 -0.03026812
v 0.05632097 -0.02883662 -0.02895659
v 0.05632097 -0.03048560 -0.02956191
v 0.05586773 -0.03040794 -0.02959102
v 0.05529996 -0.03033304 -0.02962420
v 0.05428741 -0.03186969 -0.03026880
v 0.05398593 -0.03186830 -0.03027015
v 0.05398593 -0.03159509 -0.03015030
v 0.05398593 -0.03432443 -0.03113345
v 0.05529996 -0.03083231 -0.02980092
v 0.05529996 -0.03447837 -0.03103188
v 0.05599915 -0.03251458 -0.03028708
v 0.05606018 -0.03076575 -0.02968920
v 0.05398593 -0.03390144 -0.03099058
v 0.05398593 -0.03222750 -0.03040625
f 1 2 8
f 1 8 18
f 1 18 33
f 1 33 51
f 1 51 50
f 1 50 49
f 1 49 62
f 1 62 61
f 1 61 69
f 1 69 68
f 1 68 63
f 1 63 52
f 1 52 36
f 1 36 20
f 1 20 10
f 1 10 3
f 1 3 9
f 1 9 19
f 1 19 35
f 1 35 22
f 1 22 12
f 1 12 4
f 1 4 5
f 1 5 6
f 1 6 2
f 2 6 7
f 2 7 8
f 3 10 11
f 3 11 9
f 4 12 13
f 4 13 5
f 5 13 14
f 5 14 15
f 5 15 6
f 6 15 16
f 6 16 7
f 7 16 17
f 7 17 18
f 7 18 8
f 9 11 21
f 9 21 39
f 9 39 55
f 9 55 57
f 9 57 56
f 9 56 45
f 9 45 28
f 9 28 27
f 9 27 25
f 9 25 44
f 9 44 43
f 9 43 42
f 9 42 40
f 9 40 34
f 9 34 19
f 10 20 37
f 10 37 38
f 10 38 21
f 10 21 11
f 12 22 13
f 13 22 23
f 13 23 14
f 14 23 24
f 14 24 25
f 14 25 26
f 14 26 27
f 14 27 15
f 15 27 28
f 15 28 29
f 15 29 16
f 16 29 17
f 17 29 30
f 17 30 31
f 17 31 18
f 18 31 32
f 18 32 33
f 19 34 35
f 20 36 37
f 21 38 39
f 22 35 34
f 22 34 40
f 22 40 41
f 22 41 23
f 23 42 43
f 23 43 24
f 23 41 40
f 23 40 42
f 24 43 44
f 24 44 25
f 25 27 26
f 28 30 29
f 28 45 46
f 28 46 30
f 30 46 31
f 31 46 47
f 31 47 48
f 31 48 49
f 31 49 50
f 31 50 32
f 32 51 33
f 32 50 51
f 36 52 37
f 37 52 53
f 37 53 38
f 38 53 54
f 38 54 39
f 39 54 55
f 45 56 47
f 45 47 46
f 47 56 57
f 47 57 58
f 47 58 59
f 47 59 60
f 47 60 61
f 47 61 48
f 48 61 62
f 48 62 49
f 52 63 64
f 52 64 65
f 52 65 54
f 52 54 53
f 54 65 66
f 54 66 55
f 55 66 67
f 55 67 57
f 57 67 58
f 58 67 66
f 58 66 64
f 58 64 59
f 59 64 60
f 60 64 68
f 60 68 69
f 60 69 61
f 63 68 64
f 64 66 65

