# https://github.com/mikedh/trimesh
v 0.05632097 -0.05959341 -0.02128148
v 0.05632097 -0.05959341 -0.02044598
v 0.05632097 -0.05952014 -0.02131075
v 0.05848360 -0.05959264 -0.02262873
v 0.05887308 -0.05959341 -0.02262873
v 0.05952434 -0.05959341 -0.02044598
v 0.05632097 -0.05954456 -0.02044598
v 0.05632097 -0.05792272 -0.02193171
v 0.05632097 -0.05765712 -0.02202145
v 0.05632097 -0.05740297 -0.02207808
v 0.05632097 -0.05702518 -0.02215906
v 0.05632097 -0.05670386 -0.02221206
v 0.05632097 -0.05437376 -0.02259155
v 0.05632097 -0.05428141 -0.02260224
v 0.05632097 -0.05380363 -0.02261356
v 0.05880394 -0.05600475 -0.02262873
v 0.06352925 -0.05959341 -0.02262873
v 0.06149011 -0.05959341 -0.02051586
v 0.05962947 -0.05638407 -0.02044598
v 0.05888649 -0.05179713 -0.02044598
v 0.05632097 -0.05419898 -0.02185735
v 0.05632097 -0.05348384 -0.02260459
v 0.05941709 -0.05179713 -0.02262873
v 0.05889990 -0.05530565 -0.02262873
v 0.06352925 -0.05959341 -0.02144238
v 0.06352925 -0.05555369 -0.02262873
v 0.06165098 -0.05959341 -0.02056607
v 0.05965064 -0.05179713 -0.02044598
v 0.05966405 -0.05345255 -0.02044598
v 0.05966687 -0.05415929 -0.02044598
v 0.05966405 -0.05489732 -0.02044598
v 0.05964852 -0.05571626 -0.02044598
v 0.05632097 -0.05348384 -0.02250715
v 0.06014173 -0.05179713 -0.02262873
v 0.06272488 -0.05959341 -0.02103638
v 0.06352925 -0.05950029 -0.02146781
v 0.06348551 -0.05545066 -0.02262873
v 0.06352925 -0.05600475 -0.02248322
v 0.06220063 -0.05959341 -0.02077655
v 0.06352925 -0.05610550 -0.02245138
v 0.06330135 -0.05504844 -0.02262873
v 0.06262046 -0.05361970 -0.02262873
v 0.06254143 -0.05345942 -0.02262873
v 0.06210185 -0.05265804 -0.02262873
v 0.06191205 -0.05231688 -0.02262873
v 0.06188100 -0.05226193 -0.02262873
v 0.06176246 -0.05208029 -0.02262873
v 0.06156208 -0.05179866 -0.02262873
v 0.05992935 -0.05179713 -0.02098061
v 0.06228742 -0.05959341 -0.02081586
v 0.06352925 -0.05883171 -0.02165136
v 0.06352925 -0.05831730 -0.02179281
v 0.06352925 -0.05810208 -0.02185499
v 0.06015231 -0.05179713 -0.02222402
v 0.06009375 -0.05179713 -0.02153811
v 0.06009163 -0.05179713 -0.02152507
v 0.05993288 -0.05179713 -0.02099066
f 1 2 7
f 1 7 21
f 1 21 33
f 1 33 22
f 1 22 15
f 1 15 14
f 1 14 13
f 1 13 12
f 1 12 11
f 1 11 10
f 1 10 9
f 1 9 8
f 1 8 3
f 1 3 4
f 1 4 5
f 1 5 17
f 1 17 25
f 1 25 35
f 1 35 50
f 1 50 39
f 1 39 27
f 1 27 18
f 1 18 6
f 1 6 2
f 2 6 19
f 2 19 32
f 2 32 31
f 2 31 30
f 2 30 29
f 2 29 28
f 2 28 20
f 2 20 7
f 3 8 4
f 4 8 9
f 4 9 10
f 4 10 11
f 4 11 12
f 4 12 13
f 4 13 14
f 4 14 15
f 4 15 16
f 4 16 24
f 4 24 23
f 4 23 34
f 4 34 48
f 4 48 47
f 4 47 46
f 4 46 45
f 4 45 44
f 4 44 43
f 4 43 42
f 4 42 41
f 4 41 37
f 4 37 26
f 4 26 17
f 4 17 5
f 6 18 19
f 7 20 21
f 15 22 23
f 15 23 24
f 15 24 16
f 17 26 38
f 17 38 40
f 17 40 53
f 17 53 52
f 17 52 51
f 17 51 36
f 17 36 25
f 18 27 28
f 18 28 29
f 18 29 30
f 18 30 31
f 18 31 32
f 18 32 19
f 20 28 49
f 20 49 57
f 20 57 56
f 20 56 55
f 20 55 54
f 20 54 34
f 20 34 23
f 20 23 22
f 20 22 33
f 20 33 21
f 25 36 28
f 25 28 35
f 26 37 28
f 26 28 38
f 27 39 28
f 28 40 38
f 28 37 41
f 28 41 42
f 28 42 43
f 28 43 44
f 28 44 45
f 28 45 46
f 28 46 47
f 28 47 48
f 28 48 49
f 28 39 50
f 28 50 35
f 28 36 51
f 28 51 52
f 28 52 53
f 28 53 40
f 34 54 48
f 48 54 55
f 48 55 56
f 48 56 57
f 48 57 49

