# https://github.com/mikedh/trimesh
v 0.05591589 -0.06170380 -0.01877147
v 0.05591589 -0.06275103 -0.01877147
v 0.05599912 -0.06171799 -0.01877147
v 0.05591589 -0.06001919 -0.02007939
v 0.05479165 -0.06538619 -0.02258437
v 0.05599912 -0.06276154 -0.01877147
v 0.05632008 -0.06538619 -0.02052693
v 0.05632097 -0.06178157 -0.01877147
v 0.05632097 -0.06001919 -0.02015927
v 0.05632097 -0.06001866 -0.02106966
v 0.05626918 -0.06001866 -0.02106966
v 0.05591589 -0.06001919 -0.02100396
v 0.05588820 -0.06538619 -0.02258437
v 0.05480977 -0.06535939 -0.02258437
v 0.05632097 -0.06279622 -0.01877147
v 0.05632097 -0.06538619 -0.02096627
v 0.05632097 -0.06001866 -0.02108048
v 0.05632097 -0.06317350 -0.02258437
v 0.05542144 -0.06447453 -0.02258437
v 0.05484061 -0.06531473 -0.02258437
v 0.05632097 -0.06538619 -0.02200581
v 0.05632097 -0.06475775 -0.02258437
v 0.05632097 -0.06509404 -0.02227493
f 1 2 6
f 1 6 15
f 1 15 8
f 1 8 3
f 1 3 4
f 1 4 5
f 1 5 2
f 2 5 7
f 2 7 6
f 3 8 4
f 4 9 10
f 4 10 11
f 4 11 12
f 4 12 5
f 4 8 9
f 5 13 21
f 5 21 16
f 5 16 7
f 5 12 14
f 5 14 20
f 5 20 19
f 5 19 18
f 5 18 22
f 5 22 13
f 6 7 15
f 7 16 15
f 8 15 16
f 8 16 21
f 8 21 23
f 8 23 22
f 8 22 18
f 8 18 17
f 8 17 10
f 8 10 9
f 10 17 11
f 11 17 12
f 12 17 18
f 12 18 19
f 12 19 20
f 12 20 14
f 13 22 23
f 13 23 21

