# https://github.com/mikedh/trimesh
v 0.05632097 -0.02200362 -0.02361630
v 0.05632097 -0.02261320 -0.02414380
v 0.05632097 -0.02328160 -0.02361630
v 0.05809549 -0.02316610 -0.02361630
v 0.05647624 -0.02340886 -0.02474384
v 0.05632097 -0.02411255 -0.02543882
v 0.05632097 -0.03292896 -0.02929950
v 0.06126906 -0.03292896 -0.02361630
v 0.05881986 -0.02365055 -0.02361630
v 0.05828575 -0.02359815 -0.02388137
v 0.05802491 -0.02388903 -0.02428095
v 0.05636388 -0.02488147 -0.02607842
v 0.05776351 -0.02418099 -0.02468120
v 0.05724126 -0.02476383 -0.02548036
v 0.05669869 -0.02609528 -0.02693694
v 0.05669869 -0.02684923 -0.02758774
v 0.05632097 -0.02482693 -0.02605534
v 0.05632097 -0.03292896 -0.03035187
v 0.06201319 -0.03292896 -0.02361630
v 0.05904061 -0.02383877 -0.02361630
v 0.05909312 -0.02425157 -0.02393741
v 0.05883454 -0.02383556 -0.02376334
v 0.05862733 -0.02406442 -0.02408248
v 0.05822986 -0.02433392 -0.02454866
v 0.05744621 -0.02520872 -0.02574807
v 0.05706454 -0.02697221 -0.02748158
v 0.05650390 -0.02755399 -0.02827086
v 0.05632097 -0.02646102 -0.02745059
v 0.05632097 -0.02562152 -0.02673582
v 0.05632097 -0.02486757 -0.02609029
v 0.05643728 -0.03292896 -0.03032549
v 0.05632097 -0.03257177 -0.03026812
v 0.05635146 -0.03257712 -0.03026615
v 0.06201263 -0.03292896 -0.02362553
v 0.06205666 -0.03153228 -0.02361630
v 0.05948890 -0.02437777 -0.02361630
v 0.05955213 -0.02446439 -0.02361630
v 0.05924443 -0.02471785 -0.02407193
v 0.05844779 -0.02558837 -0.02537223
v 0.05853643 -0.02480019 -0.02475043
v 0.05697025 -0.02780851 -0.02810536
v 0.05672183 -0.02803951 -0.02839482
v 0.05646382 -0.02886618 -0.02894013
v 0.05632097 -0.02872823 -0.02890650
v 0.05632097 -0.02752618 -0.02828669
v 0.05632097 -0.02739999 -0.02819108
v 0.05678620 -0.03292896 -0.03005317
v 0.05646551 -0.03095479 -0.02964237
v 0.05693751 -0.02943512 -0.02876672
v 0.05632097 -0.03050135 -0.02956720
v 0.05633452 -0.03048852 -0.02956127
v 0.06196181 -0.03292896 -0.02419787
v 0.06205610 -0.03153228 -0.02362289
v 0.06207812 -0.03083287 -0.02361630
v 0.05958206 -0.02451679 -0.02361630
v 0.05914563 -0.02559050 -0.02467197
v 0.05854829 -0.02594021 -0.02547311
v 0.06081400 -0.02667705 -0.02361630
v 0.05997614 -0.02605892 -0.02410490
v 0.05790183 -0.02733796 -0.02692441
v 0.05778383 -0.02692516 -0.02680572
v 0.05768503 -0.02779996 -0.02740509
v 0.05739426 -0.02803737 -0.02781787
v 0.05710293 -0.02827479 -0.02821943
v 0.05669756 -0.02867369 -0.02869089
v 0.05632097 -0.02883624 -0.02895662
v 0.05710406 -0.03242312 -0.02961798
v 0.05719214 -0.03292896 -0.02970304
v 0.05693864 -0.03153228 -0.02946434
v 0.05719270 -0.02873571 -0.02830515
v 0.05710519 -0.03032275 -0.02891969
v 0.05632097 -0.03048638 -0.02956193
v 0.06188842 -0.03292896 -0.02454668
v 0.06192624 -0.03245307 -0.02462779
v 0.06194544 -0.03198679 -0.02467724
v 0.06196859 -0.03222421 -0.02436601
v 0.06207755 -0.03083287 -0.02362289
v 0.06208885 -0.03013346 -0.02361630
v 0.05894746 -0.02586963 -0.02503133
v 0.06089135 -0.02803951 -0.02431985
v 0.06019351 -0.02803737 -0.02502078
v 0.05876453 -0.02669523 -0.02568873
v 0.06088739 -0.02680645 -0.02361630
v 0.06103983 -0.02733796 -0.02376795
v 0.06117364 -0.02780851 -0.02390313
v 0.05859910 -0.02733796 -0.02622349
v 0.05879840 -0.02803309 -0.02642130
v 0.05838286 -0.02779889 -0.02670483
v 0.05851554 -0.02826516 -0.02683605
v 0.05781150 -0.02826623 -0.02752972
v 0.06119510 -0.02921910 -0.02462515
v 0.05790635 -0.02873571 -0.02762005
v 0.05754219 -0.02873571 -0.02797018
v 0.05719496 -0.03083287 -0.02900475
v 0.05863411 -0.03292896 -0.02834603
v 0.05844949 -0.03187450 -0.02816998
v 0.05907618 -0.03137828 -0.02740114
v 0.05836706 -0.03140823 -0.02809085
v 0.05781827 -0.03028532 -0.02823394
v 0.05791538 -0.03083287 -0.02832559
v 0.06176646 -0.03292896 -0.02502275
v 0.06147005 -0.03292896 -0.02560894
v 0.06194544 -0.03185204 -0.02467724
v 0.06208772 -0.03013346 -0.02362289
v 0.06205215 -0.02943084 -0.02361630
v 0.06130632 -0.02827372 -0.02403632
v 0.06060849 -0.02827158 -0.02473724
v 0.05908070 -0.02780103 -0.02600457
v 0.06118042 -0.02733796 -0.02361630
v 0.05921281 -0.02826730 -0.02613777
v 0.06143618 -0.02873571 -0.02416028
v 0.06190310 -0.02919450 -0.02391236
v 0.06159088 -0.02943940 -0.02431920
v 0.06135826 -0.03013346 -0.02478274
v 0.06088231 -0.02946507 -0.02501089
v 0.06048653 -0.02924583 -0.02531618
v 0.05906941 -0.02929930 -0.02669626
v 0.05898415 -0.03292896 -0.02801568
v 0.05935057 -0.03292896 -0.02766621
v 0.06128487 -0.03176435 -0.02541113
v 0.06029062 -0.03223169 -0.02652614
v 0.06006365 -0.03292896 -0.02698243
v 0.05970006 -0.03292896 -0.02733125
v 0.05922749 -0.03223169 -0.02754686
v 0.05993154 -0.03013346 -0.02615359
v 0.06112509 -0.03292896 -0.02595908
v 0.06136786 -0.03223169 -0.02549091
v 0.06197311 -0.02966077 -0.02401390
v 0.06199399 -0.03013346 -0.02406138
v 0.06204481 -0.02943084 -0.02365652
v 0.06203803 -0.02931534 -0.02361630
v 0.06160273 -0.02816784 -0.02361630
v 0.06178566 -0.02873571 -0.02376400
v 0.06187769 -0.02873571 -0.02361630
v 0.06100426 -0.03223169 -0.02584039
f 1 2 6
f 1 6 17
f 1 17 30
f 1 30 29
f 1 29 28
f 1 28 46
f 1 46 45
f 1 45 44
f 1 44 66
f 1 66 72
f 1 72 50
f 1 50 32
f 1 32 18
f 1 18 7
f 1 7 3
f 1 3 8
f 1 8 19
f 1 19 35
f 1 35 54
f 1 54 78
f 1 78 105
f 1 105 131
f 1 131 134
f 1 134 132
f 1 132 109
f 1 109 83
f 1 83 58
f 1 58 55
f 1 55 37
f 1 37 36
f 1 36 20
f 1 20 9
f 1 9 4
f 1 4 2
f 2 4 5
f 2 5 6
f 3 7 8
f 4 9 10
f 4 10 11
f 4 11 5
f 5 12 6
f 5 11 13
f 5 13 14
f 5 14 15
f 5 15 16
f 5 16 12
f 6 12 17
f 7 18 31
f 7 31 47
f 7 47 68
f 7 68 95
f 7 95 118
f 7 118 119
f 7 119 123
f 7 123 122
f 7 122 126
f 7 126 102
f 7 102 101
f 7 101 73
f 7 73 52
f 7 52 34
f 7 34 19
f 7 19 8
f 9 20 21
f 9 21 22
f 9 22 23
f 9 23 24
f 9 24 10
f 10 24 11
f 11 24 13
f 12 16 17
f 13 24 25
f 13 25 14
f 14 25 16
f 14 16 15
f 16 26 27
f 16 27 28
f 16 28 29
f 16 29 30
f 16 30 17
f 16 25 24
f 16 24 26
f 18 32 33
f 18 33 31
f 19 34 35
f 20 36 21
f 21 36 37
f 21 37 38
f 21 38 39
f 21 39 26
f 21 26 40
f 21 40 22
f 22 40 26
f 22 26 23
f 23 26 24
f 26 41 27
f 26 39 41
f 27 41 42
f 27 42 43
f 27 43 44
f 27 44 45
f 27 45 46
f 27 46 28
f 31 33 48
f 31 48 49
f 31 49 47
f 32 50 51
f 32 51 33
f 33 51 43
f 33 43 48
f 34 52 53
f 34 53 35
f 35 53 77
f 35 77 54
f 37 55 38
f 38 56 57
f 38 57 39
f 38 55 58
f 38 58 59
f 38 59 56
f 39 57 60
f 39 60 61
f 39 61 41
f 41 61 62
f 41 62 63
f 41 63 64
f 41 64 42
f 42 64 65
f 42 65 43
f 43 49 48
f 43 51 66
f 43 66 44
f 43 65 49
f 47 67 68
f 47 49 69
f 47 69 67
f 49 65 64
f 49 64 70
f 49 70 71
f 49 71 69
f 50 72 51
f 51 72 66
f 52 73 74
f 52 74 75
f 52 75 76
f 52 76 53
f 53 76 77
f 54 77 78
f 56 79 57
f 56 59 80
f 56 80 81
f 56 81 82
f 56 82 79
f 57 79 82
f 57 82 60
f 58 83 84
f 58 84 85
f 58 85 80
f 58 80 59
f 60 82 86
f 60 86 87
f 60 87 88
f 60 88 62
f 60 62 61
f 62 88 87
f 62 87 89
f 62 89 90
f 62 90 63
f 63 90 64
f 64 90 91
f 64 91 92
f 64 92 93
f 64 93 70
f 67 69 71
f 67 71 94
f 67 94 68
f 68 94 96
f 68 96 95
f 70 93 97
f 70 97 98
f 70 98 99
f 70 99 71
f 71 99 100
f 71 100 96
f 71 96 94
f 73 101 74
f 74 101 75
f 75 101 102
f 75 102 103
f 75 103 78
f 75 78 77
f 75 77 76
f 78 104 105
f 78 103 104
f 80 106 107
f 80 107 81
f 80 85 106
f 81 107 87
f 81 87 108
f 81 108 82
f 82 108 86
f 83 109 84
f 84 109 85
f 85 109 106
f 86 108 87
f 87 107 110
f 87 110 89
f 89 110 111
f 89 111 112
f 89 112 91
f 89 91 90
f 91 112 113
f 91 113 114
f 91 114 115
f 91 115 116
f 91 116 92
f 92 116 93
f 93 116 117
f 93 117 97
f 95 96 118
f 96 98 119
f 96 119 118
f 96 100 99
f 96 99 98
f 97 120 121
f 97 121 122
f 97 122 123
f 97 123 124
f 97 124 98
f 97 117 125
f 97 125 120
f 98 124 119
f 102 126 127
f 102 127 128
f 102 128 103
f 103 128 129
f 103 129 104
f 104 129 130
f 104 130 105
f 105 130 131
f 106 111 107
f 106 109 112
f 106 112 111
f 107 111 110
f 109 132 133
f 109 133 112
f 112 131 128
f 112 128 113
f 112 133 134
f 112 134 131
f 113 128 127
f 113 127 114
f 114 125 117
f 114 117 116
f 114 116 115
f 114 127 120
f 114 120 125
f 119 124 123
f 120 127 135
f 120 135 122
f 120 122 121
f 122 135 127
f 122 127 126
f 128 131 130
f 128 130 129
f 132 134 133

