# https://github.com/mikedh/trimesh
v 0.04760065 -0.05175626 -0.01452931
v 0.04758764 -0.05175626 -0.01452931
v 0.04814111 -0.05180424 -0.01452931
v 0.04866177 -0.04935676 -0.01488187
v 0.04689932 -0.05247236 -0.01452931
v 0.04865396 -0.04935676 -0.01488187
v 0.04900698 -0.04790536 -0.01512366
v 0.04871696 -0.04790536 -0.01517595
v 0.04830772 -0.04790536 -0.01527155
v 0.04812184 -0.05247673 -0.01452931
v 0.04958388 -0.04790536 -0.01532384
v 0.04938863 -0.04790536 -0.01522600
v 0.04869041 -0.04971263 -0.01486219
v 0.04688786 -0.05248458 -0.01452931
v 0.04772249 -0.04790536 -0.01547004
v 0.04426526 -0.05528444 -0.01452931
v 0.04485622 -0.05465120 -0.01452931
v 0.04812080 -0.05248109 -0.01452931
v 0.04936936 -0.04869560 -0.01540200
v 0.04958388 -0.04790536 -0.01565729
v 0.04737260 -0.04790536 -0.01565110
v 0.04426526 -0.05681433 -0.01452931
v 0.04702063 -0.04790536 -0.01600085
v 0.04426526 -0.04790536 -0.01904741
v 0.04792451 -0.05282649 -0.01452931
v 0.04802292 -0.05223773 -0.01495047
v 0.04936936 -0.04869560 -0.01559150
v 0.04426526 -0.04790536 -0.02027324
v 0.04426526 -0.05675415 -0.01460128
v 0.04429910 -0.05678555 -0.01452931
v 0.04760430 -0.05317887 -0.01452931
v 0.04781569 -0.05270351 -0.01474692
v 0.04426526 -0.05603979 -0.01524399
v 0.04796720 -0.05147192 -0.01558925
v 0.04806665 -0.05111081 -0.01566516
v 0.04426526 -0.04833363 -0.02008768
v 0.04432409 -0.05676025 -0.01452931
v 0.04426526 -0.05527484 -0.01581867
v 0.04426526 -0.05314834 -0.01716145
v 0.04426526 -0.04968123 -0.01929876
f 1 2 5
f 1 5 14
f 1 14 17
f 1 17 16
f 1 16 22
f 1 22 30
f 1 30 37
f 1 37 31
f 1 31 25
f 1 25 18
f 1 18 10
f 1 10 3
f 1 3 4
f 1 4 6
f 1 6 2
f 2 6 7
f 2 7 8
f 2 8 9
f 2 9 5
f 3 10 11
f 3 11 12
f 3 12 13
f 3 13 4
f 4 13 12
f 4 12 7
f 4 7 6
f 5 9 14
f 7 12 11
f 7 11 20
f 7 20 28
f 7 28 24
f 7 24 23
f 7 23 21
f 7 21 15
f 7 15 9
f 7 9 8
f 9 15 16
f 9 16 17
f 9 17 14
f 10 18 11
f 11 19 27
f 11 27 20
f 11 18 19
f 15 21 16
f 16 21 23
f 16 23 24
f 16 24 28
f 16 28 36
f 16 36 40
f 16 40 39
f 16 39 38
f 16 38 33
f 16 33 29
f 16 29 22
f 18 25 26
f 18 26 27
f 18 27 19
f 20 27 28
f 22 29 30
f 25 31 32
f 25 32 26
f 26 32 33
f 26 33 34
f 26 34 27
f 27 34 35
f 27 35 28
f 28 35 36
f 29 37 30
f 29 33 31
f 29 31 37
f 31 33 32
f 33 38 34
f 34 38 39
f 34 39 40
f 34 40 36
f 34 36 35

