# https://github.com/mikedh/trimesh
v 0.04989744 -0.06001741 0.00140971
v 0.04989865 -0.06000731 0.00140971
v 0.04989865 -0.06001741 0.00140971
v 0.04877874 -0.06001741 0.00781353
v 0.04877874 -0.05971581 0.00781353
v 0.04877874 -0.05791303 0.01150006
v 0.04989865 -0.05804055 0.01139174
v 0.04989865 -0.06001741 0.02048856
v 0.04877874 -0.06001741 0.00807125
v 0.04877874 -0.05804735 0.01204165
v 0.04989865 -0.05804055 0.01139548
v 0.04877874 -0.05805683 0.01205285
v 0.04877874 -0.05856938 0.01181568
v 0.04877874 -0.05857741 0.01179887
v 0.04877874 -0.05926033 0.01012741
f 1 2 3
f 1 3 8
f 1 8 9
f 1 9 4
f 1 4 5
f 1 5 2
f 2 5 6
f 2 6 7
f 2 7 11
f 2 11 8
f 2 8 3
f 4 9 15
f 4 15 14
f 4 14 13
f 4 13 12
f 4 12 10
f 4 10 6
f 4 6 5
f 6 10 8
f 6 8 11
f 6 11 7
f 8 10 12
f 8 12 13
f 8 13 14
f 8 14 15
f 8 15 9

