# https://github.com/mikedh/trimesh
v 0.05180418 -0.03666770 0.03443079
v 0.05156381 -0.03666770 0.03442338
v 0.05250360 -0.03666770 0.03438709
v 0.05180418 -0.03642709 0.03441301
v 0.05110534 -0.03666770 0.03437005
v 0.05110534 -0.03642709 0.03433228
v 0.05250360 -0.03642709 0.03435820
v 0.05320244 -0.03666770 0.03432635
v 0.05180418 -0.03572694 0.03424043
v 0.05087467 -0.03666770 0.03429302
v 0.05139824 -0.03533695 0.03408118
v 0.05114074 -0.03576343 0.03415599
v 0.05072166 -0.03602000 0.03408340
v 0.05062174 -0.03642709 0.03414636
v 0.05054695 -0.03666770 0.03416710
v 0.05578656 -0.03666770 0.03409155
v 0.05320244 -0.03585123 0.03413747
v 0.05250017 -0.03568246 0.03416191
v 0.05226437 -0.03533923 0.03407377
v 0.05180418 -0.03531870 0.03408562
v 0.05093177 -0.03555475 0.03399007
v 0.05250360 -0.03377699 0.03344861
v 0.05352503 -0.03187494 0.03266569
v 0.05180418 -0.03385111 0.03342343
v 0.05110534 -0.03251124 0.03269606
v 0.05073879 -0.03256255 0.03267161
v 0.05048814 -0.03623096 0.03399377
v 0.05065086 -0.03450451 0.03343158
v 0.05048814 -0.03463907 0.03337751
v 0.05048814 -0.03579536 0.03383897
v 0.05048814 -0.03642709 0.03405599
v 0.05048814 -0.03657875 0.03410340
v 0.05048814 -0.03666770 0.03412858
v 0.05599896 -0.03666770 0.03406710
v 0.05433692 -0.03604737 0.03407081
v 0.05390128 -0.03597210 0.03409673
v 0.05599896 -0.03459916 0.03338862
v 0.05599896 -0.03251466 0.03268495
v 0.05390128 -0.03388760 0.03339306
v 0.05455160 -0.03220221 0.03274791
v 0.05428610 -0.03187038 0.03266643
v 0.05390128 -0.03186810 0.03266791
v 0.05250360 -0.03092278 0.03208868
v 0.05599896 -0.02876871 0.03139242
v 0.05460070 -0.03033323 0.03203090
v 0.05529954 -0.02882117 0.03139093
v 0.05460070 -0.02890327 0.03135242
v 0.05180418 -0.03100602 0.03204868
v 0.05110534 -0.02966729 0.03132131
v 0.05048814 -0.02832399 0.03059764
v 0.05048814 -0.03092050 0.03178277
v 0.05048814 -0.03231282 0.03241088
v 0.05061146 -0.03293088 0.03275235
v 0.05048814 -0.03293088 0.03267236
v 0.05048814 -0.03328095 0.03281753
v 0.05048814 -0.03666770 0.03318566
v 0.05632097 -0.03666770 0.03398637
v 0.05632097 -0.03470293 0.03338269
v 0.05632097 -0.03465960 0.03336862
v 0.05599896 -0.03502792 0.03353231
v 0.05632097 -0.03257168 0.03266569
v 0.05606005 -0.03076769 0.03208720
v 0.05586764 -0.03040963 0.03198868
v 0.05529954 -0.03083383 0.03219830
v 0.05529954 -0.03033437 0.03202201
v 0.05180418 -0.02958404 0.03136130
v 0.05632097 -0.03050314 0.03196424
v 0.05632097 -0.02883371 0.03135612
v 0.05599896 -0.02841864 0.03122798
v 0.05599896 -0.02803777 0.03102651
v 0.05529954 -0.02749612 0.03068504
v 0.05319901 -0.02798076 0.03072430
v 0.05250360 -0.02810619 0.03071393
v 0.05110534 -0.02825329 0.03063467
v 0.05390128 -0.02898652 0.03131242
v 0.05110534 -0.02790321 0.03044061
v 0.05048814 -0.02828294 0.03057468
v 0.05632097 -0.03666770 0.03296864
v 0.05048814 -0.02501821 0.02686448
v 0.05338857 -0.02904695 0.03128279
v 0.05632097 -0.02772989 0.03079837
v 0.05632097 -0.02752691 0.03068504
v 0.05599896 -0.02747673 0.03071319
v 0.05390128 -0.02762269 0.03060653
v 0.05529954 -0.02623949 0.02989841
v 0.05460070 -0.02539223 0.02929103
v 0.05390128 -0.02671386 0.03003841
v 0.05342911 -0.02766603 0.03057986
v 0.05048814 -0.02789409 0.03035246
v 0.05048814 -0.02797505 0.03040061
v 0.05105795 -0.02727262 0.03005914
v 0.05632097 -0.02501821 0.02751334
v 0.05048814 -0.02501821 0.02803998
v 0.05632097 -0.02638545 0.02978360
v 0.05621592 -0.02635352 0.02981175
v 0.05584080 -0.02546407 0.02926881
v 0.05575002 -0.02623607 0.02990137
v 0.05250360 -0.02684044 0.02995915
v 0.05126006 -0.02695333 0.02988878
v 0.05529954 -0.02588941 0.02966435
v 0.05460070 -0.02501821 0.02904141
v 0.05390300 -0.02501821 0.02897623
v 0.05320244 -0.02501821 0.02889920
v 0.05079360 -0.02699552 0.02985693
v 0.05048814 -0.02733648 0.03000507
v 0.05632097 -0.02501821 0.02861773
v 0.05092549 -0.02501821 0.02834811
v 0.05048814 -0.02575485 0.02871847
v 0.05632097 -0.02562144 0.02913400
v 0.05604406 -0.02523487 0.02895920
v 0.05602351 -0.02501821 0.02878513
v 0.05529954 -0.02501821 0.02903771
v 0.05529954 -0.02538083 0.02931473
v 0.05180418 -0.02599546 0.02935103
v 0.05249389 -0.02501821 0.02881328
v 0.05207767 -0.02501821 0.02875180
v 0.05180418 -0.02501821 0.02871106
v 0.05110534 -0.02609581 0.02929918
v 0.05128062 -0.02501821 0.02857107
v 0.05064629 -0.02620528 0.02923400
v 0.05048814 -0.02706166 0.02979619
v 0.05048814 -0.02626572 0.02918141
v 0.05048814 -0.02648694 0.02935696
f 1 2 5
f 1 5 10
f 1 10 15
f 1 15 33
f 1 33 56
f 1 56 78
f 1 78 57
f 1 57 34
f 1 34 16
f 1 16 8
f 1 8 3
f 1 3 4
f 1 4 2
f 2 4 6
f 2 6 5
f 3 7 4
f 3 8 7
f 4 7 9
f 4 9 6
f 5 6 10
f 6 9 11
f 6 11 12
f 6 12 13
f 6 13 14
f 6 14 15
f 6 15 10
f 7 8 16
f 7 16 17
f 7 17 18
f 7 18 9
f 9 18 19
f 9 19 20
f 9 20 11
f 11 21 12
f 11 20 22
f 11 22 23
f 11 23 24
f 11 24 25
f 11 25 26
f 11 26 21
f 12 21 13
f 13 27 14
f 13 21 28
f 13 28 29
f 13 29 30
f 13 30 27
f 14 27 31
f 14 31 32
f 14 32 15
f 15 32 33
f 16 34 35
f 16 35 36
f 16 36 17
f 17 19 18
f 17 36 37
f 17 37 38
f 17 38 39
f 17 39 19
f 19 39 40
f 19 40 41
f 19 41 20
f 20 41 42
f 20 42 23
f 20 23 22
f 21 26 28
f 23 43 25
f 23 25 24
f 23 42 44
f 23 44 45
f 23 45 46
f 23 46 47
f 23 47 43
f 25 43 48
f 25 48 66
f 25 66 49
f 25 49 50
f 25 50 26
f 26 51 52
f 26 52 53
f 26 53 28
f 26 50 51
f 27 30 29
f 27 29 55
f 27 55 54
f 27 54 52
f 27 52 51
f 27 51 50
f 27 50 77
f 27 77 90
f 27 90 89
f 27 89 105
f 27 105 121
f 27 121 123
f 27 123 122
f 27 122 108
f 27 108 93
f 27 93 79
f 27 79 56
f 27 56 33
f 27 33 32
f 27 32 31
f 28 53 54
f 28 54 55
f 28 55 29
f 34 57 58
f 34 58 59
f 34 59 60
f 34 60 35
f 35 60 37
f 35 37 36
f 37 60 59
f 37 59 61
f 37 61 38
f 38 61 62
f 38 62 63
f 38 63 64
f 38 64 40
f 38 40 39
f 40 64 41
f 41 64 65
f 41 65 44
f 41 44 42
f 43 47 66
f 43 66 48
f 44 46 45
f 44 65 63
f 44 63 67
f 44 67 68
f 44 68 69
f 44 69 46
f 46 69 70
f 46 70 71
f 46 71 72
f 46 72 73
f 46 73 74
f 46 74 47
f 47 74 75
f 47 75 66
f 49 66 74
f 49 74 50
f 50 74 76
f 50 76 77
f 52 54 53
f 56 79 78
f 57 78 92
f 57 92 106
f 57 106 109
f 57 109 94
f 57 94 82
f 57 82 81
f 57 81 68
f 57 68 67
f 57 67 61
f 57 61 59
f 57 59 58
f 61 67 62
f 62 67 63
f 63 65 64
f 66 75 80
f 66 80 74
f 68 81 69
f 69 81 70
f 70 81 82
f 70 82 83
f 70 83 71
f 71 84 72
f 71 83 85
f 71 85 86
f 71 86 87
f 71 87 84
f 72 84 88
f 72 88 73
f 73 88 74
f 74 88 76
f 74 80 75
f 76 89 90
f 76 90 77
f 76 88 91
f 76 91 89
f 78 79 92
f 79 93 107
f 79 107 119
f 79 119 117
f 79 117 116
f 79 116 115
f 79 115 103
f 79 103 102
f 79 102 101
f 79 101 112
f 79 112 111
f 79 111 106
f 79 106 92
f 82 94 95
f 82 95 96
f 82 96 97
f 82 97 83
f 83 97 85
f 84 87 98
f 84 98 99
f 84 99 88
f 85 97 100
f 85 100 101
f 85 101 86
f 86 101 102
f 86 102 103
f 86 103 87
f 87 103 98
f 88 99 91
f 89 91 104
f 89 104 105
f 91 99 104
f 93 108 107
f 94 109 96
f 94 96 95
f 96 110 111
f 96 111 112
f 96 112 97
f 96 109 110
f 97 112 113
f 97 113 100
f 98 103 99
f 99 103 114
f 99 114 104
f 100 113 101
f 101 113 112
f 103 115 114
f 104 114 115
f 104 115 116
f 104 116 117
f 104 117 118
f 104 118 119
f 104 119 120
f 104 120 105
f 105 120 121
f 106 111 110
f 106 110 109
f 107 108 122
f 107 122 120
f 107 120 119
f 117 119 118
f 120 122 123
f 120 123 121

