# https://github.com/mikedh/trimesh
v 0.04508416 -0.07836525 0.00084791
v 0.04508416 -0.07830151 0.00154755
v 0.04481166 -0.07822744 0.00154755
v 0.04481166 -0.07828888 0.00084791
v 0.04508416 -0.07834285 0.00014828
v 0.04508416 -0.07825844 0.00181919
v 0.04508416 -0.07819299 0.00223154
v 0.04479008 -0.07811317 0.00221982
v 0.04444934 -0.07804025 0.00196967
v 0.04442826 -0.07806035 0.00154755
v 0.04440919 -0.07808159 0.00084791
v 0.04481166 -0.07826304 0.00014828
v 0.04508416 -0.07819586 -0.00124707
v 0.04508416 -0.07808446 0.00283932
v 0.04500889 -0.07807068 0.00280610
v 0.04454268 -0.07799604 0.00243674
v 0.04374726 -0.07664207 0.00824486
v 0.04370862 -0.07667422 0.00784033
v 0.04366396 -0.07671959 0.00714069
v 0.04306376 -0.07593121 0.00888782
v 0.04331417 -0.07635899 0.00714069
v 0.04357764 -0.07683213 0.00504375
v 0.04402026 -0.07761878 0.00158077
v 0.04374877 -0.07734547 0.00137166
v 0.04405941 -0.07770319 0.00084791
v 0.04374827 -0.07734604 0.00038279
v 0.04443027 -0.07806207 0.00014828
v 0.04445787 -0.07803336 -0.00022108
v 0.04477553 -0.07816428 -0.00049272
v 0.04494164 -0.07814820 -0.00124707
v 0.04508416 -0.07807183 -0.00237860
v 0.04508416 -0.07681433 0.00958354
v 0.04474542 -0.07676322 0.00930213
v 0.04446790 -0.07662140 0.00957573
v 0.04411411 -0.07653929 0.00930213
v 0.04411310 -0.07642330 0.00976138
v 0.04352143 -0.07611725 0.00976138
v 0.04310390 -0.07588355 0.00923959
v 0.04292324 -0.07545577 0.00976138
v 0.04287557 -0.07553386 0.00923959
v 0.04236821 -0.07523068 0.00748269
v 0.04162900 -0.07458356 0.00559486
v 0.04088628 -0.07394620 0.00364449
v 0.04043261 -0.07359881 0.00224718
v 0.04082856 -0.07400419 0.00294681
v 0.04039748 -0.07366886 0.00154755
v 0.04078189 -0.07404151 0.00224718
v 0.04074727 -0.07407309 0.00154755
v 0.04150504 -0.07470816 0.00364449
v 0.04182722 -0.07505785 0.00364449
v 0.04351993 -0.07689472 0.00364449
v 0.04142023 -0.07480348 0.00084791
v 0.04075279 -0.07406965 0.00084791
v 0.04079444 -0.07402658 0.00014828
v 0.04110859 -0.07437627 0.00014828
v 0.04145787 -0.07476501 0.00014828
v 0.04219909 -0.07471850 -0.00614255
v 0.04303766 -0.07596107 -0.00390490
v 0.04353599 -0.07688381 -0.00124707
v 0.04357915 -0.07683213 -0.00194671
v 0.04306877 -0.07592719 -0.00437197
v 0.04228641 -0.07461744 -0.00753985
v 0.04508416 -0.07798627 -0.00293362
v 0.04508416 -0.07804025 -0.00259357
v 0.04232706 -0.07457265 -0.00809292
v 0.04299450 -0.07529672 -0.00753985
v 0.04432789 -0.07745342 -0.00264634
v 0.04444482 -0.07734604 -0.00377787
v 0.04468921 -0.07712095 -0.00614255
v 0.04508416 -0.07728805 -0.00715682
v 0.04508416 -0.07735523 -0.00679528
v 0.04508416 -0.07739370 -0.00657640
v 0.04508416 -0.07677758 0.00976138
v 0.04489647 -0.07671786 0.00976138
v 0.04453816 -0.07659096 0.00976138
v 0.04317165 -0.07580546 0.00976138
v 0.04229243 -0.07443541 0.00976138
v 0.04235064 -0.07455772 0.00966953
v 0.04252629 -0.07497114 0.00923959
v 0.04218353 -0.07482817 0.00784033
v 0.04093445 -0.07388476 0.00417214
v 0.04020026 -0.07324912 0.00224718
v 0.04015610 -0.07331974 0.00154755
v 0.04015911 -0.07331515 0.00084791
v 0.04040300 -0.07366484 0.00084791
v 0.04083760 -0.07397835 -0.00054744
v 0.04095302 -0.07384973 -0.00240401
v 0.04193662 -0.07423272 -0.00753985
v 0.04176299 -0.07373661 -0.00963680
v 0.04211227 -0.07407482 -0.00963680
v 0.04241187 -0.07448824 -0.00893912
v 0.04304168 -0.07525308 -0.00799520
v 0.04376131 -0.07593351 -0.00789749
v 0.04476148 -0.07705435 -0.00684022
v 0.04443277 -0.07665815 -0.00733270
v 0.04249467 -0.07442451 -0.00963680
v 0.04508416 -0.07726221 -0.00728189
v 0.04508416 -0.07599437 0.00976138
v 0.04157831 -0.07327725 0.00976138
v 0.04153064 -0.07335477 0.00923959
v 0.04086219 -0.07330481 0.00574338
v 0.04079845 -0.07340817 0.00504375
v 0.04024091 -0.07318079 0.00274943
v 0.04024241 -0.07249921 0.00504375
v 0.04023388 -0.07249921 0.00498121
v 0.04019474 -0.07258477 0.00434412
v 0.04002713 -0.07278574 0.00154755
v 0.03999501 -0.07278574 0.00084791
v 0.04019875 -0.07325371 0.00014828
v 0.04091086 -0.07322270 -0.00614255
v 0.04087072 -0.07328127 -0.00544291
v 0.04114221 -0.07363096 -0.00544291
v 0.04109906 -0.07368493 -0.00474328
v 0.04165158 -0.07385088 -0.00800497
v 0.04162247 -0.07388303 -0.00753985
v 0.04156326 -0.07340989 -0.01020354
v 0.04183024 -0.07369240 -0.01020354
v 0.04225329 -0.07406391 -0.01020354
v 0.04284345 -0.07472137 -0.00963680
v 0.04508416 -0.07702276 -0.00799325
v 0.04457028 -0.07655020 -0.00823949
v 0.04491956 -0.07681892 -0.00823949
v 0.04201341 -0.07249921 0.00976138
v 0.04508416 -0.07500502 -0.01020354
v 0.04112114 -0.07249921 0.00976138
v 0.04096808 -0.07249921 0.00903244
v 0.04092793 -0.07249921 0.00881942
v 0.04090233 -0.07254113 0.00853996
v 0.04083810 -0.07264448 0.00784033
v 0.04044917 -0.07284086 0.00504375
v 0.04031719 -0.07249921 0.00546197
v 0.04019273 -0.07249921 0.00446528
v 0.03995787 -0.07249921 0.00084791
v 0.04001508 -0.07249921 0.00014828
v 0.04006426 -0.07278574 0.00014828
v 0.04026199 -0.07314576 -0.00094612
v 0.04023890 -0.07318595 -0.00054744
v 0.04094298 -0.07317390 -0.00669952
v 0.04150805 -0.07334271 -0.01020354
v 0.04290869 -0.07457208 -0.01020354
v 0.04294934 -0.07461973 -0.01016641
v 0.04329159 -0.07507105 -0.00963680
v 0.04392893 -0.07580948 -0.00893912
v 0.04505054 -0.07670293 -0.00873587
v 0.04508416 -0.07673566 -0.00870070
v 0.04427821 -0.07607591 -0.00893912
v 0.04208417 -0.07249921 -0.01020354
v 0.04508416 -0.07598691 -0.01020354
v 0.04009136 -0.07249921 -0.00054744
v 0.04013603 -0.07249921 -0.00093634
v 0.04022686 -0.07249921 -0.00172587
v 0.04088728 -0.07284660 -0.00689494
v 0.04097359 -0.07311992 -0.00716463
v 0.04130531 -0.07278574 -0.01020354
v 0.04306376 -0.07468060 -0.01020354
v 0.04440116 -0.07597198 -0.00937297
v 0.04508416 -0.07671097 -0.00875346
v 0.04457229 -0.07586058 -0.00983809
v 0.04503849 -0.07600643 -0.01013318
v 0.04127370 -0.07249921 -0.01020354
v 0.04501842 -0.07595245 -0.01020354
v 0.04508416 -0.07601677 -0.01015468
v 0.04095252 -0.07249921 -0.00800888
v 0.04095302 -0.07250897 -0.00800302
v 0.04092592 -0.07265424 -0.00753985
v 0.04128925 -0.07265137 -0.01020354
v 0.04354552 -0.07500789 -0.01020354
v 0.04403331 -0.07533174 -0.01020354
v 0.04413769 -0.07540065 -0.01020354
v 0.04508416 -0.07605236 -0.01008433
v 0.04420996 -0.07544773 -0.01020354
v 0.04496623 -0.07592432 -0.01020354
f 1 2 3
f 1 3 4
f 1 4 5
f 1 5 13
f 1 13 31
f 1 31 64
f 1 64 63
f 1 63 72
f 1 72 71
f 1 71 70
f 1 70 97
f 1 97 120
f 1 120 145
f 1 145 157
f 1 157 170
f 1 170 162
f 1 162 148
f 1 148 124
f 1 124 98
f 1 98 73
f 1 73 32
f 1 32 14
f 1 14 7
f 1 7 6
f 1 6 2
f 2 6 3
f 3 6 7
f 3 7 8
f 3 8 9
f 3 9 4
f 4 9 10
f 4 10 11
f 4 11 12
f 4 12 5
f 5 12 13
f 7 14 15
f 7 15 8
f 8 15 16
f 8 16 9
f 9 16 17
f 9 17 18
f 9 18 19
f 9 19 20
f 9 20 10
f 10 20 21
f 10 21 22
f 10 22 23
f 10 23 24
f 10 24 11
f 11 24 25
f 11 25 26
f 11 26 27
f 11 27 12
f 12 27 28
f 12 28 29
f 12 29 30
f 12 30 31
f 12 31 13
f 14 32 15
f 15 32 33
f 15 33 16
f 16 33 17
f 17 33 34
f 17 34 35
f 17 35 36
f 17 36 37
f 17 37 20
f 17 20 18
f 18 20 19
f 20 37 38
f 20 38 39
f 20 39 40
f 20 40 41
f 20 41 42
f 20 42 43
f 20 43 44
f 20 44 45
f 20 45 46
f 20 46 47
f 20 47 48
f 20 48 49
f 20 49 50
f 20 50 51
f 20 51 21
f 21 51 22
f 22 51 24
f 22 24 23
f 24 48 25
f 24 51 48
f 25 52 26
f 25 48 52
f 26 52 53
f 26 53 54
f 26 54 55
f 26 55 56
f 26 56 57
f 26 57 58
f 26 58 59
f 26 59 27
f 27 59 60
f 27 60 58
f 27 58 61
f 27 61 62
f 27 62 28
f 28 63 64
f 28 64 31
f 28 31 29
f 28 62 65
f 28 65 66
f 28 66 67
f 28 67 68
f 28 68 69
f 28 69 70
f 28 70 71
f 28 71 72
f 28 72 63
f 29 31 30
f 32 73 34
f 32 34 33
f 34 73 74
f 34 74 75
f 34 75 36
f 34 36 35
f 36 75 74
f 36 74 73
f 36 73 98
f 36 98 123
f 36 123 125
f 36 125 99
f 36 99 77
f 36 77 39
f 36 39 76
f 36 76 37
f 37 76 38
f 38 76 39
f 39 77 78
f 39 78 79
f 39 79 40
f 40 79 41
f 41 79 80
f 41 80 81
f 41 81 42
f 42 81 43
f 43 81 82
f 43 82 44
f 44 82 83
f 44 83 46
f 44 46 45
f 46 48 47
f 46 83 84
f 46 84 85
f 46 85 53
f 46 53 48
f 48 53 52
f 48 51 50
f 48 50 49
f 53 85 54
f 54 85 86
f 54 86 55
f 55 86 56
f 56 86 87
f 56 87 57
f 57 87 88
f 57 88 58
f 58 60 59
f 58 88 62
f 58 62 61
f 62 88 89
f 62 89 65
f 65 89 90
f 65 90 91
f 65 91 92
f 65 92 66
f 66 92 93
f 66 93 69
f 66 69 68
f 66 68 67
f 69 93 94
f 69 94 70
f 70 94 95
f 70 95 93
f 70 93 96
f 70 96 97
f 77 99 78
f 78 99 79
f 79 99 100
f 79 100 101
f 79 101 102
f 79 102 80
f 80 102 103
f 80 103 81
f 81 103 82
f 82 103 104
f 82 104 105
f 82 105 106
f 82 106 83
f 83 106 107
f 83 107 108
f 83 108 84
f 84 108 109
f 84 109 110
f 84 110 85
f 85 110 111
f 85 111 112
f 85 112 113
f 85 113 87
f 85 87 86
f 87 113 114
f 87 114 115
f 87 115 88
f 88 115 114
f 88 114 89
f 89 116 117
f 89 117 90
f 89 114 112
f 89 112 116
f 90 117 96
f 90 96 93
f 90 93 91
f 91 93 92
f 93 95 94
f 96 117 118
f 96 118 119
f 96 119 97
f 97 119 121
f 97 121 122
f 97 122 120
f 98 124 123
f 99 125 126
f 99 126 127
f 99 127 128
f 99 128 100
f 100 128 129
f 100 129 101
f 101 130 102
f 101 129 130
f 102 130 103
f 103 130 131
f 103 131 104
f 104 131 127
f 104 127 126
f 104 126 125
f 104 125 123
f 104 123 147
f 104 147 160
f 104 160 163
f 104 163 151
f 104 151 150
f 104 150 149
f 104 149 134
f 104 134 133
f 104 133 132
f 104 132 105
f 105 132 106
f 106 132 107
f 107 133 108
f 107 132 133
f 108 133 134
f 108 134 135
f 108 135 136
f 108 136 137
f 108 137 109
f 109 137 138
f 109 138 110
f 110 138 139
f 110 139 112
f 110 112 111
f 112 139 116
f 112 114 113
f 116 139 154
f 116 154 166
f 116 166 160
f 116 160 147
f 116 147 124
f 116 124 148
f 116 148 161
f 116 161 172
f 116 172 171
f 116 171 169
f 116 169 168
f 116 168 167
f 116 167 155
f 116 155 140
f 116 140 118
f 116 118 117
f 118 140 141
f 118 141 142
f 118 142 119
f 119 142 143
f 119 143 121
f 120 122 144
f 120 144 145
f 121 143 122
f 122 143 141
f 122 141 146
f 122 146 144
f 123 124 147
f 127 131 128
f 128 131 130
f 128 130 129
f 134 149 135
f 135 149 150
f 135 150 151
f 135 151 152
f 135 152 136
f 136 152 153
f 136 153 138
f 136 138 137
f 138 153 139
f 139 153 154
f 140 155 141
f 141 155 156
f 141 156 144
f 141 144 146
f 141 143 142
f 144 157 145
f 144 156 158
f 144 158 159
f 144 159 157
f 148 162 159
f 148 159 161
f 151 163 164
f 151 164 165
f 151 165 152
f 152 165 153
f 153 165 164
f 153 164 154
f 154 164 163
f 154 163 166
f 155 167 156
f 156 167 168
f 156 168 169
f 156 169 158
f 157 159 170
f 158 169 171
f 158 171 159
f 159 162 170
f 159 171 172
f 159 172 161
f 160 166 163

