# https://github.com/mikedh/trimesh
v 0.04989865 -0.06001761 0.00140971
v 0.04989865 -0.06000694 0.00140971
v 0.05054625 -0.06001761 0.00140971
v 0.04989865 -0.06001761 0.02048683
v 0.05115144 -0.04901312 0.00140971
v 0.04989865 -0.05803986 0.01139480
v 0.05076284 -0.05921727 0.00140971
v 0.05192289 -0.06001761 0.00855905
v 0.04990023 -0.06001761 0.02060917
v 0.04989865 -0.05803986 0.01139725
v 0.05127787 -0.04790449 0.00140971
v 0.05127747 -0.04790449 0.01733790
v 0.05077235 -0.05913427 0.00140971
v 0.05192289 -0.05979589 0.00866915
v 0.05192289 -0.06001761 0.00905818
v 0.05082625 -0.05866236 0.00140971
v 0.05096972 -0.05740314 0.00140971
v 0.05147088 -0.05300419 0.00140971
v 0.05154301 -0.05237103 0.00140971
v 0.05176614 -0.05041225 0.00140971
v 0.05177823 -0.05027234 0.00140971
v 0.05182638 -0.04971269 0.00140971
v 0.05191873 -0.04790449 0.00140971
v 0.04997613 -0.06001761 0.02124532
v 0.05001497 -0.05950065 0.02157807
v 0.04996543 -0.05950065 0.02112543
v 0.05051474 -0.05460607 0.02392204
v 0.05073450 -0.05267694 0.02462180
v 0.05115164 -0.04901312 0.02531912
v 0.05127807 -0.04790449 0.02531912
v 0.05127787 -0.04790449 0.02462180
v 0.05127747 -0.04790449 0.01762906
v 0.05192289 -0.04790449 0.01485936
v 0.05192289 -0.05394208 0.01625155
v 0.05191893 -0.04790449 0.02531912
v 0.05182638 -0.04971269 0.02531912
v 0.05175069 -0.05041225 0.02531912
v 0.05146553 -0.05294846 0.02499126
v 0.05076046 -0.05919118 0.02150712
v 0.05054625 -0.06001761 0.02042566
v 0.05000328 -0.06001761 0.02140435
v 0.05003637 -0.05897657 0.02156339
v 0.05002111 -0.05994173 0.02152425
v 0.05070715 -0.05390770 0.02502551
v 0.05047154 -0.05530445 0.02392204
v 0.05062670 -0.05390770 0.02462180
v 0.05074144 -0.05273741 0.02499615
v 0.05067802 -0.05320813 0.02462180
v 0.05129550 -0.04790449 0.02573017
v 0.05192289 -0.04790449 0.01830925
v 0.05192289 -0.05320576 0.01689504
v 0.05179448 -0.04790449 0.02604090
v 0.05159453 -0.05041225 0.02581335
v 0.05151249 -0.05111063 0.02572527
v 0.05146176 -0.05148531 0.02567634
v 0.05082605 -0.05438672 0.02499860
v 0.05083814 -0.05575976 0.02433798
v 0.05086668 -0.05658027 0.02371651
v 0.05079910 -0.05783592 0.02292867
v 0.05078701 -0.05856513 0.02224358
v 0.05040079 -0.06001761 0.02113277
v 0.05022978 -0.06001761 0.02140435
v 0.05019094 -0.05994173 0.02152425
v 0.05068397 -0.05575976 0.02433798
v 0.05063165 -0.05530445 0.02446521
v 0.05072618 -0.05438672 0.02499860
v 0.05142847 -0.04813096 0.02639323
v 0.05142154 -0.04790449 0.02640546
v 0.05071865 -0.05320813 0.02502306
v 0.05138745 -0.04790449 0.02628068
v 0.05134445 -0.04790449 0.02604090
v 0.05168014 -0.04790449 0.02622930
v 0.05157214 -0.04790449 0.02640546
v 0.05152518 -0.04813096 0.02639323
v 0.05143600 -0.05148531 0.02567634
f 1 2 5
f 1 5 11
f 1 11 23
f 1 23 22
f 1 22 21
f 1 21 20
f 1 20 19
f 1 19 18
f 1 18 17
f 1 17 16
f 1 16 13
f 1 13 7
f 1 7 3
f 1 3 8
f 1 8 15
f 1 15 40
f 1 40 61
f 1 61 62
f 1 62 41
f 1 41 24
f 1 24 9
f 1 9 4
f 1 4 10
f 1 10 6
f 1 6 2
f 2 6 5
f 3 7 8
f 4 9 10
f 5 6 11
f 6 10 32
f 6 32 12
f 6 12 11
f 7 13 8
f 8 14 33
f 8 33 50
f 8 50 51
f 8 51 34
f 8 34 15
f 8 13 16
f 8 16 17
f 8 17 18
f 8 18 19
f 8 19 20
f 8 20 21
f 8 21 22
f 8 22 23
f 8 23 14
f 9 24 25
f 9 25 26
f 9 26 27
f 9 27 10
f 10 27 28
f 10 28 29
f 10 29 30
f 10 30 31
f 10 31 32
f 11 12 32
f 11 32 31
f 11 31 30
f 11 30 49
f 11 49 71
f 11 71 70
f 11 70 68
f 11 68 73
f 11 73 72
f 11 72 52
f 11 52 35
f 11 35 50
f 11 50 33
f 11 33 23
f 14 23 33
f 15 34 35
f 15 35 36
f 15 36 37
f 15 37 38
f 15 38 39
f 15 39 40
f 24 41 25
f 25 42 26
f 25 41 43
f 25 43 44
f 25 44 45
f 25 45 42
f 26 42 27
f 27 42 45
f 27 45 46
f 27 46 47
f 27 47 48
f 27 48 28
f 28 48 47
f 28 47 29
f 29 47 49
f 29 49 30
f 34 51 35
f 35 51 50
f 35 52 36
f 36 52 37
f 37 52 53
f 37 53 38
f 38 53 54
f 38 54 55
f 38 55 56
f 38 56 57
f 38 57 58
f 38 58 59
f 38 59 60
f 38 60 39
f 39 60 61
f 39 61 40
f 41 62 63
f 41 63 43
f 43 63 57
f 43 57 64
f 43 64 65
f 43 65 66
f 43 66 44
f 44 66 67
f 44 67 68
f 44 68 69
f 44 69 46
f 44 46 45
f 46 69 47
f 47 69 70
f 47 70 71
f 47 71 49
f 52 72 53
f 53 72 73
f 53 73 54
f 54 73 74
f 54 74 55
f 55 74 67
f 55 67 75
f 55 75 66
f 55 66 56
f 56 66 64
f 56 64 57
f 57 63 59
f 57 59 58
f 59 63 60
f 60 63 62
f 60 62 61
f 64 66 65
f 66 75 67
f 67 74 73
f 67 73 68
f 68 70 69

