# https://github.com/mikedh/trimesh
v 0.05117636 -0.03378003 0.01493078
v 0.05117636 -0.03355367 0.01485428
v 0.05085983 -0.03377212 0.01529536
v 0.05086100 -0.03378003 0.01529536
v 0.05117636 -0.03378003 0.01399124
v 0.05117636 -0.03351660 0.01483754
v 0.04949385 -0.03377410 0.01672857
v 0.04949444 -0.03378003 0.01672976
v 0.05110453 -0.03378003 0.01394701
v 0.05117636 -0.03343456 0.01331827
v 0.05117636 -0.03286818 0.01424226
v 0.05097488 -0.03306587 0.01470008
v 0.04601963 -0.02873101 0.01713140
v 0.05073836 -0.03330607 0.01516626
v 0.04899161 -0.03361298 0.01713140
v 0.04949093 -0.03378003 0.01673335
v 0.05062740 -0.03378003 0.01425661
v 0.05117636 -0.03182240 0.01037892
v 0.05117636 -0.03256769 0.01172488
v 0.05117636 -0.03329074 0.01304453
v 0.05117636 -0.03285484 0.01422792
v 0.04533459 -0.02873101 0.01713140
v 0.05072317 -0.03191432 0.01372827
v 0.04931807 -0.02982276 0.01301943
v 0.04877670 -0.02894205 0.01256998
v 0.04888883 -0.02873101 0.01202491
v 0.04904417 -0.03378003 0.01713140
v 0.04929704 -0.03378003 0.01560256
v 0.05117636 -0.02883727 0.00510269
v 0.05117636 -0.02960925 0.00646299
v 0.05117636 -0.03085026 0.00865046
v 0.05117636 -0.03103856 0.00898516
v 0.05117636 -0.03146211 0.00973822
v 0.05117636 -0.03232354 0.01349637
v 0.04533401 -0.02873645 0.01713140
v 0.04553899 -0.02873101 0.01553204
v 0.05083822 -0.03178187 0.01326208
v 0.04998500 -0.03056904 0.01293576
v 0.04943603 -0.02968932 0.01255325
v 0.04889525 -0.02873101 0.01201176
v 0.04782886 -0.03378003 0.01713140
v 0.04791763 -0.03378003 0.01699991
v 0.05117636 -0.02873101 0.00491981
v 0.05117636 -0.03031303 0.00995816
v 0.05108233 -0.03016180 0.00989242
v 0.04521079 -0.03027201 0.01713140
v 0.04568850 -0.02873101 0.01483276
v 0.04553899 -0.02873645 0.01553204
v 0.04946231 -0.02895836 0.01121208
v 0.05091589 -0.02959097 0.00924096
v 0.05014793 -0.02897467 0.00978604
v 0.04918199 -0.02873101 0.01140333
v 0.04610080 -0.03203195 0.01713140
v 0.04786858 -0.03378003 0.01707163
v 0.04581815 -0.02873101 0.01431757
v 0.05117636 -0.02873101 0.00716824
v 0.04570543 -0.03163163 0.01713140
v 0.04555651 -0.03147545 0.01713140
v 0.04543037 -0.03133262 0.01713140
v 0.04584209 -0.02911453 0.01445503
v 0.04581815 -0.02873645 0.01431876
v 0.05117636 -0.02948520 0.00850104
v 0.04523707 -0.03083395 0.01713140
v 0.04568850 -0.02873645 0.01483276
v 0.05083355 -0.02899098 0.00835880
f 1 2 3
f 1 3 4
f 1 4 8
f 1 8 16
f 1 16 27
f 1 27 41
f 1 41 54
f 1 54 42
f 1 42 28
f 1 28 17
f 1 17 9
f 1 9 5
f 1 5 10
f 1 10 20
f 1 20 19
f 1 19 18
f 1 18 33
f 1 33 32
f 1 32 31
f 1 31 30
f 1 30 29
f 1 29 43
f 1 43 56
f 1 56 62
f 1 62 44
f 1 44 34
f 1 34 21
f 1 21 11
f 1 11 6
f 1 6 2
f 2 6 3
f 3 6 7
f 3 7 8
f 3 8 4
f 5 9 10
f 6 11 12
f 6 12 13
f 6 13 14
f 6 14 7
f 7 13 15
f 7 15 16
f 7 16 8
f 7 14 13
f 9 17 18
f 9 18 19
f 9 19 20
f 9 20 10
f 11 21 13
f 11 13 12
f 13 22 35
f 13 35 46
f 13 46 63
f 13 63 59
f 13 59 58
f 13 58 57
f 13 57 53
f 13 53 41
f 13 41 27
f 13 27 15
f 13 21 23
f 13 23 24
f 13 24 25
f 13 25 26
f 13 26 40
f 13 40 52
f 13 52 56
f 13 56 43
f 13 43 55
f 13 55 47
f 13 47 36
f 13 36 22
f 15 27 16
f 17 28 29
f 17 29 30
f 17 30 31
f 17 31 32
f 17 32 33
f 17 33 18
f 21 34 23
f 22 36 35
f 23 34 37
f 23 37 38
f 23 38 39
f 23 39 24
f 24 39 26
f 24 26 25
f 26 39 40
f 28 42 29
f 29 42 43
f 34 44 45
f 34 45 37
f 35 36 46
f 36 47 64
f 36 64 48
f 36 48 46
f 37 49 39
f 37 39 38
f 37 45 50
f 37 50 51
f 37 51 49
f 39 49 40
f 40 49 52
f 41 53 54
f 42 54 43
f 43 54 53
f 43 53 57
f 43 57 58
f 43 58 59
f 43 59 60
f 43 60 61
f 43 61 55
f 44 62 45
f 45 62 50
f 46 48 64
f 46 64 63
f 47 55 64
f 49 51 52
f 50 62 65
f 50 65 51
f 51 65 56
f 51 56 52
f 55 61 64
f 56 65 62
f 59 63 60
f 60 63 61
f 61 63 64

