# https://github.com/mikedh/trimesh
v 0.05260952 -0.00030796 -0.02276412
v 0.05520938 -0.00067548 -0.02276412
v 0.05403872 -0.00059276 -0.02285587
v 0.05260952 -0.00191311 -0.02453581
v 0.05260952 -0.00251726 -0.02276412
v 0.05552970 -0.00072155 -0.02276412
v 0.05403872 -0.00343553 -0.02599307
v 0.05260952 -0.00194138 -0.02456699
v 0.05287797 -0.00256438 -0.02276412
v 0.05260952 -0.01100369 -0.03025261
v 0.05638425 -0.00098122 -0.02276412
v 0.05637967 -0.00223665 -0.02417952
v 0.05552970 -0.00137806 -0.02348563
v 0.05403872 -0.00485744 -0.02756078
v 0.05260952 -0.00336433 -0.02613470
v 0.05400897 -0.00272981 -0.02276412
v 0.05260952 -0.01100369 -0.03186308
v 0.05403872 -0.01100369 -0.03016087
v 0.05552970 -0.00292352 -0.02276412
v 0.05490699 -0.00284918 -0.02276412
v 0.05650512 -0.00165239 -0.02276412
v 0.05648110 -0.00168485 -0.02320771
v 0.05552970 -0.00356851 -0.02584432
v 0.05552970 -0.00282300 -0.02504977
v 0.05552970 -0.00212356 -0.02430422
v 0.05637052 -0.00371300 -0.02568488
v 0.05552970 -0.00504277 -0.02735146
v 0.05403872 -0.00697146 -0.02986959
v 0.05403872 -0.00628668 -0.02912404
v 0.05260952 -0.00685942 -0.02998094
v 0.05260952 -0.01070214 -0.03176599
v 0.05293173 -0.01100369 -0.03185150
v 0.05414701 -0.01100369 -0.03017512
v 0.05600101 -0.00288583 -0.02276412
v 0.05644907 -0.00271411 -0.02276412
v 0.05647767 -0.00304393 -0.02339922
v 0.05644106 -0.00316749 -0.02472643
v 0.05633696 -0.00522810 -0.02714659
v 0.05552970 -0.00655682 -0.02881941
v 0.05552970 -0.00581131 -0.02809701
v 0.05519642 -0.00795255 -0.03027488
v 0.05403872 -0.00771801 -0.03042186
v 0.05260952 -0.00747928 -0.03037910
v 0.05260952 -0.01064769 -0.03174728
v 0.05403872 -0.01074821 -0.03171076
v 0.05403872 -0.01100369 -0.03179716
v 0.05513617 -0.01100369 -0.03072560
v 0.05635260 -0.00392660 -0.02395594
v 0.05640446 -0.00425329 -0.02480126
v 0.05628815 -0.00685733 -0.02846489
v 0.05628815 -0.00685733 -0.02855396
v 0.05628815 -0.00679660 -0.02855396
v 0.05495352 -0.01096600 -0.03163149
v 0.05260952 -0.00905930 -0.03107299
v 0.05495885 -0.01100369 -0.03163772
v 0.05497182 -0.01100369 -0.03160120
f 1 2 3
f 1 3 4
f 1 4 8
f 1 8 15
f 1 15 30
f 1 30 43
f 1 43 54
f 1 54 44
f 1 44 31
f 1 31 17
f 1 17 10
f 1 10 5
f 1 5 9
f 1 9 16
f 1 16 20
f 1 20 19
f 1 19 34
f 1 34 35
f 1 35 21
f 1 21 11
f 1 11 6
f 1 6 2
f 2 6 7
f 2 7 3
f 3 7 4
f 4 7 8
f 5 10 9
f 6 11 12
f 6 12 13
f 6 13 14
f 6 14 7
f 7 14 8
f 8 14 15
f 9 10 16
f 10 17 32
f 10 32 46
f 10 46 55
f 10 55 56
f 10 56 47
f 10 47 33
f 10 33 18
f 10 18 19
f 10 19 20
f 10 20 16
f 11 21 22
f 11 22 12
f 12 23 24
f 12 24 25
f 12 25 13
f 12 22 26
f 12 26 27
f 12 27 28
f 12 28 23
f 13 25 14
f 14 25 29
f 14 29 30
f 14 30 15
f 17 31 32
f 18 33 34
f 18 34 19
f 21 35 36
f 21 36 37
f 21 37 22
f 22 37 26
f 23 28 24
f 24 28 25
f 25 28 29
f 26 37 38
f 26 38 39
f 26 39 40
f 26 40 27
f 27 40 28
f 28 41 42
f 28 42 30
f 28 30 29
f 28 40 39
f 28 39 41
f 30 42 43
f 31 44 45
f 31 45 46
f 31 46 32
f 33 47 48
f 33 48 35
f 33 35 34
f 35 48 36
f 36 48 49
f 36 49 50
f 36 50 51
f 36 51 37
f 37 51 52
f 37 52 38
f 38 52 41
f 38 41 39
f 41 52 53
f 41 53 42
f 42 53 45
f 42 45 54
f 42 54 43
f 44 54 45
f 45 53 46
f 46 53 55
f 47 56 51
f 47 51 50
f 47 50 48
f 48 50 49
f 51 56 55
f 51 55 52
f 52 55 53

