# https://github.com/mikedh/trimesh
v -0.04660829 0.00982942 -0.00019818
v -0.04660829 0.00587816 -0.00019818
v -0.04660829 0.00982942 -0.00093871
v -0.04681632 0.00985039 -0.00019818
v -0.05580874 0.00715766 -0.00019818
v -0.05580874 0.00252039 -0.01712271
v -0.04660829 0.00285870 -0.01712271
v -0.04660829 0.00970725 -0.00183662
v -0.04737649 0.00990460 -0.00093871
v -0.04737649 0.00990532 -0.00019818
v -0.05580874 0.00870173 -0.00019818
v -0.05580874 0.00438759 -0.01712271
v -0.04660829 0.00559191 -0.01712271
v -0.04660829 0.00966461 -0.00201389
v -0.04737649 0.00965593 -0.00198075
v -0.04822395 0.00959666 -0.00174219
v -0.04877961 0.00970581 -0.00094699
v -0.05004494 0.00964292 -0.00045662
v -0.05004494 0.00964292 -0.00019818
v -0.05580874 0.00870101 -0.00093871
v -0.05580874 0.00486541 -0.01594316
v -0.05393010 0.00503963 -0.01650974
v -0.05293585 0.00515673 -0.01670191
v -0.05328438 0.00484445 -0.01712271
v -0.04674787 0.00559407 -0.01712271
v -0.04737649 0.00608419 -0.01585204
v -0.04660829 0.00578202 -0.01661908
v -0.04660829 0.00817041 -0.00796795
v -0.04821044 0.00810319 -0.00769957
v -0.04877151 0.00822102 -0.00691597
v -0.04737649 0.00666755 -0.01388558
v -0.05580874 0.00834318 -0.00247444
v -0.05580874 0.00859041 -0.00145393
v -0.04886787 0.00858462 -0.00541337
v -0.05009088 0.00815813 -0.00642725
v -0.05580874 0.00684755 -0.00843845
v -0.05580874 0.00514083 -0.01523908
v -0.05184973 0.00523264 -0.01685599
v -0.05184973 0.00508228 -0.01712271
v -0.05242881 0.00499481 -0.01712271
v -0.05339605 0.00530275 -0.01594813
v -0.05184973 0.00554420 -0.01585204
v -0.05035925 0.00573648 -0.01585204
v -0.04741341 0.00560419 -0.01712271
v -0.04886787 0.00547335 -0.01712271
v -0.04896964 0.00546323 -0.01712271
v -0.04969281 0.00538516 -0.01712271
v -0.05035925 0.00533817 -0.01704650
v -0.04660829 0.00667550 -0.01391705
v -0.05580874 0.00535191 -0.01439914
v -0.05483250 0.00521023 -0.01551077
v -0.05035925 0.00529408 -0.01712271
f 1 2 7
f 1 7 13
f 1 13 27
f 1 27 49
f 1 49 28
f 1 28 14
f 1 14 8
f 1 8 3
f 1 3 4
f 1 4 10
f 1 10 19
f 1 19 11
f 1 11 5
f 1 5 2
f 2 5 6
f 2 6 7
f 3 8 9
f 3 9 10
f 3 10 4
f 5 11 20
f 5 20 33
f 5 33 32
f 5 32 36
f 5 36 50
f 5 50 37
f 5 37 21
f 5 21 12
f 5 12 6
f 6 12 24
f 6 24 40
f 6 40 39
f 6 39 52
f 6 52 47
f 6 47 46
f 6 46 45
f 6 45 44
f 6 44 25
f 6 25 13
f 6 13 7
f 8 14 15
f 8 15 9
f 9 15 16
f 9 16 17
f 9 17 18
f 9 18 10
f 10 18 19
f 11 19 18
f 11 18 20
f 12 21 22
f 12 22 23
f 12 23 24
f 13 25 26
f 13 26 27
f 14 28 15
f 15 29 30
f 15 30 16
f 15 28 31
f 15 31 29
f 16 32 33
f 16 33 18
f 16 18 17
f 16 30 34
f 16 34 35
f 16 35 36
f 16 36 32
f 18 33 20
f 21 37 22
f 22 37 23
f 23 38 39
f 23 39 40
f 23 40 24
f 23 37 41
f 23 41 42
f 23 42 43
f 23 43 26
f 23 26 38
f 25 44 26
f 26 44 45
f 26 45 46
f 26 46 47
f 26 47 48
f 26 48 38
f 26 43 31
f 26 31 49
f 26 49 27
f 28 49 31
f 29 31 30
f 30 31 35
f 30 35 34
f 31 43 42
f 31 42 41
f 31 41 35
f 35 41 50
f 35 50 36
f 37 50 51
f 37 51 41
f 38 48 39
f 39 48 52
f 41 51 50
f 47 52 48

