# https://github.com/mikedh/trimesh
v 0.06061143 -0.05795497 -0.02146428
v 0.05868517 -0.05795497 -0.02175637
v 0.06061143 -0.05795497 -0.02354440
v 0.06061143 -0.03142038 -0.02945882
v 0.05735270 -0.05795497 -0.02203716
v 0.05360359 -0.05795497 -0.03037382
v 0.05488750 -0.05039407 -0.03313172
v 0.05641424 -0.03849817 -0.03761957
v 0.06061143 -0.05647707 -0.02425123
v 0.06061143 -0.03142038 -0.03122588
v 0.06002313 -0.03142038 -0.02962665
v 0.05403913 -0.05795497 -0.02288922
v 0.05294479 -0.05795497 -0.03037382
v 0.05353152 -0.05495502 -0.03162609
v 0.05488985 -0.04729282 -0.03457119
v 0.05604215 -0.03849817 -0.03761957
v 0.05656386 -0.03739690 -0.03782129
v 0.06061143 -0.03673976 -0.03303974
v 0.06061143 -0.03992412 -0.03164061
v 0.06061143 -0.05015511 -0.02707530
v 0.06061143 -0.03213206 -0.03151958
v 0.05711064 -0.03142038 -0.03633018
v 0.05993853 -0.03142038 -0.02965085
v 0.05401954 -0.05795497 -0.02289890
v 0.05969726 -0.03142038 -0.02972347
v 0.05847367 -0.03142038 -0.03014143
v 0.05832483 -0.03142038 -0.03019307
v 0.05703152 -0.03142038 -0.03080146
v 0.05318606 -0.05495502 -0.03162609
v 0.05260952 -0.05795497 -0.02947173
v 0.05260952 -0.04579415 -0.03460669
v 0.05464622 -0.04729282 -0.03457119
v 0.05589097 -0.03739690 -0.03782129
v 0.05260952 -0.04485131 -0.03485683
v 0.05667040 -0.03590601 -0.03794878
v 0.06061143 -0.03646704 -0.03303651
v 0.06061143 -0.03294243 -0.03182297
v 0.05636724 -0.03142038 -0.03635600
v 0.06061143 -0.03447227 -0.03236680
v 0.06061143 -0.03617354 -0.03293807
v 0.05666335 -0.03441513 -0.03781484
v 0.05651295 -0.03332424 -0.03761473
v 0.05288918 -0.05795497 -0.02347501
v 0.05620274 -0.03142038 -0.03139694
v 0.05260952 -0.05795497 -0.02448684
v 0.05260952 -0.04336043 -0.03507146
v 0.05260952 -0.03915790 -0.03566854
v 0.05588862 -0.03590601 -0.03794878
v 0.05598340 -0.03142038 -0.03636891
v 0.05599907 -0.03441513 -0.03781484
v 0.05614399 -0.03332424 -0.03761473
v 0.05273329 -0.05795497 -0.02403821
v 0.05260952 -0.03142038 -0.03411773
v 0.05260952 -0.03538135 -0.03588156
v 0.05261030 -0.03142038 -0.03606391
v 0.05260952 -0.03142038 -0.03604778
v 0.05260952 -0.03143337 -0.03606230
f 1 2 5
f 1 5 12
f 1 12 24
f 1 24 43
f 1 43 52
f 1 52 45
f 1 45 30
f 1 30 13
f 1 13 6
f 1 6 3
f 1 3 9
f 1 9 20
f 1 20 19
f 1 19 18
f 1 18 36
f 1 36 40
f 1 40 39
f 1 39 37
f 1 37 21
f 1 21 10
f 1 10 4
f 1 4 2
f 2 4 5
f 3 6 7
f 3 7 8
f 3 8 9
f 4 10 22
f 4 22 38
f 4 38 49
f 4 49 55
f 4 55 56
f 4 56 53
f 4 53 44
f 4 44 28
f 4 28 27
f 4 27 26
f 4 26 25
f 4 25 23
f 4 23 11
f 4 11 12
f 4 12 5
f 6 13 29
f 6 29 14
f 6 14 15
f 6 15 7
f 7 15 8
f 8 16 33
f 8 33 17
f 8 17 18
f 8 18 19
f 8 19 20
f 8 20 9
f 8 15 32
f 8 32 16
f 10 21 22
f 11 23 12
f 12 23 25
f 12 25 26
f 12 26 27
f 12 27 28
f 12 28 24
f 13 30 31
f 13 31 29
f 14 29 32
f 14 32 15
f 16 32 31
f 16 31 34
f 16 34 33
f 17 35 18
f 17 33 48
f 17 48 35
f 18 35 36
f 21 37 22
f 22 37 39
f 22 39 40
f 22 40 36
f 22 36 41
f 22 41 42
f 22 42 38
f 24 28 43
f 28 44 43
f 29 31 32
f 30 45 53
f 30 53 56
f 30 56 57
f 30 57 54
f 30 54 47
f 30 47 46
f 30 46 34
f 30 34 31
f 33 34 46
f 33 46 47
f 33 47 48
f 35 48 50
f 35 50 41
f 35 41 36
f 38 42 49
f 41 50 51
f 41 51 42
f 42 51 49
f 43 44 53
f 43 53 52
f 45 52 53
f 47 54 48
f 48 54 55
f 48 55 50
f 49 51 55
f 50 55 51
f 54 57 55
f 55 57 56

