# https://github.com/mikedh/trimesh
v 0.03666114 -0.03987135 -0.02439801
v 0.03702814 -0.03987135 -0.03386456
v 0.03516267 -0.03987135 -0.02439801
v 0.03611888 -0.04485476 -0.02439801
v 0.03702814 -0.06338429 -0.02571769
v 0.03702814 -0.03987135 -0.03660988
v 0.03516267 -0.03987135 -0.03374777
v 0.03514620 -0.03998644 -0.02439801
v 0.03368518 -0.06337969 -0.02439801
v 0.03419948 -0.06338429 -0.02477609
v 0.03702814 -0.06338429 -0.02815838
v 0.03702814 -0.04017979 -0.03664480
v 0.03609740 -0.03987135 -0.03645817
v 0.03517316 -0.03987135 -0.03523963
v 0.03509077 -0.04038005 -0.03374777
v 0.03509077 -0.04038005 -0.02439801
v 0.03284583 -0.06338429 -0.02439801
v 0.03702814 -0.06252111 -0.02910479
v 0.03647040 -0.06338429 -0.02807771
v 0.03614184 -0.06246587 -0.02904098
v 0.03702814 -0.04038005 -0.03666648
v 0.03614184 -0.04038005 -0.03652199
v 0.03529000 -0.03987135 -0.03611500
v 0.03525455 -0.04038005 -0.03615474
v 0.03510226 -0.04038005 -0.03523963
v 0.03467184 -0.04336319 -0.03374777
v 0.03488106 -0.04187162 -0.03374777
v 0.03194705 -0.06274899 -0.02439801
v 0.03192758 -0.06338429 -0.02439801
v 0.03702814 -0.06183517 -0.02985013
v 0.03614184 -0.06338429 -0.02802714
v 0.03465037 -0.06235999 -0.02892538
v 0.03465037 -0.06168095 -0.02967072
v 0.03465037 -0.06338429 -0.02779595
v 0.03702814 -0.04187162 -0.03669899
v 0.03614184 -0.04336319 -0.03665082
v 0.03614184 -0.04187162 -0.03661590
v 0.03515469 -0.04187162 -0.03624264
v 0.03470480 -0.04336319 -0.03523963
v 0.03489754 -0.04187162 -0.03523963
v 0.03362427 -0.05082104 -0.03225710
v 0.03381701 -0.04944686 -0.03225710
v 0.03320534 -0.05379957 -0.03076523
v 0.03215676 -0.06125742 -0.02629204
v 0.03233752 -0.05997071 -0.02629204
v 0.03194755 -0.06274899 -0.02480138
v 0.03192807 -0.06338429 -0.02480138
v 0.03465037 -0.06093517 -0.03034862
v 0.03702814 -0.06153364 -0.03009576
v 0.03315940 -0.06338429 -0.02751540
v 0.03315940 -0.06220346 -0.02874959
v 0.03315940 -0.06145998 -0.02949492
v 0.03315940 -0.06071420 -0.03018366
v 0.03702814 -0.04336319 -0.03667972
v 0.03506681 -0.04336319 -0.03629682
v 0.03614184 -0.04485476 -0.03642205
v 0.03513671 -0.04485476 -0.03619207
v 0.03376458 -0.05082104 -0.03329623
v 0.03240343 -0.06034130 -0.03003556
v 0.03236797 -0.06011342 -0.02927578
v 0.03233802 -0.05997071 -0.02778391
v 0.03204691 -0.06274899 -0.02629204
v 0.03213529 -0.06338429 -0.02623545
v 0.03465037 -0.05976585 -0.03087240
v 0.03702814 -0.06108939 -0.03041484
v 0.03234101 -0.06338429 -0.02722160
v 0.03236897 -0.06206766 -0.02859787
v 0.03240343 -0.06053005 -0.03003556
v 0.03374960 -0.05773336 -0.03158522
v 0.03702814 -0.04485476 -0.03644733
v 0.03372363 -0.05231030 -0.03322399
v 0.03702814 -0.04553149 -0.03624745
v 0.03702814 -0.04595272 -0.03611380
v 0.03614184 -0.04589057 -0.03609092
v 0.03529550 -0.04575937 -0.03604276
v 0.03379204 -0.05336683 -0.03310719
v 0.03228009 -0.06263850 -0.02767915
v 0.03465037 -0.05788758 -0.03164181
v 0.03614184 -0.05799116 -0.03168034
v 0.03702814 -0.05805331 -0.03170202
v 0.03465037 -0.05359011 -0.03319147
v 0.03465037 -0.05678271 -0.03204398
v 0.03702814 -0.04932947 -0.03488322
v 0.03614184 -0.05017423 -0.03453042
f 1 2 6
f 1 6 13
f 1 13 23
f 1 23 14
f 1 14 7
f 1 7 3
f 1 3 8
f 1 8 16
f 1 16 28
f 1 28 29
f 1 29 17
f 1 17 9
f 1 9 4
f 1 4 5
f 1 5 2
f 2 5 11
f 2 11 18
f 2 18 30
f 2 30 49
f 2 49 65
f 2 65 80
f 2 80 83
f 2 83 73
f 2 73 72
f 2 72 70
f 2 70 54
f 2 54 35
f 2 35 21
f 2 21 12
f 2 12 6
f 3 7 8
f 4 9 5
f 5 9 10
f 5 10 17
f 5 17 29
f 5 29 47
f 5 47 63
f 5 63 66
f 5 66 50
f 5 50 34
f 5 34 31
f 5 31 19
f 5 19 11
f 6 12 13
f 7 14 15
f 7 15 8
f 8 15 16
f 9 17 10
f 11 19 20
f 11 20 18
f 12 21 22
f 12 22 13
f 13 22 24
f 13 24 23
f 14 23 25
f 14 25 26
f 14 26 27
f 14 27 15
f 15 27 16
f 16 27 28
f 18 20 30
f 19 31 20
f 20 32 33
f 20 33 30
f 20 31 34
f 20 34 32
f 21 35 36
f 21 36 37
f 21 37 22
f 22 37 38
f 22 38 24
f 23 24 39
f 23 39 40
f 23 40 25
f 24 38 39
f 25 40 41
f 25 41 26
f 26 42 27
f 26 41 42
f 27 42 43
f 27 43 44
f 27 44 45
f 27 45 28
f 28 45 44
f 28 44 46
f 28 46 47
f 28 47 29
f 30 33 48
f 30 48 49
f 32 34 50
f 32 50 33
f 33 50 51
f 33 51 52
f 33 52 53
f 33 53 48
f 35 54 36
f 36 55 37
f 36 54 56
f 36 56 57
f 36 57 55
f 37 55 38
f 38 55 39
f 39 55 58
f 39 58 59
f 39 59 41
f 39 41 40
f 41 59 60
f 41 60 61
f 41 61 43
f 41 43 42
f 43 61 44
f 44 61 46
f 46 62 47
f 46 61 60
f 46 60 59
f 46 59 62
f 47 62 63
f 48 53 64
f 48 64 65
f 48 65 49
f 50 66 51
f 51 67 52
f 51 66 67
f 52 68 53
f 52 67 68
f 53 68 69
f 53 69 64
f 54 70 56
f 55 57 71
f 55 71 58
f 56 70 72
f 56 72 73
f 56 73 74
f 56 74 75
f 56 75 57
f 57 75 76
f 57 76 71
f 58 71 59
f 59 71 68
f 59 68 62
f 62 77 63
f 62 68 77
f 63 77 66
f 64 69 78
f 64 78 79
f 64 79 80
f 64 80 65
f 66 77 67
f 67 77 68
f 68 71 76
f 68 76 69
f 69 76 75
f 69 75 81
f 69 81 82
f 69 82 78
f 73 83 84
f 73 84 74
f 74 84 78
f 74 78 82
f 74 82 81
f 74 81 75
f 78 84 79
f 79 84 83
f 79 83 80

