# https://github.com/mikedh/trimesh
v -0.07045366 -0.03362530 0.02967170
v -0.07045366 -0.03359661 0.02966112
v -0.07053179 -0.03362530 0.02964766
v -0.07045366 -0.03362530 0.02769570
v -0.07045366 -0.02586141 0.02676876
v -0.07192804 -0.03073164 0.02812167
v -0.07135416 -0.03362530 0.02935919
v -0.07232553 -0.02741503 0.02676010
v -0.07158532 -0.03362530 0.01984938
v -0.07045366 -0.03294306 0.02738031
v -0.07045366 -0.02276902 0.02558988
v -0.07135053 -0.02276902 0.02532930
v -0.07151605 -0.02276902 0.02527738
v -0.07231707 -0.03172630 0.02831206
v -0.07278504 -0.02840013 0.02695530
v -0.07331946 -0.02787198 0.02656202
v -0.07251360 -0.03292181 0.02851302
v -0.07248259 -0.03362530 0.02870149
v -0.07266946 -0.02400173 0.02537450
v -0.07359130 -0.02451606 0.02523699
v -0.07310923 -0.02276902 0.01984938
v -0.07045366 -0.02276902 0.02384273
v -0.07045366 -0.02980499 0.02620624
v -0.07300613 -0.03362530 0.01984938
v -0.07246085 -0.02276902 0.02495429
v -0.07213302 -0.02310270 0.02520718
v -0.07356633 -0.02886558 0.02675626
v -0.07303433 -0.03362530 0.02739762
v -0.07358848 -0.02993888 0.02682549
v -0.07353492 -0.03111208 0.02677933
v -0.07310440 -0.03292181 0.02739762
v -0.07312695 -0.02352246 0.02502064
v -0.07401456 -0.02276902 0.02416293
v -0.07375118 -0.02546609 0.02541488
v -0.07450267 -0.02276902 0.01984938
v -0.07340926 -0.03207167 0.02590624
v -0.07356512 -0.03132461 0.01984938
v -0.07277054 -0.02276902 0.02484276
v -0.07456791 -0.02276902 0.02292445
v -0.07419216 -0.02546609 0.02441582
v -0.07356512 -0.03132567 0.02590624
v -0.07416599 -0.02695702 0.02441582
v -0.07373105 -0.02993888 0.02590624
v -0.07453609 -0.02276902 0.02114652
v -0.07430775 -0.02546609 0.01984938
v -0.07356512 -0.03132567 0.02292445
v -0.07417928 -0.02695702 0.02292445
v -0.07396946 -0.02844795 0.01984938
v -0.07417887 -0.02695702 0.01984938
v -0.07433231 -0.02546609 0.02292445
v -0.07396946 -0.02844795 0.02441582
v -0.07416599 -0.02704947 0.01984938
f 1 2 3
f 1 3 7
f 1 7 18
f 1 18 28
f 1 28 24
f 1 24 9
f 1 9 4
f 1 4 10
f 1 10 23
f 1 23 22
f 1 22 11
f 1 11 5
f 1 5 2
f 2 5 3
f 3 6 7
f 3 5 8
f 3 8 6
f 4 9 10
f 5 11 12
f 5 12 13
f 5 13 8
f 6 14 7
f 6 8 15
f 6 15 16
f 6 16 14
f 7 17 18
f 7 14 17
f 8 13 19
f 8 19 20
f 8 20 15
f 9 21 22
f 9 22 23
f 9 23 10
f 9 24 37
f 9 37 48
f 9 48 52
f 9 52 49
f 9 49 45
f 9 45 35
f 9 35 21
f 11 22 21
f 11 21 35
f 11 35 44
f 11 44 39
f 11 39 33
f 11 33 38
f 11 38 25
f 11 25 13
f 11 13 12
f 13 25 26
f 13 26 19
f 14 16 27
f 14 27 17
f 15 20 16
f 16 20 27
f 17 27 18
f 18 27 29
f 18 29 30
f 18 30 31
f 18 31 28
f 19 26 32
f 19 32 20
f 20 32 33
f 20 33 34
f 20 34 27
f 24 28 36
f 24 36 37
f 25 38 32
f 25 32 26
f 27 34 33
f 27 33 39
f 27 39 40
f 27 40 29
f 28 31 30
f 28 30 41
f 28 41 36
f 29 40 39
f 29 39 42
f 29 42 30
f 30 42 43
f 30 43 41
f 32 38 33
f 35 45 44
f 36 41 46
f 36 46 37
f 37 46 47
f 37 47 48
f 39 44 45
f 39 45 49
f 39 49 50
f 39 50 42
f 41 43 42
f 41 42 51
f 41 51 47
f 41 47 46
f 42 50 47
f 42 47 51
f 47 50 49
f 47 49 52
f 47 52 48

