# https://github.com/mikedh/trimesh
v -0.05062212 0.00246143 -0.04267116
v -0.05062212 0.00246143 -0.03818882
v -0.05060462 0.00312551 -0.03818882
v -0.05060025 0.00318668 -0.04267116
v -0.05058712 0.00309056 -0.04317322
v -0.05058712 0.00246143 -0.04317588
v -0.05056525 0.00187599 -0.04314607
v -0.05057400 0.00180608 -0.04267116
v -0.05057400 0.00180608 -0.03818882
v -0.05060025 0.00318668 -0.03818882
v -0.05059587 0.00322163 -0.03818882
v -0.05052587 0.00363231 -0.04176021
v -0.05010586 0.00610514 -0.04176021
v -0.04968147 0.00857797 -0.04267116
v -0.04966835 0.00851680 -0.04316257
v -0.05017149 0.00337891 -0.04335477
v -0.05009711 0.00246143 -0.04342718
v -0.04972085 0.00792263 -0.04322806
v -0.04979523 0.00700514 -0.04330898
v -0.04986523 0.00610514 -0.04335957
v -0.04993523 0.00518766 -0.04337660
v -0.04987835 -0.00299977 -0.04336861
v -0.04983898 -0.00390851 -0.04334732
v -0.04979960 -0.00482599 -0.04331644
v -0.04975585 -0.00573474 -0.04327811
v -0.04971210 -0.00664348 -0.04323019
v -0.04967272 -0.00755222 -0.04317163
v -0.04964647 -0.00805902 -0.04313489
v -0.04978648 -0.00664348 -0.04267116
v -0.05050837 0.00108958 -0.04176021
v -0.05050837 0.00108958 -0.03818882
v -0.05042524 0.00422649 -0.03818882
v -0.05010586 0.00610514 -0.03818882
v -0.04901646 0.01247508 -0.04267116
v -0.04874957 0.01389062 -0.04315193
v -0.04879770 0.01338382 -0.04321422
v -0.04919146 0.00610514 -0.04360926
v -0.04919146 0.00518766 -0.04362790
v -0.04919146 -0.00209103 -0.04362790
v -0.04919146 -0.00299977 -0.04361938
v -0.04919146 -0.00390851 -0.04359809
v -0.04887645 0.01247508 -0.04329940
v -0.04895083 0.01156634 -0.04335530
v -0.04919146 0.00700514 -0.04355975
v -0.04919146 -0.00482599 -0.04356720
v -0.04919146 -0.00573474 -0.04352781
v -0.04919146 -0.00664348 -0.04348042
v -0.04919146 -0.00755222 -0.04342186
v -0.04904708 -0.00937845 -0.04337075
v -0.04888958 -0.01028719 -0.04329461
v -0.04878020 -0.01087263 -0.04319292
v -0.04937084 -0.00937845 -0.04267116
v -0.04958522 -0.00853961 -0.04267116
v -0.04965085 -0.00808524 -0.04267116
v -0.04978648 -0.00664348 -0.03818882
v -0.04986523 -0.00580464 -0.03818882
v -0.04901646 0.01247508 -0.03818882
v -0.04887208 0.01331392 -0.03818882
v -0.04885895 0.01338382 -0.04267116
v -0.04875832 0.01392557 -0.04267116
v -0.04860957 0.01437994 -0.04267116
v -0.04828581 0.01521005 -0.04267116
v -0.04790955 0.01585665 -0.04323179
v -0.04804955 0.01521005 -0.04333082
v -0.04831644 0.01424014 -0.04334146
v -0.04828143 0.01156634 -0.04360607
v -0.04828143 0.01064886 -0.04362790
v -0.04827706 -0.00846970 -0.04362790
v -0.04827706 -0.00937845 -0.04362098
v -0.04828143 0.01338382 -0.04346498
v -0.04828143 0.01247508 -0.04354963
v -0.04827706 -0.01028719 -0.04354538
v -0.04808018 -0.01211341 -0.04335584
v -0.04712640 -0.01483964 -0.04333614
v -0.04617263 -0.01757461 -0.04330952
v -0.04700390 -0.01554742 -0.04323977
v -0.04605887 -0.01819500 -0.04320676
v -0.04783517 -0.01351148 -0.04314767
v -0.04904271 -0.01028719 -0.04267116
v -0.04938396 -0.00937845 -0.04176021
v -0.04959397 -0.00853961 -0.04176021
v -0.04965085 -0.00808524 -0.03818882
v -0.04876707 0.01388188 -0.03818882
v -0.04875832 0.01392557 -0.03818882
v -0.04861832 0.01437994 -0.04176021
v -0.04795330 0.01594403 -0.04267116
v -0.04511385 0.02208679 -0.04315565
v -0.04829456 0.01521005 -0.04176021
v -0.04422570 0.02394796 -0.04318706
v -0.04702578 0.01772657 -0.04325202
v -0.04435258 0.02339747 -0.04329781
v -0.04717453 0.01702753 -0.04334572
v -0.04372693 0.02339747 -0.04354750
v -0.04736703 0.01521005 -0.04358105
v -0.04736703 0.01429257 -0.04362790
v -0.04736703 -0.01120467 -0.04362790
v -0.04645264 -0.01393090 -0.04362790
v -0.04554699 -0.01666587 -0.04362577
v -0.04736703 -0.01211341 -0.04360660
v -0.04645264 -0.01483964 -0.04358744
v -0.04554699 -0.01757461 -0.04356028
v -0.04535885 -0.01939210 -0.04334945
v -0.04521447 -0.02003870 -0.04325734
v -0.04564324 -0.01939210 -0.04267116
v -0.04608950 -0.01827365 -0.04267116
v -0.04705202 -0.01567848 -0.04267116
v -0.04938396 -0.00937845 -0.03818882
v -0.04959397 -0.00853961 -0.03818882
v -0.04861832 0.01437994 -0.03818882
v -0.04620763 0.01974503 -0.04267116
v -0.04512260 0.02210426 -0.04267116
v -0.04424320 0.02400039 -0.04267116
v -0.04829456 0.01521005 -0.03818882
v -0.04402444 0.02445476 -0.04267116
v -0.04356943 0.02518001 -0.04267116
v -0.04346880 0.02504020 -0.04329355
v -0.04375319 0.02428000 -0.04336383
v -0.04372693 0.02249747 -0.04362790
v -0.04463696 0.02067124 -0.04361938
v -0.04554699 0.01885376 -0.04360873
v -0.04645701 0.01702753 -0.04359595
v -0.04288691 0.02529360 -0.04342718
v -0.04281691 0.02430622 -0.04362790
v -0.04463259 -0.01848335 -0.04362790
v -0.04463259 -0.01939210 -0.04360021
v -0.04467196 -0.02032705 -0.04340535
v -0.04283004 -0.02301833 -0.04338246
v -0.04253690 -0.02374358 -0.04328450
v -0.04068185 -0.02642612 -0.04326533
v -0.04336380 -0.02271251 -0.04322859
v -0.04418632 -0.02167269 -0.04313329
v -0.04527573 -0.02012608 -0.04267116
v -0.04565199 -0.01939210 -0.04176021
v -0.04592324 -0.01872802 -0.04176021
v -0.04592324 -0.01872802 -0.03818882
v -0.04512260 0.02210426 -0.03818882
v -0.04455383 0.02333631 -0.03818882
v -0.04402882 0.02445476 -0.04176021
v -0.04426507 0.02395670 -0.03818882
v -0.04357380 0.02518001 -0.04176021
v -0.04323255 0.02563438 -0.04267116
v -0.04238377 0.02662176 -0.04316257
v -0.04153063 0.02759167 -0.04321368
v -0.04067310 0.02857032 -0.04325308
v -0.04097936 0.02792371 -0.04335477
v -0.04010434 0.02886741 -0.04339470
v -0.04190251 0.02613244 -0.04352887
v -0.04098811 0.02704118 -0.04356774
v -0.04007808 0.02794993 -0.04359648
v -0.03917244 0.02886741 -0.04361778
v -0.03826241 0.02977615 -0.04362790
v -0.04372256 -0.02030084 -0.04362790
v -0.04190251 -0.02303581 -0.04362098
v -0.04008246 -0.02577078 -0.04360607
v -0.04281254 -0.02212706 -0.04357945
v -0.04372256 -0.02121832 -0.04350757
v -0.03916806 -0.02758826 -0.04351982
v -0.04012621 -0.02670573 -0.04340961
v -0.04098373 -0.02571835 -0.04334945
v -0.03914181 -0.02842710 -0.04330792
v -0.03882243 -0.02907371 -0.04323924
v -0.03964057 -0.02806885 -0.04315033
v -0.03932994 -0.02854070 -0.04267116
v -0.04419070 -0.02168143 -0.04267116
v -0.04496072 -0.02058046 -0.04267116
v -0.04496509 -0.02058046 -0.04176021
v -0.04527573 -0.02012608 -0.03818882
v -0.04562574 -0.01945326 -0.03818882
v -0.04565199 -0.01939210 -0.03818882
v -0.04402882 0.02445476 -0.03818882
v -0.04357380 0.02518001 -0.03818882
v -0.04323692 0.02563438 -0.04176021
v -0.04282566 0.02613244 -0.04176021
v -0.04240127 0.02663924 -0.04267116
v -0.04073435 0.02864896 -0.04267116
v -0.03747927 0.03257229 -0.04267116
v -0.03784240 0.03209170 -0.04316896
v -0.03698050 0.03306161 -0.04321954
v -0.03980683 0.02954023 -0.04328024
v -0.03731301 0.03244122 -0.04330792
v -0.03642486 0.03338491 -0.04334945
v -0.03735239 0.03159364 -0.04353419
v -0.03643799 0.03251112 -0.04357200
v -0.03552359 0.03341986 -0.04358690
v -0.03370791 0.03432861 -0.04362790
v -0.03916806 -0.02667952 -0.04362790
v -0.03825804 -0.02849701 -0.04358690
v -0.04098811 -0.02485329 -0.04355283
v -0.03823178 -0.02938827 -0.04334945
v -0.03790803 -0.02994750 -0.04321954
v -0.03841554 -0.02958925 -0.04267116
v -0.03887493 -0.02913487 -0.04267116
v -0.03932994 -0.02854070 -0.03818882
v -0.04496509 -0.02058046 -0.03818882
v -0.04323692 0.02563438 -0.03818882
v -0.03705925 0.03307908 -0.03818882
v -0.03701988 0.03311404 -0.04267116
v -0.03662612 0.03357715 -0.04267116
v -0.03610548 0.03397909 -0.04323924
v -0.03545358 0.03430239 -0.04330792
v -0.03461356 0.03432861 -0.04351982
v -0.03188349 0.03614609 -0.04355283
v -0.02915341 0.03797232 -0.04357945
v -0.02643209 0.03978980 -0.04360021
v -0.03279789 0.03523735 -0.04360607
v -0.03005906 0.03706357 -0.04362098
v -0.02733774 0.03888106 -0.04362790
v -0.03461794 -0.03123197 -0.04362790
v -0.03370791 -0.03214072 -0.04361778
v -0.03734801 -0.02940575 -0.04357200
v -0.03643799 -0.03031449 -0.04353419
v -0.03371229 -0.03306694 -0.04339470
v -0.03438168 -0.03277858 -0.04328024
v -0.03728238 -0.03027954 -0.04330792
v -0.03341040 -0.03363490 -0.04325308
v -0.03243475 -0.03449995 -0.04321368
v -0.03693675 -0.03081255 -0.04316896
v -0.03796053 -0.02999119 -0.04267116
v -0.03845492 -0.02955429 -0.03818882
v -0.03838054 -0.02962420 -0.03818882
v -0.03887493 -0.02913487 -0.03818882
v -0.03662612 0.03357715 -0.03818882
v -0.03617110 0.03403152 -0.04267116
v -0.03509920 0.03480045 -0.04315033
v -0.03242163 0.03666163 -0.04319345
v -0.03344978 0.03584027 -0.04326480
v -0.03274976 0.03614609 -0.04334945
v -0.03373854 0.03528104 -0.04340961
v -0.03005031 0.03798979 -0.04338246
v -0.02824776 0.03888106 -0.04350757
v -0.02735961 0.03982475 -0.04340535
v -0.02643209 0.04051505 -0.04334945
v -0.02460329 0.04069855 -0.04356028
v -0.02187321 0.04161603 -0.04358690
v -0.02369764 0.04069855 -0.04362577
v -0.02551769 0.03978980 -0.04362790
v -0.02915341 -0.03578443 -0.04362790
v -0.03279351 -0.03304946 -0.04359648
v -0.03188786 -0.03396694 -0.04356774
v -0.03097346 -0.03487568 -0.04352887
v -0.03013782 -0.03585433 -0.04342718
v -0.03276289 -0.03394947 -0.04335477
v -0.02988406 -0.03643977 -0.04329355
v -0.03146347 -0.03535627 -0.04316257
v -0.03148535 -0.03537374 -0.04267116
v -0.03695862 -0.03083003 -0.04267116
v -0.03796053 -0.02999119 -0.03818882
v -0.03617110 0.03403152 -0.03818882
v -0.03556734 0.03448589 -0.04267116
v -0.03511232 0.03480919 -0.04267116
v -0.02870715 0.03933543 -0.04313329
v -0.02973968 0.03852281 -0.04322859
v -0.02707086 0.04037524 -0.04325734
v -0.03077221 0.03770144 -0.04328450
v -0.02460329 0.04133641 -0.04330898
v -0.02187321 0.04228885 -0.04333614
v -0.01731871 0.04343351 -0.04354538
v -0.01914314 0.04252477 -0.04360660
v -0.01640869 0.04343351 -0.04362098
v -0.02096319 0.04161603 -0.04362790
v -0.02733774 -0.03669317 -0.04362790
v -0.02824776 -0.03669317 -0.04354750
v -0.02911841 -0.03671939 -0.04336383
v -0.03002406 -0.03654463 -0.04267116
v -0.02824776 -0.03732230 -0.04329781
v -0.02879028 -0.03719997 -0.04318706
v -0.03047470 -0.03620385 -0.04267116
v -0.03051407 -0.03617763 -0.03818882
v -0.03148535 -0.03537374 -0.03818882
v -0.03550171 -0.03204460 -0.04176021
v -0.03695862 -0.03083003 -0.03818882
v -0.03556734 0.03448589 -0.03818882
v -0.03511232 0.03480919 -0.03818882
v -0.02819964 0.03971116 -0.03818882
v -0.02824776 0.03967621 -0.04176021
v -0.02761337 0.04012184 -0.04267116
v -0.02715836 0.04043641 -0.04267116
v -0.02643209 0.04079466 -0.04267116
v -0.02522018 0.04121408 -0.04320676
v -0.02257761 0.04216652 -0.04323977
v -0.01731871 0.04404517 -0.04329461
v -0.01914314 0.04324128 -0.04335584
v -0.01640869 0.04420245 -0.04337075
v -0.01367424 0.04434226 -0.04348042
v -0.01276421 0.04434226 -0.04352781
v -0.01185419 0.04434226 -0.04356720
v -0.01094416 0.04434226 -0.04359809
v -0.01003414 0.04434226 -0.04361938
v -0.00912411 0.04434226 -0.04362790
v -0.01549866 0.04343351 -0.04362790
v -0.01914314 -0.04033688 -0.04362790
v -0.02551769 -0.03761065 -0.04361938
v -0.02369326 -0.03851940 -0.04360873
v -0.02187321 -0.03942814 -0.04359595
v -0.02005316 -0.04033688 -0.04358105
v -0.02005316 -0.04101844 -0.04333082
v -0.02187321 -0.04014465 -0.04334572
v -0.03002406 -0.03654463 -0.03818882
v -0.02929779 -0.03699900 -0.04267116
v -0.02935467 -0.03696405 -0.03818882
v -0.02257323 -0.03999610 -0.04325202
v -0.02069631 -0.04087863 -0.04323179
v -0.02692648 -0.03808250 -0.04315565
v -0.02884278 -0.03721744 -0.04267116
v -0.03550171 -0.03204460 -0.03818882
v -0.02761337 0.04012184 -0.03818882
v -0.02715836 0.04043641 -0.03818882
v -0.02643209 0.04081214 -0.04176021
v -0.02530331 0.04124904 -0.04267116
v -0.02054755 0.04298788 -0.04314767
v -0.01790060 0.04394031 -0.04319292
v -0.01508740 0.04480537 -0.04313489
v -0.01458864 0.04483158 -0.04317163
v -0.01367424 0.04487527 -0.04323019
v -0.01276421 0.04491896 -0.04327811
v -0.01185419 0.04496265 -0.04331644
v -0.01094416 0.04499760 -0.04334732
v -0.01003414 0.04504129 -0.04336861
v -0.00912411 0.04507624 -0.04337660
v -0.00638967 0.04518983 -0.04337660
v -0.00592590 0.04525974 -0.04335797
v -0.00592590 0.04434226 -0.04362790
v -0.01549866 -0.04124563 -0.04362790
v -0.01640869 -0.04124563 -0.04360607
v -0.01732309 -0.04124563 -0.04354963
v -0.01822874 -0.04124563 -0.04346498
v -0.01908626 -0.04128932 -0.04334146
v -0.01822874 -0.04176990 -0.04321422
v -0.01874063 -0.04171747 -0.04315193
v -0.02929779 -0.03699900 -0.03818882
v -0.02005316 -0.04125436 -0.04267116
v -0.02079256 -0.04092232 -0.04267116
v -0.02694835 -0.03809124 -0.04267116
v -0.02884278 -0.03721744 -0.03818882
v -0.02736836 -0.03789900 -0.03818882
v -0.02643209 0.04081214 -0.03818882
v -0.02575832 0.04108301 -0.04176021
v -0.01640869 0.04454323 -0.04176021
v -0.01731871 0.04420245 -0.04267116
v -0.01640869 0.04452575 -0.04267116
v -0.01556867 0.04474420 -0.04267116
v -0.01511365 0.04481410 -0.04267116
v -0.01003414 0.04528595 -0.04267116
v -0.00592590 0.04565294 -0.04267116
v -0.00592590 0.04546945 -0.04300551
v -0.00592590 -0.04216311 -0.04362790
v -0.01003414 -0.04216311 -0.04362790
v -0.01094854 -0.04216311 -0.04360926
v -0.01185856 -0.04216311 -0.04355975
v -0.01640869 -0.04191844 -0.04335530
v -0.01732309 -0.04184854 -0.04329940
v -0.01276859 -0.04268738 -0.04322806
v -0.00793846 -0.04355243 -0.04317322
v -0.01335923 -0.04263495 -0.04316257
v -0.01732309 -0.04198835 -0.04267116
v -0.01822874 -0.04183106 -0.04267116
v -0.01877125 -0.04172621 -0.04267116
v -0.01922627 -0.04157766 -0.04267116
v -0.02005316 -0.04126310 -0.04176021
v -0.02193884 -0.04039805 -0.03818882
v -0.02575832 0.04108301 -0.03818882
v -0.01640869 0.04454323 -0.03818882
v -0.01556867 0.04475294 -0.04176021
v -0.01511365 0.04481410 -0.03818882
v -0.00592590 0.04567042 -0.04176021
v -0.00592590 -0.04307185 -0.04335850
v -0.00730406 -0.04307185 -0.04342718
v -0.01003414 -0.04290583 -0.04337660
v -0.01094854 -0.04283593 -0.04335957
v -0.01185856 -0.04276602 -0.04330898
v -0.00823159 -0.04314175 -0.04335477
v -0.00730406 -0.04355243 -0.04317588
v -0.00730406 -0.04359612 -0.04267116
v -0.00802596 -0.04356991 -0.04267116
v -0.01342486 -0.04265243 -0.04267116
v -0.01732309 -0.04198835 -0.03818882
v -0.00912849 -0.04338641 -0.04176021
v -0.01822874 -0.04183106 -0.03818882
v -0.01877125 -0.04172621 -0.03818882
v -0.01919126 -0.04160388 -0.03818882
v -0.01922627 -0.04158640 -0.04176021
v -0.02005316 -0.04126310 -0.03818882
v -0.01556867 0.04475294 -0.03818882
v -0.00592590 0.04567042 -0.03818882
v -0.00592590 -0.04328156 -0.04299540
v -0.00671780 -0.04353496 -0.04314607
v -0.00730406 -0.04359612 -0.03818882
v -0.00665217 -0.04354370 -0.04267116
v -0.00802596 -0.04356991 -0.03818882
v -0.00912849 -0.04338641 -0.03818882
v -0.00592590 -0.04347379 -0.03818882
v -0.00592590 -0.04346505 -0.04267116
v -0.00665217 -0.04354370 -0.03818882
v -0.00616216 -0.04350001 -0.03818882
v -0.00592590 -0.04347379 -0.04233042
f 1 2 3
f 1 3 4
f 1 4 5
f 1 5 6
f 1 6 7
f 1 7 8
f 1 8 9
f 1 9 2
f 2 9 31
f 2 31 56
f 2 56 55
f 2 55 82
f 2 82 108
f 2 108 107
f 2 107 135
f 2 135 169
f 2 169 168
f 2 168 167
f 2 167 194
f 2 194 193
f 2 193 221
f 2 221 219
f 2 219 220
f 2 220 247
f 2 247 271
f 2 271 305
f 2 305 269
f 2 269 268
f 2 268 298
f 2 298 300
f 2 300 330
f 2 330 334
f 2 334 335
f 2 335 360
f 2 360 382
f 2 382 380
f 2 380 379
f 2 379 378
f 2 378 376
f 2 376 390
f 2 390 389
f 2 389 387
f 2 387 393
f 2 393 394
f 2 394 391
f 2 391 384
f 2 384 364
f 2 364 383
f 2 383 362
f 2 362 361
f 2 361 336
f 2 336 307
f 2 307 306
f 2 306 274
f 2 274 273
f 2 273 272
f 2 272 248
f 2 248 222
f 2 222 196
f 2 196 195
f 2 195 171
f 2 171 170
f 2 170 139
f 2 139 137
f 2 137 136
f 2 136 113
f 2 113 109
f 2 109 84
f 2 84 83
f 2 83 58
f 2 58 57
f 2 57 33
f 2 33 32
f 2 32 11
f 2 11 10
f 2 10 3
f 3 10 4
f 4 10 11
f 4 11 12
f 4 12 13
f 4 13 14
f 4 14 15
f 4 15 5
f 5 16 17
f 5 17 6
f 5 15 18
f 5 18 19
f 5 19 20
f 5 20 21
f 5 21 16
f 6 17 22
f 6 22 23
f 6 23 24
f 6 24 7
f 7 24 25
f 7 25 26
f 7 26 27
f 7 27 28
f 7 28 8
f 8 28 29
f 8 29 30
f 8 30 31
f 8 31 9
f 11 32 12
f 12 32 13
f 13 32 33
f 13 33 57
f 13 57 34
f 13 34 14
f 14 34 15
f 15 34 35
f 15 35 36
f 15 36 18
f 16 21 17
f 17 21 37
f 17 37 38
f 17 38 39
f 17 39 40
f 17 40 41
f 17 41 22
f 18 36 42
f 18 42 19
f 19 42 43
f 19 43 20
f 20 43 44
f 20 44 37
f 20 37 21
f 22 41 45
f 22 45 23
f 23 45 46
f 23 46 24
f 24 46 47
f 24 47 25
f 25 47 48
f 25 48 49
f 25 49 26
f 26 49 27
f 27 49 28
f 28 49 50
f 28 50 51
f 28 51 52
f 28 52 53
f 28 53 54
f 28 54 29
f 29 54 82
f 29 82 55
f 29 55 56
f 29 56 30
f 30 56 31
f 34 57 58
f 34 58 59
f 34 59 35
f 35 59 60
f 35 60 61
f 35 61 62
f 35 62 63
f 35 63 64
f 35 64 36
f 36 64 65
f 36 65 42
f 37 44 66
f 37 66 67
f 37 67 38
f 38 67 95
f 38 95 118
f 38 118 123
f 38 123 151
f 38 151 185
f 38 185 207
f 38 207 236
f 38 236 260
f 38 260 290
f 38 290 289
f 38 289 322
f 38 322 346
f 38 346 347
f 38 347 323
f 38 323 291
f 38 291 261
f 38 261 237
f 38 237 208
f 38 208 186
f 38 186 152
f 38 152 124
f 38 124 97
f 38 97 96
f 38 96 68
f 38 68 39
f 39 68 69
f 39 69 40
f 40 69 41
f 41 69 45
f 42 65 70
f 42 70 43
f 43 70 71
f 43 71 44
f 44 71 66
f 45 69 46
f 46 69 47
f 47 69 49
f 47 49 48
f 49 69 72
f 49 72 73
f 49 73 50
f 50 73 74
f 50 74 75
f 50 75 76
f 50 76 51
f 51 76 77
f 51 77 78
f 51 78 52
f 52 78 79
f 52 79 80
f 52 80 53
f 53 80 81
f 53 81 54
f 54 81 108
f 54 108 82
f 58 83 59
f 59 83 60
f 60 83 84
f 60 84 109
f 60 109 85
f 60 85 61
f 61 85 88
f 61 88 62
f 62 86 87
f 62 87 63
f 62 88 86
f 63 87 89
f 63 89 90
f 63 90 64
f 64 90 91
f 64 91 92
f 64 92 93
f 64 93 94
f 64 94 70
f 64 70 65
f 66 71 94
f 66 94 95
f 66 95 67
f 68 96 69
f 69 96 97
f 69 97 98
f 69 98 99
f 69 99 72
f 70 94 71
f 72 99 100
f 72 100 101
f 72 101 74
f 72 74 73
f 74 101 75
f 75 101 102
f 75 102 77
f 75 77 76
f 77 102 103
f 77 103 104
f 77 104 105
f 77 105 78
f 78 106 79
f 78 105 106
f 79 106 80
f 80 107 108
f 80 108 81
f 80 106 107
f 85 109 113
f 85 113 88
f 86 88 110
f 86 110 87
f 87 110 111
f 87 111 112
f 87 112 89
f 88 113 136
f 88 136 111
f 88 111 110
f 89 91 90
f 89 112 114
f 89 114 115
f 89 115 116
f 89 116 91
f 91 116 117
f 91 117 93
f 91 93 92
f 93 118 119
f 93 119 120
f 93 120 121
f 93 121 94
f 93 117 122
f 93 122 123
f 93 123 118
f 94 121 95
f 95 121 120
f 95 120 119
f 95 119 118
f 97 124 98
f 98 101 100
f 98 100 99
f 98 124 125
f 98 125 101
f 101 125 102
f 102 125 126
f 102 126 103
f 103 126 127
f 103 127 128
f 103 128 129
f 103 129 130
f 103 130 131
f 103 131 132
f 103 132 104
f 104 132 133
f 104 133 134
f 104 134 105
f 105 134 106
f 106 134 135
f 106 135 107
f 111 136 137
f 111 137 112
f 112 138 114
f 112 137 139
f 112 139 138
f 114 138 140
f 114 140 115
f 115 140 172
f 115 172 141
f 115 141 142
f 115 142 116
f 116 142 143
f 116 143 144
f 116 144 145
f 116 145 122
f 116 122 117
f 122 145 146
f 122 146 147
f 122 147 123
f 123 147 148
f 123 148 149
f 123 149 150
f 123 150 151
f 124 152 125
f 125 152 153
f 125 153 154
f 125 154 155
f 125 155 156
f 125 156 126
f 126 156 157
f 126 157 127
f 127 157 158
f 127 158 159
f 127 159 129
f 127 129 128
f 129 159 160
f 129 160 161
f 129 161 162
f 129 162 130
f 130 162 131
f 131 162 163
f 131 163 164
f 131 164 165
f 131 165 132
f 132 165 166
f 132 166 194
f 132 194 167
f 132 167 168
f 132 168 133
f 133 168 169
f 133 169 135
f 133 135 134
f 138 139 170
f 138 170 171
f 138 171 140
f 140 171 195
f 140 195 172
f 141 172 173
f 141 173 174
f 141 174 142
f 142 174 175
f 142 175 176
f 142 176 177
f 142 177 143
f 143 177 178
f 143 178 144
f 144 179 145
f 144 178 179
f 145 179 146
f 146 179 180
f 146 180 181
f 146 181 182
f 146 182 147
f 147 182 183
f 147 183 148
f 148 183 149
f 149 183 150
f 150 183 184
f 150 184 151
f 151 184 185
f 152 186 153
f 153 186 154
f 154 186 187
f 154 187 155
f 155 187 188
f 155 188 156
f 156 188 157
f 157 187 160
f 157 160 158
f 157 188 187
f 158 160 159
f 160 187 161
f 161 189 190
f 161 190 191
f 161 191 192
f 161 192 162
f 161 187 189
f 162 192 163
f 163 192 221
f 163 221 193
f 163 193 164
f 164 194 166
f 164 166 165
f 164 193 194
f 172 195 173
f 173 175 174
f 173 195 196
f 173 196 176
f 173 176 175
f 176 196 197
f 176 197 177
f 177 197 198
f 177 198 178
f 178 180 179
f 178 198 199
f 178 199 181
f 178 181 180
f 181 199 184
f 181 184 183
f 181 183 182
f 184 199 200
f 184 200 201
f 184 201 202
f 184 202 203
f 184 203 204
f 184 204 205
f 184 205 185
f 185 205 206
f 185 206 207
f 186 208 187
f 187 208 209
f 187 209 210
f 187 210 189
f 189 210 211
f 189 211 212
f 189 212 213
f 189 213 214
f 189 214 190
f 190 214 213
f 190 213 215
f 190 215 216
f 190 216 217
f 190 217 218
f 190 218 191
f 191 219 192
f 191 218 220
f 191 220 219
f 192 219 221
f 196 222 198
f 196 198 197
f 198 222 248
f 198 248 223
f 198 223 199
f 199 223 224
f 199 224 225
f 199 225 226
f 199 226 200
f 200 226 227
f 200 227 228
f 200 228 201
f 201 228 229
f 201 229 230
f 201 230 202
f 202 230 203
f 203 230 204
f 204 231 232
f 204 232 233
f 204 233 234
f 204 234 235
f 204 235 236
f 204 236 207
f 204 207 206
f 204 206 205
f 204 230 231
f 208 237 209
f 209 237 238
f 209 238 210
f 210 238 239
f 210 239 211
f 211 239 240
f 211 240 212
f 212 240 241
f 212 241 242
f 212 242 213
f 213 242 215
f 215 242 243
f 215 243 216
f 216 243 244
f 216 244 217
f 217 244 245
f 217 245 246
f 217 246 218
f 218 247 220
f 218 246 271
f 218 271 247
f 223 248 272
f 223 272 249
f 223 249 224
f 224 249 250
f 224 250 251
f 224 251 225
f 225 251 252
f 225 252 226
f 226 252 253
f 226 253 254
f 226 254 227
f 227 254 229
f 227 229 228
f 229 254 253
f 229 253 231
f 229 231 230
f 231 253 232
f 232 253 255
f 232 255 233
f 233 255 256
f 233 256 257
f 233 257 234
f 234 257 258
f 234 258 235
f 235 258 259
f 235 259 260
f 235 260 236
f 237 241 240
f 237 240 239
f 237 239 238
f 237 261 262
f 237 262 241
f 241 262 263
f 241 263 243
f 241 243 242
f 243 264 244
f 243 263 265
f 243 265 266
f 243 266 264
f 244 264 267
f 244 267 245
f 245 268 269
f 245 269 305
f 245 305 270
f 245 270 246
f 245 267 268
f 246 270 305
f 246 305 271
f 249 272 273
f 249 273 250
f 250 273 274
f 250 274 275
f 250 275 276
f 250 276 251
f 251 276 277
f 251 277 253
f 251 253 252
f 253 277 278
f 253 278 279
f 253 279 255
f 255 279 280
f 255 280 281
f 255 281 256
f 256 281 282
f 256 282 257
f 257 259 258
f 257 282 283
f 257 283 259
f 259 283 284
f 259 284 285
f 259 285 286
f 259 286 287
f 259 287 288
f 259 288 289
f 259 289 290
f 259 290 260
f 261 291 292
f 261 292 262
f 262 292 293
f 262 293 294
f 262 294 295
f 262 295 296
f 262 296 297
f 262 297 265
f 262 265 263
f 264 298 268
f 264 268 267
f 264 266 299
f 264 299 300
f 264 300 298
f 265 297 296
f 265 296 301
f 265 301 266
f 266 301 302
f 266 302 303
f 266 303 304
f 266 304 299
f 274 306 276
f 274 276 275
f 276 306 307
f 276 307 277
f 277 307 336
f 277 336 308
f 277 308 278
f 278 308 309
f 278 309 279
f 279 309 310
f 279 310 311
f 279 311 280
f 280 311 281
f 281 283 282
f 281 311 312
f 281 312 283
f 283 312 313
f 283 313 314
f 283 314 315
f 283 315 316
f 283 316 284
f 284 316 285
f 285 316 317
f 285 317 286
f 286 317 318
f 286 318 287
f 287 318 288
f 288 318 319
f 288 319 320
f 288 320 289
f 289 320 321
f 289 321 322
f 291 295 294
f 291 294 293
f 291 293 292
f 291 323 324
f 291 324 295
f 295 324 325
f 295 325 326
f 295 326 296
f 296 302 301
f 296 326 327
f 296 327 328
f 296 328 329
f 296 329 302
f 299 304 334
f 299 334 330
f 299 330 300
f 302 329 331
f 302 331 332
f 302 332 303
f 303 332 333
f 303 333 304
f 304 333 335
f 304 335 334
f 308 336 361
f 308 361 337
f 308 337 309
f 309 337 338
f 309 338 339
f 309 339 310
f 310 339 311
f 311 339 340
f 311 340 312
f 312 340 341
f 312 341 342
f 312 342 343
f 312 343 344
f 312 344 313
f 313 344 314
f 314 344 315
f 315 344 316
f 316 344 318
f 316 318 317
f 318 344 345
f 318 345 321
f 318 321 319
f 319 321 320
f 321 345 344
f 321 344 365
f 321 365 384
f 321 384 391
f 321 391 395
f 321 395 392
f 321 392 385
f 321 385 366
f 321 366 346
f 321 346 322
f 323 347 348
f 323 348 324
f 324 348 349
f 324 349 325
f 325 349 350
f 325 350 351
f 325 351 326
f 326 351 327
f 327 351 328
f 328 351 352
f 328 352 353
f 328 353 354
f 328 354 329
f 329 354 355
f 329 355 356
f 329 356 357
f 329 357 358
f 329 358 331
f 331 358 381
f 331 381 359
f 331 359 332
f 332 359 333
f 333 359 360
f 333 360 335
f 337 361 362
f 337 362 338
f 338 362 383
f 338 383 363
f 338 363 341
f 338 341 340
f 338 340 339
f 341 363 342
f 342 363 383
f 342 383 364
f 342 364 384
f 342 384 365
f 342 365 343
f 343 365 344
f 346 366 367
f 346 367 347
f 347 367 348
f 348 367 368
f 348 368 369
f 348 369 349
f 349 369 350
f 350 369 370
f 350 370 351
f 351 370 352
f 352 370 353
f 353 368 371
f 353 371 367
f 353 367 372
f 353 372 373
f 353 373 374
f 353 374 354
f 353 370 369
f 353 369 368
f 354 375 355
f 354 374 375
f 355 376 378
f 355 378 356
f 355 375 377
f 355 377 390
f 355 390 376
f 356 378 379
f 356 379 357
f 357 379 380
f 357 380 381
f 357 381 358
f 359 382 360
f 359 381 380
f 359 380 382
f 366 385 386
f 366 386 372
f 366 372 367
f 367 371 368
f 372 386 373
f 373 387 389
f 373 389 374
f 373 386 388
f 373 388 393
f 373 393 387
f 374 389 390
f 374 390 377
f 374 377 375
f 385 392 386
f 386 392 388
f 388 394 393
f 388 392 395
f 388 395 394
f 391 394 395

