# https://github.com/mikedh/trimesh
v 0.07310453 -0.00787383 -0.01405257
v 0.07288064 -0.00920594 -0.01405257
v 0.07305400 -0.00787383 -0.01412581
v 0.07199899 -0.00787383 -0.01405257
v 0.07285537 -0.00801311 -0.01437784
v 0.07255655 -0.01112218 -0.01405257
v 0.07286670 -0.00787383 -0.01439436
v 0.07062163 -0.01624334 -0.01405257
v 0.06420529 -0.00787383 -0.02037070
v 0.06468880 -0.01624334 -0.01853608
v 0.07218891 -0.00801311 -0.01531059
v 0.07206868 -0.01267549 -0.01436492
v 0.07205649 -0.00956805 -0.01512533
v 0.07120620 -0.00847517 -0.01657652
v 0.07245288 -0.01172925 -0.01405257
v 0.07219239 -0.00787383 -0.01533788
v 0.07168187 -0.01624334 -0.01405257
v 0.06420529 -0.00787383 -0.02138818
v 0.06420529 -0.01624334 -0.01893101
v 0.07176028 -0.01578456 -0.01405257
v 0.07137521 -0.01624334 -0.01448268
v 0.07026008 -0.01500709 -0.01634028
v 0.07042300 -0.01309986 -0.01656790
v 0.07124540 -0.00801311 -0.01662606
v 0.07045872 -0.01267549 -0.01661386
v 0.07125760 -0.00787383 -0.01663970
v 0.06420529 -0.00927476 -0.02123739
v 0.06433422 -0.00787383 -0.02130847
v 0.06420529 -0.01624334 -0.02046261
v 0.07043171 -0.01624334 -0.01580389
v 0.07019300 -0.01578456 -0.01624693
v 0.06976525 -0.01624334 -0.01671079
v 0.07052493 -0.01189965 -0.01669284
v 0.07118268 -0.00787383 -0.01670936
v 0.07059114 -0.01112218 -0.01676105
v 0.07017645 -0.01112218 -0.01714952
v 0.07024266 -0.01034471 -0.01720696
v 0.06531344 -0.00801311 -0.02066151
v 0.06972169 -0.01189965 -0.01739007
v 0.06420529 -0.01395598 -0.02072183
v 0.06670474 -0.00787383 -0.01977902
v 0.06420529 -0.01622614 -0.02046692
v 0.06421574 -0.01624334 -0.02045758
v 0.07017296 -0.01624334 -0.01616005
v 0.06980445 -0.01578456 -0.01675172
v 0.06959536 -0.01624334 -0.01687020
v 0.07078541 -0.00787383 -0.01707843
v 0.06938976 -0.01578456 -0.01714019
v 0.06945597 -0.01500709 -0.01720122
v 0.07041080 -0.00837112 -0.01732975
v 0.06998653 -0.00879058 -0.01756096
v 0.07042125 -0.00787383 -0.01738073
v 0.06967203 -0.01247805 -0.01735776
v 0.06900121 -0.01578456 -0.01742669
v 0.06464959 -0.01578456 -0.02023355
v 0.06426104 -0.01578456 -0.02048415
v 0.06420529 -0.01578456 -0.02051790
v 0.06421835 -0.01624089 -0.02045686
v 0.06422010 -0.01624334 -0.02045543
v 0.06935056 -0.01624334 -0.01709926
v 0.07048398 -0.00787383 -0.01733406
v 0.06896200 -0.01624334 -0.01740084
v 0.06733636 -0.01624334 -0.01844991
v 0.06496410 -0.01624334 -0.01997721
v 0.06659236 -0.01624334 -0.01892957
f 1 2 3
f 1 3 7
f 1 7 16
f 1 16 26
f 1 26 34
f 1 34 47
f 1 47 61
f 1 61 52
f 1 52 41
f 1 41 28
f 1 28 18
f 1 18 9
f 1 9 4
f 1 4 8
f 1 8 17
f 1 17 20
f 1 20 15
f 1 15 6
f 1 6 2
f 2 5 3
f 2 6 5
f 3 5 7
f 4 9 10
f 4 10 8
f 5 11 7
f 5 6 12
f 5 12 13
f 5 13 14
f 5 14 11
f 6 15 12
f 7 11 16
f 8 10 19
f 8 19 29
f 8 29 43
f 8 43 59
f 8 59 64
f 8 64 65
f 8 65 63
f 8 63 62
f 8 62 60
f 8 60 46
f 8 46 32
f 8 32 44
f 8 44 30
f 8 30 21
f 8 21 17
f 9 18 27
f 9 27 40
f 9 40 57
f 9 57 42
f 9 42 29
f 9 29 19
f 9 19 10
f 11 14 16
f 12 15 20
f 12 20 21
f 12 21 22
f 12 22 13
f 13 22 23
f 13 23 14
f 14 24 16
f 14 23 25
f 14 25 24
f 16 24 26
f 17 21 20
f 18 28 27
f 21 30 22
f 22 30 31
f 22 31 32
f 22 32 23
f 23 32 25
f 24 25 33
f 24 33 26
f 25 32 33
f 26 33 35
f 26 35 36
f 26 36 37
f 26 37 34
f 27 28 38
f 27 38 39
f 27 39 40
f 28 41 38
f 29 42 43
f 30 44 31
f 31 44 32
f 32 45 33
f 32 46 45
f 33 45 35
f 34 37 47
f 35 45 48
f 35 48 36
f 36 48 49
f 36 49 37
f 37 49 50
f 37 50 47
f 38 41 51
f 38 51 39
f 39 51 52
f 39 52 53
f 39 53 54
f 39 54 40
f 40 55 56
f 40 56 57
f 40 54 55
f 41 52 51
f 42 57 56
f 42 56 58
f 42 58 59
f 42 59 43
f 45 46 48
f 46 60 48
f 47 50 61
f 48 60 62
f 48 62 49
f 49 62 53
f 49 53 50
f 50 52 61
f 50 53 52
f 53 62 54
f 54 62 63
f 54 63 55
f 55 63 56
f 56 64 58
f 56 63 65
f 56 65 64
f 58 64 59

