# https://github.com/mikedh/trimesh
v 0.05082010 -0.00794856 -0.01960157
v 0.05082010 -0.00801346 -0.01959555
v 0.05082010 -0.00794856 -0.02055933
v 0.04377450 -0.00794856 -0.02153682
v 0.05082010 -0.00814235 -0.01958385
v 0.05082010 -0.00797966 -0.02055699
v 0.04959652 -0.00794856 -0.02117022
v 0.04377450 -0.00794856 -0.02236960
v 0.04377450 -0.00801346 -0.02153615
v 0.05082010 -0.01255260 -0.01922996
v 0.05082010 -0.01189868 -0.01927039
v 0.05082010 -0.01166749 -0.01928777
v 0.05082010 -0.01112173 -0.01932887
v 0.05082010 -0.01204560 -0.02020543
v 0.04869642 -0.01255260 -0.02124340
v 0.04893851 -0.00956782 -0.02135736
v 0.04932476 -0.00794856 -0.02129721
v 0.04377450 -0.01255260 -0.02264363
v 0.04438216 -0.00794856 -0.02234955
v 0.04377450 -0.01255260 -0.02151810
v 0.05082010 -0.01255260 -0.02015998
v 0.05024279 -0.01247554 -0.02046142
v 0.04826741 -0.01255260 -0.02142486
v 0.04900473 -0.00879041 -0.02138042
v 0.04910819 -0.00794856 -0.02138576
v 0.04501326 -0.01255260 -0.02243276
v 0.04515948 -0.00794856 -0.02220886
v 0.04826741 -0.01034432 -0.02153782
v 0.04517948 -0.01255260 -0.02240134
v 0.04826741 -0.00794856 -0.02161902
v 0.04595543 -0.00794856 -0.02206415
v 0.04604165 -0.00794856 -0.02204845
f 1 2 5
f 1 5 13
f 1 13 12
f 1 12 11
f 1 11 10
f 1 10 21
f 1 21 14
f 1 14 6
f 1 6 3
f 1 3 7
f 1 7 17
f 1 17 25
f 1 25 30
f 1 30 32
f 1 32 31
f 1 31 27
f 1 27 19
f 1 19 8
f 1 8 4
f 1 4 2
f 2 4 5
f 3 6 7
f 4 8 18
f 4 18 20
f 4 20 9
f 4 9 10
f 4 10 11
f 4 11 12
f 4 12 13
f 4 13 5
f 6 14 15
f 6 15 7
f 7 15 16
f 7 16 17
f 8 19 18
f 9 20 10
f 10 20 18
f 10 18 26
f 10 26 29
f 10 29 23
f 10 23 15
f 10 15 21
f 14 21 22
f 14 22 15
f 15 23 16
f 15 22 21
f 16 24 17
f 16 23 24
f 17 24 25
f 18 19 26
f 19 27 26
f 23 28 24
f 23 29 28
f 24 28 29
f 24 29 25
f 25 29 30
f 26 27 31
f 26 31 32
f 26 32 29
f 29 32 30

