# https://github.com/mikedh/trimesh
v 0.05511317 -0.00395053 0.04066775
v 0.05511317 -0.00661798 0.04751645
v 0.05511317 -0.00313873 0.04066775
v 0.07055214 -0.00661798 0.04066775
v 0.05511317 -0.00661798 0.04837168
v 0.05511317 -0.00308020 0.04755642
v 0.05681825 -0.00334757 0.04066775
v 0.07244554 -0.00661798 0.04066775
v 0.05526247 -0.00661798 0.04837168
v 0.05511317 -0.00412751 0.04837168
v 0.05511317 -0.00339225 0.04815524
v 0.05603951 -0.00348783 0.04815297
v 0.05681825 -0.00356437 0.04810245
v 0.05681825 -0.00336281 0.04755642
v 0.05759529 -0.00346186 0.04677886
v 0.05681825 -0.00334168 0.04677886
v 0.05759529 -0.00346151 0.04211652
v 0.05759529 -0.00346186 0.04066775
v 0.07244045 -0.00645867 0.04066775
v 0.07207738 -0.00645867 0.04105238
v 0.07207568 -0.00661798 0.04104936
v 0.05526247 -0.00412751 0.04837168
v 0.05588173 -0.00661798 0.04832417
v 0.05603951 -0.00412751 0.04835434
v 0.05681825 -0.00412751 0.04824951
v 0.05759529 -0.00367243 0.04800365
v 0.05799568 -0.00373477 0.04794859
v 0.05891184 -0.00371295 0.04724042
v 0.05898819 -0.00369979 0.04677886
v 0.05837232 -0.00359450 0.04677886
v 0.05759529 -0.00346151 0.04289408
v 0.05837232 -0.00359450 0.04066775
v 0.06758990 -0.00516858 0.04066775
v 0.06351978 -0.00447349 0.04066775
v 0.07221480 -0.00602160 0.04066775
v 0.07202818 -0.00603268 0.04100863
v 0.07127319 -0.00600636 0.04180505
v 0.07168546 -0.00645867 0.04144078
v 0.07129695 -0.00645867 0.04182466
v 0.07128677 -0.00661798 0.04181485
v 0.05603951 -0.00661798 0.04830833
v 0.05603951 -0.00645867 0.04831135
v 0.05681825 -0.00490433 0.04822462
v 0.05759529 -0.00490433 0.04805946
v 0.06070344 -0.00490433 0.04739729
v 0.06142279 -0.00490433 0.04724117
v 0.06510439 -0.00523508 0.04641761
v 0.06674669 -0.00519109 0.04575317
v 0.06351978 -0.00449635 0.04642213
v 0.06358255 -0.00448665 0.04600206
v 0.06303455 -0.00439072 0.04600206
v 0.06691805 -0.00505395 0.04444845
v 0.06769678 -0.00518694 0.04367089
v 0.06813281 -0.00526140 0.04066775
v 0.07214354 -0.00600151 0.04066775
v 0.06813281 -0.00527975 0.04413244
v 0.06747114 -0.00523542 0.04502841
v 0.07048767 -0.00599701 0.04257205
v 0.07088128 -0.00645867 0.04221381
v 0.06968519 -0.00600324 0.04332472
v 0.07049276 -0.00645867 0.04257582
v 0.07047919 -0.00661798 0.04256375
v 0.05665877 -0.00661798 0.04819446
v 0.05681825 -0.00568150 0.04819672
v 0.05801095 -0.00545673 0.04795086
v 0.05681825 -0.00661798 0.04816278
v 0.05992640 -0.00661798 0.04750061
v 0.06460220 -0.00661798 0.04650434
v 0.06513663 -0.00568150 0.04642439
v 0.06614101 -0.00568150 0.04614384
v 0.06685697 -0.00568150 0.04583538
v 0.06724549 -0.00568150 0.04553296
v 0.06697064 -0.00513637 0.04526220
v 0.06614101 -0.00492338 0.04522450
v 0.06817861 -0.00527283 0.04367089
v 0.07080493 -0.00572098 0.04066775
v 0.06820067 -0.00527317 0.04289408
v 0.07147678 -0.00584428 0.04066775
v 0.06888100 -0.00602402 0.04407663
v 0.06888100 -0.00617918 0.04407663
v 0.06989726 -0.00661798 0.04309092
v 0.06499242 -0.00661798 0.04642062
v 0.06506876 -0.00645867 0.04641007
v 0.06505519 -0.00661798 0.04640705
v 0.06614101 -0.00645867 0.04610311
v 0.06682813 -0.00645867 0.04583538
v 0.06721665 -0.00645867 0.04552768
v 0.06720307 -0.00661798 0.04551636
v 0.06754578 -0.00661798 0.04520791
v 0.06614101 -0.00661798 0.04609105
v 0.06681456 -0.00661798 0.04582935
v 0.06712333 -0.00661798 0.04558424
f 1 2 5
f 1 5 10
f 1 10 11
f 1 11 6
f 1 6 3
f 1 3 7
f 1 7 18
f 1 18 32
f 1 32 34
f 1 34 33
f 1 33 54
f 1 54 76
f 1 76 78
f 1 78 55
f 1 55 35
f 1 35 19
f 1 19 8
f 1 8 4
f 1 4 2
f 2 4 8
f 2 8 21
f 2 21 40
f 2 40 62
f 2 62 81
f 2 81 89
f 2 89 88
f 2 88 92
f 2 92 91
f 2 91 90
f 2 90 84
f 2 84 82
f 2 82 68
f 2 68 67
f 2 67 66
f 2 66 63
f 2 63 41
f 2 41 23
f 2 23 9
f 2 9 5
f 3 6 7
f 5 9 22
f 5 22 10
f 6 11 12
f 6 12 13
f 6 13 14
f 6 14 15
f 6 15 16
f 6 16 17
f 6 17 18
f 6 18 7
f 8 19 20
f 8 20 21
f 9 23 24
f 9 24 22
f 10 22 11
f 11 22 24
f 11 24 12
f 12 24 13
f 13 24 25
f 13 25 26
f 13 26 14
f 14 26 27
f 14 27 28
f 14 28 29
f 14 29 30
f 14 30 15
f 15 30 31
f 15 31 16
f 16 31 17
f 17 32 18
f 17 31 33
f 17 33 34
f 17 34 32
f 19 35 36
f 19 36 37
f 19 37 20
f 20 38 21
f 20 37 38
f 21 38 39
f 21 39 40
f 23 41 42
f 23 42 24
f 24 42 25
f 25 42 41
f 25 41 43
f 25 43 44
f 25 44 45
f 25 45 46
f 25 46 47
f 25 47 27
f 25 27 26
f 27 47 48
f 27 48 49
f 27 49 28
f 28 49 29
f 29 49 50
f 29 50 51
f 29 51 30
f 30 51 31
f 31 51 52
f 31 52 33
f 33 52 53
f 33 53 54
f 35 55 56
f 35 56 57
f 35 57 36
f 36 57 37
f 37 58 39
f 37 39 38
f 37 57 48
f 37 48 58
f 39 59 40
f 39 58 60
f 39 60 59
f 40 59 61
f 40 61 62
f 41 63 43
f 43 63 64
f 43 64 44
f 44 65 45
f 44 64 66
f 44 66 65
f 45 65 67
f 45 67 68
f 45 68 69
f 45 69 46
f 46 69 47
f 47 69 70
f 47 70 48
f 48 70 71
f 48 71 72
f 48 72 58
f 48 57 73
f 48 73 49
f 49 73 74
f 49 74 50
f 50 74 51
f 51 74 52
f 52 74 75
f 52 75 53
f 53 75 76
f 53 76 77
f 53 77 54
f 54 77 76
f 55 78 56
f 56 75 74
f 56 74 73
f 56 73 57
f 56 78 75
f 58 72 60
f 59 60 79
f 59 79 61
f 60 72 79
f 61 80 81
f 61 81 62
f 61 79 80
f 63 66 64
f 65 66 67
f 68 82 69
f 69 82 83
f 69 83 84
f 69 84 70
f 70 84 85
f 70 85 86
f 70 86 71
f 71 86 72
f 72 86 87
f 72 87 80
f 72 80 79
f 75 78 76
f 80 87 88
f 80 88 89
f 80 89 81
f 82 84 83
f 84 90 85
f 85 90 91
f 85 91 86
f 86 91 87
f 87 91 92
f 87 92 88

