# https://github.com/mikedh/trimesh
v 0.06420441 -0.01718046 -0.01101643
v 0.06420441 -0.01718046 -0.01033663
v 0.06420441 -0.01634478 -0.01101643
v 0.07221362 -0.01854811 -0.01101643
v 0.07235916 -0.01857301 -0.01072980
v 0.07391313 -0.01883861 -0.00684522
v 0.07342361 -0.01875509 -0.00500417
v 0.06420441 -0.01715504 -0.00996760
v 0.07235916 -0.01857327 -0.00500417
v 0.06847423 -0.01790929 -0.00500417
v 0.06803642 -0.01783122 -0.00500417
v 0.06781632 -0.01778505 -0.00500417
v 0.06420441 -0.01634478 -0.00910181
v 0.06449308 -0.01634478 -0.01101643
v 0.07233510 -0.01855901 -0.01101643
v 0.07313614 -0.01870010 -0.00995288
v 0.07391313 -0.01883290 -0.00839847
v 0.07391313 -0.01883835 -0.00762273
v 0.07391313 -0.01883861 -0.00500417
v 0.07469012 -0.01894650 -0.00529139
v 0.06420441 -0.01710369 -0.00954736
v 0.06742542 -0.01756095 -0.00500417
v 0.06739174 -0.01766859 -0.00529139
v 0.06420441 -0.01656213 -0.00907768
v 0.06719449 -0.01656213 -0.00500417
v 0.06723177 -0.01634478 -0.00500417
v 0.06738212 -0.01634478 -0.00727959
v 0.07370265 -0.01705985 -0.01101643
v 0.07285831 -0.01858287 -0.01101643
v 0.07313614 -0.01860751 -0.01075217
v 0.07391313 -0.01876131 -0.00917538
v 0.07301707 -0.01858079 -0.01101643
v 0.07469012 -0.01890864 -0.00684522
v 0.07469012 -0.01894521 -0.00606831
v 0.07497758 -0.01898230 -0.00500417
v 0.06420441 -0.01705882 -0.00933783
v 0.06721854 -0.01720458 -0.00500417
v 0.06420441 -0.01678337 -0.00916125
v 0.06836959 -0.01634478 -0.00500417
v 0.06765875 -0.01634478 -0.00689407
v 0.07422825 -0.01705985 -0.01025364
v 0.07360883 -0.01762191 -0.01101643
v 0.07364251 -0.01858624 -0.01050791
v 0.07390712 -0.01862981 -0.00991051
v 0.07442791 -0.01862774 -0.00917538
v 0.07546710 -0.01896544 -0.00529139
v 0.07344044 -0.01814428 -0.01101643
v 0.07546710 -0.01899423 -0.00500417
v 0.06830945 -0.01634478 -0.00526079
v 0.07649186 -0.01705985 -0.00500417
v 0.07598429 -0.01705985 -0.00632728
v 0.07517483 -0.01705985 -0.00828134
v 0.07445919 -0.01705985 -0.00988696
v 0.07420540 -0.01733919 -0.01021480
v 0.07357395 -0.01780995 -0.01101643
v 0.07345488 -0.01811600 -0.01101643
v 0.07374955 -0.01811600 -0.01065976
v 0.07433289 -0.01854241 -0.00962270
v 0.07601075 -0.01872370 -0.00529139
v 0.07573652 -0.01889618 -0.00500417
v 0.07632708 -0.01811600 -0.00500417
v 0.07601316 -0.01736980 -0.00612658
v 0.07596384 -0.01811600 -0.00593941
v 0.07523737 -0.01814791 -0.00768158
v 0.07510988 -0.01791032 -0.00808535
v 0.07461675 -0.01811600 -0.00917538
v 0.07438221 -0.01811600 -0.00971216
v 0.07444956 -0.01733919 -0.00982634
v 0.07413684 -0.01811600 -0.01010062
v 0.07505816 -0.01842828 -0.00797940
v 0.07590611 -0.01859558 -0.00579933
v 0.07609495 -0.01873641 -0.00500417
f 1 2 8
f 1 8 21
f 1 21 36
f 1 36 38
f 1 38 24
f 1 24 13
f 1 13 3
f 1 3 14
f 1 14 28
f 1 28 42
f 1 42 55
f 1 55 56
f 1 56 47
f 1 47 32
f 1 32 29
f 1 29 15
f 1 15 4
f 1 4 5
f 1 5 6
f 1 6 7
f 1 7 2
f 2 7 9
f 2 9 10
f 2 10 11
f 2 11 12
f 2 12 8
f 3 13 26
f 3 26 39
f 3 39 49
f 3 49 40
f 3 40 27
f 3 27 14
f 4 15 16
f 4 16 5
f 5 16 17
f 5 17 18
f 5 18 6
f 6 19 7
f 6 18 20
f 6 20 19
f 7 19 35
f 7 35 48
f 7 48 60
f 7 60 72
f 7 72 61
f 7 61 50
f 7 50 39
f 7 39 26
f 7 26 25
f 7 25 37
f 7 37 22
f 7 22 12
f 7 12 11
f 7 11 10
f 7 10 9
f 8 12 21
f 12 22 23
f 12 23 21
f 13 24 25
f 13 25 26
f 14 27 28
f 15 29 16
f 16 30 31
f 16 31 17
f 16 29 32
f 16 32 30
f 17 31 33
f 17 33 34
f 17 34 18
f 18 34 20
f 19 20 35
f 20 34 35
f 21 23 36
f 22 37 36
f 22 36 23
f 24 38 37
f 24 37 25
f 27 40 28
f 28 41 42
f 28 40 41
f 30 32 31
f 31 32 43
f 31 43 44
f 31 44 45
f 31 45 46
f 31 46 33
f 32 47 43
f 33 46 48
f 33 48 34
f 34 48 35
f 36 37 38
f 39 50 49
f 40 49 51
f 40 51 52
f 40 52 53
f 40 53 41
f 41 54 42
f 41 53 54
f 42 54 55
f 43 47 56
f 43 56 57
f 43 57 58
f 43 58 45
f 43 45 44
f 45 58 59
f 45 59 46
f 46 59 60
f 46 60 48
f 49 50 51
f 50 61 62
f 50 62 51
f 51 62 63
f 51 63 64
f 51 64 52
f 52 64 65
f 52 65 66
f 52 66 67
f 52 67 68
f 52 68 53
f 53 68 54
f 54 68 67
f 54 67 69
f 54 69 55
f 55 69 57
f 55 57 56
f 57 69 58
f 58 69 67
f 58 67 66
f 58 66 70
f 58 70 71
f 58 71 59
f 59 71 72
f 59 72 60
f 61 72 71
f 61 71 63
f 61 63 62
f 63 71 70
f 63 70 64
f 64 70 66
f 64 66 65

