# https://github.com/mikedh/trimesh
v 0.06420441 -0.00629730 -0.01081444
v 0.06420441 -0.00629730 -0.01211542
v 0.06420441 -0.00568138 -0.01092291
v 0.05833046 -0.00490471 -0.01612338
v 0.05833046 -0.00629730 -0.01598105
v 0.06386345 -0.00629730 -0.01251062
v 0.06420441 -0.00545777 -0.01787276
v 0.06420441 -0.00521373 -0.01105073
v 0.06415957 -0.00522434 -0.01107836
v 0.05833046 -0.00412751 -0.01628298
v 0.05833046 -0.00629730 -0.01691240
v 0.06356504 -0.00629730 -0.01281669
v 0.06042567 -0.00629730 -0.01586360
v 0.05892383 -0.00629730 -0.01664087
v 0.05833678 -0.00629730 -0.01690964
v 0.05847247 -0.00465829 -0.01787276
v 0.06420441 -0.00469516 -0.01787276
v 0.06278997 -0.00629730 -0.01359673
v 0.06121396 -0.00629730 -0.01512985
v 0.06081435 -0.00629730 -0.01551814
v 0.06420441 -0.00495060 -0.01153851
v 0.06332585 -0.00449648 -0.01260389
v 0.05833046 -0.00369620 -0.01649233
v 0.05833046 -0.00458959 -0.01787276
v 0.06359379 -0.00448667 -0.01787276
v 0.06420441 -0.00467526 -0.01306265
v 0.06420441 -0.00470497 -0.01230266
v 0.06353687 -0.00449648 -0.01260389
v 0.05837128 -0.00369514 -0.01648956
v 0.05833046 -0.00362220 -0.01694625
v 0.05833046 -0.00358798 -0.01787276
v 0.06303376 -0.00439091 -0.01787276
v 0.06359436 -0.00448667 -0.01617036
v 0.06359436 -0.00448667 -0.01461582
v 0.06359379 -0.00448667 -0.01306265
v 0.05898765 -0.00369992 -0.01694764
v 0.05891176 -0.00371292 -0.01650200
v 0.05837128 -0.00362299 -0.01694764
v 0.05833046 -0.00358771 -0.01772491
v 0.05836323 -0.00359328 -0.01787276
v 0.05898765 -0.00369992 -0.01787276
v 0.06303376 -0.00439091 -0.01383924
f 1 2 7
f 1 7 17
f 1 17 26
f 1 26 27
f 1 27 21
f 1 21 8
f 1 8 3
f 1 3 4
f 1 4 5
f 1 5 11
f 1 11 15
f 1 15 14
f 1 14 13
f 1 13 20
f 1 20 19
f 1 19 18
f 1 18 12
f 1 12 6
f 1 6 2
f 2 6 7
f 3 8 9
f 3 9 10
f 3 10 4
f 4 10 23
f 4 23 30
f 4 30 39
f 4 39 31
f 4 31 24
f 4 24 11
f 4 11 5
f 6 12 7
f 7 13 14
f 7 14 15
f 7 15 11
f 7 11 16
f 7 16 24
f 7 24 31
f 7 31 40
f 7 40 41
f 7 41 32
f 7 32 25
f 7 25 17
f 7 12 18
f 7 18 19
f 7 19 20
f 7 20 13
f 8 21 22
f 8 22 23
f 8 23 9
f 9 23 10
f 11 24 16
f 17 25 26
f 21 27 28
f 21 28 22
f 22 28 29
f 22 29 23
f 23 29 30
f 25 32 33
f 25 33 26
f 26 34 35
f 26 35 27
f 26 33 34
f 27 35 28
f 28 35 36
f 28 36 37
f 28 37 29
f 29 37 38
f 29 38 30
f 30 38 39
f 31 39 40
f 32 41 36
f 32 36 42
f 32 42 34
f 32 34 33
f 34 42 35
f 35 42 36
f 36 41 40
f 36 40 39
f 36 39 38
f 36 38 37

