# https://github.com/mikedh/trimesh
v 0.07781258 -0.08054679 0.01932801
v 0.07415923 -0.09195112 0.01208354
v 0.07425141 -0.08054679 0.00415116
v 0.07325280 -0.08054679 0.02424222
v 0.05456506 -0.09797521 0.01138274
v 0.04927706 -0.11058200 -0.00950800
v 0.06540837 -0.09210694 -0.00395749
v 0.06963017 -0.08054679 -0.00438313
v 0.06260306 -0.08054679 0.03015818
v 0.05669439 -0.08054679 0.03219609
v 0.04642566 -0.08797034 0.02015780
v 0.04642566 -0.10927663 -0.00857504
v 0.04642566 -0.10977938 -0.00970578
v 0.04642566 -0.11015570 -0.01055706
v 0.04642566 -0.10897381 -0.01172649
v 0.04642566 -0.08054679 -0.00729382
v 0.04642566 -0.08054679 0.02871359
v 0.04642566 -0.08059972 0.02865339
f 1 2 3
f 1 3 8
f 1 8 16
f 1 16 17
f 1 17 10
f 1 10 9
f 1 9 4
f 1 4 2
f 2 5 6
f 2 6 7
f 2 7 8
f 2 8 3
f 2 4 9
f 2 9 10
f 2 10 5
f 5 10 11
f 5 11 12
f 5 12 6
f 6 12 13
f 6 13 14
f 6 14 15
f 6 15 8
f 6 8 7
f 8 15 16
f 10 17 18
f 10 18 11
f 11 18 17
f 11 17 16
f 11 16 15
f 11 15 14
f 11 14 13
f 11 13 12

