# https://github.com/mikedh/trimesh
v 0.04642476 -0.08054969 0.00322539
v 0.04642476 -0.08054969 -0.00729584
v 0.03724589 -0.08054969 0.00322539
v 0.04642476 -0.09414902 0.00322539
v 0.03724589 -0.08054969 -0.01474396
v 0.04642476 -0.10897437 -0.01172492
v 0.03724589 -0.10379782 -0.01886810
v 0.03724589 -0.08461325 0.00322539
v 0.03724589 -0.10508181 -0.00557005
v 0.04642476 -0.10927871 -0.00857395
v 0.04642476 -0.11015692 -0.01055925
v 0.03724589 -0.10680057 -0.01590529
v 0.03724589 -0.10685564 -0.00957958
v 0.03724589 -0.10878598 -0.01394594
f 1 2 5
f 1 5 3
f 1 3 8
f 1 8 4
f 1 4 10
f 1 10 11
f 1 11 6
f 1 6 2
f 2 6 7
f 2 7 5
f 3 5 7
f 3 7 12
f 3 12 14
f 3 14 13
f 3 13 9
f 3 9 8
f 4 9 10
f 4 8 9
f 6 11 7
f 7 11 12
f 9 13 10
f 10 13 11
f 11 13 14
f 11 14 12

