# https://github.com/mikedh/trimesh
v 0.05709362 0.09714139 0.00991673
v 0.05697112 0.09714139 0.00874331
v 0.04364477 0.11821824 0.01336262
v 0.05400418 0.09714139 0.02586947
v 0.05643898 0.09714139 0.00724761
v 0.05570777 0.09903837 0.00894576
v 0.02573594 0.10641614 0.01987015
v 0.03919245 0.09714139 0.03129861
v 0.01974847 0.12695600 -0.00102832
v 0.04108746 0.09714139 -0.00383379
v 0.02337005 0.09714139 0.02032051
v 0.03288340 0.09714139 0.02984836
v 0.01798362 0.12531293 -0.00123904
v 0.01798362 0.12108705 -0.00500721
v 0.01798362 0.12584700 -0.00234222
v 0.01798362 0.09714139 -0.01091150
v 0.01798362 0.09714139 0.00220272
f 1 2 3
f 1 3 4
f 1 4 8
f 1 8 12
f 1 12 11
f 1 11 17
f 1 17 16
f 1 16 10
f 1 10 5
f 1 5 2
f 2 5 6
f 2 6 3
f 3 7 8
f 3 8 4
f 3 6 5
f 3 5 9
f 3 9 7
f 5 10 9
f 7 11 12
f 7 12 8
f 7 9 13
f 7 13 11
f 9 10 14
f 9 14 15
f 9 15 13
f 10 16 14
f 11 13 17
f 13 15 14
f 13 14 16
f 13 16 17

