# https://github.com/mikedh/trimesh
v -0.04423311 0.01401612 -0.03465803
v -0.04423311 0.02005734 -0.03952845
v -0.05936816 0.02005734 -0.05673835
v -0.05717064 0.01401612 -0.05049923
v -0.04423311 0.01401612 -0.05449481
v -0.04423311 0.02005734 -0.05095312
v -0.05974631 0.02005734 -0.05760378
v -0.05962025 0.01401612 -0.05610104
v -0.05044750 0.01401612 -0.05775429
v -0.05832787 0.02005734 -0.05786012
v -0.05964607 0.02005734 -0.05800358
v -0.05896723 0.01401612 -0.05868087
v -0.05487138 0.01401612 -0.05823640
v -0.05901279 0.02005734 -0.05793538
f 1 2 3
f 1 3 4
f 1 4 8
f 1 8 12
f 1 12 13
f 1 13 9
f 1 9 5
f 1 5 6
f 1 6 2
f 2 6 10
f 2 10 14
f 2 14 11
f 2 11 7
f 2 7 3
f 3 7 8
f 3 8 4
f 5 9 6
f 6 9 10
f 7 11 8
f 8 11 12
f 9 13 14
f 9 14 10
f 11 14 12
f 12 14 13

