# https://github.com/mikedh/trimesh
v -0.04316388 0.05700800 0.00777300
v -0.03769073 0.05473234 0.00689273
v -0.03769073 0.03430519 -0.01570706
v -0.05255600 0.03987745 -0.01261577
v -0.03769073 0.02963029 -0.00141125
v -0.03769073 0.02979955 -0.00131702
v -0.04296161 0.03406338 -0.01570706
v -0.03769073 0.02956043 -0.01570706
v -0.03916634 0.02956043 -0.01570706
v -0.03769073 0.02956043 -0.00172153
f 1 2 3
f 1 3 4
f 1 4 5
f 1 5 6
f 1 6 2
f 2 6 5
f 2 5 10
f 2 10 8
f 2 8 3
f 3 7 4
f 3 8 9
f 3 9 7
f 4 7 9
f 4 9 10
f 4 10 5
f 8 10 9

