# https://github.com/mikedh/trimesh
v -0.00514814 -0.04104023 0.00808133
v -0.00514814 -0.04104023 -0.01570706
v -0.01811384 -0.04104023 0.00808133
v -0.00514814 -0.06397196 0.00808133
v -0.01811384 -0.04104023 -0.01570706
v -0.00514814 -0.07476434 -0.01570706
v -0.01811384 -0.05375074 0.00808133
v -0.01811384 -0.05759360 0.00796256
v -0.01811384 -0.06154871 0.00150255
v -0.01811384 -0.06634239 -0.00700911
v -0.01003360 -0.07390926 -0.01570706
v -0.01811384 -0.05844537 -0.01570706
v -0.01811384 -0.06615420 -0.00738171
v -0.01809226 -0.06854444 -0.01570706
f 1 2 5
f 1 5 3
f 1 3 7
f 1 7 4
f 1 4 6
f 1 6 2
f 2 6 11
f 2 11 14
f 2 14 12
f 2 12 5
f 3 5 12
f 3 12 13
f 3 13 10
f 3 10 9
f 3 9 8
f 3 8 7
f 4 8 9
f 4 9 10
f 4 10 11
f 4 11 6
f 4 7 8
f 10 13 14
f 10 14 11
f 12 14 13

