# https://github.com/mikedh/trimesh
v -0.02660360 0.08379290 -0.03622647
v -0.02048577 0.08379290 -0.03681533
v -0.02660360 0.08379290 -0.02299041
v -0.02660360 0.09540297 -0.03309205
v -0.00515864 0.08379290 -0.02606078
v -0.02185929 0.10086146 -0.03207135
v -0.00514814 0.09584256 -0.02827368
v -0.01067372 0.08379290 -0.01570913
v -0.01470397 0.10202112 -0.01570913
v -0.02660360 0.09403295 -0.02625087
v -0.02660360 0.09703189 -0.02899478
v -0.02317820 0.10134150 -0.02733149
v -0.00514814 0.08380368 -0.02605045
v -0.00514814 0.08379290 -0.01722985
v -0.00514814 0.11134154 -0.01960391
v -0.00514814 0.08379290 -0.01570913
v -0.00514814 0.10944833 -0.01570913
f 1 2 5
f 1 5 14
f 1 14 16
f 1 16 8
f 1 8 3
f 1 3 10
f 1 10 11
f 1 11 4
f 1 4 2
f 2 4 6
f 2 6 7
f 2 7 5
f 3 8 9
f 3 9 10
f 4 11 12
f 4 12 6
f 5 7 13
f 5 13 14
f 6 12 15
f 6 15 7
f 7 15 17
f 7 17 16
f 7 16 14
f 7 14 13
f 8 16 17
f 8 17 9
f 9 17 12
f 9 12 10
f 10 12 11
f 12 17 15

