# https://github.com/mikedh/trimesh
v -0.05964628 0.02005734 -0.05800511
v -0.05976948 0.02116503 -0.05788068
v -0.05832763 0.02005734 -0.05786050
v -0.05974667 0.02005734 -0.05760490
v -0.05188950 0.03761667 -0.03369009
v -0.05395190 0.04792692 -0.04993373
v -0.04423311 0.04792692 -0.04771074
v -0.04423311 0.02005734 -0.05095275
v -0.05936795 0.02005734 -0.05673723
v -0.04423311 0.03408898 -0.02364796
v -0.05170091 0.04792692 -0.03983779
v -0.04423311 0.04792692 -0.03603079
v -0.04423311 0.02005734 -0.03952839
v -0.04652972 0.04792692 -0.03720114
f 1 2 3
f 1 3 8
f 1 8 13
f 1 13 9
f 1 9 4
f 1 4 2
f 2 4 5
f 2 5 6
f 2 6 3
f 3 6 7
f 3 7 8
f 4 9 5
f 5 10 11
f 5 11 6
f 5 9 10
f 6 11 14
f 6 14 12
f 6 12 7
f 7 12 10
f 7 10 13
f 7 13 8
f 9 13 10
f 10 12 14
f 10 14 11

