# https://github.com/mikedh/trimesh
v -0.03891719 0.01401612 -0.04042481
v -0.03891719 0.01401612 -0.05170844
v -0.04673996 0.01401612 -0.04042481
v -0.03891719 -0.03226297 -0.04042481
v -0.05044664 0.01401612 -0.05775301
v -0.03891719 0.00517797 -0.05759632
v -0.05717098 0.01401612 -0.05050129
v -0.05362237 0.00425837 -0.04042481
v -0.03938129 -0.03226297 -0.04042481
v -0.03891719 -0.03226297 -0.05184085
v -0.05487077 0.01401612 -0.05823631
v -0.03891719 -0.00925933 -0.05939490
v -0.05961914 0.01401612 -0.05610228
v -0.05377436 0.00254148 -0.04042481
v -0.05476538 -0.03226297 -0.05698723
v -0.05474309 -0.00850281 -0.04042481
v -0.05900913 -0.01513481 -0.04885057
v -0.05403580 -0.03226297 -0.06041006
v -0.05896657 0.01401612 -0.05868209
v -0.05467215 -0.02417228 -0.06296779
f 1 2 5
f 1 5 11
f 1 11 19
f 1 19 13
f 1 13 7
f 1 7 3
f 1 3 8
f 1 8 14
f 1 14 16
f 1 16 9
f 1 9 4
f 1 4 10
f 1 10 12
f 1 12 6
f 1 6 2
f 2 6 5
f 3 7 8
f 4 9 15
f 4 15 18
f 4 18 10
f 5 6 11
f 6 12 11
f 7 13 14
f 7 14 8
f 9 16 17
f 9 17 15
f 10 18 12
f 11 12 20
f 11 20 19
f 12 18 20
f 13 19 17
f 13 17 14
f 14 17 16
f 15 17 18
f 17 19 20
f 17 20 18

