# https://github.com/mikedh/trimesh
v -0.00514924 0.06543450 -0.04368928
v -0.00514924 0.05083768 -0.04949220
v -0.01514902 0.06268868 -0.04368928
v -0.00514924 -0.05599961 -0.04368928
v -0.00514924 0.04727168 -0.05065800
v -0.01641388 0.04154231 -0.05034828
v -0.01641388 0.04643962 -0.04649765
v -0.01641388 0.05000562 -0.04368928
v -0.01641388 -0.05128061 -0.04368928
v -0.01641388 -0.03286818 -0.05507762
v -0.00514924 -0.03711171 -0.05535254
v -0.00514924 0.02301101 -0.05851935
v -0.01641388 0.02944169 -0.05426851
v -0.01641388 -0.03171517 -0.05548304
v -0.00514924 -0.02837502 -0.05845323
v -0.00514924 0.01353734 -0.06060214
v -0.01641388 0.00695213 -0.05921535
v -0.01641388 -0.00359133 -0.05969385
v -0.00514924 -0.00544565 -0.06146344
v -0.01641388 0.00541876 -0.05928495
f 1 2 3
f 1 3 8
f 1 8 9
f 1 9 4
f 1 4 11
f 1 11 15
f 1 15 19
f 1 19 16
f 1 16 12
f 1 12 5
f 1 5 2
f 2 5 3
f 3 5 6
f 3 6 7
f 3 7 8
f 4 9 10
f 4 10 11
f 5 12 6
f 6 12 13
f 6 13 17
f 6 17 20
f 6 20 18
f 6 18 14
f 6 14 10
f 6 10 9
f 6 9 8
f 6 8 7
f 10 14 15
f 10 15 11
f 12 16 17
f 12 17 13
f 14 18 15
f 15 18 19
f 16 20 17
f 16 19 18
f 16 18 20

