# https://github.com/mikedh/trimesh
v 0.02679450 0.01612421 0.06780000
v 0.01799059 -0.02789780 0.06321548
v 0.04044683 -0.01377458 0.06720394
v 0.05073666 0.00680149 0.06644598
v 0.04518364 0.04433586 0.06267093
v 0.01799059 0.02892555 0.06530537
v 0.01799059 -0.04332550 0.06059575
v 0.04872055 -0.05216121 0.05827774
v 0.06718643 -0.03880329 0.05449532
v 0.06453549 0.00857559 0.05826302
v 0.05104361 0.07084298 0.05320018
v 0.01799059 0.04254437 0.06126540
v 0.01799059 -0.04864780 0.05827774
v 0.02929894 -0.06428421 0.05005061
v 0.05732215 -0.07532885 0.03840167
v 0.07228599 -0.06840639 0.03718011
v 0.08251303 -0.06586699 0.02865864
v 0.08427103 -0.04551703 0.03083684
v 0.07811806 -0.00130371 0.04289052
v 0.06814914 0.03899617 0.04877019
v 0.02349477 0.05691109 0.05618784
v 0.06267983 0.07948737 0.03634120
v 0.05400150 0.09714139 0.02587702
v 0.03919810 0.09714139 0.03129308
v 0.03784473 0.09070593 0.03676801
v 0.01799059 0.05788511 0.05264826
v 0.01799059 -0.05955329 0.04385452
v 0.01799059 -0.06628442 0.03457510
v 0.04032824 -0.08054679 0.02664969
v 0.04040497 -0.08054679 0.02671592
v 0.05668731 -0.08054679 0.03219085
v 0.06260309 -0.08054679 0.03016719
v 0.07324870 -0.08054679 0.02425073
v 0.08590345 -0.03297659 0.00180644
v 0.07781111 -0.08054679 0.01933506
v 0.08925200 0.00601880 0.00272629
v 0.08653828 0.00721893 0.02313955
v 0.08251303 0.02535996 0.03021870
v 0.07399515 0.07395635 0.02180025
v 0.03288468 0.09714139 0.02985076
v 0.05709193 0.09714139 0.00991582
v 0.01799059 0.07520866 0.03899773
v 0.01799059 -0.07447659 0.01725988
v 0.04016081 -0.08054679 0.02648044
v 0.08096433 -0.03755098 -0.00737732
v 0.08642665 -0.01546171 -0.00737732
v 0.07425327 -0.08054679 0.00415389
v 0.07435791 -0.06758891 -0.00485326
v 0.08810791 0.00471432 -0.00737732
v 0.08833812 0.03304772 -0.00028346
v 0.08033647 0.06205946 0.00500015
v 0.05697334 0.09714139 0.00874577
v 0.02337618 0.09714139 0.02032850
v 0.01799059 0.08947102 0.01737026
v 0.01799059 -0.08054679 -0.00157124
v 0.07400213 -0.06489297 -0.00737732
v 0.06962808 -0.08054679 -0.00438230
v 0.08777306 0.02068121 -0.00737732
v 0.08485702 0.03516968 -0.00737732
v 0.07884358 0.05254542 -0.00737732
v 0.07039546 0.06992114 -0.00737732
v 0.05643617 0.09714139 0.00725194
v 0.06305654 0.08033963 -0.00737732
v 0.01799059 0.09714139 0.00220381
v 0.01799059 -0.08054679 -0.00737732
v 0.07209066 -0.06708451 -0.00737732
v 0.04606961 -0.08054679 -0.00737732
v 0.04109561 0.09714139 -0.00383039
v 0.06272866 0.08079185 -0.00737732
v 0.01799059 0.09714139 -0.00737732
v 0.04203042 0.09307140 -0.00737732
v 0.02044620 0.09714139 -0.00737732
v 0.06195431 0.08126147 -0.00737732
v 0.04948792 0.08877530 -0.00737732
f 1 2 3
f 1 3 4
f 1 4 5
f 1 5 6
f 1 6 2
f 2 7 3
f 2 6 12
f 2 12 26
f 2 26 42
f 2 42 54
f 2 54 64
f 2 64 70
f 2 70 65
f 2 65 55
f 2 55 43
f 2 43 28
f 2 28 27
f 2 27 13
f 2 13 7
f 3 7 8
f 3 8 9
f 3 9 4
f 4 10 5
f 4 9 10
f 5 11 12
f 5 12 6
f 5 10 11
f 7 13 8
f 8 13 14
f 8 14 15
f 8 15 16
f 8 16 9
f 9 16 17
f 9 17 18
f 9 18 19
f 9 19 10
f 10 19 20
f 10 20 11
f 11 21 12
f 11 20 22
f 11 22 23
f 11 23 24
f 11 24 25
f 11 25 21
f 12 21 26
f 13 27 14
f 14 27 28
f 14 28 29
f 14 29 30
f 14 30 31
f 14 31 15
f 15 31 32
f 15 32 16
f 16 32 33
f 16 33 17
f 17 34 18
f 17 33 35
f 17 35 34
f 18 34 36
f 18 36 37
f 18 37 19
f 19 37 38
f 19 38 20
f 20 38 39
f 20 39 22
f 21 25 40
f 21 40 26
f 22 39 23
f 23 41 52
f 23 52 62
f 23 62 68
f 23 68 72
f 23 72 70
f 23 70 64
f 23 64 53
f 23 53 40
f 23 40 24
f 23 39 41
f 24 40 25
f 26 40 42
f 28 43 29
f 29 44 55
f 29 55 65
f 29 65 67
f 29 67 57
f 29 57 47
f 29 47 35
f 29 35 33
f 29 33 32
f 29 32 31
f 29 31 30
f 29 43 44
f 34 45 46
f 34 46 36
f 34 35 47
f 34 47 48
f 34 48 45
f 36 46 49
f 36 49 50
f 36 50 37
f 37 50 38
f 38 50 39
f 39 50 51
f 39 51 52
f 39 52 41
f 40 53 42
f 42 53 54
f 43 55 44
f 45 48 56
f 45 56 66
f 45 66 67
f 45 67 65
f 45 65 70
f 45 70 72
f 45 72 71
f 45 71 74
f 45 74 73
f 45 73 69
f 45 69 63
f 45 63 61
f 45 61 60
f 45 60 59
f 45 59 58
f 45 58 49
f 45 49 46
f 47 57 48
f 48 57 56
f 49 58 50
f 50 58 59
f 50 59 60
f 50 60 51
f 51 60 61
f 51 61 52
f 52 61 63
f 52 63 62
f 53 64 54
f 56 57 66
f 57 67 66
f 62 63 69
f 62 69 68
f 68 71 72
f 68 69 73
f 68 73 74
f 68 74 71

