# https://github.com/mikedh/trimesh
v 0.00371044 -0.00379410 0.09330322
v 0.00303302 -0.00379410 0.09330322
v 0.00310762 -0.00426102 0.09330322
v 0.00371044 -0.00379410 0.08914475
v -0.00011944 -0.00497227 0.09330322
v 0.00303302 -0.00379410 0.08914475
v 0.00285644 -0.00445354 0.09330322
v 0.00304614 -0.00430828 0.08914475
v 0.00310762 -0.00426102 0.08914475
v -0.00011944 -0.00534621 0.09330322
v -0.00011944 -0.00497227 0.08914475
v 0.00274997 -0.00453057 0.09330322
v 0.00285644 -0.00445354 0.08914475
v 0.00007475 -0.00534636 0.09330322
v -0.00011944 -0.00534621 0.08914475
v 0.00266375 -0.00459272 0.09330322
v 0.00271099 -0.00455868 0.08914475
v 0.00021571 -0.00532828 0.09330322
v 0.00007475 -0.00534636 0.08914475
v 0.00187236 -0.00494720 0.09330322
v 0.00266375 -0.00459272 0.08914475
v 0.00032968 -0.00531354 0.09330322
v 0.00032968 -0.00531354 0.08914475
v 0.00175764 -0.00499491 0.09330322
v 0.00187236 -0.00494720 0.08914475
v 0.00123017 -0.00514230 0.09330322
v 0.00123017 -0.00514230 0.08914475
v 0.00161518 -0.00505387 0.09330322
v 0.00161518 -0.00505387 0.08914475
v 0.00180937 -0.00497334 0.08914475
v 0.00152071 -0.00507560 0.08914475
f 1 2 5
f 1 5 10
f 1 10 14
f 1 14 18
f 1 18 22
f 1 22 26
f 1 26 28
f 1 28 24
f 1 24 20
f 1 20 16
f 1 16 12
f 1 12 7
f 1 7 3
f 1 3 9
f 1 9 4
f 1 4 6
f 1 6 2
f 2 6 11
f 2 11 5
f 3 7 8
f 3 8 9
f 4 9 8
f 4 8 13
f 4 13 17
f 4 17 21
f 4 21 25
f 4 25 30
f 4 30 29
f 4 29 31
f 4 31 27
f 4 27 23
f 4 23 19
f 4 19 15
f 4 15 11
f 4 11 6
f 5 11 15
f 5 15 10
f 7 12 13
f 7 13 8
f 10 15 19
f 10 19 14
f 12 16 17
f 12 17 13
f 14 19 18
f 16 20 25
f 16 25 21
f 16 21 17
f 18 19 23
f 18 23 22
f 20 24 25
f 22 23 27
f 22 27 26
f 24 28 29
f 24 29 30
f 24 30 25
f 26 27 31
f 26 31 28
f 28 31 29

