# https://github.com/mikedh/trimesh
v -0.00573240 -0.00695991 0.09330322
v -0.00589159 -0.00684019 0.09330322
v -0.00573240 -0.00643202 0.09330322
v -0.00573240 -0.00693683 0.09501617
v -0.00633338 -0.00650197 0.09347564
v -0.00633499 -0.00650305 0.09330322
v -0.00802228 -0.00327658 0.09330322
v -0.00717662 -0.00327658 0.09726149
v -0.00573240 -0.00535460 0.09721810
v -0.00631832 -0.00649043 0.09501617
v -0.00573240 -0.00692457 0.09578605
v -0.00631079 -0.00648466 0.09578605
v -0.00652752 -0.00632240 0.09330322
v -0.00644147 -0.00640317 0.09330322
v -0.00847940 -0.00327658 0.09330322
v -0.00767111 -0.00327658 0.09726149
v -0.00573240 -0.00534595 0.09726149
v -0.00573240 -0.00691159 0.09591934
v -0.00629950 -0.00647565 0.09606580
v -0.00650358 -0.00629860 0.09578605
v -0.00652590 -0.00632096 0.09347564
v -0.00668912 -0.00610605 0.09578605
v -0.00669799 -0.00611723 0.09463104
v -0.00670660 -0.00612841 0.09347564
v -0.00670794 -0.00612985 0.09330322
v -0.00830516 -0.00369918 0.09330322
v -0.00847859 -0.00327658 0.09339040
v -0.00829064 -0.00327658 0.09645945
v -0.00824681 -0.00348860 0.09641218
v -0.00753183 -0.00364401 0.09726149
v -0.00573240 -0.00603321 0.09726149
v -0.00573240 -0.00688310 0.09617118
v -0.00668025 -0.00609451 0.09606541
v -0.00626830 -0.00645113 0.09632229
v -0.00647777 -0.00627300 0.09619404
v -0.00751757 -0.00502755 0.09578605
v -0.00771602 -0.00478416 0.09501617
v -0.00772462 -0.00479534 0.09386077
v -0.00764261 -0.00491289 0.09330322
v -0.00824197 -0.00385242 0.09330322
v -0.00847779 -0.00327658 0.09347564
v -0.00839954 -0.00327658 0.09617390
v -0.00819545 -0.00374533 0.09632113
v -0.00782062 -0.00453500 0.09636336
v -0.00788407 -0.00427827 0.09643621
v -0.00738609 -0.00394185 0.09726149
v -0.00575096 -0.00601843 0.09726149
v -0.00601151 -0.00654776 0.09644628
v -0.00573240 -0.00664836 0.09655167
v -0.00771010 -0.00477659 0.09578605
v -0.00665578 -0.00606350 0.09632229
v -0.00784374 -0.00456673 0.09610648
v -0.00582168 -0.00595749 0.09726149
v -0.00600318 -0.00579848 0.09726149
v -0.00639899 -0.00619439 0.09647301
v -0.00786229 -0.00459161 0.09501617
v -0.00785665 -0.00458404 0.09578605
v -0.00772865 -0.00480075 0.09330322
v -0.00824089 -0.00384990 0.09347564
v -0.00835087 -0.00357261 0.09386077
v -0.00787439 -0.00460820 0.09330322
v -0.00797577 -0.00434281 0.09578605
v -0.00847160 -0.00327658 0.09384915
v -0.00834092 -0.00357261 0.09463104
v -0.00832586 -0.00357261 0.09578605
v -0.00840841 -0.00327658 0.09608207
v -0.00821831 -0.00379545 0.09606463
v -0.00827746 -0.00359893 0.09618436
v -0.00813118 -0.00393752 0.09618436
v -0.00792010 -0.00438103 0.09620954
v -0.00675285 -0.00580677 0.09644628
v -0.00635139 -0.00538561 0.09726149
v -0.00679937 -0.00479967 0.09726149
v -0.00717393 -0.00430279 0.09726149
v -0.00616236 -0.00561674 0.09726149
v -0.00622340 -0.00554607 0.09726149
v -0.00787332 -0.00460640 0.09347564
v -0.00823605 -0.00383800 0.09424591
v -0.00822583 -0.00381384 0.09578605
v -0.00822852 -0.00381997 0.09540092
v -0.00842750 -0.00327658 0.09578605
f 1 2 6
f 1 6 14
f 1 14 13
f 1 13 25
f 1 25 39
f 1 39 58
f 1 58 61
f 1 61 40
f 1 40 26
f 1 26 15
f 1 15 7
f 1 7 3
f 1 3 9
f 1 9 17
f 1 17 31
f 1 31 49
f 1 49 32
f 1 32 18
f 1 18 11
f 1 11 4
f 1 4 2
f 2 5 6
f 2 4 5
f 3 7 8
f 3 8 9
f 4 10 5
f 4 11 12
f 4 12 10
f 5 13 14
f 5 14 6
f 5 10 13
f 7 15 27
f 7 27 41
f 7 41 63
f 7 63 81
f 7 81 66
f 7 66 42
f 7 42 28
f 7 28 16
f 7 16 8
f 8 16 30
f 8 30 46
f 8 46 74
f 8 74 73
f 8 73 72
f 8 72 76
f 8 76 75
f 8 75 54
f 8 54 53
f 8 53 47
f 8 47 31
f 8 31 17
f 8 17 9
f 10 12 13
f 11 18 19
f 11 19 12
f 12 19 20
f 12 20 21
f 12 21 13
f 13 21 22
f 13 22 23
f 13 23 24
f 13 24 25
f 15 26 27
f 16 28 29
f 16 29 30
f 18 32 19
f 19 33 20
f 19 32 34
f 19 34 35
f 19 35 33
f 20 33 22
f 20 22 21
f 22 33 36
f 22 36 23
f 23 37 38
f 23 38 24
f 23 36 37
f 24 38 39
f 24 39 25
f 26 40 27
f 27 40 41
f 28 42 29
f 29 42 43
f 29 43 44
f 29 44 45
f 29 45 30
f 30 45 44
f 30 44 46
f 31 47 48
f 31 48 49
f 32 49 48
f 32 48 34
f 33 50 36
f 33 35 51
f 33 51 44
f 33 44 52
f 33 52 50
f 34 48 47
f 34 47 53
f 34 53 54
f 34 54 55
f 34 55 51
f 34 51 35
f 36 50 37
f 37 56 38
f 37 50 57
f 37 57 56
f 38 58 39
f 38 56 58
f 40 59 60
f 40 60 41
f 40 61 62
f 40 62 59
f 41 60 64
f 41 64 65
f 41 65 63
f 42 66 67
f 42 67 68
f 42 68 43
f 43 68 67
f 43 67 69
f 43 69 44
f 44 69 70
f 44 70 52
f 44 51 71
f 44 71 72
f 44 72 73
f 44 73 74
f 44 74 46
f 50 52 57
f 51 55 54
f 51 54 75
f 51 75 76
f 51 76 71
f 52 70 67
f 52 67 62
f 52 62 57
f 56 77 58
f 56 57 62
f 56 62 77
f 58 77 61
f 59 78 60
f 59 62 78
f 60 78 64
f 61 77 62
f 62 67 79
f 62 79 80
f 62 80 78
f 63 65 81
f 64 78 80
f 64 80 65
f 65 80 79
f 65 79 67
f 65 67 66
f 65 66 81
f 67 70 69
f 71 76 72

