# https://github.com/mikedh/trimesh
v -0.00555035 0.00008497 0.09330361
v -0.00555024 0.00027929 0.09330361
v -0.00517621 0.00008497 0.09330361
v -0.00555035 0.00008497 0.09725359
v -0.00553238 0.00041877 0.09330361
v -0.00555024 0.00027929 0.09725359
v -0.00442397 0.00262485 0.09330361
v -0.00517621 0.00008497 0.09725359
v -0.00551782 0.00053196 0.09330361
v -0.00552400 0.00048386 0.09725359
v -0.00551782 0.00053196 0.09725359
v -0.00442397 0.00336075 0.09330361
v -0.00442397 0.00262485 0.09725359
v -0.00534614 0.00143459 0.09330361
v -0.00534614 0.00143459 0.09725359
v -0.00446466 0.00331105 0.09330361
v -0.00442397 0.00336075 0.09725359
v -0.00525726 0.00181938 0.09330361
v -0.00525726 0.00181938 0.09725359
v -0.00455078 0.00319882 0.09330361
v -0.00450116 0.00326359 0.09725359
v -0.00446466 0.00331105 0.09725359
v -0.00519860 0.00196110 0.09330361
v -0.00517114 0.00202716 0.09725359
v -0.00465719 0.00305966 0.09330361
v -0.00465719 0.00305966 0.09725359
v -0.00515107 0.00207558 0.09330361
v -0.00515107 0.00207558 0.09725359
v -0.00479667 0.00286727 0.09330361
v -0.00477021 0.00290382 0.09725359
v -0.00479667 0.00286727 0.09725359
f 1 2 5
f 1 5 9
f 1 9 14
f 1 14 18
f 1 18 23
f 1 23 27
f 1 27 29
f 1 29 25
f 1 25 20
f 1 20 16
f 1 16 12
f 1 12 7
f 1 7 3
f 1 3 8
f 1 8 4
f 1 4 6
f 1 6 2
f 2 6 5
f 3 7 13
f 3 13 8
f 4 8 13
f 4 13 17
f 4 17 22
f 4 22 21
f 4 21 26
f 4 26 30
f 4 30 31
f 4 31 28
f 4 28 24
f 4 24 19
f 4 19 15
f 4 15 11
f 4 11 10
f 4 10 6
f 5 6 10
f 5 10 11
f 5 11 9
f 7 12 17
f 7 17 13
f 9 11 15
f 9 15 14
f 12 16 22
f 12 22 17
f 14 15 19
f 14 19 18
f 16 20 21
f 16 21 22
f 18 19 23
f 19 24 23
f 20 25 26
f 20 26 21
f 23 24 28
f 23 28 27
f 25 29 30
f 25 30 26
f 27 28 31
f 27 31 29
f 29 31 30

