# https://github.com/mikedh/trimesh
v 0.00423141 0.00330776 0.08377644
v 0.00373944 0.00394439 0.08377644
v 0.00423141 0.00254759 0.08377644
v 0.00423141 0.00330776 0.06343592
v 0.00310692 0.00443364 0.08377644
v 0.00373944 0.00394439 0.06343592
v -0.00004233 0.00514323 0.08377644
v 0.00423141 0.00254759 0.06379529
v 0.00423141 0.00322840 0.06322394
v 0.00373735 0.00394236 0.06323807
v 0.00285633 0.00462608 0.08377644
v 0.00310692 0.00443364 0.06343592
v -0.00004233 0.00551707 0.08377644
v -0.00004233 0.00514323 0.06379731
v -0.00004233 0.00514352 0.06343592
v 0.00423141 0.00254991 0.06343592
v 0.00423141 0.00317084 0.06317750
v 0.00419167 0.00326358 0.06317952
v 0.00285633 0.00462608 0.06343592
v 0.00380847 0.00374555 0.06318962
v 0.00354073 0.00401358 0.06318962
v 0.00305881 0.00439672 0.06317952
v 0.00263503 0.00474643 0.06319769
v 0.00266348 0.00476561 0.08377644
v 0.00007481 0.00551707 0.08377644
v -0.00004233 0.00551707 0.06343592
v -0.00004233 0.00514846 0.06342583
v 0.00019738 0.00508393 0.06322798
v 0.00423141 0.00255485 0.06342381
v 0.00423141 0.00305544 0.06317347
v 0.00353404 0.00373887 0.06316135
v 0.00266348 0.00476561 0.06343592
v 0.00238528 0.00479730 0.06316135
v 0.00161554 0.00515922 0.06317347
v 0.00185023 0.00511067 0.06321788
v 0.00187157 0.00511939 0.08377644
v 0.00011999 0.00551155 0.08377644
v 0.00007481 0.00551707 0.06343592
v -0.00004233 0.00550370 0.06328047
v -0.00004233 0.00526765 0.06321183
v 0.00423141 0.00272869 0.06317750
v 0.00423141 0.00268392 0.06319769
v 0.00123025 0.00500224 0.06315126
v 0.00123025 0.00520370 0.06315126
v 0.00187157 0.00511939 0.06343592
v 0.00030405 0.00548306 0.06323605
v 0.00161554 0.00522521 0.06343592
v 0.00161554 0.00522521 0.08377644
v 0.00032204 0.00548567 0.08377644
v 0.00032204 0.00548567 0.06343592
v 0.00007481 0.00549788 0.06321384
v -0.00004233 0.00549788 0.06321384
v -0.00004233 0.00533596 0.06321183
v 0.00123025 0.00531387 0.06343592
v 0.00123025 0.00531387 0.08377644
f 1 2 5
f 1 5 11
f 1 11 24
f 1 24 36
f 1 36 48
f 1 48 55
f 1 55 49
f 1 49 37
f 1 37 25
f 1 25 13
f 1 13 7
f 1 7 3
f 1 3 8
f 1 8 16
f 1 16 29
f 1 29 42
f 1 42 41
f 1 41 30
f 1 30 17
f 1 17 9
f 1 9 4
f 1 4 6
f 1 6 2
f 2 6 12
f 2 12 5
f 3 7 14
f 3 14 8
f 4 9 10
f 4 10 6
f 5 12 19
f 5 19 11
f 6 10 12
f 7 13 26
f 7 26 39
f 7 39 52
f 7 52 53
f 7 53 40
f 7 40 27
f 7 27 15
f 7 15 14
f 8 14 15
f 8 15 16
f 9 17 18
f 9 18 10
f 10 19 12
f 10 18 20
f 10 20 21
f 10 21 22
f 10 22 23
f 10 23 19
f 11 19 32
f 11 32 24
f 13 25 38
f 13 38 26
f 15 27 28
f 15 28 29
f 15 29 16
f 17 30 31
f 17 31 18
f 18 31 22
f 18 22 21
f 18 21 20
f 19 23 32
f 22 31 33
f 22 33 23
f 23 33 34
f 23 34 35
f 23 35 32
f 24 32 45
f 24 45 36
f 25 37 38
f 26 38 39
f 27 40 28
f 28 40 41
f 28 41 42
f 28 42 29
f 30 41 31
f 31 41 43
f 31 43 44
f 31 44 33
f 32 35 45
f 33 44 34
f 34 44 46
f 34 46 47
f 34 47 35
f 35 47 45
f 36 45 47
f 36 47 48
f 37 49 50
f 37 50 38
f 38 50 46
f 38 46 51
f 38 51 39
f 39 51 52
f 40 53 44
f 40 44 43
f 40 43 41
f 44 53 52
f 44 52 51
f 44 51 46
f 46 50 54
f 46 54 47
f 47 54 55
f 47 55 48
f 49 55 54
f 49 54 50

