# https://github.com/mikedh/trimesh
v 0.00007393 0.00712234 0.10150978
v -0.00011750 0.00712234 0.10150978
v 0.00007393 0.00692132 0.10167599
v 0.00084379 0.00667900 0.10179341
v 0.00106827 0.00699154 0.10150978
v -0.00011750 0.00692132 0.10167599
v -0.00011750 0.00539991 0.10150978
v -0.00715089 0.00008670 0.10151287
v -0.00714951 0.00027808 0.10151287
v -0.00714125 0.00034417 0.10151287
v -0.00699664 0.00143462 0.10151287
v -0.00693604 0.00180499 0.10151287
v -0.00685479 0.00206797 0.10151287
v -0.00681898 0.00218362 0.10151287
v -0.00664821 0.00260080 0.10151287
v -0.00633421 0.00336082 0.10151287
v -0.00614828 0.00370227 0.10151287
v -0.00610972 0.00376148 0.10151287
v -0.00604224 0.00385235 0.10151287
v -0.00583703 0.00412359 0.10151287
v -0.00568141 0.00432598 0.10151287
v -0.00555058 0.00449533 0.10151287
v -0.00531370 0.00479824 0.10151287
v -0.00523244 0.00489324 0.10151287
v -0.00492395 0.00520165 0.10151287
v -0.00482754 0.00528288 0.10151287
v -0.00452593 0.00551970 0.10151287
v -0.00415547 0.00580608 0.10151287
v -0.00388278 0.00601123 0.10151287
v -0.00379188 0.00607869 0.10151287
v -0.00373404 0.00611725 0.10151287
v -0.00338974 0.00630174 0.10151287
v -0.00263090 0.00661704 0.10151287
v -0.00221361 0.00678639 0.10151287
v -0.00209792 0.00682356 0.10151287
v -0.00183487 0.00690342 0.10151287
v -0.00146441 0.00696538 0.10151287
v -0.00123992 0.00699567 0.10151287
v -0.00069455 0.00706726 0.10151287
v -0.00030893 0.00711683 0.10151287
v -0.00030893 0.00692132 0.10167594
v 0.00007393 0.00672856 0.10182951
v 0.00045955 0.00670378 0.10181256
v 0.00158886 0.00646145 0.10183973
v 0.00122941 0.00665284 0.10177301
v 0.00122941 0.00684559 0.10161304
v 0.00122941 0.00696951 0.10150978
v -0.00030893 0.00672856 0.10182951
v 0.00519576 0.00008945 0.10150978
v -0.00263090 -0.00644226 0.10151574
v -0.00331262 -0.00616001 0.10151574
v -0.00339112 -0.00612696 0.10151574
v -0.00355363 -0.00604848 0.10151574
v -0.00373680 -0.00593971 0.10151574
v -0.00379188 -0.00590392 0.10151574
v -0.00405355 -0.00570841 0.10151574
v -0.00444055 -0.00541101 0.10151574
v -0.00467330 -0.00522927 0.10151574
v -0.00487712 -0.00506955 0.10151574
v -0.00509059 -0.00488643 0.10151574
v -0.00527376 -0.00467302 0.10151574
v -0.00543351 -0.00446925 0.10151574
v -0.00561530 -0.00423657 0.10151574
v -0.00591278 -0.00384968 0.10151574
v -0.00604637 -0.00367069 0.10151574
v -0.00610834 -0.00358670 0.10151574
v -0.00614415 -0.00353300 0.10151574
v -0.00625295 -0.00334988 0.10151574
v -0.00632870 -0.00318742 0.10151574
v -0.00636313 -0.00310894 0.10151574
v -0.00669917 -0.00229798 0.10151574
v -0.00681485 -0.00201160 0.10151574
v -0.00683138 -0.00196341 0.10151574
v -0.00691539 -0.00171696 0.10151574
v -0.00693191 -0.00163297 0.10151574
v -0.00696772 -0.00143470 0.10151574
v -0.00699389 -0.00126122 0.10151574
v -0.00714676 -0.00010606 0.10151574
v -0.00707101 0.00008670 0.10157914
v -0.00695395 0.00027808 0.10167617
v -0.00687820 0.00143462 0.10161317
v -0.00666887 0.00164941 0.10176050
v -0.00663581 0.00190550 0.10172854
v -0.00658073 0.00220428 0.10168818
v -0.00632457 0.00251131 0.10179131
v -0.00622816 0.00297530 0.10171544
v -0.00614140 0.00336082 0.10165635
v -0.00589763 0.00356046 0.10176010
v -0.00568416 0.00411808 0.10161797
v -0.00544591 0.00424062 0.10171441
v -0.00518837 0.00440721 0.10179745
v -0.00508921 0.00466468 0.10172795
v -0.00483305 0.00480237 0.10181224
v -0.00469395 0.00505846 0.10172791
v -0.00443779 0.00515759 0.10179745
v -0.00426977 0.00541368 0.10171441
v -0.00414996 0.00565187 0.10161797
v -0.00359081 0.00586804 0.10176010
v -0.00338974 0.00611174 0.10165630
v -0.00300412 0.00619848 0.10171535
v -0.00254138 0.00629486 0.10179122
v -0.00223426 0.00655095 0.10168818
v -0.00193541 0.00660465 0.10172854
v -0.00167787 0.00663769 0.10176032
v -0.00146441 0.00684559 0.10161304
v -0.00069455 0.00689654 0.10165514
v -0.00146441 0.00665284 0.10177301
v -0.00069455 0.00670378 0.10181256
v -0.00011750 0.00658399 0.10188286
v -0.00011750 0.00644080 0.10193541
v 0.00007393 0.00643942 0.10193541
v 0.00045955 0.00643942 0.10191846
v 0.00084379 0.00643942 0.10189932
v 0.00122941 0.00643942 0.10187887
v 0.00144425 0.00663769 0.10176032
v 0.00199927 0.00605529 0.10193676
v 0.00199927 0.00635819 0.10183085
v 0.00141258 0.00694197 0.10150978
v -0.00146441 0.00644080 0.10187887
v -0.00107879 0.00644080 0.10189932
v -0.00069455 0.00644080 0.10191846
v -0.00030893 0.00644080 0.10193541
v 0.00691864 0.00008945 0.10150978
v 0.00007256 -0.00694343 0.10151574
v -0.00031031 -0.00694205 0.10151574
v -0.00060090 -0.00690488 0.10151574
v -0.00094520 -0.00685944 0.10151574
v -0.00146441 -0.00679060 0.10151574
v -0.00163793 -0.00676444 0.10151574
v -0.00183625 -0.00672726 0.10151574
v -0.00192026 -0.00671074 0.10151574
v -0.00216678 -0.00662813 0.10151574
v -0.00221498 -0.00661023 0.10151574
v -0.00250144 -0.00649458 0.10151574
v -0.00254276 -0.00612146 0.10179135
v -0.00300550 -0.00602646 0.10171607
v -0.00339112 -0.00593834 0.10165693
v -0.00359219 -0.00569601 0.10176046
v -0.00427253 -0.00524166 0.10171477
v -0.00443779 -0.00498557 0.10179781
v -0.00469533 -0.00488643 0.10172822
v -0.00483305 -0.00463034 0.10181247
v -0.00509059 -0.00449128 0.10172818
v -0.00518975 -0.00423519 0.10179772
v -0.00544591 -0.00406722 0.10171468
v -0.00590039 -0.00338844 0.10176028
v -0.00614277 -0.00318742 0.10165657
v -0.00623092 -0.00280190 0.10171580
v -0.00632594 -0.00233929 0.10179140
v -0.00658210 -0.00203087 0.10168854
v -0.00663581 -0.00173348 0.10172871
v -0.00666887 -0.00147601 0.10176055
v -0.00687682 -0.00126122 0.10161326
v -0.00692778 -0.00049157 0.10165541
v -0.00695257 -0.00010606 0.10167621
v -0.00695395 0.00008670 0.10167617
v -0.00676114 0.00008670 0.10182969
v -0.00676114 0.00027808 0.10182960
v -0.00673497 0.00066360 0.10181265
v -0.00670881 0.00104911 0.10179359
v -0.00668402 0.00143462 0.10177315
v -0.00649258 0.00179398 0.10183973
v -0.00638929 0.00220428 0.10183085
v -0.00603811 0.00297530 0.10184596
v -0.00594859 0.00336082 0.10179610
v -0.00568416 0.00371054 0.10181435
v -0.00554507 0.00398315 0.10177956
v -0.00495011 0.00452700 0.10185695
v -0.00531645 0.00411808 0.10183735
v -0.00455761 0.00491802 0.10185695
v -0.00414996 0.00528564 0.10183735
v -0.00374093 0.00565187 0.10181435
v -0.00401361 0.00551281 0.10177956
v -0.00338974 0.00591898 0.10179601
v -0.00223426 0.00635819 0.10183081
v -0.00300412 0.00600572 0.10184587
v -0.00182386 0.00646145 0.10183964
v -0.00107879 0.00667762 0.10179341
v 0.00122941 0.00605529 0.10196783
v 0.00161503 0.00605529 0.10196325
v 0.00170041 0.00660465 0.10172844
v 0.00169077 0.00688965 0.10150978
v 0.00160125 0.00690755 0.10150978
v 0.00277050 0.00566977 0.10195187
v 0.00315474 0.00566977 0.10190125
v 0.00277050 0.00600572 0.10184596
v 0.00199927 0.00655095 0.10168818
v 0.00230638 0.00629486 0.10179122
v -0.00223426 0.00605529 0.10193676
v -0.00184865 0.00605529 0.10196317
v -0.00146441 0.00605529 0.10196783
v 0.00691727 0.00027946 0.10150978
v 0.00671757 0.00027946 0.10167621
v 0.00671757 0.00008945 0.10167621
v 0.00691038 -0.00010606 0.10151574
v 0.00685942 -0.00049157 0.10151574
v 0.00675751 -0.00126122 0.10151574
v 0.00669554 -0.00163159 0.10151574
v 0.00661841 -0.00188768 0.10151574
v 0.00657847 -0.00201160 0.10151574
v 0.00641046 -0.00242740 0.10151574
v 0.00609370 -0.00318742 0.10151574
v 0.00590778 -0.00353163 0.10151574
v 0.00587059 -0.00358670 0.10151574
v 0.00580862 -0.00367069 0.10151574
v 0.00559790 -0.00395019 0.10151574
v 0.00544641 -0.00414845 0.10151574
v 0.00531145 -0.00432193 0.10151574
v 0.00507870 -0.00462070 0.10151574
v 0.00499331 -0.00472121 0.10151574
v 0.00468895 -0.00502549 0.10151574
v 0.00458979 -0.00511086 0.10151574
v 0.00429231 -0.00534354 0.10151574
v 0.00392047 -0.00563130 0.10151574
v 0.00363952 -0.00584196 0.10151574
v 0.00355413 -0.00590254 0.10151574
v 0.00349904 -0.00594109 0.10151574
v 0.00315336 -0.00612696 0.10151574
v 0.00239590 -0.00644226 0.10151574
v 0.00197861 -0.00661023 0.10151574
v 0.00185328 -0.00665016 0.10151574
v 0.00159988 -0.00672726 0.10151574
v 0.00122803 -0.00679060 0.10151574
v 0.00057799 -0.00687734 0.10151574
v 0.00045955 -0.00672451 0.10165550
v 0.00007256 -0.00674929 0.10167639
v -0.00031031 -0.00674929 0.10167639
v -0.00069455 -0.00672451 0.10165550
v -0.00146441 -0.00667357 0.10161322
v -0.00167925 -0.00646567 0.10176041
v -0.00193679 -0.00643125 0.10172854
v -0.00223564 -0.00637755 0.10168836
v -0.00223564 -0.00618479 0.10183099
v -0.00300550 -0.00583370 0.10184614
v -0.00339112 -0.00574558 0.10179660
v -0.00374230 -0.00547985 0.10181494
v -0.00401499 -0.00534079 0.10177992
v -0.00414996 -0.00511361 0.10183780
v -0.00455761 -0.00474600 0.10185731
v -0.00494874 -0.00435360 0.10185726
v -0.00531645 -0.00394605 0.10183767
v -0.00568416 -0.00353851 0.10181471
v -0.00554507 -0.00381112 0.10177978
v -0.00594997 -0.00318742 0.10179628
v -0.00603811 -0.00280190 0.10184596
v -0.00638929 -0.00203087 0.10183108
v -0.00649258 -0.00162195 0.10183982
v -0.00668402 -0.00126122 0.10177324
v -0.00671018 -0.00087571 0.10179364
v -0.00673497 -0.00049157 0.10181269
v -0.00675976 -0.00010606 0.10182964
v -0.00647055 -0.00010606 0.10193554
v -0.00647055 0.00008670 0.10193559
v -0.00647055 0.00027808 0.10193550
v -0.00647055 0.00066360 0.10191860
v -0.00647055 0.00104911 0.10189945
v -0.00647055 0.00143462 0.10187905
v -0.00608493 0.00220428 0.10193676
v -0.00570069 0.00336082 0.10190125
v -0.00531507 0.00374358 0.10193178
v -0.00493083 0.00412909 0.10194595
v -0.00454384 0.00451461 0.10195702
v -0.00415960 0.00490012 0.10194595
v -0.00377398 0.00528426 0.10193178
v -0.00338974 0.00566977 0.10190125
v 0.00238488 0.00566977 0.10196783
v 0.00193729 0.00680566 0.10150978
v 0.00315474 0.00528426 0.10196707
v 0.00353898 0.00528426 0.10193187
v 0.00315474 0.00591898 0.10179610
v 0.00432261 0.00491940 0.10185713
v 0.00391496 0.00528564 0.10183744
v 0.00350593 0.00565187 0.10181435
v 0.00197861 0.00679052 0.10150978
v 0.00227471 0.00667073 0.10150978
v 0.00277050 0.00619848 0.10171535
v 0.00308450 0.00633616 0.10150978
v -0.00300412 0.00566977 0.10195178
v -0.00261988 0.00566977 0.10196783
v 0.00687871 0.00057961 0.10150978
v 0.00669278 0.00066360 0.10165536
v 0.00644902 0.00143462 0.10177324
v 0.00647381 0.00104911 0.10179359
v 0.00649997 0.00066360 0.10181274
v 0.00652476 0.00027946 0.10182969
v 0.00652476 0.00008945 0.10182969
v 0.00652476 -0.00010606 0.10182964
v 0.00671620 -0.00010606 0.10167625
v 0.00669141 -0.00049157 0.10165545
v 0.00644902 -0.00126122 0.10177328
v 0.00643387 -0.00147601 0.10176055
v 0.00640082 -0.00173348 0.10172871
v 0.00634710 -0.00203087 0.10168854
v 0.00608957 -0.00233791 0.10179140
v 0.00599454 -0.00280190 0.10171580
v 0.00590640 -0.00318742 0.10165657
v 0.00566401 -0.00338844 0.10176028
v 0.00583892 -0.00355641 0.10155358
v 0.00544779 -0.00394605 0.10161846
v 0.00520953 -0.00406722 0.10171477
v 0.00495337 -0.00423519 0.10179785
v 0.00485421 -0.00449266 0.10172831
v 0.00459943 -0.00462897 0.10181256
v 0.00446033 -0.00488643 0.10172831
v 0.00420417 -0.00498557 0.10179790
v 0.00403615 -0.00524303 0.10171486
v 0.00361197 -0.00559826 0.10169500
v 0.00335581 -0.00569601 0.10176046
v 0.00352383 -0.00587225 0.10155376
v 0.00315336 -0.00593834 0.10165693
v 0.00277050 -0.00602646 0.10171607
v 0.00230638 -0.00612283 0.10179135
v 0.00199927 -0.00637892 0.10168836
v 0.00170041 -0.00643262 0.10172854
v 0.00144287 -0.00646567 0.10176041
v 0.00122803 -0.00648081 0.10177310
v 0.00084517 -0.00650697 0.10179359
v 0.00045955 -0.00653175 0.10181274
v 0.00007256 -0.00655654 0.10182978
v -0.00031031 -0.00655654 0.10182978
v -0.00069455 -0.00653175 0.10181274
v -0.00107879 -0.00650559 0.10179359
v -0.00146441 -0.00648081 0.10177310
v -0.00182523 -0.00628943 0.10183968
v -0.00223564 -0.00588189 0.10193689
v -0.00339112 -0.00549637 0.10190192
v -0.00454522 -0.00434121 0.10195720
v -0.00377536 -0.00511224 0.10193218
v -0.00416098 -0.00472672 0.10194617
v -0.00531507 -0.00357155 0.10193205
v -0.00570069 -0.00318742 0.10190156
v -0.00492946 -0.00395569 0.10194613
v -0.00608631 -0.00203087 0.10193698
v -0.00647055 -0.00126122 0.10187914
v -0.00647055 -0.00087571 0.10189954
v -0.00647055 -0.00049157 0.10191864
v -0.00608631 -0.00164674 0.10196330
v -0.00608631 -0.00126122 0.10196778
v -0.00608631 0.00008532 0.10196778
v -0.00608493 0.00143462 0.10196783
v -0.00608493 0.00181876 0.10196325
v -0.00570069 0.00297530 0.10195187
v -0.00531507 0.00336082 0.10196707
v -0.00493083 0.00374358 0.10196783
v -0.00377398 0.00490012 0.10196783
v -0.00338974 0.00528426 0.10196707
v 0.00353898 0.00490012 0.10196783
v 0.00431022 0.00451461 0.10195716
v 0.00392460 0.00490012 0.10194604
v 0.00335581 0.00586804 0.10176010
v 0.00315474 0.00611174 0.10165630
v 0.00420417 0.00515759 0.10179754
v 0.00471374 0.00452700 0.10185713
v 0.00459805 0.00480237 0.10181238
v 0.00377862 0.00551281 0.10177965
v 0.00315474 0.00630587 0.10150978
v 0.00683326 0.00092657 0.10150978
v 0.00676577 0.00143462 0.10150978
v 0.00643387 0.00164941 0.10176050
v 0.00625759 0.00179398 0.10183982
v 0.00623555 0.00143462 0.10187914
v 0.00623555 0.00104911 0.10189954
v 0.00623555 0.00066360 0.10191860
v 0.00623555 0.00027946 0.10193559
v 0.00638153 0.00008808 0.10188224
v 0.00623555 -0.00010606 0.10193559
v 0.00623555 -0.00049157 0.10191864
v 0.00623555 -0.00087571 0.10189959
v 0.00623555 -0.00126122 0.10187918
v 0.00649997 -0.00049157 0.10181274
v 0.00647381 -0.00087571 0.10179368
v 0.00625759 -0.00162058 0.10183986
v 0.00615430 -0.00203087 0.10183108
v 0.00580173 -0.00280190 0.10184596
v 0.00571359 -0.00318742 0.10179628
v 0.00544779 -0.00353851 0.10181476
v 0.00530869 -0.00381112 0.10177987
v 0.00471512 -0.00435498 0.10185739
v 0.00508007 -0.00394605 0.10183776
v 0.00432399 -0.00474600 0.10185744
v 0.00391496 -0.00511224 0.10183789
v 0.00350593 -0.00547985 0.10181498
v 0.00377999 -0.00534079 0.10178001
v 0.00315336 -0.00574696 0.10179660
v 0.00199927 -0.00618617 0.10183099
v 0.00277050 -0.00583370 0.10184614
v 0.00158886 -0.00628943 0.10183968
v 0.00122803 -0.00626740 0.10187901
v 0.00084517 -0.00626740 0.10189950
v 0.00045955 -0.00626740 0.10191869
v 0.00007256 -0.00626740 0.10193568
v -0.00031031 -0.00626740 0.10193568
v -0.00069455 -0.00626740 0.10191864
v -0.00107879 -0.00626740 0.10189950
v -0.00146441 -0.00626740 0.10187901
v -0.00185002 -0.00588189 0.10196325
v -0.00300550 -0.00549637 0.10195205
v -0.00339112 -0.00511224 0.10196716
v -0.00377536 -0.00472672 0.10196778
v -0.00492946 -0.00357155 0.10196778
v -0.00531507 -0.00318742 0.10196711
v -0.00570069 -0.00280190 0.10195191
v -0.00570069 -0.00241639 0.10196778
v -0.00608493 0.00008670 0.10196783
v -0.00570069 0.00258979 0.10196783
v 0.00469583 0.00374358 0.10196783
v 0.00508007 0.00336082 0.10196707
v 0.00469583 0.00412909 0.10194604
v 0.00403615 0.00541368 0.10171455
v 0.00400585 0.00574550 0.10150978
v 0.00382406 0.00588456 0.10150978
v 0.00365742 0.00600985 0.10150978
v 0.00355964 0.00608145 0.10150978
v 0.00349629 0.00612275 0.10150978
v 0.00332414 0.00622464 0.10150978
v 0.00446033 0.00505846 0.10172809
v 0.00464626 0.00524708 0.10150978
v 0.00444381 0.00540680 0.10150978
v 0.00508007 0.00374358 0.10193187
v 0.00546432 0.00336082 0.10190134
v 0.00508145 0.00411808 0.10183753
v 0.00495337 0.00440721 0.10179763
v 0.00485559 0.00466468 0.10172809
v 0.00485972 0.00506397 0.10150978
v 0.00673823 0.00161774 0.10150978
v 0.00640082 0.00190550 0.10172858
v 0.00615430 0.00220565 0.10183094
v 0.00670380 0.00180637 0.10150978
v 0.00668452 0.00189586 0.10150978
v 0.00585131 0.00220565 0.10193685
v 0.00585131 0.00181876 0.10196325
v 0.00585131 0.00143462 0.10196783
v 0.00585131 0.00008945 0.10196783
v 0.00584993 -0.00126122 0.10196778
v 0.00584993 -0.00164674 0.10196330
v 0.00584993 -0.00203087 0.10193698
v 0.00546432 -0.00318742 0.10190156
v 0.00507870 -0.00357155 0.10193209
v 0.00469583 -0.00395569 0.10194622
v 0.00431022 -0.00434121 0.10195729
v 0.00392460 -0.00472672 0.10194626
v 0.00353898 -0.00511224 0.10193227
v 0.00315336 -0.00549637 0.10190192
v 0.00199927 -0.00588189 0.10193689
v 0.00161365 -0.00588189 0.10196325
v 0.00122803 -0.00588189 0.10196778
v -0.00146441 -0.00588189 0.10196778
v -0.00261988 -0.00549637 0.10196778
v -0.00011750 0.00008670 0.10196783
v 0.00546432 0.00258979 0.10196783
v 0.00546432 0.00297393 0.10195187
v 0.00421106 0.00558716 0.10150978
v 0.00580173 0.00297393 0.10184596
v 0.00571497 0.00336082 0.10179610
v 0.00544779 0.00371054 0.10181449
v 0.00520953 0.00424062 0.10171450
v 0.00520127 0.00464816 0.10150978
v 0.00504289 0.00485056 0.10150978
v 0.00566401 0.00356046 0.10176010
v 0.00634710 0.00220565 0.10168823
v 0.00658674 0.00218362 0.10150978
v 0.00609094 0.00251131 0.10179131
v 0.00469583 -0.00357155 0.10196778
v 0.00546432 -0.00241639 0.10196778
v 0.00238488 -0.00549637 0.10196778
v 0.00353898 -0.00472672 0.10196778
v 0.00546432 -0.00280190 0.10195191
v 0.00507870 -0.00318742 0.10196711
v 0.00315336 -0.00511224 0.10196716
v 0.00277050 -0.00549637 0.10195205
v 0.00599454 0.00297393 0.10171540
v 0.00590640 0.00336082 0.10165630
v 0.00538306 0.00441410 0.10150978
v 0.00560754 0.00412496 0.10150978
v 0.00602071 0.00352879 0.10150978
v 0.00591879 0.00370090 0.10150978
v 0.00584029 0.00372843 0.10155336
v 0.00568054 0.00402858 0.10150978
v 0.00646692 0.00247964 0.10150978
v 0.00641734 0.00260080 0.10150978
v 0.00613226 0.00328922 0.10150978
v 0.00610196 0.00336082 0.10150978
v 0.00587610 0.00376285 0.10150978
f 1 2 6
f 1 6 3
f 1 3 4
f 1 4 5
f 1 5 47
f 1 47 118
f 1 118 183
f 1 183 182
f 1 182 267
f 1 267 274
f 1 274 275
f 1 275 277
f 1 277 356
f 1 356 415
f 1 415 414
f 1 414 413
f 1 413 412
f 1 412 411
f 1 411 410
f 1 410 452
f 1 452 418
f 1 418 417
f 1 417 424
f 1 424 458
f 1 458 457
f 1 457 473
f 1 473 474
f 1 474 478
f 1 478 483
f 1 483 476
f 1 476 475
f 1 475 482
f 1 482 481
f 1 481 480
f 1 480 479
f 1 479 461
f 1 461 429
f 1 429 428
f 1 428 425
f 1 425 358
f 1 358 357
f 1 357 280
f 1 280 192
f 1 192 123
f 1 123 49
f 1 49 7
f 1 7 2
f 2 7 8
f 2 8 9
f 2 9 10
f 2 10 11
f 2 11 12
f 2 12 13
f 2 13 14
f 2 14 15
f 2 15 16
f 2 16 17
f 2 17 18
f 2 18 19
f 2 19 20
f 2 20 21
f 2 21 22
f 2 22 23
f 2 23 24
f 2 24 25
f 2 25 26
f 2 26 27
f 2 27 28
f 2 28 29
f 2 29 30
f 2 30 31
f 2 31 32
f 2 32 33
f 2 33 34
f 2 34 35
f 2 35 36
f 2 36 37
f 2 37 38
f 2 38 39
f 2 39 40
f 2 40 41
f 2 41 6
f 3 42 43
f 3 43 4
f 3 6 48
f 3 48 42
f 4 43 44
f 4 44 45
f 4 45 5
f 5 45 46
f 5 46 47
f 6 41 48
f 7 49 8
f 8 50 51
f 8 51 52
f 8 52 53
f 8 53 54
f 8 54 55
f 8 55 56
f 8 56 57
f 8 57 58
f 8 58 59
f 8 59 60
f 8 60 61
f 8 61 62
f 8 62 63
f 8 63 64
f 8 64 65
f 8 65 66
f 8 66 67
f 8 67 68
f 8 68 69
f 8 69 70
f 8 70 71
f 8 71 72
f 8 72 73
f 8 73 74
f 8 74 75
f 8 75 76
f 8 76 77
f 8 77 78
f 8 78 79
f 8 79 80
f 8 80 9
f 8 49 50
f 9 80 10
f 10 80 81
f 10 81 11
f 11 81 12
f 12 81 82
f 12 82 83
f 12 83 13
f 13 83 14
f 14 83 84
f 14 84 85
f 14 85 15
f 15 85 16
f 16 85 86
f 16 86 87
f 16 87 88
f 16 88 17
f 17 88 18
f 18 88 19
f 19 88 20
f 20 88 89
f 20 89 90
f 20 90 21
f 21 90 22
f 22 90 23
f 23 91 92
f 23 92 24
f 23 90 91
f 24 92 93
f 24 93 25
f 25 93 94
f 25 94 26
f 26 94 95
f 26 95 27
f 27 95 96
f 27 96 97
f 27 97 28
f 28 97 98
f 28 98 29
f 29 98 30
f 30 98 31
f 31 98 32
f 32 99 100
f 32 100 101
f 32 101 33
f 32 98 99
f 33 101 34
f 34 101 102
f 34 102 103
f 34 103 35
f 35 103 36
f 36 103 104
f 36 104 37
f 37 105 38
f 37 104 105
f 38 105 106
f 38 106 39
f 39 106 41
f 39 41 40
f 41 106 107
f 41 107 108
f 41 108 48
f 42 109 110
f 42 110 111
f 42 111 112
f 42 112 113
f 42 113 114
f 42 114 43
f 42 48 109
f 43 114 44
f 44 115 45
f 44 114 116
f 44 116 117
f 44 117 115
f 45 115 46
f 46 115 47
f 47 115 118
f 48 108 119
f 48 119 120
f 48 120 121
f 48 121 122
f 48 122 109
f 49 123 124
f 49 124 125
f 49 125 126
f 49 126 127
f 49 127 128
f 49 128 129
f 49 129 130
f 49 130 131
f 49 131 132
f 49 132 133
f 49 133 134
f 49 134 50
f 50 134 135
f 50 135 51
f 51 135 136
f 51 136 52
f 52 136 137
f 52 137 53
f 53 137 138
f 53 138 54
f 54 138 55
f 55 138 56
f 56 138 57
f 57 138 139
f 57 139 58
f 58 139 59
f 59 139 140
f 59 140 141
f 59 141 60
f 60 141 142
f 60 142 143
f 60 143 61
f 61 143 144
f 61 144 62
f 62 144 63
f 63 144 145
f 63 145 146
f 63 146 64
f 64 146 65
f 65 146 66
f 66 146 67
f 67 146 68
f 68 146 147
f 68 147 69
f 69 147 70
f 70 147 148
f 70 148 149
f 70 149 71
f 71 149 72
f 72 149 150
f 72 150 151
f 72 151 73
f 73 151 74
f 74 151 152
f 74 152 75
f 75 152 76
f 76 152 77
f 77 152 153
f 77 153 78
f 78 153 154
f 78 154 155
f 78 155 156
f 78 156 79
f 79 156 80
f 80 156 157
f 80 157 158
f 80 158 159
f 80 159 160
f 80 160 161
f 80 161 81
f 81 161 82
f 82 161 162
f 82 162 163
f 82 163 83
f 83 163 84
f 84 163 85
f 85 164 165
f 85 165 86
f 85 163 164
f 86 165 87
f 87 165 88
f 88 165 166
f 88 166 167
f 88 167 90
f 88 90 89
f 90 167 91
f 91 168 93
f 91 93 92
f 91 167 166
f 91 166 169
f 91 169 168
f 93 170 95
f 93 95 94
f 93 168 170
f 95 171 172
f 95 172 173
f 95 173 96
f 95 170 171
f 96 173 97
f 97 173 98
f 98 173 172
f 98 172 174
f 98 174 99
f 99 174 100
f 100 174 101
f 101 175 102
f 101 174 176
f 101 176 175
f 102 175 103
f 103 175 104
f 104 175 177
f 104 177 107
f 104 107 105
f 105 107 106
f 107 178 108
f 107 177 178
f 108 178 177
f 108 177 119
f 109 122 110
f 110 179 111
f 110 122 191
f 110 191 179
f 111 179 180
f 111 180 112
f 112 180 113
f 113 180 114
f 114 180 116
f 115 117 181
f 115 181 182
f 115 182 183
f 115 183 118
f 116 180 184
f 116 184 185
f 116 185 186
f 116 186 117
f 117 187 181
f 117 186 188
f 117 188 187
f 119 177 189
f 119 189 190
f 119 190 120
f 120 190 121
f 121 190 122
f 122 190 191
f 123 192 193
f 123 193 194
f 123 194 195
f 123 195 196
f 123 196 197
f 123 197 198
f 123 198 199
f 123 199 200
f 123 200 201
f 123 201 202
f 123 202 203
f 123 203 204
f 123 204 205
f 123 205 206
f 123 206 207
f 123 207 208
f 123 208 209
f 123 209 210
f 123 210 211
f 123 211 212
f 123 212 213
f 123 213 214
f 123 214 215
f 123 215 216
f 123 216 217
f 123 217 218
f 123 218 219
f 123 219 220
f 123 220 221
f 123 221 222
f 123 222 223
f 123 223 224
f 123 224 124
f 124 224 225
f 124 225 226
f 124 226 227
f 124 227 125
f 125 227 126
f 126 227 228
f 126 228 127
f 127 228 229
f 127 229 128
f 128 229 230
f 128 230 129
f 129 230 130
f 130 230 131
f 131 230 231
f 131 231 132
f 132 231 232
f 132 232 133
f 133 232 135
f 133 135 134
f 135 232 233
f 135 233 234
f 135 234 235
f 135 235 136
f 136 235 137
f 137 235 138
f 138 235 236
f 138 236 237
f 138 237 139
f 139 237 140
f 140 237 236
f 140 236 238
f 140 238 239
f 140 239 142
f 140 142 141
f 142 239 240
f 142 240 144
f 142 144 143
f 144 240 241
f 144 241 242
f 144 242 243
f 144 243 145
f 145 243 146
f 146 244 147
f 146 243 242
f 146 242 244
f 147 244 148
f 148 244 149
f 149 244 245
f 149 245 246
f 149 246 150
f 150 246 151
f 151 246 152
f 152 246 247
f 152 247 248
f 152 248 153
f 153 248 154
f 154 248 249
f 154 249 155
f 155 249 250
f 155 250 251
f 155 251 157
f 155 157 156
f 157 251 252
f 157 252 253
f 157 253 254
f 157 254 158
f 158 254 255
f 158 255 256
f 158 256 257
f 158 257 159
f 159 257 162
f 159 162 160
f 160 162 161
f 162 257 258
f 162 258 163
f 163 258 164
f 164 258 259
f 164 259 165
f 165 259 166
f 166 259 169
f 168 169 259
f 168 259 260
f 168 260 261
f 168 261 262
f 168 262 170
f 170 262 263
f 170 263 264
f 170 264 265
f 170 265 171
f 171 265 172
f 172 265 174
f 174 265 176
f 175 176 189
f 175 189 177
f 176 265 189
f 179 266 180
f 179 191 279
f 179 279 345
f 179 345 344
f 179 344 405
f 179 405 340
f 179 340 404
f 179 404 449
f 179 449 433
f 179 433 432
f 179 432 450
f 179 450 406
f 179 406 347
f 179 347 266
f 180 266 184
f 181 187 267
f 181 267 182
f 184 268 269
f 184 269 185
f 184 266 268
f 185 270 186
f 185 269 271
f 185 271 272
f 185 272 273
f 185 273 270
f 186 270 188
f 187 188 274
f 187 274 267
f 188 275 274
f 188 270 276
f 188 276 277
f 188 277 275
f 189 265 278
f 189 278 190
f 190 278 279
f 190 279 191
f 192 280 193
f 193 280 281
f 193 281 282
f 193 282 283
f 193 283 284
f 193 284 285
f 193 285 286
f 193 286 194
f 194 286 287
f 194 287 288
f 194 288 195
f 195 288 289
f 195 289 290
f 195 290 196
f 196 290 197
f 197 290 291
f 197 291 198
f 198 291 292
f 198 292 199
f 199 292 200
f 200 292 293
f 200 293 201
f 201 293 294
f 201 294 295
f 201 295 202
f 202 295 296
f 202 296 297
f 202 297 203
f 203 297 298
f 203 298 204
f 204 298 205
f 205 298 297
f 205 297 206
f 206 297 207
f 207 297 299
f 207 299 300
f 207 300 208
f 208 300 301
f 208 301 209
f 209 301 302
f 209 302 210
f 210 302 303
f 210 303 211
f 211 303 304
f 211 304 212
f 212 304 305
f 212 305 306
f 212 306 213
f 213 306 214
f 214 306 307
f 214 307 308
f 214 308 215
f 215 308 309
f 215 309 216
f 216 309 217
f 217 309 308
f 217 308 218
f 218 308 310
f 218 310 311
f 218 311 312
f 218 312 219
f 219 312 220
f 220 312 313
f 220 313 314
f 220 314 221
f 221 314 222
f 222 314 315
f 222 315 223
f 223 315 316
f 223 316 224
f 224 316 317
f 224 317 225
f 225 317 226
f 226 317 318
f 226 318 319
f 226 319 320
f 226 320 227
f 227 320 321
f 227 321 322
f 227 322 323
f 227 323 228
f 228 323 229
f 229 323 230
f 230 323 324
f 230 324 233
f 230 233 231
f 231 233 232
f 233 324 325
f 233 325 234
f 234 326 235
f 234 325 326
f 235 326 236
f 236 326 238
f 238 326 239
f 239 327 240
f 239 326 328
f 239 328 329
f 239 329 327
f 240 330 331
f 240 331 241
f 240 327 332
f 240 332 330
f 241 331 242
f 242 331 244
f 244 331 245
f 245 331 333
f 245 333 246
f 246 333 247
f 247 249 248
f 247 333 334
f 247 334 250
f 247 250 249
f 250 334 251
f 251 334 335
f 251 335 336
f 251 336 252
f 252 336 337
f 252 337 338
f 252 338 253
f 253 338 339
f 253 339 340
f 253 340 254
f 254 340 341
f 254 341 255
f 255 341 256
f 256 341 257
f 257 341 258
f 258 341 342
f 258 342 259
f 259 342 260
f 260 342 343
f 260 343 261
f 261 343 262
f 262 343 344
f 262 344 345
f 262 345 346
f 262 346 263
f 263 346 264
f 264 346 278
f 264 278 265
f 266 347 268
f 268 347 348
f 268 348 349
f 268 349 269
f 269 349 271
f 270 273 350
f 270 350 351
f 270 351 276
f 271 352 272
f 271 349 348
f 271 348 353
f 271 353 354
f 271 354 352
f 272 352 273
f 273 352 355
f 273 355 350
f 276 351 277
f 277 351 356
f 278 346 279
f 279 346 345
f 280 357 281
f 281 357 282
f 282 357 358
f 282 358 359
f 282 359 360
f 282 360 283
f 283 360 284
f 284 360 361
f 284 361 285
f 285 361 362
f 285 362 363
f 285 363 364
f 285 364 365
f 285 365 286
f 286 365 287
f 287 365 366
f 287 366 367
f 287 367 368
f 287 368 369
f 287 369 370
f 287 370 288
f 288 370 371
f 288 371 290
f 288 290 289
f 290 372 291
f 290 371 372
f 291 372 373
f 291 373 292
f 292 373 293
f 293 373 294
f 294 373 374
f 294 374 375
f 294 375 295
f 295 375 296
f 296 375 297
f 297 375 376
f 297 376 377
f 297 377 300
f 297 300 299
f 300 377 301
f 301 378 303
f 301 303 302
f 301 377 376
f 301 376 379
f 301 379 378
f 303 380 305
f 303 305 304
f 303 378 380
f 305 381 382
f 305 382 383
f 305 383 306
f 305 380 381
f 306 383 308
f 306 308 307
f 308 383 382
f 308 382 384
f 308 384 310
f 310 384 311
f 311 384 312
f 312 385 313
f 312 384 386
f 312 386 385
f 313 385 314
f 314 385 315
f 315 385 387
f 315 387 316
f 316 387 317
f 317 387 318
f 318 387 388
f 318 388 319
f 319 388 389
f 319 389 390
f 319 390 391
f 319 391 392
f 319 392 320
f 320 392 393
f 320 393 394
f 320 394 395
f 320 395 321
f 321 395 324
f 321 324 322
f 322 324 323
f 324 395 325
f 325 395 396
f 325 396 397
f 325 397 326
f 326 397 328
f 327 329 398
f 327 398 399
f 327 399 400
f 327 400 401
f 327 401 332
f 328 397 398
f 328 398 329
f 330 332 401
f 330 401 402
f 330 402 331
f 331 402 333
f 333 402 337
f 333 337 334
f 334 337 335
f 335 337 336
f 337 402 403
f 337 403 338
f 338 403 404
f 338 404 340
f 338 340 339
f 340 405 341
f 341 405 342
f 342 405 343
f 343 405 344
f 347 406 348
f 348 406 407
f 348 407 408
f 348 408 353
f 350 355 409
f 350 409 410
f 350 410 411
f 350 411 412
f 350 412 413
f 350 413 414
f 350 414 415
f 350 415 351
f 351 415 356
f 352 354 416
f 352 416 417
f 352 417 418
f 352 418 409
f 352 409 355
f 353 408 419
f 353 419 420
f 353 420 421
f 353 421 422
f 353 422 354
f 354 422 423
f 354 423 424
f 354 424 416
f 358 425 359
f 359 426 427
f 359 427 360
f 359 425 428
f 359 428 429
f 359 429 426
f 360 427 430
f 360 430 361
f 361 430 431
f 361 431 362
f 362 431 363
f 363 431 364
f 364 366 365
f 364 431 432
f 364 432 433
f 364 433 366
f 366 433 434
f 366 434 435
f 366 435 367
f 367 435 368
f 368 435 369
f 369 372 370
f 369 435 436
f 369 436 372
f 370 372 371
f 372 436 373
f 373 436 374
f 374 436 437
f 374 437 375
f 375 437 376
f 376 437 379
f 378 379 437
f 378 437 438
f 378 438 439
f 378 439 440
f 378 440 380
f 380 440 441
f 380 441 442
f 380 442 443
f 380 443 381
f 381 443 382
f 382 443 384
f 384 443 386
f 385 386 444
f 385 444 387
f 386 443 444
f 387 444 388
f 388 444 445
f 388 445 389
f 389 445 390
f 390 445 391
f 391 445 446
f 391 446 447
f 391 447 392
f 392 447 396
f 392 396 393
f 393 396 394
f 394 396 395
f 396 447 448
f 396 448 397
f 397 448 398
f 398 448 399
f 399 448 404
f 399 404 400
f 400 404 403
f 400 403 401
f 401 403 402
f 404 448 447
f 404 447 446
f 404 446 449
f 406 450 407
f 407 419 408
f 407 450 451
f 407 451 419
f 409 418 452
f 409 452 410
f 416 424 417
f 419 451 420
f 420 451 430
f 420 430 453
f 420 453 454
f 420 454 455
f 420 455 421
f 421 455 422
f 422 456 457
f 422 457 458
f 422 458 423
f 422 455 459
f 422 459 456
f 423 458 424
f 426 460 427
f 426 429 461
f 426 461 460
f 427 460 462
f 427 462 453
f 427 453 430
f 430 451 431
f 431 451 450
f 431 450 432
f 433 463 464
f 433 464 434
f 433 449 446
f 433 446 465
f 433 465 466
f 433 466 463
f 434 464 435
f 435 464 467
f 435 467 436
f 436 467 437
f 437 467 438
f 438 467 468
f 438 468 439
f 439 468 440
f 440 466 469
f 440 469 441
f 440 468 463
f 440 463 466
f 441 469 442
f 442 469 470
f 442 470 443
f 443 470 444
f 444 470 445
f 445 470 465
f 445 465 446
f 453 462 454
f 454 459 455
f 454 462 471
f 454 471 472
f 454 472 459
f 456 473 457
f 456 459 474
f 456 474 473
f 459 472 475
f 459 475 476
f 459 476 477
f 459 477 478
f 459 478 474
f 460 461 462
f 461 479 462
f 462 479 480
f 462 480 481
f 462 481 482
f 462 482 471
f 463 468 464
f 464 468 467
f 465 470 469
f 465 469 466
f 471 482 472
f 472 482 475
f 476 483 477
f 477 483 478

