# https://github.com/mikedh/trimesh
v 0.00785436 0.00008686 0.06473367
v 0.00606416 0.00493895 0.06473180
v 0.00751765 0.00181997 0.06471500
v 0.00801351 0.00008686 0.06473367
v 0.00779106 0.00008686 0.06485497
v 0.00606416 0.00521976 0.06473180
v 0.00612139 0.00519744 0.06472993
v 0.00748609 0.00220511 0.06471127
v 0.00772814 0.00008686 0.06497627
v 0.00606416 0.00473341 0.06496694
v 0.00768914 0.00181997 0.06471500
v 0.00766974 0.00220511 0.06471127
v 0.00801351 0.00027943 0.06473367
v 0.00806172 0.00008686 0.06497627
v 0.00606416 0.00532201 0.06485310
v 0.00688812 0.00413027 0.06472993
v 0.00648084 0.00477545 0.06474113
v 0.00772285 0.00008686 0.06516849
v 0.00606416 0.00472977 0.06497627
v 0.00726031 0.00336000 0.06472807
v 0.00763093 0.00251342 0.06473927
v 0.00797470 0.00089502 0.06477659
v 0.00798940 0.00066456 0.06475979
v 0.00806172 0.00027943 0.06497627
v 0.00806643 0.00008686 0.06536071
v 0.00606416 0.00537807 0.06497627
v 0.00683716 0.00435242 0.06476166
v 0.00721621 0.00359305 0.06476353
v 0.00616628 0.00525505 0.06497627
v 0.00771776 0.00008686 0.06536071
v 0.00606416 0.00472147 0.06526927
v 0.00765719 0.00257571 0.06497627
v 0.00776225 0.00220511 0.06497627
v 0.00797882 0.00092616 0.06497627
v 0.00801292 0.00066456 0.06497627
v 0.00806623 0.00027943 0.06536071
v 0.00806643 0.00008686 0.08377644
v 0.00606416 0.00538897 0.06536071
v 0.00617255 0.00526024 0.06536071
v 0.00650966 0.00481282 0.06497627
v 0.00670232 0.00456316 0.06497627
v 0.00685088 0.00437059 0.06497627
v 0.00722660 0.00361797 0.06497627
v 0.00606416 0.00471939 0.06535884
v 0.00771776 0.00008686 0.08377644
v 0.00766033 0.00258038 0.06536071
v 0.00776989 0.00220511 0.06536071
v 0.00798058 0.00093810 0.06536071
v 0.00801645 0.00066456 0.06536071
v 0.00805722 0.00035002 0.08377644
v 0.00806623 0.00027943 0.08377644
v 0.00606416 0.00538949 0.06562011
v 0.00636521 0.00500954 0.06536071
v 0.00617255 0.00526024 0.08377644
v 0.00651299 0.00481697 0.06536071
v 0.00670565 0.00456575 0.06536071
v 0.00685323 0.00437319 0.06536071
v 0.00697729 0.00413027 0.06536071
v 0.00722856 0.00362264 0.06536071
v 0.00606416 0.00471939 0.08377644
v 0.00766033 0.00258038 0.08377644
v 0.00774990 0.00227362 0.08377644
v 0.00776989 0.00220511 0.08377644
v 0.00798058 0.00093810 0.08377644
v 0.00800998 0.00071439 0.08377644
v 0.00801645 0.00066456 0.08377644
v 0.00606416 0.00538949 0.08377644
v 0.00636521 0.00500954 0.08377644
v 0.00667037 0.00461195 0.08377644
v 0.00685323 0.00437319 0.08377644
v 0.00695456 0.00417491 0.08377644
v 0.00697729 0.00413027 0.08377644
v 0.00722856 0.00362264 0.08377644
f 1 2 3
f 1 3 11
f 1 11 4
f 1 4 14
f 1 14 25
f 1 25 37
f 1 37 45
f 1 45 30
f 1 30 18
f 1 18 9
f 1 9 5
f 1 5 2
f 2 6 7
f 2 7 8
f 2 8 3
f 2 5 9
f 2 9 10
f 2 10 19
f 2 19 31
f 2 31 44
f 2 44 60
f 2 60 67
f 2 67 52
f 2 52 38
f 2 38 26
f 2 26 15
f 2 15 6
f 3 8 12
f 3 12 11
f 4 11 12
f 4 12 13
f 4 13 24
f 4 24 14
f 6 15 7
f 7 16 12
f 7 12 8
f 7 15 17
f 7 17 16
f 9 18 19
f 9 19 10
f 12 20 21
f 12 21 22
f 12 22 23
f 12 23 13
f 12 16 20
f 13 23 24
f 14 24 25
f 15 26 17
f 16 17 27
f 16 27 28
f 16 28 20
f 17 26 29
f 17 29 27
f 18 30 19
f 19 30 31
f 20 28 21
f 21 28 32
f 21 32 33
f 21 33 22
f 22 33 34
f 22 34 35
f 22 35 24
f 22 24 23
f 24 35 36
f 24 36 25
f 25 36 51
f 25 51 37
f 26 38 39
f 26 39 29
f 27 29 40
f 27 40 41
f 27 41 42
f 27 42 43
f 27 43 28
f 28 43 32
f 29 39 40
f 30 44 31
f 30 45 60
f 30 60 44
f 32 43 46
f 32 46 47
f 32 47 33
f 33 47 34
f 34 47 48
f 34 48 49
f 34 49 35
f 35 49 36
f 36 49 50
f 36 50 51
f 37 51 50
f 37 50 66
f 37 66 65
f 37 65 64
f 37 64 63
f 37 63 62
f 37 62 61
f 37 61 73
f 37 73 72
f 37 72 71
f 37 71 70
f 37 70 69
f 37 69 68
f 37 68 54
f 37 54 67
f 37 67 60
f 37 60 45
f 38 52 39
f 39 53 42
f 39 42 41
f 39 41 40
f 39 52 67
f 39 67 54
f 39 54 68
f 39 68 53
f 42 53 55
f 42 55 56
f 42 56 57
f 42 57 58
f 42 58 43
f 43 58 59
f 43 59 46
f 46 59 73
f 46 73 61
f 46 61 62
f 46 62 47
f 47 62 63
f 47 63 64
f 47 64 48
f 48 64 65
f 48 65 49
f 49 65 66
f 49 66 50
f 53 68 69
f 53 69 55
f 55 69 56
f 56 69 57
f 57 69 70
f 57 70 71
f 57 71 58
f 58 71 72
f 58 72 73
f 58 73 59

