# https://github.com/mikedh/trimesh
v -0.00337337 -0.00831966 0.09330322
v -0.00337337 -0.00786263 0.09330322
v -0.00337337 -0.00831879 0.09342682
v -0.00405741 -0.00803758 0.09330322
v -0.00573217 -0.00643216 0.09330322
v -0.00573217 -0.00535480 0.09721810
v -0.00337337 -0.00701349 0.09726149
v -0.00337337 -0.00831791 0.09347564
v -0.00377705 -0.00812142 0.09578605
v -0.00377705 -0.00814151 0.09424591
v -0.00377705 -0.00814646 0.09386077
v -0.00481234 -0.00767022 0.09330322
v -0.00404863 -0.00803409 0.09386077
v -0.00454723 -0.00777123 0.09578605
v -0.00573217 -0.00695964 0.09330322
v -0.00573217 -0.00534607 0.09726149
v -0.00337337 -0.00750225 0.09726149
v -0.00337337 -0.00831122 0.09384876
v -0.00337337 -0.00826173 0.09578605
v -0.00337337 -0.00823699 0.09617118
v -0.00399990 -0.00801401 0.09606463
v -0.00401815 -0.00802157 0.09578605
v -0.00480703 -0.00766614 0.09386077
v -0.00500495 -0.00752437 0.09330322
v -0.00478787 -0.00765188 0.09578605
v -0.00479179 -0.00765479 0.09540092
v -0.00479549 -0.00765770 0.09501617
v -0.00477054 -0.00763907 0.09610570
v -0.00571508 -0.00697303 0.09330322
v -0.00573217 -0.00695964 0.09332027
v -0.00573217 -0.00603365 0.09726149
v -0.00346574 -0.00747256 0.09726149
v -0.00337337 -0.00810890 0.09648309
v -0.00369299 -0.00804224 0.09641218
v -0.00394956 -0.00799101 0.09632113
v -0.00380361 -0.00807281 0.09618436
v -0.00414193 -0.00792668 0.09618436
v -0.00458510 -0.00771534 0.09620877
v -0.00525043 -0.00732759 0.09386077
v -0.00525413 -0.00733050 0.09347564
v -0.00511718 -0.00743821 0.09330322
v -0.00499202 -0.00751419 0.09463104
v -0.00523912 -0.00731886 0.09501617
v -0.00567513 -0.00697274 0.09578605
v -0.00498047 -0.00750545 0.09578605
v -0.00498439 -0.00750836 0.09540092
v -0.00564788 -0.00695032 0.09617118
v -0.00523150 -0.00731304 0.09578605
v -0.00473891 -0.00761578 0.09636220
v -0.00525575 -0.00733167 0.09330322
v -0.00568252 -0.00697827 0.09501617
v -0.00573217 -0.00694217 0.09463104
v -0.00559038 -0.00614689 0.09726149
v -0.00573217 -0.00664874 0.09655167
v -0.00558506 -0.00690171 0.09641877
v -0.00384818 -0.00732730 0.09726149
v -0.00448233 -0.00767953 0.09643621
v -0.00567883 -0.00697565 0.09540092
v -0.00573217 -0.00688308 0.09617118
v -0.00573217 -0.00691190 0.09591934
v -0.00573217 -0.00692471 0.09578605
v -0.00573217 -0.00693693 0.09501617
v -0.00414632 -0.00718146 0.09726149
v -0.00450704 -0.00696924 0.09726149
v -0.00500356 -0.00659489 0.09726149
f 1 2 7
f 1 7 17
f 1 17 33
f 1 33 20
f 1 20 19
f 1 19 18
f 1 18 8
f 1 8 3
f 1 3 4
f 1 4 12
f 1 12 24
f 1 24 41
f 1 41 50
f 1 50 29
f 1 29 15
f 1 15 5
f 1 5 2
f 2 5 6
f 2 6 7
f 3 8 9
f 3 9 10
f 3 10 11
f 3 11 4
f 4 11 13
f 4 13 14
f 4 14 12
f 5 15 30
f 5 30 52
f 5 52 62
f 5 62 61
f 5 61 60
f 5 60 59
f 5 59 54
f 5 54 31
f 5 31 16
f 5 16 6
f 6 16 7
f 7 16 31
f 7 31 53
f 7 53 65
f 7 65 64
f 7 64 63
f 7 63 56
f 7 56 32
f 7 32 17
f 8 18 9
f 9 13 10
f 9 18 19
f 9 19 20
f 9 20 21
f 9 21 22
f 9 22 13
f 10 13 11
f 12 23 24
f 12 14 23
f 13 22 14
f 14 25 26
f 14 26 27
f 14 27 23
f 14 22 21
f 14 21 28
f 14 28 25
f 15 29 30
f 17 32 33
f 20 33 34
f 20 34 35
f 20 35 36
f 20 36 21
f 21 36 35
f 21 35 37
f 21 37 38
f 21 38 28
f 23 27 26
f 23 26 24
f 24 39 40
f 24 40 41
f 24 26 42
f 24 42 43
f 24 43 44
f 24 44 39
f 25 45 46
f 25 46 26
f 25 28 45
f 26 46 42
f 28 47 44
f 28 44 48
f 28 48 45
f 28 38 49
f 28 49 47
f 29 50 30
f 30 50 51
f 30 51 52
f 31 54 55
f 31 55 53
f 32 56 33
f 33 56 34
f 34 57 35
f 34 56 57
f 35 57 49
f 35 49 37
f 37 49 38
f 39 44 58
f 39 58 40
f 40 50 41
f 40 58 51
f 40 51 50
f 42 46 48
f 42 48 43
f 43 48 44
f 44 47 59
f 44 59 60
f 44 60 61
f 44 61 62
f 44 62 58
f 45 48 46
f 47 49 59
f 49 55 59
f 49 57 56
f 49 56 63
f 49 63 64
f 49 64 65
f 49 65 53
f 49 53 55
f 51 58 62
f 51 62 52
f 54 59 55

