# https://github.com/mikedh/trimesh
v -0.00640110 0.00471127 0.09725359
v -0.00442386 0.00660469 0.09709851
v -0.00442386 0.00659496 0.09725359
v -0.00640110 0.00548525 0.09725359
v -0.00640110 0.00599356 0.09330361
v -0.00442386 0.00756422 0.09330361
v -0.00442386 0.00718988 0.09725359
v -0.00635291 0.00556050 0.09725359
v -0.00640110 0.00636562 0.09647086
v -0.00640110 0.00661215 0.09330361
v -0.00442386 0.00802484 0.09330361
v -0.00442386 0.00785941 0.09645617
v -0.00448192 0.00785227 0.09643567
v -0.00473856 0.00778837 0.09636103
v -0.00450883 0.00714512 0.09725359
v -0.00600453 0.00597312 0.09725359
v -0.00639839 0.00636725 0.09647241
v -0.00626717 0.00662351 0.09631927
v -0.00640110 0.00650965 0.09623728
v -0.00633356 0.00667508 0.09330361
v -0.00640110 0.00659172 0.09447344
v -0.00630936 0.00665659 0.09578598
v -0.00631324 0.00665951 0.09540119
v -0.00631691 0.00666243 0.09501640
v -0.00632427 0.00666827 0.09424605
v -0.00454715 0.00796743 0.09330361
v -0.00442386 0.00800084 0.09578598
v -0.00442386 0.00789412 0.09639274
v -0.00442386 0.00796451 0.09619900
v -0.00458508 0.00788795 0.09620789
v -0.00477030 0.00781172 0.09610425
v -0.00629853 0.00664784 0.09606248
v -0.00601034 0.00672017 0.09644572
v -0.00559151 0.00632183 0.09725359
v -0.00640110 0.00653138 0.09613635
v -0.00525339 0.00750259 0.09347570
v -0.00525494 0.00750388 0.09330361
v -0.00640110 0.00657842 0.09522910
v -0.00640110 0.00656804 0.09578598
v -0.00640110 0.00655863 0.09592326
v -0.00523075 0.00748539 0.09578598
v -0.00640110 0.00657161 0.09560654
v -0.00523462 0.00748831 0.09540119
v -0.00469250 0.00789866 0.09330361
v -0.00454715 0.00794342 0.09578598
v -0.00478753 0.00782437 0.09578598
v -0.00498011 0.00767775 0.09578598
v -0.00500256 0.00769527 0.09347570
v -0.00500410 0.00769657 0.09330361
v -0.00499133 0.00768651 0.09463123
v -0.00481153 0.00784221 0.09330361
v -0.00480998 0.00784124 0.09347570
v -0.00479121 0.00782729 0.09540119
v -0.00489785 0.00777701 0.09330361
f 1 2 3
f 1 3 7
f 1 7 15
f 1 15 34
f 1 34 16
f 1 16 8
f 1 8 4
f 1 4 9
f 1 9 19
f 1 19 35
f 1 35 40
f 1 40 39
f 1 39 42
f 1 42 38
f 1 38 21
f 1 21 10
f 1 10 5
f 1 5 6
f 1 6 2
f 2 6 11
f 2 11 27
f 2 27 29
f 2 29 28
f 2 28 12
f 2 12 7
f 2 7 3
f 4 8 9
f 5 10 20
f 5 20 37
f 5 37 49
f 5 49 54
f 5 54 51
f 5 51 44
f 5 44 26
f 5 26 11
f 5 11 6
f 7 12 13
f 7 13 14
f 7 14 15
f 8 16 17
f 8 17 9
f 9 17 18
f 9 18 19
f 10 21 22
f 10 22 23
f 10 23 24
f 10 24 25
f 10 25 20
f 11 26 45
f 11 45 27
f 12 28 13
f 13 28 14
f 14 28 29
f 14 29 30
f 14 30 31
f 14 31 32
f 14 32 18
f 14 18 33
f 14 33 34
f 14 34 15
f 16 34 18
f 16 18 17
f 18 34 33
f 18 32 35
f 18 35 19
f 20 36 37
f 20 25 36
f 21 38 22
f 22 39 40
f 22 40 32
f 22 32 41
f 22 41 43
f 22 43 23
f 22 38 42
f 22 42 39
f 23 43 24
f 24 43 25
f 25 43 36
f 26 44 45
f 27 45 31
f 27 31 29
f 29 31 30
f 31 45 46
f 31 46 47
f 31 47 32
f 32 47 41
f 32 40 35
f 36 48 49
f 36 49 37
f 36 43 48
f 41 47 43
f 43 50 48
f 43 47 50
f 44 51 45
f 45 51 52
f 45 52 53
f 45 53 46
f 46 53 48
f 46 48 50
f 46 50 47
f 48 52 49
f 48 53 52
f 49 52 54
f 51 54 52

