# https://github.com/mikedh/trimesh
v -0.00011944 0.00796165 0.09724629
v -0.00011944 0.00793646 0.09732699
v -0.00011944 0.00839806 0.09724629
v 0.00461870 0.00627120 0.09724629
v -0.00011944 0.00769285 0.10045398
v 0.00461001 0.00627120 0.09726419
v 0.00459427 0.00627120 0.09731223
v 0.00458993 0.00627120 0.09732699
v -0.00011944 0.00832144 0.10002283
v 0.00007486 0.00839806 0.09724629
v 0.00542521 0.00627120 0.09724629
v -0.00011944 0.00824857 0.10045398
v 0.00423932 0.00627120 0.10045398
v -0.00011944 0.00829292 0.10021658
v 0.00007486 0.00832144 0.10002283
v 0.00017310 0.00839077 0.09724629
v 0.00535791 0.00632471 0.09724629
v 0.00527487 0.00627120 0.10002283
v -0.00011944 0.00826460 0.10040782
v 0.00007486 0.00824857 0.10045398
v 0.00513973 0.00627120 0.10045398
v 0.00007486 0.00826460 0.10040782
v 0.00109305 0.00818152 0.10025144
v 0.00046021 0.00827189 0.10002283
v 0.00123145 0.00827043 0.09724629
v 0.00092480 0.00830853 0.09724629
v 0.00054976 0.00835163 0.09724629
v 0.00477826 0.00676840 0.09724629
v 0.00440323 0.00694205 0.10002283
v 0.00525371 0.00627120 0.10026997
v 0.00046727 0.00820630 0.10045398
v 0.00516795 0.00627120 0.10045210
v 0.00516687 0.00627141 0.10045398
v 0.00044610 0.00821588 0.10042823
v 0.00084501 0.00819776 0.10031613
v 0.00089766 0.00815175 0.10045398
v 0.00200051 0.00796748 0.10040782
v 0.00200051 0.00801058 0.10002283
v 0.00112073 0.00818527 0.10002283
v 0.00131883 0.00825565 0.09724629
v 0.00427514 0.00714818 0.09724629
v 0.00421056 0.00708946 0.10002283
v 0.00416659 0.00705594 0.10040782
v 0.00415574 0.00704782 0.10045398
v 0.00069305 0.00817861 0.10045398
v 0.00084501 0.00815904 0.10045398
v 0.00200051 0.00794729 0.10045398
v 0.00236578 0.00784755 0.10045398
v 0.00239129 0.00785588 0.10040939
v 0.00238586 0.00791606 0.10002283
v 0.00197717 0.00812177 0.09724629
v 0.00390879 0.00736451 0.09724629
v 0.00348437 0.00746070 0.10002283
v 0.00343878 0.00744175 0.10034250
v 0.00392562 0.00718107 0.10040782
v 0.00354570 0.00735264 0.10045398
v 0.00243688 0.00782528 0.10045398
v 0.00261598 0.00780487 0.10028190
v 0.00272127 0.00787566 0.09724629
v 0.00247758 0.00797269 0.09724629
v 0.00238586 0.00800184 0.09724629
v 0.00362385 0.00750401 0.09724629
v 0.00339916 0.00742530 0.10045398
v 0.00255411 0.00777926 0.10045398
f 1 2 5
f 1 5 12
f 1 12 19
f 1 19 14
f 1 14 9
f 1 9 3
f 1 3 10
f 1 10 16
f 1 16 27
f 1 27 26
f 1 26 25
f 1 25 40
f 1 40 51
f 1 51 61
f 1 61 60
f 1 60 59
f 1 59 62
f 1 62 52
f 1 52 41
f 1 41 28
f 1 28 17
f 1 17 11
f 1 11 4
f 1 4 2
f 2 4 6
f 2 6 7
f 2 7 8
f 2 8 5
f 3 9 15
f 3 15 10
f 4 11 18
f 4 18 30
f 4 30 32
f 4 32 21
f 4 21 13
f 4 13 8
f 4 8 7
f 4 7 6
f 5 8 13
f 5 13 21
f 5 21 33
f 5 33 44
f 5 44 56
f 5 56 63
f 5 63 64
f 5 64 57
f 5 57 48
f 5 48 47
f 5 47 36
f 5 36 46
f 5 46 45
f 5 45 31
f 5 31 20
f 5 20 12
f 9 14 15
f 10 15 16
f 11 17 18
f 12 20 22
f 12 22 19
f 14 19 22
f 14 22 15
f 15 22 23
f 15 23 24
f 15 24 25
f 15 25 26
f 15 26 27
f 15 27 16
f 17 28 29
f 17 29 18
f 18 29 30
f 20 31 22
f 21 32 33
f 22 31 34
f 22 34 35
f 22 35 23
f 23 35 36
f 23 36 37
f 23 37 38
f 23 38 39
f 23 39 40
f 23 40 25
f 23 25 24
f 28 41 42
f 28 42 29
f 29 42 30
f 30 33 32
f 30 42 43
f 30 43 44
f 30 44 33
f 31 45 35
f 31 35 34
f 35 45 46
f 35 46 36
f 36 47 37
f 37 47 48
f 37 48 49
f 37 49 50
f 37 50 38
f 38 50 51
f 38 51 40
f 38 40 39
f 41 52 42
f 42 52 53
f 42 53 54
f 42 54 55
f 42 55 43
f 43 55 44
f 44 55 56
f 48 57 49
f 49 57 58
f 49 58 50
f 50 59 60
f 50 60 61
f 50 61 51
f 50 58 53
f 50 53 62
f 50 62 59
f 52 62 53
f 53 58 54
f 54 63 55
f 54 58 63
f 55 63 56
f 57 64 58
f 58 64 63

