# https://github.com/mikedh/trimesh
v -0.04449373 0.02947493 0.03556501
v -0.04449373 0.02947493 0.03785667
v -0.05466739 0.02947493 0.03651165
v -0.04449373 0.04058332 0.01789493
v -0.04449373 0.02952060 0.03781355
v -0.04593786 0.02947493 0.03801685
v -0.05466739 0.02947493 0.03817291
v -0.05466739 0.04058224 0.02108807
v -0.05466739 0.04058332 0.02121538
v -0.04449373 0.04058332 0.02327501
v -0.04593786 0.02960650 0.03789158
v -0.04623465 0.02947493 0.03804970
v -0.04449373 0.03101571 0.03638845
v -0.04740689 0.03196823 0.03580321
v -0.05466042 0.02947493 0.03887109
v -0.05466739 0.03002296 0.03828996
v -0.05466739 0.04058332 0.02422166
v -0.04593786 0.04058332 0.02342902
v -0.04474769 0.04037129 0.02367954
v -0.04449373 0.04013751 0.02403479
v -0.04887692 0.02977721 0.03805381
v -0.04956014 0.02947493 0.03841727
v -0.04740689 0.03046225 0.03723858
v -0.04449373 0.03252061 0.03495307
v -0.04593786 0.03261738 0.03502084
v -0.04449373 0.03330350 0.03420561
v -0.04740689 0.03270219 0.03509476
v -0.04887692 0.03128320 0.03661843
v -0.05414850 0.02947493 0.03884645
v -0.04887692 0.03276526 0.03513994
v -0.05466739 0.03006319 0.03824683
v -0.05328401 0.04058332 0.02410872
v -0.05466739 0.03903493 0.02683983
v -0.05328401 0.03900122 0.02678438
v -0.05248525 0.04058332 0.02403890
v -0.04740689 0.04044632 0.02380685
v -0.04593786 0.04040608 0.02373909
v -0.04593786 0.03997441 0.02447423
v -0.04593786 0.03764095 0.02844153
v -0.04449373 0.03598056 0.03105149
v -0.05034495 0.02947493 0.03850146
v -0.04449373 0.03403855 0.03348484
v -0.04593786 0.03337853 0.03428570
v -0.05034495 0.03135388 0.03668415
v -0.04593786 0.03411249 0.03355466
v -0.05181399 0.02993923 0.03819960
v -0.05034495 0.02986312 0.03812978
v -0.05281392 0.02947493 0.03873145
v -0.05034495 0.03279353 0.03516047
v -0.04740689 0.03415924 0.03358136
v -0.04887692 0.03344594 0.03440480
v -0.05466739 0.03351010 0.03448077
v -0.05181399 0.03207262 0.03598391
v -0.05328401 0.03349813 0.03446435
v -0.05181399 0.03896534 0.02672483
v -0.05466739 0.03861848 0.02753184
v -0.05181399 0.03779318 0.02869000
v -0.05328401 0.03856302 0.02751952
v -0.05181399 0.03852823 0.02745997
v -0.05034495 0.03892620 0.02665912
v -0.04887692 0.04005378 0.02460976
v -0.04740689 0.03768009 0.02850724
v -0.04593786 0.03604036 0.03113978
v -0.04449373 0.03548473 0.03178663
v -0.05181399 0.02947493 0.03864521
v -0.04449373 0.03475076 0.03274970
v -0.04593786 0.03479752 0.03281952
v -0.05034495 0.03346334 0.03442533
v -0.04887692 0.03418099 0.03359573
v -0.05466739 0.03355359 0.03443149
v -0.04887692 0.03771924 0.02857090
v -0.05466739 0.03859238 0.02757497
v -0.05034495 0.03775729 0.02863045
v -0.05328401 0.03782797 0.02872696
v -0.04740689 0.03607190 0.03117469
v -0.04593786 0.03553148 0.03187493
v -0.04740689 0.03480622 0.03284621
v -0.04740689 0.03553910 0.03190984
v -0.05328401 0.03423210 0.03363269
v -0.05466739 0.03424515 0.03364091
v -0.05466739 0.03785842 0.02873312
v -0.04887692 0.03608821 0.03118701
v -0.05328401 0.03734193 0.02946005
v -0.04887692 0.03481057 0.03286059
v -0.04887692 0.03554344 0.03192215
v -0.05466739 0.03427885 0.03359779
v -0.05466739 0.03734736 0.02946826
v -0.05034495 0.03609256 0.03118701
v -0.05328401 0.03554562 0.03192421
v -0.05466739 0.03481274 0.03290577
v -0.05328401 0.03609364 0.03118907
v -0.05466739 0.03609473 0.03118907
v -0.05466739 0.03557824 0.03188109
f 1 2 6
f 1 6 12
f 1 12 22
f 1 22 41
f 1 41 65
f 1 65 48
f 1 48 29
f 1 29 15
f 1 15 7
f 1 7 3
f 1 3 4
f 1 4 10
f 1 10 20
f 1 20 40
f 1 40 64
f 1 64 66
f 1 66 42
f 1 42 26
f 1 26 24
f 1 24 13
f 1 13 5
f 1 5 2
f 2 5 6
f 3 7 16
f 3 16 31
f 3 31 52
f 3 52 70
f 3 70 80
f 3 80 86
f 3 86 90
f 3 90 93
f 3 93 92
f 3 92 87
f 3 87 81
f 3 81 72
f 3 72 56
f 3 56 33
f 3 33 17
f 3 17 9
f 3 9 8
f 3 8 4
f 4 8 9
f 4 9 17
f 4 17 32
f 4 32 35
f 4 35 18
f 4 18 10
f 5 11 12
f 5 12 6
f 5 13 14
f 5 14 11
f 7 15 16
f 10 18 19
f 10 19 20
f 11 21 22
f 11 22 12
f 11 14 23
f 11 23 21
f 13 24 14
f 14 24 25
f 14 25 26
f 14 26 27
f 14 27 28
f 14 28 21
f 14 21 23
f 15 29 30
f 15 30 16
f 16 30 31
f 17 33 34
f 17 34 32
f 18 35 36
f 18 36 37
f 18 37 19
f 19 37 38
f 19 38 39
f 19 39 40
f 19 40 20
f 21 28 22
f 22 28 41
f 24 26 25
f 26 42 43
f 26 43 27
f 27 44 28
f 27 43 45
f 27 45 44
f 28 44 46
f 28 46 47
f 28 47 41
f 29 48 46
f 29 46 44
f 29 44 30
f 30 49 31
f 30 44 45
f 30 45 50
f 30 50 51
f 30 51 49
f 31 49 53
f 31 53 54
f 31 54 52
f 32 34 55
f 32 55 35
f 33 56 57
f 33 57 58
f 33 58 59
f 33 59 34
f 34 59 55
f 35 55 60
f 35 60 39
f 35 39 61
f 35 61 36
f 36 61 38
f 36 38 37
f 38 61 39
f 39 60 55
f 39 55 62
f 39 62 63
f 39 63 40
f 40 63 64
f 41 47 65
f 42 45 43
f 42 66 45
f 45 66 67
f 45 67 50
f 46 48 65
f 46 65 47
f 49 51 68
f 49 68 54
f 49 54 53
f 50 67 69
f 50 69 54
f 50 54 68
f 50 68 51
f 52 54 69
f 52 69 70
f 55 59 71
f 55 71 62
f 56 72 57
f 57 73 59
f 57 59 58
f 57 72 74
f 57 74 63
f 57 63 73
f 59 73 71
f 62 71 63
f 63 75 76
f 63 76 64
f 63 71 73
f 63 74 75
f 64 76 66
f 66 76 67
f 67 77 69
f 67 76 78
f 67 78 77
f 69 77 79
f 69 79 70
f 70 79 80
f 72 81 74
f 74 81 75
f 75 82 78
f 75 78 76
f 75 81 83
f 75 83 82
f 77 84 80
f 77 80 79
f 77 78 84
f 78 82 85
f 78 85 84
f 80 84 86
f 81 87 83
f 82 88 85
f 82 83 87
f 82 87 88
f 84 85 86
f 85 89 90
f 85 90 86
f 85 88 91
f 85 91 89
f 87 92 91
f 87 91 88
f 89 91 92
f 89 92 93
f 89 93 90

