# https://github.com/mikedh/trimesh
v -0.03500145 -0.00591342 0.03611811
v -0.03570118 -0.00591342 0.03023683
v -0.03654951 -0.00591342 0.03611811
v -0.03491491 -0.01031302 0.03611811
v -0.03491605 -0.01109217 0.03537813
v -0.03561123 -0.01770808 0.02729710
v -0.03571257 -0.00591342 0.03020286
v -0.03574104 -0.01770808 0.02673983
v -0.03963252 -0.00591342 0.02673983
v -0.03963878 -0.00594646 0.02673983
v -0.04073079 -0.03403724 0.03611811
v -0.03491548 -0.01034605 0.03611811
v -0.03491605 -0.01109492 0.03537997
v -0.03491605 -0.01109492 0.03537813
v -0.03553892 -0.02945868 0.02673983
v -0.03554689 -0.02652103 0.02673983
v -0.03554859 -0.02596214 0.02673983
v -0.03555315 -0.02505083 0.02673983
v -0.03556055 -0.02358338 0.02673983
v -0.03557536 -0.02211318 0.02673983
v -0.03556738 -0.01917553 0.02729710
v -0.03560724 -0.02064298 0.02673983
v -0.03565336 -0.01917553 0.02673983
v -0.03611737 -0.00591342 0.02903597
v -0.03588052 -0.01628193 0.02673983
v -0.03763070 -0.00591342 0.02673983
v -0.03978909 -0.00741942 0.02673983
v -0.03786584 -0.03403724 0.02673983
v -0.03855475 -0.03403724 0.03611811
v -0.03562944 -0.02211593 0.03611811
v -0.03562830 -0.02211318 0.03611352
v -0.03549166 -0.02211318 0.03464366
v -0.03548198 -0.02358338 0.03317472
v -0.03555258 -0.03092889 0.02729710
v -0.03554689 -0.03092889 0.02673983
v -0.03660701 -0.00591342 0.02827671
v -0.03604734 -0.01476767 0.02673983
v -0.03622953 -0.01355076 0.02673983
v -0.03753163 -0.00591342 0.02688213
v -0.03616406 -0.03403724 0.02673983
v -0.03844372 -0.03386103 0.03611811
v -0.03798938 -0.03403724 0.03508159
v -0.03777588 -0.03329112 0.03556083
v -0.03582416 -0.02358889 0.03611811
v -0.03582245 -0.02358338 0.03611352
v -0.03558105 -0.02358338 0.03464366
v -0.03556909 -0.02505083 0.03317472
v -0.03570346 -0.03092889 0.02876697
v -0.03571484 -0.03239909 0.02673983
v -0.03614812 -0.03398768 0.02673983
v -0.03623409 -0.03403724 0.02711900
v -0.03762386 -0.03243763 0.03611811
v -0.03773090 -0.03403724 0.03436823
v -0.03758401 -0.03239358 0.03607588
v -0.03758970 -0.03237156 0.03611811
v -0.03577975 -0.02505083 0.03464366
v -0.03607467 -0.02505634 0.03611811
v -0.03635593 -0.02742132 0.03551860
v -0.03602400 -0.02652103 0.03464366
v -0.03575470 -0.02652103 0.03317472
v -0.03596080 -0.03092889 0.03023683
v -0.03577463 -0.03239909 0.02729710
v -0.03611282 -0.03387755 0.02673983
v -0.03747014 -0.03403724 0.03317472
v -0.03620334 -0.03388031 0.02722366
v -0.03629615 -0.03340125 0.02847042
v -0.03750658 -0.03403724 0.03334365
v -0.03769105 -0.03381698 0.03452156
v -0.03724923 -0.03239909 0.03464366
v -0.03717522 -0.03093439 0.03611811
v -0.03630013 -0.02636135 0.03611811
v -0.03629330 -0.02640815 0.03605018
v -0.03634910 -0.02892732 0.03409832
v -0.03627110 -0.02794168 0.03461061
v -0.03717294 -0.03092889 0.03611352
v -0.03600123 -0.02799124 0.03317472
v -0.03624662 -0.03092613 0.03171220
v -0.03633543 -0.03182092 0.03122837
v -0.03625857 -0.02943391 0.03316186
v -0.03610086 -0.03252573 0.02888265
v -0.03741378 -0.03386929 0.03317472
v -0.03634226 -0.03043331 0.03266334
f 1 2 7
f 1 7 24
f 1 24 36
f 1 36 39
f 1 39 26
f 1 26 9
f 1 9 3
f 1 3 11
f 1 11 29
f 1 29 41
f 1 41 52
f 1 52 55
f 1 55 70
f 1 70 71
f 1 71 57
f 1 57 44
f 1 44 30
f 1 30 12
f 1 12 4
f 1 4 5
f 1 5 6
f 1 6 2
f 2 6 8
f 2 8 7
f 3 9 10
f 3 10 11
f 4 12 13
f 4 13 14
f 4 14 5
f 5 14 15
f 5 15 16
f 5 16 17
f 5 17 18
f 5 18 19
f 5 19 20
f 5 20 21
f 5 21 6
f 6 21 22
f 6 22 23
f 6 23 8
f 7 8 25
f 7 25 24
f 8 23 22
f 8 22 20
f 8 20 19
f 8 19 18
f 8 18 17
f 8 17 16
f 8 16 15
f 8 15 35
f 8 35 49
f 8 49 63
f 8 63 50
f 8 50 40
f 8 40 28
f 8 28 27
f 8 27 10
f 8 10 9
f 8 9 26
f 8 26 38
f 8 38 37
f 8 37 25
f 10 27 11
f 11 28 40
f 11 40 51
f 11 51 64
f 11 64 67
f 11 67 53
f 11 53 42
f 11 42 29
f 11 27 28
f 12 30 31
f 12 31 32
f 12 32 33
f 12 33 34
f 12 34 13
f 13 34 35
f 13 35 14
f 14 35 15
f 20 22 21
f 24 25 37
f 24 37 38
f 24 38 36
f 26 39 38
f 29 42 43
f 29 43 41
f 30 44 45
f 30 45 31
f 31 45 46
f 31 46 32
f 32 46 47
f 32 47 33
f 33 47 34
f 34 48 49
f 34 49 35
f 34 47 48
f 36 38 39
f 40 50 51
f 41 43 52
f 42 53 43
f 43 54 55
f 43 55 52
f 43 53 54
f 44 56 45
f 44 57 58
f 44 58 59
f 44 59 56
f 45 56 46
f 46 56 60
f 46 60 48
f 46 48 47
f 48 61 62
f 48 62 49
f 48 60 61
f 49 62 63
f 50 63 51
f 51 63 65
f 51 65 66
f 51 66 64
f 53 67 68
f 53 68 54
f 54 68 69
f 54 69 70
f 54 70 55
f 56 59 60
f 57 71 72
f 57 72 58
f 58 73 74
f 58 74 59
f 58 72 71
f 58 71 75
f 58 75 73
f 59 74 76
f 59 76 60
f 60 76 61
f 61 77 78
f 61 78 62
f 61 76 79
f 61 79 77
f 62 78 80
f 62 80 63
f 63 80 65
f 64 66 81
f 64 81 67
f 65 80 78
f 65 78 66
f 66 78 81
f 67 81 68
f 68 81 69
f 69 78 70
f 69 81 78
f 70 78 75
f 70 75 71
f 73 79 76
f 73 76 74
f 73 75 82
f 73 82 79
f 75 78 77
f 75 77 82
f 77 79 82

