# https://github.com/mikedh/trimesh
v -0.04281391 -0.05327210 0.00094098
v -0.04276752 -0.05322691 0.00084685
v -0.04281391 -0.05326645 0.00242205
v -0.04281391 -0.05326833 0.00016490
v -0.04277020 -0.05322691 0.00016490
v -0.04204072 -0.05249261 0.00016490
v -0.04281391 -0.05324386 0.00538229
v -0.04281391 -0.05072088 0.00016490
v -0.04173278 -0.05203321 0.00016490
v -0.04204542 -0.05249073 0.00084685
v -0.04281391 -0.05323067 0.00686144
v -0.04053468 -0.03403912 0.00016490
v -0.04281391 -0.04811506 0.01978965
v -0.04036995 -0.04997152 0.00016490
v -0.04281391 -0.05321561 0.00834252
v -0.04206358 -0.05247943 0.00231640
v -0.04281391 -0.05319302 0.00981591
v -0.04046139 -0.03403912 0.00089679
v -0.03897485 -0.03403912 0.00016490
v -0.04281391 -0.05036314 0.01978965
v -0.03738611 -0.03403912 0.01978965
v -0.03813779 -0.03403912 0.01565954
v -0.03973392 -0.03403912 0.00655024
v -0.03995714 -0.03403912 0.00508838
v -0.04002908 -0.04943115 0.00016490
v -0.04040222 -0.04991880 0.00231640
v -0.04217653 -0.05237211 0.00966415
v -0.04215300 -0.05239847 0.00819460
v -0.04213081 -0.05242295 0.00672505
v -0.04210862 -0.05244366 0.00525550
v -0.04208644 -0.05246248 0.00378595
v -0.04273793 -0.05310641 0.00966415
v -0.04273995 -0.05306122 0.01113178
v -0.04281391 -0.05314972 0.01113178
v -0.03778212 -0.03733405 0.00115997
v -0.03791121 -0.03764848 0.00016490
v -0.03627473 -0.03403912 0.01651630
v -0.03636752 -0.03455125 0.01469713
v -0.04281391 -0.05046105 0.01959563
v -0.04250261 -0.05060414 0.01886758
v -0.04198827 -0.04976064 0.01978965
v -0.03594596 -0.03403912 0.01978965
v -0.03963509 -0.04880417 0.00016490
v -0.03964517 -0.04878723 0.00084685
v -0.03918664 -0.04805293 0.00084685
v -0.04220880 -0.05232504 0.01113178
v -0.04224040 -0.05227609 0.01222867
v -0.04227671 -0.05222337 0.01320837
v -0.04270768 -0.05284846 0.01267049
v -0.04281391 -0.05313465 0.01126817
v -0.03778615 -0.03844114 0.00016490
v -0.03790045 -0.03769367 0.00016490
v -0.03790314 -0.03766543 0.00018027
v -0.03790448 -0.03767484 0.00016490
v -0.03631171 -0.03435920 0.01554044
v -0.03627809 -0.03534015 0.01554044
v -0.03755218 -0.03827922 0.00231640
v -0.04281391 -0.05071146 0.01909233
v -0.04281391 -0.05094305 0.01858327
v -0.04281391 -0.05154555 0.01725395
v -0.04219132 -0.05083573 0.01788788
v -0.04188608 -0.04966274 0.01978965
v -0.03607505 -0.03534015 0.01978965
v -0.03610261 -0.03534015 0.01847954
v -0.03616649 -0.03534015 0.01700999
v -0.03938834 -0.04841066 0.00016490
v -0.03917655 -0.04806987 0.00016490
v -0.03876508 -0.04709458 0.00231640
v -0.03881349 -0.04709458 0.00378595
v -0.03922361 -0.04799833 0.00231640
v -0.04110280 -0.05022005 0.01260134
v -0.04073369 -0.04940479 0.01407089
v -0.04190961 -0.05164158 0.01267049
v -0.03926866 -0.04792678 0.00378595
v -0.04055283 -0.04972487 0.00819460
v -0.04188742 -0.05142505 0.01407089
v -0.04232646 -0.05216124 0.01407089
v -0.04076865 -0.04934266 0.01506788
v -0.04281391 -0.05297649 0.01266281
v -0.03779691 -0.03964615 0.00016490
v -0.03638231 -0.03610645 0.01476244
v -0.03740897 -0.03827922 0.00378595
v -0.04281391 -0.05224220 0.01554044
v -0.04207097 -0.05101083 0.01700999
v -0.04114382 -0.04892467 0.01978965
v -0.04252480 -0.05199555 0.01554044
v -0.03631507 -0.03645101 0.01700999
v -0.03630163 -0.03650185 0.01978965
v -0.03630499 -0.03648301 0.01847954
v -0.03757369 -0.04268690 0.00819460
v -0.03779893 -0.04371680 0.00525550
v -0.03782246 -0.04360195 0.00410291
v -0.03635205 -0.03627402 0.01554044
v -0.03874020 -0.04709458 0.00016490
v -0.03874020 -0.04709458 0.00084685
v -0.03777203 -0.04364902 0.01554044
v -0.03778212 -0.04359630 0.01700999
v -0.03894459 -0.04703244 0.00672505
v -0.03897149 -0.04723202 0.00532466
v -0.03813308 -0.04432872 0.01700999
v -0.03908041 -0.04679332 0.01113178
v -0.03930228 -0.04786841 0.00488091
v -0.03912545 -0.04671236 0.01260134
v -0.03917117 -0.04663140 0.01407089
v -0.03921689 -0.04654856 0.01554044
v -0.04050845 -0.04832217 0.01847954
v -0.04281391 -0.05268654 0.01404591
v -0.04057233 -0.04819037 0.01978965
v -0.04195062 -0.05125937 0.01554044
v -0.03927673 -0.04644312 0.01700999
v -0.03970165 -0.04717742 0.01700999
v -0.04043652 -0.04844644 0.01700999
v -0.03777001 -0.03986456 0.00073159
v -0.03782179 -0.04237247 0.00262376
v -0.03782111 -0.04091140 0.00114460
v -0.03845177 -0.04562409 0.00016490
v -0.03729266 -0.03827922 0.00525550
v -0.03777271 -0.04279234 0.00368222
v -0.03718105 -0.03974970 0.00819460
v -0.04062342 -0.04826945 0.01978965
v -0.03737871 -0.04121830 0.01978965
v -0.03726711 -0.04121830 0.01847954
v -0.03755083 -0.04268690 0.01700999
v -0.03724693 -0.04121830 0.01700999
v -0.03754344 -0.04268690 0.01554044
v -0.03778683 -0.04376576 0.00819460
v -0.03779019 -0.04375069 0.00672505
v -0.03778413 -0.04378082 0.00966415
v -0.03778077 -0.04377517 0.01113178
v -0.03781439 -0.04351157 0.01798969
v -0.03899973 -0.04548665 0.01978965
v -0.03899838 -0.04572953 0.01838157
v -0.03882021 -0.04562409 0.01700999
v -0.03931640 -0.04637346 0.01782641
v -0.03772699 -0.04236494 0.01978965
v -0.03891165 -0.04530778 0.01978965
f 1 2 3
f 1 3 7
f 1 7 11
f 1 11 15
f 1 15 17
f 1 17 34
f 1 34 50
f 1 50 79
f 1 79 107
f 1 107 83
f 1 83 60
f 1 60 59
f 1 59 58
f 1 58 39
f 1 39 20
f 1 20 13
f 1 13 8
f 1 8 4
f 1 4 5
f 1 5 2
f 2 5 6
f 2 6 3
f 3 6 7
f 4 8 12
f 4 12 19
f 4 19 36
f 4 36 54
f 4 54 52
f 4 52 51
f 4 51 80
f 4 80 116
f 4 116 94
f 4 94 67
f 4 67 66
f 4 66 43
f 4 43 25
f 4 25 14
f 4 14 9
f 4 9 6
f 4 6 5
f 6 9 10
f 6 10 11
f 6 11 7
f 8 13 12
f 9 14 10
f 10 15 11
f 10 14 16
f 10 16 17
f 10 17 15
f 12 18 24
f 12 24 23
f 12 23 22
f 12 22 21
f 12 21 42
f 12 42 37
f 12 37 19
f 12 13 18
f 13 20 41
f 13 41 62
f 13 62 85
f 13 85 120
f 13 120 108
f 13 108 131
f 13 131 136
f 13 136 135
f 13 135 121
f 13 121 88
f 13 88 63
f 13 63 42
f 13 42 21
f 13 21 22
f 13 22 23
f 13 23 24
f 13 24 18
f 14 25 26
f 14 26 27
f 14 27 28
f 14 28 29
f 14 29 30
f 14 30 31
f 14 31 16
f 16 31 32
f 16 32 17
f 17 33 34
f 17 32 33
f 19 35 36
f 19 37 38
f 19 38 35
f 20 39 40
f 20 40 41
f 25 43 44
f 25 44 26
f 26 44 27
f 27 44 45
f 27 45 46
f 27 46 33
f 27 33 28
f 28 33 29
f 29 33 30
f 30 33 32
f 30 32 31
f 33 46 47
f 33 47 48
f 33 48 49
f 33 49 50
f 33 50 34
f 35 51 52
f 35 52 53
f 35 53 36
f 35 38 51
f 36 53 54
f 37 42 55
f 37 55 38
f 38 55 42
f 38 42 56
f 38 56 57
f 38 57 51
f 39 58 40
f 40 58 59
f 40 59 60
f 40 60 61
f 40 61 41
f 41 61 62
f 42 63 64
f 42 64 65
f 42 65 56
f 43 66 44
f 44 66 45
f 45 66 67
f 45 67 68
f 45 68 69
f 45 69 70
f 45 70 46
f 46 70 47
f 47 71 72
f 47 72 73
f 47 73 48
f 47 70 74
f 47 74 75
f 47 75 71
f 48 76 77
f 48 77 49
f 48 73 72
f 48 72 78
f 48 78 76
f 49 77 79
f 49 79 50
f 51 57 80
f 52 54 53
f 56 65 81
f 56 81 82
f 56 82 57
f 57 82 80
f 60 83 61
f 61 84 85
f 61 85 62
f 61 83 86
f 61 86 84
f 63 87 64
f 63 88 89
f 63 89 90
f 63 90 91
f 63 91 87
f 64 87 92
f 64 92 93
f 64 93 65
f 65 93 81
f 67 94 95
f 67 95 68
f 68 95 96
f 68 96 97
f 68 97 69
f 69 98 99
f 69 99 70
f 69 97 100
f 69 100 98
f 70 99 74
f 71 101 72
f 71 75 102
f 71 102 101
f 72 101 103
f 72 103 104
f 72 104 105
f 72 105 78
f 74 99 102
f 74 102 75
f 76 78 106
f 76 106 77
f 77 107 79
f 77 106 108
f 77 108 109
f 77 109 84
f 77 84 86
f 77 86 107
f 78 105 110
f 78 110 111
f 78 111 112
f 78 112 106
f 80 113 114
f 80 114 115
f 80 115 116
f 80 82 117
f 80 117 113
f 81 93 92
f 81 92 118
f 81 118 119
f 81 119 117
f 81 117 82
f 83 107 86
f 84 120 85
f 84 109 120
f 87 91 92
f 88 121 122
f 88 122 123
f 88 123 124
f 88 124 125
f 88 125 126
f 88 126 127
f 88 127 90
f 88 90 89
f 90 127 91
f 91 127 94
f 91 94 92
f 92 94 116
f 92 116 114
f 92 114 118
f 94 127 126
f 94 126 128
f 94 128 129
f 94 129 95
f 95 129 96
f 96 129 125
f 96 125 123
f 96 123 97
f 97 123 130
f 97 130 100
f 98 102 99
f 98 100 101
f 98 101 102
f 100 130 131
f 100 131 132
f 100 132 133
f 100 133 105
f 100 105 104
f 100 104 103
f 100 103 101
f 105 133 110
f 106 112 111
f 106 111 134
f 106 134 132
f 106 132 131
f 106 131 108
f 108 120 109
f 110 133 132
f 110 132 134
f 110 134 111
f 113 118 114
f 113 117 118
f 114 116 115
f 117 119 118
f 121 135 130
f 121 130 122
f 122 130 123
f 123 125 124
f 125 129 128
f 125 128 126
f 130 135 136
f 130 136 131

