# https://github.com/mikedh/trimesh
v -0.05181463 -0.04094650 -0.03740156
v -0.05034487 -0.04094650 -0.03730763
v -0.05328440 -0.04094650 -0.03727437
v -0.05181463 -0.04033838 -0.03795335
v -0.05034487 -0.04030662 -0.03791617
v -0.04930482 -0.04080677 -0.03695542
v -0.04984470 -0.04094650 -0.03707282
v -0.04930978 -0.03933966 -0.03836035
v -0.05431155 -0.04094650 -0.03716871
v -0.05328440 -0.04024629 -0.03789073
v -0.05328440 -0.03951273 -0.03849144
v -0.05181463 -0.03960482 -0.03852862
v -0.05034487 -0.03957307 -0.03851493
v -0.04935147 -0.03776935 -0.03972614
v -0.04788964 -0.03634987 -0.03983767
v -0.04881854 -0.03980965 -0.03742308
v -0.04832631 -0.04027963 -0.03642711
v -0.04787476 -0.04076232 -0.03544679
v -0.04916291 -0.04094650 -0.03665800
v -0.04793629 -0.03487482 -0.04128955
v -0.05431155 -0.04017007 -0.03783399
v -0.05431155 -0.04094650 -0.03495566
v -0.05431155 -0.03965722 -0.03825860
v -0.05431155 -0.03943652 -0.03844057
v -0.05431155 -0.03880458 -0.03895323
v -0.05431155 -0.03800275 -0.03957938
v -0.05181463 -0.03858388 -0.03926239
v -0.05034487 -0.03787255 -0.03979854
v -0.05034487 -0.03860769 -0.03925065
v -0.05328440 -0.03782016 -0.03976135
v -0.04955988 -0.03609741 -0.04105083
v -0.04899320 -0.03535433 -0.04140304
v -0.04649729 -0.03630859 -0.03832708
v -0.04505630 -0.03774077 -0.03535287
v -0.04596039 -0.03825203 -0.03586749
v -0.04644767 -0.03925869 -0.03539983
v -0.04501661 -0.03921582 -0.03388924
v -0.04689525 -0.04023835 -0.03491261
v -0.04546716 -0.04019548 -0.03339615
v -0.04644668 -0.04071627 -0.03393229
v -0.04821416 -0.04094650 -0.03562681
v -0.04809110 -0.03323623 -0.04255164
v -0.04773582 -0.03378401 -0.04177482
v -0.04660645 -0.03473192 -0.03965961
v -0.04451544 -0.04094650 -0.02783125
v -0.04419191 -0.04043682 -0.02783125
v -0.04417405 -0.04040983 -0.02783125
v -0.05431155 -0.02472572 -0.04604242
v -0.05431155 -0.03778046 -0.03973983
v -0.05181463 -0.03785032 -0.03977897
v -0.05034487 -0.03683097 -0.04053230
v -0.05431155 -0.03529082 -0.04151458
v -0.05034487 -0.03609741 -0.04104888
v -0.05034487 -0.03429687 -0.04227770
v -0.05034487 -0.03356172 -0.04276883
v -0.04887610 -0.03416508 -0.04221704
v -0.04516944 -0.03614028 -0.03667561
v -0.04488065 -0.03670077 -0.03586357
v -0.04417405 -0.03842034 -0.03360552
v -0.04417405 -0.03948415 -0.03268978
v -0.04546816 -0.03872043 -0.03486956
v -0.04452933 -0.03968421 -0.03288741
v -0.04502157 -0.04067022 -0.03241779
v -0.04687143 -0.04094650 -0.03415732
v -0.04887610 -0.03342994 -0.04267295
v -0.04954400 -0.02879838 -0.04548280
v -0.04953308 -0.02591814 -0.04697773
v -0.04935841 -0.02505439 -0.04716362
v -0.04793133 -0.03240106 -0.04272578
v -0.04514463 -0.02887618 -0.04109780
v -0.04533319 -0.02985584 -0.04085516
v -0.04651614 -0.03202634 -0.04122694
v -0.04674142 -0.03300441 -0.04095104
v -0.04693693 -0.03386975 -0.04067710
v -0.04641393 -0.03386975 -0.03994137
v -0.04417405 -0.04094650 -0.02783125
v -0.04417405 -0.02472572 -0.03890236
v -0.05431155 -0.02472572 -0.04781912
v -0.05431155 -0.03455885 -0.04202919
v -0.05431155 -0.03424129 -0.04225030
v -0.05328440 -0.03425558 -0.04226009
v -0.05181463 -0.03427623 -0.04226987
v -0.05181463 -0.03354267 -0.04276492
v -0.05431155 -0.03086091 -0.04436747
v -0.05328440 -0.03087043 -0.04436747
v -0.05181463 -0.03087043 -0.04435964
v -0.05034487 -0.03085773 -0.04435182
v -0.04499378 -0.03533845 -0.03693390
v -0.04417405 -0.03679762 -0.03478347
v -0.04417405 -0.04002558 -0.03213016
v -0.04553167 -0.04094650 -0.03268586
v -0.04417405 -0.04039713 -0.03173098
v -0.04446780 -0.04094650 -0.03146292
v -0.04473675 -0.04094650 -0.03177599
v -0.05034487 -0.02957639 -0.04508558
v -0.05034487 -0.02884125 -0.04550628
v -0.05034487 -0.02603881 -0.04704817
v -0.05034487 -0.02505439 -0.04751191
v -0.05031510 -0.02472572 -0.04766063
v -0.04955590 -0.02472572 -0.04739256
v -0.04929986 -0.02472572 -0.04723210
v -0.04862502 -0.02505439 -0.04638876
v -0.04657569 -0.02899367 -0.04260838
v -0.04565771 -0.02799337 -0.04200963
v -0.04498088 -0.02799337 -0.04127390
v -0.04827867 -0.02688192 -0.04529300
v -0.04800675 -0.02909847 -0.04411897
v -0.04706991 -0.02799337 -0.04354174
v -0.04417405 -0.02652309 -0.04095495
v -0.04417405 -0.02785365 -0.04032880
v -0.04417405 -0.02802989 -0.04024271
v -0.04417405 -0.02945095 -0.03942284
v -0.04555052 -0.03093236 -0.04053230
v -0.04596536 -0.03233596 -0.04025836
v -0.04417405 -0.04094650 -0.03108135
v -0.04417405 -0.02472572 -0.04167503
v -0.05328440 -0.02472572 -0.04781521
v -0.05431155 -0.02612614 -0.04710492
v -0.05431155 -0.03372844 -0.04260056
v -0.05328440 -0.03352203 -0.04275709
v -0.05431155 -0.02999398 -0.04488209
v -0.05431155 -0.03350615 -0.04274926
v -0.05431155 -0.02909847 -0.04540062
v -0.05431155 -0.02887777 -0.04552780
v -0.05328440 -0.02960338 -0.04510124
v -0.05181463 -0.02610391 -0.04709122
v -0.04417405 -0.03098952 -0.03848949
v -0.04423359 -0.03531781 -0.03582444
v -0.04417405 -0.03594498 -0.03533330
v -0.04504241 -0.03093236 -0.03979854
v -0.04417405 -0.04089251 -0.03116549
v -0.04426535 -0.04094650 -0.03121441
v -0.05181463 -0.02472572 -0.04780347
v -0.05084207 -0.02472572 -0.04773498
v -0.04873022 -0.02472572 -0.04662943
v -0.04856647 -0.02472572 -0.04645333
v -0.04794522 -0.02505439 -0.04565499
v -0.04684761 -0.02677713 -0.04378241
v -0.04508112 -0.02472572 -0.04267687
v -0.04417405 -0.02496865 -0.04158502
v -0.04780430 -0.02799337 -0.04433812
v -0.04417405 -0.03028772 -0.03891997
v -0.04417405 -0.03076564 -0.03863037
v -0.04417405 -0.03526541 -0.03576965
v -0.04803850 -0.02472572 -0.04588197
v -0.04666898 -0.02579747 -0.04397613
f 1 2 7
f 1 7 19
f 1 19 41
f 1 41 64
f 1 64 91
f 1 91 94
f 1 94 93
f 1 93 132
f 1 132 115
f 1 115 76
f 1 76 45
f 1 45 22
f 1 22 9
f 1 9 3
f 1 3 4
f 1 4 5
f 1 5 2
f 2 6 7
f 2 5 8
f 2 8 6
f 3 9 10
f 3 10 4
f 4 10 11
f 4 11 12
f 4 12 13
f 4 13 5
f 5 13 14
f 5 14 8
f 6 8 15
f 6 15 16
f 6 16 17
f 6 17 18
f 6 18 19
f 6 19 7
f 8 14 20
f 8 20 15
f 9 21 10
f 9 22 48
f 9 48 78
f 9 78 118
f 9 118 124
f 9 124 123
f 9 123 121
f 9 121 84
f 9 84 122
f 9 122 119
f 9 119 80
f 9 80 79
f 9 79 52
f 9 52 49
f 9 49 26
f 9 26 25
f 9 25 24
f 9 24 23
f 9 23 21
f 10 21 23
f 10 23 24
f 10 24 11
f 11 24 25
f 11 25 26
f 11 26 12
f 12 27 28
f 12 28 29
f 12 29 13
f 12 26 30
f 12 30 27
f 13 29 31
f 13 31 14
f 14 31 32
f 14 32 20
f 15 20 33
f 15 33 34
f 15 34 35
f 15 35 17
f 15 17 16
f 17 35 36
f 17 36 37
f 17 37 38
f 17 38 18
f 18 38 39
f 18 39 40
f 18 40 41
f 18 41 19
f 20 32 42
f 20 42 43
f 20 43 44
f 20 44 33
f 22 45 46
f 22 46 47
f 22 47 48
f 26 49 30
f 27 30 50
f 27 50 53
f 27 53 51
f 27 51 28
f 28 51 31
f 28 31 29
f 30 49 52
f 30 52 50
f 31 51 53
f 31 53 54
f 31 54 55
f 31 55 56
f 31 56 32
f 32 56 42
f 33 44 34
f 34 44 57
f 34 57 58
f 34 58 59
f 34 59 60
f 34 60 37
f 34 37 61
f 34 61 35
f 35 61 37
f 35 37 36
f 37 60 62
f 37 62 38
f 38 62 39
f 39 62 63
f 39 63 40
f 40 64 41
f 40 63 64
f 42 56 65
f 42 65 66
f 42 66 67
f 42 67 68
f 42 68 69
f 42 69 70
f 42 70 71
f 42 71 72
f 42 72 73
f 42 73 43
f 43 73 74
f 43 74 44
f 44 74 75
f 44 75 57
f 45 76 47
f 45 47 46
f 47 77 48
f 47 76 115
f 47 115 131
f 47 131 92
f 47 92 90
f 47 90 60
f 47 60 59
f 47 59 89
f 47 89 129
f 47 129 144
f 47 144 127
f 47 127 143
f 47 143 142
f 47 142 112
f 47 112 111
f 47 111 110
f 47 110 109
f 47 109 140
f 47 140 116
f 47 116 77
f 48 77 116
f 48 116 139
f 48 139 145
f 48 145 136
f 48 136 135
f 48 135 101
f 48 101 100
f 48 100 99
f 48 99 134
f 48 134 133
f 48 133 117
f 48 117 78
f 50 52 79
f 50 79 53
f 53 79 80
f 53 80 81
f 53 81 82
f 53 82 54
f 54 82 120
f 54 120 83
f 54 83 55
f 55 83 84
f 55 84 85
f 55 85 86
f 55 86 87
f 55 87 66
f 55 66 65
f 55 65 56
f 57 88 89
f 57 89 58
f 57 75 88
f 58 89 59
f 60 90 62
f 62 90 63
f 63 91 64
f 63 90 92
f 63 92 93
f 63 93 94
f 63 94 91
f 66 87 95
f 66 95 96
f 66 96 97
f 66 97 67
f 67 97 98
f 67 98 99
f 67 99 100
f 67 100 68
f 68 100 101
f 68 101 102
f 68 102 69
f 69 103 104
f 69 104 105
f 69 105 70
f 69 102 106
f 69 106 107
f 69 107 108
f 69 108 103
f 70 105 109
f 70 109 110
f 70 110 111
f 70 111 71
f 71 111 112
f 71 112 113
f 71 113 72
f 72 113 73
f 73 113 114
f 73 114 75
f 73 75 74
f 75 114 88
f 78 117 118
f 80 119 81
f 81 119 120
f 81 120 82
f 83 120 84
f 84 121 85
f 84 120 122
f 85 121 86
f 86 121 123
f 86 123 124
f 86 124 125
f 86 125 87
f 87 125 124
f 87 124 118
f 87 118 126
f 87 126 95
f 88 127 128
f 88 128 129
f 88 129 89
f 88 114 130
f 88 130 127
f 92 131 93
f 93 131 132
f 95 126 96
f 96 126 97
f 97 126 133
f 97 133 134
f 97 134 98
f 98 134 99
f 101 135 102
f 102 135 136
f 102 136 137
f 102 137 106
f 103 108 104
f 104 108 138
f 104 138 139
f 104 139 105
f 105 139 140
f 105 140 109
f 106 137 138
f 106 138 108
f 106 108 141
f 106 141 107
f 107 141 108
f 112 130 113
f 112 142 130
f 113 130 114
f 115 132 131
f 116 140 139
f 117 133 118
f 118 133 126
f 119 122 120
f 127 144 128
f 127 130 143
f 128 144 129
f 130 142 143
f 136 145 137
f 137 146 138
f 137 145 139
f 137 139 146
f 138 146 139

