# https://github.com/mikedh/trimesh
v 0.04391091 -0.04392047 -0.07321823
v 0.04391091 -0.04348072 -0.07321535
v 0.04495859 -0.04348072 -0.07284943
v 0.04495859 -0.04392047 -0.07284943
v 0.04483500 -0.04484370 -0.07272745
v 0.04391091 -0.04496779 -0.07284943
v 0.03747514 -0.04496779 -0.07284943
v 0.03375043 -0.04496779 -0.07284846
v 0.03581291 -0.04392047 -0.07295892
v 0.03375043 -0.04152475 -0.07285327
v 0.03446362 -0.04152475 -0.07285327
v 0.03556573 -0.04164884 -0.07272938
v 0.04533390 -0.04348072 -0.07180832
v 0.03446362 -0.04115329 -0.07180736
v 0.04533277 -0.04392047 -0.07180832
v 0.04391091 -0.04534133 -0.07180832
v 0.04495746 -0.04496738 -0.07180832
v 0.03581291 -0.04534633 -0.07180736
v 0.03375043 -0.04514603 -0.07235769
v 0.03375043 -0.04132861 -0.07230102
v 0.04533050 -0.04348072 -0.07045796
v 0.03446362 -0.04115246 -0.06340651
v 0.03375043 -0.04115329 -0.07180736
v 0.03375043 -0.04109957 -0.06340651
v 0.03416088 -0.04110082 -0.06340651
v 0.04532823 -0.04392047 -0.07045796
v 0.04391091 -0.04533717 -0.07045796
v 0.04256162 -0.04534092 -0.06340651
v 0.03581291 -0.04535382 -0.06340651
v 0.03581291 -0.04535382 -0.07045796
v 0.04495406 -0.04496321 -0.07045796
v 0.03375043 -0.04534383 -0.07180736
v 0.04531576 -0.04348072 -0.06776109
v 0.04528854 -0.04348072 -0.06340651
v 0.04529195 -0.04348072 -0.06371097
v 0.04530782 -0.04348072 -0.06640977
v 0.03375043 -0.04534716 -0.06340651
v 0.04531802 -0.04392047 -0.06910857
v 0.04391091 -0.04531676 -0.06776109
v 0.04391091 -0.04530594 -0.06640977
v 0.04391091 -0.04529344 -0.06506037
v 0.04391091 -0.04528012 -0.06371097
v 0.04391091 -0.04527679 -0.06340651
v 0.03375043 -0.04534716 -0.07045796
v 0.03375043 -0.04534633 -0.07117060
v 0.04530782 -0.04392047 -0.06776109
v 0.04494612 -0.04495447 -0.06910857
v 0.04526814 -0.04392047 -0.06340651
v 0.04528515 -0.04392047 -0.06506037
v 0.04529648 -0.04392047 -0.06640977
v 0.04493592 -0.04494447 -0.06776109
v 0.04492458 -0.04493323 -0.06640977
v 0.04491210 -0.04492115 -0.06506037
v 0.04489850 -0.04490783 -0.06371097
v 0.04489510 -0.04490450 -0.06340651
f 1 2 3
f 1 3 4
f 1 4 5
f 1 5 6
f 1 6 7
f 1 7 8
f 1 8 9
f 1 9 2
f 2 9 10
f 2 10 11
f 2 11 12
f 2 12 3
f 3 13 4
f 3 12 14
f 3 14 13
f 4 13 15
f 4 15 5
f 5 16 6
f 5 15 17
f 5 17 16
f 6 16 18
f 6 18 7
f 7 18 8
f 8 19 32
f 8 32 45
f 8 45 44
f 8 44 37
f 8 37 24
f 8 24 23
f 8 23 20
f 8 20 10
f 8 10 9
f 8 18 19
f 10 20 11
f 11 20 14
f 11 14 12
f 13 21 15
f 13 14 22
f 13 22 21
f 14 20 23
f 14 23 24
f 14 24 25
f 14 25 22
f 15 21 26
f 15 26 17
f 16 17 27
f 16 27 28
f 16 28 29
f 16 29 30
f 16 30 18
f 17 26 31
f 17 31 27
f 18 30 32
f 18 32 19
f 21 22 33
f 21 33 26
f 22 25 24
f 22 24 37
f 22 37 29
f 22 29 28
f 22 28 43
f 22 43 55
f 22 55 48
f 22 48 34
f 22 34 35
f 22 35 36
f 22 36 33
f 26 38 31
f 26 33 36
f 26 36 35
f 26 35 38
f 27 39 28
f 27 31 39
f 28 39 40
f 28 40 41
f 28 41 42
f 28 42 43
f 29 37 44
f 29 44 30
f 30 44 45
f 30 45 32
f 31 38 46
f 31 46 47
f 31 47 40
f 31 40 39
f 34 48 35
f 35 48 49
f 35 49 50
f 35 50 46
f 35 46 38
f 40 47 41
f 41 47 42
f 42 47 51
f 42 51 43
f 43 51 52
f 43 52 53
f 43 53 54
f 43 54 55
f 46 50 47
f 47 50 49
f 47 49 48
f 47 48 51
f 48 55 54
f 48 54 53
f 48 53 52
f 48 52 51

