# https://github.com/mikedh/trimesh
v -0.04510272 -0.03177155 0.05912964
v -0.04488810 -0.03177155 0.05794871
v -0.04509765 -0.03309589 0.05912964
v -0.04509089 -0.03309589 0.05914728
v -0.04471995 -0.03309589 0.06004039
v -0.04510272 0.00106956 0.05912964
v -0.04495908 0.00106956 0.05833674
v -0.04224333 -0.03309589 0.05505694
v -0.04488218 -0.03309589 0.05794871
v -0.04488641 -0.03309589 0.05797116
v -0.04488810 0.00106956 0.05794871
v -0.04204053 -0.03309589 0.06271650
v -0.04471995 0.00106956 0.06004039
v -0.03768554 -0.03309589 0.05505694
v -0.04222390 0.00106956 0.05505694
v -0.04112965 -0.03309589 0.06308770
v -0.04204053 0.00106956 0.06271650
v -0.03768554 -0.03307248 0.05505694
v -0.03647132 -0.03309589 0.05723038
v -0.03771596 0.00106956 0.05505694
v -0.03978108 -0.03309589 0.06324644
v -0.04112965 0.00106956 0.06308770
v -0.03647132 0.00106956 0.05723519
v -0.03647132 -0.03309589 0.06324644
v -0.03978108 0.00106956 0.06324644
v -0.03647132 0.00106956 0.06324644
f 1 2 3
f 1 3 4
f 1 4 5
f 1 5 13
f 1 13 6
f 1 6 7
f 1 7 2
f 2 8 9
f 2 9 10
f 2 10 3
f 2 7 11
f 2 11 8
f 3 10 9
f 3 9 8
f 3 8 14
f 3 14 19
f 3 19 24
f 3 24 21
f 3 21 16
f 3 16 12
f 3 12 5
f 3 5 4
f 5 12 17
f 5 17 13
f 6 13 17
f 6 17 22
f 6 22 25
f 6 25 26
f 6 26 23
f 6 23 20
f 6 20 15
f 6 15 11
f 6 11 7
f 8 11 15
f 8 15 20
f 8 20 18
f 8 18 14
f 12 16 22
f 12 22 17
f 14 18 19
f 16 21 25
f 16 25 22
f 18 20 23
f 18 23 19
f 19 23 26
f 19 26 24
f 21 24 26
f 21 26 25

