# https://github.com/mikedh/trimesh
v -0.03647131 -0.03309589 0.06323964
v -0.03978117 -0.03309589 0.06323964
v -0.03647131 -0.03946353 0.06323964
v -0.03647131 -0.03309589 0.05722509
v -0.04110426 -0.03309589 0.06309013
v -0.03978117 -0.03946353 0.06323964
v -0.03647131 -0.03946353 0.05659305
v -0.03647131 -0.03464744 -0.00618251
v -0.03768791 -0.03309589 -0.00618251
v -0.04072428 -0.03946353 0.06313091
v -0.04112982 -0.03309589 0.06308333
v -0.04112982 -0.03946353 0.06308333
v -0.04236004 -0.03946353 -0.00617572
v -0.03647131 -0.03757412 -0.00618251
v -0.04223566 -0.03309589 -0.00618251
v -0.04204056 -0.03309589 0.06271634
v -0.04204056 -0.03946353 0.06271634
v -0.04413297 -0.03946353 -0.00618251
v -0.04460836 -0.03506759 -0.00618251
v -0.04509823 -0.03309589 0.05912800
v -0.04471997 -0.03309589 0.06003868
v -0.04471997 -0.03946353 0.06003868
v -0.04505479 -0.03946353 -0.00618251
v -0.04472252 -0.03535682 -0.00618251
v -0.04517491 -0.03717081 0.05777558
v -0.04517491 -0.03852101 0.05777558
v -0.04509227 -0.03946353 0.05912800
v -0.04490484 -0.03582185 -0.00618251
v -0.04497896 -0.03633862 -0.00618251
v -0.04509823 -0.03717081 -0.00618251
v -0.04509823 -0.03852101 -0.00618251
v -0.04515276 -0.03946353 0.05777558
f 1 2 6
f 1 6 3
f 1 3 7
f 1 7 14
f 1 14 8
f 1 8 4
f 1 4 9
f 1 9 15
f 1 15 20
f 1 20 21
f 1 21 16
f 1 16 11
f 1 11 5
f 1 5 2
f 2 5 6
f 3 6 10
f 3 10 12
f 3 12 17
f 3 17 22
f 3 22 27
f 3 27 32
f 3 32 23
f 3 23 18
f 3 18 13
f 3 13 7
f 4 8 9
f 5 10 6
f 5 11 12
f 5 12 10
f 7 13 14
f 8 14 18
f 8 18 23
f 8 23 31
f 8 31 30
f 8 30 29
f 8 29 28
f 8 28 24
f 8 24 19
f 8 19 15
f 8 15 9
f 11 16 17
f 11 17 12
f 13 18 14
f 15 19 20
f 16 21 22
f 16 22 17
f 19 24 20
f 20 25 26
f 20 26 27
f 20 27 22
f 20 22 21
f 20 24 28
f 20 28 29
f 20 29 30
f 20 30 25
f 23 32 31
f 25 30 31
f 25 31 26
f 26 32 27
f 26 31 32

