# https://github.com/mikedh/trimesh
v 0.00032176 -0.04533034 0.03984080
v 0.00032176 -0.04111437 0.03984080
v 0.00032665 -0.04534604 0.03984080
v 0.00032176 -0.04534604 0.04023173
v 0.00032176 -0.03864942 0.04179967
v 0.02270407 -0.04111437 0.03984080
v 0.02531167 -0.04534604 0.03984080
v 0.00032176 -0.04534604 0.05431068
v 0.00032176 -0.03848323 0.04212970
v 0.02531167 -0.03864942 0.04179967
v 0.02531167 -0.04111509 0.03984080
v 0.02531167 -0.04534604 0.05431068
v 0.00032176 -0.03820934 0.05431068
v 0.00032176 -0.03808096 0.04293137
v 0.02531167 -0.03808096 0.04293137
v 0.02531167 -0.03820934 0.05431068
v 0.00032176 -0.03806028 0.04428120
v 0.00032176 -0.03807454 0.04332513
v 0.02531167 -0.03806456 0.04398375
v 0.02531167 -0.03806028 0.04428120
f 1 2 6
f 1 6 11
f 1 11 7
f 1 7 3
f 1 3 4
f 1 4 8
f 1 8 13
f 1 13 17
f 1 17 18
f 1 18 14
f 1 14 9
f 1 9 5
f 1 5 2
f 2 5 10
f 2 10 6
f 3 7 12
f 3 12 8
f 3 8 4
f 5 9 10
f 6 10 11
f 7 11 10
f 7 10 15
f 7 15 19
f 7 19 20
f 7 20 16
f 7 16 12
f 8 12 16
f 8 16 13
f 9 14 15
f 9 15 10
f 13 16 20
f 13 20 17
f 14 18 15
f 15 18 19
f 17 20 19
f 17 19 18

