# https://github.com/mikedh/trimesh
v 0.04154724 0.03299882 -0.07283336
v 0.03995488 0.03563264 -0.07307162
v 0.03995488 0.03572281 -0.07309072
v 0.04154460 0.03302303 -0.07283638
v 0.04226280 0.03299882 -0.07283336
v 0.04121949 0.03299882 -0.07182403
v 0.03995488 0.03479384 -0.07272580
v 0.04121264 0.03572281 -0.07315003
v 0.03995488 0.03697920 -0.07322040
v 0.04226596 0.03302303 -0.07283638
v 0.04474512 0.03492879 -0.07263833
v 0.04263796 0.03299882 -0.07180895
v 0.04391205 0.03572281 -0.07303442
v 0.04121633 0.03299882 -0.07180895
v 0.03995488 0.03461651 -0.07184514
v 0.04391205 0.03707179 -0.07315506
v 0.04256261 0.03572281 -0.07309977
v 0.03995488 0.03707179 -0.07322644
v 0.04121264 0.03707179 -0.07322644
v 0.04489160 0.03572281 -0.07278209
v 0.04519669 0.03572281 -0.07180895
v 0.04482415 0.03486949 -0.07180895
v 0.04264007 0.03299882 -0.07178382
v 0.04109303 0.03299882 -0.06295622
v 0.03995488 0.03578999 -0.07147016
v 0.04495905 0.03707179 -0.07284945
v 0.04391205 0.03842199 -0.07320532
v 0.03995488 0.03918091 -0.07322644
v 0.04121264 0.03918091 -0.07322644
v 0.04391205 0.03918091 -0.07321438
v 0.04533263 0.03707179 -0.07180895
v 0.04519669 0.03572281 -0.06295622
v 0.04264323 0.03299882 -0.07043470
v 0.04482415 0.03486949 -0.06295622
v 0.04265746 0.03299882 -0.06295622
v 0.04121791 0.03437262 -0.06295622
v 0.03995488 0.03918091 -0.07174059
v 0.04437048 0.03918091 -0.07305754
v 0.04495905 0.03918091 -0.07284945
v 0.04533474 0.03918091 -0.07180895
v 0.04533421 0.03842199 -0.07180895
v 0.04533790 0.03901811 -0.06295622
v 0.04533685 0.03842199 -0.06295622
v 0.04533263 0.03707179 -0.07045882
v 0.04533158 0.03707179 -0.06295622
v 0.04140550 0.03504197 -0.06295622
v 0.04155356 0.03556849 -0.06295622
v 0.04278181 0.03918091 -0.06296024
v 0.04533738 0.03918091 -0.06311908
v 0.04533685 0.03918091 -0.06295622
v 0.04278128 0.03917546 -0.06295622
v 0.04280394 0.03918091 -0.06295622
f 1 2 3
f 1 3 4
f 1 4 10
f 1 10 5
f 1 5 12
f 1 12 23
f 1 23 33
f 1 33 35
f 1 35 24
f 1 24 14
f 1 14 6
f 1 6 7
f 1 7 2
f 2 7 15
f 2 15 25
f 2 25 37
f 2 37 28
f 2 28 18
f 2 18 9
f 2 9 3
f 3 8 4
f 3 9 8
f 4 8 10
f 5 11 12
f 5 10 13
f 5 13 11
f 6 14 7
f 7 14 15
f 8 16 17
f 8 17 10
f 8 9 18
f 8 18 19
f 8 19 16
f 10 17 13
f 11 13 20
f 11 20 21
f 11 21 22
f 11 22 12
f 12 22 23
f 13 17 16
f 13 16 20
f 14 24 15
f 15 24 25
f 16 26 20
f 16 19 27
f 16 27 26
f 18 28 29
f 18 29 19
f 19 29 30
f 19 30 27
f 20 31 21
f 20 26 31
f 21 31 44
f 21 44 32
f 21 32 34
f 21 34 22
f 22 33 23
f 22 34 35
f 22 35 33
f 24 35 34
f 24 34 32
f 24 32 45
f 24 45 43
f 24 43 42
f 24 42 50
f 24 50 52
f 24 52 51
f 24 51 47
f 24 47 46
f 24 46 36
f 24 36 37
f 24 37 25
f 26 27 30
f 26 30 38
f 26 38 39
f 26 39 40
f 26 40 41
f 26 41 31
f 28 37 48
f 28 48 52
f 28 52 50
f 28 50 49
f 28 49 40
f 28 40 39
f 28 39 38
f 28 38 30
f 28 30 29
f 31 41 42
f 31 42 43
f 31 43 44
f 32 44 45
f 36 46 37
f 37 46 47
f 37 47 48
f 40 49 42
f 40 42 41
f 42 49 50
f 43 45 44
f 47 51 48
f 48 51 52

