# https://github.com/mikedh/trimesh
v 0.00032176 -0.03366806 0.06324644
v 0.00032176 -0.03987019 0.06324644
v 0.00032176 -0.03366806 0.05735980
v -0.02817723 -0.03366806 0.06324644
v 0.00032176 -0.04122012 0.06308760
v -0.03293682 -0.03987019 0.06324644
v 0.00032176 -0.03809962 0.05555693
v -0.03293682 -0.03805961 0.05555693
v -0.03293682 -0.03366806 0.05735679
v -0.03293682 -0.03366806 0.06324191
v -0.03293682 -0.03447162 0.06324644
v 0.00032176 -0.04210483 0.06271648
v -0.01953052 -0.04122012 0.06308760
v -0.03293682 -0.04112639 0.06306652
v -0.03168019 -0.04122012 0.06305900
v -0.03032914 -0.04122012 0.06306502
v -0.02898135 -0.04122012 0.06307029
v -0.02763030 -0.04122012 0.06307480
v -0.02627925 -0.04122012 0.06307857
v -0.02493145 -0.04122012 0.06308158
v -0.02222936 -0.04122012 0.06308610
v -0.02088156 -0.04122012 0.06308685
v 0.00032176 -0.04534421 0.05555693
v -0.03293682 -0.04534421 0.05555693
v 0.00032176 -0.04277923 0.06185833
v -0.01953052 -0.04208197 0.06271648
v -0.03293682 -0.04122012 0.06305297
v -0.02763030 -0.04206368 0.06270369
v -0.02627925 -0.04206826 0.06270746
v -0.02493145 -0.04207283 0.06271047
v -0.02358041 -0.04207626 0.06271273
v -0.02088156 -0.04208083 0.06271574
v 0.00032176 -0.04534421 0.05603568
v -0.03293682 -0.04534306 0.05643013
v 0.00032176 -0.04292554 0.06166186
v -0.03293682 -0.04375081 0.06044915
v -0.03293682 -0.04198253 0.06270821
v -0.03168019 -0.04204654 0.06268788
v -0.03032914 -0.04205225 0.06269391
v -0.02898135 -0.04205797 0.06269917
v 0.00032176 -0.04534306 0.05643013
v -0.03293682 -0.04533620 0.05652423
v 0.00032176 -0.04327988 0.06118385
v -0.03293682 -0.04203968 0.06268186
v -0.03293682 -0.04437948 0.05953153
v 0.00032176 -0.04378624 0.06047851
v 0.00032176 -0.04342847 0.06097835
v 0.00032176 -0.04526534 0.05738540
v -0.03293682 -0.04523219 0.05777984
v -0.03293682 -0.04442634 0.05946303
v 0.00032176 -0.04485956 0.05878855
v -0.03293682 -0.04485956 0.05878855
v 0.00032176 -0.04523219 0.05777984
v -0.03293682 -0.04520704 0.05784985
f 1 2 5
f 1 5 12
f 1 12 25
f 1 25 35
f 1 35 43
f 1 43 47
f 1 47 46
f 1 46 51
f 1 51 53
f 1 53 48
f 1 48 41
f 1 41 33
f 1 33 23
f 1 23 7
f 1 7 3
f 1 3 9
f 1 9 10
f 1 10 4
f 1 4 11
f 1 11 6
f 1 6 2
f 2 6 13
f 2 13 5
f 3 7 8
f 3 8 9
f 4 10 11
f 5 13 12
f 6 11 10
f 6 10 9
f 6 9 8
f 6 8 24
f 6 24 34
f 6 34 42
f 6 42 49
f 6 49 54
f 6 54 52
f 6 52 50
f 6 50 45
f 6 45 36
f 6 36 44
f 6 44 37
f 6 37 27
f 6 27 14
f 6 14 15
f 6 15 16
f 6 16 17
f 6 17 18
f 6 18 19
f 6 19 20
f 6 20 21
f 6 21 22
f 6 22 13
f 7 23 24
f 7 24 8
f 12 13 26
f 12 26 25
f 13 22 26
f 14 27 15
f 15 27 28
f 15 28 16
f 16 28 29
f 16 29 17
f 17 29 30
f 17 30 18
f 18 30 19
f 19 30 31
f 19 31 20
f 20 31 32
f 20 32 21
f 21 32 26
f 21 26 22
f 23 33 24
f 24 33 34
f 25 26 32
f 25 32 31
f 25 31 36
f 25 36 35
f 27 37 38
f 27 38 39
f 27 39 40
f 27 40 28
f 28 40 36
f 28 36 29
f 29 36 30
f 30 36 31
f 33 41 34
f 34 41 42
f 35 36 43
f 36 40 39
f 36 39 38
f 36 38 44
f 36 45 46
f 36 46 47
f 36 47 43
f 37 44 38
f 41 48 42
f 42 48 49
f 45 50 46
f 46 50 52
f 46 52 51
f 48 53 49
f 49 53 54
f 51 52 54
f 51 54 53

