# https://github.com/mikedh/trimesh
v 0.03031221 0.00106956 0.05844353
v 0.03050945 0.00106956 0.05820927
v 0.03031221 0.00106956 0.06048568
v 0.03031221 0.01412719 0.05746432
v 0.03176319 0.00106956 0.05769975
v 0.03105373 0.00106956 0.06252023
v 0.03031221 0.01817382 0.06226957
v 0.03031221 0.01547607 0.05741981
v 0.03311308 0.00106956 0.05753694
v 0.03128733 0.00106956 0.06264263
v 0.03031221 0.01952270 0.06232228
v 0.03660923 0.00106956 0.05727223
v 0.03031221 0.01817382 0.05736007
v 0.03176319 0.00106956 0.06289153
v 0.03176319 0.03167184 0.06289153
v 0.03168367 0.03253105 0.06284116
v 0.03139829 0.03253105 0.06269182
v 0.03106297 0.03253105 0.06251555
v 0.03031221 0.03167184 0.06056943
v 0.03660923 0.00106956 0.06300222
v 0.03660923 0.03252489 0.05726344
v 0.03031221 0.03167184 0.05736007
v 0.03311308 0.00106956 0.06324644
v 0.03311308 0.03253105 0.06324644
v 0.03262182 0.03253105 0.06311701
v 0.03031221 0.03253105 0.06039139
v 0.03031221 0.03246638 0.06040487
v 0.03446235 0.00106956 0.06324644
v 0.03660923 0.03253105 0.06308948
v 0.03031221 0.03173651 0.05736066
v 0.03031221 0.03253105 0.05737237
v 0.03660614 0.03253105 0.05726696
v 0.03660923 0.03253105 0.05727691
v 0.03446235 0.03253105 0.06324644
f 1 2 5
f 1 5 9
f 1 9 12
f 1 12 20
f 1 20 28
f 1 28 23
f 1 23 14
f 1 14 10
f 1 10 6
f 1 6 3
f 1 3 7
f 1 7 11
f 1 11 19
f 1 19 27
f 1 27 26
f 1 26 31
f 1 31 30
f 1 30 22
f 1 22 13
f 1 13 8
f 1 8 4
f 1 4 2
f 2 4 5
f 3 6 7
f 4 8 5
f 5 8 9
f 6 10 11
f 6 11 7
f 8 12 9
f 8 13 12
f 10 14 11
f 11 15 16
f 11 16 17
f 11 17 18
f 11 18 19
f 11 14 15
f 12 13 21
f 12 21 33
f 12 33 29
f 12 29 20
f 13 22 21
f 14 23 24
f 14 24 15
f 15 24 25
f 15 25 16
f 16 25 24
f 16 24 34
f 16 34 29
f 16 29 33
f 16 33 32
f 16 32 31
f 16 31 26
f 16 26 18
f 16 18 17
f 18 26 27
f 18 27 19
f 20 29 28
f 21 22 30
f 21 30 31
f 21 31 32
f 21 32 33
f 23 28 34
f 23 34 24
f 28 29 34

