# https://github.com/mikedh/trimesh
v 0.03254761 -0.02954161 0.05506425
v 0.03177154 -0.02915820 0.05506425
v 0.03254761 -0.02987479 0.05506425
v 0.03254446 -0.02954161 0.00108611
v 0.03176208 -0.02915374 0.00243543
v 0.03176208 -0.02915374 0.05506425
v 0.03254130 -0.02987785 0.05506425
v 0.03254446 -0.02987479 0.00108611
v 0.03250975 -0.02961008 0.00023674
v 0.03176208 -0.02919110 0.00108611
v 0.03041184 -0.02899806 0.00243543
v 0.03041184 -0.02897115 0.00378475
v 0.03041184 -0.02897115 0.05506425
v 0.03176208 -0.03013541 0.05506425
v 0.03176208 -0.03013464 0.00243543
v 0.03176208 -0.03010583 0.00108611
v 0.03250975 -0.02983220 0.00023674
v 0.03176208 -0.02948755 0.00014535
v 0.03089767 -0.02953804 0.00023136
v 0.03043392 -0.02933276 0.00110224
v 0.02906160 -0.02898926 0.00378475
v 0.02907107 -0.02931746 0.00244081
v 0.02770821 -0.02930471 0.00377937
v 0.00881752 -0.02905862 0.02268597
v 0.00746728 -0.02904243 0.02403529
v 0.00611705 -0.02902802 0.02538460
v 0.00476681 -0.02901514 0.02673392
v 0.00341657 -0.02900392 0.02807787
v 0.00206634 -0.02899423 0.02942719
v 0.02771137 -0.02898212 0.00513944
v 0.02636113 -0.02897664 0.00648876
v 0.02501089 -0.02897307 0.00783808
v 0.02366381 -0.02897128 0.00918740
v 0.02231357 -0.02897115 0.01053672
v 0.00032176 -0.02897115 0.05506425
v 0.03041184 -0.03026712 0.05506425
v 0.03041184 -0.03026635 0.00378475
v 0.03041184 -0.03024519 0.00243543
v 0.03043392 -0.03001861 0.00110224
v 0.03089767 -0.02988167 0.00023136
v 0.03176208 -0.02991189 0.00014535
v 0.01351811 -0.02971400 0.01658984
v 0.01214579 -0.02968302 0.01791766
v 0.01077662 -0.02965458 0.01924547
v 0.00803198 -0.02960486 0.02190648
v 0.00665966 -0.02958344 0.02323430
v 0.00528734 -0.02956405 0.02456211
v 0.00391503 -0.02954697 0.02588993
v 0.00117354 -0.02951892 0.02854556
v 0.02952535 -0.02952427 0.00156455
v 0.00344497 -0.02934283 0.02675543
v 0.00208527 -0.02932600 0.02808862
v 0.00071610 -0.02898607 0.03077650
v 0.00072241 -0.02931172 0.02942719
v 0.00032176 -0.02930841 0.02981962
v 0.00032176 -0.02907711 0.03077650
v 0.00032176 -0.02898416 0.03117431
v 0.01691263 -0.02897115 0.01593400
v 0.00032176 -0.02897370 0.03213120
v 0.00032176 -0.03027375 0.05506425
v 0.00032176 -0.02897115 0.03252363
v 0.00611705 -0.03027375 0.05506425
v 0.02231357 -0.03026635 0.01053672
v 0.02366381 -0.03026623 0.00918740
v 0.02501089 -0.03026483 0.00783808
v 0.02636113 -0.03026189 0.00648876
v 0.02771137 -0.03025756 0.00513944
v 0.02906160 -0.03025195 0.00378475
v 0.02634535 -0.03004781 0.00511794
v 0.02770821 -0.03003991 0.00377937
v 0.02907107 -0.03003009 0.00244081
v 0.00206634 -0.03024825 0.02942719
v 0.00341657 -0.03024098 0.02807787
v 0.00476681 -0.03023282 0.02673392
v 0.00611705 -0.03022377 0.02538460
v 0.00746728 -0.03021382 0.02403529
v 0.00881752 -0.03020311 0.02268597
v 0.02815619 -0.02990067 0.00289237
v 0.02952535 -0.02989187 0.00156455
v 0.00208527 -0.03002371 0.02808862
v 0.00117354 -0.02989582 0.02854556
v 0.00391503 -0.02987529 0.02588993
v 0.00528734 -0.02986318 0.02456211
v 0.00665966 -0.02984992 0.02323430
v 0.01077662 -0.02980338 0.01924547
v 0.01214579 -0.02978566 0.01791766
v 0.01351811 -0.02976666 0.01658984
v 0.00032176 -0.02939677 0.02962071
v 0.00206634 -0.02897115 0.03077650
v 0.00032176 -0.03026635 0.03348052
v 0.00071610 -0.03026635 0.03213120
v 0.00206634 -0.03026635 0.03077650
v 0.01691263 -0.03026635 0.01593400
v 0.00032176 -0.03026431 0.03213120
v 0.00071610 -0.03025437 0.03077650
v 0.00072241 -0.03003442 0.02942719
v 0.00032176 -0.03019330 0.03077650
v 0.00032176 -0.02997794 0.02962071
f 1 2 6
f 1 6 13
f 1 13 35
f 1 35 60
f 1 60 62
f 1 62 36
f 1 36 14
f 1 14 7
f 1 7 3
f 1 3 8
f 1 8 4
f 1 4 5
f 1 5 2
f 2 5 6
f 3 7 8
f 4 8 17
f 4 17 9
f 4 9 10
f 4 10 5
f 5 10 11
f 5 11 12
f 5 12 13
f 5 13 6
f 7 14 15
f 7 15 8
f 8 15 16
f 8 16 17
f 9 17 41
f 9 41 18
f 9 18 10
f 10 18 19
f 10 19 20
f 10 20 11
f 11 21 12
f 11 20 22
f 11 22 23
f 11 23 24
f 11 24 25
f 11 25 26
f 11 26 27
f 11 27 28
f 11 28 29
f 11 29 21
f 12 21 30
f 12 30 31
f 12 31 32
f 12 32 33
f 12 33 34
f 12 34 58
f 12 58 89
f 12 89 61
f 12 61 35
f 12 35 13
f 14 36 15
f 15 37 38
f 15 38 16
f 15 36 37
f 16 39 40
f 16 40 41
f 16 41 17
f 16 38 39
f 18 41 40
f 18 40 19
f 19 42 43
f 19 43 44
f 19 44 45
f 19 45 46
f 19 46 47
f 19 47 48
f 19 48 49
f 19 49 50
f 19 50 20
f 19 40 87
f 19 87 42
f 20 50 49
f 20 49 51
f 20 51 52
f 20 52 22
f 21 29 53
f 21 53 30
f 22 52 54
f 22 54 23
f 23 54 55
f 23 55 24
f 24 55 25
f 25 55 26
f 26 55 27
f 27 55 28
f 28 55 29
f 29 55 56
f 29 56 53
f 30 53 31
f 31 53 57
f 31 57 32
f 32 57 33
f 33 57 34
f 34 57 59
f 34 59 58
f 35 61 59
f 35 59 57
f 35 57 56
f 35 56 55
f 35 55 88
f 35 88 98
f 35 98 97
f 35 97 94
f 35 94 90
f 35 90 60
f 36 62 37
f 37 63 64
f 37 64 65
f 37 65 66
f 37 66 67
f 37 67 68
f 37 68 38
f 37 62 60
f 37 60 63
f 38 69 70
f 38 70 71
f 38 71 39
f 38 68 72
f 38 72 73
f 38 73 74
f 38 74 75
f 38 75 76
f 38 76 77
f 38 77 69
f 39 78 79
f 39 79 40
f 39 71 80
f 39 80 81
f 39 81 78
f 40 79 81
f 40 81 82
f 40 82 83
f 40 83 84
f 40 84 85
f 40 85 86
f 40 86 87
f 42 87 86
f 42 86 43
f 43 48 47
f 43 47 44
f 43 86 82
f 43 82 48
f 44 47 46
f 44 46 45
f 48 82 81
f 48 81 49
f 49 81 98
f 49 98 88
f 49 88 52
f 49 52 51
f 52 88 54
f 53 56 57
f 54 88 55
f 58 59 89
f 59 61 89
f 60 90 91
f 60 91 92
f 60 92 93
f 60 93 63
f 63 93 94
f 63 94 95
f 63 95 64
f 64 95 65
f 65 95 66
f 66 95 67
f 67 95 68
f 68 95 72
f 69 77 96
f 69 96 70
f 70 96 71
f 71 96 80
f 72 95 97
f 72 97 73
f 73 97 96
f 73 96 75
f 73 75 74
f 75 96 76
f 76 96 77
f 78 81 79
f 80 96 98
f 80 98 81
f 82 86 83
f 83 86 85
f 83 85 84
f 90 94 91
f 91 94 92
f 92 94 93
f 94 97 95
f 96 97 98

