# https://github.com/mikedh/trimesh
v 0.03692708 -0.03461582 -0.00618812
v 0.03692708 -0.04534647 -0.00618812
v 0.03692708 -0.03461477 -0.06235355
v 0.02194737 -0.03610523 -0.06340651
v 0.02194737 -0.03818430 -0.00702264
v 0.02194737 -0.03857530 -0.00618812
v 0.03664405 -0.04534857 -0.00618812
v 0.03692708 -0.04534647 -0.06340651
v 0.03692708 -0.03461477 -0.06340651
v 0.02194737 -0.04534542 -0.06340651
v 0.02194737 -0.04534227 -0.00618812
v 0.03581258 -0.04535172 -0.00618812
v 0.03611467 -0.04535067 -0.06340651
v 0.03581258 -0.04535172 -0.06340651
v 0.02194737 -0.04534542 -0.06235355
f 1 2 8
f 1 8 9
f 1 9 3
f 1 3 4
f 1 4 5
f 1 5 6
f 1 6 11
f 1 11 12
f 1 12 7
f 1 7 2
f 2 7 8
f 3 9 4
f 4 9 8
f 4 8 13
f 4 13 14
f 4 14 10
f 4 10 15
f 4 15 11
f 4 11 6
f 4 6 5
f 7 12 13
f 7 13 8
f 10 14 12
f 10 12 15
f 11 15 12
f 12 14 13

