# https://github.com/mikedh/trimesh
v 0.00045957 0.04237836 -0.00435266
v 0.00045957 0.03787964 -0.00435266
v 0.00045957 0.04237836 -0.00540919
v -0.03301537 0.04240043 -0.06102404
v -0.03299899 0.04239995 -0.00435266
v -0.03301537 0.03774385 -0.00435266
v 0.00045957 0.03781679 -0.00862495
v 0.00045957 0.04237164 -0.06332184
v -0.00506825 0.04237836 -0.06332184
v -0.03301537 0.04240043 -0.06332184
v -0.03301537 0.04239995 -0.00435266
v 0.00045957 0.03780623 -0.00971612
v -0.03301537 0.03758024 -0.06332184
v -0.03163915 0.03753561 -0.06332184
v -0.03032847 0.03749915 -0.06332184
v 0.00045957 0.03808452 -0.06332184
v 0.00045957 0.03780479 -0.02861812
v -0.02897846 0.03751834 -0.06332184
v 0.00045957 0.03787004 -0.05425765
v 0.00045957 0.03780671 -0.02996332
v -0.02762845 0.03754377 -0.06332184
v 0.00045957 0.03795113 -0.06100672
v -0.00063485 0.03793338 -0.06100672
f 1 2 7
f 1 7 12
f 1 12 17
f 1 17 20
f 1 20 19
f 1 19 22
f 1 22 16
f 1 16 8
f 1 8 3
f 1 3 10
f 1 10 4
f 1 4 5
f 1 5 11
f 1 11 6
f 1 6 2
f 2 6 7
f 3 8 9
f 3 9 10
f 4 11 5
f 4 10 13
f 4 13 6
f 4 6 11
f 6 12 7
f 6 13 14
f 6 14 15
f 6 15 12
f 8 16 21
f 8 21 18
f 8 18 15
f 8 15 14
f 8 14 13
f 8 13 10
f 8 10 9
f 12 15 17
f 15 18 19
f 15 19 20
f 15 20 17
f 16 22 21
f 18 21 22
f 18 22 23
f 18 23 19
f 19 23 22

