# https://github.com/mikedh/trimesh
v 0.02194427 -0.04386624 -0.00619131
v 0.02125222 -0.04386202 -0.04509656
v 0.02096282 -0.04386042 -0.00619131
v 0.02194427 -0.04534386 -0.00619131
v 0.02194427 -0.04386624 -0.05714377
v 0.02096282 -0.04386042 -0.05714377
v 0.00052028 -0.04386042 -0.00619131
v 0.02179537 -0.04534429 -0.00619131
v 0.02194427 -0.04534386 -0.05714377
v 0.00052028 -0.04386042 -0.05714377
v 0.00052028 -0.04534575 -0.00619131
v 0.02096282 -0.04534575 -0.00619131
v 0.02096282 -0.04534575 -0.05714377
v 0.02145984 -0.04534487 -0.05714377
v 0.00052028 -0.04534575 -0.05714377
f 1 2 3
f 1 3 7
f 1 7 11
f 1 11 12
f 1 12 8
f 1 8 4
f 1 4 9
f 1 9 5
f 1 5 2
f 2 5 6
f 2 6 3
f 3 6 10
f 3 10 7
f 4 8 9
f 5 9 14
f 5 14 13
f 5 13 15
f 5 15 10
f 5 10 6
f 7 10 15
f 7 15 11
f 8 12 13
f 8 13 14
f 8 14 9
f 11 15 13
f 11 13 12

