# https://github.com/mikedh/trimesh
v -0.03573044 -0.04535382 -0.00618251
v -0.03647131 -0.04534963 -0.00618251
v -0.02768067 -0.04534544 -0.00618251
v -0.03573044 -0.04535382 0.04665840
v -0.03647131 -0.03464729 -0.00618251
v -0.03647131 -0.04534963 0.04665840
v -0.02768067 -0.03857316 -0.00618251
v -0.02768067 -0.04534544 0.04665840
v -0.03502485 -0.03511890 -0.00618251
v -0.03647131 -0.03464729 0.04665840
v -0.02768067 -0.03805963 -0.00161014
v -0.02768067 -0.03849561 0.04665840
v -0.03502485 -0.03511890 0.04665840
v -0.02768067 -0.03805963 0.04427911
f 1 2 5
f 1 5 9
f 1 9 7
f 1 7 3
f 1 3 8
f 1 8 4
f 1 4 6
f 1 6 2
f 2 6 10
f 2 10 5
f 3 7 11
f 3 11 14
f 3 14 12
f 3 12 8
f 4 8 12
f 4 12 13
f 4 13 10
f 4 10 6
f 5 10 13
f 5 13 9
f 7 9 11
f 9 13 14
f 9 14 11
f 12 14 13

