# https://github.com/mikedh/trimesh
v -0.04196171 0.03174090 0.03001839
v -0.04469643 0.03488510 0.03001839
v -0.04033459 0.03174090 0.03001839
v -0.04220002 0.03174090 0.04698021
v -0.04469690 0.03488510 0.04586704
v -0.04482562 0.03524908 0.03001839
v -0.04221634 0.03174090 0.04832855
v -0.04033459 0.03500764 0.03001839
v -0.04033459 0.03174090 0.04586704
v -0.04499351 0.03572289 0.03001839
v -0.04469690 0.03488510 0.05289993
v -0.04221634 0.03174090 0.05289993
v -0.04217950 0.03977114 0.03001839
v -0.04033459 0.03500764 0.04586704
v -0.04073799 0.03174090 0.05289993
v -0.04509797 0.03707079 0.03001839
v -0.04499351 0.03572289 0.05289993
v -0.04267850 0.04086126 0.03001839
v -0.04259036 0.04066883 0.04586704
v -0.04217950 0.03977114 0.05289993
v -0.04073799 0.03517102 0.05289993
v -0.04509797 0.03842142 0.03001839
v -0.04509797 0.03707079 0.05289993
v -0.04284406 0.04101375 0.03001839
v -0.04267850 0.04086126 0.05289993
v -0.04507559 0.04101375 0.03001839
v -0.04509797 0.03842142 0.05289993
v -0.04284406 0.04101375 0.04586704
v -0.04284453 0.04101375 0.05289993
v -0.04507559 0.04101375 0.05289993
f 1 2 6
f 1 6 10
f 1 10 16
f 1 16 22
f 1 22 26
f 1 26 24
f 1 24 18
f 1 18 13
f 1 13 8
f 1 8 3
f 1 3 9
f 1 9 15
f 1 15 12
f 1 12 7
f 1 7 4
f 1 4 2
f 2 5 6
f 2 4 7
f 2 7 5
f 3 8 14
f 3 14 9
f 5 10 6
f 5 7 12
f 5 12 11
f 5 11 17
f 5 17 10
f 8 13 20
f 8 20 14
f 9 14 21
f 9 21 15
f 10 17 23
f 10 23 16
f 11 12 15
f 11 15 21
f 11 21 20
f 11 20 25
f 11 25 29
f 11 29 30
f 11 30 27
f 11 27 23
f 11 23 17
f 13 18 19
f 13 19 20
f 14 20 21
f 16 23 27
f 16 27 22
f 18 24 28
f 18 28 25
f 18 25 19
f 19 25 20
f 22 27 30
f 22 30 26
f 24 26 30
f 24 30 29
f 24 29 28
f 25 28 29

