# https://github.com/mikedh/trimesh
v 0.02537165 0.04445657 0.06025819
v 0.03445959 0.04203199 0.06271607
v 0.03445959 0.04444163 0.06026960
v 0.03446630 0.04297436 0.06026960
v 0.02537165 0.04131190 0.06025819
v 0.00045699 0.04445657 0.06025819
v 0.00045699 0.04203199 0.06271636
v 0.03446630 0.04112044 0.06308730
v 0.03446630 0.04203386 0.06271402
v 0.00045699 0.04185921 0.06278686
v 0.00045699 0.04112137 0.06308759
v 0.03446630 0.04391674 0.06071601
v 0.03446630 0.04138195 0.06047993
v 0.03445959 0.04131471 0.06026960
v 0.03040559 0.03707449 0.06027077
v 0.01799524 0.04131190 0.06025819
v 0.00045699 0.04143799 0.06025819
v -0.03410270 0.04365710 0.06092137
v -0.03410270 0.04203199 0.06271636
v 0.03446630 0.03977272 0.06324644
v -0.03410270 0.04112137 0.06308759
v 0.03446630 0.03558014 0.06172905
v 0.03175468 0.03707449 0.06048403
v 0.03040559 0.03609943 0.06075140
v 0.00611514 0.03653559 0.06052352
v 0.00476604 0.03653559 0.06052294
v 0.00341695 0.03653559 0.06052264
v 0.02537165 0.03707355 0.06027106
v 0.02537165 0.03707449 0.06027077
v 0.03175468 0.03614612 0.06084414
v 0.01691462 0.04131283 0.06025819
v 0.00045699 0.03707355 0.06027106
v -0.03410270 0.04115686 0.06092137
v 0.00071204 0.04143238 0.06025819
v 0.03446630 0.03572397 0.06324644
v 0.00045699 0.03977272 0.06324644
v -0.03410270 0.04005011 0.06321338
v 0.03446630 0.03558014 0.06186274
v 0.00045699 0.03491515 0.06143857
v 0.03325144 0.03558014 0.06151053
v -0.03410270 0.03491515 0.06136807
v 0.00045699 0.03653559 0.06052264
v 0.01420972 0.04131937 0.06025819
v 0.01556553 0.04131471 0.06025819
v -0.03032388 0.03587807 0.06092137
v -0.03167969 0.03596213 0.06092137
v -0.03235089 0.03619282 0.06092137
v -0.03255895 0.03650383 0.06092137
v 0.00612185 0.04136140 0.06025819
v 0.00726959 0.04135300 0.06025819
v 0.01286733 0.04132498 0.06025819
v 0.03445959 0.03558014 0.06324644
v -0.03410270 0.03977086 0.06324614
v -0.03410270 0.03491515 0.06324614
v 0.03311049 0.03558014 0.06324644
v 0.00045699 0.03491515 0.06314317
v -0.02168564 0.03491515 0.06324614
v -0.02033654 0.03491515 0.06324526
v -0.01898745 0.03491515 0.06324234
v -0.00009339 0.03491515 0.06314960
f 1 2 3
f 1 3 4
f 1 4 5
f 1 5 16
f 1 16 31
f 1 31 44
f 1 44 43
f 1 43 51
f 1 51 50
f 1 50 49
f 1 49 34
f 1 34 17
f 1 17 6
f 1 6 19
f 1 19 7
f 1 7 2
f 2 8 9
f 2 9 3
f 2 7 10
f 2 10 11
f 2 11 8
f 3 9 12
f 3 12 4
f 4 12 9
f 4 9 8
f 4 8 20
f 4 20 35
f 4 35 38
f 4 38 22
f 4 22 13
f 4 13 14
f 4 14 5
f 5 14 15
f 5 15 29
f 5 29 16
f 6 17 33
f 6 33 18
f 6 18 19
f 7 19 10
f 8 11 20
f 10 19 21
f 10 21 11
f 11 21 36
f 11 36 20
f 13 22 14
f 14 22 23
f 14 23 15
f 15 24 25
f 15 25 26
f 15 26 27
f 15 27 28
f 15 28 32
f 15 32 29
f 15 23 30
f 15 30 24
f 16 29 31
f 17 32 33
f 17 34 32
f 18 33 41
f 18 41 54
f 18 54 53
f 18 53 37
f 18 37 21
f 18 21 19
f 20 36 55
f 20 55 52
f 20 52 35
f 21 37 36
f 22 38 56
f 22 56 39
f 22 39 40
f 22 40 30
f 22 30 23
f 24 30 40
f 24 40 39
f 24 39 41
f 24 41 27
f 24 27 26
f 24 26 25
f 27 41 42
f 27 42 32
f 27 32 28
f 29 43 44
f 29 44 31
f 29 32 43
f 32 42 41
f 32 41 45
f 32 45 46
f 32 46 47
f 32 47 48
f 32 48 33
f 32 34 49
f 32 49 50
f 32 50 51
f 32 51 43
f 33 48 41
f 35 52 38
f 36 37 53
f 36 53 54
f 36 54 55
f 38 52 56
f 39 56 60
f 39 60 59
f 39 59 58
f 39 58 57
f 39 57 54
f 39 54 41
f 41 48 47
f 41 47 46
f 41 46 45
f 52 55 54
f 52 54 57
f 52 57 58
f 52 58 59
f 52 59 60
f 52 60 56

