# https://github.com/mikedh/trimesh
v 0.00045957 0.04237872 0.05384595
v -0.03409932 0.04278481 0.05384595
v 0.00045957 0.03784383 0.05384595
v 0.00045957 0.04237817 -0.00434689
v -0.03410270 0.04278425 0.05372632
v -0.03410270 0.04204839 0.05384595
v -0.03410270 0.04278425 -0.00434689
v -0.03410270 0.03709405 0.05384595
v 0.00045957 0.03782489 0.04292624
v 0.00045957 0.03787948 -0.00434689
v -0.03410270 0.03831119 -0.00434689
v 0.00045957 0.03781430 0.02943184
v 0.00045957 0.03781932 0.03617620
v -0.03410270 0.03709460 -0.00434119
v 0.00045957 0.03780762 -0.00296270
v 0.00045957 0.03786165 -0.00431271
v -0.03333811 0.03768507 -0.00434689
f 1 2 6
f 1 6 8
f 1 8 3
f 1 3 9
f 1 9 13
f 1 13 12
f 1 12 15
f 1 15 16
f 1 16 10
f 1 10 4
f 1 4 2
f 2 5 6
f 2 4 7
f 2 7 5
f 3 8 9
f 4 10 17
f 4 17 11
f 4 11 7
f 5 7 11
f 5 11 14
f 5 14 8
f 5 8 6
f 8 12 13
f 8 13 9
f 8 14 15
f 8 15 12
f 10 16 14
f 10 14 17
f 11 17 14
f 14 16 15

