# https://github.com/mikedh/trimesh
v 0.03345032 -0.02249854 0.05739721
v 0.03825930 -0.02249162 0.05510784
v 0.03851434 -0.02249854 0.05510784
v 0.03345032 -0.02249854 0.05931210
v 0.03345032 -0.02226322 0.05739803
v 0.03825930 0.00106956 0.05510784
v 0.04264436 -0.02249854 0.05510784
v 0.04105669 -0.02249854 0.05932035
v 0.03345032 0.00106956 0.05931210
v 0.03345032 0.00106956 0.05754197
v 0.04264436 0.00106956 0.05510784
v 0.04496958 -0.02249854 0.05794780
v 0.04510400 -0.02249854 0.05932035
v 0.04105669 0.00106956 0.05932035
v 0.04496958 0.00106956 0.05794780
v 0.04499830 -0.02249854 0.05810163
v 0.04513502 -0.02249854 0.05924776
v 0.04510400 0.00106956 0.05932035
v 0.04518557 0.00106956 0.05912898
v 0.04518557 -0.02249854 0.05912898
f 1 2 3
f 1 3 7
f 1 7 12
f 1 12 16
f 1 16 20
f 1 20 17
f 1 17 13
f 1 13 8
f 1 8 4
f 1 4 9
f 1 9 10
f 1 10 5
f 1 5 6
f 1 6 2
f 2 6 11
f 2 11 7
f 2 7 3
f 4 8 14
f 4 14 9
f 5 10 6
f 6 10 9
f 6 9 14
f 6 14 18
f 6 18 19
f 6 19 15
f 6 15 11
f 7 11 15
f 7 15 12
f 8 13 18
f 8 18 14
f 12 15 16
f 13 17 18
f 15 19 16
f 16 19 20
f 17 20 19
f 17 19 18

