# https://github.com/mikedh/trimesh
v 0.03165035 -0.01312898 -0.02330286
v 0.03173186 -0.01312898 -0.02330286
v 0.03082234 -0.01312898 -0.02259262
v 0.03072990 -0.01312581 -0.02330286
v 0.03181437 -0.01299749 -0.02330286
v 0.03193613 -0.01283433 -0.02316896
v 0.03184120 -0.01312898 -0.02248202
v 0.03091031 -0.01312898 0.02656459
v 0.03473378 0.00305458 -0.02330286
v 0.03091180 -0.01312898 0.02721078
v 0.03091230 -0.01312898 0.02740871
v 0.03191725 -0.01280106 -0.02330286
v 0.03288144 -0.01075277 -0.02330286
v 0.03276315 -0.01110445 -0.02309910
v 0.03196844 -0.01290403 -0.02248202
v 0.03221943 -0.01312581 0.03617015
v 0.03221446 -0.01312898 0.03586743
v 0.03531478 0.00305458 -0.02330286
v 0.03506529 0.00305458 0.03617015
v 0.03091926 -0.01312898 0.02803162
v 0.03371492 -0.00895319 -0.02330286
v 0.03359017 -0.00937299 -0.02302342
v 0.03278601 -0.01115356 -0.02248202
v 0.03286554 -0.01141019 0.03617015
v 0.03136308 -0.01312898 0.03617015
v 0.03221446 -0.01312898 0.03587325
v 0.03360359 -0.00940150 -0.02248202
v 0.03383768 -0.00889616 -0.02248202
v 0.03384017 -0.00889616 -0.02163789
v 0.03384265 -0.00889616 -0.02078794
v 0.03384464 -0.00889616 -0.01994382
v 0.03384613 -0.00889616 -0.01909969
v 0.03384861 -0.00889616 -0.01740562
v 0.03385209 -0.00889616 -0.01486742
v 0.03385309 -0.00889616 -0.01402329
v 0.03385458 -0.00889616 -0.01232922
v 0.03385508 -0.00889616 -0.01148510
v 0.03385508 -0.00889616 -0.01064097
v 0.03552403 0.00305458 -0.02259262
v 0.03549768 0.00304982 -0.02330286
v 0.03093367 -0.01312898 0.02884082
v 0.03095604 -0.01312898 0.02964419
v 0.03116925 -0.01312898 0.03617015
v 0.03580682 0.00305458 0.03617015
v 0.03372387 -0.00892943 -0.02330286
v 0.03449671 -0.00701262 0.03332924
v 0.03449621 -0.00701104 0.03417918
v 0.03449522 -0.00700787 0.03586743
v 0.03449522 -0.00700628 0.03617015
v 0.03385408 -0.00889616 -0.00979685
v 0.03399672 -0.00807558 -0.02330286
v 0.03444453 -0.00690807 -0.02231901
v 0.03446242 -0.00697302 -0.02163789
v 0.03446341 -0.00697777 -0.01994382
v 0.03447435 -0.00701737 -0.00302638
v 0.03447584 -0.00702371 -0.00049400
v 0.03447783 -0.00703163 0.00288832
v 0.03447882 -0.00703480 0.00458240
v 0.03447932 -0.00703480 0.00542652
v 0.03448081 -0.00703321 0.00711477
v 0.03449621 -0.00701579 0.03164098
v 0.03449671 -0.00701420 0.03248511
v 0.03552850 0.00305458 -0.02248202
v 0.03526111 -0.00095171 -0.02304671
v 0.03527751 -0.00052241 -0.02330286
v 0.03525862 -0.00259604 -0.02043283
v 0.03580732 0.00294369 0.03617015
v 0.03578595 0.00305458 -0.00567518
v 0.03468359 -0.00635837 0.03248511
v 0.03468309 -0.00635837 0.03332924
v 0.03468209 -0.00635837 0.03417918
v 0.03468011 -0.00635837 0.03586743
v 0.03467961 -0.00635837 0.03617015
v 0.03400418 -0.00805023 -0.02330286
v 0.03439334 -0.00676391 -0.02288370
v 0.03452206 -0.00643283 -0.02255187
v 0.03481579 -0.00551244 -0.02163789
v 0.03462643 -0.00635837 -0.02163789
v 0.03462991 -0.00635837 -0.02078794
v 0.03464184 -0.00635837 -0.01148510
v 0.03467215 -0.00635837 0.01218535
v 0.03467911 -0.00635837 0.01810587
v 0.03448031 -0.00703321 0.00627647
v 0.03468061 -0.00635837 0.01979994
v 0.03468160 -0.00635837 0.02148819
v 0.03468309 -0.00635837 0.02402639
v 0.03468359 -0.00635837 0.02994691
v 0.03558665 0.00305458 -0.02089855
v 0.03526757 -0.00274495 -0.01994382
v 0.03484064 -0.00466810 -0.02248202
v 0.03524272 -0.00087409 -0.02330286
v 0.03575762 -0.00044003 0.03617015
v 0.03578644 0.00294369 -0.00556458
v 0.03578495 0.00305458 -0.00652513
v 0.03561199 -0.00213189 0.03617015
v 0.03449671 -0.00567402 -0.02330286
v 0.03445397 -0.00619996 -0.02309328
v 0.03470893 -0.00551244 -0.02248202
v 0.03528298 -0.00290178 -0.01909969
v 0.03523129 -0.00336910 -0.01824974
v 0.03524471 -0.00338811 -0.01757444
v 0.03525614 -0.00340079 -0.01700975
v 0.03482673 -0.00551244 -0.02078794
v 0.03528447 -0.00354970 -0.00556458
v 0.03564828 0.00305458 -0.01921030
v 0.03533516 -0.00213189 -0.01909969
v 0.03544699 -0.00128596 -0.01740562
v 0.03536299 -0.00213189 -0.01824974
v 0.03484064 -0.00384910 -0.02330286
v 0.03575066 -0.00073943 0.03617015
v 0.03578545 0.00294369 -0.00641452
v 0.03578396 0.00305458 -0.00725865
v 0.03569251 -0.00158536 0.03617015
v 0.03528298 -0.00354653 -0.00641452
v 0.03468359 -0.00469503 -0.02330286
v 0.03547234 -0.00128596 -0.01656149
v 0.03538437 -0.00213189 -0.01740562
v 0.03529540 -0.00294614 -0.01824974
v 0.03529242 -0.00305386 -0.01733576
v 0.03541021 -0.00213189 -0.01402329
v 0.03525962 -0.00342930 -0.01571737
v 0.03526160 -0.00344514 -0.01486742
v 0.03526608 -0.00347366 -0.01317917
v 0.03527005 -0.00349583 -0.01148510
v 0.03527453 -0.00351484 -0.00979685
v 0.03527652 -0.00352435 -0.00894690
v 0.03528099 -0.00354019 -0.00725865
v 0.03567760 0.00305458 -0.01836035
v 0.03564082 0.00040590 -0.01486742
v 0.03555732 -0.00044003 -0.01571737
v 0.03573475 -0.00128596 0.03617015
v 0.03573426 0.00125183 -0.01064097
v 0.03576358 0.00209776 -0.00641452
v 0.03578297 0.00294369 -0.00810277
v 0.03578147 0.00305458 -0.00894690
v 0.03566667 0.00040590 -0.01402329
v 0.03557969 -0.00044003 -0.01486742
v 0.03548923 -0.00128596 -0.01571737
v 0.03539629 -0.00213189 -0.01656149
v 0.03549818 -0.00128596 -0.01486742
v 0.03550265 -0.00128596 -0.01402329
v 0.03543605 -0.00213189 -0.00894690
v 0.03549619 -0.00213189 0.00288832
v 0.03534361 -0.00297624 -0.00894690
v 0.03535206 -0.00297624 -0.00725865
v 0.03535604 -0.00297624 -0.00641452
v 0.03535952 -0.00297624 -0.00556458
v 0.03570146 0.00305458 -0.01751623
v 0.03568903 0.00125183 -0.01486742
v 0.03550464 -0.00213189 0.00458240
v 0.03565623 -0.00128596 0.01641762
v 0.03567959 -0.00044003 0.00288832
v 0.03568804 0.00040590 -0.01232922
v 0.03569052 0.00040590 -0.01148510
v 0.03572929 0.00040590 0.00204420
v 0.03573078 0.00040590 0.00288832
v 0.03573277 0.00125183 -0.01148510
v 0.03578147 0.00294369 -0.00894690
v 0.03577949 0.00305458 -0.00990746
v 0.03571090 0.00125183 -0.01402329
v 0.03568257 0.00040590 -0.01317917
v 0.03559311 -0.00044003 -0.01402329
v 0.03559907 -0.00044003 -0.01317917
v 0.03560802 -0.00044003 -0.01148510
v 0.03562094 -0.00044003 -0.00894690
v 0.03558863 -0.00128596 0.00288832
v 0.03563585 -0.00128596 0.01218535
v 0.03571885 0.00305458 -0.01667210
v 0.03565275 -0.00128596 0.01557349
v 0.03567611 -0.00044003 0.00204420
v 0.03573028 0.00125183 -0.01232922
v 0.03566816 -0.00044003 0.00035595
v 0.03577949 0.00294369 -0.00979685
v 0.03577551 0.00305458 -0.01075158
v 0.03572432 0.00125183 -0.01317917
v 0.03572929 0.00305458 -0.01582798
v 0.03577551 0.00294369 -0.01064097
f 1 2 7
f 1 7 17
f 1 17 26
f 1 26 25
f 1 25 43
f 1 43 42
f 1 42 41
f 1 41 20
f 1 20 11
f 1 11 10
f 1 10 8
f 1 8 3
f 1 3 4
f 1 4 9
f 1 9 18
f 1 18 40
f 1 40 65
f 1 65 91
f 1 91 109
f 1 109 115
f 1 115 96
f 1 96 74
f 1 74 51
f 1 51 45
f 1 45 21
f 1 21 13
f 1 13 12
f 1 12 5
f 1 5 2
f 2 5 6
f 2 6 7
f 3 8 4
f 4 8 10
f 4 10 11
f 4 11 9
f 5 12 6
f 6 12 13
f 6 13 14
f 6 14 15
f 6 15 7
f 7 15 16
f 7 16 17
f 9 11 19
f 9 19 44
f 9 44 68
f 9 68 94
f 9 94 112
f 9 112 135
f 9 135 159
f 9 159 174
f 9 174 176
f 9 176 168
f 9 168 148
f 9 148 128
f 9 128 105
f 9 105 88
f 9 88 63
f 9 63 39
f 9 39 18
f 11 20 19
f 13 21 22
f 13 22 14
f 14 22 15
f 15 22 23
f 15 23 16
f 16 24 49
f 16 49 73
f 16 73 95
f 16 95 113
f 16 113 131
f 16 131 110
f 16 110 92
f 16 92 67
f 16 67 44
f 16 44 19
f 16 19 43
f 16 43 25
f 16 25 26
f 16 26 17
f 16 23 27
f 16 27 28
f 16 28 29
f 16 29 30
f 16 30 31
f 16 31 32
f 16 32 33
f 16 33 34
f 16 34 35
f 16 35 36
f 16 36 37
f 16 37 38
f 16 38 24
f 18 39 40
f 19 20 41
f 19 41 42
f 19 42 43
f 21 45 28
f 21 28 22
f 22 28 27
f 22 27 23
f 24 46 47
f 24 47 48
f 24 48 49
f 24 38 50
f 24 50 46
f 28 45 51
f 28 51 52
f 28 52 53
f 28 53 29
f 29 53 30
f 30 53 31
f 31 53 32
f 32 53 54
f 32 54 33
f 33 54 55
f 33 55 56
f 33 56 34
f 34 56 57
f 34 57 58
f 34 58 35
f 35 58 36
f 36 58 59
f 36 59 37
f 37 59 60
f 37 60 61
f 37 61 38
f 38 61 62
f 38 62 46
f 38 46 50
f 39 63 40
f 40 64 65
f 40 63 66
f 40 66 64
f 44 67 68
f 46 62 69
f 46 69 70
f 46 70 47
f 47 70 48
f 48 70 71
f 48 71 72
f 48 72 49
f 49 72 73
f 51 74 52
f 52 74 75
f 52 75 76
f 52 76 77
f 52 77 78
f 52 78 53
f 53 78 79
f 53 79 54
f 54 79 80
f 54 80 81
f 54 81 55
f 55 81 56
f 56 81 57
f 57 81 82
f 57 82 58
f 58 83 60
f 58 60 59
f 58 82 84
f 58 84 83
f 60 84 85
f 60 85 86
f 60 86 61
f 60 83 84
f 61 86 87
f 61 87 62
f 62 87 69
f 63 88 89
f 63 89 66
f 64 77 90
f 64 90 91
f 64 91 65
f 64 66 77
f 66 89 77
f 67 92 93
f 67 93 68
f 68 93 111
f 68 111 94
f 69 95 70
f 69 87 95
f 70 95 71
f 71 95 72
f 72 95 73
f 74 96 97
f 74 97 75
f 75 97 98
f 75 98 76
f 76 98 77
f 77 98 90
f 77 89 99
f 77 99 100
f 77 100 101
f 77 101 102
f 77 102 103
f 77 103 78
f 78 103 79
f 79 103 80
f 80 103 81
f 81 103 82
f 82 103 104
f 82 104 84
f 84 104 85
f 85 104 86
f 86 95 87
f 86 104 95
f 88 105 89
f 89 105 106
f 89 106 107
f 89 107 108
f 89 108 99
f 90 98 109
f 90 109 91
f 92 110 111
f 92 111 93
f 94 111 112
f 95 104 114
f 95 114 113
f 96 115 97
f 97 115 109
f 97 109 98
f 99 108 116
f 99 116 117
f 99 117 118
f 99 118 102
f 99 102 101
f 99 101 100
f 102 119 120
f 102 120 121
f 102 121 103
f 102 118 119
f 103 121 122
f 103 122 123
f 103 123 124
f 103 124 125
f 103 125 126
f 103 126 127
f 103 127 114
f 103 114 104
f 105 128 129
f 105 129 106
f 106 129 107
f 107 129 130
f 107 130 108
f 108 130 116
f 110 131 132
f 110 132 133
f 110 133 111
f 111 133 134
f 111 134 135
f 111 135 112
f 113 114 131
f 114 127 131
f 116 130 136
f 116 136 137
f 116 137 117
f 117 137 138
f 117 138 118
f 118 138 139
f 118 139 119
f 119 139 140
f 119 140 141
f 119 141 120
f 120 141 164
f 120 164 165
f 120 165 142
f 120 142 121
f 121 123 122
f 121 142 143
f 121 143 144
f 121 144 145
f 121 145 146
f 121 146 123
f 123 125 124
f 123 146 147
f 123 147 125
f 125 147 127
f 125 127 126
f 127 147 131
f 128 148 149
f 128 149 129
f 129 149 136
f 129 136 130
f 131 147 150
f 131 150 151
f 131 151 152
f 131 152 153
f 131 153 154
f 131 154 155
f 131 155 156
f 131 156 132
f 132 157 158
f 132 158 134
f 132 134 133
f 132 156 155
f 132 155 157
f 134 158 135
f 135 158 159
f 136 149 160
f 136 160 161
f 136 161 137
f 137 161 162
f 137 162 138
f 138 162 139
f 139 162 140
f 140 162 163
f 140 163 141
f 141 163 164
f 142 165 166
f 142 166 143
f 143 166 167
f 143 167 169
f 143 169 150
f 143 150 145
f 143 145 144
f 145 150 146
f 146 150 147
f 148 168 160
f 148 160 149
f 150 169 151
f 151 169 170
f 151 170 152
f 152 170 153
f 153 164 163
f 153 163 161
f 153 161 171
f 153 171 157
f 153 157 154
f 153 170 172
f 153 172 165
f 153 165 164
f 154 157 155
f 157 171 173
f 157 173 158
f 158 173 159
f 159 173 177
f 159 177 174
f 160 168 175
f 160 175 161
f 161 163 162
f 161 175 171
f 165 172 167
f 165 167 166
f 167 172 169
f 168 176 175
f 169 172 170
f 171 175 177
f 171 177 173
f 174 177 176
f 175 176 177

