# https://github.com/mikedh/trimesh
v 0.00613787 0.03730301 -0.02819885
v 0.00608021 0.03702665 -0.02859412
v 0.00608021 0.03730181 -0.02819885
v 0.00692672 0.03725774 -0.02819885
v 0.00692672 0.03705524 -0.02857590
v 0.00692672 0.03663237 -0.02915793
v 0.00608021 0.03660378 -0.02915711
v -0.00617179 0.03675744 -0.02819885
v 0.00710493 0.03723034 -0.02819885
v 0.00861448 0.03656209 -0.02908181
v 0.00776798 0.03662165 -0.02913210
v 0.00608021 0.03612850 -0.02958011
v 0.00523371 0.03615232 -0.02955265
v 0.00185032 0.03571039 -0.02985223
v 0.00100644 0.03567942 -0.02984815
v -0.00576034 0.03554005 -0.02970679
v -0.00617179 0.03663952 -0.02834782
v -0.00617179 0.03554482 -0.02819885
v 0.00762384 0.03714339 -0.02819885
v 0.00929850 0.03646679 -0.02897552
v 0.00953174 0.03600223 -0.02917397
v 0.00861448 0.03592600 -0.02942597
v 0.00692672 0.03604988 -0.02958065
v -0.00272813 0.03466691 -0.03052260
v -0.00322345 0.03466572 -0.03052206
v -0.00365063 0.03465977 -0.03051853
v -0.00617179 0.03552814 -0.02969401
v -0.00617179 0.02513386 -0.03004687
v 0.02060179 0.02900640 -0.02820239
v 0.02051007 0.02905405 -0.02819885
v 0.00863020 0.03690396 -0.02819885
v 0.00861448 0.03685036 -0.02840383
v 0.00953174 0.03659902 -0.02847668
v 0.01030748 0.03647275 -0.02822767
v 0.01039135 0.03645965 -0.02819885
v 0.00986196 0.03633457 -0.02880697
v 0.01030748 0.03577233 -0.02905109
v 0.01500125 0.03214637 -0.02968803
v 0.01225732 0.03373302 -0.02964019
v 0.01025769 0.03501236 -0.02948850
v 0.00946098 0.03519818 -0.02957195
v 0.00776274 0.03586882 -0.02955265
v 0.00747707 0.03554839 -0.02968069
v 0.00692672 0.03562701 -0.02969918
v 0.00608021 0.03570563 -0.02972718
v 0.00269682 0.03169729 -0.03067457
v -0.00153045 0.03338877 -0.03060579
v -0.00322345 0.03423451 -0.03055713
v 0.00354333 0.03508025 -0.03003083
v -0.00068656 0.03390098 -0.03053457
v 0.01538126 0.02662403 -0.03083930
v 0.01707164 0.02577948 -0.03088443
v 0.01622514 0.02577948 -0.03092167
v 0.01538126 0.02577948 -0.03094669
v -0.00406733 0.03338877 -0.03060035
v -0.00491383 0.03338877 -0.03058322
v -0.00536722 0.03382355 -0.03052179
v -0.00617179 0.03467287 -0.03004959
v -0.00617179 0.03542332 -0.02974702
v 0.02060179 0.02513386 -0.02980302
v -0.00617179 0.02513386 -0.03093826
v 0.02060179 0.02923273 -0.02819885
v 0.00951078 0.03668716 -0.02819885
v 0.01030748 0.03648347 -0.02819885
v 0.01097316 0.03618925 -0.02819885
v 0.01087357 0.03559485 -0.02891599
v 0.01181180 0.03572588 -0.02819885
v 0.02060179 0.03050968 -0.02819885
v 0.02060179 0.03047275 -0.02823175
v 0.02060179 0.02969372 -0.02892360
v 0.02060179 0.02962820 -0.02897742
v 0.02060179 0.02914458 -0.02936345
v 0.01760890 0.03050253 -0.02972038
v 0.01876465 0.02916126 -0.02995064
v 0.01707164 0.03000700 -0.02998108
v 0.01284437 0.03314577 -0.02972038
v 0.01334494 0.03300283 -0.02968803
v 0.01169386 0.03386048 -0.02968586
v 0.01050928 0.03456209 -0.02963040
v 0.00994582 0.03468478 -0.02967770
v 0.00692672 0.03508025 -0.02980601
v 0.00523371 0.03508025 -0.02991856
v 0.00946098 0.03477531 -0.02969483
v 0.00861448 0.03492659 -0.02972283
v 0.00015994 0.03254303 -0.03064602
v -0.00237695 0.03338877 -0.03060715
v 0.00776798 0.02916126 -0.03079663
v 0.00946098 0.02831551 -0.03083713
v 0.01115137 0.02746977 -0.03087764
v -0.00322345 0.03338877 -0.03060524
v 0.00694768 0.03091587 -0.03059165
v 0.01791814 0.02577948 -0.03083251
v 0.01368825 0.02746977 -0.03079309
v 0.01940673 0.02513386 -0.03085072
v 0.01856285 0.02513386 -0.03090074
v 0.01771635 0.02513386 -0.03093418
v 0.01686984 0.02513386 -0.03096109
v 0.01602596 0.02513386 -0.03097387
v 0.01453476 0.02577948 -0.03095729
v 0.01284437 0.02662403 -0.03091760
v -0.00576034 0.03169729 -0.03066858
v -0.00617179 0.03169729 -0.03066233
v -0.00576034 0.03254303 -0.03061965
v -0.00617179 0.03254303 -0.03060361
v -0.00617179 0.03319580 -0.03054000
v -0.00617179 0.03356983 -0.03042093
v -0.00617179 0.03419759 -0.03021650
v 0.02060179 0.02513386 -0.03072676
v -0.00617179 0.02788073 -0.03082544
v -0.00576034 0.02577948 -0.03091270
v -0.00322345 0.02513386 -0.03094478
v 0.02060179 0.02896709 -0.02949285
v 0.02060179 0.02872409 -0.02966601
v 0.02023227 0.02884321 -0.02973153
v 0.01960853 0.02831551 -0.03004633
v 0.02010123 0.02624881 -0.03052913
v 0.01538126 0.03085274 -0.02997972
v 0.01453476 0.03169729 -0.02987425
v 0.01960853 0.02637507 -0.03055930
v 0.01198476 0.03342689 -0.02975436
v 0.01115137 0.03398794 -0.02971277
v 0.01842133 0.02708621 -0.03052695
v 0.01791814 0.02719818 -0.03055060
v 0.01664708 0.02789264 -0.03051717
v 0.00692672 0.03423451 -0.02996586
v 0.01030748 0.03338877 -0.02990089
v 0.00946098 0.03423451 -0.02979731
v 0.01608362 0.02799151 -0.03053647
v 0.00185032 0.03169729 -0.03068598
v 0.00354333 0.03085274 -0.03072459
v -0.00068656 0.03254303 -0.03064575
v -0.00617179 0.03041796 -0.03072105
v -0.00617179 0.03085274 -0.03070311
v 0.01196642 0.02920533 -0.03058105
v 0.01630900 0.02755435 -0.03060416
v 0.02025323 0.02513386 -0.03077488
v 0.01517946 0.02513386 -0.03097577
v 0.01453476 0.02513386 -0.03097496
v 0.01284437 0.02513386 -0.03097251
v 0.00354333 0.02513386 -0.03095892
v 0.00269682 0.02513386 -0.03095756
v 0.00185032 0.02513386 -0.03095593
v 0.00354333 0.03000700 -0.03075938
v 0.02044455 0.02513386 -0.03075259
v 0.02060179 0.02571158 -0.03058893
v -0.00153045 0.03085274 -0.03071344
v 0.02060179 0.02846560 -0.02976252
v 0.02048910 0.02835482 -0.02983673
v 0.02041310 0.02579139 -0.03059927
v -0.00068656 0.03169729 -0.03068055
v 0.02060179 0.02824643 -0.02983836
v 0.02060179 0.02830718 -0.02981879
f 1 2 3
f 1 3 8
f 1 8 18
f 1 18 30
f 1 30 62
f 1 62 68
f 1 68 67
f 1 67 65
f 1 65 35
f 1 35 64
f 1 64 63
f 1 63 31
f 1 31 19
f 1 19 9
f 1 9 4
f 1 4 5
f 1 5 2
f 2 5 6
f 2 6 7
f 2 7 8
f 2 8 3
f 4 9 10
f 4 10 5
f 5 10 11
f 5 11 6
f 6 11 12
f 6 12 13
f 6 13 7
f 7 13 14
f 7 14 15
f 7 15 16
f 7 16 17
f 7 17 8
f 8 17 27
f 8 27 59
f 8 59 58
f 8 58 107
f 8 107 106
f 8 106 105
f 8 105 104
f 8 104 102
f 8 102 133
f 8 133 132
f 8 132 109
f 8 109 61
f 8 61 28
f 8 28 18
f 9 19 10
f 10 20 21
f 10 21 22
f 10 22 23
f 10 23 11
f 10 19 20
f 11 23 12
f 12 24 14
f 12 14 13
f 12 23 24
f 14 24 25
f 14 25 26
f 14 26 15
f 15 26 16
f 16 26 27
f 16 27 17
f 18 28 29
f 18 29 30
f 19 31 32
f 19 32 20
f 20 33 34
f 20 34 35
f 20 35 36
f 20 36 37
f 20 37 38
f 20 38 39
f 20 39 21
f 20 32 33
f 21 39 40
f 21 40 22
f 22 40 39
f 22 39 41
f 22 41 42
f 22 42 23
f 23 42 43
f 23 43 44
f 23 44 45
f 23 45 24
f 24 46 47
f 24 47 48
f 24 48 25
f 24 45 44
f 24 44 43
f 24 43 49
f 24 49 50
f 24 50 51
f 24 51 52
f 24 52 53
f 24 53 54
f 24 54 46
f 25 48 26
f 26 48 55
f 26 55 56
f 26 56 57
f 26 57 58
f 26 58 59
f 26 59 27
f 28 60 29
f 28 61 111
f 28 111 142
f 28 142 141
f 28 141 140
f 28 140 139
f 28 139 138
f 28 138 137
f 28 137 98
f 28 98 97
f 28 97 96
f 28 96 95
f 28 95 94
f 28 94 136
f 28 136 144
f 28 144 108
f 28 108 60
f 29 60 108
f 29 108 145
f 29 145 151
f 29 151 152
f 29 152 147
f 29 147 113
f 29 113 112
f 29 112 72
f 29 72 71
f 29 71 70
f 29 70 69
f 29 69 68
f 29 68 62
f 29 62 30
f 31 63 32
f 32 63 33
f 33 63 64
f 33 64 34
f 34 64 35
f 35 65 36
f 36 66 37
f 36 65 67
f 36 67 68
f 36 68 69
f 36 69 70
f 36 70 66
f 37 66 71
f 37 71 38
f 38 71 72
f 38 72 73
f 38 73 74
f 38 74 75
f 38 75 76
f 38 76 77
f 38 77 39
f 39 77 76
f 39 76 78
f 39 78 79
f 39 79 41
f 41 80 42
f 41 79 80
f 42 80 43
f 43 81 82
f 43 82 49
f 43 80 83
f 43 83 84
f 43 84 81
f 46 54 47
f 47 85 86
f 47 86 48
f 47 54 87
f 47 87 88
f 47 88 89
f 47 89 85
f 48 90 55
f 48 86 90
f 49 82 91
f 49 91 50
f 50 91 92
f 50 92 93
f 50 93 51
f 51 93 92
f 51 92 52
f 52 92 94
f 52 94 95
f 52 95 53
f 53 95 96
f 53 96 97
f 53 97 54
f 54 97 98
f 54 98 99
f 54 99 100
f 54 100 89
f 54 89 88
f 54 88 87
f 55 90 101
f 55 101 102
f 55 102 103
f 55 103 56
f 56 103 104
f 56 104 57
f 57 104 105
f 57 105 106
f 57 106 107
f 57 107 58
f 61 109 110
f 61 110 111
f 66 70 71
f 72 112 73
f 73 112 113
f 73 113 114
f 73 114 74
f 74 114 115
f 74 115 116
f 74 116 75
f 75 117 118
f 75 118 78
f 75 78 76
f 75 116 119
f 75 119 117
f 78 120 121
f 78 121 80
f 78 80 79
f 78 118 117
f 78 117 122
f 78 122 120
f 80 121 122
f 80 122 123
f 80 123 124
f 80 124 83
f 81 84 125
f 81 125 82
f 82 125 91
f 83 126 127
f 83 127 84
f 83 124 128
f 83 128 126
f 84 127 126
f 84 126 125
f 85 129 86
f 85 89 100
f 85 100 129
f 86 129 130
f 86 130 131
f 86 131 132
f 86 132 90
f 90 132 133
f 90 133 101
f 91 125 126
f 91 126 134
f 91 134 92
f 92 134 126
f 92 126 135
f 92 135 128
f 92 128 124
f 92 124 94
f 94 123 136
f 94 124 123
f 98 137 99
f 99 137 138
f 99 138 139
f 99 139 140
f 99 140 141
f 99 141 142
f 99 142 111
f 99 111 110
f 99 110 109
f 99 109 143
f 99 143 130
f 99 130 129
f 99 129 100
f 101 133 102
f 102 104 103
f 108 144 145
f 109 132 146
f 109 146 143
f 113 147 114
f 114 147 148
f 114 148 115
f 115 148 145
f 115 145 116
f 116 145 149
f 116 149 144
f 116 144 119
f 117 119 122
f 119 144 136
f 119 136 122
f 120 122 121
f 122 136 123
f 126 128 135
f 130 143 150
f 130 150 131
f 131 150 146
f 131 146 132
f 143 146 150
f 144 149 145
f 145 148 151
f 147 152 148
f 148 152 151

