# https://github.com/mikedh/trimesh
v -0.03732548 0.00970854 0.04708775
v -0.03705271 0.00970854 0.04708572
v -0.03620678 0.01478299 0.04704767
v -0.03705271 0.01393766 0.04703854
v -0.03732548 0.01028166 0.04707506
v -0.03732548 0.00943634 0.04708420
v -0.03732548 0.00524842 0.04697563
v -0.03732548 0.00435315 0.04695229
v -0.03705271 0.00886446 0.04706187
v -0.03536126 0.01581061 0.04694772
v -0.03602578 0.01581061 0.04702636
v -0.03620678 0.01581061 0.04703143
v -0.03705271 0.01478299 0.04699135
v -0.03732548 0.01366546 0.04698679
v -0.03732548 0.00305582 0.04691119
v -0.03518068 0.01581061 0.04690105
v -0.03687171 0.01581061 0.04691728
v -0.03732548 0.01451078 0.04692540
v -0.03705271 0.01581061 0.04686452
v -0.03732548 0.00305582 0.04587470
v -0.03626334 0.00305582 0.04655961
v -0.03449144 0.01581061 0.04666361
v -0.03732548 0.01540106 0.04681125
v -0.03732548 0.01581061 0.04675848
v -0.03630357 0.00305832 0.04190527
v -0.03630482 0.00305582 0.04263686
v -0.03732548 0.01581061 0.04578896
v -0.03619211 0.00305582 0.04653373
v -0.03577480 0.00409219 0.04644850
v -0.03436365 0.01581061 0.04661440
v -0.03625580 0.00548192 0.04190527
v -0.03554268 0.00305582 0.04190527
v -0.03403307 0.01581061 0.04190527
v -0.03422161 0.01549096 0.04190527
v -0.03444787 0.01489911 0.04190527
v -0.03448851 0.01478299 0.04190527
v -0.03499548 0.01294375 0.04190527
v -0.03595497 0.00886446 0.04190527
v -0.03609575 0.00801914 0.04190527
v -0.03615818 0.00728619 0.04190527
v -0.03616781 0.00717257 0.04190527
v -0.03621809 0.00644087 0.04190527
v -0.03622563 0.00632724 0.04190527
v -0.03625203 0.00559554 0.04190527
v -0.03584938 0.00305582 0.04638001
v -0.03580958 0.00352906 0.04642060
v -0.03421156 0.01581061 0.04654591
v -0.03304510 0.01580936 0.04190527
v -0.03553724 0.00305582 0.04517355
v -0.03342595 0.01581061 0.04190527
v -0.03565749 0.00305582 0.04596602
v -0.03406533 0.01581061 0.04640233
v -0.03492300 0.00997325 0.04645712
v -0.03312512 0.01581061 0.04262925
v -0.03312554 0.01581061 0.04263686
v -0.03563486 0.00305582 0.04584629
v -0.03313099 0.01581061 0.04266171
v -0.03393880 0.01581061 0.04601929
v -0.03398614 0.01581061 0.04616693
f 1 2 3
f 1 3 4
f 1 4 5
f 1 5 14
f 1 14 18
f 1 18 23
f 1 23 24
f 1 24 27
f 1 27 20
f 1 20 15
f 1 15 8
f 1 8 7
f 1 7 6
f 1 6 2
f 2 6 7
f 2 7 8
f 2 8 9
f 2 9 10
f 2 10 3
f 3 10 11
f 3 11 12
f 3 12 4
f 4 12 13
f 4 13 14
f 4 14 5
f 8 15 9
f 9 15 10
f 10 16 22
f 10 22 30
f 10 30 47
f 10 47 52
f 10 52 59
f 10 59 58
f 10 58 57
f 10 57 55
f 10 55 54
f 10 54 50
f 10 50 33
f 10 33 27
f 10 27 24
f 10 24 19
f 10 19 17
f 10 17 12
f 10 12 11
f 10 15 16
f 12 17 13
f 13 18 14
f 13 17 19
f 13 19 18
f 15 20 26
f 15 26 32
f 15 32 49
f 15 49 56
f 15 56 51
f 15 51 45
f 15 45 28
f 15 28 21
f 15 21 16
f 16 21 22
f 18 19 23
f 19 24 23
f 20 25 26
f 20 27 25
f 21 28 29
f 21 29 22
f 22 29 30
f 25 31 44
f 25 44 43
f 25 43 42
f 25 42 41
f 25 41 40
f 25 40 39
f 25 39 38
f 25 38 37
f 25 37 36
f 25 36 35
f 25 35 34
f 25 34 33
f 25 33 50
f 25 50 48
f 25 48 32
f 25 32 26
f 25 27 31
f 27 33 34
f 27 34 35
f 27 35 36
f 27 36 37
f 27 37 38
f 27 38 39
f 27 39 40
f 27 40 41
f 27 41 42
f 27 42 43
f 27 43 44
f 27 44 31
f 28 45 46
f 28 46 29
f 29 46 47
f 29 47 30
f 32 48 49
f 45 51 52
f 45 52 53
f 45 53 46
f 46 53 47
f 47 53 52
f 48 50 54
f 48 54 55
f 48 55 49
f 49 55 56
f 51 56 55
f 51 55 57
f 51 57 58
f 51 58 59
f 51 59 52

