# https://github.com/mikedh/trimesh
v 0.02358478 -0.03130235 -0.02746056
v 0.02349548 -0.03136797 -0.02501481
v 0.02349653 -0.03136900 -0.02746056
v 0.02204572 -0.03130235 -0.02746056
v 0.02354066 -0.03130235 0.01303261
v 0.02249956 -0.03207427 -0.02670911
v 0.02347867 -0.03135557 0.00543305
v 0.02245018 -0.03210889 -0.02746056
v 0.01285232 -0.03563575 -0.02746056
v 0.01285232 -0.03484988 0.04496210
v 0.02100777 -0.03130545 0.04496210
v 0.02108131 -0.03130235 0.04461473
v 0.02353961 -0.03130235 0.01387622
v 0.02346922 -0.03134937 0.02063926
v 0.02207724 -0.03237239 -0.02746056
v 0.01285232 -0.03656578 -0.02746056
v 0.01285232 -0.03582951 0.04496210
v 0.02231466 -0.03130235 0.04496210
v 0.02353015 -0.03130235 0.02051874
v 0.02346292 -0.03134523 0.02994021
v 0.02134920 -0.03278832 -0.02163329
v 0.02134815 -0.03278935 -0.02247690
v 0.02134605 -0.03279039 -0.02332051
v 0.02132609 -0.03279555 -0.02746056
v 0.02247855 -0.03206755 -0.00386790
v 0.02247645 -0.03206652 -0.00218069
v 0.02206253 -0.03235172 -0.01063803
v 0.01290590 -0.03655028 -0.02746056
v 0.01285232 -0.03658076 -0.01148164
v 0.01285232 -0.03605426 0.04433116
v 0.01354779 -0.03572720 0.04496210
v 0.02268866 -0.03130235 0.04496210
v 0.02351754 -0.03130235 0.02909660
v 0.02351229 -0.03130235 0.03079091
v 0.02346081 -0.03134420 0.03079091
v 0.02240396 -0.03202983 0.03163451
v 0.02247224 -0.03206445 0.00035723
v 0.02134815 -0.03278729 -0.02078968
v 0.02092478 -0.03302548 -0.01993898
v 0.02092688 -0.03302703 -0.02163329
v 0.02205728 -0.03234552 -0.00556221
v 0.02205097 -0.03233933 -0.00048638
v 0.02127882 -0.03282087 -0.02746056
v 0.02092583 -0.03302600 -0.02247690
v 0.01335869 -0.03640922 -0.02746056
v 0.01336289 -0.03641026 -0.02501481
v 0.01336605 -0.03641594 -0.01486316
v 0.01336605 -0.03641749 -0.01148164
v 0.01285232 -0.03658076 -0.01063803
v 0.01336394 -0.03641181 -0.02247690
v 0.01285232 -0.03605633 0.04432407
v 0.01434621 -0.03560113 0.04490538
v 0.01412665 -0.03562387 0.04496210
v 0.01357195 -0.03572307 0.04496210
v 0.02265294 -0.03132715 0.04496210
v 0.02291348 -0.03130235 0.04348047
v 0.02347237 -0.03130235 0.03924825
v 0.02344086 -0.03132818 0.03924825
v 0.02239765 -0.03202880 0.03332173
v 0.02240081 -0.03202932 0.03248521
v 0.02198479 -0.03230161 0.02994021
v 0.02203311 -0.03232899 0.00796387
v 0.02092058 -0.03302393 -0.01824468
v 0.01929327 -0.03390384 -0.00218069
v 0.01929432 -0.03390435 -0.00302429
v 0.01929432 -0.03390384 -0.00386790
v 0.02090377 -0.03301308 -0.02746056
v 0.02091112 -0.03301721 -0.02585842
v 0.01929327 -0.03390229 -0.00471860
v 0.01927646 -0.03388885 -0.00979442
v 0.01967357 -0.03367236 -0.01486316
v 0.01531272 -0.03569775 -0.02746056
v 0.01531587 -0.03569672 -0.02670911
v 0.01534844 -0.03568587 -0.01993898
v 0.01534844 -0.03568432 -0.01909538
v 0.01285232 -0.03655803 0.01642831
v 0.01285232 -0.03622632 0.04355845
v 0.01369172 -0.03587756 0.04432407
v 0.01447963 -0.03565900 0.04432407
v 0.01601764 -0.03506120 0.04496210
v 0.01439454 -0.03556032 0.04496210
v 0.02021355 -0.03297846 0.04496210
v 0.02293028 -0.03155190 0.04094256
v 0.02343140 -0.03132095 0.03980829
v 0.02345241 -0.03130235 0.03982247
v 0.02345556 -0.03130235 0.03977285
v 0.02344401 -0.03131165 0.03978702
v 0.02299122 -0.03161907 0.03924825
v 0.02238190 -0.03202673 0.03671034
v 0.02238505 -0.03202777 0.03586673
v 0.02343245 -0.03132095 0.03978702
v 0.02197953 -0.03229799 0.03163451
v 0.01925755 -0.03388472 0.01387622
v 0.01925965 -0.03388627 0.01303261
v 0.01969773 -0.03365531 0.00626957
v 0.01971244 -0.03366358 -0.00048638
v 0.01928486 -0.03390074 0.00120792
v 0.01876274 -0.03416683 0.00796387
v 0.01876274 -0.03416838 0.00712027
v 0.01802630 -0.03454297 0.00712027
v 0.01761028 -0.03474241 0.00035723
v 0.01704193 -0.03487778 -0.02670911
v 0.01703668 -0.03487571 -0.02746056
v 0.01760713 -0.03474138 -0.00048638
v 0.01759347 -0.03473569 -0.00302429
v 0.01799268 -0.03452179 -0.00725651
v 0.01754305 -0.03471192 -0.01233234
v 0.01795591 -0.03450422 -0.01401955
v 0.01707345 -0.03493772 -0.01233234
v 0.01707345 -0.03494185 -0.01148164
v 0.01761028 -0.03474138 0.00120792
v 0.01761028 -0.03474034 0.00205153
v 0.01707345 -0.03495787 0.00035723
v 0.01707345 -0.03495580 0.00120792
v 0.01329041 -0.03638959 0.01641413
v 0.01285232 -0.03655596 0.01727191
v 0.01285232 -0.03622942 0.04353009
v 0.01285232 -0.03628677 0.04283536
v 0.01285232 -0.03630279 0.04262977
v 0.01450274 -0.03568639 0.04348047
v 0.01622880 -0.03499145 0.04496210
v 0.02010745 -0.03305028 0.04496210
v 0.02224112 -0.03193166 0.04178616
v 0.02181775 -0.03221739 0.04178616
v 0.02229995 -0.03197506 0.04094256
v 0.02234303 -0.03200968 0.04009895
v 0.02236193 -0.03202208 0.03924825
v 0.02237559 -0.03202518 0.03756104
v 0.02197743 -0.03229541 0.03248521
v 0.01925440 -0.03388265 0.01471982
v 0.01876274 -0.03414823 0.01387622
v 0.01876274 -0.03415908 0.01049470
v 0.01802315 -0.03454297 0.00796387
v 0.01760713 -0.03473621 0.00458235
v 0.01759662 -0.03473053 0.00880039
v 0.01707345 -0.03492893 0.01049470
v 0.01328305 -0.03638752 0.01725774
v 0.01285232 -0.03655183 0.01810843
v 0.01285232 -0.03638029 0.03671034
v 0.01668369 -0.03482405 0.04496210
v 0.01285232 -0.03639114 0.03586673
v 0.01451640 -0.03569207 0.04262977
v 0.01859780 -0.03398651 0.04496210
v 0.02015472 -0.03308231 0.04432407
v 0.02187658 -0.03225097 0.04094256
v 0.02192070 -0.03226492 0.04009895
v 0.02192806 -0.03226647 0.03978702
v 0.02193961 -0.03226802 0.03924825
v 0.02195327 -0.03227474 0.03756104
v 0.02195747 -0.03227887 0.03671034
v 0.02196272 -0.03228197 0.03586673
v 0.01923234 -0.03387025 0.01810134
v 0.01876274 -0.03414358 0.01471982
v 0.01802105 -0.03454142 0.00880039
v 0.01801474 -0.03453987 0.00964400
v 0.01759032 -0.03472846 0.00964400
v 0.01707345 -0.03492325 0.01133830
v 0.01327675 -0.03638442 0.01810134
v 0.01292796 -0.03651618 0.01893786
v 0.01285232 -0.03654098 0.01964678
v 0.01684758 -0.03476721 0.04432407
v 0.01683918 -0.03476308 0.04496210
v 0.01453741 -0.03570499 0.04094256
v 0.01496709 -0.03553862 0.04094256
v 0.01285232 -0.03640096 0.03501603
v 0.01453741 -0.03571532 0.04009895
v 0.01861251 -0.03398857 0.04432407
v 0.02027659 -0.03312881 0.04178616
v 0.02025663 -0.03312571 0.04262977
v 0.02021355 -0.03311383 0.04348047
v 0.02029235 -0.03313708 0.03978702
v 0.01876274 -0.03413738 0.01556343
v 0.01864508 -0.03400562 0.04009895
v 0.01797587 -0.03453160 0.01387622
v 0.01796117 -0.03452592 0.01556343
v 0.01758297 -0.03472536 0.01049470
v 0.01756826 -0.03471916 0.01218900
v 0.01750102 -0.03469229 0.01959715
v 0.01707345 -0.03491705 0.01218900
v 0.01703038 -0.03484110 0.02487147
v 0.01688120 -0.03478168 0.04094256
v 0.01499545 -0.03554998 0.03839756
v 0.01453636 -0.03573857 0.03756104
v 0.01285232 -0.03653323 0.02059672
v 0.01685703 -0.03477134 0.04348047
v 0.01497865 -0.03554326 0.04009895
v 0.01285232 -0.03640922 0.03417243
v 0.01285232 -0.03650429 0.02391444
v 0.01453636 -0.03572359 0.03924825
v 0.01481896 -0.03560888 0.03978702
v 0.01793070 -0.03451249 0.01894495
v 0.01498285 -0.03554430 0.03978702
v 0.01453636 -0.03573134 0.03839756
f 1 2 3
f 1 3 8
f 1 8 15
f 1 15 24
f 1 24 43
f 1 43 67
f 1 67 103
f 1 103 72
f 1 72 45
f 1 45 28
f 1 28 16
f 1 16 9
f 1 9 4
f 1 4 12
f 1 12 18
f 1 18 32
f 1 32 56
f 1 56 85
f 1 85 86
f 1 86 57
f 1 57 34
f 1 34 33
f 1 33 19
f 1 19 13
f 1 13 5
f 1 5 2
f 2 6 3
f 2 5 7
f 2 7 6
f 3 6 8
f 4 9 10
f 4 10 11
f 4 11 12
f 5 13 14
f 5 14 7
f 6 15 8
f 6 7 14
f 6 14 15
f 9 16 29
f 9 29 49
f 9 49 76
f 9 76 116
f 9 116 138
f 9 138 160
f 9 160 184
f 9 184 188
f 9 188 187
f 9 187 165
f 9 165 141
f 9 141 139
f 9 139 119
f 9 119 118
f 9 118 117
f 9 117 77
f 9 77 51
f 9 51 30
f 9 30 17
f 9 17 10
f 10 17 31
f 10 31 54
f 10 54 53
f 10 53 81
f 10 81 80
f 10 80 121
f 10 121 140
f 10 140 162
f 10 162 143
f 10 143 122
f 10 122 82
f 10 82 55
f 10 55 32
f 10 32 18
f 10 18 11
f 11 18 12
f 13 19 20
f 13 20 14
f 14 20 15
f 15 21 22
f 15 22 23
f 15 23 24
f 15 20 25
f 15 25 26
f 15 26 27
f 15 27 21
f 16 28 29
f 17 30 31
f 19 33 20
f 20 33 34
f 20 34 35
f 20 35 36
f 20 36 37
f 20 37 26
f 20 26 25
f 21 38 39
f 21 39 40
f 21 40 22
f 21 27 41
f 21 41 42
f 21 42 38
f 22 40 23
f 23 40 24
f 24 40 44
f 24 44 43
f 26 37 27
f 27 37 41
f 28 45 46
f 28 46 29
f 29 47 48
f 29 48 49
f 29 46 50
f 29 50 47
f 30 51 52
f 30 52 53
f 30 53 54
f 30 54 31
f 32 55 56
f 34 57 58
f 34 58 35
f 35 59 60
f 35 60 36
f 35 58 59
f 36 60 61
f 36 61 62
f 36 62 42
f 36 42 37
f 37 42 41
f 38 63 39
f 38 42 63
f 39 63 97
f 39 97 64
f 39 64 40
f 40 64 65
f 40 65 66
f 40 66 44
f 42 62 63
f 43 44 68
f 43 68 67
f 44 66 69
f 44 69 70
f 44 70 71
f 44 71 68
f 45 72 46
f 46 72 50
f 47 50 72
f 47 72 48
f 48 72 73
f 48 73 74
f 48 74 75
f 48 75 76
f 48 76 49
f 51 77 78
f 51 78 52
f 52 78 79
f 52 79 80
f 52 80 81
f 52 81 53
f 55 82 83
f 55 83 56
f 56 83 84
f 56 84 85
f 57 86 87
f 57 87 58
f 58 88 89
f 58 89 90
f 58 90 59
f 58 87 91
f 58 91 88
f 59 90 61
f 59 61 60
f 61 90 89
f 61 89 92
f 61 92 93
f 61 93 94
f 61 94 95
f 61 95 62
f 62 95 63
f 63 95 96
f 63 96 97
f 64 97 98
f 64 98 99
f 64 99 65
f 65 99 100
f 65 100 66
f 66 100 101
f 66 101 69
f 67 102 103
f 67 68 71
f 67 71 102
f 69 101 104
f 69 104 70
f 70 104 71
f 71 104 105
f 71 105 106
f 71 106 107
f 71 107 108
f 71 108 102
f 72 74 73
f 72 103 102
f 72 102 109
f 72 109 110
f 72 110 104
f 72 104 101
f 72 101 74
f 74 101 111
f 74 111 112
f 74 112 75
f 75 112 113
f 75 113 114
f 75 114 115
f 75 115 76
f 76 115 116
f 77 117 79
f 77 79 78
f 79 117 118
f 79 118 119
f 79 119 120
f 79 120 121
f 79 121 80
f 82 122 83
f 83 123 124
f 83 124 125
f 83 125 84
f 83 122 123
f 84 91 87
f 84 87 85
f 84 125 126
f 84 126 91
f 85 87 86
f 88 127 128
f 88 128 89
f 88 91 126
f 88 126 127
f 89 128 129
f 89 129 92
f 92 129 93
f 93 130 131
f 93 131 132
f 93 132 94
f 93 129 130
f 94 132 98
f 94 98 97
f 94 97 96
f 94 96 95
f 98 132 133
f 98 133 100
f 98 100 99
f 100 133 112
f 100 112 111
f 100 111 101
f 102 108 107
f 102 107 109
f 104 110 105
f 105 110 109
f 105 109 107
f 105 107 106
f 112 134 113
f 112 133 134
f 113 134 135
f 113 135 114
f 114 135 115
f 115 135 136
f 115 136 137
f 115 137 138
f 115 138 116
f 119 139 120
f 120 140 121
f 120 139 141
f 120 141 142
f 120 142 140
f 122 143 144
f 122 144 124
f 122 124 123
f 124 145 125
f 124 144 145
f 125 145 126
f 126 145 146
f 126 146 127
f 127 147 148
f 127 148 149
f 127 149 150
f 127 150 151
f 127 151 128
f 127 146 147
f 128 151 129
f 129 151 130
f 130 152 153
f 130 153 131
f 130 151 150
f 130 150 152
f 131 153 154
f 131 154 132
f 132 154 133
f 133 154 135
f 133 135 134
f 135 154 155
f 135 155 156
f 135 156 136
f 136 156 157
f 136 157 158
f 136 158 137
f 137 158 138
f 138 158 159
f 138 159 160
f 140 161 162
f 140 142 163
f 140 163 164
f 140 164 161
f 141 165 166
f 141 166 163
f 141 163 142
f 143 162 167
f 143 167 168
f 143 168 169
f 143 169 170
f 143 170 144
f 144 170 145
f 145 170 146
f 146 170 169
f 146 169 147
f 147 169 168
f 147 168 148
f 148 168 171
f 148 171 149
f 149 171 152
f 149 152 150
f 152 172 153
f 152 171 173
f 152 173 172
f 153 172 174
f 153 174 155
f 153 155 154
f 155 174 156
f 156 174 175
f 156 175 176
f 156 176 157
f 157 176 177
f 157 177 178
f 157 178 179
f 157 179 158
f 158 160 159
f 158 179 180
f 158 180 181
f 158 181 182
f 158 182 183
f 158 183 160
f 160 183 184
f 161 185 167
f 161 167 162
f 161 164 186
f 161 186 185
f 163 166 164
f 164 166 186
f 165 187 166
f 166 187 188
f 166 188 189
f 166 189 190
f 166 190 186
f 167 173 171
f 167 171 168
f 167 185 191
f 167 191 175
f 167 175 173
f 172 175 174
f 172 173 175
f 175 177 176
f 175 191 178
f 175 178 177
f 178 191 185
f 178 185 181
f 178 181 180
f 178 180 179
f 181 185 192
f 181 192 182
f 182 192 183
f 183 192 190
f 183 190 193
f 183 193 184
f 184 193 188
f 185 186 192
f 186 190 192
f 188 193 189
f 189 193 190

