# https://github.com/mikedh/trimesh
v -0.02001641 0.03859747 -0.02961866
v -0.02176440 0.03859747 -0.02961866
v -0.02005649 0.03859747 -0.02924921
v -0.03079341 0.03050972 -0.02718360
v -0.03079341 0.03050179 -0.02839827
v -0.03079341 0.03049783 -0.02961866
v -0.02184563 0.03859747 -0.02920273
v -0.02250495 0.03818916 -0.02961866
v -0.02014933 0.03859747 -0.02840352
v -0.03079341 0.03175606 -0.02718360
v -0.02024638 0.03859747 -0.02761407
v -0.02030440 0.03859747 -0.02718360
v -0.03079341 0.03174496 -0.02961866
v -0.02197644 0.03859747 -0.02840352
v -0.02406622 0.03726708 -0.02961866
v -0.02258618 0.03823752 -0.02840352
v -0.03075544 0.03179095 -0.02718360
v -0.02213784 0.03859747 -0.02718360
v -0.03055078 0.03197806 -0.02718360
v -0.03036406 0.03214852 -0.02718360
v -0.02699783 0.03520491 -0.02718360
v -0.02691977 0.03524772 -0.02956384
v -0.02691977 0.03524693 -0.02961866
v -0.02264314 0.03827082 -0.02755806
v -0.02211252 0.03859747 -0.02738573
v -0.02409154 0.03728136 -0.02924921
v -0.02449030 0.03701655 -0.02961866
v -0.02269905 0.03826606 -0.02718360
v -0.02691977 0.03527547 -0.02718360
v -0.02657270 0.03558309 -0.02755806
v -0.02655899 0.03557120 -0.02961866
v -0.02414534 0.03731545 -0.02840352
v -0.02516334 0.03659396 -0.02961866
v -0.02451456 0.03703082 -0.02924921
v -0.02418437 0.03734874 -0.02755806
v -0.02419387 0.03736143 -0.02718360
v -0.02657481 0.03558547 -0.02718360
v -0.02519182 0.03664312 -0.02718360
v -0.02518760 0.03664233 -0.02755806
v -0.02518021 0.03663281 -0.02840352
v -0.02534795 0.03646552 -0.02961866
v -0.02456836 0.03705540 -0.02840352
v -0.02517072 0.03660823 -0.02924921
v -0.02442911 0.03720366 -0.02718360
v -0.02461584 0.03706650 -0.02718360
f 1 2 7
f 1 7 14
f 1 14 25
f 1 25 18
f 1 18 12
f 1 12 11
f 1 11 9
f 1 9 3
f 1 3 4
f 1 4 5
f 1 5 6
f 1 6 13
f 1 13 23
f 1 23 31
f 1 31 41
f 1 41 33
f 1 33 27
f 1 27 15
f 1 15 8
f 1 8 2
f 2 8 7
f 3 9 4
f 4 10 13
f 4 13 6
f 4 6 5
f 4 9 11
f 4 11 12
f 4 12 18
f 4 18 28
f 4 28 36
f 4 36 44
f 4 44 45
f 4 45 38
f 4 38 37
f 4 37 29
f 4 29 21
f 4 21 20
f 4 20 19
f 4 19 17
f 4 17 10
f 7 8 14
f 8 15 16
f 8 16 14
f 10 17 13
f 13 17 19
f 13 19 20
f 13 20 21
f 13 21 22
f 13 22 23
f 14 16 24
f 14 24 25
f 15 26 24
f 15 24 16
f 15 27 26
f 18 25 28
f 21 29 22
f 22 29 30
f 22 30 31
f 22 31 23
f 24 26 27
f 24 27 32
f 24 32 28
f 24 28 25
f 27 33 34
f 27 34 32
f 28 32 35
f 28 35 36
f 29 37 30
f 30 38 39
f 30 39 31
f 30 37 38
f 31 39 40
f 31 40 41
f 32 34 42
f 32 42 35
f 33 41 43
f 33 43 42
f 33 42 34
f 35 42 36
f 36 42 44
f 38 45 39
f 39 45 44
f 39 44 40
f 40 43 41
f 40 44 43
f 42 43 44

