# https://github.com/mikedh/trimesh
v -0.03336975 0.01581061 -0.02487596
v -0.03387325 0.01581061 -0.02334961
v -0.03336975 0.01620390 -0.02443241
v -0.03336975 0.01581061 0.04174865
v -0.03361698 0.01647552 -0.02332352
v -0.03337622 0.01645576 -0.02412583
v -0.03407415 0.01581061 -0.02248207
v -0.03336975 0.01645576 -0.02414540
v -0.03336975 0.01733333 0.04174865
v -0.03400936 0.01581061 0.04174865
v -0.03336975 0.01702149 -0.02332352
v -0.03336975 0.01648575 -0.02410627
v -0.03401296 0.01595102 -0.02248207
v -0.03410324 0.01581061 -0.02163410
v -0.03403005 0.01599005 -0.02163410
v -0.03336975 0.01733401 0.04165734
v -0.03339640 0.01728527 0.04174865
v -0.03340631 0.01726738 0.04174865
v -0.03346794 0.01732106 0.00035451
v -0.03410310 0.01581061 -0.02043389
v -0.03336975 0.01712510 -0.02306913
v -0.03341156 0.01738871 -0.02156235
v -0.03342930 0.01723228 -0.02248207
v -0.03410345 0.01581061 -0.02127534
v -0.03347067 0.01732106 -0.00894711
v -0.03347060 0.01732106 -0.00979508
v -0.03347010 0.01732106 -0.01064306
v -0.03346938 0.01732106 -0.01148451
v -0.03346787 0.01732106 -0.01318046
v -0.03346700 0.01732106 -0.01402190
v -0.03346571 0.01732106 -0.01486988
v -0.03346104 0.01732106 -0.01740728
v -0.03345630 0.01732106 -0.01994467
v -0.03345472 0.01732106 -0.02078612
v -0.03346909 0.01732106 -0.00049347
v -0.03346952 0.01732106 -0.00133492
v -0.03346988 0.01732106 -0.00303086
v -0.03347002 0.01732106 -0.00387232
v -0.03347031 0.01732106 -0.00556826
v -0.03347060 0.01732106 -0.00810566
v -0.03336975 0.01745653 0.01972744
v -0.03336975 0.01747681 0.01557237
v -0.03336975 0.01749742 0.01133902
v -0.03336975 0.01751208 0.00832546
v -0.03336975 0.01752009 0.00664256
v -0.03336975 0.01752401 0.00580763
v -0.03336975 0.01753185 0.00412473
v -0.03336975 0.01754343 0.00160690
v -0.03336975 0.01754906 0.00035451
v -0.03336975 0.01755042 -0.00007600
v -0.03336975 0.01728204 -0.02263862
v -0.03336975 0.01748038 -0.02147755
v -0.03336975 0.01732447 -0.02248207
v -0.03336975 0.01755127 -0.00091745
v -0.03336975 0.01755042 -0.00176543
v -0.03336975 0.01754769 -0.00346137
v -0.03336975 0.01754480 -0.00515080
v -0.03336975 0.01753866 -0.00854269
v -0.03336975 0.01753696 -0.00939067
v -0.03336975 0.01753491 -0.01023864
v -0.03336975 0.01752776 -0.01278256
v -0.03336975 0.01752520 -0.01363053
v -0.03336975 0.01752230 -0.01448503
v -0.03336975 0.01751907 -0.01533300
v -0.03336975 0.01750458 -0.01909670
v -0.03336975 0.01749930 -0.02044041
v -0.03336975 0.01749794 -0.02078612
v -0.03336975 0.01755093 -0.00049347
f 1 2 3
f 1 3 8
f 1 8 12
f 1 12 11
f 1 11 21
f 1 21 51
f 1 51 53
f 1 53 52
f 1 52 67
f 1 67 66
f 1 66 65
f 1 65 64
f 1 64 63
f 1 63 62
f 1 62 61
f 1 61 60
f 1 60 59
f 1 59 58
f 1 58 57
f 1 57 56
f 1 56 55
f 1 55 54
f 1 54 68
f 1 68 50
f 1 50 49
f 1 49 48
f 1 48 47
f 1 47 46
f 1 46 45
f 1 45 44
f 1 44 43
f 1 43 42
f 1 42 41
f 1 41 16
f 1 16 9
f 1 9 4
f 1 4 10
f 1 10 20
f 1 20 24
f 1 24 14
f 1 14 7
f 1 7 2
f 2 5 6
f 2 6 3
f 2 7 5
f 3 6 8
f 4 9 17
f 4 17 18
f 4 18 10
f 5 11 12
f 5 12 6
f 5 7 13
f 5 13 11
f 6 12 8
f 7 14 15
f 7 15 13
f 9 16 17
f 10 18 19
f 10 19 20
f 11 13 21
f 13 15 22
f 13 22 23
f 13 23 21
f 14 24 15
f 15 25 26
f 15 26 27
f 15 27 28
f 15 28 29
f 15 29 30
f 15 30 31
f 15 31 32
f 15 32 33
f 15 33 34
f 15 34 22
f 15 24 20
f 15 20 35
f 15 35 36
f 15 36 37
f 15 37 38
f 15 38 39
f 15 39 40
f 15 40 25
f 16 41 18
f 16 18 17
f 18 41 42
f 18 42 43
f 18 43 44
f 18 44 19
f 19 44 45
f 19 45 46
f 19 46 47
f 19 47 48
f 19 48 49
f 19 49 50
f 19 50 35
f 19 35 20
f 21 23 51
f 22 52 23
f 22 34 52
f 23 53 51
f 23 52 53
f 25 40 54
f 25 54 26
f 26 54 55
f 26 55 27
f 27 55 56
f 27 56 57
f 27 57 58
f 27 58 28
f 28 58 29
f 29 58 59
f 29 59 30
f 30 59 60
f 30 60 61
f 30 61 62
f 30 62 31
f 31 62 63
f 31 63 64
f 31 64 32
f 32 65 33
f 32 64 65
f 33 65 34
f 34 65 66
f 34 66 67
f 34 67 52
f 35 50 68
f 35 68 36
f 36 68 54
f 36 54 37
f 37 54 38
f 38 54 39
f 39 54 40

