# https://github.com/mikedh/trimesh
v -0.02718795 -0.02103622 0.00776747
v -0.02718795 -0.01947477 0.00776747
v -0.02720974 -0.02101042 0.00776747
v -0.02719057 -0.02097025 -0.00303256
v -0.02718795 -0.02097818 -0.00219457
v -0.02720342 -0.01945096 0.00776747
v -0.02718795 -0.01755868 -0.02775512
v -0.02728236 -0.02091321 0.00776747
v -0.02718795 -0.02096777 -0.00388099
v -0.02718795 -0.02097322 -0.00303952
v -0.02752514 -0.02058782 0.00776747
v -0.02725676 -0.01937012 0.00776747
v -0.02718795 -0.01897380 -0.02775512
v -0.02736511 -0.01729778 -0.02775512
v -0.02718795 -0.02096628 -0.00408614
v -0.02825309 -0.01957894 0.00776747
v -0.02752347 -0.02058534 0.00711377
v -0.02749156 -0.01904423 0.00776747
v -0.02747108 -0.01874117 -0.02775512
v -0.02718795 -0.01940979 -0.02693451
v -0.02840430 -0.01596946 -0.02775512
v -0.02840430 -0.01779578 0.00776747
v -0.02798460 -0.01836172 0.00776747
v -0.02718795 -0.02094892 -0.00641583
v -0.02840430 -0.01935027 0.00776747
v -0.02840430 -0.01913153 -0.02238639
v -0.02824904 -0.01957348 0.00626882
v -0.02750966 -0.02056649 0.00204060
v -0.02721485 -0.01937458 -0.02695885
v -0.02753406 -0.01879325 -0.02755692
v -0.02795686 -0.01843960 -0.02755692
v -0.02772635 -0.01852739 -0.02775512
v -0.02718795 -0.01986265 -0.02607218
v -0.02739416 -0.01952388 -0.02639207
v -0.02840430 -0.01792474 -0.02775512
v -0.02718795 -0.02093602 -0.00813702
v -0.02746858 -0.02050945 -0.01317889
v -0.02840430 -0.01913054 -0.02248028
v -0.02817213 -0.01946733 -0.02202477
v -0.02817403 -0.01946932 -0.02145799
v -0.02818046 -0.01947824 -0.01910048
v -0.02818499 -0.01948469 -0.01740711
v -0.02820785 -0.01951644 -0.00895415
v -0.02807033 -0.01823723 -0.02775512
v -0.02811891 -0.01857203 -0.02701796
v -0.02718795 -0.02019498 -0.02536284
v -0.02836549 -0.01796343 -0.02775512
v -0.02840430 -0.01800757 -0.02759169
v -0.02718795 -0.02083483 -0.02163533
v -0.02744572 -0.02047771 -0.02163533
v -0.02816879 -0.01946535 -0.02248028
v -0.02840430 -0.01909433 -0.02317918
v -0.02744334 -0.02047424 -0.02248028
v -0.02718795 -0.02082839 -0.02248028
v -0.02822928 -0.01869504 -0.02645466
v -0.02840430 -0.01803237 -0.02753953
v -0.02840430 -0.01802444 -0.02755692
v -0.02723474 -0.02023367 -0.02518898
v -0.02718795 -0.02029071 -0.02515421
v -0.02718795 -0.02083384 -0.02176746
v -0.02840430 -0.01908144 -0.02332870
v -0.02742119 -0.02044299 -0.02332870
v -0.02718795 -0.02081747 -0.02262979
v -0.02828845 -0.01877689 -0.02586355
v -0.02840430 -0.01861568 -0.02586702
v -0.02840430 -0.01850656 -0.02625994
v -0.02840430 -0.01838950 -0.02664243
v -0.02733463 -0.02032345 -0.02462568
v -0.02718795 -0.02054070 -0.02441705
v -0.02840430 -0.01896190 -0.02414931
v -0.02718795 -0.02076341 -0.02332870
v -0.02840430 -0.01865983 -0.02566187
v -0.02736928 -0.02037057 -0.02417365
v -0.02840430 -0.01879028 -0.02501860
v -0.02718795 -0.02072174 -0.02357210
v -0.02840430 -0.01895793 -0.02417365
v -0.02840430 -0.01893759 -0.02427797
v -0.02840430 -0.01880913 -0.02492472
f 1 2 6
f 1 6 12
f 1 12 18
f 1 18 23
f 1 23 22
f 1 22 25
f 1 25 16
f 1 16 11
f 1 11 8
f 1 8 3
f 1 3 4
f 1 4 5
f 1 5 10
f 1 10 9
f 1 9 15
f 1 15 24
f 1 24 36
f 1 36 49
f 1 49 60
f 1 60 54
f 1 54 63
f 1 63 71
f 1 71 75
f 1 75 69
f 1 69 59
f 1 59 46
f 1 46 33
f 1 33 20
f 1 20 13
f 1 13 7
f 1 7 2
f 2 7 6
f 3 8 4
f 4 9 10
f 4 10 5
f 4 8 11
f 4 11 9
f 6 7 12
f 7 13 19
f 7 19 32
f 7 32 44
f 7 44 47
f 7 47 35
f 7 35 21
f 7 21 14
f 7 14 12
f 9 11 15
f 11 16 17
f 11 17 15
f 12 14 18
f 13 20 19
f 14 21 22
f 14 22 23
f 14 23 18
f 15 17 24
f 16 25 26
f 16 26 27
f 16 27 17
f 17 27 28
f 17 28 24
f 19 20 29
f 19 29 30
f 19 30 31
f 19 31 32
f 20 33 34
f 20 34 29
f 21 35 48
f 21 48 57
f 21 57 56
f 21 56 67
f 21 67 66
f 21 66 65
f 21 65 72
f 21 72 74
f 21 74 78
f 21 78 77
f 21 77 76
f 21 76 70
f 21 70 61
f 21 61 52
f 21 52 38
f 21 38 26
f 21 26 25
f 21 25 22
f 24 28 37
f 24 37 36
f 26 38 39
f 26 39 40
f 26 40 41
f 26 41 42
f 26 42 43
f 26 43 27
f 27 43 37
f 27 37 28
f 29 34 30
f 30 34 31
f 31 44 32
f 31 34 45
f 31 45 44
f 33 45 34
f 33 46 45
f 35 47 48
f 36 37 49
f 37 50 49
f 37 43 50
f 38 51 39
f 38 52 51
f 39 51 53
f 39 53 40
f 40 53 54
f 40 54 50
f 40 50 41
f 41 50 42
f 42 50 43
f 44 45 47
f 45 55 56
f 45 56 57
f 45 57 48
f 45 48 47
f 45 46 58
f 45 58 55
f 46 59 58
f 49 50 60
f 50 54 60
f 51 52 53
f 52 61 62
f 52 62 63
f 52 63 54
f 52 54 53
f 55 64 65
f 55 65 66
f 55 66 67
f 55 67 56
f 55 58 68
f 55 68 64
f 58 59 69
f 58 69 68
f 61 70 62
f 62 70 71
f 62 71 63
f 64 72 65
f 64 68 73
f 64 73 74
f 64 74 72
f 68 69 75
f 68 75 73
f 70 76 71
f 71 76 75
f 73 75 76
f 73 76 77
f 73 77 78
f 73 78 74

