# https://github.com/mikedh/trimesh
v 0.03140479 -0.01066814 -0.02746056
v 0.03120134 -0.01134105 -0.02746056
v 0.03131474 -0.01066814 -0.02763771
v 0.03025913 -0.01066814 -0.02746056
v 0.03117299 -0.01143460 -0.02746056
v 0.03130974 -0.01066814 -0.02764448
v 0.03096120 -0.01143460 -0.02785887
v 0.03101957 -0.01099450 -0.02797486
v 0.02319676 -0.01066814 -0.02976600
v 0.02314506 -0.01072661 -0.02976600
v 0.02237128 -0.01165465 -0.02976600
v 0.01437003 -0.02152824 -0.02976600
v 0.02152413 -0.02152824 -0.02746056
v 0.03103958 -0.01180666 -0.02746056
v 0.03018743 -0.01356707 -0.02799224
v 0.03072940 -0.01066814 -0.02836189
v 0.03026914 -0.01312591 -0.02809244
v 0.02932360 -0.01437074 -0.02881932
v 0.03018409 -0.01102532 -0.02882970
v 0.02814626 -0.01066814 -0.02976600
v 0.01919613 -0.02152824 -0.02976600
v 0.02366036 -0.02152824 -0.02746056
v 0.03090117 -0.01219043 -0.02746056
v 0.02938697 -0.01531472 -0.02811026
v 0.02950704 -0.01481722 -0.02828425
v 0.03027081 -0.01374460 -0.02755805
v 0.03022912 -0.01066814 -0.02887415
v 0.02939697 -0.01380626 -0.02887235
v 0.02921520 -0.01481722 -0.02870671
v 0.02862320 -0.01535831 -0.02887822
v 0.02879163 -0.01481722 -0.02893599
v 0.02898841 -0.01404226 -0.02899218
v 0.02891170 -0.01312591 -0.02915556
v 0.02887501 -0.01066814 -0.02949226
v 0.02797783 -0.01106572 -0.02976600
v 0.01942793 -0.02137197 -0.02976600
v 0.01957802 -0.02152824 -0.02959359
v 0.02380043 -0.02141131 -0.02746056
v 0.02363034 -0.02152824 -0.02748178
v 0.02521291 -0.01956692 -0.02803850
v 0.03028748 -0.01377968 -0.02746056
v 0.02978053 -0.01481722 -0.02755805
v 0.02980721 -0.01481615 -0.02746056
v 0.02947035 -0.01543272 -0.02755805
v 0.02915517 -0.01587282 -0.02746056
v 0.02913849 -0.01585369 -0.02755805
v 0.02871658 -0.01634375 -0.02755805
v 0.02859485 -0.01620343 -0.02813125
v 0.02889169 -0.01561769 -0.02840273
v 0.02947869 -0.01312591 -0.02892809
v 0.02976218 -0.01066814 -0.02913277
v 0.02828967 -0.01592066 -0.02869452
v 0.02608508 -0.01876113 -0.02807393
v 0.02772602 -0.01614603 -0.02885971
v 0.02534799 -0.01626509 -0.02975404
v 0.02591164 -0.01600571 -0.02963895
v 0.02568151 -0.01578565 -0.02976600
v 0.02581159 -0.01557942 -0.02976600
v 0.02606507 -0.01544229 -0.02970732
v 0.02622182 -0.01481722 -0.02975697
v 0.02689721 -0.01375842 -0.02970304
v 0.02772935 -0.01203735 -0.02969920
v 0.02711567 -0.01287822 -0.02976600
v 0.02432240 -0.02033656 -0.02800781
v 0.02431073 -0.02035357 -0.02800307
v 0.02526794 -0.01629804 -0.02976600
v 0.02069532 -0.02152824 -0.02904047
v 0.02577657 -0.01932454 -0.02773678
v 0.02457254 -0.02067036 -0.02746056
v 0.02311838 -0.02152824 -0.02783450
v 0.02947702 -0.01545930 -0.02746056
v 0.02873493 -0.01635757 -0.02746056
v 0.02754591 -0.01767469 -0.02746056
v 0.02752424 -0.01765343 -0.02755805
v 0.02664873 -0.01849005 -0.02770474
v 0.02777104 -0.01706450 -0.02811478
v 0.02694057 -0.01792557 -0.02810395
v 0.02532131 -0.01624170 -0.02976600
v 0.02539135 -0.01615772 -0.02976600
v 0.02619180 -0.01481722 -0.02976600
v 0.02625851 -0.01467902 -0.02976600
v 0.02338353 -0.02113385 -0.02796177
v 0.02545305 -0.01981567 -0.02746056
v 0.02501280 -0.02024514 -0.02746056
v 0.02703229 -0.01822429 -0.02746056
v 0.02633689 -0.01893440 -0.02746056
v 0.02587162 -0.01940321 -0.02746056
f 1 2 3
f 1 3 6
f 1 6 16
f 1 16 27
f 1 27 51
f 1 51 34
f 1 34 20
f 1 20 9
f 1 9 4
f 1 4 13
f 1 13 22
f 1 22 38
f 1 38 69
f 1 69 84
f 1 84 83
f 1 83 87
f 1 87 86
f 1 86 85
f 1 85 73
f 1 73 72
f 1 72 45
f 1 45 71
f 1 71 43
f 1 43 41
f 1 41 23
f 1 23 14
f 1 14 5
f 1 5 2
f 2 5 3
f 3 5 7
f 3 7 8
f 3 8 6
f 4 9 10
f 4 10 11
f 4 11 12
f 4 12 13
f 5 14 15
f 5 15 7
f 6 8 16
f 7 17 8
f 7 15 17
f 8 17 18
f 8 18 19
f 8 19 16
f 9 20 35
f 9 35 63
f 9 63 81
f 9 81 80
f 9 80 58
f 9 58 57
f 9 57 79
f 9 79 78
f 9 78 66
f 9 66 36
f 9 36 21
f 9 21 12
f 9 12 11
f 9 11 10
f 12 21 37
f 12 37 67
f 12 67 70
f 12 70 39
f 12 39 22
f 12 22 13
f 14 23 15
f 15 24 25
f 15 25 18
f 15 18 17
f 15 23 26
f 15 26 24
f 16 19 27
f 18 28 27
f 18 27 19
f 18 25 29
f 18 29 30
f 18 30 31
f 18 31 32
f 18 32 33
f 18 33 28
f 20 34 33
f 20 33 35
f 21 36 37
f 22 39 40
f 22 40 38
f 23 41 26
f 24 26 41
f 24 41 42
f 24 42 43
f 24 43 44
f 24 44 45
f 24 45 46
f 24 46 47
f 24 47 48
f 24 48 49
f 24 49 29
f 24 29 25
f 27 28 50
f 27 50 51
f 28 33 34
f 28 34 50
f 29 49 30
f 30 49 52
f 30 52 53
f 30 53 40
f 30 40 54
f 30 54 36
f 30 36 55
f 30 55 56
f 30 56 57
f 30 57 31
f 31 57 58
f 31 58 59
f 31 59 60
f 31 60 32
f 32 60 61
f 32 61 62
f 32 62 33
f 33 62 35
f 34 51 50
f 35 62 63
f 36 40 64
f 36 64 65
f 36 65 37
f 36 66 55
f 36 54 40
f 37 65 67
f 38 40 53
f 38 53 68
f 38 68 69
f 39 70 65
f 39 65 40
f 40 65 64
f 41 43 42
f 43 71 44
f 44 71 45
f 45 72 47
f 45 47 46
f 47 72 73
f 47 73 74
f 47 74 48
f 48 74 75
f 48 75 76
f 48 76 49
f 49 76 77
f 49 77 52
f 52 77 53
f 53 77 68
f 55 66 78
f 55 78 79
f 55 79 57
f 55 57 56
f 58 80 60
f 58 60 59
f 60 80 81
f 60 81 63
f 60 63 62
f 60 62 61
f 65 70 82
f 65 82 67
f 67 82 70
f 68 83 84
f 68 84 69
f 68 77 75
f 68 75 83
f 73 85 74
f 74 85 75
f 75 86 87
f 75 87 83
f 75 77 76
f 75 85 86

