# https://github.com/mikedh/trimesh
v 0.02955777 0.03289747 0.04517769
v 0.02955628 0.03156394 0.04517769
v 0.02284862 0.03112915 0.04539324
v 0.02284862 0.03112915 0.04598436
v 0.02955628 0.03288686 0.04547959
v 0.02955628 0.03286830 0.04601994
v 0.02983279 0.03265356 0.04517769
v 0.03231100 0.02962330 0.04517436
v 0.02955628 0.02269717 0.04517769
v 0.02284862 0.03081631 0.04539324
v 0.02287538 0.03112915 0.04604574
v 0.03118265 0.01935672 0.04601994
v 0.02323217 0.03112915 0.04660399
v 0.02955628 0.03269465 0.04650682
v 0.03023269 0.03216973 0.04648351
v 0.02981644 0.03263633 0.04601994
v 0.03027432 0.03221347 0.04601994
v 0.03029216 0.03222805 0.04517769
v 0.03231100 0.02807767 0.04517436
v 0.03071139 0.03171108 0.04517769
v 0.03103993 0.03128557 0.04517769
v 0.03231100 0.02962197 0.04602015
v 0.03508801 0.02598327 0.04602015
v 0.03508801 0.02598327 0.04517436
v 0.03002011 0.02161947 0.04517769
v 0.03106966 0.01935672 0.04517769
v 0.03108899 0.01935672 0.04537888
v 0.03086451 0.01979283 0.04517769
v 0.02325447 0.03107745 0.04659254
v 0.03095073 0.02010434 0.04650848
v 0.03231100 0.01935539 0.04675421
v 0.03154836 0.01935672 0.04658505
v 0.02379858 0.03081764 0.04674277
v 0.02381344 0.03112915 0.04682807
v 0.02955628 0.03249714 0.04656612
v 0.02969156 0.03248654 0.04653803
v 0.02468609 0.03112915 0.04697206
v 0.02637639 0.03112915 0.04697851
v 0.03516234 0.02525950 0.04726897
v 0.03102804 0.03127364 0.04644294
v 0.03069504 0.03170312 0.04601994
v 0.03703847 0.01935539 0.04517436
v 0.03103398 0.03128026 0.04601994
v 0.03210733 0.02988708 0.04601994
v 0.03358801 0.02791993 0.04648351
v 0.03540913 0.02556041 0.04602015
v 0.03540913 0.02556041 0.04517436
v 0.03231100 0.01935539 0.04548313
v 0.03314202 0.01935539 0.04681850
v 0.03229613 0.01935672 0.04675317
v 0.02468609 0.03085210 0.04696644
v 0.02955628 0.03169517 0.04676378
v 0.02975995 0.03169517 0.04674110
v 0.02722228 0.03112915 0.04696145
v 0.03343637 0.02611317 0.04729539
v 0.03343637 0.02624441 0.04729539
v 0.03364450 0.02624441 0.04729539
v 0.03420793 0.02602966 0.04725399
v 0.03459743 0.02546629 0.04729997
v 0.03529020 0.02469481 0.04729914
v 0.03611081 0.02290263 0.04729269
v 0.03617474 0.02385307 0.04668243
v 0.03535709 0.02549280 0.04670532
v 0.03803451 0.01935539 0.04517436
v 0.03573767 0.02493341 0.04602015
v 0.03621042 0.02394851 0.04517436
v 0.03398643 0.01935539 0.04687801
v 0.03605581 0.02274489 0.04729269
v 0.02806817 0.03112915 0.04693023
v 0.02891406 0.03112915 0.04689091
v 0.02975995 0.03084945 0.04688009
v 0.03428970 0.02525023 0.04729997
v 0.03529020 0.02434088 0.04729914
v 0.03611081 0.02274489 0.04729269
v 0.03739080 0.01935539 0.04698766
v 0.03791558 0.01935539 0.04668055
v 0.03786652 0.01962449 0.04662230
v 0.03625502 0.02320751 0.04692462
v 0.03696414 0.02201980 0.04651036
v 0.03621190 0.02394586 0.04602015
v 0.03790368 0.01971728 0.04602015
v 0.03803599 0.01935539 0.04602015
v 0.03790220 0.01971462 0.04517436
v 0.03652261 0.01935539 0.04703697
v 0.03515194 0.02434088 0.04729914
v 0.03652261 0.02070615 0.04714038
f 1 2 3
f 1 3 4
f 1 4 5
f 1 5 6
f 1 6 7
f 1 7 8
f 1 8 2
f 2 8 19
f 2 19 9
f 2 9 10
f 2 10 3
f 3 10 4
f 4 11 6
f 4 6 5
f 4 10 12
f 4 12 11
f 6 11 13
f 6 13 14
f 6 14 15
f 6 15 16
f 6 16 7
f 7 16 17
f 7 17 18
f 7 18 8
f 8 18 20
f 8 20 21
f 8 21 22
f 8 22 23
f 8 23 24
f 8 24 47
f 8 47 66
f 8 66 83
f 8 83 64
f 8 64 42
f 8 42 19
f 9 19 25
f 9 25 10
f 10 26 27
f 10 27 12
f 10 25 28
f 10 28 26
f 11 29 13
f 11 12 30
f 11 30 29
f 12 27 31
f 12 31 32
f 12 32 30
f 13 33 34
f 13 34 14
f 13 29 32
f 13 32 33
f 14 35 36
f 14 36 15
f 14 34 37
f 14 37 38
f 14 38 35
f 15 39 40
f 15 40 17
f 15 17 16
f 15 36 39
f 17 40 41
f 17 41 18
f 18 41 20
f 19 42 26
f 19 26 28
f 19 28 25
f 20 41 40
f 20 40 43
f 20 43 21
f 21 44 22
f 21 43 44
f 22 45 23
f 22 44 40
f 22 40 45
f 23 46 47
f 23 47 24
f 23 45 46
f 26 42 48
f 26 48 31
f 26 31 27
f 29 30 32
f 31 49 50
f 31 50 32
f 31 48 42
f 31 42 64
f 31 64 82
f 31 82 76
f 31 76 75
f 31 75 84
f 31 84 67
f 31 67 49
f 32 50 34
f 32 34 33
f 34 51 37
f 34 50 51
f 35 52 53
f 35 53 36
f 35 38 54
f 35 54 52
f 36 53 39
f 37 51 55
f 37 55 56
f 37 56 38
f 38 56 57
f 38 57 54
f 39 58 57
f 39 57 59
f 39 59 60
f 39 60 61
f 39 61 62
f 39 62 63
f 39 63 40
f 39 53 58
f 40 44 43
f 40 63 45
f 45 63 46
f 46 63 65
f 46 65 47
f 47 65 66
f 49 67 68
f 49 68 50
f 50 68 51
f 51 68 55
f 52 54 69
f 52 69 70
f 52 70 71
f 52 71 57
f 52 57 53
f 53 57 58
f 54 57 69
f 55 68 72
f 55 72 56
f 56 72 59
f 56 59 57
f 57 71 70
f 57 70 69
f 59 72 73
f 59 73 60
f 60 73 74
f 60 74 61
f 61 74 75
f 61 75 76
f 61 76 77
f 61 77 78
f 61 78 62
f 62 78 77
f 62 77 79
f 62 79 80
f 62 80 65
f 62 65 63
f 64 81 82
f 64 83 81
f 65 80 66
f 66 80 81
f 66 81 83
f 67 84 68
f 68 85 72
f 68 84 86
f 68 86 74
f 68 74 73
f 68 73 85
f 72 85 73
f 74 86 75
f 75 86 84
f 76 82 77
f 77 82 81
f 77 81 79
f 79 81 80

