# https://github.com/mikedh/trimesh
v 0.02999188 -0.01997675 0.04696282
v 0.02999188 -0.02050317 0.04696081
v 0.02999188 -0.01997675 0.04603262
v 0.02967197 -0.01997675 0.04695178
v 0.02637646 -0.02327335 0.04690638
v 0.02722165 -0.02327335 0.04691114
v 0.02891255 -0.02327335 0.04691240
v 0.02975825 -0.02242741 0.04692544
v 0.02999188 -0.02219423 0.04692068
v 0.02999188 -0.02014110 0.04539843
v 0.02837819 -0.01997675 0.04539843
v 0.02867943 -0.01997675 0.04671045
v 0.02722267 -0.02158230 0.04679048
v 0.02637696 -0.02242741 0.04680152
v 0.02595210 -0.02285205 0.04680478
v 0.02553076 -0.02327335 0.04680804
v 0.02483694 -0.02396663 0.04679625
v 0.02483694 -0.02411888 0.04680929
v 0.02553076 -0.02411888 0.04688003
v 0.02637646 -0.02411888 0.04688681
v 0.02722165 -0.02411888 0.04688982
v 0.02891255 -0.02411888 0.04689459
v 0.02975825 -0.02285205 0.04690688
v 0.02896806 -0.02406340 0.04689434
v 0.02999188 -0.02285205 0.04688179
v 0.02999188 -0.02018991 0.04539843
v 0.02483694 -0.02285205 0.04439999
v 0.02655509 -0.01997675 0.04539843
v 0.02841502 -0.01997675 0.04662089
v 0.02483694 -0.02320494 0.04657524
v 0.02483694 -0.02330422 0.04660785
v 0.02483694 -0.02423818 0.04681506
v 0.02541167 -0.02423818 0.04687376
v 0.02543337 -0.02423818 0.04687402
v 0.02625737 -0.02423818 0.04688003
v 0.02637646 -0.02423818 0.04688079
v 0.02806685 -0.02423818 0.04688681
v 0.02879397 -0.02423818 0.04688907
v 0.02891255 -0.02423818 0.04688681
v 0.02896806 -0.02423818 0.04688079
v 0.02999188 -0.02285205 0.04587357
v 0.02483694 -0.02423818 0.04581110
v 0.02483694 -0.02180338 0.04539843
v 0.02896806 -0.02423818 0.04592098
v 0.02665146 -0.01997675 0.04564302
v 0.02825052 -0.01997675 0.04655642
v 0.02820965 -0.02005309 0.04657825
v 0.02558980 -0.02247538 0.04656470
v 0.02500447 -0.02285205 0.04648668
v 0.02483694 -0.02313069 0.04654162
v 0.02483694 -0.02191350 0.04561192
v 0.02578205 -0.02097120 0.04574738
v 0.02661059 -0.02007645 0.04574212
v 0.02683766 -0.01997675 0.04582089
v 0.02813598 -0.01997675 0.04650073
v 0.02722267 -0.02051193 0.04633867
v 0.02504282 -0.02278948 0.04647439
v 0.02483694 -0.02288458 0.04640766
v 0.02483694 -0.02218505 0.04588686
v 0.02496915 -0.02184759 0.04573885
v 0.02705060 -0.01997675 0.04594858
v 0.02780951 -0.01997675 0.04633942
v 0.02717776 -0.01997675 0.04602032
f 1 2 9
f 1 9 25
f 1 25 41
f 1 41 26
f 1 26 10
f 1 10 3
f 1 3 11
f 1 11 28
f 1 28 45
f 1 45 54
f 1 54 61
f 1 61 63
f 1 63 62
f 1 62 55
f 1 55 46
f 1 46 29
f 1 29 12
f 1 12 4
f 1 4 5
f 1 5 2
f 2 6 7
f 2 7 8
f 2 8 9
f 2 5 6
f 3 10 11
f 4 12 13
f 4 13 14
f 4 14 15
f 4 15 16
f 4 16 5
f 5 16 17
f 5 17 18
f 5 18 19
f 5 19 20
f 5 20 6
f 6 21 22
f 6 22 7
f 6 20 21
f 7 22 8
f 8 23 9
f 8 22 24
f 8 24 23
f 9 23 25
f 10 26 27
f 10 27 11
f 11 27 28
f 12 29 30
f 12 30 13
f 13 30 31
f 13 31 14
f 14 31 15
f 15 31 16
f 16 31 17
f 17 31 30
f 17 30 50
f 17 50 58
f 17 58 59
f 17 59 51
f 17 51 43
f 17 43 27
f 17 27 42
f 17 42 32
f 17 32 18
f 18 32 33
f 18 33 19
f 19 33 34
f 19 34 20
f 20 34 35
f 20 35 36
f 20 36 37
f 20 37 21
f 21 37 38
f 21 38 22
f 22 38 39
f 22 39 24
f 23 24 39
f 23 39 25
f 25 39 40
f 25 40 44
f 25 44 41
f 26 41 27
f 27 43 28
f 27 41 44
f 27 44 42
f 28 43 45
f 29 46 47
f 29 47 30
f 30 48 49
f 30 49 50
f 30 47 48
f 32 42 44
f 32 44 40
f 32 40 39
f 32 39 38
f 32 38 37
f 32 37 36
f 32 36 35
f 32 35 34
f 32 34 33
f 43 51 45
f 45 51 52
f 45 52 53
f 45 53 54
f 46 55 47
f 47 55 56
f 47 56 57
f 47 57 49
f 47 49 48
f 49 57 58
f 49 58 50
f 51 59 60
f 51 60 52
f 52 60 59
f 52 59 58
f 52 58 53
f 53 58 54
f 54 58 57
f 54 57 61
f 55 62 56
f 56 62 63
f 56 63 57
f 57 63 61

