# https://github.com/mikedh/trimesh
v -0.02840430 -0.01934946 0.00776747
v -0.02840430 -0.01934781 0.00747887
v -0.02840430 -0.01779505 0.00776747
v -0.02928644 -0.01814663 0.00776747
v -0.02928492 -0.01814415 0.00711377
v -0.02928238 -0.01814167 0.00626882
v -0.02928035 -0.01813836 0.00542387
v -0.02840430 -0.01913189 -0.02238639
v -0.03265620 -0.01089905 0.00776747
v -0.02840430 -0.01596847 -0.02775512
v -0.03003465 -0.01225575 -0.02775512
v -0.03043641 -0.01135652 -0.02775512
v -0.03064185 -0.01089905 -0.02775512
v -0.02970950 -0.01756011 0.00776747
v -0.02970747 -0.01755845 0.00711377
v -0.02970087 -0.01754935 0.00457892
v -0.02968718 -0.01753033 -0.00049772
v -0.02925296 -0.01810031 -0.00472594
v -0.02921390 -0.01804653 -0.01910048
v -0.02920477 -0.01803330 -0.02248028
v -0.02840430 -0.01913024 -0.02248028
v -0.02923926 -0.01808128 -0.00979910
v -0.03358602 -0.01089905 0.00776747
v -0.02840430 -0.01792410 -0.02775512
v -0.03201553 -0.01089905 -0.02775512
v -0.02977849 -0.01746249 0.00776747
v -0.03000777 -0.01713573 0.00711377
v -0.03071135 -0.01608594 -0.00370018
v -0.03070983 -0.01608429 -0.00426348
v -0.03139058 -0.01501134 -0.02163533
v -0.02963239 -0.01745422 -0.02079038
v -0.02993523 -0.01702818 -0.02163533
v -0.02993270 -0.01702487 -0.02248028
v -0.03138043 -0.01499893 -0.02332870
v -0.03095839 -0.01557966 -0.02332870
v -0.02961261 -0.01743023 -0.02332870
v -0.02918955 -0.01801096 -0.02332870
v -0.02840430 -0.01909384 -0.02317918
v -0.03354595 -0.01100660 0.00776747
v -0.03358501 -0.01089905 0.00711377
v -0.02893642 -0.01740789 -0.02775512
v -0.02840430 -0.01800683 -0.02759169
v -0.03172487 -0.01163283 -0.02775512
v -0.03206067 -0.01089905 -0.02764385
v -0.03000777 -0.01713738 0.00776747
v -0.03071185 -0.01608677 -0.00303256
v -0.03169139 -0.01459026 -0.02079038
v -0.03169037 -0.01458778 -0.02163533
v -0.03168834 -0.01458530 -0.02248028
v -0.03138804 -0.01500803 -0.02248028
v -0.03168327 -0.01457620 -0.02332870
v -0.03092085 -0.01552589 -0.02417365
v -0.02989414 -0.01697027 -0.02395459
v -0.02845452 -0.01901525 -0.02332870
v -0.02840430 -0.01908143 -0.02332870
v -0.03340950 -0.01136811 0.00776747
v -0.03358196 -0.01089905 0.00626882
v -0.02841293 -0.01801593 -0.02755692
v -0.02883548 -0.01759816 -0.02755692
v -0.02920680 -0.01717544 -0.02755692
v -0.02917687 -0.01713407 -0.02775512
v -0.02840430 -0.01802420 -0.02755692
v -0.03159703 -0.01195297 -0.02775512
v -0.03209060 -0.01089905 -0.02756735
v -0.03096904 -0.01564584 0.00776747
v -0.03071033 -0.01608511 -0.00164866
v -0.03071084 -0.01608594 -0.00218762
v -0.03168428 -0.01459605 -0.01402384
v -0.03168530 -0.01459605 -0.01486879
v -0.03168986 -0.01459192 -0.01910048
v -0.03260142 -0.01304661 0.00776747
v -0.03259280 -0.01304909 0.00457892
v -0.03256743 -0.01305571 -0.00472594
v -0.03256287 -0.01305571 -0.00641583
v -0.03251924 -0.01296140 -0.02248028
v -0.03256033 -0.01305240 -0.00726078
v -0.03255830 -0.01304743 -0.00810921
v -0.03250149 -0.01292996 -0.02332870
v -0.03162240 -0.01449099 -0.02417365
v -0.03134340 -0.01491372 -0.02417365
v -0.02841242 -0.01894824 -0.02417365
v -0.03085440 -0.01544151 -0.02501860
v -0.03054851 -0.01586506 -0.02501860
v -0.03006458 -0.01635728 -0.02586355
v -0.02926970 -0.01727305 -0.02671197
v -0.02877359 -0.01828727 -0.02501860
v -0.02840430 -0.01895817 -0.02417365
v -0.03340797 -0.01136397 0.00711377
v -0.03357841 -0.01089905 0.00542387
v -0.03357689 -0.01089905 0.00507616
v -0.03345210 -0.01089905 -0.02248028
v -0.02840430 -0.01803164 -0.02753953
v -0.02840430 -0.01838902 -0.02664243
v -0.02991545 -0.01616701 -0.02728918
v -0.02840430 -0.01850649 -0.02625994
v -0.02840430 -0.01861569 -0.02586702
v -0.02998697 -0.01626132 -0.02671197
v -0.02946703 -0.01667164 -0.02775512
v -0.02989313 -0.01588492 -0.02775512
v -0.03004683 -0.01568886 -0.02756387
v -0.03082345 -0.01394500 -0.02749433
v -0.03162950 -0.01202908 -0.02755692
v -0.03242895 -0.01107526 -0.02637121
v -0.03246902 -0.01089905 -0.02647900
v -0.03166044 -0.01455883 0.00776747
v -0.03097259 -0.01565163 0.00457892
v -0.03168327 -0.01459523 -0.01317889
v -0.03166754 -0.01457041 0.00119565
v -0.03166298 -0.01456296 0.00542387
v -0.03333442 -0.01120266 -0.01994543
v -0.03332732 -0.01118776 -0.02248028
v -0.03336891 -0.01127876 -0.00726078
v -0.03339884 -0.01134412 0.00373050
v -0.03329536 -0.01111910 -0.02332870
v -0.03245685 -0.01283483 -0.02393025
v -0.03156254 -0.01440661 -0.02461872
v -0.03078287 -0.01534637 -0.02566883
v -0.02840430 -0.01879024 -0.02501860
v -0.02840430 -0.01893749 -0.02427797
v -0.02840430 -0.01865953 -0.02566187
v -0.03341609 -0.01089905 -0.02297751
v -0.02975464 -0.01615626 -0.02775512
v -0.03079809 -0.01459688 -0.02671197
v -0.03159196 -0.01363313 -0.02555408
v -0.03165892 -0.01393756 -0.02494558
v -0.03251113 -0.01126718 -0.02586355
v -0.03328877 -0.01089905 -0.02388505
v -0.03339022 -0.01089905 -0.02332870
v -0.03325884 -0.01103969 -0.02379116
v -0.03259229 -0.01231945 -0.02419799
v -0.03248881 -0.01206383 -0.02487256
v -0.03334101 -0.01089905 -0.02364512
f 1 2 8
f 1 8 21
f 1 21 38
f 1 38 55
f 1 55 87
f 1 87 119
f 1 119 118
f 1 118 120
f 1 120 96
f 1 96 95
f 1 95 93
f 1 93 92
f 1 92 62
f 1 62 42
f 1 42 24
f 1 24 10
f 1 10 3
f 1 3 9
f 1 9 23
f 1 23 39
f 1 39 56
f 1 56 71
f 1 71 105
f 1 105 65
f 1 65 45
f 1 45 26
f 1 26 14
f 1 14 4
f 1 4 2
f 2 4 5
f 2 5 6
f 2 6 7
f 2 7 8
f 3 10 11
f 3 11 12
f 3 12 13
f 3 13 9
f 4 14 15
f 4 15 5
f 5 15 6
f 6 15 16
f 6 16 7
f 7 16 17
f 7 17 18
f 7 18 8
f 8 19 20
f 8 20 21
f 8 18 22
f 8 22 19
f 9 13 25
f 9 25 44
f 9 44 64
f 9 64 104
f 9 104 127
f 9 127 132
f 9 132 128
f 9 128 121
f 9 121 91
f 9 91 90
f 9 90 89
f 9 89 57
f 9 57 40
f 9 40 23
f 10 24 41
f 10 41 61
f 10 61 98
f 10 98 122
f 10 122 99
f 10 99 63
f 10 63 43
f 10 43 25
f 10 25 13
f 10 13 12
f 10 12 11
f 14 26 27
f 14 27 28
f 14 28 29
f 14 29 15
f 15 29 16
f 16 29 30
f 16 30 17
f 17 30 31
f 17 31 22
f 17 22 18
f 19 31 20
f 19 22 31
f 20 31 32
f 20 32 33
f 20 33 34
f 20 34 35
f 20 35 36
f 20 36 37
f 20 37 21
f 21 37 38
f 23 40 39
f 24 42 41
f 25 43 44
f 26 45 27
f 27 45 28
f 28 45 46
f 28 46 47
f 28 47 48
f 28 48 49
f 28 49 30
f 28 30 29
f 30 49 50
f 30 50 33
f 30 33 32
f 30 32 31
f 33 50 34
f 34 51 52
f 34 52 53
f 34 53 35
f 34 50 51
f 35 53 36
f 36 53 37
f 37 53 54
f 37 54 38
f 38 54 55
f 39 40 56
f 40 57 56
f 41 42 58
f 41 58 59
f 41 59 60
f 41 60 61
f 42 62 58
f 43 63 64
f 43 64 44
f 45 65 66
f 45 66 67
f 45 67 46
f 46 67 107
f 46 107 68
f 46 68 69
f 46 69 70
f 46 70 47
f 47 70 71
f 47 71 72
f 47 72 73
f 47 73 74
f 47 74 48
f 48 74 49
f 49 75 51
f 49 51 50
f 49 74 76
f 49 76 77
f 49 77 75
f 51 78 79
f 51 79 80
f 51 80 52
f 51 75 78
f 52 81 53
f 52 80 82
f 52 82 83
f 52 83 84
f 52 84 85
f 52 85 86
f 52 86 81
f 53 81 54
f 54 81 55
f 55 81 87
f 56 88 77
f 56 77 76
f 56 76 74
f 56 74 73
f 56 73 72
f 56 72 71
f 56 57 89
f 56 89 90
f 56 90 91
f 56 91 88
f 58 62 92
f 58 92 59
f 59 92 93
f 59 93 60
f 60 94 61
f 60 93 95
f 60 95 96
f 60 96 85
f 60 85 84
f 60 84 82
f 60 82 97
f 60 97 94
f 61 94 98
f 63 99 100
f 63 100 101
f 63 101 102
f 63 102 103
f 63 103 104
f 63 104 64
f 65 105 106
f 65 106 66
f 66 106 107
f 66 107 67
f 68 107 71
f 68 71 69
f 69 71 70
f 71 108 109
f 71 109 105
f 71 107 108
f 75 110 111
f 75 111 78
f 75 77 112
f 75 112 110
f 77 88 113
f 77 113 112
f 78 114 115
f 78 115 79
f 78 111 114
f 79 115 116
f 79 116 117
f 79 117 82
f 79 82 80
f 81 86 85
f 81 85 118
f 81 118 119
f 81 119 87
f 82 117 97
f 82 84 83
f 85 96 120
f 85 120 118
f 88 91 113
f 91 121 111
f 91 111 110
f 91 110 112
f 91 112 113
f 94 100 99
f 94 99 122
f 94 122 98
f 94 97 117
f 94 117 116
f 94 116 100
f 100 123 101
f 100 116 123
f 101 123 103
f 101 103 102
f 103 123 124
f 103 124 125
f 103 125 126
f 103 126 104
f 104 126 127
f 105 109 106
f 106 109 108
f 106 108 107
f 111 121 114
f 114 128 129
f 114 129 115
f 114 121 128
f 115 129 130
f 115 130 131
f 115 131 116
f 116 131 125
f 116 125 123
f 123 125 124
f 125 131 126
f 126 131 127
f 127 131 130
f 127 130 129
f 127 129 132
f 128 132 129

