# https://github.com/mikedh/trimesh
v -0.01444177 -0.03479090 0.04432925
v -0.01500228 -0.03452736 0.04432925
v -0.01444177 -0.03575416 0.04432925
v -0.01444177 -0.03523805 -0.01994265
v -0.01596326 -0.03452690 -0.02775350
v -0.02157264 -0.03180152 -0.02775350
v -0.01684884 -0.03370568 0.04432925
v -0.01484579 -0.03562262 0.04432925
v -0.01444177 -0.03582633 0.04347549
v -0.01444177 -0.03524444 -0.02078935
v -0.01444177 -0.03525403 -0.02163606
v -0.01563890 -0.03469818 -0.02775350
v -0.02157264 -0.03299088 -0.02775350
v -0.02170850 -0.03175357 -0.01118632
v -0.02122054 -0.03185907 0.04432220
v -0.02098296 -0.03194494 0.04432220
v -0.02098438 -0.03194448 0.04432925
v -0.02072191 -0.03306807 0.04432925
v -0.01490198 -0.03566373 0.04347549
v -0.01444177 -0.03596883 0.04094244
v -0.01444177 -0.03526454 -0.02247571
v -0.01554003 -0.03475070 -0.02775350
v -0.02148799 -0.03305573 -0.02775350
v -0.02157264 -0.03299088 -0.02738659
v -0.02170850 -0.03287213 -0.01118632
v -0.02170850 -0.03177092 0.00711660
v -0.02122054 -0.03185907 0.04432925
v -0.02122054 -0.03281366 0.04432925
v -0.02072191 -0.03306852 0.04432220
v -0.01444177 -0.03605653 0.03926314
v -0.01444177 -0.03601359 0.04009573
v -0.01444177 -0.03527641 -0.02332241
v -0.01444177 -0.03535726 -0.02755593
v -0.01444177 -0.03536137 -0.02773939
v -0.01444177 -0.03536182 -0.02775350
v -0.01444177 -0.03529149 -0.02416912
v -0.01444177 -0.03532346 -0.02586253
v -0.02098367 -0.03331745 -0.02775350
v -0.02148799 -0.03305573 -0.02755593
v -0.02170850 -0.03287213 -0.01098170
v -0.02170850 -0.03283193 0.00711660
v -0.02082149 -0.03311100 0.04178209
v -0.02122054 -0.03291186 0.04094244
v -0.02084710 -0.03312516 0.04094244
v -0.01444177 -0.03614924 0.03670892
v -0.01444177 -0.03612001 0.03755562
v -0.01444177 -0.03608941 0.03839527
v -0.01444177 -0.03641872 -0.02775350
v -0.02021048 -0.03368604 -0.02586253
v -0.02021190 -0.03368604 -0.02501582
v -0.01980077 -0.03388746 -0.01656289
v -0.02098367 -0.03331745 -0.02755593
v -0.02098367 -0.03331653 -0.02586253
v -0.02098367 -0.03331516 -0.02501582
v -0.02148443 -0.03305163 -0.02501582
v -0.02170850 -0.03284244 0.00518330
v -0.02170850 -0.03286208 -0.00333314
v -0.02170850 -0.03286619 -0.00588030
v -0.02170850 -0.03286847 -0.00758077
v -0.02170850 -0.03283833 0.00616406
v -0.02122054 -0.03293516 0.03910086
v -0.02122054 -0.03292785 0.03995462
v -0.02122054 -0.03291460 0.04082954
v -0.02086275 -0.03313932 0.04009573
v -0.01444177 -0.03631230 0.03078904
v -0.01444177 -0.03617345 0.03586221
v -0.01444177 -0.03631870 0.02994234
v -0.01585372 -0.03570757 0.02824893
v -0.01804739 -0.03470092 0.00627696
v -0.01979863 -0.03388700 -0.01571619
v -0.02098367 -0.03330877 -0.02247571
v -0.02148159 -0.03304888 -0.02332241
v -0.02144816 -0.03302239 -0.00725620
v -0.02143820 -0.03301646 -0.00386938
v -0.02140832 -0.03300093 0.00543025
v -0.02170850 -0.03284152 0.00543025
v -0.02147234 -0.03304021 -0.01824924
v -0.02145811 -0.03302879 -0.01118632
v -0.02087769 -0.03316124 0.03755562
v -0.02087555 -0.03315850 0.03839527
v -0.02087057 -0.03315165 0.03924903
v -0.01582811 -0.03570666 0.02909563
v -0.01921038 -0.03401672 0.03417586
v -0.01754592 -0.03487128 0.02994234
v -0.01754947 -0.03487722 0.02909563
v -0.01755303 -0.03487905 0.02824893
v -0.01758077 -0.03489366 0.01980306
v -0.01804455 -0.03470001 0.00712366
v -0.01979294 -0.03388472 -0.01402278
v -0.02098367 -0.03330649 -0.02163606
v -0.02098367 -0.03330101 -0.01994265
v -0.02098367 -0.03329004 -0.01656289
v -0.01977943 -0.03387833 -0.00978926
v -0.02096304 -0.03320418 0.01218977
v -0.02088693 -0.03316581 0.03501551
v -0.01921394 -0.03402037 0.03332916
v -0.01978227 -0.03387970 -0.01063596
f 1 2 7
f 1 7 17
f 1 17 27
f 1 27 28
f 1 28 18
f 1 18 8
f 1 8 3
f 1 3 9
f 1 9 20
f 1 20 31
f 1 31 30
f 1 30 47
f 1 47 46
f 1 46 45
f 1 45 66
f 1 66 65
f 1 65 67
f 1 67 48
f 1 48 35
f 1 35 34
f 1 34 33
f 1 33 37
f 1 37 36
f 1 36 32
f 1 32 21
f 1 21 11
f 1 11 10
f 1 10 4
f 1 4 5
f 1 5 6
f 1 6 2
f 2 6 7
f 3 8 9
f 4 10 5
f 5 10 11
f 5 11 12
f 5 12 22
f 5 22 35
f 5 35 48
f 5 48 38
f 5 38 23
f 5 23 13
f 5 13 6
f 6 13 25
f 6 25 14
f 6 14 15
f 6 15 16
f 6 16 7
f 7 16 17
f 8 18 19
f 8 19 9
f 9 19 20
f 11 21 12
f 12 21 22
f 13 23 39
f 13 39 24
f 13 24 40
f 13 40 25
f 14 26 27
f 14 27 15
f 14 25 40
f 14 40 59
f 14 59 58
f 14 58 57
f 14 57 56
f 14 56 76
f 14 76 60
f 14 60 41
f 14 41 26
f 15 27 16
f 16 27 17
f 18 28 29
f 18 29 19
f 19 29 30
f 19 30 31
f 19 31 20
f 21 32 22
f 22 33 34
f 22 34 35
f 22 32 36
f 22 36 37
f 22 37 33
f 23 38 52
f 23 52 39
f 24 39 40
f 26 41 28
f 26 28 27
f 28 42 29
f 28 41 43
f 28 43 44
f 28 44 42
f 29 42 45
f 29 45 46
f 29 46 47
f 29 47 30
f 38 48 49
f 38 49 50
f 38 50 51
f 38 51 52
f 39 52 53
f 39 53 54
f 39 54 55
f 39 55 56
f 39 56 57
f 39 57 58
f 39 58 59
f 39 59 40
f 41 60 61
f 41 61 62
f 41 62 63
f 41 63 43
f 42 44 45
f 43 63 64
f 43 64 44
f 44 64 65
f 44 65 66
f 44 66 45
f 48 51 50
f 48 50 49
f 48 67 68
f 48 68 69
f 48 69 51
f 51 70 54
f 51 54 53
f 51 53 52
f 51 69 70
f 54 71 72
f 54 72 55
f 54 70 71
f 55 72 56
f 56 73 74
f 56 74 75
f 56 75 76
f 56 72 77
f 56 77 78
f 56 78 73
f 60 76 79
f 60 79 80
f 60 80 61
f 61 80 62
f 62 80 81
f 62 81 63
f 63 81 64
f 64 81 82
f 64 82 65
f 65 82 68
f 65 68 67
f 68 82 81
f 68 81 83
f 68 83 84
f 68 84 85
f 68 85 86
f 68 86 87
f 68 87 69
f 69 87 88
f 69 88 70
f 70 89 90
f 70 90 71
f 70 88 89
f 71 90 78
f 71 78 77
f 71 77 72
f 73 78 90
f 73 90 91
f 73 91 92
f 73 92 74
f 74 92 75
f 75 93 94
f 75 94 95
f 75 95 79
f 75 79 76
f 75 92 93
f 79 95 96
f 79 96 80
f 80 96 83
f 80 83 81
f 83 96 85
f 83 85 84
f 85 96 86
f 86 96 87
f 87 93 97
f 87 97 88
f 87 96 93
f 88 97 89
f 89 97 90
f 90 97 91
f 91 97 92
f 92 97 93
f 93 96 94
f 94 96 95

