# https://github.com/mikedh/trimesh
v -0.00495568 -0.06959040 -0.01249910
v -0.00495568 -0.06955333 -0.01259083
v -0.00129999 -0.06881566 -0.01249910
v -0.00495568 -0.06853783 -0.01249910
v -0.00495568 -0.06904975 -0.01333792
v -0.00129999 -0.06869695 -0.01264621
v -0.00129999 -0.06784681 -0.01249910
v -0.00466046 -0.06839954 -0.01249910
v -0.00495568 -0.06620610 -0.01455114
v -0.00495568 -0.06890396 -0.01350779
v -0.00495568 -0.06843620 -0.01400518
v -0.00129999 -0.06559505 -0.01560503
v -0.00129999 -0.06776558 -0.01257486
v -0.00145064 -0.06783473 -0.01249910
v -0.00370789 -0.06814463 -0.01249910
v -0.00466547 -0.06616486 -0.01451173
v -0.00495568 -0.06554173 -0.01514400
v -0.00495568 -0.06585913 -0.01596991
v -0.00129999 -0.06533555 -0.01582416
v -0.00129999 -0.06547217 -0.01571748
v -0.00129999 -0.06773976 -0.01259898
v -0.00152578 -0.06782931 -0.01249910
v -0.00129999 -0.06722743 -0.01307836
v -0.00152578 -0.06560796 -0.01457968
v -0.00278180 -0.06790512 -0.01249910
v -0.00495568 -0.06548675 -0.01519462
v -0.00495568 -0.06533555 -0.01596991
v -0.00313284 -0.06533555 -0.01596991
v -0.00129999 -0.06533555 -0.01486677
v -0.00205753 -0.06781765 -0.01249910
v -0.00129999 -0.06626358 -0.01398242
v -0.00151362 -0.06533555 -0.01483959
v -0.00215379 -0.06626524 -0.01398242
v -0.00215379 -0.06781682 -0.01249910
v -0.00278180 -0.06759397 -0.01278822
v -0.00482865 -0.06533555 -0.01530911
v -0.00495568 -0.06544343 -0.01523505
v -0.00495568 -0.06533555 -0.01534037
v -0.00129999 -0.06562129 -0.01459327
v -0.00212409 -0.06533555 -0.01487322
v -0.00278180 -0.06726408 -0.01310214
v -0.00466547 -0.06533555 -0.01527582
v -0.00226258 -0.06533555 -0.01489497
v -0.00278180 -0.06695002 -0.01340689
f 1 2 3
f 1 3 7
f 1 7 14
f 1 14 22
f 1 22 30
f 1 30 34
f 1 34 25
f 1 25 15
f 1 15 8
f 1 8 4
f 1 4 9
f 1 9 17
f 1 17 26
f 1 26 37
f 1 37 38
f 1 38 27
f 1 27 18
f 1 18 11
f 1 11 10
f 1 10 5
f 1 5 2
f 2 5 3
f 3 5 6
f 3 6 12
f 3 12 20
f 3 20 19
f 3 19 29
f 3 29 39
f 3 39 31
f 3 31 23
f 3 23 21
f 3 21 13
f 3 13 7
f 4 8 9
f 5 10 6
f 6 10 11
f 6 11 12
f 7 13 14
f 8 15 16
f 8 16 17
f 8 17 9
f 11 18 19
f 11 19 20
f 11 20 12
f 13 21 14
f 14 21 23
f 14 23 24
f 14 24 22
f 15 25 16
f 16 25 17
f 17 25 26
f 18 27 28
f 18 28 19
f 19 28 27
f 19 27 38
f 19 38 36
f 19 36 42
f 19 42 43
f 19 43 40
f 19 40 32
f 19 32 29
f 22 24 30
f 23 31 24
f 24 31 32
f 24 32 33
f 24 33 34
f 24 34 30
f 25 34 35
f 25 35 26
f 26 36 37
f 26 35 36
f 29 32 39
f 31 39 32
f 32 40 33
f 33 40 41
f 33 41 34
f 34 41 35
f 35 41 42
f 35 42 36
f 36 38 37
f 40 43 44
f 40 44 41
f 41 44 42
f 42 44 43

