# https://github.com/mikedh/trimesh
v -0.00642867 -0.07117256 0.02633073
v -0.00640988 -0.07155989 0.02633073
v -0.00643730 -0.07093190 0.02719947
v -0.00645405 -0.07048289 0.02764844
v -0.00643679 -0.07093190 0.02657147
v -0.00636470 -0.07048289 0.02655498
v -0.00632866 -0.07048289 0.02638067
v -0.00632714 -0.07054034 0.02633073
v -0.00637892 -0.07183920 0.02633073
v -0.00640582 -0.07155989 0.02657147
v -0.00637689 -0.07048289 0.02830470
v -0.00644542 -0.07048289 0.02702044
v -0.00631495 -0.07048474 0.02633073
v -0.00592507 -0.07048289 0.02633073
v -0.00631140 -0.07213254 0.02633073
v -0.00630987 -0.07157233 0.02718863
v -0.00633475 -0.07098697 0.02788023
v -0.00628449 -0.07048289 0.02882434
v -0.00553366 -0.07048289 0.02633073
v -0.00629058 -0.07205815 0.02657147
v -0.00600172 -0.07305625 0.02633073
v -0.00627028 -0.07137139 0.02770592
v -0.00627738 -0.07079318 0.02845546
v -0.00626571 -0.07048289 0.02892893
v -0.00503311 -0.07318756 0.02633073
v -0.00126778 -0.07048289 0.03017926
v -0.00126778 -0.07318756 0.02712173
v -0.00625200 -0.07192921 0.02697192
v -0.00595197 -0.07318756 0.02633073
v -0.00589105 -0.07318756 0.02657100
v -0.00603117 -0.07281586 0.02657147
v -0.00622306 -0.07123292 0.02812474
v -0.00624439 -0.07065524 0.02881869
v -0.00619971 -0.07049639 0.02923704
v -0.00620530 -0.07048289 0.02922479
v -0.00126778 -0.07048289 0.03106920
v -0.00126778 -0.07318756 0.02821707
v -0.00618956 -0.07110717 0.02845546
v -0.00580678 -0.07318756 0.02686121
v -0.00610884 -0.07089140 0.02905000
v -0.00611189 -0.07048289 0.02949426
v -0.00619362 -0.07048289 0.02926766
v -0.00126778 -0.07068542 0.03090384
v -0.00152567 -0.07048289 0.03110359
v -0.00126778 -0.07293049 0.02852848
v -0.00152567 -0.07235996 0.02922479
v -0.00152567 -0.07261835 0.02891102
v -0.00151805 -0.07318756 0.02821943
v -0.00600426 -0.07155989 0.02845546
v -0.00572556 -0.07318756 0.02706850
v -0.00577785 -0.07153871 0.02904388
v -0.00580932 -0.07091311 0.02969402
v -0.00602051 -0.07048289 0.02969826
v -0.00126778 -0.07080456 0.03080584
v -0.00152567 -0.07082600 0.03082328
v -0.00215365 -0.07048289 0.03114316
v -0.00126778 -0.07261650 0.02890631
v -0.00152567 -0.07204597 0.02960026
v -0.00215365 -0.07262047 0.02891197
v -0.00215365 -0.07293446 0.02853225
v -0.00214096 -0.07318756 0.02822461
v -0.00561895 -0.07318756 0.02719758
v -0.00558798 -0.07249154 0.02813227
v -0.00564788 -0.07190565 0.02880832
v -0.00569053 -0.07131500 0.02947259
v -0.00568697 -0.07069098 0.03009446
v -0.00574129 -0.07048289 0.03020612
v -0.00579967 -0.07048289 0.03011378
v -0.00126778 -0.07111855 0.03054296
v -0.00152567 -0.07114000 0.03056087
v -0.00278162 -0.07048289 0.03110123
v -0.00215365 -0.07083289 0.03084259
v -0.00126778 -0.07235202 0.02922055
v -0.00152567 -0.07177486 0.02991450
v -0.00215365 -0.07235334 0.02922573
v -0.00126778 -0.07203802 0.02958660
v -0.00278162 -0.07318756 0.02820153
v -0.00215365 -0.07318756 0.02822461
v -0.00539507 -0.07318756 0.02736106
v -0.00547832 -0.07308140 0.02745622
v -0.00532349 -0.07282539 0.02784065
v -0.00516916 -0.07256938 0.02822461
v -0.00534430 -0.07232607 0.02844274
v -0.00529354 -0.07197607 0.02888370
v -0.00529354 -0.07170126 0.02919793
v -0.00529354 -0.07138727 0.02954891
v -0.00529354 -0.07108572 0.02986315
v -0.00529354 -0.07077173 0.03018256
v -0.00529354 -0.07048289 0.03046664
v -0.00534379 -0.07048289 0.03044497
v -0.00126778 -0.07144658 0.03022920
v -0.00215365 -0.07114688 0.03055427
v -0.00152567 -0.07146087 0.03024663
v -0.00340960 -0.07048289 0.03097874
v -0.00278162 -0.07077729 0.03081291
v -0.00215365 -0.07144763 0.03024051
v -0.00215365 -0.07176163 0.02990084
v -0.00215365 -0.07203935 0.02958707
v -0.00126778 -0.07176057 0.02990084
v -0.00278162 -0.07290799 0.02851906
v -0.00278873 -0.07318756 0.02820058
v -0.00509555 -0.07318756 0.02749580
v -0.00505950 -0.07315844 0.02754856
v -0.00489604 -0.07318756 0.02758437
v -0.00466556 -0.07318756 0.02768519
v -0.00466556 -0.07297179 0.02794901
v -0.00466556 -0.07265754 0.02831742
v -0.00466556 -0.07238220 0.02863166
v -0.00450412 -0.07048289 0.03069796
v -0.00466556 -0.07206821 0.02897792
v -0.00322481 -0.07316003 0.02817373
v -0.00278162 -0.07199461 0.02952630
v -0.00278162 -0.07170021 0.02984006
v -0.00278162 -0.07109128 0.03048879
v -0.00354972 -0.07048289 0.03094341
v -0.00397971 -0.07048289 0.03083364
v -0.00466556 -0.07055014 0.03058536
v -0.00466556 -0.07048289 0.03065509
v -0.00278162 -0.07230860 0.02918851
v -0.00278162 -0.07259400 0.02887475
v -0.00324106 -0.07318756 0.02813934
v -0.00403758 -0.07318756 0.02791556
v -0.00403758 -0.07305810 0.02806208
f 1 2 3
f 1 3 4
f 1 4 5
f 1 5 6
f 1 6 7
f 1 7 8
f 1 8 13
f 1 13 14
f 1 14 19
f 1 19 25
f 1 25 29
f 1 29 21
f 1 21 15
f 1 15 9
f 1 9 2
f 2 9 10
f 2 10 3
f 3 10 11
f 3 11 4
f 4 12 5
f 4 11 18
f 4 18 24
f 4 24 35
f 4 35 42
f 4 42 41
f 4 41 53
f 4 53 68
f 4 68 67
f 4 67 90
f 4 90 89
f 4 89 118
f 4 118 109
f 4 109 116
f 4 116 115
f 4 115 94
f 4 94 71
f 4 71 56
f 4 56 44
f 4 44 36
f 4 36 26
f 4 26 19
f 4 19 14
f 4 14 7
f 4 7 6
f 4 6 12
f 5 12 6
f 7 13 8
f 7 14 13
f 9 15 16
f 9 16 10
f 10 16 17
f 10 17 11
f 11 17 18
f 15 20 16
f 15 21 20
f 16 20 22
f 16 22 17
f 17 22 23
f 17 23 18
f 18 23 24
f 19 26 27
f 19 27 25
f 20 28 22
f 20 21 28
f 21 29 30
f 21 30 31
f 21 31 28
f 22 28 32
f 22 32 33
f 22 33 23
f 23 33 24
f 24 33 34
f 24 34 35
f 25 27 37
f 25 37 48
f 25 48 61
f 25 61 78
f 25 78 77
f 25 77 101
f 25 101 121
f 25 121 122
f 25 122 105
f 25 105 104
f 25 104 102
f 25 102 79
f 25 79 62
f 25 62 50
f 25 50 39
f 25 39 30
f 25 30 29
f 26 36 43
f 26 43 54
f 26 54 69
f 26 69 91
f 26 91 99
f 26 99 76
f 26 76 73
f 26 73 57
f 26 57 45
f 26 45 37
f 26 37 27
f 28 31 38
f 28 38 32
f 30 39 40
f 30 40 38
f 30 38 31
f 32 38 33
f 33 38 34
f 34 38 40
f 34 40 41
f 34 41 42
f 34 42 35
f 36 44 43
f 37 45 46
f 37 46 47
f 37 47 48
f 39 49 40
f 39 50 49
f 40 49 50
f 40 50 51
f 40 51 52
f 40 52 53
f 40 53 41
f 43 44 55
f 43 55 54
f 44 56 55
f 45 57 46
f 46 58 59
f 46 59 60
f 46 60 47
f 46 57 58
f 47 60 48
f 48 60 61
f 50 62 63
f 50 63 64
f 50 64 51
f 51 64 65
f 51 65 52
f 52 65 66
f 52 66 67
f 52 67 68
f 52 68 53
f 54 55 70
f 54 70 69
f 55 56 70
f 56 71 72
f 56 72 70
f 57 73 58
f 58 74 75
f 58 75 59
f 58 73 76
f 58 76 74
f 59 75 77
f 59 77 60
f 60 78 61
f 60 77 78
f 62 79 80
f 62 80 63
f 63 80 81
f 63 81 82
f 63 82 83
f 63 83 64
f 64 83 84
f 64 84 65
f 65 84 85
f 65 85 86
f 65 86 87
f 65 87 88
f 65 88 66
f 66 88 89
f 66 89 90
f 66 90 67
f 69 70 91
f 70 72 92
f 70 92 93
f 70 93 91
f 71 94 95
f 71 95 92
f 71 92 72
f 74 93 96
f 74 96 97
f 74 97 98
f 74 98 75
f 74 76 99
f 74 99 93
f 75 98 77
f 77 100 101
f 77 98 100
f 79 102 103
f 79 103 80
f 80 103 81
f 81 103 82
f 82 84 83
f 82 103 104
f 82 104 105
f 82 105 106
f 82 106 84
f 84 106 107
f 84 107 85
f 85 107 108
f 85 108 86
f 86 109 87
f 86 108 110
f 86 110 111
f 86 111 112
f 86 112 113
f 86 113 114
f 86 114 94
f 86 94 115
f 86 115 116
f 86 116 109
f 87 109 117
f 87 117 118
f 87 118 88
f 88 118 89
f 91 93 99
f 92 95 114
f 92 114 96
f 92 96 93
f 94 114 95
f 96 114 113
f 96 113 112
f 96 112 119
f 96 119 97
f 97 119 120
f 97 120 98
f 98 120 100
f 100 120 111
f 100 111 101
f 101 111 121
f 102 104 103
f 105 122 106
f 106 122 107
f 107 122 108
f 108 122 123
f 108 123 110
f 109 118 117
f 110 123 121
f 110 121 111
f 111 120 119
f 111 119 112
f 121 123 122

