# https://github.com/mikedh/trimesh
v -0.00623256 -0.06656309 0.02934140
v -0.00627885 -0.06656309 0.02955660
v -0.00625932 -0.06602160 0.02986239
v -0.00622694 -0.06560289 0.03003519
v -0.00616781 -0.06621384 0.02934140
v -0.00549945 -0.06656309 0.02934140
v -0.00629222 -0.06656309 0.02964771
v -0.00624005 -0.06492836 0.03062320
v -0.00608594 -0.06527957 0.02971159
v -0.00605892 -0.06564961 0.02934140
v -0.00364422 -0.06406478 0.02934140
v -0.00557036 -0.06656309 0.03201575
v -0.00629677 -0.06656309 0.02967965
v -0.00636206 -0.06656309 0.03031192
v -0.00636420 -0.06656309 0.03033967
v -0.00632727 -0.06590739 0.03096748
v -0.00627644 -0.06527957 0.03096748
v -0.00624273 -0.06488776 0.03096748
v -0.00606320 -0.06406478 0.03096748
v -0.00606025 -0.06406478 0.03093135
v -0.00597330 -0.06406478 0.03034255
v -0.00613062 -0.06469186 0.03038417
v -0.00595591 -0.06406478 0.03029254
v -0.00584193 -0.06497654 0.02934140
v -0.00549678 -0.06406478 0.03201575
v -0.00520140 -0.06406478 0.02934140
v -0.00630560 -0.06656309 0.03201575
v -0.00637758 -0.06656309 0.03093973
v -0.00637543 -0.06653545 0.03096748
v -0.00624353 -0.06499244 0.03201575
v -0.00624112 -0.06489241 0.03159555
v -0.00612580 -0.06420712 0.03201575
v -0.00609664 -0.06406478 0.03201575
v -0.00586146 -0.06461237 0.02966735
v -0.00574240 -0.06406478 0.02986213
v -0.00575363 -0.06476230 0.02934140
v -0.00521477 -0.06407896 0.02934140
v -0.00523002 -0.06406478 0.02936575
v -0.00630721 -0.06653520 0.03201575
v -0.00635510 -0.06656309 0.03156780
v -0.00637677 -0.06656309 0.03096748
v -0.00635296 -0.06653545 0.03159555
v -0.00631657 -0.06611527 0.03201575
v -0.00630533 -0.06590739 0.03201575
v -0.00628099 -0.06548134 0.03201575
v -0.00623845 -0.06492763 0.03201575
v -0.00571484 -0.06406478 0.02982443
v -0.00557330 -0.06437709 0.02942858
v -0.00551845 -0.06442919 0.02934140
v -0.00539323 -0.06406478 0.02950869
v -0.00630748 -0.06652591 0.03201575
f 1 2 3
f 1 3 4
f 1 4 5
f 1 5 10
f 1 10 24
f 1 24 36
f 1 36 49
f 1 49 37
f 1 37 26
f 1 26 11
f 1 11 6
f 1 6 12
f 1 12 27
f 1 27 40
f 1 40 41
f 1 41 28
f 1 28 15
f 1 15 14
f 1 14 13
f 1 13 7
f 1 7 2
f 2 7 3
f 3 7 8
f 3 8 4
f 4 8 9
f 4 9 5
f 5 9 10
f 6 11 12
f 7 13 8
f 8 13 14
f 8 14 15
f 8 15 16
f 8 16 17
f 8 17 18
f 8 18 19
f 8 19 20
f 8 20 21
f 8 21 22
f 8 22 9
f 9 22 21
f 9 21 10
f 10 21 23
f 10 23 24
f 11 25 12
f 11 26 38
f 11 38 50
f 11 50 47
f 11 47 35
f 11 35 23
f 11 23 21
f 11 21 20
f 11 20 19
f 11 19 33
f 11 33 25
f 12 25 33
f 12 33 32
f 12 32 46
f 12 46 30
f 12 30 45
f 12 45 44
f 12 44 43
f 12 43 51
f 12 51 39
f 12 39 27
f 15 28 16
f 16 28 29
f 16 29 30
f 16 30 31
f 16 31 17
f 17 31 18
f 18 31 32
f 18 32 33
f 18 33 19
f 23 34 24
f 23 35 34
f 24 34 35
f 24 35 36
f 26 37 38
f 27 39 40
f 28 41 29
f 29 41 42
f 29 42 43
f 29 43 44
f 29 44 45
f 29 45 30
f 30 46 31
f 31 46 32
f 35 47 36
f 36 47 48
f 36 48 49
f 37 49 48
f 37 48 50
f 37 50 38
f 39 51 42
f 39 42 40
f 40 42 41
f 42 51 43
f 47 50 48

