# https://github.com/mikedh/trimesh
v 0.00223995 -0.07906981 0.00172586
v -0.00477068 -0.07915221 0.00172586
v 0.00223995 -0.07976338 0.00172586
v 0.00223995 -0.07764357 -0.00583544
v -0.00477068 -0.07990495 0.00172586
v -0.00477068 -0.07790187 -0.00583840
v 0.00138901 -0.08005550 0.00172586
v 0.00223995 -0.07976999 0.00172364
v 0.00223995 -0.07832737 -0.00583840
v 0.00213358 -0.07766073 -0.00583840
v -0.00442138 -0.08006554 0.00172586
v -0.00477068 -0.07988779 0.00144894
v -0.00477068 -0.07864035 -0.00583840
v 0.00035828 -0.08025359 0.00172586
v 0.00137323 -0.08005259 0.00163627
v 0.00223995 -0.07969603 0.00081809
v 0.00223995 -0.07975018 0.00144598
v 0.00223995 -0.07836435 -0.00583840
v -0.00423404 -0.08011255 0.00172586
v -0.00477068 -0.07988303 0.00137712
v -0.00438913 -0.08005312 0.00144894
v -0.00377563 -0.07874124 -0.00583840
v -0.00466500 -0.07885455 -0.00537267
v -0.00477068 -0.07884795 -0.00535268
v 0.00000624 -0.08029902 0.00172586
v 0.00035828 -0.08023272 0.00144894
v 0.00102050 -0.08009961 0.00143561
v 0.00198810 -0.07942716 -0.00213179
v 0.00208074 -0.07945674 -0.00169124
v 0.00223995 -0.07956265 -0.00043768
v 0.00223995 -0.07963661 0.00018946
v 0.00159831 -0.07847316 -0.00583840
v 0.00223995 -0.07883712 -0.00465667
v -0.00403709 -0.08015851 0.00172586
v -0.00435139 -0.08003807 0.00113426
v -0.00477068 -0.07981172 0.00071517
v -0.00364250 -0.07875207 -0.00583840
v -0.00370358 -0.07877690 -0.00576880
v -0.00403709 -0.07905185 -0.00483067
v -0.00466500 -0.07900695 -0.00483067
v -0.00403709 -0.07887938 -0.00542820
v -0.00477068 -0.07896865 -0.00492323
v -0.00026963 -0.08033335 0.00172586
v -0.00026963 -0.08031354 0.00144894
v -0.00026963 -0.08023193 0.00082031
v 0.00035828 -0.08015032 0.00082031
v 0.00079610 -0.08006289 0.00082031
v 0.00163949 -0.07946731 -0.00233171
v 0.00144665 -0.07943535 -0.00282040
v 0.00223995 -0.07911735 -0.00357712
v 0.00223995 -0.07939441 -0.00169124
v 0.00223995 -0.07947840 -0.00110407
v -0.00063128 -0.07876237 -0.00583840
v 0.00157018 -0.07886934 -0.00485511
v 0.00133137 -0.07878667 -0.00515424
v -0.00057570 -0.07878350 -0.00577473
v 0.00223995 -0.07899189 -0.00420501
v -0.00340918 -0.08023827 0.00172586
v -0.00403709 -0.08013500 0.00144894
v -0.00340918 -0.08021503 0.00144894
v -0.00477068 -0.07959514 -0.00106335
v -0.00477068 -0.07950957 -0.00170753
v -0.00458746 -0.07949187 -0.00231838
v -0.00445981 -0.07944670 -0.00294553
v -0.00437747 -0.07941818 -0.00329131
v -0.00403709 -0.07962921 -0.00231838
v -0.00401788 -0.08007214 0.00088325
v -0.00331311 -0.07877479 -0.00583840
v -0.00328497 -0.07879301 -0.00579916
v -0.00345996 -0.07888545 -0.00551854
v -0.00278127 -0.07894911 -0.00545782
v -0.00248962 -0.07941131 -0.00389329
v -0.00340918 -0.07945727 -0.00345051
v -0.00403709 -0.07943482 -0.00335573
v -0.00477068 -0.07898714 -0.00483660
v -0.00089754 -0.08034180 0.00172586
v -0.00089754 -0.08031909 0.00144894
v -0.00089754 -0.08023933 0.00082031
v -0.00089754 -0.08014715 0.00019317
v -0.00089754 -0.08006923 -0.00032884
v -0.00026963 -0.08006422 -0.00029700
v 0.00010094 -0.08004916 -0.00019704
v 0.00035828 -0.07968626 -0.00231838
v 0.00103422 -0.07947470 -0.00299588
v 0.00127578 -0.07939309 -0.00323874
v -0.00089754 -0.07879671 -0.00583840
v 0.00161410 -0.07907562 -0.00420205
v 0.00098619 -0.07895095 -0.00483067
v 0.00098619 -0.07880807 -0.00521126
v 0.00035828 -0.07884557 -0.00531344
v -0.00089754 -0.07880226 -0.00582582
v 0.00085717 -0.07943112 -0.00333500
v -0.00313331 -0.08025148 0.00172586
v -0.00379553 -0.08005207 0.00040493
v -0.00152545 -0.08029347 0.00144894
v -0.00340918 -0.08013685 0.00082031
v -0.00477068 -0.07944301 -0.00215179
v -0.00477068 -0.07920345 -0.00368078
v -0.00403709 -0.07952172 -0.00294553
v -0.00340918 -0.07969419 -0.00231838
v -0.00278813 -0.07880542 -0.00583840
v -0.00215336 -0.07898503 -0.00545782
v -0.00215336 -0.07941686 -0.00391994
v -0.00278127 -0.07959884 -0.00294553
v -0.00340918 -0.07957480 -0.00294553
v -0.00152545 -0.08031803 0.00172586
v -0.00139095 -0.08023748 0.00095507
v -0.00139095 -0.08022031 0.00082031
v -0.00215336 -0.08004863 -0.00019260
v -0.00152545 -0.08012681 0.00019317
v -0.00152545 -0.08005999 -0.00026664
v -0.00139095 -0.08007874 -0.00016891
v -0.00278127 -0.07971030 -0.00231838
v -0.00089754 -0.07965219 -0.00294553
v -0.00026963 -0.07974252 -0.00231838
v -0.00026963 -0.07963846 -0.00294553
v 0.00035828 -0.07957560 -0.00294553
v -0.00101969 -0.07880701 -0.00583840
v 0.00035828 -0.07901989 -0.00483067
v -0.00089754 -0.07893880 -0.00545782
v -0.00152545 -0.07898899 -0.00545782
v 0.00035828 -0.07945648 -0.00342533
v -0.00056266 -0.07941184 -0.00389551
v -0.00340918 -0.08006554 0.00030645
v -0.00252942 -0.08004071 -0.00013929
v -0.00152545 -0.08021503 0.00082031
v -0.00152545 -0.07963581 -0.00294553
v -0.00215336 -0.07884029 -0.00583840
v -0.00152545 -0.07884610 -0.00583840
v -0.00152545 -0.07942610 -0.00395918
v -0.00152545 -0.07950666 -0.00357342
v -0.00215336 -0.07948817 -0.00357342
v -0.00089754 -0.07950957 -0.00357342
v -0.00089754 -0.07942161 -0.00393623
v -0.00032041 -0.07947180 -0.00359785
f 1 2 5
f 1 5 11
f 1 11 19
f 1 19 34
f 1 34 58
f 1 58 93
f 1 93 106
f 1 106 76
f 1 76 43
f 1 43 25
f 1 25 14
f 1 14 7
f 1 7 3
f 1 3 8
f 1 8 17
f 1 17 16
f 1 16 31
f 1 31 30
f 1 30 52
f 1 52 51
f 1 51 50
f 1 50 57
f 1 57 33
f 1 33 18
f 1 18 9
f 1 9 4
f 1 4 2
f 2 4 6
f 2 6 13
f 2 13 24
f 2 24 42
f 2 42 75
f 2 75 98
f 2 98 97
f 2 97 62
f 2 62 61
f 2 61 36
f 2 36 20
f 2 20 12
f 2 12 5
f 3 7 8
f 4 9 10
f 4 10 6
f 5 12 11
f 6 10 9
f 6 9 18
f 6 18 32
f 6 32 53
f 6 53 86
f 6 86 118
f 6 118 129
f 6 129 128
f 6 128 101
f 6 101 68
f 6 68 37
f 6 37 22
f 6 22 13
f 7 14 15
f 7 15 16
f 7 16 17
f 7 17 8
f 11 12 20
f 11 20 21
f 11 21 19
f 13 22 23
f 13 23 24
f 14 25 26
f 14 26 15
f 15 26 27
f 15 27 28
f 15 28 29
f 15 29 30
f 15 30 31
f 15 31 16
f 18 33 32
f 19 21 35
f 19 35 34
f 20 35 21
f 20 36 35
f 22 37 38
f 22 38 23
f 23 39 40
f 23 40 24
f 23 38 41
f 23 41 39
f 24 40 42
f 25 43 44
f 25 44 26
f 26 44 45
f 26 45 46
f 26 46 27
f 27 47 28
f 27 46 47
f 28 47 46
f 28 46 48
f 28 48 49
f 28 49 50
f 28 50 29
f 29 50 51
f 29 51 52
f 29 52 30
f 32 33 54
f 32 54 55
f 32 55 56
f 32 56 53
f 33 57 54
f 34 35 59
f 34 59 60
f 34 60 58
f 35 36 61
f 35 61 62
f 35 62 63
f 35 63 64
f 35 64 65
f 35 65 66
f 35 66 67
f 35 67 59
f 37 68 38
f 38 69 70
f 38 70 41
f 38 68 69
f 39 41 71
f 39 71 72
f 39 72 40
f 40 72 73
f 40 73 74
f 40 74 65
f 40 65 42
f 41 70 71
f 42 65 75
f 43 76 44
f 44 76 77
f 44 77 78
f 44 78 45
f 45 78 79
f 45 79 80
f 45 80 81
f 45 81 82
f 45 82 46
f 46 82 49
f 46 49 48
f 49 82 83
f 49 83 84
f 49 84 85
f 49 85 50
f 50 85 57
f 53 56 86
f 54 57 87
f 54 87 88
f 54 88 55
f 55 88 89
f 55 89 56
f 56 89 90
f 56 90 91
f 56 91 86
f 57 85 92
f 57 92 87
f 58 60 93
f 59 67 94
f 59 94 60
f 60 95 93
f 60 94 96
f 60 96 95
f 62 97 63
f 63 97 64
f 64 98 65
f 64 97 98
f 65 74 99
f 65 99 66
f 65 98 75
f 66 100 94
f 66 94 67
f 66 99 100
f 68 101 69
f 69 102 71
f 69 71 70
f 69 101 102
f 71 102 72
f 72 103 104
f 72 104 105
f 72 105 73
f 72 102 103
f 73 105 74
f 74 105 99
f 76 106 77
f 77 95 107
f 77 107 78
f 77 106 95
f 78 107 108
f 78 108 109
f 78 109 110
f 78 110 111
f 78 111 112
f 78 112 79
f 79 112 80
f 80 112 111
f 80 111 100
f 80 100 113
f 80 113 114
f 80 114 115
f 80 115 81
f 81 115 82
f 82 115 83
f 83 115 116
f 83 116 117
f 83 117 84
f 84 117 92
f 84 92 85
f 86 91 118
f 87 92 88
f 88 92 119
f 88 119 120
f 88 120 90
f 88 90 89
f 90 120 91
f 91 120 121
f 91 121 118
f 92 122 123
f 92 123 119
f 92 117 116
f 92 116 122
f 93 95 106
f 94 100 124
f 94 124 96
f 95 96 107
f 96 124 125
f 96 125 126
f 96 126 107
f 99 105 100
f 100 105 104
f 100 104 127
f 100 127 114
f 100 114 113
f 100 111 109
f 100 109 125
f 100 125 124
f 101 128 102
f 102 128 129
f 102 129 121
f 102 121 130
f 102 130 103
f 103 130 131
f 103 131 132
f 103 132 104
f 104 132 131
f 104 131 127
f 107 126 108
f 108 126 109
f 109 111 110
f 109 126 125
f 114 127 131
f 114 131 130
f 114 130 133
f 114 133 116
f 114 116 115
f 116 133 134
f 116 134 123
f 116 123 135
f 116 135 122
f 118 121 129
f 119 123 120
f 120 123 121
f 121 123 134
f 121 134 130
f 122 135 123
f 130 134 133

