# https://github.com/mikedh/trimesh
v -0.00152263 -0.05896970 -0.01921792
v 0.00359958 -0.05896970 -0.02216686
v -0.00152263 -0.05896970 -0.01915056
v -0.00152263 -0.05694182 -0.01961455
v 0.00421492 -0.05896970 -0.02216686
v -0.00152263 -0.05586146 -0.01981448
v -0.00152263 -0.05523406 -0.01992003
v -0.00152263 -0.05460604 -0.01996542
v 0.00329781 -0.05334695 -0.02216686
v -0.00149566 -0.05896970 -0.01852482
v -0.00152263 -0.05896664 -0.01852554
v 0.00421829 -0.05896970 -0.02115962
v 0.00421155 -0.05673554 -0.02216686
v 0.00421548 -0.05711443 -0.02178752
v -0.00152263 -0.05271710 -0.01995498
v 0.00327365 -0.05271894 -0.02216686
v 0.00327702 -0.05289890 -0.02216686
v 0.00035879 -0.05896970 -0.01848663
v -0.00152263 -0.05271894 -0.01935626
v 0.00421380 -0.05837046 -0.02115962
v 0.00417559 -0.05896970 -0.02056090
v 0.00420424 -0.05610752 -0.02216686
v 0.00418963 -0.05648641 -0.02178752
v -0.00152263 -0.05271649 -0.01995065
v 0.00323150 -0.05271649 -0.02206635
v 0.00363442 -0.05271649 -0.02216686
v 0.00098705 -0.05896970 -0.01850537
v 0.00098705 -0.05271649 -0.01943119
v -0.00089718 -0.05271649 -0.01939804
v 0.00418289 -0.05774244 -0.02115962
v 0.00417053 -0.05896970 -0.02053136
v 0.00399351 -0.05271894 -0.02216686
v 0.00417446 -0.05548012 -0.02216686
v 0.00389292 -0.05271649 -0.02191397
v 0.00161588 -0.05896970 -0.01863541
v 0.00147315 -0.05271649 -0.01951512
v 0.00410759 -0.05837046 -0.02053136
v 0.00397328 -0.05896970 -0.01992075
v 0.00395137 -0.05896603 -0.01985483
v 0.00395193 -0.05896970 -0.01985519
v 0.00332928 -0.05271649 -0.02064916
v 0.00394968 -0.05896970 -0.01984943
v 0.00223628 -0.05896970 -0.01883643
v 0.00269877 -0.05271649 -0.02014663
v 0.00292018 -0.05896970 -0.01906878
v 0.00293086 -0.05896970 -0.01907275
v 0.00354732 -0.05896970 -0.01936706
v 0.00301178 -0.05271649 -0.02033359
v 0.00332872 -0.05271894 -0.02064736
v 0.00379514 -0.05873527 -0.01961275
v 0.00355575 -0.05896970 -0.01937319
v 0.00355069 -0.05896970 -0.01936922
f 1 2 5
f 1 5 12
f 1 12 21
f 1 21 31
f 1 31 38
f 1 38 40
f 1 40 42
f 1 42 51
f 1 51 52
f 1 52 47
f 1 47 46
f 1 46 45
f 1 45 43
f 1 43 35
f 1 35 27
f 1 27 18
f 1 18 10
f 1 10 3
f 1 3 11
f 1 11 19
f 1 19 24
f 1 24 15
f 1 15 8
f 1 8 7
f 1 7 6
f 1 6 4
f 1 4 2
f 2 4 6
f 2 6 7
f 2 7 8
f 2 8 9
f 2 9 17
f 2 17 16
f 2 16 26
f 2 26 32
f 2 32 33
f 2 33 22
f 2 22 13
f 2 13 5
f 3 10 11
f 5 13 14
f 5 14 12
f 8 15 16
f 8 16 17
f 8 17 9
f 10 18 11
f 11 18 19
f 12 20 21
f 12 14 20
f 13 22 14
f 14 22 23
f 14 23 20
f 15 24 16
f 16 24 25
f 16 25 26
f 18 27 28
f 18 28 19
f 19 28 29
f 19 29 24
f 20 23 30
f 20 30 21
f 21 30 32
f 21 32 31
f 22 33 23
f 23 33 32
f 23 32 30
f 24 29 28
f 24 28 36
f 24 36 44
f 24 44 48
f 24 48 41
f 24 41 34
f 24 34 26
f 24 26 25
f 26 34 32
f 27 35 36
f 27 36 28
f 31 37 38
f 31 32 37
f 32 34 39
f 32 39 40
f 32 40 37
f 34 41 42
f 34 42 39
f 35 43 36
f 36 43 45
f 36 45 46
f 36 46 47
f 36 47 44
f 37 40 38
f 39 42 40
f 41 48 49
f 41 49 50
f 41 50 42
f 42 50 51
f 44 47 48
f 47 52 48
f 48 52 51
f 48 51 50
f 48 50 49

