# https://github.com/mikedh/trimesh
v -0.00641607 -0.07374571 -0.01249910
v -0.00564183 -0.07374571 -0.01249910
v -0.00642807 -0.07374571 -0.01243325
v -0.00649867 -0.07344368 -0.01249910
v -0.00454617 -0.06931313 -0.01249910
v -0.00454617 -0.06946362 -0.01229177
v -0.00454617 -0.07134578 -0.00958015
v -0.00454617 -0.07159835 -0.00920722
v -0.00454617 -0.07175884 -0.00896794
v -0.00454617 -0.07189880 -0.00874431
v -0.00454617 -0.07201193 -0.00855654
v -0.00454617 -0.07265125 -0.00746576
v -0.00454617 -0.07270597 -0.00736601
v -0.00454617 -0.07334213 -0.00611550
v -0.00454617 -0.07336160 -0.00607573
v -0.00454617 -0.07347630 -0.00583840
v -0.00487919 -0.07366363 -0.00583840
v -0.00504340 -0.07374571 -0.00583840
v -0.00644007 -0.07374571 -0.01236674
v -0.00651847 -0.07344368 -0.01236674
v -0.00656627 -0.07281542 -0.01249910
v -0.00454617 -0.06837074 -0.01249910
v -0.00454617 -0.07265598 -0.00583840
v -0.00607545 -0.07374571 -0.00583840
v -0.00652807 -0.07374571 -0.01173888
v -0.00656748 -0.07344368 -0.01173888
v -0.00657468 -0.07281542 -0.01236674
v -0.00657428 -0.07218768 -0.01249910
v -0.00466078 -0.06840020 -0.01249910
v -0.00554322 -0.07311218 -0.00583840
v -0.00623866 -0.07374571 -0.00638477
v -0.00590204 -0.07347578 -0.00583840
v -0.00624166 -0.07186407 -0.00889557
v -0.00657148 -0.07374571 -0.01111102
v -0.00658348 -0.07344368 -0.01111102
v -0.00658408 -0.07281542 -0.01173888
v -0.00658588 -0.07281542 -0.01111102
v -0.00657408 -0.07218768 -0.01236674
v -0.00653267 -0.07155941 -0.01249910
v -0.00509440 -0.06860331 -0.01249910
v -0.00562903 -0.07318480 -0.00583840
v -0.00513440 -0.06862541 -0.01249910
v -0.00564083 -0.06932629 -0.01200359
v -0.00623926 -0.07374571 -0.00638803
v -0.00624386 -0.07060755 -0.01078111
v -0.00632906 -0.07154679 -0.00984486
v -0.00643927 -0.07155941 -0.01048250
v -0.00629626 -0.07374571 -0.00671533
v -0.00627306 -0.07118372 -0.01004763
v -0.00658488 -0.07374571 -0.01048250
v -0.00658648 -0.07344368 -0.01048250
v -0.00658928 -0.07344368 -0.00985464
v -0.00658268 -0.07281542 -0.01048250
v -0.00656687 -0.07218768 -0.01173888
v -0.00655627 -0.07218768 -0.01111102
v -0.00652947 -0.07155941 -0.01236674
v -0.00645847 -0.07093220 -0.01249910
v -0.00566843 -0.06910003 -0.01249910
v -0.00575723 -0.06920105 -0.01249910
v -0.00624006 -0.06998349 -0.01204010
v -0.00627646 -0.07054230 -0.01111102
v -0.00630186 -0.07095799 -0.01053597
v -0.00638067 -0.07093220 -0.01111102
v -0.00642947 -0.07093220 -0.01173888
v -0.00648487 -0.07155941 -0.01111102
v -0.00653327 -0.07218768 -0.01048250
v -0.00646827 -0.07218768 -0.00985464
v -0.00639787 -0.07374571 -0.00734906
v -0.00658768 -0.07374571 -0.00985464
v -0.00657688 -0.07374571 -0.00922678
v -0.00656648 -0.07344368 -0.00922678
v -0.00655747 -0.07281542 -0.00985464
v -0.00650927 -0.07155941 -0.01173888
v -0.00645427 -0.07093220 -0.01236674
v -0.00636546 -0.07030394 -0.01249910
v -0.00606585 -0.06958359 -0.01249910
v -0.00623666 -0.06981827 -0.01249910
v -0.00627026 -0.06988246 -0.01249910
v -0.00626666 -0.06992772 -0.01236674
v -0.00629926 -0.07031236 -0.01179365
v -0.00635646 -0.07030394 -0.01236674
v -0.00648367 -0.07374571 -0.00797105
v -0.00654427 -0.07374571 -0.00859957
v -0.00650927 -0.07344368 -0.00859957
f 1 2 18
f 1 18 24
f 1 24 31
f 1 31 44
f 1 44 48
f 1 48 68
f 1 68 82
f 1 82 83
f 1 83 70
f 1 70 69
f 1 69 50
f 1 50 34
f 1 34 25
f 1 25 19
f 1 19 3
f 1 3 4
f 1 4 21
f 1 21 28
f 1 28 39
f 1 39 57
f 1 57 75
f 1 75 78
f 1 78 77
f 1 77 76
f 1 76 59
f 1 59 58
f 1 58 42
f 1 42 40
f 1 40 29
f 1 29 22
f 1 22 5
f 1 5 2
f 2 5 6
f 2 6 7
f 2 7 8
f 2 8 9
f 2 9 10
f 2 10 11
f 2 11 12
f 2 12 13
f 2 13 14
f 2 14 15
f 2 15 16
f 2 16 17
f 2 17 18
f 3 19 4
f 4 19 20
f 4 20 21
f 5 22 23
f 5 23 16
f 5 16 15
f 5 15 14
f 5 14 13
f 5 13 12
f 5 12 11
f 5 11 10
f 5 10 9
f 5 9 8
f 5 8 7
f 5 7 6
f 16 23 30
f 16 30 41
f 16 41 32
f 16 32 24
f 16 24 18
f 16 18 17
f 19 25 20
f 20 25 26
f 20 26 21
f 21 26 27
f 21 27 28
f 22 29 23
f 23 29 30
f 24 32 33
f 24 33 31
f 25 34 26
f 26 34 35
f 26 35 27
f 27 35 36
f 27 36 28
f 28 36 37
f 28 37 38
f 28 38 39
f 29 40 30
f 30 40 42
f 30 42 43
f 30 43 41
f 31 33 44
f 32 41 45
f 32 45 33
f 33 46 47
f 33 47 48
f 33 48 44
f 33 45 49
f 33 49 46
f 34 50 35
f 35 50 36
f 36 50 51
f 36 51 52
f 36 52 37
f 37 53 38
f 37 52 53
f 38 53 54
f 38 54 39
f 39 54 55
f 39 55 56
f 39 56 57
f 41 43 45
f 42 58 43
f 43 58 45
f 45 58 59
f 45 59 60
f 45 60 61
f 45 61 62
f 45 62 49
f 46 49 62
f 46 62 47
f 47 62 63
f 47 63 64
f 47 64 65
f 47 65 66
f 47 66 67
f 47 67 68
f 47 68 48
f 50 69 52
f 50 52 51
f 52 69 70
f 52 70 71
f 52 71 53
f 53 66 55
f 53 55 54
f 53 71 72
f 53 72 66
f 55 73 56
f 55 66 73
f 56 74 57
f 56 73 74
f 57 74 75
f 59 76 60
f 60 76 77
f 60 77 78
f 60 78 79
f 60 79 61
f 61 63 62
f 61 79 80
f 61 80 63
f 63 80 79
f 63 79 78
f 63 78 81
f 63 81 64
f 64 81 75
f 64 75 74
f 64 74 65
f 65 74 73
f 65 73 66
f 66 72 67
f 67 72 82
f 67 82 68
f 70 83 71
f 71 83 72
f 72 83 84
f 72 84 82
f 75 81 78
f 82 84 83

