# https://github.com/mikedh/trimesh
v 0.00742924 -0.00657153 0.07864107
v 0.00994961 0.00011059 0.07864107
v 0.00829598 -0.00657153 0.07864107
v 0.00742610 -0.00657153 0.09330273
v 0.01062490 0.00011059 0.07864107
v 0.00994678 0.00011059 0.09330273
v 0.00833560 -0.00652442 0.07864107
v 0.00830384 -0.00656237 0.09330273
v 0.00829598 -0.00657153 0.09330273
v 0.01063747 -0.00019034 0.07864107
v 0.01062490 0.00011059 0.09330273
v 0.00855755 -0.00625816 0.07864107
v 0.00855755 -0.00625816 0.09330273
v 0.01062615 -0.00059530 0.07864107
v 0.01063747 -0.00019034 0.09330273
v 0.00874240 -0.00603638 0.07864107
v 0.00880182 -0.00596507 0.09330273
v 0.01027657 -0.00261027 0.07864107
v 0.01062615 -0.00059530 0.09330273
v 0.00880936 -0.00595591 0.07864107
v 0.00880936 -0.00595591 0.09330273
v 0.01016119 -0.00305448 0.07864107
v 0.01027657 -0.00261027 0.09330273
v 0.00899422 -0.00563404 0.07864107
v 0.00881471 -0.00594676 0.09330273
v 0.01011938 -0.00321477 0.07864107
v 0.01012409 -0.00319710 0.09330273
v 0.00928093 -0.00508974 0.07864107
v 0.00900271 -0.00561834 0.09330273
v 0.00899422 -0.00563404 0.09330273
v 0.01000903 -0.00352879 0.07864107
v 0.01011938 -0.00321477 0.09330273
v 0.00938782 -0.00486796 0.07864107
v 0.00928093 -0.00508974 0.09330273
v 0.00959468 -0.00442440 0.07864107
v 0.01000903 -0.00352879 0.09330273
v 0.01000494 -0.00353795 0.09330273
v 0.00942649 -0.00478749 0.07864107
v 0.00942649 -0.00478749 0.09330273
v 0.00943152 -0.00477702 0.09330273
f 1 2 5
f 1 5 10
f 1 10 14
f 1 14 18
f 1 18 22
f 1 22 26
f 1 26 31
f 1 31 35
f 1 35 38
f 1 38 33
f 1 33 28
f 1 28 24
f 1 24 20
f 1 20 16
f 1 16 12
f 1 12 7
f 1 7 3
f 1 3 9
f 1 9 4
f 1 4 2
f 2 4 6
f 2 6 11
f 2 11 5
f 3 7 8
f 3 8 9
f 4 9 8
f 4 8 13
f 4 13 17
f 4 17 21
f 4 21 25
f 4 25 30
f 4 30 29
f 4 29 34
f 4 34 39
f 4 39 40
f 4 40 37
f 4 37 36
f 4 36 32
f 4 32 27
f 4 27 23
f 4 23 19
f 4 19 15
f 4 15 11
f 4 11 6
f 5 11 15
f 5 15 10
f 7 12 13
f 7 13 8
f 10 15 19
f 10 19 14
f 12 16 13
f 13 16 17
f 14 19 23
f 14 23 18
f 16 20 17
f 17 20 21
f 18 23 22
f 20 24 25
f 20 25 21
f 22 23 27
f 22 27 26
f 24 28 29
f 24 29 30
f 24 30 25
f 26 27 32
f 26 32 36
f 26 36 31
f 28 33 34
f 28 34 29
f 31 36 37
f 31 37 35
f 33 38 40
f 33 40 39
f 33 39 34
f 35 37 40
f 35 40 38

