# https://github.com/mikedh/trimesh
v -0.00978773 0.00011125 0.11146859
v -0.00977441 -0.00019046 0.11146859
v -0.00970732 0.00011125 0.11176974
v -0.00974827 0.00011125 0.10998293
v -0.00969795 -0.00140016 0.10998293
v -0.00961261 -0.00019046 0.11207349
v -0.00970782 -0.00140016 0.11146859
v -0.00962593 0.00011125 0.11207349
v -0.00920759 0.00011125 0.10998293
v -0.00967230 -0.00167625 0.10998293
v -0.00936496 -0.00060888 0.11238557
v -0.00938371 -0.00019046 0.11240329
v -0.00953565 -0.00140016 0.11204327
v -0.00964122 -0.00200529 0.10998293
v -0.00964122 -0.00200529 0.11146859
v -0.00949766 -0.00200529 0.11198778
v -0.00939012 0.00011125 0.11240876
v -0.00733939 0.00011125 0.11264425
v -0.00474799 -0.00570439 0.11264425
v -0.00706018 -0.00570439 0.10998293
v -0.00934325 -0.00101249 0.11236629
v -0.00899843 -0.00140016 0.11264425
v -0.00910893 -0.00033164 0.11264425
v -0.00932401 -0.00140016 0.11234571
v -0.00912027 -0.00020527 0.11264425
v -0.00922634 0.00011125 0.11255933
v -0.00947793 -0.00260985 0.10998293
v -0.00947793 -0.00260985 0.11146859
v -0.00935855 -0.00292352 0.11177885
v -0.00941627 -0.00260985 0.11186534
v -0.00927123 -0.00200529 0.11229023
v -0.00913359 0.00011125 0.11264425
v -0.00696151 -0.00570439 0.11264425
v -0.00789092 -0.00570439 0.10998293
v -0.00891407 -0.00188290 0.11264425
v -0.00896883 -0.00200529 0.11257288
v -0.00913014 0.00002813 0.11264425
v -0.00942465 -0.00275559 0.10998293
v -0.00936052 -0.00292921 0.11146859
v -0.00901717 -0.00381955 0.11146859
v -0.00883612 -0.00428521 0.11146859
v -0.00880702 -0.00423056 0.11186248
v -0.00917651 -0.00260985 0.11216779
v -0.00888348 -0.00381955 0.11196772
v -0.00864817 -0.00381955 0.11227017
v -0.00879567 -0.00303737 0.11241631
v -0.00887411 -0.00260985 0.11248483
v -0.00717117 -0.00570439 0.11249863
v -0.00712776 -0.00549775 0.11264425
v -0.00789092 -0.00570439 0.11146859
v -0.00803300 -0.00550287 0.10998293
v -0.00888989 -0.00200529 0.11264425
v -0.00877643 -0.00236336 0.11264425
v -0.00936052 -0.00292921 0.10998293
v -0.00901717 -0.00381955 0.10998293
v -0.00893479 -0.00403188 0.10998293
v -0.00883612 -0.00428521 0.10998293
v -0.00873795 -0.00444973 0.10998293
v -0.00865557 -0.00458749 0.11146859
v -0.00814745 -0.00533608 0.11177573
v -0.00825105 -0.00502924 0.11189999
v -0.00846317 -0.00445144 0.11210188
v -0.00823921 -0.00426927 0.11245487
v -0.00872167 -0.00344098 0.11234493
v -0.00834576 -0.00381955 0.11254891
v -0.00848192 -0.00318083 0.11264425
v -0.00869158 -0.00260985 0.11264425
v -0.00735025 -0.00570439 0.11235275
v -0.00722544 -0.00559168 0.11251999
v -0.00756089 -0.00536226 0.11239208
v -0.00758556 -0.00485675 0.11264425
v -0.00772468 -0.00570439 0.11196668
v -0.00814893 -0.00533835 0.11146859
v -0.00814893 -0.00533835 0.10998293
v -0.00865557 -0.00458749 0.10998293
v -0.00851991 -0.00478901 0.10998293
v -0.00835810 -0.00502924 0.11146859
v -0.00810601 -0.00467231 0.11234155
v -0.00811588 -0.00405409 0.11264425
v -0.00823082 -0.00381955 0.11264425
v -0.00787021 -0.00445144 0.11264425
v -0.00790474 -0.00440134 0.11264425
v -0.00828114 -0.00370512 0.11264425
v -0.00752291 -0.00570439 0.11219228
v -0.00781397 -0.00453227 0.11264425
v -0.00767830 -0.00502924 0.11248118
v -0.00835810 -0.00502924 0.10998293
f 1 2 3
f 1 3 8
f 1 8 17
f 1 17 26
f 1 26 32
f 1 32 18
f 1 18 9
f 1 9 4
f 1 4 5
f 1 5 2
f 2 6 3
f 2 5 7
f 2 7 6
f 3 6 8
f 4 9 20
f 4 20 34
f 4 34 51
f 4 51 74
f 4 74 87
f 4 87 76
f 4 76 75
f 4 75 58
f 4 58 57
f 4 57 56
f 4 56 55
f 4 55 54
f 4 54 38
f 4 38 27
f 4 27 14
f 4 14 10
f 4 10 5
f 5 10 7
f 6 11 12
f 6 12 8
f 6 7 13
f 6 13 11
f 7 10 14
f 7 14 15
f 7 15 16
f 7 16 13
f 8 12 17
f 9 18 19
f 9 19 20
f 11 21 22
f 11 22 23
f 11 23 12
f 11 13 24
f 11 24 21
f 12 23 25
f 12 25 26
f 12 26 17
f 13 16 24
f 14 27 28
f 14 28 15
f 15 28 29
f 15 29 30
f 15 30 16
f 16 31 24
f 16 30 31
f 18 32 37
f 18 37 25
f 18 25 23
f 18 23 22
f 18 22 35
f 18 35 52
f 18 52 53
f 18 53 67
f 18 67 66
f 18 66 83
f 18 83 80
f 18 80 79
f 18 79 82
f 18 82 81
f 18 81 85
f 18 85 71
f 18 71 49
f 18 49 33
f 18 33 19
f 19 33 48
f 19 48 68
f 19 68 84
f 19 84 72
f 19 72 50
f 19 50 34
f 19 34 20
f 21 24 22
f 22 24 35
f 24 31 36
f 24 36 35
f 25 37 26
f 26 37 32
f 27 38 28
f 28 38 39
f 28 39 29
f 29 39 40
f 29 40 41
f 29 41 42
f 29 42 30
f 30 43 31
f 30 42 44
f 30 44 45
f 30 45 43
f 31 43 46
f 31 46 47
f 31 47 36
f 33 49 48
f 34 50 51
f 35 36 52
f 36 47 53
f 36 53 52
f 38 54 39
f 39 54 55
f 39 55 40
f 40 55 56
f 40 56 41
f 41 56 57
f 41 57 58
f 41 58 59
f 41 59 42
f 42 59 60
f 42 60 61
f 42 61 62
f 42 62 63
f 42 63 45
f 42 45 44
f 43 45 64
f 43 64 46
f 45 65 64
f 45 63 65
f 46 66 67
f 46 67 47
f 46 64 65
f 46 65 66
f 47 67 53
f 48 49 69
f 48 69 70
f 48 70 68
f 49 70 69
f 49 71 70
f 50 72 60
f 50 60 73
f 50 73 51
f 51 73 74
f 58 75 59
f 59 75 76
f 59 76 77
f 59 77 60
f 60 72 61
f 60 77 73
f 61 78 62
f 61 72 78
f 62 78 63
f 63 79 80
f 63 80 65
f 63 78 81
f 63 81 82
f 63 82 79
f 65 80 83
f 65 83 66
f 68 70 84
f 70 71 85
f 70 85 86
f 70 86 78
f 70 78 84
f 72 84 78
f 73 77 87
f 73 87 74
f 76 87 77
f 78 86 81
f 81 86 85

