# https://github.com/mikedh/trimesh
v 0.01016609 0.00774797 0.05276672
v 0.01016609 0.00774797 0.05274774
v 0.01003741 0.00802507 0.05259278
v 0.00774148 0.00774797 0.06309980
v 0.01012422 0.00774797 0.05239986
v 0.01003741 0.00802507 0.05244625
v 0.00949202 0.00870446 0.05239670
v 0.00948896 0.00870027 0.05278991
v 0.00755458 0.00794912 0.06309980
v 0.00675897 0.00774797 0.06309980
v 0.00921831 0.00900304 0.05278991
v 0.01008950 0.00774797 0.05238616
v 0.00969629 0.00824769 0.05237983
v 0.00848092 0.00949124 0.05237351
v 0.00891702 0.00929062 0.05239459
v 0.00657207 0.00877413 0.06309980
v 0.00891600 0.00928957 0.05278991
v 0.00827257 0.00986210 0.05268765
v 0.00698264 0.01100455 0.05249790
v 0.00676305 0.00774797 0.06307345
v -0.00026772 0.01062216 0.06309980
v -0.00026772 0.01066040 0.06217845
v -0.00026772 0.01067559 0.06186325
v 0.00970037 0.00774797 0.05237878
v 0.00062696 0.01297830 0.05233451
v 0.00365211 0.01237696 0.05235348
v 0.00667114 0.01068031 0.05236929
v 0.00603281 0.01131675 0.05238300
v 0.00785178 0.01007582 0.05238511
v 0.00667624 0.01109622 0.05240197
v 0.00827257 0.00986210 0.05241568
v 0.00622482 0.00906328 0.06309980
v 0.00698264 0.01100455 0.05248315
v 0.00580608 0.01162370 0.05254850
v 0.00668033 0.01111665 0.05273615
v 0.00541491 0.00960543 0.06309980
v 0.00592251 0.00931104 0.06309980
v 0.00686417 0.00774797 0.06246835
v -0.00026772 0.01118893 0.06309980
v -0.00026772 0.01069654 0.06157335
v 0.00778437 0.00774797 0.05700347
v 0.00966054 0.00774797 0.05237983
v -0.00026772 0.01265877 0.05233029
v 0.00062696 0.01265510 0.05233451
v 0.00123260 0.01294006 0.05234821
v -0.00026772 0.01298406 0.05233029
v 0.00002234 0.01298825 0.05233345
v 0.00002234 0.01309930 0.05278991
v 0.00062696 0.01307206 0.05278991
v 0.00183723 0.01288715 0.05239354
v 0.00231316 0.01284630 0.05244309
v 0.00425673 0.01228476 0.05241146
v 0.00546598 0.01170228 0.05238932
v 0.00580608 0.01162370 0.05246206
v 0.00762709 0.01043306 0.05244520
v 0.00456517 0.01221352 0.05249685
v 0.00487668 0.00989196 0.06309980
v 0.00536793 0.00963057 0.06309980
v 0.00002234 0.01120517 0.06309980
v -0.00026772 0.01308411 0.05278991
v -0.00026772 0.01072640 0.06125815
v 0.00790693 0.00774797 0.05655439
v -0.00026772 0.01075731 0.06096825
v -0.00026772 0.01096160 0.05918036
v -0.00026772 0.01098622 0.05896952
v 0.00962377 0.00774797 0.05239249
v 0.00941849 0.00774797 0.05258540
v -0.00026772 0.01245972 0.05278991
v 0.00123260 0.01298092 0.05278991
v 0.00231316 0.01284630 0.05259910
v 0.00060143 0.01116222 0.06309980
v 0.00062696 0.01116012 0.06309980
v 0.00365211 0.01248381 0.05278991
v 0.00456517 0.01221352 0.05248315
v 0.00424346 0.01229157 0.05273509
v 0.00356734 0.01049697 0.06309980
v -0.00026772 0.01129527 0.05673466
v 0.00793757 0.00774797 0.05646479
v -0.00026772 0.01211452 0.05377979
v -0.00026772 0.01217529 0.05357633
v 0.00932861 0.00774797 0.05278991
v -0.00026772 0.01134346 0.05641946
v -0.00026772 0.01143932 0.05607685
v -0.00026772 0.01152051 0.05579854
v 0.00125201 0.01105222 0.06309980
v 0.00304749 0.01067140 0.06309980
v 0.00354794 0.01050378 0.06309980
f 1 2 6
f 1 6 3
f 1 3 4
f 1 4 10
f 1 10 20
f 1 20 38
f 1 38 41
f 1 41 62
f 1 62 78
f 1 78 81
f 1 81 67
f 1 67 66
f 1 66 42
f 1 42 24
f 1 24 12
f 1 12 5
f 1 5 2
f 2 5 6
f 3 6 7
f 3 7 8
f 3 8 4
f 4 9 16
f 4 16 32
f 4 32 37
f 4 37 36
f 4 36 58
f 4 58 57
f 4 57 76
f 4 76 87
f 4 87 86
f 4 86 85
f 4 85 72
f 4 72 71
f 4 71 59
f 4 59 39
f 4 39 21
f 4 21 10
f 4 8 11
f 4 11 9
f 5 12 7
f 5 7 6
f 7 12 13
f 7 13 14
f 7 14 15
f 7 15 11
f 7 11 8
f 9 11 17
f 9 17 18
f 9 18 19
f 9 19 16
f 10 21 22
f 10 22 23
f 10 23 20
f 11 15 17
f 12 24 13
f 13 24 14
f 14 24 25
f 14 25 26
f 14 26 27
f 14 27 28
f 14 28 29
f 14 29 15
f 15 29 30
f 15 30 31
f 15 31 18
f 15 18 17
f 16 19 32
f 18 31 33
f 18 33 19
f 19 33 54
f 19 54 34
f 19 34 35
f 19 35 36
f 19 36 37
f 19 37 32
f 20 23 38
f 21 39 60
f 21 60 46
f 21 46 43
f 21 43 68
f 21 68 80
f 21 80 79
f 21 79 84
f 21 84 83
f 21 83 82
f 21 82 77
f 21 77 65
f 21 65 64
f 21 64 63
f 21 63 61
f 21 61 40
f 21 40 23
f 21 23 22
f 23 40 41
f 23 41 38
f 24 42 43
f 24 43 44
f 24 44 25
f 25 45 26
f 25 44 43
f 25 43 46
f 25 46 47
f 25 47 48
f 25 48 49
f 25 49 45
f 26 45 50
f 26 50 51
f 26 51 52
f 26 52 53
f 26 53 28
f 26 28 27
f 28 53 30
f 28 30 29
f 30 54 33
f 30 33 55
f 30 55 31
f 30 53 54
f 31 55 33
f 34 54 74
f 34 74 56
f 34 56 57
f 34 57 58
f 34 58 35
f 35 58 36
f 39 59 60
f 40 61 41
f 41 61 63
f 41 63 64
f 41 64 65
f 41 65 62
f 42 66 43
f 43 66 67
f 43 67 68
f 45 49 50
f 46 60 48
f 46 48 47
f 48 60 59
f 48 59 49
f 49 69 70
f 49 70 51
f 49 51 50
f 49 59 71
f 49 71 72
f 49 72 69
f 51 70 73
f 51 73 74
f 51 74 52
f 52 74 54
f 52 54 53
f 56 74 73
f 56 73 75
f 56 75 76
f 56 76 57
f 62 77 78
f 62 65 77
f 67 79 80
f 67 80 68
f 67 81 82
f 67 82 83
f 67 83 84
f 67 84 79
f 69 72 70
f 70 72 85
f 70 85 86
f 70 86 73
f 73 86 87
f 73 87 75
f 75 87 76
f 77 82 78
f 78 82 81

