# https://github.com/mikedh/trimesh
v 0.00751388 -0.03328957 0.05844191
v -0.00672553 -0.03336565 0.05843689
v -0.00670184 -0.03336999 0.05844191
v 0.00751388 -0.03554260 0.05844191
v 0.00751388 -0.04100617 0.04134176
v -0.00672553 -0.03341455 0.05844191
v -0.00672553 -0.04113877 0.04134176
v 0.00541058 -0.03570672 0.05844191
v 0.00337419 -0.03913354 0.05437236
v 0.00476245 -0.03901725 0.05424346
v 0.00751388 -0.03924875 0.05313024
v 0.00751388 -0.04377111 0.04134176
v -0.00672553 -0.03552630 0.05844191
v -0.00672553 -0.04389718 0.04134176
v 0.00389967 -0.03581757 0.05844191
v 0.00198733 -0.03918245 0.05442091
v 0.00337419 -0.03953893 0.05367932
v 0.00476245 -0.03945633 0.05355041
v 0.00333238 -0.03585670 0.05844191
v 0.00198733 -0.03594256 0.05844191
v 0.00614931 -0.03934982 0.05335121
v 0.00718075 -0.03927266 0.05318548
v 0.00476245 -0.03997259 0.05238195
v 0.00751388 -0.04313314 0.04394822
v 0.00614931 -0.04395262 0.04134176
v 0.00751388 -0.04356461 0.04272450
v 0.00614931 -0.04376242 0.04266926
v -0.00633805 -0.03559260 0.05844191
v -0.00672553 -0.03933461 0.05331438
v -0.00633805 -0.03936830 0.05338469
v -0.00494979 -0.03897812 0.05424514
v -0.00627811 -0.04395587 0.04134176
v -0.00672553 -0.04376024 0.04229930
v 0.00059907 -0.03920093 0.05443932
v 0.00198733 -0.03957697 0.05372786
v 0.00059907 -0.03602516 0.05844191
v -0.00078780 -0.03608711 0.05844191
v 0.00198733 -0.04021604 0.05238195
v 0.00337419 -0.04014104 0.05238195
v 0.00276508 -0.04339941 0.04477853
v 0.00705252 -0.04341789 0.04343261
v 0.00751388 -0.04338419 0.04333720
v 0.00337419 -0.04410477 0.04266926
v 0.00343413 -0.04428736 0.04134176
v 0.00751388 -0.04356244 0.04273455
v 0.00751388 -0.04355809 0.04275129
v -0.00492609 -0.03580996 0.05844191
v -0.00356292 -0.03911615 0.05435060
v -0.00633805 -0.03980413 0.05238195
v -0.00672553 -0.04050188 0.05062590
v -0.00494979 -0.03996606 0.05238195
v -0.00494979 -0.03945307 0.05355041
v -0.00489125 -0.04413521 0.04134176
v -0.00494979 -0.04393740 0.04266926
v -0.00633805 -0.04375698 0.04266926
v -0.00672553 -0.04370155 0.04269102
v -0.00078780 -0.03921723 0.05445439
v -0.00078780 -0.03961392 0.05376134
v 0.00059907 -0.03959545 0.05374628
v -0.00078780 -0.04028451 0.05238195
v -0.00217466 -0.03609363 0.05844191
v 0.00198733 -0.04371242 0.04405703
v 0.00328638 -0.04360265 0.04412064
v 0.00614931 -0.04347549 0.04356821
v 0.00198733 -0.04419933 0.04266926
v 0.00337419 -0.04429388 0.04134176
v -0.00356292 -0.03599473 0.05844191
v -0.00356292 -0.03952263 0.05365755
v -0.00217466 -0.03919549 0.05443095
v -0.00672553 -0.04344832 0.04350460
v -0.00494979 -0.04356352 0.04377412
v -0.00346954 -0.04360482 0.04412566
v -0.00294545 -0.04339832 0.04477351
v -0.00356292 -0.04010627 0.05238195
v -0.00217466 -0.04023995 0.05238195
v -0.00356292 -0.04429932 0.04134176
v -0.00356292 -0.04411129 0.04266926
v -0.00217466 -0.03959002 0.05373623
v -0.00217466 -0.04370808 0.04405703
v 0.00059907 -0.04371133 0.04405703
v 0.00059907 -0.04420259 0.04266926
v 0.00065900 -0.04439170 0.04134176
v 0.00198733 -0.04438736 0.04134176
v -0.00217466 -0.04438192 0.04134176
v -0.00217466 -0.04419498 0.04266926
v 0.00059907 -0.04439170 0.04134176
v -0.00078780 -0.04438736 0.04134176
f 1 2 3
f 1 3 6
f 1 6 13
f 1 13 28
f 1 28 47
f 1 47 67
f 1 67 61
f 1 61 37
f 1 37 36
f 1 36 20
f 1 20 19
f 1 19 15
f 1 15 8
f 1 8 4
f 1 4 11
f 1 11 24
f 1 24 42
f 1 42 46
f 1 46 45
f 1 45 26
f 1 26 12
f 1 12 5
f 1 5 2
f 2 6 3
f 2 5 7
f 2 7 14
f 2 14 33
f 2 33 56
f 2 56 70
f 2 70 50
f 2 50 29
f 2 29 13
f 2 13 6
f 4 8 9
f 4 9 10
f 4 10 11
f 5 12 25
f 5 25 44
f 5 44 66
f 5 66 83
f 5 83 82
f 5 82 86
f 5 86 87
f 5 87 84
f 5 84 76
f 5 76 53
f 5 53 32
f 5 32 14
f 5 14 7
f 8 15 9
f 9 16 17
f 9 17 18
f 9 18 10
f 9 15 19
f 9 19 20
f 9 20 16
f 10 18 21
f 10 21 22
f 10 22 11
f 11 22 21
f 11 21 23
f 11 23 24
f 12 26 27
f 12 27 25
f 13 29 30
f 13 30 31
f 13 31 28
f 14 32 33
f 16 34 59
f 16 59 35
f 16 35 17
f 16 20 36
f 16 36 37
f 16 37 34
f 17 35 38
f 17 38 39
f 17 39 18
f 18 39 23
f 18 23 21
f 23 39 40
f 23 40 41
f 23 41 24
f 24 41 42
f 25 27 43
f 25 43 44
f 26 45 27
f 27 45 46
f 27 46 41
f 27 41 43
f 28 31 48
f 28 48 47
f 29 49 30
f 29 50 49
f 30 49 51
f 30 51 52
f 30 52 48
f 30 48 31
f 32 53 54
f 32 54 33
f 33 54 55
f 33 55 56
f 34 57 58
f 34 58 59
f 34 37 57
f 35 59 60
f 35 60 38
f 37 61 57
f 38 60 40
f 38 40 39
f 40 62 63
f 40 63 64
f 40 64 41
f 40 60 62
f 41 64 43
f 41 46 42
f 43 65 66
f 43 66 44
f 43 64 63
f 43 63 65
f 47 48 67
f 48 52 68
f 48 68 69
f 48 69 67
f 49 50 51
f 50 70 71
f 50 71 72
f 50 72 73
f 50 73 51
f 51 74 52
f 51 73 74
f 52 74 75
f 52 75 68
f 53 76 77
f 53 77 54
f 54 77 70
f 54 70 56
f 54 56 55
f 57 69 58
f 57 61 69
f 58 69 78
f 58 78 60
f 58 60 59
f 60 78 75
f 60 75 73
f 60 73 79
f 60 79 80
f 60 80 62
f 61 67 69
f 62 80 81
f 62 81 65
f 62 65 63
f 65 81 82
f 65 82 83
f 65 83 66
f 68 75 78
f 68 78 69
f 70 77 71
f 71 77 72
f 72 77 79
f 72 79 73
f 73 75 74
f 76 84 85
f 76 85 77
f 77 85 79
f 79 85 81
f 79 81 80
f 81 85 86
f 81 86 82
f 84 87 85
f 85 87 86

