# https://github.com/mikedh/trimesh
v 0.02419837 0.01721601 0.06172200
v 0.02419837 -0.00035739 0.06171080
v 0.02419837 0.01721601 0.05880568
v -0.00356123 0.01721601 0.06444950
v 0.02280273 -0.00036084 0.06170800
v 0.02418936 -0.00036084 0.06171023
v 0.02419837 -0.00036084 0.06167886
v 0.02419837 0.01558136 0.05880568
v 0.01299128 0.00580440 0.05872556
v 0.01293425 0.00588527 0.05872556
v 0.01180874 0.00736506 0.05872556
v 0.01035308 0.00781416 0.05872556
v 0.01031106 0.00782621 0.05872556
v 0.02117599 0.01721601 0.05880568
v -0.00471075 0.01721601 0.06442821
v -0.00646355 0.01688220 0.06434360
v -0.00633749 0.00448807 0.06229126
v 0.01863984 -0.00036084 0.06170071
v 0.02419837 -0.00036084 0.05880680
v 0.01297027 0.00453109 0.05872556
v 0.00901748 0.00762661 0.05872556
v 0.00868733 0.01721601 0.05880680
v 0.01423685 0.01721601 0.05880625
v -0.00646355 0.01721601 0.06439403
v -0.00646355 0.00448807 0.06228734
v 0.01725021 -0.00036084 0.06168782
v 0.01030506 0.00260735 0.05872556
v 0.01166168 0.00306850 0.05872556
v 0.01177573 0.00316830 0.05872556
v 0.01243903 0.00391680 0.05872556
v -0.00213859 -0.00036084 0.05872556
v 0.00755281 0.00712933 0.05872556
v 0.00754081 0.01721601 0.05881241
v 0.00037355 0.00466186 0.05872556
v -0.00628047 0.00208082 0.05872556
v -0.00646355 0.00200167 0.05872556
v -0.00646355 0.01721601 0.05892558
v -0.00646355 -0.00036084 0.06063167
v -0.00646355 -0.00036084 0.05872556
v 0.00730070 0.01721601 0.05881409
v -0.00646355 0.01003729 0.05882417
v -0.00495086 0.01142589 0.05882978
v -0.00356123 0.01281277 0.05883818
v -0.00633749 0.01142589 0.05884098
v -0.00646355 0.01142589 0.05884210
f 1 2 7
f 1 7 19
f 1 19 8
f 1 8 3
f 1 3 14
f 1 14 23
f 1 23 22
f 1 22 33
f 1 33 40
f 1 40 37
f 1 37 24
f 1 24 15
f 1 15 4
f 1 4 2
f 2 5 6
f 2 6 7
f 2 4 5
f 3 8 9
f 3 9 10
f 3 10 11
f 3 11 12
f 3 12 13
f 3 13 14
f 4 15 16
f 4 16 17
f 4 17 18
f 4 18 5
f 5 18 26
f 5 26 38
f 5 38 39
f 5 39 31
f 5 31 19
f 5 19 7
f 5 7 6
f 8 19 9
f 9 20 30
f 9 30 29
f 9 29 28
f 9 28 27
f 9 27 31
f 9 31 39
f 9 39 36
f 9 36 35
f 9 35 34
f 9 34 32
f 9 32 21
f 9 21 13
f 9 13 12
f 9 12 11
f 9 11 10
f 9 19 20
f 13 21 22
f 13 22 23
f 13 23 14
f 15 24 16
f 16 24 37
f 16 37 45
f 16 45 41
f 16 41 36
f 16 36 39
f 16 39 38
f 16 38 25
f 16 25 17
f 17 25 26
f 17 26 18
f 19 27 28
f 19 28 29
f 19 29 30
f 19 30 20
f 19 31 27
f 21 32 22
f 22 32 34
f 22 34 35
f 22 35 36
f 22 36 33
f 25 38 26
f 33 36 40
f 36 41 42
f 36 42 40
f 37 43 44
f 37 44 45
f 37 40 43
f 40 42 43
f 41 45 44
f 41 44 42
f 42 44 43

