# https://github.com/mikedh/trimesh
v -0.03669734 0.00032477 0.06209621
v -0.03565865 0.00032477 0.05866601
v -0.03568079 -0.00003652 0.05866601
v -0.03569961 -0.00036035 0.05866601
v -0.03669291 -0.00036035 0.06209621
v -0.03658771 -0.00036035 0.06313051
v -0.03658328 0.00032477 0.06312420
v -0.03647919 0.00310053 0.06310529
v -0.03641497 0.00448841 0.06307280
v -0.03633081 0.00587629 0.06300443
v -0.03633081 0.00587629 0.06257772
v -0.03623890 0.00726416 0.06269943
v -0.03512601 0.00587629 0.05866601
v -0.03346608 -0.00036035 0.05866601
v -0.03548036 -0.00036035 0.06361929
v -0.03548036 0.00587629 0.06340690
v -0.03548036 0.00726416 0.06328713
v -0.03521570 0.01003992 0.06316590
v -0.03623890 0.00726416 0.06289242
v -0.03618574 0.00802199 0.06277314
v -0.03498870 0.00677730 0.05866601
v -0.02538460 -0.00036035 0.05880663
v -0.02538460 0.02149762 0.05866601
v -0.02538460 -0.00036035 0.06171411
v -0.02743543 0.02214309 0.06320567
v -0.03409284 0.01003992 0.06350534
v -0.03618574 0.00802199 0.06281241
v -0.03409284 0.01142559 0.06339478
v -0.03499534 0.01142559 0.06301753
v -0.03494551 0.00704607 0.05866601
v -0.03483920 0.01225832 0.06268876
v -0.03358678 0.01242575 0.05866601
v -0.03387248 0.01142559 0.05866601
v -0.02538460 0.02214309 0.05866601
v -0.02538460 0.02214309 0.06215052
v -0.02649196 0.02214309 0.06277216
v -0.02719402 0.02214309 0.06314796
v -0.02850845 0.02214309 0.06311111
v -0.02854278 0.02113853 0.06323961
v -0.03483920 0.01225832 0.06285363
v -0.03000117 0.01979912 0.06315863
v -0.03130120 0.01826365 0.06306989
v -0.03365433 0.01420135 0.06296952
v -0.03346497 0.01504729 0.06284296
v -0.03346497 0.01504729 0.06240073
v -0.03287586 0.01418593 0.05866601
v -0.02766243 0.02214309 0.05866601
v -0.02872328 0.02214309 0.06306601
v -0.02952943 0.02113853 0.06303110
v -0.03082947 0.01936734 0.06297049
v -0.03205420 0.01773493 0.06282938
v -0.03225464 0.01697490 0.06294382
v -0.03205420 0.01773493 0.06268391
v -0.03130674 0.01694186 0.05866601
v -0.02890821 0.02214309 0.06256657
v -0.02845419 0.02112091 0.05866601
v -0.02927806 0.02188975 0.06274065
v -0.02890821 0.02214309 0.06295643
v -0.02927806 0.02188975 0.06284829
v -0.02966342 0.01955459 0.05866601
v -0.03028576 0.01862493 0.05866601
f 1 2 3
f 1 3 4
f 1 4 5
f 1 5 6
f 1 6 7
f 1 7 8
f 1 8 9
f 1 9 10
f 1 10 11
f 1 11 2
f 2 11 12
f 2 12 13
f 2 13 21
f 2 21 30
f 2 30 33
f 2 33 32
f 2 32 46
f 2 46 54
f 2 54 61
f 2 61 60
f 2 60 56
f 2 56 47
f 2 47 34
f 2 34 23
f 2 23 14
f 2 14 4
f 2 4 3
f 4 14 22
f 4 22 24
f 4 24 15
f 4 15 6
f 4 6 5
f 6 15 7
f 7 15 8
f 8 15 16
f 8 16 9
f 9 16 10
f 10 16 17
f 10 17 18
f 10 18 19
f 10 19 12
f 10 12 11
f 12 19 27
f 12 27 20
f 12 20 13
f 13 20 21
f 14 23 22
f 15 24 25
f 15 25 26
f 15 26 16
f 16 26 18
f 16 18 17
f 18 27 19
f 18 26 28
f 18 28 29
f 18 29 27
f 20 30 21
f 20 27 40
f 20 40 31
f 20 31 32
f 20 32 33
f 20 33 30
f 22 23 34
f 22 34 35
f 22 35 24
f 24 35 36
f 24 36 37
f 24 37 25
f 25 37 36
f 25 36 35
f 25 35 34
f 25 34 47
f 25 47 55
f 25 55 58
f 25 58 48
f 25 48 38
f 25 38 39
f 25 39 26
f 26 39 28
f 27 29 40
f 28 39 41
f 28 41 42
f 28 42 29
f 29 42 43
f 29 43 44
f 29 44 40
f 31 40 44
f 31 44 45
f 31 45 46
f 31 46 32
f 38 48 41
f 38 41 39
f 41 48 49
f 41 49 42
f 42 49 50
f 42 50 51
f 42 51 52
f 42 52 43
f 43 52 44
f 44 52 51
f 44 51 53
f 44 53 45
f 45 53 46
f 46 53 54
f 47 56 57
f 47 57 55
f 48 58 49
f 49 58 59
f 49 59 50
f 50 59 51
f 51 59 57
f 51 57 53
f 53 57 60
f 53 60 61
f 53 61 54
f 55 57 59
f 55 59 58
f 56 60 57

