# https://github.com/mikedh/trimesh
v -0.00008824 0.04365365 -0.00515945
v -0.00008824 0.04109944 -0.00515945
v -0.00008824 0.04365365 -0.00590458
v -0.00078883 0.04365497 -0.00515945
v -0.02740345 0.03085895 -0.00515945
v -0.02740345 0.03022664 -0.06556878
v -0.00008824 0.04054995 -0.06556878
v -0.00008824 0.04365234 -0.01562094
v -0.00078883 0.04365497 -0.01423120
v -0.00217665 0.04365102 -0.00515945
v -0.02740345 0.03420453 -0.00515945
v -0.02740345 0.03419401 -0.06556878
v -0.00008824 0.04364445 -0.06556878
v -0.00008824 0.04364971 -0.03435581
v -0.00078883 0.04365365 -0.02394163
v -0.00217665 0.04365102 -0.00590458
v -0.00356448 0.04355769 -0.00515945
v -0.02717348 0.03437411 -0.00515945
v -0.02740345 0.03420453 -0.00590458
v -0.02740345 0.03419532 -0.06113345
v -0.02684725 0.03460284 -0.06556878
v -0.00079418 0.04364708 -0.06556878
v -0.00008824 0.04364577 -0.06210922
v -0.00008824 0.04364708 -0.05307887
v -0.00078883 0.04364971 -0.05169504
v -0.00217665 0.04364577 -0.04336843
v -0.00356448 0.04355506 -0.02672112
v -0.00356448 0.04355769 -0.00729432
v -0.00356448 0.04355112 -0.05585835
v -0.00431320 0.04346567 -0.00515945
v -0.02740345 0.03420321 -0.01423120
v -0.02685260 0.03460810 -0.00515945
v -0.02685260 0.03460810 -0.01284146
v -0.02684993 0.03460547 -0.04475225
v -0.02740345 0.03419927 -0.03781538
v -0.02684725 0.03460415 -0.06002165
v -0.02519203 0.03579779 -0.06418496
v -0.02518935 0.03579779 -0.06556878
v -0.00218200 0.04364182 -0.06556878
v -0.00217665 0.04364314 -0.06140547
v -0.00078883 0.04364839 -0.06002165
v -0.00634547 0.04320933 -0.06556878
v -0.00634012 0.04321459 -0.02394163
v -0.00634012 0.04321590 -0.01145763
v -0.00356448 0.04354980 -0.06418496
v -0.00495230 0.04338022 -0.06279522
v -0.00570102 0.04329477 -0.00515945
v -0.02589262 0.03530219 -0.00515945
v -0.02589262 0.03530219 -0.00590458
v -0.02519470 0.03580041 -0.03781538
v -0.02437645 0.03638408 -0.06279522
v -0.02437912 0.03638145 -0.06556878
v -0.02482034 0.03607516 -0.00515945
v -0.00356982 0.04354849 -0.06556878
v -0.00773061 0.04302397 -0.06556878
v -0.00772794 0.04302529 -0.06418496
v -0.00772794 0.04302660 -0.05724217
v -0.00772794 0.04302792 -0.04614199
v -0.00772794 0.04303055 -0.02255781
v -0.00708885 0.04311731 -0.00515945
v -0.00634012 0.04321590 -0.00515945
v -0.02519738 0.03580173 -0.01700476
v -0.02350204 0.03699010 -0.06140547
v -0.02437645 0.03639197 -0.01562094
v -0.02397802 0.03667066 -0.00515945
v -0.02350739 0.03699404 -0.01978424
v -0.02350204 0.03698747 -0.06556878
v -0.02437645 0.03639329 -0.00515945
v -0.02437645 0.03639329 -0.00729432
v -0.00896869 0.04278735 -0.06556878
v -0.00897136 0.04278735 -0.06418496
v -0.00897404 0.04278866 -0.05307887
v -0.00772794 0.04303186 -0.01006789
v -0.00772794 0.04303186 -0.00515945
v -0.02280947 0.03737790 -0.05169504
v -0.02280679 0.03737790 -0.06002165
v -0.02280679 0.03737658 -0.06556878
v -0.02349937 0.03699010 -0.06418496
v -0.02351006 0.03699404 -0.00515945
v -0.02313570 0.03720306 -0.00515945
v -0.02281481 0.03738184 -0.00867815
v -0.00966661 0.04261120 -0.06556878
v -0.00966394 0.04261251 -0.06418496
v -0.01189140 0.04204856 -0.06418496
v -0.01189140 0.04205514 -0.01006789
v -0.00897938 0.04278998 -0.02949468
v -0.00898473 0.04279129 -0.00515945
v -0.02160348 0.03803518 -0.06002165
v -0.02160615 0.03803255 -0.06556878
v -0.02281481 0.03738184 -0.00515945
v -0.02160348 0.03804307 -0.01006789
v -0.02160348 0.03803913 -0.03504773
v -0.01189408 0.04204725 -0.06556878
v -0.01328190 0.04166865 -0.06556878
v -0.01327922 0.04166997 -0.06279522
v -0.01327922 0.04167654 -0.00729432
v -0.01189140 0.04205514 -0.00515945
v -0.02084405 0.03845059 -0.05169504
v -0.02014881 0.03882787 -0.06140547
v -0.02084405 0.03844796 -0.06556878
v -0.02160348 0.03804307 -0.00515945
v -0.02125585 0.03823237 -0.00515945
v -0.02015416 0.03883181 -0.00729432
v -0.02084940 0.03845322 -0.01284146
v -0.02015416 0.03883050 -0.02394163
v -0.01423118 0.04136367 -0.06556878
v -0.01423385 0.04136499 -0.05169504
v -0.01423920 0.04136762 -0.00867815
v -0.01327922 0.04167654 -0.00515945
v -0.01882784 0.03950224 -0.06140547
v -0.01883051 0.03949961 -0.06556878
v -0.02014613 0.03882787 -0.06418496
v -0.02014613 0.03882655 -0.06556878
v -0.02015416 0.03883181 -0.00515945
v -0.01882784 0.03950882 -0.01145763
v -0.01882784 0.03950487 -0.04197869
v -0.01882784 0.03950356 -0.05169504
v -0.01738921 0.04012535 -0.06556878
v -0.01808446 0.03985455 -0.05863191
v -0.01605219 0.04065117 -0.05863191
v -0.01605219 0.04065249 -0.04891556
v -0.01493178 0.04109419 -0.02949468
v -0.01493445 0.04109550 -0.01006789
v -0.01423920 0.04136630 -0.02116807
v -0.01423920 0.04136762 -0.00515945
v -0.01808446 0.03985192 -0.06556878
v -0.01882784 0.03950882 -0.00515945
v -0.01809248 0.03985718 -0.00729432
v -0.01808980 0.03985718 -0.01700476
v -0.01739723 0.04012929 -0.01562094
v -0.01605219 0.04065775 -0.00590458
v -0.01493445 0.04109550 -0.00515945
v -0.01809248 0.03985718 -0.00515945
v -0.01771811 0.04000441 -0.00515945
v -0.01605219 0.04065775 -0.00515945
f 1 2 7
f 1 7 13
f 1 13 23
f 1 23 24
f 1 24 14
f 1 14 8
f 1 8 3
f 1 3 9
f 1 9 4
f 1 4 10
f 1 10 17
f 1 17 30
f 1 30 47
f 1 47 61
f 1 61 60
f 1 60 74
f 1 74 87
f 1 87 97
f 1 97 109
f 1 109 125
f 1 125 132
f 1 132 135
f 1 135 134
f 1 134 133
f 1 133 127
f 1 127 114
f 1 114 102
f 1 102 101
f 1 101 90
f 1 90 80
f 1 80 79
f 1 79 65
f 1 65 68
f 1 68 53
f 1 53 48
f 1 48 32
f 1 32 18
f 1 18 11
f 1 11 5
f 1 5 2
f 2 5 6
f 2 6 7
f 3 8 9
f 4 9 16
f 4 16 10
f 5 11 19
f 5 19 31
f 5 31 35
f 5 35 20
f 5 20 12
f 5 12 6
f 6 12 21
f 6 21 38
f 6 38 52
f 6 52 67
f 6 67 77
f 6 77 89
f 6 89 100
f 6 100 113
f 6 113 111
f 6 111 126
f 6 126 118
f 6 118 106
f 6 106 94
f 6 94 93
f 6 93 82
f 6 82 70
f 6 70 55
f 6 55 42
f 6 42 54
f 6 54 39
f 6 39 22
f 6 22 13
f 6 13 7
f 8 14 15
f 8 15 9
f 9 15 16
f 10 16 28
f 10 28 17
f 11 18 19
f 12 20 21
f 13 22 23
f 14 24 15
f 15 24 25
f 15 25 26
f 15 26 16
f 16 27 28
f 16 26 29
f 16 29 27
f 17 28 30
f 18 31 19
f 18 32 33
f 18 33 34
f 18 34 20
f 18 20 35
f 18 35 31
f 20 34 36
f 20 36 21
f 21 37 38
f 21 36 37
f 22 39 40
f 22 40 41
f 22 41 23
f 23 41 25
f 23 25 24
f 25 41 40
f 25 40 26
f 26 40 29
f 27 29 42
f 27 42 28
f 28 43 44
f 28 44 30
f 28 42 43
f 29 40 45
f 29 45 46
f 29 46 42
f 30 44 47
f 32 48 49
f 32 49 33
f 33 49 34
f 34 50 37
f 34 37 36
f 34 49 50
f 37 51 52
f 37 52 38
f 37 50 53
f 37 53 51
f 39 54 45
f 39 45 40
f 42 46 45
f 42 45 54
f 42 55 56
f 42 56 57
f 42 57 58
f 42 58 59
f 42 59 60
f 42 60 43
f 43 60 44
f 44 60 61
f 44 61 47
f 48 53 49
f 49 53 62
f 49 62 50
f 50 62 53
f 51 63 52
f 51 53 64
f 51 64 65
f 51 65 66
f 51 66 63
f 52 63 67
f 53 68 69
f 53 69 64
f 55 70 56
f 56 70 71
f 56 71 57
f 57 71 72
f 57 72 58
f 58 72 59
f 59 73 60
f 59 72 73
f 60 73 74
f 63 75 76
f 63 76 77
f 63 77 78
f 63 78 67
f 63 66 75
f 64 69 65
f 65 69 68
f 65 79 66
f 66 79 80
f 66 80 81
f 66 81 75
f 67 78 77
f 70 82 71
f 71 82 83
f 71 83 72
f 72 83 84
f 72 84 85
f 72 85 86
f 72 86 73
f 73 87 74
f 73 86 87
f 75 88 76
f 75 81 88
f 76 88 89
f 76 89 77
f 80 90 81
f 81 90 101
f 81 101 91
f 81 91 92
f 81 92 88
f 82 93 84
f 82 84 83
f 84 93 94
f 84 94 95
f 84 95 85
f 85 96 109
f 85 109 97
f 85 97 87
f 85 87 86
f 85 95 96
f 88 98 99
f 88 99 89
f 88 92 98
f 89 99 100
f 91 101 102
f 91 102 103
f 91 103 104
f 91 104 105
f 91 105 99
f 91 99 98
f 91 98 92
f 94 106 95
f 95 106 107
f 95 107 96
f 96 108 125
f 96 125 109
f 96 107 108
f 99 110 111
f 99 111 112
f 99 112 100
f 99 105 110
f 100 112 113
f 102 114 103
f 103 114 127
f 103 127 115
f 103 115 105
f 103 105 104
f 105 115 116
f 105 116 117
f 105 117 110
f 106 118 119
f 106 119 120
f 106 120 107
f 107 120 119
f 107 119 121
f 107 121 122
f 107 122 123
f 107 123 124
f 107 124 108
f 108 124 123
f 108 123 132
f 108 132 125
f 110 117 119
f 110 119 111
f 111 113 112
f 111 119 126
f 115 127 133
f 115 133 128
f 115 128 119
f 115 119 116
f 116 119 117
f 118 126 119
f 119 128 129
f 119 129 130
f 119 130 122
f 119 122 121
f 122 130 123
f 123 130 131
f 123 131 135
f 123 135 132
f 128 133 134
f 128 134 130
f 128 130 129
f 130 134 131
f 131 134 135

