# https://github.com/mikedh/trimesh
v -0.00349928 -0.01768942 0.06039515
v -0.00349928 -0.01768942 0.05942058
v -0.00777544 -0.01768942 0.06157283
v 0.00751388 -0.01966996 0.06012414
v -0.00497813 -0.01768942 0.05898451
v 0.00751388 -0.01966996 0.05969861
v 0.00710308 -0.02255417 0.06141479
v 0.00751388 -0.02205527 0.06114788
v -0.03132364 -0.01768942 0.06439411
v -0.03034947 -0.01803583 0.06440288
v -0.00636700 -0.01768942 0.05887915
v 0.00751388 -0.02047762 0.05916245
v 0.00751388 -0.02049268 0.05915250
v 0.00751388 -0.02309637 0.06152249
v -0.03237214 -0.01768942 0.06368586
v -0.03189483 -0.01828246 0.06397384
v -0.03090502 -0.01910517 0.06437186
v -0.03130799 -0.01769695 0.06439469
v -0.02990347 -0.01912211 0.06442162
v 0.00475961 -0.03575525 0.06345934
v 0.00614848 -0.03575525 0.06339027
v 0.00751388 -0.03453718 0.06319184
v 0.00751388 -0.03451647 0.06318891
v 0.00751388 -0.02315285 0.06153478
v -0.00775587 -0.01768942 0.05883642
v 0.00751388 -0.02188018 0.05887798
v -0.03245429 -0.01768942 0.06349914
v -0.03240735 -0.01777791 0.06350031
v -0.03211392 -0.01857426 0.06304902
v -0.03082677 -0.02007850 0.06348392
v -0.03065072 -0.01983940 0.06421148
v -0.02938704 -0.02139634 0.06432211
v -0.02811945 -0.02295141 0.06438884
v -0.02856546 -0.02186700 0.06440464
v -0.02576816 -0.02470979 0.06439000
v 0.00337465 -0.03575525 0.06349738
v -0.00078805 -0.03692061 0.06320472
v 0.00059691 -0.03690742 0.06316667
v -0.02444188 -0.02613683 0.06436426
v 0.00337465 -0.03676058 0.06308883
v 0.00475961 -0.03668716 0.06304142
v 0.00614848 -0.03660432 0.06297293
v 0.00751388 -0.03577031 0.06327379
v 0.00751388 -0.03575525 0.06328081
v -0.02887062 -0.01768942 0.05844250
v 0.00751388 -0.02326769 0.05881945
v -0.03237605 -0.01768942 0.06212479
v -0.03209828 -0.01855544 0.06209611
v -0.02924620 -0.02258806 0.06281665
v -0.02923838 -0.02257864 0.06139957
v -0.02924620 -0.02258806 0.06209611
v -0.03031426 -0.02077131 0.06348392
v -0.02651932 -0.02543273 0.06424133
v -0.02525564 -0.02693319 0.06433557
v -0.02573686 -0.02595422 0.06437128
v 0.00198578 -0.03575525 0.06351787
v -0.02429713 -0.02740762 0.06433909
v -0.00078805 -0.03692061 0.06236712
v 0.00059691 -0.03575525 0.06353543
v -0.00078805 -0.03575525 0.06353953
v -0.00495466 -0.03575525 0.06344002
v -0.00217692 -0.03684153 0.06318657
v 0.00059691 -0.03690742 0.06238233
v 0.00337465 -0.03676058 0.06241160
v 0.00475961 -0.03668716 0.06246018
v 0.00614848 -0.03660432 0.06254623
v 0.00751388 -0.03652149 0.06288220
v -0.03013821 -0.01768942 0.05844250
v 0.00751388 -0.03328899 0.05844250
v -0.03237214 -0.01768942 0.06209728
v -0.03202394 -0.01843871 0.06139196
v -0.02955136 -0.02186700 0.06336100
v -0.02800600 -0.02417136 0.06209611
v -0.02675797 -0.02575466 0.06209611
v -0.02620242 -0.02644935 0.06209611
v -0.02613982 -0.02631004 0.06348392
v -0.02922273 -0.02117796 0.05844250
v -0.02870239 -0.02192537 0.05844250
v -0.02819379 -0.02263889 0.05844250
v -0.02776343 -0.02323568 0.05844250
v -0.02752478 -0.02356515 0.05844250
v -0.02673058 -0.02464390 0.05844250
v -0.02632370 -0.02517669 0.05844250
v -0.02544343 -0.02712334 0.06348392
v -0.02466097 -0.02781615 0.06348392
v -0.02378461 -0.02819456 0.06423665
v -0.00078805 -0.03608471 0.05844250
v -0.00217692 -0.03684153 0.06236478
v -0.00217692 -0.03609224 0.05844250
v -0.00633962 -0.03575525 0.06337798
v -0.00772849 -0.03575525 0.06326208
v -0.00356579 -0.03675305 0.06311399
v -0.00495466 -0.03666833 0.06303146
v -0.00633962 -0.03658361 0.06294308
v 0.00059691 -0.03602447 0.05844250
v 0.00198578 -0.03594163 0.05844250
v 0.00333162 -0.03585503 0.05844250
v 0.00389890 -0.03581549 0.05844250
v 0.00540905 -0.03570442 0.05844250
v 0.00751388 -0.03554063 0.05844250
v 0.00751388 -0.03652149 0.06266563
v -0.03124539 -0.01769507 0.05844250
v -0.03083851 -0.01768942 0.05913260
v -0.03206306 -0.01768942 0.06139079
v -0.02992694 -0.01998436 0.05844250
v -0.02971176 -0.02035713 0.05844250
v -0.02961005 -0.02053033 0.05844250
v -0.02550994 -0.02716664 0.06209611
v -0.02563122 -0.02591280 0.05844250
v -0.02472748 -0.02785945 0.06209611
v -0.02241922 -0.02960466 0.06302503
v -0.02396849 -0.02833388 0.06348392
v -0.01840910 -0.03247757 0.06297176
v -0.01563918 -0.03378224 0.06290503
v -0.01466110 -0.03394980 0.06302854
v -0.01050232 -0.03543520 0.06305956
v -0.00633962 -0.03658361 0.06251579
v -0.00495466 -0.03666833 0.06242799
v -0.00356579 -0.03675305 0.06238468
v -0.00356579 -0.03599246 0.05844250
v -0.00898825 -0.03581738 0.06307712
v -0.00843662 -0.03645183 0.06279324
v -0.00772849 -0.03649701 0.06284592
v -0.02489962 -0.02660938 0.05844250
v -0.02403500 -0.02836023 0.06209611
v -0.02241922 -0.02960466 0.06245960
v -0.01840910 -0.03247757 0.06254916
v -0.01563918 -0.03378224 0.06260944
v -0.01261496 -0.03507373 0.06280436
v -0.01189119 -0.03519234 0.06290913
v -0.00772849 -0.03649701 0.06267558
v -0.00843662 -0.03645183 0.06278153
v -0.00492727 -0.03580796 0.05844250
v -0.02435972 -0.02699344 0.05844250
v -0.02020094 -0.02980422 0.05844250
v -0.01814306 -0.03117855 0.05844250
v -0.01743493 -0.03163979 0.05844250
v -0.01657422 -0.03217070 0.05844250
v -0.01655466 -0.03218200 0.05844250
v -0.01583088 -0.03253217 0.05844250
v -0.02414063 -0.02714405 0.05844250
v -0.02291999 -0.02797241 0.05844250
v -0.02229402 -0.02839601 0.05844250
v -0.01466110 -0.03303860 0.05844250
v -0.01319399 -0.03364669 0.05844250
v -0.01261496 -0.03507373 0.06275987
v -0.01131216 -0.03437151 0.05844250
v -0.01052579 -0.03461437 0.05844250
v -0.00898434 -0.03502290 0.05844250
v -0.00858528 -0.03512645 0.05844250
v -0.00825665 -0.03521117 0.05844250
v -0.00772849 -0.03533542 0.05844250
v -0.00711817 -0.03545779 0.05844250
v -0.00633962 -0.03559146 0.05844250
v -0.01255628 -0.03390461 0.05844250
v -0.01183250 -0.03419078 0.05844250
f 1 2 5
f 1 5 11
f 1 11 25
f 1 25 45
f 1 45 68
f 1 68 103
f 1 103 104
f 1 104 70
f 1 70 47
f 1 47 27
f 1 27 15
f 1 15 9
f 1 9 3
f 1 3 4
f 1 4 6
f 1 6 2
f 2 6 5
f 3 7 8
f 3 8 4
f 3 9 10
f 3 10 7
f 4 8 14
f 4 14 24
f 4 24 23
f 4 23 22
f 4 22 44
f 4 44 43
f 4 43 67
f 4 67 101
f 4 101 100
f 4 100 69
f 4 69 46
f 4 46 26
f 4 26 13
f 4 13 12
f 4 12 6
f 5 6 12
f 5 12 13
f 5 13 11
f 7 14 8
f 7 10 14
f 9 15 16
f 9 16 17
f 9 17 18
f 9 18 10
f 10 18 19
f 10 19 20
f 10 20 21
f 10 21 22
f 10 22 23
f 10 23 24
f 10 24 14
f 11 13 26
f 11 26 25
f 15 27 28
f 15 28 16
f 16 28 29
f 16 29 30
f 16 30 31
f 16 31 17
f 17 19 18
f 17 31 32
f 17 32 33
f 17 33 34
f 17 34 19
f 19 34 35
f 19 35 20
f 20 36 37
f 20 37 38
f 20 38 21
f 20 35 39
f 20 39 36
f 21 38 40
f 21 40 41
f 21 41 42
f 21 42 43
f 21 43 44
f 21 44 22
f 25 26 45
f 26 46 45
f 27 47 48
f 27 48 29
f 27 29 28
f 29 49 30
f 29 48 50
f 29 50 51
f 29 51 49
f 30 49 52
f 30 52 53
f 30 53 31
f 31 53 32
f 32 53 54
f 32 54 33
f 33 54 55
f 33 55 34
f 34 55 35
f 35 55 39
f 36 56 37
f 36 39 57
f 36 57 56
f 37 58 63
f 37 63 38
f 37 56 59
f 37 59 60
f 37 60 61
f 37 61 62
f 37 62 88
f 37 88 58
f 38 63 64
f 38 64 40
f 39 55 57
f 40 64 65
f 40 65 41
f 41 65 66
f 41 66 42
f 42 66 101
f 42 101 67
f 42 67 43
f 45 46 69
f 45 69 100
f 45 100 99
f 45 99 98
f 45 98 97
f 45 97 96
f 45 96 95
f 45 95 87
f 45 87 89
f 45 89 120
f 45 120 133
f 45 133 154
f 45 154 153
f 45 153 152
f 45 152 151
f 45 151 150
f 45 150 149
f 45 149 148
f 45 148 147
f 45 147 156
f 45 156 155
f 45 155 145
f 45 145 144
f 45 144 140
f 45 140 139
f 45 139 138
f 45 138 137
f 45 137 136
f 45 136 135
f 45 135 143
f 45 143 142
f 45 142 141
f 45 141 134
f 45 134 124
f 45 124 109
f 45 109 83
f 45 83 82
f 45 82 81
f 45 81 80
f 45 80 79
f 45 79 78
f 45 78 77
f 45 77 107
f 45 107 106
f 45 106 105
f 45 105 102
f 45 102 68
f 47 70 48
f 48 70 71
f 48 71 50
f 49 72 52
f 49 51 73
f 49 73 74
f 49 74 75
f 49 75 76
f 49 76 53
f 49 53 72
f 50 73 51
f 50 71 77
f 50 77 78
f 50 78 79
f 50 79 80
f 50 80 81
f 50 81 82
f 50 82 83
f 50 83 75
f 50 75 74
f 50 74 73
f 52 72 53
f 53 76 54
f 54 76 84
f 54 84 85
f 54 85 86
f 54 86 57
f 54 57 55
f 56 57 59
f 57 86 60
f 57 60 59
f 58 87 63
f 58 88 89
f 58 89 87
f 60 86 61
f 61 90 62
f 61 86 90
f 62 90 91
f 62 91 92
f 62 92 93
f 62 93 94
f 62 94 117
f 62 117 88
f 63 95 64
f 63 87 95
f 64 95 96
f 64 96 65
f 65 96 97
f 65 97 98
f 65 98 99
f 65 99 66
f 66 99 100
f 66 100 101
f 68 102 103
f 70 104 102
f 70 102 71
f 71 102 105
f 71 105 106
f 71 106 107
f 71 107 77
f 75 108 84
f 75 84 76
f 75 83 109
f 75 109 108
f 84 108 110
f 84 110 85
f 85 110 111
f 85 111 112
f 85 112 86
f 86 112 111
f 86 111 113
f 86 113 114
f 86 114 115
f 86 115 116
f 86 116 91
f 86 91 90
f 88 117 118
f 88 118 119
f 88 119 89
f 89 119 118
f 89 118 120
f 91 116 121
f 91 121 122
f 91 122 123
f 91 123 94
f 91 94 93
f 91 93 92
f 94 123 131
f 94 131 117
f 102 104 103
f 108 109 124
f 108 124 110
f 110 124 125
f 110 125 126
f 110 126 111
f 111 126 127
f 111 127 113
f 113 127 128
f 113 128 114
f 114 128 146
f 114 146 129
f 114 129 130
f 114 130 115
f 115 130 116
f 116 122 121
f 116 130 122
f 117 131 120
f 117 120 118
f 120 131 132
f 120 132 133
f 122 130 129
f 122 129 146
f 122 146 132
f 122 132 131
f 122 131 123
f 124 134 125
f 125 134 127
f 125 127 126
f 127 135 136
f 127 136 137
f 127 137 138
f 127 138 139
f 127 139 140
f 127 140 128
f 127 134 141
f 127 141 142
f 127 142 143
f 127 143 135
f 128 140 144
f 128 144 145
f 128 145 146
f 132 147 148
f 132 148 149
f 132 149 150
f 132 150 151
f 132 151 152
f 132 152 153
f 132 153 154
f 132 154 133
f 132 146 147
f 145 155 146
f 146 155 156
f 146 156 147

