# https://github.com/mikedh/trimesh
v 0.03757971 -0.02317878 0.03989087
v 0.03453634 -0.02317878 0.03989087
v 0.03722651 -0.02373338 0.03989087
v 0.03757971 -0.02317878 0.02156923
v 0.03453634 -0.02317878 0.03919667
v 0.00751682 -0.04116214 0.03989087
v 0.03663786 -0.02465504 0.03989087
v 0.03722651 -0.02373338 0.03711407
v 0.03663786 -0.02465504 0.03711407
v 0.03609040 -0.02551216 0.03711407
v 0.03608746 -0.02550812 -0.00173484
v 0.03757677 -0.02317878 0.00103757
v 0.00751682 -0.04116214 0.03850247
v 0.03453928 -0.02317878 0.01491720
v 0.00751682 -0.04377988 0.03989087
v 0.03609040 -0.02551216 0.03989087
v 0.03561359 -0.02620592 0.03156485
v 0.03561359 -0.02620390 0.01630561
v 0.03561064 -0.02620188 -0.00173484
v 0.03561064 -0.02619987 -0.00499495
v 0.03591969 -0.02574812 -0.00499495
v 0.03608452 -0.02550611 -0.00499495
v 0.03627583 -0.02521166 -0.00499495
v 0.03757383 -0.02317878 -0.00499495
v 0.00751682 -0.04116415 0.02046203
v 0.03454223 -0.02317878 -0.00499495
v 0.00754037 -0.04377584 0.03434165
v 0.00754037 -0.04377584 0.03989087
v 0.00751682 -0.04377584 0.00656482
v 0.00754037 -0.04377181 -0.00034643
v 0.03561359 -0.02620592 0.03989087
v 0.03491897 -0.02712556 0.02046203
v 0.03491897 -0.02712354 0.00659118
v 0.03515738 -0.02680288 -0.00499495
v 0.00751682 -0.04116617 0.00242598
v 0.00751682 -0.04116819 -0.00499495
v 0.00880304 -0.04353182 0.02323883
v 0.00880599 -0.04353182 0.03295325
v 0.00879716 -0.04352980 -0.00499495
v 0.00880599 -0.04353182 0.03989087
v 0.00751682 -0.04377383 -0.00499495
v 0.00754037 -0.04376980 -0.00499495
v 0.03491897 -0.02712556 0.03989087
v 0.03365041 -0.02865224 0.03156485
v 0.03434208 -0.02781932 0.01907362
v 0.03434208 -0.02781730 0.00242598
v 0.03471588 -0.02736353 -0.00499495
v 0.03491602 -0.02712152 -0.00499495
v 0.01031590 -0.04315065 0.03017645
v 0.01031590 -0.04314662 -0.00499495
v 0.01031590 -0.04314864 0.01214040
v 0.01031590 -0.04315065 0.03989087
v 0.03365041 -0.02865224 0.03989087
v 0.03307057 -0.02934600 0.02323883
v 0.03307057 -0.02934398 0.01075200
v 0.03364746 -0.02865022 0.00242598
v 0.03364746 -0.02864820 -0.00499495
v 0.01170220 -0.04279974 0.02323883
v 0.01170220 -0.04279570 -0.00499495
v 0.01170220 -0.04279772 0.00797959
v 0.01170220 -0.04279974 0.03989087
v 0.03307057 -0.02934600 0.03989087
v 0.03237890 -0.03015673 0.03989087
v 0.03237595 -0.03015270 0.00103757
v 0.03306763 -0.02934196 -0.00499495
v 0.01309143 -0.04242261 0.03017645
v 0.01309143 -0.04241656 -0.00499495
v 0.01309143 -0.04241857 0.00242598
v 0.01309143 -0.04242261 0.03989087
v 0.03177258 -0.03085049 0.03989087
v 0.03177258 -0.03085049 0.03572566
v 0.03177258 -0.03084848 0.01768961
v 0.03176963 -0.03084646 -0.00499495
v 0.03237301 -0.03015270 -0.00499495
v 0.01406567 -0.04211001 0.03156485
v 0.01405978 -0.04210799 -0.00034643
v 0.01372130 -0.04221488 -0.00499495
v 0.01406567 -0.04211001 0.03989087
v 0.03107796 -0.03150190 0.03989087
v 0.03107796 -0.03150190 0.03295325
v 0.03107796 -0.03149989 0.00936359
v 0.03131637 -0.03127199 -0.00499495
v 0.01586697 -0.04140415 0.03295325
v 0.01405684 -0.04210598 -0.00499495
v 0.01429819 -0.04201320 -0.00499495
v 0.01475146 -0.04183573 -0.00499495
v 0.01721795 -0.04086971 -0.00034643
v 0.01722089 -0.04087172 0.02046203
v 0.01586697 -0.04140415 0.03989087
v 0.03033625 -0.03219567 0.03989087
v 0.03033330 -0.03219365 0.00659118
v 0.02963868 -0.03283901 -0.00451164
v 0.03107502 -0.03149787 -0.00499495
v 0.01791551 -0.04059946 0.02185043
v 0.01791845 -0.04059946 0.03989087
v 0.01790962 -0.04059745 -0.00499495
v 0.02964163 -0.03284304 0.03989087
v 0.02889403 -0.03353076 -0.00499495
v 0.02937967 -0.03307900 -0.00499495
v 0.02987709 -0.03261515 -0.00499495
v 0.02889697 -0.03353479 0.03850247
v 0.01864250 -0.04025460 0.02185043
v 0.01864250 -0.04025662 0.03711407
v 0.01864250 -0.04025057 -0.00499495
v 0.01864250 -0.04025258 0.00659118
v 0.01864250 -0.04025662 0.03989087
v 0.02889697 -0.03353479 0.03989087
v 0.02819941 -0.03414385 -0.00499495
v 0.02820235 -0.03414586 0.01768961
v 0.02820235 -0.03414788 0.03572566
v 0.01997582 -0.03957294 0.01768961
v 0.01997582 -0.03957495 0.03711407
v 0.01997288 -0.03957092 -0.00499495
v 0.01997288 -0.03957294 0.00659118
v 0.01997582 -0.03957495 0.03989087
v 0.02820235 -0.03414788 0.03989087
v 0.02736057 -0.03483761 -0.00499495
v 0.02736351 -0.03484164 0.03572566
v 0.02736351 -0.03483963 0.02185043
v 0.02067044 -0.03919581 0.02462723
v 0.02141804 -0.03878842 0.02739964
v 0.02066455 -0.03919379 -0.00499495
v 0.02141804 -0.03878439 -0.00173484
v 0.02066750 -0.03919379 -0.00034643
v 0.02141804 -0.03878842 0.03989087
v 0.02736351 -0.03484164 0.03989087
v 0.02690730 -0.03517037 -0.00499495
v 0.02666889 -0.03534986 0.03572566
v 0.02666889 -0.03534784 0.01491720
v 0.02141804 -0.03878640 0.01214040
v 0.02263362 -0.03812289 0.03156485
v 0.02263068 -0.03812289 0.01214040
v 0.02220979 -0.03835079 -0.00499495
v 0.02263362 -0.03812289 0.03989087
v 0.02666889 -0.03534986 0.03989087
v 0.02666595 -0.03534583 -0.00499495
v 0.02570937 -0.03604363 0.03434165
v 0.02570643 -0.03604161 0.00936359
v 0.02332824 -0.03773770 0.03850247
v 0.02262774 -0.03812088 -0.00499495
v 0.02332236 -0.03773366 -0.00499495
v 0.02332530 -0.03773568 0.01630561
v 0.02332824 -0.03773770 0.03989087
v 0.02570937 -0.03604363 0.03989087
v 0.02501181 -0.03654176 0.00381438
v 0.02472631 -0.03674545 -0.00499495
v 0.02419063 -0.03713872 0.03850247
v 0.02501475 -0.03654378 0.02878805
v 0.02419063 -0.03713267 0.00103757
v 0.02419063 -0.03713065 -0.00499495
v 0.02419063 -0.03713872 0.03989087
f 1 2 6
f 1 6 15
f 1 15 28
f 1 28 40
f 1 40 52
f 1 52 61
f 1 61 69
f 1 69 78
f 1 78 89
f 1 89 95
f 1 95 106
f 1 106 115
f 1 115 125
f 1 125 134
f 1 134 143
f 1 143 151
f 1 151 144
f 1 144 135
f 1 135 126
f 1 126 116
f 1 116 107
f 1 107 97
f 1 97 90
f 1 90 79
f 1 79 70
f 1 70 63
f 1 63 62
f 1 62 53
f 1 53 43
f 1 43 31
f 1 31 16
f 1 16 7
f 1 7 3
f 1 3 8
f 1 8 4
f 1 4 12
f 1 12 24
f 1 24 26
f 1 26 14
f 1 14 5
f 1 5 2
f 2 5 13
f 2 13 6
f 3 7 9
f 3 9 8
f 4 8 9
f 4 9 10
f 4 10 11
f 4 11 12
f 5 14 13
f 6 13 25
f 6 25 35
f 6 35 36
f 6 36 41
f 6 41 29
f 6 29 15
f 7 16 10
f 7 10 9
f 10 16 31
f 10 31 17
f 10 17 18
f 10 18 11
f 11 19 20
f 11 20 21
f 11 21 22
f 11 22 23
f 11 23 12
f 11 18 19
f 12 23 24
f 13 14 26
f 13 26 25
f 15 27 28
f 15 29 30
f 15 30 27
f 17 31 43
f 17 43 32
f 17 32 18
f 18 32 33
f 18 33 19
f 19 33 34
f 19 34 20
f 20 34 48
f 20 48 47
f 20 47 57
f 20 57 65
f 20 65 74
f 20 74 73
f 20 73 82
f 20 82 93
f 20 93 100
f 20 100 99
f 20 99 98
f 20 98 108
f 20 108 117
f 20 117 127
f 20 127 136
f 20 136 146
f 20 146 150
f 20 150 141
f 20 141 140
f 20 140 133
f 20 133 122
f 20 122 113
f 20 113 104
f 20 104 96
f 20 96 86
f 20 86 85
f 20 85 84
f 20 84 77
f 20 77 67
f 20 67 59
f 20 59 50
f 20 50 39
f 20 39 42
f 20 42 41
f 20 41 36
f 20 36 26
f 20 26 24
f 20 24 23
f 20 23 22
f 20 22 21
f 25 26 35
f 26 36 35
f 27 37 38
f 27 38 40
f 27 40 28
f 27 30 39
f 27 39 37
f 29 41 30
f 30 41 42
f 30 42 39
f 32 43 53
f 32 53 44
f 32 44 45
f 32 45 46
f 32 46 33
f 33 46 47
f 33 47 48
f 33 48 34
f 37 49 38
f 37 39 50
f 37 50 51
f 37 51 49
f 38 49 52
f 38 52 40
f 44 53 62
f 44 62 54
f 44 54 55
f 44 55 46
f 44 46 45
f 46 55 56
f 46 56 57
f 46 57 47
f 49 51 58
f 49 58 61
f 49 61 52
f 50 59 60
f 50 60 58
f 50 58 51
f 54 62 63
f 54 63 55
f 55 64 65
f 55 65 57
f 55 57 56
f 55 63 64
f 58 66 69
f 58 69 61
f 58 60 66
f 59 67 68
f 59 68 60
f 60 68 66
f 63 70 71
f 63 71 72
f 63 72 64
f 64 73 74
f 64 74 65
f 64 72 73
f 66 75 78
f 66 78 69
f 66 68 76
f 66 76 75
f 67 77 76
f 67 76 68
f 70 79 80
f 70 80 71
f 71 80 81
f 71 81 72
f 72 81 73
f 73 81 82
f 75 83 89
f 75 89 78
f 75 76 83
f 76 77 84
f 76 84 85
f 76 85 86
f 76 86 96
f 76 96 87
f 76 87 88
f 76 88 83
f 79 90 80
f 80 90 81
f 81 91 92
f 81 92 93
f 81 93 82
f 81 90 91
f 83 88 94
f 83 94 95
f 83 95 89
f 87 96 94
f 87 94 88
f 90 97 91
f 91 97 92
f 92 98 99
f 92 99 100
f 92 100 93
f 92 97 101
f 92 101 98
f 94 102 103
f 94 103 95
f 94 96 104
f 94 104 105
f 94 105 102
f 95 103 106
f 97 107 101
f 98 101 109
f 98 109 108
f 101 107 116
f 101 116 110
f 101 110 109
f 102 111 103
f 102 105 111
f 103 112 115
f 103 115 106
f 103 111 112
f 104 113 114
f 104 114 105
f 105 114 111
f 108 109 117
f 109 110 118
f 109 118 119
f 109 119 117
f 110 116 126
f 110 126 118
f 111 120 112
f 111 114 120
f 112 120 121
f 112 121 125
f 112 125 115
f 113 122 123
f 113 123 124
f 113 124 114
f 114 124 120
f 117 119 127
f 118 126 135
f 118 135 128
f 118 128 129
f 118 129 127
f 118 127 119
f 120 124 130
f 120 130 121
f 121 131 134
f 121 134 125
f 121 130 132
f 121 132 131
f 122 133 123
f 123 133 130
f 123 130 124
f 127 129 136
f 128 135 144
f 128 144 137
f 128 137 129
f 129 138 136
f 129 137 138
f 130 133 132
f 131 139 143
f 131 143 134
f 131 132 139
f 132 133 140
f 132 140 141
f 132 141 142
f 132 142 139
f 136 145 146
f 136 138 145
f 137 144 151
f 137 151 147
f 137 147 148
f 137 148 138
f 138 148 145
f 139 147 151
f 139 151 143
f 139 142 149
f 139 149 147
f 141 150 149
f 141 149 142
f 145 149 146
f 145 148 149
f 146 149 150
f 147 149 148

