# https://github.com/mikedh/trimesh
v 0.06515157 -0.05161629 0.01633059
v 0.05360307 -0.05314334 0.01633059
v 0.06515157 -0.05399127 0.01633059
v 0.06515157 -0.05422715 0.00079117
v 0.05360307 -0.05467878 0.01633059
v 0.05360307 -0.05592637 0.00079117
v 0.06509730 -0.05404437 0.01633059
v 0.06515157 -0.05401140 0.01625758
v 0.06515157 -0.05597499 0.00079117
v 0.05383594 -0.05467767 0.01633059
v 0.05360307 -0.05534338 0.01426495
v 0.05360307 -0.05732598 0.00079117
v 0.06515157 -0.05408853 0.01594271
v 0.06508713 -0.05404773 0.01633059
v 0.06353505 -0.05534561 0.01283818
v 0.06378601 -0.05543505 0.01193161
v 0.06452192 -0.05513880 0.01193161
v 0.06493905 -0.05533387 0.00990096
v 0.06515157 -0.05526512 0.00968344
v 0.06343896 -0.05679386 0.00079117
v 0.06515157 -0.05597499 0.00165363
v 0.05532133 -0.05466648 0.01633059
v 0.05385064 -0.05534282 0.01426039
v 0.05360307 -0.05557143 0.01340250
v 0.05385064 -0.05556975 0.01340250
v 0.05385064 -0.05731536 0.00079117
v 0.05360307 -0.05729133 0.00163690
v 0.06414548 -0.05432385 0.01633059
v 0.05532133 -0.05591965 0.01193161
v 0.05360307 -0.05687043 0.00734249
v 0.06267479 -0.05595264 0.00898983
v 0.06334514 -0.05676367 0.00222708
v 0.05781846 -0.05532214 0.01418434
v 0.06414548 -0.05577209 0.00898983
v 0.06422462 -0.05553174 0.01041965
v 0.06515157 -0.05536741 0.00898983
v 0.06515157 -0.05542107 0.00862477
v 0.06343896 -0.05679386 0.00124750
v 0.06184958 -0.05691739 0.00079117
v 0.06515157 -0.05595152 0.00269710
v 0.05679202 -0.05464972 0.01633059
v 0.05679202 -0.05533108 0.01421780
v 0.05360307 -0.05595655 0.01193161
v 0.05385064 -0.05595543 0.01193161
v 0.05532133 -0.05555801 0.01340250
v 0.05594759 -0.05722145 0.00079117
v 0.06120410 -0.05695148 0.00163690
v 0.05679202 -0.05714879 0.00163690
v 0.05679202 -0.05708787 0.00310779
v 0.05360307 -0.05716948 0.00457868
v 0.05972097 -0.05459326 0.01633059
v 0.05360307 -0.05704930 0.00604957
v 0.05385064 -0.05703253 0.00604957
v 0.06236505 -0.05681622 0.00260887
v 0.06278331 -0.05684360 0.00169622
v 0.06515157 -0.05587774 0.00411323
v 0.06515157 -0.05574135 0.00601915
v 0.06414548 -0.05595319 0.00752046
v 0.05824915 -0.05462792 0.01633059
v 0.06515157 -0.05556696 0.00752046
v 0.06120410 -0.05696098 0.00079117
v 0.05888897 -0.05708954 0.00079117
v 0.05826271 -0.05701576 0.00310779
v 0.05385064 -0.05715829 0.00457868
v 0.06035854 -0.05701799 0.00079117
v 0.05532133 -0.05707780 0.00457868
f 1 2 5
f 1 5 10
f 1 10 22
f 1 22 41
f 1 41 59
f 1 59 51
f 1 51 28
f 1 28 14
f 1 14 7
f 1 7 3
f 1 3 8
f 1 8 13
f 1 13 19
f 1 19 36
f 1 36 37
f 1 37 60
f 1 60 57
f 1 57 56
f 1 56 40
f 1 40 21
f 1 21 9
f 1 9 4
f 1 4 2
f 2 4 6
f 2 6 12
f 2 12 27
f 2 27 50
f 2 50 52
f 2 52 30
f 2 30 43
f 2 43 24
f 2 24 11
f 2 11 5
f 3 7 8
f 4 9 20
f 4 20 39
f 4 39 61
f 4 61 65
f 4 65 62
f 4 62 46
f 4 46 26
f 4 26 12
f 4 12 6
f 5 11 10
f 7 13 8
f 7 14 15
f 7 15 16
f 7 16 17
f 7 17 18
f 7 18 19
f 7 19 13
f 9 21 38
f 9 38 20
f 10 11 22
f 11 23 22
f 11 24 25
f 11 25 23
f 12 26 27
f 14 28 15
f 15 29 30
f 15 30 31
f 15 31 32
f 15 32 16
f 15 28 33
f 15 33 29
f 16 34 35
f 16 35 17
f 16 32 34
f 17 35 18
f 18 36 19
f 18 35 34
f 18 34 37
f 18 37 36
f 20 38 39
f 21 40 38
f 22 23 42
f 22 42 41
f 23 25 42
f 24 43 44
f 24 44 25
f 25 45 42
f 25 44 45
f 26 46 47
f 26 47 48
f 26 48 49
f 26 49 50
f 26 50 27
f 28 51 33
f 29 33 44
f 29 44 30
f 30 52 53
f 30 53 31
f 30 44 43
f 31 53 54
f 31 54 32
f 32 54 55
f 32 55 38
f 32 38 56
f 32 56 57
f 32 57 58
f 32 58 34
f 33 51 59
f 33 59 42
f 33 42 44
f 34 58 60
f 34 60 37
f 38 40 56
f 38 55 39
f 39 55 47
f 39 47 61
f 41 42 59
f 42 45 44
f 46 62 47
f 47 55 54
f 47 54 63
f 47 63 64
f 47 64 50
f 47 50 49
f 47 49 48
f 47 62 65
f 47 65 61
f 50 64 52
f 52 64 66
f 52 66 54
f 52 54 53
f 54 66 63
f 57 60 58
f 63 66 64

