# https://github.com/mikedh/trimesh
v 0.06488939 0.03684439 -0.02786980
v 0.06488939 0.03735523 -0.02704893
v 0.06489469 0.03735523 -0.02704893
v 0.06548310 0.03684439 -0.02768768
v 0.06488939 0.03684439 -0.02458089
v 0.06488939 0.04035509 -0.02127840
v 0.06547780 0.03760128 -0.02634766
v 0.06511070 0.04033554 -0.02124035
v 0.06551027 0.03684439 -0.02767137
v 0.06655723 0.03750677 -0.02588286
v 0.06925613 0.03684439 -0.00010167
v 0.06488939 0.04366455 -0.00010167
v 0.06488939 0.04184850 -0.01838906
v 0.06521871 0.04182488 -0.01833741
v 0.06560768 0.04061173 -0.02051189
v 0.06619941 0.04168718 -0.01815802
v 0.06614110 0.03684439 -0.02717668
v 0.06656717 0.03899611 -0.02297993
v 0.06933299 0.03738782 -0.02271356
v 0.06889300 0.03711977 -0.02369479
v 0.06905999 0.03684439 -0.02391768
v 0.07086897 0.03684439 -0.00010167
v 0.06488939 0.04516122 -0.00010167
v 0.06488939 0.04294677 -0.01597810
v 0.06514848 0.04324577 -0.01530401
v 0.06612917 0.04321074 -0.01523334
v 0.06567261 0.04210677 -0.01759265
v 0.06656584 0.04197397 -0.01717678
v 0.06656915 0.04048545 -0.02007700
v 0.07083319 0.03742448 -0.01983237
v 0.06958082 0.03684439 -0.02310768
v 0.07079210 0.03884701 -0.01680440
v 0.07087162 0.03687943 -0.00010167
v 0.07149516 0.03684439 -0.01013147
v 0.06556593 0.04499827 -0.00010167
v 0.06488939 0.04516366 -0.00130579
v 0.06488939 0.04324822 -0.01531217
v 0.06488939 0.04330118 -0.01510831
v 0.06488939 0.04472045 -0.00945466
v 0.06494637 0.04471963 -0.00944922
v 0.06647109 0.04332806 -0.01425211
v 0.06520414 0.04481822 -0.00866097
v 0.07104456 0.03763469 -0.01895442
v 0.07106643 0.03684439 -0.02021562
v 0.07067018 0.03684439 -0.02101203
v 0.07056416 0.03711651 -0.02081089
v 0.06957551 0.04055877 -0.01454294
v 0.07089879 0.03896189 -0.01601344
v 0.07117709 0.03812353 -0.01736977
v 0.07111613 0.03808768 -0.00277900
v 0.07101806 0.03808768 -0.00130579
v 0.07092132 0.03808768 -0.00010167
v 0.07154021 0.03808768 -0.01013147
v 0.07147329 0.03808768 -0.00866097
v 0.07129504 0.03808768 -0.00571999
v 0.07155943 0.03684439 -0.01160196
v 0.06630079 0.04461535 -0.00010167
v 0.06630410 0.04462431 -0.00130579
v 0.06556858 0.04499990 -0.00130579
v 0.06488939 0.04516611 -0.00277900
v 0.06488939 0.04473511 -0.00939486
v 0.06488939 0.04494369 -0.00822336
v 0.06824826 0.04211003 -0.01307245
v 0.06898312 0.04148187 -0.01307245
v 0.06593966 0.04453632 -0.00866097
v 0.06693228 0.04369877 -0.01013147
v 0.06749551 0.04299321 -0.01160196
v 0.06840796 0.04225831 -0.01160196
v 0.06547449 0.04495835 -0.00719048
v 0.07148058 0.03684439 -0.01895442
v 0.07031103 0.03986788 -0.01454294
v 0.07103794 0.03913217 -0.01454294
v 0.07138648 0.03808768 -0.01601344
v 0.07116251 0.03955909 -0.00424949
v 0.07105716 0.03955909 -0.00277900
v 0.07084909 0.03925275 -0.00010167
v 0.07119366 0.03955909 -0.00571999
v 0.07164292 0.03684439 -0.01601344
v 0.07165883 0.03684439 -0.01746762
v 0.07155479 0.03808768 -0.01160196
v 0.06644325 0.04452410 -0.00010167
v 0.06817935 0.04350649 -0.00277900
v 0.06822043 0.04351708 -0.00424949
v 0.06630476 0.04462268 -0.00277900
v 0.06556925 0.04500153 -0.00277900
v 0.06488939 0.04516774 -0.00424949
v 0.06488939 0.04508219 -0.00719048
v 0.06974780 0.04074779 -0.01307245
v 0.06934160 0.04181184 -0.00964493
v 0.06621001 0.04455832 -0.00719048
v 0.06720859 0.04371343 -0.00868272
v 0.06815550 0.04345598 -0.00571999
v 0.06799447 0.04335088 -0.00719048
v 0.06788315 0.04327674 -0.00820705
v 0.06872933 0.04277567 -0.00719048
v 0.06488939 0.04513189 -0.00654357
v 0.06553479 0.04500479 -0.00571999
v 0.07048332 0.03999661 -0.01307245
v 0.06953509 0.04203997 -0.00719048
v 0.07059398 0.04011230 -0.01160196
v 0.07111083 0.03926090 -0.01307245
v 0.07115125 0.03937741 -0.01160196
v 0.07146799 0.03808768 -0.01454294
v 0.07091734 0.04051478 -0.00424949
v 0.07085638 0.04043412 -0.00277900
v 0.07079542 0.04034531 -0.00178961
v 0.07090078 0.03962916 -0.00130307
v 0.07063241 0.03997624 -0.00010167
v 0.07069602 0.04016607 -0.00080838
v 0.07116583 0.03947599 -0.01013147
v 0.07152431 0.03808768 -0.01307245
v 0.06808194 0.04343561 -0.00010167
v 0.06812567 0.04346820 -0.00130579
v 0.06895529 0.04292151 -0.00424949
v 0.06629549 0.04460964 -0.00424949
v 0.06889035 0.04289299 -0.00571999
v 0.06627031 0.04458357 -0.00571999
v 0.06555997 0.04500316 -0.00424949
v 0.06488939 0.04516611 -0.00571999
v 0.06942775 0.04190716 -0.00866097
v 0.06961527 0.04215810 -0.00571999
v 0.07079277 0.04033146 -0.00822336
v 0.07084048 0.04039583 -0.00719048
v 0.07090343 0.04048789 -0.00571999
v 0.07036537 0.04124967 -0.00424949
v 0.06949335 0.04201715 -0.00010167
v 0.07011224 0.04100769 -0.00010167
v 0.06881680 0.04275286 -0.00010167
v 0.06886053 0.04280337 -0.00130579
v 0.06891421 0.04286366 -0.00277900
v 0.06962985 0.04218580 -0.00424949
v 0.07035079 0.04122197 -0.00571999
v 0.06958413 0.04212877 -0.00277900
v 0.06953443 0.04206767 -0.00130579
f 1 2 3
f 1 3 4
f 1 4 9
f 1 9 17
f 1 17 21
f 1 21 31
f 1 31 45
f 1 45 44
f 1 44 70
f 1 70 79
f 1 79 78
f 1 78 56
f 1 56 34
f 1 34 22
f 1 22 11
f 1 11 5
f 1 5 12
f 1 12 23
f 1 23 36
f 1 36 60
f 1 60 86
f 1 86 119
f 1 119 96
f 1 96 87
f 1 87 62
f 1 62 61
f 1 61 39
f 1 39 38
f 1 38 37
f 1 37 24
f 1 24 13
f 1 13 6
f 1 6 2
f 2 6 3
f 3 7 4
f 3 6 8
f 3 8 7
f 4 7 10
f 4 10 9
f 5 11 12
f 6 13 14
f 6 14 8
f 7 8 14
f 7 14 15
f 7 15 16
f 7 16 10
f 9 10 17
f 10 18 19
f 10 19 20
f 10 20 21
f 10 21 17
f 10 16 18
f 11 22 33
f 11 33 52
f 11 52 76
f 11 76 108
f 11 108 127
f 11 127 126
f 11 126 128
f 11 128 112
f 11 112 81
f 11 81 57
f 11 57 35
f 11 35 23
f 11 23 12
f 13 24 25
f 13 25 26
f 13 26 14
f 14 26 27
f 14 27 15
f 15 27 16
f 16 27 26
f 16 26 28
f 16 28 29
f 16 29 18
f 18 29 19
f 19 30 31
f 19 31 21
f 19 21 20
f 19 29 28
f 19 28 26
f 19 26 32
f 19 32 30
f 22 34 33
f 23 35 36
f 24 37 25
f 25 37 38
f 25 38 39
f 25 39 40
f 25 40 26
f 26 41 32
f 26 40 42
f 26 42 41
f 30 43 44
f 30 44 45
f 30 45 46
f 30 46 31
f 30 32 43
f 31 46 45
f 32 41 47
f 32 47 48
f 32 48 49
f 32 49 43
f 33 50 51
f 33 51 52
f 33 34 50
f 34 53 54
f 34 54 55
f 34 55 50
f 34 56 53
f 35 57 58
f 35 58 59
f 35 59 36
f 36 59 60
f 39 61 40
f 40 61 62
f 40 62 42
f 41 63 64
f 41 64 47
f 41 42 65
f 41 65 66
f 41 66 67
f 41 67 68
f 41 68 63
f 42 62 69
f 42 69 65
f 43 70 44
f 43 49 70
f 47 64 48
f 48 64 71
f 48 71 72
f 48 72 49
f 49 72 73
f 49 73 70
f 50 74 51
f 50 55 74
f 51 74 75
f 51 75 52
f 52 75 76
f 53 77 74
f 53 74 54
f 53 56 78
f 53 78 79
f 53 79 80
f 53 80 77
f 54 74 55
f 57 81 82
f 57 82 83
f 57 83 58
f 58 83 84
f 58 84 85
f 58 85 59
f 59 85 60
f 60 85 86
f 62 87 69
f 63 68 64
f 64 88 71
f 64 68 89
f 64 89 88
f 65 69 90
f 65 90 66
f 66 90 91
f 66 91 92
f 66 92 93
f 66 93 94
f 66 94 67
f 67 94 95
f 67 95 68
f 68 95 89
f 69 87 96
f 69 96 97
f 69 97 90
f 70 73 79
f 71 88 72
f 72 88 98
f 72 98 99
f 72 99 100
f 72 100 101
f 72 101 73
f 73 101 102
f 73 102 103
f 73 103 79
f 74 104 105
f 74 105 75
f 74 77 104
f 75 105 106
f 75 106 107
f 75 107 76
f 76 107 106
f 76 106 109
f 76 109 108
f 77 80 110
f 77 110 104
f 79 103 111
f 79 111 80
f 80 111 110
f 81 112 113
f 81 113 82
f 82 114 83
f 82 113 114
f 83 115 84
f 83 114 116
f 83 116 92
f 83 92 90
f 83 90 117
f 83 117 97
f 83 97 115
f 84 115 97
f 84 97 118
f 84 118 85
f 85 118 86
f 86 118 119
f 88 89 98
f 89 95 116
f 89 116 120
f 89 120 98
f 90 97 117
f 90 92 91
f 92 116 93
f 93 116 94
f 94 116 95
f 96 119 97
f 97 119 118
f 98 120 99
f 99 116 121
f 99 121 100
f 99 120 116
f 100 121 101
f 101 121 122
f 101 122 123
f 101 123 124
f 101 124 102
f 102 124 110
f 102 110 111
f 102 111 103
f 104 125 126
f 104 126 105
f 104 110 124
f 104 124 125
f 105 126 106
f 106 126 127
f 106 127 109
f 108 109 127
f 112 128 129
f 112 129 130
f 112 130 114
f 112 114 113
f 114 130 131
f 114 131 121
f 114 121 116
f 121 132 122
f 121 131 125
f 121 125 132
f 122 132 123
f 123 132 124
f 124 132 125
f 125 131 133
f 125 133 134
f 125 134 126
f 126 129 128
f 126 134 130
f 126 130 129
f 130 134 133
f 130 133 131

