# https://github.com/mikedh/trimesh
v 0.04490436 -0.01051672 -0.02825077
v 0.04887535 -0.01051672 -0.04626623
v 0.04342384 -0.01051672 -0.02825077
v 0.04739684 -0.04268947 -0.02825077
v 0.04887535 -0.04268947 -0.03035775
v 0.04887535 -0.01051672 -0.04832014
v 0.04227887 -0.01051672 -0.03366563
v 0.04280824 -0.01538546 -0.02847680
v 0.04214519 -0.02221934 -0.02825077
v 0.04503804 -0.04268947 -0.02825077
v 0.04887535 -0.04268947 -0.03351036
v 0.04833261 -0.01051672 -0.04791722
v 0.04887535 -0.01192128 -0.04832800
v 0.04831857 -0.01192128 -0.04791919
v 0.04227820 -0.01051672 -0.03373245
v 0.04208102 -0.02369003 -0.02825077
v 0.04515033 -0.04268947 -0.02844928
v 0.04442511 -0.04185807 -0.02825077
v 0.04440038 -0.04181083 -0.02827042
v 0.04854516 -0.04268947 -0.03313102
v 0.04887535 -0.04206592 -0.03420613
v 0.04759736 -0.01051672 -0.04732562
v 0.04758332 -0.01192128 -0.04735510
v 0.04887535 -0.01260782 -0.04824349
v 0.04844490 -0.01339198 -0.04783074
v 0.04228756 -0.01051672 -0.03513580
v 0.04207567 -0.02415928 -0.02825077
v 0.04543173 -0.04245013 -0.02925316
v 0.04551996 -0.04268947 -0.02906644
v 0.04438768 -0.04179194 -0.02825077
v 0.04570110 -0.04213836 -0.03006293
v 0.04414973 -0.04107706 -0.02825077
v 0.04421991 -0.04082827 -0.02871462
v 0.04469448 -0.04132585 -0.02922367
v 0.04568305 -0.04070544 -0.03157241
v 0.04881319 -0.04194625 -0.03426509
v 0.04772837 -0.04268947 -0.03208146
v 0.04836670 -0.03953077 -0.03630328
v 0.04887535 -0.04065820 -0.03569202
v 0.04877175 -0.03907413 -0.03728209
v 0.04687548 -0.01051672 -0.04662395
v 0.04684340 -0.01192128 -0.04662001
v 0.04770965 -0.01339198 -0.04725486
v 0.04691291 -0.01339198 -0.04651977
v 0.04887535 -0.01340143 -0.04814521
v 0.04860866 -0.01442179 -0.04770692
v 0.04230360 -0.01051672 -0.03520066
v 0.04263981 -0.01339198 -0.03655486
v 0.04263713 -0.01486268 -0.03652931
v 0.04229156 -0.01192128 -0.03513580
v 0.04221269 -0.02074864 -0.03366563
v 0.04204760 -0.02809899 -0.02825077
v 0.04205228 -0.02709753 -0.02825077
v 0.04206297 -0.02562998 -0.02825077
v 0.04589761 -0.04268947 -0.02963839
v 0.04564027 -0.04268947 -0.02925316
v 0.04723776 -0.04268947 -0.03144662
v 0.04660077 -0.04268947 -0.03062112
v 0.04658139 -0.04268947 -0.03059557
v 0.04608276 -0.04168486 -0.03104370
v 0.04397661 -0.04034958 -0.02825077
v 0.04440640 -0.03986460 -0.02975632
v 0.04490436 -0.03986460 -0.03072332
v 0.04552330 -0.03986460 -0.03190457
v 0.04274608 -0.03505254 -0.02825077
v 0.04279153 -0.03483839 -0.02858490
v 0.04410094 -0.03986460 -0.02902123
v 0.04415107 -0.02485841 -0.03916500
v 0.04437832 -0.02415928 -0.04014577
v 0.04577262 -0.03910562 -0.03291875
v 0.04713081 -0.03788686 -0.03607136
v 0.04738614 -0.03886628 -0.03567237
v 0.04703256 -0.03939851 -0.03469160
v 0.04838140 -0.03809472 -0.03778328
v 0.04887535 -0.03925679 -0.03717005
v 0.04877375 -0.03760028 -0.03876208
v 0.04887535 -0.03911192 -0.03731746
v 0.04684206 -0.01051672 -0.04659053
v 0.04624117 -0.01339198 -0.04542894
v 0.04604800 -0.01201891 -0.04530512
v 0.04610415 -0.01051672 -0.04551346
v 0.04614024 -0.01051672 -0.04557242
v 0.04718496 -0.01577597 -0.04621119
v 0.04706732 -0.01486268 -0.04633109
v 0.04860130 -0.02035498 -0.04624854
v 0.04566300 -0.01927793 -0.04335341
v 0.04593704 -0.01633338 -0.04445800
v 0.04887535 -0.01459500 -0.04786022
v 0.04887535 -0.01780408 -0.04707797
v 0.04264515 -0.01051672 -0.03653521
v 0.04264248 -0.01192128 -0.03654503
v 0.04407220 -0.01051672 -0.04114619
v 0.04263446 -0.01633338 -0.03647035
v 0.04230360 -0.01339198 -0.03513580
v 0.04236041 -0.01927793 -0.03513580
v 0.04240319 -0.02074864 -0.03513580
v 0.04226216 -0.02221934 -0.03366563
v 0.04210842 -0.02956969 -0.02925316
v 0.04207367 -0.02809899 -0.02925316
v 0.04205428 -0.02956969 -0.02825077
v 0.04261574 -0.03448252 -0.02825077
v 0.04271734 -0.02956969 -0.03180237
v 0.04287843 -0.02870364 -0.03286175
v 0.04405482 -0.02367744 -0.03961313
v 0.04571580 -0.02454978 -0.04180462
v 0.04535286 -0.02508830 -0.04106364
v 0.04554870 -0.02662829 -0.04057424
v 0.04571246 -0.02749118 -0.04034821
v 0.04713549 -0.03351885 -0.03897435
v 0.04424464 -0.02317986 -0.04035607
v 0.04480142 -0.02367744 -0.04091427
v 0.04846963 -0.03661772 -0.03909228
v 0.04861801 -0.03486673 -0.04036787
v 0.04887535 -0.03543990 -0.04019491
v 0.04887535 -0.03749636 -0.03888787
v 0.04887535 -0.03763178 -0.03878960
v 0.04887535 -0.03778294 -0.03864219
v 0.04550058 -0.01633338 -0.04372095
v 0.04546716 -0.01486268 -0.04384281
v 0.04574187 -0.01159376 -0.04473316
v 0.04573051 -0.01051672 -0.04480982
v 0.04682134 -0.01780408 -0.04517343
v 0.04575056 -0.02004950 -0.04323548
v 0.04864408 -0.02611811 -0.04475479
v 0.04887535 -0.02052504 -0.04641167
v 0.04887535 -0.02146037 -0.04617778
v 0.04887535 -0.02212486 -0.04601072
v 0.04541101 -0.02221934 -0.04216823
v 0.04554870 -0.01780408 -0.04355192
v 0.04430079 -0.01051672 -0.04175352
v 0.04418516 -0.02074864 -0.04052117
v 0.04382021 -0.02074864 -0.03954630
v 0.04377475 -0.01927793 -0.03954630
v 0.04264983 -0.01927793 -0.03635439
v 0.04263579 -0.01780408 -0.03641531
v 0.04269729 -0.02074864 -0.03624825
v 0.04276279 -0.02188867 -0.03607332
v 0.04259703 -0.02231381 -0.03525765
v 0.04237913 -0.02369003 -0.03366563
v 0.04224010 -0.02516074 -0.03219349
v 0.04222005 -0.02809899 -0.03072332
v 0.04225881 -0.03104039 -0.02925316
v 0.04210575 -0.03104039 -0.02825077
v 0.04251749 -0.03398179 -0.02825077
v 0.04239116 -0.02956969 -0.03072332
v 0.04276480 -0.02772423 -0.03312512
v 0.04360298 -0.02369003 -0.03807810
v 0.04387635 -0.02221934 -0.03954630
v 0.04559749 -0.02369003 -0.04194220
v 0.04725514 -0.02584728 -0.04320600
v 0.04589026 -0.02553235 -0.04158646
v 0.04609211 -0.02662829 -0.04130932
v 0.04705328 -0.02782500 -0.04199331
v 0.04647645 -0.02814938 -0.04104399
v 0.04684674 -0.02956969 -0.04080223
v 0.04706932 -0.03072232 -0.04049955
v 0.04743227 -0.03251109 -0.04000622
v 0.04766821 -0.03399754 -0.03949717
v 0.04828114 -0.03539580 -0.03956792
v 0.04420855 -0.02221934 -0.04044256
v 0.04843420 -0.03398179 -0.04061158
v 0.04860130 -0.03201666 -0.04187538
v 0.04880851 -0.03011766 -0.04312542
v 0.04887535 -0.03293624 -0.04163166
v 0.04534885 -0.01051672 -0.04400398
v 0.04571781 -0.01051672 -0.04478427
v 0.04759068 -0.02369003 -0.04427325
v 0.04696171 -0.02369003 -0.04353816
v 0.04879247 -0.02709438 -0.04460541
v 0.04711611 -0.02486471 -0.04335734
v 0.04887535 -0.02221934 -0.04598517
v 0.04276413 -0.02482062 -0.03460119
v 0.04268526 -0.02369003 -0.03488618
v 0.04259836 -0.02525206 -0.03378356
v 0.04236977 -0.02662829 -0.03219349
v 0.04225614 -0.03250164 -0.02825077
v 0.04260037 -0.02816827 -0.03229963
v 0.04268659 -0.02662829 -0.03340815
v 0.04838474 -0.02809899 -0.04364233
v 0.04738748 -0.02662829 -0.04302321
v 0.04858459 -0.02913824 -0.04338092
v 0.04840880 -0.03104039 -0.04213875
v 0.04887535 -0.03005467 -0.04320403
v 0.04887535 -0.03015860 -0.04314900
v 0.04887535 -0.02734947 -0.04454645
v 0.04887535 -0.02702194 -0.04468010
v 0.04887535 -0.02717311 -0.04462900
f 1 2 6
f 1 6 12
f 1 12 22
f 1 22 41
f 1 41 78
f 1 78 82
f 1 82 81
f 1 81 121
f 1 121 166
f 1 166 165
f 1 165 130
f 1 130 92
f 1 92 90
f 1 90 47
f 1 47 26
f 1 26 15
f 1 15 7
f 1 7 3
f 1 3 9
f 1 9 16
f 1 16 27
f 1 27 54
f 1 54 53
f 1 53 52
f 1 52 100
f 1 100 143
f 1 143 176
f 1 176 144
f 1 144 101
f 1 101 65
f 1 65 61
f 1 61 32
f 1 32 30
f 1 30 18
f 1 18 10
f 1 10 4
f 1 4 5
f 1 5 2
f 2 5 11
f 2 11 21
f 2 21 39
f 2 39 75
f 2 75 77
f 2 77 117
f 2 117 116
f 2 116 115
f 2 115 114
f 2 114 164
f 2 164 184
f 2 184 183
f 2 183 185
f 2 185 187
f 2 187 186
f 2 186 171
f 2 171 127
f 2 127 126
f 2 126 125
f 2 125 89
f 2 89 88
f 2 88 45
f 2 45 24
f 2 24 13
f 2 13 6
f 3 7 8
f 3 8 9
f 4 10 17
f 4 17 29
f 4 29 56
f 4 56 55
f 4 55 59
f 4 59 58
f 4 58 57
f 4 57 37
f 4 37 20
f 4 20 11
f 4 11 5
f 6 13 14
f 6 14 12
f 7 15 16
f 7 16 9
f 7 9 8
f 10 18 19
f 10 19 17
f 11 20 21
f 12 14 23
f 12 23 22
f 13 24 14
f 14 24 25
f 14 25 23
f 15 26 16
f 16 26 27
f 17 19 28
f 17 28 29
f 18 30 19
f 19 31 28
f 19 30 32
f 19 32 33
f 19 33 34
f 19 34 35
f 19 35 31
f 20 36 21
f 20 37 38
f 20 38 36
f 21 36 40
f 21 40 39
f 22 23 41
f 23 42 41
f 23 25 43
f 23 43 44
f 23 44 42
f 24 45 25
f 25 45 46
f 25 46 43
f 26 47 48
f 26 48 49
f 26 49 50
f 26 50 51
f 26 51 52
f 26 52 53
f 26 53 54
f 26 54 27
f 28 31 55
f 28 55 56
f 28 56 29
f 31 37 57
f 31 57 58
f 31 58 59
f 31 59 55
f 31 35 60
f 31 60 37
f 32 61 33
f 33 62 63
f 33 63 64
f 33 64 35
f 33 35 34
f 33 61 65
f 33 65 66
f 33 66 67
f 33 67 68
f 33 68 69
f 33 69 62
f 35 64 70
f 35 70 71
f 35 71 72
f 35 72 73
f 35 73 38
f 35 38 60
f 36 38 40
f 37 60 38
f 38 73 74
f 38 74 40
f 39 40 75
f 40 74 76
f 40 76 77
f 40 77 75
f 41 42 78
f 42 44 79
f 42 79 80
f 42 80 81
f 42 81 82
f 42 82 78
f 43 83 84
f 43 84 44
f 43 46 85
f 43 85 83
f 44 84 86
f 44 86 87
f 44 87 79
f 45 88 46
f 46 88 89
f 46 89 85
f 47 90 91
f 47 91 48
f 48 91 92
f 48 92 49
f 49 92 93
f 49 93 50
f 50 93 94
f 50 94 51
f 51 94 95
f 51 95 96
f 51 96 97
f 51 97 98
f 51 98 99
f 51 99 52
f 52 99 100
f 62 70 63
f 62 69 70
f 63 70 64
f 65 101 66
f 66 101 102
f 66 102 103
f 66 103 68
f 66 68 67
f 68 104 69
f 68 103 104
f 69 105 106
f 69 106 107
f 69 107 108
f 69 108 109
f 69 109 70
f 69 104 110
f 69 110 111
f 69 111 105
f 70 109 71
f 71 112 74
f 71 74 72
f 71 109 112
f 72 74 73
f 74 112 76
f 76 112 113
f 76 113 114
f 76 114 115
f 76 115 116
f 76 116 117
f 76 117 77
f 79 87 118
f 79 118 80
f 80 119 120
f 80 120 121
f 80 121 81
f 80 118 119
f 83 122 123
f 83 123 86
f 83 86 84
f 83 85 124
f 83 124 122
f 85 89 125
f 85 125 126
f 85 126 127
f 85 127 124
f 86 123 128
f 86 128 110
f 86 110 129
f 86 129 87
f 87 129 118
f 90 92 91
f 92 130 131
f 92 131 132
f 92 132 133
f 92 133 134
f 92 134 135
f 92 135 93
f 93 135 94
f 94 135 95
f 95 135 134
f 95 134 96
f 96 134 136
f 96 136 137
f 96 137 138
f 96 138 139
f 96 139 97
f 97 139 140
f 97 140 98
f 98 140 141
f 98 141 142
f 98 142 143
f 98 143 100
f 98 100 99
f 101 144 145
f 101 145 102
f 102 145 146
f 102 146 103
f 103 146 104
f 104 147 137
f 104 137 148
f 104 148 110
f 104 146 147
f 105 111 149
f 105 149 150
f 105 150 151
f 105 151 106
f 106 151 107
f 107 151 152
f 107 152 153
f 107 153 154
f 107 154 108
f 108 154 155
f 108 155 156
f 108 156 157
f 108 157 158
f 108 158 109
f 109 158 159
f 109 159 112
f 110 128 149
f 110 149 111
f 110 148 160
f 110 160 118
f 110 118 129
f 112 159 113
f 113 159 158
f 113 158 161
f 113 161 162
f 113 162 163
f 113 163 164
f 113 164 114
f 118 160 119
f 119 165 166
f 119 166 120
f 119 160 165
f 120 166 121
f 122 167 168
f 122 168 123
f 122 124 167
f 123 168 149
f 123 149 128
f 124 169 150
f 124 150 170
f 124 170 167
f 124 127 169
f 127 171 169
f 130 165 160
f 130 160 131
f 131 160 132
f 132 160 148
f 132 148 134
f 132 134 133
f 134 148 136
f 136 148 137
f 137 147 172
f 137 172 173
f 137 173 138
f 138 173 174
f 138 174 175
f 138 175 139
f 139 175 141
f 139 141 140
f 141 175 145
f 141 145 142
f 142 145 144
f 142 144 176
f 142 176 143
f 145 175 177
f 145 177 146
f 146 177 178
f 146 178 172
f 146 172 147
f 149 168 170
f 149 170 150
f 150 169 179
f 150 179 180
f 150 180 151
f 151 180 179
f 151 179 152
f 152 179 153
f 153 179 181
f 153 181 154
f 154 181 155
f 155 181 156
f 156 181 182
f 156 182 161
f 156 161 157
f 157 161 158
f 161 182 181
f 161 181 162
f 162 181 163
f 163 183 184
f 163 184 164
f 163 181 169
f 163 169 185
f 163 185 183
f 167 170 168
f 169 186 187
f 169 187 185
f 169 181 179
f 169 171 186
f 172 178 174
f 172 174 173
f 174 178 177
f 174 177 175

