# https://github.com/mikedh/trimesh
v -0.05568011 0.04605407 0.00013650
v -0.05639130 0.04603587 0.00013650
v -0.05568011 0.04505874 0.00013650
v -0.05568011 0.04585238 -0.00554654
v -0.06153365 0.04589389 -0.00554654
v -0.06153365 0.04592702 -0.00451777
v -0.06256212 0.04590117 -0.00451777
v -0.06256212 0.04576137 -0.00040435
v -0.06153365 0.04579013 0.00013650
v -0.06293120 0.04454324 0.00013650
v -0.05568011 0.04233487 -0.01675714
v -0.05568011 0.04581343 -0.00625775
v -0.06256212 0.04587896 -0.00554654
v -0.05568011 0.04579596 -0.00657531
v -0.06153365 0.04580542 -0.00657531
v -0.06293120 0.04574426 -0.00451777
v -0.06293120 0.04573807 -0.00413239
v -0.06293120 0.04566999 -0.00040435
v -0.06256212 0.04573989 0.00013650
v -0.06293120 0.04564378 0.00013650
v -0.06293120 0.04264141 -0.01480381
v -0.05644241 0.04233669 -0.01675714
v -0.05568011 0.04349949 -0.01675714
v -0.06293120 0.04571695 -0.00554654
v -0.06293120 0.04573079 -0.00513635
v -0.06256212 0.04572788 -0.00657531
v -0.06293120 0.04557825 -0.00657531
v -0.05568011 0.04570385 -0.00728651
v -0.05568011 0.04566271 -0.00760408
v -0.05741977 0.04566016 -0.00760408
v -0.05844824 0.04565834 -0.00760408
v -0.05947600 0.04565324 -0.00760408
v -0.06050518 0.04564596 -0.00760408
v -0.06153365 0.04563468 -0.00760408
v -0.06293120 0.04260245 -0.01583092
v -0.06153365 0.04243972 -0.01675714
v -0.05639130 0.04350422 -0.01675714
v -0.05568011 0.04426619 -0.01373534
v -0.06256212 0.04552073 -0.00760408
v -0.06293120 0.04514065 -0.00899507
v -0.06293120 0.04524805 -0.00845422
v -0.06293120 0.04539913 -0.00760408
v -0.05568011 0.04551527 -0.00831363
v -0.05568011 0.04544865 -0.00863119
v -0.05639130 0.04544682 -0.00863119
v -0.05741977 0.04544209 -0.00863119
v -0.05844824 0.04543372 -0.00863119
v -0.05741977 0.04525497 -0.00945487
v -0.05947600 0.04542098 -0.00863119
v -0.05568011 0.04450101 -0.01274627
v -0.06050518 0.04523312 -0.00936059
v -0.06153365 0.04422287 -0.01355341
v -0.06223775 0.04520837 -0.00925639
v -0.06293120 0.04272660 -0.01675714
v -0.05741977 0.04350713 -0.01675714
v -0.05844824 0.04350167 -0.01675714
v -0.05855045 0.04350058 -0.01675714
v -0.05957892 0.04348711 -0.01675714
v -0.06060739 0.04347255 -0.01675714
v -0.05844824 0.04424580 -0.01364934
v -0.06257347 0.04528810 -0.00865766
v -0.06292340 0.04513738 -0.00901987
v -0.06293120 0.04424544 -0.01264372
v -0.05568011 0.04531758 -0.00922993
v -0.05639130 0.04525861 -0.00948133
v -0.05844824 0.04524805 -0.00942344
v -0.05568011 0.04525933 -0.00949291
v -0.05947600 0.04444494 -0.01274627
v -0.06153365 0.04345871 -0.01675714
v -0.06232150 0.04419738 -0.01344424
v -0.06293120 0.04322863 -0.01675714
v -0.06262387 0.04428913 -0.01281077
v -0.06264161 0.04332110 -0.01675714
f 1 2 9
f 1 9 19
f 1 19 20
f 1 20 10
f 1 10 3
f 1 3 11
f 1 11 23
f 1 23 38
f 1 38 50
f 1 50 67
f 1 67 64
f 1 64 44
f 1 44 43
f 1 43 29
f 1 29 28
f 1 28 14
f 1 14 12
f 1 12 4
f 1 4 5
f 1 5 6
f 1 6 7
f 1 7 2
f 2 8 9
f 2 7 8
f 3 10 11
f 4 12 5
f 5 13 6
f 5 12 14
f 5 14 15
f 5 15 13
f 6 13 7
f 7 13 16
f 7 16 17
f 7 17 18
f 7 18 8
f 8 18 19
f 8 19 9
f 10 20 18
f 10 18 17
f 10 17 16
f 10 16 25
f 10 25 24
f 10 24 27
f 10 27 42
f 10 42 41
f 10 41 40
f 10 40 63
f 10 63 71
f 10 71 54
f 10 54 35
f 10 35 21
f 10 21 22
f 10 22 11
f 11 22 36
f 11 36 54
f 11 54 71
f 11 71 73
f 11 73 69
f 11 69 59
f 11 59 58
f 11 58 57
f 11 57 56
f 11 56 55
f 11 55 37
f 11 37 23
f 13 24 25
f 13 25 16
f 13 15 26
f 13 26 27
f 13 27 24
f 14 28 15
f 15 28 29
f 15 29 30
f 15 30 31
f 15 31 32
f 15 32 33
f 15 33 34
f 15 34 26
f 18 20 19
f 21 35 36
f 21 36 22
f 23 37 38
f 26 34 39
f 26 39 40
f 26 40 41
f 26 41 42
f 26 42 27
f 29 43 30
f 30 43 31
f 31 43 44
f 31 44 45
f 31 45 46
f 31 46 32
f 32 46 33
f 33 46 47
f 33 47 34
f 34 47 48
f 34 48 49
f 34 49 50
f 34 50 51
f 34 51 52
f 34 52 53
f 34 53 39
f 35 54 36
f 37 55 38
f 38 55 56
f 38 56 57
f 38 57 58
f 38 58 59
f 38 59 60
f 38 60 50
f 39 53 61
f 39 61 62
f 39 62 40
f 40 62 63
f 44 64 45
f 45 64 46
f 46 64 65
f 46 65 47
f 47 65 48
f 48 65 50
f 48 50 66
f 48 66 49
f 49 66 50
f 50 65 67
f 50 60 68
f 50 68 51
f 51 68 52
f 52 68 60
f 52 60 59
f 52 59 69
f 52 69 53
f 53 69 70
f 53 70 62
f 53 62 61
f 62 70 72
f 62 72 73
f 62 73 63
f 63 73 71
f 64 67 65
f 69 73 70
f 70 73 72

