# https://github.com/mikedh/trimesh
v -0.04650049 0.01222091 0.00013816
v -0.04606703 0.01380903 0.00062691
v -0.04584306 0.01483724 0.00062691
v -0.04648118 0.01230363 0.00013816
v -0.04536036 0.01222091 0.00013816
v -0.04598787 0.01222091 0.00268419
v -0.04587878 0.01278083 0.00268419
v -0.04586816 0.01380903 0.00165555
v -0.04560171 0.01539334 0.00119951
v -0.04564998 0.01551550 0.00062691
v -0.04588940 0.01483724 0.00013816
v -0.04057880 0.02070362 0.00013816
v -0.03833234 0.01222091 0.01943687
v -0.04578417 0.01222091 0.00369033
v -0.04567701 0.01222091 0.00418522
v -0.04561233 0.01236725 0.00433246
v -0.04567411 0.01273883 0.00366374
v -0.04566156 0.01477743 0.00158806
v -0.04543856 0.01603088 0.00062691
v -0.04462667 0.01255432 0.00864333
v -0.04472224 0.01284954 0.00789486
v -0.04452530 0.01323894 0.00828341
v -0.03766333 0.02521983 0.02102789
v -0.04566639 0.01554859 0.00013816
v -0.04578706 0.01519482 0.00013816
v -0.04043302 0.02097466 0.00013816
v -0.03825415 0.01222091 0.01970068
v -0.04030752 0.02121772 0.00013816
v -0.04466915 0.01222091 0.00877626
v -0.03979587 0.02521983 0.00474146
v -0.03987503 0.02521983 0.00371691
v -0.04006811 0.02521983 0.00013816
v -0.04543470 0.01606269 0.00013816
v -0.04451855 0.01222091 0.00932841
v -0.04406674 0.01222091 0.01094192
v -0.04377327 0.01222091 0.01193988
v -0.04354350 0.01222091 0.01247363
v -0.03901970 0.01222091 0.02102789
v -0.03672594 0.02521983 0.02102789
v -0.03812671 0.01222091 0.02014853
v -0.04017237 0.02158930 0.00013816
v -0.03893957 0.02521983 0.00013816
v -0.03790371 0.01222091 0.02102789
v -0.03663905 0.01912058 0.02102789
v -0.03679544 0.02521983 0.01708307
v -0.03797515 0.01222091 0.02072727
v -0.04001212 0.02203723 0.00013816
v -0.03914037 0.02461792 0.00013816
v -0.03730421 0.02521983 0.01090102
v -0.03669022 0.01792313 0.02102789
v -0.03680703 0.01706417 0.02102789
v -0.03700880 0.01603596 0.02102789
v -0.03725014 0.01493904 0.02102789
v -0.03664195 0.01895134 0.02102789
v -0.03681089 0.02409491 0.01605443
v -0.03679448 0.02512312 0.01708307
v -0.03683503 0.02521983 0.01605443
v -0.03717774 0.02521983 0.01184172
v -0.03717388 0.02512312 0.01193988
v -0.03666898 0.01809238 0.02102789
v -0.03688523 0.02409491 0.01502579
v -0.03696246 0.02512312 0.01399716
v -0.03689585 0.02512312 0.01502579
v -0.03689874 0.02521983 0.01502579
v -0.03705610 0.02521983 0.01287036
v -0.03704838 0.02512312 0.01296852
v -0.03697211 0.02521983 0.01389900
v -0.03696535 0.02521983 0.01399716
f 1 2 3
f 1 3 4
f 1 4 11
f 1 11 25
f 1 25 24
f 1 24 33
f 1 33 32
f 1 32 42
f 1 42 48
f 1 48 47
f 1 47 41
f 1 41 28
f 1 28 26
f 1 26 12
f 1 12 5
f 1 5 13
f 1 13 27
f 1 27 40
f 1 40 46
f 1 46 43
f 1 43 38
f 1 38 37
f 1 37 36
f 1 36 35
f 1 35 34
f 1 34 29
f 1 29 15
f 1 15 14
f 1 14 6
f 1 6 7
f 1 7 8
f 1 8 2
f 2 8 3
f 3 9 10
f 3 10 11
f 3 11 4
f 3 8 9
f 5 12 13
f 6 14 7
f 7 14 15
f 7 15 16
f 7 16 17
f 7 17 18
f 7 18 8
f 8 18 9
f 9 19 10
f 9 18 20
f 9 20 21
f 9 21 22
f 9 22 23
f 9 23 19
f 10 19 24
f 10 24 25
f 10 25 11
f 12 26 13
f 13 26 28
f 13 28 27
f 15 29 20
f 15 20 16
f 16 20 17
f 17 20 18
f 19 30 31
f 19 31 32
f 19 32 33
f 19 33 24
f 19 23 30
f 20 22 21
f 20 29 34
f 20 34 35
f 20 35 23
f 20 23 22
f 23 35 36
f 23 36 37
f 23 37 38
f 23 38 43
f 23 43 53
f 23 53 52
f 23 52 51
f 23 51 50
f 23 50 60
f 23 60 54
f 23 54 44
f 23 44 39
f 23 39 45
f 23 45 57
f 23 57 64
f 23 64 68
f 23 68 67
f 23 67 65
f 23 65 58
f 23 58 49
f 23 49 42
f 23 42 32
f 23 32 31
f 23 31 30
f 27 28 40
f 28 41 40
f 39 44 45
f 40 41 47
f 40 47 46
f 42 49 50
f 42 50 51
f 42 51 52
f 42 52 53
f 42 53 43
f 42 43 46
f 42 46 48
f 44 54 55
f 44 55 56
f 44 56 45
f 45 56 55
f 45 55 57
f 46 47 48
f 49 58 59
f 49 59 60
f 49 60 50
f 54 60 55
f 55 60 61
f 55 61 62
f 55 62 63
f 55 63 57
f 57 63 64
f 58 65 66
f 58 66 59
f 59 66 61
f 59 61 60
f 61 66 62
f 62 67 68
f 62 68 64
f 62 64 63
f 62 66 65
f 62 65 67

