# https://github.com/mikedh/trimesh
v -0.04429870 0.01779515 0.00013816
v -0.04429870 0.01783126 -0.00025740
v -0.04446731 0.01758754 0.00013816
v -0.04429870 0.01576187 0.00013816
v -0.04429870 0.01784254 -0.00040469
v -0.04460280 0.01746342 -0.00040469
v -0.04458568 0.01743860 0.00013816
v -0.04599620 -0.00517124 0.00013816
v -0.04429870 0.00509221 -0.02135670
v -0.04429870 0.01788091 -0.00123789
v -0.04429870 0.01788317 -0.00143356
v -0.04460128 0.01746568 -0.00143356
v -0.04495981 0.01689248 -0.00040469
v -0.04491071 0.01694212 0.00013816
v -0.04694886 -0.00517124 0.00013816
v -0.04597869 -0.00517124 -0.02135670
v -0.04429870 0.00942056 -0.02135670
v -0.04429870 0.01781095 -0.00238459
v -0.04457616 0.01743183 -0.00209633
v -0.04492365 0.01689248 -0.00143356
v -0.04543252 0.01609812 -0.00040469
v -0.04543595 0.01606201 0.00013816
v -0.04695038 -0.00492526 0.00013816
v -0.04709767 -0.00517124 -0.00143356
v -0.04710795 -0.00517124 -0.02135670
v -0.04429870 0.00973424 -0.02115471
v -0.04611571 0.00348319 -0.02135670
v -0.04671364 0.00431817 -0.01962297
v -0.04429870 0.01780644 -0.00242456
v -0.04429870 0.01713169 -0.00658425
v -0.04429870 0.01695792 -0.00760471
v -0.04479425 0.01679769 -0.00348921
v -0.04479691 0.01697597 -0.00244771
v -0.04535907 0.01595369 -0.00246033
v -0.04539789 0.01602590 -0.00143356
v -0.04563424 0.01543916 -0.00246033
v -0.04566545 0.01551138 -0.00143356
v -0.04568639 0.01558359 -0.00040469
v -0.04566736 0.01554749 0.00013816
v -0.04695799 -0.00367731 0.00013816
v -0.04766706 -0.00517124 -0.00867145
v -0.04700937 -0.00367731 -0.00040469
v -0.04696750 -0.00210665 0.00013816
v -0.04697359 -0.00107985 0.00013816
v -0.04710643 -0.00367731 -0.00143356
v -0.04767124 -0.00517124 -0.01952198
v -0.04767086 -0.00470636 -0.01951567
v -0.04766249 -0.00404966 -0.01947990
v -0.04710452 -0.00508774 -0.02135670
v -0.04450575 0.01012013 -0.02039305
v -0.04429870 0.00994637 -0.02097166
v -0.04771083 0.00430011 -0.01753577
v -0.04759779 0.00498615 -0.01729801
v -0.04620629 0.00307021 -0.02135670
v -0.04664171 0.00309504 -0.02051719
v -0.04429870 0.01629445 -0.01068923
v -0.04471737 0.01562196 -0.01068923
v -0.04477636 0.01573705 -0.00966246
v -0.04464201 0.01652463 -0.00657583
v -0.04559847 0.01433790 -0.00923534
v -0.04560874 0.01538726 -0.00317991
v -0.04587745 0.01483663 -0.00246033
v -0.04596880 0.01380757 -0.00760471
v -0.04674790 0.01156216 -0.00966246
v -0.04592122 0.01483663 -0.00143356
v -0.04594063 0.01483663 -0.00040469
v -0.04578801 0.01519318 0.00013816
v -0.04765906 0.00352381 -0.00897864
v -0.04805946 -0.00161920 -0.01480262
v -0.04812987 -0.00264825 -0.01583150
v -0.04814814 -0.00517124 -0.01629649
v -0.04711137 -0.00264825 -0.00143356
v -0.04711518 -0.00161920 -0.00143356
v -0.04711784 -0.00059240 -0.00143356
v -0.04712584 0.00249476 -0.00143356
v -0.04713878 0.00763551 -0.00143356
v -0.04714030 0.00866456 -0.00143356
v -0.04713992 0.00969362 -0.00143356
v -0.04697854 -0.00005080 0.00013816
v -0.04775650 -0.00517124 -0.01919375
v -0.04782577 -0.00470636 -0.01891812
v -0.04807545 -0.00367731 -0.01788925
v -0.04802673 -0.00264825 -0.01788925
v -0.04775650 0.00352381 -0.01765570
v -0.04702269 -0.00405869 -0.02135670
v -0.04561103 0.00923099 -0.01845102
v -0.04466066 0.01042479 -0.01970714
v -0.04429870 0.01074298 -0.02019738
v -0.04790570 0.00352381 -0.01686037
v -0.04777934 0.00460702 -0.01691718
v -0.04771159 0.00526146 -0.01661209
v -0.04667025 0.00725187 -0.01751262
v -0.04631172 0.00249476 -0.02135670
v -0.04691460 -0.00301610 -0.02135670
v -0.04429870 0.01605524 -0.01164446
v -0.04432649 0.01599205 -0.01171600
v -0.04463782 0.01547753 -0.01171600
v -0.04574843 0.01358416 -0.01171600
v -0.04562739 0.01438980 -0.00863358
v -0.04579296 0.01369248 -0.01068923
v -0.04567459 0.01448232 -0.00760471
v -0.04662039 0.01227076 -0.00712499
v -0.04663676 0.01231138 -0.00657583
v -0.04665845 0.01237231 -0.00554696
v -0.04671326 0.01147866 -0.01068923
v -0.04677911 0.01164114 -0.00863358
v -0.04706113 0.01072041 -0.00966246
v -0.04666759 0.01241293 -0.00451808
v -0.04667406 0.01244001 -0.00348921
v -0.04668662 0.01248064 -0.00143356
v -0.04690128 0.01174947 -0.00143356
v -0.04666568 0.01241519 -0.00067611
v -0.04588963 0.01483663 0.00013816
v -0.04765602 0.00435202 -0.00902283
v -0.04770207 0.00352381 -0.00966246
v -0.04812531 -0.00161920 -0.01583150
v -0.04818696 -0.00367731 -0.01686037
v -0.04818468 -0.00470636 -0.01686037
v -0.04818354 -0.00517124 -0.01686037
v -0.04698045 0.00043665 0.00013816
v -0.04702954 0.00043665 -0.00040469
v -0.04698692 0.00249476 0.00013816
v -0.04699719 0.00660646 0.00013816
v -0.04700100 0.00817712 0.00013816
v -0.04700214 0.00866456 0.00013816
v -0.04705010 0.00866456 -0.00040469
v -0.04704819 0.00969362 -0.00040469
v -0.04709310 0.01072041 -0.00143356
v -0.04718635 0.00969362 -0.00246033
v -0.04767429 0.00463862 -0.00957198
v -0.04782691 -0.00517124 -0.01891812
v -0.04808420 -0.00470636 -0.01788925
v -0.04817897 -0.00264825 -0.01686037
v -0.04814890 -0.00161920 -0.01686037
v -0.04810323 -0.00059240 -0.01686037
v -0.04800503 0.00146570 -0.01686037
v -0.04795556 0.00249476 -0.01686037
v -0.04675360 0.00761069 -0.01679515
v -0.04569819 0.00944989 -0.01788925
v -0.04567992 0.01042704 -0.01664786
v -0.04472270 0.01173367 -0.01783033
v -0.04479158 0.01074749 -0.01892443
v -0.04462678 0.01137937 -0.01858568
v -0.04429870 0.01266794 -0.01779036
v -0.04793120 0.00352381 -0.01583150
v -0.04787829 0.00455286 -0.01583150
v -0.04773785 0.00559546 -0.01578310
v -0.04766477 0.00614835 -0.01540859
v -0.04665236 0.01030969 -0.01340554
v -0.04670108 0.00939799 -0.01458170
v -0.04672278 0.00841407 -0.01583150
v -0.04429870 0.01603719 -0.01171389
v -0.04458187 0.01538500 -0.01234931
v -0.04480643 0.01489981 -0.01271331
v -0.04567687 0.01344424 -0.01250080
v -0.04666911 0.01136808 -0.01146772
v -0.04676883 0.01182394 -0.00752265
v -0.04683696 0.01174947 -0.00657583
v -0.04686474 0.01174947 -0.00554696
v -0.04699262 0.01072041 -0.01068923
v -0.04724421 0.00969362 -0.01068923
v -0.04709425 0.01072041 -0.00863358
v -0.04688035 0.01174947 -0.00451808
v -0.04690547 0.01174947 -0.00246033
v -0.04676236 0.01180137 -0.00036050
v -0.04712622 0.01072041 -0.00246033
v -0.04697588 0.01072041 -0.00040469
v -0.04670451 0.01159375 0.00013816
v -0.04782958 0.00249476 -0.01171600
v -0.04805261 -0.00059240 -0.01480262
v -0.04809866 -0.00059240 -0.01583150
v -0.04808496 -0.00517124 -0.01788925
v -0.04814015 -0.00517124 -0.01732326
v -0.04698235 0.00097826 0.00013816
v -0.04698387 0.00146570 0.00013816
v -0.04698045 0.00969362 0.00013816
v -0.04764841 0.00715709 -0.01116684
v -0.04764727 0.00610321 -0.01016953
v -0.04765640 0.00557966 -0.00992967
v -0.04772186 0.00455286 -0.01068923
v -0.04779760 0.00352381 -0.01171600
v -0.04794909 0.00146570 -0.01377375
v -0.04802445 0.00043665 -0.01480262
v -0.04796888 -0.00517124 -0.01835213
v -0.04805870 0.00043665 -0.01583150
v -0.04801683 0.00146570 -0.01583150
v -0.04663676 0.00819743 -0.01640800
v -0.04579296 0.01074975 -0.01583781
v -0.04564642 0.01136583 -0.01549906
v -0.04560836 0.01230687 -0.01434605
v -0.04468197 0.01253254 -0.01686037
v -0.04458568 0.01231815 -0.01744740
v -0.04429870 0.01269502 -0.01775459
v -0.04771844 0.00660646 -0.01274487
v -0.04767200 0.00730152 -0.01274487
v -0.04766820 0.00719771 -0.01340554
v -0.04680803 0.01079714 -0.01177281
v -0.04671859 0.01050828 -0.01274487
v -0.04584091 0.01284848 -0.01280589
v -0.04569781 0.01251223 -0.01377375
v -0.04573016 0.01172464 -0.01473319
v -0.04429870 0.01573028 -0.01266492
v -0.04429870 0.01534213 -0.01377375
v -0.04472270 0.01461547 -0.01377375
v -0.04461308 0.01443719 -0.01444704
v -0.04711975 0.01072041 -0.00760471
v -0.04713155 0.01072041 -0.00657583
v -0.04686702 0.01074749 0.00013816
v -0.04765678 0.00727218 -0.01171600
v -0.04798600 0.00146570 -0.01480262
v -0.04765602 0.00650942 -0.01076918
v -0.04775992 0.00557966 -0.01274487
v -0.04787296 0.00352381 -0.01377375
v -0.04783719 0.00352381 -0.01274487
v -0.04776145 0.00455286 -0.01171600
v -0.04783186 0.00455286 -0.01377375
v -0.04465571 0.01350292 -0.01560426
v -0.04429870 0.01480277 -0.01481104
v -0.04429870 0.01481406 -0.01479421
f 1 2 3
f 1 3 7
f 1 7 14
f 1 14 22
f 1 22 39
f 1 39 67
f 1 67 113
f 1 113 168
f 1 168 208
f 1 208 176
f 1 176 125
f 1 125 124
f 1 124 123
f 1 123 122
f 1 122 175
f 1 175 174
f 1 174 120
f 1 120 79
f 1 79 44
f 1 44 43
f 1 43 40
f 1 40 23
f 1 23 15
f 1 15 8
f 1 8 4
f 1 4 9
f 1 9 17
f 1 17 26
f 1 26 51
f 1 51 88
f 1 88 144
f 1 144 193
f 1 193 218
f 1 218 219
f 1 219 203
f 1 203 202
f 1 202 152
f 1 152 95
f 1 95 56
f 1 56 31
f 1 31 30
f 1 30 29
f 1 29 18
f 1 18 11
f 1 11 10
f 1 10 5
f 1 5 2
f 2 5 6
f 2 6 3
f 3 6 7
f 4 8 9
f 5 10 6
f 6 10 11
f 6 11 12
f 6 12 13
f 6 13 14
f 6 14 7
f 8 15 24
f 8 24 41
f 8 41 71
f 8 71 119
f 8 119 173
f 8 173 172
f 8 172 184
f 8 184 131
f 8 131 80
f 8 80 46
f 8 46 25
f 8 25 16
f 8 16 9
f 9 16 25
f 9 25 49
f 9 49 85
f 9 85 94
f 9 94 93
f 9 93 54
f 9 54 27
f 9 27 17
f 11 18 12
f 12 19 20
f 12 20 21
f 12 21 13
f 12 18 19
f 13 21 22
f 13 22 14
f 15 23 24
f 17 27 28
f 17 28 26
f 18 29 19
f 19 29 30
f 19 30 31
f 19 31 32
f 19 32 33
f 19 33 34
f 19 34 20
f 20 34 35
f 20 35 21
f 21 35 36
f 21 36 37
f 21 37 38
f 21 38 22
f 22 38 39
f 23 40 24
f 24 40 42
f 24 42 43
f 24 43 44
f 24 44 45
f 24 45 41
f 25 46 47
f 25 47 48
f 25 48 49
f 26 50 51
f 26 28 52
f 26 52 53
f 26 53 50
f 27 54 55
f 27 55 28
f 28 55 52
f 31 56 57
f 31 57 58
f 31 58 59
f 31 59 32
f 32 59 60
f 32 60 61
f 32 61 33
f 33 61 34
f 34 61 35
f 35 61 36
f 36 62 37
f 36 61 63
f 36 63 64
f 36 64 62
f 37 62 38
f 38 62 65
f 38 65 66
f 38 66 67
f 38 67 39
f 40 43 42
f 41 68 69
f 41 69 70
f 41 70 71
f 41 45 72
f 41 72 73
f 41 73 74
f 41 74 75
f 41 75 76
f 41 76 77
f 41 77 78
f 41 78 68
f 44 79 72
f 44 72 45
f 46 80 47
f 47 81 82
f 47 82 48
f 47 80 81
f 48 82 83
f 48 83 84
f 48 84 49
f 49 84 85
f 50 86 87
f 50 87 88
f 50 88 51
f 50 53 86
f 52 55 84
f 52 84 89
f 52 89 90
f 52 90 91
f 52 91 53
f 53 91 92
f 53 92 86
f 54 93 55
f 55 93 94
f 55 94 85
f 55 85 84
f 56 95 57
f 57 95 96
f 57 96 97
f 57 97 98
f 57 98 58
f 58 98 60
f 58 60 59
f 60 99 61
f 60 98 100
f 60 100 99
f 61 99 101
f 61 101 100
f 61 100 63
f 62 64 102
f 62 102 103
f 62 103 104
f 62 104 65
f 63 100 105
f 63 105 64
f 64 106 102
f 64 105 107
f 64 107 106
f 65 104 108
f 65 108 66
f 66 108 109
f 66 109 110
f 66 110 111
f 66 111 112
f 66 112 67
f 67 112 113
f 68 114 115
f 68 115 116
f 68 116 69
f 68 78 114
f 69 116 70
f 70 116 117
f 70 117 118
f 70 118 119
f 70 119 71
f 72 79 120
f 72 120 73
f 73 120 121
f 73 121 122
f 73 122 74
f 74 122 75
f 75 122 76
f 76 123 124
f 76 124 125
f 76 125 126
f 76 126 77
f 76 122 123
f 77 126 78
f 78 126 125
f 78 125 127
f 78 127 128
f 78 128 129
f 78 129 130
f 78 130 114
f 80 131 81
f 81 132 82
f 81 131 132
f 82 132 133
f 82 133 134
f 82 134 135
f 82 135 83
f 83 135 136
f 83 136 137
f 83 137 89
f 83 89 84
f 86 92 138
f 86 138 139
f 86 139 140
f 86 140 141
f 86 141 142
f 86 142 87
f 87 142 143
f 87 143 144
f 87 144 88
f 89 145 146
f 89 146 90
f 89 137 145
f 90 146 147
f 90 147 91
f 91 147 148
f 91 148 149
f 91 149 150
f 91 150 151
f 91 151 138
f 91 138 92
f 95 152 96
f 96 152 153
f 96 153 97
f 97 153 154
f 97 154 98
f 98 155 156
f 98 156 105
f 98 105 100
f 98 154 155
f 99 100 101
f 102 106 103
f 103 106 157
f 103 157 158
f 103 158 104
f 104 158 159
f 104 159 108
f 105 156 160
f 105 160 107
f 106 107 157
f 107 160 161
f 107 161 162
f 107 162 158
f 107 158 157
f 108 159 163
f 108 163 109
f 109 163 110
f 110 163 164
f 110 164 111
f 111 165 112
f 111 164 166
f 111 166 128
f 111 128 167
f 111 167 165
f 112 165 113
f 113 165 168
f 114 130 169
f 114 169 170
f 114 170 116
f 114 116 115
f 116 170 171
f 116 171 133
f 116 133 117
f 117 132 172
f 117 172 173
f 117 173 118
f 117 133 132
f 118 173 119
f 120 174 121
f 121 174 175
f 121 175 122
f 125 176 127
f 127 176 167
f 127 167 128
f 128 166 177
f 128 177 129
f 129 177 178
f 129 178 179
f 129 179 130
f 130 179 180
f 130 180 181
f 130 181 182
f 130 182 183
f 130 183 169
f 131 184 132
f 132 184 172
f 133 171 134
f 134 171 185
f 134 185 186
f 134 186 145
f 134 145 135
f 135 145 136
f 136 145 137
f 138 151 187
f 138 187 139
f 139 187 151
f 139 151 140
f 140 151 188
f 140 188 189
f 140 189 141
f 141 143 142
f 141 189 190
f 141 190 191
f 141 191 192
f 141 192 143
f 143 192 193
f 143 193 144
f 145 186 194
f 145 194 146
f 146 194 195
f 146 195 196
f 146 196 147
f 147 196 148
f 148 196 197
f 148 197 198
f 148 198 149
f 149 198 199
f 149 199 150
f 150 199 200
f 150 200 201
f 150 201 188
f 150 188 151
f 152 202 153
f 153 202 154
f 154 202 203
f 154 203 204
f 154 204 155
f 155 200 199
f 155 199 156
f 155 204 205
f 155 205 200
f 156 199 198
f 156 198 197
f 156 197 160
f 158 162 159
f 159 162 206
f 159 206 163
f 160 197 196
f 160 196 161
f 161 196 195
f 161 195 162
f 162 195 206
f 163 206 164
f 164 206 207
f 164 207 166
f 165 167 208
f 165 208 168
f 166 207 195
f 166 195 209
f 166 209 177
f 167 176 208
f 169 183 170
f 170 183 171
f 171 210 185
f 171 183 177
f 171 177 210
f 177 211 178
f 177 209 194
f 177 194 212
f 177 212 213
f 177 213 210
f 177 183 214
f 177 214 215
f 177 215 211
f 178 211 215
f 178 215 180
f 178 180 179
f 180 215 181
f 181 215 214
f 181 214 182
f 182 214 183
f 185 210 213
f 185 213 212
f 185 212 216
f 185 216 186
f 186 216 194
f 188 201 189
f 189 201 200
f 189 200 190
f 190 217 191
f 190 200 205
f 190 205 217
f 191 217 192
f 192 217 205
f 192 205 193
f 193 205 218
f 194 209 195
f 194 216 212
f 195 207 206
f 203 219 204
f 204 219 205
f 205 219 218

