# https://github.com/mikedh/trimesh
v -0.04287637 0.01074811 0.04759594
v -0.04278967 0.01074811 0.04755030
v -0.04261351 0.01119015 0.04740381
v -0.04287637 0.01090799 0.04755136
v -0.04287637 0.01074811 0.04610984
v -0.04207332 0.01074811 0.04717134
v -0.04239674 0.01351134 0.04647500
v -0.04276627 0.01419604 0.04633913
v -0.04287637 0.01406625 0.04640494
v -0.03695361 0.01074811 0.03675167
v -0.04287637 0.02798964 0.03675167
v -0.04199694 0.01074811 0.04710341
v -0.04156754 0.01197266 0.04629985
v -0.04223572 0.01278150 0.04660026
v -0.04287637 0.01689532 0.04524047
v -0.04172169 0.01278150 0.04614381
v -0.04197079 0.01384428 0.04590604
v -0.04239468 0.01557860 0.04548356
v -0.04257497 0.01626517 0.04531160
v -0.04287637 0.01740320 0.04501438
v -0.04287637 0.01440107 0.04627119
v -0.03584709 0.01074811 0.03675167
v -0.04287637 0.02996285 0.03675167
v -0.04137693 0.01074811 0.04651534
v -0.04124206 0.01278150 0.04563005
v -0.03837736 0.01333076 0.04230225
v -0.03937171 0.01339472 0.04336587
v -0.04037501 0.01344362 0.04441888
v -0.04138037 0.01349253 0.04547294
v -0.04154002 0.02447211 0.04016121
v -0.04221301 0.02306510 0.04155920
v -0.04239055 0.02379682 0.04137238
v -0.04287637 0.01895317 0.04427027
v -0.03595857 0.01163971 0.03675167
v -0.03614574 0.01074811 0.03772613
v -0.04287637 0.02977474 0.03700219
v -0.04260594 0.02982929 0.03675167
v -0.03851430 0.01074811 0.04318223
v -0.03863059 0.01175258 0.04304317
v -0.03894988 0.01370509 0.04274596
v -0.03831680 0.01278150 0.04238292
v -0.03803948 0.01278150 0.04177256
v -0.03825349 0.01372766 0.04173753
v -0.03833745 0.01448195 0.04137238
v -0.03937790 0.01751606 0.04130975
v -0.04137762 0.02378742 0.04033105
v -0.04139689 0.02585467 0.03930776
v -0.04154965 0.02653937 0.03909758
v -0.04222540 0.02512295 0.04048921
v -0.04241051 0.02573805 0.04029920
v -0.04287637 0.02215844 0.04256232
v -0.04287637 0.02010812 0.04368007
v -0.03597784 0.01175258 0.03675167
v -0.03615056 0.01074811 0.03773993
v -0.03622006 0.01175258 0.03744696
v -0.04287637 0.02963555 0.03714443
v -0.04282958 0.02969950 0.03707118
v -0.04226875 0.02901480 0.03742891
v -0.04200932 0.02920855 0.03675167
v -0.03850466 0.01074811 0.04317056
v -0.03821152 0.01175258 0.04252941
v -0.03764794 0.01074811 0.04168552
v -0.03724607 0.01074811 0.04071531
v -0.03735342 0.01230748 0.04025037
v -0.03723712 0.01270250 0.03972069
v -0.03729699 0.01349065 0.03938207
v -0.03821840 0.01482994 0.04074397
v -0.04031652 0.02600704 0.03675167
v -0.04123724 0.02617821 0.03872712
v -0.04038602 0.02168442 0.04030875
v -0.04136730 0.02694191 0.03841186
v -0.04151318 0.02762848 0.03810615
v -0.04187445 0.02727485 0.03876852
v -0.04223572 0.02692122 0.03937676
v -0.04287637 0.02705665 0.03947336
v -0.04287637 0.02580953 0.04034803
v -0.04287637 0.02526215 0.04070788
v -0.04283027 0.02448340 0.04119192
v -0.04287637 0.02442321 0.04123756
v -0.03617189 0.01274388 0.03675167
v -0.03628819 0.01245608 0.03726332
v -0.03722061 0.01074811 0.04064631
v -0.03730387 0.01175258 0.04038518
v -0.04287637 0.02811943 0.03857214
v -0.04287637 0.02766611 0.03899780
v -0.04219925 0.02797836 0.03844052
v -0.04195840 0.02914460 0.03675167
v -0.03812068 0.01074811 0.04266847
v -0.03716831 0.01382359 0.03870695
v -0.04035161 0.02610109 0.03675167
v -0.03634530 0.01331195 0.03675167
v -0.04136523 0.02787490 0.03742042
v -0.04158337 0.02855959 0.03689285
v -0.04179532 0.02893768 0.03675167
v -0.04051470 0.02650551 0.03675167
v -0.04078238 0.02716011 0.03675167
v -0.04287637 0.02457181 0.04114628
v -0.04126889 0.02814389 0.03675167
v -0.04155309 0.02860474 0.03675167
f 1 2 3
f 1 3 4
f 1 4 9
f 1 9 21
f 1 21 15
f 1 15 20
f 1 20 33
f 1 33 52
f 1 52 51
f 1 51 79
f 1 79 97
f 1 97 77
f 1 77 76
f 1 76 75
f 1 75 85
f 1 85 84
f 1 84 56
f 1 56 36
f 1 36 23
f 1 23 11
f 1 11 5
f 1 5 10
f 1 10 22
f 1 22 35
f 1 35 54
f 1 54 82
f 1 82 63
f 1 63 62
f 1 62 88
f 1 88 60
f 1 60 38
f 1 38 24
f 1 24 12
f 1 12 6
f 1 6 2
f 2 6 3
f 3 6 7
f 3 7 8
f 3 8 4
f 4 8 9
f 5 11 10
f 6 12 13
f 6 13 14
f 6 14 7
f 7 15 8
f 7 14 16
f 7 16 17
f 7 17 18
f 7 18 19
f 7 19 20
f 7 20 15
f 8 21 9
f 8 15 21
f 10 11 23
f 10 23 37
f 10 37 59
f 10 59 87
f 10 87 94
f 10 94 99
f 10 99 98
f 10 98 96
f 10 96 95
f 10 95 90
f 10 90 68
f 10 68 91
f 10 91 80
f 10 80 53
f 10 53 34
f 10 34 22
f 12 24 13
f 13 25 16
f 13 16 14
f 13 24 26
f 13 26 27
f 13 27 25
f 16 25 27
f 16 27 28
f 16 28 29
f 16 29 17
f 17 29 18
f 18 29 30
f 18 30 31
f 18 31 32
f 18 32 33
f 18 33 19
f 19 33 20
f 22 34 35
f 23 36 37
f 24 38 39
f 24 39 26
f 26 40 27
f 26 39 41
f 26 41 42
f 26 42 43
f 26 43 44
f 26 44 45
f 26 45 40
f 27 40 45
f 27 45 46
f 27 46 28
f 28 46 29
f 29 46 30
f 30 32 31
f 30 46 47
f 30 47 32
f 32 47 48
f 32 48 49
f 32 49 50
f 32 50 51
f 32 51 52
f 32 52 33
f 34 53 35
f 35 53 55
f 35 55 54
f 36 56 57
f 36 57 37
f 37 57 58
f 37 58 59
f 38 60 41
f 38 41 39
f 41 60 61
f 41 61 62
f 41 62 42
f 42 62 63
f 42 63 64
f 42 64 65
f 42 65 66
f 42 66 43
f 43 66 44
f 44 66 67
f 44 67 68
f 44 68 69
f 44 69 45
f 45 69 70
f 45 70 46
f 46 70 47
f 47 69 71
f 47 71 48
f 47 70 69
f 48 71 72
f 48 72 73
f 48 73 74
f 48 74 50
f 48 50 49
f 50 74 75
f 50 75 76
f 50 76 77
f 50 77 78
f 50 78 51
f 51 78 79
f 53 80 81
f 53 81 55
f 54 55 82
f 55 81 64
f 55 64 83
f 55 83 82
f 56 84 57
f 57 84 85
f 57 85 86
f 57 86 58
f 58 86 72
f 58 72 59
f 59 72 87
f 60 88 61
f 61 88 62
f 63 82 83
f 63 83 64
f 64 81 65
f 65 81 66
f 66 81 80
f 66 80 89
f 66 89 68
f 66 68 67
f 68 90 71
f 68 71 69
f 68 89 91
f 71 90 72
f 72 92 93
f 72 93 94
f 72 94 87
f 72 86 73
f 72 90 95
f 72 95 96
f 72 96 92
f 73 86 74
f 74 86 85
f 74 85 75
f 77 97 78
f 78 97 79
f 80 91 89
f 92 98 99
f 92 99 93
f 92 96 98
f 93 99 94

