# https://github.com/mikedh/trimesh
v -0.04579344 -0.01959801 0.00023172
v -0.04579344 -0.02011154 -0.00156693
v -0.04579344 -0.02387659 0.00023172
v -0.03948854 -0.03215970 0.00023172
v -0.04064593 -0.03135614 -0.00741421
v -0.04103150 -0.03060446 -0.00741421
v -0.04579344 -0.02125170 -0.00551975
v -0.04570948 -0.02420121 0.00023172
v -0.04579344 -0.02484380 -0.00657439
v -0.03945754 -0.03225283 0.00023172
v -0.04019511 -0.03248033 -0.00741421
v -0.04040631 -0.03186967 -0.00741421
v -0.04579344 -0.02185837 -0.00741421
v -0.04557643 -0.02475865 -0.00103998
v -0.04553380 -0.02471608 0.00023172
v -0.04579344 -0.02490899 -0.00741421
v -0.04570754 -0.02509391 -0.00657439
v -0.03934064 -0.03262800 0.00023172
v -0.04015765 -0.03261071 -0.00741421
v -0.04543499 -0.02518571 -0.00140226
v -0.04545113 -0.02492362 0.00023172
v -0.04573014 -0.02509258 -0.00741421
v -0.04542530 -0.02531875 -0.00246063
v -0.04473358 -0.02709617 -0.00554595
v -0.04496674 -0.02630991 -0.00246063
v -0.03919597 -0.03318944 0.00023172
v -0.04000200 -0.03318944 -0.00741421
v -0.04014086 -0.03266925 -0.00741421
v -0.04533423 -0.02528150 -0.00040301
v -0.04529290 -0.02528150 0.00023172
v -0.04568364 -0.02518704 -0.00741421
v -0.04485823 -0.02627265 -0.00040301
v -0.04473552 -0.02709352 -0.00657439
v -0.04114130 -0.03318944 -0.00554595
v -0.04109028 -0.03318944 -0.00451676
v -0.04033333 -0.03318944 0.00023172
v -0.04109157 -0.03318944 -0.00741421
v -0.04511076 -0.02566067 0.00023172
v -0.04468643 -0.02701369 -0.00741421
v -0.04483433 -0.02623407 0.00023172
v -0.04110061 -0.03318944 -0.00719340
v -0.04112515 -0.03318944 -0.00657439
v -0.04106509 -0.03318944 -0.00422410
v -0.04039662 -0.03318944 -0.00003774
v -0.04222376 -0.03039957 0.00023172
v -0.04097984 -0.03318944 -0.00349356
v -0.04252474 -0.02994191 0.00023172
v -0.04062009 -0.03318944 -0.00104297
v -0.04078802 -0.03318944 -0.00214028
f 1 2 7
f 1 7 13
f 1 13 16
f 1 16 9
f 1 9 3
f 1 3 8
f 1 8 15
f 1 15 21
f 1 21 30
f 1 30 38
f 1 38 40
f 1 40 47
f 1 47 45
f 1 45 36
f 1 36 26
f 1 26 18
f 1 18 10
f 1 10 4
f 1 4 5
f 1 5 6
f 1 6 2
f 2 6 7
f 3 9 8
f 4 10 11
f 4 11 12
f 4 12 5
f 5 12 11
f 5 11 19
f 5 19 28
f 5 28 27
f 5 27 37
f 5 37 39
f 5 39 31
f 5 31 22
f 5 22 16
f 5 16 13
f 5 13 6
f 6 13 7
f 8 9 14
f 8 14 15
f 9 16 17
f 9 17 14
f 10 18 11
f 11 18 19
f 14 17 15
f 15 17 20
f 15 20 21
f 16 22 17
f 17 23 20
f 17 22 24
f 17 24 25
f 17 25 23
f 18 26 27
f 18 27 28
f 18 28 19
f 20 23 25
f 20 25 29
f 20 29 21
f 21 29 30
f 22 31 24
f 24 32 25
f 24 31 33
f 24 33 34
f 24 34 35
f 24 35 32
f 25 32 29
f 26 36 44
f 26 44 48
f 26 48 49
f 26 49 46
f 26 46 43
f 26 43 35
f 26 35 34
f 26 34 42
f 26 42 41
f 26 41 37
f 26 37 27
f 29 32 30
f 30 32 38
f 31 39 33
f 32 40 38
f 32 35 40
f 33 39 37
f 33 37 41
f 33 41 42
f 33 42 34
f 35 43 40
f 36 45 44
f 40 43 46
f 40 46 47
f 44 45 48
f 45 47 48
f 46 49 47
f 47 49 48

