# https://github.com/mikedh/trimesh
v -0.06811288 -0.00517124 0.00022979
v -0.06920659 -0.00517124 -0.01274409
v -0.06923476 -0.00517124 0.00022979
v -0.06741682 -0.05071243 0.00022979
v -0.06741682 -0.04462790 -0.02718335
v -0.06991123 -0.00517124 -0.02097554
v -0.06925395 -0.00517124 0.00016806
v -0.06923476 -0.00561181 0.00022979
v -0.06741682 -0.05240051 0.00022979
v -0.07066160 -0.00517124 -0.02718335
v -0.07024926 -0.00517124 -0.02490206
v -0.07021660 -0.00517124 -0.02452363
v -0.06741682 -0.04616758 -0.02718335
v -0.06930416 -0.00517124 -0.00040361
v -0.06925395 -0.00573703 0.00016806
v -0.06923272 -0.04173404 0.00022979
v -0.06775118 -0.05205733 0.00022979
v -0.06775975 -0.05206660 -0.00040361
v -0.06741682 -0.05247007 -0.00246215
v -0.07158139 -0.00517124 -0.02718335
v -0.06741682 -0.04638555 -0.02688544
v -0.06764054 -0.04602845 -0.02718335
v -0.06943439 -0.00517124 -0.00189585
v -0.06925354 -0.04173404 0.00016269
v -0.06925354 -0.04276359 0.00016000
v -0.06923190 -0.04262446 0.00022979
v -0.06825087 -0.05154255 0.00022979
v -0.06782344 -0.05213153 -0.00554861
v -0.06741682 -0.05254891 -0.00554861
v -0.06741682 -0.05251645 -0.00427108
v -0.06825822 -0.05155183 -0.00040361
v -0.06827088 -0.05156574 -0.00143154
v -0.06832395 -0.05161676 -0.00554861
v -0.07158179 -0.00573703 -0.02718335
v -0.06948338 -0.00517124 -0.00246215
v -0.06772750 -0.04596816 -0.02718335
v -0.06769606 -0.04599135 -0.02718335
v -0.06741682 -0.04759596 -0.02477860
v -0.06948338 -0.00573703 -0.00246215
v -0.06939071 -0.04276359 -0.00143154
v -0.06930212 -0.04276359 -0.00040361
v -0.06974262 -0.04379313 -0.00554861
v -0.06925191 -0.04348705 0.00014122
v -0.06922537 -0.04336647 0.00022979
v -0.06923149 -0.04276359 0.00022979
v -0.06867464 -0.05099532 -0.00657653
v -0.06848725 -0.05099532 0.00022979
v -0.06851052 -0.05099532 -0.00040361
v -0.06854645 -0.05099532 -0.00143154
v -0.06914576 -0.05021157 -0.00966299
v -0.06833701 -0.05162603 -0.00657653
v -0.06741682 -0.05253964 -0.00657653
v -0.06781976 -0.05214081 -0.00657653
v -0.07158343 -0.00985058 -0.02718335
v -0.07158669 -0.02219585 -0.02718335
v -0.07158424 -0.02528449 -0.02714578
v -0.07141074 -0.03247740 -0.02508993
v -0.07133644 -0.03453649 -0.02421498
v -0.07053504 -0.03967959 -0.01480262
v -0.06833538 -0.04546730 -0.02718335
v -0.06741682 -0.04818494 -0.02375067
v -0.06974589 -0.02630940 -0.00554861
v -0.06965567 -0.04276359 -0.00451800
v -0.06947930 -0.04276359 -0.00246215
v -0.07029662 -0.04173404 -0.01200602
v -0.06965322 -0.04379313 -0.00451800
v -0.06974385 -0.04276359 -0.00554861
v -0.07029050 -0.04276359 -0.01206775
v -0.06963974 -0.04482268 -0.00451800
v -0.06955320 -0.04482268 -0.00349007
v -0.06923353 -0.04417342 0.00009022
v -0.06922047 -0.04356125 0.00022979
v -0.06938540 -0.04379313 -0.00143154
v -0.06937275 -0.04482268 -0.00143154
v -0.06928824 -0.04482268 -0.00047339
v -0.06869260 -0.05099532 -0.00760446
v -0.06864402 -0.05035997 0.00022979
v -0.06930988 -0.04969679 -0.00966299
v -0.06932335 -0.04968288 -0.01069092
v -0.06934376 -0.04961795 -0.01274677
v -0.06933641 -0.04958085 -0.01377469
v -0.06911963 -0.05019302 -0.01069092
v -0.06832436 -0.05161212 -0.00760446
v -0.06741682 -0.05247007 -0.00760446
v -0.06778343 -0.05212689 -0.00760446
v -0.07158710 -0.02425495 -0.02718335
v -0.07158710 -0.02635114 -0.02718335
v -0.07158384 -0.02733895 -0.02714578
v -0.07141074 -0.03350695 -0.02508993
v -0.07140380 -0.03453649 -0.02508993
v -0.07070324 -0.03967959 -0.01686116
v -0.07053055 -0.04070913 -0.01480262
v -0.07079509 -0.03865004 -0.01788908
v -0.07062118 -0.03967959 -0.01583055
v -0.07044727 -0.04070913 -0.01377469
v -0.06823128 -0.04637627 -0.02562671
v -0.06835294 -0.04651540 -0.02508993
v -0.06937030 -0.04444704 -0.02690155
v -0.06891265 -0.04480877 -0.02718335
v -0.06807696 -0.04723887 -0.02426598
v -0.06741682 -0.04834261 -0.02344471
v -0.07035663 -0.04173404 -0.01274677
v -0.07043665 -0.04173404 -0.01377469
v -0.07060812 -0.04070913 -0.01583055
v -0.07033990 -0.04276359 -0.01274677
v -0.07028192 -0.04343604 -0.01216437
v -0.06972221 -0.04482268 -0.00554861
v -0.06933029 -0.04585223 -0.00143154
v -0.06926905 -0.04585223 -0.00068273
v -0.06919516 -0.04406211 0.00022979
v -0.06920373 -0.04482268 0.00004191
v -0.06914862 -0.04482268 0.00022979
v -0.06874077 -0.04996577 0.00022979
v -0.06946215 -0.04893623 -0.00966299
v -0.06951237 -0.04893623 -0.01069092
v -0.06954054 -0.04893623 -0.01171884
v -0.06956054 -0.04893623 -0.01274677
v -0.06956381 -0.04893623 -0.01377469
v -0.06929641 -0.04951593 -0.01480262
v -0.06860524 -0.05092576 -0.01069092
v -0.06953401 -0.04893623 -0.01480262
v -0.06950543 -0.04882956 -0.01686116
v -0.06856155 -0.05108343 -0.00967104
v -0.06827823 -0.05156574 -0.00863238
v -0.06741682 -0.05237732 -0.00858139
v -0.07158669 -0.02836849 -0.02718335
v -0.07158302 -0.02939340 -0.02714578
v -0.07158220 -0.03042295 -0.02714578
v -0.07149484 -0.03247740 -0.02611785
v -0.07148790 -0.03350695 -0.02611785
v -0.07146993 -0.03453649 -0.02611785
v -0.07075141 -0.04070913 -0.01788908
v -0.07077958 -0.03967959 -0.01788908
v -0.06937438 -0.04548122 -0.02485643
v -0.06823495 -0.04741046 -0.02357891
v -0.07020680 -0.04421515 -0.02545225
v -0.06969282 -0.04384415 -0.02718335
v -0.06893959 -0.04477630 -0.02718335
v -0.06979039 -0.04485051 -0.02515434
v -0.06788631 -0.04805972 -0.02303139
v -0.06822964 -0.04843073 -0.02150963
v -0.06807655 -0.04826378 -0.02219671
v -0.06741682 -0.04853275 -0.02303139
v -0.07051136 -0.04173404 -0.01480262
v -0.07041134 -0.04276359 -0.01377469
v -0.07055137 -0.04276359 -0.01583055
v -0.07035092 -0.04482268 -0.01377469
v -0.07029662 -0.04482268 -0.01297758
v -0.07028519 -0.04540702 -0.01314667
v -0.06949400 -0.04585223 -0.00349007
v -0.06925191 -0.04639019 -0.00087597
v -0.06970792 -0.04790668 -0.01069092
v -0.06926211 -0.04749857 -0.00279226
v -0.07030642 -0.04553687 -0.01377469
v -0.07032601 -0.04563426 -0.01480262
v -0.07033091 -0.04563426 -0.01583055
v -0.06980835 -0.04790668 -0.01686116
v -0.06926170 -0.04946491 -0.01541991
v -0.06854522 -0.05084691 -0.01171884
v -0.06819494 -0.05148690 -0.01001995
v -0.06824108 -0.05152864 -0.00933556
v -0.06976508 -0.04790668 -0.01788908
v -0.07029376 -0.04536992 -0.02260197
v -0.06945644 -0.04869043 -0.01788908
v -0.06741682 -0.05236341 -0.00871558
v -0.07158506 -0.03042295 -0.02718335
v -0.07157690 -0.03144786 -0.02714578
v -0.07156342 -0.03247740 -0.02714578
v -0.07155077 -0.03354405 -0.02718335
v -0.07153362 -0.03453649 -0.02718335
v -0.07068119 -0.04070913 -0.01686116
v -0.06954462 -0.04567600 -0.02405932
v -0.06936417 -0.04752640 -0.02072594
v -0.06835294 -0.04754495 -0.02303139
v -0.07005820 -0.04400646 -0.02611785
v -0.07034030 -0.04440066 -0.02476518
v -0.07029825 -0.04331546 -0.02667879
v -0.06974058 -0.04377922 -0.02718335
v -0.06741682 -0.04859768 -0.02288915
v -0.06768218 -0.04912173 -0.02105069
v -0.06834396 -0.04854667 -0.02097554
v -0.06935193 -0.04853275 -0.01865667
v -0.06920373 -0.04837972 -0.01934374
v -0.07040521 -0.04482268 -0.01480262
v -0.07043053 -0.04482268 -0.01583055
v -0.07043583 -0.04482268 -0.01686116
v -0.07057913 -0.04379313 -0.02200347
v -0.07057995 -0.04379313 -0.02303139
v -0.07033091 -0.04561571 -0.01686116
v -0.07032601 -0.04558788 -0.01788908
v -0.07031540 -0.04553223 -0.01994493
v -0.07031009 -0.04549049 -0.02097554
v -0.07030478 -0.04542557 -0.02200347
v -0.06822556 -0.05048518 -0.01635927
v -0.06826476 -0.05053156 -0.01583055
v -0.06885019 -0.05003070 -0.01480262
v -0.06913678 -0.04934433 -0.01686116
v -0.06802103 -0.05128285 -0.01274677
v -0.06808553 -0.05136169 -0.01171884
v -0.06743682 -0.05177907 -0.01377469
v -0.06741682 -0.05193211 -0.01274677
v -0.06741682 -0.05204341 -0.01171884
v -0.07057015 -0.04379313 -0.02405932
v -0.07038399 -0.04453515 -0.02405932
v -0.06898205 -0.04920521 -0.01788908
v -0.07157894 -0.03144786 -0.02718335
v -0.07156506 -0.03251450 -0.02718335
v -0.07153158 -0.03457359 -0.02718335
v -0.07046809 -0.04383951 -0.02510066
v -0.07039011 -0.04349169 -0.02611785
v -0.07031213 -0.04284706 -0.02718335
v -0.06984264 -0.04362154 -0.02718335
v -0.07041869 -0.04272649 -0.02707063
v -0.07040562 -0.04266620 -0.02718335
v -0.06741682 -0.04927941 -0.02124930
v -0.06741682 -0.04944636 -0.02083598
v -0.06801695 -0.04926550 -0.01994493
v -0.07147565 -0.03556604 -0.02718335
v -0.07057301 -0.04379313 -0.02097554
v -0.07134746 -0.03697123 -0.02718335
v -0.07131766 -0.03726804 -0.02718335
v -0.07070895 -0.04276359 -0.02508993
v -0.07043053 -0.04482268 -0.02200347
v -0.07043461 -0.04482268 -0.02097554
v -0.06846806 -0.04967360 -0.01788908
v -0.06789284 -0.05018838 -0.01788908
v -0.06741682 -0.05066141 -0.01776294
v -0.06741682 -0.05114372 -0.01649883
v -0.06741682 -0.05143125 -0.01568830
v -0.06741682 -0.05150082 -0.01540918
v -0.06741682 -0.05164458 -0.01480262
v -0.06788141 -0.05112517 -0.01480262
v -0.06741682 -0.05165849 -0.01471405
v -0.06741682 -0.05175588 -0.01406724
v -0.06741682 -0.05179762 -0.01377469
v -0.07062975 -0.04276359 -0.02611785
v -0.07071957 -0.04173404 -0.02714578
v -0.07071059 -0.04173404 -0.02718335
v -0.06741682 -0.04952056 -0.02065079
v -0.06750255 -0.04972462 -0.01994493
v -0.06770055 -0.04996114 -0.01890359
v -0.07085429 -0.04070913 -0.02718335
v -0.07080571 -0.04173404 -0.02611785
v -0.06741682 -0.05030895 -0.01866472
f 1 2 6
f 1 6 12
f 1 12 11
f 1 11 10
f 1 10 20
f 1 20 35
f 1 35 23
f 1 23 14
f 1 14 7
f 1 7 3
f 1 3 8
f 1 8 16
f 1 16 26
f 1 26 45
f 1 45 44
f 1 44 72
f 1 72 110
f 1 110 112
f 1 112 113
f 1 113 77
f 1 77 47
f 1 47 27
f 1 27 17
f 1 17 9
f 1 9 4
f 1 4 5
f 1 5 2
f 2 5 6
f 3 7 15
f 3 15 8
f 4 9 19
f 4 19 30
f 4 30 29
f 4 29 52
f 4 52 84
f 4 84 125
f 4 125 165
f 4 165 202
f 4 202 201
f 4 201 235
f 4 235 234
f 4 234 233
f 4 233 231
f 4 231 230
f 4 230 229
f 4 229 228
f 4 228 227
f 4 227 244
f 4 244 239
f 4 239 216
f 4 216 215
f 4 215 179
f 4 179 143
f 4 143 101
f 4 101 61
f 4 61 38
f 4 38 21
f 4 21 13
f 4 13 5
f 5 10 11
f 5 11 12
f 5 12 6
f 5 13 22
f 5 22 37
f 5 37 36
f 5 36 60
f 5 60 99
f 5 99 138
f 5 138 137
f 5 137 178
f 5 178 212
f 5 212 211
f 5 211 214
f 5 214 238
f 5 238 242
f 5 242 221
f 5 221 220
f 5 220 218
f 5 218 208
f 5 208 170
f 5 170 169
f 5 169 207
f 5 207 206
f 5 206 166
f 5 166 126
f 5 126 87
f 5 87 86
f 5 86 55
f 5 55 54
f 5 54 34
f 5 34 20
f 5 20 10
f 7 14 15
f 8 15 16
f 9 17 18
f 9 18 19
f 13 21 22
f 14 23 24
f 14 24 15
f 15 24 16
f 16 24 25
f 16 25 26
f 17 27 18
f 18 28 29
f 18 29 30
f 18 30 19
f 18 27 31
f 18 31 32
f 18 32 33
f 18 33 28
f 20 34 35
f 21 36 37
f 21 37 22
f 21 38 36
f 23 35 39
f 23 39 24
f 24 40 41
f 24 41 25
f 24 39 40
f 25 41 42
f 25 42 43
f 25 43 44
f 25 44 45
f 25 45 26
f 27 46 33
f 27 33 32
f 27 32 31
f 27 47 48
f 27 48 49
f 27 49 50
f 27 50 46
f 28 33 51
f 28 51 29
f 29 51 53
f 29 53 52
f 33 46 51
f 34 54 35
f 35 54 55
f 35 55 56
f 35 56 57
f 35 57 58
f 35 58 59
f 35 59 39
f 36 38 61
f 36 61 60
f 39 62 63
f 39 63 64
f 39 64 40
f 39 59 65
f 39 65 62
f 40 64 42
f 40 42 41
f 42 66 43
f 42 64 63
f 42 63 67
f 42 67 65
f 42 65 68
f 42 68 69
f 42 69 70
f 42 70 66
f 43 71 72
f 43 72 44
f 43 66 73
f 43 73 70
f 43 70 74
f 43 74 75
f 43 75 71
f 46 76 51
f 46 50 76
f 47 77 78
f 47 78 50
f 47 50 48
f 48 50 49
f 50 78 79
f 50 79 80
f 50 80 81
f 50 81 82
f 50 82 83
f 50 83 51
f 50 51 76
f 51 83 53
f 52 53 83
f 52 83 85
f 52 85 84
f 55 86 56
f 56 86 87
f 56 87 88
f 56 88 89
f 56 89 57
f 57 89 58
f 58 89 90
f 58 90 91
f 58 91 92
f 58 92 93
f 58 93 94
f 58 94 95
f 58 95 59
f 59 95 65
f 60 96 97
f 60 97 98
f 60 98 99
f 60 61 100
f 60 100 96
f 61 101 100
f 62 65 63
f 63 65 67
f 65 95 92
f 65 92 102
f 65 102 68
f 66 70 73
f 68 102 92
f 68 92 103
f 68 103 104
f 68 104 105
f 68 105 106
f 68 106 107
f 68 107 69
f 69 107 108
f 69 108 109
f 69 109 70
f 70 109 74
f 71 110 72
f 71 75 109
f 71 109 111
f 71 111 112
f 71 112 110
f 74 109 75
f 77 113 78
f 78 113 114
f 78 114 115
f 78 115 116
f 78 116 117
f 78 117 79
f 79 117 118
f 79 118 80
f 80 118 81
f 81 119 120
f 81 120 82
f 81 118 121
f 81 121 122
f 81 122 119
f 82 120 123
f 82 123 83
f 83 123 120
f 83 120 124
f 83 124 85
f 84 85 125
f 85 124 125
f 87 126 88
f 88 126 89
f 89 126 127
f 89 127 128
f 89 128 129
f 89 129 130
f 89 130 90
f 90 130 131
f 90 131 132
f 90 132 133
f 90 133 91
f 91 133 104
f 91 104 103
f 91 103 92
f 92 95 94
f 92 94 93
f 96 100 97
f 97 134 98
f 97 100 135
f 97 135 134
f 98 136 137
f 98 137 138
f 98 138 99
f 98 134 139
f 98 139 136
f 100 101 140
f 100 140 135
f 101 141 142
f 101 142 140
f 101 143 141
f 104 133 144
f 104 144 105
f 105 144 106
f 106 144 145
f 106 145 146
f 106 146 147
f 106 147 148
f 106 148 107
f 107 148 149
f 107 149 150
f 107 150 108
f 108 150 151
f 108 151 109
f 109 151 113
f 109 113 111
f 111 113 112
f 113 152 114
f 113 151 153
f 113 153 149
f 113 149 154
f 113 154 152
f 114 152 115
f 115 152 154
f 115 154 155
f 115 155 116
f 116 155 117
f 117 155 156
f 117 156 118
f 118 156 157
f 118 157 121
f 119 158 159
f 119 159 120
f 119 122 158
f 120 159 160
f 120 160 161
f 120 161 124
f 121 157 122
f 122 157 162
f 122 162 163
f 122 163 164
f 122 164 158
f 124 161 125
f 125 161 165
f 126 166 128
f 126 128 127
f 128 166 129
f 129 166 167
f 129 167 130
f 130 168 169
f 130 169 170
f 130 170 131
f 130 167 168
f 131 170 132
f 132 171 133
f 132 170 146
f 132 146 144
f 132 144 171
f 133 171 144
f 134 172 139
f 134 135 173
f 134 173 172
f 135 140 142
f 135 142 141
f 135 141 174
f 135 174 173
f 136 175 137
f 136 139 176
f 136 176 177
f 136 177 175
f 137 175 178
f 139 172 176
f 141 143 179
f 141 179 180
f 141 180 181
f 141 181 182
f 141 182 183
f 141 183 173
f 141 173 174
f 144 146 145
f 146 170 147
f 147 184 149
f 147 149 148
f 147 170 184
f 149 151 150
f 149 184 154
f 149 153 151
f 154 184 155
f 155 184 185
f 155 185 186
f 155 186 156
f 156 186 187
f 156 187 188
f 156 188 189
f 156 189 157
f 157 189 190
f 157 190 191
f 157 191 192
f 157 192 193
f 157 193 162
f 158 194 195
f 158 195 196
f 158 196 159
f 158 164 197
f 158 197 194
f 159 198 199
f 159 199 160
f 159 196 198
f 160 199 200
f 160 200 161
f 161 200 201
f 161 201 202
f 161 202 165
f 162 193 163
f 163 193 203
f 163 203 204
f 163 204 176
f 163 176 164
f 164 182 205
f 164 205 194
f 164 194 197
f 164 176 182
f 166 206 167
f 167 206 207
f 167 207 168
f 168 207 169
f 170 208 184
f 172 173 176
f 173 183 182
f 173 182 176
f 175 177 178
f 176 204 209
f 176 209 210
f 176 210 177
f 177 211 212
f 177 212 178
f 177 210 213
f 177 213 214
f 177 214 211
f 179 215 180
f 180 215 216
f 180 216 217
f 180 217 181
f 181 217 205
f 181 205 182
f 184 208 218
f 184 218 185
f 185 219 187
f 185 187 186
f 185 218 220
f 185 220 221
f 185 221 219
f 187 219 221
f 187 221 222
f 187 222 188
f 188 222 203
f 188 203 223
f 188 223 224
f 188 224 189
f 189 224 223
f 189 223 190
f 190 223 191
f 191 223 192
f 192 223 193
f 193 223 203
f 194 225 226
f 194 226 227
f 194 227 228
f 194 228 229
f 194 229 230
f 194 230 231
f 194 231 195
f 194 205 225
f 195 231 232
f 195 232 196
f 196 232 198
f 198 232 233
f 198 233 200
f 198 200 199
f 200 233 234
f 200 234 235
f 200 235 201
f 203 222 236
f 203 236 209
f 203 209 204
f 205 217 225
f 209 236 210
f 210 236 213
f 213 237 238
f 213 238 214
f 213 236 237
f 216 239 217
f 217 239 240
f 217 240 241
f 217 241 225
f 221 242 237
f 221 237 243
f 221 243 222
f 222 243 236
f 225 241 226
f 226 244 227
f 226 241 244
f 231 233 232
f 236 243 237
f 237 242 238
f 239 244 240
f 240 244 241

