# https://github.com/mikedh/trimesh
v -0.04006764 0.02522111 0.00013815
v -0.03920425 0.03348139 0.00013815
v -0.03893901 0.02522111 0.00013815
v -0.03987448 0.02522111 0.00371715
v -0.03929003 0.03348139 0.01246139
v -0.03816169 0.03348139 0.00013815
v -0.03837119 0.02662248 0.00013815
v -0.03730354 0.02522111 0.01090168
v -0.03979512 0.02522111 0.00474127
v -0.03977936 0.02522111 0.00484742
v -0.03960866 0.02522111 0.00584139
v -0.03851213 0.02522111 0.01087635
v -0.03811617 0.02522111 0.01246139
v -0.03814973 0.03348139 0.01246139
v -0.03812697 0.03348139 0.00044334
v -0.03808174 0.03335281 0.00062669
v -0.03813747 0.03335281 0.00013815
v -0.03821217 0.02718126 0.00013815
v -0.03717720 0.02522111 0.01184257
v -0.03710571 0.02522111 0.01246139
v -0.03811034 0.03335281 0.01246139
v -0.03814564 0.03348139 0.01237092
v -0.03800442 0.03348139 0.00153984
v -0.03796561 0.03335281 0.00165564
v -0.03807065 0.03232422 0.00013815
v -0.03807153 0.02820985 0.00013815
v -0.03708704 0.02563270 0.01246139
v -0.03734323 0.03083875 0.01246139
v -0.03799625 0.03335281 0.00988359
v -0.03808116 0.03348139 0.01091133
v -0.03799245 0.03348139 0.00165564
v -0.03791250 0.03348139 0.00255431
v -0.03787428 0.03335281 0.00268338
v -0.03807036 0.03129482 0.00013815
v -0.03802834 0.03232422 0.00062669
v -0.03807094 0.02972524 0.00013815
v -0.03794081 0.02923844 0.00165564
v -0.03802980 0.02820985 0.00062669
v -0.03734293 0.02718126 0.00918275
v -0.03712730 0.02615266 0.01194028
v -0.03709346 0.02615266 0.01246139
v -0.03794577 0.02820985 0.00165564
v -0.03729771 0.03063011 0.01246139
v -0.03733185 0.03087594 0.01194028
v -0.03799041 0.03348139 0.00874246
v -0.03802980 0.03348139 0.00974728
v -0.03790433 0.03348139 0.00268338
v -0.03785765 0.03232422 0.00268338
v -0.03793964 0.03232422 0.00165564
v -0.03787778 0.03348139 0.00371233
v -0.03784889 0.03335281 0.00371233
v -0.03732776 0.03090505 0.01091133
v -0.03734323 0.03085815 0.01013450
v -0.03733214 0.03026623 0.00996803
v -0.03785852 0.02923844 0.00268338
v -0.03785823 0.03026623 0.00268338
v -0.03785794 0.03129482 0.00268338
v -0.03715648 0.02923844 0.01246139
v -0.03725482 0.03031232 0.01246139
v -0.03795569 0.03348139 0.00769663
v -0.03795627 0.03335281 0.00885465
v -0.03789967 0.03348139 0.00563994
v -0.03792359 0.03348139 0.00666768
v -0.03718537 0.02974627 0.01246139
f 1 2 6
f 1 6 17
f 1 17 25
f 1 25 34
f 1 34 36
f 1 36 26
f 1 26 18
f 1 18 7
f 1 7 3
f 1 3 8
f 1 8 19
f 1 19 20
f 1 20 13
f 1 13 12
f 1 12 11
f 1 11 10
f 1 10 9
f 1 9 4
f 1 4 5
f 1 5 2
f 2 5 14
f 2 14 22
f 2 22 30
f 2 30 46
f 2 46 45
f 2 45 60
f 2 60 63
f 2 63 62
f 2 62 50
f 2 50 47
f 2 47 32
f 2 32 31
f 2 31 23
f 2 23 15
f 2 15 6
f 3 7 8
f 4 9 5
f 5 9 10
f 5 10 11
f 5 11 12
f 5 12 13
f 5 13 20
f 5 20 27
f 5 27 41
f 5 41 58
f 5 58 64
f 5 64 59
f 5 59 43
f 5 43 28
f 5 28 21
f 5 21 14
f 6 15 16
f 6 16 17
f 7 18 8
f 8 18 19
f 14 21 22
f 15 23 24
f 15 24 16
f 16 24 25
f 16 25 17
f 18 26 20
f 18 20 19
f 20 26 27
f 21 28 29
f 21 29 22
f 22 29 30
f 23 31 24
f 24 31 32
f 24 32 33
f 24 33 25
f 25 33 35
f 25 35 34
f 26 36 37
f 26 37 38
f 26 38 27
f 27 39 40
f 27 40 41
f 27 38 42
f 27 42 39
f 28 43 44
f 28 44 29
f 29 45 46
f 29 46 30
f 29 44 45
f 32 47 33
f 33 48 49
f 33 49 35
f 33 47 50
f 33 50 51
f 33 51 52
f 33 52 53
f 33 53 54
f 33 54 40
f 33 40 48
f 34 35 49
f 34 49 36
f 36 49 37
f 37 42 38
f 37 49 55
f 37 55 39
f 37 39 42
f 39 55 56
f 39 56 57
f 39 57 48
f 39 48 40
f 40 54 41
f 41 54 58
f 43 59 52
f 43 52 44
f 44 60 61
f 44 61 45
f 44 52 50
f 44 50 62
f 44 62 63
f 44 63 60
f 45 61 60
f 48 57 49
f 49 57 56
f 49 56 55
f 50 52 51
f 52 59 64
f 52 64 53
f 53 64 58
f 53 58 54

