# https://github.com/mikedh/trimesh
v -0.05144009 0.01262611 0.04797055
v -0.05144009 0.01262611 0.04682736
v -0.05127998 0.01262611 0.04795518
v -0.04535753 0.01848941 0.04539755
v -0.05021872 0.01663633 0.04648473
v -0.05124728 0.01672628 0.04654074
v -0.05144009 0.01673348 0.04655172
v -0.04287706 0.01262611 0.04549968
v -0.05144009 0.02942800 0.03675167
v -0.05124728 0.01262611 0.04795188
v -0.04503898 0.01800185 0.04551725
v -0.04404730 0.01775897 0.04547771
v -0.04404730 0.01827352 0.04527784
v -0.04404730 0.01895178 0.04498244
v -0.04404730 0.01981895 0.04456184
v -0.04507587 0.01993410 0.04461455
v -0.04610444 0.01854339 0.04543049
v -0.05038889 0.01262611 0.04786183
v -0.05144009 0.01715087 0.04633977
v -0.04287706 0.02799051 0.03675167
v -0.04287706 0.01262611 0.04686031
v -0.05144009 0.03100582 0.03675167
v -0.04344961 0.01757367 0.04542281
v -0.04816074 0.01263151 0.04757521
v -0.04301370 0.01262611 0.04690313
v -0.04341440 0.01965344 0.04445422
v -0.04349068 0.02156229 0.04333958
v -0.04404730 0.02162346 0.04338241
v -0.04566266 0.02049182 0.04433672
v -0.04713301 0.01857037 0.04545575
v -0.04813224 0.01262611 0.04757302
v -0.04957408 0.02256440 0.04332201
v -0.05144009 0.02402707 0.04253462
v -0.04287706 0.02996233 0.03675167
v -0.04287706 0.01294636 0.04676147
v -0.05144009 0.03070537 0.03707014
v -0.05124728 0.03070177 0.03706575
v -0.05124728 0.03099682 0.03675167
v -0.04287706 0.01689540 0.04524051
v -0.04287706 0.01740275 0.04501429
v -0.04323584 0.01895178 0.04462553
v -0.04287706 0.01406720 0.04640457
v -0.04287706 0.01440004 0.04627169
v -0.04287706 0.01895178 0.04427083
v -0.04287706 0.02010681 0.04368001
v -0.04287706 0.02053860 0.04344610
v -0.04287706 0.02215780 0.04256208
v -0.04287706 0.02442288 0.04123769
v -0.04287706 0.02457220 0.04114654
v -0.04287706 0.02526126 0.04070837
v -0.04287706 0.02580999 0.04034817
v -0.04301873 0.02583158 0.04036355
v -0.04507587 0.02170982 0.04344171
v -0.04610444 0.02179438 0.04350101
v -0.05021872 0.02391193 0.04251156
v -0.05124728 0.02399469 0.04254341
v -0.05144009 0.02563907 0.04146171
v -0.04304891 0.03004689 0.03675167
v -0.04287706 0.02977523 0.03700316
v -0.05144009 0.03060102 0.03717996
v -0.05144009 0.02966908 0.03808814
v -0.05021872 0.03065679 0.03702182
v -0.05066887 0.03096804 0.03675167
v -0.04287706 0.02705677 0.03947403
v -0.04301873 0.02708736 0.03949490
v -0.04301873 0.02634612 0.04000884
v -0.04507587 0.02600429 0.04048215
v -0.04816074 0.02677611 0.04030534
v -0.04713301 0.02365466 0.04233805
v -0.05144009 0.02630295 0.04100817
v -0.05144009 0.02578840 0.04136178
v -0.04404730 0.03022860 0.03675167
v -0.04351667 0.02975364 0.03714591
v -0.04287706 0.02963490 0.03714372
v -0.05144009 0.02959891 0.03815623
v -0.04918931 0.03082771 0.03675167
v -0.04972832 0.03088528 0.03675167
v -0.05021872 0.03092846 0.03675167
v -0.05144009 0.02810385 0.03958934
v -0.05021872 0.03014225 0.03751490
v -0.04287706 0.02766667 0.03899743
v -0.04301873 0.02760190 0.03911383
v -0.05021872 0.02694163 0.04042285
v -0.04918931 0.02686067 0.04036355
v -0.04448488 0.02770265 0.03920827
v -0.05144009 0.02689665 0.04058977
v -0.04507587 0.03034914 0.03675167
v -0.04404730 0.02978602 0.03717557
v -0.04311178 0.02930926 0.03750831
v -0.04301873 0.02814883 0.03859879
v -0.04301873 0.02866338 0.03811230
v -0.04287706 0.02812005 0.03857134
v -0.05021872 0.02960431 0.03802994
v -0.05021872 0.02855183 0.03903696
v -0.04918931 0.03059922 0.03697021
v -0.04694607 0.03056683 0.03675167
v -0.05144009 0.02800131 0.03968598
v -0.05021872 0.02803729 0.03952674
v -0.05124728 0.02701899 0.04048215
v -0.04610444 0.02831255 0.03880854
v -0.05124728 0.02753354 0.04009449
v -0.05021872 0.02745618 0.04004068
v -0.05144009 0.02703158 0.04049313
v -0.04713301 0.02891166 0.03835170
v -0.05144009 0.02754613 0.04010328
v -0.05144009 0.02744898 0.04017796
f 1 2 8
f 1 8 21
f 1 21 25
f 1 25 31
f 1 31 18
f 1 18 10
f 1 10 3
f 1 3 4
f 1 4 5
f 1 5 6
f 1 6 7
f 1 7 19
f 1 19 33
f 1 33 57
f 1 57 71
f 1 71 70
f 1 70 86
f 1 86 103
f 1 103 106
f 1 106 105
f 1 105 97
f 1 97 79
f 1 79 75
f 1 75 61
f 1 61 60
f 1 60 36
f 1 36 22
f 1 22 9
f 1 9 2
f 2 9 8
f 3 10 4
f 4 11 12
f 4 12 13
f 4 13 14
f 4 14 15
f 4 15 16
f 4 16 17
f 4 17 6
f 4 6 5
f 4 10 18
f 4 18 11
f 6 17 7
f 7 17 19
f 8 20 34
f 8 34 59
f 8 59 74
f 8 74 92
f 8 92 81
f 8 81 64
f 8 64 51
f 8 51 50
f 8 50 49
f 8 49 48
f 8 48 47
f 8 47 46
f 8 46 45
f 8 45 44
f 8 44 40
f 8 40 39
f 8 39 43
f 8 43 42
f 8 42 35
f 8 35 21
f 8 9 20
f 9 22 38
f 9 38 63
f 9 63 78
f 9 78 77
f 9 77 76
f 9 76 96
f 9 96 87
f 9 87 72
f 9 72 58
f 9 58 34
f 9 34 20
f 11 18 12
f 12 23 13
f 12 18 24
f 12 24 25
f 12 25 23
f 13 23 14
f 14 23 26
f 14 26 15
f 15 26 27
f 15 27 28
f 15 28 29
f 15 29 16
f 16 29 17
f 17 29 30
f 17 30 19
f 18 31 24
f 19 30 32
f 19 32 33
f 21 35 25
f 22 36 37
f 22 37 38
f 23 39 40
f 23 40 41
f 23 41 26
f 23 25 42
f 23 42 43
f 23 43 39
f 24 31 25
f 25 35 42
f 26 41 44
f 26 44 45
f 26 45 46
f 26 46 47
f 26 47 48
f 26 48 27
f 27 48 49
f 27 49 50
f 27 50 51
f 27 51 52
f 27 52 28
f 28 53 29
f 28 52 67
f 28 67 53
f 29 53 54
f 29 54 55
f 29 55 56
f 29 56 32
f 29 32 30
f 32 56 33
f 33 56 57
f 34 58 59
f 36 60 37
f 37 60 61
f 37 61 62
f 37 62 63
f 37 63 38
f 40 44 41
f 51 64 65
f 51 65 66
f 51 66 52
f 52 66 67
f 53 67 68
f 53 68 69
f 53 69 70
f 53 70 54
f 54 70 71
f 54 71 55
f 55 71 57
f 55 57 56
f 58 72 59
f 59 73 74
f 59 72 73
f 61 75 62
f 62 76 77
f 62 77 78
f 62 78 63
f 62 75 79
f 62 79 80
f 62 80 76
f 64 81 82
f 64 82 65
f 65 83 84
f 65 84 68
f 65 68 66
f 65 82 85
f 65 85 83
f 66 68 67
f 68 84 70
f 68 70 69
f 70 84 83
f 70 83 86
f 72 87 88
f 72 88 73
f 73 89 74
f 73 88 85
f 73 85 90
f 73 90 91
f 73 91 89
f 74 89 91
f 74 91 90
f 74 90 92
f 76 80 93
f 76 93 94
f 76 94 95
f 76 95 96
f 79 97 98
f 79 98 94
f 79 94 93
f 79 93 80
f 81 92 82
f 82 92 90
f 82 90 85
f 83 99 86
f 83 85 99
f 85 100 98
f 85 98 101
f 85 101 102
f 85 102 99
f 85 88 100
f 86 99 103
f 87 96 88
f 88 96 95
f 88 95 104
f 88 104 100
f 94 98 100
f 94 100 104
f 94 104 95
f 97 105 98
f 98 105 101
f 99 102 101
f 99 101 103
f 101 105 106
f 101 106 103

