# https://github.com/mikedh/trimesh
v -0.05961062 -0.00517124 0.05104198
v -0.06050553 -0.00517124 0.05083101
v -0.05961062 -0.00517124 0.04995385
v -0.05961062 -0.00470668 0.05104042
v -0.06050553 -0.00264908 0.05084192
v -0.06050553 -0.00367691 0.05083776
v -0.06116226 -0.00470668 0.05058002
v -0.06115280 -0.00517124 0.05057534
v -0.06117031 -0.00161931 0.05060808
v -0.06117767 -0.00264908 0.05059924
v -0.06117732 -0.00367691 0.05058937
v -0.06318850 -0.00517124 0.04750010
v -0.05994792 0.01218388 0.04636676
v -0.05961062 0.01178126 0.04691031
v -0.05961062 -0.00367691 0.05103678
v -0.05961062 -0.00264908 0.05102639
v -0.06050553 -0.00161931 0.05083101
v -0.06167644 -0.00470668 0.05033111
v -0.06138467 -0.00517124 0.05046362
v -0.06298955 -0.00517124 0.04953346
v -0.06259516 -0.00517124 0.04978808
v -0.06169150 -0.00367691 0.05032591
v -0.06114369 -0.00059147 0.05059613
v -0.06318815 0.00763895 0.04573384
v -0.06086209 0.01322139 0.04573384
v -0.06318850 -0.00517124 0.04930014
v -0.06318850 0.00763508 0.04573488
v -0.05994792 0.01242777 0.04636676
v -0.05961062 0.01179675 0.04691031
v -0.05961062 -0.00161931 0.05097962
v -0.06050553 -0.00059147 0.05076969
v -0.06216014 -0.00517124 0.05004998
v -0.06166663 -0.00517124 0.05032695
v -0.06306836 -0.00517124 0.04947734
v -0.06108695 0.00017118 0.05055871
v -0.06210935 0.00429413 0.04952722
v -0.06215979 0.00352374 0.04956671
v -0.06318850 0.00822352 0.04573384
v -0.06089151 0.01395888 0.04573384
v -0.06318850 -0.00470668 0.04927624
v -0.05989958 0.01243551 0.04691550
v -0.05961062 0.01180449 0.04694564
v -0.06090132 0.01400146 0.04573384
v -0.05961062 -0.00059147 0.05087933
v -0.06000641 0.00200038 0.05051870
v -0.06056052 0.00048282 0.05062834
v -0.06318850 -0.00161931 0.04908657
v -0.06267432 0.00352374 0.04917179
v -0.06318850 0.00557747 0.04860382
v -0.06318850 0.00273786 0.04880284
v -0.06318850 0.00178552 0.04886884
v -0.06160428 0.00460384 0.04963427
v -0.06199412 0.00497742 0.04945187
v -0.06310724 0.00725956 0.04849418
v -0.06315242 0.00660724 0.04854458
v -0.06318850 0.00588524 0.04857940
v -0.06318850 0.01293104 0.04573384
v -0.05991254 0.01232905 0.04747620
v -0.05961062 0.01182965 0.04762845
v -0.05961062 0.01185675 0.04750789
v -0.06156295 0.01460151 0.04573384
v -0.06075071 0.01353497 0.04653720
v -0.05961062 0.00044217 0.05075046
v -0.05961062 0.00146613 0.05062055
v -0.05961062 0.00213200 0.05053533
v -0.05961062 0.00647368 0.04977977
v -0.06046735 0.00652595 0.04956048
v -0.06050553 0.00557747 0.04972832
v -0.06125683 0.00557747 0.04954437
v -0.06104667 0.00612720 0.04949293
v -0.06153353 0.00763508 0.04899771
v -0.06259936 0.00761572 0.04865630
v -0.06296678 0.00794478 0.04837102
v -0.06302458 0.01009917 0.04738006
v -0.06313175 0.00941395 0.04751309
v -0.06318850 0.00893197 0.04762326
v -0.06318850 0.00740667 0.04828632
v -0.06318850 0.00711632 0.04837466
v -0.06318850 0.00660724 0.04847859
v -0.06318850 0.00651627 0.04849210
v -0.06318850 0.01277812 0.04581958
v -0.06305750 0.01221678 0.04637923
v -0.06294402 0.01352722 0.04573384
v -0.06014056 0.01232905 0.04747620
v -0.05961062 0.01033726 0.04852327
v -0.06253527 0.01433633 0.04573384
v -0.06153353 0.01352916 0.04652733
v -0.05961062 0.00754604 0.04957919
v -0.06009923 0.00726150 0.04951267
v -0.05961062 0.00805512 0.04944668
v -0.06228133 0.00837063 0.04855445
v -0.06212792 0.01336656 0.04643327
v -0.06318850 0.00950299 0.04736447
v -0.06318850 0.01204257 0.04619995
v -0.06283999 0.01377886 0.04573384
v -0.06318850 0.01116766 0.04660164
v -0.06049222 0.01177545 0.04763209
v -0.06000606 0.01021725 0.04846248
v -0.06041131 0.00965978 0.04858355
v -0.05961062 0.00968881 0.04879557
v -0.05961062 0.00864162 0.04921959
v -0.06153108 0.00869388 0.04866670
v -0.06132793 0.01145026 0.04752296
f 1 2 8
f 1 8 19
f 1 19 33
f 1 33 32
f 1 32 21
f 1 21 20
f 1 20 34
f 1 34 26
f 1 26 12
f 1 12 3
f 1 3 14
f 1 14 29
f 1 29 42
f 1 42 60
f 1 60 59
f 1 59 85
f 1 85 100
f 1 100 101
f 1 101 90
f 1 90 88
f 1 88 66
f 1 66 65
f 1 65 64
f 1 64 63
f 1 63 44
f 1 44 30
f 1 30 16
f 1 16 15
f 1 15 4
f 1 4 5
f 1 5 6
f 1 6 2
f 2 7 8
f 2 6 9
f 2 9 10
f 2 10 11
f 2 11 7
f 3 12 13
f 3 13 14
f 4 15 5
f 5 15 16
f 5 16 17
f 5 17 9
f 5 9 6
f 7 18 19
f 7 19 8
f 7 11 18
f 9 20 21
f 9 21 22
f 9 22 18
f 9 18 10
f 9 17 23
f 9 23 20
f 10 18 11
f 12 24 25
f 12 25 13
f 12 26 40
f 12 40 47
f 12 47 51
f 12 51 50
f 12 50 49
f 12 49 56
f 12 56 80
f 12 80 79
f 12 79 78
f 12 78 77
f 12 77 76
f 12 76 93
f 12 93 96
f 12 96 94
f 12 94 81
f 12 81 57
f 12 57 38
f 12 38 27
f 12 27 24
f 13 25 28
f 13 28 29
f 13 29 14
f 16 30 17
f 17 30 31
f 17 31 23
f 18 32 33
f 18 33 19
f 18 22 32
f 20 23 34
f 21 32 22
f 23 31 35
f 23 35 36
f 23 36 37
f 23 37 34
f 24 27 38
f 24 38 57
f 24 57 83
f 24 83 95
f 24 95 86
f 24 86 61
f 24 61 43
f 24 43 39
f 24 39 25
f 25 39 28
f 26 34 40
f 28 41 42
f 28 42 29
f 28 39 43
f 28 43 41
f 30 44 31
f 31 44 45
f 31 45 46
f 31 46 35
f 34 47 40
f 34 37 48
f 34 48 49
f 34 49 50
f 34 50 51
f 34 51 47
f 35 46 45
f 35 45 52
f 35 52 53
f 35 53 36
f 36 53 54
f 36 54 55
f 36 55 37
f 37 55 56
f 37 56 48
f 41 58 59
f 41 59 60
f 41 60 42
f 41 43 58
f 43 61 62
f 43 62 58
f 44 63 45
f 45 63 64
f 45 64 65
f 45 65 66
f 45 66 67
f 45 67 68
f 45 68 69
f 45 69 52
f 48 56 49
f 52 69 53
f 53 69 70
f 53 70 71
f 53 71 72
f 53 72 54
f 54 72 73
f 54 73 74
f 54 74 75
f 54 75 76
f 54 76 77
f 54 77 78
f 54 78 79
f 54 79 55
f 55 79 80
f 55 80 56
f 57 81 82
f 57 82 83
f 58 84 85
f 58 85 59
f 58 62 61
f 58 61 84
f 61 86 87
f 61 87 84
f 66 88 67
f 67 88 89
f 67 89 70
f 67 70 69
f 67 69 68
f 70 89 71
f 71 90 91
f 71 91 72
f 71 89 90
f 72 91 73
f 73 91 92
f 73 92 74
f 74 92 86
f 74 86 82
f 74 82 75
f 75 93 76
f 75 82 93
f 81 94 82
f 82 86 95
f 82 95 83
f 82 94 96
f 82 96 93
f 84 87 97
f 84 97 85
f 85 98 99
f 85 99 100
f 85 97 98
f 86 92 87
f 87 92 97
f 88 90 89
f 90 101 102
f 90 102 91
f 91 102 92
f 92 103 97
f 92 102 103
f 97 103 98
f 98 103 99
f 99 102 100
f 99 103 102
f 100 102 101

