# https://github.com/mikedh/trimesh
v -0.04430455 0.04350392 0.01246139
v -0.04506527 0.04385195 0.01246139
v -0.04430455 0.04208475 0.01246139
v -0.04430455 0.04405979 0.01075331
v -0.04446103 0.04420285 0.01061700
v -0.04469714 0.04410037 0.01130216
v -0.04636877 0.04420654 0.01246139
v -0.04538311 0.04419588 0.01161459
v -0.05144093 0.04356828 0.01246139
v -0.04430455 0.04260905 0.00013815
v -0.04430455 0.04427254 0.00999698
v -0.04505480 0.04427992 0.01094028
v -0.04430455 0.04466156 0.00808384
v -0.04430455 0.04471732 0.00780640
v -0.04555286 0.04518996 0.00734561
v -0.04507575 0.04452219 0.00988359
v -0.04713298 0.04446931 0.01194028
v -0.04713298 0.04433854 0.01246139
v -0.04713298 0.04523547 0.00857720
v -0.04808021 0.04534164 0.00894029
v -0.04961422 0.04622955 0.00635164
v -0.05144093 0.04463410 0.01246139
v -0.05144093 0.04504116 0.00013815
v -0.04430455 0.04415120 0.00013815
v -0.04430455 0.04480463 0.00679675
v -0.04546345 0.04521251 0.00679675
v -0.04713298 0.04540436 0.00782570
v -0.04812841 0.04445127 0.01246139
v -0.04955135 0.04624266 0.00577022
v -0.05021847 0.04626685 0.00577022
v -0.05021847 0.04622996 0.00636008
v -0.05144093 0.04563474 0.00885465
v -0.05144093 0.04558801 0.00904765
v -0.05124673 0.04563310 0.00885465
v -0.05124673 0.04536583 0.00988359
v -0.05124673 0.04520636 0.01048552
v -0.05021847 0.04559006 0.00885465
v -0.04918950 0.04528138 0.00972798
v -0.05073889 0.04460008 0.01246139
v -0.05144093 0.04520964 0.01050000
v -0.05144093 0.04600285 0.00013815
v -0.04443448 0.04426639 0.00013815
v -0.04430455 0.04438199 0.00145419
v -0.04430455 0.04479848 0.00577022
v -0.04481030 0.04508174 0.00474127
v -0.04537124 0.04523424 0.00577022
v -0.04610471 0.04541461 0.00577022
v -0.05065576 0.04518709 0.01041556
v -0.04868166 0.04448776 0.01246139
v -0.04955275 0.04624020 0.00474127
v -0.05021847 0.04627259 0.00474127
v -0.04610471 0.04551053 0.00165564
v -0.04713298 0.04573271 0.00013815
v -0.05123346 0.04623651 0.00577746
v -0.05088139 0.04621807 0.00631787
v -0.05124673 0.04626603 0.00474127
v -0.05144093 0.04616806 0.00616105
v -0.05144093 0.04533918 0.01001025
v -0.05027505 0.04529163 0.00994873
v -0.04970992 0.04454556 0.01246139
v -0.05144093 0.04621438 0.00201873
v -0.05075914 0.04599794 0.00013815
v -0.04473975 0.04453695 0.00013815
v -0.04430455 0.04441602 0.00165564
v -0.04536286 0.04508871 0.00013815
v -0.04430455 0.04478045 0.00474127
v -0.04481310 0.04507314 0.00371233
v -0.04541595 0.04528630 0.00165564
v -0.04532723 0.04525924 0.00371233
v -0.04532444 0.04524448 0.00474127
v -0.04960095 0.04622749 0.00371233
v -0.04965404 0.04621766 0.00291136
v -0.05021847 0.04624799 0.00371233
v -0.05124673 0.04625455 0.00371233
v -0.05144093 0.04625373 0.00371233
v -0.04610471 0.04550028 0.00062669
v -0.04606560 0.04545601 0.00013815
v -0.04816124 0.04587086 0.00013815
v -0.05144093 0.04625988 0.00474489
v -0.05144093 0.04623242 0.00568699
v -0.05144093 0.04621807 0.00216468
v -0.05124673 0.04621397 0.00204526
v -0.04973088 0.04599015 0.00013815
v -0.04430455 0.04458163 0.00268338
v -0.04552771 0.04522932 0.00013815
v -0.04430455 0.04471404 0.00375575
v -0.04548091 0.04526006 0.00062669
v -0.04870192 0.04592784 0.00013815
v -0.04991180 0.04619798 0.00222620
v -0.05059778 0.04621151 0.00213332
v -0.05024012 0.04622094 0.00261462
v -0.05124673 0.04622955 0.00268338
v -0.05144093 0.04623077 0.00268338
v -0.04918950 0.04596924 0.00013815
f 1 2 7
f 1 7 18
f 1 18 28
f 1 28 49
f 1 49 60
f 1 60 39
f 1 39 22
f 1 22 9
f 1 9 3
f 1 3 10
f 1 10 24
f 1 24 43
f 1 43 64
f 1 64 84
f 1 84 86
f 1 86 66
f 1 66 44
f 1 44 25
f 1 25 14
f 1 14 13
f 1 13 11
f 1 11 4
f 1 4 5
f 1 5 6
f 1 6 2
f 2 6 8
f 2 8 7
f 3 9 10
f 4 11 5
f 5 12 6
f 5 11 13
f 5 13 14
f 5 14 15
f 5 15 16
f 5 16 12
f 6 12 8
f 7 17 18
f 7 8 19
f 7 19 20
f 7 20 21
f 7 21 17
f 8 12 16
f 8 16 15
f 8 15 19
f 9 22 40
f 9 40 58
f 9 58 33
f 9 33 32
f 9 32 57
f 9 57 80
f 9 80 79
f 9 79 75
f 9 75 93
f 9 93 81
f 9 81 61
f 9 61 41
f 9 41 23
f 9 23 10
f 10 23 41
f 10 41 62
f 10 62 83
f 10 83 94
f 10 94 88
f 10 88 78
f 10 78 53
f 10 53 77
f 10 77 85
f 10 85 65
f 10 65 63
f 10 63 42
f 10 42 24
f 14 25 26
f 14 26 15
f 15 27 19
f 15 26 21
f 15 21 27
f 17 21 18
f 18 21 28
f 19 27 21
f 19 21 20
f 21 29 30
f 21 30 31
f 21 31 32
f 21 32 33
f 21 33 34
f 21 34 35
f 21 35 36
f 21 36 37
f 21 37 38
f 21 38 28
f 21 26 29
f 22 39 36
f 22 36 40
f 24 42 43
f 25 44 45
f 25 45 46
f 25 46 26
f 26 46 47
f 26 47 29
f 28 38 48
f 28 48 49
f 29 50 51
f 29 51 30
f 29 47 52
f 29 52 53
f 29 53 50
f 30 54 55
f 30 55 31
f 30 51 56
f 30 56 54
f 31 55 32
f 32 55 57
f 33 58 34
f 34 58 35
f 35 58 40
f 35 40 36
f 36 48 59
f 36 59 37
f 36 39 60
f 36 60 49
f 36 49 48
f 37 59 38
f 38 59 48
f 41 61 62
f 42 63 43
f 43 63 65
f 43 65 64
f 44 66 67
f 44 67 45
f 45 67 68
f 45 68 69
f 45 69 70
f 45 70 46
f 46 70 52
f 46 52 47
f 50 71 51
f 50 53 71
f 51 71 72
f 51 72 73
f 51 73 74
f 51 74 75
f 51 75 56
f 52 68 76
f 52 76 53
f 52 70 69
f 52 69 68
f 53 76 77
f 53 78 72
f 53 72 71
f 54 56 79
f 54 79 80
f 54 80 55
f 55 80 57
f 56 75 79
f 61 81 82
f 61 82 83
f 61 83 62
f 64 65 84
f 65 85 84
f 66 86 67
f 67 86 87
f 67 87 68
f 68 87 76
f 72 78 88
f 72 88 89
f 72 89 90
f 72 90 91
f 72 91 73
f 73 91 82
f 73 82 92
f 73 92 74
f 74 92 93
f 74 93 75
f 76 87 77
f 77 87 85
f 81 93 82
f 82 93 92
f 82 91 90
f 82 90 83
f 83 90 89
f 83 89 94
f 84 85 87
f 84 87 86
f 88 94 89

