# https://github.com/mikedh/trimesh
v -0.05568011 -0.00517124 -0.05134442
v -0.05568011 -0.00517124 -0.05020888
v -0.05568011 -0.00492116 -0.05134988
v -0.05536142 -0.00470643 -0.05138958
v -0.05539033 -0.00517124 -0.05137618
v -0.04847724 -0.00517124 -0.04827281
v -0.05568011 0.00820490 -0.04859242
v -0.05568011 -0.00470643 -0.05135434
v -0.05433274 -0.00470643 -0.05149480
v -0.05227538 -0.00264947 -0.05174046
v -0.05330406 -0.00367729 -0.05162085
v -0.05433274 -0.00517124 -0.05148090
v -0.04847724 -0.00517124 -0.04976221
v -0.04847724 0.00820490 -0.04667075
v -0.05568011 0.00820490 -0.04963912
v -0.05568011 -0.00435684 -0.05135236
v -0.05433274 -0.00367729 -0.05150671
v -0.05330406 -0.00517124 -0.05157966
v -0.05386881 -0.00517124 -0.05152557
v -0.05227538 -0.00367729 -0.05172210
v -0.05124741 -0.00264947 -0.05173451
v -0.05568011 -0.00393392 -0.05134690
v -0.05330406 -0.00264947 -0.05161490
v -0.05227538 -0.00162033 -0.05171565
v -0.05124741 -0.00162033 -0.05172458
v -0.04889675 -0.00517124 -0.05010962
v -0.04847724 -0.00470643 -0.04979943
v -0.04847724 0.00820490 -0.04817404
v -0.05556800 0.00820490 -0.04964359
v -0.05568011 0.00531651 -0.05035231
v -0.05227538 -0.00470643 -0.05169183
v -0.05227538 -0.00517124 -0.05167793
v -0.05049159 -0.00264947 -0.05149430
v -0.05053248 -0.00367729 -0.05146551
v -0.05059170 -0.00517124 -0.05142333
v -0.05124741 -0.00367729 -0.05169084
v -0.05046902 -0.00162033 -0.05149132
v -0.05496729 -0.00181280 -0.05133797
v -0.05512241 -0.00264947 -0.05136079
v -0.05433274 -0.00264947 -0.05147494
v -0.05568011 0.00249228 -0.05087392
v -0.05330406 -0.00162033 -0.05156874
v -0.05422557 -0.00059251 -0.05137965
v -0.05330406 -0.00059251 -0.05151018
v -0.05400630 0.00043663 -0.05134739
v -0.05386106 0.00097607 -0.05132605
v -0.05227538 -0.00059251 -0.05161440
v -0.05124741 -0.00059251 -0.05157817
v -0.05055998 -0.00059251 -0.05141489
v -0.04941144 -0.00517124 -0.05052453
v -0.04887489 -0.00470643 -0.05012848
v -0.04847724 -0.00059251 -0.05008679
v -0.04847724 0.00760784 -0.04836661
v -0.04856678 0.00820490 -0.04824353
v -0.05536142 0.00820490 -0.04965153
v -0.05536142 0.00534139 -0.05035826
v -0.05568011 0.00455055 -0.05053296
v -0.05124741 -0.00517124 -0.05162632
v -0.05124741 -0.00470643 -0.05164666
v -0.04997760 -0.00264947 -0.05111562
v -0.04995433 -0.00162033 -0.05114590
v -0.04925350 -0.00162033 -0.05063173
v -0.05005939 -0.00470643 -0.05105408
v -0.05007772 -0.00517124 -0.05103869
v -0.05096186 -0.00517124 -0.05153847
v -0.05004599 -0.00059251 -0.05114242
v -0.04871414 0.00043663 -0.05025057
v -0.04921261 -0.00059251 -0.05062825
v -0.05483968 -0.00112802 -0.05131116
v -0.05443145 -0.00152999 -0.05140050
v -0.05568011 0.00281045 -0.05084017
v -0.05330406 0.00097215 -0.05132506
v -0.05235082 0.00052828 -0.05140943
v -0.05568011 0.00352142 -0.05075332
v -0.05536142 0.00352142 -0.05077019
v -0.05433274 0.00455055 -0.05054835
v -0.05155693 0.00522486 -0.05032750
v -0.05124741 0.00024416 -0.05139206
v -0.05068054 0.00002681 -0.05134442
v -0.04939452 0.00146576 -0.05043271
v -0.04922812 0.00043663 -0.05055033
v -0.04938958 -0.00470643 -0.05053942
v -0.04882694 -0.00367729 -0.05015974
v -0.04934164 -0.00367729 -0.05057018
v -0.04929510 -0.00264947 -0.05060096
v -0.04869792 -0.00059251 -0.05026000
v -0.04847724 0.00043663 -0.05008729
v -0.04847724 0.00753976 -0.04838795
v -0.04849768 0.00763534 -0.04837306
v -0.04861613 0.00820490 -0.04828174
v -0.05433274 0.00820490 -0.04968379
v -0.05433274 0.00537543 -0.05036323
v -0.05536142 0.00455055 -0.05054339
v -0.05330406 0.00820490 -0.04969819
v -0.05568011 0.00383958 -0.05068980
v -0.04847724 0.00146576 -0.04994782
v -0.05274354 0.00095382 -0.05132159
v -0.05227538 0.00352142 -0.05074687
v -0.05330406 0.00535317 -0.05035628
v -0.05330406 0.00455055 -0.05053396
v -0.05227538 0.00532044 -0.05034883
v -0.05227538 0.00820490 -0.04969074
v -0.05181568 0.00820490 -0.04965253
v -0.05124741 0.00820490 -0.04958949
v -0.05122767 0.00458459 -0.05041137
v -0.05061779 0.00426512 -0.05034437
v -0.05043871 0.00820490 -0.04936070
v -0.05021450 0.00754499 -0.04941033
v -0.04969628 0.00714041 -0.04926789
v -0.04918511 0.00549196 -0.04941380
v -0.04866619 0.00509130 -0.04926988
v -0.04847724 0.00418525 -0.04937360
v -0.04847724 0.00254989 -0.04972697
v -0.04847724 0.00492764 -0.04918352
v -0.04886784 0.00820490 -0.04845148
v -0.04996420 0.00820490 -0.04912099
v -0.04847724 0.00443926 -0.04931107
v -0.04883893 0.00577609 -0.04917310
v -0.04920133 0.00820490 -0.04866489
v -0.04975480 0.00820490 -0.04899939
f 1 2 7
f 1 7 15
f 1 15 30
f 1 30 57
f 1 57 95
f 1 95 74
f 1 74 71
f 1 71 41
f 1 41 22
f 1 22 16
f 1 16 8
f 1 8 3
f 1 3 4
f 1 4 5
f 1 5 12
f 1 12 19
f 1 19 18
f 1 18 32
f 1 32 58
f 1 58 65
f 1 65 35
f 1 35 64
f 1 64 50
f 1 50 26
f 1 26 13
f 1 13 6
f 1 6 2
f 2 6 7
f 3 8 4
f 4 9 5
f 4 8 10
f 4 10 11
f 4 11 9
f 5 9 12
f 6 13 27
f 6 27 52
f 6 52 87
f 6 87 96
f 6 96 113
f 6 113 112
f 6 112 117
f 6 117 114
f 6 114 88
f 6 88 53
f 6 53 28
f 6 28 14
f 6 14 7
f 7 14 28
f 7 28 54
f 7 54 90
f 7 90 115
f 7 115 119
f 7 119 120
f 7 120 116
f 7 116 107
f 7 107 104
f 7 104 103
f 7 103 102
f 7 102 94
f 7 94 91
f 7 91 55
f 7 55 29
f 7 29 15
f 8 16 17
f 8 17 10
f 9 18 19
f 9 19 12
f 9 11 20
f 9 20 18
f 10 21 20
f 10 20 11
f 10 17 22
f 10 22 23
f 10 23 24
f 10 24 25
f 10 25 21
f 13 26 27
f 15 29 30
f 16 22 17
f 18 20 31
f 18 31 32
f 20 21 31
f 21 33 34
f 21 34 35
f 21 35 36
f 21 36 32
f 21 32 31
f 21 25 37
f 21 37 33
f 22 38 39
f 22 39 40
f 22 40 24
f 22 24 23
f 22 41 38
f 24 40 42
f 24 42 43
f 24 43 44
f 24 44 45
f 24 45 46
f 24 46 47
f 24 47 25
f 25 47 48
f 25 48 49
f 25 49 37
f 26 50 51
f 26 51 27
f 27 51 52
f 28 53 54
f 29 55 30
f 30 56 57
f 30 55 56
f 32 36 59
f 32 59 58
f 33 60 34
f 33 37 61
f 33 61 62
f 33 62 60
f 34 60 35
f 35 63 64
f 35 65 36
f 35 60 63
f 36 65 59
f 37 49 66
f 37 66 67
f 37 67 68
f 37 68 61
f 38 69 45
f 38 45 43
f 38 43 39
f 38 41 69
f 39 43 70
f 39 70 42
f 39 42 40
f 41 71 46
f 41 46 45
f 41 45 69
f 42 70 43
f 43 45 44
f 46 72 73
f 46 73 47
f 46 71 74
f 46 74 75
f 46 75 76
f 46 76 72
f 47 73 48
f 48 73 77
f 48 77 78
f 48 78 79
f 48 79 49
f 49 79 80
f 49 80 81
f 49 81 66
f 50 64 82
f 50 82 51
f 51 82 83
f 51 83 52
f 52 83 84
f 52 84 85
f 52 85 86
f 52 86 87
f 53 88 89
f 53 89 90
f 53 90 54
f 55 91 56
f 56 92 93
f 56 93 57
f 56 91 94
f 56 94 92
f 57 93 95
f 58 59 65
f 60 62 63
f 61 68 86
f 61 86 62
f 62 85 63
f 62 86 85
f 63 85 64
f 64 85 84
f 64 84 82
f 66 81 67
f 67 87 68
f 67 81 96
f 67 96 87
f 68 87 86
f 72 97 73
f 72 76 97
f 73 97 98
f 73 98 77
f 74 95 75
f 75 95 93
f 75 93 76
f 76 93 92
f 76 92 99
f 76 99 100
f 76 100 97
f 77 98 101
f 77 101 102
f 77 102 103
f 77 103 104
f 77 104 105
f 77 105 79
f 77 79 78
f 79 105 104
f 79 104 106
f 79 106 107
f 79 107 80
f 80 107 108
f 80 108 109
f 80 109 110
f 80 110 111
f 80 111 112
f 80 112 113
f 80 113 96
f 80 96 81
f 82 84 83
f 88 114 111
f 88 111 89
f 89 111 90
f 90 111 115
f 92 94 102
f 92 102 99
f 97 100 98
f 98 100 101
f 99 101 100
f 99 102 101
f 104 107 106
f 107 116 109
f 107 109 108
f 109 116 111
f 109 111 110
f 111 114 117
f 111 117 112
f 111 116 118
f 111 118 115
f 115 118 119
f 116 120 118
f 118 120 119

