# https://github.com/mikedh/trimesh
v -0.07062158 -0.03456017 -0.02718604
v -0.06741682 -0.02955917 -0.04159869
v -0.07062158 -0.02424480 -0.04159869
v -0.07062158 -0.04200588 -0.02718604
v -0.06741682 -0.04463087 -0.02718604
v -0.06741682 -0.03197382 -0.04159869
v -0.07062158 -0.02817692 -0.04159869
v -0.07062158 -0.04173758 -0.02755849
v -0.07040574 -0.04266910 -0.02718604
v -0.06741682 -0.04616981 -0.02718604
v -0.06771361 -0.03172699 -0.04159869
v -0.06741682 -0.03234514 -0.04135462
v -0.06770608 -0.03226143 -0.04125163
v -0.07055915 -0.02832716 -0.04159869
v -0.07026644 -0.02989400 -0.04102026
v -0.07062158 -0.02824131 -0.04155495
v -0.07053436 -0.04075241 -0.02923451
v -0.07047978 -0.04173973 -0.02815384
v -0.07062158 -0.03892800 -0.03126323
v -0.07033671 -0.04235788 -0.02779550
v -0.07031224 -0.04284940 -0.02718604
v -0.06764051 -0.04603029 -0.02718604
v -0.06741682 -0.04611615 -0.02730172
v -0.06801134 -0.03143938 -0.04159869
v -0.06828146 -0.03202533 -0.04107246
v -0.06741682 -0.03289031 -0.04095537
v -0.06848476 -0.03319295 -0.04015404
v -0.06917026 -0.03292465 -0.03995088
v -0.06984039 -0.02944970 -0.04159869
v -0.07012118 -0.03167762 -0.03976466
v -0.07016918 -0.03277441 -0.03879262
v -0.07032950 -0.03208972 -0.03907901
v -0.07042142 -0.03042415 -0.04028101
v -0.07062158 -0.02953985 -0.04059561
v -0.07062158 -0.02950122 -0.04062665
v -0.06952917 -0.03042415 -0.04123047
v -0.06929073 -0.03098435 -0.04106117
v -0.06927724 -0.03406007 -0.03900424
v -0.07062158 -0.03863610 -0.03163850
v -0.07041201 -0.04043904 -0.03002455
v -0.07037468 -0.04139846 -0.02891003
v -0.07029907 -0.03920489 -0.03182472
v -0.07014251 -0.04304471 -0.02736662
v -0.06984290 -0.04362423 -0.02718604
v -0.06772741 -0.04597019 -0.02718604
v -0.06821275 -0.04430248 -0.02970994
v -0.06741682 -0.04521682 -0.02891144
v -0.06866861 -0.03137713 -0.04122060
v -0.06871566 -0.03070103 -0.04159869
v -0.06896728 -0.03166903 -0.04085379
v -0.06741682 -0.03409441 -0.04005810
v -0.06768694 -0.03352563 -0.04033744
v -0.06879033 -0.03352563 -0.03971810
v -0.06801730 -0.03387978 -0.03989586
v -0.06817228 -0.03501949 -0.03894358
v -0.06873449 -0.03428329 -0.03917213
v -0.06981780 -0.02947546 -0.04159869
v -0.06997687 -0.03352134 -0.03845403
v -0.07019867 -0.03387119 -0.03782059
v -0.07044119 -0.03138142 -0.03944864
v -0.07035868 -0.03318651 -0.03810698
v -0.07049358 -0.03245246 -0.03845403
v -0.07062158 -0.03210904 -0.03845685
v -0.06896634 -0.03042844 -0.04159869
v -0.06827174 -0.03614204 -0.03799694
v -0.06827393 -0.04334520 -0.03081883
v -0.06920697 -0.04117095 -0.03171327
v -0.07045060 -0.03861249 -0.03221692
v -0.07062158 -0.03761444 -0.03292232
v -0.07051115 -0.03761014 -0.03328630
v -0.07033828 -0.03824332 -0.03291950
v -0.06937889 -0.04145212 -0.03102762
v -0.06933968 -0.04241154 -0.02992015
v -0.06914108 -0.04309837 -0.02949127
v -0.06930046 -0.04336237 -0.02880563
v -0.06974062 -0.04377877 -0.02718604
v -0.06833542 -0.04546795 -0.02718604
v -0.06822530 -0.04534346 -0.02767276
v -0.06752725 -0.04449350 -0.02998505
v -0.06741682 -0.04460726 -0.02989758
v -0.06837433 -0.04447848 -0.02902430
v -0.06920352 -0.04426599 -0.02758811
v -0.06907332 -0.04408140 -0.02817641
v -0.06875802 -0.04383243 -0.02925849
v -0.06843707 -0.04358130 -0.03023476
v -0.06760631 -0.04348686 -0.03120256
v -0.06741682 -0.04339457 -0.03147061
v -0.06780428 -0.04409857 -0.03029119
v -0.06741682 -0.04417584 -0.03049435
v -0.06741682 -0.03421676 -0.03996640
v -0.06741682 -0.03536077 -0.03909876
v -0.06741682 -0.03674946 -0.03803926
v -0.06770608 -0.03636741 -0.03816764
v -0.07038785 -0.03421247 -0.03713494
v -0.07053750 -0.03352134 -0.03745943
v -0.07037374 -0.03725814 -0.03397618
v -0.07062158 -0.03330026 -0.03745378
v -0.06741682 -0.03794283 -0.03705594
v -0.06741682 -0.03814888 -0.03686266
v -0.06741682 -0.04120529 -0.03382663
v -0.06741682 -0.04144139 -0.03357975
v -0.06741682 -0.04248451 -0.03245817
v -0.06741682 -0.04319067 -0.03169211
v -0.06896477 -0.04275925 -0.03025169
v -0.06917183 -0.04213681 -0.03060580
v -0.07062158 -0.03731609 -0.03329618
v -0.07062158 -0.03639531 -0.03433452
v -0.07054911 -0.03656916 -0.03433029
v -0.06944352 -0.04356628 -0.02817641
v -0.06969294 -0.04384530 -0.02718604
v -0.06871598 -0.04503438 -0.02718604
v -0.06741682 -0.04452999 -0.03001185
v -0.06890955 -0.04480258 -0.02720720
v -0.06893967 -0.04477897 -0.02718604
v -0.07057264 -0.03555608 -0.03535593
v -0.07056856 -0.03454944 -0.03641121
v -0.07062158 -0.03453871 -0.03629552
v -0.07062158 -0.03350417 -0.03727320
v -0.07062158 -0.03545091 -0.03534888
f 1 2 3
f 1 3 7
f 1 7 16
f 1 16 35
f 1 35 34
f 1 34 63
f 1 63 97
f 1 97 118
f 1 118 117
f 1 117 119
f 1 119 107
f 1 107 106
f 1 106 69
f 1 69 39
f 1 39 19
f 1 19 8
f 1 8 4
f 1 4 9
f 1 9 21
f 1 21 44
f 1 44 76
f 1 76 110
f 1 110 114
f 1 114 111
f 1 111 77
f 1 77 45
f 1 45 22
f 1 22 10
f 1 10 5
f 1 5 2
f 2 6 11
f 2 11 24
f 2 24 49
f 2 49 64
f 2 64 57
f 2 57 29
f 2 29 14
f 2 14 7
f 2 7 3
f 2 5 10
f 2 10 23
f 2 23 47
f 2 47 80
f 2 80 112
f 2 112 89
f 2 89 87
f 2 87 103
f 2 103 102
f 2 102 101
f 2 101 100
f 2 100 99
f 2 99 98
f 2 98 92
f 2 92 91
f 2 91 90
f 2 90 51
f 2 51 26
f 2 26 12
f 2 12 6
f 4 8 9
f 6 12 13
f 6 13 11
f 7 14 15
f 7 15 16
f 8 17 18
f 8 18 9
f 8 19 17
f 9 18 20
f 9 20 21
f 10 22 23
f 11 13 25
f 11 25 24
f 12 26 27
f 12 27 13
f 13 27 28
f 13 28 25
f 14 29 15
f 15 30 31
f 15 31 32
f 15 32 33
f 15 33 34
f 15 34 35
f 15 35 16
f 15 29 36
f 15 36 37
f 15 37 28
f 15 28 38
f 15 38 30
f 17 19 39
f 17 39 40
f 17 40 18
f 18 40 41
f 18 41 20
f 20 41 42
f 20 42 43
f 20 43 21
f 21 43 44
f 22 45 46
f 22 46 23
f 23 46 47
f 24 25 48
f 24 48 49
f 25 50 48
f 25 28 50
f 26 51 52
f 26 52 27
f 27 53 28
f 27 52 54
f 27 54 55
f 27 55 53
f 28 53 56
f 28 56 38
f 28 37 50
f 29 57 37
f 29 37 36
f 30 38 58
f 30 58 31
f 31 58 59
f 31 59 32
f 32 60 33
f 32 59 61
f 32 61 62
f 32 62 60
f 33 60 34
f 34 60 62
f 34 62 63
f 37 48 50
f 37 57 64
f 37 64 49
f 37 49 48
f 38 59 58
f 38 56 65
f 38 65 66
f 38 66 67
f 38 67 59
f 39 68 40
f 39 69 70
f 39 70 68
f 40 68 42
f 40 42 41
f 42 68 71
f 42 71 72
f 42 72 73
f 42 73 43
f 43 73 74
f 43 74 75
f 43 75 44
f 44 75 76
f 45 77 78
f 45 78 46
f 46 79 80
f 46 80 47
f 46 78 81
f 46 81 82
f 46 82 83
f 46 83 84
f 46 84 74
f 46 74 85
f 46 85 66
f 46 66 86
f 46 86 87
f 46 87 88
f 46 88 89
f 46 89 79
f 51 90 54
f 51 54 52
f 53 55 56
f 54 90 91
f 54 91 55
f 55 91 92
f 55 92 93
f 55 93 65
f 55 65 56
f 59 94 95
f 59 95 61
f 59 67 96
f 59 96 94
f 61 95 62
f 62 95 63
f 63 95 97
f 65 93 92
f 65 92 98
f 65 98 99
f 65 99 100
f 65 100 66
f 66 100 101
f 66 101 102
f 66 102 103
f 66 103 87
f 66 87 86
f 66 85 104
f 66 104 67
f 67 104 105
f 67 105 72
f 67 72 71
f 67 71 96
f 68 70 71
f 69 106 70
f 70 106 107
f 70 107 108
f 70 108 96
f 70 96 71
f 72 105 74
f 72 74 73
f 74 104 85
f 74 84 75
f 74 105 104
f 75 84 109
f 75 109 76
f 76 109 110
f 77 111 78
f 78 111 81
f 79 89 112
f 79 112 80
f 81 113 114
f 81 114 82
f 81 111 113
f 82 114 110
f 82 110 83
f 83 110 109
f 83 109 84
f 87 89 88
f 94 115 116
f 94 116 95
f 94 96 115
f 95 116 117
f 95 117 118
f 95 118 97
f 96 108 115
f 107 119 108
f 108 119 115
f 111 114 113
f 115 119 116
f 116 119 117

