# https://github.com/mikedh/trimesh
v -0.00685390 -0.00423212 0.06472984
v -0.00665856 -0.00423212 0.06473357
v -0.00691832 -0.00423212 0.06473171
v -0.00712455 -0.00395732 0.06472984
v -0.00790591 -0.00203205 0.06471118
v -0.00772231 -0.00203205 0.06471118
v -0.00686305 -0.00397973 0.06472797
v -0.00775375 -0.00164691 0.06471491
v -0.00809037 0.00008686 0.06473357
v -0.00660743 -0.00423212 0.06475037
v -0.00699242 -0.00423212 0.06475037
v -0.00707359 -0.00418012 0.06475970
v -0.00749657 -0.00318704 0.06472797
v -0.00745253 -0.00342083 0.06476343
v -0.00792526 -0.00164691 0.06471491
v -0.00786722 -0.00234024 0.06473917
v -0.00821075 -0.00072232 0.06477649
v -0.00822561 -0.00049149 0.06475970
v -0.00824944 -0.00010635 0.06473357
v -0.00824944 0.00008686 0.06473357
v -0.00781610 -0.00064833 0.06477649
v -0.00796429 0.00008686 0.06497618
v -0.00655614 -0.00423212 0.06486794
v -0.00704061 -0.00423212 0.06481382
v -0.00706185 -0.00423212 0.06497618
v -0.00708758 -0.00419830 0.06497618
v -0.00746290 -0.00344620 0.06497618
v -0.00789348 -0.00240324 0.06497618
v -0.00799883 -0.00203205 0.06497618
v -0.00821490 -0.00075360 0.06497618
v -0.00824910 -0.00049149 0.06497618
v -0.00829780 -0.00010635 0.06497618
v -0.00827362 0.00008686 0.06485488
v -0.00795893 0.00008686 0.06516840
v -0.00654405 -0.00423212 0.06497618
v -0.00706271 -0.00423212 0.06504150
v -0.00708983 -0.00420168 0.06536062
v -0.00721401 -0.00395732 0.06536062
v -0.00746497 -0.00345043 0.06536062
v -0.00757412 -0.00318704 0.06536062
v -0.00789676 -0.00240746 0.06536062
v -0.00800643 -0.00203205 0.06536062
v -0.00821663 -0.00076586 0.06536062
v -0.00825272 -0.00049149 0.06536062
v -0.00830247 -0.00010635 0.06536062
v -0.00829763 0.00008686 0.06497618
v -0.00830005 0.00008686 0.06516840
v -0.00795375 0.00008686 0.06536062
v -0.00654025 -0.00423212 0.06518146
v -0.00706669 -0.00423212 0.06536062
v -0.00721418 -0.00395732 0.06574693
v -0.00708983 -0.00420168 0.08377644
v -0.00719139 -0.00400214 0.08377644
v -0.00746497 -0.00345043 0.08377644
v -0.00757412 -0.00318704 0.08377644
v -0.00789676 -0.00240746 0.08377644
v -0.00800643 -0.00203205 0.08377644
v -0.00821663 -0.00076586 0.08377644
v -0.00824616 -0.00054180 0.08377644
v -0.00825272 -0.00049149 0.08377644
v -0.00830229 0.00008686 0.06536062
v -0.00830247 -0.00010635 0.08377644
v -0.00653800 -0.00423212 0.06536062
v -0.00795375 0.00008686 0.08377644
v -0.00706669 -0.00423212 0.08377644
v -0.00721418 -0.00395732 0.08377644
v -0.00830229 0.00008686 0.08377644
v -0.00653800 -0.00423212 0.08377644
f 1 2 10
f 1 10 23
f 1 23 35
f 1 35 49
f 1 49 63
f 1 63 68
f 1 68 65
f 1 65 50
f 1 50 36
f 1 36 25
f 1 25 24
f 1 24 11
f 1 11 3
f 1 3 4
f 1 4 5
f 1 5 6
f 1 6 7
f 1 7 2
f 2 7 6
f 2 6 8
f 2 8 9
f 2 9 10
f 3 11 12
f 3 12 4
f 4 13 5
f 4 12 14
f 4 14 13
f 5 15 8
f 5 8 6
f 5 13 16
f 5 16 17
f 5 17 18
f 5 18 19
f 5 19 20
f 5 20 15
f 8 15 20
f 8 20 9
f 9 21 10
f 9 20 33
f 9 33 46
f 9 46 47
f 9 47 61
f 9 61 67
f 9 67 64
f 9 64 48
f 9 48 34
f 9 34 22
f 9 22 21
f 10 21 22
f 10 22 23
f 11 24 12
f 12 24 25
f 12 25 26
f 12 26 27
f 12 27 14
f 13 14 16
f 14 27 28
f 14 28 16
f 16 28 29
f 16 29 17
f 17 29 30
f 17 30 31
f 17 31 32
f 17 32 18
f 18 32 19
f 19 32 33
f 19 33 20
f 22 34 35
f 22 35 23
f 25 36 26
f 26 36 37
f 26 37 38
f 26 38 27
f 27 38 39
f 27 39 40
f 27 40 41
f 27 41 28
f 28 41 42
f 28 42 29
f 29 42 30
f 30 42 43
f 30 43 44
f 30 44 31
f 31 44 45
f 31 45 32
f 32 46 33
f 32 45 47
f 32 47 46
f 34 48 35
f 35 48 49
f 36 50 37
f 37 51 38
f 37 50 65
f 37 65 52
f 37 52 53
f 37 53 51
f 38 51 39
f 39 51 66
f 39 66 54
f 39 54 55
f 39 55 40
f 40 55 56
f 40 56 41
f 41 56 57
f 41 57 42
f 42 57 58
f 42 58 43
f 43 58 59
f 43 59 44
f 44 59 60
f 44 60 62
f 44 62 45
f 45 61 47
f 45 62 67
f 45 67 61
f 48 63 49
f 48 64 68
f 48 68 63
f 51 53 66
f 52 65 68
f 52 68 64
f 52 64 67
f 52 67 62
f 52 62 60
f 52 60 59
f 52 59 58
f 52 58 57
f 52 57 56
f 52 56 55
f 52 55 54
f 52 54 66
f 52 66 53

