# https://github.com/mikedh/trimesh
v 0.00623234 -0.00507009 0.08914434
v 0.00687772 -0.00422995 0.08914434
v 0.00623234 -0.00432537 0.08914434
v 0.00623234 -0.00501152 0.08377507
v 0.00642368 -0.00476261 0.06536171
v 0.00704484 -0.00393105 0.08914434
v 0.00670656 -0.00439404 0.06536171
v 0.00685387 -0.00420117 0.06536171
v 0.00770141 0.00008788 0.08914434
v 0.00623234 -0.00432840 0.08377507
v 0.00642368 -0.00433547 0.06473509
v 0.00642368 -0.00462528 0.06473988
v 0.00642368 -0.00475150 0.06497665
v 0.00651063 -0.00464093 0.06497665
v 0.00685167 -0.00419814 0.06497665
v 0.00724113 -0.00352714 0.08914434
v 0.00697825 -0.00395680 0.06536171
v 0.00722902 -0.00345040 0.06536171
v 0.00771773 0.00008788 0.08377507
v 0.00771755 0.00008637 0.06536171
v 0.00810610 0.00008788 0.08914434
v 0.00642368 -0.00406081 0.06536171
v 0.00642368 -0.00406838 0.06497665
v 0.00642368 -0.00411332 0.06476379
v 0.00785422 0.00008637 0.06473509
v 0.00751777 -0.00164692 0.06471596
v 0.00748622 -0.00203266 0.06471118
v 0.00662694 -0.00397952 0.06473031
v 0.00661465 -0.00432184 0.06473270
v 0.00648128 -0.00460306 0.06473988
v 0.00683772 -0.00417997 0.06476140
v 0.00722700 -0.00344535 0.06497665
v 0.00727544 -0.00344434 0.08914434
v 0.00766068 -0.00240780 0.06536171
v 0.00772819 0.00008637 0.06497665
v 0.00806629 0.00008788 0.08377507
v 0.00810646 -0.00010650 0.08914434
v 0.00806629 0.00008637 0.06536171
v 0.00757996 -0.00064825 0.06477815
v 0.00801327 0.00008637 0.06473509
v 0.00766985 -0.00203266 0.06471118
v 0.00688872 -0.00395680 0.06473031
v 0.00721655 -0.00342061 0.06476379
v 0.00765738 -0.00240325 0.06497665
v 0.00768159 -0.00244415 0.08914434
v 0.00777038 -0.00203266 0.06536171
v 0.00780671 -0.00203216 0.08914434
v 0.00806152 0.00008637 0.06497665
v 0.00807124 -0.00039681 0.08914434
v 0.00806629 -0.00010650 0.06536171
v 0.00806170 -0.00010650 0.06497665
v 0.00801346 -0.00010650 0.06473509
v 0.00798942 -0.00049173 0.06476140
v 0.00797475 -0.00072297 0.06477815
v 0.00763115 -0.00234065 0.06473988
v 0.00726058 -0.00318684 0.06473031
v 0.00776286 -0.00203266 0.06497665
v 0.00798043 -0.00076639 0.06536171
v 0.00800924 -0.00084869 0.08914434
v 0.00797897 -0.00075428 0.06497665
v 0.00805895 -0.00049123 0.08914434
v 0.00801676 -0.00049173 0.06536171
v 0.00801291 -0.00049173 0.06497665
f 1 2 6
f 1 6 16
f 1 16 33
f 1 33 45
f 1 45 47
f 1 47 59
f 1 59 61
f 1 61 49
f 1 49 37
f 1 37 21
f 1 21 9
f 1 9 3
f 1 3 10
f 1 10 4
f 1 4 5
f 1 5 2
f 2 5 7
f 2 7 8
f 2 8 6
f 3 9 10
f 4 10 11
f 4 11 12
f 4 12 13
f 4 13 5
f 5 13 14
f 5 14 15
f 5 15 7
f 6 8 17
f 6 17 18
f 6 18 16
f 7 15 8
f 8 15 17
f 9 19 20
f 9 20 10
f 9 21 36
f 9 36 19
f 10 20 22
f 10 22 23
f 10 23 24
f 10 24 11
f 11 25 26
f 11 26 27
f 11 27 28
f 11 28 29
f 11 29 12
f 11 24 25
f 12 30 13
f 12 29 30
f 13 30 31
f 13 31 14
f 14 31 15
f 15 32 17
f 15 31 32
f 16 18 33
f 17 32 18
f 18 34 33
f 18 32 34
f 19 25 35
f 19 35 20
f 19 36 40
f 19 40 25
f 20 35 23
f 20 23 22
f 21 37 38
f 21 38 36
f 23 35 24
f 24 39 25
f 24 35 39
f 25 40 41
f 25 41 27
f 25 27 26
f 25 39 35
f 27 41 29
f 27 29 28
f 29 41 42
f 29 42 30
f 30 42 31
f 31 43 32
f 31 42 43
f 32 43 44
f 32 44 34
f 33 34 45
f 34 44 46
f 34 46 47
f 34 47 45
f 36 38 48
f 36 48 40
f 37 49 50
f 37 50 38
f 38 50 51
f 38 51 48
f 40 52 41
f 40 48 51
f 40 51 52
f 41 52 53
f 41 53 54
f 41 54 55
f 41 55 56
f 41 56 42
f 42 56 43
f 43 56 55
f 43 55 44
f 44 55 57
f 44 57 46
f 46 58 59
f 46 59 47
f 46 57 60
f 46 60 58
f 49 61 62
f 49 62 50
f 50 62 63
f 50 63 51
f 51 63 54
f 51 54 53
f 51 53 52
f 54 63 60
f 54 60 57
f 54 57 55
f 58 62 61
f 58 61 59
f 58 60 62
f 60 63 62

