# https://github.com/mikedh/trimesh
v -0.00311812 -0.00423212 0.06317363
v -0.00327615 -0.00423212 0.06317766
v -0.00377047 -0.00356584 0.06316151
v -0.00280065 -0.00423212 0.06317968
v -0.00442824 -0.00309065 0.06317766
v -0.00328813 -0.00423212 0.06318776
v -0.00329554 -0.00422367 0.06317968
v -0.00377703 -0.00384064 0.06318978
v -0.00482873 -0.00241676 0.06316151
v -0.00523548 -0.00126177 0.06315344
v -0.00503410 -0.00126177 0.06315344
v -0.00529966 0.00008686 0.06320996
v -0.00273903 -0.00423212 0.06320795
v -0.00404545 -0.00357218 0.06318978
v -0.00397442 -0.00376962 0.06323621
v -0.00477795 -0.00266662 0.06319785
v -0.00330638 -0.00423212 0.06323621
v -0.00519127 -0.00164691 0.06317363
v -0.00551502 -0.00033929 0.06323419
v -0.00553014 -0.00010635 0.06321400
v -0.00553014 0.00008686 0.06321400
v -0.00521694 0.00008686 0.06336138
v -0.00517644 0.00008686 0.06343608
v -0.00264177 -0.00423212 0.06339974
v -0.00337855 -0.00423212 0.06343608
v -0.00397670 -0.00377215 0.06343608
v -0.00446533 -0.00313885 0.06343608
v -0.00465787 -0.00288773 0.06343608
v -0.00514249 -0.00188239 0.06321804
v -0.00479706 -0.00269537 0.06343608
v -0.00525802 -0.00164691 0.06343608
v -0.00534644 -0.00126177 0.06343608
v -0.00551787 -0.00035958 0.06343608
v -0.00555039 -0.00010635 0.06343608
v -0.00555011 0.00008686 0.06343608
v -0.00517615 0.00008686 0.06382169
v -0.00263663 -0.00423212 0.06382169
v -0.00263920 -0.00423212 0.06343608
v -0.00337855 -0.00423212 0.08377644
v -0.00397670 -0.00377215 0.08377644
v -0.00446533 -0.00313885 0.08377644
v -0.00465787 -0.00288773 0.08377644
v -0.00515134 -0.00190395 0.06343608
v -0.00479706 -0.00269537 0.08377644
v -0.00525802 -0.00164691 0.08377644
v -0.00534644 -0.00126177 0.08377644
v -0.00551787 -0.00035958 0.08377644
v -0.00555039 -0.00010635 0.08377644
v -0.00555011 0.00008686 0.08377644
v -0.00517615 0.00008686 0.08377644
v -0.00263663 -0.00423212 0.08377644
v -0.00515134 -0.00190395 0.08377644
f 1 2 3
f 1 3 4
f 1 4 13
f 1 13 24
f 1 24 38
f 1 38 37
f 1 37 51
f 1 51 39
f 1 39 25
f 1 25 17
f 1 17 6
f 1 6 2
f 2 5 3
f 2 6 7
f 2 7 8
f 2 8 5
f 3 9 10
f 3 10 11
f 3 11 4
f 3 5 9
f 4 11 12
f 4 12 13
f 5 8 14
f 5 14 15
f 5 15 16
f 5 16 9
f 6 17 15
f 6 15 7
f 7 15 8
f 8 15 14
f 9 18 10
f 9 16 18
f 10 18 19
f 10 19 20
f 10 20 21
f 10 21 12
f 10 12 11
f 12 21 35
f 12 35 49
f 12 49 50
f 12 50 36
f 12 36 23
f 12 23 22
f 12 22 13
f 13 22 23
f 13 23 24
f 15 17 25
f 15 25 26
f 15 26 27
f 15 27 28
f 15 28 16
f 16 29 18
f 16 28 30
f 16 30 29
f 18 29 31
f 18 31 19
f 19 31 32
f 19 32 33
f 19 33 34
f 19 34 20
f 20 34 21
f 21 34 35
f 23 36 37
f 23 37 38
f 23 38 24
f 25 39 40
f 25 40 26
f 26 40 41
f 26 41 27
f 27 41 42
f 27 42 28
f 28 42 44
f 28 44 30
f 29 30 43
f 29 43 31
f 30 44 52
f 30 52 43
f 31 43 52
f 31 52 45
f 31 45 46
f 31 46 32
f 32 46 47
f 32 47 33
f 33 47 48
f 33 48 34
f 34 48 49
f 34 49 35
f 36 50 51
f 36 51 37
f 39 51 50
f 39 50 49
f 39 49 48
f 39 48 47
f 39 47 46
f 39 46 45
f 39 45 52
f 39 52 44
f 39 44 42
f 39 42 41
f 39 41 40

