# https://github.com/mikedh/trimesh
v -0.00771956 0.00008454 0.10045959
v -0.00796858 0.00008454 0.09732693
v -0.00827912 0.00008454 0.10045959
v -0.00630089 -0.00426631 0.10045959
v -0.00798895 0.00008454 0.09726149
v -0.00657568 -0.00426631 0.09726149
v -0.00829742 0.00008454 0.10040794
v -0.00827912 -0.00010627 0.10045959
v -0.00700201 -0.00426631 0.10045959
v -0.00842421 0.00008454 0.09726149
v -0.00719512 -0.00426631 0.09726149
v -0.00832610 0.00008454 0.10021383
v -0.00829742 -0.00010627 0.10040794
v -0.00823630 -0.00050494 0.10045959
v -0.00702280 -0.00426631 0.10042766
v -0.00707850 -0.00418666 0.10045959
v -0.00835416 0.00008454 0.10002285
v -0.00842442 -0.00010627 0.09726149
v -0.00710345 -0.00426631 0.10002285
v -0.00712132 -0.00424288 0.10002285
v -0.00738614 -0.00394132 0.09726149
v -0.00835416 -0.00010627 0.10002285
v -0.00821323 -0.00112552 0.10025202
v -0.00822965 -0.00087677 0.10031714
v -0.00824794 -0.00047896 0.10042891
v -0.00820970 -0.00072088 0.10045959
v -0.00703548 -0.00426631 0.10040794
v -0.00721299 -0.00395708 0.10040794
v -0.00708786 -0.00419901 0.10040794
v -0.00738614 -0.00356906 0.10045959
v -0.00841839 -0.00018592 0.09726149
v -0.00747324 -0.00347067 0.10034281
v -0.00749215 -0.00351625 0.10002285
v -0.00753185 -0.00364360 0.09726149
v -0.00837869 -0.00056414 0.09726149
v -0.00833483 -0.00094109 0.09726149
v -0.00829451 -0.00126266 0.09726149
v -0.00830448 -0.00049131 0.10002285
v -0.00821697 -0.00115363 0.10002285
v -0.00804216 -0.00203189 0.10002285
v -0.00799913 -0.00203189 0.10040794
v -0.00818288 -0.00092490 0.10045959
v -0.00818953 -0.00087677 0.10045959
v -0.00745598 -0.00342851 0.10045959
v -0.00783637 -0.00264735 0.10028208
v -0.00784427 -0.00266610 0.10002285
v -0.00794758 -0.00241650 0.10002285
v -0.00790081 -0.00274873 0.09726149
v -0.00828224 -0.00133592 0.09726149
v -0.00814422 -0.00200889 0.09726149
v -0.00788751 -0.00242246 0.10040950
v -0.00787816 -0.00239350 0.10045959
v -0.00797606 -0.00203189 0.10045959
v -0.00780998 -0.00258347 0.10045959
v -0.00802657 -0.00241650 0.09726149
v -0.00800308 -0.00249104 0.09726149
v -0.00785280 -0.00247400 0.10045959
f 1 2 5
f 1 5 10
f 1 10 17
f 1 17 12
f 1 12 7
f 1 7 3
f 1 3 8
f 1 8 14
f 1 14 26
f 1 26 43
f 1 43 42
f 1 42 53
f 1 53 52
f 1 52 57
f 1 57 54
f 1 54 44
f 1 44 30
f 1 30 16
f 1 16 9
f 1 9 4
f 1 4 2
f 2 4 6
f 2 6 5
f 3 7 13
f 3 13 8
f 4 9 15
f 4 15 27
f 4 27 19
f 4 19 11
f 4 11 6
f 5 6 11
f 5 11 21
f 5 21 34
f 5 34 48
f 5 48 56
f 5 56 55
f 5 55 50
f 5 50 49
f 5 49 37
f 5 37 36
f 5 36 35
f 5 35 31
f 5 31 18
f 5 18 10
f 7 12 13
f 8 13 14
f 9 16 15
f 10 18 17
f 11 19 20
f 11 20 21
f 12 17 22
f 12 22 13
f 13 22 23
f 13 23 24
f 13 24 25
f 13 25 14
f 14 25 26
f 15 16 27
f 16 28 29
f 16 29 27
f 16 30 28
f 17 18 22
f 18 31 22
f 19 27 29
f 19 29 20
f 20 29 28
f 20 28 32
f 20 32 33
f 20 33 21
f 21 33 34
f 22 31 35
f 22 35 36
f 22 36 37
f 22 37 38
f 22 38 23
f 23 37 39
f 23 39 40
f 23 40 41
f 23 41 42
f 23 42 24
f 23 38 37
f 24 43 26
f 24 26 25
f 24 42 43
f 28 30 44
f 28 44 32
f 32 44 45
f 32 45 33
f 33 45 46
f 33 46 34
f 34 46 47
f 34 47 48
f 37 49 39
f 39 49 40
f 40 49 50
f 40 50 47
f 40 47 41
f 41 47 51
f 41 51 52
f 41 52 53
f 41 53 42
f 44 54 45
f 45 54 51
f 45 51 47
f 45 47 46
f 47 55 56
f 47 56 48
f 47 50 55
f 51 54 57
f 51 57 52

