# https://github.com/mikedh/trimesh
v 0.01365930 -0.01920437 -0.01423113
v 0.01365930 -0.01391843 -0.01423113
v 0.01560889 -0.01770821 -0.01423113
v 0.01365930 -0.01920437 0.00867655
v 0.01957182 0.00019069 -0.01423113
v 0.01365930 -0.01364123 0.03807661
v 0.01942471 0.00019069 0.03807661
v 0.01592761 -0.01746328 -0.01423113
v 0.01592761 -0.01746328 0.01162065
v 0.01365930 -0.01920247 0.01897322
v 0.02367596 0.00019069 -0.01423113
v 0.01365930 -0.01919488 0.03807661
v 0.02335233 0.00019069 0.03807661
v 0.01626104 -0.01714430 -0.01423113
v 0.01669646 -0.01672659 0.01603424
v 0.01669450 -0.01672469 0.03663272
v 0.01592565 -0.01746138 0.02927502
v 0.01518916 -0.01802529 0.03368862
v 0.01365930 -0.01919868 0.03074963
v 0.02367596 -0.00065042 -0.01423113
v 0.02367596 0.00019069 0.03368862
v 0.01422809 -0.01876008 0.03807661
v 0.01365930 -0.01919678 0.03629991
v 0.02336998 -0.00035993 0.03807661
v 0.02342686 0.00019069 0.03770796
v 0.01669646 -0.01672659 -0.01423113
v 0.01743197 -0.01595762 0.01603424
v 0.01711325 -0.01629179 -0.01423113
v 0.01743099 -0.01595572 0.03074963
v 0.01743001 -0.01595383 0.03807661
v 0.01671019 -0.01670760 0.03807661
v 0.01669352 -0.01672469 0.03807661
v 0.01667783 -0.01673988 0.03807661
v 0.01592369 -0.01745948 0.03807661
v 0.01592467 -0.01746138 0.03221913
v 0.01520387 -0.01801200 0.03807661
v 0.02360241 -0.00122573 -0.01423113
v 0.02367596 -0.00065042 0.03368862
v 0.02367498 0.00019069 0.03431840
v 0.02336998 -0.00065042 0.03807661
v 0.02345432 -0.00065042 0.03752875
v 0.02345432 0.00019069 0.03752875
v 0.01799684 -0.01522093 0.01897322
v 0.01743197 -0.01595762 -0.01423113
v 0.01767714 -0.01563864 -0.01423113
v 0.01873235 -0.01426400 0.01015116
v 0.01799488 -0.01521903 0.03368862
v 0.01800959 -0.01519815 0.03807661
v 0.01799586 -0.01522093 0.02486143
v 0.01929624 -0.01352731 0.01750373
v 0.02350532 -0.00197571 0.01015116
v 0.02350532 -0.00197571 -0.01423113
v 0.02367301 0.00019069 0.03516323
v 0.02367203 -0.00065042 0.03516323
v 0.02350532 -0.00197191 0.03516323
v 0.02330820 -0.00205165 0.03807661
v 0.02343569 -0.00150863 0.03742635
v 0.02357495 -0.00065042 0.03663272
v 0.02355631 0.00019069 0.03669416
v 0.01873235 -0.01426400 -0.01423113
v 0.01929722 -0.01352731 0.00867655
v 0.01929330 -0.01352351 0.03516323
v 0.01928055 -0.01353870 0.03807661
v 0.02003273 -0.01254948 0.01309014
v 0.02003175 -0.01254948 0.01750373
v 0.02002979 -0.01254758 0.02927502
v 0.02002881 -0.01254569 0.03663272
v 0.02329251 -0.00359528 0.01015116
v 0.02329251 -0.00359528 -0.01423113
v 0.02363085 0.00019069 0.03579301
v 0.02347295 -0.00177065 0.03663272
v 0.02339940 -0.00250544 0.03663272
v 0.02328172 -0.00359528 0.03663272
v 0.02309638 -0.00506677 0.03663272
v 0.02309834 -0.00506677 0.01455963
v 0.02330330 -0.00212760 0.03807661
v 0.02322288 -0.00315859 0.03807661
v 0.02318954 -0.00357060 0.03807661
v 0.01929722 -0.01352731 -0.01423113
v 0.02002783 -0.01254569 0.03807661
v 0.02056524 -0.01181279 0.02339194
v 0.02055249 -0.01182608 0.03807661
v 0.02003273 -0.01254948 -0.01423113
v 0.02056622 -0.01181469 0.01162065
v 0.02309834 -0.00506677 -0.01423113
v 0.02304734 -0.00503449 0.03807661
v 0.02304342 -0.00506677 0.03807661
v 0.02272470 -0.00650597 0.03807661
v 0.02271685 -0.00653825 0.03807661
v 0.02273548 -0.00653825 0.03663272
v 0.02273646 -0.00653825 0.03368862
v 0.02273843 -0.00653825 0.01603424
v 0.02294241 -0.00570472 -0.01423113
v 0.02095163 -0.01095079 0.01750373
v 0.02057211 -0.01179191 0.03807661
v 0.02056426 -0.01181089 0.03368862
v 0.02095261 -0.01095079 0.01162065
v 0.02056426 -0.01180900 0.03663272
v 0.02056328 -0.01180900 0.03807661
v 0.02056622 -0.01181469 -0.01423113
v 0.02221278 -0.00789581 0.03807661
v 0.02221474 -0.00789581 0.03663272
v 0.02221670 -0.00790150 0.01015116
v 0.02273843 -0.00653825 -0.01423113
v 0.02156161 -0.00948121 0.01455963
v 0.02155769 -0.00948121 0.03807661
v 0.02094967 -0.01095079 0.02780553
v 0.02094771 -0.01095079 0.03807661
v 0.02095261 -0.01095079 -0.01423113
v 0.02190975 -0.00863060 0.03807661
v 0.02190975 -0.00863250 0.03663272
v 0.02221670 -0.00790150 -0.01423113
f 1 2 5
f 1 5 11
f 1 11 20
f 1 20 37
f 1 37 52
f 1 52 69
f 1 69 85
f 1 85 93
f 1 93 104
f 1 104 112
f 1 112 109
f 1 109 100
f 1 100 83
f 1 83 79
f 1 79 60
f 1 60 45
f 1 45 44
f 1 44 28
f 1 28 26
f 1 26 14
f 1 14 8
f 1 8 3
f 1 3 4
f 1 4 10
f 1 10 19
f 1 19 23
f 1 23 12
f 1 12 6
f 1 6 2
f 2 6 7
f 2 7 5
f 3 8 9
f 3 9 4
f 4 9 10
f 5 7 13
f 5 13 25
f 5 25 42
f 5 42 59
f 5 59 70
f 5 70 53
f 5 53 39
f 5 39 21
f 5 21 11
f 6 12 22
f 6 22 36
f 6 36 34
f 6 34 33
f 6 33 32
f 6 32 31
f 6 31 30
f 6 30 48
f 6 48 63
f 6 63 80
f 6 80 82
f 6 82 99
f 6 99 95
f 6 95 108
f 6 108 106
f 6 106 110
f 6 110 101
f 6 101 89
f 6 89 88
f 6 88 87
f 6 87 86
f 6 86 78
f 6 78 77
f 6 77 76
f 6 76 56
f 6 56 40
f 6 40 24
f 6 24 13
f 6 13 7
f 8 14 9
f 9 14 15
f 9 15 16
f 9 16 17
f 9 17 10
f 10 17 18
f 10 18 19
f 11 21 38
f 11 38 20
f 12 23 22
f 13 24 25
f 14 26 15
f 15 27 16
f 15 26 28
f 15 28 27
f 16 29 30
f 16 30 31
f 16 31 32
f 16 32 33
f 16 33 34
f 16 34 35
f 16 35 17
f 16 27 29
f 17 35 18
f 18 35 34
f 18 34 36
f 18 36 22
f 18 22 23
f 18 23 19
f 20 38 37
f 21 39 38
f 24 40 25
f 25 41 42
f 25 40 41
f 27 43 29
f 27 28 44
f 27 44 45
f 27 45 46
f 27 46 43
f 29 47 48
f 29 48 30
f 29 43 49
f 29 49 50
f 29 50 47
f 37 51 52
f 37 38 51
f 38 39 53
f 38 53 54
f 38 54 55
f 38 55 51
f 40 56 57
f 40 57 41
f 41 57 58
f 41 58 42
f 42 58 59
f 43 46 50
f 43 50 49
f 45 60 46
f 46 60 79
f 46 79 61
f 46 61 50
f 47 50 48
f 48 62 63
f 48 50 62
f 50 64 65
f 50 65 66
f 50 66 67
f 50 67 62
f 50 61 64
f 51 68 69
f 51 69 52
f 51 55 68
f 53 70 58
f 53 58 54
f 54 58 71
f 54 71 72
f 54 72 73
f 54 73 74
f 54 74 55
f 55 74 75
f 55 75 68
f 56 76 57
f 57 76 77
f 57 77 78
f 57 78 71
f 57 71 58
f 58 70 59
f 61 79 83
f 61 83 64
f 62 67 63
f 63 67 80
f 64 81 82
f 64 82 65
f 64 83 100
f 64 100 84
f 64 84 81
f 65 82 66
f 66 82 67
f 67 82 80
f 68 75 85
f 68 85 69
f 71 78 86
f 71 86 72
f 72 86 73
f 73 86 87
f 73 87 74
f 74 87 88
f 74 88 89
f 74 89 90
f 74 90 91
f 74 91 92
f 74 92 75
f 75 92 93
f 75 93 85
f 81 94 95
f 81 95 96
f 81 96 82
f 81 84 97
f 81 97 94
f 82 98 99
f 82 96 98
f 84 100 109
f 84 109 97
f 89 101 90
f 90 102 91
f 90 101 102
f 91 102 103
f 91 103 92
f 92 103 112
f 92 112 104
f 92 104 93
f 94 105 106
f 94 106 107
f 94 107 95
f 94 97 105
f 95 99 98
f 95 98 96
f 95 107 108
f 97 109 112
f 97 112 103
f 97 103 105
f 101 110 102
f 102 110 106
f 102 106 111
f 102 111 103
f 103 111 105
f 105 111 106
f 106 108 107

