# https://github.com/mikedh/trimesh
v -0.02221222 0.00826543 0.03809195
v -0.02169300 0.00964205 0.03809195
v -0.01771479 0.00826543 0.03809195
v -0.02220973 0.00826543 0.03810958
v -0.02074545 0.01190240 0.03891267
v -0.02113144 0.01110743 0.03809195
v -0.02112397 0.01112333 0.03810958
v -0.00968243 0.01705774 0.03809195
v -0.00949317 0.01714519 0.03809586
v -0.00949317 0.00826543 0.04986025
v -0.02213502 0.00826543 0.03842102
v -0.01958997 0.01109551 0.04241888
v -0.01928117 0.01190637 0.04185671
v -0.01948413 0.01217666 0.04105165
v -0.01893752 0.01291200 0.04105165
v -0.01916040 0.01321541 0.04013691
v -0.01939573 0.01352412 0.03915556
v -0.01762888 0.01608259 0.03810958
v -0.01819791 0.01534724 0.03810958
v -0.01893254 0.01439594 0.03810958
v -0.01950032 0.01366059 0.03810958
v -0.02023619 0.01269206 0.03810958
v -0.02078032 0.01195539 0.03810958
v -0.02186358 0.00826543 0.03954927
v -0.02137051 0.00965132 0.03958061
v -0.02089362 0.01105443 0.03947288
v -0.02095464 0.00966325 0.04103206
v -0.02067448 0.00879673 0.04311228
v -0.02061969 0.01016142 0.04151000
v -0.02000833 0.00826543 0.04546672
v -0.01948289 0.00826543 0.04671054
v -0.01944927 0.00919289 0.04546672
v -0.02112522 0.01112333 0.03809195
v -0.00949317 0.01887954 0.03809195
v -0.00949317 0.00826543 0.05810276
v -0.01939324 0.01058805 0.04355104
v -0.01746950 0.01291200 0.04399569
v -0.01769487 0.01322071 0.04309857
v -0.01794016 0.01354400 0.04211722
v -0.01508756 0.01512730 0.04546672
v -0.01634141 0.01485039 0.04333558
v -0.01812942 0.01404748 0.04093217
v -0.01877440 0.01403555 0.03961979
v -0.01798623 0.01507166 0.03958061
v -0.01741347 0.01580700 0.03958061
v -0.01689300 0.01686298 0.03810958
v -0.01762888 0.01608391 0.03809195
v -0.01667760 0.01665629 0.03958061
v -0.01893378 0.01439726 0.03809195
v -0.01950156 0.01366059 0.03809195
v -0.02023744 0.01269206 0.03809195
v -0.02077409 0.01196467 0.03809195
v -0.02078032 0.01195539 0.03809195
v -0.02182623 0.00826543 0.03968247
v -0.02100942 0.00826543 0.04259125
v -0.02076911 0.00826543 0.04344331
v -0.02054997 0.00826543 0.04410929
v -0.01913176 0.00826543 0.04743529
v -0.01925876 0.00893188 0.04622672
v -0.00949317 0.02179971 0.03809195
v -0.00949317 0.00942343 0.05723111
v -0.01113176 0.01109153 0.05427140
v -0.01360958 0.00826543 0.05381697
v -0.01520211 0.01405013 0.04684766
v -0.01463433 0.01452975 0.04727859
v -0.01488087 0.01486496 0.04629724
v -0.01407526 0.01551816 0.04690446
v -0.01326593 0.01617136 0.04750972
v -0.01554203 0.01550094 0.04393888
v -0.01779697 0.01483052 0.04036216
v -0.01619324 0.01613426 0.04156681
v -0.01643480 0.01641382 0.04058546
v -0.01611853 0.01759832 0.03810958
v -0.01611978 0.01759964 0.03809195
v -0.01688553 0.01687092 0.03809195
v -0.01690172 0.01685503 0.03809195
v -0.01588569 0.01739163 0.03958061
v -0.01497923 0.01642045 0.04356084
v -0.01633145 0.01189710 0.04772714
v -0.01767121 0.01024622 0.04746859
v -0.01901222 0.00859402 0.04720611
v -0.01852787 0.00826543 0.04846756
v -0.01803106 0.00926444 0.04809539
v -0.01846561 0.00958905 0.04684766
v -0.01115418 0.02110941 0.03809195
v -0.01115418 0.02110941 0.03810958
v -0.00949317 0.02179838 0.03810566
v -0.00949317 0.00966722 0.05704502
v -0.01069970 0.01224556 0.05385026
v -0.01219137 0.01406602 0.05092974
v -0.01168087 0.01156851 0.05334099
v -0.01455589 0.00826543 0.05283170
v -0.01499293 0.01354930 0.04796220
v -0.01358344 0.01509815 0.04840880
v -0.01336554 0.01480799 0.04914921
v -0.01295589 0.01583350 0.04840880
v -0.01193488 0.01630253 0.04918251
v -0.01222001 0.01649597 0.04840880
v -0.01271558 0.01680733 0.04698673
v -0.01351620 0.01642045 0.04652838
v -0.01473270 0.01615413 0.04454218
v -0.01515106 0.01799050 0.03958061
v -0.01355978 0.01936844 0.03922607
v -0.01192865 0.02071060 0.03890484
v -0.01538390 0.01816937 0.03810958
v -0.01538515 0.01816937 0.03809195
v -0.01466421 0.01761289 0.04146103
v -0.01491822 0.01781031 0.04047969
v -0.01849923 0.00826543 0.04851457
v -0.01470157 0.01314784 0.04894158
v -0.01198344 0.02074638 0.03809195
v -0.01198344 0.02074638 0.03810958
v -0.00949317 0.02152147 0.03926721
v -0.00949317 0.01037474 0.05650440
v -0.01191371 0.01482654 0.05063984
v -0.01505519 0.01216738 0.04937643
v -0.01493939 0.01053373 0.05072602
v -0.01596040 0.00826543 0.05136850
v -0.01241550 0.01530617 0.04965654
v -0.01772600 0.00884708 0.04907478
v -0.01638873 0.01050591 0.04923344
v -0.01002360 0.01609848 0.05041458
v -0.00949317 0.01621508 0.05054974
v -0.01115418 0.01646549 0.04939014
v -0.00949317 0.01758507 0.04865756
v -0.01115418 0.01701534 0.04840880
v -0.01127745 0.01758507 0.04704745
v -0.01185021 0.01772684 0.04616404
v -0.01028258 0.01322734 0.05348006
v -0.00949317 0.01345125 0.05370727
v -0.01017426 0.01468742 0.05196201
v -0.01218266 0.01793220 0.04518270
v -0.01265456 0.01744065 0.04559013
v -0.01316383 0.01759832 0.04436981
v -0.01342904 0.01779573 0.04338847
v -0.01406904 0.01879871 0.03966288
v -0.01330577 0.01917235 0.04020742
v -0.01104087 0.02085105 0.03946896
v -0.00949317 0.02144330 0.03958845
v -0.01271931 0.02020845 0.03810958
v -0.01369550 0.01947311 0.03810958
v -0.01307542 0.01900143 0.04105165
v -0.01368554 0.01948106 0.03809195
v -0.01365316 0.01797063 0.04252465
v -0.01793518 0.00826543 0.04930395
v -0.01199215 0.02074108 0.03809195
v -0.00949317 0.01094446 0.05605976
v -0.01736367 0.00826543 0.04990530
v -0.01717690 0.00836878 0.05002282
v -0.01705612 0.00826543 0.05022654
v -0.00949317 0.01484244 0.05213634
v -0.00949317 0.01533797 0.05156438
v -0.00949317 0.01553274 0.05133912
v -0.00949317 0.01674373 0.04990334
v -0.00949317 0.01682720 0.04979169
v -0.00949317 0.01788318 0.04799942
v -0.01034857 0.01771624 0.04760962
v -0.01086904 0.01792823 0.04663023
v -0.01016928 0.01911538 0.04449321
v -0.00949317 0.02026807 0.04240908
v -0.00956787 0.02023760 0.04240908
v -0.01067231 0.01932074 0.04351187
v -0.01047558 0.02071060 0.04037196
v -0.01115916 0.01952743 0.04253052
v -0.00949317 0.01196732 0.05518419
v -0.00949317 0.01237673 0.05481202
v -0.00949317 0.01376394 0.05336253
v -0.00949317 0.02091332 0.04086361
v -0.01271931 0.02020845 0.03809195
v -0.00949317 0.01798918 0.04775653
v -0.00978826 0.01817864 0.04704745
v -0.00949317 0.01905973 0.04526301
v -0.00949317 0.01967450 0.04381548
v -0.00949317 0.01830584 0.04702003
f 1 2 6
f 1 6 33
f 1 33 53
f 1 53 52
f 1 52 51
f 1 51 50
f 1 50 49
f 1 49 47
f 1 47 76
f 1 76 75
f 1 75 74
f 1 74 106
f 1 106 143
f 1 143 169
f 1 169 146
f 1 146 111
f 1 111 85
f 1 85 60
f 1 60 34
f 1 34 8
f 1 8 3
f 1 3 10
f 1 10 35
f 1 35 63
f 1 63 92
f 1 92 118
f 1 118 150
f 1 150 148
f 1 148 145
f 1 145 109
f 1 109 82
f 1 82 58
f 1 58 31
f 1 31 30
f 1 30 57
f 1 57 56
f 1 56 55
f 1 55 54
f 1 54 24
f 1 24 11
f 1 11 4
f 1 4 5
f 1 5 2
f 2 5 7
f 2 7 6
f 3 8 9
f 3 9 10
f 4 11 5
f 5 12 13
f 5 13 14
f 5 14 15
f 5 15 16
f 5 16 17
f 5 17 18
f 5 18 19
f 5 19 20
f 5 20 21
f 5 21 22
f 5 22 23
f 5 23 7
f 5 11 24
f 5 24 25
f 5 25 26
f 5 26 27
f 5 27 28
f 5 28 29
f 5 29 30
f 5 30 31
f 5 31 32
f 5 32 12
f 6 7 33
f 7 23 33
f 8 34 9
f 9 34 60
f 9 60 87
f 9 87 113
f 9 113 139
f 9 139 168
f 9 168 160
f 9 160 173
f 9 173 172
f 9 172 174
f 9 174 170
f 9 170 156
f 9 156 125
f 9 125 155
f 9 155 154
f 9 154 123
f 9 123 153
f 9 153 152
f 9 152 151
f 9 151 167
f 9 167 130
f 9 130 166
f 9 166 165
f 9 165 147
f 9 147 114
f 9 114 88
f 9 88 61
f 9 61 35
f 9 35 10
f 12 36 13
f 12 32 36
f 13 36 37
f 13 37 38
f 13 38 14
f 14 38 15
f 15 38 39
f 15 39 16
f 16 39 40
f 16 40 41
f 16 41 42
f 16 42 43
f 16 43 17
f 17 43 44
f 17 44 45
f 17 45 18
f 18 46 47
f 18 47 19
f 18 45 48
f 18 48 46
f 19 47 49
f 19 49 20
f 20 49 21
f 21 49 50
f 21 50 51
f 21 51 22
f 22 51 23
f 23 51 52
f 23 52 53
f 23 53 33
f 24 54 25
f 25 54 55
f 25 55 56
f 25 56 28
f 25 28 27
f 25 27 26
f 28 56 57
f 28 57 29
f 29 57 30
f 31 58 32
f 32 58 59
f 32 59 36
f 35 61 62
f 35 62 63
f 36 59 37
f 37 59 64
f 37 64 38
f 38 64 65
f 38 65 66
f 38 66 39
f 39 66 40
f 40 66 67
f 40 67 68
f 40 68 69
f 40 69 41
f 41 69 70
f 41 70 43
f 41 43 42
f 43 45 44
f 43 70 45
f 45 70 69
f 45 69 71
f 45 71 72
f 45 72 48
f 46 73 74
f 46 74 75
f 46 75 76
f 46 76 47
f 46 48 73
f 48 77 73
f 48 72 78
f 48 78 77
f 58 79 80
f 58 80 81
f 58 81 59
f 58 82 83
f 58 83 79
f 59 81 84
f 59 84 64
f 60 85 86
f 60 86 87
f 61 88 89
f 61 89 90
f 61 90 62
f 62 91 63
f 62 90 91
f 63 91 92
f 64 84 65
f 65 80 79
f 65 79 93
f 65 93 94
f 65 94 68
f 65 68 67
f 65 67 66
f 65 84 80
f 68 94 95
f 68 95 96
f 68 96 97
f 68 97 98
f 68 98 99
f 68 99 100
f 68 100 78
f 68 78 101
f 68 101 69
f 69 101 71
f 71 101 72
f 72 101 78
f 73 77 102
f 73 102 103
f 73 103 104
f 73 104 105
f 73 105 74
f 74 105 106
f 77 107 108
f 77 108 102
f 77 78 100
f 77 100 107
f 79 83 93
f 80 84 81
f 82 109 83
f 83 109 110
f 83 110 93
f 85 111 112
f 85 112 86
f 86 112 104
f 86 104 87
f 87 104 113
f 88 114 89
f 89 114 115
f 89 115 90
f 90 115 95
f 90 95 91
f 91 95 116
f 91 116 117
f 91 117 92
f 92 117 118
f 93 110 95
f 93 95 94
f 95 115 119
f 95 119 97
f 95 97 96
f 95 110 120
f 95 120 121
f 95 121 116
f 97 122 123
f 97 123 124
f 97 124 125
f 97 125 126
f 97 126 127
f 97 127 128
f 97 128 98
f 97 119 115
f 97 115 129
f 97 129 130
f 97 130 131
f 97 131 122
f 98 128 99
f 99 128 132
f 99 132 133
f 99 133 134
f 99 134 100
f 100 134 135
f 100 135 107
f 102 108 136
f 102 136 103
f 103 136 137
f 103 137 104
f 104 138 139
f 104 139 113
f 104 112 140
f 104 140 141
f 104 141 105
f 104 137 142
f 104 142 134
f 104 134 133
f 104 133 132
f 104 132 128
f 104 128 138
f 105 141 106
f 106 141 143
f 107 135 144
f 107 144 108
f 108 144 136
f 109 120 110
f 109 145 120
f 111 146 112
f 112 146 140
f 114 147 115
f 115 147 129
f 116 121 148
f 116 148 149
f 116 149 150
f 116 150 118
f 116 118 117
f 120 145 121
f 121 145 148
f 122 131 151
f 122 151 152
f 122 152 153
f 122 153 123
f 123 154 124
f 124 155 125
f 124 154 155
f 125 156 157
f 125 157 126
f 126 157 127
f 127 157 158
f 127 158 128
f 128 158 159
f 128 159 160
f 128 160 161
f 128 161 162
f 128 162 163
f 128 163 164
f 128 164 138
f 129 147 165
f 129 165 166
f 129 166 130
f 130 167 131
f 131 167 151
f 134 142 137
f 134 137 135
f 135 137 144
f 136 144 137
f 138 164 163
f 138 163 139
f 139 163 168
f 140 146 169
f 140 169 143
f 140 143 141
f 148 150 149
f 156 170 157
f 157 170 171
f 157 171 172
f 157 172 158
f 158 172 173
f 158 173 159
f 159 173 160
f 160 168 161
f 161 168 162
f 162 168 163
f 170 174 171
f 171 174 172

