# https://github.com/mikedh/trimesh
v -0.01242361 0.00019259 0.05674261
v -0.01242361 0.00082150 0.05669149
v -0.01299053 0.00082150 0.05614015
v -0.01301589 0.00019259 0.05615658
v -0.01242361 0.00019259 0.05013747
v -0.01242361 0.00229343 0.05654362
v -0.01515122 0.00229343 0.05387637
v -0.01373282 0.00082150 0.05540442
v -0.01276111 0.00523571 0.05591742
v -0.01425231 0.00523571 0.05446422
v -0.01500673 0.00523571 0.05372849
v -0.01649683 0.00523571 0.05227529
v -0.01723250 0.00523571 0.05155781
v -0.01798472 0.00523571 0.05082208
v -0.01374054 0.00019259 0.05542086
v -0.01242361 0.00826411 0.04817492
v -0.01954871 0.00019259 0.03809195
v -0.01771560 0.00826411 0.03809195
v -0.01242361 0.00523571 0.05624604
v -0.01871929 0.00523571 0.05007905
v -0.01446959 0.00082150 0.05465409
v -0.01588689 0.00229343 0.05312968
v -0.01242361 0.00563391 0.05618762
v -0.01343943 0.00618539 0.05510685
v -0.01789207 0.00618223 0.05072898
v -0.01936893 0.00618144 0.04926847
v -0.01447621 0.00019259 0.05465226
v -0.01242361 0.00826411 0.05505025
v -0.02369032 0.00019259 0.03809195
v -0.02221125 0.00826411 0.03809195
v -0.01943401 0.00523571 0.04934332
v -0.01801670 0.00376457 0.05086773
v -0.01659499 0.00229343 0.05239396
v -0.01517328 0.00082150 0.05391836
v -0.01242361 0.00654172 0.05598132
v -0.01242361 0.00678744 0.05590282
v -0.01760971 0.00716352 0.05044235
v -0.01807957 0.00786433 0.04946199
v -0.01906121 0.00716273 0.04886866
v -0.01961379 0.00668631 0.04839034
v -0.02001416 0.00523571 0.04840860
v -0.01325303 0.00716668 0.05491698
v -0.01242361 0.00796151 0.05525655
v -0.01516556 0.00019259 0.05391653
v -0.01290119 0.00826411 0.05455368
v -0.01293317 0.00817878 0.05458471
v -0.01242361 0.00823488 0.05507216
v -0.02369032 0.00082150 0.03809195
v -0.02357782 0.00019259 0.03852645
v -0.02236126 0.00787302 0.03809195
v -0.02221125 0.00826411 0.03810108
v -0.01942739 0.00376457 0.04934332
v -0.01875127 0.00376457 0.05007905
v -0.02071233 0.00019259 0.04765461
v -0.02059652 0.00019259 0.04781162
v -0.01590895 0.00082150 0.05312603
v -0.01662918 0.00789119 0.05095353
v -0.01242361 0.00817878 0.05511415
v -0.01517659 0.00791805 0.05244507
v -0.01705713 0.00826411 0.05022693
v -0.01736486 0.00826411 0.04990562
v -0.01793729 0.00826411 0.04930316
v -0.01849980 0.00826411 0.04851448
v -0.01937003 0.00761229 0.04788647
v -0.02032850 0.00658755 0.04682212
v -0.02056343 0.00523571 0.04715073
v -0.02061417 0.00376457 0.04734973
v -0.01590123 0.00019259 0.05311508
v -0.01364017 0.00817878 0.05384898
v -0.01649462 0.00826411 0.05081296
v -0.02350282 0.00236454 0.03809195
v -0.02327781 0.00019259 0.03957984
v -0.02356679 0.00082150 0.03851732
v -0.02267229 0.00229343 0.04105312
v -0.02309913 0.00229343 0.03957984
v -0.02236677 0.00785801 0.03809195
v -0.02236015 0.00787065 0.03810837
v -0.02221015 0.00826411 0.03810837
v -0.01977592 0.00019259 0.04882119
v -0.01938548 0.00082150 0.04929768
v -0.01798362 0.00082150 0.05084399
v -0.01657955 0.00082150 0.05239030
v -0.02093182 0.00082150 0.04686776
v -0.02115793 0.00019259 0.04626895
v -0.01852848 0.00826411 0.04846702
v -0.01913180 0.00826411 0.04743371
v -0.01948254 0.00826411 0.04671076
v -0.01952665 0.00813296 0.04680569
v -0.02005938 0.00817878 0.04546750
v -0.02054910 0.00826411 0.04410923
v -0.02059321 0.00709241 0.04546750
v -0.02073329 0.00601790 0.04625435
v -0.02078513 0.00523571 0.04641501
v -0.02165205 0.00376457 0.04399605
v -0.02120646 0.00376457 0.04546750
v -0.02085020 0.00376457 0.04661400
v -0.01688507 0.00019259 0.05203430
v -0.02339252 0.00317912 0.03809195
v -0.02290170 0.00376457 0.03957984
v -0.02270317 0.00523571 0.03957984
v -0.02282781 0.00019259 0.04105312
v -0.02325024 0.00082150 0.03957984
v -0.02225647 0.00351569 0.04201706
v -0.02147558 0.00523571 0.04399605
v -0.02243295 0.00390916 0.04119735
v -0.02277156 0.00670764 0.03809195
v -0.02276935 0.00670764 0.03810837
v -0.02224324 0.00759333 0.03903215
v -0.02186382 0.00826411 0.03954880
v -0.02213515 0.00826411 0.03842056
v -0.01937665 0.00019259 0.04928673
v -0.01828803 0.00019259 0.05048799
v -0.02177007 0.00229343 0.04399605
v -0.02141492 0.00019259 0.04546750
v -0.02000865 0.00826411 0.04546750
v -0.02076858 0.00826411 0.04344287
v -0.02071123 0.00741951 0.04470256
v -0.02106087 0.00523571 0.04546750
v -0.02210537 0.00717853 0.04001251
v -0.02225978 0.00619724 0.04056568
v -0.02310906 0.00523571 0.03810837
v -0.02234471 0.00523571 0.04087056
v -0.02232155 0.00229343 0.04221605
v -0.02209765 0.00229343 0.04295178
v -0.02279361 0.00082150 0.04105312
v -0.02311127 0.00523571 0.03809195
v -0.02330870 0.00376457 0.03810837
v -0.02215611 0.00019259 0.04315260
v -0.02277597 0.00669105 0.03809195
v -0.02238662 0.00669579 0.03954515
v -0.02141602 0.00826411 0.04114441
v -0.02191456 0.00812189 0.03954515
v -0.02101344 0.00826411 0.04257753
f 1 2 3
f 1 3 4
f 1 4 15
f 1 15 27
f 1 27 44
f 1 44 68
f 1 68 97
f 1 97 112
f 1 112 111
f 1 111 79
f 1 79 55
f 1 55 54
f 1 54 84
f 1 84 114
f 1 114 128
f 1 128 101
f 1 101 72
f 1 72 49
f 1 49 29
f 1 29 17
f 1 17 5
f 1 5 16
f 1 16 28
f 1 28 47
f 1 47 58
f 1 58 43
f 1 43 36
f 1 36 35
f 1 35 23
f 1 23 19
f 1 19 6
f 1 6 2
f 2 6 3
f 3 7 8
f 3 8 4
f 3 6 9
f 3 9 10
f 3 10 11
f 3 11 12
f 3 12 13
f 3 13 14
f 3 14 7
f 4 8 15
f 5 17 18
f 5 18 16
f 6 19 9
f 7 14 20
f 7 20 8
f 8 21 15
f 8 20 22
f 8 22 21
f 9 19 23
f 9 23 10
f 10 23 11
f 11 23 12
f 12 23 13
f 13 23 24
f 13 24 14
f 14 25 26
f 14 26 20
f 14 24 25
f 15 21 27
f 16 18 30
f 16 30 51
f 16 51 78
f 16 78 110
f 16 110 109
f 16 109 131
f 16 131 133
f 16 133 116
f 16 116 90
f 16 90 115
f 16 115 87
f 16 87 86
f 16 86 85
f 16 85 63
f 16 63 62
f 16 62 61
f 16 61 60
f 16 60 70
f 16 70 45
f 16 45 28
f 17 29 48
f 17 48 71
f 17 71 98
f 17 98 126
f 17 126 129
f 17 129 106
f 17 106 76
f 17 76 50
f 17 50 30
f 17 30 18
f 20 26 31
f 20 31 22
f 21 22 32
f 21 32 33
f 21 33 34
f 21 34 27
f 22 31 32
f 23 35 24
f 24 35 36
f 24 36 25
f 25 36 26
f 26 37 38
f 26 38 39
f 26 39 40
f 26 40 41
f 26 41 31
f 26 36 42
f 26 42 43
f 26 43 37
f 27 34 44
f 28 45 46
f 28 46 47
f 29 49 48
f 30 50 51
f 31 52 53
f 31 53 32
f 31 41 54
f 31 54 55
f 31 55 52
f 32 53 33
f 33 53 34
f 34 53 56
f 34 56 44
f 36 43 42
f 37 57 38
f 37 43 58
f 37 58 59
f 37 59 57
f 38 57 60
f 38 60 61
f 38 61 62
f 38 62 39
f 39 62 63
f 39 63 64
f 39 64 40
f 40 64 65
f 40 65 41
f 41 65 66
f 41 66 67
f 41 67 54
f 44 56 68
f 45 69 46
f 45 70 69
f 46 58 47
f 46 69 57
f 46 57 59
f 46 59 58
f 48 49 72
f 48 72 73
f 48 73 74
f 48 74 75
f 48 75 71
f 50 76 77
f 50 77 51
f 51 77 78
f 52 55 79
f 52 79 80
f 52 80 81
f 52 81 82
f 52 82 56
f 52 56 53
f 54 67 83
f 54 83 84
f 56 82 68
f 57 70 60
f 57 69 70
f 63 85 64
f 64 85 86
f 64 86 87
f 64 87 88
f 64 88 89
f 64 89 65
f 65 89 90
f 65 90 91
f 65 91 92
f 65 92 66
f 66 92 93
f 66 93 94
f 66 94 95
f 66 95 96
f 66 96 67
f 67 96 83
f 68 82 97
f 71 75 99
f 71 99 100
f 71 100 98
f 72 101 102
f 72 102 73
f 73 102 74
f 74 102 94
f 74 94 93
f 74 93 103
f 74 103 75
f 75 103 104
f 75 104 105
f 75 105 99
f 76 106 77
f 77 107 108
f 77 108 109
f 77 109 110
f 77 110 78
f 77 106 107
f 79 111 80
f 80 112 81
f 80 111 112
f 81 112 97
f 81 97 82
f 83 96 113
f 83 113 114
f 83 114 84
f 87 115 88
f 88 115 89
f 89 115 90
f 90 116 117
f 90 117 91
f 91 117 92
f 92 104 118
f 92 118 93
f 92 117 119
f 92 119 120
f 92 120 121
f 92 121 100
f 92 100 122
f 92 122 104
f 93 118 103
f 94 123 95
f 94 102 123
f 95 123 102
f 95 102 124
f 95 124 96
f 96 124 125
f 96 125 113
f 98 100 127
f 98 127 121
f 98 121 126
f 99 105 122
f 99 122 100
f 100 121 127
f 101 128 125
f 101 125 102
f 102 125 124
f 103 118 104
f 104 122 105
f 106 129 107
f 107 129 121
f 107 121 120
f 107 120 130
f 107 130 108
f 108 131 132
f 108 132 109
f 108 130 119
f 108 119 117
f 108 117 131
f 109 132 131
f 113 125 114
f 114 125 128
f 116 133 117
f 117 133 131
f 119 130 120
f 121 129 126

