# https://github.com/mikedh/trimesh
v 0.02334546 0.00019379 0.03811573
v 0.02332710 0.00084405 0.03811573
v 0.02324378 0.00019379 0.03875437
v 0.01943470 0.00019379 0.03811573
v 0.02332569 0.00087650 0.03811573
v 0.02276358 0.00019379 0.04168056
v 0.02300650 0.00019379 0.04020892
v 0.01941916 0.00019620 0.03811573
v 0.00891844 0.00019379 0.05244763
v 0.02332428 0.00090054 0.03811573
v 0.02282996 0.00082241 0.04105260
v 0.02247546 0.00019379 0.04315219
v 0.01462145 0.01247169 0.03811573
v 0.00891844 0.00019379 0.05992328
v 0.00891844 0.01247169 0.04733428
v 0.02322824 0.00228759 0.03811573
v 0.02269579 0.00229360 0.04105260
v 0.02254184 0.00082241 0.04252424
v 0.02297684 0.00229360 0.03958096
v 0.02284832 0.00376478 0.03958096
v 0.02265342 0.00523717 0.03958096
v 0.02224949 0.00019379 0.04401936
v 0.01972423 0.01247169 0.03811573
v 0.00991413 0.00019379 0.05925688
v 0.00891844 0.00038490 0.05993396
v 0.00891844 0.01247169 0.05316743
v 0.02312231 0.00375997 0.03811573
v 0.02297543 0.00523116 0.03811573
v 0.02260116 0.00670114 0.03811573
v 0.02222972 0.00674441 0.03957669
v 0.02207295 0.00628046 0.04068950
v 0.02191900 0.00578405 0.04166988
v 0.02218876 0.00527082 0.04112949
v 0.02215063 0.00080198 0.04403645
v 0.02199809 0.00029716 0.04486091
v 0.02200798 0.00019379 0.04488013
v 0.02028775 0.01147287 0.03811573
v 0.01940646 0.01247169 0.03951048
v 0.00993108 0.00082241 0.05927824
v 0.01037879 0.00019379 0.05883611
v 0.00891844 0.00227917 0.05987415
v 0.00891844 0.01121085 0.05438916
v 0.00948337 0.01247169 0.05288763
v 0.02213792 0.00782015 0.03811573
v 0.02202634 0.00757976 0.03908116
v 0.02188228 0.00726004 0.04006368
v 0.02045582 0.00736582 0.04463450
v 0.01998128 0.00670715 0.04693914
v 0.02047842 0.00593790 0.04618089
v 0.02176365 0.00527082 0.04249006
v 0.02208707 0.00362415 0.04249006
v 0.02180178 0.00229360 0.04423723
v 0.02112809 0.00376478 0.04546751
v 0.02057446 0.00495711 0.04648847
v 0.02034284 0.00536337 0.04696264
v 0.02171704 0.00080198 0.04539702
v 0.02173399 0.00019379 0.04555508
v 0.02122272 0.00964471 0.03811573
v 0.01904207 0.01247169 0.04105260
v 0.01868899 0.01247169 0.04246870
v 0.00904555 0.00229360 0.05978017
v 0.01074176 0.00082241 0.05854135
v 0.01070363 0.00019379 0.05852213
v 0.00891844 0.00300875 0.05965843
v 0.00891844 0.01051252 0.05506411
v 0.00939298 0.01109306 0.05426742
v 0.01092113 0.01247169 0.05217210
v 0.02177636 0.00855815 0.03811573
v 0.02081738 0.00972284 0.03957456
v 0.01894321 0.01170605 0.04298132
v 0.02116905 0.00817833 0.04105260
v 0.02060412 0.00770116 0.04365412
v 0.01935137 0.00824444 0.04696264
v 0.01917766 0.00779852 0.04799000
v 0.01934855 0.00667229 0.04845349
v 0.02041345 0.00376478 0.04748593
v 0.01966350 0.00523717 0.04841078
v 0.02096285 0.00082241 0.04685798
v 0.02098827 0.00019379 0.04684943
v 0.02042051 0.01026131 0.04006154
v 0.01828082 0.01247169 0.04399587
v 0.00891844 0.00387055 0.05937222
v 0.01207642 0.00229360 0.05691593
v 0.01760714 0.00610858 0.05067483
v 0.01147759 0.00082241 0.05779592
v 0.01907738 0.00616026 0.04921815
v 0.01112451 0.00019379 0.05809495
v 0.00891844 0.00908460 0.05643536
v 0.01092113 0.01220846 0.05242627
v 0.01182079 0.01196567 0.05219132
v 0.01226144 0.01247169 0.05145657
v 0.01786983 0.01247169 0.04540343
v 0.01879632 0.01138873 0.04399587
v 0.02052503 0.00900287 0.04192405
v 0.02074111 0.00818675 0.04245802
v 0.02024962 0.00818675 0.04408558
v 0.01894745 0.00877931 0.04746885
v 0.01747014 0.01175052 0.04753292
v 0.01888248 0.00713985 0.04897252
v 0.02043605 0.00229360 0.04760127
v 0.02041628 0.00082241 0.04759273
v 0.02040780 0.00019379 0.04758418
v 0.00891844 0.00523717 0.05882756
v 0.01607899 0.00598959 0.05209520
v 0.01824551 0.00662421 0.04983328
v 0.01735715 0.00708817 0.05045056
v 0.00891844 0.00670715 0.05821029
v 0.01216681 0.00082241 0.05706117
v 0.01632615 0.00376478 0.05236433
v 0.01909998 0.00523717 0.04924378
v 0.01183350 0.00019379 0.05732389
v 0.00986753 0.01020962 0.05487401
v 0.00891844 0.00764827 0.05770835
v 0.01344215 0.01219885 0.05089910
v 0.01169509 0.01042718 0.05359461
v 0.01264842 0.01247169 0.05119599
v 0.01913670 0.01065314 0.04399587
v 0.01776673 0.01247169 0.04573022
v 0.01766504 0.01212433 0.04655254
v 0.01733032 0.01247169 0.04687506
v 0.01724275 0.01247169 0.04708438
v 0.01649280 0.01247169 0.04806476
v 0.01772860 0.01076973 0.04790457
v 0.01783876 0.00817833 0.04941251
v 0.01974965 0.00229360 0.04841078
v 0.01971011 0.00082241 0.04841078
v 0.01964231 0.00019379 0.04846845
v 0.01637558 0.00790549 0.05089056
v 0.01332634 0.00774203 0.05373771
v 0.01027428 0.00757736 0.05658273
v 0.00891844 0.00679008 0.05816970
v 0.01253826 0.00019379 0.05654215
v 0.01290264 0.00082241 0.05624312
v 0.01770600 0.00376478 0.05080512
v 0.01908162 0.00376478 0.04922242
v 0.01484884 0.01247169 0.04954707
v 0.01372038 0.01247169 0.05046337
v 0.01195779 0.00965072 0.05383169
v 0.01494488 0.01247169 0.04946164
v 0.01638829 0.01247169 0.04816088
v 0.01725264 0.00995000 0.04888708
v 0.01605357 0.00888748 0.05060007
v 0.01567223 0.00229360 0.05310121
v 0.01427826 0.00082241 0.05466042
v 0.01935279 0.00019379 0.04880165
v 0.01561857 0.01247169 0.04885718
v 0.01285180 0.00019379 0.05619186
v 0.01488556 0.00019379 0.05388509
v 0.01562139 0.00019379 0.05304995
v 0.01765233 0.00019379 0.05074318
v 0.01843900 0.00019379 0.04984610
v 0.01903360 0.00019379 0.04916688
v 0.01568494 0.01247169 0.04879737
f 1 2 3
f 1 3 7
f 1 7 6
f 1 6 12
f 1 12 22
f 1 22 36
f 1 36 57
f 1 57 79
f 1 79 102
f 1 102 127
f 1 127 145
f 1 145 152
f 1 152 151
f 1 151 150
f 1 150 149
f 1 149 148
f 1 148 147
f 1 147 132
f 1 132 111
f 1 111 87
f 1 87 63
f 1 63 40
f 1 40 24
f 1 24 14
f 1 14 9
f 1 9 4
f 1 4 8
f 1 8 13
f 1 13 23
f 1 23 37
f 1 37 58
f 1 58 68
f 1 68 44
f 1 44 29
f 1 29 28
f 1 28 27
f 1 27 16
f 1 16 10
f 1 10 5
f 1 5 2
f 2 5 6
f 2 6 7
f 2 7 3
f 4 9 8
f 5 10 6
f 6 10 11
f 6 11 18
f 6 18 12
f 8 9 13
f 9 14 25
f 9 25 41
f 9 41 64
f 9 64 82
f 9 82 103
f 9 103 107
f 9 107 131
f 9 131 113
f 9 113 88
f 9 88 65
f 9 65 42
f 9 42 26
f 9 26 15
f 9 15 13
f 10 16 11
f 11 17 18
f 11 16 19
f 11 19 20
f 11 20 17
f 12 18 21
f 12 21 22
f 13 15 26
f 13 26 43
f 13 43 67
f 13 67 91
f 13 91 116
f 13 116 137
f 13 137 136
f 13 136 139
f 13 139 146
f 13 146 153
f 13 153 140
f 13 140 122
f 13 122 121
f 13 121 120
f 13 120 118
f 13 118 92
f 13 92 81
f 13 81 60
f 13 60 59
f 13 59 38
f 13 38 23
f 14 24 25
f 16 27 19
f 17 20 21
f 17 21 18
f 19 27 20
f 20 27 28
f 20 28 21
f 21 28 29
f 21 29 30
f 21 30 31
f 21 31 32
f 21 32 33
f 21 33 34
f 21 34 22
f 22 34 35
f 22 35 36
f 23 38 37
f 24 39 25
f 24 40 39
f 25 39 41
f 26 42 43
f 29 44 45
f 29 45 30
f 30 45 46
f 30 46 31
f 31 46 47
f 31 47 48
f 31 48 49
f 31 49 32
f 32 50 33
f 32 49 50
f 33 50 51
f 33 51 35
f 33 35 34
f 35 52 53
f 35 53 54
f 35 54 55
f 35 55 56
f 35 56 36
f 35 51 52
f 36 56 57
f 37 38 59
f 37 59 60
f 37 60 58
f 39 61 41
f 39 40 62
f 39 62 61
f 40 63 62
f 41 61 64
f 42 65 66
f 42 66 43
f 43 66 67
f 44 68 45
f 45 68 69
f 45 69 60
f 45 60 70
f 45 70 71
f 45 71 46
f 46 71 72
f 46 72 47
f 47 72 73
f 47 73 48
f 48 73 74
f 48 74 75
f 48 75 55
f 48 55 49
f 49 55 54
f 49 54 53
f 49 53 52
f 49 52 51
f 49 51 50
f 55 76 56
f 55 75 77
f 55 77 76
f 56 76 57
f 57 76 78
f 57 78 79
f 58 69 68
f 58 60 80
f 58 80 69
f 60 69 80
f 60 81 70
f 61 82 64
f 61 62 83
f 61 83 84
f 61 84 82
f 62 63 85
f 62 85 86
f 62 86 84
f 62 84 83
f 63 87 85
f 65 88 89
f 65 89 66
f 66 89 67
f 67 89 90
f 67 90 91
f 70 81 92
f 70 92 93
f 70 93 71
f 71 93 94
f 71 94 95
f 71 95 72
f 72 96 73
f 72 95 96
f 73 97 74
f 73 96 92
f 73 92 97
f 74 97 98
f 74 98 99
f 74 99 75
f 75 99 86
f 75 86 77
f 76 100 78
f 76 77 86
f 76 86 100
f 78 100 79
f 79 100 101
f 79 101 102
f 82 84 104
f 82 104 103
f 84 86 105
f 84 105 106
f 84 106 107
f 84 107 104
f 85 87 108
f 85 108 86
f 86 99 105
f 86 108 109
f 86 109 110
f 86 110 100
f 87 111 108
f 88 112 89
f 88 113 90
f 88 90 112
f 89 112 90
f 90 114 91
f 90 113 115
f 90 115 114
f 91 114 116
f 92 96 117
f 92 117 93
f 92 118 97
f 93 117 94
f 94 117 95
f 95 117 96
f 97 119 98
f 97 118 119
f 98 119 120
f 98 120 121
f 98 121 122
f 98 122 123
f 98 123 99
f 99 124 106
f 99 106 105
f 99 123 124
f 100 110 101
f 101 110 125
f 101 125 102
f 102 125 126
f 102 126 127
f 103 104 107
f 106 124 128
f 106 128 129
f 106 129 130
f 106 130 107
f 107 130 131
f 108 111 132
f 108 132 133
f 108 133 109
f 109 133 110
f 110 133 134
f 110 134 135
f 110 135 125
f 113 131 130
f 113 130 115
f 114 136 137
f 114 137 116
f 114 115 136
f 115 130 138
f 115 138 139
f 115 139 136
f 118 120 119
f 122 140 141
f 122 141 123
f 123 141 124
f 124 141 142
f 124 142 129
f 124 129 128
f 125 135 134
f 125 134 143
f 125 143 133
f 125 133 144
f 125 144 126
f 126 144 145
f 126 145 127
f 129 142 146
f 129 146 130
f 130 146 138
f 132 147 133
f 133 143 134
f 133 147 148
f 133 148 149
f 133 149 150
f 133 150 151
f 133 151 152
f 133 152 145
f 133 145 144
f 138 146 139
f 140 153 141
f 141 153 146
f 141 146 142

