# https://github.com/mikedh/trimesh
v -0.02391198 0.00019259 -0.01423113
v -0.02391296 0.00082276 -0.01423113
v -0.01980829 0.00019259 -0.01423113
v -0.02391198 0.00019259 0.03516235
v -0.02374087 0.00215436 -0.01423113
v -0.02391296 0.00082276 0.03516235
v -0.01392507 0.01406191 -0.01423113
v -0.01954918 0.00019259 0.03809195
v -0.02390904 0.00019259 0.03600742
v -0.02352869 0.00376542 -0.01423113
v -0.02374087 0.00215436 0.03516235
v -0.02390709 0.00082276 0.03663227
v -0.01392507 0.01935269 -0.01423113
v -0.01392507 0.01376371 0.03809195
v -0.02369003 0.00019259 0.03809195
v -0.02390416 0.00019259 0.03663227
v -0.02344460 0.00440309 -0.01423113
v -0.02352869 0.00376542 0.03516235
v -0.02373793 0.00212998 0.03663227
v -0.02377900 0.00019259 0.03778465
v -0.02378193 0.00082276 0.03777952
v -0.02371056 0.00192368 0.03754905
v -0.01616220 0.01763474 -0.01423113
v -0.01616220 0.01763474 0.03663227
v -0.01542692 0.01819926 0.03663227
v -0.01392507 0.01935082 0.03663227
v -0.01392507 0.01929643 0.03809195
v -0.02369100 0.00045516 0.03809195
v -0.02333412 0.00523768 -0.01423113
v -0.02333412 0.00523768 0.03516235
v -0.02364016 0.00286518 0.03663227
v -0.02369100 0.00082276 0.03809195
v -0.02350327 0.00236442 0.03809195
v -0.02350034 0.00238693 0.03809195
v -0.02339278 0.00318026 0.03809195
v -0.02311119 0.00523768 0.03809195
v -0.02332238 0.00523768 0.03663227
v -0.01649562 0.01731590 -0.01423113
v -0.01693170 0.01689766 0.03663227
v -0.01689455 0.01686391 0.03809195
v -0.01612016 0.01759910 0.03809195
v -0.01539270 0.01816363 0.03809195
v -0.01392507 0.01931331 0.03766685
v -0.02317865 0.00587536 -0.01423113
v -0.02296746 0.00670808 0.03663227
v -0.02297430 0.00670808 0.03516235
v -0.02277581 0.00669307 0.03809195
v -0.01693170 0.01689766 -0.01423113
v -0.01766698 0.01613058 0.03663227
v -0.01763081 0.01608370 0.03809195
v -0.02297430 0.00670808 -0.01423113
v -0.02277190 0.00670808 0.03809195
v -0.02236711 0.00785963 0.03809195
v -0.02245119 0.00807344 0.03663227
v -0.02274746 0.00730073 -0.01423113
v -0.01766698 0.01613058 -0.01423113
v -0.01953158 0.01369994 0.03663227
v -0.01949541 0.01366805 0.03809195
v -0.01819302 0.01535600 0.03809195
v -0.01864866 0.01485149 -0.01423113
v -0.02169245 0.00964323 0.03809195
v -0.02113121 0.01110612 0.03809195
v -0.02078508 0.01194447 0.03809195
v -0.02214613 0.00881051 0.03663227
v -0.02227813 0.00849168 -0.01423113
v -0.02245119 0.00807344 -0.01423113
v -0.02026686 0.01272093 0.03663227
v -0.02023753 0.01269092 0.03809195
v -0.01953158 0.01369994 -0.01423113
v -0.02078019 0.01195385 0.03809195
v -0.02080072 0.01198573 0.03663227
v -0.02118792 0.01112113 0.03663227
v -0.02179707 0.00965261 0.03663227
v -0.02199555 0.00917436 -0.01423113
v -0.02077432 0.01196323 0.03809195
v -0.02026686 0.01272093 -0.01423113
v -0.02049859 0.01240209 -0.01423113
v -0.02080072 0.01198573 -0.01423113
v -0.02118792 0.01112113 -0.01423113
f 1 2 5
f 1 5 10
f 1 10 17
f 1 17 29
f 1 29 44
f 1 44 51
f 1 51 55
f 1 55 66
f 1 66 65
f 1 65 74
f 1 74 79
f 1 79 78
f 1 78 77
f 1 77 76
f 1 76 69
f 1 69 60
f 1 60 56
f 1 56 48
f 1 48 38
f 1 38 23
f 1 23 13
f 1 13 7
f 1 7 3
f 1 3 8
f 1 8 15
f 1 15 20
f 1 20 16
f 1 16 9
f 1 9 4
f 1 4 6
f 1 6 2
f 2 6 11
f 2 11 5
f 3 7 8
f 4 9 6
f 5 11 18
f 5 18 10
f 6 9 12
f 6 12 11
f 7 13 26
f 7 26 43
f 7 43 27
f 7 27 14
f 7 14 8
f 8 14 27
f 8 27 42
f 8 42 41
f 8 41 40
f 8 40 50
f 8 50 59
f 8 59 58
f 8 58 68
f 8 68 75
f 8 75 70
f 8 70 63
f 8 63 62
f 8 62 61
f 8 61 53
f 8 53 52
f 8 52 47
f 8 47 36
f 8 36 35
f 8 35 34
f 8 34 33
f 8 33 32
f 8 32 28
f 8 28 15
f 9 16 12
f 10 18 17
f 11 12 19
f 11 19 18
f 12 16 20
f 12 20 21
f 12 21 22
f 12 22 19
f 13 23 24
f 13 24 25
f 13 25 26
f 15 28 20
f 17 18 30
f 17 30 29
f 18 19 30
f 19 22 31
f 19 31 30
f 20 28 21
f 21 28 32
f 21 32 33
f 21 33 22
f 22 33 34
f 22 34 35
f 22 35 36
f 22 36 37
f 22 37 31
f 23 38 24
f 24 39 40
f 24 40 41
f 24 41 42
f 24 42 27
f 24 27 43
f 24 43 25
f 24 38 39
f 25 43 26
f 29 30 44
f 30 31 37
f 30 37 45
f 30 45 46
f 30 46 44
f 36 47 37
f 37 47 45
f 38 48 39
f 39 49 40
f 39 48 56
f 39 56 49
f 40 49 50
f 44 46 51
f 45 47 52
f 45 52 53
f 45 53 54
f 45 54 46
f 46 54 55
f 46 55 51
f 49 57 58
f 49 58 59
f 49 59 50
f 49 56 60
f 49 60 57
f 53 61 54
f 54 61 62
f 54 62 63
f 54 63 64
f 54 64 65
f 54 65 66
f 54 66 55
f 57 67 68
f 57 68 58
f 57 60 69
f 57 69 76
f 57 76 67
f 63 70 71
f 63 71 72
f 63 72 73
f 63 73 64
f 64 73 74
f 64 74 65
f 67 71 75
f 67 75 68
f 67 76 77
f 67 77 71
f 70 75 71
f 71 77 78
f 71 78 79
f 71 79 72
f 72 79 74
f 72 74 73

