# https://github.com/mikedh/trimesh
v -0.00949192 0.00826562 0.04986256
v -0.00949192 0.01714542 0.03809686
v -0.00006997 0.01966117 0.03809440
v -0.00006997 0.00826562 0.05465582
v -0.00949192 0.00826562 0.05810273
v -0.00949192 0.01887943 0.03809440
v -0.00853645 0.01758156 0.03809440
v -0.00006997 0.02367700 0.03809440
v -0.00006997 0.00826562 0.06318835
v -0.00928072 0.00826562 0.05832139
v -0.00901234 0.00900661 0.05804132
v -0.00949192 0.00942313 0.05723056
v -0.00949192 0.02179962 0.03809440
v -0.00085298 0.02368153 0.03809440
v -0.00006997 0.02356079 0.03856120
v -0.00006997 0.00899453 0.06247587
v -0.00030699 0.00896435 0.06244393
v -0.00379688 0.00849350 0.06194029
v -0.00379688 0.00826562 0.06215403
v -0.00849494 0.00826562 0.05913460
v -0.00783460 0.00826562 0.05981514
v -0.00755976 0.00900963 0.05953506
v -0.00912947 0.01061837 0.05669252
v -0.00949192 0.01037540 0.05650335
v -0.00949192 0.02179812 0.03810669
v -0.00878546 0.02209240 0.03810914
v -0.00878638 0.02209240 0.03809440
v -0.00378673 0.02339026 0.03809440
v -0.00379688 0.02338875 0.03810914
v -0.00379688 0.02306881 0.03958078
v -0.00085298 0.02355929 0.03856611
v -0.00006997 0.02329971 0.03958078
v -0.00006997 0.01035880 0.06094773
v -0.00010133 0.01038295 0.06091334
v -0.00379688 0.00990908 0.06038266
v -0.00232493 0.00936277 0.06141698
v -0.00379688 0.00917261 0.06120324
v -0.00232493 0.01428258 0.05592108
v -0.00317342 0.01483190 0.05506365
v -0.00405881 0.00826562 0.06207541
v -0.00489070 0.00902321 0.06103617
v -0.00587200 0.00886475 0.06086912
v -0.00682747 0.00826562 0.06067502
v -0.00622430 0.00826562 0.06114919
v -0.00761233 0.01048859 0.05809045
v -0.00923369 0.01210035 0.05530933
v -0.00949192 0.01094435 0.05606112
v -0.00949192 0.01196755 0.05518403
v -0.00949192 0.02152194 0.03926876
v -0.00782168 0.02230066 0.03919014
v -0.00804949 0.02239573 0.03810914
v -0.00805871 0.02239272 0.03809440
v -0.00525131 0.02323935 0.03809440
v -0.00526698 0.02323633 0.03810914
v -0.00526698 0.02291941 0.03958078
v -0.00232493 0.02317747 0.03958078
v -0.00160832 0.02216182 0.04326846
v -0.00085298 0.02219653 0.04338394
v -0.00232493 0.02275944 0.04105241
v -0.00085298 0.02286961 0.04105241
v -0.00085298 0.02328311 0.03958078
v -0.00006997 0.02291186 0.04105241
v -0.00006997 0.01038446 0.06091579
v -0.00085298 0.01305564 0.05761874
v -0.00085298 0.01231918 0.05850811
v -0.00232493 0.01493604 0.05518649
v -0.00379688 0.01130353 0.05882504
v -0.00454761 0.01186493 0.05797990
v -0.00379688 0.01678474 0.05266825
v -0.00415472 0.01469608 0.05491870
v -0.00539703 0.00826562 0.06161844
v -0.00673893 0.01070138 0.05833613
v -0.00526698 0.01513977 0.05394334
v -0.00526698 0.01587623 0.05309819
v -0.00930101 0.01350537 0.05376154
v -0.00949192 0.01345104 0.05370748
v -0.00949192 0.01237804 0.05481060
v -0.00949192 0.02144347 0.03958815
v -0.00673893 0.02289526 0.03810914
v -0.00827175 0.02192790 0.03963974
v -0.00732089 0.02209843 0.04017042
v -0.00679335 0.02251043 0.03963974
v -0.00803565 0.02240177 0.03809440
v -0.00526698 0.02323633 0.03809440
v -0.00672233 0.02289979 0.03809440
v -0.00633959 0.02228557 0.04062493
v -0.00520704 0.02238064 0.04108926
v -0.00467765 0.02218898 0.04187053
v -0.00379688 0.02226293 0.04206708
v -0.00006997 0.02199430 0.04423399
v -0.00258870 0.02208334 0.04305963
v -0.00232493 0.02081264 0.04653357
v -0.00006997 0.02101185 0.04696352
v -0.00006997 0.02156571 0.04546732
v -0.00006997 0.02222822 0.04349940
v -0.00006997 0.02250741 0.04252405
v -0.00006997 0.01985736 0.04894863
v -0.00158250 0.01627616 0.05356499
v -0.00166827 0.01627616 0.05356499
v -0.00379688 0.01813391 0.05109343
v -0.00379688 0.01752120 0.05183047
v -0.00498569 0.01794376 0.05084775
v -0.00949192 0.01484247 0.05213512
v -0.00755146 0.01189360 0.05654020
v -0.00596699 0.01772795 0.05059961
v -0.00668360 0.01551404 0.05279601
v -0.00949192 0.01553517 0.05133911
v -0.00949192 0.01533898 0.05156514
v -0.00949192 0.01376343 0.05336108
v -0.00949192 0.02083226 0.04105978
v -0.00673893 0.02289526 0.03809440
v -0.00949192 0.02060740 0.04159782
v -0.00899943 0.02070851 0.04184105
v -0.00949192 0.02025577 0.04243806
v -0.00949192 0.01967475 0.04381633
v -0.00949192 0.01905902 0.04526340
v -0.00807623 0.02021955 0.04386055
v -0.00749704 0.02069644 0.04328075
v -0.00679335 0.02191281 0.04108926
v -0.00565711 0.02208033 0.04160520
v -0.00597252 0.02067682 0.04470816
v -0.00517845 0.01942272 0.04834425
v -0.00462969 0.01925370 0.04921396
v -0.00431427 0.02064966 0.04611100
v -0.00379688 0.02153552 0.04399568
v -0.00379688 0.02198525 0.04280412
v -0.00333390 0.02073115 0.04631983
v -0.00119883 0.02062400 0.04750893
v -0.00006997 0.02077793 0.04757281
v -0.00006997 0.02053194 0.04803961
v -0.00232493 0.01949063 0.04950141
v -0.00379688 0.01887037 0.05012545
v -0.00529834 0.01850365 0.04990679
v -0.00784566 0.01788943 0.04935646
v -0.00673893 0.01755742 0.05039324
v -0.00949192 0.01621428 0.05055047
v -0.00949192 0.01841763 0.04675960
v -0.00949192 0.01830595 0.04702002
v -0.00673893 0.02131821 0.04252405
v -0.00949192 0.01798903 0.04775707
v -0.00713090 0.01908165 0.04736398
v -0.00667991 0.01883566 0.04834425
v -0.00561007 0.01906203 0.04878894
v -0.00882604 0.01769022 0.04903707
v -0.00379688 0.01936688 0.04939086
v -0.00379688 0.01981510 0.04841058
v -0.00232493 0.02053345 0.04726817
v -0.00232493 0.02007316 0.04841058
v -0.00021753 0.02070248 0.04770794
v -0.00006997 0.02071455 0.04772513
v -0.00949192 0.01682699 0.04979377
v -0.00949192 0.01674399 0.04990433
v -0.00828559 0.01730388 0.04986011
v -0.00949192 0.01788339 0.04800030
v -0.00828559 0.01814297 0.04849166
v -0.00949192 0.01758458 0.04866118
f 1 2 3
f 1 3 4
f 1 4 9
f 1 9 19
f 1 19 40
f 1 40 71
f 1 71 44
f 1 44 43
f 1 43 21
f 1 21 20
f 1 20 10
f 1 10 5
f 1 5 12
f 1 12 24
f 1 24 47
f 1 47 48
f 1 48 77
f 1 77 76
f 1 76 109
f 1 109 103
f 1 103 108
f 1 108 107
f 1 107 136
f 1 136 152
f 1 152 151
f 1 151 156
f 1 156 154
f 1 154 140
f 1 140 138
f 1 138 137
f 1 137 116
f 1 116 115
f 1 115 114
f 1 114 112
f 1 112 110
f 1 110 78
f 1 78 49
f 1 49 25
f 1 25 13
f 1 13 6
f 1 6 2
f 2 6 7
f 2 7 3
f 3 7 6
f 3 6 13
f 3 13 27
f 3 27 52
f 3 52 83
f 3 83 111
f 3 111 85
f 3 85 84
f 3 84 53
f 3 53 28
f 3 28 14
f 3 14 8
f 3 8 15
f 3 15 32
f 3 32 62
f 3 62 96
f 3 96 95
f 3 95 90
f 3 90 94
f 3 94 93
f 3 93 129
f 3 129 150
f 3 150 130
f 3 130 97
f 3 97 63
f 3 63 33
f 3 33 16
f 3 16 9
f 3 9 4
f 5 10 11
f 5 11 12
f 8 14 15
f 9 16 17
f 9 17 18
f 9 18 19
f 10 20 11
f 11 20 21
f 11 21 22
f 11 22 12
f 12 22 23
f 12 23 24
f 13 25 26
f 13 26 27
f 14 28 29
f 14 29 30
f 14 30 31
f 14 31 32
f 14 32 15
f 16 33 34
f 16 34 17
f 17 35 36
f 17 36 37
f 17 37 18
f 17 34 38
f 17 38 39
f 17 39 35
f 18 40 19
f 18 37 41
f 18 41 42
f 18 42 40
f 21 43 22
f 22 43 44
f 22 44 42
f 22 42 45
f 22 45 46
f 22 46 23
f 23 47 24
f 23 46 48
f 23 48 47
f 25 49 50
f 25 50 26
f 26 50 51
f 26 51 52
f 26 52 27
f 28 53 29
f 29 54 55
f 29 55 30
f 29 53 54
f 30 56 31
f 30 55 57
f 30 57 58
f 30 58 59
f 30 59 60
f 30 60 56
f 31 56 61
f 31 61 62
f 31 62 32
f 33 63 64
f 33 64 65
f 33 65 66
f 33 66 34
f 34 66 38
f 35 37 36
f 35 39 67
f 35 67 68
f 35 68 37
f 37 68 41
f 38 66 39
f 39 66 69
f 39 69 70
f 39 70 68
f 39 68 67
f 40 42 71
f 41 68 42
f 42 72 45
f 42 44 71
f 42 68 70
f 42 70 73
f 42 73 74
f 42 74 72
f 45 72 75
f 45 75 76
f 45 76 46
f 46 76 77
f 46 77 48
f 49 78 50
f 50 79 51
f 50 78 80
f 50 80 81
f 50 81 82
f 50 82 79
f 51 79 83
f 51 83 52
f 53 84 54
f 54 84 85
f 54 85 79
f 54 79 55
f 55 79 82
f 55 82 86
f 55 86 87
f 55 87 88
f 55 88 89
f 55 89 57
f 56 60 61
f 57 90 58
f 57 89 91
f 57 91 92
f 57 92 93
f 57 93 94
f 57 94 90
f 58 90 95
f 58 95 59
f 59 95 96
f 59 96 60
f 60 96 61
f 61 96 62
f 63 97 64
f 64 98 99
f 64 99 66
f 64 66 65
f 64 97 98
f 66 99 100
f 66 100 101
f 66 101 69
f 69 101 70
f 70 101 102
f 70 102 73
f 72 103 104
f 72 104 75
f 72 74 105
f 72 105 106
f 72 106 107
f 72 107 108
f 72 108 103
f 73 102 74
f 74 102 105
f 75 103 109
f 75 109 76
f 75 104 103
f 78 110 80
f 79 85 111
f 79 111 83
f 80 110 81
f 81 86 82
f 81 110 112
f 81 112 113
f 81 113 114
f 81 114 115
f 81 115 116
f 81 116 117
f 81 117 118
f 81 118 119
f 81 119 86
f 86 120 87
f 86 119 121
f 86 121 122
f 86 122 123
f 86 123 124
f 86 124 120
f 87 120 124
f 87 124 88
f 88 125 126
f 88 126 89
f 88 124 125
f 89 126 91
f 91 125 92
f 91 126 125
f 92 127 128
f 92 128 93
f 92 125 127
f 93 128 129
f 97 130 131
f 97 131 98
f 98 131 99
f 99 131 100
f 100 131 132
f 100 132 102
f 100 102 101
f 102 132 123
f 102 123 133
f 102 133 134
f 102 134 105
f 105 134 135
f 105 135 136
f 105 136 107
f 105 107 106
f 112 114 113
f 116 137 117
f 117 137 138
f 117 138 118
f 118 139 119
f 118 138 140
f 118 140 141
f 118 141 122
f 118 122 139
f 119 139 121
f 121 139 122
f 122 141 142
f 122 142 143
f 122 143 123
f 123 143 144
f 123 144 134
f 123 134 133
f 123 132 145
f 123 145 146
f 123 146 124
f 124 146 147
f 124 147 127
f 124 127 125
f 127 147 128
f 128 148 149
f 128 149 129
f 128 147 148
f 129 149 150
f 130 150 131
f 131 150 148
f 131 148 145
f 131 145 132
f 134 151 152
f 134 152 153
f 134 153 135
f 134 144 151
f 135 152 136
f 135 153 152
f 140 154 155
f 140 155 143
f 140 143 142
f 140 142 141
f 143 155 144
f 144 155 154
f 144 154 156
f 144 156 151
f 145 148 146
f 146 148 147
f 148 150 149

