# https://github.com/mikedh/trimesh
v 0.01097627 -0.01347006 -0.08359239
v 0.01097627 -0.01347006 -0.07718525
v 0.01097627 -0.01242208 -0.08375884
v 0.01198863 -0.01242208 -0.08342946
v 0.01150251 -0.01347006 -0.08340492
v 0.01362632 -0.01347006 -0.07488221
v 0.01097627 0.00013364 -0.07799731
v 0.01097627 -0.01095066 -0.08382979
v 0.01239215 -0.00800781 -0.08374219
v 0.01239215 -0.00947923 -0.08366422
v 0.01342692 -0.00947923 -0.08338478
v 0.01323459 -0.01043000 -0.08333659
v 0.01299154 -0.01141139 -0.08324111
v 0.01174557 -0.01330893 -0.08334273
v 0.01191429 -0.01347006 -0.08320519
v 0.01934055 -0.01347006 -0.07488221
v 0.01924262 0.00013364 -0.07488221
v 0.01097627 0.00013364 -0.08274441
v 0.01097627 -0.00947923 -0.08380439
v 0.01239215 -0.00653771 -0.08374744
v 0.01386348 -0.00359353 -0.08366685
v 0.01533481 -0.00065067 -0.08355385
v 0.01386348 -0.00506628 -0.08361254
v 0.01454428 -0.00708101 -0.08328316
v 0.01440859 -0.00800781 -0.08324637
v 0.01541150 -0.00202756 -0.08344172
v 0.01397793 -0.00656967 -0.08347151
v 0.01974879 -0.00212210 -0.08228714
v 0.02058652 -0.00309018 -0.08189030
v 0.01386348 -0.01242208 -0.08252366
v 0.01465991 -0.01325833 -0.08185701
v 0.01435549 -0.01347006 -0.08194812
v 0.01905383 -0.00587856 -0.08185001
v 0.01778663 -0.00768422 -0.08195250
v 0.01539970 -0.01095732 -0.08218114
v 0.01934055 -0.01347006 -0.07520458
v 0.02003197 -0.01254992 -0.07488221
v 0.02302890 0.00013364 -0.07488221
v 0.01147537 0.00013364 -0.08288720
v 0.01097627 -0.00133246 -0.08293451
v 0.01097627 -0.00800781 -0.08373606
v 0.01239215 -0.00506628 -0.08370715
v 0.01386348 -0.00212210 -0.08364934
v 0.01533481 0.00013364 -0.08356961
v 0.01633064 0.00013364 -0.08336550
v 0.01468704 -0.00610094 -0.08332083
v 0.01827746 -0.00212210 -0.08268047
v 0.01667517 0.00013364 -0.08327528
v 0.01609702 -0.00147494 -0.08330418
v 0.01827746 -0.00065067 -0.08279347
v 0.01827746 0.00013364 -0.08285304
v 0.01896534 0.00013364 -0.08266820
v 0.01974879 -0.00065067 -0.08239751
v 0.02069861 -0.00212210 -0.08195688
v 0.02153043 -0.00208082 -0.08095385
v 0.02194104 -0.00254289 -0.08031348
v 0.02100184 -0.00358554 -0.08116759
v 0.02033048 -0.00407157 -0.08170984
v 0.01564394 -0.01242208 -0.08160647
v 0.01487701 -0.01347006 -0.08166166
v 0.01725331 -0.00947923 -0.08167305
v 0.01749519 -0.00866562 -0.08180183
v 0.01925324 -0.01347006 -0.07569515
v 0.02053932 -0.01177093 -0.07610863
v 0.02003197 -0.01254992 -0.07520458
v 0.02014996 -0.01238879 -0.07488221
v 0.02301828 -0.00359353 -0.07488221
v 0.02302300 0.00013364 -0.07520458
v 0.01231782 0.00013364 -0.08312811
v 0.01210661 -0.00065067 -0.08316928
v 0.01143997 -0.00359353 -0.08335937
v 0.01097627 -0.00506628 -0.08341719
v 0.01097627 -0.00560692 -0.08348639
v 0.01239215 -0.00359353 -0.08360991
v 0.01386348 -0.00065067 -0.08359677
v 0.01383044 0.00013364 -0.08352406
v 0.01667517 -0.00202756 -0.08310971
v 0.01974879 0.00013364 -0.08241854
v 0.02075052 -0.00065067 -0.08201119
v 0.02021721 0.00013364 -0.08223808
v 0.02148678 -0.00065067 -0.08114044
v 0.02196345 -0.00156283 -0.08037305
v 0.02257346 -0.00359353 -0.07814798
v 0.02214280 -0.00359353 -0.07935863
v 0.02206257 -0.00459356 -0.07906955
v 0.02179119 -0.00359353 -0.08009448
v 0.02214398 -0.00208082 -0.07974145
v 0.02264661 -0.00212210 -0.07814798
v 0.02073754 -0.00506628 -0.08069192
v 0.01764504 -0.01190276 -0.08046240
v 0.01651706 -0.01347006 -0.08066739
v 0.01616663 -0.01347006 -0.08089165
v 0.01532655 -0.01347006 -0.08141112
v 0.01675186 -0.01095732 -0.08144616
v 0.01906799 -0.01347006 -0.07667628
v 0.01916475 -0.01335421 -0.07667628
v 0.02056646 -0.01181354 -0.07520458
v 0.01902670 -0.01317311 -0.07743666
v 0.02035526 -0.01137544 -0.07708976
v 0.02071631 -0.01091071 -0.07662985
v 0.02212982 -0.00769088 -0.07642312
v 0.02221595 -0.00789994 -0.07520458
v 0.02156229 -0.00947923 -0.07520458
v 0.02095228 -0.01095066 -0.07520458
v 0.02056646 -0.01181354 -0.07488221
v 0.02300648 -0.00506628 -0.07488221
v 0.02300412 -0.00506628 -0.07520458
v 0.02301238 -0.00359353 -0.07520458
v 0.02300412 0.00013364 -0.07598862
v 0.01265055 0.00013364 -0.08322272
v 0.01284287 -0.00065067 -0.08337864
v 0.01235911 -0.00222597 -0.08344435
v 0.01302103 0.00013364 -0.08332784
v 0.02071277 0.00013364 -0.08200156
v 0.02144784 0.00013364 -0.08114131
v 0.02198233 -0.00065067 -0.08040459
v 0.02198587 0.00013364 -0.08040546
v 0.02224073 -0.00065067 -0.07961880
v 0.02284248 -0.00506628 -0.07667628
v 0.02231270 -0.00507694 -0.07819967
v 0.02150565 -0.00507694 -0.07958289
v 0.02216758 -0.00628471 -0.07774326
v 0.02055820 -0.01039405 -0.07750499
v 0.02270325 -0.00065067 -0.07814798
v 0.02290855 -0.00359353 -0.07667628
v 0.02053696 -0.00591052 -0.08042912
v 0.01909041 -0.00890664 -0.08045189
v 0.01802851 -0.01240477 -0.07966260
v 0.01739254 -0.01288282 -0.08018208
v 0.01722854 -0.01347006 -0.07989037
v 0.01863733 -0.01347006 -0.07769421
v 0.01780197 -0.01347006 -0.07916854
v 0.01779135 -0.01345941 -0.07920182
v 0.02195284 -0.00726344 -0.07740337
v 0.02239412 -0.00667886 -0.07681820
v 0.02273628 -0.00653771 -0.07520458
v 0.02221595 -0.00789994 -0.07488221
v 0.02197879 -0.00847387 -0.07488221
v 0.02273746 -0.00653771 -0.07488221
v 0.02156229 -0.00947923 -0.07488221
v 0.02095228 -0.01095066 -0.07488221
v 0.02294041 -0.00212210 -0.07667628
v 0.02296990 -0.00065067 -0.07667628
v 0.02298170 0.00013364 -0.07667628
v 0.02226079 0.00013364 -0.07961880
v 0.02273039 0.00013364 -0.07814798
v 0.02285428 0.00013364 -0.07746031
v 0.01777719 -0.01347006 -0.07921146
f 1 2 7
f 1 7 18
f 1 18 40
f 1 40 72
f 1 72 73
f 1 73 41
f 1 41 19
f 1 19 8
f 1 8 3
f 1 3 4
f 1 4 5
f 1 5 15
f 1 15 32
f 1 32 60
f 1 60 93
f 1 93 92
f 1 92 91
f 1 91 130
f 1 130 148
f 1 148 132
f 1 132 131
f 1 131 95
f 1 95 63
f 1 63 36
f 1 36 16
f 1 16 6
f 1 6 2
f 2 6 7
f 3 8 9
f 3 9 10
f 3 10 11
f 3 11 12
f 3 12 4
f 4 12 13
f 4 13 14
f 4 14 5
f 5 14 15
f 6 16 37
f 6 37 66
f 6 66 105
f 6 105 141
f 6 141 140
f 6 140 138
f 6 138 137
f 6 137 139
f 6 139 106
f 6 106 67
f 6 67 38
f 6 38 17
f 6 17 7
f 7 17 38
f 7 38 68
f 7 68 109
f 7 109 144
f 7 144 147
f 7 147 146
f 7 146 145
f 7 145 117
f 7 117 115
f 7 115 114
f 7 114 80
f 7 80 78
f 7 78 52
f 7 52 51
f 7 51 48
f 7 48 45
f 7 45 44
f 7 44 76
f 7 76 113
f 7 113 110
f 7 110 69
f 7 69 39
f 7 39 18
f 8 19 20
f 8 20 21
f 8 21 9
f 9 21 22
f 9 22 23
f 9 23 10
f 10 24 25
f 10 25 11
f 10 23 26
f 10 26 27
f 10 27 24
f 11 25 28
f 11 28 12
f 12 28 29
f 12 29 13
f 13 29 14
f 14 30 31
f 14 31 32
f 14 32 15
f 14 29 33
f 14 33 34
f 14 34 35
f 14 35 30
f 16 36 65
f 16 65 37
f 18 39 40
f 19 41 42
f 19 42 20
f 20 42 43
f 20 43 21
f 21 43 44
f 21 44 22
f 22 44 45
f 22 45 23
f 23 45 26
f 24 27 46
f 24 46 47
f 24 47 25
f 25 47 28
f 26 45 27
f 27 45 48
f 27 48 49
f 27 49 46
f 28 47 50
f 28 50 51
f 28 51 52
f 28 52 53
f 28 53 54
f 28 54 29
f 29 54 55
f 29 55 56
f 29 56 57
f 29 57 58
f 29 58 33
f 30 59 31
f 30 35 59
f 31 59 60
f 31 60 32
f 33 58 61
f 33 61 59
f 33 59 62
f 33 62 34
f 34 62 59
f 34 59 35
f 36 63 64
f 36 64 65
f 37 65 66
f 38 67 108
f 38 108 68
f 39 69 40
f 40 69 70
f 40 70 71
f 40 71 72
f 41 73 74
f 41 74 75
f 41 75 42
f 42 75 43
f 43 75 44
f 44 75 76
f 46 49 48
f 46 48 77
f 46 77 50
f 46 50 47
f 48 51 50
f 48 50 77
f 52 78 53
f 53 79 54
f 53 78 80
f 53 80 79
f 54 79 81
f 54 81 55
f 55 81 82
f 55 82 56
f 56 83 84
f 56 84 85
f 56 85 86
f 56 86 57
f 56 82 87
f 56 87 88
f 56 88 83
f 57 86 89
f 57 89 58
f 58 89 90
f 58 90 91
f 58 91 92
f 58 92 61
f 59 92 93
f 59 93 60
f 59 61 94
f 59 94 92
f 61 92 94
f 63 95 96
f 63 96 64
f 64 97 65
f 64 96 98
f 64 98 99
f 64 99 100
f 64 100 101
f 64 101 102
f 64 102 103
f 64 103 104
f 64 104 97
f 65 97 66
f 66 97 105
f 67 106 107
f 67 107 108
f 68 108 109
f 69 110 111
f 69 111 70
f 70 111 112
f 70 112 71
f 71 112 72
f 72 112 73
f 73 112 74
f 74 112 111
f 74 111 76
f 74 76 75
f 76 111 113
f 79 80 114
f 79 114 115
f 79 115 81
f 81 116 82
f 81 115 117
f 81 117 116
f 82 116 118
f 82 118 87
f 83 119 120
f 83 120 84
f 83 88 119
f 84 120 85
f 85 121 86
f 85 120 122
f 85 122 123
f 85 123 121
f 86 121 89
f 87 118 88
f 88 118 124
f 88 124 125
f 88 125 119
f 89 121 123
f 89 123 126
f 89 126 127
f 89 127 90
f 90 127 128
f 90 128 129
f 90 129 91
f 91 129 130
f 95 131 98
f 95 98 96
f 97 104 141
f 97 141 105
f 98 131 132
f 98 132 133
f 98 133 99
f 99 133 128
f 99 128 123
f 99 123 134
f 99 134 100
f 100 134 101
f 101 134 135
f 101 135 136
f 101 136 102
f 102 137 138
f 102 138 103
f 102 136 139
f 102 139 137
f 103 138 140
f 103 140 141
f 103 141 104
f 106 139 136
f 106 136 107
f 107 136 119
f 107 119 125
f 107 125 142
f 107 142 143
f 107 143 144
f 107 144 108
f 108 144 109
f 110 113 111
f 116 117 145
f 116 145 118
f 118 145 146
f 118 146 124
f 119 136 135
f 119 135 120
f 120 135 122
f 122 135 134
f 122 134 123
f 123 128 126
f 124 146 125
f 125 146 147
f 125 147 142
f 126 128 127
f 128 133 129
f 129 133 148
f 129 148 130
f 132 148 133
f 142 147 143
f 143 147 144

