# https://github.com/mikedh/trimesh
v -0.00006997 0.02367625 0.03809195
v -0.00006997 0.01966138 0.03809195
v -0.00006997 0.02374556 0.03782050
v -0.00085381 0.02368120 0.03809195
v -0.01392409 0.01376630 0.03809195
v -0.00006997 0.01977326 -0.01423113
v -0.00006997 0.02381190 0.03719053
v -0.00085381 0.02374853 0.03782562
v -0.00378709 0.02339110 0.03809195
v -0.01392409 0.01929603 0.03809195
v -0.01392409 0.01406234 -0.01423113
v -0.00006997 0.02387923 -0.01423113
v -0.00006997 0.02387031 0.03663227
v -0.00085381 0.02387329 0.03663227
v -0.00198481 0.02368219 0.03759515
v -0.00525170 0.02323863 0.03809195
v -0.01369491 0.01947326 0.03809195
v -0.01392409 0.01931286 0.03766685
v -0.01392409 0.01935247 -0.01423113
v -0.00085381 0.02388022 -0.01423113
v -0.00006997 0.02387923 0.03516235
v -0.00006997 0.02387626 0.03584865
v -0.00085381 0.02388022 0.03516235
v -0.00218280 0.02370893 0.03663227
v -0.00526798 0.02323665 0.03809195
v -0.01271850 0.02020891 0.03809195
v -0.01373152 0.01949999 0.03663227
v -0.01392409 0.01935247 0.03663227
v -0.01373152 0.01949999 -0.01423113
v -0.00143016 0.02380596 -0.01423113
v -0.00526798 0.02330298 0.03663227
v -0.00218280 0.02370893 -0.01423113
v -0.00443396 0.02341289 -0.01423113
v -0.00672309 0.02290001 0.03809195
v -0.01198213 0.02074653 0.03809195
v -0.01275376 0.02023564 0.03663227
v -0.01317687 0.01991683 -0.01423113
v -0.01275376 0.02023564 0.02927754
v -0.00673937 0.02294358 0.03663227
v -0.00673937 0.02289605 0.03809195
v -0.00526798 0.02330298 -0.01423113
v -0.00590671 0.02314754 -0.01423113
v -0.01115354 0.02110990 0.03809195
v -0.01115354 0.02115644 0.03663227
v -0.01201739 0.02076931 0.03663227
v -0.01275240 0.02023564 -0.01423113
v -0.01201739 0.02076931 -0.00898141
v -0.00810363 0.02241981 0.03663227
v -0.00805074 0.02239605 0.03809195
v -0.00673937 0.02294358 -0.01423113
v -0.00733064 0.02271684 -0.01423113
v -0.01113727 0.02111683 0.03809195
v -0.00878575 0.02209209 0.03809195
v -0.00968215 0.02176634 0.03663227
v -0.00852131 0.02224753 -0.01423113
v -0.01115354 0.02115644 0.01308791
v -0.01201739 0.02076832 -0.01423113
v -0.01152783 0.02098812 -0.01423113
v -0.00810363 0.02241981 -0.01423113
v -0.00968215 0.02176634 -0.01423113
v -0.01115354 0.02115545 -0.01423113
f 1 2 6
f 1 6 12
f 1 12 21
f 1 21 22
f 1 22 13
f 1 13 7
f 1 7 3
f 1 3 4
f 1 4 9
f 1 9 16
f 1 16 25
f 1 25 34
f 1 34 40
f 1 40 49
f 1 49 53
f 1 53 52
f 1 52 43
f 1 43 35
f 1 35 26
f 1 26 17
f 1 17 10
f 1 10 5
f 1 5 2
f 2 5 6
f 3 7 8
f 3 8 4
f 4 8 9
f 5 10 18
f 5 18 28
f 5 28 19
f 5 19 11
f 5 11 6
f 6 11 19
f 6 19 29
f 6 29 37
f 6 37 46
f 6 46 57
f 6 57 58
f 6 58 61
f 6 61 60
f 6 60 55
f 6 55 59
f 6 59 51
f 6 51 50
f 6 50 42
f 6 42 41
f 6 41 33
f 6 33 32
f 6 32 30
f 6 30 20
f 6 20 12
f 7 13 8
f 8 13 14
f 8 14 15
f 8 15 9
f 9 15 16
f 10 17 18
f 12 20 23
f 12 23 21
f 13 22 14
f 14 22 23
f 14 23 24
f 14 24 15
f 15 25 16
f 15 24 25
f 17 26 27
f 17 27 28
f 17 28 18
f 19 28 27
f 19 27 29
f 20 30 23
f 21 23 22
f 23 30 24
f 24 31 25
f 24 30 32
f 24 32 33
f 24 33 31
f 25 31 34
f 26 35 36
f 26 36 27
f 27 36 38
f 27 38 29
f 29 38 37
f 31 39 40
f 31 40 34
f 31 33 41
f 31 41 42
f 31 42 39
f 35 43 44
f 35 44 45
f 35 45 36
f 36 45 47
f 36 47 38
f 37 38 46
f 38 47 46
f 39 48 49
f 39 49 40
f 39 42 50
f 39 50 51
f 39 51 48
f 43 52 44
f 44 52 53
f 44 53 54
f 44 54 55
f 44 55 56
f 44 56 47
f 44 47 45
f 46 47 57
f 47 58 57
f 47 56 58
f 48 54 53
f 48 53 49
f 48 51 59
f 48 59 55
f 48 55 54
f 55 60 56
f 56 60 61
f 56 61 58

