# https://github.com/mikedh/trimesh
v 0.00891702 0.00019379 0.05244993
v 0.00850093 0.00019379 0.05276914
v -0.00006997 0.01247169 0.05048039
v 0.00891702 0.01247169 0.04733438
v 0.00891702 0.00019379 0.05992498
v 0.00768984 0.00019379 0.05340920
v 0.00737491 0.00019379 0.05368069
v 0.00690339 0.00019379 0.05410356
v -0.00006997 0.00504966 0.05704224
v -0.00006997 0.01247169 0.05810682
v 0.00891702 0.01247169 0.05316897
v 0.00891702 0.00038490 0.05993321
v 0.00597267 0.00019379 0.06399241
v 0.00625682 0.00019379 0.05516484
v -0.00006997 0.00430205 0.05774648
v -0.00006997 0.00446431 0.05758029
v -0.00006997 0.01224933 0.05846222
v 0.00061883 0.01218923 0.05841944
v 0.00018250 0.01247169 0.05805581
v 0.00891702 0.01244885 0.05319200
v 0.00062147 0.01247169 0.05796696
v 0.00146598 0.01045362 0.06100930
v 0.00307319 0.00767351 0.06406975
v 0.00891702 0.00227917 0.05987398
v 0.00597267 0.00037649 0.06399241
v 0.00209057 0.00695835 0.06414215
v 0.00552579 0.00019379 0.06399241
v 0.00608704 0.00019379 0.05569137
v 0.00410772 0.00019379 0.06220387
v -0.00006997 0.00422633 0.05820225
v -0.00006997 0.01038391 0.06091552
v 0.00088010 0.01045362 0.06100930
v 0.00891702 0.01051252 0.05506612
v 0.00209057 0.00778049 0.06414215
v 0.00471471 0.00670715 0.06282583
v 0.00448071 0.00760981 0.06259547
v 0.00891702 0.00908460 0.05643509
v 0.00891702 0.00300875 0.05965843
v 0.00565159 0.00562059 0.06225652
v 0.00891702 0.00387055 0.05937213
v 0.00891702 0.00523717 0.05882915
v 0.00061883 0.00724201 0.06400393
v -0.00006997 0.00736942 0.06390686
v 0.00438570 0.00019379 0.06288341
v 0.00410772 0.00019379 0.06233385
v -0.00006997 0.00423354 0.05881763
v -0.00006997 0.01035746 0.06094678
v 0.00048160 0.00992837 0.06156051
v 0.00061883 0.00908100 0.06257572
v 0.00061883 0.00837305 0.06331286
v 0.00061883 0.00763746 0.06400393
v 0.00545101 0.00670715 0.06201958
v 0.00874636 0.00747639 0.05800645
v 0.00891702 0.00764827 0.05770863
v 0.00891702 0.00670715 0.05821048
v 0.00411123 0.00019379 0.06252636
v -0.00006997 0.00750885 0.06390686
v -0.00006997 0.00439220 0.05951034
v -0.00006997 0.00427080 0.05918949
v -0.00006997 0.00899325 0.06247700
v -0.00006997 0.00826127 0.06319275
v 0.00891702 0.00679008 0.05816934
f 1 2 3
f 1 3 4
f 1 4 11
f 1 11 20
f 1 20 33
f 1 33 37
f 1 37 54
f 1 54 62
f 1 62 55
f 1 55 41
f 1 41 40
f 1 40 38
f 1 38 24
f 1 24 12
f 1 12 5
f 1 5 13
f 1 13 27
f 1 27 44
f 1 44 56
f 1 56 45
f 1 45 29
f 1 29 28
f 1 28 14
f 1 14 8
f 1 8 7
f 1 7 6
f 1 6 2
f 2 6 3
f 3 6 7
f 3 7 8
f 3 8 9
f 3 9 16
f 3 16 15
f 3 15 30
f 3 30 46
f 3 46 59
f 3 59 58
f 3 58 43
f 3 43 57
f 3 57 61
f 3 61 60
f 3 60 47
f 3 47 31
f 3 31 17
f 3 17 10
f 3 10 19
f 3 19 21
f 3 21 11
f 3 11 4
f 5 12 13
f 8 14 15
f 8 15 16
f 8 16 9
f 10 17 18
f 10 18 19
f 11 21 22
f 11 22 23
f 11 23 20
f 12 24 25
f 12 25 13
f 13 25 34
f 13 34 26
f 13 26 27
f 14 28 15
f 15 29 30
f 15 28 29
f 17 31 32
f 17 32 22
f 17 22 18
f 18 21 19
f 18 22 21
f 20 23 33
f 22 32 34
f 22 34 23
f 23 34 25
f 23 25 35
f 23 35 36
f 23 36 37
f 23 37 33
f 24 38 25
f 25 39 35
f 25 38 40
f 25 40 41
f 25 41 39
f 26 34 51
f 26 51 42
f 26 42 27
f 27 42 43
f 27 43 44
f 29 45 30
f 30 45 46
f 31 47 48
f 31 48 32
f 32 48 49
f 32 49 34
f 34 49 50
f 34 50 51
f 35 39 52
f 35 52 53
f 35 53 36
f 36 53 54
f 36 54 37
f 39 41 55
f 39 55 52
f 42 51 57
f 42 57 43
f 43 56 44
f 43 58 56
f 45 56 46
f 46 56 59
f 47 60 49
f 47 49 48
f 49 60 50
f 50 61 57
f 50 57 51
f 50 60 61
f 52 55 62
f 52 62 53
f 53 62 54
f 56 58 59

