# https://github.com/mikedh/trimesh
v 0.01244749 0.00013364 -0.08316521
v 0.01302081 0.00013364 -0.08332850
v 0.01244749 0.00013364 -0.07833727
v 0.01244749 0.01274350 -0.08348415
v 0.01382989 0.00013364 -0.08352425
v 0.01951011 0.00013364 -0.07382922
v 0.01244749 0.01511870 -0.07382922
v 0.01244749 0.01281649 -0.08347746
v 0.01668818 0.00955552 -0.08338770
v 0.01775380 0.00818051 -0.08340871
v 0.01386313 0.01112189 -0.08347937
v 0.01533485 0.00082214 -0.08358346
v 0.01533485 0.00013364 -0.08356913
v 0.02304765 0.00013364 -0.07382922
v 0.01244749 0.02028731 -0.07382922
v 0.01244749 0.01353260 -0.08337433
v 0.01386313 0.01216745 -0.08338770
v 0.01761878 0.00900118 -0.08334664
v 0.01858885 0.00670884 -0.08304394
v 0.01785351 0.00670884 -0.08342112
v 0.01680658 0.00523716 -0.08348701
v 0.01633089 0.00013364 -0.08336574
v 0.01664559 0.00229381 -0.08344786
v 0.01643060 0.00082214 -0.08339248
v 0.02302272 0.00013364 -0.07520427
v 0.02304973 0.00082214 -0.07382922
v 0.01258355 0.02018670 -0.07382922
v 0.01244749 0.02028731 -0.07520427
v 0.01306131 0.01325247 -0.08326548
v 0.01460055 0.01185773 -0.08329889
v 0.01611901 0.01042946 -0.08332467
v 0.01244749 0.01416980 -0.08300288
v 0.01709947 0.00998164 -0.08298092
v 0.01772576 0.01060700 -0.08199929
v 0.01816198 0.00946872 -0.08241944
v 0.01903650 0.00895581 -0.08185892
v 0.01920995 0.00818051 -0.08205944
v 0.01848915 0.00818051 -0.08279566
v 0.01851407 0.00523716 -0.08311364
v 0.01943533 0.00670884 -0.08230772
v 0.02067856 0.00082214 -0.08199356
v 0.02071179 0.00013364 -0.08200119
v 0.01974899 0.00013364 -0.08241848
v 0.01777873 0.00523716 -0.08336764
v 0.01768629 0.00013364 -0.08300956
v 0.01764994 0.00413439 -0.08332563
v 0.01750661 0.00315393 -0.08328839
v 0.02300507 0.00013364 -0.07598823
v 0.02300091 0.00229381 -0.07667671
v 0.02300611 0.00376549 -0.07667671
v 0.02302480 0.00082214 -0.07520427
v 0.02305804 0.00376549 -0.07382922
v 0.01349753 0.01949821 -0.07520427
v 0.01251915 0.02023405 -0.07520427
v 0.01349753 0.01949821 -0.07382922
v 0.01419964 0.01892020 -0.07667671
v 0.01346430 0.01946665 -0.07667671
v 0.01245684 0.02020249 -0.07667671
v 0.01244749 0.02020840 -0.07668435
v 0.01244749 0.01419150 -0.08298760
v 0.01244749 0.01528441 -0.08215780
v 0.01724799 0.01158746 -0.08159441
v 0.01668402 0.01100944 -0.08247387
v 0.01602761 0.01623330 -0.07885196
v 0.01824611 0.01106665 -0.08104248
v 0.01870518 0.00993627 -0.08147218
v 0.01738717 0.01316961 -0.08021555
v 0.01778600 0.01218718 -0.08061374
v 0.02071283 0.00936417 -0.07920431
v 0.02036490 0.00867962 -0.08018499
v 0.02098495 0.00818643 -0.07966457
v 0.02061416 0.00769916 -0.08052111
v 0.01911959 0.01054388 -0.08049056
v 0.02022987 0.01112189 -0.07855690
v 0.02046356 0.01034265 -0.07885196
v 0.02077307 0.00670884 -0.08070159
v 0.02017171 0.00670884 -0.08143781
v 0.02021741 0.00013364 -0.08223801
v 0.02166629 0.00523716 -0.08001597
v 0.02092990 0.00523716 -0.08087346
v 0.02029842 0.00523716 -0.08160873
v 0.02040332 0.00402786 -0.08173096
v 0.02048745 0.00304740 -0.08182931
v 0.02055289 0.00229381 -0.08189425
v 0.02197164 0.00166253 -0.08037501
v 0.02141390 0.00082214 -0.08114275
v 0.02144818 0.00013364 -0.08114179
v 0.01896483 0.00013364 -0.08266866
v 0.01827727 0.00229381 -0.08301911
v 0.01827727 0.00013364 -0.08285296
v 0.01827727 0.00082214 -0.08290643
v 0.02298118 0.00013364 -0.07667671
v 0.02299053 0.00082214 -0.07667671
v 0.02281189 0.00376549 -0.07814820
v 0.02300403 0.00523716 -0.07667671
v 0.02302896 0.00229381 -0.07520427
v 0.02305700 0.00386018 -0.07382922
v 0.01418510 0.01897149 -0.07382922
v 0.01592791 0.01763396 -0.07520427
v 0.01591960 0.01763001 -0.07667671
v 0.01518425 0.01818436 -0.07667671
v 0.01333032 0.01936209 -0.07759150
v 0.01244749 0.01969746 -0.07789897
v 0.01244749 0.01598868 -0.08160492
v 0.01269572 0.01587623 -0.08151611
v 0.01379666 0.01547576 -0.08104248
v 0.01421314 0.01444796 -0.08154953
v 0.01546364 0.01565331 -0.07971041
v 0.01338017 0.01648187 -0.08053543
v 0.01504716 0.01662588 -0.07920336
v 0.01440840 0.01760634 -0.07874310
v 0.01550623 0.01714669 -0.07830767
v 0.01648461 0.01668506 -0.07787224
v 0.01697795 0.01571249 -0.07834109
v 0.01747130 0.01471625 -0.07880899
v 0.01876646 0.01152433 -0.08006563
v 0.01784105 0.01373382 -0.07923487
v 0.01830427 0.01262908 -0.07965025
v 0.02194256 0.00741114 -0.07885291
v 0.02213886 0.00642871 -0.07909832
v 0.01918502 0.01209051 -0.07908400
v 0.02053419 0.01193467 -0.07749792
v 0.02226349 0.00523716 -0.07927975
v 0.02138170 0.00220898 -0.08095559
v 0.02198826 0.00082214 -0.08040653
v 0.02229361 0.00376549 -0.07941630
v 0.02278280 0.00523716 -0.07814820
v 0.02198514 0.00013364 -0.08040557
v 0.02285447 0.00013364 -0.07746068
v 0.02279111 0.00229381 -0.07814820
v 0.02227803 0.00082214 -0.07961874
v 0.02301857 0.00523716 -0.07520427
v 0.02273607 0.00670884 -0.07667671
v 0.02303103 0.00523716 -0.07382922
v 0.01592791 0.01763396 -0.07382922
v 0.01597776 0.01758661 -0.07382922
v 0.01669649 0.01689812 -0.07520427
v 0.01669441 0.01689418 -0.07667671
v 0.01498380 0.01802654 -0.07776338
v 0.01244749 0.01935026 -0.07829143
v 0.01244749 0.01681526 -0.08089543
v 0.01275388 0.01746233 -0.08008186
v 0.01244749 0.01757478 -0.08019358
v 0.01342691 0.01794565 -0.07910118
v 0.01270091 0.01892611 -0.07857218
v 0.01742975 0.01612677 -0.07667671
v 0.01784105 0.01519366 -0.07782927
v 0.01919645 0.01357008 -0.07767362
v 0.01882254 0.01307097 -0.07865430
v 0.02212847 0.00786093 -0.07787224
v 0.02237670 0.00683509 -0.07827711
v 0.01968148 0.01250282 -0.07807658
v 0.01799372 0.01539094 -0.07667671
v 0.01929200 0.01369239 -0.07667671
v 0.02002734 0.01271588 -0.07667671
v 0.02056327 0.01198004 -0.07667671
v 0.02094964 0.01112189 -0.07667671
v 0.02156139 0.00965219 -0.07667671
v 0.02221468 0.00807004 -0.07667671
v 0.02226038 0.00013364 -0.07961874
v 0.02272983 0.00013364 -0.07814820
v 0.02275268 0.00082214 -0.07814820
v 0.02273814 0.00670884 -0.07520427
v 0.02301338 0.00533185 -0.07382922
v 0.01669649 0.01689812 -0.07382922
v 0.01743287 0.01612875 -0.07382922
v 0.01743183 0.01612875 -0.07520427
v 0.01244749 0.01901291 -0.07866480
v 0.01244749 0.01712696 -0.08060896
v 0.01244749 0.01829878 -0.07943349
v 0.01799580 0.01539291 -0.07520427
v 0.01929512 0.01369634 -0.07520427
v 0.02003150 0.01272180 -0.07520427
v 0.02056743 0.01198596 -0.07520427
v 0.02095379 0.01112189 -0.07520427
v 0.02193114 0.00875853 -0.07382922
v 0.02221468 0.00807004 -0.07382922
v 0.02273814 0.00670884 -0.07382922
v 0.01746922 0.01608140 -0.07382922
v 0.01929512 0.01369634 -0.07382922
v 0.02003150 0.01272180 -0.07382922
v 0.02056743 0.01198596 -0.07382922
v 0.02095379 0.01112189 -0.07382922
f 1 2 5
f 1 5 13
f 1 13 22
f 1 22 45
f 1 45 90
f 1 90 88
f 1 88 43
f 1 43 78
f 1 78 42
f 1 42 87
f 1 87 128
f 1 128 160
f 1 160 161
f 1 161 129
f 1 129 92
f 1 92 48
f 1 48 25
f 1 25 14
f 1 14 6
f 1 6 3
f 1 3 7
f 1 7 15
f 1 15 28
f 1 28 59
f 1 59 103
f 1 103 140
f 1 140 168
f 1 168 170
f 1 170 143
f 1 143 169
f 1 169 141
f 1 141 104
f 1 104 61
f 1 61 60
f 1 60 32
f 1 32 16
f 1 16 8
f 1 8 4
f 1 4 2
f 2 4 5
f 3 6 7
f 4 8 9
f 4 9 10
f 4 10 11
f 4 11 12
f 4 12 5
f 5 12 13
f 6 14 26
f 6 26 52
f 6 52 97
f 6 97 134
f 6 134 164
f 6 164 178
f 6 178 177
f 6 177 176
f 6 176 183
f 6 183 182
f 6 182 181
f 6 181 180
f 6 180 179
f 6 179 166
f 6 166 165
f 6 165 136
f 6 136 135
f 6 135 98
f 6 98 55
f 6 55 27
f 6 27 15
f 6 15 7
f 8 16 17
f 8 17 18
f 8 18 9
f 9 18 10
f 10 19 20
f 10 20 21
f 10 21 11
f 10 18 19
f 11 21 12
f 12 21 20
f 12 20 13
f 13 20 23
f 13 23 24
f 13 24 22
f 14 25 51
f 14 51 26
f 15 27 28
f 16 29 30
f 16 30 31
f 16 31 18
f 16 18 17
f 16 32 29
f 18 31 33
f 18 33 34
f 18 34 35
f 18 35 36
f 18 36 37
f 18 37 38
f 18 38 19
f 19 39 20
f 19 38 40
f 19 40 41
f 19 41 42
f 19 42 39
f 20 39 43
f 20 43 44
f 20 44 23
f 22 24 45
f 23 44 46
f 23 46 24
f 24 46 47
f 24 47 45
f 25 48 49
f 25 49 50
f 25 50 51
f 26 51 96
f 26 96 52
f 27 53 54
f 27 54 28
f 27 55 53
f 28 54 56
f 28 56 57
f 28 57 58
f 28 58 59
f 29 32 30
f 30 33 31
f 30 32 60
f 30 60 61
f 30 61 33
f 33 62 34
f 33 61 63
f 33 63 64
f 33 64 62
f 34 65 66
f 34 66 35
f 34 62 64
f 34 64 67
f 34 67 68
f 34 68 65
f 35 66 36
f 36 69 70
f 36 70 71
f 36 71 72
f 36 72 37
f 36 66 73
f 36 73 74
f 36 74 75
f 36 75 69
f 37 72 76
f 37 76 77
f 37 77 40
f 37 40 38
f 39 42 78
f 39 78 43
f 40 77 79
f 40 79 80
f 40 80 81
f 40 81 82
f 40 82 83
f 40 83 84
f 40 84 41
f 41 84 85
f 41 85 86
f 41 86 42
f 42 86 87
f 43 88 44
f 44 88 89
f 44 89 46
f 45 47 91
f 45 91 90
f 46 89 91
f 46 91 47
f 48 92 93
f 48 93 49
f 49 93 94
f 49 94 50
f 50 94 95
f 50 95 52
f 50 52 96
f 50 96 51
f 52 95 97
f 53 55 98
f 53 98 99
f 53 99 100
f 53 100 101
f 53 101 54
f 54 101 56
f 56 102 57
f 56 101 102
f 57 102 59
f 57 59 58
f 59 102 103
f 61 104 105
f 61 105 106
f 61 106 107
f 61 107 63
f 63 107 108
f 63 108 64
f 64 108 106
f 64 106 105
f 64 105 104
f 64 104 109
f 64 109 110
f 64 110 111
f 64 111 112
f 64 112 113
f 64 113 114
f 64 114 115
f 64 115 67
f 65 73 66
f 65 68 116
f 65 116 73
f 67 115 68
f 68 115 117
f 68 117 118
f 68 118 116
f 69 75 119
f 69 119 71
f 69 71 70
f 71 119 72
f 72 119 120
f 72 120 76
f 73 116 121
f 73 121 122
f 73 122 74
f 74 122 75
f 75 122 119
f 76 120 79
f 76 79 77
f 79 82 80
f 79 120 123
f 79 123 85
f 79 85 124
f 79 124 82
f 80 82 81
f 82 124 83
f 83 124 84
f 84 124 85
f 85 125 86
f 85 123 126
f 85 126 127
f 85 127 125
f 86 125 87
f 87 125 128
f 88 90 91
f 88 91 89
f 92 129 130
f 92 130 94
f 92 94 93
f 94 127 95
f 94 130 131
f 94 131 125
f 94 125 127
f 95 132 97
f 95 127 133
f 95 133 132
f 97 132 134
f 98 135 99
f 99 135 136
f 99 136 137
f 99 137 138
f 99 138 100
f 100 138 113
f 100 113 139
f 100 139 102
f 100 102 101
f 102 139 111
f 102 111 103
f 103 111 140
f 104 141 109
f 106 108 107
f 109 141 142
f 109 142 110
f 110 142 111
f 111 142 143
f 111 143 144
f 111 144 145
f 111 145 140
f 111 139 112
f 112 139 113
f 113 146 147
f 113 147 114
f 113 138 146
f 114 147 115
f 115 147 148
f 115 148 149
f 115 149 117
f 116 118 121
f 117 149 121
f 117 121 118
f 119 122 150
f 119 150 151
f 119 151 120
f 120 151 127
f 120 127 123
f 121 149 152
f 121 152 122
f 122 152 148
f 122 148 146
f 122 146 153
f 122 153 154
f 122 154 155
f 122 155 156
f 122 156 157
f 122 157 158
f 122 158 159
f 122 159 150
f 123 127 126
f 125 131 128
f 127 151 133
f 128 131 160
f 129 161 162
f 129 162 130
f 130 162 160
f 130 160 131
f 132 133 134
f 133 163 164
f 133 164 134
f 133 151 150
f 133 150 159
f 133 159 163
f 136 165 137
f 137 165 166
f 137 166 167
f 137 167 146
f 137 146 138
f 140 145 168
f 141 169 142
f 142 169 143
f 143 170 144
f 144 170 168
f 144 168 145
f 146 167 171
f 146 171 153
f 146 148 147
f 148 152 149
f 153 171 172
f 153 172 154
f 154 173 155
f 154 172 173
f 155 173 174
f 155 174 156
f 156 174 157
f 157 174 175
f 157 175 158
f 158 175 176
f 158 176 159
f 159 177 178
f 159 178 163
f 159 176 177
f 160 162 161
f 163 178 164
f 166 179 167
f 167 179 171
f 171 179 172
f 172 179 180
f 172 180 181
f 172 181 173
f 173 181 182
f 173 182 174
f 174 182 183
f 174 183 175
f 175 183 176

