# https://github.com/mikedh/trimesh
v 0.01934069 -0.01347006 -0.07488134
v 0.01929687 -0.01352818 -0.07488134
v 0.01929687 -0.01352818 -0.07520494
v 0.01933879 -0.01347006 -0.07520494
v 0.01362539 -0.01347006 -0.07488134
v 0.01856151 -0.01447414 -0.07488134
v 0.01925306 -0.01347006 -0.07569520
v 0.01932736 -0.01347006 -0.07527284
v 0.01872153 -0.01426371 -0.07520494
v -0.00012182 -0.01347006 -0.07833255
v -0.00012182 -0.01934825 -0.07488134
v 0.01798807 -0.01519363 -0.07488134
v 0.01906826 -0.01347006 -0.07667660
v 0.01798617 -0.01518562 -0.07520494
v -0.00012182 -0.01347006 -0.08351906
v -0.00012182 -0.02370629 -0.07488134
v 0.01739749 -0.01592916 -0.07488134
v 0.01738796 -0.01592114 -0.07520494
v 0.01854627 -0.01409135 -0.07667660
v 0.01863580 -0.01347006 -0.07769415
v -0.00012182 -0.01389494 -0.08363986
v 0.00944941 -0.01347006 -0.08388058
v 0.00061927 -0.02370629 -0.07488134
v -0.00012182 -0.02370629 -0.07667660
v 0.01666212 -0.01670677 -0.07488134
v 0.01665259 -0.01670076 -0.07520494
v 0.01642589 -0.01647830 -0.07667660
v 0.01716316 -0.01568465 -0.07667660
v 0.01781090 -0.01494913 -0.07667660
v 0.01780137 -0.01347006 -0.07916846
v 0.01761086 -0.01471063 -0.07755836
v 0.01737653 -0.01444208 -0.07853976
v 0.01613631 -0.01470161 -0.08041527
v -0.00012182 -0.01536699 -0.08388235
v 0.01093729 -0.01347006 -0.08360547
v 0.00944941 -0.01389494 -0.08388940
v 0.00061927 -0.02370629 -0.07667660
v 0.00090884 -0.02366921 -0.07488134
v -0.00012182 -0.02358303 -0.07773736
v 0.00061927 -0.02358303 -0.07774000
v 0.01608487 -0.01728096 -0.07488134
v 0.01591342 -0.01743628 -0.07520494
v 0.01570957 -0.01721382 -0.07667660
v 0.01618585 -0.01622277 -0.07763772
v 0.01678024 -0.01533593 -0.07808830
v 0.01777660 -0.01347006 -0.07921078
v 0.01636492 -0.01494512 -0.07961815
v 0.01447697 -0.01602035 -0.08026889
v 0.01533427 -0.01499021 -0.08065951
v 0.01337963 -0.01481685 -0.08195658
v 0.01436076 -0.01424066 -0.08168147
v 0.01522186 -0.01380776 -0.08134817
v 0.01637635 -0.01389494 -0.08060220
v 0.01722793 -0.01347006 -0.07989062
v 0.01444077 -0.01743829 -0.07862970
v 0.01286144 -0.01886425 -0.07861030
v 0.01188032 -0.01919493 -0.07901944
v 0.00061927 -0.01536699 -0.08387617
v -0.00012182 -0.01655846 -0.08360636
v 0.01150120 -0.01347006 -0.08340443
v 0.01094491 -0.01383782 -0.08354551
v 0.01047245 -0.01488800 -0.08344411
v 0.00937511 -0.01537401 -0.08356050
v 0.00797677 -0.01536699 -0.08376155
v 0.00650603 -0.01536699 -0.08379858
v 0.00503529 -0.01536699 -0.08382062
v 0.00356265 -0.01536699 -0.08384090
v 0.00209191 -0.01536699 -0.08385942
v 0.00174518 -0.02351088 -0.07754690
v 0.00194141 -0.02353694 -0.07667660
v 0.00194141 -0.02353694 -0.07488134
v -0.00012182 -0.02340466 -0.07810770
v 0.00061927 -0.02321727 -0.07847627
v 0.01591532 -0.01744230 -0.07488134
v 0.01497420 -0.01789624 -0.07667660
v 0.01517614 -0.01802851 -0.07520494
v 0.01173743 -0.02056978 -0.07750634
v 0.01325771 -0.01917289 -0.07762978
v 0.01472273 -0.01770083 -0.07764918
v 0.01593056 -0.01596123 -0.07861912
v 0.01349584 -0.01635204 -0.08057663
v 0.01268046 -0.01579789 -0.08155714
v 0.01169933 -0.01613258 -0.08185253
v 0.01091824 -0.01639112 -0.08208708
v 0.00981519 -0.01586903 -0.08312844
v 0.01145167 -0.01429076 -0.08318928
v 0.01386734 -0.01380776 -0.08209325
v 0.01435504 -0.01347006 -0.08194776
v 0.01487514 -0.01347006 -0.08166119
v 0.01532474 -0.01347006 -0.08141165
v 0.01616489 -0.01347006 -0.08089142
v 0.01651543 -0.01347006 -0.08066745
v 0.01091824 -0.02017597 -0.07849655
v 0.01091824 -0.01944044 -0.07926545
v 0.00987425 -0.01743829 -0.08170352
v 0.01091824 -0.01712664 -0.08142664
v -0.00012182 -0.01729399 -0.08309493
v 0.00061927 -0.01653241 -0.08359224
v 0.01191270 -0.01347006 -0.08320604
v 0.00883597 -0.01616064 -0.08334712
v 0.00797677 -0.01624281 -0.08340532
v 0.00650603 -0.01632298 -0.08345734
v 0.00503529 -0.01637508 -0.08349349
v 0.00356265 -0.01642819 -0.08352876
v 0.00209191 -0.01648030 -0.08356139
v 0.00217764 -0.02314011 -0.07808124
v 0.00650603 -0.02237352 -0.07793840
v 0.00503529 -0.02312308 -0.07667660
v 0.00356265 -0.02332149 -0.07667660
v 0.00267678 -0.02343973 -0.07667660
v 0.00503529 -0.02312909 -0.07520494
v 0.00503529 -0.02312909 -0.07488134
v -0.00012182 -0.02322329 -0.07847275
v -0.00012182 -0.02285352 -0.07889335
v 0.00061927 -0.02248175 -0.07926545
v 0.00209191 -0.02233444 -0.07918168
v 0.00356265 -0.02216409 -0.07904325
v 0.00554014 -0.02193461 -0.07883515
v 0.00504291 -0.02247574 -0.07826553
v 0.01517995 -0.01802851 -0.07488134
v 0.01423121 -0.01876304 -0.07520494
v 0.01177935 -0.02059684 -0.07667660
v 0.01251662 -0.02001764 -0.07667660
v 0.01091824 -0.02074916 -0.07776117
v 0.01091824 -0.02098264 -0.07667660
v 0.00786818 -0.02224726 -0.07667660
v 0.00766052 -0.02216108 -0.07767211
v 0.00990282 -0.02040344 -0.07876461
v 0.00988758 -0.01892637 -0.08023715
v 0.00939226 -0.01828705 -0.08106777
v 0.00889502 -0.01764772 -0.08189838
v 0.00209191 -0.01822993 -0.08230223
v 0.00061927 -0.01828204 -0.08234015
v -0.00012182 -0.01905264 -0.08181903
v 0.00503529 -0.01711161 -0.08296179
v 0.00797677 -0.01930717 -0.08059867
v 0.00650603 -0.02105479 -0.07938801
v 0.00650603 -0.01953865 -0.08080324
v 0.00650603 -0.01872095 -0.08153863
v 0.00434183 -0.02052669 -0.08036324
v 0.00356265 -0.02060385 -0.08042408
v 0.00209191 -0.02070807 -0.08049815
v 0.00356265 -0.01891235 -0.08172997
v 0.00650603 -0.02179132 -0.07867467
v 0.00650603 -0.02276434 -0.07667660
v 0.00650603 -0.02276934 -0.07520494
v 0.00650603 -0.02276934 -0.07488134
v -0.00012182 -0.02248776 -0.07928573
v -0.00012182 -0.02201578 -0.07965519
v -0.00012182 -0.02152978 -0.08002023
v 0.00061927 -0.02150272 -0.07999996
v 0.01444077 -0.01860170 -0.07488134
v 0.01423121 -0.01876304 -0.07488134
v 0.01349584 -0.01932821 -0.07520494
v 0.01251662 -0.02006373 -0.07520494
v 0.01235659 -0.02018098 -0.07488134
v 0.01178125 -0.02059684 -0.07520494
v 0.01110875 -0.02089847 -0.07488134
v 0.01091824 -0.02098264 -0.07488134
v 0.00944941 -0.02159291 -0.07520494
v 0.00786818 -0.02224726 -0.07488134
v 0.00680513 -0.02265511 -0.07488134
v 0.00844352 -0.02200977 -0.07488134
v 0.00892360 -0.02060085 -0.07896741
v 0.00797677 -0.02079024 -0.07915435
v 0.00797677 -0.02004369 -0.07988973
v 0.00356265 -0.01817782 -0.08226432
v -0.00012182 -0.02079325 -0.08055546
v 0.00061927 -0.02076719 -0.08053607
v 0.01349584 -0.01932821 -0.07488134
v 0.01273190 -0.01990240 -0.07488134
v 0.01251662 -0.02006373 -0.07488134
v 0.01178125 -0.02059684 -0.07488134
v 0.00944941 -0.02159291 -0.07488134
f 1 2 3
f 1 3 4
f 1 4 8
f 1 8 7
f 1 7 13
f 1 13 20
f 1 20 30
f 1 30 46
f 1 46 54
f 1 54 92
f 1 92 91
f 1 91 90
f 1 90 89
f 1 89 88
f 1 88 99
f 1 99 60
f 1 60 35
f 1 35 22
f 1 22 15
f 1 15 10
f 1 10 5
f 1 5 11
f 1 11 16
f 1 16 23
f 1 23 38
f 1 38 71
f 1 71 112
f 1 112 147
f 1 147 162
f 1 162 161
f 1 161 163
f 1 163 174
f 1 174 159
f 1 159 158
f 1 158 173
f 1 173 156
f 1 156 172
f 1 172 171
f 1 171 170
f 1 170 153
f 1 153 152
f 1 152 120
f 1 120 74
f 1 74 41
f 1 41 25
f 1 25 17
f 1 17 12
f 1 12 6
f 1 6 2
f 2 6 3
f 3 7 8
f 3 8 4
f 3 6 9
f 3 9 7
f 5 10 11
f 6 12 9
f 7 9 13
f 9 12 14
f 9 14 13
f 10 15 21
f 10 21 34
f 10 34 59
f 10 59 97
f 10 97 134
f 10 134 168
f 10 168 150
f 10 150 149
f 10 149 148
f 10 148 114
f 10 114 113
f 10 113 72
f 10 72 39
f 10 39 24
f 10 24 16
f 10 16 11
f 12 17 14
f 13 14 18
f 13 18 19
f 13 19 20
f 14 17 18
f 15 22 21
f 16 24 37
f 16 37 23
f 17 25 26
f 17 26 18
f 18 26 27
f 18 27 28
f 18 28 29
f 18 29 19
f 19 29 20
f 20 29 31
f 20 31 32
f 20 32 33
f 20 33 30
f 21 22 34
f 22 35 36
f 22 36 34
f 23 37 38
f 24 39 40
f 24 40 37
f 25 41 42
f 25 42 26
f 26 42 43
f 26 43 27
f 27 44 28
f 27 43 44
f 28 32 31
f 28 31 29
f 28 44 45
f 28 45 32
f 30 33 46
f 32 45 47
f 32 47 33
f 33 48 49
f 33 49 50
f 33 50 51
f 33 51 52
f 33 52 53
f 33 53 54
f 33 54 46
f 33 47 55
f 33 55 56
f 33 56 57
f 33 57 48
f 34 58 59
f 34 36 58
f 35 60 61
f 35 61 36
f 36 61 62
f 36 62 63
f 36 63 64
f 36 64 65
f 36 65 66
f 36 66 67
f 36 67 68
f 36 68 58
f 37 40 69
f 37 69 70
f 37 70 38
f 38 70 71
f 39 72 40
f 40 72 73
f 40 73 69
f 41 74 42
f 42 75 43
f 42 74 76
f 42 76 77
f 42 77 75
f 43 75 78
f 43 78 79
f 43 79 44
f 44 79 80
f 44 80 45
f 45 80 47
f 47 80 55
f 48 81 49
f 48 57 81
f 49 81 82
f 49 82 50
f 50 82 83
f 50 83 84
f 50 84 85
f 50 85 62
f 50 62 86
f 50 86 51
f 51 86 87
f 51 87 88
f 51 88 89
f 51 89 90
f 51 90 52
f 52 90 53
f 53 90 91
f 53 91 92
f 53 92 54
f 55 80 78
f 55 78 56
f 56 78 77
f 56 77 57
f 57 77 93
f 57 93 94
f 57 94 95
f 57 95 96
f 57 96 84
f 57 84 83
f 57 83 81
f 58 68 59
f 59 68 67
f 59 67 66
f 59 66 65
f 59 65 64
f 59 64 98
f 59 98 97
f 60 86 61
f 60 99 86
f 61 86 62
f 62 85 100
f 62 100 63
f 63 100 64
f 64 100 101
f 64 101 102
f 64 102 103
f 64 103 104
f 64 104 105
f 64 105 98
f 69 106 107
f 69 107 108
f 69 108 109
f 69 109 110
f 69 110 70
f 69 73 106
f 70 110 111
f 70 111 112
f 70 112 71
f 72 113 73
f 73 113 114
f 73 114 115
f 73 115 116
f 73 116 117
f 73 117 118
f 73 118 119
f 73 119 106
f 74 120 76
f 75 77 78
f 76 120 121
f 76 121 122
f 76 122 123
f 76 123 77
f 77 124 93
f 77 123 122
f 77 122 125
f 77 125 126
f 77 126 127
f 77 127 124
f 78 80 79
f 81 83 82
f 84 96 95
f 84 95 85
f 85 95 100
f 86 99 88
f 86 88 87
f 93 124 128
f 93 128 94
f 94 128 129
f 94 129 95
f 95 129 130
f 95 130 131
f 95 131 100
f 97 132 133
f 97 133 134
f 97 98 105
f 97 105 104
f 97 104 103
f 97 103 102
f 97 102 135
f 97 135 132
f 100 131 136
f 100 136 137
f 100 137 118
f 100 118 138
f 100 138 139
f 100 139 140
f 100 140 141
f 100 141 101
f 101 141 115
f 101 115 142
f 101 142 102
f 102 142 143
f 102 143 135
f 106 119 107
f 107 119 118
f 107 118 144
f 107 144 127
f 107 127 145
f 107 145 108
f 108 145 111
f 108 111 109
f 109 111 110
f 111 145 146
f 111 146 147
f 111 147 112
f 114 148 115
f 115 141 116
f 115 148 149
f 115 149 150
f 115 150 151
f 115 151 142
f 116 141 140
f 116 140 117
f 117 140 118
f 118 137 144
f 118 140 138
f 120 152 121
f 121 152 153
f 121 153 170
f 121 170 154
f 121 154 122
f 122 154 155
f 122 155 156
f 122 156 157
f 122 157 158
f 122 158 125
f 124 127 128
f 125 158 159
f 125 159 174
f 125 174 160
f 125 160 126
f 126 161 162
f 126 162 146
f 126 146 145
f 126 145 127
f 126 160 163
f 126 163 161
f 127 144 128
f 128 164 129
f 128 144 164
f 129 164 130
f 130 164 131
f 131 164 165
f 131 165 166
f 131 166 136
f 132 134 133
f 132 135 167
f 132 167 134
f 134 167 168
f 135 143 167
f 136 166 137
f 137 166 144
f 138 140 139
f 142 151 143
f 143 151 150
f 143 150 169
f 143 169 167
f 144 166 165
f 144 165 164
f 146 162 147
f 150 168 169
f 154 170 171
f 154 171 155
f 155 171 172
f 155 172 156
f 156 173 157
f 157 173 158
f 160 174 163
f 167 169 168

