# https://github.com/mikedh/trimesh
v -0.06424876 -0.07508384 0.07002494
v -0.06420866 -0.07506938 0.07002494
v -0.06420866 -0.07507516 0.07006596
v -0.06420866 -0.07480051 0.07112720
v -0.06670456 -0.07444200 0.07006061
v -0.06667137 -0.07420203 0.06804693
v -0.06424876 -0.07425407 0.06782397
v -0.06420866 -0.07424540 0.06783289
v -0.06420866 -0.07448970 0.07229011
v -0.06420866 -0.07448392 0.07230794
v -0.06592053 -0.07423528 0.07144290
v -0.06807904 -0.07382617 0.06927761
v -0.06807904 -0.07382617 0.06851958
v -0.06848004 -0.07172863 0.06572111
v -0.06667137 -0.07337660 0.06683586
v -0.06424876 -0.07258008 0.06518246
v -0.06424876 -0.07353851 0.06661292
v -0.06420866 -0.07354718 0.06665037
v -0.06420866 -0.07297906 0.07230794
v -0.07635492 -0.06031572 0.07126454
v -0.07826176 -0.06031572 0.07061353
v -0.07804190 -0.06227883 0.06947916
v -0.07053483 -0.07148288 0.06906001
v -0.07053483 -0.07148288 0.06833944
v -0.07529848 -0.06654042 0.06620269
v -0.06750796 -0.07107089 0.06410695
v -0.06668935 -0.07204232 0.06502194
v -0.06589287 -0.07133398 0.06383941
v -0.06424876 -0.07147999 0.06365214
v -0.06420866 -0.07257141 0.06517890
v -0.06420866 -0.07147999 0.06365392
v -0.06420866 -0.07353272 0.06662718
v -0.07457253 -0.06031572 0.06986977
v -0.07584606 -0.06031572 0.07094171
v -0.06420866 -0.06031572 0.06070385
v -0.07831569 -0.06031572 0.07035312
v -0.07833367 -0.06049787 0.07018189
v -0.07804190 -0.06227883 0.06820031
v -0.07529848 -0.06654042 0.06717832
v -0.07602029 -0.06541286 0.06783289
v -0.07510351 -0.06637851 0.06879247
v -0.07569258 -0.06517579 0.06573003
v -0.07341515 -0.06472621 0.06337390
v -0.07266154 -0.06634093 0.06400708
v -0.07017670 -0.06868856 0.06406058
v -0.06601595 -0.06196225 0.05630906
v -0.06420866 -0.06251301 0.05573474
v -0.06424876 -0.06911501 0.06122644
v -0.06420866 -0.06912079 0.06121931
v -0.06424876 -0.07032641 0.06244286
v -0.06420866 -0.07033219 0.06244999
v -0.06420866 -0.06031572 0.05408848
v -0.07831984 -0.06031572 0.07017297
v -0.07815944 -0.06033307 0.06787927
v -0.07737817 -0.06033307 0.06666820
v -0.07606454 -0.06275443 0.06527521
v -0.07505097 -0.06275443 0.06406593
v -0.07365299 -0.06261421 0.06264619
v -0.07238913 -0.06332833 0.06176152
v -0.06762964 -0.06104141 0.05687446
v -0.07077682 -0.06431133 0.06122466
v -0.06420866 -0.06033307 0.05409739
v -0.06420866 -0.06083180 0.05445768
v -0.06492079 -0.06031572 0.05459680
v -0.07815805 -0.06031572 0.06789354
v -0.07737679 -0.06031572 0.06667356
v -0.07577139 -0.06031572 0.06464382
v -0.07600093 -0.06051377 0.06494703
v -0.07513532 -0.06144183 0.06398211
v -0.07292565 -0.06033307 0.06132097
v -0.07278323 -0.06171361 0.06149577
v -0.07024031 -0.06137823 0.05918422
v -0.06779557 -0.06031572 0.05675496
v -0.06680965 -0.06031572 0.05598266
v -0.07518648 -0.06031572 0.06392146
v -0.07433331 -0.06051377 0.06295832
v -0.07458497 -0.06031572 0.06322764
v -0.07293533 -0.06031572 0.06133168
v -0.07122346 -0.06031572 0.05971752
v -0.07044219 -0.06031572 0.05901121
v -0.06911888 -0.06040246 0.05789646
v -0.06901932 -0.06031572 0.05778231
f 1 2 3
f 1 3 4
f 1 4 5
f 1 5 6
f 1 6 7
f 1 7 8
f 1 8 2
f 2 8 18
f 2 18 32
f 2 32 30
f 2 30 31
f 2 31 51
f 2 51 49
f 2 49 47
f 2 47 63
f 2 63 62
f 2 62 52
f 2 52 35
f 2 35 19
f 2 19 10
f 2 10 9
f 2 9 4
f 2 4 3
f 4 9 5
f 5 9 10
f 5 10 11
f 5 11 12
f 5 12 13
f 5 13 6
f 6 13 14
f 6 14 15
f 6 15 16
f 6 16 17
f 6 17 7
f 7 17 18
f 7 18 8
f 10 19 20
f 10 20 21
f 10 21 11
f 11 21 22
f 11 22 23
f 11 23 12
f 12 23 24
f 12 24 13
f 13 24 25
f 13 25 14
f 14 25 26
f 14 26 15
f 15 26 27
f 15 27 28
f 15 28 29
f 15 29 16
f 16 30 17
f 16 29 31
f 16 31 30
f 17 30 32
f 17 32 18
f 19 33 34
f 19 34 20
f 19 35 33
f 20 34 33
f 20 33 35
f 20 35 52
f 20 52 64
f 20 64 74
f 20 74 73
f 20 73 82
f 20 82 80
f 20 80 79
f 20 79 78
f 20 78 77
f 20 77 75
f 20 75 67
f 20 67 66
f 20 66 65
f 20 65 53
f 20 53 36
f 20 36 21
f 21 36 37
f 21 37 22
f 22 37 38
f 22 38 25
f 22 25 39
f 22 39 40
f 22 40 41
f 22 41 23
f 23 41 39
f 23 39 25
f 23 25 24
f 25 38 42
f 25 42 43
f 25 43 44
f 25 44 45
f 25 45 26
f 26 45 46
f 26 46 47
f 26 47 48
f 26 48 28
f 26 28 27
f 28 48 49
f 28 49 50
f 28 50 29
f 29 50 51
f 29 51 31
f 36 53 37
f 37 53 54
f 37 54 38
f 38 54 55
f 38 55 56
f 38 56 42
f 39 41 40
f 42 56 57
f 42 57 58
f 42 58 59
f 42 59 43
f 43 59 60
f 43 60 46
f 43 46 61
f 43 61 44
f 44 61 45
f 45 61 46
f 46 60 62
f 46 62 63
f 46 63 47
f 47 49 48
f 49 51 50
f 52 62 60
f 52 60 64
f 53 65 54
f 54 65 66
f 54 66 55
f 55 66 67
f 55 67 68
f 55 68 56
f 56 68 69
f 56 69 57
f 57 69 70
f 57 70 71
f 57 71 58
f 58 71 59
f 59 71 72
f 59 72 60
f 60 72 73
f 60 73 74
f 60 74 64
f 67 75 68
f 68 75 69
f 69 75 76
f 69 76 70
f 70 76 77
f 70 77 78
f 70 78 79
f 70 79 71
f 71 79 80
f 71 80 72
f 72 80 81
f 72 81 73
f 73 81 82
f 75 77 76
f 80 82 81

