# https://github.com/mikedh/trimesh
v 0.04790733 0.06014915 0.06938941
v 0.04903177 0.05999611 0.06938941
v 0.04903177 0.06051123 0.06817547
v 0.04603279 0.05984680 0.06938941
v 0.04903177 0.04292241 0.06938941
v 0.04903177 0.06055603 0.06763233
v 0.04567815 0.05971243 0.06938941
v 0.04903177 0.06067921 0.06583348
v 0.04233228 0.02254522 0.06938941
v 0.04847729 0.03280287 0.06648802
v 0.04875593 0.03410934 0.06659479
v 0.04903177 0.03497908 0.06636501
v 0.04579144 0.05967882 0.06862229
v 0.04184324 0.05283293 0.05812740
v 0.04184324 0.05282919 0.05856725
v 0.04184324 0.05248951 0.06055528
v 0.04184324 0.05247458 0.06063652
v 0.04184324 0.05128382 0.06231120
v 0.04184324 0.05062686 0.06310966
v 0.04184324 0.04890231 0.06485048
v 0.04184324 0.04654320 0.06692324
v 0.04184324 0.04347860 0.06938941
v 0.04903177 0.06053364 0.06552477
v 0.04236395 0.05306062 0.05753436
v 0.04184324 0.02254522 0.06938941
v 0.04184324 0.02254522 0.06668300
v 0.04903177 0.03365021 0.06564314
v 0.04903177 0.03365021 0.06578125
v 0.04903177 0.03416907 0.06605398
v 0.04184324 0.05133235 0.05804964
v 0.04903177 0.05171683 0.05753436
v 0.04461493 0.05318381 0.05753436
v 0.04273618 0.05321740 0.05753436
v 0.04230062 0.05107479 0.05753436
v 0.04903177 0.03477751 0.06374912
v 0.04184324 0.02954043 0.06314447
v 0.04903177 0.04429608 0.05753436
v 0.04903177 0.04379588 0.05785931
v 0.04184324 0.05116064 0.05804964
v 0.04708687 0.04592356 0.05753436
f 1 2 3
f 1 3 4
f 1 4 7
f 1 7 22
f 1 22 25
f 1 25 9
f 1 9 5
f 1 5 2
f 2 5 12
f 2 12 29
f 2 29 28
f 2 28 27
f 2 27 35
f 2 35 38
f 2 38 37
f 2 37 31
f 2 31 23
f 2 23 8
f 2 8 6
f 2 6 3
f 3 6 4
f 4 6 8
f 4 8 7
f 5 9 10
f 5 10 11
f 5 11 12
f 7 8 13
f 7 13 14
f 7 14 15
f 7 15 16
f 7 16 17
f 7 17 18
f 7 18 19
f 7 19 20
f 7 20 21
f 7 21 22
f 8 23 24
f 8 24 13
f 9 25 26
f 9 26 27
f 9 27 28
f 9 28 10
f 10 28 29
f 10 29 11
f 11 29 12
f 13 24 14
f 14 24 30
f 14 30 39
f 14 39 36
f 14 36 26
f 14 26 25
f 14 25 22
f 14 22 21
f 14 21 20
f 14 20 19
f 14 19 18
f 14 18 17
f 14 17 16
f 14 16 15
f 23 31 32
f 23 32 33
f 23 33 24
f 24 33 32
f 24 32 31
f 24 31 37
f 24 37 40
f 24 40 34
f 24 34 30
f 26 35 27
f 26 36 37
f 26 37 38
f 26 38 35
f 30 34 39
f 34 40 36
f 34 36 39
f 36 40 37

