# https://github.com/mikedh/trimesh
v -0.06627297 -0.04984142 0.04825096
v -0.06627297 -0.04231218 0.04825096
v -0.06604473 -0.05018510 0.04825096
v -0.06627297 -0.06028752 0.05558124
v -0.06627297 -0.04231218 0.06787652
v -0.04545575 -0.04231218 0.04825096
v -0.06077470 -0.05694942 0.04825096
v -0.06627297 -0.06031396 0.05560238
v -0.05963958 -0.05815847 0.04825096
v -0.06627297 -0.05175016 0.06787652
v -0.04545575 -0.04231218 0.06787652
v -0.04545575 -0.06031396 0.04825096
v -0.06627297 -0.06031396 0.06209299
v -0.05842906 -0.05926353 0.04825096
v -0.05698419 -0.06030867 0.04825096
v -0.05696992 -0.06031396 0.04825096
v -0.05392529 -0.06031396 0.06787652
v -0.04545575 -0.06031396 0.06787652
f 1 2 6
f 1 6 12
f 1 12 16
f 1 16 15
f 1 15 14
f 1 14 9
f 1 9 7
f 1 7 3
f 1 3 4
f 1 4 8
f 1 8 13
f 1 13 10
f 1 10 5
f 1 5 2
f 2 5 11
f 2 11 6
f 3 7 4
f 4 7 9
f 4 9 8
f 5 10 17
f 5 17 18
f 5 18 11
f 6 11 18
f 6 18 12
f 8 9 14
f 8 14 15
f 8 15 16
f 8 16 12
f 8 12 18
f 8 18 17
f 8 17 13
f 10 13 17

