# https://github.com/mikedh/trimesh
v 0.04184211 0.03125466 -0.06005968
v 0.03810057 0.03125466 -0.05946328
v 0.03349290 0.02254522 -0.05946328
v 0.04184211 0.02650220 -0.06320372
v 0.04184211 0.03125466 -0.06487055
v 0.03029298 0.03125466 -0.05946328
v 0.04184211 0.02512011 -0.06424205
v 0.04184211 0.02529404 -0.06410748
v 0.03029298 0.02254522 -0.05946328
v 0.04138983 0.02254522 -0.06651598
v 0.04157187 0.02262878 -0.06630648
v 0.04184211 0.02653716 -0.06666125
v 0.04150516 0.02623021 -0.06704814
v 0.03196757 0.02254522 -0.07508412
v 0.03036647 0.02461195 -0.07508412
v 0.03029298 0.02468869 -0.07508412
v 0.03514149 0.03125466 -0.06864005
v 0.03029298 0.03125466 -0.07081152
v 0.04184211 0.02331172 -0.06603275
v 0.03029298 0.02254522 -0.07508412
v 0.04138983 0.02254522 -0.06744574
v 0.04157187 0.02262878 -0.06736469
v 0.04184211 0.02444143 -0.06716283
v 0.04176522 0.02442097 -0.06741515
v 0.03946082 0.02254522 -0.06977319
v 0.03255893 0.03125466 -0.06990623
v 0.03392597 0.03125466 -0.06927772
v 0.03454899 0.03125466 -0.06895812
f 1 2 3
f 1 3 4
f 1 4 8
f 1 8 7
f 1 7 19
f 1 19 23
f 1 23 12
f 1 12 5
f 1 5 17
f 1 17 28
f 1 28 27
f 1 27 26
f 1 26 18
f 1 18 6
f 1 6 2
f 2 6 9
f 2 9 3
f 3 7 8
f 3 8 4
f 3 9 20
f 3 20 14
f 3 14 25
f 3 25 21
f 3 21 10
f 3 10 11
f 3 11 7
f 5 12 13
f 5 13 14
f 5 14 15
f 5 15 16
f 5 16 17
f 6 18 16
f 6 16 20
f 6 20 9
f 7 11 19
f 10 21 22
f 10 22 11
f 11 22 19
f 12 23 24
f 12 24 13
f 13 24 25
f 13 25 14
f 14 20 16
f 14 16 15
f 16 18 26
f 16 26 27
f 16 27 28
f 16 28 17
f 19 22 23
f 21 25 22
f 22 25 24
f 22 24 23

