# https://github.com/mikedh/trimesh
v 0.04230034 0.05107774 0.05753320
v 0.04236621 0.05306170 0.05753320
v 0.04502721 0.05590048 0.04584702
v 0.04511678 0.05351441 0.04584702
v 0.04596514 0.05230806 0.04584702
v 0.05378478 0.04327241 0.04584702
v 0.04708750 0.04592479 0.05753320
v 0.05252015 0.06520509 0.05753320
v 0.05309977 0.06686150 0.05472491
v 0.04334893 0.05485658 0.05496398
v 0.04334893 0.05485658 0.05391616
v 0.04583868 0.05718139 0.04584702
v 0.05499672 0.04210334 0.04584702
v 0.04953509 0.04382632 0.05753320
v 0.05276781 0.06526102 0.05753320
v 0.05438021 0.06542612 0.05753320
v 0.05332899 0.06686150 0.05472491
v 0.05303654 0.06692274 0.05307539
v 0.05304972 0.06693606 0.05065487
v 0.05311822 0.06688014 0.04868277
v 0.05322887 0.06674432 0.04706872
v 0.05338959 0.06584155 0.04584702
v 0.05502043 0.04209536 0.04584702
v 0.05493349 0.03991966 0.05753320
v 0.05353976 0.04090765 0.05753320
v 0.05588987 0.06460858 0.05753320
v 0.05576867 0.06692008 0.04759606
v 0.05600316 0.06709850 0.04584702
v 0.05598208 0.06710117 0.04584702
v 0.05350815 0.06692274 0.05307539
v 0.05424585 0.06610786 0.05551763
v 0.05461470 0.06710117 0.04584702
v 0.05682517 0.04175715 0.04584702
v 0.05588197 0.03989570 0.05753320
v 0.05732312 0.06334630 0.05753320
v 0.05721246 0.06607057 0.04584702
v 0.05601897 0.06708785 0.04584702
v 0.05685151 0.04176248 0.04584702
v 0.05596891 0.03989570 0.05753320
v 0.05979179 0.06377771 0.04584702
v 0.05855877 0.06487754 0.04584702
v 0.05845865 0.06232902 0.05753320
v 0.06272678 0.05939704 0.05361303
v 0.05858248 0.04223916 0.04584702
v 0.05868523 0.04213264 0.04823321
v 0.05874583 0.04206340 0.05065487
v 0.05869050 0.04195954 0.05307539
v 0.06791705 0.04958911 0.05753320
v 0.06112229 0.06255272 0.04584702
v 0.06566179 0.05742906 0.05065487
v 0.06339599 0.06000154 0.04823321
v 0.06460793 0.05889106 0.04823321
v 0.05988137 0.06094425 0.05753320
v 0.06519282 0.05698434 0.05390930
v 0.06543521 0.05722667 0.05229524
v 0.06687373 0.05632657 0.05065487
v 0.06858888 0.05161567 0.04584702
v 0.06920539 0.05345050 0.04584702
v 0.06921330 0.05347979 0.04584702
v 0.06795920 0.04975422 0.05753320
v 0.06588837 0.05767938 0.04823321
v 0.06231578 0.06142093 0.04584702
v 0.06086409 0.05992431 0.05753320
v 0.06789597 0.05486723 0.05222775
v 0.06814099 0.05511489 0.05065487
v 0.06904731 0.05347979 0.04823321
v 0.06834650 0.05533326 0.04584702
v 0.06831488 0.05529598 0.04823321
v 0.06796184 0.05102182 0.05753320
v 0.06882337 0.05347979 0.05065487
v 0.06710031 0.05650765 0.04823321
v 0.06358832 0.06019328 0.04584702
v 0.06243698 0.05820666 0.05753320
v 0.06484768 0.05658488 0.05549704
v 0.06833069 0.05357034 0.05305136
v 0.06750868 0.05444114 0.05384295
v 0.06780903 0.05237996 0.05690520
v 0.06807249 0.05277143 0.05549704
v 0.06717671 0.05654493 0.04584702
v 0.06598322 0.05778058 0.04584702
v 0.06477918 0.05900823 0.04584702
v 0.06796184 0.05123752 0.05753320
v 0.06291385 0.05767938 0.05753320
v 0.06314306 0.05741575 0.05753320
v 0.06450254 0.05584988 0.05753320
v 0.06654440 0.05349577 0.05753320
v 0.06766149 0.05216692 0.05753320
v 0.06790651 0.05143459 0.05753320
v 0.06688953 0.05309365 0.05753320
f 1 2 3
f 1 3 4
f 1 4 5
f 1 5 6
f 1 6 7
f 1 7 14
f 1 14 25
f 1 25 24
f 1 24 34
f 1 34 39
f 1 39 48
f 1 48 60
f 1 60 69
f 1 69 82
f 1 82 88
f 1 88 87
f 1 87 89
f 1 89 86
f 1 86 85
f 1 85 84
f 1 84 83
f 1 83 73
f 1 73 63
f 1 63 53
f 1 53 42
f 1 42 35
f 1 35 26
f 1 26 16
f 1 16 15
f 1 15 8
f 1 8 2
f 2 8 9
f 2 9 10
f 2 10 11
f 2 11 3
f 3 11 12
f 3 12 22
f 3 22 32
f 3 32 29
f 3 29 28
f 3 28 37
f 3 37 36
f 3 36 41
f 3 41 40
f 3 40 49
f 3 49 62
f 3 62 72
f 3 72 81
f 3 81 80
f 3 80 79
f 3 79 67
f 3 67 59
f 3 59 58
f 3 58 57
f 3 57 44
f 3 44 38
f 3 38 33
f 3 33 23
f 3 23 13
f 3 13 6
f 3 6 5
f 3 5 4
f 6 13 7
f 7 13 14
f 8 15 9
f 9 15 16
f 9 16 17
f 9 17 30
f 9 30 18
f 9 18 10
f 10 18 11
f 11 18 19
f 11 19 20
f 11 20 12
f 12 20 21
f 12 21 22
f 13 23 24
f 13 24 25
f 13 25 14
f 16 26 17
f 17 27 28
f 17 28 29
f 17 29 30
f 17 26 31
f 17 31 27
f 18 30 29
f 18 29 32
f 18 32 19
f 19 32 20
f 20 32 21
f 21 32 22
f 23 33 24
f 24 33 34
f 26 35 36
f 26 36 27
f 26 27 31
f 27 36 37
f 27 37 28
f 33 38 39
f 33 39 34
f 35 40 41
f 35 41 36
f 35 42 43
f 35 43 40
f 38 44 39
f 39 44 45
f 39 45 46
f 39 46 47
f 39 47 48
f 40 43 50
f 40 50 51
f 40 51 52
f 40 52 49
f 42 53 54
f 42 54 55
f 42 55 56
f 42 56 43
f 43 56 50
f 44 57 48
f 44 48 45
f 45 48 46
f 46 48 47
f 48 57 58
f 48 58 59
f 48 59 60
f 49 52 61
f 49 61 62
f 50 56 51
f 51 56 52
f 52 56 61
f 53 63 54
f 54 64 65
f 54 65 55
f 54 63 64
f 55 65 56
f 56 65 61
f 59 66 60
f 59 67 68
f 59 68 66
f 60 66 70
f 60 70 69
f 61 65 71
f 61 71 72
f 61 72 62
f 63 73 74
f 63 74 64
f 64 75 65
f 64 74 76
f 64 76 77
f 64 77 78
f 64 78 75
f 65 75 70
f 65 70 68
f 65 68 71
f 66 68 70
f 67 79 68
f 68 79 80
f 68 80 81
f 68 81 71
f 69 70 82
f 70 75 78
f 70 78 82
f 71 81 72
f 73 83 74
f 74 83 84
f 74 84 76
f 76 84 85
f 76 85 86
f 76 86 77
f 77 87 88
f 77 88 82
f 77 82 78
f 77 86 89
f 77 89 87

