# https://github.com/mikedh/trimesh
v 0.04903177 0.03365213 0.06564265
v 0.04903177 0.03365213 0.06578131
v 0.04903177 0.03477822 0.06374990
v 0.05104989 0.03510485 0.06376971
v 0.04903177 0.03416851 0.06605415
v 0.05104989 0.03510485 0.06439642
v 0.06615339 0.04669861 0.06518251
v 0.06582724 0.04685726 0.06673218
v 0.05493233 0.03992029 0.05753410
v 0.05588487 0.03989852 0.05753410
v 0.05597197 0.03989852 0.05753410
v 0.04903177 0.04379939 0.05786006
v 0.04953584 0.04382428 0.05753410
v 0.05354058 0.04090640 0.05753410
v 0.05603868 0.03981452 0.05791949
v 0.04903177 0.03498042 0.06636481
v 0.06606259 0.04696925 0.06276120
v 0.06793987 0.04954806 0.05791949
v 0.06786204 0.04962272 0.06034080
v 0.06772676 0.04982492 0.06156541
v 0.06583835 0.04702835 0.06673218
v 0.06408894 0.04590226 0.06673218
v 0.06791578 0.04958539 0.05753410
v 0.04903177 0.04430022 0.05753410
v 0.04903177 0.04279462 0.06673218
v 0.06796026 0.04975026 0.05753410
v 0.06796211 0.05101944 0.05753410
v 0.06786204 0.05012977 0.06034080
v 0.06772676 0.04985291 0.06156541
v 0.06583835 0.04817622 0.06673218
v 0.04903177 0.05171625 0.05753410
v 0.04903177 0.06061611 0.06673218
v 0.06796211 0.05123409 0.05753410
v 0.06790837 0.05143317 0.05753410
v 0.06766004 0.05216420 0.05753410
v 0.06520085 0.04972848 0.06626665
v 0.06624235 0.04881081 0.06534910
v 0.06689097 0.05309121 0.05753410
v 0.06638505 0.05090435 0.06249197
v 0.06573272 0.05034441 0.06465215
v 0.06488767 0.04944230 0.06673218
v 0.04903177 0.06053523 0.06552468
v 0.05251947 0.06520446 0.05753410
v 0.05066073 0.06106717 0.06673218
v 0.05049023 0.06212793 0.06434960
v 0.05248612 0.06509870 0.05791949
v 0.04903177 0.06067832 0.06583354
v 0.06268237 0.05449726 0.06363644
v 0.05847748 0.06003440 0.06210478
v 0.06106824 0.05528740 0.06461794
v 0.06275279 0.05214242 0.06626126
v 0.06130916 0.05309743 0.06673218
v 0.06249890 0.05190601 0.06673218
v 0.06371645 0.05065549 0.06673218
v 0.06654627 0.05349249 0.05753410
v 0.06542324 0.05240684 0.06180493
v 0.06502851 0.05195889 0.06341854
v 0.05276780 0.06526046 0.05753410
v 0.05198390 0.06086808 0.06673218
v 0.05198390 0.06153067 0.06567957
v 0.05198390 0.06219637 0.06446846
v 0.05271962 0.06463519 0.05956551
v 0.06008975 0.05911050 0.06079912
v 0.05772509 0.06164888 0.06101794
v 0.05611096 0.06239856 0.06207596
v 0.05695231 0.06086185 0.06289717
v 0.05779365 0.05929404 0.06371838
v 0.05818097 0.05612730 0.06673218
v 0.06606444 0.05404931 0.05753410
v 0.06511376 0.05447238 0.05874250
v 0.06472644 0.05402754 0.06034080
v 0.06048449 0.05956156 0.05918462
v 0.06111086 0.05831104 0.06013099
v 0.06310860 0.05495143 0.06202284
v 0.05438008 0.06542844 0.05753410
v 0.05356467 0.06210304 0.06425685
v 0.05390010 0.06013705 0.06673218
v 0.05440602 0.06461653 0.05956461
v 0.05440602 0.06529778 0.05791949
v 0.05912981 0.06060367 0.06010128
v 0.05817170 0.06208749 0.05940343
v 0.05670953 0.06304871 0.06014630
v 0.05569584 0.06443611 0.05927467
v 0.05514359 0.05906073 0.06673218
v 0.05617952 0.06007484 0.06455940
v 0.05705053 0.05721917 0.06673218
v 0.06450221 0.05585044 0.05753410
v 0.06212827 0.05829238 0.05806176
v 0.05589228 0.06460720 0.05753410
v 0.05585151 0.06457298 0.05791949
v 0.05440602 0.06393527 0.06077571
v 0.05988220 0.06094273 0.05753410
v 0.05841262 0.06228969 0.05791949
v 0.06291402 0.05767956 0.05753410
v 0.06243775 0.05820839 0.05753410
v 0.06079027 0.05986019 0.05791949
v 0.06086439 0.05992552 0.05753410
v 0.05706350 0.06349977 0.05791949
v 0.05732480 0.06334734 0.05753410
v 0.06344403 0.05706985 0.05753410
v 0.05845895 0.06233013 0.05753410
f 1 2 5
f 1 5 16
f 1 16 25
f 1 25 32
f 1 32 47
f 1 47 42
f 1 42 31
f 1 31 24
f 1 24 12
f 1 12 3
f 1 3 4
f 1 4 6
f 1 6 2
f 2 6 7
f 2 7 8
f 2 8 5
f 3 9 10
f 3 10 11
f 3 11 4
f 3 12 13
f 3 13 14
f 3 14 9
f 4 11 15
f 4 15 7
f 4 7 6
f 5 8 16
f 7 15 17
f 7 17 18
f 7 18 19
f 7 19 20
f 7 20 8
f 8 20 21
f 8 21 30
f 8 30 41
f 8 41 54
f 8 54 53
f 8 53 52
f 8 52 68
f 8 68 86
f 8 86 84
f 8 84 77
f 8 77 59
f 8 59 44
f 8 44 32
f 8 32 25
f 8 25 22
f 8 22 16
f 9 14 13
f 9 13 24
f 9 24 31
f 9 31 43
f 9 43 58
f 9 58 75
f 9 75 89
f 9 89 99
f 9 99 101
f 9 101 92
f 9 92 97
f 9 97 95
f 9 95 94
f 9 94 100
f 9 100 87
f 9 87 69
f 9 69 55
f 9 55 38
f 9 38 35
f 9 35 34
f 9 34 33
f 9 33 27
f 9 27 26
f 9 26 23
f 9 23 11
f 9 11 10
f 11 23 15
f 12 24 13
f 15 23 17
f 16 22 25
f 17 23 18
f 18 23 26
f 18 26 19
f 19 26 27
f 19 27 33
f 19 33 28
f 19 28 29
f 19 29 20
f 20 29 30
f 20 30 21
f 28 33 34
f 28 34 35
f 28 35 29
f 29 36 37
f 29 37 30
f 29 35 38
f 29 38 39
f 29 39 40
f 29 40 36
f 30 37 36
f 30 36 41
f 31 42 43
f 32 44 45
f 32 45 46
f 32 46 43
f 32 43 47
f 36 40 48
f 36 48 49
f 36 49 50
f 36 50 51
f 36 51 52
f 36 52 53
f 36 53 54
f 36 54 41
f 38 55 39
f 39 55 56
f 39 56 57
f 39 57 40
f 40 57 48
f 42 47 43
f 43 46 58
f 44 59 60
f 44 60 61
f 44 61 62
f 44 62 45
f 45 62 46
f 46 62 58
f 48 57 63
f 48 63 64
f 48 64 49
f 49 64 65
f 49 65 66
f 49 66 50
f 50 66 67
f 50 67 51
f 51 67 68
f 51 68 52
f 55 69 56
f 56 69 70
f 56 70 71
f 56 71 72
f 56 72 73
f 56 73 74
f 56 74 57
f 57 74 63
f 58 62 75
f 59 76 60
f 59 77 76
f 60 76 78
f 60 78 61
f 61 78 62
f 62 78 79
f 62 79 75
f 63 73 72
f 63 72 80
f 63 80 64
f 63 74 73
f 64 80 81
f 64 81 82
f 64 82 65
f 65 82 83
f 65 83 76
f 65 76 77
f 65 77 84
f 65 84 85
f 65 85 66
f 66 85 67
f 67 85 68
f 68 85 86
f 69 87 70
f 70 87 72
f 70 72 71
f 72 87 88
f 72 88 81
f 72 81 80
f 75 79 83
f 75 83 90
f 75 90 89
f 76 83 91
f 76 91 78
f 78 91 83
f 78 83 79
f 81 92 93
f 81 93 83
f 81 83 82
f 81 88 94
f 81 94 95
f 81 95 96
f 81 96 97
f 81 97 92
f 83 93 98
f 83 98 99
f 83 99 90
f 84 86 85
f 87 100 88
f 88 100 94
f 89 90 99
f 92 101 93
f 93 101 98
f 95 97 96
f 98 101 99

