# https://github.com/mikedh/trimesh
v 0.04852491 0.03633350 -0.03470041
v 0.05081578 0.03677168 -0.03470041
v 0.05342995 0.03753975 -0.02973119
v 0.04852491 0.03635364 -0.03458689
v 0.04852491 0.05780187 -0.03470041
v 0.05342995 0.03753975 -0.03097501
v 0.06303893 0.04485285 -0.03470041
v 0.05360165 0.03975584 -0.02236372
v 0.05330156 0.03974073 -0.02236372
v 0.05251267 0.03753975 -0.02973119
v 0.06300800 0.04489314 -0.03409782
v 0.06288425 0.04500143 -0.03287092
v 0.06372109 0.04703368 -0.02683420
v 0.05213679 0.03974073 -0.02236372
v 0.05113134 0.04019654 -0.02236372
v 0.05094881 0.04027964 -0.02236372
v 0.05071060 0.04047104 -0.02236372
v 0.04973609 0.04146827 -0.02236372
v 0.04873992 0.04256121 -0.02236372
v 0.04852491 0.04282563 -0.02236372
v 0.04852491 0.05781950 -0.03450116
v 0.04995419 0.06008091 -0.03167661
v 0.05015838 0.05947401 -0.03470041
v 0.06319517 0.04621272 -0.03470041
v 0.06416504 0.04863531 -0.02683420
v 0.06366695 0.04671134 -0.02925420
v 0.06343647 0.04728300 -0.02515565
v 0.06419288 0.04887707 -0.02236372
v 0.04852491 0.05099243 -0.02236372
v 0.05041361 0.06027986 -0.02683420
v 0.05006711 0.06026223 -0.02925420
v 0.05252505 0.06205777 -0.02236372
v 0.05198365 0.06128214 -0.02925420
v 0.05030842 0.05976361 -0.03409782
v 0.05049714 0.05966288 -0.03470041
v 0.06301264 0.04760785 -0.03470041
v 0.06310236 0.04773125 -0.03409782
v 0.06344421 0.04822735 -0.03167661
v 0.06432591 0.05094710 -0.02236372
v 0.05172842 0.06077344 -0.02236372
v 0.05237655 0.06191423 -0.02236372
v 0.05345779 0.06205777 -0.02236372
v 0.05274779 0.06198977 -0.02367032
v 0.05329383 0.06198977 -0.02367032
v 0.05440601 0.06103031 -0.02683420
v 0.05383522 0.06014387 -0.03167661
v 0.05198365 0.06069537 -0.03167661
v 0.05127829 0.05968554 -0.03470041
v 0.06251610 0.04826009 -0.03470041
v 0.06304976 0.05006822 -0.02858640
v 0.06357415 0.05114604 -0.02428136
v 0.06405676 0.05129966 -0.02236372
v 0.05439982 0.06168003 -0.02236372
v 0.05422348 0.06151382 -0.02445163
v 0.05683300 0.06024712 -0.02236372
v 0.05634110 0.06021439 -0.02441299
v 0.05454677 0.06041585 -0.02918295
v 0.05544703 0.05931536 -0.02994373
v 0.05504640 0.05893257 -0.03167661
v 0.05580281 0.05733346 -0.03322232
v 0.05340984 0.05971325 -0.03312813
v 0.05177173 0.05982657 -0.03400001
v 0.05239975 0.05914160 -0.03470041
v 0.06086253 0.05036537 -0.03470041
v 0.06096926 0.05050136 -0.03409782
v 0.06030102 0.05206522 -0.03240117
v 0.06056089 0.05240015 -0.03078662
v 0.06025462 0.05442737 -0.02683420
v 0.06045261 0.05467920 -0.02560488
v 0.06070475 0.05501161 -0.02399154
v 0.06095998 0.05534402 -0.02236372
v 0.05463958 0.06157930 -0.02236372
v 0.05755229 0.05959993 -0.02236372
v 0.05594975 0.05990211 -0.02683420
v 0.05784309 0.05928262 -0.02260161
v 0.05570845 0.05964525 -0.02833040
v 0.05805810 0.05471445 -0.03293975
v 0.05610135 0.05772128 -0.03167661
v 0.05755074 0.05890740 -0.02441299
v 0.05549189 0.05664346 -0.03470041
v 0.05512838 0.05702372 -0.03470041
v 0.06024379 0.05114856 -0.03470041
v 0.05776111 0.05414532 -0.03470041
v 0.05254361 0.05905093 -0.03470041
v 0.05407653 0.05793030 -0.03470041
v 0.05870004 0.05827531 -0.02236372
v 0.06020512 0.05632867 -0.02236372
v 0.05813854 0.05899805 -0.02236372
f 1 2 3
f 1 3 4
f 1 4 20
f 1 20 29
f 1 29 21
f 1 21 5
f 1 5 23
f 1 23 35
f 1 35 48
f 1 48 63
f 1 63 84
f 1 84 85
f 1 85 81
f 1 81 80
f 1 80 83
f 1 83 82
f 1 82 64
f 1 64 49
f 1 49 36
f 1 36 24
f 1 24 7
f 1 7 2
f 2 6 3
f 2 7 6
f 3 8 9
f 3 9 14
f 3 14 10
f 3 10 4
f 3 6 7
f 3 7 11
f 3 11 12
f 3 12 13
f 3 13 8
f 4 10 14
f 4 14 15
f 4 15 16
f 4 16 17
f 4 17 18
f 4 18 19
f 4 19 20
f 5 21 22
f 5 22 23
f 7 24 25
f 7 25 26
f 7 26 13
f 7 13 11
f 8 13 27
f 8 27 28
f 8 28 39
f 8 39 52
f 8 52 71
f 8 71 87
f 8 87 86
f 8 86 88
f 8 88 73
f 8 73 55
f 8 55 72
f 8 72 53
f 8 53 42
f 8 42 32
f 8 32 41
f 8 41 40
f 8 40 29
f 8 29 20
f 8 20 19
f 8 19 18
f 8 18 17
f 8 17 16
f 8 16 15
f 8 15 14
f 8 14 9
f 11 13 12
f 13 26 28
f 13 28 27
f 21 30 31
f 21 31 22
f 21 29 30
f 22 31 32
f 22 32 33
f 22 33 34
f 22 34 23
f 23 34 35
f 24 36 37
f 24 37 38
f 24 38 25
f 25 28 26
f 25 38 39
f 25 39 28
f 29 40 30
f 30 40 41
f 30 41 31
f 31 41 32
f 32 42 44
f 32 44 43
f 32 43 33
f 33 43 44
f 33 44 45
f 33 45 46
f 33 46 47
f 33 47 35
f 33 35 34
f 35 47 48
f 36 49 39
f 36 39 37
f 37 39 38
f 39 49 50
f 39 50 51
f 39 51 52
f 42 53 44
f 44 53 54
f 44 54 45
f 45 54 55
f 45 55 56
f 45 56 57
f 45 57 46
f 46 57 58
f 46 58 59
f 46 59 60
f 46 60 61
f 46 61 47
f 47 61 62
f 47 62 48
f 48 61 63
f 48 62 61
f 49 64 65
f 49 65 66
f 49 66 67
f 49 67 68
f 49 68 69
f 49 69 70
f 49 70 50
f 50 70 51
f 51 70 71
f 51 71 52
f 53 72 54
f 54 72 55
f 55 73 56
f 56 74 57
f 56 73 75
f 56 75 74
f 57 74 76
f 57 76 58
f 58 77 78
f 58 78 60
f 58 60 59
f 58 76 75
f 58 75 79
f 58 79 66
f 58 66 65
f 58 65 77
f 60 80 81
f 60 81 61
f 60 78 77
f 60 77 82
f 60 82 83
f 60 83 80
f 61 84 63
f 61 81 85
f 61 85 84
f 64 82 77
f 64 77 65
f 66 79 75
f 66 75 67
f 67 75 68
f 68 75 69
f 69 75 86
f 69 86 87
f 69 87 70
f 70 87 71
f 73 88 75
f 74 75 76
f 75 88 86

