# https://github.com/mikedh/trimesh
v 0.09136784 0.04766068 0.03854154
v 0.09086896 0.04766068 0.04005322
v 0.09136784 0.04099833 0.03854154
v 0.09136784 0.04766068 0.02216268
v 0.09086896 0.04099833 0.04005322
v 0.08945781 0.04766068 0.04070784
v 0.09136784 0.04099833 0.02214919
v 0.09131219 0.04766068 0.02094794
v 0.08945781 0.04099833 0.04070784
v 0.08763920 0.04766068 0.04075508
v 0.08764914 0.04099833 0.04075508
v 0.09128039 0.04099833 0.02033381
v 0.09128237 0.04280674 0.02034056
v 0.09128237 0.04766068 0.02034056
v 0.08036080 0.04766068 0.04075508
v 0.08217940 0.04099833 0.04075508
v 0.08764715 0.04099833 -0.02817513
v 0.08764715 0.04766068 -0.02817513
v 0.07854219 0.04766068 0.04074158
v 0.08036080 0.04462558 0.04075508
v 0.08036080 0.04280674 0.04071459
v 0.08036080 0.04099833 0.04063360
v 0.07800356 0.04099833 -0.02817513
v 0.07106503 0.04766068 -0.02817513
v 0.07671364 0.04766068 0.04053238
v 0.07854219 0.04644573 0.04070109
v 0.07491690 0.04766068 0.04005322
v 0.07907485 0.04099833 0.03998574
v 0.07867734 0.04099833 0.03854154
v 0.07297506 0.04766068 0.03854154
v 0.07906492 0.04099833 0.03997899
f 1 2 5
f 1 5 3
f 1 3 7
f 1 7 4
f 1 4 8
f 1 8 14
f 1 14 18
f 1 18 24
f 1 24 30
f 1 30 27
f 1 27 25
f 1 25 19
f 1 19 15
f 1 15 10
f 1 10 6
f 1 6 2
f 2 6 9
f 2 9 5
f 3 5 9
f 3 9 11
f 3 11 16
f 3 16 22
f 3 22 28
f 3 28 31
f 3 31 29
f 3 29 23
f 3 23 17
f 3 17 12
f 3 12 7
f 4 7 8
f 6 10 11
f 6 11 9
f 7 12 13
f 7 13 8
f 8 13 14
f 10 15 20
f 10 20 16
f 10 16 11
f 12 17 13
f 13 17 18
f 13 18 14
f 15 19 20
f 16 20 21
f 16 21 22
f 17 23 24
f 17 24 18
f 19 21 20
f 19 25 26
f 19 26 21
f 21 26 22
f 22 26 25
f 22 25 27
f 22 27 28
f 23 29 24
f 24 29 30
f 27 30 31
f 27 31 28
f 29 31 30

