# https://github.com/mikedh/trimesh
v -0.07119004 -0.05296790 0.00082383
v -0.07119004 -0.05649968 0.01927599
v -0.07119004 -0.04351584 0.00082383
v -0.01062432 -0.05296790 0.00082383
v -0.01061839 -0.05650097 0.01927599
v -0.07119004 -0.05661594 0.02004223
v -0.07119004 -0.04351584 0.03671955
v -0.01061839 -0.04411523 0.00082383
v -0.01061839 -0.04420307 0.00082383
v -0.01061839 -0.05296790 0.00082774
v -0.01061839 -0.05666244 0.02034716
v -0.01062432 -0.05666244 0.02034716
v -0.07119004 -0.05666115 0.02034716
v -0.07119004 -0.04352488 0.03854131
v -0.01061839 -0.04411910 0.03853349
v -0.01061839 -0.04411523 0.03671564
v -0.01061839 -0.05669086 0.02216110
v -0.07119004 -0.05668182 0.02164507
v -0.07119004 -0.04376774 0.03969457
v -0.01062432 -0.04411910 0.03854131
v -0.01061839 -0.04478309 0.04010114
v -0.01061839 -0.05670765 0.02762247
v -0.07119004 -0.05668957 0.02216110
v -0.07119004 -0.04445368 0.04017151
v -0.01062432 -0.04478567 0.04010505
v -0.01061839 -0.04635908 0.04076182
v -0.01061839 -0.05671153 0.02944032
v -0.07119004 -0.05668957 0.03854131
v -0.07119004 -0.04635908 0.04076182
v -0.01061839 -0.05363577 0.04076182
v -0.01061839 -0.05670895 0.03126209
v -0.07119004 -0.05657331 0.03940528
v -0.01061839 -0.05668957 0.03854131
v -0.07119004 -0.05363577 0.04076182
v -0.01061839 -0.05545591 0.04040607
v -0.07119004 -0.05652680 0.03974930
v -0.01061839 -0.05652680 0.03974930
v -0.07119004 -0.05545591 0.04040607
f 1 2 6
f 1 6 13
f 1 13 18
f 1 18 23
f 1 23 28
f 1 28 32
f 1 32 36
f 1 36 38
f 1 38 34
f 1 34 29
f 1 29 24
f 1 24 19
f 1 19 14
f 1 14 7
f 1 7 3
f 1 3 8
f 1 8 9
f 1 9 4
f 1 4 5
f 1 5 2
f 2 5 6
f 3 7 16
f 3 16 8
f 4 9 10
f 4 10 5
f 5 10 9
f 5 9 8
f 5 8 16
f 5 16 15
f 5 15 21
f 5 21 26
f 5 26 30
f 5 30 35
f 5 35 37
f 5 37 33
f 5 33 31
f 5 31 27
f 5 27 22
f 5 22 17
f 5 17 11
f 5 11 12
f 5 12 6
f 6 12 13
f 7 14 15
f 7 15 16
f 11 17 12
f 12 17 18
f 12 18 13
f 14 19 20
f 14 20 15
f 15 20 21
f 17 22 23
f 17 23 18
f 19 24 25
f 19 25 21
f 19 21 20
f 21 25 26
f 22 27 23
f 23 27 28
f 24 29 26
f 24 26 25
f 26 29 34
f 26 34 30
f 27 31 28
f 28 31 33
f 28 33 32
f 30 34 38
f 30 38 35
f 32 33 37
f 32 37 36
f 35 38 36
f 35 36 37

