# https://github.com/mikedh/trimesh
v 0.07801756 0.00115368 -0.02817513
v 0.07800185 0.04099833 -0.02817513
v 0.08764836 0.00115368 -0.02817513
v 0.07879744 0.00115368 0.03854154
v 0.07867706 0.04099833 0.03854154
v 0.08764836 0.04099833 -0.02817513
v 0.09128346 0.00115368 0.02034056
v 0.07912458 0.00115368 0.03994525
v 0.07906438 0.04099833 0.03997899
v 0.09128085 0.04099833 0.02033381
v 0.09128346 0.04098663 0.02034056
v 0.09136983 0.00115368 0.02216268
v 0.08036114 0.00115368 0.04059986
v 0.07907485 0.04099833 0.03998574
v 0.09136983 0.04099833 0.02216268
v 0.09136983 0.00115368 0.03854154
v 0.08218131 0.00115368 0.04075508
v 0.08036114 0.04098663 0.04063360
v 0.08036114 0.04099833 0.04063360
v 0.09136983 0.04099833 0.03854154
v 0.09086866 0.00115368 0.04005322
v 0.08783810 0.00115368 0.04075508
v 0.08218131 0.04099833 0.04075508
v 0.09086866 0.04099833 0.04005322
v 0.08945806 0.00115368 0.04070784
v 0.08945806 0.04099833 0.04070784
v 0.08765097 0.04099833 0.04075508
f 1 2 6
f 1 6 3
f 1 3 7
f 1 7 12
f 1 12 16
f 1 16 21
f 1 21 25
f 1 25 22
f 1 22 17
f 1 17 13
f 1 13 8
f 1 8 4
f 1 4 5
f 1 5 2
f 2 5 9
f 2 9 14
f 2 14 19
f 2 19 23
f 2 23 27
f 2 27 26
f 2 26 24
f 2 24 20
f 2 20 15
f 2 15 10
f 2 10 6
f 3 6 11
f 3 11 7
f 4 8 5
f 5 8 9
f 6 10 11
f 7 11 15
f 7 15 12
f 8 13 14
f 8 14 9
f 10 15 11
f 12 15 20
f 12 20 16
f 13 17 18
f 13 18 14
f 14 18 19
f 16 20 24
f 16 24 21
f 17 22 27
f 17 27 23
f 17 23 19
f 17 19 18
f 21 24 26
f 21 26 25
f 22 25 26
f 22 26 27

