# https://github.com/mikedh/trimesh
v 0.00117615 -0.06003109 0.00657865
v 0.00127773 -0.06003109 0.00657865
v 0.00117615 -0.06003109 0.00678758
v 0.00015270 -0.05905894 0.03491567
v 0.00082475 -0.05916955 0.00589769
v 0.00079346 -0.05873644 0.00397090
v 0.00100540 -0.05841863 0.00214857
v 0.00120251 -0.05818805 0.00123934
v 0.00127773 -0.06003109 0.00678758
v 0.00120910 -0.05818805 0.00123934
v 0.00146881 -0.05841863 0.00214857
v 0.00174773 -0.05873644 0.00397090
v 0.00576195 -0.05296739 0.00124321
v 0.00576195 -0.05650547 0.01927305
v 0.00576195 -0.05667373 0.02034865
v 0.00576195 -0.05671735 0.02216324
v 0.00576195 -0.05678590 0.02580402
v 0.00015270 -0.05900441 0.03647490
v 0.00015270 -0.05686380 0.01868495
v 0.00015983 -0.05727510 0.00760782
v 0.00015270 -0.05297051 0.00123934
v 0.00576195 -0.05668931 0.03854098
v 0.00315444 -0.05829399 0.02720850
v 0.00575372 -0.05296739 0.00123934
v 0.00576195 -0.04419463 0.00123934
v 0.00576195 -0.05652729 0.03975200
v 0.00015270 -0.05893742 0.03674187
v 0.00015270 -0.04411518 0.00123934
v 0.00576195 -0.04411518 0.00123934
v 0.00576195 -0.05545542 0.04040587
v 0.00015270 -0.05669710 0.03981777
v 0.00015270 -0.05676721 0.03976361
v 0.00015270 -0.05781570 0.03842878
v 0.00015270 -0.04411518 0.03671865
v 0.00576195 -0.04411518 0.03671091
v 0.00015270 -0.05545542 0.04047551
v 0.00015270 -0.05556759 0.04042134
v 0.00576195 -0.05363575 0.04076182
v 0.00015270 -0.04411829 0.03854098
v 0.00575372 -0.04411518 0.03671865
v 0.00576195 -0.04411829 0.03853324
v 0.00015270 -0.05377752 0.04074248
v 0.00576195 -0.04635861 0.04076182
v 0.00015270 -0.05363575 0.04076182
v 0.00575372 -0.04411829 0.03854098
v 0.00015270 -0.04478509 0.04010408
v 0.00576195 -0.04478198 0.04009635
v 0.00015270 -0.04635861 0.04076182
v 0.00575372 -0.04478509 0.04010408
f 1 2 9
f 1 9 3
f 1 3 4
f 1 4 5
f 1 5 6
f 1 6 7
f 1 7 8
f 1 8 10
f 1 10 2
f 2 10 11
f 2 11 12
f 2 12 13
f 2 13 14
f 2 14 15
f 2 15 16
f 2 16 17
f 2 17 9
f 3 9 4
f 4 18 27
f 4 27 33
f 4 33 32
f 4 32 31
f 4 31 37
f 4 37 36
f 4 36 42
f 4 42 44
f 4 44 48
f 4 48 46
f 4 46 39
f 4 39 34
f 4 34 28
f 4 28 21
f 4 21 19
f 4 19 20
f 4 20 5
f 4 9 18
f 5 20 6
f 6 21 7
f 6 20 21
f 7 21 8
f 8 21 28
f 8 28 29
f 8 29 25
f 8 25 24
f 8 24 10
f 9 17 22
f 9 22 23
f 9 23 18
f 10 24 13
f 10 13 11
f 11 13 12
f 13 24 25
f 13 25 29
f 13 29 35
f 13 35 41
f 13 41 47
f 13 47 43
f 13 43 38
f 13 38 30
f 13 30 26
f 13 26 22
f 13 22 17
f 13 17 16
f 13 16 15
f 13 15 14
f 18 22 26
f 18 26 27
f 18 23 22
f 19 21 20
f 26 30 31
f 26 31 32
f 26 32 33
f 26 33 27
f 28 34 40
f 28 40 35
f 28 35 29
f 30 36 37
f 30 37 31
f 30 38 36
f 34 39 45
f 34 45 40
f 35 40 45
f 35 45 41
f 36 38 42
f 38 43 48
f 38 48 44
f 38 44 42
f 39 46 49
f 39 49 45
f 41 45 47
f 43 47 49
f 43 49 46
f 43 46 48
f 45 49 47

