# https://github.com/mikedh/trimesh
v 0.05079500 0.03329516 -0.10924083
v 0.05052997 0.03163523 -0.11974904
v 0.04975526 0.03511705 -0.11982957
v 0.04942907 0.03418586 0.08506047
v 0.04951062 0.03154413 0.08065186
v 0.04924558 0.02843681 0.03509613
v 0.04879707 0.02261690 -0.11976917
v 0.04682972 0.02244484 -0.12005100
v 0.03633039 0.03838632 -0.11984969
v 0.04484198 0.03640249 -0.11964839
v 0.04666662 0.03611908 -0.11022723
v 0.04917423 0.03556240 -0.09480713
v 0.04861358 0.03497534 0.06484927
v 0.04788984 0.03519802 0.07660558
v 0.03433246 0.03796121 0.08471825
v -0.01802145 0.05009697 0.08471825
v 0.02300746 0.03990455 0.08524165
v 0.03089725 0.03305225 0.08532217
v 0.03714588 0.01381113 0.08560400
v 0.04250767 0.00446892 0.08556374
v 0.04003064 -0.00956970 0.08538257
v 0.03405724 -0.03977247 0.08532217
v 0.03747207 -0.02416501 0.08516112
v 0.04655449 0.01939824 0.08449682
v 0.03439363 -0.04253566 -0.04574867
v 0.03553530 -0.03889190 -0.10145026
v 0.04745152 0.01638201 -0.11962826
v 0.03866471 -0.02372978 -0.11962826
v 0.03577994 -0.03659430 -0.11972891
v 0.03408782 -0.04378062 -0.11988995
v 0.04476043 0.00516731 -0.11986983
v -0.00487181 -0.03971174 -0.11993022
v -0.04289364 -0.03322381 -0.11995035
v -0.03733817 0.04394306 -0.11993022
v 0.02659558 0.04071428 -0.11984969
v -0.02647188 0.05291077 -0.11964839
v 0.04616714 0.03625066 -0.08186310
v 0.04774713 0.03584580 -0.07236142
v 0.04677875 0.03558264 0.05013374
v -0.03259819 0.05386220 0.06438627
v -0.03123225 0.05333588 0.07998754
v 0.04650352 0.03593690 -0.01911578
v -0.02588066 0.05168606 0.08443642
v -0.03732798 0.04631151 0.08445655
v -0.03088567 0.04611920 0.08457734
v -0.02274105 0.04413537 0.08473838
v -0.03088567 0.02179706 0.08493969
v 0.00008224 0.03661504 0.08510074
v 0.02224295 0.03098745 0.08540269
v 0.00015359 -0.04298101 0.08510074
v 0.02566797 -0.04235348 0.08526178
v -0.05334200 -0.02745452 0.08463773
v -0.02154841 -0.03805181 0.08491956
v 0.02529081 -0.04877055 0.08510074
v 0.03120305 -0.04776852 0.08473838
v 0.03275247 -0.04489399 0.07759199
v 0.03349660 -0.04427657 0.01411996
v 0.03387376 -0.04471180 -0.07584403
v 0.03474021 -0.04214092 -0.08798283
v 0.03429169 -0.04391220 -0.10785181
v 0.03550472 -0.03892226 -0.11499820
v 0.03224279 -0.04725232 -0.11276370
v 0.02963325 -0.04863897 -0.11974904
v -0.05005968 -0.03107804 -0.11461572
v -0.05166007 -0.02695856 -0.11982957
v -0.00497375 -0.04136156 -0.11958800
v -0.01688997 -0.03889190 -0.11634695
v -0.03986616 -0.03418537 -0.10563743
v -0.04858162 -0.03235336 -0.10072555
v -0.03524850 0.05161521 -0.11966852
v -0.01675746 0.05065366 -0.11974904
v -0.04179274 0.02499547 -0.11984969
v -0.04079378 0.03196924 -0.06581896
v -0.03575818 0.05219214 -0.05901479
v -0.03235354 0.05409500 -0.11695087
v -0.03180309 0.05406463 -0.10275875
v -0.03223122 0.05400390 -0.01941774
v -0.03290399 0.05392293 0.04508094
v -0.03575818 0.05273871 0.07644454
v -0.03266954 0.05406463 -0.00804391
v -0.03484076 0.05237433 0.08266492
v -0.04120152 0.03266763 0.08447668
v -0.04864278 -0.00265667 0.08463773
v -0.03770514 0.02588617 0.08467799
v -0.01125296 -0.04061257 0.08495982
v -0.03926475 -0.03440804 0.08471825
v -0.05273039 -0.02944847 0.07316324
v -0.04973349 -0.03269749 0.08393316
v -0.05062033 -0.01183693 0.08447668
v -0.05249594 -0.02253543 0.07106965
v -0.05275077 -0.02723184 -0.02211525
v -0.05204742 -0.02853753 -0.09023746
v 0.02911338 -0.04930700 0.06273555
v -0.04243493 -0.03469144 0.08139669
v 0.01296685 -0.04663490 0.08145708
v 0.03233453 -0.04620980 0.06422522
v 0.02994925 -0.04920578 0.05220721
v 0.03204912 -0.04736366 -0.05492826
v 0.03246705 -0.04656405 0.00628913
v 0.03274227 -0.04569360 0.04522186
v 0.03293595 -0.04561262 0.02905693
v 0.03335388 -0.04565311 -0.04393691
v 0.03315002 -0.04617943 -0.10020215
v 0.02985751 -0.04864909 -0.09180766
v -0.00785851 -0.04101743 -0.09462595
v -0.05008007 -0.03218129 -0.07978965
v -0.05035530 -0.03123999 -0.09921575
v -0.04969272 -0.01538960 -0.11705153
v -0.04695066 -0.00097648 -0.11942695
v -0.04430035 0.01271800 -0.11960812
v -0.05252652 -0.02676625 -0.04307129
v -0.03446360 0.05291077 -0.11087141
v -0.04353583 0.01858852 -0.08953289
v -0.04294461 0.02362906 -0.02636283
v -0.04378048 0.02205010 0.08411433
v -0.03870410 0.04066367 -0.04848644
v -0.03478979 0.05305247 -0.01959892
v -0.03437186 0.05309296 -0.07626678
v -0.03342386 0.05386220 0.00357149
v -0.03292438 0.05402415 -0.03326765
v -0.03311805 0.05393305 0.01995786
v -0.05184355 -0.03118938 0.06621816
v -0.05174161 -0.03019747 -0.03236177
v -0.05133387 -0.03126023 -0.01945801
v -0.05078342 -0.03238373 0.02076309
v -0.04882627 -0.03308212 0.06633894
v -0.05225129 -0.02168522 0.05254943
v -0.04600266 0.01134147 0.08230257
v -0.04708318 0.00322397 -0.01494873
v -0.05056936 -0.01459000 -0.00591006
v -0.05101787 -0.03093634 -0.06755019
v -0.04761324 -0.00318299 -0.09484739
v -0.05051839 -0.01517705 -0.03026818
v -0.04730743 0.00092637 -0.04470188
f 1 2 3
f 1 3 4
f 1 4 5
f 1 5 6
f 1 6 2
f 2 7 8
f 2 8 3
f 2 6 7
f 3 8 9
f 3 9 10
f 3 10 11
f 3 11 12
f 3 12 4
f 4 13 14
f 4 14 15
f 4 15 16
f 4 16 17
f 4 17 18
f 4 18 19
f 4 19 20
f 4 20 21
f 4 21 22
f 4 22 23
f 4 23 24
f 4 24 5
f 4 12 13
f 5 24 23
f 5 23 6
f 6 23 25
f 6 25 26
f 6 26 7
f 7 26 27
f 7 27 28
f 7 28 29
f 7 29 30
f 7 30 31
f 7 31 8
f 8 31 30
f 8 30 32
f 8 32 33
f 8 33 34
f 8 34 35
f 8 35 9
f 9 35 10
f 10 35 11
f 11 35 36
f 11 36 12
f 12 36 37
f 12 37 38
f 12 38 14
f 12 14 13
f 14 39 40
f 14 40 41
f 14 41 16
f 14 16 15
f 14 38 42
f 14 42 39
f 16 41 43
f 16 43 44
f 16 44 45
f 16 45 46
f 16 46 47
f 16 47 48
f 16 48 49
f 16 49 17
f 17 49 18
f 18 49 19
f 19 50 51
f 19 51 22
f 19 22 20
f 19 49 47
f 19 47 52
f 19 52 53
f 19 53 50
f 20 22 21
f 22 51 54
f 22 54 55
f 22 55 56
f 22 56 57
f 22 57 25
f 22 25 23
f 25 57 58
f 25 58 59
f 25 59 26
f 26 59 60
f 26 60 61
f 26 61 27
f 27 61 28
f 28 61 29
f 29 61 30
f 30 61 60
f 30 60 62
f 30 62 63
f 30 63 32
f 32 63 33
f 33 64 65
f 33 65 34
f 33 63 66
f 33 66 67
f 33 67 68
f 33 68 69
f 33 69 64
f 34 70 36
f 34 36 71
f 34 71 35
f 34 65 72
f 34 72 73
f 34 73 74
f 34 74 70
f 35 71 36
f 36 70 75
f 36 75 76
f 36 76 77
f 36 77 37
f 37 42 38
f 37 77 40
f 37 40 42
f 39 42 40
f 40 78 79
f 40 79 41
f 40 77 80
f 40 80 78
f 41 79 81
f 41 81 43
f 43 81 44
f 44 82 83
f 44 83 84
f 44 84 47
f 44 47 45
f 44 81 79
f 44 79 82
f 45 47 46
f 47 49 48
f 47 84 83
f 47 83 52
f 50 85 54
f 50 54 51
f 50 53 86
f 50 86 85
f 52 87 88
f 52 88 86
f 52 86 53
f 52 83 89
f 52 89 90
f 52 90 91
f 52 91 92
f 52 92 87
f 54 93 55
f 54 85 88
f 54 88 94
f 54 94 95
f 54 95 63
f 54 63 93
f 55 96 56
f 55 93 97
f 55 97 98
f 55 98 99
f 55 99 96
f 56 96 100
f 56 100 101
f 56 101 57
f 57 102 58
f 57 101 102
f 58 103 60
f 58 60 59
f 58 102 103
f 60 103 62
f 62 104 63
f 62 103 98
f 62 98 97
f 62 97 104
f 63 105 68
f 63 68 66
f 63 104 97
f 63 97 93
f 63 95 105
f 64 69 106
f 64 106 107
f 64 107 92
f 64 92 65
f 65 108 109
f 65 109 110
f 65 110 72
f 65 92 111
f 65 111 108
f 66 68 67
f 68 105 95
f 68 95 106
f 68 106 69
f 70 112 75
f 70 74 112
f 72 110 113
f 72 113 73
f 73 114 115
f 73 115 82
f 73 82 116
f 73 116 74
f 73 113 114
f 74 117 112
f 74 116 82
f 74 82 79
f 74 79 117
f 75 112 118
f 75 118 117
f 75 117 119
f 75 119 120
f 75 120 80
f 75 80 76
f 76 80 77
f 78 80 121
f 78 121 79
f 79 121 119
f 79 119 117
f 80 120 121
f 82 115 83
f 83 115 89
f 85 86 88
f 87 122 88
f 87 92 123
f 87 123 124
f 87 124 122
f 88 122 125
f 88 125 126
f 88 126 94
f 89 127 90
f 89 115 128
f 89 128 129
f 89 129 130
f 89 130 127
f 90 127 91
f 91 127 111
f 91 111 92
f 92 107 131
f 92 131 124
f 92 124 123
f 94 126 106
f 94 106 95
f 96 101 100
f 96 99 101
f 98 103 99
f 99 103 102
f 99 102 101
f 106 124 131
f 106 131 107
f 106 126 125
f 106 125 124
f 108 132 109
f 108 111 133
f 108 133 132
f 109 132 113
f 109 113 110
f 111 127 133
f 112 117 118
f 113 132 133
f 113 133 134
f 113 134 129
f 113 129 114
f 114 129 128
f 114 128 115
f 119 121 120
f 122 124 125
f 127 130 133
f 129 134 133
f 129 133 130

