# https://github.com/mikedh/trimesh
v -0.02624967 -0.01056491 0.02418919
v -0.02624967 -0.00987310 0.02562190
v -0.02624967 -0.00860915 0.02418919
v -0.02560786 -0.01185877 0.02418919
v -0.02531356 -0.01156335 0.02605691
v -0.02624967 -0.00956771 0.02623386
v -0.01468690 -0.01001894 0.02418919
v -0.02624967 -0.00071007 0.02618068
v -0.01543851 -0.00071007 0.02615154
v -0.01534569 -0.00071007 0.02615334
v -0.02259917 -0.01293201 0.02418919
v -0.02288555 -0.01231499 0.02600103
v -0.02248144 -0.01240474 0.02608004
v -0.02290253 -0.01072820 0.02679144
v -0.02447819 -0.00993168 0.02678903
v -0.02533620 -0.00920248 0.02682208
v -0.02611158 -0.00840597 0.02681637
v -0.02624967 -0.00854308 0.02669470
v -0.02624967 -0.00932838 0.02636123
v -0.01468690 -0.01200711 0.02418919
v -0.01468690 -0.00071007 0.02618398
v -0.02624967 -0.00071007 0.02690109
v -0.02004777 -0.01343310 0.02418919
v -0.01974781 -0.01312522 0.02603347
v -0.02248144 -0.01076185 0.02681217
v -0.02320928 -0.01029317 0.02683560
v -0.02406729 -0.00999775 0.02681727
v -0.02478947 -0.00949042 0.02683380
v -0.02562145 -0.00869515 0.02685032
v -0.02624967 -0.00815791 0.02682779
v -0.01468690 -0.01146239 0.02559396
v -0.01643801 -0.01242718 0.02609055
v -0.01615276 -0.01269393 0.02418919
v -0.01468690 -0.00071007 0.02691311
v -0.02624967 -0.00140063 0.02690199
v -0.02089560 -0.00071007 0.02720812
v -0.01934710 -0.01344183 0.02418919
v -0.01964254 -0.01312522 0.02603347
v -0.01930974 -0.01084911 0.02684251
v -0.02010324 -0.01084412 0.02684251
v -0.02089560 -0.01081670 0.02684251
v -0.02168795 -0.01079925 0.02683560
v -0.02248144 -0.01031810 0.02687165
v -0.02406729 -0.00952532 0.02687676
v -0.02485965 -0.00873130 0.02690139
v -0.02565314 -0.00793853 0.02689719
v -0.02624967 -0.00789615 0.02685182
v -0.01468690 -0.01111960 0.02619240
v -0.01693154 -0.01296193 0.02418919
v -0.01490423 -0.00995661 0.02680405
v -0.01787218 -0.01076435 0.02681878
v -0.01604410 -0.00071007 0.02708855
v -0.01613805 -0.00080356 0.02710838
v -0.01468690 -0.00080356 0.02691311
v -0.02624967 -0.00635423 0.02690199
v -0.02010324 -0.00318188 0.02722224
v -0.02080164 -0.00071007 0.02721203
v -0.01851739 -0.01081171 0.02683951
v -0.01851739 -0.01031810 0.02689899
v -0.01930974 -0.01031810 0.02690199
v -0.02089560 -0.01031810 0.02690199
v -0.02168795 -0.01031810 0.02689508
v -0.02327380 -0.00952532 0.02690199
v -0.01851739 -0.00476868 0.02725799
v -0.02010324 -0.00397466 0.02721443
v -0.02624967 -0.00714575 0.02689208
v -0.01468690 -0.01017600 0.02661990
v -0.01468690 -0.00986063 0.02674788
v -0.01468690 -0.00961507 0.02682959
v -0.01534569 -0.00952532 0.02688817
v -0.01534569 -0.00999525 0.02682869
v -0.01693154 -0.00071007 0.02720121
v -0.01693154 -0.00080356 0.02720812
v -0.01693154 -0.00159633 0.02721022
v -0.01468690 -0.00807440 0.02690199
v -0.02010324 -0.00238911 0.02722675
v -0.02010324 -0.00071007 0.02723546
v -0.01772390 -0.00397466 0.02722464
v -0.01772390 -0.00080356 0.02722795
v -0.01851739 -0.00071007 0.02723816
v -0.01930974 -0.00071007 0.02724267
v -0.01468690 -0.00886717 0.02689538
v -0.01468690 -0.00948918 0.02684461
v -0.01772390 -0.00071007 0.02722705
v -0.01468690 -0.00873130 0.02689779
f 1 2 6
f 1 6 19
f 1 19 18
f 1 18 30
f 1 30 47
f 1 47 66
f 1 66 55
f 1 55 35
f 1 35 22
f 1 22 8
f 1 8 3
f 1 3 7
f 1 7 20
f 1 20 33
f 1 33 49
f 1 49 37
f 1 37 23
f 1 23 11
f 1 11 4
f 1 4 5
f 1 5 2
f 2 5 6
f 3 8 9
f 3 9 10
f 3 10 7
f 4 11 5
f 5 11 12
f 5 12 13
f 5 13 14
f 5 14 15
f 5 15 16
f 5 16 17
f 5 17 18
f 5 18 19
f 5 19 6
f 7 10 21
f 7 21 34
f 7 34 54
f 7 54 75
f 7 75 85
f 7 85 82
f 7 82 83
f 7 83 69
f 7 69 68
f 7 68 67
f 7 67 48
f 7 48 31
f 7 31 20
f 8 22 36
f 8 36 57
f 8 57 77
f 8 77 81
f 8 81 80
f 8 80 84
f 8 84 72
f 8 72 52
f 8 52 34
f 8 34 21
f 8 21 10
f 8 10 9
f 11 23 24
f 11 24 13
f 11 13 12
f 13 24 14
f 14 25 26
f 14 26 27
f 14 27 15
f 14 24 25
f 15 27 28
f 15 28 16
f 16 28 29
f 16 29 17
f 17 29 30
f 17 30 18
f 20 31 32
f 20 32 33
f 22 35 36
f 23 37 24
f 24 37 38
f 24 38 39
f 24 39 40
f 24 40 41
f 24 41 42
f 24 42 25
f 25 43 26
f 25 42 43
f 26 43 44
f 26 44 27
f 27 44 28
f 28 44 45
f 28 45 29
f 29 45 46
f 29 46 47
f 29 47 30
f 31 48 32
f 32 38 49
f 32 49 33
f 32 48 50
f 32 50 51
f 32 51 38
f 34 52 53
f 34 53 54
f 35 55 36
f 36 56 57
f 36 55 56
f 37 49 38
f 38 51 58
f 38 58 39
f 39 58 59
f 39 59 60
f 39 60 61
f 39 61 40
f 40 61 41
f 41 61 62
f 41 62 42
f 42 62 43
f 43 62 63
f 43 63 44
f 44 63 45
f 45 63 64
f 45 64 46
f 46 64 65
f 46 65 66
f 46 66 47
f 48 67 50
f 50 67 68
f 50 68 69
f 50 69 70
f 50 70 71
f 50 71 51
f 51 71 58
f 52 72 53
f 53 72 73
f 53 73 74
f 53 74 75
f 53 75 54
f 55 66 65
f 55 65 56
f 56 76 57
f 56 65 64
f 56 64 76
f 57 76 77
f 58 71 70
f 58 70 59
f 59 70 64
f 59 64 60
f 60 64 61
f 61 64 62
f 62 64 63
f 64 78 74
f 64 74 79
f 64 79 80
f 64 80 81
f 64 81 77
f 64 77 76
f 64 70 82
f 64 82 78
f 69 83 70
f 70 83 82
f 72 84 73
f 73 84 79
f 73 79 74
f 74 78 82
f 74 82 85
f 74 85 75
f 79 84 80

