# https://github.com/mikedh/trimesh
v 0.00192352 0.01665714 -0.01804753
v -0.00421667 0.01665714 -0.01804753
v 0.00192352 0.01580769 -0.01804753
v 0.00192352 0.01665714 -0.02040053
v -0.00424250 0.01665675 -0.01804753
v -0.00344953 0.01665714 -0.01960760
v -0.00423718 0.01370580 -0.01804753
v 0.00192352 0.01370658 -0.02139901
v 0.00192352 0.01665598 -0.02101544
v -0.00265656 0.01665714 -0.02040053
v -0.00486077 0.01645837 -0.01804753
v -0.00424250 0.01665054 -0.01881381
v -0.00344953 0.01662570 -0.02040053
v -0.00503547 0.01354624 -0.01804753
v 0.00192352 0.01354507 -0.02198640
v 0.00192352 0.01665559 -0.02119347
v -0.00107138 0.01665559 -0.02119347
v -0.00186435 0.01664860 -0.02119347
v -0.00488052 0.01645138 -0.01804753
v -0.00485470 0.01644517 -0.01881381
v -0.00424250 0.01659930 -0.01960760
v -0.00422503 0.01642692 -0.02036785
v -0.00265656 0.01657600 -0.02119347
v -0.00583603 0.01432503 -0.02674314
v -0.00582844 0.01354507 -0.01804753
v 0.00192352 0.01269135 -0.02683258
v 0.00192352 0.01645060 -0.02179548
v -0.00107138 0.01645060 -0.02179548
v -0.00186435 0.01644362 -0.02178516
v -0.00583603 0.01432154 -0.01880693
v -0.00583603 0.01432115 -0.01804753
v -0.00583603 0.01432503 -0.02673626
v -0.00477266 0.01639392 -0.01960760
v -0.00583603 0.01429436 -0.02683172
v -0.00583603 0.01354507 -0.01804753
v -0.00583603 0.01269135 -0.02683258
v 0.00192352 0.01429436 -0.02683258
v -0.00582844 0.01429436 -0.02683258
v -0.00583603 0.01270805 -0.02683258
f 1 2 5
f 1 5 11
f 1 11 19
f 1 19 31
f 1 31 35
f 1 35 25
f 1 25 14
f 1 14 7
f 1 7 3
f 1 3 8
f 1 8 15
f 1 15 26
f 1 26 37
f 1 37 27
f 1 27 16
f 1 16 9
f 1 9 4
f 1 4 10
f 1 10 6
f 1 6 2
f 2 6 5
f 3 7 8
f 4 9 10
f 5 6 12
f 5 12 11
f 6 10 13
f 6 13 12
f 7 14 8
f 8 14 15
f 9 16 17
f 9 17 10
f 10 17 18
f 10 18 13
f 11 12 20
f 11 20 19
f 12 13 21
f 12 21 20
f 13 22 21
f 13 18 23
f 13 23 24
f 13 24 22
f 14 25 26
f 14 26 15
f 16 27 28
f 16 28 17
f 17 28 18
f 18 28 29
f 18 29 23
f 19 30 31
f 19 20 24
f 19 24 32
f 19 32 30
f 20 21 33
f 20 33 24
f 21 22 24
f 21 24 33
f 23 29 34
f 23 34 24
f 24 34 39
f 24 39 36
f 24 36 35
f 24 35 31
f 24 31 30
f 24 30 32
f 25 35 36
f 25 36 26
f 26 36 39
f 26 39 38
f 26 38 37
f 27 37 38
f 27 38 28
f 28 38 29
f 29 38 34
f 34 38 39

