# https://github.com/mikedh/trimesh
v 0.02530220 -0.01220623 0.02397914
v 0.00192581 -0.01220623 0.02397914
v 0.02530220 -0.01269746 0.02397914
v 0.02530220 -0.01220623 0.02308274
v 0.00192581 -0.01269746 0.02397914
v 0.00192581 -0.01220623 0.02308274
v 0.02530220 -0.01349036 0.02390220
v 0.02530220 -0.01336904 -0.00771029
v 0.02509622 -0.01326729 -0.00771029
v 0.00971413 -0.01328034 -0.01532391
v 0.00192581 -0.01349036 0.02390220
v 0.00192581 -0.01338417 -0.01532391
v 0.00192581 -0.01359923 0.02386373
v 0.02530220 -0.01397655 0.02372138
v 0.02530220 -0.01435594 -0.01532391
v 0.00192581 -0.01407414 -0.01532391
v 0.00192581 -0.01397655 0.02372138
v 0.02530220 -0.01407028 0.02321355
v 0.02530220 -0.01515715 -0.01532391
v 0.01161829 -0.01520106 -0.01532391
v 0.01082413 -0.01521411 -0.01484686
v 0.01003225 -0.01522805 -0.01405433
v 0.00844621 -0.01523191 -0.01246929
v 0.00765204 -0.01520046 -0.01167676
v 0.00686017 -0.01521233 -0.01008787
v 0.00606600 -0.01520640 -0.00850282
v 0.00527412 -0.01516754 -0.00691777
v 0.00527412 -0.01521203 -0.00612524
v 0.00527412 -0.01521767 -0.00533272
v 0.00192581 -0.01407414 0.02242102
v 0.00192581 -0.01407028 0.02321355
v 0.01637413 -0.01520847 0.01052546
v 0.01716601 -0.01520610 0.01052546
v 0.02192414 -0.01519008 0.01052546
v 0.02430434 -0.01521500 0.00973294
v 0.02509622 -0.01515537 0.00973294
v 0.02530220 -0.01519898 0.00894041
v 0.01241017 -0.01520491 -0.01532391
v 0.02530220 -0.01522835 -0.00829507
v 0.01399392 -0.01523665 0.00180769
v 0.00527412 -0.01521767 -0.00136625
v 0.00192581 -0.01407117 0.02303658
v 0.01161829 -0.01522152 0.00814789
v 0.01241017 -0.01520224 0.00894041
v 0.00606600 -0.01521263 0.00101132
v 0.00765204 -0.01520462 0.00418527
v 0.02509622 -0.01523250 0.00180769
v 0.02530220 -0.01523042 0.00180769
f 1 2 5
f 1 5 3
f 1 3 7
f 1 7 14
f 1 14 18
f 1 18 37
f 1 37 48
f 1 48 39
f 1 39 19
f 1 19 15
f 1 15 8
f 1 8 4
f 1 4 6
f 1 6 2
f 2 6 12
f 2 12 16
f 2 16 30
f 2 30 42
f 2 42 31
f 2 31 17
f 2 17 13
f 2 13 11
f 2 11 5
f 3 5 11
f 3 11 7
f 4 8 9
f 4 9 10
f 4 10 6
f 6 10 12
f 7 11 13
f 7 13 14
f 8 15 9
f 9 15 10
f 10 15 19
f 10 19 38
f 10 38 20
f 10 20 16
f 10 16 12
f 13 17 14
f 14 17 31
f 14 31 18
f 16 20 21
f 16 21 22
f 16 22 23
f 16 23 24
f 16 24 25
f 16 25 26
f 16 26 27
f 16 27 28
f 16 28 29
f 16 29 41
f 16 41 30
f 18 31 32
f 18 32 33
f 18 33 34
f 18 34 35
f 18 35 36
f 18 36 37
f 19 22 38
f 19 39 22
f 20 38 21
f 21 38 22
f 22 39 23
f 23 28 25
f 23 25 24
f 23 39 40
f 23 40 41
f 23 41 29
f 23 29 28
f 25 28 26
f 26 28 27
f 30 41 42
f 31 43 44
f 31 44 32
f 31 42 41
f 31 41 45
f 31 45 46
f 31 46 43
f 32 44 43
f 32 43 35
f 32 35 33
f 33 35 34
f 35 37 36
f 35 43 40
f 35 40 47
f 35 47 48
f 35 48 37
f 39 48 47
f 39 47 40
f 40 43 41
f 41 43 45
f 43 46 45

