# https://github.com/mikedh/trimesh
v -0.03756484 -0.00318237 0.02243578
v -0.03752165 -0.00396083 0.02243578
v -0.03746959 -0.00476793 0.02321494
v -0.03751168 -0.00397599 0.02321494
v -0.03755155 -0.00318237 0.02321494
v -0.03756484 -0.00237526 0.02243578
v -0.03747623 -0.00476793 0.02243578
v -0.03741975 -0.00556155 0.02321494
v -0.03728352 -0.00556155 0.02375711
v -0.03734443 -0.00318237 0.02379340
v -0.03755155 -0.00238874 0.02321494
v -0.03730678 -0.00476793 0.02377504
v -0.03732782 -0.00397599 0.02378640
v -0.03751279 -0.00159681 0.02321494
v -0.03747070 -0.00080318 0.02321494
v -0.03752165 -0.00159681 0.02243578
v -0.03742529 -0.00554807 0.02243578
v -0.03742418 -0.00556155 0.02243578
v -0.03732450 -0.00635349 0.02321494
v -0.03718605 -0.00695334 0.02365655
v -0.03723589 -0.00635349 0.02371251
v -0.03675520 -0.00556155 0.02394119
v -0.03652149 -0.00952461 0.02376760
v -0.03660235 -0.00873268 0.02379559
v -0.03675520 -0.00635349 0.02389659
v -0.03084952 -0.00204332 0.02604254
v -0.03734443 -0.00238874 0.02379340
v -0.03732782 -0.00159681 0.02378684
v -0.03730788 -0.00080318 0.02377504
v -0.03730456 -0.00070882 0.02377329
v -0.03744855 -0.00070882 0.02327921
v -0.03746405 -0.00070882 0.02321494
v -0.03747070 -0.00070882 0.02243578
v -0.03747623 -0.00078970 0.02243578
v -0.03733003 -0.00634001 0.02243578
v -0.03732782 -0.00635349 0.02243578
v -0.03720820 -0.00705781 0.02243578
v -0.03720377 -0.00706118 0.02321494
v -0.03685931 -0.00873268 0.02321494
v -0.03669539 -0.00952461 0.02321494
v -0.03635868 -0.01071421 0.02361151
v -0.03641516 -0.01031824 0.02367578
v -0.03571960 -0.01190380 0.02373481
v -0.03598210 -0.01103098 0.02375886
v -0.03596216 -0.01031824 0.02385942
v -0.03596216 -0.00952461 0.02395168
v -0.02768735 -0.00635349 0.02681164
v -0.02827105 -0.00318237 0.02674867
v -0.02837738 -0.00080318 0.02677622
v -0.02837849 -0.00070882 0.02677622
v -0.03084952 -0.00190516 0.02604254
v -0.02775048 -0.00556155 0.02683044
v -0.03724253 -0.00070882 0.02379471
v -0.03675298 -0.00070882 0.02243578
v -0.03720488 -0.00707635 0.02243578
v -0.03670868 -0.00951113 0.02243578
v -0.03670535 -0.00952461 0.02243578
v -0.03647498 -0.01031824 0.02321494
v -0.03635979 -0.01071926 0.02321494
v -0.03621691 -0.01111523 0.02321494
v -0.03588131 -0.01190380 0.02321494
v -0.03560441 -0.01235032 0.02365349
v -0.03514365 -0.01264687 0.02375842
v -0.03516913 -0.01190380 0.02391889
v -0.02764748 -0.00676294 0.02678934
v -0.02723988 -0.00635349 0.02687110
v -0.02781583 -0.00476793 0.02682869
v -0.02723988 -0.00556155 0.02688990
v -0.02798197 -0.00070882 0.02681207
v -0.02723988 -0.00476793 0.02688815
v -0.03667877 -0.00071051 0.02243578
v -0.02961899 -0.00070882 0.02317034
v -0.03647940 -0.01031824 0.02243578
v -0.03636311 -0.01071758 0.02243578
v -0.03635868 -0.01073106 0.02243578
v -0.03621912 -0.01112029 0.02243578
v -0.03588463 -0.01190380 0.02243578
v -0.03562656 -0.01237728 0.02321494
v -0.03589127 -0.01189032 0.02243578
v -0.03530536 -0.01277493 0.02321494
v -0.03490884 -0.01324167 0.02321494
v -0.03486122 -0.01319112 0.02369196
v -0.03436059 -0.01346914 0.02378684
v -0.03437609 -0.01269574 0.02394774
v -0.02688213 -0.00758689 0.02680508
v -0.02718451 -0.00707466 0.02682388
v -0.02640476 -0.00788682 0.02684006
v -0.02644685 -0.00714711 0.02688903
v -0.02644685 -0.00635349 0.02690171
v -0.02644685 -0.00159681 0.02690171
v -0.02644685 -0.00070882 0.02690039
v -0.02723988 -0.00238874 0.02687853
v -0.02723988 -0.00159681 0.02687503
v -0.02723988 -0.00070882 0.02686979
v -0.02723988 -0.00397599 0.02688509
v -0.02961899 -0.00080318 0.02316247
v -0.02625081 -0.01684752 0.02243578
v -0.02899652 -0.00070882 0.02338196
v -0.02625081 -0.00952461 0.02322587
v -0.03562767 -0.01238065 0.02243578
v -0.03530757 -0.01277662 0.02243578
v -0.03491106 -0.01324504 0.02243578
v -0.03453780 -0.01363932 0.02321494
v -0.03408479 -0.01398811 0.02370027
v -0.03354983 -0.01426445 0.02377679
v -0.03358306 -0.01348936 0.02395386
v -0.02625081 -0.00815978 0.02682781
v -0.02625081 -0.00789861 0.02685186
v -0.02625081 -0.00714711 0.02689209
v -0.02625081 -0.00635349 0.02690171
v -0.02625081 -0.00139966 0.02690171
v -0.02635381 -0.00070882 0.02690083
v -0.02714685 -0.00070882 0.02687372
v -0.02625081 -0.01792253 0.02243578
v -0.02892675 -0.00070882 0.02340994
v -0.02625081 -0.00896857 0.02336709
v -0.03454001 -0.01364101 0.02243578
v -0.03415014 -0.01403698 0.02243578
v -0.03414350 -0.01404372 0.02243578
v -0.03414128 -0.01404035 0.02321494
v -0.03326296 -0.01474298 0.02367535
v -0.03279002 -0.01492159 0.02375142
v -0.03279002 -0.01428298 0.02393506
v -0.03207341 -0.01515075 0.02383231
v -0.03118512 -0.01588539 0.02379602
v -0.03041202 -0.01586855 0.02393419
v -0.02882596 -0.01666217 0.02390927
v -0.02803292 -0.01727381 0.02378815
v -0.02625081 -0.01750297 0.02381439
v -0.02625081 -0.00070882 0.02690083
v -0.02625081 -0.01791916 0.02321494
v -0.02639036 -0.01790231 0.02243578
v -0.02625081 -0.00070882 0.02618070
v -0.03370378 -0.01443969 0.02243578
v -0.03370046 -0.01443800 0.02321494
v -0.03330394 -0.01477837 0.02321494
v -0.03279002 -0.01516760 0.02321494
v -0.03238796 -0.01546584 0.02321494
v -0.03090712 -0.01632012 0.02367403
v -0.03186075 -0.01563096 0.02373394
v -0.03041202 -0.01642964 0.02375011
v -0.02882596 -0.01716766 0.02372519
v -0.02626078 -0.01788378 0.02365523
v -0.02625081 -0.01787704 0.02365873
v -0.02637486 -0.01790062 0.02321494
v -0.02625081 -0.01788378 0.02365567
v -0.02677138 -0.01782817 0.02321494
v -0.02678024 -0.01781301 0.02243578
v -0.03330727 -0.01478005 0.02243578
v -0.03329841 -0.01478679 0.02243578
v -0.03278337 -0.01517771 0.02243578
v -0.03239129 -0.01546752 0.02243578
v -0.03200142 -0.01572195 0.02243578
v -0.03199145 -0.01571858 0.02321494
v -0.03135680 -0.01611455 0.02321494
v -0.03096028 -0.01635045 0.02321494
v -0.02929447 -0.01708847 0.02365042
v -0.02803292 -0.01749792 0.02321494
v -0.02882596 -0.01728729 0.02243578
v -0.02803292 -0.01749286 0.02243578
v -0.03136012 -0.01612129 0.02243578
v -0.03096360 -0.01635213 0.02243578
v -0.02934541 -0.01710195 0.02243578
v -0.02933434 -0.01710363 0.02321494
v -0.02882596 -0.01728224 0.02321494
v -0.02932991 -0.01710869 0.02243578
f 1 2 3
f 1 3 4
f 1 4 5
f 1 5 11
f 1 11 6
f 1 6 16
f 1 16 34
f 1 34 33
f 1 33 54
f 1 54 71
f 1 71 97
f 1 97 114
f 1 114 132
f 1 132 148
f 1 148 160
f 1 160 159
f 1 159 166
f 1 166 163
f 1 163 162
f 1 162 161
f 1 161 153
f 1 153 152
f 1 152 151
f 1 151 150
f 1 150 149
f 1 149 134
f 1 134 119
f 1 119 118
f 1 118 117
f 1 117 102
f 1 102 101
f 1 101 100
f 1 100 77
f 1 77 79
f 1 79 76
f 1 76 75
f 1 75 74
f 1 74 73
f 1 73 57
f 1 57 56
f 1 56 55
f 1 55 37
f 1 37 36
f 1 36 35
f 1 35 18
f 1 18 17
f 1 17 7
f 1 7 2
f 2 7 3
f 3 7 8
f 3 8 9
f 3 9 4
f 4 9 5
f 5 10 27
f 5 27 11
f 5 9 12
f 5 12 13
f 5 13 10
f 6 11 14
f 6 14 15
f 6 15 16
f 7 17 8
f 8 17 18
f 8 18 19
f 8 19 20
f 8 20 21
f 8 21 9
f 9 22 12
f 9 21 23
f 9 23 24
f 9 24 25
f 9 25 22
f 10 13 26
f 10 26 51
f 10 51 27
f 11 27 28
f 11 28 29
f 11 29 30
f 11 30 14
f 12 22 26
f 12 26 13
f 14 30 31
f 14 31 15
f 15 31 32
f 15 32 33
f 15 33 34
f 15 34 16
f 18 35 19
f 19 36 37
f 19 37 38
f 19 38 20
f 19 35 36
f 20 38 39
f 20 39 40
f 20 40 41
f 20 41 42
f 20 42 23
f 20 23 21
f 22 25 26
f 23 42 43
f 23 43 44
f 23 44 45
f 23 45 46
f 23 46 24
f 24 46 25
f 25 47 26
f 25 46 47
f 26 48 49
f 26 49 50
f 26 50 51
f 26 47 52
f 26 52 48
f 27 51 28
f 28 51 29
f 29 51 30
f 30 53 50
f 30 50 69
f 30 69 94
f 30 94 113
f 30 113 91
f 30 91 112
f 30 112 130
f 30 130 133
f 30 133 115
f 30 115 98
f 30 98 72
f 30 72 54
f 30 54 33
f 30 33 32
f 30 32 31
f 30 51 53
f 37 55 38
f 38 55 56
f 38 56 39
f 39 56 40
f 40 57 58
f 40 58 41
f 40 56 57
f 41 58 59
f 41 59 60
f 41 60 61
f 41 61 62
f 41 62 43
f 41 43 42
f 43 62 63
f 43 63 64
f 43 64 45
f 43 45 44
f 45 64 46
f 46 64 65
f 46 65 47
f 47 65 66
f 47 66 52
f 48 52 49
f 49 52 67
f 49 67 68
f 49 68 50
f 50 53 51
f 50 68 70
f 50 70 69
f 52 66 68
f 52 68 67
f 54 72 71
f 57 73 58
f 58 73 59
f 59 73 74
f 59 74 75
f 59 75 76
f 59 76 60
f 60 76 61
f 61 77 78
f 61 78 62
f 61 76 79
f 61 79 77
f 62 78 80
f 62 80 81
f 62 81 82
f 62 82 63
f 63 82 83
f 63 83 64
f 64 83 84
f 64 84 85
f 64 85 65
f 65 86 66
f 65 85 86
f 66 86 87
f 66 87 88
f 66 88 68
f 68 88 89
f 68 89 90
f 68 90 91
f 68 91 70
f 69 92 93
f 69 93 94
f 69 70 95
f 69 95 92
f 70 91 95
f 71 72 96
f 71 96 97
f 72 98 99
f 72 99 97
f 72 97 96
f 77 100 78
f 78 100 80
f 80 101 102
f 80 102 81
f 80 100 101
f 81 102 103
f 81 103 82
f 82 103 104
f 82 104 83
f 83 104 105
f 83 105 106
f 83 106 107
f 83 107 85
f 83 85 84
f 85 107 87
f 85 87 86
f 87 108 88
f 87 107 108
f 88 109 89
f 88 108 109
f 89 109 110
f 89 110 111
f 89 111 90
f 90 111 112
f 90 112 91
f 91 113 93
f 91 93 92
f 91 92 95
f 93 113 94
f 97 99 116
f 97 116 133
f 97 133 130
f 97 130 111
f 97 111 110
f 97 110 109
f 97 109 108
f 97 108 107
f 97 107 129
f 97 129 144
f 97 144 146
f 97 146 131
f 97 131 114
f 98 115 99
f 99 115 116
f 102 117 103
f 103 117 118
f 103 118 119
f 103 119 120
f 103 120 104
f 104 120 121
f 104 121 105
f 105 121 122
f 105 122 123
f 105 123 107
f 105 107 106
f 107 123 124
f 107 124 125
f 107 125 126
f 107 126 127
f 107 127 128
f 107 128 129
f 111 130 112
f 114 131 132
f 115 133 116
f 119 134 135
f 119 135 120
f 120 135 121
f 121 135 136
f 121 136 137
f 121 137 138
f 121 138 139
f 121 139 140
f 121 140 122
f 122 140 124
f 122 124 123
f 124 140 125
f 125 140 139
f 125 139 141
f 125 141 126
f 126 141 127
f 127 141 142
f 127 142 128
f 128 142 143
f 128 143 144
f 128 144 129
f 131 145 132
f 131 146 143
f 131 143 145
f 132 145 147
f 132 147 148
f 134 149 136
f 134 136 135
f 136 149 150
f 136 150 151
f 136 151 137
f 137 151 138
f 138 151 152
f 138 152 153
f 138 153 154
f 138 154 139
f 139 154 155
f 139 155 156
f 139 156 157
f 139 157 141
f 141 157 142
f 142 157 143
f 143 158 147
f 143 147 145
f 143 146 144
f 143 157 158
f 147 158 159
f 147 159 160
f 147 160 148
f 153 161 155
f 153 155 154
f 155 161 156
f 156 161 162
f 156 162 163
f 156 163 164
f 156 164 157
f 157 164 165
f 157 165 158
f 158 165 159
f 159 165 164
f 159 164 166
f 163 166 164

