# https://github.com/mikedh/trimesh
v 0.00192649 0.01534067 -0.02203747
v 0.00192649 0.01534067 -0.02104614
v 0.00192649 0.01585033 -0.02200397
v 0.02826843 0.01534067 -0.02203747
v 0.00527554 0.01534698 -0.00190343
v 0.00491100 0.01538306 -0.00190343
v 0.00473910 0.01540033 -0.00190343
v 0.00192649 0.01580793 -0.00190343
v 0.03220135 0.01534067 -0.01927436
v 0.00192649 0.01645057 -0.02179506
v 0.02905975 0.01585033 -0.02200397
v 0.02905975 0.01534067 -0.02203550
v 0.02905975 0.01534698 -0.00190343
v 0.00192649 0.01665714 -0.00190343
v 0.03220135 0.01534067 -0.02091015
v 0.03220135 0.01580664 -0.00190343
v 0.03033714 0.01540806 -0.00190343
v 0.02985404 0.01535459 -0.00190343
v 0.02931760 0.01534943 -0.00190343
v 0.00192649 0.01665573 -0.02119198
v 0.02826843 0.01645057 -0.02179506
v 0.02905975 0.01645045 -0.02179309
v 0.02985404 0.01643382 -0.02176944
v 0.02985404 0.01585033 -0.02195469
v 0.02956952 0.01534067 -0.02201776
v 0.00192649 0.01665714 -0.02039971
v 0.03220135 0.01665714 -0.00190343
v 0.03220135 0.01585033 -0.02090621
v 0.03208279 0.01534067 -0.02101658
v 0.00192649 0.01665611 -0.02101461
v 0.02826843 0.01665573 -0.02119198
v 0.02905975 0.01665560 -0.02119198
v 0.02985404 0.01663897 -0.02119198
v 0.03064833 0.01654928 -0.02119198
v 0.03064833 0.01634413 -0.02167484
v 0.02985404 0.01534067 -0.02200002
v 0.03107215 0.01626282 -0.02159994
v 0.03036381 0.01534067 -0.02191922
v 0.03064833 0.01665714 -0.02039971
v 0.03220135 0.01665714 -0.01881318
v 0.03220135 0.01614968 -0.02082147
v 0.03207983 0.01585033 -0.02101264
v 0.03199981 0.01636643 -0.02093971
v 0.03153154 0.01534067 -0.02141271
v 0.03143966 0.01664426 -0.02039971
v 0.03137742 0.01641024 -0.02119987
v 0.03113439 0.01534067 -0.02166301
v 0.03064833 0.01534067 -0.02185221
v 0.03148115 0.01585033 -0.02140877
v 0.03143966 0.01665714 -0.01960546
v 0.03220135 0.01665366 -0.01960546
v 0.03220135 0.01645676 -0.02052781
v 0.03220135 0.01649026 -0.02042139
f 1 2 8
f 1 8 14
f 1 14 26
f 1 26 30
f 1 30 20
f 1 20 10
f 1 10 3
f 1 3 11
f 1 11 4
f 1 4 12
f 1 12 25
f 1 25 36
f 1 36 38
f 1 38 48
f 1 48 47
f 1 47 44
f 1 44 29
f 1 29 15
f 1 15 9
f 1 9 2
f 2 5 6
f 2 6 7
f 2 7 8
f 2 9 5
f 3 10 21
f 3 21 11
f 4 11 12
f 5 9 13
f 5 13 19
f 5 19 18
f 5 18 17
f 5 17 16
f 5 16 27
f 5 27 14
f 5 14 8
f 5 8 7
f 5 7 6
f 9 15 28
f 9 28 41
f 9 41 52
f 9 52 53
f 9 53 51
f 9 51 40
f 9 40 27
f 9 27 16
f 9 16 17
f 9 17 18
f 9 18 19
f 9 19 13
f 10 20 31
f 10 31 21
f 11 21 22
f 11 22 23
f 11 23 24
f 11 24 25
f 11 25 12
f 14 27 40
f 14 40 50
f 14 50 39
f 14 39 26
f 15 29 28
f 20 30 31
f 21 31 32
f 21 32 22
f 22 32 33
f 22 33 23
f 23 33 34
f 23 34 35
f 23 35 24
f 24 36 25
f 24 35 37
f 24 37 38
f 24 38 36
f 26 39 30
f 28 29 42
f 28 42 43
f 28 43 41
f 29 44 42
f 30 39 31
f 31 39 32
f 32 39 45
f 32 45 33
f 33 45 34
f 34 45 46
f 34 46 35
f 35 46 37
f 37 47 48
f 37 48 38
f 37 46 43
f 37 43 42
f 37 42 49
f 37 49 47
f 39 50 51
f 39 51 45
f 40 51 50
f 41 43 52
f 42 44 49
f 43 46 52
f 44 47 49
f 45 51 53
f 45 53 46
f 46 53 52

