# https://github.com/mikedh/trimesh
v -0.00820677 0.01432802 0.02184855
v -0.02983910 0.01433348 0.02184855
v -0.00820677 0.01352082 0.02184855
v -0.00820677 0.01465296 0.01766286
v -0.00841555 0.01483654 0.01766286
v -0.00845904 0.01481386 0.01831166
v -0.00900273 0.01521042 0.01766286
v -0.00948770 0.01543097 0.01766286
v -0.00960731 0.01538140 0.01845584
v -0.01011403 0.01547361 0.01890640
v -0.01058813 0.01548915 0.01895146
v -0.01455272 0.01539673 0.01952141
v -0.01534650 0.01541039 0.01953944
v -0.03041106 0.01433243 0.02184855
v -0.03041106 0.01350779 0.02184855
v -0.03042194 0.01350443 0.02184630
v -0.03042194 0.01352628 -0.00116149
v -0.00820894 0.01354497 -0.00116149
v -0.00820677 0.01354497 -0.00115924
v -0.00820677 0.01509007 0.00971725
v -0.00994223 0.01552759 0.01686988
v -0.00988351 0.01551373 0.01766286
v -0.01000529 0.01549356 0.01845584
v -0.00820677 0.01509490 0.00914730
v -0.00820677 0.01509490 0.00912927
v -0.01058813 0.01555406 0.01845584
v -0.01138192 0.01559040 0.01845584
v -0.01217353 0.01560909 0.01845584
v -0.01138192 0.01549924 0.01898525
v -0.01375893 0.01552612 0.01909338
v -0.01455272 0.01552969 0.01912492
v -0.01534650 0.01552507 0.01914295
v -0.01772569 0.01540724 0.01952367
v -0.03042194 0.01433138 0.02184855
v -0.01851730 0.01550827 0.01908437
v -0.01931109 0.01549461 0.01903030
v -0.02010270 0.01548096 0.01897398
v -0.02142061 0.01545828 0.01887261
v -0.02195125 0.01544798 0.01875321
v -0.03042194 0.01354518 0.02184855
v -0.03042194 0.01431962 -0.00116149
v -0.00820677 0.01430744 -0.00116149
v -0.01058813 0.01561560 0.01686988
v -0.01058813 0.01560195 0.01766286
v -0.00820677 0.01431983 -0.00116149
v -0.01241058 0.01467922 -0.00116149
v -0.01255411 0.01468783 -0.00116149
v -0.01322829 0.01471493 -0.00116149
v -0.01138192 0.01564102 0.01766286
v -0.01217353 0.01565026 0.01766286
v -0.01296732 0.01561245 0.01845584
v -0.01375893 0.01561350 0.01845584
v -0.01772569 0.01551730 0.01912718
v -0.02245144 0.01541942 0.01847612
v -0.02269067 0.01543349 0.01766286
v -0.02231226 0.01548894 0.01686988
v -0.01851730 0.01556981 0.01845584
v -0.01931109 0.01555091 0.01845584
v -0.02010270 0.01552654 0.01845584
v -0.02168593 0.01547109 0.01847612
v -0.02168810 0.01550869 0.01766286
v -0.02216655 0.01546143 0.01822380
v -0.03041106 0.01432046 -0.00116149
v -0.01138192 0.01562925 0.01686988
v -0.01375893 0.01473110 -0.00116149
v -0.01395901 0.01473635 -0.00116149
v -0.01475714 0.01475147 -0.00116149
v -0.01217353 0.01562862 0.01686988
v -0.01296732 0.01562652 0.01686988
v -0.01375893 0.01562043 0.01686988
v -0.02010270 0.01556498 0.01686988
v -0.01296732 0.01564270 0.01766286
v -0.01772569 0.01558178 0.01845584
v -0.01455272 0.01560909 0.01845584
v -0.02229486 0.01547424 0.01766286
v -0.02168810 0.01553641 0.01686988
v -0.01931109 0.01556855 0.01766286
v -0.02089432 0.01555532 0.01686988
v -0.02010270 0.01555490 0.01766286
v -0.02089432 0.01553452 0.01766286
v -0.02224049 0.01467943 -0.00116149
v -0.01555093 0.01475651 -0.00116149
v -0.01634254 0.01475798 -0.00116149
v -0.01772569 0.01475798 -0.00116149
v -0.01851730 0.01475609 -0.00116149
v -0.01931109 0.01475084 -0.00116149
v -0.01455272 0.01557884 0.01607689
v -0.01534650 0.01557296 0.01607689
v -0.01772569 0.01555490 0.01607689
v -0.02009618 0.01474454 -0.00116149
v -0.02089432 0.01473131 -0.00116149
v -0.02168810 0.01470232 -0.00116149
f 1 2 14
f 1 14 34
f 1 34 40
f 1 40 15
f 1 15 3
f 1 3 19
f 1 19 42
f 1 42 45
f 1 45 25
f 1 25 24
f 1 24 20
f 1 20 4
f 1 4 5
f 1 5 6
f 1 6 7
f 1 7 8
f 1 8 9
f 1 9 10
f 1 10 11
f 1 11 12
f 1 12 13
f 1 13 2
f 2 13 14
f 3 15 16
f 3 16 17
f 3 17 18
f 3 18 19
f 4 20 5
f 5 7 6
f 5 20 7
f 7 20 8
f 8 21 22
f 8 22 23
f 8 23 9
f 8 20 24
f 8 24 25
f 8 25 21
f 9 23 10
f 10 23 26
f 10 26 27
f 10 27 11
f 11 27 28
f 11 28 29
f 11 29 12
f 12 29 30
f 12 30 13
f 13 30 31
f 13 31 32
f 13 32 33
f 13 33 14
f 14 33 35
f 14 35 36
f 14 36 37
f 14 37 38
f 14 38 39
f 14 39 34
f 15 40 16
f 16 40 34
f 16 34 41
f 16 41 17
f 17 41 63
f 17 63 81
f 17 81 92
f 17 92 91
f 17 91 90
f 17 90 86
f 17 86 85
f 17 85 84
f 17 84 83
f 17 83 82
f 17 82 67
f 17 67 66
f 17 66 65
f 17 65 48
f 17 48 47
f 17 47 46
f 17 46 45
f 17 45 42
f 17 42 18
f 18 42 19
f 21 43 22
f 21 25 43
f 22 43 44
f 22 44 23
f 23 44 26
f 25 45 46
f 25 46 47
f 25 47 48
f 25 48 43
f 26 44 49
f 26 49 27
f 27 49 28
f 28 49 50
f 28 50 51
f 28 51 31
f 28 31 30
f 28 30 29
f 31 51 52
f 31 52 32
f 32 52 53
f 32 53 33
f 33 53 35
f 34 39 54
f 34 54 55
f 34 55 56
f 34 56 41
f 35 53 57
f 35 57 58
f 35 58 36
f 36 58 37
f 37 58 38
f 38 58 59
f 38 59 39
f 39 59 60
f 39 60 61
f 39 61 62
f 39 62 54
f 41 56 63
f 43 64 49
f 43 49 44
f 43 48 65
f 43 65 66
f 43 66 67
f 43 67 64
f 49 64 50
f 50 64 68
f 50 68 69
f 50 69 70
f 50 70 71
f 50 71 72
f 50 72 73
f 50 73 74
f 50 74 52
f 50 52 51
f 52 74 53
f 53 74 73
f 53 73 57
f 54 62 55
f 55 62 75
f 55 75 56
f 56 75 76
f 56 76 63
f 57 73 77
f 57 77 78
f 57 78 79
f 57 79 58
f 58 79 80
f 58 80 59
f 59 80 61
f 59 61 60
f 61 80 76
f 61 76 75
f 61 75 62
f 63 76 81
f 64 67 82
f 64 82 83
f 64 83 84
f 64 84 68
f 68 84 85
f 68 85 69
f 69 85 86
f 69 86 87
f 69 87 88
f 69 88 89
f 69 89 70
f 70 89 71
f 71 89 90
f 71 90 78
f 71 78 77
f 71 77 73
f 71 73 72
f 76 80 79
f 76 79 78
f 76 78 91
f 76 91 92
f 76 92 81
f 78 90 91
f 86 90 89
f 86 89 88
f 86 88 87

