# https://github.com/mikedh/trimesh
v -0.03744846 -0.00070882 -0.02683258
v -0.03540975 -0.00070882 -0.02683258
v -0.03747083 -0.00070882 -0.02674212
v -0.03740662 -0.00000878 -0.02683258
v -0.03323888 0.00790764 -0.02683258
v -0.03443575 0.00790764 -0.00116375
v -0.03669652 -0.00070882 -0.00116375
v -0.03742609 -0.00000878 -0.02674212
v -0.03747083 -0.00070882 -0.00116375
v -0.03745964 -0.00052833 -0.00116375
v -0.03731589 0.00078404 -0.02683258
v -0.03528960 0.00790764 -0.02683258
v -0.03530576 0.00790764 -0.00116375
v -0.03732997 0.00078404 -0.02674212
v -0.03742609 -0.00000878 -0.00116375
v -0.03740164 0.00019533 -0.00116375
v -0.03720361 0.00148493 -0.02683258
v -0.03569933 0.00705072 -0.02683258
v -0.03532565 0.00790764 -0.02674464
v -0.03570679 0.00706927 -0.00116375
v -0.03720734 0.00150518 -0.02674212
v -0.03732997 0.00078404 -0.00116375
v -0.03729849 0.00096960 -0.00116375
v -0.03670647 0.00395533 -0.02674212
v -0.03668203 0.00395533 -0.02683258
v -0.03636302 0.00515891 -0.02683258
v -0.03570679 0.00706927 -0.02674212
v -0.03636344 0.00515975 -0.00116375
v -0.03670688 0.00395533 -0.02595065
v -0.03720734 0.00150518 -0.00116375
v -0.03648234 0.00474816 -0.02674212
v -0.03636344 0.00515975 -0.02674212
v -0.03645168 0.00485443 -0.00116375
v -0.03670688 0.00395533 -0.00116375
v -0.03664930 0.00415944 -0.00116375
v -0.03648234 0.00474816 -0.00116375
f 1 2 7
f 1 7 9
f 1 9 3
f 1 3 4
f 1 4 11
f 1 11 17
f 1 17 25
f 1 25 26
f 1 26 18
f 1 18 12
f 1 12 5
f 1 5 2
f 2 5 6
f 2 6 7
f 3 8 4
f 3 9 10
f 3 10 8
f 4 8 11
f 5 12 19
f 5 19 13
f 5 13 6
f 6 13 20
f 6 20 28
f 6 28 33
f 6 33 36
f 6 36 35
f 6 35 34
f 6 34 30
f 6 30 23
f 6 23 22
f 6 22 16
f 6 16 15
f 6 15 10
f 6 10 9
f 6 9 7
f 8 14 11
f 8 10 15
f 8 15 16
f 8 16 14
f 11 14 17
f 12 18 19
f 13 19 20
f 14 21 17
f 14 16 22
f 14 22 23
f 14 23 21
f 17 21 24
f 17 24 25
f 18 26 27
f 18 27 19
f 19 27 20
f 20 27 32
f 20 32 28
f 21 29 24
f 21 23 30
f 21 30 34
f 21 34 29
f 24 29 31
f 24 31 26
f 24 26 25
f 26 31 32
f 26 32 27
f 28 32 33
f 29 34 35
f 29 35 31
f 31 35 36
f 31 36 33
f 31 33 32

