# https://github.com/mikedh/trimesh
v 0.00192352 -0.00070882 0.02397913
v 0.00192352 -0.00851376 0.02397913
v 0.00192352 -0.00070882 0.02316691
v -0.00863368 -0.00070882 0.02418919
v -0.00833283 -0.00092885 0.02418919
v -0.00804797 -0.00136739 0.02418919
v -0.00804071 -0.00153470 0.02418919
v 0.00192352 -0.00851376 0.02316691
v -0.00828196 -0.00469915 0.02418919
v -0.00981526 -0.00790792 0.02418919
v -0.01092998 -0.00851376 0.02418919
v -0.00899992 -0.00080280 0.02314137
v -0.00899992 -0.00070882 0.02314147
v -0.01055356 -0.00070882 0.02418919
v -0.00921938 -0.00851376 0.02316137
v -0.00979346 -0.00793924 0.02314711
v -0.00820784 -0.00476715 0.02314629
v -0.01292399 -0.00851376 0.02418919
v -0.00979346 -0.00714622 0.02314670
v -0.01137907 -0.00851376 0.02316065
v -0.01137907 -0.00793924 0.02316691
v -0.00909439 -0.00070882 0.02315152
v -0.01055211 -0.00070882 0.02410129
v -0.01054484 -0.00070882 0.02400764
v -0.01289492 -0.00851376 0.02404129
v -0.01220894 -0.00851376 0.02336055
v -0.00979346 -0.00070882 0.02323532
v -0.01036172 -0.00070882 0.02347245
v -0.01288039 -0.00851376 0.02402159
v -0.01213918 -0.00793924 0.02338907
f 1 2 8
f 1 8 3
f 1 3 13
f 1 13 22
f 1 22 27
f 1 27 28
f 1 28 24
f 1 24 23
f 1 23 14
f 1 14 4
f 1 4 5
f 1 5 6
f 1 6 7
f 1 7 2
f 2 7 9
f 2 9 10
f 2 10 11
f 2 11 18
f 2 18 25
f 2 25 29
f 2 29 26
f 2 26 20
f 2 20 15
f 2 15 8
f 3 8 12
f 3 12 13
f 4 14 18
f 4 18 11
f 4 11 10
f 4 10 9
f 4 9 7
f 4 7 6
f 4 6 5
f 8 15 16
f 8 16 17
f 8 17 12
f 12 17 16
f 12 16 19
f 12 19 20
f 12 20 13
f 13 20 21
f 13 21 22
f 14 23 18
f 15 20 16
f 16 20 19
f 18 23 24
f 18 24 25
f 20 26 21
f 21 26 27
f 21 27 22
f 24 28 25
f 25 28 29
f 26 29 30
f 26 30 27
f 27 30 28
f 28 30 29

