# https://github.com/mikedh/trimesh
v 0.03622413 -0.01314149 -0.02761442
v 0.03622413 -0.01314149 -0.02633416
v 0.03622413 -0.01269612 -0.02764906
v 0.03699298 -0.01269612 -0.02761231
v 0.03699298 -0.01314149 -0.02756838
v 0.04061591 -0.01314149 -0.02333815
v 0.04061942 -0.01313745 -0.02333435
v 0.04126121 0.00060305 -0.02333435
v 0.03622413 0.00060305 -0.02685116
v 0.03622413 0.00060305 -0.02760133
v 0.03637872 0.00060305 -0.02759964
v 0.03699298 0.00060305 -0.02759161
v 0.03778585 -0.01269612 -0.02747841
v 0.03778585 -0.01314149 -0.02743829
v 0.03743685 -0.01314149 -0.02749700
v 0.03717217 0.00060305 -0.02756627
v 0.03778585 0.00060305 -0.02747841
v 0.04079627 -0.01314149 -0.02333435
v 0.04220573 0.00060305 -0.02333435
v 0.03846042 -0.01269612 -0.02725581
v 0.03813192 -0.01314149 -0.02733860
v 0.03846042 0.00060305 -0.02725581
v 0.04217938 -0.01314149 -0.02333435
v 0.04220573 -0.01269612 -0.02333435
v 0.04202714 -0.01269612 -0.02373013
v 0.04205934 0.00060305 -0.02364058
v 0.03885685 -0.01269612 -0.02705560
v 0.03842880 -0.01314149 -0.02724061
v 0.03885685 0.00060305 -0.02703997
v 0.04211556 -0.01314149 -0.02347670
v 0.04218173 -0.01310650 -0.02333435
v 0.04171151 -0.01269612 -0.02436498
v 0.04177183 0.00060305 -0.02422137
v 0.04201601 0.00060305 -0.02373013
v 0.03937099 -0.01269612 -0.02676838
v 0.03965382 -0.01314149 -0.02657788
v 0.03882523 -0.01314149 -0.02703448
v 0.03991147 0.00060305 -0.02645623
v 0.04167345 -0.01314149 -0.02436498
v 0.04142048 -0.01314149 -0.02485537
v 0.04143454 -0.01269612 -0.02487523
v 0.04143454 0.00060305 -0.02487523
v 0.04149485 0.00060305 -0.02475992
v 0.04170039 0.00060305 -0.02436498
v 0.03991147 -0.01269612 -0.02645623
v 0.03989156 -0.01314149 -0.02644060
v 0.04030848 0.00060305 -0.02612930
v 0.04128697 -0.01314149 -0.02502982
v 0.04113121 -0.01269612 -0.02527143
v 0.04113121 0.00060305 -0.02527143
v 0.04030848 -0.01269612 -0.02612930
v 0.04028799 -0.01314149 -0.02610903
v 0.04073478 0.00060305 -0.02573268
v 0.04111130 -0.01314149 -0.02525158
v 0.04093680 -0.01314149 -0.02545475
v 0.04073478 -0.01269612 -0.02573268
v 0.04052749 -0.01314149 -0.02588685
v 0.04071487 -0.01314149 -0.02571240
f 1 2 9
f 1 9 10
f 1 10 3
f 1 3 4
f 1 4 5
f 1 5 15
f 1 15 14
f 1 14 21
f 1 21 28
f 1 28 37
f 1 37 36
f 1 36 46
f 1 46 52
f 1 52 57
f 1 57 58
f 1 58 55
f 1 55 54
f 1 54 48
f 1 48 40
f 1 40 39
f 1 39 30
f 1 30 23
f 1 23 18
f 1 18 6
f 1 6 2
f 2 6 7
f 2 7 8
f 2 8 9
f 3 10 11
f 3 11 12
f 3 12 4
f 4 13 14
f 4 14 15
f 4 15 5
f 4 12 16
f 4 16 17
f 4 17 13
f 6 18 7
f 7 18 23
f 7 23 31
f 7 31 24
f 7 24 19
f 7 19 8
f 8 19 26
f 8 26 34
f 8 34 33
f 8 33 44
f 8 44 43
f 8 43 42
f 8 42 50
f 8 50 53
f 8 53 47
f 8 47 38
f 8 38 29
f 8 29 22
f 8 22 17
f 8 17 16
f 8 16 12
f 8 12 11
f 8 11 10
f 8 10 9
f 13 20 21
f 13 21 14
f 13 17 22
f 13 22 20
f 19 24 25
f 19 25 26
f 20 27 28
f 20 28 21
f 20 22 27
f 22 29 27
f 23 30 31
f 24 31 30
f 24 30 25
f 25 30 32
f 25 32 33
f 25 33 34
f 25 34 26
f 27 35 36
f 27 36 37
f 27 37 28
f 27 29 38
f 27 38 35
f 30 39 32
f 32 39 40
f 32 40 41
f 32 41 42
f 32 42 43
f 32 43 44
f 32 44 33
f 35 45 46
f 35 46 36
f 35 38 45
f 38 47 51
f 38 51 45
f 40 48 41
f 41 48 49
f 41 49 50
f 41 50 42
f 45 51 46
f 46 51 52
f 47 53 56
f 47 56 51
f 48 54 49
f 49 54 55
f 49 55 56
f 49 56 53
f 49 53 50
f 51 56 57
f 51 57 52
f 55 58 56
f 56 58 57

