# https://github.com/mikedh/trimesh
v -0.00434918 -0.05466783 0.02841515
v -0.00851095 -0.05596481 0.02841515
v -0.00434918 -0.05640699 0.02841515
v -0.00434918 -0.06119336 0.02274176
v -0.00851095 -0.05763566 0.02841515
v -0.00851095 -0.06295652 0.02274176
v -0.00504457 -0.05717964 0.02841515
v -0.00521893 -0.05750458 0.02834129
v -0.00434918 -0.05643837 0.02839627
v -0.00434918 -0.06274697 0.02274176
v -0.00847917 -0.05765135 0.02841515
v -0.00851095 -0.05799383 0.02814137
v -0.00851095 -0.06409842 0.02274176
v -0.00564708 -0.05757658 0.02841515
v -0.00474719 -0.05724149 0.02813082
v -0.00453779 -0.05676977 0.02832297
v -0.00564708 -0.05759689 0.02840349
v -0.00564708 -0.05795044 0.02813193
v -0.00518552 -0.05824492 0.02767988
v -0.00496635 -0.05774736 0.02790535
v -0.00434918 -0.05666361 0.02823744
v -0.00434918 -0.06263251 0.02287448
v -0.00452313 -0.06299529 0.02274176
v -0.00847673 -0.05797906 0.02816414
v -0.00783714 -0.05766889 0.02841515
v -0.00851095 -0.05955667 0.02687963
v -0.00847673 -0.06409565 0.02274176
v -0.00851095 -0.06402457 0.02281118
v -0.00586340 -0.05761258 0.02841515
v -0.00450113 -0.05751750 0.02765933
v -0.00434918 -0.05743350 0.02758658
v -0.00434918 -0.05704579 0.02791923
v -0.00635429 -0.05800122 0.02817913
v -0.00635429 -0.05841570 0.02782538
v -0.00564708 -0.05834923 0.02777817
v -0.00515334 -0.05898064 0.02699958
v -0.00455694 -0.06170477 0.02407292
v -0.00458464 -0.06096166 0.02474933
v -0.00461682 -0.06021855 0.02542574
v -0.00468160 -0.05873325 0.02677800
v -0.00471378 -0.05798921 0.02745441
v -0.00443188 -0.06269343 0.02293391
v -0.00434918 -0.06228449 0.02323824
v -0.00454635 -0.06243404 0.02338374
v -0.00474596 -0.06318176 0.02274176
v -0.00847673 -0.05841662 0.02781038
v -0.00776911 -0.05799014 0.02817025
v -0.00776911 -0.05767074 0.02841515
v -0.00847673 -0.05955759 0.02688018
v -0.00851095 -0.05993607 0.02656364
v -0.00847673 -0.05991115 0.02658640
v -0.00847673 -0.06400611 0.02282561
v -0.00786688 -0.06401349 0.02274176
v -0.00776911 -0.06395811 0.02278174
v -0.00635429 -0.05876925 0.02750717
v -0.00734055 -0.05955483 0.02687852
v -0.00851095 -0.06400795 0.02282672
v -0.00635429 -0.05768182 0.02841515
v -0.00434918 -0.05766335 0.02738721
v -0.00706150 -0.05767905 0.02841515
v -0.00706150 -0.05799660 0.02817580
v -0.00706150 -0.05843139 0.02782205
v -0.00776911 -0.05956036 0.02688296
v -0.00564708 -0.05870279 0.02745552
v -0.00512075 -0.05970991 0.02631595
v -0.00508857 -0.06043548 0.02562844
v -0.00493947 -0.06184785 0.02420842
v -0.00434918 -0.06155984 0.02392964
v -0.00434918 -0.06108628 0.02436725
v -0.00434918 -0.06053795 0.02486817
v -0.00434918 -0.06040410 0.02499035
v -0.00434918 -0.05971637 0.02560234
v -0.00434918 -0.05962129 0.02568619
v -0.00434918 -0.05880525 0.02639592
v -0.00434918 -0.05856801 0.02660196
v -0.00434918 -0.05819507 0.02692572
v -0.00434918 -0.06184139 0.02366307
v -0.00493947 -0.06257989 0.02352146
v -0.00493947 -0.06293344 0.02317270
v -0.00493947 -0.06325376 0.02281895
v -0.00493458 -0.06330731 0.02274176
v -0.00776911 -0.05842400 0.02781649
v -0.00851095 -0.06033301 0.02623154
v -0.00847673 -0.06033394 0.02623265
v -0.00847673 -0.06107243 0.02556180
v -0.00706150 -0.06390272 0.02274176
v -0.00564708 -0.05908680 0.02710177
v -0.00588866 -0.06309868 0.02334708
v -0.00564708 -0.06017055 0.02608437
v -0.00564708 -0.05981699 0.02641758
v -0.00847673 -0.06068749 0.02591499
v -0.00851095 -0.06109090 0.02554680
v -0.00541691 -0.06306176 0.02331321
v -0.00510853 -0.06341900 0.02274176
v -0.00851095 -0.06070688 0.02589778
v -0.00635429 -0.06378733 0.02274176
v -0.00564708 -0.06054441 0.02573062
v -0.00621863 -0.06376333 0.02274176
v -0.00584710 -0.06369317 0.02274176
v -0.00553709 -0.06362301 0.02274176
f 1 2 5
f 1 5 11
f 1 11 25
f 1 25 48
f 1 48 60
f 1 60 58
f 1 58 29
f 1 29 14
f 1 14 7
f 1 7 3
f 1 3 9
f 1 9 21
f 1 21 32
f 1 32 31
f 1 31 59
f 1 59 76
f 1 76 75
f 1 75 74
f 1 74 73
f 1 73 72
f 1 72 71
f 1 71 70
f 1 70 69
f 1 69 68
f 1 68 77
f 1 77 43
f 1 43 22
f 1 22 10
f 1 10 4
f 1 4 2
f 2 4 6
f 2 6 13
f 2 13 28
f 2 28 57
f 2 57 92
f 2 92 95
f 2 95 83
f 2 83 50
f 2 50 26
f 2 26 12
f 2 12 5
f 3 7 8
f 3 8 9
f 4 10 23
f 4 23 45
f 4 45 81
f 4 81 94
f 4 94 100
f 4 100 99
f 4 99 98
f 4 98 96
f 4 96 86
f 4 86 53
f 4 53 27
f 4 27 13
f 4 13 6
f 5 12 11
f 7 14 8
f 8 15 16
f 8 16 9
f 8 14 17
f 8 17 18
f 8 18 19
f 8 19 20
f 8 20 15
f 9 16 21
f 10 22 23
f 11 12 24
f 11 24 25
f 12 26 24
f 13 27 28
f 14 29 17
f 15 20 30
f 15 30 31
f 15 31 32
f 15 32 21
f 15 21 16
f 17 29 33
f 17 33 18
f 18 33 34
f 18 34 35
f 18 35 19
f 19 35 36
f 19 36 37
f 19 37 38
f 19 38 20
f 20 38 39
f 20 39 40
f 20 40 41
f 20 41 30
f 22 42 23
f 22 43 44
f 22 44 42
f 23 42 44
f 23 44 45
f 24 26 46
f 24 46 47
f 24 47 48
f 24 48 25
f 26 49 46
f 26 50 51
f 26 51 49
f 27 52 28
f 27 53 54
f 27 54 55
f 27 55 56
f 27 56 52
f 28 52 57
f 29 58 33
f 30 41 31
f 31 41 59
f 33 58 60
f 33 60 48
f 33 48 61
f 33 61 62
f 33 62 63
f 33 63 56
f 33 56 34
f 34 56 55
f 34 55 35
f 35 55 64
f 35 64 36
f 36 64 65
f 36 65 37
f 37 66 67
f 37 67 44
f 37 44 68
f 37 68 69
f 37 69 70
f 37 70 71
f 37 71 72
f 37 72 73
f 37 73 38
f 37 65 66
f 38 73 74
f 38 74 39
f 39 74 40
f 40 74 75
f 40 75 76
f 40 76 59
f 40 59 41
f 43 77 44
f 44 77 68
f 44 67 78
f 44 78 79
f 44 79 45
f 45 79 80
f 45 80 81
f 46 49 47
f 47 61 48
f 47 49 82
f 47 82 62
f 47 62 61
f 49 63 62
f 49 62 82
f 49 51 63
f 50 83 51
f 51 83 84
f 51 84 63
f 52 85 57
f 52 56 85
f 53 86 54
f 54 86 55
f 55 87 64
f 55 86 88
f 55 88 89
f 55 89 90
f 55 90 87
f 56 63 84
f 56 84 91
f 56 91 85
f 57 85 92
f 64 87 65
f 65 87 66
f 66 93 78
f 66 78 67
f 66 87 93
f 78 93 79
f 79 93 94
f 79 94 80
f 80 94 81
f 83 95 84
f 84 95 91
f 85 91 92
f 86 96 93
f 86 93 88
f 87 90 93
f 88 93 97
f 88 97 89
f 89 97 93
f 89 93 90
f 91 95 92
f 93 96 98
f 93 98 99
f 93 99 100
f 93 100 94

