# https://github.com/mikedh/trimesh
v -0.00875779 -0.05357121 -0.03230830
v -0.00875779 -0.05357121 -0.03331949
v -0.00548228 -0.05357121 -0.03231014
v -0.00875779 -0.03796806 -0.03504514
v -0.00846730 -0.05357121 -0.03339928
v -0.00875779 -0.05194065 -0.03405414
v -0.00847660 -0.05203002 -0.03409679
v -0.00548228 -0.05357121 -0.03320071
v -0.00548228 -0.03867516 -0.03626682
v -0.00598598 -0.03831455 -0.03609531
v -0.00875779 -0.03758864 -0.03521849
v -0.00776898 -0.05353201 -0.03351072
v -0.00776898 -0.05357121 -0.03349237
v -0.00809634 -0.05246431 -0.03396472
v -0.00875779 -0.05043709 -0.03471909
v -0.00847660 -0.05053273 -0.03476128
v -0.00771832 -0.05074596 -0.03480026
v -0.00564676 -0.05357121 -0.03324244
v -0.00564676 -0.05336112 -0.03337176
v -0.00548228 -0.05332506 -0.03335204
v -0.00548228 -0.03852935 -0.03631084
v -0.00548228 -0.03815620 -0.03648281
v -0.00875779 -0.03755415 -0.03524646
v -0.00782380 -0.05218367 -0.03413072
v -0.00762437 -0.05251605 -0.03399728
v -0.00706200 -0.05110499 -0.03470625
v -0.00706200 -0.05254897 -0.03401700
v -0.00706200 -0.05357121 -0.03349054
v -0.00706200 -0.05145933 -0.03453841
v -0.00706200 -0.05211625 -0.03422519
v -0.00875779 -0.04999339 -0.03480530
v -0.00814475 -0.04827975 -0.03540193
v -0.00847660 -0.04999339 -0.03491032
v -0.00776898 -0.04999339 -0.03503506
v -0.00744867 -0.05106266 -0.03468653
v -0.00706200 -0.05070206 -0.03488785
v -0.00641498 -0.05357121 -0.03340616
v -0.00590005 -0.05109872 -0.03470808
v -0.00564676 -0.05202532 -0.03412430
v -0.00548228 -0.05198926 -0.03410367
v -0.00548228 -0.03815620 -0.03689829
v -0.00791358 -0.03758707 -0.03604716
v -0.00874175 -0.03755572 -0.03525426
v -0.00791358 -0.03758707 -0.03613475
v -0.00875779 -0.03756199 -0.03568212
v -0.00635438 -0.05070206 -0.03493509
v -0.00635438 -0.05113165 -0.03472230
v -0.00650764 -0.05252859 -0.03400920
v -0.00642075 -0.05357121 -0.03340708
v -0.00875779 -0.04788465 -0.03513044
v -0.00776898 -0.04841928 -0.03543678
v -0.00819894 -0.04787211 -0.03543036
v -0.00745444 -0.04553602 -0.03611870
v -0.00731016 -0.04600638 -0.03606367
v -0.00706937 -0.04576179 -0.03616410
v -0.00683884 -0.04616630 -0.03611411
v -0.00709149 -0.04863094 -0.03547851
v -0.00687539 -0.04901036 -0.03540972
v -0.00635438 -0.04910443 -0.03543036
v -0.00565734 -0.05072401 -0.03482686
v -0.00548228 -0.05091529 -0.03467507
v -0.00548228 -0.05148755 -0.03437607
v -0.00548228 -0.03831612 -0.03693085
v -0.00612417 -0.03826908 -0.03683226
v -0.00827236 -0.03758707 -0.03613475
v -0.00875779 -0.03771250 -0.03601918
v -0.00583176 -0.04908405 -0.03542440
v -0.00564676 -0.04999339 -0.03509421
v -0.00875779 -0.04553446 -0.03543724
v -0.00706200 -0.04787211 -0.03566882
v -0.00828550 -0.04716344 -0.03547622
v -0.00751729 -0.04504215 -0.03615171
v -0.00706200 -0.04362796 -0.03652271
v -0.00706200 -0.04433506 -0.03641678
v -0.00706200 -0.04504215 -0.03630626
v -0.00635438 -0.04504215 -0.03638238
v -0.00548228 -0.05015959 -0.03498140
v -0.00548228 -0.05064875 -0.03479980
v -0.00548228 -0.03867516 -0.03699322
v -0.00849551 -0.03796336 -0.03619895
v -0.00564676 -0.03867516 -0.03696387
v -0.00619503 -0.03867516 -0.03684693
v -0.00776898 -0.03867516 -0.03647364
v -0.00874400 -0.03772348 -0.03604899
v -0.00875779 -0.03773445 -0.03603661
v -0.00548228 -0.04855882 -0.03547163
v -0.00596257 -0.04613651 -0.03610586
v -0.00548228 -0.04520521 -0.03621775
v -0.00548228 -0.04999810 -0.03503873
v -0.00875779 -0.04529615 -0.03546796
v -0.00760321 -0.04433506 -0.03619711
v -0.00768113 -0.04362796 -0.03623930
v -0.00776898 -0.04221220 -0.03633607
v -0.00706200 -0.04292087 -0.03659058
v -0.00624536 -0.04221220 -0.03684464
v -0.00614276 -0.04264179 -0.03681850
v -0.00635438 -0.04433506 -0.03650941
v -0.00594590 -0.04264179 -0.03681850
v -0.00548228 -0.03938225 -0.03699047
v -0.00564676 -0.04009092 -0.03697396
v -0.00564676 -0.03938225 -0.03697167
v -0.00875779 -0.03813425 -0.03613979
v -0.00621330 -0.03938225 -0.03685106
v -0.00624953 -0.04079801 -0.03685885
v -0.00626781 -0.04150511 -0.03686252
v -0.00776898 -0.03938225 -0.03646630
v -0.00854649 -0.03873944 -0.03624527
v -0.00875779 -0.03836472 -0.03615768
v -0.00564676 -0.04504215 -0.03628654
v -0.00548228 -0.04503588 -0.03625444
v -0.00875779 -0.04464706 -0.03554455
v -0.00875779 -0.04221377 -0.03580961
v -0.00781867 -0.04287853 -0.03624435
v -0.00837303 -0.04009092 -0.03623151
v -0.00844069 -0.03938225 -0.03625857
v -0.00564676 -0.04079801 -0.03694553
v -0.00579136 -0.04221220 -0.03684464
v -0.00548228 -0.04166973 -0.03684464
v -0.00548228 -0.04433506 -0.03639064
v -0.00548228 -0.04009092 -0.03697763
v -0.00875779 -0.03860774 -0.03615768
v -0.00875779 -0.03908593 -0.03612649
v -0.00830570 -0.04079801 -0.03619620
v -0.00548228 -0.04079958 -0.03693269
v -0.00548228 -0.04152549 -0.03686757
f 1 2 5
f 1 5 13
f 1 13 28
f 1 28 49
f 1 49 37
f 1 37 18
f 1 18 8
f 1 8 3
f 1 3 4
f 1 4 11
f 1 11 23
f 1 23 45
f 1 45 66
f 1 66 85
f 1 85 102
f 1 102 108
f 1 108 121
f 1 121 122
f 1 122 112
f 1 112 111
f 1 111 90
f 1 90 69
f 1 69 50
f 1 50 31
f 1 31 15
f 1 15 6
f 1 6 2
f 2 6 7
f 2 7 5
f 3 8 20
f 3 20 40
f 3 40 62
f 3 62 61
f 3 61 78
f 3 78 77
f 3 77 89
f 3 89 86
f 3 86 88
f 3 88 110
f 3 110 119
f 3 119 118
f 3 118 125
f 3 125 124
f 3 124 120
f 3 120 99
f 3 99 79
f 3 79 63
f 3 63 41
f 3 41 22
f 3 22 21
f 3 21 9
f 3 9 10
f 3 10 4
f 4 10 11
f 5 12 13
f 5 7 14
f 5 14 12
f 6 15 16
f 6 16 7
f 7 17 14
f 7 16 17
f 8 18 19
f 8 19 20
f 9 21 10
f 10 21 22
f 10 22 11
f 11 22 23
f 12 14 24
f 12 24 25
f 12 25 26
f 12 26 13
f 13 27 28
f 13 26 29
f 13 29 30
f 13 30 27
f 14 17 24
f 15 31 32
f 15 32 33
f 15 33 16
f 16 33 34
f 16 34 17
f 17 35 24
f 17 34 36
f 17 36 35
f 18 37 19
f 19 37 38
f 19 38 20
f 20 38 39
f 20 39 40
f 22 41 44
f 22 44 42
f 22 42 43
f 22 43 23
f 23 43 42
f 23 42 44
f 23 44 45
f 24 35 26
f 24 26 25
f 26 35 36
f 26 36 46
f 26 46 29
f 27 30 46
f 27 46 47
f 27 47 48
f 27 48 28
f 28 48 49
f 29 46 30
f 31 50 32
f 32 51 33
f 32 50 52
f 32 52 53
f 32 53 54
f 32 54 55
f 32 55 56
f 32 56 51
f 33 51 34
f 34 51 57
f 34 57 58
f 34 58 59
f 34 59 36
f 36 59 46
f 37 49 48
f 37 48 38
f 38 48 47
f 38 47 46
f 38 46 60
f 38 60 61
f 38 61 62
f 38 62 40
f 38 40 39
f 41 63 64
f 41 64 65
f 41 65 44
f 44 65 45
f 45 65 66
f 46 59 67
f 46 67 68
f 46 68 60
f 50 69 52
f 51 70 57
f 51 56 70
f 52 69 71
f 52 71 72
f 52 72 53
f 53 72 73
f 53 73 74
f 53 74 75
f 53 75 54
f 54 75 55
f 55 75 56
f 56 75 76
f 56 76 59
f 56 59 58
f 56 58 70
f 57 70 58
f 59 76 67
f 60 68 77
f 60 77 78
f 60 78 61
f 63 79 64
f 64 80 65
f 64 79 81
f 64 81 82
f 64 82 83
f 64 83 80
f 65 80 84
f 65 84 66
f 66 84 85
f 67 86 68
f 67 76 87
f 67 87 88
f 67 88 86
f 68 86 89
f 68 89 77
f 69 90 71
f 71 90 72
f 72 90 91
f 72 91 73
f 73 92 93
f 73 93 94
f 73 94 95
f 73 95 96
f 73 96 74
f 73 91 92
f 74 96 75
f 75 96 97
f 75 97 76
f 76 97 96
f 76 96 98
f 76 98 87
f 79 99 100
f 79 100 101
f 79 101 81
f 80 102 84
f 80 83 102
f 81 101 103
f 81 103 82
f 82 103 83
f 83 103 104
f 83 104 105
f 83 105 106
f 83 106 107
f 83 107 108
f 83 108 102
f 84 102 85
f 87 98 109
f 87 109 88
f 88 109 110
f 90 111 92
f 90 92 91
f 92 112 113
f 92 113 93
f 92 111 112
f 93 113 114
f 93 114 115
f 93 115 94
f 94 115 107
f 94 107 106
f 94 106 105
f 94 105 95
f 95 105 100
f 95 100 116
f 95 116 96
f 96 116 98
f 98 116 117
f 98 117 118
f 98 118 119
f 98 119 110
f 98 110 109
f 99 120 100
f 100 120 116
f 100 105 101
f 101 105 104
f 101 104 103
f 107 115 121
f 107 121 108
f 112 122 123
f 112 123 113
f 113 123 114
f 114 123 122
f 114 122 115
f 115 122 121
f 116 120 124
f 116 124 117
f 117 124 125
f 117 125 118

