# https://github.com/mikedh/trimesh
v -0.00467542 -0.06333121 -0.00533359
v -0.00321093 -0.05962561 -0.01565611
v -0.00347195 -0.05921063 -0.01608333
v -0.00405724 -0.05881785 -0.01608333
v -0.00467542 -0.05844613 -0.01608333
v -0.00467542 -0.06450134 -0.00533359
v -0.00434695 -0.06360007 -0.00533359
v -0.00313803 -0.05949936 -0.01608333
v -0.00399900 -0.06391920 -0.00533359
v -0.00399418 -0.06392387 -0.00533359
v -0.00467542 -0.05945845 -0.01608333
v -0.00467542 -0.06450485 -0.00534727
v -0.00427971 -0.07038823 -0.00533359
v -0.00375956 -0.06427690 -0.00533359
v -0.00315458 -0.06022295 -0.01477854
v -0.00312107 -0.05956716 -0.01608333
v -0.00467542 -0.05956131 -0.01594548
v -0.00427971 -0.06809823 -0.01608333
v -0.00467542 -0.06378243 -0.00744545
v -0.00427971 -0.06942149 -0.01237942
v -0.00427971 -0.06964710 -0.01172072
v -0.00427971 -0.06984349 -0.01097994
v -0.00427971 -0.07002351 -0.01025704
v -0.00427971 -0.07012521 -0.00956782
v -0.00427971 -0.07019184 -0.00886072
v -0.00427971 -0.07023977 -0.00815255
v -0.00427971 -0.07027834 -0.00744545
v -0.00427971 -0.07034497 -0.00618907
v -0.00371264 -0.06967165 -0.00533359
v -0.00360539 -0.06484034 -0.00533359
v -0.00297485 -0.06045908 -0.01608333
v -0.00305571 -0.05988278 -0.01608333
v -0.00360308 -0.06485203 -0.00533359
v -0.00255316 -0.06357319 -0.01608333
v -0.00467542 -0.06026970 -0.01453968
v -0.00369337 -0.06701811 -0.01608333
v -0.00427971 -0.06815434 -0.01594653
v -0.00427971 -0.06891534 -0.01382626
v -0.00376920 -0.06823734 -0.01310232
v -0.00386724 -0.06876220 -0.01209953
v -0.00386682 -0.06946825 -0.00998136
v -0.00383309 -0.06951384 -0.00956782
v -0.00408719 -0.06986804 -0.00956782
v -0.00379099 -0.06956528 -0.00886072
v -0.00406541 -0.06991947 -0.00886072
v -0.00376815 -0.06958983 -0.00815255
v -0.00403105 -0.06996389 -0.00744545
v -0.00375160 -0.06960970 -0.00744545
v -0.00370824 -0.06966581 -0.00533359
v -0.00352851 -0.06554055 -0.00533359
v -0.00253536 -0.06395427 -0.01608333
v -0.00352767 -0.06554873 -0.00533359
v -0.00316862 -0.06872479 -0.00625325
v -0.00333285 -0.06625127 -0.01608333
v -0.00313301 -0.06599995 -0.01576555
v -0.00307833 -0.06612035 -0.01522469
v -0.00314704 -0.06666392 -0.01428399
v -0.00383791 -0.06740270 -0.01578449
v -0.00387373 -0.06804329 -0.01418508
v -0.00383728 -0.06811109 -0.01381048
v -0.00310116 -0.06674925 -0.01381048
v -0.00373233 -0.06842437 -0.01235943
v -0.00373170 -0.06913276 -0.01024021
v -0.00314390 -0.06808771 -0.01007816
v -0.00316506 -0.06875285 -0.00787371
v -0.00339842 -0.06911172 -0.00744545
v -0.00370196 -0.06965529 -0.00533359
v -0.00316296 -0.06875753 -0.00744545
v -0.00253536 -0.06399284 -0.01608333
v -0.00352683 -0.06555925 -0.00533359
v -0.00331567 -0.06839047 -0.00533359
v -0.00316862 -0.06874701 -0.00625325
v -0.00318098 -0.06592513 -0.01608333
v -0.00302596 -0.06558731 -0.01608333
v -0.00301612 -0.06561536 -0.01597389
v -0.00302554 -0.06630972 -0.01451969
v -0.00285817 -0.06555925 -0.01522469
v -0.00374469 -0.06770663 -0.01445971
v -0.00303811 -0.06687433 -0.01310232
v -0.00314285 -0.06738049 -0.01219633
v -0.00309970 -0.06746582 -0.01168810
v -0.00290048 -0.06626764 -0.01381048
v -0.00284916 -0.06626764 -0.01310232
v -0.00337642 -0.06909536 -0.00533359
v -0.00316569 -0.06875285 -0.00673834
v -0.00278087 -0.06555925 -0.01451759
v -0.00271195 -0.06469773 -0.01608333
v -0.00337538 -0.06908717 -0.00533359
v -0.00300878 -0.06554055 -0.01608333
v -0.00300061 -0.06554055 -0.01603913
v -0.00299077 -0.06549145 -0.01608333
v -0.00285502 -0.06554055 -0.01524363
f 1 2 3
f 1 3 4
f 1 4 5
f 1 5 11
f 1 11 17
f 1 17 35
f 1 35 19
f 1 19 12
f 1 12 6
f 1 6 13
f 1 13 29
f 1 29 49
f 1 49 67
f 1 67 84
f 1 84 88
f 1 88 71
f 1 71 70
f 1 70 52
f 1 52 50
f 1 50 33
f 1 33 30
f 1 30 14
f 1 14 10
f 1 10 9
f 1 9 7
f 1 7 2
f 2 8 3
f 2 7 9
f 2 9 10
f 2 10 8
f 3 8 16
f 3 16 32
f 3 32 31
f 3 31 34
f 3 34 51
f 3 51 69
f 3 69 87
f 3 87 91
f 3 91 89
f 3 89 74
f 3 74 73
f 3 73 54
f 3 54 36
f 3 36 18
f 3 18 11
f 3 11 5
f 3 5 4
f 6 12 13
f 8 10 14
f 8 14 15
f 8 15 16
f 11 18 17
f 12 19 20
f 12 20 21
f 12 21 22
f 12 22 23
f 12 23 24
f 12 24 25
f 12 25 26
f 12 26 27
f 12 27 28
f 12 28 13
f 13 28 29
f 14 30 15
f 15 31 32
f 15 32 16
f 15 30 33
f 15 33 34
f 15 34 31
f 17 18 35
f 18 36 37
f 18 37 19
f 18 19 35
f 19 37 38
f 19 38 20
f 20 38 39
f 20 39 40
f 20 40 21
f 21 40 41
f 21 41 22
f 22 41 23
f 23 41 42
f 23 42 43
f 23 43 24
f 24 43 44
f 24 44 45
f 24 45 25
f 25 45 46
f 25 46 26
f 26 47 27
f 26 46 48
f 26 48 47
f 27 47 28
f 28 47 29
f 29 47 48
f 29 48 49
f 33 50 34
f 34 50 52
f 34 52 53
f 34 53 51
f 36 54 55
f 36 55 56
f 36 56 57
f 36 57 58
f 36 58 37
f 37 58 59
f 37 59 60
f 37 60 38
f 38 60 39
f 39 60 61
f 39 61 62
f 39 62 40
f 40 63 41
f 40 62 63
f 41 63 64
f 41 64 65
f 41 65 42
f 42 44 43
f 42 65 44
f 44 46 45
f 44 65 46
f 46 65 66
f 46 66 48
f 48 66 49
f 49 66 65
f 49 65 68
f 49 68 67
f 51 53 72
f 51 72 69
f 52 70 53
f 53 71 72
f 53 70 71
f 54 73 55
f 55 73 74
f 55 74 75
f 55 75 56
f 56 76 57
f 56 75 77
f 56 77 76
f 57 61 78
f 57 78 58
f 57 76 61
f 58 78 60
f 58 60 59
f 60 78 61
f 61 76 79
f 61 79 80
f 61 80 62
f 62 80 63
f 63 80 64
f 64 80 81
f 64 81 79
f 64 79 82
f 64 82 65
f 65 82 83
f 65 83 69
f 65 69 68
f 67 68 85
f 67 85 84
f 68 69 85
f 69 86 87
f 69 72 85
f 69 83 86
f 71 88 72
f 72 88 84
f 72 84 85
f 74 89 90
f 74 90 75
f 75 90 77
f 76 77 82
f 76 82 79
f 77 90 91
f 77 91 92
f 77 92 82
f 79 81 80
f 82 92 87
f 82 87 86
f 82 86 83
f 87 92 91
f 89 91 90

