# https://github.com/mikedh/trimesh
v -0.01262208 -0.05778143 0.02274176
v -0.01285747 -0.05778143 0.01782628
v -0.01340204 -0.05778143 0.02274176
v -0.01185679 -0.06045103 0.02274176
v -0.01355438 -0.05778143 0.01782628
v -0.01185679 -0.06521896 0.01782628
v -0.01351330 -0.05778143 0.02226734
v -0.01378863 -0.05803892 0.02123911
v -0.01378863 -0.05825037 0.02123911
v -0.01337925 -0.05801590 0.02274176
v -0.01185679 -0.06202670 0.02274176
v -0.01378818 -0.05810798 0.01899116
v -0.01363765 -0.05778143 0.01874625
v -0.01383513 -0.05860337 0.01782628
v -0.01185679 -0.06649195 0.01782628
v -0.01355438 -0.05778143 0.02206910
v -0.01366722 -0.05778143 0.02152203
v -0.01373650 -0.05778143 0.02101297
v -0.01375546 -0.05778143 0.02085660
v -0.01380985 -0.05795792 0.02085660
v -0.01398204 -0.05919254 0.01944200
v -0.01407164 -0.05990022 0.01873470
v -0.01391931 -0.05919254 0.02014978
v -0.01406126 -0.06131560 0.01873470
v -0.01382903 -0.05919254 0.02072476
v -0.01381211 -0.05972970 0.02059725
v -0.01375839 -0.05872188 0.02117608
v -0.01326257 -0.05877645 0.02274176
v -0.01211949 -0.06179307 0.02274176
v -0.01185679 -0.06229954 0.02247953
v -0.01380037 -0.05805342 0.01944200
v -0.01381910 -0.05796645 0.02014978
v -0.01384054 -0.05857864 0.01802692
v -0.01374147 -0.05778143 0.02014978
v -0.01396534 -0.05919254 0.01782628
v -0.01185679 -0.06645358 0.01787007
v -0.01205223 -0.06630948 0.01782628
v -0.01388929 -0.05848570 0.02014978
v -0.01410482 -0.05990022 0.01802692
v -0.01415221 -0.06060791 0.01802692
v -0.01399987 -0.05990022 0.01944200
v -0.01407999 -0.06060791 0.01873470
v -0.01413867 -0.06202329 0.01802692
v -0.01409060 -0.06272927 0.01802692
v -0.01400913 -0.06202329 0.01873470
v -0.01381120 -0.06112802 0.01988226
v -0.01320818 -0.05994968 0.02233133
v -0.01385092 -0.06202329 0.01929573
v -0.01316891 -0.05935283 0.02274176
v -0.01230770 -0.06161061 0.02274176
v -0.01237541 -0.06167541 0.02263157
v -0.01185679 -0.06261416 0.02215908
v -0.01397618 -0.05919254 0.01802692
v -0.01400913 -0.05939376 0.01782628
v -0.01410121 -0.05990022 0.01782628
v -0.01185679 -0.06610741 0.01826269
v -0.01197911 -0.06623445 0.01798939
v -0.01213551 -0.06623104 0.01782628
v -0.01412558 -0.06010059 0.01782628
v -0.01415966 -0.06060791 0.01782628
v -0.01414747 -0.06131560 0.01802692
v -0.01416191 -0.06080828 0.01782628
v -0.01415808 -0.06151597 0.01782628
v -0.01415153 -0.06222280 0.01782628
v -0.01411723 -0.06272927 0.01782628
v -0.01388613 -0.06270539 0.01872701
v -0.01380827 -0.06245301 0.01916534
v -0.01409556 -0.06293049 0.01782628
v -0.01391434 -0.06342587 0.01801153
v -0.01315514 -0.06060791 0.02215379
v -0.01311046 -0.05974675 0.02272010
v -0.01320367 -0.06133436 0.02160431
v -0.01310865 -0.06111097 0.02201521
v -0.01311836 -0.05965552 0.02274176
v -0.01247539 -0.06139745 0.02274176
v -0.01304636 -0.06158247 0.02186750
v -0.01252865 -0.06184935 0.02227167
v -0.01236616 -0.06237372 0.02191562
v -0.01189448 -0.06259626 0.02214128
v -0.01185679 -0.06295948 0.02179918
v -0.01231560 -0.06606137 0.01782628
v -0.01185679 -0.06582519 0.01858025
v -0.01382881 -0.06318287 0.01848595
v -0.01314566 -0.06184423 0.02139549
v -0.01396602 -0.06342928 0.01782628
v -0.01391118 -0.06360663 0.01782628
v -0.01384664 -0.06376522 0.01782628
v -0.01309647 -0.05976380 0.02274176
v -0.01310527 -0.05972202 0.02274176
v -0.01305787 -0.06021826 0.02260703
v -0.01298385 -0.06027112 0.02274176
v -0.01301815 -0.06011679 0.02274176
v -0.01301657 -0.06060791 0.02250744
v -0.01252865 -0.06131645 0.02274176
v -0.01303937 -0.06231489 0.02114914
v -0.01280714 -0.06210940 0.02165579
v -0.01288455 -0.06133436 0.02225916
v -0.01275095 -0.06089695 0.02274176
v -0.01286085 -0.06062326 0.02274176
v -0.01256792 -0.06258347 0.02144408
v -0.01255438 -0.06326558 0.02070744
v -0.01253248 -0.06394683 0.01997127
v -0.01250563 -0.06462894 0.01923462
v -0.01233885 -0.06305583 0.02117897
v -0.01186717 -0.06327922 0.02143013
v -0.01185679 -0.06326899 0.02145226
v -0.01242009 -0.06596246 0.01782628
v -0.01185679 -0.06555575 0.01888338
v -0.01222917 -0.06578170 0.01823286
v -0.01247832 -0.06531019 0.01849798
v -0.01315356 -0.06253828 0.02067712
v -0.01380895 -0.06384878 0.01782628
v -0.01314747 -0.06322294 0.01995395
v -0.01302583 -0.06300978 0.02042500
v -0.01300416 -0.06369530 0.01969509
v -0.01295000 -0.06506634 0.01823526
v -0.01277825 -0.06561203 0.01782628
v -0.01185679 -0.06468777 0.01985868
v -0.01185679 -0.06351284 0.02117849
v -0.01251962 -0.06586526 0.01782628
v -0.01269385 -0.06569473 0.01782628
v -0.01376471 -0.06394001 0.01782628
v -0.01332711 -0.06483613 0.01782628
v -0.01323684 -0.06501774 0.01782628
v -0.01315740 -0.06517207 0.01782628
v -0.01310572 -0.06525648 0.01782628
f 1 2 5
f 1 5 13
f 1 13 34
f 1 34 19
f 1 19 18
f 1 18 17
f 1 17 16
f 1 16 7
f 1 7 3
f 1 3 10
f 1 10 28
f 1 28 49
f 1 49 74
f 1 74 89
f 1 89 88
f 1 88 92
f 1 92 91
f 1 91 99
f 1 99 98
f 1 98 94
f 1 94 75
f 1 75 50
f 1 50 29
f 1 29 11
f 1 11 4
f 1 4 2
f 2 4 6
f 2 6 15
f 2 15 37
f 2 37 58
f 2 58 81
f 2 81 107
f 2 107 120
f 2 120 121
f 2 121 117
f 2 117 126
f 2 126 125
f 2 125 124
f 2 124 123
f 2 123 122
f 2 122 112
f 2 112 87
f 2 87 86
f 2 86 85
f 2 85 68
f 2 68 65
f 2 65 64
f 2 64 63
f 2 63 62
f 2 62 60
f 2 60 59
f 2 59 55
f 2 55 54
f 2 54 35
f 2 35 14
f 2 14 5
f 3 7 8
f 3 8 9
f 3 9 10
f 4 11 30
f 4 30 52
f 4 52 80
f 4 80 106
f 4 106 119
f 4 119 118
f 4 118 108
f 4 108 82
f 4 82 56
f 4 56 36
f 4 36 15
f 4 15 6
f 5 12 13
f 5 14 12
f 7 16 8
f 8 16 17
f 8 17 18
f 8 18 19
f 8 19 20
f 8 20 21
f 8 21 22
f 8 22 23
f 8 23 9
f 9 23 24
f 9 24 25
f 9 25 26
f 9 26 27
f 9 27 10
f 10 27 26
f 10 26 28
f 11 29 30
f 12 31 32
f 12 32 13
f 12 14 33
f 12 33 31
f 13 32 34
f 14 35 33
f 15 36 37
f 19 34 32
f 19 32 20
f 20 32 38
f 20 38 21
f 21 38 39
f 21 39 22
f 22 39 40
f 22 40 41
f 22 41 23
f 23 41 24
f 24 41 42
f 24 42 43
f 24 43 44
f 24 44 45
f 24 45 25
f 25 45 26
f 26 46 47
f 26 47 28
f 26 45 48
f 26 48 46
f 28 47 49
f 29 50 51
f 29 51 30
f 30 51 52
f 31 33 53
f 31 53 32
f 32 53 54
f 32 54 55
f 32 55 39
f 32 39 38
f 33 35 53
f 35 54 53
f 36 56 57
f 36 57 37
f 37 57 58
f 39 55 59
f 39 59 60
f 39 60 40
f 40 61 42
f 40 42 41
f 40 60 62
f 40 62 63
f 40 63 61
f 42 61 43
f 43 64 65
f 43 65 44
f 43 61 64
f 44 66 67
f 44 67 48
f 44 48 45
f 44 65 68
f 44 68 69
f 44 69 66
f 46 70 47
f 46 48 70
f 47 70 71
f 47 71 49
f 48 67 72
f 48 72 73
f 48 73 70
f 49 71 74
f 50 75 51
f 51 75 76
f 51 76 77
f 51 77 78
f 51 78 79
f 51 79 52
f 52 79 80
f 56 81 57
f 56 82 81
f 57 81 58
f 61 63 64
f 66 69 83
f 66 83 67
f 67 83 84
f 67 84 76
f 67 76 72
f 68 85 69
f 69 85 86
f 69 86 87
f 69 87 83
f 70 73 71
f 71 88 89
f 71 89 74
f 71 73 90
f 71 90 91
f 71 91 92
f 71 92 88
f 72 76 73
f 73 93 90
f 73 76 93
f 75 94 76
f 76 84 95
f 76 95 96
f 76 96 77
f 76 94 97
f 76 97 98
f 76 98 99
f 76 99 93
f 77 96 78
f 78 96 100
f 78 100 101
f 78 101 102
f 78 102 103
f 78 103 104
f 78 104 105
f 78 105 80
f 78 80 79
f 80 105 106
f 81 82 108
f 81 108 109
f 81 109 110
f 81 110 107
f 83 111 84
f 83 87 112
f 83 112 111
f 84 111 95
f 90 93 91
f 91 93 99
f 94 98 97
f 95 111 113
f 95 113 114
f 95 114 96
f 96 114 100
f 100 114 115
f 100 115 101
f 101 115 116
f 101 116 117
f 101 117 102
f 102 117 103
f 103 117 110
f 103 110 108
f 103 108 118
f 103 118 105
f 103 105 104
f 105 118 119
f 105 119 106
f 107 110 120
f 108 110 109
f 110 117 121
f 110 121 120
f 111 112 122
f 111 122 123
f 111 123 113
f 113 123 124
f 113 124 125
f 113 125 114
f 114 125 126
f 114 126 115
f 115 126 116
f 116 126 117

