# https://github.com/mikedh/trimesh
v 0.03294708 0.03066795 0.04323689
v 0.03081897 0.03344112 0.04323689
v 0.03168968 0.03066795 0.04323689
v 0.03294644 0.03066795 -0.03770287
v 0.03081897 0.03344112 -0.03770287
v 0.03000047 0.03450712 0.04323689
v 0.02636361 0.03687613 0.04323689
v 0.02636297 0.03687613 -0.03735427
v 0.03168968 0.03066795 -0.03770287
v 0.02999983 0.03450712 -0.03770287
v 0.02918390 0.03556703 0.04323689
v 0.02917939 0.03557250 -0.03770287
v 0.02796711 0.03687613 0.04323689
v 0.02636297 0.03687613 -0.03770287
v 0.02880816 0.03603622 0.04323689
v 0.02880816 0.03603561 -0.03770287
v 0.02796646 0.03687613 -0.03770287
f 1 2 6
f 1 6 11
f 1 11 15
f 1 15 13
f 1 13 7
f 1 7 3
f 1 3 9
f 1 9 4
f 1 4 5
f 1 5 2
f 2 5 6
f 3 7 8
f 3 8 14
f 3 14 9
f 4 9 14
f 4 14 17
f 4 17 16
f 4 16 12
f 4 12 10
f 4 10 5
f 5 10 6
f 6 10 12
f 6 12 11
f 7 13 17
f 7 17 14
f 7 14 8
f 11 12 15
f 12 16 15
f 13 15 16
f 13 16 17

