# https://github.com/mikedh/trimesh
v -0.03099846 0.03829144 -0.03811103
v -0.03099846 0.03829144 -0.03769120
v -0.03099846 0.03829281 -0.03987359
v -0.02441149 0.04404204 -0.04385073
v -0.02441084 0.04404204 -0.04196302
v -0.02441020 0.04404204 -0.03987359
v -0.03099846 0.03991143 -0.03769120
v -0.02441020 0.04404204 -0.03769606
v -0.02441020 0.04404959 -0.03769120
v -0.03099846 0.03991143 -0.03987359
v -0.03089849 0.03902562 -0.04389812
v -0.03089849 0.03843484 -0.04389691
v -0.03089849 0.03843210 -0.04384405
v -0.02441149 0.04404341 -0.04389812
v -0.02441084 0.04530112 -0.04196302
v -0.02441020 0.04530112 -0.03987359
v -0.03040381 0.04068609 -0.03769120
v -0.03040381 0.04068747 -0.04196302
v -0.02441020 0.04530112 -0.03769120
v -0.03040381 0.04068747 -0.04384405
v -0.03089849 0.04004180 -0.04384405
v -0.03089849 0.04004111 -0.04385984
v -0.03089849 0.04003906 -0.04389812
v -0.03051603 0.03893161 -0.04389812
v -0.02441149 0.04529838 -0.04389812
v -0.02441149 0.04530043 -0.04384405
v -0.02461594 0.04514399 -0.03987359
v -0.02441084 0.04530112 -0.03987419
v -0.02888041 0.04186970 -0.03769120
v -0.02888106 0.04186970 -0.03987419
v -0.02461594 0.04514399 -0.03769120
v -0.02888106 0.04186970 -0.04196302
v -0.02888041 0.04186901 -0.04384405
v -0.02887977 0.04186833 -0.04389812
v -0.03040316 0.04068609 -0.04389812
v -0.02674882 0.04350547 -0.04389812
v -0.02721255 0.04315074 -0.04384405
v -0.02691458 0.04337991 -0.03769120
f 1 2 7
f 1 7 10
f 1 10 3
f 1 3 4
f 1 4 5
f 1 5 6
f 1 6 8
f 1 8 2
f 2 8 9
f 2 9 19
f 2 19 31
f 2 31 38
f 2 38 29
f 2 29 17
f 2 17 7
f 3 10 23
f 3 23 11
f 3 11 12
f 3 12 13
f 3 13 4
f 4 14 5
f 4 13 14
f 5 14 25
f 5 25 15
f 5 15 16
f 5 16 6
f 6 16 19
f 6 19 9
f 6 9 8
f 7 17 18
f 7 18 20
f 7 20 10
f 10 20 21
f 10 21 22
f 10 22 23
f 11 23 35
f 11 35 34
f 11 34 36
f 11 36 25
f 11 25 14
f 11 14 24
f 11 24 12
f 12 24 14
f 12 14 13
f 15 25 26
f 15 26 27
f 15 27 31
f 15 31 28
f 15 28 19
f 15 19 16
f 17 29 18
f 18 29 30
f 18 30 32
f 18 32 20
f 19 28 31
f 20 32 33
f 20 33 34
f 20 34 35
f 20 35 21
f 21 35 22
f 22 35 23
f 25 36 26
f 26 36 37
f 26 37 27
f 27 37 38
f 27 38 31
f 29 38 30
f 30 38 32
f 32 38 37
f 32 37 33
f 33 37 34
f 34 37 36

