# https://github.com/mikedh/trimesh
v -0.02125781 -0.02801205 -0.04196312
v -0.02125781 -0.02801205 -0.04385079
v -0.02125781 -0.02878265 -0.04195987
v -0.02072195 -0.02835350 -0.04195987
v -0.01552992 -0.03058543 -0.04195987
v -0.02125781 -0.02801391 -0.04391017
v -0.01552992 -0.03058543 -0.04384411
v -0.01553111 -0.03058618 -0.04391017
v -0.02125781 -0.02921776 -0.04195987
v -0.01520272 -0.03073582 -0.04195987
v -0.02125781 -0.02921552 -0.04391017
v -0.01520272 -0.03073582 -0.04384411
v -0.01520272 -0.03073694 -0.04391017
v -0.02125781 -0.02921776 -0.04384411
v -0.02075752 -0.02950846 -0.04195987
v -0.01520272 -0.03096719 -0.04195987
v -0.02125781 -0.02921664 -0.04388554
v -0.02075693 -0.02950734 -0.04391017
v -0.01520272 -0.03182287 -0.04391017
v -0.02075752 -0.02950846 -0.04384411
v -0.02031057 -0.02970811 -0.04195987
v -0.01572198 -0.03160867 -0.04195987
v -0.01520272 -0.03182362 -0.04196293
v -0.02072373 -0.02952264 -0.04391017
v -0.01520272 -0.03182362 -0.04385079
v -0.01778777 -0.03075336 -0.04384411
v -0.02029338 -0.02971483 -0.04391017
v -0.02029457 -0.02971520 -0.04384411
v -0.02029457 -0.02971520 -0.04195987
v -0.01574273 -0.03160008 -0.04195987
v -0.01574273 -0.03160008 -0.04384411
v -0.01778777 -0.03075336 -0.04195987
v -0.02027679 -0.02972266 -0.04195987
f 1 2 6
f 1 6 11
f 1 11 17
f 1 17 14
f 1 14 9
f 1 9 3
f 1 3 4
f 1 4 5
f 1 5 7
f 1 7 2
f 2 7 8
f 2 8 6
f 3 9 15
f 3 15 21
f 3 21 29
f 3 29 33
f 3 33 32
f 3 32 30
f 3 30 22
f 3 22 16
f 3 16 10
f 3 10 5
f 3 5 4
f 5 10 12
f 5 12 7
f 6 8 13
f 6 13 19
f 6 19 27
f 6 27 24
f 6 24 18
f 6 18 11
f 7 12 13
f 7 13 8
f 9 14 20
f 9 20 15
f 10 16 23
f 10 23 25
f 10 25 19
f 10 19 13
f 10 13 12
f 11 18 17
f 14 17 18
f 14 18 20
f 15 20 21
f 16 22 23
f 18 24 20
f 19 25 26
f 19 26 27
f 20 24 27
f 20 27 28
f 20 28 21
f 21 28 29
f 22 30 23
f 23 30 31
f 23 31 25
f 25 31 26
f 26 31 30
f 26 30 32
f 26 32 33
f 26 33 28
f 26 28 27
f 28 33 29

