# https://github.com/mikedh/trimesh
v -0.03640479 0.03285635 0.04508050
v -0.03603653 0.03336622 0.04318657
v -0.03605342 0.03334271 0.04318657
v -0.03639635 0.03285635 0.04318657
v -0.03640311 0.03285635 0.04510203
v -0.03601907 0.03334344 0.04559149
v -0.03603653 0.03336622 0.04508050
v -0.03602076 0.03338679 0.04318657
v -0.03514403 0.03285635 0.04318657
v -0.03619814 0.03285635 0.04574851
v -0.03521441 0.03442563 0.04508050
v -0.03567784 0.03382907 0.04508050
v -0.03515979 0.03435363 0.04564638
v -0.03065221 0.04036041 0.04415437
v -0.03158920 0.03916214 0.04415437
v -0.03521835 0.03443298 0.04415437
v -0.03520259 0.03445355 0.04318657
v -0.03240794 0.03809538 0.04415437
v -0.03493117 0.03313259 0.04318657
v -0.03065221 0.03285635 0.04530560
v -0.03618857 0.03285635 0.04575581
v -0.03548976 0.03369535 0.04577422
v -0.03458543 0.03467249 0.04580653
v -0.03427010 0.03532268 0.04565125
v -0.03065221 0.04006139 0.04484045
v -0.03065221 0.04007094 0.04482864
v -0.03151037 0.03905928 0.04482691
v -0.03065221 0.04036114 0.04322825
v -0.03158920 0.03916214 0.04318657
v -0.03240794 0.03809538 0.04318657
v -0.03131723 0.03784118 0.04318657
v -0.03065221 0.03285635 0.04662670
v -0.03130146 0.03786175 0.04318657
v -0.03065221 0.03875145 0.04318657
v -0.03552017 0.03285635 0.04613341
v -0.03549934 0.03285635 0.04614279
v -0.03459500 0.03376074 0.04615564
v -0.03367547 0.03562390 0.04579958
v -0.03337196 0.03626822 0.04564256
v -0.03120010 0.03871031 0.04544386
v -0.03065221 0.03945234 0.04526600
v -0.03065221 0.04036114 0.04318657
v -0.03067305 0.03285635 0.04663329
v -0.03065221 0.03286590 0.04663017
v -0.03463161 0.03285635 0.04637311
v -0.03065221 0.03770306 0.04603684
v -0.03065221 0.03839586 0.04582077
v -0.03065221 0.03863023 0.04574747
v -0.03089097 0.03839733 0.04575164
v -0.03182796 0.03748192 0.04576519
v -0.03276100 0.03656209 0.04578117
v -0.03246425 0.03718363 0.04563388
v -0.03152726 0.03809244 0.04562519
v -0.03065221 0.03896818 0.04559670
v -0.03076370 0.03285635 0.04665588
v -0.03065221 0.03288133 0.04663364
v -0.03461584 0.03285635 0.04637588
v -0.03335451 0.03341911 0.04648878
v -0.03065221 0.03544464 0.04651935
v -0.03136622 0.03516032 0.04647141
v -0.03065221 0.03886386 0.04564708
v -0.03083634 0.03285635 0.04666178
v -0.03065221 0.03297757 0.04665483
v -0.03416086 0.03285635 0.04645544
v -0.03366083 0.03285635 0.04653221
v -0.03181669 0.03376074 0.04663295
v -0.03269850 0.03374091 0.04652283
v -0.03065221 0.03495901 0.04659543
v -0.03179473 0.03285635 0.04673543
v -0.03065221 0.03304075 0.04665900
v -0.03089040 0.03376074 0.04672431
v -0.03272103 0.03285635 0.04663538
v -0.03065221 0.03399878 0.04672049
v -0.03065221 0.03468718 0.04663364
v -0.03089040 0.03468718 0.04660724
f 1 2 3
f 1 3 4
f 1 4 9
f 1 9 20
f 1 20 32
f 1 32 43
f 1 43 55
f 1 55 62
f 1 62 69
f 1 69 72
f 1 72 65
f 1 65 64
f 1 64 57
f 1 57 45
f 1 45 36
f 1 36 35
f 1 35 21
f 1 21 10
f 1 10 5
f 1 5 6
f 1 6 7
f 1 7 2
f 2 7 8
f 2 8 17
f 2 17 30
f 2 30 29
f 2 29 42
f 2 42 34
f 2 34 33
f 2 33 31
f 2 31 19
f 2 19 9
f 2 9 4
f 2 4 3
f 5 10 6
f 6 11 12
f 6 12 7
f 6 10 13
f 6 13 14
f 6 14 15
f 6 15 11
f 7 16 17
f 7 17 8
f 7 12 15
f 7 15 18
f 7 18 16
f 9 19 20
f 10 21 13
f 11 15 12
f 13 21 22
f 13 22 23
f 13 23 24
f 13 24 25
f 13 25 26
f 13 26 27
f 13 27 14
f 14 27 26
f 14 26 25
f 14 25 41
f 14 41 54
f 14 54 61
f 14 61 48
f 14 48 47
f 14 47 46
f 14 46 59
f 14 59 68
f 14 68 74
f 14 74 73
f 14 73 70
f 14 70 63
f 14 63 56
f 14 56 44
f 14 44 32
f 14 32 20
f 14 20 34
f 14 34 42
f 14 42 28
f 14 28 15
f 15 28 42
f 15 42 29
f 15 29 30
f 15 30 18
f 16 18 17
f 17 18 30
f 19 31 20
f 20 31 33
f 20 33 34
f 21 35 22
f 22 35 23
f 23 35 36
f 23 36 37
f 23 37 38
f 23 38 39
f 23 39 24
f 24 39 25
f 25 40 41
f 25 39 40
f 32 44 43
f 36 45 37
f 37 45 46
f 37 46 47
f 37 47 48
f 37 48 49
f 37 49 50
f 37 50 51
f 37 51 38
f 38 51 52
f 38 52 39
f 39 52 40
f 40 53 54
f 40 54 41
f 40 52 53
f 43 44 56
f 43 56 55
f 45 57 58
f 45 58 46
f 46 58 60
f 46 60 59
f 48 61 49
f 49 61 53
f 49 53 50
f 50 53 51
f 51 53 52
f 53 61 54
f 55 56 63
f 55 63 62
f 57 64 58
f 58 64 65
f 58 65 66
f 58 66 67
f 58 67 59
f 58 59 60
f 59 67 68
f 62 63 70
f 62 70 71
f 62 71 69
f 65 72 66
f 66 72 69
f 66 69 71
f 66 71 73
f 66 73 74
f 66 74 75
f 66 75 68
f 66 68 67
f 68 75 74
f 70 73 71

