# https://github.com/mikedh/trimesh
v 0.03416496 0.02382500 -0.04194657
v 0.03542424 0.02382500 -0.03770287
v 0.03631922 0.02382500 -0.04194657
v 0.03689579 0.01169235 -0.04194657
v 0.03866069 0.00922064 -0.03770287
v 0.03652617 0.02382500 -0.03770287
v 0.03638429 0.02382500 -0.04184189
v 0.03642110 0.02360914 -0.04194657
v 0.03763556 0.00922064 -0.04194657
v 0.03958021 0.00922064 -0.03770287
v 0.03652617 0.02382500 -0.04106510
v 0.03720034 0.02219817 -0.03770287
v 0.03726488 0.02171355 -0.04194657
v 0.03638909 0.02382500 -0.04182112
v 0.03719767 0.02219245 -0.04154862
v 0.03820147 0.01960209 -0.04194657
v 0.03957488 0.00922064 -0.04194657
v 0.03961328 0.00922064 -0.04106510
v 0.03958021 0.00967667 -0.03770287
v 0.03720034 0.02219817 -0.04106510
v 0.03650163 0.02382500 -0.04132098
v 0.03739928 0.02171783 -0.03770287
v 0.03739928 0.02171783 -0.04106510
v 0.03823773 0.01969072 -0.04106510
v 0.03844361 0.01893877 -0.04106510
v 0.03821106 0.01956635 -0.04194657
v 0.03957168 0.00967667 -0.04194657
v 0.03961274 0.00967667 -0.04106510
v 0.03953754 0.01060302 -0.03770287
v 0.03823773 0.01969072 -0.03770287
v 0.03836734 0.01921754 -0.03770287
v 0.03858282 0.01801242 -0.04106510
v 0.03836894 0.01889446 -0.04194657
v 0.03836201 0.01893877 -0.04194657
v 0.03844361 0.01893877 -0.03770287
v 0.03948260 0.01060302 -0.04194657
v 0.03954661 0.01060302 -0.04106510
v 0.03944580 0.01152938 -0.03770287
v 0.03909325 0.01420694 -0.04106510
v 0.03907351 0.01405969 -0.04194657
v 0.03858282 0.01801242 -0.03770287
v 0.03938980 0.01148506 -0.04194657
v 0.03938500 0.01152938 -0.04194657
v 0.03944580 0.01152938 -0.04106510
v 0.03909325 0.01420694 -0.03770287
v 0.03907885 0.01401967 -0.04194657
v 0.03928099 0.01241141 -0.04194657
v 0.03916579 0.01333777 -0.04194657
f 1 2 6
f 1 6 11
f 1 11 21
f 1 21 14
f 1 14 7
f 1 7 3
f 1 3 8
f 1 8 13
f 1 13 16
f 1 16 26
f 1 26 34
f 1 34 33
f 1 33 40
f 1 40 46
f 1 46 48
f 1 48 47
f 1 47 43
f 1 43 42
f 1 42 36
f 1 36 27
f 1 27 17
f 1 17 9
f 1 9 4
f 1 4 5
f 1 5 2
f 2 5 10
f 2 10 19
f 2 19 29
f 2 29 38
f 2 38 45
f 2 45 41
f 2 41 35
f 2 35 31
f 2 31 30
f 2 30 22
f 2 22 12
f 2 12 6
f 3 7 8
f 4 9 5
f 5 9 17
f 5 17 18
f 5 18 10
f 6 12 20
f 6 20 11
f 7 13 8
f 7 14 15
f 7 15 16
f 7 16 13
f 10 18 19
f 11 20 15
f 11 15 21
f 12 22 23
f 12 23 20
f 14 21 15
f 15 20 23
f 15 23 24
f 15 24 16
f 16 24 25
f 16 25 26
f 17 27 28
f 17 28 18
f 18 28 19
f 19 28 29
f 22 30 24
f 22 24 23
f 24 30 31
f 24 31 25
f 25 32 33
f 25 33 34
f 25 34 26
f 25 31 35
f 25 35 41
f 25 41 32
f 27 36 37
f 27 37 28
f 28 37 29
f 29 37 38
f 32 39 40
f 32 40 33
f 32 41 45
f 32 45 39
f 36 42 37
f 37 42 43
f 37 43 44
f 37 44 38
f 38 44 39
f 38 39 45
f 39 44 46
f 39 46 40
f 43 47 44
f 44 47 48
f 44 48 46

