# https://github.com/mikedh/trimesh
v 0.00102410 0.00930330 -0.04260137
v -0.02758433 -0.01408390 -0.04195985
v 0.00102410 -0.01408390 -0.04260137
v 0.00102410 0.00930330 -0.04373143
v -0.03568601 0.00930330 -0.04195985
v -0.02939177 -0.01408390 -0.04195985
v 0.00102410 -0.01408390 -0.04373143
v -0.03180918 0.00930330 -0.04373143
v -0.03685729 0.00930330 -0.04195985
v -0.02950030 -0.01394655 -0.04195985
v -0.02939177 -0.01408390 -0.04231833
v -0.02472536 -0.01408390 -0.04373143
v -0.03180918 0.00411810 -0.04373143
v -0.03274097 0.00930330 -0.04373125
v -0.03707433 0.00930330 -0.04214456
v -0.03719782 0.00929872 -0.04195985
v -0.03150981 -0.01132762 -0.04195985
v -0.02950030 -0.01394655 -0.04199194
v -0.02950030 -0.01394426 -0.04245673
v -0.02930196 -0.01408390 -0.04252038
v -0.02564966 -0.01408390 -0.04373073
v -0.02625589 -0.01347953 -0.04373125
v -0.02810823 -0.01162751 -0.04373143
v -0.03088488 -0.00699631 -0.04373143
v -0.03274097 0.00597012 -0.04373073
v -0.03329480 0.00930330 -0.04372674
v -0.03180918 -0.00144254 -0.04373125
v -0.03180918 -0.00514201 -0.04373073
v -0.03687225 0.00930330 -0.04242117
v -0.03688722 0.00874930 -0.04243522
v -0.03690219 0.00818156 -0.04244910
v -0.03691716 0.00756346 -0.04246176
v -0.03692839 0.00689499 -0.04247303
v -0.03693961 0.00597012 -0.04248673
v -0.03720530 0.00874930 -0.04195985
v -0.03195512 -0.01074385 -0.04195985
v -0.03195512 -0.01074385 -0.04199194
v -0.03229565 -0.01026768 -0.04258160
v -0.03220210 -0.01012346 -0.04319865
v -0.03127031 -0.01108724 -0.04329959
v -0.02917099 -0.01408390 -0.04262981
v -0.02657771 -0.01408390 -0.04370454
v -0.02718019 -0.01347953 -0.04370853
v -0.02810823 -0.01255238 -0.04371304
v -0.02903253 -0.01162751 -0.04371669
v -0.02996058 -0.01070036 -0.04371963
v -0.03088488 -0.00977549 -0.04372154
v -0.02996058 -0.00977549 -0.04373143
v -0.03088488 -0.00884834 -0.04373125
v -0.03274097 0.00504297 -0.04373056
v -0.03274097 0.00411810 -0.04373039
v -0.03366527 0.00930330 -0.04372345
v -0.03180918 -0.00606916 -0.04373056
v -0.03640823 0.00930330 -0.04272277
v -0.03521076 0.00930330 -0.04349626
v -0.03588059 0.00133664 -0.04333133
v -0.03589931 0.00041406 -0.04334069
v -0.03693587 0.00504297 -0.04248482
v -0.03713794 0.00692704 -0.04195985
v -0.03692090 0.00444089 -0.04246974
v -0.03230688 -0.01028142 -0.04195985
v -0.03230688 -0.01028142 -0.04199194
v -0.03242663 -0.00979838 -0.04290105
v -0.03255386 -0.00977549 -0.04199194
v -0.03336964 -0.00785937 -0.04199194
v -0.03506107 -0.00376386 -0.04247598
v -0.03418916 -0.00574408 -0.04268132
v -0.03330228 -0.00771286 -0.04291770
v -0.03322370 -0.00752972 -0.04340521
v -0.03234056 -0.00950307 -0.04344145
v -0.03158465 -0.01047143 -0.04348464
v -0.03033104 -0.01200295 -0.04332196
v -0.02899885 -0.01408390 -0.04276179
v -0.02749453 -0.01408390 -0.04355314
v -0.02811197 -0.01348869 -0.04355834
v -0.02905873 -0.01257985 -0.04356494
v -0.02999800 -0.01166643 -0.04356996
v -0.03092978 -0.01074843 -0.04357395
v -0.03186157 -0.00979838 -0.04354950
v -0.03180918 -0.00884834 -0.04367870
v -0.03180918 -0.00792118 -0.04371963
v -0.03180918 -0.00699631 -0.04372952
v -0.03274097 0.00319095 -0.04372935
v -0.03274097 0.00133893 -0.04372726
v -0.03366527 0.00782214 -0.04372154
v -0.03459331 0.00133664 -0.04366986
v -0.03459331 0.00226379 -0.04367055
v -0.03459331 0.00319095 -0.04367072
v -0.03371017 0.00930330 -0.04372085
v -0.03541657 0.00133664 -0.04351360
v -0.03459331 0.00930330 -0.04366396
v -0.03543528 0.00041406 -0.04351360
v -0.03540160 -0.00051310 -0.04351152
v -0.03586188 -0.00051310 -0.04328849
v -0.03708930 0.00600217 -0.04195985
v -0.03614628 -0.00051310 -0.04282578
v -0.03644565 0.00041406 -0.04199177
v -0.03694710 0.00432185 -0.04195985
v -0.03701819 0.00507502 -0.04195985
v -0.03255386 -0.00977549 -0.04195985
v -0.03336964 -0.00785937 -0.04195985
v -0.03422658 -0.00579216 -0.04195985
v -0.03526314 -0.00328998 -0.04199177
v -0.03610138 -0.00126398 -0.04199177
v -0.03606022 -0.00117012 -0.04266848
v -0.03330228 -0.00699631 -0.04345984
v -0.03246031 -0.00884834 -0.04350371
v -0.03407315 -0.00548768 -0.04329838
v -0.03506107 -0.00283671 -0.04338422
v -0.03065661 -0.01138485 -0.04348221
v -0.02971360 -0.01228682 -0.04347805
v -0.02876310 -0.01318422 -0.04347354
v -0.02938055 -0.01290493 -0.04331329
v -0.02843754 -0.01408390 -0.04311801
v -0.02780512 -0.01408390 -0.04346729
v -0.03274097 -0.00699631 -0.04363344
v -0.03274097 -0.00606916 -0.04369448
v -0.03274097 -0.00514201 -0.04371582
v -0.03274097 -0.00421714 -0.04371963
v -0.03274097 -0.00236970 -0.04372241
v -0.03366527 0.00504297 -0.04371738
v -0.03459331 0.00041406 -0.04366865
v -0.03459331 0.00411810 -0.04367038
v -0.03459331 0.00504297 -0.04366986
v -0.03459331 0.00597012 -0.04366899
v -0.03459331 0.00689499 -0.04366795
v -0.03459331 0.00782214 -0.04366656
v -0.03459331 0.00874930 -0.04366500
v -0.03459331 -0.00051310 -0.04366500
v -0.03527437 -0.00144025 -0.04349244
v -0.03459331 -0.00144025 -0.04364419
v -0.03512469 -0.00236512 -0.04343053
v -0.03630719 -0.00051310 -0.04199177
v -0.03644565 0.00041406 -0.04195985
v -0.03526314 -0.00328998 -0.04195985
v -0.03610138 -0.00126398 -0.04195985
v -0.03429020 -0.00421485 -0.04348273
v -0.03347442 -0.00606916 -0.04352002
v -0.02827663 -0.01408390 -0.04321617
v -0.03459331 -0.00236512 -0.04358054
v -0.03371017 -0.00417135 -0.04364003
v -0.03366527 -0.00421714 -0.04364644
v -0.03366527 -0.00328998 -0.04368737
v -0.03366527 -0.00236970 -0.04369743
v -0.03366527 -0.00144254 -0.04370038
v -0.03366527 0.00041177 -0.04370593
v -0.03366527 0.00319095 -0.04371339
v -0.03366527 0.00411810 -0.04371564
v -0.03370643 -0.00047189 -0.04370177
v -0.03370643 -0.00139904 -0.04369900
v -0.03370643 0.00133893 -0.04370680
v -0.03630719 -0.00051310 -0.04195985
f 1 2 3
f 1 3 7
f 1 7 4
f 1 4 8
f 1 8 14
f 1 14 26
f 1 26 52
f 1 52 89
f 1 89 91
f 1 91 55
f 1 55 54
f 1 54 29
f 1 29 15
f 1 15 9
f 1 9 5
f 1 5 2
f 2 6 11
f 2 11 20
f 2 20 41
f 2 41 73
f 2 73 114
f 2 114 139
f 2 139 115
f 2 115 74
f 2 74 42
f 2 42 21
f 2 21 12
f 2 12 7
f 2 7 3
f 2 5 9
f 2 9 16
f 2 16 35
f 2 35 59
f 2 59 95
f 2 95 99
f 2 99 98
f 2 98 134
f 2 134 152
f 2 152 136
f 2 136 135
f 2 135 102
f 2 102 101
f 2 101 100
f 2 100 61
f 2 61 36
f 2 36 17
f 2 17 10
f 2 10 6
f 4 7 12
f 4 12 23
f 4 23 48
f 4 48 24
f 4 24 13
f 4 13 8
f 6 10 18
f 6 18 11
f 8 13 14
f 9 15 16
f 10 17 18
f 11 18 19
f 11 19 20
f 12 21 22
f 12 22 23
f 13 24 14
f 14 25 26
f 14 24 27
f 14 27 28
f 14 28 25
f 15 29 30
f 15 30 31
f 15 31 32
f 15 32 16
f 16 32 33
f 16 33 34
f 16 34 35
f 17 19 18
f 17 36 37
f 17 37 19
f 19 37 38
f 19 38 39
f 19 39 40
f 19 40 20
f 20 40 41
f 21 42 43
f 21 43 44
f 21 44 45
f 21 45 46
f 21 46 47
f 21 47 22
f 22 47 23
f 23 47 48
f 24 48 49
f 24 49 27
f 25 50 26
f 25 28 53
f 25 53 50
f 26 50 51
f 26 51 52
f 27 49 28
f 28 49 53
f 29 54 30
f 30 54 31
f 31 54 55
f 31 55 32
f 32 55 56
f 32 56 33
f 33 56 57
f 33 57 34
f 34 58 35
f 34 57 58
f 35 58 60
f 35 60 59
f 36 61 62
f 36 62 37
f 37 62 38
f 38 63 39
f 38 62 64
f 38 64 65
f 38 65 66
f 38 66 67
f 38 67 63
f 39 63 68
f 39 68 69
f 39 69 70
f 39 70 71
f 39 71 40
f 40 71 72
f 40 72 73
f 40 73 41
f 42 74 75
f 42 75 76
f 42 76 77
f 42 77 78
f 42 78 43
f 43 78 44
f 44 78 45
f 45 78 46
f 46 78 47
f 47 49 48
f 47 78 79
f 47 79 80
f 47 80 81
f 47 81 82
f 47 82 49
f 49 82 53
f 50 53 51
f 51 83 52
f 51 53 82
f 51 82 83
f 52 83 84
f 52 84 85
f 52 85 86
f 52 86 87
f 52 87 88
f 52 88 89
f 55 90 57
f 55 57 56
f 55 91 90
f 57 90 92
f 57 92 93
f 57 93 94
f 57 94 60
f 57 60 58
f 59 60 95
f 60 96 97
f 60 97 98
f 60 98 99
f 60 99 95
f 60 94 96
f 61 100 64
f 61 64 62
f 63 67 68
f 64 100 101
f 64 101 65
f 65 101 102
f 65 102 103
f 65 103 66
f 66 103 104
f 66 104 105
f 66 105 67
f 67 105 69
f 67 69 68
f 69 106 107
f 69 107 70
f 69 105 108
f 69 108 109
f 69 109 106
f 70 107 79
f 70 79 71
f 71 79 78
f 71 78 110
f 71 110 72
f 72 110 111
f 72 111 112
f 72 112 113
f 72 113 114
f 72 114 73
f 74 115 112
f 74 112 111
f 74 111 75
f 75 111 76
f 76 111 110
f 76 110 77
f 77 110 78
f 79 107 80
f 80 107 116
f 80 116 117
f 80 117 81
f 81 117 118
f 81 118 82
f 82 118 119
f 82 119 120
f 82 120 84
f 82 84 83
f 84 120 85
f 85 120 121
f 85 121 122
f 85 122 86
f 86 122 92
f 86 92 87
f 87 92 88
f 88 123 89
f 88 92 123
f 89 123 124
f 89 124 125
f 89 125 126
f 89 126 127
f 89 127 128
f 89 128 91
f 90 91 92
f 91 128 92
f 92 128 127
f 92 127 126
f 92 126 125
f 92 125 124
f 92 124 123
f 92 122 129
f 92 129 93
f 93 130 94
f 93 129 131
f 93 131 130
f 94 105 96
f 94 130 132
f 94 132 109
f 94 109 105
f 96 133 97
f 96 105 133
f 97 133 152
f 97 152 134
f 97 134 98
f 102 135 103
f 103 135 136
f 103 136 104
f 104 133 105
f 104 136 152
f 104 152 133
f 105 109 108
f 106 109 132
f 106 132 137
f 106 137 138
f 106 138 107
f 107 138 116
f 112 115 113
f 113 115 139
f 113 139 114
f 116 138 137
f 116 137 130
f 116 130 140
f 116 140 141
f 116 141 142
f 116 142 117
f 117 142 131
f 117 131 143
f 117 143 118
f 118 143 144
f 118 144 119
f 119 144 145
f 119 145 146
f 119 146 147
f 119 147 148
f 119 148 121
f 119 121 120
f 121 148 122
f 122 149 150
f 122 150 144
f 122 144 129
f 122 148 147
f 122 147 151
f 122 151 146
f 122 146 149
f 129 144 143
f 129 143 131
f 130 137 132
f 130 131 140
f 131 142 140
f 140 142 141
f 144 150 145
f 145 150 149
f 145 149 146
f 146 151 147

