# https://github.com/mikedh/trimesh
v 0.02867493 -0.01774030 -0.03769179
v 0.02707364 -0.01690320 -0.04196972
v 0.02931781 -0.01690320 -0.04196972
v 0.02936615 -0.01690320 -0.04106076
v 0.02880898 -0.01760745 -0.03769179
v 0.02867493 -0.01774030 0.04256322
v 0.03480014 -0.00572931 -0.04196972
v 0.02867584 -0.01773913 0.04322201
v 0.02867493 -0.01770973 0.04322201
v 0.02867493 -0.01614722 0.04322201
v 0.03474177 -0.00721305 0.04318865
v 0.03076226 -0.01493625 -0.04196972
v 0.03443355 -0.01026988 -0.04156111
v 0.03163859 -0.01394513 -0.04152775
v 0.03000174 -0.01607903 -0.04106076
v 0.02918012 -0.01714539 -0.03769179
v 0.02904698 -0.01731117 -0.03769179
v 0.02880898 -0.01760745 0.04322201
v 0.03620810 -0.00572931 -0.04196972
v 0.03528526 -0.00572931 -0.03769179
v 0.02971723 -0.01477635 0.04322201
v 0.03004460 -0.01434957 0.04322201
v 0.03573392 -0.00721305 0.04318865
v 0.03116349 -0.01438837 -0.04196972
v 0.03315690 -0.01158549 -0.04196972
v 0.03381802 -0.01064846 -0.04196972
v 0.03428492 -0.00996184 -0.04196972
v 0.03449009 -0.00959973 -0.04196972
v 0.03455119 -0.00977726 -0.04174456
v 0.03541840 -0.00765394 -0.04196972
v 0.03545032 -0.00772801 -0.04181128
v 0.03632300 -0.00574812 -0.04167785
v 0.03550594 -0.00786321 -0.04106076
v 0.03468980 -0.00977726 -0.04106076
v 0.03444359 -0.01028516 -0.04106076
v 0.03409159 -0.01074721 -0.04106076
v 0.03046498 -0.01547590 -0.04106076
v 0.03000174 -0.01607903 0.04322201
v 0.02918012 -0.01714539 0.04322201
v 0.03631480 -0.00572931 -0.04171955
v 0.03638866 -0.00572931 -0.03769179
v 0.03132946 -0.01434957 0.04322201
v 0.03551598 -0.00783852 0.04318865
v 0.03632665 -0.00572931 -0.04168619
v 0.03638866 -0.00572931 -0.04106076
v 0.03635218 -0.00581866 -0.04106076
v 0.03550777 -0.00786204 0.04318865
v 0.03469071 -0.00977726 -0.03768345
v 0.03453295 -0.01010293 -0.03768345
v 0.03444450 -0.01028516 -0.03768345
v 0.03409159 -0.01074839 -0.03768345
v 0.03132946 -0.01434957 -0.03768345
v 0.03082062 -0.01501267 0.04322201
v 0.03046498 -0.01547590 -0.03769179
v 0.03635218 -0.00581866 -0.03769179
v 0.03409342 -0.01074839 0.04318865
v 0.03443538 -0.01029810 0.04318865
v 0.03444450 -0.01028516 0.04318865
v 0.03445179 -0.01027223 0.04318865
v 0.03469162 -0.00977726 0.04318865
f 1 2 3
f 1 3 4
f 1 4 5
f 1 5 18
f 1 18 6
f 1 6 2
f 2 7 19
f 2 19 30
f 2 30 28
f 2 28 27
f 2 27 26
f 2 26 25
f 2 25 24
f 2 24 12
f 2 12 3
f 2 6 8
f 2 8 9
f 2 9 10
f 2 10 11
f 2 11 7
f 3 12 13
f 3 13 14
f 3 14 4
f 4 14 15
f 4 15 16
f 4 16 17
f 4 17 5
f 5 17 18
f 6 18 8
f 7 11 20
f 7 20 41
f 7 41 45
f 7 45 44
f 7 44 40
f 7 40 19
f 8 18 39
f 8 39 38
f 8 38 53
f 8 53 42
f 8 42 22
f 8 22 21
f 8 21 10
f 8 10 9
f 10 21 11
f 11 21 22
f 11 22 42
f 11 42 23
f 11 23 41
f 11 41 20
f 12 24 13
f 13 24 25
f 13 25 26
f 13 26 27
f 13 27 28
f 13 28 29
f 13 29 30
f 13 30 31
f 13 31 32
f 13 32 33
f 13 33 34
f 13 34 35
f 13 35 14
f 14 35 36
f 14 36 37
f 14 37 15
f 15 37 54
f 15 54 38
f 15 38 39
f 15 39 16
f 16 39 17
f 17 39 18
f 19 40 30
f 23 42 43
f 23 43 41
f 28 30 29
f 30 40 31
f 31 40 32
f 32 40 44
f 32 44 45
f 32 45 46
f 32 46 33
f 33 46 47
f 33 47 48
f 33 48 34
f 34 48 49
f 34 49 35
f 35 49 50
f 35 50 36
f 36 50 51
f 36 51 37
f 37 51 52
f 37 52 53
f 37 53 54
f 38 54 53
f 41 55 46
f 41 46 45
f 41 43 47
f 41 47 55
f 42 53 56
f 42 56 57
f 42 57 58
f 42 58 59
f 42 59 60
f 42 60 47
f 42 47 43
f 46 55 47
f 47 60 48
f 48 60 49
f 49 60 59
f 49 59 50
f 50 59 58
f 50 58 57
f 50 57 56
f 50 56 51
f 51 56 52
f 52 56 53

