# https://github.com/mikedh/trimesh
v 0.01680133 -0.02471277 0.04324626
v 0.01680133 -0.02572748 0.04324626
v 0.01680133 -0.02471231 0.04322249
v 0.00102410 -0.02837947 0.04324626
v 0.01610174 -0.02607445 0.04324626
v 0.01609710 -0.02607310 -0.03769278
v 0.01680133 -0.02572341 -0.03769278
v 0.01680133 -0.02471231 -0.03769278
v 0.00102410 -0.02929976 0.04324626
v 0.00102410 -0.02837947 -0.03769278
v 0.01154895 -0.02795705 0.04324626
v 0.01357207 -0.02711853 -0.03769278
v 0.01405236 -0.02691975 -0.03769278
v 0.00154918 -0.02929976 0.04324626
v 0.00102410 -0.02932732 -0.03137833
v 0.00102410 -0.02929886 -0.03769278
v 0.01079221 -0.02816758 0.04324626
v 0.01154431 -0.02795660 -0.03769278
v 0.00245727 -0.02925910 0.04324626
v 0.00153065 -0.02932145 -0.02716342
v 0.00102410 -0.02932732 -0.03179824
v 0.00153065 -0.02929886 -0.03769278
v 0.00986713 -0.02831170 0.04324626
v 0.01079221 -0.02816261 -0.03769278
v 0.01127405 -0.02803069 -0.03769278
v 0.00247580 -0.02925820 0.04324626
v 0.00153065 -0.02932145 -0.03179824
v 0.00212523 -0.02927175 -0.03769278
v 0.00523713 -0.02892930 0.04324626
v 0.00606027 -0.02881228 -0.03769278
v 0.00986713 -0.02830222 -0.03769278
v 0.01046017 -0.02821276 -0.03769278
v 0.00338389 -0.02917010 0.04324626
v 0.00245727 -0.02925639 -0.03769278
v 0.00432904 -0.02904902 0.04324626
v 0.00523713 -0.02892071 -0.03769278
v 0.00340242 -0.02916829 0.04324626
v 0.00305185 -0.02919766 -0.03769278
v 0.00338389 -0.02916468 -0.03769278
f 1 2 7
f 1 7 8
f 1 8 3
f 1 3 4
f 1 4 9
f 1 9 14
f 1 14 19
f 1 19 26
f 1 26 33
f 1 33 37
f 1 37 35
f 1 35 29
f 1 29 23
f 1 23 17
f 1 17 11
f 1 11 5
f 1 5 2
f 2 5 6
f 2 6 7
f 3 8 10
f 3 10 4
f 4 10 16
f 4 16 21
f 4 21 15
f 4 15 9
f 5 11 12
f 5 12 13
f 5 13 6
f 6 13 12
f 6 12 18
f 6 18 25
f 6 25 24
f 6 24 32
f 6 32 31
f 6 31 30
f 6 30 36
f 6 36 39
f 6 39 38
f 6 38 34
f 6 34 28
f 6 28 22
f 6 22 16
f 6 16 10
f 6 10 8
f 6 8 7
f 9 15 14
f 11 17 18
f 11 18 12
f 14 15 20
f 14 20 19
f 15 21 27
f 15 27 20
f 16 22 21
f 17 23 24
f 17 24 25
f 17 25 18
f 19 20 26
f 20 27 26
f 21 22 27
f 22 28 27
f 23 29 30
f 23 30 31
f 23 31 32
f 23 32 24
f 26 27 34
f 26 34 33
f 27 28 34
f 29 35 30
f 30 35 36
f 33 34 37
f 34 38 37
f 35 37 39
f 35 39 36
f 37 38 39

