# https://github.com/mikedh/trimesh
v -0.03362979 -0.00715542 -0.04195968
v -0.03337093 -0.00786214 -0.03768723
v -0.03361634 -0.00715542 -0.03768723
v -0.03213717 -0.00715542 -0.04195968
v -0.03337093 -0.00786214 -0.04195968
v -0.03255571 -0.00977669 -0.03768723
v -0.03263051 -0.00715542 -0.03768723
v -0.02504389 -0.01693494 -0.04195968
v -0.03255571 -0.00977669 -0.04195968
v -0.03231030 -0.01028365 -0.03768723
v -0.02504389 -0.01778767 -0.03768723
v -0.02504389 -0.01881562 -0.04195968
v -0.03231030 -0.01028365 -0.04195968
v -0.03208254 -0.01058386 -0.03768723
v -0.02504389 -0.01908896 -0.03768723
v -0.02504389 -0.01908896 -0.04106513
v -0.02521534 -0.01895696 -0.04106513
v -0.02529350 -0.01889622 -0.04106513
v -0.02513045 -0.01874787 -0.04195968
v -0.03195816 -0.01074740 -0.04195968
v -0.03195816 -0.01074740 -0.03768723
v -0.02521534 -0.01895696 -0.03768723
v -0.02529350 -0.01889622 -0.03768723
v -0.02575574 -0.01852592 -0.04106513
v -0.02557841 -0.01836823 -0.04195968
v -0.03134464 -0.01154756 -0.04195968
v -0.03134464 -0.01154756 -0.03768723
v -0.02575574 -0.01852592 -0.03768723
v -0.02667434 -0.01760661 -0.04106513
v -0.02652306 -0.01746644 -0.04195968
v -0.02948896 -0.01396324 -0.04195968
v -0.02786607 -0.01607871 -0.04106513
v -0.02816695 -0.01568739 -0.03768723
v -0.02667434 -0.01760661 -0.03768723
v -0.02704497 -0.01714520 -0.04106513
v -0.02867458 -0.01499703 -0.04195968
v -0.02780725 -0.01602848 -0.04195968
v -0.02693487 -0.01701905 -0.04195968
v -0.02786607 -0.01607871 -0.03768723
v -0.02704497 -0.01714520 -0.03768723
f 1 2 3
f 1 3 7
f 1 7 4
f 1 4 8
f 1 8 12
f 1 12 19
f 1 19 25
f 1 25 30
f 1 30 38
f 1 38 37
f 1 37 36
f 1 36 31
f 1 31 26
f 1 26 20
f 1 20 13
f 1 13 9
f 1 9 5
f 1 5 2
f 2 5 9
f 2 9 6
f 2 6 10
f 2 10 14
f 2 14 21
f 2 21 27
f 2 27 33
f 2 33 39
f 2 39 40
f 2 40 34
f 2 34 28
f 2 28 23
f 2 23 22
f 2 22 15
f 2 15 11
f 2 11 7
f 2 7 3
f 4 7 8
f 6 9 13
f 6 13 10
f 7 11 8
f 8 11 15
f 8 15 16
f 8 16 12
f 10 13 14
f 12 16 17
f 12 17 18
f 12 18 19
f 13 20 14
f 14 20 21
f 15 22 17
f 15 17 16
f 17 22 23
f 17 23 18
f 18 23 28
f 18 28 24
f 18 24 19
f 19 24 25
f 20 26 27
f 20 27 21
f 24 28 34
f 24 34 29
f 24 29 30
f 24 30 25
f 26 31 32
f 26 32 33
f 26 33 27
f 29 34 40
f 29 40 35
f 29 35 36
f 29 36 37
f 29 37 38
f 29 38 30
f 31 36 35
f 31 35 32
f 32 35 40
f 32 40 39
f 32 39 33

