# https://github.com/mikedh/trimesh
v -0.04056103 -0.00550764 -0.03768723
v -0.04078520 -0.00508865 -0.03768723
v -0.03951363 -0.00550764 -0.03768723
v -0.04056103 -0.00550764 0.04268915
v -0.04163138 -0.00304302 -0.03768723
v -0.04078520 -0.00508865 0.04268915
v -0.04236281 0.00930185 -0.03768723
v -0.04236128 0.00930185 0.04268915
v -0.03951363 -0.00550764 0.04268915
v -0.04185556 -0.00236452 -0.03768723
v -0.04163138 -0.00304302 0.04268915
v -0.04342130 0.00930185 -0.03768723
v -0.04342130 0.00930185 0.04268915
v -0.04196611 -0.00176576 -0.03768723
v -0.04185556 -0.00236452 0.04268915
v -0.04342130 0.00900030 -0.03768723
v -0.04342130 0.00900030 0.04268915
v -0.04202617 -0.00143811 -0.03768723
v -0.04202617 -0.00143811 0.04268915
v -0.04290410 0.00504385 -0.03768723
v -0.04290410 0.00504385 0.04268915
v -0.04247298 0.00177025 -0.03768723
v -0.04247298 0.00177025 0.04268915
v -0.04266042 0.00319248 -0.03768723
v -0.04283333 0.00450598 0.04268915
v -0.04253840 0.00226607 -0.03768723
v -0.04253840 0.00226607 0.04268915
v -0.04266042 0.00319248 0.04268915
f 1 2 5
f 1 5 10
f 1 10 14
f 1 14 18
f 1 18 22
f 1 22 26
f 1 26 24
f 1 24 20
f 1 20 16
f 1 16 12
f 1 12 7
f 1 7 3
f 1 3 9
f 1 9 4
f 1 4 6
f 1 6 2
f 2 6 11
f 2 11 5
f 3 7 8
f 3 8 9
f 4 9 8
f 4 8 13
f 4 13 17
f 4 17 21
f 4 21 25
f 4 25 28
f 4 28 27
f 4 27 23
f 4 23 19
f 4 19 15
f 4 15 11
f 4 11 6
f 5 11 15
f 5 15 10
f 7 12 13
f 7 13 8
f 10 15 14
f 12 16 17
f 12 17 13
f 14 15 19
f 14 19 18
f 16 20 21
f 16 21 17
f 18 19 23
f 18 23 22
f 20 24 25
f 20 25 21
f 22 23 27
f 22 27 26
f 24 26 27
f 24 27 28
f 24 28 25

