# https://github.com/mikedh/trimesh
v -0.03864198 -0.00550764 0.04517178
v -0.03644837 0.00041471 0.04268915
v -0.03630885 -0.00051170 0.04268915
v -0.03618942 -0.00094954 0.04268915
v -0.03610275 -0.00126414 0.04268915
v -0.03526621 -0.00329093 0.04268915
v -0.03515048 -0.00357074 0.04268915
v -0.03434776 -0.00550764 0.04268915
v -0.03864198 -0.00550764 0.04639940
v -0.03864198 0.00782308 0.04524936
v -0.03744450 0.00930185 0.04268915
v -0.03744450 0.00874949 0.04268915
v -0.03740223 0.00782308 0.04268915
v -0.03731080 0.00689667 0.04268915
v -0.03718926 0.00597026 0.04268915
v -0.03711845 0.00543239 0.04268915
v -0.03700430 0.00456542 0.04268915
v -0.03695832 0.00422183 0.04268915
v -0.03324381 -0.00550764 0.04268915
v -0.03855954 -0.00550764 0.04642184
v -0.03864198 -0.00489873 0.04648155
v -0.03864198 0.00874949 0.04527788
v -0.03864198 0.00930185 0.04531820
v -0.03652446 0.00930185 0.04268915
v -0.03324381 -0.00550764 0.04415446
v -0.03812674 -0.00550764 0.04648383
v -0.03864198 -0.00329093 0.04654354
v -0.03864198 0.00930185 0.04644656
v -0.03652446 0.00930185 0.04322804
v -0.03330194 -0.00550764 0.04471884
v -0.03652499 0.00930185 0.04415446
v -0.03780702 -0.00550764 0.04648041
v -0.03842531 -0.00236452 0.04656940
v -0.03864198 -0.00236452 0.04656940
v -0.03737369 0.00930185 0.04582857
v -0.03864198 0.00041471 0.04656027
v -0.03845385 -0.00143811 0.04657434
v -0.03391231 -0.00550764 0.04558441
v -0.03350540 -0.00550764 0.04509382
v -0.03667930 0.00930185 0.04508051
v -0.03687166 0.00930185 0.04557566
v -0.03864198 -0.00171647 0.04657282
v -0.03864198 -0.00051170 0.04656940
f 1 2 3
f 1 3 4
f 1 4 5
f 1 5 6
f 1 6 7
f 1 7 8
f 1 8 19
f 1 19 25
f 1 25 30
f 1 30 39
f 1 39 38
f 1 38 32
f 1 32 26
f 1 26 20
f 1 20 9
f 1 9 21
f 1 21 27
f 1 27 34
f 1 34 42
f 1 42 43
f 1 43 36
f 1 36 28
f 1 28 23
f 1 23 22
f 1 22 10
f 1 10 11
f 1 11 12
f 1 12 13
f 1 13 14
f 1 14 15
f 1 15 16
f 1 16 17
f 1 17 18
f 1 18 2
f 2 18 17
f 2 17 16
f 2 16 15
f 2 15 14
f 2 14 13
f 2 13 12
f 2 12 11
f 2 11 24
f 2 24 19
f 2 19 8
f 2 8 7
f 2 7 6
f 2 6 5
f 2 5 4
f 2 4 3
f 9 20 21
f 10 22 11
f 11 22 23
f 11 23 28
f 11 28 35
f 11 35 41
f 11 41 40
f 11 40 31
f 11 31 29
f 11 29 24
f 19 24 29
f 19 29 25
f 20 26 21
f 21 26 27
f 25 29 31
f 25 31 30
f 26 32 33
f 26 33 34
f 26 34 27
f 28 36 37
f 28 37 38
f 28 38 35
f 30 31 40
f 30 40 41
f 30 41 39
f 32 38 37
f 32 37 33
f 33 37 34
f 34 37 42
f 35 38 41
f 36 43 37
f 37 43 42
f 38 39 41

