# https://github.com/mikedh/trimesh
v 0.03995487 0.03066670 0.04415446
v 0.03998758 0.03055626 0.04470953
v 0.03999548 0.03057575 0.04415446
v 0.03995487 0.03066670 0.04324140
v 0.03990525 0.03066670 0.04481337
v 0.04186211 0.02597841 0.04468517
v 0.04212941 0.02542429 0.04415446
v 0.04188128 0.02602388 0.04415446
v 0.03988156 0.03032435 0.04532678
v 0.03999886 0.03056795 0.04324140
v 0.03999548 0.03057575 0.04324140
v 0.03169093 0.03066670 0.04324140
v 0.03978907 0.03066670 0.04516109
v 0.04000112 0.02970721 0.04556778
v 0.04197715 0.02542429 0.04482330
v 0.04266967 0.02403086 0.04415446
v 0.04212941 0.02542429 0.04324140
v 0.04188128 0.02602388 0.04324140
v 0.03937401 0.03066670 0.04566201
v 0.03533848 0.02403086 0.04324140
v 0.03152175 0.02939280 0.04542517
v 0.03114843 0.03066670 0.04506783
v 0.04008458 0.02912840 0.04562002
v 0.04122035 0.02449793 0.04575591
v 0.04108726 0.02542429 0.04567002
v 0.04098011 0.02617459 0.04559855
v 0.04089101 0.02679238 0.04553702
v 0.04168278 0.02449793 0.04543414
v 0.04223205 0.02403086 0.04504988
v 0.04216212 0.02449793 0.04497105
v 0.04266854 0.02403086 0.04405799
v 0.04265049 0.02403086 0.04324140
v 0.03858225 0.03066670 0.04583218
v 0.03950823 0.02820205 0.04591743
v 0.04022330 0.02820205 0.04569502
v 0.03486816 0.02403086 0.04508386
v 0.03427038 0.02470906 0.04538030
v 0.03346846 0.02585303 0.04551330
v 0.03249398 0.02761999 0.04545946
v 0.03152175 0.02939280 0.04569534
v 0.03116309 0.03066670 0.04597159
v 0.04132186 0.02403086 0.04577033
v 0.04175045 0.02403086 0.04548254
v 0.04035865 0.02727699 0.04575495
v 0.04043422 0.02542429 0.04593153
v 0.03858225 0.02912840 0.04595557
v 0.03950823 0.02727699 0.04600524
v 0.03826757 0.03066670 0.04586103
v 0.03729421 0.02414844 0.04647924
v 0.03735625 0.02403086 0.04648309
v 0.04043422 0.02449793 0.04602511
v 0.03497192 0.02403086 0.04591294
v 0.03427038 0.02470906 0.04569470
v 0.03346846 0.02585303 0.04557003
v 0.03249398 0.02761999 0.04563476
v 0.03133678 0.03005476 0.04587449
v 0.03332748 0.02635064 0.04571585
v 0.03347523 0.02771743 0.04647635
v 0.03256165 0.02959158 0.04646994
v 0.03219171 0.02996251 0.04634688
v 0.03212742 0.03066670 0.04636290
v 0.04043422 0.02403086 0.04606613
v 0.03765626 0.03066670 0.04591583
v 0.03256278 0.02959288 0.04646994
v 0.03640319 0.02511377 0.04648244
v 0.03671900 0.02447325 0.04650552
v 0.03669982 0.02403086 0.04651161
v 0.03562947 0.02403086 0.04635457
v 0.03528885 0.02487666 0.04649558
v 0.03307596 0.02736015 0.04599979
v 0.03233495 0.02820205 0.04579725
v 0.03583136 0.02454016 0.04651513
v 0.03256165 0.02959288 0.04646994
v 0.03673028 0.03066670 0.04599499
v 0.03581444 0.02542364 0.04650199
v 0.03462002 0.02704508 0.04648853
v 0.03605129 0.02403086 0.04651000
f 1 2 3
f 1 3 11
f 1 11 4
f 1 4 12
f 1 12 22
f 1 22 41
f 1 41 61
f 1 61 74
f 1 74 63
f 1 63 48
f 1 48 33
f 1 33 19
f 1 19 13
f 1 13 5
f 1 5 2
f 2 6 7
f 2 7 8
f 2 8 3
f 2 5 9
f 2 9 6
f 3 10 11
f 3 8 10
f 4 11 10
f 4 10 18
f 4 18 17
f 4 17 32
f 4 32 20
f 4 20 12
f 5 13 9
f 6 14 15
f 6 15 16
f 6 16 7
f 6 9 14
f 7 16 17
f 7 17 18
f 7 18 8
f 8 18 10
f 9 13 19
f 9 19 14
f 12 20 21
f 12 21 22
f 14 23 24
f 14 24 25
f 14 25 26
f 14 26 27
f 14 27 28
f 14 28 29
f 14 29 30
f 14 30 15
f 14 19 23
f 15 30 16
f 16 31 17
f 16 30 29
f 16 29 43
f 16 43 42
f 16 42 62
f 16 62 50
f 16 50 67
f 16 67 77
f 16 77 68
f 16 68 52
f 16 52 36
f 16 36 20
f 16 20 32
f 16 32 31
f 17 31 32
f 19 33 34
f 19 34 35
f 19 35 23
f 20 36 37
f 20 37 38
f 20 38 39
f 20 39 21
f 21 40 22
f 21 39 55
f 21 55 40
f 22 40 41
f 23 35 24
f 24 42 43
f 24 43 25
f 24 35 44
f 24 44 45
f 24 45 42
f 25 43 26
f 26 43 27
f 27 43 28
f 28 43 29
f 33 46 47
f 33 47 34
f 33 48 49
f 33 49 50
f 33 50 46
f 34 47 51
f 34 51 45
f 34 45 44
f 34 44 35
f 36 52 53
f 36 53 37
f 37 53 54
f 37 54 38
f 38 54 55
f 38 55 39
f 40 56 41
f 40 55 57
f 40 57 56
f 41 56 58
f 41 58 59
f 41 59 60
f 41 60 61
f 42 45 51
f 42 51 62
f 46 50 47
f 47 50 62
f 47 62 51
f 48 63 64
f 48 64 65
f 48 65 49
f 49 65 66
f 49 66 50
f 50 66 67
f 52 68 69
f 52 69 58
f 52 58 53
f 53 58 70
f 53 70 57
f 53 57 55
f 53 55 54
f 56 57 71
f 56 71 70
f 56 70 58
f 57 70 71
f 58 69 72
f 58 72 59
f 59 73 61
f 59 61 60
f 59 72 73
f 61 73 64
f 61 64 74
f 63 74 64
f 64 73 72
f 64 72 75
f 64 75 76
f 64 76 66
f 64 66 65
f 66 76 75
f 66 75 72
f 66 72 67
f 67 72 77
f 68 77 69
f 69 77 72

