# https://github.com/mikedh/trimesh
v -0.03719699 0.00930330 -0.04196387
v -0.03707433 0.00930330 -0.04214467
v -0.03568125 0.00930330 -0.04196387
v -0.03719198 0.00954871 -0.04196387
v -0.03718948 0.00964788 -0.04196387
v -0.03718823 0.00967813 -0.04196387
v -0.03683902 0.01060428 -0.04238950
v -0.03687406 0.00930330 -0.04242116
v -0.02441020 0.00930330 -0.04260144
v -0.03128798 0.02647485 -0.04196387
v -0.03712940 0.01060428 -0.04196387
v -0.03680022 0.01153043 -0.04234382
v -0.03506043 0.01668727 -0.04338643
v -0.03508046 0.01616116 -0.04340685
v -0.03510924 0.01523502 -0.04343487
v -0.03641095 0.00930330 -0.04272273
v -0.03513178 0.01430887 -0.04345373
v -0.03515055 0.01338272 -0.04346878
v -0.03516807 0.01245657 -0.04347986
v -0.03518184 0.01153043 -0.04348747
v -0.02441020 0.00930330 -0.04371776
v -0.02441020 0.02647485 -0.04260144
v -0.03319799 0.02647485 -0.04196387
v -0.03705430 0.01153043 -0.04196387
v -0.03674514 0.01245657 -0.04225679
v -0.03600542 0.01678308 -0.04247756
v -0.03604798 0.01616116 -0.04252081
v -0.03611181 0.01523502 -0.04257826
v -0.03617565 0.01430887 -0.04262446
v -0.03502038 0.01730582 -0.04335996
v -0.03441333 0.01893960 -0.04353505
v -0.03450720 0.01801178 -0.04354474
v -0.03459482 0.01616116 -0.04357554
v -0.03459482 0.01523502 -0.04360512
v -0.03519311 0.01060428 -0.04349214
v -0.03520938 0.00930330 -0.04349629
v -0.03459482 0.01430887 -0.04362467
v -0.03459482 0.01338272 -0.04363990
v -0.03459482 0.01245657 -0.04365080
v -0.02495967 0.00930330 -0.04373126
v -0.02441020 0.00930666 -0.04373126
v -0.02441020 0.02647485 -0.04373126
v -0.03319423 0.02647485 -0.04199190
v -0.03332065 0.02618574 -0.04199190
v -0.03332190 0.02619078 -0.04196387
v -0.03693664 0.01245657 -0.04196387
v -0.03669383 0.01338272 -0.04214917
v -0.03591405 0.01801178 -0.04237790
v -0.03545094 0.01801178 -0.04286599
v -0.03497031 0.01801178 -0.04332916
v -0.03428441 0.01986575 -0.04349526
v -0.03366735 0.01986575 -0.04366862
v -0.03366735 0.01893960 -0.04371015
v -0.03520437 0.00967813 -0.04349526
v -0.03459482 0.01153043 -0.04365755
v -0.03459482 0.01060428 -0.04366118
v -0.03459482 0.00967813 -0.04366326
v -0.03459482 0.00930330 -0.04366378
v -0.03366735 0.01801178 -0.04372001
v -0.03236815 0.00930330 -0.04373126
v -0.02533266 0.02647485 -0.04373126
v -0.03275490 0.02647485 -0.04267602
v -0.03324805 0.02602102 -0.04250282
v -0.03452723 0.02308626 -0.04196387
v -0.03414673 0.02406955 -0.04196387
v -0.03681148 0.01338272 -0.04196387
v -0.03618316 0.01801178 -0.04196387
v -0.03608302 0.01868748 -0.04196387
v -0.03584146 0.01893960 -0.04227271
v -0.03537835 0.01893960 -0.04279228
v -0.03487644 0.01893960 -0.04325511
v -0.03418804 0.02052969 -0.04343574
v -0.03372242 0.02081879 -0.04354024
v -0.03345082 0.02171805 -0.04349353
v -0.03274114 0.02171805 -0.04365495
v -0.03274114 0.02079190 -0.04371291
v -0.03274114 0.01986575 -0.04372970
v -0.03366735 0.01708731 -0.04372278
v -0.03366735 0.01616116 -0.04372485
v -0.03366735 0.01523502 -0.04372641
v -0.03366735 0.00930330 -0.04372329
v -0.03366735 0.01430887 -0.04372728
v -0.03366735 0.01338272 -0.04372745
v -0.03366735 0.01245657 -0.04372710
v -0.03366735 0.01153043 -0.04372624
v -0.03366735 0.01060428 -0.04372520
v -0.03274114 0.00930330 -0.04373108
v -0.03274114 0.00967813 -0.04373126
v -0.02626013 0.02634878 -0.04373073
v -0.02626013 0.02647485 -0.04372970
v -0.03274114 0.01893960 -0.04373126
v -0.03181492 0.02647485 -0.04298208
v -0.03229805 0.02405442 -0.04339214
v -0.03328810 0.02235173 -0.04343487
v -0.03406788 0.02114488 -0.04334923
v -0.03446590 0.02171805 -0.04279246
v -0.03430694 0.02264419 -0.04263345
v -0.03419429 0.02329132 -0.04252012
v -0.03502163 0.02116841 -0.04241060
v -0.03574508 0.01986743 -0.04196387
v -0.03504666 0.02171805 -0.04196387
v -0.03604422 0.01893960 -0.04196387
v -0.03595410 0.01927577 -0.04196387
v -0.03513428 0.02054986 -0.04253431
v -0.03525444 0.01986575 -0.04265629
v -0.03474877 0.01986575 -0.04311911
v -0.03276742 0.02265260 -0.04351723
v -0.03181492 0.02264419 -0.04367347
v -0.03181492 0.02357034 -0.04357848
v -0.03088870 0.02449649 -0.04359768
v -0.03088870 0.02357034 -0.04367866
v -0.02996499 0.02449649 -0.04368194
v -0.03181492 0.02171805 -0.04371620
v -0.03088870 0.02264419 -0.04371776
v -0.02811131 0.02542264 -0.04372070
v -0.02718634 0.02634878 -0.04372157
v -0.03181492 0.02079190 -0.04373004
v -0.03329436 0.00930330 -0.04372693
v -0.02903878 0.02357034 -0.04373056
v -0.02718634 0.02647485 -0.04371724
v -0.02987988 0.02647485 -0.04346377
v -0.03052698 0.02600925 -0.04341757
v -0.03140814 0.02504276 -0.04341048
v -0.03175484 0.02441749 -0.04345183
v -0.03244199 0.02357034 -0.04344422
v -0.02996499 0.02542264 -0.04360668
v -0.02903878 0.02634878 -0.04361291
v -0.03085491 0.02537893 -0.04346844
v -0.02995248 0.02633029 -0.04347605
v -0.02811131 0.02647485 -0.04367797
v -0.02903878 0.02542264 -0.04368471
v -0.02811131 0.02634878 -0.04368731
v -0.02903878 0.02647485 -0.04359509
f 1 2 8
f 1 8 16
f 1 16 36
f 1 36 58
f 1 58 81
f 1 81 118
f 1 118 87
f 1 87 60
f 1 60 40
f 1 40 21
f 1 21 9
f 1 9 3
f 1 3 10
f 1 10 23
f 1 23 45
f 1 45 65
f 1 65 64
f 1 64 101
f 1 101 100
f 1 100 103
f 1 103 102
f 1 102 68
f 1 68 67
f 1 67 66
f 1 66 46
f 1 46 24
f 1 24 11
f 1 11 6
f 1 6 5
f 1 5 4
f 1 4 2
f 2 4 5
f 2 5 6
f 2 6 7
f 2 7 8
f 3 9 10
f 6 11 7
f 7 11 12
f 7 12 13
f 7 13 14
f 7 14 15
f 7 15 8
f 8 15 17
f 8 17 18
f 8 18 19
f 8 19 20
f 8 20 16
f 9 21 41
f 9 41 42
f 9 42 22
f 9 22 10
f 10 22 42
f 10 42 61
f 10 61 90
f 10 90 120
f 10 120 130
f 10 130 133
f 10 133 121
f 10 121 92
f 10 92 62
f 10 62 43
f 10 43 23
f 11 24 12
f 12 24 25
f 12 25 26
f 12 26 27
f 12 27 28
f 12 28 29
f 12 29 30
f 12 30 13
f 13 30 31
f 13 31 14
f 14 31 32
f 14 32 15
f 15 32 33
f 15 33 34
f 15 34 17
f 16 20 35
f 16 35 36
f 17 34 18
f 18 34 37
f 18 37 19
f 19 37 38
f 19 38 20
f 20 38 39
f 20 39 35
f 21 40 41
f 23 43 44
f 23 44 45
f 24 46 25
f 25 46 47
f 25 47 48
f 25 48 26
f 26 48 49
f 26 49 27
f 27 49 28
f 28 49 50
f 28 50 29
f 29 50 30
f 30 50 31
f 31 51 52
f 31 52 53
f 31 53 32
f 31 50 51
f 32 34 33
f 32 53 34
f 34 53 37
f 35 54 36
f 35 39 55
f 35 55 54
f 36 54 55
f 36 55 56
f 36 56 57
f 36 57 58
f 37 53 38
f 38 53 39
f 39 53 59
f 39 59 55
f 40 60 88
f 40 88 91
f 40 91 61
f 40 61 42
f 40 42 41
f 43 62 63
f 43 63 44
f 44 63 64
f 44 64 65
f 44 65 45
f 46 66 47
f 47 66 67
f 47 67 48
f 48 67 68
f 48 68 69
f 48 69 70
f 48 70 49
f 49 70 50
f 50 70 71
f 50 71 51
f 51 72 73
f 51 73 52
f 51 71 72
f 52 73 74
f 52 74 75
f 52 75 76
f 52 76 53
f 53 76 77
f 53 77 59
f 55 59 56
f 56 59 78
f 56 78 79
f 56 79 57
f 57 79 80
f 57 80 58
f 58 80 82
f 58 82 83
f 58 83 84
f 58 84 85
f 58 85 86
f 58 86 81
f 59 77 78
f 60 87 88
f 61 89 90
f 61 91 89
f 62 92 93
f 62 93 94
f 62 94 95
f 62 95 63
f 63 95 96
f 63 96 97
f 63 97 98
f 63 98 99
f 63 99 100
f 63 100 101
f 63 101 64
f 68 102 69
f 69 102 103
f 69 103 104
f 69 104 105
f 69 105 70
f 70 105 71
f 71 105 106
f 71 106 72
f 72 106 105
f 72 105 95
f 72 95 94
f 72 94 74
f 72 74 73
f 74 94 107
f 74 107 75
f 75 108 76
f 75 107 109
f 75 109 110
f 75 110 108
f 76 108 111
f 76 111 112
f 76 112 113
f 76 113 77
f 77 91 80
f 77 80 79
f 77 79 78
f 77 113 114
f 77 114 115
f 77 115 116
f 77 116 117
f 77 117 91
f 80 91 82
f 81 86 118
f 82 91 83
f 83 91 88
f 83 88 84
f 84 88 87
f 84 87 85
f 85 87 118
f 85 118 86
f 89 91 119
f 89 119 90
f 90 119 116
f 90 116 120
f 91 117 119
f 92 121 122
f 92 122 123
f 92 123 93
f 93 123 124
f 93 124 125
f 93 125 94
f 94 125 107
f 95 105 96
f 96 105 97
f 97 105 98
f 98 105 104
f 98 104 99
f 99 104 103
f 99 103 100
f 107 125 109
f 108 110 126
f 108 126 127
f 108 127 111
f 109 124 128
f 109 128 110
f 109 125 124
f 110 128 129
f 110 129 126
f 111 127 112
f 112 127 130
f 112 130 131
f 112 131 113
f 113 131 132
f 113 132 114
f 114 132 120
f 114 120 115
f 115 120 116
f 116 119 117
f 120 132 130
f 121 133 129
f 121 129 122
f 122 128 123
f 122 129 128
f 123 128 124
f 126 129 133
f 126 133 127
f 127 133 130
f 130 132 131

