# https://github.com/mikedh/trimesh
v 0.00127983 0.05370269 0.04508035
v 0.00127983 0.05370269 0.04244736
v 0.00102410 0.05370269 0.04508035
v 0.00120906 0.05369336 0.04557413
v 0.00850147 0.05275239 0.04554847
v 0.00523645 0.05318483 0.04508035
v 0.00102410 0.05370269 0.04244736
v 0.00523645 0.05318483 0.04244736
v 0.00102410 0.05369336 0.04557413
v 0.00102410 0.05356623 0.04563828
v 0.00152431 0.05328399 0.04577281
v 0.00431003 0.05301549 0.04580119
v 0.00523645 0.05296739 0.04578447
v 0.00616288 0.05290603 0.04574015
v 0.00708931 0.05284516 0.04567872
v 0.00801574 0.05278430 0.04559746
v 0.00851273 0.05275386 0.04508035
v 0.00708931 0.05294137 0.04508035
v 0.01171985 0.05207060 0.04579186
v 0.01264467 0.05197979 0.04572499
v 0.01171985 0.05231799 0.04508035
v 0.00601813 0.05308225 0.04244736
v 0.00102410 0.05264342 0.04244736
v 0.00102410 0.05328300 0.04577748
v 0.00102410 0.05274209 0.04594544
v 0.00431003 0.05228608 0.04605197
v 0.00523645 0.05228608 0.04603642
v 0.00616288 0.05228608 0.04599326
v 0.00851273 0.05275386 0.04244736
v 0.00843553 0.05276417 0.04244736
v 0.00694456 0.05296051 0.04244736
v 0.01171985 0.05135984 0.04603370
v 0.01264467 0.05135984 0.04596877
v 0.01449753 0.05114878 0.04577514
v 0.01727681 0.05012339 0.04572343
v 0.01523256 0.05100987 0.04568105
v 0.01325264 0.05188260 0.04562507
v 0.01264467 0.05213637 0.04508035
v 0.01264467 0.05213637 0.04244736
v 0.01249991 0.05216337 0.04244736
v 0.01171985 0.05230719 0.04244736
v 0.00102410 0.04868862 0.04516083
v 0.01745534 0.04910928 0.04244736
v 0.00102410 0.05228608 0.04608269
v 0.00102410 0.04868862 0.04641901
v 0.01635038 0.04950786 0.04605625
v 0.01449753 0.05043410 0.04601737
v 0.01727681 0.04950786 0.04598704
v 0.01745534 0.04951227 0.04594816
v 0.01745534 0.05008657 0.04568572
v 0.01332501 0.05191254 0.04508035
v 0.01745534 0.05020241 0.04508035
v 0.01536927 0.05106631 0.04508035
v 0.01332501 0.05191254 0.04244736
v 0.01745534 0.04868862 0.04464178
v 0.01745534 0.05020241 0.04244736
v 0.01727681 0.04868862 0.04603837
v 0.01745534 0.04868862 0.04601815
v 0.01536927 0.05106631 0.04244736
f 1 2 7
f 1 7 3
f 1 3 9
f 1 9 4
f 1 4 5
f 1 5 6
f 1 6 8
f 1 8 2
f 2 8 22
f 2 22 31
f 2 31 30
f 2 30 29
f 2 29 41
f 2 41 40
f 2 40 39
f 2 39 54
f 2 54 59
f 2 59 56
f 2 56 43
f 2 43 23
f 2 23 7
f 3 7 23
f 3 23 42
f 3 42 45
f 3 45 44
f 3 44 25
f 3 25 24
f 3 24 10
f 3 10 9
f 4 9 10
f 4 10 11
f 4 11 12
f 4 12 13
f 4 13 14
f 4 14 15
f 4 15 16
f 4 16 5
f 5 17 18
f 5 18 6
f 5 16 19
f 5 19 20
f 5 20 21
f 5 21 17
f 6 18 31
f 6 31 22
f 6 22 8
f 10 24 11
f 11 24 25
f 11 25 26
f 11 26 27
f 11 27 12
f 12 27 13
f 13 27 28
f 13 28 19
f 13 19 14
f 14 19 15
f 15 19 16
f 17 29 30
f 17 30 18
f 17 21 29
f 18 30 31
f 19 32 33
f 19 33 20
f 19 28 32
f 20 33 34
f 20 34 35
f 20 35 36
f 20 36 37
f 20 37 38
f 20 38 21
f 21 38 39
f 21 39 40
f 21 40 41
f 21 41 29
f 23 43 42
f 25 44 26
f 26 44 45
f 26 45 32
f 26 32 27
f 27 32 28
f 32 46 47
f 32 47 33
f 32 45 46
f 33 47 48
f 33 48 34
f 34 48 35
f 35 48 49
f 35 49 50
f 35 50 36
f 36 50 37
f 37 51 38
f 37 50 52
f 37 52 53
f 37 53 51
f 38 51 54
f 38 54 39
f 42 43 55
f 42 55 58
f 42 58 57
f 42 57 45
f 43 56 52
f 43 52 50
f 43 50 49
f 43 49 58
f 43 58 55
f 45 57 46
f 46 57 48
f 46 48 47
f 48 57 58
f 48 58 49
f 51 53 59
f 51 59 54
f 52 56 59
f 52 59 53

