# https://github.com/mikedh/trimesh
v 0.00102410 0.05370269 0.04508051
v 0.00102410 0.05370269 0.04267871
v 0.00085458 0.05370269 0.04508051
v 0.00102410 0.05369616 0.04543708
v 0.00102410 0.05264330 0.04267871
v 0.00085458 0.05370269 0.04267871
v 0.00092497 0.05369365 0.04557383
v -0.00310179 0.05318504 0.04508051
v -0.00636429 0.05275225 0.04554879
v 0.00102410 0.05369365 0.04557383
v 0.00102410 0.04857394 0.04512225
v -0.01365212 0.04979550 0.04267871
v -0.00310179 0.05318504 0.04267871
v -0.00588016 0.05278438 0.04559728
v -0.00495356 0.05284513 0.04567877
v -0.00402839 0.05290638 0.04574039
v -0.00310179 0.05296714 0.04578650
v -0.00217519 0.05301282 0.04580638
v 0.00061180 0.05328244 0.04578173
v -0.00402839 0.05306303 0.04508051
v -0.00637579 0.05275375 0.04508051
v -0.00958369 0.05231092 0.04508051
v -0.01051030 0.05197954 0.04572449
v -0.00958369 0.05206892 0.04579525
v 0.00102410 0.05356612 0.04563823
v 0.00102410 0.04857394 0.04643962
v 0.00060318 0.04857394 0.04509403
v -0.01365212 0.04857394 0.04533969
v -0.01365212 0.05084284 0.04267871
v -0.00032199 0.04857394 0.04509840
v -0.00402839 0.05306303 0.04267871
v -0.00402839 0.05228632 0.04606118
v -0.00310179 0.05228632 0.04610531
v -0.00032199 0.05228632 0.04610133
v 0.00102410 0.05328295 0.04577775
v -0.00217519 0.05228632 0.04611525
v -0.00608272 0.05279241 0.04267871
v -0.00637579 0.05275375 0.04267871
v -0.00958369 0.05230740 0.04267871
v -0.00996152 0.05223762 0.04267871
v -0.01051030 0.05213619 0.04267871
v -0.01051030 0.05213619 0.04508051
v -0.01111797 0.05188264 0.04562312
v -0.01309616 0.05100953 0.04566725
v -0.01236350 0.05114710 0.04576941
v -0.01051030 0.05135998 0.04602581
v -0.00958369 0.05135998 0.04609696
v 0.00102410 0.05228632 0.04608265
v 0.00060749 0.04857394 0.04650203
v -0.01365212 0.04857394 0.04635495
v -0.01365212 0.05086091 0.04508051
v -0.01323407 0.05106626 0.04267871
v -0.00310179 0.05030160 0.04653105
v -0.00588016 0.05010026 0.04649408
v -0.00495356 0.05016754 0.04650641
v 0.00060318 0.05228632 0.04609100
v 0.00102410 0.05274220 0.04594551
v -0.00217519 0.05035281 0.04652191
v -0.01078612 0.05204532 0.04267871
v -0.01118980 0.05191227 0.04508051
v -0.01323264 0.05106576 0.04508051
v -0.01365212 0.05085137 0.04512424
v -0.01365212 0.05044017 0.04583222
v -0.01236350 0.05043414 0.04608305
v -0.01206469 0.04857394 0.04647898
v -0.01137369 0.04857394 0.04652191
v -0.01032067 0.04911618 0.04648097
v -0.00728802 0.04997524 0.04647063
v -0.00680533 0.05002244 0.04647937
v -0.00124859 0.05020720 0.04649130
v -0.00072711 0.05001942 0.04647381
v 0.00026558 0.04914782 0.04647818
v -0.00032199 0.04858147 0.04656364
v -0.00124859 0.04858147 0.04662526
v -0.00124859 0.04857394 0.04662486
v -0.01365212 0.04913577 0.04622377
v -0.01323407 0.05106626 0.04415430
v -0.01118980 0.05191227 0.04267871
v -0.00310179 0.04950780 0.04665190
v -0.00495356 0.04950780 0.04662725
v -0.00402839 0.04950780 0.04665150
v -0.00217519 0.04950780 0.04661175
v -0.01365212 0.05016854 0.04593915
v -0.01365212 0.04950780 0.04613552
v -0.01108206 0.04857394 0.04653502
v -0.00865853 0.04933358 0.04651555
v -0.01058213 0.04866833 0.04654099
v -0.00680533 0.04858147 0.04671033
v -0.00680533 0.04950780 0.04656325
v -0.00588016 0.04950780 0.04659664
v -0.00124859 0.04950780 0.04655013
v -0.00217519 0.04858147 0.04668091
v -0.00217519 0.04857394 0.04667972
v -0.00588016 0.04858147 0.04673935
v -0.01066114 0.04857394 0.04655251
v -0.00865853 0.04857394 0.04663520
v -0.01057494 0.04857394 0.04655609
v -0.00958369 0.04857394 0.04659704
v -0.00681251 0.04857394 0.04671033
v -0.00773911 0.04857394 0.04667296
v -0.00588016 0.04857394 0.04673816
v -0.00588734 0.04857394 0.04673816
f 1 2 6
f 1 6 3
f 1 3 4
f 1 4 10
f 1 10 25
f 1 25 35
f 1 35 57
f 1 57 48
f 1 48 26
f 1 26 11
f 1 11 5
f 1 5 2
f 2 5 12
f 2 12 29
f 2 29 52
f 2 52 78
f 2 78 59
f 2 59 41
f 2 41 40
f 2 40 39
f 2 39 38
f 2 38 37
f 2 37 31
f 2 31 13
f 2 13 6
f 3 7 4
f 3 6 13
f 3 13 8
f 3 8 9
f 3 9 7
f 4 7 10
f 5 11 12
f 7 14 15
f 7 15 16
f 7 16 17
f 7 17 18
f 7 18 19
f 7 19 10
f 7 9 14
f 8 13 31
f 8 31 20
f 8 20 9
f 9 21 22
f 9 22 23
f 9 23 24
f 9 24 14
f 9 20 21
f 10 19 25
f 11 26 49
f 11 49 75
f 11 75 93
f 11 93 101
f 11 101 102
f 11 102 99
f 11 99 100
f 11 100 96
f 11 96 98
f 11 98 97
f 11 97 95
f 11 95 85
f 11 85 66
f 11 66 65
f 11 65 50
f 11 50 28
f 11 28 30
f 11 30 27
f 11 27 12
f 12 28 50
f 12 50 76
f 12 76 84
f 12 84 83
f 12 83 63
f 12 63 62
f 12 62 51
f 12 51 29
f 12 27 30
f 12 30 28
f 14 24 15
f 15 24 16
f 16 24 17
f 17 32 33
f 17 33 18
f 17 24 32
f 18 33 19
f 19 34 35
f 19 35 25
f 19 33 36
f 19 36 34
f 20 31 37
f 20 37 21
f 21 37 38
f 21 38 22
f 22 38 39
f 22 39 40
f 22 40 41
f 22 41 42
f 22 42 23
f 23 43 44
f 23 44 45
f 23 45 46
f 23 46 24
f 23 42 43
f 24 46 47
f 24 47 32
f 26 48 49
f 29 51 52
f 32 47 33
f 33 53 36
f 33 47 54
f 33 54 55
f 33 55 53
f 34 56 57
f 34 57 35
f 34 36 58
f 34 58 56
f 36 53 58
f 41 59 42
f 42 59 60
f 42 60 43
f 43 60 61
f 43 61 44
f 44 61 51
f 44 51 62
f 44 62 63
f 44 63 45
f 45 64 46
f 45 63 64
f 46 64 47
f 47 64 65
f 47 65 66
f 47 66 67
f 47 67 68
f 47 68 69
f 47 69 54
f 48 57 56
f 48 56 58
f 48 58 70
f 48 70 71
f 48 71 72
f 48 72 49
f 49 72 71
f 49 71 73
f 49 73 74
f 49 74 75
f 50 65 64
f 50 64 76
f 51 61 77
f 51 77 52
f 52 77 60
f 52 60 78
f 53 79 58
f 53 55 80
f 53 80 81
f 53 81 79
f 54 69 80
f 54 80 55
f 58 79 82
f 58 82 70
f 59 78 60
f 60 77 61
f 63 83 64
f 64 83 84
f 64 84 76
f 66 85 67
f 67 86 68
f 67 85 87
f 67 87 86
f 68 88 89
f 68 89 90
f 68 90 69
f 68 86 88
f 69 90 80
f 70 82 71
f 71 82 91
f 71 91 73
f 73 91 82
f 73 82 74
f 74 82 92
f 74 92 75
f 75 92 93
f 79 92 82
f 79 81 94
f 79 94 92
f 80 90 88
f 80 88 94
f 80 94 81
f 85 95 87
f 86 96 88
f 86 87 96
f 87 95 97
f 87 97 98
f 87 98 96
f 88 99 94
f 88 90 89
f 88 96 100
f 88 100 99
f 92 94 101
f 92 101 93
f 94 99 102
f 94 102 101

