# https://github.com/mikedh/trimesh
v -0.04596242 -0.00015912 -0.10125200
v -0.04596242 -0.00000387 -0.10420826
v -0.04596176 -0.00037906 -0.10420826
v -0.04596110 -0.00050196 -0.10125200
v -0.04596242 -0.00000387 -0.10125200
v -0.04500488 -0.00000387 -0.10420826
v -0.04596110 -0.00050196 -0.10420826
v -0.04584298 -0.00141405 -0.10125200
v -0.04491579 -0.00000387 -0.10125200
v -0.03926954 -0.02203197 -0.10420826
v -0.04584298 -0.00141405 -0.10420826
v -0.04572353 -0.00232614 -0.10125200
v -0.03922203 -0.02203197 -0.10125200
v -0.04028053 -0.02203197 -0.10420826
v -0.04572353 -0.00232614 -0.10420826
v -0.04481086 -0.00927999 -0.10125200
v -0.04028515 -0.02203197 -0.10125200
v -0.04028515 -0.02203197 -0.10130988
v -0.04102360 -0.02026601 -0.10420826
v -0.04488544 -0.00871075 -0.10420826
v -0.04478183 -0.00949993 -0.10420826
v -0.04467096 -0.01034302 -0.10420826
v -0.04469736 -0.01014249 -0.10125200
v -0.04102360 -0.02026601 -0.10125200
v -0.04105792 -0.02018408 -0.10420826
v -0.04465644 -0.01045299 -0.10420826
v -0.04465644 -0.01045299 -0.10125200
v -0.04111863 -0.02003745 -0.10125200
v -0.04127635 -0.01965580 -0.10420826
v -0.04430273 -0.01201410 -0.10125200
v -0.04462279 -0.01062549 -0.10125200
v -0.04421232 -0.01235694 -0.10420826
v -0.04422354 -0.01235694 -0.10125200
v -0.04371078 -0.01376496 -0.10125200
v -0.04373850 -0.01369812 -0.10420826
v -0.04395495 -0.01314828 -0.10420826
v -0.04403810 -0.01292619 -0.10125200
v -0.04391536 -0.01326903 -0.10125200
v -0.04391536 -0.01326903 -0.10420826
f 1 2 3
f 1 3 4
f 1 4 8
f 1 8 12
f 1 12 16
f 1 16 23
f 1 23 27
f 1 27 31
f 1 31 30
f 1 30 33
f 1 33 37
f 1 37 38
f 1 38 34
f 1 34 28
f 1 28 24
f 1 24 17
f 1 17 13
f 1 13 9
f 1 9 5
f 1 5 2
f 2 5 9
f 2 9 6
f 2 6 10
f 2 10 14
f 2 14 19
f 2 19 25
f 2 25 29
f 2 29 35
f 2 35 39
f 2 39 36
f 2 36 32
f 2 32 26
f 2 26 22
f 2 22 21
f 2 21 20
f 2 20 15
f 2 15 11
f 2 11 7
f 2 7 3
f 3 7 4
f 4 7 11
f 4 11 8
f 6 9 10
f 8 11 15
f 8 15 12
f 9 13 10
f 10 13 17
f 10 17 18
f 10 18 14
f 12 15 16
f 14 18 19
f 15 20 16
f 16 20 21
f 16 21 22
f 16 22 23
f 17 24 25
f 17 25 18
f 18 25 19
f 22 26 27
f 22 27 23
f 24 28 25
f 25 28 29
f 26 30 31
f 26 31 27
f 26 32 33
f 26 33 30
f 28 34 35
f 28 35 29
f 32 36 33
f 33 36 37
f 34 38 35
f 35 38 39
f 36 39 37
f 37 39 38

