# https://github.com/mikedh/trimesh
v -0.04596308 -0.00000387 -0.10125200
v -0.04596308 -0.00000387 -0.10068236
v -0.04491507 -0.00000387 -0.10125200
v -0.04596066 -0.00050142 -0.10125200
v -0.04595582 -0.00000387 -0.10018539
v -0.04596066 -0.00050142 -0.10068236
v -0.04594856 -0.00050142 -0.09977019
v -0.03320789 -0.00000387 -0.10117091
v -0.02123930 -0.03957686 -0.10125200
v -0.04584206 -0.00141691 -0.10125200
v -0.04594856 -0.00000387 -0.09977019
v -0.04584206 -0.00141691 -0.10068236
v -0.04583723 -0.00141691 -0.09977019
v -0.04572830 -0.00050142 -0.09911070
v -0.04572830 -0.00000387 -0.09911037
v -0.04552500 -0.00374145 -0.09930552
v -0.04555888 -0.00323992 -0.09926245
v -0.04561697 -0.00232842 -0.09919449
v -0.04567506 -0.00141691 -0.09914334
v -0.03255439 -0.00000387 -0.10115611
v -0.02123930 -0.02615102 -0.10116957
v -0.02123930 -0.04065555 -0.10125200
v -0.04572347 -0.00232842 -0.10125200
v -0.04572347 -0.00232842 -0.10068236
v -0.04560003 -0.00323992 -0.09977019
v -0.04506271 -0.00141691 -0.09899900
v -0.04506271 -0.00050142 -0.09897914
v -0.04479648 -0.00780144 -0.09912013
v -0.04415025 -0.00780144 -0.09898352
v -0.04506271 -0.00000387 -0.09897881
v -0.04552984 -0.00377728 -0.09977019
v -0.04465368 -0.01044442 -0.09977019
v -0.04463674 -0.01031705 -0.09927221
v -0.04468272 -0.00962446 -0.09921838
v -0.04474081 -0.00871295 -0.09916084
v -0.02864554 -0.00000387 -0.10067260
v -0.02123930 -0.02521961 -0.10115174
v -0.02123930 -0.02529126 -0.10115375
v -0.02123930 -0.02603559 -0.10116789
v -0.02123930 -0.04066749 -0.10068236
v -0.02184681 -0.04043264 -0.10125200
v -0.04555888 -0.00358224 -0.10125200
v -0.04465610 -0.01045636 -0.10068236
v -0.02123930 -0.00050142 -0.09781496
v -0.04395904 -0.01235899 -0.09912013
v -0.04415025 -0.00871295 -0.09901178
v -0.04323778 -0.01235899 -0.09899361
v -0.02123930 -0.00000387 -0.09781496
v -0.04458349 -0.01090217 -0.09977019
v -0.04447941 -0.01144748 -0.09977019
v -0.04424706 -0.01235899 -0.09977019
v -0.04370248 -0.01374814 -0.09930283
v -0.04379930 -0.01327448 -0.09920963
v -0.02773549 -0.00000387 -0.10051210
v -0.02123930 -0.01885896 -0.10064602
v -0.02659309 -0.00000387 -0.10028869
v -0.02632202 -0.00000387 -0.10023519
v -0.02123930 -0.04066351 -0.09977019
v -0.02214209 -0.04031721 -0.09977019
v -0.02214693 -0.04031721 -0.10068236
v -0.02214693 -0.04031721 -0.10125200
v -0.04465610 -0.01045636 -0.10125200
v -0.04141526 -0.01692051 -0.09899429
v -0.03959032 -0.02147805 -0.09899698
v -0.03776539 -0.02421655 -0.09900303
v -0.03502798 -0.02786259 -0.09900472
v -0.03229542 -0.03151260 -0.09900674
v -0.03138295 -0.03242411 -0.09900774
v -0.02773549 -0.03515863 -0.09900472
v -0.02408562 -0.03789714 -0.09900303
v -0.02135064 -0.03972015 -0.09899731
v -0.02123930 -0.03972015 -0.09900034
v -0.04295702 -0.01509749 -0.09915344
v -0.04211232 -0.01692051 -0.09912652
v -0.04050279 -0.01965901 -0.09901649
v -0.04232531 -0.01509749 -0.09900606
v -0.04323778 -0.01327448 -0.09904678
v -0.02123930 -0.00000387 -0.09878769
v -0.04445279 -0.01144748 -0.10068236
v -0.04424222 -0.01235899 -0.10068236
v -0.04462221 -0.01062752 -0.10125200
v -0.04391547 -0.01327448 -0.10125200
v -0.04391547 -0.01327448 -0.10068236
v -0.04391063 -0.01327448 -0.09977019
v -0.04284326 -0.01570251 -0.09924226
v -0.04370974 -0.01376406 -0.09977019
v -0.04102075 -0.02026403 -0.09977019
v -0.04018573 -0.02227811 -0.09977019
v -0.04099896 -0.02021229 -0.09926346
v -0.04198162 -0.01765290 -0.09919886
v -0.02408562 -0.00000387 -0.09969213
v -0.02322882 -0.00000387 -0.09943540
v -0.02129981 -0.00000387 -0.09880754
v -0.02123930 -0.04042070 -0.09913560
v -0.02202591 -0.04026945 -0.09921501
v -0.02259711 -0.04009829 -0.09977019
v -0.02260195 -0.04009431 -0.10068236
v -0.02231635 -0.04023363 -0.10125200
v -0.04026076 -0.02147805 -0.09913527
v -0.03964599 -0.02243334 -0.09911239
v -0.03867786 -0.02330107 -0.09901447
v -0.03594045 -0.02695108 -0.09902087
v -0.03320789 -0.03060109 -0.09902894
v -0.03227605 -0.03240819 -0.09913560
v -0.03047048 -0.03333562 -0.09902962
v -0.02682303 -0.03607412 -0.09902087
v -0.02317315 -0.03880865 -0.09901380
v -0.02230425 -0.03977588 -0.09911340
v -0.02135064 -0.04038886 -0.09913594
v -0.04110788 -0.01965901 -0.09917026
v -0.04430273 -0.01201667 -0.10125200
v -0.04422286 -0.01235899 -0.10125200
v -0.04403649 -0.01293216 -0.10125200
v -0.04111756 -0.02004113 -0.10125200
v -0.04102316 -0.02026801 -0.10068236
v -0.04013732 -0.02215870 -0.09921366
v -0.04018815 -0.02228209 -0.10068236
v -0.03997274 -0.02273187 -0.09977019
v -0.02317315 -0.03950123 -0.09916387
v -0.02371773 -0.03933406 -0.09924462
v -0.02317315 -0.03974802 -0.09977019
v -0.02260195 -0.04008635 -0.10125200
v -0.02354589 -0.03951318 -0.10125200
v -0.03936765 -0.02330107 -0.09916521
v -0.03866818 -0.02417277 -0.09913123
v -0.03779443 -0.02514000 -0.09909321
v -0.03504734 -0.02877409 -0.09909994
v -0.03195899 -0.03297340 -0.09922410
v -0.03131034 -0.03329979 -0.09916790
v -0.02864554 -0.03517854 -0.09910027
v -0.03317400 -0.03144095 -0.09916589
v -0.03284726 -0.03208976 -0.09922241
v -0.02501503 -0.03792500 -0.09909254
v -0.02404690 -0.03880069 -0.09912955
v -0.04018815 -0.02228209 -0.10125200
v -0.03919823 -0.02384240 -0.09924698
v -0.04010586 -0.02245324 -0.10125200
v -0.03996790 -0.02273585 -0.10068236
v -0.03961453 -0.02330107 -0.10068236
v -0.03961453 -0.02330107 -0.09977019
v -0.02376614 -0.03936988 -0.09977019
v -0.02472217 -0.03849021 -0.09919550
v -0.02834058 -0.03573181 -0.09920862
v -0.02733856 -0.03657565 -0.09926514
v -0.02376856 -0.03936988 -0.10068236
v -0.02376856 -0.03936988 -0.10125200
v -0.03835595 -0.02484944 -0.09919650
v -0.03475690 -0.02947464 -0.09917463
v -0.03247936 -0.03261119 -0.09977019
v -0.03202434 -0.03302117 -0.09977019
v -0.03095697 -0.03381724 -0.09928769
v -0.02934260 -0.03488797 -0.09917463
v -0.03560160 -0.02847159 -0.09920862
v -0.03644388 -0.02746853 -0.09926548
v -0.03368711 -0.03109068 -0.09928567
v -0.03289808 -0.03215344 -0.09977019
v -0.03923454 -0.02389016 -0.09977019
v -0.03996064 -0.02273585 -0.10125200
v -0.03937734 -0.02367124 -0.10125200
v -0.03923695 -0.02389016 -0.10068236
v -0.02527401 -0.03821557 -0.10068236
v -0.02782747 -0.03624926 -0.09977019
v -0.03097875 -0.03383316 -0.10068236
v -0.02394040 -0.03923853 -0.10125200
v -0.03248178 -0.03261517 -0.10068236
v -0.03202676 -0.03302515 -0.10068236
v -0.03143136 -0.03347891 -0.09977019
v -0.03097633 -0.03382918 -0.09977019
v -0.03335311 -0.03156435 -0.09977019
v -0.03646809 -0.02750037 -0.09977019
v -0.03290050 -0.03215742 -0.10068236
v -0.03762501 -0.02599579 -0.10068236
v -0.03335553 -0.03156833 -0.10068236
v -0.03923695 -0.02389016 -0.10125200
v -0.02527401 -0.03821557 -0.10125200
v -0.03097875 -0.03383316 -0.10125200
v -0.03248178 -0.03261517 -0.10125200
v -0.03202676 -0.03302515 -0.10125200
v -0.03290050 -0.03215742 -0.10125200
v -0.03762501 -0.02599579 -0.10125200
v -0.03335553 -0.03156833 -0.10125200
f 1 2 5
f 1 5 11
f 1 11 15
f 1 15 30
f 1 30 48
f 1 48 78
f 1 78 93
f 1 93 92
f 1 92 91
f 1 91 57
f 1 57 56
f 1 56 54
f 1 54 36
f 1 36 20
f 1 20 8
f 1 8 3
f 1 3 9
f 1 9 22
f 1 22 41
f 1 41 61
f 1 61 98
f 1 98 122
f 1 122 123
f 1 123 146
f 1 146 164
f 1 164 175
f 1 175 176
f 1 176 178
f 1 178 177
f 1 177 179
f 1 179 181
f 1 181 180
f 1 180 174
f 1 174 159
f 1 159 158
f 1 158 137
f 1 137 135
f 1 135 114
f 1 114 82
f 1 82 113
f 1 113 112
f 1 112 111
f 1 111 81
f 1 81 62
f 1 62 42
f 1 42 23
f 1 23 10
f 1 10 4
f 1 4 6
f 1 6 2
f 2 6 7
f 2 7 5
f 3 8 9
f 4 10 12
f 4 12 6
f 5 7 11
f 6 12 13
f 6 13 7
f 7 14 15
f 7 15 11
f 7 13 16
f 7 16 17
f 7 17 18
f 7 18 19
f 7 19 14
f 8 20 21
f 8 21 9
f 9 21 39
f 9 39 38
f 9 38 37
f 9 37 55
f 9 55 78
f 9 78 48
f 9 48 44
f 9 44 72
f 9 72 94
f 9 94 58
f 9 58 40
f 9 40 22
f 10 23 24
f 10 24 12
f 12 24 25
f 12 25 13
f 13 25 16
f 14 26 27
f 14 27 30
f 14 30 15
f 14 19 28
f 14 28 29
f 14 29 26
f 16 25 31
f 16 31 32
f 16 32 33
f 16 33 17
f 17 33 34
f 17 34 18
f 18 34 35
f 18 35 19
f 19 35 28
f 20 36 37
f 20 37 38
f 20 38 39
f 20 39 21
f 22 40 41
f 23 42 24
f 24 42 43
f 24 43 31
f 24 31 25
f 26 29 27
f 27 44 30
f 27 29 44
f 28 35 45
f 28 45 46
f 28 46 29
f 29 46 47
f 29 47 44
f 30 44 48
f 31 43 32
f 32 43 49
f 32 49 33
f 33 49 50
f 33 50 51
f 33 51 52
f 33 52 53
f 33 53 45
f 33 45 34
f 34 45 35
f 36 54 37
f 37 54 56
f 37 56 57
f 37 57 55
f 40 58 59
f 40 59 60
f 40 60 61
f 40 61 41
f 42 62 43
f 43 62 49
f 44 47 63
f 44 63 64
f 44 64 65
f 44 65 66
f 44 66 67
f 44 67 68
f 44 68 69
f 44 69 70
f 44 70 71
f 44 71 72
f 45 53 73
f 45 73 74
f 45 74 75
f 45 75 76
f 45 76 77
f 45 77 47
f 45 47 46
f 47 77 76
f 47 76 63
f 49 62 50
f 50 79 80
f 50 80 51
f 50 62 81
f 50 81 79
f 51 80 82
f 51 82 83
f 51 83 84
f 51 84 52
f 52 85 53
f 52 84 86
f 52 86 87
f 52 87 88
f 52 88 89
f 52 89 85
f 53 85 90
f 53 90 73
f 55 57 91
f 55 91 92
f 55 92 93
f 55 93 78
f 58 94 95
f 58 95 59
f 59 95 96
f 59 96 60
f 60 96 61
f 61 96 97
f 61 97 98
f 63 76 64
f 64 76 75
f 64 75 99
f 64 99 100
f 64 100 101
f 64 101 65
f 65 101 67
f 65 67 66
f 67 101 102
f 67 102 103
f 67 103 104
f 67 104 68
f 68 104 105
f 68 105 106
f 68 106 107
f 68 107 69
f 69 107 70
f 70 107 71
f 71 107 108
f 71 108 109
f 71 109 94
f 71 94 72
f 73 90 110
f 73 110 99
f 73 99 74
f 74 99 75
f 79 111 80
f 79 81 111
f 80 111 112
f 80 112 113
f 80 113 82
f 82 114 83
f 83 86 84
f 83 114 115
f 83 115 86
f 85 89 116
f 85 116 90
f 86 115 87
f 87 115 117
f 87 117 88
f 88 117 118
f 88 118 116
f 88 116 89
f 90 116 110
f 94 109 95
f 95 109 119
f 95 119 120
f 95 120 96
f 96 120 121
f 96 121 97
f 97 122 98
f 97 121 123
f 97 123 122
f 99 116 124
f 99 124 100
f 99 110 116
f 100 124 101
f 101 124 125
f 101 125 126
f 101 126 102
f 102 126 103
f 103 126 127
f 103 127 104
f 104 128 129
f 104 129 130
f 104 130 105
f 104 127 131
f 104 131 132
f 104 132 128
f 105 130 133
f 105 133 106
f 106 133 107
f 107 134 119
f 107 119 108
f 107 133 134
f 108 119 109
f 114 135 117
f 114 117 115
f 116 118 136
f 116 136 124
f 117 135 118
f 118 135 137
f 118 137 138
f 118 138 139
f 118 139 140
f 118 140 136
f 119 134 120
f 120 141 121
f 120 134 142
f 120 142 143
f 120 143 128
f 120 128 144
f 120 144 141
f 121 141 123
f 123 141 145
f 123 145 146
f 124 136 125
f 125 136 147
f 125 147 148
f 125 148 127
f 125 127 126
f 127 148 131
f 128 132 149
f 128 149 150
f 128 150 151
f 128 151 144
f 128 143 152
f 128 152 129
f 129 152 130
f 130 152 134
f 130 134 133
f 131 148 132
f 132 148 153
f 132 153 136
f 132 136 154
f 132 154 155
f 132 155 156
f 132 156 149
f 134 152 142
f 136 140 157
f 136 157 154
f 136 153 147
f 137 158 138
f 138 158 159
f 138 159 139
f 139 159 140
f 140 159 160
f 140 160 157
f 141 161 145
f 141 144 151
f 141 151 162
f 141 162 163
f 141 163 161
f 142 152 143
f 145 161 164
f 145 164 146
f 147 153 148
f 149 165 166
f 149 166 150
f 149 156 171
f 149 171 165
f 150 166 167
f 150 167 151
f 151 167 168
f 151 168 162
f 154 157 155
f 155 169 156
f 155 157 170
f 155 170 169
f 156 169 173
f 156 173 171
f 157 160 172
f 157 172 173
f 157 173 170
f 159 174 160
f 160 174 180
f 160 180 172
f 161 175 164
f 161 163 176
f 161 176 175
f 162 168 163
f 163 168 167
f 163 167 166
f 163 166 178
f 163 178 176
f 165 171 179
f 165 179 177
f 165 177 178
f 165 178 166
f 169 170 173
f 171 173 181
f 171 181 179
f 172 180 181
f 172 181 173

