# https://github.com/mikedh/trimesh
v -0.02123688 -0.01558576 -0.10024806
v -0.01812060 -0.01558576 -0.09965309
v -0.02123688 -0.01558576 -0.09923821
v -0.02123688 0.00004285 -0.09878750
v -0.01344739 -0.01558576 -0.09858100
v -0.02123688 -0.01315947 -0.09891008
v -0.00938445 -0.01558576 -0.09646418
v -0.00896398 -0.00508969 -0.09156674
v -0.00896398 -0.00422840 -0.09124803
v -0.00896398 -0.00415038 -0.09122352
v -0.00896398 -0.00354304 -0.09109528
v -0.00896398 -0.00305197 -0.09099533
v -0.00896398 -0.00285615 -0.09095762
v -0.00896398 -0.00198263 -0.09082467
v -0.00896398 -0.00141354 -0.09074547
v -0.00896398 -0.00050176 -0.09062006
v -0.02123688 0.00004285 -0.09781442
v -0.02101463 0.00004285 -0.09871490
v -0.00896398 -0.01558576 -0.09742217
v -0.00958628 -0.01558576 -0.09760793
v -0.00981934 -0.01558576 -0.09766827
v -0.01321433 -0.01558576 -0.09852349
v -0.02123688 -0.00848435 -0.09831133
v -0.00913457 -0.01558576 -0.09640855
v -0.00896398 -0.01558576 -0.09637272
v -0.00896398 0.00004285 -0.09061534
v -0.02123688 -0.00050176 -0.09781442
v -0.02123688 -0.00494282 -0.09796057
v -0.02123688 -0.00506062 -0.09796623
v -0.02123688 -0.00586989 -0.09801620
v -0.02123688 -0.00677554 -0.09811521
v -0.02052208 0.00004285 -0.09855366
v -0.00896398 -0.01541595 -0.09736371
v -0.01838490 0.00004285 -0.09767016
v -0.01805213 0.00004285 -0.09753249
v -0.01759562 0.00004285 -0.09732411
v -0.01678711 0.00004285 -0.09693186
v -0.01655405 0.00004285 -0.09681494
v -0.01621167 0.00004285 -0.09664145
v -0.01602667 0.00004285 -0.09654244
v -0.01426790 0.00004285 -0.09559860
v -0.01360596 0.00004285 -0.09524029
v -0.01146998 0.00004285 -0.09405129
v -0.01128497 0.00004285 -0.09391645
v -0.01101347 0.00004285 -0.09370713
v -0.00896398 0.00004285 -0.09190241
v -0.01049449 0.00004285 -0.09325171
f 1 2 5
f 1 5 22
f 1 22 21
f 1 21 20
f 1 20 19
f 1 19 25
f 1 25 24
f 1 24 7
f 1 7 3
f 1 3 6
f 1 6 23
f 1 23 31
f 1 31 30
f 1 30 29
f 1 29 28
f 1 28 27
f 1 27 17
f 1 17 4
f 1 4 2
f 2 4 5
f 3 7 8
f 3 8 9
f 3 9 10
f 3 10 11
f 3 11 12
f 3 12 13
f 3 13 14
f 3 14 15
f 3 15 16
f 3 16 6
f 4 17 26
f 4 26 46
f 4 46 47
f 4 47 45
f 4 45 44
f 4 44 43
f 4 43 42
f 4 42 41
f 4 41 40
f 4 40 39
f 4 39 38
f 4 38 37
f 4 37 36
f 4 36 35
f 4 35 34
f 4 34 32
f 4 32 18
f 4 18 19
f 4 19 20
f 4 20 21
f 4 21 22
f 4 22 5
f 6 16 23
f 7 24 8
f 8 24 25
f 8 25 19
f 8 19 33
f 8 33 46
f 8 46 26
f 8 26 16
f 8 16 15
f 8 15 14
f 8 14 13
f 8 13 12
f 8 12 11
f 8 11 10
f 8 10 9
f 16 26 27
f 16 27 28
f 16 28 29
f 16 29 30
f 16 30 31
f 16 31 23
f 17 27 26
f 18 32 19
f 19 32 34
f 19 34 35
f 19 35 36
f 19 36 37
f 19 37 38
f 19 38 39
f 19 39 40
f 19 40 41
f 19 41 42
f 19 42 43
f 19 43 44
f 19 44 45
f 19 45 33
f 33 45 47
f 33 47 46

