# https://github.com/mikedh/trimesh
v -0.02123688 0.04057726 -0.10868059
v -0.02125320 0.04055830 -0.10420855
v -0.02123688 0.04056347 -0.10420855
v -0.02123688 0.03886578 -0.10868059
v -0.02215074 0.04023083 -0.10868059
v -0.02215074 0.04023083 -0.10420855
v -0.02123688 0.03960346 -0.10420855
v -0.02123688 0.03958622 -0.10421993
v -0.02123870 0.03958622 -0.10420855
v -0.03858026 0.02297126 -0.10420855
v -0.03793656 0.02297126 -0.10868059
v -0.02250069 0.04006192 -0.10868059
v -0.02260586 0.04000849 -0.10868059
v -0.02254602 0.04002745 -0.10420855
v -0.03974796 0.02297126 -0.10420855
v -0.03976066 0.02297126 -0.10868059
v -0.02273822 0.03992576 -0.10868059
v -0.02376269 0.03927771 -0.10420855
v -0.02260586 0.03999642 -0.10420855
v -0.03923845 0.02380890 -0.10420855
v -0.03952675 0.02335216 -0.10868059
v -0.02317339 0.03965344 -0.10868059
v -0.02330938 0.03956726 -0.10868059
v -0.02376269 0.03927771 -0.10797932
v -0.02887957 0.03535664 -0.10420855
v -0.03923845 0.02380890 -0.10868059
v -0.03843339 0.02485854 -0.10420855
v -0.02376087 0.03927771 -0.10868059
v -0.02411264 0.03900883 -0.10868059
v -0.02435561 0.03882269 -0.10868059
v -0.02796571 0.03605640 -0.10868059
v -0.02887957 0.03535664 -0.10797932
v -0.03143620 0.03339525 -0.10420855
v -0.03843339 0.02485854 -0.10868059
v -0.03802179 0.02539456 -0.10420855
v -0.02947430 0.03489990 -0.10868059
v -0.03143620 0.03339525 -0.10797932
v -0.03202731 0.03294023 -0.10420855
v -0.03485773 0.02951383 -0.10797932
v -0.03620132 0.02776443 -0.10868059
v -0.03485773 0.02951383 -0.10420855
v -0.03097927 0.03374513 -0.10868059
v -0.03157219 0.03329012 -0.10868059
v -0.03202731 0.03294023 -0.10797932
v -0.03242077 0.03257829 -0.10420855
v -0.03328930 0.03155451 -0.10420855
v -0.03324397 0.03161311 -0.10868059
v -0.03343073 0.03137009 -0.10868059
v -0.03202731 0.03293851 -0.10868059
v -0.03237726 0.03261793 -0.10868059
v -0.03248242 0.03252141 -0.10868059
v -0.03248242 0.03252141 -0.10420855
v -0.03289402 0.03206640 -0.10420855
v -0.03289402 0.03206640 -0.10868059
v -0.03257852 0.03241628 -0.10868059
v -0.03253863 0.03246109 -0.10420855
f 1 2 3
f 1 3 7
f 1 7 8
f 1 8 4
f 1 4 11
f 1 11 16
f 1 16 21
f 1 21 26
f 1 26 34
f 1 34 40
f 1 40 48
f 1 48 47
f 1 47 54
f 1 54 55
f 1 55 51
f 1 51 50
f 1 50 49
f 1 49 43
f 1 43 42
f 1 42 36
f 1 36 31
f 1 31 30
f 1 30 29
f 1 29 28
f 1 28 23
f 1 23 22
f 1 22 17
f 1 17 13
f 1 13 12
f 1 12 5
f 1 5 6
f 1 6 2
f 2 6 14
f 2 14 19
f 2 19 18
f 2 18 25
f 2 25 33
f 2 33 38
f 2 38 45
f 2 45 52
f 2 52 56
f 2 56 53
f 2 53 46
f 2 46 41
f 2 41 35
f 2 35 27
f 2 27 20
f 2 20 15
f 2 15 10
f 2 10 9
f 2 9 7
f 2 7 3
f 4 8 9
f 4 9 10
f 4 10 11
f 5 12 6
f 6 12 13
f 6 13 14
f 7 9 8
f 10 15 16
f 10 16 11
f 13 17 18
f 13 18 19
f 13 19 14
f 15 20 16
f 16 20 21
f 17 22 18
f 18 22 23
f 18 23 24
f 18 24 32
f 18 32 25
f 20 26 21
f 20 27 34
f 20 34 26
f 23 28 24
f 24 28 29
f 24 29 30
f 24 30 31
f 24 31 32
f 25 32 37
f 25 37 33
f 27 35 34
f 31 36 32
f 32 36 37
f 33 37 44
f 33 44 38
f 34 35 39
f 34 39 40
f 35 41 39
f 36 42 37
f 37 43 44
f 37 42 43
f 38 44 45
f 39 41 46
f 39 46 47
f 39 47 48
f 39 48 40
f 43 49 44
f 44 49 50
f 44 50 51
f 44 51 45
f 45 51 52
f 46 53 54
f 46 54 47
f 51 55 56
f 51 56 52
f 53 56 54
f 54 56 55

