# https://github.com/mikedh/trimesh
v 0.01087049 0.02319344 -0.09998440
v 0.01265560 0.02319344 -0.10022218
v 0.01087049 0.02319344 -0.09907512
v 0.01087049 0.02396533 -0.10023080
v 0.01111803 0.02370623 -0.10018730
v 0.01172585 0.02358007 -0.10024311
v 0.01325412 0.02319344 -0.10029501
v 0.01236854 0.02319344 -0.09919493
v 0.02274217 0.03705218 -0.09931126
v 0.01087049 0.03705218 -0.10001804
v 0.01087049 0.02420137 -0.10029173
v 0.01607125 0.02319344 -0.10061445
v 0.02274217 0.02319344 -0.10008287
v 0.02274217 0.03705218 -0.10033604
v 0.01087049 0.03705218 -0.10084546
v 0.01087049 0.02470873 -0.10038426
v 0.01698240 0.02319344 -0.10069692
v 0.01087049 0.02565833 -0.10055741
v 0.01087049 0.02595135 -0.10060870
v 0.02274217 0.02319344 -0.10097389
v 0.02274217 0.03567525 -0.10054633
v 0.02243419 0.03598320 -0.10053464
v 0.02152188 0.03598320 -0.10063681
v 0.02152188 0.03689617 -0.10049053
v 0.02152653 0.03705218 -0.10046181
v 0.01680691 0.03705218 -0.10073406
v 0.01087049 0.03563456 -0.10114479
v 0.02274217 0.02393549 -0.10113535
v 0.02274217 0.02376863 -0.10110519
v 0.01087049 0.02656995 -0.10068892
v 0.02274217 0.03507158 -0.10063250
v 0.02243419 0.03507158 -0.10066471
v 0.02060957 0.03598320 -0.10070041
v 0.02060957 0.03689617 -0.10057629
v 0.02060957 0.03705218 -0.10054633
v 0.01771806 0.03705218 -0.10071169
v 0.01087049 0.03508650 -0.10115361
v 0.01125401 0.03558708 -0.10114315
v 0.01331339 0.03415996 -0.10115402
v 0.02190889 0.02453102 -0.10114253
v 0.02243419 0.02433975 -0.10115013
v 0.02274217 0.02423529 -0.10115341
v 0.01094719 0.03093133 -0.10114171
v 0.01087049 0.03104121 -0.10114459
v 0.02274217 0.03476228 -0.10067292
v 0.01835378 0.03280339 -0.10113966
v 0.01878494 0.03689617 -0.10068482
v 0.01969726 0.03689617 -0.10063907
v 0.01954152 0.03705218 -0.10062327
v 0.02045384 0.03705218 -0.10055864
v 0.01862921 0.03705218 -0.10067312
v 0.01385148 0.03464969 -0.10114192
v 0.01087049 0.03477720 -0.10115669
v 0.01331339 0.03469988 -0.10114479
v 0.01787263 0.03233538 -0.10115197
v 0.01513802 0.03324699 -0.10115546
v 0.02274217 0.02467753 -0.10116346
v 0.01087049 0.03123791 -0.10115279
v 0.01087049 0.03141019 -0.10115751
v 0.02274217 0.02935770 -0.10114500
v 0.02204835 0.03010924 -0.10114294
v 0.01936836 0.03196232 -0.10114335
v 0.01870940 0.03229468 -0.10114561
v 0.01787263 0.03285223 -0.10114294
v 0.01575630 0.03375706 -0.10114315
v 0.01240108 0.03415996 -0.10115669
v 0.01087049 0.03415996 -0.10115997
v 0.01696148 0.03233538 -0.10115628
v 0.01878494 0.03142376 -0.10115628
v 0.02243419 0.02503974 -0.10116613
v 0.02274217 0.02503974 -0.10116715
v 0.01148877 0.03142376 -0.10116592
v 0.01087049 0.03204100 -0.10116880
v 0.02274217 0.02921255 -0.10114766
v 0.02152188 0.03029509 -0.10114582
v 0.02238422 0.02955305 -0.10114746
v 0.02152188 0.02960053 -0.10115525
v 0.01605033 0.03233538 -0.10115833
v 0.01513802 0.03142376 -0.10116510
v 0.01240108 0.03142376 -0.10117105
v 0.01148877 0.03324699 -0.10116346
v 0.01087049 0.03295397 -0.10116633
v 0.01787263 0.03142376 -0.10115895
v 0.01696148 0.03051079 -0.10116592
v 0.01878494 0.03051079 -0.10116059
v 0.01787263 0.02960053 -0.10116777
v 0.01787263 0.03051079 -0.10116346
v 0.02152188 0.02595135 -0.10116941
v 0.02274217 0.02564341 -0.10116880
v 0.01087049 0.03233538 -0.10116941
v 0.02274217 0.02837961 -0.10115649
v 0.02152188 0.02686432 -0.10116756
v 0.01878494 0.02960053 -0.10116469
v 0.01513802 0.03051079 -0.10116982
v 0.01696148 0.02960053 -0.10117044
v 0.02060957 0.02686432 -0.10117064
v 0.01878494 0.02868756 -0.10116880
f 1 2 7
f 1 7 12
f 1 12 17
f 1 17 20
f 1 20 13
f 1 13 8
f 1 8 3
f 1 3 10
f 1 10 15
f 1 15 27
f 1 27 37
f 1 37 53
f 1 53 67
f 1 67 82
f 1 82 90
f 1 90 73
f 1 73 59
f 1 59 58
f 1 58 44
f 1 44 30
f 1 30 19
f 1 19 18
f 1 18 16
f 1 16 11
f 1 11 4
f 1 4 5
f 1 5 6
f 1 6 2
f 2 6 7
f 3 8 9
f 3 9 10
f 4 11 6
f 4 6 5
f 6 11 12
f 6 12 7
f 8 13 9
f 9 14 25
f 9 25 35
f 9 35 50
f 9 50 49
f 9 49 51
f 9 51 36
f 9 36 26
f 9 26 15
f 9 15 10
f 9 13 20
f 9 20 29
f 9 29 28
f 9 28 42
f 9 42 57
f 9 57 71
f 9 71 89
f 9 89 91
f 9 91 74
f 9 74 60
f 9 60 45
f 9 45 31
f 9 31 21
f 9 21 14
f 11 16 12
f 12 16 18
f 12 18 19
f 12 19 17
f 14 21 22
f 14 22 23
f 14 23 24
f 14 24 25
f 15 26 27
f 17 28 29
f 17 29 20
f 17 19 30
f 17 30 28
f 21 31 23
f 21 23 22
f 23 31 32
f 23 32 33
f 23 33 34
f 23 34 24
f 24 34 25
f 25 34 35
f 26 36 27
f 27 36 38
f 27 38 39
f 27 39 37
f 28 40 41
f 28 41 42
f 28 30 43
f 28 43 40
f 30 44 43
f 31 45 32
f 32 45 46
f 32 46 33
f 33 47 48
f 33 48 34
f 33 46 47
f 34 48 49
f 34 49 50
f 34 50 35
f 36 51 47
f 36 47 52
f 36 52 38
f 37 39 53
f 38 52 54
f 38 54 39
f 39 55 56
f 39 56 53
f 39 54 52
f 39 52 55
f 40 43 41
f 41 43 44
f 41 44 42
f 42 44 58
f 42 58 59
f 42 59 57
f 45 60 61
f 45 61 46
f 46 61 62
f 46 62 63
f 46 63 64
f 46 64 52
f 46 52 47
f 47 51 48
f 48 51 49
f 52 64 65
f 52 65 55
f 53 56 66
f 53 66 67
f 55 68 56
f 55 65 64
f 55 64 63
f 55 63 69
f 55 69 68
f 56 68 66
f 57 70 71
f 57 59 72
f 57 72 70
f 59 73 72
f 60 74 61
f 61 75 63
f 61 63 62
f 61 74 76
f 61 76 75
f 63 75 77
f 63 77 69
f 66 68 78
f 66 78 79
f 66 79 80
f 66 80 81
f 66 81 82
f 66 82 67
f 68 69 83
f 68 83 84
f 68 84 78
f 69 85 86
f 69 86 87
f 69 87 83
f 69 77 85
f 70 88 71
f 70 72 73
f 70 73 88
f 71 88 89
f 73 90 80
f 73 80 88
f 74 91 77
f 74 77 76
f 75 76 77
f 77 91 89
f 77 89 92
f 77 92 93
f 77 93 85
f 78 84 79
f 79 84 80
f 80 90 82
f 80 82 81
f 80 84 94
f 80 94 95
f 80 95 96
f 80 96 88
f 83 87 95
f 83 95 84
f 84 95 94
f 85 93 86
f 86 93 97
f 86 97 95
f 86 95 87
f 88 96 89
f 89 96 92
f 92 96 97
f 92 97 93
f 95 97 96

