# https://github.com/mikedh/trimesh
v 0.01087049 0.04463069 -0.09977061
v 0.01092162 0.04462253 -0.09977061
v 0.01087049 0.04463069 -0.09987449
v 0.01087049 0.04456318 -0.09966632
v 0.01240108 0.04400156 -0.09911953
v 0.01087049 0.04458692 -0.10317163
v 0.01148877 0.04451496 -0.09977061
v 0.01087049 0.04422339 -0.09914365
v 0.01148877 0.04411062 -0.09912648
v 0.01240108 0.04328117 -0.09899356
v 0.01331339 0.04328117 -0.09904468
v 0.01513802 0.04236938 -0.09900542
v 0.01969726 0.04054579 -0.09901728
v 0.01696148 0.04215571 -0.09912648
v 0.01513802 0.04300222 -0.09915306
v 0.01331339 0.04384576 -0.09920705
v 0.01087049 0.04362097 -0.10317163
v 0.01240108 0.04425158 -0.10317163
v 0.01240108 0.04429016 -0.09977061
v 0.01240108 0.04428274 -0.10068303
v 0.01087049 0.04328117 -0.09905082
v 0.01878494 0.04054579 -0.09899765
v 0.01696148 0.04145684 -0.09899438
v 0.02152188 0.03963325 -0.09899724
v 0.02152188 0.04030170 -0.09913629
v 0.01969726 0.04115044 -0.09917106
v 0.01769249 0.04202588 -0.09919887
v 0.01574352 0.04288722 -0.09924140
v 0.01379454 0.04374783 -0.09930029
v 0.01087049 0.03705218 -0.10084580
v 0.02274217 0.03885277 -0.10317163
v 0.01331339 0.04396372 -0.10317163
v 0.01331339 0.04395853 -0.09977061
v 0.01331339 0.04396372 -0.10068303
v 0.01087049 0.03705218 -0.10001804
v 0.02243419 0.03872145 -0.09904264
v 0.02274217 0.03872145 -0.09903282
v 0.02274217 0.03960357 -0.09912893
v 0.02247487 0.03968889 -0.09911339
v 0.02219827 0.04018003 -0.09921523
v 0.02024929 0.04104063 -0.09926471
v 0.01381081 0.04375451 -0.09977061
v 0.02231217 0.04022751 -0.09977061
v 0.02030159 0.04106215 -0.09977061
v 0.01680691 0.03705218 -0.10073415
v 0.02274217 0.04000791 -0.10317163
v 0.02274217 0.03705218 -0.10033622
v 0.02268755 0.03705218 -0.10034195
v 0.02152653 0.03705218 -0.10046218
v 0.02060957 0.03705218 -0.10054643
v 0.02045384 0.03705218 -0.10055911
v 0.01954152 0.03705218 -0.10062332
v 0.01862921 0.03705218 -0.10067321
v 0.01771806 0.03705218 -0.10071207
v 0.01381429 0.04375599 -0.10317163
v 0.01381429 0.04375599 -0.10068303
v 0.02274217 0.03705218 -0.09931133
v 0.02274217 0.03713379 -0.09927943
v 0.02274217 0.03776959 -0.09917147
v 0.02274217 0.04002349 -0.09977061
v 0.02231681 0.04022974 -0.10068303
v 0.02274217 0.04002200 -0.10074274
v 0.02231681 0.04022974 -0.10317163
v 0.02274217 0.04002349 -0.09982296
f 1 2 3
f 1 3 6
f 1 6 17
f 1 17 30
f 1 30 35
f 1 35 21
f 1 21 8
f 1 8 4
f 1 4 5
f 1 5 2
f 2 6 3
f 2 5 7
f 2 7 6
f 4 8 5
f 5 8 9
f 5 9 10
f 5 10 11
f 5 11 12
f 5 12 13
f 5 13 14
f 5 14 15
f 5 15 16
f 5 16 7
f 6 7 18
f 6 18 32
f 6 32 55
f 6 55 63
f 6 63 46
f 6 46 31
f 6 31 17
f 7 16 19
f 7 19 20
f 7 20 18
f 8 21 10
f 8 10 9
f 10 12 11
f 10 21 22
f 10 22 23
f 10 23 12
f 12 23 24
f 12 24 13
f 13 24 25
f 13 25 14
f 14 25 15
f 15 25 26
f 15 26 27
f 15 27 16
f 16 27 28
f 16 28 29
f 16 29 19
f 17 31 30
f 18 20 32
f 19 29 33
f 19 33 34
f 19 34 32
f 19 32 20
f 21 35 36
f 21 36 22
f 22 36 37
f 22 37 24
f 22 24 23
f 24 37 38
f 24 38 39
f 24 39 25
f 25 39 38
f 25 38 40
f 25 40 26
f 26 40 27
f 27 40 28
f 28 40 41
f 28 41 29
f 29 42 33
f 29 41 43
f 29 43 44
f 29 44 42
f 30 31 45
f 30 45 54
f 30 54 53
f 30 53 52
f 30 52 51
f 30 51 50
f 30 50 49
f 30 49 48
f 30 48 47
f 30 47 57
f 30 57 35
f 31 46 62
f 31 62 64
f 31 64 60
f 31 60 38
f 31 38 37
f 31 37 59
f 31 59 58
f 31 58 57
f 31 57 47
f 31 47 48
f 31 48 49
f 31 49 50
f 31 50 51
f 31 51 52
f 31 52 53
f 31 53 54
f 31 54 45
f 32 34 56
f 32 56 55
f 33 42 34
f 34 42 56
f 35 57 58
f 35 58 59
f 35 59 36
f 36 59 37
f 38 60 40
f 40 60 43
f 40 43 41
f 42 44 61
f 42 61 56
f 43 60 61
f 43 61 44
f 46 63 62
f 55 56 61
f 55 61 63
f 60 64 63
f 60 63 61
f 62 63 64

