# https://github.com/mikedh/trimesh
v -0.00142669 -0.00010474 -0.08364678
v -0.00189438 0.00041159 -0.08370715
v -0.00193857 -0.00010474 -0.08367696
v -0.00140251 -0.00010474 -0.08435485
v -0.00044712 0.00156974 -0.08433015
v -0.00044712 0.00162322 -0.08376753
v -0.00044712 0.00163556 -0.08372225
v -0.00044712 0.00187830 -0.08372225
v -0.00176433 0.00091147 -0.08379361
v -0.00235041 0.00041159 -0.08405982
v -0.00239459 -0.00010474 -0.08402414
v -0.00219701 -0.00010474 -0.08387182
v -0.00044712 0.00343552 -0.08673295
v -0.00044712 0.00185156 -0.08495452
v -0.00044712 0.00166848 -0.08461832
v -0.00044712 0.00159442 -0.08443719
v -0.00204945 -0.00010474 -0.08515487
v -0.00044712 0.00429950 -0.08768117
v -0.00044712 0.00384282 -0.08718853
v -0.00044712 0.00190710 -0.08372911
v -0.00085228 0.00179602 -0.08380047
v -0.00146087 0.00152036 -0.08391985
v -0.00200443 0.00205521 -0.08452776
v -0.00261301 0.00169933 -0.08475829
v -0.00273306 0.00109043 -0.08463891
v -0.00896398 0.00397036 -0.09115431
v -0.00896398 0.00369471 -0.09105688
v -0.00284061 0.00041159 -0.08451678
v -0.00286895 -0.00010474 -0.08448110
v -0.00224786 -0.00010474 -0.08537168
v -0.00044712 0.00475206 -0.08813812
v -0.00044712 0.00433858 -0.08772096
v -0.00044712 0.02091053 -0.09766560
v -0.00114074 0.02085294 -0.09766560
v -0.00128163 0.02084059 -0.09766560
v -0.00500150 0.02046620 -0.09766560
v -0.00584185 0.02016998 -0.09766560
v -0.00760258 0.01945617 -0.09766560
v -0.00896398 0.01885344 -0.09766560
v -0.00896398 0.01836385 -0.09741860
v -0.00896398 0.00500714 -0.09156873
v -0.00896398 0.00421927 -0.09124351
v -0.00896398 0.00313107 -0.09097180
v -0.00896398 0.00132494 -0.09071382
v -0.00896398 0.00041159 -0.09059718
v -0.00896398 0.00173225 -0.09077009
v -0.00896398 -0.00010474 -0.09061777
v -0.00537916 -0.00010474 -0.08877896
v -0.00044712 0.00520873 -0.08858273
v -0.00044712 0.01847493 -0.09766560
v -0.00896398 0.01630676 -0.09766560
v -0.00896398 -0.00010474 -0.09191042
v -0.00561676 -0.00010474 -0.08903557
v -0.00044712 0.00613443 -0.08948018
v -0.00896398 0.01608459 -0.09759150
v -0.00044712 0.01815403 -0.09753112
v -0.00044712 0.01812523 -0.09751877
v -0.00044712 0.01770764 -0.09733489
v -0.00044712 0.01766855 -0.09731705
v -0.00044712 0.01682926 -0.09692047
v -0.00044712 0.01626562 -0.09663642
v -0.00044712 0.01584803 -0.09640314
v -0.00044712 0.01480302 -0.09581856
v -0.00044712 0.01334660 -0.09499796
v -0.00044712 0.01328077 -0.09495954
v -0.00044712 0.01169064 -0.09392761
v -0.00044712 0.01123396 -0.09360239
v -0.00044712 0.01060244 -0.09314681
v -0.00882892 -0.00010474 -0.09180201
v -0.00607278 -0.00010474 -0.08948978
v -0.00044712 0.00711155 -0.09040095
v -0.00044712 0.00706835 -0.09036116
v -0.00044712 0.00665076 -0.08997281
v -0.00044712 0.00661167 -0.08993576
v -0.00044712 0.00944223 -0.09226720
v -0.00862051 -0.00010474 -0.09163460
v -0.00658966 -0.00010474 -0.08994674
v -0.00044712 0.00805575 -0.09119274
v -0.00044712 0.00763816 -0.09084967
v -0.00044712 0.00759908 -0.09081674
v -0.00044712 0.00810512 -0.09123253
v -0.00805110 -0.00010474 -0.09116392
v -0.00678808 -0.00010474 -0.09011415
v -0.00704569 -0.00010474 -0.09033097
f 1 2 3
f 1 3 12
f 1 12 11
f 1 11 29
f 1 29 47
f 1 47 52
f 1 52 69
f 1 69 76
f 1 76 82
f 1 82 84
f 1 84 83
f 1 83 77
f 1 77 70
f 1 70 53
f 1 53 48
f 1 48 30
f 1 30 17
f 1 17 4
f 1 4 5
f 1 5 6
f 1 6 7
f 1 7 8
f 1 8 2
f 2 9 10
f 2 10 11
f 2 11 12
f 2 12 3
f 2 8 9
f 4 13 14
f 4 14 15
f 4 15 16
f 4 16 5
f 4 17 18
f 4 18 19
f 4 19 13
f 5 16 15
f 5 15 14
f 5 14 13
f 5 13 19
f 5 19 18
f 5 18 32
f 5 32 31
f 5 31 49
f 5 49 54
f 5 54 74
f 5 74 73
f 5 73 72
f 5 72 71
f 5 71 80
f 5 80 79
f 5 79 78
f 5 78 81
f 5 81 75
f 5 75 68
f 5 68 67
f 5 67 66
f 5 66 65
f 5 65 64
f 5 64 63
f 5 63 62
f 5 62 61
f 5 61 60
f 5 60 59
f 5 59 58
f 5 58 57
f 5 57 56
f 5 56 50
f 5 50 33
f 5 33 20
f 5 20 8
f 5 8 7
f 5 7 6
f 8 20 9
f 9 20 21
f 9 21 22
f 9 22 23
f 9 23 24
f 9 24 10
f 10 25 26
f 10 26 27
f 10 27 28
f 10 28 11
f 10 24 25
f 11 28 29
f 17 30 31
f 17 31 32
f 17 32 18
f 20 33 34
f 20 34 35
f 20 35 36
f 20 36 37
f 20 37 38
f 20 38 39
f 20 39 21
f 21 39 22
f 22 39 23
f 23 39 40
f 23 40 24
f 24 41 42
f 24 42 25
f 24 40 41
f 25 42 26
f 26 42 41
f 26 41 40
f 26 40 39
f 26 39 51
f 26 51 55
f 26 55 52
f 26 52 47
f 26 47 45
f 26 45 44
f 26 44 46
f 26 46 43
f 26 43 27
f 27 43 28
f 28 44 45
f 28 45 29
f 28 43 46
f 28 46 44
f 29 45 47
f 30 48 49
f 30 49 31
f 33 50 51
f 33 51 39
f 33 39 38
f 33 38 37
f 33 37 36
f 33 36 35
f 33 35 34
f 48 53 54
f 48 54 49
f 50 55 51
f 50 56 52
f 50 52 55
f 52 56 57
f 52 57 58
f 52 58 59
f 52 59 60
f 52 60 61
f 52 61 62
f 52 62 63
f 52 63 64
f 52 64 65
f 52 65 66
f 52 66 67
f 52 67 68
f 52 68 69
f 53 70 71
f 53 71 72
f 53 72 73
f 53 73 74
f 53 74 54
f 68 75 76
f 68 76 69
f 70 77 78
f 70 78 79
f 70 79 80
f 70 80 71
f 75 81 76
f 76 81 82
f 77 83 81
f 77 81 78
f 81 83 84
f 81 84 82

