# https://github.com/mikedh/trimesh
v 0.01087049 -0.00010474 -0.09211900
v 0.01087049 -0.00010474 -0.09344983
v 0.01087049 0.00317587 -0.09251411
v 0.00302593 -0.00010474 -0.08451010
v 0.01087049 0.00772032 -0.09503139
v 0.00675711 -0.00010474 -0.08994983
v -0.00044712 0.00706696 -0.09036061
v -0.00044712 0.00711062 -0.09039978
v -0.00044712 0.00763683 -0.09084973
v -0.00044712 0.00772032 -0.09091913
v 0.01087049 0.00366915 -0.09258575
v 0.00299492 0.00041152 -0.08454256
v 0.00275673 -0.00010474 -0.08425154
v 0.01087049 0.00772032 -0.09381920
v -0.00044712 0.00661044 -0.08993528
v 0.00623975 -0.00010474 -0.08949428
v -0.00044712 0.00772032 -0.08959837
v 0.01087049 0.00405903 -0.09265738
v 0.00251412 0.00041152 -0.08408701
v 0.00254735 -0.00010474 -0.08405343
v 0.01087049 0.00766670 -0.09379905
v 0.01065224 0.00772032 -0.09368936
v 0.00112379 0.00192276 -0.08371428
v 0.00192253 0.00088412 -0.08379935
v 0.00205769 0.00041152 -0.08369973
v -0.00044712 0.00613402 -0.08947861
v 0.00604145 -0.00010474 -0.08929952
v -0.00044712 0.00384226 -0.08718855
v -0.00044712 0.00429877 -0.08768103
v -0.00044712 0.00475146 -0.08813770
v -0.00044712 0.00520720 -0.08858206
v -0.00044712 0.00567750 -0.08903873
v -0.00044712 0.00286030 -0.08452912
v -0.00044379 0.00772032 -0.08957822
v 0.01087049 0.00437307 -0.09273237
v 0.01087049 0.00472465 -0.09282751
v 0.01087049 0.00677053 -0.09349684
v 0.01087049 0.00712287 -0.09361325
v 0.00209093 -0.00010474 -0.08367623
v 0.01057026 0.00772032 -0.09364123
v 0.00123346 0.00285340 -0.08454703
v 0.00054329 0.00247885 -0.08399075
v 0.00054329 0.00202310 -0.08365160
v 0.00143952 0.00124259 -0.08366168
v 0.00964744 0.00772032 -0.09310174
v 0.00886864 0.00772032 -0.09265626
v 0.00876672 0.00772032 -0.09260142
v 0.00578443 -0.00010474 -0.08904544
v -0.00044712 0.00343477 -0.08673300
v -0.00044712 0.00237008 -0.08407805
v -0.00036846 0.00238310 -0.08405902
v -0.00036846 0.00287179 -0.08451457
v 0.00043250 0.00772032 -0.08955024
v 0.00054329 0.00293613 -0.08444630
v 0.00140296 -0.00010474 -0.08362138
v 0.00238561 0.00772032 -0.08973492
v 0.00784500 0.00772032 -0.09212012
v 0.00712380 0.00772032 -0.09174852
v 0.00507653 0.00772032 -0.09077922
v 0.00429219 0.00772032 -0.09047141
v -0.00036846 0.00192736 -0.08371540
v 0.00054107 0.00132914 -0.08359676
v 0.00559499 -0.00010474 -0.08884733
v -0.00044712 0.00185153 -0.08495333
v -0.00044712 0.00205834 -0.08518614
v -0.00044712 0.00190591 -0.08372883
v 0.00145614 0.00772032 -0.08953793
v 0.00232246 0.00772032 -0.08972037
v -0.00044712 0.00163476 -0.08372212
v -0.00044712 0.00162250 -0.08376689
v 0.00128664 -0.00010474 -0.08428624
v -0.00044712 0.00187680 -0.08372212
v 0.00176633 -0.00010474 -0.08484140
v -0.00044712 0.00166770 -0.08461867
v -0.00044712 0.00156889 -0.08432989
v -0.00044712 0.00159340 -0.08443622
f 1 2 5
f 1 5 14
f 1 14 21
f 1 21 38
f 1 38 37
f 1 37 36
f 1 36 35
f 1 35 18
f 1 18 11
f 1 11 3
f 1 3 4
f 1 4 13
f 1 13 20
f 1 20 39
f 1 39 55
f 1 55 71
f 1 71 73
f 1 73 63
f 1 63 48
f 1 48 27
f 1 27 16
f 1 16 6
f 1 6 2
f 2 6 7
f 2 7 8
f 2 8 9
f 2 9 10
f 2 10 5
f 3 11 12
f 3 12 4
f 4 12 13
f 5 10 17
f 5 17 34
f 5 34 53
f 5 53 67
f 5 67 68
f 5 68 56
f 5 56 60
f 5 60 59
f 5 59 58
f 5 58 57
f 5 57 47
f 5 47 46
f 5 46 45
f 5 45 40
f 5 40 22
f 5 22 14
f 6 15 7
f 6 16 15
f 7 15 26
f 7 26 32
f 7 32 31
f 7 31 30
f 7 30 29
f 7 29 28
f 7 28 49
f 7 49 65
f 7 65 64
f 7 64 74
f 7 74 76
f 7 76 75
f 7 75 70
f 7 70 69
f 7 69 72
f 7 72 66
f 7 66 50
f 7 50 33
f 7 33 17
f 7 17 10
f 7 10 9
f 7 9 8
f 11 18 19
f 11 19 12
f 12 19 13
f 13 19 20
f 14 22 23
f 14 23 24
f 14 24 25
f 14 25 21
f 15 16 26
f 16 27 28
f 16 28 29
f 16 29 30
f 16 30 31
f 16 31 32
f 16 32 26
f 17 33 34
f 18 35 19
f 19 25 20
f 19 35 36
f 19 36 37
f 19 37 38
f 19 38 21
f 19 21 25
f 20 25 39
f 22 40 23
f 23 41 42
f 23 42 43
f 23 43 44
f 23 44 25
f 23 25 24
f 23 40 45
f 23 45 46
f 23 46 47
f 23 47 41
f 25 44 39
f 27 48 28
f 28 48 49
f 33 50 51
f 33 51 52
f 33 52 34
f 34 52 54
f 34 54 53
f 39 44 55
f 41 56 54
f 41 54 42
f 41 47 57
f 41 57 58
f 41 58 59
f 41 59 60
f 41 60 56
f 42 61 43
f 42 54 52
f 42 52 51
f 42 51 61
f 43 62 44
f 43 61 62
f 44 62 55
f 48 63 64
f 48 64 65
f 48 65 49
f 50 66 61
f 50 61 51
f 53 54 67
f 54 56 68
f 54 68 67
f 55 62 69
f 55 69 70
f 55 70 71
f 61 66 72
f 61 72 62
f 62 72 69
f 63 73 64
f 64 73 71
f 64 71 74
f 70 75 71
f 71 75 76
f 71 76 74

