# https://github.com/mikedh/trimesh
v -0.00374442 0.02669468 0.02995459
v -0.00374442 0.02540181 0.02995459
v -0.00374442 0.02490027 0.02175827
v -0.03615653 0.02525971 0.02995459
v -0.00374442 -0.00177079 0.02845574
v -0.04695740 -0.00177079 0.02995459
v -0.00374442 -0.00177079 0.02175827
v -0.01258796 0.02447395 0.02175827
v -0.03800012 0.02257923 0.02175827
v -0.04301431 0.02312535 0.02995459
v -0.02705706 0.02367705 0.02175827
v -0.05196685 -0.00177079 0.02995459
v -0.05010430 -0.00177079 0.02175827
v -0.04394795 0.01967862 0.02175827
v -0.04368729 0.02266282 0.02995459
v -0.05209955 0.00141959 0.02995459
v -0.05047871 0.00353444 0.02175827
v -0.05020857 -0.00044727 0.02175827
v -0.04517543 0.01863931 0.02175827
v -0.04788157 0.01962847 0.02995459
v -0.05215168 0.00707591 0.02995459
v -0.05053084 0.00698117 0.02175827
v -0.04785787 0.01505048 0.02175827
v -0.04809958 0.01934705 0.02995459
v -0.05216116 0.00954463 0.02995459
v -0.04939341 0.01212758 0.02175827
v -0.04873938 0.01384120 0.02175827
v -0.05055454 0.01468825 0.02995459
v -0.05204268 0.01001831 0.02995459
f 1 2 5
f 1 5 7
f 1 7 3
f 1 3 4
f 1 4 10
f 1 10 15
f 1 15 20
f 1 20 24
f 1 24 28
f 1 28 29
f 1 29 25
f 1 25 21
f 1 21 16
f 1 16 12
f 1 12 6
f 1 6 2
f 2 6 5
f 3 7 13
f 3 13 18
f 3 18 17
f 3 17 22
f 3 22 26
f 3 26 27
f 3 27 23
f 3 23 19
f 3 19 14
f 3 14 9
f 3 9 11
f 3 11 8
f 3 8 4
f 4 9 10
f 4 8 11
f 4 11 9
f 5 6 12
f 5 12 13
f 5 13 7
f 9 14 10
f 10 14 15
f 12 16 17
f 12 17 18
f 12 18 13
f 14 19 20
f 14 20 15
f 16 21 22
f 16 22 17
f 19 23 24
f 19 24 20
f 21 25 22
f 22 25 26
f 23 27 24
f 24 27 28
f 25 29 26
f 26 29 28
f 26 28 27

