# https://github.com/mikedh/trimesh
v 0.04683365 0.01556679 0.03324700
v 0.04779583 0.01314683 0.03135095
v 0.04594391 0.01853691 0.03089100
v 0.04357514 0.02059408 0.03314354
v 0.04346741 0.02067979 0.03314241
v 0.04714338 0.00138793 0.03310530
v 0.04765559 0.00910627 0.03313454
v 0.04390670 0.01439867 0.02175827
v 0.04819798 0.00168694 0.03199196
v 0.04821098 0.00138793 0.03194361
v 0.04550554 0.00138793 0.02175827
v 0.04500077 0.00805377 0.02175827
v 0.04389927 0.01442060 0.02175827
v 0.04346741 0.01521994 0.02175827
v 0.04346741 0.02175223 0.03063347
v 0.04346741 0.02080737 0.03295236
v 0.04346741 0.02073760 0.03310530
v 0.04346741 0.00138793 0.02977766
v 0.04818079 0.00138793 0.03208755
v 0.04346741 0.00138793 0.02175827
f 1 2 3
f 1 3 4
f 1 4 5
f 1 5 6
f 1 6 7
f 1 7 2
f 2 8 3
f 2 7 9
f 2 9 10
f 2 10 11
f 2 11 12
f 2 12 8
f 3 8 13
f 3 13 14
f 3 14 15
f 3 15 16
f 3 16 4
f 4 16 17
f 4 17 5
f 5 17 16
f 5 16 15
f 5 15 14
f 5 14 20
f 5 20 18
f 5 18 6
f 6 18 20
f 6 20 11
f 6 11 10
f 6 10 19
f 6 19 7
f 7 19 9
f 8 12 11
f 8 11 20
f 8 20 14
f 8 14 13
f 9 19 10

