# https://github.com/mikedh/trimesh
v -0.05274800 -0.00319016 0.03256391
v -0.05269323 -0.00177228 0.03286324
v -0.05259288 -0.00177228 0.03181072
v -0.05228679 -0.00177228 0.03057828
v -0.05217264 -0.00822138 0.03071416
v -0.05234985 -0.01112131 0.03298184
v -0.05188221 -0.00177228 0.03333791
v -0.05078075 -0.00177228 0.03057828
v -0.05227115 -0.00245137 0.03057828
v -0.05205021 -0.00862585 0.03057828
v -0.05070342 -0.01701818 0.03057828
v -0.05081849 -0.01701818 0.03086977
v -0.05211695 -0.00773632 0.03057828
v -0.05210452 -0.00815422 0.03057828
v -0.05058237 -0.01701818 0.03328604
v -0.05129673 -0.00479311 0.03311098
v -0.04804621 -0.00840197 0.03057828
v -0.05118948 -0.00177228 0.03216381
v -0.04812354 -0.01701818 0.03057828
v -0.05056626 -0.01701818 0.03327253
f 1 2 3
f 1 3 4
f 1 4 5
f 1 5 6
f 1 6 2
f 2 7 18
f 2 18 8
f 2 8 4
f 2 4 3
f 2 6 7
f 4 8 17
f 4 17 19
f 4 19 11
f 4 11 10
f 4 10 14
f 4 14 13
f 4 13 9
f 4 9 5
f 5 10 11
f 5 11 12
f 5 12 6
f 5 9 13
f 5 13 14
f 5 14 10
f 6 12 15
f 6 15 7
f 7 16 17
f 7 17 18
f 7 15 16
f 8 18 17
f 11 19 20
f 11 20 15
f 11 15 12
f 15 20 16
f 16 20 17
f 17 20 19

