# https://github.com/mikedh/trimesh
v -0.00425590 -0.00079480 0.02175827
v -0.05017903 -0.00079480 0.02175827
v -0.00425590 -0.02629560 0.02175827
v -0.00425590 -0.00079480 -0.04633428
v -0.04925498 -0.01460927 0.02175827
v -0.05030524 -0.00079480 -0.00377294
v -0.05014748 -0.00296244 -0.00093458
v -0.00779435 -0.02666960 0.02175827
v -0.00425590 -0.02563450 -0.04394335
v -0.00425590 -0.02375395 -0.04941033
v -0.04749252 -0.00079480 -0.04883706
v -0.04859237 -0.01727998 0.02175827
v -0.04984998 -0.00704752 -0.02427061
v -0.04922794 -0.01438539 0.00484000
v -0.05030074 -0.00079480 -0.01960061
v -0.02962451 -0.02760462 0.02175827
v -0.02872750 -0.02746765 -0.04666984
v -0.00738416 -0.02592686 -0.04166427
v -0.00425590 -0.02554495 -0.04666286
v -0.00425590 -0.02493917 -0.04903980
v -0.01468642 -0.02507877 -0.04966200
v -0.04746097 -0.00643384 -0.04926351
v -0.04960206 -0.00814057 -0.04832671
v -0.04852475 -0.00079480 -0.04825680
v -0.04606813 -0.02074084 0.02175827
v -0.04894396 -0.01418259 -0.04382450
v -0.04774494 -0.01775143 -0.02968166
v -0.04682089 -0.01936071 -0.04364972
v -0.04554525 -0.02125707 -0.03431671
v -0.04987703 -0.00599136 -0.04295761
v -0.04920540 -0.01347672 -0.03053457
v -0.05024214 -0.00079480 -0.03954599
v -0.03338383 -0.02769680 0.02175827
v -0.03190534 -0.02767836 0.00533636
v -0.03393375 -0.02753350 -0.04066455
v -0.03721526 -0.02634301 -0.04832671
v -0.02893485 -0.02689348 -0.04918661
v -0.01809865 -0.02650104 -0.04810300
v -0.00960188 -0.02585838 -0.04834769
v -0.03390220 -0.02455463 -0.04913068
v -0.04144787 -0.02196557 -0.04897688
v -0.04816415 -0.01481471 -0.04863432
v -0.04982744 -0.00079480 -0.04745983
v -0.05021509 -0.00079480 -0.04590782
v -0.04477445 -0.02226319 0.02175827
v -0.04429665 -0.02249234 -0.04827079
v -0.04311116 -0.02385930 -0.02659163
v -0.03897772 -0.02636935 0.02175827
v -0.03602526 -0.02719374 0.00943310
v -0.03702594 -0.02691982 -0.03550518
v -0.04033450 -0.02559236 -0.04651604
v -0.03649856 -0.02709365 -0.00236774
v -0.04293086 -0.02402786 0.01006229
v -0.04078525 -0.02553179 0.02175827
v -0.04275056 -0.02399626 -0.04144755
f 1 2 5
f 1 5 12
f 1 12 25
f 1 25 45
f 1 45 54
f 1 54 48
f 1 48 33
f 1 33 16
f 1 16 8
f 1 8 3
f 1 3 9
f 1 9 19
f 1 19 20
f 1 20 10
f 1 10 4
f 1 4 11
f 1 11 24
f 1 24 43
f 1 43 44
f 1 44 32
f 1 32 15
f 1 15 6
f 1 6 2
f 2 6 7
f 2 7 5
f 3 8 9
f 4 10 11
f 5 7 13
f 5 13 14
f 5 14 12
f 6 15 13
f 6 13 7
f 8 16 17
f 8 17 18
f 8 18 9
f 9 18 17
f 9 17 19
f 10 20 21
f 10 21 22
f 10 22 11
f 11 22 23
f 11 23 24
f 12 14 26
f 12 26 27
f 12 27 28
f 12 28 29
f 12 29 25
f 13 15 30
f 13 30 31
f 13 31 14
f 14 31 26
f 15 32 30
f 16 33 34
f 16 34 17
f 17 35 36
f 17 36 37
f 17 37 38
f 17 38 39
f 17 39 19
f 17 34 35
f 19 39 20
f 20 39 37
f 20 37 21
f 21 37 40
f 21 40 22
f 22 40 41
f 22 41 42
f 22 42 23
f 23 43 24
f 23 42 26
f 23 26 31
f 23 31 30
f 23 30 44
f 23 44 43
f 25 29 45
f 26 28 27
f 26 42 28
f 28 42 46
f 28 46 29
f 29 46 47
f 29 47 45
f 30 32 44
f 33 48 49
f 33 49 35
f 33 35 34
f 35 50 51
f 35 51 36
f 35 49 52
f 35 52 50
f 36 41 37
f 36 51 46
f 36 46 41
f 37 39 38
f 37 41 40
f 41 46 42
f 45 47 53
f 45 53 54
f 46 51 55
f 46 55 47
f 47 54 53
f 47 55 51
f 47 51 54
f 48 52 49
f 48 54 51
f 48 51 50
f 48 50 52

