# https://github.com/mikedh/trimesh
v 0.02835489 0.01961783 0.02965261
v 0.02127268 0.01287798 0.03068377
v 0.02835489 0.01567956 0.03020960
v 0.02835489 0.01961783 0.02175827
v -0.00045468 0.01961783 0.02970084
v 0.01694920 0.00664848 0.03105509
v 0.02835489 0.01428234 0.03034975
v 0.02835489 0.00138793 0.02175827
v -0.00374442 0.01961783 0.02175827
v -0.00374442 0.01961783 0.02945784
v 0.01160456 0.00138793 0.03090128
v 0.01318187 0.00401999 0.03093860
v 0.02835489 0.00138793 0.02911109
v -0.00374442 0.00138793 0.02175827
v -0.00374442 0.00138793 0.02852770
f 1 2 3
f 1 3 7
f 1 7 13
f 1 13 8
f 1 8 4
f 1 4 9
f 1 9 10
f 1 10 5
f 1 5 2
f 2 6 7
f 2 7 3
f 2 5 6
f 4 8 14
f 4 14 9
f 5 10 11
f 5 11 12
f 5 12 6
f 6 12 11
f 6 11 13
f 6 13 7
f 8 13 11
f 8 11 15
f 8 15 14
f 9 14 15
f 9 15 10
f 10 15 11

