# https://github.com/mikedh/trimesh
v -0.04000623 -0.01583092 -0.00551347
v -0.04185862 -0.01583092 -0.00549743
v -0.03962811 -0.01583092 -0.00550919
v -0.03936839 -0.02136737 -0.00517135
v -0.04000623 -0.02136737 -0.00517135
v -0.05482348 -0.02132644 -0.00517135
v -0.05667587 -0.02131370 -0.00517135
v -0.05667587 -0.02029120 -0.00522801
v -0.05852827 -0.02029120 -0.00520770
v -0.05887583 -0.01994460 -0.00521198
v -0.05887583 -0.01843813 -0.00522801
v -0.05887583 -0.01583092 -0.00522801
v -0.03936839 -0.01583092 -0.00550598
v -0.03936839 -0.02222068 -0.00418883
v -0.04000623 -0.02223796 -0.00418883
v -0.05852827 -0.02488610 -0.00129367
v -0.05887583 -0.02488429 -0.00129367
v -0.05852827 -0.02127004 -0.00515104
v -0.05887583 -0.02028665 -0.00520022
v -0.05887583 -0.01583092 0.00522579
v -0.03936839 -0.01583092 0.00530918
v -0.03936839 -0.02298301 -0.00241517
v -0.04185862 -0.02301303 -0.00310368
v -0.04556341 -0.02374443 -0.00223128
v -0.05482348 -0.02485518 -0.00115789
v -0.05667587 -0.02487974 -0.00124984
v -0.05482348 -0.02501619 -0.00023204
v -0.05667587 -0.02500801 -0.00032398
v -0.05852827 -0.02500255 -0.00036782
v -0.05887583 -0.02500255 -0.00036782
v -0.05887583 -0.02125730 -0.00514249
v -0.05887583 -0.02107081 -0.00515425
v -0.05887583 -0.02214244 0.00522579
v -0.04675887 -0.01583092 0.00536799
v -0.03939513 -0.01583092 0.00531239
v -0.03936839 -0.02029120 0.00519907
v -0.03936839 -0.02316222 -0.00109909
v -0.04185862 -0.02386087 -0.00048435
v -0.04371101 -0.02424840 -0.00048435
v -0.04556341 -0.02455679 -0.00048435
v -0.04185862 -0.02340511 -0.00217783
v -0.04371101 -0.02359069 -0.00221952
v -0.04926629 -0.02477694 -0.00073132
v -0.05111869 -0.02480423 -0.00088848
v -0.05297108 -0.02482971 -0.00103708
v -0.05297108 -0.02500710 -0.00011123
v -0.05111869 -0.02510535 0.00136736
v -0.05297108 -0.02512354 0.00136736
v -0.05887583 -0.02508351 0.00136736
v -0.05482348 -0.02511717 0.00136736
v -0.05887583 -0.02399460 0.00482594
v -0.04371101 -0.02214244 0.00522579
v -0.04185862 -0.01583092 0.00540861
v -0.04271989 -0.01583092 0.00540647
v -0.04462003 -0.01583092 0.00539044
v -0.04000623 -0.01583092 0.00538295
v -0.03936839 -0.02150383 0.00502159
v -0.04185862 -0.02214244 0.00515844
v -0.03936839 -0.02322044 -0.00039027
v -0.03982862 -0.02332597 -0.00064472
v -0.04185862 -0.02398004 0.00136736
v -0.04371101 -0.02438395 0.00136736
v -0.04556341 -0.02469416 0.00136736
v -0.04702814 -0.02487792 0.00136736
v -0.04811857 -0.02493705 0.00032925
v -0.04746737 -0.02476784 -0.00036568
v -0.04926629 -0.02495797 0.00019347
v -0.05111869 -0.02498253 0.00003631
v -0.05111869 -0.02505713 0.00321906
v -0.05297108 -0.02507623 0.00321906
v -0.04926629 -0.02503712 0.00136736
v -0.05482348 -0.02508442 0.00321906
v -0.05667587 -0.02508624 0.00321906
v -0.05887583 -0.02508351 0.00321906
v -0.05887583 -0.02418290 0.00472438
v -0.05852827 -0.02399460 0.00482594
v -0.04741581 -0.02393911 0.00469124
v -0.04556341 -0.02384268 0.00469124
v -0.04371101 -0.02369985 0.00469124
v -0.05667587 -0.02399460 0.00481953
v -0.05482348 -0.02399460 0.00479494
v -0.04000623 -0.02214244 0.00493072
v -0.03936839 -0.02217064 0.00481098
v -0.04185862 -0.02352064 0.00462602
v -0.03936839 -0.02329140 0.00136736
v -0.04000623 -0.02347516 0.00136736
v -0.04000623 -0.02347516 0.00321906
v -0.04185862 -0.02397640 0.00321906
v -0.04371101 -0.02435757 0.00321906
v -0.04556341 -0.02465504 0.00321906
v -0.04742535 -0.02485882 0.00326611
v -0.04804982 -0.02494706 0.00268023
v -0.04795434 -0.02495252 0.00136736
v -0.04943244 -0.02498526 0.00326611
v -0.05016193 -0.02492159 0.00414706
v -0.05111869 -0.02493432 0.00416844
v -0.05297108 -0.02495888 0.00421013
v -0.05482348 -0.02498344 0.00424862
v -0.05667587 -0.02499891 0.00427428
v -0.05852827 -0.02500255 0.00428070
v -0.05887583 -0.02500255 0.00428070
v -0.03936839 -0.02289022 0.00447848
v -0.04000623 -0.02327138 0.00440899
v -0.04892827 -0.02489611 0.00391506
v -0.03936839 -0.02328867 0.00321906
v -0.03936839 -0.02326229 0.00380922
v -0.03936839 -0.02317859 0.00429673
f 1 2 12
f 1 12 20
f 1 20 34
f 1 34 55
f 1 55 54
f 1 54 53
f 1 53 56
f 1 56 35
f 1 35 21
f 1 21 13
f 1 13 3
f 1 3 4
f 1 4 5
f 1 5 6
f 1 6 7
f 1 7 8
f 1 8 2
f 2 8 9
f 2 9 10
f 2 10 11
f 2 11 12
f 3 13 4
f 4 13 21
f 4 21 36
f 4 36 57
f 4 57 83
f 4 83 102
f 4 102 107
f 4 107 106
f 4 106 105
f 4 105 85
f 4 85 59
f 4 59 37
f 4 37 22
f 4 22 14
f 4 14 15
f 4 15 16
f 4 16 5
f 5 16 6
f 6 16 17
f 6 17 7
f 7 17 18
f 7 18 9
f 7 9 8
f 9 18 19
f 9 19 10
f 10 19 32
f 10 32 31
f 10 31 17
f 10 17 30
f 10 30 49
f 10 49 74
f 10 74 101
f 10 101 75
f 10 75 51
f 10 51 33
f 10 33 20
f 10 20 12
f 10 12 11
f 14 22 23
f 14 23 24
f 14 24 25
f 14 25 26
f 14 26 15
f 15 26 16
f 16 26 27
f 16 27 28
f 16 28 29
f 16 29 30
f 16 30 17
f 17 31 18
f 18 31 32
f 18 32 19
f 20 33 34
f 21 35 36
f 22 37 38
f 22 38 39
f 22 39 40
f 22 40 41
f 22 41 23
f 23 41 40
f 23 40 42
f 23 42 43
f 23 43 24
f 24 43 44
f 24 44 45
f 24 45 25
f 25 45 46
f 25 46 26
f 26 46 27
f 27 46 47
f 27 47 48
f 27 48 28
f 28 30 29
f 28 48 30
f 30 48 50
f 30 50 49
f 33 51 76
f 33 76 52
f 33 52 53
f 33 53 54
f 33 54 55
f 33 55 34
f 35 56 36
f 36 56 52
f 36 52 58
f 36 58 57
f 37 59 60
f 37 60 38
f 38 60 61
f 38 61 62
f 38 62 39
f 39 62 63
f 39 63 40
f 40 63 64
f 40 64 65
f 40 65 66
f 40 66 43
f 40 43 42
f 43 66 65
f 43 65 67
f 43 67 44
f 44 68 45
f 44 67 68
f 45 68 46
f 46 68 47
f 47 69 70
f 47 70 48
f 47 68 67
f 47 67 65
f 47 65 71
f 47 71 69
f 48 72 73
f 48 73 74
f 48 74 50
f 48 70 72
f 49 50 74
f 51 75 76
f 52 77 78
f 52 78 79
f 52 79 58
f 52 56 53
f 52 76 80
f 52 80 81
f 52 81 77
f 57 82 83
f 57 58 82
f 58 79 84
f 58 84 82
f 59 85 86
f 59 86 61
f 59 61 60
f 61 86 87
f 61 87 88
f 61 88 62
f 62 88 89
f 62 89 63
f 63 89 90
f 63 90 64
f 64 91 92
f 64 92 93
f 64 93 65
f 64 90 91
f 65 93 71
f 69 71 92
f 69 92 94
f 69 94 95
f 69 95 96
f 69 96 97
f 69 97 98
f 69 98 70
f 70 98 99
f 70 99 72
f 71 93 92
f 72 99 100
f 72 100 73
f 73 100 101
f 73 101 74
f 75 101 100
f 75 100 76
f 76 100 80
f 77 81 99
f 77 99 98
f 77 98 97
f 77 97 95
f 77 95 78
f 78 95 79
f 79 95 84
f 80 100 99
f 80 99 81
f 82 84 83
f 83 84 102
f 84 103 102
f 84 95 104
f 84 104 90
f 84 90 89
f 84 89 103
f 85 105 87
f 85 87 86
f 87 105 106
f 87 106 88
f 88 106 107
f 88 107 89
f 89 107 103
f 90 104 91
f 91 104 94
f 91 94 92
f 94 104 95
f 95 97 96
f 102 103 107

