# https://github.com/mikedh/trimesh
v -0.05887679 -0.00176600 0.00560189
v -0.05887679 0.00008500 0.00558978
v -0.06866680 0.00847145 0.00523727
v -0.06866680 -0.02214122 0.00523727
v -0.05887679 -0.00183719 0.00560079
v -0.06866680 0.00934474 0.00522625
v -0.05887679 0.01675348 0.00523727
v -0.06408663 0.01675348 0.00523727
v -0.06866680 -0.02399222 0.00482637
v -0.06408663 -0.02214122 0.00523727
v -0.05887679 -0.02214122 0.00522625
v -0.06866680 0.01032244 0.00507203
v -0.06593825 0.01675348 0.00506321
v -0.06713816 0.01803494 0.00445623
v -0.05887679 0.01826275 0.00518659
v -0.05887679 0.01860922 0.00515134
v -0.06038242 0.01860922 0.00504889
v -0.06593825 0.01831971 0.00465122
v -0.05887679 -0.02418207 0.00472392
v -0.05887679 -0.02399222 0.00482637
v -0.06866680 -0.02499841 0.00427998
v -0.06866680 0.01120048 0.00488806
v -0.06866680 0.02231122 0.00131998
v -0.06866680 0.01609376 0.00338878
v -0.06866680 0.01215920 0.00461596
v -0.05887679 0.01971982 0.00470740
v -0.05887679 0.01994764 0.00460605
v -0.06038242 0.01981949 0.00450360
v -0.06866680 0.02331740 0.00061827
v -0.06866680 0.02284279 0.00094985
v -0.05887679 -0.02499841 0.00427998
v -0.06866680 -0.02507909 0.00321914
v -0.05887679 -0.02508384 0.00321914
v -0.05887679 -0.02501739 0.00408169
v -0.05887679 0.02331740 0.00061827
v -0.05887679 0.02340283 -0.00048443
v -0.06866680 0.02336012 0.00003662
v -0.06866680 -0.02507909 0.00136735
v -0.05887679 -0.02508384 0.00136735
v -0.05887679 0.02340283 -0.00233622
v -0.06866680 0.02339809 -0.00048443
v -0.06866680 -0.02504112 0.00054666
v -0.05887679 -0.02499841 -0.00036766
v -0.06866680 -0.02499841 -0.00036766
v -0.06866680 0.02336012 -0.00302692
v -0.06866680 0.02339809 -0.00233622
v -0.05887679 0.02333639 -0.00340146
v -0.05887679 -0.02488450 -0.00129411
v -0.06866680 -0.02487026 -0.00129411
v -0.06866680 0.02331740 -0.00364602
v -0.05887679 0.02331740 -0.00364602
v -0.05887679 -0.02125369 -0.00514309
v -0.06866680 -0.02394476 -0.00162459
v -0.06540155 -0.01945490 -0.00515300
v -0.05956971 -0.02122996 -0.00512657
v -0.06866680 0.02295195 -0.00413513
v -0.05887679 0.02275261 -0.00439951
v -0.06408663 -0.01954033 -0.00517173
v -0.05887679 -0.02106859 -0.00515411
v -0.06634652 -0.01843448 -0.00493158
v -0.06866680 -0.01208888 -0.00515961
v -0.06408663 -0.01843448 -0.00522791
v -0.06866680 -0.01160952 -0.00518605
v -0.06866680 -0.01102574 -0.00521580
v -0.06866680 0.02261972 -0.00457246
v -0.05887679 0.02261972 -0.00457246
v -0.05887679 -0.02028548 -0.00519927
v -0.05887679 -0.01994375 -0.00521139
v -0.05887679 -0.00176600 -0.00565203
v -0.06866680 -0.01015245 -0.00522791
v -0.06866680 0.02169422 -0.00517173
v -0.05887679 0.02169422 -0.00517173
v -0.06866680 0.02046022 -0.00522791
v -0.05887679 -0.00141953 -0.00565093
v -0.05887679 0.02069278 -0.00521800
v -0.06866680 0.02104400 -0.00520147
v -0.05887679 0.02046022 -0.00522791
f 1 2 3
f 1 3 4
f 1 4 5
f 1 5 11
f 1 11 20
f 1 20 19
f 1 19 31
f 1 31 34
f 1 34 33
f 1 33 39
f 1 39 43
f 1 43 48
f 1 48 52
f 1 52 59
f 1 59 67
f 1 67 68
f 1 68 69
f 1 69 74
f 1 74 77
f 1 77 75
f 1 75 72
f 1 72 66
f 1 66 57
f 1 57 51
f 1 51 47
f 1 47 40
f 1 40 36
f 1 36 35
f 1 35 27
f 1 27 26
f 1 26 16
f 1 16 15
f 1 15 7
f 1 7 2
f 2 6 3
f 2 7 8
f 2 8 6
f 3 6 12
f 3 12 22
f 3 22 25
f 3 25 24
f 3 24 23
f 3 23 30
f 3 30 29
f 3 29 37
f 3 37 41
f 3 41 46
f 3 46 45
f 3 45 50
f 3 50 56
f 3 56 65
f 3 65 71
f 3 71 76
f 3 76 73
f 3 73 70
f 3 70 64
f 3 64 63
f 3 63 61
f 3 61 53
f 3 53 49
f 3 49 44
f 3 44 42
f 3 42 38
f 3 38 32
f 3 32 21
f 3 21 9
f 3 9 4
f 4 9 20
f 4 20 10
f 4 10 5
f 5 10 11
f 6 8 13
f 6 13 14
f 6 14 12
f 7 15 8
f 8 15 16
f 8 16 17
f 8 17 18
f 8 18 13
f 9 19 20
f 9 21 19
f 10 20 11
f 12 14 22
f 13 18 14
f 14 18 23
f 14 23 24
f 14 24 25
f 14 25 22
f 16 26 17
f 17 26 18
f 18 26 27
f 18 27 28
f 18 28 29
f 18 29 30
f 18 30 23
f 19 21 31
f 21 32 33
f 21 33 34
f 21 34 31
f 27 35 29
f 27 29 28
f 29 35 36
f 29 36 37
f 32 38 39
f 32 39 33
f 36 40 46
f 36 46 41
f 36 41 37
f 38 42 39
f 39 42 44
f 39 44 43
f 40 45 46
f 40 47 45
f 43 44 48
f 44 49 48
f 45 47 50
f 47 51 50
f 48 49 52
f 49 53 54
f 49 54 55
f 49 55 52
f 50 51 56
f 51 57 56
f 52 55 54
f 52 54 58
f 52 58 59
f 53 60 54
f 53 61 60
f 54 62 58
f 54 60 61
f 54 61 63
f 54 63 64
f 54 64 62
f 56 57 65
f 57 66 65
f 58 62 67
f 58 67 59
f 62 68 67
f 62 64 69
f 62 69 68
f 64 70 69
f 65 66 72
f 65 72 71
f 69 73 74
f 69 70 73
f 71 75 76
f 71 72 75
f 73 76 75
f 73 75 77
f 73 77 74

