# https://github.com/mikedh/trimesh
v -0.00152500 -0.06406453 0.03555298
v -0.00089074 -0.06406453 0.03554769
v -0.00216827 -0.06406453 0.03553271
v -0.00243036 -0.06431636 0.03540493
v -0.00215338 -0.06465213 0.03525335
v -0.00215338 -0.06502274 0.03507621
v -0.00152500 -0.06465213 0.03527009
v -0.00089701 -0.06406989 0.03554593
v -0.00023532 -0.06406453 0.03550363
v -0.00243036 -0.06406453 0.03551861
v -0.00243036 -0.06501381 0.03507181
v -0.00215338 -0.06533618 0.03492464
v -0.00152500 -0.06503702 0.03508327
v -0.00152500 -0.06590861 0.03465497
v -0.00089701 -0.06465213 0.03525864
v -0.00024473 -0.06470929 0.03518549
v 0.00035819 -0.06461552 0.03518637
v 0.00035819 -0.06406453 0.03542255
v -0.00243036 -0.06406453 0.03477130
v -0.00243036 -0.06532815 0.03491759
v -0.00215338 -0.06590861 0.03463734
v -0.00089701 -0.06590861 0.03462765
v -0.00089701 -0.06533350 0.03491759
v -0.00089701 -0.06501916 0.03507533
v -0.00152500 -0.06628992 0.03446197
v -0.00043630 -0.06498701 0.03505947
v 0.00098618 -0.06452979 0.03513702
v -0.00052718 -0.06623277 0.03442848
v 0.00098618 -0.06576840 0.03453688
v 0.00098618 -0.06406453 0.03531416
v 0.00132192 -0.06406453 0.03451309
v 0.00157187 -0.07318756 0.02655087
v -0.00126761 -0.07318756 0.02712281
v -0.00243036 -0.07048262 0.03018432
v -0.00243036 -0.06592557 0.03460298
v -0.00215338 -0.06626849 0.03444787
v -0.00089701 -0.06625867 0.03444435
v -0.00215338 -0.06658283 0.03424342
v -0.00152500 -0.06660337 0.03424606
v 0.00132192 -0.06445478 0.03509825
v 0.00132192 -0.06429582 0.03515993
v 0.00132192 -0.06406453 0.03524894
v 0.00132192 -0.06571750 0.03450604
v 0.00098618 -0.06608274 0.03431040
v -0.00152500 -0.06702130 0.03393234
v -0.00089701 -0.06697040 0.03389091
v 0.00014978 -0.06687038 0.03380896
v 0.00098618 -0.06647567 0.03399667
v 0.00132192 -0.06582198 0.03443201
v 0.00157187 -0.07048262 0.02963882
v 0.00157187 -0.07318756 0.02771590
v -0.00126761 -0.07318756 0.02821734
v -0.00243036 -0.07048262 0.03112375
v -0.00243036 -0.06623902 0.03443201
v -0.00243036 -0.06676143 0.03408479
v -0.00243036 -0.06715257 0.03381601
v -0.00215338 -0.06703380 0.03392881
v -0.00215338 -0.06734725 0.03369439
v 0.00157187 -0.07048262 0.03065227
v 0.00124553 -0.06746513 0.03314801
v -0.00089701 -0.06766963 0.03332162
v -0.00089701 -0.06728385 0.03363623
v -0.00215338 -0.06774196 0.03337978
v -0.00174673 -0.06874571 0.03254787
v -0.00152500 -0.07048262 0.03110348
v 0.00035819 -0.06856890 0.03240422
v 0.00098618 -0.06819472 0.03260956
v 0.00132192 -0.06822687 0.03252143
v 0.00132192 -0.06815543 0.03257871
v 0.00132192 -0.06642387 0.03395437
v 0.00126473 -0.07318756 0.02785426
v 0.00157187 -0.07300450 0.02794238
v -0.00126761 -0.07293038 0.02852843
v -0.00089701 -0.07318756 0.02821470
v -0.00215338 -0.07048262 0.03114402
v -0.00243036 -0.07046208 0.03114402
v -0.00126761 -0.07261604 0.02890737
v -0.00126761 -0.07235170 0.02922110
v -0.00126761 -0.07203736 0.02958771
v -0.00126761 -0.07176053 0.02990144
v -0.00126761 -0.07144619 0.03022926
v -0.00243036 -0.06752139 0.03354634
v 0.00157187 -0.07055407 0.03059411
v 0.00132192 -0.06738744 0.03318943
v 0.00098618 -0.06959765 0.03147361
v -0.00104000 -0.06939047 0.03193363
v -0.00089701 -0.07048262 0.03102064
v -0.00026980 -0.07048262 0.03093163
v 0.00074995 -0.07063086 0.03066461
v 0.00035819 -0.06895468 0.03209049
v -0.00243036 -0.06774107 0.03337097
v -0.00243036 -0.06875553 0.03255580
v -0.00243036 -0.06906988 0.03230023
v -0.00215338 -0.06976732 0.03172918
v -0.00215338 -0.07015221 0.03141456
v -0.00215338 -0.07046655 0.03115723
v -0.00126761 -0.07111845 0.03054299
v -0.00126761 -0.07080411 0.03080649
v -0.00126761 -0.07068534 0.03090431
v 0.00098618 -0.07318756 0.02796794
v 0.00157187 -0.07269373 0.02832397
v -0.00026862 -0.07318756 0.02819178
v -0.00089701 -0.07292770 0.02852755
v -0.00243036 -0.06976911 0.03172918
v -0.00243036 -0.07014864 0.03141545
v -0.00089701 -0.07261336 0.02890032
v -0.00089701 -0.07234009 0.02921405
v -0.00089701 -0.07173909 0.02988205
v -0.00089701 -0.07202575 0.02956743
v -0.00089701 -0.07142565 0.03020371
v 0.00157187 -0.07099879 0.03021781
v -0.00089701 -0.07077285 0.03078094
v -0.00026941 -0.07071927 0.03073687
v -0.00089701 -0.07108719 0.03051832
v 0.00035819 -0.07097825 0.03042491
v 0.00136188 -0.07125508 0.03003539
v -0.00026941 -0.07137832 0.03015788
v 0.00059717 -0.07318756 0.02807810
v 0.00117188 -0.07247494 0.02874698
v 0.00065593 -0.07312505 0.02813802
v 0.00157187 -0.07240975 0.02866414
v 0.00020227 -0.07318756 0.02814331
v 0.00023753 -0.07315809 0.02817328
v -0.00026941 -0.07290269 0.02851433
v -0.00026941 -0.07169266 0.02983093
v 0.00098618 -0.07128366 0.03006359
v 0.00157187 -0.07123633 0.03001600
v 0.00035819 -0.07164533 0.02977982
v 0.00084985 -0.07189984 0.02942643
v 0.00075309 -0.07251334 0.02878311
v 0.00025986 -0.07318756 0.02813626
v 0.00157187 -0.07212666 0.02899285
v 0.00157187 -0.07148012 0.02973752
f 1 2 9
f 1 9 18
f 1 18 30
f 1 30 42
f 1 42 31
f 1 31 19
f 1 19 10
f 1 10 3
f 1 3 4
f 1 4 5
f 1 5 6
f 1 6 7
f 1 7 8
f 1 8 2
f 2 8 9
f 3 10 4
f 4 10 19
f 4 19 34
f 4 34 53
f 4 53 76
f 4 76 105
f 4 105 104
f 4 104 93
f 4 93 92
f 4 92 91
f 4 91 82
f 4 82 56
f 4 56 55
f 4 55 54
f 4 54 35
f 4 35 20
f 4 20 11
f 4 11 5
f 5 11 6
f 6 11 12
f 6 12 7
f 7 12 13
f 7 13 8
f 8 13 14
f 8 14 15
f 8 15 9
f 9 15 16
f 9 16 17
f 9 17 18
f 11 20 12
f 12 21 14
f 12 14 13
f 12 20 21
f 14 22 23
f 14 23 24
f 14 24 15
f 14 21 25
f 14 25 22
f 15 24 16
f 16 24 26
f 16 26 17
f 17 27 18
f 17 26 22
f 17 22 28
f 17 28 29
f 17 29 27
f 18 27 30
f 19 31 32
f 19 32 33
f 19 33 34
f 20 35 36
f 20 36 21
f 21 36 25
f 22 26 23
f 22 25 37
f 22 37 28
f 23 26 24
f 25 36 38
f 25 38 39
f 25 39 37
f 27 40 41
f 27 41 42
f 27 42 30
f 27 29 43
f 27 43 40
f 28 44 29
f 28 37 39
f 28 39 45
f 28 45 46
f 28 46 47
f 28 47 48
f 28 48 44
f 29 44 49
f 29 49 43
f 31 42 59
f 31 59 50
f 31 50 32
f 32 50 59
f 32 59 83
f 32 83 111
f 32 111 127
f 32 127 133
f 32 133 132
f 32 132 121
f 32 121 101
f 32 101 72
f 32 72 51
f 32 51 71
f 32 71 100
f 32 100 118
f 32 118 131
f 32 131 122
f 32 122 102
f 32 102 74
f 32 74 52
f 32 52 33
f 33 52 53
f 33 53 34
f 35 54 36
f 36 54 38
f 38 55 56
f 38 56 57
f 38 57 39
f 38 54 55
f 39 57 58
f 39 58 45
f 40 43 59
f 40 59 41
f 41 59 42
f 43 49 59
f 44 48 60
f 44 60 49
f 45 61 62
f 45 62 46
f 45 58 63
f 45 63 64
f 45 64 65
f 45 65 61
f 46 62 66
f 46 66 67
f 46 67 47
f 47 67 48
f 48 67 68
f 48 68 69
f 48 69 60
f 49 60 70
f 49 70 59
f 51 72 71
f 52 73 53
f 52 74 73
f 53 75 76
f 53 73 77
f 53 77 78
f 53 78 79
f 53 79 80
f 53 80 81
f 53 81 75
f 56 82 57
f 57 82 58
f 58 82 63
f 59 70 84
f 59 84 69
f 59 69 68
f 59 68 67
f 59 67 85
f 59 85 83
f 60 84 70
f 60 69 84
f 61 86 87
f 61 87 88
f 61 88 89
f 61 89 90
f 61 90 62
f 61 65 86
f 62 90 66
f 63 82 91
f 63 91 92
f 63 92 93
f 63 93 94
f 63 94 64
f 64 94 95
f 64 95 96
f 64 96 75
f 64 75 65
f 65 75 97
f 65 97 98
f 65 98 99
f 65 99 86
f 66 90 85
f 66 85 67
f 71 72 101
f 71 101 100
f 73 74 77
f 74 102 103
f 74 103 77
f 75 96 104
f 75 104 105
f 75 105 76
f 75 81 97
f 77 103 78
f 78 106 79
f 78 103 106
f 79 106 107
f 79 107 80
f 80 108 81
f 80 107 109
f 80 109 108
f 81 108 110
f 81 110 97
f 83 89 111
f 83 85 89
f 85 90 89
f 86 99 87
f 87 99 98
f 87 98 112
f 87 112 113
f 87 113 88
f 88 113 89
f 89 113 114
f 89 114 115
f 89 115 116
f 89 116 111
f 93 104 94
f 94 104 95
f 95 104 96
f 97 114 98
f 97 110 117
f 97 117 114
f 98 114 112
f 100 101 119
f 100 119 120
f 100 120 118
f 101 121 119
f 102 122 123
f 102 123 124
f 102 124 107
f 102 107 106
f 102 106 103
f 107 124 123
f 107 123 109
f 108 125 116
f 108 116 126
f 108 126 117
f 108 117 110
f 108 109 123
f 108 123 125
f 111 116 127
f 112 114 113
f 114 117 126
f 114 126 116
f 114 116 115
f 116 125 128
f 116 128 129
f 116 129 130
f 116 130 120
f 116 120 119
f 116 119 127
f 118 120 123
f 118 123 131
f 119 121 132
f 119 132 133
f 119 133 127
f 120 130 123
f 122 131 123
f 123 130 125
f 125 130 128
f 128 130 129

