# https://github.com/mikedh/trimesh
v -0.00466164 -0.04967697 0.03202426
v -0.00593617 -0.04325558 0.02992427
v -0.00588672 -0.04325558 0.02989935
v -0.00533738 -0.04325558 0.02969497
v -0.00466164 -0.04325558 0.02944431
v -0.00466164 -0.04967697 0.03217309
v -0.00466585 -0.04967697 0.03202639
v -0.00618434 -0.04325558 0.03005957
v -0.00466164 -0.04325558 0.03008805
v -0.00466164 -0.04967571 0.03285243
v -0.00466607 -0.04967697 0.03285528
v -0.00553254 -0.04967697 0.03259109
v -0.00635111 -0.04325558 0.03030524
v -0.00585744 -0.04967697 0.03283748
v -0.00593063 -0.04967697 0.03289444
v -0.00624732 -0.04967697 0.03314582
v -0.00466164 -0.04325809 0.03024258
v -0.00534537 -0.04325558 0.03563603
v -0.00466164 -0.04957766 0.03284246
v -0.00534537 -0.04961411 0.03671416
v -0.00534537 -0.04967697 0.03671914
v -0.00637240 -0.04325558 0.03035296
v -0.00636952 -0.04967697 0.03463624
v -0.00692240 -0.04325558 0.03227492
v -0.00691508 -0.04325558 0.03224216
v -0.00683879 -0.04325558 0.03196444
v -0.00656135 -0.04325558 0.03096607
v -0.00466164 -0.04500172 0.03119252
v -0.00583194 -0.04325558 0.03525364
v -0.00623889 -0.04548697 0.03568019
v -0.00592176 -0.04581068 0.03588171
v -0.00534537 -0.04636570 0.03623491
v -0.00466164 -0.04895852 0.03274704
v -0.00466164 -0.04832179 0.03259323
v -0.00466164 -0.04768946 0.03234755
v -0.00466164 -0.04531852 0.03136200
v -0.00534537 -0.04763477 0.03644569
v -0.00534537 -0.04772905 0.03645851
v -0.00535269 -0.04764168 0.03644356
v -0.00566162 -0.04781580 0.03633461
v -0.00571617 -0.04832179 0.03637306
v -0.00576252 -0.04894972 0.03642006
v -0.00579135 -0.04957766 0.03646421
v -0.00579357 -0.04967697 0.03647062
v -0.00637684 -0.04967697 0.03473523
v -0.00692728 -0.04325558 0.03282537
v -0.00585833 -0.04325558 0.03523227
v -0.00626795 -0.04581068 0.03571152
v -0.00560152 -0.04739717 0.03630043
v -0.00615107 -0.04325558 0.03497307
v -0.00617214 -0.04325558 0.03495313
v -0.00621960 -0.04366414 0.03501722
v -0.00626285 -0.04408277 0.03508843
v -0.00631585 -0.04325558 0.03463909
v -0.00677869 -0.04325558 0.03337511
v -0.00534537 -0.04643862 0.03624844
v -0.00534537 -0.04717152 0.03637306
v -0.00534537 -0.04760711 0.03644142
v -0.00629744 -0.04643862 0.03575068
v -0.00610516 -0.04957766 0.03609392
v -0.00610738 -0.04967697 0.03609320
v -0.00637107 -0.04967697 0.03536330
v -0.00638527 -0.04957766 0.03473523
v -0.00690577 -0.04325558 0.03292863
v -0.00637506 -0.04957766 0.03536330
v -0.00638637 -0.04894972 0.03536330
v -0.00639746 -0.04832179 0.03536330
v -0.00640700 -0.04769323 0.03536330
v -0.00641321 -0.04706529 0.03536330
v -0.00641631 -0.04643862 0.03536330
v -0.00639081 -0.04581068 0.03536330
v -0.00630010 -0.04706529 0.03576920
v -0.00629944 -0.04769323 0.03578273
v -0.00629545 -0.04832179 0.03578629
v -0.00629012 -0.04894972 0.03578344
v -0.00628458 -0.04957766 0.03577988
v -0.00628347 -0.04967697 0.03577917
f 1 2 3
f 1 3 4
f 1 4 5
f 1 5 9
f 1 9 17
f 1 17 28
f 1 28 36
f 1 36 35
f 1 35 34
f 1 34 33
f 1 33 19
f 1 19 10
f 1 10 6
f 1 6 11
f 1 11 21
f 1 21 44
f 1 44 61
f 1 61 77
f 1 77 62
f 1 62 45
f 1 45 23
f 1 23 16
f 1 16 15
f 1 15 14
f 1 14 12
f 1 12 7
f 1 7 2
f 2 8 13
f 2 13 22
f 2 22 27
f 2 27 26
f 2 26 25
f 2 25 24
f 2 24 46
f 2 46 64
f 2 64 55
f 2 55 54
f 2 54 51
f 2 51 50
f 2 50 47
f 2 47 29
f 2 29 18
f 2 18 9
f 2 9 5
f 2 5 4
f 2 4 3
f 2 7 8
f 6 10 11
f 7 12 8
f 8 12 14
f 8 14 15
f 8 15 16
f 8 16 13
f 9 18 17
f 10 19 20
f 10 20 21
f 10 21 11
f 13 16 22
f 16 23 24
f 16 24 25
f 16 25 26
f 16 26 27
f 16 27 22
f 17 18 28
f 18 29 30
f 18 30 31
f 18 31 32
f 18 32 33
f 18 33 34
f 18 34 35
f 18 35 36
f 18 36 28
f 19 33 37
f 19 37 38
f 19 38 20
f 20 38 39
f 20 39 40
f 20 40 41
f 20 41 42
f 20 42 43
f 20 43 21
f 21 43 44
f 23 45 24
f 24 45 46
f 29 47 30
f 30 48 40
f 30 40 49
f 30 49 31
f 30 47 50
f 30 50 51
f 30 51 52
f 30 52 53
f 30 53 54
f 30 54 55
f 30 55 48
f 31 49 56
f 31 56 32
f 32 56 33
f 33 56 57
f 33 57 58
f 33 58 37
f 37 58 49
f 37 49 39
f 37 39 38
f 39 49 40
f 40 48 41
f 41 48 42
f 42 48 43
f 43 48 59
f 43 59 44
f 44 59 60
f 44 60 61
f 45 62 63
f 45 63 46
f 46 63 62
f 46 62 65
f 46 65 66
f 46 66 67
f 46 67 68
f 46 68 69
f 46 69 70
f 46 70 64
f 48 71 59
f 48 55 71
f 49 58 57
f 49 57 56
f 51 54 52
f 52 54 53
f 55 64 71
f 59 72 60
f 59 71 70
f 59 70 72
f 60 72 61
f 61 72 73
f 61 73 74
f 61 74 75
f 61 75 76
f 61 76 77
f 62 77 65
f 64 70 71
f 65 77 66
f 66 77 67
f 67 77 68
f 68 77 76
f 68 76 75
f 68 75 69
f 69 75 74
f 69 74 70
f 70 74 73
f 70 73 72

