# https://github.com/mikedh/trimesh
v -0.00120489 -0.05719964 0.03124522
v -0.00109621 -0.05719964 0.03124762
v -0.00120489 -0.05719964 0.03194879
v -0.00120489 -0.04967760 0.03114985
v -0.00090152 -0.04967760 0.03112934
v -0.00092831 -0.05719964 0.03125161
v 0.00337703 -0.05719964 0.03385063
v -0.00120489 -0.05715766 0.03195412
v -0.00120489 -0.04967760 0.03180200
v -0.00082015 -0.04967760 0.03113306
v -0.00039368 -0.05719964 0.03127053
v -0.00120489 -0.05365400 0.03224929
v -0.00120489 -0.05397433 0.03223597
v -0.00120489 -0.05428139 0.03222238
v -0.00120489 -0.05460245 0.03220507
v -0.00120489 -0.05523058 0.03216431
v -0.00120489 -0.05585870 0.03210863
v -0.00120489 -0.05648609 0.03203883
v -0.00120489 -0.05681230 0.03199781
v 0.00403012 -0.05719964 0.03385063
v 0.00337548 -0.05711422 0.03385063
v -0.00120489 -0.05271881 0.03226341
v -0.00120489 -0.05302662 0.03226101
v 0.00337085 -0.04967760 0.03385063
v -0.00120489 -0.05007818 0.03192614
v -0.00026234 -0.04967760 0.03121751
v -0.00004344 -0.05719964 0.03130729
v -0.00026904 -0.05719964 0.03127932
v 0.00397243 -0.05719964 0.03356505
v 0.00399458 -0.04967760 0.03347954
v 0.00401312 -0.04967760 0.03357890
v 0.00405638 -0.04995005 0.03385063
v 0.00336827 -0.05648609 0.03385063
v -0.00120489 -0.05209069 0.03224556
v 0.00336415 -0.05585870 0.03385063
v 0.00336415 -0.05523058 0.03385063
v 0.00336467 -0.05334694 0.03385063
v 0.00336518 -0.05184768 0.03385063
v 0.00336570 -0.05058922 0.03385063
v 0.00336724 -0.04995447 0.03385063
v 0.00405690 -0.04967760 0.03385063
v -0.00120489 -0.05022914 0.03197197
v -0.00120489 -0.05055977 0.03203564
v -0.00120489 -0.05083517 0.03208385
v -0.00120489 -0.05146256 0.03218162
v 0.00161451 -0.04967760 0.03159660
v 0.00227893 -0.05719964 0.03182757
v 0.00395492 -0.05719964 0.03347954
v 0.00389672 -0.04967760 0.03313055
v 0.00169795 -0.04967760 0.03161845
v 0.00256942 -0.05719964 0.03190110
v 0.00244890 -0.05719964 0.03186993
v 0.00385448 -0.05719964 0.03317530
v 0.00387869 -0.04967760 0.03307141
v 0.00227481 -0.04967760 0.03177483
v 0.00268943 -0.05719964 0.03199381
v 0.00231241 -0.04967760 0.03179241
v 0.00236855 -0.04967760 0.03181932
v 0.00253543 -0.04983444 0.03192987
v 0.00273733 -0.04967760 0.03206707
v 0.00383800 -0.05719964 0.03312655
v 0.00361601 -0.04967760 0.03280714
v 0.00358099 -0.05719964 0.03281246
v 0.00326681 -0.05719964 0.03246214
v 0.00284137 -0.05719964 0.03211316
v 0.00328689 -0.04967760 0.03252848
f 1 2 6
f 1 6 11
f 1 11 28
f 1 28 27
f 1 27 47
f 1 47 52
f 1 52 51
f 1 51 56
f 1 56 65
f 1 65 64
f 1 64 63
f 1 63 61
f 1 61 53
f 1 53 48
f 1 48 29
f 1 29 20
f 1 20 7
f 1 7 3
f 1 3 8
f 1 8 19
f 1 19 18
f 1 18 17
f 1 17 16
f 1 16 15
f 1 15 14
f 1 14 13
f 1 13 12
f 1 12 23
f 1 23 22
f 1 22 34
f 1 34 45
f 1 45 44
f 1 44 43
f 1 43 42
f 1 42 25
f 1 25 9
f 1 9 4
f 1 4 5
f 1 5 2
f 2 5 6
f 3 7 8
f 4 9 24
f 4 24 41
f 4 41 31
f 4 31 30
f 4 30 49
f 4 49 54
f 4 54 62
f 4 62 66
f 4 66 60
f 4 60 58
f 4 58 57
f 4 57 55
f 4 55 50
f 4 50 46
f 4 46 26
f 4 26 10
f 4 10 5
f 5 10 11
f 5 11 6
f 7 12 13
f 7 13 14
f 7 14 15
f 7 15 16
f 7 16 17
f 7 17 18
f 7 18 19
f 7 19 8
f 7 20 32
f 7 32 41
f 7 41 24
f 7 24 40
f 7 40 39
f 7 39 38
f 7 38 37
f 7 37 36
f 7 36 35
f 7 35 33
f 7 33 21
f 7 21 22
f 7 22 23
f 7 23 12
f 9 25 24
f 10 26 27
f 10 27 28
f 10 28 11
f 20 29 30
f 20 30 31
f 20 31 32
f 21 33 22
f 22 33 35
f 22 35 36
f 22 36 37
f 22 37 38
f 22 38 39
f 22 39 40
f 22 40 24
f 22 24 34
f 24 25 42
f 24 42 43
f 24 43 44
f 24 44 45
f 24 45 34
f 26 46 27
f 27 46 47
f 29 48 30
f 30 48 49
f 31 41 32
f 46 50 51
f 46 51 52
f 46 52 47
f 48 53 54
f 48 54 49
f 50 55 51
f 51 55 57
f 51 57 58
f 51 58 59
f 51 59 60
f 51 60 56
f 53 61 54
f 54 61 63
f 54 63 64
f 54 64 62
f 56 60 65
f 58 60 59
f 60 66 64
f 60 64 65
f 62 64 66

