# https://github.com/mikedh/trimesh
v -0.01844771 0.04057997 0.04420337
v -0.02009731 0.03988810 0.04420337
v -0.01844771 0.03959589 0.04420337
v -0.01844771 0.04072751 0.04135556
v -0.02056502 0.03973340 0.04308258
v -0.02169563 0.03915828 0.04420337
v -0.01851697 0.04071891 0.04086918
v -0.02501010 0.03561945 0.04420337
v -0.02763649 0.03358898 0.04252570
v -0.02763649 0.03371933 0.00820039
v -0.01844771 0.03986518 0.00820039
v -0.01844771 0.04078194 0.04009731
v -0.02058301 0.03974271 0.04263144
v -0.01844771 0.04081847 0.03925142
v -0.01893162 0.04060647 0.03925142
v -0.02182155 0.03909812 0.04420337
v -0.02501280 0.03614157 0.04420337
v -0.02763649 0.03477790 0.04252570
v -0.02763649 0.03492687 0.00820039
v -0.01844771 0.04089940 0.00820039
v -0.02060459 0.03975417 0.04178908
v -0.01895950 0.04062222 0.03840554
v -0.01844771 0.04085285 0.03840554
v -0.02182155 0.03910528 0.04348085
v -0.02224429 0.03887251 0.04420337
v -0.02501280 0.03679906 0.04420337
v -0.02703566 0.03526779 0.04252570
v -0.02763649 0.03482159 0.04178555
v -0.02763649 0.03492687 0.00881013
v -0.02727042 0.03522697 0.00820039
v -0.01859702 0.04082635 0.00820039
v -0.01844771 0.04090012 0.00881013
v -0.01897029 0.04063082 0.03755965
v -0.02060729 0.03975632 0.04094319
v -0.01844771 0.04087720 0.03755965
v -0.02182245 0.03910743 0.04263144
v -0.02267513 0.03858316 0.04263144
v -0.02267513 0.03857814 0.04420337
v -0.02225419 0.03888683 0.03501847
v -0.02259148 0.03865979 0.03583616
v -0.02267513 0.03859318 0.03925142
v -0.02481852 0.03695735 0.04420337
v -0.02666779 0.03556717 0.04252570
v -0.02763649 0.03482660 0.04168687
v -0.02763649 0.03492544 0.01303956
v -0.02712741 0.03534371 0.00820039
v -0.01898558 0.04063655 0.00881013
v -0.01898469 0.04063583 0.00820039
v -0.01844771 0.04090513 0.01980312
v -0.01844771 0.04089081 0.03671377
v -0.01844771 0.04089940 0.03586436
v -0.01844771 0.04090227 0.03501847
v -0.01897299 0.04063225 0.03586436
v -0.02013958 0.04000771 0.03925142
v -0.02103093 0.03953143 0.04094319
v -0.02182335 0.03910814 0.04178908
v -0.02327236 0.03817348 0.04178908
v -0.02326607 0.03816990 0.04420337
v -0.02267693 0.03860464 0.03417611
v -0.02183055 0.03911244 0.03501847
v -0.02183055 0.03913679 0.01303956
v -0.02183055 0.03914181 0.00820039
v -0.02226318 0.03889328 0.02403606
v -0.02267603 0.03860393 0.03501847
v -0.02267513 0.03860035 0.03671377
v -0.02328765 0.03818208 0.03501847
v -0.02466291 0.03708340 0.04420337
v -0.02705275 0.03528785 0.04178555
v -0.02430223 0.03737490 0.04420337
v -0.02424017 0.03742504 0.04420337
v -0.02763649 0.03485382 0.04094319
v -0.02763649 0.03492472 0.01388544
v -0.02670466 0.03567890 0.00820039
v -0.02712201 0.03534299 0.01303956
v -0.01940923 0.04041882 0.01050190
v -0.01941013 0.04041882 0.01134779
v -0.01898738 0.04063798 0.01388544
v -0.01940743 0.04041810 0.00820039
v -0.01898828 0.04063941 0.01895723
v -0.01844771 0.04090513 0.02318665
v -0.01844771 0.04090298 0.03333023
v -0.01898828 0.04063941 0.02065252
v -0.01898738 0.04063941 0.02149489
v -0.01898558 0.04063870 0.02318665
v -0.01898199 0.04063727 0.02656667
v -0.01939843 0.04040879 0.03333023
v -0.02064147 0.03977422 0.00881013
v -0.02371309 0.03786766 0.03333023
v -0.02429054 0.03745870 0.02487842
v -0.02428424 0.03745512 0.02741256
v -0.02603727 0.03619100 0.00820039
v -0.02368971 0.03784832 0.04420337
v -0.02329035 0.03818279 0.03333023
v -0.02328855 0.03818279 0.03417611
v -0.02226498 0.03889400 0.02234077
v -0.02227667 0.03890187 0.00820039
v -0.02105972 0.03954719 0.01303956
v -0.02106511 0.03954933 0.00820039
v -0.02372119 0.03788055 0.02572431
v -0.02372119 0.03787912 0.02656667
v -0.02429594 0.03746085 0.02234077
v -0.02663001 0.03561945 0.04178555
v -0.02570627 0.03632134 0.04252570
v -0.02763649 0.03485454 0.04088680
v -0.02763649 0.03491470 0.02149489
v -0.02615420 0.03610147 0.00820039
v -0.02712021 0.03534228 0.01388544
v -0.02670017 0.03567174 0.01219367
v -0.02763649 0.03491111 0.02319018
v -0.02763649 0.03490324 0.02656315
v -0.02763649 0.03488891 0.03248434
v -0.02013958 0.04003779 0.00820039
v -0.02027899 0.03996474 0.00820039
v -0.02064147 0.03977422 0.00820039
v -0.02573146 0.03642305 0.00820039
v -0.02567749 0.03638222 0.03163846
v -0.02669747 0.03566887 0.01388544
v -0.02763649 0.03488104 0.03502200
v -0.02565591 0.03636575 0.04094319
v -0.02607685 0.03604274 0.04178555
v -0.02329845 0.03818279 0.02572431
v -0.02372299 0.03788413 0.02149489
v -0.02372209 0.03788126 0.02487842
v -0.02269941 0.03860679 0.00820039
v -0.02330025 0.03818351 0.02234077
v -0.02329935 0.03818279 0.02487842
v -0.02432382 0.03746371 0.00965602
v -0.02430583 0.03746299 0.01811134
v -0.02763649 0.03486313 0.04009731
v -0.02761581 0.03487889 0.04009731
v -0.02763649 0.03488676 0.03333023
v -0.02432472 0.03746371 0.00881013
v -0.02432472 0.03746371 0.00820039
v -0.02372299 0.03788628 0.01811134
v -0.02330114 0.03818422 0.00820039
v -0.02330025 0.03818422 0.01557721
v -0.02389029 0.03776954 0.00820039
f 1 2 6
f 1 6 16
f 1 16 25
f 1 25 38
f 1 38 58
f 1 58 92
f 1 92 70
f 1 70 69
f 1 69 67
f 1 67 42
f 1 42 26
f 1 26 17
f 1 17 8
f 1 8 3
f 1 3 11
f 1 11 20
f 1 20 32
f 1 32 49
f 1 49 80
f 1 80 81
f 1 81 52
f 1 52 51
f 1 51 50
f 1 50 35
f 1 35 23
f 1 23 14
f 1 14 12
f 1 12 4
f 1 4 2
f 2 5 6
f 2 4 7
f 2 7 5
f 3 8 9
f 3 9 10
f 3 10 11
f 4 12 7
f 5 13 6
f 5 7 14
f 5 14 15
f 5 15 13
f 6 13 16
f 7 12 14
f 8 17 9
f 9 17 26
f 9 26 18
f 9 18 28
f 9 28 44
f 9 44 71
f 9 71 104
f 9 104 129
f 9 129 118
f 9 118 131
f 9 131 111
f 9 111 110
f 9 110 109
f 9 109 105
f 9 105 72
f 9 72 45
f 9 45 29
f 9 29 19
f 9 19 10
f 10 19 30
f 10 30 46
f 10 46 73
f 10 73 106
f 10 106 91
f 10 91 115
f 10 115 133
f 10 133 137
f 10 137 135
f 10 135 124
f 10 124 96
f 10 96 62
f 10 62 98
f 10 98 114
f 10 114 113
f 10 113 112
f 10 112 78
f 10 78 48
f 10 48 31
f 10 31 20
f 10 20 11
f 13 21 16
f 13 15 22
f 13 22 21
f 14 23 15
f 15 23 22
f 16 24 25
f 16 21 24
f 18 26 27
f 18 27 28
f 19 29 30
f 20 31 32
f 21 22 33
f 21 33 34
f 21 34 24
f 22 23 35
f 22 35 33
f 24 34 36
f 24 36 25
f 25 37 38
f 25 36 39
f 25 39 40
f 25 40 41
f 25 41 37
f 26 42 27
f 27 42 43
f 27 43 28
f 28 43 44
f 29 45 30
f 30 45 46
f 31 47 32
f 31 48 47
f 32 47 49
f 33 35 50
f 33 50 51
f 33 51 52
f 33 52 53
f 33 53 54
f 33 54 34
f 34 54 55
f 34 55 36
f 36 56 39
f 36 55 56
f 37 57 38
f 37 41 57
f 38 57 58
f 39 59 40
f 39 56 55
f 39 55 60
f 39 60 61
f 39 61 62
f 39 62 63
f 39 63 59
f 40 59 64
f 40 64 65
f 40 65 41
f 41 65 66
f 41 66 57
f 42 67 43
f 43 68 44
f 43 67 69
f 43 69 70
f 43 70 68
f 44 68 71
f 45 72 46
f 46 72 74
f 46 74 73
f 47 75 76
f 47 76 77
f 47 77 49
f 47 48 78
f 47 78 75
f 49 77 79
f 49 79 82
f 49 82 80
f 52 81 82
f 52 82 83
f 52 83 84
f 52 84 85
f 52 85 53
f 53 86 54
f 53 85 87
f 53 87 86
f 54 86 55
f 55 86 60
f 57 66 88
f 57 88 89
f 57 89 90
f 57 90 91
f 57 91 58
f 58 91 92
f 59 93 94
f 59 94 66
f 59 66 64
f 59 63 95
f 59 95 96
f 59 96 93
f 60 86 97
f 60 97 61
f 61 97 98
f 61 98 62
f 62 96 63
f 63 96 95
f 64 66 65
f 66 94 99
f 66 99 100
f 66 100 101
f 66 101 89
f 66 89 88
f 68 70 102
f 68 102 71
f 70 92 103
f 70 103 102
f 71 102 104
f 72 105 74
f 73 74 107
f 73 107 108
f 73 108 106
f 74 105 109
f 74 109 110
f 74 110 111
f 74 111 107
f 75 78 112
f 75 112 76
f 76 112 79
f 76 79 77
f 79 112 82
f 80 82 81
f 82 112 113
f 82 113 87
f 82 87 83
f 83 87 84
f 84 87 85
f 86 87 97
f 87 113 114
f 87 114 98
f 87 98 97
f 89 101 115
f 89 115 90
f 90 115 91
f 91 116 92
f 91 106 117
f 91 117 118
f 91 118 116
f 92 119 120
f 92 120 103
f 92 116 119
f 93 96 121
f 93 121 122
f 93 122 123
f 93 123 94
f 94 123 99
f 96 124 125
f 96 125 126
f 96 126 121
f 99 123 127
f 99 127 128
f 99 128 100
f 100 128 101
f 101 128 115
f 102 103 129
f 102 129 104
f 103 120 130
f 103 130 129
f 106 108 117
f 107 111 131
f 107 131 108
f 108 131 117
f 115 127 132
f 115 132 133
f 115 128 127
f 116 118 130
f 116 130 119
f 117 131 118
f 118 129 130
f 119 130 120
f 121 126 122
f 122 126 134
f 122 134 132
f 122 132 127
f 122 127 123
f 124 135 136
f 124 136 125
f 125 136 132
f 125 132 134
f 125 134 126
f 132 136 135
f 132 135 137
f 132 137 133

