# https://github.com/mikedh/trimesh
v 0.02535780 0.03507387 -0.03457961
v 0.02557936 0.03507387 -0.03221080
v 0.02696463 0.03507387 -0.03457961
v 0.03537230 0.02365778 -0.03457961
v 0.03537230 0.02381871 -0.03221080
v 0.02697933 0.03507387 -0.03221080
v 0.02696757 0.03507387 -0.03432362
v 0.02707345 0.03496211 -0.03457961
v 0.03537230 0.02561690 -0.03457961
v 0.03537230 0.02562696 -0.03221080
v 0.02697835 0.03507387 -0.03263234
v 0.02708423 0.03496770 -0.03221080
v 0.02697345 0.03507387 -0.03347798
v 0.02707835 0.03496547 -0.03347798
v 0.02707443 0.03496323 -0.03432362
v 0.02750775 0.03450502 -0.03221080
v 0.02787736 0.03407029 -0.03432362
v 0.02841362 0.03347014 -0.03457961
v 0.03509779 0.02599912 -0.03457961
v 0.03510662 0.02600582 -0.03263234
v 0.03510858 0.02600694 -0.03221080
v 0.03537230 0.02561914 -0.03424038
v 0.03537230 0.02562696 -0.03254539
v 0.03525661 0.02579460 -0.03221080
v 0.02729501 0.03473748 -0.03221080
v 0.03029495 0.03140038 -0.03221080
v 0.03028907 0.03139368 -0.03347798
v 0.02990378 0.03181053 -0.03457961
v 0.03467427 0.02649644 -0.03457961
v 0.03468015 0.02650203 -0.03347798
v 0.03468408 0.02650650 -0.03263234
v 0.03468506 0.02650873 -0.03221080
v 0.03387233 0.02739050 -0.03457961
f 1 2 6
f 1 6 11
f 1 11 13
f 1 13 7
f 1 7 3
f 1 3 8
f 1 8 18
f 1 18 28
f 1 28 33
f 1 33 29
f 1 29 19
f 1 19 9
f 1 9 4
f 1 4 5
f 1 5 2
f 2 5 10
f 2 10 24
f 2 24 21
f 2 21 32
f 2 32 26
f 2 26 16
f 2 16 25
f 2 25 12
f 2 12 6
f 3 7 8
f 4 9 22
f 4 22 23
f 4 23 10
f 4 10 5
f 6 12 11
f 7 13 14
f 7 14 15
f 7 15 8
f 8 15 16
f 8 16 17
f 8 17 18
f 9 19 20
f 9 20 21
f 9 21 22
f 10 23 24
f 11 12 13
f 12 25 14
f 12 14 13
f 14 25 16
f 14 16 15
f 16 26 27
f 16 27 17
f 17 27 28
f 17 28 18
f 19 29 30
f 19 30 31
f 19 31 20
f 20 31 21
f 21 24 22
f 21 31 32
f 22 24 23
f 26 32 31
f 26 31 33
f 26 33 27
f 27 33 28
f 29 33 30
f 30 33 31

