# https://github.com/mikedh/trimesh
v -0.01640039 -0.02692080 -0.02775350
v -0.01813109 -0.02692080 -0.02775350
v -0.01663798 -0.02668985 -0.02775350
v -0.01821345 -0.02692080 -0.01118673
v -0.02718795 -0.01897415 -0.02775350
v -0.01831376 -0.02692080 -0.02746319
v -0.02246997 -0.02157690 -0.02775350
v -0.02718795 -0.01932424 -0.01118673
v -0.01985862 -0.02692080 -0.01118673
v -0.02268222 -0.02139178 -0.02775350
v -0.02356182 -0.02063753 -0.02775350
v -0.02689439 -0.01777999 -0.02775350
v -0.02718795 -0.01755913 -0.02775350
v -0.02718795 -0.01900806 -0.02769187
v -0.01872453 -0.02692080 -0.02671067
v -0.01974669 -0.02626003 -0.02633766
v -0.02718795 -0.01938656 -0.02697990
v -0.02718795 -0.02091338 -0.01118673
v -0.02051647 -0.02649557 -0.01118673
v -0.02071288 -0.02633518 -0.01233659
v -0.01947636 -0.02692080 -0.01828052
v -0.01897162 -0.02692080 -0.02586571
v -0.01983327 -0.02631502 -0.02586571
v -0.02718795 -0.01986312 -0.02607493
v -0.02718795 -0.01964775 -0.02648524
v -0.02136228 -0.02534265 -0.02518780
v -0.02239711 -0.02464156 -0.02484722
v -0.02490077 -0.02294335 -0.02392927
v -0.02650792 -0.02118374 -0.02464287
v -0.02674551 -0.02152650 -0.01118673
v -0.02718795 -0.02091155 -0.01149001
v -0.02072872 -0.02635260 -0.01118673
v -0.02072661 -0.02634893 -0.01149001
v -0.02069070 -0.02631869 -0.01318155
v -0.02311410 -0.02455266 -0.01740961
v -0.01942462 -0.02692080 -0.01915305
v -0.02066642 -0.02630219 -0.01402651
v -0.01907405 -0.02692080 -0.02477424
v -0.01991669 -0.02636543 -0.02502075
v -0.02033907 -0.02608316 -0.02502075
v -0.02104233 -0.02560843 -0.02495263
v -0.02718795 -0.02019579 -0.02536295
v -0.02397470 -0.02371593 -0.02381575
v -0.02544035 -0.02268491 -0.02332920
v -0.02591764 -0.02226242 -0.02332920
v -0.02578776 -0.02213595 -0.02398928
v -0.02659450 -0.02129647 -0.02417417
v -0.02718795 -0.02029110 -0.02515374
v -0.02663041 -0.02167772 -0.01118673
v -0.02674023 -0.02151917 -0.01318155
v -0.02639493 -0.02190683 -0.02248262
v -0.02718795 -0.02087947 -0.01580726
v -0.02115215 -0.02604741 -0.01118673
v -0.02115004 -0.02604650 -0.01149001
v -0.02312994 -0.02456458 -0.01656464
v -0.02509189 -0.02304966 -0.02248262
v -0.02411725 -0.02381674 -0.01910115
v -0.02510773 -0.02306616 -0.02163766
v -0.02009304 -0.02648182 -0.01910115
v -0.01917647 -0.02692080 -0.02332920
v -0.02165478 -0.02555069 -0.01656464
v -0.01911206 -0.02692080 -0.02432013
v -0.01912368 -0.02692080 -0.02415633
v -0.01916169 -0.02692080 -0.02357085
v -0.02142881 -0.02540131 -0.02417417
v -0.02400321 -0.02373518 -0.02332920
v -0.02141297 -0.02539123 -0.02462503
v -0.02501797 -0.02301575 -0.02332920
v -0.02248687 -0.02469929 -0.02417417
v -0.02551427 -0.02275456 -0.02248262
v -0.02597255 -0.02233207 -0.02248262
v -0.02634002 -0.02186284 -0.02332920
v -0.02718795 -0.02054130 -0.02441582
v -0.02642344 -0.02194899 -0.01118673
v -0.02639915 -0.02191325 -0.02079108
v -0.02718795 -0.02085473 -0.01910115
v -0.02714043 -0.02090147 -0.02163766
v -0.02671488 -0.02148434 -0.02248262
v -0.02597466 -0.02234032 -0.02163766
v -0.02669060 -0.02143943 -0.02332920
v -0.02152490 -0.02577614 -0.01118673
v -0.02172659 -0.02562126 -0.01233659
v -0.02313522 -0.02456916 -0.01571806
v -0.02412570 -0.02382774 -0.01825619
v -0.02511512 -0.02308082 -0.02079108
v -0.02452379 -0.02351339 -0.01994611
v -0.02553116 -0.02276281 -0.02163766
v -0.02718795 -0.02072276 -0.02357410
v -0.02555756 -0.02277564 -0.01571806
v -0.02555756 -0.02277564 -0.01487310
v -0.02615206 -0.02220468 -0.01118673
v -0.02718795 -0.02083457 -0.02176902
v -0.02718795 -0.02082907 -0.02248262
v -0.02718795 -0.02081807 -0.02263183
v -0.02718795 -0.02076400 -0.02332920
v -0.02711297 -0.02086665 -0.02332920
v -0.02553750 -0.02276464 -0.02079108
v -0.02554172 -0.02276647 -0.01994611
v -0.02554806 -0.02277014 -0.01825619
v -0.02555440 -0.02277381 -0.01656464
v -0.02394619 -0.02400003 -0.01118673
v -0.02512885 -0.02309915 -0.01740961
v -0.02454913 -0.02351981 -0.01825619
v -0.02511935 -0.02308999 -0.01994611
v -0.02512251 -0.02309457 -0.01910115
v -0.02513413 -0.02310373 -0.01571806
v -0.02513518 -0.02310557 -0.01487310
v -0.02513413 -0.02310832 -0.01402651
v -0.02512990 -0.02311565 -0.01118673
v -0.02555334 -0.02276739 -0.01149001
v -0.02555229 -0.02276647 -0.01118673
v -0.02430310 -0.02373793 -0.01118673
v -0.02457342 -0.02353814 -0.01149001
v -0.02457448 -0.02353814 -0.01118673
v -0.02493244 -0.02326686 -0.01118673
f 1 2 5
f 1 5 13
f 1 13 12
f 1 12 11
f 1 11 10
f 1 10 7
f 1 7 3
f 1 3 4
f 1 4 9
f 1 9 21
f 1 21 36
f 1 36 60
f 1 60 64
f 1 64 63
f 1 63 62
f 1 62 38
f 1 38 22
f 1 22 15
f 1 15 6
f 1 6 2
f 2 6 5
f 3 7 4
f 4 8 18
f 4 18 30
f 4 30 49
f 4 49 74
f 4 74 91
f 4 91 111
f 4 111 109
f 4 109 115
f 4 115 114
f 4 114 112
f 4 112 101
f 4 101 81
f 4 81 53
f 4 53 32
f 4 32 19
f 4 19 9
f 4 7 10
f 4 10 11
f 4 11 12
f 4 12 8
f 5 6 14
f 5 14 17
f 5 17 25
f 5 25 24
f 5 24 42
f 5 42 48
f 5 48 73
f 5 73 88
f 5 88 95
f 5 95 94
f 5 94 93
f 5 93 92
f 5 92 76
f 5 76 52
f 5 52 31
f 5 31 18
f 5 18 8
f 5 8 13
f 6 15 16
f 6 16 17
f 6 17 14
f 8 12 13
f 9 19 20
f 9 20 21
f 15 22 23
f 15 23 16
f 16 24 25
f 16 25 17
f 16 23 26
f 16 26 27
f 16 27 28
f 16 28 29
f 16 29 24
f 18 31 30
f 19 32 33
f 19 33 20
f 20 34 21
f 20 33 35
f 20 35 34
f 21 34 37
f 21 37 36
f 22 38 39
f 22 39 40
f 22 40 41
f 22 41 23
f 23 41 26
f 24 29 42
f 26 41 43
f 26 43 27
f 27 43 28
f 28 43 44
f 28 44 45
f 28 45 46
f 28 46 29
f 29 46 47
f 29 47 48
f 29 48 42
f 30 31 50
f 30 50 51
f 30 51 49
f 31 52 50
f 32 53 54
f 32 54 55
f 32 55 33
f 33 55 35
f 34 35 56
f 34 56 37
f 35 55 57
f 35 57 58
f 35 58 56
f 36 37 59
f 36 59 60
f 37 56 61
f 37 61 59
f 38 62 39
f 39 62 63
f 39 63 64
f 39 64 60
f 39 60 65
f 39 65 66
f 39 66 67
f 39 67 40
f 40 67 41
f 41 67 43
f 43 68 44
f 43 67 69
f 43 69 66
f 43 66 56
f 43 56 70
f 43 70 68
f 44 68 70
f 44 70 45
f 45 70 71
f 45 71 72
f 45 72 46
f 46 72 47
f 47 72 73
f 47 73 48
f 49 51 75
f 49 75 74
f 50 52 76
f 50 76 77
f 50 77 78
f 50 78 51
f 51 71 79
f 51 79 75
f 51 78 80
f 51 80 72
f 51 72 71
f 53 81 82
f 53 82 54
f 54 82 55
f 55 83 84
f 55 84 85
f 55 85 86
f 55 86 57
f 55 82 83
f 56 58 70
f 56 66 61
f 57 86 58
f 58 85 87
f 58 87 70
f 58 86 85
f 59 61 65
f 59 65 60
f 61 66 65
f 66 69 67
f 70 87 71
f 71 87 79
f 72 80 73
f 73 80 88
f 74 89 90
f 74 90 91
f 74 75 79
f 74 79 89
f 76 92 77
f 77 92 93
f 77 93 78
f 78 93 94
f 78 94 95
f 78 95 96
f 78 96 80
f 79 87 97
f 79 97 98
f 79 98 99
f 79 99 100
f 79 100 89
f 80 96 88
f 81 101 102
f 81 102 103
f 81 103 82
f 82 103 83
f 83 103 84
f 84 103 104
f 84 104 85
f 85 104 87
f 87 104 105
f 87 105 97
f 88 96 95
f 89 100 106
f 89 106 107
f 89 107 108
f 89 108 109
f 89 109 90
f 90 109 110
f 90 110 91
f 91 110 111
f 97 105 98
f 98 105 102
f 98 102 106
f 98 106 99
f 99 106 100
f 101 112 113
f 101 113 102
f 102 105 103
f 102 113 106
f 103 105 104
f 106 113 107
f 107 113 114
f 107 114 108
f 108 114 115
f 108 115 109
f 109 111 110
f 112 114 113

