# https://github.com/mikedh/trimesh
v -0.03470269 0.02685761 0.00820025
v -0.03459952 0.02700294 0.00820025
v -0.03358518 0.02685761 0.00820025
v -0.03470479 0.02685761 0.00880949
v -0.03433809 0.02739075 0.01219413
v -0.03433530 0.02738601 0.01050181
v -0.03433182 0.02738127 0.00880949
v -0.03433042 0.02737969 0.00820025
v -0.02763649 0.03371808 0.00820025
v -0.02763649 0.03357038 0.04277440
v -0.03363816 0.02685761 0.04277440
v -0.03470758 0.02685761 0.00965565
v -0.03334606 0.02887879 0.03164230
v -0.03304560 0.02930372 0.03248508
v -0.03299958 0.02923974 0.00880949
v -0.03288107 0.02940166 0.00820025
v -0.03333073 0.02885588 0.02318746
v -0.03301771 0.02926502 0.01811388
v -0.02763649 0.03492573 0.00820025
v -0.02763649 0.03476145 0.04277440
v -0.03475847 0.02685761 0.04277440
v -0.03471315 0.02685761 0.01143936
v -0.03334746 0.02888037 0.03248508
v -0.03305536 0.02931241 0.03756205
v -0.03305048 0.02930846 0.03502356
v -0.03259803 0.02985660 0.01980282
v -0.03259315 0.02985186 0.01726772
v -0.03258827 0.02984554 0.01472923
v -0.03257642 0.02982896 0.00880949
v -0.03257503 0.02982738 0.00820025
v -0.03258339 0.02983844 0.01219413
v -0.02764347 0.03492020 0.00820025
v -0.02763649 0.03492573 0.01049166
v -0.02763649 0.03478040 0.04247317
v -0.02805199 0.03442103 0.04277440
v -0.03469363 0.02695239 0.04277440
v -0.03473267 0.02685761 0.02326192
v -0.03472012 0.02685761 0.01481723
v -0.03334885 0.02888432 0.03417740
v -0.03334815 0.02888274 0.03333124
v -0.03305675 0.02931399 0.03840821
v -0.03260291 0.02985976 0.02234130
v -0.03227805 0.03027679 0.01811388
v -0.03227596 0.03027284 0.01642155
v -0.03226341 0.03025073 0.00820025
v -0.02794951 0.03465719 0.00820025
v -0.02764347 0.03492020 0.01134797
v -0.02763649 0.03492494 0.01219413
v -0.02763649 0.03482069 0.04178947
v -0.02800528 0.03452055 0.04178947
v -0.02848700 0.03407114 0.04263563
v -0.02848143 0.03406640 0.04277440
v -0.03335513 0.02889538 0.04277440
v -0.03335443 0.02889459 0.04178947
v -0.03435134 0.02742313 0.02910382
v -0.03472919 0.02685761 0.02073021
v -0.03472152 0.02685761 0.01557539
v -0.03434646 0.02741602 0.02234130
v -0.03335094 0.02888827 0.03671588
v -0.03306302 0.02931873 0.04277440
v -0.03306093 0.02931636 0.04094330
v -0.03305814 0.02931478 0.03925098
v -0.03263428 0.02987556 0.03840821
v -0.03262940 0.02987319 0.03586972
v -0.03261128 0.02986450 0.02656534
v -0.03227874 0.03027837 0.01896004
v -0.03184024 0.03074516 0.00820025
v -0.03263568 0.02987635 0.03925098
v -0.03263707 0.02987714 0.04009714
v -0.02806663 0.03455609 0.00820025
v -0.02806454 0.03455530 0.01980282
v -0.02806384 0.03455530 0.02234130
v -0.02764277 0.03491941 0.01303691
v -0.02805966 0.03455609 0.02825766
v -0.02805687 0.03455609 0.03164230
v -0.02805617 0.03455609 0.03248508
v -0.02764277 0.03491783 0.01472923
v -0.02763649 0.03492258 0.01472923
v -0.02763649 0.03482542 0.04168793
v -0.02803038 0.03454030 0.04094330
v -0.02850652 0.03409799 0.04178947
v -0.02890947 0.03371492 0.04263563
v -0.02890459 0.03371176 0.04277440
v -0.03335234 0.02889222 0.03925098
v -0.03434855 0.02741839 0.02487978
v -0.03472431 0.02685761 0.01735233
v -0.03472291 0.02685761 0.01642155
v -0.03263986 0.02987871 0.04277440
v -0.03263986 0.02987871 0.04263563
v -0.03263916 0.02987871 0.04178947
v -0.03227944 0.03028074 0.02064898
v -0.03185419 0.03074753 0.01726772
v -0.03184512 0.03074595 0.01134797
v -0.03156069 0.03105003 0.00820025
v -0.02854765 0.03413353 0.00820025
v -0.02897291 0.03376310 0.00880949
v -0.02897361 0.03376468 0.00965565
v -0.02897430 0.03376468 0.01134797
v -0.02897361 0.03376468 0.01219413
v -0.02805478 0.03455609 0.03333124
v -0.02764137 0.03491231 0.01980282
v -0.02764207 0.03491626 0.01642155
v -0.02763649 0.03491941 0.01725756
v -0.02763649 0.03485228 0.04094330
v -0.02763649 0.03485386 0.04088577
v -0.02803944 0.03454740 0.04009714
v -0.02851349 0.03411774 0.04094330
v -0.02892969 0.03372519 0.04178947
v -0.02897988 0.03364226 0.04277440
v -0.03233939 0.03023256 0.04277440
v -0.03228153 0.03030127 0.04263563
v -0.03228293 0.03030127 0.04094330
v -0.03228362 0.03029890 0.03840821
v -0.03228362 0.03029812 0.03756205
v -0.03228223 0.03029338 0.03248508
v -0.03228083 0.03028706 0.02656534
v -0.03185628 0.03074832 0.02064898
v -0.03145333 0.03116772 0.00965565
v -0.03145263 0.03116693 0.00820025
v -0.02897012 0.03376073 0.00820025
v -0.03103086 0.03161318 0.00820025
v -0.03103086 0.03161397 0.00965565
v -0.03103226 0.03161555 0.01980282
v -0.03103296 0.03161634 0.02487978
v -0.03103296 0.03161634 0.02656534
v -0.03145751 0.03117325 0.03417740
v -0.03103505 0.03160844 0.03417740
v -0.03019012 0.03245435 0.04094330
v -0.02893875 0.03372993 0.04009714
v -0.02851907 0.03412879 0.03756205
v -0.02852256 0.03413274 0.03417740
v -0.02805338 0.03455530 0.03417740
v -0.02764068 0.03490915 0.02234130
v -0.02764137 0.03490994 0.02149514
v -0.02763649 0.03491389 0.02148837
v -0.02763649 0.03486176 0.04009714
v -0.02851559 0.03412485 0.04009714
v -0.02804362 0.03455056 0.03840821
v -0.02893666 0.03372835 0.04094330
v -0.02976904 0.03287059 0.04277440
v -0.02934658 0.03329157 0.04263563
v -0.02934588 0.03328841 0.04277440
v -0.03228083 0.03030127 0.04277440
v -0.03221252 0.03037236 0.04277440
v -0.03185837 0.03074042 0.04277440
v -0.03185976 0.03074358 0.04094330
v -0.03186046 0.03074595 0.03925098
v -0.03186046 0.03074832 0.03756205
v -0.03186046 0.03074911 0.03671588
v -0.03185976 0.03075148 0.03417740
v -0.03185976 0.03075148 0.03333124
v -0.03133552 0.03129093 0.00820025
v -0.03145751 0.03117325 0.03333124
v -0.03145682 0.03117246 0.03502356
v -0.03145194 0.03116930 0.03840821
v -0.03103086 0.03160370 0.03756205
v -0.03018942 0.03245277 0.04178947
v -0.02851698 0.03412643 0.03925098
v -0.02763649 0.03488624 0.03333124
v -0.02763649 0.03488861 0.03248508
v -0.02763719 0.03490046 0.02741150
v -0.02804711 0.03455293 0.03671588
v -0.02763649 0.03491231 0.02234130
v -0.02763649 0.03486808 0.03840821
v -0.02763649 0.03487124 0.03756205
v -0.02763649 0.03487439 0.03668881
v -0.02976974 0.03287138 0.04263563
v -0.03060910 0.03201758 0.04277440
v -0.03018663 0.03244882 0.04263563
v -0.03102320 0.03159502 0.04277440
v -0.03102389 0.03159502 0.04263563
v -0.03102598 0.03159897 0.04094330
v -0.03060979 0.03201837 0.04263563
v -0.02763649 0.03489256 0.03079614
v -0.02763649 0.03490836 0.02403362
v -0.03067672 0.03194886 0.04277440
f 1 2 8
f 1 8 16
f 1 16 30
f 1 30 45
f 1 45 67
f 1 67 94
f 1 94 119
f 1 119 152
f 1 152 121
f 1 121 120
f 1 120 95
f 1 95 70
f 1 70 46
f 1 46 32
f 1 32 19
f 1 19 9
f 1 9 3
f 1 3 11
f 1 11 21
f 1 21 37
f 1 37 56
f 1 56 86
f 1 86 87
f 1 87 57
f 1 57 38
f 1 38 22
f 1 22 12
f 1 12 4
f 1 4 5
f 1 5 2
f 2 6 7
f 2 7 8
f 2 5 6
f 3 9 10
f 3 10 11
f 4 12 5
f 5 12 13
f 5 13 14
f 5 14 6
f 6 15 16
f 6 16 7
f 6 14 17
f 6 17 18
f 6 18 15
f 7 16 8
f 9 19 33
f 9 33 48
f 9 48 78
f 9 78 103
f 9 103 135
f 9 135 163
f 9 163 175
f 9 175 174
f 9 174 160
f 9 160 159
f 9 159 166
f 9 166 165
f 9 165 164
f 9 164 136
f 9 136 105
f 9 105 104
f 9 104 79
f 9 79 49
f 9 49 34
f 9 34 20
f 9 20 10
f 10 20 35
f 10 35 52
f 10 52 83
f 10 83 109
f 10 109 142
f 10 142 140
f 10 140 168
f 10 168 176
f 10 176 170
f 10 170 145
f 10 145 144
f 10 144 143
f 10 143 110
f 10 110 88
f 10 88 60
f 10 60 53
f 10 53 36
f 10 36 21
f 10 21 11
f 12 22 13
f 13 23 24
f 13 24 25
f 13 25 14
f 13 22 23
f 14 25 26
f 14 26 27
f 14 27 28
f 14 28 18
f 14 18 17
f 15 18 28
f 15 28 16
f 16 29 30
f 16 28 31
f 16 31 29
f 19 32 47
f 19 47 33
f 20 34 35
f 21 36 37
f 22 38 39
f 22 39 40
f 22 40 23
f 23 40 41
f 23 41 24
f 24 41 26
f 24 26 25
f 26 42 43
f 26 43 44
f 26 44 27
f 26 41 42
f 27 44 45
f 27 45 28
f 28 45 31
f 29 45 30
f 29 31 45
f 32 46 47
f 33 47 48
f 34 49 50
f 34 50 35
f 35 51 52
f 35 50 51
f 36 53 54
f 36 54 55
f 36 55 37
f 37 55 56
f 38 57 58
f 38 58 59
f 38 59 39
f 39 59 60
f 39 60 61
f 39 61 40
f 40 61 62
f 40 62 41
f 41 62 68
f 41 68 63
f 41 63 64
f 41 64 65
f 41 65 42
f 42 65 43
f 43 66 67
f 43 67 44
f 43 65 64
f 43 64 63
f 43 63 68
f 43 68 69
f 43 69 66
f 44 67 45
f 46 70 71
f 46 71 72
f 46 72 47
f 47 73 48
f 47 72 74
f 47 74 75
f 47 75 76
f 47 76 73
f 48 73 77
f 48 77 78
f 49 79 80
f 49 80 50
f 50 80 81
f 50 81 51
f 51 82 83
f 51 83 52
f 51 81 82
f 53 60 54
f 54 60 84
f 54 84 58
f 54 58 85
f 54 85 55
f 55 85 56
f 56 85 86
f 57 87 58
f 58 87 86
f 58 86 85
f 58 84 60
f 58 60 59
f 60 88 89
f 60 89 90
f 60 90 69
f 60 69 61
f 61 69 68
f 61 68 62
f 66 91 92
f 66 92 93
f 66 93 67
f 66 69 90
f 66 90 91
f 67 93 94
f 70 95 96
f 70 96 97
f 70 97 98
f 70 98 71
f 71 98 72
f 72 98 74
f 73 76 77
f 74 98 99
f 74 99 75
f 75 99 76
f 76 100 101
f 76 101 102
f 76 102 77
f 76 99 100
f 77 102 78
f 78 102 103
f 79 104 80
f 80 104 105
f 80 105 106
f 80 106 107
f 80 107 81
f 81 107 108
f 81 108 82
f 82 109 83
f 82 108 109
f 88 110 111
f 88 111 112
f 88 112 89
f 89 112 113
f 89 113 114
f 89 114 90
f 90 114 115
f 90 115 116
f 90 116 91
f 91 116 92
f 92 117 118
f 92 118 119
f 92 119 94
f 92 94 93
f 92 116 115
f 92 115 114
f 92 114 113
f 92 113 117
f 95 120 96
f 96 120 121
f 96 121 97
f 97 121 122
f 97 122 98
f 98 122 123
f 98 123 124
f 98 124 125
f 98 125 126
f 98 126 99
f 99 126 127
f 99 127 128
f 99 128 129
f 99 129 130
f 99 130 131
f 99 131 100
f 100 131 130
f 100 130 132
f 100 132 133
f 100 133 134
f 100 134 101
f 101 134 135
f 101 135 102
f 102 135 103
f 105 136 106
f 106 137 107
f 106 136 138
f 106 138 137
f 107 137 139
f 107 139 108
f 108 139 140
f 108 140 141
f 108 141 142
f 108 142 109
f 110 143 111
f 111 143 144
f 111 144 145
f 111 145 146
f 111 146 147
f 111 147 148
f 111 148 149
f 111 149 112
f 112 149 150
f 112 150 151
f 112 151 117
f 112 117 113
f 117 122 121
f 117 121 118
f 117 151 122
f 118 121 152
f 118 152 119
f 122 151 123
f 123 151 124
f 124 151 153
f 124 153 126
f 124 126 125
f 126 153 151
f 126 151 150
f 126 150 149
f 126 149 148
f 126 148 147
f 126 147 154
f 126 154 127
f 127 154 146
f 127 146 155
f 127 155 156
f 127 156 128
f 128 156 157
f 128 157 129
f 129 157 139
f 129 139 137
f 129 137 158
f 129 158 130
f 130 158 132
f 132 159 160
f 132 160 161
f 132 161 133
f 132 158 162
f 132 162 159
f 133 163 135
f 133 135 134
f 133 161 163
f 136 164 138
f 137 138 158
f 138 162 158
f 138 164 165
f 138 165 166
f 138 166 159
f 138 159 162
f 139 157 167
f 139 167 140
f 140 142 141
f 140 167 169
f 140 169 168
f 145 170 171
f 145 171 157
f 145 157 172
f 145 172 156
f 145 156 155
f 145 155 146
f 146 154 147
f 156 172 157
f 157 171 170
f 157 170 173
f 157 173 169
f 157 169 167
f 160 174 161
f 161 174 175
f 161 175 163
f 168 169 176
f 169 173 176
f 170 176 173

