# https://github.com/mikedh/trimesh
v 0.03458864 0.02513386 -0.03221040
v 0.03459587 0.02513386 -0.02819858
v 0.03562665 0.02513386 -0.03221040
v 0.03974496 0.01160702 -0.03221040
v 0.03562966 0.02513386 -0.02819858
v 0.03986358 0.01160702 -0.02819858
v 0.03562725 0.02513386 -0.03178625
v 0.03628594 0.02400033 -0.03221040
v 0.04055598 0.01160702 -0.03221040
v 0.03562966 0.02513386 -0.02866516
v 0.03628714 0.02400298 -0.02819858
v 0.04073962 0.01160702 -0.02819858
v 0.03562785 0.02513386 -0.03120185
v 0.03628654 0.02400166 -0.03094068
v 0.03716018 0.02237817 -0.03221040
v 0.04056742 0.01160702 -0.03199086
v 0.04040847 0.01250484 -0.03221040
v 0.03628714 0.02400298 -0.02924955
v 0.03715416 0.02238082 -0.02819858
v 0.03715657 0.02237950 -0.02924955
v 0.03715777 0.02237950 -0.03009512
v 0.04073300 0.01160702 -0.02840399
v 0.04064871 0.01224794 -0.02819858
v 0.03793206 0.02061962 -0.03221040
v 0.04065413 0.01160702 -0.03029973
v 0.04040245 0.01317622 -0.03017406
v 0.04035549 0.01282530 -0.03221040
v 0.03792363 0.02059843 -0.02819858
v 0.03792424 0.02059975 -0.02840399
v 0.03792965 0.02061299 -0.03094068
v 0.03793146 0.02061697 -0.03178625
v 0.04070289 0.01160702 -0.02924955
v 0.04064208 0.01224794 -0.02840399
v 0.04034405 0.01358010 -0.02994509
v 0.04035428 0.01362115 -0.02924955
v 0.04052347 0.01288754 -0.02819858
v 0.03893936 0.01816717 -0.03221040
v 0.04060235 0.01224794 -0.02924955
v 0.04066436 0.01160702 -0.03009512
v 0.03986779 0.01562998 -0.03221040
v 0.03892190 0.01816717 -0.02819858
v 0.03892311 0.01816717 -0.02840399
v 0.03893756 0.01816717 -0.03178625
v 0.04035729 0.01363174 -0.02840399
v 0.04038800 0.01350065 -0.02819858
v 0.04047831 0.01309279 -0.02819858
v 0.03987441 0.01562998 -0.03178625
v 0.03963358 0.01643908 -0.03094068
v 0.03963538 0.01644305 -0.03178625
v 0.03963478 0.01644570 -0.03221040
v 0.03975400 0.01604049 -0.03221040
v 0.03962755 0.01642319 -0.02819858
v 0.03962816 0.01642451 -0.02840399
v 0.04035729 0.01363174 -0.02819858
v 0.03987441 0.01562998 -0.03094068
v 0.03986839 0.01562998 -0.02819858
v 0.03986900 0.01562998 -0.02840399
v 0.03968596 0.01623117 -0.02819858
f 1 2 5
f 1 5 10
f 1 10 13
f 1 13 7
f 1 7 3
f 1 3 8
f 1 8 15
f 1 15 24
f 1 24 37
f 1 37 50
f 1 50 51
f 1 51 40
f 1 40 27
f 1 27 17
f 1 17 9
f 1 9 4
f 1 4 2
f 2 4 6
f 2 6 12
f 2 12 23
f 2 23 36
f 2 36 46
f 2 46 45
f 2 45 54
f 2 54 56
f 2 56 58
f 2 58 52
f 2 52 41
f 2 41 28
f 2 28 19
f 2 19 11
f 2 11 5
f 3 7 8
f 4 9 16
f 4 16 25
f 4 25 39
f 4 39 32
f 4 32 22
f 4 22 12
f 4 12 6
f 5 11 18
f 5 18 10
f 7 13 14
f 7 14 8
f 8 14 15
f 9 17 16
f 10 18 13
f 11 19 20
f 11 20 21
f 11 21 15
f 11 15 18
f 12 22 33
f 12 33 23
f 13 18 14
f 14 18 15
f 15 21 24
f 16 17 26
f 16 26 25
f 17 27 26
f 19 28 29
f 19 29 30
f 19 30 31
f 19 31 24
f 19 24 20
f 20 24 21
f 22 32 33
f 23 33 34
f 23 34 35
f 23 35 36
f 24 31 37
f 25 38 39
f 25 26 38
f 26 34 33
f 26 33 38
f 26 27 40
f 26 40 34
f 28 41 42
f 28 42 29
f 29 42 30
f 30 42 43
f 30 43 37
f 30 37 31
f 32 39 33
f 33 39 38
f 34 40 35
f 35 44 45
f 35 45 46
f 35 46 36
f 35 40 47
f 35 47 44
f 37 43 48
f 37 48 49
f 37 49 50
f 40 51 47
f 41 52 42
f 42 52 53
f 42 53 48
f 42 48 43
f 44 54 45
f 44 47 55
f 44 55 54
f 47 51 55
f 48 53 56
f 48 56 49
f 49 56 57
f 49 57 55
f 49 55 50
f 50 55 51
f 52 58 53
f 53 58 56
f 54 55 57
f 54 57 56

