# https://github.com/mikedh/trimesh
v 0.03537230 0.02365585 -0.03457961
v 0.03537230 0.02381714 -0.03221080
v 0.03537230 0.02561567 -0.03457961
v 0.04005220 0.00305458 -0.03457961
v 0.03537230 0.02562672 -0.03221080
v 0.04069247 0.00305458 -0.03221080
v 0.03537230 0.02561788 -0.03424038
v 0.03540178 0.02557590 -0.03432362
v 0.03540178 0.02557369 -0.03457961
v 0.04139894 0.00305458 -0.03457961
v 0.03540299 0.02558253 -0.03221080
v 0.04151268 0.00305458 -0.03221080
v 0.03628517 0.02399832 -0.03432362
v 0.03626230 0.02396518 -0.03457961
v 0.04142121 0.00320040 -0.03457961
v 0.04142301 0.00305458 -0.03443422
v 0.03628577 0.02400053 -0.03263234
v 0.03628577 0.02400053 -0.03221080
v 0.04150967 0.00305458 -0.03274318
v 0.04151990 0.00379033 -0.03221080
v 0.03716134 0.02237656 -0.03347798
v 0.03690679 0.02276985 -0.03432362
v 0.03652828 0.02343490 -0.03457961
v 0.04143324 0.00305458 -0.03432362
v 0.04146815 0.00379033 -0.03457961
v 0.03716013 0.02237656 -0.03221080
v 0.03716074 0.02237656 -0.03263234
v 0.04149222 0.00305458 -0.03347798
v 0.04151207 0.00379033 -0.03347798
v 0.04151629 0.00463657 -0.03221080
v 0.03793520 0.02062443 -0.03347798
v 0.03710959 0.02234562 -0.03432362
v 0.03677561 0.02291125 -0.03457961
v 0.04148921 0.00305458 -0.03358858
v 0.04149162 0.00379033 -0.03432362
v 0.04148499 0.00404664 -0.03457961
v 0.03793279 0.02061780 -0.03221080
v 0.03793400 0.02062001 -0.03263234
v 0.04150064 0.00463657 -0.03432362
v 0.04146995 0.00548280 -0.03221080
v 0.03870305 0.01874637 -0.03263234
v 0.03894135 0.01816527 -0.03263234
v 0.03963458 0.01644629 -0.03263234
v 0.03788887 0.02051175 -0.03409592
v 0.03706746 0.02227934 -0.03457961
v 0.04149101 0.00463657 -0.03457961
v 0.03870245 0.01874416 -0.03221080
v 0.04143806 0.00548280 -0.03432362
v 0.04145671 0.00548280 -0.03347798
v 0.04146634 0.00548280 -0.03263234
v 0.04138751 0.00632683 -0.03221080
v 0.03893954 0.01816527 -0.03221080
v 0.03963518 0.01644408 -0.03221080
v 0.03975373 0.01603974 -0.03221080
v 0.03986806 0.01562878 -0.03221080
v 0.03986144 0.01562878 -0.03263234
v 0.03958343 0.01631593 -0.03326002
v 0.03863144 0.01857845 -0.03388468
v 0.03721730 0.02185512 -0.03457961
v 0.04142301 0.00548280 -0.03457961
v 0.04131650 0.00632683 -0.03432362
v 0.04135261 0.00632683 -0.03347798
v 0.04137969 0.00632683 -0.03263234
v 0.04127378 0.00721062 -0.03221080
v 0.04035549 0.01282494 -0.03221080
v 0.04034466 0.01276086 -0.03263234
v 0.04033262 0.01268574 -0.03310003
v 0.04038197 0.01228582 -0.03342024
v 0.04036451 0.01202731 -0.03398880
v 0.03965323 0.01562215 -0.03351624
v 0.03952145 0.01533492 -0.03396329
v 0.03790571 0.01969866 -0.03457961
v 0.03798334 0.01984448 -0.03435608
v 0.03871629 0.01801503 -0.03403308
v 0.04125272 0.00659639 -0.03457961
v 0.04121119 0.00696537 -0.03432362
v 0.04052519 0.01140203 -0.03347798
v 0.04119615 0.00771881 -0.03221080
v 0.04124670 0.00725481 -0.03270399
v 0.04040844 0.01250456 -0.03221080
v 0.04052037 0.01182625 -0.03221080
v 0.04120157 0.00690571 -0.03457961
v 0.04062688 0.00971177 -0.03457961
v 0.04045899 0.01052928 -0.03457961
v 0.04024115 0.01141307 -0.03457961
v 0.03881558 0.01731904 -0.03420235
v 0.03959968 0.01478254 -0.03409731
v 0.03960268 0.01377723 -0.03457961
v 0.03802486 0.01929874 -0.03457961
v 0.03823548 0.01856961 -0.03457961
v 0.03968813 0.01392305 -0.03435886
f 1 2 5
f 1 5 7
f 1 7 3
f 1 3 9
f 1 9 14
f 1 14 23
f 1 23 33
f 1 33 45
f 1 45 59
f 1 59 72
f 1 72 89
f 1 89 90
f 1 90 88
f 1 88 85
f 1 85 84
f 1 84 83
f 1 83 82
f 1 82 75
f 1 75 60
f 1 60 46
f 1 46 36
f 1 36 25
f 1 25 15
f 1 15 10
f 1 10 4
f 1 4 2
f 2 4 6
f 2 6 12
f 2 12 20
f 2 20 30
f 2 30 40
f 2 40 51
f 2 51 64
f 2 64 78
f 2 78 81
f 2 81 80
f 2 80 65
f 2 65 55
f 2 55 54
f 2 54 53
f 2 53 52
f 2 52 47
f 2 47 37
f 2 37 26
f 2 26 18
f 2 18 11
f 2 11 5
f 3 7 8
f 3 8 9
f 4 10 16
f 4 16 24
f 4 24 34
f 4 34 28
f 4 28 19
f 4 19 12
f 4 12 6
f 5 11 8
f 5 8 7
f 8 11 13
f 8 13 9
f 9 13 14
f 10 15 16
f 11 17 13
f 11 18 17
f 12 19 20
f 13 17 21
f 13 21 22
f 13 22 14
f 14 22 23
f 15 24 16
f 15 25 24
f 17 18 21
f 18 26 27
f 18 27 21
f 19 28 29
f 19 29 20
f 20 29 30
f 21 31 32
f 21 32 22
f 21 27 31
f 22 32 23
f 23 32 33
f 24 25 35
f 24 35 34
f 25 36 35
f 26 37 38
f 26 38 31
f 26 31 27
f 28 34 35
f 28 35 29
f 29 35 39
f 29 39 30
f 30 39 40
f 31 38 41
f 31 41 42
f 31 42 43
f 31 43 44
f 31 44 32
f 32 45 33
f 32 44 45
f 35 36 39
f 36 46 39
f 37 47 38
f 38 47 41
f 39 46 48
f 39 48 49
f 39 49 50
f 39 50 40
f 40 50 51
f 41 47 42
f 42 47 52
f 42 52 53
f 42 53 43
f 43 53 54
f 43 54 55
f 43 55 56
f 43 56 57
f 43 57 44
f 44 57 58
f 44 58 59
f 44 59 45
f 46 60 48
f 48 60 61
f 48 61 62
f 48 62 63
f 48 63 49
f 49 63 51
f 49 51 50
f 51 63 64
f 55 65 56
f 56 65 66
f 56 66 67
f 56 67 68
f 56 68 69
f 56 69 57
f 57 69 70
f 57 70 71
f 57 71 58
f 58 72 73
f 58 73 59
f 58 71 74
f 58 74 72
f 59 73 72
f 60 75 61
f 61 75 76
f 61 76 77
f 61 77 78
f 61 78 79
f 61 79 62
f 62 79 64
f 62 64 63
f 64 79 78
f 65 80 66
f 66 80 81
f 66 81 77
f 66 77 67
f 67 77 68
f 68 77 76
f 68 76 82
f 68 82 69
f 69 82 83
f 69 83 84
f 69 84 85
f 69 85 71
f 69 71 70
f 71 86 74
f 71 85 87
f 71 87 88
f 71 88 86
f 72 74 89
f 74 86 90
f 74 90 89
f 75 82 76
f 77 81 78
f 85 88 91
f 85 91 87
f 86 88 90
f 87 91 88

