# https://github.com/mikedh/trimesh
v -0.00617180 0.04353660 -0.03221040
v -0.00617180 0.04355329 -0.03178625
v -0.00617180 0.04441815 -0.03221040
v 0.01030676 0.04255614 -0.03221040
v 0.01030999 0.04255538 -0.03220883
v -0.00617180 0.04372682 -0.02819858
v 0.01030999 0.04271828 -0.02819858
v -0.00617180 0.04454286 -0.02924955
v -0.00533609 0.04480594 -0.02878180
v -0.00463429 0.04482111 -0.02983434
v -0.00382601 0.04482567 -0.03072114
v -0.00301289 0.04482896 -0.03160323
v -0.00230303 0.04484666 -0.03221040
v 0.01030999 0.04255993 -0.03221040
v -0.00617180 0.04457473 -0.02819858
v 0.01030999 0.04358820 -0.02819858
v -0.00617180 0.04457448 -0.02843069
v -0.00480853 0.04482845 -0.02924955
v -0.00534093 0.04480745 -0.02819858
v -0.00499890 0.04482516 -0.02846133
v -0.00406963 0.04487221 -0.02924955
v 0.00015891 0.04508647 -0.03178625
v 0.00058322 0.04510392 -0.03221040
v -0.00068647 0.04502980 -0.03178625
v -0.00026217 0.04504195 -0.03221040
v -0.00110755 0.04496758 -0.03221040
v -0.00244016 0.04486614 -0.03184555
v -0.00209168 0.04486867 -0.03221040
v 0.01030999 0.04339292 -0.03221040
v 0.01030999 0.04359883 -0.02819937
v 0.01030676 0.04359958 -0.02819858
v -0.00497470 0.04482693 -0.02819858
v -0.00068647 0.04504751 -0.03009512
v 0.00015891 0.04509001 -0.03094068
v -0.00068647 0.04504574 -0.03094068
v 0.00100591 0.04513251 -0.03178625
v 0.00100591 0.04512694 -0.03221040
v 0.01030999 0.04342656 -0.03178860
v 0.00725273 0.04403821 -0.03221040
v 0.00692361 0.04414167 -0.03178625
v 0.00692361 0.04427675 -0.03009512
v 0.00867246 0.04404175 -0.02841420
v 0.01030999 0.04359326 -0.02840634
v 0.00900481 0.04398863 -0.02819858
v 0.00015891 0.04509532 -0.02819858
v 0.00100591 0.04513959 -0.02819858
v 0.00100591 0.04513757 -0.02924955
v 0.00100591 0.04513427 -0.03094068
v 0.00185130 0.04510822 -0.03178625
v 0.00143022 0.04511505 -0.03221040
v 0.01030999 0.04348854 -0.03094304
v 0.00695910 0.04410019 -0.03221040
v 0.00607822 0.04428586 -0.03221040
v 0.00776899 0.04423198 -0.02840399
v 0.00336460 0.04485476 -0.03221040
v 0.00865794 0.04406148 -0.02819858
v 0.01030999 0.04356442 -0.02925191
v 0.01030999 0.04353483 -0.03009787
v 0.00164640 0.04511910 -0.02819858
v 0.00185130 0.04510291 -0.03221040
v 0.00185130 0.04511252 -0.02819858
v 0.00269507 0.04500299 -0.03094068
v 0.00269507 0.04499489 -0.03178625
v 0.00776899 0.04424361 -0.02819858
v 0.00344527 0.04486715 -0.03178625
v 0.00269507 0.04497744 -0.03221040
v 0.00249018 0.04503056 -0.02819858
v 0.00269507 0.04500375 -0.02924955
v 0.00403252 0.04481656 -0.02924955
v 0.00402768 0.04481631 -0.03009512
v 0.00400348 0.04481302 -0.03072978
v 0.00692361 0.04437996 -0.02840399
v 0.00692361 0.04438350 -0.02819858
v 0.00269507 0.04500400 -0.02819858
v 0.00269507 0.04500400 -0.02840399
v 0.00333556 0.04491446 -0.02819858
v 0.00403413 0.04481656 -0.02819858
f 1 2 6
f 1 6 15
f 1 15 17
f 1 17 8
f 1 8 3
f 1 3 13
f 1 13 28
f 1 28 26
f 1 26 25
f 1 25 23
f 1 23 37
f 1 37 50
f 1 50 60
f 1 60 66
f 1 66 55
f 1 55 53
f 1 53 52
f 1 52 39
f 1 39 29
f 1 29 14
f 1 14 4
f 1 4 5
f 1 5 2
f 2 5 7
f 2 7 6
f 3 8 9
f 3 9 10
f 3 10 11
f 3 11 12
f 3 12 13
f 4 14 5
f 5 14 29
f 5 29 38
f 5 38 51
f 5 51 58
f 5 58 57
f 5 57 43
f 5 43 30
f 5 30 16
f 5 16 7
f 6 7 16
f 6 16 31
f 6 31 44
f 6 44 56
f 6 56 64
f 6 64 73
f 6 73 77
f 6 77 76
f 6 76 74
f 6 74 67
f 6 67 61
f 6 61 59
f 6 59 46
f 6 46 45
f 6 45 32
f 6 32 19
f 6 19 15
f 8 17 9
f 9 18 10
f 9 17 19
f 9 19 20
f 9 20 21
f 9 21 22
f 9 22 23
f 9 23 18
f 10 18 23
f 10 23 24
f 10 24 25
f 10 25 26
f 10 26 11
f 11 26 27
f 11 27 12
f 12 27 28
f 12 28 13
f 15 19 17
f 16 30 31
f 19 32 20
f 20 32 33
f 20 33 21
f 21 33 34
f 21 34 35
f 21 35 22
f 22 35 36
f 22 36 37
f 22 37 23
f 23 25 24
f 26 28 27
f 29 39 40
f 29 40 41
f 29 41 42
f 29 42 38
f 30 43 44
f 30 44 31
f 32 45 33
f 33 45 46
f 33 46 47
f 33 47 48
f 33 48 34
f 34 48 36
f 34 36 35
f 36 48 49
f 36 49 50
f 36 50 37
f 38 42 44
f 38 44 51
f 39 52 40
f 40 53 41
f 40 52 53
f 41 54 42
f 41 53 55
f 41 55 54
f 42 54 56
f 42 56 44
f 43 57 44
f 44 57 58
f 44 58 51
f 46 59 49
f 46 49 47
f 47 49 48
f 49 60 50
f 49 59 61
f 49 61 62
f 49 62 63
f 49 63 60
f 54 64 56
f 54 55 65
f 54 65 64
f 55 66 65
f 60 63 66
f 61 67 62
f 62 67 68
f 62 68 69
f 62 69 70
f 62 70 63
f 63 70 71
f 63 71 65
f 63 65 66
f 64 72 73
f 64 65 71
f 64 71 72
f 67 74 75
f 67 75 68
f 68 75 76
f 68 76 69
f 69 76 77
f 69 77 73
f 69 73 70
f 70 73 71
f 71 73 72
f 74 76 75

