# https://github.com/mikedh/trimesh
v -0.02122143 -0.03281228 0.04432925
v -0.02072238 -0.03306669 0.04432925
v -0.02122143 -0.03279670 0.04504511
v -0.02122143 -0.02514685 0.04432925
v -0.02068853 -0.03305319 0.04517407
v -0.02122143 -0.03277178 0.04601946
v -0.02122143 -0.03277697 0.04585892
v -0.02122143 -0.03279359 0.04517407
v -0.01484459 -0.03562321 0.04432925
v -0.02122143 -0.02528289 0.04473221
v -0.01960880 -0.02617071 0.04482579
v -0.01801011 -0.02707100 0.04476438
v -0.01955239 -0.02613644 0.04432925
v -0.02065535 -0.03303865 0.04601946
v -0.02061288 -0.03302100 0.04647535
v -0.02122143 -0.03250595 0.04662975
v -0.01444177 -0.03575509 0.04432925
v -0.01473310 -0.03556922 0.04517407
v -0.01591038 -0.03504690 0.04601946
v -0.01655477 -0.03478523 0.04601946
v -0.02122143 -0.02535661 0.04487258
v -0.01453600 -0.02956730 0.04563756
v -0.01800680 -0.02706996 0.04432925
v -0.01844745 -0.02680309 0.04432925
v -0.01912966 -0.02639085 0.04432925
v -0.01444177 -0.02950811 0.04539338
v -0.01444177 -0.02940738 0.04517348
v -0.01539541 -0.02871478 0.04488427
v -0.01444177 -0.02924228 0.04432925
v -0.01646983 -0.03474785 0.04659875
v -0.01591038 -0.03485688 0.04676690
v -0.02013838 -0.03312172 0.04658530
v -0.01591038 -0.03426707 0.04711985
v -0.01754624 -0.03336159 0.04717307
v -0.02013838 -0.03257552 0.04686486
v -0.02122143 -0.03173027 0.04690287
v -0.01444177 -0.03565436 0.04517407
v -0.01465678 -0.03554014 0.04562147
v -0.01498860 -0.03537296 0.04594957
v -0.02122143 -0.02584258 0.04531151
v -0.01868171 -0.02867947 0.04650898
v -0.01706776 -0.02956211 0.04647009
v -0.01444177 -0.02970956 0.04568142
v -0.02122143 -0.02663072 0.04592238
v -0.02122143 -0.02764212 0.04669672
v -0.01444177 -0.03544253 0.04613322
v -0.01506425 -0.03498148 0.04685316
v -0.01444177 -0.03503133 0.04684468
v -0.01506425 -0.03426707 0.04712687
v -0.01722769 -0.03303969 0.04729267
v -0.01779112 -0.03280190 0.04725875
v -0.02080998 -0.02983001 0.04731227
v -0.02122143 -0.02982067 0.04723039
v -0.01444177 -0.03557025 0.04570189
v -0.02122143 -0.02830046 0.04709441
v -0.01650433 -0.02980094 0.04637914
v -0.01444177 -0.03002315 0.04582997
v -0.02122143 -0.02863274 0.04725934
v -0.02071972 -0.02894322 0.04722103
v -0.02045891 -0.02950707 0.04731227
v -0.01444177 -0.03426707 0.04710991
v -0.01715934 -0.03303969 0.04729267
v -0.01812426 -0.03223805 0.04729765
v -0.02018683 -0.03010207 0.04730993
v -0.02122143 -0.02884977 0.04731665
v -0.02122143 -0.02920490 0.04731490
v -0.02122143 -0.02943854 0.04728946
v -0.01444177 -0.03253399 0.04659378
v -0.01444177 -0.03089436 0.04610076
v -0.01798357 -0.03210929 0.04729765
v -0.01715934 -0.03297738 0.04729267
f 1 2 3
f 1 3 8
f 1 8 7
f 1 7 6
f 1 6 16
f 1 16 36
f 1 36 53
f 1 53 67
f 1 67 66
f 1 66 65
f 1 65 58
f 1 58 55
f 1 55 45
f 1 45 44
f 1 44 40
f 1 40 21
f 1 21 10
f 1 10 4
f 1 4 13
f 1 13 25
f 1 25 24
f 1 24 23
f 1 23 29
f 1 29 17
f 1 17 9
f 1 9 2
f 2 5 6
f 2 6 7
f 2 7 8
f 2 8 3
f 2 9 5
f 4 10 11
f 4 11 12
f 4 12 13
f 5 14 6
f 5 9 14
f 6 14 15
f 6 15 16
f 9 17 18
f 9 18 19
f 9 19 20
f 9 20 14
f 10 21 11
f 11 21 22
f 11 22 12
f 12 23 24
f 12 24 25
f 12 25 13
f 12 22 26
f 12 26 27
f 12 27 28
f 12 28 29
f 12 29 23
f 14 20 15
f 15 20 30
f 15 30 31
f 15 31 32
f 15 32 16
f 16 32 33
f 16 33 34
f 16 34 35
f 16 35 36
f 17 37 38
f 17 38 18
f 17 29 27
f 17 27 26
f 17 26 43
f 17 43 57
f 17 57 69
f 17 69 68
f 17 68 61
f 17 61 48
f 17 48 46
f 17 46 54
f 17 54 37
f 18 38 19
f 19 38 39
f 19 39 30
f 19 30 20
f 21 40 22
f 22 41 42
f 22 42 43
f 22 43 26
f 22 40 44
f 22 44 45
f 22 45 41
f 27 29 28
f 30 39 31
f 31 39 46
f 31 46 47
f 31 47 33
f 31 33 32
f 33 47 48
f 33 48 49
f 33 49 50
f 33 50 34
f 34 50 51
f 34 51 36
f 34 36 35
f 36 51 52
f 36 52 53
f 37 54 38
f 38 54 39
f 39 54 46
f 41 45 55
f 41 55 42
f 42 56 57
f 42 57 43
f 42 55 58
f 42 58 59
f 42 59 60
f 42 60 61
f 42 61 56
f 46 48 47
f 48 61 49
f 49 61 62
f 49 62 50
f 50 62 63
f 50 63 51
f 51 63 52
f 52 64 65
f 52 65 66
f 52 66 67
f 52 67 53
f 52 63 62
f 52 62 64
f 56 61 68
f 56 68 69
f 56 69 57
f 58 65 60
f 58 60 59
f 60 65 70
f 60 70 61
f 61 70 71
f 61 71 62
f 62 71 70
f 62 70 65
f 62 65 64

