# https://github.com/mikedh/trimesh
v 0.02955457 0.02202523 0.04094012
v 0.02955457 0.02205732 0.02809505
v 0.02955457 0.02203682 0.04178828
v 0.02284928 0.02963835 0.04263643
v 0.02955457 0.02205910 0.02741057
v 0.02955457 0.02212862 0.04263643
v 0.02955457 0.02228905 0.04348087
v 0.02284928 0.02982284 0.04348087
v 0.02284928 0.02983354 0.00738966
v 0.02955457 0.02211793 0.00738966
v 0.02955457 0.02211614 0.00796626
v 0.02955457 0.02206356 0.02572542
v 0.02955457 0.02269457 0.04517345
v 0.02955457 0.02275339 0.04539293
v 0.02414767 0.02860271 0.04416534
v 0.02284928 0.02989593 0.04363338
v 0.02284928 0.03109467 0.00738966
v 0.02955457 0.02372130 0.00738966
v 0.02955457 0.02477387 0.04539293
v 0.02558391 0.02751003 0.04539293
v 0.02586485 0.02694319 0.04495397
v 0.02506796 0.02784247 0.04484238
v 0.02335078 0.02950288 0.04405374
v 0.02284928 0.03010626 0.04404630
v 0.02284928 0.03109823 0.00796626
v 0.02390808 0.03112943 0.04539293
v 0.02303570 0.03092622 0.00738966
v 0.02915218 0.02426407 0.00738966
v 0.02872945 0.02482556 0.00738966
v 0.02764308 0.02620167 0.00738966
v 0.02688230 0.02715086 0.00738966
v 0.02676808 0.02728811 0.00738966
v 0.02652915 0.02757331 0.00738966
v 0.02521238 0.02795833 0.04539293
v 0.02284928 0.03016509 0.04416162
v 0.02284928 0.03110091 0.00843126
v 0.02284928 0.03112943 0.04297867
v 0.02284928 0.03112943 0.04539293
v 0.02610773 0.02804746 0.00738966
v 0.02596660 0.02818471 0.00738966
v 0.02567186 0.02847081 0.00738966
v 0.02510472 0.02900734 0.00738966
v 0.02480146 0.02929344 0.00738966
v 0.02437873 0.02969183 0.00738966
v 0.02423169 0.02982819 0.00738966
v 0.02392055 0.03011428 0.00738966
v 0.02349782 0.03050287 0.00738966
v 0.02284928 0.03110982 0.01011269
v 0.02284928 0.03111160 0.01050328
v 0.02284928 0.03111517 0.01134772
v 0.02284928 0.03112051 0.01304031
v 0.02284928 0.03112230 0.01388846
v 0.02288079 0.03077738 0.04539293
v 0.02284928 0.03063478 0.04505069
v 0.02284928 0.03081660 0.04539293
f 1 2 5
f 1 5 12
f 1 12 11
f 1 11 10
f 1 10 18
f 1 18 19
f 1 19 14
f 1 14 13
f 1 13 7
f 1 7 6
f 1 6 3
f 1 3 4
f 1 4 2
f 2 4 5
f 3 6 4
f 4 6 7
f 4 7 8
f 4 8 16
f 4 16 24
f 4 24 35
f 4 35 54
f 4 54 55
f 4 55 38
f 4 38 37
f 4 37 52
f 4 52 51
f 4 51 50
f 4 50 49
f 4 49 48
f 4 48 36
f 4 36 25
f 4 25 17
f 4 17 9
f 4 9 10
f 4 10 11
f 4 11 12
f 4 12 5
f 7 13 8
f 8 13 14
f 8 14 15
f 8 15 16
f 9 17 27
f 9 27 47
f 9 47 46
f 9 46 45
f 9 45 44
f 9 44 43
f 9 43 42
f 9 42 41
f 9 41 40
f 9 40 39
f 9 39 33
f 9 33 32
f 9 32 31
f 9 31 30
f 9 30 29
f 9 29 28
f 9 28 18
f 9 18 10
f 14 19 26
f 14 26 38
f 14 38 55
f 14 55 53
f 14 53 34
f 14 34 20
f 14 20 21
f 14 21 15
f 15 21 22
f 15 22 23
f 15 23 16
f 16 23 24
f 17 25 26
f 17 26 27
f 18 28 19
f 19 28 29
f 19 29 30
f 19 30 31
f 19 31 32
f 19 32 33
f 19 33 26
f 20 34 22
f 20 22 21
f 22 35 23
f 22 34 35
f 23 35 24
f 25 36 26
f 26 37 38
f 26 33 39
f 26 39 40
f 26 40 41
f 26 41 42
f 26 42 43
f 26 43 44
f 26 44 45
f 26 45 46
f 26 46 47
f 26 47 27
f 26 36 48
f 26 48 49
f 26 49 50
f 26 50 51
f 26 51 52
f 26 52 37
f 34 53 35
f 35 53 54
f 53 55 54

