# https://github.com/mikedh/trimesh
v 0.02483694 -0.01874629 -0.02746008
v 0.02483694 -0.02094735 -0.02247518
v 0.02483694 -0.02041519 -0.02746008
v 0.01359843 -0.02675784 -0.02746008
v 0.02483694 -0.02234666 -0.02247518
v 0.01380255 -0.02902329 -0.02247518
v 0.02483694 -0.02050573 -0.02735125
v 0.02430903 -0.02120991 -0.02720046
v 0.02347729 -0.02207102 -0.02720241
v 0.02264555 -0.02293213 -0.02720241
v 0.02457299 -0.02067171 -0.02746008
v 0.01285232 -0.02745800 -0.02746008
v 0.01285232 -0.02731012 -0.02745812
v 0.02474309 -0.02245229 -0.02247518
v 0.02483694 -0.02234666 -0.02248396
v 0.01285232 -0.02735539 -0.02740835
v 0.01285232 -0.02902329 -0.02568328
v 0.01570653 -0.02902329 -0.02247518
v 0.02483694 -0.02090208 -0.02671198
v 0.02320278 -0.02262733 -0.02671198
v 0.02277928 -0.02307297 -0.02671198
v 0.02442752 -0.02133465 -0.02671198
v 0.02233350 -0.02349548 -0.02671198
v 0.02176923 -0.02373088 -0.02716923
v 0.02208949 -0.02323795 -0.02732100
v 0.02211529 -0.02299249 -0.02746008
v 0.02243204 -0.02270981 -0.02746008
v 0.02297871 -0.02219878 -0.02746008
v 0.02380107 -0.02141211 -0.02746008
v 0.01285232 -0.02877079 -0.02746008
v 0.02432428 -0.02292107 -0.02247518
v 0.02432428 -0.02292107 -0.02248396
v 0.02428674 -0.02287982 -0.02332966
v 0.02483694 -0.02227322 -0.02318619
v 0.01285232 -0.02902329 -0.02720193
v 0.01564787 -0.02902329 -0.02297098
v 0.01600920 -0.02888346 -0.02248396
v 0.01600920 -0.02888346 -0.02247518
v 0.02483694 -0.02093226 -0.02665000
v 0.02381632 -0.02240500 -0.02581650
v 0.02346439 -0.02290196 -0.02555103
v 0.02249187 -0.02363028 -0.02612150
v 0.02358287 -0.02302770 -0.02502058
v 0.02191117 -0.02382946 -0.02671198
v 0.02130115 -0.02387473 -0.02729562
v 0.02112518 -0.02378117 -0.02746008
v 0.02152639 -0.02348743 -0.02746008
v 0.01746269 -0.02704756 -0.02621764
v 0.01491115 -0.02874162 -0.02622788
v 0.01434688 -0.02890559 -0.02641186
v 0.02181967 -0.02324700 -0.02746008
v 0.02197100 -0.02311723 -0.02746008
v 0.02072397 -0.02402563 -0.02746008
v 0.02394185 -0.02334458 -0.02247518
v 0.02390196 -0.02330334 -0.02332966
v 0.02426211 -0.02285266 -0.02375617
v 0.02483694 -0.02225009 -0.02331551
v 0.01405008 -0.02902329 -0.02646505
v 0.01590713 -0.02883518 -0.02332966
v 0.01556693 -0.02902329 -0.02332966
v 0.01643856 -0.02861990 -0.02247518
v 0.02483694 -0.02139903 -0.02566473
v 0.02400637 -0.02258105 -0.02502058
v 0.02330601 -0.02359909 -0.02437447
v 0.02343975 -0.02371679 -0.02381034
v 0.02261622 -0.02373389 -0.02555786
v 0.02095625 -0.02459400 -0.02642015
v 0.02415418 -0.02273798 -0.02431981
v 0.01858537 -0.02639972 -0.02586628
v 0.01759291 -0.02714414 -0.02565351
v 0.01607372 -0.02810685 -0.02586628
v 0.01507656 -0.02884926 -0.02566376
v 0.01536750 -0.02856054 -0.02591410
v 0.01466949 -0.02902329 -0.02587408
v 0.01462491 -0.02902329 -0.02594680
v 0.02351835 -0.02379425 -0.02247518
v 0.02351835 -0.02379425 -0.02248396
v 0.02347846 -0.02375401 -0.02332966
v 0.02483694 -0.02168875 -0.02502058
v 0.02483694 -0.02203581 -0.02415145
v 0.01536750 -0.02902329 -0.02414023
v 0.01582971 -0.02878588 -0.02382937
v 0.01632946 -0.02855652 -0.02332966
v 0.01858068 -0.02723669 -0.02248396
v 0.01752252 -0.02793282 -0.02247518
v 0.01720461 -0.02813804 -0.02247518
v 0.02440171 -0.02215854 -0.02502058
v 0.02177744 -0.02457790 -0.02471362
v 0.02254583 -0.02450849 -0.02273089
v 0.02111345 -0.02554967 -0.02247518
v 0.02204726 -0.02475797 -0.02332966
v 0.02090933 -0.02540783 -0.02383181
v 0.01672949 -0.02797708 -0.02479366
v 0.01925992 -0.02628302 -0.02475901
v 0.02109116 -0.02468655 -0.02586628
v 0.01521030 -0.02893879 -0.02502058
v 0.01508008 -0.02902329 -0.02503131
v 0.01773486 -0.02723870 -0.02502058
v 0.02327551 -0.02398237 -0.02247518
v 0.02291771 -0.02425800 -0.02247518
v 0.02256225 -0.02452760 -0.02247518
v 0.01534052 -0.02902329 -0.02422563
v 0.01683507 -0.02804649 -0.02417536
v 0.01836952 -0.02709686 -0.02384011
v 0.01858185 -0.02723669 -0.02247518
v 0.02099027 -0.02546115 -0.02332966
v 0.02141260 -0.02518048 -0.02332966
v 0.02223261 -0.02476200 -0.02247518
f 1 2 5
f 1 5 15
f 1 15 34
f 1 34 57
f 1 57 80
f 1 80 79
f 1 79 62
f 1 62 39
f 1 39 19
f 1 19 7
f 1 7 3
f 1 3 11
f 1 11 29
f 1 29 28
f 1 28 27
f 1 27 26
f 1 26 52
f 1 52 51
f 1 51 47
f 1 47 46
f 1 46 53
f 1 53 30
f 1 30 12
f 1 12 4
f 1 4 2
f 2 4 6
f 2 6 18
f 2 18 38
f 2 38 61
f 2 61 86
f 2 86 85
f 2 85 105
f 2 105 90
f 2 90 108
f 2 108 101
f 2 101 100
f 2 100 99
f 2 99 76
f 2 76 54
f 2 54 31
f 2 31 14
f 2 14 5
f 3 7 8
f 3 8 9
f 3 9 10
f 3 10 11
f 4 12 13
f 4 13 6
f 5 14 15
f 6 13 16
f 6 16 17
f 6 17 35
f 6 35 58
f 6 58 75
f 6 75 74
f 6 74 97
f 6 97 102
f 6 102 81
f 6 81 60
f 6 60 36
f 6 36 18
f 7 19 8
f 8 20 21
f 8 21 9
f 8 19 22
f 8 22 20
f 9 21 10
f 10 21 23
f 10 23 24
f 10 24 25
f 10 25 26
f 10 26 27
f 10 27 28
f 10 28 29
f 10 29 11
f 12 30 35
f 12 35 17
f 12 17 16
f 12 16 13
f 14 31 32
f 14 32 15
f 15 32 33
f 15 33 34
f 18 36 37
f 18 37 38
f 19 39 22
f 20 22 39
f 20 39 40
f 20 40 41
f 20 41 21
f 21 42 23
f 21 41 43
f 21 43 42
f 23 42 44
f 23 44 24
f 24 45 46
f 24 46 47
f 24 47 25
f 24 44 48
f 24 48 49
f 24 49 50
f 24 50 30
f 24 30 45
f 25 47 51
f 25 51 52
f 25 52 26
f 30 50 35
f 30 53 45
f 31 54 32
f 32 54 33
f 33 54 55
f 33 55 56
f 33 56 34
f 34 56 57
f 35 50 58
f 36 59 37
f 36 60 59
f 37 59 61
f 37 61 38
f 39 62 40
f 40 63 41
f 40 62 63
f 41 63 43
f 42 43 64
f 42 64 65
f 42 65 66
f 42 66 67
f 42 67 44
f 43 63 68
f 43 68 65
f 43 65 64
f 44 67 48
f 45 53 46
f 48 69 70
f 48 70 71
f 48 71 72
f 48 72 73
f 48 73 49
f 48 67 69
f 49 73 72
f 49 72 74
f 49 74 75
f 49 75 58
f 49 58 50
f 54 76 77
f 54 77 78
f 54 78 55
f 55 78 56
f 56 78 65
f 56 65 68
f 56 68 79
f 56 79 80
f 56 80 57
f 59 60 81
f 59 81 82
f 59 82 83
f 59 83 84
f 59 84 85
f 59 85 86
f 59 86 61
f 62 79 87
f 62 87 63
f 63 87 68
f 65 88 66
f 65 78 89
f 65 89 90
f 65 90 91
f 65 91 92
f 65 92 93
f 65 93 94
f 65 94 88
f 66 88 95
f 66 95 67
f 67 95 69
f 68 87 79
f 69 95 88
f 69 88 70
f 70 88 94
f 70 94 72
f 70 72 71
f 72 96 97
f 72 97 74
f 72 94 98
f 72 98 96
f 76 99 77
f 77 99 78
f 78 99 100
f 78 100 101
f 78 101 89
f 81 102 82
f 82 102 97
f 82 97 103
f 82 103 104
f 82 104 84
f 82 84 83
f 84 105 85
f 84 104 106
f 84 106 107
f 84 107 91
f 84 91 90
f 84 90 105
f 89 101 108
f 89 108 90
f 91 107 103
f 91 103 92
f 92 103 97
f 92 97 93
f 93 97 96
f 93 96 94
f 94 96 98
f 103 107 104
f 104 107 106

