# https://github.com/mikedh/trimesh
v 0.03373629 -0.02145802 -0.02976600
v 0.03373629 -0.02145562 -0.03094082
v 0.03376680 -0.02141723 -0.03094082
v 0.03376756 -0.02141723 -0.03009522
v 0.03376756 -0.02141723 -0.02976600
v 0.03373629 -0.01980481 -0.02976600
v 0.03373629 -0.02145322 -0.03174097
v 0.03376680 -0.02141483 -0.03174097
v 0.03416645 -0.02085096 -0.03174097
v 0.03402535 -0.02105251 -0.02976600
v 0.03373629 -0.01980481 -0.03174097
v 0.04069510 0.00305458 -0.02976600
v 0.04069357 0.00305458 -0.03083004
v 0.04069281 0.00305458 -0.03167563
v 0.03418933 -0.02081737 -0.03174097
v 0.03419009 -0.02081737 -0.03094082
v 0.03419009 -0.02081737 -0.02976600
v 0.04069281 0.00305458 -0.03174097
v 0.04152796 0.00305458 -0.02976600
v 0.03420382 -0.02079577 -0.03174097
v 0.03429687 -0.02065421 -0.02976600
v 0.04151575 0.00305458 -0.03174097
v 0.04150355 0.00040560 -0.02976600
v 0.04151728 0.00209720 -0.03009522
v 0.04150736 0.00209720 -0.03174097
v 0.04151499 0.00294180 -0.03174097
v 0.04151575 0.00304738 -0.03174097
v 0.03446390 -0.02039507 -0.03174097
v 0.03446390 -0.02039507 -0.02976600
v 0.04149668 0.00007688 -0.02976600
v 0.04150126 0.00040560 -0.03009522
v 0.04150431 0.00125020 -0.03094082
v 0.04150660 0.00205161 -0.03174097
v 0.03586191 -0.01819719 -0.03174097
v 0.03595191 -0.01805562 -0.02976600
v 0.04148143 -0.00044140 -0.02976600
v 0.04148219 0.00040560 -0.03094082
v 0.04147533 -0.00044140 -0.03009522
v 0.04148448 0.00120461 -0.03174097
v 0.03611589 -0.01779648 -0.03174097
v 0.03611589 -0.01779648 -0.02976600
v 0.04144635 -0.00077012 -0.02976600
v 0.04141737 -0.00044140 -0.03094082
v 0.04137618 -0.00128600 -0.03009522
v 0.04142270 0.00040560 -0.03174097
v 0.03639504 -0.01735259 -0.03174097
v 0.03628673 -0.01752535 -0.02976600
v 0.04138533 -0.00128600 -0.02976600
v 0.04127474 -0.00136998 -0.03102414
v 0.04130906 -0.00049658 -0.03174097
v 0.04131669 -0.00044140 -0.03174097
v 0.04141889 0.00036001 -0.03174097
v 0.04124195 -0.00206821 -0.02976600
v 0.04123737 -0.00204182 -0.03009522
v 0.04033282 -0.00679749 -0.03054025
v 0.04120991 -0.00189305 -0.03079776
v 0.03680384 -0.01662556 -0.03174097
v 0.03680460 -0.01662796 -0.03094082
v 0.03680460 -0.01663036 -0.03009522
v 0.03639504 -0.01735259 -0.02976600
v 0.04117407 -0.00170830 -0.03136168
v 0.04121678 -0.00111324 -0.03174097
v 0.04044798 -0.00636079 -0.02976600
v 0.04043807 -0.00636079 -0.03009522
v 0.04034502 -0.00686228 -0.03009522
v 0.03982563 -0.00889699 -0.03009522
v 0.03966317 -0.00896658 -0.03100616
v 0.03992325 -0.00805239 -0.03094082
v 0.04035036 -0.00604887 -0.03151324
v 0.04037705 -0.00634160 -0.03086948
v 0.04057230 -0.00471478 -0.03174097
v 0.04052196 -0.00551379 -0.03094082
v 0.03699756 -0.01620326 -0.03174097
v 0.03700061 -0.01620806 -0.02976600
v 0.03680384 -0.01663036 -0.02976600
v 0.03664520 -0.01691109 -0.02976600
v 0.04058069 -0.00466919 -0.03174097
v 0.04034960 -0.00688867 -0.02976600
v 0.03983096 -0.00889699 -0.02976600
v 0.03958233 -0.00957123 -0.03009522
v 0.03865184 -0.01188908 -0.03141155
v 0.03954877 -0.00948485 -0.03076779
v 0.03973182 -0.00810518 -0.03174097
v 0.03871972 -0.01138760 -0.03174097
v 0.04031909 -0.00596729 -0.03174097
v 0.04039841 -0.00563617 -0.03174097
v 0.04040756 -0.00558818 -0.03174097
v 0.03721188 -0.01566099 -0.03174097
v 0.03721722 -0.01566099 -0.03009522
v 0.03713332 -0.01587454 -0.02976600
v 0.03958309 -0.00957123 -0.02976600
v 0.03885930 -0.01143319 -0.03009522
v 0.03866176 -0.01191548 -0.03094082
v 0.03788839 -0.01381343 -0.03174097
v 0.03721798 -0.01566099 -0.02976600
v 0.03886006 -0.01143319 -0.02976600
f 1 2 3
f 1 3 4
f 1 4 5
f 1 5 10
f 1 10 17
f 1 17 21
f 1 21 29
f 1 29 35
f 1 35 41
f 1 41 47
f 1 47 60
f 1 60 76
f 1 76 75
f 1 75 74
f 1 74 90
f 1 90 95
f 1 95 96
f 1 96 91
f 1 91 79
f 1 79 78
f 1 78 63
f 1 63 53
f 1 53 48
f 1 48 42
f 1 42 36
f 1 36 30
f 1 30 23
f 1 23 19
f 1 19 12
f 1 12 6
f 1 6 11
f 1 11 7
f 1 7 2
f 2 7 8
f 2 8 3
f 3 8 9
f 3 9 4
f 4 9 10
f 4 10 5
f 6 12 13
f 6 13 14
f 6 14 18
f 6 18 11
f 7 11 18
f 7 18 22
f 7 22 27
f 7 27 26
f 7 26 25
f 7 25 33
f 7 33 39
f 7 39 45
f 7 45 52
f 7 52 51
f 7 51 50
f 7 50 62
f 7 62 77
f 7 77 71
f 7 71 87
f 7 87 86
f 7 86 85
f 7 85 83
f 7 83 84
f 7 84 94
f 7 94 88
f 7 88 73
f 7 73 57
f 7 57 46
f 7 46 40
f 7 40 34
f 7 34 28
f 7 28 20
f 7 20 15
f 7 15 9
f 7 9 8
f 9 15 16
f 9 16 10
f 10 16 17
f 12 19 22
f 12 22 18
f 12 18 14
f 12 14 13
f 15 20 16
f 16 20 21
f 16 21 17
f 19 23 24
f 19 24 25
f 19 25 26
f 19 26 27
f 19 27 22
f 20 28 21
f 21 28 29
f 23 30 31
f 23 31 32
f 23 32 25
f 23 25 24
f 25 32 33
f 28 34 29
f 29 34 35
f 30 36 31
f 31 37 32
f 31 36 38
f 31 38 37
f 32 37 39
f 32 39 33
f 34 40 35
f 35 40 41
f 36 42 38
f 37 38 43
f 37 43 39
f 38 42 44
f 38 44 43
f 39 43 45
f 40 46 47
f 40 47 41
f 42 48 44
f 43 44 49
f 43 49 50
f 43 50 51
f 43 51 52
f 43 52 45
f 44 48 53
f 44 53 54
f 44 54 55
f 44 55 56
f 44 56 49
f 46 57 58
f 46 58 59
f 46 59 60
f 46 60 47
f 49 56 61
f 49 61 62
f 49 62 50
f 53 63 54
f 54 63 64
f 54 64 55
f 55 64 65
f 55 65 66
f 55 66 67
f 55 67 68
f 55 68 69
f 55 69 70
f 55 70 71
f 55 71 72
f 55 72 56
f 56 72 71
f 56 71 61
f 57 73 74
f 57 74 58
f 58 74 59
f 59 75 76
f 59 76 60
f 59 74 75
f 61 71 77
f 61 77 62
f 63 78 65
f 63 65 64
f 65 78 66
f 66 79 80
f 66 80 81
f 66 81 82
f 66 82 67
f 66 78 79
f 67 83 69
f 67 69 68
f 67 82 81
f 67 81 84
f 67 84 83
f 69 85 86
f 69 86 87
f 69 87 71
f 69 71 70
f 69 83 85
f 73 88 89
f 73 89 90
f 73 90 74
f 79 91 80
f 80 91 96
f 80 96 92
f 80 92 88
f 80 88 93
f 80 93 81
f 81 93 88
f 81 88 94
f 81 94 84
f 88 92 89
f 89 95 90
f 89 92 96
f 89 96 95

