# https://github.com/mikedh/trimesh
v 0.01398088 -0.02825666 -0.03594054
v 0.01398088 -0.03386576 -0.03464296
v 0.01398088 -0.03066425 -0.03594054
v -0.00037307 -0.02901282 -0.03594054
v 0.01369001 -0.03391346 -0.03464296
v 0.01398088 -0.03545161 -0.03464296
v 0.01398088 -0.03360344 -0.03593901
v 0.01397667 -0.03360145 -0.03594054
v -0.00037307 -0.03751341 -0.03594054
v -0.00037307 -0.03746075 -0.03464296
v 0.01199817 -0.03424136 -0.03464296
v 0.01309843 -0.03401481 -0.03464296
v 0.01398088 -0.03543969 -0.03465591
v 0.01174524 -0.03643730 -0.03464296
v 0.01165812 -0.03640749 -0.03476770
v 0.01398088 -0.03399593 -0.03570173
v 0.00776997 -0.03693611 -0.03543281
v 0.00825054 -0.03641842 -0.03560646
v 0.00776997 -0.03651381 -0.03563796
v 0.00776997 -0.03595837 -0.03583282
v 0.00692405 -0.03595837 -0.03591043
v 0.00692405 -0.03584211 -0.03594054
v -0.00037307 -0.03765054 -0.03591958
v 0.00314832 -0.03680495 -0.03594054
v -0.00037307 -0.03840670 -0.03464296
v 0.01398088 -0.03501739 -0.03497386
v 0.00916110 -0.03725705 -0.03464296
v 0.00911895 -0.03724712 -0.03477849
v 0.00861589 -0.03730872 -0.03487592
v 0.00776997 -0.03739716 -0.03501006
v 0.00692405 -0.03706628 -0.03551042
v 0.00565517 -0.03722725 -0.03559197
v 0.00692405 -0.03664299 -0.03568051
v 0.00647720 -0.03595837 -0.03594054
v 0.00438769 -0.03680495 -0.03584311
v 0.00354177 -0.03680495 -0.03591386
v 0.00015950 -0.03765054 -0.03588388
v -0.00037307 -0.03816425 -0.03568801
v -0.00037307 -0.03837788 -0.03485712
v -0.00015948 -0.03838881 -0.03464296
v 0.00861589 -0.03736337 -0.03464296
v 0.00776997 -0.03751043 -0.03464296
v 0.00137076 -0.03805892 -0.03556161
v 0.00080729 -0.03809867 -0.03561967
v 0.00607954 -0.03675030 -0.03571672
v 0.00015950 -0.03813444 -0.03565790
v -0.00037307 -0.03832919 -0.03516948
v 0.00250053 -0.03809569 -0.03485420
v 0.00261154 -0.03811556 -0.03464296
v 0.00311460 -0.03806389 -0.03464296
v 0.00306542 -0.03805992 -0.03470558
v 0.00105600 -0.03816524 -0.03523566
v 0.00300359 -0.03807581 -0.03464296
f 1 2 6
f 1 6 13
f 1 13 26
f 1 26 16
f 1 16 7
f 1 7 3
f 1 3 8
f 1 8 22
f 1 22 34
f 1 34 24
f 1 24 9
f 1 9 4
f 1 4 2
f 2 5 12
f 2 12 11
f 2 11 10
f 2 10 25
f 2 25 40
f 2 40 49
f 2 49 53
f 2 53 50
f 2 50 42
f 2 42 41
f 2 41 27
f 2 27 14
f 2 14 6
f 2 4 5
f 3 7 8
f 4 9 23
f 4 23 38
f 4 38 47
f 4 47 39
f 4 39 25
f 4 25 10
f 4 10 11
f 4 11 12
f 4 12 5
f 6 14 15
f 6 15 13
f 7 16 17
f 7 17 18
f 7 18 8
f 8 18 19
f 8 19 20
f 8 20 21
f 8 21 22
f 9 24 23
f 13 15 26
f 14 27 28
f 14 28 15
f 15 16 26
f 15 28 29
f 15 29 17
f 15 17 16
f 17 29 30
f 17 30 31
f 17 31 18
f 18 31 19
f 19 31 32
f 19 32 33
f 19 33 20
f 20 33 21
f 21 34 22
f 21 33 35
f 21 35 36
f 21 36 24
f 21 24 34
f 23 37 38
f 23 24 37
f 24 36 37
f 25 39 40
f 27 41 28
f 28 41 42
f 28 42 29
f 29 42 30
f 30 42 43
f 30 43 32
f 30 32 31
f 32 43 44
f 32 44 37
f 32 37 36
f 32 36 35
f 32 35 45
f 32 45 33
f 33 45 35
f 37 44 46
f 37 46 38
f 38 46 47
f 39 47 48
f 39 48 40
f 40 48 49
f 42 50 51
f 42 51 48
f 42 48 43
f 43 48 52
f 43 52 47
f 43 47 44
f 44 47 46
f 47 52 48
f 48 51 53
f 48 53 49
f 50 53 51

