# https://github.com/mikedh/trimesh
v -0.02749753 0.02685761 0.00819687
v -0.02625777 0.02685761 0.00819687
v -0.02749778 0.02685761 0.00842538
v -0.02515010 0.02994791 0.04252721
v -0.02509153 0.03002298 0.04252721
v -0.02501384 0.03012105 0.04252721
v -0.02745171 0.02691192 0.00819687
v -0.02501384 0.02818778 0.00819687
v -0.02501384 0.02788462 0.04009761
v -0.02574241 0.02715278 0.04094444
v -0.02603967 0.02685761 0.04094444
v -0.02749851 0.02685761 0.00926885
v -0.02664350 0.02800505 0.04252721
v -0.02501384 0.02944862 0.00819687
v -0.02513000 0.02934799 0.00819687
v -0.02524738 0.02924545 0.00819687
v -0.02572084 0.02882251 0.00819687
v -0.02614382 0.02837050 0.00819687
v -0.02625164 0.02825326 0.00819687
v -0.02653028 0.02794755 0.00819687
v -0.02695325 0.02747574 0.00819687
v -0.02733212 0.02705279 0.00819687
v -0.02501384 0.02850850 0.04252721
v -0.02501384 0.02788335 0.04032948
v -0.02532066 0.02757572 0.04094444
v -0.02606785 0.02685761 0.04154596
v -0.02749974 0.02685761 0.01095916
v -0.02751738 0.02685761 0.04252721
v -0.02750464 0.02685761 0.01772374
v -0.02750611 0.02685761 0.01980386
v -0.02750807 0.02685761 0.02279802
v -0.02750832 0.02685761 0.02318783
v -0.02506825 0.02843630 0.04252721
v -0.02501384 0.02816701 0.04189881
v -0.02501384 0.02789357 0.04094444
v -0.02609456 0.02685761 0.04178792
v -0.02629232 0.02685761 0.04252721
v -0.02539859 0.02800218 0.04252721
v -0.02501384 0.02812612 0.04182152
v -0.02554072 0.02776803 0.04243984
v -0.02501384 0.02792871 0.04113599
v -0.02577770 0.02721667 0.04178792
v -0.02625557 0.02689946 0.04252721
v -0.02565713 0.02766676 0.04252721
v -0.02501384 0.02811143 0.04178792
v -0.02540815 0.02763961 0.04178792
f 1 2 11
f 1 11 26
f 1 26 36
f 1 36 37
f 1 37 28
f 1 28 32
f 1 32 31
f 1 31 30
f 1 30 29
f 1 29 27
f 1 27 12
f 1 12 3
f 1 3 4
f 1 4 5
f 1 5 6
f 1 6 7
f 1 7 22
f 1 22 21
f 1 21 20
f 1 20 19
f 1 19 18
f 1 18 17
f 1 17 16
f 1 16 15
f 1 15 14
f 1 14 8
f 1 8 2
f 2 8 9
f 2 9 10
f 2 10 11
f 3 12 4
f 4 13 28
f 4 28 37
f 4 37 43
f 4 43 44
f 4 44 38
f 4 38 33
f 4 33 23
f 4 23 6
f 4 6 5
f 4 12 13
f 6 14 15
f 6 15 16
f 6 16 17
f 6 17 18
f 6 18 19
f 6 19 20
f 6 20 21
f 6 21 22
f 6 22 7
f 6 23 34
f 6 34 39
f 6 39 45
f 6 45 41
f 6 41 35
f 6 35 24
f 6 24 9
f 6 9 8
f 6 8 14
f 9 24 10
f 10 25 26
f 10 26 11
f 10 24 25
f 12 27 13
f 13 27 29
f 13 29 30
f 13 30 31
f 13 31 32
f 13 32 28
f 23 33 34
f 24 35 25
f 25 35 26
f 26 35 36
f 33 38 34
f 34 38 40
f 34 40 39
f 35 41 36
f 36 41 42
f 36 42 37
f 37 42 43
f 38 44 40
f 39 40 43
f 39 43 45
f 40 44 43
f 41 45 46
f 41 46 42
f 42 46 43
f 43 46 45

