# https://github.com/mikedh/trimesh
v -0.01444177 -0.02924088 0.04432925
v -0.02718736 -0.01967863 0.04426948
v -0.01800744 -0.02706941 0.04432925
v -0.01444177 -0.03031639 0.04432925
v -0.01444177 -0.02885116 0.03586274
v -0.02718736 -0.02105881 0.04426948
v -0.02122004 -0.02514662 0.04432925
v -0.01955198 -0.02613600 0.04432925
v -0.01913029 -0.02639008 0.04432925
v -0.01844785 -0.02680241 0.04432925
v -0.02718736 -0.01932335 -0.01118673
v -0.01444302 -0.03032070 0.04432925
v -0.01444177 -0.03032070 0.04431838
v -0.01444177 -0.02884900 0.03540627
v -0.02243646 -0.02559125 0.04426948
v -0.02122004 -0.02647836 0.04432925
v -0.02718736 -0.02107604 0.04009056
v -0.01444177 -0.02884900 0.03502044
v -0.01444177 -0.02885008 0.03454766
v -0.01444177 -0.02885762 0.03221095
v -0.01444177 -0.02904279 -0.01118673
v -0.02718736 -0.02091455 -0.01118673
v -0.02004479 -0.02719644 0.04432925
v -0.01830312 -0.02807709 -0.00641005
v -0.01664505 -0.02892867 -0.01118673
v -0.01496327 -0.02976518 -0.01118673
v -0.01469628 -0.02986746 -0.01118673
v -0.01444177 -0.02996435 -0.01118673
v -0.02189125 -0.02601004 0.04426948
v -0.02718736 -0.02112772 0.02559750
v -0.02643006 -0.02195776 -0.00725235
v -0.02555174 -0.02276736 -0.01118673
v -0.02512880 -0.02311617 -0.01118673
v -0.02096303 -0.02665384 0.04432925
v -0.02188377 -0.02601542 0.04426948
v -0.01973912 -0.02709632 -0.00894783
v -0.01872482 -0.02781117 -0.00641005
v -0.02674446 -0.02152713 -0.01118673
v -0.02718736 -0.02092532 -0.00983361
v -0.01829564 -0.02807709 -0.00725779
v -0.01828316 -0.02807601 -0.00810009
v -0.01826445 -0.02807386 -0.00894783
v -0.01824199 -0.02806417 -0.00979557
v -0.01821579 -0.02805125 -0.01063787
v -0.01820082 -0.02804156 -0.01118673
v -0.02493168 -0.02326689 -0.01118673
v -0.02457486 -0.02353820 -0.01118673
v -0.02330480 -0.02447052 -0.01118673
v -0.02173031 -0.02562462 -0.01118673
v -0.02152321 -0.02577642 -0.01118673
v -0.02073347 -0.02635778 -0.01063787
v -0.02718736 -0.02112987 0.02474976
v -0.02643006 -0.02195776 -0.00894783
v -0.02642757 -0.02195561 -0.00979557
v -0.02642382 -0.02194915 -0.01118673
v -0.02072848 -0.02635347 -0.01118673
v -0.01973039 -0.02708986 -0.00964341
v -0.01871858 -0.02780794 -0.00725779
v -0.02675070 -0.02153466 -0.00894783
v -0.02718736 -0.02096946 -0.00387227
v -0.01870610 -0.02779933 -0.00810009
v -0.01835303 -0.02794144 -0.01118673
v -0.02115017 -0.02604772 -0.01118673
v -0.02718736 -0.02112987 0.02390746
v -0.02718736 -0.02112772 0.02318471
v -0.02718736 -0.02112341 0.02222285
v -0.01926378 -0.02733855 -0.01118673
v -0.01971417 -0.02707802 -0.01020857
v -0.02718736 -0.02110403 0.01885364
v -0.02718736 -0.02108465 0.01550072
v -0.02718736 -0.02097484 -0.00302996
f 1 2 3
f 1 3 10
f 1 10 9
f 1 9 8
f 1 8 7
f 1 7 16
f 1 16 34
f 1 34 23
f 1 23 12
f 1 12 4
f 1 4 13
f 1 13 28
f 1 28 21
f 1 21 20
f 1 20 19
f 1 19 18
f 1 18 14
f 1 14 5
f 1 5 2
f 2 6 16
f 2 16 7
f 2 7 8
f 2 8 9
f 2 9 10
f 2 10 3
f 2 5 11
f 2 11 22
f 2 22 39
f 2 39 60
f 2 60 71
f 2 71 70
f 2 70 69
f 2 69 66
f 2 66 65
f 2 65 64
f 2 64 52
f 2 52 30
f 2 30 17
f 2 17 6
f 4 12 13
f 5 14 11
f 6 15 16
f 6 17 15
f 11 14 18
f 11 18 19
f 11 19 20
f 11 20 21
f 11 21 28
f 11 28 27
f 11 27 26
f 11 26 25
f 11 25 45
f 11 45 62
f 11 62 67
f 11 67 56
f 11 56 63
f 11 63 50
f 11 50 49
f 11 49 48
f 11 48 47
f 11 47 46
f 11 46 33
f 11 33 32
f 11 32 55
f 11 55 38
f 11 38 22
f 12 23 24
f 12 24 25
f 12 25 26
f 12 26 27
f 12 27 28
f 12 28 13
f 15 29 16
f 15 17 30
f 15 30 31
f 15 31 32
f 15 32 33
f 15 33 29
f 16 29 35
f 16 35 36
f 16 36 37
f 16 37 34
f 22 38 39
f 23 34 24
f 24 37 40
f 24 40 25
f 24 34 37
f 25 40 41
f 25 41 42
f 25 42 43
f 25 43 44
f 25 44 45
f 29 33 46
f 29 46 47
f 29 47 48
f 29 48 49
f 29 49 50
f 29 50 51
f 29 51 36
f 29 36 35
f 30 52 31
f 31 53 32
f 31 52 64
f 31 64 53
f 32 53 54
f 32 54 55
f 36 51 56
f 36 56 57
f 36 57 58
f 36 58 37
f 37 58 40
f 38 55 54
f 38 54 59
f 38 59 60
f 38 60 39
f 40 58 41
f 41 58 42
f 42 58 61
f 42 61 57
f 42 57 43
f 43 57 62
f 43 62 45
f 43 45 44
f 50 63 51
f 51 63 56
f 53 64 65
f 53 65 66
f 53 66 59
f 53 59 54
f 56 67 68
f 56 68 57
f 57 68 67
f 57 67 62
f 57 61 58
f 59 66 69
f 59 69 70
f 59 70 71
f 59 71 60

