# https://github.com/mikedh/trimesh
v 0.02284797 0.03093517 0.04095325
v 0.02164617 0.03203546 0.04095325
v 0.02284797 0.02971872 0.04095325
v 0.02284797 0.03102425 0.03090717
v 0.02121947 0.03241387 0.04095325
v 0.02256980 0.03127509 0.03116985
v 0.02258060 0.03128507 0.02825895
v 0.02260896 0.03131073 0.02064667
v 0.02284662 0.02969307 0.04095325
v 0.02284797 0.02969236 0.04094252
v 0.02284797 0.03102496 0.03080532
v 0.02167588 0.03206896 0.02994759
v 0.02067799 0.03283289 0.04095325
v 0.02262111 0.03131928 0.01726402
v 0.02262651 0.03132284 0.01557002
v 0.02262921 0.03132427 0.01472302
v 0.02284797 0.03103280 0.02964739
v 0.02284797 0.03109338 0.02064667
v 0.02284797 0.03110335 0.01895267
v 0.00905435 0.03692407 0.04095325
v 0.00905435 0.03692407 0.04094252
v 0.02284797 0.02969877 -0.01381233
v 0.02262921 0.03132427 0.01388138
v 0.02025938 0.03310725 0.04095325
v 0.02262111 0.03131714 0.01050410
v 0.02261301 0.03131073 0.00796310
v 0.02260221 0.03130217 0.00458045
v 0.02259951 0.03130004 0.00373881
v 0.02257925 0.03128365 -0.00218483
v 0.02257115 0.03127723 -0.00448996
v 0.02211204 0.03154803 -0.01381233
v 0.02149494 0.03197062 -0.01381233
v 0.02107228 0.03224854 -0.01381233
v 0.01851476 0.03392606 -0.01381233
v 0.01702399 0.03490378 -0.01381233
v 0.02284797 0.03111048 0.01771969
v 0.02284797 0.03111475 0.01686733
v 0.02284797 0.03112046 0.01557002
v 0.02284797 0.03112188 0.01516260
v 0.02284797 0.03112331 0.01472302
v 0.02284797 0.03112402 0.01388138
v 0.00905435 0.03697253 0.04095325
v 0.00905435 0.03695043 0.03502424
v 0.00972681 0.03697253 -0.01375872
v 0.00972816 0.03697253 -0.01381233
v 0.02284797 0.03094871 -0.01381233
v 0.00905435 0.03696184 0.03248323
v 0.00905435 0.03696968 0.03079459
v 0.00905435 0.03697253 0.03033893
v 0.00905975 0.03697253 0.02994759
v 0.02284797 0.03111903 0.01219274
v 0.02284797 0.03111618 0.01134574
v 0.02284797 0.03111262 0.01050410
v 0.01766540 0.03476695 0.04094252
v 0.01766945 0.03476410 0.04095325
v 0.01686060 0.03501067 -0.01381233
v 0.01637719 0.03532636 -0.01381233
v 0.01637989 0.03532779 -0.01317976
v 0.02284797 0.03110834 0.00965710
v 0.02284797 0.03110193 0.00842948
v 0.02284797 0.03105917 0.00119781
v 0.02284797 0.03104706 -0.00081247
v 0.02284797 0.03103138 -0.00333203
v 0.02284797 0.03102283 -0.00470439
v 0.02284797 0.03102211 -0.00480624
v 0.02253469 0.03123162 -0.01381233
v 0.02221871 0.03146822 -0.01381233
v 0.01167534 0.03697253 0.04095325
v 0.01255440 0.03697253 -0.01381233
v 0.01655003 0.03542898 0.04094252
v 0.01655003 0.03542898 0.04095325
v 0.01766000 0.03476980 0.04095325
v 0.01595453 0.03559288 -0.01381233
v 0.01283797 0.03667679 0.04095325
v 0.01217901 0.03697253 0.02067347
v 0.01369138 0.03656776 -0.01317976
v 0.01369138 0.03656633 -0.01381233
v 0.01256520 0.03697253 -0.01148576
v 0.01369138 0.03658913 -0.00218483
v 0.01369138 0.03657773 -0.00810312
v 0.01609767 0.03563564 0.03079459
v 0.01610172 0.03563564 0.03164160
v 0.01610442 0.03563564 0.03248323
v 0.01610847 0.03563493 0.03333024
v 0.01611117 0.03563422 0.03417724
v 0.01612467 0.03561854 0.04009552
v 0.01613008 0.03561426 0.04095325
v 0.01611387 0.03563279 0.03502424
v 0.01538199 0.03584801 -0.01381233
v 0.01284472 0.03667465 0.04095325
v 0.01284472 0.03668961 0.03840688
v 0.01284472 0.03669888 0.03671288
v 0.01284472 0.03670315 0.03586588
v 0.01369138 0.03656776 0.01219274
v 0.01369138 0.03657132 0.01134574
v 0.01256115 0.03697253 -0.01063876
v 0.01416535 0.03637107 -0.01233276
v 0.01404246 0.03641953 -0.01381233
v 0.01417750 0.03637606 -0.00725611
v 0.01369138 0.03658913 0.00289181
v 0.01369138 0.03659056 0.00119781
v 0.01369138 0.03659056 -0.00049083
v 0.01421936 0.03639245 0.01134574
v 0.01421666 0.03639174 0.00965710
v 0.01421261 0.03639031 0.00796310
v 0.01420450 0.03638746 0.00458045
v 0.01421801 0.03639102 0.01219274
v 0.01612602 0.03561569 0.04094252
v 0.01611927 0.03561783 0.04095325
v 0.01421396 0.03638889 0.01303974
v 0.01416129 0.03636965 -0.01381233
v 0.01355905 0.03644661 0.04095325
v 0.01357255 0.03644732 0.04009552
v 0.01363332 0.03646656 0.03333024
v 0.01365627 0.03647369 0.03079459
v 0.01369138 0.03656348 0.01303974
v 0.01419100 0.03637677 0.01726402
v 0.01420045 0.03638176 0.01557002
v 0.01369138 0.03657417 0.01050410
v 0.01369138 0.03658130 0.00712146
v 0.01369138 0.03658771 0.00373881
v 0.01538199 0.03586083 0.04095325
v 0.01418020 0.03637178 0.01895267
v 0.01417345 0.03636965 0.01979967
v 0.01415319 0.03636252 0.02233531
v 0.01369138 0.03650576 0.02318231
v 0.01416129 0.03636466 0.02149367
f 1 2 5
f 1 5 13
f 1 13 24
f 1 24 55
f 1 55 72
f 1 72 71
f 1 71 87
f 1 87 109
f 1 109 122
f 1 122 112
f 1 112 90
f 1 90 74
f 1 74 68
f 1 68 42
f 1 42 20
f 1 20 9
f 1 9 3
f 1 3 10
f 1 10 22
f 1 22 46
f 1 46 65
f 1 65 64
f 1 64 63
f 1 63 62
f 1 62 61
f 1 61 60
f 1 60 59
f 1 59 53
f 1 53 52
f 1 52 51
f 1 51 41
f 1 41 40
f 1 40 39
f 1 39 38
f 1 38 37
f 1 37 36
f 1 36 19
f 1 19 18
f 1 18 17
f 1 17 11
f 1 11 4
f 1 4 2
f 2 4 6
f 2 6 7
f 2 7 8
f 2 8 5
f 3 9 10
f 4 11 6
f 5 12 13
f 5 8 14
f 5 14 15
f 5 15 16
f 5 16 12
f 6 11 7
f 7 11 17
f 7 17 8
f 8 18 19
f 8 19 14
f 8 17 18
f 9 20 10
f 10 20 21
f 10 21 22
f 12 16 23
f 12 23 13
f 13 23 25
f 13 25 26
f 13 26 27
f 13 27 28
f 13 28 29
f 13 29 30
f 13 30 31
f 13 31 32
f 13 32 33
f 13 33 34
f 13 34 35
f 13 35 24
f 14 19 36
f 14 36 37
f 14 37 15
f 15 37 16
f 16 37 38
f 16 38 39
f 16 39 40
f 16 40 41
f 16 41 23
f 20 42 49
f 20 49 48
f 20 48 47
f 20 47 43
f 20 43 21
f 21 43 22
f 22 44 45
f 22 45 69
f 22 69 77
f 22 77 98
f 22 98 111
f 22 111 89
f 22 89 73
f 22 73 57
f 22 57 56
f 22 56 35
f 22 35 34
f 22 34 33
f 22 33 32
f 22 32 31
f 22 31 67
f 22 67 66
f 22 66 46
f 22 43 47
f 22 47 48
f 22 48 49
f 22 49 50
f 22 50 44
f 23 41 51
f 23 51 52
f 23 52 53
f 23 53 25
f 24 54 55
f 24 35 56
f 24 56 57
f 24 57 58
f 24 58 54
f 25 53 59
f 25 59 60
f 25 60 26
f 26 60 27
f 27 60 28
f 28 60 29
f 29 60 61
f 29 61 30
f 30 61 62
f 30 62 63
f 30 63 64
f 30 64 65
f 30 65 46
f 30 46 66
f 30 66 67
f 30 67 31
f 42 68 75
f 42 75 96
f 42 96 78
f 42 78 69
f 42 69 45
f 42 45 44
f 42 44 50
f 42 50 49
f 54 70 71
f 54 71 72
f 54 72 55
f 54 58 73
f 54 73 70
f 57 73 58
f 68 74 75
f 69 76 77
f 69 78 79
f 69 79 80
f 69 80 76
f 70 81 82
f 70 82 83
f 70 83 84
f 70 84 85
f 70 85 71
f 70 73 81
f 71 86 87
f 71 85 88
f 71 88 86
f 73 89 81
f 74 90 91
f 74 91 75
f 75 91 92
f 75 92 93
f 75 93 94
f 75 94 95
f 75 95 96
f 76 97 98
f 76 98 77
f 76 80 99
f 76 99 97
f 78 96 100
f 78 100 101
f 78 101 102
f 78 102 79
f 79 99 80
f 79 102 103
f 79 103 104
f 79 104 105
f 79 105 106
f 79 106 99
f 81 89 97
f 81 97 82
f 82 97 99
f 82 99 106
f 82 106 105
f 82 105 104
f 82 104 83
f 83 104 84
f 84 104 103
f 84 103 85
f 85 103 88
f 86 88 103
f 86 103 107
f 86 107 87
f 87 108 109
f 87 107 110
f 87 110 108
f 89 111 97
f 90 112 91
f 91 112 113
f 91 113 114
f 91 114 115
f 91 115 116
f 91 116 92
f 92 116 94
f 92 94 93
f 94 110 95
f 94 116 117
f 94 117 118
f 94 118 110
f 95 110 107
f 95 107 119
f 95 119 96
f 96 119 120
f 96 120 121
f 96 121 100
f 97 111 98
f 100 121 103
f 100 103 101
f 101 103 102
f 103 121 120
f 103 120 119
f 103 119 107
f 108 122 109
f 108 110 118
f 108 118 117
f 108 117 123
f 108 123 124
f 108 124 122
f 112 122 113
f 113 122 125
f 113 125 114
f 114 125 115
f 115 125 126
f 115 126 116
f 116 126 125
f 116 125 127
f 116 127 124
f 116 124 123
f 116 123 117
f 122 124 127
f 122 127 125

