# https://github.com/mikedh/trimesh
v 0.04073945 0.01160486 -0.02819858
v 0.04073804 0.01160486 -0.02824846
v 0.03986420 0.01160486 -0.02819858
v 0.04120430 0.00870873 -0.02819858
v 0.04120342 0.00868864 -0.02840399
v 0.04073346 0.01160486 -0.02840399
v 0.04119654 0.00858066 -0.02924955
v 0.03974543 0.01160486 -0.03221040
v 0.03988623 0.01013085 -0.03221040
v 0.03988393 0.01140063 -0.02819858
v 0.04127108 0.00801818 -0.02819858
v 0.04126932 0.00801818 -0.02840399
v 0.04139584 0.00632737 -0.03178625
v 0.04138791 0.00632737 -0.03221040
v 0.04070315 0.01160486 -0.02924955
v 0.04118650 0.00850366 -0.02987361
v 0.04129734 0.00717278 -0.03178625
v 0.04055654 0.01160486 -0.03221040
v 0.03990878 0.01055522 -0.03009512
v 0.03993046 0.00970898 -0.03221040
v 0.04069716 0.00305458 -0.02819858
v 0.04134897 0.00717278 -0.02819858
v 0.04134720 0.00717278 -0.02840399
v 0.04141769 0.00632737 -0.02924955
v 0.04147003 0.00548113 -0.03221040
v 0.04127390 0.00721044 -0.03221040
v 0.04066491 0.01160486 -0.03009512
v 0.04120712 0.00778214 -0.03178625
v 0.04061204 0.01140063 -0.03178625
v 0.04062174 0.01160486 -0.03094068
v 0.04069857 0.01140063 -0.03009512
v 0.04057839 0.01160486 -0.03178625
v 0.04059019 0.01140063 -0.03221040
v 0.04069258 0.00305458 -0.03221040
v 0.04153734 0.00305458 -0.02819858
v 0.04136782 0.00696770 -0.02819858
v 0.04144553 0.00612230 -0.02819858
v 0.04148818 0.00548113 -0.03009512
v 0.04151619 0.00463573 -0.03221040
v 0.04119619 0.00771601 -0.03221040
v 0.04151320 0.00305458 -0.03221040
v 0.04153610 0.00305458 -0.02840399
v 0.04154245 0.00361204 -0.02819858
v 0.04150439 0.00548113 -0.02819858
v 0.04151936 0.00463573 -0.03178625
v 0.04151989 0.00379033 -0.03221040
v 0.04154280 0.00379033 -0.02840399
v 0.04154403 0.00379033 -0.02819858
v 0.04154544 0.00463573 -0.02819858
v 0.04154403 0.00463573 -0.02840399
f 1 2 6
f 1 6 15
f 1 15 27
f 1 27 30
f 1 30 32
f 1 32 18
f 1 18 8
f 1 8 3
f 1 3 10
f 1 10 21
f 1 21 35
f 1 35 43
f 1 43 48
f 1 48 49
f 1 49 44
f 1 44 37
f 1 37 36
f 1 36 22
f 1 22 11
f 1 11 4
f 1 4 5
f 1 5 2
f 2 5 7
f 2 7 6
f 3 8 9
f 3 9 10
f 4 11 12
f 4 12 13
f 4 13 5
f 5 13 14
f 5 14 7
f 6 7 15
f 7 16 15
f 7 14 17
f 7 17 16
f 8 18 33
f 8 33 40
f 8 40 26
f 8 26 14
f 8 14 25
f 8 25 39
f 8 39 46
f 8 46 41
f 8 41 34
f 8 34 20
f 8 20 9
f 9 19 10
f 9 20 21
f 9 21 19
f 10 19 21
f 11 22 23
f 11 23 12
f 12 23 13
f 13 23 24
f 13 24 25
f 13 25 14
f 14 26 17
f 15 16 27
f 16 28 29
f 16 29 30
f 16 30 31
f 16 31 27
f 16 17 26
f 16 26 28
f 18 32 29
f 18 29 33
f 20 34 21
f 21 34 41
f 21 41 42
f 21 42 35
f 22 36 24
f 22 24 23
f 24 36 37
f 24 37 38
f 24 38 25
f 25 38 39
f 26 40 28
f 27 31 30
f 28 40 29
f 29 32 30
f 29 40 33
f 35 42 43
f 37 44 38
f 38 44 39
f 39 44 45
f 39 45 46
f 41 46 43
f 41 43 42
f 43 46 47
f 43 47 48
f 44 49 50
f 44 50 45
f 45 50 46
f 46 50 49
f 46 49 47
f 47 49 48

