# https://github.com/mikedh/trimesh
v 0.01313428 0.03697253 0.04429696
v 0.01206722 0.03737813 0.04429696
v 0.01019636 0.03697253 0.04429696
v 0.01251745 0.03697253 -0.02332360
v 0.01185948 0.03731340 -0.02332360
v 0.01203805 0.03738837 0.04429696
v 0.01014563 0.03698837 0.04429696
v 0.00905339 0.03704641 0.04342425
v 0.00942253 0.03697253 0.04355094
v 0.01250787 0.03697253 -0.02366846
v 0.01243596 0.03697253 -0.02416816
v 0.01176600 0.03726887 -0.02416816
v 0.01115316 0.03754515 -0.02332360
v 0.01115316 0.03755362 -0.02247905
v 0.00950043 0.03823303 0.04429696
v 0.00999342 0.03703671 0.04429696
v 0.00905339 0.03697253 0.04292456
v 0.00962029 0.03710773 0.04414916
v 0.00905659 0.03721753 0.04388876
v 0.00905339 0.03737062 0.04429696
v 0.01235925 0.03697253 -0.02439337
v 0.01164095 0.03721466 -0.02466081
v 0.01115316 0.03745024 -0.02416816
v 0.00905339 0.03803583 -0.02207789
v 0.00905339 0.03803788 -0.02205677
v 0.00905339 0.03804430 -0.02197232
v 0.00909654 0.03805427 -0.02163450
v 0.00916246 0.03807120 -0.02078994
v 0.01030782 0.03761138 -0.02416816
v 0.00917484 0.03807571 -0.01994539
v 0.00905339 0.03836769 0.04429696
v 0.00969619 0.03713955 0.04429696
v 0.00905339 0.03697253 -0.02760267
v 0.01200689 0.03697253 -0.02497048
v 0.01198252 0.03697253 -0.02499863
v 0.01195576 0.03697253 -0.02502678
v 0.01156105 0.03697253 -0.02542795
v 0.01069134 0.03697253 -0.02626547
v 0.01078602 0.03721179 -0.02549129
v 0.01110163 0.03727256 -0.02497048
v 0.01030782 0.03744668 -0.02501975
v 0.00905339 0.03778277 -0.02416816
v 0.00905339 0.03806232 -0.02163450
v 0.00905339 0.03806601 -0.02155708
v 0.00905339 0.03809387 -0.02078994
v 0.00905339 0.03809892 -0.02062103
v 0.00905339 0.03810671 -0.01975537
v 0.00946208 0.03759336 -0.02501975
v 0.00905339 0.03772583 -0.02461155
v 0.00905339 0.03712493 -0.02715224
v 0.00991232 0.03720291 -0.02631473
v 0.00932066 0.03697253 -0.02741265
v 0.01026787 0.03697253 -0.02664551
v 0.00946208 0.03740517 -0.02586430
v 0.00905339 0.03747741 -0.02586430
v 0.00905339 0.03764798 -0.02501975
v 0.00905339 0.03729100 -0.02663848
v 0.00946208 0.03724757 -0.02649068
v 0.00971976 0.03697253 -0.02711002
f 1 2 6
f 1 6 15
f 1 15 31
f 1 31 20
f 1 20 32
f 1 32 16
f 1 16 7
f 1 7 3
f 1 3 9
f 1 9 17
f 1 17 33
f 1 33 52
f 1 52 59
f 1 59 53
f 1 53 38
f 1 38 37
f 1 37 36
f 1 36 35
f 1 35 34
f 1 34 21
f 1 21 11
f 1 11 10
f 1 10 4
f 1 4 5
f 1 5 2
f 2 5 6
f 3 7 8
f 3 8 9
f 4 10 5
f 5 10 11
f 5 11 12
f 5 12 13
f 5 13 14
f 5 14 6
f 6 14 15
f 7 16 8
f 8 17 9
f 8 16 18
f 8 18 19
f 8 19 20
f 8 20 31
f 8 31 47
f 8 47 46
f 8 46 45
f 8 45 44
f 8 44 43
f 8 43 26
f 8 26 25
f 8 25 24
f 8 24 42
f 8 42 49
f 8 49 56
f 8 56 55
f 8 55 57
f 8 57 50
f 8 50 33
f 8 33 17
f 11 21 12
f 12 21 22
f 12 22 23
f 12 23 13
f 13 24 25
f 13 25 26
f 13 26 27
f 13 27 28
f 13 28 14
f 13 23 29
f 13 29 24
f 14 28 30
f 14 30 31
f 14 31 15
f 16 32 18
f 18 20 19
f 18 32 20
f 21 34 22
f 22 34 35
f 22 35 36
f 22 36 37
f 22 37 38
f 22 38 39
f 22 39 40
f 22 40 23
f 23 40 41
f 23 41 29
f 24 29 42
f 26 43 27
f 27 43 44
f 27 44 45
f 27 45 28
f 28 45 46
f 28 46 47
f 28 47 30
f 29 41 48
f 29 48 49
f 29 49 42
f 30 47 31
f 33 50 51
f 33 51 52
f 38 53 51
f 38 51 39
f 39 41 40
f 39 51 41
f 41 51 54
f 41 54 55
f 41 55 48
f 48 56 49
f 48 55 56
f 50 57 58
f 50 58 51
f 51 53 59
f 51 59 52
f 51 58 54
f 54 58 57
f 54 57 55

