# https://github.com/mikedh/trimesh
v -0.02877226 0.03253461 -0.00978478
v -0.03352615 0.02685761 -0.00934823
v -0.03352499 0.02685761 -0.00978478
v -0.03010936 0.03253461 -0.00978478
v -0.02887502 0.03253461 0.00819511
v -0.03358537 0.02685761 0.00819511
v -0.03463508 0.02685761 -0.00978478
v -0.03062145 0.03203171 -0.00978478
v -0.03012097 0.03253461 -0.00726049
v -0.03014071 0.03253461 0.00819511
v -0.03470301 0.02685761 0.00819511
v -0.03464495 0.02685761 -0.00726049
v -0.03463043 0.02686428 -0.00978478
v -0.03013839 0.03253461 -0.00230695
v -0.03013781 0.03253461 -0.00303044
v -0.03013607 0.03253461 -0.00387716
v -0.03102670 0.03160938 -0.00978478
v -0.03102960 0.03161271 0.00373270
v -0.03103018 0.03161327 0.00626932
v -0.03103076 0.03161327 0.00796099
v -0.03103076 0.03161327 0.00819511
v -0.03014071 0.03253461 0.00615138
v -0.03433085 0.02737941 0.00819511
v -0.03469720 0.02685761 0.00637670
v -0.03465540 0.02685761 -0.00457600
v -0.03298155 0.02921432 -0.00049558
v -0.03297168 0.02920043 -0.00556882
v -0.03296820 0.02919598 -0.00726049
v -0.03296646 0.02919376 -0.00810544
v -0.03326837 0.02876810 -0.00895039
v -0.03326662 0.02876588 -0.00978478
v -0.03467456 0.02685761 0.00034937
v -0.03432562 0.02737219 0.00542437
v -0.03013956 0.03253461 0.00192133
v -0.03144937 0.03116149 -0.00978478
v -0.03144995 0.03116260 -0.00810544
v -0.03145053 0.03116371 -0.00556882
v -0.03145285 0.03116649 0.00457941
v -0.03145343 0.03116704 0.00711603
v -0.03133616 0.03129096 0.00819511
v -0.03308257 0.02912041 0.00819511
v -0.03469140 0.02685761 0.00469031
v -0.03255540 0.02979892 -0.00218549
v -0.03254553 0.02978502 -0.00726049
v -0.03329798 0.02880978 0.00626932
v -0.03257514 0.02982615 0.00796099
v -0.03224130 0.03019513 -0.00978478
v -0.03295775 0.02919654 -0.00978478
v -0.03181456 0.03073860 -0.00978478
v -0.03181747 0.03074027 -0.00810544
v -0.03181921 0.03074027 -0.00726049
v -0.03183895 0.03074416 0.00711603
v -0.03184011 0.03074416 0.00796099
v -0.03156142 0.03104979 0.00819511
v -0.03145343 0.03116704 0.00819511
v -0.03288111 0.02940104 0.00819511
v -0.03223898 0.03020291 -0.00895039
v -0.03257514 0.02982670 0.00819511
v -0.03234987 0.03013234 0.00819511
v -0.03226336 0.03024959 0.00819511
v -0.03224188 0.03020791 -0.00726049
v -0.03223723 0.03020069 -0.00978478
v -0.03184011 0.03074416 0.00819511
f 1 2 3
f 1 3 7
f 1 7 13
f 1 13 31
f 1 31 48
f 1 48 47
f 1 47 62
f 1 62 49
f 1 49 35
f 1 35 17
f 1 17 8
f 1 8 4
f 1 4 9
f 1 9 16
f 1 16 15
f 1 15 14
f 1 14 34
f 1 34 22
f 1 22 10
f 1 10 5
f 1 5 6
f 1 6 2
f 2 6 11
f 2 11 24
f 2 24 42
f 2 42 32
f 2 32 25
f 2 25 12
f 2 12 7
f 2 7 3
f 4 8 9
f 5 10 21
f 5 21 40
f 5 40 55
f 5 55 54
f 5 54 63
f 5 63 60
f 5 60 59
f 5 59 58
f 5 58 56
f 5 56 41
f 5 41 23
f 5 23 11
f 5 11 6
f 7 12 13
f 8 14 15
f 8 15 16
f 8 16 9
f 8 17 18
f 8 18 19
f 8 19 20
f 8 20 14
f 10 22 20
f 10 20 21
f 11 23 24
f 12 25 13
f 13 26 27
f 13 27 28
f 13 28 29
f 13 29 30
f 13 30 31
f 13 25 32
f 13 32 33
f 13 33 26
f 14 20 34
f 17 35 36
f 17 36 37
f 17 37 38
f 17 38 18
f 18 38 39
f 18 39 19
f 19 39 20
f 20 39 40
f 20 40 21
f 20 22 34
f 23 41 33
f 23 33 42
f 23 42 24
f 26 43 44
f 26 44 27
f 26 33 45
f 26 45 41
f 26 41 46
f 26 46 43
f 27 44 47
f 27 47 28
f 28 47 29
f 29 47 48
f 29 48 31
f 29 31 30
f 32 42 33
f 33 41 45
f 35 49 50
f 35 50 51
f 35 51 52
f 35 52 53
f 35 53 36
f 36 53 37
f 37 53 54
f 37 54 38
f 38 54 39
f 39 54 55
f 39 55 40
f 41 56 46
f 43 57 47
f 43 47 44
f 43 46 57
f 46 56 58
f 46 58 59
f 46 59 60
f 46 60 61
f 46 61 57
f 47 57 62
f 49 62 57
f 49 57 61
f 49 61 60
f 49 60 50
f 50 60 51
f 51 60 52
f 52 60 53
f 53 60 63
f 53 63 54

