# https://github.com/mikedh/trimesh
v -0.01444177 -0.03479122 0.04432925
v -0.01500228 -0.03452773 0.04432925
v -0.01444177 -0.03575475 0.04432925
v -0.01444177 -0.03523782 -0.01994265
v -0.01596326 -0.03452681 -0.02775350
v -0.02157264 -0.03180197 -0.02775350
v -0.01684955 -0.03370484 0.04432220
v -0.01684884 -0.03370530 0.04432925
v -0.01484508 -0.03562324 0.04432925
v -0.01444177 -0.03582644 0.04347549
v -0.01444177 -0.03524421 -0.02078230
v -0.01444177 -0.03525380 -0.02162900
v -0.01444177 -0.03526431 -0.02247571
v -0.01563890 -0.03469806 -0.02775350
v -0.02157264 -0.03299109 -0.02775350
v -0.02170850 -0.03175357 -0.01118632
v -0.02122125 -0.03185905 0.04432220
v -0.02098367 -0.03194490 0.04432220
v -0.02098509 -0.03194445 0.04432925
v -0.02072191 -0.03306781 0.04432925
v -0.01490198 -0.03566433 0.04347549
v -0.01444177 -0.03596892 0.04094244
v -0.01444177 -0.03527618 -0.02332241
v -0.01554003 -0.03475057 -0.02775350
v -0.02148728 -0.03305594 -0.02775350
v -0.02157264 -0.03299109 -0.02737954
v -0.02170850 -0.03287191 -0.01118632
v -0.02170850 -0.03177138 0.00710955
v -0.02122125 -0.03185905 0.04432925
v -0.02122125 -0.03281345 0.04432925
v -0.02072191 -0.03306827 0.04432220
v -0.01444177 -0.03605660 0.03926314
v -0.01444177 -0.03601367 0.04009573
v -0.01444177 -0.03529125 -0.02416912
v -0.01444177 -0.03532321 -0.02586253
v -0.01444177 -0.03535701 -0.02754888
v -0.01444177 -0.03536112 -0.02773939
v -0.01444177 -0.03536157 -0.02775350
v -0.02098296 -0.03331760 -0.02775350
v -0.02148728 -0.03305594 -0.02754888
v -0.02170850 -0.03286871 -0.00758783
v -0.02170850 -0.03287191 -0.01098170
v -0.02170850 -0.03283172 0.00710955
v -0.02082149 -0.03311074 0.04178914
v -0.02122125 -0.03291164 0.04094244
v -0.02084710 -0.03312489 0.04094244
v -0.01444177 -0.03614975 0.03670892
v -0.01444177 -0.03612007 0.03755562
v -0.01444177 -0.03608948 0.03840233
v -0.01444177 -0.03641872 -0.02775350
v -0.02020977 -0.03368612 -0.02586253
v -0.02021119 -0.03368612 -0.02501582
v -0.01980077 -0.03388750 -0.01656289
v -0.02098296 -0.03331760 -0.02754888
v -0.02098296 -0.03331669 -0.02586253
v -0.02098296 -0.03331531 -0.02501582
v -0.02148443 -0.03305183 -0.02501582
v -0.02170850 -0.03284268 0.00517624
v -0.02170850 -0.03286186 -0.00333314
v -0.02170850 -0.03286506 -0.00503360
v -0.02170850 -0.03286643 -0.00588030
v -0.02170850 -0.03283857 0.00615701
v -0.02122125 -0.03293492 0.03910086
v -0.02122125 -0.03292762 0.03996167
v -0.02122125 -0.03291438 0.04083660
v -0.02086275 -0.03313905 0.04009573
v -0.01444177 -0.03631278 0.03078904
v -0.01444177 -0.03617396 0.03586221
v -0.01804739 -0.03470080 0.00626990
v -0.01444177 -0.03631872 0.02994234
v -0.01585372 -0.03570772 0.02825598
v -0.01979792 -0.03388704 -0.01570913
v -0.02098296 -0.03330892 -0.02247571
v -0.02145811 -0.03302900 -0.01118632
v -0.02170850 -0.03284177 0.00542320
v -0.02144816 -0.03302214 -0.00725620
v -0.02143820 -0.03301667 -0.00387644
v -0.02140832 -0.03300068 0.00542320
v -0.02087840 -0.03316097 0.03755562
v -0.02087626 -0.03315823 0.03840233
v -0.02087129 -0.03315138 0.03924903
v -0.01582811 -0.03570680 0.02910269
v -0.01758077 -0.03489350 0.01980306
v -0.01804455 -0.03469988 0.00712366
v -0.01921038 -0.03401628 0.03417586
v -0.01754592 -0.03487113 0.02994234
v -0.01754947 -0.03487752 0.02910269
v -0.01755232 -0.03487935 0.02825598
v -0.01979294 -0.03388476 -0.01402278
v -0.02098296 -0.03330664 -0.02162900
v -0.01977943 -0.03387837 -0.00979631
v -0.02098296 -0.03330390 -0.02078230
v -0.02098296 -0.03329020 -0.01656289
v -0.02096304 -0.03320389 0.01218977
v -0.02088693 -0.03316554 0.03502256
v -0.01921394 -0.03401993 0.03332916
v -0.01803601 -0.03469623 0.00964966
v -0.01923883 -0.03403317 0.02571587
v -0.01921607 -0.03402176 0.03248245
f 1 2 8
f 1 8 19
f 1 19 29
f 1 29 30
f 1 30 20
f 1 20 9
f 1 9 3
f 1 3 10
f 1 10 22
f 1 22 33
f 1 33 32
f 1 32 49
f 1 49 48
f 1 48 47
f 1 47 68
f 1 68 67
f 1 67 70
f 1 70 50
f 1 50 38
f 1 38 37
f 1 37 36
f 1 36 35
f 1 35 34
f 1 34 23
f 1 23 13
f 1 13 12
f 1 12 11
f 1 11 4
f 1 4 5
f 1 5 6
f 1 6 2
f 2 7 8
f 2 6 7
f 3 9 10
f 4 11 5
f 5 11 12
f 5 12 13
f 5 13 14
f 5 14 24
f 5 24 38
f 5 38 50
f 5 50 39
f 5 39 25
f 5 25 15
f 5 15 6
f 6 15 27
f 6 27 16
f 6 16 17
f 6 17 18
f 6 18 7
f 7 18 19
f 7 19 8
f 9 20 21
f 9 21 10
f 10 21 22
f 13 23 24
f 13 24 14
f 15 25 40
f 15 40 26
f 15 26 42
f 15 42 27
f 16 27 42
f 16 42 41
f 16 41 61
f 16 61 60
f 16 60 59
f 16 59 58
f 16 58 75
f 16 75 62
f 16 62 43
f 16 43 28
f 16 28 29
f 16 29 17
f 17 29 18
f 18 29 19
f 20 30 31
f 20 31 21
f 21 31 32
f 21 32 33
f 21 33 22
f 23 34 24
f 24 34 35
f 24 35 36
f 24 36 37
f 24 37 38
f 25 39 54
f 25 54 40
f 26 40 41
f 26 41 42
f 28 43 30
f 28 30 29
f 30 44 31
f 30 43 45
f 30 45 46
f 30 46 44
f 31 44 47
f 31 47 48
f 31 48 49
f 31 49 32
f 39 50 51
f 39 51 52
f 39 52 53
f 39 53 54
f 40 54 55
f 40 55 56
f 40 56 57
f 40 57 58
f 40 58 59
f 40 59 60
f 40 60 61
f 40 61 41
f 43 62 63
f 43 63 64
f 43 64 65
f 43 65 45
f 44 46 47
f 45 65 66
f 45 66 46
f 46 66 67
f 46 67 68
f 46 68 47
f 50 69 53
f 50 53 51
f 50 70 71
f 50 71 69
f 51 53 52
f 53 56 55
f 53 55 54
f 53 69 72
f 53 72 56
f 56 72 73
f 56 73 57
f 57 73 74
f 57 74 58
f 58 74 76
f 58 76 77
f 58 77 78
f 58 78 75
f 62 75 79
f 62 79 80
f 62 80 63
f 63 80 64
f 64 80 81
f 64 81 65
f 65 81 66
f 66 81 82
f 66 82 67
f 67 82 71
f 67 71 70
f 69 71 83
f 69 83 84
f 69 84 72
f 71 82 81
f 71 81 85
f 71 85 86
f 71 86 87
f 71 87 88
f 71 88 83
f 72 84 89
f 72 89 90
f 72 90 73
f 73 90 74
f 74 90 76
f 75 78 79
f 76 90 77
f 77 91 78
f 77 90 92
f 77 92 93
f 77 93 91
f 78 91 94
f 78 94 95
f 78 95 79
f 79 95 96
f 79 96 80
f 80 96 87
f 80 87 85
f 80 85 81
f 83 97 84
f 83 88 98
f 83 98 91
f 83 91 97
f 84 97 91
f 84 91 89
f 85 87 86
f 87 96 88
f 88 96 99
f 88 99 98
f 89 91 90
f 90 91 92
f 91 93 92
f 91 98 94
f 94 98 95
f 95 98 99
f 95 99 96

