# https://github.com/mikedh/trimesh
v 0.05721096 -0.01322800 0.01403623
v 0.05711760 -0.01317134 0.01403623
v 0.05721096 -0.01560501 0.01403623
v 0.05721096 -0.01234467 0.01232330
v 0.05549600 -0.01298678 0.01403623
v 0.05713983 -0.01237729 0.01245895
v 0.05660411 -0.01184077 0.01191025
v 0.04777258 -0.01900270 0.01403623
v 0.04868730 -0.01900270 -0.00345553
v 0.04865729 -0.01900270 -0.00453067
v 0.04847502 -0.01900270 -0.00664450
v 0.05721096 -0.01385895 -0.00664450
v 0.05721096 -0.01169311 0.01081486
v 0.05539375 -0.01298334 0.01403623
v 0.05583277 -0.01184077 0.01191025
v 0.05713983 -0.01163817 0.01074804
v 0.05709537 -0.01123986 0.00904119
v 0.05539820 -0.01120037 0.00904119
v 0.04585645 -0.01900270 0.01403623
v 0.04676784 -0.01900270 -0.00664450
v 0.05721096 -0.01166479 -0.00664450
v 0.05721096 -0.01165620 0.01070552
v 0.05382328 -0.01343660 0.01403623
v 0.05532039 -0.01161843 0.01081284
v 0.05418783 -0.01184506 0.01029855
v 0.05266849 -0.01361773 0.01344905
v 0.05379883 -0.01344432 0.01403623
v 0.05721096 -0.01128793 0.00904119
v 0.05721096 -0.01023721 0.00188574
v 0.05709537 -0.01023292 0.00193231
v 0.05370214 -0.01140725 0.00734445
v 0.05224170 -0.01181158 0.00734445
v 0.05258735 -0.01189914 0.00850058
v 0.05365434 -0.01170342 0.00905738
v 0.05608618 -0.01023978 0.00193434
v 0.04592981 -0.01802065 0.01403623
v 0.04588646 -0.01900270 0.01133927
v 0.04665336 -0.01664801 -0.00664450
v 0.04637550 -0.01900270 -0.00107443
v 0.05721096 -0.01160813 -0.00635091
v 0.05708537 -0.01163131 -0.00664450
v 0.05709537 -0.01034022 -0.00003574
v 0.04776369 -0.01368555 0.00819484
v 0.04938751 -0.01365636 0.00997459
v 0.05101244 -0.01362717 0.01175232
v 0.04896516 -0.01518352 0.01380743
v 0.05206387 -0.01343832 0.01236581
v 0.04955312 -0.01505303 0.01403623
v 0.05375660 -0.01345978 0.01403623
v 0.05721096 -0.01023721 0.00085717
v 0.05709537 -0.01023292 0.00081263
v 0.05096131 -0.01193691 0.00532376
v 0.05117360 -0.01201417 0.00645559
v 0.04861284 -0.01275758 0.00564772
v 0.04861284 -0.01309408 0.00734445
v 0.05608618 -0.01023978 0.00086122
v 0.05200496 -0.01152486 0.00225627
v 0.05084239 -0.01189313 0.00395098
v 0.05200496 -0.01154546 0.00395098
v 0.04593759 -0.01792107 0.01403623
v 0.04591314 -0.01900270 0.00977617
v 0.04665336 -0.01623081 -0.00664450
v 0.04629437 -0.01900270 0.00055954
v 0.05721096 -0.01038572 0.00000881
v 0.05541042 -0.01166307 -0.00664450
v 0.04759253 -0.01353704 0.00734445
v 0.04747360 -0.01521184 0.01207020
v 0.04783483 -0.01541873 0.01320203
v 0.04834053 -0.01553547 0.01403623
v 0.04873065 -0.01537237 0.01403623
v 0.04737913 -0.01332157 0.00564772
v 0.04861284 -0.01270864 0.00395098
v 0.04734357 -0.01327865 0.00395098
v 0.05370214 -0.01143215 -0.00283393
v 0.05229727 -0.01182360 -0.00283393
v 0.04861284 -0.01312069 -0.00453067
v 0.05186492 -0.01175921 -0.00113720
v 0.05200496 -0.01160899 0.00055954
v 0.05539820 -0.01159096 -0.00622740
v 0.05539820 -0.01130424 -0.00453067
v 0.05088907 -0.01189828 0.00225627
v 0.04604429 -0.01709182 0.01403623
v 0.04605985 -0.01706092 0.01308460
v 0.04597427 -0.01781720 0.01248527
v 0.04597760 -0.01818976 0.01073792
v 0.04595982 -0.01900270 0.00821914
v 0.04688454 -0.01453454 -0.00283393
v 0.04695456 -0.01453454 -0.00453067
v 0.04705237 -0.01494487 -0.00664450
v 0.04603873 -0.01900270 0.00625919
v 0.04601872 -0.01900270 0.00672893
v 0.05436567 -0.01194034 -0.00664450
v 0.04609319 -0.01699911 0.01403623
v 0.04700902 -0.01629862 0.01403623
v 0.04604984 -0.01704976 0.01403623
v 0.04740803 -0.01341514 -0.00113720
v 0.04738136 -0.01336964 0.00055954
v 0.04736024 -0.01332414 0.00225627
v 0.04861284 -0.01296703 -0.00283393
v 0.04744359 -0.01346149 -0.00283393
v 0.04685898 -0.01453454 0.00395098
v 0.04687454 -0.01453454 0.00564772
v 0.04687565 -0.01453454 -0.00113720
v 0.05422451 -0.01190257 -0.00622740
v 0.05262848 -0.01193004 -0.00401436
v 0.04863617 -0.01344518 -0.00617476
v 0.04764366 -0.01361429 -0.00557544
v 0.04752251 -0.01353103 -0.00453067
v 0.05030890 -0.01298334 -0.00622740
v 0.05111358 -0.01197468 -0.00057027
v 0.05102356 -0.01194378 0.00055954
v 0.04721242 -0.01447359 -0.00617476
v 0.04721797 -0.01460579 -0.00664450
v 0.05072680 -0.01295673 -0.00664450
v 0.04908297 -0.01342630 -0.00664450
v 0.04886847 -0.01349926 -0.00664450
v 0.04806267 -0.01385294 -0.00664450
f 1 2 5
f 1 5 14
f 1 14 23
f 1 23 27
f 1 27 49
f 1 49 48
f 1 48 70
f 1 70 69
f 1 69 94
f 1 94 93
f 1 93 95
f 1 95 82
f 1 82 60
f 1 60 36
f 1 36 19
f 1 19 8
f 1 8 3
f 1 3 12
f 1 12 21
f 1 21 40
f 1 40 64
f 1 64 50
f 1 50 29
f 1 29 28
f 1 28 22
f 1 22 13
f 1 13 4
f 1 4 2
f 2 4 6
f 2 6 7
f 2 7 5
f 3 8 9
f 3 9 10
f 3 10 11
f 3 11 12
f 4 13 7
f 4 7 6
f 5 7 14
f 7 15 14
f 7 13 16
f 7 16 17
f 7 17 18
f 7 18 15
f 8 19 37
f 8 37 61
f 8 61 86
f 8 86 91
f 8 91 90
f 8 90 63
f 8 63 39
f 8 39 20
f 8 20 11
f 8 11 10
f 8 10 9
f 11 20 38
f 11 38 62
f 11 62 89
f 11 89 113
f 11 113 117
f 11 117 116
f 11 116 115
f 11 115 114
f 11 114 92
f 11 92 65
f 11 65 41
f 11 41 21
f 11 21 12
f 13 22 16
f 14 15 23
f 15 18 24
f 15 24 25
f 15 25 26
f 15 26 27
f 15 27 23
f 16 22 17
f 17 22 28
f 17 28 29
f 17 29 30
f 17 30 18
f 18 31 32
f 18 32 33
f 18 33 34
f 18 34 24
f 18 30 35
f 18 35 31
f 19 36 37
f 20 39 38
f 21 41 42
f 21 42 40
f 24 34 25
f 25 34 33
f 25 33 43
f 25 43 44
f 25 44 45
f 25 45 46
f 25 46 47
f 25 47 26
f 26 47 46
f 26 46 48
f 26 48 49
f 26 49 27
f 29 50 51
f 29 51 30
f 30 51 56
f 30 56 35
f 31 52 32
f 31 35 52
f 32 52 53
f 32 53 33
f 33 53 54
f 33 54 55
f 33 55 43
f 35 56 57
f 35 57 58
f 35 58 59
f 35 59 52
f 36 60 37
f 37 60 61
f 38 39 62
f 39 63 62
f 40 42 64
f 41 65 42
f 42 56 51
f 42 51 50
f 42 50 64
f 42 65 56
f 43 55 66
f 43 66 67
f 43 67 68
f 43 68 44
f 44 68 45
f 45 68 46
f 46 68 69
f 46 69 70
f 46 70 48
f 52 59 58
f 52 58 54
f 52 54 53
f 54 71 66
f 54 66 55
f 54 58 72
f 54 72 73
f 54 73 71
f 56 74 75
f 56 75 76
f 56 76 77
f 56 77 78
f 56 78 57
f 56 65 79
f 56 79 80
f 56 80 74
f 57 78 81
f 57 81 58
f 58 81 72
f 60 82 83
f 60 83 84
f 60 84 61
f 61 84 85
f 61 85 62
f 61 62 86
f 62 87 88
f 62 88 89
f 62 63 90
f 62 90 91
f 62 91 86
f 62 85 84
f 62 84 83
f 62 83 87
f 65 92 79
f 66 71 93
f 66 93 67
f 67 93 94
f 67 94 68
f 68 94 69
f 71 95 93
f 71 73 95
f 72 96 97
f 72 97 98
f 72 98 73
f 72 81 99
f 72 99 100
f 72 100 96
f 73 101 102
f 73 102 95
f 73 98 87
f 73 87 103
f 73 103 101
f 74 80 79
f 74 79 104
f 74 104 105
f 74 105 76
f 74 76 75
f 76 106 107
f 76 107 108
f 76 108 99
f 76 99 77
f 76 105 92
f 76 92 109
f 76 109 106
f 77 110 78
f 77 99 110
f 78 110 111
f 78 111 81
f 79 92 104
f 81 111 99
f 82 95 83
f 83 95 87
f 87 100 88
f 87 95 103
f 87 98 97
f 87 97 96
f 87 96 100
f 88 100 108
f 88 108 112
f 88 112 89
f 89 112 113
f 92 105 104
f 92 114 109
f 95 102 101
f 95 101 103
f 99 108 100
f 99 111 110
f 106 109 114
f 106 114 115
f 106 115 116
f 106 116 107
f 107 116 117
f 107 117 113
f 107 113 112
f 107 112 108

