# https://github.com/mikedh/trimesh
v 0.01553216 0.07709157 0.01593970
v 0.01297518 0.08387440 0.01595150
v 0.00788981 0.08387440 0.01598690
v 0.01553216 0.06691599 0.01593970
v 0.01553216 0.07878529 0.01593674
v 0.01553216 0.08303281 0.01592494
v 0.01553216 0.08387440 0.01592199
v 0.00958684 0.08557341 0.01590134
v 0.00788981 0.08557341 0.01591609
v -0.01365448 0.08047902 0.01593970
v -0.01365448 0.06691335 0.01593970
v -0.01246884 0.06691335 0.01593970
v 0.00279871 0.08726978 0.01587184
v 0.00110168 0.08726978 0.01587479
v -0.00230095 0.08726978 0.01587479
v -0.00907478 0.08726978 0.01587184
v -0.01246884 0.08726978 0.01586594
v -0.00738061 0.08550746 0.01591019
v 0.01553216 0.06521962 0.01580398
v 0.01297518 0.08557341 0.01585413
v 0.01128101 0.08557341 0.01588069
v 0.01553216 0.08557341 0.01580103
v 0.00577852 0.08726714 0.01584528
v 0.00449575 0.08726978 0.01585708
v -0.01365448 0.08726978 0.01583348
v -0.01365448 0.06590027 0.01560335
v -0.00228666 0.08896615 0.01581283
v -0.01365448 0.06548080 0.01545583
v 0.01553216 0.06402979 0.01532307
v 0.00788981 0.08726714 0.01581578
v 0.01553216 0.08733573 0.01541748
v 0.01467221 0.08726714 0.01552074
v 0.01297518 0.08726714 0.01564171
v 0.01128101 0.08726714 0.01572727
v 0.00958684 0.08726714 0.01578037
v -0.00398655 0.08896351 0.01575972
v -0.01365448 0.08766815 0.01569186
v -0.00058963 0.08896615 0.01578037
v -0.00228666 0.09021138 0.01537617
v -0.01365448 0.06502967 0.01453236
v -0.01365448 0.06486082 0.01412816
v 0.01553216 0.06367099 0.01413111
v 0.01553216 0.08819843 0.01507523
v 0.01467221 0.08825647 0.01514014
v 0.01297518 0.08836991 0.01524045
v 0.00110168 0.08896615 0.01569186
v 0.01128101 0.08847017 0.01530536
v -0.00398655 0.09013224 0.01532307
v -0.01365448 0.08851238 0.01537617
v -0.00058963 0.09016389 0.01534667
v -0.00228666 0.09061239 0.01412816
v -0.00230380 0.09021138 0.01537322
v -0.01365448 0.06482916 0.01294801
v -0.01365448 0.06481861 0.01243169
v 0.01553216 0.06366044 0.01243169
v 0.01553216 0.08829604 0.01412816
v 0.00397007 0.08985786 0.01503983
v 0.00279871 0.08993965 0.01513719
v 0.00110168 0.09005573 0.01525816
v -0.00398655 0.09045938 0.01412816
v -0.00568358 0.08999769 0.01520800
v -0.00703778 0.08989215 0.01508408
v -0.01365448 0.08866539 0.01498967
v -0.00058963 0.09052270 0.01412816
v -0.00058963 0.09050687 0.01243169
v -0.00230380 0.09058074 0.01243169
v -0.00398655 0.09044882 0.01243169
v -0.01365448 0.06481861 -0.01131594
v 0.01553216 0.06366044 -0.01131594
v 0.00411863 0.08987633 0.01412816
v 0.01553216 0.08829604 0.01243169
v 0.00110168 0.09029317 0.01412816
v -0.00568358 0.09020083 0.01412816
v -0.00568358 0.09021666 0.01073522
v -0.00568358 0.09022457 0.01243169
v -0.00732919 0.08993965 0.01412816
v -0.01365448 0.08892658 0.01412816
v 0.00406435 0.08987106 0.01243169
v 0.00249588 0.08988952 -0.00113417
v 0.00240446 0.08987369 -0.00283064
v 0.00122453 0.08990271 -0.00950440
v -0.00058963 0.08999241 -0.00961947
v -0.00200954 0.08988952 -0.00961947
v -0.00827198 0.08981829 0.00639816
v -0.01365448 0.06521962 -0.01301241
v 0.01553216 0.06392689 -0.01300946
v 0.01553216 0.06376332 -0.01214499
v 0.00788981 0.08934605 0.01243169
v 0.01553216 0.08826702 0.01073522
v 0.01467221 0.08836200 0.00903580
v 0.01297518 0.08857306 0.00734228
v 0.00788981 0.08927218 0.00734228
v -0.00754631 0.08992910 0.01254971
v -0.00738061 0.08997658 0.00903875
v -0.00839197 0.08983939 0.00903875
v -0.00836055 0.08983148 0.00733933
v -0.00738061 0.08997922 0.01073522
v -0.01365448 0.08895823 0.01243169
v -0.01365448 0.08893976 0.01361479
v 0.00958684 0.08896351 0.00224992
v 0.00958684 0.08893713 0.00056230
v 0.00229303 0.08985786 -0.00452711
v 0.00958684 0.08890811 -0.00113122
v 0.00449575 0.08943575 -0.01131594
v 0.00074171 0.08989479 -0.01072291
v -0.00058963 0.08990799 -0.01077897
v -0.00178098 0.08985786 -0.01062555
v -0.01365448 0.08890283 -0.00283064
v -0.01365448 0.08899253 -0.00113417
v -0.01365448 0.08905848 0.00056230
v -0.01365448 0.08841476 -0.01131594
v -0.01365448 0.08848335 -0.01013283
v 0.01553216 0.06426459 -0.01392998
v 0.01553216 0.06413531 -0.01367329
v -0.01365448 0.06584223 -0.01396833
v 0.01553216 0.08823536 0.00903580
v -0.01365448 0.08898989 0.01022185
v -0.01365448 0.08907959 0.00224992
v -0.01365448 0.08906376 0.00394639
v -0.01246884 0.08923525 0.00224992
v 0.00958684 0.08886589 -0.00283064
v 0.00577566 0.08922205 -0.01131594
v 0.01081818 0.08818788 -0.01250199
v 0.00950113 0.08827758 -0.01304486
v 0.00788981 0.08853084 -0.01300946
v 0.00619278 0.08875245 -0.01300946
v 0.00577566 0.08880258 -0.01301241
v 0.00449575 0.08895560 -0.01301241
v 0.00279871 0.08959932 -0.01131594
v 0.00788981 0.08898462 -0.00792005
v 0.00279871 0.08902419 -0.01301241
v -0.00058963 0.08962834 -0.01162868
v -0.01365448 0.08824064 -0.01261706
v -0.01365448 0.06691335 -0.01408045
v 0.01553216 0.06520115 -0.01402734
v 0.01553216 0.08818788 0.00734228
v 0.00619278 0.08914819 -0.01131299
v 0.00788981 0.08884215 -0.01131299
v 0.00958684 0.08852557 -0.01131299
v 0.01110674 0.08824064 -0.01131299
v 0.01553216 0.08740696 -0.01131299
v 0.01553216 0.08724340 -0.01217155
v 0.01553216 0.08703234 -0.01300946
v 0.00887831 0.08813247 -0.01387687
v 0.00788981 0.08818260 -0.01391227
v 0.00577852 0.08842004 -0.01371460
v 0.00577566 0.08826438 -0.01394473
v 0.01553216 0.08814039 0.00610312
v 0.01431509 0.08820898 0.00224992
v 0.01220095 0.08812984 -0.00909430
v -0.00398655 0.08820634 -0.01391817
v -0.00568358 0.08817996 -0.01390637
v -0.00738061 0.08815094 -0.01388572
v -0.00844911 0.08812720 -0.01387097
v -0.00058963 0.08891866 -0.01301241
v 0.00449575 0.08830396 -0.01394473
v 0.00279871 0.08831979 -0.01394473
v -0.01246884 0.08828549 -0.01274687
v -0.00958046 0.08799001 -0.01382376
v -0.01365448 0.08804277 -0.01287669
v -0.01365448 0.08047902 -0.01415125
v -0.00398655 0.07878266 -0.01415420
v -0.01077181 0.06691335 -0.01408045
v 0.01553216 0.06605593 -0.01407454
v 0.01553216 0.08682920 -0.01347562
v 0.01553216 0.08655219 -0.01394178
v 0.00619278 0.08824592 -0.01394178
v 0.00577566 0.08752041 -0.01401554
v 0.00110168 0.08828549 -0.01394178
v -0.00058963 0.08825383 -0.01393588
v -0.00058963 0.08726978 -0.01403324
v -0.00230095 0.08726978 -0.01402144
v -0.00398655 0.08726978 -0.01400669
v -0.00568358 0.08726978 -0.01398898
v -0.01365448 0.08669465 -0.01390932
v 0.00577566 0.08726978 -0.01403914
v 0.00449575 0.08726978 -0.01404209
v 0.00279871 0.08726978 -0.01404209
v 0.00110168 0.08726978 -0.01403914
v -0.01246884 0.08762594 -0.01359658
v -0.01365448 0.08754151 -0.01346677
v -0.01365448 0.08217539 -0.01410110
v -0.01246884 0.08217539 -0.01411290
v -0.01077181 0.08217539 -0.01412175
v -0.00568358 0.08387440 -0.01409815
v -0.01077181 0.08047902 -0.01415125
v -0.00230380 0.07879849 -0.01415125
v 0.00958684 0.07709157 -0.01413945
v 0.01553216 0.06691599 -0.01408045
v 0.01553216 0.08607203 -0.01399193
v 0.01553216 0.08557341 -0.01404209
v 0.00619278 0.08726714 -0.01403324
v -0.00230095 0.08558396 -0.01406864
v -0.00738061 0.08387440 -0.01409225
v -0.01077181 0.08387440 -0.01407159
v -0.00738061 0.08550746 -0.01404209
v -0.01261455 0.08551009 -0.01399783
v -0.01365448 0.08551009 -0.01398898
v -0.01365448 0.08557341 -0.01398603
v 0.01467221 0.08557341 -0.01405094
v 0.01467221 0.08442315 -0.01406864
v 0.00279871 0.08557077 -0.01406864
v -0.00230380 0.08387440 -0.01409815
v -0.00058963 0.08557077 -0.01407159
v -0.01246884 0.08387440 -0.01405684
v 0.00279871 0.08217803 -0.01411290
v -0.00230095 0.08049486 -0.01413650
v 0.01467221 0.08048166 -0.01410405
v 0.01553216 0.07709157 -0.01412765
v 0.01128101 0.08217275 -0.01409815
v 0.01553216 0.08471335 -0.01405979
v 0.01553216 0.08442315 -0.01406569
v 0.01467221 0.08387440 -0.01407454
v 0.01128101 0.08387440 -0.01408045
v 0.01242379 0.08442315 -0.01407159
v 0.00788981 0.08442315 -0.01407749
v 0.00449575 0.08387440 -0.01408930
v 0.00449575 0.08217803 -0.01410995
v 0.01553216 0.08217275 -0.01408930
v 0.01553216 0.08387440 -0.01407159
f 1 2 3
f 1 3 4
f 1 4 19
f 1 19 29
f 1 29 42
f 1 42 55
f 1 55 69
f 1 69 87
f 1 87 86
f 1 86 114
f 1 114 113
f 1 113 135
f 1 135 164
f 1 164 189
f 1 189 209
f 1 209 219
f 1 219 220
f 1 220 212
f 1 212 211
f 1 211 191
f 1 191 190
f 1 190 166
f 1 166 165
f 1 165 143
f 1 143 142
f 1 142 141
f 1 141 148
f 1 148 136
f 1 136 116
f 1 116 89
f 1 89 71
f 1 71 56
f 1 56 43
f 1 43 31
f 1 31 22
f 1 22 7
f 1 7 6
f 1 6 5
f 1 5 2
f 2 5 6
f 2 6 7
f 2 7 8
f 2 8 9
f 2 9 3
f 3 10 11
f 3 11 12
f 3 12 4
f 3 9 13
f 3 13 14
f 3 14 15
f 3 15 16
f 3 16 17
f 3 17 18
f 3 18 10
f 4 12 19
f 7 20 21
f 7 21 8
f 7 22 20
f 8 21 23
f 8 23 24
f 8 24 13
f 8 13 9
f 10 18 17
f 10 17 25
f 10 25 37
f 10 37 49
f 10 49 63
f 10 63 77
f 10 77 99
f 10 99 98
f 10 98 117
f 10 117 119
f 10 119 118
f 10 118 110
f 10 110 109
f 10 109 108
f 10 108 112
f 10 112 111
f 10 111 133
f 10 133 160
f 10 160 181
f 10 181 175
f 10 175 199
f 10 199 198
f 10 198 182
f 10 182 161
f 10 161 134
f 10 134 115
f 10 115 85
f 10 85 68
f 10 68 54
f 10 54 53
f 10 53 41
f 10 41 40
f 10 40 28
f 10 28 26
f 10 26 11
f 11 26 19
f 11 19 12
f 13 24 27
f 13 27 14
f 14 27 15
f 15 27 16
f 16 27 17
f 17 27 25
f 19 26 28
f 19 28 29
f 20 22 30
f 20 30 21
f 21 30 23
f 22 31 32
f 22 32 33
f 22 33 34
f 22 34 35
f 22 35 30
f 23 30 27
f 23 27 24
f 25 27 36
f 25 36 37
f 27 30 38
f 27 38 39
f 27 39 36
f 28 40 29
f 29 40 41
f 29 41 42
f 30 35 38
f 31 43 44
f 31 44 32
f 32 44 45
f 32 45 33
f 33 46 38
f 33 38 34
f 33 45 47
f 33 47 46
f 34 38 35
f 36 39 48
f 36 48 37
f 37 48 49
f 38 46 50
f 38 50 39
f 39 50 51
f 39 51 52
f 39 52 48
f 41 53 42
f 42 53 54
f 42 54 55
f 43 56 57
f 43 57 58
f 43 58 44
f 44 58 59
f 44 59 45
f 45 59 50
f 45 50 47
f 46 47 50
f 48 52 51
f 48 51 60
f 48 60 61
f 48 61 49
f 49 61 62
f 49 62 63
f 50 59 64
f 50 64 51
f 51 64 65
f 51 65 66
f 51 66 67
f 51 67 60
f 54 68 69
f 54 69 55
f 56 70 57
f 56 71 70
f 57 70 72
f 57 72 64
f 57 64 58
f 58 64 59
f 60 73 62
f 60 62 61
f 60 67 74
f 60 74 75
f 60 75 73
f 62 73 76
f 62 76 77
f 62 77 63
f 64 72 65
f 65 78 79
f 65 79 80
f 65 80 81
f 65 81 82
f 65 82 66
f 65 72 78
f 66 82 83
f 66 83 67
f 67 83 84
f 67 84 74
f 68 85 86
f 68 86 87
f 68 87 69
f 70 71 72
f 71 88 72
f 71 89 90
f 71 90 91
f 71 91 92
f 71 92 88
f 72 88 78
f 73 75 93
f 73 93 76
f 74 94 95
f 74 95 75
f 74 84 96
f 74 96 94
f 75 95 97
f 75 97 93
f 76 93 98
f 76 98 99
f 76 99 77
f 78 88 79
f 79 92 91
f 79 91 100
f 79 100 101
f 79 101 80
f 79 88 92
f 80 102 81
f 80 101 103
f 80 103 104
f 80 104 102
f 81 102 104
f 81 104 105
f 81 105 82
f 82 105 106
f 82 106 107
f 82 107 83
f 83 108 109
f 83 109 110
f 83 110 84
f 83 107 111
f 83 111 112
f 83 112 108
f 84 110 96
f 85 113 114
f 85 114 86
f 85 115 113
f 89 116 90
f 90 116 103
f 90 103 101
f 90 101 91
f 91 101 100
f 93 97 117
f 93 117 98
f 94 96 118
f 94 118 95
f 95 119 117
f 95 117 97
f 95 118 119
f 96 110 120
f 96 120 118
f 103 116 121
f 103 121 104
f 104 122 123
f 104 123 124
f 104 124 125
f 104 125 126
f 104 126 127
f 104 127 128
f 104 128 129
f 104 129 105
f 104 121 130
f 104 130 122
f 105 129 128
f 105 128 131
f 105 131 132
f 105 132 106
f 106 132 133
f 106 133 107
f 107 133 111
f 110 118 120
f 113 115 134
f 113 134 135
f 116 136 121
f 121 136 130
f 122 137 123
f 122 130 137
f 123 137 138
f 123 138 139
f 123 139 140
f 123 140 141
f 123 141 142
f 123 142 143
f 123 143 144
f 123 144 124
f 124 144 125
f 125 144 126
f 126 144 127
f 127 144 128
f 128 144 145
f 128 145 146
f 128 146 147
f 128 147 131
f 130 136 148
f 130 148 149
f 130 149 150
f 130 150 139
f 130 139 138
f 130 138 137
f 131 151 152
f 131 152 153
f 131 153 154
f 131 154 155
f 131 155 132
f 131 147 156
f 131 156 157
f 131 157 151
f 132 158 133
f 132 155 154
f 132 154 158
f 133 158 154
f 133 154 159
f 133 159 160
f 134 161 162
f 134 162 163
f 134 163 164
f 134 164 135
f 139 150 140
f 140 150 141
f 141 150 149
f 141 149 148
f 143 165 144
f 144 166 145
f 144 165 166
f 145 166 167
f 145 167 146
f 146 167 147
f 147 168 156
f 147 167 168
f 151 157 169
f 151 169 170
f 151 170 171
f 151 171 172
f 151 172 152
f 152 172 173
f 152 173 174
f 152 174 153
f 153 174 154
f 154 174 175
f 154 175 159
f 156 168 176
f 156 176 177
f 156 177 157
f 157 177 178
f 157 178 179
f 157 179 171
f 157 171 169
f 159 175 180
f 159 180 181
f 159 181 160
f 161 182 183
f 161 183 184
f 161 184 185
f 161 185 203
f 161 203 186
f 161 186 162
f 162 186 187
f 162 187 188
f 162 188 189
f 162 189 163
f 163 189 164
f 166 190 167
f 167 190 191
f 167 191 192
f 167 192 176
f 167 176 168
f 169 171 170
f 171 179 193
f 171 193 194
f 171 194 183
f 171 183 195
f 171 195 172
f 172 195 196
f 172 196 197
f 172 197 198
f 172 198 173
f 173 198 199
f 173 199 174
f 174 199 175
f 175 181 180
f 176 191 200
f 176 200 177
f 176 192 191
f 177 200 201
f 177 201 202
f 177 202 203
f 177 203 204
f 177 204 178
f 178 204 193
f 178 193 179
f 182 198 205
f 182 205 183
f 183 205 195
f 183 194 184
f 184 194 193
f 184 193 185
f 185 204 203
f 185 193 204
f 186 203 206
f 186 206 207
f 186 207 187
f 187 208 209
f 187 209 188
f 187 207 210
f 187 210 208
f 188 209 189
f 191 211 200
f 195 205 198
f 195 198 197
f 195 197 196
f 200 211 212
f 200 212 201
f 201 212 220
f 201 220 213
f 201 213 214
f 201 214 215
f 201 215 202
f 202 215 216
f 202 216 203
f 203 216 215
f 203 215 217
f 203 217 206
f 206 217 214
f 206 214 218
f 206 218 207
f 207 218 210
f 208 210 219
f 208 219 209
f 210 213 219
f 210 218 213
f 213 218 214
f 213 220 219
f 214 217 215

