# https://github.com/mikedh/trimesh
v 0.05255671 -0.04767134 0.01652458
v 0.05255671 -0.04767134 0.01537540
v 0.05075187 -0.04767134 0.01652458
v 0.05255671 -0.05572725 0.01652458
v 0.05232826 -0.04767134 0.00089363
v 0.05255671 -0.06243391 0.00094719
v 0.05075187 -0.04767134 0.00089363
v 0.04825113 -0.05575301 0.01369831
v 0.04943258 -0.05920838 0.01652458
v 0.05255671 -0.05691801 0.01579621
v 0.05041888 -0.06373958 0.01652458
v 0.05247326 -0.06239230 0.00089363
v 0.05255671 -0.06274101 0.00094719
v 0.05066082 -0.04846980 0.00089363
v 0.04825113 -0.05584217 0.01298064
v 0.04825113 -0.05575301 0.01315509
v 0.04825113 -0.05687640 0.01391253
v 0.04900097 -0.06304414 0.01652458
v 0.05255671 -0.06035554 0.01243436
v 0.04994639 -0.06531668 0.01652458
v 0.05247326 -0.06265978 0.00089363
v 0.05255671 -0.06326407 0.00108796
v 0.05051878 -0.06791217 0.00089363
v 0.04911478 -0.06204161 0.00089363
v 0.04872827 -0.06543556 0.00089363
v 0.04825113 -0.05855851 0.01068841
v 0.04825113 -0.06017326 0.01232419
v 0.04873712 -0.06543556 0.01413135
v 0.04897105 -0.06373958 0.01652458
v 0.05004249 -0.06552868 0.01593239
v 0.05255671 -0.06182367 0.01061649
v 0.04912742 -0.06531668 0.01652458
v 0.04977021 -0.06661640 0.01543661
v 0.05255671 -0.06327398 0.00109103
v 0.05255671 -0.06445482 0.00244678
v 0.05255671 -0.06455388 0.00278189
v 0.05255671 -0.06459747 0.00317668
v 0.05255671 -0.06459747 0.00350873
v 0.05029876 -0.06791217 0.00904039
v 0.04849602 -0.06791217 0.00089363
v 0.04825113 -0.06023468 0.01081389
v 0.04825113 -0.06024657 0.01208548
v 0.04853648 -0.06791217 0.00995851
v 0.04865450 -0.06713154 0.01243436
v 0.04904565 -0.06486495 0.01652458
v 0.04995356 -0.06716324 0.01411605
v 0.05255671 -0.06321256 0.00872517
v 0.04904734 -0.06552868 0.01593239
v 0.04901236 -0.06716324 0.01411605
v 0.04919570 -0.06661640 0.01543661
v 0.04973101 -0.06791217 0.01368606
v 0.05255671 -0.06422499 0.00564948
v 0.05023132 -0.06791217 0.01073738
v 0.04849602 -0.06791217 0.00147663
v 0.04868148 -0.06791217 0.01165549
v 0.05004375 -0.06791217 0.01236245
v 0.05255671 -0.06382874 0.00739696
v 0.04919275 -0.06791217 0.01368606
v 0.04906504 -0.06791217 0.01326373
v 0.05255671 -0.06411008 0.00626156
f 1 2 5
f 1 5 7
f 1 7 3
f 1 3 9
f 1 9 18
f 1 18 29
f 1 29 45
f 1 45 32
f 1 32 20
f 1 20 11
f 1 11 4
f 1 4 10
f 1 10 19
f 1 19 31
f 1 31 47
f 1 47 57
f 1 57 60
f 1 60 52
f 1 52 38
f 1 38 37
f 1 37 36
f 1 36 35
f 1 35 34
f 1 34 22
f 1 22 13
f 1 13 6
f 1 6 2
f 2 6 5
f 3 7 16
f 3 16 8
f 3 8 9
f 4 11 10
f 5 6 12
f 5 12 21
f 5 21 23
f 5 23 40
f 5 40 25
f 5 25 24
f 5 24 14
f 5 14 7
f 6 13 21
f 6 21 12
f 7 14 15
f 7 15 16
f 8 16 15
f 8 15 26
f 8 26 41
f 8 41 42
f 8 42 27
f 8 27 17
f 8 17 18
f 8 18 9
f 10 11 19
f 11 20 19
f 13 22 23
f 13 23 21
f 14 24 15
f 15 24 25
f 15 25 26
f 17 27 28
f 17 28 29
f 17 29 18
f 19 20 30
f 19 30 31
f 20 32 50
f 20 50 33
f 20 33 30
f 22 34 23
f 23 34 35
f 23 35 36
f 23 36 37
f 23 37 38
f 23 38 39
f 23 39 53
f 23 53 56
f 23 56 51
f 23 51 58
f 23 58 59
f 23 59 55
f 23 55 43
f 23 43 54
f 23 54 40
f 25 40 26
f 26 40 41
f 27 42 43
f 27 43 44
f 27 44 28
f 28 44 45
f 28 45 29
f 30 33 46
f 30 46 31
f 31 46 47
f 32 45 48
f 32 48 49
f 32 49 50
f 33 50 58
f 33 58 51
f 33 51 46
f 38 52 53
f 38 53 39
f 40 54 42
f 40 42 41
f 42 54 43
f 43 55 44
f 44 55 49
f 44 49 48
f 44 48 45
f 46 51 56
f 46 56 47
f 47 56 57
f 49 58 50
f 49 55 59
f 49 59 58
f 52 60 53
f 53 60 56
f 56 60 57

