# https://github.com/mikedh/trimesh
v 0.05721096 -0.06005961 -0.02330546
v 0.05234924 -0.06005961 -0.02784603
v 0.05721096 -0.06005961 -0.02436356
v 0.05721096 -0.05913931 -0.02436356
v 0.05721049 -0.04811754 -0.02940096
v 0.05720858 -0.04767255 -0.02948314
v 0.05234924 -0.04767255 -0.03108756
v 0.05234924 -0.06005961 -0.03005935
v 0.05721049 -0.06005961 -0.02721939
v 0.05721049 -0.05875009 -0.02837088
v 0.05721049 -0.05871129 -0.02840356
v 0.05721049 -0.05702105 -0.02962509
v 0.05721049 -0.05672640 -0.02981934
v 0.05721049 -0.05525441 -0.03040675
v 0.05721049 -0.05356053 -0.03089798
v 0.05721049 -0.05196364 -0.03126500
v 0.05721049 -0.05016791 -0.03155917
v 0.05721049 -0.04846553 -0.03173661
v 0.05721049 -0.04767255 -0.03179171
v 0.05721049 -0.04767255 -0.03076537
v 0.05234924 -0.04767255 -0.03284514
v 0.05370268 -0.05927390 -0.03064770
v 0.05376169 -0.06005961 -0.03005748
v 0.05234924 -0.05911506 -0.03060848
v 0.05673507 -0.06005961 -0.02773303
v 0.05666463 -0.05999413 -0.02786471
v 0.05719002 -0.05876100 -0.02838302
v 0.05658421 -0.05820204 -0.02947287
v 0.05601266 -0.05726112 -0.03060381
v 0.05644477 -0.05525441 -0.03096709
v 0.05625965 -0.05613106 -0.03084008
v 0.05680360 -0.05356053 -0.03117441
v 0.05709579 -0.05016791 -0.03160400
v 0.05709579 -0.04847039 -0.03177397
v 0.05709579 -0.04767255 -0.03182907
v 0.05274851 -0.04767255 -0.03280405
v 0.05308544 -0.04979203 -0.03257244
v 0.05234924 -0.04889113 -0.03271159
v 0.05370268 -0.05842514 -0.03113239
v 0.05488194 -0.05818748 -0.03104367
v 0.05485196 -0.06005961 -0.02957466
v 0.05234924 -0.05826751 -0.03103806
v 0.05654471 -0.06005961 -0.02793288
v 0.05611022 -0.05933210 -0.02899472
v 0.05503327 -0.06005961 -0.02945792
v 0.05497902 -0.06000747 -0.02955598
v 0.05549537 -0.05875979 -0.03007989
v 0.05542826 -0.05679794 -0.03113706
v 0.05539876 -0.05525441 -0.03142376
v 0.05539876 -0.05356053 -0.03166377
v 0.05362177 -0.04767255 -0.03266863
v 0.05340762 -0.04847039 -0.03263502
v 0.05234924 -0.04986720 -0.03259019
v 0.05370268 -0.05695193 -0.03157878
v 0.05234924 -0.05725021 -0.03136959
v 0.05580137 -0.06005961 -0.02868840
v 0.05234924 -0.05559877 -0.03170299
v 0.05234924 -0.05695193 -0.03145925
f 1 2 8
f 1 8 23
f 1 23 41
f 1 41 45
f 1 45 56
f 1 56 43
f 1 43 25
f 1 25 9
f 1 9 3
f 1 3 4
f 1 4 5
f 1 5 6
f 1 6 7
f 1 7 2
f 2 7 21
f 2 21 38
f 2 38 53
f 2 53 57
f 2 57 58
f 2 58 55
f 2 55 42
f 2 42 24
f 2 24 8
f 3 9 10
f 3 10 11
f 3 11 12
f 3 12 13
f 3 13 14
f 3 14 15
f 3 15 16
f 3 16 17
f 3 17 18
f 3 18 19
f 3 19 4
f 4 19 20
f 4 20 5
f 5 20 6
f 6 20 19
f 6 19 35
f 6 35 51
f 6 51 36
f 6 36 21
f 6 21 7
f 8 22 23
f 8 24 22
f 9 25 10
f 10 26 27
f 10 27 11
f 10 25 26
f 11 27 28
f 11 28 12
f 12 28 13
f 13 28 29
f 13 29 14
f 14 30 15
f 14 29 31
f 14 31 30
f 15 32 16
f 15 30 32
f 16 32 17
f 17 32 33
f 17 33 18
f 18 33 34
f 18 34 19
f 19 34 35
f 21 36 37
f 21 37 38
f 22 24 39
f 22 39 40
f 22 40 23
f 23 40 41
f 24 42 39
f 25 43 26
f 26 43 27
f 27 43 44
f 27 44 28
f 28 44 45
f 28 45 46
f 28 46 47
f 28 47 40
f 28 40 29
f 29 40 31
f 30 31 48
f 30 48 32
f 31 40 48
f 32 48 49
f 32 49 33
f 33 49 50
f 33 50 34
f 34 51 35
f 34 50 51
f 36 51 52
f 36 52 37
f 37 53 38
f 37 52 51
f 37 51 50
f 37 50 54
f 37 54 53
f 39 42 55
f 39 55 54
f 39 54 40
f 40 47 46
f 40 46 41
f 40 54 49
f 40 49 48
f 41 46 45
f 43 56 44
f 44 56 45
f 49 54 50
f 53 54 57
f 54 55 58
f 54 58 57

