# https://github.com/mikedh/trimesh
v 0.05200565 -0.04767134 0.03622921
v 0.05200565 -0.04677005 0.03615167
v 0.05110716 -0.04767134 0.03607013
v 0.05291784 -0.04767134 0.03600329
v 0.05362689 -0.04507524 0.03573861
v 0.05356146 -0.04337745 0.03568113
v 0.05346560 -0.04167965 0.03559824
v 0.05329215 -0.03998485 0.03548863
v 0.05307075 -0.03871524 0.03540040
v 0.05200565 -0.04507524 0.03598056
v 0.05266906 -0.03871524 0.03540040
v 0.05030910 -0.04767134 0.03590170
v 0.05200565 -0.04337745 0.03580144
v 0.05377677 -0.04767134 0.03577871
v 0.05679101 -0.04337745 0.03395534
v 0.05661146 -0.03998485 0.03388582
v 0.05539877 -0.03658926 0.03435370
v 0.05385360 -0.04685089 0.03570118
v 0.05539877 -0.03489445 0.03426012
v 0.05548625 -0.03336434 0.03407297
v 0.05370221 -0.03319666 0.03462506
v 0.05200565 -0.03489445 0.03447935
v 0.04943876 -0.03915841 0.03434568
v 0.05103793 -0.04225756 0.03538035
v 0.05030910 -0.04677005 0.03579342
v 0.05238833 -0.03998485 0.03548863
v 0.04943876 -0.04677005 0.03550868
v 0.04943876 -0.04767134 0.03558889
v 0.05438920 -0.04767134 0.03544853
v 0.05687545 -0.04507524 0.03398875
v 0.05721096 -0.04507524 0.03377888
v 0.05721096 -0.04337745 0.03368931
v 0.05721096 -0.04167965 0.03358237
v 0.05721096 -0.03998485 0.03346473
v 0.05651560 -0.03828705 0.03383235
v 0.05456114 -0.04747072 0.03534693
v 0.05640909 -0.03658926 0.03376284
v 0.05624780 -0.03404107 0.03364520
v 0.05611010 -0.03290920 0.03352222
v 0.05497881 -0.03181926 0.03398073
v 0.05630182 -0.03489445 0.03368530
v 0.05370221 -0.03160367 0.03407163
v 0.05243854 -0.03188514 0.03387780
v 0.05192577 -0.03317869 0.03406228
v 0.05016607 -0.03646649 0.03409971
v 0.04943876 -0.03736479 0.03401148
v 0.04943876 -0.04577891 0.03536564
v 0.04943876 -0.04767134 0.03365990
v 0.05697207 -0.04767134 0.03403955
v 0.05694012 -0.04677005 0.03402217
v 0.05721096 -0.04677005 0.03385508
v 0.05721096 -0.03828705 0.03332303
v 0.05721096 -0.03658926 0.03316530
v 0.05721096 -0.03331643 0.03270811
v 0.05721096 -0.03489445 0.03300622
v 0.05721096 -0.03481660 0.03299285
v 0.05721096 -0.03312779 0.03263860
v 0.05671721 -0.03150186 0.03236456
v 0.05370221 -0.03075327 0.03355831
v 0.05637333 -0.03047180 0.03205843
v 0.05589023 -0.02933994 0.03171889
v 0.05475894 -0.02878898 0.03207047
v 0.05192577 -0.02966632 0.03246348
v 0.04950723 -0.03073231 0.03188332
v 0.05016759 -0.03137909 0.03247685
v 0.05097175 -0.03373265 0.03374947
v 0.05130725 -0.02900757 0.03189000
v 0.05063852 -0.03013943 0.03224024
v 0.05062711 -0.03489445 0.03392459
v 0.04943876 -0.03681683 0.03387914
v 0.04943876 -0.04766236 0.03364921
v 0.05075264 -0.04767134 0.02257260
v 0.05713564 -0.04767134 0.03393929
v 0.05721096 -0.04767134 0.03389251
v 0.05721096 -0.03150186 0.03192075
v 0.05721096 -0.02972322 0.03087538
v 0.05457027 -0.02385130 0.02856675
v 0.05446984 -0.02385130 0.02856675
v 0.05370221 -0.02874706 0.03210389
v 0.05243854 -0.02884587 0.03203170
v 0.05663581 -0.02849254 0.03058797
v 0.05721096 -0.02630666 0.02866968
v 0.05721096 -0.02515683 0.02788232
v 0.05721096 -0.02459090 0.02748663
v 0.05613368 -0.02736067 0.03016287
v 0.05544669 -0.02807632 0.03112001
v 0.05706565 -0.02474062 0.02768848
v 0.05637790 -0.02545327 0.02863626
v 0.05595566 -0.02241701 0.02667787
v 0.04943876 -0.03078321 0.03186193
v 0.04943876 -0.03096288 0.03192877
v 0.04943876 -0.03173542 0.03220816
v 0.04943876 -0.02973220 0.03143282
v 0.04943876 -0.03324756 0.03270811
v 0.04943876 -0.03603830 0.03362515
v 0.04949886 -0.02727384 0.03023239
v 0.04943876 -0.02729779 0.03022303
v 0.04943876 -0.02735468 0.03025377
v 0.04943876 -0.02819011 0.03069358
v 0.04943876 -0.02260864 0.02257260
v 0.05233660 -0.04767134 0.02257260
v 0.05721096 -0.04767134 0.03151570
v 0.05721096 -0.02795056 0.02974045
v 0.05644485 -0.01862017 0.02358856
v 0.05482437 -0.02196186 0.02701340
v 0.05370221 -0.01996463 0.02554160
v 0.05370221 -0.02194390 0.02702811
v 0.05200565 -0.02693248 0.03049840
v 0.05063015 -0.02711813 0.03035804
v 0.05250778 -0.02207864 0.02692919
v 0.05721096 -0.02179119 0.02544001
v 0.05662211 -0.02354887 0.02709227
v 0.04943876 -0.02531553 0.02874321
v 0.04943876 -0.01983587 0.02257260
v 0.05721096 -0.03307389 0.02257260
v 0.05721096 -0.03331344 0.02265682
v 0.05721096 -0.03648446 0.02377170
v 0.05721096 -0.03851462 0.02452832
v 0.05721096 -0.01947056 0.02373427
v 0.05721096 -0.01844949 0.02282926
v 0.05721096 -0.01818599 0.02257260
v 0.05539877 -0.01740746 0.02305251
v 0.05539877 -0.01825785 0.02388265
v 0.05506934 -0.02007243 0.02546006
v 0.05370221 -0.01911723 0.02484113
v 0.05137648 -0.02223135 0.02679685
v 0.05030910 -0.02519276 0.02883678
v 0.04943876 -0.02490231 0.02842505
v 0.04943876 -0.02008740 0.02290680
v 0.05033725 -0.01920107 0.02257260
v 0.05681763 -0.01793447 0.02257260
v 0.05575482 -0.01726672 0.02257260
v 0.05539877 -0.01710802 0.02257260
v 0.05466537 -0.01708407 0.02257260
v 0.05370221 -0.01735655 0.02305785
v 0.05370221 -0.01820395 0.02399227
v 0.05236018 -0.02019819 0.02537049
v 0.05030910 -0.02328537 0.02733557
v 0.04943876 -0.02350395 0.02717649
v 0.05060124 -0.02008141 0.02398558
v 0.04943876 -0.02179717 0.02516998
v 0.05140311 -0.01894955 0.02323565
v 0.05205510 -0.01802729 0.02257260
v 0.05370221 -0.01708107 0.02257260
v 0.05221563 -0.01792548 0.02257260
v 0.05253440 -0.01855130 0.02373427
v 0.05122889 -0.02051859 0.02511650
v 0.04943876 -0.02325542 0.02693721
v 0.05210912 -0.01799136 0.02257260
f 1 2 3
f 1 3 12
f 1 12 28
f 1 28 48
f 1 48 72
f 1 72 101
f 1 101 102
f 1 102 74
f 1 74 73
f 1 73 49
f 1 49 29
f 1 29 14
f 1 14 4
f 1 4 5
f 1 5 6
f 1 6 7
f 1 7 8
f 1 8 9
f 1 9 2
f 2 10 3
f 2 9 11
f 2 11 10
f 3 10 13
f 3 13 12
f 4 14 5
f 5 15 16
f 5 16 17
f 5 17 6
f 5 14 18
f 5 18 15
f 6 17 19
f 6 19 7
f 7 19 8
f 8 19 20
f 8 20 21
f 8 21 9
f 9 21 11
f 10 11 13
f 11 22 23
f 11 23 24
f 11 24 25
f 11 25 26
f 11 26 13
f 11 21 22
f 12 25 27
f 12 27 28
f 12 13 26
f 12 26 25
f 14 29 18
f 15 18 30
f 15 30 31
f 15 31 32
f 15 32 16
f 16 33 34
f 16 34 35
f 16 35 19
f 16 19 17
f 16 32 33
f 18 29 36
f 18 36 30
f 19 35 37
f 19 37 20
f 20 38 39
f 20 39 40
f 20 40 21
f 20 37 41
f 20 41 38
f 21 40 42
f 21 42 43
f 21 43 44
f 21 44 22
f 22 45 46
f 22 46 23
f 22 44 45
f 23 46 70
f 23 70 95
f 23 95 94
f 23 94 92
f 23 92 91
f 23 91 90
f 23 90 93
f 23 93 99
f 23 99 98
f 23 98 97
f 23 97 113
f 23 113 128
f 23 128 139
f 23 139 148
f 23 148 141
f 23 141 129
f 23 129 114
f 23 114 100
f 23 100 71
f 23 71 48
f 23 48 28
f 23 28 27
f 23 27 47
f 23 47 24
f 24 47 25
f 25 47 27
f 29 49 50
f 29 50 36
f 30 36 50
f 30 50 51
f 30 51 31
f 31 51 74
f 31 74 102
f 31 102 118
f 31 118 117
f 31 117 116
f 31 116 115
f 31 115 121
f 31 121 120
f 31 120 119
f 31 119 111
f 31 111 84
f 31 84 83
f 31 83 82
f 31 82 103
f 31 103 76
f 31 76 75
f 31 75 57
f 31 57 54
f 31 54 56
f 31 56 55
f 31 55 53
f 31 53 52
f 31 52 34
f 31 34 33
f 31 33 32
f 34 52 35
f 35 52 37
f 37 53 41
f 37 52 53
f 38 54 39
f 38 41 55
f 38 55 56
f 38 56 54
f 39 54 57
f 39 57 58
f 39 58 40
f 40 59 42
f 40 58 60
f 40 60 61
f 40 61 62
f 40 62 59
f 41 53 55
f 42 59 63
f 42 63 43
f 43 64 65
f 43 65 66
f 43 66 44
f 43 63 67
f 43 67 68
f 43 68 64
f 44 66 69
f 44 69 46
f 44 46 45
f 46 69 70
f 48 71 72
f 49 73 50
f 50 73 51
f 51 73 74
f 57 75 58
f 58 75 76
f 58 76 60
f 59 62 77
f 59 77 78
f 59 78 79
f 59 79 80
f 59 80 63
f 60 76 81
f 60 81 61
f 61 81 82
f 61 82 83
f 61 83 84
f 61 84 85
f 61 85 86
f 61 86 62
f 62 86 87
f 62 87 88
f 62 88 89
f 62 89 77
f 63 80 67
f 64 90 91
f 64 91 92
f 64 92 65
f 64 68 93
f 64 93 90
f 65 92 66
f 66 92 94
f 66 94 95
f 66 95 70
f 66 70 69
f 67 80 96
f 67 96 97
f 67 97 68
f 68 97 98
f 68 98 99
f 68 99 93
f 71 100 72
f 72 100 114
f 72 114 130
f 72 130 143
f 72 143 149
f 72 149 145
f 72 145 144
f 72 144 134
f 72 134 133
f 72 133 132
f 72 132 131
f 72 131 121
f 72 121 115
f 72 115 101
f 76 103 81
f 77 89 104
f 77 104 105
f 77 105 106
f 77 106 78
f 78 106 107
f 78 107 80
f 78 80 79
f 80 108 109
f 80 109 96
f 80 107 106
f 80 106 110
f 80 110 108
f 81 103 82
f 84 87 85
f 84 111 87
f 85 87 86
f 87 111 112
f 87 112 88
f 88 112 89
f 89 112 111
f 89 111 104
f 96 109 113
f 96 113 97
f 101 115 116
f 101 116 117
f 101 117 118
f 101 118 102
f 104 111 119
f 104 119 120
f 104 120 121
f 104 121 122
f 104 122 123
f 104 123 124
f 104 124 105
f 105 124 106
f 106 124 125
f 106 125 126
f 106 126 110
f 108 110 127
f 108 127 109
f 109 127 113
f 110 126 113
f 110 113 127
f 113 126 128
f 114 129 130
f 121 131 122
f 122 131 132
f 122 132 133
f 122 133 134
f 122 134 135
f 122 135 136
f 122 136 123
f 123 136 125
f 123 125 124
f 125 136 137
f 125 137 126
f 126 138 128
f 126 137 138
f 128 138 139
f 129 140 130
f 129 141 140
f 130 140 142
f 130 142 143
f 134 144 135
f 135 144 145
f 135 145 146
f 135 146 136
f 136 146 147
f 136 147 137
f 137 147 148
f 137 148 139
f 137 139 138
f 140 146 142
f 140 141 146
f 141 148 147
f 141 147 146
f 142 146 143
f 143 146 149
f 145 149 146

