# https://github.com/mikedh/trimesh
v 0.04151669 -0.06936096 0.01848756
v 0.04132981 -0.06882992 0.01848756
v 0.04363642 -0.06936096 0.01848756
v 0.04181749 -0.06936096 0.01925196
v 0.04100742 -0.06788887 0.01848756
v 0.04240643 -0.06936096 0.02074517
v 0.04361855 -0.05674567 0.01848756
v 0.04825039 -0.06936096 0.02303126
v 0.04088010 -0.06684285 0.01879788
v 0.04085032 -0.06697128 0.01848756
v 0.04232080 -0.06885092 0.02096439
v 0.04238484 -0.06709108 0.02260849
v 0.04095903 -0.05956883 0.02521628
v 0.04274371 -0.06936096 0.02148822
v 0.04256576 -0.06829888 0.02203626
v 0.04175867 -0.05674567 0.01848756
v 0.04825039 -0.05674567 0.03068950
v 0.04825039 -0.06936096 0.02573584
v 0.04079150 -0.06641431 0.01848756
v 0.04260075 -0.06649829 0.02359495
v 0.04270052 -0.06454949 0.02513087
v 0.04245482 -0.06341825 0.02543549
v 0.04156732 -0.06021967 0.02587250
v 0.04204979 -0.05865001 0.02744827
v 0.04208478 -0.05674567 0.02798634
v 0.04200437 -0.05674567 0.02781268
v 0.04122260 -0.05868089 0.02587250
v 0.04095903 -0.05926750 0.02521628
v 0.04082128 -0.06034687 0.02261703
v 0.04075279 -0.06204373 0.02092026
v 0.04066791 -0.06447416 0.01848756
v 0.04072896 -0.06547326 0.01848756
v 0.04283305 -0.06936096 0.02168324
v 0.04303855 -0.06936096 0.02213021
v 0.04282412 -0.06762953 0.02316791
v 0.04096647 -0.05945645 0.01848756
v 0.04094860 -0.05938482 0.01922349
v 0.04090765 -0.05922057 0.02092026
v 0.04142883 -0.05674567 0.02600915
v 0.04825039 -0.05674567 0.03302826
v 0.04825039 -0.06914484 0.02595506
v 0.04776420 -0.06936096 0.02569029
v 0.04446287 -0.06781601 0.02506682
v 0.04414569 -0.06668477 0.02537001
v 0.04267074 -0.06120024 0.02686038
v 0.04243844 -0.06034687 0.02708102
v 0.04404443 -0.06936096 0.02381986
v 0.04228060 -0.05674567 0.02824684
v 0.04295814 -0.05865001 0.02829666
v 0.04275041 -0.05760892 0.02848028
v 0.04144447 -0.05674567 0.02621555
v 0.04139235 -0.05695315 0.02600915
v 0.04092999 -0.05913042 0.02431380
v 0.04089872 -0.05912424 0.02261703
v 0.04079001 -0.06034687 0.02092026
v 0.04064483 -0.06204373 0.01848756
v 0.04067237 -0.06204373 0.01922349
v 0.04064631 -0.06277854 0.01848756
v 0.04329765 -0.06936096 0.02263696
v 0.04089425 -0.05977631 0.01848756
v 0.04080863 -0.06029376 0.01848756
v 0.04079001 -0.06034687 0.01922349
v 0.04823475 -0.05674567 0.03301829
v 0.04825039 -0.05702602 0.03295281
v 0.04825039 -0.06755296 0.02754649
v 0.04825039 -0.06641307 0.02868099
v 0.04635030 -0.06936096 0.02550382
v 0.04517540 -0.06720840 0.02604758
v 0.04455520 -0.06936096 0.02429103
v 0.04588794 -0.06660203 0.02702266
v 0.04689382 -0.06377640 0.02942120
v 0.04760635 -0.06316879 0.03039485
v 0.04644486 -0.06204373 0.02989806
v 0.04353367 -0.06046666 0.02802193
v 0.04410697 -0.05998131 0.02876782
v 0.04322692 -0.05674567 0.02915074
v 0.04616267 -0.06095448 0.03015713
v 0.04380618 -0.05865001 0.02900982
v 0.04071258 -0.06108168 0.01848756
v 0.04737703 -0.05674567 0.03244179
v 0.04726907 -0.05695315 0.03231368
v 0.04825039 -0.05753730 0.03281189
v 0.04825039 -0.06574001 0.02923472
v 0.04766964 -0.06636244 0.02862832
v 0.04591027 -0.06936096 0.02530169
v 0.04569584 -0.06882992 0.02550097
v 0.04735544 -0.06543621 0.02892156
v 0.04804563 -0.06430003 0.03010161
v 0.04825039 -0.06345036 0.03072936
v 0.04825039 -0.06210918 0.03142828
v 0.04729364 -0.06204373 0.03064395
v 0.04360366 -0.05674567 0.02945678
v 0.04825039 -0.06204373 0.03145818
v 0.04825039 -0.06184737 0.03152793
v 0.04680298 -0.06037157 0.03087313
v 0.04593782 -0.05982324 0.03035499
v 0.04485599 -0.05865001 0.02985820
v 0.04721472 -0.05674567 0.03232934
v 0.04638008 -0.05674567 0.03167739
v 0.04754530 -0.05835115 0.03211155
v 0.04825039 -0.06034687 0.03201475
v 0.04825039 -0.06409626 0.03037065
v 0.04369226 -0.05674567 0.02952796
v 0.04570478 -0.05865001 0.03054289
v 0.04458200 -0.05726684 0.03007884
v 0.04794884 -0.06034687 0.03179981
v 0.04777015 -0.05948238 0.03193646
v 0.04695413 -0.05881055 0.03149519
f 1 2 5
f 1 5 10
f 1 10 19
f 1 19 32
f 1 32 31
f 1 31 58
f 1 58 56
f 1 56 79
f 1 79 61
f 1 61 60
f 1 60 36
f 1 36 16
f 1 16 7
f 1 7 3
f 1 3 8
f 1 8 18
f 1 18 42
f 1 42 67
f 1 67 85
f 1 85 69
f 1 69 47
f 1 47 59
f 1 59 34
f 1 34 33
f 1 33 14
f 1 14 6
f 1 6 4
f 1 4 2
f 2 4 6
f 2 6 5
f 3 7 8
f 5 9 10
f 5 6 11
f 5 11 12
f 5 12 13
f 5 13 9
f 6 14 15
f 6 15 11
f 7 16 39
f 7 39 51
f 7 51 26
f 7 26 25
f 7 25 48
f 7 48 76
f 7 76 92
f 7 92 103
f 7 103 99
f 7 99 98
f 7 98 80
f 7 80 63
f 7 63 40
f 7 40 17
f 7 17 8
f 8 17 40
f 8 40 64
f 8 64 82
f 8 82 101
f 8 101 94
f 8 94 93
f 8 93 90
f 8 90 89
f 8 89 102
f 8 102 83
f 8 83 66
f 8 66 65
f 8 65 41
f 8 41 18
f 9 13 10
f 10 13 19
f 11 15 12
f 12 15 20
f 12 20 13
f 13 21 22
f 13 22 23
f 13 23 24
f 13 24 25
f 13 25 26
f 13 26 27
f 13 27 28
f 13 28 29
f 13 29 30
f 13 30 31
f 13 31 32
f 13 32 19
f 13 20 21
f 14 33 15
f 15 33 34
f 15 34 35
f 15 35 20
f 16 36 37
f 16 37 38
f 16 38 39
f 18 41 42
f 20 35 21
f 21 43 44
f 21 44 45
f 21 45 46
f 21 46 22
f 21 35 47
f 21 47 43
f 22 46 24
f 22 24 23
f 24 48 25
f 24 46 49
f 24 49 50
f 24 50 48
f 26 51 28
f 26 28 27
f 28 51 52
f 28 52 53
f 28 53 29
f 29 53 54
f 29 54 55
f 29 55 56
f 29 56 57
f 29 57 30
f 30 57 58
f 30 58 31
f 34 59 35
f 35 59 47
f 36 60 37
f 37 60 38
f 38 60 61
f 38 61 62
f 38 62 54
f 38 54 39
f 39 54 53
f 39 53 52
f 39 52 51
f 40 63 64
f 41 65 42
f 42 65 66
f 42 66 67
f 43 68 44
f 43 47 69
f 43 69 68
f 44 68 70
f 44 70 45
f 45 70 71
f 45 71 72
f 45 72 46
f 46 72 73
f 46 73 74
f 46 74 75
f 46 75 49
f 48 50 76
f 49 75 77
f 49 77 78
f 49 78 50
f 50 78 76
f 54 62 79
f 54 79 55
f 55 79 56
f 56 58 57
f 61 79 62
f 63 80 81
f 63 81 64
f 64 81 82
f 66 83 84
f 66 84 67
f 67 84 85
f 68 69 70
f 69 85 86
f 69 86 84
f 69 84 87
f 69 87 70
f 70 87 72
f 70 72 71
f 72 87 88
f 72 88 89
f 72 89 90
f 72 90 91
f 72 91 73
f 73 91 77
f 73 77 75
f 73 75 74
f 76 78 92
f 77 91 93
f 77 93 94
f 77 94 95
f 77 95 96
f 77 96 78
f 78 97 92
f 78 96 97
f 80 98 81
f 81 98 99
f 81 99 100
f 81 100 82
f 82 100 101
f 83 102 84
f 84 86 85
f 84 102 88
f 84 88 87
f 88 102 89
f 90 93 91
f 92 97 104
f 92 104 105
f 92 105 103
f 94 101 106
f 94 106 95
f 95 106 107
f 95 107 96
f 96 107 104
f 96 104 97
f 99 103 105
f 99 105 100
f 100 105 108
f 100 108 107
f 100 107 101
f 101 107 106
f 104 107 108
f 104 108 105

