# https://github.com/mikedh/trimesh
v 0.05521876 -0.02630396 -0.02780683
v 0.05530319 -0.02630396 -0.02778612
v 0.05386945 -0.02630396 -0.02776334
v 0.05448291 -0.02553700 -0.02745057
v 0.05460995 -0.02553700 -0.02745057
v 0.05508321 -0.02347454 -0.02599238
v 0.05574160 -0.02574669 -0.02729315
v 0.05623500 -0.02630396 -0.02751064
v 0.05200583 -0.02630396 -0.02734286
v 0.05233657 -0.02363396 -0.02587432
v 0.05370215 -0.02339842 -0.02602967
v 0.05370215 -0.02255103 -0.02549113
v 0.05455495 -0.02046846 -0.02404744
v 0.05721019 -0.02621491 -0.02693068
v 0.05721019 -0.02630396 -0.02699696
v 0.05084087 -0.02630396 -0.02703010
v 0.05120491 -0.02388530 -0.02572104
v 0.05337915 -0.02052447 -0.02398944
v 0.05384776 -0.02118228 -0.02452384
v 0.05451080 -0.02046846 -0.02404744
v 0.05639456 -0.02036792 -0.02246497
v 0.05721019 -0.02065661 -0.02213771
v 0.05721019 -0.02148963 -0.02303665
v 0.05721019 -0.02183290 -0.02338255
v 0.05721019 -0.02233559 -0.02388795
v 0.05642554 -0.02204116 -0.02415101
v 0.05721019 -0.02320165 -0.02458805
v 0.05709555 -0.02507452 -0.02612080
v 0.05370215 -0.01899055 -0.02201136
v 0.05500188 -0.01696256 -0.01914884
v 0.05663623 -0.01349114 -0.01415703
v 0.05679812 -0.01502793 -0.01600669
v 0.05721019 -0.01568573 -0.01645616
v 0.05721019 -0.01602469 -0.01684970
v 0.05629542 -0.01874352 -0.02068988
v 0.05721019 -0.02517219 -0.02612702
v 0.05721019 -0.02630396 -0.01336993
v 0.05020881 -0.02630396 -0.02684368
v 0.04929792 -0.02630396 -0.02628858
v 0.04929792 -0.02571509 -0.02584118
v 0.04942262 -0.02552694 -0.02577283
v 0.05030951 -0.02427884 -0.02533786
v 0.05183697 -0.02118228 -0.02368082
v 0.05228932 -0.02165480 -0.02440992
v 0.05200583 -0.02019413 -0.02274253
v 0.05384776 -0.01996290 -0.02333284
v 0.05721019 -0.01999162 -0.02137962
v 0.05721019 -0.02310542 -0.02451141
v 0.05721019 -0.02511905 -0.02608559
v 0.05259140 -0.01866309 -0.02085144
v 0.05370215 -0.01843041 -0.02116420
v 0.05428152 -0.01696256 -0.01914884
v 0.05578885 -0.01349114 -0.01415703
v 0.05646582 -0.01193424 -0.00908443
v 0.05715907 -0.01322400 -0.01307996
v 0.05721019 -0.01327283 -0.01313174
v 0.05721019 -0.01364913 -0.01391883
v 0.05721019 -0.01450513 -0.01502490
v 0.05721019 -0.01516150 -0.01583891
v 0.05721019 -0.02526411 -0.01146228
v 0.05508166 -0.02630396 -0.00664652
v 0.04929792 -0.02630396 -0.02332042
v 0.04929792 -0.02539768 -0.02553670
v 0.04940558 -0.02381493 -0.02409301
v 0.05115844 -0.02216898 -0.02404330
v 0.05114140 -0.02045984 -0.02236141
v 0.04929792 -0.01917439 -0.01905977
v 0.04929792 -0.01894316 -0.01874494
v 0.04958761 -0.01885554 -0.01885678
v 0.05201822 -0.01931945 -0.02145004
v 0.05146053 -0.01892449 -0.02041854
v 0.05071926 -0.01858553 -0.01928761
v 0.05030951 -0.01685915 -0.01594869
v 0.05409872 -0.01518735 -0.01590727
v 0.04940791 -0.01705592 -0.01560486
v 0.05465797 -0.01377121 -0.01376348
v 0.05529389 -0.01322400 -0.01312552
v 0.05603826 -0.01193424 -0.00908443
v 0.05708548 -0.01163119 -0.00664652
v 0.05712808 -0.01164268 -0.00664652
v 0.05721019 -0.01186961 -0.00770288
v 0.05721019 -0.01205345 -0.00856661
v 0.05709555 -0.01268540 -0.01131936
v 0.05721019 -0.01323692 -0.01305510
v 0.05721019 -0.01276727 -0.01144778
v 0.05721019 -0.02430613 -0.00977210
v 0.05643019 -0.02237580 -0.00685780
v 0.05616374 -0.02258837 -0.00664652
v 0.05350773 -0.02630396 -0.00664652
v 0.04929792 -0.01580064 -0.00664652
v 0.04929792 -0.02403037 -0.02420693
v 0.04929792 -0.02128856 -0.02153911
v 0.04929792 -0.02054314 -0.02080794
v 0.04937150 -0.02039665 -0.02072923
v 0.04929792 -0.02035643 -0.02061324
v 0.04929792 -0.02008785 -0.02026112
v 0.04929792 -0.01876793 -0.01849431
v 0.04929792 -0.01841461 -0.01788328
v 0.04929792 -0.01716795 -0.01571464
v 0.04929792 -0.01702720 -0.01543087
v 0.05117781 -0.01541141 -0.01384219
v 0.05411964 -0.01348109 -0.01263256
v 0.05230868 -0.01512272 -0.01434344
v 0.05361307 -0.01325129 -0.01139807
v 0.05539846 -0.01267535 -0.01131936
v 0.04929792 -0.01341789 -0.00687437
v 0.04929792 -0.01336619 -0.00664652
v 0.05072701 -0.01295685 -0.00664652
v 0.05452474 -0.01198307 -0.00711671
v 0.05541085 -0.01166279 -0.00664652
v 0.05721019 -0.01166566 -0.00664652
v 0.05721019 -0.01273423 -0.01131936
v 0.05721019 -0.01386026 -0.00664652
v 0.04929792 -0.01665951 -0.01461685
v 0.05067433 -0.01515288 -0.01271126
v 0.05248606 -0.01351268 -0.01088646
v 0.04929792 -0.01356439 -0.00739633
v 0.05195470 -0.01330586 -0.00966025
v 0.05029479 -0.01337624 -0.00792244
v 0.05436595 -0.01194142 -0.00664652
v 0.05455340 -0.01189115 -0.00664652
v 0.04929792 -0.01511267 -0.01105423
v 0.05085171 -0.01354715 -0.00911965
f 1 2 8
f 1 8 15
f 1 15 37
f 1 37 61
f 1 61 89
f 1 89 62
f 1 62 39
f 1 39 38
f 1 38 16
f 1 16 9
f 1 9 3
f 1 3 4
f 1 4 5
f 1 5 6
f 1 6 2
f 2 7 8
f 2 6 7
f 3 9 10
f 3 10 4
f 4 10 11
f 4 11 12
f 4 12 5
f 5 12 13
f 5 13 6
f 6 8 7
f 6 13 8
f 8 14 15
f 8 13 14
f 9 16 17
f 9 17 10
f 10 17 18
f 10 18 12
f 10 12 11
f 12 18 19
f 12 19 20
f 12 20 13
f 13 21 22
f 13 22 23
f 13 23 24
f 13 24 25
f 13 25 26
f 13 26 27
f 13 27 28
f 13 28 14
f 13 20 29
f 13 29 30
f 13 30 31
f 13 31 32
f 13 32 33
f 13 33 34
f 13 34 35
f 13 35 21
f 14 28 36
f 14 36 49
f 14 49 27
f 14 27 48
f 14 48 25
f 14 25 24
f 14 24 23
f 14 23 22
f 14 22 47
f 14 47 34
f 14 34 33
f 14 33 59
f 14 59 58
f 14 58 57
f 14 57 56
f 14 56 84
f 14 84 85
f 14 85 112
f 14 112 82
f 14 82 81
f 14 81 111
f 14 111 113
f 14 113 86
f 14 86 60
f 14 60 37
f 14 37 15
f 16 38 17
f 17 38 39
f 17 39 40
f 17 40 41
f 17 41 42
f 17 42 43
f 17 43 44
f 17 44 18
f 18 20 19
f 18 44 43
f 18 43 45
f 18 45 29
f 18 29 46
f 18 46 20
f 20 46 29
f 21 35 47
f 21 47 22
f 25 48 26
f 26 48 27
f 27 49 28
f 28 49 36
f 29 45 50
f 29 50 51
f 29 51 52
f 29 52 30
f 30 52 53
f 30 53 31
f 31 53 78
f 31 78 54
f 31 54 55
f 31 55 56
f 31 56 57
f 31 57 58
f 31 58 32
f 32 59 33
f 32 58 59
f 34 47 35
f 37 60 61
f 39 62 90
f 39 90 107
f 39 107 106
f 39 106 117
f 39 117 122
f 39 122 114
f 39 114 100
f 39 100 99
f 39 99 98
f 39 98 97
f 39 97 68
f 39 68 67
f 39 67 96
f 39 96 95
f 39 95 93
f 39 93 92
f 39 92 91
f 39 91 63
f 39 63 40
f 40 63 41
f 41 63 64
f 41 64 65
f 41 65 43
f 41 43 42
f 43 65 66
f 43 66 45
f 45 66 67
f 45 67 68
f 45 68 69
f 45 69 70
f 45 70 50
f 50 71 72
f 50 72 73
f 50 73 74
f 50 74 52
f 50 52 51
f 50 70 71
f 52 74 53
f 53 74 75
f 53 75 76
f 53 76 77
f 53 77 78
f 54 78 79
f 54 79 80
f 54 80 81
f 54 81 82
f 54 82 83
f 54 83 55
f 55 84 56
f 55 83 85
f 55 85 84
f 60 86 61
f 61 86 87
f 61 87 88
f 61 88 113
f 61 113 111
f 61 111 80
f 61 80 79
f 61 79 110
f 61 110 121
f 61 121 120
f 61 120 108
f 61 108 107
f 61 107 90
f 61 90 89
f 62 89 90
f 63 91 64
f 64 91 92
f 64 92 65
f 65 92 66
f 66 92 93
f 66 93 94
f 66 94 95
f 66 95 96
f 66 96 67
f 68 97 69
f 69 97 71
f 69 71 70
f 71 97 72
f 72 97 98
f 72 98 99
f 72 99 75
f 72 75 73
f 73 75 74
f 75 99 100
f 75 100 101
f 75 101 102
f 75 102 103
f 75 103 76
f 76 103 102
f 76 102 77
f 77 102 104
f 77 104 105
f 77 105 78
f 78 105 106
f 78 106 107
f 78 107 108
f 78 108 109
f 78 109 110
f 78 110 79
f 80 111 81
f 82 112 83
f 83 112 85
f 86 113 87
f 87 113 88
f 93 95 94
f 100 114 101
f 101 114 115
f 101 115 102
f 102 115 116
f 102 116 104
f 104 116 117
f 104 117 118
f 104 118 105
f 105 118 119
f 105 119 106
f 106 119 117
f 108 120 109
f 109 120 121
f 109 121 110
f 114 122 115
f 115 122 123
f 115 123 116
f 116 123 117
f 117 119 118
f 117 123 122

