# https://github.com/mikedh/trimesh
v 0.06456422 -0.01996687 -0.00378634
v 0.06456422 -0.01996687 -0.01435449
v 0.06248766 -0.01996687 -0.00378634
v 0.06456422 -0.02104355 -0.00378634
v 0.06039886 -0.01996687 -0.01435449
v 0.06456422 -0.02357061 -0.01435449
v 0.05721096 -0.02317198 -0.00966627
v 0.05933791 -0.02754630 -0.00378634
v 0.06456422 -0.02105600 -0.00382979
v 0.06153323 -0.02755520 -0.00378634
v 0.06309588 -0.02740037 -0.01019282
v 0.06306708 -0.02908567 -0.01365519
v 0.05721096 -0.02454763 -0.01435449
v 0.05721096 -0.02403510 -0.01347933
v 0.05721096 -0.02390874 -0.01321347
v 0.05721096 -0.02370231 -0.01275003
v 0.05721096 -0.02312037 -0.01143522
v 0.05721096 -0.02308478 -0.01131832
v 0.06306708 -0.02908567 -0.01424380
v 0.06302605 -0.02921737 -0.01435449
v 0.05721096 -0.03142232 -0.00778664
v 0.05774648 -0.03040260 -0.00652976
v 0.05929112 -0.02798587 -0.00378634
v 0.06122589 -0.02795027 -0.00378634
v 0.06058025 -0.03423413 -0.01435449
v 0.06127771 -0.03319661 -0.01435449
v 0.06207883 -0.03159850 -0.01435449
v 0.06294328 -0.02947897 -0.01435449
v 0.05721096 -0.03814753 -0.01435449
v 0.05721096 -0.03162698 -0.00781560
v 0.05776519 -0.03150062 -0.00664458
v 0.05926809 -0.02877780 -0.00378634
v 0.05992525 -0.02921381 -0.00378634
v 0.06023835 -0.03465056 -0.01435449
v 0.05797680 -0.03237442 -0.00704802
v 0.05790267 -0.03237442 -0.00704802
v 0.05721096 -0.03261467 -0.00807215
v 0.05934151 -0.02921381 -0.00378634
f 1 2 5
f 1 5 3
f 1 3 8
f 1 8 23
f 1 23 32
f 1 32 38
f 1 38 33
f 1 33 24
f 1 24 10
f 1 10 4
f 1 4 9
f 1 9 6
f 1 6 2
f 2 6 20
f 2 20 28
f 2 28 27
f 2 27 26
f 2 26 25
f 2 25 34
f 2 34 29
f 2 29 13
f 2 13 5
f 3 5 7
f 3 7 8
f 4 10 11
f 4 11 12
f 4 12 9
f 5 13 14
f 5 14 15
f 5 15 16
f 5 16 17
f 5 17 18
f 5 18 7
f 6 9 12
f 6 12 19
f 6 19 20
f 7 18 17
f 7 17 16
f 7 16 15
f 7 15 14
f 7 14 13
f 7 13 29
f 7 29 37
f 7 37 30
f 7 30 21
f 7 21 22
f 7 22 8
f 8 22 23
f 10 24 25
f 10 25 26
f 10 26 27
f 10 27 11
f 11 27 12
f 12 27 28
f 12 28 20
f 12 20 19
f 21 30 31
f 21 31 22
f 22 31 32
f 22 32 23
f 24 33 29
f 24 29 34
f 24 34 25
f 29 33 35
f 29 35 36
f 29 36 37
f 30 37 31
f 31 37 36
f 31 36 38
f 31 38 32
f 33 38 36
f 33 36 35

