# https://github.com/mikedh/trimesh
v 0.05304540 -0.04767134 -0.02358014
v 0.05299156 -0.04782650 -0.02366384
v 0.05299156 -0.04782650 -0.02421753
v 0.05303388 -0.04767134 -0.02424030
v 0.05243374 -0.04767134 -0.02077489
v 0.05238079 -0.04790840 -0.02077489
v 0.05236232 -0.04799105 -0.02077489
v 0.05234924 -0.04804938 -0.02077489
v 0.05234924 -0.04831491 -0.02337246
v 0.05234924 -0.04820832 -0.02176951
v 0.05234924 -0.04801196 -0.02428302
v 0.05284647 -0.04767134 -0.02427252
v 0.05234924 -0.04767134 -0.02077489
v 0.05234924 -0.04767134 -0.02435237
f 1 2 3
f 1 3 4
f 1 4 12
f 1 12 14
f 1 14 13
f 1 13 5
f 1 5 6
f 1 6 7
f 1 7 8
f 1 8 2
f 2 9 3
f 2 8 10
f 2 10 9
f 3 11 12
f 3 12 4
f 3 9 11
f 5 13 8
f 5 8 7
f 5 7 6
f 8 13 14
f 8 14 11
f 8 11 9
f 8 9 10
f 11 14 12

