# https://github.com/mikedh/trimesh
v 0.05721096 -0.01114853 -0.00378634
v 0.06456422 -0.01153011 -0.00378634
v 0.06456422 -0.00870132 -0.01131832
v 0.05721096 -0.01130072 -0.00472460
v 0.05721096 -0.01327040 -0.00378634
v 0.06456422 -0.01996687 -0.00378634
v 0.05721096 -0.01186979 -0.00770285
v 0.05721096 -0.01160841 -0.00635286
v 0.06456422 -0.00944463 -0.01174142
v 0.05721096 -0.01398615 -0.01435449
v 0.05721096 -0.01364868 -0.01391795
v 0.05721096 -0.01327261 -0.01313071
v 0.05721096 -0.01323621 -0.01305416
v 0.05721096 -0.01276640 -0.01144556
v 0.05721096 -0.01273442 -0.01131832
v 0.05721096 -0.01205286 -0.00856663
v 0.05721096 -0.01680612 -0.01435449
v 0.06248766 -0.01996687 -0.00378634
v 0.06456422 -0.01996687 -0.01435449
v 0.06456422 -0.01189846 -0.01309347
v 0.06456422 -0.01283808 -0.01331071
v 0.06456422 -0.01453316 -0.01366140
v 0.06456422 -0.01625139 -0.01401519
v 0.06456422 -0.01828834 -0.01435449
v 0.06039886 -0.01996687 -0.01435449
f 1 2 3
f 1 3 4
f 1 4 8
f 1 8 7
f 1 7 16
f 1 16 15
f 1 15 14
f 1 14 13
f 1 13 12
f 1 12 11
f 1 11 10
f 1 10 17
f 1 17 5
f 1 5 18
f 1 18 6
f 1 6 2
f 2 6 19
f 2 19 24
f 2 24 23
f 2 23 22
f 2 22 21
f 2 21 20
f 2 20 9
f 2 9 3
f 3 7 8
f 3 8 4
f 3 9 10
f 3 10 11
f 3 11 12
f 3 12 13
f 3 13 14
f 3 14 15
f 3 15 16
f 3 16 7
f 5 17 18
f 6 18 25
f 6 25 19
f 9 20 10
f 10 20 21
f 10 21 22
f 10 22 23
f 10 23 24
f 10 24 19
f 10 19 25
f 10 25 17
f 17 25 18

