# https://github.com/mikedh/trimesh
v -0.01365448 0.08727087 0.01583769
v -0.01416826 0.08727087 0.01582306
v -0.01365448 0.08557436 0.01576455
v -0.01365448 0.08766984 0.01569726
v -0.01365448 0.08851342 0.01537837
v -0.01416826 0.08847970 0.01536374
v -0.02265067 0.08693364 0.01543688
v -0.02265067 0.08576839 0.01543688
v -0.02402650 0.08550899 0.01535204
v -0.01365448 0.08378135 0.01535204
v -0.01365448 0.08866751 0.01499218
v -0.01586494 0.08834740 0.01526134
v -0.02402650 0.08679408 0.01535789
v -0.02402650 0.08475775 0.01493367
v -0.01412967 0.08378135 0.01527304
v -0.01365448 0.08378135 -0.01405068
v -0.01365448 0.08892899 0.01413204
v -0.01756163 0.08821303 0.01510921
v -0.01852217 0.08813676 0.01500681
v -0.02402650 0.08689784 0.01510921
v -0.02402650 0.08440288 0.01431051
v -0.02402650 0.08432455 0.01416423
v -0.02402650 0.08396345 0.01269555
v -0.02402650 0.08391779 0.01243517
v -0.02402243 0.08378135 -0.01051065
v -0.02095398 0.08378135 -0.01398631
v -0.02095398 0.08387785 -0.01398339
v -0.02095398 0.08557436 -0.01392488
v -0.01925730 0.08557436 -0.01393950
v -0.01365448 0.08557436 -0.01398631
v -0.01416826 0.08885480 0.01413204
v -0.01365448 0.08894403 0.01361713
v -0.01586494 0.08858761 0.01413204
v -0.01756163 0.08831835 0.01413204
v -0.01861355 0.08815129 0.01413204
v -0.02265067 0.08748358 0.01413204
v -0.02402650 0.08718578 0.01413204
v -0.02402650 0.08378135 -0.01091146
v -0.02265067 0.08378135 -0.01396876
v -0.02265067 0.08387785 -0.01396583
v -0.02402650 0.08535594 -0.01390147
v -0.02374118 0.08642936 -0.01386636
v -0.01365448 0.08669655 -0.01391025
v -0.01365448 0.08896167 0.01243517
v -0.01416826 0.08888022 0.01243517
v -0.01756163 0.08834118 0.01243517
v -0.02095398 0.08780213 0.01243517
v -0.02265067 0.08753235 0.01243517
v -0.02402650 0.08719512 0.01381022
v -0.02402650 0.08378135 -0.01395121
v -0.02402650 0.08387785 -0.01394828
v -0.02402650 0.08605789 -0.01387514
v -0.02402650 0.08664311 -0.01352991
v -0.01365448 0.08824468 -0.01262297
v -0.01365448 0.08804493 -0.01287749
v -0.01365448 0.08754480 -0.01347140
v -0.01365448 0.08898398 0.01073830
v -0.01416826 0.08890253 0.01073830
v -0.01882475 0.08818501 0.00904142
v -0.02265067 0.08759928 0.00734455
v -0.02402650 0.08730044 0.00734455
v -0.02402650 0.08721951 0.01243517
v -0.02402650 0.08753702 -0.00792438
v -0.02402650 0.08751263 -0.00622751
v -0.02402650 0.08746127 -0.00283376
v -0.02402650 0.08743481 -0.00113689
v -0.02402650 0.08690355 -0.01314958
v -0.01416826 0.08822600 -0.01256738
v -0.01365448 0.08841900 -0.01131813
v -0.01365448 0.08899072 0.01022338
v -0.01416826 0.08901356 0.00225393
v -0.01756163 0.08847451 0.00225393
v -0.01940757 0.08822652 -0.00120710
v -0.02265067 0.08771030 -0.00113689
v -0.02402650 0.08755725 -0.00962125
v -0.02402650 0.08755985 -0.01131813
v -0.01685391 0.08812898 -0.01220752
v -0.01586494 0.08816478 -0.01234795
v -0.01586494 0.08825920 -0.01131813
v -0.01747634 0.08815181 -0.01116599
v -0.01756163 0.08823430 -0.00962125
v -0.01365448 0.08848696 -0.01013324
v -0.01365448 0.08900577 0.00904142
v -0.01365448 0.08902704 0.00734455
v -0.01365448 0.08906647 0.00395080
v -0.01365448 0.08908152 0.00225393
v -0.01416826 0.08900888 0.00055998
v -0.02030110 0.08814973 -0.00622751
v -0.01925730 0.08827166 -0.00283376
v -0.02265067 0.08773054 -0.00283376
v -0.02265067 0.08776478 -0.00622751
v -0.02265067 0.08777671 -0.00792438
v -0.02265067 0.08773002 -0.01131813
v -0.02025947 0.08814351 -0.00751772
v -0.01798504 0.08807969 -0.01163117
v -0.01843383 0.08812068 -0.01049895
v -0.01878312 0.08814610 -0.00962125
v -0.01416826 0.08886829 -0.00283376
v -0.01365448 0.08868152 -0.00673950
v -0.01365448 0.08906129 0.00055998
v -0.02001273 0.08810615 -0.00864994
v -0.01416826 0.08895493 -0.00113689
v -0.01937102 0.08819383 -0.00802093
v -0.01756163 0.08842834 -0.00622751
v -0.01365448 0.08899540 -0.00113689
v -0.01365448 0.08890512 -0.00283376
v -0.01365448 0.08880811 -0.00453064
f 1 2 3
f 1 3 10
f 1 10 16
f 1 16 30
f 1 30 43
f 1 43 56
f 1 56 55
f 1 55 54
f 1 54 69
f 1 69 82
f 1 82 99
f 1 99 107
f 1 107 106
f 1 106 105
f 1 105 100
f 1 100 86
f 1 86 85
f 1 85 84
f 1 84 83
f 1 83 70
f 1 70 57
f 1 57 44
f 1 44 32
f 1 32 17
f 1 17 11
f 1 11 5
f 1 5 4
f 1 4 2
f 2 4 5
f 2 5 6
f 2 6 7
f 2 7 8
f 2 8 3
f 3 8 9
f 3 9 10
f 5 11 6
f 6 12 7
f 6 11 12
f 7 12 13
f 7 13 8
f 8 13 9
f 9 13 20
f 9 20 37
f 9 37 49
f 9 49 62
f 9 62 61
f 9 61 66
f 9 66 65
f 9 65 64
f 9 64 63
f 9 63 75
f 9 75 76
f 9 76 67
f 9 67 53
f 9 53 52
f 9 52 41
f 9 41 51
f 9 51 50
f 9 50 38
f 9 38 24
f 9 24 23
f 9 23 22
f 9 22 21
f 9 21 14
f 9 14 10
f 10 14 15
f 10 15 25
f 10 25 38
f 10 38 50
f 10 50 39
f 10 39 26
f 10 26 16
f 11 17 18
f 11 18 12
f 12 18 13
f 13 18 19
f 13 19 20
f 14 21 15
f 15 21 22
f 15 22 23
f 15 23 24
f 15 24 25
f 16 26 27
f 16 27 28
f 16 28 29
f 16 29 30
f 17 31 19
f 17 19 18
f 17 32 31
f 19 31 33
f 19 33 34
f 19 34 35
f 19 35 36
f 19 36 37
f 19 37 20
f 24 38 25
f 26 39 40
f 26 40 27
f 27 40 41
f 27 41 28
f 28 41 42
f 28 42 29
f 29 42 30
f 30 42 43
f 31 32 33
f 32 44 33
f 33 44 45
f 33 45 34
f 34 45 35
f 35 45 46
f 35 46 47
f 35 47 48
f 35 48 36
f 36 48 49
f 36 49 37
f 39 50 51
f 39 51 40
f 40 51 41
f 41 52 42
f 42 52 53
f 42 53 54
f 42 54 55
f 42 55 56
f 42 56 43
f 44 57 58
f 44 58 45
f 45 58 46
f 46 58 59
f 46 59 47
f 47 59 60
f 47 60 48
f 48 61 62
f 48 62 49
f 48 60 63
f 48 63 64
f 48 64 65
f 48 65 66
f 48 66 61
f 53 67 54
f 54 67 68
f 54 68 69
f 57 70 58
f 58 70 71
f 58 71 72
f 58 72 59
f 59 72 73
f 59 73 74
f 59 74 60
f 60 74 63
f 63 74 90
f 63 90 75
f 67 76 77
f 67 77 78
f 67 78 68
f 68 78 69
f 69 79 80
f 69 80 81
f 69 81 82
f 69 78 77
f 69 77 79
f 70 83 71
f 71 83 84
f 71 84 85
f 71 85 86
f 71 86 87
f 71 87 88
f 71 88 89
f 71 89 72
f 72 89 73
f 73 89 74
f 74 89 88
f 74 88 90
f 75 90 91
f 75 91 92
f 75 92 76
f 76 93 77
f 76 92 88
f 76 88 94
f 76 94 93
f 77 93 95
f 77 95 80
f 77 80 79
f 80 95 93
f 80 93 96
f 80 96 97
f 80 97 81
f 81 97 98
f 81 98 99
f 81 99 82
f 86 100 87
f 87 100 94
f 87 94 88
f 88 92 91
f 88 91 90
f 93 94 101
f 93 101 96
f 94 102 103
f 94 103 101
f 94 100 102
f 96 101 97
f 97 101 103
f 97 103 104
f 97 104 98
f 98 104 105
f 98 105 106
f 98 106 107
f 98 107 99
f 100 105 102
f 102 105 104
f 102 104 103

