# https://github.com/mikedh/trimesh
v -0.00416872 -0.06684731 -0.00533254
v -0.00403381 -0.06684731 -0.00533254
v -0.00416898 -0.06684731 -0.00532016
v -0.00548363 -0.06380723 -0.00443922
v -0.00548363 -0.06379762 -0.00461368
v -0.00548363 -0.06375798 -0.00499352
v -0.00548363 -0.06370093 -0.00528181
v -0.00548363 -0.06368951 -0.00533254
v -0.00348295 -0.06626716 -0.00533254
v -0.00346991 -0.06684731 -0.00533006
v -0.00423657 -0.06684731 -0.00107505
v -0.00548363 -0.06381323 -0.00390595
v -0.00424622 -0.06684731 -0.00036856
v -0.00425483 -0.06684731 0.00033916
v -0.00548363 -0.06263852 -0.00533254
v -0.00348348 -0.06625635 -0.00533254
v -0.00281806 -0.06555969 0.00730753
v -0.00284598 -0.06626716 0.00670621
v -0.00291200 -0.06684731 0.00599849
v -0.00548363 -0.06380242 -0.00302377
v -0.00425483 -0.06684731 0.00046784
v -0.00434721 -0.06360063 -0.00533254
v -0.00548363 -0.06071249 0.00730753
v -0.00400746 -0.06186739 0.00730753
v -0.00352679 -0.06555969 -0.00533254
v -0.00289817 -0.06485222 0.00730753
v -0.00282354 -0.06626716 0.00730753
v -0.00352784 -0.06554888 -0.00533254
v -0.00360299 -0.06485222 -0.00533254
v -0.00289765 -0.06684731 0.00670621
v -0.00548363 -0.06379582 -0.00249050
v -0.00424622 -0.06684731 0.00104565
v -0.00548363 -0.06375858 -0.00036856
v -0.00548363 -0.06377780 -0.00107505
v -0.00399937 -0.06391893 -0.00533254
v -0.00548363 -0.06178391 0.00730753
v -0.00372903 -0.06216767 0.00730753
v -0.00399467 -0.06392374 -0.00533254
v -0.00292140 -0.06473571 0.00730753
v -0.00289817 -0.06684731 0.00730753
v -0.00360560 -0.06484081 -0.00533254
v -0.00303934 -0.06414475 0.00730753
v -0.00548363 -0.06370213 0.00033916
v -0.00424048 -0.06684731 0.00117309
v -0.00548363 -0.06180193 0.00725680
v -0.00358655 -0.06684731 0.00730753
v -0.00350774 -0.06273041 0.00730753
v -0.00375982 -0.06427627 -0.00533254
v -0.00399180 -0.06392794 -0.00533254
v -0.00315051 -0.06372795 0.00730753
v -0.00306596 -0.06404085 0.00730753
v -0.00548363 -0.06362045 0.00093553
v -0.00548363 -0.06350274 0.00173110
v -0.00418725 -0.06684731 0.00175337
v -0.00548363 -0.06337301 0.00246110
v -0.00548363 -0.06228238 0.00588837
v -0.00548363 -0.06249198 0.00529076
v -0.00548363 -0.06266014 0.00478348
v -0.00548363 -0.06299225 0.00376025
v -0.00548363 -0.06314060 0.00329503
v -0.00548363 -0.06318023 0.00316882
f 1 2 10
f 1 10 19
f 1 19 30
f 1 30 40
f 1 40 46
f 1 46 54
f 1 54 44
f 1 44 32
f 1 32 21
f 1 21 14
f 1 14 13
f 1 13 11
f 1 11 3
f 1 3 4
f 1 4 5
f 1 5 6
f 1 6 7
f 1 7 8
f 1 8 15
f 1 15 22
f 1 22 35
f 1 35 38
f 1 38 49
f 1 49 48
f 1 48 41
f 1 41 29
f 1 29 28
f 1 28 25
f 1 25 16
f 1 16 9
f 1 9 2
f 2 9 10
f 3 11 4
f 4 12 20
f 4 20 31
f 4 31 34
f 4 34 33
f 4 33 43
f 4 43 52
f 4 52 53
f 4 53 55
f 4 55 61
f 4 61 60
f 4 60 59
f 4 59 58
f 4 58 57
f 4 57 56
f 4 56 45
f 4 45 36
f 4 36 23
f 4 23 15
f 4 15 8
f 4 8 7
f 4 7 6
f 4 6 5
f 4 11 13
f 4 13 14
f 4 14 12
f 9 16 17
f 9 17 10
f 10 17 18
f 10 18 19
f 12 14 21
f 12 21 20
f 15 23 24
f 15 24 22
f 16 25 17
f 17 26 39
f 17 39 42
f 17 42 51
f 17 51 50
f 17 50 47
f 17 47 37
f 17 37 24
f 17 24 23
f 17 23 36
f 17 36 46
f 17 46 40
f 17 40 27
f 17 27 18
f 17 25 28
f 17 28 29
f 17 29 26
f 18 27 19
f 19 27 30
f 20 21 31
f 21 32 33
f 21 33 34
f 21 34 31
f 22 24 35
f 24 37 38
f 24 38 35
f 26 29 39
f 27 40 30
f 29 41 42
f 29 42 39
f 32 43 33
f 32 44 43
f 36 45 46
f 37 47 48
f 37 48 49
f 37 49 38
f 41 48 50
f 41 50 51
f 41 51 42
f 43 44 52
f 44 53 52
f 44 54 55
f 44 55 53
f 45 56 46
f 46 56 57
f 46 57 58
f 46 58 59
f 46 59 60
f 46 60 61
f 46 61 54
f 47 50 48
f 54 61 55

