# https://github.com/mikedh/trimesh
v -0.01288154 -0.05683839 -0.02187195
v -0.01092539 -0.05683839 -0.02891807
v -0.01362324 -0.05683839 -0.02187195
v -0.01092539 -0.06526427 -0.02187195
v -0.01092539 -0.05683839 -0.03009108
v -0.01366489 -0.05683839 -0.02233938
v -0.01381475 -0.05728760 -0.02187195
v -0.01092539 -0.06651901 -0.02187195
v -0.01092539 -0.05702509 -0.02997604
v -0.01110282 -0.05693790 -0.02986903
v -0.01113391 -0.05683839 -0.02990202
v -0.01345930 -0.05683839 -0.02442474
v -0.01381475 -0.05728760 -0.02215675
v -0.01384965 -0.05774628 -0.02187195
v -0.01127263 -0.06622712 -0.02187195
v -0.01092539 -0.06650953 -0.02188563
v -0.01092539 -0.05858498 -0.02899852
v -0.01123451 -0.05683839 -0.02980628
v -0.01097202 -0.05957531 -0.02833398
v -0.01340973 -0.05683839 -0.02490102
v -0.01383323 -0.05777755 -0.02227663
v -0.01390244 -0.05847410 -0.02187195
v -0.01338422 -0.05683839 -0.02513193
v -0.01159905 -0.06588500 -0.02187195
v -0.01095355 -0.06591344 -0.02265637
v -0.01092539 -0.06595134 -0.02262499
v -0.01092539 -0.05960848 -0.02835570
v -0.01149112 -0.05683839 -0.02955929
v -0.01092539 -0.05971272 -0.02828973
v -0.01092539 -0.06082720 -0.02758093
v -0.01320473 -0.05683839 -0.02631540
v -0.01317306 -0.05707058 -0.02654630
v -0.01384936 -0.05919339 -0.02230237
v -0.01391476 -0.05919339 -0.02187195
v -0.01163541 -0.06584425 -0.02187195
v -0.01161342 -0.06585847 -0.02188563
v -0.01092539 -0.06592007 -0.02266522
v -0.01098815 -0.06523963 -0.02340700
v -0.01092539 -0.06525764 -0.02342953
v -0.01165741 -0.05742027 -0.02901944
v -0.01180317 -0.05694832 -0.02917311
v -0.01183836 -0.05683839 -0.02920690
v -0.01092539 -0.06087838 -0.02754795
v -0.01316954 -0.05683839 -0.02654630
v -0.01309593 -0.05683839 -0.02698236
v -0.01309798 -0.05707058 -0.02697994
v -0.01329946 -0.05848547 -0.02583992
v -0.01378923 -0.05919339 -0.02269579
v -0.01392121 -0.05990037 -0.02187195
v -0.01193514 -0.06549456 -0.02187195
v -0.01166298 -0.06450138 -0.02336677
v -0.01103566 -0.06388918 -0.02489056
v -0.01101308 -0.06456393 -0.02415039
v -0.01092539 -0.06347030 -0.02547868
v -0.01193749 -0.05683839 -0.02910231
v -0.01111338 -0.06131526 -0.02706925
v -0.01159201 -0.05872713 -0.02824306
v -0.01251026 -0.05907114 -0.02705074
v -0.01092539 -0.06175594 -0.02697431
v -0.01098757 -0.06172466 -0.02693570
v -0.01296220 -0.05683839 -0.02733635
v -0.01295926 -0.05707058 -0.02733394
v -0.01308889 -0.05777755 -0.02694052
v -0.01314403 -0.05841629 -0.02654389
v -0.01340710 -0.05919339 -0.02513193
v -0.01385229 -0.05990037 -0.02230237
v -0.01378542 -0.06030124 -0.02267005
v -0.01390625 -0.06059218 -0.02187195
v -0.01223751 -0.06513538 -0.02187195
v -0.01227270 -0.06509274 -0.02187195
v -0.01231112 -0.06504441 -0.02187195
v -0.01247360 -0.06463406 -0.02209561
v -0.01167882 -0.06381336 -0.02409568
v -0.01105209 -0.06320779 -0.02562511
v -0.01092539 -0.06294054 -0.02605473
v -0.01218531 -0.05683839 -0.02883923
v -0.01243166 -0.05823528 -0.02767506
v -0.01174920 -0.06039790 -0.02699362
v -0.01132894 -0.06064430 -0.02727762
v -0.01236450 -0.05954214 -0.02689708
v -0.01277391 -0.05927489 -0.02660181
v -0.01298185 -0.05860677 -0.02677801
v -0.01092539 -0.06191515 -0.02686972
v -0.01160433 -0.06086985 -0.02683835
v -0.01247565 -0.05683839 -0.02848764
v -0.01307657 -0.05813483 -0.02690190
v -0.01313376 -0.05900670 -0.02630655
v -0.01322028 -0.05922277 -0.02588095
v -0.01378923 -0.05990037 -0.02269418
v -0.01379041 -0.06245912 -0.02199102
v -0.01380302 -0.06202224 -0.02206423
v -0.01382062 -0.06131526 -0.02216802
v -0.01382853 -0.06056564 -0.02234019
v -0.01387106 -0.06131526 -0.02187195
v -0.01257008 -0.06471556 -0.02187195
v -0.01289973 -0.06429289 -0.02187195
v -0.01312907 -0.06385980 -0.02202320
v -0.01231963 -0.06372807 -0.02329517
v -0.01230467 -0.06441704 -0.02256707
v -0.01169260 -0.06312534 -0.02482379
v -0.01152397 -0.06287515 -0.02529525
v -0.01128114 -0.06269225 -0.02580371
v -0.01092539 -0.06282113 -0.02616495
v -0.01234925 -0.05739942 -0.02829777
v -0.01246656 -0.05692842 -0.02845225
v -0.01225481 -0.05990037 -0.02677318
v -0.01255865 -0.05990037 -0.02641918
v -0.01303757 -0.05947865 -0.02614323
v -0.01116324 -0.06198528 -0.02654067
v -0.01092539 -0.06213691 -0.02670801
v -0.01242403 -0.06034388 -0.02626230
v -0.01316426 -0.05976200 -0.02567177
v -0.01375639 -0.06292633 -0.02187195
v -0.01376108 -0.06289979 -0.02187195
v -0.01380302 -0.06253778 -0.02187195
v -0.01381798 -0.06232834 -0.02187195
v -0.01383557 -0.06202224 -0.02187195
v -0.01385024 -0.06173319 -0.02187195
v -0.01302085 -0.06413747 -0.02187195
v -0.01316925 -0.06394225 -0.02187195
v -0.01314197 -0.06317083 -0.02275050
v -0.01296014 -0.06364278 -0.02249466
v -0.01250204 -0.06325707 -0.02355182
v -0.01233077 -0.06303247 -0.02402328
v -0.01167823 -0.06240415 -0.02551086
v -0.01103830 -0.06250840 -0.02630092
v -0.01297363 -0.06292822 -0.02322196
v -0.01293375 -0.05995912 -0.02588095
v -0.01305663 -0.06023395 -0.02546983
v -0.01316954 -0.06060829 -0.02495251
v -0.01165536 -0.06166401 -0.02618828
v -0.01227681 -0.06081583 -0.02606438
v -0.01318245 -0.06125366 -0.02437888
v -0.01325752 -0.06270741 -0.02299588
v -0.01349772 -0.06343524 -0.02187195
v -0.01327483 -0.06341913 -0.02227663
v -0.01312584 -0.06245628 -0.02343436
v -0.01229734 -0.06155597 -0.02538696
v -0.01205128 -0.06137402 -0.02589141
v -0.01154362 -0.06202224 -0.02603059
v -0.01308449 -0.06097599 -0.02479161
f 1 2 5
f 1 5 11
f 1 11 18
f 1 18 28
f 1 28 42
f 1 42 55
f 1 55 76
f 1 76 85
f 1 85 61
f 1 61 45
f 1 45 44
f 1 44 31
f 1 31 23
f 1 23 20
f 1 20 12
f 1 12 6
f 1 6 3
f 1 3 7
f 1 7 14
f 1 14 22
f 1 22 34
f 1 34 49
f 1 49 68
f 1 68 94
f 1 94 118
f 1 118 117
f 1 117 116
f 1 116 115
f 1 115 114
f 1 114 113
f 1 113 135
f 1 135 120
f 1 120 119
f 1 119 96
f 1 96 95
f 1 95 71
f 1 71 70
f 1 70 69
f 1 69 50
f 1 50 35
f 1 35 24
f 1 24 15
f 1 15 8
f 1 8 4
f 1 4 2
f 2 4 8
f 2 8 16
f 2 16 26
f 2 26 37
f 2 37 39
f 2 39 54
f 2 54 75
f 2 75 103
f 2 103 110
f 2 110 83
f 2 83 59
f 2 59 43
f 2 43 30
f 2 30 29
f 2 29 27
f 2 27 17
f 2 17 9
f 2 9 5
f 3 6 7
f 5 9 10
f 5 10 11
f 6 12 13
f 6 13 7
f 7 13 14
f 8 15 16
f 9 17 10
f 10 18 11
f 10 17 19
f 10 19 18
f 12 20 13
f 13 21 22
f 13 22 14
f 13 20 23
f 13 23 21
f 15 24 25
f 15 25 16
f 16 25 26
f 17 27 19
f 18 19 28
f 19 27 29
f 19 29 30
f 19 30 28
f 21 23 31
f 21 31 32
f 21 32 33
f 21 33 34
f 21 34 22
f 24 35 36
f 24 36 25
f 25 37 26
f 25 36 38
f 25 38 39
f 25 39 37
f 28 40 41
f 28 41 42
f 28 30 40
f 30 43 41
f 30 41 40
f 31 44 32
f 32 44 45
f 32 45 46
f 32 46 47
f 32 47 48
f 32 48 33
f 33 48 49
f 33 49 34
f 35 50 36
f 36 50 51
f 36 51 52
f 36 52 53
f 36 53 38
f 38 53 54
f 38 54 39
f 41 55 42
f 41 43 56
f 41 56 57
f 41 57 58
f 41 58 55
f 43 59 60
f 43 60 56
f 45 61 46
f 46 61 62
f 46 62 63
f 46 63 47
f 47 63 64
f 47 64 65
f 47 65 49
f 47 49 48
f 49 65 66
f 49 66 67
f 49 67 68
f 50 69 51
f 51 69 70
f 51 70 71
f 51 71 72
f 51 72 73
f 51 73 74
f 51 74 52
f 52 74 54
f 52 54 53
f 54 74 75
f 55 58 77
f 55 77 76
f 56 78 79
f 56 79 57
f 56 60 78
f 57 79 58
f 58 80 81
f 58 81 82
f 58 82 77
f 58 79 78
f 58 78 80
f 59 83 60
f 60 83 84
f 60 84 78
f 61 85 62
f 62 85 63
f 63 86 64
f 63 85 86
f 64 86 87
f 64 87 88
f 64 88 65
f 65 89 66
f 65 88 90
f 65 90 91
f 65 91 67
f 65 67 89
f 66 89 67
f 67 91 92
f 67 92 93
f 67 93 68
f 68 93 94
f 71 95 72
f 72 95 96
f 72 96 97
f 72 97 98
f 72 98 99
f 72 99 73
f 73 98 100
f 73 100 74
f 73 99 98
f 74 100 101
f 74 101 102
f 74 102 75
f 75 102 103
f 76 104 105
f 76 105 85
f 76 77 104
f 77 82 105
f 77 105 104
f 78 84 80
f 80 106 107
f 80 107 81
f 80 84 106
f 81 107 108
f 81 108 82
f 82 108 87
f 82 87 86
f 82 86 105
f 83 109 84
f 83 110 109
f 84 111 106
f 84 109 111
f 85 105 86
f 87 108 112
f 87 112 113
f 87 113 114
f 87 114 88
f 88 114 90
f 90 114 115
f 90 115 116
f 90 116 117
f 90 117 91
f 91 117 118
f 91 118 92
f 92 94 93
f 92 118 94
f 96 119 97
f 97 119 120
f 97 120 121
f 97 121 122
f 97 122 98
f 98 122 100
f 100 123 121
f 100 121 124
f 100 124 101
f 100 122 123
f 101 124 102
f 102 125 126
f 102 126 103
f 102 124 127
f 102 127 125
f 103 126 110
f 106 111 107
f 107 111 108
f 108 111 128
f 108 128 129
f 108 129 130
f 108 130 112
f 109 110 126
f 109 126 111
f 111 126 131
f 111 131 132
f 111 132 128
f 112 130 113
f 113 130 133
f 113 133 134
f 113 134 135
f 120 135 136
f 120 136 121
f 121 127 124
f 121 123 122
f 121 136 135
f 121 135 134
f 121 134 137
f 121 137 127
f 125 137 138
f 125 138 139
f 125 139 131
f 125 131 140
f 125 140 126
f 125 127 137
f 126 140 131
f 128 132 141
f 128 141 129
f 129 141 130
f 130 141 133
f 131 139 132
f 132 139 138
f 132 138 141
f 133 141 134
f 134 141 137
f 137 141 138

