# https://github.com/mikedh/trimesh
v -0.01092510 -0.06526401 -0.02187308
v -0.01092510 -0.06651862 -0.02187308
v -0.00777098 -0.06645953 -0.02187308
v -0.01092510 -0.05357121 -0.03082364
v -0.01092510 -0.06595109 -0.02262494
v -0.01088651 -0.06655160 -0.02187308
v -0.00777098 -0.06749566 -0.02187308
v -0.00777098 -0.05357121 -0.03262763
v -0.01092510 -0.05357121 -0.03188716
v -0.01092510 -0.06592086 -0.02266475
v -0.01085162 -0.06656809 -0.02188901
v -0.01083711 -0.06658871 -0.02187308
v -0.00785156 -0.06754101 -0.02187308
v -0.00777098 -0.06729915 -0.02214038
v -0.00777098 -0.05357121 -0.03349095
v -0.01061327 -0.05357121 -0.03210668
v -0.01040024 -0.05424043 -0.03195995
v -0.01092510 -0.05423081 -0.03159028
v -0.01028415 -0.06451921 -0.02480542
v -0.01008470 -0.06583704 -0.02326873
v -0.01012638 -0.06692813 -0.02187308
v -0.01044346 -0.06677834 -0.02187308
v -0.01092510 -0.06525714 -0.02342911
v -0.01082383 -0.06367822 -0.02536277
v -0.01039591 -0.06319726 -0.02631367
v -0.01035207 -0.06385961 -0.02557092
v -0.00847708 -0.06760971 -0.02187308
v -0.00792412 -0.06743107 -0.02207669
v -0.00777098 -0.06721670 -0.02225072
v -0.00846689 -0.05357258 -0.03339882
v -0.00846040 -0.05357121 -0.03339996
v -0.00777098 -0.05396559 -0.03330783
v -0.00822422 -0.05391887 -0.03328280
v -0.00974971 -0.05357121 -0.03270612
v -0.00964814 -0.05547306 -0.03192924
v -0.01011990 -0.05510753 -0.03176659
v -0.01092510 -0.05459908 -0.03142308
v -0.00971483 -0.06528737 -0.02416504
v -0.00961294 -0.06594834 -0.02340750
v -0.00940886 -0.06726617 -0.02187308
v -0.01092510 -0.06407535 -0.02478494
v -0.01092510 -0.06346934 -0.02547879
v -0.01086736 -0.06298014 -0.02609642
v -0.00989174 -0.06329482 -0.02639216
v -0.00989174 -0.06364799 -0.02602817
v -0.01036164 -0.06248544 -0.02699500
v -0.00989174 -0.06395168 -0.02567443
v -0.00877285 -0.06752589 -0.02187308
v -0.00893618 -0.06737748 -0.02200503
v -0.00847708 -0.06744207 -0.02208692
v -0.00777098 -0.06677147 -0.02284333
v -0.00777098 -0.06524340 -0.02482021
v -0.00777098 -0.06614485 -0.02366342
v -0.00869597 -0.05383367 -0.03323389
v -0.00883738 -0.05357121 -0.03329645
v -0.00846781 -0.05357121 -0.03339882
v -0.00883275 -0.05530403 -0.03256166
v -0.00777098 -0.05431738 -0.03312925
v -0.00847708 -0.05678126 -0.03188488
v -0.00847708 -0.05636352 -0.03209190
v -0.00886887 -0.05676615 -0.03187578
v -0.00847708 -0.05535625 -0.03258555
v -0.00973150 -0.05357121 -0.03271863
v -0.00961109 -0.05399995 -0.03261057
v -0.01092510 -0.05482033 -0.03131843
v -0.00899082 -0.06745856 -0.02187308
v -0.01092510 -0.06294029 -0.02605547
v -0.01092510 -0.06282074 -0.02616580
v -0.01083340 -0.06219549 -0.02677320
v -0.00989174 -0.06290868 -0.02674590
v -0.00819056 -0.06451096 -0.02549699
v -0.00866232 -0.06446424 -0.02545376
v -0.00813684 -0.06520904 -0.02478267
v -0.00918441 -0.06440378 -0.02538324
v -0.00918441 -0.06471434 -0.02502950
v -0.00918441 -0.06506888 -0.02462115
v -0.00918441 -0.06537532 -0.02426741
v -0.00989174 -0.06255552 -0.02705529
v -0.01027242 -0.06169941 -0.02763197
v -0.00957033 -0.06027852 -0.02904354
v -0.00847708 -0.06714387 -0.02244067
v -0.00777098 -0.06488474 -0.02517509
v -0.00918502 -0.05357121 -0.03308944
v -0.00777098 -0.05494812 -0.03280849
v -0.00777098 -0.05536862 -0.03259351
v -0.00800192 -0.05675241 -0.03187237
v -0.00847708 -0.05713443 -0.03169607
v -0.01041536 -0.05565582 -0.03127862
v -0.00935792 -0.05636352 -0.03171313
v -0.00847708 -0.05769234 -0.03134232
v -0.00900966 -0.05759615 -0.03128545
v -0.00917514 -0.05705472 -0.03149587
v -0.01092510 -0.05520097 -0.03111711
v -0.01092510 -0.06213640 -0.02670837
v -0.01092510 -0.06191516 -0.02687102
v -0.01076054 -0.06131465 -0.02742382
v -0.00918441 -0.06335117 -0.02642400
v -0.00777098 -0.06453158 -0.02551519
v -0.00847708 -0.06678934 -0.02285129
v -0.00918441 -0.06030463 -0.02906629
v -0.01040703 -0.06131465 -0.02775482
v -0.00957744 -0.05818979 -0.03047331
v -0.00967407 -0.05903078 -0.02985454
v -0.00847708 -0.05804550 -0.03106478
v -0.00777098 -0.05572178 -0.03240583
v -0.00777098 -0.05641299 -0.03202479
v -0.00777098 -0.05767447 -0.03130023
v -0.00964351 -0.05687059 -0.03123540
v -0.01027797 -0.05605708 -0.03117284
v -0.01091121 -0.05524082 -0.03110687
v -0.00777098 -0.05802626 -0.03106137
v -0.00777098 -0.05853745 -0.03066554
v -0.00777098 -0.05883565 -0.03043122
v -0.00948111 -0.05734193 -0.03109322
v -0.01092510 -0.05523395 -0.03109777
v -0.01092510 -0.06087766 -0.02754894
v -0.01090534 -0.06088866 -0.02756259
v -0.00847708 -0.05957083 -0.02975103
v -0.00887690 -0.05955434 -0.02973625
v -0.01092510 -0.05960930 -0.02835539
v -0.01033880 -0.06038983 -0.02839975
v -0.00992786 -0.05712343 -0.03082478
v -0.01011527 -0.05652842 -0.03102725
v -0.01092510 -0.05548817 -0.03094080
v -0.01092510 -0.06082682 -0.02758192
v -0.01092510 -0.05613128 -0.03053928
v -0.01092510 -0.05565582 -0.03083615
f 1 2 6
f 1 6 12
f 1 12 22
f 1 22 21
f 1 21 40
f 1 40 66
f 1 66 48
f 1 48 27
f 1 27 13
f 1 13 7
f 1 7 3
f 1 3 4
f 1 4 9
f 1 9 18
f 1 18 37
f 1 37 65
f 1 65 93
f 1 93 115
f 1 115 124
f 1 124 127
f 1 127 126
f 1 126 120
f 1 120 125
f 1 125 116
f 1 116 95
f 1 95 94
f 1 94 68
f 1 68 67
f 1 67 42
f 1 42 41
f 1 41 23
f 1 23 10
f 1 10 5
f 1 5 2
f 2 5 6
f 3 7 14
f 3 14 29
f 3 29 51
f 3 51 53
f 3 53 52
f 3 52 82
f 3 82 98
f 3 98 113
f 3 113 112
f 3 112 111
f 3 111 107
f 3 107 106
f 3 106 105
f 3 105 85
f 3 85 84
f 3 84 58
f 3 58 32
f 3 32 15
f 3 15 8
f 3 8 4
f 4 8 15
f 4 15 31
f 4 31 56
f 4 56 55
f 4 55 83
f 4 83 63
f 4 63 34
f 4 34 16
f 4 16 9
f 5 10 11
f 5 11 6
f 6 11 12
f 7 13 14
f 9 16 17
f 9 17 18
f 10 19 20
f 10 20 21
f 10 21 22
f 10 22 12
f 10 12 11
f 10 23 24
f 10 24 25
f 10 25 26
f 10 26 19
f 13 27 28
f 13 28 14
f 14 28 29
f 15 30 31
f 15 32 33
f 15 33 30
f 16 34 17
f 17 34 35
f 17 35 36
f 17 36 18
f 18 36 37
f 19 38 39
f 19 39 20
f 19 26 38
f 20 39 40
f 20 40 21
f 23 41 24
f 24 41 42
f 24 42 43
f 24 43 25
f 25 44 45
f 25 45 26
f 25 43 46
f 25 46 44
f 26 45 47
f 26 47 38
f 27 48 49
f 27 49 50
f 27 50 28
f 28 51 29
f 28 50 52
f 28 52 53
f 28 53 51
f 30 54 55
f 30 55 56
f 30 56 31
f 30 33 57
f 30 57 54
f 32 58 59
f 32 59 60
f 32 60 61
f 32 61 62
f 32 62 33
f 33 62 57
f 34 63 64
f 34 64 35
f 35 64 57
f 35 57 61
f 35 61 36
f 36 61 65
f 36 65 37
f 38 49 39
f 38 47 49
f 39 49 66
f 39 66 40
f 42 67 43
f 43 67 68
f 43 68 69
f 43 69 46
f 44 46 70
f 44 70 71
f 44 71 72
f 44 72 45
f 45 72 73
f 45 73 74
f 45 74 75
f 45 75 76
f 45 76 77
f 45 77 47
f 46 78 70
f 46 69 79
f 46 79 80
f 46 80 78
f 47 77 49
f 48 66 49
f 49 81 50
f 49 77 81
f 50 81 52
f 52 73 72
f 52 72 71
f 52 71 82
f 52 81 73
f 54 57 55
f 55 57 83
f 57 62 61
f 57 64 63
f 57 63 83
f 58 84 59
f 59 61 60
f 59 84 85
f 59 85 86
f 59 86 87
f 59 87 61
f 61 88 89
f 61 89 65
f 61 87 90
f 61 90 91
f 61 91 92
f 61 92 88
f 65 89 88
f 65 88 93
f 68 94 69
f 69 94 95
f 69 95 96
f 69 96 79
f 70 78 97
f 70 97 71
f 71 97 98
f 71 98 82
f 73 77 76
f 73 76 75
f 73 75 74
f 73 81 99
f 73 99 77
f 77 99 81
f 78 80 100
f 78 100 97
f 79 96 101
f 79 101 102
f 79 102 103
f 79 103 91
f 79 91 80
f 80 91 90
f 80 90 104
f 80 104 100
f 85 105 86
f 86 105 106
f 86 106 107
f 86 107 87
f 87 107 90
f 88 92 108
f 88 108 109
f 88 109 110
f 88 110 93
f 90 107 111
f 90 111 112
f 90 112 113
f 90 113 104
f 91 103 102
f 91 102 114
f 91 114 92
f 92 114 108
f 93 110 115
f 95 116 117
f 95 117 96
f 96 117 101
f 97 100 98
f 98 100 118
f 98 118 113
f 100 104 119
f 100 119 118
f 101 117 120
f 101 120 121
f 101 121 102
f 102 122 114
f 102 121 122
f 104 113 118
f 104 118 119
f 108 114 109
f 109 123 124
f 109 124 110
f 109 114 123
f 110 124 115
f 114 122 123
f 116 125 117
f 117 125 120
f 120 126 121
f 121 126 122
f 122 126 123
f 123 126 127
f 123 127 124

