# https://github.com/mikedh/trimesh
v -0.00292799 -0.06083953 -0.01608389
v -0.00222868 -0.06083953 -0.01923942
v -0.00366953 -0.06083953 -0.01608389
v -0.00255305 -0.06357300 -0.01608389
v -0.00245328 -0.06373055 -0.01624538
v -0.00210966 -0.06083953 -0.01994713
v -0.00226233 -0.06131517 -0.01876459
v -0.00366210 -0.06083953 -0.01616945
v -0.00446559 -0.06400776 -0.02187138
v -0.00446559 -0.06682521 -0.01608389
v -0.00253541 -0.06395425 -0.01608389
v -0.00245328 -0.06383014 -0.01624538
v -0.00209527 -0.06083953 -0.02065427
v -0.00215513 -0.06131517 -0.01947173
v -0.00311314 -0.06083953 -0.02187195
v -0.00313890 -0.06089601 -0.02187195
v -0.00319296 -0.06102012 -0.02187195
v -0.00446466 -0.06400628 -0.02187195
v -0.00446559 -0.06436673 -0.02187195
v -0.00446559 -0.06843200 -0.01608389
v -0.00253541 -0.06399290 -0.01608389
v -0.00245328 -0.06383014 -0.01644596
v -0.00223773 -0.06202269 -0.01876459
v -0.00271175 -0.06469819 -0.01608389
v -0.00218274 -0.06083953 -0.02140052
v -0.00215722 -0.06131517 -0.02017888
v -0.00227022 -0.06083953 -0.02187195
v -0.00446559 -0.06539382 -0.02187195
v -0.00446559 -0.06824174 -0.01662842
v -0.00443218 -0.06838963 -0.01608389
v -0.00248135 -0.06375433 -0.01691740
v -0.00242126 -0.06319025 -0.01791692
v -0.00299041 -0.06549192 -0.01608389
v -0.00229597 -0.06138206 -0.02094835
v -0.00233588 -0.06101789 -0.02187195
v -0.00444540 -0.06537821 -0.02187195
v -0.00446559 -0.06578177 -0.02140448
v -0.00446559 -0.06823505 -0.01664598
v -0.00373009 -0.06689433 -0.01664202
v -0.00369366 -0.06701770 -0.01608389
v -0.00384865 -0.06667583 -0.01785686
v -0.00241894 -0.06248422 -0.01933517
v -0.00302590 -0.06558631 -0.01608389
v -0.00236024 -0.06192162 -0.02017888
v -0.00241824 -0.06177893 -0.02075400
v -0.00235908 -0.06121633 -0.02159430
v -0.00238785 -0.06114572 -0.02187195
v -0.00430712 -0.06522660 -0.02187195
v -0.00446559 -0.06626782 -0.02079140
v -0.00446559 -0.06773414 -0.01794922
v -0.00318089 -0.06592595 -0.01608389
v -0.00333240 -0.06625147 -0.01608389
v -0.00404563 -0.06693743 -0.01807841
v -0.00422707 -0.06697459 -0.01876459
v -0.00400851 -0.06624849 -0.01950516
v -0.00384262 -0.06600027 -0.01929211
v -0.00378925 -0.06612810 -0.01876459
v -0.00373217 -0.06631612 -0.01807841
v -0.00301314 -0.06420397 -0.01881048
v -0.00313124 -0.06459563 -0.01860480
v -0.00307370 -0.06332180 -0.02088659
v -0.00384169 -0.06529349 -0.02069904
v -0.00312985 -0.06318356 -0.02142828
v -0.00303542 -0.06271981 -0.02187195
v -0.00409227 -0.06495831 -0.02187195
v -0.00446559 -0.06643058 -0.02056305
v -0.00382707 -0.06461198 -0.02187195
v -0.00446559 -0.06728822 -0.01898444
v -0.00439761 -0.06699317 -0.01943094
v -0.00444564 -0.06768211 -0.01799001
v -0.00421315 -0.06626707 -0.02017888
v -0.00390317 -0.06516938 -0.02117047
v -0.00378809 -0.06542578 -0.02017888
v -0.00372753 -0.06561232 -0.01950516
v -0.00379320 -0.06469522 -0.02159430
v -0.00377023 -0.06447969 -0.02187195
v -0.00446559 -0.06670258 -0.02017888
v -0.00446559 -0.06714033 -0.01932214
v -0.00446559 -0.06679623 -0.02000832
f 1 2 6
f 1 6 13
f 1 13 25
f 1 25 27
f 1 27 15
f 1 15 8
f 1 8 3
f 1 3 10
f 1 10 20
f 1 20 30
f 1 30 40
f 1 40 52
f 1 52 51
f 1 51 43
f 1 43 33
f 1 33 24
f 1 24 21
f 1 21 11
f 1 11 4
f 1 4 5
f 1 5 2
f 2 5 7
f 2 7 6
f 3 8 9
f 3 9 10
f 4 11 5
f 5 11 21
f 5 21 12
f 5 12 6
f 5 6 7
f 6 12 14
f 6 14 13
f 8 15 16
f 8 16 17
f 8 17 9
f 9 18 19
f 9 19 28
f 9 28 37
f 9 37 49
f 9 49 66
f 9 66 77
f 9 77 79
f 9 79 78
f 9 78 68
f 9 68 50
f 9 50 38
f 9 38 29
f 9 29 20
f 9 20 10
f 9 17 18
f 12 22 13
f 12 13 23
f 12 23 14
f 12 21 24
f 12 24 22
f 13 14 23
f 13 22 26
f 13 26 25
f 15 27 35
f 15 35 47
f 15 47 64
f 15 64 76
f 15 76 67
f 15 67 65
f 15 65 48
f 15 48 36
f 15 36 28
f 15 28 19
f 15 19 18
f 15 18 17
f 15 17 16
f 20 29 30
f 22 31 32
f 22 32 26
f 22 24 31
f 24 33 31
f 25 26 32
f 25 32 34
f 25 34 27
f 27 34 35
f 28 36 37
f 29 38 30
f 30 39 40
f 30 38 41
f 30 41 39
f 31 33 32
f 32 42 34
f 32 33 43
f 32 43 42
f 34 44 45
f 34 45 46
f 34 46 35
f 34 42 44
f 35 46 47
f 36 48 37
f 37 48 49
f 38 50 41
f 39 41 51
f 39 51 52
f 39 52 40
f 41 50 53
f 41 53 54
f 41 54 55
f 41 55 56
f 41 56 57
f 41 57 58
f 41 58 43
f 41 43 51
f 42 45 44
f 42 43 59
f 42 59 45
f 43 58 57
f 43 57 56
f 43 56 60
f 43 60 59
f 45 61 46
f 45 59 61
f 46 61 47
f 47 61 62
f 47 62 63
f 47 63 64
f 48 65 49
f 49 65 67
f 49 67 66
f 50 68 69
f 50 69 70
f 50 70 53
f 53 70 54
f 54 69 55
f 54 70 69
f 55 69 71
f 55 71 72
f 55 72 62
f 55 62 56
f 56 62 73
f 56 73 74
f 56 74 59
f 56 59 60
f 59 74 61
f 61 74 73
f 61 73 62
f 62 72 75
f 62 75 64
f 62 64 63
f 64 75 76
f 66 67 77
f 67 76 75
f 67 75 72
f 67 72 77
f 68 78 69
f 69 78 79
f 69 79 71
f 71 79 77
f 71 77 72

