# https://github.com/mikedh/trimesh
v -0.01490630 -0.06684731 -0.00533254
v -0.01430491 -0.06684731 -0.00533254
v -0.01490630 -0.06684731 -0.00532016
v -0.01489335 -0.06626717 0.00529076
v -0.01486096 -0.06566625 0.00730753
v -0.01485422 -0.06555996 0.00730753
v -0.01486536 -0.06626717 -0.00533254
v -0.01225950 -0.06346506 -0.00533254
v -0.01417872 -0.06684731 -0.00533006
v -0.01490604 -0.06684731 0.00400399
v -0.01489335 -0.06626717 0.00599849
v -0.01488350 -0.06626717 0.00730753
v -0.01489127 -0.06626717 0.00670621
v -0.01477157 -0.06495905 0.00730753
v -0.01478063 -0.06557125 -0.00533254
v -0.01225950 -0.06240395 -0.00533254
v -0.01225950 -0.06346625 -0.00532016
v -0.01225950 -0.06349831 -0.00497001
v -0.01225950 -0.06350781 -0.00425734
v -0.01410643 -0.06684731 0.00730753
v -0.01490319 -0.06684731 0.00471171
v -0.01488117 -0.06637405 0.00730753
v -0.01489179 -0.06684731 0.00612593
v -0.01489853 -0.06684731 0.00541820
v -0.01475524 -0.06485216 0.00730753
v -0.01477908 -0.06555996 -0.00533254
v -0.01388748 -0.06371683 -0.00533254
v -0.01225950 -0.06078112 0.00730753
v -0.01225950 -0.06351910 -0.00107505
v -0.01225950 -0.06336115 0.00175337
v -0.01225950 -0.06325664 0.00246110
v -0.01225950 -0.06319548 0.00287311
v -0.01225950 -0.06304584 0.00387531
v -0.01225950 -0.06300190 0.00416731
v -0.01225950 -0.06297459 0.00434053
v -0.01225950 -0.06292233 0.00464861
v -0.01225950 -0.06282495 0.00502351
v -0.01225950 -0.06273410 0.00529076
v -0.01225950 -0.06245205 0.00599849
v -0.01225950 -0.06233210 0.00627564
v -0.01225950 -0.06217059 0.00664435
v -0.01225950 -0.06213081 0.00673467
v -0.01225950 -0.06187488 0.00730753
v -0.01485707 -0.06684731 0.00730753
v -0.01225950 -0.06351613 -0.00038217
v -0.01225950 -0.06349831 0.00033916
v -0.01225950 -0.06345081 0.00104565
v -0.01487728 -0.06684731 0.00683365
v -0.01464512 -0.06425124 0.00730753
v -0.01466326 -0.06486344 -0.00533254
v -0.01424117 -0.06404757 -0.00533254
v -0.01392894 -0.06222819 0.00730753
v -0.01354364 -0.06187845 0.00730753
v -0.01462543 -0.06414495 0.00730753
v -0.01466118 -0.06485216 -0.00533254
v -0.01454148 -0.06439554 -0.00533254
v -0.01396340 -0.06227569 0.00730753
v -0.01454640 -0.06440147 -0.00533254
v -0.01452386 -0.06363132 0.00730753
v -0.01424091 -0.06281901 0.00730753
v -0.01450831 -0.06357848 0.00730753
v -0.01441166 -0.06332018 0.00670621
f 1 2 9
f 1 9 20
f 1 20 44
f 1 44 48
f 1 48 23
f 1 23 24
f 1 24 21
f 1 21 10
f 1 10 3
f 1 3 11
f 1 11 4
f 1 4 5
f 1 5 6
f 1 6 7
f 1 7 15
f 1 15 26
f 1 26 50
f 1 50 55
f 1 55 58
f 1 58 56
f 1 56 51
f 1 51 27
f 1 27 16
f 1 16 8
f 1 8 2
f 2 8 9
f 3 10 11
f 4 11 5
f 5 12 22
f 5 22 44
f 5 44 20
f 5 20 43
f 5 43 28
f 5 28 53
f 5 53 52
f 5 52 57
f 5 57 60
f 5 60 61
f 5 61 59
f 5 59 54
f 5 54 49
f 5 49 25
f 5 25 14
f 5 14 6
f 5 11 13
f 5 13 12
f 6 14 15
f 6 15 7
f 8 16 28
f 8 28 43
f 8 43 42
f 8 42 41
f 8 41 40
f 8 40 39
f 8 39 38
f 8 38 37
f 8 37 36
f 8 36 35
f 8 35 34
f 8 34 33
f 8 33 32
f 8 32 31
f 8 31 30
f 8 30 47
f 8 47 46
f 8 46 45
f 8 45 29
f 8 29 19
f 8 19 18
f 8 18 17
f 8 17 9
f 9 17 18
f 9 18 19
f 9 19 20
f 10 21 13
f 10 13 11
f 12 13 23
f 12 23 22
f 13 21 24
f 13 24 23
f 14 25 26
f 14 26 15
f 16 27 28
f 19 29 20
f 20 30 31
f 20 31 32
f 20 32 33
f 20 33 34
f 20 34 35
f 20 35 36
f 20 36 37
f 20 37 38
f 20 38 39
f 20 39 40
f 20 40 41
f 20 41 42
f 20 42 43
f 20 29 45
f 20 45 46
f 20 46 47
f 20 47 30
f 22 23 48
f 22 48 44
f 25 49 50
f 25 50 26
f 27 51 52
f 27 52 53
f 27 53 28
f 49 54 55
f 49 55 50
f 51 56 52
f 52 56 58
f 52 58 57
f 54 59 55
f 55 59 58
f 57 58 60
f 58 59 61
f 58 61 62
f 58 62 60
f 60 62 61

