# https://github.com/mikedh/trimesh
v -0.00847682 -0.05631492 -0.01608389
v -0.00914152 -0.05649601 -0.01608389
v -0.00834419 -0.05633996 -0.01608389
v -0.00834419 -0.05432643 -0.01813507
v -0.00834419 -0.05397240 -0.01849997
v -0.00847682 -0.05432701 -0.01813563
v -0.00918443 -0.05357179 -0.01902863
v -0.01159983 -0.05603950 -0.01774240
v -0.01201410 -0.05798083 -0.01608389
v -0.00948284 -0.05357179 -0.01913799
v -0.00974966 -0.05378665 -0.01902353
v -0.00992520 -0.05357179 -0.01930628
v -0.00996967 -0.05357179 -0.01932668
v -0.01059926 -0.05434331 -0.01888528
v -0.00834419 -0.05744629 -0.01608389
v -0.00847682 -0.05397356 -0.01850054
v -0.00834419 -0.05362012 -0.01886431
v -0.00847682 -0.05363118 -0.01885468
v -0.00847682 -0.05357179 -0.01891644
v -0.01232890 -0.05733042 -0.01703015
v -0.01232890 -0.05795113 -0.01629184
v -0.01232890 -0.05803731 -0.01619948
v -0.01106307 -0.05448131 -0.01901163
v -0.01101353 -0.05381111 -0.01974258
v -0.01232890 -0.05819394 -0.01609806
v -0.01232890 -0.05821607 -0.01608389
v -0.00998917 -0.05357179 -0.01933688
v -0.01053373 -0.05357179 -0.01962925
v -0.01232890 -0.05951980 -0.01608389
v -0.00834419 -0.05741485 -0.01614395
v -0.00834419 -0.05357179 -0.01891474
v -0.00835862 -0.05357179 -0.01891474
v -0.01232890 -0.05680695 -0.01775940
v -0.01173285 -0.05521149 -0.01898727
v -0.01055674 -0.05357179 -0.01964682
v -0.01086569 -0.05357179 -0.01990293
v -0.01109818 -0.05357179 -0.02022137
v -0.01232890 -0.05924321 -0.01652303
v -0.00834419 -0.05702705 -0.01663862
v -0.01232890 -0.05548750 -0.02174729
v -0.00834419 -0.05357179 -0.02001626
v -0.01232890 -0.05630386 -0.01848127
v -0.01111222 -0.05357179 -0.02024574
v -0.01166380 -0.05357179 -0.02123450
v -0.01174689 -0.05377850 -0.02108491
v -0.01232890 -0.05592712 -0.01902580
v -0.00834419 -0.05678307 -0.01691966
v -0.01232890 -0.05537046 -0.02187195
v -0.01092849 -0.05357179 -0.02187195
v -0.01201215 -0.05357179 -0.02187195
v -0.01232890 -0.05448422 -0.02111324
v -0.01227702 -0.05470724 -0.02069677
v -0.01232890 -0.05483651 -0.02060328
v -0.01232890 -0.05396891 -0.02187195
v -0.01232890 -0.05398404 -0.02184928
v -0.01232890 -0.05415698 -0.02159430
f 1 2 9
f 1 9 26
f 1 26 29
f 1 29 15
f 1 15 3
f 1 3 4
f 1 4 5
f 1 5 6
f 1 6 7
f 1 7 2
f 2 8 9
f 2 7 10
f 2 10 11
f 2 11 12
f 2 12 13
f 2 13 14
f 2 14 8
f 3 15 30
f 3 30 39
f 3 39 47
f 3 47 41
f 3 41 31
f 3 31 17
f 3 17 5
f 3 5 4
f 5 16 6
f 5 17 16
f 6 16 7
f 7 16 18
f 7 18 19
f 7 19 32
f 7 32 31
f 7 31 41
f 7 41 49
f 7 49 50
f 7 50 44
f 7 44 43
f 7 43 37
f 7 37 36
f 7 36 35
f 7 35 28
f 7 28 27
f 7 27 13
f 7 13 12
f 7 12 10
f 8 20 21
f 8 21 22
f 8 22 9
f 8 14 23
f 8 23 24
f 8 24 20
f 9 22 25
f 9 25 26
f 10 12 11
f 13 27 14
f 14 27 28
f 14 28 23
f 15 29 30
f 16 17 18
f 17 31 32
f 17 32 18
f 18 32 19
f 20 33 42
f 20 42 46
f 20 46 53
f 20 53 51
f 20 51 56
f 20 56 55
f 20 55 54
f 20 54 48
f 20 48 40
f 20 40 38
f 20 38 29
f 20 29 26
f 20 26 25
f 20 25 22
f 20 22 21
f 20 24 34
f 20 34 33
f 23 28 35
f 23 35 24
f 24 35 36
f 24 36 37
f 24 37 34
f 29 38 30
f 30 38 40
f 30 40 39
f 33 34 42
f 34 37 43
f 34 43 44
f 34 44 45
f 34 45 46
f 34 46 42
f 39 40 47
f 40 48 47
f 41 48 49
f 41 47 48
f 44 50 51
f 44 51 45
f 45 51 52
f 45 52 53
f 45 53 46
f 48 54 50
f 48 50 49
f 50 54 55
f 50 55 56
f 50 56 51
f 51 53 52

