# https://github.com/mikedh/trimesh
v 0.05519016 0.00892162 -0.02966246
v 0.05519016 0.01049147 -0.02964175
v 0.05675928 0.00734829 -0.02962105
v 0.05675928 0.00577670 -0.02962623
v 0.05519016 0.00105846 -0.02964693
v 0.05361540 0.01206480 -0.02965728
v 0.05361540 0.01363639 -0.02965728
v 0.05361540 0.01520972 -0.02961588
v 0.05675928 0.00892162 -0.02955377
v 0.05833404 0.00892162 -0.02935192
v 0.05833404 0.00734829 -0.02941403
v 0.05519016 0.01206480 -0.02958483
v 0.05990881 0.00734829 -0.02920183
v 0.06147793 0.00734829 -0.02898963
v 0.05990881 0.00577670 -0.02918630
v 0.05675928 0.00420337 -0.02958483
v 0.05519016 0.00036460 -0.02964175
v 0.05074808 0.01808403 -0.02963658
v 0.05204627 0.01520972 -0.02965211
v 0.05204627 0.01678131 -0.02965211
v 0.05204627 0.01808403 -0.02963141
v 0.05231720 0.01808403 -0.02961070
v 0.05361540 0.01678131 -0.02953307
v 0.05519016 0.01363639 -0.02950201
v 0.05833404 0.01206480 -0.02918113
v 0.05990881 0.01049147 -0.02906208
v 0.05990881 0.00892162 -0.02914490
v 0.05519016 0.01678131 -0.02933122
v 0.06147793 0.00577670 -0.02896375
v 0.06147793 0.00892162 -0.02890682
v 0.06286078 0.00734829 -0.02863768
v 0.06287207 0.00577670 -0.02862216
v 0.05675928 0.00036460 -0.02947096
v 0.05675928 0.00105846 -0.02949167
v 0.05675928 0.00263005 -0.02953825
v 0.05361540 0.00036460 -0.02958483
v 0.05047715 0.01808403 -0.02962105
v 0.05361540 0.01808403 -0.02946061
v 0.05833404 0.01520972 -0.02899480
v 0.05990881 0.01206480 -0.02895340
v 0.05519016 0.01808403 -0.02925876
v 0.05675928 0.01808403 -0.02905174
v 0.06147793 0.00263005 -0.02886541
v 0.06269145 0.00036460 -0.02853935
v 0.05833404 0.01678131 -0.02885506
v 0.06147793 0.01049147 -0.02874638
v 0.06271403 0.00892162 -0.02858075
v 0.06350423 0.00892162 -0.02824434
v 0.06364534 0.00734829 -0.02830127
v 0.06366228 0.00577670 -0.02831679
v 0.06356068 0.00263005 -0.02828057
v 0.06347601 0.00036460 -0.02825469
v 0.06303575 0.00036460 -0.02841513
v 0.06147793 0.00036460 -0.02879296
v 0.05204627 0.00036460 -0.02936227
v 0.04890239 0.01808403 -0.02943473
v 0.04917896 0.01808403 -0.02947096
v 0.05703585 0.01808403 -0.02900516
v 0.05842435 0.01808403 -0.02867909
v 0.05865577 0.01808403 -0.02861698
v 0.05997654 0.01516288 -0.02860146
v 0.06150615 0.01192256 -0.02856523
v 0.06244310 0.01049147 -0.02846171
v 0.06322766 0.01049147 -0.02814083
v 0.06544023 0.01293559 -0.02683139
v 0.06555877 0.01206480 -0.02689350
v 0.06838656 0.01520972 -0.02515966
v 0.06569987 0.01049147 -0.02697631
v 0.06462745 0.00892162 -0.02766466
v 0.06462745 0.00577670 -0.02783546
v 0.06462745 0.00734829 -0.02777853
v 0.06683438 0.00420337 -0.02673823
v 0.06462745 0.00420337 -0.02783029
v 0.06462745 0.00263005 -0.02779923
v 0.06462745 0.00036460 -0.02774748
v 0.06400093 0.00036460 -0.02802696
v 0.06684002 0.00263005 -0.02674858
v 0.05047715 0.00036460 -0.02913454
v 0.04733327 0.01808403 -0.02921218
v 0.05897749 0.01808403 -0.02851347
v 0.05927100 0.01790883 -0.02844619
v 0.05951371 0.01678131 -0.02853417
v 0.06098122 0.01363639 -0.02849794
v 0.06227942 0.01130502 -0.02839443
v 0.06290029 0.01192256 -0.02804249
v 0.06420413 0.01520972 -0.02697113
v 0.06467825 0.01353058 -0.02704877
v 0.06619657 0.01520972 -0.02614821
v 0.06737059 0.01678131 -0.02540292
v 0.06759636 0.01520972 -0.02553231
v 0.06815515 0.01678131 -0.02505097
v 0.06919370 0.01678131 -0.02426428
v 0.06947592 0.01519063 -0.02425910
v 0.06947592 0.01049147 -0.02477149
v 0.06956623 0.00892162 -0.02485948
v 0.06850510 0.01363639 -0.02521659
v 0.06921063 0.00105846 -0.02557371
v 0.06658038 0.00892162 -0.02659331
v 0.06667070 0.00734829 -0.02664507
v 0.06905259 0.00420337 -0.02552195
v 0.06597644 0.00577670 -0.02712640
v 0.06914290 0.00263005 -0.02556336
v 0.06999519 0.00105846 -0.02517519
v 0.06605546 0.00263005 -0.02712123
v 0.06840914 0.00036460 -0.02595671
v 0.06722948 0.00036460 -0.02651568
v 0.06956058 0.00036460 -0.02540292
v 0.04890239 0.00036460 -0.02880848
v 0.04417246 0.01808403 -0.02868944
v 0.04446032 0.01808403 -0.02874638
v 0.04602944 0.01808403 -0.02901033
v 0.05923149 0.01808403 -0.02843066
v 0.05946855 0.01808403 -0.02834267
v 0.06137068 0.01516288 -0.02810459
v 0.06285514 0.01808403 -0.02704877
v 0.06147793 0.01808403 -0.02758186
v 0.06376952 0.01739364 -0.02678999
v 0.06713917 0.01795220 -0.02530975
v 0.06711095 0.01808403 -0.02529941
v 0.06779956 0.01808403 -0.02493711
v 0.06898486 0.01808403 -0.02408831
v 0.06912033 0.01808403 -0.02395892
v 0.06997826 0.01678131 -0.02350346
v 0.07009115 0.01570062 -0.02362250
v 0.07015888 0.01465289 -0.02371049
v 0.07022097 0.01363639 -0.02378295
v 0.07031692 0.01206480 -0.02388646
v 0.07040723 0.01049147 -0.02398479
v 0.07050318 0.00892162 -0.02407278
v 0.06965653 0.00734829 -0.02493711
v 0.06974685 0.00577670 -0.02500439
v 0.06983716 0.00420337 -0.02507168
v 0.06992746 0.00263005 -0.02512861
v 0.06861234 0.01177338 -0.02527870
v 0.07000084 0.00036460 -0.02518037
v 0.07091522 0.00105846 -0.02445060
v 0.07091522 0.00036460 -0.02447130
v 0.07040159 0.00036460 -0.02487500
v 0.04792028 0.00036460 -0.02849277
v 0.04255254 0.01808403 -0.02828574
v 0.04313390 0.01808403 -0.02847206
v 0.06362841 0.01808403 -0.02673305
v 0.06461052 0.01808403 -0.02632936
v 0.06977507 0.01808403 -0.02328091
v 0.07047496 0.01808403 -0.02249421
v 0.07125952 0.01808403 -0.02159883
v 0.07193684 0.01808403 -0.02081731
v 0.07064993 0.01678131 -0.02271677
v 0.07143449 0.01678131 -0.02178515
v 0.07208923 0.01678131 -0.02099846
v 0.07065558 0.01519063 -0.02301695
v 0.07492268 0.00734829 -0.01904725
v 0.07427923 0.00734829 -0.01983394
v 0.07601204 0.00263005 -0.01846240
v 0.07610799 0.00105846 -0.01858144
v 0.07185782 0.01049147 -0.02228719
v 0.07532343 0.00105846 -0.01951823
v 0.07302055 0.00420337 -0.02180068
v 0.07164333 0.00293534 -0.02360697
v 0.07175622 0.00105846 -0.02373636
v 0.07059349 0.00734829 -0.02415041
v 0.07068945 0.00577670 -0.02421770
v 0.07077975 0.00420337 -0.02428498
v 0.07129903 0.00036460 -0.02415041
v 0.04184700 0.00036460 -0.02523730
v 0.04022144 0.01427821 -0.02684174
v 0.04103986 0.01808403 -0.02774748
v 0.04132772 0.01808403 -0.02785099
v 0.07272704 0.01808403 -0.01989087
v 0.07339307 0.01808403 -0.01910418
v 0.07445420 0.01808403 -0.01782580
v 0.07486624 0.01769373 -0.01740657
v 0.07287379 0.01678131 -0.02003579
v 0.07308263 0.01363639 -0.02028940
v 0.07461225 0.01206480 -0.01866425
v 0.07591044 0.00420337 -0.01833301
v 0.07646358 0.00533610 -0.01744798
v 0.07653131 0.00420337 -0.01754631
v 0.07662726 0.00263005 -0.01767570
v 0.07611928 0.00036460 -0.01859697
v 0.07672322 0.00105846 -0.01779474
v 0.07533472 0.00036460 -0.01952858
v 0.07281171 0.00036460 -0.02252009
v 0.07250127 0.00036460 -0.02288756
v 0.07176751 0.00036460 -0.02375189
v 0.04108502 0.00036460 -0.02467833
v 0.04033433 0.00525977 -0.02518554
v 0.03977554 0.01808403 -0.02714193
v 0.04020451 0.00630750 -0.02529423
v 0.03084059 0.01808403 -0.02052748
v 0.07483237 0.01808403 -0.01734964
v 0.07501863 0.01808403 -0.01691489
v 0.07512588 0.01808403 -0.01666128
v 0.07639020 0.00638383 -0.01732894
v 0.07492268 0.01678131 -0.01748938
v 0.07430180 0.01678131 -0.01827608
v 0.07440340 0.01520972 -0.01841064
v 0.07737231 0.00105846 -0.01659400
v 0.07673451 0.00036460 -0.01781027
v 0.07740053 0.00036460 -0.01659400
v 0.07703365 0.00036460 -0.01726683
v 0.04008597 0.00036460 -0.02386058
v 0.03128084 0.00036460 -0.01543983
v 0.03047935 0.00036460 -0.01465314
v 0.03009554 0.01808403 -0.01969420
v 0.07632811 0.01808403 -0.01374223
v 0.07619265 0.01533808 -0.01495850
v 0.07640714 0.01116972 -0.01577625
v 0.07665548 0.00734829 -0.01638697
v 0.07671757 0.00582700 -0.01671821
v 0.07785772 0.00105846 -0.01548124
v 0.07786901 0.00036460 -0.01550712
v 0.02867882 0.01808403 -0.01795519
v 0.02912472 0.01808403 -0.01850898
v 0.02970044 0.01808403 -0.01921287
v 0.02996007 0.00036460 -0.01345239
v 0.02343525 0.01808403 -0.01061615
v 0.02407306 0.01808403 -0.01183242
v 0.02419158 0.01808403 -0.01199286
v 0.07659340 0.01808403 -0.01309010
v 0.07724249 0.01206480 -0.01345239
v 0.07801577 0.00358063 -0.01429084
v 0.07848424 0.00263005 -0.01345239
v 0.07868744 0.00105846 -0.01345239
v 0.07871566 0.00036460 -0.01345239
v 0.02719436 0.00036460 -0.00156915
v 0.02337316 0.01808403 -0.01040395
v 0.07668370 0.01808403 -0.01284684
v 0.07795368 0.00940558 -0.01255183
v 0.07802141 0.00835785 -0.01273815
v 0.07808914 0.00734829 -0.01289860
v 0.07906561 0.00263005 -0.01187900
v 0.07931396 0.00100468 -0.01176514
v 0.07958488 0.00044439 -0.01116476
v 0.07958488 0.00036460 -0.01116476
v 0.02704196 0.00036460 -0.00087561
v 0.02252087 0.01808403 -0.00545087
v 0.07702801 0.01808403 -0.01187900
v 0.07720298 0.01678131 -0.01187900
v 0.07813994 0.01049147 -0.01155294
v 0.07898094 0.00577670 -0.01030561
v 0.07952844 0.00156150 -0.01030561
v 0.07963004 0.00077571 -0.01030561
v 0.08011545 0.00036460 -0.00401722
v 0.07959053 0.00036460 -0.01110266
v 0.07805527 0.01176470 -0.01129415
v 0.07798754 0.01281417 -0.01103537
v 0.02707019 0.00036460 0.00000424
v 0.02252087 0.01571103 0.00384456
v 0.02252087 0.01557399 0.00246267
v 0.02252087 0.01557573 0.00226599
v 0.02252087 0.01808403 0.00701204
v 0.07736102 0.01808403 -0.01030561
v 0.07871001 0.00892162 -0.00873222
v 0.07793110 0.01367455 -0.01042982
v 0.07830363 0.01520972 -0.00401722
v 0.07793110 0.01808403 -0.00402757
v 0.07924623 0.00577670 -0.00715883
v 0.07946071 0.00410103 -0.00709154
v 0.07987839 0.00263005 -0.00401722
v 0.07983324 0.00105846 -0.00715883
v 0.08007030 0.00105846 -0.00401722
v 0.08014931 0.00036460 -0.00331851
v 0.02713792 0.00036460 0.00069778
v 0.02252087 0.01599378 0.00432589
v 0.02359329 0.01808403 0.00861131
v 0.02252087 0.01780128 0.00668080
v 0.02736933 0.00036460 0.00136026
v 0.03112280 0.00036460 0.01164941
v 0.03146711 0.00036460 0.01253444
v 0.03176061 0.00036460 0.01327973
v 0.03202589 0.00036460 0.01377659
v 0.03225731 0.00036460 0.01419064
v 0.07869873 0.01206480 -0.00401722
v 0.07801577 0.01776485 -0.00351519
v 0.07794803 0.01808403 -0.00381020
v 0.07889628 0.01049147 -0.00401722
v 0.07959053 0.00519559 -0.00356694
v 0.08013238 0.00105846 -0.00244901
v 0.08017754 0.00036460 -0.00244901
v 0.02252087 0.01712303 0.00588376
v 0.02252087 0.01642570 0.00506083
v 0.02434963 0.01808403 0.00972925
v 0.03317733 0.00036460 0.01481171
v 0.03366274 0.01808403 0.01902985
v 0.02821034 0.01808403 0.01468750
v 0.02699117 0.01808403 0.01354886
v 0.02685570 0.01808403 0.01336254
v 0.02587359 0.01808403 0.01197029
v 0.07798754 0.01808403 -0.00314254
v 0.07856327 0.01363639 -0.00244901
v 0.07950586 0.00609240 -0.00244901
v 0.07803270 0.01788107 -0.00244901
v 0.07959053 0.00520600 -0.00158468
v 0.07965262 0.00420337 -0.00140870
v 0.07974857 0.00263005 -0.00112922
v 0.07981630 0.00108447 -0.00076693
v 0.07988403 0.00036460 -0.00081351
v 0.08005900 0.00036460 -0.00175547
v 0.03480854 0.01808403 0.01979585
v 0.04167767 0.00036460 0.02046868
v 0.07800448 0.01808403 -0.00244901
v 0.07802141 0.01779087 -0.00158985
v 0.07931396 0.00574721 -0.00098430
v 0.07874953 0.00105846 0.00227117
v 0.07960181 0.00057796 0.00001977
v 0.07960746 0.00036460 0.00003012
v 0.03539555 0.01808403 0.02013226
v 0.04261463 0.00036460 0.02103282
v 0.07785208 0.01808403 -0.00126379
v 0.07803270 0.01316283 0.00001977
v 0.07772226 0.01808403 -0.00092737
v 0.07778999 0.01678131 -0.00062201
v 0.07790288 0.01520972 -0.00034253
v 0.07785772 0.00263005 0.00424308
v 0.07801012 0.00036460 0.00460538
v 0.03577936 0.01787934 0.02027718
v 0.03599949 0.01808403 0.02039104
v 0.04399748 0.00036460 0.02170565
v 0.07763760 0.01808403 -0.00072035
v 0.07749084 0.01520972 0.00069778
v 0.07714654 0.00892162 0.00384456
v 0.07720298 0.00420337 0.00541277
v 0.07742311 0.00263005 0.00541277
v 0.07759244 0.00577670 0.00384456
v 0.07781821 0.01206480 0.00100314
v 0.07769968 0.00093530 0.00526786
v 0.07798190 0.00036460 0.00468301
v 0.03644539 0.01808403 0.02052561
v 0.04443774 0.00036460 0.02186610
v 0.04478204 0.00036460 0.02199031
v 0.07705059 0.01808403 0.00069778
v 0.07725379 0.01678131 0.00069778
v 0.07697157 0.00577670 0.00541277
v 0.07690384 0.01049147 0.00384456
v 0.07653131 0.00577670 0.00645825
v 0.07665548 0.00420337 0.00673773
v 0.07671193 0.00255372 0.00710003
v 0.07694334 0.00105846 0.00698616
v 0.07696028 0.00036460 0.00698616
v 0.03764199 0.01808403 0.02088273
v 0.04532954 0.00036460 0.02211970
v 0.04418939 0.01808403 0.02276148
v 0.04262027 0.01808403 0.02234743
v 0.04234934 0.01808403 0.02226979
v 0.04135030 0.01808403 0.02197996
v 0.07694899 0.01808403 0.00093586
v 0.07658211 0.01363639 0.00343568
v 0.07458402 0.01684549 0.00691371
v 0.07388413 0.01678131 0.00855956
v 0.07629989 0.00420337 0.00752443
v 0.07637891 0.00302555 0.00770040
v 0.07642971 0.00197782 0.00778839
v 0.07647487 0.00105846 0.00784014
v 0.07648051 0.00036460 0.00784532
v 0.04575851 0.00036460 0.02221804
v 0.04663902 0.00036460 0.02240436
v 0.04733327 0.00036460 0.02254928
v 0.04820814 0.00036460 0.02273043
v 0.04890239 0.00036460 0.02287017
v 0.04575851 0.01808403 0.02307719
v 0.07650873 0.01808403 0.00196063
v 0.07482108 0.01741098 0.00614254
v 0.07475899 0.01808403 0.00600280
v 0.07332534 0.01776659 0.00942906
v 0.07341000 0.01678131 0.00955328
v 0.07352289 0.01520972 0.00969302
v 0.07361884 0.01363639 0.00978618
v 0.07371479 0.01206480 0.00987417
v 0.07379382 0.01049147 0.00996215
v 0.07480415 0.00577670 0.00929449
v 0.07484366 0.00493539 0.00934107
v 0.07433567 0.00432827 0.01000873
v 0.07580884 0.00105846 0.00862684
v 0.07618701 0.00036460 0.00819209
v 0.05047715 0.00036460 0.02311342
v 0.04733327 0.01678131 0.02317553
v 0.04733327 0.01808403 0.02318588
v 0.07569595 0.01808403 0.00384456
v 0.07500170 0.01808403 0.00544383
v 0.07346080 0.01808403 0.00895290
v 0.07292459 0.01808403 0.00978618
v 0.07254078 0.01808403 0.01020541
v 0.07271576 0.01678131 0.01033997
v 0.07284558 0.01520972 0.01047971
v 0.07295846 0.01363639 0.01057288
v 0.07304877 0.01206480 0.01066086
v 0.07312779 0.01049147 0.01074885
v 0.07325196 0.00788430 0.01089376
v 0.07502428 0.00105846 0.00955328
v 0.07211746 0.00105846 0.01297954
v 0.07581448 0.00036460 0.00863201
v 0.05204627 0.00036460 0.02310824
v 0.05047715 0.00105846 0.02312378
v 0.05047715 0.00734829 0.02318070
v 0.05047715 0.01049147 0.02320658
v 0.04890239 0.01678131 0.02315483
v 0.04890239 0.01808403 0.02306166
v 0.05047715 0.01206480 0.02321176
v 0.07190297 0.01808403 0.01087306
v 0.07180702 0.01802505 0.01099210
v 0.06858976 0.01787240 0.01409748
v 0.07193120 0.01678131 0.01109044
v 0.07174493 0.00838214 0.01252926
v 0.07181266 0.00734829 0.01259655
v 0.07189733 0.00577670 0.01268971
v 0.07204408 0.00263005 0.01288638
v 0.07502992 0.00036460 0.00955845
v 0.07139498 0.00105846 0.01376624
v 0.07140628 0.00036460 0.01377141
v 0.07212310 0.00036460 0.01298472
v 0.05292114 0.00036460 0.02300991
v 0.05204627 0.00420337 0.02308754
v 0.05047715 0.01363639 0.02316000
v 0.05047715 0.01520972 0.02305649
v 0.05047715 0.01678131 0.02294263
v 0.05047715 0.01808403 0.02284429
v 0.05204627 0.00577670 0.02307719
v 0.05204627 0.00892162 0.02305649
v 0.05204627 0.01049147 0.02304614
v 0.05519016 0.00892162 0.02269937
v 0.05361540 0.01049147 0.02285982
v 0.05204627 0.01206480 0.02301508
v 0.06830755 0.01808403 0.01431485
v 0.06702628 0.00527712 0.01724944
v 0.06709966 0.00420337 0.01732189
v 0.06718433 0.00263005 0.01742023
v 0.06724077 0.00105846 0.01748234
v 0.06723512 0.00036460 0.01747716
v 0.05449591 0.00036460 0.02282876
v 0.05519016 0.00105846 0.02274595
v 0.05519016 0.01049147 0.02265279
v 0.05361540 0.01206480 0.02279771
v 0.05204627 0.01363639 0.02293228
v 0.05204627 0.01520972 0.02281841
v 0.05204627 0.01808403 0.02260621
v 0.05177535 0.01808403 0.02264761
v 0.05675928 0.00734829 0.02252857
v 0.05675928 0.00892162 0.02250270
v 0.06764152 0.01808403 0.01488935
v 0.06703193 0.01626438 0.01567604
v 0.06725206 0.01363639 0.01586237
v 0.06685696 0.00734829 0.01709934
v 0.06633204 0.00579058 0.01775664
v 0.06619657 0.00420337 0.01805166
v 0.06604982 0.00259362 0.01831044
v 0.06542895 0.00204374 0.01879177
v 0.06604982 0.00099774 0.01836737
v 0.06611191 0.00036460 0.01831044
v 0.05519016 0.00036460 0.02274595
v 0.05675928 0.01049147 0.02242507
v 0.05519016 0.01206480 0.02255963
v 0.05519016 0.01363639 0.02244577
v 0.05361540 0.01808403 0.02236295
v 0.05675928 0.00577670 0.02252857
v 0.05828889 0.00734829 0.02218181
v 0.05824373 0.00892162 0.02216111
v 0.06685696 0.01808403 0.01553113
v 0.06352681 0.01678131 0.01852264
v 0.06694162 0.01731211 0.01559841
v 0.06366228 0.01520972 0.01863650
v 0.06606111 0.01516288 0.01664389
v 0.06658603 0.01049147 0.01687679
v 0.06471776 0.01206480 0.01820693
v 0.06606675 0.00734829 0.01775664
v 0.06385418 0.01295120 0.01879695
v 0.06393320 0.01206480 0.01885388
v 0.06406866 0.01049147 0.01895222
v 0.06520882 0.00577670 0.01864686
v 0.06531606 0.00420337 0.01872449
v 0.06537814 0.00309320 0.01876072
v 0.06542895 0.00147997 0.01879177
v 0.06226813 0.00502213 0.02035481
v 0.06540072 0.00043225 0.01877625
v 0.06539508 0.00036460 0.01877625
v 0.05606503 0.00036460 0.02258033
v 0.05675928 0.00420337 0.02250787
v 0.05808569 0.01049147 0.02211453
v 0.05785427 0.01206480 0.02203689
v 0.05607632 0.01788628 0.02196443
v 0.05519016 0.01678131 0.02221286
v 0.05525789 0.01808403 0.02209382
v 0.05824373 0.00577670 0.02217663
v 0.05907345 0.00734829 0.02190750
v 0.05902829 0.00892162 0.02189197
v 0.06496611 0.01808403 0.01707347
v 0.06274225 0.01678131 0.01916442
v 0.06418720 0.00892162 0.01901950
v 0.06287772 0.01520972 0.01924723
v 0.06169241 0.01520972 0.02003392
v 0.06179965 0.01363639 0.02009603
v 0.06188432 0.01206480 0.02014779
v 0.06197462 0.01049147 0.02019437
v 0.06205929 0.00892162 0.02024095
v 0.06214395 0.00734829 0.02028753
v 0.06226813 0.00490764 0.02035481
v 0.05990881 0.00577670 0.02148828
v 0.06224555 0.00385818 0.02034446
v 0.05990881 0.00892162 0.02142099
v 0.05990881 0.00734829 0.02148828
v 0.06469519 0.00036460 0.01910231
v 0.05990881 0.00420337 0.02144170
v 0.05675928 0.00036460 0.02242507
v 0.05675928 0.00263005 0.02247682
v 0.05887025 0.01049147 0.02182986
v 0.05864448 0.01206480 0.02174706
v 0.05766801 0.01319752 0.02196961
v 0.05673670 0.01808403 0.02170048
v 0.05630773 0.01808403 0.02185574
v 0.05576024 0.01808403 0.02200066
v 0.05817035 0.00420337 0.02215075
v 0.05902829 0.00577670 0.02189197
v 0.06101509 0.01363639 0.02053078
v 0.06090785 0.01520972 0.02046350
v 0.06415333 0.01808403 0.01773594
v 0.06335183 0.01808403 0.01838807
v 0.06256163 0.01808403 0.01902468
v 0.06146099 0.01808403 0.01975444
v 0.06138197 0.01685069 0.02002357
v 0.06078932 0.01637193 0.02040139
v 0.06305269 0.00105846 0.01988383
v 0.06177707 0.00036460 0.02044797
v 0.05990881 0.00263005 0.02138476
v 0.06133682 0.00036460 0.02064982
v 0.05744224 0.00036460 0.02222321
v 0.05808005 0.00263005 0.02211970
v 0.05824938 0.01368843 0.02169530
v 0.06064257 0.01742139 0.02033411
v 0.06003298 0.01685069 0.02063430
v 0.05833404 0.01520972 0.02147275
v 0.05833404 0.01808403 0.02111045
v 0.05887025 0.00263005 0.02183504
v 0.05895491 0.00420337 0.02186610
v 0.06123522 0.01808403 0.01988383
v 0.06052968 0.01808403 0.02028753
v 0.05990881 0.00105846 0.02132265
v 0.05990881 0.00036460 0.02129160
v 0.05793330 0.00036460 0.02206277
v 0.05837355 0.00036460 0.02190750
v 0.05976205 0.01808403 0.02058254
v 0.05871786 0.00036460 0.02178328
f 1 2 3
f 1 3 4
f 1 4 5
f 1 5 6
f 1 6 7
f 1 7 2
f 2 7 8
f 2 8 3
f 3 9 10
f 3 10 27
f 3 27 11
f 3 11 4
f 3 8 12
f 3 12 9
f 4 11 13
f 4 13 14
f 4 14 15
f 4 15 16
f 4 16 17
f 4 17 5
f 5 17 18
f 5 18 19
f 5 19 6
f 6 19 20
f 6 20 7
f 7 20 21
f 7 21 8
f 8 21 22
f 8 22 23
f 8 23 24
f 8 24 12
f 9 12 24
f 9 24 10
f 10 25 26
f 10 26 27
f 10 24 28
f 10 28 25
f 11 27 13
f 13 27 14
f 14 29 15
f 14 27 30
f 14 30 31
f 14 31 32
f 14 32 29
f 15 29 33
f 15 33 34
f 15 34 35
f 15 35 16
f 16 35 17
f 17 35 34
f 17 34 33
f 17 33 54
f 17 54 44
f 17 44 53
f 17 53 52
f 17 52 76
f 17 76 75
f 17 75 106
f 17 106 105
f 17 105 107
f 17 107 135
f 17 135 138
f 17 138 137
f 17 137 164
f 17 164 185
f 17 185 184
f 17 184 183
f 17 183 182
f 17 182 180
f 17 180 199
f 17 199 201
f 17 201 200
f 17 200 212
f 17 212 225
f 17 225 235
f 17 235 245
f 17 245 244
f 17 244 263
f 17 263 280
f 17 280 299
f 17 299 298
f 17 298 307
f 17 307 316
f 17 316 328
f 17 328 340
f 17 340 355
f 17 355 375
f 17 375 392
f 17 392 408
f 17 408 411
f 17 411 410
f 17 410 429
f 17 429 449
f 17 449 475
f 17 475 501
f 17 501 522
f 17 522 524
f 17 524 537
f 17 537 541
f 17 541 539
f 17 539 538
f 17 538 525
f 17 525 503
f 17 503 476
f 17 476 450
f 17 450 430
f 17 430 412
f 17 412 393
f 17 393 376
f 17 376 360
f 17 360 359
f 17 359 358
f 17 358 357
f 17 357 356
f 17 356 342
f 17 342 331
f 17 331 330
f 17 330 319
f 17 319 309
f 17 309 301
f 17 301 284
f 17 284 273
f 17 273 272
f 17 272 271
f 17 271 270
f 17 270 269
f 17 269 268
f 17 268 264
f 17 264 248
f 17 248 236
f 17 236 226
f 17 226 216
f 17 216 204
f 17 204 203
f 17 203 202
f 17 202 186
f 17 186 165
f 17 165 139
f 17 139 108
f 17 108 78
f 17 78 55
f 17 55 36
f 17 36 18
f 18 21 20
f 18 20 19
f 18 36 37
f 18 37 57
f 18 57 56
f 18 56 79
f 18 79 111
f 18 111 110
f 18 110 109
f 18 109 141
f 18 141 140
f 18 140 168
f 18 168 167
f 18 167 188
f 18 188 190
f 18 190 205
f 18 205 215
f 18 215 214
f 18 214 213
f 18 213 219
f 18 219 218
f 18 218 217
f 18 217 227
f 18 227 237
f 18 237 252
f 18 252 266
f 18 266 283
f 18 283 289
f 18 289 288
f 18 288 287
f 18 287 286
f 18 286 285
f 18 285 300
f 18 300 308
f 18 308 318
f 18 318 329
f 18 329 341
f 18 341 346
f 18 346 345
f 18 345 344
f 18 344 343
f 18 343 361
f 18 361 378
f 18 378 398
f 18 398 417
f 18 417 437
f 18 437 436
f 18 436 454
f 18 454 482
f 18 482 510
f 18 510 509
f 18 509 508
f 18 508 531
f 18 531 540
f 18 540 535
f 18 535 534
f 18 534 518
f 18 518 517
f 18 517 516
f 18 516 515
f 18 515 486
f 18 486 458
f 18 458 440
f 18 440 424
f 18 424 400
f 18 400 383
f 18 383 382
f 18 382 381
f 18 381 364
f 18 364 380
f 18 380 379
f 18 379 362
f 18 362 347
f 18 347 332
f 18 332 320
f 18 320 312
f 18 312 310
f 18 310 302
f 18 302 290
f 18 290 276
f 18 276 257
f 18 257 253
f 18 253 238
f 18 238 228
f 18 228 220
f 18 220 206
f 18 206 193
f 18 193 192
f 18 192 191
f 18 191 171
f 18 171 170
f 18 170 169
f 18 169 147
f 18 147 146
f 18 146 145
f 18 145 144
f 18 144 122
f 18 122 121
f 18 121 120
f 18 120 119
f 18 119 143
f 18 143 142
f 18 142 115
f 18 115 116
f 18 116 113
f 18 113 112
f 18 112 80
f 18 80 60
f 18 60 59
f 18 59 58
f 18 58 42
f 18 42 41
f 18 41 38
f 18 38 22
f 18 22 21
f 22 38 23
f 23 38 41
f 23 41 28
f 23 28 24
f 25 28 26
f 26 39 40
f 26 40 30
f 26 30 27
f 26 28 41
f 26 41 42
f 26 42 39
f 29 43 33
f 29 32 44
f 29 44 43
f 30 40 45
f 30 45 46
f 30 46 47
f 30 47 31
f 31 47 48
f 31 48 49
f 31 49 50
f 31 50 32
f 32 50 51
f 32 51 52
f 32 52 53
f 32 53 44
f 33 43 54
f 36 55 79
f 36 79 56
f 36 56 57
f 36 57 37
f 39 42 58
f 39 58 40
f 40 58 45
f 43 44 54
f 45 58 59
f 45 59 46
f 46 59 60
f 46 60 61
f 46 61 62
f 46 62 47
f 47 63 64
f 47 64 48
f 47 62 63
f 48 64 65
f 48 65 66
f 48 66 67
f 48 67 68
f 48 68 69
f 48 69 49
f 49 70 50
f 49 69 71
f 49 71 72
f 49 72 70
f 50 73 74
f 50 74 75
f 50 75 76
f 50 76 51
f 50 70 77
f 50 77 73
f 51 76 52
f 55 78 79
f 60 80 81
f 60 81 82
f 60 82 61
f 61 82 62
f 62 82 83
f 62 83 63
f 63 83 84
f 63 84 85
f 63 85 64
f 64 85 86
f 64 86 87
f 64 87 65
f 65 87 86
f 65 86 88
f 65 88 89
f 65 89 90
f 65 90 66
f 66 90 67
f 67 90 91
f 67 91 92
f 67 92 93
f 67 93 94
f 67 94 95
f 67 95 96
f 67 96 68
f 68 71 69
f 68 96 71
f 70 72 97
f 70 97 77
f 71 96 98
f 71 98 99
f 71 99 100
f 71 100 101
f 71 101 72
f 72 102 103
f 72 103 97
f 72 101 102
f 73 77 104
f 73 104 74
f 74 104 105
f 74 105 106
f 74 106 75
f 77 97 107
f 77 107 105
f 77 105 104
f 78 108 109
f 78 109 110
f 78 110 111
f 78 111 79
f 80 112 81
f 81 83 82
f 81 112 113
f 81 113 114
f 81 114 84
f 81 84 83
f 84 115 85
f 84 114 116
f 84 116 115
f 85 115 117
f 85 117 86
f 86 117 118
f 86 118 88
f 88 118 89
f 89 118 91
f 89 91 90
f 91 118 119
f 91 119 120
f 91 120 121
f 91 121 92
f 92 121 122
f 92 122 123
f 92 123 124
f 92 124 93
f 93 124 125
f 93 125 126
f 93 126 127
f 93 127 128
f 93 128 94
f 94 128 129
f 94 129 95
f 95 129 161
f 95 161 130
f 95 130 96
f 96 130 131
f 96 131 132
f 96 132 133
f 96 133 134
f 96 134 98
f 97 103 135
f 97 135 107
f 98 134 99
f 99 134 100
f 100 134 133
f 100 133 102
f 100 102 101
f 102 133 103
f 103 133 136
f 103 136 137
f 103 137 138
f 103 138 135
f 108 139 140
f 108 140 141
f 108 141 109
f 113 116 114
f 115 142 117
f 117 142 143
f 117 143 118
f 118 143 119
f 122 144 123
f 123 144 145
f 123 145 146
f 123 146 147
f 123 147 148
f 123 148 124
f 124 148 149
f 124 149 150
f 124 150 151
f 124 151 125
f 125 151 152
f 125 152 153
f 125 153 154
f 125 154 155
f 125 155 156
f 125 156 126
f 126 156 157
f 126 157 158
f 126 158 159
f 126 159 160
f 126 160 127
f 127 160 128
f 128 160 129
f 129 160 161
f 130 161 162
f 130 162 131
f 131 162 163
f 131 163 132
f 132 163 136
f 132 136 133
f 136 163 160
f 136 160 164
f 136 164 137
f 139 165 166
f 139 166 167
f 139 167 168
f 139 168 140
f 147 169 148
f 148 169 170
f 148 170 149
f 149 170 150
f 150 170 171
f 150 171 172
f 150 172 173
f 150 173 151
f 151 173 174
f 151 174 152
f 152 174 175
f 152 175 176
f 152 176 154
f 152 154 153
f 154 176 177
f 154 177 178
f 154 178 179
f 154 179 181
f 154 181 155
f 155 180 157
f 155 157 156
f 155 181 199
f 155 199 180
f 157 180 182
f 157 182 183
f 157 183 184
f 157 184 160
f 157 160 159
f 157 159 158
f 160 184 185
f 160 185 164
f 160 163 162
f 160 162 161
f 165 186 187
f 165 187 166
f 166 188 167
f 166 187 189
f 166 189 190
f 166 190 188
f 171 191 172
f 172 191 192
f 172 192 193
f 172 193 194
f 172 194 177
f 172 177 195
f 172 195 196
f 172 196 173
f 173 196 197
f 173 197 175
f 173 175 174
f 175 197 176
f 176 197 177
f 177 197 195
f 177 194 198
f 177 198 178
f 178 198 179
f 179 198 181
f 181 198 200
f 181 200 201
f 181 201 199
f 186 202 190
f 186 190 187
f 187 190 189
f 190 203 204
f 190 204 205
f 190 202 203
f 193 206 207
f 193 207 208
f 193 208 194
f 194 208 209
f 194 209 210
f 194 210 211
f 194 211 198
f 195 197 196
f 198 211 200
f 200 211 212
f 204 213 214
f 204 214 215
f 204 215 205
f 204 216 217
f 204 217 218
f 204 218 219
f 204 219 213
f 206 220 221
f 206 221 207
f 207 221 208
f 208 221 222
f 208 222 211
f 208 211 209
f 209 211 210
f 211 222 223
f 211 223 224
f 211 224 225
f 211 225 212
f 216 226 227
f 216 227 217
f 220 228 229
f 220 229 230
f 220 230 221
f 221 230 231
f 221 231 223
f 221 223 222
f 223 231 230
f 223 230 224
f 224 232 233
f 224 233 234
f 224 234 225
f 224 230 232
f 225 234 235
f 226 236 227
f 227 236 237
f 228 238 239
f 228 239 229
f 229 239 240
f 229 240 232
f 229 232 230
f 232 240 234
f 232 234 233
f 234 241 242
f 234 242 243
f 234 243 244
f 234 244 245
f 234 245 235
f 234 240 246
f 234 246 247
f 234 247 241
f 236 248 249
f 236 249 250
f 236 250 251
f 236 251 237
f 237 251 250
f 237 250 249
f 237 249 265
f 237 265 282
f 237 282 281
f 237 281 267
f 237 267 252
f 238 253 247
f 238 247 246
f 238 246 239
f 239 246 240
f 241 254 242
f 241 247 255
f 241 255 254
f 242 256 243
f 242 254 257
f 242 257 256
f 243 258 259
f 243 259 260
f 243 260 261
f 243 261 262
f 243 262 244
f 243 256 258
f 244 262 263
f 247 253 255
f 248 264 249
f 249 264 265
f 252 267 264
f 252 264 268
f 252 268 269
f 252 269 270
f 252 270 271
f 252 271 272
f 252 272 273
f 252 273 266
f 253 257 255
f 254 255 257
f 256 274 258
f 256 257 275
f 256 275 274
f 257 276 275
f 258 274 277
f 258 277 259
f 259 277 260
f 260 278 262
f 260 262 261
f 260 277 278
f 262 279 263
f 262 278 279
f 263 279 280
f 264 267 281
f 264 281 282
f 264 282 265
f 266 273 283
f 273 284 285
f 273 285 286
f 273 286 287
f 273 287 288
f 273 288 289
f 273 289 283
f 274 275 277
f 275 276 290
f 275 290 278
f 275 278 277
f 278 291 292
f 278 292 279
f 278 290 293
f 278 293 291
f 279 294 295
f 279 295 296
f 279 296 297
f 279 297 298
f 279 298 299
f 279 299 280
f 279 292 294
f 284 300 285
f 284 301 300
f 290 302 293
f 291 293 303
f 291 303 292
f 292 303 294
f 293 302 303
f 294 304 297
f 294 297 295
f 294 303 304
f 295 297 296
f 297 304 305
f 297 305 306
f 297 306 298
f 298 306 307
f 300 301 309
f 300 309 308
f 302 310 303
f 303 311 304
f 303 310 312
f 303 312 313
f 303 313 314
f 303 314 311
f 304 311 315
f 304 315 305
f 305 315 316
f 305 316 306
f 306 316 307
f 308 317 318
f 308 309 319
f 308 319 317
f 311 314 315
f 312 320 321
f 312 321 313
f 313 321 322
f 313 322 323
f 313 323 314
f 314 323 324
f 314 324 325
f 314 325 326
f 314 326 315
f 315 326 325
f 315 325 327
f 315 327 316
f 316 327 328
f 317 319 318
f 318 319 330
f 318 330 331
f 318 331 329
f 320 332 333
f 320 333 321
f 321 333 322
f 322 334 323
f 322 333 335
f 322 335 336
f 322 336 334
f 323 334 337
f 323 337 324
f 324 337 338
f 324 338 327
f 324 327 325
f 327 338 339
f 327 339 328
f 328 339 340
f 329 331 341
f 331 342 343
f 331 343 344
f 331 344 345
f 331 345 346
f 331 346 341
f 332 347 336
f 332 336 335
f 332 335 333
f 334 336 337
f 336 347 348
f 336 348 349
f 336 349 350
f 336 350 337
f 337 350 351
f 337 351 352
f 337 352 338
f 338 352 339
f 339 352 353
f 339 353 354
f 339 354 340
f 340 354 355
f 342 356 343
f 343 356 357
f 343 357 358
f 343 358 359
f 343 359 360
f 343 360 361
f 347 362 349
f 347 349 348
f 349 363 350
f 349 362 363
f 350 363 364
f 350 364 365
f 350 365 351
f 351 365 366
f 351 366 352
f 352 366 367
f 352 367 353
f 353 367 368
f 353 368 369
f 353 369 370
f 353 370 354
f 354 370 371
f 354 371 372
f 354 372 373
f 354 373 374
f 354 374 375
f 354 375 355
f 360 376 361
f 361 377 378
f 361 376 377
f 362 379 363
f 363 379 380
f 363 380 364
f 364 381 365
f 365 381 382
f 365 382 383
f 365 383 384
f 365 384 366
f 366 384 385
f 366 385 367
f 367 385 386
f 367 386 368
f 368 386 369
f 369 386 387
f 369 387 388
f 369 388 370
f 370 388 389
f 370 389 371
f 371 389 373
f 371 373 372
f 373 390 374
f 373 389 391
f 373 391 390
f 374 390 408
f 374 408 392
f 374 392 375
f 376 393 394
f 376 394 377
f 377 394 395
f 377 395 396
f 377 396 378
f 378 397 398
f 378 396 399
f 378 399 397
f 383 400 401
f 383 401 384
f 384 401 402
f 384 402 403
f 384 403 385
f 385 404 386
f 385 403 402
f 385 402 404
f 386 404 405
f 386 405 387
f 387 405 406
f 387 406 407
f 387 407 388
f 388 407 391
f 388 391 389
f 390 391 411
f 390 411 408
f 391 407 409
f 391 409 410
f 391 410 411
f 393 399 396
f 393 396 395
f 393 395 394
f 393 412 413
f 393 413 399
f 397 399 414
f 397 414 415
f 397 415 398
f 398 415 416
f 398 416 417
f 399 413 418
f 399 418 419
f 399 419 420
f 399 420 421
f 399 421 422
f 399 422 423
f 399 423 414
f 400 424 401
f 401 424 402
f 402 424 425
f 402 425 404
f 404 425 426
f 404 426 405
f 405 426 409
f 405 409 406
f 406 409 407
f 409 426 427
f 409 427 428
f 409 428 410
f 410 428 429
f 412 430 431
f 412 431 413
f 413 431 421
f 413 421 418
f 414 423 432
f 414 432 433
f 414 433 434
f 414 434 415
f 415 434 435
f 415 435 416
f 416 435 436
f 416 436 437
f 416 437 417
f 418 421 419
f 419 421 420
f 421 431 438
f 421 438 439
f 421 439 422
f 422 439 423
f 423 439 432
f 424 440 441
f 424 441 442
f 424 442 425
f 425 442 443
f 425 443 444
f 425 444 426
f 426 444 445
f 426 445 427
f 427 445 446
f 427 446 428
f 428 446 447
f 428 447 448
f 428 448 429
f 429 448 449
f 430 450 431
f 431 450 455
f 431 455 438
f 432 439 451
f 432 451 433
f 433 451 452
f 433 452 434
f 434 452 435
f 435 452 453
f 435 453 454
f 435 454 436
f 438 455 456
f 438 456 439
f 439 456 457
f 439 457 451
f 440 458 487
f 440 487 459
f 440 459 460
f 440 460 441
f 441 460 459
f 441 459 461
f 441 461 462
f 441 462 463
f 441 463 443
f 441 443 442
f 443 463 464
f 443 464 465
f 443 465 444
f 444 465 466
f 444 466 467
f 444 467 468
f 444 468 469
f 444 469 445
f 445 469 470
f 445 470 446
f 446 470 471
f 446 471 447
f 447 472 448
f 447 471 473
f 447 473 496
f 447 496 472
f 448 472 449
f 449 472 474
f 449 474 475
f 450 476 477
f 450 477 455
f 451 457 478
f 451 478 479
f 451 479 480
f 451 480 481
f 451 481 453
f 451 453 452
f 453 481 454
f 454 481 482
f 455 477 483
f 455 483 456
f 456 483 484
f 456 484 485
f 456 485 457
f 457 485 478
f 458 486 487
f 459 487 461
f 461 487 466
f 461 466 465
f 461 465 464
f 461 464 463
f 461 463 462
f 466 487 467
f 467 487 468
f 468 488 470
f 468 470 469
f 468 487 489
f 468 489 490
f 468 490 488
f 470 488 490
f 470 490 491
f 470 491 471
f 471 491 492
f 471 492 493
f 471 493 494
f 471 494 495
f 471 495 473
f 472 496 497
f 472 497 498
f 472 498 474
f 473 495 499
f 473 499 485
f 473 485 500
f 473 500 484
f 473 484 496
f 474 501 475
f 474 498 497
f 474 497 502
f 474 502 501
f 476 503 504
f 476 504 477
f 477 504 483
f 478 485 505
f 478 505 479
f 479 505 506
f 479 506 507
f 479 507 480
f 480 508 509
f 480 509 510
f 480 510 482
f 480 482 481
f 480 507 508
f 483 504 503
f 483 503 511
f 483 511 533
f 483 533 512
f 483 512 484
f 484 512 497
f 484 497 496
f 484 500 485
f 485 499 513
f 485 513 514
f 485 514 505
f 486 515 487
f 487 515 516
f 487 516 517
f 487 517 518
f 487 518 519
f 487 519 490
f 487 490 489
f 490 519 520
f 490 520 514
f 490 514 513
f 490 513 491
f 491 513 492
f 492 513 493
f 493 513 499
f 493 499 494
f 494 499 495
f 497 512 502
f 501 502 521
f 501 521 522
f 502 512 523
f 502 523 524
f 502 524 522
f 502 522 521
f 503 525 526
f 503 526 511
f 505 514 520
f 505 520 506
f 506 527 507
f 506 520 528
f 506 528 529
f 506 529 527
f 507 527 508
f 508 527 530
f 508 530 531
f 511 526 532
f 511 532 533
f 512 533 523
f 518 534 519
f 519 534 535
f 519 535 528
f 519 528 520
f 523 533 536
f 523 536 524
f 524 536 537
f 525 538 526
f 526 538 539
f 526 539 532
f 527 529 540
f 527 540 530
f 528 535 540
f 528 540 529
f 530 540 531
f 532 539 541
f 532 541 537
f 532 537 536
f 532 536 533

