# https://github.com/mikedh/trimesh
v 0.01116055 0.05452170 0.02314450
v 0.00986471 0.05452170 0.02313934
v 0.01430601 0.05294788 0.02312900
v 0.01902234 0.05137406 0.02311867
v 0.01587812 0.05294788 0.02311350
v 0.01273390 0.05452170 0.02309800
v 0.01116055 0.05609552 0.02286546
v 0.00986471 0.05609552 0.02290163
v 0.00986471 0.05294788 0.02304115
v 0.02216779 0.04980620 0.02310316
v 0.02252087 0.04980620 0.02309800
v 0.02059445 0.05137406 0.02306182
v 0.01745023 0.05294788 0.02303082
v 0.01430601 0.05452170 0.02299465
v 0.01273390 0.05609552 0.02272077
v 0.01273390 0.05747857 0.02216785
v 0.01273390 0.05826549 0.02185263
v 0.01104782 0.05778261 0.02218335
v 0.00986471 0.05768723 0.02229187
v 0.00986471 0.05008043 0.02280345
v 0.00986471 0.04693875 0.02253991
v 0.02252087 0.04823238 0.02297398
v 0.02252087 0.05137406 0.02291714
v 0.02216779 0.05137406 0.02295847
v 0.01902234 0.05294788 0.02290163
v 0.01587812 0.05452170 0.02282929
v 0.01430601 0.05609552 0.02248823
v 0.01430601 0.05722820 0.02205933
v 0.01430601 0.05801511 0.02175962
v 0.01679116 0.06479326 0.01880382
v 0.01476067 0.06153235 0.02032823
v 0.01149628 0.05838471 0.02189914
v 0.01273390 0.05923720 0.02144957
v 0.00986471 0.05792569 0.02219369
v 0.00986471 0.05850990 0.02195082
v 0.00986471 0.04665856 0.02251407
v 0.02252087 0.04665856 0.02282929
v 0.02252087 0.05296577 0.02238489
v 0.02216779 0.05294788 0.02244689
v 0.02059445 0.05294788 0.02269493
v 0.01539249 0.05700762 0.02197665
v 0.01745023 0.06238484 0.01961512
v 0.01783923 0.06457865 0.01872115
v 0.01736846 0.06540133 0.01832842
v 0.01587812 0.06566959 0.01843693
v 0.01430601 0.06579479 0.01851961
v 0.01587812 0.06488268 0.01884000
v 0.01426389 0.06224773 0.02006986
v 0.01371260 0.06163370 0.02036957
v 0.01430601 0.06500787 0.01889684
v 0.00986471 0.06418520 0.01953761
v 0.00986471 0.06098987 0.02089665
v 0.00986471 0.04509070 0.02235905
v 0.02252087 0.04194902 0.02239005
v 0.02252087 0.05325788 0.02227637
v 0.02252087 0.05396133 0.02201283
v 0.01745023 0.05766934 0.02140307
v 0.02166234 0.05856952 0.02040058
v 0.01902234 0.06432827 0.01860229
v 0.02217894 0.05915374 0.02009569
v 0.02252087 0.05917163 0.02003368
v 0.02012740 0.06330886 0.01883483
v 0.02117547 0.06308233 0.01874698
v 0.02216779 0.06286772 0.01865914
v 0.01897774 0.06560402 0.01775483
v 0.01745023 0.06655189 0.01747578
v 0.01587812 0.06672477 0.01764631
v 0.01430601 0.06683208 0.01773416
v 0.01273390 0.06591401 0.01859196
v 0.00986471 0.06613459 0.01870564
v 0.01273390 0.06512711 0.01894851
v 0.00986471 0.06534768 0.01904153
v 0.00986471 0.04420245 0.02214718
v 0.02252087 0.03856293 0.02199216
v 0.02252087 0.03887292 0.02203350
v 0.02252087 0.04037520 0.02222986
v 0.02252087 0.04072693 0.02226603
v 0.02252087 0.05510592 0.02157876
v 0.02252087 0.05814030 0.02042641
v 0.02062913 0.06388116 0.01844727
v 0.02252087 0.06276041 0.01863330
v 0.02252087 0.06200927 0.01893818
v 0.02216779 0.06081102 0.01946009
v 0.02059445 0.06514499 0.01760497
v 0.01842397 0.06639689 0.01730009
v 0.01814770 0.06786341 0.01560516
v 0.01755429 0.06743418 0.01635444
v 0.01709963 0.06800052 0.01578602
v 0.01587812 0.06751168 0.01671617
v 0.01145045 0.06782168 0.01711923
v 0.00986471 0.06792898 0.01726392
v 0.01273390 0.06694534 0.01780650
v 0.00986471 0.06712419 0.01795119
v 0.00986471 0.04400572 0.02209551
v 0.02252087 0.03758525 0.02160460
v 0.02252087 0.06400039 0.01781167
v 0.02252087 0.06305253 0.01844210
v 0.02174534 0.06490057 0.01738277
v 0.01947204 0.06617036 0.01703655
v 0.02252087 0.06695727 0.01449415
v 0.01902234 0.06769052 0.01538812
v 0.01902234 0.06832244 0.01460267
v 0.01869404 0.07121970 0.01115596
v 0.01844255 0.07268621 0.00945070
v 0.01661152 0.06945511 0.01405492
v 0.01470120 0.07098124 0.01242199
v 0.00986471 0.06932396 0.01545530
v 0.00986471 0.03525433 0.01737760
v 0.01017318 0.03481318 0.01725358
v 0.02252087 0.02884578 0.01742928
v 0.02252087 0.03131977 0.01865397
v 0.02252087 0.03194573 0.01895885
v 0.02252087 0.03253591 0.01923789
v 0.02252087 0.03407396 0.01996134
v 0.02252087 0.06438192 0.01747578
v 0.02252087 0.06504365 0.01681951
v 0.02059445 0.06593190 0.01674717
v 0.02252087 0.06624189 0.01537262
v 0.02252087 0.06925242 0.01163654
v 0.02059445 0.07083220 0.01066505
v 0.01949062 0.07247756 0.00918199
v 0.01914003 0.07061163 0.01168821
v 0.01898889 0.07304390 0.00861873
v 0.01745023 0.07346716 0.00856189
v 0.01745023 0.07278159 0.00957472
v 0.01430601 0.07240006 0.01064438
v 0.00986471 0.07082028 0.01350716
v 0.00986471 0.03456876 0.01684018
v 0.02252087 0.02069053 0.00985893
v 0.02252087 0.02177551 0.01093893
v 0.02252087 0.02543583 0.01457166
v 0.02252087 0.02597236 0.01510391
v 0.02252087 0.02650293 0.01559482
v 0.02252087 0.02707523 0.01611674
v 0.02252087 0.02812444 0.01690219
v 0.02252087 0.06543710 0.01634928
v 0.02252087 0.07076066 0.00975558
v 0.02252087 0.07136873 0.00894945
v 0.02252087 0.07169661 0.00847921
v 0.02059445 0.07278755 0.00806065
v 0.01902234 0.07372946 0.00698581
v 0.01758402 0.07409311 0.00704782
v 0.01644551 0.07414677 0.00761108
v 0.01539868 0.07421830 0.00784878
v 0.01430601 0.07378311 0.00876342
v 0.01587812 0.07288890 0.00971940
v 0.01273390 0.07388446 0.00893395
v 0.01116055 0.07399177 0.00908897
v 0.01273390 0.07250737 0.01078390
v 0.01117294 0.07211392 0.01157970
v 0.00986471 0.07131508 0.01286123
v 0.00986471 0.03427665 0.01649913
v 0.02252087 0.01866960 0.00769892
v 0.02252087 0.01966516 0.00882026
v 0.02252087 0.07232256 0.00698581
v 0.02141457 0.07262063 0.00779711
v 0.02252087 0.07382484 0.00059365
v 0.01819726 0.07417657 0.00617452
v 0.01430601 0.07454618 0.00698581
v 0.01273390 0.07475483 0.00698581
v 0.01116055 0.07496348 0.00698581
v 0.00986471 0.07513040 0.00698581
v 0.01430601 0.07428984 0.00797797
v 0.01273390 0.07439714 0.00814849
v 0.01430601 0.07299621 0.00985893
v 0.01116055 0.07449849 0.00830352
v 0.00986471 0.07407523 0.00920783
v 0.01065634 0.07264448 0.01096993
v 0.00986471 0.07211988 0.01180190
v 0.00986471 0.07225699 0.01162104
v 0.00986471 0.03346589 0.01534679
v 0.02252087 0.01642810 0.00506351
v 0.02252087 0.01687520 0.00559059
v 0.02252087 0.07410503 -0.00079640
v 0.01902234 0.07489194 0.00069700
v 0.01745023 0.07524367 0.00069700
v 0.01745023 0.07496944 0.00226791
v 0.01587812 0.07517810 0.00226791
v 0.01273390 0.07531521 0.00384399
v 0.01116055 0.07524367 0.00541490
v 0.00986471 0.07581596 0.00316188
v 0.00986471 0.07458195 0.00842237
v 0.01117294 0.07310947 0.01026199
v 0.00986471 0.07269813 0.01103711
v 0.00986471 0.02761772 0.00673777
v 0.02252087 0.01571272 0.00384399
v 0.01029088 0.02696196 0.00625720
v 0.02252087 0.07411696 -0.00087392
v 0.01902234 0.07512444 -0.00087392
v 0.01745023 0.07546424 -0.00087392
v 0.01495765 0.07573250 -0.00024865
v 0.01390957 0.07580404 0.00020092
v 0.00986471 0.07625115 0.00069700
v 0.00986471 0.02703350 0.00541490
v 0.02252087 0.01557561 0.00246427
v 0.02252087 0.07428388 -0.00209861
v 0.02252087 0.07451041 -0.00401574
v 0.02216779 0.07458791 -0.00401574
v 0.01540488 0.07579212 -0.00190224
v 0.01540488 0.07579212 -0.00129248
v 0.02216779 0.07460579 -0.00558665
v 0.01438282 0.07587558 -0.00081191
v 0.00986471 0.07647769 -0.00087392
v 0.00986471 0.02697985 0.00431939
v 0.02252087 0.01558157 0.00226791
v 0.00986471 0.02696196 0.00384399
v 0.00986471 0.02684869 -0.00114779
v 0.00986471 0.02684869 -0.00215028
v 0.00986471 0.02685466 -0.00251201
v 0.02252087 0.07453426 -0.00558665
v 0.01372003 0.07578020 -0.00505440
v 0.00986471 0.07622731 -0.00558665
v 0.00986471 0.07643000 -0.00245000
v 0.02252087 0.07448657 -0.00602589
v 0.02252087 0.07433157 -0.00716273
v 0.02227929 0.07435542 -0.00728158
v 0.02059445 0.07459983 -0.00716273
v 0.01225818 0.07579212 -0.00660981
v 0.01330625 0.07572058 -0.00610340
v 0.02059445 0.07481444 -0.00558665
v 0.02252087 0.01931940 -0.01042858
v 0.00986471 0.02698581 -0.00329746
v 0.00986471 0.02822579 -0.01029422
v 0.00986471 0.02910808 -0.01500696
v 0.01276239 0.07585173 -0.00558149
v 0.01116055 0.07606039 -0.00558665
v 0.00986471 0.07619154 -0.00587603
v 0.02252087 0.07427792 -0.00752446
v 0.02252087 0.07419446 -0.00803087
v 0.02183082 0.07424215 -0.00829958
v 0.01902234 0.07480848 -0.00716273
v 0.00986471 0.07581596 -0.00830991
v 0.00986471 0.07601269 -0.00715757
v 0.02252087 0.01980823 -0.01129671
v 0.00986471 0.02965057 -0.01645902
v 0.00986471 0.02975192 -0.01670189
v 0.02252087 0.07412292 -0.00842876
v 0.02059445 0.07351485 -0.01345155
v 0.02061798 0.07431965 -0.00878532
v 0.02059445 0.07378907 -0.01187547
v 0.00986471 0.07519598 -0.01187547
v 0.01745023 0.07447464 -0.01030456
v 0.01745023 0.07426003 -0.01154992
v 0.01663630 0.07417657 -0.01264542
v 0.01434194 0.07432561 -0.01351873
v 0.02252087 0.02356990 -0.01614380
v 0.00986471 0.03015133 -0.01738400
v 0.00986471 0.03059248 -0.01806610
v 0.00986471 0.03130785 -0.01916678
v 0.00986471 0.03145093 -0.01937864
v 0.00986471 0.03203515 -0.02016410
v 0.02252087 0.07316909 -0.01342571
v 0.02216779 0.07327043 -0.01345155
v 0.02216779 0.07286505 -0.01468141
v 0.01489075 0.07415273 -0.01408715
v 0.00986471 0.07492175 -0.01345155
v 0.02252087 0.02429720 -0.01695510
v 0.00986471 0.03281610 -0.02093405
v 0.02252087 0.02637178 -0.01909443
v 0.02252087 0.02496488 -0.01767337
v 0.02252087 0.07309755 -0.01377193
v 0.02252087 0.07282332 -0.01460906
v 0.02216779 0.07236429 -0.01547203
v 0.02059445 0.07250141 -0.01566839
v 0.02059445 0.07299024 -0.01487777
v 0.01384268 0.07421830 -0.01431968
v 0.00986471 0.07485617 -0.01365825
v 0.02125104 0.03323340 -0.02530573
v 0.02252087 0.03270283 -0.02531607
v 0.00986471 0.03381166 -0.02171951
v 0.02252087 0.07232256 -0.01536351
v 0.02252087 0.07213776 -0.01563739
v 0.02252087 0.07093355 -0.01721864
v 0.02207240 0.07148200 -0.01666572
v 0.02148394 0.07105874 -0.01742017
v 0.02059445 0.07180988 -0.01659337
v 0.01953770 0.07257294 -0.01576141
v 0.00986471 0.07399177 -0.01553921
v 0.01116055 0.07439714 -0.01462457
v 0.01273390 0.07429580 -0.01444887
v 0.00986471 0.07448060 -0.01475375
v 0.02216779 0.03302475 -0.02544009
v 0.00986471 0.03904580 -0.02566229
v 0.00986471 0.04007713 -0.02633923
v 0.00986471 0.04036924 -0.02652526
v 0.02252087 0.03291148 -0.02546076
v 0.02252087 0.06918685 -0.01943032
v 0.02186303 0.06961607 -0.01916161
v 0.02059445 0.06974722 -0.01933730
v 0.02059445 0.07053413 -0.01829347
v 0.02016332 0.06640881 -0.02379683
v 0.01902234 0.07064143 -0.01842783
v 0.01745023 0.07211988 -0.01673289
v 0.01902234 0.06985453 -0.01947682
v 0.01587812 0.07281140 -0.01608179
v 0.01116055 0.07312140 -0.01649002
v 0.00986471 0.07312736 -0.01670706
v 0.00986471 0.07439714 -0.01489327
v 0.00986471 0.04417860 -0.02845789
v 0.02252087 0.03374608 -0.02585865
v 0.00986471 0.04491782 -0.02881962
v 0.02252087 0.06878146 -0.01993673
v 0.02229911 0.06903781 -0.01970936
v 0.02121140 0.06626574 -0.02361080
v 0.01953646 0.06785148 -0.02205023
v 0.01902234 0.06651016 -0.02392085
v 0.01848839 0.06792302 -0.02214324
v 0.02216779 0.06531787 -0.02421540
v 0.02056967 0.06552056 -0.02448927
v 0.01902234 0.06564575 -0.02471148
v 0.01278346 0.07154757 -0.01830897
v 0.01116055 0.07253121 -0.01728065
v 0.00986471 0.07294255 -0.01695510
v 0.02252087 0.03408588 -0.02599818
v 0.00986471 0.04509070 -0.02889713
v 0.02252087 0.06748187 -0.02155415
v 0.02216779 0.06610478 -0.02341444
v 0.02252087 0.06525230 -0.02415339
v 0.01901614 0.06739245 -0.02275300
v 0.01745023 0.06575902 -0.02482516
v 0.01745023 0.06661150 -0.02403970
v 0.01430601 0.06758918 -0.02328008
v 0.01745023 0.06739841 -0.02302171
v 0.02216779 0.06437596 -0.02500085
v 0.02097725 0.06460846 -0.02517655
v 0.01992918 0.06477538 -0.02526439
v 0.01116055 0.07186353 -0.01816945
v 0.00986471 0.07201257 -0.01819529
v 0.02252087 0.03552855 -0.02649942
v 0.00986471 0.04638434 -0.02927952
v 0.02252087 0.04473898 -0.02940354
v 0.02252087 0.04351688 -0.02904182
v 0.02252087 0.03575509 -0.02657177
v 0.02252087 0.06667708 -0.02255147
v 0.02252087 0.06603921 -0.02333693
v 0.02252087 0.06586036 -0.02352812
v 0.02252087 0.06426866 -0.02495435
v 0.01587812 0.06585440 -0.02491817
v 0.01902234 0.06485884 -0.02530573
v 0.01587812 0.06670688 -0.02413272
v 0.00986471 0.06785744 -0.02363147
v 0.01003939 0.06784552 -0.02362114
v 0.00986471 0.06825686 -0.02311473
v 0.00986471 0.06837609 -0.02295970
v 0.01430601 0.06819129 -0.02249463
v 0.01430601 0.06897819 -0.02146113
v 0.02252087 0.06404809 -0.02510937
v 0.02252087 0.06350559 -0.02541942
v 0.02216779 0.06358905 -0.02545559
v 0.02252087 0.06200927 -0.02612220
v 0.02216779 0.06104352 -0.02658210
v 0.02059445 0.06238484 -0.02620488
v 0.01587812 0.06081102 -0.02746057
v 0.01745023 0.06251599 -0.02653559
v 0.01273390 0.05976777 -0.02827703
v 0.01587812 0.06271272 -0.02660277
v 0.00986471 0.07123758 -0.01921845
v 0.00986471 0.04665856 -0.02935704
v 0.02252087 0.04509070 -0.02947589
v 0.01273390 0.04665856 -0.02946038
v 0.01430601 0.06594382 -0.02500085
v 0.01430601 0.06680227 -0.02421540
v 0.01587812 0.06395866 -0.02598784
v 0.01745023 0.06497211 -0.02536774
v 0.01430601 0.06205696 -0.02704717
v 0.01273390 0.06689765 -0.02428257
v 0.00986471 0.06718976 -0.02428257
v 0.02252087 0.06334463 -0.02549693
v 0.02252087 0.06005392 -0.02695933
v 0.01554734 0.05858741 -0.02844756
v 0.01430601 0.05955315 -0.02818918
v 0.01273390 0.05898086 -0.02861292
v 0.01116055 0.05912990 -0.02868009
v 0.01116055 0.05991680 -0.02833904
v 0.00986471 0.04795220 -0.02949139
v 0.02059445 0.04665856 -0.02963091
v 0.02252087 0.04630684 -0.02959474
v 0.01587812 0.04665856 -0.02956373
v 0.01745023 0.04665856 -0.02960507
v 0.01902234 0.04665856 -0.02962574
v 0.01273390 0.06602728 -0.02506803
v 0.01116055 0.06611671 -0.02513004
v 0.01116055 0.06699303 -0.02434458
v 0.00986471 0.06395866 -0.02633406
v 0.01587812 0.06506749 -0.02541425
v 0.01116055 0.06081102 -0.02788430
v 0.00986471 0.06205696 -0.02731588
v 0.00986471 0.06618824 -0.02517655
v 0.00986471 0.06701092 -0.02444277
v 0.02252087 0.05756800 -0.02801349
v 0.02210337 0.05753819 -0.02808067
v 0.01430601 0.05876625 -0.02851990
v 0.02153597 0.05692416 -0.02840622
v 0.02059445 0.05705532 -0.02845789
v 0.01273390 0.05766934 -0.02894880
v 0.01116055 0.05766934 -0.02905215
v 0.00986471 0.05766934 -0.02908833
v 0.00986471 0.05891528 -0.02876277
v 0.00986471 0.05917163 -0.02869560
v 0.00986471 0.05982142 -0.02842172
v 0.00986471 0.05995854 -0.02835971
v 0.00986471 0.06065602 -0.02801866
v 0.00986471 0.06081102 -0.02794115
v 0.00986471 0.04823238 -0.02951723
v 0.01273390 0.04823238 -0.02961024
v 0.02216779 0.04665856 -0.02961024
v 0.01587812 0.04823238 -0.02963608
v 0.01745023 0.04823238 -0.02963091
v 0.02252087 0.04665856 -0.02959474
v 0.01430601 0.04823238 -0.02963091
v 0.00986471 0.06605113 -0.02524889
v 0.02252087 0.05669167 -0.02834938
v 0.02252087 0.05600610 -0.02849407
v 0.02059445 0.05609552 -0.02863876
v 0.01902234 0.05609552 -0.02875761
v 0.01587812 0.05609552 -0.02896431
v 0.01430601 0.05609552 -0.02906249
v 0.01273390 0.05609552 -0.02914000
v 0.01116055 0.05609552 -0.02919684
v 0.00986471 0.05738915 -0.02911416
v 0.00986471 0.04952601 -0.02962058
v 0.00986471 0.04980620 -0.02963608
v 0.01902234 0.04823238 -0.02959991
v 0.02059445 0.04823238 -0.02954306
v 0.01273390 0.04980620 -0.02963608
v 0.00986471 0.05137406 -0.02961541
v 0.01430601 0.04980620 -0.02961024
v 0.02252087 0.04788066 -0.02948105
v 0.02252087 0.05452170 -0.02871110
v 0.02216779 0.05452170 -0.02873694
v 0.02216779 0.04980620 -0.02928469
v 0.01430601 0.05452170 -0.02922268
v 0.01273390 0.05452170 -0.02927952
v 0.00986471 0.05581533 -0.02925885
v 0.00986471 0.05109983 -0.02962574
v 0.01273390 0.05137406 -0.02953273
v 0.00986471 0.05267365 -0.02951206
v 0.02252087 0.05102234 -0.02911933
v 0.02252087 0.05416998 -0.02875244
f 1 2 3
f 1 3 4
f 1 4 5
f 1 5 6
f 1 6 7
f 1 7 8
f 1 8 2
f 2 9 10
f 2 10 3
f 2 8 19
f 2 19 34
f 2 34 35
f 2 35 52
f 2 52 51
f 2 51 72
f 2 72 70
f 2 70 93
f 2 93 91
f 2 91 107
f 2 107 127
f 2 127 151
f 2 151 169
f 2 169 170
f 2 170 184
f 2 184 167
f 2 167 182
f 2 182 162
f 2 162 181
f 2 181 193
f 2 193 203
f 2 203 213
f 2 213 212
f 2 212 227
f 2 227 233
f 2 233 232
f 2 232 241
f 2 241 256
f 2 256 267
f 2 267 281
f 2 281 298
f 2 298 278
f 2 278 297
f 2 297 313
f 2 313 328
f 2 328 357
f 2 357 344
f 2 344 343
f 2 343 341
f 2 341 367
f 2 367 389
f 2 389 388
f 2 388 411
f 2 411 384
f 2 384 387
f 2 387 403
f 2 403 402
f 2 402 401
f 2 401 400
f 2 400 399
f 2 399 398
f 2 398 397
f 2 397 420
f 2 420 434
f 2 434 437
f 2 437 426
f 2 426 435
f 2 435 422
f 2 422 421
f 2 421 404
f 2 404 375
f 2 375 358
f 2 358 330
f 2 330 315
f 2 315 301
f 2 301 299
f 2 299 285
f 2 285 284
f 2 284 283
f 2 283 270
f 2 270 258
f 2 258 251
f 2 251 250
f 2 250 249
f 2 249 248
f 2 248 247
f 2 247 236
f 2 236 235
f 2 235 224
f 2 224 223
f 2 223 222
f 2 222 209
f 2 209 208
f 2 208 207
f 2 207 206
f 2 206 204
f 2 204 194
f 2 194 185
f 2 185 171
f 2 171 152
f 2 152 128
f 2 128 108
f 2 108 94
f 2 94 73
f 2 73 53
f 2 53 36
f 2 36 21
f 2 21 20
f 2 20 9
f 3 10 4
f 4 10 11
f 4 11 12
f 4 12 5
f 5 12 6
f 6 12 13
f 6 13 14
f 6 14 7
f 7 14 15
f 7 15 16
f 7 16 17
f 7 17 18
f 7 18 19
f 7 19 8
f 9 20 10
f 10 20 21
f 10 21 22
f 10 22 11
f 11 22 37
f 11 37 54
f 11 54 77
f 11 77 76
f 11 76 75
f 11 75 74
f 11 74 95
f 11 95 114
f 11 114 113
f 11 113 112
f 11 112 111
f 11 111 110
f 11 110 135
f 11 135 134
f 11 134 133
f 11 133 132
f 11 132 131
f 11 131 130
f 11 130 129
f 11 129 154
f 11 154 153
f 11 153 173
f 11 173 172
f 11 172 186
f 11 186 195
f 11 195 205
f 11 205 221
f 11 221 234
f 11 234 246
f 11 246 257
f 11 257 260
f 11 260 259
f 11 259 269
f 11 269 286
f 11 286 300
f 11 300 314
f 11 314 329
f 11 329 333
f 11 333 332
f 11 332 331
f 11 331 359
f 11 359 377
f 11 377 409
f 11 409 428
f 11 428 438
f 11 438 439
f 11 439 429
f 11 429 413
f 11 413 412
f 11 412 390
f 11 390 369
f 11 369 350
f 11 350 368
f 11 368 348
f 11 348 347
f 11 347 337
f 11 337 318
f 11 318 336
f 11 336 335
f 11 335 334
f 11 334 316
f 11 316 302
f 11 302 287
f 11 287 273
f 11 273 272
f 11 272 271
f 11 271 262
f 11 262 261
f 11 261 252
f 11 252 237
f 11 237 229
f 11 229 228
f 11 228 215
f 11 215 214
f 11 214 210
f 11 210 197
f 11 197 196
f 11 196 188
f 11 188 174
f 11 174 157
f 11 157 155
f 11 155 139
f 11 139 138
f 11 138 137
f 11 137 119
f 11 119 100
f 11 100 118
f 11 118 136
f 11 136 116
f 11 116 115
f 11 115 96
f 11 96 97
f 11 97 81
f 11 81 82
f 11 82 61
f 11 61 79
f 11 79 78
f 11 78 56
f 11 56 55
f 11 55 38
f 11 38 23
f 11 23 24
f 11 24 12
f 12 24 13
f 13 24 14
f 14 24 25
f 14 25 26
f 14 26 15
f 15 26 27
f 15 27 28
f 15 28 29
f 15 29 30
f 15 30 31
f 15 31 16
f 16 31 17
f 17 32 18
f 17 31 33
f 17 33 32
f 18 34 19
f 18 32 35
f 18 35 34
f 21 36 37
f 21 37 22
f 23 38 39
f 23 39 40
f 23 40 25
f 23 25 24
f 25 40 26
f 26 40 27
f 27 41 28
f 27 40 41
f 28 41 30
f 28 30 29
f 30 42 43
f 30 43 44
f 30 44 45
f 30 45 46
f 30 46 47
f 30 47 48
f 30 48 33
f 30 33 31
f 30 41 42
f 32 33 49
f 32 49 50
f 32 50 51
f 32 51 52
f 32 52 35
f 33 48 49
f 36 53 54
f 36 54 37
f 38 55 40
f 38 40 39
f 40 55 56
f 40 56 41
f 41 56 57
f 41 57 42
f 42 58 43
f 42 57 58
f 43 59 44
f 43 58 60
f 43 60 61
f 43 61 62
f 43 62 63
f 43 63 64
f 43 64 59
f 44 65 66
f 44 66 45
f 44 59 65
f 45 66 67
f 45 67 46
f 46 67 68
f 46 68 69
f 46 69 47
f 47 69 70
f 47 70 50
f 47 50 49
f 47 49 48
f 50 70 71
f 50 71 51
f 51 71 72
f 53 73 74
f 53 74 75
f 53 75 76
f 53 76 77
f 53 77 54
f 56 78 58
f 56 58 57
f 58 78 79
f 58 79 60
f 59 80 65
f 59 64 81
f 59 81 80
f 60 79 61
f 61 82 83
f 61 83 62
f 62 83 82
f 62 82 63
f 63 82 64
f 64 82 81
f 65 80 84
f 65 84 85
f 65 85 66
f 66 85 86
f 66 86 87
f 66 87 88
f 66 88 89
f 66 89 67
f 67 89 90
f 67 90 91
f 67 91 68
f 68 92 69
f 68 91 92
f 69 92 70
f 70 92 93
f 70 72 71
f 73 94 74
f 74 94 95
f 80 96 84
f 80 81 97
f 80 97 96
f 84 96 98
f 84 98 85
f 85 98 99
f 85 99 100
f 85 100 101
f 85 101 102
f 85 102 103
f 85 103 104
f 85 104 86
f 86 104 87
f 87 104 88
f 88 104 105
f 88 105 89
f 89 105 106
f 89 106 90
f 90 106 107
f 90 107 91
f 91 93 92
f 94 108 109
f 94 109 110
f 94 110 111
f 94 111 112
f 94 112 113
f 94 113 114
f 94 114 95
f 96 115 98
f 98 115 116
f 98 116 99
f 99 117 118
f 99 118 100
f 99 116 117
f 100 119 102
f 100 102 101
f 102 119 120
f 102 120 121
f 102 121 122
f 102 122 103
f 103 122 121
f 103 121 104
f 104 121 123
f 104 123 124
f 104 124 125
f 104 125 105
f 105 125 106
f 106 125 126
f 106 126 127
f 106 127 107
f 108 128 109
f 109 128 129
f 109 129 130
f 109 130 131
f 109 131 132
f 109 132 133
f 109 133 134
f 109 134 135
f 109 135 110
f 116 136 117
f 117 136 118
f 119 137 120
f 120 137 121
f 121 137 138
f 121 138 139
f 121 139 140
f 121 140 123
f 123 140 141
f 123 141 142
f 123 142 143
f 123 143 124
f 124 143 144
f 124 144 145
f 124 145 125
f 125 146 126
f 125 145 147
f 125 147 148
f 125 148 146
f 126 146 165
f 126 165 149
f 126 149 150
f 126 150 151
f 126 151 127
f 128 152 153
f 128 153 154
f 128 154 129
f 139 155 156
f 139 156 140
f 140 156 141
f 141 157 158
f 141 158 142
f 141 156 157
f 142 158 143
f 143 158 159
f 143 159 160
f 143 160 161
f 143 161 162
f 143 162 144
f 144 163 145
f 144 162 163
f 145 163 164
f 145 164 147
f 146 148 165
f 147 164 148
f 148 164 166
f 148 166 182
f 148 182 167
f 148 167 165
f 149 165 168
f 149 168 150
f 150 169 151
f 150 168 170
f 150 170 169
f 152 171 172
f 152 172 173
f 152 173 153
f 155 157 156
f 157 174 158
f 158 174 175
f 158 175 176
f 158 176 177
f 158 177 178
f 158 178 179
f 158 179 180
f 158 180 161
f 158 161 160
f 158 160 159
f 161 180 181
f 161 181 162
f 162 182 166
f 162 166 164
f 162 164 163
f 165 183 168
f 165 167 183
f 167 184 183
f 168 183 184
f 168 184 170
f 171 185 172
f 172 185 187
f 172 187 186
f 174 188 175
f 175 189 176
f 175 188 189
f 176 189 190
f 176 190 191
f 176 191 192
f 176 192 177
f 177 192 178
f 178 192 181
f 178 181 179
f 179 181 180
f 181 192 193
f 185 194 187
f 186 187 194
f 186 194 195
f 188 196 189
f 189 196 197
f 189 197 198
f 189 198 190
f 190 199 200
f 190 200 191
f 190 198 201
f 190 201 199
f 191 200 202
f 191 202 203
f 191 203 192
f 192 203 193
f 194 204 195
f 195 204 206
f 195 206 207
f 195 207 208
f 195 208 209
f 195 209 205
f 197 210 198
f 198 210 201
f 199 211 212
f 199 212 213
f 199 213 203
f 199 203 200
f 199 201 211
f 200 203 202
f 201 210 214
f 201 214 215
f 201 215 216
f 201 216 217
f 201 217 218
f 201 218 219
f 201 219 220
f 201 220 211
f 205 209 222
f 205 222 223
f 205 223 224
f 205 224 221
f 211 225 226
f 211 226 212
f 211 220 225
f 212 226 219
f 212 219 227
f 215 228 216
f 216 228 229
f 216 229 230
f 216 230 217
f 217 230 231
f 217 231 218
f 218 231 232
f 218 232 233
f 218 233 227
f 218 227 219
f 219 226 225
f 219 225 220
f 221 224 235
f 221 235 236
f 221 236 234
f 229 237 238
f 229 238 230
f 230 239 231
f 230 238 240
f 230 240 239
f 231 239 232
f 232 239 242
f 232 242 243
f 232 243 244
f 232 244 245
f 232 245 241
f 234 236 247
f 234 247 248
f 234 248 249
f 234 249 250
f 234 250 251
f 234 251 246
f 237 252 253
f 237 253 238
f 238 253 254
f 238 254 255
f 238 255 245
f 238 245 244
f 238 244 243
f 238 243 240
f 239 240 243
f 239 243 242
f 241 245 256
f 245 255 256
f 246 251 257
f 251 258 259
f 251 259 260
f 251 260 257
f 252 261 253
f 253 261 262
f 253 262 254
f 254 262 263
f 254 263 264
f 254 264 265
f 254 265 266
f 254 266 255
f 255 266 256
f 256 266 267
f 258 268 269
f 258 269 259
f 258 270 268
f 262 271 263
f 263 271 272
f 263 272 273
f 263 273 274
f 263 274 275
f 263 275 264
f 264 275 276
f 264 276 277
f 264 277 278
f 264 278 279
f 264 279 265
f 265 279 280
f 265 280 266
f 266 280 267
f 267 280 279
f 267 279 281
f 268 282 269
f 268 270 283
f 268 283 284
f 268 284 285
f 268 285 282
f 269 282 286
f 273 287 288
f 273 288 274
f 274 288 275
f 275 289 290
f 275 290 276
f 275 288 291
f 275 291 289
f 276 292 293
f 276 293 277
f 276 290 294
f 276 294 292
f 277 293 295
f 277 295 278
f 278 296 297
f 278 298 279
f 278 295 296
f 279 298 281
f 282 285 286
f 285 299 286
f 286 299 301
f 286 301 300
f 287 302 303
f 287 303 288
f 288 303 304
f 288 304 291
f 289 305 290
f 289 291 306
f 289 306 305
f 290 305 307
f 290 307 294
f 291 304 308
f 291 308 309
f 291 309 310
f 291 310 306
f 292 294 293
f 293 311 312
f 293 312 295
f 293 294 307
f 293 307 311
f 295 312 296
f 296 312 313
f 296 313 297
f 300 301 315
f 300 315 314
f 302 316 304
f 302 304 303
f 304 316 317
f 304 317 318
f 304 318 308
f 305 306 319
f 305 319 307
f 306 310 320
f 306 320 321
f 306 321 322
f 306 322 323
f 306 323 319
f 307 319 323
f 307 323 311
f 308 318 324
f 308 324 325
f 308 325 309
f 309 325 326
f 309 326 310
f 310 326 320
f 311 327 312
f 311 323 327
f 312 327 328
f 312 328 313
f 314 315 329
f 315 330 331
f 315 331 332
f 315 332 333
f 315 333 329
f 316 334 317
f 317 335 336
f 317 336 318
f 317 334 335
f 318 337 324
f 320 338 340
f 320 340 321
f 320 326 339
f 320 339 338
f 321 340 341
f 321 341 342
f 321 342 322
f 322 342 343
f 322 343 344
f 322 344 345
f 322 345 323
f 323 345 346
f 323 346 328
f 323 328 327
f 324 337 347
f 324 347 325
f 325 347 348
f 325 348 349
f 325 349 350
f 325 350 326
f 326 350 351
f 326 351 352
f 326 352 353
f 326 353 354
f 326 354 355
f 326 355 356
f 326 356 339
f 328 346 357
f 330 358 331
f 331 358 360
f 331 360 359
f 338 361 362
f 338 362 340
f 338 339 361
f 339 363 364
f 339 364 361
f 339 356 365
f 339 365 363
f 340 362 341
f 341 343 342
f 341 362 366
f 341 366 367
f 344 357 345
f 345 357 346
f 348 368 349
f 349 368 350
f 350 369 351
f 351 369 370
f 351 370 353
f 351 353 352
f 353 370 371
f 353 371 355
f 353 355 354
f 355 371 372
f 355 372 373
f 355 373 374
f 355 374 356
f 356 374 365
f 358 375 360
f 359 376 377
f 359 360 378
f 359 378 379
f 359 379 380
f 359 380 376
f 360 375 378
f 361 381 382
f 361 382 383
f 361 383 366
f 361 366 362
f 361 364 381
f 363 384 385
f 363 385 364
f 363 365 374
f 363 374 386
f 363 386 387
f 363 387 384
f 364 385 388
f 364 388 382
f 364 382 381
f 366 383 367
f 367 383 382
f 367 382 389
f 369 390 391
f 369 391 370
f 370 392 371
f 370 391 393
f 370 393 392
f 371 392 372
f 372 392 393
f 372 393 394
f 372 394 395
f 372 395 373
f 373 395 396
f 373 396 397
f 373 397 398
f 373 398 399
f 373 399 400
f 373 400 374
f 374 400 401
f 374 401 402
f 374 402 403
f 374 403 387
f 374 387 386
f 375 404 405
f 375 405 378
f 376 406 377
f 376 380 410
f 376 410 407
f 376 407 425
f 376 425 408
f 376 408 406
f 377 406 409
f 378 405 379
f 379 405 410
f 379 410 380
f 382 388 389
f 384 411 385
f 385 411 388
f 390 412 393
f 390 393 391
f 393 412 413
f 393 413 414
f 393 414 394
f 394 414 395
f 395 414 415
f 395 415 416
f 395 416 396
f 396 416 417
f 396 417 418
f 396 418 419
f 396 419 434
f 396 434 420
f 396 420 397
f 404 421 405
f 405 421 422
f 405 422 410
f 406 408 423
f 406 423 424
f 406 424 409
f 407 410 422
f 407 422 425
f 408 425 426
f 408 426 427
f 408 427 423
f 409 424 428
f 413 429 414
f 414 429 415
f 415 429 430
f 415 430 416
f 416 430 431
f 416 431 428
f 416 428 417
f 417 432 418
f 417 428 432
f 418 432 433
f 418 433 419
f 419 433 434
f 422 435 425
f 423 427 426
f 423 426 436
f 423 436 433
f 423 433 432
f 423 432 424
f 424 432 428
f 425 435 426
f 426 437 436
f 428 431 438
f 429 439 430
f 430 439 438
f 430 438 431
f 433 436 437
f 433 437 434

