# https://github.com/mikedh/trimesh
v 0.02252087 0.01808403 -0.00545035
v 0.02252087 0.01808403 0.00701049
v 0.02252087 0.01932179 -0.01043158
v 0.02337360 0.01808403 -0.01040572
v 0.02267295 0.01808403 0.00723808
v 0.02252087 0.01866975 0.00769845
v 0.02252087 0.01980805 -0.01129541
v 0.02343335 0.01808403 -0.01061779
v 0.02345507 0.01808403 0.00840710
v 0.02341705 0.01832163 0.00862952
v 0.02305858 0.01928310 0.00919851
v 0.02252087 0.01919469 0.00829330
v 0.02407425 0.01808403 -0.01183336
v 0.02252087 0.02359315 -0.01617319
v 0.02477491 0.01808403 0.01035717
v 0.02335730 0.01985778 0.01020717
v 0.02252087 0.01966438 0.00882090
v 0.02587748 0.01808403 0.01196586
v 0.02685514 0.01808403 0.01336246
v 0.02418831 0.01808403 -0.01199371
v 0.02252087 0.02429491 -0.01695425
v 0.02868010 0.01808403 -0.01795774
v 0.02537236 0.02001250 0.01319694
v 0.02252087 0.02147128 0.01063649
v 0.02268381 0.02033299 0.00973129
v 0.02252087 0.02020037 0.00936403
v 0.02699092 0.01808403 0.01354868
v 0.02306401 0.02558792 0.01548324
v 0.02252087 0.02543320 0.01457286
v 0.02252087 0.02496352 -0.01767324
v 0.02879416 0.01808403 -0.01810257
v 0.02821299 0.01808403 0.01468665
v 0.02732224 0.01864212 0.01435561
v 0.02448161 0.02379760 0.01567980
v 0.02269467 0.02663780 0.01595912
v 0.02252087 0.02649966 0.01559703
v 0.02252087 0.02596919 0.01510046
v 0.02252087 0.02636704 -0.01909571
v 0.03009227 0.01808403 -0.01969057
v 0.03366614 0.01808403 0.01902648
v 0.02278157 0.02834524 0.01731951
v 0.02252087 0.02812421 0.01690053
v 0.02252087 0.02707433 0.01611430
v 0.02252087 0.03269949 -0.02531320
v 0.03084180 0.01808403 -0.02052853
v 0.03480674 0.01808403 0.01979720
v 0.02252087 0.02884808 0.01742814
v 0.02252087 0.03290946 -0.02546321
v 0.03977649 0.01808403 -0.02713914
v 0.03539876 0.01808403 0.02013342
v 0.02252087 0.03758973 0.02160244
v 0.02252087 0.03568889 0.02071793
v 0.02252087 0.03407539 0.01996272
v 0.02252087 0.03253924 0.01923856
v 0.02252087 0.03194799 0.01895924
v 0.02252087 0.03132359 0.01865405
v 0.02252087 0.03085943 0.01842646
v 0.02252087 0.03374384 -0.02586150
v 0.04104201 0.01808403 -0.02774950
v 0.03599622 0.01808403 0.02038688
v 0.02252087 0.03856225 0.02199039
v 0.02252087 0.03408644 -0.02599599
v 0.04132987 0.01808403 -0.02785295
v 0.02252087 0.03552864 -0.02650290
v 0.02252087 0.04351879 -0.02903748
v 0.03644703 0.01808403 0.02052654
v 0.02252087 0.04037467 0.02223350
v 0.03764194 0.01808403 0.02088345
v 0.04135160 0.01808403 0.02198004
v 0.04235098 0.01808403 0.02226971
v 0.04262255 0.01808403 0.02234730
v 0.04418680 0.01808403 0.02276111
v 0.04418680 0.01836032 0.02281284
v 0.04576191 0.01808403 0.02307664
v 0.04255194 0.01808403 -0.02828228
v 0.02252087 0.04473997 -0.02940474
v 0.04576191 0.01836032 0.02310768
v 0.02252087 0.04194950 0.02238868
v 0.04733159 0.01808403 0.02318526
v 0.04313311 0.01808403 -0.02846850
v 0.02252087 0.04509362 -0.02947716
v 0.04325803 0.01808403 -0.02849954
v 0.04576191 0.01992961 0.02317492
v 0.02252087 0.04980151 0.02309733
v 0.02252087 0.04823221 0.02297836
v 0.02252087 0.04387244 0.02256972
v 0.04890670 0.01808403 0.02306112
v 0.04733159 0.01836032 0.02319044
v 0.02252087 0.04630927 -0.02959613
v 0.05047095 0.01808403 -0.02962199
v 0.04917828 0.01808403 -0.02947199
v 0.04890670 0.01808403 -0.02943578
v 0.04733159 0.01808403 -0.02921336
v 0.04576191 0.01808403 -0.02896507
v 0.04445837 0.01808403 -0.02874782
v 0.04417594 0.01808403 -0.02869092
v 0.02688773 0.04823221 0.02308699
v 0.02374294 0.04980151 0.02308181
v 0.02252087 0.05137633 0.02292146
v 0.05047095 0.01808403 0.02284387
v 0.05047095 0.02307373 0.02247144
v 0.04890670 0.01836032 0.02304043
v 0.04576191 0.02307373 0.02310250
v 0.04733159 0.01992961 0.02312836
v 0.04576191 0.02150444 0.02316975
v 0.03475243 0.04194950 0.02307664
v 0.03632210 0.03879985 0.02309733
v 0.03789722 0.03565574 0.02311285
v 0.03317731 0.04351879 0.02308181
v 0.02252087 0.04665739 -0.02959613
v 0.02688773 0.04351879 -0.02960647
v 0.05047095 0.01992961 -0.02965303
v 0.05074252 0.01808403 -0.02963751
v 0.03003252 0.04665739 0.02307664
v 0.03160763 0.04665739 0.02303526
v 0.02846284 0.04823221 0.02303009
v 0.02531805 0.04980151 0.02299905
v 0.03003252 0.04823221 0.02292146
v 0.02688773 0.04980151 0.02286456
v 0.02374294 0.05137633 0.02278697
v 0.02252087 0.05296773 0.02238868
v 0.05177450 0.01808403 0.02264731
v 0.05204607 0.02150444 0.02235764
v 0.05204607 0.02464855 0.02212488
v 0.05130196 0.02866573 0.02193349
v 0.05047095 0.02622338 0.02223350
v 0.04890670 0.02150444 0.02280249
v 0.04890670 0.02307373 0.02268352
v 0.04576191 0.02936750 0.02262145
v 0.04418680 0.02622338 0.02307147
v 0.03632210 0.04037467 0.02303526
v 0.03789722 0.03723056 0.02306112
v 0.04261169 0.02779267 0.02312836
v 0.03475243 0.04351879 0.02299905
v 0.03317731 0.04509362 0.02303526
v 0.02252087 0.04787857 -0.02947716
v 0.02374294 0.04665739 -0.02953923
v 0.03160763 0.04194950 -0.02956509
v 0.02846284 0.04351879 -0.02958061
v 0.03946690 0.03723056 -0.02958578
v 0.04418680 0.03408644 -0.02961682
v 0.04104201 0.03565574 -0.02962717
v 0.03789722 0.03723056 -0.02963233
v 0.04261169 0.03408644 -0.02963751
v 0.04890670 0.02464855 -0.02964786
v 0.05047095 0.02150444 -0.02964268
v 0.05204607 0.01808403 -0.02963233
v 0.03317731 0.04665739 0.02279732
v 0.03160763 0.04823221 0.02269904
v 0.02846284 0.04980151 0.02265248
v 0.02531805 0.05137633 0.02255421
v 0.02252087 0.05609527 0.02120415
v 0.05204607 0.01808403 0.02260593
v 0.05361574 0.01808403 0.02236282
v 0.05361574 0.01992961 0.02222833
v 0.05363204 0.02293006 0.02200591
v 0.05261636 0.02656597 0.02189728
v 0.05231221 0.02779267 0.02185073
v 0.05191571 0.02926251 0.02179900
v 0.05047095 0.03251162 0.02174728
v 0.05047639 0.03106389 0.02186107
v 0.05047639 0.02926251 0.02200073
v 0.04890670 0.02936750 0.02220247
v 0.04576191 0.03565574 0.02214040
v 0.03789722 0.03879985 0.02294732
v 0.04104201 0.03879985 0.02252834
v 0.03632210 0.04351879 0.02273525
v 0.03475243 0.04509362 0.02277663
v 0.04801052 0.03468321 0.02191280
v 0.04660921 0.03650669 0.02194384
v 0.02252087 0.04823221 -0.02944095
v 0.02688773 0.04509362 -0.02951854
v 0.04261169 0.03565574 -0.02956509
v 0.04576191 0.03408644 -0.02953406
v 0.04576191 0.03251162 -0.02962199
v 0.04733159 0.02779267 -0.02964268
v 0.04733159 0.02936750 -0.02962717
v 0.05204607 0.01836032 -0.02962717
v 0.05231764 0.01808403 -0.02961165
v 0.03632210 0.04509362 0.02238868
v 0.03490450 0.04681211 0.02229557
v 0.03324792 0.04832062 0.02225937
v 0.04507212 0.03810914 0.02195418
v 0.03276996 0.04931525 0.02203694
v 0.03194981 0.05036513 0.02184556
v 0.03090155 0.05063036 0.02194384
v 0.03003252 0.04980151 0.02240420
v 0.02699092 0.05151447 0.02223867
v 0.02531805 0.05338216 0.02179383
v 0.02252087 0.05813978 0.02042826
v 0.05526147 0.01808403 0.02209384
v 0.05440873 0.02231119 0.02192832
v 0.05416432 0.02336107 0.02188694
v 0.05204607 0.03093679 0.02163865
v 0.04942269 0.03251162 0.02189211
v 0.05204607 0.03251162 0.02142140
v 0.05047095 0.03408644 0.02151968
v 0.04831468 0.03363333 0.02195418
v 0.02374294 0.04823221 -0.02936336
v 0.02252087 0.04945339 -0.02930129
v 0.04733159 0.03723056 -0.02908921
v 0.04576191 0.03565574 -0.02936336
v 0.04733159 0.03565574 -0.02925473
v 0.04890670 0.03565574 -0.02910473
v 0.04733159 0.03408644 -0.02938405
v 0.04733159 0.03251162 -0.02948233
v 0.04733159 0.03093679 -0.02957026
v 0.04890670 0.02622338 -0.02961165
v 0.05047095 0.02307373 -0.02959096
v 0.05204607 0.01992961 -0.02955992
v 0.05361574 0.01808403 -0.02946164
v 0.03774514 0.04494995 0.02203177
v 0.03632210 0.04627059 0.02204729
v 0.04586511 0.04676790 0.01911442
v 0.03552912 0.04743651 0.02192315
v 0.03381822 0.04890082 0.02188694
v 0.05047095 0.03565574 0.02111622
v 0.04890670 0.03723056 0.02110587
v 0.04566415 0.03870039 0.02160762
v 0.04452898 0.03915902 0.02179900
v 0.03256899 0.05385737 0.02040239
v 0.03469268 0.05607870 0.01900579
v 0.03412238 0.05700701 0.01882992
v 0.03160763 0.05295115 0.02093000
v 0.03217793 0.05836081 0.01874716
v 0.03003252 0.05295115 0.02119381
v 0.03003252 0.05081823 0.02201625
v 0.02758295 0.05212783 0.02191280
v 0.02271640 0.05835528 0.02031446
v 0.02252087 0.05951568 0.01990065
v 0.05576116 0.01808403 0.02200073
v 0.05585892 0.01893499 0.02190246
v 0.05361574 0.02779267 0.02156624
v 0.05361574 0.02936750 0.02137485
v 0.05361574 0.03093679 0.02110070
v 0.05364833 0.03241215 0.02071275
v 0.05314321 0.03379358 0.02056275
v 0.05218728 0.03422458 0.02087828
v 0.02252087 0.05137633 -0.02907887
v 0.02531805 0.04980151 -0.02907887
v 0.02846284 0.05137633 -0.02869092
v 0.04733159 0.03879985 -0.02886161
v 0.04890670 0.03723056 -0.02891851
v 0.03213448 0.05201731 -0.02837539
v 0.03712052 0.04902239 -0.02839091
v 0.03816879 0.04871295 -0.02834953
v 0.04003720 0.04730942 -0.02837022
v 0.05047095 0.03565574 -0.02878403
v 0.05047095 0.03408644 -0.02894955
v 0.05047095 0.03251162 -0.02907887
v 0.04890670 0.03408644 -0.02919784
v 0.04890670 0.03251162 -0.02928577
v 0.05204607 0.02307373 -0.02939439
v 0.04890670 0.02779267 -0.02953923
v 0.05361574 0.01992961 -0.02936336
v 0.05519086 0.01808403 -0.02925991
v 0.04135160 0.04226999 0.02178866
v 0.04104201 0.04509362 0.02102828
v 0.03816879 0.04538095 0.02177831
v 0.04700571 0.04632032 0.01891785
v 0.04646256 0.04736468 0.01875750
v 0.03490450 0.04832062 0.02178349
v 0.04541430 0.04781779 0.01891268
v 0.04478969 0.04886767 0.01873164
v 0.04374143 0.04928762 0.01888165
v 0.04092252 0.05131555 0.01895406
v 0.04947157 0.03938005 0.02028860
v 0.04893386 0.03883301 0.02061447
v 0.05142688 0.03670562 0.02044895
v 0.04805397 0.04581748 0.01876268
v 0.04576191 0.04509362 0.01965237
v 0.04418680 0.04194950 0.02105932
v 0.03317731 0.05729987 0.01894372
v 0.03517064 0.05659259 0.01866957
v 0.03317731 0.05808453 0.01863336
v 0.03688697 0.05513380 0.01871612
v 0.03163479 0.05916203 0.01844197
v 0.03003252 0.05960961 0.01860233
v 0.02531805 0.06140547 0.01870578
v 0.02449790 0.06158228 0.01877819
v 0.03112967 0.05858736 0.01883509
v 0.02543754 0.05763141 0.02014894
v 0.02499759 0.05707885 0.02043343
v 0.02374294 0.05923939 0.01980754
v 0.02252087 0.06108497 0.01929546
v 0.05630973 0.01808403 0.02185590
v 0.05519086 0.02464855 0.02144726
v 0.05519086 0.02622338 0.02124553
v 0.05520715 0.02921830 0.02065586
v 0.05519086 0.02779267 0.02097138
v 0.05773819 0.02430596 0.02046447
v 0.05419148 0.03287078 0.02021618
v 0.05465315 0.03093679 0.02052654
v 0.05444675 0.03182090 0.02038688
v 0.05753723 0.03484898 0.01720054
v 0.05728195 0.03565574 0.01702985
v 0.05364833 0.03422458 0.02004548
v 0.05254575 0.03565574 0.02016963
v 0.02252087 0.05416681 -0.02875299
v 0.02374294 0.05452045 -0.02863402
v 0.02608388 0.05529957 -0.02839091
v 0.04179697 0.04585616 -0.02838573
v 0.04886869 0.03878328 -0.02858747
v 0.04988436 0.03824728 -0.02846850
v 0.05043294 0.03709794 -0.02856161
v 0.03160763 0.05288485 -0.02830815
v 0.03317731 0.05295115 -0.02819435
v 0.03632210 0.05003359 -0.02832367
v 0.03475243 0.05295115 -0.02799779
v 0.05204607 0.03093679 -0.02889782
v 0.05129110 0.03648459 -0.02840125
v 0.05147577 0.03565574 -0.02847367
v 0.05181795 0.03408644 -0.02859781
v 0.05657044 0.02307373 -0.02860299
v 0.05519086 0.02464855 -0.02879437
v 0.05519086 0.02307373 -0.02895472
v 0.05204607 0.02936750 -0.02903748
v 0.05519086 0.02150444 -0.02907369
v 0.05204607 0.02622338 -0.02922370
v 0.05361574 0.02307373 -0.02919266
v 0.05546243 0.01808403 -0.02922370
v 0.04745109 0.04676790 0.01860750
v 0.04586511 0.04829852 0.01858164
v 0.04423568 0.04980703 0.01848853
v 0.04307879 0.05033750 0.01868509
v 0.04983004 0.04294413 0.01887130
v 0.04892300 0.04520966 0.01847818
v 0.04895559 0.04667397 0.01777988
v 0.04846133 0.04786199 0.01749021
v 0.04741849 0.04832615 0.01783678
v 0.03469268 0.05758721 0.01833852
v 0.04136246 0.05179629 0.01863336
v 0.03800584 0.05457571 0.01856094
v 0.03634926 0.05607870 0.01845749
v 0.03323706 0.05934990 0.01782126
v 0.03160763 0.06042742 0.01759884
v 0.02688773 0.06106840 0.01854543
v 0.02252087 0.06276479 0.01863336
v 0.02252087 0.06200776 0.01893855
v 0.02387872 0.06096341 0.01911959
v 0.05673338 0.01808403 0.02170072
v 0.05666820 0.01839347 0.02169038
v 0.05676054 0.02307373 0.02106967
v 0.06048649 0.01836032 0.02026791
v 0.05921011 0.02097949 0.02039722
v 0.05800433 0.02307373 0.02056792
v 0.05616308 0.02779267 0.02047481
v 0.05901458 0.02202938 0.02030412
v 0.05750464 0.02535032 0.02032998
v 0.05600014 0.03334047 0.01879888
v 0.05506050 0.03241215 0.01976617
v 0.05598384 0.02859390 0.02035584
v 0.05573943 0.02963826 0.02019032
v 0.05832479 0.03423011 0.01686950
v 0.05934590 0.03526341 0.01579359
v 0.06087212 0.03668351 0.01419008
v 0.05904173 0.03631329 0.01558152
v 0.05874844 0.03723056 0.01539013
v 0.05649440 0.03565574 0.01755228
v 0.05796088 0.03723056 0.01591256
v 0.05627171 0.04004866 0.01583497
v 0.05323011 0.03723056 0.01904717
v 0.02252087 0.05452045 -0.02871161
v 0.02846284 0.05609527 -0.02788916
v 0.03160763 0.05452045 -0.02802365
v 0.03003252 0.05452045 -0.02817883
v 0.02252087 0.05600686 -0.02849436
v 0.02252087 0.05669205 -0.02834953
v 0.03789722 0.05137633 -0.02769778
v 0.04344270 0.04434213 -0.02840125
v 0.04832011 0.03977238 -0.02845298
v 0.04506669 0.04282256 -0.02842194
v 0.04669612 0.04129747 -0.02843746
v 0.05218185 0.03893247 -0.02726845
v 0.05463685 0.03674982 -0.02691671
v 0.05190485 0.03709794 -0.02796676
v 0.05092719 0.03753447 -0.02824607
v 0.04936837 0.03929717 -0.02828746
v 0.05137800 0.04602746 -0.02529768
v 0.05135084 0.04128089 -0.02685981
v 0.03317731 0.05452045 -0.02780123
v 0.03632210 0.05295115 -0.02759432
v 0.05626085 0.03408644 -0.02692706
v 0.05665191 0.03556180 -0.02642532
v 0.06081238 0.03345651 -0.02529251
v 0.06104593 0.03251162 -0.02538045
v 0.05361574 0.03408644 -0.02792537
v 0.05302372 0.03216902 -0.02846333
v 0.05476177 0.02779267 -0.02852540
v 0.05804235 0.01992961 -0.02857195
v 0.05844428 0.01840452 -0.02863919
v 0.05842255 0.01808403 -0.02868057
v 0.05676054 0.01992961 -0.02890300
v 0.05676054 0.01836032 -0.02903231
v 0.05676054 0.01808403 -0.02904783
v 0.04576191 0.04984019 0.01776436
v 0.04257910 0.05131555 0.01837473
v 0.05161155 0.04351879 0.01744366
v 0.05039491 0.04349117 0.01826093
v 0.05045466 0.04498863 0.01757298
v 0.04992238 0.04616560 0.01737641
v 0.04950959 0.04720996 0.01703502
v 0.04800509 0.04890634 0.01712296
v 0.04695682 0.04934288 0.01747987
v 0.03621891 0.05762036 0.01759366
v 0.03475243 0.05883602 0.01752642
v 0.03953207 0.05460886 0.01784712
v 0.03787549 0.05611185 0.01772815
v 0.03379649 0.05994668 0.01712296
v 0.03274823 0.06017876 0.01738159
v 0.02846284 0.06188620 0.01750573
v 0.02374294 0.06368758 0.01768677
v 0.02387872 0.06235589 0.01852991
v 0.02252087 0.06305212 0.01844197
v 0.05833565 0.01808403 0.02111104
v 0.05975868 0.01808403 0.02058344
v 0.06052994 0.01808403 0.02028860
v 0.06146415 0.01808403 0.01975582
v 0.06148044 0.01836032 0.01969892
v 0.06019863 0.01992961 0.02009721
v 0.05879189 0.02307373 0.02014894
v 0.06155105 0.01988541 0.01923856
v 0.06000853 0.02311241 0.01931097
v 0.05730911 0.02622338 0.02019032
v 0.05963919 0.03408644 0.01600050
v 0.05655958 0.03093679 0.01919200
v 0.05888422 0.03251162 0.01704537
v 0.06042674 0.03408644 0.01544703
v 0.06115456 0.03565574 0.01439181
v 0.06217566 0.03466111 0.01397283
v 0.06584730 0.03565574 0.00980887
v 0.06555944 0.03664483 0.00951404
v 0.06050278 0.03773340 0.01384869
v 0.05945452 0.03842411 0.01431422
v 0.05593496 0.04109854 0.01560221
v 0.03003252 0.05609527 -0.02769778
v 0.02252087 0.05757063 -0.02801331
v 0.04011867 0.05203941 -0.02676671
v 0.03954294 0.05145921 -0.02715983
v 0.03946690 0.04980151 -0.02775468
v 0.04261169 0.04549699 -0.02826159
v 0.04886869 0.04033047 -0.02809089
v 0.04449096 0.04386692 -0.02824090
v 0.04576191 0.04509362 -0.02741846
v 0.05939478 0.03523026 -0.02536493
v 0.05517456 0.03725819 -0.02652359
v 0.05219814 0.04366799 -0.02571667
v 0.05086201 0.04707182 -0.02511664
v 0.05195916 0.04659108 -0.02474938
v 0.05251860 0.04509362 -0.02509595
v 0.05282276 0.04429239 -0.02524079
v 0.03171083 0.05622789 -0.02730466
v 0.03317731 0.05583557 -0.02715983
v 0.03482303 0.05462544 -0.02730983
v 0.03632210 0.05412812 -0.02705120
v 0.06182805 0.03251162 -0.02504940
v 0.06208876 0.03132359 -0.02517871
v 0.06044304 0.03450639 -0.02512698
v 0.06231688 0.03027371 -0.02526665
v 0.06148044 0.02779267 -0.02599081
v 0.05954686 0.02622338 -0.02697878
v 0.05776535 0.02121157 -0.02847367
v 0.05923183 0.01808403 -0.02843229
v 0.05897656 0.01808403 -0.02851505
v 0.05865610 0.01808403 -0.02861851
v 0.05703211 0.01808403 -0.02900128
v 0.04410533 0.05134870 0.01763505
v 0.05132368 0.04439738 0.01725227
v 0.05447934 0.04282808 0.01570049
v 0.05006360 0.04790067 0.01599015
v 0.04904792 0.04840351 0.01655914
v 0.05405569 0.04387797 0.01530737
v 0.04975944 0.05066352 0.01413318
v 0.04984634 0.05229912 0.01261761
v 0.04750540 0.04993965 0.01654879
v 0.04628876 0.05038723 0.01702468
v 0.04524049 0.05080166 0.01739711
v 0.03733778 0.05706227 0.01737124
v 0.03905411 0.05559796 0.01745401
v 0.03562688 0.05851553 0.01727296
v 0.03317188 0.06080869 0.01641948
v 0.03160763 0.06121206 0.01674536
v 0.03048333 0.06145520 0.01703502
v 0.03475243 0.05962067 0.01677122
v 0.03542592 0.06311290 0.01243139
v 0.03524125 0.06461037 0.01076581
v 0.02943506 0.06167622 0.01729883
v 0.02531805 0.06334498 0.01739711
v 0.02252087 0.06399702 0.01781092
v 0.02279787 0.06467667 0.01712813
v 0.02252087 0.06438381 0.01747469
v 0.06256673 0.01808403 0.01902648
v 0.06252870 0.01836032 0.01899545
v 0.06234404 0.01933284 0.01884544
v 0.06108938 0.02150444 0.01906269
v 0.06083953 0.02260957 0.01888682
v 0.06060055 0.02365946 0.01871612
v 0.06003025 0.03259450 0.01621258
v 0.06158364 0.03411407 0.01460389
v 0.06087756 0.03212482 0.01576773
v 0.06238749 0.03361123 0.01416422
v 0.06387027 0.03024056 0.01409180
v 0.06535304 0.02686436 0.01400904
v 0.06658054 0.03251162 0.01054856
v 0.06622750 0.03413617 0.01017613
v 0.06710740 0.03361123 0.00950886
v 0.06689557 0.03465558 0.00915195
v 0.06664029 0.03568889 0.00859848
v 0.06687927 0.03623593 0.00756913
v 0.06577126 0.03719188 0.00844330
v 0.06515208 0.03769472 0.00889332
v 0.05751008 0.04897266 0.00771914
v 0.06370732 0.03942978 0.00915195
v 0.06410382 0.03837990 0.00962783
v 0.05903087 0.03947399 0.01397801
v 0.02374294 0.05766457 -0.02782192
v 0.02531805 0.05766457 -0.02762536
v 0.02688773 0.05766457 -0.02742880
v 0.02531805 0.05979749 -0.02672015
v 0.02688773 0.05876971 -0.02695810
v 0.02803376 0.05858183 -0.02687533
v 0.02908202 0.05839396 -0.02678223
v 0.03003252 0.05739381 -0.02708223
v 0.02252087 0.05926702 -0.02729431
v 0.04818433 0.04906106 -0.02526665
v 0.03724545 0.05382422 -0.02687533
v 0.04878721 0.04813828 -0.02540631
v 0.04418680 0.04863006 -0.02668395
v 0.04275834 0.04837588 -0.02722190
v 0.04883066 0.04501073 -0.02648221
v 0.05899828 0.03628014 -0.02518906
v 0.04981918 0.04755255 -0.02528216
v 0.04923259 0.04859691 -0.02505974
v 0.05038948 0.04813828 -0.02477525
v 0.05193200 0.04809407 -0.02395798
v 0.05371351 0.04516545 -0.02433040
v 0.05518543 0.04199371 -0.02490974
v 0.05285535 0.04748072 -0.02369935
v 0.05316494 0.04665739 -0.02393729
v 0.05715703 0.03907061 -0.02504940
v 0.05571227 0.04081121 -0.02512182
v 0.05426752 0.04255180 -0.02518388
v 0.03126002 0.05709542 -0.02695292
v 0.03434507 0.05553165 -0.02697361
v 0.03230829 0.05683572 -0.02678739
v 0.03539333 0.05521669 -0.02675636
v 0.06139354 0.03402566 -0.02474938
v 0.06253957 0.03408644 -0.02392694
v 0.06310444 0.03242873 -0.02418040
v 0.06328367 0.02936750 -0.02496146
v 0.06359870 0.02779267 -0.02513733
v 0.06524985 0.02346053 -0.02517871
v 0.05863981 0.03723056 -0.02499250
v 0.05991619 0.03571652 -0.02490974
v 0.06546167 0.02241065 -0.02526665
v 0.06422874 0.02464855 -0.02540631
v 0.06375077 0.01808403 -0.02668395
v 0.06357697 0.01836032 -0.02670981
v 0.06306642 0.01808403 -0.02696326
v 0.06278941 0.01836032 -0.02703051
v 0.06246896 0.01992961 -0.02690120
v 0.06229516 0.02079162 -0.02682878
v 0.06148044 0.01808403 -0.02758398
v 0.05882991 0.01992961 -0.02828228
v 0.05519629 0.04509914 0.01328487
v 0.04963451 0.04895055 0.01558669
v 0.05755896 0.04117038 0.01407111
v 0.05135628 0.05071325 0.01258657
v 0.05088917 0.05176313 0.01218311
v 0.05011791 0.04980151 0.01446940
v 0.05144318 0.05239306 0.01113307
v 0.05037862 0.05286827 0.01162446
v 0.04987350 0.05387395 0.01107099
v 0.04920000 0.05334900 0.01211586
v 0.04876549 0.05287380 0.01289175
v 0.04755428 0.05155315 0.01501253
v 0.04352960 0.05226597 0.01730400
v 0.04010237 0.05518906 0.01709709
v 0.04187301 0.05691308 0.01409698
v 0.04104201 0.05721699 0.01442285
v 0.03612114 0.05909573 0.01626430
v 0.03838604 0.05664784 0.01699364
v 0.04186216 0.05533825 0.01566428
v 0.04815174 0.05376343 0.01251415
v 0.04640282 0.05520011 0.01237967
v 0.03317731 0.06296923 0.01381765
v 0.03254184 0.06166517 0.01571600
v 0.03461121 0.06547237 0.01006233
v 0.02486181 0.06488665 0.01580911
v 0.03557257 0.06005167 0.01566428
v 0.03711509 0.06474851 0.00935368
v 0.03551282 0.06158228 0.01404525
v 0.03632210 0.06498059 0.00962783
v 0.03502943 0.06610230 0.00906919
v 0.02258604 0.06615756 0.01544703
v 0.02252087 0.06561604 0.01613499
v 0.02252087 0.06504690 0.01681777
v 0.06415270 0.01808403 0.01773850
v 0.06852500 0.01892394 0.01402973
v 0.06755277 0.01992961 0.01452113
v 0.06656968 0.01992961 0.01530737
v 0.06578213 0.01992961 0.01593325
v 0.06212135 0.02038272 0.01867474
v 0.06478818 0.01992961 0.01671949
v 0.06402778 0.02464855 0.01578842
v 0.06364215 0.02652729 0.01548324
v 0.06296322 0.02937302 0.01509529
v 0.06237662 0.02885361 0.01572635
v 0.06215937 0.02989796 0.01555565
v 0.06187150 0.02150444 0.01849370
v 0.06111654 0.02622338 0.01751090
v 0.06261561 0.03251162 0.01434526
v 0.06309901 0.03083180 0.01451078
v 0.06460351 0.02617365 0.01483666
v 0.06626009 0.02301295 0.01455217
v 0.06703679 0.02244380 0.01411249
v 0.06833489 0.02779267 0.01071926
v 0.06683039 0.02349368 0.01391076
v 0.06999148 0.02353236 0.01080202
v 0.07151770 0.01992961 0.01074512
v 0.06733008 0.03251162 0.00976232
v 0.06857388 0.03020187 0.00937437
v 0.07188704 0.02150444 0.00959680
v 0.07025219 0.02574264 0.00951921
v 0.06813393 0.03401460 0.00691738
v 0.06840007 0.03449534 0.00583630
v 0.06712369 0.03518605 0.00810191
v 0.06836748 0.03125176 0.00893470
v 0.06810678 0.03242873 0.00846917
v 0.07010554 0.03009689 0.00614666
v 0.07160461 0.02833972 0.00440349
v 0.06839464 0.03289841 0.00739844
v 0.06737353 0.03568889 0.00702083
v 0.06881829 0.03716425 0.00219995
v 0.06862276 0.03812019 0.00162579
v 0.06712912 0.03667246 0.00651909
v 0.06649907 0.03720845 0.00702083
v 0.06509777 0.03915902 0.00698980
v 0.06363672 0.04088304 0.00738292
v 0.06220282 0.04265126 0.00765707
v 0.06077436 0.04441948 0.00788983
v 0.05780337 0.04936498 0.00666910
v 0.05597298 0.05216098 0.00619321
v 0.05603273 0.05066352 0.00783293
v 0.05578288 0.04564066 0.01227104
v 0.05766215 0.04288887 0.01261761
v 0.06223541 0.04112617 0.00931230
v 0.05894397 0.04722654 0.00746568
v 0.05619567 0.04459078 0.01271071
v 0.05473462 0.04628164 0.01280382
v 0.05712987 0.04222026 0.01366765
v 0.02531805 0.05900731 -0.02705637
v 0.02252087 0.06072580 -0.02667360
v 0.02252087 0.06200776 -0.02612013
v 0.02252087 0.06334498 -0.02549942
v 0.02252087 0.06351076 -0.02542182
v 0.03003252 0.05817846 -0.02663222
v 0.02329213 0.06333393 -0.02534941
v 0.04531653 0.05081271 -0.02538562
v 0.04636480 0.05045354 -0.02516837
v 0.04891214 0.04980703 -0.02448041
v 0.03782117 0.05442099 -0.02624427
v 0.04261169 0.05248700 -0.02545803
v 0.05047095 0.04943129 -0.02396832
v 0.05132912 0.04907764 -0.02372521
v 0.05520715 0.04348564 -0.02418557
v 0.05237738 0.04852507 -0.02330105
v 0.05298570 0.04918263 -0.02225101
v 0.05344737 0.04800566 -0.02271655
v 0.05588608 0.04576223 -0.02201307
v 0.05931874 0.04298833 -0.02071992
v 0.06076350 0.04125326 -0.02059577
v 0.05430010 0.04574012 -0.02357520
v 0.05613049 0.04293860 -0.02381314
v 0.05469116 0.04469024 -0.02391659
v 0.03317731 0.05662021 -0.02663222
v 0.03475243 0.05734408 -0.02556666
v 0.03632210 0.05962619 -0.02340451
v 0.03789722 0.06112365 -0.02178030
v 0.03582241 0.05705674 -0.02536493
v 0.02434039 0.06307422 -0.02517871
v 0.03171083 0.05764246 -0.02643048
v 0.03528470 0.05990248 -0.02358554
v 0.03475243 0.05812873 -0.02501836
v 0.03633840 0.05615606 -0.02574253
v 0.05991619 0.03718635 -0.02418040
v 0.06140983 0.03550654 -0.02399935
v 0.06332169 0.03408644 -0.02316139
v 0.06366931 0.03289289 -0.02348209
v 0.06227343 0.03488214 -0.02368383
v 0.06387027 0.03491529 -0.02213204
v 0.06388656 0.03184853 -0.02373038
v 0.06407123 0.03093679 -0.02391659
v 0.06438625 0.02936750 -0.02417523
v 0.06642846 0.02150444 -0.02496146
v 0.06501630 0.02464855 -0.02505457
v 0.06674349 0.01992961 -0.02513733
v 0.06692816 0.01900130 -0.02522009
v 0.06711282 0.01808403 -0.02529768
v 0.05283362 0.04902239 0.01249346
v 0.05450650 0.05224387 0.00785362
v 0.05433269 0.05368055 0.00607942
v 0.05158439 0.05557586 0.00651909
v 0.04345356 0.06006825 0.00940024
v 0.04811915 0.05530510 0.01092099
v 0.05487040 0.05257541 0.00698980
v 0.04705459 0.05256436 0.01443837
v 0.04248133 0.05444861 0.01604188
v 0.04585424 0.05616158 0.01177964
v 0.03398116 0.06632333 0.00935368
v 0.03086896 0.06633991 0.01094685
v 0.02881045 0.06612993 0.01226587
v 0.02839223 0.06550000 0.01324349
v 0.02569825 0.06614651 0.01385386
v 0.02464998 0.06636753 0.01412801
v 0.04408361 0.05759273 0.01162446
v 0.03722915 0.06168727 0.01258657
v 0.03750615 0.06505795 0.00856227
v 0.03636556 0.06580944 0.00855193
v 0.04065638 0.06189172 0.00966404
v 0.04170464 0.06151045 0.00919333
v 0.03586586 0.06646700 0.00801915
v 0.03254184 0.06795341 0.00787949
v 0.03160763 0.06814681 0.00816916
v 0.03160763 0.06760529 0.00895539
v 0.03062455 0.06780974 0.00924506
v 0.02252087 0.06624597 0.01536944
v 0.02252087 0.06606362 0.01559186
v 0.02374294 0.06655541 0.01436078
v 0.02252087 0.06761634 0.01367282
v 0.02252087 0.06674328 0.01475390
v 0.06685211 0.01808403 0.01553496
v 0.07168608 0.01907866 0.01090547
v 0.06834032 0.01992961 0.01383317
v 0.06763967 0.01808403 0.01488839
v 0.06830774 0.01808403 0.01431422
v 0.07190334 0.01808403 0.01087443
v 0.06612431 0.02154864 0.01513667
v 0.07220206 0.01992961 0.00995888
v 0.07046944 0.02464855 0.00977784
v 0.07004036 0.02679252 0.00916230
v 0.07171867 0.02233329 0.00937437
v 0.07318515 0.01881895 0.00915712
v 0.06941574 0.03251162 0.00541732
v 0.07012726 0.03643486 -0.00009669
v 0.06999148 0.03738528 -0.00072258
v 0.06840007 0.03607569 0.00426900
v 0.06813936 0.03559495 0.00535008
v 0.07183273 0.02888676 0.00335345
v 0.07283211 0.02770979 0.00218444
v 0.07151228 0.02338317 0.00892953
v 0.07301135 0.02000697 0.00860365
v 0.07346216 0.02118395 0.00660702
v 0.07331550 0.02553266 0.00314137
v 0.07630822 0.02201832 -0.00034497
v 0.07504270 0.02432254 0.00035333
v 0.06862819 0.03659510 0.00321896
v 0.06944290 0.03723056 0.00069989
v 0.06918763 0.03892695 -0.00075878
v 0.06878570 0.03988289 -0.00120880
v 0.06851956 0.03954030 -0.00015876
v 0.06829687 0.03923638 0.00069989
v 0.06704221 0.03809257 0.00473454
v 0.06670003 0.03919770 0.00384485
v 0.06066573 0.04583959 0.00614666
v 0.06101877 0.04475102 0.00698980
v 0.05923183 0.04760228 0.00642081
v 0.05961747 0.04668502 0.00695876
v 0.05742317 0.05041486 0.00592424
v 0.05565796 0.05182391 0.00698980
v 0.05911777 0.04901133 0.00462074
v 0.06418529 0.04475655 0.00069989
v 0.06043761 0.04868532 0.00227237
v 0.05790114 0.05104479 0.00384485
v 0.05879189 0.05173550 0.00069989
v 0.05756439 0.05375791 -0.00005013
v 0.05598928 0.05374685 0.00307930
v 0.02252087 0.06404675 -0.02511147
v 0.02252087 0.06427330 -0.02495629
v 0.04451812 0.05186259 -0.02504940
v 0.04732073 0.05142606 -0.02413384
v 0.04859168 0.05092875 -0.02389590
v 0.04963995 0.05055300 -0.02364245
v 0.03834259 0.05823372 -0.02352865
v 0.04104201 0.05656496 -0.02346657
v 0.03977106 0.05499014 -0.02503905
v 0.05047095 0.05021594 -0.02331657
v 0.05136714 0.05068010 -0.02218377
v 0.05416975 0.05195653 -0.01876984
v 0.05940021 0.03838543 -0.02391659
v 0.05469116 0.05090665 -0.01924055
v 0.05573943 0.05028224 -0.01871811
v 0.05515284 0.04975178 -0.01970091
v 0.05403396 0.04853613 -0.02173375
v 0.05845514 0.04524834 -0.01986126
v 0.06347377 0.04037467 -0.01859397
v 0.06379422 0.03952924 -0.01891467
v 0.05756982 0.04118696 -0.02369417
v 0.06419072 0.03848489 -0.01929227
v 0.06463610 0.03724161 -0.01975264
v 0.06083411 0.03663378 -0.02380797
v 0.03677834 0.06143309 -0.02198204
v 0.03789722 0.06033901 -0.02231825
v 0.03917903 0.06190277 -0.02074578
v 0.03729433 0.05857078 -0.02375107
v 0.02378639 0.06389755 -0.02479077
v 0.02530718 0.06403569 -0.02416488
v 0.02846284 0.06048267 -0.02556666
v 0.03323706 0.05918966 -0.02480628
v 0.03573008 0.06169280 -0.02216825
v 0.03876624 0.06007930 -0.02213721
v 0.06541822 0.03488766 -0.02053887
v 0.06558659 0.03408644 -0.02073026
v 0.06243637 0.03666694 -0.02226136
v 0.06348463 0.03596518 -0.02175961
v 0.06562461 0.03673324 -0.01916296
v 0.06556487 0.02740035 -0.02383901
v 0.06626009 0.03108599 -0.02138201
v 0.06735181 0.02936750 -0.02094751
v 0.07181100 0.02254879 -0.01907502
v 0.07202283 0.02150444 -0.01930779
v 0.06709110 0.02726773 -0.02221480
v 0.06703679 0.02399100 -0.02373038
v 0.06870966 0.01953176 -0.02383901
v 0.06580385 0.02622338 -0.02405626
v 0.06753104 0.02150444 -0.02417523
v 0.06894321 0.01836032 -0.02405108
v 0.06779718 0.01808403 -0.02493560
v 0.05018852 0.05885812 0.00227237
v 0.04622902 0.06133916 0.00384485
v 0.04544146 0.06198014 0.00384485
v 0.04344270 0.06320132 0.00467247
v 0.03868477 0.06474298 0.00777086
v 0.03147728 0.06673223 0.01014509
v 0.02646408 0.06804182 0.01110720
v 0.02415572 0.06930721 0.01072443
v 0.04121038 0.06093578 0.01026407
v 0.03691413 0.06620729 0.00729498
v 0.03893462 0.06642279 0.00337931
v 0.03475243 0.06724613 0.00698980
v 0.03562145 0.06792578 0.00314654
v 0.02918522 0.06943430 0.00763638
v 0.02477491 0.07113621 0.00794673
v 0.02813695 0.06965532 0.00807605
v 0.02374294 0.07081020 0.00904333
v 0.02726250 0.06929063 0.00912609
v 0.02285761 0.07099254 0.00929679
v 0.02252087 0.06964427 0.01114858
v 0.07253881 0.01808403 0.01020199
v 0.07292444 0.01808403 0.00978818
v 0.07495579 0.01942677 0.00487420
v 0.07342957 0.01953176 0.00810708
v 0.07346216 0.01808403 0.00895539
v 0.07284297 0.03086496 -0.00095017
v 0.07034452 0.03696532 -0.00114673
v 0.07333180 0.03028476 -0.00152950
v 0.07183816 0.03362781 -0.00133812
v 0.07609096 0.02308478 -0.00087258
v 0.07466793 0.02634494 -0.00075878
v 0.07371743 0.02000697 0.00707256
v 0.07652004 0.02096844 0.00013091
v 0.07478199 0.02212331 0.00291378
v 0.07674816 0.02149891 -0.00087258
v 0.07653091 0.02256537 -0.00139502
v 0.07012726 0.03801521 -0.00245023
v 0.06968189 0.03879985 -0.00245023
v 0.06889433 0.04002656 -0.00245023
v 0.06547254 0.04438633 -0.00151916
v 0.06732465 0.04160690 -0.00087775
v 0.06709110 0.04130299 0.00011539
v 0.06747130 0.04039678 0.00066369
v 0.06659141 0.04039678 0.00236548
v 0.06517381 0.04240813 0.00227237
v 0.06204531 0.04557988 0.00384485
v 0.06093730 0.04620981 0.00509662
v 0.06225713 0.04586169 0.00303275
v 0.06395174 0.04445264 0.00170856
v 0.06523898 0.04408242 -0.00047429
v 0.05924813 0.05232675 -0.00136398
v 0.05774362 0.05395683 -0.00087775
v 0.05674424 0.05484647 -0.00074844
v 0.05677140 0.05420549 0.00056541
v 0.05595126 0.05528852 -0.00013807
v 0.05571227 0.05509513 0.00069989
v 0.05360489 0.05608422 0.00224651
v 0.02252087 0.06525135 -0.02415453
v 0.02374294 0.06503032 -0.02394246
v 0.02478034 0.06483692 -0.02376141
v 0.04678845 0.05232123 -0.02377693
v 0.04349701 0.05695728 -0.02214756
v 0.04022730 0.06157676 -0.02050784
v 0.04783671 0.05197863 -0.02352865
v 0.04748910 0.05465307 -0.02143891
v 0.04361107 0.05862604 -0.02068888
v 0.03981451 0.05973671 -0.02191479
v 0.04061836 0.05869235 -0.02225618
v 0.05312149 0.05239858 -0.01917848
v 0.04803225 0.05523879 -0.02046129
v 0.04890670 0.05487962 -0.02011989
v 0.05025913 0.05434363 -0.01957159
v 0.05143232 0.05387947 -0.01909054
v 0.04974858 0.05535483 -0.01900261
v 0.05248058 0.05344847 -0.01866121
v 0.05477264 0.05247042 -0.01772497
v 0.05525603 0.05144816 -0.01822154
v 0.05623912 0.05093980 -0.01767324
v 0.05904173 0.04577328 -0.01887846
v 0.05944366 0.04472892 -0.01927676
v 0.05915579 0.04749177 -0.01742496
v 0.05718962 0.04854718 -0.01859914
v 0.06424503 0.04037467 -0.01780773
v 0.06574954 0.03846831 -0.01774049
v 0.06523898 0.03778313 -0.01878536
v 0.06390829 0.04125326 -0.01746634
v 0.06204531 0.03771682 -0.02188893
v 0.03362269 0.06300239 -0.02197169
v 0.03776686 0.06241114 -0.02091130
v 0.03949949 0.06083079 -0.02133029
v 0.03715854 0.06318473 -0.02054405
v 0.03820681 0.06295266 -0.02027507
v 0.03257442 0.06325105 -0.02216308
v 0.03475243 0.06193593 -0.02233894
v 0.02688773 0.06356048 -0.02394763
v 0.06714541 0.03671114 -0.01759048
v 0.06670547 0.03565574 -0.01867156
v 0.06692816 0.03473294 -0.01888881
v 0.06646105 0.03415827 -0.01969574
v 0.06621121 0.03724714 -0.01819051
v 0.06862819 0.03032344 -0.01903364
v 0.07159375 0.02359867 -0.01882674
v 0.07280495 0.02150444 -0.01841810
v 0.07306566 0.02020037 -0.01872328
v 0.07327749 0.01915049 -0.01895605
v 0.07241389 0.01974174 -0.01965436
v 0.07029020 0.02268693 -0.02070440
v 0.06903012 0.02150444 -0.02262344
v 0.06831860 0.02150444 -0.02340968
v 0.06850327 0.02058164 -0.02361141
v 0.06973077 0.01836032 -0.02323381
v 0.06912245 0.01808403 -0.02395798
v 0.06898667 0.01808403 -0.02408729
v 0.05396336 0.05652075 0.00069989
v 0.04922172 0.05964277 0.00227237
v 0.04447467 0.06276479 0.00384485
v 0.04368711 0.06338366 0.00384485
v 0.04170464 0.06466010 0.00442418
v 0.04112348 0.06519056 0.00387588
v 0.03946147 0.06602494 0.00388105
v 0.04002090 0.06621282 0.00227237
v 0.03923335 0.06655541 0.00227237
v 0.03583871 0.06801972 0.00227237
v 0.02922324 0.07102570 0.00143441
v 0.02590464 0.07252316 0.00104129
v 0.02252087 0.07232423 0.00698980
v 0.02252087 0.07169430 0.00847951
v 0.02252087 0.07136829 0.00895022
v 0.02252087 0.07076047 0.00975198
v 0.02252087 0.07046760 0.01011923
v 0.07646030 0.01927205 0.00158441
v 0.07666669 0.01985225 0.00067403
v 0.07628106 0.02032194 0.00118095
v 0.07500467 0.01808403 0.00544319
v 0.07473310 0.01836032 0.00594493
v 0.07504270 0.02590289 -0.00120363
v 0.07377718 0.02936750 -0.00245023
v 0.07709034 0.02150444 -0.00245023
v 0.07659065 0.02269799 -0.00245023
v 0.07731303 0.01992961 -0.00087775
v 0.07764435 0.01992961 -0.00245023
v 0.07238674 0.03251162 -0.00401753
v 0.07009468 0.03793785 -0.00401753
v 0.06960042 0.03879985 -0.00401753
v 0.06884545 0.03996578 -0.00401753
v 0.06829144 0.04081673 -0.00245023
v 0.06070375 0.05060273 -0.00163813
v 0.06586903 0.04354090 -0.00095017
v 0.06672176 0.04239155 -0.00087775
v 0.06539106 0.04270099 0.00143441
v 0.05788484 0.05411707 -0.00245023
v 0.05708642 0.05490172 -0.00245023
v 0.05621196 0.05548192 -0.00118294
v 0.05426209 0.05676388 -0.00050533
v 0.05121506 0.05842159 0.00139303
v 0.02252087 0.06586470 -0.02352865
v 0.02252087 0.06604152 -0.02333726
v 0.02920151 0.06472640 -0.02208031
v 0.04261169 0.05725014 -0.02234412
v 0.04166662 0.05834976 -0.02202859
v 0.03960268 0.06246640 -0.01986643
v 0.04076501 0.06198014 -0.01945780
v 0.04356762 0.06015113 -0.01911123
v 0.04531110 0.05870340 -0.01923020
v 0.04806484 0.05683572 -0.01889915
v 0.04890670 0.05570295 -0.01933365
v 0.04465933 0.05819504 -0.02028024
v 0.05307803 0.05391815 -0.01761117
v 0.05412630 0.05352030 -0.01699563
v 0.05582090 0.05198968 -0.01714564
v 0.05670623 0.05131003 -0.01650423
v 0.05937848 0.04777910 -0.01659734
v 0.06535848 0.03951819 -0.01729047
v 0.03475243 0.06439486 -0.02008886
v 0.03003252 0.06805287 -0.01758531
v 0.03085810 0.06790368 -0.01740427
v 0.03574637 0.06483139 -0.01907502
v 0.03776686 0.06351076 -0.01974746
v 0.03897264 0.06332841 -0.01922503
v 0.06843809 0.03615305 -0.01553695
v 0.06817738 0.03563916 -0.01657148
v 0.06840550 0.03453955 -0.01707839
v 0.06863362 0.03348966 -0.01748703
v 0.06738439 0.03565574 -0.01788532
v 0.06679780 0.03776102 -0.01705253
v 0.06738439 0.03723608 -0.01655596
v 0.06817195 0.03251162 -0.01851638
v 0.07330464 0.02236092 -0.01742496
v 0.07369027 0.01978042 -0.01818533
v 0.07477656 0.01874711 -0.01724909
v 0.07425514 0.01827743 -0.01802498
v 0.07336982 0.01836032 -0.01907502
v 0.07269633 0.01836032 -0.01986126
v 0.07190877 0.01836032 -0.02077681
v 0.07122441 0.01836032 -0.02156305
v 0.07043685 0.01836032 -0.02244757
v 0.06977422 0.01808403 -0.02328036
v 0.04648429 0.06154913 0.00291895
v 0.04254651 0.06423462 0.00387588
v 0.04953132 0.05989695 0.00098956
v 0.04197621 0.06485350 0.00337931
v 0.04104201 0.06567682 0.00227237
v 0.04021643 0.06630123 0.00139820
v 0.03946690 0.06736216 -0.00245023
v 0.03464923 0.06914143 -0.00090879
v 0.03160763 0.07014159 0.00069989
v 0.03324792 0.06974374 -0.00090879
v 0.02945679 0.07112516 0.00038437
v 0.02675194 0.07224687 0.00059127
v 0.02613819 0.07262262 -0.00000875
v 0.02535607 0.07283812 0.00059127
v 0.02374294 0.07347358 0.00069989
v 0.02252087 0.07382170 0.00059127
v 0.07565102 0.01836032 0.00384485
v 0.07654720 0.01836032 0.00177580
v 0.07700887 0.01836032 0.00069989
v 0.07770952 0.01833269 -0.00098638
v 0.07650918 0.01808403 0.00196201
v 0.07701430 0.02150444 -0.00401753
v 0.07622675 0.02339975 -0.00401753
v 0.07510787 0.02605761 -0.00401753
v 0.07785074 0.01808403 -0.00126053
v 0.07793221 0.01866975 -0.00245023
v 0.07756288 0.01992961 -0.00401753
v 0.07298419 0.03080418 -0.00553828
v 0.07175126 0.03341230 -0.00716248
v 0.07030107 0.03684376 -0.00716248
v 0.07023589 0.03669456 -0.00873496
v 0.06996432 0.03763393 -0.00716248
v 0.06904098 0.03871697 -0.01030744
v 0.06944834 0.03879985 -0.00559001
v 0.06875854 0.03984973 -0.00559001
v 0.06736810 0.04166216 -0.00559001
v 0.06824256 0.04075042 -0.00401753
v 0.06684669 0.04255732 -0.00401753
v 0.06488051 0.04519861 -0.00245023
v 0.06070375 0.05060273 -0.00182434
v 0.05866696 0.05315560 -0.00245023
v 0.05860722 0.05307825 -0.00401753
v 0.05781966 0.05404524 -0.00401753
v 0.05701581 0.05482989 -0.00401753
v 0.05622826 0.05550955 -0.00401753
v 0.05630430 0.05555375 -0.00245023
v 0.05444132 0.05690755 -0.00155019
v 0.05368635 0.05731645 -0.00096569
v 0.04843417 0.06026717 0.00227237
v 0.02252087 0.06667697 -0.02255102
v 0.02374294 0.06646700 -0.02228722
v 0.02852802 0.06555526 -0.02134580
v 0.04002090 0.06302449 -0.01870259
v 0.04181327 0.06158781 -0.01893536
v 0.04635937 0.05830003 -0.01872846
v 0.05132368 0.05536036 -0.01745599
v 0.05243713 0.05501776 -0.01659734
v 0.05102496 0.05670863 -0.01547488
v 0.05276301 0.05526089 -0.01571282
v 0.05449563 0.05380763 -0.01594559
v 0.05515827 0.05292353 -0.01654561
v 0.05612506 0.05232675 -0.01610077
v 0.05718419 0.05169130 -0.01502486
v 0.05757525 0.05062484 -0.01586283
v 0.06087756 0.04612140 -0.01616801
v 0.06563005 0.03987736 -0.01624043
v 0.06733551 0.03847384 -0.01502486
v 0.06708024 0.03814230 -0.01600249
v 0.03165651 0.06580944 -0.01967505
v 0.03309041 0.06521267 -0.01979402
v 0.02531805 0.06903092 -0.01841810
v 0.02531805 0.06966085 -0.01763186
v 0.02374294 0.07135171 -0.01620422
v 0.02486724 0.07115279 -0.01596111
v 0.02591550 0.07097044 -0.01568696
v 0.02923953 0.06945640 -0.01580076
v 0.03190636 0.06767713 -0.01695942
v 0.03679464 0.06461589 -0.01869742
v 0.03791894 0.06438381 -0.01816982
v 0.04008608 0.06466010 -0.01566110
v 0.06866621 0.03667799 -0.01449208
v 0.06965473 0.03555075 -0.01333859
v 0.07016529 0.03495397 -0.01274374
v 0.06865535 0.03510869 -0.01603352
v 0.06840007 0.03772787 -0.01393344
v 0.07012183 0.03013557 -0.01736806
v 0.06866078 0.03816440 -0.01288340
v 0.07347845 0.02296322 -0.01649906
v 0.07480371 0.02060927 -0.01570765
v 0.07501011 0.01955939 -0.01619905
v 0.07460275 0.02002355 -0.01666976
v 0.07346758 0.02150444 -0.01763186
v 0.07576508 0.01836032 -0.01502486
v 0.07509701 0.01827743 -0.01666976
v 0.07502097 0.01808403 -0.01691287
v 0.07483087 0.01808403 -0.01734737
v 0.07445611 0.01808403 -0.01782325
v 0.07648746 0.01936046 -0.01283685
v 0.07339698 0.01808403 -0.01910089
v 0.07194136 0.01808403 -0.02081302
v 0.07126243 0.01808403 -0.02159926
v 0.07047487 0.01808403 -0.02249412
v 0.04896645 0.06042742 0.00056023
v 0.04403472 0.06363785 0.00227237
v 0.04482228 0.06305212 0.00227237
v 0.04295930 0.06442249 0.00227237
v 0.04217174 0.06499164 0.00227237
v 0.04168835 0.06624045 -0.00200538
v 0.04188388 0.06635096 -0.00305543
v 0.04043369 0.06640069 0.00034816
v 0.04104201 0.06694774 -0.00401753
v 0.03941802 0.06764950 -0.00390374
v 0.03865218 0.06787605 -0.00330888
v 0.03405720 0.06950061 -0.00145709
v 0.03072774 0.07099807 -0.00192262
v 0.02755036 0.07255631 -0.00359855
v 0.02531805 0.07353989 -0.00401753
v 0.02531805 0.07308678 -0.00087775
v 0.02374294 0.07373328 -0.00087775
v 0.03886401 0.06796446 -0.00435375
v 0.02292822 0.07417534 -0.00169503
v 0.02252087 0.07410903 -0.00079499
v 0.07705232 0.01808403 0.00069989
v 0.07763891 0.01808403 -0.00071740
v 0.07657436 0.02109001 -0.01030744
v 0.07686222 0.02150444 -0.00559001
v 0.07638426 0.02220067 -0.00756078
v 0.07345129 0.02900280 -0.00873496
v 0.07119182 0.03408644 -0.01030744
v 0.07352733 0.02917962 -0.00716248
v 0.07195765 0.03261660 -0.00864703
v 0.07171324 0.03332389 -0.00806252
v 0.07800825 0.01808403 -0.00245023
v 0.07798653 0.01808403 -0.00314336
v 0.07789962 0.01831611 -0.00402788
v 0.07775298 0.01836032 -0.00559001
v 0.07761176 0.01836032 -0.00716248
v 0.07732389 0.01836032 -0.01030744
v 0.07697628 0.01992961 -0.01030744
v 0.07013270 0.03645144 -0.01109885
v 0.06989371 0.03747921 -0.00873496
v 0.06982310 0.03731897 -0.01030744
v 0.06885631 0.03844621 -0.01187991
v 0.06849240 0.03950162 -0.01030744
v 0.06728120 0.04154612 -0.00716248
v 0.06528787 0.04414320 -0.00716248
v 0.06389742 0.04595010 -0.00716248
v 0.06535848 0.04423714 -0.00585381
v 0.06541279 0.04430897 -0.00480894
v 0.06609715 0.04351879 -0.00401753
v 0.06018233 0.05122714 -0.00238816
v 0.06067116 0.05055853 -0.00286921
v 0.05908518 0.05211678 -0.00716248
v 0.05829220 0.05295115 -0.00873496
v 0.05752093 0.05370265 -0.01079366
v 0.05756982 0.05375791 -0.00974362
v 0.06483163 0.04513783 -0.00401753
v 0.05592410 0.05526642 -0.00908153
v 0.05603816 0.05536036 -0.00716248
v 0.05690176 0.05429390 -0.01028157
v 0.05519086 0.05603449 -0.00716248
v 0.04817346 0.06164307 -0.00677454
v 0.05002015 0.06028927 -0.00559001
v 0.05523974 0.05629420 -0.00401753
v 0.05089461 0.05974223 -0.00401753
v 0.05011248 0.06035006 -0.00401753
v 0.04908594 0.06114023 -0.00401753
v 0.05526690 0.05634393 -0.00245023
v 0.04969969 0.06003509 -0.00006048
v 0.05361574 0.05759826 -0.00245023
v 0.05082943 0.05970908 -0.00245023
v 0.04386635 0.06509663 -0.00401753
v 0.04824407 0.06168727 -0.00281749
v 0.04982462 0.06012350 -0.00087775
v 0.02252087 0.06729033 -0.02179065
v 0.02252087 0.06809708 -0.02078716
v 0.04046628 0.06332288 -0.01765255
v 0.04269316 0.06129495 -0.01831465
v 0.04957477 0.05679704 -0.01723357
v 0.05164957 0.05560901 -0.01659734
v 0.04998212 0.05709542 -0.01618353
v 0.04687535 0.06027270 -0.01466795
v 0.04792362 0.05988037 -0.01394896
v 0.05363204 0.05578584 -0.01339549
v 0.05480523 0.05404524 -0.01502486
v 0.05000928 0.05869787 -0.01314203
v 0.05589694 0.05366949 -0.01411966
v 0.05559278 0.05341531 -0.01502486
v 0.05771104 0.05237095 -0.01298168
v 0.05621740 0.05394578 -0.01306961
v 0.05731454 0.05347609 -0.01187991
v 0.05830306 0.05133213 -0.01338514
v 0.06074720 0.04751387 -0.01433691
v 0.06464153 0.04196608 -0.01505073
v 0.06694988 0.03954582 -0.01417138
v 0.06780805 0.03885511 -0.01352480
v 0.02252087 0.06918564 -0.01943193
v 0.02374294 0.07072178 -0.01699046
v 0.02252087 0.07145118 -0.01654044
v 0.02252087 0.07213636 -0.01563523
v 0.02327040 0.07273314 -0.01445070
v 0.02252087 0.06951166 -0.01902330
v 0.02252087 0.07092071 -0.01723874
v 0.02655641 0.07123567 -0.01464209
v 0.02700179 0.07079914 -0.01510763
v 0.03630581 0.06748373 -0.01342135
v 0.03309041 0.06738426 -0.01649906
v 0.03740839 0.06487560 -0.01764738
v 0.03845665 0.06464352 -0.01717667
v 0.03952664 0.06520161 -0.01509211
v 0.03952664 0.06600837 -0.01348342
v 0.04008608 0.06624045 -0.01247476
v 0.04055318 0.06493086 -0.01461105
v 0.06888890 0.03721398 -0.01342652
v 0.07186532 0.03054447 -0.01303341
v 0.06994802 0.03600385 -0.01214889
v 0.07164806 0.03159435 -0.01251614
v 0.07483087 0.02381970 -0.01261960
v 0.07162090 0.02838392 -0.01562489
v 0.07183816 0.02733404 -0.01611629
v 0.06828058 0.03923086 -0.01187991
v 0.06962757 0.03707584 -0.01172473
v 0.06660227 0.04040231 -0.01356619
v 0.06721602 0.03989394 -0.01312134
v 0.06391372 0.04440291 -0.01281098
v 0.06536391 0.04267336 -0.01255753
v 0.06681410 0.04094382 -0.01226269
v 0.07504813 0.02276982 -0.01311617
v 0.07532513 0.02161495 -0.01356619
v 0.07631365 0.02041035 -0.01237131
v 0.07606380 0.01990198 -0.01339549
v 0.07625390 0.01836032 -0.01383516
v 0.07659608 0.01808403 -0.01309030
v 0.07586827 0.01808403 -0.01485934
v 0.07512417 0.01808403 -0.01666458
v 0.07665583 0.01990198 -0.01185922
v 0.07699258 0.01836032 -0.01187991
v 0.07657436 0.01836032 -0.01304892
v 0.04319285 0.06459379 0.00069989
v 0.04273661 0.06525687 -0.00084155
v 0.04568587 0.06275926 0.00081886
v 0.04240529 0.06516294 0.00069989
v 0.04202510 0.06645042 -0.00401753
v 0.04111805 0.06662172 -0.00249678
v 0.04349701 0.06481482 -0.00134329
v 0.04631592 0.06300792 -0.00245023
v 0.04104201 0.06703615 -0.00559001
v 0.03534988 0.06938457 -0.00401753
v 0.02772960 0.07262815 -0.00464859
v 0.02413943 0.07402062 -0.00401753
v 0.02368862 0.07395984 -0.00231057
v 0.02312919 0.07424717 -0.00274507
v 0.03966786 0.06764397 -0.00559001
v 0.02252087 0.07450688 -0.00401753
v 0.02252087 0.07428586 -0.00209849
v 0.07649832 0.02090213 -0.01132127
v 0.07479829 0.02531716 -0.01058158
v 0.07337525 0.02882045 -0.01030744
v 0.07794851 0.01808403 -0.00381063
v 0.07778557 0.01808403 -0.00561587
v 0.07736192 0.01808403 -0.01030744
v 0.07331550 0.02867678 -0.01121264
v 0.07183273 0.03204193 -0.01146610
v 0.07083878 0.03408644 -0.01187991
v 0.06703135 0.04122563 -0.01121264
v 0.06227886 0.04745861 -0.01111954
v 0.06710196 0.04131404 -0.01030744
v 0.06510863 0.04391112 -0.01030744
v 0.06378880 0.04581196 -0.00907118
v 0.06384854 0.04588932 -0.00802114
v 0.06033441 0.05012200 -0.01030744
v 0.05954686 0.05114425 -0.01030744
v 0.06544538 0.04435318 -0.00401753
v 0.06082867 0.04919368 -0.01142472
v 0.05795002 0.05269145 -0.01187991
v 0.05652699 0.05421101 -0.01187991
v 0.05557105 0.05500119 -0.01187991
v 0.05584263 0.05520564 -0.01030744
v 0.05338220 0.05731645 -0.00873496
v 0.04810285 0.06158781 -0.00782458
v 0.04468649 0.06452196 -0.00559001
v 0.04903163 0.06107392 -0.00559001
v 0.04389893 0.06513531 -0.00559001
v 0.04569131 0.06371520 -0.00401753
v 0.04287783 0.06591996 -0.00559001
v 0.04280722 0.06588128 -0.00401753
v 0.04808656 0.06157676 -0.00176744
v 0.04151454 0.06293608 -0.01697494
v 0.04201966 0.06488665 -0.01290926
v 0.04534913 0.06030585 -0.01659734
v 0.04654404 0.06159887 -0.01266615
v 0.05451736 0.05539351 -0.01283167
v 0.05916122 0.05064141 -0.01274374
v 0.06246353 0.04613797 -0.01304892
v 0.06364758 0.04405479 -0.01386103
v 0.02252087 0.07232423 -0.01536626
v 0.02252087 0.07282707 -0.01461105
v 0.02252087 0.07309783 -0.01377309
v 0.02377553 0.07282155 -0.01333859
v 0.02431867 0.07251211 -0.01379378
v 0.03244407 0.06948403 -0.01271270
v 0.02760467 0.07100359 -0.01413517
v 0.03577353 0.06799209 -0.01287305
v 0.03903781 0.06647805 -0.01298168
v 0.04104201 0.06595311 -0.01192129
v 0.04106373 0.06520714 -0.01344204
v 0.04051516 0.06643937 -0.01142989
v 0.07607467 0.02146023 -0.01185922
v 0.06742242 0.04040231 -0.01179198
v 0.06061142 0.04891187 -0.01247476
v 0.06620035 0.04194950 -0.01188508
v 0.07703060 0.01808403 -0.01187991
v 0.04209027 0.06649463 -0.00559001
v 0.04195449 0.06640622 -0.00716248
v 0.04104201 0.06686485 -0.00716248
v 0.02772960 0.07262815 -0.00508309
v 0.02417745 0.07403720 -0.00559001
v 0.02335730 0.07433006 -0.00401753
v 0.03876624 0.06792026 -0.00661936
v 0.03789722 0.06837889 -0.00559001
v 0.02252087 0.07452899 -0.00559001
v 0.06558116 0.04295518 -0.01151266
v 0.05278474 0.05684677 -0.01258339
v 0.05133998 0.05851553 -0.01124885
v 0.05405026 0.05660364 -0.01030744
v 0.05326271 0.05721699 -0.01030744
v 0.05224703 0.05800716 -0.01030744
v 0.04972142 0.06005167 -0.00967120
v 0.04801052 0.06151598 -0.00873496
v 0.04455614 0.06442249 -0.00716248
v 0.04376858 0.06502479 -0.00716248
v 0.04274204 0.06580944 -0.00716248
v 0.04234012 0.06513531 -0.01187991
v 0.04481141 0.06304660 -0.01238166
v 0.04424655 0.06369863 -0.01186439
v 0.04754885 0.06116233 -0.01187991
v 0.02252087 0.07316966 -0.01342652
v 0.02287934 0.07416982 -0.00788665
v 0.02374294 0.07310889 -0.01187991
v 0.02456851 0.07262262 -0.01274374
v 0.03265047 0.06956691 -0.01187991
v 0.03714768 0.06790368 -0.01115575
v 0.04154713 0.06616308 -0.01030744
v 0.03946690 0.06711350 -0.01030744
v 0.04075958 0.06655541 -0.01030744
v 0.04185672 0.06633991 -0.00809356
v 0.03946690 0.06734006 -0.00873496
v 0.03935827 0.06759977 -0.00715214
v 0.02762640 0.07258947 -0.00613313
v 0.02701808 0.07288233 -0.00560035
v 0.02531805 0.07357857 -0.00559001
v 0.02531805 0.07336306 -0.00716248
v 0.02317807 0.07425822 -0.00684178
v 0.02338989 0.07434111 -0.00559001
v 0.03800041 0.06816891 -0.00715214
v 0.03317731 0.07016369 -0.00716248
v 0.03099388 0.07110306 -0.00687799
v 0.02252087 0.07448478 -0.00602451
v 0.04509928 0.06326762 -0.01133679
v 0.04337209 0.06472088 -0.01094367
v 0.04961279 0.05996878 -0.01072125
v 0.04901533 0.06050478 -0.01024019
v 0.04247590 0.06577629 -0.00866254
v 0.04541430 0.06351076 -0.00873496
v 0.02252087 0.07412008 -0.00842460
v 0.02252087 0.07419192 -0.00803148
v 0.02252087 0.07428033 -0.00752457
v 0.02252087 0.07433006 -0.00716248
v 0.02374294 0.07340174 -0.01030744
v 0.02555703 0.07239054 -0.01187991
v 0.02849000 0.07124672 -0.01175577
v 0.03460578 0.06910828 -0.01016778
v 0.03733235 0.06798104 -0.01030744
v 0.03632210 0.06838994 -0.01030744
v 0.04171551 0.06625702 -0.00914360
v 0.04275290 0.06528450 -0.01037468
v 0.03081464 0.07103122 -0.00792803
v 0.03762564 0.06810261 -0.00873496
v 0.03841320 0.06777659 -0.00873496
v 0.03155332 0.07081572 -0.00730732
v 0.02743630 0.07251211 -0.00716248
v 0.02372121 0.07397089 -0.00728145
v 0.02947308 0.07112516 -0.01030744
v 0.02586119 0.07251211 -0.01057641
f 1 2 6
f 1 6 12
f 1 12 17
f 1 17 26
f 1 26 24
f 1 24 29
f 1 29 37
f 1 37 36
f 1 36 43
f 1 43 42
f 1 42 47
f 1 47 57
f 1 57 56
f 1 56 55
f 1 55 54
f 1 54 53
f 1 53 52
f 1 52 51
f 1 51 61
f 1 61 67
f 1 67 78
f 1 78 86
f 1 86 85
f 1 85 84
f 1 84 99
f 1 99 121
f 1 121 152
f 1 152 190
f 1 190 230
f 1 230 285
f 1 285 339
f 1 339 338
f 1 338 414
f 1 414 489
f 1 489 491
f 1 491 597
f 1 597 596
f 1 596 728
f 1 728 727
f 1 727 731
f 1 731 730
f 1 730 848
f 1 848 958
f 1 958 957
f 1 957 956
f 1 956 955
f 1 955 954
f 1 954 1041
f 1 1041 1147
f 1 1147 1280
f 1 1280 1279
f 1 1279 1346
f 1 1346 1383
f 1 1383 1393
f 1 1393 1392
f 1 1392 1391
f 1 1391 1390
f 1 1390 1362
f 1 1362 1323
f 1 1323 1322
f 1 1322 1321
f 1 1321 1225
f 1 1225 1224
f 1 1224 1228
f 1 1228 1227
f 1 1227 1222
f 1 1222 1201
f 1 1201 1200
f 1 1200 1075
f 1 1075 985
f 1 985 984
f 1 984 886
f 1 886 779
f 1 779 778
f 1 778 656
f 1 656 655
f 1 655 654
f 1 654 653
f 1 653 524
f 1 524 437
f 1 437 368
f 1 368 367
f 1 367 363
f 1 363 299
f 1 299 239
f 1 239 200
f 1 200 171
f 1 171 136
f 1 136 110
f 1 110 89
f 1 89 81
f 1 81 76
f 1 76 65
f 1 65 64
f 1 64 62
f 1 62 58
f 1 58 48
f 1 48 44
f 1 44 38
f 1 38 30
f 1 30 21
f 1 21 14
f 1 14 7
f 1 7 3
f 1 3 4
f 1 4 8
f 1 8 13
f 1 13 20
f 1 20 22
f 1 22 31
f 1 31 39
f 1 39 45
f 1 45 49
f 1 49 59
f 1 59 63
f 1 63 75
f 1 75 80
f 1 80 82
f 1 82 96
f 1 96 95
f 1 95 94
f 1 94 93
f 1 93 92
f 1 92 91
f 1 91 90
f 1 90 113
f 1 113 147
f 1 147 179
f 1 179 211
f 1 211 256
f 1 256 321
f 1 321 395
f 1 395 466
f 1 466 392
f 1 392 465
f 1 465 464
f 1 464 463
f 1 463 563
f 1 563 559
f 1 559 557
f 1 557 699
f 1 699 828
f 1 828 941
f 1 941 940
f 1 940 1025
f 1 1025 1127
f 1 1127 1126
f 1 1126 1125
f 1 1125 1124
f 1 1124 1122
f 1 1122 1121
f 1 1121 1120
f 1 1120 1260
f 1 1260 1259
f 1 1259 1258
f 1 1258 1337
f 1 1337 1286
f 1 1286 1285
f 1 1285 1284
f 1 1284 1159
f 1 1159 1158
f 1 1158 1050
f 1 1050 1149
f 1 1149 1148
f 1 1148 1046
f 1 1046 962
f 1 962 853
f 1 853 850
f 1 850 849
f 1 849 737
f 1 737 736
f 1 736 735
f 1 735 732
f 1 732 598
f 1 598 492
f 1 492 418
f 1 418 417
f 1 417 416
f 1 416 415
f 1 415 341
f 1 341 286
f 1 286 231
f 1 231 191
f 1 191 154
f 1 154 153
f 1 153 122
f 1 122 100
f 1 100 87
f 1 87 79
f 1 79 74
f 1 74 72
f 1 72 71
f 1 71 70
f 1 70 69
f 1 69 68
f 1 68 66
f 1 66 60
f 1 60 50
f 1 50 46
f 1 46 40
f 1 40 32
f 1 32 27
f 1 27 19
f 1 19 18
f 1 18 15
f 1 15 9
f 1 9 5
f 1 5 2
f 2 5 6
f 3 7 8
f 3 8 4
f 5 9 10
f 5 10 6
f 6 10 11
f 6 11 12
f 7 13 8
f 7 14 13
f 9 15 10
f 10 15 11
f 11 16 17
f 11 17 12
f 11 15 18
f 11 18 19
f 11 19 16
f 13 14 20
f 14 21 22
f 14 22 20
f 16 23 24
f 16 24 25
f 16 25 17
f 16 19 23
f 17 25 26
f 19 27 28
f 19 28 29
f 19 29 23
f 21 30 31
f 21 31 22
f 23 29 24
f 24 26 25
f 27 32 33
f 27 33 34
f 27 34 28
f 28 34 35
f 28 35 36
f 28 36 37
f 28 37 29
f 30 38 39
f 30 39 31
f 32 40 34
f 32 34 33
f 34 40 41
f 34 41 42
f 34 42 43
f 34 43 35
f 35 43 36
f 38 44 39
f 39 44 45
f 40 46 47
f 40 47 41
f 41 47 42
f 44 48 49
f 44 49 45
f 46 50 51
f 46 51 52
f 46 52 53
f 46 53 54
f 46 54 55
f 46 55 56
f 46 56 57
f 46 57 47
f 48 58 49
f 49 58 59
f 50 60 61
f 50 61 51
f 58 62 59
f 59 62 64
f 59 64 65
f 59 65 63
f 60 66 61
f 61 66 68
f 61 68 69
f 61 69 70
f 61 70 71
f 61 71 72
f 61 72 73
f 61 73 74
f 61 74 67
f 63 65 75
f 65 76 75
f 67 74 77
f 67 77 78
f 72 74 73
f 74 79 77
f 75 76 80
f 76 81 82
f 76 82 80
f 77 79 83
f 77 83 84
f 77 84 85
f 77 85 86
f 77 86 78
f 79 87 88
f 79 88 84
f 79 84 83
f 81 89 90
f 81 90 91
f 81 91 92
f 81 92 93
f 81 93 94
f 81 94 95
f 81 95 96
f 81 96 82
f 84 97 98
f 84 98 99
f 84 88 97
f 87 100 101
f 87 101 102
f 87 102 103
f 87 103 104
f 87 104 88
f 88 104 105
f 88 105 106
f 88 106 107
f 88 107 108
f 88 108 109
f 88 109 97
f 89 110 111
f 89 111 112
f 89 112 113
f 89 113 90
f 97 109 114
f 97 114 115
f 97 115 116
f 97 116 98
f 98 117 99
f 98 116 117
f 99 117 118
f 99 118 119
f 99 119 120
f 99 120 121
f 100 122 123
f 100 123 124
f 100 124 125
f 100 125 101
f 101 126 102
f 101 125 126
f 102 126 127
f 102 127 103
f 103 127 128
f 103 128 163
f 103 163 129
f 103 129 130
f 103 130 131
f 103 131 132
f 103 132 104
f 104 132 133
f 104 133 105
f 105 133 106
f 106 134 135
f 106 135 109
f 106 109 107
f 106 133 132
f 106 132 131
f 106 131 134
f 107 109 108
f 109 135 115
f 109 115 114
f 110 136 137
f 110 137 138
f 110 138 139
f 110 139 140
f 110 140 141
f 110 141 142
f 110 142 143
f 110 143 111
f 111 143 112
f 112 143 144
f 112 144 145
f 112 145 146
f 112 146 147
f 112 147 113
f 115 148 149
f 115 149 118
f 115 118 116
f 115 135 148
f 116 118 117
f 118 149 150
f 118 150 119
f 119 150 120
f 120 150 151
f 120 151 121
f 121 151 152
f 122 153 123
f 123 153 154
f 123 154 155
f 123 155 156
f 123 156 157
f 123 157 124
f 124 157 158
f 124 158 159
f 124 159 125
f 125 159 160
f 125 160 161
f 125 161 162
f 125 162 126
f 126 128 127
f 126 162 128
f 128 162 163
f 129 163 164
f 129 164 165
f 129 165 130
f 130 165 131
f 131 165 166
f 131 166 134
f 134 167 168
f 134 168 135
f 134 166 169
f 134 169 170
f 134 170 167
f 135 168 148
f 136 171 137
f 137 172 138
f 137 171 172
f 138 172 173
f 138 173 140
f 138 140 139
f 140 173 141
f 141 173 174
f 141 174 175
f 141 175 144
f 141 144 142
f 142 144 143
f 144 175 176
f 144 176 145
f 145 176 175
f 145 175 177
f 145 177 146
f 146 178 147
f 146 177 208
f 146 208 178
f 147 178 179
f 148 180 181
f 148 181 182
f 148 182 149
f 148 168 183
f 148 183 180
f 149 182 184
f 149 184 185
f 149 185 186
f 149 186 187
f 149 187 150
f 150 187 188
f 150 188 151
f 151 188 189
f 151 189 152
f 152 189 190
f 154 191 192
f 154 192 155
f 155 192 156
f 156 192 157
f 157 192 193
f 157 193 158
f 158 193 194
f 158 194 159
f 159 194 160
f 160 195 161
f 160 194 196
f 160 196 197
f 160 197 170
f 160 170 169
f 160 169 195
f 161 195 162
f 162 195 164
f 162 164 163
f 164 169 166
f 164 166 165
f 164 195 198
f 164 198 169
f 167 170 168
f 168 170 183
f 169 198 195
f 170 197 183
f 171 199 172
f 171 200 199
f 172 199 201
f 172 201 173
f 173 201 202
f 173 202 174
f 174 202 201
f 174 201 203
f 174 203 204
f 174 204 205
f 174 205 206
f 174 206 207
f 174 207 175
f 175 207 177
f 177 207 208
f 178 208 209
f 178 209 179
f 179 209 210
f 179 210 211
f 180 183 181
f 181 212 213
f 181 213 214
f 181 214 215
f 181 215 182
f 181 183 212
f 182 215 216
f 182 216 184
f 183 197 217
f 183 217 218
f 183 218 219
f 183 219 220
f 183 220 212
f 184 221 185
f 184 216 222
f 184 222 223
f 184 223 221
f 185 221 224
f 185 224 186
f 186 224 225
f 186 225 226
f 186 226 227
f 186 227 187
f 187 227 228
f 187 228 188
f 188 228 189
f 189 228 190
f 190 229 230
f 190 228 229
f 191 231 192
f 192 231 232
f 192 232 193
f 193 232 233
f 193 233 194
f 194 233 234
f 194 234 196
f 196 234 235
f 196 235 236
f 196 236 237
f 196 237 238
f 196 238 217
f 196 217 197
f 199 200 239
f 199 239 240
f 199 240 241
f 199 241 201
f 201 242 243
f 201 243 204
f 201 204 203
f 201 241 244
f 201 244 245
f 201 245 246
f 201 246 247
f 201 247 242
f 204 248 249
f 204 249 250
f 204 250 251
f 204 251 206
f 204 206 205
f 204 243 248
f 206 251 252
f 206 252 207
f 207 252 253
f 207 253 254
f 207 254 210
f 207 210 209
f 207 209 208
f 210 254 211
f 211 253 255
f 211 255 256
f 211 254 253
f 212 257 258
f 212 258 259
f 212 259 213
f 212 220 219
f 212 219 257
f 213 259 258
f 213 258 260
f 213 260 214
f 214 261 215
f 214 260 261
f 215 262 216
f 215 261 263
f 215 263 264
f 215 264 262
f 216 264 265
f 216 265 266
f 216 266 222
f 216 262 264
f 217 267 268
f 217 268 218
f 217 238 269
f 217 269 270
f 217 270 267
f 218 268 271
f 218 271 272
f 218 272 257
f 218 257 219
f 221 223 273
f 221 273 225
f 221 225 224
f 222 266 223
f 223 274 275
f 223 275 273
f 223 266 264
f 223 264 276
f 223 276 274
f 225 273 275
f 225 275 277
f 225 277 278
f 225 278 279
f 225 279 280
f 225 280 281
f 225 281 226
f 226 281 282
f 226 282 227
f 227 282 283
f 227 283 228
f 228 283 229
f 229 283 230
f 230 283 284
f 230 284 285
f 231 286 232
f 232 286 287
f 232 287 233
f 233 287 234
f 234 287 288
f 234 288 290
f 234 290 235
f 235 289 236
f 235 290 291
f 235 291 289
f 236 292 237
f 236 289 293
f 236 293 294
f 236 294 292
f 237 292 295
f 237 295 296
f 237 296 297
f 237 297 298
f 237 298 269
f 237 269 238
f 239 241 240
f 239 299 300
f 239 300 301
f 239 301 241
f 241 301 244
f 242 247 302
f 242 302 243
f 243 303 304
f 243 304 305
f 243 305 248
f 243 302 303
f 244 301 306
f 244 306 307
f 244 307 245
f 245 307 308
f 245 308 246
f 246 308 307
f 246 307 309
f 246 309 247
f 247 309 302
f 248 310 249
f 248 305 311
f 248 311 312
f 248 312 313
f 248 313 314
f 248 314 315
f 248 315 310
f 249 310 316
f 249 316 317
f 249 317 250
f 250 317 318
f 250 318 251
f 251 318 252
f 252 318 319
f 252 319 255
f 252 255 253
f 255 319 320
f 255 320 256
f 256 320 318
f 256 318 321
f 257 272 258
f 258 271 260
f 258 272 271
f 260 271 268
f 260 268 270
f 260 270 261
f 261 270 322
f 261 322 323
f 261 323 264
f 261 264 263
f 264 324 325
f 264 325 276
f 264 266 265
f 264 323 324
f 267 270 268
f 269 298 326
f 269 326 270
f 270 326 327
f 270 327 328
f 270 328 329
f 270 329 330
f 270 330 322
f 274 331 275
f 274 276 325
f 274 325 332
f 274 332 333
f 274 333 334
f 274 334 331
f 275 331 335
f 275 335 277
f 277 335 336
f 277 336 337
f 277 337 278
f 278 337 338
f 278 338 279
f 279 338 280
f 280 338 339
f 280 339 340
f 280 340 282
f 280 282 281
f 282 340 284
f 282 284 283
f 284 340 285
f 285 340 339
f 286 341 342
f 286 342 287
f 287 342 343
f 287 343 288
f 288 343 344
f 288 344 345
f 288 345 346
f 288 346 290
f 289 347 293
f 289 291 347
f 290 346 291
f 291 346 348
f 291 348 349
f 291 349 347
f 292 350 295
f 292 294 351
f 292 351 350
f 293 347 349
f 293 349 352
f 293 352 294
f 294 352 353
f 294 353 351
f 295 354 355
f 295 355 356
f 295 356 357
f 295 357 358
f 295 358 296
f 295 350 354
f 296 359 297
f 296 358 360
f 296 360 359
f 297 359 298
f 298 359 360
f 298 360 361
f 298 361 362
f 298 362 326
f 299 363 300
f 300 363 301
f 301 364 365
f 301 365 366
f 301 366 307
f 301 307 306
f 301 363 367
f 301 367 368
f 301 368 364
f 302 309 369
f 302 369 370
f 302 370 303
f 303 371 304
f 303 370 372
f 303 372 373
f 303 373 371
f 304 374 375
f 304 375 376
f 304 376 377
f 304 377 311
f 304 311 305
f 304 371 378
f 304 378 379
f 304 379 380
f 304 380 374
f 307 366 365
f 307 365 309
f 309 365 381
f 309 381 382
f 309 382 369
f 310 315 316
f 311 383 312
f 311 377 376
f 311 376 384
f 311 384 385
f 311 385 386
f 311 386 383
f 312 383 387
f 312 387 388
f 312 388 389
f 312 389 313
f 313 389 390
f 313 390 314
f 314 390 315
f 315 390 391
f 315 391 392
f 315 392 393
f 315 393 316
f 316 393 394
f 316 394 318
f 316 318 317
f 318 394 395
f 318 395 321
f 318 320 319
f 322 330 323
f 323 330 396
f 323 396 324
f 324 396 397
f 324 397 334
f 324 334 332
f 324 332 325
f 326 398 399
f 326 399 400
f 326 400 327
f 326 362 361
f 326 361 398
f 327 400 328
f 328 400 401
f 328 401 329
f 329 401 402
f 329 402 403
f 329 403 330
f 330 403 404
f 330 404 396
f 331 405 406
f 331 406 335
f 331 334 397
f 331 397 407
f 331 407 408
f 331 408 405
f 332 334 333
f 335 406 409
f 335 409 410
f 335 410 336
f 336 410 411
f 336 411 412
f 336 412 337
f 337 412 413
f 337 413 338
f 338 413 412
f 338 412 414
f 341 415 342
f 342 415 343
f 343 415 416
f 343 416 417
f 343 417 344
f 344 417 418
f 344 418 419
f 344 419 420
f 344 420 348
f 344 348 345
f 345 348 346
f 348 421 349
f 348 420 419
f 348 419 422
f 348 422 421
f 349 421 423
f 349 423 424
f 349 424 352
f 350 351 425
f 350 425 354
f 351 353 423
f 351 423 426
f 351 426 427
f 351 427 428
f 351 428 425
f 352 424 423
f 352 423 353
f 354 425 429
f 354 429 355
f 355 429 356
f 356 361 358
f 356 358 357
f 356 429 430
f 356 430 431
f 356 431 432
f 356 432 433
f 356 433 434
f 356 434 435
f 356 435 361
f 358 361 360
f 361 435 398
f 364 436 365
f 364 368 437
f 364 437 436
f 365 436 381
f 369 382 438
f 369 438 439
f 369 439 440
f 369 440 441
f 369 441 370
f 370 441 372
f 371 442 378
f 371 373 442
f 372 441 440
f 372 440 443
f 372 443 444
f 372 444 442
f 372 442 373
f 374 445 446
f 374 446 375
f 374 380 447
f 374 447 445
f 375 445 384
f 375 384 376
f 375 446 445
f 378 442 448
f 378 448 379
f 379 448 449
f 379 449 450
f 379 450 451
f 379 451 447
f 379 447 380
f 381 436 452
f 381 452 453
f 381 453 454
f 381 454 382
f 382 454 455
f 382 455 438
f 383 386 387
f 384 445 385
f 385 456 457
f 385 457 386
f 385 445 458
f 385 458 456
f 386 457 459
f 386 459 460
f 386 460 461
f 386 461 387
f 387 461 462
f 387 462 388
f 388 462 389
f 389 462 390
f 390 462 463
f 390 463 464
f 390 464 465
f 390 465 391
f 391 465 392
f 392 466 393
f 393 466 394
f 394 466 395
f 396 404 467
f 396 467 408
f 396 408 407
f 396 407 397
f 398 435 468
f 398 468 400
f 398 400 399
f 400 468 401
f 401 468 435
f 401 435 469
f 401 469 402
f 402 470 471
f 402 471 403
f 402 469 472
f 402 472 470
f 403 473 474
f 403 474 475
f 403 475 476
f 403 476 404
f 403 471 473
f 404 476 477
f 404 477 478
f 404 478 479
f 404 479 405
f 404 405 408
f 404 408 467
f 405 478 480
f 405 480 406
f 405 479 478
f 406 480 409
f 409 481 482
f 409 482 483
f 409 483 410
f 409 480 484
f 409 484 485
f 409 485 486
f 409 486 481
f 410 483 487
f 410 487 488
f 410 488 411
f 411 488 412
f 412 489 414
f 412 488 490
f 412 490 491
f 412 491 489
f 418 492 419
f 419 493 422
f 419 492 493
f 421 422 423
f 422 493 494
f 422 494 495
f 422 495 423
f 423 495 496
f 423 496 497
f 423 497 498
f 423 498 427
f 423 427 426
f 425 428 429
f 427 498 428
f 428 499 429
f 428 498 500
f 428 500 499
f 429 499 430
f 430 499 501
f 430 501 502
f 430 502 503
f 430 503 504
f 430 504 505
f 430 505 431
f 431 505 506
f 431 506 507
f 431 507 432
f 432 507 508
f 432 508 509
f 432 509 510
f 432 510 511
f 432 511 512
f 432 512 513
f 432 513 514
f 432 514 515
f 432 515 433
f 433 515 434
f 434 515 435
f 435 515 469
f 436 437 516
f 436 516 517
f 436 517 518
f 436 518 519
f 436 519 520
f 436 520 521
f 436 521 522
f 436 522 523
f 436 523 452
f 437 524 516
f 438 525 439
f 438 455 526
f 438 526 525
f 439 525 527
f 439 527 528
f 439 528 529
f 439 529 443
f 439 443 440
f 442 444 530
f 442 530 448
f 443 529 444
f 444 529 530
f 445 531 458
f 445 447 451
f 445 451 542
f 445 542 531
f 448 530 532
f 448 532 527
f 448 527 525
f 448 525 533
f 448 533 534
f 448 534 535
f 448 535 449
f 449 536 537
f 449 537 450
f 449 535 538
f 449 538 539
f 449 539 536
f 450 537 540
f 450 540 541
f 450 541 542
f 450 542 451
f 452 523 522
f 452 522 543
f 452 543 453
f 453 544 454
f 453 543 545
f 453 545 544
f 454 544 455
f 455 544 546
f 455 546 526
f 456 458 547
f 456 547 548
f 456 548 549
f 456 549 550
f 456 550 457
f 457 550 551
f 457 551 552
f 457 552 459
f 458 531 540
f 458 540 553
f 458 553 554
f 458 554 547
f 459 552 555
f 459 555 556
f 459 556 557
f 459 557 558
f 459 558 559
f 459 559 560
f 459 560 561
f 459 561 562
f 459 562 563
f 459 563 460
f 460 563 461
f 461 563 564
f 461 564 462
f 462 564 463
f 463 564 563
f 469 515 472
f 470 472 565
f 470 565 566
f 470 566 471
f 471 566 473
f 472 515 567
f 472 567 565
f 473 568 569
f 473 569 474
f 473 566 570
f 473 570 568
f 474 569 571
f 474 571 572
f 474 572 573
f 474 573 574
f 474 574 575
f 474 575 475
f 475 575 576
f 475 576 577
f 475 577 476
f 476 577 477
f 477 577 478
f 478 577 578
f 478 578 480
f 480 579 580
f 480 580 581
f 480 581 484
f 480 578 582
f 480 582 583
f 480 583 584
f 480 584 573
f 480 573 585
f 480 585 579
f 481 586 587
f 481 587 482
f 481 486 588
f 481 588 586
f 482 587 586
f 482 586 483
f 483 586 588
f 483 588 589
f 483 589 490
f 483 490 487
f 484 590 591
f 484 591 592
f 484 592 485
f 484 581 590
f 485 592 591
f 485 591 593
f 485 593 486
f 486 593 594
f 486 594 588
f 487 490 488
f 490 589 715
f 490 715 595
f 490 595 596
f 490 596 597
f 490 597 491
f 492 598 599
f 492 599 493
f 493 599 600
f 493 600 601
f 493 601 602
f 493 602 494
f 494 603 495
f 494 602 604
f 494 604 605
f 494 605 606
f 494 606 607
f 494 607 608
f 494 608 609
f 494 609 603
f 495 610 496
f 495 603 610
f 496 610 611
f 496 611 500
f 496 500 497
f 497 500 498
f 499 500 609
f 499 609 501
f 500 611 610
f 500 610 609
f 501 609 612
f 501 612 502
f 502 612 613
f 502 613 607
f 502 607 614
f 502 614 615
f 502 615 616
f 502 616 503
f 503 617 504
f 503 616 618
f 503 618 619
f 503 619 617
f 504 617 619
f 504 619 620
f 504 620 621
f 504 621 506
f 504 506 505
f 506 622 507
f 506 621 623
f 506 623 624
f 506 624 622
f 507 625 626
f 507 626 627
f 507 627 509
f 507 509 508
f 507 622 628
f 507 628 629
f 507 629 630
f 507 630 631
f 507 631 632
f 507 632 625
f 509 627 633
f 509 633 634
f 509 634 635
f 509 635 636
f 509 636 510
f 510 636 637
f 510 637 638
f 510 638 639
f 510 639 640
f 510 640 511
f 511 640 641
f 511 641 512
f 512 642 643
f 512 643 644
f 512 644 571
f 512 571 645
f 512 645 646
f 512 646 647
f 512 647 513
f 512 641 648
f 512 648 642
f 513 647 514
f 514 647 646
f 514 646 515
f 515 646 649
f 515 649 650
f 515 650 565
f 515 565 651
f 515 651 567
f 516 524 652
f 516 652 517
f 517 652 518
f 518 652 519
f 519 521 520
f 519 652 524
f 519 524 653
f 519 653 654
f 519 654 521
f 521 654 655
f 521 655 656
f 521 656 522
f 522 657 543
f 522 656 658
f 522 658 657
f 525 526 659
f 525 659 660
f 525 660 661
f 525 661 533
f 526 546 662
f 526 662 663
f 526 663 659
f 527 532 530
f 527 530 528
f 528 530 529
f 531 541 540
f 531 542 541
f 533 661 664
f 533 664 534
f 534 664 665
f 534 665 535
f 535 665 538
f 536 539 666
f 536 666 554
f 536 554 537
f 537 554 553
f 537 553 540
f 538 665 667
f 538 667 668
f 538 668 669
f 538 669 670
f 538 670 671
f 538 671 672
f 538 672 673
f 538 673 674
f 538 674 675
f 538 675 539
f 539 675 666
f 543 657 545
f 544 545 676
f 544 676 677
f 544 677 678
f 544 678 679
f 544 679 680
f 544 680 546
f 545 657 681
f 545 681 682
f 545 682 683
f 545 683 684
f 545 684 676
f 546 680 685
f 546 685 662
f 547 554 686
f 547 686 687
f 547 687 548
f 548 688 689
f 548 689 549
f 548 687 690
f 548 690 691
f 548 691 688
f 549 689 692
f 549 692 693
f 549 693 694
f 549 694 550
f 550 694 826
f 550 826 695
f 550 695 696
f 550 696 551
f 551 696 697
f 551 697 552
f 552 697 698
f 552 698 699
f 552 699 555
f 554 666 686
f 555 699 557
f 555 557 556
f 557 559 558
f 559 563 560
f 560 563 561
f 561 563 562
f 565 567 651
f 565 650 700
f 565 700 566
f 566 700 570
f 568 571 569
f 568 570 700
f 568 700 571
f 571 700 645
f 571 644 701
f 571 701 573
f 571 573 572
f 573 702 703
f 573 703 704
f 573 704 705
f 573 705 585
f 573 584 574
f 573 701 706
f 573 706 702
f 574 584 575
f 575 584 707
f 575 707 576
f 576 707 577
f 577 707 708
f 577 708 578
f 578 708 582
f 579 585 705
f 579 705 709
f 579 709 580
f 580 709 581
f 581 709 590
f 582 708 583
f 583 708 584
f 584 708 707
f 588 594 710
f 588 710 711
f 588 711 712
f 588 712 713
f 588 713 589
f 589 713 712
f 589 712 714
f 589 714 715
f 590 716 717
f 590 717 591
f 590 709 716
f 591 718 719
f 591 719 593
f 591 717 720
f 591 720 704
f 591 704 721
f 591 721 718
f 593 719 594
f 594 719 722
f 594 722 723
f 594 723 724
f 594 724 725
f 594 725 726
f 594 726 710
f 595 727 728
f 595 728 596
f 595 715 729
f 595 729 730
f 595 730 731
f 595 731 727
f 598 732 599
f 599 733 734
f 599 734 616
f 599 616 600
f 599 732 735
f 599 735 736
f 599 736 737
f 599 737 733
f 600 616 615
f 600 615 601
f 601 615 738
f 601 738 602
f 602 738 605
f 602 605 604
f 603 609 610
f 605 738 606
f 606 738 607
f 607 738 614
f 607 613 612
f 607 612 608
f 608 612 609
f 614 738 615
f 616 734 618
f 618 734 620
f 618 620 619
f 620 734 733
f 620 733 739
f 620 739 623
f 620 623 740
f 620 740 621
f 621 740 623
f 622 741 628
f 622 624 742
f 622 742 741
f 623 742 624
f 623 739 743
f 623 743 742
f 625 632 744
f 625 744 626
f 626 745 746
f 626 746 747
f 626 747 748
f 626 748 627
f 626 744 749
f 626 749 750
f 626 750 745
f 627 748 747
f 627 747 633
f 628 741 751
f 628 751 752
f 628 752 753
f 628 753 754
f 628 754 629
f 629 754 630
f 630 754 631
f 631 749 632
f 631 754 755
f 631 755 756
f 631 756 749
f 632 749 744
f 633 747 757
f 633 757 634
f 634 757 758
f 634 758 635
f 635 758 746
f 635 746 759
f 635 759 760
f 635 760 761
f 635 761 762
f 635 762 763
f 635 763 637
f 635 637 636
f 637 763 638
f 638 763 764
f 638 764 765
f 638 765 639
f 639 765 640
f 640 765 766
f 640 766 767
f 640 767 768
f 640 768 648
f 640 648 641
f 642 769 643
f 642 648 768
f 642 768 767
f 642 767 769
f 643 706 701
f 643 701 770
f 643 770 644
f 643 769 771
f 643 771 772
f 643 772 773
f 643 773 774
f 643 774 775
f 643 775 776
f 643 776 777
f 643 777 702
f 643 702 706
f 644 770 701
f 645 700 646
f 646 700 649
f 649 700 650
f 656 778 658
f 657 658 681
f 658 778 779
f 658 779 681
f 659 663 780
f 659 780 781
f 659 781 660
f 660 781 661
f 661 781 782
f 661 782 783
f 661 783 664
f 662 685 784
f 662 784 785
f 662 785 786
f 662 786 663
f 663 786 785
f 663 785 780
f 664 783 665
f 665 783 787
f 665 787 788
f 665 788 789
f 665 789 668
f 665 668 667
f 666 675 790
f 666 790 686
f 668 789 791
f 668 791 792
f 668 792 793
f 668 793 669
f 669 794 670
f 669 793 792
f 669 792 794
f 670 794 792
f 670 792 795
f 670 795 796
f 670 796 671
f 671 796 797
f 671 797 672
f 672 798 673
f 672 797 799
f 672 799 800
f 672 800 798
f 673 798 674
f 674 798 801
f 674 801 790
f 674 790 675
f 676 684 677
f 677 684 802
f 677 802 678
f 678 802 679
f 679 803 680
f 679 802 804
f 679 804 803
f 680 803 805
f 680 805 685
f 681 779 806
f 681 806 807
f 681 807 808
f 681 808 682
f 682 809 683
f 682 808 809
f 683 809 810
f 683 810 802
f 683 802 684
f 685 805 811
f 685 811 784
f 686 790 687
f 687 790 801
f 687 801 690
f 688 691 689
f 689 691 812
f 689 812 813
f 689 813 692
f 690 814 815
f 690 815 691
f 690 801 798
f 690 798 814
f 691 815 800
f 691 800 816
f 691 816 812
f 692 817 693
f 692 813 818
f 692 818 819
f 692 819 820
f 692 820 821
f 692 821 822
f 692 822 823
f 692 823 817
f 693 817 824
f 693 824 825
f 693 825 694
f 694 825 826
f 695 826 827
f 695 827 828
f 695 828 697
f 695 697 696
f 697 828 698
f 698 828 699
f 702 777 829
f 702 829 830
f 702 830 831
f 702 831 832
f 702 832 703
f 703 832 704
f 704 832 833
f 704 833 721
f 704 720 705
f 705 720 716
f 705 716 709
f 710 726 834
f 710 834 711
f 711 834 715
f 711 715 712
f 712 715 714
f 715 834 835
f 715 835 836
f 715 836 730
f 715 730 729
f 716 720 837
f 716 837 717
f 717 837 720
f 718 833 838
f 718 838 722
f 718 722 719
f 718 721 833
f 722 839 840
f 722 840 723
f 722 838 839
f 723 840 841
f 723 841 842
f 723 842 843
f 723 843 844
f 723 844 724
f 724 844 725
f 725 844 845
f 725 845 846
f 725 846 726
f 726 835 834
f 726 846 847
f 726 847 835
f 730 836 847
f 730 847 848
f 733 737 849
f 733 849 850
f 733 850 739
f 739 850 743
f 741 742 751
f 742 743 752
f 742 752 751
f 743 851 852
f 743 852 752
f 743 850 853
f 743 853 851
f 745 750 854
f 745 854 746
f 746 855 759
f 746 758 747
f 746 854 856
f 746 856 857
f 746 857 855
f 747 758 757
f 749 756 750
f 750 756 858
f 750 858 859
f 750 859 854
f 752 852 860
f 752 860 753
f 753 860 861
f 753 861 862
f 753 862 754
f 754 862 861
f 754 861 755
f 755 861 863
f 755 863 864
f 755 864 858
f 755 858 756
f 759 855 865
f 759 865 760
f 760 865 866
f 760 866 867
f 760 867 868
f 760 868 869
f 760 869 870
f 760 870 761
f 761 870 871
f 761 871 764
f 761 764 762
f 762 764 763
f 764 871 872
f 764 872 873
f 764 873 765
f 765 873 874
f 765 874 875
f 765 875 767
f 765 767 766
f 767 875 769
f 769 875 874
f 769 874 876
f 769 876 771
f 771 876 877
f 771 877 869
f 771 869 772
f 772 869 878
f 772 878 773
f 773 775 774
f 773 878 775
f 775 878 776
f 776 879 880
f 776 880 881
f 776 881 882
f 776 882 777
f 776 878 868
f 776 868 879
f 777 882 881
f 777 881 883
f 777 883 884
f 777 884 885
f 777 885 829
f 779 807 806
f 779 886 887
f 779 887 888
f 779 888 807
f 780 785 781
f 781 785 889
f 781 889 782
f 782 889 890
f 782 890 891
f 782 891 892
f 782 892 783
f 783 893 787
f 783 892 891
f 783 891 894
f 783 894 893
f 784 811 895
f 784 895 896
f 784 896 785
f 785 896 889
f 787 893 788
f 788 897 789
f 788 893 898
f 788 898 899
f 788 899 900
f 788 900 897
f 789 897 901
f 789 901 902
f 789 902 903
f 789 903 904
f 789 904 905
f 789 905 791
f 791 905 906
f 791 906 792
f 792 907 908
f 792 908 795
f 792 906 909
f 792 909 910
f 792 910 796
f 792 796 907
f 795 908 796
f 796 911 912
f 796 912 913
f 796 913 797
f 796 908 907
f 796 910 914
f 796 914 911
f 797 913 799
f 798 800 915
f 798 915 814
f 799 913 800
f 800 913 816
f 800 815 915
f 802 810 916
f 802 916 917
f 802 917 804
f 803 804 805
f 804 891 918
f 804 918 811
f 804 811 805
f 804 917 919
f 804 919 920
f 804 920 891
f 807 921 916
f 807 916 922
f 807 922 923
f 807 923 808
f 807 888 921
f 808 923 810
f 808 810 809
f 810 923 922
f 810 922 916
f 811 918 895
f 812 816 924
f 812 924 925
f 812 925 926
f 812 926 813
f 813 926 927
f 813 927 818
f 814 915 815
f 816 913 928
f 816 928 924
f 817 823 824
f 818 927 819
f 819 927 926
f 819 926 929
f 819 929 930
f 819 930 820
f 820 930 931
f 820 931 932
f 820 932 821
f 821 932 933
f 821 933 934
f 821 934 935
f 821 935 822
f 822 935 823
f 823 935 936
f 823 936 937
f 823 937 938
f 823 938 824
f 824 938 939
f 824 939 827
f 824 827 825
f 825 827 826
f 827 939 940
f 827 940 941
f 827 941 828
f 829 942 943
f 829 943 944
f 829 944 831
f 829 831 830
f 829 885 884
f 829 884 942
f 831 944 832
f 832 944 945
f 832 945 946
f 832 946 833
f 833 946 838
f 835 847 836
f 838 946 947
f 838 947 948
f 838 948 839
f 839 841 840
f 839 948 949
f 839 949 841
f 841 949 950
f 841 950 951
f 841 951 952
f 841 952 953
f 841 953 842
f 842 953 954
f 842 954 843
f 843 954 955
f 843 955 845
f 843 845 844
f 845 847 846
f 845 955 847
f 847 955 956
f 847 956 957
f 847 957 958
f 847 958 848
f 851 860 852
f 851 853 959
f 851 959 960
f 851 960 961
f 851 961 861
f 851 861 860
f 853 962 963
f 853 963 959
f 854 859 858
f 854 858 964
f 854 964 856
f 855 857 865
f 856 965 865
f 856 865 857
f 856 964 864
f 856 864 966
f 856 966 967
f 856 967 965
f 858 864 964
f 861 961 960
f 861 960 968
f 861 968 863
f 863 968 864
f 864 968 969
f 864 969 966
f 865 965 970
f 865 970 971
f 865 971 866
f 866 971 972
f 866 972 867
f 867 972 973
f 867 973 974
f 867 974 868
f 868 975 879
f 868 878 976
f 868 976 977
f 868 977 869
f 868 974 975
f 869 977 878
f 869 877 870
f 870 877 876
f 870 876 978
f 870 978 871
f 871 978 873
f 871 873 872
f 873 978 874
f 874 978 876
f 878 977 976
f 879 975 979
f 879 979 880
f 880 979 980
f 880 980 981
f 880 981 881
f 881 981 883
f 883 981 982
f 883 982 983
f 883 983 943
f 883 943 942
f 883 942 884
f 886 984 887
f 887 984 888
f 888 984 985
f 888 985 986
f 888 986 919
f 888 919 921
f 889 896 987
f 889 987 890
f 890 987 988
f 890 988 891
f 891 988 918
f 891 920 989
f 891 989 990
f 891 990 991
f 891 991 992
f 891 992 993
f 891 993 994
f 891 994 995
f 891 995 894
f 893 894 898
f 894 995 898
f 895 918 896
f 896 988 987
f 896 918 988
f 897 900 901
f 898 995 899
f 899 995 994
f 899 994 900
f 900 994 901
f 901 994 902
f 902 994 993
f 902 993 903
f 903 993 904
f 904 996 997
f 904 997 998
f 904 998 905
f 904 993 996
f 905 998 906
f 906 998 909
f 909 914 910
f 909 998 999
f 909 999 1000
f 909 1000 1001
f 909 1001 914
f 911 914 912
f 912 928 913
f 912 914 1001
f 912 1001 924
f 912 924 928
f 916 921 919
f 916 919 917
f 919 986 1002
f 919 1002 1003
f 919 1003 1004
f 919 1004 1005
f 919 1005 920
f 920 1005 1006
f 920 1006 1007
f 920 1007 989
f 924 1008 1009
f 924 1009 1010
f 924 1010 1011
f 924 1011 1012
f 924 1012 925
f 924 1001 1013
f 924 1013 1014
f 924 1014 1008
f 925 1012 926
f 926 1012 1011
f 926 1011 1015
f 926 1015 930
f 926 930 929
f 930 1016 931
f 930 1015 1016
f 931 1016 1017
f 931 1017 932
f 932 1017 933
f 933 1018 1019
f 933 1019 1020
f 933 1020 1021
f 933 1021 1022
f 933 1022 1023
f 933 1023 1024
f 933 1024 939
f 933 939 934
f 933 1017 1018
f 934 939 936
f 934 936 935
f 936 939 937
f 937 939 938
f 939 1024 1025
f 939 1025 940
f 943 983 944
f 944 1026 945
f 944 983 1026
f 945 1027 946
f 945 1026 1028
f 945 1028 1029
f 945 1029 1027
f 946 1029 947
f 946 1027 1029
f 947 1030 949
f 947 949 948
f 947 1029 1030
f 949 1030 1031
f 949 1031 950
f 950 1031 951
f 951 1031 1032
f 951 1032 1033
f 951 1033 1034
f 951 1034 952
f 952 1034 1035
f 952 1035 1036
f 952 1036 1037
f 952 1037 953
f 953 1037 1038
f 953 1038 1039
f 953 1039 1040
f 953 1040 954
f 954 1040 1041
f 959 963 1042
f 959 1042 1043
f 959 1043 1044
f 959 1044 1045
f 959 1045 968
f 959 968 960
f 962 1046 1043
f 962 1043 1042
f 962 1042 963
f 965 967 970
f 966 969 1047
f 966 1047 1048
f 966 1048 967
f 967 1048 1049
f 967 1049 970
f 968 1045 1050
f 968 1050 969
f 969 1050 1051
f 969 1051 1052
f 969 1052 1047
f 970 1053 1054
f 970 1054 971
f 970 1049 1053
f 971 1055 1056
f 971 1056 1057
f 971 1057 1058
f 971 1058 972
f 971 1054 1055
f 972 1058 1059
f 972 1059 973
f 973 1060 1170
f 973 1170 1061
f 973 1061 1171
f 973 1171 1062
f 973 1062 974
f 973 1059 1058
f 973 1058 1060
f 974 1062 1063
f 974 1063 1064
f 974 1064 1065
f 974 1065 975
f 975 1065 1066
f 975 1066 979
f 979 1066 1067
f 979 1067 1068
f 979 1068 980
f 980 1068 1069
f 980 1069 1070
f 980 1070 1071
f 980 1071 981
f 981 1071 1072
f 981 1072 982
f 982 1072 1073
f 982 1073 1028
f 982 1028 1026
f 982 1026 1074
f 982 1074 983
f 983 1074 1026
f 985 1075 1076
f 985 1076 986
f 986 1076 1077
f 986 1077 1002
f 989 1007 1078
f 989 1078 990
f 990 1079 991
f 990 1078 1079
f 991 1079 1080
f 991 1080 992
f 992 1080 993
f 993 1080 996
f 996 1081 997
f 996 1080 1081
f 997 1081 1082
f 997 1082 1083
f 997 1083 1084
f 997 1084 1085
f 997 1085 1086
f 997 1086 998
f 998 1086 1087
f 998 1087 999
f 999 1087 1088
f 999 1088 1089
f 999 1089 1000
f 1000 1089 1090
f 1000 1090 1001
f 1001 1091 1092
f 1001 1092 1093
f 1001 1093 1013
f 1001 1090 1091
f 1002 1077 1094
f 1002 1094 1095
f 1002 1095 1003
f 1003 1095 1094
f 1003 1094 1096
f 1003 1096 1097
f 1003 1097 1098
f 1003 1098 1099
f 1003 1099 1004
f 1004 1099 1100
f 1004 1100 1101
f 1004 1101 1102
f 1004 1102 1103
f 1004 1103 1005
f 1005 1103 1007
f 1005 1007 1006
f 1007 1103 1104
f 1007 1104 1105
f 1007 1105 1078
f 1008 1106 1107
f 1008 1107 1108
f 1008 1108 1109
f 1008 1109 1009
f 1008 1014 1110
f 1008 1110 1106
f 1009 1109 1010
f 1010 1109 1111
f 1010 1111 1011
f 1011 1111 1016
f 1011 1016 1015
f 1013 1093 1112
f 1013 1112 1014
f 1014 1112 1110
f 1016 1113 1114
f 1016 1114 1115
f 1016 1115 1116
f 1016 1116 1018
f 1016 1018 1117
f 1016 1117 1017
f 1016 1111 1113
f 1017 1117 1018
f 1018 1118 1119
f 1018 1119 1120
f 1018 1120 1121
f 1018 1121 1122
f 1018 1122 1019
f 1018 1116 1115
f 1018 1115 1123
f 1018 1123 1118
f 1019 1122 1124
f 1019 1124 1020
f 1020 1124 1125
f 1020 1125 1021
f 1021 1125 1022
f 1022 1125 1126
f 1022 1126 1023
f 1023 1126 1127
f 1023 1127 1024
f 1024 1127 1025
f 1028 1073 1072
f 1028 1072 1128
f 1028 1128 1129
f 1028 1129 1130
f 1028 1130 1029
f 1029 1130 1129
f 1029 1129 1131
f 1029 1131 1132
f 1029 1132 1030
f 1030 1133 1031
f 1030 1132 1133
f 1031 1133 1134
f 1031 1134 1135
f 1031 1135 1136
f 1031 1136 1032
f 1032 1136 1137
f 1032 1137 1138
f 1032 1138 1139
f 1032 1139 1033
f 1033 1139 1034
f 1034 1139 1035
f 1035 1139 1037
f 1035 1037 1036
f 1037 1139 1038
f 1038 1140 1141
f 1038 1141 1142
f 1038 1142 1143
f 1038 1143 1144
f 1038 1144 1040
f 1038 1040 1039
f 1038 1139 1138
f 1038 1138 1145
f 1038 1145 1140
f 1040 1144 1146
f 1040 1146 1147
f 1040 1147 1041
f 1043 1046 1148
f 1043 1148 1044
f 1044 1148 1149
f 1044 1149 1045
f 1045 1149 1050
f 1047 1052 1150
f 1047 1150 1151
f 1047 1151 1152
f 1047 1152 1153
f 1047 1153 1154
f 1047 1154 1048
f 1048 1154 1155
f 1048 1155 1156
f 1048 1156 1157
f 1048 1157 1054
f 1048 1054 1053
f 1048 1053 1049
f 1050 1158 1051
f 1051 1158 1159
f 1051 1159 1160
f 1051 1160 1052
f 1052 1160 1161
f 1052 1161 1162
f 1052 1162 1163
f 1052 1163 1164
f 1052 1164 1150
f 1054 1157 1056
f 1054 1056 1055
f 1056 1165 1166
f 1056 1166 1057
f 1056 1157 1165
f 1057 1166 1058
f 1058 1166 1167
f 1058 1167 1168
f 1058 1168 1169
f 1058 1169 1060
f 1060 1169 1170
f 1061 1170 1171
f 1062 1171 1172
f 1062 1172 1173
f 1062 1173 1174
f 1062 1174 1063
f 1063 1174 1175
f 1063 1175 1064
f 1064 1175 1065
f 1065 1175 1176
f 1065 1176 1066
f 1066 1176 1177
f 1066 1177 1067
f 1067 1178 1179
f 1067 1179 1180
f 1067 1180 1181
f 1067 1181 1068
f 1067 1177 1182
f 1067 1182 1174
f 1067 1174 1178
f 1068 1181 1069
f 1069 1183 1184
f 1069 1184 1070
f 1069 1181 1180
f 1069 1180 1185
f 1069 1185 1183
f 1070 1184 1186
f 1070 1186 1187
f 1070 1187 1188
f 1070 1188 1307
f 1070 1307 1189
f 1070 1189 1071
f 1071 1189 1190
f 1071 1190 1191
f 1071 1191 1192
f 1071 1192 1193
f 1071 1193 1072
f 1072 1194 1128
f 1072 1193 1195
f 1072 1195 1196
f 1072 1196 1197
f 1072 1197 1198
f 1072 1198 1199
f 1072 1199 1194
f 1075 1200 1076
f 1076 1094 1077
f 1076 1200 1201
f 1076 1201 1096
f 1076 1096 1094
f 1078 1202 1079
f 1078 1105 1202
f 1079 1202 1203
f 1079 1203 1204
f 1079 1204 1081
f 1079 1081 1080
f 1081 1205 1082
f 1081 1204 1206
f 1081 1206 1205
f 1082 1205 1206
f 1082 1206 1083
f 1083 1206 1207
f 1083 1207 1208
f 1083 1208 1084
f 1084 1209 1210
f 1084 1210 1085
f 1084 1208 1211
f 1084 1211 1209
f 1085 1210 1212
f 1085 1212 1213
f 1085 1213 1086
f 1086 1213 1212
f 1086 1212 1087
f 1087 1214 1088
f 1087 1212 1215
f 1087 1215 1216
f 1087 1216 1214
f 1088 1214 1089
f 1089 1214 1217
f 1089 1217 1090
f 1090 1217 1218
f 1090 1218 1219
f 1090 1219 1092
f 1090 1092 1091
f 1092 1220 1221
f 1092 1221 1112
f 1092 1112 1093
f 1092 1219 1220
f 1096 1222 1223
f 1096 1223 1098
f 1096 1098 1097
f 1096 1201 1222
f 1098 1224 1225
f 1098 1225 1226
f 1098 1226 1099
f 1098 1223 1222
f 1098 1222 1227
f 1098 1227 1228
f 1098 1228 1224
f 1099 1226 1100
f 1100 1226 1229
f 1100 1229 1230
f 1100 1230 1101
f 1101 1230 1229
f 1101 1229 1231
f 1101 1231 1232
f 1101 1232 1104
f 1101 1104 1103
f 1101 1103 1102
f 1104 1232 1233
f 1104 1233 1234
f 1104 1234 1105
f 1105 1234 1235
f 1105 1235 1236
f 1105 1236 1237
f 1105 1237 1238
f 1105 1238 1202
f 1106 1239 1107
f 1106 1110 1239
f 1107 1239 1108
f 1108 1240 1109
f 1108 1239 1241
f 1108 1241 1242
f 1108 1242 1243
f 1108 1243 1240
f 1109 1240 1244
f 1109 1244 1114
f 1109 1114 1245
f 1109 1245 1113
f 1109 1113 1111
f 1110 1112 1239
f 1112 1246 1168
f 1112 1168 1247
f 1112 1247 1239
f 1112 1221 1248
f 1112 1248 1249
f 1112 1249 1250
f 1112 1250 1251
f 1112 1251 1252
f 1112 1252 1246
f 1113 1245 1114
f 1114 1253 1254
f 1114 1254 1115
f 1114 1244 1240
f 1114 1240 1253
f 1115 1254 1255
f 1115 1255 1256
f 1115 1256 1123
f 1118 1123 1257
f 1118 1257 1258
f 1118 1258 1259
f 1118 1259 1260
f 1118 1260 1119
f 1119 1260 1120
f 1123 1256 1255
f 1123 1255 1261
f 1123 1261 1262
f 1123 1262 1263
f 1123 1263 1257
f 1128 1194 1129
f 1129 1194 1131
f 1131 1264 1265
f 1131 1265 1132
f 1131 1194 1199
f 1131 1199 1266
f 1131 1266 1264
f 1132 1265 1267
f 1132 1267 1134
f 1132 1134 1133
f 1134 1268 1136
f 1134 1136 1269
f 1134 1269 1135
f 1134 1267 1265
f 1134 1265 1270
f 1134 1270 1271
f 1134 1271 1198
f 1134 1198 1268
f 1135 1269 1136
f 1136 1272 1145
f 1136 1145 1137
f 1136 1268 1272
f 1137 1145 1138
f 1140 1273 1141
f 1140 1145 1273
f 1141 1273 1142
f 1142 1274 1275
f 1142 1275 1144
f 1142 1144 1143
f 1142 1273 1274
f 1144 1275 1276
f 1144 1276 1277
f 1144 1277 1146
f 1145 1272 1278
f 1145 1278 1274
f 1145 1274 1273
f 1146 1277 1279
f 1146 1279 1280
f 1146 1280 1147
f 1150 1152 1151
f 1150 1164 1281
f 1150 1281 1282
f 1150 1282 1152
f 1152 1282 1283
f 1152 1283 1153
f 1153 1283 1154
f 1154 1283 1165
f 1154 1165 1156
f 1154 1156 1155
f 1156 1165 1157
f 1159 1284 1160
f 1160 1162 1161
f 1160 1284 1162
f 1162 1284 1285
f 1162 1285 1286
f 1162 1286 1163
f 1163 1262 1261
f 1163 1261 1164
f 1163 1286 1337
f 1163 1337 1262
f 1164 1261 1281
f 1165 1287 1288
f 1165 1288 1289
f 1165 1289 1241
f 1165 1241 1247
f 1165 1247 1168
f 1165 1168 1167
f 1165 1167 1166
f 1165 1283 1282
f 1165 1282 1287
f 1168 1246 1290
f 1168 1290 1169
f 1169 1290 1291
f 1169 1291 1292
f 1169 1292 1170
f 1170 1292 1293
f 1170 1293 1171
f 1171 1293 1294
f 1171 1294 1295
f 1171 1295 1172
f 1172 1295 1296
f 1172 1296 1297
f 1172 1297 1180
f 1172 1180 1174
f 1172 1174 1173
f 1174 1182 1298
f 1174 1298 1175
f 1174 1180 1179
f 1174 1179 1178
f 1175 1298 1176
f 1176 1298 1182
f 1176 1182 1177
f 1180 1299 1300
f 1180 1300 1216
f 1180 1216 1301
f 1180 1301 1302
f 1180 1302 1303
f 1180 1303 1185
f 1180 1297 1296
f 1180 1296 1293
f 1180 1293 1291
f 1180 1291 1299
f 1183 1186 1184
f 1183 1185 1303
f 1183 1303 1304
f 1183 1304 1187
f 1183 1187 1186
f 1187 1304 1303
f 1187 1303 1305
f 1187 1305 1306
f 1187 1306 1307
f 1187 1307 1188
f 1189 1307 1306
f 1189 1306 1190
f 1190 1306 1308
f 1190 1308 1191
f 1191 1308 1192
f 1192 1309 1195
f 1192 1195 1193
f 1192 1308 1310
f 1192 1310 1309
f 1195 1309 1196
f 1196 1309 1197
f 1197 1310 1311
f 1197 1311 1198
f 1197 1309 1310
f 1198 1271 1312
f 1198 1312 1199
f 1198 1311 1268
f 1199 1312 1270
f 1199 1270 1264
f 1199 1264 1266
f 1202 1313 1203
f 1202 1238 1314
f 1202 1314 1313
f 1203 1313 1315
f 1203 1315 1204
f 1204 1315 1206
f 1206 1315 1207
f 1207 1315 1314
f 1207 1314 1208
f 1208 1314 1316
f 1208 1316 1211
f 1209 1317 1212
f 1209 1212 1210
f 1209 1211 1317
f 1211 1316 1317
f 1212 1317 1215
f 1214 1318 1217
f 1214 1216 1300
f 1214 1300 1318
f 1215 1317 1302
f 1215 1302 1301
f 1215 1301 1216
f 1217 1318 1319
f 1217 1319 1320
f 1217 1320 1219
f 1217 1219 1218
f 1219 1320 1220
f 1220 1248 1221
f 1220 1320 1248
f 1225 1321 1226
f 1226 1321 1322
f 1226 1322 1323
f 1226 1323 1324
f 1226 1324 1325
f 1226 1325 1326
f 1226 1326 1327
f 1226 1327 1229
f 1229 1327 1328
f 1229 1328 1231
f 1231 1328 1329
f 1231 1329 1236
f 1231 1236 1234
f 1231 1234 1232
f 1232 1234 1233
f 1234 1236 1235
f 1236 1329 1237
f 1237 1330 1331
f 1237 1331 1238
f 1237 1329 1328
f 1237 1328 1332
f 1237 1332 1330
f 1238 1331 1314
f 1239 1247 1241
f 1240 1243 1253
f 1241 1289 1242
f 1242 1289 1288
f 1242 1288 1281
f 1242 1281 1243
f 1243 1281 1333
f 1243 1333 1255
f 1243 1255 1253
f 1246 1252 1334
f 1246 1334 1290
f 1248 1320 1319
f 1248 1319 1249
f 1249 1319 1250
f 1250 1319 1318
f 1250 1318 1251
f 1251 1318 1335
f 1251 1335 1336
f 1251 1336 1252
f 1252 1336 1290
f 1252 1290 1334
f 1253 1255 1254
f 1255 1333 1281
f 1255 1281 1261
f 1257 1263 1258
f 1258 1263 1337
f 1262 1337 1263
f 1264 1270 1265
f 1268 1311 1338
f 1268 1338 1272
f 1270 1312 1271
f 1272 1338 1339
f 1272 1339 1340
f 1272 1340 1278
f 1274 1341 1342
f 1274 1342 1343
f 1274 1343 1275
f 1274 1278 1341
f 1275 1343 1277
f 1275 1277 1276
f 1277 1343 1279
f 1278 1340 1344
f 1278 1344 1345
f 1278 1345 1341
f 1279 1343 1346
f 1281 1288 1287
f 1281 1287 1282
f 1290 1336 1347
f 1290 1347 1299
f 1290 1299 1291
f 1291 1293 1292
f 1293 1296 1294
f 1294 1296 1295
f 1299 1335 1300
f 1299 1347 1336
f 1299 1336 1335
f 1300 1335 1318
f 1302 1317 1348
f 1302 1348 1349
f 1302 1349 1303
f 1303 1349 1350
f 1303 1350 1305
f 1305 1350 1351
f 1305 1351 1352
f 1305 1352 1353
f 1305 1353 1354
f 1305 1354 1355
f 1305 1355 1308
f 1305 1308 1306
f 1308 1355 1310
f 1310 1355 1356
f 1310 1356 1357
f 1310 1357 1339
f 1310 1339 1338
f 1310 1338 1311
f 1313 1314 1315
f 1314 1331 1330
f 1314 1330 1358
f 1314 1358 1359
f 1314 1359 1316
f 1316 1359 1360
f 1316 1360 1361
f 1316 1361 1348
f 1316 1348 1317
f 1323 1362 1324
f 1324 1362 1363
f 1324 1363 1364
f 1324 1364 1365
f 1324 1365 1366
f 1324 1366 1326
f 1324 1326 1325
f 1326 1366 1367
f 1326 1367 1332
f 1326 1332 1328
f 1326 1328 1327
f 1330 1332 1368
f 1330 1368 1358
f 1332 1367 1369
f 1332 1369 1370
f 1332 1370 1368
f 1339 1357 1371
f 1339 1371 1340
f 1340 1370 1372
f 1340 1372 1373
f 1340 1373 1344
f 1340 1371 1370
f 1341 1345 1374
f 1341 1374 1375
f 1341 1375 1376
f 1341 1376 1342
f 1342 1376 1374
f 1342 1374 1377
f 1342 1377 1378
f 1342 1378 1379
f 1342 1379 1343
f 1343 1379 1346
f 1344 1373 1372
f 1344 1372 1380
f 1344 1380 1381
f 1344 1381 1382
f 1344 1382 1374
f 1344 1374 1345
f 1346 1379 1383
f 1348 1361 1349
f 1349 1361 1384
f 1349 1384 1385
f 1349 1385 1386
f 1349 1386 1352
f 1349 1352 1351
f 1349 1351 1350
f 1352 1386 1353
f 1353 1386 1387
f 1353 1387 1355
f 1353 1355 1354
f 1355 1388 1371
f 1355 1371 1356
f 1355 1387 1389
f 1355 1389 1388
f 1356 1371 1357
f 1358 1368 1385
f 1358 1385 1384
f 1358 1384 1360
f 1358 1360 1359
f 1360 1384 1361
f 1362 1390 1363
f 1363 1390 1391
f 1363 1391 1392
f 1363 1392 1393
f 1363 1393 1383
f 1363 1383 1378
f 1363 1378 1364
f 1364 1394 1365
f 1364 1378 1394
f 1365 1394 1377
f 1365 1377 1395
f 1365 1395 1396
f 1365 1396 1366
f 1366 1396 1397
f 1366 1397 1367
f 1367 1398 1369
f 1367 1397 1399
f 1367 1399 1398
f 1368 1400 1401
f 1368 1401 1385
f 1368 1370 1400
f 1369 1372 1370
f 1369 1398 1402
f 1369 1402 1403
f 1369 1403 1404
f 1369 1404 1372
f 1370 1371 1400
f 1371 1388 1385
f 1371 1385 1401
f 1371 1401 1400
f 1372 1404 1380
f 1374 1382 1405
f 1374 1405 1402
f 1374 1402 1406
f 1374 1406 1377
f 1374 1376 1375
f 1377 1394 1407
f 1377 1407 1378
f 1377 1406 1402
f 1377 1402 1397
f 1377 1397 1408
f 1377 1408 1409
f 1377 1409 1395
f 1378 1383 1379
f 1378 1407 1394
f 1380 1404 1403
f 1380 1403 1405
f 1380 1405 1381
f 1381 1405 1382
f 1385 1388 1389
f 1385 1389 1386
f 1386 1389 1387
f 1395 1409 1408
f 1395 1408 1396
f 1396 1408 1397
f 1397 1402 1399
f 1398 1399 1402
f 1402 1405 1403

