# https://github.com/mikedh/trimesh
v -0.00641756 0.02669495 -0.00244738
v 0.00986471 0.02685514 -0.00250942
v 0.00986471 0.02685014 -0.00215268
v 0.00986471 0.02685014 -0.00114966
v 0.00986471 0.02696027 0.00384474
v 0.00986471 0.02698029 0.00432040
v 0.00986471 0.02703535 0.00541648
v -0.00641756 0.02690020 -0.00158396
v -0.00641756 0.02682511 -0.00401395
v 0.00986471 0.02698530 -0.00329529
v 0.00986471 0.02762104 0.00673488
v -0.00641756 0.02827682 0.00376202
v -0.00641756 0.02818171 0.00346215
v -0.00641756 0.02865726 -0.01474726
v 0.00986471 0.02822175 -0.01029056
v -0.00641756 0.03325768 0.01412308
v -0.00641756 0.03053447 0.00849274
v -0.00641756 0.02856716 0.00440829
v 0.00986471 0.03346292 0.01534841
v -0.00641756 0.02877741 -0.01509366
v 0.00986471 0.02910779 -0.01500577
v -0.00641756 0.03348294 0.01438676
v 0.00986471 0.03427888 0.01649620
v 0.00986471 0.03456922 0.01683743
v -0.00641756 0.02957334 -0.01657234
v 0.00986471 0.02975355 -0.01670159
v 0.00986471 0.02965344 -0.01645859
v -0.00641756 0.03372323 0.01465561
v 0.00986471 0.03525503 0.01737513
v -0.00641756 0.03475444 0.01571033
v -0.00641756 0.03461427 0.01559658
v 0.00986471 0.03014902 -0.01738406
v -0.00641756 0.03028418 -0.01745644
v 0.00986471 0.03203123 -0.02016562
v 0.00986471 0.03144555 -0.01937975
v 0.00986471 0.03058954 -0.01806652
v 0.00986471 0.04400533 0.02209551
v 0.00958739 0.04401534 0.02209551
v 0.00644123 0.04408542 0.02205415
v -0.00141940 0.04427565 0.02194558
v -0.00232787 0.04430068 0.02193006
v -0.00337659 0.04435074 0.02191456
v -0.00641756 0.04431569 0.02176462
v -0.00641756 0.04351976 0.02129413
v -0.00641756 0.04332453 0.02117005
v -0.00641756 0.03102505 -0.01835088
v 0.00986471 0.03281716 -0.02093598
v -0.00641756 0.03174089 -0.01921431
v -0.00641756 0.03386840 -0.02177872
v -0.00641756 0.03452417 -0.02256459
v -0.00641756 0.03527505 -0.02343318
v -0.00641756 0.03593083 -0.02416218
v 0.00986471 0.04420557 0.02214721
v 0.00958739 0.04509161 0.02235402
v 0.00329666 0.04416552 0.02201279
v 0.00644123 0.04509161 0.02229198
v 0.00329666 0.04509161 0.02222994
v -0.00641756 0.04528684 0.02208000
v -0.00641756 0.04450091 0.02186802
v -0.00641756 0.03683689 -0.02496873
v 0.00986471 0.03381333 -0.02172185
v 0.00986471 0.04509161 0.02235919
v -0.00641756 0.05110368 0.02305716
v -0.00641756 0.03762282 -0.02544439
v 0.00986471 0.04036605 -0.02652495
v 0.00986471 0.04007571 -0.02633883
v 0.00986471 0.03904449 -0.02566153
v 0.00986471 0.04666346 0.02251429
v -0.00641756 0.05138401 0.02309853
v -0.00641756 0.03786310 -0.02556330
v 0.00986471 0.04418054 -0.02845861
v 0.00986471 0.04694379 0.02254015
v 0.00986471 0.05295086 0.02304166
v 0.00986471 0.05452271 0.02313989
v -0.00299248 0.05295086 0.02315540
v -0.00456397 0.05295086 0.02314506
v -0.00641756 0.05267053 0.02311921
v 0.00986471 0.04823531 0.02264872
v -0.00641756 0.03898943 -0.02608549
v 0.00986471 0.04509161 -0.02889807
v 0.00644123 0.05452271 0.02315540
v 0.00986471 0.05609456 0.02290206
v 0.00958739 0.05609456 0.02291240
v 0.00801431 0.05609456 0.02293825
v 0.00486974 0.05609456 0.02297962
v 0.00486974 0.05452271 0.02316057
v 0.00329666 0.05452271 0.02313989
v -0.00613705 0.05295086 0.02311921
v -0.00641756 0.05295086 0.02311404
v -0.00641756 0.04346970 -0.02814323
v -0.00641756 0.04400533 -0.02838105
v -0.00641756 0.04432570 -0.02850514
v -0.00641756 0.04499650 -0.02871712
v 0.00986471 0.04638813 -0.02928066
v 0.00986471 0.05769144 0.02229198
v 0.00958739 0.05766641 0.02231783
v 0.00801431 0.05766641 0.02240055
v 0.00486974 0.05766641 0.02254532
v 0.00329666 0.05766641 0.02259702
v -0.00456397 0.05923826 0.02231783
v -0.00613705 0.05923826 0.02235402
v -0.00641756 0.05923826 0.02235919
v -0.00141940 0.05766641 0.02267974
v -0.00299248 0.05766641 0.02269525
v -0.00456397 0.05766641 0.02270042
v 0.00329666 0.05609456 0.02298478
v 0.00172357 0.05609456 0.02296927
v 0.00172357 0.05452271 0.02311404
v -0.00456397 0.05609456 0.02286070
v -0.00641756 0.05424238 0.02299512
v -0.00641756 0.04666346 -0.02906869
v 0.00986471 0.04666346 -0.02935822
v 0.00986471 0.05863755 0.02189904
v 0.00958739 0.05853243 0.02196109
v 0.00801431 0.05863755 0.02200245
v 0.00338750 0.06253714 0.02063235
v -0.00299248 0.06238696 0.02098909
v -0.00290164 0.06068496 0.02167672
v -0.00336384 0.06007424 0.02194558
v -0.00641756 0.06023944 0.02201796
v -0.00641756 0.05766641 0.02267974
v -0.00613705 0.05766641 0.02268491
v 0.00015368 0.05609456 0.02294342
v -0.00641756 0.05738608 0.02270559
v -0.00641756 0.04851564 -0.02922897
v 0.00986471 0.04823531 -0.02951850
v 0.00986471 0.04795998 -0.02949265
v 0.00986471 0.06395882 0.01963450
v 0.00644123 0.06395882 0.01985682
v 0.00329666 0.06663697 0.01892101
v 0.00329666 0.06553067 0.01939150
v 0.00397243 0.06315787 0.02034799
v 0.00015368 0.06686724 0.01900891
v 0.00015368 0.06553067 0.01955695
v -0.00456397 0.06238696 0.02106147
v -0.00613705 0.06101535 0.02168707
v -0.00641756 0.06088520 0.02174911
v -0.00641756 0.05295086 -0.02959088
v 0.00986471 0.04953184 -0.02962190
v 0.00986471 0.06535045 0.01903993
v 0.00958739 0.06537048 0.01905027
v 0.00836813 0.06625151 0.01875557
v 0.00015368 0.06765316 0.01867285
v 0.00172357 0.06675711 0.01896755
v -0.00141940 0.06691229 0.01904510
v -0.00141940 0.06553067 0.01962933
v -0.00456397 0.06359839 0.02054445
v -0.00299248 0.06433927 0.02018771
v -0.00613705 0.06238696 0.02108733
v -0.00641756 0.06215169 0.02119073
v -0.00641756 0.05452271 -0.02963741
v -0.00613705 0.05452271 -0.02964775
v 0.00958739 0.04980716 -0.02963741
v 0.00986471 0.04980716 -0.02963741
v 0.00986471 0.06613638 0.01870387
v 0.00958739 0.06615640 0.01871421
v -0.00141940 0.06769822 0.01868836
v 0.00172357 0.06754303 0.01861081
v 0.00172357 0.06849916 0.01782493
v 0.00015368 0.06860428 0.01788698
v -0.00299248 0.06553067 0.01967069
v -0.00456397 0.06438431 0.02018771
v -0.00613705 0.06354333 0.02054445
v -0.00641756 0.06333809 0.02062718
v -0.00456397 0.05609456 -0.02944611
v -0.00641756 0.05609456 -0.02933237
v -0.00613705 0.05609456 -0.02936339
v -0.00456397 0.05452271 -0.02965809
v -0.00299248 0.05609456 -0.02946679
v 0.00329666 0.05295086 -0.02965292
v 0.00801431 0.05138401 -0.02964258
v 0.00986471 0.05110368 -0.02962707
v 0.00986471 0.06712754 0.01795419
v 0.00486974 0.06730275 0.01844019
v 0.00329666 0.06742289 0.01853325
v -0.00141940 0.06861430 0.01789732
v -0.00299248 0.06763815 0.01863665
v -0.00299248 0.06685222 0.01905027
v 0.00329666 0.06838903 0.01774738
v 0.00015368 0.06939021 0.01711662
v -0.00641756 0.06352831 0.02053411
v -0.00456397 0.06674710 0.01900374
v -0.00641756 0.06417407 0.02020322
v -0.00456397 0.05766641 -0.02884120
v -0.00299248 0.05766641 -0.02891875
v -0.00141940 0.05766641 -0.02898080
v 0.00015368 0.05766641 -0.02903250
v 0.00172357 0.05766641 -0.02906869
v -0.00641756 0.05634986 -0.02923930
v -0.00616415 0.05780657 -0.02867575
v -0.00141940 0.05452271 -0.02965292
v -0.00141940 0.05609456 -0.02947196
v 0.00015368 0.05609456 -0.02947196
v 0.00329666 0.05766641 -0.02908937
v 0.00644123 0.05766641 -0.02909971
v 0.00015368 0.05452271 -0.02963741
v 0.00486974 0.05295086 -0.02963224
v 0.00958739 0.05138401 -0.02962190
v 0.00986471 0.05138401 -0.02961156
v 0.00986471 0.06792849 0.01726139
v 0.00958739 0.06794851 0.01728723
v 0.00801431 0.06805864 0.01742166
v 0.00644123 0.06816877 0.01754574
v 0.00486974 0.06827890 0.01765432
v -0.00141940 0.06940022 0.01712696
v -0.00299248 0.06851918 0.01785079
v -0.00456397 0.06842407 0.01777840
v -0.00456397 0.06753302 0.01856427
v -0.00641756 0.06662696 0.01894170
v 0.00172357 0.06928508 0.01697703
v 0.00492871 0.07056159 0.01473316
v 0.00015368 0.06998591 0.01633075
v -0.00141940 0.07415582 0.01088654
v -0.00141940 0.07276919 0.01270645
v -0.00641756 0.06644674 0.01903476
v -0.00613705 0.06553067 0.01952593
v -0.00641756 0.06530039 0.01962416
v -0.00565891 0.05849739 -0.02841207
v -0.00456397 0.05857748 -0.02844309
v -0.00141940 0.06293261 -0.02671625
v -0.00299248 0.05946352 -0.02814323
v -0.00299248 0.05867760 -0.02848446
v -0.00141940 0.06081011 -0.02763655
v 0.00015368 0.06223679 -0.02708851
v 0.00172357 0.06230186 -0.02711953
v 0.00172357 0.05967377 -0.02824146
v 0.00644123 0.05908808 -0.02866024
v 0.00801431 0.05915316 -0.02868610
v 0.00958739 0.05918319 -0.02870160
v -0.00641756 0.05776152 -0.02867058
v -0.00641756 0.05809191 -0.02853616
v 0.00172357 0.05609456 -0.02946162
v 0.00801431 0.05766641 -0.02910488
v 0.00958739 0.05766641 -0.02909454
v 0.00172357 0.05452271 -0.02960122
v 0.00329666 0.05609456 -0.02942543
v 0.00801431 0.05295086 -0.02954435
v 0.00958739 0.05295086 -0.02949781
v 0.00986471 0.05452271 -0.02936339
v 0.00986471 0.06872443 0.01623252
v 0.00798402 0.06894468 0.01628939
v 0.00486974 0.06906483 0.01669783
v -0.00299248 0.07468144 0.01000244
v -0.00299248 0.07408073 0.01078831
v -0.00299248 0.07069675 0.01519848
v -0.00299248 0.06991082 0.01622218
v -0.00299248 0.06930511 0.01700805
v -0.00641756 0.06830893 0.01768017
v -0.00613705 0.06743291 0.01848155
v -0.00641756 0.06727272 0.01855910
v 0.00486974 0.06967054 0.01591196
v 0.00986471 0.07131748 0.01286155
v 0.00986471 0.07225858 0.01162071
v 0.00329666 0.07187814 0.01328034
v 0.00015368 0.07136753 0.01450567
v -0.00141940 0.07475152 0.01010067
v -0.00641756 0.05913313 -0.02808118
v -0.00641756 0.06257719 -0.02655597
v -0.00299248 0.06395882 -0.02616304
v -0.00074841 0.06633161 -0.02525309
v 0.00015368 0.06639668 -0.02527894
v 0.00015368 0.06553067 -0.02566153
v 0.00172357 0.06649179 -0.02532547
v 0.00015368 0.06395882 -0.02634917
v -0.00141940 0.06214669 -0.02705748
v 0.00015368 0.06302271 -0.02675244
v 0.00172357 0.06395882 -0.02641121
v 0.00393896 0.06318290 -0.02682483
v 0.00801431 0.05993908 -0.02835520
v 0.00986471 0.05891788 -0.02876365
v 0.00986471 0.05766641 -0.02908937
v 0.00958739 0.05996912 -0.02836554
v 0.00986471 0.05982395 -0.02842241
v 0.00986471 0.05917318 -0.02869643
v 0.00801431 0.05609456 -0.02929101
v 0.00958739 0.05609456 -0.02924447
v 0.00986471 0.05609456 -0.02923414
v 0.00986471 0.06943026 0.01531739
v 0.00848926 0.06942024 0.01558107
v -0.00141940 0.07553744 0.00905629
v -0.00299248 0.07546736 0.00894772
v -0.00456397 0.07458132 0.00987318
v -0.00613705 0.07388550 0.01052980
v -0.00641756 0.07297443 0.01167758
v -0.00613705 0.07178303 0.01328034
v -0.00641756 0.06970058 0.01594816
v -0.00613705 0.06911488 0.01675471
v -0.00641756 0.06895470 0.01690464
v -0.00641756 0.06741288 0.01846604
v 0.00798402 0.06995588 0.01497616
v 0.00986471 0.07082189 0.01350783
v 0.00986471 0.07336489 0.01015754
v 0.00015368 0.07472148 0.01006448
v -0.00641756 0.06414904 -0.02585800
v -0.00613705 0.06395882 -0.02596141
v -0.00456397 0.06527036 -0.02548058
v -0.00299248 0.06617142 -0.02518071
v 0.00172357 0.06727772 -0.02489117
v 0.00172357 0.06553067 -0.02573909
v 0.00329666 0.06652183 -0.02534098
v 0.00329666 0.06553067 -0.02578562
v 0.00486974 0.06400887 -0.02649393
v 0.00486974 0.06322295 -0.02684033
v 0.00801431 0.06081011 -0.02796744
v 0.00986471 0.05739108 -0.02911522
v 0.00644123 0.06324798 -0.02685585
v 0.00765092 0.06321794 -0.02684033
v 0.00986471 0.06065493 -0.02801914
v 0.00986471 0.05995911 -0.02836037
v 0.00015368 0.07550741 0.00900976
v -0.00141940 0.07604805 0.00827042
v -0.00641756 0.07446117 0.00971808
v -0.00299248 0.07597796 0.00816185
v -0.00456397 0.07536724 0.00878227
v -0.00641756 0.07435605 0.00985767
v -0.00641756 0.07372531 0.01069007
v -0.00641756 0.07230864 0.01254617
v -0.00641756 0.06909486 0.01673402
v 0.00986471 0.07407572 0.00921140
v 0.00958739 0.07409575 0.00923725
v 0.00644123 0.07430599 0.00951127
v -0.00641756 0.06513520 -0.02541853
v -0.00613705 0.06515523 -0.02542887
v -0.00456397 0.06605629 -0.02512384
v 0.00329666 0.06730775 -0.02488083
v -0.00641756 0.06592112 -0.02504628
v 0.00015368 0.06718261 -0.02479811
v 0.00015368 0.06817878 -0.02401224
v 0.00172357 0.06826889 -0.02410531
v 0.00486974 0.06646677 -0.02532547
v 0.00486974 0.06553067 -0.02578562
v 0.00986471 0.06205658 -0.02731599
v 0.00986471 0.06081011 -0.02794159
v 0.00015368 0.07601801 0.00822389
v -0.00141940 0.07648856 0.00698822
v -0.00641756 0.07531218 0.00847206
v -0.00299248 0.07634840 0.00698822
v -0.00456397 0.07587785 0.00799640
v 0.00986471 0.07416583 0.00907180
v 0.00486974 0.06725269 -0.02478777
v 0.00986471 0.06619144 -0.02517553
v 0.00958739 0.06620646 -0.02518588
v 0.00735288 0.06633161 -0.02525309
v 0.00329666 0.06825888 -0.02409497
v -0.00641756 0.06610134 -0.02490669
v -0.00641756 0.06691730 -0.02426041
v -0.00141940 0.06806365 -0.02388816
v 0.00015368 0.06896471 -0.02300923
v 0.00172357 0.06905482 -0.02313331
v 0.00329666 0.06904480 -0.02312814
v 0.00986471 0.06516023 -0.02571323
v 0.00986471 0.07458132 0.00842553
v 0.00172357 0.07591288 0.00805845
v 0.00015368 0.07641848 0.00698822
v -0.00020811 0.07737961 0.00180252
v -0.00141940 0.07739463 0.00186973
v -0.00247131 0.07735959 0.00167843
v -0.00572585 0.07580276 0.00786198
v -0.00641756 0.07575269 0.00773272
v -0.00620399 0.07591288 0.00708128
v -0.00641756 0.07584280 0.00729843
v -0.00299248 0.07662873 0.00541648
v 0.00486974 0.06816377 -0.02400190
v 0.00986471 0.06718762 -0.02428626
v -0.00641756 0.06770322 -0.02342801
v -0.00613705 0.06772325 -0.02345903
v -0.00485085 0.06781836 -0.02357795
v -0.00380213 0.06789345 -0.02367618
v 0.00172357 0.06965051 -0.02234744
v -0.00442212 0.06833397 -0.02298854
v -0.00299248 0.06934015 -0.02193900
v -0.00187523 0.06941524 -0.02204240
v -0.00299248 0.06993084 -0.02115313
v -0.00137796 0.06993585 -0.02143749
v 0.00123587 0.07099710 -0.02047583
v 0.00228300 0.07106218 -0.02056890
v 0.00276592 0.07106218 -0.02056890
v 0.00486974 0.06894969 -0.02300406
v 0.00801431 0.06797354 -0.02377958
v 0.00644123 0.06806865 -0.02389333
v 0.00329187 0.07053656 -0.02117898
v 0.00486974 0.07154274 -0.01961758
v 0.00410471 0.07575269 0.00777926
v 0.00329666 0.07580776 0.00787749
v 0.00986471 0.07513197 0.00698822
v 0.00172357 0.07621324 0.00698822
v 0.00015368 0.07669881 0.00541648
v 0.00025090 0.07749475 0.00080984
v 0.00015368 0.07775505 -0.00087564
v -0.00141940 0.07783515 -0.00087564
v -0.00141940 0.07759987 0.00069610
v -0.00299408 0.07745970 0.00074263
v -0.00641756 0.07587785 0.00711230
v -0.00641756 0.07673886 0.00226783
v -0.00641756 0.07589787 0.00700373
v 0.00986471 0.06785840 -0.02363482
v -0.00641756 0.06830893 -0.02264214
v -0.00641756 0.06909486 -0.02161844
v -0.00641756 0.06986577 -0.02061026
v -0.00456397 0.06982572 -0.02100836
v -0.00641756 0.07068674 -0.01952452
v -0.00641756 0.07116730 -0.01888341
v -0.00613705 0.07173797 -0.01816993
v -0.00299248 0.07332484 -0.01659819
v -0.00141940 0.07219351 -0.01839742
v 0.00172357 0.07435605 -0.01605015
v 0.00174589 0.07151771 -0.01986575
v 0.00329666 0.07438609 -0.01608634
v 0.00329666 0.07379539 -0.01687221
v 0.00486974 0.07431601 -0.01598811
v 0.00986471 0.06985075 -0.02103421
v 0.00986471 0.06803361 -0.02340733
v 0.00644123 0.07223356 -0.01846463
v 0.00644123 0.07283426 -0.01767876
v 0.00472470 0.07582778 0.00692100
v 0.00986471 0.07565258 0.00408257
v 0.00958739 0.07545234 0.00541648
v 0.00486974 0.07607808 0.00541648
v 0.00644123 0.07614816 0.00384474
v 0.00172357 0.07676890 0.00384474
v 0.00172357 0.07725447 0.00107869
v 0.00258741 0.07733456 -0.00003290
v 0.00958739 0.07651359 -0.00087564
v 0.00408240 0.07732455 -0.00166151
v 0.00015368 0.07770499 -0.00244738
v -0.00141940 0.07779009 -0.00244738
v -0.00299248 0.07767997 -0.00244738
v -0.00299248 0.07770499 -0.00087564
v -0.00416711 0.07738461 0.00024629
v -0.00641756 0.07698915 0.00069610
v -0.00641756 0.07254893 -0.01702732
v -0.00641756 0.07302949 -0.01638104
v -0.00178757 0.07412578 -0.01573477
v 0.00172357 0.07501683 -0.01502128
v 0.00329666 0.07508191 -0.01502128
v 0.00486974 0.07493673 -0.01502128
v 0.00609378 0.07423591 -0.01588470
v 0.00919212 0.07265905 -0.01745127
v 0.00986471 0.07113226 -0.01935907
v 0.00958739 0.07581277 0.00338976
v 0.00986471 0.07602301 0.00199381
v 0.00329666 0.07683897 0.00226783
v 0.00801431 0.07649357 0.00069610
v 0.00986471 0.07624828 0.00069610
v 0.00986471 0.07628833 0.00042208
v 0.00986471 0.07647354 -0.00087564
v 0.00986471 0.07646854 -0.00115483
v 0.00986471 0.07643350 -0.00244738
v 0.00986471 0.07622826 -0.00558569
v 0.00958739 0.07626830 -0.00558569
v 0.00801431 0.07647354 -0.00558569
v 0.00486974 0.07687902 -0.00558569
v 0.00486974 0.07666877 -0.00716259
v 0.00329666 0.07679392 -0.00716259
v -0.00044399 0.07734958 -0.00494458
v -0.00141940 0.07751978 -0.00401395
v -0.00234540 0.07733957 -0.00488771
v -0.00566847 0.07737460 -0.00213717
v -0.00291757 0.07742467 -0.00402946
v -0.00425477 0.07737460 -0.00351761
v -0.00530349 0.07731954 -0.00318672
v -0.00469307 0.07745970 -0.00257663
v -0.00566847 0.07737460 -0.00129443
v -0.00464047 0.07746471 -0.00081360
v -0.00521583 0.07730452 -0.00024488
v -0.00641756 0.07716436 -0.00057060
v -0.00641756 0.07383043 -0.01522809
v -0.00613705 0.07383544 -0.01529013
v -0.00456397 0.07394056 -0.01546075
v -0.00299248 0.07404569 -0.01562102
v -0.00299248 0.07453126 -0.01483516
v -0.00456397 0.07442614 -0.01467488
v -0.00613705 0.07432602 -0.01450426
v 0.00168054 0.07563756 -0.01344954
v 0.00329666 0.07565758 -0.01373391
v 0.00958739 0.07401065 -0.01556932
v 0.00714250 0.07416583 -0.01579681
v 0.00986471 0.07448120 -0.01475760
v 0.00958739 0.07450123 -0.01478345
v 0.00986471 0.07294439 -0.01695493
v 0.00986471 0.07229863 -0.01781318
v 0.00986471 0.07619322 -0.00587522
v 0.00801431 0.07625829 -0.00716259
v 0.00486974 0.07612313 -0.01030607
v 0.00423859 0.07577272 -0.01278259
v 0.00329666 0.07652861 -0.00873433
v 0.00329666 0.07625829 -0.01030607
v 0.00329666 0.07580276 -0.01294804
v -0.00141940 0.07670382 -0.00873433
v -0.00141940 0.07735458 -0.00497043
v -0.00641756 0.07706424 -0.00401395
v -0.00299248 0.07660871 -0.00873433
v -0.00641756 0.07723945 -0.00255595
v -0.00641756 0.07719439 -0.00082394
v -0.00617052 0.07723444 -0.00081360
v -0.00641756 0.07392555 -0.01507815
v -0.00641756 0.07430599 -0.01446807
v -0.00299248 0.07622325 -0.01030607
v -0.00141940 0.07634840 -0.01030607
v 0.00480599 0.07559251 -0.01336165
v 0.00644123 0.07536224 -0.01344954
v 0.00986471 0.07399062 -0.01554347
v 0.00986471 0.07312961 -0.01670676
v 0.00986471 0.07485664 -0.01365635
v 0.00986471 0.07601300 -0.00715742
v 0.00986471 0.07596795 -0.00742627
v 0.00986471 0.07514699 -0.01215700
v 0.00958739 0.07523209 -0.01187781
v 0.00986471 0.07492172 -0.01344954
v 0.00801431 0.07516200 -0.01344954
v -0.00641756 0.07656865 -0.00688340
v -0.00456397 0.07643851 -0.00873433
v -0.00641756 0.07588786 -0.00985109
v -0.00451137 0.07598797 -0.01037328
v -0.00641756 0.07592289 -0.00972701
v -0.00641756 0.07619822 -0.00874984
v -0.00613705 0.07623827 -0.00873433
v -0.00641756 0.07651860 -0.00716259
v -0.00641756 0.07626830 -0.00845514
f 1 2 3
f 1 3 4
f 1 4 5
f 1 5 6
f 1 6 7
f 1 7 8
f 1 8 13
f 1 13 12
f 1 12 18
f 1 18 17
f 1 17 16
f 1 16 22
f 1 22 28
f 1 28 31
f 1 31 30
f 1 30 45
f 1 45 44
f 1 44 43
f 1 43 59
f 1 59 58
f 1 58 63
f 1 63 69
f 1 69 77
f 1 77 89
f 1 89 110
f 1 110 124
f 1 124 121
f 1 121 102
f 1 102 120
f 1 120 137
f 1 137 150
f 1 150 164
f 1 164 181
f 1 181 183
f 1 183 217
f 1 217 215
f 1 215 209
f 1 209 250
f 1 250 289
f 1 289 248
f 1 248 288
f 1 288 318
f 1 318 286
f 1 286 317
f 1 317 284
f 1 284 316
f 1 316 315
f 1 315 312
f 1 312 336
f 1 336 359
f 1 359 361
f 1 361 393
f 1 393 395
f 1 395 394
f 1 394 430
f 1 430 466
f 1 466 494
f 1 494 493
f 1 493 491
f 1 491 511
f 1 511 518
f 1 518 519
f 1 519 516
f 1 516 515
f 1 515 513
f 1 513 497
f 1 497 496
f 1 496 467
f 1 467 432
f 1 432 431
f 1 431 402
f 1 402 401
f 1 401 399
f 1 399 398
f 1 398 397
f 1 397 365
f 1 365 346
f 1 346 345
f 1 345 326
f 1 326 322
f 1 322 294
f 1 294 258
f 1 258 257
f 1 257 231
f 1 231 230
f 1 230 189
f 1 189 166
f 1 166 151
f 1 151 138
f 1 138 125
f 1 125 111
f 1 111 93
f 1 93 92
f 1 92 91
f 1 91 90
f 1 90 79
f 1 79 70
f 1 70 64
f 1 64 60
f 1 60 52
f 1 52 51
f 1 51 50
f 1 50 49
f 1 49 48
f 1 48 46
f 1 46 33
f 1 33 25
f 1 25 20
f 1 20 14
f 1 14 9
f 1 9 2
f 2 9 10
f 2 10 15
f 2 15 21
f 2 21 27
f 2 27 26
f 2 26 32
f 2 32 36
f 2 36 35
f 2 35 34
f 2 34 47
f 2 47 61
f 2 61 67
f 2 67 66
f 2 66 65
f 2 65 71
f 2 71 80
f 2 80 94
f 2 94 112
f 2 112 127
f 2 127 126
f 2 126 139
f 2 139 154
f 2 154 172
f 2 172 199
f 2 199 239
f 2 239 277
f 2 277 305
f 2 305 271
f 2 271 270
f 2 270 274
f 2 274 273
f 2 273 309
f 2 309 308
f 2 308 333
f 2 333 332
f 2 332 351
f 2 351 341
f 2 341 364
f 2 364 396
f 2 396 412
f 2 412 411
f 2 411 439
f 2 439 481
f 2 481 480
f 2 480 503
f 2 503 502
f 2 502 478
f 2 478 504
f 2 504 509
f 2 509 507
f 2 507 506
f 2 506 505
f 2 505 482
f 2 482 449
f 2 449 448
f 2 448 447
f 2 447 446
f 2 446 445
f 2 445 444
f 2 444 441
f 2 441 416
f 2 416 385
f 2 385 352
f 2 352 339
f 2 339 319
f 2 319 292
f 2 292 253
f 2 253 252
f 2 252 291
f 2 291 278
f 2 278 240
f 2 240 200
f 2 200 173
f 2 173 155
f 2 155 140
f 2 140 128
f 2 128 113
f 2 113 95
f 2 95 82
f 2 82 74
f 2 74 73
f 2 73 78
f 2 78 72
f 2 72 68
f 2 68 62
f 2 62 53
f 2 53 37
f 2 37 29
f 2 29 24
f 2 24 23
f 2 23 19
f 2 19 11
f 2 11 7
f 2 7 6
f 2 6 5
f 2 5 4
f 2 4 3
f 7 11 12
f 7 12 13
f 7 13 8
f 9 14 10
f 10 14 15
f 11 16 17
f 11 17 18
f 11 18 12
f 11 19 16
f 14 20 21
f 14 21 15
f 16 19 23
f 16 23 24
f 16 24 22
f 20 25 26
f 20 26 27
f 20 27 21
f 22 24 28
f 24 29 30
f 24 30 31
f 24 31 28
f 25 32 26
f 25 33 34
f 25 34 35
f 25 35 36
f 25 36 32
f 29 37 38
f 29 38 39
f 29 39 40
f 29 40 41
f 29 41 42
f 29 42 43
f 29 43 44
f 29 44 45
f 29 45 30
f 33 46 34
f 34 46 48
f 34 48 49
f 34 49 50
f 34 50 51
f 34 51 52
f 34 52 47
f 37 53 38
f 38 53 39
f 39 53 54
f 39 54 55
f 39 55 40
f 40 55 56
f 40 56 57
f 40 57 58
f 40 58 41
f 41 58 42
f 42 59 43
f 42 58 59
f 47 52 60
f 47 60 61
f 53 62 54
f 54 56 55
f 54 62 63
f 54 63 58
f 54 58 56
f 56 58 57
f 60 64 65
f 60 65 66
f 60 66 67
f 60 67 61
f 62 68 69
f 62 69 63
f 64 70 71
f 64 71 65
f 68 72 69
f 69 73 74
f 69 74 75
f 69 75 76
f 69 76 77
f 69 72 78
f 69 78 73
f 70 79 80
f 70 80 71
f 74 81 75
f 74 82 83
f 74 83 84
f 74 84 85
f 74 85 81
f 75 81 86
f 75 86 76
f 76 86 87
f 76 87 108
f 76 108 88
f 76 88 77
f 77 88 89
f 79 90 80
f 80 90 91
f 80 91 92
f 80 92 93
f 80 93 94
f 81 85 86
f 82 95 96
f 82 96 97
f 82 97 98
f 82 98 83
f 83 98 99
f 83 99 100
f 83 100 101
f 83 101 102
f 83 102 84
f 84 102 103
f 84 103 85
f 85 103 104
f 85 104 105
f 85 105 106
f 85 106 86
f 86 106 107
f 86 107 87
f 87 107 108
f 88 108 109
f 88 109 89
f 89 109 110
f 93 111 112
f 93 112 94
f 95 113 114
f 95 114 96
f 96 114 115
f 96 115 97
f 97 115 116
f 97 116 117
f 97 117 118
f 97 118 98
f 98 118 119
f 98 119 120
f 98 120 100
f 98 100 99
f 100 120 101
f 101 120 102
f 102 121 122
f 102 122 105
f 102 105 104
f 102 104 103
f 105 122 107
f 105 107 106
f 107 122 123
f 107 123 108
f 108 123 109
f 109 123 122
f 109 122 121
f 109 121 124
f 109 124 110
f 111 125 126
f 111 126 127
f 111 127 112
f 113 128 129
f 113 129 130
f 113 130 131
f 113 131 114
f 114 132 115
f 114 131 132
f 115 132 116
f 116 132 133
f 116 133 134
f 116 134 117
f 117 135 118
f 117 134 135
f 118 135 120
f 118 120 119
f 120 135 136
f 120 136 137
f 125 138 126
f 126 138 139
f 128 140 141
f 128 141 142
f 128 142 130
f 128 130 129
f 130 142 143
f 130 143 144
f 130 144 131
f 131 144 132
f 132 144 133
f 133 144 143
f 133 143 145
f 133 145 146
f 133 146 134
f 134 146 135
f 135 147 136
f 135 146 148
f 135 148 147
f 136 147 137
f 137 149 150
f 137 147 149
f 138 151 152
f 138 152 153
f 138 153 139
f 139 153 154
f 140 155 156
f 140 156 141
f 141 156 142
f 142 156 143
f 143 157 145
f 143 156 155
f 143 155 158
f 143 158 159
f 143 159 160
f 143 160 157
f 145 157 161
f 145 161 147
f 145 147 148
f 145 148 146
f 147 161 162
f 147 162 149
f 149 162 163
f 149 163 150
f 150 163 164
f 151 165 152
f 151 166 167
f 151 167 165
f 152 168 153
f 152 165 169
f 152 169 168
f 153 168 170
f 153 170 154
f 154 170 171
f 154 171 172
f 155 173 174
f 155 174 175
f 155 175 158
f 157 160 176
f 157 176 177
f 157 177 178
f 157 178 162
f 157 162 161
f 158 175 179
f 158 179 159
f 159 179 180
f 159 180 160
f 160 180 205
f 160 205 176
f 162 178 163
f 163 181 164
f 163 178 182
f 163 182 183
f 163 183 181
f 165 167 184
f 165 184 185
f 165 185 186
f 165 186 187
f 165 187 188
f 165 188 169
f 166 189 167
f 167 189 190
f 167 190 184
f 168 191 170
f 168 169 192
f 168 192 193
f 168 193 191
f 169 188 194
f 169 194 195
f 169 195 233
f 169 233 192
f 170 191 196
f 170 196 197
f 170 197 198
f 170 198 171
f 171 198 172
f 172 198 199
f 173 200 201
f 173 201 202
f 173 202 203
f 173 203 174
f 174 203 204
f 174 204 175
f 175 204 179
f 176 205 206
f 176 206 177
f 177 206 207
f 177 207 208
f 177 208 209
f 177 209 182
f 177 182 178
f 179 204 180
f 180 204 203
f 180 203 202
f 180 202 210
f 180 210 211
f 180 211 212
f 180 212 256
f 180 256 213
f 180 213 214
f 180 214 205
f 182 209 215
f 182 215 216
f 182 216 183
f 183 216 217
f 184 190 218
f 184 218 219
f 184 219 220
f 184 220 221
f 184 221 222
f 184 222 185
f 185 222 223
f 185 223 186
f 186 223 266
f 186 266 224
f 186 224 225
f 186 225 226
f 186 226 227
f 186 227 228
f 186 228 187
f 187 228 188
f 188 228 229
f 188 229 194
f 189 230 190
f 190 230 231
f 190 231 218
f 191 193 232
f 191 232 196
f 192 233 193
f 193 233 234
f 193 234 232
f 194 229 195
f 195 229 233
f 196 235 197
f 196 232 236
f 196 236 235
f 197 235 198
f 198 235 237
f 198 237 238
f 198 238 239
f 198 239 199
f 200 240 201
f 201 240 241
f 201 241 242
f 201 242 210
f 201 210 202
f 205 214 243
f 205 243 244
f 205 244 245
f 205 245 246
f 205 246 247
f 205 247 248
f 205 248 207
f 205 207 206
f 207 248 208
f 208 249 250
f 208 250 209
f 208 248 249
f 210 242 251
f 210 251 211
f 211 252 253
f 211 253 254
f 211 254 212
f 211 251 252
f 212 254 255
f 212 255 256
f 213 256 243
f 213 243 214
f 215 217 216
f 218 231 257
f 218 257 258
f 218 258 259
f 218 259 220
f 218 220 219
f 220 259 260
f 220 260 261
f 220 261 262
f 220 262 263
f 220 263 264
f 220 264 265
f 220 265 222
f 220 222 221
f 222 265 264
f 222 264 223
f 223 264 266
f 224 266 299
f 224 299 267
f 224 267 225
f 225 267 268
f 225 268 226
f 226 268 269
f 226 269 227
f 227 269 228
f 228 269 229
f 229 270 271
f 229 271 234
f 229 234 233
f 229 269 272
f 229 272 273
f 229 273 274
f 229 274 270
f 232 234 271
f 232 271 236
f 235 236 275
f 235 275 237
f 236 271 275
f 237 275 239
f 237 239 238
f 239 275 276
f 239 276 277
f 240 278 279
f 240 279 241
f 241 279 242
f 242 279 251
f 243 256 280
f 243 280 281
f 243 281 282
f 243 282 283
f 243 283 284
f 243 284 244
f 244 284 285
f 244 285 245
f 245 286 246
f 245 285 286
f 246 286 287
f 246 287 247
f 247 287 288
f 247 288 248
f 248 289 249
f 249 289 250
f 251 279 290
f 251 290 291
f 251 291 252
f 253 292 254
f 254 292 293
f 254 293 255
f 255 293 256
f 256 293 280
f 258 294 295
f 258 295 259
f 259 295 296
f 259 296 260
f 260 296 297
f 260 297 298
f 260 298 261
f 261 263 262
f 261 298 263
f 263 299 266
f 263 266 264
f 263 298 300
f 263 300 301
f 263 301 302
f 263 302 303
f 263 303 299
f 267 299 268
f 268 303 269
f 268 299 303
f 269 304 272
f 269 303 302
f 269 302 304
f 271 305 275
f 272 304 302
f 272 302 306
f 272 306 307
f 272 307 308
f 272 308 309
f 272 309 273
f 275 305 276
f 276 305 277
f 278 291 279
f 279 291 290
f 280 310 334
f 280 334 311
f 280 311 313
f 280 313 281
f 280 293 310
f 281 312 282
f 281 313 338
f 281 338 314
f 281 314 312
f 282 312 315
f 282 315 283
f 283 315 316
f 283 316 284
f 284 317 285
f 285 317 286
f 286 318 287
f 287 318 288
f 292 319 320
f 292 320 321
f 292 321 293
f 293 321 310
f 294 322 323
f 294 323 295
f 295 323 296
f 296 323 297
f 297 324 298
f 297 323 322
f 297 322 324
f 298 325 300
f 298 324 326
f 298 326 327
f 298 327 328
f 298 328 329
f 298 329 325
f 300 306 302
f 300 302 301
f 300 325 330
f 300 330 331
f 300 331 306
f 306 331 307
f 307 332 333
f 307 333 308
f 307 331 330
f 307 330 332
f 310 321 320
f 310 320 319
f 310 319 334
f 311 334 335
f 311 335 313
f 312 314 336
f 313 335 337
f 313 337 338
f 314 338 336
f 319 339 334
f 322 326 324
f 325 340 341
f 325 341 342
f 325 342 343
f 325 343 330
f 325 329 344
f 325 344 340
f 326 345 327
f 327 345 328
f 328 345 346
f 328 346 347
f 328 347 348
f 328 348 349
f 328 349 329
f 329 349 350
f 329 350 344
f 330 343 332
f 332 343 351
f 334 352 353
f 334 353 354
f 334 354 335
f 334 339 352
f 335 354 355
f 335 355 356
f 335 356 357
f 335 357 337
f 336 338 358
f 336 358 359
f 337 360 361
f 337 361 359
f 337 359 358
f 337 358 338
f 337 357 362
f 337 362 360
f 340 344 341
f 341 351 342
f 341 344 363
f 341 363 364
f 342 351 343
f 344 350 363
f 346 365 366
f 346 366 367
f 346 367 368
f 346 368 347
f 347 368 348
f 348 369 349
f 348 368 370
f 348 370 371
f 348 371 372
f 348 372 373
f 348 373 374
f 348 374 375
f 348 375 376
f 348 376 369
f 349 369 376
f 349 376 377
f 349 377 350
f 350 378 379
f 350 379 380
f 350 380 363
f 350 377 381
f 350 381 382
f 350 382 378
f 352 383 384
f 352 384 353
f 352 385 383
f 353 384 354
f 354 384 383
f 354 383 386
f 354 386 387
f 354 387 355
f 355 387 388
f 355 388 389
f 355 389 390
f 355 390 391
f 355 391 356
f 356 391 357
f 357 391 392
f 357 392 362
f 360 393 361
f 360 362 392
f 360 392 394
f 360 394 395
f 360 395 393
f 363 380 364
f 364 380 379
f 364 379 396
f 365 397 366
f 366 397 398
f 366 398 370
f 366 370 367
f 367 370 368
f 370 398 399
f 370 399 371
f 371 399 400
f 371 400 372
f 372 400 373
f 373 400 401
f 373 401 402
f 373 402 374
f 374 402 403
f 374 403 404
f 374 404 405
f 374 405 375
f 375 405 406
f 375 406 407
f 375 407 376
f 376 407 406
f 376 406 408
f 376 408 377
f 377 408 409
f 377 409 410
f 377 410 381
f 378 382 411
f 378 411 379
f 379 411 412
f 379 412 396
f 381 410 382
f 382 413 411
f 382 410 414
f 382 414 413
f 383 385 415
f 383 415 386
f 385 416 417
f 385 417 415
f 386 415 418
f 386 418 387
f 387 418 419
f 387 419 420
f 387 420 388
f 388 420 421
f 388 421 422
f 388 422 389
f 389 423 424
f 389 424 425
f 389 425 426
f 389 426 390
f 389 422 423
f 390 426 427
f 390 427 428
f 390 428 391
f 391 428 392
f 392 428 429
f 392 429 394
f 394 429 430
f 399 401 400
f 402 431 403
f 403 431 432
f 403 432 404
f 404 432 433
f 404 433 406
f 404 406 405
f 406 433 434
f 406 434 435
f 406 435 408
f 408 435 410
f 408 410 409
f 410 435 436
f 410 436 437
f 410 437 438
f 410 438 439
f 410 439 414
f 411 413 439
f 413 414 439
f 415 417 418
f 416 440 417
f 416 441 440
f 417 440 418
f 418 440 441
f 418 441 419
f 419 441 420
f 420 441 442
f 420 442 421
f 421 441 443
f 421 443 422
f 421 442 441
f 422 443 444
f 422 444 445
f 422 445 423
f 423 446 424
f 423 445 446
f 424 446 447
f 424 447 448
f 424 448 449
f 424 449 450
f 424 450 451
f 424 451 452
f 424 452 425
f 425 452 453
f 425 453 454
f 425 454 455
f 425 455 426
f 426 456 457
f 426 457 427
f 426 455 456
f 427 458 428
f 427 457 459
f 427 459 460
f 427 460 461
f 427 461 462
f 427 462 458
f 428 458 463
f 428 463 464
f 428 464 429
f 429 464 465
f 429 465 430
f 430 465 466
f 432 467 468
f 432 468 469
f 432 469 470
f 432 470 433
f 433 470 434
f 434 470 471
f 434 471 472
f 434 472 473
f 434 473 474
f 434 474 475
f 434 475 435
f 435 475 436
f 436 476 477
f 436 477 437
f 436 475 478
f 436 478 479
f 436 479 476
f 437 480 438
f 437 477 480
f 438 480 481
f 438 481 439
f 441 444 443
f 449 482 450
f 450 482 451
f 451 482 453
f 451 453 452
f 453 482 483
f 453 483 484
f 453 484 485
f 453 485 454
f 454 485 486
f 454 486 455
f 455 486 487
f 455 487 488
f 455 488 489
f 455 489 490
f 455 490 456
f 456 490 457
f 457 491 460
f 457 460 459
f 457 490 489
f 457 489 492
f 457 492 491
f 458 462 493
f 458 493 463
f 460 491 461
f 461 491 493
f 461 493 462
f 463 494 495
f 463 495 465
f 463 465 464
f 463 493 494
f 465 495 466
f 466 495 494
f 467 496 468
f 468 496 473
f 468 473 469
f 469 473 472
f 469 472 471
f 469 471 470
f 473 496 497
f 473 497 474
f 474 498 499
f 474 499 475
f 474 497 498
f 475 499 489
f 475 489 488
f 475 488 485
f 475 485 500
f 475 500 501
f 475 501 478
f 476 479 478
f 476 478 502
f 476 502 503
f 476 503 477
f 477 503 480
f 478 501 504
f 482 505 483
f 483 505 506
f 483 506 507
f 483 507 508
f 483 508 484
f 484 508 509
f 484 509 485
f 485 509 510
f 485 510 500
f 485 488 487
f 485 487 486
f 489 499 492
f 491 492 511
f 492 499 498
f 492 498 512
f 492 512 511
f 497 513 514
f 497 514 498
f 498 514 513
f 498 513 515
f 498 515 516
f 498 516 517
f 498 517 512
f 500 510 501
f 501 510 504
f 504 510 509
f 507 509 508
f 511 512 518
f 512 517 519
f 512 519 518
f 516 519 517

