# https://github.com/mikedh/trimesh
v 0.00165951 -0.00002509 -0.05853980
v 0.00165951 -0.00002509 -0.05864566
v 0.00152571 -0.00002509 -0.05851820
v 0.00324389 -0.00629361 -0.05801829
v 0.00324389 -0.00644445 -0.05901259
v 0.00324389 -0.00651445 -0.05930103
v 0.00124752 -0.00002509 -0.05892694
v 0.00124752 -0.00002509 -0.05847551
v 0.00324389 -0.00730114 -0.05801829
v 0.00088454 -0.00002509 -0.05844587
v -0.00644918 -0.00002509 -0.05801829
v 0.00037982 -0.00002509 -0.05916164
v 0.00324389 -0.00754781 -0.05930103
v -0.00641474 -0.00002509 -0.05930103
v 0.00279216 -0.00781532 -0.05930103
v 0.00324389 -0.00731364 -0.05808020
v 0.00296570 -0.00742448 -0.05801829
v 0.00084083 -0.00853868 -0.05852423
v 0.00257093 -0.00770615 -0.05839024
v -0.00812630 -0.00002509 -0.05801829
v 0.00324389 -0.00745614 -0.05881845
v -0.00922583 -0.00002509 -0.05930103
v 0.00205958 -0.00804366 -0.05930103
v 0.00084083 -0.00853868 -0.05871096
v 0.00287429 -0.00746198 -0.05801829
v 0.00269678 -0.00752948 -0.05801829
v 0.00218941 -0.00772199 -0.05801829
v 0.00132965 -0.00802699 -0.05801829
v 0.00117333 -0.00805200 -0.05801829
v 0.00059840 -0.00809533 -0.05801829
v 0.00042089 -0.00810783 -0.05801829
v 0.00073750 -0.00853868 -0.05852423
v -0.01028959 -0.00002509 -0.05850828
v -0.00811040 -0.00053177 -0.05801829
v -0.00915959 -0.00053093 -0.05930103
v -0.00950667 -0.00002509 -0.05918939
v 0.00118261 -0.00828950 -0.05930103
v 0.00073750 -0.00853868 -0.05871096
v 0.00009898 -0.00836367 -0.05930103
v -0.00129597 -0.00788449 -0.05801829
v -0.00191992 -0.00773115 -0.05801829
v -0.00128670 -0.00818533 -0.05930103
v -0.00774080 -0.00222515 -0.05801829
v -0.00805079 -0.00138679 -0.05801829
v -0.00806536 -0.00124346 -0.05801829
v -0.01028959 -0.00002509 -0.05878027
v -0.01020083 -0.00017259 -0.05851983
v -0.00641474 -0.00468523 -0.05801829
v -0.00649820 -0.00455939 -0.05801829
v -0.00670353 -0.00424188 -0.05801829
v -0.00687045 -0.00395104 -0.05801829
v -0.00691284 -0.00387520 -0.05801829
v -0.00912382 -0.00062010 -0.05930103
v -0.01011605 -0.00002509 -0.05887697
v -0.00281809 -0.00775199 -0.05930103
v -0.00256374 -0.00783366 -0.05930103
v -0.00217824 -0.00794199 -0.05930103
v -0.00297971 -0.00736197 -0.05801829
v -0.01020083 -0.00017259 -0.05873017
v -0.00687575 -0.00457439 -0.05930103
v -0.00664127 -0.00497440 -0.05930103
v -0.00601202 -0.00524024 -0.05801829
v -0.00605044 -0.00518774 -0.05801829
v -0.00386993 -0.00703697 -0.05801829
v -0.00337183 -0.00754281 -0.05930103
v -0.00624518 -0.00540775 -0.05930103
v -0.00556161 -0.00565692 -0.05801829
v -0.00425543 -0.00684113 -0.05801829
v -0.00381959 -0.00737281 -0.05930103
v -0.00596036 -0.00567026 -0.05930103
v -0.00513902 -0.00604443 -0.05801829
v -0.00430974 -0.00688863 -0.05833185
v -0.00462503 -0.00651028 -0.05801829
v -0.00446076 -0.00702613 -0.05930103
v -0.00471908 -0.00679446 -0.05930103
v -0.00483168 -0.00660278 -0.05897780
v -0.00508603 -0.00609277 -0.05801829
v -0.00441174 -0.00697946 -0.05897780
f 1 2 7
f 1 7 12
f 1 12 14
f 1 14 22
f 1 22 36
f 1 36 54
f 1 54 46
f 1 46 33
f 1 33 20
f 1 20 11
f 1 11 10
f 1 10 8
f 1 8 3
f 1 3 4
f 1 4 2
f 2 4 5
f 2 5 6
f 2 6 7
f 3 8 4
f 4 9 16
f 4 16 21
f 4 21 13
f 4 13 6
f 4 6 5
f 4 8 10
f 4 10 11
f 4 11 20
f 4 20 34
f 4 34 45
f 4 45 44
f 4 44 43
f 4 43 52
f 4 52 51
f 4 51 50
f 4 50 49
f 4 49 48
f 4 48 63
f 4 63 62
f 4 62 67
f 4 67 71
f 4 71 77
f 4 77 73
f 4 73 68
f 4 68 64
f 4 64 58
f 4 58 41
f 4 41 40
f 4 40 31
f 4 31 30
f 4 30 29
f 4 29 28
f 4 28 27
f 4 27 26
f 4 26 25
f 4 25 17
f 4 17 9
f 6 12 7
f 6 13 15
f 6 15 23
f 6 23 37
f 6 37 39
f 6 39 42
f 6 42 57
f 6 57 56
f 6 56 55
f 6 55 65
f 6 65 69
f 6 69 74
f 6 74 75
f 6 75 70
f 6 70 66
f 6 66 61
f 6 61 60
f 6 60 53
f 6 53 35
f 6 35 22
f 6 22 14
f 6 14 12
f 9 15 16
f 9 17 18
f 9 18 19
f 9 19 15
f 13 21 15
f 15 21 16
f 15 19 18
f 15 18 24
f 15 24 23
f 17 25 18
f 18 25 26
f 18 26 27
f 18 27 28
f 18 28 29
f 18 29 30
f 18 30 31
f 18 31 32
f 18 32 38
f 18 38 24
f 20 33 34
f 22 35 36
f 23 24 37
f 24 38 39
f 24 39 37
f 31 40 32
f 32 40 41
f 32 41 42
f 32 42 38
f 33 43 44
f 33 44 45
f 33 45 34
f 33 46 59
f 33 59 47
f 33 47 48
f 33 48 49
f 33 49 50
f 33 50 51
f 33 51 52
f 33 52 43
f 35 53 46
f 35 46 54
f 35 54 36
f 38 42 39
f 41 55 56
f 41 56 57
f 41 57 42
f 41 58 55
f 46 53 60
f 46 60 61
f 46 61 59
f 47 61 62
f 47 62 63
f 47 63 48
f 47 59 61
f 55 58 64
f 55 64 65
f 61 66 62
f 62 66 67
f 64 68 69
f 64 69 65
f 66 70 67
f 67 70 71
f 68 72 69
f 68 73 72
f 69 72 74
f 70 75 76
f 70 76 77
f 70 77 71
f 72 78 74
f 72 73 77
f 72 77 76
f 72 76 78
f 74 78 75
f 75 78 76

