# https://github.com/mikedh/trimesh
v 0.00121913 0.00793029 -0.05929011
v 0.00121913 0.00791472 -0.05897785
v 0.00153129 0.00790381 -0.05929011
v -0.00045953 0.00791472 -0.05929011
v -0.00045953 0.00791705 -0.05897785
v 0.00037903 0.00782594 -0.05813819
v 0.00205922 0.00783684 -0.05897785
v -0.00045953 0.00786410 -0.05813819
v 0.00205922 0.00785476 -0.05929011
v -0.00129962 0.00787890 -0.05929011
v -0.00213972 0.00783061 -0.05929011
v 0.00037903 0.00780102 -0.05801817
v 0.00025968 0.00780725 -0.05801817
v 0.00198730 0.00760557 -0.05814143
v 0.00259021 0.00752614 -0.05842355
v 0.00271569 0.00757753 -0.05897785
v 0.00238516 0.00774807 -0.05929011
v 0.00109977 0.00772004 -0.05801817
v -0.00213972 0.00778779 -0.05897785
v -0.00129962 0.00775819 -0.05813819
v -0.00045953 0.00783918 -0.05801817
v -0.00298440 0.00767954 -0.05929011
v 0.00185264 0.00758766 -0.05801817
v 0.00198730 0.00754950 -0.05801817
v 0.00288401 0.00719908 -0.05801817
v 0.00372869 0.00680349 -0.05801817
v 0.00374859 0.00680972 -0.05808764
v 0.00374859 0.00702153 -0.05897785
v 0.00374859 0.00709161 -0.05929011
v 0.00372257 0.00710563 -0.05929011
v 0.00279832 0.00758454 -0.05929011
v -0.00212441 0.00757130 -0.05801817
v -0.00140521 0.00771381 -0.05801817
v -0.00130880 0.00773172 -0.05801817
v -0.00343888 0.00751523 -0.05929011
v -0.00346489 0.00749810 -0.05926022
v -0.00298746 0.00759544 -0.05897934
v 0.00374859 0.00679025 -0.05801817
v 0.00374859 0.00599985 -0.05929011
v -0.00271355 0.00750433 -0.05838545
v -0.00280689 0.00730732 -0.05801817
v -0.00347101 0.00750355 -0.05929011
v -0.00380919 0.00680660 -0.05801817
v -0.00327361 0.00739453 -0.05870045
v -0.01188418 0.00164137 -0.05851245
v -0.00462174 0.00627552 -0.05801817
v 0.00374859 0.00565332 -0.05801817
v 0.00374859 0.00568058 -0.05813819
v 0.00165830 -0.00002509 -0.05864567
v 0.00124667 -0.00002509 -0.05892693
v 0.00037903 -0.00002509 -0.05916162
v -0.00636926 -0.00002275 -0.05929011
v -0.00298746 0.00723723 -0.05801817
v -0.00578012 0.00583087 -0.05929011
v -0.01188418 0.00164137 -0.05875772
v -0.00306244 0.00720063 -0.05801817
v -0.01188418 0.00142255 -0.05851245
v -0.00813666 0.00030976 -0.05801817
v -0.00809382 0.00114922 -0.05801817
v -0.00793774 0.00194040 -0.05801817
v -0.00759803 0.00282891 -0.05801817
v -0.00714355 0.00370653 -0.05801817
v -0.00706092 0.00381321 -0.05801817
v -0.00561486 0.00544151 -0.05801817
v -0.00551998 0.00554041 -0.05801817
v -0.00519557 0.00586825 -0.05801817
v 0.00088554 -0.00002509 -0.05844584
v 0.00124667 -0.00002509 -0.05847547
v 0.00152517 -0.00002509 -0.05851818
v 0.00165830 -0.00002509 -0.05853972
v -0.00644883 -0.00002509 -0.05801817
v -0.00635089 -0.00002509 -0.05928562
v -0.00673957 -0.00002509 -0.05929011
v -0.00589183 0.00573898 -0.05929011
v -0.00838303 0.00317700 -0.05929011
v -0.01137615 0.00174961 -0.05885870
v -0.01053606 0.00114922 -0.05916162
v -0.01138074 0.00114533 -0.05891933
v -0.01188418 0.00142255 -0.05875772
v -0.01110377 0.00063215 -0.05851208
v -0.00812595 -0.00002509 -0.05801817
v -0.00923231 -0.00002509 -0.05929011
v -0.00864011 0.00286318 -0.05929011
v -0.00874569 0.00271989 -0.05929011
v -0.00918028 0.00198946 -0.05929011
v -0.00918487 0.00196843 -0.05929011
v -0.00933636 0.00045928 -0.05929011
v -0.00934554 0.00030976 -0.05929011
v -0.01050392 0.00033546 -0.05890277
v -0.01110377 0.00063215 -0.05875922
v -0.00950622 -0.00002509 -0.05918938
v -0.01028816 -0.00002509 -0.05850822
v -0.01011678 -0.00002509 -0.05887700
v -0.01028816 -0.00002509 -0.05878026
f 1 2 3
f 1 3 9
f 1 9 17
f 1 17 31
f 1 31 30
f 1 30 29
f 1 29 39
f 1 39 52
f 1 52 73
f 1 73 82
f 1 82 88
f 1 88 87
f 1 87 86
f 1 86 85
f 1 85 84
f 1 84 83
f 1 83 75
f 1 75 74
f 1 74 54
f 1 54 42
f 1 42 35
f 1 35 22
f 1 22 11
f 1 11 10
f 1 10 4
f 1 4 5
f 1 5 2
f 2 6 7
f 2 7 3
f 2 5 8
f 2 8 6
f 3 7 9
f 4 10 5
f 5 10 11
f 5 11 8
f 6 12 7
f 6 8 13
f 6 13 12
f 7 14 15
f 7 15 16
f 7 16 17
f 7 17 9
f 7 12 18
f 7 18 14
f 8 11 19
f 8 19 20
f 8 20 21
f 8 21 13
f 11 22 19
f 12 13 21
f 12 21 34
f 12 34 33
f 12 33 32
f 12 32 41
f 12 41 53
f 12 53 56
f 12 56 43
f 12 43 46
f 12 46 66
f 12 66 65
f 12 65 64
f 12 64 63
f 12 63 62
f 12 62 61
f 12 61 60
f 12 60 59
f 12 59 58
f 12 58 81
f 12 81 71
f 12 71 47
f 12 47 38
f 12 38 26
f 12 26 25
f 12 25 24
f 12 24 23
f 12 23 18
f 14 18 23
f 14 23 24
f 14 24 15
f 15 24 25
f 15 25 26
f 15 26 27
f 15 27 28
f 15 28 29
f 15 29 30
f 15 30 16
f 16 31 17
f 16 30 31
f 19 32 33
f 19 33 34
f 19 34 20
f 19 22 32
f 20 34 21
f 22 35 36
f 22 36 37
f 22 37 32
f 26 38 27
f 27 38 47
f 27 47 48
f 27 48 39
f 27 39 29
f 27 29 28
f 32 37 40
f 32 40 41
f 35 42 36
f 36 43 44
f 36 44 37
f 36 42 45
f 36 45 46
f 36 46 43
f 37 44 40
f 39 48 49
f 39 49 50
f 39 50 51
f 39 51 52
f 40 44 53
f 40 53 41
f 42 54 55
f 42 55 45
f 43 56 44
f 44 56 53
f 45 55 79
f 45 79 57
f 45 57 58
f 45 58 59
f 45 59 60
f 45 60 61
f 45 61 62
f 45 62 63
f 45 63 64
f 45 64 65
f 45 65 66
f 45 66 46
f 47 67 68
f 47 68 69
f 47 69 70
f 47 70 49
f 47 49 48
f 47 71 67
f 49 70 69
f 49 69 68
f 49 68 67
f 49 67 71
f 49 71 81
f 49 81 92
f 49 92 94
f 49 94 93
f 49 93 91
f 49 91 82
f 49 82 73
f 49 73 72
f 49 72 51
f 49 51 50
f 51 72 52
f 52 72 73
f 54 74 55
f 55 75 76
f 55 76 77
f 55 77 78
f 55 78 79
f 55 74 75
f 57 79 90
f 57 90 80
f 57 80 81
f 57 81 58
f 75 83 76
f 76 83 77
f 77 83 84
f 77 84 85
f 77 85 86
f 77 86 87
f 77 87 88
f 77 88 82
f 77 82 78
f 78 89 90
f 78 90 79
f 78 82 91
f 78 91 89
f 80 90 94
f 80 94 92
f 80 92 81
f 89 93 94
f 89 94 90
f 89 91 93

