# https://github.com/mikedh/trimesh
v -0.00319593 0.00760294 -0.05929076
v -0.00319593 0.00768169 -0.05958546
v -0.00341097 0.00829162 -0.06189324
v -0.00419903 0.00827149 -0.06278518
v -0.00343826 0.00751543 -0.05929076
v -0.00319593 0.00596567 -0.05929076
v -0.00319593 0.00829337 -0.06188211
v -0.00319593 0.00866440 -0.06401635
v -0.00381897 0.00865040 -0.06401635
v -0.00434586 0.00837038 -0.06334510
v -0.00347074 0.00750318 -0.05929076
v -0.00578099 0.00583091 -0.05929076
v -0.00319593 0.00807023 -0.06597967
v -0.00636960 -0.00002246 -0.05929076
v -0.00319593 0.00891467 -0.06597967
v -0.00381897 0.00876503 -0.06485590
v -0.00465835 0.00884904 -0.06597967
v -0.00503581 0.00868015 -0.06597967
v -0.00532752 0.00854539 -0.06597967
v -0.00591613 0.00576528 -0.05940340
v -0.00589209 0.00573903 -0.05929076
v -0.00889100 -0.00002509 -0.06597967
v -0.00673927 -0.00002509 -0.05929076
v -0.00673472 -0.00002509 -0.05937786
v -0.00341812 0.00891117 -0.06597967
v -0.00816596 0.00583529 -0.06597967
v -0.00764427 0.00581778 -0.06429075
v -0.00678215 0.00579241 -0.06183823
v -0.00838425 0.00317681 -0.05929076
v -0.00979015 -0.00002509 -0.06597967
v -0.00923273 -0.00002509 -0.05929076
v -0.00835956 0.00557539 -0.06597967
v -0.00864087 0.00286353 -0.05929076
v -0.00934577 0.00031007 -0.05929076
v -0.00983238 0.00114926 -0.06597967
v -0.00942114 0.00351634 -0.06597967
v -0.00918011 0.00198933 -0.05929076
v -0.00874547 0.00272002 -0.05929076
v -0.00933668 0.00045970 -0.05929076
v -0.00980770 0.00201034 -0.06597967
v -0.00982394 0.00164456 -0.06597967
v -0.00953873 0.00322494 -0.06597967
v -0.00967451 0.00282941 -0.06597967
v -0.00918530 0.00196833 -0.05929076
v -0.00971999 0.00257301 -0.06597967
f 1 2 3
f 1 3 4
f 1 4 5
f 1 5 11
f 1 11 12
f 1 12 21
f 1 21 29
f 1 29 33
f 1 33 38
f 1 38 37
f 1 37 44
f 1 44 39
f 1 39 34
f 1 34 31
f 1 31 23
f 1 23 14
f 1 14 6
f 1 6 13
f 1 13 15
f 1 15 8
f 1 8 7
f 1 7 2
f 2 7 3
f 3 7 8
f 3 8 9
f 3 9 10
f 3 10 4
f 4 11 5
f 4 10 12
f 4 12 11
f 6 14 13
f 8 15 16
f 8 16 9
f 9 16 17
f 9 17 10
f 10 17 18
f 10 18 19
f 10 19 12
f 12 20 21
f 12 19 20
f 13 14 22
f 13 22 30
f 13 30 35
f 13 35 41
f 13 41 40
f 13 40 45
f 13 45 43
f 13 43 42
f 13 42 36
f 13 36 32
f 13 32 26
f 13 26 19
f 13 19 18
f 13 18 17
f 13 17 25
f 13 25 15
f 14 23 24
f 14 24 22
f 15 25 16
f 16 25 17
f 19 26 27
f 19 27 28
f 19 28 20
f 20 28 29
f 20 29 21
f 22 24 23
f 22 23 31
f 22 31 30
f 26 32 33
f 26 33 29
f 26 29 27
f 27 29 28
f 30 31 34
f 30 34 35
f 32 36 37
f 32 37 38
f 32 38 33
f 34 39 40
f 34 40 41
f 34 41 35
f 36 42 37
f 37 42 43
f 37 43 44
f 39 44 40
f 40 44 45
f 43 45 44

