# https://github.com/mikedh/trimesh
v -0.01510317 -0.02423412 0.02241372
v -0.01699258 -0.02423412 0.02504591
v -0.01510317 -0.04698178 0.02191430
v -0.01510317 -0.02423412 -0.02164026
v -0.01828261 -0.02423412 0.02663228
v -0.01825483 -0.02698971 0.02668515
v -0.01829452 -0.02901422 0.02663815
v -0.02048163 -0.04364977 0.02802475
v -0.02063644 -0.04698178 0.02796012
v -0.01510317 -0.05038409 0.02119163
v -0.01510317 -0.02497574 -0.02165201
v -0.01793728 -0.04032127 -0.02733356
v -0.01796903 -0.03698574 -0.02728068
v -0.01804842 -0.03032172 -0.02717492
v -0.01813574 -0.02423412 -0.02708091
v -0.02005294 -0.02423412 0.02803650
v -0.02005294 -0.02698971 0.02811288
v -0.02032286 -0.04032127 0.02803650
v -0.02338322 -0.04364977 0.02963462
v -0.02364123 -0.04703801 0.02965812
v -0.02117230 -0.05031379 0.02728445
v -0.01510317 -0.05202197 0.02000479
v -0.02165656 -0.05201495 0.02660877
v -0.01510317 -0.02698971 -0.02166964
v -0.02005294 -0.04364977 -0.02851452
v -0.02005294 -0.04032127 -0.02863203
v -0.02005294 -0.02423412 -0.02840876
v -0.01971158 -0.02423412 -0.02817962
v -0.01510317 -0.03032172 -0.02168727
v -0.01510317 -0.04364977 -0.02171077
v -0.01510317 -0.04486588 -0.02164026
v -0.01510317 -0.04698178 -0.02151688
v -0.01808018 -0.04364977 -0.02718080
v -0.02338322 -0.02423412 0.02928797
v -0.02338322 -0.04032127 0.02959937
v -0.02492333 -0.04818735 0.02985201
v -0.02492333 -0.04871808 0.02985201
v -0.02364123 -0.05002558 0.02869455
v -0.03475937 -0.06013760 0.02026331
v -0.03473556 -0.06013760 0.02015168
v -0.03446564 -0.06013760 0.01817753
v -0.01510317 -0.05207118 0.01900009
v -0.02338322 -0.05208524 0.02687317
v -0.03671229 -0.06013760 0.02119750
v -0.01987035 -0.04683416 -0.02795635
v -0.02338322 -0.04698178 -0.02962497
v -0.02280767 -0.02423412 -0.02944283
v -0.02338322 -0.04364977 -0.02967785
v -0.02338322 -0.02423412 -0.02964847
v -0.01510317 -0.04799052 -0.02123486
v -0.01828658 -0.04562507 -0.02694578
v -0.03671229 -0.04698178 0.02976388
v -0.03177442 -0.04863724 0.02984026
v -0.02671747 -0.04812408 0.02985789
v -0.04671107 -0.02423412 0.02910583
v -0.02671747 -0.04872862 0.02985789
v -0.02671747 -0.05039815 0.02877093
v -0.01510317 -0.05220474 0.01484029
v -0.01510317 -0.05210984 0.01817753
v -0.03446167 -0.06013760 0.01799539
v -0.01510317 -0.05245781 0.00312468
v -0.01510317 -0.05241914 0.00645605
v -0.01510317 -0.05234182 0.00978742
v -0.03918916 -0.06013760 0.02079797
v -0.04337682 -0.05031379 0.02883556
v -0.04671107 -0.05221529 0.02714344
v -0.04891009 -0.05214851 0.02687904
v -0.02102146 -0.05031379 -0.02754507
v -0.02338322 -0.05031379 -0.02839701
v -0.02671747 -0.04698178 -0.02980124
v -0.02671747 -0.04364977 -0.02991287
v -0.02671747 -0.02423412 -0.02977774
v -0.01510317 -0.04941401 -0.02067669
v -0.01863588 -0.04784641 -0.02629361
v -0.04337682 -0.04698178 0.02968750
v -0.03177442 -0.04865130 0.02984026
v -0.05009692 -0.02423412 0.02779561
v -0.04671107 -0.02698971 0.02915871
v -0.03004776 -0.04867942 0.02984614
v -0.03445770 -0.06013760 0.01484029
v -0.03445373 -0.06013760 0.01133265
v -0.03444579 -0.06013760 0.00150893
v -0.01510317 -0.05245781 0.00150893
v -0.03932809 -0.06013760 0.02077447
v -0.04671107 -0.05031379 0.02860642
v -0.04952137 -0.05031379 0.02744309
v -0.05118849 -0.05031379 0.02606236
v -0.05201412 -0.05223637 0.02381794
v -0.01510317 -0.05022592 -0.02018903
v -0.02164862 -0.05201846 -0.02691053
v -0.02338322 -0.05205712 -0.02701041
v -0.03671229 -0.06013760 -0.02146400
v -0.02671747 -0.05031379 -0.02854977
v -0.03004776 -0.04698178 -0.02983649
v -0.03004776 -0.04364977 -0.02996575
v -0.03004776 -0.05031379 -0.02860852
v -0.04493280 -0.03774142 -0.03015376
v -0.04337682 -0.02423412 -0.02994812
v -0.04671107 -0.03365373 0.02926447
v -0.04671107 -0.03698574 0.02930559
v -0.04671107 -0.04032127 0.02934672
v -0.04671107 -0.04698178 0.02941136
v -0.05000563 -0.03032172 0.02784262
v -0.05174023 -0.02423412 0.02653827
v -0.03446960 -0.06013760 -0.01847928
v -0.01510317 -0.05244024 -0.00020082
v -0.04030454 -0.06013760 0.01817753
v -0.04987067 -0.04698178 0.02782499
v -0.05153780 -0.04698178 0.02633263
v -0.05243487 -0.05031379 0.02439374
v -0.05333591 -0.05031379 0.02150890
v -0.05217289 -0.05237696 0.02150890
v -0.01510317 -0.05149827 -0.01840878
v -0.01510317 -0.05204306 -0.01758622
v -0.03475937 -0.06013760 -0.02055918
v -0.03685122 -0.06013760 -0.02144637
v -0.04871956 -0.05221529 -0.02713379
v -0.04671107 -0.05231722 -0.02728655
v -0.03338200 -0.04698178 -0.02983061
v -0.04355941 -0.04359001 -0.03009501
v -0.04479387 -0.04243717 -0.03015964
v -0.03338200 -0.04364977 -0.03000100
v -0.03338200 -0.05031379 -0.02860852
v -0.04477403 -0.04032127 -0.03016552
v -0.04506379 -0.03774142 -0.03015376
v -0.04613155 -0.02423412 -0.02967198
v -0.04993815 -0.03698574 0.02785437
v -0.04991433 -0.04032127 0.02784849
v -0.04989052 -0.04364977 0.02784262
v -0.05392337 -0.02423412 0.02433498
v -0.05505067 -0.02550647 0.02318927
v -0.01510317 -0.05211687 -0.01514791
v -0.01510317 -0.05242266 -0.00181656
v -0.05218480 -0.05240157 0.01817753
v -0.05219671 -0.05242266 0.01484029
v -0.05220465 -0.05244024 0.01150892
v -0.05221258 -0.05245429 0.00817755
v -0.04033233 -0.06013760 0.01484029
v -0.05275242 -0.04698178 0.02466988
v -0.05424886 -0.04698178 0.02150890
v -0.05531661 -0.04593437 0.01760761
v -0.05351453 -0.05031379 0.01817753
v -0.03932412 -0.06013760 -0.02105272
v -0.04895375 -0.05234533 -0.02514790
v -0.05177199 -0.05204306 -0.01075897
v -0.05019219 -0.05031379 -0.02514790
v -0.04916413 -0.05031379 -0.02755095
v -0.04671107 -0.05031379 -0.02840288
v -0.03937572 -0.06013760 -0.02091759
v -0.04030058 -0.06013760 -0.01847928
v -0.04337682 -0.05031379 -0.02853214
v -0.04004257 -0.05031379 -0.02856739
v -0.03671229 -0.05031379 -0.02859090
v -0.04004257 -0.04698178 -0.02977774
v -0.04508761 -0.04243717 -0.03015964
v -0.04337682 -0.04698178 -0.02972486
v -0.04509158 -0.04032127 -0.03016552
v -0.04671107 -0.02423412 -0.02960147
v -0.05505067 -0.02423412 0.02318927
v -0.05461007 -0.04032127 0.02192605
v -0.05531661 -0.03365373 0.02078035
v -0.05528089 -0.03698574 0.02055120
v -0.05518563 -0.04032127 0.02026331
v -0.05462198 -0.04395555 0.02128563
v -0.05220862 -0.05246835 0.00484618
v -0.04033233 -0.06013760 -0.01497165
v -0.05503876 -0.04527008 0.01982853
v -0.05565401 -0.04364977 0.01484029
v -0.05532852 -0.04605739 0.01484029
v -0.05469740 -0.04772691 0.01484029
v -0.05542775 -0.04395555 0.01850068
v -0.05351850 -0.05031379 0.01484029
v -0.05234754 -0.05031379 -0.00847930
v -0.05200221 -0.05049656 -0.01184592
v -0.05176008 -0.04891491 -0.01732770
v -0.05155367 -0.05173025 -0.01297988
v -0.05187519 -0.05214148 -0.00847930
v -0.05091064 -0.04698178 -0.02514790
v -0.04945389 -0.04698178 -0.02778597
v -0.04671107 -0.04698178 -0.02921957
v -0.05216893 -0.05244024 0.00150893
v -0.05208557 -0.05235939 -0.00181656
v -0.05199427 -0.05225747 -0.00514793
v -0.04640146 -0.04359001 -0.02956622
v -0.04675870 -0.04032127 -0.02947221
v -0.04671107 -0.02698971 -0.02958385
v -0.05027951 -0.02423412 -0.02780359
v -0.05507052 -0.02423412 0.02290138
v -0.05559050 -0.03698574 0.01817753
v -0.05559050 -0.04032127 0.01817753
v -0.05510624 -0.04304874 0.02002242
v -0.05351453 -0.05031379 0.01150892
v -0.05565004 -0.04032127 0.01484029
v -0.05457832 -0.02423412 -0.00514793
v -0.05145047 -0.04698178 -0.02181065
v -0.05339942 -0.05031379 0.00817755
v -0.05186725 -0.04949133 -0.01514791
v -0.05165688 -0.04032127 -0.02295048
v -0.05169657 -0.03831081 -0.02335589
v -0.05174023 -0.03608948 -0.02367316
v -0.05167275 -0.02472970 -0.02668726
v -0.05168466 -0.02423412 -0.02671664
v -0.04993815 -0.02698971 -0.02795047
v -0.05513403 -0.02423412 0.02153240
v -0.05553493 -0.03365373 0.01817753
v -0.05554684 -0.03698574 0.01484029
v -0.05484823 -0.02423412 0.00484618
v -0.05414963 -0.02423412 -0.00904922
v -0.05244678 -0.02423412 -0.02181065
v -0.05237533 -0.02423412 -0.02232181
v -0.05178787 -0.03365373 -0.02397868
v -0.05185534 -0.03032172 -0.02437821
v -0.05193870 -0.02423412 -0.02528891
v -0.05179581 -0.02423412 -0.02609972
v -0.05514196 -0.02423412 0.02084497
v -0.05513403 -0.02423412 0.01844780
v -0.05191885 -0.02698971 -0.02476599
f 1 2 3
f 1 3 10
f 1 10 22
f 1 22 42
f 1 42 59
f 1 59 58
f 1 58 63
f 1 63 62
f 1 62 61
f 1 61 83
f 1 83 106
f 1 106 133
f 1 133 132
f 1 132 114
f 1 114 113
f 1 113 89
f 1 89 73
f 1 73 50
f 1 50 32
f 1 32 31
f 1 31 30
f 1 30 29
f 1 29 24
f 1 24 11
f 1 11 4
f 1 4 15
f 1 15 28
f 1 28 27
f 1 27 47
f 1 47 49
f 1 49 72
f 1 72 98
f 1 98 126
f 1 126 158
f 1 158 187
f 1 187 202
f 1 202 214
f 1 214 213
f 1 213 210
f 1 210 209
f 1 209 208
f 1 208 194
f 1 194 207
f 1 207 216
f 1 216 215
f 1 215 204
f 1 204 188
f 1 188 159
f 1 159 130
f 1 130 104
f 1 104 77
f 1 77 55
f 1 55 34
f 1 34 16
f 1 16 5
f 1 5 2
f 2 5 6
f 2 6 3
f 3 6 7
f 3 7 8
f 3 8 9
f 3 9 10
f 4 11 12
f 4 12 13
f 4 13 14
f 4 14 15
f 5 16 17
f 5 17 6
f 6 17 18
f 6 18 7
f 7 18 8
f 8 18 19
f 8 19 20
f 8 20 9
f 9 20 21
f 9 21 10
f 10 21 23
f 10 23 22
f 11 24 12
f 12 25 26
f 12 26 27
f 12 27 28
f 12 28 13
f 12 24 29
f 12 29 30
f 12 30 31
f 12 31 32
f 12 32 33
f 12 33 25
f 13 28 14
f 14 28 15
f 16 34 17
f 17 34 35
f 17 35 19
f 17 19 18
f 19 35 36
f 19 36 37
f 19 37 20
f 20 37 21
f 21 37 38
f 21 38 23
f 22 39 40
f 22 40 41
f 22 41 42
f 22 23 39
f 23 38 43
f 23 43 44
f 23 44 39
f 25 33 45
f 25 45 46
f 25 46 26
f 26 47 27
f 26 46 48
f 26 48 49
f 26 49 47
f 32 50 33
f 33 50 51
f 33 51 45
f 34 52 53
f 34 53 54
f 34 54 36
f 34 36 35
f 34 55 52
f 36 54 56
f 36 56 37
f 37 56 57
f 37 57 38
f 38 57 43
f 39 44 64
f 39 64 84
f 39 84 107
f 39 107 138
f 39 138 166
f 39 166 150
f 39 150 149
f 39 149 143
f 39 143 116
f 39 116 92
f 39 92 115
f 39 115 105
f 39 105 82
f 39 82 81
f 39 81 80
f 39 80 60
f 39 60 41
f 39 41 40
f 41 58 59
f 41 59 42
f 41 60 61
f 41 61 62
f 41 62 63
f 41 63 58
f 43 57 44
f 44 57 65
f 44 65 66
f 44 66 67
f 44 67 64
f 45 68 46
f 45 51 68
f 46 68 69
f 46 69 70
f 46 70 71
f 46 71 48
f 48 71 49
f 49 71 72
f 50 73 51
f 51 74 68
f 51 73 74
f 52 75 53
f 52 55 75
f 53 75 76
f 53 76 56
f 53 56 54
f 55 77 78
f 55 78 75
f 56 76 79
f 56 79 65
f 56 65 57
f 60 80 61
f 61 81 82
f 61 82 83
f 61 80 81
f 64 67 84
f 65 79 76
f 65 76 75
f 65 75 85
f 65 85 66
f 66 85 67
f 67 85 86
f 67 86 87
f 67 87 88
f 67 88 84
f 68 74 89
f 68 89 90
f 68 90 69
f 69 90 91
f 69 91 92
f 69 92 93
f 69 93 70
f 70 94 95
f 70 95 71
f 70 93 96
f 70 96 94
f 71 95 72
f 72 95 97
f 72 97 98
f 73 89 74
f 75 99 100
f 75 100 101
f 75 101 102
f 75 102 85
f 75 78 99
f 77 103 102
f 77 102 101
f 77 101 100
f 77 100 99
f 77 99 78
f 77 104 103
f 82 105 83
f 83 105 106
f 84 88 107
f 85 102 86
f 86 102 108
f 86 108 87
f 87 108 109
f 87 109 110
f 87 110 88
f 88 110 111
f 88 111 112
f 88 112 107
f 89 113 90
f 90 113 114
f 90 114 115
f 90 115 92
f 90 92 91
f 92 116 117
f 92 117 118
f 92 118 96
f 92 96 93
f 94 119 120
f 94 120 121
f 94 121 122
f 94 122 95
f 94 96 123
f 94 123 119
f 95 122 121
f 95 121 124
f 95 124 97
f 96 118 123
f 97 124 157
f 97 157 125
f 97 125 98
f 98 125 126
f 102 103 127
f 102 127 128
f 102 128 129
f 102 129 108
f 103 104 127
f 104 130 131
f 104 131 109
f 104 109 108
f 104 108 129
f 104 129 128
f 104 128 127
f 105 115 114
f 105 114 132
f 105 132 133
f 105 133 106
f 107 112 134
f 107 134 135
f 107 135 136
f 107 136 137
f 107 137 138
f 109 131 139
f 109 139 110
f 110 139 140
f 110 140 111
f 111 140 141
f 111 141 142
f 111 142 112
f 112 142 134
f 116 143 117
f 117 144 145
f 117 145 146
f 117 146 147
f 117 147 148
f 117 148 118
f 117 143 149
f 117 149 150
f 117 150 144
f 118 148 151
f 118 151 152
f 118 152 153
f 118 153 123
f 119 123 153
f 119 153 152
f 119 152 154
f 119 154 120
f 120 155 121
f 120 154 156
f 120 156 155
f 121 155 157
f 121 157 124
f 125 157 158
f 125 158 126
f 130 159 131
f 131 160 139
f 131 159 161
f 131 161 162
f 131 162 163
f 131 163 164
f 131 164 160
f 134 142 135
f 135 142 136
f 136 142 137
f 137 165 138
f 137 142 165
f 138 165 166
f 139 160 164
f 139 164 140
f 140 164 167
f 140 167 141
f 141 168 169
f 141 169 170
f 141 170 142
f 141 167 171
f 141 171 168
f 142 170 172
f 142 172 165
f 144 150 145
f 145 173 174
f 145 174 175
f 145 175 176
f 145 176 146
f 145 150 177
f 145 177 169
f 145 169 173
f 146 178 147
f 146 176 175
f 146 175 178
f 147 179 180
f 147 180 148
f 147 178 179
f 148 180 156
f 148 156 151
f 150 166 165
f 150 165 181
f 150 181 182
f 150 182 183
f 150 183 177
f 151 156 154
f 151 154 152
f 155 156 180
f 155 180 184
f 155 184 185
f 155 185 186
f 155 186 158
f 155 158 157
f 158 186 187
f 159 188 189
f 159 189 161
f 161 189 190
f 161 190 162
f 162 190 171
f 162 171 163
f 163 171 191
f 163 191 164
f 164 191 167
f 165 172 192
f 165 192 181
f 167 191 171
f 168 171 190
f 168 190 189
f 168 189 193
f 168 193 194
f 168 194 195
f 168 195 175
f 168 175 169
f 169 196 170
f 169 175 197
f 169 197 174
f 169 174 173
f 169 177 196
f 170 196 192
f 170 192 172
f 174 197 175
f 175 195 178
f 177 183 196
f 178 195 198
f 178 198 199
f 178 199 200
f 178 200 201
f 178 201 179
f 179 201 202
f 179 202 187
f 179 187 203
f 179 203 185
f 179 185 184
f 179 184 180
f 181 192 196
f 181 196 182
f 182 196 183
f 185 203 187
f 185 187 186
f 188 204 205
f 188 205 189
f 189 205 193
f 193 205 206
f 193 206 194
f 194 206 205
f 194 205 207
f 194 208 195
f 195 208 198
f 198 208 199
f 199 208 200
f 200 208 209
f 200 209 210
f 200 210 211
f 200 211 201
f 201 211 212
f 201 212 213
f 201 213 214
f 201 214 202
f 204 215 205
f 205 215 216
f 205 216 207
f 210 212 211
f 210 213 217
f 210 217 212
f 212 217 213

