# https://github.com/mikedh/trimesh
v -0.01840910 -0.01215965 -0.05624783
v -0.01579458 -0.01388757 -0.05624783
v -0.02698815 -0.01215965 -0.05883526
v -0.03052296 -0.01215965 -0.05624783
v -0.01183164 -0.01657249 -0.05624783
v -0.02369301 -0.01689980 -0.05909437
v -0.02436997 -0.01673366 -0.05911276
v -0.02492617 -0.01612058 -0.05908231
v -0.02492617 -0.01662898 -0.05911994
v -0.02553543 -0.01661237 -0.05912081
v -0.02556105 -0.01726865 -0.05913660
v -0.02796882 -0.01215965 -0.05872696
v -0.01183164 -0.02630369 -0.05886284
v -0.01183164 -0.02640836 -0.05888726
v -0.01183164 -0.02738863 -0.05908260
v -0.01830847 -0.02182272 -0.05911851
v -0.03050100 -0.01215965 -0.05657417
v -0.03038940 -0.01242382 -0.05657417
v -0.03039671 -0.01245539 -0.05624783
v -0.01183164 -0.02913150 -0.05624783
v -0.02324476 -0.01757602 -0.05912741
v -0.02398209 -0.01725037 -0.05913660
v -0.02492617 -0.01726865 -0.05915643
v -0.02550067 -0.01782358 -0.05913517
v -0.02800175 -0.01215965 -0.05871863
v -0.01183164 -0.02820773 -0.05870714
v -0.01442420 -0.02693837 -0.05912741
v -0.01376371 -0.02695000 -0.05912856
v -0.01313616 -0.02693338 -0.05911793
v -0.01313616 -0.02688354 -0.05911793
v -0.02019297 -0.02067133 -0.05917079
v -0.01883905 -0.02171307 -0.05915269
v -0.02224396 -0.01858121 -0.05914206
v -0.03045160 -0.01215965 -0.05681777
v -0.02952033 -0.01375797 -0.05714009
v -0.02996493 -0.01320969 -0.05657417
v -0.03010763 -0.01298872 -0.05624783
v -0.01226343 -0.02899859 -0.05624783
v -0.01183164 -0.02905840 -0.05647764
v -0.02290262 -0.01825888 -0.05916303
v -0.02189634 -0.01929397 -0.05918200
v -0.02286420 -0.01926573 -0.05917826
v -0.02492617 -0.01796148 -0.05914752
v -0.02447243 -0.01986386 -0.05814352
v -0.02548786 -0.01885202 -0.05816650
v -0.02583183 -0.01814590 -0.05848623
v -0.02646122 -0.01779367 -0.05812915
v -0.02664052 -0.01726865 -0.05834776
v -0.02760106 -0.01594778 -0.05824147
v -0.02849209 -0.01475485 -0.05811019
v -0.02942336 -0.01215965 -0.05806394
v -0.02896413 -0.01215965 -0.05828658
v -0.01680819 -0.02538656 -0.05892718
v -0.01680819 -0.02619071 -0.05842705
v -0.01744855 -0.02598303 -0.05820269
v -0.01183164 -0.02821604 -0.05868990
v -0.01183347 -0.02820939 -0.05870427
v -0.01477000 -0.02717762 -0.05867898
v -0.01883905 -0.02236436 -0.05916332
v -0.01556954 -0.02705966 -0.05839085
v -0.02188170 -0.02008151 -0.05917653
v -0.01376371 -0.02682871 -0.05912856
v -0.02999054 -0.01215965 -0.05757185
v -0.02970146 -0.01320969 -0.05730785
v -0.02857076 -0.01555734 -0.05624783
v -0.02925686 -0.01436607 -0.05657417
v -0.02957522 -0.01385932 -0.05657417
v -0.02736870 -0.01662566 -0.05779046
v -0.02838048 -0.01560552 -0.05676635
v -0.02998688 -0.01320969 -0.05624783
v -0.02949837 -0.01405372 -0.05624783
v -0.01240797 -0.02894874 -0.05624783
v -0.01405279 -0.02785384 -0.05786199
v -0.01275011 -0.02837720 -0.05758880
v -0.01183164 -0.02898363 -0.05669338
v -0.02230068 -0.02278471 -0.05698037
v -0.02334722 -0.02178451 -0.05696457
v -0.02560862 -0.01898993 -0.05758880
v -0.02604955 -0.01905472 -0.05624783
v -0.02636608 -0.01869418 -0.05624783
v -0.02654355 -0.01846656 -0.05624783
v -0.02674298 -0.01819907 -0.05624783
v -0.02725710 -0.01747799 -0.05624783
v -0.02720770 -0.01740489 -0.05657417
v -0.02707780 -0.01717727 -0.05750693
v -0.02997590 -0.01215965 -0.05758593
v -0.01624649 -0.02687689 -0.05794128
v -0.01761321 -0.02608438 -0.05758880
v -0.01947210 -0.02495791 -0.05720616
v -0.02124682 -0.02373341 -0.05688614
v -0.01183164 -0.02863805 -0.05765717
v -0.01275011 -0.02805986 -0.05842217
v -0.01586228 -0.02715768 -0.05759771
v -0.01337766 -0.02796183 -0.05819379
v -0.01472060 -0.02770264 -0.05755002
v -0.02832559 -0.01591788 -0.05624783
v -0.02747299 -0.01677686 -0.05711423
v -0.01353867 -0.02850015 -0.05624783
v -0.01434370 -0.02795352 -0.05718576
v -0.01183164 -0.02867958 -0.05754858
v -0.01183164 -0.02889225 -0.05695135
v -0.02250926 -0.02297412 -0.05630385
v -0.02348627 -0.02192739 -0.05628805
v -0.02433704 -0.02072782 -0.05686201
v -0.02493715 -0.02031079 -0.05624783
v -0.02572937 -0.01931890 -0.05648253
v -0.02583000 -0.01930394 -0.05624783
v -0.02749312 -0.01713407 -0.05624783
v -0.02755533 -0.01689814 -0.05657417
v -0.01550550 -0.02764283 -0.05624783
v -0.01577446 -0.02749496 -0.05624783
v -0.01623735 -0.02722746 -0.05624783
v -0.01636176 -0.02694668 -0.05726505
v -0.01961847 -0.02504929 -0.05657417
v -0.02139502 -0.02394773 -0.05624783
v -0.02149748 -0.02386466 -0.05624783
v -0.01502066 -0.02781064 -0.05657417
v -0.01510665 -0.02784719 -0.05624783
v -0.01427234 -0.02819942 -0.05624783
v -0.01451385 -0.02802497 -0.05657417
v -0.02247266 -0.02301898 -0.05624783
v -0.02251657 -0.02298076 -0.05624783
v -0.02255500 -0.02294089 -0.05624783
v -0.02349176 -0.02193404 -0.05624783
v -0.02351920 -0.02190413 -0.05624783
v -0.01653008 -0.02705135 -0.05624783
v -0.01669292 -0.02695000 -0.05624783
v -0.01766444 -0.02634190 -0.05624783
v -0.01875855 -0.02559591 -0.05653740
v -0.01966238 -0.02507919 -0.05624783
v -0.01982522 -0.02497452 -0.05624783
v -0.01844569 -0.02585177 -0.05624783
v -0.01940623 -0.02524201 -0.05624783
v -0.01484684 -0.02795851 -0.05624783
f 1 2 3
f 1 3 12
f 1 12 25
f 1 25 52
f 1 52 51
f 1 51 86
f 1 86 63
f 1 63 34
f 1 34 17
f 1 17 4
f 1 4 19
f 1 19 37
f 1 37 70
f 1 70 71
f 1 71 65
f 1 65 96
f 1 96 108
f 1 108 83
f 1 83 82
f 1 82 81
f 1 81 80
f 1 80 79
f 1 79 107
f 1 107 105
f 1 105 125
f 1 125 124
f 1 124 123
f 1 123 122
f 1 122 121
f 1 121 116
f 1 116 115
f 1 115 131
f 1 131 130
f 1 130 133
f 1 133 132
f 1 132 128
f 1 128 127
f 1 127 126
f 1 126 112
f 1 112 111
f 1 111 110
f 1 110 118
f 1 118 134
f 1 134 119
f 1 119 98
f 1 98 72
f 1 72 38
f 1 38 20
f 1 20 5
f 1 5 2
f 2 5 3
f 3 6 7
f 3 7 8
f 3 8 9
f 3 9 10
f 3 10 11
f 3 11 12
f 3 5 13
f 3 13 14
f 3 14 15
f 3 15 16
f 3 16 6
f 4 17 18
f 4 18 19
f 5 20 39
f 5 39 75
f 5 75 101
f 5 101 100
f 5 100 91
f 5 91 56
f 5 56 26
f 5 26 15
f 5 15 14
f 5 14 13
f 6 21 22
f 6 22 7
f 6 16 21
f 7 22 9
f 7 9 8
f 9 22 23
f 9 23 10
f 10 23 11
f 11 23 24
f 11 24 12
f 12 24 25
f 15 26 27
f 15 27 28
f 15 28 29
f 15 29 30
f 15 30 31
f 15 31 32
f 15 32 16
f 16 32 31
f 16 31 33
f 16 33 21
f 17 34 18
f 18 34 35
f 18 35 36
f 18 36 19
f 19 36 37
f 20 38 39
f 21 40 22
f 21 33 41
f 21 41 40
f 22 40 23
f 23 40 41
f 23 41 42
f 23 42 43
f 23 43 24
f 24 44 45
f 24 45 46
f 24 46 47
f 24 47 48
f 24 48 49
f 24 49 50
f 24 50 51
f 24 51 52
f 24 52 25
f 24 43 42
f 24 42 27
f 24 27 53
f 24 53 54
f 24 54 55
f 24 55 44
f 26 56 57
f 26 57 58
f 26 58 27
f 27 59 28
f 27 58 60
f 27 60 54
f 27 54 53
f 27 42 61
f 27 61 59
f 28 59 62
f 28 62 30
f 28 30 29
f 30 62 31
f 31 41 33
f 31 62 59
f 31 59 41
f 34 63 64
f 34 64 35
f 35 65 66
f 35 66 67
f 35 67 36
f 35 64 50
f 35 50 68
f 35 68 69
f 35 69 65
f 36 70 37
f 36 67 71
f 36 71 70
f 38 72 73
f 38 73 74
f 38 74 39
f 39 74 75
f 41 61 42
f 41 59 61
f 44 76 77
f 44 77 45
f 44 55 76
f 45 47 46
f 45 77 47
f 47 77 78
f 47 78 79
f 47 79 80
f 47 80 81
f 47 81 82
f 47 82 83
f 47 83 84
f 47 84 85
f 47 85 68
f 47 68 50
f 47 50 49
f 47 49 48
f 50 64 63
f 50 63 86
f 50 86 51
f 54 60 55
f 55 60 87
f 55 87 88
f 55 88 89
f 55 89 90
f 55 90 76
f 56 91 92
f 56 92 57
f 57 92 58
f 58 92 60
f 60 93 87
f 60 92 94
f 60 94 73
f 60 73 95
f 60 95 93
f 65 71 67
f 65 67 66
f 65 69 96
f 68 85 97
f 68 97 69
f 69 97 96
f 72 98 99
f 72 99 73
f 73 94 74
f 73 99 95
f 74 94 100
f 74 100 101
f 74 101 75
f 76 90 102
f 76 102 77
f 77 102 103
f 77 103 104
f 77 104 78
f 78 104 105
f 78 105 106
f 78 106 107
f 78 107 79
f 83 108 84
f 84 108 109
f 84 109 97
f 84 97 85
f 87 93 110
f 87 110 111
f 87 111 112
f 87 112 113
f 87 113 114
f 87 114 88
f 88 114 89
f 89 114 115
f 89 115 90
f 90 115 116
f 90 116 102
f 91 100 94
f 91 94 92
f 93 95 117
f 93 117 118
f 93 118 110
f 95 99 117
f 96 97 109
f 96 109 108
f 98 119 99
f 99 119 120
f 99 120 117
f 102 121 122
f 102 122 123
f 102 123 124
f 102 124 103
f 102 116 121
f 103 124 125
f 103 125 105
f 103 105 104
f 105 107 106
f 112 126 113
f 113 126 127
f 113 127 128
f 113 128 129
f 113 129 114
f 114 130 131
f 114 131 115
f 114 129 128
f 114 128 132
f 114 132 133
f 114 133 130
f 117 134 118
f 117 120 134
f 119 134 120

