# https://github.com/mikedh/trimesh
v 0.02856867 -0.01662646 0.00373775
v 0.02842346 -0.01688104 0.00373775
v -0.00109938 -0.01662646 0.00373775
v 0.02854544 -0.01662646 0.02726933
v 0.02842056 -0.01685258 0.02765664
v 0.02809821 -0.01738870 0.00373775
v -0.00109938 -0.01662646 0.03743705
v -0.00109938 -0.03010865 0.00373775
v 0.02853963 -0.01662646 0.02828981
v 0.02841766 -0.01684809 0.02867038
v 0.02724441 -0.01866758 0.00736162
v 0.02759290 -0.01816142 0.00634788
v 0.02788040 -0.01772265 0.00373775
v -0.00109938 -0.01929804 0.03760208
v 0.02451167 -0.01662646 0.03814431
v -0.00056793 -0.03013561 0.00373775
v -0.00109938 -0.03121532 0.02055372
v 0.02853672 -0.01662646 0.02867038
v 0.02841185 -0.01683611 0.02968412
v 0.02634995 -0.01983715 0.00373775
v 0.02677395 -0.01929804 0.00373775
v 0.02724731 -0.01866758 0.00634788
v 0.02725022 -0.01866758 0.00533077
v 0.02725312 -0.01866608 0.00431703
v 0.02725312 -0.01866608 0.00373775
v 0.02759290 -0.01815992 0.00533077
v 0.02759290 -0.01815842 0.00431703
v -0.00109938 -0.02872045 0.03814431
v 0.02787460 -0.01662646 0.03814431
v 0.00044559 -0.03018653 0.00373775
v -0.00109938 -0.03134711 0.02258120
v 0.00189763 -0.03025841 0.00373775
v 0.00247554 -0.03028686 0.00373775
v 0.02852801 -0.01662646 0.02931702
v 0.02852220 -0.01662646 0.02968412
v 0.02849316 -0.01662646 0.03070123
v 0.02839152 -0.01681215 0.03070123
v 0.02517090 -0.02031486 0.03814431
v 0.02452039 -0.02107859 0.03814431
v 0.02422998 -0.02141703 0.03814431
v 0.02589111 -0.02034481 0.00373775
v -0.00109938 -0.03185926 0.03814431
v 0.02775553 -0.01684060 0.03814431
v 0.02836829 -0.01678520 0.03136808
v 0.02844089 -0.01662646 0.03148932
v -0.00109938 -0.03141000 0.02359494
v -0.00109938 -0.03143995 0.02408329
v 0.00348906 -0.03027189 0.00373775
v 0.00247554 -0.03032130 0.00431703
v 0.00146202 -0.03181733 0.02968412
v 0.00044559 -0.03168405 0.02765664
v -0.00056793 -0.03154328 0.02562579
v 0.02846412 -0.01662646 0.03116937
v 0.02717762 -0.01782298 0.03814431
v 0.02661422 -0.01856275 0.03814431
v 0.02613505 -0.01914529 0.03814431
v 0.02356494 -0.02214483 0.03814431
v 0.02538289 -0.02090488 0.00373775
v 0.00044559 -0.03192365 0.03814431
v -0.00109938 -0.03162115 0.02867038
v -0.00056793 -0.03166757 0.02867038
v 0.00044559 -0.03180535 0.03070123
v 0.00044559 -0.03182931 0.03171497
v 0.00044559 -0.03184878 0.03272871
v 0.00146202 -0.03188621 0.03171497
v 0.02755224 -0.01720001 0.03814431
v 0.02727345 -0.01767772 0.03814431
v -0.00109938 -0.03149835 0.02509703
v 0.00247554 -0.03044110 0.00634788
v 0.00247554 -0.03038120 0.00533077
v 0.00450549 -0.03016406 0.00373775
v 0.00397114 -0.03096674 0.01701742
v 0.00247554 -0.03153280 0.02562579
v 0.00247554 -0.03158521 0.02663953
v 0.00247554 -0.03163762 0.02765664
v 0.00247554 -0.03174095 0.02968412
v 0.00146202 -0.03186375 0.03070123
v 0.00044559 -0.03173496 0.02867038
v -0.00056793 -0.03159569 0.02663953
v 0.02324840 -0.02248327 0.03814431
v 0.02434614 -0.02188725 0.00736162
v 0.02435195 -0.02188875 0.00634788
v 0.02486016 -0.02141254 0.00373775
v 0.02308867 -0.02265249 0.03814431
v 0.02258337 -0.02318261 0.03814431
v 0.02225521 -0.02352105 0.03814431
v 0.02208677 -0.02369027 0.03814431
v 0.00087830 -0.03191317 0.03814431
v -0.00109938 -0.03160768 0.02814162
v 0.00044559 -0.03177540 0.02968412
v -0.00109938 -0.03158072 0.02712788
v 0.00247554 -0.03181134 0.03171497
v 0.00146202 -0.03189670 0.03814431
v -0.00109938 -0.03154478 0.02611077
v 0.00603594 -0.02995441 0.00373775
v 0.00410473 -0.03098770 0.01769437
v 0.00247554 -0.03178738 0.03070123
v 0.00422089 -0.03101166 0.01852624
v 0.02157856 -0.02417996 0.03814431
v 0.02122135 -0.02451690 0.03814431
v 0.02087287 -0.02484486 0.03814431
v 0.02053309 -0.02516383 0.03814431
v 0.01980997 -0.02582574 0.03814431
v 0.02435195 -0.02188725 0.00533077
v 0.02464236 -0.02162070 0.00373775
v -0.00056793 -0.03163613 0.02765664
v 0.00348906 -0.03163463 0.03171497
v 0.00752573 -0.03107456 0.03814431
v 0.00687522 -0.03116740 0.03814431
v 0.00247554 -0.03180685 0.03272871
v 0.00176114 -0.03186974 0.03814431
v 0.00754896 -0.02974625 0.00373775
v 0.00856539 -0.02959500 0.00373775
v 0.00348906 -0.03160618 0.03070123
v 0.00450549 -0.03145493 0.03171497
v 0.00348906 -0.03138005 0.02461205
v 0.00348906 -0.03142198 0.02562579
v 0.00431963 -0.03103712 0.01953998
v 0.00957891 -0.02941830 0.00373775
v 0.01947310 -0.02610578 0.03814431
v 0.02435195 -0.02188426 0.00373775
v 0.00805718 -0.03097123 0.03814431
v 0.00551901 -0.03127373 0.03171497
v 0.00450549 -0.03134860 0.02867038
v 0.00450549 -0.03142198 0.03070123
v 0.00450549 -0.03123779 0.02562579
v 0.00450549 -0.03120035 0.02461205
v 0.01059534 -0.02917869 0.00373775
v 0.00843471 -0.03088737 0.03814431
v 0.00641347 -0.03105659 0.03070123
v 0.00551901 -0.03123779 0.03070123
v 0.00551901 -0.03119885 0.02968412
v 0.01870642 -0.02662691 0.03814431
v 0.01759997 -0.02662542 0.00373775
v 0.02170343 -0.02378012 0.00373775
v 0.02265016 -0.02312271 0.00373775
v 0.02315837 -0.02276630 0.00373775
v 0.02378275 -0.02230656 0.00373775
v 0.02402960 -0.02212386 0.00373775
v 0.01124585 -0.02898551 0.00373775
v 0.00858281 -0.03084094 0.03814431
v 0.01855541 -0.02672276 0.03814431
v 0.01719630 -0.02689946 0.00373775
v 0.01363881 -0.02818883 0.00373775
v 0.01306090 -0.02891812 0.02156746
v 0.00957891 -0.03052047 0.03814431
v 0.01833180 -0.02685603 0.03814431
v 0.01718469 -0.02690695 0.00375122
v 0.01717307 -0.02691144 0.00373775
v 0.01517216 -0.02767817 0.00373775
v 0.01566586 -0.02751345 0.00373775
v 0.01516055 -0.02792377 0.01190830
v 0.01464943 -0.02867253 0.03814431
v 0.01403377 -0.02889866 0.03814431
v 0.01353136 -0.02908285 0.03814431
v 0.00991869 -0.03039917 0.03814431
v 0.01812270 -0.02697584 0.03814431
v 0.01678102 -0.02708665 0.00373775
v 0.01771613 -0.02720346 0.03814431
v 0.01699883 -0.02759431 0.03814431
v 0.01672875 -0.02773358 0.03814431
v 0.01626410 -0.02796720 0.03814431
v 0.01570942 -0.02822777 0.03814431
v 0.01616826 -0.02732176 0.00373775
f 1 2 6
f 1 6 13
f 1 13 25
f 1 25 21
f 1 21 20
f 1 20 41
f 1 41 58
f 1 58 83
f 1 83 105
f 1 105 121
f 1 121 139
f 1 139 138
f 1 138 137
f 1 137 136
f 1 136 135
f 1 135 134
f 1 134 143
f 1 143 149
f 1 149 158
f 1 158 164
f 1 164 151
f 1 151 150
f 1 150 144
f 1 144 140
f 1 140 128
f 1 128 119
f 1 119 113
f 1 113 112
f 1 112 95
f 1 95 71
f 1 71 48
f 1 48 33
f 1 33 32
f 1 32 30
f 1 30 16
f 1 16 8
f 1 8 3
f 1 3 7
f 1 7 15
f 1 15 29
f 1 29 45
f 1 45 53
f 1 53 36
f 1 36 35
f 1 35 34
f 1 34 18
f 1 18 9
f 1 9 4
f 1 4 5
f 1 5 2
f 2 5 6
f 3 8 17
f 3 17 31
f 3 31 46
f 3 46 47
f 3 47 68
f 3 68 94
f 3 94 91
f 3 91 89
f 3 89 60
f 3 60 42
f 3 42 28
f 3 28 14
f 3 14 7
f 4 9 10
f 4 10 5
f 5 10 11
f 5 11 12
f 5 12 6
f 6 12 13
f 7 14 15
f 8 16 17
f 9 18 10
f 10 18 19
f 10 19 20
f 10 20 11
f 11 20 21
f 11 21 22
f 11 22 12
f 12 22 23
f 12 23 24
f 12 24 25
f 12 25 26
f 12 26 13
f 13 26 27
f 13 27 25
f 14 28 15
f 15 28 42
f 15 42 59
f 15 59 88
f 15 88 93
f 15 93 111
f 15 111 109
f 15 109 108
f 15 108 122
f 15 122 129
f 15 129 141
f 15 141 146
f 15 146 156
f 15 156 155
f 15 155 154
f 15 154 153
f 15 153 163
f 15 163 162
f 15 162 161
f 15 161 160
f 15 160 159
f 15 159 157
f 15 157 147
f 15 147 142
f 15 142 133
f 15 133 120
f 15 120 103
f 15 103 102
f 15 102 101
f 15 101 100
f 15 100 99
f 15 99 87
f 15 87 86
f 15 86 85
f 15 85 84
f 15 84 80
f 15 80 57
f 15 57 40
f 15 40 39
f 15 39 38
f 15 38 56
f 15 56 55
f 15 55 54
f 15 54 67
f 15 67 66
f 15 66 43
f 15 43 29
f 16 30 17
f 17 30 32
f 17 32 33
f 17 33 31
f 18 34 19
f 19 34 35
f 19 35 36
f 19 36 37
f 19 37 38
f 19 38 39
f 19 39 40
f 19 40 20
f 20 40 41
f 21 25 24
f 21 24 23
f 21 23 22
f 25 27 26
f 29 43 44
f 29 44 45
f 31 33 46
f 33 47 46
f 33 48 49
f 33 49 50
f 33 50 51
f 33 51 52
f 33 52 47
f 36 53 44
f 36 44 37
f 37 44 54
f 37 54 55
f 37 55 56
f 37 56 38
f 40 57 58
f 40 58 41
f 42 60 61
f 42 61 62
f 42 62 63
f 42 63 64
f 42 64 65
f 42 65 59
f 43 66 44
f 44 53 45
f 44 66 67
f 44 67 54
f 47 52 68
f 48 69 70
f 48 70 49
f 48 71 72
f 48 72 73
f 48 73 50
f 48 50 69
f 49 70 50
f 50 73 74
f 50 74 75
f 50 75 76
f 50 76 97
f 50 97 77
f 50 77 78
f 50 78 51
f 50 70 69
f 51 78 79
f 51 79 68
f 51 68 52
f 57 80 58
f 58 81 82
f 58 82 83
f 58 80 84
f 58 84 85
f 58 85 86
f 58 86 87
f 58 87 81
f 59 65 88
f 60 89 61
f 61 90 62
f 61 89 91
f 61 91 90
f 62 90 77
f 62 77 63
f 63 77 65
f 63 65 64
f 65 77 92
f 65 92 93
f 65 93 88
f 68 79 94
f 71 95 96
f 71 96 72
f 72 96 76
f 72 76 75
f 72 75 74
f 72 74 73
f 76 96 98
f 76 98 97
f 77 97 92
f 77 90 78
f 78 90 94
f 78 94 79
f 81 87 99
f 81 99 100
f 81 100 101
f 81 101 102
f 81 102 103
f 81 103 82
f 82 104 105
f 82 105 83
f 82 103 104
f 90 91 106
f 90 106 94
f 91 94 106
f 92 97 107
f 92 107 108
f 92 108 109
f 92 109 110
f 92 110 111
f 92 111 93
f 95 112 96
f 96 112 113
f 96 113 98
f 97 114 123
f 97 123 115
f 97 115 107
f 97 98 116
f 97 116 117
f 97 117 114
f 98 118 117
f 98 117 116
f 98 113 119
f 98 119 118
f 103 120 121
f 103 121 104
f 104 121 105
f 107 115 108
f 108 115 123
f 108 123 122
f 109 111 110
f 114 124 125
f 114 125 123
f 114 117 124
f 117 126 124
f 117 118 127
f 117 127 126
f 118 119 127
f 119 128 129
f 119 129 122
f 119 122 130
f 119 130 131
f 119 131 132
f 119 132 127
f 120 133 134
f 120 134 135
f 120 135 136
f 120 136 137
f 120 137 138
f 120 138 139
f 120 139 121
f 122 123 130
f 123 125 131
f 123 131 130
f 124 131 125
f 124 126 131
f 126 127 131
f 127 132 131
f 128 140 129
f 129 140 141
f 133 142 143
f 133 143 134
f 140 144 145
f 140 145 146
f 140 146 141
f 142 147 148
f 142 148 143
f 143 148 149
f 144 150 145
f 145 150 151
f 145 151 152
f 145 152 153
f 145 153 154
f 145 154 155
f 145 155 156
f 145 156 146
f 147 157 148
f 148 158 149
f 148 157 159
f 148 159 160
f 148 160 161
f 148 161 162
f 148 162 163
f 148 163 158
f 151 164 152
f 152 164 158
f 152 158 153
f 153 158 163

