# https://github.com/mikedh/trimesh
v 0.02340220 -0.02800646 -0.03769170
v 0.01680133 -0.03096421 0.04322583
v 0.01766521 -0.03058492 0.04322583
v 0.02301323 -0.02825029 0.04322583
v 0.02340220 -0.02921343 -0.03769170
v 0.02340220 -0.02800646 -0.04196488
v 0.01680133 -0.03201726 0.04322583
v 0.01680133 -0.03096421 -0.03768317
v 0.02301323 -0.02943841 0.04322583
v 0.02289240 -0.02950909 0.04322583
v 0.02340220 -0.02921343 -0.04196488
v 0.02339186 -0.02801471 -0.04390956
v 0.02339186 -0.02801274 -0.04384133
v 0.01727818 -0.03184843 0.04322583
v 0.01680133 -0.03201726 -0.03768317
v 0.01694607 -0.03196622 -0.03768317
v 0.01766521 -0.03058531 -0.04384133
v 0.01763549 -0.03059905 -0.04384133
v 0.01763549 -0.03060023 -0.04390103
v 0.01763549 -0.03060062 -0.04390956
v 0.02242913 -0.02971562 0.04322583
v 0.02288142 -0.02951419 -0.04196488
v 0.02289240 -0.02950909 -0.04384133
v 0.02339186 -0.02921893 -0.04384133
v 0.02339186 -0.02921657 -0.04390956
v 0.01766650 -0.03058570 -0.04390956
v 0.02190899 -0.02993118 0.04322583
v 0.01727818 -0.03184843 -0.03768317
v 0.01741774 -0.03179071 -0.03769170
v 0.01763549 -0.03169844 -0.04390956
v 0.01741774 -0.03179071 -0.04196488
v 0.02242913 -0.02971562 -0.03768317
v 0.02259583 -0.02964141 -0.03769170
v 0.02242913 -0.02971522 -0.04384133
v 0.02242848 -0.02971483 -0.04390956
v 0.02289111 -0.02950752 -0.04390956
v 0.02190899 -0.02993118 -0.03768317
v 0.01787779 -0.03159910 -0.04390956
v 0.01763549 -0.03169962 -0.04386691
v 0.01763549 -0.03170001 -0.04384133
v 0.01787843 -0.03159950 -0.04384133
v 0.01992344 -0.03075297 -0.04384133
f 1 2 3
f 1 3 4
f 1 4 9
f 1 9 5
f 1 5 11
f 1 11 6
f 1 6 8
f 1 8 2
f 2 7 14
f 2 14 27
f 2 27 21
f 2 21 10
f 2 10 9
f 2 9 4
f 2 4 3
f 2 8 15
f 2 15 7
f 5 9 10
f 5 10 23
f 5 23 11
f 6 11 25
f 6 25 12
f 6 12 13
f 6 13 8
f 7 15 16
f 7 16 14
f 8 13 17
f 8 17 18
f 8 18 19
f 8 19 20
f 8 20 30
f 8 30 15
f 10 21 22
f 10 22 23
f 11 23 24
f 11 24 25
f 12 25 36
f 12 36 35
f 12 35 38
f 12 38 30
f 12 30 20
f 12 20 26
f 12 26 13
f 13 26 17
f 14 16 28
f 14 28 31
f 14 31 29
f 14 29 27
f 15 30 31
f 15 31 16
f 16 31 28
f 17 26 18
f 18 26 19
f 19 26 20
f 21 27 37
f 21 37 32
f 21 32 33
f 21 33 22
f 22 34 23
f 22 33 32
f 22 32 34
f 23 34 35
f 23 35 36
f 23 36 24
f 24 36 25
f 27 29 31
f 27 31 37
f 30 38 39
f 30 39 31
f 31 39 40
f 31 40 41
f 31 41 42
f 31 42 37
f 32 37 34
f 34 42 35
f 34 37 42
f 35 42 38
f 38 42 41
f 38 41 40
f 38 40 39

