# https://github.com/mikedh/trimesh
v -0.01931254 0.04749076 -0.04196370
v -0.01931254 0.04749076 -0.04384397
v -0.02074414 0.04749076 -0.04196370
v -0.02440570 0.04404689 -0.04196370
v -0.02441020 0.04404317 -0.04196408
v -0.01931554 0.04749076 -0.04389812
v -0.02441020 0.04404317 -0.04292523
v -0.02441020 0.04404351 -0.04384435
v -0.02441020 0.04404486 -0.04389812
v -0.02152355 0.04749076 -0.04196484
v -0.02155549 0.04747186 -0.04196370
v -0.02441020 0.04405026 -0.04196370
v -0.02152106 0.04749076 -0.04389812
v -0.02441020 0.04529991 -0.04389812
v -0.02152355 0.04749076 -0.04384605
v -0.02155549 0.04747186 -0.04384397
v -0.02308439 0.04631806 -0.04196370
v -0.02441020 0.04530160 -0.04196370
v -0.02155449 0.04747085 -0.04389812
v -0.02441020 0.04530160 -0.04384397
v -0.02415022 0.04549935 -0.04389812
v -0.02308389 0.04631738 -0.04389812
v -0.02308439 0.04631806 -0.04384397
f 1 2 6
f 1 6 13
f 1 13 15
f 1 15 10
f 1 10 3
f 1 3 11
f 1 11 17
f 1 17 18
f 1 18 12
f 1 12 4
f 1 4 5
f 1 5 7
f 1 7 2
f 2 7 8
f 2 8 9
f 2 9 6
f 3 10 11
f 4 12 5
f 5 12 18
f 5 18 20
f 5 20 14
f 5 14 9
f 5 9 8
f 5 8 7
f 6 9 14
f 6 14 21
f 6 21 22
f 6 22 19
f 6 19 13
f 10 15 16
f 10 16 11
f 11 16 23
f 11 23 17
f 13 19 16
f 13 16 15
f 14 20 21
f 16 22 23
f 16 19 22
f 17 23 20
f 17 20 18
f 20 23 22
f 20 22 21

