# https://github.com/mikedh/trimesh
v 0.00102410 0.04772622 0.04267832
v 0.00085314 0.04772622 0.04267832
v 0.00102410 0.04680637 0.04267832
v 0.00102410 0.04772622 -0.03769120
v 0.00060318 0.04772581 0.04267832
v 0.00093503 0.04772622 -0.03769120
v 0.00060318 0.04772581 -0.03769120
v -0.01365212 0.04352544 0.04267832
v 0.00102410 0.04680637 -0.03769120
v 0.00022679 0.04770936 0.04267832
v 0.00000843 0.04769867 -0.03769120
v -0.01365212 0.04462745 0.04267832
v -0.01365212 0.04352544 -0.03769120
v -0.00032199 0.04768428 0.04267832
v -0.00032199 0.04768346 -0.03769120
v -0.01191816 0.04534663 0.04267832
v -0.01365212 0.04462745 -0.03769120
v -0.00069981 0.04764768 0.04267832
v -0.00091817 0.04762466 -0.03769120
v -0.01143690 0.04554565 0.04267832
v -0.01191816 0.04534663 -0.03769120
v -0.00124859 0.04759340 0.04267832
v -0.00124859 0.04759176 -0.03769120
v -0.00940987 0.04638366 0.04267832
v -0.01143690 0.04554565 -0.03769120
v -0.00162498 0.04754406 0.04267832
v -0.00363046 0.04727802 -0.03769120
v -0.00217519 0.04747169 0.04267832
v -0.00865853 0.04659009 0.04267832
v -0.00940987 0.04638366 -0.03769120
v -0.00392496 0.04723895 -0.03769120
v -0.00310179 0.04734916 0.04267832
v -0.00773193 0.04673030 0.04267832
v -0.00865853 0.04658927 -0.03769120
v -0.00914122 0.04645727 -0.03769120
v -0.00773193 0.04672907 -0.03769120
v -0.00392496 0.04723978 0.04267832
v -0.00832668 0.04663943 -0.03769120
f 1 2 5
f 1 5 10
f 1 10 14
f 1 14 18
f 1 18 22
f 1 22 26
f 1 26 28
f 1 28 32
f 1 32 37
f 1 37 33
f 1 33 29
f 1 29 24
f 1 24 20
f 1 20 16
f 1 16 12
f 1 12 8
f 1 8 3
f 1 3 9
f 1 9 4
f 1 4 6
f 1 6 2
f 2 6 7
f 2 7 5
f 3 8 13
f 3 13 9
f 4 9 13
f 4 13 17
f 4 17 21
f 4 21 25
f 4 25 30
f 4 30 35
f 4 35 34
f 4 34 38
f 4 38 36
f 4 36 31
f 4 31 27
f 4 27 23
f 4 23 19
f 4 19 15
f 4 15 11
f 4 11 7
f 4 7 6
f 5 7 10
f 7 11 10
f 8 12 17
f 8 17 13
f 10 11 14
f 11 15 14
f 12 16 21
f 12 21 17
f 14 15 18
f 15 19 18
f 16 20 25
f 16 25 21
f 18 19 22
f 19 23 22
f 20 24 30
f 20 30 25
f 22 23 26
f 23 27 28
f 23 28 26
f 24 29 30
f 27 31 32
f 27 32 28
f 29 33 34
f 29 34 35
f 29 35 30
f 31 36 33
f 31 33 37
f 31 37 32
f 33 36 38
f 33 38 34

