# https://github.com/mikedh/trimesh
v -0.02436352 -0.01833423 0.04407549
v -0.02614051 -0.01833423 0.04407549
v -0.02436352 -0.01833423 0.04341115
v -0.02954954 -0.01224469 0.04407549
v -0.02628166 -0.01820369 0.04407549
v -0.02594470 -0.01833423 -0.03767923
v -0.02954954 -0.01224469 0.04402747
v -0.02436607 -0.01833423 -0.03767923
v -0.02955145 -0.01224469 -0.03767923
v -0.03085797 -0.01224469 0.04407549
v -0.02632489 -0.01815958 0.04407549
v -0.02667329 -0.01760880 -0.03767923
v -0.03080838 -0.01224469 -0.03767923
v -0.03084779 -0.01225840 0.04407549
v -0.02707320 -0.01726010 0.04407549
v -0.02680426 -0.01744548 -0.03767923
v -0.02950249 -0.01394709 -0.03767923
v -0.02954573 -0.01399597 0.04407549
v -0.02914710 -0.01441024 -0.03767923
v -0.02868361 -0.01501407 -0.03767923
v -0.02786537 -0.01607986 -0.03767923
v -0.02704459 -0.01714565 -0.03767923
f 1 2 6
f 1 6 8
f 1 8 3
f 1 3 7
f 1 7 4
f 1 4 10
f 1 10 14
f 1 14 18
f 1 18 15
f 1 15 11
f 1 11 5
f 1 5 2
f 2 5 6
f 3 8 9
f 3 9 7
f 4 7 9
f 4 9 13
f 4 13 10
f 5 11 12
f 5 12 6
f 6 12 16
f 6 16 22
f 6 22 21
f 6 21 20
f 6 20 19
f 6 19 17
f 6 17 13
f 6 13 9
f 6 9 8
f 10 13 14
f 11 15 12
f 12 15 16
f 13 17 15
f 13 15 18
f 13 18 14
f 15 17 19
f 15 19 20
f 15 20 21
f 15 21 22
f 15 22 16

