# https://github.com/mikedh/trimesh
v -0.03341681 -0.01833448 0.04319379
v -0.03322558 -0.01860213 0.04319379
v -0.03341681 -0.01833448 0.04415447
v -0.03214708 -0.01833448 0.04319379
v -0.03285351 -0.01908753 0.04319379
v -0.03322558 -0.01860213 0.04415447
v -0.03341353 -0.01833448 0.04466117
v -0.03212031 -0.01836901 0.04319379
v -0.02783524 -0.01833448 0.04558308
v -0.03287045 -0.01906535 0.04415447
v -0.03205201 -0.02013191 0.04319379
v -0.03205201 -0.02013191 0.04415447
v -0.03321848 -0.01859255 0.04508022
v -0.03340697 -0.01833448 0.04508022
v -0.03165700 -0.01897235 0.04319379
v -0.02783524 -0.01833448 0.04661011
v -0.02783524 -0.02090890 0.04549334
v -0.03017473 -0.02090890 0.04319379
v -0.03130187 -0.01943557 0.04319379
v -0.03158870 -0.02073526 0.04319379
v -0.03158870 -0.02073526 0.04415447
v -0.03320919 -0.01858046 0.04554746
v -0.03330153 -0.01833448 0.04561207
v -0.02783524 -0.01902654 0.04671732
v -0.02811115 -0.01833448 0.04665027
v -0.02783524 -0.02090890 0.04637718
v -0.03145047 -0.02090890 0.04319379
v -0.03158051 -0.02074559 0.04319379
v -0.03145047 -0.02090890 0.04415447
v -0.03233229 -0.01956965 0.04558797
v -0.03152970 -0.02065663 0.04508022
v -0.03268141 -0.01894891 0.04566759
v -0.03272621 -0.01833448 0.04588550
v -0.02783524 -0.01996482 0.04676131
v -0.02811115 -0.01903889 0.04675363
v -0.02903777 -0.01833448 0.04669566
v -0.02783524 -0.02090512 0.04658950
v -0.02800133 -0.02090890 0.04654864
v -0.03130787 -0.02090890 0.04508022
v -0.03143135 -0.02052784 0.04559496
v -0.03177064 -0.01991290 0.04569169
v -0.03181599 -0.01903889 0.04596791
v -0.03180943 -0.01833448 0.04619874
v -0.02783524 -0.02085043 0.04660522
v -0.02903777 -0.01903889 0.04672185
v -0.02811115 -0.01996482 0.04674106
v -0.02995455 -0.01833448 0.04665480
v -0.02804613 -0.02083733 0.04655842
v -0.02864385 -0.02049281 0.04649068
v -0.03085112 -0.02085850 0.04568750
v -0.03082326 -0.02090890 0.04567912
v -0.03054352 -0.01868404 0.04650499
v -0.03073639 -0.01833448 0.04654062
v -0.02898696 -0.01992424 0.04656820
v -0.02992724 -0.01901116 0.04657204
v -0.02959396 -0.01958855 0.04649801
f 1 2 6
f 1 6 3
f 1 3 7
f 1 7 14
f 1 14 23
f 1 23 33
f 1 33 43
f 1 43 53
f 1 53 47
f 1 47 36
f 1 36 25
f 1 25 16
f 1 16 9
f 1 9 4
f 1 4 8
f 1 8 15
f 1 15 19
f 1 19 18
f 1 18 27
f 1 27 28
f 1 28 20
f 1 20 11
f 1 11 5
f 1 5 2
f 2 5 6
f 3 6 7
f 4 9 8
f 5 10 6
f 5 11 12
f 5 12 10
f 6 10 13
f 6 13 7
f 7 13 14
f 8 9 15
f 9 16 24
f 9 24 34
f 9 34 44
f 9 44 37
f 9 37 26
f 9 26 17
f 9 17 18
f 9 18 19
f 9 19 15
f 10 12 13
f 11 20 21
f 11 21 12
f 12 21 13
f 13 22 14
f 13 21 22
f 14 22 23
f 16 25 24
f 17 26 38
f 17 38 51
f 17 51 39
f 17 39 29
f 17 29 27
f 17 27 18
f 20 28 21
f 21 28 29
f 21 29 22
f 22 30 23
f 22 29 31
f 22 31 30
f 23 30 32
f 23 32 33
f 24 25 35
f 24 35 34
f 25 36 35
f 26 37 38
f 27 29 28
f 29 39 31
f 30 33 32
f 30 31 39
f 30 39 40
f 30 40 41
f 30 41 33
f 33 41 42
f 33 42 43
f 34 35 45
f 34 45 46
f 34 46 44
f 35 36 45
f 36 47 45
f 37 44 38
f 38 44 48
f 38 48 49
f 38 49 50
f 38 50 51
f 39 51 40
f 40 51 50
f 40 50 41
f 41 50 42
f 42 50 52
f 42 52 43
f 43 52 53
f 44 46 54
f 44 54 48
f 45 47 53
f 45 53 46
f 46 53 55
f 46 55 54
f 48 54 52
f 48 52 56
f 48 56 49
f 49 56 50
f 50 56 52
f 52 54 55
f 52 55 53

