# https://github.com/mikedh/trimesh
v 0.00970454 -0.00752250 0.05237900
v 0.00970719 -0.00746862 0.05237900
v 0.01226515 0.00012161 0.05233264
v 0.01028740 -0.00683935 0.05237127
v 0.01026753 -0.00739081 0.05240990
v 0.01019335 -0.00752250 0.05242278
v 0.00961645 -0.00752250 0.05239187
v 0.01259036 0.00012161 0.05233264
v 0.01226250 -0.00079499 0.05233521
v 0.00930648 -0.00752250 0.05279107
v 0.01215852 0.00012161 0.05256958
v 0.01092391 -0.00620109 0.05238415
v 0.01070269 -0.00684384 0.05240218
v 0.01166309 -0.00381942 0.05235324
v 0.01198366 -0.00381942 0.05235324
v 0.01061129 -0.00715062 0.05248459
v 0.01022779 -0.00752250 0.05271123
v 0.01259500 -0.00019041 0.05233521
v 0.01258507 -0.00079499 0.05233521
v 0.01264401 0.00012161 0.05255155
v 0.00918262 -0.00752250 0.05311301
v 0.01206513 0.00012161 0.05279107
v 0.01130940 -0.00563392 0.05238930
v 0.01123058 -0.00597437 0.05246399
v 0.01254665 -0.00140033 0.05234809
v 0.01249432 -0.00200491 0.05239445
v 0.01245326 -0.00248155 0.05244339
v 0.01189159 -0.00442400 0.05241248
v 0.01061129 -0.00715062 0.05249747
v 0.00750358 -0.00752250 0.07863849
v 0.01270561 -0.00019041 0.05279107
v 0.01267846 -0.00079499 0.05279107
v 0.01268972 0.00012161 0.05279107
v 0.00907068 -0.00752250 0.05340404
v 0.01178165 0.00012161 0.05357402
v 0.00815135 -0.00752250 0.05581468
v 0.00795530 -0.00752250 0.05633235
v 0.00791688 -0.00752250 0.05643794
v 0.01182072 -0.00473228 0.05248459
v 0.01123058 -0.00597437 0.05254898
v 0.01245326 -0.00248155 0.05260049
v 0.01209096 -0.00381942 0.05279107
v 0.00899451 -0.00563392 0.07863849
v 0.00885873 -0.00587037 0.07863849
v 0.00880972 -0.00595567 0.07863849
v 0.00874282 -0.00603648 0.07863849
v 0.00855803 -0.00625871 0.07863849
v 0.00818844 -0.00670167 0.07863849
v 0.00653590 -0.00752250 0.07863849
v 0.01062387 0.00012161 0.07863849
v 0.01063248 -0.00007668 0.07863849
v 0.01063712 -0.00019041 0.07863849
v 0.01062917 -0.00048746 0.07863849
v 0.01062586 -0.00059521 0.07863849
v 0.01165514 0.00012161 0.05400154
v 0.00776984 -0.00752250 0.05698136
v 0.01094974 0.00012161 0.05641991
v 0.01112725 0.00012161 0.05579665
v 0.01182072 -0.00473228 0.05249747
v 0.00942636 -0.00478765 0.07863849
v 0.00928131 -0.00508994 0.07863849
v 0.00907068 -0.00548951 0.07863849
v 0.01027681 -0.00261025 0.07863849
v 0.01011917 -0.00321483 0.07863849
v 0.00994895 0.00012161 0.07863849
v 0.00594443 -0.00752250 0.06805846
v 0.00776190 -0.00752250 0.05702515
v 0.01086364 0.00012161 0.05702515
v 0.00594046 -0.00752250 0.06791166
v 0.01003836 -0.00344604 0.07863849
v 0.01000856 -0.00352984 0.07863849
v 0.00966745 -0.00426687 0.07863849
v 0.00953498 0.00012161 0.06849114
v 0.01059274 0.00012161 0.05896448
v 0.00955088 0.00012161 0.06793741
f 1 2 3
f 1 3 4
f 1 4 5
f 1 5 6
f 1 6 17
f 1 17 30
f 1 30 49
f 1 49 66
f 1 66 69
f 1 69 67
f 1 67 56
f 1 56 38
f 1 38 37
f 1 37 36
f 1 36 34
f 1 34 21
f 1 21 10
f 1 10 7
f 1 7 2
f 2 7 3
f 3 8 19
f 3 19 9
f 3 9 4
f 3 7 10
f 3 10 11
f 3 11 22
f 3 22 35
f 3 35 55
f 3 55 58
f 3 58 57
f 3 57 68
f 3 68 74
f 3 74 75
f 3 75 73
f 3 73 65
f 3 65 50
f 3 50 33
f 3 33 20
f 3 20 8
f 4 12 13
f 4 13 5
f 4 9 14
f 4 14 15
f 4 15 12
f 5 13 6
f 6 13 16
f 6 16 17
f 8 18 19
f 8 20 18
f 9 19 15
f 9 15 14
f 10 21 22
f 10 22 11
f 12 15 23
f 12 23 13
f 13 23 24
f 13 24 16
f 15 19 25
f 15 25 26
f 15 26 27
f 15 27 28
f 15 28 23
f 16 24 40
f 16 40 29
f 16 29 17
f 17 29 30
f 18 20 31
f 18 31 19
f 19 31 32
f 19 32 25
f 20 33 31
f 21 34 22
f 22 34 36
f 22 36 37
f 22 37 38
f 22 38 35
f 23 28 24
f 24 39 59
f 24 59 40
f 24 28 39
f 25 32 26
f 26 32 27
f 27 41 42
f 27 42 39
f 27 39 28
f 27 32 41
f 29 40 43
f 29 43 44
f 29 44 45
f 29 45 46
f 29 46 47
f 29 47 48
f 29 48 30
f 30 48 47
f 30 47 46
f 30 46 45
f 30 45 44
f 30 44 43
f 30 43 62
f 30 62 61
f 30 61 60
f 30 60 72
f 30 72 71
f 30 71 70
f 30 70 64
f 30 64 63
f 30 63 54
f 30 54 53
f 30 53 52
f 30 52 51
f 30 51 50
f 30 50 65
f 30 65 49
f 31 33 50
f 31 50 51
f 31 51 52
f 31 52 53
f 31 53 54
f 31 54 32
f 32 54 41
f 35 38 55
f 38 56 57
f 38 57 58
f 38 58 55
f 39 42 59
f 40 59 60
f 40 60 61
f 40 61 62
f 40 62 43
f 41 54 63
f 41 63 42
f 42 63 64
f 42 64 59
f 49 65 66
f 56 67 57
f 57 67 69
f 57 69 68
f 59 64 70
f 59 70 71
f 59 71 72
f 59 72 60
f 65 73 66
f 66 73 69
f 68 69 74
f 69 73 75
f 69 75 74

