# https://github.com/mikedh/trimesh
v 0.00763539 -0.00752250 0.06370370
v 0.00751084 -0.00766963 0.06370370
v 0.00668773 -0.00752250 0.06370370
v 0.00750233 -0.00752250 0.07863961
v 0.00744740 -0.00758881 0.07863961
v 0.00720836 -0.00796785 0.06370370
v 0.00722538 -0.00782402 0.07863961
v 0.00714492 -0.00790913 0.07863961
v -0.00026772 -0.01030778 0.06370370
v -0.00026772 -0.01025895 0.06389378
v -0.00026772 -0.01014448 0.06433974
v -0.00026772 -0.01011809 0.06456784
v -0.00026772 -0.01001186 0.06549338
v -0.00026772 -0.00997855 0.06578435
v -0.00026772 -0.00994259 0.06609871
v -0.00026772 -0.00990960 0.06638822
v -0.00026772 -0.00987760 0.06670404
v -0.00026772 -0.00977665 0.06791324
v 0.00593965 -0.00752250 0.06791324
v 0.00653533 -0.00752250 0.07863961
v 0.00687803 -0.00825750 0.06370370
v 0.00677282 -0.00821164 0.07863961
v -0.00026772 -0.01089268 0.06370370
v -0.00026772 -0.01011677 0.07863961
v 0.00594352 -0.00752250 0.06805946
v 0.00686256 -0.00827003 0.06370370
v 0.00655080 -0.00836834 0.07863961
v 0.00614930 -0.00877840 0.06370370
v 0.00656008 -0.00848842 0.06370370
v 0.00685018 -0.00827927 0.06370370
v 0.00002238 -0.01087585 0.06370370
v -0.00015554 -0.01078744 0.07863961
v -0.00026772 -0.01079206 0.07863961
v 0.00647034 -0.00842508 0.07863961
v 0.00582826 -0.00900404 0.06370370
v 0.00543604 -0.00915382 0.07863961
v 0.00004946 -0.01087354 0.06370370
v 0.00183725 -0.01053309 0.07863961
v 0.00064591 -0.01081977 0.06370370
v 0.00068613 -0.01081614 0.06370370
v 0.00508483 -0.00949954 0.06370370
v 0.00497807 -0.00945567 0.07863961
v 0.00228130 -0.01046876 0.07863961
v 0.00186278 -0.01063932 0.06370370
v 0.00244221 -0.01044534 0.07863961
v 0.00478235 -0.00968230 0.06370370
v 0.00475605 -0.00958135 0.07863961
v 0.00244221 -0.01052914 0.06370370
v 0.00299301 -0.01026258 0.07863961
v 0.00304871 -0.01035231 0.06370370
v 0.00344557 -0.01020650 0.06370370
v 0.00467559 -0.00962688 0.07863961
v 0.00425630 -0.00979842 0.07863961
v 0.00306805 -0.01034539 0.06370370
f 1 2 6
f 1 6 21
f 1 21 26
f 1 26 30
f 1 30 29
f 1 29 28
f 1 28 35
f 1 35 41
f 1 41 46
f 1 46 51
f 1 51 54
f 1 54 50
f 1 50 48
f 1 48 44
f 1 44 40
f 1 40 39
f 1 39 37
f 1 37 31
f 1 31 23
f 1 23 9
f 1 9 3
f 1 3 19
f 1 19 25
f 1 25 20
f 1 20 4
f 1 4 5
f 1 5 2
f 2 5 7
f 2 7 8
f 2 8 6
f 3 9 10
f 3 10 11
f 3 11 12
f 3 12 13
f 3 13 14
f 3 14 15
f 3 15 16
f 3 16 17
f 3 17 18
f 3 18 19
f 4 20 24
f 4 24 33
f 4 33 32
f 4 32 38
f 4 38 43
f 4 43 45
f 4 45 49
f 4 49 53
f 4 53 52
f 4 52 47
f 4 47 42
f 4 42 36
f 4 36 34
f 4 34 27
f 4 27 22
f 4 22 8
f 4 8 7
f 4 7 5
f 6 8 21
f 8 22 21
f 9 23 33
f 9 33 24
f 9 24 18
f 9 18 17
f 9 17 16
f 9 16 15
f 9 15 14
f 9 14 13
f 9 13 12
f 9 12 11
f 9 11 10
f 18 24 20
f 18 20 25
f 18 25 19
f 21 22 26
f 22 27 28
f 22 28 29
f 22 29 30
f 22 30 26
f 23 31 32
f 23 32 33
f 27 34 28
f 28 34 36
f 28 36 35
f 31 37 32
f 32 37 39
f 32 39 40
f 32 40 38
f 35 36 41
f 36 42 41
f 38 40 43
f 40 44 45
f 40 45 43
f 41 42 46
f 42 47 46
f 44 48 45
f 45 48 50
f 45 50 49
f 46 47 52
f 46 52 53
f 46 53 51
f 49 50 54
f 49 54 53
f 51 53 54

