# https://github.com/mikedh/trimesh
v -0.00027652 0.01101886 0.09755665
v -0.00041096 0.01101296 0.09755665
v -0.00027652 0.01034100 0.09755665
v -0.00027652 0.01101886 0.07864107
v -0.00029578 0.01101802 0.07864107
v -0.00239754 0.01078589 0.09694934
v -0.00239754 0.01075866 0.09755480
v -0.00239908 0.01075838 0.09755665
v -0.00041096 0.01101296 0.07864107
v -0.00421039 0.00954105 0.09755665
v -0.00421193 0.00828190 0.09623093
v -0.00027652 0.00909223 0.09620501
v -0.00027652 0.01034381 0.07864107
v -0.00300272 0.01067698 0.09694934
v -0.00300272 0.01067109 0.09755480
v -0.00239754 0.01075866 0.07864107
v -0.00300272 0.01067109 0.07864107
v -0.00300388 0.01067081 0.09755665
v -0.00421193 0.01020150 0.09755665
v -0.00421193 0.00954077 0.09755480
v -0.00421193 0.00815503 0.09578100
v -0.00421193 0.00815166 0.09575693
v -0.00027652 0.00906922 0.09597541
v -0.00421193 0.00954245 0.07864292
v -0.00384790 0.00967269 0.07864107
v -0.00027652 0.00905125 0.09573841
v -0.00355475 0.01048808 0.09755665
v -0.00355475 0.01048808 0.07864107
v -0.00421193 0.01021750 0.09694748
v -0.00421193 0.01020150 0.07864107
f 1 2 8
f 1 8 18
f 1 18 27
f 1 27 19
f 1 19 10
f 1 10 3
f 1 3 12
f 1 12 23
f 1 23 26
f 1 26 13
f 1 13 4
f 1 4 5
f 1 5 2
f 2 6 7
f 2 7 8
f 2 5 9
f 2 9 6
f 3 10 11
f 3 11 12
f 4 13 25
f 4 25 30
f 4 30 28
f 4 28 17
f 4 17 16
f 4 16 9
f 4 9 5
f 6 14 15
f 6 15 8
f 6 8 7
f 6 9 16
f 6 16 17
f 6 17 14
f 8 15 18
f 10 19 20
f 10 20 11
f 11 20 19
f 11 19 29
f 11 29 30
f 11 30 24
f 11 24 22
f 11 22 21
f 11 21 12
f 12 21 22
f 12 22 23
f 13 24 25
f 13 26 22
f 13 22 24
f 14 27 18
f 14 18 15
f 14 17 28
f 14 28 27
f 19 27 29
f 22 26 23
f 24 30 25
f 27 28 29
f 28 30 29

