# https://github.com/mikedh/trimesh
v -0.00421193 0.00816794 0.10998293
v -0.00421193 0.00885022 0.10997986
v -0.00421284 0.00885022 0.10998293
v -0.00620615 0.00681106 0.10998293
v -0.00447090 0.00795652 0.09608525
v -0.00421193 0.00815160 0.09575699
v -0.00421193 0.01021411 0.10299727
v -0.00467999 0.00866881 0.10998293
v -0.00519884 0.00983195 0.10337463
v -0.00715722 0.00681106 0.10998293
v -0.00619164 0.00681106 0.09596254
v -0.00447090 0.00795652 0.09597174
v -0.00797813 0.00681106 0.07864107
v -0.00421193 0.00954217 0.07864414
v -0.00481786 0.01002436 0.10299727
v -0.00421193 0.01021744 0.09694734
v -0.00421284 0.01021744 0.09694734
v -0.00498250 0.00848874 0.10998293
v -0.00523784 0.00985229 0.10299727
v -0.00554035 0.00968122 0.10299727
v -0.00599797 0.00937877 0.10299727
v -0.00699939 0.00862713 0.10337463
v -0.00706516 0.00692043 0.10998293
v -0.00879360 0.00682006 0.10336849
v -0.00880222 0.00681106 0.10335929
v -0.00619164 0.00681106 0.09582755
v -0.00884485 0.00681106 0.07864107
v -0.00421284 0.00954183 0.07864107
v -0.00421193 0.01020143 0.07864107
v -0.00481786 0.01002436 0.07864107
v -0.00421284 0.01020143 0.07864107
v -0.00542289 0.00819162 0.10998293
v -0.00523784 0.00985229 0.07864107
v -0.00531812 0.00980694 0.07864107
v -0.00554035 0.00968122 0.07864107
v -0.00587643 0.00945913 0.07864107
v -0.00703205 0.00865014 0.10299727
v -0.00599797 0.00937877 0.07864107
v -0.00733456 0.00843672 0.10299727
v -0.00765068 0.00808157 0.10344519
v -0.00676582 0.00722289 0.10998293
v -0.00660164 0.00735561 0.10998293
v -0.00646421 0.00746666 0.10998293
v -0.00626874 0.00760471 0.10998293
v -0.00587098 0.00788516 0.10998293
v -0.00573265 0.00798220 0.10998293
v -0.00559160 0.00807757 0.10998293
v -0.00800852 0.00781380 0.10299727
v -0.00822214 0.00746499 0.10341145
v -0.00881582 0.00684640 0.10299727
v -0.00884485 0.00681106 0.10299727
v -0.00881582 0.00684640 0.07864107
v -0.00703205 0.00865014 0.07864107
v -0.00770601 0.00813393 0.10299727
v -0.00733456 0.00843672 0.07864107
v -0.00760714 0.00821463 0.07864107
v -0.00800852 0.00781380 0.07864107
v -0.00819402 0.00759171 0.07864107
v -0.00770601 0.00813393 0.07864107
f 1 2 3
f 1 3 8
f 1 8 18
f 1 18 32
f 1 32 47
f 1 47 46
f 1 46 45
f 1 45 44
f 1 44 43
f 1 43 42
f 1 42 41
f 1 41 23
f 1 23 10
f 1 10 4
f 1 4 5
f 1 5 6
f 1 6 14
f 1 14 29
f 1 29 16
f 1 16 7
f 1 7 2
f 2 7 3
f 3 7 9
f 3 9 8
f 4 10 25
f 4 25 51
f 4 51 27
f 4 27 13
f 4 13 26
f 4 26 11
f 4 11 5
f 5 11 26
f 5 26 12
f 5 12 6
f 6 12 13
f 6 13 14
f 7 15 9
f 7 16 17
f 7 17 15
f 8 9 18
f 9 15 19
f 9 19 20
f 9 20 21
f 9 21 22
f 9 22 18
f 10 23 24
f 10 24 25
f 12 26 13
f 13 27 52
f 13 52 58
f 13 58 57
f 13 57 59
f 13 59 56
f 13 56 55
f 13 55 53
f 13 53 38
f 13 38 36
f 13 36 35
f 13 35 34
f 13 34 33
f 13 33 30
f 13 30 31
f 13 31 29
f 13 29 28
f 13 28 14
f 14 28 29
f 15 17 30
f 15 30 33
f 15 33 19
f 16 29 31
f 16 31 17
f 17 31 30
f 18 22 32
f 19 33 34
f 19 34 20
f 20 34 35
f 20 35 36
f 20 36 21
f 21 37 22
f 21 36 38
f 21 38 53
f 21 53 37
f 22 37 39
f 22 39 40
f 22 40 41
f 22 41 42
f 22 42 43
f 22 43 44
f 22 44 45
f 22 45 46
f 22 46 47
f 22 47 32
f 23 41 40
f 23 40 48
f 23 48 49
f 23 49 24
f 24 49 48
f 24 48 25
f 25 48 50
f 25 50 51
f 27 51 50
f 27 50 52
f 37 53 55
f 37 55 39
f 39 54 40
f 39 55 56
f 39 56 54
f 40 54 48
f 48 54 59
f 48 59 57
f 48 57 58
f 48 58 50
f 50 58 52
f 54 56 59

