# https://github.com/mikedh/trimesh
v -0.00379321 -0.01022243 0.10039465
v -0.00392244 -0.01017679 0.10039465
v -0.00379321 -0.00950357 0.10039465
v -0.00379321 -0.01022243 0.10300033
v -0.00413183 -0.01008001 0.10039465
v -0.00392244 -0.01017679 0.10300033
v -0.00690691 -0.00764579 0.10039465
v -0.00690691 -0.00595578 0.10453502
v -0.00379321 -0.00815883 0.10452000
v -0.00379321 -0.01019707 0.10334763
v -0.00391848 -0.01017510 0.10331009
v -0.00481760 -0.00976263 0.10039465
v -0.00422479 -0.01003690 0.10300033
v -0.00481760 -0.00976263 0.10300033
v -0.00690691 -0.00851214 0.10039465
v -0.00690691 -0.00593042 0.10481474
v -0.00379321 -0.00808741 0.10480817
v -0.00379321 -0.00879697 0.10998293
v -0.00516079 -0.00958514 0.10333824
v -0.00518091 -0.00959443 0.10300033
v -0.00464357 -0.00841578 0.10998293
v -0.00518091 -0.00959443 0.10039465
v -0.00673014 -0.00865963 0.10039465
v -0.00690691 -0.00851214 0.10300033
v -0.00690691 -0.00593000 0.10483820
v -0.00690661 -0.00590549 0.10541922
v -0.00379321 -0.00807389 0.10541922
v -0.00379321 -0.00807389 0.10998293
v -0.00634275 -0.00897193 0.10332041
v -0.00548295 -0.00944863 0.10300033
v -0.00480785 -0.00832872 0.10998293
v -0.00548295 -0.00944863 0.10039465
v -0.00634915 -0.00897700 0.10039465
v -0.00634915 -0.00897700 0.10300033
v -0.00665150 -0.00872513 0.10300033
v -0.00690691 -0.00843860 0.10340301
v -0.00690691 -0.00620427 0.10998293
v -0.00690661 -0.00590549 0.10998293
v -0.00602730 -0.00916168 0.10300033
v -0.00494592 -0.00825519 0.10998293
v -0.00542230 -0.00798303 0.10998293
v -0.00576061 -0.00778187 0.10998293
v -0.00592519 -0.00764452 0.10998293
v -0.00658993 -0.00708964 0.10998293
v -0.00672800 -0.00697426 0.10998293
v -0.00690691 -0.00682382 0.10998293
v -0.00565028 -0.00936073 0.10039465
v -0.00612635 -0.00910505 0.10039465
v -0.00602730 -0.00916168 0.10039465
f 1 2 5
f 1 5 12
f 1 12 22
f 1 22 32
f 1 32 47
f 1 47 49
f 1 49 48
f 1 48 33
f 1 33 23
f 1 23 15
f 1 15 7
f 1 7 3
f 1 3 9
f 1 9 17
f 1 17 27
f 1 27 28
f 1 28 18
f 1 18 10
f 1 10 4
f 1 4 6
f 1 6 2
f 2 6 5
f 3 7 8
f 3 8 9
f 4 10 11
f 4 11 6
f 5 6 13
f 5 13 14
f 5 14 12
f 6 11 13
f 7 15 24
f 7 24 36
f 7 36 46
f 7 46 37
f 7 37 25
f 7 25 16
f 7 16 8
f 8 16 17
f 8 17 9
f 10 18 11
f 11 19 20
f 11 20 14
f 11 14 13
f 11 18 21
f 11 21 19
f 12 14 20
f 12 20 22
f 15 23 24
f 16 25 26
f 16 26 17
f 17 26 27
f 18 28 38
f 18 38 37
f 18 37 46
f 18 46 45
f 18 45 44
f 18 44 43
f 18 43 42
f 18 42 41
f 18 41 40
f 18 40 31
f 18 31 21
f 19 29 30
f 19 30 20
f 19 21 29
f 20 30 32
f 20 32 22
f 21 31 29
f 23 33 34
f 23 34 35
f 23 35 24
f 24 35 29
f 24 29 36
f 25 37 38
f 25 38 26
f 26 38 28
f 26 28 27
f 29 35 34
f 29 34 39
f 29 39 30
f 29 31 40
f 29 40 41
f 29 41 42
f 29 42 43
f 29 43 44
f 29 44 45
f 29 45 46
f 29 46 36
f 30 39 47
f 30 47 32
f 33 48 34
f 34 48 39
f 39 48 49
f 39 49 47

