# https://github.com/mikedh/trimesh
v 0.00329544 0.00969295 0.09753432
v -0.00027617 0.00969295 0.09650696
v -0.00027617 0.00948898 0.09643264
v -0.00027617 0.00929294 0.09632055
v -0.00027617 0.00909206 0.09620557
v 0.00329544 0.00842525 0.09621913
v 0.00329544 0.00969295 0.09333991
v -0.00027617 0.00969295 0.09453233
v -0.00027617 0.00906892 0.09597563
v 0.00329544 0.00831855 0.09571530
v 0.00329544 0.00862303 0.09492118
v -0.00027617 0.00929577 0.09503410
v -0.00027617 0.00959823 0.09463252
v -0.00027617 0.00905116 0.09573994
v -0.00027617 0.00909798 0.09553422
v -0.00027617 0.00914561 0.09533631
v 0.00329544 0.00840627 0.09539749
v 0.00329544 0.00846346 0.09521600
v -0.00027617 0.00921961 0.09518726
f 1 2 3
f 1 3 4
f 1 4 5
f 1 5 6
f 1 6 10
f 1 10 17
f 1 17 18
f 1 18 11
f 1 11 7
f 1 7 8
f 1 8 2
f 2 8 13
f 2 13 12
f 2 12 19
f 2 19 16
f 2 16 15
f 2 15 14
f 2 14 9
f 2 9 5
f 2 5 4
f 2 4 3
f 5 9 10
f 5 10 6
f 7 11 12
f 7 12 13
f 7 13 8
f 9 14 10
f 10 14 15
f 10 15 16
f 10 16 17
f 11 18 12
f 12 18 19
f 16 19 18
f 16 18 17

