# https://github.com/mikedh/trimesh
v 0.00639659 0.00604188 0.09584298
v 0.00639659 0.00606377 0.09614184
v 0.00631949 0.00610797 0.09612093
v 0.00329575 0.00831829 0.09571576
v 0.00639659 0.00607407 0.09571402
v 0.00639659 0.00782858 0.10186384
v 0.00329575 0.00970156 0.10186384
v 0.00329575 0.00842473 0.09621939
v 0.00329575 0.00840584 0.09539773
v 0.00329575 0.00846335 0.09521649
v 0.00329575 0.00862258 0.09492111
v 0.00639659 0.00638480 0.09514940
v 0.00639659 0.00869511 0.10186384
v 0.00329575 0.01042603 0.10186384
v 0.00329575 0.00970070 0.09296237
v 0.00639659 0.00782730 0.09296237
v 0.00609061 0.00895005 0.10186384
v 0.00639659 0.00869511 0.09296237
v 0.00329575 0.01042603 0.09296237
v 0.00332367 0.01041615 0.10186384
v 0.00582530 0.00917108 0.10186384
v 0.00609061 0.00895005 0.09296237
v 0.00336223 0.01040242 0.09296237
v 0.00336223 0.01040242 0.10186384
v 0.00578796 0.00920198 0.10186384
v 0.00578796 0.00920198 0.09296237
v 0.00348577 0.01034534 0.09296237
v 0.00339956 0.01038525 0.10186384
v 0.00574850 0.00922473 0.10186384
v 0.00565682 0.00927752 0.09296237
v 0.00447203 0.00988825 0.09296237
v 0.00462017 0.00981958 0.10186384
v 0.00546619 0.00938696 0.10186384
v 0.00546619 0.00938696 0.09296237
v 0.00462017 0.00981958 0.09296237
v 0.00492251 0.00967366 0.10186384
v 0.00524429 0.00950413 0.09296237
v 0.00492251 0.00967366 0.09296237
f 1 2 3
f 1 3 4
f 1 4 5
f 1 5 12
f 1 12 16
f 1 16 18
f 1 18 13
f 1 13 6
f 1 6 2
f 2 6 7
f 2 7 3
f 3 7 8
f 3 8 4
f 4 8 7
f 4 7 14
f 4 14 19
f 4 19 15
f 4 15 11
f 4 11 10
f 4 10 9
f 4 9 5
f 5 9 10
f 5 10 11
f 5 11 12
f 6 13 17
f 6 17 21
f 6 21 25
f 6 25 29
f 6 29 33
f 6 33 36
f 6 36 32
f 6 32 28
f 6 28 24
f 6 24 20
f 6 20 14
f 6 14 7
f 11 15 12
f 12 15 16
f 13 18 22
f 13 22 17
f 14 20 19
f 15 19 23
f 15 23 27
f 15 27 31
f 15 31 35
f 15 35 38
f 15 38 37
f 15 37 34
f 15 34 30
f 15 30 26
f 15 26 22
f 15 22 18
f 15 18 16
f 17 22 21
f 19 20 23
f 20 24 23
f 21 22 26
f 21 26 25
f 23 24 28
f 23 28 27
f 25 26 29
f 26 30 29
f 27 28 32
f 27 32 31
f 29 30 33
f 30 34 33
f 31 32 35
f 32 36 38
f 32 38 35
f 33 34 37
f 33 37 36
f 36 37 38

