# https://github.com/mikedh/trimesh
v -0.00111326 -0.02708882 0.03145723
v -0.00028126 -0.02704822 0.03145723
v -0.00028126 -0.02701114 0.03170411
v -0.00111326 -0.02704998 0.03170411
v -0.00277511 -0.02694758 0.03145723
v -0.00028126 -0.02543987 0.03145723
v -0.00028126 -0.02668629 0.03341344
v -0.00111326 -0.02673396 0.03336741
v -0.00277511 -0.02690698 0.03170411
v -0.00207342 -0.02651151 0.03425032
v -0.00302183 -0.02690521 0.03145723
v -0.01119120 -0.02265220 0.03145723
v -0.01119120 -0.00905278 0.04861116
v -0.00028126 -0.01286090 0.05031839
v -0.00028126 -0.02656271 0.03404946
v -0.00111326 -0.02652211 0.03427751
v -0.00442949 -0.02662450 0.03168737
v -0.00268647 -0.02661391 0.03333184
v -0.00386878 -0.02653446 0.03275648
v -0.00609990 -0.02497555 0.03621071
v -0.00609990 -0.02545929 0.03503071
v -0.00771903 -0.02512562 0.03507046
v -0.00776282 -0.02562525 0.03336741
v -0.00111326 -0.02498615 0.03789492
v -0.00277511 -0.02491023 0.03771709
v -0.00364983 -0.02483432 0.03754134
v -0.00443056 -0.02666158 0.03145723
v -0.01119120 -0.02465601 0.03145723
v -0.01119120 -0.00905278 0.05173481
v -0.01116663 -0.00905278 0.04862999
v -0.00028126 -0.01251840 0.05098580
v -0.00028126 -0.02651328 0.03425659
v -0.00486525 -0.02658566 0.03145723
v -0.00465378 -0.02662274 0.03145723
v -0.00713482 -0.02487845 0.03598266
v -0.00729395 -0.02327894 0.03937411
v -0.00894086 -0.02498438 0.03454531
v -0.00781409 -0.02355965 0.03844099
v -0.00946740 -0.02511326 0.03329000
v -0.00942574 -0.02543634 0.03170411
v -0.00942574 -0.02547342 0.03145723
v -0.00775641 -0.02590066 0.03145723
v -0.00028126 -0.02496849 0.03785726
v -0.00028126 -0.02477076 0.03827361
v -0.00028126 -0.02456773 0.03868787
v -0.00111326 -0.02457656 0.03872762
v -0.00277511 -0.02451653 0.03854978
v -0.00609990 -0.02340782 0.03957914
v -0.01057388 -0.02497379 0.03145723
v -0.01119120 -0.02461893 0.03165180
v -0.01119120 -0.00905631 0.05174945
v -0.01108653 -0.00905278 0.05186034
v -0.01038377 -0.00905278 0.04934552
v -0.00028126 -0.01218119 0.05165530
v -0.00609990 -0.02286052 0.04041184
v -0.00659760 -0.02142166 0.04242872
v -0.00776282 -0.02181360 0.04130939
v -0.00781409 -0.02269104 0.03996411
v -0.00840257 -0.02306708 0.03905400
v -0.01069136 -0.02336544 0.03629439
v -0.01118265 -0.02365498 0.03512485
v -0.01119120 -0.02429232 0.03330255
v -0.01004947 -0.02468778 0.03379422
v -0.00902844 -0.02336544 0.03794514
v -0.01032823 -0.02486080 0.03268535
v -0.01052688 -0.02495084 0.03170411
v -0.00963615 -0.02538691 0.03145723
v -0.00028126 -0.02417933 0.03937411
v -0.00028126 -0.02380858 0.04001851
v -0.00111326 -0.02383330 0.04001851
v -0.00224537 -0.02321538 0.04093070
v -0.00279007 -0.02361261 0.04014404
v -0.00443804 -0.02355258 0.03980301
v -0.01011249 -0.00972543 0.05234364
v -0.01119120 -0.01584984 0.04614655
v -0.00944176 -0.00905278 0.05270978
v -0.00965110 -0.00905278 0.05010289
v -0.00831286 -0.00905278 0.05171179
v -0.00776282 -0.00943589 0.05273488
v -0.00028126 -0.01250957 0.05273906
v -0.00606572 -0.02194601 0.04179897
v -0.00776282 -0.02120804 0.04213999
v -0.00549005 -0.02153818 0.04255843
v -0.00443804 -0.02013464 0.04454393
v -0.00609990 -0.01996515 0.04433052
v -0.00697354 -0.01985746 0.04419453
v -0.00880522 -0.02159821 0.04098929
v -0.01075010 -0.02172356 0.03951429
v -0.01119120 -0.02206076 0.03848911
v -0.01119120 -0.02364615 0.03513322
v -0.01119120 -0.02365322 0.03511648
v -0.01119120 -0.02202898 0.03854978
v -0.00028126 -0.02323657 0.04096209
v -0.00111326 -0.02325069 0.04098510
v -0.00111326 -0.02268750 0.04181570
v -0.00277511 -0.02177123 0.04285134
v -0.00900387 -0.01020563 0.05274115
v -0.01119120 -0.01689323 0.04516949
v -0.01044785 -0.01663194 0.04594779
v -0.00829577 -0.01131435 0.05223275
v -0.00935525 -0.00905278 0.05274535
v -0.00913738 -0.00905278 0.05274324
v -0.00443804 -0.01121195 0.05280811
v -0.00028126 -0.01341879 0.05273906
v -0.00762184 -0.02028117 0.04334301
v -0.00912029 -0.02008167 0.04279067
v -0.01022890 -0.01981685 0.04249358
v -0.00951759 -0.02071195 0.04174248
v -0.00277511 -0.02111094 0.04368404
v -0.00443804 -0.02096617 0.04350411
v -0.00277511 -0.02027940 0.04472386
v -0.00277511 -0.01959264 0.04555655
v -0.00443804 -0.01944257 0.04537453
v -0.00609990 -0.01924660 0.04516113
v -0.00609990 -0.01841507 0.04607542
v -0.00710598 -0.01825265 0.04591013
v -0.00821460 -0.01799842 0.04564652
v -0.00942574 -0.01845921 0.04449999
v -0.00808216 -0.01960146 0.04389953
v -0.01108760 -0.02023880 0.04140145
v -0.00991383 -0.02134222 0.04062106
v -0.01119120 -0.02116214 0.04001641
v -0.01119120 -0.02113213 0.04006035
v -0.00028126 -0.02267515 0.04179478
v -0.00028126 -0.02225850 0.04237223
v -0.00028126 -0.02184361 0.04294340
v -0.00111326 -0.02185597 0.04296014
v -0.00111326 -0.02119745 0.04379074
v -0.00609990 -0.01194462 0.05283112
v -0.00718715 -0.01167980 0.05264491
v -0.01119120 -0.01756058 0.04450627
v -0.01038484 -0.01823676 0.04424265
v -0.00942574 -0.01771418 0.04533059
v -0.00620136 -0.01066642 0.05280811
v -0.00111326 -0.01341879 0.05274115
v -0.00111326 -0.01968091 0.04566744
v -0.00028126 -0.01967208 0.04565488
v -0.01108760 -0.01961912 0.04222996
v -0.01099895 -0.01870107 0.04336811
v -0.00111326 -0.02036591 0.04483684
v -0.00277511 -0.01331286 0.05262817
v -0.00372032 -0.01322282 0.05252775
v -0.00482894 -0.01303921 0.05228296
v -0.01119120 -0.01965266 0.04211907
v -0.01119120 -0.02021408 0.04136797
v -0.00028126 -0.02118685 0.04377609
v -0.00028126 -0.02035532 0.04482428
v -0.01119120 -0.01840448 0.04358989
v -0.00028126 -0.02001458 0.04524063
v -0.01119120 -0.01866577 0.04329070
f 1 2 3
f 1 3 4
f 1 4 5
f 1 5 11
f 1 11 27
f 1 27 34
f 1 34 33
f 1 33 42
f 1 42 41
f 1 41 67
f 1 67 49
f 1 49 28
f 1 28 12
f 1 12 6
f 1 6 2
f 2 6 14
f 2 14 31
f 2 31 54
f 2 54 80
f 2 80 104
f 2 104 137
f 2 137 149
f 2 149 147
f 2 147 146
f 2 146 126
f 2 126 125
f 2 125 124
f 2 124 93
f 2 93 69
f 2 69 68
f 2 68 45
f 2 45 44
f 2 44 43
f 2 43 32
f 2 32 15
f 2 15 7
f 2 7 3
f 3 7 8
f 3 8 4
f 4 9 5
f 4 8 10
f 4 10 9
f 5 9 11
f 6 12 13
f 6 13 14
f 7 15 8
f 8 15 16
f 8 16 10
f 9 17 11
f 9 10 18
f 9 18 19
f 9 19 17
f 10 20 21
f 10 21 22
f 10 22 23
f 10 23 19
f 10 19 18
f 10 16 24
f 10 24 25
f 10 25 26
f 10 26 20
f 11 17 27
f 12 28 50
f 12 50 62
f 12 62 91
f 12 91 90
f 12 90 89
f 12 89 92
f 12 92 122
f 12 122 123
f 12 123 145
f 12 145 144
f 12 144 150
f 12 150 148
f 12 148 131
f 12 131 98
f 12 98 75
f 12 75 51
f 12 51 29
f 12 29 13
f 13 29 52
f 13 52 76
f 13 76 101
f 13 101 102
f 13 102 78
f 13 78 77
f 13 77 53
f 13 53 30
f 13 30 14
f 14 30 31
f 15 32 16
f 16 32 24
f 17 19 33
f 17 33 34
f 17 34 27
f 19 23 33
f 20 35 21
f 20 26 36
f 20 36 35
f 21 35 22
f 22 37 23
f 22 35 38
f 22 38 37
f 23 37 39
f 23 39 40
f 23 40 41
f 23 41 42
f 23 42 33
f 24 43 44
f 24 44 45
f 24 45 46
f 24 46 47
f 24 47 25
f 24 32 43
f 25 47 26
f 26 47 48
f 26 48 36
f 28 49 50
f 29 51 52
f 30 53 54
f 30 54 31
f 35 36 38
f 36 48 55
f 36 55 56
f 36 56 57
f 36 57 58
f 36 58 59
f 36 59 38
f 37 60 61
f 37 61 62
f 37 62 63
f 37 63 39
f 37 38 59
f 37 59 64
f 37 64 60
f 39 63 62
f 39 62 65
f 39 65 40
f 40 65 66
f 40 66 49
f 40 49 67
f 40 67 41
f 45 68 46
f 46 68 69
f 46 69 70
f 46 70 71
f 46 71 72
f 46 72 47
f 47 73 48
f 47 72 73
f 48 73 71
f 48 71 55
f 49 66 50
f 50 66 65
f 50 65 62
f 51 74 52
f 51 75 74
f 52 74 76
f 53 77 54
f 54 78 79
f 54 79 80
f 54 77 78
f 55 71 81
f 55 81 56
f 56 82 57
f 56 81 83
f 56 83 84
f 56 84 85
f 56 85 86
f 56 86 82
f 57 82 87
f 57 87 59
f 57 59 58
f 59 87 88
f 59 88 64
f 60 64 89
f 60 89 61
f 61 89 90
f 61 90 91
f 61 91 62
f 64 88 92
f 64 92 89
f 69 93 94
f 69 94 70
f 70 94 71
f 71 83 81
f 71 73 72
f 71 94 95
f 71 95 96
f 71 96 83
f 74 97 76
f 74 75 97
f 75 98 99
f 75 99 100
f 75 100 97
f 76 97 101
f 78 102 79
f 79 102 103
f 79 103 80
f 80 103 104
f 82 86 105
f 82 105 106
f 82 106 107
f 82 107 108
f 82 108 87
f 83 96 109
f 83 109 110
f 83 110 84
f 84 110 109
f 84 109 111
f 84 111 112
f 84 112 113
f 84 113 85
f 85 113 114
f 85 114 86
f 86 114 115
f 86 115 116
f 86 116 117
f 86 117 118
f 86 118 119
f 86 119 106
f 86 106 105
f 87 108 120
f 87 120 121
f 87 121 88
f 88 122 92
f 88 121 123
f 88 123 122
f 93 124 94
f 94 124 95
f 95 124 125
f 95 125 126
f 95 126 127
f 95 127 96
f 96 127 128
f 96 128 109
f 97 129 101
f 97 100 130
f 97 130 129
f 98 131 99
f 99 131 132
f 99 132 133
f 99 133 117
f 99 117 130
f 99 130 100
f 101 129 134
f 101 134 102
f 102 134 103
f 103 134 129
f 103 129 104
f 104 129 135
f 104 135 136
f 104 136 137
f 106 119 118
f 106 118 132
f 106 132 107
f 107 138 108
f 107 132 139
f 107 139 138
f 108 138 120
f 109 128 140
f 109 140 111
f 111 140 136
f 111 136 112
f 112 136 135
f 112 135 141
f 112 141 113
f 113 141 142
f 113 142 114
f 114 142 115
f 115 142 116
f 116 142 143
f 116 143 130
f 116 130 117
f 117 133 118
f 118 133 132
f 120 138 144
f 120 144 145
f 120 145 121
f 121 145 123
f 126 146 127
f 127 146 128
f 128 146 147
f 128 147 140
f 129 130 143
f 129 143 142
f 129 142 141
f 129 141 135
f 131 148 132
f 132 148 139
f 136 140 149
f 136 149 137
f 138 139 150
f 138 150 144
f 139 148 150
f 140 147 149

