# https://github.com/mikedh/trimesh
v 0.01216249 0.01043686 0.04667288
v 0.01238332 0.01044180 0.04649139
v 0.01238332 0.01043686 0.04687705
v 0.00944929 0.01043686 0.04863422
v -0.00029070 0.01240695 0.05165563
v -0.00029070 0.01274793 0.05097710
v -0.00029070 0.01308726 0.05031713
v -0.00029070 0.01337058 0.04989640
v -0.00029070 0.02562927 0.03176173
v 0.01238332 0.02201360 0.03176173
v 0.01238332 0.01043686 0.04910032
v 0.00781417 0.01043686 0.05004078
v 0.00615300 0.01043686 0.05166182
v 0.00589744 0.01043686 0.05201449
v 0.00596691 0.01043686 0.05267858
v 0.00252920 0.01165911 0.05261465
v -0.00029070 0.01256838 0.05219186
v -0.00029070 0.02722544 0.03176173
v 0.01238332 0.02400675 0.03176173
v 0.01238332 0.01116000 0.04863628
v 0.00926568 0.01043686 0.05205780
v 0.00719263 0.01043686 0.05276315
v 0.00564063 0.01089150 0.05280852
v 0.00387650 0.01143673 0.05280852
v -0.00029070 0.01273475 0.05273839
v 0.00055043 0.02726497 0.03176173
v -0.00029070 0.02691246 0.03341371
v 0.00995174 0.02517134 0.03176173
v 0.01238332 0.02373825 0.03324666
v 0.01238332 0.01236412 0.04783607
v 0.00844688 0.01043686 0.05273220
v 0.01238332 0.01280558 0.04753702
v 0.01238332 0.01361272 0.04694511
v 0.01238332 0.01414148 0.04655326
v 0.01238332 0.01445611 0.04630783
v 0.00842951 0.01043686 0.05274251
v 0.00553891 0.01217140 0.05283120
v 0.00718767 0.01096068 0.05278170
v -0.00029070 0.01364402 0.05273839
v 0.00215578 0.02712825 0.03176173
v 0.00055043 0.02696023 0.03336628
v 0.00151190 0.02673786 0.03425105
v -0.00029070 0.02678563 0.03405718
v 0.00886497 0.02565069 0.03176173
v 0.00976689 0.02508569 0.03268568
v 0.01238332 0.02372178 0.03333741
v 0.00773354 0.01154051 0.05223310
v 0.00662568 0.01190619 0.05264559
v 0.01238332 0.01575906 0.04520239
v 0.01170223 0.01536044 0.04605622
v 0.01099385 0.01646902 0.04559012
v 0.00055043 0.01364567 0.05274045
v 0.00426605 0.01326516 0.05228260
v 0.00315819 0.01344965 0.05252803
v 0.00221408 0.01353860 0.05262909
v 0.00055043 0.01990679 0.04566849
v -0.00029070 0.01989691 0.04565611
v 0.00221036 0.02712331 0.03176173
v -0.00029070 0.02673950 0.03425724
v 0.00055043 0.02674774 0.03427786
v 0.00553891 0.02520264 0.03621239
v 0.00553891 0.02568528 0.03503063
v 0.00715665 0.02535089 0.03507188
v 0.00720008 0.02585165 0.03336628
v 0.00330706 0.02676092 0.03275581
v 0.00212476 0.02683999 0.03333328
v 0.00055043 0.02521252 0.03789531
v 0.00221408 0.02513675 0.03771794
v 0.00880418 0.02566880 0.03176173
v 0.00890467 0.02533936 0.03328997
v 0.01228407 0.02375307 0.03339722
v 0.01238332 0.02368060 0.03349002
v 0.00988598 0.01685777 0.04594691
v 0.00765166 0.01822332 0.04564580
v 0.00654380 0.01848029 0.04590979
v 0.01238332 0.01593532 0.04503533
v 0.01173697 0.01705708 0.04448261
v 0.01093057 0.01816567 0.04394020
v 0.00221408 0.01981949 0.04555506
v 0.00553891 0.01864337 0.04607684
v 0.00553891 0.01947192 0.04516114
v 0.00387650 0.01966959 0.04537563
v 0.00055043 0.02059204 0.04483734
v -0.00029070 0.02023624 0.04524363
v 0.00382811 0.02684328 0.03176173
v -0.00029070 0.02519440 0.03785612
v 0.00657357 0.02510380 0.03598140
v 0.00308747 0.02505933 0.03754057
v 0.00673237 0.02350434 0.03937405
v 0.00837865 0.02521087 0.03454391
v 0.00725218 0.02378602 0.03844184
v 0.00720008 0.02607073 0.03176173
v -0.00029070 0.02499509 0.03827685
v 0.00055043 0.02480236 0.03872645
v 0.00221408 0.02474306 0.03854909
v 0.01179279 0.02359000 0.03463259
v 0.01238332 0.02311724 0.03493989
v 0.00982271 0.01846382 0.04424131
v 0.00886373 0.01794000 0.04533026
v 0.00886373 0.01868619 0.04449911
v 0.00641105 0.02008305 0.04419594
v 0.01238332 0.01763032 0.04339779
v 0.01230020 0.01766491 0.04343078
v 0.01175433 0.01868619 0.04283063
v 0.01043681 0.01892669 0.04336891
v 0.00387650 0.02036143 0.04454448
v 0.00221408 0.02050474 0.04472391
v 0.00553891 0.02019176 0.04432999
v 0.00221408 0.02133659 0.04368446
v 0.00055043 0.02142389 0.04379171
v -0.00029070 0.02058051 0.04482497
v 0.00553891 0.02363448 0.03958029
v 0.00603515 0.02164791 0.04242846
v 0.00720008 0.02203831 0.04130858
v 0.00725218 0.02291628 0.03996389
v 0.00784023 0.02329350 0.03905438
v 0.01012914 0.02359165 0.03629489
v 0.00846549 0.02359165 0.03794481
v -0.00029070 0.02479248 0.03868727
v -0.00029070 0.02440208 0.03938023
v 0.00055043 0.02405946 0.04001752
v 0.00168311 0.02344175 0.04093116
v 0.00222773 0.02383873 0.04014332
v 0.00387650 0.02377943 0.03980303
v 0.01187964 0.02196912 0.03802524
v 0.01238332 0.02224421 0.03688679
v 0.00855854 0.02030707 0.04279144
v 0.00752015 0.01982772 0.04389895
v 0.00705989 0.02050638 0.04334417
v 0.00720008 0.02143377 0.04213972
v 0.01238332 0.01775386 0.04327404
v 0.01238332 0.01903541 0.04186336
v 0.01238332 0.01945545 0.04136426
v 0.01160422 0.02020329 0.04104665
v 0.01052614 0.01984420 0.04223253
v 0.00966640 0.02004186 0.04249240
v 0.00492605 0.02176487 0.04255633
v 0.00221408 0.02199713 0.04285125
v 0.00387650 0.02185382 0.04267182
v 0.00055043 0.02208278 0.04295849
v -0.00029070 0.02173851 0.04336479
v -0.00029070 0.02099232 0.04430730
v 0.00553891 0.02308595 0.04041143
v 0.00550417 0.02217173 0.04179737
v 0.00824218 0.02182417 0.04098890
v 0.01018869 0.02194936 0.03951429
v 0.01129655 0.02167757 0.03913275
v -0.00029070 0.02403475 0.04001752
v 0.00055043 0.02347634 0.04098478
v 0.00055043 0.02291299 0.04181593
v 0.01238332 0.02150296 0.03841916
v 0.00895429 0.02093796 0.04174168
v 0.01238332 0.02030542 0.04025882
v 0.01238332 0.02053768 0.03993708
v 0.01217118 0.02059039 0.04003608
v 0.01065640 0.02135306 0.04004845
v 0.01052614 0.02046520 0.04140138
v -0.00029070 0.02206961 0.04294406
v 0.00935128 0.02156885 0.04062180
v 0.01233618 0.02148813 0.03848928
v -0.00029070 0.02346152 0.04096209
v -0.00029070 0.02317819 0.04138283
v -0.00029070 0.02289981 0.04179324
v -0.00029070 0.02247977 0.04237896
f 1 2 3
f 1 3 11
f 1 11 21
f 1 21 31
f 1 31 36
f 1 36 22
f 1 22 15
f 1 15 14
f 1 14 13
f 1 13 12
f 1 12 4
f 1 4 2
f 2 4 5
f 2 5 6
f 2 6 7
f 2 7 8
f 2 8 9
f 2 9 10
f 2 10 19
f 2 19 29
f 2 29 46
f 2 46 72
f 2 72 97
f 2 97 126
f 2 126 151
f 2 151 154
f 2 154 153
f 2 153 133
f 2 133 132
f 2 132 131
f 2 131 102
f 2 102 76
f 2 76 49
f 2 49 35
f 2 35 34
f 2 34 33
f 2 33 32
f 2 32 30
f 2 30 20
f 2 20 11
f 2 11 3
f 4 12 5
f 5 12 13
f 5 13 14
f 5 14 15
f 5 15 16
f 5 16 17
f 5 17 25
f 5 25 39
f 5 39 57
f 5 57 84
f 5 84 111
f 5 111 142
f 5 142 141
f 5 141 158
f 5 158 164
f 5 164 163
f 5 163 162
f 5 162 161
f 5 161 148
f 5 148 120
f 5 120 119
f 5 119 93
f 5 93 86
f 5 86 59
f 5 59 43
f 5 43 27
f 5 27 18
f 5 18 9
f 5 9 8
f 5 8 7
f 5 7 6
f 9 18 26
f 9 26 40
f 9 40 58
f 9 58 85
f 9 85 92
f 9 92 69
f 9 69 44
f 9 44 28
f 9 28 19
f 9 19 10
f 11 20 21
f 15 22 23
f 15 23 24
f 15 24 25
f 15 25 16
f 16 25 17
f 18 27 26
f 19 28 29
f 20 30 21
f 21 30 32
f 21 32 33
f 21 33 34
f 21 34 35
f 21 35 31
f 22 36 23
f 23 37 24
f 23 36 38
f 23 38 37
f 24 37 39
f 24 39 25
f 26 27 41
f 26 41 42
f 26 42 40
f 27 43 41
f 28 44 45
f 28 45 46
f 28 46 29
f 31 47 48
f 31 48 36
f 31 35 49
f 31 49 50
f 31 50 51
f 31 51 47
f 36 37 38
f 36 48 37
f 37 52 39
f 37 48 53
f 37 53 54
f 37 54 55
f 37 55 52
f 39 52 56
f 39 56 57
f 40 42 58
f 41 43 59
f 41 59 60
f 41 60 42
f 42 61 62
f 42 62 63
f 42 63 64
f 42 64 65
f 42 65 66
f 42 66 58
f 42 60 67
f 42 67 68
f 42 68 61
f 44 69 64
f 44 64 70
f 44 70 45
f 45 70 46
f 46 70 71
f 46 71 72
f 47 51 48
f 48 51 73
f 48 73 74
f 48 74 75
f 48 75 53
f 49 51 50
f 49 76 77
f 49 77 51
f 51 77 78
f 51 78 73
f 52 55 79
f 52 79 56
f 53 75 54
f 54 75 80
f 54 80 81
f 54 81 82
f 54 82 55
f 55 82 79
f 56 79 107
f 56 107 83
f 56 83 57
f 57 83 84
f 58 66 65
f 58 65 85
f 59 86 67
f 59 67 60
f 61 87 62
f 61 68 88
f 61 88 89
f 61 89 87
f 62 87 63
f 63 90 64
f 63 87 91
f 63 91 90
f 64 69 92
f 64 92 85
f 64 85 65
f 64 90 70
f 67 86 93
f 67 93 94
f 67 94 95
f 67 95 68
f 68 95 88
f 70 90 72
f 70 72 71
f 72 90 96
f 72 96 97
f 73 78 98
f 73 98 99
f 73 99 74
f 74 99 100
f 74 100 101
f 74 101 75
f 75 101 80
f 76 102 77
f 77 102 103
f 77 103 104
f 77 104 78
f 78 104 105
f 78 105 98
f 79 82 106
f 79 106 107
f 80 101 81
f 81 101 108
f 81 108 82
f 82 108 106
f 83 107 109
f 83 109 110
f 83 110 111
f 83 111 84
f 87 89 91
f 88 95 112
f 88 112 89
f 89 112 113
f 89 113 114
f 89 114 115
f 89 115 116
f 89 116 91
f 90 117 96
f 90 91 116
f 90 116 118
f 90 118 117
f 93 119 94
f 94 119 120
f 94 120 121
f 94 121 122
f 94 122 123
f 94 123 95
f 95 124 112
f 95 123 124
f 96 117 125
f 96 125 126
f 96 126 97
f 98 105 127
f 98 127 100
f 98 100 99
f 100 127 128
f 100 128 101
f 101 128 127
f 101 127 129
f 101 129 130
f 101 130 113
f 101 113 108
f 102 131 103
f 103 131 104
f 104 131 132
f 104 132 133
f 104 133 134
f 104 134 135
f 104 135 105
f 105 135 136
f 105 136 127
f 106 109 107
f 106 108 113
f 106 113 137
f 106 137 109
f 109 138 110
f 109 137 139
f 109 139 138
f 110 138 140
f 110 140 141
f 110 141 142
f 110 142 111
f 112 124 122
f 112 122 143
f 112 143 113
f 113 130 114
f 113 143 144
f 113 144 137
f 114 130 145
f 114 145 116
f 114 116 115
f 116 146 147
f 116 147 118
f 116 145 146
f 117 118 125
f 118 147 125
f 120 148 121
f 121 148 149
f 121 149 122
f 122 124 123
f 122 149 150
f 122 150 138
f 122 138 139
f 122 139 137
f 122 137 144
f 122 144 143
f 125 147 151
f 125 151 126
f 127 136 130
f 127 130 129
f 130 136 152
f 130 152 145
f 133 153 134
f 134 153 154
f 134 154 155
f 134 155 147
f 134 147 146
f 134 146 156
f 134 156 157
f 134 157 135
f 135 157 152
f 135 152 136
f 138 150 140
f 140 150 158
f 140 158 141
f 145 152 157
f 145 157 159
f 145 159 146
f 146 159 156
f 147 155 154
f 147 154 160
f 147 160 151
f 148 161 149
f 149 161 162
f 149 162 150
f 150 162 163
f 150 163 164
f 150 164 158
f 151 160 154
f 156 159 157

