# https://github.com/mikedh/trimesh
v -0.00028196 -0.02544055 0.03145723
v -0.01832798 -0.01764237 0.03145723
v -0.00028196 -0.02704970 0.03145723
v -0.00028196 -0.02571594 -0.03505978
v -0.01832798 -0.02010359 0.03145723
v -0.01832798 -0.01837833 -0.03505978
v -0.00111404 -0.02708808 0.03145723
v -0.00028196 -0.02727423 0.03003782
v -0.00028196 -0.02743448 -0.03505978
v -0.01596601 -0.02207160 0.03145723
v -0.01832798 -0.02013525 0.03131399
v -0.01832798 -0.02076951 -0.03505978
v -0.00135960 -0.02706889 0.03145723
v -0.00111404 -0.02731070 0.03003782
v -0.00028196 -0.02741817 0.02837750
v -0.00111404 -0.02744407 -0.03505978
v -0.00028196 -0.02743448 0.02671067
v -0.01483361 -0.02291408 0.03145723
v -0.01701715 -0.02159375 0.02963413
v -0.01524346 -0.02316356 0.02919789
v -0.01832798 -0.02040105 0.03007689
v -0.01800999 -0.02103530 -0.03505978
v -0.01832798 -0.02076951 0.02671067
v -0.00277643 -0.02694799 0.03145723
v -0.00277643 -0.02717828 0.03003782
v -0.00277643 -0.02734812 0.02837750
v -0.00111404 -0.02744023 0.02837750
v -0.00136843 -0.02743544 -0.03505978
v -0.00111404 -0.02744407 0.02671067
v -0.01400330 -0.02337274 0.03145723
v -0.01832798 -0.02068027 0.02837750
v -0.01712491 -0.02168395 0.02837750
v -0.01595188 -0.02264349 0.02854028
v -0.01531590 -0.02321634 0.02809101
v -0.01457922 -0.02355505 0.02854028
v -0.01122440 -0.02515269 0.02838401
v -0.01084988 -0.02510184 0.03003782
v -0.01426122 -0.02350036 0.03003782
v -0.01633524 -0.02243239 -0.03505978
v -0.01800999 -0.02103530 0.02671067
v -0.00302199 -0.02690673 0.03145723
v -0.00443882 -0.02689617 0.03003782
v -0.00713998 -0.02652675 0.02943229
v -0.00443882 -0.02710343 0.02837750
v -0.00443882 -0.02717348 0.02671067
v -0.00277643 -0.02738554 0.02671067
v -0.00277643 -0.02738554 -0.03505978
v -0.01057429 -0.02497422 0.03145723
v -0.01717791 -0.02172905 0.02671067
v -0.01618154 -0.02255905 0.02671067
v -0.01535123 -0.02324128 0.02671067
v -0.01441315 -0.02372873 0.02671067
v -0.01197698 -0.02485427 0.02784359
v -0.00942422 -0.02590209 0.02837750
v -0.01108837 -0.02529278 0.02671067
v -0.00942422 -0.02599805 0.02671067
v -0.00846494 -0.02640393 0.02671067
v -0.00942422 -0.02568619 0.03003782
v -0.00963621 -0.02538778 0.03145723
v -0.01618154 -0.02255905 -0.03505978
v -0.00486634 -0.02658624 0.03145723
v -0.00607824 -0.02661695 0.03000527
v -0.00826885 -0.02634636 0.02837750
v -0.00743854 -0.02658049 0.02837750
v -0.00610121 -0.02681557 0.02837750
v -0.00550762 -0.02653059 0.03111866
v -0.00775830 -0.02590113 0.03145723
v -0.00942422 -0.02547414 0.03145723
v -0.00610121 -0.02688466 0.02671067
v -0.00469321 -0.02712934 -0.03505978
v -0.00443882 -0.02717348 -0.03505978
v -0.01605434 -0.02266364 -0.03505978
v -0.01535123 -0.02324128 -0.03505978
v -0.01283733 -0.02448293 0.02671067
v -0.01441315 -0.02372873 -0.03505978
v -0.01200702 -0.02486771 0.02671067
v -0.01108837 -0.02529278 -0.03505978
v -0.00968038 -0.02588962 -0.03505978
v -0.00942422 -0.02599805 -0.03505978
v -0.00763287 -0.02661503 0.02671067
v -0.00846494 -0.02640393 -0.03505978
v -0.00633617 -0.02684340 -0.03505978
v -0.00610121 -0.02688466 -0.03505978
v -0.01283733 -0.02448293 -0.03505978
v -0.01200702 -0.02486771 -0.03505978
v -0.00763287 -0.02661503 -0.03505978
f 1 2 5
f 1 5 10
f 1 10 18
f 1 18 30
f 1 30 48
f 1 48 59
f 1 59 68
f 1 68 67
f 1 67 61
f 1 61 41
f 1 41 24
f 1 24 13
f 1 13 7
f 1 7 3
f 1 3 8
f 1 8 15
f 1 15 17
f 1 17 9
f 1 9 4
f 1 4 2
f 2 4 6
f 2 6 12
f 2 12 23
f 2 23 31
f 2 31 21
f 2 21 11
f 2 11 5
f 3 7 8
f 4 9 16
f 4 16 28
f 4 28 47
f 4 47 71
f 4 71 70
f 4 70 83
f 4 83 82
f 4 82 86
f 4 86 81
f 4 81 79
f 4 79 78
f 4 78 77
f 4 77 85
f 4 85 84
f 4 84 75
f 4 75 73
f 4 73 72
f 4 72 60
f 4 60 39
f 4 39 22
f 4 22 12
f 4 12 6
f 5 11 10
f 7 13 14
f 7 14 8
f 8 14 15
f 9 17 29
f 9 29 16
f 10 11 19
f 10 19 20
f 10 20 18
f 11 21 19
f 12 22 40
f 12 40 23
f 13 24 25
f 13 25 14
f 14 25 26
f 14 26 27
f 14 27 15
f 15 27 17
f 16 29 28
f 17 27 29
f 18 20 30
f 19 31 20
f 19 21 31
f 20 31 32
f 20 32 33
f 20 33 34
f 20 34 35
f 20 35 36
f 20 36 37
f 20 37 38
f 20 38 30
f 22 39 40
f 23 40 34
f 23 34 31
f 24 41 25
f 25 42 43
f 25 43 44
f 25 44 26
f 25 41 42
f 26 44 45
f 26 45 46
f 26 46 27
f 27 46 29
f 28 29 46
f 28 46 47
f 30 38 37
f 30 37 48
f 31 34 32
f 32 34 33
f 34 40 49
f 34 49 50
f 34 50 51
f 34 51 52
f 34 52 35
f 35 52 53
f 35 53 36
f 36 54 37
f 36 53 55
f 36 55 56
f 36 56 57
f 36 57 54
f 37 58 59
f 37 59 48
f 37 54 58
f 39 60 50
f 39 50 49
f 39 49 40
f 41 61 62
f 41 62 42
f 42 62 43
f 43 63 64
f 43 64 65
f 43 65 44
f 43 62 66
f 43 66 67
f 43 67 68
f 43 68 63
f 44 65 45
f 45 65 69
f 45 69 70
f 45 70 71
f 45 71 47
f 45 47 46
f 50 60 72
f 50 72 51
f 51 72 73
f 51 73 75
f 51 75 52
f 52 74 53
f 52 75 84
f 52 84 74
f 53 74 76
f 53 76 55
f 54 63 58
f 54 57 63
f 55 76 85
f 55 85 77
f 55 77 78
f 55 78 56
f 56 78 79
f 56 79 81
f 56 81 57
f 57 80 64
f 57 64 63
f 57 81 86
f 57 86 80
f 58 63 68
f 58 68 59
f 61 67 66
f 61 66 62
f 64 80 69
f 64 69 65
f 69 80 82
f 69 82 83
f 69 83 70
f 74 84 85
f 74 85 76
f 80 86 82

