# https://github.com/mikedh/trimesh
v 0.02105902 -0.01738549 -0.10325491
v 0.02017374 -0.01844586 -0.10325491
v 0.02105902 -0.01738549 -0.10962568
v 0.01867042 -0.01738549 -0.10325491
v 0.02003384 -0.01861307 -0.10325491
v 0.02003384 -0.01861307 -0.10962568
v 0.02083353 -0.01738549 -0.11128862
v 0.01539445 -0.01738549 -0.11260378
v -0.00027135 -0.02328342 -0.11260378
v -0.00027135 -0.02571500 -0.10325491
v 0.01991692 -0.01875275 -0.10325491
v 0.01933647 -0.01944426 -0.10962568
v 0.02074792 -0.01748779 -0.11128862
v 0.01975406 -0.01828159 -0.11218919
v 0.02026978 -0.01738549 -0.11235850
v 0.01991483 -0.01738549 -0.11260378
v -0.00027135 -0.02665241 -0.11260378
v -0.00027135 -0.02743441 -0.10325491
v 0.01933647 -0.01944426 -0.10325491
v 0.01921120 -0.01930458 -0.11128862
v 0.01991483 -0.01847340 -0.11128862
v 0.01850339 -0.02030003 -0.10962568
v 0.01838020 -0.02018297 -0.11128862
v 0.02013615 -0.01738549 -0.11245094
v 0.01817349 -0.01999018 -0.11224593
v 0.01877064 -0.01890522 -0.11250219
v 0.01878317 -0.01871734 -0.11260378
v -0.00027135 -0.02682061 -0.11244911
v 0.00055130 -0.02661602 -0.11260378
v -0.00027135 -0.02743441 -0.10796275
v 0.00027151 -0.02742752 -0.10325491
v 0.01850339 -0.02030003 -0.10325491
v 0.01833217 -0.02043970 -0.10325491
v 0.01748030 -0.02113121 -0.10962568
v 0.01733623 -0.02101416 -0.11128862
v 0.01635699 -0.02150991 -0.11212695
v 0.01701677 -0.02059512 -0.11244636
v 0.01689150 -0.02046921 -0.11260378
v 0.01787909 -0.01969410 -0.11260378
v 0.01869130 -0.01882456 -0.11260378
v -0.00027135 -0.02705669 -0.11186978
v 0.00055130 -0.02680094 -0.11243263
v 0.00055130 -0.02726719 -0.11128862
v 0.00331155 -0.02637699 -0.11260378
v 0.00387738 -0.02665831 -0.11229901
v -0.00027135 -0.02743244 -0.10962568
v 0.00055130 -0.02742261 -0.10962568
v 0.00055130 -0.02742359 -0.10796275
v 0.00055130 -0.02742359 -0.10325491
v 0.01748030 -0.02113121 -0.10325491
v 0.01678919 -0.02161811 -0.10325491
v 0.01664930 -0.02171648 -0.10962568
v 0.01650523 -0.02161516 -0.11128862
v 0.01365311 -0.02360016 -0.11128862
v 0.01334200 -0.02337687 -0.11229260
v 0.01355289 -0.02281226 -0.11260378
v 0.01470125 -0.02201551 -0.11260378
v 0.01598533 -0.02111940 -0.11260378
v -0.00027135 -0.02729178 -0.11128862
v 0.00221330 -0.02715899 -0.11128862
v 0.00221330 -0.02735375 -0.10962568
v -0.00027135 -0.02737047 -0.11044754
v 0.00387738 -0.02632682 -0.11260378
v 0.00481069 -0.02620682 -0.11260378
v 0.00553938 -0.02655798 -0.11219376
v 0.00387738 -0.02702324 -0.11128862
v 0.00193560 -0.02736555 -0.10325491
v 0.01380553 -0.02371820 -0.10325491
v 0.01380553 -0.02371820 -0.10962568
v 0.01241705 -0.02454938 -0.10962568
v 0.01211430 -0.02447560 -0.11132797
v 0.01120396 -0.02476873 -0.11190913
v 0.01218737 -0.02369557 -0.11256076
v 0.01301420 -0.02316932 -0.11260378
v 0.00387738 -0.02721997 -0.10962568
v 0.00221330 -0.02735375 -0.10325491
v 0.00550806 -0.02609468 -0.11260378
v 0.00593609 -0.02601894 -0.11260378
v 0.00637456 -0.02649109 -0.11212146
v 0.00553938 -0.02680979 -0.11128862
v 0.01241705 -0.02454938 -0.10325491
v 0.01172594 -0.02485726 -0.10325491
v 0.01158605 -0.02491923 -0.10962568
v 0.01150879 -0.02488873 -0.11080081
v 0.00661467 -0.02657864 -0.11128862
v 0.01009735 -0.02495267 -0.11224501
v 0.01199737 -0.02372902 -0.11260378
v 0.01213726 -0.02366803 -0.11260378
v 0.01218737 -0.02364049 -0.11260378
v 0.00387738 -0.02721997 -0.10325491
v 0.00553938 -0.02699374 -0.10962568
v 0.00700720 -0.02566385 -0.11260378
v 0.00704478 -0.02565106 -0.11260378
v 0.01030823 -0.02445691 -0.11260378
v 0.01158605 -0.02491923 -0.10325491
v 0.01140857 -0.02498612 -0.10325491
v 0.01052538 -0.02531564 -0.10962568
v 0.00685061 -0.02666618 -0.10962568
v 0.00553938 -0.02699374 -0.10325491
v 0.01052538 -0.02531564 -0.10325491
v 0.00685061 -0.02666618 -0.10325491
f 1 2 3
f 1 3 7
f 1 7 15
f 1 15 24
f 1 24 16
f 1 16 8
f 1 8 4
f 1 4 10
f 1 10 18
f 1 18 31
f 1 31 49
f 1 49 67
f 1 67 76
f 1 76 90
f 1 90 99
f 1 99 101
f 1 101 100
f 1 100 96
f 1 96 95
f 1 95 82
f 1 82 81
f 1 81 68
f 1 68 51
f 1 51 50
f 1 50 33
f 1 33 32
f 1 32 19
f 1 19 11
f 1 11 5
f 1 5 2
f 2 5 6
f 2 6 3
f 3 6 7
f 4 8 9
f 4 9 10
f 5 11 6
f 6 11 12
f 6 12 13
f 6 13 7
f 7 13 14
f 7 14 15
f 8 16 27
f 8 27 40
f 8 40 39
f 8 39 38
f 8 38 58
f 8 58 57
f 8 57 56
f 8 56 74
f 8 74 89
f 8 89 88
f 8 88 87
f 8 87 94
f 8 94 93
f 8 93 92
f 8 92 78
f 8 78 77
f 8 77 64
f 8 64 63
f 8 63 44
f 8 44 29
f 8 29 17
f 8 17 9
f 9 17 28
f 9 28 41
f 9 41 59
f 9 59 62
f 9 62 46
f 9 46 30
f 9 30 18
f 9 18 10
f 11 19 12
f 12 20 21
f 12 21 13
f 12 19 32
f 12 32 22
f 12 22 23
f 12 23 20
f 13 21 14
f 14 16 24
f 14 24 15
f 14 21 20
f 14 20 25
f 14 25 26
f 14 26 27
f 14 27 16
f 17 29 28
f 18 30 31
f 20 23 25
f 22 32 33
f 22 33 34
f 22 34 23
f 23 34 35
f 23 35 36
f 23 36 25
f 25 37 38
f 25 38 39
f 25 39 40
f 25 40 26
f 25 36 37
f 26 40 27
f 28 29 42
f 28 42 43
f 28 43 41
f 29 44 45
f 29 45 42
f 30 46 47
f 30 47 48
f 30 48 31
f 31 48 49
f 33 50 34
f 34 50 51
f 34 51 52
f 34 52 53
f 34 53 35
f 35 53 36
f 36 53 54
f 36 54 55
f 36 55 56
f 36 56 57
f 36 57 58
f 36 58 38
f 36 38 37
f 41 43 59
f 42 45 43
f 43 45 60
f 43 60 61
f 43 61 47
f 43 47 62
f 43 62 59
f 44 63 45
f 45 63 64
f 45 64 65
f 45 65 66
f 45 66 60
f 46 62 47
f 47 61 48
f 48 61 67
f 48 67 49
f 51 68 69
f 51 69 52
f 52 69 53
f 53 69 54
f 54 69 70
f 54 70 71
f 54 71 55
f 55 71 72
f 55 72 73
f 55 73 74
f 55 74 56
f 60 66 75
f 60 75 61
f 61 75 90
f 61 90 76
f 61 76 67
f 64 77 65
f 65 77 78
f 65 78 79
f 65 79 66
f 66 79 80
f 66 80 75
f 68 81 70
f 68 70 69
f 70 82 83
f 70 83 84
f 70 84 71
f 70 81 82
f 71 84 72
f 72 85 79
f 72 79 86
f 72 86 73
f 72 84 85
f 73 87 88
f 73 88 89
f 73 89 74
f 73 86 87
f 75 80 91
f 75 91 99
f 75 99 90
f 78 92 79
f 79 85 80
f 79 92 93
f 79 93 94
f 79 94 86
f 80 85 91
f 82 95 83
f 83 95 96
f 83 96 97
f 83 97 84
f 84 97 98
f 84 98 85
f 85 98 91
f 86 94 87
f 91 98 101
f 91 101 99
f 96 100 97
f 97 100 101
f 97 101 98

