# https://github.com/mikedh/trimesh
v -0.00823601 -0.06700758 0.04547456
v -0.00644240 -0.06700758 0.03636477
v 0.00806342 -0.06700758 0.04793455
v -0.00808926 -0.05451782 0.05045897
v 0.00901729 -0.04711665 0.04285447
v -0.00069266 -0.06700758 0.03357873
v 0.01258617 -0.06700758 0.04781741
v 0.00613121 -0.04391565 0.05187445
v 0.00846494 -0.04391565 0.04908059
v 0.01258005 -0.06700758 0.04639413
v 0.01153854 -0.06700758 0.03307112
v 0.01108198 -0.06700758 0.03193093
v 0.00847309 -0.04391565 0.05172411
v 0.00847309 -0.04391565 0.05181197
f 1 2 6
f 1 6 12
f 1 12 11
f 1 11 10
f 1 10 7
f 1 7 3
f 1 3 4
f 1 4 2
f 2 4 5
f 2 5 6
f 3 7 4
f 4 7 8
f 4 8 9
f 4 9 5
f 5 9 7
f 5 7 10
f 5 10 11
f 5 11 12
f 5 12 6
f 7 9 13
f 7 13 14
f 7 14 8
f 8 14 13
f 8 13 9

