# https://github.com/mikedh/trimesh
v 0.00240383 0.07086243 0.08380529
v -0.00867206 0.07504715 0.08392269
v -0.01495220 0.06810001 0.08410157
v -0.00618077 0.06810001 0.08379970
v 0.00240383 0.06810001 0.07970216
v 0.00240383 0.08691119 0.07581705
v -0.03294490 0.06890101 0.08314566
v -0.03294490 0.06810001 0.08320156
v 0.00240383 0.06810001 0.02699313
v 0.00240383 0.08712722 0.07561021
v -0.03294490 0.08062169 0.07183130
v -0.03294490 0.06810001 0.02699313
v 0.00240383 0.08556918 0.02699313
v 0.00240383 0.08717884 0.07543133
v -0.01468231 0.08763000 0.06076850
v -0.03294490 0.08158136 0.06840458
v -0.03294490 0.08117990 0.02699313
v 0.00240383 0.08607387 0.03637332
v -0.01357853 0.08579476 0.02699313
v -0.03294490 0.08145328 0.03137577
v -0.02574090 0.08289661 0.02699313
f 1 2 3
f 1 3 4
f 1 4 5
f 1 5 9
f 1 9 13
f 1 13 18
f 1 18 14
f 1 14 10
f 1 10 6
f 1 6 2
f 2 7 3
f 2 6 7
f 3 7 8
f 3 8 12
f 3 12 9
f 3 9 5
f 3 5 4
f 6 10 7
f 7 10 11
f 7 11 16
f 7 16 20
f 7 20 17
f 7 17 12
f 7 12 8
f 9 12 17
f 9 17 21
f 9 21 19
f 9 19 13
f 10 14 11
f 11 14 15
f 11 15 16
f 13 19 15
f 13 15 18
f 14 18 15
f 15 19 20
f 15 20 16
f 17 20 21
f 19 21 20

