# https://github.com/mikedh/trimesh
v 0.00321807 -0.06311974 -0.04277461
v -0.00665887 -0.07243007 -0.04277461
v -0.00524911 -0.07079543 -0.02839075
v 0.01086092 -0.07038176 -0.02839075
v 0.00359042 -0.06330198 -0.04277461
v -0.00724646 -0.07665789 -0.03803396
v -0.00871433 -0.07560640 -0.02839075
v 0.00120351 -0.07446197 -0.04277461
v 0.01327366 -0.07296947 -0.02839075
v 0.01159486 -0.07221503 -0.04277461
v 0.00763676 -0.08169118 -0.02839075
v -0.00702692 -0.07914356 -0.02839075
v 0.01074255 -0.07462962 -0.04277461
v 0.01017864 -0.08173492 -0.02839075
f 1 2 3
f 1 3 4
f 1 4 5
f 1 5 10
f 1 10 13
f 1 13 8
f 1 8 2
f 2 6 7
f 2 7 3
f 2 8 6
f 3 7 12
f 3 12 11
f 3 11 14
f 3 14 9
f 3 9 4
f 4 9 5
f 5 9 10
f 6 8 11
f 6 11 12
f 6 12 7
f 8 13 11
f 9 14 13
f 9 13 10
f 11 13 14

