# https://github.com/mikedh/trimesh
v -0.01957409 -0.04170106 0.05654837
v -0.01957409 -0.04170106 0.06985335
v -0.02097239 -0.04170106 0.06924683
v -0.02472690 -0.03953986 0.02446047
v -0.01957409 -0.04081116 0.02411388
v -0.01957409 -0.03820500 0.07458037
v -0.02472690 -0.03657574 0.07453223
v -0.02472690 -0.04000823 0.06988224
v -0.02472690 -0.04075428 0.06887136
v -0.02472690 -0.04054017 0.06098658
v -0.02472690 -0.04019224 0.04827849
v -0.02472690 -0.03854959 0.00702536
v -0.02167607 -0.03992794 0.01102071
v -0.01957409 -0.03971383 0.00445486
v -0.01957409 -0.03425730 0.07803658
v -0.02472690 -0.03222992 0.07945180
v -0.02472690 -0.03422719 0.07769962
v -0.02472690 -0.03694374 -0.01653273
v -0.02213209 -0.03785707 -0.01694670
v -0.01957409 -0.03817155 -0.01694670
v -0.01957409 -0.03360492 0.07860460
v -0.02472690 -0.02935612 0.08035677
v -0.02472690 -0.03694040 -0.01657123
v -0.02445753 -0.03701066 -0.01694670
v -0.01957409 -0.00752666 -0.01694670
v -0.01957409 -0.02699085 0.08068410
v -0.02472690 -0.01885122 0.08138690
v -0.02472690 -0.03685676 -0.01694670
v -0.02472690 -0.00752666 -0.01694670
v -0.01957409 -0.00752666 0.07620739
v -0.01957409 -0.02005895 0.08135801
v -0.02472690 -0.01850663 0.08118472
v -0.02472690 -0.00752666 0.07278006
f 1 2 3
f 1 3 4
f 1 4 5
f 1 5 14
f 1 14 20
f 1 20 25
f 1 25 30
f 1 30 31
f 1 31 26
f 1 26 21
f 1 21 15
f 1 15 6
f 1 6 2
f 2 6 3
f 3 6 7
f 3 7 8
f 3 8 9
f 3 9 10
f 3 10 11
f 3 11 4
f 4 11 10
f 4 10 9
f 4 9 8
f 4 8 7
f 4 7 17
f 4 17 16
f 4 16 22
f 4 22 27
f 4 27 32
f 4 32 33
f 4 33 29
f 4 29 28
f 4 28 23
f 4 23 18
f 4 18 12
f 4 12 13
f 4 13 5
f 5 13 14
f 6 15 16
f 6 16 17
f 6 17 7
f 12 18 19
f 12 19 13
f 13 19 14
f 14 19 20
f 15 21 16
f 16 21 22
f 18 23 24
f 18 24 19
f 19 24 28
f 19 28 29
f 19 29 25
f 19 25 20
f 21 26 22
f 22 26 27
f 23 28 24
f 25 29 33
f 25 33 30
f 26 31 27
f 27 31 30
f 27 30 32
f 30 33 32

