# https://github.com/mikedh/trimesh
v 0.01156822 -0.03655381 -0.05952744
v 0.00111210 -0.03655381 -0.05270320
v -0.00424209 -0.03653935 -0.05121681
v -0.00314337 -0.03396154 -0.08669243
v 0.00169632 -0.03396154 -0.07668702
v 0.01140889 -0.03396154 -0.05394303
v 0.01156158 -0.03655381 -0.05228646
v 0.00451781 -0.03655381 -0.05256429
v -0.00295417 -0.03635716 -0.05121681
v -0.01605253 -0.03573573 -0.05121681
v -0.01256384 -0.03396154 -0.07635015
v 0.01140557 -0.03396154 -0.05280739
v 0.00943053 -0.03396154 -0.05121681
v -0.01881095 -0.03539571 -0.05121681
v -0.01762261 -0.03461011 -0.06218073
v -0.01794459 -0.03396154 -0.06723033
v -0.02234280 -0.03396154 -0.05121681
v -0.01884083 -0.03396154 -0.06478193
f 1 2 3
f 1 3 4
f 1 4 5
f 1 5 6
f 1 6 7
f 1 7 8
f 1 8 2
f 2 8 3
f 3 8 7
f 3 7 9
f 3 9 13
f 3 13 17
f 3 17 14
f 3 14 10
f 3 10 4
f 4 11 16
f 4 16 18
f 4 18 17
f 4 17 13
f 4 13 12
f 4 12 6
f 4 6 5
f 4 10 11
f 6 12 7
f 7 13 9
f 7 12 13
f 10 14 15
f 10 15 11
f 11 15 16
f 14 17 18
f 14 18 15
f 15 18 16

