# https://github.com/mikedh/trimesh
v -0.01745243 -0.04170106 0.03731362
v -0.01957359 -0.04081116 0.02412093
v -0.01957359 -0.03971383 0.00444795
v -0.01271963 -0.03901462 -0.01695633
v -0.01071464 -0.03906815 -0.01695633
v 0.00240383 -0.04135982 0.03093006
v 0.00240383 -0.04170106 0.03921902
v -0.01957359 -0.04170106 0.05655136
v -0.01957359 -0.03817155 -0.01695633
v 0.00240383 -0.03766303 -0.01695633
v 0.00240383 -0.04170106 0.07306157
v -0.01957359 -0.04170106 0.06986011
v -0.01957359 -0.00752666 -0.01695633
v 0.00240383 -0.00752666 -0.01695633
v 0.00240383 -0.04135982 0.07336141
v -0.01504731 -0.04170106 0.07184289
v -0.01957359 -0.03820500 0.07458008
v -0.01957359 -0.00752666 0.07620499
v 0.00240383 -0.00752666 0.08166971
v 0.00240383 -0.03946961 0.07501533
v -0.01957359 -0.03360492 0.07860366
v -0.01957359 -0.02005895 0.08136020
v -0.01451594 -0.00752666 0.07957087
v -0.01031020 -0.00752666 0.08185348
v -0.00883228 -0.02206291 0.08137954
v 0.00240383 -0.02513743 0.08111840
v -0.01957359 -0.02699085 0.08069282
f 1 2 3
f 1 3 4
f 1 4 5
f 1 5 6
f 1 6 7
f 1 7 11
f 1 11 16
f 1 16 12
f 1 12 8
f 1 8 2
f 2 8 12
f 2 12 17
f 2 17 21
f 2 21 27
f 2 27 22
f 2 22 18
f 2 18 13
f 2 13 9
f 2 9 3
f 3 9 4
f 4 9 13
f 4 13 14
f 4 14 10
f 4 10 5
f 5 10 6
f 6 10 14
f 6 14 19
f 6 19 26
f 6 26 20
f 6 20 15
f 6 15 11
f 6 11 7
f 11 15 16
f 12 16 17
f 13 18 23
f 13 23 24
f 13 24 19
f 13 19 14
f 15 20 16
f 16 20 21
f 16 21 17
f 18 22 23
f 19 24 25
f 19 25 26
f 20 26 21
f 21 26 27
f 22 27 25
f 22 25 24
f 22 24 23
f 25 27 26

