# https://github.com/mikedh/trimesh
v 0.00240448 0.04091615 -0.01695633
v 0.00240448 0.06005231 -0.01695633
v 0.00907220 0.04091615 -0.01695633
v 0.00240448 0.04091615 0.07878085
v 0.00907220 0.06005231 -0.01695633
v 0.00240448 0.06005231 0.07140564
v 0.00907220 0.04091615 0.06607337
v 0.00907220 0.06005231 0.07160244
v 0.00240448 0.04313584 0.07804988
v 0.00324847 0.06005231 0.07143375
f 1 2 5
f 1 5 3
f 1 3 7
f 1 7 4
f 1 4 9
f 1 9 6
f 1 6 2
f 2 6 10
f 2 10 8
f 2 8 5
f 3 5 8
f 3 8 7
f 4 7 8
f 4 8 9
f 6 9 10
f 8 10 9

