# https://github.com/mikedh/trimesh
v -0.02233852 -0.03396204 -0.05121333
v -0.02132855 -0.03437246 -0.05121333
v -0.02218280 -0.03761988 -0.02017547
v -0.02773096 -0.03396204 -0.03229083
v 0.00942883 -0.03396204 -0.05121333
v -0.01881030 -0.03539578 -0.05121333
v -0.02445634 -0.03701349 -0.01695633
v -0.01605179 -0.03573622 -0.05121333
v -0.01163817 -0.03890665 -0.02033307
v -0.01271933 -0.03901713 -0.01695633
v -0.02212940 -0.03785834 -0.01695633
v -0.02976870 -0.03396204 -0.01695633
v 0.01153776 -0.03396204 -0.04558655
v -0.00295331 -0.03635761 -0.05121333
v -0.00424358 -0.03653908 -0.05121333
v -0.00450609 -0.03715796 -0.04269938
v -0.01071273 -0.03906862 -0.01695633
v 0.01568442 -0.03396204 -0.01695633
v 0.01215620 -0.03584620 -0.01695633
v 0.00243468 -0.03766037 -0.01695633
f 1 2 3
f 1 3 4
f 1 4 12
f 1 12 18
f 1 18 13
f 1 13 5
f 1 5 14
f 1 14 15
f 1 15 8
f 1 8 6
f 1 6 2
f 2 6 3
f 3 7 4
f 3 6 8
f 3 8 9
f 3 9 10
f 3 10 11
f 3 11 7
f 4 7 12
f 5 13 14
f 7 11 10
f 7 10 17
f 7 17 20
f 7 20 19
f 7 19 18
f 7 18 12
f 8 15 9
f 9 15 16
f 9 16 17
f 9 17 10
f 13 18 19
f 13 19 14
f 14 20 16
f 14 16 15
f 14 19 20
f 16 20 17

